<?xml version="1.0" encoding="UTF-8" standalone="no"?>
<!DOCTYPE svg PUBLIC "-//W3C//DTD SVG 1.1//EN"
 "http://www.w3.org/Graphics/SVG/1.1/DTD/svg11.dtd">
<!-- Generated by graphviz version 2.43.0 (0)
 -->
<!-- Title: BT Pages: 1 -->
<svg width="811pt" height="469pt"
 viewBox="0.00 0.00 810.83 469.00" xmlns="http://www.w3.org/2000/svg" xmlns:xlink="http://www.w3.org/1999/xlink">
<g id="graph0" class="graph" transform="scale(1 1) rotate(0) translate(4 465)">
<title>BT</title>
<polygon fill="white" stroke="transparent" points="-4,4 -4,-465 806.83,-465 806.83,4 -4,4"/>
<!-- n1 -->
<g id="node1" class="node">
<title>n1</title>
<polygon fill="none" stroke="black" points="496.83,-461 467.83,-461 467.83,-432 496.83,-432 496.83,-461"/>
<text text-anchor="middle" x="482.33" y="-442.8" font-family="Times,serif" font-size="14.00">→</text>
</g>
<!-- n2 -->
<g id="node2" class="node">
<title>n2</title>
<polygon fill="none" stroke="black" points="376.83,-392.5 347.83,-392.5 347.83,-363.5 376.83,-363.5 376.83,-392.5"/>
<text text-anchor="middle" x="362.33" y="-374.3" font-family="Times,serif" font-size="14.00">?</text>
</g>
<!-- n1&#45;&gt;n2 -->
<g id="edge11" class="edge">
<title>n1&#45;&gt;n2</title>
<path fill="none" stroke="black" d="M467.8,-439C450.05,-430.88 419.1,-416.1 386.08,-396.03"/>
<polygon fill="black" stroke="black" points="387.52,-392.81 377.18,-390.52 383.84,-398.76 387.52,-392.81"/>
</g>
<!-- n13 -->
<g id="node13" class="node">
<title>n13</title>
<ellipse fill="none" stroke="black" cx="482.33" cy="-378" rx="87.99" ry="18"/>
<text text-anchor="middle" x="482.33" y="-374.3" font-family="Times,serif" font-size="14.00">In gripper none?</text>
</g>
<!-- n1&#45;&gt;n13 -->
<g id="edge12" class="edge">
<title>n1&#45;&gt;n13</title>
<path fill="none" stroke="black" d="M482.33,-431.72C482.33,-424.36 482.33,-415.04 482.33,-406.29"/>
<polygon fill="black" stroke="black" points="485.83,-406.07 482.33,-396.07 478.83,-406.07 485.83,-406.07"/>
</g>
<!-- n14 -->
<g id="node14" class="node">
<title>n14</title>
<polygon fill="none" stroke="black" points="616.83,-392.5 587.83,-392.5 587.83,-363.5 616.83,-363.5 616.83,-392.5"/>
<text text-anchor="middle" x="602.33" y="-374.3" font-family="Times,serif" font-size="14.00">?</text>
</g>
<!-- n1&#45;&gt;n14 -->
<g id="edge15" class="edge">
<title>n1&#45;&gt;n14</title>
<path fill="none" stroke="black" d="M496.87,-439C514.62,-430.88 545.56,-416.1 578.59,-396.03"/>
<polygon fill="black" stroke="black" points="580.83,-398.76 587.49,-390.52 577.14,-392.81 580.83,-398.76"/>
</g>
<!-- n3 -->
<g id="node3" class="node">
<title>n3</title>
<ellipse fill="none" stroke="black" cx="181.33" cy="-306" rx="181.17" ry="18"/>
<text text-anchor="middle" x="181.33" y="-302.3" font-family="Times,serif" font-size="14.00">BlueBox roughly at p1 in YellowBox?</text>
</g>
<!-- n2&#45;&gt;n3 -->
<g id="edge1" class="edge">
<title>n2&#45;&gt;n3</title>
<path fill="none" stroke="black" d="M347.83,-371.39C323.39,-361.94 272.86,-342.4 233.85,-327.31"/>
<polygon fill="black" stroke="black" points="234.79,-323.92 224.2,-323.58 232.26,-330.45 234.79,-323.92"/>
</g>
<!-- n4 -->
<g id="node4" class="node">
<title>n4</title>
<polygon fill="none" stroke="black" points="409.83,-320.5 380.83,-320.5 380.83,-291.5 409.83,-291.5 409.83,-320.5"/>
<text text-anchor="middle" x="395.33" y="-302.3" font-family="Times,serif" font-size="14.00">→</text>
</g>
<!-- n2&#45;&gt;n4 -->
<g id="edge10" class="edge">
<title>n2&#45;&gt;n4</title>
<path fill="none" stroke="black" d="M368.85,-363.17C373.33,-353.68 379.37,-340.86 384.55,-329.86"/>
<polygon fill="black" stroke="black" points="387.73,-331.34 388.83,-320.8 381.4,-328.35 387.73,-331.34"/>
</g>
<!-- n5 -->
<g id="node5" class="node">
<title>n5</title>
<polygon fill="none" stroke="black" points="329.83,-248.5 300.83,-248.5 300.83,-219.5 329.83,-219.5 329.83,-248.5"/>
<text text-anchor="middle" x="315.33" y="-230.3" font-family="Times,serif" font-size="14.00">?</text>
</g>
<!-- n4&#45;&gt;n5 -->
<g id="edge8" class="edge">
<title>n4&#45;&gt;n5</title>
<path fill="none" stroke="black" d="M380.66,-292.16C368.59,-281.6 351.3,-266.47 337.54,-254.43"/>
<polygon fill="black" stroke="black" points="339.74,-251.71 329.91,-247.76 335.14,-256.98 339.74,-251.71"/>
</g>
<!-- n12 -->
<g id="node12" class="node">
<title>n12</title>
<polygon fill="none" stroke="black" points="602.83,-252 347.83,-252 347.83,-216 602.83,-216 602.83,-252"/>
<text text-anchor="middle" x="475.33" y="-230.3" font-family="Times,serif" font-size="14.00">Place BlueBox at p1 in YellowBox</text>
</g>
<!-- n4&#45;&gt;n12 -->
<g id="edge9" class="edge">
<title>n4&#45;&gt;n12</title>
<path fill="none" stroke="black" d="M410.01,-292.16C420.62,-282.88 435.26,-270.06 448,-258.92"/>
<polygon fill="black" stroke="black" points="450.41,-261.46 455.63,-252.24 445.8,-256.19 450.41,-261.46"/>
</g>
<!-- n6 -->
<g id="node6" class="node">
<title>n6</title>
<ellipse fill="none" stroke="black" cx="247.33" cy="-162" rx="103.98" ry="18"/>
<text text-anchor="middle" x="247.33" y="-158.3" font-family="Times,serif" font-size="14.00">In gripper BlueBox?</text>
</g>
<!-- n5&#45;&gt;n6 -->
<g id="edge2" class="edge">
<title>n5&#45;&gt;n6</title>
<path fill="none" stroke="black" d="M301.9,-219.17C293.12,-210.13 281.4,-198.07 271.08,-187.44"/>
<polygon fill="black" stroke="black" points="273.35,-184.75 263.87,-180.02 268.32,-189.63 273.35,-184.75"/>
</g>
<!-- n7 -->
<g id="node7" class="node">
<title>n7</title>
<polygon fill="none" stroke="black" points="397.83,-176.5 368.83,-176.5 368.83,-147.5 397.83,-147.5 397.83,-176.5"/>
<text text-anchor="middle" x="383.33" y="-158.3" font-family="Times,serif" font-size="14.00">→</text>
</g>
<!-- n5&#45;&gt;n7 -->
<g id="edge7" class="edge">
<title>n5&#45;&gt;n7</title>
<path fill="none" stroke="black" d="M328.77,-219.17C338.45,-209.2 351.71,-195.56 362.73,-184.21"/>
<polygon fill="black" stroke="black" points="365.47,-186.41 369.93,-176.8 360.45,-181.54 365.47,-186.41"/>
</g>
<!-- n8 -->
<g id="node8" class="node">
<title>n8</title>
<polygon fill="none" stroke="black" points="353.83,-104.5 324.83,-104.5 324.83,-75.5 353.83,-75.5 353.83,-104.5"/>
<text text-anchor="middle" x="339.33" y="-86.3" font-family="Times,serif" font-size="14.00">?</text>
</g>
<!-- n7&#45;&gt;n8 -->
<g id="edge5" class="edge">
<title>n7&#45;&gt;n8</title>
<path fill="none" stroke="black" d="M374.64,-147.17C368.61,-137.58 360.45,-124.6 353.5,-113.53"/>
<polygon fill="black" stroke="black" points="356.29,-111.4 348.01,-104.8 350.37,-115.13 356.29,-111.4"/>
</g>
<!-- n11 -->
<g id="node11" class="node">
<title>n11</title>
<polygon fill="none" stroke="black" points="482.33,-108 372.33,-108 372.33,-72 482.33,-72 482.33,-108"/>
<text text-anchor="middle" x="427.33" y="-86.3" font-family="Times,serif" font-size="14.00">Pick BlueBox</text>
</g>
<!-- n7&#45;&gt;n11 -->
<g id="edge6" class="edge">
<title>n7&#45;&gt;n11</title>
<path fill="none" stroke="black" d="M392.03,-147.17C397.49,-138.48 404.71,-127 411.19,-116.68"/>
<polygon fill="black" stroke="black" points="414.28,-118.35 416.64,-108.02 408.35,-114.62 414.28,-118.35"/>
</g>
<!-- n9 -->
<g id="node9" class="node">
<title>n9</title>
<ellipse fill="none" stroke="black" cx="257.33" cy="-18" rx="77.19" ry="18"/>
<text text-anchor="middle" x="257.33" y="-14.3" font-family="Times,serif" font-size="14.00">Gripper open?</text>
</g>
<!-- n8&#45;&gt;n9 -->
<g id="edge3" class="edge">
<title>n8&#45;&gt;n9</title>
<path fill="none" stroke="black" d="M324.67,-76.49C313.61,-67.04 298.11,-53.81 284.77,-42.42"/>
<polygon fill="black" stroke="black" points="286.68,-39.45 276.8,-35.62 282.13,-44.77 286.68,-39.45"/>
</g>
<!-- n10 -->
<g id="node10" class="node">
<title>n10</title>
<polygon fill="none" stroke="black" points="489.83,-36 352.83,-36 352.83,0 489.83,0 489.83,-36"/>
<text text-anchor="middle" x="421.33" y="-14.3" font-family="Times,serif" font-size="14.00">Set gripper open</text>
</g>
<!-- n8&#45;&gt;n10 -->
<g id="edge4" class="edge">
<title>n8&#45;&gt;n10</title>
<path fill="none" stroke="black" d="M353.99,-76.49C364.9,-67.17 380.13,-54.17 393.35,-42.89"/>
<polygon fill="black" stroke="black" points="395.92,-45.29 401.26,-36.14 391.38,-39.97 395.92,-45.29"/>
</g>
<!-- n15 -->
<g id="node15" class="node">
<title>n15</title>
<ellipse fill="none" stroke="black" cx="570.33" cy="-306" rx="77.19" ry="18"/>
<text text-anchor="middle" x="570.33" y="-302.3" font-family="Times,serif" font-size="14.00">Gripper open?</text>
</g>
<!-- n14&#45;&gt;n15 -->
<g id="edge13" class="edge">
<title>n14&#45;&gt;n15</title>
<path fill="none" stroke="black" d="M596.01,-363.17C592.12,-354.66 587,-343.46 582.36,-333.31"/>
<polygon fill="black" stroke="black" points="585.45,-331.66 578.11,-324.02 579.09,-334.57 585.45,-331.66"/>
</g>
<!-- n16 -->
<g id="node16" class="node">
<title>n16</title>
<polygon fill="none" stroke="black" points="802.83,-324 665.83,-324 665.83,-288 802.83,-288 802.83,-324"/>
<text text-anchor="middle" x="734.33" y="-302.3" font-family="Times,serif" font-size="14.00">Set gripper open</text>
</g>
<!-- n14&#45;&gt;n16 -->
<g id="edge14" class="edge">
<title>n14&#45;&gt;n16</title>
<path fill="none" stroke="black" d="M616.96,-369.24C635.22,-359.56 667.19,-342.61 693.16,-328.83"/>
<polygon fill="black" stroke="black" points="694.87,-331.89 702.06,-324.11 691.59,-325.71 694.87,-331.89"/>
</g>
</g>
</svg>
