<?xml version="1.0" encoding="UTF-8" standalone="no"?>
<!DOCTYPE svg PUBLIC "-//W3C//DTD SVG 1.1//EN"
 "http://www.w3.org/Graphics/SVG/1.1/DTD/svg11.dtd">
<!-- Generated by graphviz version 2.43.0 (0)
 -->
<!-- Title: BT Pages: 1 -->
<svg width="831pt" height="469pt"
 viewBox="0.00 0.00 830.58 469.00" xmlns="http://www.w3.org/2000/svg" xmlns:xlink="http://www.w3.org/1999/xlink">
<g id="graph0" class="graph" transform="scale(1 1) rotate(0) translate(4 465)">
<title>BT</title>
<polygon fill="white" stroke="transparent" points="-4,4 -4,-465 826.58,-465 826.58,4 -4,4"/>
<!-- n1 -->
<g id="node1" class="node">
<title>n1</title>
<polygon fill="none" stroke="black" points="516.58,-461 487.58,-461 487.58,-432 516.58,-432 516.58,-461"/>
<text text-anchor="middle" x="502.08" y="-442.8" font-family="Times,serif" font-size="14.00">→</text>
</g>
<!-- n2 -->
<g id="node2" class="node">
<title>n2</title>
<polygon fill="none" stroke="black" points="396.58,-392.5 367.58,-392.5 367.58,-363.5 396.58,-363.5 396.58,-392.5"/>
<text text-anchor="middle" x="382.08" y="-374.3" font-family="Times,serif" font-size="14.00">?</text>
</g>
<!-- n1&#45;&gt;n2 -->
<g id="edge11" class="edge">
<title>n1&#45;&gt;n2</title>
<path fill="none" stroke="black" d="M487.55,-439C469.8,-430.88 438.85,-416.1 405.83,-396.03"/>
<polygon fill="black" stroke="black" points="407.27,-392.81 396.93,-390.52 403.59,-398.76 407.27,-392.81"/>
</g>
<!-- n13 -->
<g id="node13" class="node">
<title>n13</title>
<ellipse fill="none" stroke="black" cx="502.08" cy="-378" rx="87.99" ry="18"/>
<text text-anchor="middle" x="502.08" y="-374.3" font-family="Times,serif" font-size="14.00">In gripper none?</text>
</g>
<!-- n1&#45;&gt;n13 -->
<g id="edge12" class="edge">
<title>n1&#45;&gt;n13</title>
<path fill="none" stroke="black" d="M502.08,-431.72C502.08,-424.36 502.08,-415.04 502.08,-406.29"/>
<polygon fill="black" stroke="black" points="505.58,-406.07 502.08,-396.07 498.58,-406.07 505.58,-406.07"/>
</g>
<!-- n14 -->
<g id="node14" class="node">
<title>n14</title>
<polygon fill="none" stroke="black" points="636.58,-392.5 607.58,-392.5 607.58,-363.5 636.58,-363.5 636.58,-392.5"/>
<text text-anchor="middle" x="622.08" y="-374.3" font-family="Times,serif" font-size="14.00">?</text>
</g>
<!-- n1&#45;&gt;n14 -->
<g id="edge15" class="edge">
<title>n1&#45;&gt;n14</title>
<path fill="none" stroke="black" d="M516.62,-439C534.37,-430.88 565.31,-416.1 598.34,-396.03"/>
<polygon fill="black" stroke="black" points="600.58,-398.76 607.24,-390.52 596.89,-392.81 600.58,-398.76"/>
</g>
<!-- n3 -->
<g id="node3" class="node">
<title>n3</title>
<ellipse fill="none" stroke="black" cx="191.08" cy="-306" rx="191.17" ry="18"/>
<text text-anchor="middle" x="191.08" y="-302.3" font-family="Times,serif" font-size="14.00">GreenBox roughly at p1 in KittingBox?</text>
</g>
<!-- n2&#45;&gt;n3 -->
<g id="edge1" class="edge">
<title>n2&#45;&gt;n3</title>
<path fill="none" stroke="black" d="M367.41,-371.62C341.72,-362.21 287.37,-342.29 245.76,-327.04"/>
<polygon fill="black" stroke="black" points="246.88,-323.72 236.28,-323.57 244.47,-330.29 246.88,-323.72"/>
</g>
<!-- n4 -->
<g id="node4" class="node">
<title>n4</title>
<polygon fill="none" stroke="black" points="429.58,-320.5 400.58,-320.5 400.58,-291.5 429.58,-291.5 429.58,-320.5"/>
<text text-anchor="middle" x="415.08" y="-302.3" font-family="Times,serif" font-size="14.00">→</text>
</g>
<!-- n2&#45;&gt;n4 -->
<g id="edge10" class="edge">
<title>n2&#45;&gt;n4</title>
<path fill="none" stroke="black" d="M388.6,-363.17C393.08,-353.68 399.12,-340.86 404.3,-329.86"/>
<polygon fill="black" stroke="black" points="407.48,-331.34 408.58,-320.8 401.15,-328.35 407.48,-331.34"/>
</g>
<!-- n5 -->
<g id="node5" class="node">
<title>n5</title>
<polygon fill="none" stroke="black" points="345.58,-248.5 316.58,-248.5 316.58,-219.5 345.58,-219.5 345.58,-248.5"/>
<text text-anchor="middle" x="331.08" y="-230.3" font-family="Times,serif" font-size="14.00">?</text>
</g>
<!-- n4&#45;&gt;n5 -->
<g id="edge8" class="edge">
<title>n4&#45;&gt;n5</title>
<path fill="none" stroke="black" d="M400.45,-292.81C387.52,-282.03 368.46,-266.15 353.59,-253.76"/>
<polygon fill="black" stroke="black" points="355.75,-251 345.83,-247.29 351.27,-256.38 355.75,-251"/>
</g>
<!-- n12 -->
<g id="node12" class="node">
<title>n12</title>
<polygon fill="none" stroke="black" points="634.08,-252 364.08,-252 364.08,-216 634.08,-216 634.08,-252"/>
<text text-anchor="middle" x="499.08" y="-230.3" font-family="Times,serif" font-size="14.00">Place GreenBox at p1 in KittingBox</text>
</g>
<!-- n4&#45;&gt;n12 -->
<g id="edge9" class="edge">
<title>n4&#45;&gt;n12</title>
<path fill="none" stroke="black" d="M429.71,-292.81C441.03,-283.38 457.04,-270.03 470.83,-258.54"/>
<polygon fill="black" stroke="black" points="473.2,-261.13 478.64,-252.03 468.72,-255.75 473.2,-261.13"/>
</g>
<!-- n6 -->
<g id="node6" class="node">
<title>n6</title>
<ellipse fill="none" stroke="black" cx="259.08" cy="-162" rx="111.28" ry="18"/>
<text text-anchor="middle" x="259.08" y="-158.3" font-family="Times,serif" font-size="14.00">In gripper GreenBox?</text>
</g>
<!-- n5&#45;&gt;n6 -->
<g id="edge2" class="edge">
<title>n5&#45;&gt;n6</title>
<path fill="none" stroke="black" d="M316.86,-219.17C307.47,-210.04 294.91,-197.83 283.9,-187.13"/>
<polygon fill="black" stroke="black" points="286.2,-184.48 276.59,-180.02 281.32,-189.5 286.2,-184.48"/>
</g>
<!-- n7 -->
<g id="node7" class="node">
<title>n7</title>
<polygon fill="none" stroke="black" points="417.58,-176.5 388.58,-176.5 388.58,-147.5 417.58,-147.5 417.58,-176.5"/>
<text text-anchor="middle" x="403.08" y="-158.3" font-family="Times,serif" font-size="14.00">→</text>
</g>
<!-- n5&#45;&gt;n7 -->
<g id="edge7" class="edge">
<title>n5&#45;&gt;n7</title>
<path fill="none" stroke="black" d="M345.31,-219.17C355.66,-209.1 369.87,-195.29 381.6,-183.89"/>
<polygon fill="black" stroke="black" points="384.16,-186.28 388.89,-176.8 379.28,-181.26 384.16,-186.28"/>
</g>
<!-- n8 -->
<g id="node8" class="node">
<title>n8</title>
<polygon fill="none" stroke="black" points="370.58,-104.5 341.58,-104.5 341.58,-75.5 370.58,-75.5 370.58,-104.5"/>
<text text-anchor="middle" x="356.08" y="-86.3" font-family="Times,serif" font-size="14.00">?</text>
</g>
<!-- n7&#45;&gt;n8 -->
<g id="edge5" class="edge">
<title>n7&#45;&gt;n8</title>
<path fill="none" stroke="black" d="M393.8,-147.17C387.3,-137.49 378.47,-124.34 370.99,-113.2"/>
<polygon fill="black" stroke="black" points="373.83,-111.15 365.35,-104.8 368.02,-115.05 373.83,-111.15"/>
</g>
<!-- n11 -->
<g id="node11" class="node">
<title>n11</title>
<polygon fill="none" stroke="black" points="511.08,-108 389.08,-108 389.08,-72 511.08,-72 511.08,-108"/>
<text text-anchor="middle" x="450.08" y="-86.3" font-family="Times,serif" font-size="14.00">Pick GreenBox</text>
</g>
<!-- n7&#45;&gt;n11 -->
<g id="edge6" class="edge">
<title>n7&#45;&gt;n11</title>
<path fill="none" stroke="black" d="M412.37,-147.17C418.26,-138.39 426.07,-126.77 433.05,-116.37"/>
<polygon fill="black" stroke="black" points="435.99,-118.27 438.66,-108.02 430.18,-114.37 435.99,-118.27"/>
</g>
<!-- n9 -->
<g id="node9" class="node">
<title>n9</title>
<ellipse fill="none" stroke="black" cx="274.08" cy="-18" rx="77.19" ry="18"/>
<text text-anchor="middle" x="274.08" y="-14.3" font-family="Times,serif" font-size="14.00">Gripper open?</text>
</g>
<!-- n8&#45;&gt;n9 -->
<g id="edge3" class="edge">
<title>n8&#45;&gt;n9</title>
<path fill="none" stroke="black" d="M341.42,-76.49C330.36,-67.04 314.86,-53.81 301.52,-42.42"/>
<polygon fill="black" stroke="black" points="303.43,-39.45 293.55,-35.62 298.88,-44.77 303.43,-39.45"/>
</g>
<!-- n10 -->
<g id="node10" class="node">
<title>n10</title>
<polygon fill="none" stroke="black" points="506.58,-36 369.58,-36 369.58,0 506.58,0 506.58,-36"/>
<text text-anchor="middle" x="438.08" y="-14.3" font-family="Times,serif" font-size="14.00">Set gripper open</text>
</g>
<!-- n8&#45;&gt;n10 -->
<g id="edge4" class="edge">
<title>n8&#45;&gt;n10</title>
<path fill="none" stroke="black" d="M370.74,-76.49C381.65,-67.17 396.88,-54.17 410.09,-42.89"/>
<polygon fill="black" stroke="black" points="412.67,-45.29 418.01,-36.14 408.13,-39.97 412.67,-45.29"/>
</g>
<!-- n15 -->
<g id="node15" class="node">
<title>n15</title>
<ellipse fill="none" stroke="black" cx="590.08" cy="-306" rx="77.19" ry="18"/>
<text text-anchor="middle" x="590.08" y="-302.3" font-family="Times,serif" font-size="14.00">Gripper open?</text>
</g>
<!-- n14&#45;&gt;n15 -->
<g id="edge13" class="edge">
<title>n14&#45;&gt;n15</title>
<path fill="none" stroke="black" d="M615.76,-363.17C611.87,-354.66 606.75,-343.46 602.11,-333.31"/>
<polygon fill="black" stroke="black" points="605.2,-331.66 597.86,-324.02 598.84,-334.57 605.2,-331.66"/>
</g>
<!-- n16 -->
<g id="node16" class="node">
<title>n16</title>
<polygon fill="none" stroke="black" points="822.58,-324 685.58,-324 685.58,-288 822.58,-288 822.58,-324"/>
<text text-anchor="middle" x="754.08" y="-302.3" font-family="Times,serif" font-size="14.00">Set gripper open</text>
</g>
<!-- n14&#45;&gt;n16 -->
<g id="edge14" class="edge">
<title>n14&#45;&gt;n16</title>
<path fill="none" stroke="black" d="M636.71,-369.24C654.97,-359.56 686.94,-342.61 712.91,-328.83"/>
<polygon fill="black" stroke="black" points="714.62,-331.89 721.81,-324.11 711.34,-325.71 714.62,-331.89"/>
</g>
</g>
</svg>
