<?xml version="1.0" encoding="UTF-8" standalone="no"?>
<!DOCTYPE svg PUBLIC "-//W3C//DTD SVG 1.1//EN"
 "http://www.w3.org/Graphics/SVG/1.1/DTD/svg11.dtd">
<!-- Generated by graphviz version 2.43.0 (0)
 -->
<!-- Title: pastafarianism Pages: 1 -->
<svg width="3119pt" height="503pt"
 viewBox="0.00 0.00 3119.23 502.60" xmlns="http://www.w3.org/2000/svg" xmlns:xlink="http://www.w3.org/1999/xlink">
<g id="graph0" class="graph" transform="scale(1 1) rotate(0) translate(4 498.6)">
<title>pastafarianism</title>
<polygon fill="white" stroke="transparent" points="-4,4 -4,-498.6 3115.23,-498.6 3115.23,4 -4,4"/>
<!-- selector:
 place(lampshade, lampbulb, outwardgripper, left_hand) -->
<g id="node1" class="node">
<title>selector:
 place(lampshade, lampbulb, outwardgripper, left_hand)</title>
<polygon fill="#8deeee" stroke="black" points="1703.99,-442.54 1703.99,-473.18 1468.11,-494.84 1134.53,-494.84 898.66,-473.18 898.66,-442.54 1134.53,-420.88 1468.11,-420.88 1703.99,-442.54"/>
<text text-anchor="middle" x="1301.32" y="-463.46" font-family="Times,serif" font-size="18.00">selector:</text>
<text text-anchor="middle" x="1301.32" y="-443.46" font-family="Times,serif" font-size="18.00"> place(lampshade, lampbulb, outwardgripper, left_hand)</text>
</g>
<!-- target:
 is_placed_to(lampshade, lampbulb) -->
<g id="node2" class="node">
<title>target:
 is_placed_to(lampshade, lampbulb)</title>
<ellipse fill="#ffec8b" stroke="black" cx="1040.32" cy="-351.18" rx="241.25" ry="33.88"/>
<text text-anchor="middle" x="1040.32" y="-356.78" font-family="Times,serif" font-size="18.00">target:</text>
<text text-anchor="middle" x="1040.32" y="-336.78" font-family="Times,serif" font-size="18.00"> is_placed_to(lampshade, lampbulb)</text>
</g>
<!-- selector:
 place(lampshade, lampbulb, outwardgripper, left_hand)&#45;&gt;target:
 is_placed_to(lampshade, lampbulb) -->
<g id="edge1" class="edge">
<title>selector:
 place(lampshade, lampbulb, outwardgripper, left_hand)&#45;&gt;target:
 is_placed_to(lampshade, lampbulb)</title>
<path fill="none" stroke="black" d="M1211.87,-420.98C1184.68,-410.08 1154.84,-398.11 1127.78,-387.26"/>
<polygon fill="black" stroke="black" points="1128.91,-383.94 1118.33,-383.47 1126.31,-390.44 1128.91,-383.94"/>
</g>
<!-- sequence:
 place(lampshade, lampbulb, outwardgripper, left_hand) -->
<g id="node3" class="node">
<title>sequence:
 place(lampshade, lampbulb, outwardgripper, left_hand)</title>
<polygon fill="#ff7f24" stroke="black" points="1825.32,-375.18 1299.32,-375.18 1299.32,-327.18 1825.32,-327.18 1825.32,-375.18"/>
<text text-anchor="middle" x="1562.32" y="-356.78" font-family="Times,serif" font-size="18.00">sequence:</text>
<text text-anchor="middle" x="1562.32" y="-336.78" font-family="Times,serif" font-size="18.00"> place(lampshade, lampbulb, outwardgripper, left_hand)</text>
</g>
<!-- selector:
 place(lampshade, lampbulb, outwardgripper, left_hand)&#45;&gt;sequence:
 place(lampshade, lampbulb, outwardgripper, left_hand) -->
<g id="edge2" class="edge">
<title>selector:
 place(lampshade, lampbulb, outwardgripper, left_hand)&#45;&gt;sequence:
 place(lampshade, lampbulb, outwardgripper, left_hand)</title>
<path fill="none" stroke="black" d="M1390.78,-420.98C1425.02,-407.25 1463.45,-391.84 1495.24,-379.09"/>
<polygon fill="black" stroke="black" points="1496.91,-382.19 1504.89,-375.22 1494.3,-375.69 1496.91,-382.19"/>
</g>
<!-- selector:
 change_tool(left_hand, inwardgripper, outwardgripper) -->
<g id="node4" class="node">
<title>selector:
 change_tool(left_hand, inwardgripper, outwardgripper)</title>
<polygon fill="#8deeee" stroke="black" points="1119.84,-229.19 1119.84,-259.82 886.39,-281.48 556.26,-281.48 322.81,-259.82 322.81,-229.19 556.26,-207.53 886.39,-207.53 1119.84,-229.19"/>
<text text-anchor="middle" x="721.32" y="-250.1" font-family="Times,serif" font-size="18.00">selector:</text>
<text text-anchor="middle" x="721.32" y="-230.1" font-family="Times,serif" font-size="18.00"> change_tool(left_hand, inwardgripper, outwardgripper)</text>
</g>
<!-- sequence:
 place(lampshade, lampbulb, outwardgripper, left_hand)&#45;&gt;selector:
 change_tool(left_hand, inwardgripper, outwardgripper) -->
<g id="edge3" class="edge">
<title>sequence:
 place(lampshade, lampbulb, outwardgripper, left_hand)&#45;&gt;selector:
 change_tool(left_hand, inwardgripper, outwardgripper)</title>
<path fill="none" stroke="black" d="M1377.5,-327.18C1257.21,-312.2 1098.9,-292.5 967.92,-276.2"/>
<polygon fill="black" stroke="black" points="968.09,-272.69 957.74,-274.93 967.23,-279.64 968.09,-272.69"/>
</g>
<!-- selector:
 pick_up(left_hand, outwardgripper, lampshade) -->
<g id="node10" class="node">
<title>selector:
 pick_up(left_hand, outwardgripper, lampshade)</title>
<polygon fill="#8deeee" stroke="black" points="1907.69,-229.19 1907.69,-259.82 1705.38,-281.48 1419.27,-281.48 1216.96,-259.82 1216.96,-229.19 1419.27,-207.53 1705.38,-207.53 1907.69,-229.19"/>
<text text-anchor="middle" x="1562.32" y="-250.1" font-family="Times,serif" font-size="18.00">selector:</text>
<text text-anchor="middle" x="1562.32" y="-230.1" font-family="Times,serif" font-size="18.00"> pick_up(left_hand, outwardgripper, lampshade)</text>
</g>
<!-- sequence:
 place(lampshade, lampbulb, outwardgripper, left_hand)&#45;&gt;selector:
 pick_up(left_hand, outwardgripper, lampshade) -->
<g id="edge9" class="edge">
<title>sequence:
 place(lampshade, lampbulb, outwardgripper, left_hand)&#45;&gt;selector:
 pick_up(left_hand, outwardgripper, lampshade)</title>
<path fill="none" stroke="black" d="M1562.32,-326.95C1562.32,-316.5 1562.32,-303.79 1562.32,-291.54"/>
<polygon fill="black" stroke="black" points="1565.82,-291.42 1562.32,-281.42 1558.82,-291.42 1565.82,-291.42"/>
</g>
<!-- action:
 place(left_hand, outwardgripper, lampshade, lampbulb) -->
<g id="node16" class="node">
<title>action:
 place(left_hand, outwardgripper, lampshade, lampbulb)</title>
<ellipse fill="lightgreen" stroke="black" cx="2297.32" cy="-244.5" rx="371.88" ry="33.88"/>
<text text-anchor="middle" x="2297.32" y="-250.1" font-family="Times,serif" font-size="18.00">action:</text>
<text text-anchor="middle" x="2297.32" y="-230.1" font-family="Times,serif" font-size="18.00"> place(left_hand, outwardgripper, lampshade, lampbulb)</text>
</g>
<!-- sequence:
 place(lampshade, lampbulb, outwardgripper, left_hand)&#45;&gt;action:
 place(left_hand, outwardgripper, lampshade, lampbulb) -->
<g id="edge15" class="edge">
<title>sequence:
 place(lampshade, lampbulb, outwardgripper, left_hand)&#45;&gt;action:
 place(left_hand, outwardgripper, lampshade, lampbulb)</title>
<path fill="none" stroke="black" d="M1724.08,-327.14C1832.19,-311.75 1975.36,-291.36 2091.57,-274.81"/>
<polygon fill="black" stroke="black" points="2092.26,-278.24 2101.66,-273.37 2091.27,-271.31 2092.26,-278.24"/>
</g>
<!-- target:
 hold(left_hand, outwardgripper) -->
<g id="node5" class="node">
<title>target:
 hold(left_hand, outwardgripper)</title>
<ellipse fill="#ffec8b" stroke="black" cx="221.32" cy="-137.82" rx="221.15" ry="33.88"/>
<text text-anchor="middle" x="221.32" y="-143.42" font-family="Times,serif" font-size="18.00">target:</text>
<text text-anchor="middle" x="221.32" y="-123.42" font-family="Times,serif" font-size="18.00"> hold(left_hand, outwardgripper)</text>
</g>
<!-- selector:
 change_tool(left_hand, inwardgripper, outwardgripper)&#45;&gt;target:
 hold(left_hand, outwardgripper) -->
<g id="edge4" class="edge">
<title>selector:
 change_tool(left_hand, inwardgripper, outwardgripper)&#45;&gt;target:
 hold(left_hand, outwardgripper)</title>
<path fill="none" stroke="black" d="M551.35,-207.92C488.73,-194.81 418.62,-180.13 359.18,-167.69"/>
<polygon fill="black" stroke="black" points="359.86,-164.25 349.36,-165.63 358.43,-171.1 359.86,-164.25"/>
</g>
<!-- sequence:
 change_tool(left_hand, inwardgripper, outwardgripper) -->
<g id="node6" class="node">
<title>sequence:
 change_tool(left_hand, inwardgripper, outwardgripper)</title>
<polygon fill="#ff7f24" stroke="black" points="981.82,-161.82 460.82,-161.82 460.82,-113.82 981.82,-113.82 981.82,-161.82"/>
<text text-anchor="middle" x="721.32" y="-143.42" font-family="Times,serif" font-size="18.00">sequence:</text>
<text text-anchor="middle" x="721.32" y="-123.42" font-family="Times,serif" font-size="18.00"> change_tool(left_hand, inwardgripper, outwardgripper)</text>
</g>
<!-- selector:
 change_tool(left_hand, inwardgripper, outwardgripper)&#45;&gt;sequence:
 change_tool(left_hand, inwardgripper, outwardgripper) -->
<g id="edge5" class="edge">
<title>selector:
 change_tool(left_hand, inwardgripper, outwardgripper)&#45;&gt;sequence:
 change_tool(left_hand, inwardgripper, outwardgripper)</title>
<path fill="none" stroke="black" d="M721.32,-207.48C721.32,-196.09 721.32,-183.57 721.32,-172.36"/>
<polygon fill="black" stroke="black" points="724.82,-172.11 721.32,-162.11 717.82,-172.11 724.82,-172.11"/>
</g>
<!-- precondition:
 hold(left_hand, inwardgripper) -->
<g id="node7" class="node">
<title>precondition:
 hold(left_hand, inwardgripper)</title>
<ellipse fill="#ffec8b" stroke="black" cx="276.32" cy="-33.94" rx="212.68" ry="33.88"/>
<text text-anchor="middle" x="276.32" y="-39.54" font-family="Times,serif" font-size="18.00">precondition:</text>
<text text-anchor="middle" x="276.32" y="-19.54" font-family="Times,serif" font-size="18.00"> hold(left_hand, inwardgripper)</text>
</g>
<!-- sequence:
 change_tool(left_hand, inwardgripper, outwardgripper)&#45;&gt;precondition:
 hold(left_hand, inwardgripper) -->
<g id="edge6" class="edge">
<title>sequence:
 change_tool(left_hand, inwardgripper, outwardgripper)&#45;&gt;precondition:
 hold(left_hand, inwardgripper)</title>
<path fill="none" stroke="black" d="M620.63,-113.77C556.84,-99.17 473.76,-80.14 405.19,-64.45"/>
<polygon fill="black" stroke="black" points="405.71,-60.97 395.19,-62.15 404.15,-67.8 405.71,-60.97"/>
</g>
<!-- precondition:
 is_empty(inwardgripper) -->
<g id="node8" class="node">
<title>precondition:
 is_empty(inwardgripper)</title>
<ellipse fill="#ffec8b" stroke="black" cx="681.32" cy="-33.94" rx="174.81" ry="33.88"/>
<text text-anchor="middle" x="681.32" y="-39.54" font-family="Times,serif" font-size="18.00">precondition:</text>
<text text-anchor="middle" x="681.32" y="-19.54" font-family="Times,serif" font-size="18.00"> is_empty(inwardgripper)</text>
</g>
<!-- sequence:
 change_tool(left_hand, inwardgripper, outwardgripper)&#45;&gt;precondition:
 is_empty(inwardgripper) -->
<g id="edge7" class="edge">
<title>sequence:
 change_tool(left_hand, inwardgripper, outwardgripper)&#45;&gt;precondition:
 is_empty(inwardgripper)</title>
<path fill="none" stroke="black" d="M712.25,-113.7C708.02,-102.94 702.86,-89.79 697.97,-77.35"/>
<polygon fill="black" stroke="black" points="701.22,-76.04 694.31,-68.01 694.71,-78.6 701.22,-76.04"/>
</g>
<!-- action:
 change_tool(left_hand, inwardgripper, outwardgripper) -->
<g id="node9" class="node">
<title>action:
 change_tool(left_hand, inwardgripper, outwardgripper)</title>
<ellipse fill="lightgreen" stroke="black" cx="1242.32" cy="-33.94" rx="368.31" ry="33.88"/>
<text text-anchor="middle" x="1242.32" y="-39.54" font-family="Times,serif" font-size="18.00">action:</text>
<text text-anchor="middle" x="1242.32" y="-19.54" font-family="Times,serif" font-size="18.00"> change_tool(left_hand, inwardgripper, outwardgripper)</text>
</g>
<!-- sequence:
 change_tool(left_hand, inwardgripper, outwardgripper)&#45;&gt;action:
 change_tool(left_hand, inwardgripper, outwardgripper) -->
<g id="edge8" class="edge">
<title>sequence:
 change_tool(left_hand, inwardgripper, outwardgripper)&#45;&gt;action:
 change_tool(left_hand, inwardgripper, outwardgripper)</title>
<path fill="none" stroke="black" d="M839.22,-113.77C910.18,-99.89 1001.54,-82.03 1079.34,-66.81"/>
<polygon fill="black" stroke="black" points="1080.11,-70.23 1089.25,-64.88 1078.76,-63.36 1080.11,-70.23"/>
</g>
<!-- target:
 hold(outwardgripper, lampshade) -->
<g id="node11" class="node">
<title>target:
 hold(outwardgripper, lampshade)</title>
<ellipse fill="#ffec8b" stroke="black" cx="1562.32" cy="-137.82" rx="229.21" ry="33.88"/>
<text text-anchor="middle" x="1562.32" y="-143.42" font-family="Times,serif" font-size="18.00">target:</text>
<text text-anchor="middle" x="1562.32" y="-123.42" font-family="Times,serif" font-size="18.00"> hold(outwardgripper, lampshade)</text>
</g>
<!-- selector:
 pick_up(left_hand, outwardgripper, lampshade)&#45;&gt;target:
 hold(outwardgripper, lampshade) -->
<g id="edge10" class="edge">
<title>selector:
 pick_up(left_hand, outwardgripper, lampshade)&#45;&gt;target:
 hold(outwardgripper, lampshade)</title>
<path fill="none" stroke="black" d="M1562.32,-207.48C1562.32,-199.32 1562.32,-190.58 1562.32,-182.15"/>
<polygon fill="black" stroke="black" points="1565.82,-182.1 1562.32,-172.1 1558.82,-182.1 1565.82,-182.1"/>
</g>
<!-- sequence:
 pick_up(left_hand, outwardgripper, lampshade) -->
<g id="node12" class="node">
<title>sequence:
 pick_up(left_hand, outwardgripper, lampshade)</title>
<polygon fill="#ff7f24" stroke="black" points="2419.82,-161.82 1968.82,-161.82 1968.82,-113.82 2419.82,-113.82 2419.82,-161.82"/>
<text text-anchor="middle" x="2194.32" y="-143.42" font-family="Times,serif" font-size="18.00">sequence:</text>
<text text-anchor="middle" x="2194.32" y="-123.42" font-family="Times,serif" font-size="18.00"> pick_up(left_hand, outwardgripper, lampshade)</text>
</g>
<!-- selector:
 pick_up(left_hand, outwardgripper, lampshade)&#45;&gt;sequence:
 pick_up(left_hand, outwardgripper, lampshade) -->
<g id="edge11" class="edge">
<title>selector:
 pick_up(left_hand, outwardgripper, lampshade)&#45;&gt;sequence:
 pick_up(left_hand, outwardgripper, lampshade)</title>
<path fill="none" stroke="black" d="M1750.66,-212.31C1844.72,-196.73 1956.91,-178.15 2044.94,-163.57"/>
<polygon fill="black" stroke="black" points="2045.71,-166.99 2055.01,-161.9 2044.57,-160.08 2045.71,-166.99"/>
</g>
<!-- precondition:
 is_empty(outwardgripper) -->
<g id="node13" class="node">
<title>precondition:
 is_empty(outwardgripper)</title>
<ellipse fill="#ffec8b" stroke="black" cx="1812.32" cy="-33.94" rx="183.28" ry="33.88"/>
<text text-anchor="middle" x="1812.32" y="-39.54" font-family="Times,serif" font-size="18.00">precondition:</text>
<text text-anchor="middle" x="1812.32" y="-19.54" font-family="Times,serif" font-size="18.00"> is_empty(outwardgripper)</text>
</g>
<!-- sequence:
 pick_up(left_hand, outwardgripper, lampshade)&#45;&gt;precondition:
 is_empty(outwardgripper) -->
<g id="edge12" class="edge">
<title>sequence:
 pick_up(left_hand, outwardgripper, lampshade)&#45;&gt;precondition:
 is_empty(outwardgripper)</title>
<path fill="none" stroke="black" d="M2107.64,-113.7C2053.44,-99.25 1983.06,-80.48 1924.6,-64.89"/>
<polygon fill="black" stroke="black" points="1925.15,-61.41 1914.58,-62.21 1923.34,-68.17 1925.15,-61.41"/>
</g>
<!-- precondition:
 hold(left_hand, outwardgripper) -->
<g id="node14" class="node">
<title>precondition:
 hold(left_hand, outwardgripper)</title>
<ellipse fill="#ffec8b" stroke="black" cx="2234.32" cy="-33.94" rx="221.15" ry="33.88"/>
<text text-anchor="middle" x="2234.32" y="-39.54" font-family="Times,serif" font-size="18.00">precondition:</text>
<text text-anchor="middle" x="2234.32" y="-19.54" font-family="Times,serif" font-size="18.00"> hold(left_hand, outwardgripper)</text>
</g>
<!-- sequence:
 pick_up(left_hand, outwardgripper, lampshade)&#45;&gt;precondition:
 hold(left_hand, outwardgripper) -->
<g id="edge13" class="edge">
<title>sequence:
 pick_up(left_hand, outwardgripper, lampshade)&#45;&gt;precondition:
 hold(left_hand, outwardgripper)</title>
<path fill="none" stroke="black" d="M2203.4,-113.7C2207.63,-102.94 2212.79,-89.79 2217.68,-77.35"/>
<polygon fill="black" stroke="black" points="2220.94,-78.6 2221.34,-68.01 2214.43,-76.04 2220.94,-78.6"/>
</g>
<!-- action:
 pick_up(left_hand, outwardgripper, lampshade) -->
<g id="node15" class="node">
<title>action:
 pick_up(left_hand, outwardgripper, lampshade)</title>
<ellipse fill="lightgreen" stroke="black" cx="2792.32" cy="-33.94" rx="318.81" ry="33.88"/>
<text text-anchor="middle" x="2792.32" y="-39.54" font-family="Times,serif" font-size="18.00">action:</text>
<text text-anchor="middle" x="2792.32" y="-19.54" font-family="Times,serif" font-size="18.00"> pick_up(left_hand, outwardgripper, lampshade)</text>
</g>
<!-- sequence:
 pick_up(left_hand, outwardgripper, lampshade)&#45;&gt;action:
 pick_up(left_hand, outwardgripper, lampshade) -->
<g id="edge14" class="edge">
<title>sequence:
 pick_up(left_hand, outwardgripper, lampshade)&#45;&gt;action:
 pick_up(left_hand, outwardgripper, lampshade)</title>
<path fill="none" stroke="black" d="M2329.65,-113.77C2414.83,-99.26 2525.64,-80.38 2617.45,-64.73"/>
<polygon fill="black" stroke="black" points="2618.14,-68.17 2627.41,-63.04 2616.97,-61.27 2618.14,-68.17"/>
</g>
</g>
</svg>
