<?xml version="1.0" encoding="UTF-8" standalone="no"?>
<!DOCTYPE svg PUBLIC "-//W3C//DTD SVG 1.1//EN"
 "http://www.w3.org/Graphics/SVG/1.1/DTD/svg11.dtd">
<!-- Generated by graphviz version 2.43.0 (0)
 -->
<!-- Title: pastafarianism Pages: 1 -->
<svg width="1417pt" height="476pt"
 viewBox="0.00 0.00 1417.10 476.00" xmlns="http://www.w3.org/2000/svg" xmlns:xlink="http://www.w3.org/1999/xlink">
<g id="graph0" class="graph" transform="scale(1 1) rotate(0) translate(4 472)">
<title>pastafarianism</title>
<polygon fill="white" stroke="transparent" points="-4,4 -4,-472 1413.1,-472 1413.1,4 -4,4"/>
<!-- Sequence -->
<g id="node1" class="node">
<title>Sequence</title>
<polygon fill="orange" stroke="black" points="678.42,-468 616.42,-468 616.42,-432 678.42,-432 678.42,-468"/>
<text text-anchor="middle" x="647.42" y="-447.8" font-family="Times,serif" font-size="9.00">Sequence</text>
</g>
<!-- Fallback -->
<g id="node2" class="node">
<title>Fallback</title>
<polygon fill="cyan" stroke="black" points="388.41,-370.54 388.41,-385.46 367.91,-396 338.93,-396 318.43,-385.46 318.43,-370.54 338.93,-360 367.91,-360 388.41,-370.54"/>
<text text-anchor="middle" x="353.42" y="-375.8" font-family="Times,serif" font-size="9.00">Fallback</text>
</g>
<!-- Sequence&#45;&gt;Fallback -->
<g id="edge1" class="edge">
<title>Sequence&#45;&gt;Fallback</title>
<path fill="none" stroke="black" d="M616.24,-441.58C563.29,-428.97 455.75,-403.36 395.95,-389.13"/>
<polygon fill="black" stroke="black" points="396.61,-385.69 386.07,-386.77 394.99,-392.5 396.61,-385.69"/>
</g>
<!-- Fallback &#160;&#160; -->
<g id="node13" class="node">
<title>Fallback &#160;&#160;</title>
<polygon fill="cyan" stroke="black" points="682.41,-370.54 682.41,-385.46 661.91,-396 632.93,-396 612.43,-385.46 612.43,-370.54 632.93,-360 661.91,-360 682.41,-370.54"/>
<text text-anchor="middle" x="647.42" y="-375.8" font-family="Times,serif" font-size="9.00">Fallback</text>
</g>
<!-- Sequence&#45;&gt;Fallback &#160;&#160; -->
<g id="edge12" class="edge">
<title>Sequence&#45;&gt;Fallback &#160;&#160;</title>
<path fill="none" stroke="black" d="M647.42,-431.7C647.42,-423.98 647.42,-414.71 647.42,-406.11"/>
<polygon fill="black" stroke="black" points="650.92,-406.1 647.42,-396.1 643.92,-406.1 650.92,-406.1"/>
</g>
<!-- Fallback &#160;&#160;&#160;&#160;&#160; -->
<g id="node24" class="node">
<title>Fallback &#160;&#160;&#160;&#160;&#160;</title>
<polygon fill="cyan" stroke="black" points="971.41,-370.54 971.41,-385.46 950.91,-396 921.93,-396 901.43,-385.46 901.43,-370.54 921.93,-360 950.91,-360 971.41,-370.54"/>
<text text-anchor="middle" x="936.42" y="-375.8" font-family="Times,serif" font-size="9.00">Fallback</text>
</g>
<!-- Sequence&#45;&gt;Fallback &#160;&#160;&#160;&#160;&#160; -->
<g id="edge23" class="edge">
<title>Sequence&#45;&gt;Fallback &#160;&#160;&#160;&#160;&#160;</title>
<path fill="none" stroke="black" d="M678.62,-441.44C730.67,-428.84 835.27,-403.5 893.97,-389.28"/>
<polygon fill="black" stroke="black" points="895.13,-392.6 904.03,-386.85 893.48,-385.8 895.13,-392.6"/>
</g>
<!-- object_at YellowBox [0.0, 0.0, 0.175] 0.02 KittingBox -->
<g id="node3" class="node">
<title>object_at YellowBox [0.0, 0.0, 0.175] 0.02 KittingBox</title>
<ellipse fill="lightgray" stroke="black" cx="152.42" cy="-306" rx="152.34" ry="18"/>
<text text-anchor="middle" x="152.42" y="-303.8" font-family="Times,serif" font-size="9.00">object_at YellowBox [0.0, 0.0, 0.175] 0.02 KittingBox</text>
</g>
<!-- Fallback&#45;&gt;object_at YellowBox [0.0, 0.0, 0.175] 0.02 KittingBox -->
<g id="edge2" class="edge">
<title>Fallback&#45;&gt;object_at YellowBox [0.0, 0.0, 0.175] 0.02 KittingBox</title>
<path fill="none" stroke="black" d="M325.05,-367.12C294.95,-356.64 246.61,-339.8 208.72,-326.61"/>
<polygon fill="black" stroke="black" points="209.44,-323.15 198.84,-323.17 207.13,-329.76 209.44,-323.15"/>
</g>
<!-- Sequence  -->
<g id="node4" class="node">
<title>Sequence </title>
<polygon fill="orange" stroke="black" points="384.42,-324 322.42,-324 322.42,-288 384.42,-288 384.42,-324"/>
<text text-anchor="middle" x="353.42" y="-303.8" font-family="Times,serif" font-size="9.00">Sequence</text>
</g>
<!-- Fallback&#45;&gt;Sequence  -->
<g id="edge3" class="edge">
<title>Fallback&#45;&gt;Sequence </title>
<path fill="none" stroke="black" d="M353.42,-359.7C353.42,-351.98 353.42,-342.71 353.42,-334.11"/>
<polygon fill="black" stroke="black" points="356.92,-334.1 353.42,-324.1 349.92,-334.1 356.92,-334.1"/>
</g>
<!-- Fallback  -->
<g id="node5" class="node">
<title>Fallback </title>
<polygon fill="cyan" stroke="black" points="232.41,-226.54 232.41,-241.46 211.91,-252 182.93,-252 162.43,-241.46 162.43,-226.54 182.93,-216 211.91,-216 232.41,-226.54"/>
<text text-anchor="middle" x="197.42" y="-231.8" font-family="Times,serif" font-size="9.00">Fallback</text>
</g>
<!-- Sequence &#45;&gt;Fallback  -->
<g id="edge4" class="edge">
<title>Sequence &#45;&gt;Fallback </title>
<path fill="none" stroke="black" d="M322.23,-291C296.25,-279.35 259.29,-262.76 232.33,-250.67"/>
<polygon fill="black" stroke="black" points="233.45,-247.33 222.89,-246.43 230.58,-253.72 233.45,-247.33"/>
</g>
<!-- place0 YellowBox [0.0, 0.0, 0.175] 0.02 KittingBox -->
<g id="node12" class="node">
<title>place0 YellowBox [0.0, 0.0, 0.175] 0.02 KittingBox</title>
<ellipse fill="lightgray" stroke="black" cx="396.42" cy="-234" rx="146.14" ry="18"/>
<text text-anchor="middle" x="396.42" y="-231.8" font-family="Times,serif" font-size="9.00">place0 YellowBox [0.0, 0.0, 0.175] 0.02 KittingBox</text>
</g>
<!-- Sequence &#45;&gt;place0 YellowBox [0.0, 0.0, 0.175] 0.02 KittingBox -->
<g id="edge11" class="edge">
<title>Sequence &#45;&gt;place0 YellowBox [0.0, 0.0, 0.175] 0.02 KittingBox</title>
<path fill="none" stroke="black" d="M364.05,-287.7C369.05,-279.56 375.11,-269.69 380.63,-260.7"/>
<polygon fill="black" stroke="black" points="383.66,-262.46 385.91,-252.1 377.7,-258.79 383.66,-262.46"/>
</g>
<!-- in_gripper YellowBox -->
<g id="node6" class="node">
<title>in_gripper YellowBox</title>
<ellipse fill="lightgray" stroke="black" cx="162.42" cy="-162" rx="66.29" ry="18"/>
<text text-anchor="middle" x="162.42" y="-159.8" font-family="Times,serif" font-size="9.00">in_gripper YellowBox</text>
</g>
<!-- Fallback &#45;&gt;in_gripper YellowBox -->
<g id="edge5" class="edge">
<title>Fallback &#45;&gt;in_gripper YellowBox</title>
<path fill="none" stroke="black" d="M188.77,-215.7C184.78,-207.73 179.97,-198.1 175.55,-189.26"/>
<polygon fill="black" stroke="black" points="178.58,-187.48 170.97,-180.1 172.31,-190.61 178.58,-187.48"/>
</g>
<!-- Sequence &#160; -->
<g id="node7" class="node">
<title>Sequence &#160;</title>
<polygon fill="orange" stroke="black" points="308.42,-180 246.42,-180 246.42,-144 308.42,-144 308.42,-180"/>
<text text-anchor="middle" x="277.42" y="-159.8" font-family="Times,serif" font-size="9.00">Sequence</text>
</g>
<!-- Fallback &#45;&gt;Sequence &#160; -->
<g id="edge6" class="edge">
<title>Fallback &#45;&gt;Sequence &#160;</title>
<path fill="none" stroke="black" d="M215.18,-217.46C225.42,-208.5 238.53,-197.03 250.07,-186.93"/>
<polygon fill="black" stroke="black" points="252.53,-189.43 257.75,-180.21 247.92,-184.16 252.53,-189.43"/>
</g>
<!-- Fallback &#160; -->
<g id="node8" class="node">
<title>Fallback &#160;</title>
<polygon fill="cyan" stroke="black" points="303.41,-82.54 303.41,-97.46 282.91,-108 253.93,-108 233.43,-97.46 233.43,-82.54 253.93,-72 282.91,-72 303.41,-82.54"/>
<text text-anchor="middle" x="268.42" y="-87.8" font-family="Times,serif" font-size="9.00">Fallback</text>
</g>
<!-- Sequence &#160;&#45;&gt;Fallback &#160; -->
<g id="edge7" class="edge">
<title>Sequence &#160;&#45;&gt;Fallback &#160;</title>
<path fill="none" stroke="black" d="M275.2,-143.7C274.2,-135.98 273.01,-126.71 271.91,-118.11"/>
<polygon fill="black" stroke="black" points="275.37,-117.58 270.62,-108.1 268.42,-118.47 275.37,-117.58"/>
</g>
<!-- pick0 YellowBox -->
<g id="node11" class="node">
<title>pick0 YellowBox</title>
<ellipse fill="lightgray" stroke="black" cx="374.42" cy="-90" rx="53.23" ry="18"/>
<text text-anchor="middle" x="374.42" y="-87.8" font-family="Times,serif" font-size="9.00">pick0 YellowBox</text>
</g>
<!-- Sequence &#160;&#45;&gt;pick0 YellowBox -->
<g id="edge10" class="edge">
<title>Sequence &#160;&#45;&gt;pick0 YellowBox</title>
<path fill="none" stroke="black" d="M301.4,-143.7C314.41,-134.31 330.61,-122.62 344.45,-112.63"/>
<polygon fill="black" stroke="black" points="346.64,-115.36 352.7,-106.67 342.55,-109.68 346.64,-115.36"/>
</g>
<!-- gripper_state open -->
<g id="node9" class="node">
<title>gripper_state open</title>
<ellipse fill="lightgray" stroke="black" cx="184.42" cy="-18" rx="60.09" ry="18"/>
<text text-anchor="middle" x="184.42" y="-15.8" font-family="Times,serif" font-size="9.00">gripper_state open</text>
</g>
<!-- Fallback &#160;&#45;&gt;gripper_state open -->
<g id="edge8" class="edge">
<title>Fallback &#160;&#45;&gt;gripper_state open</title>
<path fill="none" stroke="black" d="M250.19,-73.81C238.95,-64.44 224.32,-52.25 211.72,-41.75"/>
<polygon fill="black" stroke="black" points="213.7,-38.85 203.78,-35.13 209.22,-44.22 213.7,-38.85"/>
</g>
<!-- open_gripper -->
<g id="node10" class="node">
<title>open_gripper</title>
<ellipse fill="lightgray" stroke="black" cx="308.42" cy="-18" rx="45.72" ry="18"/>
<text text-anchor="middle" x="308.42" y="-15.8" font-family="Times,serif" font-size="9.00">open_gripper</text>
</g>
<!-- Fallback &#160;&#45;&gt;open_gripper -->
<g id="edge9" class="edge">
<title>Fallback &#160;&#45;&gt;open_gripper</title>
<path fill="none" stroke="black" d="M278.31,-71.7C282.98,-63.52 288.65,-53.6 293.8,-44.58"/>
<polygon fill="black" stroke="black" points="297,-46.04 298.92,-35.62 290.92,-42.57 297,-46.04"/>
</g>
<!-- object_at GreenBox [0.0, 0.0, 0.22] 0.02 YellowBox -->
<g id="node14" class="node">
<title>object_at GreenBox [0.0, 0.0, 0.22] 0.02 YellowBox</title>
<ellipse fill="lightgray" stroke="black" cx="549.42" cy="-306" rx="146.79" ry="18"/>
<text text-anchor="middle" x="549.42" y="-303.8" font-family="Times,serif" font-size="9.00">object_at GreenBox [0.0, 0.0, 0.22] 0.02 YellowBox</text>
</g>
<!-- Fallback &#160;&#160;&#45;&gt;object_at GreenBox [0.0, 0.0, 0.22] 0.02 YellowBox -->
<g id="edge13" class="edge">
<title>Fallback &#160;&#160;&#45;&gt;object_at GreenBox [0.0, 0.0, 0.22] 0.02 YellowBox</title>
<path fill="none" stroke="black" d="M627.11,-362.5C613.99,-353.12 596.63,-340.72 581.65,-330.02"/>
<polygon fill="black" stroke="black" points="583.32,-326.91 573.15,-323.95 579.25,-332.61 583.32,-326.91"/>
</g>
<!-- Sequence &#160;&#160; -->
<g id="node15" class="node">
<title>Sequence &#160;&#160;</title>
<polygon fill="orange" stroke="black" points="776.42,-324 714.42,-324 714.42,-288 776.42,-288 776.42,-324"/>
<text text-anchor="middle" x="745.42" y="-303.8" font-family="Times,serif" font-size="9.00">Sequence</text>
</g>
<!-- Fallback &#160;&#160;&#45;&gt;Sequence &#160;&#160; -->
<g id="edge14" class="edge">
<title>Fallback &#160;&#160;&#45;&gt;Sequence &#160;&#160;</title>
<path fill="none" stroke="black" d="M667.73,-362.5C680.75,-353.19 697.96,-340.9 712.87,-330.25"/>
<polygon fill="black" stroke="black" points="715.23,-332.86 721.34,-324.2 711.16,-327.17 715.23,-332.86"/>
</g>
<!-- Fallback &#160;&#160;&#160; -->
<g id="node16" class="node">
<title>Fallback &#160;&#160;&#160;</title>
<polygon fill="cyan" stroke="black" points="647.41,-226.54 647.41,-241.46 626.91,-252 597.93,-252 577.43,-241.46 577.43,-226.54 597.93,-216 626.91,-216 647.41,-226.54"/>
<text text-anchor="middle" x="612.42" y="-231.8" font-family="Times,serif" font-size="9.00">Fallback</text>
</g>
<!-- Sequence &#160;&#160;&#45;&gt;Fallback &#160;&#160;&#160; -->
<g id="edge15" class="edge">
<title>Sequence &#160;&#160;&#45;&gt;Fallback &#160;&#160;&#160;</title>
<path fill="none" stroke="black" d="M714.24,-288.59C693.37,-277.61 665.97,-263.18 644.85,-252.07"/>
<polygon fill="black" stroke="black" points="646.4,-248.93 635.93,-247.37 643.14,-255.13 646.4,-248.93"/>
</g>
<!-- place0 GreenBox [0.0, 0.0, 0.22] 0.02 YellowBox -->
<g id="node23" class="node">
<title>place0 GreenBox [0.0, 0.0, 0.22] 0.02 YellowBox</title>
<ellipse fill="lightgray" stroke="black" cx="805.42" cy="-234" rx="140.09" ry="18"/>
<text text-anchor="middle" x="805.42" y="-231.8" font-family="Times,serif" font-size="9.00">place0 GreenBox [0.0, 0.0, 0.22] 0.02 YellowBox</text>
</g>
<!-- Sequence &#160;&#160;&#45;&gt;place0 GreenBox [0.0, 0.0, 0.22] 0.02 YellowBox -->
<g id="edge22" class="edge">
<title>Sequence &#160;&#160;&#45;&gt;place0 GreenBox [0.0, 0.0, 0.22] 0.02 YellowBox</title>
<path fill="none" stroke="black" d="M760.25,-287.7C767.45,-279.3 776.22,-269.07 784.11,-259.86"/>
<polygon fill="black" stroke="black" points="786.91,-261.97 790.76,-252.1 781.59,-257.42 786.91,-261.97"/>
</g>
<!-- in_gripper GreenBox -->
<g id="node17" class="node">
<title>in_gripper GreenBox</title>
<ellipse fill="lightgray" stroke="black" cx="501.42" cy="-162" rx="65.64" ry="18"/>
<text text-anchor="middle" x="501.42" y="-159.8" font-family="Times,serif" font-size="9.00">in_gripper GreenBox</text>
</g>
<!-- Fallback &#160;&#160;&#160;&#45;&gt;in_gripper GreenBox -->
<g id="edge16" class="edge">
<title>Fallback &#160;&#160;&#160;&#45;&gt;in_gripper GreenBox</title>
<path fill="none" stroke="black" d="M591.02,-219.5C575.21,-209.53 553.37,-195.76 535.22,-184.31"/>
<polygon fill="black" stroke="black" points="536.97,-181.28 526.64,-178.91 533.23,-187.2 536.97,-181.28"/>
</g>
<!-- Sequence &#160;&#160;&#160; -->
<g id="node18" class="node">
<title>Sequence &#160;&#160;&#160;</title>
<polygon fill="orange" stroke="black" points="647.42,-180 585.42,-180 585.42,-144 647.42,-144 647.42,-180"/>
<text text-anchor="middle" x="616.42" y="-159.8" font-family="Times,serif" font-size="9.00">Sequence</text>
</g>
<!-- Fallback &#160;&#160;&#160;&#45;&gt;Sequence &#160;&#160;&#160; -->
<g id="edge17" class="edge">
<title>Fallback &#160;&#160;&#160;&#45;&gt;Sequence &#160;&#160;&#160;</title>
<path fill="none" stroke="black" d="M613.41,-215.7C613.85,-207.98 614.38,-198.71 614.87,-190.11"/>
<polygon fill="black" stroke="black" points="618.37,-190.29 615.44,-180.1 611.38,-189.89 618.37,-190.29"/>
</g>
<!-- Fallback &#160;&#160;&#160;&#160; -->
<g id="node19" class="node">
<title>Fallback &#160;&#160;&#160;&#160;</title>
<polygon fill="cyan" stroke="black" points="550.41,-82.54 550.41,-97.46 529.91,-108 500.93,-108 480.43,-97.46 480.43,-82.54 500.93,-72 529.91,-72 550.41,-82.54"/>
<text text-anchor="middle" x="515.42" y="-87.8" font-family="Times,serif" font-size="9.00">Fallback</text>
</g>
<!-- Sequence &#160;&#160;&#160;&#45;&gt;Fallback &#160;&#160;&#160;&#160; -->
<g id="edge18" class="edge">
<title>Sequence &#160;&#160;&#160;&#45;&gt;Fallback &#160;&#160;&#160;&#160;</title>
<path fill="none" stroke="black" d="M591.71,-143.88C577.36,-133.93 559.21,-121.35 544.21,-110.95"/>
<polygon fill="black" stroke="black" points="546.01,-107.94 535.8,-105.12 542.02,-113.7 546.01,-107.94"/>
</g>
<!-- pick0 GreenBox -->
<g id="node22" class="node">
<title>pick0 GreenBox</title>
<ellipse fill="lightgray" stroke="black" cx="621.42" cy="-90" rx="52.58" ry="18"/>
<text text-anchor="middle" x="621.42" y="-87.8" font-family="Times,serif" font-size="9.00">pick0 GreenBox</text>
</g>
<!-- Sequence &#160;&#160;&#160;&#45;&gt;pick0 GreenBox -->
<g id="edge21" class="edge">
<title>Sequence &#160;&#160;&#160;&#45;&gt;pick0 GreenBox</title>
<path fill="none" stroke="black" d="M617.66,-143.7C618.21,-135.98 618.87,-126.71 619.48,-118.11"/>
<polygon fill="black" stroke="black" points="622.98,-118.33 620.2,-108.1 616,-117.83 622.98,-118.33"/>
</g>
<!-- gripper_state open  -->
<g id="node20" class="node">
<title>gripper_state open </title>
<ellipse fill="lightgray" stroke="black" cx="476.42" cy="-18" rx="60.09" ry="18"/>
<text text-anchor="middle" x="476.42" y="-15.8" font-family="Times,serif" font-size="9.00">gripper_state open</text>
</g>
<!-- Fallback &#160;&#160;&#160;&#160;&#45;&gt;gripper_state open  -->
<g id="edge19" class="edge">
<title>Fallback &#160;&#160;&#160;&#160;&#45;&gt;gripper_state open </title>
<path fill="none" stroke="black" d="M505.78,-71.7C501.29,-63.64 495.86,-53.89 490.9,-44.98"/>
<polygon fill="black" stroke="black" points="493.87,-43.14 485.95,-36.1 487.76,-46.54 493.87,-43.14"/>
</g>
<!-- open_gripper  -->
<g id="node21" class="node">
<title>open_gripper </title>
<ellipse fill="lightgray" stroke="black" cx="600.42" cy="-18" rx="45.72" ry="18"/>
<text text-anchor="middle" x="600.42" y="-15.8" font-family="Times,serif" font-size="9.00">open_gripper</text>
</g>
<!-- Fallback &#160;&#160;&#160;&#160;&#45;&gt;open_gripper  -->
<g id="edge20" class="edge">
<title>Fallback &#160;&#160;&#160;&#160;&#45;&gt;open_gripper </title>
<path fill="none" stroke="black" d="M533.86,-73.81C545.51,-64.22 560.75,-51.67 573.7,-41"/>
<polygon fill="black" stroke="black" points="575.93,-43.7 581.42,-34.64 571.48,-38.3 575.93,-43.7"/>
</g>
<!-- object_at BlueBox [0.0, 0.0, 0.22] 0.02 GreenBox -->
<g id="node25" class="node">
<title>object_at BlueBox [0.0, 0.0, 0.22] 0.02 GreenBox</title>
<ellipse fill="lightgray" stroke="black" cx="936.42" cy="-306" rx="142.06" ry="18"/>
<text text-anchor="middle" x="936.42" y="-303.8" font-family="Times,serif" font-size="9.00">object_at BlueBox [0.0, 0.0, 0.22] 0.02 GreenBox</text>
</g>
<!-- Fallback &#160;&#160;&#160;&#160;&#160;&#45;&gt;object_at BlueBox [0.0, 0.0, 0.22] 0.02 GreenBox -->
<g id="edge24" class="edge">
<title>Fallback &#160;&#160;&#160;&#160;&#160;&#45;&gt;object_at BlueBox [0.0, 0.0, 0.22] 0.02 GreenBox</title>
<path fill="none" stroke="black" d="M936.42,-359.7C936.42,-351.98 936.42,-342.71 936.42,-334.11"/>
<polygon fill="black" stroke="black" points="939.92,-334.1 936.42,-324.1 932.92,-334.1 939.92,-334.1"/>
</g>
<!-- Sequence &#160;&#160;&#160;&#160; -->
<g id="node26" class="node">
<title>Sequence &#160;&#160;&#160;&#160;</title>
<polygon fill="orange" stroke="black" points="1158.42,-324 1096.42,-324 1096.42,-288 1158.42,-288 1158.42,-324"/>
<text text-anchor="middle" x="1127.42" y="-303.8" font-family="Times,serif" font-size="9.00">Sequence</text>
</g>
<!-- Fallback &#160;&#160;&#160;&#160;&#160;&#45;&gt;Sequence &#160;&#160;&#160;&#160; -->
<g id="edge25" class="edge">
<title>Fallback &#160;&#160;&#160;&#160;&#160;&#45;&gt;Sequence &#160;&#160;&#160;&#160;</title>
<path fill="none" stroke="black" d="M965.57,-367.39C994.22,-357.81 1039.36,-342.35 1086.59,-324.22"/>
<polygon fill="black" stroke="black" points="1087.99,-327.43 1096.06,-320.56 1085.47,-320.9 1087.99,-327.43"/>
</g>
<!-- Fallback &#160;&#160;&#160;&#160;&#160;&#160; -->
<g id="node27" class="node">
<title>Fallback &#160;&#160;&#160;&#160;&#160;&#160;</title>
<polygon fill="cyan" stroke="black" points="1119.41,-226.54 1119.41,-241.46 1098.91,-252 1069.93,-252 1049.43,-241.46 1049.43,-226.54 1069.93,-216 1098.91,-216 1119.41,-226.54"/>
<text text-anchor="middle" x="1084.42" y="-231.8" font-family="Times,serif" font-size="9.00">Fallback</text>
</g>
<!-- Sequence &#160;&#160;&#160;&#160;&#45;&gt;Fallback &#160;&#160;&#160;&#160;&#160;&#160; -->
<g id="edge26" class="edge">
<title>Sequence &#160;&#160;&#160;&#160;&#45;&gt;Fallback &#160;&#160;&#160;&#160;&#160;&#160;</title>
<path fill="none" stroke="black" d="M1116.79,-287.7C1111.79,-279.56 1105.73,-269.69 1100.21,-260.7"/>
<polygon fill="black" stroke="black" points="1103.14,-258.79 1094.93,-252.1 1097.18,-262.46 1103.14,-258.79"/>
</g>
<!-- place0 BlueBox [0.0, 0.0, 0.22] 0.02 GreenBox -->
<g id="node34" class="node">
<title>place0 BlueBox [0.0, 0.0, 0.22] 0.02 GreenBox</title>
<ellipse fill="lightgray" stroke="black" cx="1273.42" cy="-234" rx="135.85" ry="18"/>
<text text-anchor="middle" x="1273.42" y="-231.8" font-family="Times,serif" font-size="9.00">place0 BlueBox [0.0, 0.0, 0.22] 0.02 GreenBox</text>
</g>
<!-- Sequence &#160;&#160;&#160;&#160;&#45;&gt;place0 BlueBox [0.0, 0.0, 0.22] 0.02 GreenBox -->
<g id="edge33" class="edge">
<title>Sequence &#160;&#160;&#160;&#160;&#45;&gt;place0 BlueBox [0.0, 0.0, 0.22] 0.02 GreenBox</title>
<path fill="none" stroke="black" d="M1158.74,-289.98C1179.51,-280.03 1207.04,-266.82 1229.93,-255.85"/>
<polygon fill="black" stroke="black" points="1231.59,-258.94 1239.09,-251.46 1228.56,-252.63 1231.59,-258.94"/>
</g>
<!-- in_gripper BlueBox -->
<g id="node28" class="node">
<title>in_gripper BlueBox</title>
<ellipse fill="lightgray" stroke="black" cx="1028.42" cy="-162" rx="61.55" ry="18"/>
<text text-anchor="middle" x="1028.42" y="-159.8" font-family="Times,serif" font-size="9.00">in_gripper BlueBox</text>
</g>
<!-- Fallback &#160;&#160;&#160;&#160;&#160;&#160;&#45;&gt;in_gripper BlueBox -->
<g id="edge27" class="edge">
<title>Fallback &#160;&#160;&#160;&#160;&#160;&#160;&#45;&gt;in_gripper BlueBox</title>
<path fill="none" stroke="black" d="M1070.58,-215.7C1063.76,-207.18 1055.43,-196.76 1047.98,-187.45"/>
<polygon fill="black" stroke="black" points="1050.7,-185.24 1041.72,-179.62 1045.23,-189.62 1050.7,-185.24"/>
</g>
<!-- Sequence &#160;&#160;&#160;&#160;&#160; -->
<g id="node29" class="node">
<title>Sequence &#160;&#160;&#160;&#160;&#160;</title>
<polygon fill="orange" stroke="black" points="1170.42,-180 1108.42,-180 1108.42,-144 1170.42,-144 1170.42,-180"/>
<text text-anchor="middle" x="1139.42" y="-159.8" font-family="Times,serif" font-size="9.00">Sequence</text>
</g>
<!-- Fallback &#160;&#160;&#160;&#160;&#160;&#160;&#45;&gt;Sequence &#160;&#160;&#160;&#160;&#160; -->
<g id="edge28" class="edge">
<title>Fallback &#160;&#160;&#160;&#160;&#160;&#160;&#45;&gt;Sequence &#160;&#160;&#160;&#160;&#160;</title>
<path fill="none" stroke="black" d="M1098.02,-215.7C1104.54,-207.39 1112.49,-197.28 1119.67,-188.14"/>
<polygon fill="black" stroke="black" points="1122.56,-190.13 1125.98,-180.1 1117.05,-185.81 1122.56,-190.13"/>
</g>
<!-- Fallback &#160;&#160;&#160;&#160;&#160;&#160;&#160; -->
<g id="node30" class="node">
<title>Fallback &#160;&#160;&#160;&#160;&#160;&#160;&#160;</title>
<polygon fill="cyan" stroke="black" points="1123.41,-82.54 1123.41,-97.46 1102.91,-108 1073.93,-108 1053.43,-97.46 1053.43,-82.54 1073.93,-72 1102.91,-72 1123.41,-82.54"/>
<text text-anchor="middle" x="1088.42" y="-87.8" font-family="Times,serif" font-size="9.00">Fallback</text>
</g>
<!-- Sequence &#160;&#160;&#160;&#160;&#160;&#45;&gt;Fallback &#160;&#160;&#160;&#160;&#160;&#160;&#160; -->
<g id="edge29" class="edge">
<title>Sequence &#160;&#160;&#160;&#160;&#160;&#45;&gt;Fallback &#160;&#160;&#160;&#160;&#160;&#160;&#160;</title>
<path fill="none" stroke="black" d="M1126.81,-143.7C1120.82,-135.47 1113.54,-125.48 1106.94,-116.42"/>
<polygon fill="black" stroke="black" points="1109.6,-114.13 1100.88,-108.1 1103.94,-118.25 1109.6,-114.13"/>
</g>
<!-- pick0 BlueBox -->
<g id="node33" class="node">
<title>pick0 BlueBox</title>
<ellipse fill="lightgray" stroke="black" cx="1189.42" cy="-90" rx="47.84" ry="18"/>
<text text-anchor="middle" x="1189.42" y="-87.8" font-family="Times,serif" font-size="9.00">pick0 BlueBox</text>
</g>
<!-- Sequence &#160;&#160;&#160;&#160;&#160;&#45;&gt;pick0 BlueBox -->
<g id="edge32" class="edge">
<title>Sequence &#160;&#160;&#160;&#160;&#160;&#45;&gt;pick0 BlueBox</title>
<path fill="none" stroke="black" d="M1151.78,-143.7C1157.74,-135.35 1165,-125.18 1171.55,-116.02"/>
<polygon fill="black" stroke="black" points="1174.58,-117.79 1177.55,-107.62 1168.89,-113.73 1174.58,-117.79"/>
</g>
<!-- gripper_state open &#160; -->
<g id="node31" class="node">
<title>gripper_state open &#160;</title>
<ellipse fill="lightgray" stroke="black" cx="1026.42" cy="-18" rx="60.09" ry="18"/>
<text text-anchor="middle" x="1026.42" y="-15.8" font-family="Times,serif" font-size="9.00">gripper_state open</text>
</g>
<!-- Fallback &#160;&#160;&#160;&#160;&#160;&#160;&#160;&#45;&gt;gripper_state open &#160; -->
<g id="edge30" class="edge">
<title>Fallback &#160;&#160;&#160;&#160;&#160;&#160;&#160;&#45;&gt;gripper_state open &#160;</title>
<path fill="none" stroke="black" d="M1073.41,-72.05C1065.8,-63.46 1056.41,-52.86 1048.03,-43.4"/>
<polygon fill="black" stroke="black" points="1050.54,-40.95 1041.29,-35.79 1045.3,-45.6 1050.54,-40.95"/>
</g>
<!-- open_gripper &#160; -->
<g id="node32" class="node">
<title>open_gripper &#160;</title>
<ellipse fill="lightgray" stroke="black" cx="1150.42" cy="-18" rx="45.72" ry="18"/>
<text text-anchor="middle" x="1150.42" y="-15.8" font-family="Times,serif" font-size="9.00">open_gripper</text>
</g>
<!-- Fallback &#160;&#160;&#160;&#160;&#160;&#160;&#160;&#45;&gt;open_gripper &#160; -->
<g id="edge31" class="edge">
<title>Fallback &#160;&#160;&#160;&#160;&#160;&#160;&#160;&#45;&gt;open_gripper &#160;</title>
<path fill="none" stroke="black" d="M1103.43,-72.05C1111.16,-63.33 1120.71,-52.54 1129.18,-42.98"/>
<polygon fill="black" stroke="black" points="1131.97,-45.11 1135.98,-35.31 1126.73,-40.47 1131.97,-45.11"/>
</g>
</g>
</svg>
