<?xml version="1.0" encoding="UTF-8" standalone="no"?>
<!DOCTYPE svg PUBLIC "-//W3C//DTD SVG 1.1//EN"
 "http://www.w3.org/Graphics/SVG/1.1/DTD/svg11.dtd">
<!-- Generated by graphviz version 2.43.0 (0)
 -->
<!-- Title: pastafarianism Pages: 1 -->
<svg width="605pt" height="476pt"
 viewBox="0.00 0.00 604.81 476.00" xmlns="http://www.w3.org/2000/svg" xmlns:xlink="http://www.w3.org/1999/xlink">
<g id="graph0" class="graph" transform="scale(1 1) rotate(0) translate(4 472)">
<title>pastafarianism</title>
<polygon fill="white" stroke="transparent" points="-4,4 -4,-472 600.81,-472 600.81,4 -4,4"/>
<!-- Sequence -->
<g id="node1" class="node">
<title>Sequence</title>
<polygon fill="orange" stroke="black" points="373.96,-468 311.96,-468 311.96,-432 373.96,-432 373.96,-468"/>
<text text-anchor="middle" x="342.96" y="-447.8" font-family="Times,serif" font-size="9.00">Sequence</text>
</g>
<!-- Fallback -->
<g id="node2" class="node">
<title>Fallback</title>
<polygon fill="cyan" stroke="black" points="269.96,-370.54 269.96,-385.46 249.46,-396 220.47,-396 199.97,-385.46 199.97,-370.54 220.47,-360 249.46,-360 269.96,-370.54"/>
<text text-anchor="middle" x="234.96" y="-375.8" font-family="Times,serif" font-size="9.00">Fallback</text>
</g>
<!-- Sequence&#45;&gt;Fallback -->
<g id="edge1" class="edge">
<title>Sequence&#45;&gt;Fallback</title>
<path fill="none" stroke="black" d="M316.54,-431.88C300.84,-421.7 280.89,-408.77 264.65,-398.24"/>
<polygon fill="black" stroke="black" points="266.35,-395.17 256.05,-392.67 262.54,-401.04 266.35,-395.17"/>
</g>
<!-- In gripper none? -->
<g id="node13" class="node">
<title>In gripper none?</title>
<ellipse fill="lightgray" stroke="black" cx="342.96" cy="-378" rx="54.7" ry="18"/>
<text text-anchor="middle" x="342.96" y="-375.8" font-family="Times,serif" font-size="9.00">In gripper none?</text>
</g>
<!-- Sequence&#45;&gt;In gripper none? -->
<g id="edge12" class="edge">
<title>Sequence&#45;&gt;In gripper none?</title>
<path fill="none" stroke="black" d="M342.96,-431.7C342.96,-423.98 342.96,-414.71 342.96,-406.11"/>
<polygon fill="black" stroke="black" points="346.46,-406.1 342.96,-396.1 339.46,-406.1 346.46,-406.1"/>
</g>
<!-- Fallback &#160;&#160; -->
<g id="node14" class="node">
<title>Fallback &#160;&#160;</title>
<polygon fill="cyan" stroke="black" points="485.96,-370.54 485.96,-385.46 465.46,-396 436.47,-396 415.97,-385.46 415.97,-370.54 436.47,-360 465.46,-360 485.96,-370.54"/>
<text text-anchor="middle" x="450.96" y="-375.8" font-family="Times,serif" font-size="9.00">Fallback</text>
</g>
<!-- Sequence&#45;&gt;Fallback &#160;&#160; -->
<g id="edge13" class="edge">
<title>Sequence&#45;&gt;Fallback &#160;&#160;</title>
<path fill="none" stroke="black" d="M369.38,-431.88C385.09,-421.7 405.04,-408.77 421.28,-398.24"/>
<polygon fill="black" stroke="black" points="423.39,-401.04 429.88,-392.67 419.58,-395.17 423.39,-401.04"/>
</g>
<!-- BlueBox roughly at p1 in YellowBox? -->
<g id="node3" class="node">
<title>BlueBox roughly at p1 in YellowBox?</title>
<ellipse fill="lightgray" stroke="black" cx="107.96" cy="-306" rx="107.93" ry="18"/>
<text text-anchor="middle" x="107.96" y="-303.8" font-family="Times,serif" font-size="9.00">BlueBox roughly at p1 in YellowBox?</text>
</g>
<!-- Fallback&#45;&gt;BlueBox roughly at p1 in YellowBox? -->
<g id="edge2" class="edge">
<title>Fallback&#45;&gt;BlueBox roughly at p1 in YellowBox?</title>
<path fill="none" stroke="black" d="M211.97,-364.32C193.83,-354.33 168.12,-340.16 146.81,-328.41"/>
<polygon fill="black" stroke="black" points="148.42,-325.3 137.98,-323.54 145.04,-331.43 148.42,-325.3"/>
</g>
<!-- Sequence  -->
<g id="node4" class="node">
<title>Sequence </title>
<polygon fill="orange" stroke="black" points="295.96,-324 233.96,-324 233.96,-288 295.96,-288 295.96,-324"/>
<text text-anchor="middle" x="264.96" y="-303.8" font-family="Times,serif" font-size="9.00">Sequence</text>
</g>
<!-- Fallback&#45;&gt;Sequence  -->
<g id="edge3" class="edge">
<title>Fallback&#45;&gt;Sequence </title>
<path fill="none" stroke="black" d="M242.38,-359.7C245.76,-351.81 249.83,-342.3 253.59,-333.55"/>
<polygon fill="black" stroke="black" points="256.91,-334.67 257.63,-324.1 250.48,-331.92 256.91,-334.67"/>
</g>
<!-- Fallback  -->
<g id="node5" class="node">
<title>Fallback </title>
<polygon fill="cyan" stroke="black" points="223.96,-226.54 223.96,-241.46 203.46,-252 174.47,-252 153.97,-241.46 153.97,-226.54 174.47,-216 203.46,-216 223.96,-226.54"/>
<text text-anchor="middle" x="188.96" y="-231.8" font-family="Times,serif" font-size="9.00">Fallback</text>
</g>
<!-- Sequence &#45;&gt;Fallback  -->
<g id="edge4" class="edge">
<title>Sequence &#45;&gt;Fallback </title>
<path fill="none" stroke="black" d="M246.18,-287.7C236.34,-278.64 224.18,-267.44 213.6,-257.69"/>
<polygon fill="black" stroke="black" points="215.96,-255.11 206.24,-250.91 211.22,-260.26 215.96,-255.11"/>
</g>
<!-- Place BlueBox at p1 in YellowBox -->
<g id="node12" class="node">
<title>Place BlueBox at p1 in YellowBox</title>
<ellipse fill="lightgray" stroke="black" cx="340.96" cy="-234" rx="98.95" ry="18"/>
<text text-anchor="middle" x="340.96" y="-231.8" font-family="Times,serif" font-size="9.00">Place BlueBox at p1 in YellowBox</text>
</g>
<!-- Sequence &#45;&gt;Place BlueBox at p1 in YellowBox -->
<g id="edge11" class="edge">
<title>Sequence &#45;&gt;Place BlueBox at p1 in YellowBox</title>
<path fill="none" stroke="black" d="M283.75,-287.7C293.21,-278.99 304.82,-268.29 315.11,-258.82"/>
<polygon fill="black" stroke="black" points="317.67,-261.21 322.66,-251.86 312.93,-256.06 317.67,-261.21"/>
</g>
<!-- In gripper BlueBox? -->
<g id="node6" class="node">
<title>In gripper BlueBox?</title>
<ellipse fill="lightgray" stroke="black" cx="132.96" cy="-162" rx="63.52" ry="18"/>
<text text-anchor="middle" x="132.96" y="-159.8" font-family="Times,serif" font-size="9.00">In gripper BlueBox?</text>
</g>
<!-- Fallback &#45;&gt;In gripper BlueBox? -->
<g id="edge5" class="edge">
<title>Fallback &#45;&gt;In gripper BlueBox?</title>
<path fill="none" stroke="black" d="M175.12,-215.7C168.31,-207.18 159.98,-196.76 152.52,-187.45"/>
<polygon fill="black" stroke="black" points="155.24,-185.24 146.26,-179.62 149.78,-189.62 155.24,-185.24"/>
</g>
<!-- Sequence &#160; -->
<g id="node7" class="node">
<title>Sequence &#160;</title>
<polygon fill="orange" stroke="black" points="276.96,-180 214.96,-180 214.96,-144 276.96,-144 276.96,-180"/>
<text text-anchor="middle" x="245.96" y="-159.8" font-family="Times,serif" font-size="9.00">Sequence</text>
</g>
<!-- Fallback &#45;&gt;Sequence &#160; -->
<g id="edge6" class="edge">
<title>Fallback &#45;&gt;Sequence &#160;</title>
<path fill="none" stroke="black" d="M203.05,-215.7C209.89,-207.3 218.22,-197.07 225.72,-187.86"/>
<polygon fill="black" stroke="black" points="228.44,-190.07 232.04,-180.1 223.01,-185.65 228.44,-190.07"/>
</g>
<!-- Fallback &#160; -->
<g id="node8" class="node">
<title>Fallback &#160;</title>
<polygon fill="cyan" stroke="black" points="231.96,-82.54 231.96,-97.46 211.46,-108 182.47,-108 161.97,-97.46 161.97,-82.54 182.47,-72 211.46,-72 231.96,-82.54"/>
<text text-anchor="middle" x="196.96" y="-87.8" font-family="Times,serif" font-size="9.00">Fallback</text>
</g>
<!-- Sequence &#160;&#45;&gt;Fallback &#160; -->
<g id="edge7" class="edge">
<title>Sequence &#160;&#45;&gt;Fallback &#160;</title>
<path fill="none" stroke="black" d="M233.85,-143.7C228.1,-135.47 221.1,-125.48 214.76,-116.42"/>
<polygon fill="black" stroke="black" points="217.54,-114.29 208.94,-108.1 211.8,-118.3 217.54,-114.29"/>
</g>
<!-- Pick BlueBox -->
<g id="node11" class="node">
<title>Pick BlueBox</title>
<ellipse fill="lightgray" stroke="black" cx="293.96" cy="-90" rx="44.41" ry="18"/>
<text text-anchor="middle" x="293.96" y="-87.8" font-family="Times,serif" font-size="9.00">Pick BlueBox</text>
</g>
<!-- Sequence &#160;&#45;&gt;Pick BlueBox -->
<g id="edge10" class="edge">
<title>Sequence &#160;&#45;&gt;Pick BlueBox</title>
<path fill="none" stroke="black" d="M257.83,-143.7C263.55,-135.35 270.52,-125.18 276.81,-116.02"/>
<polygon fill="black" stroke="black" points="279.8,-117.85 282.57,-107.62 274.02,-113.89 279.8,-117.85"/>
</g>
<!-- Gripper open? -->
<g id="node9" class="node">
<title>Gripper open?</title>
<ellipse fill="lightgray" stroke="black" cx="136.96" cy="-18" rx="47.84" ry="18"/>
<text text-anchor="middle" x="136.96" y="-15.8" font-family="Times,serif" font-size="9.00">Gripper open?</text>
</g>
<!-- Fallback &#160;&#45;&gt;Gripper open? -->
<g id="edge8" class="edge">
<title>Fallback &#160;&#45;&gt;Gripper open?</title>
<path fill="none" stroke="black" d="M182.13,-71.7C174.83,-63.18 165.91,-52.76 157.92,-43.45"/>
<polygon fill="black" stroke="black" points="160.38,-40.94 151.21,-35.62 155.06,-45.49 160.38,-40.94"/>
</g>
<!-- Set gripper open -->
<g id="node10" class="node">
<title>Set gripper open</title>
<ellipse fill="lightgray" stroke="black" cx="257.96" cy="-18" rx="54.7" ry="18"/>
<text text-anchor="middle" x="257.96" y="-15.8" font-family="Times,serif" font-size="9.00">Set gripper open</text>
</g>
<!-- Fallback &#160;&#45;&gt;Set gripper open -->
<g id="edge9" class="edge">
<title>Fallback &#160;&#45;&gt;Set gripper open</title>
<path fill="none" stroke="black" d="M211.73,-72.05C219.22,-63.46 228.46,-52.86 236.7,-43.4"/>
<polygon fill="black" stroke="black" points="239.4,-45.63 243.33,-35.79 234.13,-41.03 239.4,-45.63"/>
</g>
<!-- Gripper open?  -->
<g id="node15" class="node">
<title>Gripper open? </title>
<ellipse fill="lightgray" stroke="black" cx="420.96" cy="-306" rx="47.84" ry="18"/>
<text text-anchor="middle" x="420.96" y="-303.8" font-family="Times,serif" font-size="9.00">Gripper open?</text>
</g>
<!-- Fallback &#160;&#160;&#45;&gt;Gripper open?  -->
<g id="edge14" class="edge">
<title>Fallback &#160;&#160;&#45;&gt;Gripper open? </title>
<path fill="none" stroke="black" d="M443.55,-359.7C440.17,-351.81 436.09,-342.3 432.34,-333.55"/>
<polygon fill="black" stroke="black" points="435.45,-331.92 428.29,-324.1 429.02,-334.67 435.45,-331.92"/>
</g>
<!-- Set gripper open  -->
<g id="node16" class="node">
<title>Set gripper open </title>
<ellipse fill="lightgray" stroke="black" cx="541.96" cy="-306" rx="54.7" ry="18"/>
<text text-anchor="middle" x="541.96" y="-303.8" font-family="Times,serif" font-size="9.00">Set gripper open</text>
</g>
<!-- Fallback &#160;&#160;&#45;&gt;Set gripper open  -->
<g id="edge15" class="edge">
<title>Fallback &#160;&#160;&#45;&gt;Set gripper open </title>
<path fill="none" stroke="black" d="M470.26,-362.15C482.82,-352.49 499.43,-339.72 513.49,-328.9"/>
<polygon fill="black" stroke="black" points="515.64,-331.67 521.43,-322.8 511.37,-326.12 515.64,-331.67"/>
</g>
</g>
</svg>
