<?xml version="1.0" encoding="UTF-8" standalone="no"?>
<!DOCTYPE svg PUBLIC "-//W3C//DTD SVG 1.1//EN"
 "http://www.w3.org/Graphics/SVG/1.1/DTD/svg11.dtd">
<!-- Generated by graphviz version 2.43.0 (0)
 -->
<!-- Title: pastafarianism Pages: 1 -->
<svg width="3109pt" height="503pt"
 viewBox="0.00 0.00 3108.70 502.60" xmlns="http://www.w3.org/2000/svg" xmlns:xlink="http://www.w3.org/1999/xlink">
<g id="graph0" class="graph" transform="scale(1 1) rotate(0) translate(4 498.6)">
<title>pastafarianism</title>
<polygon fill="white" stroke="transparent" points="-4,4 -4,-498.6 3104.7,-498.6 3104.7,4 -4,4"/>
<!-- selector:
 insert(gear2, shaft2, outwardgripper, left_hand) -->
<g id="node1" class="node">
<title>selector:
 insert(gear2, shaft2, outwardgripper, left_hand)</title>
<polygon fill="#8deeee" stroke="black" points="1571.34,-442.54 1571.34,-473.18 1366.89,-494.84 1077.76,-494.84 873.31,-473.18 873.31,-442.54 1077.76,-420.88 1366.89,-420.88 1571.34,-442.54"/>
<text text-anchor="middle" x="1222.32" y="-463.46" font-family="Times,serif" font-size="18.00">selector:</text>
<text text-anchor="middle" x="1222.32" y="-443.46" font-family="Times,serif" font-size="18.00"> insert(gear2, shaft2, outwardgripper, left_hand)</text>
</g>
<!-- target:
 is_inserted_to(gear2, shaft2) -->
<g id="node2" class="node">
<title>target:
 is_inserted_to(gear2, shaft2)</title>
<ellipse fill="#ffec8b" stroke="black" cx="1000.32" cy="-351.18" rx="198.89" ry="33.88"/>
<text text-anchor="middle" x="1000.32" y="-356.78" font-family="Times,serif" font-size="18.00">target:</text>
<text text-anchor="middle" x="1000.32" y="-336.78" font-family="Times,serif" font-size="18.00"> is_inserted_to(gear2, shaft2)</text>
</g>
<!-- selector:
 insert(gear2, shaft2, outwardgripper, left_hand)&#45;&gt;target:
 is_inserted_to(gear2, shaft2) -->
<g id="edge1" class="edge">
<title>selector:
 insert(gear2, shaft2, outwardgripper, left_hand)&#45;&gt;target:
 is_inserted_to(gear2, shaft2)</title>
<path fill="none" stroke="black" d="M1146.24,-420.98C1123.4,-410.21 1098.37,-398.41 1075.59,-387.67"/>
<polygon fill="black" stroke="black" points="1076.85,-384.39 1066.31,-383.29 1073.86,-390.73 1076.85,-384.39"/>
</g>
<!-- sequence:
 insert(gear2, shaft2, outwardgripper, left_hand) -->
<g id="node3" class="node">
<title>sequence:
 insert(gear2, shaft2, outwardgripper, left_hand)</title>
<polygon fill="#ff7f24" stroke="black" points="1673.32,-375.18 1217.32,-375.18 1217.32,-327.18 1673.32,-327.18 1673.32,-375.18"/>
<text text-anchor="middle" x="1445.32" y="-356.78" font-family="Times,serif" font-size="18.00">sequence:</text>
<text text-anchor="middle" x="1445.32" y="-336.78" font-family="Times,serif" font-size="18.00"> insert(gear2, shaft2, outwardgripper, left_hand)</text>
</g>
<!-- selector:
 insert(gear2, shaft2, outwardgripper, left_hand)&#45;&gt;sequence:
 insert(gear2, shaft2, outwardgripper, left_hand) -->
<g id="edge2" class="edge">
<title>selector:
 insert(gear2, shaft2, outwardgripper, left_hand)&#45;&gt;sequence:
 insert(gear2, shaft2, outwardgripper, left_hand)</title>
<path fill="none" stroke="black" d="M1298.76,-420.98C1327.63,-407.43 1359.99,-392.24 1386.95,-379.58"/>
<polygon fill="black" stroke="black" points="1388.68,-382.64 1396.25,-375.22 1385.71,-376.3 1388.68,-382.64"/>
</g>
<!-- selector:
 change_tool(left_hand, clampgripper, outwardgripper) -->
<g id="node4" class="node">
<title>selector:
 change_tool(left_hand, clampgripper, outwardgripper)</title>
<polygon fill="#8deeee" stroke="black" points="1110.09,-229.19 1110.09,-259.82 880.01,-281.48 554.64,-281.48 324.56,-259.82 324.56,-229.19 554.64,-207.53 880.01,-207.53 1110.09,-229.19"/>
<text text-anchor="middle" x="717.32" y="-250.1" font-family="Times,serif" font-size="18.00">selector:</text>
<text text-anchor="middle" x="717.32" y="-230.1" font-family="Times,serif" font-size="18.00"> change_tool(left_hand, clampgripper, outwardgripper)</text>
</g>
<!-- sequence:
 insert(gear2, shaft2, outwardgripper, left_hand)&#45;&gt;selector:
 change_tool(left_hand, clampgripper, outwardgripper) -->
<g id="edge3" class="edge">
<title>sequence:
 insert(gear2, shaft2, outwardgripper, left_hand)&#45;&gt;selector:
 change_tool(left_hand, clampgripper, outwardgripper)</title>
<path fill="none" stroke="black" d="M1285.11,-327.14C1184.74,-312.71 1053.86,-293.89 943.06,-277.96"/>
<polygon fill="black" stroke="black" points="943.48,-274.48 933.08,-276.53 942.48,-281.41 943.48,-274.48"/>
</g>
<!-- selector:
 pick_up(left_hand, outwardgripper, gear2) -->
<g id="node10" class="node">
<title>selector:
 pick_up(left_hand, outwardgripper, gear2)</title>
<polygon fill="#8deeee" stroke="black" points="1755.27,-229.19 1755.27,-259.82 1573.71,-281.48 1316.94,-281.48 1135.38,-259.82 1135.38,-229.19 1316.94,-207.53 1573.71,-207.53 1755.27,-229.19"/>
<text text-anchor="middle" x="1445.32" y="-250.1" font-family="Times,serif" font-size="18.00">selector:</text>
<text text-anchor="middle" x="1445.32" y="-230.1" font-family="Times,serif" font-size="18.00"> pick_up(left_hand, outwardgripper, gear2)</text>
</g>
<!-- sequence:
 insert(gear2, shaft2, outwardgripper, left_hand)&#45;&gt;selector:
 pick_up(left_hand, outwardgripper, gear2) -->
<g id="edge9" class="edge">
<title>sequence:
 insert(gear2, shaft2, outwardgripper, left_hand)&#45;&gt;selector:
 pick_up(left_hand, outwardgripper, gear2)</title>
<path fill="none" stroke="black" d="M1445.32,-326.95C1445.32,-316.5 1445.32,-303.79 1445.32,-291.54"/>
<polygon fill="black" stroke="black" points="1448.82,-291.42 1445.32,-281.42 1441.82,-291.42 1448.82,-291.42"/>
</g>
<!-- action:
 insert(left_hand, outwardgripper, gear2, shaft2) -->
<g id="node16" class="node">
<title>action:
 insert(left_hand, outwardgripper, gear2, shaft2)</title>
<ellipse fill="lightgreen" stroke="black" cx="2095.32" cy="-244.5" rx="322.38" ry="33.88"/>
<text text-anchor="middle" x="2095.32" y="-250.1" font-family="Times,serif" font-size="18.00">action:</text>
<text text-anchor="middle" x="2095.32" y="-230.1" font-family="Times,serif" font-size="18.00"> insert(left_hand, outwardgripper, gear2, shaft2)</text>
</g>
<!-- sequence:
 insert(gear2, shaft2, outwardgripper, left_hand)&#45;&gt;action:
 insert(left_hand, outwardgripper, gear2, shaft2) -->
<g id="edge15" class="edge">
<title>sequence:
 insert(gear2, shaft2, outwardgripper, left_hand)&#45;&gt;action:
 insert(left_hand, outwardgripper, gear2, shaft2)</title>
<path fill="none" stroke="black" d="M1588.37,-327.14C1683.87,-311.76 1810.3,-291.4 1913,-274.86"/>
<polygon fill="black" stroke="black" points="1913.87,-278.27 1923.18,-273.22 1912.75,-271.36 1913.87,-278.27"/>
</g>
<!-- target:
 hold(left_hand, outwardgripper) -->
<g id="node5" class="node">
<title>target:
 hold(left_hand, outwardgripper)</title>
<ellipse fill="#ffec8b" stroke="black" cx="221.32" cy="-137.82" rx="221.15" ry="33.88"/>
<text text-anchor="middle" x="221.32" y="-143.42" font-family="Times,serif" font-size="18.00">target:</text>
<text text-anchor="middle" x="221.32" y="-123.42" font-family="Times,serif" font-size="18.00"> hold(left_hand, outwardgripper)</text>
</g>
<!-- selector:
 change_tool(left_hand, clampgripper, outwardgripper)&#45;&gt;target:
 hold(left_hand, outwardgripper) -->
<g id="edge4" class="edge">
<title>selector:
 change_tool(left_hand, clampgripper, outwardgripper)&#45;&gt;target:
 hold(left_hand, outwardgripper)</title>
<path fill="none" stroke="black" d="M549.06,-207.99C487.04,-194.9 417.59,-180.24 358.63,-167.8"/>
<polygon fill="black" stroke="black" points="359.02,-164.31 348.51,-165.67 357.57,-171.15 359.02,-164.31"/>
</g>
<!-- sequence:
 change_tool(left_hand, clampgripper, outwardgripper) -->
<g id="node6" class="node">
<title>sequence:
 change_tool(left_hand, clampgripper, outwardgripper)</title>
<polygon fill="#ff7f24" stroke="black" points="973.82,-161.82 460.82,-161.82 460.82,-113.82 973.82,-113.82 973.82,-161.82"/>
<text text-anchor="middle" x="717.32" y="-143.42" font-family="Times,serif" font-size="18.00">sequence:</text>
<text text-anchor="middle" x="717.32" y="-123.42" font-family="Times,serif" font-size="18.00"> change_tool(left_hand, clampgripper, outwardgripper)</text>
</g>
<!-- selector:
 change_tool(left_hand, clampgripper, outwardgripper)&#45;&gt;sequence:
 change_tool(left_hand, clampgripper, outwardgripper) -->
<g id="edge5" class="edge">
<title>selector:
 change_tool(left_hand, clampgripper, outwardgripper)&#45;&gt;sequence:
 change_tool(left_hand, clampgripper, outwardgripper)</title>
<path fill="none" stroke="black" d="M717.32,-207.48C717.32,-196.09 717.32,-183.57 717.32,-172.36"/>
<polygon fill="black" stroke="black" points="720.82,-172.11 717.32,-162.11 713.82,-172.11 720.82,-172.11"/>
</g>
<!-- precondition:
 is_empty(clampgripper) -->
<g id="node7" class="node">
<title>precondition:
 is_empty(clampgripper)</title>
<ellipse fill="#ffec8b" stroke="black" cx="320.32" cy="-33.94" rx="169" ry="33.88"/>
<text text-anchor="middle" x="320.32" y="-39.54" font-family="Times,serif" font-size="18.00">precondition:</text>
<text text-anchor="middle" x="320.32" y="-19.54" font-family="Times,serif" font-size="18.00"> is_empty(clampgripper)</text>
</g>
<!-- sequence:
 change_tool(left_hand, clampgripper, outwardgripper)&#45;&gt;precondition:
 is_empty(clampgripper) -->
<g id="edge6" class="edge">
<title>sequence:
 change_tool(left_hand, clampgripper, outwardgripper)&#45;&gt;precondition:
 is_empty(clampgripper)</title>
<path fill="none" stroke="black" d="M627.24,-113.7C569.37,-98.85 493.76,-79.45 432.07,-63.62"/>
<polygon fill="black" stroke="black" points="432.85,-60.21 422.29,-61.11 431.11,-66.99 432.85,-60.21"/>
</g>
<!-- precondition:
 hold(left_hand, clampgripper) -->
<g id="node8" class="node">
<title>precondition:
 hold(left_hand, clampgripper)</title>
<ellipse fill="#ffec8b" stroke="black" cx="714.32" cy="-33.94" rx="207.36" ry="33.88"/>
<text text-anchor="middle" x="714.32" y="-39.54" font-family="Times,serif" font-size="18.00">precondition:</text>
<text text-anchor="middle" x="714.32" y="-19.54" font-family="Times,serif" font-size="18.00"> hold(left_hand, clampgripper)</text>
</g>
<!-- sequence:
 change_tool(left_hand, clampgripper, outwardgripper)&#45;&gt;precondition:
 hold(left_hand, clampgripper) -->
<g id="edge7" class="edge">
<title>sequence:
 change_tool(left_hand, clampgripper, outwardgripper)&#45;&gt;precondition:
 hold(left_hand, clampgripper)</title>
<path fill="none" stroke="black" d="M716.64,-113.7C716.33,-103.16 715.95,-90.31 715.59,-78.08"/>
<polygon fill="black" stroke="black" points="719.09,-77.91 715.3,-68.01 712.09,-78.11 719.09,-77.91"/>
</g>
<!-- action:
 change_tool(left_hand, clampgripper, outwardgripper) -->
<g id="node9" class="node">
<title>action:
 change_tool(left_hand, clampgripper, outwardgripper)</title>
<ellipse fill="lightgreen" stroke="black" cx="1302.32" cy="-33.94" rx="362.99" ry="33.88"/>
<text text-anchor="middle" x="1302.32" y="-39.54" font-family="Times,serif" font-size="18.00">action:</text>
<text text-anchor="middle" x="1302.32" y="-19.54" font-family="Times,serif" font-size="18.00"> change_tool(left_hand, clampgripper, outwardgripper)</text>
</g>
<!-- sequence:
 change_tool(left_hand, clampgripper, outwardgripper)&#45;&gt;action:
 change_tool(left_hand, clampgripper, outwardgripper) -->
<g id="edge8" class="edge">
<title>sequence:
 change_tool(left_hand, clampgripper, outwardgripper)&#45;&gt;action:
 change_tool(left_hand, clampgripper, outwardgripper)</title>
<path fill="none" stroke="black" d="M849.7,-113.77C931.17,-99.58 1036.58,-81.22 1125.18,-65.79"/>
<polygon fill="black" stroke="black" points="1125.82,-69.23 1135.07,-64.07 1124.61,-62.34 1125.82,-69.23"/>
</g>
<!-- target:
 hold(outwardgripper, gear2) -->
<g id="node11" class="node">
<title>target:
 hold(outwardgripper, gear2)</title>
<ellipse fill="#ffec8b" stroke="black" cx="1445.32" cy="-137.82" rx="196.65" ry="33.88"/>
<text text-anchor="middle" x="1445.32" y="-143.42" font-family="Times,serif" font-size="18.00">target:</text>
<text text-anchor="middle" x="1445.32" y="-123.42" font-family="Times,serif" font-size="18.00"> hold(outwardgripper, gear2)</text>
</g>
<!-- selector:
 pick_up(left_hand, outwardgripper, gear2)&#45;&gt;target:
 hold(outwardgripper, gear2) -->
<g id="edge10" class="edge">
<title>selector:
 pick_up(left_hand, outwardgripper, gear2)&#45;&gt;target:
 hold(outwardgripper, gear2)</title>
<path fill="none" stroke="black" d="M1445.32,-207.48C1445.32,-199.32 1445.32,-190.58 1445.32,-182.15"/>
<polygon fill="black" stroke="black" points="1448.82,-182.1 1445.32,-172.1 1441.82,-182.1 1448.82,-182.1"/>
</g>
<!-- sequence:
 pick_up(left_hand, outwardgripper, gear2) -->
<g id="node12" class="node">
<title>sequence:
 pick_up(left_hand, outwardgripper, gear2)</title>
<polygon fill="#ff7f24" stroke="black" points="2279.82,-161.82 1874.82,-161.82 1874.82,-113.82 2279.82,-113.82 2279.82,-161.82"/>
<text text-anchor="middle" x="2077.32" y="-143.42" font-family="Times,serif" font-size="18.00">sequence:</text>
<text text-anchor="middle" x="2077.32" y="-123.42" font-family="Times,serif" font-size="18.00"> pick_up(left_hand, outwardgripper, gear2)</text>
</g>
<!-- selector:
 pick_up(left_hand, outwardgripper, gear2)&#45;&gt;sequence:
 pick_up(left_hand, outwardgripper, gear2) -->
<g id="edge11" class="edge">
<title>selector:
 pick_up(left_hand, outwardgripper, gear2)&#45;&gt;sequence:
 pick_up(left_hand, outwardgripper, gear2)</title>
<path fill="none" stroke="black" d="M1625.58,-213.65C1721.33,-197.79 1837.59,-178.53 1928.19,-163.52"/>
<polygon fill="black" stroke="black" points="1928.98,-166.94 1938.27,-161.85 1927.83,-160.04 1928.98,-166.94"/>
</g>
<!-- precondition:
 is_empty(outwardgripper) -->
<g id="node13" class="node">
<title>precondition:
 is_empty(outwardgripper)</title>
<ellipse fill="#ffec8b" stroke="black" cx="1866.32" cy="-33.94" rx="183.28" ry="33.88"/>
<text text-anchor="middle" x="1866.32" y="-39.54" font-family="Times,serif" font-size="18.00">precondition:</text>
<text text-anchor="middle" x="1866.32" y="-19.54" font-family="Times,serif" font-size="18.00"> is_empty(outwardgripper)</text>
</g>
<!-- sequence:
 pick_up(left_hand, outwardgripper, gear2)&#45;&gt;precondition:
 is_empty(outwardgripper) -->
<g id="edge12" class="edge">
<title>sequence:
 pick_up(left_hand, outwardgripper, gear2)&#45;&gt;precondition:
 is_empty(outwardgripper)</title>
<path fill="none" stroke="black" d="M2029.45,-113.7C2002.89,-100.88 1969.31,-84.67 1939.53,-70.29"/>
<polygon fill="black" stroke="black" points="1940.94,-67.08 1930.42,-65.89 1937.9,-73.39 1940.94,-67.08"/>
</g>
<!-- precondition:
 hold(left_hand, outwardgripper) -->
<g id="node14" class="node">
<title>precondition:
 hold(left_hand, outwardgripper)</title>
<ellipse fill="#ffec8b" stroke="black" cx="2288.32" cy="-33.94" rx="221.15" ry="33.88"/>
<text text-anchor="middle" x="2288.32" y="-39.54" font-family="Times,serif" font-size="18.00">precondition:</text>
<text text-anchor="middle" x="2288.32" y="-19.54" font-family="Times,serif" font-size="18.00"> hold(left_hand, outwardgripper)</text>
</g>
<!-- sequence:
 pick_up(left_hand, outwardgripper, gear2)&#45;&gt;precondition:
 hold(left_hand, outwardgripper) -->
<g id="edge13" class="edge">
<title>sequence:
 pick_up(left_hand, outwardgripper, gear2)&#45;&gt;precondition:
 hold(left_hand, outwardgripper)</title>
<path fill="none" stroke="black" d="M2125.2,-113.7C2151.43,-101.04 2184.51,-85.07 2214.01,-70.82"/>
<polygon fill="black" stroke="black" points="2215.56,-73.96 2223.04,-66.46 2212.51,-67.66 2215.56,-73.96"/>
</g>
<!-- action:
 pick_up(left_hand, outwardgripper, gear2) -->
<g id="node15" class="node">
<title>action:
 pick_up(left_hand, outwardgripper, gear2)</title>
<ellipse fill="lightgreen" stroke="black" cx="2814.32" cy="-33.94" rx="286.26" ry="33.88"/>
<text text-anchor="middle" x="2814.32" y="-39.54" font-family="Times,serif" font-size="18.00">action:</text>
<text text-anchor="middle" x="2814.32" y="-19.54" font-family="Times,serif" font-size="18.00"> pick_up(left_hand, outwardgripper, gear2)</text>
</g>
<!-- sequence:
 pick_up(left_hand, outwardgripper, gear2)&#45;&gt;action:
 pick_up(left_hand, outwardgripper, gear2) -->
<g id="edge14" class="edge">
<title>sequence:
 pick_up(left_hand, outwardgripper, gear2)&#45;&gt;action:
 pick_up(left_hand, outwardgripper, gear2)</title>
<path fill="none" stroke="black" d="M2244.1,-113.77C2356.33,-98.25 2504.64,-77.75 2621.87,-61.55"/>
<polygon fill="black" stroke="black" points="2622.61,-64.98 2632.04,-60.14 2621.66,-58.04 2622.61,-64.98"/>
</g>
</g>
</svg>
