<?xml version="1.0" encoding="UTF-8" standalone="no"?>
<!DOCTYPE svg PUBLIC "-//W3C//DTD SVG 1.1//EN"
 "http://www.w3.org/Graphics/SVG/1.1/DTD/svg11.dtd">
<!-- Generated by graphviz version 2.43.0 (0)
 -->
<!-- Title: pastafarianism Pages: 1 -->
<svg width="2936pt" height="513pt"
 viewBox="0.00 0.00 2936.03 513.48" xmlns="http://www.w3.org/2000/svg" xmlns:xlink="http://www.w3.org/1999/xlink">
<g id="graph0" class="graph" transform="scale(1 1) rotate(0) translate(4 509.48)">
<title>pastafarianism</title>
<polygon fill="white" stroke="transparent" points="-4,4 -4,-509.48 2932.03,-509.48 2932.03,4 -4,4"/>
<!-- selector:
 screw(left_hand, inwardgripper, chairnut2, chairseatbolt2) -->
<g id="node1" class="node">
<title>selector:
 screw(left_hand, inwardgripper, chairnut2, chairseatbolt2)</title>
<polygon fill="#8deeee" stroke="black" points="1621.94,-453.42 1621.94,-484.05 1373.55,-505.71 1022.28,-505.71 773.89,-484.05 773.89,-453.42 1022.28,-431.76 1373.55,-431.76 1621.94,-453.42"/>
<text text-anchor="middle" x="1197.92" y="-474.34" font-family="Times,serif" font-size="18.00">selector:</text>
<text text-anchor="middle" x="1197.92" y="-454.34" font-family="Times,serif" font-size="18.00"> screw(left_hand, inwardgripper, chairnut2, chairseatbolt2)</text>
</g>
<!-- target:
 is_screwed_to(chairnut2, chairseatbolt2) -->
<g id="node2" class="node">
<title>target:
 is_screwed_to(chairnut2, chairseatbolt2)</title>
<ellipse fill="#ffec8b" stroke="black" cx="919.92" cy="-360" rx="262.08" ry="36"/>
<text text-anchor="middle" x="919.92" y="-365.6" font-family="Times,serif" font-size="18.00">target:</text>
<text text-anchor="middle" x="919.92" y="-345.6" font-family="Times,serif" font-size="18.00"> is_screwed_to(chairnut2, chairseatbolt2)</text>
</g>
<!-- selector:
 screw(left_hand, inwardgripper, chairnut2, chairseatbolt2)&#45;&gt;target:
 is_screwed_to(chairnut2, chairseatbolt2) -->
<g id="edge1" class="edge">
<title>selector:
 screw(left_hand, inwardgripper, chairnut2, chairseatbolt2)&#45;&gt;target:
 is_screwed_to(chairnut2, chairseatbolt2)</title>
<path fill="none" stroke="black" d="M1104.57,-431.9C1075.95,-420.91 1044.41,-408.8 1015.63,-397.75"/>
<polygon fill="black" stroke="black" points="1016.57,-394.36 1005.98,-394.04 1014.06,-400.9 1016.57,-394.36"/>
</g>
<!-- sequence:
 screw(left_hand, inwardgripper, chairnut2, chairseatbolt2) -->
<g id="node3" class="node">
<title>sequence:
 screw(left_hand, inwardgripper, chairnut2, chairseatbolt2)</title>
<polygon fill="#ff7f24" stroke="black" points="1753.92,-396 1199.92,-396 1199.92,-324 1753.92,-324 1753.92,-396"/>
<text text-anchor="middle" x="1476.92" y="-365.6" font-family="Times,serif" font-size="18.00">sequence:</text>
<text text-anchor="middle" x="1476.92" y="-345.6" font-family="Times,serif" font-size="18.00"> screw(left_hand, inwardgripper, chairnut2, chairseatbolt2)</text>
</g>
<!-- selector:
 screw(left_hand, inwardgripper, chairnut2, chairseatbolt2)&#45;&gt;sequence:
 screw(left_hand, inwardgripper, chairnut2, chairseatbolt2) -->
<g id="edge2" class="edge">
<title>selector:
 screw(left_hand, inwardgripper, chairnut2, chairseatbolt2)&#45;&gt;sequence:
 screw(left_hand, inwardgripper, chairnut2, chairseatbolt2)</title>
<path fill="none" stroke="black" d="M1291.6,-431.9C1318.64,-421.55 1348.28,-410.21 1375.76,-399.7"/>
<polygon fill="black" stroke="black" points="1377.29,-402.86 1385.38,-396.02 1374.79,-396.32 1377.29,-402.86"/>
</g>
<!-- selector:
 change_tool(left_hand, outwardgripper, inwardgripper) -->
<g id="node4" class="node">
<title>selector:
 change_tool(left_hand, outwardgripper, inwardgripper)</title>
<polygon fill="#8deeee" stroke="black" points="1060,-237.09 1060,-266.91 838.53,-288 525.31,-288 303.83,-266.91 303.83,-237.09 525.31,-216 838.53,-216 1060,-237.09"/>
<text text-anchor="middle" x="681.92" y="-257.6" font-family="Times,serif" font-size="18.00">selector:</text>
<text text-anchor="middle" x="681.92" y="-237.6" font-family="Times,serif" font-size="18.00"> change_tool(left_hand, outwardgripper, inwardgripper)</text>
</g>
<!-- sequence:
 screw(left_hand, inwardgripper, chairnut2, chairseatbolt2)&#45;&gt;selector:
 change_tool(left_hand, outwardgripper, inwardgripper) -->
<g id="edge3" class="edge">
<title>sequence:
 screw(left_hand, inwardgripper, chairnut2, chairseatbolt2)&#45;&gt;selector:
 change_tool(left_hand, outwardgripper, inwardgripper)</title>
<path fill="none" stroke="black" d="M1214.4,-324C1116.12,-310.89 1005.34,-296.12 910.38,-283.46"/>
<polygon fill="black" stroke="black" points="910.73,-279.98 900.36,-282.13 909.81,-286.92 910.73,-279.98"/>
</g>
<!-- selector:
 pick_up(left_hand, inwardgripper, chairnut2) -->
<g id="node10" class="node">
<title>selector:
 pick_up(left_hand, inwardgripper, chairnut2)</title>
<polygon fill="#8deeee" stroke="black" points="1787.45,-237.09 1787.45,-266.91 1605.54,-288 1348.29,-288 1166.38,-266.91 1166.38,-237.09 1348.29,-216 1605.54,-216 1787.45,-237.09"/>
<text text-anchor="middle" x="1476.92" y="-257.6" font-family="Times,serif" font-size="18.00">selector:</text>
<text text-anchor="middle" x="1476.92" y="-237.6" font-family="Times,serif" font-size="18.00"> pick_up(left_hand, inwardgripper, chairnut2)</text>
</g>
<!-- sequence:
 screw(left_hand, inwardgripper, chairnut2, chairseatbolt2)&#45;&gt;selector:
 pick_up(left_hand, inwardgripper, chairnut2) -->
<g id="edge9" class="edge">
<title>sequence:
 screw(left_hand, inwardgripper, chairnut2, chairseatbolt2)&#45;&gt;selector:
 pick_up(left_hand, inwardgripper, chairnut2)</title>
<path fill="none" stroke="black" d="M1476.92,-324C1476.92,-315.85 1476.92,-307.06 1476.92,-298.54"/>
<polygon fill="black" stroke="black" points="1480.42,-298.33 1476.92,-288.33 1473.42,-298.33 1480.42,-298.33"/>
</g>
<!-- action:
 screw(left_hand, inwardgripper, chairnut2, chairseatbolt2) -->
<g id="node16" class="node">
<title>action:
 screw(left_hand, inwardgripper, chairnut2, chairseatbolt2)</title>
<ellipse fill="lightgreen" stroke="black" cx="2176.92" cy="-252" rx="371.77" ry="36"/>
<text text-anchor="middle" x="2176.92" y="-257.6" font-family="Times,serif" font-size="18.00">action:</text>
<text text-anchor="middle" x="2176.92" y="-237.6" font-family="Times,serif" font-size="18.00"> screw(left_hand, inwardgripper, chairnut2, chairseatbolt2)</text>
</g>
<!-- sequence:
 screw(left_hand, inwardgripper, chairnut2, chairseatbolt2)&#45;&gt;action:
 screw(left_hand, inwardgripper, chairnut2, chairseatbolt2) -->
<g id="edge15" class="edge">
<title>sequence:
 screw(left_hand, inwardgripper, chairnut2, chairseatbolt2)&#45;&gt;action:
 screw(left_hand, inwardgripper, chairnut2, chairseatbolt2)</title>
<path fill="none" stroke="black" d="M1708.06,-324C1793.02,-311.13 1888.57,-296.66 1971.15,-284.16"/>
<polygon fill="black" stroke="black" points="1971.79,-287.6 1981.15,-282.64 1970.74,-280.68 1971.79,-287.6"/>
</g>
<!-- target:
 hold(left_hand, inwardgripper) -->
<g id="node5" class="node">
<title>target:
 hold(left_hand, inwardgripper)</title>
<ellipse fill="#ffec8b" stroke="black" cx="201.92" cy="-144" rx="201.83" ry="36"/>
<text text-anchor="middle" x="201.92" y="-149.6" font-family="Times,serif" font-size="18.00">target:</text>
<text text-anchor="middle" x="201.92" y="-129.6" font-family="Times,serif" font-size="18.00"> hold(left_hand, inwardgripper)</text>
</g>
<!-- selector:
 change_tool(left_hand, outwardgripper, inwardgripper)&#45;&gt;target:
 hold(left_hand, inwardgripper) -->
<g id="edge4" class="edge">
<title>selector:
 change_tool(left_hand, outwardgripper, inwardgripper)&#45;&gt;target:
 hold(left_hand, inwardgripper)</title>
<path fill="none" stroke="black" d="M523.75,-216.07C463.07,-202.67 394.46,-187.52 336.22,-174.66"/>
<polygon fill="black" stroke="black" points="336.74,-171.19 326.22,-172.45 335.23,-178.02 336.74,-171.19"/>
</g>
<!-- sequence:
 change_tool(left_hand, outwardgripper, inwardgripper) -->
<g id="node6" class="node">
<title>sequence:
 change_tool(left_hand, outwardgripper, inwardgripper)</title>
<polygon fill="#ff7f24" stroke="black" points="942.42,-180 421.42,-180 421.42,-108 942.42,-108 942.42,-180"/>
<text text-anchor="middle" x="681.92" y="-149.6" font-family="Times,serif" font-size="18.00">sequence:</text>
<text text-anchor="middle" x="681.92" y="-129.6" font-family="Times,serif" font-size="18.00"> change_tool(left_hand, outwardgripper, inwardgripper)</text>
</g>
<!-- selector:
 change_tool(left_hand, outwardgripper, inwardgripper)&#45;&gt;sequence:
 change_tool(left_hand, outwardgripper, inwardgripper) -->
<g id="edge5" class="edge">
<title>selector:
 change_tool(left_hand, outwardgripper, inwardgripper)&#45;&gt;sequence:
 change_tool(left_hand, outwardgripper, inwardgripper)</title>
<path fill="none" stroke="black" d="M681.92,-216C681.92,-207.85 681.92,-199.06 681.92,-190.54"/>
<polygon fill="black" stroke="black" points="685.42,-190.33 681.92,-180.33 678.42,-190.33 685.42,-190.33"/>
</g>
<!-- precondition:
 is_empty(outwardgripper) -->
<g id="node7" class="node">
<title>precondition:
 is_empty(outwardgripper)</title>
<ellipse fill="#ffec8b" stroke="black" cx="235.92" cy="-36" rx="173.99" ry="36"/>
<text text-anchor="middle" x="235.92" y="-41.6" font-family="Times,serif" font-size="18.00">precondition:</text>
<text text-anchor="middle" x="235.92" y="-21.6" font-family="Times,serif" font-size="18.00"> is_empty(outwardgripper)</text>
</g>
<!-- sequence:
 change_tool(left_hand, outwardgripper, inwardgripper)&#45;&gt;precondition:
 is_empty(outwardgripper) -->
<g id="edge6" class="edge">
<title>sequence:
 change_tool(left_hand, outwardgripper, inwardgripper)&#45;&gt;precondition:
 is_empty(outwardgripper)</title>
<path fill="none" stroke="black" d="M534.64,-108C477.2,-94.34 412.14,-78.88 357.44,-65.88"/>
<polygon fill="black" stroke="black" points="358.24,-62.48 347.71,-63.57 356.63,-69.29 358.24,-62.48"/>
</g>
<!-- precondition:
 hold(left_hand, outwardgripper) -->
<g id="node8" class="node">
<title>precondition:
 hold(left_hand, outwardgripper)</title>
<ellipse fill="#ffec8b" stroke="black" cx="637.92" cy="-36" rx="209.93" ry="36"/>
<text text-anchor="middle" x="637.92" y="-41.6" font-family="Times,serif" font-size="18.00">precondition:</text>
<text text-anchor="middle" x="637.92" y="-21.6" font-family="Times,serif" font-size="18.00"> hold(left_hand, outwardgripper)</text>
</g>
<!-- sequence:
 change_tool(left_hand, outwardgripper, inwardgripper)&#45;&gt;precondition:
 hold(left_hand, outwardgripper) -->
<g id="edge7" class="edge">
<title>sequence:
 change_tool(left_hand, outwardgripper, inwardgripper)&#45;&gt;precondition:
 hold(left_hand, outwardgripper)</title>
<path fill="none" stroke="black" d="M667.39,-108C663.86,-99.5 660.04,-90.29 656.35,-81.42"/>
<polygon fill="black" stroke="black" points="659.5,-79.86 652.43,-71.97 653.03,-82.54 659.5,-79.86"/>
</g>
<!-- action:
 change_tool(left_hand, outwardgripper, inwardgripper) -->
<g id="node9" class="node">
<title>action:
 change_tool(left_hand, outwardgripper, inwardgripper)</title>
<ellipse fill="lightgreen" stroke="black" cx="1214.92" cy="-36" rx="349.49" ry="36"/>
<text text-anchor="middle" x="1214.92" y="-41.6" font-family="Times,serif" font-size="18.00">action:</text>
<text text-anchor="middle" x="1214.92" y="-21.6" font-family="Times,serif" font-size="18.00"> change_tool(left_hand, outwardgripper, inwardgripper)</text>
</g>
<!-- sequence:
 change_tool(left_hand, outwardgripper, inwardgripper)&#45;&gt;action:
 change_tool(left_hand, outwardgripper, inwardgripper) -->
<g id="edge8" class="edge">
<title>sequence:
 change_tool(left_hand, outwardgripper, inwardgripper)&#45;&gt;action:
 change_tool(left_hand, outwardgripper, inwardgripper)</title>
<path fill="none" stroke="black" d="M857.92,-108C919.1,-95.83 987.5,-82.23 1047.93,-70.21"/>
<polygon fill="black" stroke="black" points="1048.82,-73.6 1057.95,-68.22 1047.46,-66.74 1048.82,-73.6"/>
</g>
<!-- target:
 hold(inwardgripper, chairnut2) -->
<g id="node11" class="node">
<title>target:
 hold(inwardgripper, chairnut2)</title>
<ellipse fill="#ffec8b" stroke="black" cx="1476.92" cy="-144" rx="202.68" ry="36"/>
<text text-anchor="middle" x="1476.92" y="-149.6" font-family="Times,serif" font-size="18.00">target:</text>
<text text-anchor="middle" x="1476.92" y="-129.6" font-family="Times,serif" font-size="18.00"> hold(inwardgripper, chairnut2)</text>
</g>
<!-- selector:
 pick_up(left_hand, inwardgripper, chairnut2)&#45;&gt;target:
 hold(inwardgripper, chairnut2) -->
<g id="edge10" class="edge">
<title>selector:
 pick_up(left_hand, inwardgripper, chairnut2)&#45;&gt;target:
 hold(inwardgripper, chairnut2)</title>
<path fill="none" stroke="black" d="M1476.92,-216C1476.92,-207.85 1476.92,-199.06 1476.92,-190.54"/>
<polygon fill="black" stroke="black" points="1480.42,-190.33 1476.92,-180.33 1473.42,-190.33 1480.42,-190.33"/>
</g>
<!-- sequence:
 pick_up(left_hand, inwardgripper, chairnut2) -->
<g id="node12" class="node">
<title>sequence:
 pick_up(left_hand, inwardgripper, chairnut2)</title>
<polygon fill="#ff7f24" stroke="black" points="2302.92,-180 1874.92,-180 1874.92,-108 2302.92,-108 2302.92,-180"/>
<text text-anchor="middle" x="2088.92" y="-149.6" font-family="Times,serif" font-size="18.00">sequence:</text>
<text text-anchor="middle" x="2088.92" y="-129.6" font-family="Times,serif" font-size="18.00"> pick_up(left_hand, inwardgripper, chairnut2)</text>
</g>
<!-- selector:
 pick_up(left_hand, inwardgripper, chairnut2)&#45;&gt;sequence:
 pick_up(left_hand, inwardgripper, chairnut2) -->
<g id="edge11" class="edge">
<title>selector:
 pick_up(left_hand, inwardgripper, chairnut2)&#45;&gt;sequence:
 pick_up(left_hand, inwardgripper, chairnut2)</title>
<path fill="none" stroke="black" d="M1649.84,-221.05C1720.37,-208.83 1802.62,-194.59 1876.73,-181.75"/>
<polygon fill="black" stroke="black" points="1877.41,-185.19 1886.66,-180.03 1876.21,-178.29 1877.41,-185.19"/>
</g>
<!-- precondition:
 is_empty(inwardgripper) -->
<g id="node13" class="node">
<title>precondition:
 is_empty(inwardgripper)</title>
<ellipse fill="#ffec8b" stroke="black" cx="1747.92" cy="-36" rx="165.89" ry="36"/>
<text text-anchor="middle" x="1747.92" y="-41.6" font-family="Times,serif" font-size="18.00">precondition:</text>
<text text-anchor="middle" x="1747.92" y="-21.6" font-family="Times,serif" font-size="18.00"> is_empty(inwardgripper)</text>
</g>
<!-- sequence:
 pick_up(left_hand, inwardgripper, chairnut2)&#45;&gt;precondition:
 is_empty(inwardgripper) -->
<g id="edge12" class="edge">
<title>sequence:
 pick_up(left_hand, inwardgripper, chairnut2)&#45;&gt;precondition:
 is_empty(inwardgripper)</title>
<path fill="none" stroke="black" d="M1976.32,-108C1935.72,-95.38 1890.16,-81.22 1850.47,-68.88"/>
<polygon fill="black" stroke="black" points="1851.37,-65.49 1840.78,-65.87 1849.29,-72.18 1851.37,-65.49"/>
</g>
<!-- precondition:
 hold(left_hand, inwardgripper) -->
<g id="node14" class="node">
<title>precondition:
 hold(left_hand, inwardgripper)</title>
<ellipse fill="#ffec8b" stroke="black" cx="2133.92" cy="-36" rx="201.83" ry="36"/>
<text text-anchor="middle" x="2133.92" y="-41.6" font-family="Times,serif" font-size="18.00">precondition:</text>
<text text-anchor="middle" x="2133.92" y="-21.6" font-family="Times,serif" font-size="18.00"> hold(left_hand, inwardgripper)</text>
</g>
<!-- sequence:
 pick_up(left_hand, inwardgripper, chairnut2)&#45;&gt;precondition:
 hold(left_hand, inwardgripper) -->
<g id="edge13" class="edge">
<title>sequence:
 pick_up(left_hand, inwardgripper, chairnut2)&#45;&gt;precondition:
 hold(left_hand, inwardgripper)</title>
<path fill="none" stroke="black" d="M2103.78,-108C2107.39,-99.5 2111.29,-90.29 2115.06,-81.42"/>
<polygon fill="black" stroke="black" points="2118.39,-82.54 2119.07,-71.97 2111.94,-79.8 2118.39,-82.54"/>
</g>
<!-- action:
 pick_up(left_hand, inwardgripper, chairnut2) -->
<g id="node15" class="node">
<title>action:
 pick_up(left_hand, inwardgripper, chairnut2)</title>
<ellipse fill="lightgreen" stroke="black" cx="2640.92" cy="-36" rx="287.22" ry="36"/>
<text text-anchor="middle" x="2640.92" y="-41.6" font-family="Times,serif" font-size="18.00">action:</text>
<text text-anchor="middle" x="2640.92" y="-21.6" font-family="Times,serif" font-size="18.00"> pick_up(left_hand, inwardgripper, chairnut2)</text>
</g>
<!-- sequence:
 pick_up(left_hand, inwardgripper, chairnut2)&#45;&gt;action:
 pick_up(left_hand, inwardgripper, chairnut2) -->
<g id="edge14" class="edge">
<title>sequence:
 pick_up(left_hand, inwardgripper, chairnut2)&#45;&gt;action:
 pick_up(left_hand, inwardgripper, chairnut2)</title>
<path fill="none" stroke="black" d="M2271.19,-108C2337.8,-95.21 2412.68,-80.83 2477.54,-68.37"/>
<polygon fill="black" stroke="black" points="2478.28,-71.79 2487.44,-66.47 2476.96,-64.92 2478.28,-71.79"/>
</g>
</g>
</svg>
