<?xml version="1.0" encoding="UTF-8" standalone="no"?>
<!DOCTYPE svg PUBLIC "-//W3C//DTD SVG 1.1//EN"
 "http://www.w3.org/Graphics/SVG/1.1/DTD/svg11.dtd">
<!-- Generated by graphviz version 2.43.0 (0)
 -->
<!-- Title: pastafarianism Pages: 1 -->
<svg width="4367pt" height="503pt"
 viewBox="0.00 0.00 4366.61 502.60" xmlns="http://www.w3.org/2000/svg" xmlns:xlink="http://www.w3.org/1999/xlink">
<g id="graph0" class="graph" transform="scale(1 1) rotate(0) translate(4 498.6)">
<title>pastafarianism</title>
<polygon fill="white" stroke="transparent" points="-4,4 -4,-498.6 4362.61,-498.6 4362.61,4 -4,4"/>
<!-- selector:
 insert(shaft1, gearbase_hole1, clampgripper, left_hand) -->
<g id="node1" class="node">
<title>selector:
 insert(shaft1, gearbase_hole1, clampgripper, left_hand)</title>
<polygon fill="#8deeee" stroke="black" points="2311.65,-442.54 2311.65,-473.18 2076.69,-494.84 1744.4,-494.84 1509.44,-473.18 1509.44,-442.54 1744.4,-420.88 2076.69,-420.88 2311.65,-442.54"/>
<text text-anchor="middle" x="1910.55" y="-463.46" font-family="Times,serif" font-size="18.00">selector:</text>
<text text-anchor="middle" x="1910.55" y="-443.46" font-family="Times,serif" font-size="18.00"> insert(shaft1, gearbase_hole1, clampgripper, left_hand)</text>
</g>
<!-- target:
 is_inserted_to(shaft1, gearbase_hole1) -->
<g id="node2" class="node">
<title>target:
 is_inserted_to(shaft1, gearbase_hole1)</title>
<ellipse fill="#ffec8b" stroke="black" cx="1639.55" cy="-351.18" rx="261.76" ry="33.88"/>
<text text-anchor="middle" x="1639.55" y="-356.78" font-family="Times,serif" font-size="18.00">target:</text>
<text text-anchor="middle" x="1639.55" y="-336.78" font-family="Times,serif" font-size="18.00"> is_inserted_to(shaft1, gearbase_hole1)</text>
</g>
<!-- selector:
 insert(shaft1, gearbase_hole1, clampgripper, left_hand)&#45;&gt;target:
 is_inserted_to(shaft1, gearbase_hole1) -->
<g id="edge1" class="edge">
<title>selector:
 insert(shaft1, gearbase_hole1, clampgripper, left_hand)&#45;&gt;target:
 is_inserted_to(shaft1, gearbase_hole1)</title>
<path fill="none" stroke="black" d="M1817.66,-420.98C1789.3,-410.03 1758.17,-398 1729.98,-387.11"/>
<polygon fill="black" stroke="black" points="1731.13,-383.8 1720.54,-383.47 1728.61,-390.33 1731.13,-383.8"/>
</g>
<!-- sequence:
 insert(shaft1, gearbase_hole1, clampgripper, left_hand) -->
<g id="node3" class="node">
<title>sequence:
 insert(shaft1, gearbase_hole1, clampgripper, left_hand)</title>
<polygon fill="#ff7f24" stroke="black" points="2443.55,-375.18 1919.55,-375.18 1919.55,-327.18 2443.55,-327.18 2443.55,-375.18"/>
<text text-anchor="middle" x="2181.55" y="-356.78" font-family="Times,serif" font-size="18.00">sequence:</text>
<text text-anchor="middle" x="2181.55" y="-336.78" font-family="Times,serif" font-size="18.00"> insert(shaft1, gearbase_hole1, clampgripper, left_hand)</text>
</g>
<!-- selector:
 insert(shaft1, gearbase_hole1, clampgripper, left_hand)&#45;&gt;sequence:
 insert(shaft1, gearbase_hole1, clampgripper, left_hand) -->
<g id="edge2" class="edge">
<title>selector:
 insert(shaft1, gearbase_hole1, clampgripper, left_hand)&#45;&gt;sequence:
 insert(shaft1, gearbase_hole1, clampgripper, left_hand)</title>
<path fill="none" stroke="black" d="M2003.43,-420.98C2039.13,-407.19 2079.23,-391.7 2112.32,-378.92"/>
<polygon fill="black" stroke="black" points="2113.84,-382.09 2121.91,-375.22 2111.32,-375.56 2113.84,-382.09"/>
</g>
<!-- selector:
 put_down(left_hand, defaultgripper, shaft3) -->
<g id="node4" class="node">
<title>selector:
 put_down(left_hand, defaultgripper, shaft3)</title>
<polygon fill="#8deeee" stroke="black" points="1192.83,-229.19 1192.83,-259.82 1006.38,-281.48 742.71,-281.48 556.26,-259.82 556.26,-229.19 742.71,-207.53 1006.38,-207.53 1192.83,-229.19"/>
<text text-anchor="middle" x="874.55" y="-250.1" font-family="Times,serif" font-size="18.00">selector:</text>
<text text-anchor="middle" x="874.55" y="-230.1" font-family="Times,serif" font-size="18.00"> put_down(left_hand, defaultgripper, shaft3)</text>
</g>
<!-- sequence:
 insert(shaft1, gearbase_hole1, clampgripper, left_hand)&#45;&gt;selector:
 put_down(left_hand, defaultgripper, shaft3) -->
<g id="edge3" class="edge">
<title>sequence:
 insert(shaft1, gearbase_hole1, clampgripper, left_hand)&#45;&gt;selector:
 put_down(left_hand, defaultgripper, shaft3)</title>
<path fill="none" stroke="black" d="M2003.12,-327.16C1972.28,-323.56 1940.51,-320.1 1910.55,-317.24 1772.23,-304.05 1424.94,-280.74 1170.43,-264.28"/>
<polygon fill="black" stroke="black" points="1170.49,-260.77 1160.28,-263.62 1170.04,-267.76 1170.49,-260.77"/>
</g>
<!-- selector:
 change_tool(left_hand, defaultgripper, clampgripper) -->
<g id="node10" class="node">
<title>selector:
 change_tool(left_hand, defaultgripper, clampgripper)</title>
<polygon fill="#8deeee" stroke="black" points="2215.97,-229.19 2215.97,-259.82 1990.78,-281.48 1672.31,-281.48 1447.12,-259.82 1447.12,-229.19 1672.31,-207.53 1990.78,-207.53 2215.97,-229.19"/>
<text text-anchor="middle" x="1831.55" y="-250.1" font-family="Times,serif" font-size="18.00">selector:</text>
<text text-anchor="middle" x="1831.55" y="-230.1" font-family="Times,serif" font-size="18.00"> change_tool(left_hand, defaultgripper, clampgripper)</text>
</g>
<!-- sequence:
 insert(shaft1, gearbase_hole1, clampgripper, left_hand)&#45;&gt;selector:
 change_tool(left_hand, defaultgripper, clampgripper) -->
<g id="edge9" class="edge">
<title>sequence:
 insert(shaft1, gearbase_hole1, clampgripper, left_hand)&#45;&gt;selector:
 change_tool(left_hand, defaultgripper, clampgripper)</title>
<path fill="none" stroke="black" d="M2104.3,-327.08C2062.31,-314.52 2009.25,-298.65 1961.11,-284.25"/>
<polygon fill="black" stroke="black" points="1961.82,-280.81 1951.24,-281.3 1959.82,-287.52 1961.82,-280.81"/>
</g>
<!-- selector:
 pick_up(left_hand, clampgripper, shaft1) -->
<g id="node16" class="node">
<title>selector:
 pick_up(left_hand, clampgripper, shaft1)</title>
<polygon fill="#8deeee" stroke="black" points="2829.5,-229.19 2829.5,-259.82 2654.96,-281.48 2408.13,-281.48 2233.59,-259.82 2233.59,-229.19 2408.13,-207.53 2654.96,-207.53 2829.5,-229.19"/>
<text text-anchor="middle" x="2531.55" y="-250.1" font-family="Times,serif" font-size="18.00">selector:</text>
<text text-anchor="middle" x="2531.55" y="-230.1" font-family="Times,serif" font-size="18.00"> pick_up(left_hand, clampgripper, shaft1)</text>
</g>
<!-- sequence:
 insert(shaft1, gearbase_hole1, clampgripper, left_hand)&#45;&gt;selector:
 pick_up(left_hand, clampgripper, shaft1) -->
<g id="edge15" class="edge">
<title>sequence:
 insert(shaft1, gearbase_hole1, clampgripper, left_hand)&#45;&gt;selector:
 pick_up(left_hand, clampgripper, shaft1)</title>
<path fill="none" stroke="black" d="M2258.79,-327.08C2300.79,-314.52 2353.85,-298.65 2401.98,-284.25"/>
<polygon fill="black" stroke="black" points="2403.27,-287.52 2411.85,-281.3 2401.27,-280.81 2403.27,-287.52"/>
</g>
<!-- action:
 insert(left_hand, clampgripper, shaft1, gearbase_hole1) -->
<g id="node22" class="node">
<title>action:
 insert(left_hand, clampgripper, shaft1, gearbase_hole1)</title>
<ellipse fill="lightgreen" stroke="black" cx="3217.55" cy="-244.5" rx="370.55" ry="33.88"/>
<text text-anchor="middle" x="3217.55" y="-250.1" font-family="Times,serif" font-size="18.00">action:</text>
<text text-anchor="middle" x="3217.55" y="-230.1" font-family="Times,serif" font-size="18.00"> insert(left_hand, clampgripper, shaft1, gearbase_hole1)</text>
</g>
<!-- sequence:
 insert(shaft1, gearbase_hole1, clampgripper, left_hand)&#45;&gt;action:
 insert(left_hand, clampgripper, shaft1, gearbase_hole1) -->
<g id="edge21" class="edge">
<title>sequence:
 insert(shaft1, gearbase_hole1, clampgripper, left_hand)&#45;&gt;action:
 insert(left_hand, clampgripper, shaft1, gearbase_hole1)</title>
<path fill="none" stroke="black" d="M2409.22,-327.18C2573.05,-310.62 2794.1,-288.29 2963.64,-271.16"/>
<polygon fill="black" stroke="black" points="2964.11,-274.63 2973.71,-270.14 2963.41,-267.66 2964.11,-274.63"/>
</g>
<!-- target:
 is_empty(defaultgripper) -->
<g id="node5" class="node">
<title>target:
 is_empty(defaultgripper)</title>
<ellipse fill="#ffec8b" stroke="black" cx="473.55" cy="-137.82" rx="175.23" ry="33.88"/>
<text text-anchor="middle" x="473.55" y="-143.42" font-family="Times,serif" font-size="18.00">target:</text>
<text text-anchor="middle" x="473.55" y="-123.42" font-family="Times,serif" font-size="18.00"> is_empty(defaultgripper)</text>
</g>
<!-- selector:
 put_down(left_hand, defaultgripper, shaft3)&#45;&gt;target:
 is_empty(defaultgripper) -->
<g id="edge4" class="edge">
<title>selector:
 put_down(left_hand, defaultgripper, shaft3)&#45;&gt;target:
 is_empty(defaultgripper)</title>
<path fill="none" stroke="black" d="M738.51,-207.99C688.68,-194.98 632.9,-180.42 585.43,-168.03"/>
<polygon fill="black" stroke="black" points="586.3,-164.64 575.74,-165.5 584.53,-171.41 586.3,-164.64"/>
</g>
<!-- sequence:
 put_down(left_hand, defaultgripper, shaft3) -->
<g id="node6" class="node">
<title>sequence:
 put_down(left_hand, defaultgripper, shaft3)</title>
<polygon fill="#ff7f24" stroke="black" points="1082.55,-161.82 666.55,-161.82 666.55,-113.82 1082.55,-113.82 1082.55,-161.82"/>
<text text-anchor="middle" x="874.55" y="-143.42" font-family="Times,serif" font-size="18.00">sequence:</text>
<text text-anchor="middle" x="874.55" y="-123.42" font-family="Times,serif" font-size="18.00"> put_down(left_hand, defaultgripper, shaft3)</text>
</g>
<!-- selector:
 put_down(left_hand, defaultgripper, shaft3)&#45;&gt;sequence:
 put_down(left_hand, defaultgripper, shaft3) -->
<g id="edge5" class="edge">
<title>selector:
 put_down(left_hand, defaultgripper, shaft3)&#45;&gt;sequence:
 put_down(left_hand, defaultgripper, shaft3)</title>
<path fill="none" stroke="black" d="M874.55,-207.48C874.55,-196.09 874.55,-183.57 874.55,-172.36"/>
<polygon fill="black" stroke="black" points="878.05,-172.11 874.55,-162.11 871.05,-172.11 878.05,-172.11"/>
</g>
<!-- precondition:
 hold(left_hand, defaultgripper) -->
<g id="node7" class="node">
<title>precondition:
 hold(left_hand, defaultgripper)</title>
<ellipse fill="#ffec8b" stroke="black" cx="213.55" cy="-33.94" rx="213.59" ry="33.88"/>
<text text-anchor="middle" x="213.55" y="-39.54" font-family="Times,serif" font-size="18.00">precondition:</text>
<text text-anchor="middle" x="213.55" y="-19.54" font-family="Times,serif" font-size="18.00"> hold(left_hand, defaultgripper)</text>
</g>
<!-- sequence:
 put_down(left_hand, defaultgripper, shaft3)&#45;&gt;precondition:
 hold(left_hand, defaultgripper) -->
<g id="edge6" class="edge">
<title>sequence:
 put_down(left_hand, defaultgripper, shaft3)&#45;&gt;precondition:
 hold(left_hand, defaultgripper)</title>
<path fill="none" stroke="black" d="M724.97,-113.77C620.27,-97.63 480.56,-76.1 373.62,-59.61"/>
<polygon fill="black" stroke="black" points="374.12,-56.15 363.7,-58.08 373.05,-63.07 374.12,-56.15"/>
</g>
<!-- precondition:
 hold(defaultgripper, shaft3) -->
<g id="node8" class="node">
<title>precondition:
 hold(defaultgripper, shaft3)</title>
<ellipse fill="#ffec8b" stroke="black" cx="637.55" cy="-33.94" rx="192.17" ry="33.88"/>
<text text-anchor="middle" x="637.55" y="-39.54" font-family="Times,serif" font-size="18.00">precondition:</text>
<text text-anchor="middle" x="637.55" y="-19.54" font-family="Times,serif" font-size="18.00"> hold(defaultgripper, shaft3)</text>
</g>
<!-- sequence:
 put_down(left_hand, defaultgripper, shaft3)&#45;&gt;precondition:
 hold(defaultgripper, shaft3) -->
<g id="edge7" class="edge">
<title>sequence:
 put_down(left_hand, defaultgripper, shaft3)&#45;&gt;precondition:
 hold(defaultgripper, shaft3)</title>
<path fill="none" stroke="black" d="M820.77,-113.7C790.43,-100.66 751.93,-84.11 718.07,-69.56"/>
<polygon fill="black" stroke="black" points="719.22,-66.24 708.65,-65.51 716.45,-72.67 719.22,-66.24"/>
</g>
<!-- action:
 put_down(left_hand, defaultgripper, shaft3) -->
<g id="node9" class="node">
<title>action:
 put_down(left_hand, defaultgripper, shaft3)</title>
<ellipse fill="lightgreen" stroke="black" cx="1141.55" cy="-33.94" rx="294.31" ry="33.88"/>
<text text-anchor="middle" x="1141.55" y="-39.54" font-family="Times,serif" font-size="18.00">action:</text>
<text text-anchor="middle" x="1141.55" y="-19.54" font-family="Times,serif" font-size="18.00"> put_down(left_hand, defaultgripper, shaft3)</text>
</g>
<!-- sequence:
 put_down(left_hand, defaultgripper, shaft3)&#45;&gt;action:
 put_down(left_hand, defaultgripper, shaft3) -->
<g id="edge8" class="edge">
<title>sequence:
 put_down(left_hand, defaultgripper, shaft3)&#45;&gt;action:
 put_down(left_hand, defaultgripper, shaft3)</title>
<path fill="none" stroke="black" d="M935.13,-113.7C968.82,-100.85 1011.44,-84.59 1049.2,-70.18"/>
<polygon fill="black" stroke="black" points="1050.59,-73.4 1058.68,-66.56 1048.09,-66.86 1050.59,-73.4"/>
</g>
<!-- target:
 hold(left_hand, clampgripper) -->
<g id="node11" class="node">
<title>target:
 hold(left_hand, clampgripper)</title>
<ellipse fill="#ffec8b" stroke="black" cx="1572.55" cy="-137.82" rx="207.36" ry="33.88"/>
<text text-anchor="middle" x="1572.55" y="-143.42" font-family="Times,serif" font-size="18.00">target:</text>
<text text-anchor="middle" x="1572.55" y="-123.42" font-family="Times,serif" font-size="18.00"> hold(left_hand, clampgripper)</text>
</g>
<!-- selector:
 change_tool(left_hand, defaultgripper, clampgripper)&#45;&gt;target:
 hold(left_hand, clampgripper) -->
<g id="edge10" class="edge">
<title>selector:
 change_tool(left_hand, defaultgripper, clampgripper)&#45;&gt;target:
 hold(left_hand, clampgripper)</title>
<path fill="none" stroke="black" d="M1742.78,-207.62C1715.27,-196.51 1685.03,-184.29 1657.77,-173.27"/>
<polygon fill="black" stroke="black" points="1658.84,-169.93 1648.26,-169.42 1656.22,-176.42 1658.84,-169.93"/>
</g>
<!-- sequence:
 change_tool(left_hand, defaultgripper, clampgripper) -->
<g id="node12" class="node">
<title>sequence:
 change_tool(left_hand, defaultgripper, clampgripper)</title>
<polygon fill="#ff7f24" stroke="black" points="2299.55,-161.82 1797.55,-161.82 1797.55,-113.82 2299.55,-113.82 2299.55,-161.82"/>
<text text-anchor="middle" x="2048.55" y="-143.42" font-family="Times,serif" font-size="18.00">sequence:</text>
<text text-anchor="middle" x="2048.55" y="-123.42" font-family="Times,serif" font-size="18.00"> change_tool(left_hand, defaultgripper, clampgripper)</text>
</g>
<!-- selector:
 change_tool(left_hand, defaultgripper, clampgripper)&#45;&gt;sequence:
 change_tool(left_hand, defaultgripper, clampgripper) -->
<g id="edge11" class="edge">
<title>selector:
 change_tool(left_hand, defaultgripper, clampgripper)&#45;&gt;sequence:
 change_tool(left_hand, defaultgripper, clampgripper)</title>
<path fill="none" stroke="black" d="M1905.92,-207.62C1934.02,-194.07 1965.51,-178.88 1991.75,-166.22"/>
<polygon fill="black" stroke="black" points="1993.3,-169.36 2000.79,-161.86 1990.26,-163.05 1993.3,-169.36"/>
</g>
<!-- precondition:
 is_empty(defaultgripper) -->
<g id="node13" class="node">
<title>precondition:
 is_empty(defaultgripper)</title>
<ellipse fill="#ffec8b" stroke="black" cx="1629.55" cy="-33.94" rx="175.23" ry="33.88"/>
<text text-anchor="middle" x="1629.55" y="-39.54" font-family="Times,serif" font-size="18.00">precondition:</text>
<text text-anchor="middle" x="1629.55" y="-19.54" font-family="Times,serif" font-size="18.00"> is_empty(defaultgripper)</text>
</g>
<!-- sequence:
 change_tool(left_hand, defaultgripper, clampgripper)&#45;&gt;precondition:
 is_empty(defaultgripper) -->
<g id="edge12" class="edge">
<title>sequence:
 change_tool(left_hand, defaultgripper, clampgripper)&#45;&gt;precondition:
 is_empty(defaultgripper)</title>
<path fill="none" stroke="black" d="M1953.73,-113.77C1892.31,-98.83 1811.87,-79.27 1746.49,-63.38"/>
<polygon fill="black" stroke="black" points="1747.09,-59.92 1736.54,-60.96 1745.43,-66.72 1747.09,-59.92"/>
</g>
<!-- &quot;precondition:\n hold(left_hand, defaultgripper)&quot;* -->
<g id="node14" class="node">
<title>&quot;precondition:\n hold(left_hand, defaultgripper)&quot;*</title>
<ellipse fill="#ffec8b" stroke="black" cx="2048.55" cy="-33.94" rx="225.63" ry="33.88"/>
<text text-anchor="middle" x="2048.55" y="-39.54" font-family="Times,serif" font-size="18.00">&quot;precondition:</text>
<text text-anchor="middle" x="2048.55" y="-19.54" font-family="Times,serif" font-size="18.00"> hold(left_hand, defaultgripper)&quot;*</text>
</g>
<!-- sequence:
 change_tool(left_hand, defaultgripper, clampgripper)&#45;&gt;&quot;precondition:\n hold(left_hand, defaultgripper)&quot;* -->
<g id="edge13" class="edge">
<title>sequence:
 change_tool(left_hand, defaultgripper, clampgripper)&#45;&gt;&quot;precondition:\n hold(left_hand, defaultgripper)&quot;*</title>
<path fill="none" stroke="black" d="M2048.55,-113.7C2048.55,-103.16 2048.55,-90.31 2048.55,-78.08"/>
<polygon fill="black" stroke="black" points="2052.05,-78.01 2048.55,-68.01 2045.05,-78.01 2052.05,-78.01"/>
</g>
<!-- action:
 change_tool(left_hand, defaultgripper, clampgripper) -->
<g id="node15" class="node">
<title>action:
 change_tool(left_hand, defaultgripper, clampgripper)</title>
<ellipse fill="lightgreen" stroke="black" cx="2647.55" cy="-33.94" rx="354.94" ry="33.88"/>
<text text-anchor="middle" x="2647.55" y="-39.54" font-family="Times,serif" font-size="18.00">action:</text>
<text text-anchor="middle" x="2647.55" y="-19.54" font-family="Times,serif" font-size="18.00"> change_tool(left_hand, defaultgripper, clampgripper)</text>
</g>
<!-- sequence:
 change_tool(left_hand, defaultgripper, clampgripper)&#45;&gt;action:
 change_tool(left_hand, defaultgripper, clampgripper) -->
<g id="edge14" class="edge">
<title>sequence:
 change_tool(left_hand, defaultgripper, clampgripper)&#45;&gt;action:
 change_tool(left_hand, defaultgripper, clampgripper)</title>
<path fill="none" stroke="black" d="M2184.09,-113.77C2268.09,-99.48 2376.95,-80.97 2468.06,-65.47"/>
<polygon fill="black" stroke="black" points="2468.68,-68.91 2477.95,-63.79 2467.5,-62.01 2468.68,-68.91"/>
</g>
<!-- target:
 hold(clampgripper, shaft1) -->
<g id="node17" class="node">
<title>target:
 hold(clampgripper, shaft1)</title>
<ellipse fill="#ffec8b" stroke="black" cx="2531.55" cy="-137.82" rx="185.94" ry="33.88"/>
<text text-anchor="middle" x="2531.55" y="-143.42" font-family="Times,serif" font-size="18.00">target:</text>
<text text-anchor="middle" x="2531.55" y="-123.42" font-family="Times,serif" font-size="18.00"> hold(clampgripper, shaft1)</text>
</g>
<!-- selector:
 pick_up(left_hand, clampgripper, shaft1)&#45;&gt;target:
 hold(clampgripper, shaft1) -->
<g id="edge16" class="edge">
<title>selector:
 pick_up(left_hand, clampgripper, shaft1)&#45;&gt;target:
 hold(clampgripper, shaft1)</title>
<path fill="none" stroke="black" d="M2531.55,-207.48C2531.55,-199.32 2531.55,-190.58 2531.55,-182.15"/>
<polygon fill="black" stroke="black" points="2535.05,-182.1 2531.55,-172.1 2528.05,-182.1 2535.05,-182.1"/>
</g>
<!-- sequence:
 pick_up(left_hand, clampgripper, shaft1) -->
<g id="node18" class="node">
<title>sequence:
 pick_up(left_hand, clampgripper, shaft1)</title>
<polygon fill="#ff7f24" stroke="black" points="3581.05,-161.82 3192.05,-161.82 3192.05,-113.82 3581.05,-113.82 3581.05,-161.82"/>
<text text-anchor="middle" x="3386.55" y="-143.42" font-family="Times,serif" font-size="18.00">sequence:</text>
<text text-anchor="middle" x="3386.55" y="-123.42" font-family="Times,serif" font-size="18.00"> pick_up(left_hand, clampgripper, shaft1)</text>
</g>
<!-- selector:
 pick_up(left_hand, clampgripper, shaft1)&#45;&gt;sequence:
 pick_up(left_hand, clampgripper, shaft1) -->
<g id="edge17" class="edge">
<title>selector:
 pick_up(left_hand, clampgripper, shaft1)&#45;&gt;sequence:
 pick_up(left_hand, clampgripper, shaft1)</title>
<path fill="none" stroke="black" d="M2739.61,-218.03C2876.2,-201.31 3053.8,-179.56 3188.35,-163.09"/>
<polygon fill="black" stroke="black" points="3188.87,-166.55 3198.37,-161.86 3188.02,-159.6 3188.87,-166.55"/>
</g>
<!-- precondition:
 is_empty(clampgripper) -->
<g id="node19" class="node">
<title>precondition:
 is_empty(clampgripper)</title>
<ellipse fill="#ffec8b" stroke="black" cx="3189.55" cy="-33.94" rx="169" ry="33.88"/>
<text text-anchor="middle" x="3189.55" y="-39.54" font-family="Times,serif" font-size="18.00">precondition:</text>
<text text-anchor="middle" x="3189.55" y="-19.54" font-family="Times,serif" font-size="18.00"> is_empty(clampgripper)</text>
</g>
<!-- sequence:
 pick_up(left_hand, clampgripper, shaft1)&#45;&gt;precondition:
 is_empty(clampgripper) -->
<g id="edge18" class="edge">
<title>sequence:
 pick_up(left_hand, clampgripper, shaft1)&#45;&gt;precondition:
 is_empty(clampgripper)</title>
<path fill="none" stroke="black" d="M3341.84,-113.7C3317.26,-100.99 3286.24,-84.95 3258.61,-70.66"/>
<polygon fill="black" stroke="black" points="3259.88,-67.37 3249.39,-65.89 3256.66,-73.59 3259.88,-67.37"/>
</g>
<!-- precondition:
 hold(left_hand, clampgripper) -->
<g id="node20" class="node">
<title>precondition:
 hold(left_hand, clampgripper)</title>
<ellipse fill="#ffec8b" stroke="black" cx="3583.55" cy="-33.94" rx="207.36" ry="33.88"/>
<text text-anchor="middle" x="3583.55" y="-39.54" font-family="Times,serif" font-size="18.00">precondition:</text>
<text text-anchor="middle" x="3583.55" y="-19.54" font-family="Times,serif" font-size="18.00"> hold(left_hand, clampgripper)</text>
</g>
<!-- sequence:
 pick_up(left_hand, clampgripper, shaft1)&#45;&gt;precondition:
 hold(left_hand, clampgripper) -->
<g id="edge19" class="edge">
<title>sequence:
 pick_up(left_hand, clampgripper, shaft1)&#45;&gt;precondition:
 hold(left_hand, clampgripper)</title>
<path fill="none" stroke="black" d="M3431.25,-113.7C3455.52,-101.15 3486.08,-85.35 3513.45,-71.19"/>
<polygon fill="black" stroke="black" points="3515.32,-74.17 3522.59,-66.46 3512.1,-67.95 3515.32,-74.17"/>
</g>
<!-- action:
 pick_up(left_hand, clampgripper, shaft1) -->
<g id="node21" class="node">
<title>action:
 pick_up(left_hand, clampgripper, shaft1)</title>
<ellipse fill="lightgreen" stroke="black" cx="4083.55" cy="-33.94" rx="275.13" ry="33.88"/>
<text text-anchor="middle" x="4083.55" y="-39.54" font-family="Times,serif" font-size="18.00">action:</text>
<text text-anchor="middle" x="4083.55" y="-19.54" font-family="Times,serif" font-size="18.00"> pick_up(left_hand, clampgripper, shaft1)</text>
</g>
<!-- sequence:
 pick_up(left_hand, clampgripper, shaft1)&#45;&gt;action:
 pick_up(left_hand, clampgripper, shaft1) -->
<g id="edge20" class="edge">
<title>sequence:
 pick_up(left_hand, clampgripper, shaft1)&#45;&gt;action:
 pick_up(left_hand, clampgripper, shaft1)</title>
<path fill="none" stroke="black" d="M3544.27,-113.77C3649.91,-98.33 3789.36,-77.94 3899.98,-61.77"/>
<polygon fill="black" stroke="black" points="3900.53,-65.23 3909.92,-60.32 3899.52,-58.3 3900.53,-65.23"/>
</g>
</g>
</svg>
