<?xml version="1.0" encoding="UTF-8" standalone="no"?>
<!DOCTYPE svg PUBLIC "-//W3C//DTD SVG 1.1//EN"
 "http://www.w3.org/Graphics/SVG/1.1/DTD/svg11.dtd">
<!-- Generated by graphviz version 2.43.0 (0)
 -->
<!-- Title: pastafarianism Pages: 1 -->
<svg width="3013pt" height="503pt"
 viewBox="0.00 0.00 3013.48 502.60" xmlns="http://www.w3.org/2000/svg" xmlns:xlink="http://www.w3.org/1999/xlink">
<g id="graph0" class="graph" transform="scale(1 1) rotate(0) translate(4 498.6)">
<title>pastafarianism</title>
<polygon fill="white" stroke="transparent" points="-4,4 -4,-498.6 3009.48,-498.6 3009.48,4 -4,4"/>
<!-- selector:
 screw(chairnut1, chairseatbolt1, inwardgripper, left_hand) -->
<g id="node1" class="node">
<title>selector:
 screw(chairnut1, chairseatbolt1, inwardgripper, left_hand)</title>
<polygon fill="#8deeee" stroke="black" points="1654.87,-442.54 1654.87,-473.18 1406.48,-494.84 1055.2,-494.84 806.81,-473.18 806.81,-442.54 1055.2,-420.88 1406.48,-420.88 1654.87,-442.54"/>
<text text-anchor="middle" x="1230.84" y="-463.46" font-family="Times,serif" font-size="18.00">selector:</text>
<text text-anchor="middle" x="1230.84" y="-443.46" font-family="Times,serif" font-size="18.00"> screw(chairnut1, chairseatbolt1, inwardgripper, left_hand)</text>
</g>
<!-- target:
 is_screwed_to(chairnut1, chairseatbolt1) -->
<g id="node2" class="node">
<title>target:
 is_screwed_to(chairnut1, chairseatbolt1)</title>
<ellipse fill="#ffec8b" stroke="black" cx="945.84" cy="-351.18" rx="276.46" ry="33.88"/>
<text text-anchor="middle" x="945.84" y="-356.78" font-family="Times,serif" font-size="18.00">target:</text>
<text text-anchor="middle" x="945.84" y="-336.78" font-family="Times,serif" font-size="18.00"> is_screwed_to(chairnut1, chairseatbolt1)</text>
</g>
<!-- selector:
 screw(chairnut1, chairseatbolt1, inwardgripper, left_hand)&#45;&gt;target:
 is_screwed_to(chairnut1, chairseatbolt1) -->
<g id="edge1" class="edge">
<title>selector:
 screw(chairnut1, chairseatbolt1, inwardgripper, left_hand)&#45;&gt;target:
 is_screwed_to(chairnut1, chairseatbolt1)</title>
<path fill="none" stroke="black" d="M1133.16,-420.98C1103.35,-410.03 1070.63,-398.02 1040.99,-387.13"/>
<polygon fill="black" stroke="black" points="1042.08,-383.8 1031.49,-383.64 1039.67,-390.37 1042.08,-383.8"/>
</g>
<!-- sequence:
 screw(chairnut1, chairseatbolt1, inwardgripper, left_hand) -->
<g id="node3" class="node">
<title>sequence:
 screw(chairnut1, chairseatbolt1, inwardgripper, left_hand)</title>
<polygon fill="#ff7f24" stroke="black" points="1793.84,-375.18 1239.84,-375.18 1239.84,-327.18 1793.84,-327.18 1793.84,-375.18"/>
<text text-anchor="middle" x="1516.84" y="-356.78" font-family="Times,serif" font-size="18.00">sequence:</text>
<text text-anchor="middle" x="1516.84" y="-336.78" font-family="Times,serif" font-size="18.00"> screw(chairnut1, chairseatbolt1, inwardgripper, left_hand)</text>
</g>
<!-- selector:
 screw(chairnut1, chairseatbolt1, inwardgripper, left_hand)&#45;&gt;sequence:
 screw(chairnut1, chairseatbolt1, inwardgripper, left_hand) -->
<g id="edge2" class="edge">
<title>selector:
 screw(chairnut1, chairseatbolt1, inwardgripper, left_hand)&#45;&gt;sequence:
 screw(chairnut1, chairseatbolt1, inwardgripper, left_hand)</title>
<path fill="none" stroke="black" d="M1328.86,-420.98C1366.7,-407.13 1409.22,-391.57 1444.23,-378.76"/>
<polygon fill="black" stroke="black" points="1445.71,-381.94 1453.9,-375.22 1443.3,-375.37 1445.71,-381.94"/>
</g>
<!-- selector:
 change_tool(left_hand, defaultgripper, inwardgripper) -->
<g id="node4" class="node">
<title>selector:
 change_tool(left_hand, defaultgripper, inwardgripper)</title>
<polygon fill="#8deeee" stroke="black" points="1089.01,-229.19 1089.01,-259.82 860.45,-281.48 537.22,-281.48 308.66,-259.82 308.66,-229.19 537.22,-207.53 860.45,-207.53 1089.01,-229.19"/>
<text text-anchor="middle" x="698.84" y="-250.1" font-family="Times,serif" font-size="18.00">selector:</text>
<text text-anchor="middle" x="698.84" y="-230.1" font-family="Times,serif" font-size="18.00"> change_tool(left_hand, defaultgripper, inwardgripper)</text>
</g>
<!-- sequence:
 screw(chairnut1, chairseatbolt1, inwardgripper, left_hand)&#45;&gt;selector:
 change_tool(left_hand, defaultgripper, inwardgripper) -->
<g id="edge3" class="edge">
<title>sequence:
 screw(chairnut1, chairseatbolt1, inwardgripper, left_hand)&#45;&gt;selector:
 change_tool(left_hand, defaultgripper, inwardgripper)</title>
<path fill="none" stroke="black" d="M1337.07,-327.18C1220.3,-312.23 1066.7,-292.58 939.45,-276.29"/>
<polygon fill="black" stroke="black" points="939.53,-272.77 929.17,-274.98 938.64,-279.72 939.53,-272.77"/>
</g>
<!-- selector:
 pick_up(left_hand, inwardgripper, chairnut1) -->
<g id="node10" class="node">
<title>selector:
 pick_up(left_hand, inwardgripper, chairnut1)</title>
<polygon fill="#8deeee" stroke="black" points="1844.49,-229.19 1844.49,-259.82 1652.56,-281.48 1381.12,-281.48 1189.19,-259.82 1189.19,-229.19 1381.12,-207.53 1652.56,-207.53 1844.49,-229.19"/>
<text text-anchor="middle" x="1516.84" y="-250.1" font-family="Times,serif" font-size="18.00">selector:</text>
<text text-anchor="middle" x="1516.84" y="-230.1" font-family="Times,serif" font-size="18.00"> pick_up(left_hand, inwardgripper, chairnut1)</text>
</g>
<!-- sequence:
 screw(chairnut1, chairseatbolt1, inwardgripper, left_hand)&#45;&gt;selector:
 pick_up(left_hand, inwardgripper, chairnut1) -->
<g id="edge9" class="edge">
<title>sequence:
 screw(chairnut1, chairseatbolt1, inwardgripper, left_hand)&#45;&gt;selector:
 pick_up(left_hand, inwardgripper, chairnut1)</title>
<path fill="none" stroke="black" d="M1516.84,-326.95C1516.84,-316.5 1516.84,-303.79 1516.84,-291.54"/>
<polygon fill="black" stroke="black" points="1520.34,-291.42 1516.84,-281.42 1513.34,-291.42 1520.34,-291.42"/>
</g>
<!-- action:
 screw(left_hand, inwardgripper, chairnut1, chairseatbolt1) -->
<g id="node16" class="node">
<title>action:
 screw(left_hand, inwardgripper, chairnut1, chairseatbolt1)</title>
<ellipse fill="lightgreen" stroke="black" cx="2253.84" cy="-244.5" rx="391.97" ry="33.88"/>
<text text-anchor="middle" x="2253.84" y="-250.1" font-family="Times,serif" font-size="18.00">action:</text>
<text text-anchor="middle" x="2253.84" y="-230.1" font-family="Times,serif" font-size="18.00"> screw(left_hand, inwardgripper, chairnut1, chairseatbolt1)</text>
</g>
<!-- sequence:
 screw(chairnut1, chairseatbolt1, inwardgripper, left_hand)&#45;&gt;action:
 screw(left_hand, inwardgripper, chairnut1, chairseatbolt1) -->
<g id="edge15" class="edge">
<title>sequence:
 screw(chairnut1, chairseatbolt1, inwardgripper, left_hand)&#45;&gt;action:
 screw(left_hand, inwardgripper, chairnut1, chairseatbolt1)</title>
<path fill="none" stroke="black" d="M1679.03,-327.14C1786.62,-311.86 1928.82,-291.67 2044.87,-275.18"/>
<polygon fill="black" stroke="black" points="2045.54,-278.62 2054.95,-273.75 2044.55,-271.69 2045.54,-278.62"/>
</g>
<!-- target:
 hold(left_hand, inwardgripper) -->
<g id="node5" class="node">
<title>target:
 hold(left_hand, inwardgripper)</title>
<ellipse fill="#ffec8b" stroke="black" cx="212.84" cy="-137.82" rx="212.68" ry="33.88"/>
<text text-anchor="middle" x="212.84" y="-143.42" font-family="Times,serif" font-size="18.00">target:</text>
<text text-anchor="middle" x="212.84" y="-123.42" font-family="Times,serif" font-size="18.00"> hold(left_hand, inwardgripper)</text>
</g>
<!-- selector:
 change_tool(left_hand, defaultgripper, inwardgripper)&#45;&gt;target:
 hold(left_hand, inwardgripper) -->
<g id="edge4" class="edge">
<title>selector:
 change_tool(left_hand, defaultgripper, inwardgripper)&#45;&gt;target:
 hold(left_hand, inwardgripper)</title>
<path fill="none" stroke="black" d="M533.28,-207.84C472.44,-194.74 404.35,-180.07 346.64,-167.64"/>
<polygon fill="black" stroke="black" points="347.25,-164.19 336.73,-165.51 345.77,-171.04 347.25,-164.19"/>
</g>
<!-- sequence:
 change_tool(left_hand, defaultgripper, inwardgripper) -->
<g id="node6" class="node">
<title>sequence:
 change_tool(left_hand, defaultgripper, inwardgripper)</title>
<polygon fill="#ff7f24" stroke="black" points="953.84,-161.82 443.84,-161.82 443.84,-113.82 953.84,-113.82 953.84,-161.82"/>
<text text-anchor="middle" x="698.84" y="-143.42" font-family="Times,serif" font-size="18.00">sequence:</text>
<text text-anchor="middle" x="698.84" y="-123.42" font-family="Times,serif" font-size="18.00"> change_tool(left_hand, defaultgripper, inwardgripper)</text>
</g>
<!-- selector:
 change_tool(left_hand, defaultgripper, inwardgripper)&#45;&gt;sequence:
 change_tool(left_hand, defaultgripper, inwardgripper) -->
<g id="edge5" class="edge">
<title>selector:
 change_tool(left_hand, defaultgripper, inwardgripper)&#45;&gt;sequence:
 change_tool(left_hand, defaultgripper, inwardgripper)</title>
<path fill="none" stroke="black" d="M698.84,-207.48C698.84,-196.09 698.84,-183.57 698.84,-172.36"/>
<polygon fill="black" stroke="black" points="702.34,-172.11 698.84,-162.11 695.34,-172.11 702.34,-172.11"/>
</g>
<!-- precondition:
 hold(left_hand, defaultgripper) -->
<g id="node7" class="node">
<title>precondition:
 hold(left_hand, defaultgripper)</title>
<ellipse fill="#ffec8b" stroke="black" cx="250.84" cy="-33.94" rx="213.59" ry="33.88"/>
<text text-anchor="middle" x="250.84" y="-39.54" font-family="Times,serif" font-size="18.00">precondition:</text>
<text text-anchor="middle" x="250.84" y="-19.54" font-family="Times,serif" font-size="18.00"> hold(left_hand, defaultgripper)</text>
</g>
<!-- sequence:
 change_tool(left_hand, defaultgripper, inwardgripper)&#45;&gt;precondition:
 hold(left_hand, defaultgripper) -->
<g id="edge6" class="edge">
<title>sequence:
 change_tool(left_hand, defaultgripper, inwardgripper)&#45;&gt;precondition:
 hold(left_hand, defaultgripper)</title>
<path fill="none" stroke="black" d="M597.46,-113.77C533.25,-99.17 449.61,-80.14 380.58,-64.45"/>
<polygon fill="black" stroke="black" points="381.03,-60.96 370.5,-62.15 379.48,-67.78 381.03,-60.96"/>
</g>
<!-- precondition:
 is_empty(defaultgripper) -->
<g id="node8" class="node">
<title>precondition:
 is_empty(defaultgripper)</title>
<ellipse fill="#ffec8b" stroke="black" cx="657.84" cy="-33.94" rx="175.23" ry="33.88"/>
<text text-anchor="middle" x="657.84" y="-39.54" font-family="Times,serif" font-size="18.00">precondition:</text>
<text text-anchor="middle" x="657.84" y="-19.54" font-family="Times,serif" font-size="18.00"> is_empty(defaultgripper)</text>
</g>
<!-- sequence:
 change_tool(left_hand, defaultgripper, inwardgripper)&#45;&gt;precondition:
 is_empty(defaultgripper) -->
<g id="edge7" class="edge">
<title>sequence:
 change_tool(left_hand, defaultgripper, inwardgripper)&#45;&gt;precondition:
 is_empty(defaultgripper)</title>
<path fill="none" stroke="black" d="M689.54,-113.7C685.21,-102.94 679.91,-89.79 674.9,-77.35"/>
<polygon fill="black" stroke="black" points="678.13,-75.98 671.15,-68.01 671.63,-78.6 678.13,-75.98"/>
</g>
<!-- action:
 change_tool(left_hand, defaultgripper, inwardgripper) -->
<g id="node9" class="node">
<title>action:
 change_tool(left_hand, defaultgripper, inwardgripper)</title>
<ellipse fill="lightgreen" stroke="black" cx="1211.84" cy="-33.94" rx="360.75" ry="33.88"/>
<text text-anchor="middle" x="1211.84" y="-39.54" font-family="Times,serif" font-size="18.00">action:</text>
<text text-anchor="middle" x="1211.84" y="-19.54" font-family="Times,serif" font-size="18.00"> change_tool(left_hand, defaultgripper, inwardgripper)</text>
</g>
<!-- sequence:
 change_tool(left_hand, defaultgripper, inwardgripper)&#45;&gt;action:
 change_tool(left_hand, defaultgripper, inwardgripper) -->
<g id="edge8" class="edge">
<title>sequence:
 change_tool(left_hand, defaultgripper, inwardgripper)&#45;&gt;action:
 change_tool(left_hand, defaultgripper, inwardgripper)</title>
<path fill="none" stroke="black" d="M814.93,-113.77C884.65,-99.92 974.39,-82.1 1050.89,-66.91"/>
<polygon fill="black" stroke="black" points="1051.99,-70.26 1061.11,-64.88 1050.62,-63.39 1051.99,-70.26"/>
</g>
<!-- target:
 hold(inwardgripper, chairnut1) -->
<g id="node11" class="node">
<title>target:
 hold(inwardgripper, chairnut1)</title>
<ellipse fill="#ffec8b" stroke="black" cx="1516.84" cy="-137.82" rx="213.59" ry="33.88"/>
<text text-anchor="middle" x="1516.84" y="-143.42" font-family="Times,serif" font-size="18.00">target:</text>
<text text-anchor="middle" x="1516.84" y="-123.42" font-family="Times,serif" font-size="18.00"> hold(inwardgripper, chairnut1)</text>
</g>
<!-- selector:
 pick_up(left_hand, inwardgripper, chairnut1)&#45;&gt;target:
 hold(inwardgripper, chairnut1) -->
<g id="edge10" class="edge">
<title>selector:
 pick_up(left_hand, inwardgripper, chairnut1)&#45;&gt;target:
 hold(inwardgripper, chairnut1)</title>
<path fill="none" stroke="black" d="M1516.84,-207.48C1516.84,-199.32 1516.84,-190.58 1516.84,-182.15"/>
<polygon fill="black" stroke="black" points="1520.34,-182.1 1516.84,-172.1 1513.34,-182.1 1520.34,-182.1"/>
</g>
<!-- sequence:
 pick_up(left_hand, inwardgripper, chairnut1) -->
<g id="node12" class="node">
<title>sequence:
 pick_up(left_hand, inwardgripper, chairnut1)</title>
<polygon fill="#ff7f24" stroke="black" points="2341.84,-161.82 1913.84,-161.82 1913.84,-113.82 2341.84,-113.82 2341.84,-161.82"/>
<text text-anchor="middle" x="2127.84" y="-143.42" font-family="Times,serif" font-size="18.00">sequence:</text>
<text text-anchor="middle" x="2127.84" y="-123.42" font-family="Times,serif" font-size="18.00"> pick_up(left_hand, inwardgripper, chairnut1)</text>
</g>
<!-- selector:
 pick_up(left_hand, inwardgripper, chairnut1)&#45;&gt;sequence:
 pick_up(left_hand, inwardgripper, chairnut1) -->
<g id="edge11" class="edge">
<title>selector:
 pick_up(left_hand, inwardgripper, chairnut1)&#45;&gt;sequence:
 pick_up(left_hand, inwardgripper, chairnut1)</title>
<path fill="none" stroke="black" d="M1697.68,-212.52C1788.9,-196.89 1898.03,-178.2 1983.54,-163.55"/>
<polygon fill="black" stroke="black" points="1984.31,-166.96 1993.58,-161.83 1983.13,-160.06 1984.31,-166.96"/>
</g>
<!-- precondition:
 is_empty(inwardgripper) -->
<g id="node13" class="node">
<title>precondition:
 is_empty(inwardgripper)</title>
<ellipse fill="#ffec8b" stroke="black" cx="1764.84" cy="-33.94" rx="174.81" ry="33.88"/>
<text text-anchor="middle" x="1764.84" y="-39.54" font-family="Times,serif" font-size="18.00">precondition:</text>
<text text-anchor="middle" x="1764.84" y="-19.54" font-family="Times,serif" font-size="18.00"> is_empty(inwardgripper)</text>
</g>
<!-- sequence:
 pick_up(left_hand, inwardgripper, chairnut1)&#45;&gt;precondition:
 is_empty(inwardgripper) -->
<g id="edge12" class="edge">
<title>sequence:
 pick_up(left_hand, inwardgripper, chairnut1)&#45;&gt;precondition:
 is_empty(inwardgripper)</title>
<path fill="none" stroke="black" d="M2045.47,-113.7C1994.06,-99.28 1927.36,-80.55 1871.88,-64.98"/>
<polygon fill="black" stroke="black" points="1872.58,-61.55 1862.01,-62.21 1870.69,-68.29 1872.58,-61.55"/>
</g>
<!-- precondition:
 hold(left_hand, inwardgripper) -->
<g id="node14" class="node">
<title>precondition:
 hold(left_hand, inwardgripper)</title>
<ellipse fill="#ffec8b" stroke="black" cx="2169.84" cy="-33.94" rx="212.68" ry="33.88"/>
<text text-anchor="middle" x="2169.84" y="-39.54" font-family="Times,serif" font-size="18.00">precondition:</text>
<text text-anchor="middle" x="2169.84" y="-19.54" font-family="Times,serif" font-size="18.00"> hold(left_hand, inwardgripper)</text>
</g>
<!-- sequence:
 pick_up(left_hand, inwardgripper, chairnut1)&#45;&gt;precondition:
 hold(left_hand, inwardgripper) -->
<g id="edge13" class="edge">
<title>sequence:
 pick_up(left_hand, inwardgripper, chairnut1)&#45;&gt;precondition:
 hold(left_hand, inwardgripper)</title>
<path fill="none" stroke="black" d="M2137.37,-113.7C2141.81,-102.94 2147.23,-89.79 2152.36,-77.35"/>
<polygon fill="black" stroke="black" points="2155.63,-78.59 2156.21,-68.01 2149.16,-75.92 2155.63,-78.59"/>
</g>
<!-- action:
 pick_up(left_hand, inwardgripper, chairnut1) -->
<g id="node15" class="node">
<title>action:
 pick_up(left_hand, inwardgripper, chairnut1)</title>
<ellipse fill="lightgreen" stroke="black" cx="2702.84" cy="-33.94" rx="302.78" ry="33.88"/>
<text text-anchor="middle" x="2702.84" y="-39.54" font-family="Times,serif" font-size="18.00">action:</text>
<text text-anchor="middle" x="2702.84" y="-19.54" font-family="Times,serif" font-size="18.00"> pick_up(left_hand, inwardgripper, chairnut1)</text>
</g>
<!-- sequence:
 pick_up(left_hand, inwardgripper, chairnut1)&#45;&gt;action:
 pick_up(left_hand, inwardgripper, chairnut1) -->
<g id="edge14" class="edge">
<title>sequence:
 pick_up(left_hand, inwardgripper, chairnut1)&#45;&gt;action:
 pick_up(left_hand, inwardgripper, chairnut1)</title>
<path fill="none" stroke="black" d="M2257.96,-113.77C2339.94,-99.24 2446.61,-80.34 2534.94,-64.69"/>
<polygon fill="black" stroke="black" points="2535.56,-68.14 2544.8,-62.94 2534.34,-61.24 2535.56,-68.14"/>
</g>
</g>
</svg>
