<?xml version="1.0" encoding="UTF-8" standalone="no"?>
<!DOCTYPE svg PUBLIC "-//W3C//DTD SVG 1.1//EN"
 "http://www.w3.org/Graphics/SVG/1.1/DTD/svg11.dtd">
<!-- Generated by graphviz version 2.43.0 (0)
 -->
<!-- Title: pastafarianism Pages: 1 -->
<svg width="6051pt" height="503pt"
 viewBox="0.00 0.00 6050.85 502.60" xmlns="http://www.w3.org/2000/svg" xmlns:xlink="http://www.w3.org/1999/xlink">
<g id="graph0" class="graph" transform="scale(1 1) rotate(0) translate(4 498.6)">
<title>pastafarianism</title>
<polygon fill="white" stroke="transparent" points="-4,4 -4,-498.6 6046.85,-498.6 6046.85,4 -4,4"/>
<!-- selector:
 insert_shaft1_into_gearbase_hole1 -->
<g id="node1" class="node">
<title>selector:
 insert_shaft1_into_gearbase_hole1</title>
<polygon fill="#8deeee" stroke="black" points="2563.09,-442.54 2563.09,-473.18 2413.27,-494.84 2201.38,-494.84 2051.56,-473.18 2051.56,-442.54 2201.38,-420.88 2413.27,-420.88 2563.09,-442.54"/>
<text text-anchor="middle" x="2307.32" y="-463.46" font-family="Times,serif" font-size="18.00">selector:</text>
<text text-anchor="middle" x="2307.32" y="-443.46" font-family="Times,serif" font-size="18.00"> insert_shaft1_into_gearbase_hole1</text>
</g>
<!-- target:
 is_inserted_to(shaft1, gearbase_hole1) -->
<g id="node2" class="node">
<title>target:
 is_inserted_to(shaft1, gearbase_hole1)</title>
<ellipse fill="#ffec8b" stroke="black" cx="2084.32" cy="-351.18" rx="261.76" ry="33.88"/>
<text text-anchor="middle" x="2084.32" y="-356.78" font-family="Times,serif" font-size="18.00">target:</text>
<text text-anchor="middle" x="2084.32" y="-336.78" font-family="Times,serif" font-size="18.00"> is_inserted_to(shaft1, gearbase_hole1)</text>
</g>
<!-- selector:
 insert_shaft1_into_gearbase_hole1&#45;&gt;target:
 is_inserted_to(shaft1, gearbase_hole1) -->
<g id="edge1" class="edge">
<title>selector:
 insert_shaft1_into_gearbase_hole1&#45;&gt;target:
 is_inserted_to(shaft1, gearbase_hole1)</title>
<path fill="none" stroke="black" d="M2230.89,-420.98C2208.4,-410.42 2183.78,-398.87 2161.26,-388.29"/>
<polygon fill="black" stroke="black" points="2162.61,-385.06 2152.07,-383.98 2159.64,-391.4 2162.61,-385.06"/>
</g>
<!-- sequence:
 insert_shaft1_into_gearbase_hole1 -->
<g id="node3" class="node">
<title>sequence:
 insert_shaft1_into_gearbase_hole1</title>
<polygon fill="#ff7f24" stroke="black" points="2698.32,-375.18 2364.32,-375.18 2364.32,-327.18 2698.32,-327.18 2698.32,-375.18"/>
<text text-anchor="middle" x="2531.32" y="-356.78" font-family="Times,serif" font-size="18.00">sequence:</text>
<text text-anchor="middle" x="2531.32" y="-336.78" font-family="Times,serif" font-size="18.00"> insert_shaft1_into_gearbase_hole1</text>
</g>
<!-- selector:
 insert_shaft1_into_gearbase_hole1&#45;&gt;sequence:
 insert_shaft1_into_gearbase_hole1 -->
<g id="edge2" class="edge">
<title>selector:
 insert_shaft1_into_gearbase_hole1&#45;&gt;sequence:
 insert_shaft1_into_gearbase_hole1</title>
<path fill="none" stroke="black" d="M2384.1,-420.98C2413.1,-407.43 2445.61,-392.24 2472.69,-379.58"/>
<polygon fill="black" stroke="black" points="2474.45,-382.62 2482.03,-375.22 2471.49,-376.28 2474.45,-382.62"/>
</g>
<!-- selector:
 put_down(left_hand, outwardgripper, gear2) -->
<g id="node4" class="node">
<title>selector:
 put_down(left_hand, outwardgripper, gear2)</title>
<polygon fill="#8deeee" stroke="black" points="1237.82,-229.19 1237.82,-259.82 1048.32,-281.48 780.33,-281.48 590.82,-259.82 590.82,-229.19 780.33,-207.53 1048.32,-207.53 1237.82,-229.19"/>
<text text-anchor="middle" x="914.32" y="-250.1" font-family="Times,serif" font-size="18.00">selector:</text>
<text text-anchor="middle" x="914.32" y="-230.1" font-family="Times,serif" font-size="18.00"> put_down(left_hand, outwardgripper, gear2)</text>
</g>
<!-- sequence:
 insert_shaft1_into_gearbase_hole1&#45;&gt;selector:
 put_down(left_hand, outwardgripper, gear2) -->
<g id="edge3" class="edge">
<title>sequence:
 insert_shaft1_into_gearbase_hole1&#45;&gt;selector:
 put_down(left_hand, outwardgripper, gear2)</title>
<path fill="none" stroke="black" d="M2420.89,-327.15C2399.23,-323.3 2376.63,-319.75 2355.32,-317.24 2248.77,-304.67 1639.37,-276.79 1247.94,-259.73"/>
<polygon fill="black" stroke="black" points="1248.01,-256.23 1237.87,-259.29 1247.71,-263.22 1248.01,-256.23"/>
</g>
<!-- selector:
 change_tool(left_hand, outwardgripper, clampgripper) -->
<g id="node10" class="node">
<title>selector:
 change_tool(left_hand, outwardgripper, clampgripper)</title>
<polygon fill="#8deeee" stroke="black" points="2559.09,-229.19 2559.09,-259.82 2329.01,-281.48 2003.64,-281.48 1773.56,-259.82 1773.56,-229.19 2003.64,-207.53 2329.01,-207.53 2559.09,-229.19"/>
<text text-anchor="middle" x="2166.32" y="-250.1" font-family="Times,serif" font-size="18.00">selector:</text>
<text text-anchor="middle" x="2166.32" y="-230.1" font-family="Times,serif" font-size="18.00"> change_tool(left_hand, outwardgripper, clampgripper)</text>
</g>
<!-- sequence:
 insert_shaft1_into_gearbase_hole1&#45;&gt;selector:
 change_tool(left_hand, outwardgripper, clampgripper) -->
<g id="edge9" class="edge">
<title>sequence:
 insert_shaft1_into_gearbase_hole1&#45;&gt;selector:
 change_tool(left_hand, outwardgripper, clampgripper)</title>
<path fill="none" stroke="black" d="M2450.77,-327.08C2406.79,-314.47 2351.18,-298.52 2300.82,-284.07"/>
<polygon fill="black" stroke="black" points="2301.73,-280.69 2291.15,-281.3 2299.8,-287.42 2301.73,-280.69"/>
</g>
<!-- selector:
 pick_up(left_hand, clampgripper, shaft1) -->
<g id="node16" class="node">
<title>selector:
 pick_up(left_hand, clampgripper, shaft1)</title>
<polygon fill="#8deeee" stroke="black" points="3266.28,-229.19 3266.28,-259.82 3091.74,-281.48 2844.91,-281.48 2670.37,-259.82 2670.37,-229.19 2844.91,-207.53 3091.74,-207.53 3266.28,-229.19"/>
<text text-anchor="middle" x="2968.32" y="-250.1" font-family="Times,serif" font-size="18.00">selector:</text>
<text text-anchor="middle" x="2968.32" y="-230.1" font-family="Times,serif" font-size="18.00"> pick_up(left_hand, clampgripper, shaft1)</text>
</g>
<!-- sequence:
 insert_shaft1_into_gearbase_hole1&#45;&gt;selector:
 pick_up(left_hand, clampgripper, shaft1) -->
<g id="edge15" class="edge">
<title>sequence:
 insert_shaft1_into_gearbase_hole1&#45;&gt;selector:
 pick_up(left_hand, clampgripper, shaft1)</title>
<path fill="none" stroke="black" d="M2627.5,-327.14C2683.08,-313.83 2754.24,-296.78 2817.14,-281.72"/>
<polygon fill="black" stroke="black" points="2818.26,-285.05 2827.17,-279.32 2816.63,-278.24 2818.26,-285.05"/>
</g>
<!-- selector:
 insert(left_hand, clampgripper, shaft1, gearbase_hole1) -->
<g id="node22" class="node">
<title>selector:
 insert(left_hand, clampgripper, shaft1, gearbase_hole1)</title>
<polygon fill="#8deeee" stroke="black" points="4440.43,-229.19 4440.43,-259.82 4205.47,-281.48 3873.18,-281.48 3638.22,-259.82 3638.22,-229.19 3873.18,-207.53 4205.47,-207.53 4440.43,-229.19"/>
<text text-anchor="middle" x="4039.32" y="-250.1" font-family="Times,serif" font-size="18.00">selector:</text>
<text text-anchor="middle" x="4039.32" y="-230.1" font-family="Times,serif" font-size="18.00"> insert(left_hand, clampgripper, shaft1, gearbase_hole1)</text>
</g>
<!-- sequence:
 insert_shaft1_into_gearbase_hole1&#45;&gt;selector:
 insert(left_hand, clampgripper, shaft1, gearbase_hole1) -->
<g id="edge21" class="edge">
<title>sequence:
 insert_shaft1_into_gearbase_hole1&#45;&gt;selector:
 insert(left_hand, clampgripper, shaft1, gearbase_hole1)</title>
<path fill="none" stroke="black" d="M2698.47,-338.58C2942.08,-321.67 3399.58,-289.91 3711.76,-268.24"/>
<polygon fill="black" stroke="black" points="3712.15,-271.72 3721.88,-267.54 3711.66,-264.74 3712.15,-271.72"/>
</g>
<!-- target:
 is_empty(outwardgripper) -->
<g id="node5" class="node">
<title>target:
 is_empty(outwardgripper)</title>
<ellipse fill="#ffec8b" stroke="black" cx="501.32" cy="-137.82" rx="183.28" ry="33.88"/>
<text text-anchor="middle" x="501.32" y="-143.42" font-family="Times,serif" font-size="18.00">target:</text>
<text text-anchor="middle" x="501.32" y="-123.42" font-family="Times,serif" font-size="18.00"> is_empty(outwardgripper)</text>
</g>
<!-- selector:
 put_down(left_hand, outwardgripper, gear2)&#45;&gt;target:
 is_empty(outwardgripper) -->
<g id="edge4" class="edge">
<title>selector:
 put_down(left_hand, outwardgripper, gear2)&#45;&gt;target:
 is_empty(outwardgripper)</title>
<path fill="none" stroke="black" d="M774.79,-208.14C723.33,-195.09 665.64,-180.47 616.56,-168.03"/>
<polygon fill="black" stroke="black" points="617.42,-164.64 606.86,-165.57 615.7,-171.42 617.42,-164.64"/>
</g>
<!-- sequence:
 put_down(left_hand, outwardgripper, gear2) -->
<g id="node6" class="node">
<title>sequence:
 put_down(left_hand, outwardgripper, gear2)</title>
<polygon fill="#ff7f24" stroke="black" points="1125.82,-161.82 702.82,-161.82 702.82,-113.82 1125.82,-113.82 1125.82,-161.82"/>
<text text-anchor="middle" x="914.32" y="-143.42" font-family="Times,serif" font-size="18.00">sequence:</text>
<text text-anchor="middle" x="914.32" y="-123.42" font-family="Times,serif" font-size="18.00"> put_down(left_hand, outwardgripper, gear2)</text>
</g>
<!-- selector:
 put_down(left_hand, outwardgripper, gear2)&#45;&gt;sequence:
 put_down(left_hand, outwardgripper, gear2) -->
<g id="edge5" class="edge">
<title>selector:
 put_down(left_hand, outwardgripper, gear2)&#45;&gt;sequence:
 put_down(left_hand, outwardgripper, gear2)</title>
<path fill="none" stroke="black" d="M914.32,-207.48C914.32,-196.09 914.32,-183.57 914.32,-172.36"/>
<polygon fill="black" stroke="black" points="917.82,-172.11 914.32,-162.11 910.82,-172.11 917.82,-172.11"/>
</g>
<!-- precondition:
 hold(left_hand, outwardgripper) -->
<g id="node7" class="node">
<title>precondition:
 hold(left_hand, outwardgripper)</title>
<ellipse fill="#ffec8b" stroke="black" cx="221.32" cy="-33.94" rx="221.15" ry="33.88"/>
<text text-anchor="middle" x="221.32" y="-39.54" font-family="Times,serif" font-size="18.00">precondition:</text>
<text text-anchor="middle" x="221.32" y="-19.54" font-family="Times,serif" font-size="18.00"> hold(left_hand, outwardgripper)</text>
</g>
<!-- sequence:
 put_down(left_hand, outwardgripper, gear2)&#45;&gt;precondition:
 hold(left_hand, outwardgripper) -->
<g id="edge6" class="edge">
<title>sequence:
 put_down(left_hand, outwardgripper, gear2)&#45;&gt;precondition:
 hold(left_hand, outwardgripper)</title>
<path fill="none" stroke="black" d="M760.37,-113.82C737.88,-110.47 715.01,-107.08 693.32,-103.88 592.35,-88.98 479.19,-72.45 388.99,-59.31"/>
<polygon fill="black" stroke="black" points="389.34,-55.82 378.94,-57.85 388.33,-62.75 389.34,-55.82"/>
</g>
<!-- precondition:
 hold(outwardgripper, gear2) -->
<g id="node8" class="node">
<title>precondition:
 hold(outwardgripper, gear2)</title>
<ellipse fill="#ffec8b" stroke="black" cx="657.32" cy="-33.94" rx="196.65" ry="33.88"/>
<text text-anchor="middle" x="657.32" y="-39.54" font-family="Times,serif" font-size="18.00">precondition:</text>
<text text-anchor="middle" x="657.32" y="-19.54" font-family="Times,serif" font-size="18.00"> hold(outwardgripper, gear2)</text>
</g>
<!-- sequence:
 put_down(left_hand, outwardgripper, gear2)&#45;&gt;precondition:
 hold(outwardgripper, gear2) -->
<g id="edge7" class="edge">
<title>sequence:
 put_down(left_hand, outwardgripper, gear2)&#45;&gt;precondition:
 hold(outwardgripper, gear2)</title>
<path fill="none" stroke="black" d="M856.01,-113.7C822.69,-100.5 780.3,-83.69 743.24,-69"/>
<polygon fill="black" stroke="black" points="744.53,-65.75 733.94,-65.32 741.95,-72.25 744.53,-65.75"/>
</g>
<!-- action:
 put_down(left_hand, outwardgripper, gear2) -->
<g id="node9" class="node">
<title>action:
 put_down(left_hand, outwardgripper, gear2)</title>
<ellipse fill="lightgreen" stroke="black" cx="1171.32" cy="-33.94" rx="299.21" ry="33.88"/>
<text text-anchor="middle" x="1171.32" y="-39.54" font-family="Times,serif" font-size="18.00">action:</text>
<text text-anchor="middle" x="1171.32" y="-19.54" font-family="Times,serif" font-size="18.00"> put_down(left_hand, outwardgripper, gear2)</text>
</g>
<!-- sequence:
 put_down(left_hand, outwardgripper, gear2)&#45;&gt;action:
 put_down(left_hand, outwardgripper, gear2) -->
<g id="edge8" class="edge">
<title>sequence:
 put_down(left_hand, outwardgripper, gear2)&#45;&gt;action:
 put_down(left_hand, outwardgripper, gear2)</title>
<path fill="none" stroke="black" d="M972.64,-113.7C1004.86,-100.93 1045.57,-84.79 1081.74,-70.45"/>
<polygon fill="black" stroke="black" points="1083.31,-73.6 1091.32,-66.66 1080.73,-67.09 1083.31,-73.6"/>
</g>
<!-- target:
 hold(left_hand, clampgripper) -->
<g id="node11" class="node">
<title>target:
 hold(left_hand, clampgripper)</title>
<ellipse fill="#ffec8b" stroke="black" cx="1684.32" cy="-137.82" rx="207.36" ry="33.88"/>
<text text-anchor="middle" x="1684.32" y="-143.42" font-family="Times,serif" font-size="18.00">target:</text>
<text text-anchor="middle" x="1684.32" y="-123.42" font-family="Times,serif" font-size="18.00"> hold(left_hand, clampgripper)</text>
</g>
<!-- selector:
 change_tool(left_hand, outwardgripper, clampgripper)&#45;&gt;target:
 hold(left_hand, clampgripper) -->
<g id="edge10" class="edge">
<title>selector:
 change_tool(left_hand, outwardgripper, clampgripper)&#45;&gt;target:
 hold(left_hand, clampgripper)</title>
<path fill="none" stroke="black" d="M2001.46,-207.7C1941.03,-194.57 1873.47,-179.9 1816.3,-167.48"/>
<polygon fill="black" stroke="black" points="1817,-164.06 1806.48,-165.35 1815.51,-170.9 1817,-164.06"/>
</g>
<!-- sequence:
 change_tool(left_hand, outwardgripper, clampgripper) -->
<g id="node12" class="node">
<title>sequence:
 change_tool(left_hand, outwardgripper, clampgripper)</title>
<polygon fill="#ff7f24" stroke="black" points="2422.82,-161.82 1909.82,-161.82 1909.82,-113.82 2422.82,-113.82 2422.82,-161.82"/>
<text text-anchor="middle" x="2166.32" y="-143.42" font-family="Times,serif" font-size="18.00">sequence:</text>
<text text-anchor="middle" x="2166.32" y="-123.42" font-family="Times,serif" font-size="18.00"> change_tool(left_hand, outwardgripper, clampgripper)</text>
</g>
<!-- selector:
 change_tool(left_hand, outwardgripper, clampgripper)&#45;&gt;sequence:
 change_tool(left_hand, outwardgripper, clampgripper) -->
<g id="edge11" class="edge">
<title>selector:
 change_tool(left_hand, outwardgripper, clampgripper)&#45;&gt;sequence:
 change_tool(left_hand, outwardgripper, clampgripper)</title>
<path fill="none" stroke="black" d="M2166.32,-207.48C2166.32,-196.09 2166.32,-183.57 2166.32,-172.36"/>
<polygon fill="black" stroke="black" points="2169.82,-172.11 2166.32,-162.11 2162.82,-172.11 2169.82,-172.11"/>
</g>
<!-- &quot;precondition:\n hold(left_hand, outwardgripper)&quot;* -->
<g id="node13" class="node">
<title>&quot;precondition:\n hold(left_hand, outwardgripper)&quot;*</title>
<ellipse fill="#ffec8b" stroke="black" cx="1721.32" cy="-33.94" rx="233.19" ry="33.88"/>
<text text-anchor="middle" x="1721.32" y="-39.54" font-family="Times,serif" font-size="18.00">&quot;precondition:</text>
<text text-anchor="middle" x="1721.32" y="-19.54" font-family="Times,serif" font-size="18.00"> hold(left_hand, outwardgripper)&quot;*</text>
</g>
<!-- sequence:
 change_tool(left_hand, outwardgripper, clampgripper)&#45;&gt;&quot;precondition:\n hold(left_hand, outwardgripper)&quot;* -->
<g id="edge12" class="edge">
<title>sequence:
 change_tool(left_hand, outwardgripper, clampgripper)&#45;&gt;&quot;precondition:\n hold(left_hand, outwardgripper)&quot;*</title>
<path fill="none" stroke="black" d="M2065.63,-113.77C2002.82,-99.39 1921.3,-80.73 1853.36,-65.17"/>
<polygon fill="black" stroke="black" points="1853.96,-61.72 1843.43,-62.9 1852.4,-68.54 1853.96,-61.72"/>
</g>
<!-- precondition:
 is_empty(outwardgripper) -->
<g id="node14" class="node">
<title>precondition:
 is_empty(outwardgripper)</title>
<ellipse fill="#ffec8b" stroke="black" cx="2155.32" cy="-33.94" rx="183.28" ry="33.88"/>
<text text-anchor="middle" x="2155.32" y="-39.54" font-family="Times,serif" font-size="18.00">precondition:</text>
<text text-anchor="middle" x="2155.32" y="-19.54" font-family="Times,serif" font-size="18.00"> is_empty(outwardgripper)</text>
</g>
<!-- sequence:
 change_tool(left_hand, outwardgripper, clampgripper)&#45;&gt;precondition:
 is_empty(outwardgripper) -->
<g id="edge13" class="edge">
<title>sequence:
 change_tool(left_hand, outwardgripper, clampgripper)&#45;&gt;precondition:
 is_empty(outwardgripper)</title>
<path fill="none" stroke="black" d="M2163.83,-113.7C2162.69,-103.16 2161.3,-90.31 2159.98,-78.08"/>
<polygon fill="black" stroke="black" points="2163.45,-77.58 2158.9,-68.01 2156.49,-78.33 2163.45,-77.58"/>
</g>
<!-- action:
 change_tool(left_hand, outwardgripper, clampgripper) -->
<g id="node15" class="node">
<title>action:
 change_tool(left_hand, outwardgripper, clampgripper)</title>
<ellipse fill="lightgreen" stroke="black" cx="2719.32" cy="-33.94" rx="362.99" ry="33.88"/>
<text text-anchor="middle" x="2719.32" y="-39.54" font-family="Times,serif" font-size="18.00">action:</text>
<text text-anchor="middle" x="2719.32" y="-19.54" font-family="Times,serif" font-size="18.00"> change_tool(left_hand, outwardgripper, clampgripper)</text>
</g>
<!-- sequence:
 change_tool(left_hand, outwardgripper, clampgripper)&#45;&gt;action:
 change_tool(left_hand, outwardgripper, clampgripper) -->
<g id="edge14" class="edge">
<title>sequence:
 change_tool(left_hand, outwardgripper, clampgripper)&#45;&gt;action:
 change_tool(left_hand, outwardgripper, clampgripper)</title>
<path fill="none" stroke="black" d="M2291.46,-113.77C2367.62,-99.74 2465.93,-81.63 2549.1,-66.3"/>
<polygon fill="black" stroke="black" points="2549.96,-69.7 2559.16,-64.45 2548.7,-62.82 2549.96,-69.7"/>
</g>
<!-- target:
 hold(clampgripper, shaft1) -->
<g id="node17" class="node">
<title>target:
 hold(clampgripper, shaft1)</title>
<ellipse fill="#ffec8b" stroke="black" cx="2968.32" cy="-137.82" rx="185.94" ry="33.88"/>
<text text-anchor="middle" x="2968.32" y="-143.42" font-family="Times,serif" font-size="18.00">target:</text>
<text text-anchor="middle" x="2968.32" y="-123.42" font-family="Times,serif" font-size="18.00"> hold(clampgripper, shaft1)</text>
</g>
<!-- selector:
 pick_up(left_hand, clampgripper, shaft1)&#45;&gt;target:
 hold(clampgripper, shaft1) -->
<g id="edge16" class="edge">
<title>selector:
 pick_up(left_hand, clampgripper, shaft1)&#45;&gt;target:
 hold(clampgripper, shaft1)</title>
<path fill="none" stroke="black" d="M2968.32,-207.48C2968.32,-199.32 2968.32,-190.58 2968.32,-182.15"/>
<polygon fill="black" stroke="black" points="2971.82,-182.1 2968.32,-172.1 2964.82,-182.1 2971.82,-182.1"/>
</g>
<!-- sequence:
 pick_up(left_hand, clampgripper, shaft1) -->
<g id="node18" class="node">
<title>sequence:
 pick_up(left_hand, clampgripper, shaft1)</title>
<polygon fill="#ff7f24" stroke="black" points="3583.82,-161.82 3194.82,-161.82 3194.82,-113.82 3583.82,-113.82 3583.82,-161.82"/>
<text text-anchor="middle" x="3389.32" y="-143.42" font-family="Times,serif" font-size="18.00">sequence:</text>
<text text-anchor="middle" x="3389.32" y="-123.42" font-family="Times,serif" font-size="18.00"> pick_up(left_hand, clampgripper, shaft1)</text>
</g>
<!-- selector:
 pick_up(left_hand, clampgripper, shaft1)&#45;&gt;sequence:
 pick_up(left_hand, clampgripper, shaft1) -->
<g id="edge17" class="edge">
<title>selector:
 pick_up(left_hand, clampgripper, shaft1)&#45;&gt;sequence:
 pick_up(left_hand, clampgripper, shaft1)</title>
<path fill="none" stroke="black" d="M3106.18,-209.23C3164.99,-194.6 3232.42,-177.84 3286.72,-164.34"/>
<polygon fill="black" stroke="black" points="3287.84,-167.66 3296.7,-161.85 3286.15,-160.87 3287.84,-167.66"/>
</g>
<!-- precondition:
 hold(left_hand, clampgripper) -->
<g id="node19" class="node">
<title>precondition:
 hold(left_hand, clampgripper)</title>
<ellipse fill="#ffec8b" stroke="black" cx="3307.32" cy="-33.94" rx="207.36" ry="33.88"/>
<text text-anchor="middle" x="3307.32" y="-39.54" font-family="Times,serif" font-size="18.00">precondition:</text>
<text text-anchor="middle" x="3307.32" y="-19.54" font-family="Times,serif" font-size="18.00"> hold(left_hand, clampgripper)</text>
</g>
<!-- sequence:
 pick_up(left_hand, clampgripper, shaft1)&#45;&gt;precondition:
 hold(left_hand, clampgripper) -->
<g id="edge18" class="edge">
<title>sequence:
 pick_up(left_hand, clampgripper, shaft1)&#45;&gt;precondition:
 hold(left_hand, clampgripper)</title>
<path fill="none" stroke="black" d="M3370.72,-113.7C3361.64,-102.43 3350.45,-88.52 3340.01,-75.55"/>
<polygon fill="black" stroke="black" points="3342.63,-73.22 3333.63,-67.62 3337.17,-77.61 3342.63,-73.22"/>
</g>
<!-- precondition:
 is_empty(clampgripper) -->
<g id="node20" class="node">
<title>precondition:
 is_empty(clampgripper)</title>
<ellipse fill="#ffec8b" stroke="black" cx="3701.32" cy="-33.94" rx="169" ry="33.88"/>
<text text-anchor="middle" x="3701.32" y="-39.54" font-family="Times,serif" font-size="18.00">precondition:</text>
<text text-anchor="middle" x="3701.32" y="-19.54" font-family="Times,serif" font-size="18.00"> is_empty(clampgripper)</text>
</g>
<!-- sequence:
 pick_up(left_hand, clampgripper, shaft1)&#45;&gt;precondition:
 is_empty(clampgripper) -->
<g id="edge19" class="edge">
<title>sequence:
 pick_up(left_hand, clampgripper, shaft1)&#45;&gt;precondition:
 is_empty(clampgripper)</title>
<path fill="none" stroke="black" d="M3460.12,-113.7C3503.1,-99.67 3558.52,-81.57 3605.4,-66.27"/>
<polygon fill="black" stroke="black" points="3606.54,-69.58 3614.96,-63.14 3604.36,-62.92 3606.54,-69.58"/>
</g>
<!-- action:
 pick_up(left_hand, clampgripper, shaft1) -->
<g id="node21" class="node">
<title>action:
 pick_up(left_hand, clampgripper, shaft1)</title>
<ellipse fill="lightgreen" stroke="black" cx="4163.32" cy="-33.94" rx="275.13" ry="33.88"/>
<text text-anchor="middle" x="4163.32" y="-39.54" font-family="Times,serif" font-size="18.00">action:</text>
<text text-anchor="middle" x="4163.32" y="-19.54" font-family="Times,serif" font-size="18.00"> pick_up(left_hand, clampgripper, shaft1)</text>
</g>
<!-- sequence:
 pick_up(left_hand, clampgripper, shaft1)&#45;&gt;action:
 pick_up(left_hand, clampgripper, shaft1) -->
<g id="edge20" class="edge">
<title>sequence:
 pick_up(left_hand, clampgripper, shaft1)&#45;&gt;action:
 pick_up(left_hand, clampgripper, shaft1)</title>
<path fill="none" stroke="black" d="M3564.47,-113.77C3684.85,-97.92 3844.76,-76.87 3969.05,-60.51"/>
<polygon fill="black" stroke="black" points="3969.61,-63.97 3979.07,-59.19 3968.7,-57.03 3969.61,-63.97"/>
</g>
<!-- &quot;target:\n is_inserted_to(shaft1, gearbase_hole1)&quot;* -->
<g id="node23" class="node">
<title>&quot;target:\n is_inserted_to(shaft1, gearbase_hole1)&quot;*</title>
<ellipse fill="#ffec8b" stroke="black" cx="4039.32" cy="-137.82" rx="273.8" ry="33.88"/>
<text text-anchor="middle" x="4039.32" y="-143.42" font-family="Times,serif" font-size="18.00">&quot;target:</text>
<text text-anchor="middle" x="4039.32" y="-123.42" font-family="Times,serif" font-size="18.00"> is_inserted_to(shaft1, gearbase_hole1)&quot;*</text>
</g>
<!-- selector:
 insert(left_hand, clampgripper, shaft1, gearbase_hole1)&#45;&gt;&quot;target:\n is_inserted_to(shaft1, gearbase_hole1)&quot;* -->
<g id="edge22" class="edge">
<title>selector:
 insert(left_hand, clampgripper, shaft1, gearbase_hole1)&#45;&gt;&quot;target:\n is_inserted_to(shaft1, gearbase_hole1)&quot;*</title>
<path fill="none" stroke="black" d="M4039.32,-207.48C4039.32,-199.32 4039.32,-190.58 4039.32,-182.15"/>
<polygon fill="black" stroke="black" points="4042.82,-182.1 4039.32,-172.1 4035.82,-182.1 4042.82,-182.1"/>
</g>
<!-- sequence:
 insert(left_hand, clampgripper, shaft1, gearbase_hole1) -->
<g id="node24" class="node">
<title>sequence:
 insert(left_hand, clampgripper, shaft1, gearbase_hole1)</title>
<polygon fill="#ff7f24" stroke="black" points="5148.32,-161.82 4624.32,-161.82 4624.32,-113.82 5148.32,-113.82 5148.32,-161.82"/>
<text text-anchor="middle" x="4886.32" y="-143.42" font-family="Times,serif" font-size="18.00">sequence:</text>
<text text-anchor="middle" x="4886.32" y="-123.42" font-family="Times,serif" font-size="18.00"> insert(left_hand, clampgripper, shaft1, gearbase_hole1)</text>
</g>
<!-- selector:
 insert(left_hand, clampgripper, shaft1, gearbase_hole1)&#45;&gt;sequence:
 insert(left_hand, clampgripper, shaft1, gearbase_hole1) -->
<g id="edge23" class="edge">
<title>selector:
 insert(left_hand, clampgripper, shaft1, gearbase_hole1)&#45;&gt;sequence:
 insert(left_hand, clampgripper, shaft1, gearbase_hole1)</title>
<path fill="none" stroke="black" d="M4277.23,-214.1C4407.4,-198.01 4566.74,-178.32 4689.79,-163.11"/>
<polygon fill="black" stroke="black" points="4690.58,-166.54 4700.08,-161.84 4689.72,-159.59 4690.58,-166.54"/>
</g>
<!-- &quot;precondition:\n hold(left_hand, clampgripper)&quot;* -->
<g id="node25" class="node">
<title>&quot;precondition:\n hold(left_hand, clampgripper)&quot;*</title>
<ellipse fill="#ffec8b" stroke="black" cx="4675.32" cy="-33.94" rx="219.41" ry="33.88"/>
<text text-anchor="middle" x="4675.32" y="-39.54" font-family="Times,serif" font-size="18.00">&quot;precondition:</text>
<text text-anchor="middle" x="4675.32" y="-19.54" font-family="Times,serif" font-size="18.00"> hold(left_hand, clampgripper)&quot;*</text>
</g>
<!-- sequence:
 insert(left_hand, clampgripper, shaft1, gearbase_hole1)&#45;&gt;&quot;precondition:\n hold(left_hand, clampgripper)&quot;* -->
<g id="edge24" class="edge">
<title>sequence:
 insert(left_hand, clampgripper, shaft1, gearbase_hole1)&#45;&gt;&quot;precondition:\n hold(left_hand, clampgripper)&quot;*</title>
<path fill="none" stroke="black" d="M4838.45,-113.7C4812.22,-101.04 4779.14,-85.07 4749.64,-70.82"/>
<polygon fill="black" stroke="black" points="4751.14,-67.66 4740.61,-66.46 4748.09,-73.96 4751.14,-67.66"/>
</g>
<!-- precondition:
 hold(clampgripper, shaft1) -->
<g id="node26" class="node">
<title>precondition:
 hold(clampgripper, shaft1)</title>
<ellipse fill="#ffec8b" stroke="black" cx="5098.32" cy="-33.94" rx="185.94" ry="33.88"/>
<text text-anchor="middle" x="5098.32" y="-39.54" font-family="Times,serif" font-size="18.00">precondition:</text>
<text text-anchor="middle" x="5098.32" y="-19.54" font-family="Times,serif" font-size="18.00"> hold(clampgripper, shaft1)</text>
</g>
<!-- sequence:
 insert(left_hand, clampgripper, shaft1, gearbase_hole1)&#45;&gt;precondition:
 hold(clampgripper, shaft1) -->
<g id="edge25" class="edge">
<title>sequence:
 insert(left_hand, clampgripper, shaft1, gearbase_hole1)&#45;&gt;precondition:
 hold(clampgripper, shaft1)</title>
<path fill="none" stroke="black" d="M4934.43,-113.7C4961.11,-100.88 4994.85,-84.67 5024.78,-70.29"/>
<polygon fill="black" stroke="black" points="5026.43,-73.37 5033.93,-65.89 5023.4,-67.07 5026.43,-73.37"/>
</g>
<!-- action:
 insert(left_hand, clampgripper, shaft1, gearbase_hole1) -->
<g id="node27" class="node">
<title>action:
 insert(left_hand, clampgripper, shaft1, gearbase_hole1)</title>
<ellipse fill="lightgreen" stroke="black" cx="5672.32" cy="-33.94" rx="370.55" ry="33.88"/>
<text text-anchor="middle" x="5672.32" y="-39.54" font-family="Times,serif" font-size="18.00">action:</text>
<text text-anchor="middle" x="5672.32" y="-19.54" font-family="Times,serif" font-size="18.00"> insert(left_hand, clampgripper, shaft1, gearbase_hole1)</text>
</g>
<!-- sequence:
 insert(left_hand, clampgripper, shaft1, gearbase_hole1)&#45;&gt;action:
 insert(left_hand, clampgripper, shaft1, gearbase_hole1) -->
<g id="edge26" class="edge">
<title>sequence:
 insert(left_hand, clampgripper, shaft1, gearbase_hole1)&#45;&gt;action:
 insert(left_hand, clampgripper, shaft1, gearbase_hole1)</title>
<path fill="none" stroke="black" d="M5064.19,-113.77C5179.48,-98.82 5330.48,-79.25 5453.17,-63.35"/>
<polygon fill="black" stroke="black" points="5453.99,-66.77 5463.45,-62.02 5453.09,-59.83 5453.99,-66.77"/>
</g>
</g>
</svg>
