<?xml version="1.0" encoding="UTF-8" standalone="no"?>
<!DOCTYPE svg PUBLIC "-//W3C//DTD SVG 1.1//EN"
 "http://www.w3.org/Graphics/SVG/1.1/DTD/svg11.dtd">
<!-- Generated by graphviz version 2.43.0 (0)
 -->
<!-- Title: pastafarianism Pages: 1 -->
<svg width="4539pt" height="503pt"
 viewBox="0.00 0.00 4538.85 502.60" xmlns="http://www.w3.org/2000/svg" xmlns:xlink="http://www.w3.org/1999/xlink">
<g id="graph0" class="graph" transform="scale(1 1) rotate(0) translate(4 498.6)">
<title>pastafarianism</title>
<polygon fill="white" stroke="transparent" points="-4,4 -4,-498.6 4534.85,-498.6 4534.85,4 -4,4"/>
<!-- selector:
 insert_shaft1_into_gearbase_hole1 -->
<g id="node1" class="node">
<title>selector:
 insert_shaft1_into_gearbase_hole1</title>
<polygon fill="#8deeee" stroke="black" points="1940.09,-442.54 1940.09,-473.18 1790.27,-494.84 1578.38,-494.84 1428.56,-473.18 1428.56,-442.54 1578.38,-420.88 1790.27,-420.88 1940.09,-442.54"/>
<text text-anchor="middle" x="1684.32" y="-463.46" font-family="Times,serif" font-size="18.00">selector:</text>
<text text-anchor="middle" x="1684.32" y="-443.46" font-family="Times,serif" font-size="18.00"> insert_shaft1_into_gearbase_hole1</text>
</g>
<!-- target:
 is_inserted_to(shaft1, gearbase_hole1) -->
<g id="node2" class="node">
<title>target:
 is_inserted_to(shaft1, gearbase_hole1)</title>
<ellipse fill="#ffec8b" stroke="black" cx="1461.32" cy="-351.18" rx="261.76" ry="33.88"/>
<text text-anchor="middle" x="1461.32" y="-356.78" font-family="Times,serif" font-size="18.00">target:</text>
<text text-anchor="middle" x="1461.32" y="-336.78" font-family="Times,serif" font-size="18.00"> is_inserted_to(shaft1, gearbase_hole1)</text>
</g>
<!-- selector:
 insert_shaft1_into_gearbase_hole1&#45;&gt;target:
 is_inserted_to(shaft1, gearbase_hole1) -->
<g id="edge1" class="edge">
<title>selector:
 insert_shaft1_into_gearbase_hole1&#45;&gt;target:
 is_inserted_to(shaft1, gearbase_hole1)</title>
<path fill="none" stroke="black" d="M1607.89,-420.98C1585.4,-410.42 1560.78,-398.87 1538.26,-388.29"/>
<polygon fill="black" stroke="black" points="1539.61,-385.06 1529.07,-383.98 1536.64,-391.4 1539.61,-385.06"/>
</g>
<!-- sequence:
 insert_shaft1_into_gearbase_hole1 -->
<g id="node3" class="node">
<title>sequence:
 insert_shaft1_into_gearbase_hole1</title>
<polygon fill="#ff7f24" stroke="black" points="2075.32,-375.18 1741.32,-375.18 1741.32,-327.18 2075.32,-327.18 2075.32,-375.18"/>
<text text-anchor="middle" x="1908.32" y="-356.78" font-family="Times,serif" font-size="18.00">sequence:</text>
<text text-anchor="middle" x="1908.32" y="-336.78" font-family="Times,serif" font-size="18.00"> insert_shaft1_into_gearbase_hole1</text>
</g>
<!-- selector:
 insert_shaft1_into_gearbase_hole1&#45;&gt;sequence:
 insert_shaft1_into_gearbase_hole1 -->
<g id="edge2" class="edge">
<title>selector:
 insert_shaft1_into_gearbase_hole1&#45;&gt;sequence:
 insert_shaft1_into_gearbase_hole1</title>
<path fill="none" stroke="black" d="M1761.1,-420.98C1790.1,-407.43 1822.61,-392.24 1849.69,-379.58"/>
<polygon fill="black" stroke="black" points="1851.45,-382.62 1859.03,-375.22 1848.49,-376.28 1851.45,-382.62"/>
</g>
<!-- selector:
 change_tool(left_hand, outwardgripper, clampgripper) -->
<g id="node4" class="node">
<title>selector:
 change_tool(left_hand, outwardgripper, clampgripper)</title>
<polygon fill="#8deeee" stroke="black" points="1483.09,-229.19 1483.09,-259.82 1253.01,-281.48 927.64,-281.48 697.56,-259.82 697.56,-229.19 927.64,-207.53 1253.01,-207.53 1483.09,-229.19"/>
<text text-anchor="middle" x="1090.32" y="-250.1" font-family="Times,serif" font-size="18.00">selector:</text>
<text text-anchor="middle" x="1090.32" y="-230.1" font-family="Times,serif" font-size="18.00"> change_tool(left_hand, outwardgripper, clampgripper)</text>
</g>
<!-- sequence:
 insert_shaft1_into_gearbase_hole1&#45;&gt;selector:
 change_tool(left_hand, outwardgripper, clampgripper) -->
<g id="edge3" class="edge">
<title>sequence:
 insert_shaft1_into_gearbase_hole1&#45;&gt;selector:
 change_tool(left_hand, outwardgripper, clampgripper)</title>
<path fill="none" stroke="black" d="M1792.08,-327.17C1772.19,-323.59 1751.69,-320.13 1732.32,-317.24 1614.56,-299.66 1484.05,-284.33 1371.62,-272.4"/>
<polygon fill="black" stroke="black" points="1371.81,-268.9 1361.49,-271.32 1371.07,-275.86 1371.81,-268.9"/>
</g>
<!-- selector:
 pick_up(left_hand, clampgripper, shaft1) -->
<g id="node10" class="node">
<title>selector:
 pick_up(left_hand, clampgripper, shaft1)</title>
<polygon fill="#8deeee" stroke="black" points="2206.28,-229.19 2206.28,-259.82 2031.74,-281.48 1784.91,-281.48 1610.37,-259.82 1610.37,-229.19 1784.91,-207.53 2031.74,-207.53 2206.28,-229.19"/>
<text text-anchor="middle" x="1908.32" y="-250.1" font-family="Times,serif" font-size="18.00">selector:</text>
<text text-anchor="middle" x="1908.32" y="-230.1" font-family="Times,serif" font-size="18.00"> pick_up(left_hand, clampgripper, shaft1)</text>
</g>
<!-- sequence:
 insert_shaft1_into_gearbase_hole1&#45;&gt;selector:
 pick_up(left_hand, clampgripper, shaft1) -->
<g id="edge9" class="edge">
<title>sequence:
 insert_shaft1_into_gearbase_hole1&#45;&gt;selector:
 pick_up(left_hand, clampgripper, shaft1)</title>
<path fill="none" stroke="black" d="M1908.32,-326.95C1908.32,-316.5 1908.32,-303.79 1908.32,-291.54"/>
<polygon fill="black" stroke="black" points="1911.82,-291.42 1908.32,-281.42 1904.82,-291.42 1911.82,-291.42"/>
</g>
<!-- selector:
 insert(left_hand, clampgripper, shaft1, gearbase_hole1) -->
<g id="node16" class="node">
<title>selector:
 insert(left_hand, clampgripper, shaft1, gearbase_hole1)</title>
<polygon fill="#8deeee" stroke="black" points="3254.43,-229.19 3254.43,-259.82 3019.47,-281.48 2687.18,-281.48 2452.22,-259.82 2452.22,-229.19 2687.18,-207.53 3019.47,-207.53 3254.43,-229.19"/>
<text text-anchor="middle" x="2853.32" y="-250.1" font-family="Times,serif" font-size="18.00">selector:</text>
<text text-anchor="middle" x="2853.32" y="-230.1" font-family="Times,serif" font-size="18.00"> insert(left_hand, clampgripper, shaft1, gearbase_hole1)</text>
</g>
<!-- sequence:
 insert_shaft1_into_gearbase_hole1&#45;&gt;selector:
 insert(left_hand, clampgripper, shaft1, gearbase_hole1) -->
<g id="edge15" class="edge">
<title>sequence:
 insert_shaft1_into_gearbase_hole1&#45;&gt;selector:
 insert(left_hand, clampgripper, shaft1, gearbase_hole1)</title>
<path fill="none" stroke="black" d="M2075.37,-331.68C2217.87,-315.89 2425.24,-292.92 2590.05,-274.66"/>
<polygon fill="black" stroke="black" points="2590.8,-278.1 2600.35,-273.52 2590.02,-271.15 2590.8,-278.1"/>
</g>
<!-- target:
 hold(left_hand, clampgripper) -->
<g id="node5" class="node">
<title>target:
 hold(left_hand, clampgripper)</title>
<ellipse fill="#ffec8b" stroke="black" cx="608.32" cy="-137.82" rx="207.36" ry="33.88"/>
<text text-anchor="middle" x="608.32" y="-143.42" font-family="Times,serif" font-size="18.00">target:</text>
<text text-anchor="middle" x="608.32" y="-123.42" font-family="Times,serif" font-size="18.00"> hold(left_hand, clampgripper)</text>
</g>
<!-- selector:
 change_tool(left_hand, outwardgripper, clampgripper)&#45;&gt;target:
 hold(left_hand, clampgripper) -->
<g id="edge4" class="edge">
<title>selector:
 change_tool(left_hand, outwardgripper, clampgripper)&#45;&gt;target:
 hold(left_hand, clampgripper)</title>
<path fill="none" stroke="black" d="M925.46,-207.7C865.03,-194.57 797.47,-179.9 740.3,-167.48"/>
<polygon fill="black" stroke="black" points="741,-164.06 730.48,-165.35 739.51,-170.9 741,-164.06"/>
</g>
<!-- sequence:
 change_tool(left_hand, outwardgripper, clampgripper) -->
<g id="node6" class="node">
<title>sequence:
 change_tool(left_hand, outwardgripper, clampgripper)</title>
<polygon fill="#ff7f24" stroke="black" points="1346.82,-161.82 833.82,-161.82 833.82,-113.82 1346.82,-113.82 1346.82,-161.82"/>
<text text-anchor="middle" x="1090.32" y="-143.42" font-family="Times,serif" font-size="18.00">sequence:</text>
<text text-anchor="middle" x="1090.32" y="-123.42" font-family="Times,serif" font-size="18.00"> change_tool(left_hand, outwardgripper, clampgripper)</text>
</g>
<!-- selector:
 change_tool(left_hand, outwardgripper, clampgripper)&#45;&gt;sequence:
 change_tool(left_hand, outwardgripper, clampgripper) -->
<g id="edge5" class="edge">
<title>selector:
 change_tool(left_hand, outwardgripper, clampgripper)&#45;&gt;sequence:
 change_tool(left_hand, outwardgripper, clampgripper)</title>
<path fill="none" stroke="black" d="M1090.32,-207.48C1090.32,-196.09 1090.32,-183.57 1090.32,-172.36"/>
<polygon fill="black" stroke="black" points="1093.82,-172.11 1090.32,-162.11 1086.82,-172.11 1093.82,-172.11"/>
</g>
<!-- precondition:
 hold(left_hand, outwardgripper) -->
<g id="node7" class="node">
<title>precondition:
 hold(left_hand, outwardgripper)</title>
<ellipse fill="#ffec8b" stroke="black" cx="221.32" cy="-33.94" rx="221.15" ry="33.88"/>
<text text-anchor="middle" x="221.32" y="-39.54" font-family="Times,serif" font-size="18.00">precondition:</text>
<text text-anchor="middle" x="221.32" y="-19.54" font-family="Times,serif" font-size="18.00"> hold(left_hand, outwardgripper)</text>
</g>
<!-- sequence:
 change_tool(left_hand, outwardgripper, clampgripper)&#45;&gt;precondition:
 hold(left_hand, outwardgripper) -->
<g id="edge6" class="edge">
<title>sequence:
 change_tool(left_hand, outwardgripper, clampgripper)&#45;&gt;precondition:
 hold(left_hand, outwardgripper)</title>
<path fill="none" stroke="black" d="M909.76,-113.8C881.19,-110.34 851.96,-106.93 824.32,-103.88 658.78,-85.65 616.69,-87.69 451.32,-67.88 430.31,-65.36 408.25,-62.5 386.46,-59.52"/>
<polygon fill="black" stroke="black" points="386.85,-56.05 376.46,-58.15 385.9,-62.98 386.85,-56.05"/>
</g>
<!-- precondition:
 is_empty(outwardgripper) -->
<g id="node8" class="node">
<title>precondition:
 is_empty(outwardgripper)</title>
<ellipse fill="#ffec8b" stroke="black" cx="643.32" cy="-33.94" rx="183.28" ry="33.88"/>
<text text-anchor="middle" x="643.32" y="-39.54" font-family="Times,serif" font-size="18.00">precondition:</text>
<text text-anchor="middle" x="643.32" y="-19.54" font-family="Times,serif" font-size="18.00"> is_empty(outwardgripper)</text>
</g>
<!-- sequence:
 change_tool(left_hand, outwardgripper, clampgripper)&#45;&gt;precondition:
 is_empty(outwardgripper) -->
<g id="edge7" class="edge">
<title>sequence:
 change_tool(left_hand, outwardgripper, clampgripper)&#45;&gt;precondition:
 is_empty(outwardgripper)</title>
<path fill="none" stroke="black" d="M989.17,-113.77C923.01,-98.69 836.16,-78.89 766.05,-62.91"/>
<polygon fill="black" stroke="black" points="766.8,-59.49 756.27,-60.68 765.24,-66.32 766.8,-59.49"/>
</g>
<!-- action:
 change_tool(left_hand, outwardgripper, clampgripper) -->
<g id="node9" class="node">
<title>action:
 change_tool(left_hand, outwardgripper, clampgripper)</title>
<ellipse fill="lightgreen" stroke="black" cx="1207.32" cy="-33.94" rx="362.99" ry="33.88"/>
<text text-anchor="middle" x="1207.32" y="-39.54" font-family="Times,serif" font-size="18.00">action:</text>
<text text-anchor="middle" x="1207.32" y="-19.54" font-family="Times,serif" font-size="18.00"> change_tool(left_hand, outwardgripper, clampgripper)</text>
</g>
<!-- sequence:
 change_tool(left_hand, outwardgripper, clampgripper)&#45;&gt;action:
 change_tool(left_hand, outwardgripper, clampgripper) -->
<g id="edge8" class="edge">
<title>sequence:
 change_tool(left_hand, outwardgripper, clampgripper)&#45;&gt;action:
 change_tool(left_hand, outwardgripper, clampgripper)</title>
<path fill="none" stroke="black" d="M1116.87,-113.7C1130.08,-102.21 1146.42,-87.98 1161.56,-74.79"/>
<polygon fill="black" stroke="black" points="1164.1,-77.22 1169.35,-68.01 1159.51,-71.94 1164.1,-77.22"/>
</g>
<!-- target:
 hold(clampgripper, shaft1) -->
<g id="node11" class="node">
<title>target:
 hold(clampgripper, shaft1)</title>
<ellipse fill="#ffec8b" stroke="black" cx="1791.32" cy="-137.82" rx="185.94" ry="33.88"/>
<text text-anchor="middle" x="1791.32" y="-143.42" font-family="Times,serif" font-size="18.00">target:</text>
<text text-anchor="middle" x="1791.32" y="-123.42" font-family="Times,serif" font-size="18.00"> hold(clampgripper, shaft1)</text>
</g>
<!-- selector:
 pick_up(left_hand, clampgripper, shaft1)&#45;&gt;target:
 hold(clampgripper, shaft1) -->
<g id="edge10" class="edge">
<title>selector:
 pick_up(left_hand, clampgripper, shaft1)&#45;&gt;target:
 hold(clampgripper, shaft1)</title>
<path fill="none" stroke="black" d="M1868.06,-207.48C1857.53,-198.05 1846.12,-187.85 1835.4,-178.26"/>
<polygon fill="black" stroke="black" points="1837.53,-175.46 1827.74,-171.4 1832.86,-180.68 1837.53,-175.46"/>
</g>
<!-- sequence:
 pick_up(left_hand, clampgripper, shaft1) -->
<g id="node12" class="node">
<title>sequence:
 pick_up(left_hand, clampgripper, shaft1)</title>
<polygon fill="#ff7f24" stroke="black" points="2383.82,-161.82 1994.82,-161.82 1994.82,-113.82 2383.82,-113.82 2383.82,-161.82"/>
<text text-anchor="middle" x="2189.32" y="-143.42" font-family="Times,serif" font-size="18.00">sequence:</text>
<text text-anchor="middle" x="2189.32" y="-123.42" font-family="Times,serif" font-size="18.00"> pick_up(left_hand, clampgripper, shaft1)</text>
</g>
<!-- selector:
 pick_up(left_hand, clampgripper, shaft1)&#45;&gt;sequence:
 pick_up(left_hand, clampgripper, shaft1) -->
<g id="edge11" class="edge">
<title>selector:
 pick_up(left_hand, clampgripper, shaft1)&#45;&gt;sequence:
 pick_up(left_hand, clampgripper, shaft1)</title>
<path fill="none" stroke="black" d="M2004.64,-207.62C2041.81,-193.77 2083.58,-178.21 2117.99,-165.4"/>
<polygon fill="black" stroke="black" points="2119.33,-168.63 2127.48,-161.86 2116.89,-162.07 2119.33,-168.63"/>
</g>
<!-- precondition:
 hold(left_hand, clampgripper) -->
<g id="node13" class="node">
<title>precondition:
 hold(left_hand, clampgripper)</title>
<ellipse fill="#ffec8b" stroke="black" cx="1795.32" cy="-33.94" rx="207.36" ry="33.88"/>
<text text-anchor="middle" x="1795.32" y="-39.54" font-family="Times,serif" font-size="18.00">precondition:</text>
<text text-anchor="middle" x="1795.32" y="-19.54" font-family="Times,serif" font-size="18.00"> hold(left_hand, clampgripper)</text>
</g>
<!-- sequence:
 pick_up(left_hand, clampgripper, shaft1)&#45;&gt;precondition:
 hold(left_hand, clampgripper) -->
<g id="edge12" class="edge">
<title>sequence:
 pick_up(left_hand, clampgripper, shaft1)&#45;&gt;precondition:
 hold(left_hand, clampgripper)</title>
<path fill="none" stroke="black" d="M2099.92,-113.7C2044.75,-99.44 1973.35,-80.98 1913.54,-65.51"/>
<polygon fill="black" stroke="black" points="1914.23,-62.07 1903.67,-62.96 1912.47,-68.85 1914.23,-62.07"/>
</g>
<!-- precondition:
 is_empty(clampgripper) -->
<g id="node14" class="node">
<title>precondition:
 is_empty(clampgripper)</title>
<ellipse fill="#ffec8b" stroke="black" cx="2189.32" cy="-33.94" rx="169" ry="33.88"/>
<text text-anchor="middle" x="2189.32" y="-39.54" font-family="Times,serif" font-size="18.00">precondition:</text>
<text text-anchor="middle" x="2189.32" y="-19.54" font-family="Times,serif" font-size="18.00"> is_empty(clampgripper)</text>
</g>
<!-- sequence:
 pick_up(left_hand, clampgripper, shaft1)&#45;&gt;precondition:
 is_empty(clampgripper) -->
<g id="edge13" class="edge">
<title>sequence:
 pick_up(left_hand, clampgripper, shaft1)&#45;&gt;precondition:
 is_empty(clampgripper)</title>
<path fill="none" stroke="black" d="M2189.32,-113.7C2189.32,-103.16 2189.32,-90.31 2189.32,-78.08"/>
<polygon fill="black" stroke="black" points="2192.82,-78.01 2189.32,-68.01 2185.82,-78.01 2192.82,-78.01"/>
</g>
<!-- action:
 pick_up(left_hand, clampgripper, shaft1) -->
<g id="node15" class="node">
<title>action:
 pick_up(left_hand, clampgripper, shaft1)</title>
<ellipse fill="lightgreen" stroke="black" cx="2651.32" cy="-33.94" rx="275.13" ry="33.88"/>
<text text-anchor="middle" x="2651.32" y="-39.54" font-family="Times,serif" font-size="18.00">action:</text>
<text text-anchor="middle" x="2651.32" y="-19.54" font-family="Times,serif" font-size="18.00"> pick_up(left_hand, clampgripper, shaft1)</text>
</g>
<!-- sequence:
 pick_up(left_hand, clampgripper, shaft1)&#45;&gt;action:
 pick_up(left_hand, clampgripper, shaft1) -->
<g id="edge14" class="edge">
<title>sequence:
 pick_up(left_hand, clampgripper, shaft1)&#45;&gt;action:
 pick_up(left_hand, clampgripper, shaft1)</title>
<path fill="none" stroke="black" d="M2293.87,-113.77C2357.8,-99.67 2440.42,-81.45 2510.12,-66.08"/>
<polygon fill="black" stroke="black" points="2511.29,-69.41 2520.3,-63.83 2509.78,-62.57 2511.29,-69.41"/>
</g>
<!-- &quot;target:\n is_inserted_to(shaft1, gearbase_hole1)&quot;* -->
<g id="node17" class="node">
<title>&quot;target:\n is_inserted_to(shaft1, gearbase_hole1)&quot;*</title>
<ellipse fill="#ffec8b" stroke="black" cx="2853.32" cy="-137.82" rx="273.8" ry="33.88"/>
<text text-anchor="middle" x="2853.32" y="-143.42" font-family="Times,serif" font-size="18.00">&quot;target:</text>
<text text-anchor="middle" x="2853.32" y="-123.42" font-family="Times,serif" font-size="18.00"> is_inserted_to(shaft1, gearbase_hole1)&quot;*</text>
</g>
<!-- selector:
 insert(left_hand, clampgripper, shaft1, gearbase_hole1)&#45;&gt;&quot;target:\n is_inserted_to(shaft1, gearbase_hole1)&quot;* -->
<g id="edge16" class="edge">
<title>selector:
 insert(left_hand, clampgripper, shaft1, gearbase_hole1)&#45;&gt;&quot;target:\n is_inserted_to(shaft1, gearbase_hole1)&quot;*</title>
<path fill="none" stroke="black" d="M2853.32,-207.48C2853.32,-199.32 2853.32,-190.58 2853.32,-182.15"/>
<polygon fill="black" stroke="black" points="2856.82,-182.1 2853.32,-172.1 2849.82,-182.1 2856.82,-182.1"/>
</g>
<!-- sequence:
 insert(left_hand, clampgripper, shaft1, gearbase_hole1) -->
<g id="node18" class="node">
<title>sequence:
 insert(left_hand, clampgripper, shaft1, gearbase_hole1)</title>
<polygon fill="#ff7f24" stroke="black" points="3758.32,-161.82 3234.32,-161.82 3234.32,-113.82 3758.32,-113.82 3758.32,-161.82"/>
<text text-anchor="middle" x="3496.32" y="-143.42" font-family="Times,serif" font-size="18.00">sequence:</text>
<text text-anchor="middle" x="3496.32" y="-123.42" font-family="Times,serif" font-size="18.00"> insert(left_hand, clampgripper, shaft1, gearbase_hole1)</text>
</g>
<!-- selector:
 insert(left_hand, clampgripper, shaft1, gearbase_hole1)&#45;&gt;sequence:
 insert(left_hand, clampgripper, shaft1, gearbase_hole1) -->
<g id="edge17" class="edge">
<title>selector:
 insert(left_hand, clampgripper, shaft1, gearbase_hole1)&#45;&gt;sequence:
 insert(left_hand, clampgripper, shaft1, gearbase_hole1)</title>
<path fill="none" stroke="black" d="M3054.57,-210.74C3148.39,-195.47 3258.18,-177.59 3344.84,-163.49"/>
<polygon fill="black" stroke="black" points="3345.44,-166.93 3354.75,-161.87 3344.32,-160.02 3345.44,-166.93"/>
</g>
<!-- &quot;precondition:\n hold(left_hand, clampgripper)&quot;* -->
<g id="node19" class="node">
<title>&quot;precondition:\n hold(left_hand, clampgripper)&quot;*</title>
<ellipse fill="#ffec8b" stroke="black" cx="3163.32" cy="-33.94" rx="219.41" ry="33.88"/>
<text text-anchor="middle" x="3163.32" y="-39.54" font-family="Times,serif" font-size="18.00">&quot;precondition:</text>
<text text-anchor="middle" x="3163.32" y="-19.54" font-family="Times,serif" font-size="18.00"> hold(left_hand, clampgripper)&quot;*</text>
</g>
<!-- sequence:
 insert(left_hand, clampgripper, shaft1, gearbase_hole1)&#45;&gt;&quot;precondition:\n hold(left_hand, clampgripper)&quot;* -->
<g id="edge18" class="edge">
<title>sequence:
 insert(left_hand, clampgripper, shaft1, gearbase_hole1)&#45;&gt;&quot;precondition:\n hold(left_hand, clampgripper)&quot;*</title>
<path fill="none" stroke="black" d="M3420.76,-113.7C3376.06,-100.03 3318.73,-82.49 3269.53,-67.44"/>
<polygon fill="black" stroke="black" points="3270.39,-64.04 3259.81,-64.46 3268.35,-70.73 3270.39,-64.04"/>
</g>
<!-- precondition:
 hold(clampgripper, shaft1) -->
<g id="node20" class="node">
<title>precondition:
 hold(clampgripper, shaft1)</title>
<ellipse fill="#ffec8b" stroke="black" cx="3586.32" cy="-33.94" rx="185.94" ry="33.88"/>
<text text-anchor="middle" x="3586.32" y="-39.54" font-family="Times,serif" font-size="18.00">precondition:</text>
<text text-anchor="middle" x="3586.32" y="-19.54" font-family="Times,serif" font-size="18.00"> hold(clampgripper, shaft1)</text>
</g>
<!-- sequence:
 insert(left_hand, clampgripper, shaft1, gearbase_hole1)&#45;&gt;precondition:
 hold(clampgripper, shaft1) -->
<g id="edge19" class="edge">
<title>sequence:
 insert(left_hand, clampgripper, shaft1, gearbase_hole1)&#45;&gt;precondition:
 hold(clampgripper, shaft1)</title>
<path fill="none" stroke="black" d="M3516.75,-113.7C3526.8,-102.32 3539.23,-88.26 3550.78,-75.18"/>
<polygon fill="black" stroke="black" points="3553.46,-77.44 3557.45,-67.62 3548.21,-72.8 3553.46,-77.44"/>
</g>
<!-- action:
 insert(left_hand, clampgripper, shaft1, gearbase_hole1) -->
<g id="node21" class="node">
<title>action:
 insert(left_hand, clampgripper, shaft1, gearbase_hole1)</title>
<ellipse fill="lightgreen" stroke="black" cx="4160.32" cy="-33.94" rx="370.55" ry="33.88"/>
<text text-anchor="middle" x="4160.32" y="-39.54" font-family="Times,serif" font-size="18.00">action:</text>
<text text-anchor="middle" x="4160.32" y="-19.54" font-family="Times,serif" font-size="18.00"> insert(left_hand, clampgripper, shaft1, gearbase_hole1)</text>
</g>
<!-- sequence:
 insert(left_hand, clampgripper, shaft1, gearbase_hole1)&#45;&gt;action:
 insert(left_hand, clampgripper, shaft1, gearbase_hole1) -->
<g id="edge20" class="edge">
<title>sequence:
 insert(left_hand, clampgripper, shaft1, gearbase_hole1)&#45;&gt;action:
 insert(left_hand, clampgripper, shaft1, gearbase_hole1)</title>
<path fill="none" stroke="black" d="M3646.58,-113.77C3740.81,-99.31 3863.26,-80.52 3964.98,-64.91"/>
<polygon fill="black" stroke="black" points="3965.72,-68.34 3975.08,-63.37 3964.66,-61.42 3965.72,-68.34"/>
</g>
</g>
</svg>
