<?xml version="1.0" encoding="UTF-8" standalone="no"?>
<!DOCTYPE svg PUBLIC "-//W3C//DTD SVG 1.1//EN"
 "http://www.w3.org/Graphics/SVG/1.1/DTD/svg11.dtd">
<!-- Generated by graphviz version 2.43.0 (0)
 -->
<!-- Title: pastafarianism Pages: 1 -->
<svg width="6051pt" height="503pt"
 viewBox="0.00 0.00 6050.85 502.60" xmlns="http://www.w3.org/2000/svg" xmlns:xlink="http://www.w3.org/1999/xlink">
<g id="graph0" class="graph" transform="scale(1 1) rotate(0) translate(4 498.6)">
<title>pastafarianism</title>
<polygon fill="white" stroke="transparent" points="-4,4 -4,-498.6 6046.85,-498.6 6046.85,4 -4,4"/>
<!-- selector:
 insert_shaft1_into_gearbase_hole1 -->
<g id="node1" class="node">
<title>selector:
 insert_shaft1_into_gearbase_hole1</title>
<polygon fill="#8deeee" stroke="black" points="2576.09,-442.54 2576.09,-473.18 2426.27,-494.84 2214.38,-494.84 2064.56,-473.18 2064.56,-442.54 2214.38,-420.88 2426.27,-420.88 2576.09,-442.54"/>
<text text-anchor="middle" x="2320.32" y="-463.46" font-family="Times,serif" font-size="18.00">selector:</text>
<text text-anchor="middle" x="2320.32" y="-443.46" font-family="Times,serif" font-size="18.00"> insert_shaft1_into_gearbase_hole1</text>
</g>
<!-- target:
 is_inserted_to(shaft1, gearbase_hole1) -->
<g id="node2" class="node">
<title>target:
 is_inserted_to(shaft1, gearbase_hole1)</title>
<ellipse fill="#ffec8b" stroke="black" cx="2097.32" cy="-351.18" rx="261.76" ry="33.88"/>
<text text-anchor="middle" x="2097.32" y="-356.78" font-family="Times,serif" font-size="18.00">target:</text>
<text text-anchor="middle" x="2097.32" y="-336.78" font-family="Times,serif" font-size="18.00"> is_inserted_to(shaft1, gearbase_hole1)</text>
</g>
<!-- selector:
 insert_shaft1_into_gearbase_hole1&#45;&gt;target:
 is_inserted_to(shaft1, gearbase_hole1) -->
<g id="edge1" class="edge">
<title>selector:
 insert_shaft1_into_gearbase_hole1&#45;&gt;target:
 is_inserted_to(shaft1, gearbase_hole1)</title>
<path fill="none" stroke="black" d="M2243.89,-420.98C2221.4,-410.42 2196.78,-398.87 2174.26,-388.29"/>
<polygon fill="black" stroke="black" points="2175.61,-385.06 2165.07,-383.98 2172.64,-391.4 2175.61,-385.06"/>
</g>
<!-- sequence:
 insert_shaft1_into_gearbase_hole1 -->
<g id="node3" class="node">
<title>sequence:
 insert_shaft1_into_gearbase_hole1</title>
<polygon fill="#ff7f24" stroke="black" points="2711.32,-375.18 2377.32,-375.18 2377.32,-327.18 2711.32,-327.18 2711.32,-375.18"/>
<text text-anchor="middle" x="2544.32" y="-356.78" font-family="Times,serif" font-size="18.00">sequence:</text>
<text text-anchor="middle" x="2544.32" y="-336.78" font-family="Times,serif" font-size="18.00"> insert_shaft1_into_gearbase_hole1</text>
</g>
<!-- selector:
 insert_shaft1_into_gearbase_hole1&#45;&gt;sequence:
 insert_shaft1_into_gearbase_hole1 -->
<g id="edge2" class="edge">
<title>selector:
 insert_shaft1_into_gearbase_hole1&#45;&gt;sequence:
 insert_shaft1_into_gearbase_hole1</title>
<path fill="none" stroke="black" d="M2397.1,-420.98C2426.1,-407.43 2458.61,-392.24 2485.69,-379.58"/>
<polygon fill="black" stroke="black" points="2487.45,-382.62 2495.03,-375.22 2484.49,-376.28 2487.45,-382.62"/>
</g>
<!-- selector:
 put_down_gear2_with_outwardgripper -->
<g id="node4" class="node">
<title>selector:
 put_down_gear2_with_outwardgripper</title>
<polygon fill="#8deeee" stroke="black" points="1198.23,-229.19 1198.23,-259.82 1031.92,-281.48 796.73,-281.48 630.42,-259.82 630.42,-229.19 796.73,-207.53 1031.92,-207.53 1198.23,-229.19"/>
<text text-anchor="middle" x="914.32" y="-250.1" font-family="Times,serif" font-size="18.00">selector:</text>
<text text-anchor="middle" x="914.32" y="-230.1" font-family="Times,serif" font-size="18.00"> put_down_gear2_with_outwardgripper</text>
</g>
<!-- sequence:
 insert_shaft1_into_gearbase_hole1&#45;&gt;selector:
 put_down_gear2_with_outwardgripper -->
<g id="edge3" class="edge">
<title>sequence:
 insert_shaft1_into_gearbase_hole1&#45;&gt;selector:
 put_down_gear2_with_outwardgripper</title>
<path fill="none" stroke="black" d="M2433.89,-327.14C2412.23,-323.3 2389.63,-319.75 2368.32,-317.24 2256.88,-304.12 1600.31,-274.68 1208.59,-257.88"/>
<polygon fill="black" stroke="black" points="1208.66,-254.38 1198.52,-257.44 1208.36,-261.37 1208.66,-254.38"/>
</g>
<!-- selector:
 change_tool(left_hand, outwardgripper, clampgripper) -->
<g id="node10" class="node">
<title>selector:
 change_tool(left_hand, outwardgripper, clampgripper)</title>
<polygon fill="#8deeee" stroke="black" points="2575.09,-229.19 2575.09,-259.82 2345.01,-281.48 2019.64,-281.48 1789.56,-259.82 1789.56,-229.19 2019.64,-207.53 2345.01,-207.53 2575.09,-229.19"/>
<text text-anchor="middle" x="2182.32" y="-250.1" font-family="Times,serif" font-size="18.00">selector:</text>
<text text-anchor="middle" x="2182.32" y="-230.1" font-family="Times,serif" font-size="18.00"> change_tool(left_hand, outwardgripper, clampgripper)</text>
</g>
<!-- sequence:
 insert_shaft1_into_gearbase_hole1&#45;&gt;selector:
 change_tool(left_hand, outwardgripper, clampgripper) -->
<g id="edge9" class="edge">
<title>sequence:
 insert_shaft1_into_gearbase_hole1&#45;&gt;selector:
 change_tool(left_hand, outwardgripper, clampgripper)</title>
<path fill="none" stroke="black" d="M2464.43,-327.08C2420.9,-314.49 2365.89,-298.58 2316.02,-284.16"/>
<polygon fill="black" stroke="black" points="2316.7,-280.72 2306.12,-281.3 2314.76,-287.44 2316.7,-280.72"/>
</g>
<!-- selector:
 pick_up_shaft1_with_clampgripper -->
<g id="node16" class="node">
<title>selector:
 pick_up_shaft1_with_clampgripper</title>
<polygon fill="#8deeee" stroke="black" points="3227.21,-229.19 3227.21,-259.82 3075.56,-281.48 2861.09,-281.48 2709.44,-259.82 2709.44,-229.19 2861.09,-207.53 3075.56,-207.53 3227.21,-229.19"/>
<text text-anchor="middle" x="2968.32" y="-250.1" font-family="Times,serif" font-size="18.00">selector:</text>
<text text-anchor="middle" x="2968.32" y="-230.1" font-family="Times,serif" font-size="18.00"> pick_up_shaft1_with_clampgripper</text>
</g>
<!-- sequence:
 insert_shaft1_into_gearbase_hole1&#45;&gt;selector:
 pick_up_shaft1_with_clampgripper -->
<g id="edge15" class="edge">
<title>sequence:
 insert_shaft1_into_gearbase_hole1&#45;&gt;selector:
 pick_up_shaft1_with_clampgripper</title>
<path fill="none" stroke="black" d="M2637.64,-327.14C2693.07,-313.46 2764.47,-295.83 2826.73,-280.46"/>
<polygon fill="black" stroke="black" points="2827.77,-283.81 2836.64,-278.01 2826.09,-277.01 2827.77,-283.81"/>
</g>
<!-- selector:
 insert_shaft1_into_gearbase_hole1_with_clampgripper -->
<g id="node22" class="node">
<title>selector:
 insert_shaft1_into_gearbase_hole1_with_clampgripper</title>
<polygon fill="#8deeee" stroke="black" points="4429.62,-229.19 4429.62,-259.82 4199.23,-281.48 3873.42,-281.48 3643.03,-259.82 3643.03,-229.19 3873.42,-207.53 4199.23,-207.53 4429.62,-229.19"/>
<text text-anchor="middle" x="4036.32" y="-250.1" font-family="Times,serif" font-size="18.00">selector:</text>
<text text-anchor="middle" x="4036.32" y="-230.1" font-family="Times,serif" font-size="18.00"> insert_shaft1_into_gearbase_hole1_with_clampgripper</text>
</g>
<!-- sequence:
 insert_shaft1_into_gearbase_hole1&#45;&gt;selector:
 insert_shaft1_into_gearbase_hole1_with_clampgripper -->
<g id="edge21" class="edge">
<title>sequence:
 insert_shaft1_into_gearbase_hole1&#45;&gt;selector:
 insert_shaft1_into_gearbase_hole1_with_clampgripper</title>
<path fill="none" stroke="black" d="M2711.49,-338.45C2953.38,-321.48 3405.69,-289.75 3713.83,-268.13"/>
<polygon fill="black" stroke="black" points="3714.09,-271.62 3723.82,-267.43 3713.6,-264.64 3714.09,-271.62"/>
</g>
<!-- target:
 is_empty(outwardgripper) -->
<g id="node5" class="node">
<title>target:
 is_empty(outwardgripper)</title>
<ellipse fill="#ffec8b" stroke="black" cx="527.32" cy="-137.82" rx="183.28" ry="33.88"/>
<text text-anchor="middle" x="527.32" y="-143.42" font-family="Times,serif" font-size="18.00">target:</text>
<text text-anchor="middle" x="527.32" y="-123.42" font-family="Times,serif" font-size="18.00"> is_empty(outwardgripper)</text>
</g>
<!-- selector:
 put_down_gear2_with_outwardgripper&#45;&gt;target:
 is_empty(outwardgripper) -->
<g id="edge4" class="edge">
<title>selector:
 put_down_gear2_with_outwardgripper&#45;&gt;target:
 is_empty(outwardgripper)</title>
<path fill="none" stroke="black" d="M786.27,-208.86C738.39,-195.91 684.45,-181.32 638.25,-168.83"/>
<polygon fill="black" stroke="black" points="639.08,-165.43 628.51,-166.19 637.25,-172.18 639.08,-165.43"/>
</g>
<!-- sequence:
 put_down_gear2_with_outwardgripper -->
<g id="node6" class="node">
<title>sequence:
 put_down_gear2_with_outwardgripper</title>
<polygon fill="#ff7f24" stroke="black" points="1099.82,-161.82 728.82,-161.82 728.82,-113.82 1099.82,-113.82 1099.82,-161.82"/>
<text text-anchor="middle" x="914.32" y="-143.42" font-family="Times,serif" font-size="18.00">sequence:</text>
<text text-anchor="middle" x="914.32" y="-123.42" font-family="Times,serif" font-size="18.00"> put_down_gear2_with_outwardgripper</text>
</g>
<!-- selector:
 put_down_gear2_with_outwardgripper&#45;&gt;sequence:
 put_down_gear2_with_outwardgripper -->
<g id="edge5" class="edge">
<title>selector:
 put_down_gear2_with_outwardgripper&#45;&gt;sequence:
 put_down_gear2_with_outwardgripper</title>
<path fill="none" stroke="black" d="M914.32,-207.48C914.32,-196.09 914.32,-183.57 914.32,-172.36"/>
<polygon fill="black" stroke="black" points="917.82,-172.11 914.32,-162.11 910.82,-172.11 917.82,-172.11"/>
</g>
<!-- precondition:
 hold(left_hand, outwardgripper) -->
<g id="node7" class="node">
<title>precondition:
 hold(left_hand, outwardgripper)</title>
<ellipse fill="#ffec8b" stroke="black" cx="221.32" cy="-33.94" rx="221.15" ry="33.88"/>
<text text-anchor="middle" x="221.32" y="-39.54" font-family="Times,serif" font-size="18.00">precondition:</text>
<text text-anchor="middle" x="221.32" y="-19.54" font-family="Times,serif" font-size="18.00"> hold(left_hand, outwardgripper)</text>
</g>
<!-- sequence:
 put_down_gear2_with_outwardgripper&#45;&gt;precondition:
 hold(left_hand, outwardgripper) -->
<g id="edge6" class="edge">
<title>sequence:
 put_down_gear2_with_outwardgripper&#45;&gt;precondition:
 hold(left_hand, outwardgripper)</title>
<path fill="none" stroke="black" d="M781.73,-113.81C760.87,-110.36 739.52,-106.94 719.32,-103.88 600.5,-85.87 570.36,-84.4 451.32,-67.88 431.23,-65.09 410.16,-62.13 389.27,-59.17"/>
<polygon fill="black" stroke="black" points="389.75,-55.7 379.36,-57.76 388.77,-62.63 389.75,-55.7"/>
</g>
<!-- precondition:
 hold(outwardgripper, gear2) -->
<g id="node8" class="node">
<title>precondition:
 hold(outwardgripper, gear2)</title>
<ellipse fill="#ffec8b" stroke="black" cx="657.32" cy="-33.94" rx="196.65" ry="33.88"/>
<text text-anchor="middle" x="657.32" y="-39.54" font-family="Times,serif" font-size="18.00">precondition:</text>
<text text-anchor="middle" x="657.32" y="-19.54" font-family="Times,serif" font-size="18.00"> hold(outwardgripper, gear2)</text>
</g>
<!-- sequence:
 put_down_gear2_with_outwardgripper&#45;&gt;precondition:
 hold(outwardgripper, gear2) -->
<g id="edge7" class="edge">
<title>sequence:
 put_down_gear2_with_outwardgripper&#45;&gt;precondition:
 hold(outwardgripper, gear2)</title>
<path fill="none" stroke="black" d="M856.01,-113.7C822.69,-100.5 780.3,-83.69 743.24,-69"/>
<polygon fill="black" stroke="black" points="744.53,-65.75 733.94,-65.32 741.95,-72.25 744.53,-65.75"/>
</g>
<!-- action:
 put_down(left_hand, outwardgripper, gear2) -->
<g id="node9" class="node">
<title>action:
 put_down(left_hand, outwardgripper, gear2)</title>
<ellipse fill="lightgreen" stroke="black" cx="1171.32" cy="-33.94" rx="299.21" ry="33.88"/>
<text text-anchor="middle" x="1171.32" y="-39.54" font-family="Times,serif" font-size="18.00">action:</text>
<text text-anchor="middle" x="1171.32" y="-19.54" font-family="Times,serif" font-size="18.00"> put_down(left_hand, outwardgripper, gear2)</text>
</g>
<!-- sequence:
 put_down_gear2_with_outwardgripper&#45;&gt;action:
 put_down(left_hand, outwardgripper, gear2) -->
<g id="edge8" class="edge">
<title>sequence:
 put_down_gear2_with_outwardgripper&#45;&gt;action:
 put_down(left_hand, outwardgripper, gear2)</title>
<path fill="none" stroke="black" d="M972.64,-113.7C1004.86,-100.93 1045.57,-84.79 1081.74,-70.45"/>
<polygon fill="black" stroke="black" points="1083.31,-73.6 1091.32,-66.66 1080.73,-67.09 1083.31,-73.6"/>
</g>
<!-- target:
 hold(left_hand, clampgripper) -->
<g id="node11" class="node">
<title>target:
 hold(left_hand, clampgripper)</title>
<ellipse fill="#ffec8b" stroke="black" cx="1700.32" cy="-137.82" rx="207.36" ry="33.88"/>
<text text-anchor="middle" x="1700.32" y="-143.42" font-family="Times,serif" font-size="18.00">target:</text>
<text text-anchor="middle" x="1700.32" y="-123.42" font-family="Times,serif" font-size="18.00"> hold(left_hand, clampgripper)</text>
</g>
<!-- selector:
 change_tool(left_hand, outwardgripper, clampgripper)&#45;&gt;target:
 hold(left_hand, clampgripper) -->
<g id="edge10" class="edge">
<title>selector:
 change_tool(left_hand, outwardgripper, clampgripper)&#45;&gt;target:
 hold(left_hand, clampgripper)</title>
<path fill="none" stroke="black" d="M2017.46,-207.7C1957.03,-194.57 1889.47,-179.9 1832.3,-167.48"/>
<polygon fill="black" stroke="black" points="1833,-164.06 1822.48,-165.35 1831.51,-170.9 1833,-164.06"/>
</g>
<!-- sequence:
 change_tool(left_hand, outwardgripper, clampgripper) -->
<g id="node12" class="node">
<title>sequence:
 change_tool(left_hand, outwardgripper, clampgripper)</title>
<polygon fill="#ff7f24" stroke="black" points="2438.82,-161.82 1925.82,-161.82 1925.82,-113.82 2438.82,-113.82 2438.82,-161.82"/>
<text text-anchor="middle" x="2182.32" y="-143.42" font-family="Times,serif" font-size="18.00">sequence:</text>
<text text-anchor="middle" x="2182.32" y="-123.42" font-family="Times,serif" font-size="18.00"> change_tool(left_hand, outwardgripper, clampgripper)</text>
</g>
<!-- selector:
 change_tool(left_hand, outwardgripper, clampgripper)&#45;&gt;sequence:
 change_tool(left_hand, outwardgripper, clampgripper) -->
<g id="edge11" class="edge">
<title>selector:
 change_tool(left_hand, outwardgripper, clampgripper)&#45;&gt;sequence:
 change_tool(left_hand, outwardgripper, clampgripper)</title>
<path fill="none" stroke="black" d="M2182.32,-207.48C2182.32,-196.09 2182.32,-183.57 2182.32,-172.36"/>
<polygon fill="black" stroke="black" points="2185.82,-172.11 2182.32,-162.11 2178.82,-172.11 2185.82,-172.11"/>
</g>
<!-- &quot;precondition:\n hold(left_hand, outwardgripper)&quot;* -->
<g id="node13" class="node">
<title>&quot;precondition:\n hold(left_hand, outwardgripper)&quot;*</title>
<ellipse fill="#ffec8b" stroke="black" cx="1721.32" cy="-33.94" rx="233.19" ry="33.88"/>
<text text-anchor="middle" x="1721.32" y="-39.54" font-family="Times,serif" font-size="18.00">&quot;precondition:</text>
<text text-anchor="middle" x="1721.32" y="-19.54" font-family="Times,serif" font-size="18.00"> hold(left_hand, outwardgripper)&quot;*</text>
</g>
<!-- sequence:
 change_tool(left_hand, outwardgripper, clampgripper)&#45;&gt;&quot;precondition:\n hold(left_hand, outwardgripper)&quot;* -->
<g id="edge12" class="edge">
<title>sequence:
 change_tool(left_hand, outwardgripper, clampgripper)&#45;&gt;&quot;precondition:\n hold(left_hand, outwardgripper)&quot;*</title>
<path fill="none" stroke="black" d="M2078,-113.77C2012.43,-99.28 1927.16,-80.43 1856.44,-64.8"/>
<polygon fill="black" stroke="black" points="1857.08,-61.36 1846.56,-62.62 1855.57,-68.19 1857.08,-61.36"/>
</g>
<!-- precondition:
 is_empty(outwardgripper) -->
<g id="node14" class="node">
<title>precondition:
 is_empty(outwardgripper)</title>
<ellipse fill="#ffec8b" stroke="black" cx="2155.32" cy="-33.94" rx="183.28" ry="33.88"/>
<text text-anchor="middle" x="2155.32" y="-39.54" font-family="Times,serif" font-size="18.00">precondition:</text>
<text text-anchor="middle" x="2155.32" y="-19.54" font-family="Times,serif" font-size="18.00"> is_empty(outwardgripper)</text>
</g>
<!-- sequence:
 change_tool(left_hand, outwardgripper, clampgripper)&#45;&gt;precondition:
 is_empty(outwardgripper) -->
<g id="edge13" class="edge">
<title>sequence:
 change_tool(left_hand, outwardgripper, clampgripper)&#45;&gt;precondition:
 is_empty(outwardgripper)</title>
<path fill="none" stroke="black" d="M2176.2,-113.7C2173.37,-103.05 2169.93,-90.05 2166.66,-77.71"/>
<polygon fill="black" stroke="black" points="2170.03,-76.78 2164.09,-68.01 2163.27,-78.58 2170.03,-76.78"/>
</g>
<!-- action:
 change_tool(left_hand, outwardgripper, clampgripper) -->
<g id="node15" class="node">
<title>action:
 change_tool(left_hand, outwardgripper, clampgripper)</title>
<ellipse fill="lightgreen" stroke="black" cx="2719.32" cy="-33.94" rx="362.99" ry="33.88"/>
<text text-anchor="middle" x="2719.32" y="-39.54" font-family="Times,serif" font-size="18.00">action:</text>
<text text-anchor="middle" x="2719.32" y="-19.54" font-family="Times,serif" font-size="18.00"> change_tool(left_hand, outwardgripper, clampgripper)</text>
</g>
<!-- sequence:
 change_tool(left_hand, outwardgripper, clampgripper)&#45;&gt;action:
 change_tool(left_hand, outwardgripper, clampgripper) -->
<g id="edge14" class="edge">
<title>sequence:
 change_tool(left_hand, outwardgripper, clampgripper)&#45;&gt;action:
 change_tool(left_hand, outwardgripper, clampgripper)</title>
<path fill="none" stroke="black" d="M2303.84,-113.77C2377.43,-99.81 2472.3,-81.81 2552.8,-66.53"/>
<polygon fill="black" stroke="black" points="2553.88,-69.89 2563.05,-64.59 2552.57,-63.02 2553.88,-69.89"/>
</g>
<!-- target:
 hold(clampgripper, shaft1) -->
<g id="node17" class="node">
<title>target:
 hold(clampgripper, shaft1)</title>
<ellipse fill="#ffec8b" stroke="black" cx="2968.32" cy="-137.82" rx="185.94" ry="33.88"/>
<text text-anchor="middle" x="2968.32" y="-143.42" font-family="Times,serif" font-size="18.00">target:</text>
<text text-anchor="middle" x="2968.32" y="-123.42" font-family="Times,serif" font-size="18.00"> hold(clampgripper, shaft1)</text>
</g>
<!-- selector:
 pick_up_shaft1_with_clampgripper&#45;&gt;target:
 hold(clampgripper, shaft1) -->
<g id="edge16" class="edge">
<title>selector:
 pick_up_shaft1_with_clampgripper&#45;&gt;target:
 hold(clampgripper, shaft1)</title>
<path fill="none" stroke="black" d="M2968.32,-207.48C2968.32,-199.32 2968.32,-190.58 2968.32,-182.15"/>
<polygon fill="black" stroke="black" points="2971.82,-182.1 2968.32,-172.1 2964.82,-182.1 2971.82,-182.1"/>
</g>
<!-- sequence:
 pick_up_shaft1_with_clampgripper -->
<g id="node18" class="node">
<title>sequence:
 pick_up_shaft1_with_clampgripper</title>
<polygon fill="#ff7f24" stroke="black" points="3565.32,-161.82 3227.32,-161.82 3227.32,-113.82 3565.32,-113.82 3565.32,-161.82"/>
<text text-anchor="middle" x="3396.32" y="-143.42" font-family="Times,serif" font-size="18.00">sequence:</text>
<text text-anchor="middle" x="3396.32" y="-123.42" font-family="Times,serif" font-size="18.00"> pick_up_shaft1_with_clampgripper</text>
</g>
<!-- selector:
 pick_up_shaft1_with_clampgripper&#45;&gt;sequence:
 pick_up_shaft1_with_clampgripper -->
<g id="edge17" class="edge">
<title>selector:
 pick_up_shaft1_with_clampgripper&#45;&gt;sequence:
 pick_up_shaft1_with_clampgripper</title>
<path fill="none" stroke="black" d="M3100.82,-211.1C3162.43,-196.03 3234.65,-178.37 3292.27,-164.27"/>
<polygon fill="black" stroke="black" points="3293.23,-167.64 3302.12,-161.86 3291.57,-160.84 3293.23,-167.64"/>
</g>
<!-- precondition:
 hold(left_hand, clampgripper) -->
<g id="node19" class="node">
<title>precondition:
 hold(left_hand, clampgripper)</title>
<ellipse fill="#ffec8b" stroke="black" cx="3307.32" cy="-33.94" rx="207.36" ry="33.88"/>
<text text-anchor="middle" x="3307.32" y="-39.54" font-family="Times,serif" font-size="18.00">precondition:</text>
<text text-anchor="middle" x="3307.32" y="-19.54" font-family="Times,serif" font-size="18.00"> hold(left_hand, clampgripper)</text>
</g>
<!-- sequence:
 pick_up_shaft1_with_clampgripper&#45;&gt;precondition:
 hold(left_hand, clampgripper) -->
<g id="edge18" class="edge">
<title>sequence:
 pick_up_shaft1_with_clampgripper&#45;&gt;precondition:
 hold(left_hand, clampgripper)</title>
<path fill="none" stroke="black" d="M3376.13,-113.7C3366.18,-102.32 3353.9,-88.26 3342.48,-75.18"/>
<polygon fill="black" stroke="black" points="3345.09,-72.85 3335.87,-67.62 3339.82,-77.46 3345.09,-72.85"/>
</g>
<!-- precondition:
 is_empty(clampgripper) -->
<g id="node20" class="node">
<title>precondition:
 is_empty(clampgripper)</title>
<ellipse fill="#ffec8b" stroke="black" cx="3701.32" cy="-33.94" rx="169" ry="33.88"/>
<text text-anchor="middle" x="3701.32" y="-39.54" font-family="Times,serif" font-size="18.00">precondition:</text>
<text text-anchor="middle" x="3701.32" y="-19.54" font-family="Times,serif" font-size="18.00"> is_empty(clampgripper)</text>
</g>
<!-- sequence:
 pick_up_shaft1_with_clampgripper&#45;&gt;precondition:
 is_empty(clampgripper) -->
<g id="edge19" class="edge">
<title>sequence:
 pick_up_shaft1_with_clampgripper&#45;&gt;precondition:
 is_empty(clampgripper)</title>
<path fill="none" stroke="black" d="M3465.53,-113.7C3507.29,-99.76 3561.07,-81.79 3606.72,-66.54"/>
<polygon fill="black" stroke="black" points="3607.96,-69.82 3616.33,-63.33 3605.74,-63.18 3607.96,-69.82"/>
</g>
<!-- action:
 pick_up(left_hand, clampgripper, shaft1) -->
<g id="node21" class="node">
<title>action:
 pick_up(left_hand, clampgripper, shaft1)</title>
<ellipse fill="lightgreen" stroke="black" cx="4163.32" cy="-33.94" rx="275.13" ry="33.88"/>
<text text-anchor="middle" x="4163.32" y="-39.54" font-family="Times,serif" font-size="18.00">action:</text>
<text text-anchor="middle" x="4163.32" y="-19.54" font-family="Times,serif" font-size="18.00"> pick_up(left_hand, clampgripper, shaft1)</text>
</g>
<!-- sequence:
 pick_up_shaft1_with_clampgripper&#45;&gt;action:
 pick_up(left_hand, clampgripper, shaft1) -->
<g id="edge20" class="edge">
<title>sequence:
 pick_up_shaft1_with_clampgripper&#45;&gt;action:
 pick_up(left_hand, clampgripper, shaft1)</title>
<path fill="none" stroke="black" d="M3565.6,-114.34C3685.11,-98.46 3845.5,-77.16 3970.04,-60.62"/>
<polygon fill="black" stroke="black" points="3970.63,-64.07 3980.08,-59.28 3969.71,-57.13 3970.63,-64.07"/>
</g>
<!-- &quot;target:\n is_inserted_to(shaft1, gearbase_hole1)&quot;* -->
<g id="node23" class="node">
<title>&quot;target:\n is_inserted_to(shaft1, gearbase_hole1)&quot;*</title>
<ellipse fill="#ffec8b" stroke="black" cx="4036.32" cy="-137.82" rx="273.8" ry="33.88"/>
<text text-anchor="middle" x="4036.32" y="-143.42" font-family="Times,serif" font-size="18.00">&quot;target:</text>
<text text-anchor="middle" x="4036.32" y="-123.42" font-family="Times,serif" font-size="18.00"> is_inserted_to(shaft1, gearbase_hole1)&quot;*</text>
</g>
<!-- selector:
 insert_shaft1_into_gearbase_hole1_with_clampgripper&#45;&gt;&quot;target:\n is_inserted_to(shaft1, gearbase_hole1)&quot;* -->
<g id="edge22" class="edge">
<title>selector:
 insert_shaft1_into_gearbase_hole1_with_clampgripper&#45;&gt;&quot;target:\n is_inserted_to(shaft1, gearbase_hole1)&quot;*</title>
<path fill="none" stroke="black" d="M4036.32,-207.48C4036.32,-199.32 4036.32,-190.58 4036.32,-182.15"/>
<polygon fill="black" stroke="black" points="4039.82,-182.1 4036.32,-172.1 4032.82,-182.1 4039.82,-182.1"/>
</g>
<!-- sequence:
 insert_shaft1_into_gearbase_hole1_with_clampgripper -->
<g id="node24" class="node">
<title>sequence:
 insert_shaft1_into_gearbase_hole1_with_clampgripper</title>
<polygon fill="#ff7f24" stroke="black" points="5143.32,-161.82 4629.32,-161.82 4629.32,-113.82 5143.32,-113.82 5143.32,-161.82"/>
<text text-anchor="middle" x="4886.32" y="-143.42" font-family="Times,serif" font-size="18.00">sequence:</text>
<text text-anchor="middle" x="4886.32" y="-123.42" font-family="Times,serif" font-size="18.00"> insert_shaft1_into_gearbase_hole1_with_clampgripper</text>
</g>
<!-- selector:
 insert_shaft1_into_gearbase_hole1_with_clampgripper&#45;&gt;sequence:
 insert_shaft1_into_gearbase_hole1_with_clampgripper -->
<g id="edge23" class="edge">
<title>selector:
 insert_shaft1_into_gearbase_hole1_with_clampgripper&#45;&gt;sequence:
 insert_shaft1_into_gearbase_hole1_with_clampgripper</title>
<path fill="none" stroke="black" d="M4272.53,-214.41C4403.71,-198.26 4565.01,-178.39 4689.33,-163.08"/>
<polygon fill="black" stroke="black" points="4689.85,-166.55 4699.34,-161.85 4688.99,-159.6 4689.85,-166.55"/>
</g>
<!-- &quot;precondition:\n hold(left_hand, clampgripper)&quot;* -->
<g id="node25" class="node">
<title>&quot;precondition:\n hold(left_hand, clampgripper)&quot;*</title>
<ellipse fill="#ffec8b" stroke="black" cx="4675.32" cy="-33.94" rx="219.41" ry="33.88"/>
<text text-anchor="middle" x="4675.32" y="-39.54" font-family="Times,serif" font-size="18.00">&quot;precondition:</text>
<text text-anchor="middle" x="4675.32" y="-19.54" font-family="Times,serif" font-size="18.00"> hold(left_hand, clampgripper)&quot;*</text>
</g>
<!-- sequence:
 insert_shaft1_into_gearbase_hole1_with_clampgripper&#45;&gt;&quot;precondition:\n hold(left_hand, clampgripper)&quot;* -->
<g id="edge24" class="edge">
<title>sequence:
 insert_shaft1_into_gearbase_hole1_with_clampgripper&#45;&gt;&quot;precondition:\n hold(left_hand, clampgripper)&quot;*</title>
<path fill="none" stroke="black" d="M4838.45,-113.7C4812.22,-101.04 4779.14,-85.07 4749.64,-70.82"/>
<polygon fill="black" stroke="black" points="4751.14,-67.66 4740.61,-66.46 4748.09,-73.96 4751.14,-67.66"/>
</g>
<!-- precondition:
 hold(clampgripper, shaft1) -->
<g id="node26" class="node">
<title>precondition:
 hold(clampgripper, shaft1)</title>
<ellipse fill="#ffec8b" stroke="black" cx="5098.32" cy="-33.94" rx="185.94" ry="33.88"/>
<text text-anchor="middle" x="5098.32" y="-39.54" font-family="Times,serif" font-size="18.00">precondition:</text>
<text text-anchor="middle" x="5098.32" y="-19.54" font-family="Times,serif" font-size="18.00"> hold(clampgripper, shaft1)</text>
</g>
<!-- sequence:
 insert_shaft1_into_gearbase_hole1_with_clampgripper&#45;&gt;precondition:
 hold(clampgripper, shaft1) -->
<g id="edge25" class="edge">
<title>sequence:
 insert_shaft1_into_gearbase_hole1_with_clampgripper&#45;&gt;precondition:
 hold(clampgripper, shaft1)</title>
<path fill="none" stroke="black" d="M4934.43,-113.7C4961.11,-100.88 4994.85,-84.67 5024.78,-70.29"/>
<polygon fill="black" stroke="black" points="5026.43,-73.37 5033.93,-65.89 5023.4,-67.07 5026.43,-73.37"/>
</g>
<!-- action:
 insert(left_hand, clampgripper, shaft1, gearbase_hole1) -->
<g id="node27" class="node">
<title>action:
 insert(left_hand, clampgripper, shaft1, gearbase_hole1)</title>
<ellipse fill="lightgreen" stroke="black" cx="5672.32" cy="-33.94" rx="370.55" ry="33.88"/>
<text text-anchor="middle" x="5672.32" y="-39.54" font-family="Times,serif" font-size="18.00">action:</text>
<text text-anchor="middle" x="5672.32" y="-19.54" font-family="Times,serif" font-size="18.00"> insert(left_hand, clampgripper, shaft1, gearbase_hole1)</text>
</g>
<!-- sequence:
 insert_shaft1_into_gearbase_hole1_with_clampgripper&#45;&gt;action:
 insert(left_hand, clampgripper, shaft1, gearbase_hole1) -->
<g id="edge26" class="edge">
<title>sequence:
 insert_shaft1_into_gearbase_hole1_with_clampgripper&#45;&gt;action:
 insert(left_hand, clampgripper, shaft1, gearbase_hole1)</title>
<path fill="none" stroke="black" d="M5064.19,-113.77C5179.48,-98.82 5330.48,-79.25 5453.17,-63.35"/>
<polygon fill="black" stroke="black" points="5453.99,-66.77 5463.45,-62.02 5453.09,-59.83 5453.99,-66.77"/>
</g>
</g>
</svg>
