<?xml version="1.0" encoding="UTF-8" standalone="no"?>
<!DOCTYPE svg PUBLIC "-//W3C//DTD SVG 1.1//EN"
 "http://www.w3.org/Graphics/SVG/1.1/DTD/svg11.dtd">
<!-- Generated by graphviz version 2.43.0 (0)
 -->
<!-- Title: pastafarianism Pages: 1 -->
<svg width="2909pt" height="289pt"
 viewBox="0.00 0.00 2908.77 289.24" xmlns="http://www.w3.org/2000/svg" xmlns:xlink="http://www.w3.org/1999/xlink">
<g id="graph0" class="graph" transform="scale(1 1) rotate(0) translate(4 285.24)">
<title>pastafarianism</title>
<polygon fill="white" stroke="transparent" points="-4,4 -4,-285.24 2904.77,-285.24 2904.77,4 -4,4"/>
<!-- selector:
 insert_gear3_into_shaft3 -->
<g id="node1" class="node">
<title>selector:
 insert_gear3_into_shaft3</title>
<polygon fill="#8deeee" stroke="black" points="1074.85,-229.19 1074.85,-259.82 965,-281.48 809.65,-281.48 699.79,-259.82 699.79,-229.19 809.65,-207.53 965,-207.53 1074.85,-229.19"/>
<text text-anchor="middle" x="887.32" y="-250.1" font-family="Times,serif" font-size="18.00">selector:</text>
<text text-anchor="middle" x="887.32" y="-230.1" font-family="Times,serif" font-size="18.00"> insert_gear3_into_shaft3</text>
</g>
<!-- target:
 is_inserted_to(gear3, shaft3) -->
<g id="node2" class="node">
<title>target:
 is_inserted_to(gear3, shaft3)</title>
<ellipse fill="#ffec8b" stroke="black" cx="594.32" cy="-137.82" rx="198.89" ry="33.88"/>
<text text-anchor="middle" x="594.32" y="-143.42" font-family="Times,serif" font-size="18.00">target:</text>
<text text-anchor="middle" x="594.32" y="-123.42" font-family="Times,serif" font-size="18.00"> is_inserted_to(gear3, shaft3)</text>
</g>
<!-- selector:
 insert_gear3_into_shaft3&#45;&gt;target:
 is_inserted_to(gear3, shaft3) -->
<g id="edge1" class="edge">
<title>selector:
 insert_gear3_into_shaft3&#45;&gt;target:
 is_inserted_to(gear3, shaft3)</title>
<path fill="none" stroke="black" d="M794.62,-210.38C760.44,-198.17 721.73,-184.34 687.52,-172.12"/>
<polygon fill="black" stroke="black" points="688.59,-168.78 677.99,-168.72 686.23,-175.38 688.59,-168.78"/>
</g>
<!-- sequence:
 pick_up_gear3 -->
<g id="node3" class="node">
<title>sequence:
 pick_up_gear3</title>
<polygon fill="#ff7f24" stroke="black" points="963.82,-161.82 810.82,-161.82 810.82,-113.82 963.82,-113.82 963.82,-161.82"/>
<text text-anchor="middle" x="887.32" y="-143.42" font-family="Times,serif" font-size="18.00">sequence:</text>
<text text-anchor="middle" x="887.32" y="-123.42" font-family="Times,serif" font-size="18.00"> pick_up_gear3</text>
</g>
<!-- selector:
 insert_gear3_into_shaft3&#45;&gt;sequence:
 pick_up_gear3 -->
<g id="edge2" class="edge">
<title>selector:
 insert_gear3_into_shaft3&#45;&gt;sequence:
 pick_up_gear3</title>
<path fill="none" stroke="black" d="M887.32,-207.48C887.32,-196.09 887.32,-183.57 887.32,-172.36"/>
<polygon fill="black" stroke="black" points="890.82,-172.11 887.32,-162.11 883.82,-172.11 890.82,-172.11"/>
</g>
<!-- sequence:
 insert_gear3 -->
<g id="node7" class="node">
<title>sequence:
 insert_gear3</title>
<polygon fill="#ff7f24" stroke="black" points="1905.32,-161.82 1769.32,-161.82 1769.32,-113.82 1905.32,-113.82 1905.32,-161.82"/>
<text text-anchor="middle" x="1837.32" y="-143.42" font-family="Times,serif" font-size="18.00">sequence:</text>
<text text-anchor="middle" x="1837.32" y="-123.42" font-family="Times,serif" font-size="18.00"> insert_gear3</text>
</g>
<!-- selector:
 insert_gear3_into_shaft3&#45;&gt;sequence:
 insert_gear3 -->
<g id="edge6" class="edge">
<title>selector:
 insert_gear3_into_shaft3&#45;&gt;sequence:
 insert_gear3</title>
<path fill="none" stroke="black" d="M1054.43,-225.09C1261.31,-202.29 1605.1,-164.41 1758.84,-147.47"/>
<polygon fill="black" stroke="black" points="1759.57,-150.91 1769.13,-146.34 1758.8,-143.95 1759.57,-150.91"/>
</g>
<!-- precondition:
 hold(left_hand, outwardgripper) -->
<g id="node4" class="node">
<title>precondition:
 hold(left_hand, outwardgripper)</title>
<ellipse fill="#ffec8b" stroke="black" cx="221.32" cy="-33.94" rx="221.15" ry="33.88"/>
<text text-anchor="middle" x="221.32" y="-39.54" font-family="Times,serif" font-size="18.00">precondition:</text>
<text text-anchor="middle" x="221.32" y="-19.54" font-family="Times,serif" font-size="18.00"> hold(left_hand, outwardgripper)</text>
</g>
<!-- sequence:
 pick_up_gear3&#45;&gt;precondition:
 hold(left_hand, outwardgripper) -->
<g id="edge3" class="edge">
<title>sequence:
 pick_up_gear3&#45;&gt;precondition:
 hold(left_hand, outwardgripper)</title>
<path fill="none" stroke="black" d="M834.06,-113.69C823.69,-109.9 812.79,-106.4 802.32,-103.88 649.85,-67.22 606.97,-87 451.32,-67.88 430.49,-65.32 408.63,-62.44 387.01,-59.48"/>
<polygon fill="black" stroke="black" points="387.48,-56.01 377.1,-58.11 386.53,-62.95 387.48,-56.01"/>
</g>
<!-- precondition:
 is_empty(outwardgripper) -->
<g id="node5" class="node">
<title>precondition:
 is_empty(outwardgripper)</title>
<ellipse fill="#ffec8b" stroke="black" cx="643.32" cy="-33.94" rx="183.28" ry="33.88"/>
<text text-anchor="middle" x="643.32" y="-39.54" font-family="Times,serif" font-size="18.00">precondition:</text>
<text text-anchor="middle" x="643.32" y="-19.54" font-family="Times,serif" font-size="18.00"> is_empty(outwardgripper)</text>
</g>
<!-- sequence:
 pick_up_gear3&#45;&gt;precondition:
 is_empty(outwardgripper) -->
<g id="edge4" class="edge">
<title>sequence:
 pick_up_gear3&#45;&gt;precondition:
 is_empty(outwardgripper)</title>
<path fill="none" stroke="black" d="M831.96,-113.7C800.46,-100.55 760.42,-83.84 725.34,-69.19"/>
<polygon fill="black" stroke="black" points="726.64,-65.94 716.07,-65.32 723.95,-72.4 726.64,-65.94"/>
</g>
<!-- action:
 pick_up(left_hand, outwardgripper, gear3) -->
<g id="node6" class="node">
<title>action:
 pick_up(left_hand, outwardgripper, gear3)</title>
<ellipse fill="lightgreen" stroke="black" cx="1131.32" cy="-33.94" rx="286.26" ry="33.88"/>
<text text-anchor="middle" x="1131.32" y="-39.54" font-family="Times,serif" font-size="18.00">action:</text>
<text text-anchor="middle" x="1131.32" y="-19.54" font-family="Times,serif" font-size="18.00"> pick_up(left_hand, outwardgripper, gear3)</text>
</g>
<!-- sequence:
 pick_up_gear3&#45;&gt;action:
 pick_up(left_hand, outwardgripper, gear3) -->
<g id="edge5" class="edge">
<title>sequence:
 pick_up_gear3&#45;&gt;action:
 pick_up(left_hand, outwardgripper, gear3)</title>
<path fill="none" stroke="black" d="M942.69,-113.7C973.02,-101.04 1011.28,-85.07 1045.4,-70.82"/>
<polygon fill="black" stroke="black" points="1047.03,-73.93 1054.91,-66.85 1044.33,-67.47 1047.03,-73.93"/>
</g>
<!-- precondition:
 hold(outwardgripper, gear3) -->
<g id="node8" class="node">
<title>precondition:
 hold(outwardgripper, gear3)</title>
<ellipse fill="#ffec8b" stroke="black" cx="1632.32" cy="-33.94" rx="196.65" ry="33.88"/>
<text text-anchor="middle" x="1632.32" y="-39.54" font-family="Times,serif" font-size="18.00">precondition:</text>
<text text-anchor="middle" x="1632.32" y="-19.54" font-family="Times,serif" font-size="18.00"> hold(outwardgripper, gear3)</text>
</g>
<!-- sequence:
 insert_gear3&#45;&gt;precondition:
 hold(outwardgripper, gear3) -->
<g id="edge7" class="edge">
<title>sequence:
 insert_gear3&#45;&gt;precondition:
 hold(outwardgripper, gear3)</title>
<path fill="none" stroke="black" d="M1790.81,-113.7C1765.33,-101.04 1733.2,-85.07 1704.54,-70.83"/>
<polygon fill="black" stroke="black" points="1705.88,-67.59 1695.37,-66.27 1702.76,-73.86 1705.88,-67.59"/>
</g>
<!-- precondition:
 can_insert_to(gear3, shaft3) -->
<g id="node9" class="node">
<title>precondition:
 can_insert_to(gear3, shaft3)</title>
<ellipse fill="#ffec8b" stroke="black" cx="2042.32" cy="-33.94" rx="195.32" ry="33.88"/>
<text text-anchor="middle" x="2042.32" y="-39.54" font-family="Times,serif" font-size="18.00">precondition:</text>
<text text-anchor="middle" x="2042.32" y="-19.54" font-family="Times,serif" font-size="18.00"> can_insert_to(gear3, shaft3)</text>
</g>
<!-- sequence:
 insert_gear3&#45;&gt;precondition:
 can_insert_to(gear3, shaft3) -->
<g id="edge8" class="edge">
<title>sequence:
 insert_gear3&#45;&gt;precondition:
 can_insert_to(gear3, shaft3)</title>
<path fill="none" stroke="black" d="M1883.84,-113.7C1909.32,-101.04 1941.45,-85.07 1970.11,-70.83"/>
<polygon fill="black" stroke="black" points="1971.89,-73.86 1979.28,-66.27 1968.77,-67.59 1971.89,-73.86"/>
</g>
<!-- action:
 insert(left_hand, outwardgripper, gear3, shaft3) -->
<g id="node10" class="node">
<title>action:
 insert(left_hand, outwardgripper, gear3, shaft3)</title>
<ellipse fill="lightgreen" stroke="black" cx="2578.32" cy="-33.94" rx="322.38" ry="33.88"/>
<text text-anchor="middle" x="2578.32" y="-39.54" font-family="Times,serif" font-size="18.00">action:</text>
<text text-anchor="middle" x="2578.32" y="-19.54" font-family="Times,serif" font-size="18.00"> insert(left_hand, outwardgripper, gear3, shaft3)</text>
</g>
<!-- sequence:
 insert_gear3&#45;&gt;action:
 insert(left_hand, outwardgripper, gear3, shaft3) -->
<g id="edge9" class="edge">
<title>sequence:
 insert_gear3&#45;&gt;action:
 insert(left_hand, outwardgripper, gear3, shaft3)</title>
<path fill="none" stroke="black" d="M1905.38,-127.47C2011.28,-112.91 2219.65,-84.26 2376.62,-62.67"/>
<polygon fill="black" stroke="black" points="2377.45,-66.09 2386.88,-61.26 2376.5,-59.16 2377.45,-66.09"/>
</g>
</g>
</svg>
