<?xml version="1.0" encoding="UTF-8" standalone="no"?>
<!DOCTYPE svg PUBLIC "-//W3C//DTD SVG 1.1//EN"
 "http://www.w3.org/Graphics/SVG/1.1/DTD/svg11.dtd">
<!-- Generated by graphviz version 2.43.0 (0)
 -->
<!-- Title: pastafarianism Pages: 1 -->
<svg width="1829pt" height="513pt"
 viewBox="0.00 0.00 1828.51 513.48" xmlns="http://www.w3.org/2000/svg" xmlns:xlink="http://www.w3.org/1999/xlink">
<g id="graph0" class="graph" transform="scale(1 1) rotate(0) translate(4 509.48)">
<title>pastafarianism</title>
<polygon fill="white" stroke="transparent" points="-4,4 -4,-509.48 1824.51,-509.48 1824.51,4 -4,4"/>
<!-- selector:
 place(left_hand, outwardgripper, lampshade, lampbulb) -->
<g id="node1" class="node">
<title>selector:
 place(left_hand, outwardgripper, lampshade, lampbulb)</title>
<polygon fill="#8deeee" stroke="black" points="912.63,-453.42 912.63,-484.05 676.76,-505.71 343.18,-505.71 107.3,-484.05 107.3,-453.42 343.18,-431.76 676.76,-431.76 912.63,-453.42"/>
<text text-anchor="middle" x="509.97" y="-474.34" font-family="Times,serif" font-size="18.00">selector:</text>
<text text-anchor="middle" x="509.97" y="-454.34" font-family="Times,serif" font-size="18.00"> place(left_hand, outwardgripper, lampshade, lampbulb)</text>
</g>
<!-- target:
 is_placed_to(lampshade, lampbulb) -->
<g id="node2" class="node">
<title>target:
 is_placed_to(lampshade, lampbulb)</title>
<ellipse fill="#ffec8b" stroke="black" cx="254.97" cy="-360" rx="229" ry="36"/>
<text text-anchor="middle" x="254.97" y="-365.6" font-family="Times,serif" font-size="18.00">target:</text>
<text text-anchor="middle" x="254.97" y="-345.6" font-family="Times,serif" font-size="18.00"> is_placed_to(lampshade, lampbulb)</text>
</g>
<!-- selector:
 place(left_hand, outwardgripper, lampshade, lampbulb)&#45;&gt;target:
 is_placed_to(lampshade, lampbulb) -->
<g id="edge1" class="edge">
<title>selector:
 place(left_hand, outwardgripper, lampshade, lampbulb)&#45;&gt;target:
 is_placed_to(lampshade, lampbulb)</title>
<path fill="none" stroke="black" d="M424.35,-431.9C398.07,-420.9 369.13,-408.79 342.72,-397.73"/>
<polygon fill="black" stroke="black" points="344.06,-394.5 333.49,-393.87 341.36,-400.96 344.06,-394.5"/>
</g>
<!-- sequence:
 place(left_hand, outwardgripper, lampshade, lampbulb) -->
<g id="node3" class="node">
<title>sequence:
 place(left_hand, outwardgripper, lampshade, lampbulb)</title>
<polygon fill="#ff7f24" stroke="black" points="1027.97,-396 501.97,-396 501.97,-324 1027.97,-324 1027.97,-396"/>
<text text-anchor="middle" x="764.97" y="-365.6" font-family="Times,serif" font-size="18.00">sequence:</text>
<text text-anchor="middle" x="764.97" y="-345.6" font-family="Times,serif" font-size="18.00"> place(left_hand, outwardgripper, lampshade, lampbulb)</text>
</g>
<!-- selector:
 place(left_hand, outwardgripper, lampshade, lampbulb)&#45;&gt;sequence:
 place(left_hand, outwardgripper, lampshade, lampbulb) -->
<g id="edge2" class="edge">
<title>selector:
 place(left_hand, outwardgripper, lampshade, lampbulb)&#45;&gt;sequence:
 place(left_hand, outwardgripper, lampshade, lampbulb)</title>
<path fill="none" stroke="black" d="M595.59,-431.9C620.09,-421.64 646.92,-410.41 671.85,-399.98"/>
<polygon fill="black" stroke="black" points="673.43,-403.11 681.3,-396.02 670.73,-396.65 673.43,-403.11"/>
</g>
<!-- precondition:
 hold(left_hand, outwardgripper) -->
<g id="node4" class="node">
<title>precondition:
 hold(left_hand, outwardgripper)</title>
<ellipse fill="#ffec8b" stroke="black" cx="209.97" cy="-252" rx="209.93" ry="36"/>
<text text-anchor="middle" x="209.97" y="-257.6" font-family="Times,serif" font-size="18.00">precondition:</text>
<text text-anchor="middle" x="209.97" y="-237.6" font-family="Times,serif" font-size="18.00"> hold(left_hand, outwardgripper)</text>
</g>
<!-- sequence:
 place(left_hand, outwardgripper, lampshade, lampbulb)&#45;&gt;precondition:
 hold(left_hand, outwardgripper) -->
<g id="edge3" class="edge">
<title>sequence:
 place(left_hand, outwardgripper, lampshade, lampbulb)&#45;&gt;precondition:
 hold(left_hand, outwardgripper)</title>
<path fill="none" stroke="black" d="M581.7,-324C508.87,-310.09 426.22,-294.3 357.37,-281.15"/>
<polygon fill="black" stroke="black" points="357.8,-277.67 347.32,-279.23 356.49,-284.55 357.8,-277.67"/>
</g>
<!-- selector:
 pick_up(left_hand, outwardgripper, lampshade) -->
<g id="node5" class="node">
<title>selector:
 pick_up(left_hand, outwardgripper, lampshade)</title>
<polygon fill="#8deeee" stroke="black" points="1092.4,-237.09 1092.4,-266.91 900.59,-288 629.34,-288 437.53,-266.91 437.53,-237.09 629.34,-216 900.59,-216 1092.4,-237.09"/>
<text text-anchor="middle" x="764.97" y="-257.6" font-family="Times,serif" font-size="18.00">selector:</text>
<text text-anchor="middle" x="764.97" y="-237.6" font-family="Times,serif" font-size="18.00"> pick_up(left_hand, outwardgripper, lampshade)</text>
</g>
<!-- sequence:
 place(left_hand, outwardgripper, lampshade, lampbulb)&#45;&gt;selector:
 pick_up(left_hand, outwardgripper, lampshade) -->
<g id="edge4" class="edge">
<title>sequence:
 place(left_hand, outwardgripper, lampshade, lampbulb)&#45;&gt;selector:
 pick_up(left_hand, outwardgripper, lampshade)</title>
<path fill="none" stroke="black" d="M764.97,-324C764.97,-315.85 764.97,-307.06 764.97,-298.54"/>
<polygon fill="black" stroke="black" points="768.47,-298.33 764.97,-288.33 761.47,-298.33 768.47,-298.33"/>
</g>
<!-- action:
 place(left_hand, outwardgripper, lampshade, lampbulb) -->
<g id="node11" class="node">
<title>action:
 place(left_hand, outwardgripper, lampshade, lampbulb)</title>
<ellipse fill="lightgreen" stroke="black" cx="1462.97" cy="-252" rx="352.7" ry="36"/>
<text text-anchor="middle" x="1462.97" y="-257.6" font-family="Times,serif" font-size="18.00">action:</text>
<text text-anchor="middle" x="1462.97" y="-237.6" font-family="Times,serif" font-size="18.00"> place(left_hand, outwardgripper, lampshade, lampbulb)</text>
</g>
<!-- sequence:
 place(left_hand, outwardgripper, lampshade, lampbulb)&#45;&gt;action:
 place(left_hand, outwardgripper, lampshade, lampbulb) -->
<g id="edge10" class="edge">
<title>sequence:
 place(left_hand, outwardgripper, lampshade, lampbulb)&#45;&gt;action:
 place(left_hand, outwardgripper, lampshade, lampbulb)</title>
<path fill="none" stroke="black" d="M995.45,-324C1081.12,-310.99 1177.59,-296.34 1260.56,-283.74"/>
<polygon fill="black" stroke="black" points="1261.25,-287.17 1270.61,-282.21 1260.2,-280.25 1261.25,-287.17"/>
</g>
<!-- target:
 hold(outwardgripper, lampshade) -->
<g id="node6" class="node">
<title>target:
 hold(outwardgripper, lampshade)</title>
<ellipse fill="#ffec8b" stroke="black" cx="534.97" cy="-144" rx="217.19" ry="36"/>
<text text-anchor="middle" x="534.97" y="-149.6" font-family="Times,serif" font-size="18.00">target:</text>
<text text-anchor="middle" x="534.97" y="-129.6" font-family="Times,serif" font-size="18.00"> hold(outwardgripper, lampshade)</text>
</g>
<!-- selector:
 pick_up(left_hand, outwardgripper, lampshade)&#45;&gt;target:
 hold(outwardgripper, lampshade) -->
<g id="edge5" class="edge">
<title>selector:
 pick_up(left_hand, outwardgripper, lampshade)&#45;&gt;target:
 hold(outwardgripper, lampshade)</title>
<path fill="none" stroke="black" d="M689.02,-216C665.68,-205.24 639.92,-193.37 616.24,-182.46"/>
<polygon fill="black" stroke="black" points="617.48,-179.17 606.93,-178.17 614.55,-185.53 617.48,-179.17"/>
</g>
<!-- sequence:
 pick_up(left_hand, outwardgripper, lampshade) -->
<g id="node7" class="node">
<title>sequence:
 pick_up(left_hand, outwardgripper, lampshade)</title>
<polygon fill="#ff7f24" stroke="black" points="1221.47,-180 770.47,-180 770.47,-108 1221.47,-108 1221.47,-180"/>
<text text-anchor="middle" x="995.97" y="-149.6" font-family="Times,serif" font-size="18.00">sequence:</text>
<text text-anchor="middle" x="995.97" y="-129.6" font-family="Times,serif" font-size="18.00"> pick_up(left_hand, outwardgripper, lampshade)</text>
</g>
<!-- selector:
 pick_up(left_hand, outwardgripper, lampshade)&#45;&gt;sequence:
 pick_up(left_hand, outwardgripper, lampshade) -->
<g id="edge6" class="edge">
<title>selector:
 pick_up(left_hand, outwardgripper, lampshade)&#45;&gt;sequence:
 pick_up(left_hand, outwardgripper, lampshade)</title>
<path fill="none" stroke="black" d="M841.25,-216C863.31,-205.87 887.53,-194.76 910.13,-184.39"/>
<polygon fill="black" stroke="black" points="911.75,-187.5 919.37,-180.15 908.83,-181.14 911.75,-187.5"/>
</g>
<!-- precondition:
 is_empty(outwardgripper) -->
<g id="node8" class="node">
<title>precondition:
 is_empty(outwardgripper)</title>
<ellipse fill="#ffec8b" stroke="black" cx="601.97" cy="-36" rx="173.99" ry="36"/>
<text text-anchor="middle" x="601.97" y="-41.6" font-family="Times,serif" font-size="18.00">precondition:</text>
<text text-anchor="middle" x="601.97" y="-21.6" font-family="Times,serif" font-size="18.00"> is_empty(outwardgripper)</text>
</g>
<!-- sequence:
 pick_up(left_hand, outwardgripper, lampshade)&#45;&gt;precondition:
 is_empty(outwardgripper) -->
<g id="edge7" class="edge">
<title>sequence:
 pick_up(left_hand, outwardgripper, lampshade)&#45;&gt;precondition:
 is_empty(outwardgripper)</title>
<path fill="none" stroke="black" d="M865.86,-108C817.32,-94.94 762.62,-80.22 715.66,-67.59"/>
<polygon fill="black" stroke="black" points="716.33,-64.14 705.76,-64.92 714.51,-70.9 716.33,-64.14"/>
</g>
<!-- precondition:
 hold(left_hand, inwardgripper) -->
<g id="node9" class="node">
<title>precondition:
 hold(left_hand, inwardgripper)</title>
<ellipse fill="#ffec8b" stroke="black" cx="995.97" cy="-36" rx="201.83" ry="36"/>
<text text-anchor="middle" x="995.97" y="-41.6" font-family="Times,serif" font-size="18.00">precondition:</text>
<text text-anchor="middle" x="995.97" y="-21.6" font-family="Times,serif" font-size="18.00"> hold(left_hand, inwardgripper)</text>
</g>
<!-- sequence:
 pick_up(left_hand, outwardgripper, lampshade)&#45;&gt;precondition:
 hold(left_hand, inwardgripper) -->
<g id="edge8" class="edge">
<title>sequence:
 pick_up(left_hand, outwardgripper, lampshade)&#45;&gt;precondition:
 hold(left_hand, inwardgripper)</title>
<path fill="none" stroke="black" d="M995.97,-108C995.97,-99.85 995.97,-91.06 995.97,-82.54"/>
<polygon fill="black" stroke="black" points="999.47,-82.33 995.97,-72.33 992.47,-82.33 999.47,-82.33"/>
</g>
<!-- action:
 pick_up(left_hand, outwardgripper, lampshade) -->
<g id="node10" class="node">
<title>action:
 pick_up(left_hand, outwardgripper, lampshade)</title>
<ellipse fill="lightgreen" stroke="black" cx="1517.97" cy="-36" rx="302.58" ry="36"/>
<text text-anchor="middle" x="1517.97" y="-41.6" font-family="Times,serif" font-size="18.00">action:</text>
<text text-anchor="middle" x="1517.97" y="-21.6" font-family="Times,serif" font-size="18.00"> pick_up(left_hand, outwardgripper, lampshade)</text>
</g>
<!-- sequence:
 pick_up(left_hand, outwardgripper, lampshade)&#45;&gt;action:
 pick_up(left_hand, outwardgripper, lampshade) -->
<g id="edge9" class="edge">
<title>sequence:
 pick_up(left_hand, outwardgripper, lampshade)&#45;&gt;action:
 pick_up(left_hand, outwardgripper, lampshade)</title>
<path fill="none" stroke="black" d="M1168.34,-108C1229.66,-95.54 1298.39,-81.59 1358.58,-69.37"/>
<polygon fill="black" stroke="black" points="1359.45,-72.76 1368.55,-67.34 1358.06,-65.9 1359.45,-72.76"/>
</g>
</g>
</svg>
