<?xml version="1.0" encoding="UTF-8" standalone="no"?>
<!DOCTYPE svg PUBLIC "-//W3C//DTD SVG 1.1//EN"
 "http://www.w3.org/Graphics/SVG/1.1/DTD/svg11.dtd">
<!-- Generated by graphviz version 2.43.0 (0)
 -->
<!-- Title: pastafarianism Pages: 1 -->
<svg width="2091pt" height="503pt"
 viewBox="0.00 0.00 2090.58 502.60" xmlns="http://www.w3.org/2000/svg" xmlns:xlink="http://www.w3.org/1999/xlink">
<g id="graph0" class="graph" transform="scale(1 1) rotate(0) translate(4 498.6)">
<title>pastafarianism</title>
<polygon fill="white" stroke="transparent" points="-4,4 -4,-498.6 2086.58,-498.6 2086.58,4 -4,4"/>
<!-- selector:
 screw(left_hand, inwardgripper, chairnut1, chairseatbolt1) -->
<g id="node1" class="node">
<title>selector:
 screw(left_hand, inwardgripper, chairnut1, chairseatbolt1)</title>
<polygon fill="#8deeee" stroke="black" points="1205.87,-442.54 1205.87,-473.18 957.48,-494.84 606.2,-494.84 357.81,-473.18 357.81,-442.54 606.2,-420.88 957.48,-420.88 1205.87,-442.54"/>
<text text-anchor="middle" x="781.84" y="-463.46" font-family="Times,serif" font-size="18.00">selector:</text>
<text text-anchor="middle" x="781.84" y="-443.46" font-family="Times,serif" font-size="18.00"> screw(left_hand, inwardgripper, chairnut1, chairseatbolt1)</text>
</g>
<!-- target:
 is_screwed_to(chairnut1, chairseatbolt1) -->
<g id="node2" class="node">
<title>target:
 is_screwed_to(chairnut1, chairseatbolt1)</title>
<ellipse fill="#ffec8b" stroke="black" cx="496.84" cy="-351.18" rx="276.46" ry="33.88"/>
<text text-anchor="middle" x="496.84" y="-356.78" font-family="Times,serif" font-size="18.00">target:</text>
<text text-anchor="middle" x="496.84" y="-336.78" font-family="Times,serif" font-size="18.00"> is_screwed_to(chairnut1, chairseatbolt1)</text>
</g>
<!-- selector:
 screw(left_hand, inwardgripper, chairnut1, chairseatbolt1)&#45;&gt;target:
 is_screwed_to(chairnut1, chairseatbolt1) -->
<g id="edge1" class="edge">
<title>selector:
 screw(left_hand, inwardgripper, chairnut1, chairseatbolt1)&#45;&gt;target:
 is_screwed_to(chairnut1, chairseatbolt1)</title>
<path fill="none" stroke="black" d="M684.16,-420.98C654.35,-410.03 621.63,-398.02 591.99,-387.13"/>
<polygon fill="black" stroke="black" points="593.08,-383.8 582.49,-383.64 590.67,-390.37 593.08,-383.8"/>
</g>
<!-- sequence:
 screw(left_hand, inwardgripper, chairnut1, chairseatbolt1) -->
<g id="node3" class="node">
<title>sequence:
 screw(left_hand, inwardgripper, chairnut1, chairseatbolt1)</title>
<polygon fill="#ff7f24" stroke="black" points="1344.84,-375.18 790.84,-375.18 790.84,-327.18 1344.84,-327.18 1344.84,-375.18"/>
<text text-anchor="middle" x="1067.84" y="-356.78" font-family="Times,serif" font-size="18.00">sequence:</text>
<text text-anchor="middle" x="1067.84" y="-336.78" font-family="Times,serif" font-size="18.00"> screw(left_hand, inwardgripper, chairnut1, chairseatbolt1)</text>
</g>
<!-- selector:
 screw(left_hand, inwardgripper, chairnut1, chairseatbolt1)&#45;&gt;sequence:
 screw(left_hand, inwardgripper, chairnut1, chairseatbolt1) -->
<g id="edge2" class="edge">
<title>selector:
 screw(left_hand, inwardgripper, chairnut1, chairseatbolt1)&#45;&gt;sequence:
 screw(left_hand, inwardgripper, chairnut1, chairseatbolt1)</title>
<path fill="none" stroke="black" d="M879.86,-420.98C917.7,-407.13 960.22,-391.57 995.23,-378.76"/>
<polygon fill="black" stroke="black" points="996.71,-381.94 1004.9,-375.22 994.3,-375.37 996.71,-381.94"/>
</g>
<!-- selector:
 change_tool(left_hand, clampgripper, inwardgripper) -->
<g id="node4" class="node">
<title>selector:
 change_tool(left_hand, clampgripper, inwardgripper)</title>
<polygon fill="#8deeee" stroke="black" points="836.24,-229.19 836.24,-259.82 611.65,-281.48 294.03,-281.48 69.44,-259.82 69.44,-229.19 294.03,-207.53 611.65,-207.53 836.24,-229.19"/>
<text text-anchor="middle" x="452.84" y="-250.1" font-family="Times,serif" font-size="18.00">selector:</text>
<text text-anchor="middle" x="452.84" y="-230.1" font-family="Times,serif" font-size="18.00"> change_tool(left_hand, clampgripper, inwardgripper)</text>
</g>
<!-- sequence:
 screw(left_hand, inwardgripper, chairnut1, chairseatbolt1)&#45;&gt;selector:
 change_tool(left_hand, clampgripper, inwardgripper) -->
<g id="edge3" class="edge">
<title>sequence:
 screw(left_hand, inwardgripper, chairnut1, chairseatbolt1)&#45;&gt;selector:
 change_tool(left_hand, clampgripper, inwardgripper)</title>
<path fill="none" stroke="black" d="M932.49,-327.14C851.2,-313.31 746.21,-295.44 655.2,-279.95"/>
<polygon fill="black" stroke="black" points="655.75,-276.49 645.31,-278.26 654.58,-283.39 655.75,-276.49"/>
</g>
<!-- precondition:
 hold(inwardgripper, chairnut1) -->
<g id="node10" class="node">
<title>precondition:
 hold(inwardgripper, chairnut1)</title>
<ellipse fill="#ffec8b" stroke="black" cx="1067.84" cy="-244.5" rx="213.59" ry="33.88"/>
<text text-anchor="middle" x="1067.84" y="-250.1" font-family="Times,serif" font-size="18.00">precondition:</text>
<text text-anchor="middle" x="1067.84" y="-230.1" font-family="Times,serif" font-size="18.00"> hold(inwardgripper, chairnut1)</text>
</g>
<!-- sequence:
 screw(left_hand, inwardgripper, chairnut1, chairseatbolt1)&#45;&gt;precondition:
 hold(inwardgripper, chairnut1) -->
<g id="edge9" class="edge">
<title>sequence:
 screw(left_hand, inwardgripper, chairnut1, chairseatbolt1)&#45;&gt;precondition:
 hold(inwardgripper, chairnut1)</title>
<path fill="none" stroke="black" d="M1067.84,-326.95C1067.84,-315.73 1067.84,-301.9 1067.84,-288.84"/>
<polygon fill="black" stroke="black" points="1071.34,-288.6 1067.84,-278.6 1064.34,-288.6 1071.34,-288.6"/>
</g>
<!-- action:
 screw(left_hand, inwardgripper, chairnut1, chairseatbolt1) -->
<g id="node11" class="node">
<title>action:
 screw(left_hand, inwardgripper, chairnut1, chairseatbolt1)</title>
<ellipse fill="lightgreen" stroke="black" cx="1690.84" cy="-244.5" rx="391.97" ry="33.88"/>
<text text-anchor="middle" x="1690.84" y="-250.1" font-family="Times,serif" font-size="18.00">action:</text>
<text text-anchor="middle" x="1690.84" y="-230.1" font-family="Times,serif" font-size="18.00"> screw(left_hand, inwardgripper, chairnut1, chairseatbolt1)</text>
</g>
<!-- sequence:
 screw(left_hand, inwardgripper, chairnut1, chairseatbolt1)&#45;&gt;action:
 screw(left_hand, inwardgripper, chairnut1, chairseatbolt1) -->
<g id="edge10" class="edge">
<title>sequence:
 screw(left_hand, inwardgripper, chairnut1, chairseatbolt1)&#45;&gt;action:
 screw(left_hand, inwardgripper, chairnut1, chairseatbolt1)</title>
<path fill="none" stroke="black" d="M1204.94,-327.14C1293.35,-312.29 1409.42,-292.79 1505.94,-276.57"/>
<polygon fill="black" stroke="black" points="1506.53,-280.02 1515.81,-274.91 1505.37,-273.12 1506.53,-280.02"/>
</g>
<!-- target:
 hold(left_hand, inwardgripper) -->
<g id="node5" class="node">
<title>target:
 hold(left_hand, inwardgripper)</title>
<ellipse fill="#ffec8b" stroke="black" cx="212.84" cy="-137.82" rx="212.68" ry="33.88"/>
<text text-anchor="middle" x="212.84" y="-143.42" font-family="Times,serif" font-size="18.00">target:</text>
<text text-anchor="middle" x="212.84" y="-123.42" font-family="Times,serif" font-size="18.00"> hold(left_hand, inwardgripper)</text>
</g>
<!-- selector:
 change_tool(left_hand, clampgripper, inwardgripper)&#45;&gt;target:
 hold(left_hand, inwardgripper) -->
<g id="edge4" class="edge">
<title>selector:
 change_tool(left_hand, clampgripper, inwardgripper)&#45;&gt;target:
 hold(left_hand, inwardgripper)</title>
<path fill="none" stroke="black" d="M370.58,-207.62C345.67,-196.76 318.35,-184.84 293.55,-174.03"/>
<polygon fill="black" stroke="black" points="294.74,-170.73 284.18,-169.94 291.94,-177.14 294.74,-170.73"/>
</g>
<!-- sequence:
 change_tool(left_hand, clampgripper, inwardgripper) -->
<g id="node6" class="node">
<title>sequence:
 change_tool(left_hand, clampgripper, inwardgripper)</title>
<polygon fill="#ff7f24" stroke="black" points="944.34,-161.82 443.34,-161.82 443.34,-113.82 944.34,-113.82 944.34,-161.82"/>
<text text-anchor="middle" x="693.84" y="-143.42" font-family="Times,serif" font-size="18.00">sequence:</text>
<text text-anchor="middle" x="693.84" y="-123.42" font-family="Times,serif" font-size="18.00"> change_tool(left_hand, clampgripper, inwardgripper)</text>
</g>
<!-- selector:
 change_tool(left_hand, clampgripper, inwardgripper)&#45;&gt;sequence:
 change_tool(left_hand, clampgripper, inwardgripper) -->
<g id="edge5" class="edge">
<title>selector:
 change_tool(left_hand, clampgripper, inwardgripper)&#45;&gt;sequence:
 change_tool(left_hand, clampgripper, inwardgripper)</title>
<path fill="none" stroke="black" d="M535.44,-207.62C566.92,-193.95 602.23,-178.61 631.52,-165.89"/>
<polygon fill="black" stroke="black" points="633.02,-169.05 640.8,-161.86 630.24,-162.63 633.02,-169.05"/>
</g>
<!-- precondition:
 hold(left_hand, clampgripper) -->
<g id="node7" class="node">
<title>precondition:
 hold(left_hand, clampgripper)</title>
<ellipse fill="#ffec8b" stroke="black" cx="299.84" cy="-33.94" rx="207.36" ry="33.88"/>
<text text-anchor="middle" x="299.84" y="-39.54" font-family="Times,serif" font-size="18.00">precondition:</text>
<text text-anchor="middle" x="299.84" y="-19.54" font-family="Times,serif" font-size="18.00"> hold(left_hand, clampgripper)</text>
</g>
<!-- sequence:
 change_tool(left_hand, clampgripper, inwardgripper)&#45;&gt;precondition:
 hold(left_hand, clampgripper) -->
<g id="edge6" class="edge">
<title>sequence:
 change_tool(left_hand, clampgripper, inwardgripper)&#45;&gt;precondition:
 hold(left_hand, clampgripper)</title>
<path fill="none" stroke="black" d="M604.43,-113.7C549.27,-99.44 477.87,-80.98 418.06,-65.51"/>
<polygon fill="black" stroke="black" points="418.74,-62.07 408.18,-62.96 416.99,-68.85 418.74,-62.07"/>
</g>
<!-- precondition:
 is_empty(clampgripper) -->
<g id="node8" class="node">
<title>precondition:
 is_empty(clampgripper)</title>
<ellipse fill="#ffec8b" stroke="black" cx="693.84" cy="-33.94" rx="169" ry="33.88"/>
<text text-anchor="middle" x="693.84" y="-39.54" font-family="Times,serif" font-size="18.00">precondition:</text>
<text text-anchor="middle" x="693.84" y="-19.54" font-family="Times,serif" font-size="18.00"> is_empty(clampgripper)</text>
</g>
<!-- sequence:
 change_tool(left_hand, clampgripper, inwardgripper)&#45;&gt;precondition:
 is_empty(clampgripper) -->
<g id="edge7" class="edge">
<title>sequence:
 change_tool(left_hand, clampgripper, inwardgripper)&#45;&gt;precondition:
 is_empty(clampgripper)</title>
<path fill="none" stroke="black" d="M693.84,-113.7C693.84,-103.16 693.84,-90.31 693.84,-78.08"/>
<polygon fill="black" stroke="black" points="697.34,-78.01 693.84,-68.01 690.34,-78.01 697.34,-78.01"/>
</g>
<!-- action:
 change_tool(left_hand, clampgripper, inwardgripper) -->
<g id="node9" class="node">
<title>action:
 change_tool(left_hand, clampgripper, inwardgripper)</title>
<ellipse fill="lightgreen" stroke="black" cx="1234.84" cy="-33.94" rx="354.02" ry="33.88"/>
<text text-anchor="middle" x="1234.84" y="-39.54" font-family="Times,serif" font-size="18.00">action:</text>
<text text-anchor="middle" x="1234.84" y="-19.54" font-family="Times,serif" font-size="18.00"> change_tool(left_hand, clampgripper, inwardgripper)</text>
</g>
<!-- sequence:
 change_tool(left_hand, clampgripper, inwardgripper)&#45;&gt;action:
 change_tool(left_hand, clampgripper, inwardgripper) -->
<g id="edge8" class="edge">
<title>sequence:
 change_tool(left_hand, clampgripper, inwardgripper)&#45;&gt;action:
 change_tool(left_hand, clampgripper, inwardgripper)</title>
<path fill="none" stroke="black" d="M816.26,-113.77C890.84,-99.72 987.13,-81.59 1068.55,-66.26"/>
<polygon fill="black" stroke="black" points="1069.23,-69.69 1078.41,-64.4 1067.93,-62.81 1069.23,-69.69"/>
</g>
</g>
</svg>
