<?xml version="1.0" encoding="UTF-8" standalone="no"?>
<!DOCTYPE svg PUBLIC "-//W3C//DTD SVG 1.1//EN"
 "http://www.w3.org/Graphics/SVG/1.1/DTD/svg11.dtd">
<!-- Generated by graphviz version 2.43.0 (0)
 -->
<!-- Title: pastafarianism Pages: 1 -->
<svg width="1453pt" height="476pt"
 viewBox="0.00 0.00 1453.38 476.00" xmlns="http://www.w3.org/2000/svg" xmlns:xlink="http://www.w3.org/1999/xlink">
<g id="graph0" class="graph" transform="scale(1 1) rotate(0) translate(4 472)">
<title>pastafarianism</title>
<polygon fill="white" stroke="transparent" points="-4,4 -4,-472 1449.38,-472 1449.38,4 -4,4"/>
<!-- Sequence -->
<g id="node1" class="node">
<title>Sequence</title>
<polygon fill="orange" stroke="black" points="697.08,-468 635.08,-468 635.08,-432 697.08,-432 697.08,-468"/>
<text text-anchor="middle" x="666.08" y="-447.8" font-family="Times,serif" font-size="9.00">Sequence</text>
</g>
<!-- Fallback -->
<g id="node2" class="node">
<title>Fallback</title>
<polygon fill="cyan" stroke="black" points="406.07,-370.54 406.07,-385.46 385.57,-396 356.59,-396 336.09,-385.46 336.09,-370.54 356.59,-360 385.57,-360 406.07,-370.54"/>
<text text-anchor="middle" x="371.08" y="-375.8" font-family="Times,serif" font-size="9.00">Fallback</text>
</g>
<!-- Sequence&#45;&gt;Fallback -->
<g id="edge1" class="edge">
<title>Sequence&#45;&gt;Fallback</title>
<path fill="none" stroke="black" d="M635.07,-441.64C582.07,-429.06 473.98,-403.42 413.85,-389.15"/>
<polygon fill="black" stroke="black" points="414.45,-385.69 403.92,-386.79 412.84,-392.51 414.45,-385.69"/>
</g>
<!-- Fallback &#160;&#160; -->
<g id="node13" class="node">
<title>Fallback &#160;&#160;</title>
<polygon fill="cyan" stroke="black" points="701.07,-370.54 701.07,-385.46 680.57,-396 651.59,-396 631.09,-385.46 631.09,-370.54 651.59,-360 680.57,-360 701.07,-370.54"/>
<text text-anchor="middle" x="666.08" y="-375.8" font-family="Times,serif" font-size="9.00">Fallback</text>
</g>
<!-- Sequence&#45;&gt;Fallback &#160;&#160; -->
<g id="edge12" class="edge">
<title>Sequence&#45;&gt;Fallback &#160;&#160;</title>
<path fill="none" stroke="black" d="M666.08,-431.7C666.08,-423.98 666.08,-414.71 666.08,-406.11"/>
<polygon fill="black" stroke="black" points="669.58,-406.1 666.08,-396.1 662.58,-406.1 669.58,-406.1"/>
</g>
<!-- Fallback &#160;&#160;&#160;&#160;&#160; -->
<g id="node24" class="node">
<title>Fallback &#160;&#160;&#160;&#160;&#160;</title>
<polygon fill="cyan" stroke="black" points="996.07,-370.54 996.07,-385.46 975.57,-396 946.59,-396 926.09,-385.46 926.09,-370.54 946.59,-360 975.57,-360 996.07,-370.54"/>
<text text-anchor="middle" x="961.08" y="-375.8" font-family="Times,serif" font-size="9.00">Fallback</text>
</g>
<!-- Sequence&#45;&gt;Fallback &#160;&#160;&#160;&#160;&#160; -->
<g id="edge23" class="edge">
<title>Sequence&#45;&gt;Fallback &#160;&#160;&#160;&#160;&#160;</title>
<path fill="none" stroke="black" d="M697.09,-441.64C750.09,-429.06 858.18,-403.42 918.31,-389.15"/>
<polygon fill="black" stroke="black" points="919.32,-392.51 928.24,-386.79 917.71,-385.69 919.32,-392.51"/>
</g>
<!-- object_at YellowBox [&#45;0.133, 0.0, 0.175] 0.02 KittingBox -->
<g id="node3" class="node">
<title>object_at YellowBox [&#45;0.133, 0.0, 0.175] 0.02 KittingBox</title>
<ellipse fill="lightgray" stroke="black" cx="161.08" cy="-306" rx="161.16" ry="18"/>
<text text-anchor="middle" x="161.08" y="-303.8" font-family="Times,serif" font-size="9.00">object_at YellowBox [&#45;0.133, 0.0, 0.175] 0.02 KittingBox</text>
</g>
<!-- Fallback&#45;&gt;object_at YellowBox [&#45;0.133, 0.0, 0.175] 0.02 KittingBox -->
<g id="edge2" class="edge">
<title>Fallback&#45;&gt;object_at YellowBox [&#45;0.133, 0.0, 0.175] 0.02 KittingBox</title>
<path fill="none" stroke="black" d="M341.88,-367.27C310.33,-356.75 259.24,-339.72 219.4,-326.44"/>
<polygon fill="black" stroke="black" points="220.39,-323.08 209.8,-323.24 218.18,-329.72 220.39,-323.08"/>
</g>
<!-- Sequence  -->
<g id="node4" class="node">
<title>Sequence </title>
<polygon fill="orange" stroke="black" points="402.08,-324 340.08,-324 340.08,-288 402.08,-288 402.08,-324"/>
<text text-anchor="middle" x="371.08" y="-303.8" font-family="Times,serif" font-size="9.00">Sequence</text>
</g>
<!-- Fallback&#45;&gt;Sequence  -->
<g id="edge3" class="edge">
<title>Fallback&#45;&gt;Sequence </title>
<path fill="none" stroke="black" d="M371.08,-359.7C371.08,-351.98 371.08,-342.71 371.08,-334.11"/>
<polygon fill="black" stroke="black" points="374.58,-334.1 371.08,-324.1 367.58,-334.1 374.58,-334.1"/>
</g>
<!-- Fallback  -->
<g id="node5" class="node">
<title>Fallback </title>
<polygon fill="cyan" stroke="black" points="242.07,-226.54 242.07,-241.46 221.57,-252 192.59,-252 172.09,-241.46 172.09,-226.54 192.59,-216 221.57,-216 242.07,-226.54"/>
<text text-anchor="middle" x="207.08" y="-231.8" font-family="Times,serif" font-size="9.00">Fallback</text>
</g>
<!-- Sequence &#45;&gt;Fallback  -->
<g id="edge4" class="edge">
<title>Sequence &#45;&gt;Fallback </title>
<path fill="none" stroke="black" d="M339.85,-291.67C312.04,-279.8 271.4,-262.45 242.42,-250.08"/>
<polygon fill="black" stroke="black" points="243.64,-246.8 233.07,-246.09 240.89,-253.24 243.64,-246.8"/>
</g>
<!-- place0 YellowBox [&#45;0.133, 0.0, 0.175] 0.02 KittingBox -->
<g id="node12" class="node">
<title>place0 YellowBox [&#45;0.133, 0.0, 0.175] 0.02 KittingBox</title>
<ellipse fill="lightgray" stroke="black" cx="415.08" cy="-234" rx="154.96" ry="18"/>
<text text-anchor="middle" x="415.08" y="-231.8" font-family="Times,serif" font-size="9.00">place0 YellowBox [&#45;0.133, 0.0, 0.175] 0.02 KittingBox</text>
</g>
<!-- Sequence &#45;&gt;place0 YellowBox [&#45;0.133, 0.0, 0.175] 0.02 KittingBox -->
<g id="edge11" class="edge">
<title>Sequence &#45;&gt;place0 YellowBox [&#45;0.133, 0.0, 0.175] 0.02 KittingBox</title>
<path fill="none" stroke="black" d="M381.96,-287.7C387.07,-279.56 393.28,-269.69 398.93,-260.7"/>
<polygon fill="black" stroke="black" points="401.97,-262.43 404.33,-252.1 396.04,-258.71 401.97,-262.43"/>
</g>
<!-- in_gripper YellowBox -->
<g id="node6" class="node">
<title>in_gripper YellowBox</title>
<ellipse fill="lightgray" stroke="black" cx="181.08" cy="-162" rx="66.29" ry="18"/>
<text text-anchor="middle" x="181.08" y="-159.8" font-family="Times,serif" font-size="9.00">in_gripper YellowBox</text>
</g>
<!-- Fallback &#45;&gt;in_gripper YellowBox -->
<g id="edge5" class="edge">
<title>Fallback &#45;&gt;in_gripper YellowBox</title>
<path fill="none" stroke="black" d="M200.65,-215.7C197.73,-207.81 194.19,-198.3 190.94,-189.55"/>
<polygon fill="black" stroke="black" points="194.2,-188.26 187.43,-180.1 187.63,-190.7 194.2,-188.26"/>
</g>
<!-- Sequence &#160; -->
<g id="node7" class="node">
<title>Sequence &#160;</title>
<polygon fill="orange" stroke="black" points="327.08,-180 265.08,-180 265.08,-144 327.08,-144 327.08,-180"/>
<text text-anchor="middle" x="296.08" y="-159.8" font-family="Times,serif" font-size="9.00">Sequence</text>
</g>
<!-- Fallback &#45;&gt;Sequence &#160; -->
<g id="edge6" class="edge">
<title>Fallback &#45;&gt;Sequence &#160;</title>
<path fill="none" stroke="black" d="M225.96,-218.15C237.7,-208.92 253.06,-196.83 266.41,-186.33"/>
<polygon fill="black" stroke="black" points="268.72,-188.97 274.42,-180.04 264.39,-183.47 268.72,-188.97"/>
</g>
<!-- Fallback &#160; -->
<g id="node8" class="node">
<title>Fallback &#160;</title>
<polygon fill="cyan" stroke="black" points="325.07,-82.54 325.07,-97.46 304.57,-108 275.59,-108 255.09,-97.46 255.09,-82.54 275.59,-72 304.57,-72 325.07,-82.54"/>
<text text-anchor="middle" x="290.08" y="-87.8" font-family="Times,serif" font-size="9.00">Fallback</text>
</g>
<!-- Sequence &#160;&#45;&gt;Fallback &#160; -->
<g id="edge7" class="edge">
<title>Sequence &#160;&#45;&gt;Fallback &#160;</title>
<path fill="none" stroke="black" d="M294.6,-143.7C293.94,-135.98 293.14,-126.71 292.4,-118.11"/>
<polygon fill="black" stroke="black" points="295.89,-117.77 291.55,-108.1 288.91,-118.37 295.89,-117.77"/>
</g>
<!-- pick0 YellowBox -->
<g id="node11" class="node">
<title>pick0 YellowBox</title>
<ellipse fill="lightgray" stroke="black" cx="396.08" cy="-90" rx="53.23" ry="18"/>
<text text-anchor="middle" x="396.08" y="-87.8" font-family="Times,serif" font-size="9.00">pick0 YellowBox</text>
</g>
<!-- Sequence &#160;&#45;&gt;pick0 YellowBox -->
<g id="edge10" class="edge">
<title>Sequence &#160;&#45;&gt;pick0 YellowBox</title>
<path fill="none" stroke="black" d="M320.54,-143.88C334.05,-134.42 350.95,-122.59 365.34,-112.52"/>
<polygon fill="black" stroke="black" points="367.73,-115.12 373.92,-106.51 363.72,-109.38 367.73,-115.12"/>
</g>
<!-- gripper_state open -->
<g id="node9" class="node">
<title>gripper_state open</title>
<ellipse fill="lightgray" stroke="black" cx="208.08" cy="-18" rx="60.09" ry="18"/>
<text text-anchor="middle" x="208.08" y="-15.8" font-family="Times,serif" font-size="9.00">gripper_state open</text>
</g>
<!-- Fallback &#160;&#45;&gt;gripper_state open -->
<g id="edge8" class="edge">
<title>Fallback &#160;&#45;&gt;gripper_state open</title>
<path fill="none" stroke="black" d="M271.88,-73.46C260.97,-64.15 246.89,-52.13 234.74,-41.76"/>
<polygon fill="black" stroke="black" points="236.96,-39.05 227.08,-35.22 232.42,-44.38 236.96,-39.05"/>
</g>
<!-- open_gripper -->
<g id="node10" class="node">
<title>open_gripper</title>
<ellipse fill="lightgray" stroke="black" cx="332.08" cy="-18" rx="45.72" ry="18"/>
<text text-anchor="middle" x="332.08" y="-15.8" font-family="Times,serif" font-size="9.00">open_gripper</text>
</g>
<!-- Fallback &#160;&#45;&gt;open_gripper -->
<g id="edge9" class="edge">
<title>Fallback &#160;&#45;&gt;open_gripper</title>
<path fill="none" stroke="black" d="M300.46,-71.7C305.42,-63.44 311.44,-53.39 316.9,-44.3"/>
<polygon fill="black" stroke="black" points="319.96,-46 322.11,-35.62 313.96,-42.4 319.96,-46"/>
</g>
<!-- object_at BlueBox [0.0, 0.0, 0.175] 0.02 KittingBox -->
<g id="node14" class="node">
<title>object_at BlueBox [0.0, 0.0, 0.175] 0.02 KittingBox</title>
<ellipse fill="lightgray" stroke="black" cx="568.08" cy="-306" rx="147.6" ry="18"/>
<text text-anchor="middle" x="568.08" y="-303.8" font-family="Times,serif" font-size="9.00">object_at BlueBox [0.0, 0.0, 0.175] 0.02 KittingBox</text>
</g>
<!-- Fallback &#160;&#160;&#45;&gt;object_at BlueBox [0.0, 0.0, 0.175] 0.02 KittingBox -->
<g id="edge13" class="edge">
<title>Fallback &#160;&#160;&#45;&gt;object_at BlueBox [0.0, 0.0, 0.175] 0.02 KittingBox</title>
<path fill="none" stroke="black" d="M645.78,-362.5C632.65,-353.12 615.29,-340.72 600.31,-330.02"/>
<polygon fill="black" stroke="black" points="601.98,-326.91 591.81,-323.95 597.91,-332.61 601.98,-326.91"/>
</g>
<!-- Sequence &#160;&#160; -->
<g id="node15" class="node">
<title>Sequence &#160;&#160;</title>
<polygon fill="orange" stroke="black" points="796.08,-324 734.08,-324 734.08,-288 796.08,-288 796.08,-324"/>
<text text-anchor="middle" x="765.08" y="-303.8" font-family="Times,serif" font-size="9.00">Sequence</text>
</g>
<!-- Fallback &#160;&#160;&#45;&gt;Sequence &#160;&#160; -->
<g id="edge14" class="edge">
<title>Fallback &#160;&#160;&#45;&gt;Sequence &#160;&#160;</title>
<path fill="none" stroke="black" d="M686.11,-362.83C699.46,-353.4 717.31,-340.78 732.65,-329.93"/>
<polygon fill="black" stroke="black" points="734.73,-332.74 740.88,-324.11 730.69,-327.03 734.73,-332.74"/>
</g>
<!-- Fallback &#160;&#160;&#160; -->
<g id="node16" class="node">
<title>Fallback &#160;&#160;&#160;</title>
<polygon fill="cyan" stroke="black" points="671.07,-226.54 671.07,-241.46 650.57,-252 621.59,-252 601.09,-241.46 601.09,-226.54 621.59,-216 650.57,-216 671.07,-226.54"/>
<text text-anchor="middle" x="636.08" y="-231.8" font-family="Times,serif" font-size="9.00">Fallback</text>
</g>
<!-- Sequence &#160;&#160;&#45;&gt;Fallback &#160;&#160;&#160; -->
<g id="edge15" class="edge">
<title>Sequence &#160;&#160;&#45;&gt;Fallback &#160;&#160;&#160;</title>
<path fill="none" stroke="black" d="M733.85,-288.05C714.03,-277.3 688.42,-263.4 668.39,-252.53"/>
<polygon fill="black" stroke="black" points="669.8,-249.31 659.34,-247.62 666.46,-255.47 669.8,-249.31"/>
</g>
<!-- place0 BlueBox [0.0, 0.0, 0.175] 0.02 KittingBox -->
<g id="node23" class="node">
<title>place0 BlueBox [0.0, 0.0, 0.175] 0.02 KittingBox</title>
<ellipse fill="lightgray" stroke="black" cx="830.08" cy="-234" rx="141.4" ry="18"/>
<text text-anchor="middle" x="830.08" y="-231.8" font-family="Times,serif" font-size="9.00">place0 BlueBox [0.0, 0.0, 0.175] 0.02 KittingBox</text>
</g>
<!-- Sequence &#160;&#160;&#45;&gt;place0 BlueBox [0.0, 0.0, 0.175] 0.02 KittingBox -->
<g id="edge22" class="edge">
<title>Sequence &#160;&#160;&#45;&gt;place0 BlueBox [0.0, 0.0, 0.175] 0.02 KittingBox</title>
<path fill="none" stroke="black" d="M781.15,-287.7C789.02,-279.22 798.64,-268.86 807.25,-259.58"/>
<polygon fill="black" stroke="black" points="809.96,-261.81 814.2,-252.1 804.83,-257.05 809.96,-261.81"/>
</g>
<!-- in_gripper BlueBox -->
<g id="node17" class="node">
<title>in_gripper BlueBox</title>
<ellipse fill="lightgray" stroke="black" cx="528.08" cy="-162" rx="61.55" ry="18"/>
<text text-anchor="middle" x="528.08" y="-159.8" font-family="Times,serif" font-size="9.00">in_gripper BlueBox</text>
</g>
<!-- Fallback &#160;&#160;&#160;&#45;&gt;in_gripper BlueBox -->
<g id="edge16" class="edge">
<title>Fallback &#160;&#160;&#160;&#45;&gt;in_gripper BlueBox</title>
<path fill="none" stroke="black" d="M615,-219.34C599.74,-209.44 578.8,-195.87 561.3,-184.53"/>
<polygon fill="black" stroke="black" points="562.8,-181.33 552.51,-178.83 558.99,-187.21 562.8,-181.33"/>
</g>
<!-- Sequence &#160;&#160;&#160; -->
<g id="node18" class="node">
<title>Sequence &#160;&#160;&#160;</title>
<polygon fill="orange" stroke="black" points="670.08,-180 608.08,-180 608.08,-144 670.08,-144 670.08,-180"/>
<text text-anchor="middle" x="639.08" y="-159.8" font-family="Times,serif" font-size="9.00">Sequence</text>
</g>
<!-- Fallback &#160;&#160;&#160;&#45;&gt;Sequence &#160;&#160;&#160; -->
<g id="edge17" class="edge">
<title>Fallback &#160;&#160;&#160;&#45;&gt;Sequence &#160;&#160;&#160;</title>
<path fill="none" stroke="black" d="M636.82,-215.7C637.15,-207.98 637.55,-198.71 637.92,-190.11"/>
<polygon fill="black" stroke="black" points="641.42,-190.25 638.35,-180.1 634.42,-189.95 641.42,-190.25"/>
</g>
<!-- Fallback &#160;&#160;&#160;&#160; -->
<g id="node19" class="node">
<title>Fallback &#160;&#160;&#160;&#160;</title>
<polygon fill="cyan" stroke="black" points="577.07,-82.54 577.07,-97.46 556.57,-108 527.59,-108 507.09,-97.46 507.09,-82.54 527.59,-72 556.57,-72 577.07,-82.54"/>
<text text-anchor="middle" x="542.08" y="-87.8" font-family="Times,serif" font-size="9.00">Fallback</text>
</g>
<!-- Sequence &#160;&#160;&#160;&#45;&gt;Fallback &#160;&#160;&#160;&#160; -->
<g id="edge18" class="edge">
<title>Sequence &#160;&#160;&#160;&#45;&gt;Fallback &#160;&#160;&#160;&#160;</title>
<path fill="none" stroke="black" d="M615.1,-143.7C601.54,-133.91 584.5,-121.61 570.29,-111.36"/>
<polygon fill="black" stroke="black" points="572.02,-108.29 561.87,-105.28 567.93,-113.97 572.02,-108.29"/>
</g>
<!-- pick0 BlueBox -->
<g id="node22" class="node">
<title>pick0 BlueBox</title>
<ellipse fill="lightgray" stroke="black" cx="643.08" cy="-90" rx="47.84" ry="18"/>
<text text-anchor="middle" x="643.08" y="-87.8" font-family="Times,serif" font-size="9.00">pick0 BlueBox</text>
</g>
<!-- Sequence &#160;&#160;&#160;&#45;&gt;pick0 BlueBox -->
<g id="edge21" class="edge">
<title>Sequence &#160;&#160;&#160;&#45;&gt;pick0 BlueBox</title>
<path fill="none" stroke="black" d="M640.07,-143.7C640.51,-135.98 641.04,-126.71 641.53,-118.11"/>
<polygon fill="black" stroke="black" points="645.03,-118.29 642.1,-108.1 638.04,-117.89 645.03,-118.29"/>
</g>
<!-- gripper_state open  -->
<g id="node20" class="node">
<title>gripper_state open </title>
<ellipse fill="lightgray" stroke="black" cx="500.08" cy="-18" rx="60.09" ry="18"/>
<text text-anchor="middle" x="500.08" y="-15.8" font-family="Times,serif" font-size="9.00">gripper_state open</text>
</g>
<!-- Fallback &#160;&#160;&#160;&#160;&#45;&gt;gripper_state open  -->
<g id="edge19" class="edge">
<title>Fallback &#160;&#160;&#160;&#160;&#45;&gt;gripper_state open </title>
<path fill="none" stroke="black" d="M531.7,-71.7C526.82,-63.56 520.89,-53.69 515.5,-44.7"/>
<polygon fill="black" stroke="black" points="518.49,-42.88 510.34,-36.1 512.49,-46.48 518.49,-42.88"/>
</g>
<!-- open_gripper  -->
<g id="node21" class="node">
<title>open_gripper </title>
<ellipse fill="lightgray" stroke="black" cx="624.08" cy="-18" rx="45.72" ry="18"/>
<text text-anchor="middle" x="624.08" y="-15.8" font-family="Times,serif" font-size="9.00">open_gripper</text>
</g>
<!-- Fallback &#160;&#160;&#160;&#160;&#45;&gt;open_gripper  -->
<g id="edge20" class="edge">
<title>Fallback &#160;&#160;&#160;&#160;&#45;&gt;open_gripper </title>
<path fill="none" stroke="black" d="M560.28,-73.46C571.35,-64.02 585.67,-51.79 597.94,-41.32"/>
<polygon fill="black" stroke="black" points="600.32,-43.89 605.65,-34.73 595.77,-38.56 600.32,-43.89"/>
</g>
<!-- object_at GreenBox [0.0, 0.0, 0.22] 0.02 YellowBox -->
<g id="node25" class="node">
<title>object_at GreenBox [0.0, 0.0, 0.22] 0.02 YellowBox</title>
<ellipse fill="lightgray" stroke="black" cx="961.08" cy="-306" rx="146.79" ry="18"/>
<text text-anchor="middle" x="961.08" y="-303.8" font-family="Times,serif" font-size="9.00">object_at GreenBox [0.0, 0.0, 0.22] 0.02 YellowBox</text>
</g>
<!-- Fallback &#160;&#160;&#160;&#160;&#160;&#45;&gt;object_at GreenBox [0.0, 0.0, 0.22] 0.02 YellowBox -->
<g id="edge24" class="edge">
<title>Fallback &#160;&#160;&#160;&#160;&#160;&#45;&gt;object_at GreenBox [0.0, 0.0, 0.22] 0.02 YellowBox</title>
<path fill="none" stroke="black" d="M961.08,-359.7C961.08,-351.98 961.08,-342.71 961.08,-334.11"/>
<polygon fill="black" stroke="black" points="964.58,-334.1 961.08,-324.1 957.58,-334.1 964.58,-334.1"/>
</g>
<!-- Sequence &#160;&#160;&#160;&#160; -->
<g id="node26" class="node">
<title>Sequence &#160;&#160;&#160;&#160;</title>
<polygon fill="orange" stroke="black" points="1188.08,-324 1126.08,-324 1126.08,-288 1188.08,-288 1188.08,-324"/>
<text text-anchor="middle" x="1157.08" y="-303.8" font-family="Times,serif" font-size="9.00">Sequence</text>
</g>
<!-- Fallback &#160;&#160;&#160;&#160;&#160;&#45;&gt;Sequence &#160;&#160;&#160;&#160; -->
<g id="edge25" class="edge">
<title>Fallback &#160;&#160;&#160;&#160;&#160;&#45;&gt;Sequence &#160;&#160;&#160;&#160;</title>
<path fill="none" stroke="black" d="M990.64,-367.68C1020.28,-358.18 1067.38,-342.66 1116.26,-324.19"/>
<polygon fill="black" stroke="black" points="1117.63,-327.42 1125.73,-320.59 1115.14,-320.87 1117.63,-327.42"/>
</g>
<!-- Fallback &#160;&#160;&#160;&#160;&#160;&#160; -->
<g id="node27" class="node">
<title>Fallback &#160;&#160;&#160;&#160;&#160;&#160;</title>
<polygon fill="cyan" stroke="black" points="1147.07,-226.54 1147.07,-241.46 1126.57,-252 1097.59,-252 1077.09,-241.46 1077.09,-226.54 1097.59,-216 1126.57,-216 1147.07,-226.54"/>
<text text-anchor="middle" x="1112.08" y="-231.8" font-family="Times,serif" font-size="9.00">Fallback</text>
</g>
<!-- Sequence &#160;&#160;&#160;&#160;&#45;&gt;Fallback &#160;&#160;&#160;&#160;&#160;&#160; -->
<g id="edge26" class="edge">
<title>Sequence &#160;&#160;&#160;&#160;&#45;&gt;Fallback &#160;&#160;&#160;&#160;&#160;&#160;</title>
<path fill="none" stroke="black" d="M1145.96,-287.7C1140.73,-279.56 1134.38,-269.69 1128.6,-260.7"/>
<polygon fill="black" stroke="black" points="1131.43,-258.62 1123.08,-252.1 1125.54,-262.41 1131.43,-258.62"/>
</g>
<!-- place0 GreenBox [0.0, 0.0, 0.22] 0.02 YellowBox -->
<g id="node34" class="node">
<title>place0 GreenBox [0.0, 0.0, 0.22] 0.02 YellowBox</title>
<ellipse fill="lightgray" stroke="black" cx="1305.08" cy="-234" rx="140.09" ry="18"/>
<text text-anchor="middle" x="1305.08" y="-231.8" font-family="Times,serif" font-size="9.00">place0 GreenBox [0.0, 0.0, 0.22] 0.02 YellowBox</text>
</g>
<!-- Sequence &#160;&#160;&#160;&#160;&#45;&gt;place0 GreenBox [0.0, 0.0, 0.22] 0.02 YellowBox -->
<g id="edge33" class="edge">
<title>Sequence &#160;&#160;&#160;&#160;&#45;&gt;place0 GreenBox [0.0, 0.0, 0.22] 0.02 YellowBox</title>
<path fill="none" stroke="black" d="M1188.11,-290.33C1209.28,-280.31 1237.65,-266.9 1261.14,-255.78"/>
<polygon fill="black" stroke="black" points="1262.66,-258.93 1270.21,-251.49 1259.67,-252.61 1262.66,-258.93"/>
</g>
<!-- in_gripper GreenBox -->
<g id="node28" class="node">
<title>in_gripper GreenBox</title>
<ellipse fill="lightgray" stroke="black" cx="1054.08" cy="-162" rx="65.64" ry="18"/>
<text text-anchor="middle" x="1054.08" y="-159.8" font-family="Times,serif" font-size="9.00">in_gripper GreenBox</text>
</g>
<!-- Fallback &#160;&#160;&#160;&#160;&#160;&#160;&#45;&gt;in_gripper GreenBox -->
<g id="edge27" class="edge">
<title>Fallback &#160;&#160;&#160;&#160;&#160;&#160;&#45;&gt;in_gripper GreenBox</title>
<path fill="none" stroke="black" d="M1097.74,-215.7C1090.69,-207.18 1082.06,-196.76 1074.34,-187.45"/>
<polygon fill="black" stroke="black" points="1076.93,-185.09 1067.85,-179.62 1071.54,-189.56 1076.93,-185.09"/>
</g>
<!-- Sequence &#160;&#160;&#160;&#160;&#160; -->
<g id="node29" class="node">
<title>Sequence &#160;&#160;&#160;&#160;&#160;</title>
<polygon fill="orange" stroke="black" points="1200.08,-180 1138.08,-180 1138.08,-144 1200.08,-144 1200.08,-180"/>
<text text-anchor="middle" x="1169.08" y="-159.8" font-family="Times,serif" font-size="9.00">Sequence</text>
</g>
<!-- Fallback &#160;&#160;&#160;&#160;&#160;&#160;&#45;&gt;Sequence &#160;&#160;&#160;&#160;&#160; -->
<g id="edge28" class="edge">
<title>Fallback &#160;&#160;&#160;&#160;&#160;&#160;&#45;&gt;Sequence &#160;&#160;&#160;&#160;&#160;</title>
<path fill="none" stroke="black" d="M1126.17,-215.7C1133,-207.3 1141.34,-197.07 1148.84,-187.86"/>
<polygon fill="black" stroke="black" points="1151.55,-190.07 1155.15,-180.1 1146.12,-185.65 1151.55,-190.07"/>
</g>
<!-- Fallback &#160;&#160;&#160;&#160;&#160;&#160;&#160; -->
<g id="node30" class="node">
<title>Fallback &#160;&#160;&#160;&#160;&#160;&#160;&#160;</title>
<polygon fill="cyan" stroke="black" points="1151.07,-82.54 1151.07,-97.46 1130.57,-108 1101.59,-108 1081.09,-97.46 1081.09,-82.54 1101.59,-72 1130.57,-72 1151.07,-82.54"/>
<text text-anchor="middle" x="1116.08" y="-87.8" font-family="Times,serif" font-size="9.00">Fallback</text>
</g>
<!-- Sequence &#160;&#160;&#160;&#160;&#160;&#45;&gt;Fallback &#160;&#160;&#160;&#160;&#160;&#160;&#160; -->
<g id="edge29" class="edge">
<title>Sequence &#160;&#160;&#160;&#160;&#160;&#45;&gt;Fallback &#160;&#160;&#160;&#160;&#160;&#160;&#160;</title>
<path fill="none" stroke="black" d="M1155.98,-143.7C1149.69,-135.39 1142.03,-125.28 1135.12,-116.14"/>
<polygon fill="black" stroke="black" points="1137.86,-113.96 1129.03,-108.1 1132.28,-118.19 1137.86,-113.96"/>
</g>
<!-- pick0 GreenBox -->
<g id="node33" class="node">
<title>pick0 GreenBox</title>
<ellipse fill="lightgray" stroke="black" cx="1222.08" cy="-90" rx="52.58" ry="18"/>
<text text-anchor="middle" x="1222.08" y="-87.8" font-family="Times,serif" font-size="9.00">pick0 GreenBox</text>
</g>
<!-- Sequence &#160;&#160;&#160;&#160;&#160;&#45;&gt;pick0 GreenBox -->
<g id="edge32" class="edge">
<title>Sequence &#160;&#160;&#160;&#160;&#160;&#45;&gt;pick0 GreenBox</title>
<path fill="none" stroke="black" d="M1182.18,-143.7C1188.57,-135.27 1196.36,-124.97 1203.35,-115.73"/>
<polygon fill="black" stroke="black" points="1206.25,-117.71 1209.5,-107.62 1200.67,-113.48 1206.25,-117.71"/>
</g>
<!-- gripper_state open &#160; -->
<g id="node31" class="node">
<title>gripper_state open &#160;</title>
<ellipse fill="lightgray" stroke="black" cx="1054.08" cy="-18" rx="60.09" ry="18"/>
<text text-anchor="middle" x="1054.08" y="-15.8" font-family="Times,serif" font-size="9.00">gripper_state open</text>
</g>
<!-- Fallback &#160;&#160;&#160;&#160;&#160;&#160;&#160;&#45;&gt;gripper_state open &#160; -->
<g id="edge30" class="edge">
<title>Fallback &#160;&#160;&#160;&#160;&#160;&#160;&#160;&#45;&gt;gripper_state open &#160;</title>
<path fill="none" stroke="black" d="M1101.07,-72.05C1093.46,-63.46 1084.07,-52.86 1075.69,-43.4"/>
<polygon fill="black" stroke="black" points="1078.2,-40.95 1068.95,-35.79 1072.96,-45.6 1078.2,-40.95"/>
</g>
<!-- open_gripper &#160; -->
<g id="node32" class="node">
<title>open_gripper &#160;</title>
<ellipse fill="lightgray" stroke="black" cx="1178.08" cy="-18" rx="45.72" ry="18"/>
<text text-anchor="middle" x="1178.08" y="-15.8" font-family="Times,serif" font-size="9.00">open_gripper</text>
</g>
<!-- Fallback &#160;&#160;&#160;&#160;&#160;&#160;&#160;&#45;&gt;open_gripper &#160; -->
<g id="edge31" class="edge">
<title>Fallback &#160;&#160;&#160;&#160;&#160;&#160;&#160;&#45;&gt;open_gripper &#160;</title>
<path fill="none" stroke="black" d="M1131.09,-72.05C1138.82,-63.33 1148.37,-52.54 1156.84,-42.98"/>
<polygon fill="black" stroke="black" points="1159.63,-45.11 1163.64,-35.31 1154.39,-40.47 1159.63,-45.11"/>
</g>
</g>
</svg>
