<?xml version="1.0" encoding="UTF-8" standalone="no"?>
<!DOCTYPE svg PUBLIC "-//W3C//DTD SVG 1.1//EN"
 "http://www.w3.org/Graphics/SVG/1.1/DTD/svg11.dtd">
<!-- Generated by graphviz version 2.43.0 (0)
 -->
<!-- Title: pastafarianism Pages: 1 -->
<svg width="4503pt" height="503pt"
 viewBox="0.00 0.00 4503.46 502.60" xmlns="http://www.w3.org/2000/svg" xmlns:xlink="http://www.w3.org/1999/xlink">
<g id="graph0" class="graph" transform="scale(1 1) rotate(0) translate(4 498.6)">
<title>pastafarianism</title>
<polygon fill="white" stroke="transparent" points="-4,4 -4,-498.6 4499.46,-498.6 4499.46,4 -4,4"/>
<!-- selector:
 insert(gear2, shaft2, outwardgripper, left_hand) -->
<g id="node1" class="node">
<title>selector:
 insert(gear2, shaft2, outwardgripper, left_hand)</title>
<polygon fill="#8deeee" stroke="black" points="2424.1,-442.54 2424.1,-473.18 2219.65,-494.84 1930.52,-494.84 1726.07,-473.18 1726.07,-442.54 1930.52,-420.88 2219.65,-420.88 2424.1,-442.54"/>
<text text-anchor="middle" x="2075.08" y="-463.46" font-family="Times,serif" font-size="18.00">selector:</text>
<text text-anchor="middle" x="2075.08" y="-443.46" font-family="Times,serif" font-size="18.00"> insert(gear2, shaft2, outwardgripper, left_hand)</text>
</g>
<!-- target:
 is_inserted_to(gear2, shaft2) -->
<g id="node2" class="node">
<title>target:
 is_inserted_to(gear2, shaft2)</title>
<ellipse fill="#ffec8b" stroke="black" cx="1853.08" cy="-351.18" rx="198.89" ry="33.88"/>
<text text-anchor="middle" x="1853.08" y="-356.78" font-family="Times,serif" font-size="18.00">target:</text>
<text text-anchor="middle" x="1853.08" y="-336.78" font-family="Times,serif" font-size="18.00"> is_inserted_to(gear2, shaft2)</text>
</g>
<!-- selector:
 insert(gear2, shaft2, outwardgripper, left_hand)&#45;&gt;target:
 is_inserted_to(gear2, shaft2) -->
<g id="edge1" class="edge">
<title>selector:
 insert(gear2, shaft2, outwardgripper, left_hand)&#45;&gt;target:
 is_inserted_to(gear2, shaft2)</title>
<path fill="none" stroke="black" d="M1998.99,-420.98C1976.16,-410.21 1951.13,-398.41 1928.34,-387.67"/>
<polygon fill="black" stroke="black" points="1929.61,-384.39 1919.07,-383.29 1926.62,-390.73 1929.61,-384.39"/>
</g>
<!-- sequence:
 insert(gear2, shaft2, outwardgripper, left_hand) -->
<g id="node3" class="node">
<title>sequence:
 insert(gear2, shaft2, outwardgripper, left_hand)</title>
<polygon fill="#ff7f24" stroke="black" points="2526.08,-375.18 2070.08,-375.18 2070.08,-327.18 2526.08,-327.18 2526.08,-375.18"/>
<text text-anchor="middle" x="2298.08" y="-356.78" font-family="Times,serif" font-size="18.00">sequence:</text>
<text text-anchor="middle" x="2298.08" y="-336.78" font-family="Times,serif" font-size="18.00"> insert(gear2, shaft2, outwardgripper, left_hand)</text>
</g>
<!-- selector:
 insert(gear2, shaft2, outwardgripper, left_hand)&#45;&gt;sequence:
 insert(gear2, shaft2, outwardgripper, left_hand) -->
<g id="edge2" class="edge">
<title>selector:
 insert(gear2, shaft2, outwardgripper, left_hand)&#45;&gt;sequence:
 insert(gear2, shaft2, outwardgripper, left_hand)</title>
<path fill="none" stroke="black" d="M2151.51,-420.98C2180.39,-407.43 2212.75,-392.24 2239.71,-379.58"/>
<polygon fill="black" stroke="black" points="2241.44,-382.64 2249.01,-375.22 2238.47,-376.3 2241.44,-382.64"/>
</g>
<!-- selector:
 put_down(left_hand, parallelgripper, gear1) -->
<g id="node4" class="node">
<title>selector:
 put_down(left_hand, parallelgripper, gear1)</title>
<polygon fill="#8deeee" stroke="black" points="1400.4,-229.19 1400.4,-259.82 1213.35,-281.48 948.82,-281.48 761.77,-259.82 761.77,-229.19 948.82,-207.53 1213.35,-207.53 1400.4,-229.19"/>
<text text-anchor="middle" x="1081.08" y="-250.1" font-family="Times,serif" font-size="18.00">selector:</text>
<text text-anchor="middle" x="1081.08" y="-230.1" font-family="Times,serif" font-size="18.00"> put_down(left_hand, parallelgripper, gear1)</text>
</g>
<!-- sequence:
 insert(gear2, shaft2, outwardgripper, left_hand)&#45;&gt;selector:
 put_down(left_hand, parallelgripper, gear1) -->
<g id="edge3" class="edge">
<title>sequence:
 insert(gear2, shaft2, outwardgripper, left_hand)&#45;&gt;selector:
 put_down(left_hand, parallelgripper, gear1)</title>
<path fill="none" stroke="black" d="M2144.02,-327.14C2116.44,-323.48 2087.94,-320 2061.08,-317.24 1821.81,-292.67 1760.96,-298.98 1521.08,-281.24 1465.29,-277.11 1405.55,-272.44 1348.64,-267.86"/>
<polygon fill="black" stroke="black" points="1348.67,-264.35 1338.42,-267.03 1348.1,-271.32 1348.67,-264.35"/>
</g>
<!-- selector:
 change_tool(left_hand, parallelgripper, outwardgripper) -->
<g id="node10" class="node">
<title>selector:
 change_tool(left_hand, parallelgripper, outwardgripper)</title>
<polygon fill="#8deeee" stroke="black" points="2336.28,-229.19 2336.28,-259.82 2100.09,-281.48 1766.07,-281.48 1529.89,-259.82 1529.89,-229.19 1766.07,-207.53 2100.09,-207.53 2336.28,-229.19"/>
<text text-anchor="middle" x="1933.08" y="-250.1" font-family="Times,serif" font-size="18.00">selector:</text>
<text text-anchor="middle" x="1933.08" y="-230.1" font-family="Times,serif" font-size="18.00"> change_tool(left_hand, parallelgripper, outwardgripper)</text>
</g>
<!-- sequence:
 insert(gear2, shaft2, outwardgripper, left_hand)&#45;&gt;selector:
 change_tool(left_hand, parallelgripper, outwardgripper) -->
<g id="edge9" class="edge">
<title>sequence:
 insert(gear2, shaft2, outwardgripper, left_hand)&#45;&gt;selector:
 change_tool(left_hand, parallelgripper, outwardgripper)</title>
<path fill="none" stroke="black" d="M2217.53,-327.08C2173.55,-314.47 2117.93,-298.52 2067.57,-284.07"/>
<polygon fill="black" stroke="black" points="2068.48,-280.69 2057.91,-281.3 2066.55,-287.42 2068.48,-280.69"/>
</g>
<!-- selector:
 pick_up(left_hand, outwardgripper, gear2) -->
<g id="node16" class="node">
<title>selector:
 pick_up(left_hand, outwardgripper, gear2)</title>
<polygon fill="#8deeee" stroke="black" points="2974.03,-229.19 2974.03,-259.82 2792.47,-281.48 2535.7,-281.48 2354.13,-259.82 2354.13,-229.19 2535.7,-207.53 2792.47,-207.53 2974.03,-229.19"/>
<text text-anchor="middle" x="2664.08" y="-250.1" font-family="Times,serif" font-size="18.00">selector:</text>
<text text-anchor="middle" x="2664.08" y="-230.1" font-family="Times,serif" font-size="18.00"> pick_up(left_hand, outwardgripper, gear2)</text>
</g>
<!-- sequence:
 insert(gear2, shaft2, outwardgripper, left_hand)&#45;&gt;selector:
 pick_up(left_hand, outwardgripper, gear2) -->
<g id="edge15" class="edge">
<title>sequence:
 insert(gear2, shaft2, outwardgripper, left_hand)&#45;&gt;selector:
 pick_up(left_hand, outwardgripper, gear2)</title>
<path fill="none" stroke="black" d="M2378.86,-327.08C2422.96,-314.47 2478.72,-298.52 2529.22,-284.07"/>
<polygon fill="black" stroke="black" points="2530.26,-287.42 2538.92,-281.3 2528.34,-280.69 2530.26,-287.42"/>
</g>
<!-- action:
 insert(left_hand, outwardgripper, gear2, shaft2) -->
<g id="node22" class="node">
<title>action:
 insert(left_hand, outwardgripper, gear2, shaft2)</title>
<ellipse fill="lightgreen" stroke="black" cx="3314.08" cy="-244.5" rx="322.38" ry="33.88"/>
<text text-anchor="middle" x="3314.08" y="-250.1" font-family="Times,serif" font-size="18.00">action:</text>
<text text-anchor="middle" x="3314.08" y="-230.1" font-family="Times,serif" font-size="18.00"> insert(left_hand, outwardgripper, gear2, shaft2)</text>
</g>
<!-- sequence:
 insert(gear2, shaft2, outwardgripper, left_hand)&#45;&gt;action:
 insert(left_hand, outwardgripper, gear2, shaft2) -->
<g id="edge21" class="edge">
<title>sequence:
 insert(gear2, shaft2, outwardgripper, left_hand)&#45;&gt;action:
 insert(left_hand, outwardgripper, gear2, shaft2)</title>
<path fill="none" stroke="black" d="M2526.46,-327.61C2659.67,-314.35 2830.92,-297.11 2983.08,-281.24 3015.91,-277.82 3050.57,-274.14 3084.61,-270.5"/>
<polygon fill="black" stroke="black" points="3085.09,-273.96 3094.66,-269.42 3084.35,-267 3085.09,-273.96"/>
</g>
<!-- target:
 is_empty(parallelgripper) -->
<g id="node5" class="node">
<title>target:
 is_empty(parallelgripper)</title>
<ellipse fill="#ffec8b" stroke="black" cx="676.08" cy="-137.82" rx="178.8" ry="33.88"/>
<text text-anchor="middle" x="676.08" y="-143.42" font-family="Times,serif" font-size="18.00">target:</text>
<text text-anchor="middle" x="676.08" y="-123.42" font-family="Times,serif" font-size="18.00"> is_empty(parallelgripper)</text>
</g>
<!-- selector:
 put_down(left_hand, parallelgripper, gear1)&#45;&gt;target:
 is_empty(parallelgripper) -->
<g id="edge4" class="edge">
<title>selector:
 put_down(left_hand, parallelgripper, gear1)&#45;&gt;target:
 is_empty(parallelgripper)</title>
<path fill="none" stroke="black" d="M943.97,-208.06C893.62,-195.05 837.24,-180.48 789.23,-168.07"/>
<polygon fill="black" stroke="black" points="789.99,-164.65 779.43,-165.54 788.24,-171.43 789.99,-164.65"/>
</g>
<!-- sequence:
 put_down(left_hand, parallelgripper, gear1) -->
<g id="node6" class="node">
<title>sequence:
 put_down(left_hand, parallelgripper, gear1)</title>
<polygon fill="#ff7f24" stroke="black" points="1289.58,-161.82 872.58,-161.82 872.58,-113.82 1289.58,-113.82 1289.58,-161.82"/>
<text text-anchor="middle" x="1081.08" y="-143.42" font-family="Times,serif" font-size="18.00">sequence:</text>
<text text-anchor="middle" x="1081.08" y="-123.42" font-family="Times,serif" font-size="18.00"> put_down(left_hand, parallelgripper, gear1)</text>
</g>
<!-- selector:
 put_down(left_hand, parallelgripper, gear1)&#45;&gt;sequence:
 put_down(left_hand, parallelgripper, gear1) -->
<g id="edge5" class="edge">
<title>selector:
 put_down(left_hand, parallelgripper, gear1)&#45;&gt;sequence:
 put_down(left_hand, parallelgripper, gear1)</title>
<path fill="none" stroke="black" d="M1081.08,-207.48C1081.08,-196.09 1081.08,-183.57 1081.08,-172.36"/>
<polygon fill="black" stroke="black" points="1084.58,-172.11 1081.08,-162.11 1077.58,-172.11 1084.58,-172.11"/>
</g>
<!-- precondition:
 hold(left_hand, parallelgripper) -->
<g id="node7" class="node">
<title>precondition:
 hold(left_hand, parallelgripper)</title>
<ellipse fill="#ffec8b" stroke="black" cx="217.08" cy="-33.94" rx="217.16" ry="33.88"/>
<text text-anchor="middle" x="217.08" y="-39.54" font-family="Times,serif" font-size="18.00">precondition:</text>
<text text-anchor="middle" x="217.08" y="-19.54" font-family="Times,serif" font-size="18.00"> hold(left_hand, parallelgripper)</text>
</g>
<!-- sequence:
 put_down(left_hand, parallelgripper, gear1)&#45;&gt;precondition:
 hold(left_hand, parallelgripper) -->
<g id="edge6" class="edge">
<title>sequence:
 put_down(left_hand, parallelgripper, gear1)&#45;&gt;precondition:
 hold(left_hand, parallelgripper)</title>
<path fill="none" stroke="black" d="M938.27,-113.79C913.57,-110.19 888.11,-106.73 864.08,-103.88 677.59,-81.78 629.63,-89.43 443.08,-67.88 422.16,-65.47 400.19,-62.63 378.51,-59.66"/>
<polygon fill="black" stroke="black" points="378.96,-56.19 368.57,-58.29 378,-63.12 378.96,-56.19"/>
</g>
<!-- precondition:
 hold(parallelgripper, gear1) -->
<g id="node8" class="node">
<title>precondition:
 hold(parallelgripper, gear1)</title>
<ellipse fill="#ffec8b" stroke="black" cx="644.08" cy="-33.94" rx="192.17" ry="33.88"/>
<text text-anchor="middle" x="644.08" y="-39.54" font-family="Times,serif" font-size="18.00">precondition:</text>
<text text-anchor="middle" x="644.08" y="-19.54" font-family="Times,serif" font-size="18.00"> hold(parallelgripper, gear1)</text>
</g>
<!-- sequence:
 put_down(left_hand, parallelgripper, gear1)&#45;&gt;precondition:
 hold(parallelgripper, gear1) -->
<g id="edge7" class="edge">
<title>sequence:
 put_down(left_hand, parallelgripper, gear1)&#45;&gt;precondition:
 hold(parallelgripper, gear1)</title>
<path fill="none" stroke="black" d="M982.19,-113.77C918.6,-98.94 835.47,-79.56 767.55,-63.73"/>
<polygon fill="black" stroke="black" points="768.17,-60.28 757.64,-61.42 766.59,-67.1 768.17,-60.28"/>
</g>
<!-- action:
 put_down(left_hand, parallelgripper, gear1) -->
<g id="node9" class="node">
<title>action:
 put_down(left_hand, parallelgripper, gear1)</title>
<ellipse fill="lightgreen" stroke="black" cx="1149.08" cy="-33.94" rx="294.73" ry="33.88"/>
<text text-anchor="middle" x="1149.08" y="-39.54" font-family="Times,serif" font-size="18.00">action:</text>
<text text-anchor="middle" x="1149.08" y="-19.54" font-family="Times,serif" font-size="18.00"> put_down(left_hand, parallelgripper, gear1)</text>
</g>
<!-- sequence:
 put_down(left_hand, parallelgripper, gear1)&#45;&gt;action:
 put_down(left_hand, parallelgripper, gear1) -->
<g id="edge8" class="edge">
<title>sequence:
 put_down(left_hand, parallelgripper, gear1)&#45;&gt;action:
 put_down(left_hand, parallelgripper, gear1)</title>
<path fill="none" stroke="black" d="M1096.51,-113.7C1103.83,-102.73 1112.82,-89.28 1121.27,-76.61"/>
<polygon fill="black" stroke="black" points="1124.37,-78.27 1127.01,-68.01 1118.55,-74.39 1124.37,-78.27"/>
</g>
<!-- target:
 hold(left_hand, outwardgripper) -->
<g id="node11" class="node">
<title>target:
 hold(left_hand, outwardgripper)</title>
<ellipse fill="#ffec8b" stroke="black" cx="1614.08" cy="-137.82" rx="221.15" ry="33.88"/>
<text text-anchor="middle" x="1614.08" y="-143.42" font-family="Times,serif" font-size="18.00">target:</text>
<text text-anchor="middle" x="1614.08" y="-123.42" font-family="Times,serif" font-size="18.00"> hold(left_hand, outwardgripper)</text>
</g>
<!-- selector:
 change_tool(left_hand, parallelgripper, outwardgripper)&#45;&gt;target:
 hold(left_hand, outwardgripper) -->
<g id="edge10" class="edge">
<title>selector:
 change_tool(left_hand, parallelgripper, outwardgripper)&#45;&gt;target:
 hold(left_hand, outwardgripper)</title>
<path fill="none" stroke="black" d="M1823.75,-207.62C1788.55,-196.07 1749.72,-183.33 1715.15,-171.99"/>
<polygon fill="black" stroke="black" points="1716.11,-168.62 1705.51,-168.83 1713.93,-175.27 1716.11,-168.62"/>
</g>
<!-- sequence:
 change_tool(left_hand, parallelgripper, outwardgripper) -->
<g id="node12" class="node">
<title>sequence:
 change_tool(left_hand, parallelgripper, outwardgripper)</title>
<polygon fill="#ff7f24" stroke="black" points="2380.58,-161.82 1853.58,-161.82 1853.58,-113.82 2380.58,-113.82 2380.58,-161.82"/>
<text text-anchor="middle" x="2117.08" y="-143.42" font-family="Times,serif" font-size="18.00">sequence:</text>
<text text-anchor="middle" x="2117.08" y="-123.42" font-family="Times,serif" font-size="18.00"> change_tool(left_hand, parallelgripper, outwardgripper)</text>
</g>
<!-- selector:
 change_tool(left_hand, parallelgripper, outwardgripper)&#45;&gt;sequence:
 change_tool(left_hand, parallelgripper, outwardgripper) -->
<g id="edge11" class="edge">
<title>selector:
 change_tool(left_hand, parallelgripper, outwardgripper)&#45;&gt;sequence:
 change_tool(left_hand, parallelgripper, outwardgripper)</title>
<path fill="none" stroke="black" d="M1996.15,-207.62C2019.55,-194.31 2045.74,-179.41 2067.75,-166.89"/>
<polygon fill="black" stroke="black" points="2069.63,-169.85 2076.59,-161.86 2066.17,-163.76 2069.63,-169.85"/>
</g>
<!-- &quot;precondition:\n hold(left_hand, parallelgripper)&quot;* -->
<g id="node13" class="node">
<title>&quot;precondition:\n hold(left_hand, parallelgripper)&quot;*</title>
<ellipse fill="#ffec8b" stroke="black" cx="1691.08" cy="-33.94" rx="229.21" ry="33.88"/>
<text text-anchor="middle" x="1691.08" y="-39.54" font-family="Times,serif" font-size="18.00">&quot;precondition:</text>
<text text-anchor="middle" x="1691.08" y="-19.54" font-family="Times,serif" font-size="18.00"> hold(left_hand, parallelgripper)&quot;*</text>
</g>
<!-- sequence:
 change_tool(left_hand, parallelgripper, outwardgripper)&#45;&gt;&quot;precondition:\n hold(left_hand, parallelgripper)&quot;* -->
<g id="edge12" class="edge">
<title>sequence:
 change_tool(left_hand, parallelgripper, outwardgripper)&#45;&gt;&quot;precondition:\n hold(left_hand, parallelgripper)&quot;*</title>
<path fill="none" stroke="black" d="M2020.68,-113.77C1960.92,-99.47 1883.45,-80.95 1818.63,-65.45"/>
<polygon fill="black" stroke="black" points="1819.3,-62.01 1808.76,-63.08 1817.67,-68.81 1819.3,-62.01"/>
</g>
<!-- precondition:
 is_empty(parallelgripper) -->
<g id="node14" class="node">
<title>precondition:
 is_empty(parallelgripper)</title>
<ellipse fill="#ffec8b" stroke="black" cx="2117.08" cy="-33.94" rx="178.8" ry="33.88"/>
<text text-anchor="middle" x="2117.08" y="-39.54" font-family="Times,serif" font-size="18.00">precondition:</text>
<text text-anchor="middle" x="2117.08" y="-19.54" font-family="Times,serif" font-size="18.00"> is_empty(parallelgripper)</text>
</g>
<!-- sequence:
 change_tool(left_hand, parallelgripper, outwardgripper)&#45;&gt;precondition:
 is_empty(parallelgripper) -->
<g id="edge13" class="edge">
<title>sequence:
 change_tool(left_hand, parallelgripper, outwardgripper)&#45;&gt;precondition:
 is_empty(parallelgripper)</title>
<path fill="none" stroke="black" d="M2117.08,-113.7C2117.08,-103.16 2117.08,-90.31 2117.08,-78.08"/>
<polygon fill="black" stroke="black" points="2120.58,-78.01 2117.08,-68.01 2113.58,-78.01 2120.58,-78.01"/>
</g>
<!-- action:
 change_tool(left_hand, parallelgripper, outwardgripper) -->
<g id="node15" class="node">
<title>action:
 change_tool(left_hand, parallelgripper, outwardgripper)</title>
<ellipse fill="lightgreen" stroke="black" cx="2687.08" cy="-33.94" rx="372.79" ry="33.88"/>
<text text-anchor="middle" x="2687.08" y="-39.54" font-family="Times,serif" font-size="18.00">action:</text>
<text text-anchor="middle" x="2687.08" y="-19.54" font-family="Times,serif" font-size="18.00"> change_tool(left_hand, parallelgripper, outwardgripper)</text>
</g>
<!-- sequence:
 change_tool(left_hand, parallelgripper, outwardgripper)&#45;&gt;action:
 change_tool(left_hand, parallelgripper, outwardgripper) -->
<g id="edge14" class="edge">
<title>sequence:
 change_tool(left_hand, parallelgripper, outwardgripper)&#45;&gt;action:
 change_tool(left_hand, parallelgripper, outwardgripper)</title>
<path fill="none" stroke="black" d="M2246.07,-113.77C2324.81,-99.69 2426.51,-81.52 2512.4,-66.16"/>
<polygon fill="black" stroke="black" points="2513.03,-69.61 2522.26,-64.4 2511.8,-62.72 2513.03,-69.61"/>
</g>
<!-- target:
 hold(outwardgripper, gear2) -->
<g id="node17" class="node">
<title>target:
 hold(outwardgripper, gear2)</title>
<ellipse fill="#ffec8b" stroke="black" cx="2664.08" cy="-137.82" rx="196.65" ry="33.88"/>
<text text-anchor="middle" x="2664.08" y="-143.42" font-family="Times,serif" font-size="18.00">target:</text>
<text text-anchor="middle" x="2664.08" y="-123.42" font-family="Times,serif" font-size="18.00"> hold(outwardgripper, gear2)</text>
</g>
<!-- selector:
 pick_up(left_hand, outwardgripper, gear2)&#45;&gt;target:
 hold(outwardgripper, gear2) -->
<g id="edge16" class="edge">
<title>selector:
 pick_up(left_hand, outwardgripper, gear2)&#45;&gt;target:
 hold(outwardgripper, gear2)</title>
<path fill="none" stroke="black" d="M2664.08,-207.48C2664.08,-199.32 2664.08,-190.58 2664.08,-182.15"/>
<polygon fill="black" stroke="black" points="2667.58,-182.1 2664.08,-172.1 2660.58,-182.1 2667.58,-182.1"/>
</g>
<!-- sequence:
 pick_up(left_hand, outwardgripper, gear2) -->
<g id="node18" class="node">
<title>sequence:
 pick_up(left_hand, outwardgripper, gear2)</title>
<polygon fill="#ff7f24" stroke="black" points="3674.58,-161.82 3269.58,-161.82 3269.58,-113.82 3674.58,-113.82 3674.58,-161.82"/>
<text text-anchor="middle" x="3472.08" y="-143.42" font-family="Times,serif" font-size="18.00">sequence:</text>
<text text-anchor="middle" x="3472.08" y="-123.42" font-family="Times,serif" font-size="18.00"> pick_up(left_hand, outwardgripper, gear2)</text>
</g>
<!-- selector:
 pick_up(left_hand, outwardgripper, gear2)&#45;&gt;sequence:
 pick_up(left_hand, outwardgripper, gear2) -->
<g id="edge17" class="edge">
<title>selector:
 pick_up(left_hand, outwardgripper, gear2)&#45;&gt;sequence:
 pick_up(left_hand, outwardgripper, gear2)</title>
<path fill="none" stroke="black" d="M2870.33,-216.78C2997.91,-200.25 3160.41,-179.2 3284.38,-163.14"/>
<polygon fill="black" stroke="black" points="3284.9,-166.6 3294.37,-161.85 3284,-159.66 3284.9,-166.6"/>
</g>
<!-- precondition:
 is_empty(outwardgripper) -->
<g id="node19" class="node">
<title>precondition:
 is_empty(outwardgripper)</title>
<ellipse fill="#ffec8b" stroke="black" cx="3261.08" cy="-33.94" rx="183.28" ry="33.88"/>
<text text-anchor="middle" x="3261.08" y="-39.54" font-family="Times,serif" font-size="18.00">precondition:</text>
<text text-anchor="middle" x="3261.08" y="-19.54" font-family="Times,serif" font-size="18.00"> is_empty(outwardgripper)</text>
</g>
<!-- sequence:
 pick_up(left_hand, outwardgripper, gear2)&#45;&gt;precondition:
 is_empty(outwardgripper) -->
<g id="edge18" class="edge">
<title>sequence:
 pick_up(left_hand, outwardgripper, gear2)&#45;&gt;precondition:
 is_empty(outwardgripper)</title>
<path fill="none" stroke="black" d="M3424.2,-113.7C3397.65,-100.88 3364.06,-84.67 3334.28,-70.29"/>
<polygon fill="black" stroke="black" points="3335.7,-67.08 3325.17,-65.89 3332.66,-73.39 3335.7,-67.08"/>
</g>
<!-- precondition:
 hold(left_hand, outwardgripper) -->
<g id="node20" class="node">
<title>precondition:
 hold(left_hand, outwardgripper)</title>
<ellipse fill="#ffec8b" stroke="black" cx="3683.08" cy="-33.94" rx="221.15" ry="33.88"/>
<text text-anchor="middle" x="3683.08" y="-39.54" font-family="Times,serif" font-size="18.00">precondition:</text>
<text text-anchor="middle" x="3683.08" y="-19.54" font-family="Times,serif" font-size="18.00"> hold(left_hand, outwardgripper)</text>
</g>
<!-- sequence:
 pick_up(left_hand, outwardgripper, gear2)&#45;&gt;precondition:
 hold(left_hand, outwardgripper) -->
<g id="edge19" class="edge">
<title>sequence:
 pick_up(left_hand, outwardgripper, gear2)&#45;&gt;precondition:
 hold(left_hand, outwardgripper)</title>
<path fill="none" stroke="black" d="M3519.96,-113.7C3546.19,-101.04 3579.26,-85.07 3608.77,-70.82"/>
<polygon fill="black" stroke="black" points="3610.31,-73.96 3617.8,-66.46 3607.27,-67.66 3610.31,-73.96"/>
</g>
<!-- action:
 pick_up(left_hand, outwardgripper, gear2) -->
<g id="node21" class="node">
<title>action:
 pick_up(left_hand, outwardgripper, gear2)</title>
<ellipse fill="lightgreen" stroke="black" cx="4209.08" cy="-33.94" rx="286.26" ry="33.88"/>
<text text-anchor="middle" x="4209.08" y="-39.54" font-family="Times,serif" font-size="18.00">action:</text>
<text text-anchor="middle" x="4209.08" y="-19.54" font-family="Times,serif" font-size="18.00"> pick_up(left_hand, outwardgripper, gear2)</text>
</g>
<!-- sequence:
 pick_up(left_hand, outwardgripper, gear2)&#45;&gt;action:
 pick_up(left_hand, outwardgripper, gear2) -->
<g id="edge20" class="edge">
<title>sequence:
 pick_up(left_hand, outwardgripper, gear2)&#45;&gt;action:
 pick_up(left_hand, outwardgripper, gear2)</title>
<path fill="none" stroke="black" d="M3638.86,-113.77C3751.09,-98.25 3899.39,-77.75 4016.63,-61.55"/>
<polygon fill="black" stroke="black" points="4017.37,-64.98 4026.8,-60.14 4016.41,-58.04 4017.37,-64.98"/>
</g>
</g>
</svg>
