<?xml version="1.0" encoding="UTF-8" standalone="no"?>
<!DOCTYPE svg PUBLIC "-//W3C//DTD SVG 1.1//EN"
 "http://www.w3.org/Graphics/SVG/1.1/DTD/svg11.dtd">
<!-- Generated by graphviz version 2.43.0 (0)
 -->
<!-- Title: pastafarianism Pages: 1 -->
<svg width="3079pt" height="503pt"
 viewBox="0.00 0.00 3079.22 502.60" xmlns="http://www.w3.org/2000/svg" xmlns:xlink="http://www.w3.org/1999/xlink">
<g id="graph0" class="graph" transform="scale(1 1) rotate(0) translate(4 498.6)">
<title>pastafarianism</title>
<polygon fill="white" stroke="transparent" points="-4,4 -4,-498.6 3075.22,-498.6 3075.22,4 -4,4"/>
<!-- selector:
 insert(gear1, shaft1, parallelgripper, left_hand) -->
<g id="node1" class="node">
<title>selector:
 insert(gear1, shaft1, parallelgripper, left_hand)</title>
<polygon fill="#8deeee" stroke="black" points="1569.41,-442.54 1569.41,-473.18 1367.71,-494.84 1082.46,-494.84 880.75,-473.18 880.75,-442.54 1082.46,-420.88 1367.71,-420.88 1569.41,-442.54"/>
<text text-anchor="middle" x="1225.08" y="-463.46" font-family="Times,serif" font-size="18.00">selector:</text>
<text text-anchor="middle" x="1225.08" y="-443.46" font-family="Times,serif" font-size="18.00"> insert(gear1, shaft1, parallelgripper, left_hand)</text>
</g>
<!-- target:
 is_inserted_to(gear1, shaft1) -->
<g id="node2" class="node">
<title>target:
 is_inserted_to(gear1, shaft1)</title>
<ellipse fill="#ffec8b" stroke="black" cx="1004.08" cy="-351.18" rx="198.89" ry="33.88"/>
<text text-anchor="middle" x="1004.08" y="-356.78" font-family="Times,serif" font-size="18.00">target:</text>
<text text-anchor="middle" x="1004.08" y="-336.78" font-family="Times,serif" font-size="18.00"> is_inserted_to(gear1, shaft1)</text>
</g>
<!-- selector:
 insert(gear1, shaft1, parallelgripper, left_hand)&#45;&gt;target:
 is_inserted_to(gear1, shaft1) -->
<g id="edge1" class="edge">
<title>selector:
 insert(gear1, shaft1, parallelgripper, left_hand)&#45;&gt;target:
 is_inserted_to(gear1, shaft1)</title>
<path fill="none" stroke="black" d="M1149.34,-420.98C1126.6,-410.21 1101.68,-398.41 1079.01,-387.67"/>
<polygon fill="black" stroke="black" points="1080.31,-384.41 1069.77,-383.29 1077.31,-390.74 1080.31,-384.41"/>
</g>
<!-- sequence:
 insert(gear1, shaft1, parallelgripper, left_hand) -->
<g id="node3" class="node">
<title>sequence:
 insert(gear1, shaft1, parallelgripper, left_hand)</title>
<polygon fill="#ff7f24" stroke="black" points="1671.08,-375.18 1221.08,-375.18 1221.08,-327.18 1671.08,-327.18 1671.08,-375.18"/>
<text text-anchor="middle" x="1446.08" y="-356.78" font-family="Times,serif" font-size="18.00">sequence:</text>
<text text-anchor="middle" x="1446.08" y="-336.78" font-family="Times,serif" font-size="18.00"> insert(gear1, shaft1, parallelgripper, left_hand)</text>
</g>
<!-- selector:
 insert(gear1, shaft1, parallelgripper, left_hand)&#45;&gt;sequence:
 insert(gear1, shaft1, parallelgripper, left_hand) -->
<g id="edge2" class="edge">
<title>selector:
 insert(gear1, shaft1, parallelgripper, left_hand)&#45;&gt;sequence:
 insert(gear1, shaft1, parallelgripper, left_hand)</title>
<path fill="none" stroke="black" d="M1300.83,-420.98C1329.44,-407.43 1361.52,-392.24 1388.23,-379.58"/>
<polygon fill="black" stroke="black" points="1389.91,-382.66 1397.45,-375.22 1386.91,-376.34 1389.91,-382.66"/>
</g>
<!-- selector:
 change_tool(left_hand, outwardgripper, parallelgripper) -->
<g id="node4" class="node">
<title>selector:
 change_tool(left_hand, outwardgripper, parallelgripper)</title>
<polygon fill="#8deeee" stroke="black" points="1119.28,-229.19 1119.28,-259.82 883.09,-281.48 549.07,-281.48 312.89,-259.82 312.89,-229.19 549.07,-207.53 883.09,-207.53 1119.28,-229.19"/>
<text text-anchor="middle" x="716.08" y="-250.1" font-family="Times,serif" font-size="18.00">selector:</text>
<text text-anchor="middle" x="716.08" y="-230.1" font-family="Times,serif" font-size="18.00"> change_tool(left_hand, outwardgripper, parallelgripper)</text>
</g>
<!-- sequence:
 insert(gear1, shaft1, parallelgripper, left_hand)&#45;&gt;selector:
 change_tool(left_hand, outwardgripper, parallelgripper) -->
<g id="edge3" class="edge">
<title>sequence:
 insert(gear1, shaft1, parallelgripper, left_hand)&#45;&gt;selector:
 change_tool(left_hand, outwardgripper, parallelgripper)</title>
<path fill="none" stroke="black" d="M1285.43,-327.14C1185.39,-312.8 1055.13,-294.12 944.46,-278.25"/>
<polygon fill="black" stroke="black" points="944.89,-274.78 934.49,-276.82 943.9,-281.71 944.89,-274.78"/>
</g>
<!-- selector:
 pick_up(left_hand, parallelgripper, gear1) -->
<g id="node10" class="node">
<title>selector:
 pick_up(left_hand, parallelgripper, gear1)</title>
<polygon fill="#8deeee" stroke="black" points="1751.34,-229.19 1751.34,-259.82 1572.53,-281.48 1319.64,-281.48 1140.82,-259.82 1140.82,-229.19 1319.64,-207.53 1572.53,-207.53 1751.34,-229.19"/>
<text text-anchor="middle" x="1446.08" y="-250.1" font-family="Times,serif" font-size="18.00">selector:</text>
<text text-anchor="middle" x="1446.08" y="-230.1" font-family="Times,serif" font-size="18.00"> pick_up(left_hand, parallelgripper, gear1)</text>
</g>
<!-- sequence:
 insert(gear1, shaft1, parallelgripper, left_hand)&#45;&gt;selector:
 pick_up(left_hand, parallelgripper, gear1) -->
<g id="edge9" class="edge">
<title>sequence:
 insert(gear1, shaft1, parallelgripper, left_hand)&#45;&gt;selector:
 pick_up(left_hand, parallelgripper, gear1)</title>
<path fill="none" stroke="black" d="M1446.08,-326.95C1446.08,-316.5 1446.08,-303.79 1446.08,-291.54"/>
<polygon fill="black" stroke="black" points="1449.58,-291.42 1446.08,-281.42 1442.58,-291.42 1449.58,-291.42"/>
</g>
<!-- action:
 insert(left_hand, parallelgripper, gear1, shaft1) -->
<g id="node16" class="node">
<title>action:
 insert(left_hand, parallelgripper, gear1, shaft1)</title>
<ellipse fill="lightgreen" stroke="black" cx="2088.08" cy="-244.5" rx="318.4" ry="33.88"/>
<text text-anchor="middle" x="2088.08" y="-250.1" font-family="Times,serif" font-size="18.00">action:</text>
<text text-anchor="middle" x="2088.08" y="-230.1" font-family="Times,serif" font-size="18.00"> insert(left_hand, parallelgripper, gear1, shaft1)</text>
</g>
<!-- sequence:
 insert(gear1, shaft1, parallelgripper, left_hand)&#45;&gt;action:
 insert(left_hand, parallelgripper, gear1, shaft1) -->
<g id="edge15" class="edge">
<title>sequence:
 insert(gear1, shaft1, parallelgripper, left_hand)&#45;&gt;action:
 insert(left_hand, parallelgripper, gear1, shaft1)</title>
<path fill="none" stroke="black" d="M1587.37,-327.14C1681.69,-311.76 1806.56,-291.4 1908,-274.86"/>
<polygon fill="black" stroke="black" points="1908.75,-278.29 1918.06,-273.22 1907.63,-271.38 1908.75,-278.29"/>
</g>
<!-- target:
 hold(left_hand, parallelgripper) -->
<g id="node5" class="node">
<title>target:
 hold(left_hand, parallelgripper)</title>
<ellipse fill="#ffec8b" stroke="black" cx="217.08" cy="-137.82" rx="217.16" ry="33.88"/>
<text text-anchor="middle" x="217.08" y="-143.42" font-family="Times,serif" font-size="18.00">target:</text>
<text text-anchor="middle" x="217.08" y="-123.42" font-family="Times,serif" font-size="18.00"> hold(left_hand, parallelgripper)</text>
</g>
<!-- selector:
 change_tool(left_hand, outwardgripper, parallelgripper)&#45;&gt;target:
 hold(left_hand, parallelgripper) -->
<g id="edge4" class="edge">
<title>selector:
 change_tool(left_hand, outwardgripper, parallelgripper)&#45;&gt;target:
 hold(left_hand, parallelgripper)</title>
<path fill="none" stroke="black" d="M545.75,-207.77C483.17,-194.64 413.17,-179.96 353.91,-167.53"/>
<polygon fill="black" stroke="black" points="354.62,-164.1 344.11,-165.47 353.18,-170.95 354.62,-164.1"/>
</g>
<!-- sequence:
 change_tool(left_hand, outwardgripper, parallelgripper) -->
<g id="node6" class="node">
<title>sequence:
 change_tool(left_hand, outwardgripper, parallelgripper)</title>
<polygon fill="#ff7f24" stroke="black" points="979.58,-161.82 452.58,-161.82 452.58,-113.82 979.58,-113.82 979.58,-161.82"/>
<text text-anchor="middle" x="716.08" y="-143.42" font-family="Times,serif" font-size="18.00">sequence:</text>
<text text-anchor="middle" x="716.08" y="-123.42" font-family="Times,serif" font-size="18.00"> change_tool(left_hand, outwardgripper, parallelgripper)</text>
</g>
<!-- selector:
 change_tool(left_hand, outwardgripper, parallelgripper)&#45;&gt;sequence:
 change_tool(left_hand, outwardgripper, parallelgripper) -->
<g id="edge5" class="edge">
<title>selector:
 change_tool(left_hand, outwardgripper, parallelgripper)&#45;&gt;sequence:
 change_tool(left_hand, outwardgripper, parallelgripper)</title>
<path fill="none" stroke="black" d="M716.08,-207.48C716.08,-196.09 716.08,-183.57 716.08,-172.36"/>
<polygon fill="black" stroke="black" points="719.58,-172.11 716.08,-162.11 712.58,-172.11 719.58,-172.11"/>
</g>
<!-- precondition:
 hold(left_hand, outwardgripper) -->
<g id="node7" class="node">
<title>precondition:
 hold(left_hand, outwardgripper)</title>
<ellipse fill="#ffec8b" stroke="black" cx="292.08" cy="-33.94" rx="221.15" ry="33.88"/>
<text text-anchor="middle" x="292.08" y="-39.54" font-family="Times,serif" font-size="18.00">precondition:</text>
<text text-anchor="middle" x="292.08" y="-19.54" font-family="Times,serif" font-size="18.00"> hold(left_hand, outwardgripper)</text>
</g>
<!-- sequence:
 change_tool(left_hand, outwardgripper, parallelgripper)&#45;&gt;precondition:
 hold(left_hand, outwardgripper) -->
<g id="edge6" class="edge">
<title>sequence:
 change_tool(left_hand, outwardgripper, parallelgripper)&#45;&gt;precondition:
 hold(left_hand, outwardgripper)</title>
<path fill="none" stroke="black" d="M620.13,-113.77C560.42,-99.42 482.94,-80.8 418.28,-65.27"/>
<polygon fill="black" stroke="black" points="418.97,-61.83 408.43,-62.9 417.33,-68.64 418.97,-61.83"/>
</g>
<!-- precondition:
 is_empty(outwardgripper) -->
<g id="node8" class="node">
<title>precondition:
 is_empty(outwardgripper)</title>
<ellipse fill="#ffec8b" stroke="black" cx="714.08" cy="-33.94" rx="183.28" ry="33.88"/>
<text text-anchor="middle" x="714.08" y="-39.54" font-family="Times,serif" font-size="18.00">precondition:</text>
<text text-anchor="middle" x="714.08" y="-19.54" font-family="Times,serif" font-size="18.00"> is_empty(outwardgripper)</text>
</g>
<!-- sequence:
 change_tool(left_hand, outwardgripper, parallelgripper)&#45;&gt;precondition:
 is_empty(outwardgripper) -->
<g id="edge7" class="edge">
<title>sequence:
 change_tool(left_hand, outwardgripper, parallelgripper)&#45;&gt;precondition:
 is_empty(outwardgripper)</title>
<path fill="none" stroke="black" d="M715.63,-113.7C715.42,-103.16 715.17,-90.31 714.93,-78.08"/>
<polygon fill="black" stroke="black" points="718.43,-77.94 714.73,-68.01 711.43,-78.08 718.43,-77.94"/>
</g>
<!-- action:
 change_tool(left_hand, outwardgripper, parallelgripper) -->
<g id="node9" class="node">
<title>action:
 change_tool(left_hand, outwardgripper, parallelgripper)</title>
<ellipse fill="lightgreen" stroke="black" cx="1288.08" cy="-33.94" rx="372.79" ry="33.88"/>
<text text-anchor="middle" x="1288.08" y="-39.54" font-family="Times,serif" font-size="18.00">action:</text>
<text text-anchor="middle" x="1288.08" y="-19.54" font-family="Times,serif" font-size="18.00"> change_tool(left_hand, outwardgripper, parallelgripper)</text>
</g>
<!-- sequence:
 change_tool(left_hand, outwardgripper, parallelgripper)&#45;&gt;action:
 change_tool(left_hand, outwardgripper, parallelgripper) -->
<g id="edge8" class="edge">
<title>sequence:
 change_tool(left_hand, outwardgripper, parallelgripper)&#45;&gt;action:
 change_tool(left_hand, outwardgripper, parallelgripper)</title>
<path fill="none" stroke="black" d="M845.52,-113.77C924.54,-99.69 1026.6,-81.52 1112.79,-66.16"/>
<polygon fill="black" stroke="black" points="1113.45,-69.6 1122.68,-64.4 1112.23,-62.71 1113.45,-69.6"/>
</g>
<!-- target:
 hold(parallelgripper, gear1) -->
<g id="node11" class="node">
<title>target:
 hold(parallelgripper, gear1)</title>
<ellipse fill="#ffec8b" stroke="black" cx="1446.08" cy="-137.82" rx="192.17" ry="33.88"/>
<text text-anchor="middle" x="1446.08" y="-143.42" font-family="Times,serif" font-size="18.00">target:</text>
<text text-anchor="middle" x="1446.08" y="-123.42" font-family="Times,serif" font-size="18.00"> hold(parallelgripper, gear1)</text>
</g>
<!-- selector:
 pick_up(left_hand, parallelgripper, gear1)&#45;&gt;target:
 hold(parallelgripper, gear1) -->
<g id="edge10" class="edge">
<title>selector:
 pick_up(left_hand, parallelgripper, gear1)&#45;&gt;target:
 hold(parallelgripper, gear1)</title>
<path fill="none" stroke="black" d="M1446.08,-207.48C1446.08,-199.32 1446.08,-190.58 1446.08,-182.15"/>
<polygon fill="black" stroke="black" points="1449.58,-182.1 1446.08,-172.1 1442.58,-182.1 1449.58,-182.1"/>
</g>
<!-- sequence:
 pick_up(left_hand, parallelgripper, gear1) -->
<g id="node12" class="node">
<title>sequence:
 pick_up(left_hand, parallelgripper, gear1)</title>
<polygon fill="#ff7f24" stroke="black" points="2264.58,-161.82 1865.58,-161.82 1865.58,-113.82 2264.58,-113.82 2264.58,-161.82"/>
<text text-anchor="middle" x="2065.08" y="-143.42" font-family="Times,serif" font-size="18.00">sequence:</text>
<text text-anchor="middle" x="2065.08" y="-123.42" font-family="Times,serif" font-size="18.00"> pick_up(left_hand, parallelgripper, gear1)</text>
</g>
<!-- selector:
 pick_up(left_hand, parallelgripper, gear1)&#45;&gt;sequence:
 pick_up(left_hand, parallelgripper, gear1) -->
<g id="edge11" class="edge">
<title>selector:
 pick_up(left_hand, parallelgripper, gear1)&#45;&gt;sequence:
 pick_up(left_hand, parallelgripper, gear1)</title>
<path fill="none" stroke="black" d="M1623.05,-213.58C1716.63,-197.75 1830.13,-178.56 1918.7,-163.58"/>
<polygon fill="black" stroke="black" points="1919.54,-166.98 1928.82,-161.87 1918.38,-160.08 1919.54,-166.98"/>
</g>
<!-- precondition:
 is_empty(parallelgripper) -->
<g id="node13" class="node">
<title>precondition:
 is_empty(parallelgripper)</title>
<ellipse fill="#ffec8b" stroke="black" cx="1858.08" cy="-33.94" rx="178.8" ry="33.88"/>
<text text-anchor="middle" x="1858.08" y="-39.54" font-family="Times,serif" font-size="18.00">precondition:</text>
<text text-anchor="middle" x="1858.08" y="-19.54" font-family="Times,serif" font-size="18.00"> is_empty(parallelgripper)</text>
</g>
<!-- sequence:
 pick_up(left_hand, parallelgripper, gear1)&#45;&gt;precondition:
 is_empty(parallelgripper) -->
<g id="edge12" class="edge">
<title>sequence:
 pick_up(left_hand, parallelgripper, gear1)&#45;&gt;precondition:
 is_empty(parallelgripper)</title>
<path fill="none" stroke="black" d="M2018.11,-113.7C1992.17,-100.94 1959.4,-84.81 1930.27,-70.47"/>
<polygon fill="black" stroke="black" points="1931.48,-67.16 1920.96,-65.89 1928.39,-73.44 1931.48,-67.16"/>
</g>
<!-- precondition:
 hold(left_hand, parallelgripper) -->
<g id="node14" class="node">
<title>precondition:
 hold(left_hand, parallelgripper)</title>
<ellipse fill="#ffec8b" stroke="black" cx="2272.08" cy="-33.94" rx="217.16" ry="33.88"/>
<text text-anchor="middle" x="2272.08" y="-39.54" font-family="Times,serif" font-size="18.00">precondition:</text>
<text text-anchor="middle" x="2272.08" y="-19.54" font-family="Times,serif" font-size="18.00"> hold(left_hand, parallelgripper)</text>
</g>
<!-- sequence:
 pick_up(left_hand, parallelgripper, gear1)&#45;&gt;precondition:
 hold(left_hand, parallelgripper) -->
<g id="edge13" class="edge">
<title>sequence:
 pick_up(left_hand, parallelgripper, gear1)&#45;&gt;precondition:
 hold(left_hand, parallelgripper)</title>
<path fill="none" stroke="black" d="M2112.05,-113.7C2137.67,-101.1 2169.95,-85.21 2198.8,-71.01"/>
<polygon fill="black" stroke="black" points="2200.61,-74.02 2208.03,-66.46 2197.52,-67.74 2200.61,-74.02"/>
</g>
<!-- action:
 pick_up(left_hand, parallelgripper, gear1) -->
<g id="node15" class="node">
<title>action:
 pick_up(left_hand, parallelgripper, gear1)</title>
<ellipse fill="lightgreen" stroke="black" cx="2789.08" cy="-33.94" rx="282.27" ry="33.88"/>
<text text-anchor="middle" x="2789.08" y="-39.54" font-family="Times,serif" font-size="18.00">action:</text>
<text text-anchor="middle" x="2789.08" y="-19.54" font-family="Times,serif" font-size="18.00"> pick_up(left_hand, parallelgripper, gear1)</text>
</g>
<!-- sequence:
 pick_up(left_hand, parallelgripper, gear1)&#45;&gt;action:
 pick_up(left_hand, parallelgripper, gear1) -->
<g id="edge14" class="edge">
<title>sequence:
 pick_up(left_hand, parallelgripper, gear1)&#45;&gt;action:
 pick_up(left_hand, parallelgripper, gear1)</title>
<path fill="none" stroke="black" d="M2228.92,-113.77C2339.06,-98.27 2484.59,-77.79 2599.71,-61.59"/>
<polygon fill="black" stroke="black" points="2600.28,-65.04 2609.69,-60.19 2599.3,-58.11 2600.28,-65.04"/>
</g>
</g>
</svg>
