<?xml version="1.0" encoding="UTF-8" standalone="no"?>
<!DOCTYPE svg PUBLIC "-//W3C//DTD SVG 1.1//EN"
 "http://www.w3.org/Graphics/SVG/1.1/DTD/svg11.dtd">
<!-- Generated by graphviz version 2.43.0 (0)
 -->
<!-- Title: pastafarianism Pages: 1 -->
<svg width="2233pt" height="548pt"
 viewBox="0.00 0.00 2232.87 548.00" xmlns="http://www.w3.org/2000/svg" xmlns:xlink="http://www.w3.org/1999/xlink">
<g id="graph0" class="graph" transform="scale(1 1) rotate(0) translate(4 544)">
<title>pastafarianism</title>
<polygon fill="white" stroke="transparent" points="-4,4 -4,-544 2228.87,-544 2228.87,4 -4,4"/>
<!-- Fallback -->
<g id="node1" class="node">
<title>Fallback</title>
<polygon fill="cyan" stroke="black" points="999.41,-514.54 999.41,-529.46 978.91,-540 949.93,-540 929.43,-529.46 929.43,-514.54 949.93,-504 978.91,-504 999.41,-514.54"/>
<text text-anchor="middle" x="964.42" y="-519.8" font-family="Times,serif" font-size="9.00">Fallback</text>
</g>
<!-- Sequence -->
<g id="node2" class="node">
<title>Sequence</title>
<polygon fill="orange" stroke="black" points="700.42,-468 638.42,-468 638.42,-432 700.42,-432 700.42,-468"/>
<text text-anchor="middle" x="669.42" y="-447.8" font-family="Times,serif" font-size="9.00">Sequence</text>
</g>
<!-- Fallback&#45;&gt;Sequence -->
<g id="edge1" class="edge">
<title>Fallback&#45;&gt;Sequence</title>
<path fill="none" stroke="black" d="M931.72,-513.24C877.55,-500.39 769.31,-474.7 710.22,-460.68"/>
<polygon fill="black" stroke="black" points="711.02,-457.27 700.48,-458.37 709.4,-464.08 711.02,-457.27"/>
</g>
<!-- Sequence &#160;&#160;&#160;&#160;&#160;&#160; -->
<g id="node37" class="node">
<title>Sequence &#160;&#160;&#160;&#160;&#160;&#160;</title>
<polygon fill="orange" stroke="black" points="1470.42,-468 1408.42,-468 1408.42,-432 1470.42,-432 1470.42,-468"/>
<text text-anchor="middle" x="1439.42" y="-447.8" font-family="Times,serif" font-size="9.00">Sequence</text>
</g>
<!-- Fallback&#45;&gt;Sequence &#160;&#160;&#160;&#160;&#160;&#160; -->
<g id="edge36" class="edge">
<title>Fallback&#45;&gt;Sequence &#160;&#160;&#160;&#160;&#160;&#160;</title>
<path fill="none" stroke="black" d="M999.73,-515.8C1085.86,-503.1 1306.34,-470.61 1398.24,-457.07"/>
<polygon fill="black" stroke="black" points="1398.89,-460.51 1408.28,-455.59 1397.87,-453.58 1398.89,-460.51"/>
</g>
<!-- unstacked -->
<g id="node3" class="node">
<title>unstacked</title>
<ellipse fill="lightgray" stroke="black" cx="339.42" cy="-378" rx="36.9" ry="18"/>
<text text-anchor="middle" x="339.42" y="-375.8" font-family="Times,serif" font-size="9.00">unstacked</text>
</g>
<!-- Sequence&#45;&gt;unstacked -->
<g id="edge2" class="edge">
<title>Sequence&#45;&gt;unstacked</title>
<path fill="none" stroke="black" d="M638.35,-444.96C585.7,-437.73 475.83,-420.95 385.42,-396 382.65,-395.24 379.81,-394.38 376.97,-393.46"/>
<polygon fill="black" stroke="black" points="377.99,-390.11 367.39,-390.2 375.73,-396.74 377.99,-390.11"/>
</g>
<!-- Fallback  -->
<g id="node4" class="node">
<title>Fallback </title>
<polygon fill="cyan" stroke="black" points="464.41,-370.54 464.41,-385.46 443.91,-396 414.93,-396 394.43,-385.46 394.43,-370.54 414.93,-360 443.91,-360 464.41,-370.54"/>
<text text-anchor="middle" x="429.42" y="-375.8" font-family="Times,serif" font-size="9.00">Fallback</text>
</g>
<!-- Sequence&#45;&gt;Fallback  -->
<g id="edge3" class="edge">
<title>Sequence&#45;&gt;Fallback </title>
<path fill="none" stroke="black" d="M638.04,-439.85C594.87,-427.25 517.1,-404.57 469.68,-390.74"/>
<polygon fill="black" stroke="black" points="470.63,-387.37 460.05,-387.93 468.67,-394.09 470.63,-387.37"/>
</g>
<!-- Fallback &#160;&#160;&#160; -->
<g id="node15" class="node">
<title>Fallback &#160;&#160;&#160;</title>
<polygon fill="cyan" stroke="black" points="704.41,-370.54 704.41,-385.46 683.91,-396 654.93,-396 634.43,-385.46 634.43,-370.54 654.93,-360 683.91,-360 704.41,-370.54"/>
<text text-anchor="middle" x="669.42" y="-375.8" font-family="Times,serif" font-size="9.00">Fallback</text>
</g>
<!-- Sequence&#45;&gt;Fallback &#160;&#160;&#160; -->
<g id="edge14" class="edge">
<title>Sequence&#45;&gt;Fallback &#160;&#160;&#160;</title>
<path fill="none" stroke="black" d="M669.42,-431.7C669.42,-423.98 669.42,-414.71 669.42,-406.11"/>
<polygon fill="black" stroke="black" points="672.92,-406.1 669.42,-396.1 665.92,-406.1 672.92,-406.1"/>
</g>
<!-- Fallback &#160;&#160;&#160;&#160;&#160;&#160; -->
<g id="node26" class="node">
<title>Fallback &#160;&#160;&#160;&#160;&#160;&#160;</title>
<polygon fill="cyan" stroke="black" points="971.41,-370.54 971.41,-385.46 950.91,-396 921.93,-396 901.43,-385.46 901.43,-370.54 921.93,-360 950.91,-360 971.41,-370.54"/>
<text text-anchor="middle" x="936.42" y="-375.8" font-family="Times,serif" font-size="9.00">Fallback</text>
</g>
<!-- Sequence&#45;&gt;Fallback &#160;&#160;&#160;&#160;&#160;&#160; -->
<g id="edge25" class="edge">
<title>Sequence&#45;&gt;Fallback &#160;&#160;&#160;&#160;&#160;&#160;</title>
<path fill="none" stroke="black" d="M700.57,-440.83C748.65,-428.23 840.97,-404.02 894.75,-389.93"/>
<polygon fill="black" stroke="black" points="895.85,-393.25 904.64,-387.33 894.08,-386.48 895.85,-393.25"/>
</g>
<!-- object_at YellowBox [0.0, 0.0, 0.175] 0.02 KittingBox -->
<g id="node5" class="node">
<title>object_at YellowBox [0.0, 0.0, 0.175] 0.02 KittingBox</title>
<ellipse fill="lightgray" stroke="black" cx="152.42" cy="-306" rx="152.34" ry="18"/>
<text text-anchor="middle" x="152.42" y="-303.8" font-family="Times,serif" font-size="9.00">object_at YellowBox [0.0, 0.0, 0.175] 0.02 KittingBox</text>
</g>
<!-- Fallback &#45;&gt;object_at YellowBox [0.0, 0.0, 0.175] 0.02 KittingBox -->
<g id="edge4" class="edge">
<title>Fallback &#45;&gt;object_at YellowBox [0.0, 0.0, 0.175] 0.02 KittingBox</title>
<path fill="none" stroke="black" d="M402.64,-365.94C397.01,-363.82 391.06,-361.72 385.42,-360 337.65,-345.42 283.28,-332.83 239.08,-323.59"/>
<polygon fill="black" stroke="black" points="239.74,-320.15 229.23,-321.55 238.32,-327 239.74,-320.15"/>
</g>
<!-- Sequence  -->
<g id="node6" class="node">
<title>Sequence </title>
<polygon fill="orange" stroke="black" points="384.42,-324 322.42,-324 322.42,-288 384.42,-288 384.42,-324"/>
<text text-anchor="middle" x="353.42" y="-303.8" font-family="Times,serif" font-size="9.00">Sequence</text>
</g>
<!-- Fallback &#45;&gt;Sequence  -->
<g id="edge5" class="edge">
<title>Fallback &#45;&gt;Sequence </title>
<path fill="none" stroke="black" d="M412.17,-361.12C402.52,-352.22 390.28,-340.95 379.48,-331"/>
<polygon fill="black" stroke="black" points="381.65,-328.24 371.93,-324.04 376.91,-333.39 381.65,-328.24"/>
</g>
<!-- Fallback &#160; -->
<g id="node7" class="node">
<title>Fallback &#160;</title>
<polygon fill="cyan" stroke="black" points="192.41,-226.54 192.41,-241.46 171.91,-252 142.93,-252 122.43,-241.46 122.43,-226.54 142.93,-216 171.91,-216 192.41,-226.54"/>
<text text-anchor="middle" x="157.42" y="-231.8" font-family="Times,serif" font-size="9.00">Fallback</text>
</g>
<!-- Sequence &#45;&gt;Fallback &#160; -->
<g id="edge6" class="edge">
<title>Sequence &#45;&gt;Fallback &#160;</title>
<path fill="none" stroke="black" d="M322.09,-291.36C319.17,-290.19 316.25,-289.05 313.42,-288 264.42,-269.76 250.72,-269.43 201.42,-252 198.9,-251.11 196.31,-250.17 193.71,-249.21"/>
<polygon fill="black" stroke="black" points="194.91,-245.92 184.32,-245.68 192.45,-252.47 194.91,-245.92"/>
</g>
<!-- place0 YellowBox [0.0, 0.0, 0.175] 0.02 KittingBox -->
<g id="node14" class="node">
<title>place0 YellowBox [0.0, 0.0, 0.175] 0.02 KittingBox</title>
<ellipse fill="lightgray" stroke="black" cx="356.42" cy="-234" rx="146.14" ry="18"/>
<text text-anchor="middle" x="356.42" y="-231.8" font-family="Times,serif" font-size="9.00">place0 YellowBox [0.0, 0.0, 0.175] 0.02 KittingBox</text>
</g>
<!-- Sequence &#45;&gt;place0 YellowBox [0.0, 0.0, 0.175] 0.02 KittingBox -->
<g id="edge13" class="edge">
<title>Sequence &#45;&gt;place0 YellowBox [0.0, 0.0, 0.175] 0.02 KittingBox</title>
<path fill="none" stroke="black" d="M354.16,-287.7C354.49,-279.98 354.89,-270.71 355.26,-262.11"/>
<polygon fill="black" stroke="black" points="358.76,-262.25 355.69,-252.1 351.76,-261.95 358.76,-262.25"/>
</g>
<!-- in_gripper YellowBox -->
<g id="node8" class="node">
<title>in_gripper YellowBox</title>
<ellipse fill="lightgray" stroke="black" cx="100.42" cy="-162" rx="66.29" ry="18"/>
<text text-anchor="middle" x="100.42" y="-159.8" font-family="Times,serif" font-size="9.00">in_gripper YellowBox</text>
</g>
<!-- Fallback &#160;&#45;&gt;in_gripper YellowBox -->
<g id="edge7" class="edge">
<title>Fallback &#160;&#45;&gt;in_gripper YellowBox</title>
<path fill="none" stroke="black" d="M143.33,-215.7C136.4,-207.18 127.91,-196.76 120.33,-187.45"/>
<polygon fill="black" stroke="black" points="122.98,-185.17 113.96,-179.62 117.56,-189.59 122.98,-185.17"/>
</g>
<!-- Sequence &#160; -->
<g id="node9" class="node">
<title>Sequence &#160;</title>
<polygon fill="orange" stroke="black" points="246.42,-180 184.42,-180 184.42,-144 246.42,-144 246.42,-180"/>
<text text-anchor="middle" x="215.42" y="-159.8" font-family="Times,serif" font-size="9.00">Sequence</text>
</g>
<!-- Fallback &#160;&#45;&gt;Sequence &#160; -->
<g id="edge8" class="edge">
<title>Fallback &#160;&#45;&gt;Sequence &#160;</title>
<path fill="none" stroke="black" d="M171.76,-215.7C178.71,-207.3 187.19,-197.07 194.82,-187.86"/>
<polygon fill="black" stroke="black" points="197.56,-190.04 201.25,-180.1 192.17,-185.57 197.56,-190.04"/>
</g>
<!-- Fallback &#160;&#160; -->
<g id="node10" class="node">
<title>Fallback &#160;&#160;</title>
<polygon fill="cyan" stroke="black" points="193.41,-82.54 193.41,-97.46 172.91,-108 143.93,-108 123.43,-97.46 123.43,-82.54 143.93,-72 172.91,-72 193.41,-82.54"/>
<text text-anchor="middle" x="158.42" y="-87.8" font-family="Times,serif" font-size="9.00">Fallback</text>
</g>
<!-- Sequence &#160;&#45;&gt;Fallback &#160;&#160; -->
<g id="edge9" class="edge">
<title>Sequence &#160;&#45;&gt;Fallback &#160;&#160;</title>
<path fill="none" stroke="black" d="M201.33,-143.7C194.5,-135.3 186.16,-125.07 178.66,-115.86"/>
<polygon fill="black" stroke="black" points="181.38,-113.65 172.35,-108.1 175.95,-118.07 181.38,-113.65"/>
</g>
<!-- pick0 YellowBox -->
<g id="node13" class="node">
<title>pick0 YellowBox</title>
<ellipse fill="lightgray" stroke="black" cx="264.42" cy="-90" rx="53.23" ry="18"/>
<text text-anchor="middle" x="264.42" y="-87.8" font-family="Times,serif" font-size="9.00">pick0 YellowBox</text>
</g>
<!-- Sequence &#160;&#45;&gt;pick0 YellowBox -->
<g id="edge12" class="edge">
<title>Sequence &#160;&#45;&gt;pick0 YellowBox</title>
<path fill="none" stroke="black" d="M227.53,-143.7C233.37,-135.35 240.49,-125.18 246.91,-116.02"/>
<polygon fill="black" stroke="black" points="249.92,-117.82 252.78,-107.62 244.18,-113.81 249.92,-117.82"/>
</g>
<!-- gripper_state open -->
<g id="node11" class="node">
<title>gripper_state open</title>
<ellipse fill="lightgray" stroke="black" cx="96.42" cy="-18" rx="60.09" ry="18"/>
<text text-anchor="middle" x="96.42" y="-15.8" font-family="Times,serif" font-size="9.00">gripper_state open</text>
</g>
<!-- Fallback &#160;&#160;&#45;&gt;gripper_state open -->
<g id="edge10" class="edge">
<title>Fallback &#160;&#160;&#45;&gt;gripper_state open</title>
<path fill="none" stroke="black" d="M143.41,-72.05C135.8,-63.46 126.41,-52.86 118.03,-43.4"/>
<polygon fill="black" stroke="black" points="120.54,-40.95 111.29,-35.79 115.3,-45.6 120.54,-40.95"/>
</g>
<!-- open_gripper -->
<g id="node12" class="node">
<title>open_gripper</title>
<ellipse fill="lightgray" stroke="black" cx="220.42" cy="-18" rx="45.72" ry="18"/>
<text text-anchor="middle" x="220.42" y="-15.8" font-family="Times,serif" font-size="9.00">open_gripper</text>
</g>
<!-- Fallback &#160;&#160;&#45;&gt;open_gripper -->
<g id="edge11" class="edge">
<title>Fallback &#160;&#160;&#45;&gt;open_gripper</title>
<path fill="none" stroke="black" d="M173.43,-72.05C181.16,-63.33 190.71,-52.54 199.18,-42.98"/>
<polygon fill="black" stroke="black" points="201.97,-45.11 205.98,-35.31 196.73,-40.47 201.97,-45.11"/>
</g>
<!-- object_at GreenBox [0.0, 0.0, 0.22] 0.02 YellowBox -->
<g id="node16" class="node">
<title>object_at GreenBox [0.0, 0.0, 0.22] 0.02 YellowBox</title>
<ellipse fill="lightgray" stroke="black" cx="549.42" cy="-306" rx="146.79" ry="18"/>
<text text-anchor="middle" x="549.42" y="-303.8" font-family="Times,serif" font-size="9.00">object_at GreenBox [0.0, 0.0, 0.22] 0.02 YellowBox</text>
</g>
<!-- Fallback &#160;&#160;&#160;&#45;&gt;object_at GreenBox [0.0, 0.0, 0.22] 0.02 YellowBox -->
<g id="edge15" class="edge">
<title>Fallback &#160;&#160;&#160;&#45;&gt;object_at GreenBox [0.0, 0.0, 0.22] 0.02 YellowBox</title>
<path fill="none" stroke="black" d="M647.13,-364C630.32,-354.19 606.87,-340.51 587.15,-329.01"/>
<polygon fill="black" stroke="black" points="588.8,-325.92 578.4,-323.9 585.27,-331.96 588.8,-325.92"/>
</g>
<!-- Sequence &#160;&#160; -->
<g id="node17" class="node">
<title>Sequence &#160;&#160;</title>
<polygon fill="orange" stroke="black" points="776.42,-324 714.42,-324 714.42,-288 776.42,-288 776.42,-324"/>
<text text-anchor="middle" x="745.42" y="-303.8" font-family="Times,serif" font-size="9.00">Sequence</text>
</g>
<!-- Fallback &#160;&#160;&#160;&#45;&gt;Sequence &#160;&#160; -->
<g id="edge16" class="edge">
<title>Fallback &#160;&#160;&#160;&#45;&gt;Sequence &#160;&#160;</title>
<path fill="none" stroke="black" d="M686.67,-361.12C696.32,-352.22 708.56,-340.95 719.36,-331"/>
<polygon fill="black" stroke="black" points="721.93,-333.39 726.92,-324.04 717.19,-328.24 721.93,-333.39"/>
</g>
<!-- Fallback &#160;&#160;&#160;&#160; -->
<g id="node18" class="node">
<title>Fallback &#160;&#160;&#160;&#160;</title>
<polygon fill="cyan" stroke="black" points="640.41,-226.54 640.41,-241.46 619.91,-252 590.93,-252 570.43,-241.46 570.43,-226.54 590.93,-216 619.91,-216 640.41,-226.54"/>
<text text-anchor="middle" x="605.42" y="-231.8" font-family="Times,serif" font-size="9.00">Fallback</text>
</g>
<!-- Sequence &#160;&#160;&#45;&gt;Fallback &#160;&#160;&#160;&#160; -->
<g id="edge17" class="edge">
<title>Sequence &#160;&#160;&#45;&gt;Fallback &#160;&#160;&#160;&#160;</title>
<path fill="none" stroke="black" d="M714.35,-289.46C691.98,-278.28 661.82,-263.2 638.91,-251.75"/>
<polygon fill="black" stroke="black" points="640.41,-248.58 629.9,-247.24 637.28,-254.84 640.41,-248.58"/>
</g>
<!-- place0 GreenBox [0.0, 0.0, 0.22] 0.02 YellowBox -->
<g id="node25" class="node">
<title>place0 GreenBox [0.0, 0.0, 0.22] 0.02 YellowBox</title>
<ellipse fill="lightgray" stroke="black" cx="798.42" cy="-234" rx="140.09" ry="18"/>
<text text-anchor="middle" x="798.42" y="-231.8" font-family="Times,serif" font-size="9.00">place0 GreenBox [0.0, 0.0, 0.22] 0.02 YellowBox</text>
</g>
<!-- Sequence &#160;&#160;&#45;&gt;place0 GreenBox [0.0, 0.0, 0.22] 0.02 YellowBox -->
<g id="edge24" class="edge">
<title>Sequence &#160;&#160;&#45;&gt;place0 GreenBox [0.0, 0.0, 0.22] 0.02 YellowBox</title>
<path fill="none" stroke="black" d="M758.52,-287.7C764.81,-279.39 772.47,-269.28 779.39,-260.14"/>
<polygon fill="black" stroke="black" points="782.22,-262.19 785.47,-252.1 776.64,-257.96 782.22,-262.19"/>
</g>
<!-- in_gripper GreenBox -->
<g id="node19" class="node">
<title>in_gripper GreenBox</title>
<ellipse fill="lightgray" stroke="black" cx="547.42" cy="-162" rx="65.64" ry="18"/>
<text text-anchor="middle" x="547.42" y="-159.8" font-family="Times,serif" font-size="9.00">in_gripper GreenBox</text>
</g>
<!-- Fallback &#160;&#160;&#160;&#160;&#45;&gt;in_gripper GreenBox -->
<g id="edge18" class="edge">
<title>Fallback &#160;&#160;&#160;&#160;&#45;&gt;in_gripper GreenBox</title>
<path fill="none" stroke="black" d="M591.08,-215.7C584.03,-207.18 575.4,-196.76 567.68,-187.45"/>
<polygon fill="black" stroke="black" points="570.27,-185.09 561.19,-179.62 564.88,-189.56 570.27,-185.09"/>
</g>
<!-- Sequence &#160;&#160;&#160; -->
<g id="node20" class="node">
<title>Sequence &#160;&#160;&#160;</title>
<polygon fill="orange" stroke="black" points="693.42,-180 631.42,-180 631.42,-144 693.42,-144 693.42,-180"/>
<text text-anchor="middle" x="662.42" y="-159.8" font-family="Times,serif" font-size="9.00">Sequence</text>
</g>
<!-- Fallback &#160;&#160;&#160;&#160;&#45;&gt;Sequence &#160;&#160;&#160; -->
<g id="edge19" class="edge">
<title>Fallback &#160;&#160;&#160;&#160;&#45;&gt;Sequence &#160;&#160;&#160;</title>
<path fill="none" stroke="black" d="M619.51,-215.7C626.34,-207.3 634.68,-197.07 642.18,-187.86"/>
<polygon fill="black" stroke="black" points="644.89,-190.07 648.49,-180.1 639.46,-185.65 644.89,-190.07"/>
</g>
<!-- Fallback &#160;&#160;&#160;&#160;&#160; -->
<g id="node21" class="node">
<title>Fallback &#160;&#160;&#160;&#160;&#160;</title>
<polygon fill="cyan" stroke="black" points="638.41,-82.54 638.41,-97.46 617.91,-108 588.93,-108 568.43,-97.46 568.43,-82.54 588.93,-72 617.91,-72 638.41,-82.54"/>
<text text-anchor="middle" x="603.42" y="-87.8" font-family="Times,serif" font-size="9.00">Fallback</text>
</g>
<!-- Sequence &#160;&#160;&#160;&#45;&gt;Fallback &#160;&#160;&#160;&#160;&#160; -->
<g id="edge20" class="edge">
<title>Sequence &#160;&#160;&#160;&#45;&gt;Fallback &#160;&#160;&#160;&#160;&#160;</title>
<path fill="none" stroke="black" d="M647.84,-143.7C640.76,-135.3 632.14,-125.07 624.38,-115.86"/>
<polygon fill="black" stroke="black" points="626.96,-113.49 617.84,-108.1 621.61,-118.01 626.96,-113.49"/>
</g>
<!-- pick0 GreenBox -->
<g id="node24" class="node">
<title>pick0 GreenBox</title>
<ellipse fill="lightgray" stroke="black" cx="709.42" cy="-90" rx="52.58" ry="18"/>
<text text-anchor="middle" x="709.42" y="-87.8" font-family="Times,serif" font-size="9.00">pick0 GreenBox</text>
</g>
<!-- Sequence &#160;&#160;&#160;&#45;&gt;pick0 GreenBox -->
<g id="edge23" class="edge">
<title>Sequence &#160;&#160;&#160;&#45;&gt;pick0 GreenBox</title>
<path fill="none" stroke="black" d="M674.04,-143.7C679.64,-135.35 686.47,-125.18 692.62,-116.02"/>
<polygon fill="black" stroke="black" points="695.59,-117.88 698.26,-107.62 689.78,-113.97 695.59,-117.88"/>
</g>
<!-- gripper_state open  -->
<g id="node22" class="node">
<title>gripper_state open </title>
<ellipse fill="lightgray" stroke="black" cx="544.42" cy="-18" rx="60.09" ry="18"/>
<text text-anchor="middle" x="544.42" y="-15.8" font-family="Times,serif" font-size="9.00">gripper_state open</text>
</g>
<!-- Fallback &#160;&#160;&#160;&#160;&#160;&#45;&gt;gripper_state open  -->
<g id="edge21" class="edge">
<title>Fallback &#160;&#160;&#160;&#160;&#160;&#45;&gt;gripper_state open </title>
<path fill="none" stroke="black" d="M588.84,-71.7C581.66,-63.18 572.88,-52.76 565.03,-43.45"/>
<polygon fill="black" stroke="black" points="567.55,-41.01 558.43,-35.62 562.2,-45.52 567.55,-41.01"/>
</g>
<!-- open_gripper  -->
<g id="node23" class="node">
<title>open_gripper </title>
<ellipse fill="lightgray" stroke="black" cx="668.42" cy="-18" rx="45.72" ry="18"/>
<text text-anchor="middle" x="668.42" y="-15.8" font-family="Times,serif" font-size="9.00">open_gripper</text>
</g>
<!-- Fallback &#160;&#160;&#160;&#160;&#160;&#45;&gt;open_gripper  -->
<g id="edge22" class="edge">
<title>Fallback &#160;&#160;&#160;&#160;&#160;&#45;&gt;open_gripper </title>
<path fill="none" stroke="black" d="M618.82,-72.41C627,-63.61 637.19,-52.63 646.21,-42.92"/>
<polygon fill="black" stroke="black" points="648.89,-45.18 653.13,-35.47 643.76,-40.42 648.89,-45.18"/>
</g>
<!-- object_at BlueBox [0.0, 0.0, 0.22] 0.02 GreenBox -->
<g id="node27" class="node">
<title>object_at BlueBox [0.0, 0.0, 0.22] 0.02 GreenBox</title>
<ellipse fill="lightgray" stroke="black" cx="936.42" cy="-306" rx="142.06" ry="18"/>
<text text-anchor="middle" x="936.42" y="-303.8" font-family="Times,serif" font-size="9.00">object_at BlueBox [0.0, 0.0, 0.22] 0.02 GreenBox</text>
</g>
<!-- Fallback &#160;&#160;&#160;&#160;&#160;&#160;&#45;&gt;object_at BlueBox [0.0, 0.0, 0.22] 0.02 GreenBox -->
<g id="edge26" class="edge">
<title>Fallback &#160;&#160;&#160;&#160;&#160;&#160;&#45;&gt;object_at BlueBox [0.0, 0.0, 0.22] 0.02 GreenBox</title>
<path fill="none" stroke="black" d="M936.42,-359.7C936.42,-351.98 936.42,-342.71 936.42,-334.11"/>
<polygon fill="black" stroke="black" points="939.92,-334.1 936.42,-324.1 932.92,-334.1 939.92,-334.1"/>
</g>
<!-- Sequence &#160;&#160;&#160;&#160; -->
<g id="node28" class="node">
<title>Sequence &#160;&#160;&#160;&#160;</title>
<polygon fill="orange" stroke="black" points="1158.42,-324 1096.42,-324 1096.42,-288 1158.42,-288 1158.42,-324"/>
<text text-anchor="middle" x="1127.42" y="-303.8" font-family="Times,serif" font-size="9.00">Sequence</text>
</g>
<!-- Fallback &#160;&#160;&#160;&#160;&#160;&#160;&#45;&gt;Sequence &#160;&#160;&#160;&#160; -->
<g id="edge27" class="edge">
<title>Fallback &#160;&#160;&#160;&#160;&#160;&#160;&#45;&gt;Sequence &#160;&#160;&#160;&#160;</title>
<path fill="none" stroke="black" d="M965.57,-367.39C994.22,-357.81 1039.36,-342.35 1086.59,-324.22"/>
<polygon fill="black" stroke="black" points="1087.99,-327.43 1096.06,-320.56 1085.47,-320.9 1087.99,-327.43"/>
</g>
<!-- Fallback &#160;&#160;&#160;&#160;&#160;&#160;&#160; -->
<g id="node29" class="node">
<title>Fallback &#160;&#160;&#160;&#160;&#160;&#160;&#160;</title>
<polygon fill="cyan" stroke="black" points="1037.41,-226.54 1037.41,-241.46 1016.91,-252 987.93,-252 967.43,-241.46 967.43,-226.54 987.93,-216 1016.91,-216 1037.41,-226.54"/>
<text text-anchor="middle" x="1002.42" y="-231.8" font-family="Times,serif" font-size="9.00">Fallback</text>
</g>
<!-- Sequence &#160;&#160;&#160;&#160;&#45;&gt;Fallback &#160;&#160;&#160;&#160;&#160;&#160;&#160; -->
<g id="edge28" class="edge">
<title>Sequence &#160;&#160;&#160;&#160;&#45;&gt;Fallback &#160;&#160;&#160;&#160;&#160;&#160;&#160;</title>
<path fill="none" stroke="black" d="M1096.84,-287.88C1077.84,-277.23 1053.44,-263.57 1034.21,-252.8"/>
<polygon fill="black" stroke="black" points="1035.67,-249.61 1025.23,-247.78 1032.25,-255.72 1035.67,-249.61"/>
</g>
<!-- place0 BlueBox [0.0, 0.0, 0.22] 0.02 GreenBox -->
<g id="node36" class="node">
<title>place0 BlueBox [0.0, 0.0, 0.22] 0.02 GreenBox</title>
<ellipse fill="lightgray" stroke="black" cx="1191.42" cy="-234" rx="135.85" ry="18"/>
<text text-anchor="middle" x="1191.42" y="-231.8" font-family="Times,serif" font-size="9.00">place0 BlueBox [0.0, 0.0, 0.22] 0.02 GreenBox</text>
</g>
<!-- Sequence &#160;&#160;&#160;&#160;&#45;&gt;place0 BlueBox [0.0, 0.0, 0.22] 0.02 GreenBox -->
<g id="edge35" class="edge">
<title>Sequence &#160;&#160;&#160;&#160;&#45;&gt;place0 BlueBox [0.0, 0.0, 0.22] 0.02 GreenBox</title>
<path fill="none" stroke="black" d="M1143.24,-287.7C1150.99,-279.22 1160.46,-268.86 1168.94,-259.58"/>
<polygon fill="black" stroke="black" points="1171.62,-261.85 1175.78,-252.1 1166.45,-257.12 1171.62,-261.85"/>
</g>
<!-- in_gripper BlueBox -->
<g id="node30" class="node">
<title>in_gripper BlueBox</title>
<ellipse fill="lightgray" stroke="black" cx="946.42" cy="-162" rx="61.55" ry="18"/>
<text text-anchor="middle" x="946.42" y="-159.8" font-family="Times,serif" font-size="9.00">in_gripper BlueBox</text>
</g>
<!-- Fallback &#160;&#160;&#160;&#160;&#160;&#160;&#160;&#45;&gt;in_gripper BlueBox -->
<g id="edge29" class="edge">
<title>Fallback &#160;&#160;&#160;&#160;&#160;&#160;&#160;&#45;&gt;in_gripper BlueBox</title>
<path fill="none" stroke="black" d="M988.58,-215.7C981.76,-207.18 973.43,-196.76 965.98,-187.45"/>
<polygon fill="black" stroke="black" points="968.7,-185.24 959.72,-179.62 963.23,-189.62 968.7,-185.24"/>
</g>
<!-- Sequence &#160;&#160;&#160;&#160;&#160; -->
<g id="node31" class="node">
<title>Sequence &#160;&#160;&#160;&#160;&#160;</title>
<polygon fill="orange" stroke="black" points="1088.42,-180 1026.42,-180 1026.42,-144 1088.42,-144 1088.42,-180"/>
<text text-anchor="middle" x="1057.42" y="-159.8" font-family="Times,serif" font-size="9.00">Sequence</text>
</g>
<!-- Fallback &#160;&#160;&#160;&#160;&#160;&#160;&#160;&#45;&gt;Sequence &#160;&#160;&#160;&#160;&#160; -->
<g id="edge30" class="edge">
<title>Fallback &#160;&#160;&#160;&#160;&#160;&#160;&#160;&#45;&gt;Sequence &#160;&#160;&#160;&#160;&#160;</title>
<path fill="none" stroke="black" d="M1016.02,-215.7C1022.54,-207.39 1030.49,-197.28 1037.67,-188.14"/>
<polygon fill="black" stroke="black" points="1040.56,-190.13 1043.98,-180.1 1035.05,-185.81 1040.56,-190.13"/>
</g>
<!-- Fallback &#160;&#160;&#160;&#160;&#160;&#160;&#160;&#160; -->
<g id="node32" class="node">
<title>Fallback &#160;&#160;&#160;&#160;&#160;&#160;&#160;&#160;</title>
<polygon fill="cyan" stroke="black" points="1028.41,-82.54 1028.41,-97.46 1007.91,-108 978.93,-108 958.43,-97.46 958.43,-82.54 978.93,-72 1007.91,-72 1028.41,-82.54"/>
<text text-anchor="middle" x="993.42" y="-87.8" font-family="Times,serif" font-size="9.00">Fallback</text>
</g>
<!-- Sequence &#160;&#160;&#160;&#160;&#160;&#45;&gt;Fallback &#160;&#160;&#160;&#160;&#160;&#160;&#160;&#160; -->
<g id="edge31" class="edge">
<title>Sequence &#160;&#160;&#160;&#160;&#160;&#45;&gt;Fallback &#160;&#160;&#160;&#160;&#160;&#160;&#160;&#160;</title>
<path fill="none" stroke="black" d="M1041.6,-143.7C1033.85,-135.22 1024.38,-124.86 1015.9,-115.58"/>
<polygon fill="black" stroke="black" points="1018.39,-113.12 1009.06,-108.1 1013.22,-117.85 1018.39,-113.12"/>
</g>
<!-- pick0 BlueBox -->
<g id="node35" class="node">
<title>pick0 BlueBox</title>
<ellipse fill="lightgray" stroke="black" cx="1094.42" cy="-90" rx="47.84" ry="18"/>
<text text-anchor="middle" x="1094.42" y="-87.8" font-family="Times,serif" font-size="9.00">pick0 BlueBox</text>
</g>
<!-- Sequence &#160;&#160;&#160;&#160;&#160;&#45;&gt;pick0 BlueBox -->
<g id="edge34" class="edge">
<title>Sequence &#160;&#160;&#160;&#160;&#160;&#45;&gt;pick0 BlueBox</title>
<path fill="none" stroke="black" d="M1066.57,-143.7C1070.82,-135.64 1075.98,-125.89 1080.69,-116.98"/>
<polygon fill="black" stroke="black" points="1083.8,-118.58 1085.38,-108.1 1077.61,-115.31 1083.8,-118.58"/>
</g>
<!-- gripper_state open &#160; -->
<g id="node33" class="node">
<title>gripper_state open &#160;</title>
<ellipse fill="lightgray" stroke="black" cx="931.42" cy="-18" rx="60.09" ry="18"/>
<text text-anchor="middle" x="931.42" y="-15.8" font-family="Times,serif" font-size="9.00">gripper_state open</text>
</g>
<!-- Fallback &#160;&#160;&#160;&#160;&#160;&#160;&#160;&#160;&#45;&gt;gripper_state open &#160; -->
<g id="edge32" class="edge">
<title>Fallback &#160;&#160;&#160;&#160;&#160;&#160;&#160;&#160;&#45;&gt;gripper_state open &#160;</title>
<path fill="none" stroke="black" d="M978.41,-72.05C970.8,-63.46 961.41,-52.86 953.03,-43.4"/>
<polygon fill="black" stroke="black" points="955.54,-40.95 946.29,-35.79 950.3,-45.6 955.54,-40.95"/>
</g>
<!-- open_gripper &#160; -->
<g id="node34" class="node">
<title>open_gripper &#160;</title>
<ellipse fill="lightgray" stroke="black" cx="1055.42" cy="-18" rx="45.72" ry="18"/>
<text text-anchor="middle" x="1055.42" y="-15.8" font-family="Times,serif" font-size="9.00">open_gripper</text>
</g>
<!-- Fallback &#160;&#160;&#160;&#160;&#160;&#160;&#160;&#160;&#45;&gt;open_gripper &#160; -->
<g id="edge33" class="edge">
<title>Fallback &#160;&#160;&#160;&#160;&#160;&#160;&#160;&#160;&#45;&gt;open_gripper &#160;</title>
<path fill="none" stroke="black" d="M1008.43,-72.05C1016.16,-63.33 1025.71,-52.54 1034.18,-42.98"/>
<polygon fill="black" stroke="black" points="1036.97,-45.11 1040.98,-35.31 1031.73,-40.47 1036.97,-45.11"/>
</g>
<!-- Fallback &#160;&#160;&#160;&#160;&#160;&#160;&#160;&#160;&#160; -->
<g id="node38" class="node">
<title>Fallback &#160;&#160;&#160;&#160;&#160;&#160;&#160;&#160;&#160;</title>
<polygon fill="cyan" stroke="black" points="1474.41,-370.54 1474.41,-385.46 1453.91,-396 1424.93,-396 1404.43,-385.46 1404.43,-370.54 1424.93,-360 1453.91,-360 1474.41,-370.54"/>
<text text-anchor="middle" x="1439.42" y="-375.8" font-family="Times,serif" font-size="9.00">Fallback</text>
</g>
<!-- Sequence &#160;&#160;&#160;&#160;&#160;&#160;&#45;&gt;Fallback &#160;&#160;&#160;&#160;&#160;&#160;&#160;&#160;&#160; -->
<g id="edge37" class="edge">
<title>Sequence &#160;&#160;&#160;&#160;&#160;&#160;&#45;&gt;Fallback &#160;&#160;&#160;&#160;&#160;&#160;&#160;&#160;&#160;</title>
<path fill="none" stroke="black" d="M1439.42,-431.7C1439.42,-423.98 1439.42,-414.71 1439.42,-406.11"/>
<polygon fill="black" stroke="black" points="1442.92,-406.1 1439.42,-396.1 1435.92,-406.1 1442.92,-406.1"/>
</g>
<!-- Fallback &#160;&#160;&#160;&#160;&#160;&#160;&#160;&#160;&#160;&#160;&#160;&#160; -->
<g id="node49" class="node">
<title>Fallback &#160;&#160;&#160;&#160;&#160;&#160;&#160;&#160;&#160;&#160;&#160;&#160;</title>
<polygon fill="cyan" stroke="black" points="1775.41,-370.54 1775.41,-385.46 1754.91,-396 1725.93,-396 1705.43,-385.46 1705.43,-370.54 1725.93,-360 1754.91,-360 1775.41,-370.54"/>
<text text-anchor="middle" x="1740.42" y="-375.8" font-family="Times,serif" font-size="9.00">Fallback</text>
</g>
<!-- Sequence &#160;&#160;&#160;&#160;&#160;&#160;&#45;&gt;Fallback &#160;&#160;&#160;&#160;&#160;&#160;&#160;&#160;&#160;&#160;&#160;&#160; -->
<g id="edge48" class="edge">
<title>Sequence &#160;&#160;&#160;&#160;&#160;&#160;&#45;&gt;Fallback &#160;&#160;&#160;&#160;&#160;&#160;&#160;&#160;&#160;&#160;&#160;&#160;</title>
<path fill="none" stroke="black" d="M1470.5,-441.77C1524.57,-429.2 1636.03,-403.28 1697.45,-388.99"/>
<polygon fill="black" stroke="black" points="1698.28,-392.39 1707.23,-386.72 1696.7,-385.57 1698.28,-392.39"/>
</g>
<!-- object_at GreenBox [0.0, 0.133, 0.175] 0.02 KittingBox -->
<g id="node39" class="node">
<title>object_at GreenBox [0.0, 0.133, 0.175] 0.02 KittingBox</title>
<ellipse fill="lightgray" stroke="black" cx="1335.42" cy="-306" rx="158.54" ry="18"/>
<text text-anchor="middle" x="1335.42" y="-303.8" font-family="Times,serif" font-size="9.00">object_at GreenBox [0.0, 0.133, 0.175] 0.02 KittingBox</text>
</g>
<!-- Fallback &#160;&#160;&#160;&#160;&#160;&#160;&#160;&#160;&#160;&#45;&gt;object_at GreenBox [0.0, 0.133, 0.175] 0.02 KittingBox -->
<g id="edge38" class="edge">
<title>Fallback &#160;&#160;&#160;&#160;&#160;&#160;&#160;&#160;&#160;&#45;&gt;object_at GreenBox [0.0, 0.133, 0.175] 0.02 KittingBox</title>
<path fill="none" stroke="black" d="M1418.37,-362.83C1404.25,-353.33 1385.34,-340.6 1369.14,-329.7"/>
<polygon fill="black" stroke="black" points="1370.72,-326.54 1360.47,-323.86 1366.81,-332.35 1370.72,-326.54"/>
</g>
<!-- Sequence &#160;&#160;&#160;&#160;&#160;&#160;&#160; -->
<g id="node40" class="node">
<title>Sequence &#160;&#160;&#160;&#160;&#160;&#160;&#160;</title>
<polygon fill="orange" stroke="black" points="1574.42,-324 1512.42,-324 1512.42,-288 1574.42,-288 1574.42,-324"/>
<text text-anchor="middle" x="1543.42" y="-303.8" font-family="Times,serif" font-size="9.00">Sequence</text>
</g>
<!-- Fallback &#160;&#160;&#160;&#160;&#160;&#160;&#160;&#160;&#160;&#45;&gt;Sequence &#160;&#160;&#160;&#160;&#160;&#160;&#160; -->
<g id="edge39" class="edge">
<title>Fallback &#160;&#160;&#160;&#160;&#160;&#160;&#160;&#160;&#160;&#45;&gt;Sequence &#160;&#160;&#160;&#160;&#160;&#160;&#160;</title>
<path fill="none" stroke="black" d="M1460.47,-362.83C1474.49,-353.4 1493.23,-340.78 1509.36,-329.93"/>
<polygon fill="black" stroke="black" points="1511.65,-332.6 1518,-324.11 1507.75,-326.79 1511.65,-332.6"/>
</g>
<!-- Fallback &#160;&#160;&#160;&#160;&#160;&#160;&#160;&#160;&#160;&#160; -->
<g id="node41" class="node">
<title>Fallback &#160;&#160;&#160;&#160;&#160;&#160;&#160;&#160;&#160;&#160;</title>
<polygon fill="cyan" stroke="black" points="1420.41,-226.54 1420.41,-241.46 1399.91,-252 1370.93,-252 1350.43,-241.46 1350.43,-226.54 1370.93,-216 1399.91,-216 1420.41,-226.54"/>
<text text-anchor="middle" x="1385.42" y="-231.8" font-family="Times,serif" font-size="9.00">Fallback</text>
</g>
<!-- Sequence &#160;&#160;&#160;&#160;&#160;&#160;&#160;&#45;&gt;Fallback &#160;&#160;&#160;&#160;&#160;&#160;&#160;&#160;&#160;&#160; -->
<g id="edge40" class="edge">
<title>Sequence &#160;&#160;&#160;&#160;&#160;&#160;&#160;&#45;&gt;Fallback &#160;&#160;&#160;&#160;&#160;&#160;&#160;&#160;&#160;&#160;</title>
<path fill="none" stroke="black" d="M1512.2,-291.17C1485.82,-279.48 1448.04,-262.74 1420.59,-250.58"/>
<polygon fill="black" stroke="black" points="1421.91,-247.34 1411.35,-246.49 1419.07,-253.74 1421.91,-247.34"/>
</g>
<!-- place0 GreenBox [0.0, 0.133, 0.175] 0.02 KittingBox -->
<g id="node48" class="node">
<title>place0 GreenBox [0.0, 0.133, 0.175] 0.02 KittingBox</title>
<ellipse fill="lightgray" stroke="black" cx="1590.42" cy="-234" rx="152.34" ry="18"/>
<text text-anchor="middle" x="1590.42" y="-231.8" font-family="Times,serif" font-size="9.00">place0 GreenBox [0.0, 0.133, 0.175] 0.02 KittingBox</text>
</g>
<!-- Sequence &#160;&#160;&#160;&#160;&#160;&#160;&#160;&#45;&gt;place0 GreenBox [0.0, 0.133, 0.175] 0.02 KittingBox -->
<g id="edge47" class="edge">
<title>Sequence &#160;&#160;&#160;&#160;&#160;&#160;&#160;&#45;&gt;place0 GreenBox [0.0, 0.133, 0.175] 0.02 KittingBox</title>
<path fill="none" stroke="black" d="M1555.04,-287.7C1560.56,-279.47 1567.27,-269.48 1573.35,-260.42"/>
<polygon fill="black" stroke="black" points="1576.27,-262.36 1578.94,-252.1 1570.46,-258.46 1576.27,-262.36"/>
</g>
<!-- in_gripper GreenBox  -->
<g id="node42" class="node">
<title>in_gripper GreenBox </title>
<ellipse fill="lightgray" stroke="black" cx="1327.42" cy="-162" rx="65.64" ry="18"/>
<text text-anchor="middle" x="1327.42" y="-159.8" font-family="Times,serif" font-size="9.00">in_gripper GreenBox</text>
</g>
<!-- Fallback &#160;&#160;&#160;&#160;&#160;&#160;&#160;&#160;&#160;&#160;&#45;&gt;in_gripper GreenBox  -->
<g id="edge41" class="edge">
<title>Fallback &#160;&#160;&#160;&#160;&#160;&#160;&#160;&#160;&#160;&#160;&#45;&gt;in_gripper GreenBox </title>
<path fill="none" stroke="black" d="M1371.08,-215.7C1364.03,-207.18 1355.4,-196.76 1347.68,-187.45"/>
<polygon fill="black" stroke="black" points="1350.27,-185.09 1341.19,-179.62 1344.88,-189.56 1350.27,-185.09"/>
</g>
<!-- Sequence &#160;&#160;&#160;&#160;&#160;&#160;&#160;&#160; -->
<g id="node43" class="node">
<title>Sequence &#160;&#160;&#160;&#160;&#160;&#160;&#160;&#160;</title>
<polygon fill="orange" stroke="black" points="1473.42,-180 1411.42,-180 1411.42,-144 1473.42,-144 1473.42,-180"/>
<text text-anchor="middle" x="1442.42" y="-159.8" font-family="Times,serif" font-size="9.00">Sequence</text>
</g>
<!-- Fallback &#160;&#160;&#160;&#160;&#160;&#160;&#160;&#160;&#160;&#160;&#45;&gt;Sequence &#160;&#160;&#160;&#160;&#160;&#160;&#160;&#160; -->
<g id="edge42" class="edge">
<title>Fallback &#160;&#160;&#160;&#160;&#160;&#160;&#160;&#160;&#160;&#160;&#45;&gt;Sequence &#160;&#160;&#160;&#160;&#160;&#160;&#160;&#160;</title>
<path fill="none" stroke="black" d="M1399.51,-215.7C1406.34,-207.3 1414.68,-197.07 1422.18,-187.86"/>
<polygon fill="black" stroke="black" points="1424.89,-190.07 1428.49,-180.1 1419.46,-185.65 1424.89,-190.07"/>
</g>
<!-- Fallback &#160;&#160;&#160;&#160;&#160;&#160;&#160;&#160;&#160;&#160;&#160; -->
<g id="node44" class="node">
<title>Fallback &#160;&#160;&#160;&#160;&#160;&#160;&#160;&#160;&#160;&#160;&#160;</title>
<polygon fill="cyan" stroke="black" points="1424.41,-82.54 1424.41,-97.46 1403.91,-108 1374.93,-108 1354.43,-97.46 1354.43,-82.54 1374.93,-72 1403.91,-72 1424.41,-82.54"/>
<text text-anchor="middle" x="1389.42" y="-87.8" font-family="Times,serif" font-size="9.00">Fallback</text>
</g>
<!-- Sequence &#160;&#160;&#160;&#160;&#160;&#160;&#160;&#160;&#45;&gt;Fallback &#160;&#160;&#160;&#160;&#160;&#160;&#160;&#160;&#160;&#160;&#160; -->
<g id="edge43" class="edge">
<title>Sequence &#160;&#160;&#160;&#160;&#160;&#160;&#160;&#160;&#45;&gt;Fallback &#160;&#160;&#160;&#160;&#160;&#160;&#160;&#160;&#160;&#160;&#160;</title>
<path fill="none" stroke="black" d="M1429.32,-143.7C1423.03,-135.39 1415.37,-125.28 1408.46,-116.14"/>
<polygon fill="black" stroke="black" points="1411.2,-113.96 1402.37,-108.1 1405.62,-118.19 1411.2,-113.96"/>
</g>
<!-- pick0 GreenBox  -->
<g id="node47" class="node">
<title>pick0 GreenBox </title>
<ellipse fill="lightgray" stroke="black" cx="1495.42" cy="-90" rx="52.58" ry="18"/>
<text text-anchor="middle" x="1495.42" y="-87.8" font-family="Times,serif" font-size="9.00">pick0 GreenBox</text>
</g>
<!-- Sequence &#160;&#160;&#160;&#160;&#160;&#160;&#160;&#160;&#45;&gt;pick0 GreenBox  -->
<g id="edge46" class="edge">
<title>Sequence &#160;&#160;&#160;&#160;&#160;&#160;&#160;&#160;&#45;&gt;pick0 GreenBox </title>
<path fill="none" stroke="black" d="M1455.52,-143.7C1461.91,-135.27 1469.7,-124.97 1476.69,-115.73"/>
<polygon fill="black" stroke="black" points="1479.59,-117.71 1482.84,-107.62 1474.01,-113.48 1479.59,-117.71"/>
</g>
<!-- gripper_state open &#160;&#160; -->
<g id="node45" class="node">
<title>gripper_state open &#160;&#160;</title>
<ellipse fill="lightgray" stroke="black" cx="1327.42" cy="-18" rx="60.09" ry="18"/>
<text text-anchor="middle" x="1327.42" y="-15.8" font-family="Times,serif" font-size="9.00">gripper_state open</text>
</g>
<!-- Fallback &#160;&#160;&#160;&#160;&#160;&#160;&#160;&#160;&#160;&#160;&#160;&#45;&gt;gripper_state open &#160;&#160; -->
<g id="edge44" class="edge">
<title>Fallback &#160;&#160;&#160;&#160;&#160;&#160;&#160;&#160;&#160;&#160;&#160;&#45;&gt;gripper_state open &#160;&#160;</title>
<path fill="none" stroke="black" d="M1374.41,-72.05C1366.8,-63.46 1357.41,-52.86 1349.03,-43.4"/>
<polygon fill="black" stroke="black" points="1351.54,-40.95 1342.29,-35.79 1346.3,-45.6 1351.54,-40.95"/>
</g>
<!-- open_gripper &#160;&#160; -->
<g id="node46" class="node">
<title>open_gripper &#160;&#160;</title>
<ellipse fill="lightgray" stroke="black" cx="1451.42" cy="-18" rx="45.72" ry="18"/>
<text text-anchor="middle" x="1451.42" y="-15.8" font-family="Times,serif" font-size="9.00">open_gripper</text>
</g>
<!-- Fallback &#160;&#160;&#160;&#160;&#160;&#160;&#160;&#160;&#160;&#160;&#160;&#45;&gt;open_gripper &#160;&#160; -->
<g id="edge45" class="edge">
<title>Fallback &#160;&#160;&#160;&#160;&#160;&#160;&#160;&#160;&#160;&#160;&#160;&#45;&gt;open_gripper &#160;&#160;</title>
<path fill="none" stroke="black" d="M1404.43,-72.05C1412.16,-63.33 1421.71,-52.54 1430.18,-42.98"/>
<polygon fill="black" stroke="black" points="1432.97,-45.11 1436.98,-35.31 1427.73,-40.47 1432.97,-45.11"/>
</g>
<!-- object_at BlueBox [0.0, &#45;0.12, 0.12] 0.02 YellowBox -->
<g id="node50" class="node">
<title>object_at BlueBox [0.0, &#45;0.12, 0.12] 0.02 YellowBox</title>
<ellipse fill="lightgray" stroke="black" cx="1740.42" cy="-306" rx="147.6" ry="18"/>
<text text-anchor="middle" x="1740.42" y="-303.8" font-family="Times,serif" font-size="9.00">object_at BlueBox [0.0, &#45;0.12, 0.12] 0.02 YellowBox</text>
</g>
<!-- Fallback &#160;&#160;&#160;&#160;&#160;&#160;&#160;&#160;&#160;&#160;&#160;&#160;&#45;&gt;object_at BlueBox [0.0, &#45;0.12, 0.12] 0.02 YellowBox -->
<g id="edge49" class="edge">
<title>Fallback &#160;&#160;&#160;&#160;&#160;&#160;&#160;&#160;&#160;&#160;&#160;&#160;&#45;&gt;object_at BlueBox [0.0, &#45;0.12, 0.12] 0.02 YellowBox</title>
<path fill="none" stroke="black" d="M1740.42,-359.7C1740.42,-351.98 1740.42,-342.71 1740.42,-334.11"/>
<polygon fill="black" stroke="black" points="1743.92,-334.1 1740.42,-324.1 1736.92,-334.1 1743.92,-334.1"/>
</g>
<!-- Sequence &#160;&#160;&#160;&#160;&#160;&#160;&#160;&#160;&#160; -->
<g id="node51" class="node">
<title>Sequence &#160;&#160;&#160;&#160;&#160;&#160;&#160;&#160;&#160;</title>
<polygon fill="orange" stroke="black" points="1968.42,-324 1906.42,-324 1906.42,-288 1968.42,-288 1968.42,-324"/>
<text text-anchor="middle" x="1937.42" y="-303.8" font-family="Times,serif" font-size="9.00">Sequence</text>
</g>
<!-- Fallback &#160;&#160;&#160;&#160;&#160;&#160;&#160;&#160;&#160;&#160;&#160;&#160;&#45;&gt;Sequence &#160;&#160;&#160;&#160;&#160;&#160;&#160;&#160;&#160; -->
<g id="edge50" class="edge">
<title>Fallback &#160;&#160;&#160;&#160;&#160;&#160;&#160;&#160;&#160;&#160;&#160;&#160;&#45;&gt;Sequence &#160;&#160;&#160;&#160;&#160;&#160;&#160;&#160;&#160;</title>
<path fill="none" stroke="black" d="M1770.17,-367.7C1800.01,-358.22 1847.41,-342.71 1896.55,-324.2"/>
<polygon fill="black" stroke="black" points="1897.96,-327.41 1906.07,-320.59 1895.48,-320.87 1897.96,-327.41"/>
</g>
<!-- Fallback &#160;&#160;&#160;&#160;&#160;&#160;&#160;&#160;&#160;&#160;&#160;&#160;&#160; -->
<g id="node52" class="node">
<title>Fallback &#160;&#160;&#160;&#160;&#160;&#160;&#160;&#160;&#160;&#160;&#160;&#160;&#160;</title>
<polygon fill="cyan" stroke="black" points="1924.41,-226.54 1924.41,-241.46 1903.91,-252 1874.93,-252 1854.43,-241.46 1854.43,-226.54 1874.93,-216 1903.91,-216 1924.41,-226.54"/>
<text text-anchor="middle" x="1889.42" y="-231.8" font-family="Times,serif" font-size="9.00">Fallback</text>
</g>
<!-- Sequence &#160;&#160;&#160;&#160;&#160;&#160;&#160;&#160;&#160;&#45;&gt;Fallback &#160;&#160;&#160;&#160;&#160;&#160;&#160;&#160;&#160;&#160;&#160;&#160;&#160; -->
<g id="edge51" class="edge">
<title>Sequence &#160;&#160;&#160;&#160;&#160;&#160;&#160;&#160;&#160;&#45;&gt;Fallback &#160;&#160;&#160;&#160;&#160;&#160;&#160;&#160;&#160;&#160;&#160;&#160;&#160;</title>
<path fill="none" stroke="black" d="M1925.56,-287.7C1919.92,-279.47 1913.07,-269.48 1906.85,-260.42"/>
<polygon fill="black" stroke="black" points="1909.69,-258.37 1901.15,-252.1 1903.92,-262.33 1909.69,-258.37"/>
</g>
<!-- place0 BlueBox [0.0, &#45;0.12, 0.12] 0.02 YellowBox -->
<g id="node59" class="node">
<title>place0 BlueBox [0.0, &#45;0.12, 0.12] 0.02 YellowBox</title>
<ellipse fill="lightgray" stroke="black" cx="2083.42" cy="-234" rx="141.4" ry="18"/>
<text text-anchor="middle" x="2083.42" y="-231.8" font-family="Times,serif" font-size="9.00">place0 BlueBox [0.0, &#45;0.12, 0.12] 0.02 YellowBox</text>
</g>
<!-- Sequence &#160;&#160;&#160;&#160;&#160;&#160;&#160;&#160;&#160;&#45;&gt;place0 BlueBox [0.0, &#45;0.12, 0.12] 0.02 YellowBox -->
<g id="edge58" class="edge">
<title>Sequence &#160;&#160;&#160;&#160;&#160;&#160;&#160;&#160;&#160;&#45;&gt;place0 BlueBox [0.0, &#45;0.12, 0.12] 0.02 YellowBox</title>
<path fill="none" stroke="black" d="M1968.74,-289.98C1989.43,-280.06 2016.85,-266.92 2039.68,-255.97"/>
<polygon fill="black" stroke="black" points="2041.33,-259.06 2048.83,-251.58 2038.3,-252.75 2041.33,-259.06"/>
</g>
<!-- in_gripper BlueBox  -->
<g id="node53" class="node">
<title>in_gripper BlueBox </title>
<ellipse fill="lightgray" stroke="black" cx="1833.42" cy="-162" rx="61.55" ry="18"/>
<text text-anchor="middle" x="1833.42" y="-159.8" font-family="Times,serif" font-size="9.00">in_gripper BlueBox</text>
</g>
<!-- Fallback &#160;&#160;&#160;&#160;&#160;&#160;&#160;&#160;&#160;&#160;&#160;&#160;&#160;&#45;&gt;in_gripper BlueBox  -->
<g id="edge52" class="edge">
<title>Fallback &#160;&#160;&#160;&#160;&#160;&#160;&#160;&#160;&#160;&#160;&#160;&#160;&#160;&#45;&gt;in_gripper BlueBox </title>
<path fill="none" stroke="black" d="M1875.58,-215.7C1868.76,-207.18 1860.43,-196.76 1852.98,-187.45"/>
<polygon fill="black" stroke="black" points="1855.7,-185.24 1846.72,-179.62 1850.23,-189.62 1855.7,-185.24"/>
</g>
<!-- Sequence &#160;&#160;&#160;&#160;&#160;&#160;&#160;&#160;&#160;&#160; -->
<g id="node54" class="node">
<title>Sequence &#160;&#160;&#160;&#160;&#160;&#160;&#160;&#160;&#160;&#160;</title>
<polygon fill="orange" stroke="black" points="1975.42,-180 1913.42,-180 1913.42,-144 1975.42,-144 1975.42,-180"/>
<text text-anchor="middle" x="1944.42" y="-159.8" font-family="Times,serif" font-size="9.00">Sequence</text>
</g>
<!-- Fallback &#160;&#160;&#160;&#160;&#160;&#160;&#160;&#160;&#160;&#160;&#160;&#160;&#160;&#45;&gt;Sequence &#160;&#160;&#160;&#160;&#160;&#160;&#160;&#160;&#160;&#160; -->
<g id="edge53" class="edge">
<title>Fallback &#160;&#160;&#160;&#160;&#160;&#160;&#160;&#160;&#160;&#160;&#160;&#160;&#160;&#45;&gt;Sequence &#160;&#160;&#160;&#160;&#160;&#160;&#160;&#160;&#160;&#160;</title>
<path fill="none" stroke="black" d="M1903.02,-215.7C1909.54,-207.39 1917.49,-197.28 1924.67,-188.14"/>
<polygon fill="black" stroke="black" points="1927.56,-190.13 1930.98,-180.1 1922.05,-185.81 1927.56,-190.13"/>
</g>
<!-- Fallback &#160;&#160;&#160;&#160;&#160;&#160;&#160;&#160;&#160;&#160;&#160;&#160;&#160;&#160; -->
<g id="node55" class="node">
<title>Fallback &#160;&#160;&#160;&#160;&#160;&#160;&#160;&#160;&#160;&#160;&#160;&#160;&#160;&#160;</title>
<polygon fill="cyan" stroke="black" points="1928.41,-82.54 1928.41,-97.46 1907.91,-108 1878.93,-108 1858.43,-97.46 1858.43,-82.54 1878.93,-72 1907.91,-72 1928.41,-82.54"/>
<text text-anchor="middle" x="1893.42" y="-87.8" font-family="Times,serif" font-size="9.00">Fallback</text>
</g>
<!-- Sequence &#160;&#160;&#160;&#160;&#160;&#160;&#160;&#160;&#160;&#160;&#45;&gt;Fallback &#160;&#160;&#160;&#160;&#160;&#160;&#160;&#160;&#160;&#160;&#160;&#160;&#160;&#160; -->
<g id="edge54" class="edge">
<title>Sequence &#160;&#160;&#160;&#160;&#160;&#160;&#160;&#160;&#160;&#160;&#45;&gt;Fallback &#160;&#160;&#160;&#160;&#160;&#160;&#160;&#160;&#160;&#160;&#160;&#160;&#160;&#160;</title>
<path fill="none" stroke="black" d="M1931.81,-143.7C1925.82,-135.47 1918.54,-125.48 1911.94,-116.42"/>
<polygon fill="black" stroke="black" points="1914.6,-114.13 1905.88,-108.1 1908.94,-118.25 1914.6,-114.13"/>
</g>
<!-- pick0 BlueBox  -->
<g id="node58" class="node">
<title>pick0 BlueBox </title>
<ellipse fill="lightgray" stroke="black" cx="1994.42" cy="-90" rx="47.84" ry="18"/>
<text text-anchor="middle" x="1994.42" y="-87.8" font-family="Times,serif" font-size="9.00">pick0 BlueBox</text>
</g>
<!-- Sequence &#160;&#160;&#160;&#160;&#160;&#160;&#160;&#160;&#160;&#160;&#45;&gt;pick0 BlueBox  -->
<g id="edge57" class="edge">
<title>Sequence &#160;&#160;&#160;&#160;&#160;&#160;&#160;&#160;&#160;&#160;&#45;&gt;pick0 BlueBox </title>
<path fill="none" stroke="black" d="M1956.78,-143.7C1962.74,-135.35 1970,-125.18 1976.55,-116.02"/>
<polygon fill="black" stroke="black" points="1979.58,-117.79 1982.55,-107.62 1973.89,-113.73 1979.58,-117.79"/>
</g>
<!-- gripper_state open &#160;&#160;&#160; -->
<g id="node56" class="node">
<title>gripper_state open &#160;&#160;&#160;</title>
<ellipse fill="lightgray" stroke="black" cx="1831.42" cy="-18" rx="60.09" ry="18"/>
<text text-anchor="middle" x="1831.42" y="-15.8" font-family="Times,serif" font-size="9.00">gripper_state open</text>
</g>
<!-- Fallback &#160;&#160;&#160;&#160;&#160;&#160;&#160;&#160;&#160;&#160;&#160;&#160;&#160;&#160;&#45;&gt;gripper_state open &#160;&#160;&#160; -->
<g id="edge55" class="edge">
<title>Fallback &#160;&#160;&#160;&#160;&#160;&#160;&#160;&#160;&#160;&#160;&#160;&#160;&#160;&#160;&#45;&gt;gripper_state open &#160;&#160;&#160;</title>
<path fill="none" stroke="black" d="M1878.41,-72.05C1870.8,-63.46 1861.41,-52.86 1853.03,-43.4"/>
<polygon fill="black" stroke="black" points="1855.54,-40.95 1846.29,-35.79 1850.3,-45.6 1855.54,-40.95"/>
</g>
<!-- open_gripper &#160;&#160;&#160; -->
<g id="node57" class="node">
<title>open_gripper &#160;&#160;&#160;</title>
<ellipse fill="lightgray" stroke="black" cx="1955.42" cy="-18" rx="45.72" ry="18"/>
<text text-anchor="middle" x="1955.42" y="-15.8" font-family="Times,serif" font-size="9.00">open_gripper</text>
</g>
<!-- Fallback &#160;&#160;&#160;&#160;&#160;&#160;&#160;&#160;&#160;&#160;&#160;&#160;&#160;&#160;&#45;&gt;open_gripper &#160;&#160;&#160; -->
<g id="edge56" class="edge">
<title>Fallback &#160;&#160;&#160;&#160;&#160;&#160;&#160;&#160;&#160;&#160;&#160;&#160;&#160;&#160;&#45;&gt;open_gripper &#160;&#160;&#160;</title>
<path fill="none" stroke="black" d="M1908.43,-72.05C1916.16,-63.33 1925.71,-52.54 1934.18,-42.98"/>
<polygon fill="black" stroke="black" points="1936.97,-45.11 1940.98,-35.31 1931.73,-40.47 1936.97,-45.11"/>
</g>
</g>
</svg>
