<?xml version="1.0" encoding="UTF-8" standalone="no"?>
<!DOCTYPE svg PUBLIC "-//W3C//DTD SVG 1.1//EN"
 "http://www.w3.org/Graphics/SVG/1.1/DTD/svg11.dtd">
<!-- Generated by graphviz version 2.43.0 (0)
 -->
<!-- Title: pastafarianism Pages: 1 -->
<svg width="5970pt" height="503pt"
 viewBox="0.00 0.00 5970.07 502.60" xmlns="http://www.w3.org/2000/svg" xmlns:xlink="http://www.w3.org/1999/xlink">
<g id="graph0" class="graph" transform="scale(1 1) rotate(0) translate(4 498.6)">
<title>pastafarianism</title>
<polygon fill="white" stroke="transparent" points="-4,4 -4,-498.6 5966.07,-498.6 5966.07,4 -4,4"/>
<!-- selector:
 insert_shaft1_into_gearbase_hole1 -->
<g id="node1" class="node">
<title>selector:
 insert_shaft1_into_gearbase_hole1</title>
<polygon fill="#8deeee" stroke="black" points="2494.31,-442.54 2494.31,-473.18 2344.49,-494.84 2132.6,-494.84 1982.78,-473.18 1982.78,-442.54 2132.6,-420.88 2344.49,-420.88 2494.31,-442.54"/>
<text text-anchor="middle" x="2238.55" y="-463.46" font-family="Times,serif" font-size="18.00">selector:</text>
<text text-anchor="middle" x="2238.55" y="-443.46" font-family="Times,serif" font-size="18.00"> insert_shaft1_into_gearbase_hole1</text>
</g>
<!-- target:
 is_inserted_to(shaft1, gearbase_hole1) -->
<g id="node2" class="node">
<title>target:
 is_inserted_to(shaft1, gearbase_hole1)</title>
<ellipse fill="#ffec8b" stroke="black" cx="2015.55" cy="-351.18" rx="261.76" ry="33.88"/>
<text text-anchor="middle" x="2015.55" y="-356.78" font-family="Times,serif" font-size="18.00">target:</text>
<text text-anchor="middle" x="2015.55" y="-336.78" font-family="Times,serif" font-size="18.00"> is_inserted_to(shaft1, gearbase_hole1)</text>
</g>
<!-- selector:
 insert_shaft1_into_gearbase_hole1&#45;&gt;target:
 is_inserted_to(shaft1, gearbase_hole1) -->
<g id="edge1" class="edge">
<title>selector:
 insert_shaft1_into_gearbase_hole1&#45;&gt;target:
 is_inserted_to(shaft1, gearbase_hole1)</title>
<path fill="none" stroke="black" d="M2162.11,-420.98C2139.62,-410.42 2115,-398.87 2092.48,-388.29"/>
<polygon fill="black" stroke="black" points="2093.84,-385.06 2083.3,-383.98 2090.86,-391.4 2093.84,-385.06"/>
</g>
<!-- sequence:
 insert_shaft1_into_gearbase_hole1 -->
<g id="node3" class="node">
<title>sequence:
 insert_shaft1_into_gearbase_hole1</title>
<polygon fill="#ff7f24" stroke="black" points="2629.55,-375.18 2295.55,-375.18 2295.55,-327.18 2629.55,-327.18 2629.55,-375.18"/>
<text text-anchor="middle" x="2462.55" y="-356.78" font-family="Times,serif" font-size="18.00">sequence:</text>
<text text-anchor="middle" x="2462.55" y="-336.78" font-family="Times,serif" font-size="18.00"> insert_shaft1_into_gearbase_hole1</text>
</g>
<!-- selector:
 insert_shaft1_into_gearbase_hole1&#45;&gt;sequence:
 insert_shaft1_into_gearbase_hole1 -->
<g id="edge2" class="edge">
<title>selector:
 insert_shaft1_into_gearbase_hole1&#45;&gt;sequence:
 insert_shaft1_into_gearbase_hole1</title>
<path fill="none" stroke="black" d="M2315.32,-420.98C2344.32,-407.43 2376.83,-392.24 2403.91,-379.58"/>
<polygon fill="black" stroke="black" points="2405.67,-382.62 2413.25,-375.22 2402.71,-376.28 2405.67,-382.62"/>
</g>
<!-- selector:
 put_down(left_hand, defaultgripper, shaft3) -->
<g id="node4" class="node">
<title>selector:
 put_down(left_hand, defaultgripper, shaft3)</title>
<polygon fill="#8deeee" stroke="black" points="1207.83,-229.19 1207.83,-259.82 1021.38,-281.48 757.71,-281.48 571.26,-259.82 571.26,-229.19 757.71,-207.53 1021.38,-207.53 1207.83,-229.19"/>
<text text-anchor="middle" x="889.55" y="-250.1" font-family="Times,serif" font-size="18.00">selector:</text>
<text text-anchor="middle" x="889.55" y="-230.1" font-family="Times,serif" font-size="18.00"> put_down(left_hand, defaultgripper, shaft3)</text>
</g>
<!-- sequence:
 insert_shaft1_into_gearbase_hole1&#45;&gt;selector:
 put_down(left_hand, defaultgripper, shaft3) -->
<g id="edge3" class="edge">
<title>sequence:
 insert_shaft1_into_gearbase_hole1&#45;&gt;selector:
 put_down(left_hand, defaultgripper, shaft3)</title>
<path fill="none" stroke="black" d="M2352.11,-327.18C2330.45,-323.33 2307.85,-319.77 2286.55,-317.24 2183.72,-305.03 1597.86,-277.25 1218.21,-260.06"/>
<polygon fill="black" stroke="black" points="1218.31,-256.57 1208.16,-259.61 1217.99,-263.56 1218.31,-256.57"/>
</g>
<!-- selector:
 change_tool(left_hand, defaultgripper, clampgripper) -->
<g id="node10" class="node">
<title>selector:
 change_tool(left_hand, defaultgripper, clampgripper)</title>
<polygon fill="#8deeee" stroke="black" points="2489.97,-229.19 2489.97,-259.82 2264.78,-281.48 1946.31,-281.48 1721.12,-259.82 1721.12,-229.19 1946.31,-207.53 2264.78,-207.53 2489.97,-229.19"/>
<text text-anchor="middle" x="2105.55" y="-250.1" font-family="Times,serif" font-size="18.00">selector:</text>
<text text-anchor="middle" x="2105.55" y="-230.1" font-family="Times,serif" font-size="18.00"> change_tool(left_hand, defaultgripper, clampgripper)</text>
</g>
<!-- sequence:
 insert_shaft1_into_gearbase_hole1&#45;&gt;selector:
 change_tool(left_hand, defaultgripper, clampgripper) -->
<g id="edge9" class="edge">
<title>sequence:
 insert_shaft1_into_gearbase_hole1&#45;&gt;selector:
 change_tool(left_hand, defaultgripper, clampgripper)</title>
<path fill="none" stroke="black" d="M2383.76,-327.08C2340.83,-314.49 2286.57,-298.58 2237.4,-284.16"/>
<polygon fill="black" stroke="black" points="2238.21,-280.76 2227.63,-281.3 2236.25,-287.47 2238.21,-280.76"/>
</g>
<!-- selector:
 pick_up(left_hand, clampgripper, shaft1) -->
<g id="node16" class="node">
<title>selector:
 pick_up(left_hand, clampgripper, shaft1)</title>
<polygon fill="#8deeee" stroke="black" points="3193.5,-229.19 3193.5,-259.82 3018.96,-281.48 2772.13,-281.48 2597.59,-259.82 2597.59,-229.19 2772.13,-207.53 3018.96,-207.53 3193.5,-229.19"/>
<text text-anchor="middle" x="2895.55" y="-250.1" font-family="Times,serif" font-size="18.00">selector:</text>
<text text-anchor="middle" x="2895.55" y="-230.1" font-family="Times,serif" font-size="18.00"> pick_up(left_hand, clampgripper, shaft1)</text>
</g>
<!-- sequence:
 insert_shaft1_into_gearbase_hole1&#45;&gt;selector:
 pick_up(left_hand, clampgripper, shaft1) -->
<g id="edge15" class="edge">
<title>sequence:
 insert_shaft1_into_gearbase_hole1&#45;&gt;selector:
 pick_up(left_hand, clampgripper, shaft1)</title>
<path fill="none" stroke="black" d="M2557.84,-327.14C2612.79,-313.86 2683.11,-296.86 2745.35,-281.81"/>
<polygon fill="black" stroke="black" points="2746.37,-285.17 2755.26,-279.42 2744.72,-278.36 2746.37,-285.17"/>
</g>
<!-- selector:
 insert(left_hand, clampgripper, shaft1, gearbase_hole1) -->
<g id="node22" class="node">
<title>selector:
 insert(left_hand, clampgripper, shaft1, gearbase_hole1)</title>
<polygon fill="#8deeee" stroke="black" points="4359.65,-229.19 4359.65,-259.82 4124.69,-281.48 3792.4,-281.48 3557.44,-259.82 3557.44,-229.19 3792.4,-207.53 4124.69,-207.53 4359.65,-229.19"/>
<text text-anchor="middle" x="3958.55" y="-250.1" font-family="Times,serif" font-size="18.00">selector:</text>
<text text-anchor="middle" x="3958.55" y="-230.1" font-family="Times,serif" font-size="18.00"> insert(left_hand, clampgripper, shaft1, gearbase_hole1)</text>
</g>
<!-- sequence:
 insert_shaft1_into_gearbase_hole1&#45;&gt;selector:
 insert(left_hand, clampgripper, shaft1, gearbase_hole1) -->
<g id="edge21" class="edge">
<title>sequence:
 insert_shaft1_into_gearbase_hole1&#45;&gt;selector:
 insert(left_hand, clampgripper, shaft1, gearbase_hole1)</title>
<path fill="none" stroke="black" d="M2629.8,-338.48C2871.45,-321.57 3323.07,-289.97 3632.12,-268.34"/>
<polygon fill="black" stroke="black" points="3632.41,-271.83 3642.14,-267.64 3631.92,-264.85 3632.41,-271.83"/>
</g>
<!-- target:
 is_empty(defaultgripper) -->
<g id="node5" class="node">
<title>target:
 is_empty(defaultgripper)</title>
<ellipse fill="#ffec8b" stroke="black" cx="488.55" cy="-137.82" rx="175.23" ry="33.88"/>
<text text-anchor="middle" x="488.55" y="-143.42" font-family="Times,serif" font-size="18.00">target:</text>
<text text-anchor="middle" x="488.55" y="-123.42" font-family="Times,serif" font-size="18.00"> is_empty(defaultgripper)</text>
</g>
<!-- selector:
 put_down(left_hand, defaultgripper, shaft3)&#45;&gt;target:
 is_empty(defaultgripper) -->
<g id="edge4" class="edge">
<title>selector:
 put_down(left_hand, defaultgripper, shaft3)&#45;&gt;target:
 is_empty(defaultgripper)</title>
<path fill="none" stroke="black" d="M753.51,-207.99C703.68,-194.98 647.9,-180.42 600.43,-168.03"/>
<polygon fill="black" stroke="black" points="601.3,-164.64 590.74,-165.5 599.53,-171.41 601.3,-164.64"/>
</g>
<!-- sequence:
 put_down(left_hand, defaultgripper, shaft3) -->
<g id="node6" class="node">
<title>sequence:
 put_down(left_hand, defaultgripper, shaft3)</title>
<polygon fill="#ff7f24" stroke="black" points="1097.55,-161.82 681.55,-161.82 681.55,-113.82 1097.55,-113.82 1097.55,-161.82"/>
<text text-anchor="middle" x="889.55" y="-143.42" font-family="Times,serif" font-size="18.00">sequence:</text>
<text text-anchor="middle" x="889.55" y="-123.42" font-family="Times,serif" font-size="18.00"> put_down(left_hand, defaultgripper, shaft3)</text>
</g>
<!-- selector:
 put_down(left_hand, defaultgripper, shaft3)&#45;&gt;sequence:
 put_down(left_hand, defaultgripper, shaft3) -->
<g id="edge5" class="edge">
<title>selector:
 put_down(left_hand, defaultgripper, shaft3)&#45;&gt;sequence:
 put_down(left_hand, defaultgripper, shaft3)</title>
<path fill="none" stroke="black" d="M889.55,-207.48C889.55,-196.09 889.55,-183.57 889.55,-172.36"/>
<polygon fill="black" stroke="black" points="893.05,-172.11 889.55,-162.11 886.05,-172.11 893.05,-172.11"/>
</g>
<!-- precondition:
 hold(left_hand, defaultgripper) -->
<g id="node7" class="node">
<title>precondition:
 hold(left_hand, defaultgripper)</title>
<ellipse fill="#ffec8b" stroke="black" cx="213.55" cy="-33.94" rx="213.59" ry="33.88"/>
<text text-anchor="middle" x="213.55" y="-39.54" font-family="Times,serif" font-size="18.00">precondition:</text>
<text text-anchor="middle" x="213.55" y="-19.54" font-family="Times,serif" font-size="18.00"> hold(left_hand, defaultgripper)</text>
</g>
<!-- sequence:
 put_down(left_hand, defaultgripper, shaft3)&#45;&gt;precondition:
 hold(left_hand, defaultgripper) -->
<g id="edge6" class="edge">
<title>sequence:
 put_down(left_hand, defaultgripper, shaft3)&#45;&gt;precondition:
 hold(left_hand, defaultgripper)</title>
<path fill="none" stroke="black" d="M738.08,-113.8C716.1,-110.47 693.74,-107.08 672.55,-103.88 574.15,-89.02 463.88,-72.46 376.08,-59.29"/>
<polygon fill="black" stroke="black" points="376.44,-55.81 366.03,-57.78 375.4,-62.73 376.44,-55.81"/>
</g>
<!-- precondition:
 hold(defaultgripper, shaft3) -->
<g id="node8" class="node">
<title>precondition:
 hold(defaultgripper, shaft3)</title>
<ellipse fill="#ffec8b" stroke="black" cx="637.55" cy="-33.94" rx="192.17" ry="33.88"/>
<text text-anchor="middle" x="637.55" y="-39.54" font-family="Times,serif" font-size="18.00">precondition:</text>
<text text-anchor="middle" x="637.55" y="-19.54" font-family="Times,serif" font-size="18.00"> hold(defaultgripper, shaft3)</text>
</g>
<!-- sequence:
 put_down(left_hand, defaultgripper, shaft3)&#45;&gt;precondition:
 hold(defaultgripper, shaft3) -->
<g id="edge7" class="edge">
<title>sequence:
 put_down(left_hand, defaultgripper, shaft3)&#45;&gt;precondition:
 hold(defaultgripper, shaft3)</title>
<path fill="none" stroke="black" d="M832.36,-113.7C799.84,-100.55 758.49,-83.84 722.25,-69.19"/>
<polygon fill="black" stroke="black" points="723.26,-65.82 712.67,-65.32 720.63,-72.31 723.26,-65.82"/>
</g>
<!-- action:
 put_down(left_hand, defaultgripper, shaft3) -->
<g id="node9" class="node">
<title>action:
 put_down(left_hand, defaultgripper, shaft3)</title>
<ellipse fill="lightgreen" stroke="black" cx="1141.55" cy="-33.94" rx="294.31" ry="33.88"/>
<text text-anchor="middle" x="1141.55" y="-39.54" font-family="Times,serif" font-size="18.00">action:</text>
<text text-anchor="middle" x="1141.55" y="-19.54" font-family="Times,serif" font-size="18.00"> put_down(left_hand, defaultgripper, shaft3)</text>
</g>
<!-- sequence:
 put_down(left_hand, defaultgripper, shaft3)&#45;&gt;action:
 put_down(left_hand, defaultgripper, shaft3) -->
<g id="edge8" class="edge">
<title>sequence:
 put_down(left_hand, defaultgripper, shaft3)&#45;&gt;action:
 put_down(left_hand, defaultgripper, shaft3)</title>
<path fill="none" stroke="black" d="M946.73,-113.7C978.32,-100.93 1018.24,-84.79 1053.71,-70.45"/>
<polygon fill="black" stroke="black" points="1055.14,-73.65 1063.1,-66.66 1052.52,-67.16 1055.14,-73.65"/>
</g>
<!-- target:
 hold(left_hand, clampgripper) -->
<g id="node11" class="node">
<title>target:
 hold(left_hand, clampgripper)</title>
<ellipse fill="#ffec8b" stroke="black" cx="1629.55" cy="-137.82" rx="207.36" ry="33.88"/>
<text text-anchor="middle" x="1629.55" y="-143.42" font-family="Times,serif" font-size="18.00">target:</text>
<text text-anchor="middle" x="1629.55" y="-123.42" font-family="Times,serif" font-size="18.00"> hold(left_hand, clampgripper)</text>
</g>
<!-- selector:
 change_tool(left_hand, defaultgripper, clampgripper)&#45;&gt;target:
 hold(left_hand, clampgripper) -->
<g id="edge10" class="edge">
<title>selector:
 change_tool(left_hand, defaultgripper, clampgripper)&#45;&gt;target:
 hold(left_hand, clampgripper)</title>
<path fill="none" stroke="black" d="M1943.07,-207.77C1883.61,-194.7 1817.15,-180.08 1760.77,-167.68"/>
<polygon fill="black" stroke="black" points="1761.24,-164.2 1750.72,-165.47 1759.74,-171.04 1761.24,-164.2"/>
</g>
<!-- sequence:
 change_tool(left_hand, defaultgripper, clampgripper) -->
<g id="node12" class="node">
<title>sequence:
 change_tool(left_hand, defaultgripper, clampgripper)</title>
<polygon fill="#ff7f24" stroke="black" points="2356.55,-161.82 1854.55,-161.82 1854.55,-113.82 2356.55,-113.82 2356.55,-161.82"/>
<text text-anchor="middle" x="2105.55" y="-143.42" font-family="Times,serif" font-size="18.00">sequence:</text>
<text text-anchor="middle" x="2105.55" y="-123.42" font-family="Times,serif" font-size="18.00"> change_tool(left_hand, defaultgripper, clampgripper)</text>
</g>
<!-- selector:
 change_tool(left_hand, defaultgripper, clampgripper)&#45;&gt;sequence:
 change_tool(left_hand, defaultgripper, clampgripper) -->
<g id="edge11" class="edge">
<title>selector:
 change_tool(left_hand, defaultgripper, clampgripper)&#45;&gt;sequence:
 change_tool(left_hand, defaultgripper, clampgripper)</title>
<path fill="none" stroke="black" d="M2105.55,-207.48C2105.55,-196.09 2105.55,-183.57 2105.55,-172.36"/>
<polygon fill="black" stroke="black" points="2109.05,-172.11 2105.55,-162.11 2102.05,-172.11 2109.05,-172.11"/>
</g>
<!-- &quot;precondition:\n hold(left_hand, defaultgripper)&quot;* -->
<g id="node13" class="node">
<title>&quot;precondition:\n hold(left_hand, defaultgripper)&quot;*</title>
<ellipse fill="#ffec8b" stroke="black" cx="1679.55" cy="-33.94" rx="225.63" ry="33.88"/>
<text text-anchor="middle" x="1679.55" y="-39.54" font-family="Times,serif" font-size="18.00">&quot;precondition:</text>
<text text-anchor="middle" x="1679.55" y="-19.54" font-family="Times,serif" font-size="18.00"> hold(left_hand, defaultgripper)&quot;*</text>
</g>
<!-- sequence:
 change_tool(left_hand, defaultgripper, clampgripper)&#45;&gt;&quot;precondition:\n hold(left_hand, defaultgripper)&quot;* -->
<g id="edge12" class="edge">
<title>sequence:
 change_tool(left_hand, defaultgripper, clampgripper)&#45;&gt;&quot;precondition:\n hold(left_hand, defaultgripper)&quot;*</title>
<path fill="none" stroke="black" d="M2009.15,-113.77C1949.26,-99.45 1871.61,-80.88 1806.72,-65.36"/>
<polygon fill="black" stroke="black" points="1807.37,-61.91 1796.83,-62.99 1805.74,-68.72 1807.37,-61.91"/>
</g>
<!-- precondition:
 is_empty(defaultgripper) -->
<g id="node14" class="node">
<title>precondition:
 is_empty(defaultgripper)</title>
<ellipse fill="#ffec8b" stroke="black" cx="2098.55" cy="-33.94" rx="175.23" ry="33.88"/>
<text text-anchor="middle" x="2098.55" y="-39.54" font-family="Times,serif" font-size="18.00">precondition:</text>
<text text-anchor="middle" x="2098.55" y="-19.54" font-family="Times,serif" font-size="18.00"> is_empty(defaultgripper)</text>
</g>
<!-- sequence:
 change_tool(left_hand, defaultgripper, clampgripper)&#45;&gt;precondition:
 is_empty(defaultgripper) -->
<g id="edge13" class="edge">
<title>sequence:
 change_tool(left_hand, defaultgripper, clampgripper)&#45;&gt;precondition:
 is_empty(defaultgripper)</title>
<path fill="none" stroke="black" d="M2103.96,-113.7C2103.23,-103.16 2102.35,-90.31 2101.51,-78.08"/>
<polygon fill="black" stroke="black" points="2105,-77.75 2100.82,-68.01 2098.01,-78.23 2105,-77.75"/>
</g>
<!-- action:
 change_tool(left_hand, defaultgripper, clampgripper) -->
<g id="node15" class="node">
<title>action:
 change_tool(left_hand, defaultgripper, clampgripper)</title>
<ellipse fill="lightgreen" stroke="black" cx="2646.55" cy="-33.94" rx="354.94" ry="33.88"/>
<text text-anchor="middle" x="2646.55" y="-39.54" font-family="Times,serif" font-size="18.00">action:</text>
<text text-anchor="middle" x="2646.55" y="-19.54" font-family="Times,serif" font-size="18.00"> change_tool(left_hand, defaultgripper, clampgripper)</text>
</g>
<!-- sequence:
 change_tool(left_hand, defaultgripper, clampgripper)&#45;&gt;action:
 change_tool(left_hand, defaultgripper, clampgripper) -->
<g id="edge14" class="edge">
<title>sequence:
 change_tool(left_hand, defaultgripper, clampgripper)&#45;&gt;action:
 change_tool(left_hand, defaultgripper, clampgripper)</title>
<path fill="none" stroke="black" d="M2227.97,-113.77C2302.48,-99.74 2398.65,-81.63 2480.01,-66.3"/>
<polygon fill="black" stroke="black" points="2480.68,-69.74 2489.86,-64.45 2479.39,-62.86 2480.68,-69.74"/>
</g>
<!-- target:
 hold(clampgripper, shaft1) -->
<g id="node17" class="node">
<title>target:
 hold(clampgripper, shaft1)</title>
<ellipse fill="#ffec8b" stroke="black" cx="2895.55" cy="-137.82" rx="185.94" ry="33.88"/>
<text text-anchor="middle" x="2895.55" y="-143.42" font-family="Times,serif" font-size="18.00">target:</text>
<text text-anchor="middle" x="2895.55" y="-123.42" font-family="Times,serif" font-size="18.00"> hold(clampgripper, shaft1)</text>
</g>
<!-- selector:
 pick_up(left_hand, clampgripper, shaft1)&#45;&gt;target:
 hold(clampgripper, shaft1) -->
<g id="edge16" class="edge">
<title>selector:
 pick_up(left_hand, clampgripper, shaft1)&#45;&gt;target:
 hold(clampgripper, shaft1)</title>
<path fill="none" stroke="black" d="M2895.55,-207.48C2895.55,-199.32 2895.55,-190.58 2895.55,-182.15"/>
<polygon fill="black" stroke="black" points="2899.05,-182.1 2895.55,-172.1 2892.05,-182.1 2899.05,-182.1"/>
</g>
<!-- sequence:
 pick_up(left_hand, clampgripper, shaft1) -->
<g id="node18" class="node">
<title>sequence:
 pick_up(left_hand, clampgripper, shaft1)</title>
<polygon fill="#ff7f24" stroke="black" points="3503.05,-161.82 3114.05,-161.82 3114.05,-113.82 3503.05,-113.82 3503.05,-161.82"/>
<text text-anchor="middle" x="3308.55" y="-143.42" font-family="Times,serif" font-size="18.00">sequence:</text>
<text text-anchor="middle" x="3308.55" y="-123.42" font-family="Times,serif" font-size="18.00"> pick_up(left_hand, clampgripper, shaft1)</text>
</g>
<!-- selector:
 pick_up(left_hand, clampgripper, shaft1)&#45;&gt;sequence:
 pick_up(left_hand, clampgripper, shaft1) -->
<g id="edge17" class="edge">
<title>selector:
 pick_up(left_hand, clampgripper, shaft1)&#45;&gt;sequence:
 pick_up(left_hand, clampgripper, shaft1)</title>
<path fill="none" stroke="black" d="M3031.64,-209.01C3089.16,-194.43 3154.97,-177.75 3208,-164.31"/>
<polygon fill="black" stroke="black" points="3208.91,-167.69 3217.75,-161.84 3207.19,-160.9 3208.91,-167.69"/>
</g>
<!-- precondition:
 hold(left_hand, clampgripper) -->
<g id="node19" class="node">
<title>precondition:
 hold(left_hand, clampgripper)</title>
<ellipse fill="#ffec8b" stroke="black" cx="3226.55" cy="-33.94" rx="207.36" ry="33.88"/>
<text text-anchor="middle" x="3226.55" y="-39.54" font-family="Times,serif" font-size="18.00">precondition:</text>
<text text-anchor="middle" x="3226.55" y="-19.54" font-family="Times,serif" font-size="18.00"> hold(left_hand, clampgripper)</text>
</g>
<!-- sequence:
 pick_up(left_hand, clampgripper, shaft1)&#45;&gt;precondition:
 hold(left_hand, clampgripper) -->
<g id="edge18" class="edge">
<title>sequence:
 pick_up(left_hand, clampgripper, shaft1)&#45;&gt;precondition:
 hold(left_hand, clampgripper)</title>
<path fill="none" stroke="black" d="M3289.94,-113.7C3280.86,-102.43 3269.67,-88.52 3259.23,-75.55"/>
<polygon fill="black" stroke="black" points="3261.85,-73.22 3252.85,-67.62 3256.39,-77.61 3261.85,-73.22"/>
</g>
<!-- precondition:
 is_empty(clampgripper) -->
<g id="node20" class="node">
<title>precondition:
 is_empty(clampgripper)</title>
<ellipse fill="#ffec8b" stroke="black" cx="3620.55" cy="-33.94" rx="169" ry="33.88"/>
<text text-anchor="middle" x="3620.55" y="-39.54" font-family="Times,serif" font-size="18.00">precondition:</text>
<text text-anchor="middle" x="3620.55" y="-19.54" font-family="Times,serif" font-size="18.00"> is_empty(clampgripper)</text>
</g>
<!-- sequence:
 pick_up(left_hand, clampgripper, shaft1)&#45;&gt;precondition:
 is_empty(clampgripper) -->
<g id="edge19" class="edge">
<title>sequence:
 pick_up(left_hand, clampgripper, shaft1)&#45;&gt;precondition:
 is_empty(clampgripper)</title>
<path fill="none" stroke="black" d="M3379.34,-113.7C3422.32,-99.67 3477.74,-81.57 3524.62,-66.27"/>
<polygon fill="black" stroke="black" points="3525.76,-69.58 3534.18,-63.14 3523.59,-62.92 3525.76,-69.58"/>
</g>
<!-- action:
 pick_up(left_hand, clampgripper, shaft1) -->
<g id="node21" class="node">
<title>action:
 pick_up(left_hand, clampgripper, shaft1)</title>
<ellipse fill="lightgreen" stroke="black" cx="4082.55" cy="-33.94" rx="275.13" ry="33.88"/>
<text text-anchor="middle" x="4082.55" y="-39.54" font-family="Times,serif" font-size="18.00">action:</text>
<text text-anchor="middle" x="4082.55" y="-19.54" font-family="Times,serif" font-size="18.00"> pick_up(left_hand, clampgripper, shaft1)</text>
</g>
<!-- sequence:
 pick_up(left_hand, clampgripper, shaft1)&#45;&gt;action:
 pick_up(left_hand, clampgripper, shaft1) -->
<g id="edge20" class="edge">
<title>sequence:
 pick_up(left_hand, clampgripper, shaft1)&#45;&gt;action:
 pick_up(left_hand, clampgripper, shaft1)</title>
<path fill="none" stroke="black" d="M3483.7,-113.77C3604.07,-97.92 3763.98,-76.87 3888.27,-60.51"/>
<polygon fill="black" stroke="black" points="3888.83,-63.97 3898.29,-59.19 3887.92,-57.03 3888.83,-63.97"/>
</g>
<!-- &quot;target:\n is_inserted_to(shaft1, gearbase_hole1)&quot;* -->
<g id="node23" class="node">
<title>&quot;target:\n is_inserted_to(shaft1, gearbase_hole1)&quot;*</title>
<ellipse fill="#ffec8b" stroke="black" cx="3958.55" cy="-137.82" rx="273.8" ry="33.88"/>
<text text-anchor="middle" x="3958.55" y="-143.42" font-family="Times,serif" font-size="18.00">&quot;target:</text>
<text text-anchor="middle" x="3958.55" y="-123.42" font-family="Times,serif" font-size="18.00"> is_inserted_to(shaft1, gearbase_hole1)&quot;*</text>
</g>
<!-- selector:
 insert(left_hand, clampgripper, shaft1, gearbase_hole1)&#45;&gt;&quot;target:\n is_inserted_to(shaft1, gearbase_hole1)&quot;* -->
<g id="edge22" class="edge">
<title>selector:
 insert(left_hand, clampgripper, shaft1, gearbase_hole1)&#45;&gt;&quot;target:\n is_inserted_to(shaft1, gearbase_hole1)&quot;*</title>
<path fill="none" stroke="black" d="M3958.55,-207.48C3958.55,-199.32 3958.55,-190.58 3958.55,-182.15"/>
<polygon fill="black" stroke="black" points="3962.05,-182.1 3958.55,-172.1 3955.05,-182.1 3962.05,-182.1"/>
</g>
<!-- sequence:
 insert(left_hand, clampgripper, shaft1, gearbase_hole1) -->
<g id="node24" class="node">
<title>sequence:
 insert(left_hand, clampgripper, shaft1, gearbase_hole1)</title>
<polygon fill="#ff7f24" stroke="black" points="5067.55,-161.82 4543.55,-161.82 4543.55,-113.82 5067.55,-113.82 5067.55,-161.82"/>
<text text-anchor="middle" x="4805.55" y="-143.42" font-family="Times,serif" font-size="18.00">sequence:</text>
<text text-anchor="middle" x="4805.55" y="-123.42" font-family="Times,serif" font-size="18.00"> insert(left_hand, clampgripper, shaft1, gearbase_hole1)</text>
</g>
<!-- selector:
 insert(left_hand, clampgripper, shaft1, gearbase_hole1)&#45;&gt;sequence:
 insert(left_hand, clampgripper, shaft1, gearbase_hole1) -->
<g id="edge23" class="edge">
<title>selector:
 insert(left_hand, clampgripper, shaft1, gearbase_hole1)&#45;&gt;sequence:
 insert(left_hand, clampgripper, shaft1, gearbase_hole1)</title>
<path fill="none" stroke="black" d="M4196.45,-214.1C4326.63,-198.01 4485.96,-178.32 4609.01,-163.11"/>
<polygon fill="black" stroke="black" points="4609.8,-166.54 4619.3,-161.84 4608.94,-159.59 4609.8,-166.54"/>
</g>
<!-- &quot;precondition:\n hold(left_hand, clampgripper)&quot;* -->
<g id="node25" class="node">
<title>&quot;precondition:\n hold(left_hand, clampgripper)&quot;*</title>
<ellipse fill="#ffec8b" stroke="black" cx="4594.55" cy="-33.94" rx="219.41" ry="33.88"/>
<text text-anchor="middle" x="4594.55" y="-39.54" font-family="Times,serif" font-size="18.00">&quot;precondition:</text>
<text text-anchor="middle" x="4594.55" y="-19.54" font-family="Times,serif" font-size="18.00"> hold(left_hand, clampgripper)&quot;*</text>
</g>
<!-- sequence:
 insert(left_hand, clampgripper, shaft1, gearbase_hole1)&#45;&gt;&quot;precondition:\n hold(left_hand, clampgripper)&quot;* -->
<g id="edge24" class="edge">
<title>sequence:
 insert(left_hand, clampgripper, shaft1, gearbase_hole1)&#45;&gt;&quot;precondition:\n hold(left_hand, clampgripper)&quot;*</title>
<path fill="none" stroke="black" d="M4757.67,-113.7C4731.44,-101.04 4698.36,-85.07 4668.86,-70.82"/>
<polygon fill="black" stroke="black" points="4670.36,-67.66 4659.83,-66.46 4667.31,-73.96 4670.36,-67.66"/>
</g>
<!-- precondition:
 hold(clampgripper, shaft1) -->
<g id="node26" class="node">
<title>precondition:
 hold(clampgripper, shaft1)</title>
<ellipse fill="#ffec8b" stroke="black" cx="5017.55" cy="-33.94" rx="185.94" ry="33.88"/>
<text text-anchor="middle" x="5017.55" y="-39.54" font-family="Times,serif" font-size="18.00">precondition:</text>
<text text-anchor="middle" x="5017.55" y="-19.54" font-family="Times,serif" font-size="18.00"> hold(clampgripper, shaft1)</text>
</g>
<!-- sequence:
 insert(left_hand, clampgripper, shaft1, gearbase_hole1)&#45;&gt;precondition:
 hold(clampgripper, shaft1) -->
<g id="edge25" class="edge">
<title>sequence:
 insert(left_hand, clampgripper, shaft1, gearbase_hole1)&#45;&gt;precondition:
 hold(clampgripper, shaft1)</title>
<path fill="none" stroke="black" d="M4853.65,-113.7C4880.33,-100.88 4914.08,-84.67 4944,-70.29"/>
<polygon fill="black" stroke="black" points="4945.65,-73.37 4953.15,-65.89 4942.62,-67.07 4945.65,-73.37"/>
</g>
<!-- action:
 insert(left_hand, clampgripper, shaft1, gearbase_hole1) -->
<g id="node27" class="node">
<title>action:
 insert(left_hand, clampgripper, shaft1, gearbase_hole1)</title>
<ellipse fill="lightgreen" stroke="black" cx="5591.55" cy="-33.94" rx="370.55" ry="33.88"/>
<text text-anchor="middle" x="5591.55" y="-39.54" font-family="Times,serif" font-size="18.00">action:</text>
<text text-anchor="middle" x="5591.55" y="-19.54" font-family="Times,serif" font-size="18.00"> insert(left_hand, clampgripper, shaft1, gearbase_hole1)</text>
</g>
<!-- sequence:
 insert(left_hand, clampgripper, shaft1, gearbase_hole1)&#45;&gt;action:
 insert(left_hand, clampgripper, shaft1, gearbase_hole1) -->
<g id="edge26" class="edge">
<title>sequence:
 insert(left_hand, clampgripper, shaft1, gearbase_hole1)&#45;&gt;action:
 insert(left_hand, clampgripper, shaft1, gearbase_hole1)</title>
<path fill="none" stroke="black" d="M4983.41,-113.77C5098.71,-98.82 5249.71,-79.25 5372.4,-63.35"/>
<polygon fill="black" stroke="black" points="5373.21,-66.77 5382.67,-62.02 5372.31,-59.83 5373.21,-66.77"/>
</g>
</g>
</svg>
