<?xml version="1.0" encoding="UTF-8" standalone="no"?>
<!DOCTYPE svg PUBLIC "-//W3C//DTD SVG 1.1//EN"
 "http://www.w3.org/Graphics/SVG/1.1/DTD/svg11.dtd">
<!-- Generated by graphviz version 2.43.0 (0)
 -->
<!-- Title: pastafarianism Pages: 1 -->
<svg width="5946pt" height="503pt"
 viewBox="0.00 0.00 5946.07 502.60" xmlns="http://www.w3.org/2000/svg" xmlns:xlink="http://www.w3.org/1999/xlink">
<g id="graph0" class="graph" transform="scale(1 1) rotate(0) translate(4 498.6)">
<title>pastafarianism</title>
<polygon fill="white" stroke="transparent" points="-4,4 -4,-498.6 5942.07,-498.6 5942.07,4 -4,4"/>
<!-- selector:
 insert_shaft1_into_gearbase_hole1 -->
<g id="node1" class="node">
<title>selector:
 insert_shaft1_into_gearbase_hole1</title>
<polygon fill="#8deeee" stroke="black" points="2546.31,-442.54 2546.31,-473.18 2396.49,-494.84 2184.6,-494.84 2034.78,-473.18 2034.78,-442.54 2184.6,-420.88 2396.49,-420.88 2546.31,-442.54"/>
<text text-anchor="middle" x="2290.55" y="-463.46" font-family="Times,serif" font-size="18.00">selector:</text>
<text text-anchor="middle" x="2290.55" y="-443.46" font-family="Times,serif" font-size="18.00"> insert_shaft1_into_gearbase_hole1</text>
</g>
<!-- target:
 is_inserted_to(shaft1, gearbase_hole1) -->
<g id="node2" class="node">
<title>target:
 is_inserted_to(shaft1, gearbase_hole1)</title>
<ellipse fill="#ffec8b" stroke="black" cx="2067.55" cy="-351.18" rx="261.76" ry="33.88"/>
<text text-anchor="middle" x="2067.55" y="-356.78" font-family="Times,serif" font-size="18.00">target:</text>
<text text-anchor="middle" x="2067.55" y="-336.78" font-family="Times,serif" font-size="18.00"> is_inserted_to(shaft1, gearbase_hole1)</text>
</g>
<!-- selector:
 insert_shaft1_into_gearbase_hole1&#45;&gt;target:
 is_inserted_to(shaft1, gearbase_hole1) -->
<g id="edge1" class="edge">
<title>selector:
 insert_shaft1_into_gearbase_hole1&#45;&gt;target:
 is_inserted_to(shaft1, gearbase_hole1)</title>
<path fill="none" stroke="black" d="M2214.11,-420.98C2191.62,-410.42 2167,-398.87 2144.48,-388.29"/>
<polygon fill="black" stroke="black" points="2145.84,-385.06 2135.3,-383.98 2142.86,-391.4 2145.84,-385.06"/>
</g>
<!-- sequence:
 insert_shaft1_into_gearbase_hole1 -->
<g id="node3" class="node">
<title>sequence:
 insert_shaft1_into_gearbase_hole1</title>
<polygon fill="#ff7f24" stroke="black" points="2681.55,-375.18 2347.55,-375.18 2347.55,-327.18 2681.55,-327.18 2681.55,-375.18"/>
<text text-anchor="middle" x="2514.55" y="-356.78" font-family="Times,serif" font-size="18.00">sequence:</text>
<text text-anchor="middle" x="2514.55" y="-336.78" font-family="Times,serif" font-size="18.00"> insert_shaft1_into_gearbase_hole1</text>
</g>
<!-- selector:
 insert_shaft1_into_gearbase_hole1&#45;&gt;sequence:
 insert_shaft1_into_gearbase_hole1 -->
<g id="edge2" class="edge">
<title>selector:
 insert_shaft1_into_gearbase_hole1&#45;&gt;sequence:
 insert_shaft1_into_gearbase_hole1</title>
<path fill="none" stroke="black" d="M2367.32,-420.98C2396.32,-407.43 2428.83,-392.24 2455.91,-379.58"/>
<polygon fill="black" stroke="black" points="2457.67,-382.62 2465.25,-375.22 2454.71,-376.28 2457.67,-382.62"/>
</g>
<!-- selector:
 change_tool(left_hand, defaultgripper, clampgripper) -->
<g id="node4" class="node">
<title>selector:
 change_tool(left_hand, defaultgripper, clampgripper)</title>
<polygon fill="#8deeee" stroke="black" points="1278.97,-229.19 1278.97,-259.82 1053.78,-281.48 735.31,-281.48 510.12,-259.82 510.12,-229.19 735.31,-207.53 1053.78,-207.53 1278.97,-229.19"/>
<text text-anchor="middle" x="894.55" y="-250.1" font-family="Times,serif" font-size="18.00">selector:</text>
<text text-anchor="middle" x="894.55" y="-230.1" font-family="Times,serif" font-size="18.00"> change_tool(left_hand, defaultgripper, clampgripper)</text>
</g>
<!-- sequence:
 insert_shaft1_into_gearbase_hole1&#45;&gt;selector:
 change_tool(left_hand, defaultgripper, clampgripper) -->
<g id="edge3" class="edge">
<title>sequence:
 insert_shaft1_into_gearbase_hole1&#45;&gt;selector:
 change_tool(left_hand, defaultgripper, clampgripper)</title>
<path fill="none" stroke="black" d="M2404.11,-327.15C2382.45,-323.3 2359.85,-319.75 2338.55,-317.24 2143.18,-294.21 1645.72,-272.49 1289.33,-259.11"/>
<polygon fill="black" stroke="black" points="1289.22,-255.6 1279.1,-258.72 1288.96,-262.6 1289.22,-255.6"/>
</g>
<!-- selector:
 put_down(left_hand, clampgripper, shaft3) -->
<g id="node10" class="node">
<title>selector:
 put_down(left_hand, clampgripper, shaft3)</title>
<polygon fill="#8deeee" stroke="black" points="2492.05,-229.19 2492.05,-259.82 2309.58,-281.48 2051.52,-281.48 1869.04,-259.82 1869.04,-229.19 2051.52,-207.53 2309.58,-207.53 2492.05,-229.19"/>
<text text-anchor="middle" x="2180.55" y="-250.1" font-family="Times,serif" font-size="18.00">selector:</text>
<text text-anchor="middle" x="2180.55" y="-230.1" font-family="Times,serif" font-size="18.00"> put_down(left_hand, clampgripper, shaft3)</text>
</g>
<!-- sequence:
 insert_shaft1_into_gearbase_hole1&#45;&gt;selector:
 put_down(left_hand, clampgripper, shaft3) -->
<g id="edge9" class="edge">
<title>sequence:
 insert_shaft1_into_gearbase_hole1&#45;&gt;selector:
 put_down(left_hand, clampgripper, shaft3)</title>
<path fill="none" stroke="black" d="M2440.84,-327.08C2400.84,-314.54 2350.33,-298.72 2304.48,-284.34"/>
<polygon fill="black" stroke="black" points="2305.36,-280.95 2294.77,-281.3 2303.26,-287.63 2305.36,-280.95"/>
</g>
<!-- selector:
 pick_up(left_hand, clampgripper, shaft1) -->
<g id="node16" class="node">
<title>selector:
 pick_up(left_hand, clampgripper, shaft1)</title>
<polygon fill="#8deeee" stroke="black" points="3147.5,-229.19 3147.5,-259.82 2972.96,-281.48 2726.13,-281.48 2551.59,-259.82 2551.59,-229.19 2726.13,-207.53 2972.96,-207.53 3147.5,-229.19"/>
<text text-anchor="middle" x="2849.55" y="-250.1" font-family="Times,serif" font-size="18.00">selector:</text>
<text text-anchor="middle" x="2849.55" y="-230.1" font-family="Times,serif" font-size="18.00"> pick_up(left_hand, clampgripper, shaft1)</text>
</g>
<!-- sequence:
 insert_shaft1_into_gearbase_hole1&#45;&gt;selector:
 pick_up(left_hand, clampgripper, shaft1) -->
<g id="edge15" class="edge">
<title>sequence:
 insert_shaft1_into_gearbase_hole1&#45;&gt;selector:
 pick_up(left_hand, clampgripper, shaft1)</title>
<path fill="none" stroke="black" d="M2588.48,-327.08C2628.59,-314.54 2679.25,-298.72 2725.24,-284.34"/>
<polygon fill="black" stroke="black" points="2726.48,-287.62 2734.98,-281.3 2724.39,-280.94 2726.48,-287.62"/>
</g>
<!-- selector:
 insert(left_hand, clampgripper, shaft1, gearbase_hole1) -->
<g id="node22" class="node">
<title>selector:
 insert(left_hand, clampgripper, shaft1, gearbase_hole1)</title>
<polygon fill="#8deeee" stroke="black" points="4388.65,-229.19 4388.65,-259.82 4153.69,-281.48 3821.4,-281.48 3586.44,-259.82 3586.44,-229.19 3821.4,-207.53 4153.69,-207.53 4388.65,-229.19"/>
<text text-anchor="middle" x="3987.55" y="-250.1" font-family="Times,serif" font-size="18.00">selector:</text>
<text text-anchor="middle" x="3987.55" y="-230.1" font-family="Times,serif" font-size="18.00"> insert(left_hand, clampgripper, shaft1, gearbase_hole1)</text>
</g>
<!-- sequence:
 insert_shaft1_into_gearbase_hole1&#45;&gt;selector:
 insert(left_hand, clampgripper, shaft1, gearbase_hole1) -->
<g id="edge21" class="edge">
<title>sequence:
 insert_shaft1_into_gearbase_hole1&#45;&gt;selector:
 insert(left_hand, clampgripper, shaft1, gearbase_hole1)</title>
<path fill="none" stroke="black" d="M2681.73,-338.3C2919.44,-321.41 3359.85,-290.11 3662.99,-268.57"/>
<polygon fill="black" stroke="black" points="3663.54,-272.04 3673.27,-267.84 3663.05,-265.05 3663.54,-272.04"/>
</g>
<!-- target:
 hold(left_hand, clampgripper) -->
<g id="node5" class="node">
<title>target:
 hold(left_hand, clampgripper)</title>
<ellipse fill="#ffec8b" stroke="black" cx="418.55" cy="-137.82" rx="207.36" ry="33.88"/>
<text text-anchor="middle" x="418.55" y="-143.42" font-family="Times,serif" font-size="18.00">target:</text>
<text text-anchor="middle" x="418.55" y="-123.42" font-family="Times,serif" font-size="18.00"> hold(left_hand, clampgripper)</text>
</g>
<!-- selector:
 change_tool(left_hand, defaultgripper, clampgripper)&#45;&gt;target:
 hold(left_hand, clampgripper) -->
<g id="edge4" class="edge">
<title>selector:
 change_tool(left_hand, defaultgripper, clampgripper)&#45;&gt;target:
 hold(left_hand, clampgripper)</title>
<path fill="none" stroke="black" d="M732.07,-207.77C672.61,-194.7 606.15,-180.08 549.77,-167.68"/>
<polygon fill="black" stroke="black" points="550.24,-164.2 539.72,-165.47 548.74,-171.04 550.24,-164.2"/>
</g>
<!-- sequence:
 change_tool(left_hand, defaultgripper, clampgripper) -->
<g id="node6" class="node">
<title>sequence:
 change_tool(left_hand, defaultgripper, clampgripper)</title>
<polygon fill="#ff7f24" stroke="black" points="1145.55,-161.82 643.55,-161.82 643.55,-113.82 1145.55,-113.82 1145.55,-161.82"/>
<text text-anchor="middle" x="894.55" y="-143.42" font-family="Times,serif" font-size="18.00">sequence:</text>
<text text-anchor="middle" x="894.55" y="-123.42" font-family="Times,serif" font-size="18.00"> change_tool(left_hand, defaultgripper, clampgripper)</text>
</g>
<!-- selector:
 change_tool(left_hand, defaultgripper, clampgripper)&#45;&gt;sequence:
 change_tool(left_hand, defaultgripper, clampgripper) -->
<g id="edge5" class="edge">
<title>selector:
 change_tool(left_hand, defaultgripper, clampgripper)&#45;&gt;sequence:
 change_tool(left_hand, defaultgripper, clampgripper)</title>
<path fill="none" stroke="black" d="M894.55,-207.48C894.55,-196.09 894.55,-183.57 894.55,-172.36"/>
<polygon fill="black" stroke="black" points="898.05,-172.11 894.55,-162.11 891.05,-172.11 898.05,-172.11"/>
</g>
<!-- precondition:
 hold(left_hand, defaultgripper) -->
<g id="node7" class="node">
<title>precondition:
 hold(left_hand, defaultgripper)</title>
<ellipse fill="#ffec8b" stroke="black" cx="213.55" cy="-33.94" rx="213.59" ry="33.88"/>
<text text-anchor="middle" x="213.55" y="-39.54" font-family="Times,serif" font-size="18.00">precondition:</text>
<text text-anchor="middle" x="213.55" y="-19.54" font-family="Times,serif" font-size="18.00"> hold(left_hand, defaultgripper)</text>
</g>
<!-- sequence:
 change_tool(left_hand, defaultgripper, clampgripper)&#45;&gt;precondition:
 hold(left_hand, defaultgripper) -->
<g id="edge6" class="edge">
<title>sequence:
 change_tool(left_hand, defaultgripper, clampgripper)&#45;&gt;precondition:
 hold(left_hand, defaultgripper)</title>
<path fill="none" stroke="black" d="M740.44,-113.77C631.7,-97.5 486.31,-75.75 375.8,-59.22"/>
<polygon fill="black" stroke="black" points="376.3,-55.75 365.89,-57.73 375.26,-62.67 376.3,-55.75"/>
</g>
<!-- precondition:
 is_empty(defaultgripper) -->
<g id="node8" class="node">
<title>precondition:
 is_empty(defaultgripper)</title>
<ellipse fill="#ffec8b" stroke="black" cx="620.55" cy="-33.94" rx="175.23" ry="33.88"/>
<text text-anchor="middle" x="620.55" y="-39.54" font-family="Times,serif" font-size="18.00">precondition:</text>
<text text-anchor="middle" x="620.55" y="-19.54" font-family="Times,serif" font-size="18.00"> is_empty(defaultgripper)</text>
</g>
<!-- sequence:
 change_tool(left_hand, defaultgripper, clampgripper)&#45;&gt;precondition:
 is_empty(defaultgripper) -->
<g id="edge7" class="edge">
<title>sequence:
 change_tool(left_hand, defaultgripper, clampgripper)&#45;&gt;precondition:
 is_empty(defaultgripper)</title>
<path fill="none" stroke="black" d="M832.37,-113.7C795.9,-100.14 749.22,-82.79 708.97,-67.82"/>
<polygon fill="black" stroke="black" points="710.02,-64.48 699.43,-64.27 707.58,-71.04 710.02,-64.48"/>
</g>
<!-- action:
 change_tool(left_hand, defaultgripper, clampgripper) -->
<g id="node9" class="node">
<title>action:
 change_tool(left_hand, defaultgripper, clampgripper)</title>
<ellipse fill="lightgreen" stroke="black" cx="1168.55" cy="-33.94" rx="354.94" ry="33.88"/>
<text text-anchor="middle" x="1168.55" y="-39.54" font-family="Times,serif" font-size="18.00">action:</text>
<text text-anchor="middle" x="1168.55" y="-19.54" font-family="Times,serif" font-size="18.00"> change_tool(left_hand, defaultgripper, clampgripper)</text>
</g>
<!-- sequence:
 change_tool(left_hand, defaultgripper, clampgripper)&#45;&gt;action:
 change_tool(left_hand, defaultgripper, clampgripper) -->
<g id="edge8" class="edge">
<title>sequence:
 change_tool(left_hand, defaultgripper, clampgripper)&#45;&gt;action:
 change_tool(left_hand, defaultgripper, clampgripper)</title>
<path fill="none" stroke="black" d="M956.72,-113.7C991,-100.96 1034.29,-84.86 1072.8,-70.54"/>
<polygon fill="black" stroke="black" points="1074.32,-73.71 1082.47,-66.95 1071.88,-67.15 1074.32,-73.71"/>
</g>
<!-- target:
 is_empty(clampgripper) -->
<g id="node11" class="node">
<title>target:
 is_empty(clampgripper)</title>
<ellipse fill="#ffec8b" stroke="black" cx="1790.55" cy="-137.82" rx="169" ry="33.88"/>
<text text-anchor="middle" x="1790.55" y="-143.42" font-family="Times,serif" font-size="18.00">target:</text>
<text text-anchor="middle" x="1790.55" y="-123.42" font-family="Times,serif" font-size="18.00"> is_empty(clampgripper)</text>
</g>
<!-- selector:
 put_down(left_hand, clampgripper, shaft3)&#45;&gt;target:
 is_empty(clampgripper) -->
<g id="edge10" class="edge">
<title>selector:
 put_down(left_hand, clampgripper, shaft3)&#45;&gt;target:
 is_empty(clampgripper)</title>
<path fill="none" stroke="black" d="M2047.97,-207.92C1999.52,-194.91 1945.32,-180.37 1899.2,-167.99"/>
<polygon fill="black" stroke="black" points="1900.06,-164.59 1889.49,-165.38 1898.24,-171.35 1900.06,-164.59"/>
</g>
<!-- sequence:
 put_down(left_hand, clampgripper, shaft3) -->
<g id="node12" class="node">
<title>sequence:
 put_down(left_hand, clampgripper, shaft3)</title>
<polygon fill="#ff7f24" stroke="black" points="2384.05,-161.82 1977.05,-161.82 1977.05,-113.82 2384.05,-113.82 2384.05,-161.82"/>
<text text-anchor="middle" x="2180.55" y="-143.42" font-family="Times,serif" font-size="18.00">sequence:</text>
<text text-anchor="middle" x="2180.55" y="-123.42" font-family="Times,serif" font-size="18.00"> put_down(left_hand, clampgripper, shaft3)</text>
</g>
<!-- selector:
 put_down(left_hand, clampgripper, shaft3)&#45;&gt;sequence:
 put_down(left_hand, clampgripper, shaft3) -->
<g id="edge11" class="edge">
<title>selector:
 put_down(left_hand, clampgripper, shaft3)&#45;&gt;sequence:
 put_down(left_hand, clampgripper, shaft3)</title>
<path fill="none" stroke="black" d="M2180.55,-207.48C2180.55,-196.09 2180.55,-183.57 2180.55,-172.36"/>
<polygon fill="black" stroke="black" points="2184.05,-172.11 2180.55,-162.11 2177.05,-172.11 2184.05,-172.11"/>
</g>
<!-- precondition:
 hold(left_hand, clampgripper) -->
<g id="node13" class="node">
<title>precondition:
 hold(left_hand, clampgripper)</title>
<ellipse fill="#ffec8b" stroke="black" cx="1748.55" cy="-33.94" rx="207.36" ry="33.88"/>
<text text-anchor="middle" x="1748.55" y="-39.54" font-family="Times,serif" font-size="18.00">precondition:</text>
<text text-anchor="middle" x="1748.55" y="-19.54" font-family="Times,serif" font-size="18.00"> hold(left_hand, clampgripper)</text>
</g>
<!-- sequence:
 put_down(left_hand, clampgripper, shaft3)&#45;&gt;precondition:
 hold(left_hand, clampgripper) -->
<g id="edge12" class="edge">
<title>sequence:
 put_down(left_hand, clampgripper, shaft3)&#45;&gt;precondition:
 hold(left_hand, clampgripper)</title>
<path fill="none" stroke="black" d="M2082.79,-113.77C2021,-99.2 1940.55,-80.22 1874.06,-64.54"/>
<polygon fill="black" stroke="black" points="1874.47,-61.04 1863.93,-62.15 1872.86,-67.86 1874.47,-61.04"/>
</g>
<!-- precondition:
 hold(clampgripper, shaft3) -->
<g id="node14" class="node">
<title>precondition:
 hold(clampgripper, shaft3)</title>
<ellipse fill="#ffec8b" stroke="black" cx="2159.55" cy="-33.94" rx="185.94" ry="33.88"/>
<text text-anchor="middle" x="2159.55" y="-39.54" font-family="Times,serif" font-size="18.00">precondition:</text>
<text text-anchor="middle" x="2159.55" y="-19.54" font-family="Times,serif" font-size="18.00"> hold(clampgripper, shaft3)</text>
</g>
<!-- sequence:
 put_down(left_hand, clampgripper, shaft3)&#45;&gt;precondition:
 hold(clampgripper, shaft3) -->
<g id="edge13" class="edge">
<title>sequence:
 put_down(left_hand, clampgripper, shaft3)&#45;&gt;precondition:
 hold(clampgripper, shaft3)</title>
<path fill="none" stroke="black" d="M2175.78,-113.7C2173.61,-103.16 2170.96,-90.31 2168.44,-78.08"/>
<polygon fill="black" stroke="black" points="2171.81,-77.1 2166.36,-68.01 2164.95,-78.51 2171.81,-77.1"/>
</g>
<!-- action:
 put_down(left_hand, clampgripper, shaft3) -->
<g id="node15" class="node">
<title>action:
 put_down(left_hand, clampgripper, shaft3)</title>
<ellipse fill="lightgreen" stroke="black" cx="2651.55" cy="-33.94" rx="287.59" ry="33.88"/>
<text text-anchor="middle" x="2651.55" y="-39.54" font-family="Times,serif" font-size="18.00">action:</text>
<text text-anchor="middle" x="2651.55" y="-19.54" font-family="Times,serif" font-size="18.00"> put_down(left_hand, clampgripper, shaft3)</text>
</g>
<!-- sequence:
 put_down(left_hand, clampgripper, shaft3)&#45;&gt;action:
 put_down(left_hand, clampgripper, shaft3) -->
<g id="edge14" class="edge">
<title>sequence:
 put_down(left_hand, clampgripper, shaft3)&#45;&gt;action:
 put_down(left_hand, clampgripper, shaft3)</title>
<path fill="none" stroke="black" d="M2287.13,-113.77C2352.18,-99.7 2436.21,-81.52 2507.18,-66.17"/>
<polygon fill="black" stroke="black" points="2508.07,-69.56 2517.1,-64.02 2506.59,-62.72 2508.07,-69.56"/>
</g>
<!-- target:
 hold(clampgripper, shaft1) -->
<g id="node17" class="node">
<title>target:
 hold(clampgripper, shaft1)</title>
<ellipse fill="#ffec8b" stroke="black" cx="2849.55" cy="-137.82" rx="185.94" ry="33.88"/>
<text text-anchor="middle" x="2849.55" y="-143.42" font-family="Times,serif" font-size="18.00">target:</text>
<text text-anchor="middle" x="2849.55" y="-123.42" font-family="Times,serif" font-size="18.00"> hold(clampgripper, shaft1)</text>
</g>
<!-- selector:
 pick_up(left_hand, clampgripper, shaft1)&#45;&gt;target:
 hold(clampgripper, shaft1) -->
<g id="edge16" class="edge">
<title>selector:
 pick_up(left_hand, clampgripper, shaft1)&#45;&gt;target:
 hold(clampgripper, shaft1)</title>
<path fill="none" stroke="black" d="M2849.55,-207.48C2849.55,-199.32 2849.55,-190.58 2849.55,-182.15"/>
<polygon fill="black" stroke="black" points="2853.05,-182.1 2849.55,-172.1 2846.05,-182.1 2853.05,-182.1"/>
</g>
<!-- sequence:
 pick_up(left_hand, clampgripper, shaft1) -->
<g id="node18" class="node">
<title>sequence:
 pick_up(left_hand, clampgripper, shaft1)</title>
<polygon fill="#ff7f24" stroke="black" points="3611.05,-161.82 3222.05,-161.82 3222.05,-113.82 3611.05,-113.82 3611.05,-161.82"/>
<text text-anchor="middle" x="3416.55" y="-143.42" font-family="Times,serif" font-size="18.00">sequence:</text>
<text text-anchor="middle" x="3416.55" y="-123.42" font-family="Times,serif" font-size="18.00"> pick_up(left_hand, clampgripper, shaft1)</text>
</g>
<!-- selector:
 pick_up(left_hand, clampgripper, shaft1)&#45;&gt;sequence:
 pick_up(left_hand, clampgripper, shaft1) -->
<g id="edge17" class="edge">
<title>selector:
 pick_up(left_hand, clampgripper, shaft1)&#45;&gt;sequence:
 pick_up(left_hand, clampgripper, shaft1)</title>
<path fill="none" stroke="black" d="M3015.83,-212.8C3100.44,-197.18 3201.96,-178.44 3281.64,-163.73"/>
<polygon fill="black" stroke="black" points="3282.54,-167.12 3291.74,-161.86 3281.27,-160.24 3282.54,-167.12"/>
</g>
<!-- &quot;precondition:\n hold(left_hand, clampgripper)&quot;* -->
<g id="node19" class="node">
<title>&quot;precondition:\n hold(left_hand, clampgripper)&quot;*</title>
<ellipse fill="#ffec8b" stroke="black" cx="3176.55" cy="-33.94" rx="219.41" ry="33.88"/>
<text text-anchor="middle" x="3176.55" y="-39.54" font-family="Times,serif" font-size="18.00">&quot;precondition:</text>
<text text-anchor="middle" x="3176.55" y="-19.54" font-family="Times,serif" font-size="18.00"> hold(left_hand, clampgripper)&quot;*</text>
</g>
<!-- sequence:
 pick_up(left_hand, clampgripper, shaft1)&#45;&gt;&quot;precondition:\n hold(left_hand, clampgripper)&quot;* -->
<g id="edge18" class="edge">
<title>sequence:
 pick_up(left_hand, clampgripper, shaft1)&#45;&gt;&quot;precondition:\n hold(left_hand, clampgripper)&quot;*</title>
<path fill="none" stroke="black" d="M3362.09,-113.7C3331.75,-100.83 3293.34,-84.52 3259.36,-70.1"/>
<polygon fill="black" stroke="black" points="3260.47,-66.77 3249.9,-66.08 3257.74,-73.21 3260.47,-66.77"/>
</g>
<!-- precondition:
 is_empty(clampgripper) -->
<g id="node20" class="node">
<title>precondition:
 is_empty(clampgripper)</title>
<ellipse fill="#ffec8b" stroke="black" cx="3582.55" cy="-33.94" rx="169" ry="33.88"/>
<text text-anchor="middle" x="3582.55" y="-39.54" font-family="Times,serif" font-size="18.00">precondition:</text>
<text text-anchor="middle" x="3582.55" y="-19.54" font-family="Times,serif" font-size="18.00"> is_empty(clampgripper)</text>
</g>
<!-- sequence:
 pick_up(left_hand, clampgripper, shaft1)&#45;&gt;precondition:
 is_empty(clampgripper) -->
<g id="edge19" class="edge">
<title>sequence:
 pick_up(left_hand, clampgripper, shaft1)&#45;&gt;precondition:
 is_empty(clampgripper)</title>
<path fill="none" stroke="black" d="M3454.21,-113.7C3474.4,-101.31 3499.75,-85.76 3522.58,-71.75"/>
<polygon fill="black" stroke="black" points="3524.49,-74.68 3531.18,-66.46 3520.83,-68.71 3524.49,-74.68"/>
</g>
<!-- action:
 pick_up(left_hand, clampgripper, shaft1) -->
<g id="node21" class="node">
<title>action:
 pick_up(left_hand, clampgripper, shaft1)</title>
<ellipse fill="lightgreen" stroke="black" cx="4044.55" cy="-33.94" rx="275.13" ry="33.88"/>
<text text-anchor="middle" x="4044.55" y="-39.54" font-family="Times,serif" font-size="18.00">action:</text>
<text text-anchor="middle" x="4044.55" y="-19.54" font-family="Times,serif" font-size="18.00"> pick_up(left_hand, clampgripper, shaft1)</text>
</g>
<!-- sequence:
 pick_up(left_hand, clampgripper, shaft1)&#45;&gt;action:
 pick_up(left_hand, clampgripper, shaft1) -->
<g id="edge20" class="edge">
<title>sequence:
 pick_up(left_hand, clampgripper, shaft1)&#45;&gt;action:
 pick_up(left_hand, clampgripper, shaft1)</title>
<path fill="none" stroke="black" d="M3558.66,-113.77C3651.53,-98.7 3773.41,-78.93 3871.86,-62.96"/>
<polygon fill="black" stroke="black" points="3872.61,-66.38 3881.92,-61.32 3871.49,-59.47 3872.61,-66.38"/>
</g>
<!-- &quot;target:\n is_inserted_to(shaft1, gearbase_hole1)&quot;* -->
<g id="node23" class="node">
<title>&quot;target:\n is_inserted_to(shaft1, gearbase_hole1)&quot;*</title>
<ellipse fill="#ffec8b" stroke="black" cx="3987.55" cy="-137.82" rx="273.8" ry="33.88"/>
<text text-anchor="middle" x="3987.55" y="-143.42" font-family="Times,serif" font-size="18.00">&quot;target:</text>
<text text-anchor="middle" x="3987.55" y="-123.42" font-family="Times,serif" font-size="18.00"> is_inserted_to(shaft1, gearbase_hole1)&quot;*</text>
</g>
<!-- selector:
 insert(left_hand, clampgripper, shaft1, gearbase_hole1)&#45;&gt;&quot;target:\n is_inserted_to(shaft1, gearbase_hole1)&quot;* -->
<g id="edge22" class="edge">
<title>selector:
 insert(left_hand, clampgripper, shaft1, gearbase_hole1)&#45;&gt;&quot;target:\n is_inserted_to(shaft1, gearbase_hole1)&quot;*</title>
<path fill="none" stroke="black" d="M3987.55,-207.48C3987.55,-199.32 3987.55,-190.58 3987.55,-182.15"/>
<polygon fill="black" stroke="black" points="3991.05,-182.1 3987.55,-172.1 3984.05,-182.1 3991.05,-182.1"/>
</g>
<!-- sequence:
 insert(left_hand, clampgripper, shaft1, gearbase_hole1) -->
<g id="node24" class="node">
<title>sequence:
 insert(left_hand, clampgripper, shaft1, gearbase_hole1)</title>
<polygon fill="#ff7f24" stroke="black" points="5040.55,-161.82 4516.55,-161.82 4516.55,-113.82 5040.55,-113.82 5040.55,-161.82"/>
<text text-anchor="middle" x="4778.55" y="-143.42" font-family="Times,serif" font-size="18.00">sequence:</text>
<text text-anchor="middle" x="4778.55" y="-123.42" font-family="Times,serif" font-size="18.00"> insert(left_hand, clampgripper, shaft1, gearbase_hole1)</text>
</g>
<!-- selector:
 insert(left_hand, clampgripper, shaft1, gearbase_hole1)&#45;&gt;sequence:
 insert(left_hand, clampgripper, shaft1, gearbase_hole1) -->
<g id="edge23" class="edge">
<title>selector:
 insert(left_hand, clampgripper, shaft1, gearbase_hole1)&#45;&gt;sequence:
 insert(left_hand, clampgripper, shaft1, gearbase_hole1)</title>
<path fill="none" stroke="black" d="M4216.07,-213.26C4336.22,-197.36 4481.55,-178.13 4594.38,-163.2"/>
<polygon fill="black" stroke="black" points="4595.05,-166.64 4604.51,-161.86 4594.14,-159.7 4595.05,-166.64"/>
</g>
<!-- &quot;precondition:\n hold(left_hand, clampgripper)&quot;** -->
<g id="node25" class="node">
<title>&quot;precondition:\n hold(left_hand, clampgripper)&quot;**</title>
<ellipse fill="#ffec8b" stroke="black" cx="4563.55" cy="-33.94" rx="225.63" ry="33.88"/>
<text text-anchor="middle" x="4563.55" y="-39.54" font-family="Times,serif" font-size="18.00">&quot;precondition:</text>
<text text-anchor="middle" x="4563.55" y="-19.54" font-family="Times,serif" font-size="18.00"> hold(left_hand, clampgripper)&quot;**</text>
</g>
<!-- sequence:
 insert(left_hand, clampgripper, shaft1, gearbase_hole1)&#45;&gt;&quot;precondition:\n hold(left_hand, clampgripper)&quot;** -->
<g id="edge24" class="edge">
<title>sequence:
 insert(left_hand, clampgripper, shaft1, gearbase_hole1)&#45;&gt;&quot;precondition:\n hold(left_hand, clampgripper)&quot;**</title>
<path fill="none" stroke="black" d="M4729.76,-113.7C4703.04,-101.04 4669.33,-85.07 4639.27,-70.82"/>
<polygon fill="black" stroke="black" points="4640.6,-67.58 4630.07,-66.46 4637.61,-73.91 4640.6,-67.58"/>
</g>
<!-- precondition:
 hold(clampgripper, shaft1) -->
<g id="node26" class="node">
<title>precondition:
 hold(clampgripper, shaft1)</title>
<ellipse fill="#ffec8b" stroke="black" cx="4993.55" cy="-33.94" rx="185.94" ry="33.88"/>
<text text-anchor="middle" x="4993.55" y="-39.54" font-family="Times,serif" font-size="18.00">precondition:</text>
<text text-anchor="middle" x="4993.55" y="-19.54" font-family="Times,serif" font-size="18.00"> hold(clampgripper, shaft1)</text>
</g>
<!-- sequence:
 insert(left_hand, clampgripper, shaft1, gearbase_hole1)&#45;&gt;precondition:
 hold(clampgripper, shaft1) -->
<g id="edge25" class="edge">
<title>sequence:
 insert(left_hand, clampgripper, shaft1, gearbase_hole1)&#45;&gt;precondition:
 hold(clampgripper, shaft1)</title>
<path fill="none" stroke="black" d="M4827.33,-113.7C4854.39,-100.88 4888.61,-84.67 4918.96,-70.29"/>
<polygon fill="black" stroke="black" points="4920.7,-73.33 4928.24,-65.89 4917.7,-67.01 4920.7,-73.33"/>
</g>
<!-- action:
 insert(left_hand, clampgripper, shaft1, gearbase_hole1) -->
<g id="node27" class="node">
<title>action:
 insert(left_hand, clampgripper, shaft1, gearbase_hole1)</title>
<ellipse fill="lightgreen" stroke="black" cx="5567.55" cy="-33.94" rx="370.55" ry="33.88"/>
<text text-anchor="middle" x="5567.55" y="-39.54" font-family="Times,serif" font-size="18.00">action:</text>
<text text-anchor="middle" x="5567.55" y="-19.54" font-family="Times,serif" font-size="18.00"> insert(left_hand, clampgripper, shaft1, gearbase_hole1)</text>
</g>
<!-- sequence:
 insert(left_hand, clampgripper, shaft1, gearbase_hole1)&#45;&gt;action:
 insert(left_hand, clampgripper, shaft1, gearbase_hole1) -->
<g id="edge26" class="edge">
<title>sequence:
 insert(left_hand, clampgripper, shaft1, gearbase_hole1)&#45;&gt;action:
 insert(left_hand, clampgripper, shaft1, gearbase_hole1)</title>
<path fill="none" stroke="black" d="M4957.09,-113.77C5073.05,-98.79 5225,-79.17 5348.28,-63.25"/>
<polygon fill="black" stroke="black" points="5348.77,-66.72 5358.23,-61.97 5347.87,-59.78 5348.77,-66.72"/>
</g>
</g>
</svg>
