<?xml version="1.0" encoding="UTF-8" standalone="no"?>
<!DOCTYPE svg PUBLIC "-//W3C//DTD SVG 1.1//EN"
 "http://www.w3.org/Graphics/SVG/1.1/DTD/svg11.dtd">
<!-- Generated by graphviz version 2.43.0 (0)
 -->
<!-- Title: pastafarianism Pages: 1 -->
<svg width="2951pt" height="503pt"
 viewBox="0.00 0.00 2950.75 502.60" xmlns="http://www.w3.org/2000/svg" xmlns:xlink="http://www.w3.org/1999/xlink">
<g id="graph0" class="graph" transform="scale(1 1) rotate(0) translate(4 498.6)">
<title>pastafarianism</title>
<polygon fill="white" stroke="transparent" points="-4,4 -4,-498.6 2946.75,-498.6 2946.75,4 -4,4"/>
<!-- selector:
 screw(lampbulb, lampbase, clampgripper, left_hand) -->
<g id="node1" class="node">
<title>selector:
 screw(lampbulb, lampbase, clampgripper, left_hand)</title>
<polygon fill="#8deeee" stroke="black" points="1614.05,-442.54 1614.05,-473.18 1389.77,-494.84 1072.59,-494.84 848.32,-473.18 848.32,-442.54 1072.59,-420.88 1389.77,-420.88 1614.05,-442.54"/>
<text text-anchor="middle" x="1231.18" y="-463.46" font-family="Times,serif" font-size="18.00">selector:</text>
<text text-anchor="middle" x="1231.18" y="-443.46" font-family="Times,serif" font-size="18.00"> screw(lampbulb, lampbase, clampgripper, left_hand)</text>
</g>
<!-- target:
 is_screwed_to(lampbulb, lampbase) -->
<g id="node2" class="node">
<title>target:
 is_screwed_to(lampbulb, lampbase)</title>
<ellipse fill="#ffec8b" stroke="black" cx="975.18" cy="-351.18" rx="243.9" ry="33.88"/>
<text text-anchor="middle" x="975.18" y="-356.78" font-family="Times,serif" font-size="18.00">target:</text>
<text text-anchor="middle" x="975.18" y="-336.78" font-family="Times,serif" font-size="18.00"> is_screwed_to(lampbulb, lampbase)</text>
</g>
<!-- selector:
 screw(lampbulb, lampbase, clampgripper, left_hand)&#45;&gt;target:
 is_screwed_to(lampbulb, lampbase) -->
<g id="edge1" class="edge">
<title>selector:
 screw(lampbulb, lampbase, clampgripper, left_hand)&#45;&gt;target:
 is_screwed_to(lampbulb, lampbase)</title>
<path fill="none" stroke="black" d="M1143.44,-420.98C1116.77,-410.08 1087.5,-398.11 1060.96,-387.26"/>
<polygon fill="black" stroke="black" points="1062.27,-384.01 1051.69,-383.47 1059.63,-390.49 1062.27,-384.01"/>
</g>
<!-- sequence:
 screw(lampbulb, lampbase, clampgripper, left_hand) -->
<g id="node3" class="node">
<title>sequence:
 screw(lampbulb, lampbase, clampgripper, left_hand)</title>
<polygon fill="#ff7f24" stroke="black" points="1737.18,-375.18 1237.18,-375.18 1237.18,-327.18 1737.18,-327.18 1737.18,-375.18"/>
<text text-anchor="middle" x="1487.18" y="-356.78" font-family="Times,serif" font-size="18.00">sequence:</text>
<text text-anchor="middle" x="1487.18" y="-336.78" font-family="Times,serif" font-size="18.00"> screw(lampbulb, lampbase, clampgripper, left_hand)</text>
</g>
<!-- selector:
 screw(lampbulb, lampbase, clampgripper, left_hand)&#45;&gt;sequence:
 screw(lampbulb, lampbase, clampgripper, left_hand) -->
<g id="edge2" class="edge">
<title>selector:
 screw(lampbulb, lampbase, clampgripper, left_hand)&#45;&gt;sequence:
 screw(lampbulb, lampbase, clampgripper, left_hand)</title>
<path fill="none" stroke="black" d="M1318.92,-420.98C1352.5,-407.25 1390.2,-391.84 1421.39,-379.09"/>
<polygon fill="black" stroke="black" points="1422.91,-382.24 1430.84,-375.22 1420.26,-375.76 1422.91,-382.24"/>
</g>
<!-- selector:
 change_tool(left_hand, defaultgripper, clampgripper) -->
<g id="node4" class="node">
<title>selector:
 change_tool(left_hand, defaultgripper, clampgripper)</title>
<polygon fill="#8deeee" stroke="black" points="1067.61,-229.19 1067.61,-259.82 842.42,-281.48 523.95,-281.48 298.75,-259.82 298.75,-229.19 523.95,-207.53 842.42,-207.53 1067.61,-229.19"/>
<text text-anchor="middle" x="683.18" y="-250.1" font-family="Times,serif" font-size="18.00">selector:</text>
<text text-anchor="middle" x="683.18" y="-230.1" font-family="Times,serif" font-size="18.00"> change_tool(left_hand, defaultgripper, clampgripper)</text>
</g>
<!-- sequence:
 screw(lampbulb, lampbase, clampgripper, left_hand)&#45;&gt;selector:
 change_tool(left_hand, defaultgripper, clampgripper) -->
<g id="edge3" class="edge">
<title>sequence:
 screw(lampbulb, lampbase, clampgripper, left_hand)&#45;&gt;selector:
 change_tool(left_hand, defaultgripper, clampgripper)</title>
<path fill="none" stroke="black" d="M1310.24,-327.14C1195.57,-312.21 1044.84,-292.59 919.9,-276.32"/>
<polygon fill="black" stroke="black" points="920.18,-272.83 909.81,-275.01 919.27,-279.77 920.18,-272.83"/>
</g>
<!-- selector:
 pick_up(left_hand, clampgripper, lampbulb) -->
<g id="node10" class="node">
<title>selector:
 pick_up(left_hand, clampgripper, lampbulb)</title>
<polygon fill="#8deeee" stroke="black" points="1807.03,-229.19 1807.03,-259.82 1619.67,-281.48 1354.7,-281.48 1167.34,-259.82 1167.34,-229.19 1354.7,-207.53 1619.67,-207.53 1807.03,-229.19"/>
<text text-anchor="middle" x="1487.18" y="-250.1" font-family="Times,serif" font-size="18.00">selector:</text>
<text text-anchor="middle" x="1487.18" y="-230.1" font-family="Times,serif" font-size="18.00"> pick_up(left_hand, clampgripper, lampbulb)</text>
</g>
<!-- sequence:
 screw(lampbulb, lampbase, clampgripper, left_hand)&#45;&gt;selector:
 pick_up(left_hand, clampgripper, lampbulb) -->
<g id="edge9" class="edge">
<title>sequence:
 screw(lampbulb, lampbase, clampgripper, left_hand)&#45;&gt;selector:
 pick_up(left_hand, clampgripper, lampbulb)</title>
<path fill="none" stroke="black" d="M1487.18,-326.95C1487.18,-316.5 1487.18,-303.79 1487.18,-291.54"/>
<polygon fill="black" stroke="black" points="1490.68,-291.42 1487.18,-281.42 1483.68,-291.42 1490.68,-291.42"/>
</g>
<!-- action:
 screw(left_hand, clampgripper, lampbulb, lampbase) -->
<g id="node16" class="node">
<title>action:
 screw(left_hand, clampgripper, lampbulb, lampbase)</title>
<ellipse fill="lightgreen" stroke="black" cx="2178.18" cy="-244.5" rx="353.61" ry="33.88"/>
<text text-anchor="middle" x="2178.18" y="-250.1" font-family="Times,serif" font-size="18.00">action:</text>
<text text-anchor="middle" x="2178.18" y="-230.1" font-family="Times,serif" font-size="18.00"> screw(left_hand, clampgripper, lampbulb, lampbase)</text>
</g>
<!-- sequence:
 screw(lampbulb, lampbase, clampgripper, left_hand)&#45;&gt;action:
 screw(left_hand, clampgripper, lampbulb, lampbase) -->
<g id="edge15" class="edge">
<title>sequence:
 screw(lampbulb, lampbase, clampgripper, left_hand)&#45;&gt;action:
 screw(left_hand, clampgripper, lampbulb, lampbase)</title>
<path fill="none" stroke="black" d="M1639.25,-327.14C1740.5,-311.81 1874.44,-291.52 1983.47,-275"/>
<polygon fill="black" stroke="black" points="1984.24,-278.42 1993.6,-273.46 1983.19,-271.5 1984.24,-278.42"/>
</g>
<!-- target:
 hold(left_hand, clampgripper) -->
<g id="node5" class="node">
<title>target:
 hold(left_hand, clampgripper)</title>
<ellipse fill="#ffec8b" stroke="black" cx="207.18" cy="-137.82" rx="207.36" ry="33.88"/>
<text text-anchor="middle" x="207.18" y="-143.42" font-family="Times,serif" font-size="18.00">target:</text>
<text text-anchor="middle" x="207.18" y="-123.42" font-family="Times,serif" font-size="18.00"> hold(left_hand, clampgripper)</text>
</g>
<!-- selector:
 change_tool(left_hand, defaultgripper, clampgripper)&#45;&gt;target:
 hold(left_hand, clampgripper) -->
<g id="edge4" class="edge">
<title>selector:
 change_tool(left_hand, defaultgripper, clampgripper)&#45;&gt;target:
 hold(left_hand, clampgripper)</title>
<path fill="none" stroke="black" d="M520.7,-207.77C461.25,-194.7 394.78,-180.08 338.4,-167.68"/>
<polygon fill="black" stroke="black" points="338.88,-164.2 328.36,-165.47 337.38,-171.04 338.88,-164.2"/>
</g>
<!-- sequence:
 change_tool(left_hand, defaultgripper, clampgripper) -->
<g id="node6" class="node">
<title>sequence:
 change_tool(left_hand, defaultgripper, clampgripper)</title>
<polygon fill="#ff7f24" stroke="black" points="934.18,-161.82 432.18,-161.82 432.18,-113.82 934.18,-113.82 934.18,-161.82"/>
<text text-anchor="middle" x="683.18" y="-143.42" font-family="Times,serif" font-size="18.00">sequence:</text>
<text text-anchor="middle" x="683.18" y="-123.42" font-family="Times,serif" font-size="18.00"> change_tool(left_hand, defaultgripper, clampgripper)</text>
</g>
<!-- selector:
 change_tool(left_hand, defaultgripper, clampgripper)&#45;&gt;sequence:
 change_tool(left_hand, defaultgripper, clampgripper) -->
<g id="edge5" class="edge">
<title>selector:
 change_tool(left_hand, defaultgripper, clampgripper)&#45;&gt;sequence:
 change_tool(left_hand, defaultgripper, clampgripper)</title>
<path fill="none" stroke="black" d="M683.18,-207.48C683.18,-196.09 683.18,-183.57 683.18,-172.36"/>
<polygon fill="black" stroke="black" points="686.68,-172.11 683.18,-162.11 679.68,-172.11 686.68,-172.11"/>
</g>
<!-- precondition:
 hold(left_hand, defaultgripper) -->
<g id="node7" class="node">
<title>precondition:
 hold(left_hand, defaultgripper)</title>
<ellipse fill="#ffec8b" stroke="black" cx="235.18" cy="-33.94" rx="213.59" ry="33.88"/>
<text text-anchor="middle" x="235.18" y="-39.54" font-family="Times,serif" font-size="18.00">precondition:</text>
<text text-anchor="middle" x="235.18" y="-19.54" font-family="Times,serif" font-size="18.00"> hold(left_hand, defaultgripper)</text>
</g>
<!-- sequence:
 change_tool(left_hand, defaultgripper, clampgripper)&#45;&gt;precondition:
 hold(left_hand, defaultgripper) -->
<g id="edge6" class="edge">
<title>sequence:
 change_tool(left_hand, defaultgripper, clampgripper)&#45;&gt;precondition:
 hold(left_hand, defaultgripper)</title>
<path fill="none" stroke="black" d="M581.8,-113.77C517.59,-99.17 433.95,-80.14 364.92,-64.45"/>
<polygon fill="black" stroke="black" points="365.37,-60.96 354.84,-62.15 363.82,-67.78 365.37,-60.96"/>
</g>
<!-- precondition:
 is_empty(defaultgripper) -->
<g id="node8" class="node">
<title>precondition:
 is_empty(defaultgripper)</title>
<ellipse fill="#ffec8b" stroke="black" cx="642.18" cy="-33.94" rx="175.23" ry="33.88"/>
<text text-anchor="middle" x="642.18" y="-39.54" font-family="Times,serif" font-size="18.00">precondition:</text>
<text text-anchor="middle" x="642.18" y="-19.54" font-family="Times,serif" font-size="18.00"> is_empty(defaultgripper)</text>
</g>
<!-- sequence:
 change_tool(left_hand, defaultgripper, clampgripper)&#45;&gt;precondition:
 is_empty(defaultgripper) -->
<g id="edge7" class="edge">
<title>sequence:
 change_tool(left_hand, defaultgripper, clampgripper)&#45;&gt;precondition:
 is_empty(defaultgripper)</title>
<path fill="none" stroke="black" d="M673.88,-113.7C669.55,-102.94 664.26,-89.79 659.25,-77.35"/>
<polygon fill="black" stroke="black" points="662.47,-75.98 655.49,-68.01 655.98,-78.6 662.47,-75.98"/>
</g>
<!-- action:
 change_tool(left_hand, defaultgripper, clampgripper) -->
<g id="node9" class="node">
<title>action:
 change_tool(left_hand, defaultgripper, clampgripper)</title>
<ellipse fill="lightgreen" stroke="black" cx="1190.18" cy="-33.94" rx="354.94" ry="33.88"/>
<text text-anchor="middle" x="1190.18" y="-39.54" font-family="Times,serif" font-size="18.00">action:</text>
<text text-anchor="middle" x="1190.18" y="-19.54" font-family="Times,serif" font-size="18.00"> change_tool(left_hand, defaultgripper, clampgripper)</text>
</g>
<!-- sequence:
 change_tool(left_hand, defaultgripper, clampgripper)&#45;&gt;action:
 change_tool(left_hand, defaultgripper, clampgripper) -->
<g id="edge8" class="edge">
<title>sequence:
 change_tool(left_hand, defaultgripper, clampgripper)&#45;&gt;action:
 change_tool(left_hand, defaultgripper, clampgripper)</title>
<path fill="none" stroke="black" d="M797.91,-113.77C866.96,-99.89 955.87,-82.03 1031.58,-66.81"/>
<polygon fill="black" stroke="black" points="1032.58,-70.18 1041.69,-64.78 1031.2,-63.32 1032.58,-70.18"/>
</g>
<!-- target:
 hold(clampgripper, lampbulb) -->
<g id="node11" class="node">
<title>target:
 hold(clampgripper, lampbulb)</title>
<ellipse fill="#ffec8b" stroke="black" cx="1487.18" cy="-137.82" rx="205.54" ry="33.88"/>
<text text-anchor="middle" x="1487.18" y="-143.42" font-family="Times,serif" font-size="18.00">target:</text>
<text text-anchor="middle" x="1487.18" y="-123.42" font-family="Times,serif" font-size="18.00"> hold(clampgripper, lampbulb)</text>
</g>
<!-- selector:
 pick_up(left_hand, clampgripper, lampbulb)&#45;&gt;target:
 hold(clampgripper, lampbulb) -->
<g id="edge10" class="edge">
<title>selector:
 pick_up(left_hand, clampgripper, lampbulb)&#45;&gt;target:
 hold(clampgripper, lampbulb)</title>
<path fill="none" stroke="black" d="M1487.18,-207.48C1487.18,-199.32 1487.18,-190.58 1487.18,-182.15"/>
<polygon fill="black" stroke="black" points="1490.68,-182.1 1487.18,-172.1 1483.68,-182.1 1490.68,-182.1"/>
</g>
<!-- sequence:
 pick_up(left_hand, clampgripper, lampbulb) -->
<g id="node12" class="node">
<title>sequence:
 pick_up(left_hand, clampgripper, lampbulb)</title>
<polygon fill="#ff7f24" stroke="black" points="2293.18,-161.82 1875.18,-161.82 1875.18,-113.82 2293.18,-113.82 2293.18,-161.82"/>
<text text-anchor="middle" x="2084.18" y="-143.42" font-family="Times,serif" font-size="18.00">sequence:</text>
<text text-anchor="middle" x="2084.18" y="-123.42" font-family="Times,serif" font-size="18.00"> pick_up(left_hand, clampgripper, lampbulb)</text>
</g>
<!-- selector:
 pick_up(left_hand, clampgripper, lampbulb)&#45;&gt;sequence:
 pick_up(left_hand, clampgripper, lampbulb) -->
<g id="edge11" class="edge">
<title>selector:
 pick_up(left_hand, clampgripper, lampbulb)&#45;&gt;sequence:
 pick_up(left_hand, clampgripper, lampbulb)</title>
<path fill="none" stroke="black" d="M1663.88,-212.52C1752.92,-196.91 1859.42,-178.23 1942.93,-163.59"/>
<polygon fill="black" stroke="black" points="1943.75,-167 1953,-161.83 1942.54,-160.11 1943.75,-167"/>
</g>
<!-- precondition:
 is_empty(clampgripper) -->
<g id="node13" class="node">
<title>precondition:
 is_empty(clampgripper)</title>
<ellipse fill="#ffec8b" stroke="black" cx="1732.18" cy="-33.94" rx="169" ry="33.88"/>
<text text-anchor="middle" x="1732.18" y="-39.54" font-family="Times,serif" font-size="18.00">precondition:</text>
<text text-anchor="middle" x="1732.18" y="-19.54" font-family="Times,serif" font-size="18.00"> is_empty(clampgripper)</text>
</g>
<!-- sequence:
 pick_up(left_hand, clampgripper, lampbulb)&#45;&gt;precondition:
 is_empty(clampgripper) -->
<g id="edge12" class="edge">
<title>sequence:
 pick_up(left_hand, clampgripper, lampbulb)&#45;&gt;precondition:
 is_empty(clampgripper)</title>
<path fill="none" stroke="black" d="M2004.31,-113.7C1954.56,-99.31 1890.04,-80.63 1836.31,-65.08"/>
<polygon fill="black" stroke="black" points="1836.99,-61.63 1826.41,-62.21 1835.04,-68.36 1836.99,-61.63"/>
</g>
<!-- precondition:
 hold(left_hand, clampgripper) -->
<g id="node14" class="node">
<title>precondition:
 hold(left_hand, clampgripper)</title>
<ellipse fill="#ffec8b" stroke="black" cx="2126.18" cy="-33.94" rx="207.36" ry="33.88"/>
<text text-anchor="middle" x="2126.18" y="-39.54" font-family="Times,serif" font-size="18.00">precondition:</text>
<text text-anchor="middle" x="2126.18" y="-19.54" font-family="Times,serif" font-size="18.00"> hold(left_hand, clampgripper)</text>
</g>
<!-- sequence:
 pick_up(left_hand, clampgripper, lampbulb)&#45;&gt;precondition:
 hold(left_hand, clampgripper) -->
<g id="edge13" class="edge">
<title>sequence:
 pick_up(left_hand, clampgripper, lampbulb)&#45;&gt;precondition:
 hold(left_hand, clampgripper)</title>
<path fill="none" stroke="black" d="M2093.71,-113.7C2098.15,-102.94 2103.57,-89.79 2108.7,-77.35"/>
<polygon fill="black" stroke="black" points="2111.97,-78.59 2112.55,-68.01 2105.5,-75.92 2111.97,-78.59"/>
</g>
<!-- action:
 pick_up(left_hand, clampgripper, lampbulb) -->
<g id="node15" class="node">
<title>action:
 pick_up(left_hand, clampgripper, lampbulb)</title>
<ellipse fill="lightgreen" stroke="black" cx="2647.18" cy="-33.94" rx="295.64" ry="33.88"/>
<text text-anchor="middle" x="2647.18" y="-39.54" font-family="Times,serif" font-size="18.00">action:</text>
<text text-anchor="middle" x="2647.18" y="-19.54" font-family="Times,serif" font-size="18.00"> pick_up(left_hand, clampgripper, lampbulb)</text>
</g>
<!-- sequence:
 pick_up(left_hand, clampgripper, lampbulb)&#45;&gt;action:
 pick_up(left_hand, clampgripper, lampbulb) -->
<g id="edge14" class="edge">
<title>sequence:
 pick_up(left_hand, clampgripper, lampbulb)&#45;&gt;action:
 pick_up(left_hand, clampgripper, lampbulb)</title>
<path fill="none" stroke="black" d="M2211.58,-113.77C2291.85,-99.24 2396.29,-80.34 2482.78,-64.69"/>
<polygon fill="black" stroke="black" points="2483.48,-68.12 2492.7,-62.9 2482.23,-61.23 2483.48,-68.12"/>
</g>
</g>
</svg>
