<?xml version="1.0" encoding="UTF-8" standalone="no"?>
<!DOCTYPE svg PUBLIC "-//W3C//DTD SVG 1.1//EN"
 "http://www.w3.org/Graphics/SVG/1.1/DTD/svg11.dtd">
<!-- Generated by graphviz version 2.43.0 (0)
 -->
<!-- Title: pastafarianism Pages: 1 -->
<svg width="1036pt" height="332pt"
 viewBox="0.00 0.00 1036.05 332.00" xmlns="http://www.w3.org/2000/svg" xmlns:xlink="http://www.w3.org/1999/xlink">
<g id="graph0" class="graph" transform="scale(1 1) rotate(0) translate(4 328)">
<title>pastafarianism</title>
<polygon fill="white" stroke="transparent" points="-4,4 -4,-328 1032.05,-328 1032.05,4 -4,4"/>
<!-- insert gear3 into shaft2 selector -->
<g id="node1" class="node">
<title>insert gear3 into shaft2 selector</title>
<polygon fill="cyan" stroke="black" points="569.7,-298.54 569.7,-313.46 508.79,-324 422.66,-324 361.75,-313.46 361.75,-298.54 422.66,-288 508.79,-288 569.7,-298.54"/>
<text text-anchor="middle" x="465.73" y="-303.8" font-family="Times,serif" font-size="9.00">insert gear3 into shaft2 selector</text>
</g>
<!-- check gear3 is_inserted_to shaft2 -->
<g id="node2" class="node">
<title>check gear3 is_inserted_to shaft2</title>
<ellipse fill="gray" stroke="black" cx="363.73" cy="-234" rx="99.11" ry="18"/>
<text text-anchor="middle" x="363.73" y="-231.8" font-family="Times,serif" font-size="9.00">check gear3 is_inserted_to shaft2</text>
</g>
<!-- insert gear3 into shaft2 selector&#45;&gt;check gear3 is_inserted_to shaft2 -->
<g id="edge1" class="edge">
<title>insert gear3 into shaft2 selector&#45;&gt;check gear3 is_inserted_to shaft2</title>
<path fill="none" stroke="black" d="M440.77,-287.88C427.49,-278.76 410.98,-267.43 396.66,-257.6"/>
<polygon fill="black" stroke="black" points="398.29,-254.48 388.07,-251.71 394.33,-260.25 398.29,-254.48"/>
</g>
<!-- insert gear3 into shaft2 sequence -->
<g id="node3" class="node">
<title>insert gear3 into shaft2 sequence</title>
<polygon fill="orange" stroke="black" points="654.23,-252 481.23,-252 481.23,-216 654.23,-216 654.23,-252"/>
<text text-anchor="middle" x="567.73" y="-231.8" font-family="Times,serif" font-size="9.00">insert gear3 into shaft2 sequence</text>
</g>
<!-- insert gear3 into shaft2 selector&#45;&gt;insert gear3 into shaft2 sequence -->
<g id="edge2" class="edge">
<title>insert gear3 into shaft2 selector&#45;&gt;insert gear3 into shaft2 sequence</title>
<path fill="none" stroke="black" d="M490.68,-287.88C503.77,-278.89 519.99,-267.76 534.16,-258.03"/>
<polygon fill="black" stroke="black" points="536.41,-260.73 542.68,-252.19 532.45,-254.96 536.41,-260.73"/>
</g>
<!-- load_tool selector -->
<g id="node4" class="node">
<title>load_tool selector</title>
<polygon fill="cyan" stroke="black" points="359.21,-154.54 359.21,-169.46 323.19,-180 272.26,-180 236.24,-169.46 236.24,-154.54 272.26,-144 323.19,-144 359.21,-154.54"/>
<text text-anchor="middle" x="297.73" y="-159.8" font-family="Times,serif" font-size="9.00">load_tool selector</text>
</g>
<!-- insert gear3 into shaft2 sequence&#45;&gt;load_tool selector -->
<g id="edge3" class="edge">
<title>insert gear3 into shaft2 sequence&#45;&gt;load_tool selector</title>
<path fill="none" stroke="black" d="M502.02,-215.97C455.97,-204.03 395.16,-188.26 351.89,-177.04"/>
<polygon fill="black" stroke="black" points="352.67,-173.63 342.11,-174.51 350.91,-180.4 352.67,-173.63"/>
</g>
<!-- pickup selector -->
<g id="node10" class="node">
<title>pickup selector</title>
<polygon fill="cyan" stroke="black" points="537.71,-154.54 537.71,-169.46 505.5,-180 459.95,-180 427.74,-169.46 427.74,-154.54 459.95,-144 505.5,-144 537.71,-154.54"/>
<text text-anchor="middle" x="482.73" y="-159.8" font-family="Times,serif" font-size="9.00">pickup selector</text>
</g>
<!-- insert gear3 into shaft2 sequence&#45;&gt;pickup selector -->
<g id="edge9" class="edge">
<title>insert gear3 into shaft2 sequence&#45;&gt;pickup selector</title>
<path fill="none" stroke="black" d="M546.72,-215.7C536.01,-206.88 522.84,-196.03 511.23,-186.47"/>
<polygon fill="black" stroke="black" points="513.44,-183.76 503.5,-180.1 508.99,-189.16 513.44,-183.76"/>
</g>
<!-- check gear3 can_insert_to shaft2 -->
<g id="node15" class="node">
<title>check gear3 can_insert_to shaft2</title>
<ellipse fill="gray" stroke="black" cx="653.73" cy="-162" rx="98.3" ry="18"/>
<text text-anchor="middle" x="653.73" y="-159.8" font-family="Times,serif" font-size="9.00">check gear3 can_insert_to shaft2</text>
</g>
<!-- insert gear3 into shaft2 sequence&#45;&gt;check gear3 can_insert_to shaft2 -->
<g id="edge14" class="edge">
<title>insert gear3 into shaft2 sequence&#45;&gt;check gear3 can_insert_to shaft2</title>
<path fill="none" stroke="black" d="M588.99,-215.7C599.98,-206.75 613.54,-195.71 625.41,-186.05"/>
<polygon fill="black" stroke="black" points="627.76,-188.65 633.31,-179.62 623.34,-183.22 627.76,-188.65"/>
</g>
<!-- insert(left_hand, inward_claw, gear3, shaft2) -->
<g id="node16" class="node">
<title>insert(left_hand, inward_claw, gear3, shaft2)</title>
<ellipse fill="gray" stroke="black" cx="898.73" cy="-162" rx="129.15" ry="18"/>
<text text-anchor="middle" x="898.73" y="-159.8" font-family="Times,serif" font-size="9.00">insert(left_hand, inward_claw, gear3, shaft2)</text>
</g>
<!-- insert gear3 into shaft2 sequence&#45;&gt;insert(left_hand, inward_claw, gear3, shaft2) -->
<g id="edge15" class="edge">
<title>insert gear3 into shaft2 sequence&#45;&gt;insert(left_hand, inward_claw, gear3, shaft2)</title>
<path fill="none" stroke="black" d="M648.28,-215.97C700.77,-204.86 768.91,-190.45 820.86,-179.47"/>
<polygon fill="black" stroke="black" points="821.63,-182.88 830.69,-177.39 820.18,-176.03 821.63,-182.88"/>
</g>
<!-- check left_hand hold inward_claw -->
<g id="node5" class="node">
<title>check left_hand hold inward_claw</title>
<ellipse fill="gray" stroke="black" cx="127.73" cy="-90" rx="99.76" ry="18"/>
<text text-anchor="middle" x="127.73" y="-87.8" font-family="Times,serif" font-size="9.00">check left_hand hold inward_claw</text>
</g>
<!-- load_tool selector&#45;&gt;check left_hand hold inward_claw -->
<g id="edge4" class="edge">
<title>load_tool selector&#45;&gt;check left_hand hold inward_claw</title>
<path fill="none" stroke="black" d="M262.91,-146.67C237.63,-136.25 203.11,-122.04 175.28,-110.58"/>
<polygon fill="black" stroke="black" points="176.32,-107.23 165.75,-106.65 173.66,-113.7 176.32,-107.23"/>
</g>
<!-- load_tool sequence -->
<g id="node6" class="node">
<title>load_tool sequence</title>
<polygon fill="orange" stroke="black" points="349.73,-108 245.73,-108 245.73,-72 349.73,-72 349.73,-108"/>
<text text-anchor="middle" x="297.73" y="-87.8" font-family="Times,serif" font-size="9.00">load_tool sequence</text>
</g>
<!-- load_tool selector&#45;&gt;load_tool sequence -->
<g id="edge5" class="edge">
<title>load_tool selector&#45;&gt;load_tool sequence</title>
<path fill="none" stroke="black" d="M297.73,-143.7C297.73,-135.98 297.73,-126.71 297.73,-118.11"/>
<polygon fill="black" stroke="black" points="301.23,-118.1 297.73,-108.1 294.23,-118.1 301.23,-118.1"/>
</g>
<!-- check inward_claw is_equippable -->
<g id="node7" class="node">
<title>check inward_claw is_equippable</title>
<ellipse fill="gray" stroke="black" cx="98.73" cy="-18" rx="98.95" ry="18"/>
<text text-anchor="middle" x="98.73" y="-15.8" font-family="Times,serif" font-size="9.00">check inward_claw is_equippable</text>
</g>
<!-- load_tool sequence&#45;&gt;check inward_claw is_equippable -->
<g id="edge6" class="edge">
<title>load_tool sequence&#45;&gt;check inward_claw is_equippable</title>
<path fill="none" stroke="black" d="M249.3,-71.97C219.71,-61.56 181.86,-48.24 151.51,-37.57"/>
<polygon fill="black" stroke="black" points="152.53,-34.22 141.94,-34.2 150.21,-40.82 152.53,-34.22"/>
</g>
<!-- check left_hand is_free -->
<g id="node8" class="node">
<title>check left_hand is_free</title>
<ellipse fill="gray" stroke="black" cx="285.73" cy="-18" rx="70.37" ry="18"/>
<text text-anchor="middle" x="285.73" y="-15.8" font-family="Times,serif" font-size="9.00">check left_hand is_free</text>
</g>
<!-- load_tool sequence&#45;&gt;check left_hand is_free -->
<g id="edge7" class="edge">
<title>load_tool sequence&#45;&gt;check left_hand is_free</title>
<path fill="none" stroke="black" d="M294.76,-71.7C293.44,-63.98 291.85,-54.71 290.37,-46.11"/>
<polygon fill="black" stroke="black" points="293.8,-45.37 288.66,-36.1 286.9,-46.55 293.8,-45.37"/>
</g>
<!-- load_tool(left_hand, inward_claw) -->
<g id="node9" class="node">
<title>load_tool(left_hand, inward_claw)</title>
<ellipse fill="gray" stroke="black" cx="473.73" cy="-18" rx="99.11" ry="18"/>
<text text-anchor="middle" x="473.73" y="-15.8" font-family="Times,serif" font-size="9.00">load_tool(left_hand, inward_claw)</text>
</g>
<!-- load_tool sequence&#45;&gt;load_tool(left_hand, inward_claw) -->
<g id="edge8" class="edge">
<title>load_tool sequence&#45;&gt;load_tool(left_hand, inward_claw)</title>
<path fill="none" stroke="black" d="M340.78,-71.88C366.25,-61.75 398.58,-48.89 424.99,-38.38"/>
<polygon fill="black" stroke="black" points="426.42,-41.58 434.42,-34.63 423.84,-35.08 426.42,-41.58"/>
</g>
<!-- check inward_claw hold gear3 -->
<g id="node11" class="node">
<title>check inward_claw hold gear3</title>
<ellipse fill="gray" stroke="black" cx="482.73" cy="-90" rx="91.44" ry="18"/>
<text text-anchor="middle" x="482.73" y="-87.8" font-family="Times,serif" font-size="9.00">check inward_claw hold gear3</text>
</g>
<!-- pickup selector&#45;&gt;check inward_claw hold gear3 -->
<g id="edge10" class="edge">
<title>pickup selector&#45;&gt;check inward_claw hold gear3</title>
<path fill="none" stroke="black" d="M482.73,-143.7C482.73,-135.98 482.73,-126.71 482.73,-118.11"/>
<polygon fill="black" stroke="black" points="486.23,-118.1 482.73,-108.1 479.23,-118.1 486.23,-118.1"/>
</g>
<!-- pickup sequence -->
<g id="node12" class="node">
<title>pickup sequence</title>
<polygon fill="orange" stroke="black" points="700.23,-108 605.23,-108 605.23,-72 700.23,-72 700.23,-108"/>
<text text-anchor="middle" x="652.73" y="-87.8" font-family="Times,serif" font-size="9.00">pickup sequence</text>
</g>
<!-- pickup selector&#45;&gt;pickup sequence -->
<g id="edge11" class="edge">
<title>pickup selector&#45;&gt;pickup sequence</title>
<path fill="none" stroke="black" d="M515.91,-147.34C540.28,-137.3 573.85,-123.48 601.64,-112.04"/>
<polygon fill="black" stroke="black" points="603.29,-115.14 611.2,-108.1 600.62,-108.67 603.29,-115.14"/>
</g>
<!-- check gear3 is_free -->
<g id="node13" class="node">
<title>check gear3 is_free</title>
<ellipse fill="gray" stroke="black" cx="652.73" cy="-18" rx="61.55" ry="18"/>
<text text-anchor="middle" x="652.73" y="-15.8" font-family="Times,serif" font-size="9.00">check gear3 is_free</text>
</g>
<!-- pickup sequence&#45;&gt;check gear3 is_free -->
<g id="edge12" class="edge">
<title>pickup sequence&#45;&gt;check gear3 is_free</title>
<path fill="none" stroke="black" d="M652.73,-71.7C652.73,-63.98 652.73,-54.71 652.73,-46.11"/>
<polygon fill="black" stroke="black" points="656.23,-46.1 652.73,-36.1 649.23,-46.1 656.23,-46.1"/>
</g>
<!-- pickup(left_hand, gear3, inward_claw) -->
<g id="node14" class="node">
<title>pickup(left_hand, gear3, inward_claw)</title>
<ellipse fill="gray" stroke="black" cx="844.73" cy="-18" rx="112.67" ry="18"/>
<text text-anchor="middle" x="844.73" y="-15.8" font-family="Times,serif" font-size="9.00">pickup(left_hand, gear3, inward_claw)</text>
</g>
<!-- pickup sequence&#45;&gt;pickup(left_hand, gear3, inward_claw) -->
<g id="edge13" class="edge">
<title>pickup sequence&#45;&gt;pickup(left_hand, gear3, inward_claw)</title>
<path fill="none" stroke="black" d="M699.7,-71.88C727.62,-61.69 763.12,-48.75 792,-38.22"/>
<polygon fill="black" stroke="black" points="793.33,-41.46 801.53,-34.75 790.93,-34.89 793.33,-41.46"/>
</g>
</g>
</svg>
