<?xml version="1.0" encoding="UTF-8" standalone="no"?>
<!DOCTYPE svg PUBLIC "-//W3C//DTD SVG 1.1//EN"
 "http://www.w3.org/Graphics/SVG/1.1/DTD/svg11.dtd">
<!-- Generated by graphviz version 2.43.0 (0)
 -->
<!-- Title: pastafarianism Pages: 1 -->
<svg width="2182pt" height="188pt"
 viewBox="0.00 0.00 2182.28 188.00" xmlns="http://www.w3.org/2000/svg" xmlns:xlink="http://www.w3.org/1999/xlink">
<g id="graph0" class="graph" transform="scale(1 1) rotate(0) translate(4 184)">
<title>pastafarianism</title>
<polygon fill="white" stroke="transparent" points="-4,4 -4,-184 2178.28,-184 2178.28,4 -4,4"/>
<!-- selector -->
<g id="node1" class="node">
<title>selector</title>
<polygon fill="cyan" stroke="black" points="382.68,-154.54 382.68,-169.46 270.53,-180 111.92,-180 -0.23,-169.46 -0.23,-154.54 111.92,-144 270.53,-144 382.68,-154.54"/>
<text text-anchor="middle" x="191.23" y="-159.8" font-family="Times,serif" font-size="9.00">selector: change_tool(left_hand, defaultgripper, clampgripper)</text>
</g>
<!-- target -->
<g id="node2" class="node">
<title>target</title>
<ellipse fill="gray" stroke="black" cx="510.23" cy="-162" rx="110.05" ry="18"/>
<text text-anchor="middle" x="510.23" y="-159.8" font-family="Times,serif" font-size="9.00">target: hold(left_hand, clampgripper)</text>
</g>
<!-- selector: change_tool(left_hand, defaultgripper, clampgripper) -->
<g id="node3" class="node">
<title>selector: change_tool(left_hand, defaultgripper, clampgripper)</title>
<ellipse fill="none" stroke="black" cx="937.23" cy="-162" rx="298.95" ry="18"/>
<text text-anchor="middle" x="937.23" y="-158.3" font-family="Times,serif" font-size="14.00">selector: change_tool(left_hand, defaultgripper, clampgripper)</text>
</g>
<!-- target: hold(left_hand, clampgripper) -->
<g id="node4" class="node">
<title>target: hold(left_hand, clampgripper)</title>
<ellipse fill="none" stroke="black" cx="684.23" cy="-90" rx="183.07" ry="18"/>
<text text-anchor="middle" x="684.23" y="-86.3" font-family="Times,serif" font-size="14.00">target: hold(left_hand, clampgripper)</text>
</g>
<!-- selector: change_tool(left_hand, defaultgripper, clampgripper)&#45;&gt;target: hold(left_hand, clampgripper) -->
<g id="edge1" class="edge">
<title>selector: change_tool(left_hand, defaultgripper, clampgripper)&#45;&gt;target: hold(left_hand, clampgripper)</title>
<path fill="none" stroke="black" d="M876.95,-144.32C839.49,-133.96 791.24,-120.61 752.4,-109.86"/>
<polygon fill="black" stroke="black" points="753.31,-106.48 742.73,-107.19 751.44,-113.23 753.31,-106.48"/>
</g>
<!-- sequence: change_tool(left_hand, defaultgripper, clampgripper) -->
<g id="node6" class="node">
<title>sequence: change_tool(left_hand, defaultgripper, clampgripper)</title>
<ellipse fill="none" stroke="black" cx="1191.23" cy="-90" rx="305.45" ry="18"/>
<text text-anchor="middle" x="1191.23" y="-86.3" font-family="Times,serif" font-size="14.00">sequence: change_tool(left_hand, defaultgripper, clampgripper)</text>
</g>
<!-- selector: change_tool(left_hand, defaultgripper, clampgripper)&#45;&gt;sequence: change_tool(left_hand, defaultgripper, clampgripper) -->
<g id="edge2" class="edge">
<title>selector: change_tool(left_hand, defaultgripper, clampgripper)&#45;&gt;sequence: change_tool(left_hand, defaultgripper, clampgripper)</title>
<path fill="none" stroke="black" d="M997.74,-144.32C1034.65,-134.15 1081.99,-121.1 1120.6,-110.46"/>
<polygon fill="black" stroke="black" points="1122.02,-113.7 1130.73,-107.67 1120.16,-106.95 1122.02,-113.7"/>
</g>
<!-- sequence -->
<g id="node5" class="node">
<title>sequence</title>
<polygon fill="orange" stroke="black" points="1566.73,-180 1253.73,-180 1253.73,-144 1566.73,-144 1566.73,-180"/>
<text text-anchor="middle" x="1410.23" y="-159.8" font-family="Times,serif" font-size="9.00">sequence: change_tool(left_hand, defaultgripper, clampgripper)</text>
</g>
<!-- precondition: hold(left_hand, defaultgripper) -->
<g id="node8" class="node">
<title>precondition: hold(left_hand, defaultgripper)</title>
<ellipse fill="none" stroke="black" cx="765.23" cy="-18" rx="217.96" ry="18"/>
<text text-anchor="middle" x="765.23" y="-14.3" font-family="Times,serif" font-size="14.00">precondition: hold(left_hand, defaultgripper)</text>
</g>
<!-- sequence: change_tool(left_hand, defaultgripper, clampgripper)&#45;&gt;precondition: hold(left_hand, defaultgripper) -->
<g id="edge3" class="edge">
<title>sequence: change_tool(left_hand, defaultgripper, clampgripper)&#45;&gt;precondition: hold(left_hand, defaultgripper)</title>
<path fill="none" stroke="black" d="M1093.49,-72.94C1026.18,-61.88 936.89,-47.21 868.43,-35.96"/>
<polygon fill="black" stroke="black" points="868.92,-32.49 858.48,-34.32 867.78,-39.4 868.92,-32.49"/>
</g>
<!-- precondition: is_empty(defaultgripper) -->
<g id="node9" class="node">
<title>precondition: is_empty(defaultgripper)</title>
<ellipse fill="none" stroke="black" cx="1191.23" cy="-18" rx="190.37" ry="18"/>
<text text-anchor="middle" x="1191.23" y="-14.3" font-family="Times,serif" font-size="14.00">precondition: is_empty(defaultgripper)</text>
</g>
<!-- sequence: change_tool(left_hand, defaultgripper, clampgripper)&#45;&gt;precondition: is_empty(defaultgripper) -->
<g id="edge4" class="edge">
<title>sequence: change_tool(left_hand, defaultgripper, clampgripper)&#45;&gt;precondition: is_empty(defaultgripper)</title>
<path fill="none" stroke="black" d="M1191.23,-71.7C1191.23,-63.98 1191.23,-54.71 1191.23,-46.11"/>
<polygon fill="black" stroke="black" points="1194.73,-46.1 1191.23,-36.1 1187.73,-46.1 1194.73,-46.1"/>
</g>
<!-- action: change_tool(left_hand, defaultgripper, clampgripper) -->
<g id="node11" class="node">
<title>action: change_tool(left_hand, defaultgripper, clampgripper)</title>
<ellipse fill="none" stroke="black" cx="1689.23" cy="-18" rx="289.75" ry="18"/>
<text text-anchor="middle" x="1689.23" y="-14.3" font-family="Times,serif" font-size="14.00">action: change_tool(left_hand, defaultgripper, clampgripper)</text>
</g>
<!-- sequence: change_tool(left_hand, defaultgripper, clampgripper)&#45;&gt;action: change_tool(left_hand, defaultgripper, clampgripper) -->
<g id="edge5" class="edge">
<title>sequence: change_tool(left_hand, defaultgripper, clampgripper)&#45;&gt;action: change_tool(left_hand, defaultgripper, clampgripper)</title>
<path fill="none" stroke="black" d="M1303.3,-73.25C1381.96,-62.19 1487.09,-47.41 1567.76,-36.07"/>
<polygon fill="black" stroke="black" points="1568.56,-39.5 1577.97,-34.64 1567.58,-32.56 1568.56,-39.5"/>
</g>
<!-- precondition -->
<g id="node7" class="node">
<title>precondition</title>
<ellipse fill="gray" stroke="black" cx="1698.23" cy="-162" rx="113.98" ry="18"/>
<text text-anchor="middle" x="1698.23" y="-159.8" font-family="Times,serif" font-size="9.00">precondition: is_empty(defaultgripper)</text>
</g>
<!-- action -->
<g id="node10" class="node">
<title>action</title>
<ellipse fill="gray" stroke="black" cx="2002.23" cy="-162" rx="172.1" ry="18"/>
<text text-anchor="middle" x="2002.23" y="-159.8" font-family="Times,serif" font-size="9.00">action: change_tool(left_hand, defaultgripper, clampgripper)</text>
</g>
</g>
</svg>
