<?xml version="1.0" encoding="UTF-8" standalone="no"?>
<!DOCTYPE svg PUBLIC "-//W3C//DTD SVG 1.1//EN"
 "http://www.w3.org/Graphics/SVG/1.1/DTD/svg11.dtd">
<!-- Generated by graphviz version 2.43.0 (0)
 -->
<!-- Title: pastafarianism Pages: 1 -->
<svg width="2186pt" height="188pt"
 viewBox="0.00 0.00 2186.48 188.00" xmlns="http://www.w3.org/2000/svg" xmlns:xlink="http://www.w3.org/1999/xlink">
<g id="graph0" class="graph" transform="scale(1 1) rotate(0) translate(4 184)">
<title>pastafarianism</title>
<polygon fill="white" stroke="transparent" points="-4,4 -4,-184 2182.48,-184 2182.48,4 -4,4"/>
<!-- selector -->
<g id="node1" class="node">
<title>selector</title>
<polygon fill="cyan" stroke="black" points="383.55,-154.54 383.55,-169.46 271.26,-180 112.45,-180 0.15,-169.46 0.15,-154.54 112.45,-144 271.26,-144 383.55,-154.54"/>
<text text-anchor="middle" x="191.85" y="-159.8" font-family="Times,serif" font-size="9.00">selector: change_tool(left_hand, parallel_box1, defaultgripper)</text>
</g>
<!-- target -->
<g id="node2" class="node">
<title>target</title>
<ellipse fill="gray" stroke="black" cx="513.85" cy="-162" rx="112.67" ry="18"/>
<text text-anchor="middle" x="513.85" y="-159.8" font-family="Times,serif" font-size="9.00">target: hold(left_hand, defaultgripper)</text>
</g>
<!-- selector: change_tool(left_hand, parallel_box1, defaultgripper) -->
<g id="node3" class="node">
<title>selector: change_tool(left_hand, parallel_box1, defaultgripper)</title>
<ellipse fill="none" stroke="black" cx="943.85" cy="-162" rx="299.75" ry="18"/>
<text text-anchor="middle" x="943.85" y="-158.3" font-family="Times,serif" font-size="14.00">selector: change_tool(left_hand, parallel_box1, defaultgripper)</text>
</g>
<!-- target: hold(left_hand, defaultgripper) -->
<g id="node4" class="node">
<title>target: hold(left_hand, defaultgripper)</title>
<ellipse fill="none" stroke="black" cx="687.85" cy="-90" rx="188.47" ry="18"/>
<text text-anchor="middle" x="687.85" y="-86.3" font-family="Times,serif" font-size="14.00">target: hold(left_hand, defaultgripper)</text>
</g>
<!-- selector: change_tool(left_hand, parallel_box1, defaultgripper)&#45;&gt;target: hold(left_hand, defaultgripper) -->
<g id="edge1" class="edge">
<title>selector: change_tool(left_hand, parallel_box1, defaultgripper)&#45;&gt;target: hold(left_hand, defaultgripper)</title>
<path fill="none" stroke="black" d="M882.86,-144.32C844.96,-133.96 796.14,-120.61 756.83,-109.86"/>
<polygon fill="black" stroke="black" points="757.62,-106.45 747.05,-107.19 755.78,-113.2 757.62,-106.45"/>
</g>
<!-- sequence: change_tool(left_hand, parallel_box1, defaultgripper) -->
<g id="node6" class="node">
<title>sequence: change_tool(left_hand, parallel_box1, defaultgripper)</title>
<ellipse fill="none" stroke="black" cx="1199.85" cy="-90" rx="305.45" ry="18"/>
<text text-anchor="middle" x="1199.85" y="-86.3" font-family="Times,serif" font-size="14.00">sequence: change_tool(left_hand, parallel_box1, defaultgripper)</text>
</g>
<!-- selector: change_tool(left_hand, parallel_box1, defaultgripper)&#45;&gt;sequence: change_tool(left_hand, parallel_box1, defaultgripper) -->
<g id="edge2" class="edge">
<title>selector: change_tool(left_hand, parallel_box1, defaultgripper)&#45;&gt;sequence: change_tool(left_hand, parallel_box1, defaultgripper)</title>
<path fill="none" stroke="black" d="M1004.84,-144.32C1042.2,-134.11 1090.16,-120.99 1129.17,-110.33"/>
<polygon fill="black" stroke="black" points="1130.16,-113.68 1138.88,-107.67 1128.31,-106.93 1130.16,-113.68"/>
</g>
<!-- sequence -->
<g id="node5" class="node">
<title>sequence</title>
<polygon fill="orange" stroke="black" points="1575.85,-180 1261.85,-180 1261.85,-144 1575.85,-144 1575.85,-180"/>
<text text-anchor="middle" x="1418.85" y="-159.8" font-family="Times,serif" font-size="9.00">sequence: change_tool(left_hand, parallel_box1, defaultgripper)</text>
</g>
<!-- precondition: hold(left_hand, parallel_box1) -->
<g id="node8" class="node">
<title>precondition: hold(left_hand, parallel_box1)</title>
<ellipse fill="none" stroke="black" cx="783.85" cy="-18" rx="212.56" ry="18"/>
<text text-anchor="middle" x="783.85" y="-14.3" font-family="Times,serif" font-size="14.00">precondition: hold(left_hand, parallel_box1)</text>
</g>
<!-- sequence: change_tool(left_hand, parallel_box1, defaultgripper)&#45;&gt;precondition: hold(left_hand, parallel_box1) -->
<g id="edge3" class="edge">
<title>sequence: change_tool(left_hand, parallel_box1, defaultgripper)&#45;&gt;precondition: hold(left_hand, parallel_box1)</title>
<path fill="none" stroke="black" d="M1104.15,-72.9C1038.54,-61.86 951.65,-47.23 884.92,-36.01"/>
<polygon fill="black" stroke="black" points="885.25,-32.51 874.81,-34.31 884.09,-39.42 885.25,-32.51"/>
</g>
<!-- precondition: is_empty(parallel_box1) -->
<g id="node9" class="node">
<title>precondition: is_empty(parallel_box1)</title>
<ellipse fill="none" stroke="black" cx="1199.85" cy="-18" rx="185.47" ry="18"/>
<text text-anchor="middle" x="1199.85" y="-14.3" font-family="Times,serif" font-size="14.00">precondition: is_empty(parallel_box1)</text>
</g>
<!-- sequence: change_tool(left_hand, parallel_box1, defaultgripper)&#45;&gt;precondition: is_empty(parallel_box1) -->
<g id="edge4" class="edge">
<title>sequence: change_tool(left_hand, parallel_box1, defaultgripper)&#45;&gt;precondition: is_empty(parallel_box1)</title>
<path fill="none" stroke="black" d="M1199.85,-71.7C1199.85,-63.98 1199.85,-54.71 1199.85,-46.11"/>
<polygon fill="black" stroke="black" points="1203.35,-46.1 1199.85,-36.1 1196.35,-46.1 1203.35,-46.1"/>
</g>
<!-- action: change_tool(left_hand, parallel_box1, defaultgripper) -->
<g id="node11" class="node">
<title>action: change_tool(left_hand, parallel_box1, defaultgripper)</title>
<ellipse fill="none" stroke="black" cx="1693.85" cy="-18" rx="290.55" ry="18"/>
<text text-anchor="middle" x="1693.85" y="-14.3" font-family="Times,serif" font-size="14.00">action: change_tool(left_hand, parallel_box1, defaultgripper)</text>
</g>
<!-- sequence: change_tool(left_hand, parallel_box1, defaultgripper)&#45;&gt;action: change_tool(left_hand, parallel_box1, defaultgripper) -->
<g id="edge5" class="edge">
<title>sequence: change_tool(left_hand, parallel_box1, defaultgripper)&#45;&gt;action: change_tool(left_hand, parallel_box1, defaultgripper)</title>
<path fill="none" stroke="black" d="M1311.33,-73.2C1389.24,-62.16 1493.21,-47.43 1573.09,-36.11"/>
<polygon fill="black" stroke="black" points="1573.79,-39.55 1583.2,-34.68 1572.81,-32.62 1573.79,-39.55"/>
</g>
<!-- precondition -->
<g id="node7" class="node">
<title>precondition</title>
<ellipse fill="gray" stroke="black" cx="1704.85" cy="-162" rx="110.7" ry="18"/>
<text text-anchor="middle" x="1704.85" y="-159.8" font-family="Times,serif" font-size="9.00">precondition: is_empty(parallel_box1)</text>
</g>
<!-- action -->
<g id="node10" class="node">
<title>action</title>
<ellipse fill="gray" stroke="black" cx="2005.85" cy="-162" rx="172.76" ry="18"/>
<text text-anchor="middle" x="2005.85" y="-159.8" font-family="Times,serif" font-size="9.00">action: change_tool(left_hand, parallel_box1, defaultgripper)</text>
</g>
</g>
</svg>
