<?xml version="1.0" encoding="UTF-8" standalone="no"?>
<!DOCTYPE svg PUBLIC "-//W3C//DTD SVG 1.1//EN"
 "http://www.w3.org/Graphics/SVG/1.1/DTD/svg11.dtd">
<!-- Generated by graphviz version 2.43.0 (0)
 -->
<!-- Title: pastafarianism Pages: 1 -->
<svg width="1878pt" height="188pt"
 viewBox="0.00 0.00 1877.97 188.00" xmlns="http://www.w3.org/2000/svg" xmlns:xlink="http://www.w3.org/1999/xlink">
<g id="graph0" class="graph" transform="scale(1 1) rotate(0) translate(4 184)">
<title>pastafarianism</title>
<polygon fill="white" stroke="transparent" points="-4,4 -4,-184 1873.97,-184 1873.97,4 -4,4"/>
<!-- selector -->
<g id="node1" class="node">
<title>selector</title>
<polygon fill="cyan" stroke="black" points="309.94,-154.54 309.94,-169.46 219.17,-180 90.79,-180 0.02,-169.46 0.02,-154.54 90.79,-144 219.17,-144 309.94,-154.54"/>
<text text-anchor="middle" x="154.98" y="-159.8" font-family="Times,serif" font-size="9.00">selector: pick_up(left_hand, clampgripper, shaft1)</text>
</g>
<!-- target -->
<g id="node2" class="node">
<title>target</title>
<ellipse fill="gray" stroke="black" cx="428.98" cy="-162" rx="101.07" ry="18"/>
<text text-anchor="middle" x="428.98" y="-159.8" font-family="Times,serif" font-size="9.00">target: hold(clampgripper, shaft1)</text>
</g>
<!-- selector: pick_up(left_hand, clampgripper, shaft1) -->
<g id="node3" class="node">
<title>selector: pick_up(left_hand, clampgripper, shaft1)</title>
<ellipse fill="none" stroke="black" cx="788.98" cy="-162" rx="241.26" ry="18"/>
<text text-anchor="middle" x="788.98" y="-158.3" font-family="Times,serif" font-size="14.00">selector: pick_up(left_hand, clampgripper, shaft1)</text>
</g>
<!-- target: hold(clampgripper, shaft1) -->
<g id="node4" class="node">
<title>target: hold(clampgripper, shaft1)</title>
<ellipse fill="none" stroke="black" cx="571.98" cy="-90" rx="168.97" ry="18"/>
<text text-anchor="middle" x="571.98" y="-86.3" font-family="Times,serif" font-size="14.00">target: hold(clampgripper, shaft1)</text>
</g>
<!-- selector: pick_up(left_hand, clampgripper, shaft1)&#45;&gt;target: hold(clampgripper, shaft1) -->
<g id="edge1" class="edge">
<title>selector: pick_up(left_hand, clampgripper, shaft1)&#45;&gt;target: hold(clampgripper, shaft1)</title>
<path fill="none" stroke="black" d="M737.55,-144.41C705.84,-134.18 665.04,-121.02 631.87,-110.32"/>
<polygon fill="black" stroke="black" points="632.88,-106.97 622.29,-107.23 630.73,-113.63 632.88,-106.97"/>
</g>
<!-- sequence: pick_up(left_hand, clampgripper, shaft1) -->
<g id="node6" class="node">
<title>sequence: pick_up(left_hand, clampgripper, shaft1)</title>
<ellipse fill="none" stroke="black" cx="1005.98" cy="-90" rx="246.96" ry="18"/>
<text text-anchor="middle" x="1005.98" y="-86.3" font-family="Times,serif" font-size="14.00">sequence: pick_up(left_hand, clampgripper, shaft1)</text>
</g>
<!-- selector: pick_up(left_hand, clampgripper, shaft1)&#45;&gt;sequence: pick_up(left_hand, clampgripper, shaft1) -->
<g id="edge2" class="edge">
<title>selector: pick_up(left_hand, clampgripper, shaft1)&#45;&gt;sequence: pick_up(left_hand, clampgripper, shaft1)</title>
<path fill="none" stroke="black" d="M840.41,-144.41C871.66,-134.33 911.75,-121.4 944.65,-110.78"/>
<polygon fill="black" stroke="black" points="945.73,-114.11 954.17,-107.71 943.58,-107.45 945.73,-114.11"/>
</g>
<!-- sequence -->
<g id="node5" class="node">
<title>sequence</title>
<polygon fill="orange" stroke="black" points="1301.98,-180 1047.98,-180 1047.98,-144 1301.98,-144 1301.98,-180"/>
<text text-anchor="middle" x="1174.98" y="-159.8" font-family="Times,serif" font-size="9.00">sequence: pick_up(left_hand, clampgripper, shaft1)</text>
</g>
<!-- precondition: is_empty(clampgripper) -->
<g id="node8" class="node">
<title>precondition: is_empty(clampgripper)</title>
<ellipse fill="none" stroke="black" cx="588.98" cy="-18" rx="185.77" ry="18"/>
<text text-anchor="middle" x="588.98" y="-14.3" font-family="Times,serif" font-size="14.00">precondition: is_empty(clampgripper)</text>
</g>
<!-- sequence: pick_up(left_hand, clampgripper, shaft1)&#45;&gt;precondition: is_empty(clampgripper) -->
<g id="edge3" class="edge">
<title>sequence: pick_up(left_hand, clampgripper, shaft1)&#45;&gt;precondition: is_empty(clampgripper)</title>
<path fill="none" stroke="black" d="M912.66,-73.33C845.61,-62.08 755.41,-46.94 687.26,-35.5"/>
<polygon fill="black" stroke="black" points="687.81,-32.04 677.37,-33.84 686.65,-38.94 687.81,-32.04"/>
</g>
<!-- precondition: hold(left_hand, clampgripper) -->
<g id="node9" class="node">
<title>precondition: hold(left_hand, clampgripper)</title>
<ellipse fill="none" stroke="black" cx="1005.98" cy="-18" rx="213.36" ry="18"/>
<text text-anchor="middle" x="1005.98" y="-14.3" font-family="Times,serif" font-size="14.00">precondition: hold(left_hand, clampgripper)</text>
</g>
<!-- sequence: pick_up(left_hand, clampgripper, shaft1)&#45;&gt;precondition: hold(left_hand, clampgripper) -->
<g id="edge4" class="edge">
<title>sequence: pick_up(left_hand, clampgripper, shaft1)&#45;&gt;precondition: hold(left_hand, clampgripper)</title>
<path fill="none" stroke="black" d="M1005.98,-71.7C1005.98,-63.98 1005.98,-54.71 1005.98,-46.11"/>
<polygon fill="black" stroke="black" points="1009.48,-46.1 1005.98,-36.1 1002.48,-46.1 1009.48,-46.1"/>
</g>
<!-- action: pick_up(left_hand, clampgripper, shaft1) -->
<g id="node11" class="node">
<title>action: pick_up(left_hand, clampgripper, shaft1)</title>
<ellipse fill="none" stroke="black" cx="1468.98" cy="-18" rx="232.06" ry="18"/>
<text text-anchor="middle" x="1468.98" y="-14.3" font-family="Times,serif" font-size="14.00">action: pick_up(left_hand, clampgripper, shaft1)</text>
</g>
<!-- sequence: pick_up(left_hand, clampgripper, shaft1)&#45;&gt;action: pick_up(left_hand, clampgripper, shaft1) -->
<g id="edge5" class="edge">
<title>sequence: pick_up(left_hand, clampgripper, shaft1)&#45;&gt;action: pick_up(left_hand, clampgripper, shaft1)</title>
<path fill="none" stroke="black" d="M1107.87,-73.59C1181.9,-62.4 1282,-47.27 1358.04,-35.77"/>
<polygon fill="black" stroke="black" points="1358.77,-39.2 1368.13,-34.25 1357.72,-32.28 1358.77,-39.2"/>
</g>
<!-- precondition -->
<g id="node7" class="node">
<title>precondition</title>
<ellipse fill="gray" stroke="black" cx="1447.98" cy="-162" rx="127.69" ry="18"/>
<text text-anchor="middle" x="1447.98" y="-159.8" font-family="Times,serif" font-size="9.00">precondition: hold(left_hand, clampgripper)</text>
</g>
<!-- action -->
<g id="node10" class="node">
<title>action</title>
<ellipse fill="gray" stroke="black" cx="1731.98" cy="-162" rx="137.97" ry="18"/>
<text text-anchor="middle" x="1731.98" y="-159.8" font-family="Times,serif" font-size="9.00">action: pick_up(left_hand, clampgripper, shaft1)</text>
</g>
</g>
</svg>
