<?xml version="1.0" encoding="UTF-8" standalone="no"?>
<!DOCTYPE svg PUBLIC "-//W3C//DTD SVG 1.1//EN"
 "http://www.w3.org/Graphics/SVG/1.1/DTD/svg11.dtd">
<!-- Generated by graphviz version 2.43.0 (0)
 -->
<!-- Title: pastafarianism Pages: 1 -->
<svg width="1848pt" height="188pt"
 viewBox="0.00 0.00 1847.54 188.00" xmlns="http://www.w3.org/2000/svg" xmlns:xlink="http://www.w3.org/1999/xlink">
<g id="graph0" class="graph" transform="scale(1 1) rotate(0) translate(4 184)">
<title>pastafarianism</title>
<polygon fill="white" stroke="transparent" points="-4,4 -4,-184 1843.54,-184 1843.54,4 -4,4"/>
<!-- selector -->
<g id="node1" class="node">
<title>selector</title>
<polygon fill="cyan" stroke="black" points="309.94,-154.54 309.94,-169.46 219.17,-180 90.79,-180 0.02,-169.46 0.02,-154.54 90.79,-144 219.17,-144 309.94,-154.54"/>
<text text-anchor="middle" x="154.98" y="-159.8" font-family="Times,serif" font-size="9.00">selector: pick_up(left_hand, parallel_box1, shaft1)</text>
</g>
<!-- target -->
<g id="node2" class="node">
<title>target</title>
<ellipse fill="gray" stroke="black" cx="429.98" cy="-162" rx="101.73" ry="18"/>
<text text-anchor="middle" x="429.98" y="-159.8" font-family="Times,serif" font-size="9.00">target: hold(parallel_box1, shaft1)</text>
</g>
<!-- selector: pick_up(left_hand, parallel_box1, shaft1) -->
<g id="node3" class="node">
<title>selector: pick_up(left_hand, parallel_box1, shaft1)</title>
<ellipse fill="none" stroke="black" cx="790.98" cy="-162" rx="241.26" ry="18"/>
<text text-anchor="middle" x="790.98" y="-158.3" font-family="Times,serif" font-size="14.00">selector: pick_up(left_hand, parallel_box1, shaft1)</text>
</g>
<!-- target: hold(parallel_box1, shaft1) -->
<g id="node4" class="node">
<title>target: hold(parallel_box1, shaft1)</title>
<ellipse fill="none" stroke="black" cx="573.98" cy="-90" rx="168.97" ry="18"/>
<text text-anchor="middle" x="573.98" y="-86.3" font-family="Times,serif" font-size="14.00">target: hold(parallel_box1, shaft1)</text>
</g>
<!-- selector: pick_up(left_hand, parallel_box1, shaft1)&#45;&gt;target: hold(parallel_box1, shaft1) -->
<g id="edge1" class="edge">
<title>selector: pick_up(left_hand, parallel_box1, shaft1)&#45;&gt;target: hold(parallel_box1, shaft1)</title>
<path fill="none" stroke="black" d="M739.55,-144.41C707.84,-134.18 667.04,-121.02 633.87,-110.32"/>
<polygon fill="black" stroke="black" points="634.88,-106.97 624.29,-107.23 632.73,-113.63 634.88,-106.97"/>
</g>
<!-- sequence: pick_up(left_hand, parallel_box1, shaft1) -->
<g id="node6" class="node">
<title>sequence: pick_up(left_hand, parallel_box1, shaft1)</title>
<ellipse fill="none" stroke="black" cx="1008.98" cy="-90" rx="247.76" ry="18"/>
<text text-anchor="middle" x="1008.98" y="-86.3" font-family="Times,serif" font-size="14.00">sequence: pick_up(left_hand, parallel_box1, shaft1)</text>
</g>
<!-- selector: pick_up(left_hand, parallel_box1, shaft1)&#45;&gt;sequence: pick_up(left_hand, parallel_box1, shaft1) -->
<g id="edge2" class="edge">
<title>selector: pick_up(left_hand, parallel_box1, shaft1)&#45;&gt;sequence: pick_up(left_hand, parallel_box1, shaft1)</title>
<path fill="none" stroke="black" d="M842.64,-144.41C874.04,-134.33 914.32,-121.4 947.37,-110.78"/>
<polygon fill="black" stroke="black" points="948.48,-114.1 956.93,-107.71 946.34,-107.44 948.48,-114.1"/>
</g>
<!-- sequence -->
<g id="node5" class="node">
<title>sequence</title>
<polygon fill="orange" stroke="black" points="1305.48,-180 1050.48,-180 1050.48,-144 1305.48,-144 1305.48,-180"/>
<text text-anchor="middle" x="1177.98" y="-159.8" font-family="Times,serif" font-size="9.00">sequence: pick_up(left_hand, parallel_box1, shaft1)</text>
</g>
<!-- precondition: hold(left_hand, parallel_box1) -->
<g id="node8" class="node">
<title>precondition: hold(left_hand, parallel_box1)</title>
<ellipse fill="none" stroke="black" cx="592.98" cy="-18" rx="212.56" ry="18"/>
<text text-anchor="middle" x="592.98" y="-14.3" font-family="Times,serif" font-size="14.00">precondition: hold(left_hand, parallel_box1)</text>
</g>
<!-- sequence: pick_up(left_hand, parallel_box1, shaft1)&#45;&gt;precondition: hold(left_hand, parallel_box1) -->
<g id="edge3" class="edge">
<title>sequence: pick_up(left_hand, parallel_box1, shaft1)&#45;&gt;precondition: hold(left_hand, parallel_box1)</title>
<path fill="none" stroke="black" d="M915.62,-73.29C849.77,-62.21 761.63,-47.38 694.11,-36.02"/>
<polygon fill="black" stroke="black" points="694.32,-32.5 683.88,-34.3 693.16,-39.41 694.32,-32.5"/>
</g>
<!-- precondition: is_empty(parallel_box1) -->
<g id="node9" class="node">
<title>precondition: is_empty(parallel_box1)</title>
<ellipse fill="none" stroke="black" cx="1008.98" cy="-18" rx="185.47" ry="18"/>
<text text-anchor="middle" x="1008.98" y="-14.3" font-family="Times,serif" font-size="14.00">precondition: is_empty(parallel_box1)</text>
</g>
<!-- sequence: pick_up(left_hand, parallel_box1, shaft1)&#45;&gt;precondition: is_empty(parallel_box1) -->
<g id="edge4" class="edge">
<title>sequence: pick_up(left_hand, parallel_box1, shaft1)&#45;&gt;precondition: is_empty(parallel_box1)</title>
<path fill="none" stroke="black" d="M1008.98,-71.7C1008.98,-63.98 1008.98,-54.71 1008.98,-46.11"/>
<polygon fill="black" stroke="black" points="1012.48,-46.1 1008.98,-36.1 1005.48,-46.1 1012.48,-46.1"/>
</g>
<!-- action: pick_up(left_hand, parallel_box1, shaft1) -->
<g id="node11" class="node">
<title>action: pick_up(left_hand, parallel_box1, shaft1)</title>
<ellipse fill="none" stroke="black" cx="1444.98" cy="-18" rx="232.86" ry="18"/>
<text text-anchor="middle" x="1444.98" y="-14.3" font-family="Times,serif" font-size="14.00">action: pick_up(left_hand, parallel_box1, shaft1)</text>
</g>
<!-- sequence: pick_up(left_hand, parallel_box1, shaft1)&#45;&gt;action: pick_up(left_hand, parallel_box1, shaft1) -->
<g id="edge5" class="edge">
<title>sequence: pick_up(left_hand, parallel_box1, shaft1)&#45;&gt;action: pick_up(left_hand, parallel_box1, shaft1)</title>
<path fill="none" stroke="black" d="M1106.01,-73.42C1175.15,-62.32 1268.05,-47.41 1339.1,-36"/>
<polygon fill="black" stroke="black" points="1339.66,-39.45 1348.98,-34.41 1338.55,-32.54 1339.66,-39.45"/>
</g>
<!-- precondition -->
<g id="node7" class="node">
<title>precondition</title>
<ellipse fill="gray" stroke="black" cx="1433.98" cy="-162" rx="110.7" ry="18"/>
<text text-anchor="middle" x="1433.98" y="-159.8" font-family="Times,serif" font-size="9.00">precondition: is_empty(parallel_box1)</text>
</g>
<!-- action -->
<g id="node10" class="node">
<title>action</title>
<ellipse fill="gray" stroke="black" cx="1700.98" cy="-162" rx="138.63" ry="18"/>
<text text-anchor="middle" x="1700.98" y="-159.8" font-family="Times,serif" font-size="9.00">action: pick_up(left_hand, parallel_box1, shaft1)</text>
</g>
</g>
</svg>
