<?xml version="1.0" encoding="UTF-8" standalone="no"?>
<!DOCTYPE svg PUBLIC "-//W3C//DTD SVG 1.1//EN"
 "http://www.w3.org/Graphics/SVG/1.1/DTD/svg11.dtd">
<!-- Generated by graphviz version 2.43.0 (0)
 -->
<!-- Title: pastafarianism Pages: 1 -->
<svg width="2183pt" height="188pt"
 viewBox="0.00 0.00 2183.28 188.00" xmlns="http://www.w3.org/2000/svg" xmlns:xlink="http://www.w3.org/1999/xlink">
<g id="graph0" class="graph" transform="scale(1 1) rotate(0) translate(4 184)">
<title>pastafarianism</title>
<polygon fill="white" stroke="transparent" points="-4,4 -4,-184 2179.28,-184 2179.28,4 -4,4"/>
<!-- selector -->
<g id="node1" class="node">
<title>selector</title>
<polygon fill="cyan" stroke="black" points="382.68,-154.54 382.68,-169.46 270.53,-180 111.92,-180 -0.23,-169.46 -0.23,-154.54 111.92,-144 270.53,-144 382.68,-154.54"/>
<text text-anchor="middle" x="191.23" y="-159.8" font-family="Times,serif" font-size="9.00">selector: change_tool(left_hand, clampgripper, defaultgripper)</text>
</g>
<!-- target -->
<g id="node2" class="node">
<title>target</title>
<ellipse fill="gray" stroke="black" cx="513.23" cy="-162" rx="112.67" ry="18"/>
<text text-anchor="middle" x="513.23" y="-159.8" font-family="Times,serif" font-size="9.00">target: hold(left_hand, defaultgripper)</text>
</g>
<!-- selector: change_tool(left_hand, clampgripper, defaultgripper) -->
<g id="node3" class="node">
<title>selector: change_tool(left_hand, clampgripper, defaultgripper)</title>
<ellipse fill="none" stroke="black" cx="943.23" cy="-162" rx="298.95" ry="18"/>
<text text-anchor="middle" x="943.23" y="-158.3" font-family="Times,serif" font-size="14.00">selector: change_tool(left_hand, clampgripper, defaultgripper)</text>
</g>
<!-- target: hold(left_hand, defaultgripper) -->
<g id="node4" class="node">
<title>target: hold(left_hand, defaultgripper)</title>
<ellipse fill="none" stroke="black" cx="687.23" cy="-90" rx="188.47" ry="18"/>
<text text-anchor="middle" x="687.23" y="-86.3" font-family="Times,serif" font-size="14.00">target: hold(left_hand, defaultgripper)</text>
</g>
<!-- selector: change_tool(left_hand, clampgripper, defaultgripper)&#45;&gt;target: hold(left_hand, defaultgripper) -->
<g id="edge1" class="edge">
<title>selector: change_tool(left_hand, clampgripper, defaultgripper)&#45;&gt;target: hold(left_hand, defaultgripper)</title>
<path fill="none" stroke="black" d="M882.23,-144.32C844.33,-133.96 795.51,-120.61 756.2,-109.86"/>
<polygon fill="black" stroke="black" points="757,-106.45 746.43,-107.19 755.15,-113.2 757,-106.45"/>
</g>
<!-- sequence: change_tool(left_hand, clampgripper, defaultgripper) -->
<g id="node6" class="node">
<title>sequence: change_tool(left_hand, clampgripper, defaultgripper)</title>
<ellipse fill="none" stroke="black" cx="1199.23" cy="-90" rx="305.45" ry="18"/>
<text text-anchor="middle" x="1199.23" y="-86.3" font-family="Times,serif" font-size="14.00">sequence: change_tool(left_hand, clampgripper, defaultgripper)</text>
</g>
<!-- selector: change_tool(left_hand, clampgripper, defaultgripper)&#45;&gt;sequence: change_tool(left_hand, clampgripper, defaultgripper) -->
<g id="edge2" class="edge">
<title>selector: change_tool(left_hand, clampgripper, defaultgripper)&#45;&gt;sequence: change_tool(left_hand, clampgripper, defaultgripper)</title>
<path fill="none" stroke="black" d="M1004.22,-144.32C1041.57,-134.11 1089.53,-120.99 1128.54,-110.33"/>
<polygon fill="black" stroke="black" points="1129.53,-113.68 1138.26,-107.67 1127.69,-106.93 1129.53,-113.68"/>
</g>
<!-- sequence -->
<g id="node5" class="node">
<title>sequence</title>
<polygon fill="orange" stroke="black" points="1572.73,-180 1259.73,-180 1259.73,-144 1572.73,-144 1572.73,-180"/>
<text text-anchor="middle" x="1416.23" y="-159.8" font-family="Times,serif" font-size="9.00">sequence: change_tool(left_hand, clampgripper, defaultgripper)</text>
</g>
<!-- precondition: hold(left_hand, clampgripper) -->
<g id="node8" class="node">
<title>precondition: hold(left_hand, clampgripper)</title>
<ellipse fill="none" stroke="black" cx="782.23" cy="-18" rx="213.36" ry="18"/>
<text text-anchor="middle" x="782.23" y="-14.3" font-family="Times,serif" font-size="14.00">precondition: hold(left_hand, clampgripper)</text>
</g>
<!-- sequence: change_tool(left_hand, clampgripper, defaultgripper)&#45;&gt;precondition: hold(left_hand, clampgripper) -->
<g id="edge3" class="edge">
<title>sequence: change_tool(left_hand, clampgripper, defaultgripper)&#45;&gt;precondition: hold(left_hand, clampgripper)</title>
<path fill="none" stroke="black" d="M1103.3,-72.9C1037.53,-61.86 950.42,-47.23 883.54,-36.01"/>
<polygon fill="black" stroke="black" points="883.84,-32.51 873.4,-34.31 882.68,-39.41 883.84,-32.51"/>
</g>
<!-- precondition: is_empty(clampgripper) -->
<g id="node9" class="node">
<title>precondition: is_empty(clampgripper)</title>
<ellipse fill="none" stroke="black" cx="1199.23" cy="-18" rx="185.77" ry="18"/>
<text text-anchor="middle" x="1199.23" y="-14.3" font-family="Times,serif" font-size="14.00">precondition: is_empty(clampgripper)</text>
</g>
<!-- sequence: change_tool(left_hand, clampgripper, defaultgripper)&#45;&gt;precondition: is_empty(clampgripper) -->
<g id="edge4" class="edge">
<title>sequence: change_tool(left_hand, clampgripper, defaultgripper)&#45;&gt;precondition: is_empty(clampgripper)</title>
<path fill="none" stroke="black" d="M1199.23,-71.7C1199.23,-63.98 1199.23,-54.71 1199.23,-46.11"/>
<polygon fill="black" stroke="black" points="1202.73,-46.1 1199.23,-36.1 1195.73,-46.1 1202.73,-46.1"/>
</g>
<!-- action: change_tool(left_hand, clampgripper, defaultgripper) -->
<g id="node11" class="node">
<title>action: change_tool(left_hand, clampgripper, defaultgripper)</title>
<ellipse fill="none" stroke="black" cx="1693.23" cy="-18" rx="289.75" ry="18"/>
<text text-anchor="middle" x="1693.23" y="-14.3" font-family="Times,serif" font-size="14.00">action: change_tool(left_hand, clampgripper, defaultgripper)</text>
</g>
<!-- sequence: change_tool(left_hand, clampgripper, defaultgripper)&#45;&gt;action: change_tool(left_hand, clampgripper, defaultgripper) -->
<g id="edge5" class="edge">
<title>sequence: change_tool(left_hand, clampgripper, defaultgripper)&#45;&gt;action: change_tool(left_hand, clampgripper, defaultgripper)</title>
<path fill="none" stroke="black" d="M1310.7,-73.2C1388.62,-62.16 1492.59,-47.43 1572.46,-36.11"/>
<polygon fill="black" stroke="black" points="1573.17,-39.55 1582.58,-34.68 1572.19,-32.62 1573.17,-39.55"/>
</g>
<!-- precondition -->
<g id="node7" class="node">
<title>precondition</title>
<ellipse fill="gray" stroke="black" cx="1702.23" cy="-162" rx="111.36" ry="18"/>
<text text-anchor="middle" x="1702.23" y="-159.8" font-family="Times,serif" font-size="9.00">precondition: is_empty(clampgripper)</text>
</g>
<!-- action -->
<g id="node10" class="node">
<title>action</title>
<ellipse fill="gray" stroke="black" cx="2003.23" cy="-162" rx="172.1" ry="18"/>
<text text-anchor="middle" x="2003.23" y="-159.8" font-family="Times,serif" font-size="9.00">action: change_tool(left_hand, clampgripper, defaultgripper)</text>
</g>
</g>
</svg>
