<?xml version="1.0" encoding="UTF-8" standalone="no"?>
<!DOCTYPE svg PUBLIC "-//W3C//DTD SVG 1.1//EN"
 "http://www.w3.org/Graphics/SVG/1.1/DTD/svg11.dtd">
<!-- Generated by graphviz version 2.43.0 (0)
 -->
<!-- Title: pastafarianism Pages: 1 -->
<svg width="890pt" height="198pt"
 viewBox="0.00 0.00 890.41 198.46" xmlns="http://www.w3.org/2000/svg" xmlns:xlink="http://www.w3.org/1999/xlink">
<g id="graph0" class="graph" transform="scale(1 1) rotate(0) translate(4 194.46)">
<title>pastafarianism</title>
<polygon fill="white" stroke="transparent" points="-4,4 -4,-194.46 886.41,-194.46 886.41,4 -4,4"/>
<!-- Selector -->
<g id="node1" class="node">
<title>Selector</title>
<polygon fill="#8deeee" stroke="black" points="457.69,-160.18 457.69,-177.88 416.49,-190.39 358.23,-190.39 317.03,-177.88 317.03,-160.18 358.23,-147.67 416.49,-147.67 457.69,-160.18"/>
<text text-anchor="middle" x="387.36" y="-164.63" font-family="Times,serif" font-size="18.00">Selector</text>
</g>
<!-- Sequence 1 -->
<g id="node2" class="node">
<title>Sequence 1</title>
<polygon fill="#ff7f24" stroke="black" points="353.86,-111.6 232.86,-111.6 232.86,-75.6 353.86,-75.6 353.86,-111.6"/>
<text text-anchor="middle" x="293.36" y="-89.2" font-family="Times,serif" font-size="18.00">Sequence 1</text>
</g>
<!-- Selector&#45;&gt;Sequence 1 -->
<g id="edge1" class="edge">
<title>Selector&#45;&gt;Sequence 1</title>
<path fill="none" stroke="black" d="M361.17,-147.57C349.43,-138.4 335.52,-127.53 323.36,-118.04"/>
<polygon fill="black" stroke="black" points="325.31,-115.12 315.27,-111.72 321,-120.63 325.31,-115.12"/>
</g>
<!-- Sequence 2 -->
<g id="node5" class="node">
<title>Sequence 2</title>
<polygon fill="#ff7f24" stroke="black" points="635.86,-111.6 514.86,-111.6 514.86,-75.6 635.86,-75.6 635.86,-111.6"/>
<text text-anchor="middle" x="575.36" y="-89.2" font-family="Times,serif" font-size="18.00">Sequence 2</text>
</g>
<!-- Selector&#45;&gt;Sequence 2 -->
<g id="edge4" class="edge">
<title>Selector&#45;&gt;Sequence 2</title>
<path fill="none" stroke="black" d="M429.55,-151.55C456.88,-140.87 492.71,-126.88 522.01,-115.43"/>
<polygon fill="black" stroke="black" points="523.64,-118.56 531.68,-111.66 521.09,-112.04 523.64,-118.56"/>
</g>
<!-- Precondition 1 -->
<g id="node3" class="node">
<title>Precondition 1</title>
<ellipse fill="#ffec8b" stroke="black" cx="105.36" cy="-19.8" rx="105.22" ry="19.6"/>
<text text-anchor="middle" x="105.36" y="-15.4" font-family="Times,serif" font-size="18.00">Precondition 1</text>
</g>
<!-- Sequence 1&#45;&gt;Precondition 1 -->
<g id="edge2" class="edge">
<title>Sequence 1&#45;&gt;Precondition 1</title>
<path fill="none" stroke="black" d="M248.81,-75.58C221.98,-65.34 187.64,-52.22 159.28,-41.39"/>
<polygon fill="black" stroke="black" points="160.51,-38.11 149.92,-37.82 158.01,-44.65 160.51,-38.11"/>
</g>
<!-- Action 1 -->
<g id="node4" class="node">
<title>Action 1</title>
<ellipse fill="lightgreen" stroke="black" cx="293.36" cy="-19.8" rx="65.11" ry="19.6"/>
<text text-anchor="middle" x="293.36" y="-15.4" font-family="Times,serif" font-size="18.00">Action 1</text>
</g>
<!-- Sequence 1&#45;&gt;Action 1 -->
<g id="edge3" class="edge">
<title>Sequence 1&#45;&gt;Action 1</title>
<path fill="none" stroke="black" d="M293.36,-75.58C293.36,-67.92 293.36,-58.65 293.36,-49.93"/>
<polygon fill="black" stroke="black" points="296.86,-49.71 293.36,-39.71 289.86,-49.71 296.86,-49.71"/>
</g>
<!-- Precondition 2 -->
<g id="node6" class="node">
<title>Precondition 2</title>
<ellipse fill="#ffec8b" stroke="black" cx="481.36" cy="-19.8" rx="105.22" ry="19.6"/>
<text text-anchor="middle" x="481.36" y="-15.4" font-family="Times,serif" font-size="18.00">Precondition 2</text>
</g>
<!-- Sequence 2&#45;&gt;Precondition 2 -->
<g id="edge5" class="edge">
<title>Sequence 2&#45;&gt;Precondition 2</title>
<path fill="none" stroke="black" d="M553.08,-75.58C541.32,-66.6 526.68,-55.42 513.7,-45.5"/>
<polygon fill="black" stroke="black" points="515.52,-42.49 505.45,-39.2 511.27,-48.05 515.52,-42.49"/>
</g>
<!-- Action 2 -->
<g id="node7" class="node">
<title>Action 2</title>
<ellipse fill="lightgreen" stroke="black" cx="669.36" cy="-19.8" rx="65.11" ry="19.6"/>
<text text-anchor="middle" x="669.36" y="-15.4" font-family="Times,serif" font-size="18.00">Action 2</text>
</g>
<!-- Sequence 2&#45;&gt;Action 2 -->
<g id="edge6" class="edge">
<title>Sequence 2&#45;&gt;Action 2</title>
<path fill="none" stroke="black" d="M597.64,-75.58C609.77,-66.31 624.99,-54.69 638.28,-44.54"/>
<polygon fill="black" stroke="black" points="640.44,-47.29 646.26,-38.44 636.19,-41.73 640.44,-47.29"/>
</g>
<!-- Action 3 -->
<g id="node8" class="node">
<title>Action 3</title>
<ellipse fill="lightgreen" stroke="black" cx="817.36" cy="-19.8" rx="65.11" ry="19.6"/>
<text text-anchor="middle" x="817.36" y="-15.4" font-family="Times,serif" font-size="18.00">Action 3</text>
</g>
<!-- Sequence 2&#45;&gt;Action 3 -->
<g id="edge7" class="edge">
<title>Sequence 2&#45;&gt;Action 3</title>
<path fill="none" stroke="black" d="M632.71,-75.58C671.84,-63.97 723.39,-48.68 762.08,-37.2"/>
<polygon fill="black" stroke="black" points="763.53,-40.42 772.12,-34.22 761.54,-33.71 763.53,-40.42"/>
</g>
</g>
</svg>
