<?xml version="1.0" encoding="UTF-8" standalone="no"?>
<!DOCTYPE svg PUBLIC "-//W3C//DTD SVG 1.1//EN"
 "http://www.w3.org/Graphics/SVG/1.1/DTD/svg11.dtd">
<!-- Generated by graphviz version 2.43.0 (0)
 -->
<!-- Title: pastafarianism Pages: 1 -->
<svg width="2938pt" height="513pt"
 viewBox="0.00 0.00 2938.08 513.48" xmlns="http://www.w3.org/2000/svg" xmlns:xlink="http://www.w3.org/1999/xlink">
<g id="graph0" class="graph" transform="scale(1 1) rotate(0) translate(4 509.48)">
<title>pastafarianism</title>
<polygon fill="white" stroke="transparent" points="-4,4 -4,-509.48 2934.08,-509.48 2934.08,4 -4,4"/>
<!-- selector:
 place(left_hand, inwardgripper, lampshade, lampbase) -->
<g id="node1" class="node">
<title>selector:
 place(left_hand, inwardgripper, lampshade, lampbase)</title>
<polygon fill="#8deeee" stroke="black" points="1605.92,-453.42 1605.92,-484.05 1374.92,-505.71 1048.25,-505.71 817.26,-484.05 817.26,-453.42 1048.25,-431.76 1374.92,-431.76 1605.92,-453.42"/>
<text text-anchor="middle" x="1211.59" y="-474.34" font-family="Times,serif" font-size="18.00">selector:</text>
<text text-anchor="middle" x="1211.59" y="-454.34" font-family="Times,serif" font-size="18.00"> place(left_hand, inwardgripper, lampshade, lampbase)</text>
</g>
<!-- target:
 is_placed_to(lampshade, lampbase) -->
<g id="node2" class="node">
<title>target:
 is_placed_to(lampshade, lampbase)</title>
<ellipse fill="#ffec8b" stroke="black" cx="959.59" cy="-360" rx="229.34" ry="36"/>
<text text-anchor="middle" x="959.59" y="-365.6" font-family="Times,serif" font-size="18.00">target:</text>
<text text-anchor="middle" x="959.59" y="-345.6" font-family="Times,serif" font-size="18.00"> is_placed_to(lampshade, lampbase)</text>
</g>
<!-- selector:
 place(left_hand, inwardgripper, lampshade, lampbase)&#45;&gt;target:
 is_placed_to(lampshade, lampbase) -->
<g id="edge1" class="edge">
<title>selector:
 place(left_hand, inwardgripper, lampshade, lampbase)&#45;&gt;target:
 is_placed_to(lampshade, lampbase)</title>
<path fill="none" stroke="black" d="M1126.97,-431.9C1101.25,-421 1072.94,-409.01 1047.03,-398.04"/>
<polygon fill="black" stroke="black" points="1048.18,-394.72 1037.6,-394.04 1045.45,-401.17 1048.18,-394.72"/>
</g>
<!-- sequence:
 place(left_hand, inwardgripper, lampshade, lampbase) -->
<g id="node3" class="node">
<title>sequence:
 place(left_hand, inwardgripper, lampshade, lampbase)</title>
<polygon fill="#ff7f24" stroke="black" points="1722.09,-396 1207.09,-396 1207.09,-324 1722.09,-324 1722.09,-396"/>
<text text-anchor="middle" x="1464.59" y="-365.6" font-family="Times,serif" font-size="18.00">sequence:</text>
<text text-anchor="middle" x="1464.59" y="-345.6" font-family="Times,serif" font-size="18.00"> place(left_hand, inwardgripper, lampshade, lampbase)</text>
</g>
<!-- selector:
 place(left_hand, inwardgripper, lampshade, lampbase)&#45;&gt;sequence:
 place(left_hand, inwardgripper, lampshade, lampbase) -->
<g id="edge2" class="edge">
<title>selector:
 place(left_hand, inwardgripper, lampshade, lampbase)&#45;&gt;sequence:
 place(left_hand, inwardgripper, lampshade, lampbase)</title>
<path fill="none" stroke="black" d="M1296.54,-431.9C1320.85,-421.64 1347.47,-410.41 1372.2,-399.98"/>
<polygon fill="black" stroke="black" points="1373.73,-403.13 1381.58,-396.02 1371.01,-396.68 1373.73,-403.13"/>
</g>
<!-- selector:
 change_tool(left_hand, inwardgripper, defaultgripper) -->
<g id="node4" class="node">
<title>selector:
 change_tool(left_hand, inwardgripper, defaultgripper)</title>
<polygon fill="#8deeee" stroke="black" points="1048.7,-237.09 1048.7,-266.91 831.89,-288 525.28,-288 308.48,-266.91 308.48,-237.09 525.28,-216 831.89,-216 1048.7,-237.09"/>
<text text-anchor="middle" x="678.59" y="-257.6" font-family="Times,serif" font-size="18.00">selector:</text>
<text text-anchor="middle" x="678.59" y="-237.6" font-family="Times,serif" font-size="18.00"> change_tool(left_hand, inwardgripper, defaultgripper)</text>
</g>
<!-- sequence:
 place(left_hand, inwardgripper, lampshade, lampbase)&#45;&gt;selector:
 change_tool(left_hand, inwardgripper, defaultgripper) -->
<g id="edge3" class="edge">
<title>sequence:
 place(left_hand, inwardgripper, lampshade, lampbase)&#45;&gt;selector:
 change_tool(left_hand, inwardgripper, defaultgripper)</title>
<path fill="none" stroke="black" d="M1206.95,-324.25C1109.02,-311.05 998.32,-296.12 903.64,-283.35"/>
<polygon fill="black" stroke="black" points="904.03,-279.87 893.65,-282 903.09,-286.81 904.03,-279.87"/>
</g>
<!-- selector:
 pick_up(left_hand, inwardgripper, lampshade) -->
<g id="node10" class="node">
<title>selector:
 pick_up(left_hand, inwardgripper, lampshade)</title>
<polygon fill="#8deeee" stroke="black" points="1783.1,-237.09 1783.1,-266.91 1596.52,-288 1332.66,-288 1146.08,-266.91 1146.08,-237.09 1332.66,-216 1596.52,-216 1783.1,-237.09"/>
<text text-anchor="middle" x="1464.59" y="-257.6" font-family="Times,serif" font-size="18.00">selector:</text>
<text text-anchor="middle" x="1464.59" y="-237.6" font-family="Times,serif" font-size="18.00"> pick_up(left_hand, inwardgripper, lampshade)</text>
</g>
<!-- sequence:
 place(left_hand, inwardgripper, lampshade, lampbase)&#45;&gt;selector:
 pick_up(left_hand, inwardgripper, lampshade) -->
<g id="edge9" class="edge">
<title>sequence:
 place(left_hand, inwardgripper, lampshade, lampbase)&#45;&gt;selector:
 pick_up(left_hand, inwardgripper, lampshade)</title>
<path fill="none" stroke="black" d="M1464.59,-324C1464.59,-315.85 1464.59,-307.06 1464.59,-298.54"/>
<polygon fill="black" stroke="black" points="1468.09,-298.33 1464.59,-288.33 1461.09,-298.33 1468.09,-298.33"/>
</g>
<!-- action:
 place(left_hand, inwardgripper, lampshade, lampbase) -->
<g id="node16" class="node">
<title>action:
 place(left_hand, inwardgripper, lampshade, lampbase)</title>
<ellipse fill="lightgreen" stroke="black" cx="2146.59" cy="-252" rx="345.45" ry="36"/>
<text text-anchor="middle" x="2146.59" y="-257.6" font-family="Times,serif" font-size="18.00">action:</text>
<text text-anchor="middle" x="2146.59" y="-237.6" font-family="Times,serif" font-size="18.00"> place(left_hand, inwardgripper, lampshade, lampbase)</text>
</g>
<!-- sequence:
 place(left_hand, inwardgripper, lampshade, lampbase)&#45;&gt;action:
 place(left_hand, inwardgripper, lampshade, lampbase) -->
<g id="edge15" class="edge">
<title>sequence:
 place(left_hand, inwardgripper, lampshade, lampbase)&#45;&gt;action:
 place(left_hand, inwardgripper, lampshade, lampbase)</title>
<path fill="none" stroke="black" d="M1689.79,-324C1773.32,-311.01 1867.37,-296.4 1948.33,-283.81"/>
<polygon fill="black" stroke="black" points="1949.3,-287.21 1958.64,-282.21 1948.22,-280.29 1949.3,-287.21"/>
</g>
<!-- target:
 hold(left_hand, defaultgripper) -->
<g id="node5" class="node">
<title>target:
 hold(left_hand, defaultgripper)</title>
<ellipse fill="#ffec8b" stroke="black" cx="202.59" cy="-144" rx="202.68" ry="36"/>
<text text-anchor="middle" x="202.59" y="-149.6" font-family="Times,serif" font-size="18.00">target:</text>
<text text-anchor="middle" x="202.59" y="-129.6" font-family="Times,serif" font-size="18.00"> hold(left_hand, defaultgripper)</text>
</g>
<!-- selector:
 change_tool(left_hand, inwardgripper, defaultgripper)&#45;&gt;target:
 hold(left_hand, defaultgripper) -->
<g id="edge4" class="edge">
<title>selector:
 change_tool(left_hand, inwardgripper, defaultgripper)&#45;&gt;target:
 hold(left_hand, defaultgripper)</title>
<path fill="none" stroke="black" d="M522.4,-216.22C462.18,-202.81 394.02,-187.63 336.13,-174.74"/>
<polygon fill="black" stroke="black" points="336.71,-171.28 326.19,-172.53 335.19,-178.12 336.71,-171.28"/>
</g>
<!-- sequence:
 change_tool(left_hand, inwardgripper, defaultgripper) -->
<g id="node6" class="node">
<title>sequence:
 change_tool(left_hand, inwardgripper, defaultgripper)</title>
<polygon fill="#ff7f24" stroke="black" points="933.59,-180 423.59,-180 423.59,-108 933.59,-108 933.59,-180"/>
<text text-anchor="middle" x="678.59" y="-149.6" font-family="Times,serif" font-size="18.00">sequence:</text>
<text text-anchor="middle" x="678.59" y="-129.6" font-family="Times,serif" font-size="18.00"> change_tool(left_hand, inwardgripper, defaultgripper)</text>
</g>
<!-- selector:
 change_tool(left_hand, inwardgripper, defaultgripper)&#45;&gt;sequence:
 change_tool(left_hand, inwardgripper, defaultgripper) -->
<g id="edge5" class="edge">
<title>selector:
 change_tool(left_hand, inwardgripper, defaultgripper)&#45;&gt;sequence:
 change_tool(left_hand, inwardgripper, defaultgripper)</title>
<path fill="none" stroke="black" d="M678.59,-216C678.59,-207.85 678.59,-199.06 678.59,-190.54"/>
<polygon fill="black" stroke="black" points="682.09,-190.33 678.59,-180.33 675.09,-190.33 682.09,-190.33"/>
</g>
<!-- precondition:
 hold(left_hand, inwardgripper) -->
<g id="node7" class="node">
<title>precondition:
 hold(left_hand, inwardgripper)</title>
<ellipse fill="#ffec8b" stroke="black" cx="252.59" cy="-36" rx="201.83" ry="36"/>
<text text-anchor="middle" x="252.59" y="-41.6" font-family="Times,serif" font-size="18.00">precondition:</text>
<text text-anchor="middle" x="252.59" y="-21.6" font-family="Times,serif" font-size="18.00"> hold(left_hand, inwardgripper)</text>
</g>
<!-- sequence:
 change_tool(left_hand, inwardgripper, defaultgripper)&#45;&gt;precondition:
 hold(left_hand, inwardgripper) -->
<g id="edge6" class="edge">
<title>sequence:
 change_tool(left_hand, inwardgripper, defaultgripper)&#45;&gt;precondition:
 hold(left_hand, inwardgripper)</title>
<path fill="none" stroke="black" d="M537.92,-108C486.12,-95.11 427.84,-80.61 377.52,-68.09"/>
<polygon fill="black" stroke="black" points="378.11,-64.63 367.56,-65.61 376.42,-71.42 378.11,-64.63"/>
</g>
<!-- precondition:
 is_empty(inwardgripper) -->
<g id="node8" class="node">
<title>precondition:
 is_empty(inwardgripper)</title>
<ellipse fill="#ffec8b" stroke="black" cx="638.59" cy="-36" rx="165.89" ry="36"/>
<text text-anchor="middle" x="638.59" y="-41.6" font-family="Times,serif" font-size="18.00">precondition:</text>
<text text-anchor="middle" x="638.59" y="-21.6" font-family="Times,serif" font-size="18.00"> is_empty(inwardgripper)</text>
</g>
<!-- sequence:
 change_tool(left_hand, inwardgripper, defaultgripper)&#45;&gt;precondition:
 is_empty(inwardgripper) -->
<g id="edge7" class="edge">
<title>sequence:
 change_tool(left_hand, inwardgripper, defaultgripper)&#45;&gt;precondition:
 is_empty(inwardgripper)</title>
<path fill="none" stroke="black" d="M665.38,-108C662.17,-99.5 658.7,-90.29 655.35,-81.42"/>
<polygon fill="black" stroke="black" points="658.59,-80.09 651.78,-71.97 652.04,-82.56 658.59,-80.09"/>
</g>
<!-- action:
 change_tool(left_hand, inwardgripper, defaultgripper) -->
<g id="node9" class="node">
<title>action:
 change_tool(left_hand, inwardgripper, defaultgripper)</title>
<ellipse fill="lightgreen" stroke="black" cx="1164.59" cy="-36" rx="342.24" ry="36"/>
<text text-anchor="middle" x="1164.59" y="-41.6" font-family="Times,serif" font-size="18.00">action:</text>
<text text-anchor="middle" x="1164.59" y="-21.6" font-family="Times,serif" font-size="18.00"> change_tool(left_hand, inwardgripper, defaultgripper)</text>
</g>
<!-- sequence:
 change_tool(left_hand, inwardgripper, defaultgripper)&#45;&gt;action:
 change_tool(left_hand, inwardgripper, defaultgripper) -->
<g id="edge8" class="edge">
<title>sequence:
 change_tool(left_hand, inwardgripper, defaultgripper)&#45;&gt;action:
 change_tool(left_hand, inwardgripper, defaultgripper)</title>
<path fill="none" stroke="black" d="M839.07,-108C893.86,-96.05 955,-82.71 1009.37,-70.85"/>
<polygon fill="black" stroke="black" points="1010.41,-74.21 1019.44,-68.66 1008.92,-67.37 1010.41,-74.21"/>
</g>
<!-- target:
 hold(inwardgripper, lampshade) -->
<g id="node11" class="node">
<title>target:
 hold(inwardgripper, lampshade)</title>
<ellipse fill="#ffec8b" stroke="black" cx="1464.59" cy="-144" rx="209.09" ry="36"/>
<text text-anchor="middle" x="1464.59" y="-149.6" font-family="Times,serif" font-size="18.00">target:</text>
<text text-anchor="middle" x="1464.59" y="-129.6" font-family="Times,serif" font-size="18.00"> hold(inwardgripper, lampshade)</text>
</g>
<!-- selector:
 pick_up(left_hand, inwardgripper, lampshade)&#45;&gt;target:
 hold(inwardgripper, lampshade) -->
<g id="edge10" class="edge">
<title>selector:
 pick_up(left_hand, inwardgripper, lampshade)&#45;&gt;target:
 hold(inwardgripper, lampshade)</title>
<path fill="none" stroke="black" d="M1464.59,-216C1464.59,-207.85 1464.59,-199.06 1464.59,-190.54"/>
<polygon fill="black" stroke="black" points="1468.09,-190.33 1464.59,-180.33 1461.09,-190.33 1468.09,-190.33"/>
</g>
<!-- sequence:
 pick_up(left_hand, inwardgripper, lampshade) -->
<g id="node12" class="node">
<title>sequence:
 pick_up(left_hand, inwardgripper, lampshade)</title>
<polygon fill="#ff7f24" stroke="black" points="2289.09,-180 1850.09,-180 1850.09,-108 2289.09,-108 2289.09,-180"/>
<text text-anchor="middle" x="2069.59" y="-149.6" font-family="Times,serif" font-size="18.00">sequence:</text>
<text text-anchor="middle" x="2069.59" y="-129.6" font-family="Times,serif" font-size="18.00"> pick_up(left_hand, inwardgripper, lampshade)</text>
</g>
<!-- selector:
 pick_up(left_hand, inwardgripper, lampshade)&#45;&gt;sequence:
 pick_up(left_hand, inwardgripper, lampshade) -->
<g id="edge11" class="edge">
<title>selector:
 pick_up(left_hand, inwardgripper, lampshade)&#45;&gt;sequence:
 pick_up(left_hand, inwardgripper, lampshade)</title>
<path fill="none" stroke="black" d="M1637.96,-220.62C1707.07,-208.52 1787.26,-194.47 1859.63,-181.79"/>
<polygon fill="black" stroke="black" points="1860.54,-185.18 1869.78,-180.01 1859.33,-178.29 1860.54,-185.18"/>
</g>
<!-- &quot;precondition:\n is_empty(inwardgripper)&quot;* -->
<g id="node13" class="node">
<title>&quot;precondition:\n is_empty(inwardgripper)&quot;*</title>
<ellipse fill="#ffec8b" stroke="black" cx="1701.59" cy="-36" rx="177.19" ry="36"/>
<text text-anchor="middle" x="1701.59" y="-41.6" font-family="Times,serif" font-size="18.00">&quot;precondition:</text>
<text text-anchor="middle" x="1701.59" y="-21.6" font-family="Times,serif" font-size="18.00"> is_empty(inwardgripper)&quot;*</text>
</g>
<!-- sequence:
 pick_up(left_hand, inwardgripper, lampshade)&#45;&gt;&quot;precondition:\n is_empty(inwardgripper)&quot;* -->
<g id="edge12" class="edge">
<title>sequence:
 pick_up(left_hand, inwardgripper, lampshade)&#45;&gt;&quot;precondition:\n is_empty(inwardgripper)&quot;*</title>
<path fill="none" stroke="black" d="M1948.07,-108C1903.89,-95.27 1854.25,-80.97 1811.16,-68.56"/>
<polygon fill="black" stroke="black" points="1812.08,-65.19 1801.51,-65.78 1810.15,-71.91 1812.08,-65.19"/>
</g>
<!-- &quot;precondition:\n hold(left_hand, inwardgripper)&quot;* -->
<g id="node14" class="node">
<title>&quot;precondition:\n hold(left_hand, inwardgripper)&quot;*</title>
<ellipse fill="#ffec8b" stroke="black" cx="2109.59" cy="-36" rx="213.14" ry="36"/>
<text text-anchor="middle" x="2109.59" y="-41.6" font-family="Times,serif" font-size="18.00">&quot;precondition:</text>
<text text-anchor="middle" x="2109.59" y="-21.6" font-family="Times,serif" font-size="18.00"> hold(left_hand, inwardgripper)&quot;*</text>
</g>
<!-- sequence:
 pick_up(left_hand, inwardgripper, lampshade)&#45;&gt;&quot;precondition:\n hold(left_hand, inwardgripper)&quot;* -->
<g id="edge13" class="edge">
<title>sequence:
 pick_up(left_hand, inwardgripper, lampshade)&#45;&gt;&quot;precondition:\n hold(left_hand, inwardgripper)&quot;*</title>
<path fill="none" stroke="black" d="M2082.8,-108C2086,-99.5 2089.48,-90.29 2092.83,-81.42"/>
<polygon fill="black" stroke="black" points="2096.14,-82.56 2096.39,-71.97 2089.59,-80.09 2096.14,-82.56"/>
</g>
<!-- action:
 pick_up(left_hand, inwardgripper, lampshade) -->
<g id="node15" class="node">
<title>action:
 pick_up(left_hand, inwardgripper, lampshade)</title>
<ellipse fill="lightgreen" stroke="black" cx="2635.59" cy="-36" rx="294.48" ry="36"/>
<text text-anchor="middle" x="2635.59" y="-41.6" font-family="Times,serif" font-size="18.00">action:</text>
<text text-anchor="middle" x="2635.59" y="-21.6" font-family="Times,serif" font-size="18.00"> pick_up(left_hand, inwardgripper, lampshade)</text>
</g>
<!-- sequence:
 pick_up(left_hand, inwardgripper, lampshade)&#45;&gt;action:
 pick_up(left_hand, inwardgripper, lampshade) -->
<g id="edge14" class="edge">
<title>sequence:
 pick_up(left_hand, inwardgripper, lampshade)&#45;&gt;action:
 pick_up(left_hand, inwardgripper, lampshade)</title>
<path fill="none" stroke="black" d="M2256.49,-108C2324.79,-95.21 2401.56,-80.83 2468.06,-68.37"/>
<polygon fill="black" stroke="black" points="2469.04,-71.75 2478.22,-66.47 2467.75,-64.87 2469.04,-71.75"/>
</g>
</g>
</svg>
