<?xml version="1.0" encoding="UTF-8" standalone="no"?>
<!DOCTYPE svg PUBLIC "-//W3C//DTD SVG 1.1//EN"
 "http://www.w3.org/Graphics/SVG/1.1/DTD/svg11.dtd">
<!-- Generated by graphviz version 2.43.0 (0)
 -->
<!-- Title: pastafarianism Pages: 1 -->
<svg width="5588pt" height="332pt"
 viewBox="0.00 0.00 5587.57 332.00" xmlns="http://www.w3.org/2000/svg" xmlns:xlink="http://www.w3.org/1999/xlink">
<g id="graph0" class="graph" transform="scale(1 1) rotate(0) translate(4 328)">
<title>pastafarianism</title>
<polygon fill="white" stroke="transparent" points="-4,4 -4,-328 5583.57,-328 5583.57,4 -4,4"/>
<!-- selector -->
<g id="node1" class="node">
<title>selector</title>
<polygon fill="cyan" stroke="black" points="2748.25,-298.54 2748.25,-313.46 2670.65,-324 2560.92,-324 2483.32,-313.46 2483.32,-298.54 2560.92,-288 2670.65,-288 2748.25,-298.54"/>
<text text-anchor="middle" x="2615.78" y="-303.8" font-family="Times,serif" font-size="9.00">selector: check_and_unload_outward_claw</text>
</g>
<!-- sequence -->
<g id="node2" class="node">
<title>sequence</title>
<polygon fill="orange" stroke="black" points="2979.78,-324 2765.78,-324 2765.78,-288 2979.78,-288 2979.78,-324"/>
<text text-anchor="middle" x="2872.78" y="-303.8" font-family="Times,serif" font-size="9.00">sequence: unload_parallel_box1_after_task</text>
</g>
<!-- selector: insert_shaft1_into_gearbase_hole1 -->
<g id="node3" class="node">
<title>selector: insert_shaft1_into_gearbase_hole1</title>
<ellipse fill="none" stroke="black" cx="3211.78" cy="-306" rx="213.66" ry="18"/>
<text text-anchor="middle" x="3211.78" y="-302.3" font-family="Times,serif" font-size="14.00">selector: insert_shaft1_into_gearbase_hole1</text>
</g>
<!-- sequence: unload_outward_claw_and_load_parallel_box1 -->
<g id="node4" class="node">
<title>sequence: unload_outward_claw_and_load_parallel_box1</title>
<ellipse fill="none" stroke="black" cx="1234.78" cy="-234" rx="271.05" ry="18"/>
<text text-anchor="middle" x="1234.78" y="-230.3" font-family="Times,serif" font-size="14.00">sequence: unload_outward_claw_and_load_parallel_box1</text>
</g>
<!-- selector: insert_shaft1_into_gearbase_hole1&#45;&gt;sequence: unload_outward_claw_and_load_parallel_box1 -->
<g id="edge1" class="edge">
<title>selector: insert_shaft1_into_gearbase_hole1&#45;&gt;sequence: unload_outward_claw_and_load_parallel_box1</title>
<path fill="none" stroke="black" d="M3065.2,-292.86C3039.74,-291.03 3013.5,-289.31 2988.78,-288 2463.66,-260.07 1849.27,-245.71 1504.72,-239.32"/>
<polygon fill="black" stroke="black" points="1504.66,-235.81 1494.6,-239.13 1504.53,-242.81 1504.66,-235.81"/>
</g>
<!-- sequence: pick_up_shaft1_with_parallel_box1 -->
<g id="node16" class="node">
<title>sequence: pick_up_shaft1_with_parallel_box1</title>
<ellipse fill="none" stroke="black" cx="2747.78" cy="-234" rx="219.86" ry="18"/>
<text text-anchor="middle" x="2747.78" y="-230.3" font-family="Times,serif" font-size="14.00">sequence: pick_up_shaft1_with_parallel_box1</text>
</g>
<!-- selector: insert_shaft1_into_gearbase_hole1&#45;&gt;sequence: pick_up_shaft1_with_parallel_box1 -->
<g id="edge11" class="edge">
<title>selector: insert_shaft1_into_gearbase_hole1&#45;&gt;sequence: pick_up_shaft1_with_parallel_box1</title>
<path fill="none" stroke="black" d="M3112.53,-290.03C3037.75,-278.74 2935.24,-263.28 2857.94,-251.62"/>
<polygon fill="black" stroke="black" points="2858.09,-248.1 2847.68,-250.07 2857.05,-255.02 2858.09,-248.1"/>
</g>
<!-- sequence: insert_shaft1_into_gearbase_hole1 -->
<g id="node20" class="node">
<title>sequence: insert_shaft1_into_gearbase_hole1</title>
<ellipse fill="none" stroke="black" cx="3696.78" cy="-234" rx="219.86" ry="18"/>
<text text-anchor="middle" x="3696.78" y="-230.3" font-family="Times,serif" font-size="14.00">sequence: insert_shaft1_into_gearbase_hole1</text>
</g>
<!-- selector: insert_shaft1_into_gearbase_hole1&#45;&gt;sequence: insert_shaft1_into_gearbase_hole1 -->
<g id="edge15" class="edge">
<title>selector: insert_shaft1_into_gearbase_hole1&#45;&gt;sequence: insert_shaft1_into_gearbase_hole1</title>
<path fill="none" stroke="black" d="M3314.34,-290.2C3393.12,-278.83 3501.85,-263.13 3583.24,-251.39"/>
<polygon fill="black" stroke="black" points="3584.14,-254.79 3593.53,-249.9 3583.14,-247.87 3584.14,-254.79"/>
</g>
<!-- sequence: unload_parallel_box1_after_task -->
<g id="node24" class="node">
<title>sequence: unload_parallel_box1_after_task</title>
<ellipse fill="none" stroke="black" cx="4950.78" cy="-234" rx="207.96" ry="18"/>
<text text-anchor="middle" x="4950.78" y="-230.3" font-family="Times,serif" font-size="14.00">sequence: unload_parallel_box1_after_task</text>
</g>
<!-- selector: insert_shaft1_into_gearbase_hole1&#45;&gt;sequence: unload_parallel_box1_after_task -->
<g id="edge19" class="edge">
<title>selector: insert_shaft1_into_gearbase_hole1&#45;&gt;sequence: unload_parallel_box1_after_task</title>
<path fill="none" stroke="black" d="M3358.97,-292.92C3384.25,-291.09 3410.26,-289.36 3434.78,-288 3901.25,-262.08 4449.2,-246.63 4741.71,-239.59"/>
<polygon fill="black" stroke="black" points="4742.1,-243.08 4752.01,-239.34 4741.93,-236.08 4742.1,-243.08"/>
</g>
<!-- selector: check_and_unload_outward_claw -->
<g id="node5" class="node">
<title>selector: check_and_unload_outward_claw</title>
<ellipse fill="none" stroke="black" cx="418.78" cy="-162" rx="205.26" ry="18"/>
<text text-anchor="middle" x="418.78" y="-158.3" font-family="Times,serif" font-size="14.00">selector: check_and_unload_outward_claw</text>
</g>
<!-- sequence: unload_outward_claw_and_load_parallel_box1&#45;&gt;selector: check_and_unload_outward_claw -->
<g id="edge2" class="edge">
<title>sequence: unload_outward_claw_and_load_parallel_box1&#45;&gt;selector: check_and_unload_outward_claw</title>
<path fill="none" stroke="black" d="M1076,-219.38C929.64,-206.82 713.93,-188.32 570.02,-175.97"/>
<polygon fill="black" stroke="black" points="570.04,-172.46 559.78,-175.1 569.44,-179.44 570.04,-172.46"/>
</g>
<!-- precondition: is_equippable(parallel_box1) -->
<g id="node13" class="node">
<title>precondition: is_equippable(parallel_box1)</title>
<ellipse fill="none" stroke="black" cx="849.78" cy="-162" rx="207.16" ry="18"/>
<text text-anchor="middle" x="849.78" y="-158.3" font-family="Times,serif" font-size="14.00">precondition: is_equippable(parallel_box1)</text>
</g>
<!-- sequence: unload_outward_claw_and_load_parallel_box1&#45;&gt;precondition: is_equippable(parallel_box1) -->
<g id="edge8" class="edge">
<title>sequence: unload_outward_claw_and_load_parallel_box1&#45;&gt;precondition: is_equippable(parallel_box1)</title>
<path fill="none" stroke="black" d="M1146.46,-216.94C1086.21,-205.99 1006.48,-191.49 944.84,-180.28"/>
<polygon fill="black" stroke="black" points="945.19,-176.79 934.72,-178.44 943.94,-183.68 945.19,-176.79"/>
</g>
<!-- precondition: is_free(left_hand)* -->
<g id="node14" class="node">
<title>precondition: is_free(left_hand)*</title>
<ellipse fill="none" stroke="black" cx="1234.78" cy="-162" rx="159.77" ry="18"/>
<text text-anchor="middle" x="1234.78" y="-158.3" font-family="Times,serif" font-size="14.00">precondition: is_free(left_hand)*</text>
</g>
<!-- sequence: unload_outward_claw_and_load_parallel_box1&#45;&gt;precondition: is_free(left_hand)* -->
<g id="edge9" class="edge">
<title>sequence: unload_outward_claw_and_load_parallel_box1&#45;&gt;precondition: is_free(left_hand)*</title>
<path fill="none" stroke="black" d="M1234.78,-215.7C1234.78,-207.98 1234.78,-198.71 1234.78,-190.11"/>
<polygon fill="black" stroke="black" points="1238.28,-190.1 1234.78,-180.1 1231.28,-190.1 1238.28,-190.1"/>
</g>
<!-- action: load_tool(left_hand, parallel_box1) -->
<g id="node15" class="node">
<title>action: load_tool(left_hand, parallel_box1)</title>
<ellipse fill="none" stroke="black" cx="1616.78" cy="-162" rx="204.16" ry="18"/>
<text text-anchor="middle" x="1616.78" y="-158.3" font-family="Times,serif" font-size="14.00">action: load_tool(left_hand, parallel_box1)</text>
</g>
<!-- sequence: unload_outward_claw_and_load_parallel_box1&#45;&gt;action: load_tool(left_hand, parallel_box1) -->
<g id="edge10" class="edge">
<title>sequence: unload_outward_claw_and_load_parallel_box1&#45;&gt;action: load_tool(left_hand, parallel_box1)</title>
<path fill="none" stroke="black" d="M1322.42,-216.94C1382.2,-205.99 1461.31,-191.49 1522.47,-180.28"/>
<polygon fill="black" stroke="black" points="1523.3,-183.69 1532.51,-178.44 1522.04,-176.8 1523.3,-183.69"/>
</g>
<!-- precondition: is_free(left_hand) -->
<g id="node7" class="node">
<title>precondition: is_free(left_hand)</title>
<ellipse fill="none" stroke="black" cx="252.78" cy="-90" rx="155.17" ry="18"/>
<text text-anchor="middle" x="252.78" y="-86.3" font-family="Times,serif" font-size="14.00">precondition: is_free(left_hand)</text>
</g>
<!-- selector: check_and_unload_outward_claw&#45;&gt;precondition: is_free(left_hand) -->
<g id="edge3" class="edge">
<title>selector: check_and_unload_outward_claw&#45;&gt;precondition: is_free(left_hand)</title>
<path fill="none" stroke="black" d="M379.02,-144.23C355.74,-134.41 326.15,-121.94 301.48,-111.53"/>
<polygon fill="black" stroke="black" points="302.51,-108.17 291.93,-107.51 299.79,-114.62 302.51,-108.17"/>
</g>
<!-- sequence: unload_outward_claw -->
<g id="node8" class="node">
<title>sequence: unload_outward_claw</title>
<ellipse fill="none" stroke="black" cx="585.78" cy="-90" rx="159.47" ry="18"/>
<text text-anchor="middle" x="585.78" y="-86.3" font-family="Times,serif" font-size="14.00">sequence: unload_outward_claw</text>
</g>
<!-- selector: check_and_unload_outward_claw&#45;&gt;sequence: unload_outward_claw -->
<g id="edge4" class="edge">
<title>selector: check_and_unload_outward_claw&#45;&gt;sequence: unload_outward_claw</title>
<path fill="none" stroke="black" d="M458.78,-144.23C482.32,-134.37 512.24,-121.83 537.13,-111.39"/>
<polygon fill="black" stroke="black" points="538.53,-114.6 546.4,-107.51 535.82,-108.15 538.53,-114.6"/>
</g>
<!-- precondition -->
<g id="node6" class="node">
<title>precondition</title>
<ellipse fill="gray" stroke="black" cx="3550.78" cy="-306" rx="107.27" ry="18"/>
<text text-anchor="middle" x="3550.78" y="-303.8" font-family="Times,serif" font-size="9.00">precondition: is_free(parallel_box1)*</text>
</g>
<!-- precondition: is_free(outward_claw) -->
<g id="node9" class="node">
<title>precondition: is_free(outward_claw)</title>
<ellipse fill="none" stroke="black" cx="176.78" cy="-18" rx="176.57" ry="18"/>
<text text-anchor="middle" x="176.78" y="-14.3" font-family="Times,serif" font-size="14.00">precondition: is_free(outward_claw)</text>
</g>
<!-- sequence: unload_outward_claw&#45;&gt;precondition: is_free(outward_claw) -->
<g id="edge5" class="edge">
<title>sequence: unload_outward_claw&#45;&gt;precondition: is_free(outward_claw)</title>
<path fill="none" stroke="black" d="M502.03,-74.67C435.54,-63.29 342.51,-47.36 272.97,-35.46"/>
<polygon fill="black" stroke="black" points="273.34,-31.97 262.89,-33.74 272.16,-38.87 273.34,-31.97"/>
</g>
<!-- precondition: hold(left_hand, outward_claw) -->
<g id="node10" class="node">
<title>precondition: hold(left_hand, outward_claw)</title>
<ellipse fill="none" stroke="black" cx="585.78" cy="-18" rx="214.46" ry="18"/>
<text text-anchor="middle" x="585.78" y="-14.3" font-family="Times,serif" font-size="14.00">precondition: hold(left_hand, outward_claw)</text>
</g>
<!-- sequence: unload_outward_claw&#45;&gt;precondition: hold(left_hand, outward_claw) -->
<g id="edge6" class="edge">
<title>sequence: unload_outward_claw&#45;&gt;precondition: hold(left_hand, outward_claw)</title>
<path fill="none" stroke="black" d="M585.78,-71.7C585.78,-63.98 585.78,-54.71 585.78,-46.11"/>
<polygon fill="black" stroke="black" points="589.28,-46.1 585.78,-36.1 582.28,-46.1 589.28,-46.1"/>
</g>
<!-- action: unload_tool(left_hand, outward_claw) -->
<g id="node12" class="node">
<title>action: unload_tool(left_hand, outward_claw)</title>
<ellipse fill="none" stroke="black" cx="1035.78" cy="-18" rx="217.96" ry="18"/>
<text text-anchor="middle" x="1035.78" y="-14.3" font-family="Times,serif" font-size="14.00">action: unload_tool(left_hand, outward_claw)</text>
</g>
<!-- sequence: unload_outward_claw&#45;&gt;action: unload_tool(left_hand, outward_claw) -->
<g id="edge7" class="edge">
<title>sequence: unload_outward_claw&#45;&gt;action: unload_tool(left_hand, outward_claw)</title>
<path fill="none" stroke="black" d="M675.23,-75.09C747.96,-63.77 850.82,-47.77 928.07,-35.75"/>
<polygon fill="black" stroke="black" points="928.98,-39.16 938.32,-34.16 927.9,-32.24 928.98,-39.16"/>
</g>
<!-- action -->
<g id="node11" class="node">
<title>action</title>
<ellipse fill="gray" stroke="black" cx="3804.78" cy="-306" rx="129" ry="18"/>
<text text-anchor="middle" x="3804.78" y="-303.8" font-family="Times,serif" font-size="9.00">action: unload_tool(left_hand, parallel_box1)</text>
</g>
<!-- precondition: can_manipulate(parallel_box1, shaft1) -->
<g id="node17" class="node">
<title>precondition: can_manipulate(parallel_box1, shaft1)</title>
<ellipse fill="none" stroke="black" cx="2090.78" cy="-162" rx="251.56" ry="18"/>
<text text-anchor="middle" x="2090.78" y="-158.3" font-family="Times,serif" font-size="14.00">precondition: can_manipulate(parallel_box1, shaft1)</text>
</g>
<!-- sequence: pick_up_shaft1_with_parallel_box1&#45;&gt;precondition: can_manipulate(parallel_box1, shaft1) -->
<g id="edge12" class="edge">
<title>sequence: pick_up_shaft1_with_parallel_box1&#45;&gt;precondition: can_manipulate(parallel_box1, shaft1)</title>
<path fill="none" stroke="black" d="M2619.55,-219.34C2509.08,-207.57 2349.75,-190.59 2234.89,-178.35"/>
<polygon fill="black" stroke="black" points="2234.93,-174.84 2224.62,-177.26 2234.19,-181.8 2234.93,-174.84"/>
</g>
<!-- precondition: is_free(parallel_box1) -->
<g id="node18" class="node">
<title>precondition: is_free(parallel_box1)</title>
<ellipse fill="none" stroke="black" cx="2534.78" cy="-162" rx="174.67" ry="18"/>
<text text-anchor="middle" x="2534.78" y="-158.3" font-family="Times,serif" font-size="14.00">precondition: is_free(parallel_box1)</text>
</g>
<!-- sequence: pick_up_shaft1_with_parallel_box1&#45;&gt;precondition: is_free(parallel_box1) -->
<g id="edge13" class="edge">
<title>sequence: pick_up_shaft1_with_parallel_box1&#45;&gt;precondition: is_free(parallel_box1)</title>
<path fill="none" stroke="black" d="M2697.31,-216.41C2666.42,-206.26 2626.76,-193.23 2594.34,-182.57"/>
<polygon fill="black" stroke="black" points="2595.13,-179.15 2584.53,-179.35 2592.94,-185.8 2595.13,-179.15"/>
</g>
<!-- action: pick_up(left_hand, parallel_box1, shaft1) -->
<g id="node19" class="node">
<title>action: pick_up(left_hand, parallel_box1, shaft1)</title>
<ellipse fill="none" stroke="black" cx="2960.78" cy="-162" rx="232.86" ry="18"/>
<text text-anchor="middle" x="2960.78" y="-158.3" font-family="Times,serif" font-size="14.00">action: pick_up(left_hand, parallel_box1, shaft1)</text>
</g>
<!-- sequence: pick_up_shaft1_with_parallel_box1&#45;&gt;action: pick_up(left_hand, parallel_box1, shaft1) -->
<g id="edge14" class="edge">
<title>sequence: pick_up_shaft1_with_parallel_box1&#45;&gt;action: pick_up(left_hand, parallel_box1, shaft1)</title>
<path fill="none" stroke="black" d="M2798.26,-216.41C2828.92,-206.34 2868.24,-193.41 2900.52,-182.8"/>
<polygon fill="black" stroke="black" points="2901.89,-186.04 2910.3,-179.59 2899.71,-179.39 2901.89,-186.04"/>
</g>
<!-- precondition: can_insert_to(shaft1, gearbase_hole1) -->
<g id="node21" class="node">
<title>precondition: can_insert_to(shaft1, gearbase_hole1)</title>
<ellipse fill="none" stroke="black" cx="3462.78" cy="-162" rx="250.76" ry="18"/>
<text text-anchor="middle" x="3462.78" y="-158.3" font-family="Times,serif" font-size="14.00">precondition: can_insert_to(shaft1, gearbase_hole1)</text>
</g>
<!-- sequence: insert_shaft1_into_gearbase_hole1&#45;&gt;precondition: can_insert_to(shaft1, gearbase_hole1) -->
<g id="edge16" class="edge">
<title>sequence: insert_shaft1_into_gearbase_hole1&#45;&gt;precondition: can_insert_to(shaft1, gearbase_hole1)</title>
<path fill="none" stroke="black" d="M3641.63,-216.5C3607.66,-206.34 3563.94,-193.26 3528.23,-182.58"/>
<polygon fill="black" stroke="black" points="3528.97,-179.15 3518.38,-179.63 3526.96,-185.85 3528.97,-179.15"/>
</g>
<!-- precondition: hold(parallel_box1, shaft1) -->
<g id="node22" class="node">
<title>precondition: hold(parallel_box1, shaft1)</title>
<ellipse fill="none" stroke="black" cx="3930.78" cy="-162" rx="198.76" ry="18"/>
<text text-anchor="middle" x="3930.78" y="-158.3" font-family="Times,serif" font-size="14.00">precondition: hold(parallel_box1, shaft1)</text>
</g>
<!-- sequence: insert_shaft1_into_gearbase_hole1&#45;&gt;precondition: hold(parallel_box1, shaft1) -->
<g id="edge17" class="edge">
<title>sequence: insert_shaft1_into_gearbase_hole1&#45;&gt;precondition: hold(parallel_box1, shaft1)</title>
<path fill="none" stroke="black" d="M3751.94,-216.5C3786.15,-206.27 3830.26,-193.07 3866.12,-182.34"/>
<polygon fill="black" stroke="black" points="3867.42,-185.61 3876,-179.39 3865.41,-178.9 3867.42,-185.61"/>
</g>
<!-- action: insert(left_hand, parallel_box1, shaft1, gearbase_hole1) -->
<g id="node23" class="node">
<title>action: insert(left_hand, parallel_box1, shaft1, gearbase_hole1)</title>
<ellipse fill="none" stroke="black" cx="4450.78" cy="-162" rx="302.75" ry="18"/>
<text text-anchor="middle" x="4450.78" y="-158.3" font-family="Times,serif" font-size="14.00">action: insert(left_hand, parallel_box1, shaft1, gearbase_hole1)</text>
</g>
<!-- sequence: insert_shaft1_into_gearbase_hole1&#45;&gt;action: insert(left_hand, parallel_box1, shaft1, gearbase_hole1) -->
<g id="edge18" class="edge">
<title>sequence: insert_shaft1_into_gearbase_hole1&#45;&gt;action: insert(left_hand, parallel_box1, shaft1, gearbase_hole1)</title>
<path fill="none" stroke="black" d="M3836.4,-220.04C3963.27,-208.26 4150.63,-190.87 4285.05,-178.39"/>
<polygon fill="black" stroke="black" points="4285.41,-181.87 4295.04,-177.46 4284.76,-174.9 4285.41,-181.87"/>
</g>
<!-- precondition: is_free(parallel_box1)* -->
<g id="node25" class="node">
<title>precondition: is_free(parallel_box1)*</title>
<ellipse fill="none" stroke="black" cx="4950.78" cy="-162" rx="178.97" ry="18"/>
<text text-anchor="middle" x="4950.78" y="-158.3" font-family="Times,serif" font-size="14.00">precondition: is_free(parallel_box1)*</text>
</g>
<!-- sequence: unload_parallel_box1_after_task&#45;&gt;precondition: is_free(parallel_box1)* -->
<g id="edge20" class="edge">
<title>sequence: unload_parallel_box1_after_task&#45;&gt;precondition: is_free(parallel_box1)*</title>
<path fill="none" stroke="black" d="M4950.78,-215.7C4950.78,-207.98 4950.78,-198.71 4950.78,-190.11"/>
<polygon fill="black" stroke="black" points="4954.28,-190.1 4950.78,-180.1 4947.28,-190.1 4954.28,-190.1"/>
</g>
<!-- action: unload_tool(left_hand, parallel_box1) -->
<g id="node26" class="node">
<title>action: unload_tool(left_hand, parallel_box1)</title>
<ellipse fill="none" stroke="black" cx="5363.78" cy="-162" rx="215.56" ry="18"/>
<text text-anchor="middle" x="5363.78" y="-158.3" font-family="Times,serif" font-size="14.00">action: unload_tool(left_hand, parallel_box1)</text>
</g>
<!-- sequence: unload_parallel_box1_after_task&#45;&gt;action: unload_tool(left_hand, parallel_box1) -->
<g id="edge21" class="edge">
<title>sequence: unload_parallel_box1_after_task&#45;&gt;action: unload_tool(left_hand, parallel_box1)</title>
<path fill="none" stroke="black" d="M5040.91,-217.72C5106.51,-206.61 5195.38,-191.54 5263.28,-180.03"/>
<polygon fill="black" stroke="black" points="5263.87,-183.49 5273.14,-178.36 5262.7,-176.58 5263.87,-183.49"/>
</g>
</g>
</svg>
