<?xml version="1.0" encoding="UTF-8" standalone="no"?>
<!DOCTYPE svg PUBLIC "-//W3C//DTD SVG 1.1//EN"
 "http://www.w3.org/Graphics/SVG/1.1/DTD/svg11.dtd">
<!-- Generated by graphviz version 2.43.0 (0)
 -->
<!-- Title: pastafarianism Pages: 1 -->
<svg width="2823pt" height="332pt"
 viewBox="0.00 0.00 2823.31 332.00" xmlns="http://www.w3.org/2000/svg" xmlns:xlink="http://www.w3.org/1999/xlink">
<g id="graph0" class="graph" transform="scale(1 1) rotate(0) translate(4 328)">
<title>pastafarianism</title>
<polygon fill="white" stroke="transparent" points="-4,4 -4,-328 2819.31,-328 2819.31,4 -4,4"/>
<!-- selector -->
<g id="node1" class="node">
<title>selector</title>
<polygon fill="cyan" stroke="black" points="437.24,-298.54 437.24,-313.46 346.47,-324 218.1,-324 127.32,-313.46 127.32,-298.54 218.1,-288 346.47,-288 437.24,-298.54"/>
<text text-anchor="middle" x="282.28" y="-303.8" font-family="Times,serif" font-size="9.00">selector: pick_up(left_hand, clampgripper, shaft1)</text>
</g>
<!-- target -->
<g id="node2" class="node">
<title>target</title>
<ellipse fill="gray" stroke="black" cx="556.28" cy="-306" rx="101.07" ry="18"/>
<text text-anchor="middle" x="556.28" y="-303.8" font-family="Times,serif" font-size="9.00">target: hold(clampgripper, shaft1)</text>
</g>
<!-- selector: insert(left_hand, clampgripper, shaft1, gearbase_hole1) -->
<g id="node3" class="node">
<title>selector: insert(left_hand, clampgripper, shaft1, gearbase_hole1)</title>
<ellipse fill="none" stroke="black" cx="986.28" cy="-306" rx="311.14" ry="18"/>
<text text-anchor="middle" x="986.28" y="-302.3" font-family="Times,serif" font-size="14.00">selector: insert(left_hand, clampgripper, shaft1, gearbase_hole1)</text>
</g>
<!-- target: is_inserted_to(shaft1, gearbase_hole1) -->
<g id="node4" class="node">
<title>target: is_inserted_to(shaft1, gearbase_hole1)</title>
<ellipse fill="none" stroke="black" cx="707.28" cy="-234" rx="223.66" ry="18"/>
<text text-anchor="middle" x="707.28" y="-230.3" font-family="Times,serif" font-size="14.00">target: is_inserted_to(shaft1, gearbase_hole1)</text>
</g>
<!-- selector: insert(left_hand, clampgripper, shaft1, gearbase_hole1)&#45;&gt;target: is_inserted_to(shaft1, gearbase_hole1) -->
<g id="edge1" class="edge">
<title>selector: insert(left_hand, clampgripper, shaft1, gearbase_hole1)&#45;&gt;target: is_inserted_to(shaft1, gearbase_hole1)</title>
<path fill="none" stroke="black" d="M919.81,-288.32C878.39,-277.93 825.01,-264.54 782.11,-253.77"/>
<polygon fill="black" stroke="black" points="782.84,-250.35 772.28,-251.31 781.13,-257.14 782.84,-250.35"/>
</g>
<!-- sequence: insert(left_hand, clampgripper, shaft1, gearbase_hole1) -->
<g id="node6" class="node">
<title>sequence: insert(left_hand, clampgripper, shaft1, gearbase_hole1)</title>
<ellipse fill="none" stroke="black" cx="1266.28" cy="-234" rx="317.34" ry="18"/>
<text text-anchor="middle" x="1266.28" y="-230.3" font-family="Times,serif" font-size="14.00">sequence: insert(left_hand, clampgripper, shaft1, gearbase_hole1)</text>
</g>
<!-- selector: insert(left_hand, clampgripper, shaft1, gearbase_hole1)&#45;&gt;sequence: insert(left_hand, clampgripper, shaft1, gearbase_hole1) -->
<g id="edge2" class="edge">
<title>selector: insert(left_hand, clampgripper, shaft1, gearbase_hole1)&#45;&gt;sequence: insert(left_hand, clampgripper, shaft1, gearbase_hole1)</title>
<path fill="none" stroke="black" d="M1052.64,-288.41C1093.75,-278.13 1146.7,-264.9 1189.6,-254.17"/>
<polygon fill="black" stroke="black" points="1190.58,-257.53 1199.43,-251.71 1188.88,-250.74 1190.58,-257.53"/>
</g>
<!-- sequence -->
<g id="node5" class="node">
<title>sequence</title>
<polygon fill="orange" stroke="black" points="1569.28,-324 1315.28,-324 1315.28,-288 1569.28,-288 1569.28,-324"/>
<text text-anchor="middle" x="1442.28" y="-303.8" font-family="Times,serif" font-size="9.00">sequence: pick_up(left_hand, clampgripper, shaft1)</text>
</g>
<!-- selector: change_tool(left_hand, outwardgripper, clampgripper) -->
<g id="node7" class="node">
<title>selector: change_tool(left_hand, outwardgripper, clampgripper)</title>
<ellipse fill="none" stroke="black" cx="696.28" cy="-162" rx="304.65" ry="18"/>
<text text-anchor="middle" x="696.28" y="-158.3" font-family="Times,serif" font-size="14.00">selector: change_tool(left_hand, outwardgripper, clampgripper)</text>
</g>
<!-- sequence: insert(left_hand, clampgripper, shaft1, gearbase_hole1)&#45;&gt;selector: change_tool(left_hand, outwardgripper, clampgripper) -->
<g id="edge3" class="edge">
<title>sequence: insert(left_hand, clampgripper, shaft1, gearbase_hole1)&#45;&gt;selector: change_tool(left_hand, outwardgripper, clampgripper)</title>
<path fill="none" stroke="black" d="M1139.78,-217.46C1048.49,-206.25 925.37,-191.13 832.02,-179.67"/>
<polygon fill="black" stroke="black" points="832.29,-176.18 821.94,-178.43 831.44,-183.12 832.29,-176.18"/>
</g>
<!-- selector: pick_up(left_hand, clampgripper, shaft1) -->
<g id="node15" class="node">
<title>selector: pick_up(left_hand, clampgripper, shaft1)</title>
<ellipse fill="none" stroke="black" cx="1266.28" cy="-162" rx="241.26" ry="18"/>
<text text-anchor="middle" x="1266.28" y="-158.3" font-family="Times,serif" font-size="14.00">selector: pick_up(left_hand, clampgripper, shaft1)</text>
</g>
<!-- sequence: insert(left_hand, clampgripper, shaft1, gearbase_hole1)&#45;&gt;selector: pick_up(left_hand, clampgripper, shaft1) -->
<g id="edge9" class="edge">
<title>sequence: insert(left_hand, clampgripper, shaft1, gearbase_hole1)&#45;&gt;selector: pick_up(left_hand, clampgripper, shaft1)</title>
<path fill="none" stroke="black" d="M1266.28,-215.7C1266.28,-207.98 1266.28,-198.71 1266.28,-190.11"/>
<polygon fill="black" stroke="black" points="1269.78,-190.1 1266.28,-180.1 1262.78,-190.1 1269.78,-190.1"/>
</g>
<!-- action: insert(left_hand, clampgripper, shaft1, gearbase_hole1) -->
<g id="node21" class="node">
<title>action: insert(left_hand, clampgripper, shaft1, gearbase_hole1)</title>
<ellipse fill="none" stroke="black" cx="1827.28" cy="-162" rx="302.45" ry="18"/>
<text text-anchor="middle" x="1827.28" y="-158.3" font-family="Times,serif" font-size="14.00">action: insert(left_hand, clampgripper, shaft1, gearbase_hole1)</text>
</g>
<!-- sequence: insert(left_hand, clampgripper, shaft1, gearbase_hole1)&#45;&gt;action: insert(left_hand, clampgripper, shaft1, gearbase_hole1) -->
<g id="edge15" class="edge">
<title>sequence: insert(left_hand, clampgripper, shaft1, gearbase_hole1)&#45;&gt;action: insert(left_hand, clampgripper, shaft1, gearbase_hole1)</title>
<path fill="none" stroke="black" d="M1391.14,-217.42C1480.76,-206.24 1601.41,-191.18 1693.09,-179.74"/>
<polygon fill="black" stroke="black" points="1693.79,-183.18 1703.28,-178.47 1692.92,-176.24 1693.79,-183.18"/>
</g>
<!-- target: hold(left_hand, clampgripper) -->
<g id="node8" class="node">
<title>target: hold(left_hand, clampgripper)</title>
<ellipse fill="none" stroke="black" cx="183.28" cy="-90" rx="183.07" ry="18"/>
<text text-anchor="middle" x="183.28" y="-86.3" font-family="Times,serif" font-size="14.00">target: hold(left_hand, clampgripper)</text>
</g>
<!-- selector: change_tool(left_hand, outwardgripper, clampgripper)&#45;&gt;target: hold(left_hand, clampgripper) -->
<g id="edge4" class="edge">
<title>selector: change_tool(left_hand, outwardgripper, clampgripper)&#45;&gt;target: hold(left_hand, clampgripper)</title>
<path fill="none" stroke="black" d="M581.16,-145.29C496,-133.67 380.6,-117.92 296.01,-106.38"/>
<polygon fill="black" stroke="black" points="296.24,-102.88 285.85,-105 295.29,-109.82 296.24,-102.88"/>
</g>
<!-- sequence: change_tool(left_hand, outwardgripper, clampgripper) -->
<g id="node9" class="node">
<title>sequence: change_tool(left_hand, outwardgripper, clampgripper)</title>
<ellipse fill="none" stroke="black" cx="696.28" cy="-90" rx="311.14" ry="18"/>
<text text-anchor="middle" x="696.28" y="-86.3" font-family="Times,serif" font-size="14.00">sequence: change_tool(left_hand, outwardgripper, clampgripper)</text>
</g>
<!-- selector: change_tool(left_hand, outwardgripper, clampgripper)&#45;&gt;sequence: change_tool(left_hand, outwardgripper, clampgripper) -->
<g id="edge5" class="edge">
<title>selector: change_tool(left_hand, outwardgripper, clampgripper)&#45;&gt;sequence: change_tool(left_hand, outwardgripper, clampgripper)</title>
<path fill="none" stroke="black" d="M696.28,-143.7C696.28,-135.98 696.28,-126.71 696.28,-118.11"/>
<polygon fill="black" stroke="black" points="699.78,-118.1 696.28,-108.1 692.78,-118.1 699.78,-118.1"/>
</g>
<!-- precondition: hold(left_hand, outwardgripper) -->
<g id="node11" class="node">
<title>precondition: hold(left_hand, outwardgripper)</title>
<ellipse fill="none" stroke="black" cx="255.28" cy="-18" rx="223.66" ry="18"/>
<text text-anchor="middle" x="255.28" y="-14.3" font-family="Times,serif" font-size="14.00">precondition: hold(left_hand, outwardgripper)</text>
</g>
<!-- sequence: change_tool(left_hand, outwardgripper, clampgripper)&#45;&gt;precondition: hold(left_hand, outwardgripper) -->
<g id="edge6" class="edge">
<title>sequence: change_tool(left_hand, outwardgripper, clampgripper)&#45;&gt;precondition: hold(left_hand, outwardgripper)</title>
<path fill="none" stroke="black" d="M595.11,-72.94C525.31,-61.86 432.67,-47.16 361.75,-35.9"/>
<polygon fill="black" stroke="black" points="361.88,-32.38 351.45,-34.26 360.78,-39.29 361.88,-32.38"/>
</g>
<!-- precondition: is_empty(outwardgripper) -->
<g id="node12" class="node">
<title>precondition: is_empty(outwardgripper)</title>
<ellipse fill="none" stroke="black" cx="693.28" cy="-18" rx="196.07" ry="18"/>
<text text-anchor="middle" x="693.28" y="-14.3" font-family="Times,serif" font-size="14.00">precondition: is_empty(outwardgripper)</text>
</g>
<!-- sequence: change_tool(left_hand, outwardgripper, clampgripper)&#45;&gt;precondition: is_empty(outwardgripper) -->
<g id="edge7" class="edge">
<title>sequence: change_tool(left_hand, outwardgripper, clampgripper)&#45;&gt;precondition: is_empty(outwardgripper)</title>
<path fill="none" stroke="black" d="M695.54,-71.7C695.21,-63.98 694.81,-54.71 694.45,-46.11"/>
<polygon fill="black" stroke="black" points="697.94,-45.95 694.02,-36.1 690.95,-46.25 697.94,-45.95"/>
</g>
<!-- action: change_tool(left_hand, outwardgripper, clampgripper) -->
<g id="node14" class="node">
<title>action: change_tool(left_hand, outwardgripper, clampgripper)</title>
<ellipse fill="none" stroke="black" cx="1203.28" cy="-18" rx="295.95" ry="18"/>
<text text-anchor="middle" x="1203.28" y="-14.3" font-family="Times,serif" font-size="14.00">action: change_tool(left_hand, outwardgripper, clampgripper)</text>
</g>
<!-- sequence: change_tool(left_hand, outwardgripper, clampgripper)&#45;&gt;action: change_tool(left_hand, outwardgripper, clampgripper) -->
<g id="edge8" class="edge">
<title>sequence: change_tool(left_hand, outwardgripper, clampgripper)&#45;&gt;action: change_tool(left_hand, outwardgripper, clampgripper)</title>
<path fill="none" stroke="black" d="M810.38,-73.25C890.55,-62.18 997.72,-47.38 1079.88,-36.04"/>
<polygon fill="black" stroke="black" points="1080.59,-39.47 1090.02,-34.64 1079.64,-32.54 1080.59,-39.47"/>
</g>
<!-- precondition -->
<g id="node10" class="node">
<title>precondition</title>
<ellipse fill="gray" stroke="black" cx="1715.28" cy="-306" rx="127.69" ry="18"/>
<text text-anchor="middle" x="1715.28" y="-303.8" font-family="Times,serif" font-size="9.00">precondition: hold(left_hand, clampgripper)</text>
</g>
<!-- action -->
<g id="node13" class="node">
<title>action</title>
<ellipse fill="gray" stroke="black" cx="2038.28" cy="-306" rx="177.65" ry="18"/>
<text text-anchor="middle" x="2038.28" y="-303.8" font-family="Times,serif" font-size="9.00">action: insert(left_hand, clampgripper, shaft1, gearbase_hole1)</text>
</g>
<!-- target: hold(clampgripper, shaft1) -->
<g id="node16" class="node">
<title>target: hold(clampgripper, shaft1)</title>
<ellipse fill="none" stroke="black" cx="1266.28" cy="-90" rx="168.97" ry="18"/>
<text text-anchor="middle" x="1266.28" y="-86.3" font-family="Times,serif" font-size="14.00">target: hold(clampgripper, shaft1)</text>
</g>
<!-- selector: pick_up(left_hand, clampgripper, shaft1)&#45;&gt;target: hold(clampgripper, shaft1) -->
<g id="edge10" class="edge">
<title>selector: pick_up(left_hand, clampgripper, shaft1)&#45;&gt;target: hold(clampgripper, shaft1)</title>
<path fill="none" stroke="black" d="M1266.28,-143.7C1266.28,-135.98 1266.28,-126.71 1266.28,-118.11"/>
<polygon fill="black" stroke="black" points="1269.78,-118.1 1266.28,-108.1 1262.78,-118.1 1269.78,-118.1"/>
</g>
<!-- sequence: pick_up(left_hand, clampgripper, shaft1) -->
<g id="node17" class="node">
<title>sequence: pick_up(left_hand, clampgripper, shaft1)</title>
<ellipse fill="none" stroke="black" cx="1911.28" cy="-90" rx="246.96" ry="18"/>
<text text-anchor="middle" x="1911.28" y="-86.3" font-family="Times,serif" font-size="14.00">sequence: pick_up(left_hand, clampgripper, shaft1)</text>
</g>
<!-- selector: pick_up(left_hand, clampgripper, shaft1)&#45;&gt;sequence: pick_up(left_hand, clampgripper, shaft1) -->
<g id="edge11" class="edge">
<title>selector: pick_up(left_hand, clampgripper, shaft1)&#45;&gt;sequence: pick_up(left_hand, clampgripper, shaft1)</title>
<path fill="none" stroke="black" d="M1396.81,-146.83C1505.08,-135.08 1658.73,-118.41 1769.9,-106.34"/>
<polygon fill="black" stroke="black" points="1770.28,-109.82 1779.85,-105.26 1769.53,-102.86 1770.28,-109.82"/>
</g>
<!-- precondition: is_empty(clampgripper) -->
<g id="node18" class="node">
<title>precondition: is_empty(clampgripper)</title>
<ellipse fill="none" stroke="black" cx="1703.28" cy="-18" rx="185.77" ry="18"/>
<text text-anchor="middle" x="1703.28" y="-14.3" font-family="Times,serif" font-size="14.00">precondition: is_empty(clampgripper)</text>
</g>
<!-- sequence: pick_up(left_hand, clampgripper, shaft1)&#45;&gt;precondition: is_empty(clampgripper) -->
<g id="edge12" class="edge">
<title>sequence: pick_up(left_hand, clampgripper, shaft1)&#45;&gt;precondition: is_empty(clampgripper)</title>
<path fill="none" stroke="black" d="M1861.73,-72.32C1831.67,-62.21 1793.17,-49.25 1761.64,-38.64"/>
<polygon fill="black" stroke="black" points="1762.7,-35.3 1752.1,-35.43 1760.46,-41.94 1762.7,-35.3"/>
</g>
<!-- precondition: hold(left_hand, clampgripper) -->
<g id="node19" class="node">
<title>precondition: hold(left_hand, clampgripper)</title>
<ellipse fill="none" stroke="black" cx="2120.28" cy="-18" rx="213.36" ry="18"/>
<text text-anchor="middle" x="2120.28" y="-14.3" font-family="Times,serif" font-size="14.00">precondition: hold(left_hand, clampgripper)</text>
</g>
<!-- sequence: pick_up(left_hand, clampgripper, shaft1)&#45;&gt;precondition: hold(left_hand, clampgripper) -->
<g id="edge13" class="edge">
<title>sequence: pick_up(left_hand, clampgripper, shaft1)&#45;&gt;precondition: hold(left_hand, clampgripper)</title>
<path fill="none" stroke="black" d="M1961.08,-72.32C1991.17,-62.24 2029.69,-49.34 2061.3,-38.76"/>
<polygon fill="black" stroke="black" points="2062.5,-42.04 2070.87,-35.55 2060.28,-35.41 2062.5,-42.04"/>
</g>
<!-- action: pick_up(left_hand, clampgripper, shaft1) -->
<g id="node20" class="node">
<title>action: pick_up(left_hand, clampgripper, shaft1)</title>
<ellipse fill="none" stroke="black" cx="2583.28" cy="-18" rx="232.06" ry="18"/>
<text text-anchor="middle" x="2583.28" y="-14.3" font-family="Times,serif" font-size="14.00">action: pick_up(left_hand, clampgripper, shaft1)</text>
</g>
<!-- sequence: pick_up(left_hand, clampgripper, shaft1)&#45;&gt;action: pick_up(left_hand, clampgripper, shaft1) -->
<g id="edge14" class="edge">
<title>sequence: pick_up(left_hand, clampgripper, shaft1)&#45;&gt;action: pick_up(left_hand, clampgripper, shaft1)</title>
<path fill="none" stroke="black" d="M2046.46,-74.92C2160.89,-63 2324.39,-45.97 2440.84,-33.84"/>
<polygon fill="black" stroke="black" points="2441.31,-37.31 2450.9,-32.79 2440.59,-30.35 2441.31,-37.31"/>
</g>
</g>
</svg>
