<?xml version="1.0" encoding="UTF-8" standalone="no"?>
<!DOCTYPE svg PUBLIC "-//W3C//DTD SVG 1.1//EN"
 "http://www.w3.org/Graphics/SVG/1.1/DTD/svg11.dtd">
<!-- Generated by graphviz version 2.43.0 (0)
 -->
<!-- Title: pastafarianism Pages: 1 -->
<svg width="3222pt" height="476pt"
 viewBox="0.00 0.00 3221.77 476.00" xmlns="http://www.w3.org/2000/svg" xmlns:xlink="http://www.w3.org/1999/xlink">
<g id="graph0" class="graph" transform="scale(1 1) rotate(0) translate(4 472)">
<title>pastafarianism</title>
<polygon fill="white" stroke="transparent" points="-4,4 -4,-472 3217.77,-472 3217.77,4 -4,4"/>
<!-- selector -->
<g id="node1" class="node">
<title>selector</title>
<polygon fill="cyan" stroke="black" points="905.05,-442.54 905.05,-457.46 814.28,-468 685.9,-468 595.13,-457.46 595.13,-442.54 685.9,-432 814.28,-432 905.05,-442.54"/>
<text text-anchor="middle" x="750.09" y="-447.8" font-family="Times,serif" font-size="9.00">selector: pick_up(left_hand, parallel_box1, shaft1)</text>
</g>
<!-- target -->
<g id="node2" class="node">
<title>target</title>
<ellipse fill="gray" stroke="black" cx="1025.09" cy="-450" rx="101.73" ry="18"/>
<text text-anchor="middle" x="1025.09" y="-447.8" font-family="Times,serif" font-size="9.00">target: hold(parallel_box1, shaft1)</text>
</g>
<!-- selector: insert(left_hand, parallel_box1, shaft1, gearbase_hole1) -->
<g id="node3" class="node">
<title>selector: insert(left_hand, parallel_box1, shaft1, gearbase_hole1)</title>
<ellipse fill="none" stroke="black" cx="1456.09" cy="-450" rx="311.14" ry="18"/>
<text text-anchor="middle" x="1456.09" y="-446.3" font-family="Times,serif" font-size="14.00">selector: insert(left_hand, parallel_box1, shaft1, gearbase_hole1)</text>
</g>
<!-- target: is_inserted_to(shaft1, gearbase_hole1) -->
<g id="node4" class="node">
<title>target: is_inserted_to(shaft1, gearbase_hole1)</title>
<ellipse fill="none" stroke="black" cx="1177.09" cy="-378" rx="223.66" ry="18"/>
<text text-anchor="middle" x="1177.09" y="-374.3" font-family="Times,serif" font-size="14.00">target: is_inserted_to(shaft1, gearbase_hole1)</text>
</g>
<!-- selector: insert(left_hand, parallel_box1, shaft1, gearbase_hole1)&#45;&gt;target: is_inserted_to(shaft1, gearbase_hole1) -->
<g id="edge1" class="edge">
<title>selector: insert(left_hand, parallel_box1, shaft1, gearbase_hole1)&#45;&gt;target: is_inserted_to(shaft1, gearbase_hole1)</title>
<path fill="none" stroke="black" d="M1389.62,-432.32C1348.2,-421.93 1294.81,-408.54 1251.91,-397.77"/>
<polygon fill="black" stroke="black" points="1252.64,-394.35 1242.09,-395.31 1250.94,-401.14 1252.64,-394.35"/>
</g>
<!-- sequence: insert(left_hand, parallel_box1, shaft1, gearbase_hole1) -->
<g id="node6" class="node">
<title>sequence: insert(left_hand, parallel_box1, shaft1, gearbase_hole1)</title>
<ellipse fill="none" stroke="black" cx="1736.09" cy="-378" rx="317.64" ry="18"/>
<text text-anchor="middle" x="1736.09" y="-374.3" font-family="Times,serif" font-size="14.00">sequence: insert(left_hand, parallel_box1, shaft1, gearbase_hole1)</text>
</g>
<!-- selector: insert(left_hand, parallel_box1, shaft1, gearbase_hole1)&#45;&gt;sequence: insert(left_hand, parallel_box1, shaft1, gearbase_hole1) -->
<g id="edge2" class="edge">
<title>selector: insert(left_hand, parallel_box1, shaft1, gearbase_hole1)&#45;&gt;sequence: insert(left_hand, parallel_box1, shaft1, gearbase_hole1)</title>
<path fill="none" stroke="black" d="M1522.44,-432.41C1563.55,-422.13 1616.5,-408.9 1659.41,-398.17"/>
<polygon fill="black" stroke="black" points="1660.39,-401.53 1669.24,-395.71 1658.69,-394.74 1660.39,-401.53"/>
</g>
<!-- sequence -->
<g id="node5" class="node">
<title>sequence</title>
<polygon fill="orange" stroke="black" points="2040.59,-468 1785.59,-468 1785.59,-432 2040.59,-432 2040.59,-468"/>
<text text-anchor="middle" x="1913.09" y="-447.8" font-family="Times,serif" font-size="9.00">sequence: pick_up(left_hand, parallel_box1, shaft1)</text>
</g>
<!-- selector: load_tool(left_hand, parallel_box1) -->
<g id="node7" class="node">
<title>selector: load_tool(left_hand, parallel_box1)</title>
<ellipse fill="none" stroke="black" cx="847.09" cy="-306" rx="212.56" ry="18"/>
<text text-anchor="middle" x="847.09" y="-302.3" font-family="Times,serif" font-size="14.00">selector: load_tool(left_hand, parallel_box1)</text>
</g>
<!-- sequence: insert(left_hand, parallel_box1, shaft1, gearbase_hole1)&#45;&gt;selector: load_tool(left_hand, parallel_box1) -->
<g id="edge3" class="edge">
<title>sequence: insert(left_hand, parallel_box1, shaft1, gearbase_hole1)&#45;&gt;selector: load_tool(left_hand, parallel_box1)</title>
<path fill="none" stroke="black" d="M1558.86,-363.04C1397.89,-350.37 1162.56,-331.84 1007.17,-319.6"/>
<polygon fill="black" stroke="black" points="1007.3,-316.1 997.05,-318.81 1006.75,-323.08 1007.3,-316.1"/>
</g>
<!-- selector: pick_up(left_hand, parallel_box1, shaft1) -->
<g id="node19" class="node">
<title>selector: pick_up(left_hand, parallel_box1, shaft1)</title>
<ellipse fill="none" stroke="black" cx="1481.09" cy="-306" rx="241.26" ry="18"/>
<text text-anchor="middle" x="1481.09" y="-302.3" font-family="Times,serif" font-size="14.00">selector: pick_up(left_hand, parallel_box1, shaft1)</text>
</g>
<!-- sequence: insert(left_hand, parallel_box1, shaft1, gearbase_hole1)&#45;&gt;selector: pick_up(left_hand, parallel_box1, shaft1) -->
<g id="edge13" class="edge">
<title>sequence: insert(left_hand, parallel_box1, shaft1, gearbase_hole1)&#45;&gt;selector: pick_up(left_hand, parallel_box1, shaft1)</title>
<path fill="none" stroke="black" d="M1675.33,-360.32C1637.99,-350.07 1590,-336.9 1551.07,-326.21"/>
<polygon fill="black" stroke="black" points="1551.95,-322.82 1541.38,-323.55 1550.1,-329.57 1551.95,-322.82"/>
</g>
<!-- precondition: can_insert_to(shaft1, gearbase_hole1) -->
<g id="node26" class="node">
<title>precondition: can_insert_to(shaft1, gearbase_hole1)</title>
<ellipse fill="none" stroke="black" cx="1991.09" cy="-306" rx="250.76" ry="18"/>
<text text-anchor="middle" x="1991.09" y="-302.3" font-family="Times,serif" font-size="14.00">precondition: can_insert_to(shaft1, gearbase_hole1)</text>
</g>
<!-- sequence: insert(left_hand, parallel_box1, shaft1, gearbase_hole1)&#45;&gt;precondition: can_insert_to(shaft1, gearbase_hole1) -->
<g id="edge20" class="edge">
<title>sequence: insert(left_hand, parallel_box1, shaft1, gearbase_hole1)&#45;&gt;precondition: can_insert_to(shaft1, gearbase_hole1)</title>
<path fill="none" stroke="black" d="M1796.84,-360.32C1834.19,-350.07 1882.18,-336.9 1921.11,-326.21"/>
<polygon fill="black" stroke="black" points="1922.08,-329.57 1930.8,-323.55 1920.23,-322.82 1922.08,-329.57"/>
</g>
<!-- action: insert(left_hand, parallel_box1, shaft1, gearbase_hole1) -->
<g id="node27" class="node">
<title>action: insert(left_hand, parallel_box1, shaft1, gearbase_hole1)</title>
<ellipse fill="none" stroke="black" cx="2563.09" cy="-306" rx="302.75" ry="18"/>
<text text-anchor="middle" x="2563.09" y="-302.3" font-family="Times,serif" font-size="14.00">action: insert(left_hand, parallel_box1, shaft1, gearbase_hole1)</text>
</g>
<!-- sequence: insert(left_hand, parallel_box1, shaft1, gearbase_hole1)&#45;&gt;action: insert(left_hand, parallel_box1, shaft1, gearbase_hole1) -->
<g id="edge21" class="edge">
<title>sequence: insert(left_hand, parallel_box1, shaft1, gearbase_hole1)&#45;&gt;action: insert(left_hand, parallel_box1, shaft1, gearbase_hole1)</title>
<path fill="none" stroke="black" d="M1904.94,-362.71C2045.3,-350.83 2244.4,-333.98 2386.79,-321.92"/>
<polygon fill="black" stroke="black" points="2387.27,-325.39 2396.94,-321.06 2386.68,-318.42 2387.27,-325.39"/>
</g>
<!-- target: hold(left_hand, parallel_box1) -->
<g id="node8" class="node">
<title>target: hold(left_hand, parallel_box1)</title>
<ellipse fill="none" stroke="black" cx="427.09" cy="-234" rx="182.77" ry="18"/>
<text text-anchor="middle" x="427.09" y="-230.3" font-family="Times,serif" font-size="14.00">target: hold(left_hand, parallel_box1)</text>
</g>
<!-- selector: load_tool(left_hand, parallel_box1)&#45;&gt;target: hold(left_hand, parallel_box1) -->
<g id="edge4" class="edge">
<title>selector: load_tool(left_hand, parallel_box1)&#45;&gt;target: hold(left_hand, parallel_box1)</title>
<path fill="none" stroke="black" d="M755.44,-289.72C687.57,-278.41 595.22,-263.02 525.74,-251.44"/>
<polygon fill="black" stroke="black" points="526.11,-247.95 515.67,-249.76 524.95,-254.86 526.11,-247.95"/>
</g>
<!-- sequence: load_tool(left_hand, parallel_box1) -->
<g id="node9" class="node">
<title>sequence: load_tool(left_hand, parallel_box1)</title>
<ellipse fill="none" stroke="black" cx="847.09" cy="-234" rx="219.06" ry="18"/>
<text text-anchor="middle" x="847.09" y="-230.3" font-family="Times,serif" font-size="14.00">sequence: load_tool(left_hand, parallel_box1)</text>
</g>
<!-- selector: load_tool(left_hand, parallel_box1)&#45;&gt;sequence: load_tool(left_hand, parallel_box1) -->
<g id="edge5" class="edge">
<title>selector: load_tool(left_hand, parallel_box1)&#45;&gt;sequence: load_tool(left_hand, parallel_box1)</title>
<path fill="none" stroke="black" d="M847.09,-287.7C847.09,-279.98 847.09,-270.71 847.09,-262.11"/>
<polygon fill="black" stroke="black" points="850.59,-262.1 847.09,-252.1 843.59,-262.1 850.59,-262.1"/>
</g>
<!-- selector: unload_tool(left_hand, outward_claw) -->
<g id="node10" class="node">
<title>selector: unload_tool(left_hand, outward_claw)</title>
<ellipse fill="none" stroke="black" cx="314.09" cy="-162" rx="226.36" ry="18"/>
<text text-anchor="middle" x="314.09" y="-158.3" font-family="Times,serif" font-size="14.00">selector: unload_tool(left_hand, outward_claw)</text>
</g>
<!-- sequence: load_tool(left_hand, parallel_box1)&#45;&gt;selector: unload_tool(left_hand, outward_claw) -->
<g id="edge6" class="edge">
<title>sequence: load_tool(left_hand, parallel_box1)&#45;&gt;selector: unload_tool(left_hand, outward_claw)</title>
<path fill="none" stroke="black" d="M736.33,-218.45C648.72,-206.95 526.52,-190.9 436.11,-179.03"/>
<polygon fill="black" stroke="black" points="436.45,-175.54 426.08,-177.71 435.54,-182.48 436.45,-175.54"/>
</g>
<!-- precondition: is_equippable(parallel_box1) -->
<g id="node17" class="node">
<title>precondition: is_equippable(parallel_box1)</title>
<ellipse fill="none" stroke="black" cx="766.09" cy="-162" rx="207.16" ry="18"/>
<text text-anchor="middle" x="766.09" y="-158.3" font-family="Times,serif" font-size="14.00">precondition: is_equippable(parallel_box1)</text>
</g>
<!-- sequence: load_tool(left_hand, parallel_box1)&#45;&gt;precondition: is_equippable(parallel_box1) -->
<g id="edge11" class="edge">
<title>sequence: load_tool(left_hand, parallel_box1)&#45;&gt;precondition: is_equippable(parallel_box1)</title>
<path fill="none" stroke="black" d="M827.48,-216.05C817.31,-207.26 804.71,-196.38 793.59,-186.76"/>
<polygon fill="black" stroke="black" points="795.65,-183.92 785.8,-180.03 791.07,-189.22 795.65,-183.92"/>
</g>
<!-- action: load_tool(left_hand, parallel_box1) -->
<g id="node18" class="node">
<title>action: load_tool(left_hand, parallel_box1)</title>
<ellipse fill="none" stroke="black" cx="1195.09" cy="-162" rx="204.16" ry="18"/>
<text text-anchor="middle" x="1195.09" y="-158.3" font-family="Times,serif" font-size="14.00">action: load_tool(left_hand, parallel_box1)</text>
</g>
<!-- sequence: load_tool(left_hand, parallel_box1)&#45;&gt;action: load_tool(left_hand, parallel_box1) -->
<g id="edge12" class="edge">
<title>sequence: load_tool(left_hand, parallel_box1)&#45;&gt;action: load_tool(left_hand, parallel_box1)</title>
<path fill="none" stroke="black" d="M926.06,-217.12C979.97,-206.27 1051.45,-191.89 1107.17,-180.68"/>
<polygon fill="black" stroke="black" points="1107.92,-184.1 1117.03,-178.7 1106.54,-177.24 1107.92,-184.1"/>
</g>
<!-- target: is_free(left_hand) -->
<g id="node11" class="node">
<title>target: is_free(left_hand)</title>
<ellipse fill="none" stroke="black" cx="126.09" cy="-90" rx="126.18" ry="18"/>
<text text-anchor="middle" x="126.09" y="-86.3" font-family="Times,serif" font-size="14.00">target: is_free(left_hand)</text>
</g>
<!-- selector: unload_tool(left_hand, outward_claw)&#45;&gt;target: is_free(left_hand) -->
<g id="edge7" class="edge">
<title>selector: unload_tool(left_hand, outward_claw)&#45;&gt;target: is_free(left_hand)</title>
<path fill="none" stroke="black" d="M269.06,-144.23C241.83,-134.09 206.99,-121.12 178.53,-110.52"/>
<polygon fill="black" stroke="black" points="179.73,-107.24 169.14,-107.03 177.29,-113.8 179.73,-107.24"/>
</g>
<!-- sequence: unload_tool(left_hand, outward_claw) -->
<g id="node12" class="node">
<title>sequence: unload_tool(left_hand, outward_claw)</title>
<ellipse fill="none" stroke="black" cx="503.09" cy="-90" rx="232.86" ry="18"/>
<text text-anchor="middle" x="503.09" y="-86.3" font-family="Times,serif" font-size="14.00">sequence: unload_tool(left_hand, outward_claw)</text>
</g>
<!-- selector: unload_tool(left_hand, outward_claw)&#45;&gt;sequence: unload_tool(left_hand, outward_claw) -->
<g id="edge8" class="edge">
<title>selector: unload_tool(left_hand, outward_claw)&#45;&gt;sequence: unload_tool(left_hand, outward_claw)</title>
<path fill="none" stroke="black" d="M359.36,-144.23C386.03,-134.36 419.95,-121.79 448.15,-111.35"/>
<polygon fill="black" stroke="black" points="449.7,-114.51 457.86,-107.75 447.27,-107.94 449.7,-114.51"/>
</g>
<!-- precondition: hold(left_hand, outward_claw) -->
<g id="node14" class="node">
<title>precondition: hold(left_hand, outward_claw)</title>
<ellipse fill="none" stroke="black" cx="278.09" cy="-18" rx="214.46" ry="18"/>
<text text-anchor="middle" x="278.09" y="-14.3" font-family="Times,serif" font-size="14.00">precondition: hold(left_hand, outward_claw)</text>
</g>
<!-- sequence: unload_tool(left_hand, outward_claw)&#45;&gt;precondition: hold(left_hand, outward_claw) -->
<g id="edge9" class="edge">
<title>sequence: unload_tool(left_hand, outward_claw)&#45;&gt;precondition: hold(left_hand, outward_claw)</title>
<path fill="none" stroke="black" d="M449.77,-72.41C417.12,-62.25 375.18,-49.21 340.93,-38.55"/>
<polygon fill="black" stroke="black" points="341.62,-35.1 331.03,-35.47 339.54,-41.78 341.62,-35.1"/>
</g>
<!-- action: unload_tool(left_hand, outward_claw) -->
<g id="node16" class="node">
<title>action: unload_tool(left_hand, outward_claw)</title>
<ellipse fill="none" stroke="black" cx="728.09" cy="-18" rx="217.96" ry="18"/>
<text text-anchor="middle" x="728.09" y="-14.3" font-family="Times,serif" font-size="14.00">action: unload_tool(left_hand, outward_claw)</text>
</g>
<!-- sequence: unload_tool(left_hand, outward_claw)&#45;&gt;action: unload_tool(left_hand, outward_claw) -->
<g id="edge10" class="edge">
<title>sequence: unload_tool(left_hand, outward_claw)&#45;&gt;action: unload_tool(left_hand, outward_claw)</title>
<path fill="none" stroke="black" d="M556.41,-72.41C589.06,-62.25 630.99,-49.21 665.25,-38.55"/>
<polygon fill="black" stroke="black" points="666.64,-41.78 675.15,-35.47 664.56,-35.1 666.64,-41.78"/>
</g>
<!-- precondition -->
<g id="node13" class="node">
<title>precondition</title>
<ellipse fill="gray" stroke="black" cx="2207.09" cy="-450" rx="148.26" ry="18"/>
<text text-anchor="middle" x="2207.09" y="-447.8" font-family="Times,serif" font-size="9.00">precondition: can_insert_to(shaft1, gearbase_hole1)</text>
</g>
<!-- action -->
<g id="node15" class="node">
<title>action</title>
<ellipse fill="gray" stroke="black" cx="2552.09" cy="-450" rx="178.3" ry="18"/>
<text text-anchor="middle" x="2552.09" y="-447.8" font-family="Times,serif" font-size="9.00">action: insert(left_hand, parallel_box1, shaft1, gearbase_hole1)</text>
</g>
<!-- target: hold(parallel_box1, shaft1) -->
<g id="node20" class="node">
<title>target: hold(parallel_box1, shaft1)</title>
<ellipse fill="none" stroke="black" cx="1481.09" cy="-234" rx="168.97" ry="18"/>
<text text-anchor="middle" x="1481.09" y="-230.3" font-family="Times,serif" font-size="14.00">target: hold(parallel_box1, shaft1)</text>
</g>
<!-- selector: pick_up(left_hand, parallel_box1, shaft1)&#45;&gt;target: hold(parallel_box1, shaft1) -->
<g id="edge14" class="edge">
<title>selector: pick_up(left_hand, parallel_box1, shaft1)&#45;&gt;target: hold(parallel_box1, shaft1)</title>
<path fill="none" stroke="black" d="M1481.09,-287.7C1481.09,-279.98 1481.09,-270.71 1481.09,-262.11"/>
<polygon fill="black" stroke="black" points="1484.59,-262.1 1481.09,-252.1 1477.59,-262.1 1484.59,-262.1"/>
</g>
<!-- sequence: pick_up(left_hand, parallel_box1, shaft1) -->
<g id="node21" class="node">
<title>sequence: pick_up(left_hand, parallel_box1, shaft1)</title>
<ellipse fill="none" stroke="black" cx="1997.09" cy="-234" rx="247.76" ry="18"/>
<text text-anchor="middle" x="1997.09" y="-230.3" font-family="Times,serif" font-size="14.00">sequence: pick_up(left_hand, parallel_box1, shaft1)</text>
</g>
<!-- selector: pick_up(left_hand, parallel_box1, shaft1)&#45;&gt;sequence: pick_up(left_hand, parallel_box1, shaft1) -->
<g id="edge15" class="edge">
<title>selector: pick_up(left_hand, parallel_box1, shaft1)&#45;&gt;sequence: pick_up(left_hand, parallel_box1, shaft1)</title>
<path fill="none" stroke="black" d="M1591.78,-289.98C1675.24,-278.66 1789.63,-263.14 1875.61,-251.48"/>
<polygon fill="black" stroke="black" points="1876.25,-254.93 1885.69,-250.11 1875.31,-247.99 1876.25,-254.93"/>
</g>
<!-- precondition: is_free(parallel_box1) -->
<g id="node22" class="node">
<title>precondition: is_free(parallel_box1)</title>
<ellipse fill="none" stroke="black" cx="1592.09" cy="-162" rx="174.67" ry="18"/>
<text text-anchor="middle" x="1592.09" y="-158.3" font-family="Times,serif" font-size="14.00">precondition: is_free(parallel_box1)</text>
</g>
<!-- sequence: pick_up(left_hand, parallel_box1, shaft1)&#45;&gt;precondition: is_free(parallel_box1) -->
<g id="edge16" class="edge">
<title>sequence: pick_up(left_hand, parallel_box1, shaft1)&#45;&gt;precondition: is_free(parallel_box1)</title>
<path fill="none" stroke="black" d="M1905.95,-217.25C1840.83,-205.99 1753.41,-190.88 1687.37,-179.47"/>
<polygon fill="black" stroke="black" points="1687.83,-176 1677.38,-177.74 1686.64,-182.89 1687.83,-176"/>
</g>
<!-- precondition: hold(left_hand, parallel_box1) -->
<g id="node23" class="node">
<title>precondition: hold(left_hand, parallel_box1)</title>
<ellipse fill="none" stroke="black" cx="1997.09" cy="-162" rx="212.56" ry="18"/>
<text text-anchor="middle" x="1997.09" y="-158.3" font-family="Times,serif" font-size="14.00">precondition: hold(left_hand, parallel_box1)</text>
</g>
<!-- sequence: pick_up(left_hand, parallel_box1, shaft1)&#45;&gt;precondition: hold(left_hand, parallel_box1) -->
<g id="edge17" class="edge">
<title>sequence: pick_up(left_hand, parallel_box1, shaft1)&#45;&gt;precondition: hold(left_hand, parallel_box1)</title>
<path fill="none" stroke="black" d="M1997.09,-215.7C1997.09,-207.98 1997.09,-198.71 1997.09,-190.11"/>
<polygon fill="black" stroke="black" points="2000.59,-190.1 1997.09,-180.1 1993.59,-190.1 2000.59,-190.1"/>
</g>
<!-- precondition: can_manipulate(parallel_box1, shaft1) -->
<g id="node24" class="node">
<title>precondition: can_manipulate(parallel_box1, shaft1)</title>
<ellipse fill="none" stroke="black" cx="2479.09" cy="-162" rx="251.56" ry="18"/>
<text text-anchor="middle" x="2479.09" y="-158.3" font-family="Times,serif" font-size="14.00">precondition: can_manipulate(parallel_box1, shaft1)</text>
</g>
<!-- sequence: pick_up(left_hand, parallel_box1, shaft1)&#45;&gt;precondition: can_manipulate(parallel_box1, shaft1) -->
<g id="edge18" class="edge">
<title>sequence: pick_up(left_hand, parallel_box1, shaft1)&#45;&gt;precondition: can_manipulate(parallel_box1, shaft1)</title>
<path fill="none" stroke="black" d="M2102.57,-217.68C2179.62,-206.49 2284.05,-191.32 2363.39,-179.8"/>
<polygon fill="black" stroke="black" points="2364.04,-183.25 2373.43,-178.34 2363.03,-176.32 2364.04,-183.25"/>
</g>
<!-- action: pick_up(left_hand, parallel_box1, shaft1) -->
<g id="node25" class="node">
<title>action: pick_up(left_hand, parallel_box1, shaft1)</title>
<ellipse fill="none" stroke="black" cx="2981.09" cy="-162" rx="232.86" ry="18"/>
<text text-anchor="middle" x="2981.09" y="-158.3" font-family="Times,serif" font-size="14.00">action: pick_up(left_hand, parallel_box1, shaft1)</text>
</g>
<!-- sequence: pick_up(left_hand, parallel_box1, shaft1)&#45;&gt;action: pick_up(left_hand, parallel_box1, shaft1) -->
<g id="edge19" class="edge">
<title>sequence: pick_up(left_hand, parallel_box1, shaft1)&#45;&gt;action: pick_up(left_hand, parallel_box1, shaft1)</title>
<path fill="none" stroke="black" d="M2167.08,-220.91C2345.73,-208.2 2625.38,-188.3 2805.94,-175.46"/>
<polygon fill="black" stroke="black" points="2806.35,-178.94 2816.07,-174.74 2805.85,-171.96 2806.35,-178.94"/>
</g>
</g>
</svg>
