<?xml version="1.0" encoding="UTF-8" standalone="no"?>
<!DOCTYPE svg PUBLIC "-//W3C//DTD SVG 1.1//EN"
 "http://www.w3.org/Graphics/SVG/1.1/DTD/svg11.dtd">
<!-- Generated by graphviz version 2.43.0 (0)
 -->
<!-- Title: pastafarianism Pages: 1 -->
<svg width="5705pt" height="332pt"
 viewBox="0.00 0.00 5704.80 332.00" xmlns="http://www.w3.org/2000/svg" xmlns:xlink="http://www.w3.org/1999/xlink">
<g id="graph0" class="graph" transform="scale(1 1) rotate(0) translate(4 328)">
<title>pastafarianism</title>
<polygon fill="white" stroke="transparent" points="-4,4 -4,-328 5700.8,-328 5700.8,4 -4,4"/>
<!-- selector -->
<g id="node1" class="node">
<title>selector</title>
<polygon fill="cyan" stroke="black" points="1721.78,-298.54 1721.78,-313.46 1608.02,-324 1447.14,-324 1333.38,-313.46 1333.38,-298.54 1447.14,-288 1608.02,-288 1721.78,-298.54"/>
<text text-anchor="middle" x="1527.58" y="-303.8" font-family="Times,serif" font-size="9.00">selector: insert_shaft1_into_gearbase_hole1_with_clampgripper</text>
</g>
<!-- target -->
<g id="node2" class="node">
<title>target</title>
<ellipse fill="gray" stroke="black" cx="1874.58" cy="-306" rx="134.55" ry="18"/>
<text text-anchor="middle" x="1874.58" y="-303.8" font-family="Times,serif" font-size="9.00">target: is_inserted_to(shaft1, gearbase_hole1)*</text>
</g>
<!-- selector: insert_shaft1_into_gearbase_hole1 -->
<g id="node3" class="node">
<title>selector: insert_shaft1_into_gearbase_hole1</title>
<ellipse fill="none" stroke="black" cx="2240.58" cy="-306" rx="213.66" ry="18"/>
<text text-anchor="middle" x="2240.58" y="-302.3" font-family="Times,serif" font-size="14.00">selector: insert_shaft1_into_gearbase_hole1</text>
</g>
<!-- target: is_inserted_to(shaft1, gearbase_hole1) -->
<g id="node4" class="node">
<title>target: is_inserted_to(shaft1, gearbase_hole1)</title>
<ellipse fill="none" stroke="black" cx="2010.58" cy="-234" rx="223.66" ry="18"/>
<text text-anchor="middle" x="2010.58" y="-230.3" font-family="Times,serif" font-size="14.00">target: is_inserted_to(shaft1, gearbase_hole1)</text>
</g>
<!-- selector: insert_shaft1_into_gearbase_hole1&#45;&gt;target: is_inserted_to(shaft1, gearbase_hole1) -->
<g id="edge1" class="edge">
<title>selector: insert_shaft1_into_gearbase_hole1&#45;&gt;target: is_inserted_to(shaft1, gearbase_hole1)</title>
<path fill="none" stroke="black" d="M2186.36,-288.5C2152.86,-278.3 2109.69,-265.17 2074.52,-254.46"/>
<polygon fill="black" stroke="black" points="2075.42,-251.07 2064.83,-251.51 2073.38,-257.77 2075.42,-251.07"/>
</g>
<!-- sequence: insert_shaft1_into_gearbase_hole1 -->
<g id="node6" class="node">
<title>sequence: insert_shaft1_into_gearbase_hole1</title>
<ellipse fill="none" stroke="black" cx="2471.58" cy="-234" rx="219.86" ry="18"/>
<text text-anchor="middle" x="2471.58" y="-230.3" font-family="Times,serif" font-size="14.00">sequence: insert_shaft1_into_gearbase_hole1</text>
</g>
<!-- selector: insert_shaft1_into_gearbase_hole1&#45;&gt;sequence: insert_shaft1_into_gearbase_hole1 -->
<g id="edge2" class="edge">
<title>selector: insert_shaft1_into_gearbase_hole1&#45;&gt;sequence: insert_shaft1_into_gearbase_hole1</title>
<path fill="none" stroke="black" d="M2295.03,-288.5C2328.68,-278.3 2372.04,-265.17 2407.36,-254.46"/>
<polygon fill="black" stroke="black" points="2408.54,-257.76 2417.09,-251.51 2406.51,-251.06 2408.54,-257.76"/>
</g>
<!-- sequence -->
<g id="node5" class="node">
<title>sequence</title>
<polygon fill="orange" stroke="black" points="2789.08,-324 2472.08,-324 2472.08,-288 2789.08,-288 2789.08,-324"/>
<text text-anchor="middle" x="2630.58" y="-303.8" font-family="Times,serif" font-size="9.00">sequence: insert_shaft1_into_gearbase_hole1_with_clampgripper</text>
</g>
<!-- selector: put_down_gear3_with_outwardgripper -->
<g id="node7" class="node">
<title>selector: put_down_gear3_with_outwardgripper</title>
<ellipse fill="none" stroke="black" cx="909.58" cy="-162" rx="232.06" ry="18"/>
<text text-anchor="middle" x="909.58" y="-158.3" font-family="Times,serif" font-size="14.00">selector: put_down_gear3_with_outwardgripper</text>
</g>
<!-- sequence: insert_shaft1_into_gearbase_hole1&#45;&gt;selector: put_down_gear3_with_outwardgripper -->
<g id="edge3" class="edge">
<title>sequence: insert_shaft1_into_gearbase_hole1&#45;&gt;selector: put_down_gear3_with_outwardgripper</title>
<path fill="none" stroke="black" d="M2319.86,-220.95C2294.4,-219.14 2268.25,-217.41 2243.58,-216 1853.05,-193.69 1397.66,-177.76 1132.66,-169.5"/>
<polygon fill="black" stroke="black" points="1132.64,-165.99 1122.54,-169.18 1132.42,-172.99 1132.64,-165.99"/>
</g>
<!-- selector: change_tool(left_hand, outwardgripper, clampgripper) -->
<g id="node15" class="node">
<title>selector: change_tool(left_hand, outwardgripper, clampgripper)</title>
<ellipse fill="none" stroke="black" cx="2193.58" cy="-162" rx="304.65" ry="18"/>
<text text-anchor="middle" x="2193.58" y="-158.3" font-family="Times,serif" font-size="14.00">selector: change_tool(left_hand, outwardgripper, clampgripper)</text>
</g>
<!-- sequence: insert_shaft1_into_gearbase_hole1&#45;&gt;selector: change_tool(left_hand, outwardgripper, clampgripper) -->
<g id="edge9" class="edge">
<title>sequence: insert_shaft1_into_gearbase_hole1&#45;&gt;selector: change_tool(left_hand, outwardgripper, clampgripper)</title>
<path fill="none" stroke="black" d="M2407.1,-216.76C2366.03,-206.42 2312.64,-192.98 2269.52,-182.12"/>
<polygon fill="black" stroke="black" points="2270.19,-178.68 2259.64,-179.63 2268.48,-185.47 2270.19,-178.68"/>
</g>
<!-- selector: pick_up_shaft1_with_clampgripper -->
<g id="node21" class="node">
<title>selector: pick_up_shaft1_with_clampgripper</title>
<ellipse fill="none" stroke="black" cx="2749.58" cy="-162" rx="213.66" ry="18"/>
<text text-anchor="middle" x="2749.58" y="-158.3" font-family="Times,serif" font-size="14.00">selector: pick_up_shaft1_with_clampgripper</text>
</g>
<!-- sequence: insert_shaft1_into_gearbase_hole1&#45;&gt;selector: pick_up_shaft1_with_clampgripper -->
<g id="edge15" class="edge">
<title>sequence: insert_shaft1_into_gearbase_hole1&#45;&gt;selector: pick_up_shaft1_with_clampgripper</title>
<path fill="none" stroke="black" d="M2536.06,-216.76C2577.57,-206.31 2631.69,-192.69 2675.05,-181.77"/>
<polygon fill="black" stroke="black" points="2676.13,-185.1 2684.97,-179.27 2674.42,-178.32 2676.13,-185.1"/>
</g>
<!-- selector: insert_shaft1_into_gearbase_hole1_with_clampgripper -->
<g id="node27" class="node">
<title>selector: insert_shaft1_into_gearbase_hole1_with_clampgripper</title>
<ellipse fill="none" stroke="black" cx="3810.58" cy="-162" rx="305.45" ry="18"/>
<text text-anchor="middle" x="3810.58" y="-158.3" font-family="Times,serif" font-size="14.00">selector: insert_shaft1_into_gearbase_hole1_with_clampgripper</text>
</g>
<!-- sequence: insert_shaft1_into_gearbase_hole1&#45;&gt;selector: insert_shaft1_into_gearbase_hole1_with_clampgripper -->
<g id="edge21" class="edge">
<title>sequence: insert_shaft1_into_gearbase_hole1&#45;&gt;selector: insert_shaft1_into_gearbase_hole1_with_clampgripper</title>
<path fill="none" stroke="black" d="M2651.12,-223.61C2891.23,-211.06 3317.15,-188.8 3580.54,-175.03"/>
<polygon fill="black" stroke="black" points="3580.81,-178.52 3590.61,-174.5 3580.45,-171.53 3580.81,-178.52"/>
</g>
<!-- target: is_empty(outwardgripper) -->
<g id="node8" class="node">
<title>target: is_empty(outwardgripper)</title>
<ellipse fill="none" stroke="black" cx="485.58" cy="-90" rx="167.07" ry="18"/>
<text text-anchor="middle" x="485.58" y="-86.3" font-family="Times,serif" font-size="14.00">target: is_empty(outwardgripper)</text>
</g>
<!-- selector: put_down_gear3_with_outwardgripper&#45;&gt;target: is_empty(outwardgripper) -->
<g id="edge4" class="edge">
<title>selector: put_down_gear3_with_outwardgripper&#45;&gt;target: is_empty(outwardgripper)</title>
<path fill="none" stroke="black" d="M815.74,-145.51C746.58,-134.09 652.76,-118.6 582.8,-107.05"/>
<polygon fill="black" stroke="black" points="583.1,-103.55 572.66,-105.38 581.96,-110.46 583.1,-103.55"/>
</g>
<!-- sequence: put_down_gear3_with_outwardgripper -->
<g id="node9" class="node">
<title>sequence: put_down_gear3_with_outwardgripper</title>
<ellipse fill="none" stroke="black" cx="909.58" cy="-90" rx="238.56" ry="18"/>
<text text-anchor="middle" x="909.58" y="-86.3" font-family="Times,serif" font-size="14.00">sequence: put_down_gear3_with_outwardgripper</text>
</g>
<!-- selector: put_down_gear3_with_outwardgripper&#45;&gt;sequence: put_down_gear3_with_outwardgripper -->
<g id="edge5" class="edge">
<title>selector: put_down_gear3_with_outwardgripper&#45;&gt;sequence: put_down_gear3_with_outwardgripper</title>
<path fill="none" stroke="black" d="M909.58,-143.7C909.58,-135.98 909.58,-126.71 909.58,-118.11"/>
<polygon fill="black" stroke="black" points="913.08,-118.1 909.58,-108.1 906.08,-118.1 913.08,-118.1"/>
</g>
<!-- precondition: hold(left_hand, outwardgripper) -->
<g id="node11" class="node">
<title>precondition: hold(left_hand, outwardgripper)</title>
<ellipse fill="none" stroke="black" cx="223.58" cy="-18" rx="223.66" ry="18"/>
<text text-anchor="middle" x="223.58" y="-14.3" font-family="Times,serif" font-size="14.00">precondition: hold(left_hand, outwardgripper)</text>
</g>
<!-- sequence: put_down_gear3_with_outwardgripper&#45;&gt;precondition: hold(left_hand, outwardgripper) -->
<g id="edge6" class="edge">
<title>sequence: put_down_gear3_with_outwardgripper&#45;&gt;precondition: hold(left_hand, outwardgripper)</title>
<path fill="none" stroke="black" d="M774.05,-75.17C656.22,-63.15 486.06,-45.78 366.19,-33.55"/>
<polygon fill="black" stroke="black" points="366.51,-30.07 356.21,-32.53 365.8,-37.03 366.51,-30.07"/>
</g>
<!-- precondition: hold(outwardgripper, gear3) -->
<g id="node12" class="node">
<title>precondition: hold(outwardgripper, gear3)</title>
<ellipse fill="none" stroke="black" cx="671.58" cy="-18" rx="206.86" ry="18"/>
<text text-anchor="middle" x="671.58" y="-14.3" font-family="Times,serif" font-size="14.00">precondition: hold(outwardgripper, gear3)</text>
</g>
<!-- sequence: put_down_gear3_with_outwardgripper&#45;&gt;precondition: hold(outwardgripper, gear3) -->
<g id="edge7" class="edge">
<title>sequence: put_down_gear3_with_outwardgripper&#45;&gt;precondition: hold(outwardgripper, gear3)</title>
<path fill="none" stroke="black" d="M853.48,-72.5C818.68,-62.27 773.82,-49.07 737.35,-38.34"/>
<polygon fill="black" stroke="black" points="737.89,-34.85 727.3,-35.39 735.91,-41.57 737.89,-34.85"/>
</g>
<!-- action: put_down(left_hand, outwardgripper, gear3) -->
<g id="node14" class="node">
<title>action: put_down(left_hand, outwardgripper, gear3)</title>
<ellipse fill="none" stroke="black" cx="1146.58" cy="-18" rx="250.46" ry="18"/>
<text text-anchor="middle" x="1146.58" y="-14.3" font-family="Times,serif" font-size="14.00">action: put_down(left_hand, outwardgripper, gear3)</text>
</g>
<!-- sequence: put_down_gear3_with_outwardgripper&#45;&gt;action: put_down(left_hand, outwardgripper, gear3) -->
<g id="edge8" class="edge">
<title>sequence: put_down_gear3_with_outwardgripper&#45;&gt;action: put_down(left_hand, outwardgripper, gear3)</title>
<path fill="none" stroke="black" d="M965.45,-72.5C999.85,-62.34 1044.13,-49.26 1080.3,-38.58"/>
<polygon fill="black" stroke="black" points="1081.67,-41.82 1090.27,-35.63 1079.69,-35.11 1081.67,-41.82"/>
</g>
<!-- precondition -->
<g id="node10" class="node">
<title>precondition</title>
<ellipse fill="gray" stroke="black" cx="2925.58" cy="-306" rx="118.87" ry="18"/>
<text text-anchor="middle" x="2925.58" y="-303.8" font-family="Times,serif" font-size="9.00">precondition: hold(clampgripper, shaft1)</text>
</g>
<!-- action -->
<g id="node13" class="node">
<title>action</title>
<ellipse fill="gray" stroke="black" cx="3240.58" cy="-306" rx="177.65" ry="18"/>
<text text-anchor="middle" x="3240.58" y="-303.8" font-family="Times,serif" font-size="9.00">action: insert(left_hand, clampgripper, shaft1, gearbase_hole1)</text>
</g>
<!-- target: hold(left_hand, clampgripper) -->
<g id="node16" class="node">
<title>target: hold(left_hand, clampgripper)</title>
<ellipse fill="none" stroke="black" cx="1680.58" cy="-90" rx="183.07" ry="18"/>
<text text-anchor="middle" x="1680.58" y="-86.3" font-family="Times,serif" font-size="14.00">target: hold(left_hand, clampgripper)</text>
</g>
<!-- selector: change_tool(left_hand, outwardgripper, clampgripper)&#45;&gt;target: hold(left_hand, clampgripper) -->
<g id="edge10" class="edge">
<title>selector: change_tool(left_hand, outwardgripper, clampgripper)&#45;&gt;target: hold(left_hand, clampgripper)</title>
<path fill="none" stroke="black" d="M2078.45,-145.29C1993.29,-133.67 1877.9,-117.92 1793.31,-106.38"/>
<polygon fill="black" stroke="black" points="1793.53,-102.88 1783.15,-105 1792.59,-109.82 1793.53,-102.88"/>
</g>
<!-- sequence: change_tool(left_hand, outwardgripper, clampgripper) -->
<g id="node17" class="node">
<title>sequence: change_tool(left_hand, outwardgripper, clampgripper)</title>
<ellipse fill="none" stroke="black" cx="2193.58" cy="-90" rx="311.14" ry="18"/>
<text text-anchor="middle" x="2193.58" y="-86.3" font-family="Times,serif" font-size="14.00">sequence: change_tool(left_hand, outwardgripper, clampgripper)</text>
</g>
<!-- selector: change_tool(left_hand, outwardgripper, clampgripper)&#45;&gt;sequence: change_tool(left_hand, outwardgripper, clampgripper) -->
<g id="edge11" class="edge">
<title>selector: change_tool(left_hand, outwardgripper, clampgripper)&#45;&gt;sequence: change_tool(left_hand, outwardgripper, clampgripper)</title>
<path fill="none" stroke="black" d="M2193.58,-143.7C2193.58,-135.98 2193.58,-126.71 2193.58,-118.11"/>
<polygon fill="black" stroke="black" points="2197.08,-118.1 2193.58,-108.1 2190.08,-118.1 2197.08,-118.1"/>
</g>
<!-- precondition: hold(left_hand, outwardgripper)* -->
<g id="node18" class="node">
<title>precondition: hold(left_hand, outwardgripper)*</title>
<ellipse fill="none" stroke="black" cx="1642.58" cy="-18" rx="228.26" ry="18"/>
<text text-anchor="middle" x="1642.58" y="-14.3" font-family="Times,serif" font-size="14.00">precondition: hold(left_hand, outwardgripper)*</text>
</g>
<!-- sequence: change_tool(left_hand, outwardgripper, clampgripper)&#45;&gt;precondition: hold(left_hand, outwardgripper)* -->
<g id="edge12" class="edge">
<title>sequence: change_tool(left_hand, outwardgripper, clampgripper)&#45;&gt;precondition: hold(left_hand, outwardgripper)*</title>
<path fill="none" stroke="black" d="M2070.95,-73.42C1980.63,-61.95 1858.24,-46.4 1767.4,-34.86"/>
<polygon fill="black" stroke="black" points="1767.68,-31.37 1757.32,-33.58 1766.8,-38.31 1767.68,-31.37"/>
</g>
<!-- precondition: is_empty(outwardgripper) -->
<g id="node19" class="node">
<title>precondition: is_empty(outwardgripper)</title>
<ellipse fill="none" stroke="black" cx="2084.58" cy="-18" rx="196.07" ry="18"/>
<text text-anchor="middle" x="2084.58" y="-14.3" font-family="Times,serif" font-size="14.00">precondition: is_empty(outwardgripper)</text>
</g>
<!-- sequence: change_tool(left_hand, outwardgripper, clampgripper)&#45;&gt;precondition: is_empty(outwardgripper) -->
<g id="edge13" class="edge">
<title>sequence: change_tool(left_hand, outwardgripper, clampgripper)&#45;&gt;precondition: is_empty(outwardgripper)</title>
<path fill="none" stroke="black" d="M2167.19,-72.05C2152.97,-62.92 2135.24,-51.53 2119.85,-41.65"/>
<polygon fill="black" stroke="black" points="2121.41,-38.49 2111.1,-36.03 2117.62,-44.38 2121.41,-38.49"/>
</g>
<!-- action: change_tool(left_hand, outwardgripper, clampgripper) -->
<g id="node20" class="node">
<title>action: change_tool(left_hand, outwardgripper, clampgripper)</title>
<ellipse fill="none" stroke="black" cx="2594.58" cy="-18" rx="295.95" ry="18"/>
<text text-anchor="middle" x="2594.58" y="-14.3" font-family="Times,serif" font-size="14.00">action: change_tool(left_hand, outwardgripper, clampgripper)</text>
</g>
<!-- sequence: change_tool(left_hand, outwardgripper, clampgripper)&#45;&gt;action: change_tool(left_hand, outwardgripper, clampgripper) -->
<g id="edge14" class="edge">
<title>sequence: change_tool(left_hand, outwardgripper, clampgripper)&#45;&gt;action: change_tool(left_hand, outwardgripper, clampgripper)</title>
<path fill="none" stroke="black" d="M2286.33,-72.81C2347.93,-62.06 2428.82,-47.94 2492.28,-36.86"/>
<polygon fill="black" stroke="black" points="2493.06,-40.27 2502.31,-35.11 2491.86,-33.38 2493.06,-40.27"/>
</g>
<!-- target: hold(clampgripper, shaft1) -->
<g id="node22" class="node">
<title>target: hold(clampgripper, shaft1)</title>
<ellipse fill="none" stroke="black" cx="2749.58" cy="-90" rx="168.97" ry="18"/>
<text text-anchor="middle" x="2749.58" y="-86.3" font-family="Times,serif" font-size="14.00">target: hold(clampgripper, shaft1)</text>
</g>
<!-- selector: pick_up_shaft1_with_clampgripper&#45;&gt;target: hold(clampgripper, shaft1) -->
<g id="edge16" class="edge">
<title>selector: pick_up_shaft1_with_clampgripper&#45;&gt;target: hold(clampgripper, shaft1)</title>
<path fill="none" stroke="black" d="M2749.58,-143.7C2749.58,-135.98 2749.58,-126.71 2749.58,-118.11"/>
<polygon fill="black" stroke="black" points="2753.08,-118.1 2749.58,-108.1 2746.08,-118.1 2753.08,-118.1"/>
</g>
<!-- sequence: pick_up_shaft1_with_clampgripper -->
<g id="node23" class="node">
<title>sequence: pick_up_shaft1_with_clampgripper</title>
<ellipse fill="none" stroke="black" cx="3195.58" cy="-90" rx="220.16" ry="18"/>
<text text-anchor="middle" x="3195.58" y="-86.3" font-family="Times,serif" font-size="14.00">sequence: pick_up_shaft1_with_clampgripper</text>
</g>
<!-- selector: pick_up_shaft1_with_clampgripper&#45;&gt;sequence: pick_up_shaft1_with_clampgripper -->
<g id="edge17" class="edge">
<title>selector: pick_up_shaft1_with_clampgripper&#45;&gt;sequence: pick_up_shaft1_with_clampgripper</title>
<path fill="none" stroke="black" d="M2845.81,-145.9C2917.22,-134.69 3014.61,-119.4 3088.49,-107.81"/>
<polygon fill="black" stroke="black" points="3089.42,-111.2 3098.76,-106.2 3088.34,-104.29 3089.42,-111.2"/>
</g>
<!-- precondition: hold(left_hand, clampgripper) -->
<g id="node24" class="node">
<title>precondition: hold(left_hand, clampgripper)</title>
<ellipse fill="none" stroke="black" cx="3121.58" cy="-18" rx="213.36" ry="18"/>
<text text-anchor="middle" x="3121.58" y="-14.3" font-family="Times,serif" font-size="14.00">precondition: hold(left_hand, clampgripper)</text>
</g>
<!-- sequence: pick_up_shaft1_with_clampgripper&#45;&gt;precondition: hold(left_hand, clampgripper) -->
<g id="edge18" class="edge">
<title>sequence: pick_up_shaft1_with_clampgripper&#45;&gt;precondition: hold(left_hand, clampgripper)</title>
<path fill="none" stroke="black" d="M3177.67,-72.05C3168.46,-63.35 3157.09,-52.59 3147,-43.04"/>
<polygon fill="black" stroke="black" points="3149.25,-40.36 3139.59,-36.03 3144.44,-45.45 3149.25,-40.36"/>
</g>
<!-- precondition: is_empty(clampgripper) -->
<g id="node25" class="node">
<title>precondition: is_empty(clampgripper)</title>
<ellipse fill="none" stroke="black" cx="3538.58" cy="-18" rx="185.77" ry="18"/>
<text text-anchor="middle" x="3538.58" y="-14.3" font-family="Times,serif" font-size="14.00">precondition: is_empty(clampgripper)</text>
</g>
<!-- sequence: pick_up_shaft1_with_clampgripper&#45;&gt;precondition: is_empty(clampgripper) -->
<g id="edge19" class="edge">
<title>sequence: pick_up_shaft1_with_clampgripper&#45;&gt;precondition: is_empty(clampgripper)</title>
<path fill="none" stroke="black" d="M3273.41,-73.12C3326.82,-62.22 3397.7,-47.75 3452.74,-36.52"/>
<polygon fill="black" stroke="black" points="3453.73,-39.89 3462.83,-34.46 3452.33,-33.03 3453.73,-39.89"/>
</g>
<!-- action: pick_up(left_hand, clampgripper, shaft1) -->
<g id="node26" class="node">
<title>action: pick_up(left_hand, clampgripper, shaft1)</title>
<ellipse fill="none" stroke="black" cx="3974.58" cy="-18" rx="232.06" ry="18"/>
<text text-anchor="middle" x="3974.58" y="-14.3" font-family="Times,serif" font-size="14.00">action: pick_up(left_hand, clampgripper, shaft1)</text>
</g>
<!-- sequence: pick_up_shaft1_with_clampgripper&#45;&gt;action: pick_up(left_hand, clampgripper, shaft1) -->
<g id="edge20" class="edge">
<title>sequence: pick_up_shaft1_with_clampgripper&#45;&gt;action: pick_up(left_hand, clampgripper, shaft1)</title>
<path fill="none" stroke="black" d="M3338.01,-76.2C3474.14,-63.97 3678.84,-45.57 3819.14,-32.97"/>
<polygon fill="black" stroke="black" points="3819.49,-36.45 3829.13,-32.07 3818.86,-29.48 3819.49,-36.45"/>
</g>
<!-- target: is_inserted_to(shaft1, gearbase_hole1)* -->
<g id="node28" class="node">
<title>target: is_inserted_to(shaft1, gearbase_hole1)*</title>
<ellipse fill="none" stroke="black" cx="3810.58" cy="-90" rx="228.26" ry="18"/>
<text text-anchor="middle" x="3810.58" y="-86.3" font-family="Times,serif" font-size="14.00">target: is_inserted_to(shaft1, gearbase_hole1)*</text>
</g>
<!-- selector: insert_shaft1_into_gearbase_hole1_with_clampgripper&#45;&gt;target: is_inserted_to(shaft1, gearbase_hole1)* -->
<g id="edge22" class="edge">
<title>selector: insert_shaft1_into_gearbase_hole1_with_clampgripper&#45;&gt;target: is_inserted_to(shaft1, gearbase_hole1)*</title>
<path fill="none" stroke="black" d="M3810.58,-143.7C3810.58,-135.98 3810.58,-126.71 3810.58,-118.11"/>
<polygon fill="black" stroke="black" points="3814.08,-118.1 3810.58,-108.1 3807.08,-118.1 3814.08,-118.1"/>
</g>
<!-- sequence: insert_shaft1_into_gearbase_hole1_with_clampgripper -->
<g id="node29" class="node">
<title>sequence: insert_shaft1_into_gearbase_hole1_with_clampgripper</title>
<ellipse fill="none" stroke="black" cx="4659.58" cy="-90" rx="311.14" ry="18"/>
<text text-anchor="middle" x="4659.58" y="-86.3" font-family="Times,serif" font-size="14.00">sequence: insert_shaft1_into_gearbase_hole1_with_clampgripper</text>
</g>
<!-- selector: insert_shaft1_into_gearbase_hole1_with_clampgripper&#45;&gt;sequence: insert_shaft1_into_gearbase_hole1_with_clampgripper -->
<g id="edge23" class="edge">
<title>selector: insert_shaft1_into_gearbase_hole1_with_clampgripper&#45;&gt;sequence: insert_shaft1_into_gearbase_hole1_with_clampgripper</title>
<path fill="none" stroke="black" d="M3980.09,-147.02C4124.46,-135.12 4331.35,-118.06 4478.84,-105.9"/>
<polygon fill="black" stroke="black" points="4479.24,-109.38 4488.91,-105.07 4478.66,-102.4 4479.24,-109.38"/>
</g>
<!-- precondition: hold(left_hand, clampgripper)* -->
<g id="node30" class="node">
<title>precondition: hold(left_hand, clampgripper)*</title>
<ellipse fill="none" stroke="black" cx="4442.58" cy="-18" rx="217.96" ry="18"/>
<text text-anchor="middle" x="4442.58" y="-14.3" font-family="Times,serif" font-size="14.00">precondition: hold(left_hand, clampgripper)*</text>
</g>
<!-- sequence: insert_shaft1_into_gearbase_hole1_with_clampgripper&#45;&gt;precondition: hold(left_hand, clampgripper)* -->
<g id="edge24" class="edge">
<title>sequence: insert_shaft1_into_gearbase_hole1_with_clampgripper&#45;&gt;precondition: hold(left_hand, clampgripper)*</title>
<path fill="none" stroke="black" d="M4607.6,-72.23C4576.35,-62.15 4536.43,-49.27 4503.68,-38.71"/>
<polygon fill="black" stroke="black" points="4504.35,-35.25 4493.76,-35.51 4502.2,-41.91 4504.35,-35.25"/>
</g>
<!-- precondition: hold(clampgripper, shaft1) -->
<g id="node31" class="node">
<title>precondition: hold(clampgripper, shaft1)</title>
<ellipse fill="none" stroke="black" cx="4876.58" cy="-18" rx="198.47" ry="18"/>
<text text-anchor="middle" x="4876.58" y="-14.3" font-family="Times,serif" font-size="14.00">precondition: hold(clampgripper, shaft1)</text>
</g>
<!-- sequence: insert_shaft1_into_gearbase_hole1_with_clampgripper&#45;&gt;precondition: hold(clampgripper, shaft1) -->
<g id="edge25" class="edge">
<title>sequence: insert_shaft1_into_gearbase_hole1_with_clampgripper&#45;&gt;precondition: hold(clampgripper, shaft1)</title>
<path fill="none" stroke="black" d="M4711.56,-72.23C4742.81,-62.15 4782.73,-49.27 4815.49,-38.71"/>
<polygon fill="black" stroke="black" points="4816.96,-41.91 4825.4,-35.51 4814.81,-35.25 4816.96,-41.91"/>
</g>
<!-- action: insert(left_hand, clampgripper, shaft1, gearbase_hole1) -->
<g id="node32" class="node">
<title>action: insert(left_hand, clampgripper, shaft1, gearbase_hole1)</title>
<ellipse fill="none" stroke="black" cx="5394.58" cy="-18" rx="302.45" ry="18"/>
<text text-anchor="middle" x="5394.58" y="-14.3" font-family="Times,serif" font-size="14.00">action: insert(left_hand, clampgripper, shaft1, gearbase_hole1)</text>
</g>
<!-- sequence: insert_shaft1_into_gearbase_hole1_with_clampgripper&#45;&gt;action: insert(left_hand, clampgripper, shaft1, gearbase_hole1) -->
<g id="edge26" class="edge">
<title>sequence: insert_shaft1_into_gearbase_hole1_with_clampgripper&#45;&gt;action: insert(left_hand, clampgripper, shaft1, gearbase_hole1)</title>
<path fill="none" stroke="black" d="M4813.66,-74.33C4936.1,-62.66 5106.92,-46.4 5231.62,-34.52"/>
<polygon fill="black" stroke="black" points="5232.03,-38 5241.65,-33.56 5231.36,-31.03 5232.03,-38"/>
</g>
</g>
</svg>
