<?xml version="1.0" encoding="UTF-8" standalone="no"?>
<!DOCTYPE svg PUBLIC "-//W3C//DTD SVG 1.1//EN"
 "http://www.w3.org/Graphics/SVG/1.1/DTD/svg11.dtd">
<!-- Generated by graphviz version 2.43.0 (0)
 -->
<!-- Title: pastafarianism Pages: 1 -->
<svg width="1993pt" height="188pt"
 viewBox="0.00 0.00 1992.66 188.00" xmlns="http://www.w3.org/2000/svg" xmlns:xlink="http://www.w3.org/1999/xlink">
<g id="graph0" class="graph" transform="scale(1 1) rotate(0) translate(4 184)">
<title>pastafarianism</title>
<polygon fill="white" stroke="transparent" points="-4,4 -4,-184 1988.66,-184 1988.66,4 -4,4"/>
<!-- selector -->
<g id="node1" class="node">
<title>selector</title>
<polygon fill="cyan" stroke="black" points="309.94,-154.54 309.94,-169.46 219.17,-180 90.79,-180 0.02,-169.46 0.02,-154.54 90.79,-144 219.17,-144 309.94,-154.54"/>
<text text-anchor="middle" x="154.98" y="-159.8" font-family="Times,serif" font-size="9.00">selector: pick_up(left_hand, parallel_box1, shaft1)</text>
</g>
<!-- target -->
<g id="node2" class="node">
<title>target</title>
<ellipse fill="gray" stroke="black" cx="429.98" cy="-162" rx="101.73" ry="18"/>
<text text-anchor="middle" x="429.98" y="-159.8" font-family="Times,serif" font-size="9.00">target: hold(parallel_box1, shaft1)</text>
</g>
<!-- selector: pick_up(left_hand, parallel_box1, shaft1) -->
<g id="node3" class="node">
<title>selector: pick_up(left_hand, parallel_box1, shaft1)</title>
<ellipse fill="none" stroke="black" cx="790.98" cy="-162" rx="241.26" ry="18"/>
<text text-anchor="middle" x="790.98" y="-158.3" font-family="Times,serif" font-size="14.00">selector: pick_up(left_hand, parallel_box1, shaft1)</text>
</g>
<!-- target: hold(parallel_box1, shaft1) -->
<g id="node4" class="node">
<title>target: hold(parallel_box1, shaft1)</title>
<ellipse fill="none" stroke="black" cx="573.98" cy="-90" rx="168.97" ry="18"/>
<text text-anchor="middle" x="573.98" y="-86.3" font-family="Times,serif" font-size="14.00">target: hold(parallel_box1, shaft1)</text>
</g>
<!-- selector: pick_up(left_hand, parallel_box1, shaft1)&#45;&gt;target: hold(parallel_box1, shaft1) -->
<g id="edge1" class="edge">
<title>selector: pick_up(left_hand, parallel_box1, shaft1)&#45;&gt;target: hold(parallel_box1, shaft1)</title>
<path fill="none" stroke="black" d="M739.55,-144.41C707.84,-134.18 667.04,-121.02 633.87,-110.32"/>
<polygon fill="black" stroke="black" points="634.88,-106.97 624.29,-107.23 632.73,-113.63 634.88,-106.97"/>
</g>
<!-- sequence: pick_up(left_hand, parallel_box1, shaft1) -->
<g id="node6" class="node">
<title>sequence: pick_up(left_hand, parallel_box1, shaft1)</title>
<ellipse fill="none" stroke="black" cx="1008.98" cy="-90" rx="247.76" ry="18"/>
<text text-anchor="middle" x="1008.98" y="-86.3" font-family="Times,serif" font-size="14.00">sequence: pick_up(left_hand, parallel_box1, shaft1)</text>
</g>
<!-- selector: pick_up(left_hand, parallel_box1, shaft1)&#45;&gt;sequence: pick_up(left_hand, parallel_box1, shaft1) -->
<g id="edge2" class="edge">
<title>selector: pick_up(left_hand, parallel_box1, shaft1)&#45;&gt;sequence: pick_up(left_hand, parallel_box1, shaft1)</title>
<path fill="none" stroke="black" d="M842.64,-144.41C874.04,-134.33 914.32,-121.4 947.37,-110.78"/>
<polygon fill="black" stroke="black" points="948.48,-114.1 956.93,-107.71 946.34,-107.44 948.48,-114.1"/>
</g>
<!-- sequence -->
<g id="node5" class="node">
<title>sequence</title>
<polygon fill="orange" stroke="black" points="1305.48,-180 1050.48,-180 1050.48,-144 1305.48,-144 1305.48,-180"/>
<text text-anchor="middle" x="1177.98" y="-159.8" font-family="Times,serif" font-size="9.00">sequence: pick_up(left_hand, parallel_box1, shaft1)</text>
</g>
<!-- precondition: is_empty(parallel_box1) -->
<g id="node8" class="node">
<title>precondition: is_empty(parallel_box1)</title>
<ellipse fill="none" stroke="black" cx="351.98" cy="-18" rx="185.47" ry="18"/>
<text text-anchor="middle" x="351.98" y="-14.3" font-family="Times,serif" font-size="14.00">precondition: is_empty(parallel_box1)</text>
</g>
<!-- sequence: pick_up(left_hand, parallel_box1, shaft1)&#45;&gt;precondition: is_empty(parallel_box1) -->
<g id="edge3" class="edge">
<title>sequence: pick_up(left_hand, parallel_box1, shaft1)&#45;&gt;precondition: is_empty(parallel_box1)</title>
<path fill="none" stroke="black" d="M875.63,-74.79C760.67,-62.54 595.69,-44.97 481.78,-32.83"/>
<polygon fill="black" stroke="black" points="481.92,-29.32 471.61,-31.75 481.18,-36.29 481.92,-29.32"/>
</g>
<!-- precondition: hold(left_hand, parallel_box1) -->
<g id="node9" class="node">
<title>precondition: hold(left_hand, parallel_box1)</title>
<ellipse fill="none" stroke="black" cx="767.98" cy="-18" rx="212.56" ry="18"/>
<text text-anchor="middle" x="767.98" y="-14.3" font-family="Times,serif" font-size="14.00">precondition: hold(left_hand, parallel_box1)</text>
</g>
<!-- sequence: pick_up(left_hand, parallel_box1, shaft1)&#45;&gt;precondition: hold(left_hand, parallel_box1) -->
<g id="edge4" class="edge">
<title>sequence: pick_up(left_hand, parallel_box1, shaft1)&#45;&gt;precondition: hold(left_hand, parallel_box1)</title>
<path fill="none" stroke="black" d="M951.87,-72.41C916.6,-62.17 871.21,-48.98 834.35,-38.28"/>
<polygon fill="black" stroke="black" points="835.26,-34.9 824.68,-35.47 833.31,-41.62 835.26,-34.9"/>
</g>
<!-- precondition: can_manipulate(parallel_box1, shaft1) -->
<g id="node10" class="node">
<title>precondition: can_manipulate(parallel_box1, shaft1)</title>
<ellipse fill="none" stroke="black" cx="1249.98" cy="-18" rx="251.56" ry="18"/>
<text text-anchor="middle" x="1249.98" y="-14.3" font-family="Times,serif" font-size="14.00">precondition: can_manipulate(parallel_box1, shaft1)</text>
</g>
<!-- sequence: pick_up(left_hand, parallel_box1, shaft1)&#45;&gt;precondition: can_manipulate(parallel_box1, shaft1) -->
<g id="edge5" class="edge">
<title>sequence: pick_up(left_hand, parallel_box1, shaft1)&#45;&gt;precondition: can_manipulate(parallel_box1, shaft1)</title>
<path fill="none" stroke="black" d="M1066.09,-72.41C1101.23,-62.2 1146.42,-49.08 1183.21,-38.39"/>
<polygon fill="black" stroke="black" points="1184.23,-41.74 1192.86,-35.59 1182.28,-35.02 1184.23,-41.74"/>
</g>
<!-- action: pick_up(left_hand, parallel_box1, shaft1) -->
<g id="node12" class="node">
<title>action: pick_up(left_hand, parallel_box1, shaft1)</title>
<ellipse fill="none" stroke="black" cx="1751.98" cy="-18" rx="232.86" ry="18"/>
<text text-anchor="middle" x="1751.98" y="-14.3" font-family="Times,serif" font-size="14.00">action: pick_up(left_hand, parallel_box1, shaft1)</text>
</g>
<!-- sequence: pick_up(left_hand, parallel_box1, shaft1)&#45;&gt;action: pick_up(left_hand, parallel_box1, shaft1) -->
<g id="edge6" class="edge">
<title>sequence: pick_up(left_hand, parallel_box1, shaft1)&#45;&gt;action: pick_up(left_hand, parallel_box1, shaft1)</title>
<path fill="none" stroke="black" d="M1153.56,-75.38C1282.24,-63.26 1469.8,-45.59 1600.52,-33.27"/>
<polygon fill="black" stroke="black" points="1600.99,-36.74 1610.62,-32.32 1600.34,-29.77 1600.99,-36.74"/>
</g>
<!-- precondition -->
<g id="node7" class="node">
<title>precondition</title>
<ellipse fill="gray" stroke="black" cx="1472.98" cy="-162" rx="149.57" ry="18"/>
<text text-anchor="middle" x="1472.98" y="-159.8" font-family="Times,serif" font-size="9.00">precondition: can_manipulate(parallel_box1, shaft1)</text>
</g>
<!-- action -->
<g id="node11" class="node">
<title>action</title>
<ellipse fill="gray" stroke="black" cx="1778.98" cy="-162" rx="138.63" ry="18"/>
<text text-anchor="middle" x="1778.98" y="-159.8" font-family="Times,serif" font-size="9.00">action: pick_up(left_hand, parallel_box1, shaft1)</text>
</g>
</g>
</svg>
