<?xml version="1.0" encoding="UTF-8" standalone="no"?>
<!DOCTYPE svg PUBLIC "-//W3C//DTD SVG 1.1//EN"
 "http://www.w3.org/Graphics/SVG/1.1/DTD/svg11.dtd">
<!-- Generated by graphviz version 2.43.0 (0)
 -->
<!-- Title: pastafarianism Pages: 1 -->
<svg width="2252pt" height="188pt"
 viewBox="0.00 0.00 2251.92 188.00" xmlns="http://www.w3.org/2000/svg" xmlns:xlink="http://www.w3.org/1999/xlink">
<g id="graph0" class="graph" transform="scale(1 1) rotate(0) translate(4 184)">
<title>pastafarianism</title>
<polygon fill="white" stroke="transparent" points="-4,4 -4,-184 2247.92,-184 2247.92,4 -4,4"/>
<!-- selector -->
<g id="node1" class="node">
<title>selector</title>
<polygon fill="cyan" stroke="black" points="396.3,-154.54 396.3,-169.46 280.2,-180 116,-180 -0.1,-169.46 -0.1,-154.54 116,-144 280.2,-144 396.3,-154.54"/>
<text text-anchor="middle" x="198.1" y="-159.8" font-family="Times,serif" font-size="9.00">selector: change_tool(left_hand, outwardgripper, defaultgripper)</text>
</g>
<!-- target -->
<g id="node2" class="node">
<title>target</title>
<ellipse fill="gray" stroke="black" cx="527.1" cy="-162" rx="112.67" ry="18"/>
<text text-anchor="middle" x="527.1" y="-159.8" font-family="Times,serif" font-size="9.00">target: hold(left_hand, defaultgripper)</text>
</g>
<!-- selector: change_tool(left_hand, outwardgripper, defaultgripper) -->
<g id="node3" class="node">
<title>selector: change_tool(left_hand, outwardgripper, defaultgripper)</title>
<ellipse fill="none" stroke="black" cx="967.1" cy="-162" rx="309.25" ry="18"/>
<text text-anchor="middle" x="967.1" y="-158.3" font-family="Times,serif" font-size="14.00">selector: change_tool(left_hand, outwardgripper, defaultgripper)</text>
</g>
<!-- target: hold(left_hand, defaultgripper) -->
<g id="node4" class="node">
<title>target: hold(left_hand, defaultgripper)</title>
<ellipse fill="none" stroke="black" cx="706.1" cy="-90" rx="188.47" ry="18"/>
<text text-anchor="middle" x="706.1" y="-86.3" font-family="Times,serif" font-size="14.00">target: hold(left_hand, defaultgripper)</text>
</g>
<!-- selector: change_tool(left_hand, outwardgripper, defaultgripper)&#45;&gt;target: hold(left_hand, defaultgripper) -->
<g id="edge1" class="edge">
<title>selector: change_tool(left_hand, outwardgripper, defaultgripper)&#45;&gt;target: hold(left_hand, defaultgripper)</title>
<path fill="none" stroke="black" d="M904.92,-144.32C866.05,-133.9 815.93,-120.46 775.74,-109.68"/>
<polygon fill="black" stroke="black" points="776.58,-106.28 766.01,-107.07 774.76,-113.04 776.58,-106.28"/>
</g>
<!-- sequence: change_tool(left_hand, outwardgripper, defaultgripper) -->
<g id="node6" class="node">
<title>sequence: change_tool(left_hand, outwardgripper, defaultgripper)</title>
<ellipse fill="none" stroke="black" cx="1228.1" cy="-90" rx="315.74" ry="18"/>
<text text-anchor="middle" x="1228.1" y="-86.3" font-family="Times,serif" font-size="14.00">sequence: change_tool(left_hand, outwardgripper, defaultgripper)</text>
</g>
<!-- selector: change_tool(left_hand, outwardgripper, defaultgripper)&#45;&gt;sequence: change_tool(left_hand, outwardgripper, defaultgripper) -->
<g id="edge2" class="edge">
<title>selector: change_tool(left_hand, outwardgripper, defaultgripper)&#45;&gt;sequence: change_tool(left_hand, outwardgripper, defaultgripper)</title>
<path fill="none" stroke="black" d="M1029.28,-144.32C1067.37,-134.11 1116.27,-120.99 1156.04,-110.33"/>
<polygon fill="black" stroke="black" points="1157.19,-113.64 1165.94,-107.67 1155.37,-106.88 1157.19,-113.64"/>
</g>
<!-- sequence -->
<g id="node5" class="node">
<title>sequence</title>
<polygon fill="orange" stroke="black" points="1617.6,-180 1294.6,-180 1294.6,-144 1617.6,-144 1617.6,-180"/>
<text text-anchor="middle" x="1456.1" y="-159.8" font-family="Times,serif" font-size="9.00">sequence: change_tool(left_hand, outwardgripper, defaultgripper)</text>
</g>
<!-- precondition: hold(left_hand, outwardgripper) -->
<g id="node8" class="node">
<title>precondition: hold(left_hand, outwardgripper)</title>
<ellipse fill="none" stroke="black" cx="790.1" cy="-18" rx="223.66" ry="18"/>
<text text-anchor="middle" x="790.1" y="-14.3" font-family="Times,serif" font-size="14.00">precondition: hold(left_hand, outwardgripper)</text>
</g>
<!-- sequence: change_tool(left_hand, outwardgripper, defaultgripper)&#45;&gt;precondition: hold(left_hand, outwardgripper) -->
<g id="edge3" class="edge">
<title>sequence: change_tool(left_hand, outwardgripper, defaultgripper)&#45;&gt;precondition: hold(left_hand, outwardgripper)</title>
<path fill="none" stroke="black" d="M1127.34,-72.9C1058.12,-61.83 966.39,-47.17 896.08,-35.94"/>
<polygon fill="black" stroke="black" points="896.29,-32.43 885.87,-34.31 895.19,-39.34 896.29,-32.43"/>
</g>
<!-- precondition: is_empty(outwardgripper) -->
<g id="node9" class="node">
<title>precondition: is_empty(outwardgripper)</title>
<ellipse fill="none" stroke="black" cx="1228.1" cy="-18" rx="196.07" ry="18"/>
<text text-anchor="middle" x="1228.1" y="-14.3" font-family="Times,serif" font-size="14.00">precondition: is_empty(outwardgripper)</text>
</g>
<!-- sequence: change_tool(left_hand, outwardgripper, defaultgripper)&#45;&gt;precondition: is_empty(outwardgripper) -->
<g id="edge4" class="edge">
<title>sequence: change_tool(left_hand, outwardgripper, defaultgripper)&#45;&gt;precondition: is_empty(outwardgripper)</title>
<path fill="none" stroke="black" d="M1228.1,-71.7C1228.1,-63.98 1228.1,-54.71 1228.1,-46.11"/>
<polygon fill="black" stroke="black" points="1231.6,-46.1 1228.1,-36.1 1224.6,-46.1 1231.6,-46.1"/>
</g>
<!-- action: change_tool(left_hand, outwardgripper, defaultgripper) -->
<g id="node11" class="node">
<title>action: change_tool(left_hand, outwardgripper, defaultgripper)</title>
<ellipse fill="none" stroke="black" cx="1743.1" cy="-18" rx="300.85" ry="18"/>
<text text-anchor="middle" x="1743.1" y="-14.3" font-family="Times,serif" font-size="14.00">action: change_tool(left_hand, outwardgripper, defaultgripper)</text>
</g>
<!-- sequence: change_tool(left_hand, outwardgripper, defaultgripper)&#45;&gt;action: change_tool(left_hand, outwardgripper, defaultgripper) -->
<g id="edge5" class="edge">
<title>sequence: change_tool(left_hand, outwardgripper, defaultgripper)&#45;&gt;action: change_tool(left_hand, outwardgripper, defaultgripper)</title>
<path fill="none" stroke="black" d="M1344,-73.25C1425.51,-62.17 1534.51,-47.35 1618,-36"/>
<polygon fill="black" stroke="black" points="1618.61,-39.45 1628.05,-34.64 1617.67,-32.52 1618.61,-39.45"/>
</g>
<!-- precondition -->
<g id="node7" class="node">
<title>precondition</title>
<ellipse fill="gray" stroke="black" cx="1753.1" cy="-162" rx="117.4" ry="18"/>
<text text-anchor="middle" x="1753.1" y="-159.8" font-family="Times,serif" font-size="9.00">precondition: is_empty(outwardgripper)</text>
</g>
<!-- action -->
<g id="node10" class="node">
<title>action</title>
<ellipse fill="gray" stroke="black" cx="2066.1" cy="-162" rx="177.65" ry="18"/>
<text text-anchor="middle" x="2066.1" y="-159.8" font-family="Times,serif" font-size="9.00">action: change_tool(left_hand, outwardgripper, defaultgripper)</text>
</g>
</g>
</svg>
