<?xml version="1.0" encoding="UTF-8" standalone="no"?>
<!DOCTYPE svg PUBLIC "-//W3C//DTD SVG 1.1//EN"
 "http://www.w3.org/Graphics/SVG/1.1/DTD/svg11.dtd">
<!-- Generated by graphviz version 2.43.0 (0)
 -->
<!-- Title: pastafarianism Pages: 1 -->
<svg width="2271pt" height="476pt"
 viewBox="0.00 0.00 2270.66 476.00" xmlns="http://www.w3.org/2000/svg" xmlns:xlink="http://www.w3.org/1999/xlink">
<g id="graph0" class="graph" transform="scale(1 1) rotate(0) translate(4 472)">
<title>pastafarianism</title>
<polygon fill="white" stroke="transparent" points="-4,4 -4,-472 2266.66,-472 2266.66,4 -4,4"/>
<!-- selector -->
<g id="node1" class="node">
<title>selector</title>
<polygon fill="cyan" stroke="black" points="309.94,-442.54 309.94,-457.46 219.17,-468 90.79,-468 0.02,-457.46 0.02,-442.54 90.79,-432 219.17,-432 309.94,-442.54"/>
<text text-anchor="middle" x="154.98" y="-447.8" font-family="Times,serif" font-size="9.00">selector: pick_up(left_hand, parallel_box1, shaft1)</text>
</g>
<!-- target -->
<g id="node2" class="node">
<title>target</title>
<ellipse fill="gray" stroke="black" cx="429.98" cy="-450" rx="101.73" ry="18"/>
<text text-anchor="middle" x="429.98" y="-447.8" font-family="Times,serif" font-size="9.00">target: hold(parallel_box1, shaft1)</text>
</g>
<!-- selector: insert(left_hand, parallel_box1, shaft1, gearbase_hole1) -->
<g id="node3" class="node">
<title>selector: insert(left_hand, parallel_box1, shaft1, gearbase_hole1)</title>
<ellipse fill="none" stroke="black" cx="860.98" cy="-450" rx="311.14" ry="18"/>
<text text-anchor="middle" x="860.98" y="-446.3" font-family="Times,serif" font-size="14.00">selector: insert(left_hand, parallel_box1, shaft1, gearbase_hole1)</text>
</g>
<!-- target: is_inserted_to(shaft1, gearbase_hole1) -->
<g id="node4" class="node">
<title>target: is_inserted_to(shaft1, gearbase_hole1)</title>
<ellipse fill="none" stroke="black" cx="581.98" cy="-378" rx="223.66" ry="18"/>
<text text-anchor="middle" x="581.98" y="-374.3" font-family="Times,serif" font-size="14.00">target: is_inserted_to(shaft1, gearbase_hole1)</text>
</g>
<!-- selector: insert(left_hand, parallel_box1, shaft1, gearbase_hole1)&#45;&gt;target: is_inserted_to(shaft1, gearbase_hole1) -->
<g id="edge1" class="edge">
<title>selector: insert(left_hand, parallel_box1, shaft1, gearbase_hole1)&#45;&gt;target: is_inserted_to(shaft1, gearbase_hole1)</title>
<path fill="none" stroke="black" d="M794.51,-432.32C753.09,-421.93 699.71,-408.54 656.81,-397.77"/>
<polygon fill="black" stroke="black" points="657.53,-394.35 646.98,-395.31 655.83,-401.14 657.53,-394.35"/>
</g>
<!-- sequence: insert(left_hand, parallel_box1, shaft1, gearbase_hole1) -->
<g id="node6" class="node">
<title>sequence: insert(left_hand, parallel_box1, shaft1, gearbase_hole1)</title>
<ellipse fill="none" stroke="black" cx="1140.98" cy="-378" rx="317.64" ry="18"/>
<text text-anchor="middle" x="1140.98" y="-374.3" font-family="Times,serif" font-size="14.00">sequence: insert(left_hand, parallel_box1, shaft1, gearbase_hole1)</text>
</g>
<!-- selector: insert(left_hand, parallel_box1, shaft1, gearbase_hole1)&#45;&gt;sequence: insert(left_hand, parallel_box1, shaft1, gearbase_hole1) -->
<g id="edge2" class="edge">
<title>selector: insert(left_hand, parallel_box1, shaft1, gearbase_hole1)&#45;&gt;sequence: insert(left_hand, parallel_box1, shaft1, gearbase_hole1)</title>
<path fill="none" stroke="black" d="M927.34,-432.41C968.44,-422.13 1021.4,-408.9 1064.3,-398.17"/>
<polygon fill="black" stroke="black" points="1065.28,-401.53 1074.13,-395.71 1063.58,-394.74 1065.28,-401.53"/>
</g>
<!-- sequence -->
<g id="node5" class="node">
<title>sequence</title>
<polygon fill="orange" stroke="black" points="1445.48,-468 1190.48,-468 1190.48,-432 1445.48,-432 1445.48,-468"/>
<text text-anchor="middle" x="1317.98" y="-447.8" font-family="Times,serif" font-size="9.00">sequence: pick_up(left_hand, parallel_box1, shaft1)</text>
</g>
<!-- selector: load_tool(left_hand, parallel_box1) -->
<g id="node7" class="node">
<title>selector: load_tool(left_hand, parallel_box1)</title>
<ellipse fill="none" stroke="black" cx="668.98" cy="-306" rx="212.56" ry="18"/>
<text text-anchor="middle" x="668.98" y="-302.3" font-family="Times,serif" font-size="14.00">selector: load_tool(left_hand, parallel_box1)</text>
</g>
<!-- sequence: insert(left_hand, parallel_box1, shaft1, gearbase_hole1)&#45;&gt;selector: load_tool(left_hand, parallel_box1) -->
<g id="edge3" class="edge">
<title>sequence: insert(left_hand, parallel_box1, shaft1, gearbase_hole1)&#45;&gt;selector: load_tool(left_hand, parallel_box1)</title>
<path fill="none" stroke="black" d="M1033.29,-361.03C957.38,-349.77 856.04,-334.74 779.51,-323.39"/>
<polygon fill="black" stroke="black" points="779.76,-319.89 769.36,-321.89 778.73,-326.82 779.76,-319.89"/>
</g>
<!-- selector: pick_up(left_hand, parallel_box1, shaft1) -->
<g id="node19" class="node">
<title>selector: pick_up(left_hand, parallel_box1, shaft1)</title>
<ellipse fill="none" stroke="black" cx="1140.98" cy="-306" rx="241.26" ry="18"/>
<text text-anchor="middle" x="1140.98" y="-302.3" font-family="Times,serif" font-size="14.00">selector: pick_up(left_hand, parallel_box1, shaft1)</text>
</g>
<!-- sequence: insert(left_hand, parallel_box1, shaft1, gearbase_hole1)&#45;&gt;selector: pick_up(left_hand, parallel_box1, shaft1) -->
<g id="edge13" class="edge">
<title>sequence: insert(left_hand, parallel_box1, shaft1, gearbase_hole1)&#45;&gt;selector: pick_up(left_hand, parallel_box1, shaft1)</title>
<path fill="none" stroke="black" d="M1140.98,-359.7C1140.98,-351.98 1140.98,-342.71 1140.98,-334.11"/>
<polygon fill="black" stroke="black" points="1144.48,-334.1 1140.98,-324.1 1137.48,-334.1 1144.48,-334.1"/>
</g>
<!-- action: insert(left_hand, parallel_box1, shaft1, gearbase_hole1) -->
<g id="node24" class="node">
<title>action: insert(left_hand, parallel_box1, shaft1, gearbase_hole1)</title>
<ellipse fill="none" stroke="black" cx="1702.98" cy="-306" rx="302.75" ry="18"/>
<text text-anchor="middle" x="1702.98" y="-302.3" font-family="Times,serif" font-size="14.00">action: insert(left_hand, parallel_box1, shaft1, gearbase_hole1)</text>
</g>
<!-- sequence: insert(left_hand, parallel_box1, shaft1, gearbase_hole1)&#45;&gt;action: insert(left_hand, parallel_box1, shaft1, gearbase_hole1) -->
<g id="edge18" class="edge">
<title>sequence: insert(left_hand, parallel_box1, shaft1, gearbase_hole1)&#45;&gt;action: insert(left_hand, parallel_box1, shaft1, gearbase_hole1)</title>
<path fill="none" stroke="black" d="M1266.06,-361.42C1355.93,-350.23 1476.95,-335.15 1568.83,-323.71"/>
<polygon fill="black" stroke="black" points="1569.26,-327.18 1578.76,-322.47 1568.4,-320.24 1569.26,-327.18"/>
</g>
<!-- target: is_free(left_hand) -->
<g id="node8" class="node">
<title>target: is_free(left_hand)</title>
<ellipse fill="none" stroke="black" cx="308.98" cy="-234" rx="126.18" ry="18"/>
<text text-anchor="middle" x="308.98" y="-230.3" font-family="Times,serif" font-size="14.00">target: is_free(left_hand)</text>
</g>
<!-- selector: load_tool(left_hand, parallel_box1)&#45;&gt;target: is_free(left_hand) -->
<g id="edge4" class="edge">
<title>selector: load_tool(left_hand, parallel_box1)&#45;&gt;target: is_free(left_hand)</title>
<path fill="none" stroke="black" d="M588.19,-289.29C529.2,-277.82 449.55,-262.33 390.41,-250.83"/>
<polygon fill="black" stroke="black" points="390.85,-247.35 380.36,-248.88 389.51,-254.22 390.85,-247.35"/>
</g>
<!-- sequence: load_tool(left_hand, parallel_box1) -->
<g id="node9" class="node">
<title>sequence: load_tool(left_hand, parallel_box1)</title>
<ellipse fill="none" stroke="black" cx="671.98" cy="-234" rx="219.06" ry="18"/>
<text text-anchor="middle" x="671.98" y="-230.3" font-family="Times,serif" font-size="14.00">sequence: load_tool(left_hand, parallel_box1)</text>
</g>
<!-- selector: load_tool(left_hand, parallel_box1)&#45;&gt;sequence: load_tool(left_hand, parallel_box1) -->
<g id="edge5" class="edge">
<title>selector: load_tool(left_hand, parallel_box1)&#45;&gt;sequence: load_tool(left_hand, parallel_box1)</title>
<path fill="none" stroke="black" d="M669.72,-287.7C670.05,-279.98 670.45,-270.71 670.82,-262.11"/>
<polygon fill="black" stroke="black" points="674.32,-262.25 671.25,-252.1 667.32,-261.95 674.32,-262.25"/>
</g>
<!-- precondition: is_equippable(parallel_box1) -->
<g id="node11" class="node">
<title>precondition: is_equippable(parallel_box1)</title>
<ellipse fill="none" stroke="black" cx="219.98" cy="-162" rx="207.16" ry="18"/>
<text text-anchor="middle" x="219.98" y="-158.3" font-family="Times,serif" font-size="14.00">precondition: is_equippable(parallel_box1)</text>
</g>
<!-- sequence: load_tool(left_hand, parallel_box1)&#45;&gt;precondition: is_equippable(parallel_box1) -->
<g id="edge6" class="edge">
<title>sequence: load_tool(left_hand, parallel_box1)&#45;&gt;precondition: is_equippable(parallel_box1)</title>
<path fill="none" stroke="black" d="M574.18,-217.85C501.14,-206.54 401.41,-191.1 326.38,-179.48"/>
<polygon fill="black" stroke="black" points="326.85,-176.01 316.43,-177.94 325.78,-182.93 326.85,-176.01"/>
</g>
<!-- selector: unload_tool(left_hand, outward_claw) -->
<g id="node12" class="node">
<title>selector: unload_tool(left_hand, outward_claw)</title>
<ellipse fill="none" stroke="black" cx="671.98" cy="-162" rx="226.36" ry="18"/>
<text text-anchor="middle" x="671.98" y="-158.3" font-family="Times,serif" font-size="14.00">selector: unload_tool(left_hand, outward_claw)</text>
</g>
<!-- sequence: load_tool(left_hand, parallel_box1)&#45;&gt;selector: unload_tool(left_hand, outward_claw) -->
<g id="edge7" class="edge">
<title>sequence: load_tool(left_hand, parallel_box1)&#45;&gt;selector: unload_tool(left_hand, outward_claw)</title>
<path fill="none" stroke="black" d="M671.98,-215.7C671.98,-207.98 671.98,-198.71 671.98,-190.11"/>
<polygon fill="black" stroke="black" points="675.48,-190.1 671.98,-180.1 668.48,-190.1 675.48,-190.1"/>
</g>
<!-- action: load_tool(left_hand, parallel_box1) -->
<g id="node18" class="node">
<title>action: load_tool(left_hand, parallel_box1)</title>
<ellipse fill="none" stroke="black" cx="1119.98" cy="-162" rx="204.16" ry="18"/>
<text text-anchor="middle" x="1119.98" y="-158.3" font-family="Times,serif" font-size="14.00">action: load_tool(left_hand, parallel_box1)</text>
</g>
<!-- sequence: load_tool(left_hand, parallel_box1)&#45;&gt;action: load_tool(left_hand, parallel_box1) -->
<g id="edge12" class="edge">
<title>sequence: load_tool(left_hand, parallel_box1)&#45;&gt;action: load_tool(left_hand, parallel_box1)</title>
<path fill="none" stroke="black" d="M768.91,-217.85C841.16,-206.57 939.75,-191.16 1014.06,-179.55"/>
<polygon fill="black" stroke="black" points="1015.04,-182.94 1024.38,-177.94 1013.96,-176.02 1015.04,-182.94"/>
</g>
<!-- precondition -->
<g id="node10" class="node">
<title>precondition</title>
<ellipse fill="gray" stroke="black" cx="1590.98" cy="-450" rx="127.69" ry="18"/>
<text text-anchor="middle" x="1590.98" y="-447.8" font-family="Times,serif" font-size="9.00">precondition: hold(left_hand, parallel_box1)</text>
</g>
<!-- target: is_free(left_hand)* -->
<g id="node13" class="node">
<title>target: is_free(left_hand)*</title>
<ellipse fill="none" stroke="black" cx="480.98" cy="-90" rx="129.98" ry="18"/>
<text text-anchor="middle" x="480.98" y="-86.3" font-family="Times,serif" font-size="14.00">target: is_free(left_hand)*</text>
</g>
<!-- selector: unload_tool(left_hand, outward_claw)&#45;&gt;target: is_free(left_hand)* -->
<g id="edge8" class="edge">
<title>selector: unload_tool(left_hand, outward_claw)&#45;&gt;target: is_free(left_hand)*</title>
<path fill="none" stroke="black" d="M626.23,-144.23C598.57,-134.09 563.18,-121.12 534.25,-110.52"/>
<polygon fill="black" stroke="black" points="535.31,-107.18 524.71,-107.03 532.9,-113.76 535.31,-107.18"/>
</g>
<!-- sequence: unload_tool(left_hand, outward_claw) -->
<g id="node14" class="node">
<title>sequence: unload_tool(left_hand, outward_claw)</title>
<ellipse fill="none" stroke="black" cx="861.98" cy="-90" rx="232.86" ry="18"/>
<text text-anchor="middle" x="861.98" y="-86.3" font-family="Times,serif" font-size="14.00">sequence: unload_tool(left_hand, outward_claw)</text>
</g>
<!-- selector: unload_tool(left_hand, outward_claw)&#45;&gt;sequence: unload_tool(left_hand, outward_claw) -->
<g id="edge9" class="edge">
<title>selector: unload_tool(left_hand, outward_claw)&#45;&gt;sequence: unload_tool(left_hand, outward_claw)</title>
<path fill="none" stroke="black" d="M717.49,-144.23C744.42,-134.31 778.7,-121.68 807.12,-111.21"/>
<polygon fill="black" stroke="black" points="808.34,-114.49 816.51,-107.75 805.92,-107.92 808.34,-114.49"/>
</g>
<!-- precondition: hold(left_hand, outward_claw) -->
<g id="node15" class="node">
<title>precondition: hold(left_hand, outward_claw)</title>
<ellipse fill="none" stroke="black" cx="636.98" cy="-18" rx="214.46" ry="18"/>
<text text-anchor="middle" x="636.98" y="-14.3" font-family="Times,serif" font-size="14.00">precondition: hold(left_hand, outward_claw)</text>
</g>
<!-- sequence: unload_tool(left_hand, outward_claw)&#45;&gt;precondition: hold(left_hand, outward_claw) -->
<g id="edge10" class="edge">
<title>sequence: unload_tool(left_hand, outward_claw)&#45;&gt;precondition: hold(left_hand, outward_claw)</title>
<path fill="none" stroke="black" d="M808.66,-72.41C776.01,-62.25 734.08,-49.21 699.82,-38.55"/>
<polygon fill="black" stroke="black" points="700.51,-35.1 689.92,-35.47 698.43,-41.78 700.51,-35.1"/>
</g>
<!-- action: unload_tool(left_hand, outward_claw) -->
<g id="node17" class="node">
<title>action: unload_tool(left_hand, outward_claw)</title>
<ellipse fill="none" stroke="black" cx="1086.98" cy="-18" rx="217.96" ry="18"/>
<text text-anchor="middle" x="1086.98" y="-14.3" font-family="Times,serif" font-size="14.00">action: unload_tool(left_hand, outward_claw)</text>
</g>
<!-- sequence: unload_tool(left_hand, outward_claw)&#45;&gt;action: unload_tool(left_hand, outward_claw) -->
<g id="edge11" class="edge">
<title>sequence: unload_tool(left_hand, outward_claw)&#45;&gt;action: unload_tool(left_hand, outward_claw)</title>
<path fill="none" stroke="black" d="M915.3,-72.41C947.95,-62.25 989.88,-49.21 1024.14,-38.55"/>
<polygon fill="black" stroke="black" points="1025.53,-41.78 1034.04,-35.47 1023.45,-35.1 1025.53,-41.78"/>
</g>
<!-- action -->
<g id="node16" class="node">
<title>action</title>
<ellipse fill="gray" stroke="black" cx="1914.98" cy="-450" rx="178.3" ry="18"/>
<text text-anchor="middle" x="1914.98" y="-447.8" font-family="Times,serif" font-size="9.00">action: insert(left_hand, parallel_box1, shaft1, gearbase_hole1)</text>
</g>
<!-- target: hold(parallel_box1, shaft1) -->
<g id="node20" class="node">
<title>target: hold(parallel_box1, shaft1)</title>
<ellipse fill="none" stroke="black" cx="1134.98" cy="-234" rx="168.97" ry="18"/>
<text text-anchor="middle" x="1134.98" y="-230.3" font-family="Times,serif" font-size="14.00">target: hold(parallel_box1, shaft1)</text>
</g>
<!-- selector: pick_up(left_hand, parallel_box1, shaft1)&#45;&gt;target: hold(parallel_box1, shaft1) -->
<g id="edge14" class="edge">
<title>selector: pick_up(left_hand, parallel_box1, shaft1)&#45;&gt;target: hold(parallel_box1, shaft1)</title>
<path fill="none" stroke="black" d="M1139.5,-287.7C1138.84,-279.98 1138.04,-270.71 1137.3,-262.11"/>
<polygon fill="black" stroke="black" points="1140.79,-261.77 1136.45,-252.1 1133.81,-262.37 1140.79,-261.77"/>
</g>
<!-- sequence: pick_up(left_hand, parallel_box1, shaft1) -->
<g id="node21" class="node">
<title>sequence: pick_up(left_hand, parallel_box1, shaft1)</title>
<ellipse fill="none" stroke="black" cx="1569.98" cy="-234" rx="247.76" ry="18"/>
<text text-anchor="middle" x="1569.98" y="-230.3" font-family="Times,serif" font-size="14.00">sequence: pick_up(left_hand, parallel_box1, shaft1)</text>
</g>
<!-- selector: pick_up(left_hand, parallel_box1, shaft1)&#45;&gt;sequence: pick_up(left_hand, parallel_box1, shaft1) -->
<g id="edge15" class="edge">
<title>selector: pick_up(left_hand, parallel_box1, shaft1)&#45;&gt;sequence: pick_up(left_hand, parallel_box1, shaft1)</title>
<path fill="none" stroke="black" d="M1236.46,-289.42C1303.88,-278.42 1394.25,-263.67 1463.92,-252.31"/>
<polygon fill="black" stroke="black" points="1464.74,-255.72 1474.04,-250.65 1463.61,-248.81 1464.74,-255.72"/>
</g>
<!-- precondition: hold(left_hand, parallel_box1) -->
<g id="node22" class="node">
<title>precondition: hold(left_hand, parallel_box1)</title>
<ellipse fill="none" stroke="black" cx="1566.98" cy="-162" rx="212.56" ry="18"/>
<text text-anchor="middle" x="1566.98" y="-158.3" font-family="Times,serif" font-size="14.00">precondition: hold(left_hand, parallel_box1)</text>
</g>
<!-- sequence: pick_up(left_hand, parallel_box1, shaft1)&#45;&gt;precondition: hold(left_hand, parallel_box1) -->
<g id="edge16" class="edge">
<title>sequence: pick_up(left_hand, parallel_box1, shaft1)&#45;&gt;precondition: hold(left_hand, parallel_box1)</title>
<path fill="none" stroke="black" d="M1569.24,-215.7C1568.91,-207.98 1568.51,-198.71 1568.14,-190.11"/>
<polygon fill="black" stroke="black" points="1571.64,-189.95 1567.71,-180.1 1564.64,-190.25 1571.64,-189.95"/>
</g>
<!-- action: pick_up(left_hand, parallel_box1, shaft1) -->
<g id="node23" class="node">
<title>action: pick_up(left_hand, parallel_box1, shaft1)</title>
<ellipse fill="none" stroke="black" cx="2029.98" cy="-162" rx="232.86" ry="18"/>
<text text-anchor="middle" x="2029.98" y="-158.3" font-family="Times,serif" font-size="14.00">action: pick_up(left_hand, parallel_box1, shaft1)</text>
</g>
<!-- sequence: pick_up(left_hand, parallel_box1, shaft1)&#45;&gt;action: pick_up(left_hand, parallel_box1, shaft1) -->
<g id="edge17" class="edge">
<title>sequence: pick_up(left_hand, parallel_box1, shaft1)&#45;&gt;action: pick_up(left_hand, parallel_box1, shaft1)</title>
<path fill="none" stroke="black" d="M1671.5,-217.55C1744.93,-206.38 1844.09,-191.29 1919.5,-179.81"/>
<polygon fill="black" stroke="black" points="1920.15,-183.25 1929.51,-178.29 1919.1,-176.33 1920.15,-183.25"/>
</g>
</g>
</svg>
