<?xml version="1.0" encoding="UTF-8" standalone="no"?>
<!DOCTYPE svg PUBLIC "-//W3C//DTD SVG 1.1//EN"
 "http://www.w3.org/Graphics/SVG/1.1/DTD/svg11.dtd">
<!-- Generated by graphviz version 2.43.0 (0)
 -->
<!-- Title: pastafarianism Pages: 1 -->
<svg width="2222pt" height="188pt"
 viewBox="0.00 0.00 2222.49 188.00" xmlns="http://www.w3.org/2000/svg" xmlns:xlink="http://www.w3.org/1999/xlink">
<g id="graph0" class="graph" transform="scale(1 1) rotate(0) translate(4 184)">
<title>pastafarianism</title>
<polygon fill="white" stroke="transparent" points="-4,4 -4,-184 2218.49,-184 2218.49,4 -4,4"/>
<!-- selector -->
<g id="node1" class="node">
<title>selector</title>
<polygon fill="cyan" stroke="black" points="389.92,-154.54 389.92,-169.46 275.73,-180 114.22,-180 0.03,-169.46 0.03,-154.54 114.22,-144 275.73,-144 389.92,-154.54"/>
<text text-anchor="middle" x="194.97" y="-159.8" font-family="Times,serif" font-size="9.00">selector: change_tool(left_hand, outwardgripper, clampgripper)</text>
</g>
<!-- target -->
<g id="node2" class="node">
<title>target</title>
<ellipse fill="gray" stroke="black" cx="517.97" cy="-162" rx="110.05" ry="18"/>
<text text-anchor="middle" x="517.97" y="-159.8" font-family="Times,serif" font-size="9.00">target: hold(left_hand, clampgripper)</text>
</g>
<!-- selector: change_tool(left_hand, outwardgripper, clampgripper) -->
<g id="node3" class="node">
<title>selector: change_tool(left_hand, outwardgripper, clampgripper)</title>
<ellipse fill="none" stroke="black" cx="950.97" cy="-162" rx="304.65" ry="18"/>
<text text-anchor="middle" x="950.97" y="-158.3" font-family="Times,serif" font-size="14.00">selector: change_tool(left_hand, outwardgripper, clampgripper)</text>
</g>
<!-- target: hold(left_hand, clampgripper) -->
<g id="node4" class="node">
<title>target: hold(left_hand, clampgripper)</title>
<ellipse fill="none" stroke="black" cx="694.97" cy="-90" rx="183.07" ry="18"/>
<text text-anchor="middle" x="694.97" y="-86.3" font-family="Times,serif" font-size="14.00">target: hold(left_hand, clampgripper)</text>
</g>
<!-- selector: change_tool(left_hand, outwardgripper, clampgripper)&#45;&gt;target: hold(left_hand, clampgripper) -->
<g id="edge1" class="edge">
<title>selector: change_tool(left_hand, outwardgripper, clampgripper)&#45;&gt;target: hold(left_hand, clampgripper)</title>
<path fill="none" stroke="black" d="M889.98,-144.32C851.94,-133.92 802.91,-120.51 763.53,-109.75"/>
<polygon fill="black" stroke="black" points="764.31,-106.33 753.74,-107.07 762.46,-113.08 764.31,-106.33"/>
</g>
<!-- sequence: change_tool(left_hand, outwardgripper, clampgripper) -->
<g id="node6" class="node">
<title>sequence: change_tool(left_hand, outwardgripper, clampgripper)</title>
<ellipse fill="none" stroke="black" cx="1207.97" cy="-90" rx="311.14" ry="18"/>
<text text-anchor="middle" x="1207.97" y="-86.3" font-family="Times,serif" font-size="14.00">sequence: change_tool(left_hand, outwardgripper, clampgripper)</text>
</g>
<!-- selector: change_tool(left_hand, outwardgripper, clampgripper)&#45;&gt;sequence: change_tool(left_hand, outwardgripper, clampgripper) -->
<g id="edge2" class="edge">
<title>selector: change_tool(left_hand, outwardgripper, clampgripper)&#45;&gt;sequence: change_tool(left_hand, outwardgripper, clampgripper)</title>
<path fill="none" stroke="black" d="M1012.21,-144.32C1049.71,-134.11 1097.86,-120.99 1137.02,-110.33"/>
<polygon fill="black" stroke="black" points="1138.04,-113.68 1146.77,-107.67 1136.2,-106.92 1138.04,-113.68"/>
</g>
<!-- sequence -->
<g id="node5" class="node">
<title>sequence</title>
<polygon fill="orange" stroke="black" points="1592.47,-180 1273.47,-180 1273.47,-144 1592.47,-144 1592.47,-180"/>
<text text-anchor="middle" x="1432.97" y="-159.8" font-family="Times,serif" font-size="9.00">sequence: change_tool(left_hand, outwardgripper, clampgripper)</text>
</g>
<!-- precondition: hold(left_hand, outwardgripper) -->
<g id="node8" class="node">
<title>precondition: hold(left_hand, outwardgripper)</title>
<ellipse fill="none" stroke="black" cx="769.97" cy="-18" rx="223.66" ry="18"/>
<text text-anchor="middle" x="769.97" y="-14.3" font-family="Times,serif" font-size="14.00">precondition: hold(left_hand, outwardgripper)</text>
</g>
<!-- sequence: change_tool(left_hand, outwardgripper, clampgripper)&#45;&gt;precondition: hold(left_hand, outwardgripper) -->
<g id="edge3" class="edge">
<title>sequence: change_tool(left_hand, outwardgripper, clampgripper)&#45;&gt;precondition: hold(left_hand, outwardgripper)</title>
<path fill="none" stroke="black" d="M1107.49,-72.94C1038.28,-61.88 946.48,-47.21 876.08,-35.96"/>
<polygon fill="black" stroke="black" points="876.29,-32.45 865.86,-34.32 875.18,-39.36 876.29,-32.45"/>
</g>
<!-- precondition: is_empty(outwardgripper) -->
<g id="node9" class="node">
<title>precondition: is_empty(outwardgripper)</title>
<ellipse fill="none" stroke="black" cx="1207.97" cy="-18" rx="196.07" ry="18"/>
<text text-anchor="middle" x="1207.97" y="-14.3" font-family="Times,serif" font-size="14.00">precondition: is_empty(outwardgripper)</text>
</g>
<!-- sequence: change_tool(left_hand, outwardgripper, clampgripper)&#45;&gt;precondition: is_empty(outwardgripper) -->
<g id="edge4" class="edge">
<title>sequence: change_tool(left_hand, outwardgripper, clampgripper)&#45;&gt;precondition: is_empty(outwardgripper)</title>
<path fill="none" stroke="black" d="M1207.97,-71.7C1207.97,-63.98 1207.97,-54.71 1207.97,-46.11"/>
<polygon fill="black" stroke="black" points="1211.47,-46.1 1207.97,-36.1 1204.47,-46.1 1211.47,-46.1"/>
</g>
<!-- action: change_tool(left_hand, outwardgripper, clampgripper) -->
<g id="node11" class="node">
<title>action: change_tool(left_hand, outwardgripper, clampgripper)</title>
<ellipse fill="none" stroke="black" cx="1717.97" cy="-18" rx="295.95" ry="18"/>
<text text-anchor="middle" x="1717.97" y="-14.3" font-family="Times,serif" font-size="14.00">action: change_tool(left_hand, outwardgripper, clampgripper)</text>
</g>
<!-- sequence: change_tool(left_hand, outwardgripper, clampgripper)&#45;&gt;action: change_tool(left_hand, outwardgripper, clampgripper) -->
<g id="edge5" class="edge">
<title>sequence: change_tool(left_hand, outwardgripper, clampgripper)&#45;&gt;action: change_tool(left_hand, outwardgripper, clampgripper)</title>
<path fill="none" stroke="black" d="M1322.75,-73.25C1403.47,-62.17 1511.41,-47.35 1594.09,-36"/>
<polygon fill="black" stroke="black" points="1594.61,-39.47 1604.04,-34.64 1593.66,-32.53 1594.61,-39.47"/>
</g>
<!-- precondition -->
<g id="node7" class="node">
<title>precondition</title>
<ellipse fill="gray" stroke="black" cx="1727.97" cy="-162" rx="117.4" ry="18"/>
<text text-anchor="middle" x="1727.97" y="-159.8" font-family="Times,serif" font-size="9.00">precondition: is_empty(outwardgripper)</text>
</g>
<!-- action -->
<g id="node10" class="node">
<title>action</title>
<ellipse fill="gray" stroke="black" cx="2038.97" cy="-162" rx="175.53" ry="18"/>
<text text-anchor="middle" x="2038.97" y="-159.8" font-family="Times,serif" font-size="9.00">action: change_tool(left_hand, outwardgripper, clampgripper)</text>
</g>
</g>
</svg>
