<?xml version="1.0" encoding="UTF-8" standalone="no"?>
<!DOCTYPE svg PUBLIC "-//W3C//DTD SVG 1.1//EN"
 "http://www.w3.org/Graphics/SVG/1.1/DTD/svg11.dtd">
<!-- Generated by graphviz version 2.43.0 (0)
 -->
<!-- Title: pastafarianism Pages: 1 -->
<svg width="2278pt" height="332pt"
 viewBox="0.00 0.00 2277.51 332.00" xmlns="http://www.w3.org/2000/svg" xmlns:xlink="http://www.w3.org/1999/xlink">
<g id="graph0" class="graph" transform="scale(1 1) rotate(0) translate(4 328)">
<title>pastafarianism</title>
<polygon fill="white" stroke="transparent" points="-4,4 -4,-328 2273.51,-328 2273.51,4 -4,4"/>
<!-- selector -->
<g id="node1" class="node">
<title>selector</title>
<polygon fill="cyan" stroke="black" points="287.35,-298.54 287.35,-313.46 207.26,-324 94,-324 13.92,-313.46 13.92,-298.54 94,-288 207.26,-288 287.35,-298.54"/>
<text text-anchor="middle" x="150.63" y="-303.8" font-family="Times,serif" font-size="9.00">selector: load_tool(left_hand, parallel_box1)</text>
</g>
<!-- target -->
<g id="node2" class="node">
<title>target</title>
<ellipse fill="gray" stroke="black" cx="415.63" cy="-306" rx="109.89" ry="18"/>
<text text-anchor="middle" x="415.63" y="-303.8" font-family="Times,serif" font-size="9.00">target: hold(left_hand, parallel_box1)</text>
</g>
<!-- selector: insert(left_hand, parallel_box1, shaft1, gearbase_hole1) -->
<g id="node3" class="node">
<title>selector: insert(left_hand, parallel_box1, shaft1, gearbase_hole1)</title>
<ellipse fill="none" stroke="black" cx="854.63" cy="-306" rx="311.14" ry="18"/>
<text text-anchor="middle" x="854.63" y="-302.3" font-family="Times,serif" font-size="14.00">selector: insert(left_hand, parallel_box1, shaft1, gearbase_hole1)</text>
</g>
<!-- target: is_inserted_to(shaft1, gearbase_hole1) -->
<g id="node4" class="node">
<title>target: is_inserted_to(shaft1, gearbase_hole1)</title>
<ellipse fill="none" stroke="black" cx="575.63" cy="-234" rx="223.66" ry="18"/>
<text text-anchor="middle" x="575.63" y="-230.3" font-family="Times,serif" font-size="14.00">target: is_inserted_to(shaft1, gearbase_hole1)</text>
</g>
<!-- selector: insert(left_hand, parallel_box1, shaft1, gearbase_hole1)&#45;&gt;target: is_inserted_to(shaft1, gearbase_hole1) -->
<g id="edge1" class="edge">
<title>selector: insert(left_hand, parallel_box1, shaft1, gearbase_hole1)&#45;&gt;target: is_inserted_to(shaft1, gearbase_hole1)</title>
<path fill="none" stroke="black" d="M788.16,-288.32C746.74,-277.93 693.36,-264.54 650.46,-253.77"/>
<polygon fill="black" stroke="black" points="651.19,-250.35 640.64,-251.31 649.48,-257.14 651.19,-250.35"/>
</g>
<!-- sequence: insert(left_hand, parallel_box1, shaft1, gearbase_hole1) -->
<g id="node6" class="node">
<title>sequence: insert(left_hand, parallel_box1, shaft1, gearbase_hole1)</title>
<ellipse fill="none" stroke="black" cx="1134.63" cy="-234" rx="317.64" ry="18"/>
<text text-anchor="middle" x="1134.63" y="-230.3" font-family="Times,serif" font-size="14.00">sequence: insert(left_hand, parallel_box1, shaft1, gearbase_hole1)</text>
</g>
<!-- selector: insert(left_hand, parallel_box1, shaft1, gearbase_hole1)&#45;&gt;sequence: insert(left_hand, parallel_box1, shaft1, gearbase_hole1) -->
<g id="edge2" class="edge">
<title>selector: insert(left_hand, parallel_box1, shaft1, gearbase_hole1)&#45;&gt;sequence: insert(left_hand, parallel_box1, shaft1, gearbase_hole1)</title>
<path fill="none" stroke="black" d="M920.99,-288.41C962.1,-278.13 1015.05,-264.9 1057.95,-254.17"/>
<polygon fill="black" stroke="black" points="1058.93,-257.53 1067.78,-251.71 1057.23,-250.74 1058.93,-257.53"/>
</g>
<!-- sequence -->
<g id="node5" class="node">
<title>sequence</title>
<polygon fill="orange" stroke="black" points="1409.63,-324 1183.63,-324 1183.63,-288 1409.63,-288 1409.63,-324"/>
<text text-anchor="middle" x="1296.63" y="-303.8" font-family="Times,serif" font-size="9.00">sequence: load_tool(left_hand, parallel_box1)</text>
</g>
<!-- selector: load_tool(left_hand, parallel_box1) -->
<g id="node7" class="node">
<title>selector: load_tool(left_hand, parallel_box1)</title>
<ellipse fill="none" stroke="black" cx="392.63" cy="-162" rx="212.56" ry="18"/>
<text text-anchor="middle" x="392.63" y="-158.3" font-family="Times,serif" font-size="14.00">selector: load_tool(left_hand, parallel_box1)</text>
</g>
<!-- sequence: insert(left_hand, parallel_box1, shaft1, gearbase_hole1)&#45;&gt;selector: load_tool(left_hand, parallel_box1) -->
<g id="edge3" class="edge">
<title>sequence: insert(left_hand, parallel_box1, shaft1, gearbase_hole1)&#45;&gt;selector: load_tool(left_hand, parallel_box1)</title>
<path fill="none" stroke="black" d="M978.63,-218.28C848.99,-206.05 665.86,-188.78 538.98,-176.81"/>
<polygon fill="black" stroke="black" points="539.08,-173.3 528.79,-175.85 538.42,-180.27 539.08,-173.3"/>
</g>
<!-- precondition: can_manipulate(parallel_box1, shaft1) -->
<g id="node15" class="node">
<title>precondition: can_manipulate(parallel_box1, shaft1)</title>
<ellipse fill="none" stroke="black" cx="874.63" cy="-162" rx="251.56" ry="18"/>
<text text-anchor="middle" x="874.63" y="-158.3" font-family="Times,serif" font-size="14.00">precondition: can_manipulate(parallel_box1, shaft1)</text>
</g>
<!-- sequence: insert(left_hand, parallel_box1, shaft1, gearbase_hole1)&#45;&gt;precondition: can_manipulate(parallel_box1, shaft1) -->
<g id="edge9" class="edge">
<title>sequence: insert(left_hand, parallel_box1, shaft1, gearbase_hole1)&#45;&gt;precondition: can_manipulate(parallel_box1, shaft1)</title>
<path fill="none" stroke="black" d="M1072.69,-216.32C1034.61,-206.07 985.68,-192.9 945.99,-182.21"/>
<polygon fill="black" stroke="black" points="946.67,-178.77 936.11,-179.55 944.85,-185.53 946.67,-178.77"/>
</g>
<!-- precondition: can_insert_to(shaft1, gearbase_hole1) -->
<g id="node16" class="node">
<title>precondition: can_insert_to(shaft1, gearbase_hole1)</title>
<ellipse fill="none" stroke="black" cx="1394.63" cy="-162" rx="250.76" ry="18"/>
<text text-anchor="middle" x="1394.63" y="-158.3" font-family="Times,serif" font-size="14.00">precondition: can_insert_to(shaft1, gearbase_hole1)</text>
</g>
<!-- sequence: insert(left_hand, parallel_box1, shaft1, gearbase_hole1)&#45;&gt;precondition: can_insert_to(shaft1, gearbase_hole1) -->
<g id="edge10" class="edge">
<title>sequence: insert(left_hand, parallel_box1, shaft1, gearbase_hole1)&#45;&gt;precondition: can_insert_to(shaft1, gearbase_hole1)</title>
<path fill="none" stroke="black" d="M1196.58,-216.32C1234.66,-206.07 1283.58,-192.9 1323.28,-182.21"/>
<polygon fill="black" stroke="black" points="1324.42,-185.53 1333.16,-179.55 1322.6,-178.77 1324.42,-185.53"/>
</g>
<!-- action: insert(left_hand, parallel_box1, shaft1, gearbase_hole1) -->
<g id="node17" class="node">
<title>action: insert(left_hand, parallel_box1, shaft1, gearbase_hole1)</title>
<ellipse fill="none" stroke="black" cx="1966.63" cy="-162" rx="302.75" ry="18"/>
<text text-anchor="middle" x="1966.63" y="-158.3" font-family="Times,serif" font-size="14.00">action: insert(left_hand, parallel_box1, shaft1, gearbase_hole1)</text>
</g>
<!-- sequence: insert(left_hand, parallel_box1, shaft1, gearbase_hole1)&#45;&gt;action: insert(left_hand, parallel_box1, shaft1, gearbase_hole1) -->
<g id="edge11" class="edge">
<title>sequence: insert(left_hand, parallel_box1, shaft1, gearbase_hole1)&#45;&gt;action: insert(left_hand, parallel_box1, shaft1, gearbase_hole1)</title>
<path fill="none" stroke="black" d="M1304,-218.75C1445.29,-206.86 1645.98,-189.98 1789.41,-177.91"/>
<polygon fill="black" stroke="black" points="1789.96,-181.38 1799.63,-177.05 1789.37,-174.4 1789.96,-181.38"/>
</g>
<!-- target: hold(left_hand, parallel_box1) -->
<g id="node8" class="node">
<title>target: hold(left_hand, parallel_box1)</title>
<ellipse fill="none" stroke="black" cx="182.63" cy="-90" rx="182.77" ry="18"/>
<text text-anchor="middle" x="182.63" y="-86.3" font-family="Times,serif" font-size="14.00">target: hold(left_hand, parallel_box1)</text>
</g>
<!-- selector: load_tool(left_hand, parallel_box1)&#45;&gt;target: hold(left_hand, parallel_box1) -->
<g id="edge4" class="edge">
<title>selector: load_tool(left_hand, parallel_box1)&#45;&gt;target: hold(left_hand, parallel_box1)</title>
<path fill="none" stroke="black" d="M342.87,-144.41C312.42,-134.26 273.31,-121.23 241.35,-110.57"/>
<polygon fill="black" stroke="black" points="242.27,-107.19 231.68,-107.35 240.06,-113.83 242.27,-107.19"/>
</g>
<!-- sequence: load_tool(left_hand, parallel_box1) -->
<g id="node9" class="node">
<title>sequence: load_tool(left_hand, parallel_box1)</title>
<ellipse fill="none" stroke="black" cx="602.63" cy="-90" rx="219.06" ry="18"/>
<text text-anchor="middle" x="602.63" y="-86.3" font-family="Times,serif" font-size="14.00">sequence: load_tool(left_hand, parallel_box1)</text>
</g>
<!-- selector: load_tool(left_hand, parallel_box1)&#45;&gt;sequence: load_tool(left_hand, parallel_box1) -->
<g id="edge5" class="edge">
<title>selector: load_tool(left_hand, parallel_box1)&#45;&gt;sequence: load_tool(left_hand, parallel_box1)</title>
<path fill="none" stroke="black" d="M442.4,-144.41C472.63,-134.34 511.39,-121.41 543.22,-110.8"/>
<polygon fill="black" stroke="black" points="544.48,-114.07 552.86,-107.59 542.27,-107.43 544.48,-114.07"/>
</g>
<!-- precondition: is_equippable(parallel_box1) -->
<g id="node11" class="node">
<title>precondition: is_equippable(parallel_box1)</title>
<ellipse fill="none" stroke="black" cx="221.63" cy="-18" rx="207.16" ry="18"/>
<text text-anchor="middle" x="221.63" y="-14.3" font-family="Times,serif" font-size="14.00">precondition: is_equippable(parallel_box1)</text>
</g>
<!-- sequence: load_tool(left_hand, parallel_box1)&#45;&gt;precondition: is_equippable(parallel_box1) -->
<g id="edge6" class="edge">
<title>sequence: load_tool(left_hand, parallel_box1)&#45;&gt;precondition: is_equippable(parallel_box1)</title>
<path fill="none" stroke="black" d="M517.6,-73.38C457.77,-62.39 377.67,-47.67 315.89,-36.32"/>
<polygon fill="black" stroke="black" points="316.21,-32.82 305.75,-34.45 314.95,-39.7 316.21,-32.82"/>
</g>
<!-- precondition: is_free(left_hand) -->
<g id="node12" class="node">
<title>precondition: is_free(left_hand)</title>
<ellipse fill="none" stroke="black" cx="602.63" cy="-18" rx="155.17" ry="18"/>
<text text-anchor="middle" x="602.63" y="-14.3" font-family="Times,serif" font-size="14.00">precondition: is_free(left_hand)</text>
</g>
<!-- sequence: load_tool(left_hand, parallel_box1)&#45;&gt;precondition: is_free(left_hand) -->
<g id="edge7" class="edge">
<title>sequence: load_tool(left_hand, parallel_box1)&#45;&gt;precondition: is_free(left_hand)</title>
<path fill="none" stroke="black" d="M602.63,-71.7C602.63,-63.98 602.63,-54.71 602.63,-46.11"/>
<polygon fill="black" stroke="black" points="606.13,-46.1 602.63,-36.1 599.13,-46.1 606.13,-46.1"/>
</g>
<!-- action: load_tool(left_hand, parallel_box1) -->
<g id="node14" class="node">
<title>action: load_tool(left_hand, parallel_box1)</title>
<ellipse fill="none" stroke="black" cx="979.63" cy="-18" rx="204.16" ry="18"/>
<text text-anchor="middle" x="979.63" y="-14.3" font-family="Times,serif" font-size="14.00">action: load_tool(left_hand, parallel_box1)</text>
</g>
<!-- sequence: load_tool(left_hand, parallel_box1)&#45;&gt;action: load_tool(left_hand, parallel_box1) -->
<g id="edge8" class="edge">
<title>sequence: load_tool(left_hand, parallel_box1)&#45;&gt;action: load_tool(left_hand, parallel_box1)</title>
<path fill="none" stroke="black" d="M686.77,-73.38C745.97,-62.39 825.23,-47.67 886.37,-36.32"/>
<polygon fill="black" stroke="black" points="887.21,-39.72 896.4,-34.45 885.93,-32.84 887.21,-39.72"/>
</g>
<!-- precondition -->
<g id="node10" class="node">
<title>precondition</title>
<ellipse fill="gray" stroke="black" cx="1575.63" cy="-306" rx="148.26" ry="18"/>
<text text-anchor="middle" x="1575.63" y="-303.8" font-family="Times,serif" font-size="9.00">precondition: can_insert_to(shaft1, gearbase_hole1)</text>
</g>
<!-- action -->
<g id="node13" class="node">
<title>action</title>
<ellipse fill="gray" stroke="black" cx="1920.63" cy="-306" rx="178.3" ry="18"/>
<text text-anchor="middle" x="1920.63" y="-303.8" font-family="Times,serif" font-size="9.00">action: insert(left_hand, parallel_box1, shaft1, gearbase_hole1)</text>
</g>
</g>
</svg>
