<?xml version="1.0" encoding="UTF-8" standalone="no"?>
<!DOCTYPE svg PUBLIC "-//W3C//DTD SVG 1.1//EN"
 "http://www.w3.org/Graphics/SVG/1.1/DTD/svg11.dtd">
<!-- Generated by graphviz version 2.43.0 (0)
 -->
<!-- Title: pastafarianism Pages: 1 -->
<svg width="3478pt" height="332pt"
 viewBox="0.00 0.00 3478.11 332.00" xmlns="http://www.w3.org/2000/svg" xmlns:xlink="http://www.w3.org/1999/xlink">
<g id="graph0" class="graph" transform="scale(1 1) rotate(0) translate(4 328)">
<title>pastafarianism</title>
<polygon fill="white" stroke="transparent" points="-4,4 -4,-328 3474.11,-328 3474.11,4 -4,4"/>
<!-- selector -->
<g id="node1" class="node">
<title>selector</title>
<polygon fill="cyan" stroke="black" points="1418.55,-298.54 1418.55,-313.46 1338.46,-324 1225.21,-324 1145.12,-313.46 1145.12,-298.54 1225.21,-288 1338.46,-288 1418.55,-298.54"/>
<text text-anchor="middle" x="1281.83" y="-303.8" font-family="Times,serif" font-size="9.00">selector: pick_up(left_hand, no_tool, shaft3)</text>
</g>
<!-- target -->
<g id="node2" class="node">
<title>target</title>
<ellipse fill="gray" stroke="black" cx="1520.83" cy="-306" rx="84.09" ry="18"/>
<text text-anchor="middle" x="1520.83" y="-303.8" font-family="Times,serif" font-size="9.00">target: hold(no_tool, shaft3)</text>
</g>
<!-- selector: insert(left_hand, no_tool, shaft3, gearbase_hole3) -->
<g id="node3" class="node">
<title>selector: insert(left_hand, no_tool, shaft3, gearbase_hole3)</title>
<ellipse fill="none" stroke="black" cx="1905.83" cy="-306" rx="282.95" ry="18"/>
<text text-anchor="middle" x="1905.83" y="-302.3" font-family="Times,serif" font-size="14.00">selector: insert(left_hand, no_tool, shaft3, gearbase_hole3)</text>
</g>
<!-- target: is_inserted_to(shaft3, gearbase_hole3) -->
<g id="node4" class="node">
<title>target: is_inserted_to(shaft3, gearbase_hole3)</title>
<ellipse fill="none" stroke="black" cx="1640.83" cy="-234" rx="223.66" ry="18"/>
<text text-anchor="middle" x="1640.83" y="-230.3" font-family="Times,serif" font-size="14.00">target: is_inserted_to(shaft3, gearbase_hole3)</text>
</g>
<!-- selector: insert(left_hand, no_tool, shaft3, gearbase_hole3)&#45;&gt;target: is_inserted_to(shaft3, gearbase_hole3) -->
<g id="edge1" class="edge">
<title>selector: insert(left_hand, no_tool, shaft3, gearbase_hole3)&#45;&gt;target: is_inserted_to(shaft3, gearbase_hole3)</title>
<path fill="none" stroke="black" d="M1843.03,-288.41C1803.87,-278.07 1753.34,-264.72 1712.59,-253.96"/>
<polygon fill="black" stroke="black" points="1713.29,-250.52 1702.73,-251.35 1711.5,-257.29 1713.29,-250.52"/>
</g>
<!-- sequence: insert(left_hand, no_tool, shaft3, gearbase_hole3) -->
<g id="node6" class="node">
<title>sequence: insert(left_hand, no_tool, shaft3, gearbase_hole3)</title>
<ellipse fill="none" stroke="black" cx="2171.83" cy="-234" rx="289.45" ry="18"/>
<text text-anchor="middle" x="2171.83" y="-230.3" font-family="Times,serif" font-size="14.00">sequence: insert(left_hand, no_tool, shaft3, gearbase_hole3)</text>
</g>
<!-- selector: insert(left_hand, no_tool, shaft3, gearbase_hole3)&#45;&gt;sequence: insert(left_hand, no_tool, shaft3, gearbase_hole3) -->
<g id="edge2" class="edge">
<title>selector: insert(left_hand, no_tool, shaft3, gearbase_hole3)&#45;&gt;sequence: insert(left_hand, no_tool, shaft3, gearbase_hole3)</title>
<path fill="none" stroke="black" d="M1968.87,-288.41C2007.9,-278.14 2058.17,-264.91 2098.92,-254.19"/>
<polygon fill="black" stroke="black" points="2100.01,-257.52 2108.79,-251.59 2098.23,-250.75 2100.01,-257.52"/>
</g>
<!-- sequence -->
<g id="node5" class="node">
<title>sequence</title>
<polygon fill="orange" stroke="black" points="2432.83,-324 2206.83,-324 2206.83,-288 2432.83,-288 2432.83,-324"/>
<text text-anchor="middle" x="2319.83" y="-303.8" font-family="Times,serif" font-size="9.00">sequence: pick_up(left_hand, no_tool, shaft3)</text>
</g>
<!-- selector: unload_tool(left_hand, parallel_box1) -->
<g id="node7" class="node">
<title>selector: unload_tool(left_hand, parallel_box1)</title>
<ellipse fill="none" stroke="black" cx="802.83" cy="-162" rx="224.46" ry="18"/>
<text text-anchor="middle" x="802.83" y="-158.3" font-family="Times,serif" font-size="14.00">selector: unload_tool(left_hand, parallel_box1)</text>
</g>
<!-- sequence: insert(left_hand, no_tool, shaft3, gearbase_hole3)&#45;&gt;selector: unload_tool(left_hand, parallel_box1) -->
<g id="edge3" class="edge">
<title>sequence: insert(left_hand, no_tool, shaft3, gearbase_hole3)&#45;&gt;selector: unload_tool(left_hand, parallel_box1)</title>
<path fill="none" stroke="black" d="M1968.26,-221.18C1936.65,-219.41 1904.37,-217.63 1873.83,-216 1569.14,-199.77 1215.6,-182.6 1000.65,-172.34"/>
<polygon fill="black" stroke="black" points="1000.68,-168.84 990.52,-171.86 1000.34,-175.83 1000.68,-168.84"/>
</g>
<!-- selector: load_tool(left_hand, no_tool) -->
<g id="node15" class="node">
<title>selector: load_tool(left_hand, no_tool)</title>
<ellipse fill="none" stroke="black" cx="1757.83" cy="-162" rx="183.87" ry="18"/>
<text text-anchor="middle" x="1757.83" y="-158.3" font-family="Times,serif" font-size="14.00">selector: load_tool(left_hand, no_tool)</text>
</g>
<!-- sequence: insert(left_hand, no_tool, shaft3, gearbase_hole3)&#45;&gt;selector: load_tool(left_hand, no_tool) -->
<g id="edge9" class="edge">
<title>sequence: insert(left_hand, no_tool, shaft3, gearbase_hole3)&#45;&gt;selector: load_tool(left_hand, no_tool)</title>
<path fill="none" stroke="black" d="M2077.11,-216.98C2010.93,-205.79 1922.8,-190.89 1855.9,-179.58"/>
<polygon fill="black" stroke="black" points="1856.21,-176.08 1845.77,-177.87 1855.04,-182.99 1856.21,-176.08"/>
</g>
<!-- selector: pick_up(left_hand, no_tool, shaft3) -->
<g id="node21" class="node">
<title>selector: pick_up(left_hand, no_tool, shaft3)</title>
<ellipse fill="none" stroke="black" cx="2171.83" cy="-162" rx="212.56" ry="18"/>
<text text-anchor="middle" x="2171.83" y="-158.3" font-family="Times,serif" font-size="14.00">selector: pick_up(left_hand, no_tool, shaft3)</text>
</g>
<!-- sequence: insert(left_hand, no_tool, shaft3, gearbase_hole3)&#45;&gt;selector: pick_up(left_hand, no_tool, shaft3) -->
<g id="edge15" class="edge">
<title>sequence: insert(left_hand, no_tool, shaft3, gearbase_hole3)&#45;&gt;selector: pick_up(left_hand, no_tool, shaft3)</title>
<path fill="none" stroke="black" d="M2171.83,-215.7C2171.83,-207.98 2171.83,-198.71 2171.83,-190.11"/>
<polygon fill="black" stroke="black" points="2175.33,-190.1 2171.83,-180.1 2168.33,-190.1 2175.33,-190.1"/>
</g>
<!-- precondition: can_insert_to(shaft3, gearbase_hole3) -->
<g id="node27" class="node">
<title>precondition: can_insert_to(shaft3, gearbase_hole3)</title>
<ellipse fill="none" stroke="black" cx="2652.83" cy="-162" rx="250.76" ry="18"/>
<text text-anchor="middle" x="2652.83" y="-158.3" font-family="Times,serif" font-size="14.00">precondition: can_insert_to(shaft3, gearbase_hole3)</text>
</g>
<!-- sequence: insert(left_hand, no_tool, shaft3, gearbase_hole3)&#45;&gt;precondition: can_insert_to(shaft3, gearbase_hole3) -->
<g id="edge21" class="edge">
<title>sequence: insert(left_hand, no_tool, shaft3, gearbase_hole3)&#45;&gt;precondition: can_insert_to(shaft3, gearbase_hole3)</title>
<path fill="none" stroke="black" d="M2279.78,-217.29C2356.41,-206.14 2459.16,-191.19 2537.41,-179.8"/>
<polygon fill="black" stroke="black" points="2537.93,-183.26 2547.32,-178.36 2536.92,-176.33 2537.93,-183.26"/>
</g>
<!-- action: insert(left_hand, no_tool, shaft3, gearbase_hole3) -->
<g id="node28" class="node">
<title>action: insert(left_hand, no_tool, shaft3, gearbase_hole3)</title>
<ellipse fill="none" stroke="black" cx="3195.83" cy="-162" rx="274.05" ry="18"/>
<text text-anchor="middle" x="3195.83" y="-158.3" font-family="Times,serif" font-size="14.00">action: insert(left_hand, no_tool, shaft3, gearbase_hole3)</text>
</g>
<!-- sequence: insert(left_hand, no_tool, shaft3, gearbase_hole3)&#45;&gt;action: insert(left_hand, no_tool, shaft3, gearbase_hole3) -->
<g id="edge22" class="edge">
<title>sequence: insert(left_hand, no_tool, shaft3, gearbase_hole3)&#45;&gt;action: insert(left_hand, no_tool, shaft3, gearbase_hole3)</title>
<path fill="none" stroke="black" d="M2358.46,-220.24C2541.28,-207.74 2818.61,-188.79 3003.4,-176.15"/>
<polygon fill="black" stroke="black" points="3003.77,-179.64 3013.5,-175.46 3003.29,-172.65 3003.77,-179.64"/>
</g>
<!-- target: is_free(left_hand) -->
<g id="node8" class="node">
<title>target: is_free(left_hand)</title>
<ellipse fill="none" stroke="black" cx="427.83" cy="-90" rx="126.18" ry="18"/>
<text text-anchor="middle" x="427.83" y="-86.3" font-family="Times,serif" font-size="14.00">target: is_free(left_hand)</text>
</g>
<!-- selector: unload_tool(left_hand, parallel_box1)&#45;&gt;target: is_free(left_hand) -->
<g id="edge4" class="edge">
<title>selector: unload_tool(left_hand, parallel_box1)&#45;&gt;target: is_free(left_hand)</title>
<path fill="none" stroke="black" d="M718.68,-145.29C656.8,-133.74 573.08,-118.11 511.36,-106.59"/>
<polygon fill="black" stroke="black" points="511.73,-103.1 501.26,-104.71 510.45,-109.98 511.73,-103.1"/>
</g>
<!-- sequence: unload_tool(left_hand, parallel_box1) -->
<g id="node9" class="node">
<title>sequence: unload_tool(left_hand, parallel_box1)</title>
<ellipse fill="none" stroke="black" cx="802.83" cy="-90" rx="230.96" ry="18"/>
<text text-anchor="middle" x="802.83" y="-86.3" font-family="Times,serif" font-size="14.00">sequence: unload_tool(left_hand, parallel_box1)</text>
</g>
<!-- selector: unload_tool(left_hand, parallel_box1)&#45;&gt;sequence: unload_tool(left_hand, parallel_box1) -->
<g id="edge5" class="edge">
<title>selector: unload_tool(left_hand, parallel_box1)&#45;&gt;sequence: unload_tool(left_hand, parallel_box1)</title>
<path fill="none" stroke="black" d="M802.83,-143.7C802.83,-135.98 802.83,-126.71 802.83,-118.11"/>
<polygon fill="black" stroke="black" points="806.33,-118.1 802.83,-108.1 799.33,-118.1 806.33,-118.1"/>
</g>
<!-- precondition: is_free(parallel_box1) -->
<g id="node11" class="node">
<title>precondition: is_free(parallel_box1)</title>
<ellipse fill="none" stroke="black" cx="174.83" cy="-18" rx="174.67" ry="18"/>
<text text-anchor="middle" x="174.83" y="-14.3" font-family="Times,serif" font-size="14.00">precondition: is_free(parallel_box1)</text>
</g>
<!-- sequence: unload_tool(left_hand, parallel_box1)&#45;&gt;precondition: is_free(parallel_box1) -->
<g id="edge6" class="edge">
<title>sequence: unload_tool(left_hand, parallel_box1)&#45;&gt;precondition: is_free(parallel_box1)</title>
<path fill="none" stroke="black" d="M676.5,-74.92C566.49,-62.66 407.92,-44.98 298.65,-32.8"/>
<polygon fill="black" stroke="black" points="298.89,-29.31 288.56,-31.68 298.11,-36.26 298.89,-29.31"/>
</g>
<!-- precondition: hold(left_hand, parallel_box1) -->
<g id="node12" class="node">
<title>precondition: hold(left_hand, parallel_box1)</title>
<ellipse fill="none" stroke="black" cx="579.83" cy="-18" rx="212.56" ry="18"/>
<text text-anchor="middle" x="579.83" y="-14.3" font-family="Times,serif" font-size="14.00">precondition: hold(left_hand, parallel_box1)</text>
</g>
<!-- sequence: unload_tool(left_hand, parallel_box1)&#45;&gt;precondition: hold(left_hand, parallel_box1) -->
<g id="edge7" class="edge">
<title>sequence: unload_tool(left_hand, parallel_box1)&#45;&gt;precondition: hold(left_hand, parallel_box1)</title>
<path fill="none" stroke="black" d="M749.99,-72.41C717.63,-62.25 676.07,-49.21 642.12,-38.55"/>
<polygon fill="black" stroke="black" points="642.89,-35.13 632.3,-35.47 640.8,-41.8 642.89,-35.13"/>
</g>
<!-- action: unload_tool(left_hand, parallel_box1) -->
<g id="node14" class="node">
<title>action: unload_tool(left_hand, parallel_box1)</title>
<ellipse fill="none" stroke="black" cx="1025.83" cy="-18" rx="215.56" ry="18"/>
<text text-anchor="middle" x="1025.83" y="-14.3" font-family="Times,serif" font-size="14.00">action: unload_tool(left_hand, parallel_box1)</text>
</g>
<!-- sequence: unload_tool(left_hand, parallel_box1)&#45;&gt;action: unload_tool(left_hand, parallel_box1) -->
<g id="edge8" class="edge">
<title>sequence: unload_tool(left_hand, parallel_box1)&#45;&gt;action: unload_tool(left_hand, parallel_box1)</title>
<path fill="none" stroke="black" d="M855.68,-72.41C888.04,-62.25 929.6,-49.21 963.55,-38.55"/>
<polygon fill="black" stroke="black" points="964.87,-41.8 973.37,-35.47 962.78,-35.13 964.87,-41.8"/>
</g>
<!-- precondition -->
<g id="node10" class="node">
<title>precondition</title>
<ellipse fill="gray" stroke="black" cx="2598.83" cy="-306" rx="148.26" ry="18"/>
<text text-anchor="middle" x="2598.83" y="-303.8" font-family="Times,serif" font-size="9.00">precondition: can_insert_to(shaft3, gearbase_hole3)</text>
</g>
<!-- action -->
<g id="node13" class="node">
<title>action</title>
<ellipse fill="gray" stroke="black" cx="2926.83" cy="-306" rx="161.82" ry="18"/>
<text text-anchor="middle" x="2926.83" y="-303.8" font-family="Times,serif" font-size="9.00">action: insert(left_hand, no_tool, shaft3, gearbase_hole3)</text>
</g>
<!-- target: hold(left_hand, no_tool) -->
<g id="node16" class="node">
<title>target: hold(left_hand, no_tool)</title>
<ellipse fill="none" stroke="black" cx="1428.83" cy="-90" rx="154.07" ry="18"/>
<text text-anchor="middle" x="1428.83" y="-86.3" font-family="Times,serif" font-size="14.00">target: hold(left_hand, no_tool)</text>
</g>
<!-- selector: load_tool(left_hand, no_tool)&#45;&gt;target: hold(left_hand, no_tool) -->
<g id="edge10" class="edge">
<title>selector: load_tool(left_hand, no_tool)&#45;&gt;target: hold(left_hand, no_tool)</title>
<path fill="none" stroke="black" d="M1684.82,-145.46C1632.78,-134.39 1562.83,-119.51 1509.2,-108.1"/>
<polygon fill="black" stroke="black" points="1509.9,-104.67 1499.39,-106.01 1508.44,-111.52 1509.9,-104.67"/>
</g>
<!-- sequence: load_tool(left_hand, no_tool) -->
<g id="node17" class="node">
<title>sequence: load_tool(left_hand, no_tool)</title>
<ellipse fill="none" stroke="black" cx="1790.83" cy="-90" rx="190.37" ry="18"/>
<text text-anchor="middle" x="1790.83" y="-86.3" font-family="Times,serif" font-size="14.00">sequence: load_tool(left_hand, no_tool)</text>
</g>
<!-- selector: load_tool(left_hand, no_tool)&#45;&gt;sequence: load_tool(left_hand, no_tool) -->
<g id="edge11" class="edge">
<title>selector: load_tool(left_hand, no_tool)&#45;&gt;sequence: load_tool(left_hand, no_tool)</title>
<path fill="none" stroke="black" d="M1765.99,-143.7C1769.75,-135.73 1774.29,-126.1 1778.45,-117.26"/>
<polygon fill="black" stroke="black" points="1781.67,-118.64 1782.77,-108.1 1775.34,-115.66 1781.67,-118.64"/>
</g>
<!-- precondition: is_equippable(no_tool) -->
<g id="node18" class="node">
<title>precondition: is_equippable(no_tool)</title>
<ellipse fill="none" stroke="black" cx="1438.83" cy="-18" rx="178.97" ry="18"/>
<text text-anchor="middle" x="1438.83" y="-14.3" font-family="Times,serif" font-size="14.00">precondition: is_equippable(no_tool)</text>
</g>
<!-- sequence: load_tool(left_hand, no_tool)&#45;&gt;precondition: is_equippable(no_tool) -->
<g id="edge12" class="edge">
<title>sequence: load_tool(left_hand, no_tool)&#45;&gt;precondition: is_equippable(no_tool)</title>
<path fill="none" stroke="black" d="M1713.15,-73.55C1657.76,-62.54 1583.25,-47.72 1525.86,-36.31"/>
<polygon fill="black" stroke="black" points="1526.2,-32.81 1515.71,-34.29 1524.84,-39.67 1526.2,-32.81"/>
</g>
<!-- precondition: is_free(left_hand) -->
<g id="node19" class="node">
<title>precondition: is_free(left_hand)</title>
<ellipse fill="none" stroke="black" cx="1790.83" cy="-18" rx="155.17" ry="18"/>
<text text-anchor="middle" x="1790.83" y="-14.3" font-family="Times,serif" font-size="14.00">precondition: is_free(left_hand)</text>
</g>
<!-- sequence: load_tool(left_hand, no_tool)&#45;&gt;precondition: is_free(left_hand) -->
<g id="edge13" class="edge">
<title>sequence: load_tool(left_hand, no_tool)&#45;&gt;precondition: is_free(left_hand)</title>
<path fill="none" stroke="black" d="M1790.83,-71.7C1790.83,-63.98 1790.83,-54.71 1790.83,-46.11"/>
<polygon fill="black" stroke="black" points="1794.33,-46.1 1790.83,-36.1 1787.33,-46.1 1794.33,-46.1"/>
</g>
<!-- action: load_tool(left_hand, no_tool) -->
<g id="node20" class="node">
<title>action: load_tool(left_hand, no_tool)</title>
<ellipse fill="none" stroke="black" cx="2138.83" cy="-18" rx="174.67" ry="18"/>
<text text-anchor="middle" x="2138.83" y="-14.3" font-family="Times,serif" font-size="14.00">action: load_tool(left_hand, no_tool)</text>
</g>
<!-- sequence: load_tool(left_hand, no_tool)&#45;&gt;action: load_tool(left_hand, no_tool) -->
<g id="edge14" class="edge">
<title>sequence: load_tool(left_hand, no_tool)&#45;&gt;action: load_tool(left_hand, no_tool)</title>
<path fill="none" stroke="black" d="M1868.07,-73.46C1922.85,-62.45 1996.39,-47.65 2053.01,-36.26"/>
<polygon fill="black" stroke="black" points="2053.9,-39.65 2063.02,-34.25 2052.52,-32.79 2053.9,-39.65"/>
</g>
<!-- target: hold(no_tool, shaft3) -->
<g id="node22" class="node">
<title>target: hold(no_tool, shaft3)</title>
<ellipse fill="none" stroke="black" cx="2171.83" cy="-90" rx="140.28" ry="18"/>
<text text-anchor="middle" x="2171.83" y="-86.3" font-family="Times,serif" font-size="14.00">target: hold(no_tool, shaft3)</text>
</g>
<!-- selector: pick_up(left_hand, no_tool, shaft3)&#45;&gt;target: hold(no_tool, shaft3) -->
<g id="edge16" class="edge">
<title>selector: pick_up(left_hand, no_tool, shaft3)&#45;&gt;target: hold(no_tool, shaft3)</title>
<path fill="none" stroke="black" d="M2171.83,-143.7C2171.83,-135.98 2171.83,-126.71 2171.83,-118.11"/>
<polygon fill="black" stroke="black" points="2175.33,-118.1 2171.83,-108.1 2168.33,-118.1 2175.33,-118.1"/>
</g>
<!-- sequence: pick_up(left_hand, no_tool, shaft3) -->
<g id="node23" class="node">
<title>sequence: pick_up(left_hand, no_tool, shaft3)</title>
<ellipse fill="none" stroke="black" cx="2686.83" cy="-90" rx="219.06" ry="18"/>
<text text-anchor="middle" x="2686.83" y="-86.3" font-family="Times,serif" font-size="14.00">sequence: pick_up(left_hand, no_tool, shaft3)</text>
</g>
<!-- selector: pick_up(left_hand, no_tool, shaft3)&#45;&gt;sequence: pick_up(left_hand, no_tool, shaft3) -->
<g id="edge17" class="edge">
<title>selector: pick_up(left_hand, no_tool, shaft3)&#45;&gt;sequence: pick_up(left_hand, no_tool, shaft3)</title>
<path fill="none" stroke="black" d="M2279.17,-146.41C2363.76,-134.91 2481.57,-118.9 2568.81,-107.04"/>
<polygon fill="black" stroke="black" points="2569.32,-110.51 2578.75,-105.69 2568.37,-103.57 2569.32,-110.51"/>
</g>
<!-- precondition: is_free(no_tool) -->
<g id="node24" class="node">
<title>precondition: is_free(no_tool)</title>
<ellipse fill="none" stroke="black" cx="2476.83" cy="-18" rx="145.67" ry="18"/>
<text text-anchor="middle" x="2476.83" y="-14.3" font-family="Times,serif" font-size="14.00">precondition: is_free(no_tool)</text>
</g>
<!-- sequence: pick_up(left_hand, no_tool, shaft3)&#45;&gt;precondition: is_free(no_tool) -->
<g id="edge18" class="edge">
<title>sequence: pick_up(left_hand, no_tool, shaft3)&#45;&gt;precondition: is_free(no_tool)</title>
<path fill="none" stroke="black" d="M2637.07,-72.41C2606.4,-62.19 2566.95,-49.04 2534.86,-38.34"/>
<polygon fill="black" stroke="black" points="2535.75,-34.95 2525.16,-35.11 2533.54,-41.59 2535.75,-34.95"/>
</g>
<!-- precondition: hold(left_hand, no_tool) -->
<g id="node25" class="node">
<title>precondition: hold(left_hand, no_tool)</title>
<ellipse fill="none" stroke="black" cx="2824.83" cy="-18" rx="183.87" ry="18"/>
<text text-anchor="middle" x="2824.83" y="-14.3" font-family="Times,serif" font-size="14.00">precondition: hold(left_hand, no_tool)</text>
</g>
<!-- sequence: pick_up(left_hand, no_tool, shaft3)&#45;&gt;precondition: hold(left_hand, no_tool) -->
<g id="edge19" class="edge">
<title>sequence: pick_up(left_hand, no_tool, shaft3)&#45;&gt;precondition: hold(left_hand, no_tool)</title>
<path fill="none" stroke="black" d="M2720.24,-72.05C2739.06,-62.51 2762.73,-50.5 2782.8,-40.32"/>
<polygon fill="black" stroke="black" points="2784.4,-43.43 2791.74,-35.79 2781.23,-37.19 2784.4,-43.43"/>
</g>
<!-- action: pick_up(left_hand, no_tool, shaft3) -->
<g id="node26" class="node">
<title>action: pick_up(left_hand, no_tool, shaft3)</title>
<ellipse fill="none" stroke="black" cx="3230.83" cy="-18" rx="204.16" ry="18"/>
<text text-anchor="middle" x="3230.83" y="-14.3" font-family="Times,serif" font-size="14.00">action: pick_up(left_hand, no_tool, shaft3)</text>
</g>
<!-- sequence: pick_up(left_hand, no_tool, shaft3)&#45;&gt;action: pick_up(left_hand, no_tool, shaft3) -->
<g id="edge20" class="edge">
<title>sequence: pick_up(left_hand, no_tool, shaft3)&#45;&gt;action: pick_up(left_hand, no_tool, shaft3)</title>
<path fill="none" stroke="black" d="M2799.22,-74.54C2890.03,-62.85 3017.56,-46.44 3110.44,-34.49"/>
<polygon fill="black" stroke="black" points="3110.98,-37.95 3120.45,-33.2 3110.09,-31.01 3110.98,-37.95"/>
</g>
</g>
</svg>
