<?xml version="1.0" encoding="UTF-8" standalone="no"?>
<!DOCTYPE svg PUBLIC "-//W3C//DTD SVG 1.1//EN"
 "http://www.w3.org/Graphics/SVG/1.1/DTD/svg11.dtd">
<!-- Generated by graphviz version 2.43.0 (0)
 -->
<!-- Title: pastafarianism Pages: 1 -->
<svg width="2004pt" height="188pt"
 viewBox="0.00 0.00 2004.40 188.00" xmlns="http://www.w3.org/2000/svg" xmlns:xlink="http://www.w3.org/1999/xlink">
<g id="graph0" class="graph" transform="scale(1 1) rotate(0) translate(4 184)">
<title>pastafarianism</title>
<polygon fill="white" stroke="transparent" points="-4,4 -4,-184 2000.4,-184 2000.4,4 -4,4"/>
<!-- selector -->
<g id="node1" class="node">
<title>selector</title>
<polygon fill="cyan" stroke="black" points="339.93,-154.54 339.93,-169.46 240.38,-180 99.58,-180 0.02,-169.46 0.02,-154.54 99.58,-144 240.38,-144 339.93,-154.54"/>
<text text-anchor="middle" x="169.98" y="-159.8" font-family="Times,serif" font-size="9.00">selector: insert(left_hand, parallel_box1, gear2, shaft2)</text>
</g>
<!-- target -->
<g id="node2" class="node">
<title>target</title>
<ellipse fill="gray" stroke="black" cx="463.98" cy="-162" rx="106.47" ry="18"/>
<text text-anchor="middle" x="463.98" y="-159.8" font-family="Times,serif" font-size="9.00">target: is_inserted_to(gear2, shaft2)</text>
</g>
<!-- selector: insert(left_hand, parallel_box1, gear2, shaft2) -->
<g id="node3" class="node">
<title>selector: insert(left_hand, parallel_box1, gear2, shaft2)</title>
<ellipse fill="none" stroke="black" cx="854.98" cy="-162" rx="266.45" ry="18"/>
<text text-anchor="middle" x="854.98" y="-158.3" font-family="Times,serif" font-size="14.00">selector: insert(left_hand, parallel_box1, gear2, shaft2)</text>
</g>
<!-- target: is_inserted_to(gear2, shaft2) -->
<g id="node4" class="node">
<title>target: is_inserted_to(gear2, shaft2)</title>
<ellipse fill="none" stroke="black" cx="620.98" cy="-90" rx="178.97" ry="18"/>
<text text-anchor="middle" x="620.98" y="-86.3" font-family="Times,serif" font-size="14.00">target: is_inserted_to(gear2, shaft2)</text>
</g>
<!-- selector: insert(left_hand, parallel_box1, gear2, shaft2)&#45;&gt;target: is_inserted_to(gear2, shaft2) -->
<g id="edge1" class="edge">
<title>selector: insert(left_hand, parallel_box1, gear2, shaft2)&#45;&gt;target: is_inserted_to(gear2, shaft2)</title>
<path fill="none" stroke="black" d="M799.23,-144.32C764.88,-134.05 720.72,-120.84 684.94,-110.14"/>
<polygon fill="black" stroke="black" points="685.68,-106.7 675.09,-107.19 683.67,-113.41 685.68,-106.7"/>
</g>
<!-- sequence: insert(left_hand, parallel_box1, gear2, shaft2) -->
<g id="node6" class="node">
<title>sequence: insert(left_hand, parallel_box1, gear2, shaft2)</title>
<ellipse fill="none" stroke="black" cx="1089.98" cy="-90" rx="272.15" ry="18"/>
<text text-anchor="middle" x="1089.98" y="-86.3" font-family="Times,serif" font-size="14.00">sequence: insert(left_hand, parallel_box1, gear2, shaft2)</text>
</g>
<!-- selector: insert(left_hand, parallel_box1, gear2, shaft2)&#45;&gt;sequence: insert(left_hand, parallel_box1, gear2, shaft2) -->
<g id="edge2" class="edge">
<title>selector: insert(left_hand, parallel_box1, gear2, shaft2)&#45;&gt;sequence: insert(left_hand, parallel_box1, gear2, shaft2)</title>
<path fill="none" stroke="black" d="M910.97,-144.32C944.97,-134.19 988.54,-121.22 1024.18,-110.6"/>
<polygon fill="black" stroke="black" points="1025.43,-113.88 1034.01,-107.67 1023.43,-107.17 1025.43,-113.88"/>
</g>
<!-- sequence -->
<g id="node5" class="node">
<title>sequence</title>
<polygon fill="orange" stroke="black" points="1418.48,-180 1139.48,-180 1139.48,-144 1418.48,-144 1418.48,-180"/>
<text text-anchor="middle" x="1278.98" y="-159.8" font-family="Times,serif" font-size="9.00">sequence: insert(left_hand, parallel_box1, gear2, shaft2)</text>
</g>
<!-- precondition: hold(left_hand, parallel_box1) -->
<g id="node8" class="node">
<title>precondition: hold(left_hand, parallel_box1)</title>
<ellipse fill="none" stroke="black" cx="662.98" cy="-18" rx="212.56" ry="18"/>
<text text-anchor="middle" x="662.98" y="-14.3" font-family="Times,serif" font-size="14.00">precondition: hold(left_hand, parallel_box1)</text>
</g>
<!-- sequence: insert(left_hand, parallel_box1, gear2, shaft2)&#45;&gt;precondition: hold(left_hand, parallel_box1) -->
<g id="edge3" class="edge">
<title>sequence: insert(left_hand, parallel_box1, gear2, shaft2)&#45;&gt;precondition: hold(left_hand, parallel_box1)</title>
<path fill="none" stroke="black" d="M993.35,-73.16C925.59,-62.05 835.11,-47.22 765.98,-35.89"/>
<polygon fill="black" stroke="black" points="766.37,-32.4 755.94,-34.24 765.24,-39.31 766.37,-32.4"/>
</g>
<!-- precondition: hold(parallel_box1, gear2) -->
<g id="node9" class="node">
<title>precondition: hold(parallel_box1, gear2)</title>
<ellipse fill="none" stroke="black" cx="1089.98" cy="-18" rx="196.07" ry="18"/>
<text text-anchor="middle" x="1089.98" y="-14.3" font-family="Times,serif" font-size="14.00">precondition: hold(parallel_box1, gear2)</text>
</g>
<!-- sequence: insert(left_hand, parallel_box1, gear2, shaft2)&#45;&gt;precondition: hold(parallel_box1, gear2) -->
<g id="edge4" class="edge">
<title>sequence: insert(left_hand, parallel_box1, gear2, shaft2)&#45;&gt;precondition: hold(parallel_box1, gear2)</title>
<path fill="none" stroke="black" d="M1089.98,-71.7C1089.98,-63.98 1089.98,-54.71 1089.98,-46.11"/>
<polygon fill="black" stroke="black" points="1093.48,-46.1 1089.98,-36.1 1086.48,-46.1 1093.48,-46.1"/>
</g>
<!-- action: insert(left_hand, parallel_box1, gear2, shaft2) -->
<g id="node11" class="node">
<title>action: insert(left_hand, parallel_box1, gear2, shaft2)</title>
<ellipse fill="none" stroke="black" cx="1561.98" cy="-18" rx="257.25" ry="18"/>
<text text-anchor="middle" x="1561.98" y="-14.3" font-family="Times,serif" font-size="14.00">action: insert(left_hand, parallel_box1, gear2, shaft2)</text>
</g>
<!-- sequence: insert(left_hand, parallel_box1, gear2, shaft2)&#45;&gt;action: insert(left_hand, parallel_box1, gear2, shaft2) -->
<g id="edge5" class="edge">
<title>sequence: insert(left_hand, parallel_box1, gear2, shaft2)&#45;&gt;action: insert(left_hand, parallel_box1, gear2, shaft2)</title>
<path fill="none" stroke="black" d="M1195.32,-73.38C1270.07,-62.29 1370.37,-47.42 1447.17,-36.03"/>
<polygon fill="black" stroke="black" points="1447.99,-39.44 1457.37,-34.51 1446.96,-32.52 1447.99,-39.44"/>
</g>
<!-- precondition -->
<g id="node7" class="node">
<title>precondition</title>
<ellipse fill="gray" stroke="black" cx="1554.98" cy="-162" rx="118.21" ry="18"/>
<text text-anchor="middle" x="1554.98" y="-159.8" font-family="Times,serif" font-size="9.00">precondition: hold(parallel_box1, gear2)</text>
</g>
<!-- action -->
<g id="node10" class="node">
<title>action</title>
<ellipse fill="gray" stroke="black" cx="1843.98" cy="-162" rx="152.34" ry="18"/>
<text text-anchor="middle" x="1843.98" y="-159.8" font-family="Times,serif" font-size="9.00">action: insert(left_hand, parallel_box1, gear2, shaft2)</text>
</g>
</g>
</svg>
