<?xml version="1.0" encoding="UTF-8" standalone="no"?>
<!DOCTYPE svg PUBLIC "-//W3C//DTD SVG 1.1//EN"
 "http://www.w3.org/Graphics/SVG/1.1/DTD/svg11.dtd">
<!-- Generated by graphviz version 2.43.0 (0)
 -->
<!-- Title: pastafarianism Pages: 1 -->
<svg width="501pt" height="483pt"
 viewBox="0.00 0.00 500.88 482.86" xmlns="http://www.w3.org/2000/svg" xmlns:xlink="http://www.w3.org/1999/xlink">
<g id="graph0" class="graph" transform="scale(1 1) rotate(0) translate(4 478.86)">
<title>pastafarianism</title>
<polygon fill="white" stroke="transparent" points="-4,4 -4,-478.86 496.88,-478.86 496.88,4 -4,4"/>
<!-- Selector1 -->
<g id="node1" class="node">
<title>Selector1</title>
<polygon fill="#8deeee" stroke="black" points="268.61,-444.58 268.61,-462.28 222.53,-474.79 157.36,-474.79 111.28,-462.28 111.28,-444.58 157.36,-432.07 222.53,-432.07 268.61,-444.58"/>
<text text-anchor="middle" x="189.95" y="-449.03" font-family="Times,serif" font-size="18.00">Selector1</text>
</g>
<!-- Target Condition 1 -->
<g id="node2" class="node">
<title>Target Condition 1</title>
<ellipse fill="#ffec8b" stroke="black" cx="100.95" cy="-360" rx="100.89" ry="36"/>
<text text-anchor="middle" x="100.95" y="-355.6" font-family="Times,serif" font-size="18.00">Target Condition 1</text>
</g>
<!-- Selector1&#45;&gt;Target Condition 1 -->
<g id="edge1" class="edge">
<title>Selector1&#45;&gt;Target Condition 1</title>
<path fill="none" stroke="black" d="M169.75,-431.68C161.08,-422.78 150.64,-412.05 140.54,-401.68"/>
<polygon fill="black" stroke="black" points="142.76,-398.94 133.28,-394.22 137.75,-403.82 142.76,-398.94"/>
</g>
<!-- Sequence 1 -->
<g id="node3" class="node">
<title>Sequence 1</title>
<polygon fill="#ff7f24" stroke="black" points="340.45,-396 219.45,-396 219.45,-324 340.45,-324 340.45,-396"/>
<text text-anchor="middle" x="279.95" y="-355.6" font-family="Times,serif" font-size="18.00">Sequence 1</text>
</g>
<!-- Selector1&#45;&gt;Sequence 1 -->
<g id="edge2" class="edge">
<title>Selector1&#45;&gt;Sequence 1</title>
<path fill="none" stroke="black" d="M210.37,-431.68C218.72,-423.2 228.69,-413.07 238.44,-403.16"/>
<polygon fill="black" stroke="black" points="240.96,-405.6 245.48,-396.01 235.97,-400.69 240.96,-405.6"/>
</g>
<!-- Precondition 1 -->
<g id="node4" class="node">
<title>Precondition 1</title>
<ellipse fill="#ffec8b" stroke="black" cx="120.95" cy="-252" rx="80.73" ry="36"/>
<text text-anchor="middle" x="120.95" y="-247.6" font-family="Times,serif" font-size="18.00">Precondition 1</text>
</g>
<!-- Sequence 1&#45;&gt;Precondition 1 -->
<g id="edge3" class="edge">
<title>Sequence 1&#45;&gt;Precondition 1</title>
<path fill="none" stroke="black" d="M227.44,-324C210.03,-312.39 190.66,-299.47 173.26,-287.87"/>
<polygon fill="black" stroke="black" points="175.16,-284.93 164.89,-282.3 171.27,-290.76 175.16,-284.93"/>
</g>
<!-- Selector2 -->
<g id="node5" class="node">
<title>Selector2</title>
<polygon fill="#8deeee" stroke="black" points="340.46,-237.09 340.46,-266.91 305.01,-288 254.88,-288 219.43,-266.91 219.43,-237.09 254.88,-216 305.01,-216 340.46,-237.09"/>
<text text-anchor="middle" x="279.95" y="-247.6" font-family="Times,serif" font-size="18.00">Selector2</text>
</g>
<!-- Sequence 1&#45;&gt;Selector2 -->
<g id="edge4" class="edge">
<title>Sequence 1&#45;&gt;Selector2</title>
<path fill="none" stroke="black" d="M279.95,-324C279.95,-315.85 279.95,-307.06 279.95,-298.54"/>
<polygon fill="black" stroke="black" points="283.45,-298.33 279.95,-288.33 276.45,-298.33 283.45,-298.33"/>
</g>
<!-- Action 1 -->
<g id="node10" class="node">
<title>Action 1</title>
<ellipse fill="lightgreen" stroke="black" cx="407.95" cy="-252" rx="49.86" ry="36"/>
<text text-anchor="middle" x="407.95" y="-247.6" font-family="Times,serif" font-size="18.00">Action 1</text>
</g>
<!-- Sequence 1&#45;&gt;Action 1 -->
<g id="edge9" class="edge">
<title>Sequence 1&#45;&gt;Action 1</title>
<path fill="none" stroke="black" d="M322.21,-324C336.84,-311.89 353.18,-298.36 367.64,-286.38"/>
<polygon fill="black" stroke="black" points="369.99,-288.98 375.46,-279.91 365.52,-283.59 369.99,-288.98"/>
</g>
<!-- Target Condition 2 -->
<g id="node6" class="node">
<title>Target Condition 2</title>
<ellipse fill="#ffec8b" stroke="black" cx="189.95" cy="-144" rx="100.89" ry="36"/>
<text text-anchor="middle" x="189.95" y="-139.6" font-family="Times,serif" font-size="18.00">Target Condition 2</text>
</g>
<!-- Selector2&#45;&gt;Target Condition 2 -->
<g id="edge5" class="edge">
<title>Selector2&#45;&gt;Target Condition 2</title>
<path fill="none" stroke="black" d="M251.72,-217.75C243.34,-207.88 234.05,-196.95 225.28,-186.61"/>
<polygon fill="black" stroke="black" points="227.84,-184.22 218.7,-178.86 222.5,-188.75 227.84,-184.22"/>
</g>
<!-- Sequence 2 -->
<g id="node7" class="node">
<title>Sequence 2</title>
<polygon fill="#ff7f24" stroke="black" points="429.45,-180 308.45,-180 308.45,-108 429.45,-108 429.45,-180"/>
<text text-anchor="middle" x="368.95" y="-139.6" font-family="Times,serif" font-size="18.00">Sequence 2</text>
</g>
<!-- Selector2&#45;&gt;Sequence 2 -->
<g id="edge6" class="edge">
<title>Selector2&#45;&gt;Sequence 2</title>
<path fill="none" stroke="black" d="M308.11,-217.46C315.98,-208.08 324.65,-197.76 332.92,-187.91"/>
<polygon fill="black" stroke="black" points="335.68,-190.06 339.43,-180.15 330.32,-185.56 335.68,-190.06"/>
</g>
<!-- Precondition 2 -->
<g id="node8" class="node">
<title>Precondition 2</title>
<ellipse fill="#ffec8b" stroke="black" cx="293.95" cy="-36" rx="80.73" ry="36"/>
<text text-anchor="middle" x="293.95" y="-31.6" font-family="Times,serif" font-size="18.00">Precondition 2</text>
</g>
<!-- Sequence 2&#45;&gt;Precondition 2 -->
<g id="edge7" class="edge">
<title>Sequence 2&#45;&gt;Precondition 2</title>
<path fill="none" stroke="black" d="M344.18,-108C337.58,-98.67 330.38,-88.5 323.55,-78.84"/>
<polygon fill="black" stroke="black" points="326.3,-76.67 317.67,-70.53 320.59,-80.71 326.3,-76.67"/>
</g>
<!-- Action 2 -->
<g id="node9" class="node">
<title>Action 2</title>
<ellipse fill="lightgreen" stroke="black" cx="442.95" cy="-36" rx="49.86" ry="36"/>
<text text-anchor="middle" x="442.95" y="-31.6" font-family="Times,serif" font-size="18.00">Action 2</text>
</g>
<!-- Sequence 2&#45;&gt;Action 2 -->
<g id="edge8" class="edge">
<title>Sequence 2&#45;&gt;Action 2</title>
<path fill="none" stroke="black" d="M393.38,-108C400.35,-98.01 408,-87.05 415.16,-76.8"/>
<polygon fill="black" stroke="black" points="418.18,-78.6 421.03,-68.39 412.44,-74.59 418.18,-78.6"/>
</g>
</g>
</svg>
