<?xml version="1.0" encoding="UTF-8" standalone="no"?>
<!DOCTYPE svg PUBLIC "-//W3C//DTD SVG 1.1//EN"
 "http://www.w3.org/Graphics/SVG/1.1/DTD/svg11.dtd">
<!-- Generated by graphviz version 2.43.0 (0)
 -->
<!-- Title: pastafarianism Pages: 1 -->
<svg width="2791pt" height="332pt"
 viewBox="0.00 0.00 2790.96 332.00" xmlns="http://www.w3.org/2000/svg" xmlns:xlink="http://www.w3.org/1999/xlink">
<g id="graph0" class="graph" transform="scale(1 1) rotate(0) translate(4 328)">
<title>pastafarianism</title>
<polygon fill="white" stroke="transparent" points="-4,4 -4,-328 2786.96,-328 2786.96,4 -4,4"/>
<!-- selector -->
<g id="node1" class="node">
<title>selector</title>
<polygon fill="cyan" stroke="black" points="515.54,-298.54 515.54,-313.46 424.77,-324 296.4,-324 205.62,-313.46 205.62,-298.54 296.4,-288 424.77,-288 515.54,-298.54"/>
<text text-anchor="middle" x="360.58" y="-303.8" font-family="Times,serif" font-size="9.00">selector: pick_up(left_hand, outward_claw, gear2)</text>
</g>
<!-- target -->
<g id="node2" class="node">
<title>target</title>
<ellipse fill="gray" stroke="black" cx="634.58" cy="-306" rx="101.07" ry="18"/>
<text text-anchor="middle" x="634.58" y="-303.8" font-family="Times,serif" font-size="9.00">target: hold(outward_claw, gear2)</text>
</g>
<!-- selector: insert(left_hand, outward_claw, gear2, shaft2) -->
<g id="node3" class="node">
<title>selector: insert(left_hand, outward_claw, gear2, shaft2)</title>
<ellipse fill="none" stroke="black" cx="1020.58" cy="-306" rx="267.25" ry="18"/>
<text text-anchor="middle" x="1020.58" y="-302.3" font-family="Times,serif" font-size="14.00">selector: insert(left_hand, outward_claw, gear2, shaft2)</text>
</g>
<!-- target: is_inserted_to(gear2, shaft2) -->
<g id="node4" class="node">
<title>target: is_inserted_to(gear2, shaft2)</title>
<ellipse fill="none" stroke="black" cx="785.58" cy="-234" rx="178.97" ry="18"/>
<text text-anchor="middle" x="785.58" y="-230.3" font-family="Times,serif" font-size="14.00">target: is_inserted_to(gear2, shaft2)</text>
</g>
<!-- selector: insert(left_hand, outward_claw, gear2, shaft2)&#45;&gt;target: is_inserted_to(gear2, shaft2) -->
<g id="edge1" class="edge">
<title>selector: insert(left_hand, outward_claw, gear2, shaft2)&#45;&gt;target: is_inserted_to(gear2, shaft2)</title>
<path fill="none" stroke="black" d="M964.59,-288.32C930.1,-278.05 885.75,-264.84 849.82,-254.14"/>
<polygon fill="black" stroke="black" points="850.51,-250.69 839.93,-251.19 848.51,-257.4 850.51,-250.69"/>
</g>
<!-- sequence: insert(left_hand, outward_claw, gear2, shaft2) -->
<g id="node6" class="node">
<title>sequence: insert(left_hand, outward_claw, gear2, shaft2)</title>
<ellipse fill="none" stroke="black" cx="1255.58" cy="-234" rx="273.75" ry="18"/>
<text text-anchor="middle" x="1255.58" y="-230.3" font-family="Times,serif" font-size="14.00">sequence: insert(left_hand, outward_claw, gear2, shaft2)</text>
</g>
<!-- selector: insert(left_hand, outward_claw, gear2, shaft2)&#45;&gt;sequence: insert(left_hand, outward_claw, gear2, shaft2) -->
<g id="edge2" class="edge">
<title>selector: insert(left_hand, outward_claw, gear2, shaft2)&#45;&gt;sequence: insert(left_hand, outward_claw, gear2, shaft2)</title>
<path fill="none" stroke="black" d="M1076.57,-288.32C1110.57,-278.19 1154.15,-265.22 1189.79,-254.6"/>
<polygon fill="black" stroke="black" points="1191.03,-257.88 1199.62,-251.67 1189.03,-251.17 1191.03,-257.88"/>
</g>
<!-- sequence -->
<g id="node5" class="node">
<title>sequence</title>
<polygon fill="orange" stroke="black" points="1559.58,-324 1305.58,-324 1305.58,-288 1559.58,-288 1559.58,-324"/>
<text text-anchor="middle" x="1432.58" y="-303.8" font-family="Times,serif" font-size="9.00">sequence: pick_up(left_hand, outward_claw, gear2)</text>
</g>
<!-- selector: change_tool(left_hand, parallel_box1, outward_claw) -->
<g id="node7" class="node">
<title>selector: change_tool(left_hand, parallel_box1, outward_claw)</title>
<ellipse fill="none" stroke="black" cx="689.58" cy="-162" rx="295.95" ry="18"/>
<text text-anchor="middle" x="689.58" y="-158.3" font-family="Times,serif" font-size="14.00">selector: change_tool(left_hand, parallel_box1, outward_claw)</text>
</g>
<!-- sequence: insert(left_hand, outward_claw, gear2, shaft2)&#45;&gt;selector: change_tool(left_hand, parallel_box1, outward_claw) -->
<g id="edge3" class="edge">
<title>sequence: insert(left_hand, outward_claw, gear2, shaft2)&#45;&gt;selector: change_tool(left_hand, parallel_box1, outward_claw)</title>
<path fill="none" stroke="black" d="M1133.12,-217.85C1042.01,-206.59 917.73,-191.22 823.91,-179.61"/>
<polygon fill="black" stroke="black" points="824.13,-176.11 813.77,-178.36 823.27,-183.06 824.13,-176.11"/>
</g>
<!-- selector: pick_up(left_hand, outward_claw, gear2) -->
<g id="node15" class="node">
<title>selector: pick_up(left_hand, outward_claw, gear2)</title>
<ellipse fill="none" stroke="black" cx="1255.58" cy="-162" rx="239.66" ry="18"/>
<text text-anchor="middle" x="1255.58" y="-158.3" font-family="Times,serif" font-size="14.00">selector: pick_up(left_hand, outward_claw, gear2)</text>
</g>
<!-- sequence: insert(left_hand, outward_claw, gear2, shaft2)&#45;&gt;selector: pick_up(left_hand, outward_claw, gear2) -->
<g id="edge9" class="edge">
<title>sequence: insert(left_hand, outward_claw, gear2, shaft2)&#45;&gt;selector: pick_up(left_hand, outward_claw, gear2)</title>
<path fill="none" stroke="black" d="M1255.58,-215.7C1255.58,-207.98 1255.58,-198.71 1255.58,-190.11"/>
<polygon fill="black" stroke="black" points="1259.08,-190.1 1255.58,-180.1 1252.08,-190.1 1259.08,-190.1"/>
</g>
<!-- action: insert(left_hand, outward_claw, gear2, shaft2) -->
<g id="node21" class="node">
<title>action: insert(left_hand, outward_claw, gear2, shaft2)</title>
<ellipse fill="none" stroke="black" cx="1772.58" cy="-162" rx="258.85" ry="18"/>
<text text-anchor="middle" x="1772.58" y="-158.3" font-family="Times,serif" font-size="14.00">action: insert(left_hand, outward_claw, gear2, shaft2)</text>
</g>
<!-- sequence: insert(left_hand, outward_claw, gear2, shaft2)&#45;&gt;action: insert(left_hand, outward_claw, gear2, shaft2) -->
<g id="edge15" class="edge">
<title>sequence: insert(left_hand, outward_claw, gear2, shaft2)&#45;&gt;action: insert(left_hand, outward_claw, gear2, shaft2)</title>
<path fill="none" stroke="black" d="M1369.36,-217.59C1452.44,-206.35 1564.94,-191.11 1650,-179.6"/>
<polygon fill="black" stroke="black" points="1650.53,-183.06 1659.97,-178.25 1649.59,-176.12 1650.53,-183.06"/>
</g>
<!-- target: hold(left_hand, outward_claw) -->
<g id="node8" class="node">
<title>target: hold(left_hand, outward_claw)</title>
<ellipse fill="none" stroke="black" cx="184.58" cy="-90" rx="184.67" ry="18"/>
<text text-anchor="middle" x="184.58" y="-86.3" font-family="Times,serif" font-size="14.00">target: hold(left_hand, outward_claw)</text>
</g>
<!-- selector: change_tool(left_hand, parallel_box1, outward_claw)&#45;&gt;target: hold(left_hand, outward_claw) -->
<g id="edge4" class="edge">
<title>selector: change_tool(left_hand, parallel_box1, outward_claw)&#45;&gt;target: hold(left_hand, outward_claw)</title>
<path fill="none" stroke="black" d="M576.57,-145.33C492.89,-133.74 379.43,-118.01 296.11,-106.46"/>
<polygon fill="black" stroke="black" points="296.49,-102.98 286.1,-105.07 295.53,-109.91 296.49,-102.98"/>
</g>
<!-- sequence: change_tool(left_hand, parallel_box1, outward_claw) -->
<g id="node9" class="node">
<title>sequence: change_tool(left_hand, parallel_box1, outward_claw)</title>
<ellipse fill="none" stroke="black" cx="689.58" cy="-90" rx="302.45" ry="18"/>
<text text-anchor="middle" x="689.58" y="-86.3" font-family="Times,serif" font-size="14.00">sequence: change_tool(left_hand, parallel_box1, outward_claw)</text>
</g>
<!-- selector: change_tool(left_hand, parallel_box1, outward_claw)&#45;&gt;sequence: change_tool(left_hand, parallel_box1, outward_claw) -->
<g id="edge5" class="edge">
<title>selector: change_tool(left_hand, parallel_box1, outward_claw)&#45;&gt;sequence: change_tool(left_hand, parallel_box1, outward_claw)</title>
<path fill="none" stroke="black" d="M689.58,-143.7C689.58,-135.98 689.58,-126.71 689.58,-118.11"/>
<polygon fill="black" stroke="black" points="693.08,-118.1 689.58,-108.1 686.08,-118.1 693.08,-118.1"/>
</g>
<!-- precondition: hold(left_hand, parallel_box1) -->
<g id="node11" class="node">
<title>precondition: hold(left_hand, parallel_box1)</title>
<ellipse fill="none" stroke="black" cx="267.58" cy="-18" rx="212.56" ry="18"/>
<text text-anchor="middle" x="267.58" y="-14.3" font-family="Times,serif" font-size="14.00">precondition: hold(left_hand, parallel_box1)</text>
</g>
<!-- sequence: change_tool(left_hand, parallel_box1, outward_claw)&#45;&gt;precondition: hold(left_hand, parallel_box1) -->
<g id="edge6" class="edge">
<title>sequence: change_tool(left_hand, parallel_box1, outward_claw)&#45;&gt;precondition: hold(left_hand, parallel_box1)</title>
<path fill="none" stroke="black" d="M592.77,-72.94C526.11,-61.88 437.69,-47.22 369.88,-35.97"/>
<polygon fill="black" stroke="black" points="370.04,-32.45 359.61,-34.26 368.9,-39.35 370.04,-32.45"/>
</g>
<!-- precondition: is_empty(parallel_box1) -->
<g id="node12" class="node">
<title>precondition: is_empty(parallel_box1)</title>
<ellipse fill="none" stroke="black" cx="683.58" cy="-18" rx="185.47" ry="18"/>
<text text-anchor="middle" x="683.58" y="-14.3" font-family="Times,serif" font-size="14.00">precondition: is_empty(parallel_box1)</text>
</g>
<!-- sequence: change_tool(left_hand, parallel_box1, outward_claw)&#45;&gt;precondition: is_empty(parallel_box1) -->
<g id="edge7" class="edge">
<title>sequence: change_tool(left_hand, parallel_box1, outward_claw)&#45;&gt;precondition: is_empty(parallel_box1)</title>
<path fill="none" stroke="black" d="M688.1,-71.7C687.44,-63.98 686.64,-54.71 685.91,-46.11"/>
<polygon fill="black" stroke="black" points="689.39,-45.77 685.05,-36.1 682.42,-46.37 689.39,-45.77"/>
</g>
<!-- action: change_tool(left_hand, parallel_box1, outward_claw) -->
<g id="node14" class="node">
<title>action: change_tool(left_hand, parallel_box1, outward_claw)</title>
<ellipse fill="none" stroke="black" cx="1174.58" cy="-18" rx="287.05" ry="18"/>
<text text-anchor="middle" x="1174.58" y="-14.3" font-family="Times,serif" font-size="14.00">action: change_tool(left_hand, parallel_box1, outward_claw)</text>
</g>
<!-- sequence: change_tool(left_hand, parallel_box1, outward_claw)&#45;&gt;action: change_tool(left_hand, parallel_box1, outward_claw) -->
<g id="edge8" class="edge">
<title>sequence: change_tool(left_hand, parallel_box1, outward_claw)&#45;&gt;action: change_tool(left_hand, parallel_box1, outward_claw)</title>
<path fill="none" stroke="black" d="M799.03,-73.2C875.52,-62.16 977.6,-47.43 1056.02,-36.11"/>
<polygon fill="black" stroke="black" points="1056.55,-39.57 1065.95,-34.68 1055.55,-32.64 1056.55,-39.57"/>
</g>
<!-- precondition -->
<g id="node10" class="node">
<title>precondition</title>
<ellipse fill="gray" stroke="black" cx="1689.58" cy="-306" rx="112.01" ry="18"/>
<text text-anchor="middle" x="1689.58" y="-303.8" font-family="Times,serif" font-size="9.00">precondition: is_empty(outward_claw)</text>
</g>
<!-- action -->
<g id="node13" class="node">
<title>action</title>
<ellipse fill="gray" stroke="black" cx="1972.58" cy="-306" rx="153" ry="18"/>
<text text-anchor="middle" x="1972.58" y="-303.8" font-family="Times,serif" font-size="9.00">action: insert(left_hand, outward_claw, gear2, shaft2)</text>
</g>
<!-- target: hold(outward_claw, gear2) -->
<g id="node16" class="node">
<title>target: hold(outward_claw, gear2)</title>
<ellipse fill="none" stroke="black" cx="1255.58" cy="-90" rx="167.87" ry="18"/>
<text text-anchor="middle" x="1255.58" y="-86.3" font-family="Times,serif" font-size="14.00">target: hold(outward_claw, gear2)</text>
</g>
<!-- selector: pick_up(left_hand, outward_claw, gear2)&#45;&gt;target: hold(outward_claw, gear2) -->
<g id="edge10" class="edge">
<title>selector: pick_up(left_hand, outward_claw, gear2)&#45;&gt;target: hold(outward_claw, gear2)</title>
<path fill="none" stroke="black" d="M1255.58,-143.7C1255.58,-135.98 1255.58,-126.71 1255.58,-118.11"/>
<polygon fill="black" stroke="black" points="1259.08,-118.1 1255.58,-108.1 1252.08,-118.1 1259.08,-118.1"/>
</g>
<!-- sequence: pick_up(left_hand, outward_claw, gear2) -->
<g id="node17" class="node">
<title>sequence: pick_up(left_hand, outward_claw, gear2)</title>
<ellipse fill="none" stroke="black" cx="1904.58" cy="-90" rx="246.16" ry="18"/>
<text text-anchor="middle" x="1904.58" y="-86.3" font-family="Times,serif" font-size="14.00">sequence: pick_up(left_hand, outward_claw, gear2)</text>
</g>
<!-- selector: pick_up(left_hand, outward_claw, gear2)&#45;&gt;sequence: pick_up(left_hand, outward_claw, gear2) -->
<g id="edge11" class="edge">
<title>selector: pick_up(left_hand, outward_claw, gear2)&#45;&gt;sequence: pick_up(left_hand, outward_claw, gear2)</title>
<path fill="none" stroke="black" d="M1386.53,-146.88C1495.61,-135.11 1650.69,-118.38 1762.71,-106.3"/>
<polygon fill="black" stroke="black" points="1763.16,-109.77 1772.73,-105.22 1762.41,-102.81 1763.16,-109.77"/>
</g>
<!-- precondition: hold(left_hand, outward_claw) -->
<g id="node18" class="node">
<title>precondition: hold(left_hand, outward_claw)</title>
<ellipse fill="none" stroke="black" cx="1694.58" cy="-18" rx="214.46" ry="18"/>
<text text-anchor="middle" x="1694.58" y="-14.3" font-family="Times,serif" font-size="14.00">precondition: hold(left_hand, outward_claw)</text>
</g>
<!-- sequence: pick_up(left_hand, outward_claw, gear2)&#45;&gt;precondition: hold(left_hand, outward_claw) -->
<g id="edge12" class="edge">
<title>sequence: pick_up(left_hand, outward_claw, gear2)&#45;&gt;precondition: hold(left_hand, outward_claw)</title>
<path fill="none" stroke="black" d="M1854.55,-72.32C1824.32,-62.24 1785.61,-49.34 1753.85,-38.76"/>
<polygon fill="black" stroke="black" points="1754.83,-35.39 1744.23,-35.55 1752.61,-42.03 1754.83,-35.39"/>
</g>
<!-- precondition: is_empty(outward_claw) -->
<g id="node19" class="node">
<title>precondition: is_empty(outward_claw)</title>
<ellipse fill="none" stroke="black" cx="2114.58" cy="-18" rx="187.37" ry="18"/>
<text text-anchor="middle" x="2114.58" y="-14.3" font-family="Times,serif" font-size="14.00">precondition: is_empty(outward_claw)</text>
</g>
<!-- sequence: pick_up(left_hand, outward_claw, gear2)&#45;&gt;precondition: is_empty(outward_claw) -->
<g id="edge13" class="edge">
<title>sequence: pick_up(left_hand, outward_claw, gear2)&#45;&gt;precondition: is_empty(outward_claw)</title>
<path fill="none" stroke="black" d="M1954.62,-72.32C1984.96,-62.21 2023.83,-49.25 2055.66,-38.64"/>
<polygon fill="black" stroke="black" points="2056.92,-41.91 2065.3,-35.43 2054.7,-35.27 2056.92,-41.91"/>
</g>
<!-- action: pick_up(left_hand, outward_claw, gear2) -->
<g id="node20" class="node">
<title>action: pick_up(left_hand, outward_claw, gear2)</title>
<ellipse fill="none" stroke="black" cx="2551.58" cy="-18" rx="231.26" ry="18"/>
<text text-anchor="middle" x="2551.58" y="-14.3" font-family="Times,serif" font-size="14.00">action: pick_up(left_hand, outward_claw, gear2)</text>
</g>
<!-- sequence: pick_up(left_hand, outward_claw, gear2)&#45;&gt;action: pick_up(left_hand, outward_claw, gear2) -->
<g id="edge14" class="edge">
<title>sequence: pick_up(left_hand, outward_claw, gear2)&#45;&gt;action: pick_up(left_hand, outward_claw, gear2)</title>
<path fill="none" stroke="black" d="M2036.29,-74.75C2145.77,-62.91 2301.12,-46.1 2412.57,-34.04"/>
<polygon fill="black" stroke="black" points="2412.98,-37.52 2422.54,-32.96 2412.22,-30.56 2412.98,-37.52"/>
</g>
</g>
</svg>
