<?xml version="1.0" encoding="UTF-8" standalone="no"?>
<!DOCTYPE svg PUBLIC "-//W3C//DTD SVG 1.1//EN"
 "http://www.w3.org/Graphics/SVG/1.1/DTD/svg11.dtd">
<!-- Generated by graphviz version 2.43.0 (0)
 -->
<!-- Title: pastafarianism Pages: 1 -->
<svg width="2835pt" height="476pt"
 viewBox="0.00 0.00 2834.66 476.00" xmlns="http://www.w3.org/2000/svg" xmlns:xlink="http://www.w3.org/1999/xlink">
<g id="graph0" class="graph" transform="scale(1 1) rotate(0) translate(4 472)">
<title>pastafarianism</title>
<polygon fill="white" stroke="transparent" points="-4,4 -4,-472 2830.66,-472 2830.66,4 -4,4"/>
<!-- selector -->
<g id="node1" class="node">
<title>selector</title>
<polygon fill="cyan" stroke="black" points="865.74,-442.54 865.74,-457.46 774.97,-468 646.6,-468 555.82,-457.46 555.82,-442.54 646.6,-432 774.97,-432 865.74,-442.54"/>
<text text-anchor="middle" x="710.78" y="-447.8" font-family="Times,serif" font-size="9.00">selector: pick_up(left_hand, parallel_box1, shaft1)</text>
</g>
<!-- target -->
<g id="node2" class="node">
<title>target</title>
<ellipse fill="gray" stroke="black" cx="985.78" cy="-450" rx="101.73" ry="18"/>
<text text-anchor="middle" x="985.78" y="-447.8" font-family="Times,serif" font-size="9.00">target: hold(parallel_box1, shaft1)</text>
</g>
<!-- selector: insert(left_hand, parallel_box1, shaft1, gearbase_hole1) -->
<g id="node3" class="node">
<title>selector: insert(left_hand, parallel_box1, shaft1, gearbase_hole1)</title>
<ellipse fill="none" stroke="black" cx="1416.78" cy="-450" rx="311.14" ry="18"/>
<text text-anchor="middle" x="1416.78" y="-446.3" font-family="Times,serif" font-size="14.00">selector: insert(left_hand, parallel_box1, shaft1, gearbase_hole1)</text>
</g>
<!-- target: is_inserted_to(shaft1, gearbase_hole1) -->
<g id="node4" class="node">
<title>target: is_inserted_to(shaft1, gearbase_hole1)</title>
<ellipse fill="none" stroke="black" cx="1137.78" cy="-378" rx="223.66" ry="18"/>
<text text-anchor="middle" x="1137.78" y="-374.3" font-family="Times,serif" font-size="14.00">target: is_inserted_to(shaft1, gearbase_hole1)</text>
</g>
<!-- selector: insert(left_hand, parallel_box1, shaft1, gearbase_hole1)&#45;&gt;target: is_inserted_to(shaft1, gearbase_hole1) -->
<g id="edge1" class="edge">
<title>selector: insert(left_hand, parallel_box1, shaft1, gearbase_hole1)&#45;&gt;target: is_inserted_to(shaft1, gearbase_hole1)</title>
<path fill="none" stroke="black" d="M1350.31,-432.32C1308.89,-421.93 1255.51,-408.54 1212.61,-397.77"/>
<polygon fill="black" stroke="black" points="1213.34,-394.35 1202.79,-395.31 1211.63,-401.14 1213.34,-394.35"/>
</g>
<!-- sequence: insert(left_hand, parallel_box1, shaft1, gearbase_hole1) -->
<g id="node6" class="node">
<title>sequence: insert(left_hand, parallel_box1, shaft1, gearbase_hole1)</title>
<ellipse fill="none" stroke="black" cx="1696.78" cy="-378" rx="317.64" ry="18"/>
<text text-anchor="middle" x="1696.78" y="-374.3" font-family="Times,serif" font-size="14.00">sequence: insert(left_hand, parallel_box1, shaft1, gearbase_hole1)</text>
</g>
<!-- selector: insert(left_hand, parallel_box1, shaft1, gearbase_hole1)&#45;&gt;sequence: insert(left_hand, parallel_box1, shaft1, gearbase_hole1) -->
<g id="edge2" class="edge">
<title>selector: insert(left_hand, parallel_box1, shaft1, gearbase_hole1)&#45;&gt;sequence: insert(left_hand, parallel_box1, shaft1, gearbase_hole1)</title>
<path fill="none" stroke="black" d="M1483.14,-432.41C1524.25,-422.13 1577.2,-408.9 1620.1,-398.17"/>
<polygon fill="black" stroke="black" points="1621.08,-401.53 1629.93,-395.71 1619.38,-394.74 1621.08,-401.53"/>
</g>
<!-- sequence -->
<g id="node5" class="node">
<title>sequence</title>
<polygon fill="orange" stroke="black" points="2001.28,-468 1746.28,-468 1746.28,-432 2001.28,-432 2001.28,-468"/>
<text text-anchor="middle" x="1873.78" y="-447.8" font-family="Times,serif" font-size="9.00">sequence: pick_up(left_hand, parallel_box1, shaft1)</text>
</g>
<!-- selector: load_tool(left_hand, parallel_box1) -->
<g id="node7" class="node">
<title>selector: load_tool(left_hand, parallel_box1)</title>
<ellipse fill="none" stroke="black" cx="888.78" cy="-306" rx="212.56" ry="18"/>
<text text-anchor="middle" x="888.78" y="-302.3" font-family="Times,serif" font-size="14.00">selector: load_tool(left_hand, parallel_box1)</text>
</g>
<!-- sequence: insert(left_hand, parallel_box1, shaft1, gearbase_hole1)&#45;&gt;selector: load_tool(left_hand, parallel_box1) -->
<g id="edge3" class="edge">
<title>sequence: insert(left_hand, parallel_box1, shaft1, gearbase_hole1)&#45;&gt;selector: load_tool(left_hand, parallel_box1)</title>
<path fill="none" stroke="black" d="M1530.84,-362.62C1387.33,-350.19 1181.54,-332.36 1041.91,-320.27"/>
<polygon fill="black" stroke="black" points="1041.82,-316.74 1031.55,-319.37 1041.21,-323.72 1041.82,-316.74"/>
</g>
<!-- selector: pick_up(left_hand, parallel_box1, shaft1) -->
<g id="node20" class="node">
<title>selector: pick_up(left_hand, parallel_box1, shaft1)</title>
<ellipse fill="none" stroke="black" cx="1441.78" cy="-306" rx="241.26" ry="18"/>
<text text-anchor="middle" x="1441.78" y="-302.3" font-family="Times,serif" font-size="14.00">selector: pick_up(left_hand, parallel_box1, shaft1)</text>
</g>
<!-- sequence: insert(left_hand, parallel_box1, shaft1, gearbase_hole1)&#45;&gt;selector: pick_up(left_hand, parallel_box1, shaft1) -->
<g id="edge14" class="edge">
<title>sequence: insert(left_hand, parallel_box1, shaft1, gearbase_hole1)&#45;&gt;selector: pick_up(left_hand, parallel_box1, shaft1)</title>
<path fill="none" stroke="black" d="M1636.03,-360.32C1598.68,-350.07 1550.7,-336.9 1511.76,-326.21"/>
<polygon fill="black" stroke="black" points="1512.64,-322.82 1502.07,-323.55 1510.79,-329.57 1512.64,-322.82"/>
</g>
<!-- precondition: can_insert_to(shaft1, gearbase_hole1) -->
<g id="node26" class="node">
<title>precondition: can_insert_to(shaft1, gearbase_hole1)</title>
<ellipse fill="none" stroke="black" cx="1951.78" cy="-306" rx="250.76" ry="18"/>
<text text-anchor="middle" x="1951.78" y="-302.3" font-family="Times,serif" font-size="14.00">precondition: can_insert_to(shaft1, gearbase_hole1)</text>
</g>
<!-- sequence: insert(left_hand, parallel_box1, shaft1, gearbase_hole1)&#45;&gt;precondition: can_insert_to(shaft1, gearbase_hole1) -->
<g id="edge20" class="edge">
<title>sequence: insert(left_hand, parallel_box1, shaft1, gearbase_hole1)&#45;&gt;precondition: can_insert_to(shaft1, gearbase_hole1)</title>
<path fill="none" stroke="black" d="M1757.54,-360.32C1794.89,-350.07 1842.87,-336.9 1881.8,-326.21"/>
<polygon fill="black" stroke="black" points="1882.78,-329.57 1891.49,-323.55 1880.93,-322.82 1882.78,-329.57"/>
</g>
<!-- action: insert(left_hand, parallel_box1, shaft1, gearbase_hole1) -->
<g id="node27" class="node">
<title>action: insert(left_hand, parallel_box1, shaft1, gearbase_hole1)</title>
<ellipse fill="none" stroke="black" cx="2523.78" cy="-306" rx="302.75" ry="18"/>
<text text-anchor="middle" x="2523.78" y="-302.3" font-family="Times,serif" font-size="14.00">action: insert(left_hand, parallel_box1, shaft1, gearbase_hole1)</text>
</g>
<!-- sequence: insert(left_hand, parallel_box1, shaft1, gearbase_hole1)&#45;&gt;action: insert(left_hand, parallel_box1, shaft1, gearbase_hole1) -->
<g id="edge21" class="edge">
<title>sequence: insert(left_hand, parallel_box1, shaft1, gearbase_hole1)&#45;&gt;action: insert(left_hand, parallel_box1, shaft1, gearbase_hole1)</title>
<path fill="none" stroke="black" d="M1865.64,-362.71C2006,-350.83 2205.09,-333.98 2347.48,-321.92"/>
<polygon fill="black" stroke="black" points="2347.97,-325.39 2357.64,-321.06 2347.38,-318.42 2347.97,-325.39"/>
</g>
<!-- target: hold(left_hand, parallel_box1) -->
<g id="node8" class="node">
<title>target: hold(left_hand, parallel_box1)</title>
<ellipse fill="none" stroke="black" cx="468.78" cy="-234" rx="182.77" ry="18"/>
<text text-anchor="middle" x="468.78" y="-230.3" font-family="Times,serif" font-size="14.00">target: hold(left_hand, parallel_box1)</text>
</g>
<!-- selector: load_tool(left_hand, parallel_box1)&#45;&gt;target: hold(left_hand, parallel_box1) -->
<g id="edge4" class="edge">
<title>selector: load_tool(left_hand, parallel_box1)&#45;&gt;target: hold(left_hand, parallel_box1)</title>
<path fill="none" stroke="black" d="M797.13,-289.72C729.27,-278.41 636.92,-263.02 567.44,-251.44"/>
<polygon fill="black" stroke="black" points="567.8,-247.95 557.36,-249.76 566.65,-254.86 567.8,-247.95"/>
</g>
<!-- sequence: load_tool(left_hand, parallel_box1) -->
<g id="node9" class="node">
<title>sequence: load_tool(left_hand, parallel_box1)</title>
<ellipse fill="none" stroke="black" cx="888.78" cy="-234" rx="219.06" ry="18"/>
<text text-anchor="middle" x="888.78" y="-230.3" font-family="Times,serif" font-size="14.00">sequence: load_tool(left_hand, parallel_box1)</text>
</g>
<!-- selector: load_tool(left_hand, parallel_box1)&#45;&gt;sequence: load_tool(left_hand, parallel_box1) -->
<g id="edge5" class="edge">
<title>selector: load_tool(left_hand, parallel_box1)&#45;&gt;sequence: load_tool(left_hand, parallel_box1)</title>
<path fill="none" stroke="black" d="M888.78,-287.7C888.78,-279.98 888.78,-270.71 888.78,-262.11"/>
<polygon fill="black" stroke="black" points="892.28,-262.1 888.78,-252.1 885.28,-262.1 892.28,-262.1"/>
</g>
<!-- selector: unload_tool(left_hand, outward_claw) -->
<g id="node10" class="node">
<title>selector: unload_tool(left_hand, outward_claw)</title>
<ellipse fill="none" stroke="black" cx="396.78" cy="-162" rx="226.36" ry="18"/>
<text text-anchor="middle" x="396.78" y="-158.3" font-family="Times,serif" font-size="14.00">selector: unload_tool(left_hand, outward_claw)</text>
</g>
<!-- sequence: load_tool(left_hand, parallel_box1)&#45;&gt;selector: unload_tool(left_hand, outward_claw) -->
<g id="edge6" class="edge">
<title>sequence: load_tool(left_hand, parallel_box1)&#45;&gt;selector: unload_tool(left_hand, outward_claw)</title>
<path fill="none" stroke="black" d="M784.44,-218.15C704.48,-206.78 594.23,-191.09 511.74,-179.36"/>
<polygon fill="black" stroke="black" points="512.21,-175.89 501.82,-177.94 511.23,-182.82 512.21,-175.89"/>
</g>
<!-- precondition: is_equippable(parallel_box1) -->
<g id="node18" class="node">
<title>precondition: is_equippable(parallel_box1)</title>
<ellipse fill="none" stroke="black" cx="848.78" cy="-162" rx="207.16" ry="18"/>
<text text-anchor="middle" x="848.78" y="-158.3" font-family="Times,serif" font-size="14.00">precondition: is_equippable(parallel_box1)</text>
</g>
<!-- sequence: load_tool(left_hand, parallel_box1)&#45;&gt;precondition: is_equippable(parallel_box1) -->
<g id="edge12" class="edge">
<title>sequence: load_tool(left_hand, parallel_box1)&#45;&gt;precondition: is_equippable(parallel_box1)</title>
<path fill="none" stroke="black" d="M878.9,-215.7C874.29,-207.64 868.72,-197.89 863.63,-188.98"/>
<polygon fill="black" stroke="black" points="866.56,-187.05 858.56,-180.1 860.48,-190.52 866.56,-187.05"/>
</g>
<!-- action: load_tool(left_hand, parallel_box1) -->
<g id="node19" class="node">
<title>action: load_tool(left_hand, parallel_box1)</title>
<ellipse fill="none" stroke="black" cx="1277.78" cy="-162" rx="204.16" ry="18"/>
<text text-anchor="middle" x="1277.78" y="-158.3" font-family="Times,serif" font-size="14.00">action: load_tool(left_hand, parallel_box1)</text>
</g>
<!-- sequence: load_tool(left_hand, parallel_box1)&#45;&gt;action: load_tool(left_hand, parallel_box1) -->
<g id="edge13" class="edge">
<title>sequence: load_tool(left_hand, parallel_box1)&#45;&gt;action: load_tool(left_hand, parallel_box1)</title>
<path fill="none" stroke="black" d="M975.6,-217.38C1036.92,-206.34 1119.09,-191.56 1182.27,-180.19"/>
<polygon fill="black" stroke="black" points="1183.02,-183.61 1192.24,-178.39 1181.78,-176.72 1183.02,-183.61"/>
</g>
<!-- target: is_free(left_hand) -->
<g id="node11" class="node">
<title>target: is_free(left_hand)</title>
<ellipse fill="none" stroke="black" cx="208.78" cy="-90" rx="126.18" ry="18"/>
<text text-anchor="middle" x="208.78" y="-86.3" font-family="Times,serif" font-size="14.00">target: is_free(left_hand)</text>
</g>
<!-- selector: unload_tool(left_hand, outward_claw)&#45;&gt;target: is_free(left_hand) -->
<g id="edge7" class="edge">
<title>selector: unload_tool(left_hand, outward_claw)&#45;&gt;target: is_free(left_hand)</title>
<path fill="none" stroke="black" d="M351.75,-144.23C324.52,-134.09 289.69,-121.12 261.22,-110.52"/>
<polygon fill="black" stroke="black" points="262.42,-107.24 251.83,-107.03 259.98,-113.8 262.42,-107.24"/>
</g>
<!-- sequence: unload_tool(left_hand, outward_claw) -->
<g id="node12" class="node">
<title>sequence: unload_tool(left_hand, outward_claw)</title>
<ellipse fill="none" stroke="black" cx="585.78" cy="-90" rx="232.86" ry="18"/>
<text text-anchor="middle" x="585.78" y="-86.3" font-family="Times,serif" font-size="14.00">sequence: unload_tool(left_hand, outward_claw)</text>
</g>
<!-- selector: unload_tool(left_hand, outward_claw)&#45;&gt;sequence: unload_tool(left_hand, outward_claw) -->
<g id="edge8" class="edge">
<title>selector: unload_tool(left_hand, outward_claw)&#45;&gt;sequence: unload_tool(left_hand, outward_claw)</title>
<path fill="none" stroke="black" d="M442.05,-144.23C468.72,-134.36 502.65,-121.79 530.84,-111.35"/>
<polygon fill="black" stroke="black" points="532.39,-114.51 540.56,-107.75 529.96,-107.94 532.39,-114.51"/>
</g>
<!-- precondition: is_free(outward_claw) -->
<g id="node14" class="node">
<title>precondition: is_free(outward_claw)</title>
<ellipse fill="none" stroke="black" cx="176.78" cy="-18" rx="176.57" ry="18"/>
<text text-anchor="middle" x="176.78" y="-14.3" font-family="Times,serif" font-size="14.00">precondition: is_free(outward_claw)</text>
</g>
<!-- sequence: unload_tool(left_hand, outward_claw)&#45;&gt;precondition: is_free(outward_claw) -->
<g id="edge9" class="edge">
<title>sequence: unload_tool(left_hand, outward_claw)&#45;&gt;precondition: is_free(outward_claw)</title>
<path fill="none" stroke="black" d="M494.76,-73.42C428.94,-62.16 340.16,-46.96 273.14,-35.49"/>
<polygon fill="black" stroke="black" points="273.44,-31.99 262.99,-33.75 272.26,-38.89 273.44,-31.99"/>
</g>
<!-- precondition: hold(left_hand, outward_claw) -->
<g id="node15" class="node">
<title>precondition: hold(left_hand, outward_claw)</title>
<ellipse fill="none" stroke="black" cx="585.78" cy="-18" rx="214.46" ry="18"/>
<text text-anchor="middle" x="585.78" y="-14.3" font-family="Times,serif" font-size="14.00">precondition: hold(left_hand, outward_claw)</text>
</g>
<!-- sequence: unload_tool(left_hand, outward_claw)&#45;&gt;precondition: hold(left_hand, outward_claw) -->
<g id="edge10" class="edge">
<title>sequence: unload_tool(left_hand, outward_claw)&#45;&gt;precondition: hold(left_hand, outward_claw)</title>
<path fill="none" stroke="black" d="M585.78,-71.7C585.78,-63.98 585.78,-54.71 585.78,-46.11"/>
<polygon fill="black" stroke="black" points="589.28,-46.1 585.78,-36.1 582.28,-46.1 589.28,-46.1"/>
</g>
<!-- action: unload_tool(left_hand, outward_claw) -->
<g id="node17" class="node">
<title>action: unload_tool(left_hand, outward_claw)</title>
<ellipse fill="none" stroke="black" cx="1035.78" cy="-18" rx="217.96" ry="18"/>
<text text-anchor="middle" x="1035.78" y="-14.3" font-family="Times,serif" font-size="14.00">action: unload_tool(left_hand, outward_claw)</text>
</g>
<!-- sequence: unload_tool(left_hand, outward_claw)&#45;&gt;action: unload_tool(left_hand, outward_claw) -->
<g id="edge11" class="edge">
<title>sequence: unload_tool(left_hand, outward_claw)&#45;&gt;action: unload_tool(left_hand, outward_claw)</title>
<path fill="none" stroke="black" d="M684.26,-73.68C756.27,-62.48 853.91,-47.29 928.01,-35.77"/>
<polygon fill="black" stroke="black" points="928.96,-39.16 938.3,-34.16 927.88,-32.24 928.96,-39.16"/>
</g>
<!-- precondition -->
<g id="node13" class="node">
<title>precondition</title>
<ellipse fill="gray" stroke="black" cx="2167.78" cy="-450" rx="148.26" ry="18"/>
<text text-anchor="middle" x="2167.78" y="-447.8" font-family="Times,serif" font-size="9.00">precondition: can_insert_to(shaft1, gearbase_hole1)</text>
</g>
<!-- action -->
<g id="node16" class="node">
<title>action</title>
<ellipse fill="gray" stroke="black" cx="2512.78" cy="-450" rx="178.3" ry="18"/>
<text text-anchor="middle" x="2512.78" y="-447.8" font-family="Times,serif" font-size="9.00">action: insert(left_hand, parallel_box1, shaft1, gearbase_hole1)</text>
</g>
<!-- target: hold(parallel_box1, shaft1) -->
<g id="node21" class="node">
<title>target: hold(parallel_box1, shaft1)</title>
<ellipse fill="none" stroke="black" cx="1441.78" cy="-234" rx="168.97" ry="18"/>
<text text-anchor="middle" x="1441.78" y="-230.3" font-family="Times,serif" font-size="14.00">target: hold(parallel_box1, shaft1)</text>
</g>
<!-- selector: pick_up(left_hand, parallel_box1, shaft1)&#45;&gt;target: hold(parallel_box1, shaft1) -->
<g id="edge15" class="edge">
<title>selector: pick_up(left_hand, parallel_box1, shaft1)&#45;&gt;target: hold(parallel_box1, shaft1)</title>
<path fill="none" stroke="black" d="M1441.78,-287.7C1441.78,-279.98 1441.78,-270.71 1441.78,-262.11"/>
<polygon fill="black" stroke="black" points="1445.28,-262.1 1441.78,-252.1 1438.28,-262.1 1445.28,-262.1"/>
</g>
<!-- sequence: pick_up(left_hand, parallel_box1, shaft1) -->
<g id="node22" class="node">
<title>sequence: pick_up(left_hand, parallel_box1, shaft1)</title>
<ellipse fill="none" stroke="black" cx="2038.78" cy="-234" rx="247.76" ry="18"/>
<text text-anchor="middle" x="2038.78" y="-230.3" font-family="Times,serif" font-size="14.00">sequence: pick_up(left_hand, parallel_box1, shaft1)</text>
</g>
<!-- selector: pick_up(left_hand, parallel_box1, shaft1)&#45;&gt;sequence: pick_up(left_hand, parallel_box1, shaft1) -->
<g id="edge16" class="edge">
<title>selector: pick_up(left_hand, parallel_box1, shaft1)&#45;&gt;sequence: pick_up(left_hand, parallel_box1, shaft1)</title>
<path fill="none" stroke="black" d="M1565.48,-290.5C1664.39,-278.9 1802.84,-262.67 1904.45,-250.75"/>
<polygon fill="black" stroke="black" points="1904.95,-254.22 1914.48,-249.58 1904.14,-247.26 1904.95,-254.22"/>
</g>
<!-- precondition: is_free(parallel_box1) -->
<g id="node23" class="node">
<title>precondition: is_free(parallel_box1)</title>
<ellipse fill="none" stroke="black" cx="1674.78" cy="-162" rx="174.67" ry="18"/>
<text text-anchor="middle" x="1674.78" y="-158.3" font-family="Times,serif" font-size="14.00">precondition: is_free(parallel_box1)</text>
</g>
<!-- sequence: pick_up(left_hand, parallel_box1, shaft1)&#45;&gt;precondition: is_free(parallel_box1) -->
<g id="edge17" class="edge">
<title>sequence: pick_up(left_hand, parallel_box1, shaft1)&#45;&gt;precondition: is_free(parallel_box1)</title>
<path fill="none" stroke="black" d="M1955.73,-217.03C1898.31,-205.99 1822.01,-191.31 1763.41,-180.04"/>
<polygon fill="black" stroke="black" points="1763.91,-176.58 1753.43,-178.12 1762.59,-183.45 1763.91,-176.58"/>
</g>
<!-- precondition: hold(left_hand, parallel_box1) -->
<g id="node24" class="node">
<title>precondition: hold(left_hand, parallel_box1)</title>
<ellipse fill="none" stroke="black" cx="2079.78" cy="-162" rx="212.56" ry="18"/>
<text text-anchor="middle" x="2079.78" y="-158.3" font-family="Times,serif" font-size="14.00">precondition: hold(left_hand, parallel_box1)</text>
</g>
<!-- sequence: pick_up(left_hand, parallel_box1, shaft1)&#45;&gt;precondition: hold(left_hand, parallel_box1) -->
<g id="edge18" class="edge">
<title>sequence: pick_up(left_hand, parallel_box1, shaft1)&#45;&gt;precondition: hold(left_hand, parallel_box1)</title>
<path fill="none" stroke="black" d="M2048.92,-215.7C2053.64,-207.64 2059.35,-197.89 2064.57,-188.98"/>
<polygon fill="black" stroke="black" points="2067.73,-190.5 2069.77,-180.1 2061.69,-186.96 2067.73,-190.5"/>
</g>
<!-- action: pick_up(left_hand, parallel_box1, shaft1) -->
<g id="node25" class="node">
<title>action: pick_up(left_hand, parallel_box1, shaft1)</title>
<ellipse fill="none" stroke="black" cx="2542.78" cy="-162" rx="232.86" ry="18"/>
<text text-anchor="middle" x="2542.78" y="-158.3" font-family="Times,serif" font-size="14.00">action: pick_up(left_hand, parallel_box1, shaft1)</text>
</g>
<!-- sequence: pick_up(left_hand, parallel_box1, shaft1)&#45;&gt;action: pick_up(left_hand, parallel_box1, shaft1) -->
<g id="edge19" class="edge">
<title>sequence: pick_up(left_hand, parallel_box1, shaft1)&#45;&gt;action: pick_up(left_hand, parallel_box1, shaft1)</title>
<path fill="none" stroke="black" d="M2148.14,-217.81C2229.8,-206.47 2341.24,-190.99 2424.88,-179.38"/>
<polygon fill="black" stroke="black" points="2425.51,-182.82 2434.94,-177.98 2424.55,-175.89 2425.51,-182.82"/>
</g>
</g>
</svg>
