<?xml version="1.0" encoding="UTF-8" standalone="no"?>
<!DOCTYPE svg PUBLIC "-//W3C//DTD SVG 1.1//EN"
 "http://www.w3.org/Graphics/SVG/1.1/DTD/svg11.dtd">
<!-- Generated by graphviz version 2.43.0 (0)
 -->
<!-- Title: pastafarianism Pages: 1 -->
<svg width="2067pt" height="332pt"
 viewBox="0.00 0.00 2067.38 332.00" xmlns="http://www.w3.org/2000/svg" xmlns:xlink="http://www.w3.org/1999/xlink">
<g id="graph0" class="graph" transform="scale(1 1) rotate(0) translate(4 328)">
<title>pastafarianism</title>
<polygon fill="white" stroke="transparent" points="-4,4 -4,-328 2063.38,-328 2063.38,4 -4,4"/>
<!-- selector -->
<g id="node1" class="node">
<title>selector</title>
<polygon fill="cyan" stroke="black" points="309.94,-298.54 309.94,-313.46 219.17,-324 90.79,-324 0.02,-313.46 0.02,-298.54 90.79,-288 219.17,-288 309.94,-298.54"/>
<text text-anchor="middle" x="154.98" y="-303.8" font-family="Times,serif" font-size="9.00">selector: pick_up(left_hand, parallel_box1, shaft1)</text>
</g>
<!-- target -->
<g id="node2" class="node">
<title>target</title>
<ellipse fill="gray" stroke="black" cx="429.98" cy="-306" rx="101.73" ry="18"/>
<text text-anchor="middle" x="429.98" y="-303.8" font-family="Times,serif" font-size="9.00">target: hold(parallel_box1, shaft1)</text>
</g>
<!-- selector: insert(left_hand, parallel_box1, shaft1, gearbase_hole1) -->
<g id="node3" class="node">
<title>selector: insert(left_hand, parallel_box1, shaft1, gearbase_hole1)</title>
<ellipse fill="none" stroke="black" cx="860.98" cy="-306" rx="311.14" ry="18"/>
<text text-anchor="middle" x="860.98" y="-302.3" font-family="Times,serif" font-size="14.00">selector: insert(left_hand, parallel_box1, shaft1, gearbase_hole1)</text>
</g>
<!-- target: is_inserted_to(shaft1, gearbase_hole1) -->
<g id="node4" class="node">
<title>target: is_inserted_to(shaft1, gearbase_hole1)</title>
<ellipse fill="none" stroke="black" cx="581.98" cy="-234" rx="223.66" ry="18"/>
<text text-anchor="middle" x="581.98" y="-230.3" font-family="Times,serif" font-size="14.00">target: is_inserted_to(shaft1, gearbase_hole1)</text>
</g>
<!-- selector: insert(left_hand, parallel_box1, shaft1, gearbase_hole1)&#45;&gt;target: is_inserted_to(shaft1, gearbase_hole1) -->
<g id="edge1" class="edge">
<title>selector: insert(left_hand, parallel_box1, shaft1, gearbase_hole1)&#45;&gt;target: is_inserted_to(shaft1, gearbase_hole1)</title>
<path fill="none" stroke="black" d="M794.51,-288.32C753.09,-277.93 699.71,-264.54 656.81,-253.77"/>
<polygon fill="black" stroke="black" points="657.53,-250.35 646.98,-251.31 655.83,-257.14 657.53,-250.35"/>
</g>
<!-- sequence: insert(left_hand, parallel_box1, shaft1, gearbase_hole1) -->
<g id="node6" class="node">
<title>sequence: insert(left_hand, parallel_box1, shaft1, gearbase_hole1)</title>
<ellipse fill="none" stroke="black" cx="1140.98" cy="-234" rx="317.64" ry="18"/>
<text text-anchor="middle" x="1140.98" y="-230.3" font-family="Times,serif" font-size="14.00">sequence: insert(left_hand, parallel_box1, shaft1, gearbase_hole1)</text>
</g>
<!-- selector: insert(left_hand, parallel_box1, shaft1, gearbase_hole1)&#45;&gt;sequence: insert(left_hand, parallel_box1, shaft1, gearbase_hole1) -->
<g id="edge2" class="edge">
<title>selector: insert(left_hand, parallel_box1, shaft1, gearbase_hole1)&#45;&gt;sequence: insert(left_hand, parallel_box1, shaft1, gearbase_hole1)</title>
<path fill="none" stroke="black" d="M927.34,-288.41C968.44,-278.13 1021.4,-264.9 1064.3,-254.17"/>
<polygon fill="black" stroke="black" points="1065.28,-257.53 1074.13,-251.71 1063.58,-250.74 1065.28,-257.53"/>
</g>
<!-- sequence -->
<g id="node5" class="node">
<title>sequence</title>
<polygon fill="orange" stroke="black" points="1445.48,-324 1190.48,-324 1190.48,-288 1445.48,-288 1445.48,-324"/>
<text text-anchor="middle" x="1317.98" y="-303.8" font-family="Times,serif" font-size="9.00">sequence: pick_up(left_hand, parallel_box1, shaft1)</text>
</g>
<!-- precondition: hold(left_hand, parallel_box1) -->
<g id="node8" class="node">
<title>precondition: hold(left_hand, parallel_box1)</title>
<ellipse fill="none" stroke="black" cx="668.98" cy="-162" rx="212.56" ry="18"/>
<text text-anchor="middle" x="668.98" y="-158.3" font-family="Times,serif" font-size="14.00">precondition: hold(left_hand, parallel_box1)</text>
</g>
<!-- sequence: insert(left_hand, parallel_box1, shaft1, gearbase_hole1)&#45;&gt;precondition: hold(left_hand, parallel_box1) -->
<g id="edge3" class="edge">
<title>sequence: insert(left_hand, parallel_box1, shaft1, gearbase_hole1)&#45;&gt;precondition: hold(left_hand, parallel_box1)</title>
<path fill="none" stroke="black" d="M1033.29,-217.03C957.38,-205.77 856.04,-190.74 779.51,-179.39"/>
<polygon fill="black" stroke="black" points="779.76,-175.89 769.36,-177.89 778.73,-182.82 779.76,-175.89"/>
</g>
<!-- selector: pick_up(left_hand, parallel_box1, shaft1) -->
<g id="node9" class="node">
<title>selector: pick_up(left_hand, parallel_box1, shaft1)</title>
<ellipse fill="none" stroke="black" cx="1140.98" cy="-162" rx="241.26" ry="18"/>
<text text-anchor="middle" x="1140.98" y="-158.3" font-family="Times,serif" font-size="14.00">selector: pick_up(left_hand, parallel_box1, shaft1)</text>
</g>
<!-- sequence: insert(left_hand, parallel_box1, shaft1, gearbase_hole1)&#45;&gt;selector: pick_up(left_hand, parallel_box1, shaft1) -->
<g id="edge4" class="edge">
<title>sequence: insert(left_hand, parallel_box1, shaft1, gearbase_hole1)&#45;&gt;selector: pick_up(left_hand, parallel_box1, shaft1)</title>
<path fill="none" stroke="black" d="M1140.98,-215.7C1140.98,-207.98 1140.98,-198.71 1140.98,-190.11"/>
<polygon fill="black" stroke="black" points="1144.48,-190.1 1140.98,-180.1 1137.48,-190.1 1144.48,-190.1"/>
</g>
<!-- action: insert(left_hand, parallel_box1, shaft1, gearbase_hole1) -->
<g id="node16" class="node">
<title>action: insert(left_hand, parallel_box1, shaft1, gearbase_hole1)</title>
<ellipse fill="none" stroke="black" cx="1702.98" cy="-162" rx="302.75" ry="18"/>
<text text-anchor="middle" x="1702.98" y="-158.3" font-family="Times,serif" font-size="14.00">action: insert(left_hand, parallel_box1, shaft1, gearbase_hole1)</text>
</g>
<!-- sequence: insert(left_hand, parallel_box1, shaft1, gearbase_hole1)&#45;&gt;action: insert(left_hand, parallel_box1, shaft1, gearbase_hole1) -->
<g id="edge10" class="edge">
<title>sequence: insert(left_hand, parallel_box1, shaft1, gearbase_hole1)&#45;&gt;action: insert(left_hand, parallel_box1, shaft1, gearbase_hole1)</title>
<path fill="none" stroke="black" d="M1266.06,-217.42C1355.93,-206.23 1476.95,-191.15 1568.83,-179.71"/>
<polygon fill="black" stroke="black" points="1569.26,-183.18 1578.76,-178.47 1568.4,-176.24 1569.26,-183.18"/>
</g>
<!-- precondition -->
<g id="node7" class="node">
<title>precondition</title>
<ellipse fill="gray" stroke="black" cx="1573.98" cy="-306" rx="110.7" ry="18"/>
<text text-anchor="middle" x="1573.98" y="-303.8" font-family="Times,serif" font-size="9.00">precondition: is_empty(parallel_box1)</text>
</g>
<!-- target: hold(parallel_box1, shaft1) -->
<g id="node10" class="node">
<title>target: hold(parallel_box1, shaft1)</title>
<ellipse fill="none" stroke="black" cx="923.98" cy="-90" rx="168.97" ry="18"/>
<text text-anchor="middle" x="923.98" y="-86.3" font-family="Times,serif" font-size="14.00">target: hold(parallel_box1, shaft1)</text>
</g>
<!-- selector: pick_up(left_hand, parallel_box1, shaft1)&#45;&gt;target: hold(parallel_box1, shaft1) -->
<g id="edge5" class="edge">
<title>selector: pick_up(left_hand, parallel_box1, shaft1)&#45;&gt;target: hold(parallel_box1, shaft1)</title>
<path fill="none" stroke="black" d="M1089.55,-144.41C1057.84,-134.18 1017.04,-121.02 983.87,-110.32"/>
<polygon fill="black" stroke="black" points="984.88,-106.97 974.29,-107.23 982.73,-113.63 984.88,-106.97"/>
</g>
<!-- sequence: pick_up(left_hand, parallel_box1, shaft1) -->
<g id="node11" class="node">
<title>sequence: pick_up(left_hand, parallel_box1, shaft1)</title>
<ellipse fill="none" stroke="black" cx="1358.98" cy="-90" rx="247.76" ry="18"/>
<text text-anchor="middle" x="1358.98" y="-86.3" font-family="Times,serif" font-size="14.00">sequence: pick_up(left_hand, parallel_box1, shaft1)</text>
</g>
<!-- selector: pick_up(left_hand, parallel_box1, shaft1)&#45;&gt;sequence: pick_up(left_hand, parallel_box1, shaft1) -->
<g id="edge6" class="edge">
<title>selector: pick_up(left_hand, parallel_box1, shaft1)&#45;&gt;sequence: pick_up(left_hand, parallel_box1, shaft1)</title>
<path fill="none" stroke="black" d="M1192.64,-144.41C1224.04,-134.33 1264.32,-121.4 1297.37,-110.78"/>
<polygon fill="black" stroke="black" points="1298.48,-114.1 1306.93,-107.71 1296.34,-107.44 1298.48,-114.1"/>
</g>
<!-- precondition: hold(left_hand, parallel_box1)* -->
<g id="node12" class="node">
<title>precondition: hold(left_hand, parallel_box1)*</title>
<ellipse fill="none" stroke="black" cx="938.98" cy="-18" rx="217.16" ry="18"/>
<text text-anchor="middle" x="938.98" y="-14.3" font-family="Times,serif" font-size="14.00">precondition: hold(left_hand, parallel_box1)*</text>
</g>
<!-- sequence: pick_up(left_hand, parallel_box1, shaft1)&#45;&gt;precondition: hold(left_hand, parallel_box1)* -->
<g id="edge7" class="edge">
<title>sequence: pick_up(left_hand, parallel_box1, shaft1)&#45;&gt;precondition: hold(left_hand, parallel_box1)*</title>
<path fill="none" stroke="black" d="M1264.99,-73.33C1198.38,-62.23 1109.08,-47.35 1040.79,-35.97"/>
<polygon fill="black" stroke="black" points="1041.31,-32.51 1030.87,-34.31 1040.16,-39.41 1041.31,-32.51"/>
</g>
<!-- precondition: is_empty(parallel_box1) -->
<g id="node13" class="node">
<title>precondition: is_empty(parallel_box1)</title>
<ellipse fill="none" stroke="black" cx="1358.98" cy="-18" rx="185.47" ry="18"/>
<text text-anchor="middle" x="1358.98" y="-14.3" font-family="Times,serif" font-size="14.00">precondition: is_empty(parallel_box1)</text>
</g>
<!-- sequence: pick_up(left_hand, parallel_box1, shaft1)&#45;&gt;precondition: is_empty(parallel_box1) -->
<g id="edge8" class="edge">
<title>sequence: pick_up(left_hand, parallel_box1, shaft1)&#45;&gt;precondition: is_empty(parallel_box1)</title>
<path fill="none" stroke="black" d="M1358.98,-71.7C1358.98,-63.98 1358.98,-54.71 1358.98,-46.11"/>
<polygon fill="black" stroke="black" points="1362.48,-46.1 1358.98,-36.1 1355.48,-46.1 1362.48,-46.1"/>
</g>
<!-- action: pick_up(left_hand, parallel_box1, shaft1) -->
<g id="node15" class="node">
<title>action: pick_up(left_hand, parallel_box1, shaft1)</title>
<ellipse fill="none" stroke="black" cx="1794.98" cy="-18" rx="232.86" ry="18"/>
<text text-anchor="middle" x="1794.98" y="-14.3" font-family="Times,serif" font-size="14.00">action: pick_up(left_hand, parallel_box1, shaft1)</text>
</g>
<!-- sequence: pick_up(left_hand, parallel_box1, shaft1)&#45;&gt;action: pick_up(left_hand, parallel_box1, shaft1) -->
<g id="edge9" class="edge">
<title>sequence: pick_up(left_hand, parallel_box1, shaft1)&#45;&gt;action: pick_up(left_hand, parallel_box1, shaft1)</title>
<path fill="none" stroke="black" d="M1456.01,-73.42C1525.15,-62.32 1618.05,-47.41 1689.1,-36"/>
<polygon fill="black" stroke="black" points="1689.66,-39.45 1698.98,-34.41 1688.55,-32.54 1689.66,-39.45"/>
</g>
<!-- action -->
<g id="node14" class="node">
<title>action</title>
<ellipse fill="gray" stroke="black" cx="1880.98" cy="-306" rx="178.3" ry="18"/>
<text text-anchor="middle" x="1880.98" y="-303.8" font-family="Times,serif" font-size="9.00">action: insert(left_hand, parallel_box1, shaft1, gearbase_hole1)</text>
</g>
</g>
</svg>
