<?xml version="1.0" encoding="UTF-8" standalone="no"?>
<!DOCTYPE svg PUBLIC "-//W3C//DTD SVG 1.1//EN"
 "http://www.w3.org/Graphics/SVG/1.1/DTD/svg11.dtd">
<!-- Generated by graphviz version 2.43.0 (0)
 -->
<!-- Title: pastafarianism Pages: 1 -->
<svg width="1900pt" height="513pt"
 viewBox="0.00 0.00 1899.93 513.48" xmlns="http://www.w3.org/2000/svg" xmlns:xlink="http://www.w3.org/1999/xlink">
<g id="graph0" class="graph" transform="scale(1 1) rotate(0) translate(4 509.48)">
<title>pastafarianism</title>
<polygon fill="white" stroke="transparent" points="-4,4 -4,-509.48 1895.93,-509.48 1895.93,4 -4,4"/>
<!-- selector:
 screw(left_hand, defaultgripper, chairnut1, chairseatbolt1) -->
<g id="node1" class="node">
<title>selector:
 screw(left_hand, defaultgripper, chairnut1, chairseatbolt1)</title>
<polygon fill="#8deeee" stroke="black" points="964.32,-453.42 964.32,-484.05 715.93,-505.71 364.65,-505.71 116.26,-484.05 116.26,-453.42 364.65,-431.76 715.93,-431.76 964.32,-453.42"/>
<text text-anchor="middle" x="540.29" y="-474.34" font-family="Times,serif" font-size="18.00">selector:</text>
<text text-anchor="middle" x="540.29" y="-454.34" font-family="Times,serif" font-size="18.00"> screw(left_hand, defaultgripper, chairnut1, chairseatbolt1)</text>
</g>
<!-- target:
 is_screwed_to(chairnut1, chairseatbolt1) -->
<g id="node2" class="node">
<title>target:
 is_screwed_to(chairnut1, chairseatbolt1)</title>
<ellipse fill="#ffec8b" stroke="black" cx="262.29" cy="-360" rx="262.08" ry="36"/>
<text text-anchor="middle" x="262.29" y="-365.6" font-family="Times,serif" font-size="18.00">target:</text>
<text text-anchor="middle" x="262.29" y="-345.6" font-family="Times,serif" font-size="18.00"> is_screwed_to(chairnut1, chairseatbolt1)</text>
</g>
<!-- selector:
 screw(left_hand, defaultgripper, chairnut1, chairseatbolt1)&#45;&gt;target:
 is_screwed_to(chairnut1, chairseatbolt1) -->
<g id="edge1" class="edge">
<title>selector:
 screw(left_hand, defaultgripper, chairnut1, chairseatbolt1)&#45;&gt;target:
 is_screwed_to(chairnut1, chairseatbolt1)</title>
<path fill="none" stroke="black" d="M446.95,-431.9C418.32,-420.91 386.79,-408.8 358,-397.75"/>
<polygon fill="black" stroke="black" points="358.95,-394.36 348.36,-394.04 356.44,-400.9 358.95,-394.36"/>
</g>
<!-- sequence:
 screw(left_hand, defaultgripper, chairnut1, chairseatbolt1) -->
<g id="node3" class="node">
<title>sequence:
 screw(left_hand, defaultgripper, chairnut1, chairseatbolt1)</title>
<polygon fill="#ff7f24" stroke="black" points="1096.29,-396 542.29,-396 542.29,-324 1096.29,-324 1096.29,-396"/>
<text text-anchor="middle" x="819.29" y="-365.6" font-family="Times,serif" font-size="18.00">sequence:</text>
<text text-anchor="middle" x="819.29" y="-345.6" font-family="Times,serif" font-size="18.00"> screw(left_hand, defaultgripper, chairnut1, chairseatbolt1)</text>
</g>
<!-- selector:
 screw(left_hand, defaultgripper, chairnut1, chairseatbolt1)&#45;&gt;sequence:
 screw(left_hand, defaultgripper, chairnut1, chairseatbolt1) -->
<g id="edge2" class="edge">
<title>selector:
 screw(left_hand, defaultgripper, chairnut1, chairseatbolt1)&#45;&gt;sequence:
 screw(left_hand, defaultgripper, chairnut1, chairseatbolt1)</title>
<path fill="none" stroke="black" d="M633.97,-431.9C661.02,-421.55 690.65,-410.21 718.13,-399.7"/>
<polygon fill="black" stroke="black" points="719.66,-402.86 727.75,-396.02 717.16,-396.32 719.66,-402.86"/>
</g>
<!-- precondition:
 hold(defaultgripper, chairnut1) -->
<g id="node4" class="node">
<title>precondition:
 hold(defaultgripper, chairnut1)</title>
<ellipse fill="#ffec8b" stroke="black" cx="287.29" cy="-252" rx="202.68" ry="36"/>
<text text-anchor="middle" x="287.29" y="-257.6" font-family="Times,serif" font-size="18.00">precondition:</text>
<text text-anchor="middle" x="287.29" y="-237.6" font-family="Times,serif" font-size="18.00"> hold(defaultgripper, chairnut1)</text>
</g>
<!-- sequence:
 screw(left_hand, defaultgripper, chairnut1, chairseatbolt1)&#45;&gt;precondition:
 hold(defaultgripper, chairnut1) -->
<g id="edge3" class="edge">
<title>sequence:
 screw(left_hand, defaultgripper, chairnut1, chairseatbolt1)&#45;&gt;precondition:
 hold(defaultgripper, chairnut1)</title>
<path fill="none" stroke="black" d="M643.62,-324C574.1,-310.15 495.23,-294.43 429.4,-281.32"/>
<polygon fill="black" stroke="black" points="429.86,-277.84 419.37,-279.32 428.5,-284.7 429.86,-277.84"/>
</g>
<!-- selector:
 pick_up(left_hand, defaultgripper, chairnut1) -->
<g id="node5" class="node">
<title>selector:
 pick_up(left_hand, defaultgripper, chairnut1)</title>
<polygon fill="#8deeee" stroke="black" points="1130.78,-237.09 1130.78,-266.91 948.31,-288 690.27,-288 507.8,-266.91 507.8,-237.09 690.27,-216 948.31,-216 1130.78,-237.09"/>
<text text-anchor="middle" x="819.29" y="-257.6" font-family="Times,serif" font-size="18.00">selector:</text>
<text text-anchor="middle" x="819.29" y="-237.6" font-family="Times,serif" font-size="18.00"> pick_up(left_hand, defaultgripper, chairnut1)</text>
</g>
<!-- sequence:
 screw(left_hand, defaultgripper, chairnut1, chairseatbolt1)&#45;&gt;selector:
 pick_up(left_hand, defaultgripper, chairnut1) -->
<g id="edge4" class="edge">
<title>sequence:
 screw(left_hand, defaultgripper, chairnut1, chairseatbolt1)&#45;&gt;selector:
 pick_up(left_hand, defaultgripper, chairnut1)</title>
<path fill="none" stroke="black" d="M819.29,-324C819.29,-315.85 819.29,-307.06 819.29,-298.54"/>
<polygon fill="black" stroke="black" points="822.79,-298.33 819.29,-288.33 815.79,-298.33 822.79,-298.33"/>
</g>
<!-- action:
 screw(left_hand, defaultgripper, chairnut1, chairseatbolt1) -->
<g id="node11" class="node">
<title>action:
 screw(left_hand, defaultgripper, chairnut1, chairseatbolt1)</title>
<ellipse fill="lightgreen" stroke="black" cx="1520.29" cy="-252" rx="371.77" ry="36"/>
<text text-anchor="middle" x="1520.29" y="-257.6" font-family="Times,serif" font-size="18.00">action:</text>
<text text-anchor="middle" x="1520.29" y="-237.6" font-family="Times,serif" font-size="18.00"> screw(left_hand, defaultgripper, chairnut1, chairseatbolt1)</text>
</g>
<!-- sequence:
 screw(left_hand, defaultgripper, chairnut1, chairseatbolt1)&#45;&gt;action:
 screw(left_hand, defaultgripper, chairnut1, chairseatbolt1) -->
<g id="edge10" class="edge">
<title>sequence:
 screw(left_hand, defaultgripper, chairnut1, chairseatbolt1)&#45;&gt;action:
 screw(left_hand, defaultgripper, chairnut1, chairseatbolt1)</title>
<path fill="none" stroke="black" d="M1050.77,-324C1135.94,-311.12 1231.75,-296.63 1314.51,-284.12"/>
<polygon fill="black" stroke="black" points="1315.17,-287.56 1324.53,-282.6 1314.12,-280.64 1315.17,-287.56"/>
</g>
<!-- target:
 hold(defaultgripper, chairnut1) -->
<g id="node6" class="node">
<title>target:
 hold(defaultgripper, chairnut1)</title>
<ellipse fill="#ffec8b" stroke="black" cx="602.29" cy="-144" rx="202.68" ry="36"/>
<text text-anchor="middle" x="602.29" y="-149.6" font-family="Times,serif" font-size="18.00">target:</text>
<text text-anchor="middle" x="602.29" y="-129.6" font-family="Times,serif" font-size="18.00"> hold(defaultgripper, chairnut1)</text>
</g>
<!-- selector:
 pick_up(left_hand, defaultgripper, chairnut1)&#45;&gt;target:
 hold(defaultgripper, chairnut1) -->
<g id="edge5" class="edge">
<title>selector:
 pick_up(left_hand, defaultgripper, chairnut1)&#45;&gt;target:
 hold(defaultgripper, chairnut1)</title>
<path fill="none" stroke="black" d="M747.64,-216C725.61,-205.24 701.28,-193.36 678.94,-182.44"/>
<polygon fill="black" stroke="black" points="680.35,-179.23 669.83,-177.99 677.27,-185.52 680.35,-179.23"/>
</g>
<!-- sequence:
 pick_up(left_hand, defaultgripper, chairnut1) -->
<g id="node7" class="node">
<title>sequence:
 pick_up(left_hand, defaultgripper, chairnut1)</title>
<polygon fill="#ff7f24" stroke="black" points="1251.79,-180 822.79,-180 822.79,-108 1251.79,-108 1251.79,-180"/>
<text text-anchor="middle" x="1037.29" y="-149.6" font-family="Times,serif" font-size="18.00">sequence:</text>
<text text-anchor="middle" x="1037.29" y="-129.6" font-family="Times,serif" font-size="18.00"> pick_up(left_hand, defaultgripper, chairnut1)</text>
</g>
<!-- selector:
 pick_up(left_hand, defaultgripper, chairnut1)&#45;&gt;sequence:
 pick_up(left_hand, defaultgripper, chairnut1) -->
<g id="edge6" class="edge">
<title>selector:
 pick_up(left_hand, defaultgripper, chairnut1)&#45;&gt;sequence:
 pick_up(left_hand, defaultgripper, chairnut1)</title>
<path fill="none" stroke="black" d="M891.28,-216C912,-205.92 934.76,-194.86 956,-184.52"/>
<polygon fill="black" stroke="black" points="957.55,-187.67 965.01,-180.15 954.48,-181.37 957.55,-187.67"/>
</g>
<!-- precondition:
 is_empty(defaultgripper) -->
<g id="node8" class="node">
<title>precondition:
 is_empty(defaultgripper)</title>
<ellipse fill="#ffec8b" stroke="black" cx="650.29" cy="-36" rx="166.23" ry="36"/>
<text text-anchor="middle" x="650.29" y="-41.6" font-family="Times,serif" font-size="18.00">precondition:</text>
<text text-anchor="middle" x="650.29" y="-21.6" font-family="Times,serif" font-size="18.00"> is_empty(defaultgripper)</text>
</g>
<!-- sequence:
 pick_up(left_hand, defaultgripper, chairnut1)&#45;&gt;precondition:
 is_empty(defaultgripper) -->
<g id="edge7" class="edge">
<title>sequence:
 pick_up(left_hand, defaultgripper, chairnut1)&#45;&gt;precondition:
 is_empty(defaultgripper)</title>
<path fill="none" stroke="black" d="M909.5,-108C861.51,-94.85 807.39,-80.03 761.07,-67.34"/>
<polygon fill="black" stroke="black" points="761.88,-63.93 751.31,-64.67 760.03,-70.69 761.88,-63.93"/>
</g>
<!-- precondition:
 hold(left_hand, defaultgripper) -->
<g id="node9" class="node">
<title>precondition:
 hold(left_hand, defaultgripper)</title>
<ellipse fill="#ffec8b" stroke="black" cx="1037.29" cy="-36" rx="202.68" ry="36"/>
<text text-anchor="middle" x="1037.29" y="-41.6" font-family="Times,serif" font-size="18.00">precondition:</text>
<text text-anchor="middle" x="1037.29" y="-21.6" font-family="Times,serif" font-size="18.00"> hold(left_hand, defaultgripper)</text>
</g>
<!-- sequence:
 pick_up(left_hand, defaultgripper, chairnut1)&#45;&gt;precondition:
 hold(left_hand, defaultgripper) -->
<g id="edge8" class="edge">
<title>sequence:
 pick_up(left_hand, defaultgripper, chairnut1)&#45;&gt;precondition:
 hold(left_hand, defaultgripper)</title>
<path fill="none" stroke="black" d="M1037.29,-108C1037.29,-99.85 1037.29,-91.06 1037.29,-82.54"/>
<polygon fill="black" stroke="black" points="1040.79,-82.33 1037.29,-72.33 1033.79,-82.33 1040.79,-82.33"/>
</g>
<!-- action:
 pick_up(left_hand, defaultgripper, chairnut1) -->
<g id="node10" class="node">
<title>action:
 pick_up(left_hand, defaultgripper, chairnut1)</title>
<ellipse fill="lightgreen" stroke="black" cx="1545.29" cy="-36" rx="287.56" ry="36"/>
<text text-anchor="middle" x="1545.29" y="-41.6" font-family="Times,serif" font-size="18.00">action:</text>
<text text-anchor="middle" x="1545.29" y="-21.6" font-family="Times,serif" font-size="18.00"> pick_up(left_hand, defaultgripper, chairnut1)</text>
</g>
<!-- sequence:
 pick_up(left_hand, defaultgripper, chairnut1)&#45;&gt;action:
 pick_up(left_hand, defaultgripper, chairnut1) -->
<g id="edge9" class="edge">
<title>sequence:
 pick_up(left_hand, defaultgripper, chairnut1)&#45;&gt;action:
 pick_up(left_hand, defaultgripper, chairnut1)</title>
<path fill="none" stroke="black" d="M1205.04,-108C1264.87,-95.51 1331.94,-81.52 1390.62,-69.27"/>
<polygon fill="black" stroke="black" points="1391.65,-72.64 1400.72,-67.17 1390.22,-65.78 1391.65,-72.64"/>
</g>
</g>
</svg>
