<?xml version="1.0" encoding="UTF-8" standalone="no"?>
<!DOCTYPE svg PUBLIC "-//W3C//DTD SVG 1.1//EN"
 "http://www.w3.org/Graphics/SVG/1.1/DTD/svg11.dtd">
<!-- Generated by graphviz version 2.43.0 (0)
 -->
<!-- Title: pastafarianism Pages: 1 -->
<svg width="2000pt" height="188pt"
 viewBox="0.00 0.00 1999.82 188.00" xmlns="http://www.w3.org/2000/svg" xmlns:xlink="http://www.w3.org/1999/xlink">
<g id="graph0" class="graph" transform="scale(1 1) rotate(0) translate(4 184)">
<title>pastafarianism</title>
<polygon fill="white" stroke="transparent" points="-4,4 -4,-184 1995.82,-184 1995.82,4 -4,4"/>
<!-- selector -->
<g id="node1" class="node">
<title>selector</title>
<polygon fill="cyan" stroke="black" points="339.93,-154.54 339.93,-169.46 240.38,-180 99.58,-180 0.02,-169.46 0.02,-154.54 99.58,-144 240.38,-144 339.93,-154.54"/>
<text text-anchor="middle" x="169.98" y="-159.8" font-family="Times,serif" font-size="9.00">selector: insert(left_hand, clampgripper, gear2, shaft2)</text>
</g>
<!-- target -->
<g id="node2" class="node">
<title>target</title>
<ellipse fill="gray" stroke="black" cx="463.98" cy="-162" rx="106.47" ry="18"/>
<text text-anchor="middle" x="463.98" y="-159.8" font-family="Times,serif" font-size="9.00">target: is_inserted_to(gear2, shaft2)</text>
</g>
<!-- selector: insert(left_hand, clampgripper, gear2, shaft2) -->
<g id="node3" class="node">
<title>selector: insert(left_hand, clampgripper, gear2, shaft2)</title>
<ellipse fill="none" stroke="black" cx="853.98" cy="-162" rx="265.65" ry="18"/>
<text text-anchor="middle" x="853.98" y="-158.3" font-family="Times,serif" font-size="14.00">selector: insert(left_hand, clampgripper, gear2, shaft2)</text>
</g>
<!-- target: is_inserted_to(gear2, shaft2) -->
<g id="node4" class="node">
<title>target: is_inserted_to(gear2, shaft2)</title>
<ellipse fill="none" stroke="black" cx="619.98" cy="-90" rx="178.97" ry="18"/>
<text text-anchor="middle" x="619.98" y="-86.3" font-family="Times,serif" font-size="14.00">target: is_inserted_to(gear2, shaft2)</text>
</g>
<!-- selector: insert(left_hand, clampgripper, gear2, shaft2)&#45;&gt;target: is_inserted_to(gear2, shaft2) -->
<g id="edge1" class="edge">
<title>selector: insert(left_hand, clampgripper, gear2, shaft2)&#45;&gt;target: is_inserted_to(gear2, shaft2)</title>
<path fill="none" stroke="black" d="M798.23,-144.32C763.88,-134.05 719.72,-120.84 683.94,-110.14"/>
<polygon fill="black" stroke="black" points="684.68,-106.7 674.09,-107.19 682.67,-113.41 684.68,-106.7"/>
</g>
<!-- sequence: insert(left_hand, clampgripper, gear2, shaft2) -->
<g id="node6" class="node">
<title>sequence: insert(left_hand, clampgripper, gear2, shaft2)</title>
<ellipse fill="none" stroke="black" cx="1088.98" cy="-90" rx="272.15" ry="18"/>
<text text-anchor="middle" x="1088.98" y="-86.3" font-family="Times,serif" font-size="14.00">sequence: insert(left_hand, clampgripper, gear2, shaft2)</text>
</g>
<!-- selector: insert(left_hand, clampgripper, gear2, shaft2)&#45;&gt;sequence: insert(left_hand, clampgripper, gear2, shaft2) -->
<g id="edge2" class="edge">
<title>selector: insert(left_hand, clampgripper, gear2, shaft2)&#45;&gt;sequence: insert(left_hand, clampgripper, gear2, shaft2)</title>
<path fill="none" stroke="black" d="M909.97,-144.32C943.97,-134.19 987.54,-121.22 1023.18,-110.6"/>
<polygon fill="black" stroke="black" points="1024.43,-113.88 1033.01,-107.67 1022.43,-107.17 1024.43,-113.88"/>
</g>
<!-- sequence -->
<g id="node5" class="node">
<title>sequence</title>
<polygon fill="orange" stroke="black" points="1415.98,-180 1137.98,-180 1137.98,-144 1415.98,-144 1415.98,-180"/>
<text text-anchor="middle" x="1276.98" y="-159.8" font-family="Times,serif" font-size="9.00">sequence: insert(left_hand, clampgripper, gear2, shaft2)</text>
</g>
<!-- precondition: hold(left_hand, clampgripper) -->
<g id="node8" class="node">
<title>precondition: hold(left_hand, clampgripper)</title>
<ellipse fill="none" stroke="black" cx="661.98" cy="-18" rx="213.36" ry="18"/>
<text text-anchor="middle" x="661.98" y="-14.3" font-family="Times,serif" font-size="14.00">precondition: hold(left_hand, clampgripper)</text>
</g>
<!-- sequence: insert(left_hand, clampgripper, gear2, shaft2)&#45;&gt;precondition: hold(left_hand, clampgripper) -->
<g id="edge3" class="edge">
<title>sequence: insert(left_hand, clampgripper, gear2, shaft2)&#45;&gt;precondition: hold(left_hand, clampgripper)</title>
<path fill="none" stroke="black" d="M992.35,-73.16C924.59,-62.05 834.11,-47.22 764.98,-35.89"/>
<polygon fill="black" stroke="black" points="765.37,-32.4 754.94,-34.24 764.24,-39.31 765.37,-32.4"/>
</g>
<!-- precondition: hold(clampgripper, gear2) -->
<g id="node9" class="node">
<title>precondition: hold(clampgripper, gear2)</title>
<ellipse fill="none" stroke="black" cx="1088.98" cy="-18" rx="196.07" ry="18"/>
<text text-anchor="middle" x="1088.98" y="-14.3" font-family="Times,serif" font-size="14.00">precondition: hold(clampgripper, gear2)</text>
</g>
<!-- sequence: insert(left_hand, clampgripper, gear2, shaft2)&#45;&gt;precondition: hold(clampgripper, gear2) -->
<g id="edge4" class="edge">
<title>sequence: insert(left_hand, clampgripper, gear2, shaft2)&#45;&gt;precondition: hold(clampgripper, gear2)</title>
<path fill="none" stroke="black" d="M1088.98,-71.7C1088.98,-63.98 1088.98,-54.71 1088.98,-46.11"/>
<polygon fill="black" stroke="black" points="1092.48,-46.1 1088.98,-36.1 1085.48,-46.1 1092.48,-46.1"/>
</g>
<!-- action: insert(left_hand, clampgripper, gear2, shaft2) -->
<g id="node11" class="node">
<title>action: insert(left_hand, clampgripper, gear2, shaft2)</title>
<ellipse fill="none" stroke="black" cx="1559.98" cy="-18" rx="256.95" ry="18"/>
<text text-anchor="middle" x="1559.98" y="-14.3" font-family="Times,serif" font-size="14.00">action: insert(left_hand, clampgripper, gear2, shaft2)</text>
</g>
<!-- sequence: insert(left_hand, clampgripper, gear2, shaft2)&#45;&gt;action: insert(left_hand, clampgripper, gear2, shaft2) -->
<g id="edge5" class="edge">
<title>sequence: insert(left_hand, clampgripper, gear2, shaft2)&#45;&gt;action: insert(left_hand, clampgripper, gear2, shaft2)</title>
<path fill="none" stroke="black" d="M1194.09,-73.38C1268.69,-62.29 1368.78,-47.42 1445.41,-36.03"/>
<polygon fill="black" stroke="black" points="1446.21,-39.45 1455.59,-34.51 1445.18,-32.52 1446.21,-39.45"/>
</g>
<!-- precondition -->
<g id="node7" class="node">
<title>precondition</title>
<ellipse fill="gray" stroke="black" cx="1551.98" cy="-162" rx="117.56" ry="18"/>
<text text-anchor="middle" x="1551.98" y="-159.8" font-family="Times,serif" font-size="9.00">precondition: hold(clampgripper, gear2)</text>
</g>
<!-- action -->
<g id="node10" class="node">
<title>action</title>
<ellipse fill="gray" stroke="black" cx="1839.98" cy="-162" rx="151.69" ry="18"/>
<text text-anchor="middle" x="1839.98" y="-159.8" font-family="Times,serif" font-size="9.00">action: insert(left_hand, clampgripper, gear2, shaft2)</text>
</g>
</g>
</svg>
