<?xml version="1.0" encoding="UTF-8" standalone="no"?>
<!DOCTYPE svg PUBLIC "-//W3C//DTD SVG 1.1//EN"
 "http://www.w3.org/Graphics/SVG/1.1/DTD/svg11.dtd">
<!-- Generated by graphviz version 2.43.0 (0)
 -->
<!-- Title: pastafarianism Pages: 1 -->
<svg width="2784pt" height="332pt"
 viewBox="0.00 0.00 2784.06 332.00" xmlns="http://www.w3.org/2000/svg" xmlns:xlink="http://www.w3.org/1999/xlink">
<g id="graph0" class="graph" transform="scale(1 1) rotate(0) translate(4 328)">
<title>pastafarianism</title>
<polygon fill="white" stroke="transparent" points="-4,4 -4,-328 2780.06,-328 2780.06,4 -4,4"/>
<!-- selector -->
<g id="node1" class="node">
<title>selector</title>
<polygon fill="cyan" stroke="black" points="546.94,-298.54 546.94,-313.46 450.75,-324 314.71,-324 218.52,-313.46 218.52,-298.54 314.71,-288 450.75,-288 546.94,-298.54"/>
<text text-anchor="middle" x="382.73" y="-303.8" font-family="Times,serif" font-size="9.00">selector: pick_up(left_hand, clampgripper, lampbulb)</text>
</g>
<!-- target -->
<g id="node2" class="node">
<title>target</title>
<ellipse fill="gray" stroke="black" cx="674.73" cy="-306" rx="109.89" ry="18"/>
<text text-anchor="middle" x="674.73" y="-303.8" font-family="Times,serif" font-size="9.00">target: hold(clampgripper, lampbulb)</text>
</g>
<!-- selector: screw(left_hand, clampgripper, lampbulb, lampbase) -->
<g id="node3" class="node">
<title>selector: screw(left_hand, clampgripper, lampbulb, lampbase)</title>
<ellipse fill="none" stroke="black" cx="1099.73" cy="-306" rx="297.85" ry="18"/>
<text text-anchor="middle" x="1099.73" y="-302.3" font-family="Times,serif" font-size="14.00">selector: screw(left_hand, clampgripper, lampbulb, lampbase)</text>
</g>
<!-- target: is_screwed_to(lampbulb, lampbase) -->
<g id="node4" class="node">
<title>target: is_screwed_to(lampbulb, lampbase)</title>
<ellipse fill="none" stroke="black" cx="834.73" cy="-234" rx="209.86" ry="18"/>
<text text-anchor="middle" x="834.73" y="-230.3" font-family="Times,serif" font-size="14.00">target: is_screwed_to(lampbulb, lampbase)</text>
</g>
<!-- selector: screw(left_hand, clampgripper, lampbulb, lampbase)&#45;&gt;target: is_screwed_to(lampbulb, lampbase) -->
<g id="edge1" class="edge">
<title>selector: screw(left_hand, clampgripper, lampbulb, lampbase)&#45;&gt;target: is_screwed_to(lampbulb, lampbase)</title>
<path fill="none" stroke="black" d="M1036.59,-288.32C997.42,-277.97 946.98,-264.65 906.32,-253.91"/>
<polygon fill="black" stroke="black" points="907.03,-250.48 896.47,-251.31 905.24,-257.25 907.03,-250.48"/>
</g>
<!-- sequence: screw(left_hand, clampgripper, lampbulb, lampbase) -->
<g id="node6" class="node">
<title>sequence: screw(left_hand, clampgripper, lampbulb, lampbase)</title>
<ellipse fill="none" stroke="black" cx="1365.73" cy="-234" rx="303.55" ry="18"/>
<text text-anchor="middle" x="1365.73" y="-230.3" font-family="Times,serif" font-size="14.00">sequence: screw(left_hand, clampgripper, lampbulb, lampbase)</text>
</g>
<!-- selector: screw(left_hand, clampgripper, lampbulb, lampbase)&#45;&gt;sequence: screw(left_hand, clampgripper, lampbulb, lampbase) -->
<g id="edge2" class="edge">
<title>selector: screw(left_hand, clampgripper, lampbulb, lampbase)&#45;&gt;sequence: screw(left_hand, clampgripper, lampbulb, lampbase)</title>
<path fill="none" stroke="black" d="M1163.11,-288.32C1202,-278.09 1251.97,-264.94 1292.55,-254.26"/>
<polygon fill="black" stroke="black" points="1293.6,-257.6 1302.38,-251.67 1291.82,-250.83 1293.6,-257.6"/>
</g>
<!-- sequence -->
<g id="node5" class="node">
<title>sequence</title>
<polygon fill="orange" stroke="black" points="1684.23,-324 1415.23,-324 1415.23,-288 1684.23,-288 1684.23,-324"/>
<text text-anchor="middle" x="1549.73" y="-303.8" font-family="Times,serif" font-size="9.00">sequence: pick_up(left_hand, clampgripper, lampbulb)</text>
</g>
<!-- selector: change_tool(left_hand, defaultgripper, clampgripper) -->
<g id="node7" class="node">
<title>selector: change_tool(left_hand, defaultgripper, clampgripper)</title>
<ellipse fill="none" stroke="black" cx="693.73" cy="-162" rx="298.95" ry="18"/>
<text text-anchor="middle" x="693.73" y="-158.3" font-family="Times,serif" font-size="14.00">selector: change_tool(left_hand, defaultgripper, clampgripper)</text>
</g>
<!-- sequence: screw(left_hand, clampgripper, lampbulb, lampbase)&#45;&gt;selector: change_tool(left_hand, defaultgripper, clampgripper) -->
<g id="edge3" class="edge">
<title>sequence: screw(left_hand, clampgripper, lampbulb, lampbase)&#45;&gt;selector: change_tool(left_hand, defaultgripper, clampgripper)</title>
<path fill="none" stroke="black" d="M1222.81,-218.11C1112.17,-206.59 959.26,-190.66 846.27,-178.89"/>
<polygon fill="black" stroke="black" points="846.46,-175.39 836.15,-177.84 845.74,-182.35 846.46,-175.39"/>
</g>
<!-- selector: pick_up(left_hand, clampgripper, lampbulb) -->
<g id="node15" class="node">
<title>selector: pick_up(left_hand, clampgripper, lampbulb)</title>
<ellipse fill="none" stroke="black" cx="1365.73" cy="-162" rx="254.55" ry="18"/>
<text text-anchor="middle" x="1365.73" y="-158.3" font-family="Times,serif" font-size="14.00">selector: pick_up(left_hand, clampgripper, lampbulb)</text>
</g>
<!-- sequence: screw(left_hand, clampgripper, lampbulb, lampbase)&#45;&gt;selector: pick_up(left_hand, clampgripper, lampbulb) -->
<g id="edge9" class="edge">
<title>sequence: screw(left_hand, clampgripper, lampbulb, lampbase)&#45;&gt;selector: pick_up(left_hand, clampgripper, lampbulb)</title>
<path fill="none" stroke="black" d="M1365.73,-215.7C1365.73,-207.98 1365.73,-198.71 1365.73,-190.11"/>
<polygon fill="black" stroke="black" points="1369.23,-190.1 1365.73,-180.1 1362.23,-190.1 1369.23,-190.1"/>
</g>
<!-- action: screw(left_hand, clampgripper, lampbulb, lampbase) -->
<g id="node21" class="node">
<title>action: screw(left_hand, clampgripper, lampbulb, lampbase)</title>
<ellipse fill="none" stroke="black" cx="1926.73" cy="-162" rx="288.65" ry="18"/>
<text text-anchor="middle" x="1926.73" y="-158.3" font-family="Times,serif" font-size="14.00">action: screw(left_hand, clampgripper, lampbulb, lampbase)</text>
</g>
<!-- sequence: screw(left_hand, clampgripper, lampbulb, lampbase)&#45;&gt;action: screw(left_hand, clampgripper, lampbulb, lampbase) -->
<g id="edge15" class="edge">
<title>sequence: screw(left_hand, clampgripper, lampbulb, lampbase)&#45;&gt;action: screw(left_hand, clampgripper, lampbulb, lampbase)</title>
<path fill="none" stroke="black" d="M1489.54,-217.55C1579.67,-206.31 1701.58,-191.09 1793.77,-179.59"/>
<polygon fill="black" stroke="black" points="1794.23,-183.06 1803.72,-178.35 1793.37,-176.11 1794.23,-183.06"/>
</g>
<!-- target: hold(left_hand, clampgripper) -->
<g id="node8" class="node">
<title>target: hold(left_hand, clampgripper)</title>
<ellipse fill="none" stroke="black" cx="186.73" cy="-90" rx="183.07" ry="18"/>
<text text-anchor="middle" x="186.73" y="-86.3" font-family="Times,serif" font-size="14.00">target: hold(left_hand, clampgripper)</text>
</g>
<!-- selector: change_tool(left_hand, defaultgripper, clampgripper)&#45;&gt;target: hold(left_hand, clampgripper) -->
<g id="edge4" class="edge">
<title>selector: change_tool(left_hand, defaultgripper, clampgripper)&#45;&gt;target: hold(left_hand, clampgripper)</title>
<path fill="none" stroke="black" d="M580.27,-145.33C496.12,-133.72 381.97,-117.96 298.28,-106.4"/>
<polygon fill="black" stroke="black" points="298.61,-102.91 288.23,-105.01 297.65,-109.85 298.61,-102.91"/>
</g>
<!-- sequence: change_tool(left_hand, defaultgripper, clampgripper) -->
<g id="node9" class="node">
<title>sequence: change_tool(left_hand, defaultgripper, clampgripper)</title>
<ellipse fill="none" stroke="black" cx="693.73" cy="-90" rx="305.45" ry="18"/>
<text text-anchor="middle" x="693.73" y="-86.3" font-family="Times,serif" font-size="14.00">sequence: change_tool(left_hand, defaultgripper, clampgripper)</text>
</g>
<!-- selector: change_tool(left_hand, defaultgripper, clampgripper)&#45;&gt;sequence: change_tool(left_hand, defaultgripper, clampgripper) -->
<g id="edge5" class="edge">
<title>selector: change_tool(left_hand, defaultgripper, clampgripper)&#45;&gt;sequence: change_tool(left_hand, defaultgripper, clampgripper)</title>
<path fill="none" stroke="black" d="M693.73,-143.7C693.73,-135.98 693.73,-126.71 693.73,-118.11"/>
<polygon fill="black" stroke="black" points="697.23,-118.1 693.73,-108.1 690.23,-118.1 697.23,-118.1"/>
</g>
<!-- precondition: hold(left_hand, defaultgripper) -->
<g id="node11" class="node">
<title>precondition: hold(left_hand, defaultgripper)</title>
<ellipse fill="none" stroke="black" cx="217.73" cy="-18" rx="217.96" ry="18"/>
<text text-anchor="middle" x="217.73" y="-14.3" font-family="Times,serif" font-size="14.00">precondition: hold(left_hand, defaultgripper)</text>
</g>
<!-- sequence: change_tool(left_hand, defaultgripper, clampgripper)&#45;&gt;precondition: hold(left_hand, defaultgripper) -->
<g id="edge6" class="edge">
<title>sequence: change_tool(left_hand, defaultgripper, clampgripper)&#45;&gt;precondition: hold(left_hand, defaultgripper)</title>
<path fill="none" stroke="black" d="M585.72,-73.12C509.33,-61.88 407.17,-46.86 329.87,-35.49"/>
<polygon fill="black" stroke="black" points="330.01,-31.97 319.61,-33.98 329,-38.9 330.01,-31.97"/>
</g>
<!-- precondition: is_empty(defaultgripper) -->
<g id="node12" class="node">
<title>precondition: is_empty(defaultgripper)</title>
<ellipse fill="none" stroke="black" cx="643.73" cy="-18" rx="190.37" ry="18"/>
<text text-anchor="middle" x="643.73" y="-14.3" font-family="Times,serif" font-size="14.00">precondition: is_empty(defaultgripper)</text>
</g>
<!-- sequence: change_tool(left_hand, defaultgripper, clampgripper)&#45;&gt;precondition: is_empty(defaultgripper) -->
<g id="edge7" class="edge">
<title>sequence: change_tool(left_hand, defaultgripper, clampgripper)&#45;&gt;precondition: is_empty(defaultgripper)</title>
<path fill="none" stroke="black" d="M681.37,-71.7C675.5,-63.47 668.36,-53.48 661.89,-44.42"/>
<polygon fill="black" stroke="black" points="664.61,-42.21 655.95,-36.1 658.91,-46.28 664.61,-42.21"/>
</g>
<!-- action: change_tool(left_hand, defaultgripper, clampgripper) -->
<g id="node14" class="node">
<title>action: change_tool(left_hand, defaultgripper, clampgripper)</title>
<ellipse fill="none" stroke="black" cx="1141.73" cy="-18" rx="289.75" ry="18"/>
<text text-anchor="middle" x="1141.73" y="-14.3" font-family="Times,serif" font-size="14.00">action: change_tool(left_hand, defaultgripper, clampgripper)</text>
</g>
<!-- sequence: change_tool(left_hand, defaultgripper, clampgripper)&#45;&gt;action: change_tool(left_hand, defaultgripper, clampgripper) -->
<g id="edge8" class="edge">
<title>sequence: change_tool(left_hand, defaultgripper, clampgripper)&#45;&gt;action: change_tool(left_hand, defaultgripper, clampgripper)</title>
<path fill="none" stroke="black" d="M795.95,-73.03C865.75,-62.12 958.22,-47.67 1029.97,-36.46"/>
<polygon fill="black" stroke="black" points="1030.61,-39.9 1039.95,-34.9 1029.53,-32.99 1030.61,-39.9"/>
</g>
<!-- precondition -->
<g id="node10" class="node">
<title>precondition</title>
<ellipse fill="gray" stroke="black" cx="1813.73" cy="-306" rx="111.36" ry="18"/>
<text text-anchor="middle" x="1813.73" y="-303.8" font-family="Times,serif" font-size="9.00">precondition: is_empty(clampgripper)</text>
</g>
<!-- action -->
<g id="node13" class="node">
<title>action</title>
<ellipse fill="gray" stroke="black" cx="2113.73" cy="-306" rx="170.14" ry="18"/>
<text text-anchor="middle" x="2113.73" y="-303.8" font-family="Times,serif" font-size="9.00">action: screw(left_hand, clampgripper, lampbulb, lampbase)</text>
</g>
<!-- target: hold(clampgripper, lampbulb) -->
<g id="node16" class="node">
<title>target: hold(clampgripper, lampbulb)</title>
<ellipse fill="none" stroke="black" cx="1365.73" cy="-90" rx="182.77" ry="18"/>
<text text-anchor="middle" x="1365.73" y="-86.3" font-family="Times,serif" font-size="14.00">target: hold(clampgripper, lampbulb)</text>
</g>
<!-- selector: pick_up(left_hand, clampgripper, lampbulb)&#45;&gt;target: hold(clampgripper, lampbulb) -->
<g id="edge10" class="edge">
<title>selector: pick_up(left_hand, clampgripper, lampbulb)&#45;&gt;target: hold(clampgripper, lampbulb)</title>
<path fill="none" stroke="black" d="M1365.73,-143.7C1365.73,-135.98 1365.73,-126.71 1365.73,-118.11"/>
<polygon fill="black" stroke="black" points="1369.23,-118.1 1365.73,-108.1 1362.23,-118.1 1369.23,-118.1"/>
</g>
<!-- sequence: pick_up(left_hand, clampgripper, lampbulb) -->
<g id="node17" class="node">
<title>sequence: pick_up(left_hand, clampgripper, lampbulb)</title>
<ellipse fill="none" stroke="black" cx="2028.73" cy="-90" rx="261.05" ry="18"/>
<text text-anchor="middle" x="2028.73" y="-86.3" font-family="Times,serif" font-size="14.00">sequence: pick_up(left_hand, clampgripper, lampbulb)</text>
</g>
<!-- selector: pick_up(left_hand, clampgripper, lampbulb)&#45;&gt;sequence: pick_up(left_hand, clampgripper, lampbulb) -->
<g id="edge11" class="edge">
<title>selector: pick_up(left_hand, clampgripper, lampbulb)&#45;&gt;sequence: pick_up(left_hand, clampgripper, lampbulb)</title>
<path fill="none" stroke="black" d="M1501.1,-146.71C1611.94,-135.01 1768.47,-118.48 1882.23,-106.47"/>
<polygon fill="black" stroke="black" points="1882.83,-109.92 1892.41,-105.39 1882.1,-102.96 1882.83,-109.92"/>
</g>
<!-- precondition: hold(left_hand, clampgripper) -->
<g id="node18" class="node">
<title>precondition: hold(left_hand, clampgripper)</title>
<ellipse fill="none" stroke="black" cx="1662.73" cy="-18" rx="213.36" ry="18"/>
<text text-anchor="middle" x="1662.73" y="-14.3" font-family="Times,serif" font-size="14.00">precondition: hold(left_hand, clampgripper)</text>
</g>
<!-- sequence: pick_up(left_hand, clampgripper, lampbulb)&#45;&gt;precondition: hold(left_hand, clampgripper) -->
<g id="edge12" class="edge">
<title>sequence: pick_up(left_hand, clampgripper, lampbulb)&#45;&gt;precondition: hold(left_hand, clampgripper)</title>
<path fill="none" stroke="black" d="M1944.76,-72.94C1888,-62.09 1813.06,-47.75 1754.69,-36.59"/>
<polygon fill="black" stroke="black" points="1755.21,-33.12 1744.73,-34.68 1753.9,-40 1755.21,-33.12"/>
</g>
<!-- precondition: is_empty(clampgripper) -->
<g id="node19" class="node">
<title>precondition: is_empty(clampgripper)</title>
<ellipse fill="none" stroke="black" cx="2079.73" cy="-18" rx="185.77" ry="18"/>
<text text-anchor="middle" x="2079.73" y="-14.3" font-family="Times,serif" font-size="14.00">precondition: is_empty(clampgripper)</text>
</g>
<!-- sequence: pick_up(left_hand, clampgripper, lampbulb)&#45;&gt;precondition: is_empty(clampgripper) -->
<g id="edge13" class="edge">
<title>sequence: pick_up(left_hand, clampgripper, lampbulb)&#45;&gt;precondition: is_empty(clampgripper)</title>
<path fill="none" stroke="black" d="M2041.34,-71.7C2047.33,-63.47 2054.61,-53.48 2061.21,-44.42"/>
<polygon fill="black" stroke="black" points="2064.21,-46.25 2067.27,-36.1 2058.55,-42.13 2064.21,-46.25"/>
</g>
<!-- action: pick_up(left_hand, clampgripper, lampbulb) -->
<g id="node20" class="node">
<title>action: pick_up(left_hand, clampgripper, lampbulb)</title>
<ellipse fill="none" stroke="black" cx="2529.73" cy="-18" rx="246.16" ry="18"/>
<text text-anchor="middle" x="2529.73" y="-14.3" font-family="Times,serif" font-size="14.00">action: pick_up(left_hand, clampgripper, lampbulb)</text>
</g>
<!-- sequence: pick_up(left_hand, clampgripper, lampbulb)&#45;&gt;action: pick_up(left_hand, clampgripper, lampbulb) -->
<g id="edge14" class="edge">
<title>sequence: pick_up(left_hand, clampgripper, lampbulb)&#45;&gt;action: pick_up(left_hand, clampgripper, lampbulb)</title>
<path fill="none" stroke="black" d="M2138.68,-73.64C2219.22,-62.38 2328.43,-47.13 2410.97,-35.59"/>
<polygon fill="black" stroke="black" points="2411.48,-39.06 2420.9,-34.21 2410.51,-32.12 2411.48,-39.06"/>
</g>
</g>
</svg>
