<?xml version="1.0" encoding="UTF-8" standalone="no"?>
<!DOCTYPE svg PUBLIC "-//W3C//DTD SVG 1.1//EN"
 "http://www.w3.org/Graphics/SVG/1.1/DTD/svg11.dtd">
<!-- Generated by graphviz version 2.43.0 (0)
 -->
<!-- Title: pastafarianism Pages: 1 -->
<svg width="4837pt" height="716pt"
 viewBox="0.00 0.00 4836.85 715.95" xmlns="http://www.w3.org/2000/svg" xmlns:xlink="http://www.w3.org/1999/xlink">
<g id="graph0" class="graph" transform="scale(1 1) rotate(0) translate(4 711.95)">
<title>pastafarianism</title>
<polygon fill="white" stroke="transparent" points="-4,4 -4,-711.95 4832.85,-711.95 4832.85,4 -4,4"/>
<!-- selector:
 insert(left_hand, clampgripper, shaft1, gearbase_hole1) -->
<g id="node1" class="node">
<title>selector:
 insert(left_hand, clampgripper, shaft1, gearbase_hole1)</title>
<polygon fill="#8deeee" stroke="black" points="2768.43,-655.9 2768.43,-686.53 2533.47,-708.19 2201.18,-708.19 1966.22,-686.53 1966.22,-655.9 2201.18,-634.24 2533.47,-634.24 2768.43,-655.9"/>
<text text-anchor="middle" x="2367.32" y="-676.82" font-family="Times,serif" font-size="18.00">selector:</text>
<text text-anchor="middle" x="2367.32" y="-656.82" font-family="Times,serif" font-size="18.00"> insert(left_hand, clampgripper, shaft1, gearbase_hole1)</text>
</g>
<!-- target:
 is_inserted_to(shaft1, gearbase_hole1) -->
<g id="node2" class="node">
<title>target:
 is_inserted_to(shaft1, gearbase_hole1)</title>
<ellipse fill="#ffec8b" stroke="black" cx="2096.32" cy="-564.54" rx="261.76" ry="33.88"/>
<text text-anchor="middle" x="2096.32" y="-570.14" font-family="Times,serif" font-size="18.00">target:</text>
<text text-anchor="middle" x="2096.32" y="-550.14" font-family="Times,serif" font-size="18.00"> is_inserted_to(shaft1, gearbase_hole1)</text>
</g>
<!-- selector:
 insert(left_hand, clampgripper, shaft1, gearbase_hole1)&#45;&gt;target:
 is_inserted_to(shaft1, gearbase_hole1) -->
<g id="edge1" class="edge">
<title>selector:
 insert(left_hand, clampgripper, shaft1, gearbase_hole1)&#45;&gt;target:
 is_inserted_to(shaft1, gearbase_hole1)</title>
<path fill="none" stroke="black" d="M2274.44,-634.34C2246.08,-623.39 2214.95,-611.36 2186.76,-600.47"/>
<polygon fill="black" stroke="black" points="2187.91,-597.16 2177.32,-596.82 2185.39,-603.69 2187.91,-597.16"/>
</g>
<!-- sequence:
 insert(left_hand, clampgripper, shaft1, gearbase_hole1) -->
<g id="node3" class="node">
<title>sequence:
 insert(left_hand, clampgripper, shaft1, gearbase_hole1)</title>
<polygon fill="#ff7f24" stroke="black" points="2900.32,-588.54 2376.32,-588.54 2376.32,-540.54 2900.32,-540.54 2900.32,-588.54"/>
<text text-anchor="middle" x="2638.32" y="-570.14" font-family="Times,serif" font-size="18.00">sequence:</text>
<text text-anchor="middle" x="2638.32" y="-550.14" font-family="Times,serif" font-size="18.00"> insert(left_hand, clampgripper, shaft1, gearbase_hole1)</text>
</g>
<!-- selector:
 insert(left_hand, clampgripper, shaft1, gearbase_hole1)&#45;&gt;sequence:
 insert(left_hand, clampgripper, shaft1, gearbase_hole1) -->
<g id="edge2" class="edge">
<title>selector:
 insert(left_hand, clampgripper, shaft1, gearbase_hole1)&#45;&gt;sequence:
 insert(left_hand, clampgripper, shaft1, gearbase_hole1)</title>
<path fill="none" stroke="black" d="M2460.21,-634.34C2495.91,-620.55 2536,-605.06 2569.1,-592.28"/>
<polygon fill="black" stroke="black" points="2570.62,-595.44 2578.68,-588.58 2568.1,-588.91 2570.62,-595.44"/>
</g>
<!-- selector:
 change_tool(left_hand, outwardgripper, clampgripper) -->
<g id="node4" class="node">
<title>selector:
 change_tool(left_hand, outwardgripper, clampgripper)</title>
<polygon fill="#8deeee" stroke="black" points="1462.09,-442.54 1462.09,-473.18 1232.01,-494.84 906.64,-494.84 676.56,-473.18 676.56,-442.54 906.64,-420.88 1232.01,-420.88 1462.09,-442.54"/>
<text text-anchor="middle" x="1069.32" y="-463.46" font-family="Times,serif" font-size="18.00">selector:</text>
<text text-anchor="middle" x="1069.32" y="-443.46" font-family="Times,serif" font-size="18.00"> change_tool(left_hand, outwardgripper, clampgripper)</text>
</g>
<!-- sequence:
 insert(left_hand, clampgripper, shaft1, gearbase_hole1)&#45;&gt;selector:
 change_tool(left_hand, outwardgripper, clampgripper) -->
<g id="edge3" class="edge">
<title>sequence:
 insert(left_hand, clampgripper, shaft1, gearbase_hole1)&#45;&gt;selector:
 change_tool(left_hand, outwardgripper, clampgripper)</title>
<path fill="none" stroke="black" d="M2462.84,-540.5C2431.09,-536.82 2398.25,-533.33 2367.32,-530.6 2276.44,-522.57 1782.53,-496.06 1430.98,-477.62"/>
<polygon fill="black" stroke="black" points="1431.05,-474.12 1420.88,-477.1 1430.68,-481.11 1431.05,-474.12"/>
</g>
<!-- selector:
 pick_up(left_hand, clampgripper, shaft1) -->
<g id="node15" class="node">
<title>selector:
 pick_up(left_hand, clampgripper, shaft1)</title>
<polygon fill="#8deeee" stroke="black" points="2361.28,-442.54 2361.28,-473.18 2186.74,-494.84 1939.91,-494.84 1765.37,-473.18 1765.37,-442.54 1939.91,-420.88 2186.74,-420.88 2361.28,-442.54"/>
<text text-anchor="middle" x="2063.32" y="-463.46" font-family="Times,serif" font-size="18.00">selector:</text>
<text text-anchor="middle" x="2063.32" y="-443.46" font-family="Times,serif" font-size="18.00"> pick_up(left_hand, clampgripper, shaft1)</text>
</g>
<!-- sequence:
 insert(left_hand, clampgripper, shaft1, gearbase_hole1)&#45;&gt;selector:
 pick_up(left_hand, clampgripper, shaft1) -->
<g id="edge14" class="edge">
<title>sequence:
 insert(left_hand, clampgripper, shaft1, gearbase_hole1)&#45;&gt;selector:
 pick_up(left_hand, clampgripper, shaft1)</title>
<path fill="none" stroke="black" d="M2511.78,-540.5C2432.35,-526.04 2328.72,-507.17 2241.09,-491.22"/>
<polygon fill="black" stroke="black" points="2241.5,-487.74 2231.04,-489.39 2240.25,-494.63 2241.5,-487.74"/>
</g>
<!-- precondition:
 can_manipulate(clampgripper, shaft1) -->
<g id="node21" class="node">
<title>precondition:
 can_manipulate(clampgripper, shaft1)</title>
<ellipse fill="#ffec8b" stroke="black" cx="2638.32" cy="-457.86" rx="258.6" ry="33.88"/>
<text text-anchor="middle" x="2638.32" y="-463.46" font-family="Times,serif" font-size="18.00">precondition:</text>
<text text-anchor="middle" x="2638.32" y="-443.46" font-family="Times,serif" font-size="18.00"> can_manipulate(clampgripper, shaft1)</text>
</g>
<!-- sequence:
 insert(left_hand, clampgripper, shaft1, gearbase_hole1)&#45;&gt;precondition:
 can_manipulate(clampgripper, shaft1) -->
<g id="edge20" class="edge">
<title>sequence:
 insert(left_hand, clampgripper, shaft1, gearbase_hole1)&#45;&gt;precondition:
 can_manipulate(clampgripper, shaft1)</title>
<path fill="none" stroke="black" d="M2638.32,-540.31C2638.32,-529.09 2638.32,-515.26 2638.32,-502.2"/>
<polygon fill="black" stroke="black" points="2641.82,-501.95 2638.32,-491.95 2634.82,-501.95 2641.82,-501.95"/>
</g>
<!-- &quot;selector:\n insert(left_hand, clampgripper, shaft1, gearbase_hole1)&quot;* -->
<g id="node22" class="node">
<title>&quot;selector:\n insert(left_hand, clampgripper, shaft1, gearbase_hole1)&quot;*</title>
<polygon fill="#8deeee" stroke="black" points="3744.98,-442.54 3744.98,-473.18 3502.08,-494.84 3158.57,-494.84 2915.67,-473.18 2915.67,-442.54 3158.57,-420.88 3502.08,-420.88 3744.98,-442.54"/>
<text text-anchor="middle" x="3330.32" y="-463.46" font-family="Times,serif" font-size="18.00">&quot;selector:</text>
<text text-anchor="middle" x="3330.32" y="-443.46" font-family="Times,serif" font-size="18.00"> insert(left_hand, clampgripper, shaft1, gearbase_hole1)&quot;*</text>
</g>
<!-- sequence:
 insert(left_hand, clampgripper, shaft1, gearbase_hole1)&#45;&gt;&quot;selector:\n insert(left_hand, clampgripper, shaft1, gearbase_hole1)&quot;* -->
<g id="edge21" class="edge">
<title>sequence:
 insert(left_hand, clampgripper, shaft1, gearbase_hole1)&#45;&gt;&quot;selector:\n insert(left_hand, clampgripper, shaft1, gearbase_hole1)&quot;*</title>
<path fill="none" stroke="black" d="M2790.61,-540.5C2883.33,-526.48 3003.42,-508.31 3106.78,-492.68"/>
<polygon fill="black" stroke="black" points="3107.36,-496.13 3116.72,-491.17 3106.31,-489.21 3107.36,-496.13"/>
</g>
<!-- &quot;action:\n insert(left_hand, clampgripper, shaft1, gearbase_hole1)&quot;* -->
<g id="node28" class="node">
<title>&quot;action:\n insert(left_hand, clampgripper, shaft1, gearbase_hole1)&quot;*</title>
<ellipse fill="lightgreen" stroke="black" cx="4146.32" cy="-457.86" rx="383" ry="33.88"/>
<text text-anchor="middle" x="4146.32" y="-463.46" font-family="Times,serif" font-size="18.00">&quot;action:</text>
<text text-anchor="middle" x="4146.32" y="-443.46" font-family="Times,serif" font-size="18.00"> insert(left_hand, clampgripper, shaft1, gearbase_hole1)&quot;*</text>
</g>
<!-- sequence:
 insert(left_hand, clampgripper, shaft1, gearbase_hole1)&#45;&gt;&quot;action:\n insert(left_hand, clampgripper, shaft1, gearbase_hole1)&quot;* -->
<g id="edge27" class="edge">
<title>sequence:
 insert(left_hand, clampgripper, shaft1, gearbase_hole1)&#45;&gt;&quot;action:\n insert(left_hand, clampgripper, shaft1, gearbase_hole1)&quot;*</title>
<path fill="none" stroke="black" d="M2900.6,-549.5C3126.86,-536.88 3462.3,-516.92 3754.32,-494.6 3795.33,-491.46 3838.71,-487.83 3881.1,-484.1"/>
<polygon fill="black" stroke="black" points="3881.62,-487.57 3891.27,-483.2 3881,-480.59 3881.62,-487.57"/>
</g>
<!-- target:
 hold(left_hand, clampgripper) -->
<g id="node5" class="node">
<title>target:
 hold(left_hand, clampgripper)</title>
<ellipse fill="#ffec8b" stroke="black" cx="587.32" cy="-351.18" rx="207.36" ry="33.88"/>
<text text-anchor="middle" x="587.32" y="-356.78" font-family="Times,serif" font-size="18.00">target:</text>
<text text-anchor="middle" x="587.32" y="-336.78" font-family="Times,serif" font-size="18.00"> hold(left_hand, clampgripper)</text>
</g>
<!-- selector:
 change_tool(left_hand, outwardgripper, clampgripper)&#45;&gt;target:
 hold(left_hand, clampgripper) -->
<g id="edge4" class="edge">
<title>selector:
 change_tool(left_hand, outwardgripper, clampgripper)&#45;&gt;target:
 hold(left_hand, clampgripper)</title>
<path fill="none" stroke="black" d="M904.46,-421.05C844.03,-407.93 776.47,-393.26 719.3,-380.84"/>
<polygon fill="black" stroke="black" points="720,-377.41 709.48,-378.71 718.51,-384.25 720,-377.41"/>
</g>
<!-- sequence:
 change_tool(left_hand, outwardgripper, clampgripper) -->
<g id="node6" class="node">
<title>sequence:
 change_tool(left_hand, outwardgripper, clampgripper)</title>
<polygon fill="#ff7f24" stroke="black" points="1325.82,-375.18 812.82,-375.18 812.82,-327.18 1325.82,-327.18 1325.82,-375.18"/>
<text text-anchor="middle" x="1069.32" y="-356.78" font-family="Times,serif" font-size="18.00">sequence:</text>
<text text-anchor="middle" x="1069.32" y="-336.78" font-family="Times,serif" font-size="18.00"> change_tool(left_hand, outwardgripper, clampgripper)</text>
</g>
<!-- selector:
 change_tool(left_hand, outwardgripper, clampgripper)&#45;&gt;sequence:
 change_tool(left_hand, outwardgripper, clampgripper) -->
<g id="edge5" class="edge">
<title>selector:
 change_tool(left_hand, outwardgripper, clampgripper)&#45;&gt;sequence:
 change_tool(left_hand, outwardgripper, clampgripper)</title>
<path fill="none" stroke="black" d="M1069.32,-420.84C1069.32,-409.45 1069.32,-396.92 1069.32,-385.72"/>
<polygon fill="black" stroke="black" points="1072.82,-385.47 1069.32,-375.47 1065.82,-385.47 1072.82,-385.47"/>
</g>
<!-- precondition:
 hold(left_hand, outwardgripper) -->
<g id="node7" class="node">
<title>precondition:
 hold(left_hand, outwardgripper)</title>
<ellipse fill="#ffec8b" stroke="black" cx="221.32" cy="-244.5" rx="221.15" ry="33.88"/>
<text text-anchor="middle" x="221.32" y="-250.1" font-family="Times,serif" font-size="18.00">precondition:</text>
<text text-anchor="middle" x="221.32" y="-230.1" font-family="Times,serif" font-size="18.00"> hold(left_hand, outwardgripper)</text>
</g>
<!-- sequence:
 change_tool(left_hand, outwardgripper, clampgripper)&#45;&gt;precondition:
 hold(left_hand, outwardgripper) -->
<g id="edge6" class="edge">
<title>sequence:
 change_tool(left_hand, outwardgripper, clampgripper)&#45;&gt;precondition:
 hold(left_hand, outwardgripper)</title>
<path fill="none" stroke="black" d="M887.66,-327.16C859.44,-323.74 830.61,-320.32 803.32,-317.24 647.06,-299.58 607.3,-301.32 451.32,-281.24 428.08,-278.25 403.55,-274.78 379.53,-271.2"/>
<polygon fill="black" stroke="black" points="380.04,-267.73 369.63,-269.71 379,-274.66 380.04,-267.73"/>
</g>
<!-- selector:
 put_down(left_hand, outwardgripper, gear2) -->
<g id="node8" class="node">
<title>selector:
 put_down(left_hand, outwardgripper, gear2)</title>
<polygon fill="#8deeee" stroke="black" points="1107.82,-229.19 1107.82,-259.82 918.32,-281.48 650.33,-281.48 460.82,-259.82 460.82,-229.19 650.33,-207.53 918.32,-207.53 1107.82,-229.19"/>
<text text-anchor="middle" x="784.32" y="-250.1" font-family="Times,serif" font-size="18.00">selector:</text>
<text text-anchor="middle" x="784.32" y="-230.1" font-family="Times,serif" font-size="18.00"> put_down(left_hand, outwardgripper, gear2)</text>
</g>
<!-- sequence:
 change_tool(left_hand, outwardgripper, clampgripper)&#45;&gt;selector:
 put_down(left_hand, outwardgripper, gear2) -->
<g id="edge7" class="edge">
<title>sequence:
 change_tool(left_hand, outwardgripper, clampgripper)&#45;&gt;selector:
 put_down(left_hand, outwardgripper, gear2)</title>
<path fill="none" stroke="black" d="M1006.43,-327.08C972.73,-314.7 930.28,-299.11 891.55,-284.89"/>
<polygon fill="black" stroke="black" points="892.38,-281.46 881.79,-281.3 889.97,-288.03 892.38,-281.46"/>
</g>
<!-- action:
 change_tool(left_hand, outwardgripper, clampgripper) -->
<g id="node14" class="node">
<title>action:
 change_tool(left_hand, outwardgripper, clampgripper)</title>
<ellipse fill="lightgreen" stroke="black" cx="1488.32" cy="-244.5" rx="362.99" ry="33.88"/>
<text text-anchor="middle" x="1488.32" y="-250.1" font-family="Times,serif" font-size="18.00">action:</text>
<text text-anchor="middle" x="1488.32" y="-230.1" font-family="Times,serif" font-size="18.00"> change_tool(left_hand, outwardgripper, clampgripper)</text>
</g>
<!-- sequence:
 change_tool(left_hand, outwardgripper, clampgripper)&#45;&gt;action:
 change_tool(left_hand, outwardgripper, clampgripper) -->
<g id="edge13" class="edge">
<title>sequence:
 change_tool(left_hand, outwardgripper, clampgripper)&#45;&gt;action:
 change_tool(left_hand, outwardgripper, clampgripper)</title>
<path fill="none" stroke="black" d="M1161.53,-327.14C1218.14,-313 1291.6,-294.65 1354.53,-278.93"/>
<polygon fill="black" stroke="black" points="1355.69,-282.25 1364.54,-276.43 1353.99,-275.46 1355.69,-282.25"/>
</g>
<!-- target:
 is_empty(outwardgripper) -->
<g id="node9" class="node">
<title>target:
 is_empty(outwardgripper)</title>
<ellipse fill="#ffec8b" stroke="black" cx="578.32" cy="-137.82" rx="183.28" ry="33.88"/>
<text text-anchor="middle" x="578.32" y="-143.42" font-family="Times,serif" font-size="18.00">target:</text>
<text text-anchor="middle" x="578.32" y="-123.42" font-family="Times,serif" font-size="18.00"> is_empty(outwardgripper)</text>
</g>
<!-- selector:
 put_down(left_hand, outwardgripper, gear2)&#45;&gt;target:
 is_empty(outwardgripper) -->
<g id="edge8" class="edge">
<title>selector:
 put_down(left_hand, outwardgripper, gear2)&#45;&gt;target:
 is_empty(outwardgripper)</title>
<path fill="none" stroke="black" d="M713.72,-207.62C692.72,-196.95 669.72,-185.26 648.73,-174.6"/>
<polygon fill="black" stroke="black" points="650.06,-171.35 639.55,-169.94 646.88,-177.59 650.06,-171.35"/>
</g>
<!-- sequence:
 put_down(left_hand, outwardgripper, gear2) -->
<g id="node10" class="node">
<title>sequence:
 put_down(left_hand, outwardgripper, gear2)</title>
<polygon fill="#ff7f24" stroke="black" points="1202.82,-161.82 779.82,-161.82 779.82,-113.82 1202.82,-113.82 1202.82,-161.82"/>
<text text-anchor="middle" x="991.32" y="-143.42" font-family="Times,serif" font-size="18.00">sequence:</text>
<text text-anchor="middle" x="991.32" y="-123.42" font-family="Times,serif" font-size="18.00"> put_down(left_hand, outwardgripper, gear2)</text>
</g>
<!-- selector:
 put_down(left_hand, outwardgripper, gear2)&#45;&gt;sequence:
 put_down(left_hand, outwardgripper, gear2) -->
<g id="edge9" class="edge">
<title>selector:
 put_down(left_hand, outwardgripper, gear2)&#45;&gt;sequence:
 put_down(left_hand, outwardgripper, gear2)</title>
<path fill="none" stroke="black" d="M855.27,-207.62C881.96,-194.13 911.85,-179.01 936.81,-166.39"/>
<polygon fill="black" stroke="black" points="938.42,-169.5 945.77,-161.86 935.27,-163.25 938.42,-169.5"/>
</g>
<!-- &quot;precondition:\n hold(left_hand, outwardgripper)&quot;* -->
<g id="node11" class="node">
<title>&quot;precondition:\n hold(left_hand, outwardgripper)&quot;*</title>
<ellipse fill="#ffec8b" stroke="black" cx="543.32" cy="-33.94" rx="233.19" ry="33.88"/>
<text text-anchor="middle" x="543.32" y="-39.54" font-family="Times,serif" font-size="18.00">&quot;precondition:</text>
<text text-anchor="middle" x="543.32" y="-19.54" font-family="Times,serif" font-size="18.00"> hold(left_hand, outwardgripper)&quot;*</text>
</g>
<!-- sequence:
 put_down(left_hand, outwardgripper, gear2)&#45;&gt;&quot;precondition:\n hold(left_hand, outwardgripper)&quot;* -->
<g id="edge10" class="edge">
<title>sequence:
 put_down(left_hand, outwardgripper, gear2)&#45;&gt;&quot;precondition:\n hold(left_hand, outwardgripper)&quot;*</title>
<path fill="none" stroke="black" d="M889.95,-113.77C826.72,-99.39 744.65,-80.73 676.25,-65.17"/>
<polygon fill="black" stroke="black" points="676.78,-61.7 666.26,-62.9 675.23,-68.53 676.78,-61.7"/>
</g>
<!-- precondition:
 hold(outwardgripper, gear2) -->
<g id="node12" class="node">
<title>precondition:
 hold(outwardgripper, gear2)</title>
<ellipse fill="#ffec8b" stroke="black" cx="991.32" cy="-33.94" rx="196.65" ry="33.88"/>
<text text-anchor="middle" x="991.32" y="-39.54" font-family="Times,serif" font-size="18.00">precondition:</text>
<text text-anchor="middle" x="991.32" y="-19.54" font-family="Times,serif" font-size="18.00"> hold(outwardgripper, gear2)</text>
</g>
<!-- sequence:
 put_down(left_hand, outwardgripper, gear2)&#45;&gt;precondition:
 hold(outwardgripper, gear2) -->
<g id="edge11" class="edge">
<title>sequence:
 put_down(left_hand, outwardgripper, gear2)&#45;&gt;precondition:
 hold(outwardgripper, gear2)</title>
<path fill="none" stroke="black" d="M991.32,-113.7C991.32,-103.16 991.32,-90.31 991.32,-78.08"/>
<polygon fill="black" stroke="black" points="994.82,-78.01 991.32,-68.01 987.82,-78.01 994.82,-78.01"/>
</g>
<!-- action:
 put_down(left_hand, outwardgripper, gear2) -->
<g id="node13" class="node">
<title>action:
 put_down(left_hand, outwardgripper, gear2)</title>
<ellipse fill="lightgreen" stroke="black" cx="1505.32" cy="-33.94" rx="299.21" ry="33.88"/>
<text text-anchor="middle" x="1505.32" y="-39.54" font-family="Times,serif" font-size="18.00">action:</text>
<text text-anchor="middle" x="1505.32" y="-19.54" font-family="Times,serif" font-size="18.00"> put_down(left_hand, outwardgripper, gear2)</text>
</g>
<!-- sequence:
 put_down(left_hand, outwardgripper, gear2)&#45;&gt;action:
 put_down(left_hand, outwardgripper, gear2) -->
<g id="edge12" class="edge">
<title>sequence:
 put_down(left_hand, outwardgripper, gear2)&#45;&gt;action:
 put_down(left_hand, outwardgripper, gear2)</title>
<path fill="none" stroke="black" d="M1107.64,-113.77C1179.49,-99.53 1272.55,-81.08 1350.58,-65.61"/>
<polygon fill="black" stroke="black" points="1351.38,-69.02 1360.5,-63.65 1350.01,-62.16 1351.38,-69.02"/>
</g>
<!-- target:
 hold(clampgripper, shaft1) -->
<g id="node16" class="node">
<title>target:
 hold(clampgripper, shaft1)</title>
<ellipse fill="#ffec8b" stroke="black" cx="2063.32" cy="-351.18" rx="185.94" ry="33.88"/>
<text text-anchor="middle" x="2063.32" y="-356.78" font-family="Times,serif" font-size="18.00">target:</text>
<text text-anchor="middle" x="2063.32" y="-336.78" font-family="Times,serif" font-size="18.00"> hold(clampgripper, shaft1)</text>
</g>
<!-- selector:
 pick_up(left_hand, clampgripper, shaft1)&#45;&gt;target:
 hold(clampgripper, shaft1) -->
<g id="edge15" class="edge">
<title>selector:
 pick_up(left_hand, clampgripper, shaft1)&#45;&gt;target:
 hold(clampgripper, shaft1)</title>
<path fill="none" stroke="black" d="M2063.32,-420.84C2063.32,-412.68 2063.32,-403.93 2063.32,-395.51"/>
<polygon fill="black" stroke="black" points="2066.82,-395.46 2063.32,-385.46 2059.82,-395.46 2066.82,-395.46"/>
</g>
<!-- sequence:
 pick_up(left_hand, clampgripper, shaft1) -->
<g id="node17" class="node">
<title>sequence:
 pick_up(left_hand, clampgripper, shaft1)</title>
<polygon fill="#ff7f24" stroke="black" points="2659.82,-375.18 2270.82,-375.18 2270.82,-327.18 2659.82,-327.18 2659.82,-375.18"/>
<text text-anchor="middle" x="2465.32" y="-356.78" font-family="Times,serif" font-size="18.00">sequence:</text>
<text text-anchor="middle" x="2465.32" y="-336.78" font-family="Times,serif" font-size="18.00"> pick_up(left_hand, clampgripper, shaft1)</text>
</g>
<!-- selector:
 pick_up(left_hand, clampgripper, shaft1)&#45;&gt;sequence:
 pick_up(left_hand, clampgripper, shaft1) -->
<g id="edge16" class="edge">
<title>selector:
 pick_up(left_hand, clampgripper, shaft1)&#45;&gt;sequence:
 pick_up(left_hand, clampgripper, shaft1)</title>
<path fill="none" stroke="black" d="M2196.91,-422.08C2252.5,-407.6 2315.87,-391.1 2367.08,-377.76"/>
<polygon fill="black" stroke="black" points="2368.03,-381.13 2376.82,-375.23 2366.26,-374.36 2368.03,-381.13"/>
</g>
<!-- precondition:
 hold(left_hand, clampgripper) -->
<g id="node18" class="node">
<title>precondition:
 hold(left_hand, clampgripper)</title>
<ellipse fill="#ffec8b" stroke="black" cx="2076.32" cy="-244.5" rx="207.36" ry="33.88"/>
<text text-anchor="middle" x="2076.32" y="-250.1" font-family="Times,serif" font-size="18.00">precondition:</text>
<text text-anchor="middle" x="2076.32" y="-230.1" font-family="Times,serif" font-size="18.00"> hold(left_hand, clampgripper)</text>
</g>
<!-- sequence:
 pick_up(left_hand, clampgripper, shaft1)&#45;&gt;precondition:
 hold(left_hand, clampgripper) -->
<g id="edge17" class="edge">
<title>sequence:
 pick_up(left_hand, clampgripper, shaft1)&#45;&gt;precondition:
 hold(left_hand, clampgripper)</title>
<path fill="none" stroke="black" d="M2379.48,-327.08C2324.16,-312.19 2251.58,-292.66 2191.3,-276.44"/>
<polygon fill="black" stroke="black" points="2191.92,-272.98 2181.36,-273.77 2190.1,-279.74 2191.92,-272.98"/>
</g>
<!-- precondition:
 is_empty(clampgripper) -->
<g id="node19" class="node">
<title>precondition:
 is_empty(clampgripper)</title>
<ellipse fill="#ffec8b" stroke="black" cx="2470.32" cy="-244.5" rx="169" ry="33.88"/>
<text text-anchor="middle" x="2470.32" y="-250.1" font-family="Times,serif" font-size="18.00">precondition:</text>
<text text-anchor="middle" x="2470.32" y="-230.1" font-family="Times,serif" font-size="18.00"> is_empty(clampgripper)</text>
</g>
<!-- sequence:
 pick_up(left_hand, clampgripper, shaft1)&#45;&gt;precondition:
 is_empty(clampgripper) -->
<g id="edge18" class="edge">
<title>sequence:
 pick_up(left_hand, clampgripper, shaft1)&#45;&gt;precondition:
 is_empty(clampgripper)</title>
<path fill="none" stroke="black" d="M2466.43,-326.95C2466.97,-315.73 2467.63,-301.9 2468.25,-288.84"/>
<polygon fill="black" stroke="black" points="2471.76,-288.75 2468.74,-278.6 2464.77,-288.42 2471.76,-288.75"/>
</g>
<!-- action:
 pick_up(left_hand, clampgripper, shaft1) -->
<g id="node20" class="node">
<title>action:
 pick_up(left_hand, clampgripper, shaft1)</title>
<ellipse fill="lightgreen" stroke="black" cx="2932.32" cy="-244.5" rx="275.13" ry="33.88"/>
<text text-anchor="middle" x="2932.32" y="-250.1" font-family="Times,serif" font-size="18.00">action:</text>
<text text-anchor="middle" x="2932.32" y="-230.1" font-family="Times,serif" font-size="18.00"> pick_up(left_hand, clampgripper, shaft1)</text>
</g>
<!-- sequence:
 pick_up(left_hand, clampgripper, shaft1)&#45;&gt;action:
 pick_up(left_hand, clampgripper, shaft1) -->
<g id="edge19" class="edge">
<title>sequence:
 pick_up(left_hand, clampgripper, shaft1)&#45;&gt;action:
 pick_up(left_hand, clampgripper, shaft1)</title>
<path fill="none" stroke="black" d="M2568.1,-327.14C2634.14,-312.34 2720.78,-292.92 2792.98,-276.74"/>
<polygon fill="black" stroke="black" points="2794.08,-280.08 2803.07,-274.47 2792.55,-273.25 2794.08,-280.08"/>
</g>
<!-- &quot;target:\n is_inserted_to(shaft1, gearbase_hole1)&quot;* -->
<g id="node23" class="node">
<title>&quot;target:\n is_inserted_to(shaft1, gearbase_hole1)&quot;*</title>
<ellipse fill="#ffec8b" stroke="black" cx="3321.32" cy="-351.18" rx="273.8" ry="33.88"/>
<text text-anchor="middle" x="3321.32" y="-356.78" font-family="Times,serif" font-size="18.00">&quot;target:</text>
<text text-anchor="middle" x="3321.32" y="-336.78" font-family="Times,serif" font-size="18.00"> is_inserted_to(shaft1, gearbase_hole1)&quot;*</text>
</g>
<!-- &quot;selector:\n insert(left_hand, clampgripper, shaft1, gearbase_hole1)&quot;*&#45;&gt;&quot;target:\n is_inserted_to(shaft1, gearbase_hole1)&quot;* -->
<g id="edge22" class="edge">
<title>&quot;selector:\n insert(left_hand, clampgripper, shaft1, gearbase_hole1)&quot;*&#45;&gt;&quot;target:\n is_inserted_to(shaft1, gearbase_hole1)&quot;*</title>
<path fill="none" stroke="black" d="M3327.23,-420.84C3326.53,-412.68 3325.77,-403.93 3325.05,-395.51"/>
<polygon fill="black" stroke="black" points="3328.53,-395.12 3324.19,-385.46 3321.55,-395.72 3328.53,-395.12"/>
</g>
<!-- &quot;sequence:\n insert(left_hand, clampgripper, shaft1, gearbase_hole1)&quot;* -->
<g id="node24" class="node">
<title>&quot;sequence:\n insert(left_hand, clampgripper, shaft1, gearbase_hole1)&quot;*</title>
<polygon fill="#ff7f24" stroke="black" points="4155.32,-375.18 3613.32,-375.18 3613.32,-327.18 4155.32,-327.18 4155.32,-375.18"/>
<text text-anchor="middle" x="3884.32" y="-356.78" font-family="Times,serif" font-size="18.00">&quot;sequence:</text>
<text text-anchor="middle" x="3884.32" y="-336.78" font-family="Times,serif" font-size="18.00"> insert(left_hand, clampgripper, shaft1, gearbase_hole1)&quot;*</text>
</g>
<!-- &quot;selector:\n insert(left_hand, clampgripper, shaft1, gearbase_hole1)&quot;*&#45;&gt;&quot;sequence:\n insert(left_hand, clampgripper, shaft1, gearbase_hole1)&quot;* -->
<g id="edge23" class="edge">
<title>&quot;selector:\n insert(left_hand, clampgripper, shaft1, gearbase_hole1)&quot;*&#45;&gt;&quot;sequence:\n insert(left_hand, clampgripper, shaft1, gearbase_hole1)&quot;*</title>
<path fill="none" stroke="black" d="M3514.8,-422C3592.66,-407.29 3681.54,-390.5 3752.62,-377.07"/>
<polygon fill="black" stroke="black" points="3753.35,-380.49 3762.53,-375.19 3752.05,-373.61 3753.35,-380.49"/>
</g>
<!-- &quot;precondition:\n hold(left_hand, clampgripper)&quot;* -->
<g id="node25" class="node">
<title>&quot;precondition:\n hold(left_hand, clampgripper)&quot;*</title>
<ellipse fill="#ffec8b" stroke="black" cx="3461.32" cy="-244.5" rx="219.41" ry="33.88"/>
<text text-anchor="middle" x="3461.32" y="-250.1" font-family="Times,serif" font-size="18.00">&quot;precondition:</text>
<text text-anchor="middle" x="3461.32" y="-230.1" font-family="Times,serif" font-size="18.00"> hold(left_hand, clampgripper)&quot;*</text>
</g>
<!-- &quot;sequence:\n insert(left_hand, clampgripper, shaft1, gearbase_hole1)&quot;*&#45;&gt;&quot;precondition:\n hold(left_hand, clampgripper)&quot;* -->
<g id="edge24" class="edge">
<title>&quot;sequence:\n insert(left_hand, clampgripper, shaft1, gearbase_hole1)&quot;*&#45;&gt;&quot;precondition:\n hold(left_hand, clampgripper)&quot;*</title>
<path fill="none" stroke="black" d="M3791.23,-327.14C3730.61,-312.14 3650.85,-292.4 3584.93,-276.09"/>
<polygon fill="black" stroke="black" points="3585.44,-272.61 3574.9,-273.61 3583.76,-279.41 3585.44,-272.61"/>
</g>
<!-- precondition:
 hold(clampgripper, shaft1) -->
<g id="node26" class="node">
<title>precondition:
 hold(clampgripper, shaft1)</title>
<ellipse fill="#ffec8b" stroke="black" cx="3884.32" cy="-244.5" rx="185.94" ry="33.88"/>
<text text-anchor="middle" x="3884.32" y="-250.1" font-family="Times,serif" font-size="18.00">precondition:</text>
<text text-anchor="middle" x="3884.32" y="-230.1" font-family="Times,serif" font-size="18.00"> hold(clampgripper, shaft1)</text>
</g>
<!-- &quot;sequence:\n insert(left_hand, clampgripper, shaft1, gearbase_hole1)&quot;*&#45;&gt;precondition:
 hold(clampgripper, shaft1) -->
<g id="edge25" class="edge">
<title>&quot;sequence:\n insert(left_hand, clampgripper, shaft1, gearbase_hole1)&quot;*&#45;&gt;precondition:
 hold(clampgripper, shaft1)</title>
<path fill="none" stroke="black" d="M3884.32,-326.95C3884.32,-315.73 3884.32,-301.9 3884.32,-288.84"/>
<polygon fill="black" stroke="black" points="3887.82,-288.6 3884.32,-278.6 3880.82,-288.6 3887.82,-288.6"/>
</g>
<!-- action:
 insert(left_hand, clampgripper, shaft1, gearbase_hole1) -->
<g id="node27" class="node">
<title>action:
 insert(left_hand, clampgripper, shaft1, gearbase_hole1)</title>
<ellipse fill="lightgreen" stroke="black" cx="4458.32" cy="-244.5" rx="370.55" ry="33.88"/>
<text text-anchor="middle" x="4458.32" y="-250.1" font-family="Times,serif" font-size="18.00">action:</text>
<text text-anchor="middle" x="4458.32" y="-230.1" font-family="Times,serif" font-size="18.00"> insert(left_hand, clampgripper, shaft1, gearbase_hole1)</text>
</g>
<!-- &quot;sequence:\n insert(left_hand, clampgripper, shaft1, gearbase_hole1)&quot;*&#45;&gt;action:
 insert(left_hand, clampgripper, shaft1, gearbase_hole1) -->
<g id="edge26" class="edge">
<title>&quot;sequence:\n insert(left_hand, clampgripper, shaft1, gearbase_hole1)&quot;*&#45;&gt;action:
 insert(left_hand, clampgripper, shaft1, gearbase_hole1)</title>
<path fill="none" stroke="black" d="M4010.65,-327.14C4091.62,-312.38 4197.76,-293.02 4286.37,-276.86"/>
<polygon fill="black" stroke="black" points="4287.05,-280.29 4296.26,-275.06 4285.8,-273.41 4287.05,-280.29"/>
</g>
</g>
</svg>
