<?xml version="1.0" encoding="UTF-8" standalone="no"?>
<!DOCTYPE svg PUBLIC "-//W3C//DTD SVG 1.1//EN"
 "http://www.w3.org/Graphics/SVG/1.1/DTD/svg11.dtd">
<!-- Generated by graphviz version 2.43.0 (0)
 -->
<!-- Title: pastafarianism Pages: 1 -->
<svg width="2642pt" height="289pt"
 viewBox="0.00 0.00 2641.71 289.24" xmlns="http://www.w3.org/2000/svg" xmlns:xlink="http://www.w3.org/1999/xlink">
<g id="graph0" class="graph" transform="scale(1 1) rotate(0) translate(4 285.24)">
<title>pastafarianism</title>
<polygon fill="white" stroke="transparent" points="-4,4 -4,-285.24 2637.71,-285.24 2637.71,4 -4,4"/>
<!-- selector:
 insert(left_hand, clampgripper, shaft1, gearbase_hole1) -->
<g id="node1" class="node">
<title>selector:
 insert(left_hand, clampgripper, shaft1, gearbase_hole1)</title>
<polygon fill="#8deeee" stroke="black" points="1211.29,-229.19 1211.29,-259.82 976.33,-281.48 644.04,-281.48 409.08,-259.82 409.08,-229.19 644.04,-207.53 976.33,-207.53 1211.29,-229.19"/>
<text text-anchor="middle" x="810.18" y="-250.1" font-family="Times,serif" font-size="18.00">selector:</text>
<text text-anchor="middle" x="810.18" y="-230.1" font-family="Times,serif" font-size="18.00"> insert(left_hand, clampgripper, shaft1, gearbase_hole1)</text>
</g>
<!-- target:
 is_inserted_to(shaft1, gearbase_hole1) -->
<g id="node2" class="node">
<title>target:
 is_inserted_to(shaft1, gearbase_hole1)</title>
<ellipse fill="#ffec8b" stroke="black" cx="539.18" cy="-137.82" rx="261.76" ry="33.88"/>
<text text-anchor="middle" x="539.18" y="-143.42" font-family="Times,serif" font-size="18.00">target:</text>
<text text-anchor="middle" x="539.18" y="-123.42" font-family="Times,serif" font-size="18.00"> is_inserted_to(shaft1, gearbase_hole1)</text>
</g>
<!-- selector:
 insert(left_hand, clampgripper, shaft1, gearbase_hole1)&#45;&gt;target:
 is_inserted_to(shaft1, gearbase_hole1) -->
<g id="edge1" class="edge">
<title>selector:
 insert(left_hand, clampgripper, shaft1, gearbase_hole1)&#45;&gt;target:
 is_inserted_to(shaft1, gearbase_hole1)</title>
<path fill="none" stroke="black" d="M717.3,-207.62C688.94,-196.67 657.81,-184.65 629.62,-173.76"/>
<polygon fill="black" stroke="black" points="630.77,-170.45 620.18,-170.11 628.24,-176.98 630.77,-170.45"/>
</g>
<!-- sequence:
 insert(left_hand, clampgripper, shaft1, gearbase_hole1) -->
<g id="node3" class="node">
<title>sequence:
 insert(left_hand, clampgripper, shaft1, gearbase_hole1)</title>
<polygon fill="#ff7f24" stroke="black" points="1343.18,-161.82 819.18,-161.82 819.18,-113.82 1343.18,-113.82 1343.18,-161.82"/>
<text text-anchor="middle" x="1081.18" y="-143.42" font-family="Times,serif" font-size="18.00">sequence:</text>
<text text-anchor="middle" x="1081.18" y="-123.42" font-family="Times,serif" font-size="18.00"> insert(left_hand, clampgripper, shaft1, gearbase_hole1)</text>
</g>
<!-- selector:
 insert(left_hand, clampgripper, shaft1, gearbase_hole1)&#45;&gt;sequence:
 insert(left_hand, clampgripper, shaft1, gearbase_hole1) -->
<g id="edge2" class="edge">
<title>selector:
 insert(left_hand, clampgripper, shaft1, gearbase_hole1)&#45;&gt;sequence:
 insert(left_hand, clampgripper, shaft1, gearbase_hole1)</title>
<path fill="none" stroke="black" d="M903.07,-207.62C938.77,-193.83 978.86,-178.35 1011.96,-165.56"/>
<polygon fill="black" stroke="black" points="1013.48,-168.73 1021.54,-161.86 1010.95,-162.2 1013.48,-168.73"/>
</g>
<!-- precondition:
 hold(left_hand, clampgripper) -->
<g id="node4" class="node">
<title>precondition:
 hold(left_hand, clampgripper)</title>
<ellipse fill="#ffec8b" stroke="black" cx="207.18" cy="-33.94" rx="207.36" ry="33.88"/>
<text text-anchor="middle" x="207.18" y="-39.54" font-family="Times,serif" font-size="18.00">precondition:</text>
<text text-anchor="middle" x="207.18" y="-19.54" font-family="Times,serif" font-size="18.00"> hold(left_hand, clampgripper)</text>
</g>
<!-- sequence:
 insert(left_hand, clampgripper, shaft1, gearbase_hole1)&#45;&gt;precondition:
 hold(left_hand, clampgripper) -->
<g id="edge3" class="edge">
<title>sequence:
 insert(left_hand, clampgripper, shaft1, gearbase_hole1)&#45;&gt;precondition:
 hold(left_hand, clampgripper)</title>
<path fill="none" stroke="black" d="M897.59,-113.8C868.36,-110.34 838.46,-106.92 810.18,-103.88 638.43,-85.46 594.64,-88.91 423.18,-67.88 403.44,-65.46 382.73,-62.65 362.27,-59.71"/>
<polygon fill="black" stroke="black" points="362.66,-56.23 352.26,-58.26 361.65,-63.16 362.66,-56.23"/>
</g>
<!-- precondition:
 hold(clampgripper, shaft1) -->
<g id="node5" class="node">
<title>precondition:
 hold(clampgripper, shaft1)</title>
<ellipse fill="#ffec8b" stroke="black" cx="618.18" cy="-33.94" rx="185.94" ry="33.88"/>
<text text-anchor="middle" x="618.18" y="-39.54" font-family="Times,serif" font-size="18.00">precondition:</text>
<text text-anchor="middle" x="618.18" y="-19.54" font-family="Times,serif" font-size="18.00"> hold(clampgripper, shaft1)</text>
</g>
<!-- sequence:
 insert(left_hand, clampgripper, shaft1, gearbase_hole1)&#45;&gt;precondition:
 hold(clampgripper, shaft1) -->
<g id="edge4" class="edge">
<title>sequence:
 insert(left_hand, clampgripper, shaft1, gearbase_hole1)&#45;&gt;precondition:
 hold(clampgripper, shaft1)</title>
<path fill="none" stroke="black" d="M976.41,-113.77C907.62,-98.63 817.25,-78.75 744.49,-62.74"/>
<polygon fill="black" stroke="black" points="744.86,-59.23 734.35,-60.5 743.36,-66.07 744.86,-59.23"/>
</g>
<!-- precondition:
 can_manipulate(clampgripper, shaft1) -->
<g id="node6" class="node">
<title>precondition:
 can_manipulate(clampgripper, shaft1)</title>
<ellipse fill="#ffec8b" stroke="black" cx="1081.18" cy="-33.94" rx="258.6" ry="33.88"/>
<text text-anchor="middle" x="1081.18" y="-39.54" font-family="Times,serif" font-size="18.00">precondition:</text>
<text text-anchor="middle" x="1081.18" y="-19.54" font-family="Times,serif" font-size="18.00"> can_manipulate(clampgripper, shaft1)</text>
</g>
<!-- sequence:
 insert(left_hand, clampgripper, shaft1, gearbase_hole1)&#45;&gt;precondition:
 can_manipulate(clampgripper, shaft1) -->
<g id="edge5" class="edge">
<title>sequence:
 insert(left_hand, clampgripper, shaft1, gearbase_hole1)&#45;&gt;precondition:
 can_manipulate(clampgripper, shaft1)</title>
<path fill="none" stroke="black" d="M1081.18,-113.7C1081.18,-103.16 1081.18,-90.31 1081.18,-78.08"/>
<polygon fill="black" stroke="black" points="1084.68,-78.01 1081.18,-68.01 1077.68,-78.01 1084.68,-78.01"/>
</g>
<!-- precondition:
 can_insert_to(shaft1, gearbase_hole1) -->
<g id="node7" class="node">
<title>precondition:
 can_insert_to(shaft1, gearbase_hole1)</title>
<ellipse fill="#ffec8b" stroke="black" cx="1616.18" cy="-33.94" rx="258.19" ry="33.88"/>
<text text-anchor="middle" x="1616.18" y="-39.54" font-family="Times,serif" font-size="18.00">precondition:</text>
<text text-anchor="middle" x="1616.18" y="-19.54" font-family="Times,serif" font-size="18.00"> can_insert_to(shaft1, gearbase_hole1)</text>
</g>
<!-- sequence:
 insert(left_hand, clampgripper, shaft1, gearbase_hole1)&#45;&gt;precondition:
 can_insert_to(shaft1, gearbase_hole1) -->
<g id="edge6" class="edge">
<title>sequence:
 insert(left_hand, clampgripper, shaft1, gearbase_hole1)&#45;&gt;precondition:
 can_insert_to(shaft1, gearbase_hole1)</title>
<path fill="none" stroke="black" d="M1202.25,-113.77C1279.41,-99.07 1380.06,-79.91 1462.8,-64.15"/>
<polygon fill="black" stroke="black" points="1463.63,-67.56 1472.8,-62.25 1462.32,-60.68 1463.63,-67.56"/>
</g>
<!-- action:
 insert(left_hand, clampgripper, shaft1, gearbase_hole1) -->
<g id="node8" class="node">
<title>action:
 insert(left_hand, clampgripper, shaft1, gearbase_hole1)</title>
<ellipse fill="lightgreen" stroke="black" cx="2263.18" cy="-33.94" rx="370.55" ry="33.88"/>
<text text-anchor="middle" x="2263.18" y="-39.54" font-family="Times,serif" font-size="18.00">action:</text>
<text text-anchor="middle" x="2263.18" y="-19.54" font-family="Times,serif" font-size="18.00"> insert(left_hand, clampgripper, shaft1, gearbase_hole1)</text>
</g>
<!-- sequence:
 insert(left_hand, clampgripper, shaft1, gearbase_hole1)&#45;&gt;action:
 insert(left_hand, clampgripper, shaft1, gearbase_hole1) -->
<g id="edge7" class="edge">
<title>sequence:
 insert(left_hand, clampgripper, shaft1, gearbase_hole1)&#45;&gt;action:
 insert(left_hand, clampgripper, shaft1, gearbase_hole1)</title>
<path fill="none" stroke="black" d="M1343.51,-114.32C1500.16,-100.87 1703.05,-83.43 1883.18,-67.88 1917.56,-64.91 1953.68,-61.79 1989.41,-58.7"/>
<polygon fill="black" stroke="black" points="1989.82,-62.18 1999.48,-57.83 1989.22,-55.2 1989.82,-62.18"/>
</g>
</g>
</svg>
