<?xml version="1.0" encoding="UTF-8" standalone="no"?>
<!DOCTYPE svg PUBLIC "-//W3C//DTD SVG 1.1//EN"
 "http://www.w3.org/Graphics/SVG/1.1/DTD/svg11.dtd">
<!-- Generated by graphviz version 2.43.0 (0)
 -->
<!-- Title: pastafarianism Pages: 1 -->
<svg width="2160pt" height="503pt"
 viewBox="0.00 0.00 2159.96 502.60" xmlns="http://www.w3.org/2000/svg" xmlns:xlink="http://www.w3.org/1999/xlink">
<g id="graph0" class="graph" transform="scale(1 1) rotate(0) translate(4 498.6)">
<title>pastafarianism</title>
<polygon fill="white" stroke="transparent" points="-4,4 -4,-498.6 2155.96,-498.6 2155.96,4 -4,4"/>
<!-- selector:
 insert(left_hand, outwardgripper, compoundgear, cylindershaft) -->
<g id="node1" class="node">
<title>selector:
 insert(left_hand, outwardgripper, compoundgear, cylindershaft)</title>
<polygon fill="#8deeee" stroke="black" points="1064.99,-442.54 1064.99,-473.18 796.77,-494.84 417.45,-494.84 149.23,-473.18 149.23,-442.54 417.45,-420.88 796.77,-420.88 1064.99,-442.54"/>
<text text-anchor="middle" x="607.11" y="-463.46" font-family="Times,serif" font-size="18.00">selector:</text>
<text text-anchor="middle" x="607.11" y="-443.46" font-family="Times,serif" font-size="18.00"> insert(left_hand, outwardgripper, compoundgear, cylindershaft)</text>
</g>
<!-- target:
 is_inserted_to(compoundgear, cylindershaft) -->
<g id="node2" class="node">
<title>target:
 is_inserted_to(compoundgear, cylindershaft)</title>
<ellipse fill="#ffec8b" stroke="black" cx="299.11" cy="-351.18" rx="299.21" ry="33.88"/>
<text text-anchor="middle" x="299.11" y="-356.78" font-family="Times,serif" font-size="18.00">target:</text>
<text text-anchor="middle" x="299.11" y="-336.78" font-family="Times,serif" font-size="18.00"> is_inserted_to(compoundgear, cylindershaft)</text>
</g>
<!-- selector:
 insert(left_hand, outwardgripper, compoundgear, cylindershaft)&#45;&gt;target:
 is_inserted_to(compoundgear, cylindershaft) -->
<g id="edge1" class="edge">
<title>selector:
 insert(left_hand, outwardgripper, compoundgear, cylindershaft)&#45;&gt;target:
 is_inserted_to(compoundgear, cylindershaft)</title>
<path fill="none" stroke="black" d="M501.54,-420.98C469.11,-409.96 433.49,-397.85 401.29,-386.91"/>
<polygon fill="black" stroke="black" points="402.01,-383.46 391.41,-383.55 399.75,-390.08 402.01,-383.46"/>
</g>
<!-- sequence:
 insert(left_hand, outwardgripper, compoundgear, cylindershaft) -->
<g id="node3" class="node">
<title>sequence:
 insert(left_hand, outwardgripper, compoundgear, cylindershaft)</title>
<polygon fill="#ff7f24" stroke="black" points="1214.11,-375.18 616.11,-375.18 616.11,-327.18 1214.11,-327.18 1214.11,-375.18"/>
<text text-anchor="middle" x="915.11" y="-356.78" font-family="Times,serif" font-size="18.00">sequence:</text>
<text text-anchor="middle" x="915.11" y="-336.78" font-family="Times,serif" font-size="18.00"> insert(left_hand, outwardgripper, compoundgear, cylindershaft)</text>
</g>
<!-- selector:
 insert(left_hand, outwardgripper, compoundgear, cylindershaft)&#45;&gt;sequence:
 insert(left_hand, outwardgripper, compoundgear, cylindershaft) -->
<g id="edge2" class="edge">
<title>selector:
 insert(left_hand, outwardgripper, compoundgear, cylindershaft)&#45;&gt;sequence:
 insert(left_hand, outwardgripper, compoundgear, cylindershaft)</title>
<path fill="none" stroke="black" d="M712.67,-420.98C753.59,-407.07 799.6,-391.44 837.4,-378.59"/>
<polygon fill="black" stroke="black" points="838.98,-381.75 847.32,-375.22 836.73,-375.12 838.98,-381.75"/>
</g>
<!-- precondition:
 hold(left_hand, outwardgripper) -->
<g id="node4" class="node">
<title>precondition:
 hold(left_hand, outwardgripper)</title>
<ellipse fill="#ffec8b" stroke="black" cx="303.11" cy="-244.5" rx="221.15" ry="33.88"/>
<text text-anchor="middle" x="303.11" y="-250.1" font-family="Times,serif" font-size="18.00">precondition:</text>
<text text-anchor="middle" x="303.11" y="-230.1" font-family="Times,serif" font-size="18.00"> hold(left_hand, outwardgripper)</text>
</g>
<!-- sequence:
 insert(left_hand, outwardgripper, compoundgear, cylindershaft)&#45;&gt;precondition:
 hold(left_hand, outwardgripper) -->
<g id="edge3" class="edge">
<title>sequence:
 insert(left_hand, outwardgripper, compoundgear, cylindershaft)&#45;&gt;precondition:
 hold(left_hand, outwardgripper)</title>
<path fill="none" stroke="black" d="M780.42,-327.14C685.15,-310.85 557.19,-288.96 457.75,-271.95"/>
<polygon fill="black" stroke="black" points="458.05,-268.45 447.6,-270.22 456.87,-275.35 458.05,-268.45"/>
</g>
<!-- selector:
 pick_up(left_hand, outwardgripper, compoundgear) -->
<g id="node5" class="node">
<title>selector:
 pick_up(left_hand, outwardgripper, compoundgear)</title>
<polygon fill="#8deeee" stroke="black" points="1288.07,-229.19 1288.07,-259.82 1069.59,-281.48 760.62,-281.48 542.14,-259.82 542.14,-229.19 760.62,-207.53 1069.59,-207.53 1288.07,-229.19"/>
<text text-anchor="middle" x="915.11" y="-250.1" font-family="Times,serif" font-size="18.00">selector:</text>
<text text-anchor="middle" x="915.11" y="-230.1" font-family="Times,serif" font-size="18.00"> pick_up(left_hand, outwardgripper, compoundgear)</text>
</g>
<!-- sequence:
 insert(left_hand, outwardgripper, compoundgear, cylindershaft)&#45;&gt;selector:
 pick_up(left_hand, outwardgripper, compoundgear) -->
<g id="edge4" class="edge">
<title>sequence:
 insert(left_hand, outwardgripper, compoundgear, cylindershaft)&#45;&gt;selector:
 pick_up(left_hand, outwardgripper, compoundgear)</title>
<path fill="none" stroke="black" d="M915.11,-326.95C915.11,-316.5 915.11,-303.79 915.11,-291.54"/>
<polygon fill="black" stroke="black" points="918.61,-291.42 915.11,-281.42 911.61,-291.42 918.61,-291.42"/>
</g>
<!-- action:
 insert(left_hand, outwardgripper, compoundgear, cylindershaft) -->
<g id="node11" class="node">
<title>action:
 insert(left_hand, outwardgripper, compoundgear, cylindershaft)</title>
<ellipse fill="lightgreen" stroke="black" cx="1729.11" cy="-244.5" rx="422.7" ry="33.88"/>
<text text-anchor="middle" x="1729.11" y="-250.1" font-family="Times,serif" font-size="18.00">action:</text>
<text text-anchor="middle" x="1729.11" y="-230.1" font-family="Times,serif" font-size="18.00"> insert(left_hand, outwardgripper, compoundgear, cylindershaft)</text>
</g>
<!-- sequence:
 insert(left_hand, outwardgripper, compoundgear, cylindershaft)&#45;&gt;action:
 insert(left_hand, outwardgripper, compoundgear, cylindershaft) -->
<g id="edge10" class="edge">
<title>sequence:
 insert(left_hand, outwardgripper, compoundgear, cylindershaft)&#45;&gt;action:
 insert(left_hand, outwardgripper, compoundgear, cylindershaft)</title>
<path fill="none" stroke="black" d="M1093.99,-327.18C1213.62,-311.79 1372.08,-291.41 1500.8,-274.86"/>
<polygon fill="black" stroke="black" points="1501.32,-278.32 1510.8,-273.58 1500.43,-271.38 1501.32,-278.32"/>
</g>
<!-- target:
 hold(outwardgripper, compoundgear) -->
<g id="node6" class="node">
<title>target:
 hold(outwardgripper, compoundgear)</title>
<ellipse fill="#ffec8b" stroke="black" cx="657.11" cy="-137.82" rx="254.62" ry="33.88"/>
<text text-anchor="middle" x="657.11" y="-143.42" font-family="Times,serif" font-size="18.00">target:</text>
<text text-anchor="middle" x="657.11" y="-123.42" font-family="Times,serif" font-size="18.00"> hold(outwardgripper, compoundgear)</text>
</g>
<!-- selector:
 pick_up(left_hand, outwardgripper, compoundgear)&#45;&gt;target:
 hold(outwardgripper, compoundgear) -->
<g id="edge5" class="edge">
<title>selector:
 pick_up(left_hand, outwardgripper, compoundgear)&#45;&gt;target:
 hold(outwardgripper, compoundgear)</title>
<path fill="none" stroke="black" d="M826.68,-207.62C799.93,-196.77 770.59,-184.87 743.94,-174.06"/>
<polygon fill="black" stroke="black" points="745.22,-170.8 734.64,-170.28 742.59,-177.28 745.22,-170.8"/>
</g>
<!-- sequence:
 pick_up(left_hand, outwardgripper, compoundgear) -->
<g id="node7" class="node">
<title>sequence:
 pick_up(left_hand, outwardgripper, compoundgear)</title>
<polygon fill="#ff7f24" stroke="black" points="1416.61,-161.82 929.61,-161.82 929.61,-113.82 1416.61,-113.82 1416.61,-161.82"/>
<text text-anchor="middle" x="1173.11" y="-143.42" font-family="Times,serif" font-size="18.00">sequence:</text>
<text text-anchor="middle" x="1173.11" y="-123.42" font-family="Times,serif" font-size="18.00"> pick_up(left_hand, outwardgripper, compoundgear)</text>
</g>
<!-- selector:
 pick_up(left_hand, outwardgripper, compoundgear)&#45;&gt;sequence:
 pick_up(left_hand, outwardgripper, compoundgear) -->
<g id="edge6" class="edge">
<title>selector:
 pick_up(left_hand, outwardgripper, compoundgear)&#45;&gt;sequence:
 pick_up(left_hand, outwardgripper, compoundgear)</title>
<path fill="none" stroke="black" d="M1003.53,-207.62C1037.38,-193.89 1075.37,-178.48 1106.8,-165.73"/>
<polygon fill="black" stroke="black" points="1108.38,-168.86 1116.33,-161.86 1105.75,-162.38 1108.38,-168.86"/>
</g>
<!-- precondition:
 is_empty(outwardgripper) -->
<g id="node8" class="node">
<title>precondition:
 is_empty(outwardgripper)</title>
<ellipse fill="#ffec8b" stroke="black" cx="739.11" cy="-33.94" rx="183.28" ry="33.88"/>
<text text-anchor="middle" x="739.11" y="-39.54" font-family="Times,serif" font-size="18.00">precondition:</text>
<text text-anchor="middle" x="739.11" y="-19.54" font-family="Times,serif" font-size="18.00"> is_empty(outwardgripper)</text>
</g>
<!-- sequence:
 pick_up(left_hand, outwardgripper, compoundgear)&#45;&gt;precondition:
 is_empty(outwardgripper) -->
<g id="edge7" class="edge">
<title>sequence:
 pick_up(left_hand, outwardgripper, compoundgear)&#45;&gt;precondition:
 is_empty(outwardgripper)</title>
<path fill="none" stroke="black" d="M1074.9,-113.77C1011.26,-98.83 927.93,-79.27 860.2,-63.37"/>
<polygon fill="black" stroke="black" points="860.86,-59.93 850.32,-61.05 859.26,-66.74 860.86,-59.93"/>
</g>
<!-- &quot;precondition:\n hold(left_hand, outwardgripper)&quot;* -->
<g id="node9" class="node">
<title>&quot;precondition:\n hold(left_hand, outwardgripper)&quot;*</title>
<ellipse fill="#ffec8b" stroke="black" cx="1173.11" cy="-33.94" rx="233.19" ry="33.88"/>
<text text-anchor="middle" x="1173.11" y="-39.54" font-family="Times,serif" font-size="18.00">&quot;precondition:</text>
<text text-anchor="middle" x="1173.11" y="-19.54" font-family="Times,serif" font-size="18.00"> hold(left_hand, outwardgripper)&quot;*</text>
</g>
<!-- sequence:
 pick_up(left_hand, outwardgripper, compoundgear)&#45;&gt;&quot;precondition:\n hold(left_hand, outwardgripper)&quot;* -->
<g id="edge8" class="edge">
<title>sequence:
 pick_up(left_hand, outwardgripper, compoundgear)&#45;&gt;&quot;precondition:\n hold(left_hand, outwardgripper)&quot;*</title>
<path fill="none" stroke="black" d="M1173.11,-113.7C1173.11,-103.16 1173.11,-90.31 1173.11,-78.08"/>
<polygon fill="black" stroke="black" points="1176.61,-78.01 1173.11,-68.01 1169.61,-78.01 1176.61,-78.01"/>
</g>
<!-- action:
 pick_up(left_hand, outwardgripper, compoundgear) -->
<g id="node10" class="node">
<title>action:
 pick_up(left_hand, outwardgripper, compoundgear)</title>
<ellipse fill="lightgreen" stroke="black" cx="1769.11" cy="-33.94" rx="344.22" ry="33.88"/>
<text text-anchor="middle" x="1769.11" y="-39.54" font-family="Times,serif" font-size="18.00">action:</text>
<text text-anchor="middle" x="1769.11" y="-19.54" font-family="Times,serif" font-size="18.00"> pick_up(left_hand, outwardgripper, compoundgear)</text>
</g>
<!-- sequence:
 pick_up(left_hand, outwardgripper, compoundgear)&#45;&gt;action:
 pick_up(left_hand, outwardgripper, compoundgear) -->
<g id="edge9" class="edge">
<title>sequence:
 pick_up(left_hand, outwardgripper, compoundgear)&#45;&gt;action:
 pick_up(left_hand, outwardgripper, compoundgear)</title>
<path fill="none" stroke="black" d="M1307.98,-113.77C1391.88,-99.43 1500.73,-80.82 1591.6,-65.29"/>
<polygon fill="black" stroke="black" points="1592.19,-68.73 1601.46,-63.6 1591.01,-61.83 1592.19,-68.73"/>
</g>
</g>
</svg>
