<?xml version="1.0" encoding="UTF-8" standalone="no"?>
<!DOCTYPE svg PUBLIC "-//W3C//DTD SVG 1.1//EN"
 "http://www.w3.org/Graphics/SVG/1.1/DTD/svg11.dtd">
<!-- Generated by graphviz version 2.43.0 (0)
 -->
<!-- Title: pastafarianism Pages: 1 -->
<svg width="4447pt" height="503pt"
 viewBox="0.00 0.00 4446.51 502.60" xmlns="http://www.w3.org/2000/svg" xmlns:xlink="http://www.w3.org/1999/xlink">
<g id="graph0" class="graph" transform="scale(1 1) rotate(0) translate(4 498.6)">
<title>pastafarianism</title>
<polygon fill="white" stroke="transparent" points="-4,4 -4,-498.6 4442.51,-498.6 4442.51,4 -4,4"/>
<!-- selector:
 insert_shaft3_into_gearbase_hole3 -->
<g id="node1" class="node">
<title>selector:
 insert_shaft3_into_gearbase_hole3</title>
<polygon fill="#8deeee" stroke="black" points="2692.85,-442.54 2692.85,-473.18 2543.02,-494.84 2331.14,-494.84 2181.32,-473.18 2181.32,-442.54 2331.14,-420.88 2543.02,-420.88 2692.85,-442.54"/>
<text text-anchor="middle" x="2437.08" y="-463.46" font-family="Times,serif" font-size="18.00">selector:</text>
<text text-anchor="middle" x="2437.08" y="-443.46" font-family="Times,serif" font-size="18.00"> insert_shaft3_into_gearbase_hole3</text>
</g>
<!-- target:
 is_inserted_to(shaft3, gearbase_hole3) -->
<g id="node2" class="node">
<title>target:
 is_inserted_to(shaft3, gearbase_hole3)</title>
<ellipse fill="#ffec8b" stroke="black" cx="2214.08" cy="-351.18" rx="261.76" ry="33.88"/>
<text text-anchor="middle" x="2214.08" y="-356.78" font-family="Times,serif" font-size="18.00">target:</text>
<text text-anchor="middle" x="2214.08" y="-336.78" font-family="Times,serif" font-size="18.00"> is_inserted_to(shaft3, gearbase_hole3)</text>
</g>
<!-- selector:
 insert_shaft3_into_gearbase_hole3&#45;&gt;target:
 is_inserted_to(shaft3, gearbase_hole3) -->
<g id="edge1" class="edge">
<title>selector:
 insert_shaft3_into_gearbase_hole3&#45;&gt;target:
 is_inserted_to(shaft3, gearbase_hole3)</title>
<path fill="none" stroke="black" d="M2360.65,-420.98C2338.15,-410.42 2313.54,-398.87 2291.01,-388.29"/>
<polygon fill="black" stroke="black" points="2292.37,-385.06 2281.83,-383.98 2289.4,-391.4 2292.37,-385.06"/>
</g>
<!-- sequence:
 insert_shaft3_into_gearbase_hole3 -->
<g id="node3" class="node">
<title>sequence:
 insert_shaft3_into_gearbase_hole3</title>
<polygon fill="#ff7f24" stroke="black" points="2828.08,-375.18 2494.08,-375.18 2494.08,-327.18 2828.08,-327.18 2828.08,-375.18"/>
<text text-anchor="middle" x="2661.08" y="-356.78" font-family="Times,serif" font-size="18.00">sequence:</text>
<text text-anchor="middle" x="2661.08" y="-336.78" font-family="Times,serif" font-size="18.00"> insert_shaft3_into_gearbase_hole3</text>
</g>
<!-- selector:
 insert_shaft3_into_gearbase_hole3&#45;&gt;sequence:
 insert_shaft3_into_gearbase_hole3 -->
<g id="edge2" class="edge">
<title>selector:
 insert_shaft3_into_gearbase_hole3&#45;&gt;sequence:
 insert_shaft3_into_gearbase_hole3</title>
<path fill="none" stroke="black" d="M2513.86,-420.98C2542.86,-407.43 2575.37,-392.24 2602.45,-379.58"/>
<polygon fill="black" stroke="black" points="2604.21,-382.62 2611.79,-375.22 2601.24,-376.28 2604.21,-382.62"/>
</g>
<!-- selector:
 put_down_gear1 -->
<g id="node4" class="node">
<title>selector:
 put_down_gear1</title>
<polygon fill="#8deeee" stroke="black" points="1027.84,-229.19 1027.84,-259.82 951.24,-281.48 842.92,-281.48 766.33,-259.82 766.33,-229.19 842.92,-207.53 951.24,-207.53 1027.84,-229.19"/>
<text text-anchor="middle" x="897.08" y="-250.1" font-family="Times,serif" font-size="18.00">selector:</text>
<text text-anchor="middle" x="897.08" y="-230.1" font-family="Times,serif" font-size="18.00"> put_down_gear1</text>
</g>
<!-- sequence:
 insert_shaft3_into_gearbase_hole3&#45;&gt;selector:
 put_down_gear1 -->
<g id="edge3" class="edge">
<title>sequence:
 insert_shaft3_into_gearbase_hole3&#45;&gt;selector:
 put_down_gear1</title>
<path fill="none" stroke="black" d="M2551.13,-327.16C2529.32,-323.28 2506.54,-319.72 2485.08,-317.24 2343.76,-300.9 1399.89,-264.34 1037.97,-250.74"/>
<polygon fill="black" stroke="black" points="1038.08,-247.24 1027.96,-250.36 1037.82,-254.23 1038.08,-247.24"/>
</g>
<!-- selector:
 change_tool_to_defaultgripper -->
<g id="node10" class="node">
<title>selector:
 change_tool_to_defaultgripper</title>
<polygon fill="#8deeee" stroke="black" points="2340.21,-229.19 2340.21,-259.82 2207.16,-281.48 2019,-281.48 1885.95,-259.82 1885.95,-229.19 2019,-207.53 2207.16,-207.53 2340.21,-229.19"/>
<text text-anchor="middle" x="2113.08" y="-250.1" font-family="Times,serif" font-size="18.00">selector:</text>
<text text-anchor="middle" x="2113.08" y="-230.1" font-family="Times,serif" font-size="18.00"> change_tool_to_defaultgripper</text>
</g>
<!-- sequence:
 insert_shaft3_into_gearbase_hole3&#45;&gt;selector:
 change_tool_to_defaultgripper -->
<g id="edge9" class="edge">
<title>sequence:
 insert_shaft3_into_gearbase_hole3&#45;&gt;selector:
 change_tool_to_defaultgripper</title>
<path fill="none" stroke="black" d="M2540.48,-327.14C2460.37,-311.84 2354.46,-291.61 2268.1,-275.11"/>
<polygon fill="black" stroke="black" points="2268.69,-271.66 2258.21,-273.22 2267.38,-278.54 2268.69,-271.66"/>
</g>
<!-- selector:
 pick_up_shaft3 -->
<g id="node16" class="node">
<title>selector:
 pick_up_shaft3</title>
<polygon fill="#8deeee" stroke="black" points="2599.94,-229.19 2599.94,-259.82 2529.14,-281.48 2429.02,-281.48 2358.23,-259.82 2358.23,-229.19 2429.02,-207.53 2529.14,-207.53 2599.94,-229.19"/>
<text text-anchor="middle" x="2479.08" y="-250.1" font-family="Times,serif" font-size="18.00">selector:</text>
<text text-anchor="middle" x="2479.08" y="-230.1" font-family="Times,serif" font-size="18.00"> pick_up_shaft3</text>
</g>
<!-- sequence:
 insert_shaft3_into_gearbase_hole3&#45;&gt;selector:
 pick_up_shaft3 -->
<g id="edge15" class="edge">
<title>sequence:
 insert_shaft3_into_gearbase_hole3&#45;&gt;selector:
 pick_up_shaft3</title>
<path fill="none" stroke="black" d="M2620.69,-326.95C2598.77,-314.34 2571.1,-298.43 2546.05,-284.02"/>
<polygon fill="black" stroke="black" points="2547.73,-280.95 2537.32,-279 2544.24,-287.02 2547.73,-280.95"/>
</g>
<!-- &quot;precondition:\n hold(left_hand, defaultgripper)&quot;* -->
<g id="node22" class="node">
<title>&quot;precondition:\n hold(left_hand, defaultgripper)&quot;*</title>
<ellipse fill="#ffec8b" stroke="black" cx="2843.08" cy="-244.5" rx="225.63" ry="33.88"/>
<text text-anchor="middle" x="2843.08" y="-250.1" font-family="Times,serif" font-size="18.00">&quot;precondition:</text>
<text text-anchor="middle" x="2843.08" y="-230.1" font-family="Times,serif" font-size="18.00"> hold(left_hand, defaultgripper)&quot;*</text>
</g>
<!-- sequence:
 insert_shaft3_into_gearbase_hole3&#45;&gt;&quot;precondition:\n hold(left_hand, defaultgripper)&quot;* -->
<g id="edge21" class="edge">
<title>sequence:
 insert_shaft3_into_gearbase_hole3&#45;&gt;&quot;precondition:\n hold(left_hand, defaultgripper)&quot;*</title>
<path fill="none" stroke="black" d="M2701.47,-326.95C2724.14,-313.91 2752.96,-297.34 2778.67,-282.55"/>
<polygon fill="black" stroke="black" points="2780.69,-285.42 2787.62,-277.4 2777.2,-279.35 2780.69,-285.42"/>
</g>
<!-- precondition:
 hold(defaultgripper, shaft3) -->
<g id="node23" class="node">
<title>precondition:
 hold(defaultgripper, shaft3)</title>
<ellipse fill="#ffec8b" stroke="black" cx="3279.08" cy="-244.5" rx="192.17" ry="33.88"/>
<text text-anchor="middle" x="3279.08" y="-250.1" font-family="Times,serif" font-size="18.00">precondition:</text>
<text text-anchor="middle" x="3279.08" y="-230.1" font-family="Times,serif" font-size="18.00"> hold(defaultgripper, shaft3)</text>
</g>
<!-- sequence:
 insert_shaft3_into_gearbase_hole3&#45;&gt;precondition:
 hold(defaultgripper, shaft3) -->
<g id="edge22" class="edge">
<title>sequence:
 insert_shaft3_into_gearbase_hole3&#45;&gt;precondition:
 hold(defaultgripper, shaft3)</title>
<path fill="none" stroke="black" d="M2803.01,-327.15C2883.7,-313.95 2986.59,-296.93 3078.08,-281.24 3097.13,-277.97 3117.19,-274.47 3136.96,-270.99"/>
<polygon fill="black" stroke="black" points="3137.71,-274.41 3146.95,-269.23 3136.49,-267.52 3137.71,-274.41"/>
</g>
<!-- action:
 insert(left_hand, defaultgripper, shaft3, gearbase_hole3) -->
<g id="node24" class="node">
<title>action:
 insert(left_hand, defaultgripper, shaft3, gearbase_hole3)</title>
<ellipse fill="lightgreen" stroke="black" cx="3866.08" cy="-244.5" rx="376.78" ry="33.88"/>
<text text-anchor="middle" x="3866.08" y="-250.1" font-family="Times,serif" font-size="18.00">action:</text>
<text text-anchor="middle" x="3866.08" y="-230.1" font-family="Times,serif" font-size="18.00"> insert(left_hand, defaultgripper, shaft3, gearbase_hole3)</text>
</g>
<!-- sequence:
 insert_shaft3_into_gearbase_hole3&#45;&gt;action:
 insert(left_hand, defaultgripper, shaft3, gearbase_hole3) -->
<g id="edge23" class="edge">
<title>sequence:
 insert_shaft3_into_gearbase_hole3&#45;&gt;action:
 insert(left_hand, defaultgripper, shaft3, gearbase_hole3)</title>
<path fill="none" stroke="black" d="M2828.17,-336.53C2993.7,-322.9 3254.44,-301.18 3480.08,-281.24 3519.02,-277.8 3560.16,-274.08 3600.5,-270.38"/>
<polygon fill="black" stroke="black" points="3600.82,-273.87 3610.46,-269.47 3600.19,-266.9 3600.82,-273.87"/>
</g>
<!-- target:
 is_empty(parallelgripper) -->
<g id="node5" class="node">
<title>target:
 is_empty(parallelgripper)</title>
<ellipse fill="#ffec8b" stroke="black" cx="615.08" cy="-137.82" rx="178.8" ry="33.88"/>
<text text-anchor="middle" x="615.08" y="-143.42" font-family="Times,serif" font-size="18.00">target:</text>
<text text-anchor="middle" x="615.08" y="-123.42" font-family="Times,serif" font-size="18.00"> is_empty(parallelgripper)</text>
</g>
<!-- selector:
 put_down_gear1&#45;&gt;target:
 is_empty(parallelgripper) -->
<g id="edge4" class="edge">
<title>selector:
 put_down_gear1&#45;&gt;target:
 is_empty(parallelgripper)</title>
<path fill="none" stroke="black" d="M818.53,-214.34C783.07,-201.18 741.02,-185.57 704.37,-171.97"/>
<polygon fill="black" stroke="black" points="705.27,-168.57 694.68,-168.37 702.84,-175.13 705.27,-168.57"/>
</g>
<!-- sequence:
 put_down_gear1 -->
<g id="node6" class="node">
<title>sequence:
 put_down_gear1</title>
<polygon fill="#ff7f24" stroke="black" points="982.58,-161.82 811.58,-161.82 811.58,-113.82 982.58,-113.82 982.58,-161.82"/>
<text text-anchor="middle" x="897.08" y="-143.42" font-family="Times,serif" font-size="18.00">sequence:</text>
<text text-anchor="middle" x="897.08" y="-123.42" font-family="Times,serif" font-size="18.00"> put_down_gear1</text>
</g>
<!-- selector:
 put_down_gear1&#45;&gt;sequence:
 put_down_gear1 -->
<g id="edge5" class="edge">
<title>selector:
 put_down_gear1&#45;&gt;sequence:
 put_down_gear1</title>
<path fill="none" stroke="black" d="M897.08,-207.48C897.08,-196.09 897.08,-183.57 897.08,-172.36"/>
<polygon fill="black" stroke="black" points="900.58,-172.11 897.08,-162.11 893.58,-172.11 900.58,-172.11"/>
</g>
<!-- precondition:
 hold(left_hand, parallelgripper) -->
<g id="node7" class="node">
<title>precondition:
 hold(left_hand, parallelgripper)</title>
<ellipse fill="#ffec8b" stroke="black" cx="217.08" cy="-33.94" rx="217.16" ry="33.88"/>
<text text-anchor="middle" x="217.08" y="-39.54" font-family="Times,serif" font-size="18.00">precondition:</text>
<text text-anchor="middle" x="217.08" y="-19.54" font-family="Times,serif" font-size="18.00"> hold(left_hand, parallelgripper)</text>
</g>
<!-- sequence:
 put_down_gear1&#45;&gt;precondition:
 hold(left_hand, parallelgripper) -->
<g id="edge6" class="edge">
<title>sequence:
 put_down_gear1&#45;&gt;precondition:
 hold(left_hand, parallelgripper)</title>
<path fill="none" stroke="black" d="M838.03,-113.74C826.57,-109.95 814.56,-106.43 803.08,-103.88 646.1,-69.05 602.68,-87.48 443.08,-67.88 422.53,-65.36 400.95,-62.49 379.63,-59.53"/>
<polygon fill="black" stroke="black" points="379.91,-56.04 369.52,-58.12 378.94,-62.97 379.91,-56.04"/>
</g>
<!-- precondition:
 hold(parallelgripper, gear1) -->
<g id="node8" class="node">
<title>precondition:
 hold(parallelgripper, gear1)</title>
<ellipse fill="#ffec8b" stroke="black" cx="644.08" cy="-33.94" rx="192.17" ry="33.88"/>
<text text-anchor="middle" x="644.08" y="-39.54" font-family="Times,serif" font-size="18.00">precondition:</text>
<text text-anchor="middle" x="644.08" y="-19.54" font-family="Times,serif" font-size="18.00"> hold(parallelgripper, gear1)</text>
</g>
<!-- sequence:
 put_down_gear1&#45;&gt;precondition:
 hold(parallelgripper, gear1) -->
<g id="edge7" class="edge">
<title>sequence:
 put_down_gear1&#45;&gt;precondition:
 hold(parallelgripper, gear1)</title>
<path fill="none" stroke="black" d="M839.67,-113.7C807.02,-100.55 765.5,-83.84 729.13,-69.19"/>
<polygon fill="black" stroke="black" points="730.09,-65.8 719.51,-65.32 727.48,-72.3 730.09,-65.8"/>
</g>
<!-- action:
 put_down(left_hand, parallelgripper, gear1) -->
<g id="node9" class="node">
<title>action:
 put_down(left_hand, parallelgripper, gear1)</title>
<ellipse fill="lightgreen" stroke="black" cx="1149.08" cy="-33.94" rx="294.73" ry="33.88"/>
<text text-anchor="middle" x="1149.08" y="-39.54" font-family="Times,serif" font-size="18.00">action:</text>
<text text-anchor="middle" x="1149.08" y="-19.54" font-family="Times,serif" font-size="18.00"> put_down(left_hand, parallelgripper, gear1)</text>
</g>
<!-- sequence:
 put_down_gear1&#45;&gt;action:
 put_down(left_hand, parallelgripper, gear1) -->
<g id="edge8" class="edge">
<title>sequence:
 put_down_gear1&#45;&gt;action:
 put_down(left_hand, parallelgripper, gear1)</title>
<path fill="none" stroke="black" d="M954.26,-113.7C985.72,-100.99 1025.44,-84.93 1060.79,-70.64"/>
<polygon fill="black" stroke="black" points="1062.2,-73.84 1070.16,-66.85 1059.57,-67.35 1062.2,-73.84"/>
</g>
<!-- target:
 hold(left_hand, defaultgripper) -->
<g id="node11" class="node">
<title>target:
 hold(left_hand, defaultgripper)</title>
<ellipse fill="#ffec8b" stroke="black" cx="1737.08" cy="-137.82" rx="213.59" ry="33.88"/>
<text text-anchor="middle" x="1737.08" y="-143.42" font-family="Times,serif" font-size="18.00">target:</text>
<text text-anchor="middle" x="1737.08" y="-123.42" font-family="Times,serif" font-size="18.00"> hold(left_hand, defaultgripper)</text>
</g>
<!-- selector:
 change_tool_to_defaultgripper&#45;&gt;target:
 hold(left_hand, defaultgripper) -->
<g id="edge10" class="edge">
<title>selector:
 change_tool_to_defaultgripper&#45;&gt;target:
 hold(left_hand, defaultgripper)</title>
<path fill="none" stroke="black" d="M1996.69,-211.1C1950.07,-198.12 1896.56,-183.22 1850.27,-170.33"/>
<polygon fill="black" stroke="black" points="1851.08,-166.93 1840.5,-167.62 1849.2,-173.67 1851.08,-166.93"/>
</g>
<!-- sequence:
 change_tool_to_defaultgripper -->
<g id="node12" class="node">
<title>sequence:
 change_tool_to_defaultgripper</title>
<polygon fill="#ff7f24" stroke="black" points="2265.58,-161.82 1968.58,-161.82 1968.58,-113.82 2265.58,-113.82 2265.58,-161.82"/>
<text text-anchor="middle" x="2117.08" y="-143.42" font-family="Times,serif" font-size="18.00">sequence:</text>
<text text-anchor="middle" x="2117.08" y="-123.42" font-family="Times,serif" font-size="18.00"> change_tool_to_defaultgripper</text>
</g>
<!-- selector:
 change_tool_to_defaultgripper&#45;&gt;sequence:
 change_tool_to_defaultgripper -->
<g id="edge11" class="edge">
<title>selector:
 change_tool_to_defaultgripper&#45;&gt;sequence:
 change_tool_to_defaultgripper</title>
<path fill="none" stroke="black" d="M2114.46,-207.48C2114.89,-196.09 2115.37,-183.57 2115.8,-172.36"/>
<polygon fill="black" stroke="black" points="2119.31,-172.24 2116.19,-162.11 2112.31,-171.97 2119.31,-172.24"/>
</g>
<!-- &quot;precondition:\n hold(left_hand, parallelgripper)&quot;* -->
<g id="node13" class="node">
<title>&quot;precondition:\n hold(left_hand, parallelgripper)&quot;*</title>
<ellipse fill="#ffec8b" stroke="black" cx="1691.08" cy="-33.94" rx="229.21" ry="33.88"/>
<text text-anchor="middle" x="1691.08" y="-39.54" font-family="Times,serif" font-size="18.00">&quot;precondition:</text>
<text text-anchor="middle" x="1691.08" y="-19.54" font-family="Times,serif" font-size="18.00"> hold(left_hand, parallelgripper)&quot;*</text>
</g>
<!-- sequence:
 change_tool_to_defaultgripper&#45;&gt;&quot;precondition:\n hold(left_hand, parallelgripper)&quot;* -->
<g id="edge12" class="edge">
<title>sequence:
 change_tool_to_defaultgripper&#45;&gt;&quot;precondition:\n hold(left_hand, parallelgripper)&quot;*</title>
<path fill="none" stroke="black" d="M2020.68,-113.77C1960.92,-99.47 1883.45,-80.95 1818.63,-65.45"/>
<polygon fill="black" stroke="black" points="1819.3,-62.01 1808.76,-63.08 1817.67,-68.81 1819.3,-62.01"/>
</g>
<!-- precondition:
 is_empty(parallelgripper) -->
<g id="node14" class="node">
<title>precondition:
 is_empty(parallelgripper)</title>
<ellipse fill="#ffec8b" stroke="black" cx="2117.08" cy="-33.94" rx="178.8" ry="33.88"/>
<text text-anchor="middle" x="2117.08" y="-39.54" font-family="Times,serif" font-size="18.00">precondition:</text>
<text text-anchor="middle" x="2117.08" y="-19.54" font-family="Times,serif" font-size="18.00"> is_empty(parallelgripper)</text>
</g>
<!-- sequence:
 change_tool_to_defaultgripper&#45;&gt;precondition:
 is_empty(parallelgripper) -->
<g id="edge13" class="edge">
<title>sequence:
 change_tool_to_defaultgripper&#45;&gt;precondition:
 is_empty(parallelgripper)</title>
<path fill="none" stroke="black" d="M2117.08,-113.7C2117.08,-103.16 2117.08,-90.31 2117.08,-78.08"/>
<polygon fill="black" stroke="black" points="2120.58,-78.01 2117.08,-68.01 2113.58,-78.01 2120.58,-78.01"/>
</g>
<!-- action:
 change_tool(left_hand, parallelgripper, defaultgripper) -->
<g id="node15" class="node">
<title>action:
 change_tool(left_hand, parallelgripper, defaultgripper)</title>
<ellipse fill="lightgreen" stroke="black" cx="2679.08" cy="-33.94" rx="364.73" ry="33.88"/>
<text text-anchor="middle" x="2679.08" y="-39.54" font-family="Times,serif" font-size="18.00">action:</text>
<text text-anchor="middle" x="2679.08" y="-19.54" font-family="Times,serif" font-size="18.00"> change_tool(left_hand, parallelgripper, defaultgripper)</text>
</g>
<!-- sequence:
 change_tool_to_defaultgripper&#45;&gt;action:
 change_tool(left_hand, parallelgripper, defaultgripper) -->
<g id="edge14" class="edge">
<title>sequence:
 change_tool_to_defaultgripper&#45;&gt;action:
 change_tool(left_hand, parallelgripper, defaultgripper)</title>
<path fill="none" stroke="black" d="M2227.41,-113.77C2244.37,-110.37 2261.68,-106.97 2278.08,-103.88 2348.55,-90.62 2426.18,-77.04 2494.22,-65.47"/>
<polygon fill="black" stroke="black" points="2494.91,-68.9 2504.18,-63.78 2493.74,-62 2494.91,-68.9"/>
</g>
<!-- target:
 hold(defaultgripper, shaft3) -->
<g id="node17" class="node">
<title>target:
 hold(defaultgripper, shaft3)</title>
<ellipse fill="#ffec8b" stroke="black" cx="2479.08" cy="-137.82" rx="192.17" ry="33.88"/>
<text text-anchor="middle" x="2479.08" y="-143.42" font-family="Times,serif" font-size="18.00">target:</text>
<text text-anchor="middle" x="2479.08" y="-123.42" font-family="Times,serif" font-size="18.00"> hold(defaultgripper, shaft3)</text>
</g>
<!-- selector:
 pick_up_shaft3&#45;&gt;target:
 hold(defaultgripper, shaft3) -->
<g id="edge16" class="edge">
<title>selector:
 pick_up_shaft3&#45;&gt;target:
 hold(defaultgripper, shaft3)</title>
<path fill="none" stroke="black" d="M2479.08,-207.48C2479.08,-199.32 2479.08,-190.58 2479.08,-182.15"/>
<polygon fill="black" stroke="black" points="2482.58,-182.1 2479.08,-172.1 2475.58,-182.1 2482.58,-182.1"/>
</g>
<!-- sequence:
 pick_up_shaft3 -->
<g id="node18" class="node">
<title>sequence:
 pick_up_shaft3</title>
<polygon fill="#ff7f24" stroke="black" points="3557.08,-161.82 3399.08,-161.82 3399.08,-113.82 3557.08,-113.82 3557.08,-161.82"/>
<text text-anchor="middle" x="3478.08" y="-143.42" font-family="Times,serif" font-size="18.00">sequence:</text>
<text text-anchor="middle" x="3478.08" y="-123.42" font-family="Times,serif" font-size="18.00"> pick_up_shaft3</text>
</g>
<!-- selector:
 pick_up_shaft3&#45;&gt;sequence:
 pick_up_shaft3 -->
<g id="edge17" class="edge">
<title>selector:
 pick_up_shaft3&#45;&gt;sequence:
 pick_up_shaft3</title>
<path fill="none" stroke="black" d="M2562.86,-217.8C2577.81,-213.93 2593.32,-210.37 2608.08,-207.76 2890.23,-157.97 3230.25,-144.12 3388.69,-140.29"/>
<polygon fill="black" stroke="black" points="3388.95,-143.78 3398.87,-140.05 3388.79,-136.78 3388.95,-143.78"/>
</g>
<!-- precondition:
 hold(left_hand, defaultgripper) -->
<g id="node19" class="node">
<title>precondition:
 hold(left_hand, defaultgripper)</title>
<ellipse fill="#ffec8b" stroke="black" cx="3275.08" cy="-33.94" rx="213.59" ry="33.88"/>
<text text-anchor="middle" x="3275.08" y="-39.54" font-family="Times,serif" font-size="18.00">precondition:</text>
<text text-anchor="middle" x="3275.08" y="-19.54" font-family="Times,serif" font-size="18.00"> hold(left_hand, defaultgripper)</text>
</g>
<!-- sequence:
 pick_up_shaft3&#45;&gt;precondition:
 hold(left_hand, defaultgripper) -->
<g id="edge18" class="edge">
<title>sequence:
 pick_up_shaft3&#45;&gt;precondition:
 hold(left_hand, defaultgripper)</title>
<path fill="none" stroke="black" d="M3432.02,-113.7C3406.9,-101.1 3375.24,-85.21 3346.95,-71.01"/>
<polygon fill="black" stroke="black" points="3348.4,-67.82 3337.89,-66.46 3345.26,-74.08 3348.4,-67.82"/>
</g>
<!-- precondition:
 is_empty(defaultgripper) -->
<g id="node20" class="node">
<title>precondition:
 is_empty(defaultgripper)</title>
<ellipse fill="#ffec8b" stroke="black" cx="3682.08" cy="-33.94" rx="175.23" ry="33.88"/>
<text text-anchor="middle" x="3682.08" y="-39.54" font-family="Times,serif" font-size="18.00">precondition:</text>
<text text-anchor="middle" x="3682.08" y="-19.54" font-family="Times,serif" font-size="18.00"> is_empty(defaultgripper)</text>
</g>
<!-- sequence:
 pick_up_shaft3&#45;&gt;precondition:
 is_empty(defaultgripper) -->
<g id="edge19" class="edge">
<title>sequence:
 pick_up_shaft3&#45;&gt;precondition:
 is_empty(defaultgripper)</title>
<path fill="none" stroke="black" d="M3524.37,-113.7C3549.94,-100.94 3582.24,-84.81 3610.94,-70.47"/>
<polygon fill="black" stroke="black" points="3612.73,-73.49 3620.12,-65.89 3609.61,-67.23 3612.73,-73.49"/>
</g>
<!-- action:
 pick_up(left_hand, defaultgripper, shaft3) -->
<g id="node21" class="node">
<title>action:
 pick_up(left_hand, defaultgripper, shaft3)</title>
<ellipse fill="lightgreen" stroke="black" cx="4157.08" cy="-33.94" rx="281.36" ry="33.88"/>
<text text-anchor="middle" x="4157.08" y="-39.54" font-family="Times,serif" font-size="18.00">action:</text>
<text text-anchor="middle" x="4157.08" y="-19.54" font-family="Times,serif" font-size="18.00"> pick_up(left_hand, defaultgripper, shaft3)</text>
</g>
<!-- sequence:
 pick_up_shaft3&#45;&gt;action:
 pick_up(left_hand, defaultgripper, shaft3) -->
<g id="edge20" class="edge">
<title>sequence:
 pick_up_shaft3&#45;&gt;action:
 pick_up(left_hand, defaultgripper, shaft3)</title>
<path fill="none" stroke="black" d="M3557.3,-124.94C3658.92,-109.69 3838.29,-82.78 3974.48,-62.34"/>
<polygon fill="black" stroke="black" points="3975.25,-65.76 3984.62,-60.82 3974.21,-58.84 3975.25,-65.76"/>
</g>
</g>
</svg>
