<?xml version="1.0" encoding="UTF-8" standalone="no"?>
<!DOCTYPE svg PUBLIC "-//W3C//DTD SVG 1.1//EN"
 "http://www.w3.org/Graphics/SVG/1.1/DTD/svg11.dtd">
<!-- Generated by graphviz version 2.43.0 (0)
 -->
<!-- Title: pastafarianism Pages: 1 -->
<svg width="2653pt" height="503pt"
 viewBox="0.00 0.00 2652.70 502.60" xmlns="http://www.w3.org/2000/svg" xmlns:xlink="http://www.w3.org/1999/xlink">
<g id="graph0" class="graph" transform="scale(1 1) rotate(0) translate(4 498.6)">
<title>pastafarianism</title>
<polygon fill="white" stroke="transparent" points="-4,4 -4,-498.6 2648.7,-498.6 2648.7,4 -4,4"/>
<!-- selector:
 insert(left_hand, outwardgripper, gear2, shaft2) -->
<g id="node1" class="node">
<title>selector:
 insert(left_hand, outwardgripper, gear2, shaft2)</title>
<polygon fill="#8deeee" stroke="black" points="1580.34,-442.54 1580.34,-473.18 1375.89,-494.84 1086.76,-494.84 882.31,-473.18 882.31,-442.54 1086.76,-420.88 1375.89,-420.88 1580.34,-442.54"/>
<text text-anchor="middle" x="1231.32" y="-463.46" font-family="Times,serif" font-size="18.00">selector:</text>
<text text-anchor="middle" x="1231.32" y="-443.46" font-family="Times,serif" font-size="18.00"> insert(left_hand, outwardgripper, gear2, shaft2)</text>
</g>
<!-- target:
 is_inserted_to(gear2, shaft2) -->
<g id="node2" class="node">
<title>target:
 is_inserted_to(gear2, shaft2)</title>
<ellipse fill="#ffec8b" stroke="black" cx="1009.32" cy="-351.18" rx="198.89" ry="33.88"/>
<text text-anchor="middle" x="1009.32" y="-356.78" font-family="Times,serif" font-size="18.00">target:</text>
<text text-anchor="middle" x="1009.32" y="-336.78" font-family="Times,serif" font-size="18.00"> is_inserted_to(gear2, shaft2)</text>
</g>
<!-- selector:
 insert(left_hand, outwardgripper, gear2, shaft2)&#45;&gt;target:
 is_inserted_to(gear2, shaft2) -->
<g id="edge1" class="edge">
<title>selector:
 insert(left_hand, outwardgripper, gear2, shaft2)&#45;&gt;target:
 is_inserted_to(gear2, shaft2)</title>
<path fill="none" stroke="black" d="M1155.24,-420.98C1132.4,-410.21 1107.37,-398.41 1084.59,-387.67"/>
<polygon fill="black" stroke="black" points="1085.85,-384.39 1075.31,-383.29 1082.86,-390.73 1085.85,-384.39"/>
</g>
<!-- sequence:
 insert(left_hand, outwardgripper, gear2, shaft2) -->
<g id="node3" class="node">
<title>sequence:
 insert(left_hand, outwardgripper, gear2, shaft2)</title>
<polygon fill="#ff7f24" stroke="black" points="1682.32,-375.18 1226.32,-375.18 1226.32,-327.18 1682.32,-327.18 1682.32,-375.18"/>
<text text-anchor="middle" x="1454.32" y="-356.78" font-family="Times,serif" font-size="18.00">sequence:</text>
<text text-anchor="middle" x="1454.32" y="-336.78" font-family="Times,serif" font-size="18.00"> insert(left_hand, outwardgripper, gear2, shaft2)</text>
</g>
<!-- selector:
 insert(left_hand, outwardgripper, gear2, shaft2)&#45;&gt;sequence:
 insert(left_hand, outwardgripper, gear2, shaft2) -->
<g id="edge2" class="edge">
<title>selector:
 insert(left_hand, outwardgripper, gear2, shaft2)&#45;&gt;sequence:
 insert(left_hand, outwardgripper, gear2, shaft2)</title>
<path fill="none" stroke="black" d="M1307.76,-420.98C1336.63,-407.43 1368.99,-392.24 1395.95,-379.58"/>
<polygon fill="black" stroke="black" points="1397.68,-382.64 1405.25,-375.22 1394.71,-376.3 1397.68,-382.64"/>
</g>
<!-- selector:
 change_tool(left_hand, parallelgripper, outwardgripper) -->
<g id="node4" class="node">
<title>selector:
 change_tool(left_hand, parallelgripper, outwardgripper)</title>
<polygon fill="#8deeee" stroke="black" points="1126.52,-229.19 1126.52,-259.82 890.33,-281.48 556.31,-281.48 320.13,-259.82 320.13,-229.19 556.31,-207.53 890.33,-207.53 1126.52,-229.19"/>
<text text-anchor="middle" x="723.32" y="-250.1" font-family="Times,serif" font-size="18.00">selector:</text>
<text text-anchor="middle" x="723.32" y="-230.1" font-family="Times,serif" font-size="18.00"> change_tool(left_hand, parallelgripper, outwardgripper)</text>
</g>
<!-- sequence:
 insert(left_hand, outwardgripper, gear2, shaft2)&#45;&gt;selector:
 change_tool(left_hand, parallelgripper, outwardgripper) -->
<g id="edge3" class="edge">
<title>sequence:
 insert(left_hand, outwardgripper, gear2, shaft2)&#45;&gt;selector:
 change_tool(left_hand, parallelgripper, outwardgripper)</title>
<path fill="none" stroke="black" d="M1293.45,-327.14C1193.17,-312.78 1062.57,-294.08 951.68,-278.2"/>
<polygon fill="black" stroke="black" points="952.09,-274.73 941.69,-276.77 951.09,-281.65 952.09,-274.73"/>
</g>
<!-- selector:
 pick_up(left_hand, outwardgripper, gear2) -->
<g id="node10" class="node">
<title>selector:
 pick_up(left_hand, outwardgripper, gear2)</title>
<polygon fill="#8deeee" stroke="black" points="1764.27,-229.19 1764.27,-259.82 1582.71,-281.48 1325.94,-281.48 1144.38,-259.82 1144.38,-229.19 1325.94,-207.53 1582.71,-207.53 1764.27,-229.19"/>
<text text-anchor="middle" x="1454.32" y="-250.1" font-family="Times,serif" font-size="18.00">selector:</text>
<text text-anchor="middle" x="1454.32" y="-230.1" font-family="Times,serif" font-size="18.00"> pick_up(left_hand, outwardgripper, gear2)</text>
</g>
<!-- sequence:
 insert(left_hand, outwardgripper, gear2, shaft2)&#45;&gt;selector:
 pick_up(left_hand, outwardgripper, gear2) -->
<g id="edge9" class="edge">
<title>sequence:
 insert(left_hand, outwardgripper, gear2, shaft2)&#45;&gt;selector:
 pick_up(left_hand, outwardgripper, gear2)</title>
<path fill="none" stroke="black" d="M1454.32,-326.95C1454.32,-316.5 1454.32,-303.79 1454.32,-291.54"/>
<polygon fill="black" stroke="black" points="1457.82,-291.42 1454.32,-281.42 1450.82,-291.42 1457.82,-291.42"/>
</g>
<!-- action:
 insert(left_hand, outwardgripper, gear2, shaft2) -->
<g id="node15" class="node">
<title>action:
 insert(left_hand, outwardgripper, gear2, shaft2)</title>
<ellipse fill="lightgreen" stroke="black" cx="2104.32" cy="-244.5" rx="322.38" ry="33.88"/>
<text text-anchor="middle" x="2104.32" y="-250.1" font-family="Times,serif" font-size="18.00">action:</text>
<text text-anchor="middle" x="2104.32" y="-230.1" font-family="Times,serif" font-size="18.00"> insert(left_hand, outwardgripper, gear2, shaft2)</text>
</g>
<!-- sequence:
 insert(left_hand, outwardgripper, gear2, shaft2)&#45;&gt;action:
 insert(left_hand, outwardgripper, gear2, shaft2) -->
<g id="edge14" class="edge">
<title>sequence:
 insert(left_hand, outwardgripper, gear2, shaft2)&#45;&gt;action:
 insert(left_hand, outwardgripper, gear2, shaft2)</title>
<path fill="none" stroke="black" d="M1597.37,-327.14C1692.87,-311.76 1819.3,-291.4 1922,-274.86"/>
<polygon fill="black" stroke="black" points="1922.87,-278.27 1932.18,-273.22 1921.75,-271.36 1922.87,-278.27"/>
</g>
<!-- target:
 hold(left_hand, outwardgripper) -->
<g id="node5" class="node">
<title>target:
 hold(left_hand, outwardgripper)</title>
<ellipse fill="#ffec8b" stroke="black" cx="221.32" cy="-137.82" rx="221.15" ry="33.88"/>
<text text-anchor="middle" x="221.32" y="-143.42" font-family="Times,serif" font-size="18.00">target:</text>
<text text-anchor="middle" x="221.32" y="-123.42" font-family="Times,serif" font-size="18.00"> hold(left_hand, outwardgripper)</text>
</g>
<!-- selector:
 change_tool(left_hand, parallelgripper, outwardgripper)&#45;&gt;target:
 hold(left_hand, outwardgripper) -->
<g id="edge4" class="edge">
<title>selector:
 change_tool(left_hand, parallelgripper, outwardgripper)&#45;&gt;target:
 hold(left_hand, outwardgripper)</title>
<path fill="none" stroke="black" d="M552.32,-207.84C489.47,-194.74 419.15,-180.08 359.55,-167.65"/>
<polygon fill="black" stroke="black" points="360.2,-164.21 349.69,-165.59 358.77,-171.06 360.2,-164.21"/>
</g>
<!-- sequence:
 change_tool(left_hand, parallelgripper, outwardgripper) -->
<g id="node6" class="node">
<title>sequence:
 change_tool(left_hand, parallelgripper, outwardgripper)</title>
<polygon fill="#ff7f24" stroke="black" points="987.82,-161.82 460.82,-161.82 460.82,-113.82 987.82,-113.82 987.82,-161.82"/>
<text text-anchor="middle" x="724.32" y="-143.42" font-family="Times,serif" font-size="18.00">sequence:</text>
<text text-anchor="middle" x="724.32" y="-123.42" font-family="Times,serif" font-size="18.00"> change_tool(left_hand, parallelgripper, outwardgripper)</text>
</g>
<!-- selector:
 change_tool(left_hand, parallelgripper, outwardgripper)&#45;&gt;sequence:
 change_tool(left_hand, parallelgripper, outwardgripper) -->
<g id="edge5" class="edge">
<title>selector:
 change_tool(left_hand, parallelgripper, outwardgripper)&#45;&gt;sequence:
 change_tool(left_hand, parallelgripper, outwardgripper)</title>
<path fill="none" stroke="black" d="M723.67,-207.48C723.78,-196.09 723.9,-183.57 724,-172.36"/>
<polygon fill="black" stroke="black" points="727.51,-172.14 724.1,-162.11 720.51,-172.08 727.51,-172.14"/>
</g>
<!-- precondition:
 hold(left_hand, parallelgripper) -->
<g id="node7" class="node">
<title>precondition:
 hold(left_hand, parallelgripper)</title>
<ellipse fill="#ffec8b" stroke="black" cx="310.32" cy="-33.94" rx="217.16" ry="33.88"/>
<text text-anchor="middle" x="310.32" y="-39.54" font-family="Times,serif" font-size="18.00">precondition:</text>
<text text-anchor="middle" x="310.32" y="-19.54" font-family="Times,serif" font-size="18.00"> hold(left_hand, parallelgripper)</text>
</g>
<!-- sequence:
 change_tool(left_hand, parallelgripper, outwardgripper)&#45;&gt;precondition:
 hold(left_hand, parallelgripper) -->
<g id="edge6" class="edge">
<title>sequence:
 change_tool(left_hand, parallelgripper, outwardgripper)&#45;&gt;precondition:
 hold(left_hand, parallelgripper)</title>
<path fill="none" stroke="black" d="M630.64,-113.77C572.45,-99.45 497,-80.88 433.94,-65.36"/>
<polygon fill="black" stroke="black" points="434.47,-61.89 423.93,-62.9 432.8,-68.69 434.47,-61.89"/>
</g>
<!-- precondition:
 is_empty(parallelgripper) -->
<g id="node8" class="node">
<title>precondition:
 is_empty(parallelgripper)</title>
<ellipse fill="#ffec8b" stroke="black" cx="724.32" cy="-33.94" rx="178.8" ry="33.88"/>
<text text-anchor="middle" x="724.32" y="-39.54" font-family="Times,serif" font-size="18.00">precondition:</text>
<text text-anchor="middle" x="724.32" y="-19.54" font-family="Times,serif" font-size="18.00"> is_empty(parallelgripper)</text>
</g>
<!-- sequence:
 change_tool(left_hand, parallelgripper, outwardgripper)&#45;&gt;precondition:
 is_empty(parallelgripper) -->
<g id="edge7" class="edge">
<title>sequence:
 change_tool(left_hand, parallelgripper, outwardgripper)&#45;&gt;precondition:
 is_empty(parallelgripper)</title>
<path fill="none" stroke="black" d="M724.32,-113.7C724.32,-103.16 724.32,-90.31 724.32,-78.08"/>
<polygon fill="black" stroke="black" points="727.82,-78.01 724.32,-68.01 720.82,-78.01 727.82,-78.01"/>
</g>
<!-- action:
 change_tool(left_hand, parallelgripper, outwardgripper) -->
<g id="node9" class="node">
<title>action:
 change_tool(left_hand, parallelgripper, outwardgripper)</title>
<ellipse fill="lightgreen" stroke="black" cx="1294.32" cy="-33.94" rx="372.79" ry="33.88"/>
<text text-anchor="middle" x="1294.32" y="-39.54" font-family="Times,serif" font-size="18.00">action:</text>
<text text-anchor="middle" x="1294.32" y="-19.54" font-family="Times,serif" font-size="18.00"> change_tool(left_hand, parallelgripper, outwardgripper)</text>
</g>
<!-- sequence:
 change_tool(left_hand, parallelgripper, outwardgripper)&#45;&gt;action:
 change_tool(left_hand, parallelgripper, outwardgripper) -->
<g id="edge8" class="edge">
<title>sequence:
 change_tool(left_hand, parallelgripper, outwardgripper)&#45;&gt;action:
 change_tool(left_hand, parallelgripper, outwardgripper)</title>
<path fill="none" stroke="black" d="M853.31,-113.77C932.05,-99.69 1033.75,-81.52 1119.65,-66.16"/>
<polygon fill="black" stroke="black" points="1120.28,-69.61 1129.51,-64.4 1119.05,-62.72 1120.28,-69.61"/>
</g>
<!-- target:
 hold(outwardgripper, gear2) -->
<g id="node11" class="node">
<title>target:
 hold(outwardgripper, gear2)</title>
<ellipse fill="#ffec8b" stroke="black" cx="1453.32" cy="-137.82" rx="196.65" ry="33.88"/>
<text text-anchor="middle" x="1453.32" y="-143.42" font-family="Times,serif" font-size="18.00">target:</text>
<text text-anchor="middle" x="1453.32" y="-123.42" font-family="Times,serif" font-size="18.00"> hold(outwardgripper, gear2)</text>
</g>
<!-- selector:
 pick_up(left_hand, outwardgripper, gear2)&#45;&gt;target:
 hold(outwardgripper, gear2) -->
<g id="edge10" class="edge">
<title>selector:
 pick_up(left_hand, outwardgripper, gear2)&#45;&gt;target:
 hold(outwardgripper, gear2)</title>
<path fill="none" stroke="black" d="M1453.98,-207.48C1453.9,-199.32 1453.82,-190.58 1453.74,-182.15"/>
<polygon fill="black" stroke="black" points="1457.24,-182.07 1453.64,-172.1 1450.24,-182.13 1457.24,-182.07"/>
</g>
<!-- sequence:
 pick_up(left_hand, outwardgripper, gear2) -->
<g id="node12" class="node">
<title>sequence:
 pick_up(left_hand, outwardgripper, gear2)</title>
<polygon fill="#ff7f24" stroke="black" points="2072.82,-161.82 1667.82,-161.82 1667.82,-113.82 2072.82,-113.82 2072.82,-161.82"/>
<text text-anchor="middle" x="1870.32" y="-143.42" font-family="Times,serif" font-size="18.00">sequence:</text>
<text text-anchor="middle" x="1870.32" y="-123.42" font-family="Times,serif" font-size="18.00"> pick_up(left_hand, outwardgripper, gear2)</text>
</g>
<!-- selector:
 pick_up(left_hand, outwardgripper, gear2)&#45;&gt;sequence:
 pick_up(left_hand, outwardgripper, gear2) -->
<g id="edge11" class="edge">
<title>selector:
 pick_up(left_hand, outwardgripper, gear2)&#45;&gt;sequence:
 pick_up(left_hand, outwardgripper, gear2)</title>
<path fill="none" stroke="black" d="M1592.85,-208.65C1650.48,-194.14 1716.14,-177.62 1769.13,-164.29"/>
<polygon fill="black" stroke="black" points="1770.02,-167.67 1778.87,-161.84 1768.31,-160.88 1770.02,-167.67"/>
</g>
<!-- precondition:
 is_empty(outwardgripper) -->
<g id="node13" class="node">
<title>precondition:
 is_empty(outwardgripper)</title>
<ellipse fill="#ffec8b" stroke="black" cx="1870.32" cy="-33.94" rx="183.28" ry="33.88"/>
<text text-anchor="middle" x="1870.32" y="-39.54" font-family="Times,serif" font-size="18.00">precondition:</text>
<text text-anchor="middle" x="1870.32" y="-19.54" font-family="Times,serif" font-size="18.00"> is_empty(outwardgripper)</text>
</g>
<!-- sequence:
 pick_up(left_hand, outwardgripper, gear2)&#45;&gt;precondition:
 is_empty(outwardgripper) -->
<g id="edge12" class="edge">
<title>sequence:
 pick_up(left_hand, outwardgripper, gear2)&#45;&gt;precondition:
 is_empty(outwardgripper)</title>
<path fill="none" stroke="black" d="M1870.32,-113.7C1870.32,-103.16 1870.32,-90.31 1870.32,-78.08"/>
<polygon fill="black" stroke="black" points="1873.82,-78.01 1870.32,-68.01 1866.82,-78.01 1873.82,-78.01"/>
</g>
<!-- action:
 pick_up(left_hand, outwardgripper, gear2) -->
<g id="node14" class="node">
<title>action:
 pick_up(left_hand, outwardgripper, gear2)</title>
<ellipse fill="lightgreen" stroke="black" cx="2358.32" cy="-33.94" rx="286.26" ry="33.88"/>
<text text-anchor="middle" x="2358.32" y="-39.54" font-family="Times,serif" font-size="18.00">action:</text>
<text text-anchor="middle" x="2358.32" y="-19.54" font-family="Times,serif" font-size="18.00"> pick_up(left_hand, outwardgripper, gear2)</text>
</g>
<!-- sequence:
 pick_up(left_hand, outwardgripper, gear2)&#45;&gt;action:
 pick_up(left_hand, outwardgripper, gear2) -->
<g id="edge13" class="edge">
<title>sequence:
 pick_up(left_hand, outwardgripper, gear2)&#45;&gt;action:
 pick_up(left_hand, outwardgripper, gear2)</title>
<path fill="none" stroke="black" d="M1980.75,-113.77C2048.7,-99.58 2136.61,-81.23 2210.51,-65.8"/>
<polygon fill="black" stroke="black" points="2211.31,-69.21 2220.38,-63.74 2209.87,-62.36 2211.31,-69.21"/>
</g>
</g>
</svg>
