<?xml version="1.0" encoding="UTF-8" standalone="no"?>
<!DOCTYPE svg PUBLIC "-//W3C//DTD SVG 1.1//EN"
 "http://www.w3.org/Graphics/SVG/1.1/DTD/svg11.dtd">
<!-- Generated by graphviz version 2.43.0 (0)
 -->
<!-- Title: pastafarianism Pages: 1 -->
<svg width="4542pt" height="503pt"
 viewBox="0.00 0.00 4541.52 502.60" xmlns="http://www.w3.org/2000/svg" xmlns:xlink="http://www.w3.org/1999/xlink">
<g id="graph0" class="graph" transform="scale(1 1) rotate(0) translate(4 498.6)">
<title>pastafarianism</title>
<polygon fill="white" stroke="transparent" points="-4,4 -4,-498.6 4537.52,-498.6 4537.52,4 -4,4"/>
<!-- selector:
 insert_gear2_into_shaft2 -->
<g id="node1" class="node">
<title>selector:
 insert_gear2_into_shaft2</title>
<polygon fill="#8deeee" stroke="black" points="2051.85,-442.54 2051.85,-473.18 1942,-494.84 1786.65,-494.84 1676.79,-473.18 1676.79,-442.54 1786.65,-420.88 1942,-420.88 2051.85,-442.54"/>
<text text-anchor="middle" x="1864.32" y="-463.46" font-family="Times,serif" font-size="18.00">selector:</text>
<text text-anchor="middle" x="1864.32" y="-443.46" font-family="Times,serif" font-size="18.00"> insert_gear2_into_shaft2</text>
</g>
<!-- target:
 is_inserted_to(gear2, shaft2) -->
<g id="node2" class="node">
<title>target:
 is_inserted_to(gear2, shaft2)</title>
<ellipse fill="#ffec8b" stroke="black" cx="1695.32" cy="-351.18" rx="198.89" ry="33.88"/>
<text text-anchor="middle" x="1695.32" y="-356.78" font-family="Times,serif" font-size="18.00">target:</text>
<text text-anchor="middle" x="1695.32" y="-336.78" font-family="Times,serif" font-size="18.00"> is_inserted_to(gear2, shaft2)</text>
</g>
<!-- selector:
 insert_gear2_into_shaft2&#45;&gt;target:
 is_inserted_to(gear2, shaft2) -->
<g id="edge1" class="edge">
<title>selector:
 insert_gear2_into_shaft2&#45;&gt;target:
 is_inserted_to(gear2, shaft2)</title>
<path fill="none" stroke="black" d="M1806.16,-420.84C1789.74,-410.66 1771.84,-399.58 1755.31,-389.34"/>
<polygon fill="black" stroke="black" points="1757.15,-386.36 1746.81,-384.07 1753.47,-392.31 1757.15,-386.36"/>
</g>
<!-- sequence:
 insert_gear2_into_shaft2 -->
<g id="node3" class="node">
<title>sequence:
 insert_gear2_into_shaft2</title>
<polygon fill="#ff7f24" stroke="black" points="2156.82,-375.18 1911.82,-375.18 1911.82,-327.18 2156.82,-327.18 2156.82,-375.18"/>
<text text-anchor="middle" x="2034.32" y="-356.78" font-family="Times,serif" font-size="18.00">sequence:</text>
<text text-anchor="middle" x="2034.32" y="-336.78" font-family="Times,serif" font-size="18.00"> insert_gear2_into_shaft2</text>
</g>
<!-- selector:
 insert_gear2_into_shaft2&#45;&gt;sequence:
 insert_gear2_into_shaft2 -->
<g id="edge2" class="edge">
<title>selector:
 insert_gear2_into_shaft2&#45;&gt;sequence:
 insert_gear2_into_shaft2</title>
<path fill="none" stroke="black" d="M1922.83,-420.84C1944.16,-407.7 1967.97,-393.04 1988.09,-380.65"/>
<polygon fill="black" stroke="black" points="1990.08,-383.53 1996.76,-375.31 1986.41,-377.57 1990.08,-383.53"/>
</g>
<!-- selector:
 change_tool(left_hand, outwardgripper, parallelgripper) -->
<g id="node4" class="node">
<title>selector:
 change_tool(left_hand, outwardgripper, parallelgripper)</title>
<polygon fill="#8deeee" stroke="black" points="1333.52,-229.19 1333.52,-259.82 1097.33,-281.48 763.31,-281.48 527.13,-259.82 527.13,-229.19 763.31,-207.53 1097.33,-207.53 1333.52,-229.19"/>
<text text-anchor="middle" x="930.32" y="-250.1" font-family="Times,serif" font-size="18.00">selector:</text>
<text text-anchor="middle" x="930.32" y="-230.1" font-family="Times,serif" font-size="18.00"> change_tool(left_hand, outwardgripper, parallelgripper)</text>
</g>
<!-- sequence:
 insert_gear2_into_shaft2&#45;&gt;selector:
 change_tool(left_hand, outwardgripper, parallelgripper) -->
<g id="edge3" class="edge">
<title>sequence:
 insert_gear2_into_shaft2&#45;&gt;selector:
 change_tool(left_hand, outwardgripper, parallelgripper)</title>
<path fill="none" stroke="black" d="M1951.97,-327.17C1935.93,-323.35 1919.18,-319.8 1903.32,-317.24 1720.94,-287.81 1517.34,-270.44 1343.72,-260.19"/>
<polygon fill="black" stroke="black" points="1343.83,-256.69 1333.64,-259.6 1343.42,-263.68 1343.83,-256.69"/>
</g>
<!-- selector:
 pick_up_gear2 -->
<g id="node10" class="node">
<title>selector:
 pick_up_gear2</title>
<polygon fill="#8deeee" stroke="black" points="2151.53,-229.19 2151.53,-259.82 2082.87,-281.48 1985.78,-281.48 1917.12,-259.82 1917.12,-229.19 1985.78,-207.53 2082.87,-207.53 2151.53,-229.19"/>
<text text-anchor="middle" x="2034.32" y="-250.1" font-family="Times,serif" font-size="18.00">selector:</text>
<text text-anchor="middle" x="2034.32" y="-230.1" font-family="Times,serif" font-size="18.00"> pick_up_gear2</text>
</g>
<!-- sequence:
 insert_gear2_into_shaft2&#45;&gt;selector:
 pick_up_gear2 -->
<g id="edge9" class="edge">
<title>sequence:
 insert_gear2_into_shaft2&#45;&gt;selector:
 pick_up_gear2</title>
<path fill="none" stroke="black" d="M2034.32,-326.95C2034.32,-316.5 2034.32,-303.79 2034.32,-291.54"/>
<polygon fill="black" stroke="black" points="2037.82,-291.42 2034.32,-281.42 2030.82,-291.42 2037.82,-291.42"/>
</g>
<!-- selector:
 insert_gear2_into_shaft2_final -->
<g id="node16" class="node">
<title>selector:
 insert_gear2_into_shaft2_final</title>
<polygon fill="#8deeee" stroke="black" points="2955.89,-229.19 2955.89,-259.82 2823.76,-281.48 2636.89,-281.48 2504.76,-259.82 2504.76,-229.19 2636.89,-207.53 2823.76,-207.53 2955.89,-229.19"/>
<text text-anchor="middle" x="2730.32" y="-250.1" font-family="Times,serif" font-size="18.00">selector:</text>
<text text-anchor="middle" x="2730.32" y="-230.1" font-family="Times,serif" font-size="18.00"> insert_gear2_into_shaft2_final</text>
</g>
<!-- sequence:
 insert_gear2_into_shaft2&#45;&gt;selector:
 insert_gear2_into_shaft2_final -->
<g id="edge15" class="edge">
<title>sequence:
 insert_gear2_into_shaft2&#45;&gt;selector:
 insert_gear2_into_shaft2_final</title>
<path fill="none" stroke="black" d="M2157.15,-331.71C2268.1,-315.02 2432.56,-290.29 2556.9,-271.59"/>
<polygon fill="black" stroke="black" points="2557.54,-275.03 2566.91,-270.08 2556.5,-268.11 2557.54,-275.03"/>
</g>
<!-- target:
 hold(left_hand, parallelgripper) -->
<g id="node5" class="node">
<title>target:
 hold(left_hand, parallelgripper)</title>
<ellipse fill="#ffec8b" stroke="black" cx="431.32" cy="-137.82" rx="217.16" ry="33.88"/>
<text text-anchor="middle" x="431.32" y="-143.42" font-family="Times,serif" font-size="18.00">target:</text>
<text text-anchor="middle" x="431.32" y="-123.42" font-family="Times,serif" font-size="18.00"> hold(left_hand, parallelgripper)</text>
</g>
<!-- selector:
 change_tool(left_hand, outwardgripper, parallelgripper)&#45;&gt;target:
 hold(left_hand, parallelgripper) -->
<g id="edge4" class="edge">
<title>selector:
 change_tool(left_hand, outwardgripper, parallelgripper)&#45;&gt;target:
 hold(left_hand, parallelgripper)</title>
<path fill="none" stroke="black" d="M759.99,-207.77C697.41,-194.64 627.41,-179.96 568.15,-167.53"/>
<polygon fill="black" stroke="black" points="568.86,-164.1 558.36,-165.47 567.43,-170.95 568.86,-164.1"/>
</g>
<!-- sequence:
 change_tool(left_hand, outwardgripper, parallelgripper) -->
<g id="node6" class="node">
<title>sequence:
 change_tool(left_hand, outwardgripper, parallelgripper)</title>
<polygon fill="#ff7f24" stroke="black" points="1193.82,-161.82 666.82,-161.82 666.82,-113.82 1193.82,-113.82 1193.82,-161.82"/>
<text text-anchor="middle" x="930.32" y="-143.42" font-family="Times,serif" font-size="18.00">sequence:</text>
<text text-anchor="middle" x="930.32" y="-123.42" font-family="Times,serif" font-size="18.00"> change_tool(left_hand, outwardgripper, parallelgripper)</text>
</g>
<!-- selector:
 change_tool(left_hand, outwardgripper, parallelgripper)&#45;&gt;sequence:
 change_tool(left_hand, outwardgripper, parallelgripper) -->
<g id="edge5" class="edge">
<title>selector:
 change_tool(left_hand, outwardgripper, parallelgripper)&#45;&gt;sequence:
 change_tool(left_hand, outwardgripper, parallelgripper)</title>
<path fill="none" stroke="black" d="M930.32,-207.48C930.32,-196.09 930.32,-183.57 930.32,-172.36"/>
<polygon fill="black" stroke="black" points="933.82,-172.11 930.32,-162.11 926.82,-172.11 933.82,-172.11"/>
</g>
<!-- precondition:
 hold(left_hand, outwardgripper) -->
<g id="node7" class="node">
<title>precondition:
 hold(left_hand, outwardgripper)</title>
<ellipse fill="#ffec8b" stroke="black" cx="221.32" cy="-33.94" rx="221.15" ry="33.88"/>
<text text-anchor="middle" x="221.32" y="-39.54" font-family="Times,serif" font-size="18.00">precondition:</text>
<text text-anchor="middle" x="221.32" y="-19.54" font-family="Times,serif" font-size="18.00"> hold(left_hand, outwardgripper)</text>
</g>
<!-- sequence:
 change_tool(left_hand, outwardgripper, parallelgripper)&#45;&gt;precondition:
 hold(left_hand, outwardgripper) -->
<g id="edge6" class="edge">
<title>sequence:
 change_tool(left_hand, outwardgripper, parallelgripper)&#45;&gt;precondition:
 hold(left_hand, outwardgripper)</title>
<path fill="none" stroke="black" d="M769.88,-113.77C656.46,-97.47 504.73,-75.67 389.6,-59.12"/>
<polygon fill="black" stroke="black" points="390.02,-55.65 379.63,-57.69 389.03,-62.58 390.02,-55.65"/>
</g>
<!-- precondition:
 is_empty(outwardgripper) -->
<g id="node8" class="node">
<title>precondition:
 is_empty(outwardgripper)</title>
<ellipse fill="#ffec8b" stroke="black" cx="643.32" cy="-33.94" rx="183.28" ry="33.88"/>
<text text-anchor="middle" x="643.32" y="-39.54" font-family="Times,serif" font-size="18.00">precondition:</text>
<text text-anchor="middle" x="643.32" y="-19.54" font-family="Times,serif" font-size="18.00"> is_empty(outwardgripper)</text>
</g>
<!-- sequence:
 change_tool(left_hand, outwardgripper, parallelgripper)&#45;&gt;precondition:
 is_empty(outwardgripper) -->
<g id="edge7" class="edge">
<title>sequence:
 change_tool(left_hand, outwardgripper, parallelgripper)&#45;&gt;precondition:
 is_empty(outwardgripper)</title>
<path fill="none" stroke="black" d="M865.2,-113.7C826.84,-100.09 777.7,-82.64 735.41,-67.63"/>
<polygon fill="black" stroke="black" points="736.54,-64.32 725.95,-64.27 734.2,-70.92 736.54,-64.32"/>
</g>
<!-- action:
 change_tool(left_hand, outwardgripper, parallelgripper) -->
<g id="node9" class="node">
<title>action:
 change_tool(left_hand, outwardgripper, parallelgripper)</title>
<ellipse fill="lightgreen" stroke="black" cx="1217.32" cy="-33.94" rx="372.79" ry="33.88"/>
<text text-anchor="middle" x="1217.32" y="-39.54" font-family="Times,serif" font-size="18.00">action:</text>
<text text-anchor="middle" x="1217.32" y="-19.54" font-family="Times,serif" font-size="18.00"> change_tool(left_hand, outwardgripper, parallelgripper)</text>
</g>
<!-- sequence:
 change_tool(left_hand, outwardgripper, parallelgripper)&#45;&gt;action:
 change_tool(left_hand, outwardgripper, parallelgripper) -->
<g id="edge8" class="edge">
<title>sequence:
 change_tool(left_hand, outwardgripper, parallelgripper)&#45;&gt;action:
 change_tool(left_hand, outwardgripper, parallelgripper)</title>
<path fill="none" stroke="black" d="M995.45,-113.7C1031.51,-100.9 1077.09,-84.72 1117.54,-70.36"/>
<polygon fill="black" stroke="black" points="1118.91,-73.59 1127.17,-66.95 1116.57,-66.99 1118.91,-73.59"/>
</g>
<!-- target:
 hold(parallelgripper, gear2) -->
<g id="node11" class="node">
<title>target:
 hold(parallelgripper, gear2)</title>
<ellipse fill="#ffec8b" stroke="black" cx="1829.32" cy="-137.82" rx="192.17" ry="33.88"/>
<text text-anchor="middle" x="1829.32" y="-143.42" font-family="Times,serif" font-size="18.00">target:</text>
<text text-anchor="middle" x="1829.32" y="-123.42" font-family="Times,serif" font-size="18.00"> hold(parallelgripper, gear2)</text>
</g>
<!-- selector:
 pick_up_gear2&#45;&gt;target:
 hold(parallelgripper, gear2) -->
<g id="edge10" class="edge">
<title>selector:
 pick_up_gear2&#45;&gt;target:
 hold(parallelgripper, gear2)</title>
<path fill="none" stroke="black" d="M1971.98,-211.67C1949.21,-200.04 1923.29,-186.81 1899.85,-174.84"/>
<polygon fill="black" stroke="black" points="1901.16,-171.58 1890.66,-170.15 1897.98,-177.81 1901.16,-171.58"/>
</g>
<!-- sequence:
 pick_up(left_hand, parallelgripper, gear2) -->
<g id="node12" class="node">
<title>sequence:
 pick_up(left_hand, parallelgripper, gear2)</title>
<polygon fill="#ff7f24" stroke="black" points="2438.82,-161.82 2039.82,-161.82 2039.82,-113.82 2438.82,-113.82 2438.82,-161.82"/>
<text text-anchor="middle" x="2239.32" y="-143.42" font-family="Times,serif" font-size="18.00">sequence:</text>
<text text-anchor="middle" x="2239.32" y="-123.42" font-family="Times,serif" font-size="18.00"> pick_up(left_hand, parallelgripper, gear2)</text>
</g>
<!-- selector:
 pick_up_gear2&#45;&gt;sequence:
 pick_up(left_hand, parallelgripper, gear2) -->
<g id="edge11" class="edge">
<title>selector:
 pick_up_gear2&#45;&gt;sequence:
 pick_up(left_hand, parallelgripper, gear2)</title>
<path fill="none" stroke="black" d="M2096.67,-211.67C2124.92,-197.24 2158.02,-180.34 2185.21,-166.45"/>
<polygon fill="black" stroke="black" points="2186.88,-169.53 2194.2,-161.87 2183.7,-163.3 2186.88,-169.53"/>
</g>
<!-- precondition:
 hold(left_hand, parallelgripper) -->
<g id="node13" class="node">
<title>precondition:
 hold(left_hand, parallelgripper)</title>
<ellipse fill="#ffec8b" stroke="black" cx="1825.32" cy="-33.94" rx="217.16" ry="33.88"/>
<text text-anchor="middle" x="1825.32" y="-39.54" font-family="Times,serif" font-size="18.00">precondition:</text>
<text text-anchor="middle" x="1825.32" y="-19.54" font-family="Times,serif" font-size="18.00"> hold(left_hand, parallelgripper)</text>
</g>
<!-- sequence:
 pick_up(left_hand, parallelgripper, gear2)&#45;&gt;precondition:
 hold(left_hand, parallelgripper) -->
<g id="edge12" class="edge">
<title>sequence:
 pick_up(left_hand, parallelgripper, gear2)&#45;&gt;precondition:
 hold(left_hand, parallelgripper)</title>
<path fill="none" stroke="black" d="M2145.64,-113.77C2087.45,-99.45 2012,-80.88 1948.94,-65.36"/>
<polygon fill="black" stroke="black" points="1949.47,-61.89 1938.93,-62.9 1947.8,-68.69 1949.47,-61.89"/>
</g>
<!-- precondition:
 is_empty(parallelgripper) -->
<g id="node14" class="node">
<title>precondition:
 is_empty(parallelgripper)</title>
<ellipse fill="#ffec8b" stroke="black" cx="2239.32" cy="-33.94" rx="178.8" ry="33.88"/>
<text text-anchor="middle" x="2239.32" y="-39.54" font-family="Times,serif" font-size="18.00">precondition:</text>
<text text-anchor="middle" x="2239.32" y="-19.54" font-family="Times,serif" font-size="18.00"> is_empty(parallelgripper)</text>
</g>
<!-- sequence:
 pick_up(left_hand, parallelgripper, gear2)&#45;&gt;precondition:
 is_empty(parallelgripper) -->
<g id="edge13" class="edge">
<title>sequence:
 pick_up(left_hand, parallelgripper, gear2)&#45;&gt;precondition:
 is_empty(parallelgripper)</title>
<path fill="none" stroke="black" d="M2239.32,-113.7C2239.32,-103.16 2239.32,-90.31 2239.32,-78.08"/>
<polygon fill="black" stroke="black" points="2242.82,-78.01 2239.32,-68.01 2235.82,-78.01 2242.82,-78.01"/>
</g>
<!-- action:
 pick_up(left_hand, parallelgripper, gear2) -->
<g id="node15" class="node">
<title>action:
 pick_up(left_hand, parallelgripper, gear2)</title>
<ellipse fill="lightgreen" stroke="black" cx="2718.32" cy="-33.94" rx="282.27" ry="33.88"/>
<text text-anchor="middle" x="2718.32" y="-39.54" font-family="Times,serif" font-size="18.00">action:</text>
<text text-anchor="middle" x="2718.32" y="-19.54" font-family="Times,serif" font-size="18.00"> pick_up(left_hand, parallelgripper, gear2)</text>
</g>
<!-- sequence:
 pick_up(left_hand, parallelgripper, gear2)&#45;&gt;action:
 pick_up(left_hand, parallelgripper, gear2) -->
<g id="edge14" class="edge">
<title>sequence:
 pick_up(left_hand, parallelgripper, gear2)&#45;&gt;action:
 pick_up(left_hand, parallelgripper, gear2)</title>
<path fill="none" stroke="black" d="M2347.72,-113.77C2414.27,-99.61 2500.35,-81.3 2572.79,-65.89"/>
<polygon fill="black" stroke="black" points="2573.87,-69.24 2582.92,-63.74 2572.41,-62.4 2573.87,-69.24"/>
</g>
<!-- &quot;target:\n is_inserted_to(gear2, shaft2)&quot;* -->
<g id="node17" class="node">
<title>&quot;target:\n is_inserted_to(gear2, shaft2)&quot;*</title>
<ellipse fill="#ffec8b" stroke="black" cx="2730.32" cy="-137.82" rx="211.35" ry="33.88"/>
<text text-anchor="middle" x="2730.32" y="-143.42" font-family="Times,serif" font-size="18.00">&quot;target:</text>
<text text-anchor="middle" x="2730.32" y="-123.42" font-family="Times,serif" font-size="18.00"> is_inserted_to(gear2, shaft2)&quot;*</text>
</g>
<!-- selector:
 insert_gear2_into_shaft2_final&#45;&gt;&quot;target:\n is_inserted_to(gear2, shaft2)&quot;* -->
<g id="edge16" class="edge">
<title>selector:
 insert_gear2_into_shaft2_final&#45;&gt;&quot;target:\n is_inserted_to(gear2, shaft2)&quot;*</title>
<path fill="none" stroke="black" d="M2730.32,-207.48C2730.32,-199.32 2730.32,-190.58 2730.32,-182.15"/>
<polygon fill="black" stroke="black" points="2733.82,-182.1 2730.32,-172.1 2726.82,-182.1 2733.82,-182.1"/>
</g>
<!-- sequence:
 insert(left_hand, parallelgripper, gear2, shaft2) -->
<g id="node18" class="node">
<title>sequence:
 insert(left_hand, parallelgripper, gear2, shaft2)</title>
<polygon fill="#ff7f24" stroke="black" points="3691.32,-161.82 3241.32,-161.82 3241.32,-113.82 3691.32,-113.82 3691.32,-161.82"/>
<text text-anchor="middle" x="3466.32" y="-143.42" font-family="Times,serif" font-size="18.00">sequence:</text>
<text text-anchor="middle" x="3466.32" y="-123.42" font-family="Times,serif" font-size="18.00"> insert(left_hand, parallelgripper, gear2, shaft2)</text>
</g>
<!-- selector:
 insert_gear2_into_shaft2_final&#45;&gt;sequence:
 insert(left_hand, parallelgripper, gear2, shaft2) -->
<g id="edge17" class="edge">
<title>selector:
 insert_gear2_into_shaft2_final&#45;&gt;sequence:
 insert(left_hand, parallelgripper, gear2, shaft2)</title>
<path fill="none" stroke="black" d="M2898.26,-219.62C3016.79,-202.76 3175.12,-180.24 3294.51,-163.26"/>
<polygon fill="black" stroke="black" points="3295.08,-166.71 3304.49,-161.84 3294.1,-159.78 3295.08,-166.71"/>
</g>
<!-- &quot;precondition:\n hold(left_hand, parallelgripper)&quot;* -->
<g id="node19" class="node">
<title>&quot;precondition:\n hold(left_hand, parallelgripper)&quot;*</title>
<ellipse fill="#ffec8b" stroke="black" cx="3247.32" cy="-33.94" rx="229.21" ry="33.88"/>
<text text-anchor="middle" x="3247.32" y="-39.54" font-family="Times,serif" font-size="18.00">&quot;precondition:</text>
<text text-anchor="middle" x="3247.32" y="-19.54" font-family="Times,serif" font-size="18.00"> hold(left_hand, parallelgripper)&quot;*</text>
</g>
<!-- sequence:
 insert(left_hand, parallelgripper, gear2, shaft2)&#45;&gt;&quot;precondition:\n hold(left_hand, parallelgripper)&quot;* -->
<g id="edge18" class="edge">
<title>sequence:
 insert(left_hand, parallelgripper, gear2, shaft2)&#45;&gt;&quot;precondition:\n hold(left_hand, parallelgripper)&quot;*</title>
<path fill="none" stroke="black" d="M3416.63,-113.7C3389.41,-101.04 3355.08,-85.07 3324.46,-70.82"/>
<polygon fill="black" stroke="black" points="3325.63,-67.51 3315.08,-66.46 3322.68,-73.86 3325.63,-67.51"/>
</g>
<!-- precondition:
 hold(parallelgripper, gear2) -->
<g id="node20" class="node">
<title>precondition:
 hold(parallelgripper, gear2)</title>
<ellipse fill="#ffec8b" stroke="black" cx="3686.32" cy="-33.94" rx="192.17" ry="33.88"/>
<text text-anchor="middle" x="3686.32" y="-39.54" font-family="Times,serif" font-size="18.00">precondition:</text>
<text text-anchor="middle" x="3686.32" y="-19.54" font-family="Times,serif" font-size="18.00"> hold(parallelgripper, gear2)</text>
</g>
<!-- sequence:
 insert(left_hand, parallelgripper, gear2, shaft2)&#45;&gt;precondition:
 hold(parallelgripper, gear2) -->
<g id="edge19" class="edge">
<title>sequence:
 insert(left_hand, parallelgripper, gear2, shaft2)&#45;&gt;precondition:
 hold(parallelgripper, gear2)</title>
<path fill="none" stroke="black" d="M3516.25,-113.7C3544.05,-100.83 3579.25,-84.53 3610.4,-70.1"/>
<polygon fill="black" stroke="black" points="3611.89,-73.27 3619.5,-65.89 3608.95,-66.91 3611.89,-73.27"/>
</g>
<!-- action:
 insert(left_hand, parallelgripper, gear2, shaft2) -->
<g id="node21" class="node">
<title>action:
 insert(left_hand, parallelgripper, gear2, shaft2)</title>
<ellipse fill="lightgreen" stroke="black" cx="4215.32" cy="-33.94" rx="318.4" ry="33.88"/>
<text text-anchor="middle" x="4215.32" y="-39.54" font-family="Times,serif" font-size="18.00">action:</text>
<text text-anchor="middle" x="4215.32" y="-19.54" font-family="Times,serif" font-size="18.00"> insert(left_hand, parallelgripper, gear2, shaft2)</text>
</g>
<!-- sequence:
 insert(left_hand, parallelgripper, gear2, shaft2)&#45;&gt;action:
 insert(left_hand, parallelgripper, gear2, shaft2) -->
<g id="edge20" class="edge">
<title>sequence:
 insert(left_hand, parallelgripper, gear2, shaft2)&#45;&gt;action:
 insert(left_hand, parallelgripper, gear2, shaft2)</title>
<path fill="none" stroke="black" d="M3635.82,-113.77C3747.77,-98.54 3895.07,-78.5 4013.14,-62.44"/>
<polygon fill="black" stroke="black" points="4013.95,-65.87 4023.38,-61.05 4013,-58.93 4013.95,-65.87"/>
</g>
</g>
</svg>
