<?xml version="1.0" encoding="UTF-8" standalone="no"?>
<!DOCTYPE svg PUBLIC "-//W3C//DTD SVG 1.1//EN"
 "http://www.w3.org/Graphics/SVG/1.1/DTD/svg11.dtd">
<!-- Generated by graphviz version 2.43.0 (0)
 -->
<!-- Title: pastafarianism Pages: 1 -->
<svg width="2311pt" height="503pt"
 viewBox="0.00 0.00 2310.77 502.60" xmlns="http://www.w3.org/2000/svg" xmlns:xlink="http://www.w3.org/1999/xlink">
<g id="graph0" class="graph" transform="scale(1 1) rotate(0) translate(4 498.6)">
<title>pastafarianism</title>
<polygon fill="white" stroke="transparent" points="-4,4 -4,-498.6 2306.77,-498.6 2306.77,4 -4,4"/>
<!-- selector:
 insert(gear2, shaft2) -->
<g id="node1" class="node">
<title>selector:
 insert(gear2, shaft2)</title>
<polygon fill="#8deeee" stroke="black" points="1218.25,-442.54 1218.25,-473.18 1124.57,-494.84 992.08,-494.84 898.4,-473.18 898.4,-442.54 992.08,-420.88 1124.57,-420.88 1218.25,-442.54"/>
<text text-anchor="middle" x="1058.32" y="-463.46" font-family="Times,serif" font-size="18.00">selector:</text>
<text text-anchor="middle" x="1058.32" y="-443.46" font-family="Times,serif" font-size="18.00"> insert(gear2, shaft2)</text>
</g>
<!-- target:
 is_inserted_to(gear2, shaft2) -->
<g id="node2" class="node">
<title>target:
 is_inserted_to(gear2, shaft2)</title>
<ellipse fill="#ffec8b" stroke="black" cx="898.32" cy="-351.18" rx="198.89" ry="33.88"/>
<text text-anchor="middle" x="898.32" y="-356.78" font-family="Times,serif" font-size="18.00">target:</text>
<text text-anchor="middle" x="898.32" y="-336.78" font-family="Times,serif" font-size="18.00"> is_inserted_to(gear2, shaft2)</text>
</g>
<!-- selector:
 insert(gear2, shaft2)&#45;&gt;target:
 is_inserted_to(gear2, shaft2) -->
<g id="edge1" class="edge">
<title>selector:
 insert(gear2, shaft2)&#45;&gt;target:
 is_inserted_to(gear2, shaft2)</title>
<path fill="none" stroke="black" d="M1003.26,-420.84C987.93,-410.81 971.24,-399.89 955.78,-389.77"/>
<polygon fill="black" stroke="black" points="957.61,-386.79 947.33,-384.24 953.78,-392.65 957.61,-386.79"/>
</g>
<!-- sequence:
 insert(gear2, shaft2) -->
<g id="node3" class="node">
<title>sequence:
 insert(gear2, shaft2)</title>
<polygon fill="#ff7f24" stroke="black" points="1323.82,-375.18 1114.82,-375.18 1114.82,-327.18 1323.82,-327.18 1323.82,-375.18"/>
<text text-anchor="middle" x="1219.32" y="-356.78" font-family="Times,serif" font-size="18.00">sequence:</text>
<text text-anchor="middle" x="1219.32" y="-336.78" font-family="Times,serif" font-size="18.00"> insert(gear2, shaft2)</text>
</g>
<!-- selector:
 insert(gear2, shaft2)&#45;&gt;sequence:
 insert(gear2, shaft2) -->
<g id="edge2" class="edge">
<title>selector:
 insert(gear2, shaft2)&#45;&gt;sequence:
 insert(gear2, shaft2)</title>
<path fill="none" stroke="black" d="M1113.73,-420.84C1133.77,-407.81 1156.11,-393.28 1175.06,-380.96"/>
<polygon fill="black" stroke="black" points="1177.03,-383.85 1183.51,-375.47 1173.22,-377.98 1177.03,-383.85"/>
</g>
<!-- selector:
 pick_up(left_hand, outwardgripper, gear2) -->
<g id="node4" class="node">
<title>selector:
 pick_up(left_hand, outwardgripper, gear2)</title>
<polygon fill="#8deeee" stroke="black" points="744.27,-229.19 744.27,-259.82 562.71,-281.48 305.94,-281.48 124.38,-259.82 124.38,-229.19 305.94,-207.53 562.71,-207.53 744.27,-229.19"/>
<text text-anchor="middle" x="434.32" y="-250.1" font-family="Times,serif" font-size="18.00">selector:</text>
<text text-anchor="middle" x="434.32" y="-230.1" font-family="Times,serif" font-size="18.00"> pick_up(left_hand, outwardgripper, gear2)</text>
</g>
<!-- sequence:
 insert(gear2, shaft2)&#45;&gt;selector:
 pick_up(left_hand, outwardgripper, gear2) -->
<g id="edge3" class="edge">
<title>sequence:
 insert(gear2, shaft2)&#45;&gt;selector:
 pick_up(left_hand, outwardgripper, gear2)</title>
<path fill="none" stroke="black" d="M1147.47,-327.11C1133.91,-323.37 1119.76,-319.86 1106.32,-317.24 951.54,-287.05 910.13,-298.02 753.32,-281.24 724.82,-278.19 694.9,-274.92 665.27,-271.65"/>
<polygon fill="black" stroke="black" points="665.56,-268.16 655.24,-270.54 664.79,-275.12 665.56,-268.16"/>
</g>
<!-- &quot;precondition:\n hold(left_hand, outwardgripper)&quot;* -->
<g id="node10" class="node">
<title>&quot;precondition:\n hold(left_hand, outwardgripper)&quot;*</title>
<ellipse fill="#ffec8b" stroke="black" cx="995.32" cy="-244.5" rx="233.19" ry="33.88"/>
<text text-anchor="middle" x="995.32" y="-250.1" font-family="Times,serif" font-size="18.00">&quot;precondition:</text>
<text text-anchor="middle" x="995.32" y="-230.1" font-family="Times,serif" font-size="18.00"> hold(left_hand, outwardgripper)&quot;*</text>
</g>
<!-- sequence:
 insert(gear2, shaft2)&#45;&gt;&quot;precondition:\n hold(left_hand, outwardgripper)&quot;* -->
<g id="edge9" class="edge">
<title>sequence:
 insert(gear2, shaft2)&#45;&gt;&quot;precondition:\n hold(left_hand, outwardgripper)&quot;*</title>
<path fill="none" stroke="black" d="M1169.89,-327.08C1141.28,-313.71 1104.64,-296.59 1072.33,-281.49"/>
<polygon fill="black" stroke="black" points="1073.44,-278.14 1062.9,-277.08 1070.48,-284.49 1073.44,-278.14"/>
</g>
<!-- precondition:
 hold(outwardgripper, gear2) -->
<g id="node11" class="node">
<title>precondition:
 hold(outwardgripper, gear2)</title>
<ellipse fill="#ffec8b" stroke="black" cx="1443.32" cy="-244.5" rx="196.65" ry="33.88"/>
<text text-anchor="middle" x="1443.32" y="-250.1" font-family="Times,serif" font-size="18.00">precondition:</text>
<text text-anchor="middle" x="1443.32" y="-230.1" font-family="Times,serif" font-size="18.00"> hold(outwardgripper, gear2)</text>
</g>
<!-- sequence:
 insert(gear2, shaft2)&#45;&gt;precondition:
 hold(outwardgripper, gear2) -->
<g id="edge10" class="edge">
<title>sequence:
 insert(gear2, shaft2)&#45;&gt;precondition:
 hold(outwardgripper, gear2)</title>
<path fill="none" stroke="black" d="M1268.76,-327.08C1297.85,-313.49 1335.23,-296.02 1367.93,-280.74"/>
<polygon fill="black" stroke="black" points="1369.44,-283.89 1377.02,-276.49 1366.47,-277.55 1369.44,-283.89"/>
</g>
<!-- action:
 insert(left_hand, outwardgripper, gear2, shaft2) -->
<g id="node12" class="node">
<title>action:
 insert(left_hand, outwardgripper, gear2, shaft2)</title>
<ellipse fill="lightgreen" stroke="black" cx="1980.32" cy="-244.5" rx="322.38" ry="33.88"/>
<text text-anchor="middle" x="1980.32" y="-250.1" font-family="Times,serif" font-size="18.00">action:</text>
<text text-anchor="middle" x="1980.32" y="-230.1" font-family="Times,serif" font-size="18.00"> insert(left_hand, outwardgripper, gear2, shaft2)</text>
</g>
<!-- sequence:
 insert(gear2, shaft2)&#45;&gt;action:
 insert(left_hand, outwardgripper, gear2, shaft2) -->
<g id="edge11" class="edge">
<title>sequence:
 insert(gear2, shaft2)&#45;&gt;action:
 insert(left_hand, outwardgripper, gear2, shaft2)</title>
<path fill="none" stroke="black" d="M1323.94,-335.79C1440.73,-319.73 1632.5,-293.35 1778.68,-273.24"/>
<polygon fill="black" stroke="black" points="1779.25,-276.69 1788.68,-271.86 1778.3,-269.76 1779.25,-276.69"/>
</g>
<!-- target:
 hold(outwardgripper, gear2) -->
<g id="node5" class="node">
<title>target:
 hold(outwardgripper, gear2)</title>
<ellipse fill="#ffec8b" stroke="black" cx="226.32" cy="-137.82" rx="196.65" ry="33.88"/>
<text text-anchor="middle" x="226.32" y="-143.42" font-family="Times,serif" font-size="18.00">target:</text>
<text text-anchor="middle" x="226.32" y="-123.42" font-family="Times,serif" font-size="18.00"> hold(outwardgripper, gear2)</text>
</g>
<!-- selector:
 pick_up(left_hand, outwardgripper, gear2)&#45;&gt;target:
 hold(outwardgripper, gear2) -->
<g id="edge4" class="edge">
<title>selector:
 pick_up(left_hand, outwardgripper, gear2)&#45;&gt;target:
 hold(outwardgripper, gear2)</title>
<path fill="none" stroke="black" d="M363.03,-207.62C341.84,-196.96 318.62,-185.27 297.43,-174.61"/>
<polygon fill="black" stroke="black" points="299,-171.48 288.49,-170.11 295.85,-177.73 299,-171.48"/>
</g>
<!-- sequence:
 pick_up(left_hand, outwardgripper, gear2) -->
<g id="node6" class="node">
<title>sequence:
 pick_up(left_hand, outwardgripper, gear2)</title>
<polygon fill="#ff7f24" stroke="black" points="845.82,-161.82 440.82,-161.82 440.82,-113.82 845.82,-113.82 845.82,-161.82"/>
<text text-anchor="middle" x="643.32" y="-143.42" font-family="Times,serif" font-size="18.00">sequence:</text>
<text text-anchor="middle" x="643.32" y="-123.42" font-family="Times,serif" font-size="18.00"> pick_up(left_hand, outwardgripper, gear2)</text>
</g>
<!-- selector:
 pick_up(left_hand, outwardgripper, gear2)&#45;&gt;sequence:
 pick_up(left_hand, outwardgripper, gear2) -->
<g id="edge5" class="edge">
<title>selector:
 pick_up(left_hand, outwardgripper, gear2)&#45;&gt;sequence:
 pick_up(left_hand, outwardgripper, gear2)</title>
<path fill="none" stroke="black" d="M505.96,-207.62C532.9,-194.13 563.09,-179.01 588.29,-166.39"/>
<polygon fill="black" stroke="black" points="589.96,-169.47 597.33,-161.86 586.82,-163.21 589.96,-169.47"/>
</g>
<!-- precondition:
 hold(left_hand, outwardgripper) -->
<g id="node7" class="node">
<title>precondition:
 hold(left_hand, outwardgripper)</title>
<ellipse fill="#ffec8b" stroke="black" cx="221.32" cy="-33.94" rx="221.15" ry="33.88"/>
<text text-anchor="middle" x="221.32" y="-39.54" font-family="Times,serif" font-size="18.00">precondition:</text>
<text text-anchor="middle" x="221.32" y="-19.54" font-family="Times,serif" font-size="18.00"> hold(left_hand, outwardgripper)</text>
</g>
<!-- sequence:
 pick_up(left_hand, outwardgripper, gear2)&#45;&gt;precondition:
 hold(left_hand, outwardgripper) -->
<g id="edge6" class="edge">
<title>sequence:
 pick_up(left_hand, outwardgripper, gear2)&#45;&gt;precondition:
 hold(left_hand, outwardgripper)</title>
<path fill="none" stroke="black" d="M547.83,-113.77C488.39,-99.42 411.29,-80.8 346.93,-65.27"/>
<polygon fill="black" stroke="black" points="347.66,-61.84 337.12,-62.9 346.02,-68.65 347.66,-61.84"/>
</g>
<!-- precondition:
 is_empty(outwardgripper) -->
<g id="node8" class="node">
<title>precondition:
 is_empty(outwardgripper)</title>
<ellipse fill="#ffec8b" stroke="black" cx="643.32" cy="-33.94" rx="183.28" ry="33.88"/>
<text text-anchor="middle" x="643.32" y="-39.54" font-family="Times,serif" font-size="18.00">precondition:</text>
<text text-anchor="middle" x="643.32" y="-19.54" font-family="Times,serif" font-size="18.00"> is_empty(outwardgripper)</text>
</g>
<!-- sequence:
 pick_up(left_hand, outwardgripper, gear2)&#45;&gt;precondition:
 is_empty(outwardgripper) -->
<g id="edge7" class="edge">
<title>sequence:
 pick_up(left_hand, outwardgripper, gear2)&#45;&gt;precondition:
 is_empty(outwardgripper)</title>
<path fill="none" stroke="black" d="M643.32,-113.7C643.32,-103.16 643.32,-90.31 643.32,-78.08"/>
<polygon fill="black" stroke="black" points="646.82,-78.01 643.32,-68.01 639.82,-78.01 646.82,-78.01"/>
</g>
<!-- action:
 pick_up(left_hand, outwardgripper, gear2) -->
<g id="node9" class="node">
<title>action:
 pick_up(left_hand, outwardgripper, gear2)</title>
<ellipse fill="lightgreen" stroke="black" cx="1131.32" cy="-33.94" rx="286.26" ry="33.88"/>
<text text-anchor="middle" x="1131.32" y="-39.54" font-family="Times,serif" font-size="18.00">action:</text>
<text text-anchor="middle" x="1131.32" y="-19.54" font-family="Times,serif" font-size="18.00"> pick_up(left_hand, outwardgripper, gear2)</text>
</g>
<!-- sequence:
 pick_up(left_hand, outwardgripper, gear2)&#45;&gt;action:
 pick_up(left_hand, outwardgripper, gear2) -->
<g id="edge8" class="edge">
<title>sequence:
 pick_up(left_hand, outwardgripper, gear2)&#45;&gt;action:
 pick_up(left_hand, outwardgripper, gear2)</title>
<path fill="none" stroke="black" d="M753.75,-113.77C821.7,-99.58 909.61,-81.23 983.51,-65.8"/>
<polygon fill="black" stroke="black" points="984.31,-69.21 993.38,-63.74 982.87,-62.36 984.31,-69.21"/>
</g>
</g>
</svg>
