<?xml version="1.0" encoding="UTF-8" standalone="no"?>
<!DOCTYPE svg PUBLIC "-//W3C//DTD SVG 1.1//EN"
 "http://www.w3.org/Graphics/SVG/1.1/DTD/svg11.dtd">
<!-- Generated by graphviz version 2.43.0 (0)
 -->
<!-- Title: pastafarianism Pages: 1 -->
<svg width="4542pt" height="503pt"
 viewBox="0.00 0.00 4541.52 502.60" xmlns="http://www.w3.org/2000/svg" xmlns:xlink="http://www.w3.org/1999/xlink">
<g id="graph0" class="graph" transform="scale(1 1) rotate(0) translate(4 498.6)">
<title>pastafarianism</title>
<polygon fill="white" stroke="transparent" points="-4,4 -4,-498.6 4537.52,-498.6 4537.52,4 -4,4"/>
<!-- selector:
 insert_gear2_into_shaft2 -->
<g id="node1" class="node">
<title>selector:
 insert_gear2_into_shaft2</title>
<polygon fill="#8deeee" stroke="black" points="1933.85,-442.54 1933.85,-473.18 1824,-494.84 1668.65,-494.84 1558.79,-473.18 1558.79,-442.54 1668.65,-420.88 1824,-420.88 1933.85,-442.54"/>
<text text-anchor="middle" x="1746.32" y="-463.46" font-family="Times,serif" font-size="18.00">selector:</text>
<text text-anchor="middle" x="1746.32" y="-443.46" font-family="Times,serif" font-size="18.00"> insert_gear2_into_shaft2</text>
</g>
<!-- target:
 is_inserted_to(gear2, shaft2) -->
<g id="node2" class="node">
<title>target:
 is_inserted_to(gear2, shaft2)</title>
<ellipse fill="#ffec8b" stroke="black" cx="1577.32" cy="-351.18" rx="198.89" ry="33.88"/>
<text text-anchor="middle" x="1577.32" y="-356.78" font-family="Times,serif" font-size="18.00">target:</text>
<text text-anchor="middle" x="1577.32" y="-336.78" font-family="Times,serif" font-size="18.00"> is_inserted_to(gear2, shaft2)</text>
</g>
<!-- selector:
 insert_gear2_into_shaft2&#45;&gt;target:
 is_inserted_to(gear2, shaft2) -->
<g id="edge1" class="edge">
<title>selector:
 insert_gear2_into_shaft2&#45;&gt;target:
 is_inserted_to(gear2, shaft2)</title>
<path fill="none" stroke="black" d="M1688.16,-420.84C1671.74,-410.66 1653.84,-399.58 1637.31,-389.34"/>
<polygon fill="black" stroke="black" points="1639.15,-386.36 1628.81,-384.07 1635.47,-392.31 1639.15,-386.36"/>
</g>
<!-- sequence:
 insert_gear2_into_shaft2 -->
<g id="node3" class="node">
<title>sequence:
 insert_gear2_into_shaft2</title>
<polygon fill="#ff7f24" stroke="black" points="2038.82,-375.18 1793.82,-375.18 1793.82,-327.18 2038.82,-327.18 2038.82,-375.18"/>
<text text-anchor="middle" x="1916.32" y="-356.78" font-family="Times,serif" font-size="18.00">sequence:</text>
<text text-anchor="middle" x="1916.32" y="-336.78" font-family="Times,serif" font-size="18.00"> insert_gear2_into_shaft2</text>
</g>
<!-- selector:
 insert_gear2_into_shaft2&#45;&gt;sequence:
 insert_gear2_into_shaft2 -->
<g id="edge2" class="edge">
<title>selector:
 insert_gear2_into_shaft2&#45;&gt;sequence:
 insert_gear2_into_shaft2</title>
<path fill="none" stroke="black" d="M1804.83,-420.84C1826.16,-407.7 1849.97,-393.04 1870.09,-380.65"/>
<polygon fill="black" stroke="black" points="1872.08,-383.53 1878.76,-375.31 1868.41,-377.57 1872.08,-383.53"/>
</g>
<!-- selector:
 change_tool(left_hand, outwardgripper, parallelgripper) -->
<g id="node4" class="node">
<title>selector:
 change_tool(left_hand, outwardgripper, parallelgripper)</title>
<polygon fill="#8deeee" stroke="black" points="1533.52,-229.19 1533.52,-259.82 1297.33,-281.48 963.31,-281.48 727.13,-259.82 727.13,-229.19 963.31,-207.53 1297.33,-207.53 1533.52,-229.19"/>
<text text-anchor="middle" x="1130.32" y="-250.1" font-family="Times,serif" font-size="18.00">selector:</text>
<text text-anchor="middle" x="1130.32" y="-230.1" font-family="Times,serif" font-size="18.00"> change_tool(left_hand, outwardgripper, parallelgripper)</text>
</g>
<!-- sequence:
 insert_gear2_into_shaft2&#45;&gt;selector:
 change_tool(left_hand, outwardgripper, parallelgripper) -->
<g id="edge3" class="edge">
<title>sequence:
 insert_gear2_into_shaft2&#45;&gt;selector:
 change_tool(left_hand, outwardgripper, parallelgripper)</title>
<path fill="none" stroke="black" d="M1831.78,-327.12C1816.4,-323.44 1800.44,-319.96 1785.32,-317.24 1673,-297.06 1548.75,-281.72 1438.93,-270.5"/>
<polygon fill="black" stroke="black" points="1438.99,-266.99 1428.69,-269.47 1438.28,-273.96 1438.99,-266.99"/>
</g>
<!-- selector:
 pick_up(left_hand, parallelgripper, gear2) -->
<g id="node10" class="node">
<title>selector:
 pick_up(left_hand, parallelgripper, gear2)</title>
<polygon fill="#8deeee" stroke="black" points="2221.59,-229.19 2221.59,-259.82 2042.77,-281.48 1789.88,-281.48 1611.06,-259.82 1611.06,-229.19 1789.88,-207.53 2042.77,-207.53 2221.59,-229.19"/>
<text text-anchor="middle" x="1916.32" y="-250.1" font-family="Times,serif" font-size="18.00">selector:</text>
<text text-anchor="middle" x="1916.32" y="-230.1" font-family="Times,serif" font-size="18.00"> pick_up(left_hand, parallelgripper, gear2)</text>
</g>
<!-- sequence:
 insert_gear2_into_shaft2&#45;&gt;selector:
 pick_up(left_hand, parallelgripper, gear2) -->
<g id="edge9" class="edge">
<title>sequence:
 insert_gear2_into_shaft2&#45;&gt;selector:
 pick_up(left_hand, parallelgripper, gear2)</title>
<path fill="none" stroke="black" d="M1916.32,-326.95C1916.32,-316.5 1916.32,-303.79 1916.32,-291.54"/>
<polygon fill="black" stroke="black" points="1919.82,-291.42 1916.32,-281.42 1912.82,-291.42 1919.82,-291.42"/>
</g>
<!-- selector:
 insert(left_hand, parallelgripper, gear2, shaft2) -->
<g id="node16" class="node">
<title>selector:
 insert(left_hand, parallelgripper, gear2, shaft2)</title>
<polygon fill="#8deeee" stroke="black" points="3074.65,-229.19 3074.65,-259.82 2872.95,-281.48 2587.7,-281.48 2385.99,-259.82 2385.99,-229.19 2587.7,-207.53 2872.95,-207.53 3074.65,-229.19"/>
<text text-anchor="middle" x="2730.32" y="-250.1" font-family="Times,serif" font-size="18.00">selector:</text>
<text text-anchor="middle" x="2730.32" y="-230.1" font-family="Times,serif" font-size="18.00"> insert(left_hand, parallelgripper, gear2, shaft2)</text>
</g>
<!-- sequence:
 insert_gear2_into_shaft2&#45;&gt;selector:
 insert(left_hand, parallelgripper, gear2, shaft2) -->
<g id="edge15" class="edge">
<title>sequence:
 insert_gear2_into_shaft2&#45;&gt;selector:
 insert(left_hand, parallelgripper, gear2, shaft2)</title>
<path fill="none" stroke="black" d="M2039.07,-334.4C2161.39,-318.67 2352.14,-294.14 2502.3,-274.82"/>
<polygon fill="black" stroke="black" points="2503.12,-278.25 2512.59,-273.5 2502.23,-271.31 2503.12,-278.25"/>
</g>
<!-- target:
 hold(left_hand, parallelgripper) -->
<g id="node5" class="node">
<title>target:
 hold(left_hand, parallelgripper)</title>
<ellipse fill="#ffec8b" stroke="black" cx="631.32" cy="-137.82" rx="217.16" ry="33.88"/>
<text text-anchor="middle" x="631.32" y="-143.42" font-family="Times,serif" font-size="18.00">target:</text>
<text text-anchor="middle" x="631.32" y="-123.42" font-family="Times,serif" font-size="18.00"> hold(left_hand, parallelgripper)</text>
</g>
<!-- selector:
 change_tool(left_hand, outwardgripper, parallelgripper)&#45;&gt;target:
 hold(left_hand, parallelgripper) -->
<g id="edge4" class="edge">
<title>selector:
 change_tool(left_hand, outwardgripper, parallelgripper)&#45;&gt;target:
 hold(left_hand, parallelgripper)</title>
<path fill="none" stroke="black" d="M959.99,-207.77C897.41,-194.64 827.41,-179.96 768.15,-167.53"/>
<polygon fill="black" stroke="black" points="768.86,-164.1 758.36,-165.47 767.43,-170.95 768.86,-164.1"/>
</g>
<!-- sequence:
 change_tool(left_hand, outwardgripper, parallelgripper) -->
<g id="node6" class="node">
<title>sequence:
 change_tool(left_hand, outwardgripper, parallelgripper)</title>
<polygon fill="#ff7f24" stroke="black" points="1393.82,-161.82 866.82,-161.82 866.82,-113.82 1393.82,-113.82 1393.82,-161.82"/>
<text text-anchor="middle" x="1130.32" y="-143.42" font-family="Times,serif" font-size="18.00">sequence:</text>
<text text-anchor="middle" x="1130.32" y="-123.42" font-family="Times,serif" font-size="18.00"> change_tool(left_hand, outwardgripper, parallelgripper)</text>
</g>
<!-- selector:
 change_tool(left_hand, outwardgripper, parallelgripper)&#45;&gt;sequence:
 change_tool(left_hand, outwardgripper, parallelgripper) -->
<g id="edge5" class="edge">
<title>selector:
 change_tool(left_hand, outwardgripper, parallelgripper)&#45;&gt;sequence:
 change_tool(left_hand, outwardgripper, parallelgripper)</title>
<path fill="none" stroke="black" d="M1130.32,-207.48C1130.32,-196.09 1130.32,-183.57 1130.32,-172.36"/>
<polygon fill="black" stroke="black" points="1133.82,-172.11 1130.32,-162.11 1126.82,-172.11 1133.82,-172.11"/>
</g>
<!-- precondition:
 hold(left_hand, outwardgripper) -->
<g id="node7" class="node">
<title>precondition:
 hold(left_hand, outwardgripper)</title>
<ellipse fill="#ffec8b" stroke="black" cx="221.32" cy="-33.94" rx="221.15" ry="33.88"/>
<text text-anchor="middle" x="221.32" y="-39.54" font-family="Times,serif" font-size="18.00">precondition:</text>
<text text-anchor="middle" x="221.32" y="-19.54" font-family="Times,serif" font-size="18.00"> hold(left_hand, outwardgripper)</text>
</g>
<!-- sequence:
 change_tool(left_hand, outwardgripper, parallelgripper)&#45;&gt;precondition:
 hold(left_hand, outwardgripper) -->
<g id="edge6" class="edge">
<title>sequence:
 change_tool(left_hand, outwardgripper, parallelgripper)&#45;&gt;precondition:
 hold(left_hand, outwardgripper)</title>
<path fill="none" stroke="black" d="M946.12,-113.79C916.45,-110.31 886.05,-106.89 857.32,-103.88 677.16,-85.03 631.27,-88.73 451.32,-67.88 430.21,-65.44 408.05,-62.6 386.17,-59.64"/>
<polygon fill="black" stroke="black" points="386.52,-56.16 376.13,-58.28 385.57,-63.09 386.52,-56.16"/>
</g>
<!-- precondition:
 is_empty(outwardgripper) -->
<g id="node8" class="node">
<title>precondition:
 is_empty(outwardgripper)</title>
<ellipse fill="#ffec8b" stroke="black" cx="643.32" cy="-33.94" rx="183.28" ry="33.88"/>
<text text-anchor="middle" x="643.32" y="-39.54" font-family="Times,serif" font-size="18.00">precondition:</text>
<text text-anchor="middle" x="643.32" y="-19.54" font-family="Times,serif" font-size="18.00"> is_empty(outwardgripper)</text>
</g>
<!-- sequence:
 change_tool(left_hand, outwardgripper, parallelgripper)&#45;&gt;precondition:
 is_empty(outwardgripper) -->
<g id="edge7" class="edge">
<title>sequence:
 change_tool(left_hand, outwardgripper, parallelgripper)&#45;&gt;precondition:
 is_empty(outwardgripper)</title>
<path fill="none" stroke="black" d="M1020.12,-113.77C946.53,-98.37 849.45,-78.06 772.27,-61.92"/>
<polygon fill="black" stroke="black" points="772.98,-58.49 762.48,-59.87 771.55,-65.34 772.98,-58.49"/>
</g>
<!-- action:
 change_tool(left_hand, outwardgripper, parallelgripper) -->
<g id="node9" class="node">
<title>action:
 change_tool(left_hand, outwardgripper, parallelgripper)</title>
<ellipse fill="lightgreen" stroke="black" cx="1217.32" cy="-33.94" rx="372.79" ry="33.88"/>
<text text-anchor="middle" x="1217.32" y="-39.54" font-family="Times,serif" font-size="18.00">action:</text>
<text text-anchor="middle" x="1217.32" y="-19.54" font-family="Times,serif" font-size="18.00"> change_tool(left_hand, outwardgripper, parallelgripper)</text>
</g>
<!-- sequence:
 change_tool(left_hand, outwardgripper, parallelgripper)&#45;&gt;action:
 change_tool(left_hand, outwardgripper, parallelgripper) -->
<g id="edge8" class="edge">
<title>sequence:
 change_tool(left_hand, outwardgripper, parallelgripper)&#45;&gt;action:
 change_tool(left_hand, outwardgripper, parallelgripper)</title>
<path fill="none" stroke="black" d="M1150.07,-113.7C1159.62,-102.52 1171.37,-88.76 1182.36,-75.88"/>
<polygon fill="black" stroke="black" points="1185.25,-77.89 1189.08,-68.01 1179.93,-73.34 1185.25,-77.89"/>
</g>
<!-- target:
 hold(parallelgripper, gear2) -->
<g id="node11" class="node">
<title>target:
 hold(parallelgripper, gear2)</title>
<ellipse fill="#ffec8b" stroke="black" cx="1829.32" cy="-137.82" rx="192.17" ry="33.88"/>
<text text-anchor="middle" x="1829.32" y="-143.42" font-family="Times,serif" font-size="18.00">target:</text>
<text text-anchor="middle" x="1829.32" y="-123.42" font-family="Times,serif" font-size="18.00"> hold(parallelgripper, gear2)</text>
</g>
<!-- selector:
 pick_up(left_hand, parallelgripper, gear2)&#45;&gt;target:
 hold(parallelgripper, gear2) -->
<g id="edge10" class="edge">
<title>selector:
 pick_up(left_hand, parallelgripper, gear2)&#45;&gt;target:
 hold(parallelgripper, gear2)</title>
<path fill="none" stroke="black" d="M1886.38,-207.48C1878.93,-198.51 1870.89,-188.84 1863.26,-179.66"/>
<polygon fill="black" stroke="black" points="1865.77,-177.2 1856.69,-171.75 1860.39,-181.68 1865.77,-177.2"/>
</g>
<!-- sequence:
 pick_up(left_hand, parallelgripper, gear2) -->
<g id="node12" class="node">
<title>sequence:
 pick_up(left_hand, parallelgripper, gear2)</title>
<polygon fill="#ff7f24" stroke="black" points="2438.82,-161.82 2039.82,-161.82 2039.82,-113.82 2438.82,-113.82 2438.82,-161.82"/>
<text text-anchor="middle" x="2239.32" y="-143.42" font-family="Times,serif" font-size="18.00">sequence:</text>
<text text-anchor="middle" x="2239.32" y="-123.42" font-family="Times,serif" font-size="18.00"> pick_up(left_hand, parallelgripper, gear2)</text>
</g>
<!-- selector:
 pick_up(left_hand, parallelgripper, gear2)&#45;&gt;sequence:
 pick_up(left_hand, parallelgripper, gear2) -->
<g id="edge11" class="edge">
<title>selector:
 pick_up(left_hand, parallelgripper, gear2)&#45;&gt;sequence:
 pick_up(left_hand, parallelgripper, gear2)</title>
<path fill="none" stroke="black" d="M2027.03,-207.62C2070.22,-193.63 2118.81,-177.88 2158.59,-164.99"/>
<polygon fill="black" stroke="black" points="2159.81,-168.27 2168.24,-161.86 2157.65,-161.61 2159.81,-168.27"/>
</g>
<!-- precondition:
 hold(left_hand, parallelgripper) -->
<g id="node13" class="node">
<title>precondition:
 hold(left_hand, parallelgripper)</title>
<ellipse fill="#ffec8b" stroke="black" cx="1825.32" cy="-33.94" rx="217.16" ry="33.88"/>
<text text-anchor="middle" x="1825.32" y="-39.54" font-family="Times,serif" font-size="18.00">precondition:</text>
<text text-anchor="middle" x="1825.32" y="-19.54" font-family="Times,serif" font-size="18.00"> hold(left_hand, parallelgripper)</text>
</g>
<!-- sequence:
 pick_up(left_hand, parallelgripper, gear2)&#45;&gt;precondition:
 hold(left_hand, parallelgripper) -->
<g id="edge12" class="edge">
<title>sequence:
 pick_up(left_hand, parallelgripper, gear2)&#45;&gt;precondition:
 hold(left_hand, parallelgripper)</title>
<path fill="none" stroke="black" d="M2145.64,-113.77C2087.45,-99.45 2012,-80.88 1948.94,-65.36"/>
<polygon fill="black" stroke="black" points="1949.47,-61.89 1938.93,-62.9 1947.8,-68.69 1949.47,-61.89"/>
</g>
<!-- precondition:
 is_empty(parallelgripper) -->
<g id="node14" class="node">
<title>precondition:
 is_empty(parallelgripper)</title>
<ellipse fill="#ffec8b" stroke="black" cx="2239.32" cy="-33.94" rx="178.8" ry="33.88"/>
<text text-anchor="middle" x="2239.32" y="-39.54" font-family="Times,serif" font-size="18.00">precondition:</text>
<text text-anchor="middle" x="2239.32" y="-19.54" font-family="Times,serif" font-size="18.00"> is_empty(parallelgripper)</text>
</g>
<!-- sequence:
 pick_up(left_hand, parallelgripper, gear2)&#45;&gt;precondition:
 is_empty(parallelgripper) -->
<g id="edge13" class="edge">
<title>sequence:
 pick_up(left_hand, parallelgripper, gear2)&#45;&gt;precondition:
 is_empty(parallelgripper)</title>
<path fill="none" stroke="black" d="M2239.32,-113.7C2239.32,-103.16 2239.32,-90.31 2239.32,-78.08"/>
<polygon fill="black" stroke="black" points="2242.82,-78.01 2239.32,-68.01 2235.82,-78.01 2242.82,-78.01"/>
</g>
<!-- action:
 pick_up(left_hand, parallelgripper, gear2) -->
<g id="node15" class="node">
<title>action:
 pick_up(left_hand, parallelgripper, gear2)</title>
<ellipse fill="lightgreen" stroke="black" cx="2718.32" cy="-33.94" rx="282.27" ry="33.88"/>
<text text-anchor="middle" x="2718.32" y="-39.54" font-family="Times,serif" font-size="18.00">action:</text>
<text text-anchor="middle" x="2718.32" y="-19.54" font-family="Times,serif" font-size="18.00"> pick_up(left_hand, parallelgripper, gear2)</text>
</g>
<!-- sequence:
 pick_up(left_hand, parallelgripper, gear2)&#45;&gt;action:
 pick_up(left_hand, parallelgripper, gear2) -->
<g id="edge14" class="edge">
<title>sequence:
 pick_up(left_hand, parallelgripper, gear2)&#45;&gt;action:
 pick_up(left_hand, parallelgripper, gear2)</title>
<path fill="none" stroke="black" d="M2347.72,-113.77C2414.27,-99.61 2500.35,-81.3 2572.79,-65.89"/>
<polygon fill="black" stroke="black" points="2573.87,-69.24 2582.92,-63.74 2572.41,-62.4 2573.87,-69.24"/>
</g>
<!-- &quot;target:\n is_inserted_to(gear2, shaft2)&quot;* -->
<g id="node17" class="node">
<title>&quot;target:\n is_inserted_to(gear2, shaft2)&quot;*</title>
<ellipse fill="#ffec8b" stroke="black" cx="2730.32" cy="-137.82" rx="211.35" ry="33.88"/>
<text text-anchor="middle" x="2730.32" y="-143.42" font-family="Times,serif" font-size="18.00">&quot;target:</text>
<text text-anchor="middle" x="2730.32" y="-123.42" font-family="Times,serif" font-size="18.00"> is_inserted_to(gear2, shaft2)&quot;*</text>
</g>
<!-- selector:
 insert(left_hand, parallelgripper, gear2, shaft2)&#45;&gt;&quot;target:\n is_inserted_to(gear2, shaft2)&quot;* -->
<g id="edge16" class="edge">
<title>selector:
 insert(left_hand, parallelgripper, gear2, shaft2)&#45;&gt;&quot;target:\n is_inserted_to(gear2, shaft2)&quot;*</title>
<path fill="none" stroke="black" d="M2730.32,-207.48C2730.32,-199.32 2730.32,-190.58 2730.32,-182.15"/>
<polygon fill="black" stroke="black" points="2733.82,-182.1 2730.32,-172.1 2726.82,-182.1 2733.82,-182.1"/>
</g>
<!-- sequence:
 insert(left_hand, parallelgripper, gear2, shaft2) -->
<g id="node18" class="node">
<title>sequence:
 insert(left_hand, parallelgripper, gear2, shaft2)</title>
<polygon fill="#ff7f24" stroke="black" points="3691.32,-161.82 3241.32,-161.82 3241.32,-113.82 3691.32,-113.82 3691.32,-161.82"/>
<text text-anchor="middle" x="3466.32" y="-143.42" font-family="Times,serif" font-size="18.00">sequence:</text>
<text text-anchor="middle" x="3466.32" y="-123.42" font-family="Times,serif" font-size="18.00"> insert(left_hand, parallelgripper, gear2, shaft2)</text>
</g>
<!-- selector:
 insert(left_hand, parallelgripper, gear2, shaft2)&#45;&gt;sequence:
 insert(left_hand, parallelgripper, gear2, shaft2) -->
<g id="edge17" class="edge">
<title>selector:
 insert(left_hand, parallelgripper, gear2, shaft2)&#45;&gt;sequence:
 insert(left_hand, parallelgripper, gear2, shaft2)</title>
<path fill="none" stroke="black" d="M2935.83,-214.27C3048.84,-198.2 3187.42,-178.49 3294.6,-163.25"/>
<polygon fill="black" stroke="black" points="3295.14,-166.71 3304.55,-161.83 3294.15,-159.78 3295.14,-166.71"/>
</g>
<!-- &quot;precondition:\n hold(left_hand, parallelgripper)&quot;* -->
<g id="node19" class="node">
<title>&quot;precondition:\n hold(left_hand, parallelgripper)&quot;*</title>
<ellipse fill="#ffec8b" stroke="black" cx="3247.32" cy="-33.94" rx="229.21" ry="33.88"/>
<text text-anchor="middle" x="3247.32" y="-39.54" font-family="Times,serif" font-size="18.00">&quot;precondition:</text>
<text text-anchor="middle" x="3247.32" y="-19.54" font-family="Times,serif" font-size="18.00"> hold(left_hand, parallelgripper)&quot;*</text>
</g>
<!-- sequence:
 insert(left_hand, parallelgripper, gear2, shaft2)&#45;&gt;&quot;precondition:\n hold(left_hand, parallelgripper)&quot;* -->
<g id="edge18" class="edge">
<title>sequence:
 insert(left_hand, parallelgripper, gear2, shaft2)&#45;&gt;&quot;precondition:\n hold(left_hand, parallelgripper)&quot;*</title>
<path fill="none" stroke="black" d="M3416.63,-113.7C3389.41,-101.04 3355.08,-85.07 3324.46,-70.82"/>
<polygon fill="black" stroke="black" points="3325.63,-67.51 3315.08,-66.46 3322.68,-73.86 3325.63,-67.51"/>
</g>
<!-- precondition:
 hold(parallelgripper, gear2) -->
<g id="node20" class="node">
<title>precondition:
 hold(parallelgripper, gear2)</title>
<ellipse fill="#ffec8b" stroke="black" cx="3686.32" cy="-33.94" rx="192.17" ry="33.88"/>
<text text-anchor="middle" x="3686.32" y="-39.54" font-family="Times,serif" font-size="18.00">precondition:</text>
<text text-anchor="middle" x="3686.32" y="-19.54" font-family="Times,serif" font-size="18.00"> hold(parallelgripper, gear2)</text>
</g>
<!-- sequence:
 insert(left_hand, parallelgripper, gear2, shaft2)&#45;&gt;precondition:
 hold(parallelgripper, gear2) -->
<g id="edge19" class="edge">
<title>sequence:
 insert(left_hand, parallelgripper, gear2, shaft2)&#45;&gt;precondition:
 hold(parallelgripper, gear2)</title>
<path fill="none" stroke="black" d="M3516.25,-113.7C3544.05,-100.83 3579.25,-84.53 3610.4,-70.1"/>
<polygon fill="black" stroke="black" points="3611.89,-73.27 3619.5,-65.89 3608.95,-66.91 3611.89,-73.27"/>
</g>
<!-- action:
 insert(left_hand, parallelgripper, gear2, shaft2) -->
<g id="node21" class="node">
<title>action:
 insert(left_hand, parallelgripper, gear2, shaft2)</title>
<ellipse fill="lightgreen" stroke="black" cx="4215.32" cy="-33.94" rx="318.4" ry="33.88"/>
<text text-anchor="middle" x="4215.32" y="-39.54" font-family="Times,serif" font-size="18.00">action:</text>
<text text-anchor="middle" x="4215.32" y="-19.54" font-family="Times,serif" font-size="18.00"> insert(left_hand, parallelgripper, gear2, shaft2)</text>
</g>
<!-- sequence:
 insert(left_hand, parallelgripper, gear2, shaft2)&#45;&gt;action:
 insert(left_hand, parallelgripper, gear2, shaft2) -->
<g id="edge20" class="edge">
<title>sequence:
 insert(left_hand, parallelgripper, gear2, shaft2)&#45;&gt;action:
 insert(left_hand, parallelgripper, gear2, shaft2)</title>
<path fill="none" stroke="black" d="M3635.82,-113.77C3747.77,-98.54 3895.07,-78.5 4013.14,-62.44"/>
<polygon fill="black" stroke="black" points="4013.95,-65.87 4023.38,-61.05 4013,-58.93 4013.95,-65.87"/>
</g>
</g>
</svg>
