<?xml version="1.0" encoding="UTF-8" standalone="no"?>
<!DOCTYPE svg PUBLIC "-//W3C//DTD SVG 1.1//EN"
 "http://www.w3.org/Graphics/SVG/1.1/DTD/svg11.dtd">
<!-- Generated by graphviz version 2.43.0 (0)
 -->
<!-- Title: pastafarianism Pages: 1 -->
<svg width="3024pt" height="503pt"
 viewBox="0.00 0.00 3024.48 502.60" xmlns="http://www.w3.org/2000/svg" xmlns:xlink="http://www.w3.org/1999/xlink">
<g id="graph0" class="graph" transform="scale(1 1) rotate(0) translate(4 498.6)">
<title>pastafarianism</title>
<polygon fill="white" stroke="transparent" points="-4,4 -4,-498.6 3020.48,-498.6 3020.48,4 -4,4"/>
<!-- selector:
 screw(chairnut1, chairseatbolt1, inwardgripper, left_hand) -->
<g id="node1" class="node">
<title>selector:
 screw(chairnut1, chairseatbolt1, inwardgripper, left_hand)</title>
<polygon fill="#8deeee" stroke="black" points="1649.87,-442.54 1649.87,-473.18 1401.48,-494.84 1050.2,-494.84 801.81,-473.18 801.81,-442.54 1050.2,-420.88 1401.48,-420.88 1649.87,-442.54"/>
<text text-anchor="middle" x="1225.84" y="-463.46" font-family="Times,serif" font-size="18.00">selector:</text>
<text text-anchor="middle" x="1225.84" y="-443.46" font-family="Times,serif" font-size="18.00"> screw(chairnut1, chairseatbolt1, inwardgripper, left_hand)</text>
</g>
<!-- target:
 is_screwed_to(chairnut1, chairseatbolt1) -->
<g id="node2" class="node">
<title>target:
 is_screwed_to(chairnut1, chairseatbolt1)</title>
<ellipse fill="#ffec8b" stroke="black" cx="940.84" cy="-351.18" rx="276.46" ry="33.88"/>
<text text-anchor="middle" x="940.84" y="-356.78" font-family="Times,serif" font-size="18.00">target:</text>
<text text-anchor="middle" x="940.84" y="-336.78" font-family="Times,serif" font-size="18.00"> is_screwed_to(chairnut1, chairseatbolt1)</text>
</g>
<!-- selector:
 screw(chairnut1, chairseatbolt1, inwardgripper, left_hand)&#45;&gt;target:
 is_screwed_to(chairnut1, chairseatbolt1) -->
<g id="edge1" class="edge">
<title>selector:
 screw(chairnut1, chairseatbolt1, inwardgripper, left_hand)&#45;&gt;target:
 is_screwed_to(chairnut1, chairseatbolt1)</title>
<path fill="none" stroke="black" d="M1128.16,-420.98C1098.35,-410.03 1065.63,-398.02 1035.99,-387.13"/>
<polygon fill="black" stroke="black" points="1037.08,-383.8 1026.49,-383.64 1034.67,-390.37 1037.08,-383.8"/>
</g>
<!-- sequence:
 screw(chairnut1, chairseatbolt1, inwardgripper, left_hand) -->
<g id="node3" class="node">
<title>sequence:
 screw(chairnut1, chairseatbolt1, inwardgripper, left_hand)</title>
<polygon fill="#ff7f24" stroke="black" points="1788.84,-375.18 1234.84,-375.18 1234.84,-327.18 1788.84,-327.18 1788.84,-375.18"/>
<text text-anchor="middle" x="1511.84" y="-356.78" font-family="Times,serif" font-size="18.00">sequence:</text>
<text text-anchor="middle" x="1511.84" y="-336.78" font-family="Times,serif" font-size="18.00"> screw(chairnut1, chairseatbolt1, inwardgripper, left_hand)</text>
</g>
<!-- selector:
 screw(chairnut1, chairseatbolt1, inwardgripper, left_hand)&#45;&gt;sequence:
 screw(chairnut1, chairseatbolt1, inwardgripper, left_hand) -->
<g id="edge2" class="edge">
<title>selector:
 screw(chairnut1, chairseatbolt1, inwardgripper, left_hand)&#45;&gt;sequence:
 screw(chairnut1, chairseatbolt1, inwardgripper, left_hand)</title>
<path fill="none" stroke="black" d="M1323.86,-420.98C1361.7,-407.13 1404.22,-391.57 1439.23,-378.76"/>
<polygon fill="black" stroke="black" points="1440.71,-381.94 1448.9,-375.22 1438.3,-375.37 1440.71,-381.94"/>
</g>
<!-- selector:
 change_tool(left_hand, clampgripper, inwardgripper) -->
<g id="node4" class="node">
<title>selector:
 change_tool(left_hand, clampgripper, inwardgripper)</title>
<polygon fill="#8deeee" stroke="black" points="1077.24,-229.19 1077.24,-259.82 852.65,-281.48 535.03,-281.48 310.44,-259.82 310.44,-229.19 535.03,-207.53 852.65,-207.53 1077.24,-229.19"/>
<text text-anchor="middle" x="693.84" y="-250.1" font-family="Times,serif" font-size="18.00">selector:</text>
<text text-anchor="middle" x="693.84" y="-230.1" font-family="Times,serif" font-size="18.00"> change_tool(left_hand, clampgripper, inwardgripper)</text>
</g>
<!-- sequence:
 screw(chairnut1, chairseatbolt1, inwardgripper, left_hand)&#45;&gt;selector:
 change_tool(left_hand, clampgripper, inwardgripper) -->
<g id="edge3" class="edge">
<title>sequence:
 screw(chairnut1, chairseatbolt1, inwardgripper, left_hand)&#45;&gt;selector:
 change_tool(left_hand, clampgripper, inwardgripper)</title>
<path fill="none" stroke="black" d="M1332.07,-327.18C1214.84,-312.17 1060.49,-292.42 932.95,-276.1"/>
<polygon fill="black" stroke="black" points="933.01,-272.58 922.65,-274.78 932.12,-279.52 933.01,-272.58"/>
</g>
<!-- selector:
 pick_up(left_hand, inwardgripper, chairnut1) -->
<g id="node10" class="node">
<title>selector:
 pick_up(left_hand, inwardgripper, chairnut1)</title>
<polygon fill="#8deeee" stroke="black" points="1839.49,-229.19 1839.49,-259.82 1647.56,-281.48 1376.12,-281.48 1184.19,-259.82 1184.19,-229.19 1376.12,-207.53 1647.56,-207.53 1839.49,-229.19"/>
<text text-anchor="middle" x="1511.84" y="-250.1" font-family="Times,serif" font-size="18.00">selector:</text>
<text text-anchor="middle" x="1511.84" y="-230.1" font-family="Times,serif" font-size="18.00"> pick_up(left_hand, inwardgripper, chairnut1)</text>
</g>
<!-- sequence:
 screw(chairnut1, chairseatbolt1, inwardgripper, left_hand)&#45;&gt;selector:
 pick_up(left_hand, inwardgripper, chairnut1) -->
<g id="edge9" class="edge">
<title>sequence:
 screw(chairnut1, chairseatbolt1, inwardgripper, left_hand)&#45;&gt;selector:
 pick_up(left_hand, inwardgripper, chairnut1)</title>
<path fill="none" stroke="black" d="M1511.84,-326.95C1511.84,-316.5 1511.84,-303.79 1511.84,-291.54"/>
<polygon fill="black" stroke="black" points="1515.34,-291.42 1511.84,-281.42 1508.34,-291.42 1515.34,-291.42"/>
</g>
<!-- action:
 screw(left_hand, inwardgripper, chairnut1, chairseatbolt1) -->
<g id="node16" class="node">
<title>action:
 screw(left_hand, inwardgripper, chairnut1, chairseatbolt1)</title>
<ellipse fill="lightgreen" stroke="black" cx="2248.84" cy="-244.5" rx="391.97" ry="33.88"/>
<text text-anchor="middle" x="2248.84" y="-250.1" font-family="Times,serif" font-size="18.00">action:</text>
<text text-anchor="middle" x="2248.84" y="-230.1" font-family="Times,serif" font-size="18.00"> screw(left_hand, inwardgripper, chairnut1, chairseatbolt1)</text>
</g>
<!-- sequence:
 screw(chairnut1, chairseatbolt1, inwardgripper, left_hand)&#45;&gt;action:
 screw(left_hand, inwardgripper, chairnut1, chairseatbolt1) -->
<g id="edge15" class="edge">
<title>sequence:
 screw(chairnut1, chairseatbolt1, inwardgripper, left_hand)&#45;&gt;action:
 screw(left_hand, inwardgripper, chairnut1, chairseatbolt1)</title>
<path fill="none" stroke="black" d="M1674.03,-327.14C1781.62,-311.86 1923.82,-291.67 2039.87,-275.18"/>
<polygon fill="black" stroke="black" points="2040.54,-278.62 2049.95,-273.75 2039.55,-271.69 2040.54,-278.62"/>
</g>
<!-- target:
 hold(left_hand, inwardgripper) -->
<g id="node5" class="node">
<title>target:
 hold(left_hand, inwardgripper)</title>
<ellipse fill="#ffec8b" stroke="black" cx="212.84" cy="-137.82" rx="212.68" ry="33.88"/>
<text text-anchor="middle" x="212.84" y="-143.42" font-family="Times,serif" font-size="18.00">target:</text>
<text text-anchor="middle" x="212.84" y="-123.42" font-family="Times,serif" font-size="18.00"> hold(left_hand, inwardgripper)</text>
</g>
<!-- selector:
 change_tool(left_hand, clampgripper, inwardgripper)&#45;&gt;target:
 hold(left_hand, inwardgripper) -->
<g id="edge4" class="edge">
<title>selector:
 change_tool(left_hand, clampgripper, inwardgripper)&#45;&gt;target:
 hold(left_hand, inwardgripper)</title>
<path fill="none" stroke="black" d="M530.32,-207.92C470.21,-194.83 402.92,-180.19 345.81,-167.76"/>
<polygon fill="black" stroke="black" points="346.52,-164.33 336.01,-165.63 345.03,-171.17 346.52,-164.33"/>
</g>
<!-- sequence:
 change_tool(left_hand, clampgripper, inwardgripper) -->
<g id="node6" class="node">
<title>sequence:
 change_tool(left_hand, clampgripper, inwardgripper)</title>
<polygon fill="#ff7f24" stroke="black" points="944.34,-161.82 443.34,-161.82 443.34,-113.82 944.34,-113.82 944.34,-161.82"/>
<text text-anchor="middle" x="693.84" y="-143.42" font-family="Times,serif" font-size="18.00">sequence:</text>
<text text-anchor="middle" x="693.84" y="-123.42" font-family="Times,serif" font-size="18.00"> change_tool(left_hand, clampgripper, inwardgripper)</text>
</g>
<!-- selector:
 change_tool(left_hand, clampgripper, inwardgripper)&#45;&gt;sequence:
 change_tool(left_hand, clampgripper, inwardgripper) -->
<g id="edge5" class="edge">
<title>selector:
 change_tool(left_hand, clampgripper, inwardgripper)&#45;&gt;sequence:
 change_tool(left_hand, clampgripper, inwardgripper)</title>
<path fill="none" stroke="black" d="M693.84,-207.48C693.84,-196.09 693.84,-183.57 693.84,-172.36"/>
<polygon fill="black" stroke="black" points="697.34,-172.11 693.84,-162.11 690.34,-172.11 697.34,-172.11"/>
</g>
<!-- precondition:
 is_empty(clampgripper) -->
<g id="node7" class="node">
<title>precondition:
 is_empty(clampgripper)</title>
<ellipse fill="#ffec8b" stroke="black" cx="255.84" cy="-33.94" rx="169" ry="33.88"/>
<text text-anchor="middle" x="255.84" y="-39.54" font-family="Times,serif" font-size="18.00">precondition:</text>
<text text-anchor="middle" x="255.84" y="-19.54" font-family="Times,serif" font-size="18.00"> is_empty(clampgripper)</text>
</g>
<!-- sequence:
 change_tool(left_hand, clampgripper, inwardgripper)&#45;&gt;precondition:
 is_empty(clampgripper) -->
<g id="edge6" class="edge">
<title>sequence:
 change_tool(left_hand, clampgripper, inwardgripper)&#45;&gt;precondition:
 is_empty(clampgripper)</title>
<path fill="none" stroke="black" d="M594.72,-113.77C529.3,-98.55 443.25,-78.53 374.23,-62.48"/>
<polygon fill="black" stroke="black" points="374.7,-59 364.17,-60.14 373.12,-65.81 374.7,-59"/>
</g>
<!-- precondition:
 hold(left_hand, clampgripper) -->
<g id="node8" class="node">
<title>precondition:
 hold(left_hand, clampgripper)</title>
<ellipse fill="#ffec8b" stroke="black" cx="649.84" cy="-33.94" rx="207.36" ry="33.88"/>
<text text-anchor="middle" x="649.84" y="-39.54" font-family="Times,serif" font-size="18.00">precondition:</text>
<text text-anchor="middle" x="649.84" y="-19.54" font-family="Times,serif" font-size="18.00"> hold(left_hand, clampgripper)</text>
</g>
<!-- sequence:
 change_tool(left_hand, clampgripper, inwardgripper)&#45;&gt;precondition:
 hold(left_hand, clampgripper) -->
<g id="edge7" class="edge">
<title>sequence:
 change_tool(left_hand, clampgripper, inwardgripper)&#45;&gt;precondition:
 hold(left_hand, clampgripper)</title>
<path fill="none" stroke="black" d="M683.85,-113.7C679.21,-102.94 673.53,-89.79 668.15,-77.35"/>
<polygon fill="black" stroke="black" points="671.3,-75.81 664.12,-68.01 664.87,-78.58 671.3,-75.81"/>
</g>
<!-- action:
 change_tool(left_hand, clampgripper, inwardgripper) -->
<g id="node9" class="node">
<title>action:
 change_tool(left_hand, clampgripper, inwardgripper)</title>
<ellipse fill="lightgreen" stroke="black" cx="1228.84" cy="-33.94" rx="354.02" ry="33.88"/>
<text text-anchor="middle" x="1228.84" y="-39.54" font-family="Times,serif" font-size="18.00">action:</text>
<text text-anchor="middle" x="1228.84" y="-19.54" font-family="Times,serif" font-size="18.00"> change_tool(left_hand, clampgripper, inwardgripper)</text>
</g>
<!-- sequence:
 change_tool(left_hand, clampgripper, inwardgripper)&#45;&gt;action:
 change_tool(left_hand, clampgripper, inwardgripper) -->
<g id="edge8" class="edge">
<title>sequence:
 change_tool(left_hand, clampgripper, inwardgripper)&#45;&gt;action:
 change_tool(left_hand, clampgripper, inwardgripper)</title>
<path fill="none" stroke="black" d="M814.9,-113.77C888.36,-99.78 983.11,-81.74 1063.42,-66.44"/>
<polygon fill="black" stroke="black" points="1064.47,-69.8 1073.64,-64.5 1063.17,-62.93 1064.47,-69.8"/>
</g>
<!-- target:
 hold(inwardgripper, chairnut1) -->
<g id="node11" class="node">
<title>target:
 hold(inwardgripper, chairnut1)</title>
<ellipse fill="#ffec8b" stroke="black" cx="1511.84" cy="-137.82" rx="213.59" ry="33.88"/>
<text text-anchor="middle" x="1511.84" y="-143.42" font-family="Times,serif" font-size="18.00">target:</text>
<text text-anchor="middle" x="1511.84" y="-123.42" font-family="Times,serif" font-size="18.00"> hold(inwardgripper, chairnut1)</text>
</g>
<!-- selector:
 pick_up(left_hand, inwardgripper, chairnut1)&#45;&gt;target:
 hold(inwardgripper, chairnut1) -->
<g id="edge10" class="edge">
<title>selector:
 pick_up(left_hand, inwardgripper, chairnut1)&#45;&gt;target:
 hold(inwardgripper, chairnut1)</title>
<path fill="none" stroke="black" d="M1511.84,-207.48C1511.84,-199.32 1511.84,-190.58 1511.84,-182.15"/>
<polygon fill="black" stroke="black" points="1515.34,-182.1 1511.84,-172.1 1508.34,-182.1 1515.34,-182.1"/>
</g>
<!-- sequence:
 pick_up(left_hand, inwardgripper, chairnut1) -->
<g id="node12" class="node">
<title>sequence:
 pick_up(left_hand, inwardgripper, chairnut1)</title>
<polygon fill="#ff7f24" stroke="black" points="2349.84,-161.82 1921.84,-161.82 1921.84,-113.82 2349.84,-113.82 2349.84,-161.82"/>
<text text-anchor="middle" x="2135.84" y="-143.42" font-family="Times,serif" font-size="18.00">sequence:</text>
<text text-anchor="middle" x="2135.84" y="-123.42" font-family="Times,serif" font-size="18.00"> pick_up(left_hand, inwardgripper, chairnut1)</text>
</g>
<!-- selector:
 pick_up(left_hand, inwardgripper, chairnut1)&#45;&gt;sequence:
 pick_up(left_hand, inwardgripper, chairnut1) -->
<g id="edge11" class="edge">
<title>selector:
 pick_up(left_hand, inwardgripper, chairnut1)&#45;&gt;sequence:
 pick_up(left_hand, inwardgripper, chairnut1)</title>
<path fill="none" stroke="black" d="M1694.84,-212.8C1788.34,-197.12 1900.59,-178.29 1988.44,-163.55"/>
<polygon fill="black" stroke="black" points="1989.2,-166.97 1998.49,-161.86 1988.05,-160.07 1989.2,-166.97"/>
</g>
<!-- precondition:
 is_empty(inwardgripper) -->
<g id="node13" class="node">
<title>precondition:
 is_empty(inwardgripper)</title>
<ellipse fill="#ffec8b" stroke="black" cx="1775.84" cy="-33.94" rx="174.81" ry="33.88"/>
<text text-anchor="middle" x="1775.84" y="-39.54" font-family="Times,serif" font-size="18.00">precondition:</text>
<text text-anchor="middle" x="1775.84" y="-19.54" font-family="Times,serif" font-size="18.00"> is_empty(inwardgripper)</text>
</g>
<!-- sequence:
 pick_up(left_hand, inwardgripper, chairnut1)&#45;&gt;precondition:
 is_empty(inwardgripper) -->
<g id="edge12" class="edge">
<title>sequence:
 pick_up(left_hand, inwardgripper, chairnut1)&#45;&gt;precondition:
 is_empty(inwardgripper)</title>
<path fill="none" stroke="black" d="M2054.15,-113.7C2003.27,-99.3 1937.27,-80.63 1882.31,-65.07"/>
<polygon fill="black" stroke="black" points="1883.11,-61.66 1872.53,-62.31 1881.2,-68.4 1883.11,-61.66"/>
</g>
<!-- precondition:
 hold(left_hand, inwardgripper) -->
<g id="node14" class="node">
<title>precondition:
 hold(left_hand, inwardgripper)</title>
<ellipse fill="#ffec8b" stroke="black" cx="2180.84" cy="-33.94" rx="212.68" ry="33.88"/>
<text text-anchor="middle" x="2180.84" y="-39.54" font-family="Times,serif" font-size="18.00">precondition:</text>
<text text-anchor="middle" x="2180.84" y="-19.54" font-family="Times,serif" font-size="18.00"> hold(left_hand, inwardgripper)</text>
</g>
<!-- sequence:
 pick_up(left_hand, inwardgripper, chairnut1)&#45;&gt;precondition:
 hold(left_hand, inwardgripper) -->
<g id="edge13" class="edge">
<title>sequence:
 pick_up(left_hand, inwardgripper, chairnut1)&#45;&gt;precondition:
 hold(left_hand, inwardgripper)</title>
<path fill="none" stroke="black" d="M2146.05,-113.7C2150.8,-102.94 2156.61,-89.79 2162.11,-77.35"/>
<polygon fill="black" stroke="black" points="2165.39,-78.57 2166.23,-68.01 2158.99,-75.75 2165.39,-78.57"/>
</g>
<!-- action:
 pick_up(left_hand, inwardgripper, chairnut1) -->
<g id="node15" class="node">
<title>action:
 pick_up(left_hand, inwardgripper, chairnut1)</title>
<ellipse fill="lightgreen" stroke="black" cx="2713.84" cy="-33.94" rx="302.78" ry="33.88"/>
<text text-anchor="middle" x="2713.84" y="-39.54" font-family="Times,serif" font-size="18.00">action:</text>
<text text-anchor="middle" x="2713.84" y="-19.54" font-family="Times,serif" font-size="18.00"> pick_up(left_hand, inwardgripper, chairnut1)</text>
</g>
<!-- sequence:
 pick_up(left_hand, inwardgripper, chairnut1)&#45;&gt;action:
 pick_up(left_hand, inwardgripper, chairnut1) -->
<g id="edge14" class="edge">
<title>sequence:
 pick_up(left_hand, inwardgripper, chairnut1)&#45;&gt;action:
 pick_up(left_hand, inwardgripper, chairnut1)</title>
<path fill="none" stroke="black" d="M2266.64,-113.77C2349.13,-99.23 2456.48,-80.31 2545.32,-64.64"/>
<polygon fill="black" stroke="black" points="2546,-68.08 2555.24,-62.9 2544.78,-61.19 2546,-68.08"/>
</g>
</g>
</svg>
