<?xml version="1.0" encoding="UTF-8" standalone="no"?>
<!DOCTYPE svg PUBLIC "-//W3C//DTD SVG 1.1//EN"
 "http://www.w3.org/Graphics/SVG/1.1/DTD/svg11.dtd">
<!-- Generated by graphviz version 2.43.0 (0)
 -->
<!-- Title: pastafarianism Pages: 1 -->
<svg width="1291pt" height="476pt"
 viewBox="0.00 0.00 1291.29 476.00" xmlns="http://www.w3.org/2000/svg" xmlns:xlink="http://www.w3.org/1999/xlink">
<g id="graph0" class="graph" transform="scale(1 1) rotate(0) translate(4 472)">
<title>pastafarianism</title>
<polygon fill="white" stroke="transparent" points="-4,4 -4,-472 1287.29,-472 1287.29,4 -4,4"/>
<!-- Sequence -->
<g id="node1" class="node">
<title>Sequence</title>
<polygon fill="orange" stroke="black" points="678.42,-468 616.42,-468 616.42,-432 678.42,-432 678.42,-468"/>
<text text-anchor="middle" x="647.42" y="-447.8" font-family="Times,serif" font-size="9.00">Sequence</text>
</g>
<!-- Fallback -->
<g id="node2" class="node">
<title>Fallback</title>
<polygon fill="cyan" stroke="black" points="388.41,-370.54 388.41,-385.46 367.91,-396 338.93,-396 318.43,-385.46 318.43,-370.54 338.93,-360 367.91,-360 388.41,-370.54"/>
<text text-anchor="middle" x="353.42" y="-375.8" font-family="Times,serif" font-size="9.00">Fallback</text>
</g>
<!-- Sequence&#45;&gt;Fallback -->
<g id="edge1" class="edge">
<title>Sequence&#45;&gt;Fallback</title>
<path fill="none" stroke="black" d="M616.24,-441.58C563.29,-428.97 455.75,-403.36 395.95,-389.13"/>
<polygon fill="black" stroke="black" points="396.61,-385.69 386.07,-386.77 394.99,-392.5 396.61,-385.69"/>
</g>
<!-- Fallback &#160;&#160; -->
<g id="node13" class="node">
<title>Fallback &#160;&#160;</title>
<polygon fill="cyan" stroke="black" points="682.41,-370.54 682.41,-385.46 661.91,-396 632.93,-396 612.43,-385.46 612.43,-370.54 632.93,-360 661.91,-360 682.41,-370.54"/>
<text text-anchor="middle" x="647.42" y="-375.8" font-family="Times,serif" font-size="9.00">Fallback</text>
</g>
<!-- Sequence&#45;&gt;Fallback &#160;&#160; -->
<g id="edge12" class="edge">
<title>Sequence&#45;&gt;Fallback &#160;&#160;</title>
<path fill="none" stroke="black" d="M647.42,-431.7C647.42,-423.98 647.42,-414.71 647.42,-406.11"/>
<polygon fill="black" stroke="black" points="650.92,-406.1 647.42,-396.1 643.92,-406.1 650.92,-406.1"/>
</g>
<!-- Fallback &#160;&#160;&#160;&#160;&#160; -->
<g id="node24" class="node">
<title>Fallback &#160;&#160;&#160;&#160;&#160;</title>
<polygon fill="cyan" stroke="black" points="976.41,-370.54 976.41,-385.46 955.91,-396 926.93,-396 906.43,-385.46 906.43,-370.54 926.93,-360 955.91,-360 976.41,-370.54"/>
<text text-anchor="middle" x="941.42" y="-375.8" font-family="Times,serif" font-size="9.00">Fallback</text>
</g>
<!-- Sequence&#45;&gt;Fallback &#160;&#160;&#160;&#160;&#160; -->
<g id="edge23" class="edge">
<title>Sequence&#45;&gt;Fallback &#160;&#160;&#160;&#160;&#160;</title>
<path fill="none" stroke="black" d="M678.61,-441.58C731.55,-428.97 839.09,-403.36 898.89,-389.13"/>
<polygon fill="black" stroke="black" points="899.85,-392.5 908.77,-386.77 898.23,-385.69 899.85,-392.5"/>
</g>
<!-- object_at YellowBox [0.0, 0.0, 0.175] 0.02 KittingBox -->
<g id="node3" class="node">
<title>object_at YellowBox [0.0, 0.0, 0.175] 0.02 KittingBox</title>
<ellipse fill="lightgray" stroke="black" cx="152.42" cy="-306" rx="152.34" ry="18"/>
<text text-anchor="middle" x="152.42" y="-303.8" font-family="Times,serif" font-size="9.00">object_at YellowBox [0.0, 0.0, 0.175] 0.02 KittingBox</text>
</g>
<!-- Fallback&#45;&gt;object_at YellowBox [0.0, 0.0, 0.175] 0.02 KittingBox -->
<g id="edge2" class="edge">
<title>Fallback&#45;&gt;object_at YellowBox [0.0, 0.0, 0.175] 0.02 KittingBox</title>
<path fill="none" stroke="black" d="M325.05,-367.12C294.95,-356.64 246.61,-339.8 208.72,-326.61"/>
<polygon fill="black" stroke="black" points="209.44,-323.15 198.84,-323.17 207.13,-329.76 209.44,-323.15"/>
</g>
<!-- Sequence  -->
<g id="node4" class="node">
<title>Sequence </title>
<polygon fill="orange" stroke="black" points="384.42,-324 322.42,-324 322.42,-288 384.42,-288 384.42,-324"/>
<text text-anchor="middle" x="353.42" y="-303.8" font-family="Times,serif" font-size="9.00">Sequence</text>
</g>
<!-- Fallback&#45;&gt;Sequence  -->
<g id="edge3" class="edge">
<title>Fallback&#45;&gt;Sequence </title>
<path fill="none" stroke="black" d="M353.42,-359.7C353.42,-351.98 353.42,-342.71 353.42,-334.11"/>
<polygon fill="black" stroke="black" points="356.92,-334.1 353.42,-324.1 349.92,-334.1 356.92,-334.1"/>
</g>
<!-- Fallback  -->
<g id="node5" class="node">
<title>Fallback </title>
<polygon fill="cyan" stroke="black" points="190.41,-226.54 190.41,-241.46 169.91,-252 140.93,-252 120.43,-241.46 120.43,-226.54 140.93,-216 169.91,-216 190.41,-226.54"/>
<text text-anchor="middle" x="155.42" y="-231.8" font-family="Times,serif" font-size="9.00">Fallback</text>
</g>
<!-- Sequence &#45;&gt;Fallback  -->
<g id="edge4" class="edge">
<title>Sequence &#45;&gt;Fallback </title>
<path fill="none" stroke="black" d="M322.09,-291.35C319.17,-290.18 316.25,-289.05 313.42,-288 263.58,-269.59 249.56,-269.58 199.42,-252 196.9,-251.12 194.31,-250.18 191.7,-249.22"/>
<polygon fill="black" stroke="black" points="192.91,-245.94 182.31,-245.7 190.45,-252.49 192.91,-245.94"/>
</g>
<!-- place0 YellowBox [0.0, 0.0, 0.175] 0.02 KittingBox -->
<g id="node12" class="node">
<title>place0 YellowBox [0.0, 0.0, 0.175] 0.02 KittingBox</title>
<ellipse fill="lightgray" stroke="black" cx="354.42" cy="-234" rx="146.14" ry="18"/>
<text text-anchor="middle" x="354.42" y="-231.8" font-family="Times,serif" font-size="9.00">place0 YellowBox [0.0, 0.0, 0.175] 0.02 KittingBox</text>
</g>
<!-- Sequence &#45;&gt;place0 YellowBox [0.0, 0.0, 0.175] 0.02 KittingBox -->
<g id="edge11" class="edge">
<title>Sequence &#45;&gt;place0 YellowBox [0.0, 0.0, 0.175] 0.02 KittingBox</title>
<path fill="none" stroke="black" d="M353.67,-287.7C353.78,-279.98 353.91,-270.71 354.03,-262.11"/>
<polygon fill="black" stroke="black" points="357.53,-262.15 354.18,-252.1 350.53,-262.05 357.53,-262.15"/>
</g>
<!-- in_gripper YellowBox -->
<g id="node6" class="node">
<title>in_gripper YellowBox</title>
<ellipse fill="lightgray" stroke="black" cx="121.42" cy="-162" rx="66.29" ry="18"/>
<text text-anchor="middle" x="121.42" y="-159.8" font-family="Times,serif" font-size="9.00">in_gripper YellowBox</text>
</g>
<!-- Fallback &#45;&gt;in_gripper YellowBox -->
<g id="edge5" class="edge">
<title>Fallback &#45;&gt;in_gripper YellowBox</title>
<path fill="none" stroke="black" d="M147.02,-215.7C143.15,-207.73 138.47,-198.1 134.18,-189.26"/>
<polygon fill="black" stroke="black" points="137.25,-187.57 129.73,-180.1 130.95,-190.63 137.25,-187.57"/>
</g>
<!-- Sequence &#160; -->
<g id="node7" class="node">
<title>Sequence &#160;</title>
<polygon fill="orange" stroke="black" points="267.42,-180 205.42,-180 205.42,-144 267.42,-144 267.42,-180"/>
<text text-anchor="middle" x="236.42" y="-159.8" font-family="Times,serif" font-size="9.00">Sequence</text>
</g>
<!-- Fallback &#45;&gt;Sequence &#160; -->
<g id="edge6" class="edge">
<title>Fallback &#45;&gt;Sequence &#160;</title>
<path fill="none" stroke="black" d="M173.4,-217.46C183.77,-208.5 197.04,-197.03 208.72,-186.93"/>
<polygon fill="black" stroke="black" points="211.23,-189.4 216.51,-180.21 206.65,-184.1 211.23,-189.4"/>
</g>
<!-- Fallback &#160; -->
<g id="node8" class="node">
<title>Fallback &#160;</title>
<polygon fill="cyan" stroke="black" points="253.41,-82.54 253.41,-97.46 232.91,-108 203.93,-108 183.43,-97.46 183.43,-82.54 203.93,-72 232.91,-72 253.41,-82.54"/>
<text text-anchor="middle" x="218.42" y="-87.8" font-family="Times,serif" font-size="9.00">Fallback</text>
</g>
<!-- Sequence &#160;&#45;&gt;Fallback &#160; -->
<g id="edge7" class="edge">
<title>Sequence &#160;&#45;&gt;Fallback &#160;</title>
<path fill="none" stroke="black" d="M231.97,-143.7C229.97,-135.9 227.55,-126.51 225.32,-117.83"/>
<polygon fill="black" stroke="black" points="228.7,-116.92 222.82,-108.1 221.92,-118.66 228.7,-116.92"/>
</g>
<!-- pick0 YellowBox -->
<g id="node11" class="node">
<title>pick0 YellowBox</title>
<ellipse fill="lightgray" stroke="black" cx="324.42" cy="-90" rx="53.23" ry="18"/>
<text text-anchor="middle" x="324.42" y="-87.8" font-family="Times,serif" font-size="9.00">pick0 YellowBox</text>
</g>
<!-- Sequence &#160;&#45;&gt;pick0 YellowBox -->
<g id="edge10" class="edge">
<title>Sequence &#160;&#45;&gt;pick0 YellowBox</title>
<path fill="none" stroke="black" d="M258.17,-143.7C269.67,-134.55 283.92,-123.22 296.25,-113.41"/>
<polygon fill="black" stroke="black" points="298.78,-115.87 304.42,-106.91 294.42,-110.39 298.78,-115.87"/>
</g>
<!-- gripper_state open -->
<g id="node9" class="node">
<title>gripper_state open</title>
<ellipse fill="lightgray" stroke="black" cx="135.42" cy="-18" rx="60.09" ry="18"/>
<text text-anchor="middle" x="135.42" y="-15.8" font-family="Times,serif" font-size="9.00">gripper_state open</text>
</g>
<!-- Fallback &#160;&#45;&gt;gripper_state open -->
<g id="edge8" class="edge">
<title>Fallback &#160;&#45;&gt;gripper_state open</title>
<path fill="none" stroke="black" d="M200,-73.46C188.95,-64.15 174.7,-52.13 162.4,-41.76"/>
<polygon fill="black" stroke="black" points="164.56,-38.99 154.65,-35.22 160.04,-44.34 164.56,-38.99"/>
</g>
<!-- open_gripper -->
<g id="node10" class="node">
<title>open_gripper</title>
<ellipse fill="lightgray" stroke="black" cx="259.42" cy="-18" rx="45.72" ry="18"/>
<text text-anchor="middle" x="259.42" y="-15.8" font-family="Times,serif" font-size="9.00">open_gripper</text>
</g>
<!-- Fallback &#160;&#45;&gt;open_gripper -->
<g id="edge9" class="edge">
<title>Fallback &#160;&#45;&gt;open_gripper</title>
<path fill="none" stroke="black" d="M228.56,-71.7C233.39,-63.44 239.28,-53.39 244.6,-44.3"/>
<polygon fill="black" stroke="black" points="247.65,-46.02 249.68,-35.62 241.61,-42.48 247.65,-46.02"/>
</g>
<!-- object_at GreenBox [0.0, 0.0, 0.22] 0.02 YellowBox -->
<g id="node14" class="node">
<title>object_at GreenBox [0.0, 0.0, 0.22] 0.02 YellowBox</title>
<ellipse fill="lightgray" stroke="black" cx="549.42" cy="-306" rx="146.79" ry="18"/>
<text text-anchor="middle" x="549.42" y="-303.8" font-family="Times,serif" font-size="9.00">object_at GreenBox [0.0, 0.0, 0.22] 0.02 YellowBox</text>
</g>
<!-- Fallback &#160;&#160;&#45;&gt;object_at GreenBox [0.0, 0.0, 0.22] 0.02 YellowBox -->
<g id="edge13" class="edge">
<title>Fallback &#160;&#160;&#45;&gt;object_at GreenBox [0.0, 0.0, 0.22] 0.02 YellowBox</title>
<path fill="none" stroke="black" d="M627.11,-362.5C613.99,-353.12 596.63,-340.72 581.65,-330.02"/>
<polygon fill="black" stroke="black" points="583.32,-326.91 573.15,-323.95 579.25,-332.61 583.32,-326.91"/>
</g>
<!-- Sequence &#160;&#160; -->
<g id="node15" class="node">
<title>Sequence &#160;&#160;</title>
<polygon fill="orange" stroke="black" points="776.42,-324 714.42,-324 714.42,-288 776.42,-288 776.42,-324"/>
<text text-anchor="middle" x="745.42" y="-303.8" font-family="Times,serif" font-size="9.00">Sequence</text>
</g>
<!-- Fallback &#160;&#160;&#45;&gt;Sequence &#160;&#160; -->
<g id="edge14" class="edge">
<title>Fallback &#160;&#160;&#45;&gt;Sequence &#160;&#160;</title>
<path fill="none" stroke="black" d="M667.73,-362.5C680.75,-353.19 697.96,-340.9 712.87,-330.25"/>
<polygon fill="black" stroke="black" points="715.23,-332.86 721.34,-324.2 711.16,-327.17 715.23,-332.86"/>
</g>
<!-- Fallback &#160;&#160;&#160; -->
<g id="node16" class="node">
<title>Fallback &#160;&#160;&#160;</title>
<polygon fill="cyan" stroke="black" points="595.41,-226.54 595.41,-241.46 574.91,-252 545.93,-252 525.43,-241.46 525.43,-226.54 545.93,-216 574.91,-216 595.41,-226.54"/>
<text text-anchor="middle" x="560.42" y="-231.8" font-family="Times,serif" font-size="9.00">Fallback</text>
</g>
<!-- Sequence &#160;&#160;&#45;&gt;Fallback &#160;&#160;&#160; -->
<g id="edge15" class="edge">
<title>Sequence &#160;&#160;&#45;&gt;Fallback &#160;&#160;&#160;</title>
<path fill="none" stroke="black" d="M714.05,-291.46C711.14,-290.27 708.23,-289.1 705.42,-288 661.03,-270.67 649.1,-268.59 604.42,-252 602.07,-251.13 599.65,-250.22 597.22,-249.3"/>
<polygon fill="black" stroke="black" points="598.43,-246.02 587.84,-245.72 595.94,-252.56 598.43,-246.02"/>
</g>
<!-- place0 GreenBox [0.0, 0.0, 0.22] 0.02 YellowBox -->
<g id="node23" class="node">
<title>place0 GreenBox [0.0, 0.0, 0.22] 0.02 YellowBox</title>
<ellipse fill="lightgray" stroke="black" cx="753.42" cy="-234" rx="140.09" ry="18"/>
<text text-anchor="middle" x="753.42" y="-231.8" font-family="Times,serif" font-size="9.00">place0 GreenBox [0.0, 0.0, 0.22] 0.02 YellowBox</text>
</g>
<!-- Sequence &#160;&#160;&#45;&gt;place0 GreenBox [0.0, 0.0, 0.22] 0.02 YellowBox -->
<g id="edge22" class="edge">
<title>Sequence &#160;&#160;&#45;&gt;place0 GreenBox [0.0, 0.0, 0.22] 0.02 YellowBox</title>
<path fill="none" stroke="black" d="M747.4,-287.7C748.28,-279.98 749.34,-270.71 750.32,-262.11"/>
<polygon fill="black" stroke="black" points="753.81,-262.44 751.47,-252.1 746.85,-261.64 753.81,-262.44"/>
</g>
<!-- in_gripper GreenBox -->
<g id="node17" class="node">
<title>in_gripper GreenBox</title>
<ellipse fill="lightgray" stroke="black" cx="454.42" cy="-162" rx="65.64" ry="18"/>
<text text-anchor="middle" x="454.42" y="-159.8" font-family="Times,serif" font-size="9.00">in_gripper GreenBox</text>
</g>
<!-- Fallback &#160;&#160;&#160;&#45;&gt;in_gripper GreenBox -->
<g id="edge16" class="edge">
<title>Fallback &#160;&#160;&#160;&#45;&gt;in_gripper GreenBox</title>
<path fill="none" stroke="black" d="M539.48,-219.17C524.58,-209.33 504.26,-195.92 487.22,-184.66"/>
<polygon fill="black" stroke="black" points="488.93,-181.6 478.66,-179.01 485.07,-187.44 488.93,-181.6"/>
</g>
<!-- Sequence &#160;&#160;&#160; -->
<g id="node18" class="node">
<title>Sequence &#160;&#160;&#160;</title>
<polygon fill="orange" stroke="black" points="600.42,-180 538.42,-180 538.42,-144 600.42,-144 600.42,-180"/>
<text text-anchor="middle" x="569.42" y="-159.8" font-family="Times,serif" font-size="9.00">Sequence</text>
</g>
<!-- Fallback &#160;&#160;&#160;&#45;&gt;Sequence &#160;&#160;&#160; -->
<g id="edge17" class="edge">
<title>Fallback &#160;&#160;&#160;&#45;&gt;Sequence &#160;&#160;&#160;</title>
<path fill="none" stroke="black" d="M562.65,-215.7C563.64,-207.98 564.83,-198.71 565.93,-190.11"/>
<polygon fill="black" stroke="black" points="569.42,-190.47 567.22,-180.1 562.47,-189.58 569.42,-190.47"/>
</g>
<!-- Fallback &#160;&#160;&#160;&#160; -->
<g id="node19" class="node">
<title>Fallback &#160;&#160;&#160;&#160;</title>
<polygon fill="cyan" stroke="black" points="503.41,-82.54 503.41,-97.46 482.91,-108 453.93,-108 433.43,-97.46 433.43,-82.54 453.93,-72 482.91,-72 503.41,-82.54"/>
<text text-anchor="middle" x="468.42" y="-87.8" font-family="Times,serif" font-size="9.00">Fallback</text>
</g>
<!-- Sequence &#160;&#160;&#160;&#45;&gt;Fallback &#160;&#160;&#160;&#160; -->
<g id="edge18" class="edge">
<title>Sequence &#160;&#160;&#160;&#45;&gt;Fallback &#160;&#160;&#160;&#160;</title>
<path fill="none" stroke="black" d="M544.71,-143.88C530.36,-133.93 512.21,-121.35 497.21,-110.95"/>
<polygon fill="black" stroke="black" points="499.01,-107.94 488.8,-105.12 495.02,-113.7 499.01,-107.94"/>
</g>
<!-- pick0 GreenBox -->
<g id="node22" class="node">
<title>pick0 GreenBox</title>
<ellipse fill="lightgray" stroke="black" cx="574.42" cy="-90" rx="52.58" ry="18"/>
<text text-anchor="middle" x="574.42" y="-87.8" font-family="Times,serif" font-size="9.00">pick0 GreenBox</text>
</g>
<!-- Sequence &#160;&#160;&#160;&#45;&gt;pick0 GreenBox -->
<g id="edge21" class="edge">
<title>Sequence &#160;&#160;&#160;&#45;&gt;pick0 GreenBox</title>
<path fill="none" stroke="black" d="M570.66,-143.7C571.21,-135.98 571.87,-126.71 572.48,-118.11"/>
<polygon fill="black" stroke="black" points="575.98,-118.33 573.2,-108.1 569,-117.83 575.98,-118.33"/>
</g>
<!-- gripper_state open  -->
<g id="node20" class="node">
<title>gripper_state open </title>
<ellipse fill="lightgray" stroke="black" cx="427.42" cy="-18" rx="60.09" ry="18"/>
<text text-anchor="middle" x="427.42" y="-15.8" font-family="Times,serif" font-size="9.00">gripper_state open</text>
</g>
<!-- Fallback &#160;&#160;&#160;&#160;&#45;&gt;gripper_state open  -->
<g id="edge19" class="edge">
<title>Fallback &#160;&#160;&#160;&#160;&#45;&gt;gripper_state open </title>
<path fill="none" stroke="black" d="M458.29,-71.7C453.57,-63.64 447.86,-53.89 442.64,-44.98"/>
<polygon fill="black" stroke="black" points="445.51,-42.96 437.44,-36.1 439.47,-46.5 445.51,-42.96"/>
</g>
<!-- open_gripper  -->
<g id="node21" class="node">
<title>open_gripper </title>
<ellipse fill="lightgray" stroke="black" cx="551.42" cy="-18" rx="45.72" ry="18"/>
<text text-anchor="middle" x="551.42" y="-15.8" font-family="Times,serif" font-size="9.00">open_gripper</text>
</g>
<!-- Fallback &#160;&#160;&#160;&#160;&#45;&gt;open_gripper  -->
<g id="edge20" class="edge">
<title>Fallback &#160;&#160;&#160;&#160;&#45;&gt;open_gripper </title>
<path fill="none" stroke="black" d="M486.84,-73.46C498.12,-63.95 512.74,-51.62 525.22,-41.1"/>
<polygon fill="black" stroke="black" points="527.66,-43.61 533.05,-34.49 523.15,-38.26 527.66,-43.61"/>
</g>
<!-- object_at BlueBox [0.0, &#45;0.12, 0.12] 0.02 GreenBox -->
<g id="node25" class="node">
<title>object_at BlueBox [0.0, &#45;0.12, 0.12] 0.02 GreenBox</title>
<ellipse fill="lightgray" stroke="black" cx="941.42" cy="-306" rx="147.45" ry="18"/>
<text text-anchor="middle" x="941.42" y="-303.8" font-family="Times,serif" font-size="9.00">object_at BlueBox [0.0, &#45;0.12, 0.12] 0.02 GreenBox</text>
</g>
<!-- Fallback &#160;&#160;&#160;&#160;&#160;&#45;&gt;object_at BlueBox [0.0, &#45;0.12, 0.12] 0.02 GreenBox -->
<g id="edge24" class="edge">
<title>Fallback &#160;&#160;&#160;&#160;&#160;&#45;&gt;object_at BlueBox [0.0, &#45;0.12, 0.12] 0.02 GreenBox</title>
<path fill="none" stroke="black" d="M941.42,-359.7C941.42,-351.98 941.42,-342.71 941.42,-334.11"/>
<polygon fill="black" stroke="black" points="944.92,-334.1 941.42,-324.1 937.92,-334.1 944.92,-334.1"/>
</g>
<!-- Sequence &#160;&#160;&#160;&#160; -->
<g id="node26" class="node">
<title>Sequence &#160;&#160;&#160;&#160;</title>
<polygon fill="orange" stroke="black" points="1168.42,-324 1106.42,-324 1106.42,-288 1168.42,-288 1168.42,-324"/>
<text text-anchor="middle" x="1137.42" y="-303.8" font-family="Times,serif" font-size="9.00">Sequence</text>
</g>
<!-- Fallback &#160;&#160;&#160;&#160;&#160;&#45;&gt;Sequence &#160;&#160;&#160;&#160; -->
<g id="edge25" class="edge">
<title>Fallback &#160;&#160;&#160;&#160;&#160;&#45;&gt;Sequence &#160;&#160;&#160;&#160;</title>
<path fill="none" stroke="black" d="M970.98,-367.68C1000.62,-358.18 1047.72,-342.66 1096.6,-324.19"/>
<polygon fill="black" stroke="black" points="1097.97,-327.42 1106.07,-320.59 1095.48,-320.87 1097.97,-327.42"/>
</g>
<!-- Fallback &#160;&#160;&#160;&#160;&#160;&#160; -->
<g id="node27" class="node">
<title>Fallback &#160;&#160;&#160;&#160;&#160;&#160;</title>
<polygon fill="cyan" stroke="black" points="983.41,-226.54 983.41,-241.46 962.91,-252 933.93,-252 913.43,-241.46 913.43,-226.54 933.93,-216 962.91,-216 983.41,-226.54"/>
<text text-anchor="middle" x="948.42" y="-231.8" font-family="Times,serif" font-size="9.00">Fallback</text>
</g>
<!-- Sequence &#160;&#160;&#160;&#160;&#45;&gt;Fallback &#160;&#160;&#160;&#160;&#160;&#160; -->
<g id="edge26" class="edge">
<title>Sequence &#160;&#160;&#160;&#160;&#45;&gt;Fallback &#160;&#160;&#160;&#160;&#160;&#160;</title>
<path fill="none" stroke="black" d="M1106.06,-291.42C1103.15,-290.24 1100.24,-289.08 1097.42,-288 1051.36,-270.34 1038.77,-268.89 992.42,-252 990.06,-251.14 987.64,-250.24 985.2,-249.33"/>
<polygon fill="black" stroke="black" points="986.41,-246.05 975.82,-245.77 983.93,-252.59 986.41,-246.05"/>
</g>
<!-- place0 BlueBox [0.0, &#45;0.12, 0.12] 0.02 GreenBox -->
<g id="node34" class="node">
<title>place0 BlueBox [0.0, &#45;0.12, 0.12] 0.02 GreenBox</title>
<ellipse fill="lightgray" stroke="black" cx="1142.42" cy="-234" rx="140.75" ry="18"/>
<text text-anchor="middle" x="1142.42" y="-231.8" font-family="Times,serif" font-size="9.00">place0 BlueBox [0.0, &#45;0.12, 0.12] 0.02 GreenBox</text>
</g>
<!-- Sequence &#160;&#160;&#160;&#160;&#45;&gt;place0 BlueBox [0.0, &#45;0.12, 0.12] 0.02 GreenBox -->
<g id="edge33" class="edge">
<title>Sequence &#160;&#160;&#160;&#160;&#45;&gt;place0 BlueBox [0.0, &#45;0.12, 0.12] 0.02 GreenBox</title>
<path fill="none" stroke="black" d="M1138.66,-287.7C1139.21,-279.98 1139.87,-270.71 1140.48,-262.11"/>
<polygon fill="black" stroke="black" points="1143.98,-262.33 1141.2,-252.1 1137,-261.83 1143.98,-262.33"/>
</g>
<!-- in_gripper BlueBox -->
<g id="node28" class="node">
<title>in_gripper BlueBox</title>
<ellipse fill="lightgray" stroke="black" cx="892.42" cy="-162" rx="61.55" ry="18"/>
<text text-anchor="middle" x="892.42" y="-159.8" font-family="Times,serif" font-size="9.00">in_gripper BlueBox</text>
</g>
<!-- Fallback &#160;&#160;&#160;&#160;&#160;&#160;&#45;&gt;in_gripper BlueBox -->
<g id="edge27" class="edge">
<title>Fallback &#160;&#160;&#160;&#160;&#160;&#160;&#45;&gt;in_gripper BlueBox</title>
<path fill="none" stroke="black" d="M934.58,-215.7C927.76,-207.18 919.43,-196.76 911.98,-187.45"/>
<polygon fill="black" stroke="black" points="914.7,-185.24 905.72,-179.62 909.23,-189.62 914.7,-185.24"/>
</g>
<!-- Sequence &#160;&#160;&#160;&#160;&#160; -->
<g id="node29" class="node">
<title>Sequence &#160;&#160;&#160;&#160;&#160;</title>
<polygon fill="orange" stroke="black" points="1034.42,-180 972.42,-180 972.42,-144 1034.42,-144 1034.42,-180"/>
<text text-anchor="middle" x="1003.42" y="-159.8" font-family="Times,serif" font-size="9.00">Sequence</text>
</g>
<!-- Fallback &#160;&#160;&#160;&#160;&#160;&#160;&#45;&gt;Sequence &#160;&#160;&#160;&#160;&#160; -->
<g id="edge28" class="edge">
<title>Fallback &#160;&#160;&#160;&#160;&#160;&#160;&#45;&gt;Sequence &#160;&#160;&#160;&#160;&#160;</title>
<path fill="none" stroke="black" d="M962.02,-215.7C968.54,-207.39 976.49,-197.28 983.67,-188.14"/>
<polygon fill="black" stroke="black" points="986.56,-190.13 989.98,-180.1 981.05,-185.81 986.56,-190.13"/>
</g>
<!-- Fallback &#160;&#160;&#160;&#160;&#160;&#160;&#160; -->
<g id="node30" class="node">
<title>Fallback &#160;&#160;&#160;&#160;&#160;&#160;&#160;</title>
<polygon fill="cyan" stroke="black" points="987.41,-82.54 987.41,-97.46 966.91,-108 937.93,-108 917.43,-97.46 917.43,-82.54 937.93,-72 966.91,-72 987.41,-82.54"/>
<text text-anchor="middle" x="952.42" y="-87.8" font-family="Times,serif" font-size="9.00">Fallback</text>
</g>
<!-- Sequence &#160;&#160;&#160;&#160;&#160;&#45;&gt;Fallback &#160;&#160;&#160;&#160;&#160;&#160;&#160; -->
<g id="edge29" class="edge">
<title>Sequence &#160;&#160;&#160;&#160;&#160;&#45;&gt;Fallback &#160;&#160;&#160;&#160;&#160;&#160;&#160;</title>
<path fill="none" stroke="black" d="M990.81,-143.7C984.82,-135.47 977.54,-125.48 970.94,-116.42"/>
<polygon fill="black" stroke="black" points="973.6,-114.13 964.88,-108.1 967.94,-118.25 973.6,-114.13"/>
</g>
<!-- pick0 BlueBox -->
<g id="node33" class="node">
<title>pick0 BlueBox</title>
<ellipse fill="lightgray" stroke="black" cx="1053.42" cy="-90" rx="47.84" ry="18"/>
<text text-anchor="middle" x="1053.42" y="-87.8" font-family="Times,serif" font-size="9.00">pick0 BlueBox</text>
</g>
<!-- Sequence &#160;&#160;&#160;&#160;&#160;&#45;&gt;pick0 BlueBox -->
<g id="edge32" class="edge">
<title>Sequence &#160;&#160;&#160;&#160;&#160;&#45;&gt;pick0 BlueBox</title>
<path fill="none" stroke="black" d="M1015.78,-143.7C1021.74,-135.35 1029,-125.18 1035.55,-116.02"/>
<polygon fill="black" stroke="black" points="1038.58,-117.79 1041.55,-107.62 1032.89,-113.73 1038.58,-117.79"/>
</g>
<!-- gripper_state open &#160; -->
<g id="node31" class="node">
<title>gripper_state open &#160;</title>
<ellipse fill="lightgray" stroke="black" cx="890.42" cy="-18" rx="60.09" ry="18"/>
<text text-anchor="middle" x="890.42" y="-15.8" font-family="Times,serif" font-size="9.00">gripper_state open</text>
</g>
<!-- Fallback &#160;&#160;&#160;&#160;&#160;&#160;&#160;&#45;&gt;gripper_state open &#160; -->
<g id="edge30" class="edge">
<title>Fallback &#160;&#160;&#160;&#160;&#160;&#160;&#160;&#45;&gt;gripper_state open &#160;</title>
<path fill="none" stroke="black" d="M937.41,-72.05C929.8,-63.46 920.41,-52.86 912.03,-43.4"/>
<polygon fill="black" stroke="black" points="914.54,-40.95 905.29,-35.79 909.3,-45.6 914.54,-40.95"/>
</g>
<!-- open_gripper &#160; -->
<g id="node32" class="node">
<title>open_gripper &#160;</title>
<ellipse fill="lightgray" stroke="black" cx="1014.42" cy="-18" rx="45.72" ry="18"/>
<text text-anchor="middle" x="1014.42" y="-15.8" font-family="Times,serif" font-size="9.00">open_gripper</text>
</g>
<!-- Fallback &#160;&#160;&#160;&#160;&#160;&#160;&#160;&#45;&gt;open_gripper &#160; -->
<g id="edge31" class="edge">
<title>Fallback &#160;&#160;&#160;&#160;&#160;&#160;&#160;&#45;&gt;open_gripper &#160;</title>
<path fill="none" stroke="black" d="M967.43,-72.05C975.16,-63.33 984.71,-52.54 993.18,-42.98"/>
<polygon fill="black" stroke="black" points="995.97,-45.11 999.98,-35.31 990.73,-40.47 995.97,-45.11"/>
</g>
</g>
</svg>
