<?xml version="1.0" encoding="UTF-8" standalone="no"?>
<!DOCTYPE svg PUBLIC "-//W3C//DTD SVG 1.1//EN"
 "http://www.w3.org/Graphics/SVG/1.1/DTD/svg11.dtd">
<!-- Generated by graphviz version 2.43.0 (0)
 -->
<!-- Title: pastafarianism Pages: 1 -->
<svg width="4542pt" height="503pt"
 viewBox="0.00 0.00 4541.52 502.60" xmlns="http://www.w3.org/2000/svg" xmlns:xlink="http://www.w3.org/1999/xlink">
<g id="graph0" class="graph" transform="scale(1 1) rotate(0) translate(4 498.6)">
<title>pastafarianism</title>
<polygon fill="white" stroke="transparent" points="-4,4 -4,-498.6 4537.52,-498.6 4537.52,4 -4,4"/>
<!-- selector:
 insert_gear1_into_shaft1 -->
<g id="node1" class="node">
<title>selector:
 insert_gear1_into_shaft1</title>
<polygon fill="#8deeee" stroke="black" points="1980.85,-442.54 1980.85,-473.18 1871,-494.84 1715.65,-494.84 1605.79,-473.18 1605.79,-442.54 1715.65,-420.88 1871,-420.88 1980.85,-442.54"/>
<text text-anchor="middle" x="1793.32" y="-463.46" font-family="Times,serif" font-size="18.00">selector:</text>
<text text-anchor="middle" x="1793.32" y="-443.46" font-family="Times,serif" font-size="18.00"> insert_gear1_into_shaft1</text>
</g>
<!-- target:
 is_inserted_to(gear1, shaft1) -->
<g id="node2" class="node">
<title>target:
 is_inserted_to(gear1, shaft1)</title>
<ellipse fill="#ffec8b" stroke="black" cx="1624.32" cy="-351.18" rx="198.89" ry="33.88"/>
<text text-anchor="middle" x="1624.32" y="-356.78" font-family="Times,serif" font-size="18.00">target:</text>
<text text-anchor="middle" x="1624.32" y="-336.78" font-family="Times,serif" font-size="18.00"> is_inserted_to(gear1, shaft1)</text>
</g>
<!-- selector:
 insert_gear1_into_shaft1&#45;&gt;target:
 is_inserted_to(gear1, shaft1) -->
<g id="edge1" class="edge">
<title>selector:
 insert_gear1_into_shaft1&#45;&gt;target:
 is_inserted_to(gear1, shaft1)</title>
<path fill="none" stroke="black" d="M1735.16,-420.84C1718.74,-410.66 1700.84,-399.58 1684.31,-389.34"/>
<polygon fill="black" stroke="black" points="1686.15,-386.36 1675.81,-384.07 1682.47,-392.31 1686.15,-386.36"/>
</g>
<!-- sequence:
 insert_gear1_into_shaft1 -->
<g id="node3" class="node">
<title>sequence:
 insert_gear1_into_shaft1</title>
<polygon fill="#ff7f24" stroke="black" points="2085.82,-375.18 1840.82,-375.18 1840.82,-327.18 2085.82,-327.18 2085.82,-375.18"/>
<text text-anchor="middle" x="1963.32" y="-356.78" font-family="Times,serif" font-size="18.00">sequence:</text>
<text text-anchor="middle" x="1963.32" y="-336.78" font-family="Times,serif" font-size="18.00"> insert_gear1_into_shaft1</text>
</g>
<!-- selector:
 insert_gear1_into_shaft1&#45;&gt;sequence:
 insert_gear1_into_shaft1 -->
<g id="edge2" class="edge">
<title>selector:
 insert_gear1_into_shaft1&#45;&gt;sequence:
 insert_gear1_into_shaft1</title>
<path fill="none" stroke="black" d="M1851.83,-420.84C1873.16,-407.7 1896.97,-393.04 1917.09,-380.65"/>
<polygon fill="black" stroke="black" points="1919.08,-383.53 1925.76,-375.31 1915.41,-377.57 1919.08,-383.53"/>
</g>
<!-- selector:
 change_tool(left_hand, outwardgripper, parallelgripper) -->
<g id="node4" class="node">
<title>selector:
 change_tool(left_hand, outwardgripper, parallelgripper)</title>
<polygon fill="#8deeee" stroke="black" points="1512.52,-229.19 1512.52,-259.82 1276.33,-281.48 942.31,-281.48 706.13,-259.82 706.13,-229.19 942.31,-207.53 1276.33,-207.53 1512.52,-229.19"/>
<text text-anchor="middle" x="1109.32" y="-250.1" font-family="Times,serif" font-size="18.00">selector:</text>
<text text-anchor="middle" x="1109.32" y="-230.1" font-family="Times,serif" font-size="18.00"> change_tool(left_hand, outwardgripper, parallelgripper)</text>
</g>
<!-- sequence:
 insert_gear1_into_shaft1&#45;&gt;selector:
 change_tool(left_hand, outwardgripper, parallelgripper) -->
<g id="edge3" class="edge">
<title>sequence:
 insert_gear1_into_shaft1&#45;&gt;selector:
 change_tool(left_hand, outwardgripper, parallelgripper)</title>
<path fill="none" stroke="black" d="M1879.51,-327.16C1863.91,-323.43 1847.69,-319.92 1832.32,-317.24 1705.59,-295.14 1565.09,-279.27 1441.9,-268.16"/>
<polygon fill="black" stroke="black" points="1442.2,-264.67 1431.93,-267.27 1441.57,-271.65 1442.2,-264.67"/>
</g>
<!-- selector:
 pick_up_gear1_with_parallelgripper -->
<g id="node10" class="node">
<title>selector:
 pick_up_gear1_with_parallelgripper</title>
<polygon fill="#8deeee" stroke="black" points="2228.99,-229.19 2228.99,-259.82 2073.37,-281.48 1853.28,-281.48 1697.66,-259.82 1697.66,-229.19 1853.28,-207.53 2073.37,-207.53 2228.99,-229.19"/>
<text text-anchor="middle" x="1963.32" y="-250.1" font-family="Times,serif" font-size="18.00">selector:</text>
<text text-anchor="middle" x="1963.32" y="-230.1" font-family="Times,serif" font-size="18.00"> pick_up_gear1_with_parallelgripper</text>
</g>
<!-- sequence:
 insert_gear1_into_shaft1&#45;&gt;selector:
 pick_up_gear1_with_parallelgripper -->
<g id="edge9" class="edge">
<title>sequence:
 insert_gear1_into_shaft1&#45;&gt;selector:
 pick_up_gear1_with_parallelgripper</title>
<path fill="none" stroke="black" d="M1963.32,-326.95C1963.32,-316.5 1963.32,-303.79 1963.32,-291.54"/>
<polygon fill="black" stroke="black" points="1966.82,-291.42 1963.32,-281.42 1959.82,-291.42 1966.82,-291.42"/>
</g>
<!-- &quot;selector:\n insert_gear1_into_shaft1&quot;* -->
<g id="node16" class="node">
<title>&quot;selector:\n insert_gear1_into_shaft1&quot;*</title>
<polygon fill="#8deeee" stroke="black" points="2965.41,-229.19 2965.41,-259.82 2847.62,-281.48 2681.03,-281.48 2563.24,-259.82 2563.24,-229.19 2681.03,-207.53 2847.62,-207.53 2965.41,-229.19"/>
<text text-anchor="middle" x="2764.32" y="-250.1" font-family="Times,serif" font-size="18.00">&quot;selector:</text>
<text text-anchor="middle" x="2764.32" y="-230.1" font-family="Times,serif" font-size="18.00"> insert_gear1_into_shaft1&quot;*</text>
</g>
<!-- sequence:
 insert_gear1_into_shaft1&#45;&gt;&quot;selector:\n insert_gear1_into_shaft1&quot;* -->
<g id="edge15" class="edge">
<title>sequence:
 insert_gear1_into_shaft1&#45;&gt;&quot;selector:\n insert_gear1_into_shaft1&quot;*</title>
<path fill="none" stroke="black" d="M2085.85,-334.17C2220.83,-316.53 2438.92,-288.03 2591.29,-268.11"/>
<polygon fill="black" stroke="black" points="2591.77,-271.58 2601.23,-266.82 2590.87,-264.64 2591.77,-271.58"/>
</g>
<!-- target:
 hold(left_hand, parallelgripper) -->
<g id="node5" class="node">
<title>target:
 hold(left_hand, parallelgripper)</title>
<ellipse fill="#ffec8b" stroke="black" cx="610.32" cy="-137.82" rx="217.16" ry="33.88"/>
<text text-anchor="middle" x="610.32" y="-143.42" font-family="Times,serif" font-size="18.00">target:</text>
<text text-anchor="middle" x="610.32" y="-123.42" font-family="Times,serif" font-size="18.00"> hold(left_hand, parallelgripper)</text>
</g>
<!-- selector:
 change_tool(left_hand, outwardgripper, parallelgripper)&#45;&gt;target:
 hold(left_hand, parallelgripper) -->
<g id="edge4" class="edge">
<title>selector:
 change_tool(left_hand, outwardgripper, parallelgripper)&#45;&gt;target:
 hold(left_hand, parallelgripper)</title>
<path fill="none" stroke="black" d="M938.99,-207.77C876.41,-194.64 806.41,-179.96 747.15,-167.53"/>
<polygon fill="black" stroke="black" points="747.86,-164.1 737.36,-165.47 746.43,-170.95 747.86,-164.1"/>
</g>
<!-- sequence:
 change_tool(left_hand, outwardgripper, parallelgripper) -->
<g id="node6" class="node">
<title>sequence:
 change_tool(left_hand, outwardgripper, parallelgripper)</title>
<polygon fill="#ff7f24" stroke="black" points="1372.82,-161.82 845.82,-161.82 845.82,-113.82 1372.82,-113.82 1372.82,-161.82"/>
<text text-anchor="middle" x="1109.32" y="-143.42" font-family="Times,serif" font-size="18.00">sequence:</text>
<text text-anchor="middle" x="1109.32" y="-123.42" font-family="Times,serif" font-size="18.00"> change_tool(left_hand, outwardgripper, parallelgripper)</text>
</g>
<!-- selector:
 change_tool(left_hand, outwardgripper, parallelgripper)&#45;&gt;sequence:
 change_tool(left_hand, outwardgripper, parallelgripper) -->
<g id="edge5" class="edge">
<title>selector:
 change_tool(left_hand, outwardgripper, parallelgripper)&#45;&gt;sequence:
 change_tool(left_hand, outwardgripper, parallelgripper)</title>
<path fill="none" stroke="black" d="M1109.32,-207.48C1109.32,-196.09 1109.32,-183.57 1109.32,-172.36"/>
<polygon fill="black" stroke="black" points="1112.82,-172.11 1109.32,-162.11 1105.82,-172.11 1112.82,-172.11"/>
</g>
<!-- precondition:
 hold(left_hand, outwardgripper) -->
<g id="node7" class="node">
<title>precondition:
 hold(left_hand, outwardgripper)</title>
<ellipse fill="#ffec8b" stroke="black" cx="221.32" cy="-33.94" rx="221.15" ry="33.88"/>
<text text-anchor="middle" x="221.32" y="-39.54" font-family="Times,serif" font-size="18.00">precondition:</text>
<text text-anchor="middle" x="221.32" y="-19.54" font-family="Times,serif" font-size="18.00"> hold(left_hand, outwardgripper)</text>
</g>
<!-- sequence:
 change_tool(left_hand, outwardgripper, parallelgripper)&#45;&gt;precondition:
 hold(left_hand, outwardgripper) -->
<g id="edge6" class="edge">
<title>sequence:
 change_tool(left_hand, outwardgripper, parallelgripper)&#45;&gt;precondition:
 hold(left_hand, outwardgripper)</title>
<path fill="none" stroke="black" d="M924,-113.78C894.68,-110.33 864.69,-106.92 836.32,-103.88 665.44,-85.59 621.99,-88.07 451.32,-67.88 430.31,-65.4 408.25,-62.55 386.45,-59.58"/>
<polygon fill="black" stroke="black" points="386.84,-56.11 376.46,-58.22 385.89,-63.04 386.84,-56.11"/>
</g>
<!-- precondition:
 is_empty(outwardgripper) -->
<g id="node8" class="node">
<title>precondition:
 is_empty(outwardgripper)</title>
<ellipse fill="#ffec8b" stroke="black" cx="643.32" cy="-33.94" rx="183.28" ry="33.88"/>
<text text-anchor="middle" x="643.32" y="-39.54" font-family="Times,serif" font-size="18.00">precondition:</text>
<text text-anchor="middle" x="643.32" y="-19.54" font-family="Times,serif" font-size="18.00"> is_empty(outwardgripper)</text>
</g>
<!-- sequence:
 change_tool(left_hand, outwardgripper, parallelgripper)&#45;&gt;precondition:
 is_empty(outwardgripper) -->
<g id="edge7" class="edge">
<title>sequence:
 change_tool(left_hand, outwardgripper, parallelgripper)&#45;&gt;precondition:
 is_empty(outwardgripper)</title>
<path fill="none" stroke="black" d="M1003.87,-113.77C934.24,-98.54 842.64,-78.52 769.19,-62.46"/>
<polygon fill="black" stroke="black" points="769.93,-59.04 759.41,-60.32 768.43,-65.88 769.93,-59.04"/>
</g>
<!-- action:
 change_tool(left_hand, outwardgripper, parallelgripper) -->
<g id="node9" class="node">
<title>action:
 change_tool(left_hand, outwardgripper, parallelgripper)</title>
<ellipse fill="lightgreen" stroke="black" cx="1217.32" cy="-33.94" rx="372.79" ry="33.88"/>
<text text-anchor="middle" x="1217.32" y="-39.54" font-family="Times,serif" font-size="18.00">action:</text>
<text text-anchor="middle" x="1217.32" y="-19.54" font-family="Times,serif" font-size="18.00"> change_tool(left_hand, outwardgripper, parallelgripper)</text>
</g>
<!-- sequence:
 change_tool(left_hand, outwardgripper, parallelgripper)&#45;&gt;action:
 change_tool(left_hand, outwardgripper, parallelgripper) -->
<g id="edge8" class="edge">
<title>sequence:
 change_tool(left_hand, outwardgripper, parallelgripper)&#45;&gt;action:
 change_tool(left_hand, outwardgripper, parallelgripper)</title>
<path fill="none" stroke="black" d="M1133.83,-113.7C1145.91,-102.31 1160.83,-88.24 1174.69,-75.16"/>
<polygon fill="black" stroke="black" points="1177.39,-77.42 1182.27,-68.01 1172.59,-72.33 1177.39,-77.42"/>
</g>
<!-- target:
 hold(parallelgripper, gear1) -->
<g id="node11" class="node">
<title>target:
 hold(parallelgripper, gear1)</title>
<ellipse fill="#ffec8b" stroke="black" cx="1855.32" cy="-137.82" rx="192.17" ry="33.88"/>
<text text-anchor="middle" x="1855.32" y="-143.42" font-family="Times,serif" font-size="18.00">target:</text>
<text text-anchor="middle" x="1855.32" y="-123.42" font-family="Times,serif" font-size="18.00"> hold(parallelgripper, gear1)</text>
</g>
<!-- selector:
 pick_up_gear1_with_parallelgripper&#45;&gt;target:
 hold(parallelgripper, gear1) -->
<g id="edge10" class="edge">
<title>selector:
 pick_up_gear1_with_parallelgripper&#45;&gt;target:
 hold(parallelgripper, gear1)</title>
<path fill="none" stroke="black" d="M1926.16,-207.48C1916.53,-198.15 1906.11,-188.05 1896.3,-178.54"/>
<polygon fill="black" stroke="black" points="1898.56,-175.85 1888.94,-171.4 1893.68,-180.88 1898.56,-175.85"/>
</g>
<!-- sequence:
 pick_up_gear1_with_parallelgripper -->
<g id="node12" class="node">
<title>sequence:
 pick_up_gear1_with_parallelgripper</title>
<polygon fill="#ff7f24" stroke="black" points="2412.82,-161.82 2065.82,-161.82 2065.82,-113.82 2412.82,-113.82 2412.82,-161.82"/>
<text text-anchor="middle" x="2239.32" y="-143.42" font-family="Times,serif" font-size="18.00">sequence:</text>
<text text-anchor="middle" x="2239.32" y="-123.42" font-family="Times,serif" font-size="18.00"> pick_up_gear1_with_parallelgripper</text>
</g>
<!-- selector:
 pick_up_gear1_with_parallelgripper&#45;&gt;sequence:
 pick_up_gear1_with_parallelgripper -->
<g id="edge11" class="edge">
<title>selector:
 pick_up_gear1_with_parallelgripper&#45;&gt;sequence:
 pick_up_gear1_with_parallelgripper</title>
<path fill="none" stroke="black" d="M2057.92,-207.62C2094.28,-193.83 2135.12,-178.35 2168.82,-165.56"/>
<polygon fill="black" stroke="black" points="2170.48,-168.68 2178.58,-161.86 2167.99,-162.13 2170.48,-168.68"/>
</g>
<!-- precondition:
 hold(left_hand, parallelgripper) -->
<g id="node13" class="node">
<title>precondition:
 hold(left_hand, parallelgripper)</title>
<ellipse fill="#ffec8b" stroke="black" cx="1825.32" cy="-33.94" rx="217.16" ry="33.88"/>
<text text-anchor="middle" x="1825.32" y="-39.54" font-family="Times,serif" font-size="18.00">precondition:</text>
<text text-anchor="middle" x="1825.32" y="-19.54" font-family="Times,serif" font-size="18.00"> hold(left_hand, parallelgripper)</text>
</g>
<!-- sequence:
 pick_up_gear1_with_parallelgripper&#45;&gt;precondition:
 hold(left_hand, parallelgripper) -->
<g id="edge12" class="edge">
<title>sequence:
 pick_up_gear1_with_parallelgripper&#45;&gt;precondition:
 hold(left_hand, parallelgripper)</title>
<path fill="none" stroke="black" d="M2145.64,-113.77C2087.45,-99.45 2012,-80.88 1948.94,-65.36"/>
<polygon fill="black" stroke="black" points="1949.47,-61.89 1938.93,-62.9 1947.8,-68.69 1949.47,-61.89"/>
</g>
<!-- precondition:
 is_empty(parallelgripper) -->
<g id="node14" class="node">
<title>precondition:
 is_empty(parallelgripper)</title>
<ellipse fill="#ffec8b" stroke="black" cx="2239.32" cy="-33.94" rx="178.8" ry="33.88"/>
<text text-anchor="middle" x="2239.32" y="-39.54" font-family="Times,serif" font-size="18.00">precondition:</text>
<text text-anchor="middle" x="2239.32" y="-19.54" font-family="Times,serif" font-size="18.00"> is_empty(parallelgripper)</text>
</g>
<!-- sequence:
 pick_up_gear1_with_parallelgripper&#45;&gt;precondition:
 is_empty(parallelgripper) -->
<g id="edge13" class="edge">
<title>sequence:
 pick_up_gear1_with_parallelgripper&#45;&gt;precondition:
 is_empty(parallelgripper)</title>
<path fill="none" stroke="black" d="M2239.32,-113.7C2239.32,-103.16 2239.32,-90.31 2239.32,-78.08"/>
<polygon fill="black" stroke="black" points="2242.82,-78.01 2239.32,-68.01 2235.82,-78.01 2242.82,-78.01"/>
</g>
<!-- action:
 pick_up(left_hand, parallelgripper, gear1) -->
<g id="node15" class="node">
<title>action:
 pick_up(left_hand, parallelgripper, gear1)</title>
<ellipse fill="lightgreen" stroke="black" cx="2718.32" cy="-33.94" rx="282.27" ry="33.88"/>
<text text-anchor="middle" x="2718.32" y="-39.54" font-family="Times,serif" font-size="18.00">action:</text>
<text text-anchor="middle" x="2718.32" y="-19.54" font-family="Times,serif" font-size="18.00"> pick_up(left_hand, parallelgripper, gear1)</text>
</g>
<!-- sequence:
 pick_up_gear1_with_parallelgripper&#45;&gt;action:
 pick_up(left_hand, parallelgripper, gear1) -->
<g id="edge14" class="edge">
<title>sequence:
 pick_up_gear1_with_parallelgripper&#45;&gt;action:
 pick_up(left_hand, parallelgripper, gear1)</title>
<path fill="none" stroke="black" d="M2347.72,-113.77C2414.27,-99.61 2500.35,-81.3 2572.79,-65.89"/>
<polygon fill="black" stroke="black" points="2573.87,-69.24 2582.92,-63.74 2572.41,-62.4 2573.87,-69.24"/>
</g>
<!-- &quot;target:\n is_inserted_to(gear1, shaft1)&quot;* -->
<g id="node17" class="node">
<title>&quot;target:\n is_inserted_to(gear1, shaft1)&quot;*</title>
<ellipse fill="#ffec8b" stroke="black" cx="2764.32" cy="-137.82" rx="211.35" ry="33.88"/>
<text text-anchor="middle" x="2764.32" y="-143.42" font-family="Times,serif" font-size="18.00">&quot;target:</text>
<text text-anchor="middle" x="2764.32" y="-123.42" font-family="Times,serif" font-size="18.00"> is_inserted_to(gear1, shaft1)&quot;*</text>
</g>
<!-- &quot;selector:\n insert_gear1_into_shaft1&quot;*&#45;&gt;&quot;target:\n is_inserted_to(gear1, shaft1)&quot;* -->
<g id="edge16" class="edge">
<title>&quot;selector:\n insert_gear1_into_shaft1&quot;*&#45;&gt;&quot;target:\n is_inserted_to(gear1, shaft1)&quot;*</title>
<path fill="none" stroke="black" d="M2764.32,-207.48C2764.32,-199.32 2764.32,-190.58 2764.32,-182.15"/>
<polygon fill="black" stroke="black" points="2767.82,-182.1 2764.32,-172.1 2760.82,-182.1 2767.82,-182.1"/>
</g>
<!-- &quot;sequence:\n insert_gear1_into_shaft1&quot;* -->
<g id="node18" class="node">
<title>&quot;sequence:\n insert_gear1_into_shaft1&quot;*</title>
<polygon fill="#ff7f24" stroke="black" points="3597.82,-161.82 3334.82,-161.82 3334.82,-113.82 3597.82,-113.82 3597.82,-161.82"/>
<text text-anchor="middle" x="3466.32" y="-143.42" font-family="Times,serif" font-size="18.00">&quot;sequence:</text>
<text text-anchor="middle" x="3466.32" y="-123.42" font-family="Times,serif" font-size="18.00"> insert_gear1_into_shaft1&quot;*</text>
</g>
<!-- &quot;selector:\n insert_gear1_into_shaft1&quot;*&#45;&gt;&quot;sequence:\n insert_gear1_into_shaft1&quot;* -->
<g id="edge17" class="edge">
<title>&quot;selector:\n insert_gear1_into_shaft1&quot;*&#45;&gt;&quot;sequence:\n insert_gear1_into_shaft1&quot;*</title>
<path fill="none" stroke="black" d="M2918.38,-220.53C3039.46,-202.47 3206.78,-177.53 3324.58,-159.96"/>
<polygon fill="black" stroke="black" points="3325.37,-163.38 3334.75,-158.44 3324.34,-156.46 3325.37,-163.38"/>
</g>
<!-- &quot;precondition:\n hold(left_hand, parallelgripper)&quot;* -->
<g id="node19" class="node">
<title>&quot;precondition:\n hold(left_hand, parallelgripper)&quot;*</title>
<ellipse fill="#ffec8b" stroke="black" cx="3247.32" cy="-33.94" rx="229.21" ry="33.88"/>
<text text-anchor="middle" x="3247.32" y="-39.54" font-family="Times,serif" font-size="18.00">&quot;precondition:</text>
<text text-anchor="middle" x="3247.32" y="-19.54" font-family="Times,serif" font-size="18.00"> hold(left_hand, parallelgripper)&quot;*</text>
</g>
<!-- &quot;sequence:\n insert_gear1_into_shaft1&quot;*&#45;&gt;&quot;precondition:\n hold(left_hand, parallelgripper)&quot;* -->
<g id="edge18" class="edge">
<title>&quot;sequence:\n insert_gear1_into_shaft1&quot;*&#45;&gt;&quot;precondition:\n hold(left_hand, parallelgripper)&quot;*</title>
<path fill="none" stroke="black" d="M3416.63,-113.7C3389.41,-101.04 3355.08,-85.07 3324.46,-70.82"/>
<polygon fill="black" stroke="black" points="3325.63,-67.51 3315.08,-66.46 3322.68,-73.86 3325.63,-67.51"/>
</g>
<!-- precondition:
 hold(parallelgripper, gear1) -->
<g id="node20" class="node">
<title>precondition:
 hold(parallelgripper, gear1)</title>
<ellipse fill="#ffec8b" stroke="black" cx="3686.32" cy="-33.94" rx="192.17" ry="33.88"/>
<text text-anchor="middle" x="3686.32" y="-39.54" font-family="Times,serif" font-size="18.00">precondition:</text>
<text text-anchor="middle" x="3686.32" y="-19.54" font-family="Times,serif" font-size="18.00"> hold(parallelgripper, gear1)</text>
</g>
<!-- &quot;sequence:\n insert_gear1_into_shaft1&quot;*&#45;&gt;precondition:
 hold(parallelgripper, gear1) -->
<g id="edge19" class="edge">
<title>&quot;sequence:\n insert_gear1_into_shaft1&quot;*&#45;&gt;precondition:
 hold(parallelgripper, gear1)</title>
<path fill="none" stroke="black" d="M3516.25,-113.7C3544.05,-100.83 3579.25,-84.53 3610.4,-70.1"/>
<polygon fill="black" stroke="black" points="3611.89,-73.27 3619.5,-65.89 3608.95,-66.91 3611.89,-73.27"/>
</g>
<!-- action:
 insert(left_hand, parallelgripper, gear1, shaft1) -->
<g id="node21" class="node">
<title>action:
 insert(left_hand, parallelgripper, gear1, shaft1)</title>
<ellipse fill="lightgreen" stroke="black" cx="4215.32" cy="-33.94" rx="318.4" ry="33.88"/>
<text text-anchor="middle" x="4215.32" y="-39.54" font-family="Times,serif" font-size="18.00">action:</text>
<text text-anchor="middle" x="4215.32" y="-19.54" font-family="Times,serif" font-size="18.00"> insert(left_hand, parallelgripper, gear1, shaft1)</text>
</g>
<!-- &quot;sequence:\n insert_gear1_into_shaft1&quot;*&#45;&gt;action:
 insert(left_hand, parallelgripper, gear1, shaft1) -->
<g id="edge20" class="edge">
<title>&quot;sequence:\n insert_gear1_into_shaft1&quot;*&#45;&gt;action:
 insert(left_hand, parallelgripper, gear1, shaft1)</title>
<path fill="none" stroke="black" d="M3598.08,-118.9C3712.93,-103.28 3881.31,-80.37 4013.21,-62.43"/>
<polygon fill="black" stroke="black" points="4014,-65.86 4023.44,-61.04 4013.06,-58.92 4014,-65.86"/>
</g>
</g>
</svg>
