<?xml version="1.0" encoding="UTF-8" standalone="no"?>
<!DOCTYPE svg PUBLIC "-//W3C//DTD SVG 1.1//EN"
 "http://www.w3.org/Graphics/SVG/1.1/DTD/svg11.dtd">
<!-- Generated by graphviz version 2.43.0 (0)
 -->
<!-- Title: pastafarianism Pages: 1 -->
<svg width="2902pt" height="503pt"
 viewBox="0.00 0.00 2902.25 502.60" xmlns="http://www.w3.org/2000/svg" xmlns:xlink="http://www.w3.org/1999/xlink">
<g id="graph0" class="graph" transform="scale(1 1) rotate(0) translate(4 498.6)">
<title>pastafarianism</title>
<polygon fill="white" stroke="transparent" points="-4,4 -4,-498.6 2898.25,-498.6 2898.25,4 -4,4"/>
<!-- selector:
 insert(shaft1, gearbase_hole1, clampgripper, left_hand) -->
<g id="node1" class="node">
<title>selector:
 insert(shaft1, gearbase_hole1, clampgripper, left_hand)</title>
<polygon fill="#8deeee" stroke="black" points="1609.29,-442.54 1609.29,-473.18 1374.33,-494.84 1042.04,-494.84 807.08,-473.18 807.08,-442.54 1042.04,-420.88 1374.33,-420.88 1609.29,-442.54"/>
<text text-anchor="middle" x="1208.18" y="-463.46" font-family="Times,serif" font-size="18.00">selector:</text>
<text text-anchor="middle" x="1208.18" y="-443.46" font-family="Times,serif" font-size="18.00"> insert(shaft1, gearbase_hole1, clampgripper, left_hand)</text>
</g>
<!-- target:
 is_inserted_to(shaft1, gearbase_hole1) -->
<g id="node2" class="node">
<title>target:
 is_inserted_to(shaft1, gearbase_hole1)</title>
<ellipse fill="#ffec8b" stroke="black" cx="937.18" cy="-351.18" rx="261.76" ry="33.88"/>
<text text-anchor="middle" x="937.18" y="-356.78" font-family="Times,serif" font-size="18.00">target:</text>
<text text-anchor="middle" x="937.18" y="-336.78" font-family="Times,serif" font-size="18.00"> is_inserted_to(shaft1, gearbase_hole1)</text>
</g>
<!-- selector:
 insert(shaft1, gearbase_hole1, clampgripper, left_hand)&#45;&gt;target:
 is_inserted_to(shaft1, gearbase_hole1) -->
<g id="edge1" class="edge">
<title>selector:
 insert(shaft1, gearbase_hole1, clampgripper, left_hand)&#45;&gt;target:
 is_inserted_to(shaft1, gearbase_hole1)</title>
<path fill="none" stroke="black" d="M1115.3,-420.98C1086.94,-410.03 1055.81,-398 1027.62,-387.11"/>
<polygon fill="black" stroke="black" points="1028.77,-383.8 1018.18,-383.47 1026.24,-390.33 1028.77,-383.8"/>
</g>
<!-- sequence:
 insert(shaft1, gearbase_hole1, clampgripper, left_hand) -->
<g id="node3" class="node">
<title>sequence:
 insert(shaft1, gearbase_hole1, clampgripper, left_hand)</title>
<polygon fill="#ff7f24" stroke="black" points="1741.18,-375.18 1217.18,-375.18 1217.18,-327.18 1741.18,-327.18 1741.18,-375.18"/>
<text text-anchor="middle" x="1479.18" y="-356.78" font-family="Times,serif" font-size="18.00">sequence:</text>
<text text-anchor="middle" x="1479.18" y="-336.78" font-family="Times,serif" font-size="18.00"> insert(shaft1, gearbase_hole1, clampgripper, left_hand)</text>
</g>
<!-- selector:
 insert(shaft1, gearbase_hole1, clampgripper, left_hand)&#45;&gt;sequence:
 insert(shaft1, gearbase_hole1, clampgripper, left_hand) -->
<g id="edge2" class="edge">
<title>selector:
 insert(shaft1, gearbase_hole1, clampgripper, left_hand)&#45;&gt;sequence:
 insert(shaft1, gearbase_hole1, clampgripper, left_hand)</title>
<path fill="none" stroke="black" d="M1301.07,-420.98C1336.77,-407.19 1376.86,-391.7 1409.96,-378.92"/>
<polygon fill="black" stroke="black" points="1411.48,-382.09 1419.54,-375.22 1408.95,-375.56 1411.48,-382.09"/>
</g>
<!-- selector:
 change_tool(left_hand, defaultgripper, clampgripper) -->
<g id="node4" class="node">
<title>selector:
 change_tool(left_hand, defaultgripper, clampgripper)</title>
<polygon fill="#8deeee" stroke="black" points="1067.61,-229.19 1067.61,-259.82 842.42,-281.48 523.95,-281.48 298.75,-259.82 298.75,-229.19 523.95,-207.53 842.42,-207.53 1067.61,-229.19"/>
<text text-anchor="middle" x="683.18" y="-250.1" font-family="Times,serif" font-size="18.00">selector:</text>
<text text-anchor="middle" x="683.18" y="-230.1" font-family="Times,serif" font-size="18.00"> change_tool(left_hand, defaultgripper, clampgripper)</text>
</g>
<!-- sequence:
 insert(shaft1, gearbase_hole1, clampgripper, left_hand)&#45;&gt;selector:
 change_tool(left_hand, defaultgripper, clampgripper) -->
<g id="edge3" class="edge">
<title>sequence:
 insert(shaft1, gearbase_hole1, clampgripper, left_hand)&#45;&gt;selector:
 change_tool(left_hand, defaultgripper, clampgripper)</title>
<path fill="none" stroke="black" d="M1304,-327.14C1190.8,-312.26 1042.12,-292.7 918.64,-276.47"/>
<polygon fill="black" stroke="black" points="919.03,-272.99 908.66,-275.15 918.12,-279.93 919.03,-272.99"/>
</g>
<!-- selector:
 pick_up(left_hand, clampgripper, shaft1) -->
<g id="node10" class="node">
<title>selector:
 pick_up(left_hand, clampgripper, shaft1)</title>
<polygon fill="#8deeee" stroke="black" points="1777.14,-229.19 1777.14,-259.82 1602.6,-281.48 1355.77,-281.48 1181.23,-259.82 1181.23,-229.19 1355.77,-207.53 1602.6,-207.53 1777.14,-229.19"/>
<text text-anchor="middle" x="1479.18" y="-250.1" font-family="Times,serif" font-size="18.00">selector:</text>
<text text-anchor="middle" x="1479.18" y="-230.1" font-family="Times,serif" font-size="18.00"> pick_up(left_hand, clampgripper, shaft1)</text>
</g>
<!-- sequence:
 insert(shaft1, gearbase_hole1, clampgripper, left_hand)&#45;&gt;selector:
 pick_up(left_hand, clampgripper, shaft1) -->
<g id="edge9" class="edge">
<title>sequence:
 insert(shaft1, gearbase_hole1, clampgripper, left_hand)&#45;&gt;selector:
 pick_up(left_hand, clampgripper, shaft1)</title>
<path fill="none" stroke="black" d="M1479.18,-326.95C1479.18,-316.5 1479.18,-303.79 1479.18,-291.54"/>
<polygon fill="black" stroke="black" points="1482.68,-291.42 1479.18,-281.42 1475.68,-291.42 1482.68,-291.42"/>
</g>
<!-- action:
 insert(left_hand, clampgripper, shaft1, gearbase_hole1) -->
<g id="node16" class="node">
<title>action:
 insert(left_hand, clampgripper, shaft1, gearbase_hole1)</title>
<ellipse fill="lightgreen" stroke="black" cx="2165.18" cy="-244.5" rx="370.55" ry="33.88"/>
<text text-anchor="middle" x="2165.18" y="-250.1" font-family="Times,serif" font-size="18.00">action:</text>
<text text-anchor="middle" x="2165.18" y="-230.1" font-family="Times,serif" font-size="18.00"> insert(left_hand, clampgripper, shaft1, gearbase_hole1)</text>
</g>
<!-- sequence:
 insert(shaft1, gearbase_hole1, clampgripper, left_hand)&#45;&gt;action:
 insert(left_hand, clampgripper, shaft1, gearbase_hole1) -->
<g id="edge15" class="edge">
<title>sequence:
 insert(shaft1, gearbase_hole1, clampgripper, left_hand)&#45;&gt;action:
 insert(left_hand, clampgripper, shaft1, gearbase_hole1)</title>
<path fill="none" stroke="black" d="M1630.15,-327.14C1729.81,-311.94 1861.37,-291.86 1969.09,-275.42"/>
<polygon fill="black" stroke="black" points="1969.75,-278.86 1979.11,-273.9 1968.69,-271.94 1969.75,-278.86"/>
</g>
<!-- target:
 hold(left_hand, clampgripper) -->
<g id="node5" class="node">
<title>target:
 hold(left_hand, clampgripper)</title>
<ellipse fill="#ffec8b" stroke="black" cx="207.18" cy="-137.82" rx="207.36" ry="33.88"/>
<text text-anchor="middle" x="207.18" y="-143.42" font-family="Times,serif" font-size="18.00">target:</text>
<text text-anchor="middle" x="207.18" y="-123.42" font-family="Times,serif" font-size="18.00"> hold(left_hand, clampgripper)</text>
</g>
<!-- selector:
 change_tool(left_hand, defaultgripper, clampgripper)&#45;&gt;target:
 hold(left_hand, clampgripper) -->
<g id="edge4" class="edge">
<title>selector:
 change_tool(left_hand, defaultgripper, clampgripper)&#45;&gt;target:
 hold(left_hand, clampgripper)</title>
<path fill="none" stroke="black" d="M520.7,-207.77C461.25,-194.7 394.78,-180.08 338.4,-167.68"/>
<polygon fill="black" stroke="black" points="338.88,-164.2 328.36,-165.47 337.38,-171.04 338.88,-164.2"/>
</g>
<!-- sequence:
 change_tool(left_hand, defaultgripper, clampgripper) -->
<g id="node6" class="node">
<title>sequence:
 change_tool(left_hand, defaultgripper, clampgripper)</title>
<polygon fill="#ff7f24" stroke="black" points="934.18,-161.82 432.18,-161.82 432.18,-113.82 934.18,-113.82 934.18,-161.82"/>
<text text-anchor="middle" x="683.18" y="-143.42" font-family="Times,serif" font-size="18.00">sequence:</text>
<text text-anchor="middle" x="683.18" y="-123.42" font-family="Times,serif" font-size="18.00"> change_tool(left_hand, defaultgripper, clampgripper)</text>
</g>
<!-- selector:
 change_tool(left_hand, defaultgripper, clampgripper)&#45;&gt;sequence:
 change_tool(left_hand, defaultgripper, clampgripper) -->
<g id="edge5" class="edge">
<title>selector:
 change_tool(left_hand, defaultgripper, clampgripper)&#45;&gt;sequence:
 change_tool(left_hand, defaultgripper, clampgripper)</title>
<path fill="none" stroke="black" d="M683.18,-207.48C683.18,-196.09 683.18,-183.57 683.18,-172.36"/>
<polygon fill="black" stroke="black" points="686.68,-172.11 683.18,-162.11 679.68,-172.11 686.68,-172.11"/>
</g>
<!-- precondition:
 hold(left_hand, defaultgripper) -->
<g id="node7" class="node">
<title>precondition:
 hold(left_hand, defaultgripper)</title>
<ellipse fill="#ffec8b" stroke="black" cx="228.18" cy="-33.94" rx="213.59" ry="33.88"/>
<text text-anchor="middle" x="228.18" y="-39.54" font-family="Times,serif" font-size="18.00">precondition:</text>
<text text-anchor="middle" x="228.18" y="-19.54" font-family="Times,serif" font-size="18.00"> hold(left_hand, defaultgripper)</text>
</g>
<!-- sequence:
 change_tool(left_hand, defaultgripper, clampgripper)&#45;&gt;precondition:
 hold(left_hand, defaultgripper) -->
<g id="edge6" class="edge">
<title>sequence:
 change_tool(left_hand, defaultgripper, clampgripper)&#45;&gt;precondition:
 hold(left_hand, defaultgripper)</title>
<path fill="none" stroke="black" d="M580.22,-113.77C514.62,-99.08 429.06,-79.92 358.71,-64.17"/>
<polygon fill="black" stroke="black" points="359.41,-60.74 348.89,-61.97 357.88,-67.57 359.41,-60.74"/>
</g>
<!-- precondition:
 is_empty(defaultgripper) -->
<g id="node8" class="node">
<title>precondition:
 is_empty(defaultgripper)</title>
<ellipse fill="#ffec8b" stroke="black" cx="635.18" cy="-33.94" rx="175.23" ry="33.88"/>
<text text-anchor="middle" x="635.18" y="-39.54" font-family="Times,serif" font-size="18.00">precondition:</text>
<text text-anchor="middle" x="635.18" y="-19.54" font-family="Times,serif" font-size="18.00"> is_empty(defaultgripper)</text>
</g>
<!-- sequence:
 change_tool(left_hand, defaultgripper, clampgripper)&#45;&gt;precondition:
 is_empty(defaultgripper) -->
<g id="edge7" class="edge">
<title>sequence:
 change_tool(left_hand, defaultgripper, clampgripper)&#45;&gt;precondition:
 is_empty(defaultgripper)</title>
<path fill="none" stroke="black" d="M672.29,-113.7C667.22,-102.94 661.03,-89.79 655.16,-77.35"/>
<polygon fill="black" stroke="black" points="658.19,-75.57 650.76,-68.01 651.86,-78.55 658.19,-75.57"/>
</g>
<!-- action:
 change_tool(left_hand, defaultgripper, clampgripper) -->
<g id="node9" class="node">
<title>action:
 change_tool(left_hand, defaultgripper, clampgripper)</title>
<ellipse fill="lightgreen" stroke="black" cx="1183.18" cy="-33.94" rx="354.94" ry="33.88"/>
<text text-anchor="middle" x="1183.18" y="-39.54" font-family="Times,serif" font-size="18.00">action:</text>
<text text-anchor="middle" x="1183.18" y="-19.54" font-family="Times,serif" font-size="18.00"> change_tool(left_hand, defaultgripper, clampgripper)</text>
</g>
<!-- sequence:
 change_tool(left_hand, defaultgripper, clampgripper)&#45;&gt;action:
 change_tool(left_hand, defaultgripper, clampgripper) -->
<g id="edge8" class="edge">
<title>sequence:
 change_tool(left_hand, defaultgripper, clampgripper)&#45;&gt;action:
 change_tool(left_hand, defaultgripper, clampgripper)</title>
<path fill="none" stroke="black" d="M796.33,-113.77C864.29,-99.92 951.75,-82.1 1026.31,-66.91"/>
<polygon fill="black" stroke="black" points="1027.18,-70.3 1036.28,-64.88 1025.78,-63.44 1027.18,-70.3"/>
</g>
<!-- target:
 hold(clampgripper, shaft1) -->
<g id="node11" class="node">
<title>target:
 hold(clampgripper, shaft1)</title>
<ellipse fill="#ffec8b" stroke="black" cx="1479.18" cy="-137.82" rx="185.94" ry="33.88"/>
<text text-anchor="middle" x="1479.18" y="-143.42" font-family="Times,serif" font-size="18.00">target:</text>
<text text-anchor="middle" x="1479.18" y="-123.42" font-family="Times,serif" font-size="18.00"> hold(clampgripper, shaft1)</text>
</g>
<!-- selector:
 pick_up(left_hand, clampgripper, shaft1)&#45;&gt;target:
 hold(clampgripper, shaft1) -->
<g id="edge10" class="edge">
<title>selector:
 pick_up(left_hand, clampgripper, shaft1)&#45;&gt;target:
 hold(clampgripper, shaft1)</title>
<path fill="none" stroke="black" d="M1479.18,-207.48C1479.18,-199.32 1479.18,-190.58 1479.18,-182.15"/>
<polygon fill="black" stroke="black" points="1482.68,-182.1 1479.18,-172.1 1475.68,-182.1 1482.68,-182.1"/>
</g>
<!-- sequence:
 pick_up(left_hand, clampgripper, shaft1) -->
<g id="node12" class="node">
<title>sequence:
 pick_up(left_hand, clampgripper, shaft1)</title>
<polygon fill="#ff7f24" stroke="black" points="2264.68,-161.82 1875.68,-161.82 1875.68,-113.82 2264.68,-113.82 2264.68,-161.82"/>
<text text-anchor="middle" x="2070.18" y="-143.42" font-family="Times,serif" font-size="18.00">sequence:</text>
<text text-anchor="middle" x="2070.18" y="-123.42" font-family="Times,serif" font-size="18.00"> pick_up(left_hand, clampgripper, shaft1)</text>
</g>
<!-- selector:
 pick_up(left_hand, clampgripper, shaft1)&#45;&gt;sequence:
 pick_up(left_hand, clampgripper, shaft1) -->
<g id="edge11" class="edge">
<title>selector:
 pick_up(left_hand, clampgripper, shaft1)&#45;&gt;sequence:
 pick_up(left_hand, clampgripper, shaft1)</title>
<path fill="none" stroke="black" d="M1649.73,-213.29C1738.77,-197.52 1846.37,-178.47 1930.43,-163.58"/>
<polygon fill="black" stroke="black" points="1931.06,-167.02 1940.3,-161.83 1929.84,-160.13 1931.06,-167.02"/>
</g>
<!-- precondition:
 is_empty(clampgripper) -->
<g id="node13" class="node">
<title>precondition:
 is_empty(clampgripper)</title>
<ellipse fill="#ffec8b" stroke="black" cx="1725.18" cy="-33.94" rx="169" ry="33.88"/>
<text text-anchor="middle" x="1725.18" y="-39.54" font-family="Times,serif" font-size="18.00">precondition:</text>
<text text-anchor="middle" x="1725.18" y="-19.54" font-family="Times,serif" font-size="18.00"> is_empty(clampgripper)</text>
</g>
<!-- sequence:
 pick_up(left_hand, clampgripper, shaft1)&#45;&gt;precondition:
 is_empty(clampgripper) -->
<g id="edge12" class="edge">
<title>sequence:
 pick_up(left_hand, clampgripper, shaft1)&#45;&gt;precondition:
 is_empty(clampgripper)</title>
<path fill="none" stroke="black" d="M1991.9,-113.7C1943.33,-99.36 1880.39,-80.77 1827.85,-65.26"/>
<polygon fill="black" stroke="black" points="1828.74,-61.87 1818.16,-62.4 1826.76,-68.59 1828.74,-61.87"/>
</g>
<!-- precondition:
 hold(left_hand, clampgripper) -->
<g id="node14" class="node">
<title>precondition:
 hold(left_hand, clampgripper)</title>
<ellipse fill="#ffec8b" stroke="black" cx="2119.18" cy="-33.94" rx="207.36" ry="33.88"/>
<text text-anchor="middle" x="2119.18" y="-39.54" font-family="Times,serif" font-size="18.00">precondition:</text>
<text text-anchor="middle" x="2119.18" y="-19.54" font-family="Times,serif" font-size="18.00"> hold(left_hand, clampgripper)</text>
</g>
<!-- sequence:
 pick_up(left_hand, clampgripper, shaft1)&#45;&gt;precondition:
 hold(left_hand, clampgripper) -->
<g id="edge13" class="edge">
<title>sequence:
 pick_up(left_hand, clampgripper, shaft1)&#45;&gt;precondition:
 hold(left_hand, clampgripper)</title>
<path fill="none" stroke="black" d="M2081.3,-113.7C2086.48,-102.94 2092.8,-89.79 2098.79,-77.35"/>
<polygon fill="black" stroke="black" points="2102.1,-78.54 2103.28,-68.01 2095.79,-75.51 2102.1,-78.54"/>
</g>
<!-- action:
 pick_up(left_hand, clampgripper, shaft1) -->
<g id="node15" class="node">
<title>action:
 pick_up(left_hand, clampgripper, shaft1)</title>
<ellipse fill="lightgreen" stroke="black" cx="2619.18" cy="-33.94" rx="275.13" ry="33.88"/>
<text text-anchor="middle" x="2619.18" y="-39.54" font-family="Times,serif" font-size="18.00">action:</text>
<text text-anchor="middle" x="2619.18" y="-19.54" font-family="Times,serif" font-size="18.00"> pick_up(left_hand, clampgripper, shaft1)</text>
</g>
<!-- sequence:
 pick_up(left_hand, clampgripper, shaft1)&#45;&gt;action:
 pick_up(left_hand, clampgripper, shaft1) -->
<g id="edge14" class="edge">
<title>sequence:
 pick_up(left_hand, clampgripper, shaft1)&#45;&gt;action:
 pick_up(left_hand, clampgripper, shaft1)</title>
<path fill="none" stroke="black" d="M2194.42,-113.77C2273.22,-99.14 2375.91,-80.09 2460.57,-64.38"/>
<polygon fill="black" stroke="black" points="2461.35,-67.79 2470.54,-62.53 2460.07,-60.91 2461.35,-67.79"/>
</g>
</g>
</svg>
