<?xml version="1.0" encoding="UTF-8" standalone="no"?>
<!DOCTYPE svg PUBLIC "-//W3C//DTD SVG 1.1//EN"
 "http://www.w3.org/Graphics/SVG/1.1/DTD/svg11.dtd">
<!-- Generated by graphviz version 2.43.0 (0)
 -->
<!-- Title: pastafarianism Pages: 1 -->
<svg width="1795pt" height="289pt"
 viewBox="0.00 0.00 1794.76 289.24" xmlns="http://www.w3.org/2000/svg" xmlns:xlink="http://www.w3.org/1999/xlink">
<g id="graph0" class="graph" transform="scale(1 1) rotate(0) translate(4 285.24)">
<title>pastafarianism</title>
<polygon fill="white" stroke="transparent" points="-4,4 -4,-285.24 1790.76,-285.24 1790.76,4 -4,4"/>
<!-- selector:
 insert(left_hand, parallelgripper, shaft1, gearbase_hole1) -->
<g id="node1" class="node">
<title>selector:
 insert(left_hand, parallelgripper, shaft1, gearbase_hole1)</title>
<polygon fill="#8deeee" stroke="black" points="948.19,-229.19 948.19,-259.82 706.52,-281.48 364.74,-281.48 123.06,-259.82 123.06,-229.19 364.74,-207.53 706.52,-207.53 948.19,-229.19"/>
<text text-anchor="middle" x="535.63" y="-250.1" font-family="Times,serif" font-size="18.00">selector:</text>
<text text-anchor="middle" x="535.63" y="-230.1" font-family="Times,serif" font-size="18.00"> insert(left_hand, parallelgripper, shaft1, gearbase_hole1)</text>
</g>
<!-- target:
 is_inserted_to(shaft1, gearbase_hole1) -->
<g id="node2" class="node">
<title>target:
 is_inserted_to(shaft1, gearbase_hole1)</title>
<ellipse fill="#ffec8b" stroke="black" cx="261.63" cy="-137.82" rx="261.76" ry="33.88"/>
<text text-anchor="middle" x="261.63" y="-143.42" font-family="Times,serif" font-size="18.00">target:</text>
<text text-anchor="middle" x="261.63" y="-123.42" font-family="Times,serif" font-size="18.00"> is_inserted_to(shaft1, gearbase_hole1)</text>
</g>
<!-- selector:
 insert(left_hand, parallelgripper, shaft1, gearbase_hole1)&#45;&gt;target:
 is_inserted_to(shaft1, gearbase_hole1) -->
<g id="edge1" class="edge">
<title>selector:
 insert(left_hand, parallelgripper, shaft1, gearbase_hole1)&#45;&gt;target:
 is_inserted_to(shaft1, gearbase_hole1)</title>
<path fill="none" stroke="black" d="M441.72,-207.62C413.05,-196.67 381.57,-184.65 353.07,-173.76"/>
<polygon fill="black" stroke="black" points="354.11,-170.41 343.52,-170.11 351.61,-176.95 354.11,-170.41"/>
</g>
<!-- sequence:
 insert(left_hand, parallelgripper, shaft1, gearbase_hole1) -->
<g id="node3" class="node">
<title>sequence:
 insert(left_hand, parallelgripper, shaft1, gearbase_hole1)</title>
<polygon fill="#ff7f24" stroke="black" points="1080.13,-161.82 541.13,-161.82 541.13,-113.82 1080.13,-113.82 1080.13,-161.82"/>
<text text-anchor="middle" x="810.63" y="-143.42" font-family="Times,serif" font-size="18.00">sequence:</text>
<text text-anchor="middle" x="810.63" y="-123.42" font-family="Times,serif" font-size="18.00"> insert(left_hand, parallelgripper, shaft1, gearbase_hole1)</text>
</g>
<!-- selector:
 insert(left_hand, parallelgripper, shaft1, gearbase_hole1)&#45;&gt;sequence:
 insert(left_hand, parallelgripper, shaft1, gearbase_hole1) -->
<g id="edge2" class="edge">
<title>selector:
 insert(left_hand, parallelgripper, shaft1, gearbase_hole1)&#45;&gt;sequence:
 insert(left_hand, parallelgripper, shaft1, gearbase_hole1)</title>
<path fill="none" stroke="black" d="M629.88,-207.62C666.11,-193.83 706.8,-178.35 740.38,-165.56"/>
<polygon fill="black" stroke="black" points="742.01,-168.69 750.11,-161.86 739.52,-162.15 742.01,-168.69"/>
</g>
<!-- precondition:
 hold(left_hand, parallelgripper) -->
<g id="node4" class="node">
<title>precondition:
 hold(left_hand, parallelgripper)</title>
<ellipse fill="#ffec8b" stroke="black" cx="379.63" cy="-33.94" rx="217.16" ry="33.88"/>
<text text-anchor="middle" x="379.63" y="-39.54" font-family="Times,serif" font-size="18.00">precondition:</text>
<text text-anchor="middle" x="379.63" y="-19.54" font-family="Times,serif" font-size="18.00"> hold(left_hand, parallelgripper)</text>
</g>
<!-- sequence:
 insert(left_hand, parallelgripper, shaft1, gearbase_hole1)&#45;&gt;precondition:
 hold(left_hand, parallelgripper) -->
<g id="edge3" class="edge">
<title>sequence:
 insert(left_hand, parallelgripper, shaft1, gearbase_hole1)&#45;&gt;precondition:
 hold(left_hand, parallelgripper)</title>
<path fill="none" stroke="black" d="M713.1,-113.77C652.04,-99.34 572.72,-80.59 506.76,-64.99"/>
<polygon fill="black" stroke="black" points="507.25,-61.51 496.71,-62.62 505.64,-68.32 507.25,-61.51"/>
</g>
<!-- precondition:
 hold(parallelgripper, shaft1) -->
<g id="node5" class="node">
<title>precondition:
 hold(parallelgripper, shaft1)</title>
<ellipse fill="#ffec8b" stroke="black" cx="810.63" cy="-33.94" rx="195.74" ry="33.88"/>
<text text-anchor="middle" x="810.63" y="-39.54" font-family="Times,serif" font-size="18.00">precondition:</text>
<text text-anchor="middle" x="810.63" y="-19.54" font-family="Times,serif" font-size="18.00"> hold(parallelgripper, shaft1)</text>
</g>
<!-- sequence:
 insert(left_hand, parallelgripper, shaft1, gearbase_hole1)&#45;&gt;precondition:
 hold(parallelgripper, shaft1) -->
<g id="edge4" class="edge">
<title>sequence:
 insert(left_hand, parallelgripper, shaft1, gearbase_hole1)&#45;&gt;precondition:
 hold(parallelgripper, shaft1)</title>
<path fill="none" stroke="black" d="M810.63,-113.7C810.63,-103.16 810.63,-90.31 810.63,-78.08"/>
<polygon fill="black" stroke="black" points="814.13,-78.01 810.63,-68.01 807.13,-78.01 814.13,-78.01"/>
</g>
<!-- action:
 insert(left_hand, parallelgripper, shaft1, gearbase_hole1) -->
<g id="node6" class="node">
<title>action:
 insert(left_hand, parallelgripper, shaft1, gearbase_hole1)</title>
<ellipse fill="lightgreen" stroke="black" cx="1405.63" cy="-33.94" rx="381.26" ry="33.88"/>
<text text-anchor="middle" x="1405.63" y="-39.54" font-family="Times,serif" font-size="18.00">action:</text>
<text text-anchor="middle" x="1405.63" y="-19.54" font-family="Times,serif" font-size="18.00"> insert(left_hand, parallelgripper, shaft1, gearbase_hole1)</text>
</g>
<!-- sequence:
 insert(left_hand, parallelgripper, shaft1, gearbase_hole1)&#45;&gt;action:
 insert(left_hand, parallelgripper, shaft1, gearbase_hole1) -->
<g id="edge5" class="edge">
<title>sequence:
 insert(left_hand, parallelgripper, shaft1, gearbase_hole1)&#45;&gt;action:
 insert(left_hand, parallelgripper, shaft1, gearbase_hole1)</title>
<path fill="none" stroke="black" d="M945.27,-113.77C1027.71,-99.65 1134.27,-81.41 1224.1,-66.02"/>
<polygon fill="black" stroke="black" points="1224.87,-69.44 1234.13,-64.31 1223.69,-62.54 1224.87,-69.44"/>
</g>
</g>
</svg>
