<?xml version="1.0" encoding="UTF-8" standalone="no"?>
<!DOCTYPE svg PUBLIC "-//W3C//DTD SVG 1.1//EN"
 "http://www.w3.org/Graphics/SVG/1.1/DTD/svg11.dtd">
<!-- Generated by graphviz version 2.43.0 (0)
 -->
<!-- Title: pastafarianism Pages: 1 -->
<svg width="3090pt" height="503pt"
 viewBox="0.00 0.00 3089.70 502.60" xmlns="http://www.w3.org/2000/svg" xmlns:xlink="http://www.w3.org/1999/xlink">
<g id="graph0" class="graph" transform="scale(1 1) rotate(0) translate(4 498.6)">
<title>pastafarianism</title>
<polygon fill="white" stroke="transparent" points="-4,4 -4,-498.6 3085.7,-498.6 3085.7,4 -4,4"/>
<!-- selector:
 insert(left_hand, outwardgripper, gear2, shaft2) -->
<g id="node1" class="node">
<title>selector:
 insert(left_hand, outwardgripper, gear2, shaft2)</title>
<polygon fill="#8deeee" stroke="black" points="1587.34,-442.54 1587.34,-473.18 1382.89,-494.84 1093.76,-494.84 889.31,-473.18 889.31,-442.54 1093.76,-420.88 1382.89,-420.88 1587.34,-442.54"/>
<text text-anchor="middle" x="1238.32" y="-463.46" font-family="Times,serif" font-size="18.00">selector:</text>
<text text-anchor="middle" x="1238.32" y="-443.46" font-family="Times,serif" font-size="18.00"> insert(left_hand, outwardgripper, gear2, shaft2)</text>
</g>
<!-- target:
 is_inserted_to(gear2, shaft2) -->
<g id="node2" class="node">
<title>target:
 is_inserted_to(gear2, shaft2)</title>
<ellipse fill="#ffec8b" stroke="black" cx="1016.32" cy="-351.18" rx="198.89" ry="33.88"/>
<text text-anchor="middle" x="1016.32" y="-356.78" font-family="Times,serif" font-size="18.00">target:</text>
<text text-anchor="middle" x="1016.32" y="-336.78" font-family="Times,serif" font-size="18.00"> is_inserted_to(gear2, shaft2)</text>
</g>
<!-- selector:
 insert(left_hand, outwardgripper, gear2, shaft2)&#45;&gt;target:
 is_inserted_to(gear2, shaft2) -->
<g id="edge1" class="edge">
<title>selector:
 insert(left_hand, outwardgripper, gear2, shaft2)&#45;&gt;target:
 is_inserted_to(gear2, shaft2)</title>
<path fill="none" stroke="black" d="M1162.24,-420.98C1139.4,-410.21 1114.37,-398.41 1091.59,-387.67"/>
<polygon fill="black" stroke="black" points="1092.85,-384.39 1082.31,-383.29 1089.86,-390.73 1092.85,-384.39"/>
</g>
<!-- sequence:
 insert(left_hand, outwardgripper, gear2, shaft2) -->
<g id="node3" class="node">
<title>sequence:
 insert(left_hand, outwardgripper, gear2, shaft2)</title>
<polygon fill="#ff7f24" stroke="black" points="1689.32,-375.18 1233.32,-375.18 1233.32,-327.18 1689.32,-327.18 1689.32,-375.18"/>
<text text-anchor="middle" x="1461.32" y="-356.78" font-family="Times,serif" font-size="18.00">sequence:</text>
<text text-anchor="middle" x="1461.32" y="-336.78" font-family="Times,serif" font-size="18.00"> insert(left_hand, outwardgripper, gear2, shaft2)</text>
</g>
<!-- selector:
 insert(left_hand, outwardgripper, gear2, shaft2)&#45;&gt;sequence:
 insert(left_hand, outwardgripper, gear2, shaft2) -->
<g id="edge2" class="edge">
<title>selector:
 insert(left_hand, outwardgripper, gear2, shaft2)&#45;&gt;sequence:
 insert(left_hand, outwardgripper, gear2, shaft2)</title>
<path fill="none" stroke="black" d="M1314.76,-420.98C1343.63,-407.43 1375.99,-392.24 1402.95,-379.58"/>
<polygon fill="black" stroke="black" points="1404.68,-382.64 1412.25,-375.22 1401.71,-376.3 1404.68,-382.64"/>
</g>
<!-- selector:
 change_tool(left_hand, defaultgripper, outwardgripper) -->
<g id="node4" class="node">
<title>selector:
 change_tool(left_hand, defaultgripper, outwardgripper)</title>
<polygon fill="#8deeee" stroke="black" points="1120.87,-229.19 1120.87,-259.82 886.82,-281.48 555.83,-281.48 321.78,-259.82 321.78,-229.19 555.83,-207.53 886.82,-207.53 1120.87,-229.19"/>
<text text-anchor="middle" x="721.32" y="-250.1" font-family="Times,serif" font-size="18.00">selector:</text>
<text text-anchor="middle" x="721.32" y="-230.1" font-family="Times,serif" font-size="18.00"> change_tool(left_hand, defaultgripper, outwardgripper)</text>
</g>
<!-- sequence:
 insert(left_hand, outwardgripper, gear2, shaft2)&#45;&gt;selector:
 change_tool(left_hand, defaultgripper, outwardgripper) -->
<g id="edge3" class="edge">
<title>sequence:
 insert(left_hand, outwardgripper, gear2, shaft2)&#45;&gt;selector:
 change_tool(left_hand, defaultgripper, outwardgripper)</title>
<path fill="none" stroke="black" d="M1298.47,-327.14C1196.44,-312.71 1063.41,-293.89 950.78,-277.96"/>
<polygon fill="black" stroke="black" points="951.03,-274.46 940.64,-276.53 950.05,-281.39 951.03,-274.46"/>
</g>
<!-- selector:
 pick_up(left_hand, outwardgripper, gear2) -->
<g id="node10" class="node">
<title>selector:
 pick_up(left_hand, outwardgripper, gear2)</title>
<polygon fill="#8deeee" stroke="black" points="1771.27,-229.19 1771.27,-259.82 1589.71,-281.48 1332.94,-281.48 1151.38,-259.82 1151.38,-229.19 1332.94,-207.53 1589.71,-207.53 1771.27,-229.19"/>
<text text-anchor="middle" x="1461.32" y="-250.1" font-family="Times,serif" font-size="18.00">selector:</text>
<text text-anchor="middle" x="1461.32" y="-230.1" font-family="Times,serif" font-size="18.00"> pick_up(left_hand, outwardgripper, gear2)</text>
</g>
<!-- sequence:
 insert(left_hand, outwardgripper, gear2, shaft2)&#45;&gt;selector:
 pick_up(left_hand, outwardgripper, gear2) -->
<g id="edge9" class="edge">
<title>sequence:
 insert(left_hand, outwardgripper, gear2, shaft2)&#45;&gt;selector:
 pick_up(left_hand, outwardgripper, gear2)</title>
<path fill="none" stroke="black" d="M1461.32,-326.95C1461.32,-316.5 1461.32,-303.79 1461.32,-291.54"/>
<polygon fill="black" stroke="black" points="1464.82,-291.42 1461.32,-281.42 1457.82,-291.42 1464.82,-291.42"/>
</g>
<!-- action:
 insert(left_hand, outwardgripper, gear2, shaft2) -->
<g id="node16" class="node">
<title>action:
 insert(left_hand, outwardgripper, gear2, shaft2)</title>
<ellipse fill="lightgreen" stroke="black" cx="2111.32" cy="-244.5" rx="322.38" ry="33.88"/>
<text text-anchor="middle" x="2111.32" y="-250.1" font-family="Times,serif" font-size="18.00">action:</text>
<text text-anchor="middle" x="2111.32" y="-230.1" font-family="Times,serif" font-size="18.00"> insert(left_hand, outwardgripper, gear2, shaft2)</text>
</g>
<!-- sequence:
 insert(left_hand, outwardgripper, gear2, shaft2)&#45;&gt;action:
 insert(left_hand, outwardgripper, gear2, shaft2) -->
<g id="edge15" class="edge">
<title>sequence:
 insert(left_hand, outwardgripper, gear2, shaft2)&#45;&gt;action:
 insert(left_hand, outwardgripper, gear2, shaft2)</title>
<path fill="none" stroke="black" d="M1604.37,-327.14C1699.87,-311.76 1826.3,-291.4 1929,-274.86"/>
<polygon fill="black" stroke="black" points="1929.87,-278.27 1939.18,-273.22 1928.75,-271.36 1929.87,-278.27"/>
</g>
<!-- target:
 hold(left_hand, outwardgripper) -->
<g id="node5" class="node">
<title>target:
 hold(left_hand, outwardgripper)</title>
<ellipse fill="#ffec8b" stroke="black" cx="221.32" cy="-137.82" rx="221.15" ry="33.88"/>
<text text-anchor="middle" x="221.32" y="-143.42" font-family="Times,serif" font-size="18.00">target:</text>
<text text-anchor="middle" x="221.32" y="-123.42" font-family="Times,serif" font-size="18.00"> hold(left_hand, outwardgripper)</text>
</g>
<!-- selector:
 change_tool(left_hand, defaultgripper, outwardgripper)&#45;&gt;target:
 hold(left_hand, outwardgripper) -->
<g id="edge4" class="edge">
<title>selector:
 change_tool(left_hand, defaultgripper, outwardgripper)&#45;&gt;target:
 hold(left_hand, outwardgripper)</title>
<path fill="none" stroke="black" d="M551.35,-207.92C488.73,-194.81 418.62,-180.13 359.18,-167.69"/>
<polygon fill="black" stroke="black" points="359.86,-164.25 349.36,-165.63 358.43,-171.1 359.86,-164.25"/>
</g>
<!-- sequence:
 change_tool(left_hand, defaultgripper, outwardgripper) -->
<g id="node6" class="node">
<title>sequence:
 change_tool(left_hand, defaultgripper, outwardgripper)</title>
<polygon fill="#ff7f24" stroke="black" points="982.32,-161.82 460.32,-161.82 460.32,-113.82 982.32,-113.82 982.32,-161.82"/>
<text text-anchor="middle" x="721.32" y="-143.42" font-family="Times,serif" font-size="18.00">sequence:</text>
<text text-anchor="middle" x="721.32" y="-123.42" font-family="Times,serif" font-size="18.00"> change_tool(left_hand, defaultgripper, outwardgripper)</text>
</g>
<!-- selector:
 change_tool(left_hand, defaultgripper, outwardgripper)&#45;&gt;sequence:
 change_tool(left_hand, defaultgripper, outwardgripper) -->
<g id="edge5" class="edge">
<title>selector:
 change_tool(left_hand, defaultgripper, outwardgripper)&#45;&gt;sequence:
 change_tool(left_hand, defaultgripper, outwardgripper)</title>
<path fill="none" stroke="black" d="M721.32,-207.48C721.32,-196.09 721.32,-183.57 721.32,-172.36"/>
<polygon fill="black" stroke="black" points="724.82,-172.11 721.32,-162.11 717.82,-172.11 724.82,-172.11"/>
</g>
<!-- precondition:
 hold(left_hand, defaultgripper) -->
<g id="node7" class="node">
<title>precondition:
 hold(left_hand, defaultgripper)</title>
<ellipse fill="#ffec8b" stroke="black" cx="308.32" cy="-33.94" rx="213.59" ry="33.88"/>
<text text-anchor="middle" x="308.32" y="-39.54" font-family="Times,serif" font-size="18.00">precondition:</text>
<text text-anchor="middle" x="308.32" y="-19.54" font-family="Times,serif" font-size="18.00"> hold(left_hand, defaultgripper)</text>
</g>
<!-- sequence:
 change_tool(left_hand, defaultgripper, outwardgripper)&#45;&gt;precondition:
 hold(left_hand, defaultgripper) -->
<g id="edge6" class="edge">
<title>sequence:
 change_tool(left_hand, defaultgripper, outwardgripper)&#45;&gt;precondition:
 hold(left_hand, defaultgripper)</title>
<path fill="none" stroke="black" d="M627.87,-113.77C569.71,-99.42 494.25,-80.81 431.27,-65.27"/>
<polygon fill="black" stroke="black" points="431.82,-61.8 421.27,-62.8 430.14,-68.6 431.82,-61.8"/>
</g>
<!-- precondition:
 is_empty(defaultgripper) -->
<g id="node8" class="node">
<title>precondition:
 is_empty(defaultgripper)</title>
<ellipse fill="#ffec8b" stroke="black" cx="715.32" cy="-33.94" rx="175.23" ry="33.88"/>
<text text-anchor="middle" x="715.32" y="-39.54" font-family="Times,serif" font-size="18.00">precondition:</text>
<text text-anchor="middle" x="715.32" y="-19.54" font-family="Times,serif" font-size="18.00"> is_empty(defaultgripper)</text>
</g>
<!-- sequence:
 change_tool(left_hand, defaultgripper, outwardgripper)&#45;&gt;precondition:
 is_empty(defaultgripper) -->
<g id="edge7" class="edge">
<title>sequence:
 change_tool(left_hand, defaultgripper, outwardgripper)&#45;&gt;precondition:
 is_empty(defaultgripper)</title>
<path fill="none" stroke="black" d="M719.96,-113.7C719.34,-103.16 718.59,-90.31 717.86,-78.08"/>
<polygon fill="black" stroke="black" points="721.35,-77.79 717.27,-68.01 714.37,-78.2 721.35,-77.79"/>
</g>
<!-- action:
 change_tool(left_hand, defaultgripper, outwardgripper) -->
<g id="node9" class="node">
<title>action:
 change_tool(left_hand, defaultgripper, outwardgripper)</title>
<ellipse fill="lightgreen" stroke="black" cx="1277.32" cy="-33.94" rx="369.22" ry="33.88"/>
<text text-anchor="middle" x="1277.32" y="-39.54" font-family="Times,serif" font-size="18.00">action:</text>
<text text-anchor="middle" x="1277.32" y="-19.54" font-family="Times,serif" font-size="18.00"> change_tool(left_hand, defaultgripper, outwardgripper)</text>
</g>
<!-- sequence:
 change_tool(left_hand, defaultgripper, outwardgripper)&#45;&gt;action:
 change_tool(left_hand, defaultgripper, outwardgripper) -->
<g id="edge8" class="edge">
<title>sequence:
 change_tool(left_hand, defaultgripper, outwardgripper)&#45;&gt;action:
 change_tool(left_hand, defaultgripper, outwardgripper)</title>
<path fill="none" stroke="black" d="M847.14,-113.77C923.72,-99.74 1022.55,-81.63 1106.18,-66.3"/>
<polygon fill="black" stroke="black" points="1106.83,-69.74 1116.04,-64.5 1105.57,-62.86 1106.83,-69.74"/>
</g>
<!-- target:
 hold(outwardgripper, gear2) -->
<g id="node11" class="node">
<title>target:
 hold(outwardgripper, gear2)</title>
<ellipse fill="#ffec8b" stroke="black" cx="1461.32" cy="-137.82" rx="196.65" ry="33.88"/>
<text text-anchor="middle" x="1461.32" y="-143.42" font-family="Times,serif" font-size="18.00">target:</text>
<text text-anchor="middle" x="1461.32" y="-123.42" font-family="Times,serif" font-size="18.00"> hold(outwardgripper, gear2)</text>
</g>
<!-- selector:
 pick_up(left_hand, outwardgripper, gear2)&#45;&gt;target:
 hold(outwardgripper, gear2) -->
<g id="edge10" class="edge">
<title>selector:
 pick_up(left_hand, outwardgripper, gear2)&#45;&gt;target:
 hold(outwardgripper, gear2)</title>
<path fill="none" stroke="black" d="M1461.32,-207.48C1461.32,-199.32 1461.32,-190.58 1461.32,-182.15"/>
<polygon fill="black" stroke="black" points="1464.82,-182.1 1461.32,-172.1 1457.82,-182.1 1464.82,-182.1"/>
</g>
<!-- sequence:
 pick_up(left_hand, outwardgripper, gear2) -->
<g id="node12" class="node">
<title>sequence:
 pick_up(left_hand, outwardgripper, gear2)</title>
<polygon fill="#ff7f24" stroke="black" points="2298.82,-161.82 1893.82,-161.82 1893.82,-113.82 2298.82,-113.82 2298.82,-161.82"/>
<text text-anchor="middle" x="2096.32" y="-143.42" font-family="Times,serif" font-size="18.00">sequence:</text>
<text text-anchor="middle" x="2096.32" y="-123.42" font-family="Times,serif" font-size="18.00"> pick_up(left_hand, outwardgripper, gear2)</text>
</g>
<!-- selector:
 pick_up(left_hand, outwardgripper, gear2)&#45;&gt;sequence:
 pick_up(left_hand, outwardgripper, gear2) -->
<g id="edge11" class="edge">
<title>selector:
 pick_up(left_hand, outwardgripper, gear2)&#45;&gt;sequence:
 pick_up(left_hand, outwardgripper, gear2)</title>
<path fill="none" stroke="black" d="M1642.02,-213.72C1738.31,-197.84 1855.37,-178.54 1946.54,-163.52"/>
<polygon fill="black" stroke="black" points="1947.38,-166.92 1956.68,-161.84 1946.25,-160.02 1947.38,-166.92"/>
</g>
<!-- precondition:
 hold(left_hand, outwardgripper) -->
<g id="node13" class="node">
<title>precondition:
 hold(left_hand, outwardgripper)</title>
<ellipse fill="#ffec8b" stroke="black" cx="1885.32" cy="-33.94" rx="221.15" ry="33.88"/>
<text text-anchor="middle" x="1885.32" y="-39.54" font-family="Times,serif" font-size="18.00">precondition:</text>
<text text-anchor="middle" x="1885.32" y="-19.54" font-family="Times,serif" font-size="18.00"> hold(left_hand, outwardgripper)</text>
</g>
<!-- sequence:
 pick_up(left_hand, outwardgripper, gear2)&#45;&gt;precondition:
 hold(left_hand, outwardgripper) -->
<g id="edge12" class="edge">
<title>sequence:
 pick_up(left_hand, outwardgripper, gear2)&#45;&gt;precondition:
 hold(left_hand, outwardgripper)</title>
<path fill="none" stroke="black" d="M2048.45,-113.7C2022.22,-101.04 1989.14,-85.07 1959.64,-70.82"/>
<polygon fill="black" stroke="black" points="1961.14,-67.66 1950.61,-66.46 1958.09,-73.96 1961.14,-67.66"/>
</g>
<!-- precondition:
 is_empty(outwardgripper) -->
<g id="node14" class="node">
<title>precondition:
 is_empty(outwardgripper)</title>
<ellipse fill="#ffec8b" stroke="black" cx="2307.32" cy="-33.94" rx="183.28" ry="33.88"/>
<text text-anchor="middle" x="2307.32" y="-39.54" font-family="Times,serif" font-size="18.00">precondition:</text>
<text text-anchor="middle" x="2307.32" y="-19.54" font-family="Times,serif" font-size="18.00"> is_empty(outwardgripper)</text>
</g>
<!-- sequence:
 pick_up(left_hand, outwardgripper, gear2)&#45;&gt;precondition:
 is_empty(outwardgripper) -->
<g id="edge13" class="edge">
<title>sequence:
 pick_up(left_hand, outwardgripper, gear2)&#45;&gt;precondition:
 is_empty(outwardgripper)</title>
<path fill="none" stroke="black" d="M2144.2,-113.7C2170.76,-100.88 2204.34,-84.67 2234.12,-70.29"/>
<polygon fill="black" stroke="black" points="2235.75,-73.39 2243.23,-65.89 2232.7,-67.08 2235.75,-73.39"/>
</g>
<!-- action:
 pick_up(left_hand, outwardgripper, gear2) -->
<g id="node15" class="node">
<title>action:
 pick_up(left_hand, outwardgripper, gear2)</title>
<ellipse fill="lightgreen" stroke="black" cx="2795.32" cy="-33.94" rx="286.26" ry="33.88"/>
<text text-anchor="middle" x="2795.32" y="-39.54" font-family="Times,serif" font-size="18.00">action:</text>
<text text-anchor="middle" x="2795.32" y="-19.54" font-family="Times,serif" font-size="18.00"> pick_up(left_hand, outwardgripper, gear2)</text>
</g>
<!-- sequence:
 pick_up(left_hand, outwardgripper, gear2)&#45;&gt;action:
 pick_up(left_hand, outwardgripper, gear2) -->
<g id="edge14" class="edge">
<title>sequence:
 pick_up(left_hand, outwardgripper, gear2)&#45;&gt;action:
 pick_up(left_hand, outwardgripper, gear2)</title>
<path fill="none" stroke="black" d="M2254.5,-113.77C2359.66,-98.44 2498.23,-78.24 2608.77,-62.13"/>
<polygon fill="black" stroke="black" points="2609.31,-65.59 2618.7,-60.68 2608.3,-58.66 2609.31,-65.59"/>
</g>
</g>
</svg>
