<?xml version="1.0" encoding="UTF-8" standalone="no"?>
<!DOCTYPE svg PUBLIC "-//W3C//DTD SVG 1.1//EN"
 "http://www.w3.org/Graphics/SVG/1.1/DTD/svg11.dtd">
<!-- Generated by graphviz version 2.43.0 (0)
 -->
<!-- Title: pastafarianism Pages: 1 -->
<svg width="2057pt" height="503pt"
 viewBox="0.00 0.00 2057.33 502.60" xmlns="http://www.w3.org/2000/svg" xmlns:xlink="http://www.w3.org/1999/xlink">
<g id="graph0" class="graph" transform="scale(1 1) rotate(0) translate(4 498.6)">
<title>pastafarianism</title>
<polygon fill="white" stroke="transparent" points="-4,4 -4,-498.6 2053.33,-498.6 2053.33,4 -4,4"/>
<!-- selector:
 screw(chairleg1, chairseatthread1, defaultgripper, left_hand) -->
<g id="node1" class="node">
<title>selector:
 screw(chairleg1, chairseatthread1, defaultgripper, left_hand)</title>
<polygon fill="#8deeee" stroke="black" points="1031.74,-442.54 1031.74,-473.18 773.58,-494.84 408.49,-494.84 150.33,-473.18 150.33,-442.54 408.49,-420.88 773.58,-420.88 1031.74,-442.54"/>
<text text-anchor="middle" x="591.04" y="-463.46" font-family="Times,serif" font-size="18.00">selector:</text>
<text text-anchor="middle" x="591.04" y="-443.46" font-family="Times,serif" font-size="18.00"> screw(chairleg1, chairseatthread1, defaultgripper, left_hand)</text>
</g>
<!-- target:
 is_screwed_to(chairleg1, chairseatthread1) -->
<g id="node2" class="node">
<title>target:
 is_screwed_to(chairleg1, chairseatthread1)</title>
<ellipse fill="#ffec8b" stroke="black" cx="292.04" cy="-351.18" rx="292.07" ry="33.88"/>
<text text-anchor="middle" x="292.04" y="-356.78" font-family="Times,serif" font-size="18.00">target:</text>
<text text-anchor="middle" x="292.04" y="-336.78" font-family="Times,serif" font-size="18.00"> is_screwed_to(chairleg1, chairseatthread1)</text>
</g>
<!-- selector:
 screw(chairleg1, chairseatthread1, defaultgripper, left_hand)&#45;&gt;target:
 is_screwed_to(chairleg1, chairseatthread1) -->
<g id="edge1" class="edge">
<title>selector:
 screw(chairleg1, chairseatthread1, defaultgripper, left_hand)&#45;&gt;target:
 is_screwed_to(chairleg1, chairseatthread1)</title>
<path fill="none" stroke="black" d="M488.55,-420.98C457.15,-409.99 422.66,-397.91 391.46,-386.99"/>
<polygon fill="black" stroke="black" points="392.48,-383.64 381.89,-383.64 390.17,-390.25 392.48,-383.64"/>
</g>
<!-- sequence:
 screw(chairleg1, chairseatthread1, defaultgripper, left_hand) -->
<g id="node3" class="node">
<title>sequence:
 screw(chairleg1, chairseatthread1, defaultgripper, left_hand)</title>
<polygon fill="#ff7f24" stroke="black" points="1178.04,-375.18 602.04,-375.18 602.04,-327.18 1178.04,-327.18 1178.04,-375.18"/>
<text text-anchor="middle" x="890.04" y="-356.78" font-family="Times,serif" font-size="18.00">sequence:</text>
<text text-anchor="middle" x="890.04" y="-336.78" font-family="Times,serif" font-size="18.00"> screw(chairleg1, chairseatthread1, defaultgripper, left_hand)</text>
</g>
<!-- selector:
 screw(chairleg1, chairseatthread1, defaultgripper, left_hand)&#45;&gt;sequence:
 screw(chairleg1, chairseatthread1, defaultgripper, left_hand) -->
<g id="edge2" class="edge">
<title>selector:
 screw(chairleg1, chairseatthread1, defaultgripper, left_hand)&#45;&gt;sequence:
 screw(chairleg1, chairseatthread1, defaultgripper, left_hand)</title>
<path fill="none" stroke="black" d="M693.52,-420.98C733.24,-407.07 777.9,-391.44 814.6,-378.59"/>
<polygon fill="black" stroke="black" points="815.95,-381.83 824.23,-375.22 813.64,-375.22 815.95,-381.83"/>
</g>
<!-- precondition:
 hold(left_hand, defaultgripper) -->
<g id="node4" class="node">
<title>precondition:
 hold(left_hand, defaultgripper)</title>
<ellipse fill="#ffec8b" stroke="black" cx="332.04" cy="-244.5" rx="213.59" ry="33.88"/>
<text text-anchor="middle" x="332.04" y="-250.1" font-family="Times,serif" font-size="18.00">precondition:</text>
<text text-anchor="middle" x="332.04" y="-230.1" font-family="Times,serif" font-size="18.00"> hold(left_hand, defaultgripper)</text>
</g>
<!-- sequence:
 screw(chairleg1, chairseatthread1, defaultgripper, left_hand)&#45;&gt;precondition:
 hold(left_hand, defaultgripper) -->
<g id="edge3" class="edge">
<title>sequence:
 screw(chairleg1, chairseatthread1, defaultgripper, left_hand)&#45;&gt;precondition:
 hold(left_hand, defaultgripper)</title>
<path fill="none" stroke="black" d="M767.23,-327.14C681.72,-311.1 567.31,-289.64 477.26,-272.75"/>
<polygon fill="black" stroke="black" points="477.71,-269.27 467.24,-270.87 476.42,-276.15 477.71,-269.27"/>
</g>
<!-- selector:
 pick_up(left_hand, defaultgripper, chairleg1) -->
<g id="node5" class="node">
<title>selector:
 pick_up(left_hand, defaultgripper, chairleg1)</title>
<polygon fill="#8deeee" stroke="black" points="1216.66,-229.19 1216.66,-259.82 1025.33,-281.48 754.74,-281.48 563.41,-259.82 563.41,-229.19 754.74,-207.53 1025.33,-207.53 1216.66,-229.19"/>
<text text-anchor="middle" x="890.04" y="-250.1" font-family="Times,serif" font-size="18.00">selector:</text>
<text text-anchor="middle" x="890.04" y="-230.1" font-family="Times,serif" font-size="18.00"> pick_up(left_hand, defaultgripper, chairleg1)</text>
</g>
<!-- sequence:
 screw(chairleg1, chairseatthread1, defaultgripper, left_hand)&#45;&gt;selector:
 pick_up(left_hand, defaultgripper, chairleg1) -->
<g id="edge4" class="edge">
<title>sequence:
 screw(chairleg1, chairseatthread1, defaultgripper, left_hand)&#45;&gt;selector:
 pick_up(left_hand, defaultgripper, chairleg1)</title>
<path fill="none" stroke="black" d="M890.04,-326.95C890.04,-316.5 890.04,-303.79 890.04,-291.54"/>
<polygon fill="black" stroke="black" points="893.54,-291.42 890.04,-281.42 886.54,-291.42 893.54,-291.42"/>
</g>
<!-- action:
 screw(left_hand, defaultgripper, chairleg1, chairseatthread1) -->
<g id="node11" class="node">
<title>action:
 screw(left_hand, defaultgripper, chairleg1, chairseatthread1)</title>
<ellipse fill="lightgreen" stroke="black" cx="1642.04" cy="-244.5" rx="407.09" ry="33.88"/>
<text text-anchor="middle" x="1642.04" y="-250.1" font-family="Times,serif" font-size="18.00">action:</text>
<text text-anchor="middle" x="1642.04" y="-230.1" font-family="Times,serif" font-size="18.00"> screw(left_hand, defaultgripper, chairleg1, chairseatthread1)</text>
</g>
<!-- sequence:
 screw(chairleg1, chairseatthread1, defaultgripper, left_hand)&#45;&gt;action:
 screw(left_hand, defaultgripper, chairleg1, chairseatthread1) -->
<g id="edge10" class="edge">
<title>sequence:
 screw(chairleg1, chairseatthread1, defaultgripper, left_hand)&#45;&gt;action:
 screw(left_hand, defaultgripper, chairleg1, chairseatthread1)</title>
<path fill="none" stroke="black" d="M1055.53,-327.14C1165.1,-311.89 1309.86,-291.74 1428.15,-275.28"/>
<polygon fill="black" stroke="black" points="1428.64,-278.74 1438.06,-273.9 1427.67,-271.81 1428.64,-278.74"/>
</g>
<!-- target:
 hold(defaultgripper, chairleg1) -->
<g id="node6" class="node">
<title>target:
 hold(defaultgripper, chairleg1)</title>
<ellipse fill="#ffec8b" stroke="black" cx="668.04" cy="-137.82" rx="212.26" ry="33.88"/>
<text text-anchor="middle" x="668.04" y="-143.42" font-family="Times,serif" font-size="18.00">target:</text>
<text text-anchor="middle" x="668.04" y="-123.42" font-family="Times,serif" font-size="18.00"> hold(defaultgripper, chairleg1)</text>
</g>
<!-- selector:
 pick_up(left_hand, defaultgripper, chairleg1)&#45;&gt;target:
 hold(defaultgripper, chairleg1) -->
<g id="edge5" class="edge">
<title>selector:
 pick_up(left_hand, defaultgripper, chairleg1)&#45;&gt;target:
 hold(defaultgripper, chairleg1)</title>
<path fill="none" stroke="black" d="M813.95,-207.62C791.22,-196.91 766.32,-185.17 743.63,-174.47"/>
<polygon fill="black" stroke="black" points="744.92,-171.21 734.39,-170.11 741.94,-177.54 744.92,-171.21"/>
</g>
<!-- sequence:
 pick_up(left_hand, defaultgripper, chairleg1) -->
<g id="node7" class="node">
<title>sequence:
 pick_up(left_hand, defaultgripper, chairleg1)</title>
<polygon fill="#ff7f24" stroke="black" points="1325.54,-161.82 898.54,-161.82 898.54,-113.82 1325.54,-113.82 1325.54,-161.82"/>
<text text-anchor="middle" x="1112.04" y="-143.42" font-family="Times,serif" font-size="18.00">sequence:</text>
<text text-anchor="middle" x="1112.04" y="-123.42" font-family="Times,serif" font-size="18.00"> pick_up(left_hand, defaultgripper, chairleg1)</text>
</g>
<!-- selector:
 pick_up(left_hand, defaultgripper, chairleg1)&#45;&gt;sequence:
 pick_up(left_hand, defaultgripper, chairleg1) -->
<g id="edge6" class="edge">
<title>selector:
 pick_up(left_hand, defaultgripper, chairleg1)&#45;&gt;sequence:
 pick_up(left_hand, defaultgripper, chairleg1)</title>
<path fill="none" stroke="black" d="M966.12,-207.62C994.87,-194.07 1027.09,-178.88 1053.93,-166.22"/>
<polygon fill="black" stroke="black" points="1055.63,-169.29 1063.18,-161.86 1052.64,-162.96 1055.63,-169.29"/>
</g>
<!-- precondition:
 is_empty(defaultgripper) -->
<g id="node8" class="node">
<title>precondition:
 is_empty(defaultgripper)</title>
<ellipse fill="#ffec8b" stroke="black" cx="693.04" cy="-33.94" rx="175.23" ry="33.88"/>
<text text-anchor="middle" x="693.04" y="-39.54" font-family="Times,serif" font-size="18.00">precondition:</text>
<text text-anchor="middle" x="693.04" y="-19.54" font-family="Times,serif" font-size="18.00"> is_empty(defaultgripper)</text>
</g>
<!-- sequence:
 pick_up(left_hand, defaultgripper, chairleg1)&#45;&gt;precondition:
 is_empty(defaultgripper) -->
<g id="edge7" class="edge">
<title>sequence:
 pick_up(left_hand, defaultgripper, chairleg1)&#45;&gt;precondition:
 is_empty(defaultgripper)</title>
<path fill="none" stroke="black" d="M1017.22,-113.77C955.8,-98.83 875.36,-79.27 809.98,-63.38"/>
<polygon fill="black" stroke="black" points="810.58,-59.92 800.03,-60.96 808.92,-66.72 810.58,-59.92"/>
</g>
<!-- &quot;precondition:\n hold(left_hand, defaultgripper)&quot;* -->
<g id="node9" class="node">
<title>&quot;precondition:\n hold(left_hand, defaultgripper)&quot;*</title>
<ellipse fill="#ffec8b" stroke="black" cx="1112.04" cy="-33.94" rx="225.63" ry="33.88"/>
<text text-anchor="middle" x="1112.04" y="-39.54" font-family="Times,serif" font-size="18.00">&quot;precondition:</text>
<text text-anchor="middle" x="1112.04" y="-19.54" font-family="Times,serif" font-size="18.00"> hold(left_hand, defaultgripper)&quot;*</text>
</g>
<!-- sequence:
 pick_up(left_hand, defaultgripper, chairleg1)&#45;&gt;&quot;precondition:\n hold(left_hand, defaultgripper)&quot;* -->
<g id="edge8" class="edge">
<title>sequence:
 pick_up(left_hand, defaultgripper, chairleg1)&#45;&gt;&quot;precondition:\n hold(left_hand, defaultgripper)&quot;*</title>
<path fill="none" stroke="black" d="M1112.04,-113.7C1112.04,-103.16 1112.04,-90.31 1112.04,-78.08"/>
<polygon fill="black" stroke="black" points="1115.54,-78.01 1112.04,-68.01 1108.54,-78.01 1115.54,-78.01"/>
</g>
<!-- action:
 pick_up(left_hand, defaultgripper, chairleg1) -->
<g id="node10" class="node">
<title>action:
 pick_up(left_hand, defaultgripper, chairleg1)</title>
<ellipse fill="lightgreen" stroke="black" cx="1658.04" cy="-33.94" rx="301.87" ry="33.88"/>
<text text-anchor="middle" x="1658.04" y="-39.54" font-family="Times,serif" font-size="18.00">action:</text>
<text text-anchor="middle" x="1658.04" y="-19.54" font-family="Times,serif" font-size="18.00"> pick_up(left_hand, defaultgripper, chairleg1)</text>
</g>
<!-- sequence:
 pick_up(left_hand, defaultgripper, chairleg1)&#45;&gt;action:
 pick_up(left_hand, defaultgripper, chairleg1) -->
<g id="edge9" class="edge">
<title>sequence:
 pick_up(left_hand, defaultgripper, chairleg1)&#45;&gt;action:
 pick_up(left_hand, defaultgripper, chairleg1)</title>
<path fill="none" stroke="black" d="M1235.59,-113.77C1312.6,-99.4 1412.54,-80.75 1495.88,-65.2"/>
<polygon fill="black" stroke="black" points="1496.77,-68.59 1505.96,-63.32 1495.49,-61.71 1496.77,-68.59"/>
</g>
</g>
</svg>
