<?xml version="1.0" encoding="UTF-8" standalone="no"?>
<!DOCTYPE svg PUBLIC "-//W3C//DTD SVG 1.1//EN"
 "http://www.w3.org/Graphics/SVG/1.1/DTD/svg11.dtd">
<!-- Generated by graphviz version 2.43.0 (0)
 -->
<!-- Title: pastafarianism Pages: 1 -->
<svg width="2012pt" height="620pt"
 viewBox="0.00 0.00 2011.59 620.00" xmlns="http://www.w3.org/2000/svg" xmlns:xlink="http://www.w3.org/1999/xlink">
<g id="graph0" class="graph" transform="scale(1 1) rotate(0) translate(4 616)">
<title>pastafarianism</title>
<polygon fill="white" stroke="transparent" points="-4,4 -4,-616 2007.59,-616 2007.59,4 -4,4"/>
<!-- Sequence -->
<g id="node1" class="node">
<title>Sequence</title>
<polygon fill="orange" stroke="black" points="938.91,-612 876.91,-612 876.91,-576 938.91,-576 938.91,-612"/>
<text text-anchor="middle" x="907.91" y="-591.8" font-family="Times,serif" font-size="9.00">Sequence</text>
</g>
<!-- Fallback -->
<g id="node2" class="node">
<title>Fallback</title>
<polygon fill="cyan" stroke="black" points="540.91,-514.54 540.91,-529.46 520.41,-540 491.42,-540 470.92,-529.46 470.92,-514.54 491.42,-504 520.41,-504 540.91,-514.54"/>
<text text-anchor="middle" x="505.91" y="-519.8" font-family="Times,serif" font-size="9.00">Fallback</text>
</g>
<!-- Sequence&#45;&gt;Fallback -->
<g id="edge1" class="edge">
<title>Sequence&#45;&gt;Fallback</title>
<path fill="none" stroke="black" d="M876.71,-587.57C806.03,-575.26 633.51,-545.22 551.14,-530.87"/>
<polygon fill="black" stroke="black" points="551.53,-527.39 541.08,-529.12 550.33,-534.29 551.53,-527.39"/>
</g>
<!-- close_gripper -->
<g id="node27" class="node">
<title>close_gripper</title>
<ellipse fill="lightgray" stroke="black" cx="808.91" cy="-522" rx="46.38" ry="18"/>
<text text-anchor="middle" x="808.91" y="-519.8" font-family="Times,serif" font-size="9.00">close_gripper</text>
</g>
<!-- Sequence&#45;&gt;close_gripper -->
<g id="edge26" class="edge">
<title>Sequence&#45;&gt;close_gripper</title>
<path fill="none" stroke="black" d="M883.7,-575.88C870.14,-566.29 853.12,-554.26 838.75,-544.09"/>
<polygon fill="black" stroke="black" points="840.38,-540.96 830.19,-538.05 836.34,-546.68 840.38,-540.96"/>
</g>
<!-- Fallback &#160;&#160;&#160;&#160;&#160;&#160; -->
<g id="node28" class="node">
<title>Fallback &#160;&#160;&#160;&#160;&#160;&#160;</title>
<polygon fill="cyan" stroke="black" points="942.91,-514.54 942.91,-529.46 922.41,-540 893.42,-540 872.92,-529.46 872.92,-514.54 893.42,-504 922.41,-504 942.91,-514.54"/>
<text text-anchor="middle" x="907.91" y="-519.8" font-family="Times,serif" font-size="9.00">Fallback</text>
</g>
<!-- Sequence&#45;&gt;Fallback &#160;&#160;&#160;&#160;&#160;&#160; -->
<g id="edge27" class="edge">
<title>Sequence&#45;&gt;Fallback &#160;&#160;&#160;&#160;&#160;&#160;</title>
<path fill="none" stroke="black" d="M907.91,-575.7C907.91,-567.98 907.91,-558.71 907.91,-550.11"/>
<polygon fill="black" stroke="black" points="911.42,-550.1 907.91,-540.1 904.42,-550.1 911.42,-550.1"/>
</g>
<!-- Fallback &#160;&#160;&#160;&#160;&#160;&#160;&#160;&#160;&#160; -->
<g id="node39" class="node">
<title>Fallback &#160;&#160;&#160;&#160;&#160;&#160;&#160;&#160;&#160;</title>
<polygon fill="cyan" stroke="black" points="1138.91,-514.54 1138.91,-529.46 1118.41,-540 1089.42,-540 1068.92,-529.46 1068.92,-514.54 1089.42,-504 1118.41,-504 1138.91,-514.54"/>
<text text-anchor="middle" x="1103.91" y="-519.8" font-family="Times,serif" font-size="9.00">Fallback</text>
</g>
<!-- Sequence&#45;&gt;Fallback &#160;&#160;&#160;&#160;&#160;&#160;&#160;&#160;&#160; -->
<g id="edge38" class="edge">
<title>Sequence&#45;&gt;Fallback &#160;&#160;&#160;&#160;&#160;&#160;&#160;&#160;&#160;</title>
<path fill="none" stroke="black" d="M938.97,-581.91C973.45,-569.59 1029.12,-549.71 1066.11,-536.5"/>
<polygon fill="black" stroke="black" points="1067.31,-539.79 1075.55,-533.13 1064.95,-533.2 1067.31,-539.79"/>
</g>
<!-- Fallback &#160;&#160;&#160;&#160;&#160;&#160;&#160;&#160;&#160;&#160;&#160;&#160; -->
<g id="node50" class="node">
<title>Fallback &#160;&#160;&#160;&#160;&#160;&#160;&#160;&#160;&#160;&#160;&#160;&#160;</title>
<polygon fill="cyan" stroke="black" points="1525.91,-514.54 1525.91,-529.46 1505.41,-540 1476.42,-540 1455.92,-529.46 1455.92,-514.54 1476.42,-504 1505.41,-504 1525.91,-514.54"/>
<text text-anchor="middle" x="1490.91" y="-519.8" font-family="Times,serif" font-size="9.00">Fallback</text>
</g>
<!-- Sequence&#45;&gt;Fallback &#160;&#160;&#160;&#160;&#160;&#160;&#160;&#160;&#160;&#160;&#160;&#160; -->
<g id="edge49" class="edge">
<title>Sequence&#45;&gt;Fallback &#160;&#160;&#160;&#160;&#160;&#160;&#160;&#160;&#160;&#160;&#160;&#160;</title>
<path fill="none" stroke="black" d="M939.26,-589.24C1036.28,-577.59 1331.93,-542.09 1445.66,-528.43"/>
<polygon fill="black" stroke="black" points="1446.26,-531.89 1455.77,-527.22 1445.43,-524.94 1446.26,-531.89"/>
</g>
<!-- unstacked -->
<g id="node3" class="node">
<title>unstacked</title>
<ellipse fill="lightgray" stroke="black" cx="419.91" cy="-450" rx="36.9" ry="18"/>
<text text-anchor="middle" x="419.91" y="-447.8" font-family="Times,serif" font-size="9.00">unstacked</text>
</g>
<!-- Fallback&#45;&gt;unstacked -->
<g id="edge2" class="edge">
<title>Fallback&#45;&gt;unstacked</title>
<path fill="none" stroke="black" d="M487.25,-505.81C475.23,-496.02 459.41,-483.15 446.13,-472.34"/>
<polygon fill="black" stroke="black" points="448.21,-469.52 438.24,-465.92 443.79,-474.95 448.21,-469.52"/>
</g>
<!-- Sequence  -->
<g id="node4" class="node">
<title>Sequence </title>
<polygon fill="orange" stroke="black" points="536.91,-468 474.91,-468 474.91,-432 536.91,-432 536.91,-468"/>
<text text-anchor="middle" x="505.91" y="-447.8" font-family="Times,serif" font-size="9.00">Sequence</text>
</g>
<!-- Fallback&#45;&gt;Sequence  -->
<g id="edge3" class="edge">
<title>Fallback&#45;&gt;Sequence </title>
<path fill="none" stroke="black" d="M505.91,-503.7C505.91,-495.98 505.91,-486.71 505.91,-478.11"/>
<polygon fill="black" stroke="black" points="509.42,-478.1 505.91,-468.1 502.42,-478.1 509.42,-478.1"/>
</g>
<!-- Fallback  -->
<g id="node5" class="node">
<title>Fallback </title>
<polygon fill="cyan" stroke="black" points="373.91,-370.54 373.91,-385.46 353.41,-396 324.42,-396 303.92,-385.46 303.92,-370.54 324.42,-360 353.41,-360 373.91,-370.54"/>
<text text-anchor="middle" x="338.91" y="-375.8" font-family="Times,serif" font-size="9.00">Fallback</text>
</g>
<!-- Sequence &#45;&gt;Fallback  -->
<g id="edge4" class="edge">
<title>Sequence &#45;&gt;Fallback </title>
<path fill="none" stroke="black" d="M474.91,-435.8C471.87,-434.51 468.84,-433.23 465.91,-432 435.26,-419.09 400.39,-404.55 374.95,-393.97"/>
<polygon fill="black" stroke="black" points="376.27,-390.72 365.69,-390.12 373.58,-397.19 376.27,-390.72"/>
</g>
<!-- Fallback &#160;&#160;&#160; -->
<g id="node16" class="node">
<title>Fallback &#160;&#160;&#160;</title>
<polygon fill="cyan" stroke="black" points="562.91,-370.54 562.91,-385.46 542.41,-396 513.42,-396 492.92,-385.46 492.92,-370.54 513.42,-360 542.41,-360 562.91,-370.54"/>
<text text-anchor="middle" x="527.91" y="-375.8" font-family="Times,serif" font-size="9.00">Fallback</text>
</g>
<!-- Sequence &#45;&gt;Fallback &#160;&#160;&#160; -->
<g id="edge15" class="edge">
<title>Sequence &#45;&gt;Fallback &#160;&#160;&#160;</title>
<path fill="none" stroke="black" d="M511.35,-431.7C513.8,-423.9 516.76,-414.51 519.48,-405.83"/>
<polygon fill="black" stroke="black" points="522.88,-406.69 522.54,-396.1 516.2,-404.59 522.88,-406.69"/>
</g>
<!-- object_at GreenBox [&#45;0.8, &#45;1.0, 0.89] 0.0 base_link -->
<g id="node6" class="node">
<title>object_at GreenBox [&#45;0.8, &#45;1.0, 0.89] 0.0 base_link</title>
<ellipse fill="lightgray" stroke="black" cx="144.91" cy="-306" rx="144.83" ry="18"/>
<text text-anchor="middle" x="144.91" y="-303.8" font-family="Times,serif" font-size="9.00">object_at GreenBox [&#45;0.8, &#45;1.0, 0.89] 0.0 base_link</text>
</g>
<!-- Fallback &#45;&gt;object_at GreenBox [&#45;0.8, &#45;1.0, 0.89] 0.0 base_link -->
<g id="edge5" class="edge">
<title>Fallback &#45;&gt;object_at GreenBox [&#45;0.8, &#45;1.0, 0.89] 0.0 base_link</title>
<path fill="none" stroke="black" d="M310.71,-366.82C281.57,-356.31 235.38,-339.64 199.15,-326.57"/>
<polygon fill="black" stroke="black" points="200.29,-323.26 189.69,-323.16 197.91,-329.84 200.29,-323.26"/>
</g>
<!-- Sequence &#160; -->
<g id="node7" class="node">
<title>Sequence &#160;</title>
<polygon fill="orange" stroke="black" points="369.91,-324 307.91,-324 307.91,-288 369.91,-288 369.91,-324"/>
<text text-anchor="middle" x="338.91" y="-303.8" font-family="Times,serif" font-size="9.00">Sequence</text>
</g>
<!-- Fallback &#45;&gt;Sequence &#160; -->
<g id="edge6" class="edge">
<title>Fallback &#45;&gt;Sequence &#160;</title>
<path fill="none" stroke="black" d="M338.91,-359.7C338.91,-351.98 338.91,-342.71 338.91,-334.11"/>
<polygon fill="black" stroke="black" points="342.42,-334.1 338.91,-324.1 335.42,-334.1 342.42,-334.1"/>
</g>
<!-- Fallback &#160; -->
<g id="node8" class="node">
<title>Fallback &#160;</title>
<polygon fill="cyan" stroke="black" points="210.91,-226.54 210.91,-241.46 190.41,-252 161.42,-252 140.92,-241.46 140.92,-226.54 161.42,-216 190.41,-216 210.91,-226.54"/>
<text text-anchor="middle" x="175.91" y="-231.8" font-family="Times,serif" font-size="9.00">Fallback</text>
</g>
<!-- Sequence &#160;&#45;&gt;Fallback &#160; -->
<g id="edge7" class="edge">
<title>Sequence &#160;&#45;&gt;Fallback &#160;</title>
<path fill="none" stroke="black" d="M307.87,-291.67C280.32,-279.84 240.08,-262.56 211.29,-250.19"/>
<polygon fill="black" stroke="black" points="212.57,-246.93 202,-246.2 209.81,-253.37 212.57,-246.93"/>
</g>
<!-- place0 GreenBox [&#45;0.8, &#45;1.0, 0.89] 0.0 base_link -->
<g id="node15" class="node">
<title>place0 GreenBox [&#45;0.8, &#45;1.0, 0.89] 0.0 base_link</title>
<ellipse fill="lightgray" stroke="black" cx="366.91" cy="-234" rx="137.97" ry="18"/>
<text text-anchor="middle" x="366.91" y="-231.8" font-family="Times,serif" font-size="9.00">place0 GreenBox [&#45;0.8, &#45;1.0, 0.89] 0.0 base_link</text>
</g>
<!-- Sequence &#160;&#45;&gt;place0 GreenBox [&#45;0.8, &#45;1.0, 0.89] 0.0 base_link -->
<g id="edge14" class="edge">
<title>Sequence &#160;&#45;&gt;place0 GreenBox [&#45;0.8, &#45;1.0, 0.89] 0.0 base_link</title>
<path fill="none" stroke="black" d="M345.84,-287.7C348.99,-279.81 352.79,-270.3 356.3,-261.55"/>
<polygon fill="black" stroke="black" points="359.61,-262.69 360.07,-252.1 353.11,-260.09 359.61,-262.69"/>
</g>
<!-- in_gripper GreenBox -->
<g id="node9" class="node">
<title>in_gripper GreenBox</title>
<ellipse fill="lightgray" stroke="black" cx="139.91" cy="-162" rx="65.64" ry="18"/>
<text text-anchor="middle" x="139.91" y="-159.8" font-family="Times,serif" font-size="9.00">in_gripper GreenBox</text>
</g>
<!-- Fallback &#160;&#45;&gt;in_gripper GreenBox -->
<g id="edge8" class="edge">
<title>Fallback &#160;&#45;&gt;in_gripper GreenBox</title>
<path fill="none" stroke="black" d="M167.02,-215.7C162.92,-207.73 157.97,-198.1 153.42,-189.26"/>
<polygon fill="black" stroke="black" points="156.4,-187.4 148.71,-180.1 150.17,-190.6 156.4,-187.4"/>
</g>
<!-- Sequence &#160;&#160; -->
<g id="node10" class="node">
<title>Sequence &#160;&#160;</title>
<polygon fill="orange" stroke="black" points="285.91,-180 223.91,-180 223.91,-144 285.91,-144 285.91,-180"/>
<text text-anchor="middle" x="254.91" y="-159.8" font-family="Times,serif" font-size="9.00">Sequence</text>
</g>
<!-- Fallback &#160;&#45;&gt;Sequence &#160;&#160; -->
<g id="edge9" class="edge">
<title>Fallback &#160;&#45;&gt;Sequence &#160;&#160;</title>
<path fill="none" stroke="black" d="M193.45,-217.46C203.57,-208.5 216.51,-197.03 227.9,-186.93"/>
<polygon fill="black" stroke="black" points="230.33,-189.46 235.49,-180.21 225.69,-184.22 230.33,-189.46"/>
</g>
<!-- Fallback &#160;&#160; -->
<g id="node11" class="node">
<title>Fallback &#160;&#160;</title>
<polygon fill="cyan" stroke="black" points="280.91,-82.54 280.91,-97.46 260.41,-108 231.42,-108 210.92,-97.46 210.92,-82.54 231.42,-72 260.41,-72 280.91,-82.54"/>
<text text-anchor="middle" x="245.91" y="-87.8" font-family="Times,serif" font-size="9.00">Fallback</text>
</g>
<!-- Sequence &#160;&#160;&#45;&gt;Fallback &#160;&#160; -->
<g id="edge10" class="edge">
<title>Sequence &#160;&#160;&#45;&gt;Fallback &#160;&#160;</title>
<path fill="none" stroke="black" d="M252.69,-143.7C251.7,-135.98 250.51,-126.71 249.4,-118.11"/>
<polygon fill="black" stroke="black" points="252.86,-117.58 248.11,-108.1 245.92,-118.47 252.86,-117.58"/>
</g>
<!-- pick0 GreenBox -->
<g id="node14" class="node">
<title>pick0 GreenBox</title>
<ellipse fill="lightgray" stroke="black" cx="351.91" cy="-90" rx="52.58" ry="18"/>
<text text-anchor="middle" x="351.91" y="-87.8" font-family="Times,serif" font-size="9.00">pick0 GreenBox</text>
</g>
<!-- Sequence &#160;&#160;&#45;&gt;pick0 GreenBox -->
<g id="edge13" class="edge">
<title>Sequence &#160;&#160;&#45;&gt;pick0 GreenBox</title>
<path fill="none" stroke="black" d="M278.89,-143.7C291.9,-134.31 308.1,-122.62 321.94,-112.63"/>
<polygon fill="black" stroke="black" points="324.14,-115.36 330.2,-106.67 320.04,-109.68 324.14,-115.36"/>
</g>
<!-- gripper_state open -->
<g id="node12" class="node">
<title>gripper_state open</title>
<ellipse fill="lightgray" stroke="black" cx="157.91" cy="-18" rx="60.09" ry="18"/>
<text text-anchor="middle" x="157.91" y="-15.8" font-family="Times,serif" font-size="9.00">gripper_state open</text>
</g>
<!-- Fallback &#160;&#160;&#45;&gt;gripper_state open -->
<g id="edge11" class="edge">
<title>Fallback &#160;&#160;&#45;&gt;gripper_state open</title>
<path fill="none" stroke="black" d="M226.82,-73.81C214.93,-64.35 199.43,-52.02 186.13,-41.45"/>
<polygon fill="black" stroke="black" points="188.2,-38.62 178.2,-35.13 183.84,-44.1 188.2,-38.62"/>
</g>
<!-- open_gripper -->
<g id="node13" class="node">
<title>open_gripper</title>
<ellipse fill="lightgray" stroke="black" cx="281.91" cy="-18" rx="45.72" ry="18"/>
<text text-anchor="middle" x="281.91" y="-15.8" font-family="Times,serif" font-size="9.00">open_gripper</text>
</g>
<!-- Fallback &#160;&#160;&#45;&gt;open_gripper -->
<g id="edge12" class="edge">
<title>Fallback &#160;&#160;&#45;&gt;open_gripper</title>
<path fill="none" stroke="black" d="M254.81,-71.7C258.91,-63.73 263.86,-54.1 268.41,-45.26"/>
<polygon fill="black" stroke="black" points="271.66,-46.6 273.12,-36.1 265.43,-43.4 271.66,-46.6"/>
</g>
<!-- object_at BlueBox [&#45;1.2, &#45;1.0, 0.89] 0.0 base_link -->
<g id="node17" class="node">
<title>object_at BlueBox [&#45;1.2, &#45;1.0, 0.89] 0.0 base_link</title>
<ellipse fill="lightgray" stroke="black" cx="527.91" cy="-306" rx="140.09" ry="18"/>
<text text-anchor="middle" x="527.91" y="-303.8" font-family="Times,serif" font-size="9.00">object_at BlueBox [&#45;1.2, &#45;1.0, 0.89] 0.0 base_link</text>
</g>
<!-- Fallback &#160;&#160;&#160;&#45;&gt;object_at BlueBox [&#45;1.2, &#45;1.0, 0.89] 0.0 base_link -->
<g id="edge16" class="edge">
<title>Fallback &#160;&#160;&#160;&#45;&gt;object_at BlueBox [&#45;1.2, &#45;1.0, 0.89] 0.0 base_link</title>
<path fill="none" stroke="black" d="M527.91,-359.7C527.91,-351.98 527.91,-342.71 527.91,-334.11"/>
<polygon fill="black" stroke="black" points="531.42,-334.1 527.91,-324.1 524.42,-334.1 531.42,-334.1"/>
</g>
<!-- Sequence &#160;&#160;&#160; -->
<g id="node18" class="node">
<title>Sequence &#160;&#160;&#160;</title>
<polygon fill="orange" stroke="black" points="747.91,-324 685.91,-324 685.91,-288 747.91,-288 747.91,-324"/>
<text text-anchor="middle" x="716.91" y="-303.8" font-family="Times,serif" font-size="9.00">Sequence</text>
</g>
<!-- Fallback &#160;&#160;&#160;&#45;&gt;Sequence &#160;&#160;&#160; -->
<g id="edge17" class="edge">
<title>Fallback &#160;&#160;&#160;&#45;&gt;Sequence &#160;&#160;&#160;</title>
<path fill="none" stroke="black" d="M556.95,-367.25C585.23,-357.63 629.61,-342.19 676.2,-324.18"/>
<polygon fill="black" stroke="black" points="677.5,-327.43 685.55,-320.54 674.96,-320.91 677.5,-327.43"/>
</g>
<!-- Fallback &#160;&#160;&#160;&#160; -->
<g id="node19" class="node">
<title>Fallback &#160;&#160;&#160;&#160;</title>
<polygon fill="cyan" stroke="black" points="610.91,-226.54 610.91,-241.46 590.41,-252 561.42,-252 540.92,-241.46 540.92,-226.54 561.42,-216 590.41,-216 610.91,-226.54"/>
<text text-anchor="middle" x="575.91" y="-231.8" font-family="Times,serif" font-size="9.00">Fallback</text>
</g>
<!-- Sequence &#160;&#160;&#160;&#45;&gt;Fallback &#160;&#160;&#160;&#160; -->
<g id="edge18" class="edge">
<title>Sequence &#160;&#160;&#160;&#45;&gt;Fallback &#160;&#160;&#160;&#160;</title>
<path fill="none" stroke="black" d="M685.62,-289.46C662.95,-278.21 632.34,-263.01 609.21,-251.53"/>
<polygon fill="black" stroke="black" points="610.63,-248.33 600.12,-247.02 607.52,-254.6 610.63,-248.33"/>
</g>
<!-- place0 BlueBox [&#45;1.2, &#45;1.0, 0.89] 0.0 base_link -->
<g id="node26" class="node">
<title>place0 BlueBox [&#45;1.2, &#45;1.0, 0.89] 0.0 base_link</title>
<ellipse fill="lightgray" stroke="black" cx="762.91" cy="-234" rx="133.89" ry="18"/>
<text text-anchor="middle" x="762.91" y="-231.8" font-family="Times,serif" font-size="9.00">place0 BlueBox [&#45;1.2, &#45;1.0, 0.89] 0.0 base_link</text>
</g>
<!-- Sequence &#160;&#160;&#160;&#45;&gt;place0 BlueBox [&#45;1.2, &#45;1.0, 0.89] 0.0 base_link -->
<g id="edge25" class="edge">
<title>Sequence &#160;&#160;&#160;&#45;&gt;place0 BlueBox [&#45;1.2, &#45;1.0, 0.89] 0.0 base_link</title>
<path fill="none" stroke="black" d="M728.29,-287.7C733.63,-279.56 740.12,-269.69 746.03,-260.7"/>
<polygon fill="black" stroke="black" points="749.11,-262.38 751.67,-252.1 743.26,-258.54 749.11,-262.38"/>
</g>
<!-- in_gripper BlueBox -->
<g id="node20" class="node">
<title>in_gripper BlueBox</title>
<ellipse fill="lightgray" stroke="black" cx="469.91" cy="-162" rx="61.55" ry="18"/>
<text text-anchor="middle" x="469.91" y="-159.8" font-family="Times,serif" font-size="9.00">in_gripper BlueBox</text>
</g>
<!-- Fallback &#160;&#160;&#160;&#160;&#45;&gt;in_gripper BlueBox -->
<g id="edge19" class="edge">
<title>Fallback &#160;&#160;&#160;&#160;&#45;&gt;in_gripper BlueBox</title>
<path fill="none" stroke="black" d="M554.97,-219.17C539.97,-209.26 519.48,-195.73 502.37,-184.43"/>
<polygon fill="black" stroke="black" points="504.05,-181.35 493.77,-178.76 500.19,-187.19 504.05,-181.35"/>
</g>
<!-- Sequence &#160;&#160;&#160;&#160; -->
<g id="node21" class="node">
<title>Sequence &#160;&#160;&#160;&#160;</title>
<polygon fill="orange" stroke="black" points="611.91,-180 549.91,-180 549.91,-144 611.91,-144 611.91,-180"/>
<text text-anchor="middle" x="580.91" y="-159.8" font-family="Times,serif" font-size="9.00">Sequence</text>
</g>
<!-- Fallback &#160;&#160;&#160;&#160;&#45;&gt;Sequence &#160;&#160;&#160;&#160; -->
<g id="edge20" class="edge">
<title>Fallback &#160;&#160;&#160;&#160;&#45;&gt;Sequence &#160;&#160;&#160;&#160;</title>
<path fill="none" stroke="black" d="M577.15,-215.7C577.7,-207.98 578.36,-198.71 578.98,-190.11"/>
<polygon fill="black" stroke="black" points="582.47,-190.33 579.69,-180.1 575.49,-189.83 582.47,-190.33"/>
</g>
<!-- Fallback &#160;&#160;&#160;&#160;&#160; -->
<g id="node22" class="node">
<title>Fallback &#160;&#160;&#160;&#160;&#160;</title>
<polygon fill="cyan" stroke="black" points="519.91,-82.54 519.91,-97.46 499.41,-108 470.42,-108 449.92,-97.46 449.92,-82.54 470.42,-72 499.41,-72 519.91,-82.54"/>
<text text-anchor="middle" x="484.91" y="-87.8" font-family="Times,serif" font-size="9.00">Fallback</text>
</g>
<!-- Sequence &#160;&#160;&#160;&#160;&#45;&gt;Fallback &#160;&#160;&#160;&#160;&#160; -->
<g id="edge21" class="edge">
<title>Sequence &#160;&#160;&#160;&#160;&#45;&gt;Fallback &#160;&#160;&#160;&#160;&#160;</title>
<path fill="none" stroke="black" d="M557.18,-143.7C543.85,-133.97 527.12,-121.78 513.12,-111.57"/>
<polygon fill="black" stroke="black" points="514.95,-108.57 504.81,-105.51 510.83,-114.23 514.95,-108.57"/>
</g>
<!-- pick0 BlueBox -->
<g id="node25" class="node">
<title>pick0 BlueBox</title>
<ellipse fill="lightgray" stroke="black" cx="585.91" cy="-90" rx="47.84" ry="18"/>
<text text-anchor="middle" x="585.91" y="-87.8" font-family="Times,serif" font-size="9.00">pick0 BlueBox</text>
</g>
<!-- Sequence &#160;&#160;&#160;&#160;&#45;&gt;pick0 BlueBox -->
<g id="edge24" class="edge">
<title>Sequence &#160;&#160;&#160;&#160;&#45;&gt;pick0 BlueBox</title>
<path fill="none" stroke="black" d="M582.15,-143.7C582.7,-135.98 583.36,-126.71 583.98,-118.11"/>
<polygon fill="black" stroke="black" points="587.47,-118.33 584.69,-108.1 580.49,-117.83 587.47,-118.33"/>
</g>
<!-- gripper_state open  -->
<g id="node23" class="node">
<title>gripper_state open </title>
<ellipse fill="lightgray" stroke="black" cx="449.91" cy="-18" rx="60.09" ry="18"/>
<text text-anchor="middle" x="449.91" y="-15.8" font-family="Times,serif" font-size="9.00">gripper_state open</text>
</g>
<!-- Fallback &#160;&#160;&#160;&#160;&#160;&#45;&gt;gripper_state open  -->
<g id="edge22" class="edge">
<title>Fallback &#160;&#160;&#160;&#160;&#160;&#45;&gt;gripper_state open </title>
<path fill="none" stroke="black" d="M476.26,-71.7C472.28,-63.73 467.46,-54.1 463.05,-45.26"/>
<polygon fill="black" stroke="black" points="466.07,-43.48 458.47,-36.1 459.81,-46.61 466.07,-43.48"/>
</g>
<!-- open_gripper  -->
<g id="node24" class="node">
<title>open_gripper </title>
<ellipse fill="lightgray" stroke="black" cx="573.91" cy="-18" rx="45.72" ry="18"/>
<text text-anchor="middle" x="573.91" y="-15.8" font-family="Times,serif" font-size="9.00">open_gripper</text>
</g>
<!-- Fallback &#160;&#160;&#160;&#160;&#160;&#45;&gt;open_gripper  -->
<g id="edge23" class="edge">
<title>Fallback &#160;&#160;&#160;&#160;&#160;&#45;&gt;open_gripper </title>
<path fill="none" stroke="black" d="M503.79,-74.15C516.13,-64.45 532.45,-51.61 546.25,-40.76"/>
<polygon fill="black" stroke="black" points="548.76,-43.24 554.45,-34.31 544.43,-37.74 548.76,-43.24"/>
</g>
<!-- object_at YellowBox [0.0, 0.0, 0.175] 0.02 KittingBox -->
<g id="node29" class="node">
<title>object_at YellowBox [0.0, 0.0, 0.175] 0.02 KittingBox</title>
<ellipse fill="lightgray" stroke="black" cx="706.91" cy="-450" rx="152.34" ry="18"/>
<text text-anchor="middle" x="706.91" y="-447.8" font-family="Times,serif" font-size="9.00">object_at YellowBox [0.0, 0.0, 0.175] 0.02 KittingBox</text>
</g>
<!-- Fallback &#160;&#160;&#160;&#160;&#160;&#160;&#45;&gt;object_at YellowBox [0.0, 0.0, 0.175] 0.02 KittingBox -->
<g id="edge28" class="edge">
<title>Fallback &#160;&#160;&#160;&#160;&#160;&#160;&#45;&gt;object_at YellowBox [0.0, 0.0, 0.175] 0.02 KittingBox</title>
<path fill="none" stroke="black" d="M880.99,-510.39C875.37,-508.23 869.46,-506.01 863.91,-504 831.71,-492.35 795.51,-480.07 765.99,-470.27"/>
<polygon fill="black" stroke="black" points="766.84,-466.87 756.25,-467.05 764.64,-473.51 766.84,-466.87"/>
</g>
<!-- Sequence &#160;&#160;&#160;&#160;&#160; -->
<g id="node30" class="node">
<title>Sequence &#160;&#160;&#160;&#160;&#160;</title>
<polygon fill="orange" stroke="black" points="938.91,-468 876.91,-468 876.91,-432 938.91,-432 938.91,-468"/>
<text text-anchor="middle" x="907.91" y="-447.8" font-family="Times,serif" font-size="9.00">Sequence</text>
</g>
<!-- Fallback &#160;&#160;&#160;&#160;&#160;&#160;&#45;&gt;Sequence &#160;&#160;&#160;&#160;&#160; -->
<g id="edge29" class="edge">
<title>Fallback &#160;&#160;&#160;&#160;&#160;&#160;&#45;&gt;Sequence &#160;&#160;&#160;&#160;&#160;</title>
<path fill="none" stroke="black" d="M907.91,-503.7C907.91,-495.98 907.91,-486.71 907.91,-478.11"/>
<polygon fill="black" stroke="black" points="911.42,-478.1 907.91,-468.1 904.42,-478.1 911.42,-478.1"/>
</g>
<!-- Fallback &#160;&#160;&#160;&#160;&#160;&#160;&#160; -->
<g id="node31" class="node">
<title>Fallback &#160;&#160;&#160;&#160;&#160;&#160;&#160;</title>
<polygon fill="cyan" stroke="black" points="913.91,-370.54 913.91,-385.46 893.41,-396 864.42,-396 843.92,-385.46 843.92,-370.54 864.42,-360 893.41,-360 913.91,-370.54"/>
<text text-anchor="middle" x="878.91" y="-375.8" font-family="Times,serif" font-size="9.00">Fallback</text>
</g>
<!-- Sequence &#160;&#160;&#160;&#160;&#160;&#45;&gt;Fallback &#160;&#160;&#160;&#160;&#160;&#160;&#160; -->
<g id="edge30" class="edge">
<title>Sequence &#160;&#160;&#160;&#160;&#160;&#45;&gt;Fallback &#160;&#160;&#160;&#160;&#160;&#160;&#160;</title>
<path fill="none" stroke="black" d="M900.75,-431.7C897.48,-423.81 893.54,-414.3 889.91,-405.55"/>
<polygon fill="black" stroke="black" points="893.06,-404 886,-396.1 886.59,-406.68 893.06,-404"/>
</g>
<!-- place0 YellowBox [0.0, 0.0, 0.175] 0.02 KittingBox -->
<g id="node38" class="node">
<title>place0 YellowBox [0.0, 0.0, 0.175] 0.02 KittingBox</title>
<ellipse fill="lightgray" stroke="black" cx="1077.91" cy="-378" rx="146.14" ry="18"/>
<text text-anchor="middle" x="1077.91" y="-375.8" font-family="Times,serif" font-size="9.00">place0 YellowBox [0.0, 0.0, 0.175] 0.02 KittingBox</text>
</g>
<!-- Sequence &#160;&#160;&#160;&#160;&#160;&#45;&gt;place0 YellowBox [0.0, 0.0, 0.175] 0.02 KittingBox -->
<g id="edge37" class="edge">
<title>Sequence &#160;&#160;&#160;&#160;&#160;&#45;&gt;place0 YellowBox [0.0, 0.0, 0.175] 0.02 KittingBox</title>
<path fill="none" stroke="black" d="M939.34,-435.59C942.24,-434.37 945.13,-433.16 947.91,-432 974.33,-421 1003.87,-408.94 1028.1,-399.11"/>
<polygon fill="black" stroke="black" points="1029.49,-402.32 1037.45,-395.32 1026.86,-395.83 1029.49,-402.32"/>
</g>
<!-- in_gripper YellowBox -->
<g id="node32" class="node">
<title>in_gripper YellowBox</title>
<ellipse fill="lightgray" stroke="black" cx="875.91" cy="-306" rx="66.29" ry="18"/>
<text text-anchor="middle" x="875.91" y="-303.8" font-family="Times,serif" font-size="9.00">in_gripper YellowBox</text>
</g>
<!-- Fallback &#160;&#160;&#160;&#160;&#160;&#160;&#160;&#45;&gt;in_gripper YellowBox -->
<g id="edge31" class="edge">
<title>Fallback &#160;&#160;&#160;&#160;&#160;&#160;&#160;&#45;&gt;in_gripper YellowBox</title>
<path fill="none" stroke="black" d="M878.17,-359.7C877.84,-351.98 877.45,-342.71 877.08,-334.11"/>
<polygon fill="black" stroke="black" points="880.57,-333.95 876.65,-324.1 873.58,-334.25 880.57,-333.95"/>
</g>
<!-- Sequence &#160;&#160;&#160;&#160;&#160;&#160; -->
<g id="node33" class="node">
<title>Sequence &#160;&#160;&#160;&#160;&#160;&#160;</title>
<polygon fill="orange" stroke="black" points="1021.91,-324 959.91,-324 959.91,-288 1021.91,-288 1021.91,-324"/>
<text text-anchor="middle" x="990.91" y="-303.8" font-family="Times,serif" font-size="9.00">Sequence</text>
</g>
<!-- Fallback &#160;&#160;&#160;&#160;&#160;&#160;&#160;&#45;&gt;Sequence &#160;&#160;&#160;&#160;&#160;&#160; -->
<g id="edge32" class="edge">
<title>Fallback &#160;&#160;&#160;&#160;&#160;&#160;&#160;&#45;&gt;Sequence &#160;&#160;&#160;&#160;&#160;&#160;</title>
<path fill="none" stroke="black" d="M900.51,-363.5C915.91,-353.88 936.99,-340.7 954.92,-329.5"/>
<polygon fill="black" stroke="black" points="956.8,-332.45 963.43,-324.18 953.09,-326.51 956.8,-332.45"/>
</g>
<!-- Fallback &#160;&#160;&#160;&#160;&#160;&#160;&#160;&#160; -->
<g id="node34" class="node">
<title>Fallback &#160;&#160;&#160;&#160;&#160;&#160;&#160;&#160;</title>
<polygon fill="cyan" stroke="black" points="996.91,-226.54 996.91,-241.46 976.41,-252 947.42,-252 926.92,-241.46 926.92,-226.54 947.42,-216 976.41,-216 996.91,-226.54"/>
<text text-anchor="middle" x="961.91" y="-231.8" font-family="Times,serif" font-size="9.00">Fallback</text>
</g>
<!-- Sequence &#160;&#160;&#160;&#160;&#160;&#160;&#45;&gt;Fallback &#160;&#160;&#160;&#160;&#160;&#160;&#160;&#160; -->
<g id="edge33" class="edge">
<title>Sequence &#160;&#160;&#160;&#160;&#160;&#160;&#45;&gt;Fallback &#160;&#160;&#160;&#160;&#160;&#160;&#160;&#160;</title>
<path fill="none" stroke="black" d="M983.75,-287.7C980.48,-279.81 976.54,-270.3 972.91,-261.55"/>
<polygon fill="black" stroke="black" points="976.06,-260 969,-252.1 969.59,-262.68 976.06,-260"/>
</g>
<!-- pick0 YellowBox -->
<g id="node37" class="node">
<title>pick0 YellowBox</title>
<ellipse fill="lightgray" stroke="black" cx="1067.91" cy="-234" rx="53.23" ry="18"/>
<text text-anchor="middle" x="1067.91" y="-231.8" font-family="Times,serif" font-size="9.00">pick0 YellowBox</text>
</g>
<!-- Sequence &#160;&#160;&#160;&#160;&#160;&#160;&#45;&gt;pick0 YellowBox -->
<g id="edge36" class="edge">
<title>Sequence &#160;&#160;&#160;&#160;&#160;&#160;&#45;&gt;pick0 YellowBox</title>
<path fill="none" stroke="black" d="M1009.95,-287.7C1019.84,-278.7 1032.06,-267.6 1042.72,-257.9"/>
<polygon fill="black" stroke="black" points="1045.11,-260.46 1050.16,-251.14 1040.4,-255.28 1045.11,-260.46"/>
</g>
<!-- gripper_state open &#160; -->
<g id="node35" class="node">
<title>gripper_state open &#160;</title>
<ellipse fill="lightgray" stroke="black" cx="899.91" cy="-162" rx="60.09" ry="18"/>
<text text-anchor="middle" x="899.91" y="-159.8" font-family="Times,serif" font-size="9.00">gripper_state open</text>
</g>
<!-- Fallback &#160;&#160;&#160;&#160;&#160;&#160;&#160;&#160;&#45;&gt;gripper_state open &#160; -->
<g id="edge34" class="edge">
<title>Fallback &#160;&#160;&#160;&#160;&#160;&#160;&#160;&#160;&#45;&gt;gripper_state open &#160;</title>
<path fill="none" stroke="black" d="M946.91,-216.05C939.29,-207.46 929.9,-196.86 921.52,-187.4"/>
<polygon fill="black" stroke="black" points="924.04,-184.95 914.79,-179.79 918.8,-189.6 924.04,-184.95"/>
</g>
<!-- open_gripper &#160; -->
<g id="node36" class="node">
<title>open_gripper &#160;</title>
<ellipse fill="lightgray" stroke="black" cx="1023.91" cy="-162" rx="45.72" ry="18"/>
<text text-anchor="middle" x="1023.91" y="-159.8" font-family="Times,serif" font-size="9.00">open_gripper</text>
</g>
<!-- Fallback &#160;&#160;&#160;&#160;&#160;&#160;&#160;&#160;&#45;&gt;open_gripper &#160; -->
<g id="edge35" class="edge">
<title>Fallback &#160;&#160;&#160;&#160;&#160;&#160;&#160;&#160;&#45;&gt;open_gripper &#160;</title>
<path fill="none" stroke="black" d="M976.92,-216.05C984.65,-207.33 994.2,-196.54 1002.67,-186.98"/>
<polygon fill="black" stroke="black" points="1005.46,-189.11 1009.47,-179.31 1000.22,-184.47 1005.46,-189.11"/>
</g>
<!-- object_at GreenBox [0.0, 0.0, 0.22] 0.02 YellowBox -->
<g id="node40" class="node">
<title>object_at GreenBox [0.0, 0.0, 0.22] 0.02 YellowBox</title>
<ellipse fill="lightgray" stroke="black" cx="1103.91" cy="-450" rx="146.79" ry="18"/>
<text text-anchor="middle" x="1103.91" y="-447.8" font-family="Times,serif" font-size="9.00">object_at GreenBox [0.0, 0.0, 0.22] 0.02 YellowBox</text>
</g>
<!-- Fallback &#160;&#160;&#160;&#160;&#160;&#160;&#160;&#160;&#160;&#45;&gt;object_at GreenBox [0.0, 0.0, 0.22] 0.02 YellowBox -->
<g id="edge39" class="edge">
<title>Fallback &#160;&#160;&#160;&#160;&#160;&#160;&#160;&#160;&#160;&#45;&gt;object_at GreenBox [0.0, 0.0, 0.22] 0.02 YellowBox</title>
<path fill="none" stroke="black" d="M1103.91,-503.7C1103.91,-495.98 1103.91,-486.71 1103.91,-478.11"/>
<polygon fill="black" stroke="black" points="1107.42,-478.1 1103.91,-468.1 1100.42,-478.1 1107.42,-478.1"/>
</g>
<!-- Sequence &#160;&#160;&#160;&#160;&#160;&#160;&#160; -->
<g id="node41" class="node">
<title>Sequence &#160;&#160;&#160;&#160;&#160;&#160;&#160;</title>
<polygon fill="orange" stroke="black" points="1330.91,-468 1268.91,-468 1268.91,-432 1330.91,-432 1330.91,-468"/>
<text text-anchor="middle" x="1299.91" y="-447.8" font-family="Times,serif" font-size="9.00">Sequence</text>
</g>
<!-- Fallback &#160;&#160;&#160;&#160;&#160;&#160;&#160;&#160;&#160;&#45;&gt;Sequence &#160;&#160;&#160;&#160;&#160;&#160;&#160; -->
<g id="edge40" class="edge">
<title>Fallback &#160;&#160;&#160;&#160;&#160;&#160;&#160;&#160;&#160;&#45;&gt;Sequence &#160;&#160;&#160;&#160;&#160;&#160;&#160;</title>
<path fill="none" stroke="black" d="M1133.47,-511.68C1163.11,-502.18 1210.21,-486.66 1259.09,-468.19"/>
<polygon fill="black" stroke="black" points="1260.46,-471.42 1268.56,-464.59 1257.97,-464.87 1260.46,-471.42"/>
</g>
<!-- Fallback &#160;&#160;&#160;&#160;&#160;&#160;&#160;&#160;&#160;&#160; -->
<g id="node42" class="node">
<title>Fallback &#160;&#160;&#160;&#160;&#160;&#160;&#160;&#160;&#160;&#160;</title>
<polygon fill="cyan" stroke="black" points="1322.91,-370.54 1322.91,-385.46 1302.41,-396 1273.42,-396 1252.92,-385.46 1252.92,-370.54 1273.42,-360 1302.41,-360 1322.91,-370.54"/>
<text text-anchor="middle" x="1287.91" y="-375.8" font-family="Times,serif" font-size="9.00">Fallback</text>
</g>
<!-- Sequence &#160;&#160;&#160;&#160;&#160;&#160;&#160;&#45;&gt;Fallback &#160;&#160;&#160;&#160;&#160;&#160;&#160;&#160;&#160;&#160; -->
<g id="edge41" class="edge">
<title>Sequence &#160;&#160;&#160;&#160;&#160;&#160;&#160;&#45;&gt;Fallback &#160;&#160;&#160;&#160;&#160;&#160;&#160;&#160;&#160;&#160;</title>
<path fill="none" stroke="black" d="M1296.95,-431.7C1295.63,-423.98 1294.04,-414.71 1292.56,-406.11"/>
<polygon fill="black" stroke="black" points="1295.99,-405.37 1290.85,-396.1 1289.09,-406.55 1295.99,-405.37"/>
</g>
<!-- place0 GreenBox [0.0, 0.0, 0.22] 0.02 YellowBox -->
<g id="node49" class="node">
<title>place0 GreenBox [0.0, 0.0, 0.22] 0.02 YellowBox</title>
<ellipse fill="lightgray" stroke="black" cx="1480.91" cy="-378" rx="140.09" ry="18"/>
<text text-anchor="middle" x="1480.91" y="-375.8" font-family="Times,serif" font-size="9.00">place0 GreenBox [0.0, 0.0, 0.22] 0.02 YellowBox</text>
</g>
<!-- Sequence &#160;&#160;&#160;&#160;&#160;&#160;&#160;&#45;&gt;place0 GreenBox [0.0, 0.0, 0.22] 0.02 YellowBox -->
<g id="edge48" class="edge">
<title>Sequence &#160;&#160;&#160;&#160;&#160;&#160;&#160;&#45;&gt;place0 GreenBox [0.0, 0.0, 0.22] 0.02 YellowBox</title>
<path fill="none" stroke="black" d="M1331.31,-435.51C1334.21,-434.31 1337.11,-433.12 1339.91,-432 1368.57,-420.53 1400.76,-408.38 1427.15,-398.6"/>
<polygon fill="black" stroke="black" points="1428.42,-401.86 1436.59,-395.11 1426,-395.3 1428.42,-401.86"/>
</g>
<!-- in_gripper GreenBox  -->
<g id="node43" class="node">
<title>in_gripper GreenBox </title>
<ellipse fill="lightgray" stroke="black" cx="1248.91" cy="-306" rx="65.64" ry="18"/>
<text text-anchor="middle" x="1248.91" y="-303.8" font-family="Times,serif" font-size="9.00">in_gripper GreenBox</text>
</g>
<!-- Fallback &#160;&#160;&#160;&#160;&#160;&#160;&#160;&#160;&#160;&#160;&#45;&gt;in_gripper GreenBox  -->
<g id="edge42" class="edge">
<title>Fallback &#160;&#160;&#160;&#160;&#160;&#160;&#160;&#160;&#160;&#160;&#45;&gt;in_gripper GreenBox </title>
<path fill="none" stroke="black" d="M1278.27,-359.7C1273.79,-351.64 1268.36,-341.89 1263.39,-332.98"/>
<polygon fill="black" stroke="black" points="1266.37,-331.14 1258.44,-324.1 1260.25,-334.54 1266.37,-331.14"/>
</g>
<!-- Sequence &#160;&#160;&#160;&#160;&#160;&#160;&#160;&#160; -->
<g id="node44" class="node">
<title>Sequence &#160;&#160;&#160;&#160;&#160;&#160;&#160;&#160;</title>
<polygon fill="orange" stroke="black" points="1394.91,-324 1332.91,-324 1332.91,-288 1394.91,-288 1394.91,-324"/>
<text text-anchor="middle" x="1363.91" y="-303.8" font-family="Times,serif" font-size="9.00">Sequence</text>
</g>
<!-- Fallback &#160;&#160;&#160;&#160;&#160;&#160;&#160;&#160;&#160;&#160;&#45;&gt;Sequence &#160;&#160;&#160;&#160;&#160;&#160;&#160;&#160; -->
<g id="edge43" class="edge">
<title>Fallback &#160;&#160;&#160;&#160;&#160;&#160;&#160;&#160;&#160;&#160;&#45;&gt;Sequence &#160;&#160;&#160;&#160;&#160;&#160;&#160;&#160;</title>
<path fill="none" stroke="black" d="M1305.16,-361.12C1314.82,-352.22 1327.05,-340.95 1337.85,-331"/>
<polygon fill="black" stroke="black" points="1340.43,-333.39 1345.41,-324.04 1335.68,-328.24 1340.43,-333.39"/>
</g>
<!-- Fallback &#160;&#160;&#160;&#160;&#160;&#160;&#160;&#160;&#160;&#160;&#160; -->
<g id="node45" class="node">
<title>Fallback &#160;&#160;&#160;&#160;&#160;&#160;&#160;&#160;&#160;&#160;&#160;</title>
<polygon fill="cyan" stroke="black" points="1345.91,-226.54 1345.91,-241.46 1325.41,-252 1296.42,-252 1275.92,-241.46 1275.92,-226.54 1296.42,-216 1325.41,-216 1345.91,-226.54"/>
<text text-anchor="middle" x="1310.91" y="-231.8" font-family="Times,serif" font-size="9.00">Fallback</text>
</g>
<!-- Sequence &#160;&#160;&#160;&#160;&#160;&#160;&#160;&#160;&#45;&gt;Fallback &#160;&#160;&#160;&#160;&#160;&#160;&#160;&#160;&#160;&#160;&#160; -->
<g id="edge44" class="edge">
<title>Sequence &#160;&#160;&#160;&#160;&#160;&#160;&#160;&#160;&#45;&gt;Fallback &#160;&#160;&#160;&#160;&#160;&#160;&#160;&#160;&#160;&#160;&#160;</title>
<path fill="none" stroke="black" d="M1350.81,-287.7C1344.52,-279.39 1336.87,-269.28 1329.95,-260.14"/>
<polygon fill="black" stroke="black" points="1332.69,-257.96 1323.87,-252.1 1327.11,-262.19 1332.69,-257.96"/>
</g>
<!-- pick0 GreenBox  -->
<g id="node48" class="node">
<title>pick0 GreenBox </title>
<ellipse fill="lightgray" stroke="black" cx="1416.91" cy="-234" rx="52.58" ry="18"/>
<text text-anchor="middle" x="1416.91" y="-231.8" font-family="Times,serif" font-size="9.00">pick0 GreenBox</text>
</g>
<!-- Sequence &#160;&#160;&#160;&#160;&#160;&#160;&#160;&#160;&#45;&gt;pick0 GreenBox  -->
<g id="edge47" class="edge">
<title>Sequence &#160;&#160;&#160;&#160;&#160;&#160;&#160;&#160;&#45;&gt;pick0 GreenBox </title>
<path fill="none" stroke="black" d="M1377.02,-287.7C1383.4,-279.27 1391.19,-268.97 1398.19,-259.73"/>
<polygon fill="black" stroke="black" points="1401.08,-261.71 1404.33,-251.62 1395.5,-257.48 1401.08,-261.71"/>
</g>
<!-- gripper_state open &#160;&#160; -->
<g id="node46" class="node">
<title>gripper_state open &#160;&#160;</title>
<ellipse fill="lightgray" stroke="black" cx="1248.91" cy="-162" rx="60.09" ry="18"/>
<text text-anchor="middle" x="1248.91" y="-159.8" font-family="Times,serif" font-size="9.00">gripper_state open</text>
</g>
<!-- Fallback &#160;&#160;&#160;&#160;&#160;&#160;&#160;&#160;&#160;&#160;&#160;&#45;&gt;gripper_state open &#160;&#160; -->
<g id="edge45" class="edge">
<title>Fallback &#160;&#160;&#160;&#160;&#160;&#160;&#160;&#160;&#160;&#160;&#160;&#45;&gt;gripper_state open &#160;&#160;</title>
<path fill="none" stroke="black" d="M1295.91,-216.05C1288.29,-207.46 1278.9,-196.86 1270.52,-187.4"/>
<polygon fill="black" stroke="black" points="1273.04,-184.95 1263.79,-179.79 1267.8,-189.6 1273.04,-184.95"/>
</g>
<!-- open_gripper &#160;&#160; -->
<g id="node47" class="node">
<title>open_gripper &#160;&#160;</title>
<ellipse fill="lightgray" stroke="black" cx="1372.91" cy="-162" rx="45.72" ry="18"/>
<text text-anchor="middle" x="1372.91" y="-159.8" font-family="Times,serif" font-size="9.00">open_gripper</text>
</g>
<!-- Fallback &#160;&#160;&#160;&#160;&#160;&#160;&#160;&#160;&#160;&#160;&#160;&#45;&gt;open_gripper &#160;&#160; -->
<g id="edge46" class="edge">
<title>Fallback &#160;&#160;&#160;&#160;&#160;&#160;&#160;&#160;&#160;&#160;&#160;&#45;&gt;open_gripper &#160;&#160;</title>
<path fill="none" stroke="black" d="M1325.92,-216.05C1333.65,-207.33 1343.2,-196.54 1351.67,-186.98"/>
<polygon fill="black" stroke="black" points="1354.46,-189.11 1358.47,-179.31 1349.22,-184.47 1354.46,-189.11"/>
</g>
<!-- object_at BlueBox [0.0, 0.0, 0.22] 0.02 GreenBox -->
<g id="node51" class="node">
<title>object_at BlueBox [0.0, 0.0, 0.22] 0.02 GreenBox</title>
<ellipse fill="lightgray" stroke="black" cx="1490.91" cy="-450" rx="142.06" ry="18"/>
<text text-anchor="middle" x="1490.91" y="-447.8" font-family="Times,serif" font-size="9.00">object_at BlueBox [0.0, 0.0, 0.22] 0.02 GreenBox</text>
</g>
<!-- Fallback &#160;&#160;&#160;&#160;&#160;&#160;&#160;&#160;&#160;&#160;&#160;&#160;&#45;&gt;object_at BlueBox [0.0, 0.0, 0.22] 0.02 GreenBox -->
<g id="edge50" class="edge">
<title>Fallback &#160;&#160;&#160;&#160;&#160;&#160;&#160;&#160;&#160;&#160;&#160;&#160;&#45;&gt;object_at BlueBox [0.0, 0.0, 0.22] 0.02 GreenBox</title>
<path fill="none" stroke="black" d="M1490.91,-503.7C1490.91,-495.98 1490.91,-486.71 1490.91,-478.11"/>
<polygon fill="black" stroke="black" points="1494.42,-478.1 1490.91,-468.1 1487.42,-478.1 1494.42,-478.1"/>
</g>
<!-- Sequence &#160;&#160;&#160;&#160;&#160;&#160;&#160;&#160;&#160; -->
<g id="node52" class="node">
<title>Sequence &#160;&#160;&#160;&#160;&#160;&#160;&#160;&#160;&#160;</title>
<polygon fill="orange" stroke="black" points="1712.91,-468 1650.91,-468 1650.91,-432 1712.91,-432 1712.91,-468"/>
<text text-anchor="middle" x="1681.91" y="-447.8" font-family="Times,serif" font-size="9.00">Sequence</text>
</g>
<!-- Fallback &#160;&#160;&#160;&#160;&#160;&#160;&#160;&#160;&#160;&#160;&#160;&#160;&#45;&gt;Sequence &#160;&#160;&#160;&#160;&#160;&#160;&#160;&#160;&#160; -->
<g id="edge51" class="edge">
<title>Fallback &#160;&#160;&#160;&#160;&#160;&#160;&#160;&#160;&#160;&#160;&#160;&#160;&#45;&gt;Sequence &#160;&#160;&#160;&#160;&#160;&#160;&#160;&#160;&#160;</title>
<path fill="none" stroke="black" d="M1520.07,-511.39C1548.72,-501.81 1593.86,-486.35 1641.08,-468.22"/>
<polygon fill="black" stroke="black" points="1642.49,-471.43 1650.55,-464.56 1639.96,-464.9 1642.49,-471.43"/>
</g>
<!-- Fallback &#160;&#160;&#160;&#160;&#160;&#160;&#160;&#160;&#160;&#160;&#160;&#160;&#160; -->
<g id="node53" class="node">
<title>Fallback &#160;&#160;&#160;&#160;&#160;&#160;&#160;&#160;&#160;&#160;&#160;&#160;&#160;</title>
<polygon fill="cyan" stroke="black" points="1713.91,-370.54 1713.91,-385.46 1693.41,-396 1664.42,-396 1643.92,-385.46 1643.92,-370.54 1664.42,-360 1693.41,-360 1713.91,-370.54"/>
<text text-anchor="middle" x="1678.91" y="-375.8" font-family="Times,serif" font-size="9.00">Fallback</text>
</g>
<!-- Sequence &#160;&#160;&#160;&#160;&#160;&#160;&#160;&#160;&#160;&#45;&gt;Fallback &#160;&#160;&#160;&#160;&#160;&#160;&#160;&#160;&#160;&#160;&#160;&#160;&#160; -->
<g id="edge52" class="edge">
<title>Sequence &#160;&#160;&#160;&#160;&#160;&#160;&#160;&#160;&#160;&#45;&gt;Fallback &#160;&#160;&#160;&#160;&#160;&#160;&#160;&#160;&#160;&#160;&#160;&#160;&#160;</title>
<path fill="none" stroke="black" d="M1681.17,-431.7C1680.84,-423.98 1680.45,-414.71 1680.08,-406.11"/>
<polygon fill="black" stroke="black" points="1683.57,-405.95 1679.65,-396.1 1676.58,-406.25 1683.57,-405.95"/>
</g>
<!-- place0 BlueBox [0.0, 0.0, 0.22] 0.02 GreenBox -->
<g id="node60" class="node">
<title>place0 BlueBox [0.0, 0.0, 0.22] 0.02 GreenBox</title>
<ellipse fill="lightgray" stroke="black" cx="1867.91" cy="-378" rx="135.85" ry="18"/>
<text text-anchor="middle" x="1867.91" y="-375.8" font-family="Times,serif" font-size="9.00">place0 BlueBox [0.0, 0.0, 0.22] 0.02 GreenBox</text>
</g>
<!-- Sequence &#160;&#160;&#160;&#160;&#160;&#160;&#160;&#160;&#160;&#45;&gt;place0 BlueBox [0.0, 0.0, 0.22] 0.02 GreenBox -->
<g id="edge59" class="edge">
<title>Sequence &#160;&#160;&#160;&#160;&#160;&#160;&#160;&#160;&#160;&#45;&gt;place0 BlueBox [0.0, 0.0, 0.22] 0.02 GreenBox</title>
<path fill="none" stroke="black" d="M1713.05,-437.28C1741,-426.76 1782.61,-411.1 1815.66,-398.67"/>
<polygon fill="black" stroke="black" points="1817.05,-401.88 1825.17,-395.09 1814.58,-395.33 1817.05,-401.88"/>
</g>
<!-- in_gripper BlueBox  -->
<g id="node54" class="node">
<title>in_gripper BlueBox </title>
<ellipse fill="lightgray" stroke="black" cx="1623.91" cy="-306" rx="61.55" ry="18"/>
<text text-anchor="middle" x="1623.91" y="-303.8" font-family="Times,serif" font-size="9.00">in_gripper BlueBox</text>
</g>
<!-- Fallback &#160;&#160;&#160;&#160;&#160;&#160;&#160;&#160;&#160;&#160;&#160;&#160;&#160;&#45;&gt;in_gripper BlueBox  -->
<g id="edge53" class="edge">
<title>Fallback &#160;&#160;&#160;&#160;&#160;&#160;&#160;&#160;&#160;&#160;&#160;&#160;&#160;&#45;&gt;in_gripper BlueBox </title>
<path fill="none" stroke="black" d="M1665.32,-359.7C1658.69,-351.27 1650.61,-340.97 1643.35,-331.73"/>
<polygon fill="black" stroke="black" points="1645.91,-329.32 1636.98,-323.62 1640.4,-333.65 1645.91,-329.32"/>
</g>
<!-- Sequence &#160;&#160;&#160;&#160;&#160;&#160;&#160;&#160;&#160;&#160; -->
<g id="node55" class="node">
<title>Sequence &#160;&#160;&#160;&#160;&#160;&#160;&#160;&#160;&#160;&#160;</title>
<polygon fill="orange" stroke="black" points="1765.91,-324 1703.91,-324 1703.91,-288 1765.91,-288 1765.91,-324"/>
<text text-anchor="middle" x="1734.91" y="-303.8" font-family="Times,serif" font-size="9.00">Sequence</text>
</g>
<!-- Fallback &#160;&#160;&#160;&#160;&#160;&#160;&#160;&#160;&#160;&#160;&#160;&#160;&#160;&#45;&gt;Sequence &#160;&#160;&#160;&#160;&#160;&#160;&#160;&#160;&#160;&#160; -->
<g id="edge54" class="edge">
<title>Fallback &#160;&#160;&#160;&#160;&#160;&#160;&#160;&#160;&#160;&#160;&#160;&#160;&#160;&#45;&gt;Sequence &#160;&#160;&#160;&#160;&#160;&#160;&#160;&#160;&#160;&#160;</title>
<path fill="none" stroke="black" d="M1692.76,-359.7C1699.4,-351.39 1707.49,-341.28 1714.8,-332.14"/>
<polygon fill="black" stroke="black" points="1717.72,-334.1 1721.23,-324.1 1712.25,-329.73 1717.72,-334.1"/>
</g>
<!-- Fallback &#160;&#160;&#160;&#160;&#160;&#160;&#160;&#160;&#160;&#160;&#160;&#160;&#160;&#160; -->
<g id="node56" class="node">
<title>Fallback &#160;&#160;&#160;&#160;&#160;&#160;&#160;&#160;&#160;&#160;&#160;&#160;&#160;&#160;</title>
<polygon fill="cyan" stroke="black" points="1718.91,-226.54 1718.91,-241.46 1698.41,-252 1669.42,-252 1648.92,-241.46 1648.92,-226.54 1669.42,-216 1698.41,-216 1718.91,-226.54"/>
<text text-anchor="middle" x="1683.91" y="-231.8" font-family="Times,serif" font-size="9.00">Fallback</text>
</g>
<!-- Sequence &#160;&#160;&#160;&#160;&#160;&#160;&#160;&#160;&#160;&#160;&#45;&gt;Fallback &#160;&#160;&#160;&#160;&#160;&#160;&#160;&#160;&#160;&#160;&#160;&#160;&#160;&#160; -->
<g id="edge55" class="edge">
<title>Sequence &#160;&#160;&#160;&#160;&#160;&#160;&#160;&#160;&#160;&#160;&#45;&gt;Fallback &#160;&#160;&#160;&#160;&#160;&#160;&#160;&#160;&#160;&#160;&#160;&#160;&#160;&#160;</title>
<path fill="none" stroke="black" d="M1722.31,-287.7C1716.32,-279.47 1709.04,-269.48 1702.44,-260.42"/>
<polygon fill="black" stroke="black" points="1705.09,-258.13 1696.38,-252.1 1699.44,-262.25 1705.09,-258.13"/>
</g>
<!-- pick0 BlueBox  -->
<g id="node59" class="node">
<title>pick0 BlueBox </title>
<ellipse fill="lightgray" stroke="black" cx="1784.91" cy="-234" rx="47.84" ry="18"/>
<text text-anchor="middle" x="1784.91" y="-231.8" font-family="Times,serif" font-size="9.00">pick0 BlueBox</text>
</g>
<!-- Sequence &#160;&#160;&#160;&#160;&#160;&#160;&#160;&#160;&#160;&#160;&#45;&gt;pick0 BlueBox  -->
<g id="edge58" class="edge">
<title>Sequence &#160;&#160;&#160;&#160;&#160;&#160;&#160;&#160;&#160;&#160;&#45;&gt;pick0 BlueBox </title>
<path fill="none" stroke="black" d="M1747.27,-287.7C1753.24,-279.35 1760.5,-269.18 1767.05,-260.02"/>
<polygon fill="black" stroke="black" points="1770.08,-261.79 1773.04,-251.62 1764.38,-257.73 1770.08,-261.79"/>
</g>
<!-- gripper_state open &#160;&#160;&#160; -->
<g id="node57" class="node">
<title>gripper_state open &#160;&#160;&#160;</title>
<ellipse fill="lightgray" stroke="black" cx="1621.91" cy="-162" rx="60.09" ry="18"/>
<text text-anchor="middle" x="1621.91" y="-159.8" font-family="Times,serif" font-size="9.00">gripper_state open</text>
</g>
<!-- Fallback &#160;&#160;&#160;&#160;&#160;&#160;&#160;&#160;&#160;&#160;&#160;&#160;&#160;&#160;&#45;&gt;gripper_state open &#160;&#160;&#160; -->
<g id="edge56" class="edge">
<title>Fallback &#160;&#160;&#160;&#160;&#160;&#160;&#160;&#160;&#160;&#160;&#160;&#160;&#160;&#160;&#45;&gt;gripper_state open &#160;&#160;&#160;</title>
<path fill="none" stroke="black" d="M1668.91,-216.05C1661.29,-207.46 1651.9,-196.86 1643.52,-187.4"/>
<polygon fill="black" stroke="black" points="1646.04,-184.95 1636.79,-179.79 1640.8,-189.6 1646.04,-184.95"/>
</g>
<!-- open_gripper &#160;&#160;&#160; -->
<g id="node58" class="node">
<title>open_gripper &#160;&#160;&#160;</title>
<ellipse fill="lightgray" stroke="black" cx="1745.91" cy="-162" rx="45.72" ry="18"/>
<text text-anchor="middle" x="1745.91" y="-159.8" font-family="Times,serif" font-size="9.00">open_gripper</text>
</g>
<!-- Fallback &#160;&#160;&#160;&#160;&#160;&#160;&#160;&#160;&#160;&#160;&#160;&#160;&#160;&#160;&#45;&gt;open_gripper &#160;&#160;&#160; -->
<g id="edge57" class="edge">
<title>Fallback &#160;&#160;&#160;&#160;&#160;&#160;&#160;&#160;&#160;&#160;&#160;&#160;&#160;&#160;&#45;&gt;open_gripper &#160;&#160;&#160;</title>
<path fill="none" stroke="black" d="M1698.92,-216.05C1706.65,-207.33 1716.2,-196.54 1724.67,-186.98"/>
<polygon fill="black" stroke="black" points="1727.46,-189.11 1731.47,-179.31 1722.22,-184.47 1727.46,-189.11"/>
</g>
</g>
</svg>
