<?xml version="1.0" encoding="UTF-8" standalone="no"?>
<!DOCTYPE svg PUBLIC "-//W3C//DTD SVG 1.1//EN"
 "http://www.w3.org/Graphics/SVG/1.1/DTD/svg11.dtd">
<!-- Generated by graphviz version 2.43.0 (0)
 -->
<!-- Title: pastafarianism Pages: 1 -->
<svg width="1460pt" height="476pt"
 viewBox="0.00 0.00 1460.35 476.00" xmlns="http://www.w3.org/2000/svg" xmlns:xlink="http://www.w3.org/1999/xlink">
<g id="graph0" class="graph" transform="scale(1 1) rotate(0) translate(4 472)">
<title>pastafarianism</title>
<polygon fill="white" stroke="transparent" points="-4,4 -4,-472 1456.35,-472 1456.35,4 -4,4"/>
<!-- Sequence -->
<g id="node1" class="node">
<title>Sequence</title>
<polygon fill="orange" stroke="black" points="670.8,-468 608.8,-468 608.8,-432 670.8,-432 670.8,-468"/>
<text text-anchor="middle" x="639.8" y="-447.8" font-family="Times,serif" font-size="9.00">Sequence</text>
</g>
<!-- Fallback -->
<g id="node2" class="node">
<title>Fallback</title>
<polygon fill="cyan" stroke="black" points="379.79,-370.54 379.79,-385.46 359.3,-396 330.31,-396 309.81,-385.46 309.81,-370.54 330.31,-360 359.3,-360 379.79,-370.54"/>
<text text-anchor="middle" x="344.8" y="-375.8" font-family="Times,serif" font-size="9.00">Fallback</text>
</g>
<!-- Sequence&#45;&gt;Fallback -->
<g id="edge1" class="edge">
<title>Sequence&#45;&gt;Fallback</title>
<path fill="none" stroke="black" d="M608.79,-441.64C555.79,-429.06 447.7,-403.42 387.57,-389.15"/>
<polygon fill="black" stroke="black" points="388.18,-385.69 377.64,-386.79 386.56,-392.51 388.18,-385.69"/>
</g>
<!-- Fallback &#160;&#160; -->
<g id="node13" class="node">
<title>Fallback &#160;&#160;</title>
<polygon fill="cyan" stroke="black" points="674.79,-370.54 674.79,-385.46 654.3,-396 625.31,-396 604.81,-385.46 604.81,-370.54 625.31,-360 654.3,-360 674.79,-370.54"/>
<text text-anchor="middle" x="639.8" y="-375.8" font-family="Times,serif" font-size="9.00">Fallback</text>
</g>
<!-- Sequence&#45;&gt;Fallback &#160;&#160; -->
<g id="edge12" class="edge">
<title>Sequence&#45;&gt;Fallback &#160;&#160;</title>
<path fill="none" stroke="black" d="M639.8,-431.7C639.8,-423.98 639.8,-414.71 639.8,-406.11"/>
<polygon fill="black" stroke="black" points="643.3,-406.1 639.8,-396.1 636.3,-406.1 643.3,-406.1"/>
</g>
<!-- Fallback &#160;&#160;&#160;&#160;&#160; -->
<g id="node24" class="node">
<title>Fallback &#160;&#160;&#160;&#160;&#160;</title>
<polygon fill="cyan" stroke="black" points="993.79,-370.54 993.79,-385.46 973.3,-396 944.31,-396 923.81,-385.46 923.81,-370.54 944.31,-360 973.3,-360 993.79,-370.54"/>
<text text-anchor="middle" x="958.8" y="-375.8" font-family="Times,serif" font-size="9.00">Fallback</text>
</g>
<!-- Sequence&#45;&gt;Fallback &#160;&#160;&#160;&#160;&#160; -->
<g id="edge23" class="edge">
<title>Sequence&#45;&gt;Fallback &#160;&#160;&#160;&#160;&#160;</title>
<path fill="none" stroke="black" d="M670.97,-442.16C728.11,-429.62 849.77,-402.92 915.13,-388.58"/>
<polygon fill="black" stroke="black" points="916.1,-391.95 925.12,-386.39 914.6,-385.12 916.1,-391.95"/>
</g>
<!-- object_at BlueBox [0.0, 0.0, 0.175] 0.02 KittingBox -->
<g id="node3" class="node">
<title>object_at BlueBox [0.0, 0.0, 0.175] 0.02 KittingBox</title>
<ellipse fill="lightgray" stroke="black" cx="147.8" cy="-306" rx="147.6" ry="18"/>
<text text-anchor="middle" x="147.8" y="-303.8" font-family="Times,serif" font-size="9.00">object_at BlueBox [0.0, 0.0, 0.175] 0.02 KittingBox</text>
</g>
<!-- Fallback&#45;&gt;object_at BlueBox [0.0, 0.0, 0.175] 0.02 KittingBox -->
<g id="edge2" class="edge">
<title>Fallback&#45;&gt;object_at BlueBox [0.0, 0.0, 0.175] 0.02 KittingBox</title>
<path fill="none" stroke="black" d="M316.58,-366.97C287.08,-356.49 240.05,-339.78 203.11,-326.65"/>
<polygon fill="black" stroke="black" points="204.07,-323.28 193.47,-323.23 201.72,-329.87 204.07,-323.28"/>
</g>
<!-- Sequence  -->
<g id="node4" class="node">
<title>Sequence </title>
<polygon fill="orange" stroke="black" points="375.8,-324 313.8,-324 313.8,-288 375.8,-288 375.8,-324"/>
<text text-anchor="middle" x="344.8" y="-303.8" font-family="Times,serif" font-size="9.00">Sequence</text>
</g>
<!-- Fallback&#45;&gt;Sequence  -->
<g id="edge3" class="edge">
<title>Fallback&#45;&gt;Sequence </title>
<path fill="none" stroke="black" d="M344.8,-359.7C344.8,-351.98 344.8,-342.71 344.8,-334.11"/>
<polygon fill="black" stroke="black" points="348.3,-334.1 344.8,-324.1 341.3,-334.1 348.3,-334.1"/>
</g>
<!-- Fallback  -->
<g id="node5" class="node">
<title>Fallback </title>
<polygon fill="cyan" stroke="black" points="188.79,-226.54 188.79,-241.46 168.3,-252 139.31,-252 118.81,-241.46 118.81,-226.54 139.31,-216 168.3,-216 188.79,-226.54"/>
<text text-anchor="middle" x="153.8" y="-231.8" font-family="Times,serif" font-size="9.00">Fallback</text>
</g>
<!-- Sequence &#45;&gt;Fallback  -->
<g id="edge4" class="edge">
<title>Sequence &#45;&gt;Fallback </title>
<path fill="none" stroke="black" d="M313.45,-291.41C310.54,-290.22 307.62,-289.07 304.8,-288 257.9,-270.17 244.99,-269.05 197.8,-252 195.29,-251.09 192.7,-250.14 190.1,-249.17"/>
<polygon fill="black" stroke="black" points="191.31,-245.89 180.72,-245.62 188.84,-252.43 191.31,-245.89"/>
</g>
<!-- place0 BlueBox [0.0, 0.0, 0.175] 0.02 KittingBox -->
<g id="node12" class="node">
<title>place0 BlueBox [0.0, 0.0, 0.175] 0.02 KittingBox</title>
<ellipse fill="lightgray" stroke="black" cx="347.8" cy="-234" rx="141.4" ry="18"/>
<text text-anchor="middle" x="347.8" y="-231.8" font-family="Times,serif" font-size="9.00">place0 BlueBox [0.0, 0.0, 0.175] 0.02 KittingBox</text>
</g>
<!-- Sequence &#45;&gt;place0 BlueBox [0.0, 0.0, 0.175] 0.02 KittingBox -->
<g id="edge11" class="edge">
<title>Sequence &#45;&gt;place0 BlueBox [0.0, 0.0, 0.175] 0.02 KittingBox</title>
<path fill="none" stroke="black" d="M345.54,-287.7C345.87,-279.98 346.27,-270.71 346.64,-262.11"/>
<polygon fill="black" stroke="black" points="350.14,-262.25 347.07,-252.1 343.14,-261.95 350.14,-262.25"/>
</g>
<!-- in_gripper BlueBox -->
<g id="node6" class="node">
<title>in_gripper BlueBox</title>
<ellipse fill="lightgray" stroke="black" cx="121.8" cy="-162" rx="61.55" ry="18"/>
<text text-anchor="middle" x="121.8" y="-159.8" font-family="Times,serif" font-size="9.00">in_gripper BlueBox</text>
</g>
<!-- Fallback &#45;&gt;in_gripper BlueBox -->
<g id="edge5" class="edge">
<title>Fallback &#45;&gt;in_gripper BlueBox</title>
<path fill="none" stroke="black" d="M145.89,-215.7C142.25,-207.73 137.85,-198.1 133.81,-189.26"/>
<polygon fill="black" stroke="black" points="136.96,-187.74 129.62,-180.1 130.6,-190.65 136.96,-187.74"/>
</g>
<!-- Sequence &#160; -->
<g id="node7" class="node">
<title>Sequence &#160;</title>
<polygon fill="orange" stroke="black" points="263.8,-180 201.8,-180 201.8,-144 263.8,-144 263.8,-180"/>
<text text-anchor="middle" x="232.8" y="-159.8" font-family="Times,serif" font-size="9.00">Sequence</text>
</g>
<!-- Fallback &#45;&gt;Sequence &#160; -->
<g id="edge6" class="edge">
<title>Fallback &#45;&gt;Sequence &#160;</title>
<path fill="none" stroke="black" d="M171.33,-217.46C181.45,-208.5 194.39,-197.03 205.79,-186.93"/>
<polygon fill="black" stroke="black" points="208.21,-189.46 213.38,-180.21 203.57,-184.22 208.21,-189.46"/>
</g>
<!-- Fallback &#160; -->
<g id="node8" class="node">
<title>Fallback &#160;</title>
<polygon fill="cyan" stroke="black" points="249.79,-82.54 249.79,-97.46 229.3,-108 200.31,-108 179.81,-97.46 179.81,-82.54 200.31,-72 229.3,-72 249.79,-82.54"/>
<text text-anchor="middle" x="214.8" y="-87.8" font-family="Times,serif" font-size="9.00">Fallback</text>
</g>
<!-- Sequence &#160;&#45;&gt;Fallback &#160; -->
<g id="edge7" class="edge">
<title>Sequence &#160;&#45;&gt;Fallback &#160;</title>
<path fill="none" stroke="black" d="M228.35,-143.7C226.35,-135.9 223.93,-126.51 221.7,-117.83"/>
<polygon fill="black" stroke="black" points="225.08,-116.92 219.2,-108.1 218.3,-118.66 225.08,-116.92"/>
</g>
<!-- pick0 BlueBox -->
<g id="node11" class="node">
<title>pick0 BlueBox</title>
<ellipse fill="lightgray" stroke="black" cx="315.8" cy="-90" rx="47.84" ry="18"/>
<text text-anchor="middle" x="315.8" y="-87.8" font-family="Times,serif" font-size="9.00">pick0 BlueBox</text>
</g>
<!-- Sequence &#160;&#45;&gt;pick0 BlueBox -->
<g id="edge10" class="edge">
<title>Sequence &#160;&#45;&gt;pick0 BlueBox</title>
<path fill="none" stroke="black" d="M253.32,-143.7C264.24,-134.49 277.79,-123.06 289.48,-113.2"/>
<polygon fill="black" stroke="black" points="291.83,-115.79 297.22,-106.67 287.32,-110.44 291.83,-115.79"/>
</g>
<!-- gripper_state open -->
<g id="node9" class="node">
<title>gripper_state open</title>
<ellipse fill="lightgray" stroke="black" cx="130.8" cy="-18" rx="60.09" ry="18"/>
<text text-anchor="middle" x="130.8" y="-15.8" font-family="Times,serif" font-size="9.00">gripper_state open</text>
</g>
<!-- Fallback &#160;&#45;&gt;gripper_state open -->
<g id="edge8" class="edge">
<title>Fallback &#160;&#45;&gt;gripper_state open</title>
<path fill="none" stroke="black" d="M196.57,-73.81C185.33,-64.44 170.7,-52.25 158.1,-41.75"/>
<polygon fill="black" stroke="black" points="160.08,-38.85 150.16,-35.13 155.6,-44.22 160.08,-38.85"/>
</g>
<!-- open_gripper -->
<g id="node10" class="node">
<title>open_gripper</title>
<ellipse fill="lightgray" stroke="black" cx="254.8" cy="-18" rx="45.72" ry="18"/>
<text text-anchor="middle" x="254.8" y="-15.8" font-family="Times,serif" font-size="9.00">open_gripper</text>
</g>
<!-- Fallback &#160;&#45;&gt;open_gripper -->
<g id="edge9" class="edge">
<title>Fallback &#160;&#45;&gt;open_gripper</title>
<path fill="none" stroke="black" d="M224.69,-71.7C229.36,-63.52 235.03,-53.6 240.18,-44.58"/>
<polygon fill="black" stroke="black" points="243.38,-46.04 245.3,-35.62 237.3,-42.57 243.38,-46.04"/>
</g>
<!-- object_at YellowBox [&#45;0.12, 0.0, 0.12] 0.02 BlueBox -->
<g id="node14" class="node">
<title>object_at YellowBox [&#45;0.12, 0.0, 0.12] 0.02 BlueBox</title>
<ellipse fill="lightgray" stroke="black" cx="541.8" cy="-306" rx="147.6" ry="18"/>
<text text-anchor="middle" x="541.8" y="-303.8" font-family="Times,serif" font-size="9.00">object_at YellowBox [&#45;0.12, 0.0, 0.12] 0.02 BlueBox</text>
</g>
<!-- Fallback &#160;&#160;&#45;&gt;object_at YellowBox [&#45;0.12, 0.0, 0.12] 0.02 BlueBox -->
<g id="edge13" class="edge">
<title>Fallback &#160;&#160;&#45;&gt;object_at YellowBox [&#45;0.12, 0.0, 0.12] 0.02 BlueBox</title>
<path fill="none" stroke="black" d="M619.5,-362.5C606.37,-353.12 589.01,-340.72 574.03,-330.02"/>
<polygon fill="black" stroke="black" points="575.7,-326.91 565.53,-323.95 571.64,-332.61 575.7,-326.91"/>
</g>
<!-- Sequence &#160;&#160; -->
<g id="node15" class="node">
<title>Sequence &#160;&#160;</title>
<polygon fill="orange" stroke="black" points="769.8,-324 707.8,-324 707.8,-288 769.8,-288 769.8,-324"/>
<text text-anchor="middle" x="738.8" y="-303.8" font-family="Times,serif" font-size="9.00">Sequence</text>
</g>
<!-- Fallback &#160;&#160;&#45;&gt;Sequence &#160;&#160; -->
<g id="edge14" class="edge">
<title>Fallback &#160;&#160;&#45;&gt;Sequence &#160;&#160;</title>
<path fill="none" stroke="black" d="M659.84,-362.83C673.18,-353.4 691.03,-340.78 706.37,-329.93"/>
<polygon fill="black" stroke="black" points="708.45,-332.74 714.6,-324.11 704.41,-327.03 708.45,-332.74"/>
</g>
<!-- Fallback &#160;&#160;&#160; -->
<g id="node16" class="node">
<title>Fallback &#160;&#160;&#160;</title>
<polygon fill="cyan" stroke="black" points="588.79,-226.54 588.79,-241.46 568.3,-252 539.31,-252 518.81,-241.46 518.81,-226.54 539.31,-216 568.3,-216 588.79,-226.54"/>
<text text-anchor="middle" x="553.8" y="-231.8" font-family="Times,serif" font-size="9.00">Fallback</text>
</g>
<!-- Sequence &#160;&#160;&#45;&gt;Fallback &#160;&#160;&#160; -->
<g id="edge15" class="edge">
<title>Sequence &#160;&#160;&#45;&gt;Fallback &#160;&#160;&#160;</title>
<path fill="none" stroke="black" d="M707.43,-291.46C704.52,-290.27 701.61,-289.1 698.8,-288 654.41,-270.67 642.48,-268.59 597.8,-252 595.45,-251.13 593.03,-250.22 590.6,-249.3"/>
<polygon fill="black" stroke="black" points="591.81,-246.02 581.22,-245.72 589.32,-252.56 591.81,-246.02"/>
</g>
<!-- place0 YellowBox [&#45;0.12, 0.0, 0.12] 0.02 BlueBox -->
<g id="node23" class="node">
<title>place0 YellowBox [&#45;0.12, 0.0, 0.12] 0.02 BlueBox</title>
<ellipse fill="lightgray" stroke="black" cx="747.8" cy="-234" rx="141.4" ry="18"/>
<text text-anchor="middle" x="747.8" y="-231.8" font-family="Times,serif" font-size="9.00">place0 YellowBox [&#45;0.12, 0.0, 0.12] 0.02 BlueBox</text>
</g>
<!-- Sequence &#160;&#160;&#45;&gt;place0 YellowBox [&#45;0.12, 0.0, 0.12] 0.02 BlueBox -->
<g id="edge22" class="edge">
<title>Sequence &#160;&#160;&#45;&gt;place0 YellowBox [&#45;0.12, 0.0, 0.12] 0.02 BlueBox</title>
<path fill="none" stroke="black" d="M741.03,-287.7C742.02,-279.98 743.21,-270.71 744.32,-262.11"/>
<polygon fill="black" stroke="black" points="747.8,-262.47 745.6,-252.1 740.86,-261.58 747.8,-262.47"/>
</g>
<!-- in_gripper YellowBox -->
<g id="node17" class="node">
<title>in_gripper YellowBox</title>
<ellipse fill="lightgray" stroke="black" cx="442.8" cy="-162" rx="66.29" ry="18"/>
<text text-anchor="middle" x="442.8" y="-159.8" font-family="Times,serif" font-size="9.00">in_gripper YellowBox</text>
</g>
<!-- Fallback &#160;&#160;&#160;&#45;&gt;in_gripper YellowBox -->
<g id="edge16" class="edge">
<title>Fallback &#160;&#160;&#160;&#45;&gt;in_gripper YellowBox</title>
<path fill="none" stroke="black" d="M532.4,-219.5C516.59,-209.53 494.76,-195.76 476.6,-184.31"/>
<polygon fill="black" stroke="black" points="478.35,-181.28 468.02,-178.91 474.62,-187.2 478.35,-181.28"/>
</g>
<!-- Sequence &#160;&#160;&#160; -->
<g id="node18" class="node">
<title>Sequence &#160;&#160;&#160;</title>
<polygon fill="orange" stroke="black" points="588.8,-180 526.8,-180 526.8,-144 588.8,-144 588.8,-180"/>
<text text-anchor="middle" x="557.8" y="-159.8" font-family="Times,serif" font-size="9.00">Sequence</text>
</g>
<!-- Fallback &#160;&#160;&#160;&#45;&gt;Sequence &#160;&#160;&#160; -->
<g id="edge17" class="edge">
<title>Fallback &#160;&#160;&#160;&#45;&gt;Sequence &#160;&#160;&#160;</title>
<path fill="none" stroke="black" d="M554.79,-215.7C555.23,-207.98 555.76,-198.71 556.25,-190.11"/>
<polygon fill="black" stroke="black" points="559.75,-190.29 556.82,-180.1 552.76,-189.89 559.75,-190.29"/>
</g>
<!-- Fallback &#160;&#160;&#160;&#160; -->
<g id="node19" class="node">
<title>Fallback &#160;&#160;&#160;&#160;</title>
<polygon fill="cyan" stroke="black" points="491.79,-82.54 491.79,-97.46 471.3,-108 442.31,-108 421.81,-97.46 421.81,-82.54 442.31,-72 471.3,-72 491.79,-82.54"/>
<text text-anchor="middle" x="456.8" y="-87.8" font-family="Times,serif" font-size="9.00">Fallback</text>
</g>
<!-- Sequence &#160;&#160;&#160;&#45;&gt;Fallback &#160;&#160;&#160;&#160; -->
<g id="edge18" class="edge">
<title>Sequence &#160;&#160;&#160;&#45;&gt;Fallback &#160;&#160;&#160;&#160;</title>
<path fill="none" stroke="black" d="M533.09,-143.88C518.74,-133.93 500.59,-121.35 485.59,-110.95"/>
<polygon fill="black" stroke="black" points="487.39,-107.94 477.18,-105.12 483.4,-113.7 487.39,-107.94"/>
</g>
<!-- pick0 YellowBox -->
<g id="node22" class="node">
<title>pick0 YellowBox</title>
<ellipse fill="lightgray" stroke="black" cx="562.8" cy="-90" rx="53.23" ry="18"/>
<text text-anchor="middle" x="562.8" y="-87.8" font-family="Times,serif" font-size="9.00">pick0 YellowBox</text>
</g>
<!-- Sequence &#160;&#160;&#160;&#45;&gt;pick0 YellowBox -->
<g id="edge21" class="edge">
<title>Sequence &#160;&#160;&#160;&#45;&gt;pick0 YellowBox</title>
<path fill="none" stroke="black" d="M559.04,-143.7C559.59,-135.98 560.25,-126.71 560.87,-118.11"/>
<polygon fill="black" stroke="black" points="564.36,-118.33 561.58,-108.1 557.38,-117.83 564.36,-118.33"/>
</g>
<!-- gripper_state open  -->
<g id="node20" class="node">
<title>gripper_state open </title>
<ellipse fill="lightgray" stroke="black" cx="417.8" cy="-18" rx="60.09" ry="18"/>
<text text-anchor="middle" x="417.8" y="-15.8" font-family="Times,serif" font-size="9.00">gripper_state open</text>
</g>
<!-- Fallback &#160;&#160;&#160;&#160;&#45;&gt;gripper_state open  -->
<g id="edge19" class="edge">
<title>Fallback &#160;&#160;&#160;&#160;&#45;&gt;gripper_state open </title>
<path fill="none" stroke="black" d="M447.16,-71.7C442.67,-63.64 437.24,-53.89 432.28,-44.98"/>
<polygon fill="black" stroke="black" points="435.26,-43.14 427.33,-36.1 429.14,-46.54 435.26,-43.14"/>
</g>
<!-- open_gripper  -->
<g id="node21" class="node">
<title>open_gripper </title>
<ellipse fill="lightgray" stroke="black" cx="541.8" cy="-18" rx="45.72" ry="18"/>
<text text-anchor="middle" x="541.8" y="-15.8" font-family="Times,serif" font-size="9.00">open_gripper</text>
</g>
<!-- Fallback &#160;&#160;&#160;&#160;&#45;&gt;open_gripper  -->
<g id="edge20" class="edge">
<title>Fallback &#160;&#160;&#160;&#160;&#45;&gt;open_gripper </title>
<path fill="none" stroke="black" d="M475.25,-73.81C486.89,-64.22 502.13,-51.67 515.09,-41"/>
<polygon fill="black" stroke="black" points="517.31,-43.7 522.81,-34.64 512.86,-38.3 517.31,-43.7"/>
</g>
<!-- object_at GreenBox [&#45;0.062, 0.002, 0.277] 0.007 KittingBox -->
<g id="node25" class="node">
<title>object_at GreenBox [&#45;0.062, 0.002, 0.277] 0.007 KittingBox</title>
<ellipse fill="lightgray" stroke="black" cx="958.8" cy="-306" rx="170.79" ry="18"/>
<text text-anchor="middle" x="958.8" y="-303.8" font-family="Times,serif" font-size="9.00">object_at GreenBox [&#45;0.062, 0.002, 0.277] 0.007 KittingBox</text>
</g>
<!-- Fallback &#160;&#160;&#160;&#160;&#160;&#45;&gt;object_at GreenBox [&#45;0.062, 0.002, 0.277] 0.007 KittingBox -->
<g id="edge24" class="edge">
<title>Fallback &#160;&#160;&#160;&#160;&#160;&#45;&gt;object_at GreenBox [&#45;0.062, 0.002, 0.277] 0.007 KittingBox</title>
<path fill="none" stroke="black" d="M958.8,-359.7C958.8,-351.98 958.8,-342.71 958.8,-334.11"/>
<polygon fill="black" stroke="black" points="962.3,-334.1 958.8,-324.1 955.3,-334.1 962.3,-334.1"/>
</g>
<!-- Sequence &#160;&#160;&#160;&#160; -->
<g id="node26" class="node">
<title>Sequence &#160;&#160;&#160;&#160;</title>
<polygon fill="orange" stroke="black" points="1209.8,-324 1147.8,-324 1147.8,-288 1209.8,-288 1209.8,-324"/>
<text text-anchor="middle" x="1178.8" y="-303.8" font-family="Times,serif" font-size="9.00">Sequence</text>
</g>
<!-- Fallback &#160;&#160;&#160;&#160;&#160;&#45;&gt;Sequence &#160;&#160;&#160;&#160; -->
<g id="edge25" class="edge">
<title>Fallback &#160;&#160;&#160;&#160;&#160;&#45;&gt;Sequence &#160;&#160;&#160;&#160;</title>
<path fill="none" stroke="black" d="M990.7,-368.81C1025.05,-359.72 1081.4,-344.06 1138.04,-324.09"/>
<polygon fill="black" stroke="black" points="1139.25,-327.37 1147.49,-320.71 1136.9,-320.78 1139.25,-327.37"/>
</g>
<!-- Fallback &#160;&#160;&#160;&#160;&#160;&#160; -->
<g id="node27" class="node">
<title>Fallback &#160;&#160;&#160;&#160;&#160;&#160;</title>
<polygon fill="cyan" stroke="black" points="1104.79,-226.54 1104.79,-241.46 1084.3,-252 1055.31,-252 1034.81,-241.46 1034.81,-226.54 1055.31,-216 1084.3,-216 1104.79,-226.54"/>
<text text-anchor="middle" x="1069.8" y="-231.8" font-family="Times,serif" font-size="9.00">Fallback</text>
</g>
<!-- Sequence &#160;&#160;&#160;&#160;&#45;&gt;Fallback &#160;&#160;&#160;&#160;&#160;&#160; -->
<g id="edge26" class="edge">
<title>Sequence &#160;&#160;&#160;&#160;&#45;&gt;Fallback &#160;&#160;&#160;&#160;&#160;&#160;</title>
<path fill="none" stroke="black" d="M1152.14,-287.88C1136.29,-277.7 1116.15,-264.77 1099.76,-254.24"/>
<polygon fill="black" stroke="black" points="1101.39,-251.13 1091.09,-248.67 1097.61,-257.02 1101.39,-251.13"/>
</g>
<!-- place0 GreenBox [&#45;0.062, 0.002, 0.277] 0.007 KittingBox -->
<g id="node34" class="node">
<title>place0 GreenBox [&#45;0.062, 0.002, 0.277] 0.007 KittingBox</title>
<ellipse fill="lightgray" stroke="black" cx="1287.8" cy="-234" rx="164.59" ry="18"/>
<text text-anchor="middle" x="1287.8" y="-231.8" font-family="Times,serif" font-size="9.00">place0 GreenBox [&#45;0.062, 0.002, 0.277] 0.007 KittingBox</text>
</g>
<!-- Sequence &#160;&#160;&#160;&#160;&#45;&gt;place0 GreenBox [&#45;0.062, 0.002, 0.277] 0.007 KittingBox -->
<g id="edge33" class="edge">
<title>Sequence &#160;&#160;&#160;&#160;&#45;&gt;place0 GreenBox [&#45;0.062, 0.002, 0.277] 0.007 KittingBox</title>
<path fill="none" stroke="black" d="M1205.47,-287.88C1219.69,-278.74 1237.37,-267.38 1252.7,-257.54"/>
<polygon fill="black" stroke="black" points="1254.89,-260.3 1261.41,-251.95 1251.11,-254.41 1254.89,-260.3"/>
</g>
<!-- in_gripper GreenBox -->
<g id="node28" class="node">
<title>in_gripper GreenBox</title>
<ellipse fill="lightgray" stroke="black" cx="1011.8" cy="-162" rx="65.64" ry="18"/>
<text text-anchor="middle" x="1011.8" y="-159.8" font-family="Times,serif" font-size="9.00">in_gripper GreenBox</text>
</g>
<!-- Fallback &#160;&#160;&#160;&#160;&#160;&#160;&#45;&gt;in_gripper GreenBox -->
<g id="edge27" class="edge">
<title>Fallback &#160;&#160;&#160;&#160;&#160;&#160;&#45;&gt;in_gripper GreenBox</title>
<path fill="none" stroke="black" d="M1055.46,-215.7C1048.41,-207.18 1039.78,-196.76 1032.06,-187.45"/>
<polygon fill="black" stroke="black" points="1034.65,-185.09 1025.57,-179.62 1029.26,-189.56 1034.65,-185.09"/>
</g>
<!-- Sequence &#160;&#160;&#160;&#160;&#160; -->
<g id="node29" class="node">
<title>Sequence &#160;&#160;&#160;&#160;&#160;</title>
<polygon fill="orange" stroke="black" points="1157.8,-180 1095.8,-180 1095.8,-144 1157.8,-144 1157.8,-180"/>
<text text-anchor="middle" x="1126.8" y="-159.8" font-family="Times,serif" font-size="9.00">Sequence</text>
</g>
<!-- Fallback &#160;&#160;&#160;&#160;&#160;&#160;&#45;&gt;Sequence &#160;&#160;&#160;&#160;&#160; -->
<g id="edge28" class="edge">
<title>Fallback &#160;&#160;&#160;&#160;&#160;&#160;&#45;&gt;Sequence &#160;&#160;&#160;&#160;&#160;</title>
<path fill="none" stroke="black" d="M1083.89,-215.7C1090.73,-207.3 1099.06,-197.07 1106.56,-187.86"/>
<polygon fill="black" stroke="black" points="1109.27,-190.07 1112.87,-180.1 1103.85,-185.65 1109.27,-190.07"/>
</g>
<!-- Fallback &#160;&#160;&#160;&#160;&#160;&#160;&#160; -->
<g id="node30" class="node">
<title>Fallback &#160;&#160;&#160;&#160;&#160;&#160;&#160;</title>
<polygon fill="cyan" stroke="black" points="1108.79,-82.54 1108.79,-97.46 1088.3,-108 1059.31,-108 1038.81,-97.46 1038.81,-82.54 1059.31,-72 1088.3,-72 1108.79,-82.54"/>
<text text-anchor="middle" x="1073.8" y="-87.8" font-family="Times,serif" font-size="9.00">Fallback</text>
</g>
<!-- Sequence &#160;&#160;&#160;&#160;&#160;&#45;&gt;Fallback &#160;&#160;&#160;&#160;&#160;&#160;&#160; -->
<g id="edge29" class="edge">
<title>Sequence &#160;&#160;&#160;&#160;&#160;&#45;&gt;Fallback &#160;&#160;&#160;&#160;&#160;&#160;&#160;</title>
<path fill="none" stroke="black" d="M1113.7,-143.7C1107.41,-135.39 1099.75,-125.28 1092.84,-116.14"/>
<polygon fill="black" stroke="black" points="1095.58,-113.96 1086.75,-108.1 1090,-118.19 1095.58,-113.96"/>
</g>
<!-- pick0 GreenBox -->
<g id="node33" class="node">
<title>pick0 GreenBox</title>
<ellipse fill="lightgray" stroke="black" cx="1179.8" cy="-90" rx="52.58" ry="18"/>
<text text-anchor="middle" x="1179.8" y="-87.8" font-family="Times,serif" font-size="9.00">pick0 GreenBox</text>
</g>
<!-- Sequence &#160;&#160;&#160;&#160;&#160;&#45;&gt;pick0 GreenBox -->
<g id="edge32" class="edge">
<title>Sequence &#160;&#160;&#160;&#160;&#160;&#45;&gt;pick0 GreenBox</title>
<path fill="none" stroke="black" d="M1139.9,-143.7C1146.29,-135.27 1154.08,-124.97 1161.08,-115.73"/>
<polygon fill="black" stroke="black" points="1163.97,-117.71 1167.22,-107.62 1158.39,-113.48 1163.97,-117.71"/>
</g>
<!-- gripper_state open &#160; -->
<g id="node31" class="node">
<title>gripper_state open &#160;</title>
<ellipse fill="lightgray" stroke="black" cx="1011.8" cy="-18" rx="60.09" ry="18"/>
<text text-anchor="middle" x="1011.8" y="-15.8" font-family="Times,serif" font-size="9.00">gripper_state open</text>
</g>
<!-- Fallback &#160;&#160;&#160;&#160;&#160;&#160;&#160;&#45;&gt;gripper_state open &#160; -->
<g id="edge30" class="edge">
<title>Fallback &#160;&#160;&#160;&#160;&#160;&#160;&#160;&#45;&gt;gripper_state open &#160;</title>
<path fill="none" stroke="black" d="M1058.79,-72.05C1051.18,-63.46 1041.79,-52.86 1033.41,-43.4"/>
<polygon fill="black" stroke="black" points="1035.92,-40.95 1026.67,-35.79 1030.68,-45.6 1035.92,-40.95"/>
</g>
<!-- open_gripper &#160; -->
<g id="node32" class="node">
<title>open_gripper &#160;</title>
<ellipse fill="lightgray" stroke="black" cx="1135.8" cy="-18" rx="45.72" ry="18"/>
<text text-anchor="middle" x="1135.8" y="-15.8" font-family="Times,serif" font-size="9.00">open_gripper</text>
</g>
<!-- Fallback &#160;&#160;&#160;&#160;&#160;&#160;&#160;&#45;&gt;open_gripper &#160; -->
<g id="edge31" class="edge">
<title>Fallback &#160;&#160;&#160;&#160;&#160;&#160;&#160;&#45;&gt;open_gripper &#160;</title>
<path fill="none" stroke="black" d="M1088.81,-72.05C1096.54,-63.33 1106.09,-52.54 1114.56,-42.98"/>
<polygon fill="black" stroke="black" points="1117.35,-45.11 1121.36,-35.31 1112.11,-40.47 1117.35,-45.11"/>
</g>
</g>
</svg>
