<?xml version="1.0" encoding="UTF-8" standalone="no"?>
<!DOCTYPE svg PUBLIC "-//W3C//DTD SVG 1.1//EN"
 "http://www.w3.org/Graphics/SVG/1.1/DTD/svg11.dtd">
<!-- Generated by graphviz version 2.43.0 (0)
 -->
<!-- Title: pastafarianism Pages: 1 -->
<svg width="1315pt" height="476pt"
 viewBox="0.00 0.00 1314.53 476.00" xmlns="http://www.w3.org/2000/svg" xmlns:xlink="http://www.w3.org/1999/xlink">
<g id="graph0" class="graph" transform="scale(1 1) rotate(0) translate(4 472)">
<title>pastafarianism</title>
<polygon fill="white" stroke="transparent" points="-4,4 -4,-472 1310.53,-472 1310.53,4 -4,4"/>
<!-- Sequence -->
<g id="node1" class="node">
<title>Sequence</title>
<polygon fill="orange" stroke="black" points="661.8,-468 599.8,-468 599.8,-432 661.8,-432 661.8,-468"/>
<text text-anchor="middle" x="630.8" y="-447.8" font-family="Times,serif" font-size="9.00">Sequence</text>
</g>
<!-- Fallback -->
<g id="node2" class="node">
<title>Fallback</title>
<polygon fill="cyan" stroke="black" points="379.79,-370.54 379.79,-385.46 359.3,-396 330.31,-396 309.81,-385.46 309.81,-370.54 330.31,-360 359.3,-360 379.79,-370.54"/>
<text text-anchor="middle" x="344.8" y="-375.8" font-family="Times,serif" font-size="9.00">Fallback</text>
</g>
<!-- Sequence&#45;&gt;Fallback -->
<g id="edge1" class="edge">
<title>Sequence&#45;&gt;Fallback</title>
<path fill="none" stroke="black" d="M599.65,-441.38C548.16,-428.77 445.24,-403.58 387.18,-389.37"/>
<polygon fill="black" stroke="black" points="387.77,-385.91 377.23,-386.94 386.11,-392.71 387.77,-385.91"/>
</g>
<!-- Fallback &#160;&#160; -->
<g id="node13" class="node">
<title>Fallback &#160;&#160;</title>
<polygon fill="cyan" stroke="black" points="665.79,-370.54 665.79,-385.46 645.3,-396 616.31,-396 595.81,-385.46 595.81,-370.54 616.31,-360 645.3,-360 665.79,-370.54"/>
<text text-anchor="middle" x="630.8" y="-375.8" font-family="Times,serif" font-size="9.00">Fallback</text>
</g>
<!-- Sequence&#45;&gt;Fallback &#160;&#160; -->
<g id="edge12" class="edge">
<title>Sequence&#45;&gt;Fallback &#160;&#160;</title>
<path fill="none" stroke="black" d="M630.8,-431.7C630.8,-423.98 630.8,-414.71 630.8,-406.11"/>
<polygon fill="black" stroke="black" points="634.3,-406.1 630.8,-396.1 627.3,-406.1 634.3,-406.1"/>
</g>
<!-- Fallback &#160;&#160;&#160;&#160;&#160; -->
<g id="node24" class="node">
<title>Fallback &#160;&#160;&#160;&#160;&#160;</title>
<polygon fill="cyan" stroke="black" points="971.79,-370.54 971.79,-385.46 951.3,-396 922.31,-396 901.81,-385.46 901.81,-370.54 922.31,-360 951.3,-360 971.79,-370.54"/>
<text text-anchor="middle" x="936.8" y="-375.8" font-family="Times,serif" font-size="9.00">Fallback</text>
</g>
<!-- Sequence&#45;&gt;Fallback &#160;&#160;&#160;&#160;&#160; -->
<g id="edge23" class="edge">
<title>Sequence&#45;&gt;Fallback &#160;&#160;&#160;&#160;&#160;</title>
<path fill="none" stroke="black" d="M661.83,-441.9C716.81,-429.33 831.42,-403.11 893.91,-388.81"/>
<polygon fill="black" stroke="black" points="894.88,-392.18 903.85,-386.54 893.32,-385.36 894.88,-392.18"/>
</g>
<!-- object_at BlueBox [0.0, 0.0, 0.175] 0.02 KittingBox -->
<g id="node3" class="node">
<title>object_at BlueBox [0.0, 0.0, 0.175] 0.02 KittingBox</title>
<ellipse fill="lightgray" stroke="black" cx="147.8" cy="-306" rx="147.6" ry="18"/>
<text text-anchor="middle" x="147.8" y="-303.8" font-family="Times,serif" font-size="9.00">object_at BlueBox [0.0, 0.0, 0.175] 0.02 KittingBox</text>
</g>
<!-- Fallback&#45;&gt;object_at BlueBox [0.0, 0.0, 0.175] 0.02 KittingBox -->
<g id="edge2" class="edge">
<title>Fallback&#45;&gt;object_at BlueBox [0.0, 0.0, 0.175] 0.02 KittingBox</title>
<path fill="none" stroke="black" d="M316.58,-366.97C287.08,-356.49 240.05,-339.78 203.11,-326.65"/>
<polygon fill="black" stroke="black" points="204.07,-323.28 193.47,-323.23 201.72,-329.87 204.07,-323.28"/>
</g>
<!-- Sequence  -->
<g id="node4" class="node">
<title>Sequence </title>
<polygon fill="orange" stroke="black" points="375.8,-324 313.8,-324 313.8,-288 375.8,-288 375.8,-324"/>
<text text-anchor="middle" x="344.8" y="-303.8" font-family="Times,serif" font-size="9.00">Sequence</text>
</g>
<!-- Fallback&#45;&gt;Sequence  -->
<g id="edge3" class="edge">
<title>Fallback&#45;&gt;Sequence </title>
<path fill="none" stroke="black" d="M344.8,-359.7C344.8,-351.98 344.8,-342.71 344.8,-334.11"/>
<polygon fill="black" stroke="black" points="348.3,-334.1 344.8,-324.1 341.3,-334.1 348.3,-334.1"/>
</g>
<!-- Fallback  -->
<g id="node5" class="node">
<title>Fallback </title>
<polygon fill="cyan" stroke="black" points="190.79,-226.54 190.79,-241.46 170.3,-252 141.31,-252 120.81,-241.46 120.81,-226.54 141.31,-216 170.3,-216 190.79,-226.54"/>
<text text-anchor="middle" x="155.8" y="-231.8" font-family="Times,serif" font-size="9.00">Fallback</text>
</g>
<!-- Sequence &#45;&gt;Fallback  -->
<g id="edge4" class="edge">
<title>Sequence &#45;&gt;Fallback </title>
<path fill="none" stroke="black" d="M313.45,-291.42C310.53,-290.24 307.62,-289.08 304.8,-288 258.74,-270.34 246.15,-268.89 199.8,-252 197.45,-251.14 195.02,-250.24 192.58,-249.33"/>
<polygon fill="black" stroke="black" points="193.79,-246.05 183.2,-245.77 191.31,-252.59 193.79,-246.05"/>
</g>
<!-- place0 BlueBox [0.0, 0.0, 0.175] 0.02 KittingBox -->
<g id="node12" class="node">
<title>place0 BlueBox [0.0, 0.0, 0.175] 0.02 KittingBox</title>
<ellipse fill="lightgray" stroke="black" cx="349.8" cy="-234" rx="141.4" ry="18"/>
<text text-anchor="middle" x="349.8" y="-231.8" font-family="Times,serif" font-size="9.00">place0 BlueBox [0.0, 0.0, 0.175] 0.02 KittingBox</text>
</g>
<!-- Sequence &#45;&gt;place0 BlueBox [0.0, 0.0, 0.175] 0.02 KittingBox -->
<g id="edge11" class="edge">
<title>Sequence &#45;&gt;place0 BlueBox [0.0, 0.0, 0.175] 0.02 KittingBox</title>
<path fill="none" stroke="black" d="M346.04,-287.7C346.59,-279.98 347.25,-270.71 347.87,-262.11"/>
<polygon fill="black" stroke="black" points="351.36,-262.33 348.58,-252.1 344.38,-261.83 351.36,-262.33"/>
</g>
<!-- in_gripper BlueBox -->
<g id="node6" class="node">
<title>in_gripper BlueBox</title>
<ellipse fill="lightgray" stroke="black" cx="130.8" cy="-162" rx="61.55" ry="18"/>
<text text-anchor="middle" x="130.8" y="-159.8" font-family="Times,serif" font-size="9.00">in_gripper BlueBox</text>
</g>
<!-- Fallback &#45;&gt;in_gripper BlueBox -->
<g id="edge5" class="edge">
<title>Fallback &#45;&gt;in_gripper BlueBox</title>
<path fill="none" stroke="black" d="M149.62,-215.7C146.81,-207.81 143.41,-198.3 140.28,-189.55"/>
<polygon fill="black" stroke="black" points="143.57,-188.34 136.91,-180.1 136.98,-190.7 143.57,-188.34"/>
</g>
<!-- Sequence &#160; -->
<g id="node7" class="node">
<title>Sequence &#160;</title>
<polygon fill="orange" stroke="black" points="272.8,-180 210.8,-180 210.8,-144 272.8,-144 272.8,-180"/>
<text text-anchor="middle" x="241.8" y="-159.8" font-family="Times,serif" font-size="9.00">Sequence</text>
</g>
<!-- Fallback &#45;&gt;Sequence &#160; -->
<g id="edge6" class="edge">
<title>Fallback &#45;&gt;Sequence &#160;</title>
<path fill="none" stroke="black" d="M174.46,-217.81C185.65,-208.71 200.11,-196.94 212.76,-186.64"/>
<polygon fill="black" stroke="black" points="215.21,-189.15 220.76,-180.13 210.8,-183.73 215.21,-189.15"/>
</g>
<!-- Fallback &#160; -->
<g id="node8" class="node">
<title>Fallback &#160;</title>
<polygon fill="cyan" stroke="black" points="255.79,-82.54 255.79,-97.46 235.3,-108 206.31,-108 185.81,-97.46 185.81,-82.54 206.31,-72 235.3,-72 255.79,-82.54"/>
<text text-anchor="middle" x="220.8" y="-87.8" font-family="Times,serif" font-size="9.00">Fallback</text>
</g>
<!-- Sequence &#160;&#45;&gt;Fallback &#160; -->
<g id="edge7" class="edge">
<title>Sequence &#160;&#45;&gt;Fallback &#160;</title>
<path fill="none" stroke="black" d="M236.61,-143.7C234.27,-135.9 231.45,-126.51 228.85,-117.83"/>
<polygon fill="black" stroke="black" points="232.16,-116.68 225.93,-108.1 225.45,-118.69 232.16,-116.68"/>
</g>
<!-- pick0 BlueBox -->
<g id="node11" class="node">
<title>pick0 BlueBox</title>
<ellipse fill="lightgray" stroke="black" cx="321.8" cy="-90" rx="47.84" ry="18"/>
<text text-anchor="middle" x="321.8" y="-87.8" font-family="Times,serif" font-size="9.00">pick0 BlueBox</text>
</g>
<!-- Sequence &#160;&#45;&gt;pick0 BlueBox -->
<g id="edge10" class="edge">
<title>Sequence &#160;&#45;&gt;pick0 BlueBox</title>
<path fill="none" stroke="black" d="M261.58,-143.7C271.93,-134.64 284.73,-123.44 295.87,-113.69"/>
<polygon fill="black" stroke="black" points="298.4,-116.13 303.62,-106.91 293.79,-110.86 298.4,-116.13"/>
</g>
<!-- gripper_state open -->
<g id="node9" class="node">
<title>gripper_state open</title>
<ellipse fill="lightgray" stroke="black" cx="137.8" cy="-18" rx="60.09" ry="18"/>
<text text-anchor="middle" x="137.8" y="-15.8" font-family="Times,serif" font-size="9.00">gripper_state open</text>
</g>
<!-- Fallback &#160;&#45;&gt;gripper_state open -->
<g id="edge8" class="edge">
<title>Fallback &#160;&#45;&gt;gripper_state open</title>
<path fill="none" stroke="black" d="M202.38,-73.46C191.33,-64.15 177.09,-52.13 164.78,-41.76"/>
<polygon fill="black" stroke="black" points="166.94,-38.99 157.04,-35.22 162.42,-44.34 166.94,-38.99"/>
</g>
<!-- open_gripper -->
<g id="node10" class="node">
<title>open_gripper</title>
<ellipse fill="lightgray" stroke="black" cx="261.8" cy="-18" rx="45.72" ry="18"/>
<text text-anchor="middle" x="261.8" y="-15.8" font-family="Times,serif" font-size="9.00">open_gripper</text>
</g>
<!-- Fallback &#160;&#45;&gt;open_gripper -->
<g id="edge9" class="edge">
<title>Fallback &#160;&#45;&gt;open_gripper</title>
<path fill="none" stroke="black" d="M230.94,-71.7C235.77,-63.44 241.66,-53.39 246.98,-44.3"/>
<polygon fill="black" stroke="black" points="250.03,-46.02 252.07,-35.62 243.99,-42.48 250.03,-46.02"/>
</g>
<!-- object_at GreenBox [0.0, 0.0, 0.22] 0.02 BlueBox -->
<g id="node14" class="node">
<title>object_at GreenBox [0.0, 0.0, 0.22] 0.02 BlueBox</title>
<ellipse fill="lightgray" stroke="black" cx="535.8" cy="-306" rx="142.06" ry="18"/>
<text text-anchor="middle" x="535.8" y="-303.8" font-family="Times,serif" font-size="9.00">object_at GreenBox [0.0, 0.0, 0.22] 0.02 BlueBox</text>
</g>
<!-- Fallback &#160;&#160;&#45;&gt;object_at GreenBox [0.0, 0.0, 0.22] 0.02 BlueBox -->
<g id="edge13" class="edge">
<title>Fallback &#160;&#160;&#45;&gt;object_at GreenBox [0.0, 0.0, 0.22] 0.02 BlueBox</title>
<path fill="none" stroke="black" d="M611.12,-362.5C598.4,-353.12 581.57,-340.72 567.04,-330.02"/>
<polygon fill="black" stroke="black" points="568.93,-327.06 558.81,-323.95 564.78,-332.7 568.93,-327.06"/>
</g>
<!-- Sequence &#160;&#160; -->
<g id="node15" class="node">
<title>Sequence &#160;&#160;</title>
<polygon fill="orange" stroke="black" points="757.8,-324 695.8,-324 695.8,-288 757.8,-288 757.8,-324"/>
<text text-anchor="middle" x="726.8" y="-303.8" font-family="Times,serif" font-size="9.00">Sequence</text>
</g>
<!-- Fallback &#160;&#160;&#45;&gt;Sequence &#160;&#160; -->
<g id="edge14" class="edge">
<title>Fallback &#160;&#160;&#45;&gt;Sequence &#160;&#160;</title>
<path fill="none" stroke="black" d="M650.69,-362.5C663.46,-353.19 680.31,-340.9 694.92,-330.25"/>
<polygon fill="black" stroke="black" points="697.19,-332.92 703.21,-324.2 693.07,-327.27 697.19,-332.92"/>
</g>
<!-- Fallback &#160;&#160;&#160; -->
<g id="node16" class="node">
<title>Fallback &#160;&#160;&#160;</title>
<polygon fill="cyan" stroke="black" points="589.79,-226.54 589.79,-241.46 569.3,-252 540.31,-252 519.81,-241.46 519.81,-226.54 540.31,-216 569.3,-216 589.79,-226.54"/>
<text text-anchor="middle" x="554.8" y="-231.8" font-family="Times,serif" font-size="9.00">Fallback</text>
</g>
<!-- Sequence &#160;&#160;&#45;&gt;Fallback &#160;&#160;&#160; -->
<g id="edge15" class="edge">
<title>Sequence &#160;&#160;&#45;&gt;Fallback &#160;&#160;&#160;</title>
<path fill="none" stroke="black" d="M695.38,-291.58C692.49,-290.36 689.59,-289.15 686.8,-288 654.72,-274.75 618.08,-260.07 591.56,-249.53"/>
<polygon fill="black" stroke="black" points="592.5,-246.14 581.92,-245.7 589.92,-252.64 592.5,-246.14"/>
</g>
<!-- place0 GreenBox [0.0, 0.0, 0.22] 0.02 BlueBox -->
<g id="node23" class="node">
<title>place0 GreenBox [0.0, 0.0, 0.22] 0.02 BlueBox</title>
<ellipse fill="lightgray" stroke="black" cx="743.8" cy="-234" rx="135.85" ry="18"/>
<text text-anchor="middle" x="743.8" y="-231.8" font-family="Times,serif" font-size="9.00">place0 GreenBox [0.0, 0.0, 0.22] 0.02 BlueBox</text>
</g>
<!-- Sequence &#160;&#160;&#45;&gt;place0 GreenBox [0.0, 0.0, 0.22] 0.02 BlueBox -->
<g id="edge22" class="edge">
<title>Sequence &#160;&#160;&#45;&gt;place0 GreenBox [0.0, 0.0, 0.22] 0.02 BlueBox</title>
<path fill="none" stroke="black" d="M731,-287.7C732.9,-279.9 735.18,-270.51 737.29,-261.83"/>
<polygon fill="black" stroke="black" points="740.69,-262.65 739.65,-252.1 733.89,-261 740.69,-262.65"/>
</g>
<!-- in_gripper GreenBox -->
<g id="node17" class="node">
<title>in_gripper GreenBox</title>
<ellipse fill="lightgray" stroke="black" cx="449.8" cy="-162" rx="65.64" ry="18"/>
<text text-anchor="middle" x="449.8" y="-159.8" font-family="Times,serif" font-size="9.00">in_gripper GreenBox</text>
</g>
<!-- Fallback &#160;&#160;&#160;&#45;&gt;in_gripper GreenBox -->
<g id="edge16" class="edge">
<title>Fallback &#160;&#160;&#160;&#45;&gt;in_gripper GreenBox</title>
<path fill="none" stroke="black" d="M534.06,-219.17C519.3,-209.33 499.17,-195.92 482.3,-184.66"/>
<polygon fill="black" stroke="black" points="484.07,-181.64 473.81,-179.01 480.19,-187.47 484.07,-181.64"/>
</g>
<!-- Sequence &#160;&#160;&#160; -->
<g id="node18" class="node">
<title>Sequence &#160;&#160;&#160;</title>
<polygon fill="orange" stroke="black" points="595.8,-180 533.8,-180 533.8,-144 595.8,-144 595.8,-180"/>
<text text-anchor="middle" x="564.8" y="-159.8" font-family="Times,serif" font-size="9.00">Sequence</text>
</g>
<!-- Fallback &#160;&#160;&#160;&#45;&gt;Sequence &#160;&#160;&#160; -->
<g id="edge17" class="edge">
<title>Fallback &#160;&#160;&#160;&#45;&gt;Sequence &#160;&#160;&#160;</title>
<path fill="none" stroke="black" d="M557.27,-215.7C558.38,-207.98 559.7,-198.71 560.93,-190.11"/>
<polygon fill="black" stroke="black" points="564.41,-190.5 562.36,-180.1 557.48,-189.51 564.41,-190.5"/>
</g>
<!-- Fallback &#160;&#160;&#160;&#160; -->
<g id="node19" class="node">
<title>Fallback &#160;&#160;&#160;&#160;</title>
<polygon fill="cyan" stroke="black" points="499.79,-82.54 499.79,-97.46 479.3,-108 450.31,-108 429.81,-97.46 429.81,-82.54 450.31,-72 479.3,-72 499.79,-82.54"/>
<text text-anchor="middle" x="464.8" y="-87.8" font-family="Times,serif" font-size="9.00">Fallback</text>
</g>
<!-- Sequence &#160;&#160;&#160;&#45;&gt;Fallback &#160;&#160;&#160;&#160; -->
<g id="edge18" class="edge">
<title>Sequence &#160;&#160;&#160;&#45;&gt;Fallback &#160;&#160;&#160;&#160;</title>
<path fill="none" stroke="black" d="M540.34,-143.88C526.13,-133.93 508.16,-121.35 493.31,-110.95"/>
<polygon fill="black" stroke="black" points="495.18,-107.99 484.98,-105.12 491.16,-113.72 495.18,-107.99"/>
</g>
<!-- pick0 GreenBox -->
<g id="node22" class="node">
<title>pick0 GreenBox</title>
<ellipse fill="lightgray" stroke="black" cx="570.8" cy="-90" rx="52.58" ry="18"/>
<text text-anchor="middle" x="570.8" y="-87.8" font-family="Times,serif" font-size="9.00">pick0 GreenBox</text>
</g>
<!-- Sequence &#160;&#160;&#160;&#45;&gt;pick0 GreenBox -->
<g id="edge21" class="edge">
<title>Sequence &#160;&#160;&#160;&#45;&gt;pick0 GreenBox</title>
<path fill="none" stroke="black" d="M566.28,-143.7C566.95,-135.98 567.74,-126.71 568.48,-118.11"/>
<polygon fill="black" stroke="black" points="571.97,-118.37 569.34,-108.1 564.99,-117.77 571.97,-118.37"/>
</g>
<!-- gripper_state open  -->
<g id="node20" class="node">
<title>gripper_state open </title>
<ellipse fill="lightgray" stroke="black" cx="424.8" cy="-18" rx="60.09" ry="18"/>
<text text-anchor="middle" x="424.8" y="-15.8" font-family="Times,serif" font-size="9.00">gripper_state open</text>
</g>
<!-- Fallback &#160;&#160;&#160;&#160;&#45;&gt;gripper_state open  -->
<g id="edge19" class="edge">
<title>Fallback &#160;&#160;&#160;&#160;&#45;&gt;gripper_state open </title>
<path fill="none" stroke="black" d="M454.91,-71.7C450.31,-63.64 444.74,-53.89 439.65,-44.98"/>
<polygon fill="black" stroke="black" points="442.58,-43.05 434.58,-36.1 436.5,-46.52 442.58,-43.05"/>
</g>
<!-- open_gripper  -->
<g id="node21" class="node">
<title>open_gripper </title>
<ellipse fill="lightgray" stroke="black" cx="548.8" cy="-18" rx="45.72" ry="18"/>
<text text-anchor="middle" x="548.8" y="-15.8" font-family="Times,serif" font-size="9.00">open_gripper</text>
</g>
<!-- Fallback &#160;&#160;&#160;&#160;&#45;&gt;open_gripper  -->
<g id="edge20" class="edge">
<title>Fallback &#160;&#160;&#160;&#160;&#45;&gt;open_gripper </title>
<path fill="none" stroke="black" d="M483.03,-73.81C494.43,-64.31 509.31,-51.91 522.04,-41.3"/>
<polygon fill="black" stroke="black" points="524.59,-43.73 530.03,-34.64 520.11,-38.36 524.59,-43.73"/>
</g>
<!-- object_at YellowBox [&#45;0.133, 0.0, 0.175] 0.02 KittingBox -->
<g id="node25" class="node">
<title>object_at YellowBox [&#45;0.133, 0.0, 0.175] 0.02 KittingBox</title>
<ellipse fill="lightgray" stroke="black" cx="936.8" cy="-306" rx="161.16" ry="18"/>
<text text-anchor="middle" x="936.8" y="-303.8" font-family="Times,serif" font-size="9.00">object_at YellowBox [&#45;0.133, 0.0, 0.175] 0.02 KittingBox</text>
</g>
<!-- Fallback &#160;&#160;&#160;&#160;&#160;&#45;&gt;object_at YellowBox [&#45;0.133, 0.0, 0.175] 0.02 KittingBox -->
<g id="edge24" class="edge">
<title>Fallback &#160;&#160;&#160;&#160;&#160;&#45;&gt;object_at YellowBox [&#45;0.133, 0.0, 0.175] 0.02 KittingBox</title>
<path fill="none" stroke="black" d="M936.8,-359.7C936.8,-351.98 936.8,-342.71 936.8,-334.11"/>
<polygon fill="black" stroke="black" points="940.3,-334.1 936.8,-324.1 933.3,-334.1 940.3,-334.1"/>
</g>
<!-- Sequence &#160;&#160;&#160;&#160; -->
<g id="node26" class="node">
<title>Sequence &#160;&#160;&#160;&#160;</title>
<polygon fill="orange" stroke="black" points="1177.8,-324 1115.8,-324 1115.8,-288 1177.8,-288 1177.8,-324"/>
<text text-anchor="middle" x="1146.8" y="-303.8" font-family="Times,serif" font-size="9.00">Sequence</text>
</g>
<!-- Fallback &#160;&#160;&#160;&#160;&#160;&#45;&gt;Sequence &#160;&#160;&#160;&#160; -->
<g id="edge25" class="edge">
<title>Fallback &#160;&#160;&#160;&#160;&#160;&#45;&gt;Sequence &#160;&#160;&#160;&#160;</title>
<path fill="none" stroke="black" d="M967.82,-368.34C1000.2,-359.08 1052.56,-343.48 1105.87,-324.18"/>
<polygon fill="black" stroke="black" points="1107.29,-327.39 1115.48,-320.66 1104.88,-320.81 1107.29,-327.39"/>
</g>
<!-- Fallback &#160;&#160;&#160;&#160;&#160;&#160; -->
<g id="node27" class="node">
<title>Fallback &#160;&#160;&#160;&#160;&#160;&#160;</title>
<polygon fill="cyan" stroke="black" points="978.79,-226.54 978.79,-241.46 958.3,-252 929.31,-252 908.81,-241.46 908.81,-226.54 929.31,-216 958.3,-216 978.79,-226.54"/>
<text text-anchor="middle" x="943.8" y="-231.8" font-family="Times,serif" font-size="9.00">Fallback</text>
</g>
<!-- Sequence &#160;&#160;&#160;&#160;&#45;&gt;Fallback &#160;&#160;&#160;&#160;&#160;&#160; -->
<g id="edge26" class="edge">
<title>Sequence &#160;&#160;&#160;&#160;&#45;&gt;Fallback &#160;&#160;&#160;&#160;&#160;&#160;</title>
<path fill="none" stroke="black" d="M1115.49,-291.31C1112.57,-290.15 1109.64,-289.03 1106.8,-288 1054.85,-269.17 1040.05,-269.97 987.8,-252 985.28,-251.13 982.68,-250.21 980.07,-249.26"/>
<polygon fill="black" stroke="black" points="981.27,-245.97 970.68,-245.75 978.82,-252.53 981.27,-245.97"/>
</g>
<!-- place0 YellowBox [&#45;0.133, 0.0, 0.175] 0.02 KittingBox -->
<g id="node34" class="node">
<title>place0 YellowBox [&#45;0.133, 0.0, 0.175] 0.02 KittingBox</title>
<ellipse fill="lightgray" stroke="black" cx="1151.8" cy="-234" rx="154.96" ry="18"/>
<text text-anchor="middle" x="1151.8" y="-231.8" font-family="Times,serif" font-size="9.00">place0 YellowBox [&#45;0.133, 0.0, 0.175] 0.02 KittingBox</text>
</g>
<!-- Sequence &#160;&#160;&#160;&#160;&#45;&gt;place0 YellowBox [&#45;0.133, 0.0, 0.175] 0.02 KittingBox -->
<g id="edge33" class="edge">
<title>Sequence &#160;&#160;&#160;&#160;&#45;&gt;place0 YellowBox [&#45;0.133, 0.0, 0.175] 0.02 KittingBox</title>
<path fill="none" stroke="black" d="M1148.04,-287.7C1148.59,-279.98 1149.25,-270.71 1149.87,-262.11"/>
<polygon fill="black" stroke="black" points="1153.36,-262.33 1150.58,-252.1 1146.38,-261.83 1153.36,-262.33"/>
</g>
<!-- in_gripper YellowBox -->
<g id="node28" class="node">
<title>in_gripper YellowBox</title>
<ellipse fill="lightgray" stroke="black" cx="885.8" cy="-162" rx="66.29" ry="18"/>
<text text-anchor="middle" x="885.8" y="-159.8" font-family="Times,serif" font-size="9.00">in_gripper YellowBox</text>
</g>
<!-- Fallback &#160;&#160;&#160;&#160;&#160;&#160;&#45;&gt;in_gripper YellowBox -->
<g id="edge27" class="edge">
<title>Fallback &#160;&#160;&#160;&#160;&#160;&#160;&#45;&gt;in_gripper YellowBox</title>
<path fill="none" stroke="black" d="M929.46,-215.7C922.41,-207.18 913.78,-196.76 906.06,-187.45"/>
<polygon fill="black" stroke="black" points="908.65,-185.09 899.57,-179.62 903.26,-189.56 908.65,-185.09"/>
</g>
<!-- Sequence &#160;&#160;&#160;&#160;&#160; -->
<g id="node29" class="node">
<title>Sequence &#160;&#160;&#160;&#160;&#160;</title>
<polygon fill="orange" stroke="black" points="1031.8,-180 969.8,-180 969.8,-144 1031.8,-144 1031.8,-180"/>
<text text-anchor="middle" x="1000.8" y="-159.8" font-family="Times,serif" font-size="9.00">Sequence</text>
</g>
<!-- Fallback &#160;&#160;&#160;&#160;&#160;&#160;&#45;&gt;Sequence &#160;&#160;&#160;&#160;&#160; -->
<g id="edge28" class="edge">
<title>Fallback &#160;&#160;&#160;&#160;&#160;&#160;&#45;&gt;Sequence &#160;&#160;&#160;&#160;&#160;</title>
<path fill="none" stroke="black" d="M957.89,-215.7C964.73,-207.3 973.06,-197.07 980.56,-187.86"/>
<polygon fill="black" stroke="black" points="983.27,-190.07 986.87,-180.1 977.85,-185.65 983.27,-190.07"/>
</g>
<!-- Fallback &#160;&#160;&#160;&#160;&#160;&#160;&#160; -->
<g id="node30" class="node">
<title>Fallback &#160;&#160;&#160;&#160;&#160;&#160;&#160;</title>
<polygon fill="cyan" stroke="black" points="982.79,-82.54 982.79,-97.46 962.3,-108 933.31,-108 912.81,-97.46 912.81,-82.54 933.31,-72 962.3,-72 982.79,-82.54"/>
<text text-anchor="middle" x="947.8" y="-87.8" font-family="Times,serif" font-size="9.00">Fallback</text>
</g>
<!-- Sequence &#160;&#160;&#160;&#160;&#160;&#45;&gt;Fallback &#160;&#160;&#160;&#160;&#160;&#160;&#160; -->
<g id="edge29" class="edge">
<title>Sequence &#160;&#160;&#160;&#160;&#160;&#45;&gt;Fallback &#160;&#160;&#160;&#160;&#160;&#160;&#160;</title>
<path fill="none" stroke="black" d="M987.7,-143.7C981.41,-135.39 973.75,-125.28 966.84,-116.14"/>
<polygon fill="black" stroke="black" points="969.58,-113.96 960.75,-108.1 964,-118.19 969.58,-113.96"/>
</g>
<!-- pick0 YellowBox -->
<g id="node33" class="node">
<title>pick0 YellowBox</title>
<ellipse fill="lightgray" stroke="black" cx="1053.8" cy="-90" rx="53.23" ry="18"/>
<text text-anchor="middle" x="1053.8" y="-87.8" font-family="Times,serif" font-size="9.00">pick0 YellowBox</text>
</g>
<!-- Sequence &#160;&#160;&#160;&#160;&#160;&#45;&gt;pick0 YellowBox -->
<g id="edge32" class="edge">
<title>Sequence &#160;&#160;&#160;&#160;&#160;&#45;&gt;pick0 YellowBox</title>
<path fill="none" stroke="black" d="M1013.9,-143.7C1020.29,-135.27 1028.08,-124.97 1035.08,-115.73"/>
<polygon fill="black" stroke="black" points="1037.97,-117.71 1041.22,-107.62 1032.39,-113.48 1037.97,-117.71"/>
</g>
<!-- gripper_state open &#160; -->
<g id="node31" class="node">
<title>gripper_state open &#160;</title>
<ellipse fill="lightgray" stroke="black" cx="885.8" cy="-18" rx="60.09" ry="18"/>
<text text-anchor="middle" x="885.8" y="-15.8" font-family="Times,serif" font-size="9.00">gripper_state open</text>
</g>
<!-- Fallback &#160;&#160;&#160;&#160;&#160;&#160;&#160;&#45;&gt;gripper_state open &#160; -->
<g id="edge30" class="edge">
<title>Fallback &#160;&#160;&#160;&#160;&#160;&#160;&#160;&#45;&gt;gripper_state open &#160;</title>
<path fill="none" stroke="black" d="M932.79,-72.05C925.18,-63.46 915.79,-52.86 907.41,-43.4"/>
<polygon fill="black" stroke="black" points="909.92,-40.95 900.67,-35.79 904.68,-45.6 909.92,-40.95"/>
</g>
<!-- open_gripper &#160; -->
<g id="node32" class="node">
<title>open_gripper &#160;</title>
<ellipse fill="lightgray" stroke="black" cx="1009.8" cy="-18" rx="45.72" ry="18"/>
<text text-anchor="middle" x="1009.8" y="-15.8" font-family="Times,serif" font-size="9.00">open_gripper</text>
</g>
<!-- Fallback &#160;&#160;&#160;&#160;&#160;&#160;&#160;&#45;&gt;open_gripper &#160; -->
<g id="edge31" class="edge">
<title>Fallback &#160;&#160;&#160;&#160;&#160;&#160;&#160;&#45;&gt;open_gripper &#160;</title>
<path fill="none" stroke="black" d="M962.81,-72.05C970.54,-63.33 980.09,-52.54 988.56,-42.98"/>
<polygon fill="black" stroke="black" points="991.35,-45.11 995.36,-35.31 986.11,-40.47 991.35,-45.11"/>
</g>
</g>
</svg>
