<?xml version="1.0" encoding="UTF-8" standalone="no"?>
<!DOCTYPE svg PUBLIC "-//W3C//DTD SVG 1.1//EN"
 "http://www.w3.org/Graphics/SVG/1.1/DTD/svg11.dtd">
<!-- Generated by graphviz version 2.43.0 (0)
 -->
<!-- Title: pastafarianism Pages: 1 -->
<svg width="1944pt" height="503pt"
 viewBox="0.00 0.00 1943.77 502.60" xmlns="http://www.w3.org/2000/svg" xmlns:xlink="http://www.w3.org/1999/xlink">
<g id="graph0" class="graph" transform="scale(1 1) rotate(0) translate(4 498.6)">
<title>pastafarianism</title>
<polygon fill="white" stroke="transparent" points="-4,4 -4,-498.6 1939.77,-498.6 1939.77,4 -4,4"/>
<!-- selector:
 insert(left_hand, outwardgripper, gear3, shaft3) -->
<g id="node1" class="node">
<title>selector:
 insert(left_hand, outwardgripper, gear3, shaft3)</title>
<polygon fill="#8deeee" stroke="black" points="1202.34,-442.54 1202.34,-473.18 997.89,-494.84 708.76,-494.84 504.31,-473.18 504.31,-442.54 708.76,-420.88 997.89,-420.88 1202.34,-442.54"/>
<text text-anchor="middle" x="853.32" y="-463.46" font-family="Times,serif" font-size="18.00">selector:</text>
<text text-anchor="middle" x="853.32" y="-443.46" font-family="Times,serif" font-size="18.00"> insert(left_hand, outwardgripper, gear3, shaft3)</text>
</g>
<!-- target:
 is_inserted_to(gear3, shaft3) -->
<g id="node2" class="node">
<title>target:
 is_inserted_to(gear3, shaft3)</title>
<ellipse fill="#ffec8b" stroke="black" cx="631.32" cy="-351.18" rx="198.89" ry="33.88"/>
<text text-anchor="middle" x="631.32" y="-356.78" font-family="Times,serif" font-size="18.00">target:</text>
<text text-anchor="middle" x="631.32" y="-336.78" font-family="Times,serif" font-size="18.00"> is_inserted_to(gear3, shaft3)</text>
</g>
<!-- selector:
 insert(left_hand, outwardgripper, gear3, shaft3)&#45;&gt;target:
 is_inserted_to(gear3, shaft3) -->
<g id="edge1" class="edge">
<title>selector:
 insert(left_hand, outwardgripper, gear3, shaft3)&#45;&gt;target:
 is_inserted_to(gear3, shaft3)</title>
<path fill="none" stroke="black" d="M777.24,-420.98C754.4,-410.21 729.37,-398.41 706.59,-387.67"/>
<polygon fill="black" stroke="black" points="707.85,-384.39 697.31,-383.29 704.86,-390.73 707.85,-384.39"/>
</g>
<!-- sequence:
 insert(left_hand, outwardgripper, gear3, shaft3) -->
<g id="node3" class="node">
<title>sequence:
 insert(left_hand, outwardgripper, gear3, shaft3)</title>
<polygon fill="#ff7f24" stroke="black" points="1304.32,-375.18 848.32,-375.18 848.32,-327.18 1304.32,-327.18 1304.32,-375.18"/>
<text text-anchor="middle" x="1076.32" y="-356.78" font-family="Times,serif" font-size="18.00">sequence:</text>
<text text-anchor="middle" x="1076.32" y="-336.78" font-family="Times,serif" font-size="18.00"> insert(left_hand, outwardgripper, gear3, shaft3)</text>
</g>
<!-- selector:
 insert(left_hand, outwardgripper, gear3, shaft3)&#45;&gt;sequence:
 insert(left_hand, outwardgripper, gear3, shaft3) -->
<g id="edge2" class="edge">
<title>selector:
 insert(left_hand, outwardgripper, gear3, shaft3)&#45;&gt;sequence:
 insert(left_hand, outwardgripper, gear3, shaft3)</title>
<path fill="none" stroke="black" d="M929.76,-420.98C958.63,-407.43 990.99,-392.24 1017.95,-379.58"/>
<polygon fill="black" stroke="black" points="1019.68,-382.64 1027.25,-375.22 1016.71,-376.3 1019.68,-382.64"/>
</g>
<!-- selector:
 change_tool(left_hand, clampgripper, outwardgripper) -->
<g id="node4" class="node">
<title>selector:
 change_tool(left_hand, clampgripper, outwardgripper)</title>
<polygon fill="#8deeee" stroke="black" points="862.09,-229.19 862.09,-259.82 632.01,-281.48 306.64,-281.48 76.56,-259.82 76.56,-229.19 306.64,-207.53 632.01,-207.53 862.09,-229.19"/>
<text text-anchor="middle" x="469.32" y="-250.1" font-family="Times,serif" font-size="18.00">selector:</text>
<text text-anchor="middle" x="469.32" y="-230.1" font-family="Times,serif" font-size="18.00"> change_tool(left_hand, clampgripper, outwardgripper)</text>
</g>
<!-- sequence:
 insert(left_hand, outwardgripper, gear3, shaft3)&#45;&gt;selector:
 change_tool(left_hand, clampgripper, outwardgripper) -->
<g id="edge3" class="edge">
<title>sequence:
 insert(left_hand, outwardgripper, gear3, shaft3)&#45;&gt;selector:
 change_tool(left_hand, clampgripper, outwardgripper)</title>
<path fill="none" stroke="black" d="M942.74,-327.14C863.34,-313.45 761.04,-295.81 671.87,-280.43"/>
<polygon fill="black" stroke="black" points="672.35,-276.96 661.9,-278.71 671.16,-283.86 672.35,-276.96"/>
</g>
<!-- precondition:
 hold(outwardgripper, gear3) -->
<g id="node10" class="node">
<title>precondition:
 hold(outwardgripper, gear3)</title>
<ellipse fill="#ffec8b" stroke="black" cx="1076.32" cy="-244.5" rx="196.65" ry="33.88"/>
<text text-anchor="middle" x="1076.32" y="-250.1" font-family="Times,serif" font-size="18.00">precondition:</text>
<text text-anchor="middle" x="1076.32" y="-230.1" font-family="Times,serif" font-size="18.00"> hold(outwardgripper, gear3)</text>
</g>
<!-- sequence:
 insert(left_hand, outwardgripper, gear3, shaft3)&#45;&gt;precondition:
 hold(outwardgripper, gear3) -->
<g id="edge9" class="edge">
<title>sequence:
 insert(left_hand, outwardgripper, gear3, shaft3)&#45;&gt;precondition:
 hold(outwardgripper, gear3)</title>
<path fill="none" stroke="black" d="M1076.32,-326.95C1076.32,-315.73 1076.32,-301.9 1076.32,-288.84"/>
<polygon fill="black" stroke="black" points="1079.82,-288.6 1076.32,-278.6 1072.82,-288.6 1079.82,-288.6"/>
</g>
<!-- action:
 insert(left_hand, outwardgripper, gear3, shaft3) -->
<g id="node11" class="node">
<title>action:
 insert(left_hand, outwardgripper, gear3, shaft3)</title>
<ellipse fill="lightgreen" stroke="black" cx="1613.32" cy="-244.5" rx="322.38" ry="33.88"/>
<text text-anchor="middle" x="1613.32" y="-250.1" font-family="Times,serif" font-size="18.00">action:</text>
<text text-anchor="middle" x="1613.32" y="-230.1" font-family="Times,serif" font-size="18.00"> insert(left_hand, outwardgripper, gear3, shaft3)</text>
</g>
<!-- sequence:
 insert(left_hand, outwardgripper, gear3, shaft3)&#45;&gt;action:
 insert(left_hand, outwardgripper, gear3, shaft3) -->
<g id="edge10" class="edge">
<title>sequence:
 insert(left_hand, outwardgripper, gear3, shaft3)&#45;&gt;action:
 insert(left_hand, outwardgripper, gear3, shaft3)</title>
<path fill="none" stroke="black" d="M1194.5,-327.14C1270.62,-312.31 1370.51,-292.83 1453.65,-276.63"/>
<polygon fill="black" stroke="black" points="1454.56,-280.02 1463.7,-274.67 1453.22,-273.15 1454.56,-280.02"/>
</g>
<!-- target:
 hold(left_hand, outwardgripper) -->
<g id="node5" class="node">
<title>target:
 hold(left_hand, outwardgripper)</title>
<ellipse fill="#ffec8b" stroke="black" cx="221.32" cy="-137.82" rx="221.15" ry="33.88"/>
<text text-anchor="middle" x="221.32" y="-143.42" font-family="Times,serif" font-size="18.00">target:</text>
<text text-anchor="middle" x="221.32" y="-123.42" font-family="Times,serif" font-size="18.00"> hold(left_hand, outwardgripper)</text>
</g>
<!-- selector:
 change_tool(left_hand, clampgripper, outwardgripper)&#45;&gt;target:
 hold(left_hand, outwardgripper) -->
<g id="edge4" class="edge">
<title>selector:
 change_tool(left_hand, clampgripper, outwardgripper)&#45;&gt;target:
 hold(left_hand, outwardgripper)</title>
<path fill="none" stroke="black" d="M384.32,-207.62C358.47,-196.71 330.11,-184.74 304.38,-173.88"/>
<polygon fill="black" stroke="black" points="305.61,-170.6 295.04,-169.94 302.89,-177.05 305.61,-170.6"/>
</g>
<!-- sequence:
 change_tool(left_hand, clampgripper, outwardgripper) -->
<g id="node6" class="node">
<title>sequence:
 change_tool(left_hand, clampgripper, outwardgripper)</title>
<polygon fill="#ff7f24" stroke="black" points="973.82,-161.82 460.82,-161.82 460.82,-113.82 973.82,-113.82 973.82,-161.82"/>
<text text-anchor="middle" x="717.32" y="-143.42" font-family="Times,serif" font-size="18.00">sequence:</text>
<text text-anchor="middle" x="717.32" y="-123.42" font-family="Times,serif" font-size="18.00"> change_tool(left_hand, clampgripper, outwardgripper)</text>
</g>
<!-- selector:
 change_tool(left_hand, clampgripper, outwardgripper)&#45;&gt;sequence:
 change_tool(left_hand, clampgripper, outwardgripper) -->
<g id="edge5" class="edge">
<title>selector:
 change_tool(left_hand, clampgripper, outwardgripper)&#45;&gt;sequence:
 change_tool(left_hand, clampgripper, outwardgripper)</title>
<path fill="none" stroke="black" d="M554.32,-207.62C586.72,-193.95 623.06,-178.61 653.19,-165.89"/>
<polygon fill="black" stroke="black" points="654.89,-168.97 662.75,-161.86 652.17,-162.52 654.89,-168.97"/>
</g>
<!-- precondition:
 hold(left_hand, clampgripper) -->
<g id="node7" class="node">
<title>precondition:
 hold(left_hand, clampgripper)</title>
<ellipse fill="#ffec8b" stroke="black" cx="323.32" cy="-33.94" rx="207.36" ry="33.88"/>
<text text-anchor="middle" x="323.32" y="-39.54" font-family="Times,serif" font-size="18.00">precondition:</text>
<text text-anchor="middle" x="323.32" y="-19.54" font-family="Times,serif" font-size="18.00"> hold(left_hand, clampgripper)</text>
</g>
<!-- sequence:
 change_tool(left_hand, clampgripper, outwardgripper)&#45;&gt;precondition:
 hold(left_hand, clampgripper) -->
<g id="edge6" class="edge">
<title>sequence:
 change_tool(left_hand, clampgripper, outwardgripper)&#45;&gt;precondition:
 hold(left_hand, clampgripper)</title>
<path fill="none" stroke="black" d="M627.92,-113.7C572.75,-99.44 501.35,-80.98 441.54,-65.51"/>
<polygon fill="black" stroke="black" points="442.23,-62.07 431.67,-62.96 440.47,-68.85 442.23,-62.07"/>
</g>
<!-- precondition:
 is_empty(clampgripper) -->
<g id="node8" class="node">
<title>precondition:
 is_empty(clampgripper)</title>
<ellipse fill="#ffec8b" stroke="black" cx="717.32" cy="-33.94" rx="169" ry="33.88"/>
<text text-anchor="middle" x="717.32" y="-39.54" font-family="Times,serif" font-size="18.00">precondition:</text>
<text text-anchor="middle" x="717.32" y="-19.54" font-family="Times,serif" font-size="18.00"> is_empty(clampgripper)</text>
</g>
<!-- sequence:
 change_tool(left_hand, clampgripper, outwardgripper)&#45;&gt;precondition:
 is_empty(clampgripper) -->
<g id="edge7" class="edge">
<title>sequence:
 change_tool(left_hand, clampgripper, outwardgripper)&#45;&gt;precondition:
 is_empty(clampgripper)</title>
<path fill="none" stroke="black" d="M717.32,-113.7C717.32,-103.16 717.32,-90.31 717.32,-78.08"/>
<polygon fill="black" stroke="black" points="720.82,-78.01 717.32,-68.01 713.82,-78.01 720.82,-78.01"/>
</g>
<!-- action:
 change_tool(left_hand, clampgripper, outwardgripper) -->
<g id="node9" class="node">
<title>action:
 change_tool(left_hand, clampgripper, outwardgripper)</title>
<ellipse fill="lightgreen" stroke="black" cx="1267.32" cy="-33.94" rx="362.99" ry="33.88"/>
<text text-anchor="middle" x="1267.32" y="-39.54" font-family="Times,serif" font-size="18.00">action:</text>
<text text-anchor="middle" x="1267.32" y="-19.54" font-family="Times,serif" font-size="18.00"> change_tool(left_hand, clampgripper, outwardgripper)</text>
</g>
<!-- sequence:
 change_tool(left_hand, clampgripper, outwardgripper)&#45;&gt;action:
 change_tool(left_hand, clampgripper, outwardgripper) -->
<g id="edge8" class="edge">
<title>sequence:
 change_tool(left_hand, clampgripper, outwardgripper)&#45;&gt;action:
 change_tool(left_hand, clampgripper, outwardgripper)</title>
<path fill="none" stroke="black" d="M841.78,-113.77C917.53,-99.74 1015.3,-81.63 1098.02,-66.3"/>
<polygon fill="black" stroke="black" points="1098.84,-69.71 1108.03,-64.45 1097.56,-62.83 1098.84,-69.71"/>
</g>
</g>
</svg>
