<?xml version="1.0" encoding="UTF-8" standalone="no"?>
<!DOCTYPE svg PUBLIC "-//W3C//DTD SVG 1.1//EN"
 "http://www.w3.org/Graphics/SVG/1.1/DTD/svg11.dtd">
<!-- Generated by graphviz version 2.43.0 (0)
 -->
<!-- Title: pastafarianism Pages: 1 -->
<svg width="949pt" height="476pt"
 viewBox="0.00 0.00 948.54 476.00" xmlns="http://www.w3.org/2000/svg" xmlns:xlink="http://www.w3.org/1999/xlink">
<g id="graph0" class="graph" transform="scale(1 1) rotate(0) translate(4 472)">
<title>pastafarianism</title>
<polygon fill="white" stroke="transparent" points="-4,4 -4,-472 944.54,-472 944.54,4 -4,4"/>
<!-- Sequence -->
<g id="node1" class="node">
<title>Sequence</title>
<polygon fill="orange" stroke="black" points="611.13,-468 549.13,-468 549.13,-432 611.13,-432 611.13,-468"/>
<text text-anchor="middle" x="580.13" y="-447.8" font-family="Times,serif" font-size="9.00">Sequence</text>
</g>
<!-- Fallback -->
<g id="node2" class="node">
<title>Fallback</title>
<polygon fill="cyan" stroke="black" points="370.12,-370.54 370.12,-385.46 349.62,-396 320.63,-396 300.14,-385.46 300.14,-370.54 320.63,-360 349.62,-360 370.12,-370.54"/>
<text text-anchor="middle" x="335.13" y="-375.8" font-family="Times,serif" font-size="9.00">Fallback</text>
</g>
<!-- Sequence&#45;&gt;Fallback -->
<g id="edge1" class="edge">
<title>Sequence&#45;&gt;Fallback</title>
<path fill="none" stroke="black" d="M549.1,-440.13C505.1,-427.56 424.53,-404.54 375.8,-390.62"/>
<polygon fill="black" stroke="black" points="376.48,-387.18 365.9,-387.79 374.56,-393.91 376.48,-387.18"/>
</g>
<!-- Fallback &#160;&#160;&#160; -->
<g id="node14" class="node">
<title>Fallback &#160;&#160;&#160;</title>
<polygon fill="cyan" stroke="black" points="561.12,-370.54 561.12,-385.46 540.62,-396 511.63,-396 491.14,-385.46 491.14,-370.54 511.63,-360 540.62,-360 561.12,-370.54"/>
<text text-anchor="middle" x="526.13" y="-375.8" font-family="Times,serif" font-size="9.00">Fallback</text>
</g>
<!-- Sequence&#45;&gt;Fallback &#160;&#160;&#160; -->
<g id="edge13" class="edge">
<title>Sequence&#45;&gt;Fallback &#160;&#160;&#160;</title>
<path fill="none" stroke="black" d="M566.78,-431.7C560.37,-423.39 552.57,-413.28 545.52,-404.14"/>
<polygon fill="black" stroke="black" points="548.2,-401.88 539.32,-396.1 542.66,-406.16 548.2,-401.88"/>
</g>
<!-- In gripper none? -->
<g id="node28" class="node">
<title>In gripper none?</title>
<ellipse fill="lightgray" stroke="black" cx="634.13" cy="-378" rx="54.7" ry="18"/>
<text text-anchor="middle" x="634.13" y="-375.8" font-family="Times,serif" font-size="9.00">In gripper none?</text>
</g>
<!-- Sequence&#45;&gt;In gripper none? -->
<g id="edge27" class="edge">
<title>Sequence&#45;&gt;In gripper none?</title>
<path fill="none" stroke="black" d="M593.48,-431.7C599.98,-423.27 607.92,-412.97 615.05,-403.73"/>
<polygon fill="black" stroke="black" points="617.97,-405.68 621.3,-395.62 612.43,-401.4 617.97,-405.68"/>
</g>
<!-- Fallback &#160;&#160;&#160;&#160;&#160;&#160;&#160; -->
<g id="node29" class="node">
<title>Fallback &#160;&#160;&#160;&#160;&#160;&#160;&#160;</title>
<polygon fill="cyan" stroke="black" points="795.12,-370.54 795.12,-385.46 774.62,-396 745.63,-396 725.14,-385.46 725.14,-370.54 745.63,-360 774.62,-360 795.12,-370.54"/>
<text text-anchor="middle" x="760.13" y="-375.8" font-family="Times,serif" font-size="9.00">Fallback</text>
</g>
<!-- Sequence&#45;&gt;Fallback &#160;&#160;&#160;&#160;&#160;&#160;&#160; -->
<g id="edge28" class="edge">
<title>Sequence&#45;&gt;Fallback &#160;&#160;&#160;&#160;&#160;&#160;&#160;</title>
<path fill="none" stroke="black" d="M611.48,-436.81C642.61,-424.7 690.31,-406.15 723.24,-393.34"/>
<polygon fill="black" stroke="black" points="724.9,-396.45 732.95,-389.57 722.37,-389.93 724.9,-396.45"/>
</g>
<!-- GreenBox roughly at p1 in base_link? -->
<g id="node3" class="node">
<title>GreenBox roughly at p1 in base_link?</title>
<ellipse fill="lightgray" stroke="black" cx="176.13" cy="-306" rx="110.05" ry="18"/>
<text text-anchor="middle" x="176.13" y="-303.8" font-family="Times,serif" font-size="9.00">GreenBox roughly at p1 in base_link?</text>
</g>
<!-- Fallback&#45;&gt;GreenBox roughly at p1 in base_link? -->
<g id="edge2" class="edge">
<title>Fallback&#45;&gt;GreenBox roughly at p1 in base_link?</title>
<path fill="none" stroke="black" d="M309.23,-365.6C285.67,-355.23 250.35,-339.68 222.02,-327.2"/>
<polygon fill="black" stroke="black" points="223.27,-323.93 212.7,-323.1 220.45,-330.34 223.27,-323.93"/>
</g>
<!-- Sequence  -->
<g id="node4" class="node">
<title>Sequence </title>
<polygon fill="orange" stroke="black" points="366.13,-324 304.13,-324 304.13,-288 366.13,-288 366.13,-324"/>
<text text-anchor="middle" x="335.13" y="-303.8" font-family="Times,serif" font-size="9.00">Sequence</text>
</g>
<!-- Fallback&#45;&gt;Sequence  -->
<g id="edge3" class="edge">
<title>Fallback&#45;&gt;Sequence </title>
<path fill="none" stroke="black" d="M335.13,-359.7C335.13,-351.98 335.13,-342.71 335.13,-334.11"/>
<polygon fill="black" stroke="black" points="338.63,-334.1 335.13,-324.1 331.63,-334.1 338.63,-334.1"/>
</g>
<!-- Fallback  -->
<g id="node5" class="node">
<title>Fallback </title>
<polygon fill="cyan" stroke="black" points="220.12,-226.54 220.12,-241.46 199.62,-252 170.63,-252 150.14,-241.46 150.14,-226.54 170.63,-216 199.62,-216 220.12,-226.54"/>
<text text-anchor="middle" x="185.13" y="-231.8" font-family="Times,serif" font-size="9.00">Fallback</text>
</g>
<!-- Sequence &#45;&gt;Fallback  -->
<g id="edge4" class="edge">
<title>Sequence &#45;&gt;Fallback </title>
<path fill="none" stroke="black" d="M304.05,-290.5C279.39,-278.99 244.96,-262.92 219.49,-251.04"/>
<polygon fill="black" stroke="black" points="220.75,-247.76 210.21,-246.7 217.79,-254.1 220.75,-247.76"/>
</g>
<!-- Fallback &#160;&#160; -->
<g id="node12" class="node">
<title>Fallback &#160;&#160;</title>
<polygon fill="cyan" stroke="black" points="370.12,-226.54 370.12,-241.46 349.62,-252 320.63,-252 300.14,-241.46 300.14,-226.54 320.63,-216 349.62,-216 370.12,-226.54"/>
<text text-anchor="middle" x="335.13" y="-231.8" font-family="Times,serif" font-size="9.00">Fallback</text>
</g>
<!-- Sequence &#45;&gt;Fallback &#160;&#160; -->
<g id="edge11" class="edge">
<title>Sequence &#45;&gt;Fallback &#160;&#160;</title>
<path fill="none" stroke="black" d="M335.13,-287.7C335.13,-279.98 335.13,-270.71 335.13,-262.11"/>
<polygon fill="black" stroke="black" points="338.63,-262.1 335.13,-252.1 331.63,-262.1 338.63,-262.1"/>
</g>
<!-- In gripper GreenBox? -->
<g id="node6" class="node">
<title>In gripper GreenBox?</title>
<ellipse fill="lightgray" stroke="black" cx="68.13" cy="-162" rx="68.25" ry="18"/>
<text text-anchor="middle" x="68.13" y="-159.8" font-family="Times,serif" font-size="9.00">In gripper GreenBox?</text>
</g>
<!-- Fallback &#45;&gt;In gripper GreenBox? -->
<g id="edge5" class="edge">
<title>Fallback &#45;&gt;In gripper GreenBox?</title>
<path fill="none" stroke="black" d="M163.12,-219.83C146.24,-209.74 122.62,-195.6 103.15,-183.96"/>
<polygon fill="black" stroke="black" points="104.92,-180.93 94.54,-178.8 101.33,-186.94 104.92,-180.93"/>
</g>
<!-- Sequence &#160; -->
<g id="node7" class="node">
<title>Sequence &#160;</title>
<polygon fill="orange" stroke="black" points="216.13,-180 154.13,-180 154.13,-144 216.13,-144 216.13,-180"/>
<text text-anchor="middle" x="185.13" y="-159.8" font-family="Times,serif" font-size="9.00">Sequence</text>
</g>
<!-- Fallback &#45;&gt;Sequence &#160; -->
<g id="edge6" class="edge">
<title>Fallback &#45;&gt;Sequence &#160;</title>
<path fill="none" stroke="black" d="M185.13,-215.7C185.13,-207.98 185.13,-198.71 185.13,-190.11"/>
<polygon fill="black" stroke="black" points="188.63,-190.1 185.13,-180.1 181.63,-190.1 188.63,-190.1"/>
</g>
<!-- Fallback &#160; -->
<g id="node8" class="node">
<title>Fallback &#160;</title>
<polygon fill="cyan" stroke="black" points="169.12,-82.54 169.12,-97.46 148.62,-108 119.63,-108 99.14,-97.46 99.14,-82.54 119.63,-72 148.62,-72 169.12,-82.54"/>
<text text-anchor="middle" x="134.13" y="-87.8" font-family="Times,serif" font-size="9.00">Fallback</text>
</g>
<!-- Sequence &#160;&#45;&gt;Fallback &#160; -->
<g id="edge7" class="edge">
<title>Sequence &#160;&#45;&gt;Fallback &#160;</title>
<path fill="none" stroke="black" d="M172.52,-143.7C166.53,-135.47 159.25,-125.48 152.65,-116.42"/>
<polygon fill="black" stroke="black" points="155.31,-114.13 146.59,-108.1 149.65,-118.25 155.31,-114.13"/>
</g>
<!-- Pick GreenBox -->
<g id="node11" class="node">
<title>Pick GreenBox</title>
<ellipse fill="lightgray" stroke="black" cx="236.13" cy="-90" rx="49.15" ry="18"/>
<text text-anchor="middle" x="236.13" y="-87.8" font-family="Times,serif" font-size="9.00">Pick GreenBox</text>
</g>
<!-- Sequence &#160;&#45;&gt;Pick GreenBox -->
<g id="edge10" class="edge">
<title>Sequence &#160;&#45;&gt;Pick GreenBox</title>
<path fill="none" stroke="black" d="M197.73,-143.7C203.88,-135.27 211.37,-124.97 218.11,-115.73"/>
<polygon fill="black" stroke="black" points="220.96,-117.77 224.02,-107.62 215.3,-113.64 220.96,-117.77"/>
</g>
<!-- Gripper open? -->
<g id="node9" class="node">
<title>Gripper open?</title>
<ellipse fill="lightgray" stroke="black" cx="74.13" cy="-18" rx="47.84" ry="18"/>
<text text-anchor="middle" x="74.13" y="-15.8" font-family="Times,serif" font-size="9.00">Gripper open?</text>
</g>
<!-- Fallback &#160;&#45;&gt;Gripper open? -->
<g id="edge8" class="edge">
<title>Fallback &#160;&#45;&gt;Gripper open?</title>
<path fill="none" stroke="black" d="M119.3,-71.7C112,-63.18 103.07,-52.76 95.08,-43.45"/>
<polygon fill="black" stroke="black" points="97.54,-40.94 88.38,-35.62 92.23,-45.49 97.54,-40.94"/>
</g>
<!-- Set gripper open -->
<g id="node10" class="node">
<title>Set gripper open</title>
<ellipse fill="lightgray" stroke="black" cx="195.13" cy="-18" rx="54.7" ry="18"/>
<text text-anchor="middle" x="195.13" y="-15.8" font-family="Times,serif" font-size="9.00">Set gripper open</text>
</g>
<!-- Fallback &#160;&#45;&gt;Set gripper open -->
<g id="edge9" class="edge">
<title>Fallback &#160;&#45;&gt;Set gripper open</title>
<path fill="none" stroke="black" d="M148.89,-72.05C156.39,-63.46 165.62,-52.86 173.87,-43.4"/>
<polygon fill="black" stroke="black" points="176.57,-45.63 180.5,-35.79 171.29,-41.03 176.57,-45.63"/>
</g>
<!-- Place GreenBox at p1 in base_link -->
<g id="node13" class="node">
<title>Place GreenBox at p1 in base_link</title>
<ellipse fill="lightgray" stroke="black" cx="335.13" cy="-162" rx="101.07" ry="18"/>
<text text-anchor="middle" x="335.13" y="-159.8" font-family="Times,serif" font-size="9.00">Place GreenBox at p1 in base_link</text>
</g>
<!-- Fallback &#160;&#160;&#45;&gt;Place GreenBox at p1 in base_link -->
<g id="edge12" class="edge">
<title>Fallback &#160;&#160;&#45;&gt;Place GreenBox at p1 in base_link</title>
<path fill="none" stroke="black" d="M335.13,-215.7C335.13,-207.98 335.13,-198.71 335.13,-190.11"/>
<polygon fill="black" stroke="black" points="338.63,-190.1 335.13,-180.1 331.63,-190.1 338.63,-190.1"/>
</g>
<!-- BlueBox roughly at p2 in base_link? -->
<g id="node15" class="node">
<title>BlueBox roughly at p2 in base_link?</title>
<ellipse fill="lightgray" stroke="black" cx="508.13" cy="-306" rx="105.81" ry="18"/>
<text text-anchor="middle" x="508.13" y="-303.8" font-family="Times,serif" font-size="9.00">BlueBox roughly at p2 in base_link?</text>
</g>
<!-- Fallback &#160;&#160;&#160;&#45;&gt;BlueBox roughly at p2 in base_link? -->
<g id="edge14" class="edge">
<title>Fallback &#160;&#160;&#160;&#45;&gt;BlueBox roughly at p2 in base_link?</title>
<path fill="none" stroke="black" d="M521.68,-359.7C519.67,-351.9 517.26,-342.51 515.03,-333.83"/>
<polygon fill="black" stroke="black" points="518.41,-332.92 512.53,-324.1 511.63,-334.66 518.41,-332.92"/>
</g>
<!-- Sequence &#160;&#160; -->
<g id="node16" class="node">
<title>Sequence &#160;&#160;</title>
<polygon fill="orange" stroke="black" points="694.13,-324 632.13,-324 632.13,-288 694.13,-288 694.13,-324"/>
<text text-anchor="middle" x="663.13" y="-303.8" font-family="Times,serif" font-size="9.00">Sequence</text>
</g>
<!-- Fallback &#160;&#160;&#160;&#45;&gt;Sequence &#160;&#160; -->
<g id="edge15" class="edge">
<title>Fallback &#160;&#160;&#160;&#45;&gt;Sequence &#160;&#160;</title>
<path fill="none" stroke="black" d="M549.99,-364.81C570.09,-354.54 599.27,-339.63 622.97,-327.52"/>
<polygon fill="black" stroke="black" points="624.76,-330.53 632.08,-322.86 621.58,-324.3 624.76,-330.53"/>
</g>
<!-- Fallback &#160;&#160;&#160;&#160; -->
<g id="node17" class="node">
<title>Fallback &#160;&#160;&#160;&#160;</title>
<polygon fill="cyan" stroke="black" points="553.12,-226.54 553.12,-241.46 532.62,-252 503.63,-252 483.14,-241.46 483.14,-226.54 503.63,-216 532.62,-216 553.12,-226.54"/>
<text text-anchor="middle" x="518.13" y="-231.8" font-family="Times,serif" font-size="9.00">Fallback</text>
</g>
<!-- Sequence &#160;&#160;&#45;&gt;Fallback &#160;&#160;&#160;&#160; -->
<g id="edge16" class="edge">
<title>Sequence &#160;&#160;&#45;&gt;Fallback &#160;&#160;&#160;&#160;</title>
<path fill="none" stroke="black" d="M632.02,-289.98C608.51,-278.63 576.27,-263.07 552.09,-251.4"/>
<polygon fill="black" stroke="black" points="553.46,-248.17 542.93,-246.97 550.41,-254.47 553.46,-248.17"/>
</g>
<!-- GreenBox roughly at p1 in base_link? &#160; -->
<g id="node25" class="node">
<title>GreenBox roughly at p1 in base_link? &#160;</title>
<ellipse fill="lightgray" stroke="black" cx="681.13" cy="-234" rx="110.05" ry="18"/>
<text text-anchor="middle" x="681.13" y="-231.8" font-family="Times,serif" font-size="9.00">GreenBox roughly at p1 in base_link?</text>
</g>
<!-- Sequence &#160;&#160;&#45;&gt;GreenBox roughly at p1 in base_link? &#160; -->
<g id="edge24" class="edge">
<title>Sequence &#160;&#160;&#45;&gt;GreenBox roughly at p1 in base_link? &#160;</title>
<path fill="none" stroke="black" d="M667.58,-287.7C669.58,-279.9 672,-270.51 674.23,-261.83"/>
<polygon fill="black" stroke="black" points="677.63,-262.66 676.73,-252.1 670.85,-260.92 677.63,-262.66"/>
</g>
<!-- Fallback &#160;&#160;&#160;&#160;&#160;&#160; -->
<g id="node26" class="node">
<title>Fallback &#160;&#160;&#160;&#160;&#160;&#160;</title>
<polygon fill="cyan" stroke="black" points="879.12,-226.54 879.12,-241.46 858.62,-252 829.63,-252 809.14,-241.46 809.14,-226.54 829.63,-216 858.62,-216 879.12,-226.54"/>
<text text-anchor="middle" x="844.13" y="-231.8" font-family="Times,serif" font-size="9.00">Fallback</text>
</g>
<!-- Sequence &#160;&#160;&#45;&gt;Fallback &#160;&#160;&#160;&#160;&#160;&#160; -->
<g id="edge25" class="edge">
<title>Sequence &#160;&#160;&#45;&gt;Fallback &#160;&#160;&#160;&#160;&#160;&#160;</title>
<path fill="none" stroke="black" d="M694.51,-291.5C697.42,-290.3 700.32,-289.12 703.13,-288 745.85,-271 757.12,-268.29 800.13,-252 802.47,-251.11 804.89,-250.19 807.32,-249.26"/>
<polygon fill="black" stroke="black" points="808.61,-252.52 816.69,-245.67 806.1,-245.98 808.61,-252.52"/>
</g>
<!-- In gripper BlueBox? -->
<g id="node18" class="node">
<title>In gripper BlueBox?</title>
<ellipse fill="lightgray" stroke="black" cx="518.13" cy="-162" rx="63.52" ry="18"/>
<text text-anchor="middle" x="518.13" y="-159.8" font-family="Times,serif" font-size="9.00">In gripper BlueBox?</text>
</g>
<!-- Fallback &#160;&#160;&#160;&#160;&#45;&gt;In gripper BlueBox? -->
<g id="edge17" class="edge">
<title>Fallback &#160;&#160;&#160;&#160;&#45;&gt;In gripper BlueBox?</title>
<path fill="none" stroke="black" d="M518.13,-215.7C518.13,-207.98 518.13,-198.71 518.13,-190.11"/>
<polygon fill="black" stroke="black" points="521.63,-190.1 518.13,-180.1 514.63,-190.1 521.63,-190.1"/>
</g>
<!-- Sequence &#160;&#160;&#160; -->
<g id="node19" class="node">
<title>Sequence &#160;&#160;&#160;</title>
<polygon fill="orange" stroke="black" points="662.13,-180 600.13,-180 600.13,-144 662.13,-144 662.13,-180"/>
<text text-anchor="middle" x="631.13" y="-159.8" font-family="Times,serif" font-size="9.00">Sequence</text>
</g>
<!-- Fallback &#160;&#160;&#160;&#160;&#45;&gt;Sequence &#160;&#160;&#160; -->
<g id="edge18" class="edge">
<title>Fallback &#160;&#160;&#160;&#160;&#45;&gt;Sequence &#160;&#160;&#160;</title>
<path fill="none" stroke="black" d="M539.91,-219.5C555.46,-209.88 576.72,-196.7 594.81,-185.5"/>
<polygon fill="black" stroke="black" points="596.74,-188.42 603.39,-180.18 593.05,-182.47 596.74,-188.42"/>
</g>
<!-- GreenBox roughly at p1 in base_link?  -->
<g id="node20" class="node">
<title>GreenBox roughly at p1 in base_link? </title>
<ellipse fill="lightgray" stroke="black" cx="468.13" cy="-90" rx="110.05" ry="18"/>
<text text-anchor="middle" x="468.13" y="-87.8" font-family="Times,serif" font-size="9.00">GreenBox roughly at p1 in base_link?</text>
</g>
<!-- Sequence &#160;&#160;&#160;&#45;&gt;GreenBox roughly at p1 in base_link?  -->
<g id="edge19" class="edge">
<title>Sequence &#160;&#160;&#160;&#45;&gt;GreenBox roughly at p1 in base_link? </title>
<path fill="none" stroke="black" d="M600.08,-147.67C575.96,-137.31 542.1,-122.77 514.73,-111.01"/>
<polygon fill="black" stroke="black" points="515.91,-107.71 505.34,-106.98 513.15,-114.14 515.91,-107.71"/>
</g>
<!-- Fallback &#160;&#160;&#160;&#160;&#160; -->
<g id="node21" class="node">
<title>Fallback &#160;&#160;&#160;&#160;&#160;</title>
<polygon fill="cyan" stroke="black" points="666.12,-82.54 666.12,-97.46 645.62,-108 616.63,-108 596.14,-97.46 596.14,-82.54 616.63,-72 645.62,-72 666.12,-82.54"/>
<text text-anchor="middle" x="631.13" y="-87.8" font-family="Times,serif" font-size="9.00">Fallback</text>
</g>
<!-- Sequence &#160;&#160;&#160;&#45;&gt;Fallback &#160;&#160;&#160;&#160;&#160; -->
<g id="edge20" class="edge">
<title>Sequence &#160;&#160;&#160;&#45;&gt;Fallback &#160;&#160;&#160;&#160;&#160;</title>
<path fill="none" stroke="black" d="M631.13,-143.7C631.13,-135.98 631.13,-126.71 631.13,-118.11"/>
<polygon fill="black" stroke="black" points="634.63,-118.1 631.13,-108.1 627.63,-118.1 634.63,-118.1"/>
</g>
<!-- Pick BlueBox -->
<g id="node24" class="node">
<title>Pick BlueBox</title>
<ellipse fill="lightgray" stroke="black" cx="728.13" cy="-90" rx="44.41" ry="18"/>
<text text-anchor="middle" x="728.13" y="-87.8" font-family="Times,serif" font-size="9.00">Pick BlueBox</text>
</g>
<!-- Sequence &#160;&#160;&#160;&#45;&gt;Pick BlueBox -->
<g id="edge23" class="edge">
<title>Sequence &#160;&#160;&#160;&#45;&gt;Pick BlueBox</title>
<path fill="none" stroke="black" d="M655.1,-143.7C668.39,-134.11 685.01,-122.11 699.04,-111.99"/>
<polygon fill="black" stroke="black" points="701.32,-114.66 707.38,-105.97 697.23,-108.98 701.32,-114.66"/>
</g>
<!-- Gripper open?  -->
<g id="node22" class="node">
<title>Gripper open? </title>
<ellipse fill="lightgray" stroke="black" cx="570.13" cy="-18" rx="47.84" ry="18"/>
<text text-anchor="middle" x="570.13" y="-15.8" font-family="Times,serif" font-size="9.00">Gripper open?</text>
</g>
<!-- Fallback &#160;&#160;&#160;&#160;&#160;&#45;&gt;Gripper open?  -->
<g id="edge21" class="edge">
<title>Fallback &#160;&#160;&#160;&#160;&#160;&#45;&gt;Gripper open? </title>
<path fill="none" stroke="black" d="M616.36,-72.05C608.76,-63.33 599.36,-52.54 591.02,-42.98"/>
<polygon fill="black" stroke="black" points="593.55,-40.55 584.34,-35.31 588.27,-45.15 593.55,-40.55"/>
</g>
<!-- Set gripper open  -->
<g id="node23" class="node">
<title>Set gripper open </title>
<ellipse fill="lightgray" stroke="black" cx="691.13" cy="-18" rx="54.7" ry="18"/>
<text text-anchor="middle" x="691.13" y="-15.8" font-family="Times,serif" font-size="9.00">Set gripper open</text>
</g>
<!-- Fallback &#160;&#160;&#160;&#160;&#160;&#45;&gt;Set gripper open  -->
<g id="edge22" class="edge">
<title>Fallback &#160;&#160;&#160;&#160;&#160;&#45;&gt;Set gripper open </title>
<path fill="none" stroke="black" d="M645.96,-71.7C653.26,-63.18 662.19,-52.76 670.17,-43.45"/>
<polygon fill="black" stroke="black" points="673.03,-45.49 676.88,-35.62 667.71,-40.94 673.03,-45.49"/>
</g>
<!-- Place BlueBox at p2 in base_link -->
<g id="node27" class="node">
<title>Place BlueBox at p2 in base_link</title>
<ellipse fill="lightgray" stroke="black" cx="844.13" cy="-162" rx="96.34" ry="18"/>
<text text-anchor="middle" x="844.13" y="-159.8" font-family="Times,serif" font-size="9.00">Place BlueBox at p2 in base_link</text>
</g>
<!-- Fallback &#160;&#160;&#160;&#160;&#160;&#160;&#45;&gt;Place BlueBox at p2 in base_link -->
<g id="edge26" class="edge">
<title>Fallback &#160;&#160;&#160;&#160;&#160;&#160;&#45;&gt;Place BlueBox at p2 in base_link</title>
<path fill="none" stroke="black" d="M844.13,-215.7C844.13,-207.98 844.13,-198.71 844.13,-190.11"/>
<polygon fill="black" stroke="black" points="847.63,-190.1 844.13,-180.1 840.63,-190.1 847.63,-190.1"/>
</g>
<!-- Gripper open? &#160; -->
<g id="node30" class="node">
<title>Gripper open? &#160;</title>
<ellipse fill="lightgray" stroke="black" cx="760.13" cy="-306" rx="47.84" ry="18"/>
<text text-anchor="middle" x="760.13" y="-303.8" font-family="Times,serif" font-size="9.00">Gripper open?</text>
</g>
<!-- Fallback &#160;&#160;&#160;&#160;&#160;&#160;&#160;&#45;&gt;Gripper open? &#160; -->
<g id="edge29" class="edge">
<title>Fallback &#160;&#160;&#160;&#160;&#160;&#160;&#160;&#45;&gt;Gripper open? &#160;</title>
<path fill="none" stroke="black" d="M760.13,-359.7C760.13,-351.98 760.13,-342.71 760.13,-334.11"/>
<polygon fill="black" stroke="black" points="763.63,-334.1 760.13,-324.1 756.63,-334.1 763.63,-334.1"/>
</g>
<!-- Set gripper open &#160; -->
<g id="node31" class="node">
<title>Set gripper open &#160;</title>
<ellipse fill="lightgray" stroke="black" cx="881.13" cy="-306" rx="54.7" ry="18"/>
<text text-anchor="middle" x="881.13" y="-303.8" font-family="Times,serif" font-size="9.00">Set gripper open</text>
</g>
<!-- Fallback &#160;&#160;&#160;&#160;&#160;&#160;&#160;&#45;&gt;Set gripper open &#160; -->
<g id="edge30" class="edge">
<title>Fallback &#160;&#160;&#160;&#160;&#160;&#160;&#160;&#45;&gt;Set gripper open &#160;</title>
<path fill="none" stroke="black" d="M782.6,-364C800.46,-353.67 825.76,-339.03 846.25,-327.18"/>
<polygon fill="black" stroke="black" points="848.08,-330.16 854.99,-322.12 844.58,-324.1 848.08,-330.16"/>
</g>
</g>
</svg>
