<?xml version="1.0" encoding="UTF-8" standalone="no"?>
<!DOCTYPE svg PUBLIC "-//W3C//DTD SVG 1.1//EN"
 "http://www.w3.org/Graphics/SVG/1.1/DTD/svg11.dtd">
<!-- Generated by graphviz version 2.43.0 (0)
 -->
<!-- Title: pastafarianism Pages: 1 -->
<svg width="2062pt" height="716pt"
 viewBox="0.00 0.00 2062.10 715.95" xmlns="http://www.w3.org/2000/svg" xmlns:xlink="http://www.w3.org/1999/xlink">
<g id="graph0" class="graph" transform="scale(1 1) rotate(0) translate(4 711.95)">
<title>pastafarianism</title>
<polygon fill="white" stroke="transparent" points="-4,4 -4,-711.95 2058.1,-711.95 2058.1,4 -4,4"/>
<!-- selector:
 screw(left_hand, clampgripper, lampbulb, lampbase) -->
<g id="node1" class="node">
<title>selector:
 screw(left_hand, clampgripper, lampbulb, lampbase)</title>
<polygon fill="#8deeee" stroke="black" points="1250.41,-655.9 1250.41,-686.53 1026.13,-708.19 708.96,-708.19 484.68,-686.53 484.68,-655.9 708.96,-634.24 1026.13,-634.24 1250.41,-655.9"/>
<text text-anchor="middle" x="867.55" y="-676.82" font-family="Times,serif" font-size="18.00">selector:</text>
<text text-anchor="middle" x="867.55" y="-656.82" font-family="Times,serif" font-size="18.00"> screw(left_hand, clampgripper, lampbulb, lampbase)</text>
</g>
<!-- target:
 is_screwed_to(lampbulb, lampbase) -->
<g id="node2" class="node">
<title>target:
 is_screwed_to(lampbulb, lampbase)</title>
<ellipse fill="#ffec8b" stroke="black" cx="611.55" cy="-564.54" rx="243.9" ry="33.88"/>
<text text-anchor="middle" x="611.55" y="-570.14" font-family="Times,serif" font-size="18.00">target:</text>
<text text-anchor="middle" x="611.55" y="-550.14" font-family="Times,serif" font-size="18.00"> is_screwed_to(lampbulb, lampbase)</text>
</g>
<!-- selector:
 screw(left_hand, clampgripper, lampbulb, lampbase)&#45;&gt;target:
 is_screwed_to(lampbulb, lampbase) -->
<g id="edge1" class="edge">
<title>selector:
 screw(left_hand, clampgripper, lampbulb, lampbase)&#45;&gt;target:
 is_screwed_to(lampbulb, lampbase)</title>
<path fill="none" stroke="black" d="M779.8,-634.34C753.13,-623.43 723.86,-611.47 697.32,-600.61"/>
<polygon fill="black" stroke="black" points="698.64,-597.37 688.06,-596.82 695.99,-603.85 698.64,-597.37"/>
</g>
<!-- sequence:
 screw(left_hand, clampgripper, lampbulb, lampbase) -->
<g id="node3" class="node">
<title>sequence:
 screw(left_hand, clampgripper, lampbulb, lampbase)</title>
<polygon fill="#ff7f24" stroke="black" points="1373.55,-588.54 873.55,-588.54 873.55,-540.54 1373.55,-540.54 1373.55,-588.54"/>
<text text-anchor="middle" x="1123.55" y="-570.14" font-family="Times,serif" font-size="18.00">sequence:</text>
<text text-anchor="middle" x="1123.55" y="-550.14" font-family="Times,serif" font-size="18.00"> screw(left_hand, clampgripper, lampbulb, lampbase)</text>
</g>
<!-- selector:
 screw(left_hand, clampgripper, lampbulb, lampbase)&#45;&gt;sequence:
 screw(left_hand, clampgripper, lampbulb, lampbase) -->
<g id="edge2" class="edge">
<title>selector:
 screw(left_hand, clampgripper, lampbulb, lampbase)&#45;&gt;sequence:
 screw(left_hand, clampgripper, lampbulb, lampbase)</title>
<path fill="none" stroke="black" d="M955.29,-634.34C988.87,-620.61 1026.56,-605.19 1057.75,-592.44"/>
<polygon fill="black" stroke="black" points="1059.28,-595.6 1067.21,-588.58 1056.63,-589.12 1059.28,-595.6"/>
</g>
<!-- selector:
 change_tool(left_hand, defaultgripper, clampgripper) -->
<g id="node4" class="node">
<title>selector:
 change_tool(left_hand, defaultgripper, clampgripper)</title>
<polygon fill="#8deeee" stroke="black" points="899.97,-442.54 899.97,-473.18 674.78,-494.84 356.31,-494.84 131.12,-473.18 131.12,-442.54 356.31,-420.88 674.78,-420.88 899.97,-442.54"/>
<text text-anchor="middle" x="515.55" y="-463.46" font-family="Times,serif" font-size="18.00">selector:</text>
<text text-anchor="middle" x="515.55" y="-443.46" font-family="Times,serif" font-size="18.00"> change_tool(left_hand, defaultgripper, clampgripper)</text>
</g>
<!-- sequence:
 screw(left_hand, clampgripper, lampbulb, lampbase)&#45;&gt;selector:
 change_tool(left_hand, defaultgripper, clampgripper) -->
<g id="edge3" class="edge">
<title>sequence:
 screw(left_hand, clampgripper, lampbulb, lampbase)&#45;&gt;selector:
 change_tool(left_hand, defaultgripper, clampgripper)</title>
<path fill="none" stroke="black" d="M989.74,-540.5C909.7,-526.72 806.44,-508.94 716.73,-493.5"/>
<polygon fill="black" stroke="black" points="717.14,-490.02 706.7,-491.77 715.96,-496.92 717.14,-490.02"/>
</g>
<!-- precondition:
 hold(clampgripper, lampbulb) -->
<g id="node15" class="node">
<title>precondition:
 hold(clampgripper, lampbulb)</title>
<ellipse fill="#ffec8b" stroke="black" cx="1123.55" cy="-457.86" rx="205.54" ry="33.88"/>
<text text-anchor="middle" x="1123.55" y="-463.46" font-family="Times,serif" font-size="18.00">precondition:</text>
<text text-anchor="middle" x="1123.55" y="-443.46" font-family="Times,serif" font-size="18.00"> hold(clampgripper, lampbulb)</text>
</g>
<!-- sequence:
 screw(left_hand, clampgripper, lampbulb, lampbase)&#45;&gt;precondition:
 hold(clampgripper, lampbulb) -->
<g id="edge14" class="edge">
<title>sequence:
 screw(left_hand, clampgripper, lampbulb, lampbase)&#45;&gt;precondition:
 hold(clampgripper, lampbulb)</title>
<path fill="none" stroke="black" d="M1123.55,-540.31C1123.55,-529.09 1123.55,-515.26 1123.55,-502.2"/>
<polygon fill="black" stroke="black" points="1127.05,-501.95 1123.55,-491.95 1120.05,-501.95 1127.05,-501.95"/>
</g>
<!-- action:
 screw(left_hand, clampgripper, lampbulb, lampbase) -->
<g id="node16" class="node">
<title>action:
 screw(left_hand, clampgripper, lampbulb, lampbase)</title>
<ellipse fill="lightgreen" stroke="black" cx="1700.55" cy="-457.86" rx="353.61" ry="33.88"/>
<text text-anchor="middle" x="1700.55" y="-463.46" font-family="Times,serif" font-size="18.00">action:</text>
<text text-anchor="middle" x="1700.55" y="-443.46" font-family="Times,serif" font-size="18.00"> screw(left_hand, clampgripper, lampbulb, lampbase)</text>
</g>
<!-- sequence:
 screw(left_hand, clampgripper, lampbulb, lampbase)&#45;&gt;action:
 screw(left_hand, clampgripper, lampbulb, lampbase) -->
<g id="edge15" class="edge">
<title>sequence:
 screw(left_hand, clampgripper, lampbulb, lampbase)&#45;&gt;action:
 screw(left_hand, clampgripper, lampbulb, lampbase)</title>
<path fill="none" stroke="black" d="M1250.53,-540.5C1332.4,-525.65 1439.88,-506.15 1529.27,-489.93"/>
<polygon fill="black" stroke="black" points="1530.03,-493.35 1539.24,-488.12 1528.78,-486.46 1530.03,-493.35"/>
</g>
<!-- target:
 hold(left_hand, clampgripper) -->
<g id="node5" class="node">
<title>target:
 hold(left_hand, clampgripper)</title>
<ellipse fill="#ffec8b" stroke="black" cx="277.55" cy="-351.18" rx="207.36" ry="33.88"/>
<text text-anchor="middle" x="277.55" y="-356.78" font-family="Times,serif" font-size="18.00">target:</text>
<text text-anchor="middle" x="277.55" y="-336.78" font-family="Times,serif" font-size="18.00"> hold(left_hand, clampgripper)</text>
</g>
<!-- selector:
 change_tool(left_hand, defaultgripper, clampgripper)&#45;&gt;target:
 hold(left_hand, clampgripper) -->
<g id="edge4" class="edge">
<title>selector:
 change_tool(left_hand, defaultgripper, clampgripper)&#45;&gt;target:
 hold(left_hand, clampgripper)</title>
<path fill="none" stroke="black" d="M433.97,-420.98C409.15,-410.07 381.92,-398.09 357.23,-387.23"/>
<polygon fill="black" stroke="black" points="358.46,-383.95 347.9,-383.12 355.64,-390.35 358.46,-383.95"/>
</g>
<!-- sequence:
 change_tool(left_hand, defaultgripper, clampgripper) -->
<g id="node6" class="node">
<title>sequence:
 change_tool(left_hand, defaultgripper, clampgripper)</title>
<polygon fill="#ff7f24" stroke="black" points="1004.55,-375.18 502.55,-375.18 502.55,-327.18 1004.55,-327.18 1004.55,-375.18"/>
<text text-anchor="middle" x="753.55" y="-356.78" font-family="Times,serif" font-size="18.00">sequence:</text>
<text text-anchor="middle" x="753.55" y="-336.78" font-family="Times,serif" font-size="18.00"> change_tool(left_hand, defaultgripper, clampgripper)</text>
</g>
<!-- selector:
 change_tool(left_hand, defaultgripper, clampgripper)&#45;&gt;sequence:
 change_tool(left_hand, defaultgripper, clampgripper) -->
<g id="edge5" class="edge">
<title>selector:
 change_tool(left_hand, defaultgripper, clampgripper)&#45;&gt;sequence:
 change_tool(left_hand, defaultgripper, clampgripper)</title>
<path fill="none" stroke="black" d="M597.12,-420.98C628.2,-407.31 663.08,-391.97 692,-379.25"/>
<polygon fill="black" stroke="black" points="693.42,-382.45 701.17,-375.22 690.61,-376.04 693.42,-382.45"/>
</g>
<!-- precondition:
 hold(left_hand, defaultgripper) -->
<g id="node7" class="node">
<title>precondition:
 hold(left_hand, defaultgripper)</title>
<ellipse fill="#ffec8b" stroke="black" cx="213.55" cy="-244.5" rx="213.59" ry="33.88"/>
<text text-anchor="middle" x="213.55" y="-250.1" font-family="Times,serif" font-size="18.00">precondition:</text>
<text text-anchor="middle" x="213.55" y="-230.1" font-family="Times,serif" font-size="18.00"> hold(left_hand, defaultgripper)</text>
</g>
<!-- sequence:
 change_tool(left_hand, defaultgripper, clampgripper)&#45;&gt;precondition:
 hold(left_hand, defaultgripper) -->
<g id="edge6" class="edge">
<title>sequence:
 change_tool(left_hand, defaultgripper, clampgripper)&#45;&gt;precondition:
 hold(left_hand, defaultgripper)</title>
<path fill="none" stroke="black" d="M634.71,-327.14C552.63,-311.23 443.06,-289.99 356.25,-273.16"/>
<polygon fill="black" stroke="black" points="356.8,-269.71 346.32,-271.24 355.47,-276.58 356.8,-269.71"/>
</g>
<!-- selector:
 put_down(left_hand, defaultgripper, cube) -->
<g id="node8" class="node">
<title>selector:
 put_down(left_hand, defaultgripper, cube)</title>
<polygon fill="#8deeee" stroke="black" points="1061.93,-229.19 1061.93,-259.82 881.28,-281.48 625.81,-281.48 445.16,-259.82 445.16,-229.19 625.81,-207.53 881.28,-207.53 1061.93,-229.19"/>
<text text-anchor="middle" x="753.55" y="-250.1" font-family="Times,serif" font-size="18.00">selector:</text>
<text text-anchor="middle" x="753.55" y="-230.1" font-family="Times,serif" font-size="18.00"> put_down(left_hand, defaultgripper, cube)</text>
</g>
<!-- sequence:
 change_tool(left_hand, defaultgripper, clampgripper)&#45;&gt;selector:
 put_down(left_hand, defaultgripper, cube) -->
<g id="edge7" class="edge">
<title>sequence:
 change_tool(left_hand, defaultgripper, clampgripper)&#45;&gt;selector:
 put_down(left_hand, defaultgripper, cube)</title>
<path fill="none" stroke="black" d="M753.55,-326.95C753.55,-316.5 753.55,-303.79 753.55,-291.54"/>
<polygon fill="black" stroke="black" points="757.05,-291.42 753.55,-281.42 750.05,-291.42 757.05,-291.42"/>
</g>
<!-- action:
 change_tool(left_hand, defaultgripper, clampgripper) -->
<g id="node14" class="node">
<title>action:
 change_tool(left_hand, defaultgripper, clampgripper)</title>
<ellipse fill="lightgreen" stroke="black" cx="1434.55" cy="-244.5" rx="354.94" ry="33.88"/>
<text text-anchor="middle" x="1434.55" y="-250.1" font-family="Times,serif" font-size="18.00">action:</text>
<text text-anchor="middle" x="1434.55" y="-230.1" font-family="Times,serif" font-size="18.00"> change_tool(left_hand, defaultgripper, clampgripper)</text>
</g>
<!-- sequence:
 change_tool(left_hand, defaultgripper, clampgripper)&#45;&gt;action:
 change_tool(left_hand, defaultgripper, clampgripper) -->
<g id="edge13" class="edge">
<title>sequence:
 change_tool(left_hand, defaultgripper, clampgripper)&#45;&gt;action:
 change_tool(left_hand, defaultgripper, clampgripper)</title>
<path fill="none" stroke="black" d="M903.42,-327.14C1002.91,-311.85 1134.45,-291.63 1241.73,-275.14"/>
<polygon fill="black" stroke="black" points="1242.35,-278.59 1251.7,-273.61 1241.29,-271.67 1242.35,-278.59"/>
</g>
<!-- target:
 not hold(defaultgripper, cube) -->
<g id="node9" class="node">
<title>target:
 not hold(defaultgripper, cube)</title>
<ellipse fill="#ffec8b" stroke="black" cx="540.55" cy="-137.82" rx="207.36" ry="33.88"/>
<text text-anchor="middle" x="540.55" y="-143.42" font-family="Times,serif" font-size="18.00">target:</text>
<text text-anchor="middle" x="540.55" y="-123.42" font-family="Times,serif" font-size="18.00"> not hold(defaultgripper, cube)</text>
</g>
<!-- selector:
 put_down(left_hand, defaultgripper, cube)&#45;&gt;target:
 not hold(defaultgripper, cube) -->
<g id="edge8" class="edge">
<title>selector:
 put_down(left_hand, defaultgripper, cube)&#45;&gt;target:
 not hold(defaultgripper, cube)</title>
<path fill="none" stroke="black" d="M680.54,-207.62C658.94,-197.01 635.29,-185.39 613.68,-174.77"/>
<polygon fill="black" stroke="black" points="615.07,-171.55 604.56,-170.28 611.99,-177.83 615.07,-171.55"/>
</g>
<!-- sequence:
 put_down(left_hand, defaultgripper, cube) -->
<g id="node10" class="node">
<title>sequence:
 put_down(left_hand, defaultgripper, cube)</title>
<polygon fill="#ff7f24" stroke="black" points="1169.05,-161.82 766.05,-161.82 766.05,-113.82 1169.05,-113.82 1169.05,-161.82"/>
<text text-anchor="middle" x="967.55" y="-143.42" font-family="Times,serif" font-size="18.00">sequence:</text>
<text text-anchor="middle" x="967.55" y="-123.42" font-family="Times,serif" font-size="18.00"> put_down(left_hand, defaultgripper, cube)</text>
</g>
<!-- selector:
 put_down(left_hand, defaultgripper, cube)&#45;&gt;sequence:
 put_down(left_hand, defaultgripper, cube) -->
<g id="edge9" class="edge">
<title>selector:
 put_down(left_hand, defaultgripper, cube)&#45;&gt;sequence:
 put_down(left_hand, defaultgripper, cube)</title>
<path fill="none" stroke="black" d="M826.89,-207.62C854.48,-194.13 885.39,-179.01 911.19,-166.39"/>
<polygon fill="black" stroke="black" points="913.01,-169.4 920.45,-161.86 909.93,-163.11 913.01,-169.4"/>
</g>
<!-- &quot;precondition:\n hold(left_hand, defaultgripper)&quot;* -->
<g id="node11" class="node">
<title>&quot;precondition:\n hold(left_hand, defaultgripper)&quot;*</title>
<ellipse fill="#ffec8b" stroke="black" cx="541.55" cy="-33.94" rx="225.63" ry="33.88"/>
<text text-anchor="middle" x="541.55" y="-39.54" font-family="Times,serif" font-size="18.00">&quot;precondition:</text>
<text text-anchor="middle" x="541.55" y="-19.54" font-family="Times,serif" font-size="18.00"> hold(left_hand, defaultgripper)&quot;*</text>
</g>
<!-- sequence:
 put_down(left_hand, defaultgripper, cube)&#45;&gt;&quot;precondition:\n hold(left_hand, defaultgripper)&quot;* -->
<g id="edge10" class="edge">
<title>sequence:
 put_down(left_hand, defaultgripper, cube)&#45;&gt;&quot;precondition:\n hold(left_hand, defaultgripper)&quot;*</title>
<path fill="none" stroke="black" d="M871.15,-113.77C811.26,-99.45 733.61,-80.88 668.72,-65.36"/>
<polygon fill="black" stroke="black" points="669.37,-61.91 658.83,-62.99 667.74,-68.72 669.37,-61.91"/>
</g>
<!-- precondition:
 hold(defaultgripper, cube) -->
<g id="node12" class="node">
<title>precondition:
 hold(defaultgripper, cube)</title>
<ellipse fill="#ffec8b" stroke="black" cx="967.55" cy="-33.94" rx="182.37" ry="33.88"/>
<text text-anchor="middle" x="967.55" y="-39.54" font-family="Times,serif" font-size="18.00">precondition:</text>
<text text-anchor="middle" x="967.55" y="-19.54" font-family="Times,serif" font-size="18.00"> hold(defaultgripper, cube)</text>
</g>
<!-- sequence:
 put_down(left_hand, defaultgripper, cube)&#45;&gt;precondition:
 hold(defaultgripper, cube) -->
<g id="edge11" class="edge">
<title>sequence:
 put_down(left_hand, defaultgripper, cube)&#45;&gt;precondition:
 hold(defaultgripper, cube)</title>
<path fill="none" stroke="black" d="M967.55,-113.7C967.55,-103.16 967.55,-90.31 967.55,-78.08"/>
<polygon fill="black" stroke="black" points="971.05,-78.01 967.55,-68.01 964.05,-78.01 971.05,-78.01"/>
</g>
<!-- action:
 put_down(left_hand, defaultgripper, cube) -->
<g id="node13" class="node">
<title>action:
 put_down(left_hand, defaultgripper, cube)</title>
<ellipse fill="lightgreen" stroke="black" cx="1452.55" cy="-33.94" rx="284.93" ry="33.88"/>
<text text-anchor="middle" x="1452.55" y="-39.54" font-family="Times,serif" font-size="18.00">action:</text>
<text text-anchor="middle" x="1452.55" y="-19.54" font-family="Times,serif" font-size="18.00"> put_down(left_hand, defaultgripper, cube)</text>
</g>
<!-- sequence:
 put_down(left_hand, defaultgripper, cube)&#45;&gt;action:
 put_down(left_hand, defaultgripper, cube) -->
<g id="edge12" class="edge">
<title>sequence:
 put_down(left_hand, defaultgripper, cube)&#45;&gt;action:
 put_down(left_hand, defaultgripper, cube)</title>
<path fill="none" stroke="black" d="M1077.3,-113.77C1144.82,-99.58 1232.2,-81.23 1305.64,-65.8"/>
<polygon fill="black" stroke="black" points="1306.38,-69.22 1315.45,-63.74 1304.94,-62.37 1306.38,-69.22"/>
</g>
</g>
</svg>
