<?xml version="1.0" encoding="UTF-8" standalone="no"?>
<!DOCTYPE svg PUBLIC "-//W3C//DTD SVG 1.1//EN"
 "http://www.w3.org/Graphics/SVG/1.1/DTD/svg11.dtd">
<!-- Generated by graphviz version 2.43.0 (0)
 -->
<!-- Title: pastafarianism Pages: 1 -->
<svg width="1695pt" height="289pt"
 viewBox="0.00 0.00 1694.51 289.24" xmlns="http://www.w3.org/2000/svg" xmlns:xlink="http://www.w3.org/1999/xlink">
<g id="graph0" class="graph" transform="scale(1 1) rotate(0) translate(4 285.24)">
<title>pastafarianism</title>
<polygon fill="white" stroke="transparent" points="-4,4 -4,-285.24 1690.51,-285.24 1690.51,4 -4,4"/>
<!-- selector:
 screw(left_hand, clampgripper, lampbulb, lampbase) -->
<g id="node1" class="node">
<title>selector:
 screw(left_hand, clampgripper, lampbulb, lampbase)</title>
<polygon fill="#8deeee" stroke="black" points="882.82,-229.19 882.82,-259.82 658.54,-281.48 341.36,-281.48 117.08,-259.82 117.08,-229.19 341.36,-207.53 658.54,-207.53 882.82,-229.19"/>
<text text-anchor="middle" x="499.95" y="-250.1" font-family="Times,serif" font-size="18.00">selector:</text>
<text text-anchor="middle" x="499.95" y="-230.1" font-family="Times,serif" font-size="18.00"> screw(left_hand, clampgripper, lampbulb, lampbase)</text>
</g>
<!-- target:
 is_screwed_to(lampbulb, lampbase) -->
<g id="node2" class="node">
<title>target:
 is_screwed_to(lampbulb, lampbase)</title>
<ellipse fill="#ffec8b" stroke="black" cx="243.95" cy="-137.82" rx="243.9" ry="33.88"/>
<text text-anchor="middle" x="243.95" y="-143.42" font-family="Times,serif" font-size="18.00">target:</text>
<text text-anchor="middle" x="243.95" y="-123.42" font-family="Times,serif" font-size="18.00"> is_screwed_to(lampbulb, lampbase)</text>
</g>
<!-- selector:
 screw(left_hand, clampgripper, lampbulb, lampbase)&#45;&gt;target:
 is_screwed_to(lampbulb, lampbase) -->
<g id="edge1" class="edge">
<title>selector:
 screw(left_hand, clampgripper, lampbulb, lampbase)&#45;&gt;target:
 is_screwed_to(lampbulb, lampbase)</title>
<path fill="none" stroke="black" d="M412.21,-207.62C385.54,-196.72 356.27,-184.75 329.73,-173.9"/>
<polygon fill="black" stroke="black" points="331.04,-170.65 320.46,-170.11 328.39,-177.13 331.04,-170.65"/>
</g>
<!-- sequence:
 screw(left_hand, clampgripper, lampbulb, lampbase) -->
<g id="node3" class="node">
<title>sequence:
 screw(left_hand, clampgripper, lampbulb, lampbase)</title>
<polygon fill="#ff7f24" stroke="black" points="1005.95,-161.82 505.95,-161.82 505.95,-113.82 1005.95,-113.82 1005.95,-161.82"/>
<text text-anchor="middle" x="755.95" y="-143.42" font-family="Times,serif" font-size="18.00">sequence:</text>
<text text-anchor="middle" x="755.95" y="-123.42" font-family="Times,serif" font-size="18.00"> screw(left_hand, clampgripper, lampbulb, lampbase)</text>
</g>
<!-- selector:
 screw(left_hand, clampgripper, lampbulb, lampbase)&#45;&gt;sequence:
 screw(left_hand, clampgripper, lampbulb, lampbase) -->
<g id="edge2" class="edge">
<title>selector:
 screw(left_hand, clampgripper, lampbulb, lampbase)&#45;&gt;sequence:
 screw(left_hand, clampgripper, lampbulb, lampbase)</title>
<path fill="none" stroke="black" d="M587.69,-207.62C621.27,-193.89 658.97,-178.48 690.16,-165.73"/>
<polygon fill="black" stroke="black" points="691.68,-168.88 699.61,-161.86 689.03,-162.41 691.68,-168.88"/>
</g>
<!-- precondition:
 hold(left_hand, clampgripper) -->
<g id="node4" class="node">
<title>precondition:
 hold(left_hand, clampgripper)</title>
<ellipse fill="#ffec8b" stroke="black" cx="324.95" cy="-33.94" rx="207.36" ry="33.88"/>
<text text-anchor="middle" x="324.95" y="-39.54" font-family="Times,serif" font-size="18.00">precondition:</text>
<text text-anchor="middle" x="324.95" y="-19.54" font-family="Times,serif" font-size="18.00"> hold(left_hand, clampgripper)</text>
</g>
<!-- sequence:
 screw(left_hand, clampgripper, lampbulb, lampbase)&#45;&gt;precondition:
 hold(left_hand, clampgripper) -->
<g id="edge3" class="edge">
<title>sequence:
 screw(left_hand, clampgripper, lampbulb, lampbase)&#45;&gt;precondition:
 hold(left_hand, clampgripper)</title>
<path fill="none" stroke="black" d="M658.42,-113.77C596.89,-99.22 516.82,-80.3 450.56,-64.63"/>
<polygon fill="black" stroke="black" points="451,-61.14 440.46,-62.25 449.39,-67.95 451,-61.14"/>
</g>
<!-- precondition:
 hold(clampgripper, lampbulb) -->
<g id="node5" class="node">
<title>precondition:
 hold(clampgripper, lampbulb)</title>
<ellipse fill="#ffec8b" stroke="black" cx="755.95" cy="-33.94" rx="205.54" ry="33.88"/>
<text text-anchor="middle" x="755.95" y="-39.54" font-family="Times,serif" font-size="18.00">precondition:</text>
<text text-anchor="middle" x="755.95" y="-19.54" font-family="Times,serif" font-size="18.00"> hold(clampgripper, lampbulb)</text>
</g>
<!-- sequence:
 screw(left_hand, clampgripper, lampbulb, lampbase)&#45;&gt;precondition:
 hold(clampgripper, lampbulb) -->
<g id="edge4" class="edge">
<title>sequence:
 screw(left_hand, clampgripper, lampbulb, lampbase)&#45;&gt;precondition:
 hold(clampgripper, lampbulb)</title>
<path fill="none" stroke="black" d="M755.95,-113.7C755.95,-103.16 755.95,-90.31 755.95,-78.08"/>
<polygon fill="black" stroke="black" points="759.45,-78.01 755.95,-68.01 752.45,-78.01 759.45,-78.01"/>
</g>
<!-- action:
 screw(left_hand, clampgripper, lampbulb, lampbase) -->
<g id="node6" class="node">
<title>action:
 screw(left_hand, clampgripper, lampbulb, lampbase)</title>
<ellipse fill="lightgreen" stroke="black" cx="1332.95" cy="-33.94" rx="353.61" ry="33.88"/>
<text text-anchor="middle" x="1332.95" y="-39.54" font-family="Times,serif" font-size="18.00">action:</text>
<text text-anchor="middle" x="1332.95" y="-19.54" font-family="Times,serif" font-size="18.00"> screw(left_hand, clampgripper, lampbulb, lampbase)</text>
</g>
<!-- sequence:
 screw(left_hand, clampgripper, lampbulb, lampbase)&#45;&gt;action:
 screw(left_hand, clampgripper, lampbulb, lampbase) -->
<g id="edge5" class="edge">
<title>sequence:
 screw(left_hand, clampgripper, lampbulb, lampbase)&#45;&gt;action:
 screw(left_hand, clampgripper, lampbulb, lampbase)</title>
<path fill="none" stroke="black" d="M886.52,-113.77C966.87,-99.58 1070.84,-81.22 1158.22,-65.79"/>
<polygon fill="black" stroke="black" points="1159.01,-69.21 1168.25,-64.02 1157.79,-62.32 1159.01,-69.21"/>
</g>
</g>
</svg>
