<?xml version="1.0" encoding="UTF-8" standalone="no"?>
<!DOCTYPE svg PUBLIC "-//W3C//DTD SVG 1.1//EN"
 "http://www.w3.org/Graphics/SVG/1.1/DTD/svg11.dtd">
<!-- Generated by graphviz version 2.43.0 (0)
 -->
<!-- Title: pastafarianism Pages: 1 -->
<svg width="3195pt" height="716pt"
 viewBox="0.00 0.00 3195.12 715.95" xmlns="http://www.w3.org/2000/svg" xmlns:xlink="http://www.w3.org/1999/xlink">
<g id="graph0" class="graph" transform="scale(1 1) rotate(0) translate(4 711.95)">
<title>pastafarianism</title>
<polygon fill="white" stroke="transparent" points="-4,4 -4,-711.95 3191.12,-711.95 3191.12,4 -4,4"/>
<!-- selector:
 screw(left_hand, clampgripper, lampbulb, lampbase) -->
<g id="node1" class="node">
<title>selector:
 screw(left_hand, clampgripper, lampbulb, lampbase)</title>
<polygon fill="#8deeee" stroke="black" points="1681.41,-655.9 1681.41,-686.53 1457.13,-708.19 1139.96,-708.19 915.68,-686.53 915.68,-655.9 1139.96,-634.24 1457.13,-634.24 1681.41,-655.9"/>
<text text-anchor="middle" x="1298.55" y="-676.82" font-family="Times,serif" font-size="18.00">selector:</text>
<text text-anchor="middle" x="1298.55" y="-656.82" font-family="Times,serif" font-size="18.00"> screw(left_hand, clampgripper, lampbulb, lampbase)</text>
</g>
<!-- target:
 is_screwed_to(lampbulb, lampbase) -->
<g id="node2" class="node">
<title>target:
 is_screwed_to(lampbulb, lampbase)</title>
<ellipse fill="#ffec8b" stroke="black" cx="1042.55" cy="-564.54" rx="243.9" ry="33.88"/>
<text text-anchor="middle" x="1042.55" y="-570.14" font-family="Times,serif" font-size="18.00">target:</text>
<text text-anchor="middle" x="1042.55" y="-550.14" font-family="Times,serif" font-size="18.00"> is_screwed_to(lampbulb, lampbase)</text>
</g>
<!-- selector:
 screw(left_hand, clampgripper, lampbulb, lampbase)&#45;&gt;target:
 is_screwed_to(lampbulb, lampbase) -->
<g id="edge1" class="edge">
<title>selector:
 screw(left_hand, clampgripper, lampbulb, lampbase)&#45;&gt;target:
 is_screwed_to(lampbulb, lampbase)</title>
<path fill="none" stroke="black" d="M1210.8,-634.34C1184.13,-623.43 1154.86,-611.47 1128.32,-600.61"/>
<polygon fill="black" stroke="black" points="1129.64,-597.37 1119.06,-596.82 1126.99,-603.85 1129.64,-597.37"/>
</g>
<!-- sequence:
 screw(left_hand, clampgripper, lampbulb, lampbase) -->
<g id="node3" class="node">
<title>sequence:
 screw(left_hand, clampgripper, lampbulb, lampbase)</title>
<polygon fill="#ff7f24" stroke="black" points="1804.55,-588.54 1304.55,-588.54 1304.55,-540.54 1804.55,-540.54 1804.55,-588.54"/>
<text text-anchor="middle" x="1554.55" y="-570.14" font-family="Times,serif" font-size="18.00">sequence:</text>
<text text-anchor="middle" x="1554.55" y="-550.14" font-family="Times,serif" font-size="18.00"> screw(left_hand, clampgripper, lampbulb, lampbase)</text>
</g>
<!-- selector:
 screw(left_hand, clampgripper, lampbulb, lampbase)&#45;&gt;sequence:
 screw(left_hand, clampgripper, lampbulb, lampbase) -->
<g id="edge2" class="edge">
<title>selector:
 screw(left_hand, clampgripper, lampbulb, lampbase)&#45;&gt;sequence:
 screw(left_hand, clampgripper, lampbulb, lampbase)</title>
<path fill="none" stroke="black" d="M1386.29,-634.34C1419.87,-620.61 1457.56,-605.19 1488.75,-592.44"/>
<polygon fill="black" stroke="black" points="1490.28,-595.6 1498.21,-588.58 1487.63,-589.12 1490.28,-595.6"/>
</g>
<!-- selector:
 change_tool(left_hand, defaultgripper, clampgripper) -->
<g id="node4" class="node">
<title>selector:
 change_tool(left_hand, defaultgripper, clampgripper)</title>
<polygon fill="#8deeee" stroke="black" points="1163.97,-442.54 1163.97,-473.18 938.78,-494.84 620.31,-494.84 395.12,-473.18 395.12,-442.54 620.31,-420.88 938.78,-420.88 1163.97,-442.54"/>
<text text-anchor="middle" x="779.55" y="-463.46" font-family="Times,serif" font-size="18.00">selector:</text>
<text text-anchor="middle" x="779.55" y="-443.46" font-family="Times,serif" font-size="18.00"> change_tool(left_hand, defaultgripper, clampgripper)</text>
</g>
<!-- sequence:
 screw(left_hand, clampgripper, lampbulb, lampbase)&#45;&gt;selector:
 change_tool(left_hand, defaultgripper, clampgripper) -->
<g id="edge3" class="edge">
<title>sequence:
 screw(left_hand, clampgripper, lampbulb, lampbase)&#45;&gt;selector:
 change_tool(left_hand, defaultgripper, clampgripper)</title>
<path fill="none" stroke="black" d="M1383.99,-540.5C1274.64,-525.73 1131.29,-506.37 1011.64,-490.21"/>
<polygon fill="black" stroke="black" points="1011.98,-486.72 1001.61,-488.85 1011.05,-493.66 1011.98,-486.72"/>
</g>
<!-- selector:
 pick_up(left_hand, clampgripper, lampbulb) -->
<g id="node15" class="node">
<title>selector:
 pick_up(left_hand, clampgripper, lampbulb)</title>
<polygon fill="#8deeee" stroke="black" points="1874.39,-442.54 1874.39,-473.18 1687.03,-494.84 1422.06,-494.84 1234.7,-473.18 1234.7,-442.54 1422.06,-420.88 1687.03,-420.88 1874.39,-442.54"/>
<text text-anchor="middle" x="1554.55" y="-463.46" font-family="Times,serif" font-size="18.00">selector:</text>
<text text-anchor="middle" x="1554.55" y="-443.46" font-family="Times,serif" font-size="18.00"> pick_up(left_hand, clampgripper, lampbulb)</text>
</g>
<!-- sequence:
 screw(left_hand, clampgripper, lampbulb, lampbase)&#45;&gt;selector:
 pick_up(left_hand, clampgripper, lampbulb) -->
<g id="edge14" class="edge">
<title>sequence:
 screw(left_hand, clampgripper, lampbulb, lampbase)&#45;&gt;selector:
 pick_up(left_hand, clampgripper, lampbulb)</title>
<path fill="none" stroke="black" d="M1554.55,-540.31C1554.55,-529.86 1554.55,-517.15 1554.55,-504.9"/>
<polygon fill="black" stroke="black" points="1558.05,-504.78 1554.55,-494.78 1551.05,-504.78 1558.05,-504.78"/>
</g>
<!-- action:
 screw(left_hand, clampgripper, lampbulb, lampbase) -->
<g id="node21" class="node">
<title>action:
 screw(left_hand, clampgripper, lampbulb, lampbase)</title>
<ellipse fill="lightgreen" stroke="black" cx="2245.55" cy="-457.86" rx="353.61" ry="33.88"/>
<text text-anchor="middle" x="2245.55" y="-463.46" font-family="Times,serif" font-size="18.00">action:</text>
<text text-anchor="middle" x="2245.55" y="-443.46" font-family="Times,serif" font-size="18.00"> screw(left_hand, clampgripper, lampbulb, lampbase)</text>
</g>
<!-- sequence:
 screw(left_hand, clampgripper, lampbulb, lampbase)&#45;&gt;action:
 screw(left_hand, clampgripper, lampbulb, lampbase) -->
<g id="edge20" class="edge">
<title>sequence:
 screw(left_hand, clampgripper, lampbulb, lampbase)&#45;&gt;action:
 screw(left_hand, clampgripper, lampbulb, lampbase)</title>
<path fill="none" stroke="black" d="M1706.62,-540.5C1807.86,-525.16 1941.81,-504.87 2050.83,-488.36"/>
<polygon fill="black" stroke="black" points="2051.6,-491.78 2060.97,-486.82 2050.56,-484.86 2051.6,-491.78"/>
</g>
<!-- target:
 hold(left_hand, clampgripper) -->
<g id="node5" class="node">
<title>target:
 hold(left_hand, clampgripper)</title>
<ellipse fill="#ffec8b" stroke="black" cx="303.55" cy="-351.18" rx="207.36" ry="33.88"/>
<text text-anchor="middle" x="303.55" y="-356.78" font-family="Times,serif" font-size="18.00">target:</text>
<text text-anchor="middle" x="303.55" y="-336.78" font-family="Times,serif" font-size="18.00"> hold(left_hand, clampgripper)</text>
</g>
<!-- selector:
 change_tool(left_hand, defaultgripper, clampgripper)&#45;&gt;target:
 hold(left_hand, clampgripper) -->
<g id="edge4" class="edge">
<title>selector:
 change_tool(left_hand, defaultgripper, clampgripper)&#45;&gt;target:
 hold(left_hand, clampgripper)</title>
<path fill="none" stroke="black" d="M617.07,-421.13C557.61,-408.05 491.15,-393.44 434.77,-381.04"/>
<polygon fill="black" stroke="black" points="435.24,-377.56 424.72,-378.83 433.74,-384.4 435.24,-377.56"/>
</g>
<!-- sequence:
 change_tool(left_hand, defaultgripper, clampgripper) -->
<g id="node6" class="node">
<title>sequence:
 change_tool(left_hand, defaultgripper, clampgripper)</title>
<polygon fill="#ff7f24" stroke="black" points="1030.55,-375.18 528.55,-375.18 528.55,-327.18 1030.55,-327.18 1030.55,-375.18"/>
<text text-anchor="middle" x="779.55" y="-356.78" font-family="Times,serif" font-size="18.00">sequence:</text>
<text text-anchor="middle" x="779.55" y="-336.78" font-family="Times,serif" font-size="18.00"> change_tool(left_hand, defaultgripper, clampgripper)</text>
</g>
<!-- selector:
 change_tool(left_hand, defaultgripper, clampgripper)&#45;&gt;sequence:
 change_tool(left_hand, defaultgripper, clampgripper) -->
<g id="edge5" class="edge">
<title>selector:
 change_tool(left_hand, defaultgripper, clampgripper)&#45;&gt;sequence:
 change_tool(left_hand, defaultgripper, clampgripper)</title>
<path fill="none" stroke="black" d="M779.55,-420.84C779.55,-409.45 779.55,-396.92 779.55,-385.72"/>
<polygon fill="black" stroke="black" points="783.05,-385.47 779.55,-375.47 776.05,-385.47 783.05,-385.47"/>
</g>
<!-- precondition:
 hold(left_hand, defaultgripper) -->
<g id="node7" class="node">
<title>precondition:
 hold(left_hand, defaultgripper)</title>
<ellipse fill="#ffec8b" stroke="black" cx="213.55" cy="-244.5" rx="213.59" ry="33.88"/>
<text text-anchor="middle" x="213.55" y="-250.1" font-family="Times,serif" font-size="18.00">precondition:</text>
<text text-anchor="middle" x="213.55" y="-230.1" font-family="Times,serif" font-size="18.00"> hold(left_hand, defaultgripper)</text>
</g>
<!-- sequence:
 change_tool(left_hand, defaultgripper, clampgripper)&#45;&gt;precondition:
 hold(left_hand, defaultgripper) -->
<g id="edge6" class="edge">
<title>sequence:
 change_tool(left_hand, defaultgripper, clampgripper)&#45;&gt;precondition:
 hold(left_hand, defaultgripper)</title>
<path fill="none" stroke="black" d="M654.98,-327.14C567.84,-311.03 451.12,-289.44 359.59,-272.51"/>
<polygon fill="black" stroke="black" points="360.16,-269.06 349.69,-270.68 358.88,-275.94 360.16,-269.06"/>
</g>
<!-- selector:
 put_down(left_hand, defaultgripper, cube) -->
<g id="node8" class="node">
<title>selector:
 put_down(left_hand, defaultgripper, cube)</title>
<polygon fill="#8deeee" stroke="black" points="1061.93,-229.19 1061.93,-259.82 881.28,-281.48 625.81,-281.48 445.16,-259.82 445.16,-229.19 625.81,-207.53 881.28,-207.53 1061.93,-229.19"/>
<text text-anchor="middle" x="753.55" y="-250.1" font-family="Times,serif" font-size="18.00">selector:</text>
<text text-anchor="middle" x="753.55" y="-230.1" font-family="Times,serif" font-size="18.00"> put_down(left_hand, defaultgripper, cube)</text>
</g>
<!-- sequence:
 change_tool(left_hand, defaultgripper, clampgripper)&#45;&gt;selector:
 put_down(left_hand, defaultgripper, cube) -->
<g id="edge7" class="edge">
<title>sequence:
 change_tool(left_hand, defaultgripper, clampgripper)&#45;&gt;selector:
 put_down(left_hand, defaultgripper, cube)</title>
<path fill="none" stroke="black" d="M773.78,-326.95C771.16,-316.4 767.96,-303.53 764.89,-291.17"/>
<polygon fill="black" stroke="black" points="768.28,-290.28 762.47,-281.42 761.48,-291.97 768.28,-290.28"/>
</g>
<!-- action:
 change_tool(left_hand, defaultgripper, clampgripper) -->
<g id="node14" class="node">
<title>action:
 change_tool(left_hand, defaultgripper, clampgripper)</title>
<ellipse fill="lightgreen" stroke="black" cx="1434.55" cy="-244.5" rx="354.94" ry="33.88"/>
<text text-anchor="middle" x="1434.55" y="-250.1" font-family="Times,serif" font-size="18.00">action:</text>
<text text-anchor="middle" x="1434.55" y="-230.1" font-family="Times,serif" font-size="18.00"> change_tool(left_hand, defaultgripper, clampgripper)</text>
</g>
<!-- sequence:
 change_tool(left_hand, defaultgripper, clampgripper)&#45;&gt;action:
 change_tool(left_hand, defaultgripper, clampgripper) -->
<g id="edge13" class="edge">
<title>sequence:
 change_tool(left_hand, defaultgripper, clampgripper)&#45;&gt;action:
 change_tool(left_hand, defaultgripper, clampgripper)</title>
<path fill="none" stroke="black" d="M923.69,-327.14C1018.75,-311.95 1144.21,-291.9 1247,-275.47"/>
<polygon fill="black" stroke="black" points="1247.56,-278.93 1256.88,-273.9 1246.45,-272.02 1247.56,-278.93"/>
</g>
<!-- target:
 not hold(defaultgripper, cube) -->
<g id="node9" class="node">
<title>target:
 not hold(defaultgripper, cube)</title>
<ellipse fill="#ffec8b" stroke="black" cx="540.55" cy="-137.82" rx="207.36" ry="33.88"/>
<text text-anchor="middle" x="540.55" y="-143.42" font-family="Times,serif" font-size="18.00">target:</text>
<text text-anchor="middle" x="540.55" y="-123.42" font-family="Times,serif" font-size="18.00"> not hold(defaultgripper, cube)</text>
</g>
<!-- selector:
 put_down(left_hand, defaultgripper, cube)&#45;&gt;target:
 not hold(defaultgripper, cube) -->
<g id="edge8" class="edge">
<title>selector:
 put_down(left_hand, defaultgripper, cube)&#45;&gt;target:
 not hold(defaultgripper, cube)</title>
<path fill="none" stroke="black" d="M680.54,-207.62C658.94,-197.01 635.29,-185.39 613.68,-174.77"/>
<polygon fill="black" stroke="black" points="615.07,-171.55 604.56,-170.28 611.99,-177.83 615.07,-171.55"/>
</g>
<!-- sequence:
 put_down(left_hand, defaultgripper, cube) -->
<g id="node10" class="node">
<title>sequence:
 put_down(left_hand, defaultgripper, cube)</title>
<polygon fill="#ff7f24" stroke="black" points="1169.05,-161.82 766.05,-161.82 766.05,-113.82 1169.05,-113.82 1169.05,-161.82"/>
<text text-anchor="middle" x="967.55" y="-143.42" font-family="Times,serif" font-size="18.00">sequence:</text>
<text text-anchor="middle" x="967.55" y="-123.42" font-family="Times,serif" font-size="18.00"> put_down(left_hand, defaultgripper, cube)</text>
</g>
<!-- selector:
 put_down(left_hand, defaultgripper, cube)&#45;&gt;sequence:
 put_down(left_hand, defaultgripper, cube) -->
<g id="edge9" class="edge">
<title>selector:
 put_down(left_hand, defaultgripper, cube)&#45;&gt;sequence:
 put_down(left_hand, defaultgripper, cube)</title>
<path fill="none" stroke="black" d="M826.89,-207.62C854.48,-194.13 885.39,-179.01 911.19,-166.39"/>
<polygon fill="black" stroke="black" points="913.01,-169.4 920.45,-161.86 909.93,-163.11 913.01,-169.4"/>
</g>
<!-- &quot;precondition:\n hold(left_hand, defaultgripper)&quot;* -->
<g id="node11" class="node">
<title>&quot;precondition:\n hold(left_hand, defaultgripper)&quot;*</title>
<ellipse fill="#ffec8b" stroke="black" cx="541.55" cy="-33.94" rx="225.63" ry="33.88"/>
<text text-anchor="middle" x="541.55" y="-39.54" font-family="Times,serif" font-size="18.00">&quot;precondition:</text>
<text text-anchor="middle" x="541.55" y="-19.54" font-family="Times,serif" font-size="18.00"> hold(left_hand, defaultgripper)&quot;*</text>
</g>
<!-- sequence:
 put_down(left_hand, defaultgripper, cube)&#45;&gt;&quot;precondition:\n hold(left_hand, defaultgripper)&quot;* -->
<g id="edge10" class="edge">
<title>sequence:
 put_down(left_hand, defaultgripper, cube)&#45;&gt;&quot;precondition:\n hold(left_hand, defaultgripper)&quot;*</title>
<path fill="none" stroke="black" d="M871.15,-113.77C811.26,-99.45 733.61,-80.88 668.72,-65.36"/>
<polygon fill="black" stroke="black" points="669.37,-61.91 658.83,-62.99 667.74,-68.72 669.37,-61.91"/>
</g>
<!-- precondition:
 hold(defaultgripper, cube) -->
<g id="node12" class="node">
<title>precondition:
 hold(defaultgripper, cube)</title>
<ellipse fill="#ffec8b" stroke="black" cx="967.55" cy="-33.94" rx="182.37" ry="33.88"/>
<text text-anchor="middle" x="967.55" y="-39.54" font-family="Times,serif" font-size="18.00">precondition:</text>
<text text-anchor="middle" x="967.55" y="-19.54" font-family="Times,serif" font-size="18.00"> hold(defaultgripper, cube)</text>
</g>
<!-- sequence:
 put_down(left_hand, defaultgripper, cube)&#45;&gt;precondition:
 hold(defaultgripper, cube) -->
<g id="edge11" class="edge">
<title>sequence:
 put_down(left_hand, defaultgripper, cube)&#45;&gt;precondition:
 hold(defaultgripper, cube)</title>
<path fill="none" stroke="black" d="M967.55,-113.7C967.55,-103.16 967.55,-90.31 967.55,-78.08"/>
<polygon fill="black" stroke="black" points="971.05,-78.01 967.55,-68.01 964.05,-78.01 971.05,-78.01"/>
</g>
<!-- action:
 put_down(left_hand, defaultgripper, cube) -->
<g id="node13" class="node">
<title>action:
 put_down(left_hand, defaultgripper, cube)</title>
<ellipse fill="lightgreen" stroke="black" cx="1452.55" cy="-33.94" rx="284.93" ry="33.88"/>
<text text-anchor="middle" x="1452.55" y="-39.54" font-family="Times,serif" font-size="18.00">action:</text>
<text text-anchor="middle" x="1452.55" y="-19.54" font-family="Times,serif" font-size="18.00"> put_down(left_hand, defaultgripper, cube)</text>
</g>
<!-- sequence:
 put_down(left_hand, defaultgripper, cube)&#45;&gt;action:
 put_down(left_hand, defaultgripper, cube) -->
<g id="edge12" class="edge">
<title>sequence:
 put_down(left_hand, defaultgripper, cube)&#45;&gt;action:
 put_down(left_hand, defaultgripper, cube)</title>
<path fill="none" stroke="black" d="M1077.3,-113.77C1144.82,-99.58 1232.2,-81.23 1305.64,-65.8"/>
<polygon fill="black" stroke="black" points="1306.38,-69.22 1315.45,-63.74 1304.94,-62.37 1306.38,-69.22"/>
</g>
<!-- target:
 hold(clampgripper, lampbulb) -->
<g id="node16" class="node">
<title>target:
 hold(clampgripper, lampbulb)</title>
<ellipse fill="#ffec8b" stroke="black" cx="1554.55" cy="-351.18" rx="205.54" ry="33.88"/>
<text text-anchor="middle" x="1554.55" y="-356.78" font-family="Times,serif" font-size="18.00">target:</text>
<text text-anchor="middle" x="1554.55" y="-336.78" font-family="Times,serif" font-size="18.00"> hold(clampgripper, lampbulb)</text>
</g>
<!-- selector:
 pick_up(left_hand, clampgripper, lampbulb)&#45;&gt;target:
 hold(clampgripper, lampbulb) -->
<g id="edge15" class="edge">
<title>selector:
 pick_up(left_hand, clampgripper, lampbulb)&#45;&gt;target:
 hold(clampgripper, lampbulb)</title>
<path fill="none" stroke="black" d="M1554.55,-420.84C1554.55,-412.68 1554.55,-403.93 1554.55,-395.51"/>
<polygon fill="black" stroke="black" points="1558.05,-395.46 1554.55,-385.46 1551.05,-395.46 1558.05,-395.46"/>
</g>
<!-- sequence:
 pick_up(left_hand, clampgripper, lampbulb) -->
<g id="node17" class="node">
<title>sequence:
 pick_up(left_hand, clampgripper, lampbulb)</title>
<polygon fill="#ff7f24" stroke="black" points="2420.55,-375.18 2002.55,-375.18 2002.55,-327.18 2420.55,-327.18 2420.55,-375.18"/>
<text text-anchor="middle" x="2211.55" y="-356.78" font-family="Times,serif" font-size="18.00">sequence:</text>
<text text-anchor="middle" x="2211.55" y="-336.78" font-family="Times,serif" font-size="18.00"> pick_up(left_hand, clampgripper, lampbulb)</text>
</g>
<!-- selector:
 pick_up(left_hand, clampgripper, lampbulb)&#45;&gt;sequence:
 pick_up(left_hand, clampgripper, lampbulb) -->
<g id="edge16" class="edge">
<title>selector:
 pick_up(left_hand, clampgripper, lampbulb)&#45;&gt;sequence:
 pick_up(left_hand, clampgripper, lampbulb)</title>
<path fill="none" stroke="black" d="M1741.5,-427.07C1841.33,-411.17 1962.73,-391.82 2057.15,-376.78"/>
<polygon fill="black" stroke="black" points="2057.74,-380.23 2067.07,-375.2 2056.64,-373.32 2057.74,-380.23"/>
</g>
<!-- precondition:
 hold(left_hand, clampgripper) -->
<g id="node18" class="node">
<title>precondition:
 hold(left_hand, clampgripper)</title>
<ellipse fill="#ffec8b" stroke="black" cx="2014.55" cy="-244.5" rx="207.36" ry="33.88"/>
<text text-anchor="middle" x="2014.55" y="-250.1" font-family="Times,serif" font-size="18.00">precondition:</text>
<text text-anchor="middle" x="2014.55" y="-230.1" font-family="Times,serif" font-size="18.00"> hold(left_hand, clampgripper)</text>
</g>
<!-- sequence:
 pick_up(left_hand, clampgripper, lampbulb)&#45;&gt;precondition:
 hold(left_hand, clampgripper) -->
<g id="edge17" class="edge">
<title>sequence:
 pick_up(left_hand, clampgripper, lampbulb)&#45;&gt;precondition:
 hold(left_hand, clampgripper)</title>
<path fill="none" stroke="black" d="M2167.83,-326.95C2142.97,-313.74 2111.29,-296.91 2083.19,-281.98"/>
<polygon fill="black" stroke="black" points="2084.68,-278.81 2074.21,-277.2 2081.4,-284.99 2084.68,-278.81"/>
</g>
<!-- precondition:
 is_empty(clampgripper) -->
<g id="node19" class="node">
<title>precondition:
 is_empty(clampgripper)</title>
<ellipse fill="#ffec8b" stroke="black" cx="2408.55" cy="-244.5" rx="169" ry="33.88"/>
<text text-anchor="middle" x="2408.55" y="-250.1" font-family="Times,serif" font-size="18.00">precondition:</text>
<text text-anchor="middle" x="2408.55" y="-230.1" font-family="Times,serif" font-size="18.00"> is_empty(clampgripper)</text>
</g>
<!-- sequence:
 pick_up(left_hand, clampgripper, lampbulb)&#45;&gt;precondition:
 is_empty(clampgripper) -->
<g id="edge18" class="edge">
<title>sequence:
 pick_up(left_hand, clampgripper, lampbulb)&#45;&gt;precondition:
 is_empty(clampgripper)</title>
<path fill="none" stroke="black" d="M2255.27,-326.95C2280.53,-313.52 2312.85,-296.35 2341.28,-281.24"/>
<polygon fill="black" stroke="black" points="2343.18,-284.2 2350.37,-276.42 2339.9,-278.02 2343.18,-284.2"/>
</g>
<!-- action:
 pick_up(left_hand, clampgripper, lampbulb) -->
<g id="node20" class="node">
<title>action:
 pick_up(left_hand, clampgripper, lampbulb)</title>
<ellipse fill="lightgreen" stroke="black" cx="2891.55" cy="-244.5" rx="295.64" ry="33.88"/>
<text text-anchor="middle" x="2891.55" y="-250.1" font-family="Times,serif" font-size="18.00">action:</text>
<text text-anchor="middle" x="2891.55" y="-230.1" font-family="Times,serif" font-size="18.00"> pick_up(left_hand, clampgripper, lampbulb)</text>
</g>
<!-- sequence:
 pick_up(left_hand, clampgripper, lampbulb)&#45;&gt;action:
 pick_up(left_hand, clampgripper, lampbulb) -->
<g id="edge19" class="edge">
<title>sequence:
 pick_up(left_hand, clampgripper, lampbulb)&#45;&gt;action:
 pick_up(left_hand, clampgripper, lampbulb)</title>
<path fill="none" stroke="black" d="M2361.2,-327.14C2463.58,-311.38 2599.94,-290.39 2708.75,-273.64"/>
<polygon fill="black" stroke="black" points="2709.51,-277.07 2718.86,-272.08 2708.45,-270.15 2709.51,-277.07"/>
</g>
</g>
</svg>
