<?xml version="1.0" encoding="UTF-8" standalone="no"?>
<!DOCTYPE svg PUBLIC "-//W3C//DTD SVG 1.1//EN"
 "http://www.w3.org/Graphics/SVG/1.1/DTD/svg11.dtd">
<!-- Generated by graphviz version 2.43.0 (0)
 -->
<!-- Title: pastafarianism Pages: 1 -->
<svg width="3070pt" height="503pt"
 viewBox="0.00 0.00 3070.22 502.60" xmlns="http://www.w3.org/2000/svg" xmlns:xlink="http://www.w3.org/1999/xlink">
<g id="graph0" class="graph" transform="scale(1 1) rotate(0) translate(4 498.6)">
<title>pastafarianism</title>
<polygon fill="white" stroke="transparent" points="-4,4 -4,-498.6 3066.22,-498.6 3066.22,4 -4,4"/>
<!-- selector:
 insert(left_hand, parallelgripper, gear1, shaft1) -->
<g id="node1" class="node">
<title>selector:
 insert(left_hand, parallelgripper, gear1, shaft1)</title>
<polygon fill="#8deeee" stroke="black" points="1588.41,-442.54 1588.41,-473.18 1386.71,-494.84 1101.46,-494.84 899.75,-473.18 899.75,-442.54 1101.46,-420.88 1386.71,-420.88 1588.41,-442.54"/>
<text text-anchor="middle" x="1244.08" y="-463.46" font-family="Times,serif" font-size="18.00">selector:</text>
<text text-anchor="middle" x="1244.08" y="-443.46" font-family="Times,serif" font-size="18.00"> insert(left_hand, parallelgripper, gear1, shaft1)</text>
</g>
<!-- target:
 is_inserted_to(gear1, shaft1) -->
<g id="node2" class="node">
<title>target:
 is_inserted_to(gear1, shaft1)</title>
<ellipse fill="#ffec8b" stroke="black" cx="1023.08" cy="-351.18" rx="198.89" ry="33.88"/>
<text text-anchor="middle" x="1023.08" y="-356.78" font-family="Times,serif" font-size="18.00">target:</text>
<text text-anchor="middle" x="1023.08" y="-336.78" font-family="Times,serif" font-size="18.00"> is_inserted_to(gear1, shaft1)</text>
</g>
<!-- selector:
 insert(left_hand, parallelgripper, gear1, shaft1)&#45;&gt;target:
 is_inserted_to(gear1, shaft1) -->
<g id="edge1" class="edge">
<title>selector:
 insert(left_hand, parallelgripper, gear1, shaft1)&#45;&gt;target:
 is_inserted_to(gear1, shaft1)</title>
<path fill="none" stroke="black" d="M1168.34,-420.98C1145.6,-410.21 1120.68,-398.41 1098.01,-387.67"/>
<polygon fill="black" stroke="black" points="1099.31,-384.41 1088.77,-383.29 1096.31,-390.74 1099.31,-384.41"/>
</g>
<!-- sequence:
 insert(left_hand, parallelgripper, gear1, shaft1) -->
<g id="node3" class="node">
<title>sequence:
 insert(left_hand, parallelgripper, gear1, shaft1)</title>
<polygon fill="#ff7f24" stroke="black" points="1690.08,-375.18 1240.08,-375.18 1240.08,-327.18 1690.08,-327.18 1690.08,-375.18"/>
<text text-anchor="middle" x="1465.08" y="-356.78" font-family="Times,serif" font-size="18.00">sequence:</text>
<text text-anchor="middle" x="1465.08" y="-336.78" font-family="Times,serif" font-size="18.00"> insert(left_hand, parallelgripper, gear1, shaft1)</text>
</g>
<!-- selector:
 insert(left_hand, parallelgripper, gear1, shaft1)&#45;&gt;sequence:
 insert(left_hand, parallelgripper, gear1, shaft1) -->
<g id="edge2" class="edge">
<title>selector:
 insert(left_hand, parallelgripper, gear1, shaft1)&#45;&gt;sequence:
 insert(left_hand, parallelgripper, gear1, shaft1)</title>
<path fill="none" stroke="black" d="M1319.83,-420.98C1348.44,-407.43 1380.52,-392.24 1407.23,-379.58"/>
<polygon fill="black" stroke="black" points="1408.91,-382.66 1416.45,-375.22 1405.91,-376.34 1408.91,-382.66"/>
</g>
<!-- selector:
 change_tool(left_hand, outwardgripper, parallelgripper) -->
<g id="node4" class="node">
<title>selector:
 change_tool(left_hand, outwardgripper, parallelgripper)</title>
<polygon fill="#8deeee" stroke="black" points="1119.28,-229.19 1119.28,-259.82 883.09,-281.48 549.07,-281.48 312.89,-259.82 312.89,-229.19 549.07,-207.53 883.09,-207.53 1119.28,-229.19"/>
<text text-anchor="middle" x="716.08" y="-250.1" font-family="Times,serif" font-size="18.00">selector:</text>
<text text-anchor="middle" x="716.08" y="-230.1" font-family="Times,serif" font-size="18.00"> change_tool(left_hand, outwardgripper, parallelgripper)</text>
</g>
<!-- sequence:
 insert(left_hand, parallelgripper, gear1, shaft1)&#45;&gt;selector:
 change_tool(left_hand, outwardgripper, parallelgripper) -->
<g id="edge3" class="edge">
<title>sequence:
 insert(left_hand, parallelgripper, gear1, shaft1)&#45;&gt;selector:
 change_tool(left_hand, outwardgripper, parallelgripper)</title>
<path fill="none" stroke="black" d="M1301.75,-327.16C1278.04,-323.82 1253.94,-320.44 1231.08,-317.24 1138.76,-304.31 1037.11,-290.14 948.69,-277.83"/>
<polygon fill="black" stroke="black" points="948.92,-274.33 938.53,-276.42 947.95,-281.26 948.92,-274.33"/>
</g>
<!-- selector:
 pick_up(left_hand, parallelgripper, gear1) -->
<g id="node10" class="node">
<title>selector:
 pick_up(left_hand, parallelgripper, gear1)</title>
<polygon fill="#8deeee" stroke="black" points="1770.34,-229.19 1770.34,-259.82 1591.53,-281.48 1338.64,-281.48 1159.82,-259.82 1159.82,-229.19 1338.64,-207.53 1591.53,-207.53 1770.34,-229.19"/>
<text text-anchor="middle" x="1465.08" y="-250.1" font-family="Times,serif" font-size="18.00">selector:</text>
<text text-anchor="middle" x="1465.08" y="-230.1" font-family="Times,serif" font-size="18.00"> pick_up(left_hand, parallelgripper, gear1)</text>
</g>
<!-- sequence:
 insert(left_hand, parallelgripper, gear1, shaft1)&#45;&gt;selector:
 pick_up(left_hand, parallelgripper, gear1) -->
<g id="edge9" class="edge">
<title>sequence:
 insert(left_hand, parallelgripper, gear1, shaft1)&#45;&gt;selector:
 pick_up(left_hand, parallelgripper, gear1)</title>
<path fill="none" stroke="black" d="M1465.08,-326.95C1465.08,-316.5 1465.08,-303.79 1465.08,-291.54"/>
<polygon fill="black" stroke="black" points="1468.58,-291.42 1465.08,-281.42 1461.58,-291.42 1468.58,-291.42"/>
</g>
<!-- action:
 insert(left_hand, parallelgripper, gear1, shaft1) -->
<g id="node16" class="node">
<title>action:
 insert(left_hand, parallelgripper, gear1, shaft1)</title>
<ellipse fill="lightgreen" stroke="black" cx="2107.08" cy="-244.5" rx="318.4" ry="33.88"/>
<text text-anchor="middle" x="2107.08" y="-250.1" font-family="Times,serif" font-size="18.00">action:</text>
<text text-anchor="middle" x="2107.08" y="-230.1" font-family="Times,serif" font-size="18.00"> insert(left_hand, parallelgripper, gear1, shaft1)</text>
</g>
<!-- sequence:
 insert(left_hand, parallelgripper, gear1, shaft1)&#45;&gt;action:
 insert(left_hand, parallelgripper, gear1, shaft1) -->
<g id="edge15" class="edge">
<title>sequence:
 insert(left_hand, parallelgripper, gear1, shaft1)&#45;&gt;action:
 insert(left_hand, parallelgripper, gear1, shaft1)</title>
<path fill="none" stroke="black" d="M1606.37,-327.14C1700.69,-311.76 1825.56,-291.4 1927,-274.86"/>
<polygon fill="black" stroke="black" points="1927.75,-278.29 1937.06,-273.22 1926.63,-271.38 1927.75,-278.29"/>
</g>
<!-- target:
 hold(left_hand, parallelgripper) -->
<g id="node5" class="node">
<title>target:
 hold(left_hand, parallelgripper)</title>
<ellipse fill="#ffec8b" stroke="black" cx="217.08" cy="-137.82" rx="217.16" ry="33.88"/>
<text text-anchor="middle" x="217.08" y="-143.42" font-family="Times,serif" font-size="18.00">target:</text>
<text text-anchor="middle" x="217.08" y="-123.42" font-family="Times,serif" font-size="18.00"> hold(left_hand, parallelgripper)</text>
</g>
<!-- selector:
 change_tool(left_hand, outwardgripper, parallelgripper)&#45;&gt;target:
 hold(left_hand, parallelgripper) -->
<g id="edge4" class="edge">
<title>selector:
 change_tool(left_hand, outwardgripper, parallelgripper)&#45;&gt;target:
 hold(left_hand, parallelgripper)</title>
<path fill="none" stroke="black" d="M545.75,-207.77C483.17,-194.64 413.17,-179.96 353.91,-167.53"/>
<polygon fill="black" stroke="black" points="354.62,-164.1 344.11,-165.47 353.18,-170.95 354.62,-164.1"/>
</g>
<!-- sequence:
 change_tool(left_hand, outwardgripper, parallelgripper) -->
<g id="node6" class="node">
<title>sequence:
 change_tool(left_hand, outwardgripper, parallelgripper)</title>
<polygon fill="#ff7f24" stroke="black" points="979.58,-161.82 452.58,-161.82 452.58,-113.82 979.58,-113.82 979.58,-161.82"/>
<text text-anchor="middle" x="716.08" y="-143.42" font-family="Times,serif" font-size="18.00">sequence:</text>
<text text-anchor="middle" x="716.08" y="-123.42" font-family="Times,serif" font-size="18.00"> change_tool(left_hand, outwardgripper, parallelgripper)</text>
</g>
<!-- selector:
 change_tool(left_hand, outwardgripper, parallelgripper)&#45;&gt;sequence:
 change_tool(left_hand, outwardgripper, parallelgripper) -->
<g id="edge5" class="edge">
<title>selector:
 change_tool(left_hand, outwardgripper, parallelgripper)&#45;&gt;sequence:
 change_tool(left_hand, outwardgripper, parallelgripper)</title>
<path fill="none" stroke="black" d="M716.08,-207.48C716.08,-196.09 716.08,-183.57 716.08,-172.36"/>
<polygon fill="black" stroke="black" points="719.58,-172.11 716.08,-162.11 712.58,-172.11 719.58,-172.11"/>
</g>
<!-- precondition:
 hold(left_hand, outwardgripper) -->
<g id="node7" class="node">
<title>precondition:
 hold(left_hand, outwardgripper)</title>
<ellipse fill="#ffec8b" stroke="black" cx="283.08" cy="-33.94" rx="221.15" ry="33.88"/>
<text text-anchor="middle" x="283.08" y="-39.54" font-family="Times,serif" font-size="18.00">precondition:</text>
<text text-anchor="middle" x="283.08" y="-19.54" font-family="Times,serif" font-size="18.00"> hold(left_hand, outwardgripper)</text>
</g>
<!-- sequence:
 change_tool(left_hand, outwardgripper, parallelgripper)&#45;&gt;precondition:
 hold(left_hand, outwardgripper) -->
<g id="edge6" class="edge">
<title>sequence:
 change_tool(left_hand, outwardgripper, parallelgripper)&#45;&gt;precondition:
 hold(left_hand, outwardgripper)</title>
<path fill="none" stroke="black" d="M618.1,-113.77C556.88,-99.36 477.38,-80.66 411.19,-65.08"/>
<polygon fill="black" stroke="black" points="411.64,-61.59 401.1,-62.71 410.04,-68.41 411.64,-61.59"/>
</g>
<!-- precondition:
 is_empty(outwardgripper) -->
<g id="node8" class="node">
<title>precondition:
 is_empty(outwardgripper)</title>
<ellipse fill="#ffec8b" stroke="black" cx="705.08" cy="-33.94" rx="183.28" ry="33.88"/>
<text text-anchor="middle" x="705.08" y="-39.54" font-family="Times,serif" font-size="18.00">precondition:</text>
<text text-anchor="middle" x="705.08" y="-19.54" font-family="Times,serif" font-size="18.00"> is_empty(outwardgripper)</text>
</g>
<!-- sequence:
 change_tool(left_hand, outwardgripper, parallelgripper)&#45;&gt;precondition:
 is_empty(outwardgripper) -->
<g id="edge7" class="edge">
<title>sequence:
 change_tool(left_hand, outwardgripper, parallelgripper)&#45;&gt;precondition:
 is_empty(outwardgripper)</title>
<path fill="none" stroke="black" d="M713.59,-113.7C712.45,-103.16 711.06,-90.31 709.74,-78.08"/>
<polygon fill="black" stroke="black" points="713.21,-77.58 708.65,-68.01 706.25,-78.33 713.21,-77.58"/>
</g>
<!-- action:
 change_tool(left_hand, outwardgripper, parallelgripper) -->
<g id="node9" class="node">
<title>action:
 change_tool(left_hand, outwardgripper, parallelgripper)</title>
<ellipse fill="lightgreen" stroke="black" cx="1279.08" cy="-33.94" rx="372.79" ry="33.88"/>
<text text-anchor="middle" x="1279.08" y="-39.54" font-family="Times,serif" font-size="18.00">action:</text>
<text text-anchor="middle" x="1279.08" y="-19.54" font-family="Times,serif" font-size="18.00"> change_tool(left_hand, outwardgripper, parallelgripper)</text>
</g>
<!-- sequence:
 change_tool(left_hand, outwardgripper, parallelgripper)&#45;&gt;action:
 change_tool(left_hand, outwardgripper, parallelgripper) -->
<g id="edge8" class="edge">
<title>sequence:
 change_tool(left_hand, outwardgripper, parallelgripper)&#45;&gt;action:
 change_tool(left_hand, outwardgripper, parallelgripper)</title>
<path fill="none" stroke="black" d="M843.48,-113.77C921.02,-99.74 1021.1,-81.63 1105.78,-66.3"/>
<polygon fill="black" stroke="black" points="1106.55,-69.72 1115.76,-64.5 1105.3,-62.83 1106.55,-69.72"/>
</g>
<!-- target:
 hold(parallelgripper, gear1) -->
<g id="node11" class="node">
<title>target:
 hold(parallelgripper, gear1)</title>
<ellipse fill="#ffec8b" stroke="black" cx="1465.08" cy="-137.82" rx="192.17" ry="33.88"/>
<text text-anchor="middle" x="1465.08" y="-143.42" font-family="Times,serif" font-size="18.00">target:</text>
<text text-anchor="middle" x="1465.08" y="-123.42" font-family="Times,serif" font-size="18.00"> hold(parallelgripper, gear1)</text>
</g>
<!-- selector:
 pick_up(left_hand, parallelgripper, gear1)&#45;&gt;target:
 hold(parallelgripper, gear1) -->
<g id="edge10" class="edge">
<title>selector:
 pick_up(left_hand, parallelgripper, gear1)&#45;&gt;target:
 hold(parallelgripper, gear1)</title>
<path fill="none" stroke="black" d="M1465.08,-207.48C1465.08,-199.32 1465.08,-190.58 1465.08,-182.15"/>
<polygon fill="black" stroke="black" points="1468.58,-182.1 1465.08,-172.1 1461.58,-182.1 1468.58,-182.1"/>
</g>
<!-- sequence:
 pick_up(left_hand, parallelgripper, gear1) -->
<g id="node12" class="node">
<title>sequence:
 pick_up(left_hand, parallelgripper, gear1)</title>
<polygon fill="#ff7f24" stroke="black" points="2293.58,-161.82 1894.58,-161.82 1894.58,-113.82 2293.58,-113.82 2293.58,-161.82"/>
<text text-anchor="middle" x="2094.08" y="-143.42" font-family="Times,serif" font-size="18.00">sequence:</text>
<text text-anchor="middle" x="2094.08" y="-123.42" font-family="Times,serif" font-size="18.00"> pick_up(left_hand, parallelgripper, gear1)</text>
</g>
<!-- selector:
 pick_up(left_hand, parallelgripper, gear1)&#45;&gt;sequence:
 pick_up(left_hand, parallelgripper, gear1) -->
<g id="edge11" class="edge">
<title>selector:
 pick_up(left_hand, parallelgripper, gear1)&#45;&gt;sequence:
 pick_up(left_hand, parallelgripper, gear1)</title>
<path fill="none" stroke="black" d="M1643.65,-213.79C1739.13,-197.89 1855.31,-178.56 1945.77,-163.51"/>
<polygon fill="black" stroke="black" points="1946.54,-166.93 1955.83,-161.83 1945.39,-160.02 1946.54,-166.93"/>
</g>
<!-- precondition:
 hold(left_hand, parallelgripper) -->
<g id="node13" class="node">
<title>precondition:
 hold(left_hand, parallelgripper)</title>
<ellipse fill="#ffec8b" stroke="black" cx="1887.08" cy="-33.94" rx="217.16" ry="33.88"/>
<text text-anchor="middle" x="1887.08" y="-39.54" font-family="Times,serif" font-size="18.00">precondition:</text>
<text text-anchor="middle" x="1887.08" y="-19.54" font-family="Times,serif" font-size="18.00"> hold(left_hand, parallelgripper)</text>
</g>
<!-- sequence:
 pick_up(left_hand, parallelgripper, gear1)&#45;&gt;precondition:
 hold(left_hand, parallelgripper) -->
<g id="edge12" class="edge">
<title>sequence:
 pick_up(left_hand, parallelgripper, gear1)&#45;&gt;precondition:
 hold(left_hand, parallelgripper)</title>
<path fill="none" stroke="black" d="M2047.11,-113.7C2021.49,-101.1 1989.21,-85.21 1960.36,-71.01"/>
<polygon fill="black" stroke="black" points="1961.65,-67.74 1951.13,-66.46 1958.56,-74.02 1961.65,-67.74"/>
</g>
<!-- precondition:
 is_empty(parallelgripper) -->
<g id="node14" class="node">
<title>precondition:
 is_empty(parallelgripper)</title>
<ellipse fill="#ffec8b" stroke="black" cx="2301.08" cy="-33.94" rx="178.8" ry="33.88"/>
<text text-anchor="middle" x="2301.08" y="-39.54" font-family="Times,serif" font-size="18.00">precondition:</text>
<text text-anchor="middle" x="2301.08" y="-19.54" font-family="Times,serif" font-size="18.00"> is_empty(parallelgripper)</text>
</g>
<!-- sequence:
 pick_up(left_hand, parallelgripper, gear1)&#45;&gt;precondition:
 is_empty(parallelgripper) -->
<g id="edge13" class="edge">
<title>sequence:
 pick_up(left_hand, parallelgripper, gear1)&#45;&gt;precondition:
 is_empty(parallelgripper)</title>
<path fill="none" stroke="black" d="M2141.05,-113.7C2166.99,-100.94 2199.77,-84.81 2228.89,-70.47"/>
<polygon fill="black" stroke="black" points="2230.78,-73.44 2238.2,-65.89 2227.69,-67.16 2230.78,-73.44"/>
</g>
<!-- action:
 pick_up(left_hand, parallelgripper, gear1) -->
<g id="node15" class="node">
<title>action:
 pick_up(left_hand, parallelgripper, gear1)</title>
<ellipse fill="lightgreen" stroke="black" cx="2780.08" cy="-33.94" rx="282.27" ry="33.88"/>
<text text-anchor="middle" x="2780.08" y="-39.54" font-family="Times,serif" font-size="18.00">action:</text>
<text text-anchor="middle" x="2780.08" y="-19.54" font-family="Times,serif" font-size="18.00"> pick_up(left_hand, parallelgripper, gear1)</text>
</g>
<!-- sequence:
 pick_up(left_hand, parallelgripper, gear1)&#45;&gt;action:
 pick_up(left_hand, parallelgripper, gear1) -->
<g id="edge14" class="edge">
<title>sequence:
 pick_up(left_hand, parallelgripper, gear1)&#45;&gt;action:
 pick_up(left_hand, parallelgripper, gear1)</title>
<path fill="none" stroke="black" d="M2249.32,-113.77C2352.32,-98.47 2487.98,-78.32 2596.37,-62.23"/>
<polygon fill="black" stroke="black" points="2597.06,-65.66 2606.44,-60.73 2596.03,-58.74 2597.06,-65.66"/>
</g>
</g>
</svg>
