<?xml version="1.0" encoding="UTF-8" standalone="no"?>
<!DOCTYPE svg PUBLIC "-//W3C//DTD SVG 1.1//EN"
 "http://www.w3.org/Graphics/SVG/1.1/DTD/svg11.dtd">
<!-- Generated by graphviz version 2.43.0 (0)
 -->
<!-- Title: pastafarianism Pages: 1 -->
<svg width="1935pt" height="503pt"
 viewBox="0.00 0.00 1935.28 502.60" xmlns="http://www.w3.org/2000/svg" xmlns:xlink="http://www.w3.org/1999/xlink">
<g id="graph0" class="graph" transform="scale(1 1) rotate(0) translate(4 498.6)">
<title>pastafarianism</title>
<polygon fill="white" stroke="transparent" points="-4,4 -4,-498.6 1931.28,-498.6 1931.28,4 -4,4"/>
<!-- selector:
 insert(left_hand, parallelgripper, gear1, shaft1) -->
<g id="node1" class="node">
<title>selector:
 insert(left_hand, parallelgripper, gear1, shaft1)</title>
<polygon fill="#8deeee" stroke="black" points="1203.41,-442.54 1203.41,-473.18 1001.71,-494.84 716.46,-494.84 514.75,-473.18 514.75,-442.54 716.46,-420.88 1001.71,-420.88 1203.41,-442.54"/>
<text text-anchor="middle" x="859.08" y="-463.46" font-family="Times,serif" font-size="18.00">selector:</text>
<text text-anchor="middle" x="859.08" y="-443.46" font-family="Times,serif" font-size="18.00"> insert(left_hand, parallelgripper, gear1, shaft1)</text>
</g>
<!-- target:
 is_inserted_to(gear1, shaft1) -->
<g id="node2" class="node">
<title>target:
 is_inserted_to(gear1, shaft1)</title>
<ellipse fill="#ffec8b" stroke="black" cx="638.08" cy="-351.18" rx="198.89" ry="33.88"/>
<text text-anchor="middle" x="638.08" y="-356.78" font-family="Times,serif" font-size="18.00">target:</text>
<text text-anchor="middle" x="638.08" y="-336.78" font-family="Times,serif" font-size="18.00"> is_inserted_to(gear1, shaft1)</text>
</g>
<!-- selector:
 insert(left_hand, parallelgripper, gear1, shaft1)&#45;&gt;target:
 is_inserted_to(gear1, shaft1) -->
<g id="edge1" class="edge">
<title>selector:
 insert(left_hand, parallelgripper, gear1, shaft1)&#45;&gt;target:
 is_inserted_to(gear1, shaft1)</title>
<path fill="none" stroke="black" d="M783.34,-420.98C760.6,-410.21 735.68,-398.41 713.01,-387.67"/>
<polygon fill="black" stroke="black" points="714.31,-384.41 703.77,-383.29 711.31,-390.74 714.31,-384.41"/>
</g>
<!-- sequence:
 insert(left_hand, parallelgripper, gear1, shaft1) -->
<g id="node3" class="node">
<title>sequence:
 insert(left_hand, parallelgripper, gear1, shaft1)</title>
<polygon fill="#ff7f24" stroke="black" points="1305.08,-375.18 855.08,-375.18 855.08,-327.18 1305.08,-327.18 1305.08,-375.18"/>
<text text-anchor="middle" x="1080.08" y="-356.78" font-family="Times,serif" font-size="18.00">sequence:</text>
<text text-anchor="middle" x="1080.08" y="-336.78" font-family="Times,serif" font-size="18.00"> insert(left_hand, parallelgripper, gear1, shaft1)</text>
</g>
<!-- selector:
 insert(left_hand, parallelgripper, gear1, shaft1)&#45;&gt;sequence:
 insert(left_hand, parallelgripper, gear1, shaft1) -->
<g id="edge2" class="edge">
<title>selector:
 insert(left_hand, parallelgripper, gear1, shaft1)&#45;&gt;sequence:
 insert(left_hand, parallelgripper, gear1, shaft1)</title>
<path fill="none" stroke="black" d="M934.83,-420.98C963.44,-407.43 995.52,-392.24 1022.23,-379.58"/>
<polygon fill="black" stroke="black" points="1023.91,-382.66 1031.45,-375.22 1020.91,-376.34 1023.91,-382.66"/>
</g>
<!-- selector:
 change_tool(left_hand, outwardgripper, parallelgripper) -->
<g id="node4" class="node">
<title>selector:
 change_tool(left_hand, outwardgripper, parallelgripper)</title>
<polygon fill="#8deeee" stroke="black" points="869.28,-229.19 869.28,-259.82 633.09,-281.48 299.07,-281.48 62.89,-259.82 62.89,-229.19 299.07,-207.53 633.09,-207.53 869.28,-229.19"/>
<text text-anchor="middle" x="466.08" y="-250.1" font-family="Times,serif" font-size="18.00">selector:</text>
<text text-anchor="middle" x="466.08" y="-230.1" font-family="Times,serif" font-size="18.00"> change_tool(left_hand, outwardgripper, parallelgripper)</text>
</g>
<!-- sequence:
 insert(left_hand, parallelgripper, gear1, shaft1)&#45;&gt;selector:
 change_tool(left_hand, outwardgripper, parallelgripper) -->
<g id="edge3" class="edge">
<title>sequence:
 insert(left_hand, parallelgripper, gear1, shaft1)&#45;&gt;selector:
 change_tool(left_hand, outwardgripper, parallelgripper)</title>
<path fill="none" stroke="black" d="M944.96,-327.14C864.9,-313.49 761.82,-295.92 671.83,-280.58"/>
<polygon fill="black" stroke="black" points="672.21,-277.09 661.76,-278.86 671.03,-283.99 672.21,-277.09"/>
</g>
<!-- precondition:
 hold(parallelgripper, gear1) -->
<g id="node10" class="node">
<title>precondition:
 hold(parallelgripper, gear1)</title>
<ellipse fill="#ffec8b" stroke="black" cx="1080.08" cy="-244.5" rx="192.17" ry="33.88"/>
<text text-anchor="middle" x="1080.08" y="-250.1" font-family="Times,serif" font-size="18.00">precondition:</text>
<text text-anchor="middle" x="1080.08" y="-230.1" font-family="Times,serif" font-size="18.00"> hold(parallelgripper, gear1)</text>
</g>
<!-- sequence:
 insert(left_hand, parallelgripper, gear1, shaft1)&#45;&gt;precondition:
 hold(parallelgripper, gear1) -->
<g id="edge9" class="edge">
<title>sequence:
 insert(left_hand, parallelgripper, gear1, shaft1)&#45;&gt;precondition:
 hold(parallelgripper, gear1)</title>
<path fill="none" stroke="black" d="M1080.08,-326.95C1080.08,-315.73 1080.08,-301.9 1080.08,-288.84"/>
<polygon fill="black" stroke="black" points="1083.58,-288.6 1080.08,-278.6 1076.58,-288.6 1083.58,-288.6"/>
</g>
<!-- action:
 insert(left_hand, parallelgripper, gear1, shaft1) -->
<g id="node11" class="node">
<title>action:
 insert(left_hand, parallelgripper, gear1, shaft1)</title>
<ellipse fill="lightgreen" stroke="black" cx="1609.08" cy="-244.5" rx="318.4" ry="33.88"/>
<text text-anchor="middle" x="1609.08" y="-250.1" font-family="Times,serif" font-size="18.00">action:</text>
<text text-anchor="middle" x="1609.08" y="-230.1" font-family="Times,serif" font-size="18.00"> insert(left_hand, parallelgripper, gear1, shaft1)</text>
</g>
<!-- sequence:
 insert(left_hand, parallelgripper, gear1, shaft1)&#45;&gt;action:
 insert(left_hand, parallelgripper, gear1, shaft1) -->
<g id="edge10" class="edge">
<title>sequence:
 insert(left_hand, parallelgripper, gear1, shaft1)&#45;&gt;action:
 insert(left_hand, parallelgripper, gear1, shaft1)</title>
<path fill="none" stroke="black" d="M1196.5,-327.14C1271.48,-312.31 1369.89,-292.83 1451.79,-276.63"/>
<polygon fill="black" stroke="black" points="1452.56,-280.04 1461.69,-274.67 1451.2,-273.18 1452.56,-280.04"/>
</g>
<!-- target:
 hold(left_hand, parallelgripper) -->
<g id="node5" class="node">
<title>target:
 hold(left_hand, parallelgripper)</title>
<ellipse fill="#ffec8b" stroke="black" cx="217.08" cy="-137.82" rx="217.16" ry="33.88"/>
<text text-anchor="middle" x="217.08" y="-143.42" font-family="Times,serif" font-size="18.00">target:</text>
<text text-anchor="middle" x="217.08" y="-123.42" font-family="Times,serif" font-size="18.00"> hold(left_hand, parallelgripper)</text>
</g>
<!-- selector:
 change_tool(left_hand, outwardgripper, parallelgripper)&#45;&gt;target:
 hold(left_hand, parallelgripper) -->
<g id="edge4" class="edge">
<title>selector:
 change_tool(left_hand, outwardgripper, parallelgripper)&#45;&gt;target:
 hold(left_hand, parallelgripper)</title>
<path fill="none" stroke="black" d="M380.74,-207.62C354.66,-196.66 326.03,-184.62 300.1,-173.73"/>
<polygon fill="black" stroke="black" points="301.26,-170.41 290.68,-169.77 298.55,-176.87 301.26,-170.41"/>
</g>
<!-- sequence:
 change_tool(left_hand, outwardgripper, parallelgripper) -->
<g id="node6" class="node">
<title>sequence:
 change_tool(left_hand, outwardgripper, parallelgripper)</title>
<polygon fill="#ff7f24" stroke="black" points="979.58,-161.82 452.58,-161.82 452.58,-113.82 979.58,-113.82 979.58,-161.82"/>
<text text-anchor="middle" x="716.08" y="-143.42" font-family="Times,serif" font-size="18.00">sequence:</text>
<text text-anchor="middle" x="716.08" y="-123.42" font-family="Times,serif" font-size="18.00"> change_tool(left_hand, outwardgripper, parallelgripper)</text>
</g>
<!-- selector:
 change_tool(left_hand, outwardgripper, parallelgripper)&#45;&gt;sequence:
 change_tool(left_hand, outwardgripper, parallelgripper) -->
<g id="edge5" class="edge">
<title>selector:
 change_tool(left_hand, outwardgripper, parallelgripper)&#45;&gt;sequence:
 change_tool(left_hand, outwardgripper, parallelgripper)</title>
<path fill="none" stroke="black" d="M551.77,-207.62C584.56,-193.89 621.37,-178.48 651.83,-165.73"/>
<polygon fill="black" stroke="black" points="653.19,-168.95 661.06,-161.86 650.49,-162.49 653.19,-168.95"/>
</g>
<!-- precondition:
 hold(left_hand, outwardgripper) -->
<g id="node7" class="node">
<title>precondition:
 hold(left_hand, outwardgripper)</title>
<ellipse fill="#ffec8b" stroke="black" cx="294.08" cy="-33.94" rx="221.15" ry="33.88"/>
<text text-anchor="middle" x="294.08" y="-39.54" font-family="Times,serif" font-size="18.00">precondition:</text>
<text text-anchor="middle" x="294.08" y="-19.54" font-family="Times,serif" font-size="18.00"> hold(left_hand, outwardgripper)</text>
</g>
<!-- sequence:
 change_tool(left_hand, outwardgripper, parallelgripper)&#45;&gt;precondition:
 hold(left_hand, outwardgripper) -->
<g id="edge6" class="edge">
<title>sequence:
 change_tool(left_hand, outwardgripper, parallelgripper)&#45;&gt;precondition:
 hold(left_hand, outwardgripper)</title>
<path fill="none" stroke="black" d="M620.59,-113.77C561.15,-99.42 484.04,-80.8 419.69,-65.27"/>
<polygon fill="black" stroke="black" points="420.42,-61.84 409.88,-62.9 418.78,-68.65 420.42,-61.84"/>
</g>
<!-- precondition:
 is_empty(outwardgripper) -->
<g id="node8" class="node">
<title>precondition:
 is_empty(outwardgripper)</title>
<ellipse fill="#ffec8b" stroke="black" cx="716.08" cy="-33.94" rx="183.28" ry="33.88"/>
<text text-anchor="middle" x="716.08" y="-39.54" font-family="Times,serif" font-size="18.00">precondition:</text>
<text text-anchor="middle" x="716.08" y="-19.54" font-family="Times,serif" font-size="18.00"> is_empty(outwardgripper)</text>
</g>
<!-- sequence:
 change_tool(left_hand, outwardgripper, parallelgripper)&#45;&gt;precondition:
 is_empty(outwardgripper) -->
<g id="edge7" class="edge">
<title>sequence:
 change_tool(left_hand, outwardgripper, parallelgripper)&#45;&gt;precondition:
 is_empty(outwardgripper)</title>
<path fill="none" stroke="black" d="M716.08,-113.7C716.08,-103.16 716.08,-90.31 716.08,-78.08"/>
<polygon fill="black" stroke="black" points="719.58,-78.01 716.08,-68.01 712.58,-78.01 719.58,-78.01"/>
</g>
<!-- action:
 change_tool(left_hand, outwardgripper, parallelgripper) -->
<g id="node9" class="node">
<title>action:
 change_tool(left_hand, outwardgripper, parallelgripper)</title>
<ellipse fill="lightgreen" stroke="black" cx="1290.08" cy="-33.94" rx="372.79" ry="33.88"/>
<text text-anchor="middle" x="1290.08" y="-39.54" font-family="Times,serif" font-size="18.00">action:</text>
<text text-anchor="middle" x="1290.08" y="-19.54" font-family="Times,serif" font-size="18.00"> change_tool(left_hand, outwardgripper, parallelgripper)</text>
</g>
<!-- sequence:
 change_tool(left_hand, outwardgripper, parallelgripper)&#45;&gt;action:
 change_tool(left_hand, outwardgripper, parallelgripper) -->
<g id="edge8" class="edge">
<title>sequence:
 change_tool(left_hand, outwardgripper, parallelgripper)&#45;&gt;action:
 change_tool(left_hand, outwardgripper, parallelgripper)</title>
<path fill="none" stroke="black" d="M845.97,-113.77C925.34,-99.68 1027.89,-81.48 1114.44,-66.12"/>
<polygon fill="black" stroke="black" points="1115.14,-69.55 1124.37,-64.35 1113.91,-62.66 1115.14,-69.55"/>
</g>
</g>
</svg>
