<?xml version="1.0" encoding="UTF-8" standalone="no"?>
<!DOCTYPE svg PUBLIC "-//W3C//DTD SVG 1.1//EN"
 "http://www.w3.org/Graphics/SVG/1.1/DTD/svg11.dtd">
<!-- Generated by graphviz version 2.43.0 (0)
 -->
<!-- Title: pastafarianism Pages: 1 -->
<svg width="1762pt" height="289pt"
 viewBox="0.00 0.00 1762.06 289.24" xmlns="http://www.w3.org/2000/svg" xmlns:xlink="http://www.w3.org/1999/xlink">
<g id="graph0" class="graph" transform="scale(1 1) rotate(0) translate(4 285.24)">
<title>pastafarianism</title>
<polygon fill="white" stroke="transparent" points="-4,4 -4,-285.24 1758.06,-285.24 1758.06,4 -4,4"/>
<!-- selector:
 place(left_hand, outwardgripper, lampshade, lampbulb) -->
<g id="node1" class="node">
<title>selector:
 place(left_hand, outwardgripper, lampshade, lampbulb)</title>
<polygon fill="#8deeee" stroke="black" points="904.79,-229.19 904.79,-259.82 668.91,-281.48 335.33,-281.48 99.46,-259.82 99.46,-229.19 335.33,-207.53 668.91,-207.53 904.79,-229.19"/>
<text text-anchor="middle" x="502.12" y="-250.1" font-family="Times,serif" font-size="18.00">selector:</text>
<text text-anchor="middle" x="502.12" y="-230.1" font-family="Times,serif" font-size="18.00"> place(left_hand, outwardgripper, lampshade, lampbulb)</text>
</g>
<!-- target:
 is_placed_to(lampshade, lampbulb) -->
<g id="node2" class="node">
<title>target:
 is_placed_to(lampshade, lampbulb)</title>
<ellipse fill="#ffec8b" stroke="black" cx="241.12" cy="-137.82" rx="241.25" ry="33.88"/>
<text text-anchor="middle" x="241.12" y="-143.42" font-family="Times,serif" font-size="18.00">target:</text>
<text text-anchor="middle" x="241.12" y="-123.42" font-family="Times,serif" font-size="18.00"> is_placed_to(lampshade, lampbulb)</text>
</g>
<!-- selector:
 place(left_hand, outwardgripper, lampshade, lampbulb)&#45;&gt;target:
 is_placed_to(lampshade, lampbulb) -->
<g id="edge1" class="edge">
<title>selector:
 place(left_hand, outwardgripper, lampshade, lampbulb)&#45;&gt;target:
 is_placed_to(lampshade, lampbulb)</title>
<path fill="none" stroke="black" d="M412.67,-207.62C385.47,-196.72 355.63,-184.75 328.58,-173.9"/>
<polygon fill="black" stroke="black" points="329.71,-170.58 319.13,-170.11 327.11,-177.08 329.71,-170.58"/>
</g>
<!-- sequence:
 place(left_hand, outwardgripper, lampshade, lampbulb) -->
<g id="node3" class="node">
<title>sequence:
 place(left_hand, outwardgripper, lampshade, lampbulb)</title>
<polygon fill="#ff7f24" stroke="black" points="1026.12,-161.82 500.12,-161.82 500.12,-113.82 1026.12,-113.82 1026.12,-161.82"/>
<text text-anchor="middle" x="763.12" y="-143.42" font-family="Times,serif" font-size="18.00">sequence:</text>
<text text-anchor="middle" x="763.12" y="-123.42" font-family="Times,serif" font-size="18.00"> place(left_hand, outwardgripper, lampshade, lampbulb)</text>
</g>
<!-- selector:
 place(left_hand, outwardgripper, lampshade, lampbulb)&#45;&gt;sequence:
 place(left_hand, outwardgripper, lampshade, lampbulb) -->
<g id="edge2" class="edge">
<title>selector:
 place(left_hand, outwardgripper, lampshade, lampbulb)&#45;&gt;sequence:
 place(left_hand, outwardgripper, lampshade, lampbulb)</title>
<path fill="none" stroke="black" d="M591.58,-207.62C625.82,-193.89 664.25,-178.48 696.04,-165.73"/>
<polygon fill="black" stroke="black" points="697.71,-168.83 705.68,-161.86 695.1,-162.33 697.71,-168.83"/>
</g>
<!-- precondition:
 hold(left_hand, outwardgripper) -->
<g id="node4" class="node">
<title>precondition:
 hold(left_hand, outwardgripper)</title>
<ellipse fill="#ffec8b" stroke="black" cx="295.12" cy="-33.94" rx="221.15" ry="33.88"/>
<text text-anchor="middle" x="295.12" y="-39.54" font-family="Times,serif" font-size="18.00">precondition:</text>
<text text-anchor="middle" x="295.12" y="-19.54" font-family="Times,serif" font-size="18.00"> hold(left_hand, outwardgripper)</text>
</g>
<!-- sequence:
 place(left_hand, outwardgripper, lampshade, lampbulb)&#45;&gt;precondition:
 hold(left_hand, outwardgripper) -->
<g id="edge3" class="edge">
<title>sequence:
 place(left_hand, outwardgripper, lampshade, lampbulb)&#45;&gt;precondition:
 hold(left_hand, outwardgripper)</title>
<path fill="none" stroke="black" d="M657.22,-113.77C589.88,-99.11 502.07,-79.99 429.79,-64.26"/>
<polygon fill="black" stroke="black" points="430.22,-60.77 419.7,-62.06 428.73,-67.61 430.22,-60.77"/>
</g>
<!-- precondition:
 hold(outwardgripper, lampshade) -->
<g id="node5" class="node">
<title>precondition:
 hold(outwardgripper, lampshade)</title>
<ellipse fill="#ffec8b" stroke="black" cx="763.12" cy="-33.94" rx="229.21" ry="33.88"/>
<text text-anchor="middle" x="763.12" y="-39.54" font-family="Times,serif" font-size="18.00">precondition:</text>
<text text-anchor="middle" x="763.12" y="-19.54" font-family="Times,serif" font-size="18.00"> hold(outwardgripper, lampshade)</text>
</g>
<!-- sequence:
 place(left_hand, outwardgripper, lampshade, lampbulb)&#45;&gt;precondition:
 hold(outwardgripper, lampshade) -->
<g id="edge4" class="edge">
<title>sequence:
 place(left_hand, outwardgripper, lampshade, lampbulb)&#45;&gt;precondition:
 hold(outwardgripper, lampshade)</title>
<path fill="none" stroke="black" d="M763.12,-113.7C763.12,-103.16 763.12,-90.31 763.12,-78.08"/>
<polygon fill="black" stroke="black" points="766.62,-78.01 763.12,-68.01 759.62,-78.01 766.62,-78.01"/>
</g>
<!-- action:
 place(left_hand, outwardgripper, lampshade, lampbulb) -->
<g id="node6" class="node">
<title>action:
 place(left_hand, outwardgripper, lampshade, lampbulb)</title>
<ellipse fill="lightgreen" stroke="black" cx="1382.12" cy="-33.94" rx="371.88" ry="33.88"/>
<text text-anchor="middle" x="1382.12" y="-39.54" font-family="Times,serif" font-size="18.00">action:</text>
<text text-anchor="middle" x="1382.12" y="-19.54" font-family="Times,serif" font-size="18.00"> place(left_hand, outwardgripper, lampshade, lampbulb)</text>
</g>
<!-- sequence:
 place(left_hand, outwardgripper, lampshade, lampbulb)&#45;&gt;action:
 place(left_hand, outwardgripper, lampshade, lampbulb) -->
<g id="edge5" class="edge">
<title>sequence:
 place(left_hand, outwardgripper, lampshade, lampbulb)&#45;&gt;action:
 place(left_hand, outwardgripper, lampshade, lampbulb)</title>
<path fill="none" stroke="black" d="M903.2,-113.77C989.91,-99.5 1102.28,-81 1196.37,-65.51"/>
<polygon fill="black" stroke="black" points="1196.99,-68.96 1206.29,-63.88 1195.85,-62.05 1196.99,-68.96"/>
</g>
</g>
</svg>
