<?xml version="1.0" encoding="UTF-8" standalone="no"?>
<!DOCTYPE svg PUBLIC "-//W3C//DTD SVG 1.1//EN"
 "http://www.w3.org/Graphics/SVG/1.1/DTD/svg11.dtd">
<!-- Generated by graphviz version 2.43.0 (0)
 -->
<!-- Title: pastafarianism Pages: 1 -->
<svg width="3115pt" height="503pt"
 viewBox="0.00 0.00 3115.23 502.60" xmlns="http://www.w3.org/2000/svg" xmlns:xlink="http://www.w3.org/1999/xlink">
<g id="graph0" class="graph" transform="scale(1 1) rotate(0) translate(4 498.6)">
<title>pastafarianism</title>
<polygon fill="white" stroke="transparent" points="-4,4 -4,-498.6 3111.23,-498.6 3111.23,4 -4,4"/>
<!-- selector:
 place(left_hand, outwardgripper, lampshade, lampbulb) -->
<g id="node1" class="node">
<title>selector:
 place(left_hand, outwardgripper, lampshade, lampbulb)</title>
<polygon fill="#8deeee" stroke="black" points="1713.99,-442.54 1713.99,-473.18 1478.11,-494.84 1144.53,-494.84 908.66,-473.18 908.66,-442.54 1144.53,-420.88 1478.11,-420.88 1713.99,-442.54"/>
<text text-anchor="middle" x="1311.32" y="-463.46" font-family="Times,serif" font-size="18.00">selector:</text>
<text text-anchor="middle" x="1311.32" y="-443.46" font-family="Times,serif" font-size="18.00"> place(left_hand, outwardgripper, lampshade, lampbulb)</text>
</g>
<!-- target:
 is_placed_to(lampshade, lampbulb) -->
<g id="node2" class="node">
<title>target:
 is_placed_to(lampshade, lampbulb)</title>
<ellipse fill="#ffec8b" stroke="black" cx="1050.32" cy="-351.18" rx="241.25" ry="33.88"/>
<text text-anchor="middle" x="1050.32" y="-356.78" font-family="Times,serif" font-size="18.00">target:</text>
<text text-anchor="middle" x="1050.32" y="-336.78" font-family="Times,serif" font-size="18.00"> is_placed_to(lampshade, lampbulb)</text>
</g>
<!-- selector:
 place(left_hand, outwardgripper, lampshade, lampbulb)&#45;&gt;target:
 is_placed_to(lampshade, lampbulb) -->
<g id="edge1" class="edge">
<title>selector:
 place(left_hand, outwardgripper, lampshade, lampbulb)&#45;&gt;target:
 is_placed_to(lampshade, lampbulb)</title>
<path fill="none" stroke="black" d="M1221.87,-420.98C1194.68,-410.08 1164.84,-398.11 1137.78,-387.26"/>
<polygon fill="black" stroke="black" points="1138.91,-383.94 1128.33,-383.47 1136.31,-390.44 1138.91,-383.94"/>
</g>
<!-- sequence:
 place(left_hand, outwardgripper, lampshade, lampbulb) -->
<g id="node3" class="node">
<title>sequence:
 place(left_hand, outwardgripper, lampshade, lampbulb)</title>
<polygon fill="#ff7f24" stroke="black" points="1835.32,-375.18 1309.32,-375.18 1309.32,-327.18 1835.32,-327.18 1835.32,-375.18"/>
<text text-anchor="middle" x="1572.32" y="-356.78" font-family="Times,serif" font-size="18.00">sequence:</text>
<text text-anchor="middle" x="1572.32" y="-336.78" font-family="Times,serif" font-size="18.00"> place(left_hand, outwardgripper, lampshade, lampbulb)</text>
</g>
<!-- selector:
 place(left_hand, outwardgripper, lampshade, lampbulb)&#45;&gt;sequence:
 place(left_hand, outwardgripper, lampshade, lampbulb) -->
<g id="edge2" class="edge">
<title>selector:
 place(left_hand, outwardgripper, lampshade, lampbulb)&#45;&gt;sequence:
 place(left_hand, outwardgripper, lampshade, lampbulb)</title>
<path fill="none" stroke="black" d="M1400.78,-420.98C1435.02,-407.25 1473.45,-391.84 1505.24,-379.09"/>
<polygon fill="black" stroke="black" points="1506.91,-382.19 1514.89,-375.22 1504.3,-375.69 1506.91,-382.19"/>
</g>
<!-- selector:
 change_tool(left_hand, inwardgripper, outwardgripper) -->
<g id="node4" class="node">
<title>selector:
 change_tool(left_hand, inwardgripper, outwardgripper)</title>
<polygon fill="#8deeee" stroke="black" points="1119.84,-229.19 1119.84,-259.82 886.39,-281.48 556.26,-281.48 322.81,-259.82 322.81,-229.19 556.26,-207.53 886.39,-207.53 1119.84,-229.19"/>
<text text-anchor="middle" x="721.32" y="-250.1" font-family="Times,serif" font-size="18.00">selector:</text>
<text text-anchor="middle" x="721.32" y="-230.1" font-family="Times,serif" font-size="18.00"> change_tool(left_hand, inwardgripper, outwardgripper)</text>
</g>
<!-- sequence:
 place(left_hand, outwardgripper, lampshade, lampbulb)&#45;&gt;selector:
 change_tool(left_hand, inwardgripper, outwardgripper) -->
<g id="edge3" class="edge">
<title>sequence:
 place(left_hand, outwardgripper, lampshade, lampbulb)&#45;&gt;selector:
 change_tool(left_hand, inwardgripper, outwardgripper)</title>
<path fill="none" stroke="black" d="M1385.31,-327.18C1263.22,-312.16 1102.45,-292.38 969.68,-276.05"/>
<polygon fill="black" stroke="black" points="969.72,-272.53 959.37,-274.78 968.86,-279.48 969.72,-272.53"/>
</g>
<!-- selector:
 pick_up(left_hand, outwardgripper, lampshade) -->
<g id="node10" class="node">
<title>selector:
 pick_up(left_hand, outwardgripper, lampshade)</title>
<polygon fill="#8deeee" stroke="black" points="1917.69,-229.19 1917.69,-259.82 1715.38,-281.48 1429.27,-281.48 1226.96,-259.82 1226.96,-229.19 1429.27,-207.53 1715.38,-207.53 1917.69,-229.19"/>
<text text-anchor="middle" x="1572.32" y="-250.1" font-family="Times,serif" font-size="18.00">selector:</text>
<text text-anchor="middle" x="1572.32" y="-230.1" font-family="Times,serif" font-size="18.00"> pick_up(left_hand, outwardgripper, lampshade)</text>
</g>
<!-- sequence:
 place(left_hand, outwardgripper, lampshade, lampbulb)&#45;&gt;selector:
 pick_up(left_hand, outwardgripper, lampshade) -->
<g id="edge9" class="edge">
<title>sequence:
 place(left_hand, outwardgripper, lampshade, lampbulb)&#45;&gt;selector:
 pick_up(left_hand, outwardgripper, lampshade)</title>
<path fill="none" stroke="black" d="M1572.32,-326.95C1572.32,-316.5 1572.32,-303.79 1572.32,-291.54"/>
<polygon fill="black" stroke="black" points="1575.82,-291.42 1572.32,-281.42 1568.82,-291.42 1575.82,-291.42"/>
</g>
<!-- action:
 place(left_hand, outwardgripper, lampshade, lampbulb) -->
<g id="node16" class="node">
<title>action:
 place(left_hand, outwardgripper, lampshade, lampbulb)</title>
<ellipse fill="lightgreen" stroke="black" cx="2307.32" cy="-244.5" rx="371.88" ry="33.88"/>
<text text-anchor="middle" x="2307.32" y="-250.1" font-family="Times,serif" font-size="18.00">action:</text>
<text text-anchor="middle" x="2307.32" y="-230.1" font-family="Times,serif" font-size="18.00"> place(left_hand, outwardgripper, lampshade, lampbulb)</text>
</g>
<!-- sequence:
 place(left_hand, outwardgripper, lampshade, lampbulb)&#45;&gt;action:
 place(left_hand, outwardgripper, lampshade, lampbulb) -->
<g id="edge15" class="edge">
<title>sequence:
 place(left_hand, outwardgripper, lampshade, lampbulb)&#45;&gt;action:
 place(left_hand, outwardgripper, lampshade, lampbulb)</title>
<path fill="none" stroke="black" d="M1734.08,-327.14C1842.19,-311.75 1985.36,-291.36 2101.57,-274.81"/>
<polygon fill="black" stroke="black" points="2102.26,-278.24 2111.66,-273.37 2101.27,-271.31 2102.26,-278.24"/>
</g>
<!-- target:
 hold(left_hand, outwardgripper) -->
<g id="node5" class="node">
<title>target:
 hold(left_hand, outwardgripper)</title>
<ellipse fill="#ffec8b" stroke="black" cx="221.32" cy="-137.82" rx="221.15" ry="33.88"/>
<text text-anchor="middle" x="221.32" y="-143.42" font-family="Times,serif" font-size="18.00">target:</text>
<text text-anchor="middle" x="221.32" y="-123.42" font-family="Times,serif" font-size="18.00"> hold(left_hand, outwardgripper)</text>
</g>
<!-- selector:
 change_tool(left_hand, inwardgripper, outwardgripper)&#45;&gt;target:
 hold(left_hand, outwardgripper) -->
<g id="edge4" class="edge">
<title>selector:
 change_tool(left_hand, inwardgripper, outwardgripper)&#45;&gt;target:
 hold(left_hand, outwardgripper)</title>
<path fill="none" stroke="black" d="M551.35,-207.92C488.73,-194.81 418.62,-180.13 359.18,-167.69"/>
<polygon fill="black" stroke="black" points="359.86,-164.25 349.36,-165.63 358.43,-171.1 359.86,-164.25"/>
</g>
<!-- sequence:
 change_tool(left_hand, inwardgripper, outwardgripper) -->
<g id="node6" class="node">
<title>sequence:
 change_tool(left_hand, inwardgripper, outwardgripper)</title>
<polygon fill="#ff7f24" stroke="black" points="981.82,-161.82 460.82,-161.82 460.82,-113.82 981.82,-113.82 981.82,-161.82"/>
<text text-anchor="middle" x="721.32" y="-143.42" font-family="Times,serif" font-size="18.00">sequence:</text>
<text text-anchor="middle" x="721.32" y="-123.42" font-family="Times,serif" font-size="18.00"> change_tool(left_hand, inwardgripper, outwardgripper)</text>
</g>
<!-- selector:
 change_tool(left_hand, inwardgripper, outwardgripper)&#45;&gt;sequence:
 change_tool(left_hand, inwardgripper, outwardgripper) -->
<g id="edge5" class="edge">
<title>selector:
 change_tool(left_hand, inwardgripper, outwardgripper)&#45;&gt;sequence:
 change_tool(left_hand, inwardgripper, outwardgripper)</title>
<path fill="none" stroke="black" d="M721.32,-207.48C721.32,-196.09 721.32,-183.57 721.32,-172.36"/>
<polygon fill="black" stroke="black" points="724.82,-172.11 721.32,-162.11 717.82,-172.11 724.82,-172.11"/>
</g>
<!-- precondition:
 hold(left_hand, inwardgripper) -->
<g id="node7" class="node">
<title>precondition:
 hold(left_hand, inwardgripper)</title>
<ellipse fill="#ffec8b" stroke="black" cx="272.32" cy="-33.94" rx="212.68" ry="33.88"/>
<text text-anchor="middle" x="272.32" y="-39.54" font-family="Times,serif" font-size="18.00">precondition:</text>
<text text-anchor="middle" x="272.32" y="-19.54" font-family="Times,serif" font-size="18.00"> hold(left_hand, inwardgripper)</text>
</g>
<!-- sequence:
 change_tool(left_hand, inwardgripper, outwardgripper)&#45;&gt;precondition:
 hold(left_hand, inwardgripper) -->
<g id="edge6" class="edge">
<title>sequence:
 change_tool(left_hand, inwardgripper, outwardgripper)&#45;&gt;precondition:
 hold(left_hand, inwardgripper)</title>
<path fill="none" stroke="black" d="M619.72,-113.77C555.24,-99.14 471.22,-80.07 401.95,-64.36"/>
<polygon fill="black" stroke="black" points="402.37,-60.86 391.85,-62.06 400.82,-67.69 402.37,-60.86"/>
</g>
<!-- precondition:
 is_empty(inwardgripper) -->
<g id="node8" class="node">
<title>precondition:
 is_empty(inwardgripper)</title>
<ellipse fill="#ffec8b" stroke="black" cx="677.32" cy="-33.94" rx="174.81" ry="33.88"/>
<text text-anchor="middle" x="677.32" y="-39.54" font-family="Times,serif" font-size="18.00">precondition:</text>
<text text-anchor="middle" x="677.32" y="-19.54" font-family="Times,serif" font-size="18.00"> is_empty(inwardgripper)</text>
</g>
<!-- sequence:
 change_tool(left_hand, inwardgripper, outwardgripper)&#45;&gt;precondition:
 is_empty(inwardgripper) -->
<g id="edge7" class="edge">
<title>sequence:
 change_tool(left_hand, inwardgripper, outwardgripper)&#45;&gt;precondition:
 is_empty(inwardgripper)</title>
<path fill="none" stroke="black" d="M711.34,-113.7C706.69,-102.94 701.01,-89.79 695.64,-77.35"/>
<polygon fill="black" stroke="black" points="698.79,-75.81 691.61,-68.01 692.36,-78.58 698.79,-75.81"/>
</g>
<!-- action:
 change_tool(left_hand, inwardgripper, outwardgripper) -->
<g id="node9" class="node">
<title>action:
 change_tool(left_hand, inwardgripper, outwardgripper)</title>
<ellipse fill="lightgreen" stroke="black" cx="1238.32" cy="-33.94" rx="368.31" ry="33.88"/>
<text text-anchor="middle" x="1238.32" y="-39.54" font-family="Times,serif" font-size="18.00">action:</text>
<text text-anchor="middle" x="1238.32" y="-19.54" font-family="Times,serif" font-size="18.00"> change_tool(left_hand, inwardgripper, outwardgripper)</text>
</g>
<!-- sequence:
 change_tool(left_hand, inwardgripper, outwardgripper)&#45;&gt;action:
 change_tool(left_hand, inwardgripper, outwardgripper) -->
<g id="edge8" class="edge">
<title>sequence:
 change_tool(left_hand, inwardgripper, outwardgripper)&#45;&gt;action:
 change_tool(left_hand, inwardgripper, outwardgripper)</title>
<path fill="none" stroke="black" d="M838.32,-113.77C908.73,-99.89 999.39,-82.03 1076.6,-66.81"/>
<polygon fill="black" stroke="black" points="1077.29,-70.24 1086.42,-64.88 1075.94,-63.37 1077.29,-70.24"/>
</g>
<!-- target:
 hold(outwardgripper, lampshade) -->
<g id="node11" class="node">
<title>target:
 hold(outwardgripper, lampshade)</title>
<ellipse fill="#ffec8b" stroke="black" cx="1572.32" cy="-137.82" rx="229.21" ry="33.88"/>
<text text-anchor="middle" x="1572.32" y="-143.42" font-family="Times,serif" font-size="18.00">target:</text>
<text text-anchor="middle" x="1572.32" y="-123.42" font-family="Times,serif" font-size="18.00"> hold(outwardgripper, lampshade)</text>
</g>
<!-- selector:
 pick_up(left_hand, outwardgripper, lampshade)&#45;&gt;target:
 hold(outwardgripper, lampshade) -->
<g id="edge10" class="edge">
<title>selector:
 pick_up(left_hand, outwardgripper, lampshade)&#45;&gt;target:
 hold(outwardgripper, lampshade)</title>
<path fill="none" stroke="black" d="M1572.32,-207.48C1572.32,-199.32 1572.32,-190.58 1572.32,-182.15"/>
<polygon fill="black" stroke="black" points="1575.82,-182.1 1572.32,-172.1 1568.82,-182.1 1575.82,-182.1"/>
</g>
<!-- sequence:
 pick_up(left_hand, outwardgripper, lampshade) -->
<g id="node12" class="node">
<title>sequence:
 pick_up(left_hand, outwardgripper, lampshade)</title>
<polygon fill="#ff7f24" stroke="black" points="2448.82,-161.82 1997.82,-161.82 1997.82,-113.82 2448.82,-113.82 2448.82,-161.82"/>
<text text-anchor="middle" x="2223.32" y="-143.42" font-family="Times,serif" font-size="18.00">sequence:</text>
<text text-anchor="middle" x="2223.32" y="-123.42" font-family="Times,serif" font-size="18.00"> pick_up(left_hand, outwardgripper, lampshade)</text>
</g>
<!-- selector:
 pick_up(left_hand, outwardgripper, lampshade)&#45;&gt;sequence:
 pick_up(left_hand, outwardgripper, lampshade) -->
<g id="edge11" class="edge">
<title>selector:
 pick_up(left_hand, outwardgripper, lampshade)&#45;&gt;sequence:
 pick_up(left_hand, outwardgripper, lampshade)</title>
<path fill="none" stroke="black" d="M1764.12,-212.66C1861.74,-196.97 1978.77,-178.15 2070.26,-163.44"/>
<polygon fill="black" stroke="black" points="2070.83,-166.89 2080.15,-161.85 2069.72,-159.98 2070.83,-166.89"/>
</g>
<!-- precondition:
 hold(left_hand, outwardgripper) -->
<g id="node13" class="node">
<title>precondition:
 hold(left_hand, outwardgripper)</title>
<ellipse fill="#ffec8b" stroke="black" cx="1846.32" cy="-33.94" rx="221.15" ry="33.88"/>
<text text-anchor="middle" x="1846.32" y="-39.54" font-family="Times,serif" font-size="18.00">precondition:</text>
<text text-anchor="middle" x="1846.32" y="-19.54" font-family="Times,serif" font-size="18.00"> hold(left_hand, outwardgripper)</text>
</g>
<!-- sequence:
 pick_up(left_hand, outwardgripper, lampshade)&#45;&gt;precondition:
 hold(left_hand, outwardgripper) -->
<g id="edge12" class="edge">
<title>sequence:
 pick_up(left_hand, outwardgripper, lampshade)&#45;&gt;precondition:
 hold(left_hand, outwardgripper)</title>
<path fill="none" stroke="black" d="M2137.78,-113.7C2085.92,-99.69 2019.07,-81.63 1962.48,-66.33"/>
<polygon fill="black" stroke="black" points="1963.33,-62.94 1952.77,-63.71 1961.51,-69.69 1963.33,-62.94"/>
</g>
<!-- precondition:
 is_empty(outwardgripper) -->
<g id="node14" class="node">
<title>precondition:
 is_empty(outwardgripper)</title>
<ellipse fill="#ffec8b" stroke="black" cx="2268.32" cy="-33.94" rx="183.28" ry="33.88"/>
<text text-anchor="middle" x="2268.32" y="-39.54" font-family="Times,serif" font-size="18.00">precondition:</text>
<text text-anchor="middle" x="2268.32" y="-19.54" font-family="Times,serif" font-size="18.00"> is_empty(outwardgripper)</text>
</g>
<!-- sequence:
 pick_up(left_hand, outwardgripper, lampshade)&#45;&gt;precondition:
 is_empty(outwardgripper) -->
<g id="edge13" class="edge">
<title>sequence:
 pick_up(left_hand, outwardgripper, lampshade)&#45;&gt;precondition:
 is_empty(outwardgripper)</title>
<path fill="none" stroke="black" d="M2233.54,-113.7C2238.29,-102.94 2244.1,-89.79 2249.6,-77.35"/>
<polygon fill="black" stroke="black" points="2252.88,-78.57 2253.72,-68.01 2246.48,-75.75 2252.88,-78.57"/>
</g>
<!-- action:
 pick_up(left_hand, outwardgripper, lampshade) -->
<g id="node15" class="node">
<title>action:
 pick_up(left_hand, outwardgripper, lampshade)</title>
<ellipse fill="lightgreen" stroke="black" cx="2788.32" cy="-33.94" rx="318.81" ry="33.88"/>
<text text-anchor="middle" x="2788.32" y="-39.54" font-family="Times,serif" font-size="18.00">action:</text>
<text text-anchor="middle" x="2788.32" y="-19.54" font-family="Times,serif" font-size="18.00"> pick_up(left_hand, outwardgripper, lampshade)</text>
</g>
<!-- sequence:
 pick_up(left_hand, outwardgripper, lampshade)&#45;&gt;action:
 pick_up(left_hand, outwardgripper, lampshade) -->
<g id="edge14" class="edge">
<title>sequence:
 pick_up(left_hand, outwardgripper, lampshade)&#45;&gt;action:
 pick_up(left_hand, outwardgripper, lampshade)</title>
<path fill="none" stroke="black" d="M2351.18,-113.77C2430.79,-99.41 2534.1,-80.78 2620.29,-65.24"/>
<polygon fill="black" stroke="black" points="2620.96,-68.68 2630.18,-63.46 2619.71,-61.79 2620.96,-68.68"/>
</g>
</g>
</svg>
