<?xml version="1.0" encoding="UTF-8" standalone="no"?>
<!DOCTYPE svg PUBLIC "-//W3C//DTD SVG 1.1//EN"
 "http://www.w3.org/Graphics/SVG/1.1/DTD/svg11.dtd">
<!-- Generated by graphviz version 2.43.0 (0)
 -->
<!-- Title: pastafarianism Pages: 1 -->
<svg width="2116pt" height="503pt"
 viewBox="0.00 0.00 2116.26 502.60" xmlns="http://www.w3.org/2000/svg" xmlns:xlink="http://www.w3.org/1999/xlink">
<g id="graph0" class="graph" transform="scale(1 1) rotate(0) translate(4 498.6)">
<title>pastafarianism</title>
<polygon fill="white" stroke="transparent" points="-4,4 -4,-498.6 2112.26,-498.6 2112.26,4 -4,4"/>
<!-- selector:
 place(left_hand, outwardgripper, lampshade, lampbulb) -->
<g id="node1" class="node">
<title>selector:
 place(left_hand, outwardgripper, lampshade, lampbulb)</title>
<polygon fill="#8deeee" stroke="black" points="1258.99,-442.54 1258.99,-473.18 1023.11,-494.84 689.53,-494.84 453.66,-473.18 453.66,-442.54 689.53,-420.88 1023.11,-420.88 1258.99,-442.54"/>
<text text-anchor="middle" x="856.32" y="-463.46" font-family="Times,serif" font-size="18.00">selector:</text>
<text text-anchor="middle" x="856.32" y="-443.46" font-family="Times,serif" font-size="18.00"> place(left_hand, outwardgripper, lampshade, lampbulb)</text>
</g>
<!-- target:
 is_placed_to(lampshade, lampbulb) -->
<g id="node2" class="node">
<title>target:
 is_placed_to(lampshade, lampbulb)</title>
<ellipse fill="#ffec8b" stroke="black" cx="595.32" cy="-351.18" rx="241.25" ry="33.88"/>
<text text-anchor="middle" x="595.32" y="-356.78" font-family="Times,serif" font-size="18.00">target:</text>
<text text-anchor="middle" x="595.32" y="-336.78" font-family="Times,serif" font-size="18.00"> is_placed_to(lampshade, lampbulb)</text>
</g>
<!-- selector:
 place(left_hand, outwardgripper, lampshade, lampbulb)&#45;&gt;target:
 is_placed_to(lampshade, lampbulb) -->
<g id="edge1" class="edge">
<title>selector:
 place(left_hand, outwardgripper, lampshade, lampbulb)&#45;&gt;target:
 is_placed_to(lampshade, lampbulb)</title>
<path fill="none" stroke="black" d="M766.87,-420.98C739.68,-410.08 709.84,-398.11 682.78,-387.26"/>
<polygon fill="black" stroke="black" points="683.91,-383.94 673.33,-383.47 681.31,-390.44 683.91,-383.94"/>
</g>
<!-- sequence:
 place(left_hand, outwardgripper, lampshade, lampbulb) -->
<g id="node3" class="node">
<title>sequence:
 place(left_hand, outwardgripper, lampshade, lampbulb)</title>
<polygon fill="#ff7f24" stroke="black" points="1380.32,-375.18 854.32,-375.18 854.32,-327.18 1380.32,-327.18 1380.32,-375.18"/>
<text text-anchor="middle" x="1117.32" y="-356.78" font-family="Times,serif" font-size="18.00">sequence:</text>
<text text-anchor="middle" x="1117.32" y="-336.78" font-family="Times,serif" font-size="18.00"> place(left_hand, outwardgripper, lampshade, lampbulb)</text>
</g>
<!-- selector:
 place(left_hand, outwardgripper, lampshade, lampbulb)&#45;&gt;sequence:
 place(left_hand, outwardgripper, lampshade, lampbulb) -->
<g id="edge2" class="edge">
<title>selector:
 place(left_hand, outwardgripper, lampshade, lampbulb)&#45;&gt;sequence:
 place(left_hand, outwardgripper, lampshade, lampbulb)</title>
<path fill="none" stroke="black" d="M945.78,-420.98C980.02,-407.25 1018.45,-391.84 1050.24,-379.09"/>
<polygon fill="black" stroke="black" points="1051.91,-382.19 1059.89,-375.22 1049.3,-375.69 1051.91,-382.19"/>
</g>
<!-- selector:
 change_tool(left_hand, inwardgripper, outwardgripper) -->
<g id="node4" class="node">
<title>selector:
 change_tool(left_hand, inwardgripper, outwardgripper)</title>
<polygon fill="#8deeee" stroke="black" points="869.84,-229.19 869.84,-259.82 636.39,-281.48 306.26,-281.48 72.81,-259.82 72.81,-229.19 306.26,-207.53 636.39,-207.53 869.84,-229.19"/>
<text text-anchor="middle" x="471.32" y="-250.1" font-family="Times,serif" font-size="18.00">selector:</text>
<text text-anchor="middle" x="471.32" y="-230.1" font-family="Times,serif" font-size="18.00"> change_tool(left_hand, inwardgripper, outwardgripper)</text>
</g>
<!-- sequence:
 place(left_hand, outwardgripper, lampshade, lampbulb)&#45;&gt;selector:
 change_tool(left_hand, inwardgripper, outwardgripper) -->
<g id="edge3" class="edge">
<title>sequence:
 place(left_hand, outwardgripper, lampshade, lampbulb)&#45;&gt;selector:
 change_tool(left_hand, inwardgripper, outwardgripper)</title>
<path fill="none" stroke="black" d="M975.16,-327.14C889.5,-313.26 778.8,-295.33 682.99,-279.8"/>
<polygon fill="black" stroke="black" points="683.31,-276.31 672.88,-278.16 682.19,-283.22 683.31,-276.31"/>
</g>
<!-- precondition:
 hold(outwardgripper, lampshade) -->
<g id="node10" class="node">
<title>precondition:
 hold(outwardgripper, lampshade)</title>
<ellipse fill="#ffec8b" stroke="black" cx="1117.32" cy="-244.5" rx="229.21" ry="33.88"/>
<text text-anchor="middle" x="1117.32" y="-250.1" font-family="Times,serif" font-size="18.00">precondition:</text>
<text text-anchor="middle" x="1117.32" y="-230.1" font-family="Times,serif" font-size="18.00"> hold(outwardgripper, lampshade)</text>
</g>
<!-- sequence:
 place(left_hand, outwardgripper, lampshade, lampbulb)&#45;&gt;precondition:
 hold(outwardgripper, lampshade) -->
<g id="edge9" class="edge">
<title>sequence:
 place(left_hand, outwardgripper, lampshade, lampbulb)&#45;&gt;precondition:
 hold(outwardgripper, lampshade)</title>
<path fill="none" stroke="black" d="M1117.32,-326.95C1117.32,-315.73 1117.32,-301.9 1117.32,-288.84"/>
<polygon fill="black" stroke="black" points="1120.82,-288.6 1117.32,-278.6 1113.82,-288.6 1120.82,-288.6"/>
</g>
<!-- action:
 place(left_hand, outwardgripper, lampshade, lampbulb) -->
<g id="node11" class="node">
<title>action:
 place(left_hand, outwardgripper, lampshade, lampbulb)</title>
<ellipse fill="lightgreen" stroke="black" cx="1736.32" cy="-244.5" rx="371.88" ry="33.88"/>
<text text-anchor="middle" x="1736.32" y="-250.1" font-family="Times,serif" font-size="18.00">action:</text>
<text text-anchor="middle" x="1736.32" y="-230.1" font-family="Times,serif" font-size="18.00"> place(left_hand, outwardgripper, lampshade, lampbulb)</text>
</g>
<!-- sequence:
 place(left_hand, outwardgripper, lampshade, lampbulb)&#45;&gt;action:
 place(left_hand, outwardgripper, lampshade, lampbulb) -->
<g id="edge10" class="edge">
<title>sequence:
 place(left_hand, outwardgripper, lampshade, lampbulb)&#45;&gt;action:
 place(left_hand, outwardgripper, lampshade, lampbulb)</title>
<path fill="none" stroke="black" d="M1253.55,-327.14C1341.82,-312.22 1457.83,-292.6 1554.01,-276.33"/>
<polygon fill="black" stroke="black" points="1554.86,-279.74 1564.14,-274.62 1553.7,-272.84 1554.86,-279.74"/>
</g>
<!-- target:
 hold(left_hand, outwardgripper) -->
<g id="node5" class="node">
<title>target:
 hold(left_hand, outwardgripper)</title>
<ellipse fill="#ffec8b" stroke="black" cx="221.32" cy="-137.82" rx="221.15" ry="33.88"/>
<text text-anchor="middle" x="221.32" y="-143.42" font-family="Times,serif" font-size="18.00">target:</text>
<text text-anchor="middle" x="221.32" y="-123.42" font-family="Times,serif" font-size="18.00"> hold(left_hand, outwardgripper)</text>
</g>
<!-- selector:
 change_tool(left_hand, inwardgripper, outwardgripper)&#45;&gt;target:
 hold(left_hand, outwardgripper) -->
<g id="edge4" class="edge">
<title>selector:
 change_tool(left_hand, inwardgripper, outwardgripper)&#45;&gt;target:
 hold(left_hand, outwardgripper)</title>
<path fill="none" stroke="black" d="M385.64,-207.62C359.58,-196.71 330.98,-184.74 305.05,-173.88"/>
<polygon fill="black" stroke="black" points="306.21,-170.57 295.63,-169.94 303.5,-177.03 306.21,-170.57"/>
</g>
<!-- sequence:
 change_tool(left_hand, inwardgripper, outwardgripper) -->
<g id="node6" class="node">
<title>sequence:
 change_tool(left_hand, inwardgripper, outwardgripper)</title>
<polygon fill="#ff7f24" stroke="black" points="981.82,-161.82 460.82,-161.82 460.82,-113.82 981.82,-113.82 981.82,-161.82"/>
<text text-anchor="middle" x="721.32" y="-143.42" font-family="Times,serif" font-size="18.00">sequence:</text>
<text text-anchor="middle" x="721.32" y="-123.42" font-family="Times,serif" font-size="18.00"> change_tool(left_hand, inwardgripper, outwardgripper)</text>
</g>
<!-- selector:
 change_tool(left_hand, inwardgripper, outwardgripper)&#45;&gt;sequence:
 change_tool(left_hand, inwardgripper, outwardgripper) -->
<g id="edge5" class="edge">
<title>selector:
 change_tool(left_hand, inwardgripper, outwardgripper)&#45;&gt;sequence:
 change_tool(left_hand, inwardgripper, outwardgripper)</title>
<path fill="none" stroke="black" d="M557.01,-207.62C589.8,-193.89 626.61,-178.48 657.07,-165.73"/>
<polygon fill="black" stroke="black" points="658.43,-168.95 666.31,-161.86 655.73,-162.49 658.43,-168.95"/>
</g>
<!-- precondition:
 hold(left_hand, inwardgripper) -->
<g id="node7" class="node">
<title>precondition:
 hold(left_hand, inwardgripper)</title>
<ellipse fill="#ffec8b" stroke="black" cx="316.32" cy="-33.94" rx="212.68" ry="33.88"/>
<text text-anchor="middle" x="316.32" y="-39.54" font-family="Times,serif" font-size="18.00">precondition:</text>
<text text-anchor="middle" x="316.32" y="-19.54" font-family="Times,serif" font-size="18.00"> hold(left_hand, inwardgripper)</text>
</g>
<!-- sequence:
 change_tool(left_hand, inwardgripper, outwardgripper)&#45;&gt;precondition:
 hold(left_hand, inwardgripper) -->
<g id="edge6" class="edge">
<title>sequence:
 change_tool(left_hand, inwardgripper, outwardgripper)&#45;&gt;precondition:
 hold(left_hand, inwardgripper)</title>
<path fill="none" stroke="black" d="M629.68,-113.77C572.75,-99.45 498.94,-80.88 437.25,-65.36"/>
<polygon fill="black" stroke="black" points="438.01,-61.94 427.46,-62.9 436.3,-68.73 438.01,-61.94"/>
</g>
<!-- precondition:
 is_empty(inwardgripper) -->
<g id="node8" class="node">
<title>precondition:
 is_empty(inwardgripper)</title>
<ellipse fill="#ffec8b" stroke="black" cx="721.32" cy="-33.94" rx="174.81" ry="33.88"/>
<text text-anchor="middle" x="721.32" y="-39.54" font-family="Times,serif" font-size="18.00">precondition:</text>
<text text-anchor="middle" x="721.32" y="-19.54" font-family="Times,serif" font-size="18.00"> is_empty(inwardgripper)</text>
</g>
<!-- sequence:
 change_tool(left_hand, inwardgripper, outwardgripper)&#45;&gt;precondition:
 is_empty(inwardgripper) -->
<g id="edge7" class="edge">
<title>sequence:
 change_tool(left_hand, inwardgripper, outwardgripper)&#45;&gt;precondition:
 is_empty(inwardgripper)</title>
<path fill="none" stroke="black" d="M721.32,-113.7C721.32,-103.16 721.32,-90.31 721.32,-78.08"/>
<polygon fill="black" stroke="black" points="724.82,-78.01 721.32,-68.01 717.82,-78.01 724.82,-78.01"/>
</g>
<!-- action:
 change_tool(left_hand, inwardgripper, outwardgripper) -->
<g id="node9" class="node">
<title>action:
 change_tool(left_hand, inwardgripper, outwardgripper)</title>
<ellipse fill="lightgreen" stroke="black" cx="1282.32" cy="-33.94" rx="368.31" ry="33.88"/>
<text text-anchor="middle" x="1282.32" y="-39.54" font-family="Times,serif" font-size="18.00">action:</text>
<text text-anchor="middle" x="1282.32" y="-19.54" font-family="Times,serif" font-size="18.00"> change_tool(left_hand, inwardgripper, outwardgripper)</text>
</g>
<!-- sequence:
 change_tool(left_hand, inwardgripper, outwardgripper)&#45;&gt;action:
 change_tool(left_hand, inwardgripper, outwardgripper) -->
<g id="edge8" class="edge">
<title>sequence:
 change_tool(left_hand, inwardgripper, outwardgripper)&#45;&gt;action:
 change_tool(left_hand, inwardgripper, outwardgripper)</title>
<path fill="none" stroke="black" d="M848.27,-113.77C925.61,-99.72 1025.46,-81.59 1109.89,-66.26"/>
<polygon fill="black" stroke="black" points="1110.63,-69.68 1119.85,-64.45 1109.38,-62.79 1110.63,-69.68"/>
</g>
</g>
</svg>
