<?xml version="1.0" encoding="UTF-8" standalone="no"?>
<!DOCTYPE svg PUBLIC "-//W3C//DTD SVG 1.1//EN"
 "http://www.w3.org/Graphics/SVG/1.1/DTD/svg11.dtd">
<!-- Generated by graphviz version 2.43.0 (0)
 -->
<!-- Title: pastafarianism Pages: 1 -->
<svg width="734pt" height="476pt"
 viewBox="0.00 0.00 734.39 476.00" xmlns="http://www.w3.org/2000/svg" xmlns:xlink="http://www.w3.org/1999/xlink">
<g id="graph0" class="graph" transform="scale(1 1) rotate(0) translate(4 472)">
<title>pastafarianism</title>
<polygon fill="white" stroke="transparent" points="-4,4 -4,-472 730.39,-472 730.39,4 -4,4"/>
<!-- Sequence -->
<g id="node1" class="node">
<title>Sequence</title>
<polygon fill="orange" stroke="black" points="507.78,-468 445.78,-468 445.78,-432 507.78,-432 507.78,-468"/>
<text text-anchor="middle" x="476.78" y="-447.8" font-family="Times,serif" font-size="9.00">Sequence</text>
</g>
<!-- Fallback -->
<g id="node2" class="node">
<title>Fallback</title>
<polygon fill="cyan" stroke="black" points="405.77,-370.54 405.77,-385.46 385.28,-396 356.29,-396 335.79,-385.46 335.79,-370.54 356.29,-360 385.28,-360 405.77,-370.54"/>
<text text-anchor="middle" x="370.78" y="-375.8" font-family="Times,serif" font-size="9.00">Fallback</text>
</g>
<!-- Sequence&#45;&gt;Fallback -->
<g id="edge1" class="edge">
<title>Sequence&#45;&gt;Fallback</title>
<path fill="none" stroke="black" d="M450.85,-431.88C435.54,-421.77 416.12,-408.94 400.23,-398.45"/>
<polygon fill="black" stroke="black" points="402.1,-395.49 391.82,-392.9 398.24,-401.33 402.1,-395.49"/>
</g>
<!-- in_gripper none -->
<g id="node13" class="node">
<title>in_gripper none</title>
<ellipse fill="lightgray" stroke="black" cx="476.78" cy="-378" rx="52.58" ry="18"/>
<text text-anchor="middle" x="476.78" y="-375.8" font-family="Times,serif" font-size="9.00">in_gripper none</text>
</g>
<!-- Sequence&#45;&gt;in_gripper none -->
<g id="edge12" class="edge">
<title>Sequence&#45;&gt;in_gripper none</title>
<path fill="none" stroke="black" d="M476.78,-431.7C476.78,-423.98 476.78,-414.71 476.78,-406.11"/>
<polygon fill="black" stroke="black" points="480.28,-406.1 476.78,-396.1 473.28,-406.1 480.28,-406.1"/>
</g>
<!-- Fallback &#160;&#160; -->
<g id="node14" class="node">
<title>Fallback &#160;&#160;</title>
<polygon fill="cyan" stroke="black" points="617.77,-370.54 617.77,-385.46 597.28,-396 568.29,-396 547.79,-385.46 547.79,-370.54 568.29,-360 597.28,-360 617.77,-370.54"/>
<text text-anchor="middle" x="582.78" y="-375.8" font-family="Times,serif" font-size="9.00">Fallback</text>
</g>
<!-- Sequence&#45;&gt;Fallback &#160;&#160; -->
<g id="edge13" class="edge">
<title>Sequence&#45;&gt;Fallback &#160;&#160;</title>
<path fill="none" stroke="black" d="M502.71,-431.88C518.02,-421.77 537.45,-408.94 553.33,-398.45"/>
<polygon fill="black" stroke="black" points="555.33,-401.33 561.74,-392.9 551.47,-395.49 555.33,-401.33"/>
</g>
<!-- object_roughly_at BlueBox 0.0 &#45;0.001 0.338 0.012 YellowBox -->
<g id="node3" class="node">
<title>object_roughly_at BlueBox 0.0 &#45;0.001 0.338 0.012 YellowBox</title>
<ellipse fill="lightgray" stroke="black" cx="173.78" cy="-306" rx="173.57" ry="18"/>
<text text-anchor="middle" x="173.78" y="-303.8" font-family="Times,serif" font-size="9.00">object_roughly_at BlueBox 0.0 &#45;0.001 0.338 0.012 YellowBox</text>
</g>
<!-- Fallback&#45;&gt;object_roughly_at BlueBox 0.0 &#45;0.001 0.338 0.012 YellowBox -->
<g id="edge2" class="edge">
<title>Fallback&#45;&gt;object_roughly_at BlueBox 0.0 &#45;0.001 0.338 0.012 YellowBox</title>
<path fill="none" stroke="black" d="M342.56,-366.97C313.16,-356.53 266.34,-339.89 229.46,-326.78"/>
<polygon fill="black" stroke="black" points="230.43,-323.41 219.83,-323.36 228.08,-330.01 230.43,-323.41"/>
</g>
<!-- Sequence  -->
<g id="node4" class="node">
<title>Sequence </title>
<polygon fill="orange" stroke="black" points="427.78,-324 365.78,-324 365.78,-288 427.78,-288 427.78,-324"/>
<text text-anchor="middle" x="396.78" y="-303.8" font-family="Times,serif" font-size="9.00">Sequence</text>
</g>
<!-- Fallback&#45;&gt;Sequence  -->
<g id="edge3" class="edge">
<title>Fallback&#45;&gt;Sequence </title>
<path fill="none" stroke="black" d="M377.21,-359.7C380.14,-351.81 383.67,-342.3 386.92,-333.55"/>
<polygon fill="black" stroke="black" points="390.23,-334.7 390.43,-324.1 383.67,-332.26 390.23,-334.7"/>
</g>
<!-- Fallback  -->
<g id="node5" class="node">
<title>Fallback </title>
<polygon fill="cyan" stroke="black" points="333.77,-226.54 333.77,-241.46 313.28,-252 284.29,-252 263.79,-241.46 263.79,-226.54 284.29,-216 313.28,-216 333.77,-226.54"/>
<text text-anchor="middle" x="298.78" y="-231.8" font-family="Times,serif" font-size="9.00">Fallback</text>
</g>
<!-- Sequence &#45;&gt;Fallback  -->
<g id="edge4" class="edge">
<title>Sequence &#45;&gt;Fallback </title>
<path fill="none" stroke="black" d="M372.81,-287.88C358.98,-278 341.51,-265.52 327.01,-255.17"/>
<polygon fill="black" stroke="black" points="329.05,-252.32 318.87,-249.35 324.98,-258.01 329.05,-252.32"/>
</g>
<!-- place0 BlueBox 0.0 &#45;0.001 0.338 0.012 YellowBox -->
<g id="node12" class="node">
<title>place0 BlueBox 0.0 &#45;0.001 0.338 0.012 YellowBox</title>
<ellipse fill="lightgray" stroke="black" cx="495.78" cy="-234" rx="143.52" ry="18"/>
<text text-anchor="middle" x="495.78" y="-231.8" font-family="Times,serif" font-size="9.00">place0 BlueBox 0.0 &#45;0.001 0.338 0.012 YellowBox</text>
</g>
<!-- Sequence &#45;&gt;place0 BlueBox 0.0 &#45;0.001 0.338 0.012 YellowBox -->
<g id="edge11" class="edge">
<title>Sequence &#45;&gt;place0 BlueBox 0.0 &#45;0.001 0.338 0.012 YellowBox</title>
<path fill="none" stroke="black" d="M421,-287.88C433.8,-278.83 449.68,-267.6 463.51,-257.82"/>
<polygon fill="black" stroke="black" points="465.67,-260.58 471.81,-251.95 461.63,-254.86 465.67,-260.58"/>
</g>
<!-- in_gripper BlueBox -->
<g id="node6" class="node">
<title>in_gripper BlueBox</title>
<ellipse fill="lightgray" stroke="black" cx="243.78" cy="-162" rx="61.55" ry="18"/>
<text text-anchor="middle" x="243.78" y="-159.8" font-family="Times,serif" font-size="9.00">in_gripper BlueBox</text>
</g>
<!-- Fallback &#45;&gt;in_gripper BlueBox -->
<g id="edge5" class="edge">
<title>Fallback &#45;&gt;in_gripper BlueBox</title>
<path fill="none" stroke="black" d="M285.19,-215.7C278.56,-207.27 270.48,-196.97 263.21,-187.73"/>
<polygon fill="black" stroke="black" points="265.77,-185.32 256.84,-179.62 260.27,-189.65 265.77,-185.32"/>
</g>
<!-- Sequence &#160; -->
<g id="node7" class="node">
<title>Sequence &#160;</title>
<polygon fill="orange" stroke="black" points="385.78,-180 323.78,-180 323.78,-144 385.78,-144 385.78,-180"/>
<text text-anchor="middle" x="354.78" y="-159.8" font-family="Times,serif" font-size="9.00">Sequence</text>
</g>
<!-- Fallback &#45;&gt;Sequence &#160; -->
<g id="edge6" class="edge">
<title>Fallback &#45;&gt;Sequence &#160;</title>
<path fill="none" stroke="black" d="M312.63,-215.7C319.27,-207.39 327.36,-197.28 334.67,-188.14"/>
<polygon fill="black" stroke="black" points="337.59,-190.1 341.1,-180.1 332.12,-185.73 337.59,-190.1"/>
</g>
<!-- Fallback &#160; -->
<g id="node8" class="node">
<title>Fallback &#160;</title>
<polygon fill="cyan" stroke="black" points="338.77,-82.54 338.77,-97.46 318.28,-108 289.29,-108 268.79,-97.46 268.79,-82.54 289.29,-72 318.28,-72 338.77,-82.54"/>
<text text-anchor="middle" x="303.78" y="-87.8" font-family="Times,serif" font-size="9.00">Fallback</text>
</g>
<!-- Sequence &#160;&#45;&gt;Fallback &#160; -->
<g id="edge7" class="edge">
<title>Sequence &#160;&#45;&gt;Fallback &#160;</title>
<path fill="none" stroke="black" d="M342.18,-143.7C336.18,-135.47 328.91,-125.48 322.3,-116.42"/>
<polygon fill="black" stroke="black" points="324.96,-114.13 316.24,-108.1 319.3,-118.25 324.96,-114.13"/>
</g>
<!-- pick0 BlueBox -->
<g id="node11" class="node">
<title>pick0 BlueBox</title>
<ellipse fill="lightgray" stroke="black" cx="404.78" cy="-90" rx="47.84" ry="18"/>
<text text-anchor="middle" x="404.78" y="-87.8" font-family="Times,serif" font-size="9.00">pick0 BlueBox</text>
</g>
<!-- Sequence &#160;&#45;&gt;pick0 BlueBox -->
<g id="edge10" class="edge">
<title>Sequence &#160;&#45;&gt;pick0 BlueBox</title>
<path fill="none" stroke="black" d="M367.14,-143.7C373.1,-135.35 380.36,-125.18 386.91,-116.02"/>
<polygon fill="black" stroke="black" points="389.95,-117.79 392.91,-107.62 384.25,-113.73 389.95,-117.79"/>
</g>
<!-- gripper_state open -->
<g id="node9" class="node">
<title>gripper_state open</title>
<ellipse fill="lightgray" stroke="black" cx="241.78" cy="-18" rx="60.09" ry="18"/>
<text text-anchor="middle" x="241.78" y="-15.8" font-family="Times,serif" font-size="9.00">gripper_state open</text>
</g>
<!-- Fallback &#160;&#45;&gt;gripper_state open -->
<g id="edge8" class="edge">
<title>Fallback &#160;&#45;&gt;gripper_state open</title>
<path fill="none" stroke="black" d="M288.77,-72.05C281.16,-63.46 271.77,-52.86 263.39,-43.4"/>
<polygon fill="black" stroke="black" points="265.9,-40.95 256.65,-35.79 260.66,-45.6 265.9,-40.95"/>
</g>
<!-- open_gripper -->
<g id="node10" class="node">
<title>open_gripper</title>
<ellipse fill="lightgray" stroke="black" cx="365.78" cy="-18" rx="45.72" ry="18"/>
<text text-anchor="middle" x="365.78" y="-15.8" font-family="Times,serif" font-size="9.00">open_gripper</text>
</g>
<!-- Fallback &#160;&#45;&gt;open_gripper -->
<g id="edge9" class="edge">
<title>Fallback &#160;&#45;&gt;open_gripper</title>
<path fill="none" stroke="black" d="M318.79,-72.05C326.52,-63.33 336.07,-52.54 344.54,-42.98"/>
<polygon fill="black" stroke="black" points="347.33,-45.11 351.34,-35.31 342.09,-40.47 347.33,-45.11"/>
</g>
<!-- gripper_state open  -->
<g id="node15" class="node">
<title>gripper_state open </title>
<ellipse fill="lightgray" stroke="black" cx="556.78" cy="-306" rx="60.09" ry="18"/>
<text text-anchor="middle" x="556.78" y="-303.8" font-family="Times,serif" font-size="9.00">gripper_state open</text>
</g>
<!-- Fallback &#160;&#160;&#45;&gt;gripper_state open  -->
<g id="edge14" class="edge">
<title>Fallback &#160;&#160;&#45;&gt;gripper_state open </title>
<path fill="none" stroke="black" d="M576.36,-359.7C573.43,-351.81 569.9,-342.3 566.64,-333.55"/>
<polygon fill="black" stroke="black" points="569.9,-332.26 563.14,-324.1 563.34,-334.7 569.9,-332.26"/>
</g>
<!-- open_gripper  -->
<g id="node16" class="node">
<title>open_gripper </title>
<ellipse fill="lightgray" stroke="black" cx="680.78" cy="-306" rx="45.72" ry="18"/>
<text text-anchor="middle" x="680.78" y="-303.8" font-family="Times,serif" font-size="9.00">open_gripper</text>
</g>
<!-- Fallback &#160;&#160;&#45;&gt;open_gripper  -->
<g id="edge15" class="edge">
<title>Fallback &#160;&#160;&#45;&gt;open_gripper </title>
<path fill="none" stroke="black" d="M603.09,-362.5C617,-352.56 635.66,-339.23 651.22,-328.12"/>
<polygon fill="black" stroke="black" points="653.38,-330.87 659.49,-322.21 649.31,-325.18 653.38,-330.87"/>
</g>
</g>
</svg>
