<?xml version="1.0" encoding="UTF-8" standalone="no"?>
<!DOCTYPE svg PUBLIC "-//W3C//DTD SVG 1.1//EN"
 "http://www.w3.org/Graphics/SVG/1.1/DTD/svg11.dtd">
<!-- Generated by graphviz version 2.43.0 (0)
 -->
<!-- Title: pastafarianism Pages: 1 -->
<svg width="1345pt" height="476pt"
 viewBox="0.00 0.00 1344.50 476.00" xmlns="http://www.w3.org/2000/svg" xmlns:xlink="http://www.w3.org/1999/xlink">
<g id="graph0" class="graph" transform="scale(1 1) rotate(0) translate(4 472)">
<title>pastafarianism</title>
<polygon fill="white" stroke="transparent" points="-4,4 -4,-472 1340.5,-472 1340.5,4 -4,4"/>
<!-- Sequence -->
<g id="node1" class="node">
<title>Sequence</title>
<polygon fill="orange" stroke="black" points="697.08,-468 635.08,-468 635.08,-432 697.08,-432 697.08,-468"/>
<text text-anchor="middle" x="666.08" y="-447.8" font-family="Times,serif" font-size="9.00">Sequence</text>
</g>
<!-- Fallback -->
<g id="node2" class="node">
<title>Fallback</title>
<polygon fill="cyan" stroke="black" points="406.07,-370.54 406.07,-385.46 385.57,-396 356.59,-396 336.09,-385.46 336.09,-370.54 356.59,-360 385.57,-360 406.07,-370.54"/>
<text text-anchor="middle" x="371.08" y="-375.8" font-family="Times,serif" font-size="9.00">Fallback</text>
</g>
<!-- Sequence&#45;&gt;Fallback -->
<g id="edge1" class="edge">
<title>Sequence&#45;&gt;Fallback</title>
<path fill="none" stroke="black" d="M635.07,-441.64C582.07,-429.06 473.98,-403.42 413.85,-389.15"/>
<polygon fill="black" stroke="black" points="414.45,-385.69 403.92,-386.79 412.84,-392.51 414.45,-385.69"/>
</g>
<!-- Fallback &#160;&#160; -->
<g id="node13" class="node">
<title>Fallback &#160;&#160;</title>
<polygon fill="cyan" stroke="black" points="701.07,-370.54 701.07,-385.46 680.57,-396 651.59,-396 631.09,-385.46 631.09,-370.54 651.59,-360 680.57,-360 701.07,-370.54"/>
<text text-anchor="middle" x="666.08" y="-375.8" font-family="Times,serif" font-size="9.00">Fallback</text>
</g>
<!-- Sequence&#45;&gt;Fallback &#160;&#160; -->
<g id="edge12" class="edge">
<title>Sequence&#45;&gt;Fallback &#160;&#160;</title>
<path fill="none" stroke="black" d="M666.08,-431.7C666.08,-423.98 666.08,-414.71 666.08,-406.11"/>
<polygon fill="black" stroke="black" points="669.58,-406.1 666.08,-396.1 662.58,-406.1 669.58,-406.1"/>
</g>
<!-- Fallback &#160;&#160;&#160;&#160;&#160; -->
<g id="node24" class="node">
<title>Fallback &#160;&#160;&#160;&#160;&#160;</title>
<polygon fill="cyan" stroke="black" points="1008.07,-370.54 1008.07,-385.46 987.57,-396 958.59,-396 938.09,-385.46 938.09,-370.54 958.59,-360 987.57,-360 1008.07,-370.54"/>
<text text-anchor="middle" x="973.08" y="-375.8" font-family="Times,serif" font-size="9.00">Fallback</text>
</g>
<!-- Sequence&#45;&gt;Fallback &#160;&#160;&#160;&#160;&#160; -->
<g id="edge23" class="edge">
<title>Sequence&#45;&gt;Fallback &#160;&#160;&#160;&#160;&#160;</title>
<path fill="none" stroke="black" d="M697.21,-441.9C752.37,-429.33 867.36,-403.11 930.05,-388.81"/>
<polygon fill="black" stroke="black" points="931.05,-392.17 940.02,-386.54 929.49,-385.35 931.05,-392.17"/>
</g>
<!-- object_at YellowBox [&#45;0.133, 0.0, 0.175] 0.02 KittingBox -->
<g id="node3" class="node">
<title>object_at YellowBox [&#45;0.133, 0.0, 0.175] 0.02 KittingBox</title>
<ellipse fill="lightgray" stroke="black" cx="161.08" cy="-306" rx="161.16" ry="18"/>
<text text-anchor="middle" x="161.08" y="-303.8" font-family="Times,serif" font-size="9.00">object_at YellowBox [&#45;0.133, 0.0, 0.175] 0.02 KittingBox</text>
</g>
<!-- Fallback&#45;&gt;object_at YellowBox [&#45;0.133, 0.0, 0.175] 0.02 KittingBox -->
<g id="edge2" class="edge">
<title>Fallback&#45;&gt;object_at YellowBox [&#45;0.133, 0.0, 0.175] 0.02 KittingBox</title>
<path fill="none" stroke="black" d="M341.88,-367.27C310.33,-356.75 259.24,-339.72 219.4,-326.44"/>
<polygon fill="black" stroke="black" points="220.39,-323.08 209.8,-323.24 218.18,-329.72 220.39,-323.08"/>
</g>
<!-- Sequence  -->
<g id="node4" class="node">
<title>Sequence </title>
<polygon fill="orange" stroke="black" points="402.08,-324 340.08,-324 340.08,-288 402.08,-288 402.08,-324"/>
<text text-anchor="middle" x="371.08" y="-303.8" font-family="Times,serif" font-size="9.00">Sequence</text>
</g>
<!-- Fallback&#45;&gt;Sequence  -->
<g id="edge3" class="edge">
<title>Fallback&#45;&gt;Sequence </title>
<path fill="none" stroke="black" d="M371.08,-359.7C371.08,-351.98 371.08,-342.71 371.08,-334.11"/>
<polygon fill="black" stroke="black" points="374.58,-334.1 371.08,-324.1 367.58,-334.1 374.58,-334.1"/>
</g>
<!-- Fallback  -->
<g id="node5" class="node">
<title>Fallback </title>
<polygon fill="cyan" stroke="black" points="200.07,-226.54 200.07,-241.46 179.57,-252 150.59,-252 130.09,-241.46 130.09,-226.54 150.59,-216 179.57,-216 200.07,-226.54"/>
<text text-anchor="middle" x="165.08" y="-231.8" font-family="Times,serif" font-size="9.00">Fallback</text>
</g>
<!-- Sequence &#45;&gt;Fallback  -->
<g id="edge4" class="edge">
<title>Sequence &#45;&gt;Fallback </title>
<path fill="none" stroke="black" d="M339.77,-291.29C336.85,-290.13 333.92,-289.02 331.08,-288 277.87,-268.91 262.6,-270.2 209.08,-252 206.55,-251.14 203.95,-250.22 201.34,-249.28"/>
<polygon fill="black" stroke="black" points="202.54,-245.99 191.95,-245.78 200.1,-252.55 202.54,-245.99"/>
</g>
<!-- place0 YellowBox [&#45;0.133, 0.0, 0.175] 0.02 KittingBox -->
<g id="node12" class="node">
<title>place0 YellowBox [&#45;0.133, 0.0, 0.175] 0.02 KittingBox</title>
<ellipse fill="lightgray" stroke="black" cx="373.08" cy="-234" rx="154.96" ry="18"/>
<text text-anchor="middle" x="373.08" y="-231.8" font-family="Times,serif" font-size="9.00">place0 YellowBox [&#45;0.133, 0.0, 0.175] 0.02 KittingBox</text>
</g>
<!-- Sequence &#45;&gt;place0 YellowBox [&#45;0.133, 0.0, 0.175] 0.02 KittingBox -->
<g id="edge11" class="edge">
<title>Sequence &#45;&gt;place0 YellowBox [&#45;0.133, 0.0, 0.175] 0.02 KittingBox</title>
<path fill="none" stroke="black" d="M371.58,-287.7C371.8,-279.98 372.06,-270.71 372.31,-262.11"/>
<polygon fill="black" stroke="black" points="375.8,-262.2 372.59,-252.1 368.81,-262 375.8,-262.2"/>
</g>
<!-- in_gripper YellowBox -->
<g id="node6" class="node">
<title>in_gripper YellowBox</title>
<ellipse fill="lightgray" stroke="black" cx="144.08" cy="-162" rx="66.29" ry="18"/>
<text text-anchor="middle" x="144.08" y="-159.8" font-family="Times,serif" font-size="9.00">in_gripper YellowBox</text>
</g>
<!-- Fallback &#45;&gt;in_gripper YellowBox -->
<g id="edge5" class="edge">
<title>Fallback &#45;&gt;in_gripper YellowBox</title>
<path fill="none" stroke="black" d="M159.89,-215.7C157.55,-207.9 154.73,-198.51 152.13,-189.83"/>
<polygon fill="black" stroke="black" points="155.44,-188.68 149.21,-180.1 148.73,-190.69 155.44,-188.68"/>
</g>
<!-- Sequence &#160; -->
<g id="node7" class="node">
<title>Sequence &#160;</title>
<polygon fill="orange" stroke="black" points="290.08,-180 228.08,-180 228.08,-144 290.08,-144 290.08,-180"/>
<text text-anchor="middle" x="259.08" y="-159.8" font-family="Times,serif" font-size="9.00">Sequence</text>
</g>
<!-- Fallback &#45;&gt;Sequence &#160; -->
<g id="edge6" class="edge">
<title>Fallback &#45;&gt;Sequence &#160;</title>
<path fill="none" stroke="black" d="M184.56,-218.5C197.05,-209.19 213.56,-196.9 227.86,-186.25"/>
<polygon fill="black" stroke="black" points="230.05,-188.98 235.98,-180.2 225.87,-183.37 230.05,-188.98"/>
</g>
<!-- Fallback &#160; -->
<g id="node8" class="node">
<title>Fallback &#160;</title>
<polygon fill="cyan" stroke="black" points="280.07,-82.54 280.07,-97.46 259.57,-108 230.59,-108 210.09,-97.46 210.09,-82.54 230.59,-72 259.57,-72 280.07,-82.54"/>
<text text-anchor="middle" x="245.08" y="-87.8" font-family="Times,serif" font-size="9.00">Fallback</text>
</g>
<!-- Sequence &#160;&#45;&gt;Fallback &#160; -->
<g id="edge7" class="edge">
<title>Sequence &#160;&#45;&gt;Fallback &#160;</title>
<path fill="none" stroke="black" d="M255.62,-143.7C254.08,-135.98 252.22,-126.71 250.5,-118.11"/>
<polygon fill="black" stroke="black" points="253.89,-117.22 248.5,-108.1 247.03,-118.6 253.89,-117.22"/>
</g>
<!-- pick0 YellowBox -->
<g id="node11" class="node">
<title>pick0 YellowBox</title>
<ellipse fill="lightgray" stroke="black" cx="351.08" cy="-90" rx="53.23" ry="18"/>
<text text-anchor="middle" x="351.08" y="-87.8" font-family="Times,serif" font-size="9.00">pick0 YellowBox</text>
</g>
<!-- Sequence &#160;&#45;&gt;pick0 YellowBox -->
<g id="edge10" class="edge">
<title>Sequence &#160;&#45;&gt;pick0 YellowBox</title>
<path fill="none" stroke="black" d="M281.82,-143.7C294.04,-134.4 309.24,-122.84 322.28,-112.91"/>
<polygon fill="black" stroke="black" points="324.65,-115.51 330.48,-106.67 320.41,-109.94 324.65,-115.51"/>
</g>
<!-- gripper_state open -->
<g id="node9" class="node">
<title>gripper_state open</title>
<ellipse fill="lightgray" stroke="black" cx="163.08" cy="-18" rx="60.09" ry="18"/>
<text text-anchor="middle" x="163.08" y="-15.8" font-family="Times,serif" font-size="9.00">gripper_state open</text>
</g>
<!-- Fallback &#160;&#45;&gt;gripper_state open -->
<g id="edge8" class="edge">
<title>Fallback &#160;&#45;&gt;gripper_state open</title>
<path fill="none" stroke="black" d="M226.88,-73.46C215.97,-64.15 201.89,-52.13 189.74,-41.76"/>
<polygon fill="black" stroke="black" points="191.96,-39.05 182.08,-35.22 187.42,-44.38 191.96,-39.05"/>
</g>
<!-- open_gripper -->
<g id="node10" class="node">
<title>open_gripper</title>
<ellipse fill="lightgray" stroke="black" cx="287.08" cy="-18" rx="45.72" ry="18"/>
<text text-anchor="middle" x="287.08" y="-15.8" font-family="Times,serif" font-size="9.00">open_gripper</text>
</g>
<!-- Fallback &#160;&#45;&gt;open_gripper -->
<g id="edge9" class="edge">
<title>Fallback &#160;&#45;&gt;open_gripper</title>
<path fill="none" stroke="black" d="M255.46,-71.7C260.42,-63.44 266.44,-53.39 271.9,-44.3"/>
<polygon fill="black" stroke="black" points="274.96,-46 277.11,-35.62 268.96,-42.4 274.96,-46"/>
</g>
<!-- object_at BlueBox [0.0, 0.0, 0.175] 0.02 KittingBox -->
<g id="node14" class="node">
<title>object_at BlueBox [0.0, 0.0, 0.175] 0.02 KittingBox</title>
<ellipse fill="lightgray" stroke="black" cx="568.08" cy="-306" rx="147.6" ry="18"/>
<text text-anchor="middle" x="568.08" y="-303.8" font-family="Times,serif" font-size="9.00">object_at BlueBox [0.0, 0.0, 0.175] 0.02 KittingBox</text>
</g>
<!-- Fallback &#160;&#160;&#45;&gt;object_at BlueBox [0.0, 0.0, 0.175] 0.02 KittingBox -->
<g id="edge13" class="edge">
<title>Fallback &#160;&#160;&#45;&gt;object_at BlueBox [0.0, 0.0, 0.175] 0.02 KittingBox</title>
<path fill="none" stroke="black" d="M645.78,-362.5C632.65,-353.12 615.29,-340.72 600.31,-330.02"/>
<polygon fill="black" stroke="black" points="601.98,-326.91 591.81,-323.95 597.91,-332.61 601.98,-326.91"/>
</g>
<!-- Sequence &#160;&#160; -->
<g id="node15" class="node">
<title>Sequence &#160;&#160;</title>
<polygon fill="orange" stroke="black" points="796.08,-324 734.08,-324 734.08,-288 796.08,-288 796.08,-324"/>
<text text-anchor="middle" x="765.08" y="-303.8" font-family="Times,serif" font-size="9.00">Sequence</text>
</g>
<!-- Fallback &#160;&#160;&#45;&gt;Sequence &#160;&#160; -->
<g id="edge14" class="edge">
<title>Fallback &#160;&#160;&#45;&gt;Sequence &#160;&#160;</title>
<path fill="none" stroke="black" d="M686.11,-362.83C699.46,-353.4 717.31,-340.78 732.65,-329.93"/>
<polygon fill="black" stroke="black" points="734.73,-332.74 740.88,-324.11 730.69,-327.03 734.73,-332.74"/>
</g>
<!-- Fallback &#160;&#160;&#160; -->
<g id="node16" class="node">
<title>Fallback &#160;&#160;&#160;</title>
<polygon fill="cyan" stroke="black" points="622.07,-226.54 622.07,-241.46 601.57,-252 572.59,-252 552.09,-241.46 552.09,-226.54 572.59,-216 601.57,-216 622.07,-226.54"/>
<text text-anchor="middle" x="587.08" y="-231.8" font-family="Times,serif" font-size="9.00">Fallback</text>
</g>
<!-- Sequence &#160;&#160;&#45;&gt;Fallback &#160;&#160;&#160; -->
<g id="edge15" class="edge">
<title>Sequence &#160;&#160;&#45;&gt;Fallback &#160;&#160;&#160;</title>
<path fill="none" stroke="black" d="M733.68,-291.53C730.78,-290.32 727.88,-289.13 725.08,-288 683.6,-271.25 672.83,-268.06 631.08,-252 628.74,-251.1 626.33,-250.17 623.9,-249.23"/>
<polygon fill="black" stroke="black" points="625.13,-245.96 614.54,-245.62 622.61,-252.49 625.13,-245.96"/>
</g>
<!-- place0 BlueBox [0.0, 0.0, 0.175] 0.02 KittingBox -->
<g id="node23" class="node">
<title>place0 BlueBox [0.0, 0.0, 0.175] 0.02 KittingBox</title>
<ellipse fill="lightgray" stroke="black" cx="781.08" cy="-234" rx="141.4" ry="18"/>
<text text-anchor="middle" x="781.08" y="-231.8" font-family="Times,serif" font-size="9.00">place0 BlueBox [0.0, 0.0, 0.175] 0.02 KittingBox</text>
</g>
<!-- Sequence &#160;&#160;&#45;&gt;place0 BlueBox [0.0, 0.0, 0.175] 0.02 KittingBox -->
<g id="edge22" class="edge">
<title>Sequence &#160;&#160;&#45;&gt;place0 BlueBox [0.0, 0.0, 0.175] 0.02 KittingBox</title>
<path fill="none" stroke="black" d="M769.04,-287.7C770.8,-279.98 772.92,-270.71 774.88,-262.11"/>
<polygon fill="black" stroke="black" points="778.35,-262.63 777.17,-252.1 771.53,-261.07 778.35,-262.63"/>
</g>
<!-- in_gripper BlueBox -->
<g id="node17" class="node">
<title>in_gripper BlueBox</title>
<ellipse fill="lightgray" stroke="black" cx="483.08" cy="-162" rx="61.55" ry="18"/>
<text text-anchor="middle" x="483.08" y="-159.8" font-family="Times,serif" font-size="9.00">in_gripper BlueBox</text>
</g>
<!-- Fallback &#160;&#160;&#160;&#45;&gt;in_gripper BlueBox -->
<g id="edge16" class="edge">
<title>Fallback &#160;&#160;&#160;&#45;&gt;in_gripper BlueBox</title>
<path fill="none" stroke="black" d="M566.03,-218.83C551.38,-208.97 531.56,-195.63 514.97,-184.47"/>
<polygon fill="black" stroke="black" points="516.89,-181.53 506.64,-178.85 512.98,-187.34 516.89,-181.53"/>
</g>
<!-- Sequence &#160;&#160;&#160; -->
<g id="node18" class="node">
<title>Sequence &#160;&#160;&#160;</title>
<polygon fill="orange" stroke="black" points="625.08,-180 563.08,-180 563.08,-144 625.08,-144 625.08,-180"/>
<text text-anchor="middle" x="594.08" y="-159.8" font-family="Times,serif" font-size="9.00">Sequence</text>
</g>
<!-- Fallback &#160;&#160;&#160;&#45;&gt;Sequence &#160;&#160;&#160; -->
<g id="edge17" class="edge">
<title>Fallback &#160;&#160;&#160;&#45;&gt;Sequence &#160;&#160;&#160;</title>
<path fill="none" stroke="black" d="M588.81,-215.7C589.58,-207.98 590.51,-198.71 591.37,-190.11"/>
<polygon fill="black" stroke="black" points="594.86,-190.4 592.37,-180.1 587.89,-189.71 594.86,-190.4"/>
</g>
<!-- Fallback &#160;&#160;&#160;&#160; -->
<g id="node19" class="node">
<title>Fallback &#160;&#160;&#160;&#160;</title>
<polygon fill="cyan" stroke="black" points="532.07,-82.54 532.07,-97.46 511.57,-108 482.59,-108 462.09,-97.46 462.09,-82.54 482.59,-72 511.57,-72 532.07,-82.54"/>
<text text-anchor="middle" x="497.08" y="-87.8" font-family="Times,serif" font-size="9.00">Fallback</text>
</g>
<!-- Sequence &#160;&#160;&#160;&#45;&gt;Fallback &#160;&#160;&#160;&#160; -->
<g id="edge18" class="edge">
<title>Sequence &#160;&#160;&#160;&#45;&gt;Fallback &#160;&#160;&#160;&#160;</title>
<path fill="none" stroke="black" d="M570.1,-143.7C556.54,-133.91 539.5,-121.61 525.29,-111.36"/>
<polygon fill="black" stroke="black" points="527.02,-108.29 516.87,-105.28 522.93,-113.97 527.02,-108.29"/>
</g>
<!-- pick0 BlueBox -->
<g id="node22" class="node">
<title>pick0 BlueBox</title>
<ellipse fill="lightgray" stroke="black" cx="598.08" cy="-90" rx="47.84" ry="18"/>
<text text-anchor="middle" x="598.08" y="-87.8" font-family="Times,serif" font-size="9.00">pick0 BlueBox</text>
</g>
<!-- Sequence &#160;&#160;&#160;&#45;&gt;pick0 BlueBox -->
<g id="edge21" class="edge">
<title>Sequence &#160;&#160;&#160;&#45;&gt;pick0 BlueBox</title>
<path fill="none" stroke="black" d="M595.07,-143.7C595.51,-135.98 596.04,-126.71 596.53,-118.11"/>
<polygon fill="black" stroke="black" points="600.03,-118.29 597.1,-108.1 593.04,-117.89 600.03,-118.29"/>
</g>
<!-- gripper_state open  -->
<g id="node20" class="node">
<title>gripper_state open </title>
<ellipse fill="lightgray" stroke="black" cx="455.08" cy="-18" rx="60.09" ry="18"/>
<text text-anchor="middle" x="455.08" y="-15.8" font-family="Times,serif" font-size="9.00">gripper_state open</text>
</g>
<!-- Fallback &#160;&#160;&#160;&#160;&#45;&gt;gripper_state open  -->
<g id="edge19" class="edge">
<title>Fallback &#160;&#160;&#160;&#160;&#45;&gt;gripper_state open </title>
<path fill="none" stroke="black" d="M486.7,-71.7C481.82,-63.56 475.89,-53.69 470.5,-44.7"/>
<polygon fill="black" stroke="black" points="473.49,-42.88 465.34,-36.1 467.49,-46.48 473.49,-42.88"/>
</g>
<!-- open_gripper  -->
<g id="node21" class="node">
<title>open_gripper </title>
<ellipse fill="lightgray" stroke="black" cx="579.08" cy="-18" rx="45.72" ry="18"/>
<text text-anchor="middle" x="579.08" y="-15.8" font-family="Times,serif" font-size="9.00">open_gripper</text>
</g>
<!-- Fallback &#160;&#160;&#160;&#160;&#45;&gt;open_gripper  -->
<g id="edge20" class="edge">
<title>Fallback &#160;&#160;&#160;&#160;&#45;&gt;open_gripper </title>
<path fill="none" stroke="black" d="M515.28,-73.46C526.35,-64.02 540.67,-51.79 552.94,-41.32"/>
<polygon fill="black" stroke="black" points="555.32,-43.89 560.65,-34.73 550.77,-38.56 555.32,-43.89"/>
</g>
<!-- object_at GreenBox [0.133, 0.0, 0.175] 0.02 KittingBox -->
<g id="node25" class="node">
<title>object_at GreenBox [0.133, 0.0, 0.175] 0.02 KittingBox</title>
<ellipse fill="lightgray" stroke="black" cx="973.08" cy="-306" rx="158.54" ry="18"/>
<text text-anchor="middle" x="973.08" y="-303.8" font-family="Times,serif" font-size="9.00">object_at GreenBox [0.133, 0.0, 0.175] 0.02 KittingBox</text>
</g>
<!-- Fallback &#160;&#160;&#160;&#160;&#160;&#45;&gt;object_at GreenBox [0.133, 0.0, 0.175] 0.02 KittingBox -->
<g id="edge24" class="edge">
<title>Fallback &#160;&#160;&#160;&#160;&#160;&#45;&gt;object_at GreenBox [0.133, 0.0, 0.175] 0.02 KittingBox</title>
<path fill="none" stroke="black" d="M973.08,-359.7C973.08,-351.98 973.08,-342.71 973.08,-334.11"/>
<polygon fill="black" stroke="black" points="976.58,-334.1 973.08,-324.1 969.58,-334.1 976.58,-334.1"/>
</g>
<!-- Sequence &#160;&#160;&#160;&#160; -->
<g id="node26" class="node">
<title>Sequence &#160;&#160;&#160;&#160;</title>
<polygon fill="orange" stroke="black" points="1212.08,-324 1150.08,-324 1150.08,-288 1212.08,-288 1212.08,-324"/>
<text text-anchor="middle" x="1181.08" y="-303.8" font-family="Times,serif" font-size="9.00">Sequence</text>
</g>
<!-- Fallback &#160;&#160;&#160;&#160;&#160;&#45;&gt;Sequence &#160;&#160;&#160;&#160; -->
<g id="edge25" class="edge">
<title>Fallback &#160;&#160;&#160;&#160;&#160;&#45;&gt;Sequence &#160;&#160;&#160;&#160;</title>
<path fill="none" stroke="black" d="M1003.73,-368.3C1035.71,-359 1087.46,-343.38 1140.24,-324.15"/>
<polygon fill="black" stroke="black" points="1141.58,-327.39 1149.75,-320.65 1139.16,-320.82 1141.58,-327.39"/>
</g>
<!-- Fallback &#160;&#160;&#160;&#160;&#160;&#160; -->
<g id="node27" class="node">
<title>Fallback &#160;&#160;&#160;&#160;&#160;&#160;</title>
<polygon fill="cyan" stroke="black" points="1014.07,-226.54 1014.07,-241.46 993.57,-252 964.59,-252 944.09,-241.46 944.09,-226.54 964.59,-216 993.57,-216 1014.07,-226.54"/>
<text text-anchor="middle" x="979.08" y="-231.8" font-family="Times,serif" font-size="9.00">Fallback</text>
</g>
<!-- Sequence &#160;&#160;&#160;&#160;&#45;&gt;Fallback &#160;&#160;&#160;&#160;&#160;&#160; -->
<g id="edge26" class="edge">
<title>Sequence &#160;&#160;&#160;&#160;&#45;&gt;Fallback &#160;&#160;&#160;&#160;&#160;&#160;</title>
<path fill="none" stroke="black" d="M1149.76,-291.32C1146.84,-290.16 1143.92,-289.03 1141.08,-288 1089.56,-269.25 1074.91,-269.89 1023.08,-252 1020.56,-251.13 1017.96,-250.2 1015.35,-249.25"/>
<polygon fill="black" stroke="black" points="1016.55,-245.96 1005.96,-245.74 1014.1,-252.52 1016.55,-245.96"/>
</g>
<!-- place0 GreenBox [0.133, 0.0, 0.175] 0.02 KittingBox -->
<g id="node34" class="node">
<title>place0 GreenBox [0.133, 0.0, 0.175] 0.02 KittingBox</title>
<ellipse fill="lightgray" stroke="black" cx="1184.08" cy="-234" rx="152.34" ry="18"/>
<text text-anchor="middle" x="1184.08" y="-231.8" font-family="Times,serif" font-size="9.00">place0 GreenBox [0.133, 0.0, 0.175] 0.02 KittingBox</text>
</g>
<!-- Sequence &#160;&#160;&#160;&#160;&#45;&gt;place0 GreenBox [0.133, 0.0, 0.175] 0.02 KittingBox -->
<g id="edge33" class="edge">
<title>Sequence &#160;&#160;&#160;&#160;&#45;&gt;place0 GreenBox [0.133, 0.0, 0.175] 0.02 KittingBox</title>
<path fill="none" stroke="black" d="M1181.82,-287.7C1182.15,-279.98 1182.55,-270.71 1182.92,-262.11"/>
<polygon fill="black" stroke="black" points="1186.42,-262.25 1183.35,-252.1 1179.42,-261.95 1186.42,-262.25"/>
</g>
<!-- in_gripper GreenBox -->
<g id="node28" class="node">
<title>in_gripper GreenBox</title>
<ellipse fill="lightgray" stroke="black" cx="921.08" cy="-162" rx="65.64" ry="18"/>
<text text-anchor="middle" x="921.08" y="-159.8" font-family="Times,serif" font-size="9.00">in_gripper GreenBox</text>
</g>
<!-- Fallback &#160;&#160;&#160;&#160;&#160;&#160;&#45;&gt;in_gripper GreenBox -->
<g id="edge27" class="edge">
<title>Fallback &#160;&#160;&#160;&#160;&#160;&#160;&#45;&gt;in_gripper GreenBox</title>
<path fill="none" stroke="black" d="M964.74,-215.7C957.69,-207.18 949.06,-196.76 941.34,-187.45"/>
<polygon fill="black" stroke="black" points="943.93,-185.09 934.85,-179.62 938.54,-189.56 943.93,-185.09"/>
</g>
<!-- Sequence &#160;&#160;&#160;&#160;&#160; -->
<g id="node29" class="node">
<title>Sequence &#160;&#160;&#160;&#160;&#160;</title>
<polygon fill="orange" stroke="black" points="1067.08,-180 1005.08,-180 1005.08,-144 1067.08,-144 1067.08,-180"/>
<text text-anchor="middle" x="1036.08" y="-159.8" font-family="Times,serif" font-size="9.00">Sequence</text>
</g>
<!-- Fallback &#160;&#160;&#160;&#160;&#160;&#160;&#45;&gt;Sequence &#160;&#160;&#160;&#160;&#160; -->
<g id="edge28" class="edge">
<title>Fallback &#160;&#160;&#160;&#160;&#160;&#160;&#45;&gt;Sequence &#160;&#160;&#160;&#160;&#160;</title>
<path fill="none" stroke="black" d="M993.17,-215.7C1000,-207.3 1008.34,-197.07 1015.84,-187.86"/>
<polygon fill="black" stroke="black" points="1018.55,-190.07 1022.15,-180.1 1013.12,-185.65 1018.55,-190.07"/>
</g>
<!-- Fallback &#160;&#160;&#160;&#160;&#160;&#160;&#160; -->
<g id="node30" class="node">
<title>Fallback &#160;&#160;&#160;&#160;&#160;&#160;&#160;</title>
<polygon fill="cyan" stroke="black" points="1018.07,-82.54 1018.07,-97.46 997.57,-108 968.59,-108 948.09,-97.46 948.09,-82.54 968.59,-72 997.57,-72 1018.07,-82.54"/>
<text text-anchor="middle" x="983.08" y="-87.8" font-family="Times,serif" font-size="9.00">Fallback</text>
</g>
<!-- Sequence &#160;&#160;&#160;&#160;&#160;&#45;&gt;Fallback &#160;&#160;&#160;&#160;&#160;&#160;&#160; -->
<g id="edge29" class="edge">
<title>Sequence &#160;&#160;&#160;&#160;&#160;&#45;&gt;Fallback &#160;&#160;&#160;&#160;&#160;&#160;&#160;</title>
<path fill="none" stroke="black" d="M1022.98,-143.7C1016.69,-135.39 1009.03,-125.28 1002.12,-116.14"/>
<polygon fill="black" stroke="black" points="1004.86,-113.96 996.03,-108.1 999.28,-118.19 1004.86,-113.96"/>
</g>
<!-- pick0 GreenBox -->
<g id="node33" class="node">
<title>pick0 GreenBox</title>
<ellipse fill="lightgray" stroke="black" cx="1089.08" cy="-90" rx="52.58" ry="18"/>
<text text-anchor="middle" x="1089.08" y="-87.8" font-family="Times,serif" font-size="9.00">pick0 GreenBox</text>
</g>
<!-- Sequence &#160;&#160;&#160;&#160;&#160;&#45;&gt;pick0 GreenBox -->
<g id="edge32" class="edge">
<title>Sequence &#160;&#160;&#160;&#160;&#160;&#45;&gt;pick0 GreenBox</title>
<path fill="none" stroke="black" d="M1049.18,-143.7C1055.57,-135.27 1063.36,-124.97 1070.35,-115.73"/>
<polygon fill="black" stroke="black" points="1073.25,-117.71 1076.5,-107.62 1067.67,-113.48 1073.25,-117.71"/>
</g>
<!-- gripper_state open &#160; -->
<g id="node31" class="node">
<title>gripper_state open &#160;</title>
<ellipse fill="lightgray" stroke="black" cx="921.08" cy="-18" rx="60.09" ry="18"/>
<text text-anchor="middle" x="921.08" y="-15.8" font-family="Times,serif" font-size="9.00">gripper_state open</text>
</g>
<!-- Fallback &#160;&#160;&#160;&#160;&#160;&#160;&#160;&#45;&gt;gripper_state open &#160; -->
<g id="edge30" class="edge">
<title>Fallback &#160;&#160;&#160;&#160;&#160;&#160;&#160;&#45;&gt;gripper_state open &#160;</title>
<path fill="none" stroke="black" d="M968.07,-72.05C960.46,-63.46 951.07,-52.86 942.69,-43.4"/>
<polygon fill="black" stroke="black" points="945.2,-40.95 935.95,-35.79 939.96,-45.6 945.2,-40.95"/>
</g>
<!-- open_gripper &#160; -->
<g id="node32" class="node">
<title>open_gripper &#160;</title>
<ellipse fill="lightgray" stroke="black" cx="1045.08" cy="-18" rx="45.72" ry="18"/>
<text text-anchor="middle" x="1045.08" y="-15.8" font-family="Times,serif" font-size="9.00">open_gripper</text>
</g>
<!-- Fallback &#160;&#160;&#160;&#160;&#160;&#160;&#160;&#45;&gt;open_gripper &#160; -->
<g id="edge31" class="edge">
<title>Fallback &#160;&#160;&#160;&#160;&#160;&#160;&#160;&#45;&gt;open_gripper &#160;</title>
<path fill="none" stroke="black" d="M998.09,-72.05C1005.82,-63.33 1015.37,-52.54 1023.84,-42.98"/>
<polygon fill="black" stroke="black" points="1026.63,-45.11 1030.64,-35.31 1021.39,-40.47 1026.63,-45.11"/>
</g>
</g>
</svg>
