<?xml version="1.0" encoding="UTF-8" standalone="no"?>
<!DOCTYPE svg PUBLIC "-//W3C//DTD SVG 1.1//EN"
 "http://www.w3.org/Graphics/SVG/1.1/DTD/svg11.dtd">
<!-- Generated by graphviz version 2.43.0 (0)
 -->
<!-- Title: pastafarianism Pages: 1 -->
<svg width="1444pt" height="289pt"
 viewBox="0.00 0.00 1443.70 289.24" xmlns="http://www.w3.org/2000/svg" xmlns:xlink="http://www.w3.org/1999/xlink">
<g id="graph0" class="graph" transform="scale(1 1) rotate(0) translate(4 285.24)">
<title>pastafarianism</title>
<polygon fill="white" stroke="transparent" points="-4,4 -4,-285.24 1439.7,-285.24 1439.7,4 -4,4"/>
<!-- selector:
 put_down(left_hand, defaultgripper, shaft2) -->
<g id="node1" class="node">
<title>selector:
 put_down(left_hand, defaultgripper, shaft2)</title>
<polygon fill="#8deeee" stroke="black" points="749.83,-229.19 749.83,-259.82 563.38,-281.48 299.71,-281.48 113.26,-259.82 113.26,-229.19 299.71,-207.53 563.38,-207.53 749.83,-229.19"/>
<text text-anchor="middle" x="431.55" y="-250.1" font-family="Times,serif" font-size="18.00">selector:</text>
<text text-anchor="middle" x="431.55" y="-230.1" font-family="Times,serif" font-size="18.00"> put_down(left_hand, defaultgripper, shaft2)</text>
</g>
<!-- target:
 not hold(left_hand, shaft2) -->
<g id="node2" class="node">
<title>target:
 not hold(left_hand, shaft2)</title>
<ellipse fill="#ffec8b" stroke="black" cx="225.55" cy="-137.82" rx="185.94" ry="33.88"/>
<text text-anchor="middle" x="225.55" y="-143.42" font-family="Times,serif" font-size="18.00">target:</text>
<text text-anchor="middle" x="225.55" y="-123.42" font-family="Times,serif" font-size="18.00"> not hold(left_hand, shaft2)</text>
</g>
<!-- selector:
 put_down(left_hand, defaultgripper, shaft2)&#45;&gt;target:
 not hold(left_hand, shaft2) -->
<g id="edge1" class="edge">
<title>selector:
 put_down(left_hand, defaultgripper, shaft2)&#45;&gt;target:
 not hold(left_hand, shaft2)</title>
<path fill="none" stroke="black" d="M360.94,-207.62C339.94,-196.95 316.94,-185.26 295.95,-174.6"/>
<polygon fill="black" stroke="black" points="297.28,-171.35 286.78,-169.94 294.11,-177.59 297.28,-171.35"/>
</g>
<!-- sequence:
 put_down(left_hand, defaultgripper, shaft2) -->
<g id="node3" class="node">
<title>sequence:
 put_down(left_hand, defaultgripper, shaft2)</title>
<polygon fill="#ff7f24" stroke="black" points="845.55,-161.82 429.55,-161.82 429.55,-113.82 845.55,-113.82 845.55,-161.82"/>
<text text-anchor="middle" x="637.55" y="-143.42" font-family="Times,serif" font-size="18.00">sequence:</text>
<text text-anchor="middle" x="637.55" y="-123.42" font-family="Times,serif" font-size="18.00"> put_down(left_hand, defaultgripper, shaft2)</text>
</g>
<!-- selector:
 put_down(left_hand, defaultgripper, shaft2)&#45;&gt;sequence:
 put_down(left_hand, defaultgripper, shaft2) -->
<g id="edge2" class="edge">
<title>selector:
 put_down(left_hand, defaultgripper, shaft2)&#45;&gt;sequence:
 put_down(left_hand, defaultgripper, shaft2)</title>
<path fill="none" stroke="black" d="M502.15,-207.62C528.59,-194.19 558.2,-179.14 582.97,-166.56"/>
<polygon fill="black" stroke="black" points="584.88,-169.51 592.21,-161.86 581.71,-163.27 584.88,-169.51"/>
</g>
<!-- precondition:
 hold(left_hand, defaultgripper) -->
<g id="node4" class="node">
<title>precondition:
 hold(left_hand, defaultgripper)</title>
<ellipse fill="#ffec8b" stroke="black" cx="213.55" cy="-33.94" rx="213.59" ry="33.88"/>
<text text-anchor="middle" x="213.55" y="-39.54" font-family="Times,serif" font-size="18.00">precondition:</text>
<text text-anchor="middle" x="213.55" y="-19.54" font-family="Times,serif" font-size="18.00"> hold(left_hand, defaultgripper)</text>
</g>
<!-- sequence:
 put_down(left_hand, defaultgripper, shaft2)&#45;&gt;precondition:
 hold(left_hand, defaultgripper) -->
<g id="edge3" class="edge">
<title>sequence:
 put_down(left_hand, defaultgripper, shaft2)&#45;&gt;precondition:
 hold(left_hand, defaultgripper)</title>
<path fill="none" stroke="black" d="M541.6,-113.77C481.53,-99.34 403.5,-80.59 338.61,-64.99"/>
<polygon fill="black" stroke="black" points="339.27,-61.55 328.73,-62.62 337.63,-68.36 339.27,-61.55"/>
</g>
<!-- precondition:
 hold(defaultgripper, shaft2) -->
<g id="node5" class="node">
<title>precondition:
 hold(defaultgripper, shaft2)</title>
<ellipse fill="#ffec8b" stroke="black" cx="637.55" cy="-33.94" rx="192.17" ry="33.88"/>
<text text-anchor="middle" x="637.55" y="-39.54" font-family="Times,serif" font-size="18.00">precondition:</text>
<text text-anchor="middle" x="637.55" y="-19.54" font-family="Times,serif" font-size="18.00"> hold(defaultgripper, shaft2)</text>
</g>
<!-- sequence:
 put_down(left_hand, defaultgripper, shaft2)&#45;&gt;precondition:
 hold(defaultgripper, shaft2) -->
<g id="edge4" class="edge">
<title>sequence:
 put_down(left_hand, defaultgripper, shaft2)&#45;&gt;precondition:
 hold(defaultgripper, shaft2)</title>
<path fill="none" stroke="black" d="M637.55,-113.7C637.55,-103.16 637.55,-90.31 637.55,-78.08"/>
<polygon fill="black" stroke="black" points="641.05,-78.01 637.55,-68.01 634.05,-78.01 641.05,-78.01"/>
</g>
<!-- action:
 put_down(left_hand, defaultgripper, shaft2) -->
<g id="node6" class="node">
<title>action:
 put_down(left_hand, defaultgripper, shaft2)</title>
<ellipse fill="lightgreen" stroke="black" cx="1141.55" cy="-33.94" rx="294.31" ry="33.88"/>
<text text-anchor="middle" x="1141.55" y="-39.54" font-family="Times,serif" font-size="18.00">action:</text>
<text text-anchor="middle" x="1141.55" y="-19.54" font-family="Times,serif" font-size="18.00"> put_down(left_hand, defaultgripper, shaft2)</text>
</g>
<!-- sequence:
 put_down(left_hand, defaultgripper, shaft2)&#45;&gt;action:
 put_down(left_hand, defaultgripper, shaft2) -->
<g id="edge5" class="edge">
<title>sequence:
 put_down(left_hand, defaultgripper, shaft2)&#45;&gt;action:
 put_down(left_hand, defaultgripper, shaft2)</title>
<path fill="none" stroke="black" d="M751.6,-113.77C821.77,-99.58 912.57,-81.23 988.89,-65.8"/>
<polygon fill="black" stroke="black" points="989.97,-69.15 999.08,-63.74 988.58,-62.29 989.97,-69.15"/>
</g>
</g>
</svg>
