<?xml version="1.0" encoding="UTF-8" standalone="no"?>
<!DOCTYPE svg PUBLIC "-//W3C//DTD SVG 1.1//EN"
 "http://www.w3.org/Graphics/SVG/1.1/DTD/svg11.dtd">
<!-- Generated by graphviz version 2.43.0 (0)
 -->
<!-- Title: pastafarianism Pages: 1 -->
<svg width="1876pt" height="503pt"
 viewBox="0.00 0.00 1875.70 502.60" xmlns="http://www.w3.org/2000/svg" xmlns:xlink="http://www.w3.org/1999/xlink">
<g id="graph0" class="graph" transform="scale(1 1) rotate(0) translate(4 498.6)">
<title>pastafarianism</title>
<polygon fill="white" stroke="transparent" points="-4,4 -4,-498.6 1871.7,-498.6 1871.7,4 -4,4"/>
<!-- selector:
 put_down(left_hand, defaultgripper, shaft2) -->
<g id="node1" class="node">
<title>selector:
 put_down(left_hand, defaultgripper, shaft2)</title>
<polygon fill="#8deeee" stroke="black" points="1181.83,-442.54 1181.83,-473.18 995.38,-494.84 731.71,-494.84 545.26,-473.18 545.26,-442.54 731.71,-420.88 995.38,-420.88 1181.83,-442.54"/>
<text text-anchor="middle" x="863.55" y="-463.46" font-family="Times,serif" font-size="18.00">selector:</text>
<text text-anchor="middle" x="863.55" y="-443.46" font-family="Times,serif" font-size="18.00"> put_down(left_hand, defaultgripper, shaft2)</text>
</g>
<!-- target:
 not hold(left_hand, shaft2) -->
<g id="node2" class="node">
<title>target:
 not hold(left_hand, shaft2)</title>
<ellipse fill="#ffec8b" stroke="black" cx="657.55" cy="-351.18" rx="185.94" ry="33.88"/>
<text text-anchor="middle" x="657.55" y="-356.78" font-family="Times,serif" font-size="18.00">target:</text>
<text text-anchor="middle" x="657.55" y="-336.78" font-family="Times,serif" font-size="18.00"> not hold(left_hand, shaft2)</text>
</g>
<!-- selector:
 put_down(left_hand, defaultgripper, shaft2)&#45;&gt;target:
 not hold(left_hand, shaft2) -->
<g id="edge1" class="edge">
<title>selector:
 put_down(left_hand, defaultgripper, shaft2)&#45;&gt;target:
 not hold(left_hand, shaft2)</title>
<path fill="none" stroke="black" d="M792.94,-420.98C771.94,-410.31 748.94,-398.62 727.95,-387.96"/>
<polygon fill="black" stroke="black" points="729.28,-384.7 718.78,-383.29 726.11,-390.95 729.28,-384.7"/>
</g>
<!-- sequence:
 put_down(left_hand, defaultgripper, shaft2) -->
<g id="node3" class="node">
<title>sequence:
 put_down(left_hand, defaultgripper, shaft2)</title>
<polygon fill="#ff7f24" stroke="black" points="1277.55,-375.18 861.55,-375.18 861.55,-327.18 1277.55,-327.18 1277.55,-375.18"/>
<text text-anchor="middle" x="1069.55" y="-356.78" font-family="Times,serif" font-size="18.00">sequence:</text>
<text text-anchor="middle" x="1069.55" y="-336.78" font-family="Times,serif" font-size="18.00"> put_down(left_hand, defaultgripper, shaft2)</text>
</g>
<!-- selector:
 put_down(left_hand, defaultgripper, shaft2)&#45;&gt;sequence:
 put_down(left_hand, defaultgripper, shaft2) -->
<g id="edge2" class="edge">
<title>selector:
 put_down(left_hand, defaultgripper, shaft2)&#45;&gt;sequence:
 put_down(left_hand, defaultgripper, shaft2)</title>
<path fill="none" stroke="black" d="M934.15,-420.98C960.59,-407.55 990.2,-392.5 1014.97,-379.91"/>
<polygon fill="black" stroke="black" points="1016.88,-382.87 1024.21,-375.22 1013.71,-376.63 1016.88,-382.87"/>
</g>
<!-- selector:
 change_tool(left_hand, outwardgripper, defaultgripper) -->
<g id="node4" class="node">
<title>selector:
 change_tool(left_hand, outwardgripper, defaultgripper)</title>
<polygon fill="#8deeee" stroke="black" points="859.09,-229.19 859.09,-259.82 625.04,-281.48 294.05,-281.48 60,-259.82 60,-229.19 294.05,-207.53 625.04,-207.53 859.09,-229.19"/>
<text text-anchor="middle" x="459.55" y="-250.1" font-family="Times,serif" font-size="18.00">selector:</text>
<text text-anchor="middle" x="459.55" y="-230.1" font-family="Times,serif" font-size="18.00"> change_tool(left_hand, outwardgripper, defaultgripper)</text>
</g>
<!-- sequence:
 put_down(left_hand, defaultgripper, shaft2)&#45;&gt;selector:
 change_tool(left_hand, outwardgripper, defaultgripper) -->
<g id="edge3" class="edge">
<title>sequence:
 put_down(left_hand, defaultgripper, shaft2)&#45;&gt;selector:
 change_tool(left_hand, outwardgripper, defaultgripper)</title>
<path fill="none" stroke="black" d="M935.3,-327.14C855.76,-313.49 753.36,-295.92 663.95,-280.58"/>
<polygon fill="black" stroke="black" points="664.4,-277.1 653.95,-278.86 663.22,-284 664.4,-277.1"/>
</g>
<!-- precondition:
 hold(defaultgripper, shaft2) -->
<g id="node10" class="node">
<title>precondition:
 hold(defaultgripper, shaft2)</title>
<ellipse fill="#ffec8b" stroke="black" cx="1069.55" cy="-244.5" rx="192.17" ry="33.88"/>
<text text-anchor="middle" x="1069.55" y="-250.1" font-family="Times,serif" font-size="18.00">precondition:</text>
<text text-anchor="middle" x="1069.55" y="-230.1" font-family="Times,serif" font-size="18.00"> hold(defaultgripper, shaft2)</text>
</g>
<!-- sequence:
 put_down(left_hand, defaultgripper, shaft2)&#45;&gt;precondition:
 hold(defaultgripper, shaft2) -->
<g id="edge9" class="edge">
<title>sequence:
 put_down(left_hand, defaultgripper, shaft2)&#45;&gt;precondition:
 hold(defaultgripper, shaft2)</title>
<path fill="none" stroke="black" d="M1069.55,-326.95C1069.55,-315.73 1069.55,-301.9 1069.55,-288.84"/>
<polygon fill="black" stroke="black" points="1073.05,-288.6 1069.55,-278.6 1066.05,-288.6 1073.05,-288.6"/>
</g>
<!-- action:
 put_down(left_hand, defaultgripper, shaft2) -->
<g id="node11" class="node">
<title>action:
 put_down(left_hand, defaultgripper, shaft2)</title>
<ellipse fill="lightgreen" stroke="black" cx="1573.55" cy="-244.5" rx="294.31" ry="33.88"/>
<text text-anchor="middle" x="1573.55" y="-250.1" font-family="Times,serif" font-size="18.00">action:</text>
<text text-anchor="middle" x="1573.55" y="-230.1" font-family="Times,serif" font-size="18.00"> put_down(left_hand, defaultgripper, shaft2)</text>
</g>
<!-- sequence:
 put_down(left_hand, defaultgripper, shaft2)&#45;&gt;action:
 put_down(left_hand, defaultgripper, shaft2) -->
<g id="edge10" class="edge">
<title>sequence:
 put_down(left_hand, defaultgripper, shaft2)&#45;&gt;action:
 put_down(left_hand, defaultgripper, shaft2)</title>
<path fill="none" stroke="black" d="M1180.46,-327.14C1252.03,-312.28 1346,-292.76 1424.12,-276.54"/>
<polygon fill="black" stroke="black" points="1424.97,-279.94 1434.05,-274.47 1423.55,-273.08 1424.97,-279.94"/>
</g>
<!-- target:
 hold(left_hand, defaultgripper) -->
<g id="node5" class="node">
<title>target:
 hold(left_hand, defaultgripper)</title>
<ellipse fill="#ffec8b" stroke="black" cx="213.55" cy="-137.82" rx="213.59" ry="33.88"/>
<text text-anchor="middle" x="213.55" y="-143.42" font-family="Times,serif" font-size="18.00">target:</text>
<text text-anchor="middle" x="213.55" y="-123.42" font-family="Times,serif" font-size="18.00"> hold(left_hand, defaultgripper)</text>
</g>
<!-- selector:
 change_tool(left_hand, outwardgripper, defaultgripper)&#45;&gt;target:
 hold(left_hand, defaultgripper) -->
<g id="edge4" class="edge">
<title>selector:
 change_tool(left_hand, outwardgripper, defaultgripper)&#45;&gt;target:
 hold(left_hand, defaultgripper)</title>
<path fill="none" stroke="black" d="M375.23,-207.62C349.47,-196.66 321.18,-184.62 295.57,-173.73"/>
<polygon fill="black" stroke="black" points="296.83,-170.46 286.26,-169.77 294.09,-176.9 296.83,-170.46"/>
</g>
<!-- sequence:
 change_tool(left_hand, outwardgripper, defaultgripper) -->
<g id="node6" class="node">
<title>sequence:
 change_tool(left_hand, outwardgripper, defaultgripper)</title>
<polygon fill="#ff7f24" stroke="black" points="967.55,-161.82 445.55,-161.82 445.55,-113.82 967.55,-113.82 967.55,-161.82"/>
<text text-anchor="middle" x="706.55" y="-143.42" font-family="Times,serif" font-size="18.00">sequence:</text>
<text text-anchor="middle" x="706.55" y="-123.42" font-family="Times,serif" font-size="18.00"> change_tool(left_hand, outwardgripper, defaultgripper)</text>
</g>
<!-- selector:
 change_tool(left_hand, outwardgripper, defaultgripper)&#45;&gt;sequence:
 change_tool(left_hand, outwardgripper, defaultgripper) -->
<g id="edge5" class="edge">
<title>selector:
 change_tool(left_hand, outwardgripper, defaultgripper)&#45;&gt;sequence:
 change_tool(left_hand, outwardgripper, defaultgripper)</title>
<path fill="none" stroke="black" d="M544.2,-207.62C576.46,-193.95 612.66,-178.61 642.67,-165.89"/>
<polygon fill="black" stroke="black" points="644.35,-168.98 652.19,-161.86 641.62,-162.54 644.35,-168.98"/>
</g>
<!-- precondition:
 hold(left_hand, outwardgripper) -->
<g id="node7" class="node">
<title>precondition:
 hold(left_hand, outwardgripper)</title>
<ellipse fill="#ffec8b" stroke="black" cx="284.55" cy="-33.94" rx="221.15" ry="33.88"/>
<text text-anchor="middle" x="284.55" y="-39.54" font-family="Times,serif" font-size="18.00">precondition:</text>
<text text-anchor="middle" x="284.55" y="-19.54" font-family="Times,serif" font-size="18.00"> hold(left_hand, outwardgripper)</text>
</g>
<!-- sequence:
 change_tool(left_hand, outwardgripper, defaultgripper)&#45;&gt;precondition:
 hold(left_hand, outwardgripper) -->
<g id="edge6" class="edge">
<title>sequence:
 change_tool(left_hand, outwardgripper, defaultgripper)&#45;&gt;precondition:
 hold(left_hand, outwardgripper)</title>
<path fill="none" stroke="black" d="M611.05,-113.77C551.62,-99.42 474.51,-80.8 410.15,-65.27"/>
<polygon fill="black" stroke="black" points="410.89,-61.84 400.34,-62.9 409.24,-68.65 410.89,-61.84"/>
</g>
<!-- precondition:
 is_empty(outwardgripper) -->
<g id="node8" class="node">
<title>precondition:
 is_empty(outwardgripper)</title>
<ellipse fill="#ffec8b" stroke="black" cx="706.55" cy="-33.94" rx="183.28" ry="33.88"/>
<text text-anchor="middle" x="706.55" y="-39.54" font-family="Times,serif" font-size="18.00">precondition:</text>
<text text-anchor="middle" x="706.55" y="-19.54" font-family="Times,serif" font-size="18.00"> is_empty(outwardgripper)</text>
</g>
<!-- sequence:
 change_tool(left_hand, outwardgripper, defaultgripper)&#45;&gt;precondition:
 is_empty(outwardgripper) -->
<g id="edge7" class="edge">
<title>sequence:
 change_tool(left_hand, outwardgripper, defaultgripper)&#45;&gt;precondition:
 is_empty(outwardgripper)</title>
<path fill="none" stroke="black" d="M706.55,-113.7C706.55,-103.16 706.55,-90.31 706.55,-78.08"/>
<polygon fill="black" stroke="black" points="710.05,-78.01 706.55,-68.01 703.05,-78.01 710.05,-78.01"/>
</g>
<!-- action:
 change_tool(left_hand, outwardgripper, defaultgripper) -->
<g id="node9" class="node">
<title>action:
 change_tool(left_hand, outwardgripper, defaultgripper)</title>
<ellipse fill="lightgreen" stroke="black" cx="1276.55" cy="-33.94" rx="369.22" ry="33.88"/>
<text text-anchor="middle" x="1276.55" y="-39.54" font-family="Times,serif" font-size="18.00">action:</text>
<text text-anchor="middle" x="1276.55" y="-19.54" font-family="Times,serif" font-size="18.00"> change_tool(left_hand, outwardgripper, defaultgripper)</text>
</g>
<!-- sequence:
 change_tool(left_hand, outwardgripper, defaultgripper)&#45;&gt;action:
 change_tool(left_hand, outwardgripper, defaultgripper) -->
<g id="edge8" class="edge">
<title>sequence:
 change_tool(left_hand, outwardgripper, defaultgripper)&#45;&gt;action:
 change_tool(left_hand, outwardgripper, defaultgripper)</title>
<path fill="none" stroke="black" d="M835.53,-113.77C914.35,-99.68 1016.18,-81.48 1102.13,-66.12"/>
<polygon fill="black" stroke="black" points="1102.76,-69.56 1111.99,-64.35 1101.53,-62.67 1102.76,-69.56"/>
</g>
</g>
</svg>
