<?xml version="1.0" encoding="UTF-8" standalone="no"?>
<!DOCTYPE svg PUBLIC "-//W3C//DTD SVG 1.1//EN"
 "http://www.w3.org/Graphics/SVG/1.1/DTD/svg11.dtd">
<!-- Generated by graphviz version 2.43.0 (0)
 -->
<!-- Title: pastafarianism Pages: 1 -->
<svg width="3426pt" height="716pt"
 viewBox="0.00 0.00 3426.46 715.95" xmlns="http://www.w3.org/2000/svg" xmlns:xlink="http://www.w3.org/1999/xlink">
<g id="graph0" class="graph" transform="scale(1 1) rotate(0) translate(4 711.95)">
<title>pastafarianism</title>
<polygon fill="white" stroke="transparent" points="-4,4 -4,-711.95 3422.46,-711.95 3422.46,4 -4,4"/>
<!-- selector:
 put_down(left_hand, defaultgripper, shaft2) -->
<g id="node1" class="node">
<title>selector:
 put_down(left_hand, defaultgripper, shaft2)</title>
<polygon fill="#8deeee" stroke="black" points="1650.83,-655.9 1650.83,-686.53 1464.38,-708.19 1200.71,-708.19 1014.26,-686.53 1014.26,-655.9 1200.71,-634.24 1464.38,-634.24 1650.83,-655.9"/>
<text text-anchor="middle" x="1332.55" y="-676.82" font-family="Times,serif" font-size="18.00">selector:</text>
<text text-anchor="middle" x="1332.55" y="-656.82" font-family="Times,serif" font-size="18.00"> put_down(left_hand, defaultgripper, shaft2)</text>
</g>
<!-- target:
 not hold(left_hand, shaft2) -->
<g id="node2" class="node">
<title>target:
 not hold(left_hand, shaft2)</title>
<ellipse fill="#ffec8b" stroke="black" cx="1126.55" cy="-564.54" rx="185.94" ry="33.88"/>
<text text-anchor="middle" x="1126.55" y="-570.14" font-family="Times,serif" font-size="18.00">target:</text>
<text text-anchor="middle" x="1126.55" y="-550.14" font-family="Times,serif" font-size="18.00"> not hold(left_hand, shaft2)</text>
</g>
<!-- selector:
 put_down(left_hand, defaultgripper, shaft2)&#45;&gt;target:
 not hold(left_hand, shaft2) -->
<g id="edge1" class="edge">
<title>selector:
 put_down(left_hand, defaultgripper, shaft2)&#45;&gt;target:
 not hold(left_hand, shaft2)</title>
<path fill="none" stroke="black" d="M1261.94,-634.34C1240.94,-623.67 1217.94,-611.98 1196.95,-601.31"/>
<polygon fill="black" stroke="black" points="1198.28,-598.06 1187.78,-596.65 1195.11,-604.3 1198.28,-598.06"/>
</g>
<!-- sequence:
 put_down(left_hand, defaultgripper, shaft2) -->
<g id="node3" class="node">
<title>sequence:
 put_down(left_hand, defaultgripper, shaft2)</title>
<polygon fill="#ff7f24" stroke="black" points="1746.55,-588.54 1330.55,-588.54 1330.55,-540.54 1746.55,-540.54 1746.55,-588.54"/>
<text text-anchor="middle" x="1538.55" y="-570.14" font-family="Times,serif" font-size="18.00">sequence:</text>
<text text-anchor="middle" x="1538.55" y="-550.14" font-family="Times,serif" font-size="18.00"> put_down(left_hand, defaultgripper, shaft2)</text>
</g>
<!-- selector:
 put_down(left_hand, defaultgripper, shaft2)&#45;&gt;sequence:
 put_down(left_hand, defaultgripper, shaft2) -->
<g id="edge2" class="edge">
<title>selector:
 put_down(left_hand, defaultgripper, shaft2)&#45;&gt;sequence:
 put_down(left_hand, defaultgripper, shaft2)</title>
<path fill="none" stroke="black" d="M1403.15,-634.34C1429.59,-620.9 1459.2,-605.86 1483.97,-593.27"/>
<polygon fill="black" stroke="black" points="1485.88,-596.23 1493.21,-588.58 1482.71,-589.99 1485.88,-596.23"/>
</g>
<!-- selector:
 change_tool(left_hand, outwardgripper, defaultgripper) -->
<g id="node4" class="node">
<title>selector:
 change_tool(left_hand, outwardgripper, defaultgripper)</title>
<polygon fill="#8deeee" stroke="black" points="1106.09,-442.54 1106.09,-473.18 872.04,-494.84 541.05,-494.84 307,-473.18 307,-442.54 541.05,-420.88 872.04,-420.88 1106.09,-442.54"/>
<text text-anchor="middle" x="706.55" y="-463.46" font-family="Times,serif" font-size="18.00">selector:</text>
<text text-anchor="middle" x="706.55" y="-443.46" font-family="Times,serif" font-size="18.00"> change_tool(left_hand, outwardgripper, defaultgripper)</text>
</g>
<!-- sequence:
 put_down(left_hand, defaultgripper, shaft2)&#45;&gt;selector:
 change_tool(left_hand, outwardgripper, defaultgripper) -->
<g id="edge3" class="edge">
<title>sequence:
 put_down(left_hand, defaultgripper, shaft2)&#45;&gt;selector:
 change_tool(left_hand, outwardgripper, defaultgripper)</title>
<path fill="none" stroke="black" d="M1391.57,-540.52C1368.16,-537.06 1344.21,-533.64 1321.55,-530.6 1207,-515.23 1080.18,-500.11 971.62,-487.75"/>
<polygon fill="black" stroke="black" points="971.83,-484.25 961.5,-486.6 971.04,-491.21 971.83,-484.25"/>
</g>
<!-- selector:
 pick_up(left_hand, outwardgripper, shaft2) -->
<g id="node10" class="node">
<title>selector:
 pick_up(left_hand, outwardgripper, shaft2)</title>
<polygon fill="#8deeee" stroke="black" points="1852.15,-442.54 1852.15,-473.18 1668.44,-494.84 1408.65,-494.84 1224.95,-473.18 1224.95,-442.54 1408.65,-420.88 1668.44,-420.88 1852.15,-442.54"/>
<text text-anchor="middle" x="1538.55" y="-463.46" font-family="Times,serif" font-size="18.00">selector:</text>
<text text-anchor="middle" x="1538.55" y="-443.46" font-family="Times,serif" font-size="18.00"> pick_up(left_hand, outwardgripper, shaft2)</text>
</g>
<!-- sequence:
 put_down(left_hand, defaultgripper, shaft2)&#45;&gt;selector:
 pick_up(left_hand, outwardgripper, shaft2) -->
<g id="edge9" class="edge">
<title>sequence:
 put_down(left_hand, defaultgripper, shaft2)&#45;&gt;selector:
 pick_up(left_hand, outwardgripper, shaft2)</title>
<path fill="none" stroke="black" d="M1538.55,-540.31C1538.55,-529.86 1538.55,-517.15 1538.55,-504.9"/>
<polygon fill="black" stroke="black" points="1542.05,-504.78 1538.55,-494.78 1535.05,-504.78 1542.05,-504.78"/>
</g>
<!-- action:
 put_down(left_hand, defaultgripper, shaft2) -->
<g id="node21" class="node">
<title>action:
 put_down(left_hand, defaultgripper, shaft2)</title>
<ellipse fill="lightgreen" stroke="black" cx="2164.55" cy="-457.86" rx="294.31" ry="33.88"/>
<text text-anchor="middle" x="2164.55" y="-463.46" font-family="Times,serif" font-size="18.00">action:</text>
<text text-anchor="middle" x="2164.55" y="-443.46" font-family="Times,serif" font-size="18.00"> put_down(left_hand, defaultgripper, shaft2)</text>
</g>
<!-- sequence:
 put_down(left_hand, defaultgripper, shaft2)&#45;&gt;action:
 put_down(left_hand, defaultgripper, shaft2) -->
<g id="edge20" class="edge">
<title>sequence:
 put_down(left_hand, defaultgripper, shaft2)&#45;&gt;action:
 put_down(left_hand, defaultgripper, shaft2)</title>
<path fill="none" stroke="black" d="M1676.31,-540.5C1768.98,-525.01 1891.87,-504.46 1991.18,-487.85"/>
<polygon fill="black" stroke="black" points="1992.04,-491.25 2001.33,-486.15 1990.89,-484.35 1992.04,-491.25"/>
</g>
<!-- target:
 hold(left_hand, defaultgripper) -->
<g id="node5" class="node">
<title>target:
 hold(left_hand, defaultgripper)</title>
<ellipse fill="#ffec8b" stroke="black" cx="213.55" cy="-351.18" rx="213.59" ry="33.88"/>
<text text-anchor="middle" x="213.55" y="-356.78" font-family="Times,serif" font-size="18.00">target:</text>
<text text-anchor="middle" x="213.55" y="-336.78" font-family="Times,serif" font-size="18.00"> hold(left_hand, defaultgripper)</text>
</g>
<!-- selector:
 change_tool(left_hand, outwardgripper, defaultgripper)&#45;&gt;target:
 hold(left_hand, defaultgripper) -->
<g id="edge4" class="edge">
<title>selector:
 change_tool(left_hand, outwardgripper, defaultgripper)&#45;&gt;target:
 hold(left_hand, defaultgripper)</title>
<path fill="none" stroke="black" d="M538.26,-421.13C476.43,-408 407.27,-393.31 348.72,-380.88"/>
<polygon fill="black" stroke="black" points="349.17,-377.4 338.66,-378.75 347.72,-384.25 349.17,-377.4"/>
</g>
<!-- sequence:
 change_tool(left_hand, outwardgripper, defaultgripper) -->
<g id="node6" class="node">
<title>sequence:
 change_tool(left_hand, outwardgripper, defaultgripper)</title>
<polygon fill="#ff7f24" stroke="black" points="967.55,-375.18 445.55,-375.18 445.55,-327.18 967.55,-327.18 967.55,-375.18"/>
<text text-anchor="middle" x="706.55" y="-356.78" font-family="Times,serif" font-size="18.00">sequence:</text>
<text text-anchor="middle" x="706.55" y="-336.78" font-family="Times,serif" font-size="18.00"> change_tool(left_hand, outwardgripper, defaultgripper)</text>
</g>
<!-- selector:
 change_tool(left_hand, outwardgripper, defaultgripper)&#45;&gt;sequence:
 change_tool(left_hand, outwardgripper, defaultgripper) -->
<g id="edge5" class="edge">
<title>selector:
 change_tool(left_hand, outwardgripper, defaultgripper)&#45;&gt;sequence:
 change_tool(left_hand, outwardgripper, defaultgripper)</title>
<path fill="none" stroke="black" d="M706.55,-420.84C706.55,-409.45 706.55,-396.92 706.55,-385.72"/>
<polygon fill="black" stroke="black" points="710.05,-385.47 706.55,-375.47 703.05,-385.47 710.05,-385.47"/>
</g>
<!-- precondition:
 hold(left_hand, outwardgripper) -->
<g id="node7" class="node">
<title>precondition:
 hold(left_hand, outwardgripper)</title>
<ellipse fill="#ffec8b" stroke="black" cx="233.55" cy="-244.5" rx="221.15" ry="33.88"/>
<text text-anchor="middle" x="233.55" y="-250.1" font-family="Times,serif" font-size="18.00">precondition:</text>
<text text-anchor="middle" x="233.55" y="-230.1" font-family="Times,serif" font-size="18.00"> hold(left_hand, outwardgripper)</text>
</g>
<!-- sequence:
 change_tool(left_hand, outwardgripper, defaultgripper)&#45;&gt;precondition:
 hold(left_hand, outwardgripper) -->
<g id="edge6" class="edge">
<title>sequence:
 change_tool(left_hand, outwardgripper, defaultgripper)&#45;&gt;precondition:
 hold(left_hand, outwardgripper)</title>
<path fill="none" stroke="black" d="M602.45,-327.14C533.08,-311.79 441.28,-291.47 366.61,-274.95"/>
<polygon fill="black" stroke="black" points="367.18,-271.49 356.66,-272.75 365.67,-278.33 367.18,-271.49"/>
</g>
<!-- precondition:
 is_empty(outwardgripper) -->
<g id="node8" class="node">
<title>precondition:
 is_empty(outwardgripper)</title>
<ellipse fill="#ffec8b" stroke="black" cx="655.55" cy="-244.5" rx="183.28" ry="33.88"/>
<text text-anchor="middle" x="655.55" y="-250.1" font-family="Times,serif" font-size="18.00">precondition:</text>
<text text-anchor="middle" x="655.55" y="-230.1" font-family="Times,serif" font-size="18.00"> is_empty(outwardgripper)</text>
</g>
<!-- sequence:
 change_tool(left_hand, outwardgripper, defaultgripper)&#45;&gt;precondition:
 is_empty(outwardgripper) -->
<g id="edge7" class="edge">
<title>sequence:
 change_tool(left_hand, outwardgripper, defaultgripper)&#45;&gt;precondition:
 is_empty(outwardgripper)</title>
<path fill="none" stroke="black" d="M695.23,-326.95C689.6,-315.4 682.62,-301.08 676.09,-287.68"/>
<polygon fill="black" stroke="black" points="679.2,-286.05 671.67,-278.6 672.9,-289.12 679.2,-286.05"/>
</g>
<!-- action:
 change_tool(left_hand, outwardgripper, defaultgripper) -->
<g id="node9" class="node">
<title>action:
 change_tool(left_hand, outwardgripper, defaultgripper)</title>
<ellipse fill="lightgreen" stroke="black" cx="1225.55" cy="-244.5" rx="369.22" ry="33.88"/>
<text text-anchor="middle" x="1225.55" y="-250.1" font-family="Times,serif" font-size="18.00">action:</text>
<text text-anchor="middle" x="1225.55" y="-230.1" font-family="Times,serif" font-size="18.00"> change_tool(left_hand, outwardgripper, defaultgripper)</text>
</g>
<!-- sequence:
 change_tool(left_hand, outwardgripper, defaultgripper)&#45;&gt;action:
 change_tool(left_hand, outwardgripper, defaultgripper) -->
<g id="edge8" class="edge">
<title>sequence:
 change_tool(left_hand, outwardgripper, defaultgripper)&#45;&gt;action:
 change_tool(left_hand, outwardgripper, defaultgripper)</title>
<path fill="none" stroke="black" d="M820.76,-327.14C892.75,-312.63 986.73,-293.67 1066.02,-277.68"/>
<polygon fill="black" stroke="black" points="1067,-281.05 1076.11,-275.64 1065.62,-274.19 1067,-281.05"/>
</g>
<!-- target:
 hold(outwardgripper, shaft2) -->
<g id="node11" class="node">
<title>target:
 hold(outwardgripper, shaft2)</title>
<ellipse fill="#ffec8b" stroke="black" cx="1538.55" cy="-351.18" rx="200.22" ry="33.88"/>
<text text-anchor="middle" x="1538.55" y="-356.78" font-family="Times,serif" font-size="18.00">target:</text>
<text text-anchor="middle" x="1538.55" y="-336.78" font-family="Times,serif" font-size="18.00"> hold(outwardgripper, shaft2)</text>
</g>
<!-- selector:
 pick_up(left_hand, outwardgripper, shaft2)&#45;&gt;target:
 hold(outwardgripper, shaft2) -->
<g id="edge10" class="edge">
<title>selector:
 pick_up(left_hand, outwardgripper, shaft2)&#45;&gt;target:
 hold(outwardgripper, shaft2)</title>
<path fill="none" stroke="black" d="M1538.55,-420.84C1538.55,-412.68 1538.55,-403.93 1538.55,-395.51"/>
<polygon fill="black" stroke="black" points="1542.05,-395.46 1538.55,-385.46 1535.05,-395.46 1542.05,-395.46"/>
</g>
<!-- sequence:
 pick_up(left_hand, outwardgripper, shaft2) -->
<g id="node12" class="node">
<title>sequence:
 pick_up(left_hand, outwardgripper, shaft2)</title>
<polygon fill="#ff7f24" stroke="black" points="2523.55,-375.18 2113.55,-375.18 2113.55,-327.18 2523.55,-327.18 2523.55,-375.18"/>
<text text-anchor="middle" x="2318.55" y="-356.78" font-family="Times,serif" font-size="18.00">sequence:</text>
<text text-anchor="middle" x="2318.55" y="-336.78" font-family="Times,serif" font-size="18.00"> pick_up(left_hand, outwardgripper, shaft2)</text>
</g>
<!-- selector:
 pick_up(left_hand, outwardgripper, shaft2)&#45;&gt;sequence:
 pick_up(left_hand, outwardgripper, shaft2) -->
<g id="edge11" class="edge">
<title>selector:
 pick_up(left_hand, outwardgripper, shaft2)&#45;&gt;sequence:
 pick_up(left_hand, outwardgripper, shaft2)</title>
<path fill="none" stroke="black" d="M1742.21,-429.53C1864.47,-413.12 2018.67,-392.43 2136.79,-376.57"/>
<polygon fill="black" stroke="black" points="2137.58,-380 2147.03,-375.2 2136.65,-373.06 2137.58,-380"/>
</g>
<!-- selector:
 change_tool(left_hand, defaultgripper, outwardgripper) -->
<g id="node13" class="node">
<title>selector:
 change_tool(left_hand, defaultgripper, outwardgripper)</title>
<polygon fill="#8deeee" stroke="black" points="2412.09,-229.19 2412.09,-259.82 2178.04,-281.48 1847.05,-281.48 1613,-259.82 1613,-229.19 1847.05,-207.53 2178.04,-207.53 2412.09,-229.19"/>
<text text-anchor="middle" x="2012.55" y="-250.1" font-family="Times,serif" font-size="18.00">selector:</text>
<text text-anchor="middle" x="2012.55" y="-230.1" font-family="Times,serif" font-size="18.00"> change_tool(left_hand, defaultgripper, outwardgripper)</text>
</g>
<!-- sequence:
 pick_up(left_hand, outwardgripper, shaft2)&#45;&gt;selector:
 change_tool(left_hand, defaultgripper, outwardgripper) -->
<g id="edge12" class="edge">
<title>sequence:
 pick_up(left_hand, outwardgripper, shaft2)&#45;&gt;selector:
 change_tool(left_hand, defaultgripper, outwardgripper)</title>
<path fill="none" stroke="black" d="M2251.01,-327.08C2214.6,-314.62 2168.68,-298.91 2126.88,-284.61"/>
<polygon fill="black" stroke="black" points="2127.79,-281.23 2117.19,-281.3 2125.52,-287.85 2127.79,-281.23"/>
</g>
<!-- &quot;precondition:\n is_empty(outwardgripper)&quot;* -->
<g id="node19" class="node">
<title>&quot;precondition:\n is_empty(outwardgripper)&quot;*</title>
<ellipse fill="#ffec8b" stroke="black" cx="2625.55" cy="-244.5" rx="195.32" ry="33.88"/>
<text text-anchor="middle" x="2625.55" y="-250.1" font-family="Times,serif" font-size="18.00">&quot;precondition:</text>
<text text-anchor="middle" x="2625.55" y="-230.1" font-family="Times,serif" font-size="18.00"> is_empty(outwardgripper)&quot;*</text>
</g>
<!-- sequence:
 pick_up(left_hand, outwardgripper, shaft2)&#45;&gt;&quot;precondition:\n is_empty(outwardgripper)&quot;* -->
<g id="edge18" class="edge">
<title>sequence:
 pick_up(left_hand, outwardgripper, shaft2)&#45;&gt;&quot;precondition:\n is_empty(outwardgripper)&quot;*</title>
<path fill="none" stroke="black" d="M2386.3,-327.08C2428.34,-312.74 2483.02,-294.1 2529.49,-278.25"/>
<polygon fill="black" stroke="black" points="2530.64,-281.56 2538.97,-275.02 2528.38,-274.94 2530.64,-281.56"/>
</g>
<!-- action:
 pick_up(left_hand, outwardgripper, shaft2) -->
<g id="node20" class="node">
<title>action:
 pick_up(left_hand, outwardgripper, shaft2)</title>
<ellipse fill="lightgreen" stroke="black" cx="3128.55" cy="-244.5" rx="289.83" ry="33.88"/>
<text text-anchor="middle" x="3128.55" y="-250.1" font-family="Times,serif" font-size="18.00">action:</text>
<text text-anchor="middle" x="3128.55" y="-230.1" font-family="Times,serif" font-size="18.00"> pick_up(left_hand, outwardgripper, shaft2)</text>
</g>
<!-- sequence:
 pick_up(left_hand, outwardgripper, shaft2)&#45;&gt;action:
 pick_up(left_hand, outwardgripper, shaft2) -->
<g id="edge19" class="edge">
<title>sequence:
 pick_up(left_hand, outwardgripper, shaft2)&#45;&gt;action:
 pick_up(left_hand, outwardgripper, shaft2)</title>
<path fill="none" stroke="black" d="M2496.55,-327.18C2623.88,-310.72 2795.41,-288.55 2927.65,-271.47"/>
<polygon fill="black" stroke="black" points="2928.43,-274.89 2937.9,-270.14 2927.53,-267.95 2928.43,-274.89"/>
</g>
<!-- target:
 hold(left_hand, outwardgripper) -->
<g id="node14" class="node">
<title>target:
 hold(left_hand, outwardgripper)</title>
<ellipse fill="#ffec8b" stroke="black" cx="1762.55" cy="-137.82" rx="221.15" ry="33.88"/>
<text text-anchor="middle" x="1762.55" y="-143.42" font-family="Times,serif" font-size="18.00">target:</text>
<text text-anchor="middle" x="1762.55" y="-123.42" font-family="Times,serif" font-size="18.00"> hold(left_hand, outwardgripper)</text>
</g>
<!-- selector:
 change_tool(left_hand, defaultgripper, outwardgripper)&#45;&gt;target:
 hold(left_hand, outwardgripper) -->
<g id="edge13" class="edge">
<title>selector:
 change_tool(left_hand, defaultgripper, outwardgripper)&#45;&gt;target:
 hold(left_hand, outwardgripper)</title>
<path fill="none" stroke="black" d="M1926.86,-207.62C1900.8,-196.71 1872.2,-184.74 1846.28,-173.88"/>
<polygon fill="black" stroke="black" points="1847.43,-170.57 1836.85,-169.94 1844.73,-177.03 1847.43,-170.57"/>
</g>
<!-- sequence:
 change_tool(left_hand, defaultgripper, outwardgripper) -->
<g id="node15" class="node">
<title>sequence:
 change_tool(left_hand, defaultgripper, outwardgripper)</title>
<polygon fill="#ff7f24" stroke="black" points="2523.55,-161.82 2001.55,-161.82 2001.55,-113.82 2523.55,-113.82 2523.55,-161.82"/>
<text text-anchor="middle" x="2262.55" y="-143.42" font-family="Times,serif" font-size="18.00">sequence:</text>
<text text-anchor="middle" x="2262.55" y="-123.42" font-family="Times,serif" font-size="18.00"> change_tool(left_hand, defaultgripper, outwardgripper)</text>
</g>
<!-- selector:
 change_tool(left_hand, defaultgripper, outwardgripper)&#45;&gt;sequence:
 change_tool(left_hand, defaultgripper, outwardgripper) -->
<g id="edge14" class="edge">
<title>selector:
 change_tool(left_hand, defaultgripper, outwardgripper)&#45;&gt;sequence:
 change_tool(left_hand, defaultgripper, outwardgripper)</title>
<path fill="none" stroke="black" d="M2098.23,-207.62C2131.02,-193.89 2167.84,-178.48 2198.29,-165.73"/>
<polygon fill="black" stroke="black" points="2199.66,-168.95 2207.53,-161.86 2196.95,-162.49 2199.66,-168.95"/>
</g>
<!-- precondition:
 hold(left_hand, defaultgripper) -->
<g id="node16" class="node">
<title>precondition:
 hold(left_hand, defaultgripper)</title>
<ellipse fill="#ffec8b" stroke="black" cx="1855.55" cy="-33.94" rx="213.59" ry="33.88"/>
<text text-anchor="middle" x="1855.55" y="-39.54" font-family="Times,serif" font-size="18.00">precondition:</text>
<text text-anchor="middle" x="1855.55" y="-19.54" font-family="Times,serif" font-size="18.00"> hold(left_hand, defaultgripper)</text>
</g>
<!-- sequence:
 change_tool(left_hand, defaultgripper, outwardgripper)&#45;&gt;precondition:
 hold(left_hand, defaultgripper) -->
<g id="edge15" class="edge">
<title>sequence:
 change_tool(left_hand, defaultgripper, outwardgripper)&#45;&gt;precondition:
 hold(left_hand, defaultgripper)</title>
<path fill="none" stroke="black" d="M2170.45,-113.77C2113.24,-99.45 2039.06,-80.88 1977.07,-65.36"/>
<polygon fill="black" stroke="black" points="1977.78,-61.93 1967.23,-62.9 1976.08,-68.72 1977.78,-61.93"/>
</g>
<!-- precondition:
 is_empty(defaultgripper) -->
<g id="node17" class="node">
<title>precondition:
 is_empty(defaultgripper)</title>
<ellipse fill="#ffec8b" stroke="black" cx="2262.55" cy="-33.94" rx="175.23" ry="33.88"/>
<text text-anchor="middle" x="2262.55" y="-39.54" font-family="Times,serif" font-size="18.00">precondition:</text>
<text text-anchor="middle" x="2262.55" y="-19.54" font-family="Times,serif" font-size="18.00"> is_empty(defaultgripper)</text>
</g>
<!-- sequence:
 change_tool(left_hand, defaultgripper, outwardgripper)&#45;&gt;precondition:
 is_empty(defaultgripper) -->
<g id="edge16" class="edge">
<title>sequence:
 change_tool(left_hand, defaultgripper, outwardgripper)&#45;&gt;precondition:
 is_empty(defaultgripper)</title>
<path fill="none" stroke="black" d="M2262.55,-113.7C2262.55,-103.16 2262.55,-90.31 2262.55,-78.08"/>
<polygon fill="black" stroke="black" points="2266.05,-78.01 2262.55,-68.01 2259.05,-78.01 2266.05,-78.01"/>
</g>
<!-- action:
 change_tool(left_hand, defaultgripper, outwardgripper) -->
<g id="node18" class="node">
<title>action:
 change_tool(left_hand, defaultgripper, outwardgripper)</title>
<ellipse fill="lightgreen" stroke="black" cx="2824.55" cy="-33.94" rx="369.22" ry="33.88"/>
<text text-anchor="middle" x="2824.55" y="-39.54" font-family="Times,serif" font-size="18.00">action:</text>
<text text-anchor="middle" x="2824.55" y="-19.54" font-family="Times,serif" font-size="18.00"> change_tool(left_hand, defaultgripper, outwardgripper)</text>
</g>
<!-- sequence:
 change_tool(left_hand, defaultgripper, outwardgripper)&#45;&gt;action:
 change_tool(left_hand, defaultgripper, outwardgripper) -->
<g id="edge17" class="edge">
<title>sequence:
 change_tool(left_hand, defaultgripper, outwardgripper)&#45;&gt;action:
 change_tool(left_hand, defaultgripper, outwardgripper)</title>
<path fill="none" stroke="black" d="M2389.72,-113.77C2467.2,-99.72 2567.23,-81.59 2651.81,-66.26"/>
<polygon fill="black" stroke="black" points="2652.56,-69.68 2661.78,-64.45 2651.32,-62.79 2652.56,-69.68"/>
</g>
</g>
</svg>
