<?xml version="1.0" encoding="UTF-8" standalone="no"?>
<!DOCTYPE svg PUBLIC "-//W3C//DTD SVG 1.1//EN"
 "http://www.w3.org/Graphics/SVG/1.1/DTD/svg11.dtd">
<!-- Generated by graphviz version 2.43.0 (0)
 -->
<!-- Title: pastafarianism Pages: 1 -->
<svg width="3135pt" height="503pt"
 viewBox="0.00 0.00 3135.46 502.60" xmlns="http://www.w3.org/2000/svg" xmlns:xlink="http://www.w3.org/1999/xlink">
<g id="graph0" class="graph" transform="scale(1 1) rotate(0) translate(4 498.6)">
<title>pastafarianism</title>
<polygon fill="white" stroke="transparent" points="-4,4 -4,-498.6 3131.46,-498.6 3131.46,4 -4,4"/>
<!-- selector:
 put_down(left_hand, defaultgripper, shaft2) -->
<g id="node1" class="node">
<title>selector:
 put_down(left_hand, defaultgripper, shaft2)</title>
<polygon fill="#8deeee" stroke="black" points="1567.83,-442.54 1567.83,-473.18 1381.38,-494.84 1117.71,-494.84 931.26,-473.18 931.26,-442.54 1117.71,-420.88 1381.38,-420.88 1567.83,-442.54"/>
<text text-anchor="middle" x="1249.55" y="-463.46" font-family="Times,serif" font-size="18.00">selector:</text>
<text text-anchor="middle" x="1249.55" y="-443.46" font-family="Times,serif" font-size="18.00"> put_down(left_hand, defaultgripper, shaft2)</text>
</g>
<!-- target:
 not hold(left_hand, shaft2) -->
<g id="node2" class="node">
<title>target:
 not hold(left_hand, shaft2)</title>
<ellipse fill="#ffec8b" stroke="black" cx="1043.55" cy="-351.18" rx="185.94" ry="33.88"/>
<text text-anchor="middle" x="1043.55" y="-356.78" font-family="Times,serif" font-size="18.00">target:</text>
<text text-anchor="middle" x="1043.55" y="-336.78" font-family="Times,serif" font-size="18.00"> not hold(left_hand, shaft2)</text>
</g>
<!-- selector:
 put_down(left_hand, defaultgripper, shaft2)&#45;&gt;target:
 not hold(left_hand, shaft2) -->
<g id="edge1" class="edge">
<title>selector:
 put_down(left_hand, defaultgripper, shaft2)&#45;&gt;target:
 not hold(left_hand, shaft2)</title>
<path fill="none" stroke="black" d="M1178.94,-420.98C1157.94,-410.31 1134.94,-398.62 1113.95,-387.96"/>
<polygon fill="black" stroke="black" points="1115.28,-384.7 1104.78,-383.29 1112.11,-390.95 1115.28,-384.7"/>
</g>
<!-- sequence:
 put_down(left_hand, defaultgripper, shaft2) -->
<g id="node3" class="node">
<title>sequence:
 put_down(left_hand, defaultgripper, shaft2)</title>
<polygon fill="#ff7f24" stroke="black" points="1663.55,-375.18 1247.55,-375.18 1247.55,-327.18 1663.55,-327.18 1663.55,-375.18"/>
<text text-anchor="middle" x="1455.55" y="-356.78" font-family="Times,serif" font-size="18.00">sequence:</text>
<text text-anchor="middle" x="1455.55" y="-336.78" font-family="Times,serif" font-size="18.00"> put_down(left_hand, defaultgripper, shaft2)</text>
</g>
<!-- selector:
 put_down(left_hand, defaultgripper, shaft2)&#45;&gt;sequence:
 put_down(left_hand, defaultgripper, shaft2) -->
<g id="edge2" class="edge">
<title>selector:
 put_down(left_hand, defaultgripper, shaft2)&#45;&gt;sequence:
 put_down(left_hand, defaultgripper, shaft2)</title>
<path fill="none" stroke="black" d="M1320.15,-420.98C1346.59,-407.55 1376.2,-392.5 1400.97,-379.91"/>
<polygon fill="black" stroke="black" points="1402.88,-382.87 1410.21,-375.22 1399.71,-376.63 1402.88,-382.87"/>
</g>
<!-- selector:
 change_tool(left_hand, outwardgripper, defaultgripper) -->
<g id="node4" class="node">
<title>selector:
 change_tool(left_hand, outwardgripper, defaultgripper)</title>
<polygon fill="#8deeee" stroke="black" points="1106.09,-229.19 1106.09,-259.82 872.04,-281.48 541.05,-281.48 307,-259.82 307,-229.19 541.05,-207.53 872.04,-207.53 1106.09,-229.19"/>
<text text-anchor="middle" x="706.55" y="-250.1" font-family="Times,serif" font-size="18.00">selector:</text>
<text text-anchor="middle" x="706.55" y="-230.1" font-family="Times,serif" font-size="18.00"> change_tool(left_hand, outwardgripper, defaultgripper)</text>
</g>
<!-- sequence:
 put_down(left_hand, defaultgripper, shaft2)&#45;&gt;selector:
 change_tool(left_hand, outwardgripper, defaultgripper) -->
<g id="edge3" class="edge">
<title>sequence:
 put_down(left_hand, defaultgripper, shaft2)&#45;&gt;selector:
 change_tool(left_hand, outwardgripper, defaultgripper)</title>
<path fill="none" stroke="black" d="M1306.18,-327.17C1283.53,-323.78 1260.42,-320.38 1238.55,-317.24 1142.97,-303.54 1037.62,-289.18 946.07,-276.94"/>
<polygon fill="black" stroke="black" points="946.49,-273.47 936.12,-275.61 945.57,-280.4 946.49,-273.47"/>
</g>
<!-- selector:
 pick_up(left_hand, outwardgripper, shaft2) -->
<g id="node10" class="node">
<title>selector:
 pick_up(left_hand, outwardgripper, shaft2)</title>
<polygon fill="#8deeee" stroke="black" points="1769.15,-229.19 1769.15,-259.82 1585.44,-281.48 1325.65,-281.48 1141.95,-259.82 1141.95,-229.19 1325.65,-207.53 1585.44,-207.53 1769.15,-229.19"/>
<text text-anchor="middle" x="1455.55" y="-250.1" font-family="Times,serif" font-size="18.00">selector:</text>
<text text-anchor="middle" x="1455.55" y="-230.1" font-family="Times,serif" font-size="18.00"> pick_up(left_hand, outwardgripper, shaft2)</text>
</g>
<!-- sequence:
 put_down(left_hand, defaultgripper, shaft2)&#45;&gt;selector:
 pick_up(left_hand, outwardgripper, shaft2) -->
<g id="edge9" class="edge">
<title>sequence:
 put_down(left_hand, defaultgripper, shaft2)&#45;&gt;selector:
 pick_up(left_hand, outwardgripper, shaft2)</title>
<path fill="none" stroke="black" d="M1455.55,-326.95C1455.55,-316.5 1455.55,-303.79 1455.55,-291.54"/>
<polygon fill="black" stroke="black" points="1459.05,-291.42 1455.55,-281.42 1452.05,-291.42 1459.05,-291.42"/>
</g>
<!-- action:
 put_down(left_hand, defaultgripper, shaft2) -->
<g id="node16" class="node">
<title>action:
 put_down(left_hand, defaultgripper, shaft2)</title>
<ellipse fill="lightgreen" stroke="black" cx="2081.55" cy="-244.5" rx="294.31" ry="33.88"/>
<text text-anchor="middle" x="2081.55" y="-250.1" font-family="Times,serif" font-size="18.00">action:</text>
<text text-anchor="middle" x="2081.55" y="-230.1" font-family="Times,serif" font-size="18.00"> put_down(left_hand, defaultgripper, shaft2)</text>
</g>
<!-- sequence:
 put_down(left_hand, defaultgripper, shaft2)&#45;&gt;action:
 put_down(left_hand, defaultgripper, shaft2) -->
<g id="edge15" class="edge">
<title>sequence:
 put_down(left_hand, defaultgripper, shaft2)&#45;&gt;action:
 put_down(left_hand, defaultgripper, shaft2)</title>
<path fill="none" stroke="black" d="M1593.31,-327.14C1685.98,-311.65 1808.87,-291.1 1908.18,-274.49"/>
<polygon fill="black" stroke="black" points="1909.04,-277.9 1918.33,-272.8 1907.89,-270.99 1909.04,-277.9"/>
</g>
<!-- target:
 hold(left_hand, defaultgripper) -->
<g id="node5" class="node">
<title>target:
 hold(left_hand, defaultgripper)</title>
<ellipse fill="#ffec8b" stroke="black" cx="213.55" cy="-137.82" rx="213.59" ry="33.88"/>
<text text-anchor="middle" x="213.55" y="-143.42" font-family="Times,serif" font-size="18.00">target:</text>
<text text-anchor="middle" x="213.55" y="-123.42" font-family="Times,serif" font-size="18.00"> hold(left_hand, defaultgripper)</text>
</g>
<!-- selector:
 change_tool(left_hand, outwardgripper, defaultgripper)&#45;&gt;target:
 hold(left_hand, defaultgripper) -->
<g id="edge4" class="edge">
<title>selector:
 change_tool(left_hand, outwardgripper, defaultgripper)&#45;&gt;target:
 hold(left_hand, defaultgripper)</title>
<path fill="none" stroke="black" d="M538.26,-207.77C476.43,-194.64 407.27,-179.96 348.72,-167.52"/>
<polygon fill="black" stroke="black" points="349.17,-164.04 338.66,-165.39 347.72,-170.89 349.17,-164.04"/>
</g>
<!-- sequence:
 change_tool(left_hand, outwardgripper, defaultgripper) -->
<g id="node6" class="node">
<title>sequence:
 change_tool(left_hand, outwardgripper, defaultgripper)</title>
<polygon fill="#ff7f24" stroke="black" points="967.55,-161.82 445.55,-161.82 445.55,-113.82 967.55,-113.82 967.55,-161.82"/>
<text text-anchor="middle" x="706.55" y="-143.42" font-family="Times,serif" font-size="18.00">sequence:</text>
<text text-anchor="middle" x="706.55" y="-123.42" font-family="Times,serif" font-size="18.00"> change_tool(left_hand, outwardgripper, defaultgripper)</text>
</g>
<!-- selector:
 change_tool(left_hand, outwardgripper, defaultgripper)&#45;&gt;sequence:
 change_tool(left_hand, outwardgripper, defaultgripper) -->
<g id="edge5" class="edge">
<title>selector:
 change_tool(left_hand, outwardgripper, defaultgripper)&#45;&gt;sequence:
 change_tool(left_hand, outwardgripper, defaultgripper)</title>
<path fill="none" stroke="black" d="M706.55,-207.48C706.55,-196.09 706.55,-183.57 706.55,-172.36"/>
<polygon fill="black" stroke="black" points="710.05,-172.11 706.55,-162.11 703.05,-172.11 710.05,-172.11"/>
</g>
<!-- precondition:
 hold(left_hand, outwardgripper) -->
<g id="node7" class="node">
<title>precondition:
 hold(left_hand, outwardgripper)</title>
<ellipse fill="#ffec8b" stroke="black" cx="275.55" cy="-33.94" rx="221.15" ry="33.88"/>
<text text-anchor="middle" x="275.55" y="-39.54" font-family="Times,serif" font-size="18.00">precondition:</text>
<text text-anchor="middle" x="275.55" y="-19.54" font-family="Times,serif" font-size="18.00"> hold(left_hand, outwardgripper)</text>
</g>
<!-- sequence:
 change_tool(left_hand, outwardgripper, defaultgripper)&#45;&gt;precondition:
 hold(left_hand, outwardgripper) -->
<g id="edge6" class="edge">
<title>sequence:
 change_tool(left_hand, outwardgripper, defaultgripper)&#45;&gt;precondition:
 hold(left_hand, outwardgripper)</title>
<path fill="none" stroke="black" d="M609.01,-113.77C548.08,-99.36 468.95,-80.66 403.06,-65.08"/>
<polygon fill="black" stroke="black" points="403.56,-61.61 393.02,-62.71 401.95,-68.42 403.56,-61.61"/>
</g>
<!-- precondition:
 is_empty(outwardgripper) -->
<g id="node8" class="node">
<title>precondition:
 is_empty(outwardgripper)</title>
<ellipse fill="#ffec8b" stroke="black" cx="697.55" cy="-33.94" rx="183.28" ry="33.88"/>
<text text-anchor="middle" x="697.55" y="-39.54" font-family="Times,serif" font-size="18.00">precondition:</text>
<text text-anchor="middle" x="697.55" y="-19.54" font-family="Times,serif" font-size="18.00"> is_empty(outwardgripper)</text>
</g>
<!-- sequence:
 change_tool(left_hand, outwardgripper, defaultgripper)&#45;&gt;precondition:
 is_empty(outwardgripper) -->
<g id="edge7" class="edge">
<title>sequence:
 change_tool(left_hand, outwardgripper, defaultgripper)&#45;&gt;precondition:
 is_empty(outwardgripper)</title>
<path fill="none" stroke="black" d="M704.5,-113.7C703.57,-103.16 702.44,-90.31 701.36,-78.08"/>
<polygon fill="black" stroke="black" points="704.83,-77.67 700.47,-68.01 697.86,-78.28 704.83,-77.67"/>
</g>
<!-- action:
 change_tool(left_hand, outwardgripper, defaultgripper) -->
<g id="node9" class="node">
<title>action:
 change_tool(left_hand, outwardgripper, defaultgripper)</title>
<ellipse fill="lightgreen" stroke="black" cx="1267.55" cy="-33.94" rx="369.22" ry="33.88"/>
<text text-anchor="middle" x="1267.55" y="-39.54" font-family="Times,serif" font-size="18.00">action:</text>
<text text-anchor="middle" x="1267.55" y="-19.54" font-family="Times,serif" font-size="18.00"> change_tool(left_hand, outwardgripper, defaultgripper)</text>
</g>
<!-- sequence:
 change_tool(left_hand, outwardgripper, defaultgripper)&#45;&gt;action:
 change_tool(left_hand, outwardgripper, defaultgripper) -->
<g id="edge8" class="edge">
<title>sequence:
 change_tool(left_hand, outwardgripper, defaultgripper)&#45;&gt;action:
 change_tool(left_hand, outwardgripper, defaultgripper)</title>
<path fill="none" stroke="black" d="M833.5,-113.77C910.83,-99.72 1010.69,-81.59 1095.12,-66.26"/>
<polygon fill="black" stroke="black" points="1095.86,-69.68 1105.07,-64.45 1094.6,-62.79 1095.86,-69.68"/>
</g>
<!-- target:
 hold(outwardgripper, shaft2) -->
<g id="node11" class="node">
<title>target:
 hold(outwardgripper, shaft2)</title>
<ellipse fill="#ffec8b" stroke="black" cx="1455.55" cy="-137.82" rx="200.22" ry="33.88"/>
<text text-anchor="middle" x="1455.55" y="-143.42" font-family="Times,serif" font-size="18.00">target:</text>
<text text-anchor="middle" x="1455.55" y="-123.42" font-family="Times,serif" font-size="18.00"> hold(outwardgripper, shaft2)</text>
</g>
<!-- selector:
 pick_up(left_hand, outwardgripper, shaft2)&#45;&gt;target:
 hold(outwardgripper, shaft2) -->
<g id="edge10" class="edge">
<title>selector:
 pick_up(left_hand, outwardgripper, shaft2)&#45;&gt;target:
 hold(outwardgripper, shaft2)</title>
<path fill="none" stroke="black" d="M1455.55,-207.48C1455.55,-199.32 1455.55,-190.58 1455.55,-182.15"/>
<polygon fill="black" stroke="black" points="1459.05,-182.1 1455.55,-172.1 1452.05,-182.1 1459.05,-182.1"/>
</g>
<!-- sequence:
 pick_up(left_hand, outwardgripper, shaft2) -->
<g id="node12" class="node">
<title>sequence:
 pick_up(left_hand, outwardgripper, shaft2)</title>
<polygon fill="#ff7f24" stroke="black" points="2315.55,-161.82 1905.55,-161.82 1905.55,-113.82 2315.55,-113.82 2315.55,-161.82"/>
<text text-anchor="middle" x="2110.55" y="-143.42" font-family="Times,serif" font-size="18.00">sequence:</text>
<text text-anchor="middle" x="2110.55" y="-123.42" font-family="Times,serif" font-size="18.00"> pick_up(left_hand, outwardgripper, shaft2)</text>
</g>
<!-- selector:
 pick_up(left_hand, outwardgripper, shaft2)&#45;&gt;sequence:
 pick_up(left_hand, outwardgripper, shaft2) -->
<g id="edge11" class="edge">
<title>selector:
 pick_up(left_hand, outwardgripper, shaft2)&#45;&gt;sequence:
 pick_up(left_hand, outwardgripper, shaft2)</title>
<path fill="none" stroke="black" d="M1640.62,-213.93C1740.36,-197.98 1862,-178.54 1956.53,-163.44"/>
<polygon fill="black" stroke="black" points="1957.14,-166.88 1966.46,-161.85 1956.04,-159.97 1957.14,-166.88"/>
</g>
<!-- &quot;precondition:\n hold(left_hand, outwardgripper)&quot;* -->
<g id="node13" class="node">
<title>&quot;precondition:\n hold(left_hand, outwardgripper)&quot;*</title>
<ellipse fill="#ffec8b" stroke="black" cx="1887.55" cy="-33.94" rx="233.19" ry="33.88"/>
<text text-anchor="middle" x="1887.55" y="-39.54" font-family="Times,serif" font-size="18.00">&quot;precondition:</text>
<text text-anchor="middle" x="1887.55" y="-19.54" font-family="Times,serif" font-size="18.00"> hold(left_hand, outwardgripper)&quot;*</text>
</g>
<!-- sequence:
 pick_up(left_hand, outwardgripper, shaft2)&#45;&gt;&quot;precondition:\n hold(left_hand, outwardgripper)&quot;* -->
<g id="edge12" class="edge">
<title>sequence:
 pick_up(left_hand, outwardgripper, shaft2)&#45;&gt;&quot;precondition:\n hold(left_hand, outwardgripper)&quot;*</title>
<path fill="none" stroke="black" d="M2059.94,-113.7C2032.11,-100.99 1996.97,-84.93 1965.68,-70.64"/>
<polygon fill="black" stroke="black" points="1967.09,-67.44 1956.54,-66.46 1964.19,-73.8 1967.09,-67.44"/>
</g>
<!-- &quot;precondition:\n is_empty(outwardgripper)&quot;* -->
<g id="node14" class="node">
<title>&quot;precondition:\n is_empty(outwardgripper)&quot;*</title>
<ellipse fill="#ffec8b" stroke="black" cx="2334.55" cy="-33.94" rx="195.32" ry="33.88"/>
<text text-anchor="middle" x="2334.55" y="-39.54" font-family="Times,serif" font-size="18.00">&quot;precondition:</text>
<text text-anchor="middle" x="2334.55" y="-19.54" font-family="Times,serif" font-size="18.00"> is_empty(outwardgripper)&quot;*</text>
</g>
<!-- sequence:
 pick_up(left_hand, outwardgripper, shaft2)&#45;&gt;&quot;precondition:\n is_empty(outwardgripper)&quot;* -->
<g id="edge13" class="edge">
<title>sequence:
 pick_up(left_hand, outwardgripper, shaft2)&#45;&gt;&quot;precondition:\n is_empty(outwardgripper)&quot;*</title>
<path fill="none" stroke="black" d="M2161.38,-113.7C2189.69,-100.83 2225.53,-84.53 2257.24,-70.1"/>
<polygon fill="black" stroke="black" points="2258.85,-73.21 2266.51,-65.89 2255.95,-66.84 2258.85,-73.21"/>
</g>
<!-- action:
 pick_up(left_hand, outwardgripper, shaft2) -->
<g id="node15" class="node">
<title>action:
 pick_up(left_hand, outwardgripper, shaft2)</title>
<ellipse fill="lightgreen" stroke="black" cx="2837.55" cy="-33.94" rx="289.83" ry="33.88"/>
<text text-anchor="middle" x="2837.55" y="-39.54" font-family="Times,serif" font-size="18.00">action:</text>
<text text-anchor="middle" x="2837.55" y="-19.54" font-family="Times,serif" font-size="18.00"> pick_up(left_hand, outwardgripper, shaft2)</text>
</g>
<!-- sequence:
 pick_up(left_hand, outwardgripper, shaft2)&#45;&gt;action:
 pick_up(left_hand, outwardgripper, shaft2) -->
<g id="edge14" class="edge">
<title>sequence:
 pick_up(left_hand, outwardgripper, shaft2)&#45;&gt;action:
 pick_up(left_hand, outwardgripper, shaft2)</title>
<path fill="none" stroke="black" d="M2275.06,-113.77C2385.15,-98.34 2530.45,-77.98 2645.79,-61.81"/>
<polygon fill="black" stroke="black" points="2646.38,-65.27 2655.8,-60.41 2645.41,-58.33 2646.38,-65.27"/>
</g>
</g>
</svg>
