<?xml version="1.0" encoding="UTF-8" standalone="no"?>
<!DOCTYPE svg PUBLIC "-//W3C//DTD SVG 1.1//EN"
 "http://www.w3.org/Graphics/SVG/1.1/DTD/svg11.dtd">
<!-- Generated by graphviz version 2.43.0 (0)
 -->
<!-- Title: pastafarianism Pages: 1 -->
<svg width="3024pt" height="503pt"
 viewBox="0.00 0.00 3023.70 502.60" xmlns="http://www.w3.org/2000/svg" xmlns:xlink="http://www.w3.org/1999/xlink">
<g id="graph0" class="graph" transform="scale(1 1) rotate(0) translate(4 498.6)">
<title>pastafarianism</title>
<polygon fill="white" stroke="transparent" points="-4,4 -4,-498.6 3019.7,-498.6 3019.7,4 -4,4"/>
<!-- selector:
 insert(gear3, shaft3, outwardgripper, left_hand) -->
<g id="node1" class="node">
<title>selector:
 insert(gear3, shaft3, outwardgripper, left_hand)</title>
<polygon fill="#8deeee" stroke="black" points="1663.34,-442.54 1663.34,-473.18 1458.89,-494.84 1169.76,-494.84 965.31,-473.18 965.31,-442.54 1169.76,-420.88 1458.89,-420.88 1663.34,-442.54"/>
<text text-anchor="middle" x="1314.32" y="-463.46" font-family="Times,serif" font-size="18.00">selector:</text>
<text text-anchor="middle" x="1314.32" y="-443.46" font-family="Times,serif" font-size="18.00"> insert(gear3, shaft3, outwardgripper, left_hand)</text>
</g>
<!-- target:
 is_inserted_to(gear3, shaft3) -->
<g id="node2" class="node">
<title>target:
 is_inserted_to(gear3, shaft3)</title>
<ellipse fill="#ffec8b" stroke="black" cx="1092.32" cy="-351.18" rx="198.89" ry="33.88"/>
<text text-anchor="middle" x="1092.32" y="-356.78" font-family="Times,serif" font-size="18.00">target:</text>
<text text-anchor="middle" x="1092.32" y="-336.78" font-family="Times,serif" font-size="18.00"> is_inserted_to(gear3, shaft3)</text>
</g>
<!-- selector:
 insert(gear3, shaft3, outwardgripper, left_hand)&#45;&gt;target:
 is_inserted_to(gear3, shaft3) -->
<g id="edge1" class="edge">
<title>selector:
 insert(gear3, shaft3, outwardgripper, left_hand)&#45;&gt;target:
 is_inserted_to(gear3, shaft3)</title>
<path fill="none" stroke="black" d="M1238.24,-420.98C1215.4,-410.21 1190.37,-398.41 1167.59,-387.67"/>
<polygon fill="black" stroke="black" points="1168.85,-384.39 1158.31,-383.29 1165.86,-390.73 1168.85,-384.39"/>
</g>
<!-- sequence:
 insert(gear3, shaft3, outwardgripper, left_hand) -->
<g id="node3" class="node">
<title>sequence:
 insert(gear3, shaft3, outwardgripper, left_hand)</title>
<polygon fill="#ff7f24" stroke="black" points="1765.32,-375.18 1309.32,-375.18 1309.32,-327.18 1765.32,-327.18 1765.32,-375.18"/>
<text text-anchor="middle" x="1537.32" y="-356.78" font-family="Times,serif" font-size="18.00">sequence:</text>
<text text-anchor="middle" x="1537.32" y="-336.78" font-family="Times,serif" font-size="18.00"> insert(gear3, shaft3, outwardgripper, left_hand)</text>
</g>
<!-- selector:
 insert(gear3, shaft3, outwardgripper, left_hand)&#45;&gt;sequence:
 insert(gear3, shaft3, outwardgripper, left_hand) -->
<g id="edge2" class="edge">
<title>selector:
 insert(gear3, shaft3, outwardgripper, left_hand)&#45;&gt;sequence:
 insert(gear3, shaft3, outwardgripper, left_hand)</title>
<path fill="none" stroke="black" d="M1390.76,-420.98C1419.63,-407.43 1451.99,-392.24 1478.95,-379.58"/>
<polygon fill="black" stroke="black" points="1480.68,-382.64 1488.25,-375.22 1477.71,-376.3 1480.68,-382.64"/>
</g>
<!-- selector:
 change_tool(left_hand, clampgripper, outwardgripper) -->
<g id="node4" class="node">
<title>selector:
 change_tool(left_hand, clampgripper, outwardgripper)</title>
<polygon fill="#8deeee" stroke="black" points="1110.09,-229.19 1110.09,-259.82 880.01,-281.48 554.64,-281.48 324.56,-259.82 324.56,-229.19 554.64,-207.53 880.01,-207.53 1110.09,-229.19"/>
<text text-anchor="middle" x="717.32" y="-250.1" font-family="Times,serif" font-size="18.00">selector:</text>
<text text-anchor="middle" x="717.32" y="-230.1" font-family="Times,serif" font-size="18.00"> change_tool(left_hand, clampgripper, outwardgripper)</text>
</g>
<!-- sequence:
 insert(gear3, shaft3, outwardgripper, left_hand)&#45;&gt;selector:
 change_tool(left_hand, clampgripper, outwardgripper) -->
<g id="edge3" class="edge">
<title>sequence:
 insert(gear3, shaft3, outwardgripper, left_hand)&#45;&gt;selector:
 change_tool(left_hand, clampgripper, outwardgripper)</title>
<path fill="none" stroke="black" d="M1374.18,-327.16C1349.44,-323.77 1324.21,-320.37 1300.32,-317.24 1191.34,-302.96 1070.78,-287.99 967.71,-275.44"/>
<polygon fill="black" stroke="black" points="967.82,-271.93 957.47,-274.19 966.97,-278.88 967.82,-271.93"/>
</g>
<!-- selector:
 pick_up(left_hand, outwardgripper, gear3) -->
<g id="node10" class="node">
<title>selector:
 pick_up(left_hand, outwardgripper, gear3)</title>
<polygon fill="#8deeee" stroke="black" points="1847.27,-229.19 1847.27,-259.82 1665.71,-281.48 1408.94,-281.48 1227.38,-259.82 1227.38,-229.19 1408.94,-207.53 1665.71,-207.53 1847.27,-229.19"/>
<text text-anchor="middle" x="1537.32" y="-250.1" font-family="Times,serif" font-size="18.00">selector:</text>
<text text-anchor="middle" x="1537.32" y="-230.1" font-family="Times,serif" font-size="18.00"> pick_up(left_hand, outwardgripper, gear3)</text>
</g>
<!-- sequence:
 insert(gear3, shaft3, outwardgripper, left_hand)&#45;&gt;selector:
 pick_up(left_hand, outwardgripper, gear3) -->
<g id="edge9" class="edge">
<title>sequence:
 insert(gear3, shaft3, outwardgripper, left_hand)&#45;&gt;selector:
 pick_up(left_hand, outwardgripper, gear3)</title>
<path fill="none" stroke="black" d="M1537.32,-326.95C1537.32,-316.5 1537.32,-303.79 1537.32,-291.54"/>
<polygon fill="black" stroke="black" points="1540.82,-291.42 1537.32,-281.42 1533.82,-291.42 1540.82,-291.42"/>
</g>
<!-- action:
 insert(left_hand, outwardgripper, gear3, shaft3) -->
<g id="node16" class="node">
<title>action:
 insert(left_hand, outwardgripper, gear3, shaft3)</title>
<ellipse fill="lightgreen" stroke="black" cx="2187.32" cy="-244.5" rx="322.38" ry="33.88"/>
<text text-anchor="middle" x="2187.32" y="-250.1" font-family="Times,serif" font-size="18.00">action:</text>
<text text-anchor="middle" x="2187.32" y="-230.1" font-family="Times,serif" font-size="18.00"> insert(left_hand, outwardgripper, gear3, shaft3)</text>
</g>
<!-- sequence:
 insert(gear3, shaft3, outwardgripper, left_hand)&#45;&gt;action:
 insert(left_hand, outwardgripper, gear3, shaft3) -->
<g id="edge15" class="edge">
<title>sequence:
 insert(gear3, shaft3, outwardgripper, left_hand)&#45;&gt;action:
 insert(left_hand, outwardgripper, gear3, shaft3)</title>
<path fill="none" stroke="black" d="M1680.37,-327.14C1775.87,-311.76 1902.3,-291.4 2005,-274.86"/>
<polygon fill="black" stroke="black" points="2005.87,-278.27 2015.18,-273.22 2004.75,-271.36 2005.87,-278.27"/>
</g>
<!-- target:
 hold(left_hand, outwardgripper) -->
<g id="node5" class="node">
<title>target:
 hold(left_hand, outwardgripper)</title>
<ellipse fill="#ffec8b" stroke="black" cx="221.32" cy="-137.82" rx="221.15" ry="33.88"/>
<text text-anchor="middle" x="221.32" y="-143.42" font-family="Times,serif" font-size="18.00">target:</text>
<text text-anchor="middle" x="221.32" y="-123.42" font-family="Times,serif" font-size="18.00"> hold(left_hand, outwardgripper)</text>
</g>
<!-- selector:
 change_tool(left_hand, clampgripper, outwardgripper)&#45;&gt;target:
 hold(left_hand, outwardgripper) -->
<g id="edge4" class="edge">
<title>selector:
 change_tool(left_hand, clampgripper, outwardgripper)&#45;&gt;target:
 hold(left_hand, outwardgripper)</title>
<path fill="none" stroke="black" d="M549.06,-207.99C487.04,-194.9 417.59,-180.24 358.63,-167.8"/>
<polygon fill="black" stroke="black" points="359.02,-164.31 348.51,-165.67 357.57,-171.15 359.02,-164.31"/>
</g>
<!-- sequence:
 change_tool(left_hand, clampgripper, outwardgripper) -->
<g id="node6" class="node">
<title>sequence:
 change_tool(left_hand, clampgripper, outwardgripper)</title>
<polygon fill="#ff7f24" stroke="black" points="973.82,-161.82 460.82,-161.82 460.82,-113.82 973.82,-113.82 973.82,-161.82"/>
<text text-anchor="middle" x="717.32" y="-143.42" font-family="Times,serif" font-size="18.00">sequence:</text>
<text text-anchor="middle" x="717.32" y="-123.42" font-family="Times,serif" font-size="18.00"> change_tool(left_hand, clampgripper, outwardgripper)</text>
</g>
<!-- selector:
 change_tool(left_hand, clampgripper, outwardgripper)&#45;&gt;sequence:
 change_tool(left_hand, clampgripper, outwardgripper) -->
<g id="edge5" class="edge">
<title>selector:
 change_tool(left_hand, clampgripper, outwardgripper)&#45;&gt;sequence:
 change_tool(left_hand, clampgripper, outwardgripper)</title>
<path fill="none" stroke="black" d="M717.32,-207.48C717.32,-196.09 717.32,-183.57 717.32,-172.36"/>
<polygon fill="black" stroke="black" points="720.82,-172.11 717.32,-162.11 713.82,-172.11 720.82,-172.11"/>
</g>
<!-- precondition:
 hold(left_hand, clampgripper) -->
<g id="node7" class="node">
<title>precondition:
 hold(left_hand, clampgripper)</title>
<ellipse fill="#ffec8b" stroke="black" cx="273.32" cy="-33.94" rx="207.36" ry="33.88"/>
<text text-anchor="middle" x="273.32" y="-39.54" font-family="Times,serif" font-size="18.00">precondition:</text>
<text text-anchor="middle" x="273.32" y="-19.54" font-family="Times,serif" font-size="18.00"> hold(left_hand, clampgripper)</text>
</g>
<!-- sequence:
 change_tool(left_hand, clampgripper, outwardgripper)&#45;&gt;precondition:
 hold(left_hand, clampgripper) -->
<g id="edge6" class="edge">
<title>sequence:
 change_tool(left_hand, clampgripper, outwardgripper)&#45;&gt;precondition:
 hold(left_hand, clampgripper)</title>
<path fill="none" stroke="black" d="M616.85,-113.77C552.97,-99.11 469.68,-80 401.12,-64.27"/>
<polygon fill="black" stroke="black" points="401.64,-60.79 391.11,-61.97 400.08,-67.62 401.64,-60.79"/>
</g>
<!-- precondition:
 is_empty(clampgripper) -->
<g id="node8" class="node">
<title>precondition:
 is_empty(clampgripper)</title>
<ellipse fill="#ffec8b" stroke="black" cx="667.32" cy="-33.94" rx="169" ry="33.88"/>
<text text-anchor="middle" x="667.32" y="-39.54" font-family="Times,serif" font-size="18.00">precondition:</text>
<text text-anchor="middle" x="667.32" y="-19.54" font-family="Times,serif" font-size="18.00"> is_empty(clampgripper)</text>
</g>
<!-- sequence:
 change_tool(left_hand, clampgripper, outwardgripper)&#45;&gt;precondition:
 is_empty(clampgripper) -->
<g id="edge7" class="edge">
<title>sequence:
 change_tool(left_hand, clampgripper, outwardgripper)&#45;&gt;precondition:
 is_empty(clampgripper)</title>
<path fill="none" stroke="black" d="M705.98,-113.7C700.7,-102.94 694.24,-89.79 688.13,-77.35"/>
<polygon fill="black" stroke="black" points="691.1,-75.45 683.55,-68.01 684.82,-78.53 691.1,-75.45"/>
</g>
<!-- action:
 change_tool(left_hand, clampgripper, outwardgripper) -->
<g id="node9" class="node">
<title>action:
 change_tool(left_hand, clampgripper, outwardgripper)</title>
<ellipse fill="lightgreen" stroke="black" cx="1217.32" cy="-33.94" rx="362.99" ry="33.88"/>
<text text-anchor="middle" x="1217.32" y="-39.54" font-family="Times,serif" font-size="18.00">action:</text>
<text text-anchor="middle" x="1217.32" y="-19.54" font-family="Times,serif" font-size="18.00"> change_tool(left_hand, clampgripper, outwardgripper)</text>
</g>
<!-- sequence:
 change_tool(left_hand, clampgripper, outwardgripper)&#45;&gt;action:
 change_tool(left_hand, clampgripper, outwardgripper) -->
<g id="edge8" class="edge">
<title>sequence:
 change_tool(left_hand, clampgripper, outwardgripper)&#45;&gt;action:
 change_tool(left_hand, clampgripper, outwardgripper)</title>
<path fill="none" stroke="black" d="M830.47,-113.77C898.29,-99.95 985.54,-82.17 1060,-67"/>
<polygon fill="black" stroke="black" points="1060.85,-70.4 1069.95,-64.97 1059.46,-63.54 1060.85,-70.4"/>
</g>
<!-- target:
 hold(outwardgripper, gear3) -->
<g id="node11" class="node">
<title>target:
 hold(outwardgripper, gear3)</title>
<ellipse fill="#ffec8b" stroke="black" cx="1537.32" cy="-137.82" rx="196.65" ry="33.88"/>
<text text-anchor="middle" x="1537.32" y="-143.42" font-family="Times,serif" font-size="18.00">target:</text>
<text text-anchor="middle" x="1537.32" y="-123.42" font-family="Times,serif" font-size="18.00"> hold(outwardgripper, gear3)</text>
</g>
<!-- selector:
 pick_up(left_hand, outwardgripper, gear3)&#45;&gt;target:
 hold(outwardgripper, gear3) -->
<g id="edge10" class="edge">
<title>selector:
 pick_up(left_hand, outwardgripper, gear3)&#45;&gt;target:
 hold(outwardgripper, gear3)</title>
<path fill="none" stroke="black" d="M1537.32,-207.48C1537.32,-199.32 1537.32,-190.58 1537.32,-182.15"/>
<polygon fill="black" stroke="black" points="1540.82,-182.1 1537.32,-172.1 1533.82,-182.1 1540.82,-182.1"/>
</g>
<!-- sequence:
 pick_up(left_hand, outwardgripper, gear3) -->
<g id="node12" class="node">
<title>sequence:
 pick_up(left_hand, outwardgripper, gear3)</title>
<polygon fill="#ff7f24" stroke="black" points="2355.82,-161.82 1950.82,-161.82 1950.82,-113.82 2355.82,-113.82 2355.82,-161.82"/>
<text text-anchor="middle" x="2153.32" y="-143.42" font-family="Times,serif" font-size="18.00">sequence:</text>
<text text-anchor="middle" x="2153.32" y="-123.42" font-family="Times,serif" font-size="18.00"> pick_up(left_hand, outwardgripper, gear3)</text>
</g>
<!-- selector:
 pick_up(left_hand, outwardgripper, gear3)&#45;&gt;sequence:
 pick_up(left_hand, outwardgripper, gear3) -->
<g id="edge11" class="edge">
<title>selector:
 pick_up(left_hand, outwardgripper, gear3)&#45;&gt;sequence:
 pick_up(left_hand, outwardgripper, gear3)</title>
<path fill="none" stroke="black" d="M1714.67,-213.37C1807.59,-197.58 1919.98,-178.48 2007.73,-163.56"/>
<polygon fill="black" stroke="black" points="2008.5,-166.98 2017.77,-161.86 2007.32,-160.08 2008.5,-166.98"/>
</g>
<!-- precondition:
 is_empty(outwardgripper) -->
<g id="node13" class="node">
<title>precondition:
 is_empty(outwardgripper)</title>
<ellipse fill="#ffec8b" stroke="black" cx="1781.32" cy="-33.94" rx="183.28" ry="33.88"/>
<text text-anchor="middle" x="1781.32" y="-39.54" font-family="Times,serif" font-size="18.00">precondition:</text>
<text text-anchor="middle" x="1781.32" y="-19.54" font-family="Times,serif" font-size="18.00"> is_empty(outwardgripper)</text>
</g>
<!-- sequence:
 pick_up(left_hand, outwardgripper, gear3)&#45;&gt;precondition:
 is_empty(outwardgripper) -->
<g id="edge12" class="edge">
<title>sequence:
 pick_up(left_hand, outwardgripper, gear3)&#45;&gt;precondition:
 is_empty(outwardgripper)</title>
<path fill="none" stroke="black" d="M2068.91,-113.7C2016.33,-99.3 1948.11,-80.62 1891.32,-65.07"/>
<polygon fill="black" stroke="black" points="1892.15,-61.67 1881.58,-62.4 1890.3,-68.42 1892.15,-61.67"/>
</g>
<!-- precondition:
 hold(left_hand, outwardgripper) -->
<g id="node14" class="node">
<title>precondition:
 hold(left_hand, outwardgripper)</title>
<ellipse fill="#ffec8b" stroke="black" cx="2203.32" cy="-33.94" rx="221.15" ry="33.88"/>
<text text-anchor="middle" x="2203.32" y="-39.54" font-family="Times,serif" font-size="18.00">precondition:</text>
<text text-anchor="middle" x="2203.32" y="-19.54" font-family="Times,serif" font-size="18.00"> hold(left_hand, outwardgripper)</text>
</g>
<!-- sequence:
 pick_up(left_hand, outwardgripper, gear3)&#45;&gt;precondition:
 hold(left_hand, outwardgripper) -->
<g id="edge13" class="edge">
<title>sequence:
 pick_up(left_hand, outwardgripper, gear3)&#45;&gt;precondition:
 hold(left_hand, outwardgripper)</title>
<path fill="none" stroke="black" d="M2164.67,-113.7C2169.95,-102.94 2176.4,-89.79 2182.51,-77.35"/>
<polygon fill="black" stroke="black" points="2185.83,-78.53 2187.09,-68.01 2179.55,-75.45 2185.83,-78.53"/>
</g>
<!-- action:
 pick_up(left_hand, outwardgripper, gear3) -->
<g id="node15" class="node">
<title>action:
 pick_up(left_hand, outwardgripper, gear3)</title>
<ellipse fill="lightgreen" stroke="black" cx="2729.32" cy="-33.94" rx="286.26" ry="33.88"/>
<text text-anchor="middle" x="2729.32" y="-39.54" font-family="Times,serif" font-size="18.00">action:</text>
<text text-anchor="middle" x="2729.32" y="-19.54" font-family="Times,serif" font-size="18.00"> pick_up(left_hand, outwardgripper, gear3)</text>
</g>
<!-- sequence:
 pick_up(left_hand, outwardgripper, gear3)&#45;&gt;action:
 pick_up(left_hand, outwardgripper, gear3) -->
<g id="edge14" class="edge">
<title>sequence:
 pick_up(left_hand, outwardgripper, gear3)&#45;&gt;action:
 pick_up(left_hand, outwardgripper, gear3)</title>
<path fill="none" stroke="black" d="M2283.67,-113.77C2366.6,-99.1 2474.73,-79.97 2563.71,-64.23"/>
<polygon fill="black" stroke="black" points="2564.4,-67.67 2573.64,-62.48 2563.18,-60.77 2564.4,-67.67"/>
</g>
</g>
</svg>
