<?xml version="1.0" encoding="UTF-8" standalone="no"?>
<!DOCTYPE svg PUBLIC "-//W3C//DTD SVG 1.1//EN"
 "http://www.w3.org/Graphics/SVG/1.1/DTD/svg11.dtd">
<!-- Generated by graphviz version 2.43.0 (0)
 -->
<!-- Title: pastafarianism Pages: 1 -->
<svg width="1486pt" height="476pt"
 viewBox="0.00 0.00 1486.35 476.00" xmlns="http://www.w3.org/2000/svg" xmlns:xlink="http://www.w3.org/1999/xlink">
<g id="graph0" class="graph" transform="scale(1 1) rotate(0) translate(4 472)">
<title>pastafarianism</title>
<polygon fill="white" stroke="transparent" points="-4,4 -4,-472 1482.35,-472 1482.35,4 -4,4"/>
<!-- Sequence -->
<g id="node1" class="node">
<title>Sequence</title>
<polygon fill="orange" stroke="black" points="690.8,-468 628.8,-468 628.8,-432 690.8,-432 690.8,-468"/>
<text text-anchor="middle" x="659.8" y="-447.8" font-family="Times,serif" font-size="9.00">Sequence</text>
</g>
<!-- Fallback -->
<g id="node2" class="node">
<title>Fallback</title>
<polygon fill="cyan" stroke="black" points="379.79,-370.54 379.79,-385.46 359.3,-396 330.31,-396 309.81,-385.46 309.81,-370.54 330.31,-360 359.3,-360 379.79,-370.54"/>
<text text-anchor="middle" x="344.8" y="-375.8" font-family="Times,serif" font-size="9.00">Fallback</text>
</g>
<!-- Sequence&#45;&gt;Fallback -->
<g id="edge1" class="edge">
<title>Sequence&#45;&gt;Fallback</title>
<path fill="none" stroke="black" d="M628.74,-442.1C572.31,-429.56 452.86,-403.01 388.34,-388.67"/>
<polygon fill="black" stroke="black" points="388.99,-385.23 378.47,-386.48 387.47,-392.07 388.99,-385.23"/>
</g>
<!-- Fallback &#160;&#160; -->
<g id="node13" class="node">
<title>Fallback &#160;&#160;</title>
<polygon fill="cyan" stroke="black" points="694.79,-370.54 694.79,-385.46 674.3,-396 645.31,-396 624.81,-385.46 624.81,-370.54 645.31,-360 674.3,-360 694.79,-370.54"/>
<text text-anchor="middle" x="659.8" y="-375.8" font-family="Times,serif" font-size="9.00">Fallback</text>
</g>
<!-- Sequence&#45;&gt;Fallback &#160;&#160; -->
<g id="edge12" class="edge">
<title>Sequence&#45;&gt;Fallback &#160;&#160;</title>
<path fill="none" stroke="black" d="M659.8,-431.7C659.8,-423.98 659.8,-414.71 659.8,-406.11"/>
<polygon fill="black" stroke="black" points="663.3,-406.1 659.8,-396.1 656.3,-406.1 663.3,-406.1"/>
</g>
<!-- Fallback &#160;&#160;&#160;&#160;&#160; -->
<g id="node24" class="node">
<title>Fallback &#160;&#160;&#160;&#160;&#160;</title>
<polygon fill="cyan" stroke="black" points="1019.79,-370.54 1019.79,-385.46 999.3,-396 970.31,-396 949.81,-385.46 949.81,-370.54 970.31,-360 999.3,-360 1019.79,-370.54"/>
<text text-anchor="middle" x="984.8" y="-375.8" font-family="Times,serif" font-size="9.00">Fallback</text>
</g>
<!-- Sequence&#45;&gt;Fallback &#160;&#160;&#160;&#160;&#160; -->
<g id="edge23" class="edge">
<title>Sequence&#45;&gt;Fallback &#160;&#160;&#160;&#160;&#160;</title>
<path fill="none" stroke="black" d="M690.96,-442.29C749.14,-429.76 874.42,-402.78 941.04,-388.42"/>
<polygon fill="black" stroke="black" points="941.79,-391.85 950.82,-386.32 940.31,-385 941.79,-391.85"/>
</g>
<!-- object_at BlueBox [0.0, 0.0, 0.175] 0.02 KittingBox -->
<g id="node3" class="node">
<title>object_at BlueBox [0.0, 0.0, 0.175] 0.02 KittingBox</title>
<ellipse fill="lightgray" stroke="black" cx="147.8" cy="-306" rx="147.6" ry="18"/>
<text text-anchor="middle" x="147.8" y="-303.8" font-family="Times,serif" font-size="9.00">object_at BlueBox [0.0, 0.0, 0.175] 0.02 KittingBox</text>
</g>
<!-- Fallback&#45;&gt;object_at BlueBox [0.0, 0.0, 0.175] 0.02 KittingBox -->
<g id="edge2" class="edge">
<title>Fallback&#45;&gt;object_at BlueBox [0.0, 0.0, 0.175] 0.02 KittingBox</title>
<path fill="none" stroke="black" d="M316.58,-366.97C287.08,-356.49 240.05,-339.78 203.11,-326.65"/>
<polygon fill="black" stroke="black" points="204.07,-323.28 193.47,-323.23 201.72,-329.87 204.07,-323.28"/>
</g>
<!-- Sequence  -->
<g id="node4" class="node">
<title>Sequence </title>
<polygon fill="orange" stroke="black" points="375.8,-324 313.8,-324 313.8,-288 375.8,-288 375.8,-324"/>
<text text-anchor="middle" x="344.8" y="-303.8" font-family="Times,serif" font-size="9.00">Sequence</text>
</g>
<!-- Fallback&#45;&gt;Sequence  -->
<g id="edge3" class="edge">
<title>Fallback&#45;&gt;Sequence </title>
<path fill="none" stroke="black" d="M344.8,-359.7C344.8,-351.98 344.8,-342.71 344.8,-334.11"/>
<polygon fill="black" stroke="black" points="348.3,-334.1 344.8,-324.1 341.3,-334.1 348.3,-334.1"/>
</g>
<!-- Fallback  -->
<g id="node5" class="node">
<title>Fallback </title>
<polygon fill="cyan" stroke="black" points="194.79,-226.54 194.79,-241.46 174.3,-252 145.31,-252 124.81,-241.46 124.81,-226.54 145.31,-216 174.3,-216 194.79,-226.54"/>
<text text-anchor="middle" x="159.8" y="-231.8" font-family="Times,serif" font-size="9.00">Fallback</text>
</g>
<!-- Sequence &#45;&gt;Fallback  -->
<g id="edge4" class="edge">
<title>Sequence &#45;&gt;Fallback </title>
<path fill="none" stroke="black" d="M313.43,-291.46C310.52,-290.27 307.61,-289.1 304.8,-288 260.41,-270.67 248.48,-268.59 203.8,-252 201.45,-251.13 199.03,-250.22 196.6,-249.3"/>
<polygon fill="black" stroke="black" points="197.81,-246.02 187.22,-245.72 195.32,-252.56 197.81,-246.02"/>
</g>
<!-- place0 BlueBox [0.0, 0.0, 0.175] 0.02 KittingBox -->
<g id="node12" class="node">
<title>place0 BlueBox [0.0, 0.0, 0.175] 0.02 KittingBox</title>
<ellipse fill="lightgray" stroke="black" cx="353.8" cy="-234" rx="141.4" ry="18"/>
<text text-anchor="middle" x="353.8" y="-231.8" font-family="Times,serif" font-size="9.00">place0 BlueBox [0.0, 0.0, 0.175] 0.02 KittingBox</text>
</g>
<!-- Sequence &#45;&gt;place0 BlueBox [0.0, 0.0, 0.175] 0.02 KittingBox -->
<g id="edge11" class="edge">
<title>Sequence &#45;&gt;place0 BlueBox [0.0, 0.0, 0.175] 0.02 KittingBox</title>
<path fill="none" stroke="black" d="M347.03,-287.7C348.02,-279.98 349.21,-270.71 350.32,-262.11"/>
<polygon fill="black" stroke="black" points="353.8,-262.47 351.6,-252.1 346.86,-261.58 353.8,-262.47"/>
</g>
<!-- in_gripper BlueBox -->
<g id="node6" class="node">
<title>in_gripper BlueBox</title>
<ellipse fill="lightgray" stroke="black" cx="132.8" cy="-162" rx="61.55" ry="18"/>
<text text-anchor="middle" x="132.8" y="-159.8" font-family="Times,serif" font-size="9.00">in_gripper BlueBox</text>
</g>
<!-- Fallback &#45;&gt;in_gripper BlueBox -->
<g id="edge5" class="edge">
<title>Fallback &#45;&gt;in_gripper BlueBox</title>
<path fill="none" stroke="black" d="M153.13,-215.7C150.09,-207.81 146.42,-198.3 143.04,-189.55"/>
<polygon fill="black" stroke="black" points="146.26,-188.17 139.4,-180.1 139.73,-190.69 146.26,-188.17"/>
</g>
<!-- Sequence &#160; -->
<g id="node7" class="node">
<title>Sequence &#160;</title>
<polygon fill="orange" stroke="black" points="274.8,-180 212.8,-180 212.8,-144 274.8,-144 274.8,-180"/>
<text text-anchor="middle" x="243.8" y="-159.8" font-family="Times,serif" font-size="9.00">Sequence</text>
</g>
<!-- Fallback &#45;&gt;Sequence &#160; -->
<g id="edge6" class="edge">
<title>Fallback &#45;&gt;Sequence &#160;</title>
<path fill="none" stroke="black" d="M178.03,-217.81C188.95,-208.71 203.08,-196.94 215.44,-186.64"/>
<polygon fill="black" stroke="black" points="217.81,-189.22 223.25,-180.13 213.33,-183.84 217.81,-189.22"/>
</g>
<!-- Fallback &#160; -->
<g id="node8" class="node">
<title>Fallback &#160;</title>
<polygon fill="cyan" stroke="black" points="260.79,-82.54 260.79,-97.46 240.3,-108 211.31,-108 190.81,-97.46 190.81,-82.54 211.31,-72 240.3,-72 260.79,-82.54"/>
<text text-anchor="middle" x="225.8" y="-87.8" font-family="Times,serif" font-size="9.00">Fallback</text>
</g>
<!-- Sequence &#160;&#45;&gt;Fallback &#160; -->
<g id="edge7" class="edge">
<title>Sequence &#160;&#45;&gt;Fallback &#160;</title>
<path fill="none" stroke="black" d="M239.35,-143.7C237.35,-135.9 234.93,-126.51 232.7,-117.83"/>
<polygon fill="black" stroke="black" points="236.08,-116.92 230.2,-108.1 229.3,-118.66 236.08,-116.92"/>
</g>
<!-- pick0 BlueBox -->
<g id="node11" class="node">
<title>pick0 BlueBox</title>
<ellipse fill="lightgray" stroke="black" cx="326.8" cy="-90" rx="47.84" ry="18"/>
<text text-anchor="middle" x="326.8" y="-87.8" font-family="Times,serif" font-size="9.00">pick0 BlueBox</text>
</g>
<!-- Sequence &#160;&#45;&gt;pick0 BlueBox -->
<g id="edge10" class="edge">
<title>Sequence &#160;&#45;&gt;pick0 BlueBox</title>
<path fill="none" stroke="black" d="M264.32,-143.7C275.24,-134.49 288.79,-123.06 300.48,-113.2"/>
<polygon fill="black" stroke="black" points="302.83,-115.79 308.22,-106.67 298.32,-110.44 302.83,-115.79"/>
</g>
<!-- gripper_state open -->
<g id="node9" class="node">
<title>gripper_state open</title>
<ellipse fill="lightgray" stroke="black" cx="142.8" cy="-18" rx="60.09" ry="18"/>
<text text-anchor="middle" x="142.8" y="-15.8" font-family="Times,serif" font-size="9.00">gripper_state open</text>
</g>
<!-- Fallback &#160;&#45;&gt;gripper_state open -->
<g id="edge8" class="edge">
<title>Fallback &#160;&#45;&gt;gripper_state open</title>
<path fill="none" stroke="black" d="M207.38,-73.46C196.33,-64.15 182.09,-52.13 169.78,-41.76"/>
<polygon fill="black" stroke="black" points="171.94,-38.99 162.04,-35.22 167.42,-44.34 171.94,-38.99"/>
</g>
<!-- open_gripper -->
<g id="node10" class="node">
<title>open_gripper</title>
<ellipse fill="lightgray" stroke="black" cx="266.8" cy="-18" rx="45.72" ry="18"/>
<text text-anchor="middle" x="266.8" y="-15.8" font-family="Times,serif" font-size="9.00">open_gripper</text>
</g>
<!-- Fallback &#160;&#45;&gt;open_gripper -->
<g id="edge9" class="edge">
<title>Fallback &#160;&#45;&gt;open_gripper</title>
<path fill="none" stroke="black" d="M235.94,-71.7C240.77,-63.44 246.66,-53.39 251.98,-44.3"/>
<polygon fill="black" stroke="black" points="255.03,-46.02 257.07,-35.62 248.99,-42.48 255.03,-46.02"/>
</g>
<!-- object_at YellowBox [&#45;0.133, 0.0, 0.175] 0.02 KittingBox -->
<g id="node14" class="node">
<title>object_at YellowBox [&#45;0.133, 0.0, 0.175] 0.02 KittingBox</title>
<ellipse fill="lightgray" stroke="black" cx="554.8" cy="-306" rx="161.16" ry="18"/>
<text text-anchor="middle" x="554.8" y="-303.8" font-family="Times,serif" font-size="9.00">object_at YellowBox [&#45;0.133, 0.0, 0.175] 0.02 KittingBox</text>
</g>
<!-- Fallback &#160;&#160;&#45;&gt;object_at YellowBox [&#45;0.133, 0.0, 0.175] 0.02 KittingBox -->
<g id="edge13" class="edge">
<title>Fallback &#160;&#160;&#45;&gt;object_at YellowBox [&#45;0.133, 0.0, 0.175] 0.02 KittingBox</title>
<path fill="none" stroke="black" d="M639.06,-363.17C624.7,-353.6 605.28,-340.65 588.7,-329.6"/>
<polygon fill="black" stroke="black" points="590.59,-326.65 580.33,-324.02 586.71,-332.48 590.59,-326.65"/>
</g>
<!-- Sequence &#160;&#160; -->
<g id="node15" class="node">
<title>Sequence &#160;&#160;</title>
<polygon fill="orange" stroke="black" points="795.8,-324 733.8,-324 733.8,-288 795.8,-288 795.8,-324"/>
<text text-anchor="middle" x="764.8" y="-303.8" font-family="Times,serif" font-size="9.00">Sequence</text>
</g>
<!-- Fallback &#160;&#160;&#45;&gt;Sequence &#160;&#160; -->
<g id="edge14" class="edge">
<title>Fallback &#160;&#160;&#45;&gt;Sequence &#160;&#160;</title>
<path fill="none" stroke="black" d="M680.55,-363.17C694.9,-353.6 714.32,-340.65 730.9,-329.6"/>
<polygon fill="black" stroke="black" points="732.89,-332.48 739.27,-324.02 729.01,-326.65 732.89,-332.48"/>
</g>
<!-- Fallback &#160;&#160;&#160; -->
<g id="node16" class="node">
<title>Fallback &#160;&#160;&#160;</title>
<polygon fill="cyan" stroke="black" points="598.79,-226.54 598.79,-241.46 578.3,-252 549.31,-252 528.81,-241.46 528.81,-226.54 549.31,-216 578.3,-216 598.79,-226.54"/>
<text text-anchor="middle" x="563.8" y="-231.8" font-family="Times,serif" font-size="9.00">Fallback</text>
</g>
<!-- Sequence &#160;&#160;&#45;&gt;Fallback &#160;&#160;&#160; -->
<g id="edge15" class="edge">
<title>Sequence &#160;&#160;&#45;&gt;Fallback &#160;&#160;&#160;</title>
<path fill="none" stroke="black" d="M733.48,-291.33C730.56,-290.16 727.64,-289.04 724.8,-288 673.7,-269.33 659.21,-269.81 607.8,-252 605.28,-251.13 602.68,-250.2 600.07,-249.24"/>
<polygon fill="black" stroke="black" points="601.28,-245.96 590.68,-245.73 598.82,-252.51 601.28,-245.96"/>
</g>
<!-- place0 YellowBox [&#45;0.133, 0.0, 0.175] 0.02 KittingBox -->
<g id="node23" class="node">
<title>place0 YellowBox [&#45;0.133, 0.0, 0.175] 0.02 KittingBox</title>
<ellipse fill="lightgray" stroke="black" cx="771.8" cy="-234" rx="154.96" ry="18"/>
<text text-anchor="middle" x="771.8" y="-231.8" font-family="Times,serif" font-size="9.00">place0 YellowBox [&#45;0.133, 0.0, 0.175] 0.02 KittingBox</text>
</g>
<!-- Sequence &#160;&#160;&#45;&gt;place0 YellowBox [&#45;0.133, 0.0, 0.175] 0.02 KittingBox -->
<g id="edge22" class="edge">
<title>Sequence &#160;&#160;&#45;&gt;place0 YellowBox [&#45;0.133, 0.0, 0.175] 0.02 KittingBox</title>
<path fill="none" stroke="black" d="M766.53,-287.7C767.3,-279.98 768.23,-270.71 769.09,-262.11"/>
<polygon fill="black" stroke="black" points="772.58,-262.4 770.09,-252.1 765.61,-261.71 772.58,-262.4"/>
</g>
<!-- in_gripper YellowBox -->
<g id="node17" class="node">
<title>in_gripper YellowBox</title>
<ellipse fill="lightgray" stroke="black" cx="454.8" cy="-162" rx="66.29" ry="18"/>
<text text-anchor="middle" x="454.8" y="-159.8" font-family="Times,serif" font-size="9.00">in_gripper YellowBox</text>
</g>
<!-- Fallback &#160;&#160;&#160;&#45;&gt;in_gripper YellowBox -->
<g id="edge16" class="edge">
<title>Fallback &#160;&#160;&#160;&#45;&gt;in_gripper YellowBox</title>
<path fill="none" stroke="black" d="M542.53,-219.34C527.12,-209.44 505.99,-195.87 488.32,-184.53"/>
<polygon fill="black" stroke="black" points="489.76,-181.29 479.45,-178.83 485.98,-187.18 489.76,-181.29"/>
</g>
<!-- Sequence &#160;&#160;&#160; -->
<g id="node18" class="node">
<title>Sequence &#160;&#160;&#160;</title>
<polygon fill="orange" stroke="black" points="600.8,-180 538.8,-180 538.8,-144 600.8,-144 600.8,-180"/>
<text text-anchor="middle" x="569.8" y="-159.8" font-family="Times,serif" font-size="9.00">Sequence</text>
</g>
<!-- Fallback &#160;&#160;&#160;&#45;&gt;Sequence &#160;&#160;&#160; -->
<g id="edge17" class="edge">
<title>Fallback &#160;&#160;&#160;&#45;&gt;Sequence &#160;&#160;&#160;</title>
<path fill="none" stroke="black" d="M565.28,-215.7C565.95,-207.98 566.74,-198.71 567.48,-190.11"/>
<polygon fill="black" stroke="black" points="570.97,-190.37 568.34,-180.1 563.99,-189.77 570.97,-190.37"/>
</g>
<!-- Fallback &#160;&#160;&#160;&#160; -->
<g id="node19" class="node">
<title>Fallback &#160;&#160;&#160;&#160;</title>
<polygon fill="cyan" stroke="black" points="504.79,-82.54 504.79,-97.46 484.3,-108 455.31,-108 434.81,-97.46 434.81,-82.54 455.31,-72 484.3,-72 504.79,-82.54"/>
<text text-anchor="middle" x="469.8" y="-87.8" font-family="Times,serif" font-size="9.00">Fallback</text>
</g>
<!-- Sequence &#160;&#160;&#160;&#45;&gt;Fallback &#160;&#160;&#160;&#160; -->
<g id="edge18" class="edge">
<title>Sequence &#160;&#160;&#160;&#45;&gt;Fallback &#160;&#160;&#160;&#160;</title>
<path fill="none" stroke="black" d="M545.34,-143.88C531.13,-133.93 513.16,-121.35 498.31,-110.95"/>
<polygon fill="black" stroke="black" points="500.18,-107.99 489.98,-105.12 496.16,-113.72 500.18,-107.99"/>
</g>
<!-- pick0 YellowBox -->
<g id="node22" class="node">
<title>pick0 YellowBox</title>
<ellipse fill="lightgray" stroke="black" cx="575.8" cy="-90" rx="53.23" ry="18"/>
<text text-anchor="middle" x="575.8" y="-87.8" font-family="Times,serif" font-size="9.00">pick0 YellowBox</text>
</g>
<!-- Sequence &#160;&#160;&#160;&#45;&gt;pick0 YellowBox -->
<g id="edge21" class="edge">
<title>Sequence &#160;&#160;&#160;&#45;&gt;pick0 YellowBox</title>
<path fill="none" stroke="black" d="M571.28,-143.7C571.95,-135.98 572.74,-126.71 573.48,-118.11"/>
<polygon fill="black" stroke="black" points="576.97,-118.37 574.34,-108.1 569.99,-117.77 576.97,-118.37"/>
</g>
<!-- gripper_state open  -->
<g id="node20" class="node">
<title>gripper_state open </title>
<ellipse fill="lightgray" stroke="black" cx="429.8" cy="-18" rx="60.09" ry="18"/>
<text text-anchor="middle" x="429.8" y="-15.8" font-family="Times,serif" font-size="9.00">gripper_state open</text>
</g>
<!-- Fallback &#160;&#160;&#160;&#160;&#45;&gt;gripper_state open  -->
<g id="edge19" class="edge">
<title>Fallback &#160;&#160;&#160;&#160;&#45;&gt;gripper_state open </title>
<path fill="none" stroke="black" d="M459.91,-71.7C455.31,-63.64 449.74,-53.89 444.65,-44.98"/>
<polygon fill="black" stroke="black" points="447.58,-43.05 439.58,-36.1 441.5,-46.52 447.58,-43.05"/>
</g>
<!-- open_gripper  -->
<g id="node21" class="node">
<title>open_gripper </title>
<ellipse fill="lightgray" stroke="black" cx="553.8" cy="-18" rx="45.72" ry="18"/>
<text text-anchor="middle" x="553.8" y="-15.8" font-family="Times,serif" font-size="9.00">open_gripper</text>
</g>
<!-- Fallback &#160;&#160;&#160;&#160;&#45;&gt;open_gripper  -->
<g id="edge20" class="edge">
<title>Fallback &#160;&#160;&#160;&#160;&#45;&gt;open_gripper </title>
<path fill="none" stroke="black" d="M488.03,-73.81C499.43,-64.31 514.31,-51.91 527.04,-41.3"/>
<polygon fill="black" stroke="black" points="529.59,-43.73 535.03,-34.64 525.11,-38.36 529.59,-43.73"/>
</g>
<!-- object_at GreenBox [&#45;0.062, 0.002, 0.277] 0.007 KittingBox -->
<g id="node25" class="node">
<title>object_at GreenBox [&#45;0.062, 0.002, 0.277] 0.007 KittingBox</title>
<ellipse fill="lightgray" stroke="black" cx="984.8" cy="-306" rx="170.79" ry="18"/>
<text text-anchor="middle" x="984.8" y="-303.8" font-family="Times,serif" font-size="9.00">object_at GreenBox [&#45;0.062, 0.002, 0.277] 0.007 KittingBox</text>
</g>
<!-- Fallback &#160;&#160;&#160;&#160;&#160;&#45;&gt;object_at GreenBox [&#45;0.062, 0.002, 0.277] 0.007 KittingBox -->
<g id="edge24" class="edge">
<title>Fallback &#160;&#160;&#160;&#160;&#160;&#45;&gt;object_at GreenBox [&#45;0.062, 0.002, 0.277] 0.007 KittingBox</title>
<path fill="none" stroke="black" d="M984.8,-359.7C984.8,-351.98 984.8,-342.71 984.8,-334.11"/>
<polygon fill="black" stroke="black" points="988.3,-334.1 984.8,-324.1 981.3,-334.1 988.3,-334.1"/>
</g>
<!-- Sequence &#160;&#160;&#160;&#160; -->
<g id="node26" class="node">
<title>Sequence &#160;&#160;&#160;&#160;</title>
<polygon fill="orange" stroke="black" points="1235.8,-324 1173.8,-324 1173.8,-288 1235.8,-288 1235.8,-324"/>
<text text-anchor="middle" x="1204.8" y="-303.8" font-family="Times,serif" font-size="9.00">Sequence</text>
</g>
<!-- Fallback &#160;&#160;&#160;&#160;&#160;&#45;&gt;Sequence &#160;&#160;&#160;&#160; -->
<g id="edge25" class="edge">
<title>Fallback &#160;&#160;&#160;&#160;&#160;&#45;&gt;Sequence &#160;&#160;&#160;&#160;</title>
<path fill="none" stroke="black" d="M1016.7,-368.81C1051.05,-359.72 1107.4,-344.06 1164.04,-324.09"/>
<polygon fill="black" stroke="black" points="1165.25,-327.37 1173.49,-320.71 1162.9,-320.78 1165.25,-327.37"/>
</g>
<!-- Fallback &#160;&#160;&#160;&#160;&#160;&#160; -->
<g id="node27" class="node">
<title>Fallback &#160;&#160;&#160;&#160;&#160;&#160;</title>
<polygon fill="cyan" stroke="black" points="1130.79,-226.54 1130.79,-241.46 1110.3,-252 1081.31,-252 1060.81,-241.46 1060.81,-226.54 1081.31,-216 1110.3,-216 1130.79,-226.54"/>
<text text-anchor="middle" x="1095.8" y="-231.8" font-family="Times,serif" font-size="9.00">Fallback</text>
</g>
<!-- Sequence &#160;&#160;&#160;&#160;&#45;&gt;Fallback &#160;&#160;&#160;&#160;&#160;&#160; -->
<g id="edge26" class="edge">
<title>Sequence &#160;&#160;&#160;&#160;&#45;&gt;Fallback &#160;&#160;&#160;&#160;&#160;&#160;</title>
<path fill="none" stroke="black" d="M1178.14,-287.88C1162.29,-277.7 1142.15,-264.77 1125.76,-254.24"/>
<polygon fill="black" stroke="black" points="1127.39,-251.13 1117.09,-248.67 1123.61,-257.02 1127.39,-251.13"/>
</g>
<!-- place0 GreenBox [&#45;0.062, 0.002, 0.277] 0.007 KittingBox -->
<g id="node34" class="node">
<title>place0 GreenBox [&#45;0.062, 0.002, 0.277] 0.007 KittingBox</title>
<ellipse fill="lightgray" stroke="black" cx="1313.8" cy="-234" rx="164.59" ry="18"/>
<text text-anchor="middle" x="1313.8" y="-231.8" font-family="Times,serif" font-size="9.00">place0 GreenBox [&#45;0.062, 0.002, 0.277] 0.007 KittingBox</text>
</g>
<!-- Sequence &#160;&#160;&#160;&#160;&#45;&gt;place0 GreenBox [&#45;0.062, 0.002, 0.277] 0.007 KittingBox -->
<g id="edge33" class="edge">
<title>Sequence &#160;&#160;&#160;&#160;&#45;&gt;place0 GreenBox [&#45;0.062, 0.002, 0.277] 0.007 KittingBox</title>
<path fill="none" stroke="black" d="M1231.47,-287.88C1245.69,-278.74 1263.37,-267.38 1278.7,-257.54"/>
<polygon fill="black" stroke="black" points="1280.89,-260.3 1287.41,-251.95 1277.11,-254.41 1280.89,-260.3"/>
</g>
<!-- in_gripper GreenBox -->
<g id="node28" class="node">
<title>in_gripper GreenBox</title>
<ellipse fill="lightgray" stroke="black" cx="1037.8" cy="-162" rx="65.64" ry="18"/>
<text text-anchor="middle" x="1037.8" y="-159.8" font-family="Times,serif" font-size="9.00">in_gripper GreenBox</text>
</g>
<!-- Fallback &#160;&#160;&#160;&#160;&#160;&#160;&#45;&gt;in_gripper GreenBox -->
<g id="edge27" class="edge">
<title>Fallback &#160;&#160;&#160;&#160;&#160;&#160;&#45;&gt;in_gripper GreenBox</title>
<path fill="none" stroke="black" d="M1081.46,-215.7C1074.41,-207.18 1065.78,-196.76 1058.06,-187.45"/>
<polygon fill="black" stroke="black" points="1060.65,-185.09 1051.57,-179.62 1055.26,-189.56 1060.65,-185.09"/>
</g>
<!-- Sequence &#160;&#160;&#160;&#160;&#160; -->
<g id="node29" class="node">
<title>Sequence &#160;&#160;&#160;&#160;&#160;</title>
<polygon fill="orange" stroke="black" points="1183.8,-180 1121.8,-180 1121.8,-144 1183.8,-144 1183.8,-180"/>
<text text-anchor="middle" x="1152.8" y="-159.8" font-family="Times,serif" font-size="9.00">Sequence</text>
</g>
<!-- Fallback &#160;&#160;&#160;&#160;&#160;&#160;&#45;&gt;Sequence &#160;&#160;&#160;&#160;&#160; -->
<g id="edge28" class="edge">
<title>Fallback &#160;&#160;&#160;&#160;&#160;&#160;&#45;&gt;Sequence &#160;&#160;&#160;&#160;&#160;</title>
<path fill="none" stroke="black" d="M1109.89,-215.7C1116.73,-207.3 1125.06,-197.07 1132.56,-187.86"/>
<polygon fill="black" stroke="black" points="1135.27,-190.07 1138.87,-180.1 1129.85,-185.65 1135.27,-190.07"/>
</g>
<!-- Fallback &#160;&#160;&#160;&#160;&#160;&#160;&#160; -->
<g id="node30" class="node">
<title>Fallback &#160;&#160;&#160;&#160;&#160;&#160;&#160;</title>
<polygon fill="cyan" stroke="black" points="1134.79,-82.54 1134.79,-97.46 1114.3,-108 1085.31,-108 1064.81,-97.46 1064.81,-82.54 1085.31,-72 1114.3,-72 1134.79,-82.54"/>
<text text-anchor="middle" x="1099.8" y="-87.8" font-family="Times,serif" font-size="9.00">Fallback</text>
</g>
<!-- Sequence &#160;&#160;&#160;&#160;&#160;&#45;&gt;Fallback &#160;&#160;&#160;&#160;&#160;&#160;&#160; -->
<g id="edge29" class="edge">
<title>Sequence &#160;&#160;&#160;&#160;&#160;&#45;&gt;Fallback &#160;&#160;&#160;&#160;&#160;&#160;&#160;</title>
<path fill="none" stroke="black" d="M1139.7,-143.7C1133.41,-135.39 1125.75,-125.28 1118.84,-116.14"/>
<polygon fill="black" stroke="black" points="1121.58,-113.96 1112.75,-108.1 1116,-118.19 1121.58,-113.96"/>
</g>
<!-- pick0 GreenBox -->
<g id="node33" class="node">
<title>pick0 GreenBox</title>
<ellipse fill="lightgray" stroke="black" cx="1205.8" cy="-90" rx="52.58" ry="18"/>
<text text-anchor="middle" x="1205.8" y="-87.8" font-family="Times,serif" font-size="9.00">pick0 GreenBox</text>
</g>
<!-- Sequence &#160;&#160;&#160;&#160;&#160;&#45;&gt;pick0 GreenBox -->
<g id="edge32" class="edge">
<title>Sequence &#160;&#160;&#160;&#160;&#160;&#45;&gt;pick0 GreenBox</title>
<path fill="none" stroke="black" d="M1165.9,-143.7C1172.29,-135.27 1180.08,-124.97 1187.08,-115.73"/>
<polygon fill="black" stroke="black" points="1189.97,-117.71 1193.22,-107.62 1184.39,-113.48 1189.97,-117.71"/>
</g>
<!-- gripper_state open &#160; -->
<g id="node31" class="node">
<title>gripper_state open &#160;</title>
<ellipse fill="lightgray" stroke="black" cx="1037.8" cy="-18" rx="60.09" ry="18"/>
<text text-anchor="middle" x="1037.8" y="-15.8" font-family="Times,serif" font-size="9.00">gripper_state open</text>
</g>
<!-- Fallback &#160;&#160;&#160;&#160;&#160;&#160;&#160;&#45;&gt;gripper_state open &#160; -->
<g id="edge30" class="edge">
<title>Fallback &#160;&#160;&#160;&#160;&#160;&#160;&#160;&#45;&gt;gripper_state open &#160;</title>
<path fill="none" stroke="black" d="M1084.79,-72.05C1077.18,-63.46 1067.79,-52.86 1059.41,-43.4"/>
<polygon fill="black" stroke="black" points="1061.92,-40.95 1052.67,-35.79 1056.68,-45.6 1061.92,-40.95"/>
</g>
<!-- open_gripper &#160; -->
<g id="node32" class="node">
<title>open_gripper &#160;</title>
<ellipse fill="lightgray" stroke="black" cx="1161.8" cy="-18" rx="45.72" ry="18"/>
<text text-anchor="middle" x="1161.8" y="-15.8" font-family="Times,serif" font-size="9.00">open_gripper</text>
</g>
<!-- Fallback &#160;&#160;&#160;&#160;&#160;&#160;&#160;&#45;&gt;open_gripper &#160; -->
<g id="edge31" class="edge">
<title>Fallback &#160;&#160;&#160;&#160;&#160;&#160;&#160;&#45;&gt;open_gripper &#160;</title>
<path fill="none" stroke="black" d="M1114.81,-72.05C1122.54,-63.33 1132.09,-52.54 1140.56,-42.98"/>
<polygon fill="black" stroke="black" points="1143.35,-45.11 1147.36,-35.31 1138.11,-40.47 1143.35,-45.11"/>
</g>
</g>
</svg>
