<?xml version="1.0" encoding="UTF-8" standalone="no"?>
<!DOCTYPE svg PUBLIC "-//W3C//DTD SVG 1.1//EN"
 "http://www.w3.org/Graphics/SVG/1.1/DTD/svg11.dtd">
<!-- Generated by graphviz version 2.43.0 (0)
 -->
<!-- Title: pastafarianism Pages: 1 -->
<svg width="2999pt" height="503pt"
 viewBox="0.00 0.00 2999.22 502.60" xmlns="http://www.w3.org/2000/svg" xmlns:xlink="http://www.w3.org/1999/xlink">
<g id="graph0" class="graph" transform="scale(1 1) rotate(0) translate(4 498.6)">
<title>pastafarianism</title>
<polygon fill="white" stroke="transparent" points="-4,4 -4,-498.6 2995.22,-498.6 2995.22,4 -4,4"/>
<!-- selector:
 insert(gear1, shaft1, parallelgripper, left_hand) -->
<g id="node1" class="node">
<title>selector:
 insert(gear1, shaft1, parallelgripper, left_hand)</title>
<polygon fill="#8deeee" stroke="black" points="1652.41,-442.54 1652.41,-473.18 1450.71,-494.84 1165.46,-494.84 963.75,-473.18 963.75,-442.54 1165.46,-420.88 1450.71,-420.88 1652.41,-442.54"/>
<text text-anchor="middle" x="1308.08" y="-463.46" font-family="Times,serif" font-size="18.00">selector:</text>
<text text-anchor="middle" x="1308.08" y="-443.46" font-family="Times,serif" font-size="18.00"> insert(gear1, shaft1, parallelgripper, left_hand)</text>
</g>
<!-- target:
 is_inserted_to(gear1, shaft1) -->
<g id="node2" class="node">
<title>target:
 is_inserted_to(gear1, shaft1)</title>
<ellipse fill="#ffec8b" stroke="black" cx="1087.08" cy="-351.18" rx="198.89" ry="33.88"/>
<text text-anchor="middle" x="1087.08" y="-356.78" font-family="Times,serif" font-size="18.00">target:</text>
<text text-anchor="middle" x="1087.08" y="-336.78" font-family="Times,serif" font-size="18.00"> is_inserted_to(gear1, shaft1)</text>
</g>
<!-- selector:
 insert(gear1, shaft1, parallelgripper, left_hand)&#45;&gt;target:
 is_inserted_to(gear1, shaft1) -->
<g id="edge1" class="edge">
<title>selector:
 insert(gear1, shaft1, parallelgripper, left_hand)&#45;&gt;target:
 is_inserted_to(gear1, shaft1)</title>
<path fill="none" stroke="black" d="M1232.34,-420.98C1209.6,-410.21 1184.68,-398.41 1162.01,-387.67"/>
<polygon fill="black" stroke="black" points="1163.31,-384.41 1152.77,-383.29 1160.31,-390.74 1163.31,-384.41"/>
</g>
<!-- sequence:
 insert(gear1, shaft1, parallelgripper, left_hand) -->
<g id="node3" class="node">
<title>sequence:
 insert(gear1, shaft1, parallelgripper, left_hand)</title>
<polygon fill="#ff7f24" stroke="black" points="1754.08,-375.18 1304.08,-375.18 1304.08,-327.18 1754.08,-327.18 1754.08,-375.18"/>
<text text-anchor="middle" x="1529.08" y="-356.78" font-family="Times,serif" font-size="18.00">sequence:</text>
<text text-anchor="middle" x="1529.08" y="-336.78" font-family="Times,serif" font-size="18.00"> insert(gear1, shaft1, parallelgripper, left_hand)</text>
</g>
<!-- selector:
 insert(gear1, shaft1, parallelgripper, left_hand)&#45;&gt;sequence:
 insert(gear1, shaft1, parallelgripper, left_hand) -->
<g id="edge2" class="edge">
<title>selector:
 insert(gear1, shaft1, parallelgripper, left_hand)&#45;&gt;sequence:
 insert(gear1, shaft1, parallelgripper, left_hand)</title>
<path fill="none" stroke="black" d="M1383.83,-420.98C1412.44,-407.43 1444.52,-392.24 1471.23,-379.58"/>
<polygon fill="black" stroke="black" points="1472.91,-382.66 1480.45,-375.22 1469.91,-376.34 1472.91,-382.66"/>
</g>
<!-- selector:
 change_tool(left_hand, inwardgripper, parallelgripper) -->
<g id="node4" class="node">
<title>selector:
 change_tool(left_hand, inwardgripper, parallelgripper)</title>
<polygon fill="#8deeee" stroke="black" points="1104.41,-229.19 1104.41,-259.82 873.42,-281.48 546.75,-281.48 315.75,-259.82 315.75,-229.19 546.75,-207.53 873.42,-207.53 1104.41,-229.19"/>
<text text-anchor="middle" x="710.08" y="-250.1" font-family="Times,serif" font-size="18.00">selector:</text>
<text text-anchor="middle" x="710.08" y="-230.1" font-family="Times,serif" font-size="18.00"> change_tool(left_hand, inwardgripper, parallelgripper)</text>
</g>
<!-- sequence:
 insert(gear1, shaft1, parallelgripper, left_hand)&#45;&gt;selector:
 change_tool(left_hand, inwardgripper, parallelgripper) -->
<g id="edge3" class="edge">
<title>sequence:
 insert(gear1, shaft1, parallelgripper, left_hand)&#45;&gt;selector:
 change_tool(left_hand, inwardgripper, parallelgripper)</title>
<path fill="none" stroke="black" d="M1368.33,-327.17C1343.8,-323.77 1318.77,-320.36 1295.08,-317.24 1185.87,-302.86 1065.06,-287.89 961.72,-275.36"/>
<polygon fill="black" stroke="black" points="962.12,-271.89 951.78,-274.16 961.28,-278.84 962.12,-271.89"/>
</g>
<!-- selector:
 pick_up(left_hand, parallelgripper, gear1) -->
<g id="node10" class="node">
<title>selector:
 pick_up(left_hand, parallelgripper, gear1)</title>
<polygon fill="#8deeee" stroke="black" points="1834.34,-229.19 1834.34,-259.82 1655.53,-281.48 1402.64,-281.48 1223.82,-259.82 1223.82,-229.19 1402.64,-207.53 1655.53,-207.53 1834.34,-229.19"/>
<text text-anchor="middle" x="1529.08" y="-250.1" font-family="Times,serif" font-size="18.00">selector:</text>
<text text-anchor="middle" x="1529.08" y="-230.1" font-family="Times,serif" font-size="18.00"> pick_up(left_hand, parallelgripper, gear1)</text>
</g>
<!-- sequence:
 insert(gear1, shaft1, parallelgripper, left_hand)&#45;&gt;selector:
 pick_up(left_hand, parallelgripper, gear1) -->
<g id="edge9" class="edge">
<title>sequence:
 insert(gear1, shaft1, parallelgripper, left_hand)&#45;&gt;selector:
 pick_up(left_hand, parallelgripper, gear1)</title>
<path fill="none" stroke="black" d="M1529.08,-326.95C1529.08,-316.5 1529.08,-303.79 1529.08,-291.54"/>
<polygon fill="black" stroke="black" points="1532.58,-291.42 1529.08,-281.42 1525.58,-291.42 1532.58,-291.42"/>
</g>
<!-- action:
 insert(left_hand, parallelgripper, gear1, shaft1) -->
<g id="node16" class="node">
<title>action:
 insert(left_hand, parallelgripper, gear1, shaft1)</title>
<ellipse fill="lightgreen" stroke="black" cx="2171.08" cy="-244.5" rx="318.4" ry="33.88"/>
<text text-anchor="middle" x="2171.08" y="-250.1" font-family="Times,serif" font-size="18.00">action:</text>
<text text-anchor="middle" x="2171.08" y="-230.1" font-family="Times,serif" font-size="18.00"> insert(left_hand, parallelgripper, gear1, shaft1)</text>
</g>
<!-- sequence:
 insert(gear1, shaft1, parallelgripper, left_hand)&#45;&gt;action:
 insert(left_hand, parallelgripper, gear1, shaft1) -->
<g id="edge15" class="edge">
<title>sequence:
 insert(gear1, shaft1, parallelgripper, left_hand)&#45;&gt;action:
 insert(left_hand, parallelgripper, gear1, shaft1)</title>
<path fill="none" stroke="black" d="M1670.37,-327.14C1764.69,-311.76 1889.56,-291.4 1991,-274.86"/>
<polygon fill="black" stroke="black" points="1991.75,-278.29 2001.06,-273.22 1990.63,-271.38 1991.75,-278.29"/>
</g>
<!-- target:
 hold(left_hand, parallelgripper) -->
<g id="node5" class="node">
<title>target:
 hold(left_hand, parallelgripper)</title>
<ellipse fill="#ffec8b" stroke="black" cx="217.08" cy="-137.82" rx="217.16" ry="33.88"/>
<text text-anchor="middle" x="217.08" y="-143.42" font-family="Times,serif" font-size="18.00">target:</text>
<text text-anchor="middle" x="217.08" y="-123.42" font-family="Times,serif" font-size="18.00"> hold(left_hand, parallelgripper)</text>
</g>
<!-- selector:
 change_tool(left_hand, inwardgripper, parallelgripper)&#45;&gt;target:
 hold(left_hand, parallelgripper) -->
<g id="edge4" class="edge">
<title>selector:
 change_tool(left_hand, inwardgripper, parallelgripper)&#45;&gt;target:
 hold(left_hand, parallelgripper)</title>
<path fill="none" stroke="black" d="M542.49,-207.92C480.74,-194.81 411.61,-180.13 353,-167.68"/>
<polygon fill="black" stroke="black" points="353.44,-164.2 342.93,-165.55 351.99,-171.05 353.44,-164.2"/>
</g>
<!-- sequence:
 change_tool(left_hand, inwardgripper, parallelgripper) -->
<g id="node6" class="node">
<title>sequence:
 change_tool(left_hand, inwardgripper, parallelgripper)</title>
<polygon fill="#ff7f24" stroke="black" points="967.58,-161.82 452.58,-161.82 452.58,-113.82 967.58,-113.82 967.58,-161.82"/>
<text text-anchor="middle" x="710.08" y="-143.42" font-family="Times,serif" font-size="18.00">sequence:</text>
<text text-anchor="middle" x="710.08" y="-123.42" font-family="Times,serif" font-size="18.00"> change_tool(left_hand, inwardgripper, parallelgripper)</text>
</g>
<!-- selector:
 change_tool(left_hand, inwardgripper, parallelgripper)&#45;&gt;sequence:
 change_tool(left_hand, inwardgripper, parallelgripper) -->
<g id="edge5" class="edge">
<title>selector:
 change_tool(left_hand, inwardgripper, parallelgripper)&#45;&gt;sequence:
 change_tool(left_hand, inwardgripper, parallelgripper)</title>
<path fill="none" stroke="black" d="M710.08,-207.48C710.08,-196.09 710.08,-183.57 710.08,-172.36"/>
<polygon fill="black" stroke="black" points="713.58,-172.11 710.08,-162.11 706.58,-172.11 713.58,-172.11"/>
</g>
<!-- precondition:
 hold(left_hand, inwardgripper) -->
<g id="node7" class="node">
<title>precondition:
 hold(left_hand, inwardgripper)</title>
<ellipse fill="#ffec8b" stroke="black" cx="255.08" cy="-33.94" rx="212.68" ry="33.88"/>
<text text-anchor="middle" x="255.08" y="-39.54" font-family="Times,serif" font-size="18.00">precondition:</text>
<text text-anchor="middle" x="255.08" y="-19.54" font-family="Times,serif" font-size="18.00"> hold(left_hand, inwardgripper)</text>
</g>
<!-- sequence:
 change_tool(left_hand, inwardgripper, parallelgripper)&#45;&gt;precondition:
 hold(left_hand, inwardgripper) -->
<g id="edge6" class="edge">
<title>sequence:
 change_tool(left_hand, inwardgripper, parallelgripper)&#45;&gt;precondition:
 hold(left_hand, inwardgripper)</title>
<path fill="none" stroke="black" d="M607.12,-113.77C541.52,-99.08 455.96,-79.92 385.61,-64.17"/>
<polygon fill="black" stroke="black" points="386.31,-60.74 375.79,-61.97 384.78,-67.57 386.31,-60.74"/>
</g>
<!-- precondition:
 is_empty(inwardgripper) -->
<g id="node8" class="node">
<title>precondition:
 is_empty(inwardgripper)</title>
<ellipse fill="#ffec8b" stroke="black" cx="660.08" cy="-33.94" rx="174.81" ry="33.88"/>
<text text-anchor="middle" x="660.08" y="-39.54" font-family="Times,serif" font-size="18.00">precondition:</text>
<text text-anchor="middle" x="660.08" y="-19.54" font-family="Times,serif" font-size="18.00"> is_empty(inwardgripper)</text>
</g>
<!-- sequence:
 change_tool(left_hand, inwardgripper, parallelgripper)&#45;&gt;precondition:
 is_empty(inwardgripper) -->
<g id="edge7" class="edge">
<title>sequence:
 change_tool(left_hand, inwardgripper, parallelgripper)&#45;&gt;precondition:
 is_empty(inwardgripper)</title>
<path fill="none" stroke="black" d="M698.74,-113.7C693.46,-102.94 687,-89.79 680.89,-77.35"/>
<polygon fill="black" stroke="black" points="683.86,-75.45 676.31,-68.01 677.58,-78.53 683.86,-75.45"/>
</g>
<!-- action:
 change_tool(left_hand, inwardgripper, parallelgripper) -->
<g id="node9" class="node">
<title>action:
 change_tool(left_hand, inwardgripper, parallelgripper)</title>
<ellipse fill="lightgreen" stroke="black" cx="1217.08" cy="-33.94" rx="364.32" ry="33.88"/>
<text text-anchor="middle" x="1217.08" y="-39.54" font-family="Times,serif" font-size="18.00">action:</text>
<text text-anchor="middle" x="1217.08" y="-19.54" font-family="Times,serif" font-size="18.00"> change_tool(left_hand, inwardgripper, parallelgripper)</text>
</g>
<!-- sequence:
 change_tool(left_hand, inwardgripper, parallelgripper)&#45;&gt;action:
 change_tool(left_hand, inwardgripper, parallelgripper) -->
<g id="edge8" class="edge">
<title>sequence:
 change_tool(left_hand, inwardgripper, parallelgripper)&#45;&gt;action:
 change_tool(left_hand, inwardgripper, parallelgripper)</title>
<path fill="none" stroke="black" d="M824.81,-113.77C893.58,-99.95 982.05,-82.17 1057.56,-67"/>
<polygon fill="black" stroke="black" points="1058.53,-70.37 1067.65,-64.97 1057.15,-63.51 1058.53,-70.37"/>
</g>
<!-- target:
 hold(parallelgripper, gear1) -->
<g id="node11" class="node">
<title>target:
 hold(parallelgripper, gear1)</title>
<ellipse fill="#ffec8b" stroke="black" cx="1529.08" cy="-137.82" rx="192.17" ry="33.88"/>
<text text-anchor="middle" x="1529.08" y="-143.42" font-family="Times,serif" font-size="18.00">target:</text>
<text text-anchor="middle" x="1529.08" y="-123.42" font-family="Times,serif" font-size="18.00"> hold(parallelgripper, gear1)</text>
</g>
<!-- selector:
 pick_up(left_hand, parallelgripper, gear1)&#45;&gt;target:
 hold(parallelgripper, gear1) -->
<g id="edge10" class="edge">
<title>selector:
 pick_up(left_hand, parallelgripper, gear1)&#45;&gt;target:
 hold(parallelgripper, gear1)</title>
<path fill="none" stroke="black" d="M1529.08,-207.48C1529.08,-199.32 1529.08,-190.58 1529.08,-182.15"/>
<polygon fill="black" stroke="black" points="1532.58,-182.1 1529.08,-172.1 1525.58,-182.1 1532.58,-182.1"/>
</g>
<!-- sequence:
 pick_up(left_hand, parallelgripper, gear1) -->
<g id="node12" class="node">
<title>sequence:
 pick_up(left_hand, parallelgripper, gear1)</title>
<polygon fill="#ff7f24" stroke="black" points="2340.58,-161.82 1941.58,-161.82 1941.58,-113.82 2340.58,-113.82 2340.58,-161.82"/>
<text text-anchor="middle" x="2141.08" y="-143.42" font-family="Times,serif" font-size="18.00">sequence:</text>
<text text-anchor="middle" x="2141.08" y="-123.42" font-family="Times,serif" font-size="18.00"> pick_up(left_hand, parallelgripper, gear1)</text>
</g>
<!-- selector:
 pick_up(left_hand, parallelgripper, gear1)&#45;&gt;sequence:
 pick_up(left_hand, parallelgripper, gear1) -->
<g id="edge11" class="edge">
<title>selector:
 pick_up(left_hand, parallelgripper, gear1)&#45;&gt;sequence:
 pick_up(left_hand, parallelgripper, gear1)</title>
<path fill="none" stroke="black" d="M1704.87,-213.44C1797.19,-197.64 1908.96,-178.53 1996.25,-163.6"/>
<polygon fill="black" stroke="black" points="1996.96,-167.03 2006.23,-161.89 1995.78,-160.13 1996.96,-167.03"/>
</g>
<!-- precondition:
 is_empty(parallelgripper) -->
<g id="node13" class="node">
<title>precondition:
 is_empty(parallelgripper)</title>
<ellipse fill="#ffec8b" stroke="black" cx="1778.08" cy="-33.94" rx="178.8" ry="33.88"/>
<text text-anchor="middle" x="1778.08" y="-39.54" font-family="Times,serif" font-size="18.00">precondition:</text>
<text text-anchor="middle" x="1778.08" y="-19.54" font-family="Times,serif" font-size="18.00"> is_empty(parallelgripper)</text>
</g>
<!-- sequence:
 pick_up(left_hand, parallelgripper, gear1)&#45;&gt;precondition:
 is_empty(parallelgripper) -->
<g id="edge12" class="edge">
<title>sequence:
 pick_up(left_hand, parallelgripper, gear1)&#45;&gt;precondition:
 is_empty(parallelgripper)</title>
<path fill="none" stroke="black" d="M2058.71,-113.7C2007.5,-99.33 1941.11,-80.7 1885.76,-65.16"/>
<polygon fill="black" stroke="black" points="1886.49,-61.73 1875.91,-62.4 1884.6,-68.47 1886.49,-61.73"/>
</g>
<!-- precondition:
 hold(left_hand, parallelgripper) -->
<g id="node14" class="node">
<title>precondition:
 hold(left_hand, parallelgripper)</title>
<ellipse fill="#ffec8b" stroke="black" cx="2192.08" cy="-33.94" rx="217.16" ry="33.88"/>
<text text-anchor="middle" x="2192.08" y="-39.54" font-family="Times,serif" font-size="18.00">precondition:</text>
<text text-anchor="middle" x="2192.08" y="-19.54" font-family="Times,serif" font-size="18.00"> hold(left_hand, parallelgripper)</text>
</g>
<!-- sequence:
 pick_up(left_hand, parallelgripper, gear1)&#45;&gt;precondition:
 hold(left_hand, parallelgripper) -->
<g id="edge13" class="edge">
<title>sequence:
 pick_up(left_hand, parallelgripper, gear1)&#45;&gt;precondition:
 hold(left_hand, parallelgripper)</title>
<path fill="none" stroke="black" d="M2152.65,-113.7C2158.09,-102.84 2164.75,-89.54 2171.04,-76.98"/>
<polygon fill="black" stroke="black" points="2174.18,-78.52 2175.53,-68.01 2167.92,-75.39 2174.18,-78.52"/>
</g>
<!-- action:
 pick_up(left_hand, parallelgripper, gear1) -->
<g id="node15" class="node">
<title>action:
 pick_up(left_hand, parallelgripper, gear1)</title>
<ellipse fill="lightgreen" stroke="black" cx="2709.08" cy="-33.94" rx="282.27" ry="33.88"/>
<text text-anchor="middle" x="2709.08" y="-39.54" font-family="Times,serif" font-size="18.00">action:</text>
<text text-anchor="middle" x="2709.08" y="-19.54" font-family="Times,serif" font-size="18.00"> pick_up(left_hand, parallelgripper, gear1)</text>
</g>
<!-- sequence:
 pick_up(left_hand, parallelgripper, gear1)&#45;&gt;action:
 pick_up(left_hand, parallelgripper, gear1) -->
<g id="edge14" class="edge">
<title>sequence:
 pick_up(left_hand, parallelgripper, gear1)&#45;&gt;action:
 pick_up(left_hand, parallelgripper, gear1)</title>
<path fill="none" stroke="black" d="M2269.61,-113.77C2351.31,-99.12 2457.81,-80.01 2545.5,-64.28"/>
<polygon fill="black" stroke="black" points="2546.33,-67.69 2555.56,-62.48 2545.1,-60.8 2546.33,-67.69"/>
</g>
</g>
</svg>
