<?xml version="1.0" encoding="UTF-8" standalone="no"?>
<!DOCTYPE svg PUBLIC "-//W3C//DTD SVG 1.1//EN"
 "http://www.w3.org/Graphics/SVG/1.1/DTD/svg11.dtd">
<!-- Generated by graphviz version 2.43.0 (0)
 -->
<!-- Title: pastafarianism Pages: 1 -->
<svg width="1309pt" height="476pt"
 viewBox="0.00 0.00 1308.84 476.00" xmlns="http://www.w3.org/2000/svg" xmlns:xlink="http://www.w3.org/1999/xlink">
<g id="graph0" class="graph" transform="scale(1 1) rotate(0) translate(4 472)">
<title>pastafarianism</title>
<polygon fill="white" stroke="transparent" points="-4,4 -4,-472 1304.84,-472 1304.84,4 -4,4"/>
<!-- Sequence -->
<g id="node1" class="node">
<title>Sequence</title>
<polygon fill="orange" stroke="black" points="683.77,-468 621.77,-468 621.77,-432 683.77,-432 683.77,-468"/>
<text text-anchor="middle" x="652.77" y="-447.8" font-family="Times,serif" font-size="9.00">Sequence</text>
</g>
<!-- Fallback -->
<g id="node2" class="node">
<title>Fallback</title>
<polygon fill="cyan" stroke="black" points="401.76,-370.54 401.76,-385.46 381.27,-396 352.28,-396 331.78,-385.46 331.78,-370.54 352.28,-360 381.27,-360 401.76,-370.54"/>
<text text-anchor="middle" x="366.77" y="-375.8" font-family="Times,serif" font-size="9.00">Fallback</text>
</g>
<!-- Sequence&#45;&gt;Fallback -->
<g id="edge1" class="edge">
<title>Sequence&#45;&gt;Fallback</title>
<path fill="none" stroke="black" d="M621.62,-441.38C570.13,-428.77 467.21,-403.58 409.15,-389.37"/>
<polygon fill="black" stroke="black" points="409.74,-385.91 399.2,-386.94 408.08,-392.71 409.74,-385.91"/>
</g>
<!-- Fallback &#160;&#160; -->
<g id="node13" class="node">
<title>Fallback &#160;&#160;</title>
<polygon fill="cyan" stroke="black" points="687.76,-370.54 687.76,-385.46 667.27,-396 638.28,-396 617.78,-385.46 617.78,-370.54 638.28,-360 667.27,-360 687.76,-370.54"/>
<text text-anchor="middle" x="652.77" y="-375.8" font-family="Times,serif" font-size="9.00">Fallback</text>
</g>
<!-- Sequence&#45;&gt;Fallback &#160;&#160; -->
<g id="edge12" class="edge">
<title>Sequence&#45;&gt;Fallback &#160;&#160;</title>
<path fill="none" stroke="black" d="M652.77,-431.7C652.77,-423.98 652.77,-414.71 652.77,-406.11"/>
<polygon fill="black" stroke="black" points="656.27,-406.1 652.77,-396.1 649.27,-406.1 656.27,-406.1"/>
</g>
<!-- Fallback &#160;&#160;&#160;&#160;&#160; -->
<g id="node24" class="node">
<title>Fallback &#160;&#160;&#160;&#160;&#160;</title>
<polygon fill="cyan" stroke="black" points="984.76,-370.54 984.76,-385.46 964.27,-396 935.28,-396 914.78,-385.46 914.78,-370.54 935.28,-360 964.27,-360 984.76,-370.54"/>
<text text-anchor="middle" x="949.77" y="-375.8" font-family="Times,serif" font-size="9.00">Fallback</text>
</g>
<!-- Sequence&#45;&gt;Fallback &#160;&#160;&#160;&#160;&#160; -->
<g id="edge23" class="edge">
<title>Sequence&#45;&gt;Fallback &#160;&#160;&#160;&#160;&#160;</title>
<path fill="none" stroke="black" d="M683.99,-441.64C737.35,-429.06 846.17,-403.42 906.71,-389.15"/>
<polygon fill="black" stroke="black" points="907.78,-392.49 916.71,-386.79 906.18,-385.68 907.78,-392.49"/>
</g>
<!-- object_at GreenBox [0.0, 0.133, 0.175] 0.02 KittingBox -->
<g id="node3" class="node">
<title>object_at GreenBox [0.0, 0.133, 0.175] 0.02 KittingBox</title>
<ellipse fill="lightgray" stroke="black" cx="158.77" cy="-306" rx="158.54" ry="18"/>
<text text-anchor="middle" x="158.77" y="-303.8" font-family="Times,serif" font-size="9.00">object_at GreenBox [0.0, 0.133, 0.175] 0.02 KittingBox</text>
</g>
<!-- Fallback&#45;&gt;object_at GreenBox [0.0, 0.133, 0.175] 0.02 KittingBox -->
<g id="edge2" class="edge">
<title>Fallback&#45;&gt;object_at GreenBox [0.0, 0.133, 0.175] 0.02 KittingBox</title>
<path fill="none" stroke="black" d="M337.85,-367.27C306.67,-356.77 256.21,-339.79 216.79,-326.52"/>
<polygon fill="black" stroke="black" points="217.62,-323.11 207.02,-323.24 215.38,-329.74 217.62,-323.11"/>
</g>
<!-- Sequence  -->
<g id="node4" class="node">
<title>Sequence </title>
<polygon fill="orange" stroke="black" points="397.77,-324 335.77,-324 335.77,-288 397.77,-288 397.77,-324"/>
<text text-anchor="middle" x="366.77" y="-303.8" font-family="Times,serif" font-size="9.00">Sequence</text>
</g>
<!-- Fallback&#45;&gt;Sequence  -->
<g id="edge3" class="edge">
<title>Fallback&#45;&gt;Sequence </title>
<path fill="none" stroke="black" d="M366.77,-359.7C366.77,-351.98 366.77,-342.71 366.77,-334.11"/>
<polygon fill="black" stroke="black" points="370.27,-334.1 366.77,-324.1 363.27,-334.1 370.27,-334.1"/>
</g>
<!-- Fallback  -->
<g id="node5" class="node">
<title>Fallback </title>
<polygon fill="cyan" stroke="black" points="196.76,-226.54 196.76,-241.46 176.27,-252 147.28,-252 126.78,-241.46 126.78,-226.54 147.28,-216 176.27,-216 196.76,-226.54"/>
<text text-anchor="middle" x="161.77" y="-231.8" font-family="Times,serif" font-size="9.00">Fallback</text>
</g>
<!-- Sequence &#45;&gt;Fallback  -->
<g id="edge4" class="edge">
<title>Sequence &#45;&gt;Fallback </title>
<path fill="none" stroke="black" d="M335.46,-291.3C332.54,-290.14 329.61,-289.02 326.77,-288 273.98,-269 258.87,-270.12 205.77,-252 203.24,-251.14 200.64,-250.22 198.03,-249.27"/>
<polygon fill="black" stroke="black" points="199.23,-245.98 188.64,-245.77 196.79,-252.54 199.23,-245.98"/>
</g>
<!-- place0 GreenBox [0.0, 0.133, 0.175] 0.02 KittingBox -->
<g id="node12" class="node">
<title>place0 GreenBox [0.0, 0.133, 0.175] 0.02 KittingBox</title>
<ellipse fill="lightgray" stroke="black" cx="366.77" cy="-234" rx="152.34" ry="18"/>
<text text-anchor="middle" x="366.77" y="-231.8" font-family="Times,serif" font-size="9.00">place0 GreenBox [0.0, 0.133, 0.175] 0.02 KittingBox</text>
</g>
<!-- Sequence &#45;&gt;place0 GreenBox [0.0, 0.133, 0.175] 0.02 KittingBox -->
<g id="edge11" class="edge">
<title>Sequence &#45;&gt;place0 GreenBox [0.0, 0.133, 0.175] 0.02 KittingBox</title>
<path fill="none" stroke="black" d="M366.77,-287.7C366.77,-279.98 366.77,-270.71 366.77,-262.11"/>
<polygon fill="black" stroke="black" points="370.27,-262.1 366.77,-252.1 363.27,-262.1 370.27,-262.1"/>
</g>
<!-- in_gripper GreenBox -->
<g id="node6" class="node">
<title>in_gripper GreenBox</title>
<ellipse fill="lightgray" stroke="black" cx="133.77" cy="-162" rx="65.64" ry="18"/>
<text text-anchor="middle" x="133.77" y="-159.8" font-family="Times,serif" font-size="9.00">in_gripper GreenBox</text>
</g>
<!-- Fallback &#45;&gt;in_gripper GreenBox -->
<g id="edge5" class="edge">
<title>Fallback &#45;&gt;in_gripper GreenBox</title>
<path fill="none" stroke="black" d="M154.85,-215.7C151.7,-207.81 147.89,-198.3 144.39,-189.55"/>
<polygon fill="black" stroke="black" points="147.58,-188.09 140.61,-180.1 141.08,-190.69 147.58,-188.09"/>
</g>
<!-- Sequence &#160; -->
<g id="node7" class="node">
<title>Sequence &#160;</title>
<polygon fill="orange" stroke="black" points="279.77,-180 217.77,-180 217.77,-144 279.77,-144 279.77,-180"/>
<text text-anchor="middle" x="248.77" y="-159.8" font-family="Times,serif" font-size="9.00">Sequence</text>
</g>
<!-- Fallback &#45;&gt;Sequence &#160; -->
<g id="edge6" class="edge">
<title>Fallback &#45;&gt;Sequence &#160;</title>
<path fill="none" stroke="black" d="M180.65,-217.81C191.96,-208.71 206.59,-196.94 219.39,-186.64"/>
<polygon fill="black" stroke="black" points="221.89,-189.12 227.49,-180.13 217.5,-183.67 221.89,-189.12"/>
</g>
<!-- Fallback &#160; -->
<g id="node8" class="node">
<title>Fallback &#160;</title>
<polygon fill="cyan" stroke="black" points="269.76,-82.54 269.76,-97.46 249.27,-108 220.28,-108 199.78,-97.46 199.78,-82.54 220.28,-72 249.27,-72 269.76,-82.54"/>
<text text-anchor="middle" x="234.77" y="-87.8" font-family="Times,serif" font-size="9.00">Fallback</text>
</g>
<!-- Sequence &#160;&#45;&gt;Fallback &#160; -->
<g id="edge7" class="edge">
<title>Sequence &#160;&#45;&gt;Fallback &#160;</title>
<path fill="none" stroke="black" d="M245.31,-143.7C243.77,-135.98 241.91,-126.71 240.19,-118.11"/>
<polygon fill="black" stroke="black" points="243.59,-117.22 238.19,-108.1 236.72,-118.6 243.59,-117.22"/>
</g>
<!-- pick0 GreenBox -->
<g id="node11" class="node">
<title>pick0 GreenBox</title>
<ellipse fill="lightgray" stroke="black" cx="340.77" cy="-90" rx="52.58" ry="18"/>
<text text-anchor="middle" x="340.77" y="-87.8" font-family="Times,serif" font-size="9.00">pick0 GreenBox</text>
</g>
<!-- Sequence &#160;&#45;&gt;pick0 GreenBox -->
<g id="edge10" class="edge">
<title>Sequence &#160;&#45;&gt;pick0 GreenBox</title>
<path fill="none" stroke="black" d="M271.51,-143.7C283.73,-134.4 298.93,-122.84 311.97,-112.91"/>
<polygon fill="black" stroke="black" points="314.34,-115.51 320.17,-106.67 310.1,-109.94 314.34,-115.51"/>
</g>
<!-- gripper_state open -->
<g id="node9" class="node">
<title>gripper_state open</title>
<ellipse fill="lightgray" stroke="black" cx="152.77" cy="-18" rx="60.09" ry="18"/>
<text text-anchor="middle" x="152.77" y="-15.8" font-family="Times,serif" font-size="9.00">gripper_state open</text>
</g>
<!-- Fallback &#160;&#45;&gt;gripper_state open -->
<g id="edge8" class="edge">
<title>Fallback &#160;&#45;&gt;gripper_state open</title>
<path fill="none" stroke="black" d="M216.57,-73.46C205.66,-64.15 191.58,-52.13 179.43,-41.76"/>
<polygon fill="black" stroke="black" points="181.65,-39.05 171.77,-35.22 177.11,-44.38 181.65,-39.05"/>
</g>
<!-- open_gripper -->
<g id="node10" class="node">
<title>open_gripper</title>
<ellipse fill="lightgray" stroke="black" cx="276.77" cy="-18" rx="45.72" ry="18"/>
<text text-anchor="middle" x="276.77" y="-15.8" font-family="Times,serif" font-size="9.00">open_gripper</text>
</g>
<!-- Fallback &#160;&#45;&gt;open_gripper -->
<g id="edge9" class="edge">
<title>Fallback &#160;&#45;&gt;open_gripper</title>
<path fill="none" stroke="black" d="M245.15,-71.7C250.11,-63.44 256.13,-53.39 261.59,-44.3"/>
<polygon fill="black" stroke="black" points="264.65,-46 266.8,-35.62 258.65,-42.4 264.65,-46"/>
</g>
<!-- object_at BlueBox [0.0, 0.0, 0.22] 0.02 GreenBox -->
<g id="node14" class="node">
<title>object_at BlueBox [0.0, 0.0, 0.22] 0.02 GreenBox</title>
<ellipse fill="lightgray" stroke="black" cx="557.77" cy="-306" rx="142.06" ry="18"/>
<text text-anchor="middle" x="557.77" y="-303.8" font-family="Times,serif" font-size="9.00">object_at BlueBox [0.0, 0.0, 0.22] 0.02 GreenBox</text>
</g>
<!-- Fallback &#160;&#160;&#45;&gt;object_at BlueBox [0.0, 0.0, 0.22] 0.02 GreenBox -->
<g id="edge13" class="edge">
<title>Fallback &#160;&#160;&#45;&gt;object_at BlueBox [0.0, 0.0, 0.22] 0.02 GreenBox</title>
<path fill="none" stroke="black" d="M633.09,-362.5C620.37,-353.12 603.54,-340.72 589.01,-330.02"/>
<polygon fill="black" stroke="black" points="590.9,-327.06 580.78,-323.95 586.75,-332.7 590.9,-327.06"/>
</g>
<!-- Sequence &#160;&#160; -->
<g id="node15" class="node">
<title>Sequence &#160;&#160;</title>
<polygon fill="orange" stroke="black" points="779.77,-324 717.77,-324 717.77,-288 779.77,-288 779.77,-324"/>
<text text-anchor="middle" x="748.77" y="-303.8" font-family="Times,serif" font-size="9.00">Sequence</text>
</g>
<!-- Fallback &#160;&#160;&#45;&gt;Sequence &#160;&#160; -->
<g id="edge14" class="edge">
<title>Fallback &#160;&#160;&#45;&gt;Sequence &#160;&#160;</title>
<path fill="none" stroke="black" d="M672.66,-362.5C685.43,-353.19 702.28,-340.9 716.89,-330.25"/>
<polygon fill="black" stroke="black" points="719.16,-332.92 725.18,-324.2 715.04,-327.27 719.16,-332.92"/>
</g>
<!-- Fallback &#160;&#160;&#160; -->
<g id="node16" class="node">
<title>Fallback &#160;&#160;&#160;</title>
<polygon fill="cyan" stroke="black" points="611.76,-226.54 611.76,-241.46 591.27,-252 562.28,-252 541.78,-241.46 541.78,-226.54 562.28,-216 591.27,-216 611.76,-226.54"/>
<text text-anchor="middle" x="576.77" y="-231.8" font-family="Times,serif" font-size="9.00">Fallback</text>
</g>
<!-- Sequence &#160;&#160;&#45;&gt;Fallback &#160;&#160;&#160; -->
<g id="edge15" class="edge">
<title>Sequence &#160;&#160;&#45;&gt;Fallback &#160;&#160;&#160;</title>
<path fill="none" stroke="black" d="M717.35,-291.58C714.46,-290.36 711.56,-289.15 708.77,-288 676.69,-274.75 640.05,-260.07 613.53,-249.53"/>
<polygon fill="black" stroke="black" points="614.47,-246.14 603.89,-245.7 611.89,-252.64 614.47,-246.14"/>
</g>
<!-- place0 BlueBox [0.0, 0.0, 0.22] 0.02 GreenBox -->
<g id="node23" class="node">
<title>place0 BlueBox [0.0, 0.0, 0.22] 0.02 GreenBox</title>
<ellipse fill="lightgray" stroke="black" cx="765.77" cy="-234" rx="135.85" ry="18"/>
<text text-anchor="middle" x="765.77" y="-231.8" font-family="Times,serif" font-size="9.00">place0 BlueBox [0.0, 0.0, 0.22] 0.02 GreenBox</text>
</g>
<!-- Sequence &#160;&#160;&#45;&gt;place0 BlueBox [0.0, 0.0, 0.22] 0.02 GreenBox -->
<g id="edge22" class="edge">
<title>Sequence &#160;&#160;&#45;&gt;place0 BlueBox [0.0, 0.0, 0.22] 0.02 GreenBox</title>
<path fill="none" stroke="black" d="M752.97,-287.7C754.87,-279.9 757.15,-270.51 759.26,-261.83"/>
<polygon fill="black" stroke="black" points="762.66,-262.65 761.62,-252.1 755.86,-261 762.66,-262.65"/>
</g>
<!-- in_gripper BlueBox -->
<g id="node17" class="node">
<title>in_gripper BlueBox</title>
<ellipse fill="lightgray" stroke="black" cx="472.77" cy="-162" rx="61.55" ry="18"/>
<text text-anchor="middle" x="472.77" y="-159.8" font-family="Times,serif" font-size="9.00">in_gripper BlueBox</text>
</g>
<!-- Fallback &#160;&#160;&#160;&#45;&gt;in_gripper BlueBox -->
<g id="edge16" class="edge">
<title>Fallback &#160;&#160;&#160;&#45;&gt;in_gripper BlueBox</title>
<path fill="none" stroke="black" d="M555.73,-218.83C541.07,-208.97 521.25,-195.63 504.66,-184.47"/>
<polygon fill="black" stroke="black" points="506.58,-181.53 496.33,-178.85 502.67,-187.34 506.58,-181.53"/>
</g>
<!-- Sequence &#160;&#160;&#160; -->
<g id="node18" class="node">
<title>Sequence &#160;&#160;&#160;</title>
<polygon fill="orange" stroke="black" points="614.77,-180 552.77,-180 552.77,-144 614.77,-144 614.77,-180"/>
<text text-anchor="middle" x="583.77" y="-159.8" font-family="Times,serif" font-size="9.00">Sequence</text>
</g>
<!-- Fallback &#160;&#160;&#160;&#45;&gt;Sequence &#160;&#160;&#160; -->
<g id="edge17" class="edge">
<title>Fallback &#160;&#160;&#160;&#45;&gt;Sequence &#160;&#160;&#160;</title>
<path fill="none" stroke="black" d="M578.5,-215.7C579.27,-207.98 580.2,-198.71 581.06,-190.11"/>
<polygon fill="black" stroke="black" points="584.55,-190.4 582.06,-180.1 577.58,-189.71 584.55,-190.4"/>
</g>
<!-- Fallback &#160;&#160;&#160;&#160; -->
<g id="node19" class="node">
<title>Fallback &#160;&#160;&#160;&#160;</title>
<polygon fill="cyan" stroke="black" points="521.76,-82.54 521.76,-97.46 501.27,-108 472.28,-108 451.78,-97.46 451.78,-82.54 472.28,-72 501.27,-72 521.76,-82.54"/>
<text text-anchor="middle" x="486.77" y="-87.8" font-family="Times,serif" font-size="9.00">Fallback</text>
</g>
<!-- Sequence &#160;&#160;&#160;&#45;&gt;Fallback &#160;&#160;&#160;&#160; -->
<g id="edge18" class="edge">
<title>Sequence &#160;&#160;&#160;&#45;&gt;Fallback &#160;&#160;&#160;&#160;</title>
<path fill="none" stroke="black" d="M559.79,-143.7C546.23,-133.91 529.19,-121.61 514.98,-111.36"/>
<polygon fill="black" stroke="black" points="516.72,-108.29 506.56,-105.28 512.62,-113.97 516.72,-108.29"/>
</g>
<!-- pick0 BlueBox -->
<g id="node22" class="node">
<title>pick0 BlueBox</title>
<ellipse fill="lightgray" stroke="black" cx="587.77" cy="-90" rx="47.84" ry="18"/>
<text text-anchor="middle" x="587.77" y="-87.8" font-family="Times,serif" font-size="9.00">pick0 BlueBox</text>
</g>
<!-- Sequence &#160;&#160;&#160;&#45;&gt;pick0 BlueBox -->
<g id="edge21" class="edge">
<title>Sequence &#160;&#160;&#160;&#45;&gt;pick0 BlueBox</title>
<path fill="none" stroke="black" d="M584.76,-143.7C585.2,-135.98 585.73,-126.71 586.22,-118.11"/>
<polygon fill="black" stroke="black" points="589.72,-118.29 586.79,-108.1 582.73,-117.89 589.72,-118.29"/>
</g>
<!-- gripper_state open  -->
<g id="node20" class="node">
<title>gripper_state open </title>
<ellipse fill="lightgray" stroke="black" cx="444.77" cy="-18" rx="60.09" ry="18"/>
<text text-anchor="middle" x="444.77" y="-15.8" font-family="Times,serif" font-size="9.00">gripper_state open</text>
</g>
<!-- Fallback &#160;&#160;&#160;&#160;&#45;&gt;gripper_state open  -->
<g id="edge19" class="edge">
<title>Fallback &#160;&#160;&#160;&#160;&#45;&gt;gripper_state open </title>
<path fill="none" stroke="black" d="M476.39,-71.7C471.51,-63.56 465.58,-53.69 460.19,-44.7"/>
<polygon fill="black" stroke="black" points="463.18,-42.88 455.03,-36.1 457.18,-46.48 463.18,-42.88"/>
</g>
<!-- open_gripper  -->
<g id="node21" class="node">
<title>open_gripper </title>
<ellipse fill="lightgray" stroke="black" cx="568.77" cy="-18" rx="45.72" ry="18"/>
<text text-anchor="middle" x="568.77" y="-15.8" font-family="Times,serif" font-size="9.00">open_gripper</text>
</g>
<!-- Fallback &#160;&#160;&#160;&#160;&#45;&gt;open_gripper  -->
<g id="edge20" class="edge">
<title>Fallback &#160;&#160;&#160;&#160;&#45;&gt;open_gripper </title>
<path fill="none" stroke="black" d="M504.97,-73.46C516.04,-64.02 530.36,-51.79 542.63,-41.32"/>
<polygon fill="black" stroke="black" points="545.01,-43.89 550.34,-34.73 540.46,-38.56 545.01,-43.89"/>
</g>
<!-- object_at YellowBox [0.0, 0.0, 0.175] 0.02 KittingBox -->
<g id="node25" class="node">
<title>object_at YellowBox [0.0, 0.0, 0.175] 0.02 KittingBox</title>
<ellipse fill="lightgray" stroke="black" cx="949.77" cy="-306" rx="152.34" ry="18"/>
<text text-anchor="middle" x="949.77" y="-303.8" font-family="Times,serif" font-size="9.00">object_at YellowBox [0.0, 0.0, 0.175] 0.02 KittingBox</text>
</g>
<!-- Fallback &#160;&#160;&#160;&#160;&#160;&#45;&gt;object_at YellowBox [0.0, 0.0, 0.175] 0.02 KittingBox -->
<g id="edge24" class="edge">
<title>Fallback &#160;&#160;&#160;&#160;&#160;&#45;&gt;object_at YellowBox [0.0, 0.0, 0.175] 0.02 KittingBox</title>
<path fill="none" stroke="black" d="M949.77,-359.7C949.77,-351.98 949.77,-342.71 949.77,-334.11"/>
<polygon fill="black" stroke="black" points="953.27,-334.1 949.77,-324.1 946.27,-334.1 953.27,-334.1"/>
</g>
<!-- Sequence &#160;&#160;&#160;&#160; -->
<g id="node26" class="node">
<title>Sequence &#160;&#160;&#160;&#160;</title>
<polygon fill="orange" stroke="black" points="1181.77,-324 1119.77,-324 1119.77,-288 1181.77,-288 1181.77,-324"/>
<text text-anchor="middle" x="1150.77" y="-303.8" font-family="Times,serif" font-size="9.00">Sequence</text>
</g>
<!-- Fallback &#160;&#160;&#160;&#160;&#160;&#45;&gt;Sequence &#160;&#160;&#160;&#160; -->
<g id="edge25" class="edge">
<title>Fallback &#160;&#160;&#160;&#160;&#160;&#45;&gt;Sequence &#160;&#160;&#160;&#160;</title>
<path fill="none" stroke="black" d="M980,-367.88C1010.65,-358.45 1059.58,-342.91 1110,-324.15"/>
<polygon fill="black" stroke="black" points="1111.3,-327.4 1119.43,-320.61 1108.84,-320.85 1111.3,-327.4"/>
</g>
<!-- Fallback &#160;&#160;&#160;&#160;&#160;&#160; -->
<g id="node27" class="node">
<title>Fallback &#160;&#160;&#160;&#160;&#160;&#160;</title>
<polygon fill="cyan" stroke="black" points="990.76,-226.54 990.76,-241.46 970.27,-252 941.28,-252 920.78,-241.46 920.78,-226.54 941.28,-216 970.27,-216 990.76,-226.54"/>
<text text-anchor="middle" x="955.77" y="-231.8" font-family="Times,serif" font-size="9.00">Fallback</text>
</g>
<!-- Sequence &#160;&#160;&#160;&#160;&#45;&gt;Fallback &#160;&#160;&#160;&#160;&#160;&#160; -->
<g id="edge26" class="edge">
<title>Sequence &#160;&#160;&#160;&#160;&#45;&gt;Fallback &#160;&#160;&#160;&#160;&#160;&#160;</title>
<path fill="none" stroke="black" d="M1119.43,-291.37C1116.52,-290.2 1113.6,-289.06 1110.77,-288 1062.19,-269.84 1048.65,-269.35 999.77,-252 997.25,-251.11 994.66,-250.16 992.06,-249.2"/>
<polygon fill="black" stroke="black" points="993.27,-245.92 982.68,-245.66 990.8,-252.47 993.27,-245.92"/>
</g>
<!-- place0 YellowBox [0.0, 0.0, 0.175] 0.02 KittingBox -->
<g id="node34" class="node">
<title>place0 YellowBox [0.0, 0.0, 0.175] 0.02 KittingBox</title>
<ellipse fill="lightgray" stroke="black" cx="1154.77" cy="-234" rx="146.14" ry="18"/>
<text text-anchor="middle" x="1154.77" y="-231.8" font-family="Times,serif" font-size="9.00">place0 YellowBox [0.0, 0.0, 0.175] 0.02 KittingBox</text>
</g>
<!-- Sequence &#160;&#160;&#160;&#160;&#45;&gt;place0 YellowBox [0.0, 0.0, 0.175] 0.02 KittingBox -->
<g id="edge33" class="edge">
<title>Sequence &#160;&#160;&#160;&#160;&#45;&gt;place0 YellowBox [0.0, 0.0, 0.175] 0.02 KittingBox</title>
<path fill="none" stroke="black" d="M1151.76,-287.7C1152.2,-279.98 1152.73,-270.71 1153.22,-262.11"/>
<polygon fill="black" stroke="black" points="1156.72,-262.29 1153.79,-252.1 1149.73,-261.89 1156.72,-262.29"/>
</g>
<!-- in_gripper YellowBox -->
<g id="node28" class="node">
<title>in_gripper YellowBox</title>
<ellipse fill="lightgray" stroke="black" cx="897.77" cy="-162" rx="66.29" ry="18"/>
<text text-anchor="middle" x="897.77" y="-159.8" font-family="Times,serif" font-size="9.00">in_gripper YellowBox</text>
</g>
<!-- Fallback &#160;&#160;&#160;&#160;&#160;&#160;&#45;&gt;in_gripper YellowBox -->
<g id="edge27" class="edge">
<title>Fallback &#160;&#160;&#160;&#160;&#160;&#160;&#45;&gt;in_gripper YellowBox</title>
<path fill="none" stroke="black" d="M941.43,-215.7C934.38,-207.18 925.75,-196.76 918.03,-187.45"/>
<polygon fill="black" stroke="black" points="920.62,-185.09 911.54,-179.62 915.23,-189.56 920.62,-185.09"/>
</g>
<!-- Sequence &#160;&#160;&#160;&#160;&#160; -->
<g id="node29" class="node">
<title>Sequence &#160;&#160;&#160;&#160;&#160;</title>
<polygon fill="orange" stroke="black" points="1043.77,-180 981.77,-180 981.77,-144 1043.77,-144 1043.77,-180"/>
<text text-anchor="middle" x="1012.77" y="-159.8" font-family="Times,serif" font-size="9.00">Sequence</text>
</g>
<!-- Fallback &#160;&#160;&#160;&#160;&#160;&#160;&#45;&gt;Sequence &#160;&#160;&#160;&#160;&#160; -->
<g id="edge28" class="edge">
<title>Fallback &#160;&#160;&#160;&#160;&#160;&#160;&#45;&gt;Sequence &#160;&#160;&#160;&#160;&#160;</title>
<path fill="none" stroke="black" d="M969.86,-215.7C976.69,-207.3 985.03,-197.07 992.53,-187.86"/>
<polygon fill="black" stroke="black" points="995.24,-190.07 998.84,-180.1 989.82,-185.65 995.24,-190.07"/>
</g>
<!-- Fallback &#160;&#160;&#160;&#160;&#160;&#160;&#160; -->
<g id="node30" class="node">
<title>Fallback &#160;&#160;&#160;&#160;&#160;&#160;&#160;</title>
<polygon fill="cyan" stroke="black" points="994.76,-82.54 994.76,-97.46 974.27,-108 945.28,-108 924.78,-97.46 924.78,-82.54 945.28,-72 974.27,-72 994.76,-82.54"/>
<text text-anchor="middle" x="959.77" y="-87.8" font-family="Times,serif" font-size="9.00">Fallback</text>
</g>
<!-- Sequence &#160;&#160;&#160;&#160;&#160;&#45;&gt;Fallback &#160;&#160;&#160;&#160;&#160;&#160;&#160; -->
<g id="edge29" class="edge">
<title>Sequence &#160;&#160;&#160;&#160;&#160;&#45;&gt;Fallback &#160;&#160;&#160;&#160;&#160;&#160;&#160;</title>
<path fill="none" stroke="black" d="M999.67,-143.7C993.38,-135.39 985.72,-125.28 978.81,-116.14"/>
<polygon fill="black" stroke="black" points="981.55,-113.96 972.72,-108.1 975.97,-118.19 981.55,-113.96"/>
</g>
<!-- pick0 YellowBox -->
<g id="node33" class="node">
<title>pick0 YellowBox</title>
<ellipse fill="lightgray" stroke="black" cx="1065.77" cy="-90" rx="53.23" ry="18"/>
<text text-anchor="middle" x="1065.77" y="-87.8" font-family="Times,serif" font-size="9.00">pick0 YellowBox</text>
</g>
<!-- Sequence &#160;&#160;&#160;&#160;&#160;&#45;&gt;pick0 YellowBox -->
<g id="edge32" class="edge">
<title>Sequence &#160;&#160;&#160;&#160;&#160;&#45;&gt;pick0 YellowBox</title>
<path fill="none" stroke="black" d="M1025.87,-143.7C1032.26,-135.27 1040.05,-124.97 1047.05,-115.73"/>
<polygon fill="black" stroke="black" points="1049.94,-117.71 1053.19,-107.62 1044.36,-113.48 1049.94,-117.71"/>
</g>
<!-- gripper_state open &#160; -->
<g id="node31" class="node">
<title>gripper_state open &#160;</title>
<ellipse fill="lightgray" stroke="black" cx="897.77" cy="-18" rx="60.09" ry="18"/>
<text text-anchor="middle" x="897.77" y="-15.8" font-family="Times,serif" font-size="9.00">gripper_state open</text>
</g>
<!-- Fallback &#160;&#160;&#160;&#160;&#160;&#160;&#160;&#45;&gt;gripper_state open &#160; -->
<g id="edge30" class="edge">
<title>Fallback &#160;&#160;&#160;&#160;&#160;&#160;&#160;&#45;&gt;gripper_state open &#160;</title>
<path fill="none" stroke="black" d="M944.76,-72.05C937.15,-63.46 927.76,-52.86 919.38,-43.4"/>
<polygon fill="black" stroke="black" points="921.89,-40.95 912.64,-35.79 916.65,-45.6 921.89,-40.95"/>
</g>
<!-- open_gripper &#160; -->
<g id="node32" class="node">
<title>open_gripper &#160;</title>
<ellipse fill="lightgray" stroke="black" cx="1021.77" cy="-18" rx="45.72" ry="18"/>
<text text-anchor="middle" x="1021.77" y="-15.8" font-family="Times,serif" font-size="9.00">open_gripper</text>
</g>
<!-- Fallback &#160;&#160;&#160;&#160;&#160;&#160;&#160;&#45;&gt;open_gripper &#160; -->
<g id="edge31" class="edge">
<title>Fallback &#160;&#160;&#160;&#160;&#160;&#160;&#160;&#45;&gt;open_gripper &#160;</title>
<path fill="none" stroke="black" d="M974.78,-72.05C982.51,-63.33 992.06,-52.54 1000.53,-42.98"/>
<polygon fill="black" stroke="black" points="1003.32,-45.11 1007.33,-35.31 998.08,-40.47 1003.32,-45.11"/>
</g>
</g>
</svg>
