<?xml version="1.0" encoding="UTF-8" standalone="no"?>
<!DOCTYPE svg PUBLIC "-//W3C//DTD SVG 1.1//EN"
 "http://www.w3.org/Graphics/SVG/1.1/DTD/svg11.dtd">
<!-- Generated by graphviz version 2.43.0 (0)
 -->
<!-- Title: pastafarianism Pages: 1 -->
<svg width="4369pt" height="503pt"
 viewBox="0.00 0.00 4369.12 502.60" xmlns="http://www.w3.org/2000/svg" xmlns:xlink="http://www.w3.org/1999/xlink">
<g id="graph0" class="graph" transform="scale(1 1) rotate(0) translate(4 498.6)">
<title>pastafarianism</title>
<polygon fill="white" stroke="transparent" points="-4,4 -4,-498.6 4365.12,-498.6 4365.12,4 -4,4"/>
<!-- selector:
 screw(lampbulb, lampbase, clampgripper, left_hand) -->
<g id="node1" class="node">
<title>selector:
 screw(lampbulb, lampbase, clampgripper, left_hand)</title>
<polygon fill="#8deeee" stroke="black" points="2349.41,-442.54 2349.41,-473.18 2125.13,-494.84 1807.96,-494.84 1583.68,-473.18 1583.68,-442.54 1807.96,-420.88 2125.13,-420.88 2349.41,-442.54"/>
<text text-anchor="middle" x="1966.55" y="-463.46" font-family="Times,serif" font-size="18.00">selector:</text>
<text text-anchor="middle" x="1966.55" y="-443.46" font-family="Times,serif" font-size="18.00"> screw(lampbulb, lampbase, clampgripper, left_hand)</text>
</g>
<!-- target:
 is_screwed_to(lampbulb, lampbase) -->
<g id="node2" class="node">
<title>target:
 is_screwed_to(lampbulb, lampbase)</title>
<ellipse fill="#ffec8b" stroke="black" cx="1710.55" cy="-351.18" rx="243.9" ry="33.88"/>
<text text-anchor="middle" x="1710.55" y="-356.78" font-family="Times,serif" font-size="18.00">target:</text>
<text text-anchor="middle" x="1710.55" y="-336.78" font-family="Times,serif" font-size="18.00"> is_screwed_to(lampbulb, lampbase)</text>
</g>
<!-- selector:
 screw(lampbulb, lampbase, clampgripper, left_hand)&#45;&gt;target:
 is_screwed_to(lampbulb, lampbase) -->
<g id="edge1" class="edge">
<title>selector:
 screw(lampbulb, lampbase, clampgripper, left_hand)&#45;&gt;target:
 is_screwed_to(lampbulb, lampbase)</title>
<path fill="none" stroke="black" d="M1878.8,-420.98C1852.13,-410.08 1822.86,-398.11 1796.32,-387.26"/>
<polygon fill="black" stroke="black" points="1797.64,-384.01 1787.06,-383.47 1794.99,-390.49 1797.64,-384.01"/>
</g>
<!-- sequence:
 screw(lampbulb, lampbase, clampgripper, left_hand) -->
<g id="node3" class="node">
<title>sequence:
 screw(lampbulb, lampbase, clampgripper, left_hand)</title>
<polygon fill="#ff7f24" stroke="black" points="2472.55,-375.18 1972.55,-375.18 1972.55,-327.18 2472.55,-327.18 2472.55,-375.18"/>
<text text-anchor="middle" x="2222.55" y="-356.78" font-family="Times,serif" font-size="18.00">sequence:</text>
<text text-anchor="middle" x="2222.55" y="-336.78" font-family="Times,serif" font-size="18.00"> screw(lampbulb, lampbase, clampgripper, left_hand)</text>
</g>
<!-- selector:
 screw(lampbulb, lampbase, clampgripper, left_hand)&#45;&gt;sequence:
 screw(lampbulb, lampbase, clampgripper, left_hand) -->
<g id="edge2" class="edge">
<title>selector:
 screw(lampbulb, lampbase, clampgripper, left_hand)&#45;&gt;sequence:
 screw(lampbulb, lampbase, clampgripper, left_hand)</title>
<path fill="none" stroke="black" d="M2054.29,-420.98C2087.87,-407.25 2125.56,-391.84 2156.75,-379.09"/>
<polygon fill="black" stroke="black" points="2158.28,-382.24 2166.21,-375.22 2155.63,-375.76 2158.28,-382.24"/>
</g>
<!-- selector:
 put_down(left_hand, defaultgripper, cube) -->
<g id="node4" class="node">
<title>selector:
 put_down(left_hand, defaultgripper, cube)</title>
<polygon fill="#8deeee" stroke="black" points="1372.93,-229.19 1372.93,-259.82 1192.28,-281.48 936.81,-281.48 756.16,-259.82 756.16,-229.19 936.81,-207.53 1192.28,-207.53 1372.93,-229.19"/>
<text text-anchor="middle" x="1064.55" y="-250.1" font-family="Times,serif" font-size="18.00">selector:</text>
<text text-anchor="middle" x="1064.55" y="-230.1" font-family="Times,serif" font-size="18.00"> put_down(left_hand, defaultgripper, cube)</text>
</g>
<!-- sequence:
 screw(lampbulb, lampbase, clampgripper, left_hand)&#45;&gt;selector:
 put_down(left_hand, defaultgripper, cube) -->
<g id="edge3" class="edge">
<title>sequence:
 screw(lampbulb, lampbase, clampgripper, left_hand)&#45;&gt;selector:
 put_down(left_hand, defaultgripper, cube)</title>
<path fill="none" stroke="black" d="M2052.03,-327.17C2022.55,-323.57 1992.19,-320.1 1963.55,-317.24 1744.06,-295.32 1688.41,-298.96 1468.55,-281.24 1419.77,-277.31 1367.71,-272.88 1317.74,-268.51"/>
<polygon fill="black" stroke="black" points="1318.04,-265.02 1307.77,-267.64 1317.43,-272 1318.04,-265.02"/>
</g>
<!-- selector:
 change_tool(left_hand, defaultgripper, clampgripper) -->
<g id="node10" class="node">
<title>selector:
 change_tool(left_hand, defaultgripper, clampgripper)</title>
<polygon fill="#8deeee" stroke="black" points="2245.97,-229.19 2245.97,-259.82 2020.78,-281.48 1702.31,-281.48 1477.12,-259.82 1477.12,-229.19 1702.31,-207.53 2020.78,-207.53 2245.97,-229.19"/>
<text text-anchor="middle" x="1861.55" y="-250.1" font-family="Times,serif" font-size="18.00">selector:</text>
<text text-anchor="middle" x="1861.55" y="-230.1" font-family="Times,serif" font-size="18.00"> change_tool(left_hand, defaultgripper, clampgripper)</text>
</g>
<!-- sequence:
 screw(lampbulb, lampbase, clampgripper, left_hand)&#45;&gt;selector:
 change_tool(left_hand, defaultgripper, clampgripper) -->
<g id="edge9" class="edge">
<title>sequence:
 screw(lampbulb, lampbase, clampgripper, left_hand)&#45;&gt;selector:
 change_tool(left_hand, defaultgripper, clampgripper)</title>
<path fill="none" stroke="black" d="M2142.88,-327.08C2099.47,-314.49 2044.6,-298.58 1994.87,-284.16"/>
<polygon fill="black" stroke="black" points="1995.58,-280.72 1985,-281.3 1993.63,-287.45 1995.58,-280.72"/>
</g>
<!-- selector:
 pick_up(left_hand, clampgripper, lampbulb) -->
<g id="node16" class="node">
<title>selector:
 pick_up(left_hand, clampgripper, lampbulb)</title>
<polygon fill="#8deeee" stroke="black" points="2903.39,-229.19 2903.39,-259.82 2716.03,-281.48 2451.06,-281.48 2263.7,-259.82 2263.7,-229.19 2451.06,-207.53 2716.03,-207.53 2903.39,-229.19"/>
<text text-anchor="middle" x="2583.55" y="-250.1" font-family="Times,serif" font-size="18.00">selector:</text>
<text text-anchor="middle" x="2583.55" y="-230.1" font-family="Times,serif" font-size="18.00"> pick_up(left_hand, clampgripper, lampbulb)</text>
</g>
<!-- sequence:
 screw(lampbulb, lampbase, clampgripper, left_hand)&#45;&gt;selector:
 pick_up(left_hand, clampgripper, lampbulb) -->
<g id="edge15" class="edge">
<title>sequence:
 screw(lampbulb, lampbase, clampgripper, left_hand)&#45;&gt;selector:
 pick_up(left_hand, clampgripper, lampbulb)</title>
<path fill="none" stroke="black" d="M2302.22,-327.08C2345.63,-314.49 2400.49,-298.58 2450.22,-284.16"/>
<polygon fill="black" stroke="black" points="2451.46,-287.45 2460.09,-281.3 2449.51,-280.72 2451.46,-287.45"/>
</g>
<!-- action:
 screw(left_hand, clampgripper, lampbulb, lampbase) -->
<g id="node22" class="node">
<title>action:
 screw(left_hand, clampgripper, lampbulb, lampbase)</title>
<ellipse fill="lightgreen" stroke="black" cx="3274.55" cy="-244.5" rx="353.61" ry="33.88"/>
<text text-anchor="middle" x="3274.55" y="-250.1" font-family="Times,serif" font-size="18.00">action:</text>
<text text-anchor="middle" x="3274.55" y="-230.1" font-family="Times,serif" font-size="18.00"> screw(left_hand, clampgripper, lampbulb, lampbase)</text>
</g>
<!-- sequence:
 screw(lampbulb, lampbase, clampgripper, left_hand)&#45;&gt;action:
 screw(left_hand, clampgripper, lampbulb, lampbase) -->
<g id="edge21" class="edge">
<title>sequence:
 screw(lampbulb, lampbase, clampgripper, left_hand)&#45;&gt;action:
 screw(left_hand, clampgripper, lampbulb, lampbase)</title>
<path fill="none" stroke="black" d="M2453.74,-327.18C2622.4,-310.39 2850.8,-287.67 3023.85,-270.45"/>
<polygon fill="black" stroke="black" points="3024.26,-273.92 3033.86,-269.45 3023.57,-266.96 3024.26,-273.92"/>
</g>
<!-- target:
 is_empty(defaultgripper) -->
<g id="node5" class="node">
<title>target:
 is_empty(defaultgripper)</title>
<ellipse fill="#ffec8b" stroke="black" cx="669.55" cy="-137.82" rx="175.23" ry="33.88"/>
<text text-anchor="middle" x="669.55" y="-143.42" font-family="Times,serif" font-size="18.00">target:</text>
<text text-anchor="middle" x="669.55" y="-123.42" font-family="Times,serif" font-size="18.00"> is_empty(defaultgripper)</text>
</g>
<!-- selector:
 put_down(left_hand, defaultgripper, cube)&#45;&gt;target:
 is_empty(defaultgripper) -->
<g id="edge4" class="edge">
<title>selector:
 put_down(left_hand, defaultgripper, cube)&#45;&gt;target:
 is_empty(defaultgripper)</title>
<path fill="none" stroke="black" d="M931.09,-208.14C882.18,-195.17 827.39,-180.65 780.65,-168.27"/>
<polygon fill="black" stroke="black" points="781.36,-164.83 770.8,-165.66 779.57,-171.6 781.36,-164.83"/>
</g>
<!-- sequence:
 put_down(left_hand, defaultgripper, cube) -->
<g id="node6" class="node">
<title>sequence:
 put_down(left_hand, defaultgripper, cube)</title>
<polygon fill="#ff7f24" stroke="black" points="1266.05,-161.82 863.05,-161.82 863.05,-113.82 1266.05,-113.82 1266.05,-161.82"/>
<text text-anchor="middle" x="1064.55" y="-143.42" font-family="Times,serif" font-size="18.00">sequence:</text>
<text text-anchor="middle" x="1064.55" y="-123.42" font-family="Times,serif" font-size="18.00"> put_down(left_hand, defaultgripper, cube)</text>
</g>
<!-- selector:
 put_down(left_hand, defaultgripper, cube)&#45;&gt;sequence:
 put_down(left_hand, defaultgripper, cube) -->
<g id="edge5" class="edge">
<title>selector:
 put_down(left_hand, defaultgripper, cube)&#45;&gt;sequence:
 put_down(left_hand, defaultgripper, cube)</title>
<path fill="none" stroke="black" d="M1064.55,-207.48C1064.55,-196.09 1064.55,-183.57 1064.55,-172.36"/>
<polygon fill="black" stroke="black" points="1068.05,-172.11 1064.55,-162.11 1061.05,-172.11 1068.05,-172.11"/>
</g>
<!-- precondition:
 hold(left_hand, defaultgripper) -->
<g id="node7" class="node">
<title>precondition:
 hold(left_hand, defaultgripper)</title>
<ellipse fill="#ffec8b" stroke="black" cx="213.55" cy="-33.94" rx="213.59" ry="33.88"/>
<text text-anchor="middle" x="213.55" y="-39.54" font-family="Times,serif" font-size="18.00">precondition:</text>
<text text-anchor="middle" x="213.55" y="-19.54" font-family="Times,serif" font-size="18.00"> hold(left_hand, defaultgripper)</text>
</g>
<!-- sequence:
 put_down(left_hand, defaultgripper, cube)&#45;&gt;precondition:
 hold(left_hand, defaultgripper) -->
<g id="edge6" class="edge">
<title>sequence:
 put_down(left_hand, defaultgripper, cube)&#45;&gt;precondition:
 hold(left_hand, defaultgripper)</title>
<path fill="none" stroke="black" d="M925.98,-113.8C901.87,-110.19 877.01,-106.72 853.55,-103.88 668.87,-81.52 621.31,-89.48 436.55,-67.88 415.91,-65.47 394.24,-62.64 372.86,-59.67"/>
<polygon fill="black" stroke="black" points="373.11,-56.17 362.72,-58.25 372.14,-63.11 373.11,-56.17"/>
</g>
<!-- precondition:
 hold(defaultgripper, cube) -->
<g id="node8" class="node">
<title>precondition:
 hold(defaultgripper, cube)</title>
<ellipse fill="#ffec8b" stroke="black" cx="627.55" cy="-33.94" rx="182.37" ry="33.88"/>
<text text-anchor="middle" x="627.55" y="-39.54" font-family="Times,serif" font-size="18.00">precondition:</text>
<text text-anchor="middle" x="627.55" y="-19.54" font-family="Times,serif" font-size="18.00"> hold(defaultgripper, cube)</text>
</g>
<!-- sequence:
 put_down(left_hand, defaultgripper, cube)&#45;&gt;precondition:
 hold(defaultgripper, cube) -->
<g id="edge7" class="edge">
<title>sequence:
 put_down(left_hand, defaultgripper, cube)&#45;&gt;precondition:
 hold(defaultgripper, cube)</title>
<path fill="none" stroke="black" d="M965.66,-113.77C901.34,-98.77 817.05,-79.12 748.71,-63.19"/>
<polygon fill="black" stroke="black" points="749.28,-59.73 738.75,-60.87 747.69,-66.55 749.28,-59.73"/>
</g>
<!-- action:
 put_down(left_hand, defaultgripper, cube) -->
<g id="node9" class="node">
<title>action:
 put_down(left_hand, defaultgripper, cube)</title>
<ellipse fill="lightgreen" stroke="black" cx="1112.55" cy="-33.94" rx="284.93" ry="33.88"/>
<text text-anchor="middle" x="1112.55" y="-39.54" font-family="Times,serif" font-size="18.00">action:</text>
<text text-anchor="middle" x="1112.55" y="-19.54" font-family="Times,serif" font-size="18.00"> put_down(left_hand, defaultgripper, cube)</text>
</g>
<!-- sequence:
 put_down(left_hand, defaultgripper, cube)&#45;&gt;action:
 put_down(left_hand, defaultgripper, cube) -->
<g id="edge8" class="edge">
<title>sequence:
 put_down(left_hand, defaultgripper, cube)&#45;&gt;action:
 put_down(left_hand, defaultgripper, cube)</title>
<path fill="none" stroke="black" d="M1075.44,-113.7C1080.51,-102.94 1086.7,-89.79 1092.57,-77.35"/>
<polygon fill="black" stroke="black" points="1095.87,-78.55 1096.97,-68.01 1089.54,-75.57 1095.87,-78.55"/>
</g>
<!-- target:
 hold(left_hand, clampgripper) -->
<g id="node11" class="node">
<title>target:
 hold(left_hand, clampgripper)</title>
<ellipse fill="#ffec8b" stroke="black" cx="1584.55" cy="-137.82" rx="207.36" ry="33.88"/>
<text text-anchor="middle" x="1584.55" y="-143.42" font-family="Times,serif" font-size="18.00">target:</text>
<text text-anchor="middle" x="1584.55" y="-123.42" font-family="Times,serif" font-size="18.00"> hold(left_hand, clampgripper)</text>
</g>
<!-- selector:
 change_tool(left_hand, defaultgripper, clampgripper)&#45;&gt;target:
 hold(left_hand, clampgripper) -->
<g id="edge10" class="edge">
<title>selector:
 change_tool(left_hand, defaultgripper, clampgripper)&#45;&gt;target:
 hold(left_hand, clampgripper)</title>
<path fill="none" stroke="black" d="M1766.61,-207.62C1736.79,-196.36 1703.97,-183.95 1674.51,-172.82"/>
<polygon fill="black" stroke="black" points="1675.66,-169.51 1665.07,-169.25 1673.19,-176.06 1675.66,-169.51"/>
</g>
<!-- sequence:
 change_tool(left_hand, defaultgripper, clampgripper) -->
<g id="node12" class="node">
<title>sequence:
 change_tool(left_hand, defaultgripper, clampgripper)</title>
<polygon fill="#ff7f24" stroke="black" points="2311.55,-161.82 1809.55,-161.82 1809.55,-113.82 2311.55,-113.82 2311.55,-161.82"/>
<text text-anchor="middle" x="2060.55" y="-143.42" font-family="Times,serif" font-size="18.00">sequence:</text>
<text text-anchor="middle" x="2060.55" y="-123.42" font-family="Times,serif" font-size="18.00"> change_tool(left_hand, defaultgripper, clampgripper)</text>
</g>
<!-- selector:
 change_tool(left_hand, defaultgripper, clampgripper)&#45;&gt;sequence:
 change_tool(left_hand, defaultgripper, clampgripper) -->
<g id="edge11" class="edge">
<title>selector:
 change_tool(left_hand, defaultgripper, clampgripper)&#45;&gt;sequence:
 change_tool(left_hand, defaultgripper, clampgripper)</title>
<path fill="none" stroke="black" d="M1929.75,-207.62C1955.29,-194.19 1983.9,-179.14 2007.83,-166.56"/>
<polygon fill="black" stroke="black" points="2009.53,-169.61 2016.75,-161.86 2006.27,-163.42 2009.53,-169.61"/>
</g>
<!-- &quot;precondition:\n hold(left_hand, defaultgripper)&quot;* -->
<g id="node13" class="node">
<title>&quot;precondition:\n hold(left_hand, defaultgripper)&quot;*</title>
<ellipse fill="#ffec8b" stroke="black" cx="1641.55" cy="-33.94" rx="225.63" ry="33.88"/>
<text text-anchor="middle" x="1641.55" y="-39.54" font-family="Times,serif" font-size="18.00">&quot;precondition:</text>
<text text-anchor="middle" x="1641.55" y="-19.54" font-family="Times,serif" font-size="18.00"> hold(left_hand, defaultgripper)&quot;*</text>
</g>
<!-- sequence:
 change_tool(left_hand, defaultgripper, clampgripper)&#45;&gt;&quot;precondition:\n hold(left_hand, defaultgripper)&quot;* -->
<g id="edge12" class="edge">
<title>sequence:
 change_tool(left_hand, defaultgripper, clampgripper)&#45;&gt;&quot;precondition:\n hold(left_hand, defaultgripper)&quot;*</title>
<path fill="none" stroke="black" d="M1965.73,-113.77C1907.07,-99.5 1831.07,-81.02 1767.4,-65.54"/>
<polygon fill="black" stroke="black" points="1767.83,-62.05 1757.29,-63.08 1766.18,-68.85 1767.83,-62.05"/>
</g>
<!-- precondition:
 is_empty(defaultgripper) -->
<g id="node14" class="node">
<title>precondition:
 is_empty(defaultgripper)</title>
<ellipse fill="#ffec8b" stroke="black" cx="2060.55" cy="-33.94" rx="175.23" ry="33.88"/>
<text text-anchor="middle" x="2060.55" y="-39.54" font-family="Times,serif" font-size="18.00">precondition:</text>
<text text-anchor="middle" x="2060.55" y="-19.54" font-family="Times,serif" font-size="18.00"> is_empty(defaultgripper)</text>
</g>
<!-- sequence:
 change_tool(left_hand, defaultgripper, clampgripper)&#45;&gt;precondition:
 is_empty(defaultgripper) -->
<g id="edge13" class="edge">
<title>sequence:
 change_tool(left_hand, defaultgripper, clampgripper)&#45;&gt;precondition:
 is_empty(defaultgripper)</title>
<path fill="none" stroke="black" d="M2060.55,-113.7C2060.55,-103.16 2060.55,-90.31 2060.55,-78.08"/>
<polygon fill="black" stroke="black" points="2064.05,-78.01 2060.55,-68.01 2057.05,-78.01 2064.05,-78.01"/>
</g>
<!-- action:
 change_tool(left_hand, defaultgripper, clampgripper) -->
<g id="node15" class="node">
<title>action:
 change_tool(left_hand, defaultgripper, clampgripper)</title>
<ellipse fill="lightgreen" stroke="black" cx="2608.55" cy="-33.94" rx="354.94" ry="33.88"/>
<text text-anchor="middle" x="2608.55" y="-39.54" font-family="Times,serif" font-size="18.00">action:</text>
<text text-anchor="middle" x="2608.55" y="-19.54" font-family="Times,serif" font-size="18.00"> change_tool(left_hand, defaultgripper, clampgripper)</text>
</g>
<!-- sequence:
 change_tool(left_hand, defaultgripper, clampgripper)&#45;&gt;action:
 change_tool(left_hand, defaultgripper, clampgripper) -->
<g id="edge14" class="edge">
<title>sequence:
 change_tool(left_hand, defaultgripper, clampgripper)&#45;&gt;action:
 change_tool(left_hand, defaultgripper, clampgripper)</title>
<path fill="none" stroke="black" d="M2184.55,-113.77C2260.18,-99.71 2357.83,-81.55 2440.36,-66.21"/>
<polygon fill="black" stroke="black" points="2441.15,-69.62 2450.34,-64.35 2439.87,-62.74 2441.15,-69.62"/>
</g>
<!-- target:
 hold(clampgripper, lampbulb) -->
<g id="node17" class="node">
<title>target:
 hold(clampgripper, lampbulb)</title>
<ellipse fill="#ffec8b" stroke="black" cx="2583.55" cy="-137.82" rx="205.54" ry="33.88"/>
<text text-anchor="middle" x="2583.55" y="-143.42" font-family="Times,serif" font-size="18.00">target:</text>
<text text-anchor="middle" x="2583.55" y="-123.42" font-family="Times,serif" font-size="18.00"> hold(clampgripper, lampbulb)</text>
</g>
<!-- selector:
 pick_up(left_hand, clampgripper, lampbulb)&#45;&gt;target:
 hold(clampgripper, lampbulb) -->
<g id="edge16" class="edge">
<title>selector:
 pick_up(left_hand, clampgripper, lampbulb)&#45;&gt;target:
 hold(clampgripper, lampbulb)</title>
<path fill="none" stroke="black" d="M2583.55,-207.48C2583.55,-199.32 2583.55,-190.58 2583.55,-182.15"/>
<polygon fill="black" stroke="black" points="2587.05,-182.1 2583.55,-172.1 2580.05,-182.1 2587.05,-182.1"/>
</g>
<!-- sequence:
 pick_up(left_hand, clampgripper, lampbulb) -->
<g id="node18" class="node">
<title>sequence:
 pick_up(left_hand, clampgripper, lampbulb)</title>
<polygon fill="#ff7f24" stroke="black" points="3556.55,-161.82 3138.55,-161.82 3138.55,-113.82 3556.55,-113.82 3556.55,-161.82"/>
<text text-anchor="middle" x="3347.55" y="-143.42" font-family="Times,serif" font-size="18.00">sequence:</text>
<text text-anchor="middle" x="3347.55" y="-123.42" font-family="Times,serif" font-size="18.00"> pick_up(left_hand, clampgripper, lampbulb)</text>
</g>
<!-- selector:
 pick_up(left_hand, clampgripper, lampbulb)&#45;&gt;sequence:
 pick_up(left_hand, clampgripper, lampbulb) -->
<g id="edge17" class="edge">
<title>selector:
 pick_up(left_hand, clampgripper, lampbulb)&#45;&gt;sequence:
 pick_up(left_hand, clampgripper, lampbulb)</title>
<path fill="none" stroke="black" d="M2786.78,-215.66C2905.98,-199.32 3055.15,-178.89 3169.68,-163.19"/>
<polygon fill="black" stroke="black" points="3170.17,-166.66 3179.6,-161.83 3169.22,-159.72 3170.17,-166.66"/>
</g>
<!-- precondition:
 is_empty(clampgripper) -->
<g id="node19" class="node">
<title>precondition:
 is_empty(clampgripper)</title>
<ellipse fill="#ffec8b" stroke="black" cx="3150.55" cy="-33.94" rx="169" ry="33.88"/>
<text text-anchor="middle" x="3150.55" y="-39.54" font-family="Times,serif" font-size="18.00">precondition:</text>
<text text-anchor="middle" x="3150.55" y="-19.54" font-family="Times,serif" font-size="18.00"> is_empty(clampgripper)</text>
</g>
<!-- sequence:
 pick_up(left_hand, clampgripper, lampbulb)&#45;&gt;precondition:
 is_empty(clampgripper) -->
<g id="edge18" class="edge">
<title>sequence:
 pick_up(left_hand, clampgripper, lampbulb)&#45;&gt;precondition:
 is_empty(clampgripper)</title>
<path fill="none" stroke="black" d="M3302.84,-113.7C3278.26,-100.99 3247.24,-84.95 3219.61,-70.66"/>
<polygon fill="black" stroke="black" points="3220.88,-67.37 3210.39,-65.89 3217.66,-73.59 3220.88,-67.37"/>
</g>
<!-- precondition:
 hold(left_hand, clampgripper) -->
<g id="node20" class="node">
<title>precondition:
 hold(left_hand, clampgripper)</title>
<ellipse fill="#ffec8b" stroke="black" cx="3544.55" cy="-33.94" rx="207.36" ry="33.88"/>
<text text-anchor="middle" x="3544.55" y="-39.54" font-family="Times,serif" font-size="18.00">precondition:</text>
<text text-anchor="middle" x="3544.55" y="-19.54" font-family="Times,serif" font-size="18.00"> hold(left_hand, clampgripper)</text>
</g>
<!-- sequence:
 pick_up(left_hand, clampgripper, lampbulb)&#45;&gt;precondition:
 hold(left_hand, clampgripper) -->
<g id="edge19" class="edge">
<title>sequence:
 pick_up(left_hand, clampgripper, lampbulb)&#45;&gt;precondition:
 hold(left_hand, clampgripper)</title>
<path fill="none" stroke="black" d="M3392.25,-113.7C3416.52,-101.15 3447.08,-85.35 3474.45,-71.19"/>
<polygon fill="black" stroke="black" points="3476.32,-74.17 3483.59,-66.46 3473.1,-67.95 3476.32,-74.17"/>
</g>
<!-- action:
 pick_up(left_hand, clampgripper, lampbulb) -->
<g id="node21" class="node">
<title>action:
 pick_up(left_hand, clampgripper, lampbulb)</title>
<ellipse fill="lightgreen" stroke="black" cx="4065.55" cy="-33.94" rx="295.64" ry="33.88"/>
<text text-anchor="middle" x="4065.55" y="-39.54" font-family="Times,serif" font-size="18.00">action:</text>
<text text-anchor="middle" x="4065.55" y="-19.54" font-family="Times,serif" font-size="18.00"> pick_up(left_hand, clampgripper, lampbulb)</text>
</g>
<!-- sequence:
 pick_up(left_hand, clampgripper, lampbulb)&#45;&gt;action:
 pick_up(left_hand, clampgripper, lampbulb) -->
<g id="edge20" class="edge">
<title>sequence:
 pick_up(left_hand, clampgripper, lampbulb)&#45;&gt;action:
 pick_up(left_hand, clampgripper, lampbulb)</title>
<path fill="none" stroke="black" d="M3510.02,-113.77C3617.94,-98.45 3760.11,-78.28 3873.61,-62.18"/>
<polygon fill="black" stroke="black" points="3874.39,-65.6 3883.8,-60.73 3873.41,-58.67 3874.39,-65.6"/>
</g>
</g>
</svg>
