<?xml version="1.0" encoding="UTF-8" standalone="no"?>
<!DOCTYPE svg PUBLIC "-//W3C//DTD SVG 1.1//EN"
 "http://www.w3.org/Graphics/SVG/1.1/DTD/svg11.dtd">
<!-- Generated by graphviz version 2.43.0 (0)
 -->
<!-- Title: pastafarianism Pages: 1 -->
<svg width="1286pt" height="476pt"
 viewBox="0.00 0.00 1285.56 476.00" xmlns="http://www.w3.org/2000/svg" xmlns:xlink="http://www.w3.org/1999/xlink">
<g id="graph0" class="graph" transform="scale(1 1) rotate(0) translate(4 472)">
<title>pastafarianism</title>
<polygon fill="white" stroke="transparent" points="-4,4 -4,-472 1281.56,-472 1281.56,4 -4,4"/>
<!-- Sequence -->
<g id="node1" class="node">
<title>Sequence</title>
<polygon fill="orange" stroke="black" points="678.42,-468 616.42,-468 616.42,-432 678.42,-432 678.42,-468"/>
<text text-anchor="middle" x="647.42" y="-447.8" font-family="Times,serif" font-size="9.00">Sequence</text>
</g>
<!-- Fallback -->
<g id="node2" class="node">
<title>Fallback</title>
<polygon fill="cyan" stroke="black" points="388.41,-370.54 388.41,-385.46 367.91,-396 338.93,-396 318.43,-385.46 318.43,-370.54 338.93,-360 367.91,-360 388.41,-370.54"/>
<text text-anchor="middle" x="353.42" y="-375.8" font-family="Times,serif" font-size="9.00">Fallback</text>
</g>
<!-- Sequence&#45;&gt;Fallback -->
<g id="edge1" class="edge">
<title>Sequence&#45;&gt;Fallback</title>
<path fill="none" stroke="black" d="M616.24,-441.58C563.29,-428.97 455.75,-403.36 395.95,-389.13"/>
<polygon fill="black" stroke="black" points="396.61,-385.69 386.07,-386.77 394.99,-392.5 396.61,-385.69"/>
</g>
<!-- Fallback &#160;&#160; -->
<g id="node13" class="node">
<title>Fallback &#160;&#160;</title>
<polygon fill="cyan" stroke="black" points="682.41,-370.54 682.41,-385.46 661.91,-396 632.93,-396 612.43,-385.46 612.43,-370.54 632.93,-360 661.91,-360 682.41,-370.54"/>
<text text-anchor="middle" x="647.42" y="-375.8" font-family="Times,serif" font-size="9.00">Fallback</text>
</g>
<!-- Sequence&#45;&gt;Fallback &#160;&#160; -->
<g id="edge12" class="edge">
<title>Sequence&#45;&gt;Fallback &#160;&#160;</title>
<path fill="none" stroke="black" d="M647.42,-431.7C647.42,-423.98 647.42,-414.71 647.42,-406.11"/>
<polygon fill="black" stroke="black" points="650.92,-406.1 647.42,-396.1 643.92,-406.1 650.92,-406.1"/>
</g>
<!-- Fallback &#160;&#160;&#160;&#160;&#160; -->
<g id="node24" class="node">
<title>Fallback &#160;&#160;&#160;&#160;&#160;</title>
<polygon fill="cyan" stroke="black" points="974.41,-370.54 974.41,-385.46 953.91,-396 924.93,-396 904.43,-385.46 904.43,-370.54 924.93,-360 953.91,-360 974.41,-370.54"/>
<text text-anchor="middle" x="939.42" y="-375.8" font-family="Times,serif" font-size="9.00">Fallback</text>
</g>
<!-- Sequence&#45;&gt;Fallback &#160;&#160;&#160;&#160;&#160; -->
<g id="edge23" class="edge">
<title>Sequence&#45;&gt;Fallback &#160;&#160;&#160;&#160;&#160;</title>
<path fill="none" stroke="black" d="M678.67,-441.51C731.24,-428.91 837.44,-403.45 896.8,-389.22"/>
<polygon fill="black" stroke="black" points="897.71,-392.6 906.62,-386.86 896.08,-385.79 897.71,-392.6"/>
</g>
<!-- object_at YellowBox [0.0, 0.0, 0.175] 0.02 KittingBox -->
<g id="node3" class="node">
<title>object_at YellowBox [0.0, 0.0, 0.175] 0.02 KittingBox</title>
<ellipse fill="lightgray" stroke="black" cx="152.42" cy="-306" rx="152.34" ry="18"/>
<text text-anchor="middle" x="152.42" y="-303.8" font-family="Times,serif" font-size="9.00">object_at YellowBox [0.0, 0.0, 0.175] 0.02 KittingBox</text>
</g>
<!-- Fallback&#45;&gt;object_at YellowBox [0.0, 0.0, 0.175] 0.02 KittingBox -->
<g id="edge2" class="edge">
<title>Fallback&#45;&gt;object_at YellowBox [0.0, 0.0, 0.175] 0.02 KittingBox</title>
<path fill="none" stroke="black" d="M325.05,-367.12C294.95,-356.64 246.61,-339.8 208.72,-326.61"/>
<polygon fill="black" stroke="black" points="209.44,-323.15 198.84,-323.17 207.13,-329.76 209.44,-323.15"/>
</g>
<!-- Sequence  -->
<g id="node4" class="node">
<title>Sequence </title>
<polygon fill="orange" stroke="black" points="384.42,-324 322.42,-324 322.42,-288 384.42,-288 384.42,-324"/>
<text text-anchor="middle" x="353.42" y="-303.8" font-family="Times,serif" font-size="9.00">Sequence</text>
</g>
<!-- Fallback&#45;&gt;Sequence  -->
<g id="edge3" class="edge">
<title>Fallback&#45;&gt;Sequence </title>
<path fill="none" stroke="black" d="M353.42,-359.7C353.42,-351.98 353.42,-342.71 353.42,-334.11"/>
<polygon fill="black" stroke="black" points="356.92,-334.1 353.42,-324.1 349.92,-334.1 356.92,-334.1"/>
</g>
<!-- Fallback  -->
<g id="node5" class="node">
<title>Fallback </title>
<polygon fill="cyan" stroke="black" points="190.41,-226.54 190.41,-241.46 169.91,-252 140.93,-252 120.43,-241.46 120.43,-226.54 140.93,-216 169.91,-216 190.41,-226.54"/>
<text text-anchor="middle" x="155.42" y="-231.8" font-family="Times,serif" font-size="9.00">Fallback</text>
</g>
<!-- Sequence &#45;&gt;Fallback  -->
<g id="edge4" class="edge">
<title>Sequence &#45;&gt;Fallback </title>
<path fill="none" stroke="black" d="M322.09,-291.35C319.17,-290.18 316.25,-289.05 313.42,-288 263.58,-269.59 249.56,-269.58 199.42,-252 196.9,-251.12 194.31,-250.18 191.7,-249.22"/>
<polygon fill="black" stroke="black" points="192.91,-245.94 182.31,-245.7 190.45,-252.49 192.91,-245.94"/>
</g>
<!-- place0 YellowBox [0.0, 0.0, 0.175] 0.02 KittingBox -->
<g id="node12" class="node">
<title>place0 YellowBox [0.0, 0.0, 0.175] 0.02 KittingBox</title>
<ellipse fill="lightgray" stroke="black" cx="354.42" cy="-234" rx="146.14" ry="18"/>
<text text-anchor="middle" x="354.42" y="-231.8" font-family="Times,serif" font-size="9.00">place0 YellowBox [0.0, 0.0, 0.175] 0.02 KittingBox</text>
</g>
<!-- Sequence &#45;&gt;place0 YellowBox [0.0, 0.0, 0.175] 0.02 KittingBox -->
<g id="edge11" class="edge">
<title>Sequence &#45;&gt;place0 YellowBox [0.0, 0.0, 0.175] 0.02 KittingBox</title>
<path fill="none" stroke="black" d="M353.67,-287.7C353.78,-279.98 353.91,-270.71 354.03,-262.11"/>
<polygon fill="black" stroke="black" points="357.53,-262.15 354.18,-252.1 350.53,-262.05 357.53,-262.15"/>
</g>
<!-- in_gripper YellowBox -->
<g id="node6" class="node">
<title>in_gripper YellowBox</title>
<ellipse fill="lightgray" stroke="black" cx="121.42" cy="-162" rx="66.29" ry="18"/>
<text text-anchor="middle" x="121.42" y="-159.8" font-family="Times,serif" font-size="9.00">in_gripper YellowBox</text>
</g>
<!-- Fallback &#45;&gt;in_gripper YellowBox -->
<g id="edge5" class="edge">
<title>Fallback &#45;&gt;in_gripper YellowBox</title>
<path fill="none" stroke="black" d="M147.02,-215.7C143.15,-207.73 138.47,-198.1 134.18,-189.26"/>
<polygon fill="black" stroke="black" points="137.25,-187.57 129.73,-180.1 130.95,-190.63 137.25,-187.57"/>
</g>
<!-- Sequence &#160; -->
<g id="node7" class="node">
<title>Sequence &#160;</title>
<polygon fill="orange" stroke="black" points="267.42,-180 205.42,-180 205.42,-144 267.42,-144 267.42,-180"/>
<text text-anchor="middle" x="236.42" y="-159.8" font-family="Times,serif" font-size="9.00">Sequence</text>
</g>
<!-- Fallback &#45;&gt;Sequence &#160; -->
<g id="edge6" class="edge">
<title>Fallback &#45;&gt;Sequence &#160;</title>
<path fill="none" stroke="black" d="M173.4,-217.46C183.77,-208.5 197.04,-197.03 208.72,-186.93"/>
<polygon fill="black" stroke="black" points="211.23,-189.4 216.51,-180.21 206.65,-184.1 211.23,-189.4"/>
</g>
<!-- Fallback &#160; -->
<g id="node8" class="node">
<title>Fallback &#160;</title>
<polygon fill="cyan" stroke="black" points="253.41,-82.54 253.41,-97.46 232.91,-108 203.93,-108 183.43,-97.46 183.43,-82.54 203.93,-72 232.91,-72 253.41,-82.54"/>
<text text-anchor="middle" x="218.42" y="-87.8" font-family="Times,serif" font-size="9.00">Fallback</text>
</g>
<!-- Sequence &#160;&#45;&gt;Fallback &#160; -->
<g id="edge7" class="edge">
<title>Sequence &#160;&#45;&gt;Fallback &#160;</title>
<path fill="none" stroke="black" d="M231.97,-143.7C229.97,-135.9 227.55,-126.51 225.32,-117.83"/>
<polygon fill="black" stroke="black" points="228.7,-116.92 222.82,-108.1 221.92,-118.66 228.7,-116.92"/>
</g>
<!-- pick0 YellowBox -->
<g id="node11" class="node">
<title>pick0 YellowBox</title>
<ellipse fill="lightgray" stroke="black" cx="324.42" cy="-90" rx="53.23" ry="18"/>
<text text-anchor="middle" x="324.42" y="-87.8" font-family="Times,serif" font-size="9.00">pick0 YellowBox</text>
</g>
<!-- Sequence &#160;&#45;&gt;pick0 YellowBox -->
<g id="edge10" class="edge">
<title>Sequence &#160;&#45;&gt;pick0 YellowBox</title>
<path fill="none" stroke="black" d="M258.17,-143.7C269.67,-134.55 283.92,-123.22 296.25,-113.41"/>
<polygon fill="black" stroke="black" points="298.78,-115.87 304.42,-106.91 294.42,-110.39 298.78,-115.87"/>
</g>
<!-- gripper_state open -->
<g id="node9" class="node">
<title>gripper_state open</title>
<ellipse fill="lightgray" stroke="black" cx="135.42" cy="-18" rx="60.09" ry="18"/>
<text text-anchor="middle" x="135.42" y="-15.8" font-family="Times,serif" font-size="9.00">gripper_state open</text>
</g>
<!-- Fallback &#160;&#45;&gt;gripper_state open -->
<g id="edge8" class="edge">
<title>Fallback &#160;&#45;&gt;gripper_state open</title>
<path fill="none" stroke="black" d="M200,-73.46C188.95,-64.15 174.7,-52.13 162.4,-41.76"/>
<polygon fill="black" stroke="black" points="164.56,-38.99 154.65,-35.22 160.04,-44.34 164.56,-38.99"/>
</g>
<!-- open_gripper -->
<g id="node10" class="node">
<title>open_gripper</title>
<ellipse fill="lightgray" stroke="black" cx="259.42" cy="-18" rx="45.72" ry="18"/>
<text text-anchor="middle" x="259.42" y="-15.8" font-family="Times,serif" font-size="9.00">open_gripper</text>
</g>
<!-- Fallback &#160;&#45;&gt;open_gripper -->
<g id="edge9" class="edge">
<title>Fallback &#160;&#45;&gt;open_gripper</title>
<path fill="none" stroke="black" d="M228.56,-71.7C233.39,-63.44 239.28,-53.39 244.6,-44.3"/>
<polygon fill="black" stroke="black" points="247.65,-46.02 249.68,-35.62 241.61,-42.48 247.65,-46.02"/>
</g>
<!-- object_at GreenBox [0.0, 0.0, 0.22] 0.02 YellowBox -->
<g id="node14" class="node">
<title>object_at GreenBox [0.0, 0.0, 0.22] 0.02 YellowBox</title>
<ellipse fill="lightgray" stroke="black" cx="549.42" cy="-306" rx="146.79" ry="18"/>
<text text-anchor="middle" x="549.42" y="-303.8" font-family="Times,serif" font-size="9.00">object_at GreenBox [0.0, 0.0, 0.22] 0.02 YellowBox</text>
</g>
<!-- Fallback &#160;&#160;&#45;&gt;object_at GreenBox [0.0, 0.0, 0.22] 0.02 YellowBox -->
<g id="edge13" class="edge">
<title>Fallback &#160;&#160;&#45;&gt;object_at GreenBox [0.0, 0.0, 0.22] 0.02 YellowBox</title>
<path fill="none" stroke="black" d="M627.11,-362.5C613.99,-353.12 596.63,-340.72 581.65,-330.02"/>
<polygon fill="black" stroke="black" points="583.32,-326.91 573.15,-323.95 579.25,-332.61 583.32,-326.91"/>
</g>
<!-- Sequence &#160;&#160; -->
<g id="node15" class="node">
<title>Sequence &#160;&#160;</title>
<polygon fill="orange" stroke="black" points="776.42,-324 714.42,-324 714.42,-288 776.42,-288 776.42,-324"/>
<text text-anchor="middle" x="745.42" y="-303.8" font-family="Times,serif" font-size="9.00">Sequence</text>
</g>
<!-- Fallback &#160;&#160;&#45;&gt;Sequence &#160;&#160; -->
<g id="edge14" class="edge">
<title>Fallback &#160;&#160;&#45;&gt;Sequence &#160;&#160;</title>
<path fill="none" stroke="black" d="M667.73,-362.5C680.75,-353.19 697.96,-340.9 712.87,-330.25"/>
<polygon fill="black" stroke="black" points="715.23,-332.86 721.34,-324.2 711.16,-327.17 715.23,-332.86"/>
</g>
<!-- Fallback &#160;&#160;&#160; -->
<g id="node16" class="node">
<title>Fallback &#160;&#160;&#160;</title>
<polygon fill="cyan" stroke="black" points="594.41,-226.54 594.41,-241.46 573.91,-252 544.93,-252 524.43,-241.46 524.43,-226.54 544.93,-216 573.91,-216 594.41,-226.54"/>
<text text-anchor="middle" x="559.42" y="-231.8" font-family="Times,serif" font-size="9.00">Fallback</text>
</g>
<!-- Sequence &#160;&#160;&#45;&gt;Fallback &#160;&#160;&#160; -->
<g id="edge15" class="edge">
<title>Sequence &#160;&#160;&#45;&gt;Fallback &#160;&#160;&#160;</title>
<path fill="none" stroke="black" d="M714.05,-291.45C711.14,-290.26 708.23,-289.09 705.42,-288 660.61,-270.59 648.51,-268.66 603.42,-252 601.07,-251.13 598.65,-250.23 596.21,-249.31"/>
<polygon fill="black" stroke="black" points="597.43,-246.02 586.83,-245.73 594.93,-252.57 597.43,-246.02"/>
</g>
<!-- place0 GreenBox [0.0, 0.0, 0.22] 0.02 YellowBox -->
<g id="node23" class="node">
<title>place0 GreenBox [0.0, 0.0, 0.22] 0.02 YellowBox</title>
<ellipse fill="lightgray" stroke="black" cx="752.42" cy="-234" rx="140.09" ry="18"/>
<text text-anchor="middle" x="752.42" y="-231.8" font-family="Times,serif" font-size="9.00">place0 GreenBox [0.0, 0.0, 0.22] 0.02 YellowBox</text>
</g>
<!-- Sequence &#160;&#160;&#45;&gt;place0 GreenBox [0.0, 0.0, 0.22] 0.02 YellowBox -->
<g id="edge22" class="edge">
<title>Sequence &#160;&#160;&#45;&gt;place0 GreenBox [0.0, 0.0, 0.22] 0.02 YellowBox</title>
<path fill="none" stroke="black" d="M747.15,-287.7C747.92,-279.98 748.85,-270.71 749.71,-262.11"/>
<polygon fill="black" stroke="black" points="753.2,-262.4 750.71,-252.1 746.23,-261.71 753.2,-262.4"/>
</g>
<!-- in_gripper GreenBox -->
<g id="node17" class="node">
<title>in_gripper GreenBox</title>
<ellipse fill="lightgray" stroke="black" cx="453.42" cy="-162" rx="65.64" ry="18"/>
<text text-anchor="middle" x="453.42" y="-159.8" font-family="Times,serif" font-size="9.00">in_gripper GreenBox</text>
</g>
<!-- Fallback &#160;&#160;&#160;&#45;&gt;in_gripper GreenBox -->
<g id="edge16" class="edge">
<title>Fallback &#160;&#160;&#160;&#45;&gt;in_gripper GreenBox</title>
<path fill="none" stroke="black" d="M538.48,-219.17C523.58,-209.33 503.26,-195.92 486.22,-184.66"/>
<polygon fill="black" stroke="black" points="487.93,-181.6 477.66,-179.01 484.07,-187.44 487.93,-181.6"/>
</g>
<!-- Sequence &#160;&#160;&#160; -->
<g id="node18" class="node">
<title>Sequence &#160;&#160;&#160;</title>
<polygon fill="orange" stroke="black" points="599.42,-180 537.42,-180 537.42,-144 599.42,-144 599.42,-180"/>
<text text-anchor="middle" x="568.42" y="-159.8" font-family="Times,serif" font-size="9.00">Sequence</text>
</g>
<!-- Fallback &#160;&#160;&#160;&#45;&gt;Sequence &#160;&#160;&#160; -->
<g id="edge17" class="edge">
<title>Fallback &#160;&#160;&#160;&#45;&gt;Sequence &#160;&#160;&#160;</title>
<path fill="none" stroke="black" d="M561.65,-215.7C562.64,-207.98 563.83,-198.71 564.93,-190.11"/>
<polygon fill="black" stroke="black" points="568.42,-190.47 566.22,-180.1 561.47,-189.58 568.42,-190.47"/>
</g>
<!-- Fallback &#160;&#160;&#160;&#160; -->
<g id="node19" class="node">
<title>Fallback &#160;&#160;&#160;&#160;</title>
<polygon fill="cyan" stroke="black" points="502.41,-82.54 502.41,-97.46 481.91,-108 452.93,-108 432.43,-97.46 432.43,-82.54 452.93,-72 481.91,-72 502.41,-82.54"/>
<text text-anchor="middle" x="467.42" y="-87.8" font-family="Times,serif" font-size="9.00">Fallback</text>
</g>
<!-- Sequence &#160;&#160;&#160;&#45;&gt;Fallback &#160;&#160;&#160;&#160; -->
<g id="edge18" class="edge">
<title>Sequence &#160;&#160;&#160;&#45;&gt;Fallback &#160;&#160;&#160;&#160;</title>
<path fill="none" stroke="black" d="M543.71,-143.88C529.36,-133.93 511.21,-121.35 496.21,-110.95"/>
<polygon fill="black" stroke="black" points="498.01,-107.94 487.8,-105.12 494.02,-113.7 498.01,-107.94"/>
</g>
<!-- pick0 GreenBox -->
<g id="node22" class="node">
<title>pick0 GreenBox</title>
<ellipse fill="lightgray" stroke="black" cx="573.42" cy="-90" rx="52.58" ry="18"/>
<text text-anchor="middle" x="573.42" y="-87.8" font-family="Times,serif" font-size="9.00">pick0 GreenBox</text>
</g>
<!-- Sequence &#160;&#160;&#160;&#45;&gt;pick0 GreenBox -->
<g id="edge21" class="edge">
<title>Sequence &#160;&#160;&#160;&#45;&gt;pick0 GreenBox</title>
<path fill="none" stroke="black" d="M569.66,-143.7C570.21,-135.98 570.87,-126.71 571.48,-118.11"/>
<polygon fill="black" stroke="black" points="574.98,-118.33 572.2,-108.1 568,-117.83 574.98,-118.33"/>
</g>
<!-- gripper_state open  -->
<g id="node20" class="node">
<title>gripper_state open </title>
<ellipse fill="lightgray" stroke="black" cx="427.42" cy="-18" rx="60.09" ry="18"/>
<text text-anchor="middle" x="427.42" y="-15.8" font-family="Times,serif" font-size="9.00">gripper_state open</text>
</g>
<!-- Fallback &#160;&#160;&#160;&#160;&#45;&gt;gripper_state open  -->
<g id="edge19" class="edge">
<title>Fallback &#160;&#160;&#160;&#160;&#45;&gt;gripper_state open </title>
<path fill="none" stroke="black" d="M457.53,-71.7C452.93,-63.64 447.36,-53.89 442.27,-44.98"/>
<polygon fill="black" stroke="black" points="445.19,-43.05 437.19,-36.1 439.12,-46.52 445.19,-43.05"/>
</g>
<!-- open_gripper  -->
<g id="node21" class="node">
<title>open_gripper </title>
<ellipse fill="lightgray" stroke="black" cx="551.42" cy="-18" rx="45.72" ry="18"/>
<text text-anchor="middle" x="551.42" y="-15.8" font-family="Times,serif" font-size="9.00">open_gripper</text>
</g>
<!-- Fallback &#160;&#160;&#160;&#160;&#45;&gt;open_gripper  -->
<g id="edge20" class="edge">
<title>Fallback &#160;&#160;&#160;&#160;&#45;&gt;open_gripper </title>
<path fill="none" stroke="black" d="M485.65,-73.81C497.05,-64.31 511.93,-51.91 524.66,-41.3"/>
<polygon fill="black" stroke="black" points="527.21,-43.73 532.65,-34.64 522.72,-38.36 527.21,-43.73"/>
</g>
<!-- object_at BlueBox [0.12, 0.0, 0.12] 0.02 GreenBox -->
<g id="node25" class="node">
<title>object_at BlueBox [0.12, 0.0, 0.12] 0.02 GreenBox</title>
<ellipse fill="lightgray" stroke="black" cx="939.42" cy="-306" rx="145.48" ry="18"/>
<text text-anchor="middle" x="939.42" y="-303.8" font-family="Times,serif" font-size="9.00">object_at BlueBox [0.12, 0.0, 0.12] 0.02 GreenBox</text>
</g>
<!-- Fallback &#160;&#160;&#160;&#160;&#160;&#45;&gt;object_at BlueBox [0.12, 0.0, 0.12] 0.02 GreenBox -->
<g id="edge24" class="edge">
<title>Fallback &#160;&#160;&#160;&#160;&#160;&#45;&gt;object_at BlueBox [0.12, 0.0, 0.12] 0.02 GreenBox</title>
<path fill="none" stroke="black" d="M939.42,-359.7C939.42,-351.98 939.42,-342.71 939.42,-334.11"/>
<polygon fill="black" stroke="black" points="942.92,-334.1 939.42,-324.1 935.92,-334.1 942.92,-334.1"/>
</g>
<!-- Sequence &#160;&#160;&#160;&#160; -->
<g id="node26" class="node">
<title>Sequence &#160;&#160;&#160;&#160;</title>
<polygon fill="orange" stroke="black" points="1164.42,-324 1102.42,-324 1102.42,-288 1164.42,-288 1164.42,-324"/>
<text text-anchor="middle" x="1133.42" y="-303.8" font-family="Times,serif" font-size="9.00">Sequence</text>
</g>
<!-- Fallback &#160;&#160;&#160;&#160;&#160;&#45;&gt;Sequence &#160;&#160;&#160;&#160; -->
<g id="edge25" class="edge">
<title>Fallback &#160;&#160;&#160;&#160;&#160;&#45;&gt;Sequence &#160;&#160;&#160;&#160;</title>
<path fill="none" stroke="black" d="M968.88,-367.55C998.15,-358 1044.48,-342.5 1092.72,-324.15"/>
<polygon fill="black" stroke="black" points="1093.98,-327.42 1102.06,-320.57 1091.47,-320.88 1093.98,-327.42"/>
</g>
<!-- Fallback &#160;&#160;&#160;&#160;&#160;&#160; -->
<g id="node27" class="node">
<title>Fallback &#160;&#160;&#160;&#160;&#160;&#160;</title>
<polygon fill="cyan" stroke="black" points="981.41,-226.54 981.41,-241.46 960.91,-252 931.93,-252 911.43,-241.46 911.43,-226.54 931.93,-216 960.91,-216 981.41,-226.54"/>
<text text-anchor="middle" x="946.42" y="-231.8" font-family="Times,serif" font-size="9.00">Fallback</text>
</g>
<!-- Sequence &#160;&#160;&#160;&#160;&#45;&gt;Fallback &#160;&#160;&#160;&#160;&#160;&#160; -->
<g id="edge26" class="edge">
<title>Sequence &#160;&#160;&#160;&#160;&#45;&gt;Fallback &#160;&#160;&#160;&#160;&#160;&#160;</title>
<path fill="none" stroke="black" d="M1102.06,-291.44C1099.15,-290.25 1096.24,-289.09 1093.42,-288 1048.19,-270.51 1035.93,-268.74 990.42,-252 988.07,-251.13 985.65,-250.23 983.21,-249.32"/>
<polygon fill="black" stroke="black" points="984.42,-246.03 973.83,-245.75 981.93,-252.57 984.42,-246.03"/>
</g>
<!-- place0 BlueBox [0.12, 0.0, 0.12] 0.02 GreenBox -->
<g id="node34" class="node">
<title>place0 BlueBox [0.12, 0.0, 0.12] 0.02 GreenBox</title>
<ellipse fill="lightgray" stroke="black" cx="1138.42" cy="-234" rx="139.28" ry="18"/>
<text text-anchor="middle" x="1138.42" y="-231.8" font-family="Times,serif" font-size="9.00">place0 BlueBox [0.12, 0.0, 0.12] 0.02 GreenBox</text>
</g>
<!-- Sequence &#160;&#160;&#160;&#160;&#45;&gt;place0 BlueBox [0.12, 0.0, 0.12] 0.02 GreenBox -->
<g id="edge33" class="edge">
<title>Sequence &#160;&#160;&#160;&#160;&#45;&gt;place0 BlueBox [0.12, 0.0, 0.12] 0.02 GreenBox</title>
<path fill="none" stroke="black" d="M1134.66,-287.7C1135.21,-279.98 1135.87,-270.71 1136.48,-262.11"/>
<polygon fill="black" stroke="black" points="1139.98,-262.33 1137.2,-252.1 1133,-261.83 1139.98,-262.33"/>
</g>
<!-- in_gripper BlueBox -->
<g id="node28" class="node">
<title>in_gripper BlueBox</title>
<ellipse fill="lightgray" stroke="black" cx="890.42" cy="-162" rx="61.55" ry="18"/>
<text text-anchor="middle" x="890.42" y="-159.8" font-family="Times,serif" font-size="9.00">in_gripper BlueBox</text>
</g>
<!-- Fallback &#160;&#160;&#160;&#160;&#160;&#160;&#45;&gt;in_gripper BlueBox -->
<g id="edge27" class="edge">
<title>Fallback &#160;&#160;&#160;&#160;&#160;&#160;&#45;&gt;in_gripper BlueBox</title>
<path fill="none" stroke="black" d="M932.58,-215.7C925.76,-207.18 917.43,-196.76 909.98,-187.45"/>
<polygon fill="black" stroke="black" points="912.7,-185.24 903.72,-179.62 907.23,-189.62 912.7,-185.24"/>
</g>
<!-- Sequence &#160;&#160;&#160;&#160;&#160; -->
<g id="node29" class="node">
<title>Sequence &#160;&#160;&#160;&#160;&#160;</title>
<polygon fill="orange" stroke="black" points="1032.42,-180 970.42,-180 970.42,-144 1032.42,-144 1032.42,-180"/>
<text text-anchor="middle" x="1001.42" y="-159.8" font-family="Times,serif" font-size="9.00">Sequence</text>
</g>
<!-- Fallback &#160;&#160;&#160;&#160;&#160;&#160;&#45;&gt;Sequence &#160;&#160;&#160;&#160;&#160; -->
<g id="edge28" class="edge">
<title>Fallback &#160;&#160;&#160;&#160;&#160;&#160;&#45;&gt;Sequence &#160;&#160;&#160;&#160;&#160;</title>
<path fill="none" stroke="black" d="M960.02,-215.7C966.54,-207.39 974.49,-197.28 981.67,-188.14"/>
<polygon fill="black" stroke="black" points="984.56,-190.13 987.98,-180.1 979.05,-185.81 984.56,-190.13"/>
</g>
<!-- Fallback &#160;&#160;&#160;&#160;&#160;&#160;&#160; -->
<g id="node30" class="node">
<title>Fallback &#160;&#160;&#160;&#160;&#160;&#160;&#160;</title>
<polygon fill="cyan" stroke="black" points="985.41,-82.54 985.41,-97.46 964.91,-108 935.93,-108 915.43,-97.46 915.43,-82.54 935.93,-72 964.91,-72 985.41,-82.54"/>
<text text-anchor="middle" x="950.42" y="-87.8" font-family="Times,serif" font-size="9.00">Fallback</text>
</g>
<!-- Sequence &#160;&#160;&#160;&#160;&#160;&#45;&gt;Fallback &#160;&#160;&#160;&#160;&#160;&#160;&#160; -->
<g id="edge29" class="edge">
<title>Sequence &#160;&#160;&#160;&#160;&#160;&#45;&gt;Fallback &#160;&#160;&#160;&#160;&#160;&#160;&#160;</title>
<path fill="none" stroke="black" d="M988.81,-143.7C982.82,-135.47 975.54,-125.48 968.94,-116.42"/>
<polygon fill="black" stroke="black" points="971.6,-114.13 962.88,-108.1 965.94,-118.25 971.6,-114.13"/>
</g>
<!-- pick0 BlueBox -->
<g id="node33" class="node">
<title>pick0 BlueBox</title>
<ellipse fill="lightgray" stroke="black" cx="1051.42" cy="-90" rx="47.84" ry="18"/>
<text text-anchor="middle" x="1051.42" y="-87.8" font-family="Times,serif" font-size="9.00">pick0 BlueBox</text>
</g>
<!-- Sequence &#160;&#160;&#160;&#160;&#160;&#45;&gt;pick0 BlueBox -->
<g id="edge32" class="edge">
<title>Sequence &#160;&#160;&#160;&#160;&#160;&#45;&gt;pick0 BlueBox</title>
<path fill="none" stroke="black" d="M1013.78,-143.7C1019.74,-135.35 1027,-125.18 1033.55,-116.02"/>
<polygon fill="black" stroke="black" points="1036.58,-117.79 1039.55,-107.62 1030.89,-113.73 1036.58,-117.79"/>
</g>
<!-- gripper_state open &#160; -->
<g id="node31" class="node">
<title>gripper_state open &#160;</title>
<ellipse fill="lightgray" stroke="black" cx="888.42" cy="-18" rx="60.09" ry="18"/>
<text text-anchor="middle" x="888.42" y="-15.8" font-family="Times,serif" font-size="9.00">gripper_state open</text>
</g>
<!-- Fallback &#160;&#160;&#160;&#160;&#160;&#160;&#160;&#45;&gt;gripper_state open &#160; -->
<g id="edge30" class="edge">
<title>Fallback &#160;&#160;&#160;&#160;&#160;&#160;&#160;&#45;&gt;gripper_state open &#160;</title>
<path fill="none" stroke="black" d="M935.41,-72.05C927.8,-63.46 918.41,-52.86 910.03,-43.4"/>
<polygon fill="black" stroke="black" points="912.54,-40.95 903.29,-35.79 907.3,-45.6 912.54,-40.95"/>
</g>
<!-- open_gripper &#160; -->
<g id="node32" class="node">
<title>open_gripper &#160;</title>
<ellipse fill="lightgray" stroke="black" cx="1012.42" cy="-18" rx="45.72" ry="18"/>
<text text-anchor="middle" x="1012.42" y="-15.8" font-family="Times,serif" font-size="9.00">open_gripper</text>
</g>
<!-- Fallback &#160;&#160;&#160;&#160;&#160;&#160;&#160;&#45;&gt;open_gripper &#160; -->
<g id="edge31" class="edge">
<title>Fallback &#160;&#160;&#160;&#160;&#160;&#160;&#160;&#45;&gt;open_gripper &#160;</title>
<path fill="none" stroke="black" d="M965.43,-72.05C973.16,-63.33 982.71,-52.54 991.18,-42.98"/>
<polygon fill="black" stroke="black" points="993.97,-45.11 997.98,-35.31 988.73,-40.47 993.97,-45.11"/>
</g>
</g>
</svg>
