<?xml version="1.0" encoding="UTF-8" standalone="no"?>
<!DOCTYPE svg PUBLIC "-//W3C//DTD SVG 1.1//EN"
 "http://www.w3.org/Graphics/SVG/1.1/DTD/svg11.dtd">
<!-- Generated by graphviz version 2.43.0 (0)
 -->
<!-- Title: pastafarianism Pages: 1 -->
<svg width="4554pt" height="289pt"
 viewBox="0.00 0.00 4553.99 289.24" xmlns="http://www.w3.org/2000/svg" xmlns:xlink="http://www.w3.org/1999/xlink">
<g id="graph0" class="graph" transform="scale(1 1) rotate(0) translate(4 285.24)">
<title>pastafarianism</title>
<polygon fill="white" stroke="transparent" points="-4,4 -4,-285.24 4549.99,-285.24 4549.99,4 -4,4"/>
<!-- selector:
 insert_gear3_into_shaft3 -->
<g id="node1" class="node">
<title>selector:
 insert_gear3_into_shaft3</title>
<polygon fill="#8deeee" stroke="black" points="1674.08,-229.19 1674.08,-259.82 1564.22,-281.48 1408.87,-281.48 1299.02,-259.82 1299.02,-229.19 1408.87,-207.53 1564.22,-207.53 1674.08,-229.19"/>
<text text-anchor="middle" x="1486.55" y="-250.1" font-family="Times,serif" font-size="18.00">selector:</text>
<text text-anchor="middle" x="1486.55" y="-230.1" font-family="Times,serif" font-size="18.00"> insert_gear3_into_shaft3</text>
</g>
<!-- target:
 is_inserted_to(gear3, shaft3) -->
<g id="node2" class="node">
<title>target:
 is_inserted_to(gear3, shaft3)</title>
<ellipse fill="#ffec8b" stroke="black" cx="704.55" cy="-137.82" rx="198.89" ry="33.88"/>
<text text-anchor="middle" x="704.55" y="-143.42" font-family="Times,serif" font-size="18.00">target:</text>
<text text-anchor="middle" x="704.55" y="-123.42" font-family="Times,serif" font-size="18.00"> is_inserted_to(gear3, shaft3)</text>
</g>
<!-- selector:
 insert_gear3_into_shaft3&#45;&gt;target:
 is_inserted_to(gear3, shaft3) -->
<g id="edge1" class="edge">
<title>selector:
 insert_gear3_into_shaft3&#45;&gt;target:
 is_inserted_to(gear3, shaft3)</title>
<path fill="none" stroke="black" d="M1322.75,-224.48C1207.82,-210.77 1050.64,-191.32 912.55,-171.76 894.05,-169.14 874.65,-166.26 855.45,-163.32"/>
<polygon fill="black" stroke="black" points="855.85,-159.84 845.43,-161.77 854.78,-166.76 855.85,-159.84"/>
</g>
<!-- sequence:
 change_tool(left_hand, defaultgripper, outwardgripper) -->
<g id="node3" class="node">
<title>sequence:
 change_tool(left_hand, defaultgripper, outwardgripper)</title>
<polygon fill="#ff7f24" stroke="black" points="1443.55,-161.82 921.55,-161.82 921.55,-113.82 1443.55,-113.82 1443.55,-161.82"/>
<text text-anchor="middle" x="1182.55" y="-143.42" font-family="Times,serif" font-size="18.00">sequence:</text>
<text text-anchor="middle" x="1182.55" y="-123.42" font-family="Times,serif" font-size="18.00"> change_tool(left_hand, defaultgripper, outwardgripper)</text>
</g>
<!-- selector:
 insert_gear3_into_shaft3&#45;&gt;sequence:
 change_tool(left_hand, defaultgripper, outwardgripper) -->
<g id="edge2" class="edge">
<title>selector:
 insert_gear3_into_shaft3&#45;&gt;sequence:
 change_tool(left_hand, defaultgripper, outwardgripper)</title>
<path fill="none" stroke="black" d="M1391.61,-210.81C1349.03,-196.15 1299.46,-179.08 1259.28,-165.25"/>
<polygon fill="black" stroke="black" points="1260.4,-161.93 1249.81,-161.98 1258.12,-168.55 1260.4,-161.93"/>
</g>
<!-- sequence:
 pick_up(left_hand, outwardgripper, gear3) -->
<g id="node7" class="node">
<title>sequence:
 pick_up(left_hand, outwardgripper, gear3)</title>
<polygon fill="#ff7f24" stroke="black" points="2204.05,-161.82 1799.05,-161.82 1799.05,-113.82 2204.05,-113.82 2204.05,-161.82"/>
<text text-anchor="middle" x="2001.55" y="-143.42" font-family="Times,serif" font-size="18.00">sequence:</text>
<text text-anchor="middle" x="2001.55" y="-123.42" font-family="Times,serif" font-size="18.00"> pick_up(left_hand, outwardgripper, gear3)</text>
</g>
<!-- selector:
 insert_gear3_into_shaft3&#45;&gt;sequence:
 pick_up(left_hand, outwardgripper, gear3) -->
<g id="edge6" class="edge">
<title>selector:
 insert_gear3_into_shaft3&#45;&gt;sequence:
 pick_up(left_hand, outwardgripper, gear3)</title>
<path fill="none" stroke="black" d="M1614.84,-217.42C1695.27,-201.08 1798.38,-180.12 1877.91,-163.95"/>
<polygon fill="black" stroke="black" points="1878.88,-167.33 1887.98,-161.91 1877.48,-160.47 1878.88,-167.33"/>
</g>
<!-- sequence:
 insert(left_hand, outwardgripper, gear3, shaft3) -->
<g id="node11" class="node">
<title>sequence:
 insert(left_hand, outwardgripper, gear3, shaft3)</title>
<polygon fill="#ff7f24" stroke="black" points="3690.55,-161.82 3234.55,-161.82 3234.55,-113.82 3690.55,-113.82 3690.55,-161.82"/>
<text text-anchor="middle" x="3462.55" y="-143.42" font-family="Times,serif" font-size="18.00">sequence:</text>
<text text-anchor="middle" x="3462.55" y="-123.42" font-family="Times,serif" font-size="18.00"> insert(left_hand, outwardgripper, gear3, shaft3)</text>
</g>
<!-- selector:
 insert_gear3_into_shaft3&#45;&gt;sequence:
 insert(left_hand, outwardgripper, gear3, shaft3) -->
<g id="edge10" class="edge">
<title>selector:
 insert_gear3_into_shaft3&#45;&gt;sequence:
 insert(left_hand, outwardgripper, gear3, shaft3)</title>
<path fill="none" stroke="black" d="M1674.22,-233.56C2035.38,-214.43 2826.44,-172.52 3224.21,-151.45"/>
<polygon fill="black" stroke="black" points="3224.6,-154.93 3234.4,-150.91 3224.23,-147.94 3224.6,-154.93"/>
</g>
<!-- precondition:
 hold(left_hand, defaultgripper) -->
<g id="node4" class="node">
<title>precondition:
 hold(left_hand, defaultgripper)</title>
<ellipse fill="#ffec8b" stroke="black" cx="213.55" cy="-33.94" rx="213.59" ry="33.88"/>
<text text-anchor="middle" x="213.55" y="-39.54" font-family="Times,serif" font-size="18.00">precondition:</text>
<text text-anchor="middle" x="213.55" y="-19.54" font-family="Times,serif" font-size="18.00"> hold(left_hand, defaultgripper)</text>
</g>
<!-- sequence:
 change_tool(left_hand, defaultgripper, outwardgripper)&#45;&gt;precondition:
 hold(left_hand, defaultgripper) -->
<g id="edge3" class="edge">
<title>sequence:
 change_tool(left_hand, defaultgripper, outwardgripper)&#45;&gt;precondition:
 hold(left_hand, defaultgripper)</title>
<path fill="none" stroke="black" d="M1003.31,-113.79C973.04,-110.23 941.92,-106.78 912.55,-103.88 701.41,-83.03 647.4,-91.4 436.55,-67.88 415.63,-65.55 393.67,-62.74 372.02,-59.77"/>
<polygon fill="black" stroke="black" points="372.48,-56.3 362.1,-58.39 371.52,-63.23 372.48,-56.3"/>
</g>
<!-- precondition:
 is_empty(defaultgripper) -->
<g id="node5" class="node">
<title>precondition:
 is_empty(defaultgripper)</title>
<ellipse fill="#ffec8b" stroke="black" cx="620.55" cy="-33.94" rx="175.23" ry="33.88"/>
<text text-anchor="middle" x="620.55" y="-39.54" font-family="Times,serif" font-size="18.00">precondition:</text>
<text text-anchor="middle" x="620.55" y="-19.54" font-family="Times,serif" font-size="18.00"> is_empty(defaultgripper)</text>
</g>
<!-- sequence:
 change_tool(left_hand, defaultgripper, outwardgripper)&#45;&gt;precondition:
 is_empty(defaultgripper) -->
<g id="edge4" class="edge">
<title>sequence:
 change_tool(left_hand, defaultgripper, outwardgripper)&#45;&gt;precondition:
 is_empty(defaultgripper)</title>
<path fill="none" stroke="black" d="M1055.37,-113.77C966.27,-97.62 847.33,-76.05 756.38,-59.57"/>
<polygon fill="black" stroke="black" points="756.73,-56.07 746.27,-57.73 755.49,-62.96 756.73,-56.07"/>
</g>
<!-- action:
 change_tool(left_hand, defaultgripper, outwardgripper) -->
<g id="node6" class="node">
<title>action:
 change_tool(left_hand, defaultgripper, outwardgripper)</title>
<ellipse fill="lightgreen" stroke="black" cx="1182.55" cy="-33.94" rx="369.22" ry="33.88"/>
<text text-anchor="middle" x="1182.55" y="-39.54" font-family="Times,serif" font-size="18.00">action:</text>
<text text-anchor="middle" x="1182.55" y="-19.54" font-family="Times,serif" font-size="18.00"> change_tool(left_hand, defaultgripper, outwardgripper)</text>
</g>
<!-- sequence:
 change_tool(left_hand, defaultgripper, outwardgripper)&#45;&gt;action:
 change_tool(left_hand, defaultgripper, outwardgripper) -->
<g id="edge5" class="edge">
<title>sequence:
 change_tool(left_hand, defaultgripper, outwardgripper)&#45;&gt;action:
 change_tool(left_hand, defaultgripper, outwardgripper)</title>
<path fill="none" stroke="black" d="M1182.55,-113.7C1182.55,-103.16 1182.55,-90.31 1182.55,-78.08"/>
<polygon fill="black" stroke="black" points="1186.05,-78.01 1182.55,-68.01 1179.05,-78.01 1186.05,-78.01"/>
</g>
<!-- precondition:
 hold(left_hand, outwardgripper) -->
<g id="node8" class="node">
<title>precondition:
 hold(left_hand, outwardgripper)</title>
<ellipse fill="#ffec8b" stroke="black" cx="1790.55" cy="-33.94" rx="221.15" ry="33.88"/>
<text text-anchor="middle" x="1790.55" y="-39.54" font-family="Times,serif" font-size="18.00">precondition:</text>
<text text-anchor="middle" x="1790.55" y="-19.54" font-family="Times,serif" font-size="18.00"> hold(left_hand, outwardgripper)</text>
</g>
<!-- sequence:
 pick_up(left_hand, outwardgripper, gear3)&#45;&gt;precondition:
 hold(left_hand, outwardgripper) -->
<g id="edge7" class="edge">
<title>sequence:
 pick_up(left_hand, outwardgripper, gear3)&#45;&gt;precondition:
 hold(left_hand, outwardgripper)</title>
<path fill="none" stroke="black" d="M1953.67,-113.7C1927.44,-101.04 1894.36,-85.07 1864.86,-70.82"/>
<polygon fill="black" stroke="black" points="1866.36,-67.66 1855.83,-66.46 1863.31,-73.96 1866.36,-67.66"/>
</g>
<!-- precondition:
 is_empty(outwardgripper) -->
<g id="node9" class="node">
<title>precondition:
 is_empty(outwardgripper)</title>
<ellipse fill="#ffec8b" stroke="black" cx="2212.55" cy="-33.94" rx="183.28" ry="33.88"/>
<text text-anchor="middle" x="2212.55" y="-39.54" font-family="Times,serif" font-size="18.00">precondition:</text>
<text text-anchor="middle" x="2212.55" y="-19.54" font-family="Times,serif" font-size="18.00"> is_empty(outwardgripper)</text>
</g>
<!-- sequence:
 pick_up(left_hand, outwardgripper, gear3)&#45;&gt;precondition:
 is_empty(outwardgripper) -->
<g id="edge8" class="edge">
<title>sequence:
 pick_up(left_hand, outwardgripper, gear3)&#45;&gt;precondition:
 is_empty(outwardgripper)</title>
<path fill="none" stroke="black" d="M2049.43,-113.7C2075.98,-100.88 2109.56,-84.67 2139.35,-70.29"/>
<polygon fill="black" stroke="black" points="2140.97,-73.39 2148.45,-65.89 2137.93,-67.08 2140.97,-73.39"/>
</g>
<!-- action:
 pick_up(left_hand, outwardgripper, gear3) -->
<g id="node10" class="node">
<title>action:
 pick_up(left_hand, outwardgripper, gear3)</title>
<ellipse fill="lightgreen" stroke="black" cx="2700.55" cy="-33.94" rx="286.26" ry="33.88"/>
<text text-anchor="middle" x="2700.55" y="-39.54" font-family="Times,serif" font-size="18.00">action:</text>
<text text-anchor="middle" x="2700.55" y="-19.54" font-family="Times,serif" font-size="18.00"> pick_up(left_hand, outwardgripper, gear3)</text>
</g>
<!-- sequence:
 pick_up(left_hand, outwardgripper, gear3)&#45;&gt;action:
 pick_up(left_hand, outwardgripper, gear3) -->
<g id="edge9" class="edge">
<title>sequence:
 pick_up(left_hand, outwardgripper, gear3)&#45;&gt;action:
 pick_up(left_hand, outwardgripper, gear3)</title>
<path fill="none" stroke="black" d="M2159.72,-113.77C2264.88,-98.44 2403.45,-78.24 2513.99,-62.13"/>
<polygon fill="black" stroke="black" points="2514.53,-65.59 2523.92,-60.68 2513.52,-58.66 2514.53,-65.59"/>
</g>
<!-- &quot;precondition:\n hold(left_hand, outwardgripper)&quot;* -->
<g id="node12" class="node">
<title>&quot;precondition:\n hold(left_hand, outwardgripper)&quot;*</title>
<ellipse fill="#ffec8b" stroke="black" cx="3238.55" cy="-33.94" rx="233.19" ry="33.88"/>
<text text-anchor="middle" x="3238.55" y="-39.54" font-family="Times,serif" font-size="18.00">&quot;precondition:</text>
<text text-anchor="middle" x="3238.55" y="-19.54" font-family="Times,serif" font-size="18.00"> hold(left_hand, outwardgripper)&quot;*</text>
</g>
<!-- sequence:
 insert(left_hand, outwardgripper, gear3, shaft3)&#45;&gt;&quot;precondition:\n hold(left_hand, outwardgripper)&quot;* -->
<g id="edge11" class="edge">
<title>sequence:
 insert(left_hand, outwardgripper, gear3, shaft3)&#45;&gt;&quot;precondition:\n hold(left_hand, outwardgripper)&quot;*</title>
<path fill="none" stroke="black" d="M3411.72,-113.7C3383.76,-100.99 3348.46,-84.93 3317.04,-70.64"/>
<polygon fill="black" stroke="black" points="3318.41,-67.42 3307.85,-66.46 3315.51,-73.79 3318.41,-67.42"/>
</g>
<!-- precondition:
 hold(outwardgripper, gear3) -->
<g id="node13" class="node">
<title>precondition:
 hold(outwardgripper, gear3)</title>
<ellipse fill="#ffec8b" stroke="black" cx="3686.55" cy="-33.94" rx="196.65" ry="33.88"/>
<text text-anchor="middle" x="3686.55" y="-39.54" font-family="Times,serif" font-size="18.00">precondition:</text>
<text text-anchor="middle" x="3686.55" y="-19.54" font-family="Times,serif" font-size="18.00"> hold(outwardgripper, gear3)</text>
</g>
<!-- sequence:
 insert(left_hand, outwardgripper, gear3, shaft3)&#45;&gt;precondition:
 hold(outwardgripper, gear3) -->
<g id="edge12" class="edge">
<title>sequence:
 insert(left_hand, outwardgripper, gear3, shaft3)&#45;&gt;precondition:
 hold(outwardgripper, gear3)</title>
<path fill="none" stroke="black" d="M3513.38,-113.7C3541.69,-100.83 3577.53,-84.53 3609.24,-70.1"/>
<polygon fill="black" stroke="black" points="3610.85,-73.21 3618.51,-65.89 3607.95,-66.84 3610.85,-73.21"/>
</g>
<!-- action:
 insert(left_hand, outwardgripper, gear3, shaft3) -->
<g id="node14" class="node">
<title>action:
 insert(left_hand, outwardgripper, gear3, shaft3)</title>
<ellipse fill="lightgreen" stroke="black" cx="4223.55" cy="-33.94" rx="322.38" ry="33.88"/>
<text text-anchor="middle" x="4223.55" y="-39.54" font-family="Times,serif" font-size="18.00">action:</text>
<text text-anchor="middle" x="4223.55" y="-19.54" font-family="Times,serif" font-size="18.00"> insert(left_hand, outwardgripper, gear3, shaft3)</text>
</g>
<!-- sequence:
 insert(left_hand, outwardgripper, gear3, shaft3)&#45;&gt;action:
 insert(left_hand, outwardgripper, gear3, shaft3) -->
<g id="edge13" class="edge">
<title>sequence:
 insert(left_hand, outwardgripper, gear3, shaft3)&#45;&gt;action:
 insert(left_hand, outwardgripper, gear3, shaft3)</title>
<path fill="none" stroke="black" d="M3634.75,-113.77C3748.73,-98.51 3898.74,-78.43 4018.82,-62.35"/>
<polygon fill="black" stroke="black" points="4019.42,-65.8 4028.87,-61 4018.5,-58.86 4019.42,-65.8"/>
</g>
</g>
</svg>
