<?xml version="1.0" encoding="UTF-8" standalone="no"?>
<!DOCTYPE svg PUBLIC "-//W3C//DTD SVG 1.1//EN"
 "http://www.w3.org/Graphics/SVG/1.1/DTD/svg11.dtd">
<!-- Generated by graphviz version 2.43.0 (0)
 -->
<!-- Title: pastafarianism Pages: 1 -->
<svg width="1922pt" height="503pt"
 viewBox="0.00 0.00 1922.28 502.60" xmlns="http://www.w3.org/2000/svg" xmlns:xlink="http://www.w3.org/1999/xlink">
<g id="graph0" class="graph" transform="scale(1 1) rotate(0) translate(4 498.6)">
<title>pastafarianism</title>
<polygon fill="white" stroke="transparent" points="-4,4 -4,-498.6 1918.28,-498.6 1918.28,4 -4,4"/>
<!-- selector:
 insert(left_hand, parallelgripper, gear1, shaft1) -->
<g id="node1" class="node">
<title>selector:
 insert(left_hand, parallelgripper, gear1, shaft1)</title>
<polygon fill="#8deeee" stroke="black" points="1190.41,-442.54 1190.41,-473.18 988.71,-494.84 703.46,-494.84 501.75,-473.18 501.75,-442.54 703.46,-420.88 988.71,-420.88 1190.41,-442.54"/>
<text text-anchor="middle" x="846.08" y="-463.46" font-family="Times,serif" font-size="18.00">selector:</text>
<text text-anchor="middle" x="846.08" y="-443.46" font-family="Times,serif" font-size="18.00"> insert(left_hand, parallelgripper, gear1, shaft1)</text>
</g>
<!-- target:
 is_inserted_to(gear1, shaft1) -->
<g id="node2" class="node">
<title>target:
 is_inserted_to(gear1, shaft1)</title>
<ellipse fill="#ffec8b" stroke="black" cx="625.08" cy="-351.18" rx="198.89" ry="33.88"/>
<text text-anchor="middle" x="625.08" y="-356.78" font-family="Times,serif" font-size="18.00">target:</text>
<text text-anchor="middle" x="625.08" y="-336.78" font-family="Times,serif" font-size="18.00"> is_inserted_to(gear1, shaft1)</text>
</g>
<!-- selector:
 insert(left_hand, parallelgripper, gear1, shaft1)&#45;&gt;target:
 is_inserted_to(gear1, shaft1) -->
<g id="edge1" class="edge">
<title>selector:
 insert(left_hand, parallelgripper, gear1, shaft1)&#45;&gt;target:
 is_inserted_to(gear1, shaft1)</title>
<path fill="none" stroke="black" d="M770.34,-420.98C747.6,-410.21 722.68,-398.41 700.01,-387.67"/>
<polygon fill="black" stroke="black" points="701.31,-384.41 690.77,-383.29 698.31,-390.74 701.31,-384.41"/>
</g>
<!-- sequence:
 insert(left_hand, parallelgripper, gear1, shaft1) -->
<g id="node3" class="node">
<title>sequence:
 insert(left_hand, parallelgripper, gear1, shaft1)</title>
<polygon fill="#ff7f24" stroke="black" points="1292.08,-375.18 842.08,-375.18 842.08,-327.18 1292.08,-327.18 1292.08,-375.18"/>
<text text-anchor="middle" x="1067.08" y="-356.78" font-family="Times,serif" font-size="18.00">sequence:</text>
<text text-anchor="middle" x="1067.08" y="-336.78" font-family="Times,serif" font-size="18.00"> insert(left_hand, parallelgripper, gear1, shaft1)</text>
</g>
<!-- selector:
 insert(left_hand, parallelgripper, gear1, shaft1)&#45;&gt;sequence:
 insert(left_hand, parallelgripper, gear1, shaft1) -->
<g id="edge2" class="edge">
<title>selector:
 insert(left_hand, parallelgripper, gear1, shaft1)&#45;&gt;sequence:
 insert(left_hand, parallelgripper, gear1, shaft1)</title>
<path fill="none" stroke="black" d="M921.83,-420.98C950.44,-407.43 982.52,-392.24 1009.23,-379.58"/>
<polygon fill="black" stroke="black" points="1010.91,-382.66 1018.45,-375.22 1007.91,-376.34 1010.91,-382.66"/>
</g>
<!-- selector:
 change_tool(left_hand, inwardgripper, parallelgripper) -->
<g id="node4" class="node">
<title>selector:
 change_tool(left_hand, inwardgripper, parallelgripper)</title>
<polygon fill="#8deeee" stroke="black" points="857.41,-229.19 857.41,-259.82 626.42,-281.48 299.75,-281.48 68.75,-259.82 68.75,-229.19 299.75,-207.53 626.42,-207.53 857.41,-229.19"/>
<text text-anchor="middle" x="463.08" y="-250.1" font-family="Times,serif" font-size="18.00">selector:</text>
<text text-anchor="middle" x="463.08" y="-230.1" font-family="Times,serif" font-size="18.00"> change_tool(left_hand, inwardgripper, parallelgripper)</text>
</g>
<!-- sequence:
 insert(left_hand, parallelgripper, gear1, shaft1)&#45;&gt;selector:
 change_tool(left_hand, inwardgripper, parallelgripper) -->
<g id="edge3" class="edge">
<title>sequence:
 insert(left_hand, parallelgripper, gear1, shaft1)&#45;&gt;selector:
 change_tool(left_hand, inwardgripper, parallelgripper)</title>
<path fill="none" stroke="black" d="M934.16,-327.14C855.32,-313.48 753.79,-295.88 665.19,-280.53"/>
<polygon fill="black" stroke="black" points="665.74,-277.07 655.29,-278.81 664.54,-283.97 665.74,-277.07"/>
</g>
<!-- precondition:
 hold(parallelgripper, gear1) -->
<g id="node10" class="node">
<title>precondition:
 hold(parallelgripper, gear1)</title>
<ellipse fill="#ffec8b" stroke="black" cx="1067.08" cy="-244.5" rx="192.17" ry="33.88"/>
<text text-anchor="middle" x="1067.08" y="-250.1" font-family="Times,serif" font-size="18.00">precondition:</text>
<text text-anchor="middle" x="1067.08" y="-230.1" font-family="Times,serif" font-size="18.00"> hold(parallelgripper, gear1)</text>
</g>
<!-- sequence:
 insert(left_hand, parallelgripper, gear1, shaft1)&#45;&gt;precondition:
 hold(parallelgripper, gear1) -->
<g id="edge9" class="edge">
<title>sequence:
 insert(left_hand, parallelgripper, gear1, shaft1)&#45;&gt;precondition:
 hold(parallelgripper, gear1)</title>
<path fill="none" stroke="black" d="M1067.08,-326.95C1067.08,-315.73 1067.08,-301.9 1067.08,-288.84"/>
<polygon fill="black" stroke="black" points="1070.58,-288.6 1067.08,-278.6 1063.58,-288.6 1070.58,-288.6"/>
</g>
<!-- action:
 insert(left_hand, parallelgripper, gear1, shaft1) -->
<g id="node11" class="node">
<title>action:
 insert(left_hand, parallelgripper, gear1, shaft1)</title>
<ellipse fill="lightgreen" stroke="black" cx="1596.08" cy="-244.5" rx="318.4" ry="33.88"/>
<text text-anchor="middle" x="1596.08" y="-250.1" font-family="Times,serif" font-size="18.00">action:</text>
<text text-anchor="middle" x="1596.08" y="-230.1" font-family="Times,serif" font-size="18.00"> insert(left_hand, parallelgripper, gear1, shaft1)</text>
</g>
<!-- sequence:
 insert(left_hand, parallelgripper, gear1, shaft1)&#45;&gt;action:
 insert(left_hand, parallelgripper, gear1, shaft1) -->
<g id="edge10" class="edge">
<title>sequence:
 insert(left_hand, parallelgripper, gear1, shaft1)&#45;&gt;action:
 insert(left_hand, parallelgripper, gear1, shaft1)</title>
<path fill="none" stroke="black" d="M1183.5,-327.14C1258.48,-312.31 1356.89,-292.83 1438.79,-276.63"/>
<polygon fill="black" stroke="black" points="1439.56,-280.04 1448.69,-274.67 1438.2,-273.18 1439.56,-280.04"/>
</g>
<!-- target:
 hold(left_hand, parallelgripper) -->
<g id="node5" class="node">
<title>target:
 hold(left_hand, parallelgripper)</title>
<ellipse fill="#ffec8b" stroke="black" cx="217.08" cy="-137.82" rx="217.16" ry="33.88"/>
<text text-anchor="middle" x="217.08" y="-143.42" font-family="Times,serif" font-size="18.00">target:</text>
<text text-anchor="middle" x="217.08" y="-123.42" font-family="Times,serif" font-size="18.00"> hold(left_hand, parallelgripper)</text>
</g>
<!-- selector:
 change_tool(left_hand, inwardgripper, parallelgripper)&#45;&gt;target:
 hold(left_hand, parallelgripper) -->
<g id="edge4" class="edge">
<title>selector:
 change_tool(left_hand, inwardgripper, parallelgripper)&#45;&gt;target:
 hold(left_hand, parallelgripper)</title>
<path fill="none" stroke="black" d="M378.77,-207.62C353.12,-196.71 324.99,-184.74 299.47,-173.88"/>
<polygon fill="black" stroke="black" points="300.77,-170.63 290.2,-169.94 298.03,-177.07 300.77,-170.63"/>
</g>
<!-- sequence:
 change_tool(left_hand, inwardgripper, parallelgripper) -->
<g id="node6" class="node">
<title>sequence:
 change_tool(left_hand, inwardgripper, parallelgripper)</title>
<polygon fill="#ff7f24" stroke="black" points="967.58,-161.82 452.58,-161.82 452.58,-113.82 967.58,-113.82 967.58,-161.82"/>
<text text-anchor="middle" x="710.08" y="-143.42" font-family="Times,serif" font-size="18.00">sequence:</text>
<text text-anchor="middle" x="710.08" y="-123.42" font-family="Times,serif" font-size="18.00"> change_tool(left_hand, inwardgripper, parallelgripper)</text>
</g>
<!-- selector:
 change_tool(left_hand, inwardgripper, parallelgripper)&#45;&gt;sequence:
 change_tool(left_hand, inwardgripper, parallelgripper) -->
<g id="edge5" class="edge">
<title>selector:
 change_tool(left_hand, inwardgripper, parallelgripper)&#45;&gt;sequence:
 change_tool(left_hand, inwardgripper, parallelgripper)</title>
<path fill="none" stroke="black" d="M547.74,-207.62C580,-193.95 616.2,-178.61 646.21,-165.89"/>
<polygon fill="black" stroke="black" points="647.88,-168.98 655.72,-161.86 645.15,-162.54 647.88,-168.98"/>
</g>
<!-- precondition:
 hold(left_hand, inwardgripper) -->
<g id="node7" class="node">
<title>precondition:
 hold(left_hand, inwardgripper)</title>
<ellipse fill="#ffec8b" stroke="black" cx="305.08" cy="-33.94" rx="212.68" ry="33.88"/>
<text text-anchor="middle" x="305.08" y="-39.54" font-family="Times,serif" font-size="18.00">precondition:</text>
<text text-anchor="middle" x="305.08" y="-19.54" font-family="Times,serif" font-size="18.00"> hold(left_hand, inwardgripper)</text>
</g>
<!-- sequence:
 change_tool(left_hand, inwardgripper, parallelgripper)&#45;&gt;precondition:
 hold(left_hand, inwardgripper) -->
<g id="edge6" class="edge">
<title>sequence:
 change_tool(left_hand, inwardgripper, parallelgripper)&#45;&gt;precondition:
 hold(left_hand, inwardgripper)</title>
<path fill="none" stroke="black" d="M618.43,-113.77C561.51,-99.45 487.69,-80.88 426.01,-65.36"/>
<polygon fill="black" stroke="black" points="426.77,-61.94 416.21,-62.9 425.06,-68.73 426.77,-61.94"/>
</g>
<!-- precondition:
 is_empty(inwardgripper) -->
<g id="node8" class="node">
<title>precondition:
 is_empty(inwardgripper)</title>
<ellipse fill="#ffec8b" stroke="black" cx="710.08" cy="-33.94" rx="174.81" ry="33.88"/>
<text text-anchor="middle" x="710.08" y="-39.54" font-family="Times,serif" font-size="18.00">precondition:</text>
<text text-anchor="middle" x="710.08" y="-19.54" font-family="Times,serif" font-size="18.00"> is_empty(inwardgripper)</text>
</g>
<!-- sequence:
 change_tool(left_hand, inwardgripper, parallelgripper)&#45;&gt;precondition:
 is_empty(inwardgripper) -->
<g id="edge7" class="edge">
<title>sequence:
 change_tool(left_hand, inwardgripper, parallelgripper)&#45;&gt;precondition:
 is_empty(inwardgripper)</title>
<path fill="none" stroke="black" d="M710.08,-113.7C710.08,-103.16 710.08,-90.31 710.08,-78.08"/>
<polygon fill="black" stroke="black" points="713.58,-78.01 710.08,-68.01 706.58,-78.01 713.58,-78.01"/>
</g>
<!-- action:
 change_tool(left_hand, inwardgripper, parallelgripper) -->
<g id="node9" class="node">
<title>action:
 change_tool(left_hand, inwardgripper, parallelgripper)</title>
<ellipse fill="lightgreen" stroke="black" cx="1267.08" cy="-33.94" rx="364.32" ry="33.88"/>
<text text-anchor="middle" x="1267.08" y="-39.54" font-family="Times,serif" font-size="18.00">action:</text>
<text text-anchor="middle" x="1267.08" y="-19.54" font-family="Times,serif" font-size="18.00"> change_tool(left_hand, inwardgripper, parallelgripper)</text>
</g>
<!-- sequence:
 change_tool(left_hand, inwardgripper, parallelgripper)&#45;&gt;action:
 change_tool(left_hand, inwardgripper, parallelgripper) -->
<g id="edge8" class="edge">
<title>sequence:
 change_tool(left_hand, inwardgripper, parallelgripper)&#45;&gt;action:
 change_tool(left_hand, inwardgripper, parallelgripper)</title>
<path fill="none" stroke="black" d="M836.13,-113.77C912.99,-99.71 1012.25,-81.55 1096.13,-66.21"/>
<polygon fill="black" stroke="black" points="1096.81,-69.64 1106.02,-64.4 1095.56,-62.76 1096.81,-69.64"/>
</g>
</g>
</svg>
