<?xml version="1.0" encoding="UTF-8" standalone="no"?>
<!DOCTYPE svg PUBLIC "-//W3C//DTD SVG 1.1//EN"
 "http://www.w3.org/Graphics/SVG/1.1/DTD/svg11.dtd">
<!-- Generated by graphviz version 2.43.0 (0)
 -->
<!-- Title: pastafarianism Pages: 1 -->
<svg width="1499pt" height="289pt"
 viewBox="0.00 0.00 1499.28 289.24" xmlns="http://www.w3.org/2000/svg" xmlns:xlink="http://www.w3.org/1999/xlink">
<g id="graph0" class="graph" transform="scale(1 1) rotate(0) translate(4 285.24)">
<title>pastafarianism</title>
<polygon fill="white" stroke="transparent" points="-4,4 -4,-285.24 1495.28,-285.24 1495.28,4 -4,4"/>
<!-- selector:
 insert(left_hand, parallelgripper, gear1, shaft1) -->
<g id="node1" class="node">
<title>selector:
 insert(left_hand, parallelgripper, gear1, shaft1)</title>
<polygon fill="#8deeee" stroke="black" points="767.41,-229.19 767.41,-259.82 565.71,-281.48 280.46,-281.48 78.75,-259.82 78.75,-229.19 280.46,-207.53 565.71,-207.53 767.41,-229.19"/>
<text text-anchor="middle" x="423.08" y="-250.1" font-family="Times,serif" font-size="18.00">selector:</text>
<text text-anchor="middle" x="423.08" y="-230.1" font-family="Times,serif" font-size="18.00"> insert(left_hand, parallelgripper, gear1, shaft1)</text>
</g>
<!-- target:
 is_inserted_to(gear1, shaft1) -->
<g id="node2" class="node">
<title>target:
 is_inserted_to(gear1, shaft1)</title>
<ellipse fill="#ffec8b" stroke="black" cx="202.08" cy="-137.82" rx="198.89" ry="33.88"/>
<text text-anchor="middle" x="202.08" y="-143.42" font-family="Times,serif" font-size="18.00">target:</text>
<text text-anchor="middle" x="202.08" y="-123.42" font-family="Times,serif" font-size="18.00"> is_inserted_to(gear1, shaft1)</text>
</g>
<!-- selector:
 insert(left_hand, parallelgripper, gear1, shaft1)&#45;&gt;target:
 is_inserted_to(gear1, shaft1) -->
<g id="edge1" class="edge">
<title>selector:
 insert(left_hand, parallelgripper, gear1, shaft1)&#45;&gt;target:
 is_inserted_to(gear1, shaft1)</title>
<path fill="none" stroke="black" d="M347.34,-207.62C324.6,-196.86 299.68,-185.05 277.01,-174.31"/>
<polygon fill="black" stroke="black" points="278.31,-171.05 267.77,-169.94 275.31,-177.38 278.31,-171.05"/>
</g>
<!-- sequence:
 insert(left_hand, parallelgripper, gear1, shaft1) -->
<g id="node3" class="node">
<title>sequence:
 insert(left_hand, parallelgripper, gear1, shaft1)</title>
<polygon fill="#ff7f24" stroke="black" points="869.08,-161.82 419.08,-161.82 419.08,-113.82 869.08,-113.82 869.08,-161.82"/>
<text text-anchor="middle" x="644.08" y="-143.42" font-family="Times,serif" font-size="18.00">sequence:</text>
<text text-anchor="middle" x="644.08" y="-123.42" font-family="Times,serif" font-size="18.00"> insert(left_hand, parallelgripper, gear1, shaft1)</text>
</g>
<!-- selector:
 insert(left_hand, parallelgripper, gear1, shaft1)&#45;&gt;sequence:
 insert(left_hand, parallelgripper, gear1, shaft1) -->
<g id="edge2" class="edge">
<title>selector:
 insert(left_hand, parallelgripper, gear1, shaft1)&#45;&gt;sequence:
 insert(left_hand, parallelgripper, gear1, shaft1)</title>
<path fill="none" stroke="black" d="M498.83,-207.62C527.44,-194.07 559.52,-178.88 586.23,-166.22"/>
<polygon fill="black" stroke="black" points="587.91,-169.3 595.45,-161.86 584.91,-162.98 587.91,-169.3"/>
</g>
<!-- precondition:
 hold(left_hand, parallelgripper) -->
<g id="node4" class="node">
<title>precondition:
 hold(left_hand, parallelgripper)</title>
<ellipse fill="#ffec8b" stroke="black" cx="217.08" cy="-33.94" rx="217.16" ry="33.88"/>
<text text-anchor="middle" x="217.08" y="-39.54" font-family="Times,serif" font-size="18.00">precondition:</text>
<text text-anchor="middle" x="217.08" y="-19.54" font-family="Times,serif" font-size="18.00"> hold(left_hand, parallelgripper)</text>
</g>
<!-- sequence:
 insert(left_hand, parallelgripper, gear1, shaft1)&#45;&gt;precondition:
 hold(left_hand, parallelgripper) -->
<g id="edge3" class="edge">
<title>sequence:
 insert(left_hand, parallelgripper, gear1, shaft1)&#45;&gt;precondition:
 hold(left_hand, parallelgripper)</title>
<path fill="none" stroke="black" d="M547.46,-113.77C487.08,-99.36 408.69,-80.66 343.41,-65.08"/>
<polygon fill="black" stroke="black" points="344.01,-61.63 333.47,-62.71 342.38,-68.44 344.01,-61.63"/>
</g>
<!-- precondition:
 hold(parallelgripper, gear1) -->
<g id="node5" class="node">
<title>precondition:
 hold(parallelgripper, gear1)</title>
<ellipse fill="#ffec8b" stroke="black" cx="644.08" cy="-33.94" rx="192.17" ry="33.88"/>
<text text-anchor="middle" x="644.08" y="-39.54" font-family="Times,serif" font-size="18.00">precondition:</text>
<text text-anchor="middle" x="644.08" y="-19.54" font-family="Times,serif" font-size="18.00"> hold(parallelgripper, gear1)</text>
</g>
<!-- sequence:
 insert(left_hand, parallelgripper, gear1, shaft1)&#45;&gt;precondition:
 hold(parallelgripper, gear1) -->
<g id="edge4" class="edge">
<title>sequence:
 insert(left_hand, parallelgripper, gear1, shaft1)&#45;&gt;precondition:
 hold(parallelgripper, gear1)</title>
<path fill="none" stroke="black" d="M644.08,-113.7C644.08,-103.16 644.08,-90.31 644.08,-78.08"/>
<polygon fill="black" stroke="black" points="647.58,-78.01 644.08,-68.01 640.58,-78.01 647.58,-78.01"/>
</g>
<!-- action:
 insert(left_hand, parallelgripper, gear1, shaft1) -->
<g id="node6" class="node">
<title>action:
 insert(left_hand, parallelgripper, gear1, shaft1)</title>
<ellipse fill="lightgreen" stroke="black" cx="1173.08" cy="-33.94" rx="318.4" ry="33.88"/>
<text text-anchor="middle" x="1173.08" y="-39.54" font-family="Times,serif" font-size="18.00">action:</text>
<text text-anchor="middle" x="1173.08" y="-19.54" font-family="Times,serif" font-size="18.00"> insert(left_hand, parallelgripper, gear1, shaft1)</text>
</g>
<!-- sequence:
 insert(left_hand, parallelgripper, gear1, shaft1)&#45;&gt;action:
 insert(left_hand, parallelgripper, gear1, shaft1) -->
<g id="edge5" class="edge">
<title>sequence:
 insert(left_hand, parallelgripper, gear1, shaft1)&#45;&gt;action:
 insert(left_hand, parallelgripper, gear1, shaft1)</title>
<path fill="none" stroke="black" d="M763.79,-113.77C837.3,-99.61 932.38,-81.3 1012.39,-65.89"/>
<polygon fill="black" stroke="black" points="1013.41,-69.26 1022.57,-63.93 1012.09,-62.38 1013.41,-69.26"/>
</g>
</g>
</svg>
