<?xml version="1.0" encoding="UTF-8" standalone="no"?>
<!DOCTYPE svg PUBLIC "-//W3C//DTD SVG 1.1//EN"
 "http://www.w3.org/Graphics/SVG/1.1/DTD/svg11.dtd">
<!-- Generated by graphviz version 2.43.0 (0)
 -->
<!-- Title: pastafarianism Pages: 1 -->
<svg width="4356pt" height="476pt"
 viewBox="0.00 0.00 4355.80 476.00" xmlns="http://www.w3.org/2000/svg" xmlns:xlink="http://www.w3.org/1999/xlink">
<g id="graph0" class="graph" transform="scale(1 1) rotate(0) translate(4 472)">
<title>pastafarianism</title>
<polygon fill="white" stroke="transparent" points="-4,4 -4,-472 4351.8,-472 4351.8,4 -4,4"/>
<!-- selector -->
<g id="node1" class="node">
<title>selector</title>
<polygon fill="cyan" stroke="black" points="1236.05,-442.54 1236.05,-457.46 1164.31,-468 1062.85,-468 991.11,-457.46 991.11,-442.54 1062.85,-432 1164.31,-432 1236.05,-442.54"/>
<text text-anchor="middle" x="1113.58" y="-447.8" font-family="Times,serif" font-size="9.00">selector: insert_shaft1_gearbase_hole1</text>
</g>
<!-- target -->
<g id="node2" class="node">
<title>target</title>
<ellipse fill="gray" stroke="black" cx="1388.58" cy="-450" rx="134.55" ry="18"/>
<text text-anchor="middle" x="1388.58" y="-447.8" font-family="Times,serif" font-size="9.00">target: is_inserted_to(shaft1, gearbase_hole1)*</text>
</g>
<!-- selector: insert_shaft1_into_gearbase_hole1 -->
<g id="node3" class="node">
<title>selector: insert_shaft1_into_gearbase_hole1</title>
<ellipse fill="none" stroke="black" cx="1754.58" cy="-450" rx="213.66" ry="18"/>
<text text-anchor="middle" x="1754.58" y="-446.3" font-family="Times,serif" font-size="14.00">selector: insert_shaft1_into_gearbase_hole1</text>
</g>
<!-- target: is_inserted_to(shaft1, gearbase_hole1) -->
<g id="node4" class="node">
<title>target: is_inserted_to(shaft1, gearbase_hole1)</title>
<ellipse fill="none" stroke="black" cx="1524.58" cy="-378" rx="223.66" ry="18"/>
<text text-anchor="middle" x="1524.58" y="-374.3" font-family="Times,serif" font-size="14.00">target: is_inserted_to(shaft1, gearbase_hole1)</text>
</g>
<!-- selector: insert_shaft1_into_gearbase_hole1&#45;&gt;target: is_inserted_to(shaft1, gearbase_hole1) -->
<g id="edge1" class="edge">
<title>selector: insert_shaft1_into_gearbase_hole1&#45;&gt;target: is_inserted_to(shaft1, gearbase_hole1)</title>
<path fill="none" stroke="black" d="M1700.36,-432.5C1666.86,-422.3 1623.69,-409.17 1588.52,-398.46"/>
<polygon fill="black" stroke="black" points="1589.42,-395.07 1578.83,-395.51 1587.38,-401.77 1589.42,-395.07"/>
</g>
<!-- sequence: insert_shaft1_into_gearbase_hole1 -->
<g id="node6" class="node">
<title>sequence: insert_shaft1_into_gearbase_hole1</title>
<ellipse fill="none" stroke="black" cx="1985.58" cy="-378" rx="219.86" ry="18"/>
<text text-anchor="middle" x="1985.58" y="-374.3" font-family="Times,serif" font-size="14.00">sequence: insert_shaft1_into_gearbase_hole1</text>
</g>
<!-- selector: insert_shaft1_into_gearbase_hole1&#45;&gt;sequence: insert_shaft1_into_gearbase_hole1 -->
<g id="edge2" class="edge">
<title>selector: insert_shaft1_into_gearbase_hole1&#45;&gt;sequence: insert_shaft1_into_gearbase_hole1</title>
<path fill="none" stroke="black" d="M1809.03,-432.5C1842.68,-422.3 1886.04,-409.17 1921.36,-398.46"/>
<polygon fill="black" stroke="black" points="1922.54,-401.76 1931.09,-395.51 1920.51,-395.06 1922.54,-401.76"/>
</g>
<!-- sequence -->
<g id="node5" class="node">
<title>sequence</title>
<polygon fill="orange" stroke="black" points="2189.08,-468 1986.08,-468 1986.08,-432 2189.08,-432 2189.08,-468"/>
<text text-anchor="middle" x="2087.58" y="-447.8" font-family="Times,serif" font-size="9.00">sequence: insert_shaft1_gearbase_hole1</text>
</g>
<!-- selector: change_tool(left_hand, outwardgripper, clampgripper) -->
<g id="node7" class="node">
<title>selector: change_tool(left_hand, outwardgripper, clampgripper)</title>
<ellipse fill="none" stroke="black" cx="972.58" cy="-306" rx="304.65" ry="18"/>
<text text-anchor="middle" x="972.58" y="-302.3" font-family="Times,serif" font-size="14.00">selector: change_tool(left_hand, outwardgripper, clampgripper)</text>
</g>
<!-- sequence: insert_shaft1_into_gearbase_hole1&#45;&gt;selector: change_tool(left_hand, outwardgripper, clampgripper) -->
<g id="edge3" class="edge">
<title>sequence: insert_shaft1_into_gearbase_hole1&#45;&gt;selector: change_tool(left_hand, outwardgripper, clampgripper)</title>
<path fill="none" stroke="black" d="M1830.14,-365.26C1805.85,-363.47 1781.04,-361.67 1757.58,-360 1561.09,-346.04 1336.88,-330.99 1178.52,-320.51"/>
<polygon fill="black" stroke="black" points="1178.39,-316.99 1168.18,-319.82 1177.93,-323.98 1178.39,-316.99"/>
</g>
<!-- selector: pick_up_shaft1_with_clampgripper -->
<g id="node20" class="node">
<title>selector: pick_up_shaft1_with_clampgripper</title>
<ellipse fill="none" stroke="black" cx="1985.58" cy="-306" rx="213.66" ry="18"/>
<text text-anchor="middle" x="1985.58" y="-302.3" font-family="Times,serif" font-size="14.00">selector: pick_up_shaft1_with_clampgripper</text>
</g>
<!-- sequence: insert_shaft1_into_gearbase_hole1&#45;&gt;selector: pick_up_shaft1_with_clampgripper -->
<g id="edge14" class="edge">
<title>sequence: insert_shaft1_into_gearbase_hole1&#45;&gt;selector: pick_up_shaft1_with_clampgripper</title>
<path fill="none" stroke="black" d="M1985.58,-359.7C1985.58,-351.98 1985.58,-342.71 1985.58,-334.11"/>
<polygon fill="black" stroke="black" points="1989.08,-334.1 1985.58,-324.1 1982.08,-334.1 1989.08,-334.1"/>
</g>
<!-- selector: insert_shaft1_gearbase_hole1 -->
<g id="node26" class="node">
<title>selector: insert_shaft1_gearbase_hole1</title>
<ellipse fill="none" stroke="black" cx="2869.58" cy="-306" rx="191.17" ry="18"/>
<text text-anchor="middle" x="2869.58" y="-302.3" font-family="Times,serif" font-size="14.00">selector: insert_shaft1_gearbase_hole1</text>
</g>
<!-- sequence: insert_shaft1_into_gearbase_hole1&#45;&gt;selector: insert_shaft1_gearbase_hole1 -->
<g id="edge20" class="edge">
<title>sequence: insert_shaft1_into_gearbase_hole1&#45;&gt;selector: insert_shaft1_gearbase_hole1</title>
<path fill="none" stroke="black" d="M2137.55,-364.97C2300.01,-352.1 2556.08,-331.83 2718.28,-318.98"/>
<polygon fill="black" stroke="black" points="2718.65,-322.46 2728.35,-318.18 2718.1,-315.48 2718.65,-322.46"/>
</g>
<!-- target: hold(left_hand, clampgripper) -->
<g id="node8" class="node">
<title>target: hold(left_hand, clampgripper)</title>
<ellipse fill="none" stroke="black" cx="459.58" cy="-234" rx="183.07" ry="18"/>
<text text-anchor="middle" x="459.58" y="-230.3" font-family="Times,serif" font-size="14.00">target: hold(left_hand, clampgripper)</text>
</g>
<!-- selector: change_tool(left_hand, outwardgripper, clampgripper)&#45;&gt;target: hold(left_hand, clampgripper) -->
<g id="edge4" class="edge">
<title>selector: change_tool(left_hand, outwardgripper, clampgripper)&#45;&gt;target: hold(left_hand, clampgripper)</title>
<path fill="none" stroke="black" d="M857.45,-289.29C772.29,-277.67 656.9,-261.92 572.31,-250.38"/>
<polygon fill="black" stroke="black" points="572.53,-246.88 562.15,-249 571.59,-253.82 572.53,-246.88"/>
</g>
<!-- sequence: change_tool(left_hand, outwardgripper, clampgripper) -->
<g id="node9" class="node">
<title>sequence: change_tool(left_hand, outwardgripper, clampgripper)</title>
<ellipse fill="none" stroke="black" cx="972.58" cy="-234" rx="311.14" ry="18"/>
<text text-anchor="middle" x="972.58" y="-230.3" font-family="Times,serif" font-size="14.00">sequence: change_tool(left_hand, outwardgripper, clampgripper)</text>
</g>
<!-- selector: change_tool(left_hand, outwardgripper, clampgripper)&#45;&gt;sequence: change_tool(left_hand, outwardgripper, clampgripper) -->
<g id="edge5" class="edge">
<title>selector: change_tool(left_hand, outwardgripper, clampgripper)&#45;&gt;sequence: change_tool(left_hand, outwardgripper, clampgripper)</title>
<path fill="none" stroke="black" d="M972.58,-287.7C972.58,-279.98 972.58,-270.71 972.58,-262.11"/>
<polygon fill="black" stroke="black" points="976.08,-262.1 972.58,-252.1 969.08,-262.1 976.08,-262.1"/>
</g>
<!-- precondition: hold(left_hand, outwardgripper) -->
<g id="node11" class="node">
<title>precondition: hold(left_hand, outwardgripper)</title>
<ellipse fill="none" stroke="black" cx="223.58" cy="-162" rx="223.66" ry="18"/>
<text text-anchor="middle" x="223.58" y="-158.3" font-family="Times,serif" font-size="14.00">precondition: hold(left_hand, outwardgripper)</text>
</g>
<!-- sequence: change_tool(left_hand, outwardgripper, clampgripper)&#45;&gt;precondition: hold(left_hand, outwardgripper) -->
<g id="edge6" class="edge">
<title>sequence: change_tool(left_hand, outwardgripper, clampgripper)&#45;&gt;precondition: hold(left_hand, outwardgripper)</title>
<path fill="none" stroke="black" d="M816.48,-218.41C686.34,-206.25 502.13,-189.03 373.69,-177.03"/>
<polygon fill="black" stroke="black" points="373.67,-173.51 363.39,-176.07 373.02,-180.48 373.67,-173.51"/>
</g>
<!-- selector: put_down_gear3_from_outwardgripper -->
<g id="node12" class="node">
<title>selector: put_down_gear3_from_outwardgripper</title>
<ellipse fill="none" stroke="black" cx="698.58" cy="-162" rx="233.16" ry="18"/>
<text text-anchor="middle" x="698.58" y="-158.3" font-family="Times,serif" font-size="14.00">selector: put_down_gear3_from_outwardgripper</text>
</g>
<!-- sequence: change_tool(left_hand, outwardgripper, clampgripper)&#45;&gt;selector: put_down_gear3_from_outwardgripper -->
<g id="edge7" class="edge">
<title>sequence: change_tool(left_hand, outwardgripper, clampgripper)&#45;&gt;selector: put_down_gear3_from_outwardgripper</title>
<path fill="none" stroke="black" d="M907.3,-216.32C866.85,-205.99 814.79,-192.69 772.79,-181.96"/>
<polygon fill="black" stroke="black" points="773.44,-178.51 762.89,-179.43 771.71,-185.3 773.44,-178.51"/>
</g>
<!-- action: change_tool(left_hand, outwardgripper, clampgripper) -->
<g id="node19" class="node">
<title>action: change_tool(left_hand, outwardgripper, clampgripper)</title>
<ellipse fill="none" stroke="black" cx="1245.58" cy="-162" rx="295.95" ry="18"/>
<text text-anchor="middle" x="1245.58" y="-158.3" font-family="Times,serif" font-size="14.00">action: change_tool(left_hand, outwardgripper, clampgripper)</text>
</g>
<!-- sequence: change_tool(left_hand, outwardgripper, clampgripper)&#45;&gt;action: change_tool(left_hand, outwardgripper, clampgripper) -->
<g id="edge13" class="edge">
<title>sequence: change_tool(left_hand, outwardgripper, clampgripper)&#45;&gt;action: change_tool(left_hand, outwardgripper, clampgripper)</title>
<path fill="none" stroke="black" d="M1037.62,-216.32C1077.63,-206.06 1129.04,-192.88 1170.73,-182.19"/>
<polygon fill="black" stroke="black" points="1171.75,-185.55 1180.56,-179.67 1170.01,-178.76 1171.75,-185.55"/>
</g>
<!-- precondition -->
<g id="node10" class="node">
<title>precondition</title>
<ellipse fill="gray" stroke="black" cx="2325.58" cy="-450" rx="118.87" ry="18"/>
<text text-anchor="middle" x="2325.58" y="-447.8" font-family="Times,serif" font-size="9.00">precondition: hold(clampgripper, shaft1)</text>
</g>
<!-- target: is_empty(outwardgripper) -->
<g id="node13" class="node">
<title>target: is_empty(outwardgripper)</title>
<ellipse fill="none" stroke="black" cx="485.58" cy="-90" rx="167.07" ry="18"/>
<text text-anchor="middle" x="485.58" y="-86.3" font-family="Times,serif" font-size="14.00">target: is_empty(outwardgripper)</text>
</g>
<!-- selector: put_down_gear3_from_outwardgripper&#45;&gt;target: is_empty(outwardgripper) -->
<g id="edge8" class="edge">
<title>selector: put_down_gear3_from_outwardgripper&#45;&gt;target: is_empty(outwardgripper)</title>
<path fill="none" stroke="black" d="M648.1,-144.41C617.11,-134.23 577.27,-121.13 544.79,-110.46"/>
<polygon fill="black" stroke="black" points="545.55,-107.03 534.96,-107.23 543.37,-113.68 545.55,-107.03"/>
</g>
<!-- sequence: put_down_gear3_from_outwardgripper -->
<g id="node14" class="node">
<title>sequence: put_down_gear3_from_outwardgripper</title>
<ellipse fill="none" stroke="black" cx="910.58" cy="-90" rx="239.66" ry="18"/>
<text text-anchor="middle" x="910.58" y="-86.3" font-family="Times,serif" font-size="14.00">sequence: put_down_gear3_from_outwardgripper</text>
</g>
<!-- selector: put_down_gear3_from_outwardgripper&#45;&gt;sequence: put_down_gear3_from_outwardgripper -->
<g id="edge9" class="edge">
<title>selector: put_down_gear3_from_outwardgripper&#45;&gt;sequence: put_down_gear3_from_outwardgripper</title>
<path fill="none" stroke="black" d="M748.82,-144.41C779.23,-134.37 818.19,-121.51 850.25,-110.92"/>
<polygon fill="black" stroke="black" points="851.57,-114.17 859.97,-107.71 849.37,-107.52 851.57,-114.17"/>
</g>
<!-- precondition: hold(left_hand, outwardgripper)* -->
<g id="node15" class="node">
<title>precondition: hold(left_hand, outwardgripper)*</title>
<ellipse fill="none" stroke="black" cx="457.58" cy="-18" rx="228.26" ry="18"/>
<text text-anchor="middle" x="457.58" y="-14.3" font-family="Times,serif" font-size="14.00">precondition: hold(left_hand, outwardgripper)*</text>
</g>
<!-- sequence: put_down_gear3_from_outwardgripper&#45;&gt;precondition: hold(left_hand, outwardgripper)* -->
<g id="edge10" class="edge">
<title>sequence: put_down_gear3_from_outwardgripper&#45;&gt;precondition: hold(left_hand, outwardgripper)*</title>
<path fill="none" stroke="black" d="M810.89,-73.59C738.61,-62.43 640.92,-47.33 566.58,-35.84"/>
<polygon fill="black" stroke="black" points="566.67,-32.32 556.25,-34.25 565.6,-39.23 566.67,-32.32"/>
</g>
<!-- precondition: hold(outwardgripper, gear3) -->
<g id="node16" class="node">
<title>precondition: hold(outwardgripper, gear3)</title>
<ellipse fill="none" stroke="black" cx="910.58" cy="-18" rx="206.86" ry="18"/>
<text text-anchor="middle" x="910.58" y="-14.3" font-family="Times,serif" font-size="14.00">precondition: hold(outwardgripper, gear3)</text>
</g>
<!-- sequence: put_down_gear3_from_outwardgripper&#45;&gt;precondition: hold(outwardgripper, gear3) -->
<g id="edge11" class="edge">
<title>sequence: put_down_gear3_from_outwardgripper&#45;&gt;precondition: hold(outwardgripper, gear3)</title>
<path fill="none" stroke="black" d="M910.58,-71.7C910.58,-63.98 910.58,-54.71 910.58,-46.11"/>
<polygon fill="black" stroke="black" points="914.08,-46.1 910.58,-36.1 907.08,-46.1 914.08,-46.1"/>
</g>
<!-- action: put_down(left_hand, outwardgripper, gear3) -->
<g id="node18" class="node">
<title>action: put_down(left_hand, outwardgripper, gear3)</title>
<ellipse fill="none" stroke="black" cx="1385.58" cy="-18" rx="250.46" ry="18"/>
<text text-anchor="middle" x="1385.58" y="-14.3" font-family="Times,serif" font-size="14.00">action: put_down(left_hand, outwardgripper, gear3)</text>
</g>
<!-- sequence: put_down_gear3_from_outwardgripper&#45;&gt;action: put_down(left_hand, outwardgripper, gear3) -->
<g id="edge12" class="edge">
<title>sequence: put_down_gear3_from_outwardgripper&#45;&gt;action: put_down(left_hand, outwardgripper, gear3)</title>
<path fill="none" stroke="black" d="M1014.23,-73.72C1090.15,-62.54 1193.16,-47.36 1271.43,-35.82"/>
<polygon fill="black" stroke="black" points="1271.95,-39.28 1281.33,-34.36 1270.92,-32.36 1271.95,-39.28"/>
</g>
<!-- action -->
<g id="node17" class="node">
<title>action</title>
<ellipse fill="gray" stroke="black" cx="2640.58" cy="-450" rx="177.65" ry="18"/>
<text text-anchor="middle" x="2640.58" y="-447.8" font-family="Times,serif" font-size="9.00">action: insert(left_hand, clampgripper, shaft1, gearbase_hole1)</text>
</g>
<!-- target: hold(clampgripper, shaft1) -->
<g id="node21" class="node">
<title>target: hold(clampgripper, shaft1)</title>
<ellipse fill="none" stroke="black" cx="1782.58" cy="-234" rx="168.97" ry="18"/>
<text text-anchor="middle" x="1782.58" y="-230.3" font-family="Times,serif" font-size="14.00">target: hold(clampgripper, shaft1)</text>
</g>
<!-- selector: pick_up_shaft1_with_clampgripper&#45;&gt;target: hold(clampgripper, shaft1) -->
<g id="edge15" class="edge">
<title>selector: pick_up_shaft1_with_clampgripper&#45;&gt;target: hold(clampgripper, shaft1)</title>
<path fill="none" stroke="black" d="M1937.47,-288.41C1908.17,-278.31 1870.56,-265.34 1839.74,-254.71"/>
<polygon fill="black" stroke="black" points="1840.59,-251.3 1829.99,-251.35 1838.31,-257.92 1840.59,-251.3"/>
</g>
<!-- sequence: pick_up_shaft1_with_clampgripper -->
<g id="node22" class="node">
<title>sequence: pick_up_shaft1_with_clampgripper</title>
<ellipse fill="none" stroke="black" cx="2189.58" cy="-234" rx="220.16" ry="18"/>
<text text-anchor="middle" x="2189.58" y="-230.3" font-family="Times,serif" font-size="14.00">sequence: pick_up_shaft1_with_clampgripper</text>
</g>
<!-- selector: pick_up_shaft1_with_clampgripper&#45;&gt;sequence: pick_up_shaft1_with_clampgripper -->
<g id="edge16" class="edge">
<title>selector: pick_up_shaft1_with_clampgripper&#45;&gt;sequence: pick_up_shaft1_with_clampgripper</title>
<path fill="none" stroke="black" d="M2033.93,-288.41C2063.16,-278.38 2100.62,-265.52 2131.47,-254.94"/>
<polygon fill="black" stroke="black" points="2132.91,-258.15 2141.23,-251.59 2130.63,-251.53 2132.91,-258.15"/>
</g>
<!-- precondition: hold(left_hand, clampgripper) -->
<g id="node23" class="node">
<title>precondition: hold(left_hand, clampgripper)</title>
<ellipse fill="none" stroke="black" cx="1772.58" cy="-162" rx="213.36" ry="18"/>
<text text-anchor="middle" x="1772.58" y="-158.3" font-family="Times,serif" font-size="14.00">precondition: hold(left_hand, clampgripper)</text>
</g>
<!-- sequence: pick_up_shaft1_with_clampgripper&#45;&gt;precondition: hold(left_hand, clampgripper) -->
<g id="edge17" class="edge">
<title>sequence: pick_up_shaft1_with_clampgripper&#45;&gt;precondition: hold(left_hand, clampgripper)</title>
<path fill="none" stroke="black" d="M2097.81,-217.59C2031.53,-206.47 1942.03,-191.44 1873.69,-179.97"/>
<polygon fill="black" stroke="black" points="1874.21,-176.51 1863.77,-178.31 1873.05,-183.41 1874.21,-176.51"/>
</g>
<!-- precondition: is_empty(clampgripper) -->
<g id="node24" class="node">
<title>precondition: is_empty(clampgripper)</title>
<ellipse fill="none" stroke="black" cx="2189.58" cy="-162" rx="185.77" ry="18"/>
<text text-anchor="middle" x="2189.58" y="-158.3" font-family="Times,serif" font-size="14.00">precondition: is_empty(clampgripper)</text>
</g>
<!-- sequence: pick_up_shaft1_with_clampgripper&#45;&gt;precondition: is_empty(clampgripper) -->
<g id="edge18" class="edge">
<title>sequence: pick_up_shaft1_with_clampgripper&#45;&gt;precondition: is_empty(clampgripper)</title>
<path fill="none" stroke="black" d="M2189.58,-215.7C2189.58,-207.98 2189.58,-198.71 2189.58,-190.11"/>
<polygon fill="black" stroke="black" points="2193.08,-190.1 2189.58,-180.1 2186.08,-190.1 2193.08,-190.1"/>
</g>
<!-- action: pick_up(left_hand, clampgripper, shaft1) -->
<g id="node25" class="node">
<title>action: pick_up(left_hand, clampgripper, shaft1)</title>
<ellipse fill="none" stroke="black" cx="2625.58" cy="-162" rx="232.06" ry="18"/>
<text text-anchor="middle" x="2625.58" y="-158.3" font-family="Times,serif" font-size="14.00">action: pick_up(left_hand, clampgripper, shaft1)</text>
</g>
<!-- sequence: pick_up_shaft1_with_clampgripper&#45;&gt;action: pick_up(left_hand, clampgripper, shaft1) -->
<g id="edge19" class="edge">
<title>sequence: pick_up_shaft1_with_clampgripper&#45;&gt;action: pick_up(left_hand, clampgripper, shaft1)</title>
<path fill="none" stroke="black" d="M2284.72,-217.72C2354,-206.6 2447.86,-191.53 2519.55,-180.02"/>
<polygon fill="black" stroke="black" points="2520.19,-183.47 2529.51,-178.42 2519.08,-176.55 2520.19,-183.47"/>
</g>
<!-- target: is_inserted_to(shaft1, gearbase_hole1)* -->
<g id="node27" class="node">
<title>target: is_inserted_to(shaft1, gearbase_hole1)*</title>
<ellipse fill="none" stroke="black" cx="2869.58" cy="-234" rx="228.26" ry="18"/>
<text text-anchor="middle" x="2869.58" y="-230.3" font-family="Times,serif" font-size="14.00">target: is_inserted_to(shaft1, gearbase_hole1)*</text>
</g>
<!-- selector: insert_shaft1_gearbase_hole1&#45;&gt;target: is_inserted_to(shaft1, gearbase_hole1)* -->
<g id="edge21" class="edge">
<title>selector: insert_shaft1_gearbase_hole1&#45;&gt;target: is_inserted_to(shaft1, gearbase_hole1)*</title>
<path fill="none" stroke="black" d="M2869.58,-287.7C2869.58,-279.98 2869.58,-270.71 2869.58,-262.11"/>
<polygon fill="black" stroke="black" points="2873.08,-262.1 2869.58,-252.1 2866.08,-262.1 2873.08,-262.1"/>
</g>
<!-- sequence: insert_shaft1_gearbase_hole1 -->
<g id="node28" class="node">
<title>sequence: insert_shaft1_gearbase_hole1</title>
<ellipse fill="none" stroke="black" cx="3420.58" cy="-234" rx="197.66" ry="18"/>
<text text-anchor="middle" x="3420.58" y="-230.3" font-family="Times,serif" font-size="14.00">sequence: insert_shaft1_gearbase_hole1</text>
</g>
<!-- selector: insert_shaft1_gearbase_hole1&#45;&gt;sequence: insert_shaft1_gearbase_hole1 -->
<g id="edge22" class="edge">
<title>selector: insert_shaft1_gearbase_hole1&#45;&gt;sequence: insert_shaft1_gearbase_hole1</title>
<path fill="none" stroke="black" d="M2978.44,-291.17C3071.28,-279.38 3204.57,-262.44 3300.49,-250.26"/>
<polygon fill="black" stroke="black" points="3301.05,-253.71 3310.53,-248.98 3300.17,-246.77 3301.05,-253.71"/>
</g>
<!-- precondition: hold(left_hand, clampgripper)* -->
<g id="node29" class="node">
<title>precondition: hold(left_hand, clampgripper)*</title>
<ellipse fill="none" stroke="black" cx="3093.58" cy="-162" rx="217.96" ry="18"/>
<text text-anchor="middle" x="3093.58" y="-158.3" font-family="Times,serif" font-size="14.00">precondition: hold(left_hand, clampgripper)*</text>
</g>
<!-- sequence: insert_shaft1_gearbase_hole1&#45;&gt;precondition: hold(left_hand, clampgripper)* -->
<g id="edge23" class="edge">
<title>sequence: insert_shaft1_gearbase_hole1&#45;&gt;precondition: hold(left_hand, clampgripper)*</title>
<path fill="none" stroke="black" d="M3346.79,-217.2C3296.62,-206.46 3230.13,-192.23 3177.87,-181.04"/>
<polygon fill="black" stroke="black" points="3178.46,-177.59 3167.95,-178.92 3177,-184.44 3178.46,-177.59"/>
</g>
<!-- precondition: hold(clampgripper, shaft1) -->
<g id="node30" class="node">
<title>precondition: hold(clampgripper, shaft1)</title>
<ellipse fill="none" stroke="black" cx="3527.58" cy="-162" rx="198.47" ry="18"/>
<text text-anchor="middle" x="3527.58" y="-158.3" font-family="Times,serif" font-size="14.00">precondition: hold(clampgripper, shaft1)</text>
</g>
<!-- sequence: insert_shaft1_gearbase_hole1&#45;&gt;precondition: hold(clampgripper, shaft1) -->
<g id="edge24" class="edge">
<title>sequence: insert_shaft1_gearbase_hole1&#45;&gt;precondition: hold(clampgripper, shaft1)</title>
<path fill="none" stroke="black" d="M3446.48,-216.05C3460.44,-206.92 3477.85,-195.53 3492.96,-185.65"/>
<polygon fill="black" stroke="black" points="3495.09,-188.44 3501.55,-180.03 3491.26,-182.58 3495.09,-188.44"/>
</g>
<!-- action: insert(left_hand, clampgripper, shaft1, gearbase_hole1) -->
<g id="node31" class="node">
<title>action: insert(left_hand, clampgripper, shaft1, gearbase_hole1)</title>
<ellipse fill="none" stroke="black" cx="4045.58" cy="-162" rx="302.45" ry="18"/>
<text text-anchor="middle" x="4045.58" y="-158.3" font-family="Times,serif" font-size="14.00">action: insert(left_hand, clampgripper, shaft1, gearbase_hole1)</text>
</g>
<!-- sequence: insert_shaft1_gearbase_hole1&#45;&gt;action: insert(left_hand, clampgripper, shaft1, gearbase_hole1) -->
<g id="edge25" class="edge">
<title>sequence: insert_shaft1_gearbase_hole1&#45;&gt;action: insert(left_hand, clampgripper, shaft1, gearbase_hole1)</title>
<path fill="none" stroke="black" d="M3539.98,-219.63C3642.62,-208.13 3790.99,-191.51 3900.46,-179.25"/>
<polygon fill="black" stroke="black" points="3901.05,-182.71 3910.6,-178.12 3900.27,-175.75 3901.05,-182.71"/>
</g>
</g>
</svg>
