<?xml version="1.0" encoding="UTF-8" standalone="no"?>
<!DOCTYPE svg PUBLIC "-//W3C//DTD SVG 1.1//EN"
 "http://www.w3.org/Graphics/SVG/1.1/DTD/svg11.dtd">
<!-- Generated by graphviz version 2.43.0 (0)
 -->
<!-- Title: pastafarianism Pages: 1 -->
<svg width="4282pt" height="332pt"
 viewBox="0.00 0.00 4281.80 332.00" xmlns="http://www.w3.org/2000/svg" xmlns:xlink="http://www.w3.org/1999/xlink">
<g id="graph0" class="graph" transform="scale(1 1) rotate(0) translate(4 328)">
<title>pastafarianism</title>
<polygon fill="white" stroke="transparent" points="-4,4 -4,-328 4277.8,-328 4277.8,4 -4,4"/>
<!-- selector -->
<g id="node1" class="node">
<title>selector</title>
<polygon fill="cyan" stroke="black" points="1080.78,-298.54 1080.78,-313.46 964.68,-324 800.48,-324 684.38,-313.46 684.38,-298.54 800.48,-288 964.68,-288 1080.78,-298.54"/>
<text text-anchor="middle" x="882.58" y="-303.8" font-family="Times,serif" font-size="9.00">selector: insert(left_hand, clampgripper, shaft1, gearbase_hole1)</text>
</g>
<!-- target -->
<g id="node2" class="node">
<title>target</title>
<ellipse fill="gray" stroke="black" cx="1233.58" cy="-306" rx="134.55" ry="18"/>
<text text-anchor="middle" x="1233.58" y="-303.8" font-family="Times,serif" font-size="9.00">target: is_inserted_to(shaft1, gearbase_hole1)*</text>
</g>
<!-- selector: insert(shaft1, gearbase_hole1) -->
<g id="node3" class="node">
<title>selector: insert(shaft1, gearbase_hole1)</title>
<ellipse fill="none" stroke="black" cx="1581.58" cy="-306" rx="194.97" ry="18"/>
<text text-anchor="middle" x="1581.58" y="-302.3" font-family="Times,serif" font-size="14.00">selector: insert(shaft1, gearbase_hole1)</text>
</g>
<!-- target: is_inserted_to(shaft1, gearbase_hole1) -->
<g id="node4" class="node">
<title>target: is_inserted_to(shaft1, gearbase_hole1)</title>
<ellipse fill="none" stroke="black" cx="1360.58" cy="-234" rx="223.66" ry="18"/>
<text text-anchor="middle" x="1360.58" y="-230.3" font-family="Times,serif" font-size="14.00">target: is_inserted_to(shaft1, gearbase_hole1)</text>
</g>
<!-- selector: insert(shaft1, gearbase_hole1)&#45;&gt;target: is_inserted_to(shaft1, gearbase_hole1) -->
<g id="edge1" class="edge">
<title>selector: insert(shaft1, gearbase_hole1)&#45;&gt;target: is_inserted_to(shaft1, gearbase_hole1)</title>
<path fill="none" stroke="black" d="M1529.77,-288.59C1497.72,-278.44 1456.39,-265.35 1422.6,-254.65"/>
<polygon fill="black" stroke="black" points="1423.43,-251.23 1412.84,-251.55 1421.31,-257.91 1423.43,-251.23"/>
</g>
<!-- sequence: insert(shaft1, gearbase_hole1) -->
<g id="node6" class="node">
<title>sequence: insert(shaft1, gearbase_hole1)</title>
<ellipse fill="none" stroke="black" cx="1803.58" cy="-234" rx="201.46" ry="18"/>
<text text-anchor="middle" x="1803.58" y="-230.3" font-family="Times,serif" font-size="14.00">sequence: insert(shaft1, gearbase_hole1)</text>
</g>
<!-- selector: insert(shaft1, gearbase_hole1)&#45;&gt;sequence: insert(shaft1, gearbase_hole1) -->
<g id="edge2" class="edge">
<title>selector: insert(shaft1, gearbase_hole1)&#45;&gt;sequence: insert(shaft1, gearbase_hole1)</title>
<path fill="none" stroke="black" d="M1633.63,-288.59C1665.94,-278.4 1707.64,-265.25 1741.64,-254.53"/>
<polygon fill="black" stroke="black" points="1742.99,-257.78 1751.47,-251.43 1740.88,-251.1 1742.99,-257.78"/>
</g>
<!-- sequence -->
<g id="node5" class="node">
<title>sequence</title>
<polygon fill="orange" stroke="black" points="2117.08,-324 1794.08,-324 1794.08,-288 2117.08,-288 2117.08,-324"/>
<text text-anchor="middle" x="1955.58" y="-303.8" font-family="Times,serif" font-size="9.00">sequence: insert(left_hand, clampgripper, shaft1, gearbase_hole1)</text>
</g>
<!-- selector: change_tool(left_hand, outwardgripper, clampgripper) -->
<g id="node7" class="node">
<title>selector: change_tool(left_hand, outwardgripper, clampgripper)</title>
<ellipse fill="none" stroke="black" cx="1049.58" cy="-162" rx="304.65" ry="18"/>
<text text-anchor="middle" x="1049.58" y="-158.3" font-family="Times,serif" font-size="14.00">selector: change_tool(left_hand, outwardgripper, clampgripper)</text>
</g>
<!-- sequence: insert(shaft1, gearbase_hole1)&#45;&gt;selector: change_tool(left_hand, outwardgripper, clampgripper) -->
<g id="edge3" class="edge">
<title>sequence: insert(shaft1, gearbase_hole1)&#45;&gt;selector: change_tool(left_hand, outwardgripper, clampgripper)</title>
<path fill="none" stroke="black" d="M1669.21,-220.53C1542.41,-208.75 1351.93,-191.07 1215.65,-178.42"/>
<polygon fill="black" stroke="black" points="1215.81,-174.92 1205.53,-177.48 1215.16,-181.89 1215.81,-174.92"/>
</g>
<!-- selector: pick_up(left_hand, clampgripper, shaft1) -->
<g id="node15" class="node">
<title>selector: pick_up(left_hand, clampgripper, shaft1)</title>
<ellipse fill="none" stroke="black" cx="1803.58" cy="-162" rx="241.26" ry="18"/>
<text text-anchor="middle" x="1803.58" y="-158.3" font-family="Times,serif" font-size="14.00">selector: pick_up(left_hand, clampgripper, shaft1)</text>
</g>
<!-- sequence: insert(shaft1, gearbase_hole1)&#45;&gt;selector: pick_up(left_hand, clampgripper, shaft1) -->
<g id="edge9" class="edge">
<title>sequence: insert(shaft1, gearbase_hole1)&#45;&gt;selector: pick_up(left_hand, clampgripper, shaft1)</title>
<path fill="none" stroke="black" d="M1803.58,-215.7C1803.58,-207.98 1803.58,-198.71 1803.58,-190.11"/>
<polygon fill="black" stroke="black" points="1807.08,-190.1 1803.58,-180.1 1800.08,-190.1 1807.08,-190.1"/>
</g>
<!-- selector: insert(left_hand, clampgripper, shaft1, gearbase_hole1) -->
<g id="node21" class="node">
<title>selector: insert(left_hand, clampgripper, shaft1, gearbase_hole1)</title>
<ellipse fill="none" stroke="black" cx="2749.58" cy="-162" rx="311.14" ry="18"/>
<text text-anchor="middle" x="2749.58" y="-158.3" font-family="Times,serif" font-size="14.00">selector: insert(left_hand, clampgripper, shaft1, gearbase_hole1)</text>
</g>
<!-- sequence: insert(shaft1, gearbase_hole1)&#45;&gt;selector: insert(left_hand, clampgripper, shaft1, gearbase_hole1) -->
<g id="edge15" class="edge">
<title>sequence: insert(shaft1, gearbase_hole1)&#45;&gt;selector: insert(left_hand, clampgripper, shaft1, gearbase_hole1)</title>
<path fill="none" stroke="black" d="M1953.22,-221.93C2116.28,-209.86 2377.69,-190.52 2556.2,-177.31"/>
<polygon fill="black" stroke="black" points="2556.52,-180.79 2566.24,-176.57 2556.01,-173.81 2556.52,-180.79"/>
</g>
<!-- target: hold(left_hand, clampgripper) -->
<g id="node8" class="node">
<title>target: hold(left_hand, clampgripper)</title>
<ellipse fill="none" stroke="black" cx="536.58" cy="-90" rx="183.07" ry="18"/>
<text text-anchor="middle" x="536.58" y="-86.3" font-family="Times,serif" font-size="14.00">target: hold(left_hand, clampgripper)</text>
</g>
<!-- selector: change_tool(left_hand, outwardgripper, clampgripper)&#45;&gt;target: hold(left_hand, clampgripper) -->
<g id="edge4" class="edge">
<title>selector: change_tool(left_hand, outwardgripper, clampgripper)&#45;&gt;target: hold(left_hand, clampgripper)</title>
<path fill="none" stroke="black" d="M934.45,-145.29C849.29,-133.67 733.9,-117.92 649.31,-106.38"/>
<polygon fill="black" stroke="black" points="649.53,-102.88 639.15,-105 648.59,-109.82 649.53,-102.88"/>
</g>
<!-- sequence: change_tool(left_hand, outwardgripper, clampgripper) -->
<g id="node9" class="node">
<title>sequence: change_tool(left_hand, outwardgripper, clampgripper)</title>
<ellipse fill="none" stroke="black" cx="1049.58" cy="-90" rx="311.14" ry="18"/>
<text text-anchor="middle" x="1049.58" y="-86.3" font-family="Times,serif" font-size="14.00">sequence: change_tool(left_hand, outwardgripper, clampgripper)</text>
</g>
<!-- selector: change_tool(left_hand, outwardgripper, clampgripper)&#45;&gt;sequence: change_tool(left_hand, outwardgripper, clampgripper) -->
<g id="edge5" class="edge">
<title>selector: change_tool(left_hand, outwardgripper, clampgripper)&#45;&gt;sequence: change_tool(left_hand, outwardgripper, clampgripper)</title>
<path fill="none" stroke="black" d="M1049.58,-143.7C1049.58,-135.98 1049.58,-126.71 1049.58,-118.11"/>
<polygon fill="black" stroke="black" points="1053.08,-118.1 1049.58,-108.1 1046.08,-118.1 1053.08,-118.1"/>
</g>
<!-- precondition: hold(left_hand, outwardgripper) -->
<g id="node11" class="node">
<title>precondition: hold(left_hand, outwardgripper)</title>
<ellipse fill="none" stroke="black" cx="223.58" cy="-18" rx="223.66" ry="18"/>
<text text-anchor="middle" x="223.58" y="-14.3" font-family="Times,serif" font-size="14.00">precondition: hold(left_hand, outwardgripper)</text>
</g>
<!-- sequence: change_tool(left_hand, outwardgripper, clampgripper)&#45;&gt;precondition: hold(left_hand, outwardgripper) -->
<g id="edge6" class="edge">
<title>sequence: change_tool(left_hand, outwardgripper, clampgripper)&#45;&gt;precondition: hold(left_hand, outwardgripper)</title>
<path fill="none" stroke="black" d="M881.93,-74.79C735.6,-62.39 524.83,-44.53 381.47,-32.38"/>
<polygon fill="black" stroke="black" points="381.52,-28.87 371.26,-31.52 380.93,-35.85 381.52,-28.87"/>
</g>
<!-- precondition: is_empty(outwardgripper) -->
<g id="node12" class="node">
<title>precondition: is_empty(outwardgripper)</title>
<ellipse fill="none" stroke="black" cx="661.58" cy="-18" rx="196.07" ry="18"/>
<text text-anchor="middle" x="661.58" y="-14.3" font-family="Times,serif" font-size="14.00">precondition: is_empty(outwardgripper)</text>
</g>
<!-- sequence: change_tool(left_hand, outwardgripper, clampgripper)&#45;&gt;precondition: is_empty(outwardgripper) -->
<g id="edge7" class="edge">
<title>sequence: change_tool(left_hand, outwardgripper, clampgripper)&#45;&gt;precondition: is_empty(outwardgripper)</title>
<path fill="none" stroke="black" d="M959.59,-72.76C898.62,-61.77 818.2,-47.26 756.26,-36.08"/>
<polygon fill="black" stroke="black" points="756.56,-32.58 746.1,-34.25 755.32,-39.47 756.56,-32.58"/>
</g>
<!-- action: change_tool(left_hand, outwardgripper, clampgripper) -->
<g id="node14" class="node">
<title>action: change_tool(left_hand, outwardgripper, clampgripper)</title>
<ellipse fill="none" stroke="black" cx="1171.58" cy="-18" rx="295.95" ry="18"/>
<text text-anchor="middle" x="1171.58" y="-14.3" font-family="Times,serif" font-size="14.00">action: change_tool(left_hand, outwardgripper, clampgripper)</text>
</g>
<!-- sequence: change_tool(left_hand, outwardgripper, clampgripper)&#45;&gt;action: change_tool(left_hand, outwardgripper, clampgripper) -->
<g id="edge8" class="edge">
<title>sequence: change_tool(left_hand, outwardgripper, clampgripper)&#45;&gt;action: change_tool(left_hand, outwardgripper, clampgripper)</title>
<path fill="none" stroke="black" d="M1079.11,-72.05C1095.33,-62.75 1115.63,-51.11 1133.07,-41.1"/>
<polygon fill="black" stroke="black" points="1134.96,-44.04 1141.9,-36.03 1131.48,-37.97 1134.96,-44.04"/>
</g>
<!-- precondition -->
<g id="node10" class="node">
<title>precondition</title>
<ellipse fill="gray" stroke="black" cx="2253.58" cy="-306" rx="118.87" ry="18"/>
<text text-anchor="middle" x="2253.58" y="-303.8" font-family="Times,serif" font-size="9.00">precondition: hold(clampgripper, shaft1)</text>
</g>
<!-- action -->
<g id="node13" class="node">
<title>action</title>
<ellipse fill="gray" stroke="black" cx="2568.58" cy="-306" rx="177.65" ry="18"/>
<text text-anchor="middle" x="2568.58" y="-303.8" font-family="Times,serif" font-size="9.00">action: insert(left_hand, clampgripper, shaft1, gearbase_hole1)</text>
</g>
<!-- target: hold(clampgripper, shaft1) -->
<g id="node16" class="node">
<title>target: hold(clampgripper, shaft1)</title>
<ellipse fill="none" stroke="black" cx="1681.58" cy="-90" rx="168.97" ry="18"/>
<text text-anchor="middle" x="1681.58" y="-86.3" font-family="Times,serif" font-size="14.00">target: hold(clampgripper, shaft1)</text>
</g>
<!-- selector: pick_up(left_hand, clampgripper, shaft1)&#45;&gt;target: hold(clampgripper, shaft1) -->
<g id="edge10" class="edge">
<title>selector: pick_up(left_hand, clampgripper, shaft1)&#45;&gt;target: hold(clampgripper, shaft1)</title>
<path fill="none" stroke="black" d="M1774.05,-144.05C1757.71,-134.68 1737.23,-122.93 1719.7,-112.87"/>
<polygon fill="black" stroke="black" points="1721.26,-109.73 1710.84,-107.79 1717.77,-115.8 1721.26,-109.73"/>
</g>
<!-- sequence: pick_up(left_hand, clampgripper, shaft1) -->
<g id="node17" class="node">
<title>sequence: pick_up(left_hand, clampgripper, shaft1)</title>
<ellipse fill="none" stroke="black" cx="2115.58" cy="-90" rx="246.96" ry="18"/>
<text text-anchor="middle" x="2115.58" y="-86.3" font-family="Times,serif" font-size="14.00">sequence: pick_up(left_hand, clampgripper, shaft1)</text>
</g>
<!-- selector: pick_up(left_hand, clampgripper, shaft1)&#45;&gt;sequence: pick_up(left_hand, clampgripper, shaft1) -->
<g id="edge11" class="edge">
<title>selector: pick_up(left_hand, clampgripper, shaft1)&#45;&gt;sequence: pick_up(left_hand, clampgripper, shaft1)</title>
<path fill="none" stroke="black" d="M1875.94,-144.76C1922.93,-134.22 1984.29,-120.46 2033.16,-109.49"/>
<polygon fill="black" stroke="black" points="2034.08,-112.87 2043.07,-107.27 2032.55,-106.04 2034.08,-112.87"/>
</g>
<!-- precondition: hold(left_hand, clampgripper) -->
<g id="node18" class="node">
<title>precondition: hold(left_hand, clampgripper)</title>
<ellipse fill="none" stroke="black" cx="1698.58" cy="-18" rx="213.36" ry="18"/>
<text text-anchor="middle" x="1698.58" y="-14.3" font-family="Times,serif" font-size="14.00">precondition: hold(left_hand, clampgripper)</text>
</g>
<!-- sequence: pick_up(left_hand, clampgripper, shaft1)&#45;&gt;precondition: hold(left_hand, clampgripper) -->
<g id="edge12" class="edge">
<title>sequence: pick_up(left_hand, clampgripper, shaft1)&#45;&gt;precondition: hold(left_hand, clampgripper)</title>
<path fill="none" stroke="black" d="M2022.26,-73.33C1956.26,-62.26 1867.83,-47.41 1800.08,-36.04"/>
<polygon fill="black" stroke="black" points="1800.25,-32.52 1789.81,-34.31 1799.09,-39.42 1800.25,-32.52"/>
</g>
<!-- precondition: is_empty(clampgripper) -->
<g id="node19" class="node">
<title>precondition: is_empty(clampgripper)</title>
<ellipse fill="none" stroke="black" cx="2115.58" cy="-18" rx="185.77" ry="18"/>
<text text-anchor="middle" x="2115.58" y="-14.3" font-family="Times,serif" font-size="14.00">precondition: is_empty(clampgripper)</text>
</g>
<!-- sequence: pick_up(left_hand, clampgripper, shaft1)&#45;&gt;precondition: is_empty(clampgripper) -->
<g id="edge13" class="edge">
<title>sequence: pick_up(left_hand, clampgripper, shaft1)&#45;&gt;precondition: is_empty(clampgripper)</title>
<path fill="none" stroke="black" d="M2115.58,-71.7C2115.58,-63.98 2115.58,-54.71 2115.58,-46.11"/>
<polygon fill="black" stroke="black" points="2119.08,-46.1 2115.58,-36.1 2112.08,-46.1 2119.08,-46.1"/>
</g>
<!-- action: pick_up(left_hand, clampgripper, shaft1) -->
<g id="node20" class="node">
<title>action: pick_up(left_hand, clampgripper, shaft1)</title>
<ellipse fill="none" stroke="black" cx="2551.58" cy="-18" rx="232.06" ry="18"/>
<text text-anchor="middle" x="2551.58" y="-14.3" font-family="Times,serif" font-size="14.00">action: pick_up(left_hand, clampgripper, shaft1)</text>
</g>
<!-- sequence: pick_up(left_hand, clampgripper, shaft1)&#45;&gt;action: pick_up(left_hand, clampgripper, shaft1) -->
<g id="edge14" class="edge">
<title>sequence: pick_up(left_hand, clampgripper, shaft1)&#45;&gt;action: pick_up(left_hand, clampgripper, shaft1)</title>
<path fill="none" stroke="black" d="M2212.61,-73.42C2281.75,-62.32 2374.65,-47.41 2445.7,-36"/>
<polygon fill="black" stroke="black" points="2446.26,-39.45 2455.58,-34.41 2445.15,-32.54 2446.26,-39.45"/>
</g>
<!-- target: is_inserted_to(shaft1, gearbase_hole1)* -->
<g id="node22" class="node">
<title>target: is_inserted_to(shaft1, gearbase_hole1)*</title>
<ellipse fill="none" stroke="black" cx="2749.58" cy="-90" rx="228.26" ry="18"/>
<text text-anchor="middle" x="2749.58" y="-86.3" font-family="Times,serif" font-size="14.00">target: is_inserted_to(shaft1, gearbase_hole1)*</text>
</g>
<!-- selector: insert(left_hand, clampgripper, shaft1, gearbase_hole1)&#45;&gt;target: is_inserted_to(shaft1, gearbase_hole1)* -->
<g id="edge16" class="edge">
<title>selector: insert(left_hand, clampgripper, shaft1, gearbase_hole1)&#45;&gt;target: is_inserted_to(shaft1, gearbase_hole1)*</title>
<path fill="none" stroke="black" d="M2749.58,-143.7C2749.58,-135.98 2749.58,-126.71 2749.58,-118.11"/>
<polygon fill="black" stroke="black" points="2753.08,-118.1 2749.58,-108.1 2746.08,-118.1 2753.08,-118.1"/>
</g>
<!-- sequence: insert(left_hand, clampgripper, shaft1, gearbase_hole1) -->
<g id="node23" class="node">
<title>sequence: insert(left_hand, clampgripper, shaft1, gearbase_hole1)</title>
<ellipse fill="none" stroke="black" cx="3382.58" cy="-90" rx="317.34" ry="18"/>
<text text-anchor="middle" x="3382.58" y="-86.3" font-family="Times,serif" font-size="14.00">sequence: insert(left_hand, clampgripper, shaft1, gearbase_hole1)</text>
</g>
<!-- selector: insert(left_hand, clampgripper, shaft1, gearbase_hole1)&#45;&gt;sequence: insert(left_hand, clampgripper, shaft1, gearbase_hole1) -->
<g id="edge17" class="edge">
<title>selector: insert(left_hand, clampgripper, shaft1, gearbase_hole1)&#45;&gt;sequence: insert(left_hand, clampgripper, shaft1, gearbase_hole1)</title>
<path fill="none" stroke="black" d="M2886.93,-145.81C2989.61,-134.46 3129.8,-118.95 3234.89,-107.33"/>
<polygon fill="black" stroke="black" points="3235.4,-110.8 3244.95,-106.22 3234.63,-103.84 3235.4,-110.8"/>
</g>
<!-- precondition: hold(left_hand, clampgripper)* -->
<g id="node24" class="node">
<title>precondition: hold(left_hand, clampgripper)*</title>
<ellipse fill="none" stroke="black" cx="3019.58" cy="-18" rx="217.96" ry="18"/>
<text text-anchor="middle" x="3019.58" y="-14.3" font-family="Times,serif" font-size="14.00">precondition: hold(left_hand, clampgripper)*</text>
</g>
<!-- sequence: insert(left_hand, clampgripper, shaft1, gearbase_hole1)&#45;&gt;precondition: hold(left_hand, clampgripper)* -->
<g id="edge18" class="edge">
<title>sequence: insert(left_hand, clampgripper, shaft1, gearbase_hole1)&#45;&gt;precondition: hold(left_hand, clampgripper)*</title>
<path fill="none" stroke="black" d="M3297.47,-72.59C3241.53,-61.8 3168.37,-47.69 3111.16,-36.66"/>
<polygon fill="black" stroke="black" points="3111.52,-33.16 3101.04,-34.71 3110.19,-40.04 3111.52,-33.16"/>
</g>
<!-- precondition: hold(clampgripper, shaft1) -->
<g id="node25" class="node">
<title>precondition: hold(clampgripper, shaft1)</title>
<ellipse fill="none" stroke="black" cx="3453.58" cy="-18" rx="198.47" ry="18"/>
<text text-anchor="middle" x="3453.58" y="-14.3" font-family="Times,serif" font-size="14.00">precondition: hold(clampgripper, shaft1)</text>
</g>
<!-- sequence: insert(left_hand, clampgripper, shaft1, gearbase_hole1)&#45;&gt;precondition: hold(clampgripper, shaft1) -->
<g id="edge19" class="edge">
<title>sequence: insert(left_hand, clampgripper, shaft1, gearbase_hole1)&#45;&gt;precondition: hold(clampgripper, shaft1)</title>
<path fill="none" stroke="black" d="M3400.13,-71.7C3408.81,-63.14 3419.44,-52.66 3428.93,-43.3"/>
<polygon fill="black" stroke="black" points="3431.57,-45.62 3436.23,-36.1 3426.65,-40.63 3431.57,-45.62"/>
</g>
<!-- action: insert(left_hand, clampgripper, shaft1, gearbase_hole1) -->
<g id="node26" class="node">
<title>action: insert(left_hand, clampgripper, shaft1, gearbase_hole1)</title>
<ellipse fill="none" stroke="black" cx="3971.58" cy="-18" rx="302.45" ry="18"/>
<text text-anchor="middle" x="3971.58" y="-14.3" font-family="Times,serif" font-size="14.00">action: insert(left_hand, clampgripper, shaft1, gearbase_hole1)</text>
</g>
<!-- sequence: insert(left_hand, clampgripper, shaft1, gearbase_hole1)&#45;&gt;action: insert(left_hand, clampgripper, shaft1, gearbase_hole1) -->
<g id="edge20" class="edge">
<title>sequence: insert(left_hand, clampgripper, shaft1, gearbase_hole1)&#45;&gt;action: insert(left_hand, clampgripper, shaft1, gearbase_hole1)</title>
<path fill="none" stroke="black" d="M3512.57,-73.55C3607.46,-62.27 3735.89,-47.01 3832.77,-35.5"/>
<polygon fill="black" stroke="black" points="3833.42,-38.94 3842.94,-34.29 3832.6,-31.99 3833.42,-38.94"/>
</g>
</g>
</svg>
