<?xml version="1.0" encoding="UTF-8" standalone="no"?>
<!DOCTYPE svg PUBLIC "-//W3C//DTD SVG 1.1//EN"
 "http://www.w3.org/Graphics/SVG/1.1/DTD/svg11.dtd">
<!-- Generated by graphviz version 2.43.0 (0)
 -->
<!-- Title: pastafarianism Pages: 1 -->
<svg width="4282pt" height="332pt"
 viewBox="0.00 0.00 4281.80 332.00" xmlns="http://www.w3.org/2000/svg" xmlns:xlink="http://www.w3.org/1999/xlink">
<g id="graph0" class="graph" transform="scale(1 1) rotate(0) translate(4 328)">
<title>pastafarianism</title>
<polygon fill="white" stroke="transparent" points="-4,4 -4,-328 4277.8,-328 4277.8,4 -4,4"/>
<!-- selector -->
<g id="node1" class="node">
<title>selector</title>
<polygon fill="cyan" stroke="black" points="1059.79,-298.54 1059.79,-313.46 972.97,-324 850.19,-324 763.37,-313.46 763.37,-298.54 850.19,-288 972.97,-288 1059.79,-298.54"/>
<text text-anchor="middle" x="911.58" y="-303.8" font-family="Times,serif" font-size="9.00">selector: insert shaft1 into gearbase_hole1 final</text>
</g>
<!-- target -->
<g id="node2" class="node">
<title>target</title>
<ellipse fill="gray" stroke="black" cx="1212.58" cy="-306" rx="134.55" ry="18"/>
<text text-anchor="middle" x="1212.58" y="-303.8" font-family="Times,serif" font-size="9.00">target: is_inserted_to(shaft1, gearbase_hole1)*</text>
</g>
<!-- selector: insert shaft1 into gearbase_hole1 -->
<g id="node3" class="node">
<title>selector: insert shaft1 into gearbase_hole1</title>
<ellipse fill="none" stroke="black" cx="1574.58" cy="-306" rx="209.06" ry="18"/>
<text text-anchor="middle" x="1574.58" y="-302.3" font-family="Times,serif" font-size="14.00">selector: insert shaft1 into gearbase_hole1</text>
</g>
<!-- target: is_inserted_to(shaft1, gearbase_hole1) -->
<g id="node4" class="node">
<title>target: is_inserted_to(shaft1, gearbase_hole1)</title>
<ellipse fill="none" stroke="black" cx="1346.58" cy="-234" rx="223.66" ry="18"/>
<text text-anchor="middle" x="1346.58" y="-230.3" font-family="Times,serif" font-size="14.00">target: is_inserted_to(shaft1, gearbase_hole1)</text>
</g>
<!-- selector: insert shaft1 into gearbase_hole1&#45;&gt;target: is_inserted_to(shaft1, gearbase_hole1) -->
<g id="edge1" class="edge">
<title>selector: insert shaft1 into gearbase_hole1&#45;&gt;target: is_inserted_to(shaft1, gearbase_hole1)</title>
<path fill="none" stroke="black" d="M1521.12,-288.59C1487.92,-278.39 1445.06,-265.23 1410.12,-254.51"/>
<polygon fill="black" stroke="black" points="1411.08,-251.14 1400.49,-251.55 1409.02,-257.83 1411.08,-251.14"/>
</g>
<!-- sequence: insert shaft1 into gearbase_hole1 -->
<g id="node6" class="node">
<title>sequence: insert shaft1 into gearbase_hole1</title>
<ellipse fill="none" stroke="black" cx="1803.58" cy="-234" rx="215.56" ry="18"/>
<text text-anchor="middle" x="1803.58" y="-230.3" font-family="Times,serif" font-size="14.00">sequence: insert shaft1 into gearbase_hole1</text>
</g>
<!-- selector: insert shaft1 into gearbase_hole1&#45;&gt;sequence: insert shaft1 into gearbase_hole1 -->
<g id="edge2" class="edge">
<title>selector: insert shaft1 into gearbase_hole1&#45;&gt;sequence: insert shaft1 into gearbase_hole1</title>
<path fill="none" stroke="black" d="M1628.27,-288.59C1661.62,-278.39 1704.67,-265.23 1739.76,-254.51"/>
<polygon fill="black" stroke="black" points="1740.89,-257.82 1749.43,-251.55 1738.85,-251.13 1740.89,-257.82"/>
</g>
<!-- sequence -->
<g id="node5" class="node">
<title>sequence</title>
<polygon fill="orange" stroke="black" points="2045.58,-324 1801.58,-324 1801.58,-288 2045.58,-288 2045.58,-324"/>
<text text-anchor="middle" x="1923.58" y="-303.8" font-family="Times,serif" font-size="9.00">sequence: insert shaft1 into gearbase_hole1 final</text>
</g>
<!-- selector: change_tool(left_hand, outwardgripper, clampgripper) -->
<g id="node7" class="node">
<title>selector: change_tool(left_hand, outwardgripper, clampgripper)</title>
<ellipse fill="none" stroke="black" cx="1049.58" cy="-162" rx="304.65" ry="18"/>
<text text-anchor="middle" x="1049.58" y="-158.3" font-family="Times,serif" font-size="14.00">selector: change_tool(left_hand, outwardgripper, clampgripper)</text>
</g>
<!-- sequence: insert shaft1 into gearbase_hole1&#45;&gt;selector: change_tool(left_hand, outwardgripper, clampgripper) -->
<g id="edge3" class="edge">
<title>sequence: insert shaft1 into gearbase_hole1&#45;&gt;selector: change_tool(left_hand, outwardgripper, clampgripper)</title>
<path fill="none" stroke="black" d="M1665.28,-220.16C1538.47,-208.39 1350.44,-190.93 1215.57,-178.41"/>
<polygon fill="black" stroke="black" points="1215.82,-174.92 1205.54,-177.48 1215.18,-181.89 1215.82,-174.92"/>
</g>
<!-- selector: pick_up(left_hand, clampgripper, shaft1) -->
<g id="node15" class="node">
<title>selector: pick_up(left_hand, clampgripper, shaft1)</title>
<ellipse fill="none" stroke="black" cx="1803.58" cy="-162" rx="241.26" ry="18"/>
<text text-anchor="middle" x="1803.58" y="-158.3" font-family="Times,serif" font-size="14.00">selector: pick_up(left_hand, clampgripper, shaft1)</text>
</g>
<!-- sequence: insert shaft1 into gearbase_hole1&#45;&gt;selector: pick_up(left_hand, clampgripper, shaft1) -->
<g id="edge9" class="edge">
<title>sequence: insert shaft1 into gearbase_hole1&#45;&gt;selector: pick_up(left_hand, clampgripper, shaft1)</title>
<path fill="none" stroke="black" d="M1803.58,-215.7C1803.58,-207.98 1803.58,-198.71 1803.58,-190.11"/>
<polygon fill="black" stroke="black" points="1807.08,-190.1 1803.58,-180.1 1800.08,-190.1 1807.08,-190.1"/>
</g>
<!-- selector: insert shaft1 into gearbase_hole1 final -->
<g id="node21" class="node">
<title>selector: insert shaft1 into gearbase_hole1 final</title>
<ellipse fill="none" stroke="black" cx="2788.58" cy="-162" rx="232.86" ry="18"/>
<text text-anchor="middle" x="2788.58" y="-158.3" font-family="Times,serif" font-size="14.00">selector: insert shaft1 into gearbase_hole1 final</text>
</g>
<!-- sequence: insert shaft1 into gearbase_hole1&#45;&gt;selector: insert shaft1 into gearbase_hole1 final -->
<g id="edge15" class="edge">
<title>sequence: insert shaft1 into gearbase_hole1&#45;&gt;selector: insert shaft1 into gearbase_hole1 final</title>
<path fill="none" stroke="black" d="M1961.84,-221.75C2140.06,-209.09 2428.85,-188.56 2613.64,-175.43"/>
<polygon fill="black" stroke="black" points="2614.01,-178.92 2623.73,-174.72 2613.51,-171.93 2614.01,-178.92"/>
</g>
<!-- target: hold(left_hand, clampgripper) -->
<g id="node8" class="node">
<title>target: hold(left_hand, clampgripper)</title>
<ellipse fill="none" stroke="black" cx="536.58" cy="-90" rx="183.07" ry="18"/>
<text text-anchor="middle" x="536.58" y="-86.3" font-family="Times,serif" font-size="14.00">target: hold(left_hand, clampgripper)</text>
</g>
<!-- selector: change_tool(left_hand, outwardgripper, clampgripper)&#45;&gt;target: hold(left_hand, clampgripper) -->
<g id="edge4" class="edge">
<title>selector: change_tool(left_hand, outwardgripper, clampgripper)&#45;&gt;target: hold(left_hand, clampgripper)</title>
<path fill="none" stroke="black" d="M934.45,-145.29C849.29,-133.67 733.9,-117.92 649.31,-106.38"/>
<polygon fill="black" stroke="black" points="649.53,-102.88 639.15,-105 648.59,-109.82 649.53,-102.88"/>
</g>
<!-- sequence: change_tool(left_hand, outwardgripper, clampgripper) -->
<g id="node9" class="node">
<title>sequence: change_tool(left_hand, outwardgripper, clampgripper)</title>
<ellipse fill="none" stroke="black" cx="1049.58" cy="-90" rx="311.14" ry="18"/>
<text text-anchor="middle" x="1049.58" y="-86.3" font-family="Times,serif" font-size="14.00">sequence: change_tool(left_hand, outwardgripper, clampgripper)</text>
</g>
<!-- selector: change_tool(left_hand, outwardgripper, clampgripper)&#45;&gt;sequence: change_tool(left_hand, outwardgripper, clampgripper) -->
<g id="edge5" class="edge">
<title>selector: change_tool(left_hand, outwardgripper, clampgripper)&#45;&gt;sequence: change_tool(left_hand, outwardgripper, clampgripper)</title>
<path fill="none" stroke="black" d="M1049.58,-143.7C1049.58,-135.98 1049.58,-126.71 1049.58,-118.11"/>
<polygon fill="black" stroke="black" points="1053.08,-118.1 1049.58,-108.1 1046.08,-118.1 1053.08,-118.1"/>
</g>
<!-- precondition: hold(left_hand, outwardgripper) -->
<g id="node11" class="node">
<title>precondition: hold(left_hand, outwardgripper)</title>
<ellipse fill="none" stroke="black" cx="223.58" cy="-18" rx="223.66" ry="18"/>
<text text-anchor="middle" x="223.58" y="-14.3" font-family="Times,serif" font-size="14.00">precondition: hold(left_hand, outwardgripper)</text>
</g>
<!-- sequence: change_tool(left_hand, outwardgripper, clampgripper)&#45;&gt;precondition: hold(left_hand, outwardgripper) -->
<g id="edge6" class="edge">
<title>sequence: change_tool(left_hand, outwardgripper, clampgripper)&#45;&gt;precondition: hold(left_hand, outwardgripper)</title>
<path fill="none" stroke="black" d="M881.93,-74.79C735.6,-62.39 524.83,-44.53 381.47,-32.38"/>
<polygon fill="black" stroke="black" points="381.52,-28.87 371.26,-31.52 380.93,-35.85 381.52,-28.87"/>
</g>
<!-- precondition: is_empty(outwardgripper) -->
<g id="node12" class="node">
<title>precondition: is_empty(outwardgripper)</title>
<ellipse fill="none" stroke="black" cx="661.58" cy="-18" rx="196.07" ry="18"/>
<text text-anchor="middle" x="661.58" y="-14.3" font-family="Times,serif" font-size="14.00">precondition: is_empty(outwardgripper)</text>
</g>
<!-- sequence: change_tool(left_hand, outwardgripper, clampgripper)&#45;&gt;precondition: is_empty(outwardgripper) -->
<g id="edge7" class="edge">
<title>sequence: change_tool(left_hand, outwardgripper, clampgripper)&#45;&gt;precondition: is_empty(outwardgripper)</title>
<path fill="none" stroke="black" d="M959.59,-72.76C898.62,-61.77 818.2,-47.26 756.26,-36.08"/>
<polygon fill="black" stroke="black" points="756.56,-32.58 746.1,-34.25 755.32,-39.47 756.56,-32.58"/>
</g>
<!-- action: change_tool(left_hand, outwardgripper, clampgripper) -->
<g id="node14" class="node">
<title>action: change_tool(left_hand, outwardgripper, clampgripper)</title>
<ellipse fill="none" stroke="black" cx="1171.58" cy="-18" rx="295.95" ry="18"/>
<text text-anchor="middle" x="1171.58" y="-14.3" font-family="Times,serif" font-size="14.00">action: change_tool(left_hand, outwardgripper, clampgripper)</text>
</g>
<!-- sequence: change_tool(left_hand, outwardgripper, clampgripper)&#45;&gt;action: change_tool(left_hand, outwardgripper, clampgripper) -->
<g id="edge8" class="edge">
<title>sequence: change_tool(left_hand, outwardgripper, clampgripper)&#45;&gt;action: change_tool(left_hand, outwardgripper, clampgripper)</title>
<path fill="none" stroke="black" d="M1079.11,-72.05C1095.33,-62.75 1115.63,-51.11 1133.07,-41.1"/>
<polygon fill="black" stroke="black" points="1134.96,-44.04 1141.9,-36.03 1131.48,-37.97 1134.96,-44.04"/>
</g>
<!-- precondition -->
<g id="node10" class="node">
<title>precondition</title>
<ellipse fill="gray" stroke="black" cx="2182.58" cy="-306" rx="118.87" ry="18"/>
<text text-anchor="middle" x="2182.58" y="-303.8" font-family="Times,serif" font-size="9.00">precondition: hold(clampgripper, shaft1)</text>
</g>
<!-- action -->
<g id="node13" class="node">
<title>action</title>
<ellipse fill="gray" stroke="black" cx="2497.58" cy="-306" rx="177.65" ry="18"/>
<text text-anchor="middle" x="2497.58" y="-303.8" font-family="Times,serif" font-size="9.00">action: insert(left_hand, clampgripper, shaft1, gearbase_hole1)</text>
</g>
<!-- target: hold(clampgripper, shaft1) -->
<g id="node16" class="node">
<title>target: hold(clampgripper, shaft1)</title>
<ellipse fill="none" stroke="black" cx="1681.58" cy="-90" rx="168.97" ry="18"/>
<text text-anchor="middle" x="1681.58" y="-86.3" font-family="Times,serif" font-size="14.00">target: hold(clampgripper, shaft1)</text>
</g>
<!-- selector: pick_up(left_hand, clampgripper, shaft1)&#45;&gt;target: hold(clampgripper, shaft1) -->
<g id="edge10" class="edge">
<title>selector: pick_up(left_hand, clampgripper, shaft1)&#45;&gt;target: hold(clampgripper, shaft1)</title>
<path fill="none" stroke="black" d="M1774.05,-144.05C1757.71,-134.68 1737.23,-122.93 1719.7,-112.87"/>
<polygon fill="black" stroke="black" points="1721.26,-109.73 1710.84,-107.79 1717.77,-115.8 1721.26,-109.73"/>
</g>
<!-- sequence: pick_up(left_hand, clampgripper, shaft1) -->
<g id="node17" class="node">
<title>sequence: pick_up(left_hand, clampgripper, shaft1)</title>
<ellipse fill="none" stroke="black" cx="2115.58" cy="-90" rx="246.96" ry="18"/>
<text text-anchor="middle" x="2115.58" y="-86.3" font-family="Times,serif" font-size="14.00">sequence: pick_up(left_hand, clampgripper, shaft1)</text>
</g>
<!-- selector: pick_up(left_hand, clampgripper, shaft1)&#45;&gt;sequence: pick_up(left_hand, clampgripper, shaft1) -->
<g id="edge11" class="edge">
<title>selector: pick_up(left_hand, clampgripper, shaft1)&#45;&gt;sequence: pick_up(left_hand, clampgripper, shaft1)</title>
<path fill="none" stroke="black" d="M1875.94,-144.76C1922.93,-134.22 1984.29,-120.46 2033.16,-109.49"/>
<polygon fill="black" stroke="black" points="2034.08,-112.87 2043.07,-107.27 2032.55,-106.04 2034.08,-112.87"/>
</g>
<!-- precondition: hold(left_hand, clampgripper) -->
<g id="node18" class="node">
<title>precondition: hold(left_hand, clampgripper)</title>
<ellipse fill="none" stroke="black" cx="1698.58" cy="-18" rx="213.36" ry="18"/>
<text text-anchor="middle" x="1698.58" y="-14.3" font-family="Times,serif" font-size="14.00">precondition: hold(left_hand, clampgripper)</text>
</g>
<!-- sequence: pick_up(left_hand, clampgripper, shaft1)&#45;&gt;precondition: hold(left_hand, clampgripper) -->
<g id="edge12" class="edge">
<title>sequence: pick_up(left_hand, clampgripper, shaft1)&#45;&gt;precondition: hold(left_hand, clampgripper)</title>
<path fill="none" stroke="black" d="M2022.26,-73.33C1956.26,-62.26 1867.83,-47.41 1800.08,-36.04"/>
<polygon fill="black" stroke="black" points="1800.25,-32.52 1789.81,-34.31 1799.09,-39.42 1800.25,-32.52"/>
</g>
<!-- precondition: is_empty(clampgripper) -->
<g id="node19" class="node">
<title>precondition: is_empty(clampgripper)</title>
<ellipse fill="none" stroke="black" cx="2115.58" cy="-18" rx="185.77" ry="18"/>
<text text-anchor="middle" x="2115.58" y="-14.3" font-family="Times,serif" font-size="14.00">precondition: is_empty(clampgripper)</text>
</g>
<!-- sequence: pick_up(left_hand, clampgripper, shaft1)&#45;&gt;precondition: is_empty(clampgripper) -->
<g id="edge13" class="edge">
<title>sequence: pick_up(left_hand, clampgripper, shaft1)&#45;&gt;precondition: is_empty(clampgripper)</title>
<path fill="none" stroke="black" d="M2115.58,-71.7C2115.58,-63.98 2115.58,-54.71 2115.58,-46.11"/>
<polygon fill="black" stroke="black" points="2119.08,-46.1 2115.58,-36.1 2112.08,-46.1 2119.08,-46.1"/>
</g>
<!-- action: pick_up(left_hand, clampgripper, shaft1) -->
<g id="node20" class="node">
<title>action: pick_up(left_hand, clampgripper, shaft1)</title>
<ellipse fill="none" stroke="black" cx="2551.58" cy="-18" rx="232.06" ry="18"/>
<text text-anchor="middle" x="2551.58" y="-14.3" font-family="Times,serif" font-size="14.00">action: pick_up(left_hand, clampgripper, shaft1)</text>
</g>
<!-- sequence: pick_up(left_hand, clampgripper, shaft1)&#45;&gt;action: pick_up(left_hand, clampgripper, shaft1) -->
<g id="edge14" class="edge">
<title>sequence: pick_up(left_hand, clampgripper, shaft1)&#45;&gt;action: pick_up(left_hand, clampgripper, shaft1)</title>
<path fill="none" stroke="black" d="M2212.61,-73.42C2281.75,-62.32 2374.65,-47.41 2445.7,-36"/>
<polygon fill="black" stroke="black" points="2446.26,-39.45 2455.58,-34.41 2445.15,-32.54 2446.26,-39.45"/>
</g>
<!-- target: is_inserted_to(shaft1, gearbase_hole1)* -->
<g id="node22" class="node">
<title>target: is_inserted_to(shaft1, gearbase_hole1)*</title>
<ellipse fill="none" stroke="black" cx="2788.58" cy="-90" rx="228.26" ry="18"/>
<text text-anchor="middle" x="2788.58" y="-86.3" font-family="Times,serif" font-size="14.00">target: is_inserted_to(shaft1, gearbase_hole1)*</text>
</g>
<!-- selector: insert shaft1 into gearbase_hole1 final&#45;&gt;target: is_inserted_to(shaft1, gearbase_hole1)* -->
<g id="edge16" class="edge">
<title>selector: insert shaft1 into gearbase_hole1 final&#45;&gt;target: is_inserted_to(shaft1, gearbase_hole1)*</title>
<path fill="none" stroke="black" d="M2788.58,-143.7C2788.58,-135.98 2788.58,-126.71 2788.58,-118.11"/>
<polygon fill="black" stroke="black" points="2792.08,-118.1 2788.58,-108.1 2785.08,-118.1 2792.08,-118.1"/>
</g>
<!-- sequence: insert shaft1 into gearbase_hole1 final -->
<g id="node23" class="node">
<title>sequence: insert shaft1 into gearbase_hole1 final</title>
<ellipse fill="none" stroke="black" cx="3363.58" cy="-90" rx="239.36" ry="18"/>
<text text-anchor="middle" x="3363.58" y="-86.3" font-family="Times,serif" font-size="14.00">sequence: insert shaft1 into gearbase_hole1 final</text>
</g>
<!-- selector: insert shaft1 into gearbase_hole1 final&#45;&gt;sequence: insert shaft1 into gearbase_hole1 final -->
<g id="edge17" class="edge">
<title>selector: insert shaft1 into gearbase_hole1 final&#45;&gt;sequence: insert shaft1 into gearbase_hole1 final</title>
<path fill="none" stroke="black" d="M2907.72,-146.5C3002.81,-134.92 3135.84,-118.73 3233.65,-106.82"/>
<polygon fill="black" stroke="black" points="3234.1,-110.29 3243.6,-105.61 3233.25,-103.34 3234.1,-110.29"/>
</g>
<!-- precondition: hold(left_hand, clampgripper)* -->
<g id="node24" class="node">
<title>precondition: hold(left_hand, clampgripper)*</title>
<ellipse fill="none" stroke="black" cx="3019.58" cy="-18" rx="217.96" ry="18"/>
<text text-anchor="middle" x="3019.58" y="-14.3" font-family="Times,serif" font-size="14.00">precondition: hold(left_hand, clampgripper)*</text>
</g>
<!-- sequence: insert shaft1 into gearbase_hole1 final&#45;&gt;precondition: hold(left_hand, clampgripper)* -->
<g id="edge18" class="edge">
<title>sequence: insert shaft1 into gearbase_hole1 final&#45;&gt;precondition: hold(left_hand, clampgripper)*</title>
<path fill="none" stroke="black" d="M3284.66,-72.94C3231.81,-62.19 3162.19,-48.02 3107.56,-36.9"/>
<polygon fill="black" stroke="black" points="3108.04,-33.43 3097.54,-34.86 3106.64,-40.29 3108.04,-33.43"/>
</g>
<!-- precondition: hold(clampgripper, shaft1) -->
<g id="node25" class="node">
<title>precondition: hold(clampgripper, shaft1)</title>
<ellipse fill="none" stroke="black" cx="3453.58" cy="-18" rx="198.47" ry="18"/>
<text text-anchor="middle" x="3453.58" y="-14.3" font-family="Times,serif" font-size="14.00">precondition: hold(clampgripper, shaft1)</text>
</g>
<!-- sequence: insert shaft1 into gearbase_hole1 final&#45;&gt;precondition: hold(clampgripper, shaft1) -->
<g id="edge19" class="edge">
<title>sequence: insert shaft1 into gearbase_hole1 final&#45;&gt;precondition: hold(clampgripper, shaft1)</title>
<path fill="none" stroke="black" d="M3385.37,-72.05C3396.89,-63.09 3411.21,-51.96 3423.75,-42.2"/>
<polygon fill="black" stroke="black" points="3425.94,-44.93 3431.68,-36.03 3421.64,-39.41 3425.94,-44.93"/>
</g>
<!-- action: insert(left_hand, clampgripper, shaft1, gearbase_hole1) -->
<g id="node26" class="node">
<title>action: insert(left_hand, clampgripper, shaft1, gearbase_hole1)</title>
<ellipse fill="none" stroke="black" cx="3971.58" cy="-18" rx="302.45" ry="18"/>
<text text-anchor="middle" x="3971.58" y="-14.3" font-family="Times,serif" font-size="14.00">action: insert(left_hand, clampgripper, shaft1, gearbase_hole1)</text>
</g>
<!-- sequence: insert shaft1 into gearbase_hole1 final&#45;&gt;action: insert(left_hand, clampgripper, shaft1, gearbase_hole1) -->
<g id="edge20" class="edge">
<title>sequence: insert shaft1 into gearbase_hole1 final&#45;&gt;action: insert(left_hand, clampgripper, shaft1, gearbase_hole1)</title>
<path fill="none" stroke="black" d="M3488.45,-74.62C3587.5,-63.22 3725.98,-47.28 3829.3,-35.38"/>
<polygon fill="black" stroke="black" points="3829.97,-38.83 3839.51,-34.21 3829.17,-31.87 3829.97,-38.83"/>
</g>
</g>
</svg>
