<?xml version="1.0" encoding="UTF-8" standalone="no"?>
<!DOCTYPE svg PUBLIC "-//W3C//DTD SVG 1.1//EN"
 "http://www.w3.org/Graphics/SVG/1.1/DTD/svg11.dtd">
<!-- Generated by graphviz version 2.43.0 (0)
 -->
<!-- Title: pastafarianism Pages: 1 -->
<svg width="3810pt" height="476pt"
 viewBox="0.00 0.00 3809.80 476.00" xmlns="http://www.w3.org/2000/svg" xmlns:xlink="http://www.w3.org/1999/xlink">
<g id="graph0" class="graph" transform="scale(1 1) rotate(0) translate(4 472)">
<title>pastafarianism</title>
<polygon fill="white" stroke="transparent" points="-4,4 -4,-472 3805.8,-472 3805.8,4 -4,4"/>
<!-- selector -->
<g id="node1" class="node">
<title>selector</title>
<polygon fill="cyan" stroke="black" points="1281.79,-442.54 1281.79,-457.46 1200.83,-468 1086.33,-468 1005.37,-457.46 1005.37,-442.54 1086.33,-432 1200.83,-432 1281.79,-442.54"/>
<text text-anchor="middle" x="1143.58" y="-447.8" font-family="Times,serif" font-size="9.00">selector: pick_up_shaft1_with_clampgripper</text>
</g>
<!-- target -->
<g id="node2" class="node">
<title>target</title>
<ellipse fill="gray" stroke="black" cx="1400.58" cy="-450" rx="101.07" ry="18"/>
<text text-anchor="middle" x="1400.58" y="-447.8" font-family="Times,serif" font-size="9.00">target: hold(clampgripper, shaft1)</text>
</g>
<!-- selector: insert_shaft1_into_gearbase_hole1 -->
<g id="node3" class="node">
<title>selector: insert_shaft1_into_gearbase_hole1</title>
<ellipse fill="none" stroke="black" cx="1733.58" cy="-450" rx="213.66" ry="18"/>
<text text-anchor="middle" x="1733.58" y="-446.3" font-family="Times,serif" font-size="14.00">selector: insert_shaft1_into_gearbase_hole1</text>
</g>
<!-- target: is_inserted_to(shaft1, gearbase_hole1) -->
<g id="node4" class="node">
<title>target: is_inserted_to(shaft1, gearbase_hole1)</title>
<ellipse fill="none" stroke="black" cx="1503.58" cy="-378" rx="223.66" ry="18"/>
<text text-anchor="middle" x="1503.58" y="-374.3" font-family="Times,serif" font-size="14.00">target: is_inserted_to(shaft1, gearbase_hole1)</text>
</g>
<!-- selector: insert_shaft1_into_gearbase_hole1&#45;&gt;target: is_inserted_to(shaft1, gearbase_hole1) -->
<g id="edge1" class="edge">
<title>selector: insert_shaft1_into_gearbase_hole1&#45;&gt;target: is_inserted_to(shaft1, gearbase_hole1)</title>
<path fill="none" stroke="black" d="M1679.36,-432.5C1645.86,-422.3 1602.69,-409.17 1567.52,-398.46"/>
<polygon fill="black" stroke="black" points="1568.42,-395.07 1557.83,-395.51 1566.38,-401.77 1568.42,-395.07"/>
</g>
<!-- sequence: insert_shaft1_into_gearbase_hole1 -->
<g id="node6" class="node">
<title>sequence: insert_shaft1_into_gearbase_hole1</title>
<ellipse fill="none" stroke="black" cx="1964.58" cy="-378" rx="219.86" ry="18"/>
<text text-anchor="middle" x="1964.58" y="-374.3" font-family="Times,serif" font-size="14.00">sequence: insert_shaft1_into_gearbase_hole1</text>
</g>
<!-- selector: insert_shaft1_into_gearbase_hole1&#45;&gt;sequence: insert_shaft1_into_gearbase_hole1 -->
<g id="edge2" class="edge">
<title>selector: insert_shaft1_into_gearbase_hole1&#45;&gt;sequence: insert_shaft1_into_gearbase_hole1</title>
<path fill="none" stroke="black" d="M1788.03,-432.5C1821.68,-422.3 1865.04,-409.17 1900.36,-398.46"/>
<polygon fill="black" stroke="black" points="1901.54,-401.76 1910.09,-395.51 1899.51,-395.06 1901.54,-401.76"/>
</g>
<!-- sequence -->
<g id="node5" class="node">
<title>sequence</title>
<polygon fill="orange" stroke="black" points="2223.58,-468 1965.58,-468 1965.58,-432 2223.58,-432 2223.58,-468"/>
<text text-anchor="middle" x="2094.58" y="-447.8" font-family="Times,serif" font-size="9.00">sequence: insert_shaft1_into_gearbase_hole1_action</text>
</g>
<!-- selector: ensure_left_hand_holds_clampgripper -->
<g id="node7" class="node">
<title>selector: ensure_left_hand_holds_clampgripper</title>
<ellipse fill="none" stroke="black" cx="1357.58" cy="-306" rx="228.56" ry="18"/>
<text text-anchor="middle" x="1357.58" y="-302.3" font-family="Times,serif" font-size="14.00">selector: ensure_left_hand_holds_clampgripper</text>
</g>
<!-- sequence: insert_shaft1_into_gearbase_hole1&#45;&gt;selector: ensure_left_hand_holds_clampgripper -->
<g id="edge3" class="edge">
<title>sequence: insert_shaft1_into_gearbase_hole1&#45;&gt;selector: ensure_left_hand_holds_clampgripper</title>
<path fill="none" stroke="black" d="M1842.84,-362.96C1740.92,-351.21 1595.7,-334.46 1490.71,-322.35"/>
<polygon fill="black" stroke="black" points="1491.01,-318.86 1480.68,-321.2 1490.21,-325.82 1491.01,-318.86"/>
</g>
<!-- selector: pick_up_shaft1_with_clampgripper -->
<g id="node20" class="node">
<title>selector: pick_up_shaft1_with_clampgripper</title>
<ellipse fill="none" stroke="black" cx="1964.58" cy="-306" rx="213.66" ry="18"/>
<text text-anchor="middle" x="1964.58" y="-302.3" font-family="Times,serif" font-size="14.00">selector: pick_up_shaft1_with_clampgripper</text>
</g>
<!-- sequence: insert_shaft1_into_gearbase_hole1&#45;&gt;selector: pick_up_shaft1_with_clampgripper -->
<g id="edge14" class="edge">
<title>sequence: insert_shaft1_into_gearbase_hole1&#45;&gt;selector: pick_up_shaft1_with_clampgripper</title>
<path fill="none" stroke="black" d="M1964.58,-359.7C1964.58,-351.98 1964.58,-342.71 1964.58,-334.11"/>
<polygon fill="black" stroke="black" points="1968.08,-334.1 1964.58,-324.1 1961.08,-334.1 1968.08,-334.1"/>
</g>
<!-- sequence: insert_shaft1_into_gearbase_hole1_action -->
<g id="node26" class="node">
<title>sequence: insert_shaft1_into_gearbase_hole1_action</title>
<ellipse fill="none" stroke="black" cx="2764.58" cy="-306" rx="252.66" ry="18"/>
<text text-anchor="middle" x="2764.58" y="-302.3" font-family="Times,serif" font-size="14.00">sequence: insert_shaft1_into_gearbase_hole1_action</text>
</g>
<!-- sequence: insert_shaft1_into_gearbase_hole1&#45;&gt;sequence: insert_shaft1_into_gearbase_hole1_action -->
<g id="edge20" class="edge">
<title>sequence: insert_shaft1_into_gearbase_hole1&#45;&gt;sequence: insert_shaft1_into_gearbase_hole1_action</title>
<path fill="none" stroke="black" d="M2108.99,-364.36C2247.66,-352.23 2456.84,-333.93 2601.45,-321.27"/>
<polygon fill="black" stroke="black" points="2602.1,-324.73 2611.75,-320.37 2601.49,-317.76 2602.1,-324.73"/>
</g>
<!-- target: hold(left_hand, clampgripper) -->
<g id="node8" class="node">
<title>target: hold(left_hand, clampgripper)</title>
<ellipse fill="none" stroke="black" cx="960.58" cy="-234" rx="183.07" ry="18"/>
<text text-anchor="middle" x="960.58" y="-230.3" font-family="Times,serif" font-size="14.00">target: hold(left_hand, clampgripper)</text>
</g>
<!-- selector: ensure_left_hand_holds_clampgripper&#45;&gt;target: hold(left_hand, clampgripper) -->
<g id="edge4" class="edge">
<title>selector: ensure_left_hand_holds_clampgripper&#45;&gt;target: hold(left_hand, clampgripper)</title>
<path fill="none" stroke="black" d="M1268.98,-289.38C1205.64,-278.21 1120.5,-263.2 1055.72,-251.78"/>
<polygon fill="black" stroke="black" points="1055.96,-248.26 1045.51,-249.97 1054.75,-255.16 1055.96,-248.26"/>
</g>
<!-- sequence: change_tool_to_clampgripper -->
<g id="node9" class="node">
<title>sequence: change_tool_to_clampgripper</title>
<ellipse fill="none" stroke="black" cx="1357.58" cy="-234" rx="195.77" ry="18"/>
<text text-anchor="middle" x="1357.58" y="-230.3" font-family="Times,serif" font-size="14.00">sequence: change_tool_to_clampgripper</text>
</g>
<!-- selector: ensure_left_hand_holds_clampgripper&#45;&gt;sequence: change_tool_to_clampgripper -->
<g id="edge5" class="edge">
<title>selector: ensure_left_hand_holds_clampgripper&#45;&gt;sequence: change_tool_to_clampgripper</title>
<path fill="none" stroke="black" d="M1357.58,-287.7C1357.58,-279.98 1357.58,-270.71 1357.58,-262.11"/>
<polygon fill="black" stroke="black" points="1361.08,-262.1 1357.58,-252.1 1354.08,-262.1 1361.08,-262.1"/>
</g>
<!-- selector: ensure_outwardgripper_is_empty -->
<g id="node10" class="node">
<title>selector: ensure_outwardgripper_is_empty</title>
<ellipse fill="none" stroke="black" cx="510.58" cy="-162" rx="208.76" ry="18"/>
<text text-anchor="middle" x="510.58" y="-158.3" font-family="Times,serif" font-size="14.00">selector: ensure_outwardgripper_is_empty</text>
</g>
<!-- sequence: change_tool_to_clampgripper&#45;&gt;selector: ensure_outwardgripper_is_empty -->
<g id="edge6" class="edge">
<title>sequence: change_tool_to_clampgripper&#45;&gt;selector: ensure_outwardgripper_is_empty</title>
<path fill="none" stroke="black" d="M1217.81,-221.4C1195.98,-219.59 1173.67,-217.74 1152.58,-216 986.25,-202.24 795.67,-186.51 665.64,-175.78"/>
<polygon fill="black" stroke="black" points="665.85,-172.29 655.6,-174.96 665.28,-179.27 665.85,-172.29"/>
</g>
<!-- precondition: hold(left_hand, outwardgripper)* -->
<g id="node18" class="node">
<title>precondition: hold(left_hand, outwardgripper)*</title>
<ellipse fill="none" stroke="black" cx="965.58" cy="-162" rx="228.26" ry="18"/>
<text text-anchor="middle" x="965.58" y="-158.3" font-family="Times,serif" font-size="14.00">precondition: hold(left_hand, outwardgripper)*</text>
</g>
<!-- sequence: change_tool_to_clampgripper&#45;&gt;precondition: hold(left_hand, outwardgripper)* -->
<g id="edge12" class="edge">
<title>sequence: change_tool_to_clampgripper&#45;&gt;precondition: hold(left_hand, outwardgripper)*</title>
<path fill="none" stroke="black" d="M1272.04,-217.72C1210.56,-206.75 1127.55,-191.92 1063.44,-180.47"/>
<polygon fill="black" stroke="black" points="1063.77,-176.98 1053.31,-178.67 1062.54,-183.87 1063.77,-176.98"/>
</g>
<!-- action: change_tool(left_hand, outwardgripper, clampgripper) -->
<g id="node19" class="node">
<title>action: change_tool(left_hand, outwardgripper, clampgripper)</title>
<ellipse fill="none" stroke="black" cx="1507.58" cy="-162" rx="295.95" ry="18"/>
<text text-anchor="middle" x="1507.58" y="-158.3" font-family="Times,serif" font-size="14.00">action: change_tool(left_hand, outwardgripper, clampgripper)</text>
</g>
<!-- sequence: change_tool_to_clampgripper&#45;&gt;action: change_tool(left_hand, outwardgripper, clampgripper) -->
<g id="edge13" class="edge">
<title>sequence: change_tool_to_clampgripper&#45;&gt;action: change_tool(left_hand, outwardgripper, clampgripper)</title>
<path fill="none" stroke="black" d="M1393.51,-216.23C1414.14,-206.61 1440.24,-194.43 1462.26,-184.15"/>
<polygon fill="black" stroke="black" points="1463.84,-187.27 1471.42,-179.87 1460.88,-180.93 1463.84,-187.27"/>
</g>
<!-- target: is_empty(outwardgripper) -->
<g id="node11" class="node">
<title>target: is_empty(outwardgripper)</title>
<ellipse fill="none" stroke="black" cx="350.58" cy="-90" rx="167.07" ry="18"/>
<text text-anchor="middle" x="350.58" y="-86.3" font-family="Times,serif" font-size="14.00">target: is_empty(outwardgripper)</text>
</g>
<!-- selector: ensure_outwardgripper_is_empty&#45;&gt;target: is_empty(outwardgripper) -->
<g id="edge7" class="edge">
<title>selector: ensure_outwardgripper_is_empty&#45;&gt;target: is_empty(outwardgripper)</title>
<path fill="none" stroke="black" d="M472.26,-144.23C449.89,-134.45 421.5,-122.03 397.77,-111.65"/>
<polygon fill="black" stroke="black" points="399.16,-108.43 388.59,-107.63 396.35,-114.84 399.16,-108.43"/>
</g>
<!-- sequence: put_down_gear3 -->
<g id="node12" class="node">
<title>sequence: put_down_gear3</title>
<ellipse fill="none" stroke="black" cx="671.58" cy="-90" rx="135.68" ry="18"/>
<text text-anchor="middle" x="671.58" y="-86.3" font-family="Times,serif" font-size="14.00">sequence: put_down_gear3</text>
</g>
<!-- selector: ensure_outwardgripper_is_empty&#45;&gt;sequence: put_down_gear3 -->
<g id="edge8" class="edge">
<title>selector: ensure_outwardgripper_is_empty&#45;&gt;sequence: put_down_gear3</title>
<path fill="none" stroke="black" d="M549.14,-144.23C571.81,-134.38 600.63,-121.85 624.62,-111.42"/>
<polygon fill="black" stroke="black" points="626.11,-114.59 633.89,-107.39 623.32,-108.17 626.11,-114.59"/>
</g>
<!-- precondition: hold(left_hand, outwardgripper) -->
<g id="node14" class="node">
<title>precondition: hold(left_hand, outwardgripper)</title>
<ellipse fill="none" stroke="black" cx="223.58" cy="-18" rx="223.66" ry="18"/>
<text text-anchor="middle" x="223.58" y="-14.3" font-family="Times,serif" font-size="14.00">precondition: hold(left_hand, outwardgripper)</text>
</g>
<!-- sequence: put_down_gear3&#45;&gt;precondition: hold(left_hand, outwardgripper) -->
<g id="edge9" class="edge">
<title>sequence: put_down_gear3&#45;&gt;precondition: hold(left_hand, outwardgripper)</title>
<path fill="none" stroke="black" d="M587.31,-75.83C514.76,-64.5 409.63,-48.07 331.04,-35.79"/>
<polygon fill="black" stroke="black" points="331.53,-32.32 321.11,-34.24 330.45,-39.24 331.53,-32.32"/>
</g>
<!-- precondition: hold(outwardgripper, gear3) -->
<g id="node15" class="node">
<title>precondition: hold(outwardgripper, gear3)</title>
<ellipse fill="none" stroke="black" cx="671.58" cy="-18" rx="206.86" ry="18"/>
<text text-anchor="middle" x="671.58" y="-14.3" font-family="Times,serif" font-size="14.00">precondition: hold(outwardgripper, gear3)</text>
</g>
<!-- sequence: put_down_gear3&#45;&gt;precondition: hold(outwardgripper, gear3) -->
<g id="edge10" class="edge">
<title>sequence: put_down_gear3&#45;&gt;precondition: hold(outwardgripper, gear3)</title>
<path fill="none" stroke="black" d="M671.58,-71.7C671.58,-63.98 671.58,-54.71 671.58,-46.11"/>
<polygon fill="black" stroke="black" points="675.08,-46.1 671.58,-36.1 668.08,-46.1 675.08,-46.1"/>
</g>
<!-- action: put_down(left_hand, outwardgripper, gear3) -->
<g id="node17" class="node">
<title>action: put_down(left_hand, outwardgripper, gear3)</title>
<ellipse fill="none" stroke="black" cx="1146.58" cy="-18" rx="250.46" ry="18"/>
<text text-anchor="middle" x="1146.58" y="-14.3" font-family="Times,serif" font-size="14.00">action: put_down(left_hand, outwardgripper, gear3)</text>
</g>
<!-- sequence: put_down_gear3&#45;&gt;action: put_down(left_hand, outwardgripper, gear3) -->
<g id="edge11" class="edge">
<title>sequence: put_down_gear3&#45;&gt;action: put_down(left_hand, outwardgripper, gear3)</title>
<path fill="none" stroke="black" d="M758.7,-76.16C835.53,-64.84 948.01,-48.26 1032.09,-35.87"/>
<polygon fill="black" stroke="black" points="1032.81,-39.3 1042.2,-34.38 1031.79,-32.38 1032.81,-39.3"/>
</g>
<!-- precondition -->
<g id="node13" class="node">
<title>precondition</title>
<ellipse fill="gray" stroke="black" cx="2360.58" cy="-450" rx="118.87" ry="18"/>
<text text-anchor="middle" x="2360.58" y="-447.8" font-family="Times,serif" font-size="9.00">precondition: hold(clampgripper, shaft1)</text>
</g>
<!-- action -->
<g id="node16" class="node">
<title>action</title>
<ellipse fill="gray" stroke="black" cx="2675.58" cy="-450" rx="177.65" ry="18"/>
<text text-anchor="middle" x="2675.58" y="-447.8" font-family="Times,serif" font-size="9.00">action: insert(left_hand, clampgripper, shaft1, gearbase_hole1)</text>
</g>
<!-- target: hold(clampgripper, shaft1) -->
<g id="node21" class="node">
<title>target: hold(clampgripper, shaft1)</title>
<ellipse fill="none" stroke="black" cx="1867.58" cy="-234" rx="168.97" ry="18"/>
<text text-anchor="middle" x="1867.58" y="-230.3" font-family="Times,serif" font-size="14.00">target: hold(clampgripper, shaft1)</text>
</g>
<!-- selector: pick_up_shaft1_with_clampgripper&#45;&gt;target: hold(clampgripper, shaft1) -->
<g id="edge15" class="edge">
<title>selector: pick_up_shaft1_with_clampgripper&#45;&gt;target: hold(clampgripper, shaft1)</title>
<path fill="none" stroke="black" d="M1941.1,-288.05C1928.56,-279.01 1912.95,-267.74 1899.35,-257.93"/>
<polygon fill="black" stroke="black" points="1901.34,-255.05 1891.18,-252.03 1897.24,-260.72 1901.34,-255.05"/>
</g>
<!-- sequence: pick_up_shaft1 -->
<g id="node22" class="node">
<title>sequence: pick_up_shaft1</title>
<ellipse fill="none" stroke="black" cx="2183.58" cy="-234" rx="128.88" ry="18"/>
<text text-anchor="middle" x="2183.58" y="-230.3" font-family="Times,serif" font-size="14.00">sequence: pick_up_shaft1</text>
</g>
<!-- selector: pick_up_shaft1_with_clampgripper&#45;&gt;sequence: pick_up_shaft1 -->
<g id="edge16" class="edge">
<title>selector: pick_up_shaft1_with_clampgripper&#45;&gt;sequence: pick_up_shaft1</title>
<path fill="none" stroke="black" d="M2016.2,-288.5C2048.77,-278.09 2090.94,-264.61 2124.79,-253.79"/>
<polygon fill="black" stroke="black" points="2126.1,-257.05 2134.56,-250.67 2123.97,-250.38 2126.1,-257.05"/>
</g>
<!-- precondition: hold(left_hand, clampgripper) -->
<g id="node23" class="node">
<title>precondition: hold(left_hand, clampgripper)</title>
<ellipse fill="none" stroke="black" cx="2034.58" cy="-162" rx="213.36" ry="18"/>
<text text-anchor="middle" x="2034.58" y="-158.3" font-family="Times,serif" font-size="14.00">precondition: hold(left_hand, clampgripper)</text>
</g>
<!-- sequence: pick_up_shaft1&#45;&gt;precondition: hold(left_hand, clampgripper) -->
<g id="edge17" class="edge">
<title>sequence: pick_up_shaft1&#45;&gt;precondition: hold(left_hand, clampgripper)</title>
<path fill="none" stroke="black" d="M2148.65,-216.59C2128.02,-206.9 2101.7,-194.53 2079.54,-184.12"/>
<polygon fill="black" stroke="black" points="2080.87,-180.88 2070.33,-179.8 2077.89,-187.22 2080.87,-180.88"/>
</g>
<!-- precondition: is_empty(clampgripper) -->
<g id="node24" class="node">
<title>precondition: is_empty(clampgripper)</title>
<ellipse fill="none" stroke="black" cx="2451.58" cy="-162" rx="185.77" ry="18"/>
<text text-anchor="middle" x="2451.58" y="-158.3" font-family="Times,serif" font-size="14.00">precondition: is_empty(clampgripper)</text>
</g>
<!-- sequence: pick_up_shaft1&#45;&gt;precondition: is_empty(clampgripper) -->
<g id="edge18" class="edge">
<title>sequence: pick_up_shaft1&#45;&gt;precondition: is_empty(clampgripper)</title>
<path fill="none" stroke="black" d="M2241.4,-217.9C2282.09,-207.27 2336.8,-192.98 2380.21,-181.64"/>
<polygon fill="black" stroke="black" points="2381.34,-184.96 2390.13,-179.05 2379.57,-178.19 2381.34,-184.96"/>
</g>
<!-- action: pick_up(left_hand, clampgripper, shaft1) -->
<g id="node25" class="node">
<title>action: pick_up(left_hand, clampgripper, shaft1)</title>
<ellipse fill="none" stroke="black" cx="2887.58" cy="-162" rx="232.06" ry="18"/>
<text text-anchor="middle" x="2887.58" y="-158.3" font-family="Times,serif" font-size="14.00">action: pick_up(left_hand, clampgripper, shaft1)</text>
</g>
<!-- sequence: pick_up_shaft1&#45;&gt;action: pick_up(left_hand, clampgripper, shaft1) -->
<g id="edge19" class="edge">
<title>sequence: pick_up_shaft1&#45;&gt;action: pick_up(left_hand, clampgripper, shaft1)</title>
<path fill="none" stroke="black" d="M2274.91,-221.28C2290.15,-219.43 2305.81,-217.61 2320.58,-216 2457.73,-201.08 2613.82,-186.68 2727.46,-176.67"/>
<polygon fill="black" stroke="black" points="2727.98,-180.13 2737.63,-175.77 2727.37,-173.16 2727.98,-180.13"/>
</g>
<!-- precondition: hold(left_hand, clampgripper)* -->
<g id="node27" class="node">
<title>precondition: hold(left_hand, clampgripper)*</title>
<ellipse fill="none" stroke="black" cx="2547.58" cy="-234" rx="217.96" ry="18"/>
<text text-anchor="middle" x="2547.58" y="-230.3" font-family="Times,serif" font-size="14.00">precondition: hold(left_hand, clampgripper)*</text>
</g>
<!-- sequence: insert_shaft1_into_gearbase_hole1_action&#45;&gt;precondition: hold(left_hand, clampgripper)* -->
<g id="edge21" class="edge">
<title>sequence: insert_shaft1_into_gearbase_hole1_action&#45;&gt;precondition: hold(left_hand, clampgripper)*</title>
<path fill="none" stroke="black" d="M2712.88,-288.32C2681.64,-278.24 2641.65,-265.34 2608.82,-254.76"/>
<polygon fill="black" stroke="black" points="2609.48,-251.29 2598.89,-251.55 2607.33,-257.95 2609.48,-251.29"/>
</g>
<!-- precondition: hold(clampgripper, shaft1) -->
<g id="node28" class="node">
<title>precondition: hold(clampgripper, shaft1)</title>
<ellipse fill="none" stroke="black" cx="2981.58" cy="-234" rx="198.47" ry="18"/>
<text text-anchor="middle" x="2981.58" y="-230.3" font-family="Times,serif" font-size="14.00">precondition: hold(clampgripper, shaft1)</text>
</g>
<!-- sequence: insert_shaft1_into_gearbase_hole1_action&#45;&gt;precondition: hold(clampgripper, shaft1) -->
<g id="edge22" class="edge">
<title>sequence: insert_shaft1_into_gearbase_hole1_action&#45;&gt;precondition: hold(clampgripper, shaft1)</title>
<path fill="none" stroke="black" d="M2816.28,-288.32C2847.77,-278.16 2888.15,-265.14 2921.12,-254.5"/>
<polygon fill="black" stroke="black" points="2922.21,-257.83 2930.65,-251.43 2920.06,-251.17 2922.21,-257.83"/>
</g>
<!-- action: insert(left_hand, clampgripper, shaft1, gearbase_hole1) -->
<g id="node29" class="node">
<title>action: insert(left_hand, clampgripper, shaft1, gearbase_hole1)</title>
<ellipse fill="none" stroke="black" cx="3499.58" cy="-234" rx="302.45" ry="18"/>
<text text-anchor="middle" x="3499.58" y="-230.3" font-family="Times,serif" font-size="14.00">action: insert(left_hand, clampgripper, shaft1, gearbase_hole1)</text>
</g>
<!-- sequence: insert_shaft1_into_gearbase_hole1_action&#45;&gt;action: insert(left_hand, clampgripper, shaft1, gearbase_hole1) -->
<g id="edge23" class="edge">
<title>sequence: insert_shaft1_into_gearbase_hole1_action&#45;&gt;action: insert(left_hand, clampgripper, shaft1, gearbase_hole1)</title>
<path fill="none" stroke="black" d="M2909.35,-291.21C3032.33,-279.5 3208.72,-262.7 3336.61,-250.52"/>
<polygon fill="black" stroke="black" points="3337.27,-253.97 3346.9,-249.54 3336.61,-247.01 3337.27,-253.97"/>
</g>
</g>
</svg>
