<?xml version="1.0" encoding="UTF-8" standalone="no"?>
<!DOCTYPE svg PUBLIC "-//W3C//DTD SVG 1.1//EN"
 "http://www.w3.org/Graphics/SVG/1.1/DTD/svg11.dtd">
<!-- Generated by graphviz version 2.43.0 (0)
 -->
<!-- Title: pastafarianism Pages: 1 -->
<svg width="4332pt" height="332pt"
 viewBox="0.00 0.00 4331.75 332.00" xmlns="http://www.w3.org/2000/svg" xmlns:xlink="http://www.w3.org/1999/xlink">
<g id="graph0" class="graph" transform="scale(1 1) rotate(0) translate(4 328)">
<title>pastafarianism</title>
<polygon fill="white" stroke="transparent" points="-4,4 -4,-328 4327.75,-328 4327.75,4 -4,4"/>
<!-- selector -->
<g id="node1" class="node">
<title>selector</title>
<polygon fill="cyan" stroke="black" points="1058.04,-298.54 1058.04,-313.46 969.17,-324 843.49,-324 754.62,-313.46 754.62,-298.54 843.49,-288 969.17,-288 1058.04,-298.54"/>
<text text-anchor="middle" x="906.33" y="-303.8" font-family="Times,serif" font-size="9.00">selector: insert_shaft3_into_gearbase_hole3_final</text>
</g>
<!-- target -->
<g id="node2" class="node">
<title>target</title>
<ellipse fill="gray" stroke="black" cx="1210.33" cy="-306" rx="134.55" ry="18"/>
<text text-anchor="middle" x="1210.33" y="-303.8" font-family="Times,serif" font-size="9.00">target: is_inserted_to(shaft3, gearbase_hole3)*</text>
</g>
<!-- selector: insert_shaft3_into_gearbase_hole3 -->
<g id="node3" class="node">
<title>selector: insert_shaft3_into_gearbase_hole3</title>
<ellipse fill="none" stroke="black" cx="1576.33" cy="-306" rx="213.66" ry="18"/>
<text text-anchor="middle" x="1576.33" y="-302.3" font-family="Times,serif" font-size="14.00">selector: insert_shaft3_into_gearbase_hole3</text>
</g>
<!-- target: is_inserted_to(shaft3, gearbase_hole3) -->
<g id="node4" class="node">
<title>target: is_inserted_to(shaft3, gearbase_hole3)</title>
<ellipse fill="none" stroke="black" cx="1346.33" cy="-234" rx="223.66" ry="18"/>
<text text-anchor="middle" x="1346.33" y="-230.3" font-family="Times,serif" font-size="14.00">target: is_inserted_to(shaft3, gearbase_hole3)</text>
</g>
<!-- selector: insert_shaft3_into_gearbase_hole3&#45;&gt;target: is_inserted_to(shaft3, gearbase_hole3) -->
<g id="edge1" class="edge">
<title>selector: insert_shaft3_into_gearbase_hole3&#45;&gt;target: is_inserted_to(shaft3, gearbase_hole3)</title>
<path fill="none" stroke="black" d="M1522.11,-288.5C1488.61,-278.3 1445.44,-265.17 1410.27,-254.46"/>
<polygon fill="black" stroke="black" points="1411.17,-251.07 1400.58,-251.51 1409.13,-257.77 1411.17,-251.07"/>
</g>
<!-- sequence: insert_shaft3_into_gearbase_hole3 -->
<g id="node6" class="node">
<title>sequence: insert_shaft3_into_gearbase_hole3</title>
<ellipse fill="none" stroke="black" cx="1807.33" cy="-234" rx="219.86" ry="18"/>
<text text-anchor="middle" x="1807.33" y="-230.3" font-family="Times,serif" font-size="14.00">sequence: insert_shaft3_into_gearbase_hole3</text>
</g>
<!-- selector: insert_shaft3_into_gearbase_hole3&#45;&gt;sequence: insert_shaft3_into_gearbase_hole3 -->
<g id="edge2" class="edge">
<title>selector: insert_shaft3_into_gearbase_hole3&#45;&gt;sequence: insert_shaft3_into_gearbase_hole3</title>
<path fill="none" stroke="black" d="M1630.78,-288.5C1664.43,-278.3 1707.79,-265.17 1743.11,-254.46"/>
<polygon fill="black" stroke="black" points="1744.29,-257.76 1752.84,-251.51 1742.26,-251.06 1744.29,-257.76"/>
</g>
<!-- sequence -->
<g id="node5" class="node">
<title>sequence</title>
<polygon fill="orange" stroke="black" points="2058.33,-324 1808.33,-324 1808.33,-288 2058.33,-288 2058.33,-324"/>
<text text-anchor="middle" x="1933.33" y="-303.8" font-family="Times,serif" font-size="9.00">sequence: insert_shaft3_into_gearbase_hole3_final</text>
</g>
<!-- selector: change_tool(left_hand, parallelgripper, defaultgripper) -->
<g id="node7" class="node">
<title>selector: change_tool(left_hand, parallelgripper, defaultgripper)</title>
<ellipse fill="none" stroke="black" cx="1056.33" cy="-162" rx="306.25" ry="18"/>
<text text-anchor="middle" x="1056.33" y="-158.3" font-family="Times,serif" font-size="14.00">selector: change_tool(left_hand, parallelgripper, defaultgripper)</text>
</g>
<!-- sequence: insert_shaft3_into_gearbase_hole3&#45;&gt;selector: change_tool(left_hand, parallelgripper, defaultgripper) -->
<g id="edge3" class="edge">
<title>sequence: insert_shaft3_into_gearbase_hole3&#45;&gt;selector: change_tool(left_hand, parallelgripper, defaultgripper)</title>
<path fill="none" stroke="black" d="M1668.27,-220.04C1542.23,-208.29 1356.28,-190.96 1222.46,-178.48"/>
<polygon fill="black" stroke="black" points="1222.39,-174.96 1212.11,-177.52 1221.74,-181.93 1222.39,-174.96"/>
</g>
<!-- selector: pick_up_shaft3_with_defaultgripper -->
<g id="node15" class="node">
<title>selector: pick_up_shaft3_with_defaultgripper</title>
<ellipse fill="none" stroke="black" cx="1807.33" cy="-162" rx="219.06" ry="18"/>
<text text-anchor="middle" x="1807.33" y="-158.3" font-family="Times,serif" font-size="14.00">selector: pick_up_shaft3_with_defaultgripper</text>
</g>
<!-- sequence: insert_shaft3_into_gearbase_hole3&#45;&gt;selector: pick_up_shaft3_with_defaultgripper -->
<g id="edge9" class="edge">
<title>sequence: insert_shaft3_into_gearbase_hole3&#45;&gt;selector: pick_up_shaft3_with_defaultgripper</title>
<path fill="none" stroke="black" d="M1807.33,-215.7C1807.33,-207.98 1807.33,-198.71 1807.33,-190.11"/>
<polygon fill="black" stroke="black" points="1810.83,-190.1 1807.33,-180.1 1803.83,-190.1 1810.83,-190.1"/>
</g>
<!-- selector: insert_shaft3_into_gearbase_hole3_final -->
<g id="node21" class="node">
<title>selector: insert_shaft3_into_gearbase_hole3_final</title>
<ellipse fill="none" stroke="black" cx="2793.33" cy="-162" rx="238.56" ry="18"/>
<text text-anchor="middle" x="2793.33" y="-158.3" font-family="Times,serif" font-size="14.00">selector: insert_shaft3_into_gearbase_hole3_final</text>
</g>
<!-- sequence: insert_shaft3_into_gearbase_hole3&#45;&gt;selector: insert_shaft3_into_gearbase_hole3_final -->
<g id="edge15" class="edge">
<title>sequence: insert_shaft3_into_gearbase_hole3&#45;&gt;selector: insert_shaft3_into_gearbase_hole3_final</title>
<path fill="none" stroke="black" d="M1967.39,-221.64C2145.18,-209.01 2431.42,-188.69 2615.92,-175.6"/>
<polygon fill="black" stroke="black" points="2616.27,-179.08 2625.99,-174.88 2615.77,-172.1 2616.27,-179.08"/>
</g>
<!-- target: hold(left_hand, defaultgripper) -->
<g id="node8" class="node">
<title>target: hold(left_hand, defaultgripper)</title>
<ellipse fill="none" stroke="black" cx="537.33" cy="-90" rx="188.47" ry="18"/>
<text text-anchor="middle" x="537.33" y="-86.3" font-family="Times,serif" font-size="14.00">target: hold(left_hand, defaultgripper)</text>
</g>
<!-- selector: change_tool(left_hand, parallelgripper, defaultgripper)&#45;&gt;target: hold(left_hand, defaultgripper) -->
<g id="edge4" class="edge">
<title>selector: change_tool(left_hand, parallelgripper, defaultgripper)&#45;&gt;target: hold(left_hand, defaultgripper)</title>
<path fill="none" stroke="black" d="M940.18,-145.33C854.1,-133.72 737.34,-117.98 651.69,-106.42"/>
<polygon fill="black" stroke="black" points="652.04,-102.94 641.66,-105.07 651.1,-109.88 652.04,-102.94"/>
</g>
<!-- sequence: change_tool(left_hand, parallelgripper, defaultgripper) -->
<g id="node9" class="node">
<title>sequence: change_tool(left_hand, parallelgripper, defaultgripper)</title>
<ellipse fill="none" stroke="black" cx="1056.33" cy="-90" rx="312.74" ry="18"/>
<text text-anchor="middle" x="1056.33" y="-86.3" font-family="Times,serif" font-size="14.00">sequence: change_tool(left_hand, parallelgripper, defaultgripper)</text>
</g>
<!-- selector: change_tool(left_hand, parallelgripper, defaultgripper)&#45;&gt;sequence: change_tool(left_hand, parallelgripper, defaultgripper) -->
<g id="edge5" class="edge">
<title>selector: change_tool(left_hand, parallelgripper, defaultgripper)&#45;&gt;sequence: change_tool(left_hand, parallelgripper, defaultgripper)</title>
<path fill="none" stroke="black" d="M1056.33,-143.7C1056.33,-135.98 1056.33,-126.71 1056.33,-118.11"/>
<polygon fill="black" stroke="black" points="1059.83,-118.1 1056.33,-108.1 1052.83,-118.1 1059.83,-118.1"/>
</g>
<!-- precondition: hold(left_hand, parallelgripper) -->
<g id="node11" class="node">
<title>precondition: hold(left_hand, parallelgripper)</title>
<ellipse fill="none" stroke="black" cx="220.33" cy="-18" rx="220.16" ry="18"/>
<text text-anchor="middle" x="220.33" y="-14.3" font-family="Times,serif" font-size="14.00">precondition: hold(left_hand, parallelgripper)</text>
</g>
<!-- sequence: change_tool(left_hand, parallelgripper, defaultgripper)&#45;&gt;precondition: hold(left_hand, parallelgripper) -->
<g id="edge6" class="edge">
<title>sequence: change_tool(left_hand, parallelgripper, defaultgripper)&#45;&gt;precondition: hold(left_hand, parallelgripper)</title>
<path fill="none" stroke="black" d="M887.15,-74.83C738.52,-62.39 523.9,-44.42 378.61,-32.25"/>
<polygon fill="black" stroke="black" points="378.53,-28.73 368.27,-31.39 377.94,-35.71 378.53,-28.73"/>
</g>
<!-- precondition: is_empty(parallelgripper) -->
<g id="node12" class="node">
<title>precondition: is_empty(parallelgripper)</title>
<ellipse fill="none" stroke="black" cx="651.33" cy="-18" rx="193.07" ry="18"/>
<text text-anchor="middle" x="651.33" y="-14.3" font-family="Times,serif" font-size="14.00">precondition: is_empty(parallelgripper)</text>
</g>
<!-- sequence: change_tool(left_hand, parallelgripper, defaultgripper)&#45;&gt;precondition: is_empty(parallelgripper) -->
<g id="edge7" class="edge">
<title>sequence: change_tool(left_hand, parallelgripper, defaultgripper)&#45;&gt;precondition: is_empty(parallelgripper)</title>
<path fill="none" stroke="black" d="M962.65,-72.81C898.56,-61.73 813.78,-47.08 748.87,-35.86"/>
<polygon fill="black" stroke="black" points="749.08,-32.34 738.63,-34.09 747.89,-39.24 749.08,-32.34"/>
</g>
<!-- action: change_tool(left_hand, parallelgripper, defaultgripper) -->
<g id="node14" class="node">
<title>action: change_tool(left_hand, parallelgripper, defaultgripper)</title>
<ellipse fill="none" stroke="black" cx="1160.33" cy="-18" rx="297.85" ry="18"/>
<text text-anchor="middle" x="1160.33" y="-14.3" font-family="Times,serif" font-size="14.00">action: change_tool(left_hand, parallelgripper, defaultgripper)</text>
</g>
<!-- sequence: change_tool(left_hand, parallelgripper, defaultgripper)&#45;&gt;action: change_tool(left_hand, parallelgripper, defaultgripper) -->
<g id="edge8" class="edge">
<title>sequence: change_tool(left_hand, parallelgripper, defaultgripper)&#45;&gt;action: change_tool(left_hand, parallelgripper, defaultgripper)</title>
<path fill="none" stroke="black" d="M1081.51,-72.05C1095.07,-62.92 1112,-51.53 1126.68,-41.65"/>
<polygon fill="black" stroke="black" points="1128.68,-44.52 1135.03,-36.03 1124.78,-38.71 1128.68,-44.52"/>
</g>
<!-- precondition -->
<g id="node10" class="node">
<title>precondition</title>
<ellipse fill="gray" stroke="black" cx="2197.33" cy="-306" rx="121.49" ry="18"/>
<text text-anchor="middle" x="2197.33" y="-303.8" font-family="Times,serif" font-size="9.00">precondition: hold(defaultgripper, shaft3)</text>
</g>
<!-- action -->
<g id="node13" class="node">
<title>action</title>
<ellipse fill="gray" stroke="black" cx="2517.33" cy="-306" rx="180.92" ry="18"/>
<text text-anchor="middle" x="2517.33" y="-303.8" font-family="Times,serif" font-size="9.00">action: insert(left_hand, defaultgripper, shaft3, gearbase_hole3)</text>
</g>
<!-- target: hold(defaultgripper, shaft3) -->
<g id="node16" class="node">
<title>target: hold(defaultgripper, shaft3)</title>
<ellipse fill="none" stroke="black" cx="1702.33" cy="-90" rx="173.57" ry="18"/>
<text text-anchor="middle" x="1702.33" y="-86.3" font-family="Times,serif" font-size="14.00">target: hold(defaultgripper, shaft3)</text>
</g>
<!-- selector: pick_up_shaft3_with_defaultgripper&#45;&gt;target: hold(defaultgripper, shaft3) -->
<g id="edge10" class="edge">
<title>selector: pick_up_shaft3_with_defaultgripper&#45;&gt;target: hold(defaultgripper, shaft3)</title>
<path fill="none" stroke="black" d="M1781.91,-144.05C1768.21,-134.92 1751.13,-123.53 1736.3,-113.65"/>
<polygon fill="black" stroke="black" points="1738.14,-110.67 1727.88,-108.03 1734.26,-116.49 1738.14,-110.67"/>
</g>
<!-- sequence: pick_up_shaft3_with_defaultgripper -->
<g id="node17" class="node">
<title>sequence: pick_up_shaft3_with_defaultgripper</title>
<ellipse fill="none" stroke="black" cx="2119.33" cy="-90" rx="225.56" ry="18"/>
<text text-anchor="middle" x="2119.33" y="-86.3" font-family="Times,serif" font-size="14.00">sequence: pick_up_shaft3_with_defaultgripper</text>
</g>
<!-- selector: pick_up_shaft3_with_defaultgripper&#45;&gt;sequence: pick_up_shaft3_with_defaultgripper -->
<g id="edge11" class="edge">
<title>selector: pick_up_shaft3_with_defaultgripper&#45;&gt;sequence: pick_up_shaft3_with_defaultgripper</title>
<path fill="none" stroke="black" d="M1878.91,-144.94C1926.21,-134.33 1988.32,-120.39 2037.56,-109.35"/>
<polygon fill="black" stroke="black" points="2038.55,-112.71 2047.54,-107.11 2037.02,-105.88 2038.55,-112.71"/>
</g>
<!-- precondition: hold(left_hand, defaultgripper) -->
<g id="node18" class="node">
<title>precondition: hold(left_hand, defaultgripper)</title>
<ellipse fill="none" stroke="black" cx="1693.33" cy="-18" rx="217.96" ry="18"/>
<text text-anchor="middle" x="1693.33" y="-14.3" font-family="Times,serif" font-size="14.00">precondition: hold(left_hand, defaultgripper)</text>
</g>
<!-- sequence: pick_up_shaft3_with_defaultgripper&#45;&gt;precondition: hold(left_hand, defaultgripper) -->
<g id="edge12" class="edge">
<title>sequence: pick_up_shaft3_with_defaultgripper&#45;&gt;precondition: hold(left_hand, defaultgripper)</title>
<path fill="none" stroke="black" d="M2025.58,-73.59C1957.87,-62.47 1866.43,-47.44 1796.62,-35.97"/>
<polygon fill="black" stroke="black" points="1796.92,-32.48 1786.49,-34.31 1795.79,-39.38 1796.92,-32.48"/>
</g>
<!-- precondition: is_empty(defaultgripper) -->
<g id="node19" class="node">
<title>precondition: is_empty(defaultgripper)</title>
<ellipse fill="none" stroke="black" cx="2119.33" cy="-18" rx="190.37" ry="18"/>
<text text-anchor="middle" x="2119.33" y="-14.3" font-family="Times,serif" font-size="14.00">precondition: is_empty(defaultgripper)</text>
</g>
<!-- sequence: pick_up_shaft3_with_defaultgripper&#45;&gt;precondition: is_empty(defaultgripper) -->
<g id="edge13" class="edge">
<title>sequence: pick_up_shaft3_with_defaultgripper&#45;&gt;precondition: is_empty(defaultgripper)</title>
<path fill="none" stroke="black" d="M2119.33,-71.7C2119.33,-63.98 2119.33,-54.71 2119.33,-46.11"/>
<polygon fill="black" stroke="black" points="2122.83,-46.1 2119.33,-36.1 2115.83,-46.1 2122.83,-46.1"/>
</g>
<!-- action: pick_up(left_hand, defaultgripper, shaft3) -->
<g id="node20" class="node">
<title>action: pick_up(left_hand, defaultgripper, shaft3)</title>
<ellipse fill="none" stroke="black" cx="2565.33" cy="-18" rx="237.46" ry="18"/>
<text text-anchor="middle" x="2565.33" y="-14.3" font-family="Times,serif" font-size="14.00">action: pick_up(left_hand, defaultgripper, shaft3)</text>
</g>
<!-- sequence: pick_up_shaft3_with_defaultgripper&#45;&gt;action: pick_up(left_hand, defaultgripper, shaft3) -->
<g id="edge14" class="edge">
<title>sequence: pick_up_shaft3_with_defaultgripper&#45;&gt;action: pick_up(left_hand, defaultgripper, shaft3)</title>
<path fill="none" stroke="black" d="M2216.66,-73.72C2287.52,-62.6 2383.54,-47.53 2456.87,-36.02"/>
<polygon fill="black" stroke="black" points="2457.72,-39.43 2467.06,-34.42 2456.64,-32.52 2457.72,-39.43"/>
</g>
<!-- target: is_inserted_to(shaft3, gearbase_hole3)* -->
<g id="node22" class="node">
<title>target: is_inserted_to(shaft3, gearbase_hole3)*</title>
<ellipse fill="none" stroke="black" cx="2793.33" cy="-90" rx="228.26" ry="18"/>
<text text-anchor="middle" x="2793.33" y="-86.3" font-family="Times,serif" font-size="14.00">target: is_inserted_to(shaft3, gearbase_hole3)*</text>
</g>
<!-- selector: insert_shaft3_into_gearbase_hole3_final&#45;&gt;target: is_inserted_to(shaft3, gearbase_hole3)* -->
<g id="edge16" class="edge">
<title>selector: insert_shaft3_into_gearbase_hole3_final&#45;&gt;target: is_inserted_to(shaft3, gearbase_hole3)*</title>
<path fill="none" stroke="black" d="M2793.33,-143.7C2793.33,-135.98 2793.33,-126.71 2793.33,-118.11"/>
<polygon fill="black" stroke="black" points="2796.83,-118.1 2793.33,-108.1 2789.83,-118.1 2796.83,-118.1"/>
</g>
<!-- sequence: insert_shaft3_into_gearbase_hole3_final -->
<g id="node23" class="node">
<title>sequence: insert_shaft3_into_gearbase_hole3_final</title>
<ellipse fill="none" stroke="black" cx="3385.33" cy="-90" rx="245.06" ry="18"/>
<text text-anchor="middle" x="3385.33" y="-86.3" font-family="Times,serif" font-size="14.00">sequence: insert_shaft3_into_gearbase_hole3_final</text>
</g>
<!-- selector: insert_shaft3_into_gearbase_hole3_final&#45;&gt;sequence: insert_shaft3_into_gearbase_hole3_final -->
<g id="edge17" class="edge">
<title>selector: insert_shaft3_into_gearbase_hole3_final&#45;&gt;sequence: insert_shaft3_into_gearbase_hole3_final</title>
<path fill="none" stroke="black" d="M2915.63,-146.54C3013.77,-134.93 3151.32,-118.67 3252.21,-106.74"/>
<polygon fill="black" stroke="black" points="3252.65,-110.21 3262.17,-105.56 3251.83,-103.26 3252.65,-110.21"/>
</g>
<!-- precondition: hold(left_hand, defaultgripper)* -->
<g id="node24" class="node">
<title>precondition: hold(left_hand, defaultgripper)*</title>
<ellipse fill="none" stroke="black" cx="3043.33" cy="-18" rx="222.06" ry="18"/>
<text text-anchor="middle" x="3043.33" y="-14.3" font-family="Times,serif" font-size="14.00">precondition: hold(left_hand, defaultgripper)*</text>
</g>
<!-- sequence: insert_shaft3_into_gearbase_hole3_final&#45;&gt;precondition: hold(left_hand, defaultgripper)* -->
<g id="edge18" class="edge">
<title>sequence: insert_shaft3_into_gearbase_hole3_final&#45;&gt;precondition: hold(left_hand, defaultgripper)*</title>
<path fill="none" stroke="black" d="M3306.87,-72.94C3254.42,-62.21 3185.36,-48.07 3131.09,-36.96"/>
<polygon fill="black" stroke="black" points="3131.63,-33.5 3121.13,-34.92 3130.23,-40.36 3131.63,-33.5"/>
</g>
<!-- precondition: hold(defaultgripper, shaft3) -->
<g id="node25" class="node">
<title>precondition: hold(defaultgripper, shaft3)</title>
<ellipse fill="none" stroke="black" cx="3487.33" cy="-18" rx="203.36" ry="18"/>
<text text-anchor="middle" x="3487.33" y="-14.3" font-family="Times,serif" font-size="14.00">precondition: hold(defaultgripper, shaft3)</text>
</g>
<!-- sequence: insert_shaft3_into_gearbase_hole3_final&#45;&gt;precondition: hold(defaultgripper, shaft3) -->
<g id="edge19" class="edge">
<title>sequence: insert_shaft3_into_gearbase_hole3_final&#45;&gt;precondition: hold(defaultgripper, shaft3)</title>
<path fill="none" stroke="black" d="M3410.02,-72.05C3423.2,-63.01 3439.62,-51.74 3453.92,-41.93"/>
<polygon fill="black" stroke="black" points="3456.25,-44.58 3462.51,-36.03 3452.29,-38.8 3456.25,-44.58"/>
</g>
<!-- action: insert(left_hand, defaultgripper, shaft3, gearbase_hole3) -->
<g id="node26" class="node">
<title>action: insert(left_hand, defaultgripper, shaft3, gearbase_hole3)</title>
<ellipse fill="none" stroke="black" cx="4016.33" cy="-18" rx="307.35" ry="18"/>
<text text-anchor="middle" x="4016.33" y="-14.3" font-family="Times,serif" font-size="14.00">action: insert(left_hand, defaultgripper, shaft3, gearbase_hole3)</text>
</g>
<!-- sequence: insert_shaft3_into_gearbase_hole3_final&#45;&gt;action: insert(left_hand, defaultgripper, shaft3, gearbase_hole3) -->
<g id="edge20" class="edge">
<title>sequence: insert_shaft3_into_gearbase_hole3_final&#45;&gt;action: insert(left_hand, defaultgripper, shaft3, gearbase_hole3)</title>
<path fill="none" stroke="black" d="M3514.55,-74.67C3617.78,-63.21 3762.47,-47.16 3869.97,-35.24"/>
<polygon fill="black" stroke="black" points="3870.37,-38.71 3879.92,-34.13 3869.6,-31.76 3870.37,-38.71"/>
</g>
</g>
</svg>
