<?xml version="1.0" encoding="UTF-8" standalone="no"?>
<!DOCTYPE svg PUBLIC "-//W3C//DTD SVG 1.1//EN"
 "http://www.w3.org/Graphics/SVG/1.1/DTD/svg11.dtd">
<!-- Generated by graphviz version 2.43.0 (0)
 -->
<!-- Title: pastafarianism Pages: 1 -->
<svg width="4246pt" height="332pt"
 viewBox="0.00 0.00 4245.95 332.00" xmlns="http://www.w3.org/2000/svg" xmlns:xlink="http://www.w3.org/1999/xlink">
<g id="graph0" class="graph" transform="scale(1 1) rotate(0) translate(4 328)">
<title>pastafarianism</title>
<polygon fill="white" stroke="transparent" points="-4,4 -4,-328 4241.95,-328 4241.95,4 -4,4"/>
<!-- selector -->
<g id="node1" class="node">
<title>selector</title>
<polygon fill="cyan" stroke="black" points="1023.93,-298.54 1023.93,-313.46 907.83,-324 743.63,-324 627.53,-313.46 627.53,-298.54 743.63,-288 907.83,-288 1023.93,-298.54"/>
<text text-anchor="middle" x="825.73" y="-303.8" font-family="Times,serif" font-size="9.00">selector: insert(left_hand, clampgripper, shaft1, gearbase_hole1)</text>
</g>
<!-- target -->
<g id="node2" class="node">
<title>target</title>
<ellipse fill="gray" stroke="black" cx="1176.73" cy="-306" rx="134.55" ry="18"/>
<text text-anchor="middle" x="1176.73" y="-303.8" font-family="Times,serif" font-size="9.00">target: is_inserted_to(shaft1, gearbase_hole1)*</text>
</g>
<!-- selector: insert shaft1 into gearbase_hole1 -->
<g id="node3" class="node">
<title>selector: insert shaft1 into gearbase_hole1</title>
<ellipse fill="none" stroke="black" cx="1538.73" cy="-306" rx="209.06" ry="18"/>
<text text-anchor="middle" x="1538.73" y="-302.3" font-family="Times,serif" font-size="14.00">selector: insert shaft1 into gearbase_hole1</text>
</g>
<!-- target: is_inserted_to(shaft1, gearbase_hole1) -->
<g id="node4" class="node">
<title>target: is_inserted_to(shaft1, gearbase_hole1)</title>
<ellipse fill="none" stroke="black" cx="1310.73" cy="-234" rx="223.66" ry="18"/>
<text text-anchor="middle" x="1310.73" y="-230.3" font-family="Times,serif" font-size="14.00">target: is_inserted_to(shaft1, gearbase_hole1)</text>
</g>
<!-- selector: insert shaft1 into gearbase_hole1&#45;&gt;target: is_inserted_to(shaft1, gearbase_hole1) -->
<g id="edge1" class="edge">
<title>selector: insert shaft1 into gearbase_hole1&#45;&gt;target: is_inserted_to(shaft1, gearbase_hole1)</title>
<path fill="none" stroke="black" d="M1485.27,-288.59C1452.07,-278.39 1409.21,-265.23 1374.27,-254.51"/>
<polygon fill="black" stroke="black" points="1375.23,-251.14 1364.64,-251.55 1373.17,-257.83 1375.23,-251.14"/>
</g>
<!-- sequence: insert shaft1 into gearbase_hole1 -->
<g id="node6" class="node">
<title>sequence: insert shaft1 into gearbase_hole1</title>
<ellipse fill="none" stroke="black" cx="1767.73" cy="-234" rx="215.56" ry="18"/>
<text text-anchor="middle" x="1767.73" y="-230.3" font-family="Times,serif" font-size="14.00">sequence: insert shaft1 into gearbase_hole1</text>
</g>
<!-- selector: insert shaft1 into gearbase_hole1&#45;&gt;sequence: insert shaft1 into gearbase_hole1 -->
<g id="edge2" class="edge">
<title>selector: insert shaft1 into gearbase_hole1&#45;&gt;sequence: insert shaft1 into gearbase_hole1</title>
<path fill="none" stroke="black" d="M1592.42,-288.59C1625.77,-278.39 1668.82,-265.23 1703.91,-254.51"/>
<polygon fill="black" stroke="black" points="1705.04,-257.82 1713.58,-251.55 1703,-251.13 1705.04,-257.82"/>
</g>
<!-- sequence -->
<g id="node5" class="node">
<title>sequence</title>
<polygon fill="orange" stroke="black" points="2089.23,-324 1766.23,-324 1766.23,-288 2089.23,-288 2089.23,-324"/>
<text text-anchor="middle" x="1927.73" y="-303.8" font-family="Times,serif" font-size="9.00">sequence: insert(left_hand, clampgripper, shaft1, gearbase_hole1)</text>
</g>
<!-- selector: change_tool(left_hand, inwardgripper, clampgripper) -->
<g id="node7" class="node">
<title>selector: change_tool(left_hand, inwardgripper, clampgripper)</title>
<ellipse fill="none" stroke="black" cx="1020.73" cy="-162" rx="298.15" ry="18"/>
<text text-anchor="middle" x="1020.73" y="-158.3" font-family="Times,serif" font-size="14.00">selector: change_tool(left_hand, inwardgripper, clampgripper)</text>
</g>
<!-- sequence: insert shaft1 into gearbase_hole1&#45;&gt;selector: change_tool(left_hand, inwardgripper, clampgripper) -->
<g id="edge3" class="edge">
<title>sequence: insert shaft1 into gearbase_hole1&#45;&gt;selector: change_tool(left_hand, inwardgripper, clampgripper)</title>
<path fill="none" stroke="black" d="M1630.28,-220.12C1504.62,-208.34 1318.53,-190.91 1185.06,-178.4"/>
<polygon fill="black" stroke="black" points="1185.02,-174.88 1174.73,-177.43 1184.36,-181.85 1185.02,-174.88"/>
</g>
<!-- selector: pick_up(left_hand, clampgripper, shaft1) -->
<g id="node15" class="node">
<title>selector: pick_up(left_hand, clampgripper, shaft1)</title>
<ellipse fill="none" stroke="black" cx="1767.73" cy="-162" rx="241.26" ry="18"/>
<text text-anchor="middle" x="1767.73" y="-158.3" font-family="Times,serif" font-size="14.00">selector: pick_up(left_hand, clampgripper, shaft1)</text>
</g>
<!-- sequence: insert shaft1 into gearbase_hole1&#45;&gt;selector: pick_up(left_hand, clampgripper, shaft1) -->
<g id="edge9" class="edge">
<title>sequence: insert shaft1 into gearbase_hole1&#45;&gt;selector: pick_up(left_hand, clampgripper, shaft1)</title>
<path fill="none" stroke="black" d="M1767.73,-215.7C1767.73,-207.98 1767.73,-198.71 1767.73,-190.11"/>
<polygon fill="black" stroke="black" points="1771.23,-190.1 1767.73,-180.1 1764.23,-190.1 1771.23,-190.1"/>
</g>
<!-- selector: insert(left_hand, clampgripper, shaft1, gearbase_hole1) -->
<g id="node21" class="node">
<title>selector: insert(left_hand, clampgripper, shaft1, gearbase_hole1)</title>
<ellipse fill="none" stroke="black" cx="2713.73" cy="-162" rx="311.14" ry="18"/>
<text text-anchor="middle" x="2713.73" y="-158.3" font-family="Times,serif" font-size="14.00">selector: insert(left_hand, clampgripper, shaft1, gearbase_hole1)</text>
</g>
<!-- sequence: insert shaft1 into gearbase_hole1&#45;&gt;selector: insert(left_hand, clampgripper, shaft1, gearbase_hole1) -->
<g id="edge15" class="edge">
<title>sequence: insert shaft1 into gearbase_hole1&#45;&gt;selector: insert(left_hand, clampgripper, shaft1, gearbase_hole1)</title>
<path fill="none" stroke="black" d="M1923.15,-221.5C2086.45,-209.42 2343.62,-190.39 2520.03,-177.33"/>
<polygon fill="black" stroke="black" points="2520.5,-180.81 2530.22,-176.58 2519.98,-173.83 2520.5,-180.81"/>
</g>
<!-- target: hold(left_hand, clampgripper) -->
<g id="node8" class="node">
<title>target: hold(left_hand, clampgripper)</title>
<ellipse fill="none" stroke="black" cx="514.73" cy="-90" rx="183.07" ry="18"/>
<text text-anchor="middle" x="514.73" y="-86.3" font-family="Times,serif" font-size="14.00">target: hold(left_hand, clampgripper)</text>
</g>
<!-- selector: change_tool(left_hand, inwardgripper, clampgripper)&#45;&gt;target: hold(left_hand, clampgripper) -->
<g id="edge4" class="edge">
<title>selector: change_tool(left_hand, inwardgripper, clampgripper)&#45;&gt;target: hold(left_hand, clampgripper)</title>
<path fill="none" stroke="black" d="M907.49,-145.33C823.51,-133.72 709.58,-117.96 626.06,-106.4"/>
<polygon fill="black" stroke="black" points="626.41,-102.92 616.03,-105.01 625.45,-109.85 626.41,-102.92"/>
</g>
<!-- sequence: change_tool(left_hand, inwardgripper, clampgripper) -->
<g id="node9" class="node">
<title>sequence: change_tool(left_hand, inwardgripper, clampgripper)</title>
<ellipse fill="none" stroke="black" cx="1020.73" cy="-90" rx="304.65" ry="18"/>
<text text-anchor="middle" x="1020.73" y="-86.3" font-family="Times,serif" font-size="14.00">sequence: change_tool(left_hand, inwardgripper, clampgripper)</text>
</g>
<!-- selector: change_tool(left_hand, inwardgripper, clampgripper)&#45;&gt;sequence: change_tool(left_hand, inwardgripper, clampgripper) -->
<g id="edge5" class="edge">
<title>selector: change_tool(left_hand, inwardgripper, clampgripper)&#45;&gt;sequence: change_tool(left_hand, inwardgripper, clampgripper)</title>
<path fill="none" stroke="black" d="M1020.73,-143.7C1020.73,-135.98 1020.73,-126.71 1020.73,-118.11"/>
<polygon fill="black" stroke="black" points="1024.23,-118.1 1020.73,-108.1 1017.23,-118.1 1024.23,-118.1"/>
</g>
<!-- precondition: hold(left_hand, inwardgripper) -->
<g id="node11" class="node">
<title>precondition: hold(left_hand, inwardgripper)</title>
<ellipse fill="none" stroke="black" cx="217.73" cy="-18" rx="217.96" ry="18"/>
<text text-anchor="middle" x="217.73" y="-14.3" font-family="Times,serif" font-size="14.00">precondition: hold(left_hand, inwardgripper)</text>
</g>
<!-- sequence: change_tool(left_hand, inwardgripper, clampgripper)&#45;&gt;precondition: hold(left_hand, inwardgripper) -->
<g id="edge6" class="edge">
<title>sequence: change_tool(left_hand, inwardgripper, clampgripper)&#45;&gt;precondition: hold(left_hand, inwardgripper)</title>
<path fill="none" stroke="black" d="M857.26,-74.75C715.22,-62.37 510.98,-44.56 371.78,-32.43"/>
<polygon fill="black" stroke="black" points="371.72,-28.91 361.45,-31.53 371.11,-35.88 371.72,-28.91"/>
</g>
<!-- precondition: is_empty(inwardgripper) -->
<g id="node12" class="node">
<title>precondition: is_empty(inwardgripper)</title>
<ellipse fill="none" stroke="black" cx="643.73" cy="-18" rx="190.37" ry="18"/>
<text text-anchor="middle" x="643.73" y="-14.3" font-family="Times,serif" font-size="14.00">precondition: is_empty(inwardgripper)</text>
</g>
<!-- sequence: change_tool(left_hand, inwardgripper, clampgripper)&#45;&gt;precondition: is_empty(inwardgripper) -->
<g id="edge7" class="edge">
<title>sequence: change_tool(left_hand, inwardgripper, clampgripper)&#45;&gt;precondition: is_empty(inwardgripper)</title>
<path fill="none" stroke="black" d="M932.82,-72.68C873.66,-61.69 795.82,-47.24 735.82,-36.1"/>
<polygon fill="black" stroke="black" points="736.44,-32.65 725.97,-34.27 735.16,-39.54 736.44,-32.65"/>
</g>
<!-- action: change_tool(left_hand, inwardgripper, clampgripper) -->
<g id="node14" class="node">
<title>action: change_tool(left_hand, inwardgripper, clampgripper)</title>
<ellipse fill="none" stroke="black" cx="1141.73" cy="-18" rx="289.75" ry="18"/>
<text text-anchor="middle" x="1141.73" y="-14.3" font-family="Times,serif" font-size="14.00">action: change_tool(left_hand, inwardgripper, clampgripper)</text>
</g>
<!-- sequence: change_tool(left_hand, inwardgripper, clampgripper)&#45;&gt;action: change_tool(left_hand, inwardgripper, clampgripper) -->
<g id="edge8" class="edge">
<title>sequence: change_tool(left_hand, inwardgripper, clampgripper)&#45;&gt;action: change_tool(left_hand, inwardgripper, clampgripper)</title>
<path fill="none" stroke="black" d="M1050.02,-72.05C1066.1,-62.75 1086.23,-51.11 1103.54,-41.1"/>
<polygon fill="black" stroke="black" points="1105.39,-44.07 1112.29,-36.03 1101.88,-38.01 1105.39,-44.07"/>
</g>
<!-- precondition -->
<g id="node10" class="node">
<title>precondition</title>
<ellipse fill="gray" stroke="black" cx="2225.73" cy="-306" rx="118.87" ry="18"/>
<text text-anchor="middle" x="2225.73" y="-303.8" font-family="Times,serif" font-size="9.00">precondition: hold(clampgripper, shaft1)</text>
</g>
<!-- action -->
<g id="node13" class="node">
<title>action</title>
<ellipse fill="gray" stroke="black" cx="2540.73" cy="-306" rx="177.65" ry="18"/>
<text text-anchor="middle" x="2540.73" y="-303.8" font-family="Times,serif" font-size="9.00">action: insert(left_hand, clampgripper, shaft1, gearbase_hole1)</text>
</g>
<!-- target: hold(clampgripper, shaft1) -->
<g id="node16" class="node">
<title>target: hold(clampgripper, shaft1)</title>
<ellipse fill="none" stroke="black" cx="1645.73" cy="-90" rx="168.97" ry="18"/>
<text text-anchor="middle" x="1645.73" y="-86.3" font-family="Times,serif" font-size="14.00">target: hold(clampgripper, shaft1)</text>
</g>
<!-- selector: pick_up(left_hand, clampgripper, shaft1)&#45;&gt;target: hold(clampgripper, shaft1) -->
<g id="edge10" class="edge">
<title>selector: pick_up(left_hand, clampgripper, shaft1)&#45;&gt;target: hold(clampgripper, shaft1)</title>
<path fill="none" stroke="black" d="M1738.2,-144.05C1721.86,-134.68 1701.38,-122.93 1683.85,-112.87"/>
<polygon fill="black" stroke="black" points="1685.41,-109.73 1674.99,-107.79 1681.92,-115.8 1685.41,-109.73"/>
</g>
<!-- sequence: pick_up(left_hand, clampgripper, shaft1) -->
<g id="node17" class="node">
<title>sequence: pick_up(left_hand, clampgripper, shaft1)</title>
<ellipse fill="none" stroke="black" cx="2079.73" cy="-90" rx="246.96" ry="18"/>
<text text-anchor="middle" x="2079.73" y="-86.3" font-family="Times,serif" font-size="14.00">sequence: pick_up(left_hand, clampgripper, shaft1)</text>
</g>
<!-- selector: pick_up(left_hand, clampgripper, shaft1)&#45;&gt;sequence: pick_up(left_hand, clampgripper, shaft1) -->
<g id="edge11" class="edge">
<title>selector: pick_up(left_hand, clampgripper, shaft1)&#45;&gt;sequence: pick_up(left_hand, clampgripper, shaft1)</title>
<path fill="none" stroke="black" d="M1840.09,-144.76C1887.08,-134.22 1948.44,-120.46 1997.31,-109.49"/>
<polygon fill="black" stroke="black" points="1998.23,-112.87 2007.22,-107.27 1996.7,-106.04 1998.23,-112.87"/>
</g>
<!-- precondition: hold(left_hand, clampgripper) -->
<g id="node18" class="node">
<title>precondition: hold(left_hand, clampgripper)</title>
<ellipse fill="none" stroke="black" cx="1662.73" cy="-18" rx="213.36" ry="18"/>
<text text-anchor="middle" x="1662.73" y="-14.3" font-family="Times,serif" font-size="14.00">precondition: hold(left_hand, clampgripper)</text>
</g>
<!-- sequence: pick_up(left_hand, clampgripper, shaft1)&#45;&gt;precondition: hold(left_hand, clampgripper) -->
<g id="edge12" class="edge">
<title>sequence: pick_up(left_hand, clampgripper, shaft1)&#45;&gt;precondition: hold(left_hand, clampgripper)</title>
<path fill="none" stroke="black" d="M1986.41,-73.33C1920.41,-62.26 1831.98,-47.41 1764.23,-36.04"/>
<polygon fill="black" stroke="black" points="1764.4,-32.52 1753.96,-34.31 1763.25,-39.42 1764.4,-32.52"/>
</g>
<!-- precondition: is_empty(clampgripper) -->
<g id="node19" class="node">
<title>precondition: is_empty(clampgripper)</title>
<ellipse fill="none" stroke="black" cx="2079.73" cy="-18" rx="185.77" ry="18"/>
<text text-anchor="middle" x="2079.73" y="-14.3" font-family="Times,serif" font-size="14.00">precondition: is_empty(clampgripper)</text>
</g>
<!-- sequence: pick_up(left_hand, clampgripper, shaft1)&#45;&gt;precondition: is_empty(clampgripper) -->
<g id="edge13" class="edge">
<title>sequence: pick_up(left_hand, clampgripper, shaft1)&#45;&gt;precondition: is_empty(clampgripper)</title>
<path fill="none" stroke="black" d="M2079.73,-71.7C2079.73,-63.98 2079.73,-54.71 2079.73,-46.11"/>
<polygon fill="black" stroke="black" points="2083.23,-46.1 2079.73,-36.1 2076.23,-46.1 2083.23,-46.1"/>
</g>
<!-- action: pick_up(left_hand, clampgripper, shaft1) -->
<g id="node20" class="node">
<title>action: pick_up(left_hand, clampgripper, shaft1)</title>
<ellipse fill="none" stroke="black" cx="2515.73" cy="-18" rx="232.06" ry="18"/>
<text text-anchor="middle" x="2515.73" y="-14.3" font-family="Times,serif" font-size="14.00">action: pick_up(left_hand, clampgripper, shaft1)</text>
</g>
<!-- sequence: pick_up(left_hand, clampgripper, shaft1)&#45;&gt;action: pick_up(left_hand, clampgripper, shaft1) -->
<g id="edge14" class="edge">
<title>sequence: pick_up(left_hand, clampgripper, shaft1)&#45;&gt;action: pick_up(left_hand, clampgripper, shaft1)</title>
<path fill="none" stroke="black" d="M2176.76,-73.42C2245.9,-62.32 2338.8,-47.41 2409.86,-36"/>
<polygon fill="black" stroke="black" points="2410.41,-39.45 2419.73,-34.41 2409.3,-32.54 2410.41,-39.45"/>
</g>
<!-- target: is_inserted_to(shaft1, gearbase_hole1)* -->
<g id="node22" class="node">
<title>target: is_inserted_to(shaft1, gearbase_hole1)*</title>
<ellipse fill="none" stroke="black" cx="2713.73" cy="-90" rx="228.26" ry="18"/>
<text text-anchor="middle" x="2713.73" y="-86.3" font-family="Times,serif" font-size="14.00">target: is_inserted_to(shaft1, gearbase_hole1)*</text>
</g>
<!-- selector: insert(left_hand, clampgripper, shaft1, gearbase_hole1)&#45;&gt;target: is_inserted_to(shaft1, gearbase_hole1)* -->
<g id="edge16" class="edge">
<title>selector: insert(left_hand, clampgripper, shaft1, gearbase_hole1)&#45;&gt;target: is_inserted_to(shaft1, gearbase_hole1)*</title>
<path fill="none" stroke="black" d="M2713.73,-143.7C2713.73,-135.98 2713.73,-126.71 2713.73,-118.11"/>
<polygon fill="black" stroke="black" points="2717.23,-118.1 2713.73,-108.1 2710.23,-118.1 2717.23,-118.1"/>
</g>
<!-- sequence: insert(left_hand, clampgripper, shaft1, gearbase_hole1) -->
<g id="node23" class="node">
<title>sequence: insert(left_hand, clampgripper, shaft1, gearbase_hole1)</title>
<ellipse fill="none" stroke="black" cx="3346.73" cy="-90" rx="317.34" ry="18"/>
<text text-anchor="middle" x="3346.73" y="-86.3" font-family="Times,serif" font-size="14.00">sequence: insert(left_hand, clampgripper, shaft1, gearbase_hole1)</text>
</g>
<!-- selector: insert(left_hand, clampgripper, shaft1, gearbase_hole1)&#45;&gt;sequence: insert(left_hand, clampgripper, shaft1, gearbase_hole1) -->
<g id="edge17" class="edge">
<title>selector: insert(left_hand, clampgripper, shaft1, gearbase_hole1)&#45;&gt;sequence: insert(left_hand, clampgripper, shaft1, gearbase_hole1)</title>
<path fill="none" stroke="black" d="M2851.08,-145.81C2953.76,-134.46 3093.95,-118.95 3199.04,-107.33"/>
<polygon fill="black" stroke="black" points="3199.55,-110.8 3209.1,-106.22 3198.78,-103.84 3199.55,-110.8"/>
</g>
<!-- precondition: hold(left_hand, clampgripper)* -->
<g id="node24" class="node">
<title>precondition: hold(left_hand, clampgripper)*</title>
<ellipse fill="none" stroke="black" cx="2983.73" cy="-18" rx="217.96" ry="18"/>
<text text-anchor="middle" x="2983.73" y="-14.3" font-family="Times,serif" font-size="14.00">precondition: hold(left_hand, clampgripper)*</text>
</g>
<!-- sequence: insert(left_hand, clampgripper, shaft1, gearbase_hole1)&#45;&gt;precondition: hold(left_hand, clampgripper)* -->
<g id="edge18" class="edge">
<title>sequence: insert(left_hand, clampgripper, shaft1, gearbase_hole1)&#45;&gt;precondition: hold(left_hand, clampgripper)*</title>
<path fill="none" stroke="black" d="M3261.62,-72.59C3205.68,-61.8 3132.52,-47.69 3075.31,-36.66"/>
<polygon fill="black" stroke="black" points="3075.67,-33.16 3065.19,-34.71 3074.34,-40.04 3075.67,-33.16"/>
</g>
<!-- precondition: hold(clampgripper, shaft1) -->
<g id="node25" class="node">
<title>precondition: hold(clampgripper, shaft1)</title>
<ellipse fill="none" stroke="black" cx="3417.73" cy="-18" rx="198.47" ry="18"/>
<text text-anchor="middle" x="3417.73" y="-14.3" font-family="Times,serif" font-size="14.00">precondition: hold(clampgripper, shaft1)</text>
</g>
<!-- sequence: insert(left_hand, clampgripper, shaft1, gearbase_hole1)&#45;&gt;precondition: hold(clampgripper, shaft1) -->
<g id="edge19" class="edge">
<title>sequence: insert(left_hand, clampgripper, shaft1, gearbase_hole1)&#45;&gt;precondition: hold(clampgripper, shaft1)</title>
<path fill="none" stroke="black" d="M3364.28,-71.7C3372.97,-63.14 3383.59,-52.66 3393.08,-43.3"/>
<polygon fill="black" stroke="black" points="3395.72,-45.62 3400.38,-36.1 3390.8,-40.63 3395.72,-45.62"/>
</g>
<!-- action: insert(left_hand, clampgripper, shaft1, gearbase_hole1) -->
<g id="node26" class="node">
<title>action: insert(left_hand, clampgripper, shaft1, gearbase_hole1)</title>
<ellipse fill="none" stroke="black" cx="3935.73" cy="-18" rx="302.45" ry="18"/>
<text text-anchor="middle" x="3935.73" y="-14.3" font-family="Times,serif" font-size="14.00">action: insert(left_hand, clampgripper, shaft1, gearbase_hole1)</text>
</g>
<!-- sequence: insert(left_hand, clampgripper, shaft1, gearbase_hole1)&#45;&gt;action: insert(left_hand, clampgripper, shaft1, gearbase_hole1) -->
<g id="edge20" class="edge">
<title>sequence: insert(left_hand, clampgripper, shaft1, gearbase_hole1)&#45;&gt;action: insert(left_hand, clampgripper, shaft1, gearbase_hole1)</title>
<path fill="none" stroke="black" d="M3476.72,-73.55C3571.61,-62.27 3700.04,-47.01 3796.92,-35.5"/>
<polygon fill="black" stroke="black" points="3797.57,-38.94 3807.09,-34.29 3796.75,-31.99 3797.57,-38.94"/>
</g>
</g>
</svg>
