<?xml version="1.0" encoding="UTF-8" standalone="no"?>
<!DOCTYPE svg PUBLIC "-//W3C//DTD SVG 1.1//EN"
 "http://www.w3.org/Graphics/SVG/1.1/DTD/svg11.dtd">
<!-- Generated by graphviz version 2.43.0 (0)
 -->
<!-- Title: pastafarianism Pages: 1 -->
<svg width="1852pt" height="332pt"
 viewBox="0.00 0.00 1851.92 332.00" xmlns="http://www.w3.org/2000/svg" xmlns:xlink="http://www.w3.org/1999/xlink">
<g id="graph0" class="graph" transform="scale(1 1) rotate(0) translate(4 328)">
<title>pastafarianism</title>
<polygon fill="white" stroke="transparent" points="-4,4 -4,-328 1847.92,-328 1847.92,4 -4,4"/>
<!-- selector -->
<g id="node1" class="node">
<title>selector</title>
<polygon fill="cyan" stroke="black" points="284.94,-298.54 284.94,-313.46 201.49,-324 83.47,-324 0.02,-313.46 0.02,-298.54 83.47,-288 201.49,-288 284.94,-298.54"/>
<text text-anchor="middle" x="142.48" y="-303.8" font-family="Times,serif" font-size="9.00">selector: ensure_parallelgripper_holds_shaft2</text>
</g>
<!-- target -->
<g id="node2" class="node">
<title>target</title>
<ellipse fill="gray" stroke="black" cx="408.48" cy="-306" rx="105.16" ry="18"/>
<text text-anchor="middle" x="408.48" y="-303.8" font-family="Times,serif" font-size="9.00">target: hold(parallelgripper, shaft2)</text>
</g>
<!-- selector: insert_shaft2_into_gearbase_hole2 -->
<g id="node3" class="node">
<title>selector: insert_shaft2_into_gearbase_hole2</title>
<ellipse fill="none" stroke="black" cx="745.48" cy="-306" rx="213.66" ry="18"/>
<text text-anchor="middle" x="745.48" y="-302.3" font-family="Times,serif" font-size="14.00">selector: insert_shaft2_into_gearbase_hole2</text>
</g>
<!-- target: is_inserted_to(shaft2, gearbase_hole2) -->
<g id="node4" class="node">
<title>target: is_inserted_to(shaft2, gearbase_hole2)</title>
<ellipse fill="none" stroke="black" cx="515.48" cy="-234" rx="223.66" ry="18"/>
<text text-anchor="middle" x="515.48" y="-230.3" font-family="Times,serif" font-size="14.00">target: is_inserted_to(shaft2, gearbase_hole2)</text>
</g>
<!-- selector: insert_shaft2_into_gearbase_hole2&#45;&gt;target: is_inserted_to(shaft2, gearbase_hole2) -->
<g id="edge1" class="edge">
<title>selector: insert_shaft2_into_gearbase_hole2&#45;&gt;target: is_inserted_to(shaft2, gearbase_hole2)</title>
<path fill="none" stroke="black" d="M691.27,-288.5C657.76,-278.3 614.6,-265.17 579.42,-254.46"/>
<polygon fill="black" stroke="black" points="580.32,-251.07 569.73,-251.51 578.28,-257.77 580.32,-251.07"/>
</g>
<!-- sequence: insert_shaft2_into_gearbase_hole2 -->
<g id="node6" class="node">
<title>sequence: insert_shaft2_into_gearbase_hole2</title>
<ellipse fill="none" stroke="black" cx="976.48" cy="-234" rx="219.86" ry="18"/>
<text text-anchor="middle" x="976.48" y="-230.3" font-family="Times,serif" font-size="14.00">sequence: insert_shaft2_into_gearbase_hole2</text>
</g>
<!-- selector: insert_shaft2_into_gearbase_hole2&#45;&gt;sequence: insert_shaft2_into_gearbase_hole2 -->
<g id="edge2" class="edge">
<title>selector: insert_shaft2_into_gearbase_hole2&#45;&gt;sequence: insert_shaft2_into_gearbase_hole2</title>
<path fill="none" stroke="black" d="M799.93,-288.5C833.58,-278.3 876.94,-265.17 912.26,-254.46"/>
<polygon fill="black" stroke="black" points="913.44,-257.76 922,-251.51 911.41,-251.06 913.44,-257.76"/>
</g>
<!-- sequence -->
<g id="node5" class="node">
<title>sequence</title>
<polygon fill="orange" stroke="black" points="1211.98,-324 976.98,-324 976.98,-288 1211.98,-288 1211.98,-324"/>
<text text-anchor="middle" x="1094.48" y="-303.8" font-family="Times,serif" font-size="9.00">sequence: pick_up_shaft2_with_parallelgripper</text>
</g>
<!-- selector: ensure_parallelgripper_holds_shaft2 -->
<g id="node7" class="node">
<title>selector: ensure_parallelgripper_holds_shaft2</title>
<ellipse fill="none" stroke="black" cx="701.48" cy="-162" rx="222.06" ry="18"/>
<text text-anchor="middle" x="701.48" y="-158.3" font-family="Times,serif" font-size="14.00">selector: ensure_parallelgripper_holds_shaft2</text>
</g>
<!-- sequence: insert_shaft2_into_gearbase_hole2&#45;&gt;selector: ensure_parallelgripper_holds_shaft2 -->
<g id="edge3" class="edge">
<title>sequence: insert_shaft2_into_gearbase_hole2&#45;&gt;selector: ensure_parallelgripper_holds_shaft2</title>
<path fill="none" stroke="black" d="M912.7,-216.76C871.63,-206.31 818.1,-192.69 775.21,-181.77"/>
<polygon fill="black" stroke="black" points="775.95,-178.34 765.39,-179.27 774.22,-185.13 775.95,-178.34"/>
</g>
<!-- action: insert(left_hand, parallelgripper, shaft2, gearbase_hole2) -->
<g id="node15" class="node">
<title>action: insert(left_hand, parallelgripper, shaft2, gearbase_hole2)</title>
<ellipse fill="none" stroke="black" cx="1251.48" cy="-162" rx="309.25" ry="18"/>
<text text-anchor="middle" x="1251.48" y="-158.3" font-family="Times,serif" font-size="14.00">action: insert(left_hand, parallelgripper, shaft2, gearbase_hole2)</text>
</g>
<!-- sequence: insert_shaft2_into_gearbase_hole2&#45;&gt;action: insert(left_hand, parallelgripper, shaft2, gearbase_hole2) -->
<g id="edge9" class="edge">
<title>sequence: insert_shaft2_into_gearbase_hole2&#45;&gt;action: insert(left_hand, parallelgripper, shaft2, gearbase_hole2)</title>
<path fill="none" stroke="black" d="M1040.26,-216.76C1080.89,-206.42 1133.71,-192.98 1176.36,-182.12"/>
<polygon fill="black" stroke="black" points="1177.31,-185.49 1186.14,-179.63 1175.58,-178.71 1177.31,-185.49"/>
</g>
<!-- target: hold(parallelgripper, shaft2) -->
<g id="node8" class="node">
<title>target: hold(parallelgripper, shaft2)</title>
<ellipse fill="none" stroke="black" cx="490.48" cy="-90" rx="176.27" ry="18"/>
<text text-anchor="middle" x="490.48" y="-86.3" font-family="Times,serif" font-size="14.00">target: hold(parallelgripper, shaft2)</text>
</g>
<!-- selector: ensure_parallelgripper_holds_shaft2&#45;&gt;target: hold(parallelgripper, shaft2) -->
<g id="edge4" class="edge">
<title>selector: ensure_parallelgripper_holds_shaft2&#45;&gt;target: hold(parallelgripper, shaft2)</title>
<path fill="none" stroke="black" d="M651.48,-144.41C620.89,-134.26 581.59,-121.23 549.48,-110.57"/>
<polygon fill="black" stroke="black" points="550.36,-107.18 539.76,-107.35 548.15,-113.82 550.36,-107.18"/>
</g>
<!-- sequence: pick_up_shaft2_with_parallelgripper -->
<g id="node9" class="node">
<title>sequence: pick_up_shaft2_with_parallelgripper</title>
<ellipse fill="none" stroke="black" cx="912.48" cy="-90" rx="227.46" ry="18"/>
<text text-anchor="middle" x="912.48" y="-86.3" font-family="Times,serif" font-size="14.00">sequence: pick_up_shaft2_with_parallelgripper</text>
</g>
<!-- selector: ensure_parallelgripper_holds_shaft2&#45;&gt;sequence: pick_up_shaft2_with_parallelgripper -->
<g id="edge5" class="edge">
<title>selector: ensure_parallelgripper_holds_shaft2&#45;&gt;sequence: pick_up_shaft2_with_parallelgripper</title>
<path fill="none" stroke="black" d="M751.49,-144.41C781.86,-134.34 820.81,-121.41 852.79,-110.8"/>
<polygon fill="black" stroke="black" points="854.08,-114.06 862.47,-107.59 851.88,-107.42 854.08,-114.06"/>
</g>
<!-- precondition: hold(left_hand, parallelgripper) -->
<g id="node11" class="node">
<title>precondition: hold(left_hand, parallelgripper)</title>
<ellipse fill="none" stroke="black" cx="481.48" cy="-18" rx="220.16" ry="18"/>
<text text-anchor="middle" x="481.48" y="-14.3" font-family="Times,serif" font-size="14.00">precondition: hold(left_hand, parallelgripper)</text>
</g>
<!-- sequence: pick_up_shaft2_with_parallelgripper&#45;&gt;precondition: hold(left_hand, parallelgripper) -->
<g id="edge6" class="edge">
<title>sequence: pick_up_shaft2_with_parallelgripper&#45;&gt;precondition: hold(left_hand, parallelgripper)</title>
<path fill="none" stroke="black" d="M817.63,-73.59C749.12,-62.47 656.62,-47.44 585.99,-35.97"/>
<polygon fill="black" stroke="black" points="586.16,-32.46 575.73,-34.31 585.04,-39.37 586.16,-32.46"/>
</g>
<!-- precondition: is_empty(parallelgripper) -->
<g id="node12" class="node">
<title>precondition: is_empty(parallelgripper)</title>
<ellipse fill="none" stroke="black" cx="912.48" cy="-18" rx="193.07" ry="18"/>
<text text-anchor="middle" x="912.48" y="-14.3" font-family="Times,serif" font-size="14.00">precondition: is_empty(parallelgripper)</text>
</g>
<!-- sequence: pick_up_shaft2_with_parallelgripper&#45;&gt;precondition: is_empty(parallelgripper) -->
<g id="edge7" class="edge">
<title>sequence: pick_up_shaft2_with_parallelgripper&#45;&gt;precondition: is_empty(parallelgripper)</title>
<path fill="none" stroke="black" d="M912.48,-71.7C912.48,-63.98 912.48,-54.71 912.48,-46.11"/>
<polygon fill="black" stroke="black" points="915.98,-46.1 912.48,-36.1 908.98,-46.1 915.98,-46.1"/>
</g>
<!-- action: pick_up(left_hand, parallelgripper, shaft2) -->
<g id="node14" class="node">
<title>action: pick_up(left_hand, parallelgripper, shaft2)</title>
<ellipse fill="none" stroke="black" cx="1362.48" cy="-18" rx="239.36" ry="18"/>
<text text-anchor="middle" x="1362.48" y="-14.3" font-family="Times,serif" font-size="14.00">action: pick_up(left_hand, parallelgripper, shaft2)</text>
</g>
<!-- sequence: pick_up_shaft2_with_parallelgripper&#45;&gt;action: pick_up(left_hand, parallelgripper, shaft2) -->
<g id="edge8" class="edge">
<title>sequence: pick_up_shaft2_with_parallelgripper&#45;&gt;action: pick_up(left_hand, parallelgripper, shaft2)</title>
<path fill="none" stroke="black" d="M1010.68,-73.72C1082.18,-62.6 1179.06,-47.53 1253.04,-36.02"/>
<polygon fill="black" stroke="black" points="1253.98,-39.42 1263.33,-34.42 1252.91,-32.5 1253.98,-39.42"/>
</g>
<!-- precondition -->
<g id="node10" class="node">
<title>precondition</title>
<ellipse fill="gray" stroke="black" cx="1345.48" cy="-306" rx="115.44" ry="18"/>
<text text-anchor="middle" x="1345.48" y="-303.8" font-family="Times,serif" font-size="9.00">precondition: is_empty(parallelgripper)</text>
</g>
<!-- action -->
<g id="node13" class="node">
<title>action</title>
<ellipse fill="gray" stroke="black" cx="1661.48" cy="-306" rx="182.39" ry="18"/>
<text text-anchor="middle" x="1661.48" y="-303.8" font-family="Times,serif" font-size="9.00">action: insert(left_hand, parallelgripper, shaft2, gearbase_hole2)</text>
</g>
</g>
</svg>
