<?xml version="1.0" encoding="UTF-8" standalone="no"?>
<!DOCTYPE svg PUBLIC "-//W3C//DTD SVG 1.1//EN"
 "http://www.w3.org/Graphics/SVG/1.1/DTD/svg11.dtd">
<!-- Generated by graphviz version 2.43.0 (0)
 -->
<!-- Title: pastafarianism Pages: 1 -->
<svg width="4384pt" height="332pt"
 viewBox="0.00 0.00 4383.95 332.00" xmlns="http://www.w3.org/2000/svg" xmlns:xlink="http://www.w3.org/1999/xlink">
<g id="graph0" class="graph" transform="scale(1 1) rotate(0) translate(4 328)">
<title>pastafarianism</title>
<polygon fill="white" stroke="transparent" points="-4,4 -4,-328 4379.95,-328 4379.95,4 -4,4"/>
<!-- selector -->
<g id="node1" class="node">
<title>selector</title>
<polygon fill="cyan" stroke="black" points="1087.05,-298.54 1087.05,-313.46 1015.31,-324 913.85,-324 842.11,-313.46 842.11,-298.54 913.85,-288 1015.31,-288 1087.05,-298.54"/>
<text text-anchor="middle" x="964.58" y="-303.8" font-family="Times,serif" font-size="9.00">selector: insert_shaft1_gearbase_hole1</text>
</g>
<!-- target -->
<g id="node2" class="node">
<title>target</title>
<ellipse fill="gray" stroke="black" cx="1239.58" cy="-306" rx="134.55" ry="18"/>
<text text-anchor="middle" x="1239.58" y="-303.8" font-family="Times,serif" font-size="9.00">target: is_inserted_to(shaft1, gearbase_hole1)*</text>
</g>
<!-- selector: insert_shaft1_into_gearbase_hole1 -->
<g id="node3" class="node">
<title>selector: insert_shaft1_into_gearbase_hole1</title>
<ellipse fill="none" stroke="black" cx="1605.58" cy="-306" rx="213.66" ry="18"/>
<text text-anchor="middle" x="1605.58" y="-302.3" font-family="Times,serif" font-size="14.00">selector: insert_shaft1_into_gearbase_hole1</text>
</g>
<!-- target: is_inserted_to(shaft1, gearbase_hole1) -->
<g id="node4" class="node">
<title>target: is_inserted_to(shaft1, gearbase_hole1)</title>
<ellipse fill="none" stroke="black" cx="1375.58" cy="-234" rx="223.66" ry="18"/>
<text text-anchor="middle" x="1375.58" y="-230.3" font-family="Times,serif" font-size="14.00">target: is_inserted_to(shaft1, gearbase_hole1)</text>
</g>
<!-- selector: insert_shaft1_into_gearbase_hole1&#45;&gt;target: is_inserted_to(shaft1, gearbase_hole1) -->
<g id="edge1" class="edge">
<title>selector: insert_shaft1_into_gearbase_hole1&#45;&gt;target: is_inserted_to(shaft1, gearbase_hole1)</title>
<path fill="none" stroke="black" d="M1551.36,-288.5C1517.86,-278.3 1474.69,-265.17 1439.52,-254.46"/>
<polygon fill="black" stroke="black" points="1440.42,-251.07 1429.83,-251.51 1438.38,-257.77 1440.42,-251.07"/>
</g>
<!-- sequence: insert_shaft1_into_gearbase_hole1 -->
<g id="node6" class="node">
<title>sequence: insert_shaft1_into_gearbase_hole1</title>
<ellipse fill="none" stroke="black" cx="1836.58" cy="-234" rx="219.86" ry="18"/>
<text text-anchor="middle" x="1836.58" y="-230.3" font-family="Times,serif" font-size="14.00">sequence: insert_shaft1_into_gearbase_hole1</text>
</g>
<!-- selector: insert_shaft1_into_gearbase_hole1&#45;&gt;sequence: insert_shaft1_into_gearbase_hole1 -->
<g id="edge2" class="edge">
<title>selector: insert_shaft1_into_gearbase_hole1&#45;&gt;sequence: insert_shaft1_into_gearbase_hole1</title>
<path fill="none" stroke="black" d="M1660.03,-288.5C1693.68,-278.3 1737.04,-265.17 1772.36,-254.46"/>
<polygon fill="black" stroke="black" points="1773.54,-257.76 1782.09,-251.51 1771.51,-251.06 1773.54,-257.76"/>
</g>
<!-- sequence -->
<g id="node5" class="node">
<title>sequence</title>
<polygon fill="orange" stroke="black" points="2040.08,-324 1837.08,-324 1837.08,-288 2040.08,-288 2040.08,-324"/>
<text text-anchor="middle" x="1938.58" y="-303.8" font-family="Times,serif" font-size="9.00">sequence: insert_shaft1_gearbase_hole1</text>
</g>
<!-- selector: change_tool(left_hand, outwardgripper, parallelgripper) -->
<g id="node7" class="node">
<title>selector: change_tool(left_hand, outwardgripper, parallelgripper)</title>
<ellipse fill="none" stroke="black" cx="1074.58" cy="-162" rx="311.94" ry="18"/>
<text text-anchor="middle" x="1074.58" y="-158.3" font-family="Times,serif" font-size="14.00">selector: change_tool(left_hand, outwardgripper, parallelgripper)</text>
</g>
<!-- sequence: insert_shaft1_into_gearbase_hole1&#45;&gt;selector: change_tool(left_hand, outwardgripper, parallelgripper) -->
<g id="edge3" class="edge">
<title>sequence: insert_shaft1_into_gearbase_hole1&#45;&gt;selector: change_tool(left_hand, outwardgripper, parallelgripper)</title>
<path fill="none" stroke="black" d="M1696.37,-220.12C1568.37,-208.36 1378.91,-190.96 1242.8,-178.45"/>
<polygon fill="black" stroke="black" points="1242.96,-174.95 1232.68,-177.52 1242.32,-181.92 1242.96,-174.95"/>
</g>
<!-- selector: pick_up_shaft1_with_parallelgripper -->
<g id="node15" class="node">
<title>selector: pick_up_shaft1_with_parallelgripper</title>
<ellipse fill="none" stroke="black" cx="1836.58" cy="-162" rx="221.76" ry="18"/>
<text text-anchor="middle" x="1836.58" y="-158.3" font-family="Times,serif" font-size="14.00">selector: pick_up_shaft1_with_parallelgripper</text>
</g>
<!-- sequence: insert_shaft1_into_gearbase_hole1&#45;&gt;selector: pick_up_shaft1_with_parallelgripper -->
<g id="edge9" class="edge">
<title>sequence: insert_shaft1_into_gearbase_hole1&#45;&gt;selector: pick_up_shaft1_with_parallelgripper</title>
<path fill="none" stroke="black" d="M1836.58,-215.7C1836.58,-207.98 1836.58,-198.71 1836.58,-190.11"/>
<polygon fill="black" stroke="black" points="1840.08,-190.1 1836.58,-180.1 1833.08,-190.1 1840.08,-190.1"/>
</g>
<!-- selector: insert_shaft1_gearbase_hole1 -->
<g id="node21" class="node">
<title>selector: insert_shaft1_gearbase_hole1</title>
<ellipse fill="none" stroke="black" cx="2633.58" cy="-162" rx="191.17" ry="18"/>
<text text-anchor="middle" x="2633.58" y="-158.3" font-family="Times,serif" font-size="14.00">selector: insert_shaft1_gearbase_hole1</text>
</g>
<!-- sequence: insert_shaft1_into_gearbase_hole1&#45;&gt;selector: insert_shaft1_gearbase_hole1 -->
<g id="edge15" class="edge">
<title>sequence: insert_shaft1_into_gearbase_hole1&#45;&gt;selector: insert_shaft1_gearbase_hole1</title>
<path fill="none" stroke="black" d="M1980.45,-220.36C2124.4,-207.72 2344.62,-188.38 2488.87,-175.71"/>
<polygon fill="black" stroke="black" points="2489.46,-179.17 2499.12,-174.81 2488.85,-172.2 2489.46,-179.17"/>
</g>
<!-- target: hold(left_hand, parallelgripper) -->
<g id="node8" class="node">
<title>target: hold(left_hand, parallelgripper)</title>
<ellipse fill="none" stroke="black" cx="547.58" cy="-90" rx="190.37" ry="18"/>
<text text-anchor="middle" x="547.58" y="-86.3" font-family="Times,serif" font-size="14.00">target: hold(left_hand, parallelgripper)</text>
</g>
<!-- selector: change_tool(left_hand, outwardgripper, parallelgripper)&#45;&gt;target: hold(left_hand, parallelgripper) -->
<g id="edge4" class="edge">
<title>selector: change_tool(left_hand, outwardgripper, parallelgripper)&#45;&gt;target: hold(left_hand, parallelgripper)</title>
<path fill="none" stroke="black" d="M956.64,-145.33C868.99,-133.69 750.04,-117.89 663,-106.33"/>
<polygon fill="black" stroke="black" points="663.45,-102.86 653.08,-105.01 662.53,-109.8 663.45,-102.86"/>
</g>
<!-- sequence: change_tool(left_hand, outwardgripper, parallelgripper) -->
<g id="node9" class="node">
<title>sequence: change_tool(left_hand, outwardgripper, parallelgripper)</title>
<ellipse fill="none" stroke="black" cx="1074.58" cy="-90" rx="318.44" ry="18"/>
<text text-anchor="middle" x="1074.58" y="-86.3" font-family="Times,serif" font-size="14.00">sequence: change_tool(left_hand, outwardgripper, parallelgripper)</text>
</g>
<!-- selector: change_tool(left_hand, outwardgripper, parallelgripper)&#45;&gt;sequence: change_tool(left_hand, outwardgripper, parallelgripper) -->
<g id="edge5" class="edge">
<title>selector: change_tool(left_hand, outwardgripper, parallelgripper)&#45;&gt;sequence: change_tool(left_hand, outwardgripper, parallelgripper)</title>
<path fill="none" stroke="black" d="M1074.58,-143.7C1074.58,-135.98 1074.58,-126.71 1074.58,-118.11"/>
<polygon fill="black" stroke="black" points="1078.08,-118.1 1074.58,-108.1 1071.08,-118.1 1078.08,-118.1"/>
</g>
<!-- precondition: hold(left_hand, outwardgripper) -->
<g id="node11" class="node">
<title>precondition: hold(left_hand, outwardgripper)</title>
<ellipse fill="none" stroke="black" cx="223.58" cy="-18" rx="223.66" ry="18"/>
<text text-anchor="middle" x="223.58" y="-14.3" font-family="Times,serif" font-size="14.00">precondition: hold(left_hand, outwardgripper)</text>
</g>
<!-- sequence: change_tool(left_hand, outwardgripper, parallelgripper)&#45;&gt;precondition: hold(left_hand, outwardgripper) -->
<g id="edge6" class="edge">
<title>sequence: change_tool(left_hand, outwardgripper, parallelgripper)&#45;&gt;precondition: hold(left_hand, outwardgripper)</title>
<path fill="none" stroke="black" d="M902.37,-74.83C750.8,-62.37 531.81,-44.35 383.91,-32.19"/>
<polygon fill="black" stroke="black" points="384.08,-28.69 373.83,-31.36 383.51,-35.67 384.08,-28.69"/>
</g>
<!-- precondition: is_empty(outwardgripper) -->
<g id="node12" class="node">
<title>precondition: is_empty(outwardgripper)</title>
<ellipse fill="none" stroke="black" cx="661.58" cy="-18" rx="196.07" ry="18"/>
<text text-anchor="middle" x="661.58" y="-14.3" font-family="Times,serif" font-size="14.00">precondition: is_empty(outwardgripper)</text>
</g>
<!-- sequence: change_tool(left_hand, outwardgripper, parallelgripper)&#45;&gt;precondition: is_empty(outwardgripper) -->
<g id="edge7" class="edge">
<title>sequence: change_tool(left_hand, outwardgripper, parallelgripper)&#45;&gt;precondition: is_empty(outwardgripper)</title>
<path fill="none" stroke="black" d="M979.05,-72.81C913.56,-61.71 826.88,-47.02 760.64,-35.79"/>
<polygon fill="black" stroke="black" points="761.05,-32.31 750.61,-34.09 759.88,-39.21 761.05,-32.31"/>
</g>
<!-- action: change_tool(left_hand, outwardgripper, parallelgripper) -->
<g id="node14" class="node">
<title>action: change_tool(left_hand, outwardgripper, parallelgripper)</title>
<ellipse fill="none" stroke="black" cx="1179.58" cy="-18" rx="303.55" ry="18"/>
<text text-anchor="middle" x="1179.58" y="-14.3" font-family="Times,serif" font-size="14.00">action: change_tool(left_hand, outwardgripper, parallelgripper)</text>
</g>
<!-- sequence: change_tool(left_hand, outwardgripper, parallelgripper)&#45;&gt;action: change_tool(left_hand, outwardgripper, parallelgripper) -->
<g id="edge8" class="edge">
<title>sequence: change_tool(left_hand, outwardgripper, parallelgripper)&#45;&gt;action: change_tool(left_hand, outwardgripper, parallelgripper)</title>
<path fill="none" stroke="black" d="M1100,-72.05C1113.7,-62.92 1130.78,-51.53 1145.61,-41.65"/>
<polygon fill="black" stroke="black" points="1147.65,-44.49 1154.03,-36.03 1143.77,-38.67 1147.65,-44.49"/>
</g>
<!-- precondition -->
<g id="node10" class="node">
<title>precondition</title>
<ellipse fill="gray" stroke="black" cx="2180.58" cy="-306" rx="122.95" ry="18"/>
<text text-anchor="middle" x="2180.58" y="-303.8" font-family="Times,serif" font-size="9.00">precondition: hold(parallelgripper, shaft1)</text>
</g>
<!-- action -->
<g id="node13" class="node">
<title>action</title>
<ellipse fill="gray" stroke="black" cx="2503.58" cy="-306" rx="182.39" ry="18"/>
<text text-anchor="middle" x="2503.58" y="-303.8" font-family="Times,serif" font-size="9.00">action: insert(left_hand, parallelgripper, shaft1, gearbase_hole1)</text>
</g>
<!-- target: hold(parallelgripper, shaft1) -->
<g id="node16" class="node">
<title>target: hold(parallelgripper, shaft1)</title>
<ellipse fill="none" stroke="black" cx="1730.58" cy="-90" rx="176.27" ry="18"/>
<text text-anchor="middle" x="1730.58" y="-86.3" font-family="Times,serif" font-size="14.00">target: hold(parallelgripper, shaft1)</text>
</g>
<!-- selector: pick_up_shaft1_with_parallelgripper&#45;&gt;target: hold(parallelgripper, shaft1) -->
<g id="edge10" class="edge">
<title>selector: pick_up_shaft1_with_parallelgripper&#45;&gt;target: hold(parallelgripper, shaft1)</title>
<path fill="none" stroke="black" d="M1810.92,-144.05C1797.09,-134.92 1779.84,-123.53 1764.88,-113.65"/>
<polygon fill="black" stroke="black" points="1766.64,-110.62 1756.37,-108.03 1762.79,-116.46 1766.64,-110.62"/>
</g>
<!-- sequence: pick_up_shaft1_with_parallelgripper -->
<g id="node17" class="node">
<title>sequence: pick_up_shaft1_with_parallelgripper</title>
<ellipse fill="none" stroke="black" cx="2152.58" cy="-90" rx="227.46" ry="18"/>
<text text-anchor="middle" x="2152.58" y="-86.3" font-family="Times,serif" font-size="14.00">sequence: pick_up_shaft1_with_parallelgripper</text>
</g>
<!-- selector: pick_up_shaft1_with_parallelgripper&#45;&gt;sequence: pick_up_shaft1_with_parallelgripper -->
<g id="edge11" class="edge">
<title>selector: pick_up_shaft1_with_parallelgripper&#45;&gt;sequence: pick_up_shaft1_with_parallelgripper</title>
<path fill="none" stroke="black" d="M1909.08,-144.94C1957.08,-134.31 2020.15,-120.34 2070.07,-109.28"/>
<polygon fill="black" stroke="black" points="2070.87,-112.69 2079.87,-107.11 2069.35,-105.85 2070.87,-112.69"/>
</g>
<!-- precondition: hold(left_hand, parallelgripper) -->
<g id="node18" class="node">
<title>precondition: hold(left_hand, parallelgripper)</title>
<ellipse fill="none" stroke="black" cx="1721.58" cy="-18" rx="220.16" ry="18"/>
<text text-anchor="middle" x="1721.58" y="-14.3" font-family="Times,serif" font-size="14.00">precondition: hold(left_hand, parallelgripper)</text>
</g>
<!-- sequence: pick_up_shaft1_with_parallelgripper&#45;&gt;precondition: hold(left_hand, parallelgripper) -->
<g id="edge12" class="edge">
<title>sequence: pick_up_shaft1_with_parallelgripper&#45;&gt;precondition: hold(left_hand, parallelgripper)</title>
<path fill="none" stroke="black" d="M2057.73,-73.59C1989.22,-62.47 1896.71,-47.44 1826.09,-35.97"/>
<polygon fill="black" stroke="black" points="1826.26,-32.46 1815.83,-34.31 1825.14,-39.37 1826.26,-32.46"/>
</g>
<!-- precondition: is_empty(parallelgripper) -->
<g id="node19" class="node">
<title>precondition: is_empty(parallelgripper)</title>
<ellipse fill="none" stroke="black" cx="2152.58" cy="-18" rx="193.07" ry="18"/>
<text text-anchor="middle" x="2152.58" y="-14.3" font-family="Times,serif" font-size="14.00">precondition: is_empty(parallelgripper)</text>
</g>
<!-- sequence: pick_up_shaft1_with_parallelgripper&#45;&gt;precondition: is_empty(parallelgripper) -->
<g id="edge13" class="edge">
<title>sequence: pick_up_shaft1_with_parallelgripper&#45;&gt;precondition: is_empty(parallelgripper)</title>
<path fill="none" stroke="black" d="M2152.58,-71.7C2152.58,-63.98 2152.58,-54.71 2152.58,-46.11"/>
<polygon fill="black" stroke="black" points="2156.08,-46.1 2152.58,-36.1 2149.08,-46.1 2156.08,-46.1"/>
</g>
<!-- action: pick_up(left_hand, parallelgripper, shaft1) -->
<g id="node20" class="node">
<title>action: pick_up(left_hand, parallelgripper, shaft1)</title>
<ellipse fill="none" stroke="black" cx="2602.58" cy="-18" rx="239.36" ry="18"/>
<text text-anchor="middle" x="2602.58" y="-14.3" font-family="Times,serif" font-size="14.00">action: pick_up(left_hand, parallelgripper, shaft1)</text>
</g>
<!-- sequence: pick_up_shaft1_with_parallelgripper&#45;&gt;action: pick_up(left_hand, parallelgripper, shaft1) -->
<g id="edge14" class="edge">
<title>sequence: pick_up_shaft1_with_parallelgripper&#45;&gt;action: pick_up(left_hand, parallelgripper, shaft1)</title>
<path fill="none" stroke="black" d="M2250.78,-73.72C2322.28,-62.6 2419.15,-47.53 2493.14,-36.02"/>
<polygon fill="black" stroke="black" points="2494.08,-39.42 2503.43,-34.42 2493.01,-32.5 2494.08,-39.42"/>
</g>
<!-- target: is_inserted_to(shaft1, gearbase_hole1)* -->
<g id="node22" class="node">
<title>target: is_inserted_to(shaft1, gearbase_hole1)*</title>
<ellipse fill="none" stroke="black" cx="2633.58" cy="-90" rx="228.26" ry="18"/>
<text text-anchor="middle" x="2633.58" y="-86.3" font-family="Times,serif" font-size="14.00">target: is_inserted_to(shaft1, gearbase_hole1)*</text>
</g>
<!-- selector: insert_shaft1_gearbase_hole1&#45;&gt;target: is_inserted_to(shaft1, gearbase_hole1)* -->
<g id="edge16" class="edge">
<title>selector: insert_shaft1_gearbase_hole1&#45;&gt;target: is_inserted_to(shaft1, gearbase_hole1)*</title>
<path fill="none" stroke="black" d="M2633.58,-143.7C2633.58,-135.98 2633.58,-126.71 2633.58,-118.11"/>
<polygon fill="black" stroke="black" points="2637.08,-118.1 2633.58,-108.1 2630.08,-118.1 2637.08,-118.1"/>
</g>
<!-- sequence: insert_shaft1_gearbase_hole1 -->
<g id="node23" class="node">
<title>sequence: insert_shaft1_gearbase_hole1</title>
<ellipse fill="none" stroke="black" cx="3308.58" cy="-90" rx="197.66" ry="18"/>
<text text-anchor="middle" x="3308.58" y="-86.3" font-family="Times,serif" font-size="14.00">sequence: insert_shaft1_gearbase_hole1</text>
</g>
<!-- selector: insert_shaft1_gearbase_hole1&#45;&gt;sequence: insert_shaft1_gearbase_hole1 -->
<g id="edge17" class="edge">
<title>selector: insert_shaft1_gearbase_hole1&#45;&gt;sequence: insert_shaft1_gearbase_hole1</title>
<path fill="none" stroke="black" d="M2756.99,-148.2C2874.85,-135.98 3052.02,-117.61 3173.58,-105"/>
<polygon fill="black" stroke="black" points="3174.11,-108.46 3183.7,-103.95 3173.39,-101.5 3174.11,-108.46"/>
</g>
<!-- precondition: hold(left_hand, parallelgripper)* -->
<g id="node24" class="node">
<title>precondition: hold(left_hand, parallelgripper)*</title>
<ellipse fill="none" stroke="black" cx="3084.58" cy="-18" rx="224.76" ry="18"/>
<text text-anchor="middle" x="3084.58" y="-14.3" font-family="Times,serif" font-size="14.00">precondition: hold(left_hand, parallelgripper)*</text>
</g>
<!-- sequence: insert_shaft1_gearbase_hole1&#45;&gt;precondition: hold(left_hand, parallelgripper)* -->
<g id="edge18" class="edge">
<title>sequence: insert_shaft1_gearbase_hole1&#45;&gt;precondition: hold(left_hand, parallelgripper)*</title>
<path fill="none" stroke="black" d="M3256.06,-72.59C3223.58,-62.44 3181.69,-49.35 3147.45,-38.65"/>
<polygon fill="black" stroke="black" points="3148.13,-35.19 3137.55,-35.55 3146.05,-41.88 3148.13,-35.19"/>
</g>
<!-- precondition: hold(parallelgripper, shaft1) -->
<g id="node25" class="node">
<title>precondition: hold(parallelgripper, shaft1)</title>
<ellipse fill="none" stroke="black" cx="3533.58" cy="-18" rx="206.06" ry="18"/>
<text text-anchor="middle" x="3533.58" y="-14.3" font-family="Times,serif" font-size="14.00">precondition: hold(parallelgripper, shaft1)</text>
</g>
<!-- sequence: insert_shaft1_gearbase_hole1&#45;&gt;precondition: hold(parallelgripper, shaft1) -->
<g id="edge19" class="edge">
<title>sequence: insert_shaft1_gearbase_hole1&#45;&gt;precondition: hold(parallelgripper, shaft1)</title>
<path fill="none" stroke="black" d="M3361.33,-72.59C3394.08,-62.4 3436.34,-49.25 3470.81,-38.53"/>
<polygon fill="black" stroke="black" points="3472.26,-41.74 3480.77,-35.43 3470.18,-35.06 3472.26,-41.74"/>
</g>
<!-- action: insert(left_hand, parallelgripper, shaft1, gearbase_hole1) -->
<g id="node26" class="node">
<title>action: insert(left_hand, parallelgripper, shaft1, gearbase_hole1)</title>
<ellipse fill="none" stroke="black" cx="4066.58" cy="-18" rx="309.25" ry="18"/>
<text text-anchor="middle" x="4066.58" y="-14.3" font-family="Times,serif" font-size="14.00">action: insert(left_hand, parallelgripper, shaft1, gearbase_hole1)</text>
</g>
<!-- sequence: insert_shaft1_gearbase_hole1&#45;&gt;action: insert(left_hand, parallelgripper, shaft1, gearbase_hole1) -->
<g id="edge20" class="edge">
<title>sequence: insert_shaft1_gearbase_hole1&#45;&gt;action: insert(left_hand, parallelgripper, shaft1, gearbase_hole1)</title>
<path fill="none" stroke="black" d="M3441.92,-76.69C3569.25,-64.93 3761.59,-47.17 3899.18,-34.46"/>
<polygon fill="black" stroke="black" points="3899.77,-37.92 3909.41,-33.51 3899.13,-30.95 3899.77,-37.92"/>
</g>
</g>
</svg>
