<?xml version="1.0" encoding="UTF-8" standalone="no"?>
<!DOCTYPE svg PUBLIC "-//W3C//DTD SVG 1.1//EN"
 "http://www.w3.org/Graphics/SVG/1.1/DTD/svg11.dtd">
<!-- Generated by graphviz version 2.43.0 (0)
 -->
<!-- Title: pastafarianism Pages: 1 -->
<svg width="5815pt" height="332pt"
 viewBox="0.00 0.00 5814.51 332.00" xmlns="http://www.w3.org/2000/svg" xmlns:xlink="http://www.w3.org/1999/xlink">
<g id="graph0" class="graph" transform="scale(1 1) rotate(0) translate(4 328)">
<title>pastafarianism</title>
<polygon fill="white" stroke="transparent" points="-4,4 -4,-328 5810.51,-328 5810.51,4 -4,4"/>
<!-- selector -->
<g id="node1" class="node">
<title>selector</title>
<polygon fill="cyan" stroke="black" points="1563.31,-298.54 1563.31,-313.46 1513.09,-324 1442.07,-324 1391.85,-313.46 1391.85,-298.54 1442.07,-288 1513.09,-288 1563.31,-298.54"/>
<text text-anchor="middle" x="1477.58" y="-303.8" font-family="Times,serif" font-size="9.00">selector: put_down_shaft1</text>
</g>
<!-- target -->
<g id="node2" class="node">
<title>target</title>
<ellipse fill="gray" stroke="black" cx="1679.58" cy="-306" rx="98.3" ry="18"/>
<text text-anchor="middle" x="1679.58" y="-303.8" font-family="Times,serif" font-size="9.00">target: is_empty(parallelgripper)</text>
</g>
<!-- selector: insert_shaft1_into_gearbase_hole1_using_parallelgripper -->
<g id="node3" class="node">
<title>selector: insert_shaft1_into_gearbase_hole1_using_parallelgripper</title>
<ellipse fill="none" stroke="black" cx="2112.58" cy="-306" rx="317.34" ry="18"/>
<text text-anchor="middle" x="2112.58" y="-302.3" font-family="Times,serif" font-size="14.00">selector: insert_shaft1_into_gearbase_hole1_using_parallelgripper</text>
</g>
<!-- target: is_inserted_to(shaft1, gearbase_hole1) -->
<g id="node4" class="node">
<title>target: is_inserted_to(shaft1, gearbase_hole1)</title>
<ellipse fill="none" stroke="black" cx="1830.58" cy="-234" rx="223.66" ry="18"/>
<text text-anchor="middle" x="1830.58" y="-230.3" font-family="Times,serif" font-size="14.00">target: is_inserted_to(shaft1, gearbase_hole1)</text>
</g>
<!-- selector: insert_shaft1_into_gearbase_hole1_using_parallelgripper&#45;&gt;target: is_inserted_to(shaft1, gearbase_hole1) -->
<g id="edge1" class="edge">
<title>selector: insert_shaft1_into_gearbase_hole1_using_parallelgripper&#45;&gt;target: is_inserted_to(shaft1, gearbase_hole1)</title>
<path fill="none" stroke="black" d="M2045.39,-288.32C2003.53,-277.93 1949.57,-264.54 1906.21,-253.77"/>
<polygon fill="black" stroke="black" points="1906.83,-250.32 1896.28,-251.31 1905.14,-257.11 1906.83,-250.32"/>
</g>
<!-- sequence: insert_shaft1_into_gearbase_hole1_using_parallelgripper -->
<g id="node6" class="node">
<title>sequence: insert_shaft1_into_gearbase_hole1_using_parallelgripper</title>
<ellipse fill="none" stroke="black" cx="2395.58" cy="-234" rx="323.84" ry="18"/>
<text text-anchor="middle" x="2395.58" y="-230.3" font-family="Times,serif" font-size="14.00">sequence: insert_shaft1_into_gearbase_hole1_using_parallelgripper</text>
</g>
<!-- selector: insert_shaft1_into_gearbase_hole1_using_parallelgripper&#45;&gt;sequence: insert_shaft1_into_gearbase_hole1_using_parallelgripper -->
<g id="edge2" class="edge">
<title>selector: insert_shaft1_into_gearbase_hole1_using_parallelgripper&#45;&gt;sequence: insert_shaft1_into_gearbase_hole1_using_parallelgripper</title>
<path fill="none" stroke="black" d="M2180.01,-288.32C2221.56,-278.04 2274.99,-264.83 2318.26,-254.12"/>
<polygon fill="black" stroke="black" points="2319.31,-257.47 2328.18,-251.67 2317.63,-250.67 2319.31,-257.47"/>
</g>
<!-- sequence -->
<g id="node5" class="node">
<title>sequence</title>
<polygon fill="orange" stroke="black" points="2591.58,-324 2447.58,-324 2447.58,-288 2591.58,-288 2591.58,-324"/>
<text text-anchor="middle" x="2519.58" y="-303.8" font-family="Times,serif" font-size="9.00">sequence: put_down_shaft1</text>
</g>
<!-- selector: change_tool(left_hand, outwardgripper, parallelgripper) -->
<g id="node7" class="node">
<title>selector: change_tool(left_hand, outwardgripper, parallelgripper)</title>
<ellipse fill="none" stroke="black" cx="920.58" cy="-162" rx="311.94" ry="18"/>
<text text-anchor="middle" x="920.58" y="-158.3" font-family="Times,serif" font-size="14.00">selector: change_tool(left_hand, outwardgripper, parallelgripper)</text>
</g>
<!-- sequence: insert_shaft1_into_gearbase_hole1_using_parallelgripper&#45;&gt;selector: change_tool(left_hand, outwardgripper, parallelgripper) -->
<g id="edge3" class="edge">
<title>sequence: insert_shaft1_into_gearbase_hole1_using_parallelgripper&#45;&gt;selector: change_tool(left_hand, outwardgripper, parallelgripper)</title>
<path fill="none" stroke="black" d="M2167.88,-221.2C2132.95,-219.43 2097.3,-217.65 2063.58,-216 1755.17,-200.95 1399.89,-184.64 1168.36,-174.14"/>
<polygon fill="black" stroke="black" points="1168.26,-170.64 1158.12,-173.68 1167.95,-177.63 1168.26,-170.64"/>
</g>
<!-- selector: pick_up_shaft1_with_parallelgripper -->
<g id="node15" class="node">
<title>selector: pick_up_shaft1_with_parallelgripper</title>
<ellipse fill="none" stroke="black" cx="2155.58" cy="-162" rx="221.76" ry="18"/>
<text text-anchor="middle" x="2155.58" y="-158.3" font-family="Times,serif" font-size="14.00">selector: pick_up_shaft1_with_parallelgripper</text>
</g>
<!-- sequence: insert_shaft1_into_gearbase_hole1_using_parallelgripper&#45;&gt;selector: pick_up_shaft1_with_parallelgripper -->
<g id="edge9" class="edge">
<title>sequence: insert_shaft1_into_gearbase_hole1_using_parallelgripper&#45;&gt;selector: pick_up_shaft1_with_parallelgripper</title>
<path fill="none" stroke="black" d="M2338.09,-216.23C2303.24,-206.07 2258.61,-193.05 2222.22,-182.44"/>
<polygon fill="black" stroke="black" points="2222.76,-178.95 2212.18,-179.51 2220.8,-185.67 2222.76,-178.95"/>
</g>
<!-- selector: insert_shaft1_gearbase_hole1 -->
<g id="node21" class="node">
<title>selector: insert_shaft1_gearbase_hole1</title>
<ellipse fill="none" stroke="black" cx="2843.58" cy="-162" rx="191.17" ry="18"/>
<text text-anchor="middle" x="2843.58" y="-158.3" font-family="Times,serif" font-size="14.00">selector: insert_shaft1_gearbase_hole1</text>
</g>
<!-- sequence: insert_shaft1_into_gearbase_hole1_using_parallelgripper&#45;&gt;selector: insert_shaft1_gearbase_hole1 -->
<g id="edge15" class="edge">
<title>sequence: insert_shaft1_into_gearbase_hole1_using_parallelgripper&#45;&gt;selector: insert_shaft1_gearbase_hole1</title>
<path fill="none" stroke="black" d="M2498.64,-216.9C2570.82,-205.62 2666.92,-190.6 2739.36,-179.28"/>
<polygon fill="black" stroke="black" points="2740.08,-182.72 2749.42,-177.71 2739,-175.8 2740.08,-182.72"/>
</g>
<!-- selector: put_down_shaft1 -->
<g id="node27" class="node">
<title>selector: put_down_shaft1</title>
<ellipse fill="none" stroke="black" cx="4093.58" cy="-162" rx="131.88" ry="18"/>
<text text-anchor="middle" x="4093.58" y="-158.3" font-family="Times,serif" font-size="14.00">selector: put_down_shaft1</text>
</g>
<!-- sequence: insert_shaft1_into_gearbase_hole1_using_parallelgripper&#45;&gt;selector: put_down_shaft1 -->
<g id="edge21" class="edge">
<title>sequence: insert_shaft1_into_gearbase_hole1_using_parallelgripper&#45;&gt;selector: put_down_shaft1</title>
<path fill="none" stroke="black" d="M2647.04,-222.63C3011.92,-207.59 3675.47,-180.24 3959.14,-168.54"/>
<polygon fill="black" stroke="black" points="3959.63,-172.03 3969.48,-168.12 3959.34,-165.03 3959.63,-172.03"/>
</g>
<!-- target: hold(left_hand, parallelgripper) -->
<g id="node8" class="node">
<title>target: hold(left_hand, parallelgripper)</title>
<ellipse fill="none" stroke="black" cx="393.58" cy="-90" rx="190.37" ry="18"/>
<text text-anchor="middle" x="393.58" y="-86.3" font-family="Times,serif" font-size="14.00">target: hold(left_hand, parallelgripper)</text>
</g>
<!-- selector: change_tool(left_hand, outwardgripper, parallelgripper)&#45;&gt;target: hold(left_hand, parallelgripper) -->
<g id="edge4" class="edge">
<title>selector: change_tool(left_hand, outwardgripper, parallelgripper)&#45;&gt;target: hold(left_hand, parallelgripper)</title>
<path fill="none" stroke="black" d="M802.64,-145.33C714.99,-133.69 596.04,-117.89 509,-106.33"/>
<polygon fill="black" stroke="black" points="509.45,-102.86 499.08,-105.01 508.53,-109.8 509.45,-102.86"/>
</g>
<!-- sequence: change_tool(left_hand, outwardgripper, parallelgripper) -->
<g id="node9" class="node">
<title>sequence: change_tool(left_hand, outwardgripper, parallelgripper)</title>
<ellipse fill="none" stroke="black" cx="920.58" cy="-90" rx="318.44" ry="18"/>
<text text-anchor="middle" x="920.58" y="-86.3" font-family="Times,serif" font-size="14.00">sequence: change_tool(left_hand, outwardgripper, parallelgripper)</text>
</g>
<!-- selector: change_tool(left_hand, outwardgripper, parallelgripper)&#45;&gt;sequence: change_tool(left_hand, outwardgripper, parallelgripper) -->
<g id="edge5" class="edge">
<title>selector: change_tool(left_hand, outwardgripper, parallelgripper)&#45;&gt;sequence: change_tool(left_hand, outwardgripper, parallelgripper)</title>
<path fill="none" stroke="black" d="M920.58,-143.7C920.58,-135.98 920.58,-126.71 920.58,-118.11"/>
<polygon fill="black" stroke="black" points="924.08,-118.1 920.58,-108.1 917.08,-118.1 924.08,-118.1"/>
</g>
<!-- precondition: hold(left_hand, outwardgripper) -->
<g id="node11" class="node">
<title>precondition: hold(left_hand, outwardgripper)</title>
<ellipse fill="none" stroke="black" cx="223.58" cy="-18" rx="223.66" ry="18"/>
<text text-anchor="middle" x="223.58" y="-14.3" font-family="Times,serif" font-size="14.00">precondition: hold(left_hand, outwardgripper)</text>
</g>
<!-- sequence: change_tool(left_hand, outwardgripper, parallelgripper)&#45;&gt;precondition: hold(left_hand, outwardgripper) -->
<g id="edge6" class="edge">
<title>sequence: change_tool(left_hand, outwardgripper, parallelgripper)&#45;&gt;precondition: hold(left_hand, outwardgripper)</title>
<path fill="none" stroke="black" d="M771.91,-74.07C652.45,-62.07 485.68,-45.32 367.5,-33.45"/>
<polygon fill="black" stroke="black" points="367.59,-29.95 357.29,-32.43 366.89,-36.91 367.59,-29.95"/>
</g>
<!-- precondition: is_empty(outwardgripper) -->
<g id="node12" class="node">
<title>precondition: is_empty(outwardgripper)</title>
<ellipse fill="none" stroke="black" cx="661.58" cy="-18" rx="196.07" ry="18"/>
<text text-anchor="middle" x="661.58" y="-14.3" font-family="Times,serif" font-size="14.00">precondition: is_empty(outwardgripper)</text>
</g>
<!-- sequence: change_tool(left_hand, outwardgripper, parallelgripper)&#45;&gt;precondition: is_empty(outwardgripper) -->
<g id="edge7" class="edge">
<title>sequence: change_tool(left_hand, outwardgripper, parallelgripper)&#45;&gt;precondition: is_empty(outwardgripper)</title>
<path fill="none" stroke="black" d="M858.87,-72.32C820.53,-61.96 771.14,-48.61 731.37,-37.86"/>
<polygon fill="black" stroke="black" points="732.04,-34.42 721.48,-35.19 730.22,-41.18 732.04,-34.42"/>
</g>
<!-- action: change_tool(left_hand, outwardgripper, parallelgripper) -->
<g id="node14" class="node">
<title>action: change_tool(left_hand, outwardgripper, parallelgripper)</title>
<ellipse fill="none" stroke="black" cx="1179.58" cy="-18" rx="303.55" ry="18"/>
<text text-anchor="middle" x="1179.58" y="-14.3" font-family="Times,serif" font-size="14.00">action: change_tool(left_hand, outwardgripper, parallelgripper)</text>
</g>
<!-- sequence: change_tool(left_hand, outwardgripper, parallelgripper)&#45;&gt;action: change_tool(left_hand, outwardgripper, parallelgripper) -->
<g id="edge8" class="edge">
<title>sequence: change_tool(left_hand, outwardgripper, parallelgripper)&#45;&gt;action: change_tool(left_hand, outwardgripper, parallelgripper)</title>
<path fill="none" stroke="black" d="M982.29,-72.32C1020.08,-62.11 1068.6,-48.99 1108.07,-38.33"/>
<polygon fill="black" stroke="black" points="1109.16,-41.66 1117.9,-35.67 1107.33,-34.9 1109.16,-41.66"/>
</g>
<!-- precondition -->
<g id="node10" class="node">
<title>precondition</title>
<ellipse fill="gray" stroke="black" cx="2735.58" cy="-306" rx="125.72" ry="18"/>
<text text-anchor="middle" x="2735.58" y="-303.8" font-family="Times,serif" font-size="9.00">precondition: hold(parallelgripper, shaft1)*</text>
</g>
<!-- action -->
<g id="node13" class="node">
<title>action</title>
<ellipse fill="gray" stroke="black" cx="3027.58" cy="-306" rx="147.6" ry="18"/>
<text text-anchor="middle" x="3027.58" y="-303.8" font-family="Times,serif" font-size="9.00">action: put_down(left_hand, parallelgripper, shaft1)</text>
</g>
<!-- target: hold(parallelgripper, shaft1) -->
<g id="node16" class="node">
<title>target: hold(parallelgripper, shaft1)</title>
<ellipse fill="none" stroke="black" cx="1733.58" cy="-90" rx="176.27" ry="18"/>
<text text-anchor="middle" x="1733.58" y="-86.3" font-family="Times,serif" font-size="14.00">target: hold(parallelgripper, shaft1)</text>
</g>
<!-- selector: pick_up_shaft1_with_parallelgripper&#45;&gt;target: hold(parallelgripper, shaft1) -->
<g id="edge10" class="edge">
<title>selector: pick_up_shaft1_with_parallelgripper&#45;&gt;target: hold(parallelgripper, shaft1)</title>
<path fill="none" stroke="black" d="M2062.97,-145.64C1994.52,-134.28 1901.49,-118.85 1831.76,-107.29"/>
<polygon fill="black" stroke="black" points="1832.08,-103.79 1821.64,-105.61 1830.94,-110.7 1832.08,-103.79"/>
</g>
<!-- sequence: pick_up_shaft1_with_parallelgripper -->
<g id="node17" class="node">
<title>sequence: pick_up_shaft1_with_parallelgripper</title>
<ellipse fill="none" stroke="black" cx="2155.58" cy="-90" rx="227.46" ry="18"/>
<text text-anchor="middle" x="2155.58" y="-86.3" font-family="Times,serif" font-size="14.00">sequence: pick_up_shaft1_with_parallelgripper</text>
</g>
<!-- selector: pick_up_shaft1_with_parallelgripper&#45;&gt;sequence: pick_up_shaft1_with_parallelgripper -->
<g id="edge11" class="edge">
<title>selector: pick_up_shaft1_with_parallelgripper&#45;&gt;sequence: pick_up_shaft1_with_parallelgripper</title>
<path fill="none" stroke="black" d="M2155.58,-143.7C2155.58,-135.98 2155.58,-126.71 2155.58,-118.11"/>
<polygon fill="black" stroke="black" points="2159.08,-118.1 2155.58,-108.1 2152.08,-118.1 2159.08,-118.1"/>
</g>
<!-- precondition: hold(left_hand, parallelgripper) -->
<g id="node18" class="node">
<title>precondition: hold(left_hand, parallelgripper)</title>
<ellipse fill="none" stroke="black" cx="1721.58" cy="-18" rx="220.16" ry="18"/>
<text text-anchor="middle" x="1721.58" y="-14.3" font-family="Times,serif" font-size="14.00">precondition: hold(left_hand, parallelgripper)</text>
</g>
<!-- sequence: pick_up_shaft1_with_parallelgripper&#45;&gt;precondition: hold(left_hand, parallelgripper) -->
<g id="edge12" class="edge">
<title>sequence: pick_up_shaft1_with_parallelgripper&#45;&gt;precondition: hold(left_hand, parallelgripper)</title>
<path fill="none" stroke="black" d="M2060.34,-73.64C1991.11,-62.47 1897.43,-47.36 1826.13,-35.86"/>
<polygon fill="black" stroke="black" points="1826.66,-32.4 1816.23,-34.27 1825.54,-39.31 1826.66,-32.4"/>
</g>
<!-- precondition: is_empty(parallelgripper) -->
<g id="node19" class="node">
<title>precondition: is_empty(parallelgripper)</title>
<ellipse fill="none" stroke="black" cx="2152.58" cy="-18" rx="193.07" ry="18"/>
<text text-anchor="middle" x="2152.58" y="-14.3" font-family="Times,serif" font-size="14.00">precondition: is_empty(parallelgripper)</text>
</g>
<!-- sequence: pick_up_shaft1_with_parallelgripper&#45;&gt;precondition: is_empty(parallelgripper) -->
<g id="edge13" class="edge">
<title>sequence: pick_up_shaft1_with_parallelgripper&#45;&gt;precondition: is_empty(parallelgripper)</title>
<path fill="none" stroke="black" d="M2154.84,-71.7C2154.51,-63.98 2154.11,-54.71 2153.74,-46.11"/>
<polygon fill="black" stroke="black" points="2157.24,-45.95 2153.31,-36.1 2150.24,-46.25 2157.24,-45.95"/>
</g>
<!-- action: pick_up(left_hand, parallelgripper, shaft1) -->
<g id="node20" class="node">
<title>action: pick_up(left_hand, parallelgripper, shaft1)</title>
<ellipse fill="none" stroke="black" cx="2602.58" cy="-18" rx="239.36" ry="18"/>
<text text-anchor="middle" x="2602.58" y="-14.3" font-family="Times,serif" font-size="14.00">action: pick_up(left_hand, parallelgripper, shaft1)</text>
</g>
<!-- sequence: pick_up_shaft1_with_parallelgripper&#45;&gt;action: pick_up(left_hand, parallelgripper, shaft1) -->
<g id="edge14" class="edge">
<title>sequence: pick_up_shaft1_with_parallelgripper&#45;&gt;action: pick_up(left_hand, parallelgripper, shaft1)</title>
<path fill="none" stroke="black" d="M2253.12,-73.72C2324.15,-62.6 2420.38,-47.53 2493.87,-36.02"/>
<polygon fill="black" stroke="black" points="2494.75,-39.43 2504.09,-34.42 2493.67,-32.51 2494.75,-39.43"/>
</g>
<!-- target: is_inserted_to(shaft1, gearbase_hole1)* -->
<g id="node22" class="node">
<title>target: is_inserted_to(shaft1, gearbase_hole1)*</title>
<ellipse fill="none" stroke="black" cx="2843.58" cy="-90" rx="228.26" ry="18"/>
<text text-anchor="middle" x="2843.58" y="-86.3" font-family="Times,serif" font-size="14.00">target: is_inserted_to(shaft1, gearbase_hole1)*</text>
</g>
<!-- selector: insert_shaft1_gearbase_hole1&#45;&gt;target: is_inserted_to(shaft1, gearbase_hole1)* -->
<g id="edge16" class="edge">
<title>selector: insert_shaft1_gearbase_hole1&#45;&gt;target: is_inserted_to(shaft1, gearbase_hole1)*</title>
<path fill="none" stroke="black" d="M2843.58,-143.7C2843.58,-135.98 2843.58,-126.71 2843.58,-118.11"/>
<polygon fill="black" stroke="black" points="2847.08,-118.1 2843.58,-108.1 2840.08,-118.1 2847.08,-118.1"/>
</g>
<!-- sequence: insert_shaft1_gearbase_hole1 -->
<g id="node23" class="node">
<title>sequence: insert_shaft1_gearbase_hole1</title>
<ellipse fill="none" stroke="black" cx="3294.58" cy="-90" rx="197.66" ry="18"/>
<text text-anchor="middle" x="3294.58" y="-86.3" font-family="Times,serif" font-size="14.00">sequence: insert_shaft1_gearbase_hole1</text>
</g>
<!-- selector: insert_shaft1_gearbase_hole1&#45;&gt;sequence: insert_shaft1_gearbase_hole1 -->
<g id="edge17" class="edge">
<title>selector: insert_shaft1_gearbase_hole1&#45;&gt;sequence: insert_shaft1_gearbase_hole1</title>
<path fill="none" stroke="black" d="M2938.12,-146.33C3011.54,-134.93 3113.3,-119.14 3189.31,-107.34"/>
<polygon fill="black" stroke="black" points="3190.04,-110.77 3199.38,-105.78 3188.97,-103.85 3190.04,-110.77"/>
</g>
<!-- precondition: hold(left_hand, parallelgripper)* -->
<g id="node24" class="node">
<title>precondition: hold(left_hand, parallelgripper)*</title>
<ellipse fill="none" stroke="black" cx="3084.58" cy="-18" rx="224.76" ry="18"/>
<text text-anchor="middle" x="3084.58" y="-14.3" font-family="Times,serif" font-size="14.00">precondition: hold(left_hand, parallelgripper)*</text>
</g>
<!-- sequence: insert_shaft1_gearbase_hole1&#45;&gt;precondition: hold(left_hand, parallelgripper)* -->
<g id="edge18" class="edge">
<title>sequence: insert_shaft1_gearbase_hole1&#45;&gt;precondition: hold(left_hand, parallelgripper)*</title>
<path fill="none" stroke="black" d="M3245.08,-72.5C3214.86,-62.43 3176.03,-49.48 3144.14,-38.85"/>
<polygon fill="black" stroke="black" points="3145.07,-35.47 3134.48,-35.63 3142.86,-42.11 3145.07,-35.47"/>
</g>
<!-- precondition: hold(parallelgripper, shaft1) -->
<g id="node25" class="node">
<title>precondition: hold(parallelgripper, shaft1)</title>
<ellipse fill="none" stroke="black" cx="3533.58" cy="-18" rx="206.06" ry="18"/>
<text text-anchor="middle" x="3533.58" y="-14.3" font-family="Times,serif" font-size="14.00">precondition: hold(parallelgripper, shaft1)</text>
</g>
<!-- sequence: insert_shaft1_gearbase_hole1&#45;&gt;precondition: hold(parallelgripper, shaft1) -->
<g id="edge19" class="edge">
<title>sequence: insert_shaft1_gearbase_hole1&#45;&gt;precondition: hold(parallelgripper, shaft1)</title>
<path fill="none" stroke="black" d="M3350.31,-72.68C3385.51,-62.37 3431.15,-49 3468.08,-38.18"/>
<polygon fill="black" stroke="black" points="3469.15,-41.52 3477.76,-35.35 3467.18,-34.8 3469.15,-41.52"/>
</g>
<!-- action: insert(left_hand, parallelgripper, shaft1, gearbase_hole1) -->
<g id="node26" class="node">
<title>action: insert(left_hand, parallelgripper, shaft1, gearbase_hole1)</title>
<ellipse fill="none" stroke="black" cx="4066.58" cy="-18" rx="309.25" ry="18"/>
<text text-anchor="middle" x="4066.58" y="-14.3" font-family="Times,serif" font-size="14.00">action: insert(left_hand, parallelgripper, shaft1, gearbase_hole1)</text>
</g>
<!-- sequence: insert_shaft1_gearbase_hole1&#45;&gt;action: insert(left_hand, parallelgripper, shaft1, gearbase_hole1) -->
<g id="edge20" class="edge">
<title>sequence: insert_shaft1_gearbase_hole1&#45;&gt;action: insert(left_hand, parallelgripper, shaft1, gearbase_hole1)</title>
<path fill="none" stroke="black" d="M3429.05,-76.81C3559.09,-65.02 3756.6,-47.11 3897.29,-34.35"/>
<polygon fill="black" stroke="black" points="3897.67,-37.83 3907.32,-33.44 3897.04,-30.86 3897.67,-37.83"/>
</g>
<!-- target: is_empty(parallelgripper) -->
<g id="node28" class="node">
<title>target: is_empty(parallelgripper)</title>
<ellipse fill="none" stroke="black" cx="4093.58" cy="-90" rx="163.27" ry="18"/>
<text text-anchor="middle" x="4093.58" y="-86.3" font-family="Times,serif" font-size="14.00">target: is_empty(parallelgripper)</text>
</g>
<!-- selector: put_down_shaft1&#45;&gt;target: is_empty(parallelgripper) -->
<g id="edge22" class="edge">
<title>selector: put_down_shaft1&#45;&gt;target: is_empty(parallelgripper)</title>
<path fill="none" stroke="black" d="M4093.58,-143.7C4093.58,-135.98 4093.58,-126.71 4093.58,-118.11"/>
<polygon fill="black" stroke="black" points="4097.08,-118.1 4093.58,-108.1 4090.08,-118.1 4097.08,-118.1"/>
</g>
<!-- sequence: put_down_shaft1 -->
<g id="node29" class="node">
<title>sequence: put_down_shaft1</title>
<ellipse fill="none" stroke="black" cx="4851.58" cy="-90" rx="138.38" ry="18"/>
<text text-anchor="middle" x="4851.58" y="-86.3" font-family="Times,serif" font-size="14.00">sequence: put_down_shaft1</text>
</g>
<!-- selector: put_down_shaft1&#45;&gt;sequence: put_down_shaft1 -->
<g id="edge23" class="edge">
<title>selector: put_down_shaft1&#45;&gt;sequence: put_down_shaft1</title>
<path fill="none" stroke="black" d="M4199.38,-151.23C4339.32,-138.31 4585.34,-115.59 4731.92,-102.05"/>
<polygon fill="black" stroke="black" points="4732.66,-105.5 4742.3,-101.09 4732.02,-98.53 4732.66,-105.5"/>
</g>
<!-- precondition: hold(left_hand, parallelgripper)** -->
<g id="node30" class="node">
<title>precondition: hold(left_hand, parallelgripper)**</title>
<ellipse fill="none" stroke="black" cx="4623.58" cy="-18" rx="229.36" ry="18"/>
<text text-anchor="middle" x="4623.58" y="-14.3" font-family="Times,serif" font-size="14.00">precondition: hold(left_hand, parallelgripper)**</text>
</g>
<!-- sequence: put_down_shaft1&#45;&gt;precondition: hold(left_hand, parallelgripper)** -->
<g id="edge24" class="edge">
<title>sequence: put_down_shaft1&#45;&gt;precondition: hold(left_hand, parallelgripper)**</title>
<path fill="none" stroke="black" d="M4800.13,-73.2C4766.75,-62.96 4723.02,-49.53 4687.43,-38.6"/>
<polygon fill="black" stroke="black" points="4688.21,-35.18 4677.62,-35.59 4686.16,-41.87 4688.21,-35.18"/>
</g>
<!-- precondition: hold(parallelgripper, shaft1)* -->
<g id="node31" class="node">
<title>precondition: hold(parallelgripper, shaft1)*</title>
<ellipse fill="none" stroke="black" cx="5080.58" cy="-18" rx="209.86" ry="18"/>
<text text-anchor="middle" x="5080.58" y="-14.3" font-family="Times,serif" font-size="14.00">precondition: hold(parallelgripper, shaft1)*</text>
</g>
<!-- sequence: put_down_shaft1&#45;&gt;precondition: hold(parallelgripper, shaft1)* -->
<g id="edge25" class="edge">
<title>sequence: put_down_shaft1&#45;&gt;precondition: hold(parallelgripper, shaft1)*</title>
<path fill="none" stroke="black" d="M4903.26,-73.2C4936.9,-62.92 4981.02,-49.43 5016.84,-38.49"/>
<polygon fill="black" stroke="black" points="5018.16,-41.74 5026.7,-35.47 5016.12,-35.05 5018.16,-41.74"/>
</g>
<!-- action: put_down(left_hand, parallelgripper, shaft1) -->
<g id="node32" class="node">
<title>action: put_down(left_hand, parallelgripper, shaft1)</title>
<ellipse fill="none" stroke="black" cx="5557.58" cy="-18" rx="248.86" ry="18"/>
<text text-anchor="middle" x="5557.58" y="-14.3" font-family="Times,serif" font-size="14.00">action: put_down(left_hand, parallelgripper, shaft1)</text>
</g>
<!-- sequence: put_down_shaft1&#45;&gt;action: put_down(left_hand, parallelgripper, shaft1) -->
<g id="edge26" class="edge">
<title>sequence: put_down_shaft1&#45;&gt;action: put_down(left_hand, parallelgripper, shaft1)</title>
<path fill="none" stroke="black" d="M4958.04,-78.44C5077.55,-66.6 5272.35,-47.28 5407.32,-33.9"/>
<polygon fill="black" stroke="black" points="5407.74,-37.37 5417.34,-32.9 5407.05,-30.41 5407.74,-37.37"/>
</g>
</g>
</svg>
