<?xml version="1.0" encoding="UTF-8" standalone="no"?>
<!DOCTYPE svg PUBLIC "-//W3C//DTD SVG 1.1//EN"
 "http://www.w3.org/Graphics/SVG/1.1/DTD/svg11.dtd">
<!-- Generated by graphviz version 2.43.0 (0)
 -->
<!-- Title: pastafarianism Pages: 1 -->
<svg width="5705pt" height="332pt"
 viewBox="0.00 0.00 5704.80 332.00" xmlns="http://www.w3.org/2000/svg" xmlns:xlink="http://www.w3.org/1999/xlink">
<g id="graph0" class="graph" transform="scale(1 1) rotate(0) translate(4 328)">
<title>pastafarianism</title>
<polygon fill="white" stroke="transparent" points="-4,4 -4,-328 5700.8,-328 5700.8,4 -4,4"/>
<!-- selector -->
<g id="node1" class="node">
<title>selector</title>
<polygon fill="cyan" stroke="black" points="1577.29,-298.54 1577.29,-313.46 1485.49,-324 1355.67,-324 1263.87,-313.46 1263.87,-298.54 1355.67,-288 1485.49,-288 1577.29,-298.54"/>
<text text-anchor="middle" x="1420.58" y="-303.8" font-family="Times,serif" font-size="9.00">selector: insert_shaft1_into_gearbase_hole1_action</text>
</g>
<!-- target -->
<g id="node2" class="node">
<title>target</title>
<ellipse fill="gray" stroke="black" cx="1729.58" cy="-306" rx="134.55" ry="18"/>
<text text-anchor="middle" x="1729.58" y="-303.8" font-family="Times,serif" font-size="9.00">target: is_inserted_to(shaft1, gearbase_hole1)*</text>
</g>
<!-- selector: insert_shaft1_into_gearbase_hole1_corrected -->
<g id="node3" class="node">
<title>selector: insert_shaft1_into_gearbase_hole1_corrected</title>
<ellipse fill="none" stroke="black" cx="2144.58" cy="-306" rx="262.65" ry="18"/>
<text text-anchor="middle" x="2144.58" y="-302.3" font-family="Times,serif" font-size="14.00">selector: insert_shaft1_into_gearbase_hole1_corrected</text>
</g>
<!-- target: is_inserted_to(shaft1, gearbase_hole1) -->
<g id="node4" class="node">
<title>target: is_inserted_to(shaft1, gearbase_hole1)</title>
<ellipse fill="none" stroke="black" cx="1889.58" cy="-234" rx="223.66" ry="18"/>
<text text-anchor="middle" x="1889.58" y="-230.3" font-family="Times,serif" font-size="14.00">target: is_inserted_to(shaft1, gearbase_hole1)</text>
</g>
<!-- selector: insert_shaft1_into_gearbase_hole1_corrected&#45;&gt;target: is_inserted_to(shaft1, gearbase_hole1) -->
<g id="edge1" class="edge">
<title>selector: insert_shaft1_into_gearbase_hole1_corrected&#45;&gt;target: is_inserted_to(shaft1, gearbase_hole1)</title>
<path fill="none" stroke="black" d="M2084.15,-288.41C2046.68,-278.12 1998.4,-264.87 1959.31,-254.14"/>
<polygon fill="black" stroke="black" points="1960.15,-250.74 1949.58,-251.47 1958.29,-257.49 1960.15,-250.74"/>
</g>
<!-- sequence: insert_shaft1_into_gearbase_hole1_corrected -->
<g id="node6" class="node">
<title>sequence: insert_shaft1_into_gearbase_hole1_corrected</title>
<ellipse fill="none" stroke="black" cx="2399.58" cy="-234" rx="268.35" ry="18"/>
<text text-anchor="middle" x="2399.58" y="-230.3" font-family="Times,serif" font-size="14.00">sequence: insert_shaft1_into_gearbase_hole1_corrected</text>
</g>
<!-- selector: insert_shaft1_into_gearbase_hole1_corrected&#45;&gt;sequence: insert_shaft1_into_gearbase_hole1_corrected -->
<g id="edge2" class="edge">
<title>selector: insert_shaft1_into_gearbase_hole1_corrected&#45;&gt;sequence: insert_shaft1_into_gearbase_hole1_corrected</title>
<path fill="none" stroke="black" d="M2205.01,-288.41C2242.35,-278.16 2290.41,-264.97 2329.43,-254.26"/>
<polygon fill="black" stroke="black" points="2330.42,-257.61 2339.14,-251.59 2328.57,-250.86 2330.42,-257.61"/>
</g>
<!-- sequence -->
<g id="node5" class="node">
<title>sequence</title>
<polygon fill="orange" stroke="black" points="2683.58,-324 2425.58,-324 2425.58,-288 2683.58,-288 2683.58,-324"/>
<text text-anchor="middle" x="2554.58" y="-303.8" font-family="Times,serif" font-size="9.00">sequence: insert_shaft1_into_gearbase_hole1_action</text>
</g>
<!-- selector: put_down_gear3_before_changing_tool -->
<g id="node7" class="node">
<title>selector: put_down_gear3_before_changing_tool</title>
<ellipse fill="none" stroke="black" cx="909.58" cy="-162" rx="232.86" ry="18"/>
<text text-anchor="middle" x="909.58" y="-158.3" font-family="Times,serif" font-size="14.00">selector: put_down_gear3_before_changing_tool</text>
</g>
<!-- sequence: insert_shaft1_into_gearbase_hole1_corrected&#45;&gt;selector: put_down_gear3_before_changing_tool -->
<g id="edge3" class="edge">
<title>sequence: insert_shaft1_into_gearbase_hole1_corrected&#45;&gt;selector: put_down_gear3_before_changing_tool</title>
<path fill="none" stroke="black" d="M2212.61,-221.07C2182.51,-219.28 2151.69,-217.53 2122.58,-216 1772.52,-197.61 1365.39,-180.75 1123.06,-171.19"/>
<polygon fill="black" stroke="black" points="1122.85,-167.68 1112.72,-170.78 1122.57,-174.67 1122.85,-167.68"/>
</g>
<!-- selector: change_tool_to_clampgripper -->
<g id="node15" class="node">
<title>selector: change_tool_to_clampgripper</title>
<ellipse fill="none" stroke="black" cx="2136.58" cy="-162" rx="189.27" ry="18"/>
<text text-anchor="middle" x="2136.58" y="-158.3" font-family="Times,serif" font-size="14.00">selector: change_tool_to_clampgripper</text>
</g>
<!-- sequence: insert_shaft1_into_gearbase_hole1_corrected&#45;&gt;selector: change_tool_to_clampgripper -->
<g id="edge9" class="edge">
<title>sequence: insert_shaft1_into_gearbase_hole1_corrected&#45;&gt;selector: change_tool_to_clampgripper</title>
<path fill="none" stroke="black" d="M2337.25,-216.41C2298.1,-205.99 2247.51,-192.53 2206.92,-181.72"/>
<polygon fill="black" stroke="black" points="2207.66,-178.3 2197.1,-179.11 2205.86,-185.06 2207.66,-178.3"/>
</g>
<!-- selector: pick_up_shaft1_with_clampgripper -->
<g id="node21" class="node">
<title>selector: pick_up_shaft1_with_clampgripper</title>
<ellipse fill="none" stroke="black" cx="2699.58" cy="-162" rx="213.66" ry="18"/>
<text text-anchor="middle" x="2699.58" y="-158.3" font-family="Times,serif" font-size="14.00">selector: pick_up_shaft1_with_clampgripper</text>
</g>
<!-- sequence: insert_shaft1_into_gearbase_hole1_corrected&#45;&gt;selector: pick_up_shaft1_with_clampgripper -->
<g id="edge15" class="edge">
<title>sequence: insert_shaft1_into_gearbase_hole1_corrected&#45;&gt;selector: pick_up_shaft1_with_clampgripper</title>
<path fill="none" stroke="black" d="M2469.92,-216.59C2515.19,-206.02 2574.1,-192.28 2620.92,-181.35"/>
<polygon fill="black" stroke="black" points="2621.78,-184.75 2630.72,-179.07 2620.19,-177.93 2621.78,-184.75"/>
</g>
<!-- selector: insert_shaft1_into_gearbase_hole1_action -->
<g id="node27" class="node">
<title>selector: insert_shaft1_into_gearbase_hole1_action</title>
<ellipse fill="none" stroke="black" cx="3854.58" cy="-162" rx="246.16" ry="18"/>
<text text-anchor="middle" x="3854.58" y="-158.3" font-family="Times,serif" font-size="14.00">selector: insert_shaft1_into_gearbase_hole1_action</text>
</g>
<!-- sequence: insert_shaft1_into_gearbase_hole1_corrected&#45;&gt;selector: insert_shaft1_into_gearbase_hole1_action -->
<g id="edge21" class="edge">
<title>sequence: insert_shaft1_into_gearbase_hole1_corrected&#45;&gt;selector: insert_shaft1_into_gearbase_hole1_action</title>
<path fill="none" stroke="black" d="M2610.76,-222.84C2887.33,-209.53 3369.34,-186.34 3645.08,-173.08"/>
<polygon fill="black" stroke="black" points="3645.39,-176.57 3655.21,-172.59 3645.05,-169.58 3645.39,-176.57"/>
</g>
<!-- target: is_empty(outwardgripper) -->
<g id="node8" class="node">
<title>target: is_empty(outwardgripper)</title>
<ellipse fill="none" stroke="black" cx="588.58" cy="-90" rx="167.07" ry="18"/>
<text text-anchor="middle" x="588.58" y="-86.3" font-family="Times,serif" font-size="14.00">target: is_empty(outwardgripper)</text>
</g>
<!-- selector: put_down_gear3_before_changing_tool&#45;&gt;target: is_empty(outwardgripper) -->
<g id="edge4" class="edge">
<title>selector: put_down_gear3_before_changing_tool&#45;&gt;target: is_empty(outwardgripper)</title>
<path fill="none" stroke="black" d="M835.53,-144.85C785.72,-133.99 720.06,-119.67 668.97,-108.53"/>
<polygon fill="black" stroke="black" points="669.47,-105.06 658.95,-106.35 667.98,-111.9 669.47,-105.06"/>
</g>
<!-- sequence: put_down_gear3 -->
<g id="node9" class="node">
<title>sequence: put_down_gear3</title>
<ellipse fill="none" stroke="black" cx="909.58" cy="-90" rx="135.68" ry="18"/>
<text text-anchor="middle" x="909.58" y="-86.3" font-family="Times,serif" font-size="14.00">sequence: put_down_gear3</text>
</g>
<!-- selector: put_down_gear3_before_changing_tool&#45;&gt;sequence: put_down_gear3 -->
<g id="edge5" class="edge">
<title>selector: put_down_gear3_before_changing_tool&#45;&gt;sequence: put_down_gear3</title>
<path fill="none" stroke="black" d="M909.58,-143.7C909.58,-135.98 909.58,-126.71 909.58,-118.11"/>
<polygon fill="black" stroke="black" points="913.08,-118.1 909.58,-108.1 906.08,-118.1 913.08,-118.1"/>
</g>
<!-- precondition: hold(left_hand, outwardgripper) -->
<g id="node11" class="node">
<title>precondition: hold(left_hand, outwardgripper)</title>
<ellipse fill="none" stroke="black" cx="223.58" cy="-18" rx="223.66" ry="18"/>
<text text-anchor="middle" x="223.58" y="-14.3" font-family="Times,serif" font-size="14.00">precondition: hold(left_hand, outwardgripper)</text>
</g>
<!-- sequence: put_down_gear3&#45;&gt;precondition: hold(left_hand, outwardgripper) -->
<g id="edge6" class="edge">
<title>sequence: put_down_gear3&#45;&gt;precondition: hold(left_hand, outwardgripper)</title>
<path fill="none" stroke="black" d="M812.5,-77.36C796.5,-75.51 780.08,-73.67 764.58,-72 632.76,-57.82 482.69,-43.24 374.1,-32.97"/>
<polygon fill="black" stroke="black" points="374.34,-29.48 364.05,-32.02 373.68,-36.45 374.34,-29.48"/>
</g>
<!-- precondition: hold(outwardgripper, gear3) -->
<g id="node12" class="node">
<title>precondition: hold(outwardgripper, gear3)</title>
<ellipse fill="none" stroke="black" cx="671.58" cy="-18" rx="206.86" ry="18"/>
<text text-anchor="middle" x="671.58" y="-14.3" font-family="Times,serif" font-size="14.00">precondition: hold(outwardgripper, gear3)</text>
</g>
<!-- sequence: put_down_gear3&#45;&gt;precondition: hold(outwardgripper, gear3) -->
<g id="edge7" class="edge">
<title>sequence: put_down_gear3&#45;&gt;precondition: hold(outwardgripper, gear3)</title>
<path fill="none" stroke="black" d="M856.46,-73.38C821.25,-63.02 774.8,-49.36 737.27,-38.32"/>
<polygon fill="black" stroke="black" points="738.01,-34.89 727.43,-35.43 736.04,-41.61 738.01,-34.89"/>
</g>
<!-- action: put_down(left_hand, outwardgripper, gear3) -->
<g id="node14" class="node">
<title>action: put_down(left_hand, outwardgripper, gear3)</title>
<ellipse fill="none" stroke="black" cx="1146.58" cy="-18" rx="250.46" ry="18"/>
<text text-anchor="middle" x="1146.58" y="-14.3" font-family="Times,serif" font-size="14.00">action: put_down(left_hand, outwardgripper, gear3)</text>
</g>
<!-- sequence: put_down_gear3&#45;&gt;action: put_down(left_hand, outwardgripper, gear3) -->
<g id="edge8" class="edge">
<title>sequence: put_down_gear3&#45;&gt;action: put_down(left_hand, outwardgripper, gear3)</title>
<path fill="none" stroke="black" d="M962.47,-73.38C997.41,-63.06 1043.46,-49.46 1080.77,-38.44"/>
<polygon fill="black" stroke="black" points="1081.95,-41.74 1090.55,-35.55 1079.96,-35.03 1081.95,-41.74"/>
</g>
<!-- precondition -->
<g id="node10" class="node">
<title>precondition</title>
<ellipse fill="gray" stroke="black" cx="2820.58" cy="-306" rx="118.87" ry="18"/>
<text text-anchor="middle" x="2820.58" y="-303.8" font-family="Times,serif" font-size="9.00">precondition: hold(clampgripper, shaft1)</text>
</g>
<!-- action -->
<g id="node13" class="node">
<title>action</title>
<ellipse fill="gray" stroke="black" cx="3135.58" cy="-306" rx="177.65" ry="18"/>
<text text-anchor="middle" x="3135.58" y="-303.8" font-family="Times,serif" font-size="9.00">action: insert(left_hand, clampgripper, shaft1, gearbase_hole1)</text>
</g>
<!-- target: hold(left_hand, clampgripper) -->
<g id="node16" class="node">
<title>target: hold(left_hand, clampgripper)</title>
<ellipse fill="none" stroke="black" cx="1739.58" cy="-90" rx="183.07" ry="18"/>
<text text-anchor="middle" x="1739.58" y="-86.3" font-family="Times,serif" font-size="14.00">target: hold(left_hand, clampgripper)</text>
</g>
<!-- selector: change_tool_to_clampgripper&#45;&gt;target: hold(left_hand, clampgripper) -->
<g id="edge10" class="edge">
<title>selector: change_tool_to_clampgripper&#45;&gt;target: hold(left_hand, clampgripper)</title>
<path fill="none" stroke="black" d="M2050.93,-145.9C1987.29,-134.68 1900.49,-119.37 1834.7,-107.77"/>
<polygon fill="black" stroke="black" points="1835.2,-104.31 1824.74,-106.02 1833.98,-111.2 1835.2,-104.31"/>
</g>
<!-- sequence: change_tool_to_clampgripper -->
<g id="node17" class="node">
<title>sequence: change_tool_to_clampgripper</title>
<ellipse fill="none" stroke="black" cx="2136.58" cy="-90" rx="195.77" ry="18"/>
<text text-anchor="middle" x="2136.58" y="-86.3" font-family="Times,serif" font-size="14.00">sequence: change_tool_to_clampgripper</text>
</g>
<!-- selector: change_tool_to_clampgripper&#45;&gt;sequence: change_tool_to_clampgripper -->
<g id="edge11" class="edge">
<title>selector: change_tool_to_clampgripper&#45;&gt;sequence: change_tool_to_clampgripper</title>
<path fill="none" stroke="black" d="M2136.58,-143.7C2136.58,-135.98 2136.58,-126.71 2136.58,-118.11"/>
<polygon fill="black" stroke="black" points="2140.08,-118.1 2136.58,-108.1 2133.08,-118.1 2140.08,-118.1"/>
</g>
<!-- precondition: hold(left_hand, outwardgripper)* -->
<g id="node18" class="node">
<title>precondition: hold(left_hand, outwardgripper)*</title>
<ellipse fill="none" stroke="black" cx="1642.58" cy="-18" rx="228.26" ry="18"/>
<text text-anchor="middle" x="1642.58" y="-14.3" font-family="Times,serif" font-size="14.00">precondition: hold(left_hand, outwardgripper)*</text>
</g>
<!-- sequence: change_tool_to_clampgripper&#45;&gt;precondition: hold(left_hand, outwardgripper)* -->
<g id="edge12" class="edge">
<title>sequence: change_tool_to_clampgripper&#45;&gt;precondition: hold(left_hand, outwardgripper)*</title>
<path fill="none" stroke="black" d="M2034.82,-74.58C1954.48,-63.2 1842.35,-47.31 1758.55,-35.43"/>
<polygon fill="black" stroke="black" points="1758.86,-31.94 1748.47,-34 1757.88,-38.87 1758.86,-31.94"/>
</g>
<!-- precondition: is_empty(outwardgripper) -->
<g id="node19" class="node">
<title>precondition: is_empty(outwardgripper)</title>
<ellipse fill="none" stroke="black" cx="2084.58" cy="-18" rx="196.07" ry="18"/>
<text text-anchor="middle" x="2084.58" y="-14.3" font-family="Times,serif" font-size="14.00">precondition: is_empty(outwardgripper)</text>
</g>
<!-- sequence: change_tool_to_clampgripper&#45;&gt;precondition: is_empty(outwardgripper) -->
<g id="edge13" class="edge">
<title>sequence: change_tool_to_clampgripper&#45;&gt;precondition: is_empty(outwardgripper)</title>
<path fill="none" stroke="black" d="M2123.73,-71.7C2117.56,-63.39 2110.04,-53.28 2103.26,-44.14"/>
<polygon fill="black" stroke="black" points="2106.06,-42.04 2097.29,-36.1 2100.44,-46.22 2106.06,-42.04"/>
</g>
<!-- action: change_tool(left_hand, outwardgripper, clampgripper) -->
<g id="node20" class="node">
<title>action: change_tool(left_hand, outwardgripper, clampgripper)</title>
<ellipse fill="none" stroke="black" cx="2594.58" cy="-18" rx="295.95" ry="18"/>
<text text-anchor="middle" x="2594.58" y="-14.3" font-family="Times,serif" font-size="14.00">action: change_tool(left_hand, outwardgripper, clampgripper)</text>
</g>
<!-- sequence: change_tool_to_clampgripper&#45;&gt;action: change_tool(left_hand, outwardgripper, clampgripper) -->
<g id="edge14" class="edge">
<title>sequence: change_tool_to_clampgripper&#45;&gt;action: change_tool(left_hand, outwardgripper, clampgripper)</title>
<path fill="none" stroke="black" d="M2232.87,-74.28C2305.06,-63.25 2404.12,-48.11 2480.32,-36.46"/>
<polygon fill="black" stroke="black" points="2481.09,-39.89 2490.45,-34.92 2480.03,-32.97 2481.09,-39.89"/>
</g>
<!-- target: hold(clampgripper, shaft1) -->
<g id="node22" class="node">
<title>target: hold(clampgripper, shaft1)</title>
<ellipse fill="none" stroke="black" cx="2699.58" cy="-90" rx="168.97" ry="18"/>
<text text-anchor="middle" x="2699.58" y="-86.3" font-family="Times,serif" font-size="14.00">target: hold(clampgripper, shaft1)</text>
</g>
<!-- selector: pick_up_shaft1_with_clampgripper&#45;&gt;target: hold(clampgripper, shaft1) -->
<g id="edge16" class="edge">
<title>selector: pick_up_shaft1_with_clampgripper&#45;&gt;target: hold(clampgripper, shaft1)</title>
<path fill="none" stroke="black" d="M2699.58,-143.7C2699.58,-135.98 2699.58,-126.71 2699.58,-118.11"/>
<polygon fill="black" stroke="black" points="2703.08,-118.1 2699.58,-108.1 2696.08,-118.1 2703.08,-118.1"/>
</g>
<!-- sequence: pick_up_shaft1_with_clampgripper -->
<g id="node23" class="node">
<title>sequence: pick_up_shaft1_with_clampgripper</title>
<ellipse fill="none" stroke="black" cx="3210.58" cy="-90" rx="220.16" ry="18"/>
<text text-anchor="middle" x="3210.58" y="-86.3" font-family="Times,serif" font-size="14.00">sequence: pick_up_shaft1_with_clampgripper</text>
</g>
<!-- selector: pick_up_shaft1_with_clampgripper&#45;&gt;sequence: pick_up_shaft1_with_clampgripper -->
<g id="edge17" class="edge">
<title>selector: pick_up_shaft1_with_clampgripper&#45;&gt;sequence: pick_up_shaft1_with_clampgripper</title>
<path fill="none" stroke="black" d="M2806.39,-146.37C2890.12,-134.9 3006.52,-118.95 3092.91,-107.12"/>
<polygon fill="black" stroke="black" points="3093.6,-110.56 3103.03,-105.73 3092.65,-103.62 3093.6,-110.56"/>
</g>
<!-- precondition: hold(left_hand, clampgripper) -->
<g id="node24" class="node">
<title>precondition: hold(left_hand, clampgripper)</title>
<ellipse fill="none" stroke="black" cx="3121.58" cy="-18" rx="213.36" ry="18"/>
<text text-anchor="middle" x="3121.58" y="-14.3" font-family="Times,serif" font-size="14.00">precondition: hold(left_hand, clampgripper)</text>
</g>
<!-- sequence: pick_up_shaft1_with_clampgripper&#45;&gt;precondition: hold(left_hand, clampgripper) -->
<g id="edge18" class="edge">
<title>sequence: pick_up_shaft1_with_clampgripper&#45;&gt;precondition: hold(left_hand, clampgripper)</title>
<path fill="none" stroke="black" d="M3189.04,-72.05C3177.75,-63.18 3163.75,-52.17 3151.44,-42.48"/>
<polygon fill="black" stroke="black" points="3153.26,-39.46 3143.23,-36.03 3148.93,-44.96 3153.26,-39.46"/>
</g>
<!-- precondition: is_empty(clampgripper) -->
<g id="node25" class="node">
<title>precondition: is_empty(clampgripper)</title>
<ellipse fill="none" stroke="black" cx="3538.58" cy="-18" rx="185.77" ry="18"/>
<text text-anchor="middle" x="3538.58" y="-14.3" font-family="Times,serif" font-size="14.00">precondition: is_empty(clampgripper)</text>
</g>
<!-- sequence: pick_up_shaft1_with_clampgripper&#45;&gt;precondition: is_empty(clampgripper) -->
<g id="edge19" class="edge">
<title>sequence: pick_up_shaft1_with_clampgripper&#45;&gt;precondition: is_empty(clampgripper)</title>
<path fill="none" stroke="black" d="M3285.42,-73.03C3336.13,-62.21 3403.19,-47.9 3455.54,-36.72"/>
<polygon fill="black" stroke="black" points="3456.43,-40.11 3465.47,-34.6 3454.96,-33.27 3456.43,-40.11"/>
</g>
<!-- action: pick_up(left_hand, clampgripper, shaft1) -->
<g id="node26" class="node">
<title>action: pick_up(left_hand, clampgripper, shaft1)</title>
<ellipse fill="none" stroke="black" cx="3974.58" cy="-18" rx="232.06" ry="18"/>
<text text-anchor="middle" x="3974.58" y="-14.3" font-family="Times,serif" font-size="14.00">action: pick_up(left_hand, clampgripper, shaft1)</text>
</g>
<!-- sequence: pick_up_shaft1_with_clampgripper&#45;&gt;action: pick_up(left_hand, clampgripper, shaft1) -->
<g id="edge20" class="edge">
<title>sequence: pick_up_shaft1_with_clampgripper&#45;&gt;action: pick_up(left_hand, clampgripper, shaft1)</title>
<path fill="none" stroke="black" d="M3351.15,-76.12C3484.23,-63.93 3683.53,-45.67 3820.79,-33.09"/>
<polygon fill="black" stroke="black" points="3821.33,-36.56 3830.97,-32.16 3820.69,-29.58 3821.33,-36.56"/>
</g>
<!-- target: is_inserted_to(shaft1, gearbase_hole1)* -->
<g id="node28" class="node">
<title>target: is_inserted_to(shaft1, gearbase_hole1)*</title>
<ellipse fill="none" stroke="black" cx="3854.58" cy="-90" rx="228.26" ry="18"/>
<text text-anchor="middle" x="3854.58" y="-86.3" font-family="Times,serif" font-size="14.00">target: is_inserted_to(shaft1, gearbase_hole1)*</text>
</g>
<!-- selector: insert_shaft1_into_gearbase_hole1_action&#45;&gt;target: is_inserted_to(shaft1, gearbase_hole1)* -->
<g id="edge22" class="edge">
<title>selector: insert_shaft1_into_gearbase_hole1_action&#45;&gt;target: is_inserted_to(shaft1, gearbase_hole1)*</title>
<path fill="none" stroke="black" d="M3854.58,-143.7C3854.58,-135.98 3854.58,-126.71 3854.58,-118.11"/>
<polygon fill="black" stroke="black" points="3858.08,-118.1 3854.58,-108.1 3851.08,-118.1 3858.08,-118.1"/>
</g>
<!-- sequence: insert_shaft1_into_gearbase_hole1_action -->
<g id="node29" class="node">
<title>sequence: insert_shaft1_into_gearbase_hole1_action</title>
<ellipse fill="none" stroke="black" cx="4659.58" cy="-90" rx="252.66" ry="18"/>
<text text-anchor="middle" x="4659.58" y="-86.3" font-family="Times,serif" font-size="14.00">sequence: insert_shaft1_into_gearbase_hole1_action</text>
</g>
<!-- selector: insert_shaft1_into_gearbase_hole1_action&#45;&gt;sequence: insert_shaft1_into_gearbase_hole1_action -->
<g id="edge23" class="edge">
<title>selector: insert_shaft1_into_gearbase_hole1_action&#45;&gt;sequence: insert_shaft1_into_gearbase_hole1_action</title>
<path fill="none" stroke="black" d="M4006.47,-147.79C4146.18,-135.64 4352.81,-117.68 4496.09,-105.22"/>
<polygon fill="black" stroke="black" points="4496.63,-108.68 4506.29,-104.33 4496.03,-101.71 4496.63,-108.68"/>
</g>
<!-- precondition: hold(left_hand, clampgripper)* -->
<g id="node30" class="node">
<title>precondition: hold(left_hand, clampgripper)*</title>
<ellipse fill="none" stroke="black" cx="4442.58" cy="-18" rx="217.96" ry="18"/>
<text text-anchor="middle" x="4442.58" y="-14.3" font-family="Times,serif" font-size="14.00">precondition: hold(left_hand, clampgripper)*</text>
</g>
<!-- sequence: insert_shaft1_into_gearbase_hole1_action&#45;&gt;precondition: hold(left_hand, clampgripper)* -->
<g id="edge24" class="edge">
<title>sequence: insert_shaft1_into_gearbase_hole1_action&#45;&gt;precondition: hold(left_hand, clampgripper)*</title>
<path fill="none" stroke="black" d="M4607.88,-72.32C4576.64,-62.24 4536.65,-49.34 4503.82,-38.76"/>
<polygon fill="black" stroke="black" points="4504.48,-35.29 4493.89,-35.55 4502.33,-41.95 4504.48,-35.29"/>
</g>
<!-- precondition: hold(clampgripper, shaft1) -->
<g id="node31" class="node">
<title>precondition: hold(clampgripper, shaft1)</title>
<ellipse fill="none" stroke="black" cx="4876.58" cy="-18" rx="198.47" ry="18"/>
<text text-anchor="middle" x="4876.58" y="-14.3" font-family="Times,serif" font-size="14.00">precondition: hold(clampgripper, shaft1)</text>
</g>
<!-- sequence: insert_shaft1_into_gearbase_hole1_action&#45;&gt;precondition: hold(clampgripper, shaft1) -->
<g id="edge25" class="edge">
<title>sequence: insert_shaft1_into_gearbase_hole1_action&#45;&gt;precondition: hold(clampgripper, shaft1)</title>
<path fill="none" stroke="black" d="M4711.28,-72.32C4742.77,-62.16 4783.15,-49.14 4816.12,-38.5"/>
<polygon fill="black" stroke="black" points="4817.21,-41.83 4825.65,-35.43 4815.06,-35.17 4817.21,-41.83"/>
</g>
<!-- action: insert(left_hand, clampgripper, shaft1, gearbase_hole1) -->
<g id="node32" class="node">
<title>action: insert(left_hand, clampgripper, shaft1, gearbase_hole1)</title>
<ellipse fill="none" stroke="black" cx="5394.58" cy="-18" rx="302.45" ry="18"/>
<text text-anchor="middle" x="5394.58" y="-14.3" font-family="Times,serif" font-size="14.00">action: insert(left_hand, clampgripper, shaft1, gearbase_hole1)</text>
</g>
<!-- sequence: insert_shaft1_into_gearbase_hole1_action&#45;&gt;action: insert(left_hand, clampgripper, shaft1, gearbase_hole1) -->
<g id="edge26" class="edge">
<title>sequence: insert_shaft1_into_gearbase_hole1_action&#45;&gt;action: insert(left_hand, clampgripper, shaft1, gearbase_hole1)</title>
<path fill="none" stroke="black" d="M4804.35,-75.21C4927.33,-63.5 5103.72,-46.7 5231.61,-34.52"/>
<polygon fill="black" stroke="black" points="5232.27,-37.97 5241.9,-33.54 5231.61,-31.01 5232.27,-37.97"/>
</g>
</g>
</svg>
