<?xml version="1.0" encoding="UTF-8" standalone="no"?>
<!DOCTYPE svg PUBLIC "-//W3C//DTD SVG 1.1//EN"
 "http://www.w3.org/Graphics/SVG/1.1/DTD/svg11.dtd">
<!-- Generated by graphviz version 2.43.0 (0)
 -->
<!-- Title: pastafarianism Pages: 1 -->
<svg width="4221pt" height="332pt"
 viewBox="0.00 0.00 4220.71 332.00" xmlns="http://www.w3.org/2000/svg" xmlns:xlink="http://www.w3.org/1999/xlink">
<g id="graph0" class="graph" transform="scale(1 1) rotate(0) translate(4 328)">
<title>pastafarianism</title>
<polygon fill="white" stroke="transparent" points="-4,4 -4,-328 4216.71,-328 4216.71,4 -4,4"/>
<!-- selector -->
<g id="node1" class="node">
<title>selector</title>
<polygon fill="cyan" stroke="black" points="1182.89,-298.54 1182.89,-313.46 1091.09,-324 961.27,-324 869.47,-313.46 869.47,-298.54 961.27,-288 1091.09,-288 1182.89,-298.54"/>
<text text-anchor="middle" x="1026.18" y="-303.8" font-family="Times,serif" font-size="9.00">selector: insert_gear1_shaft1_with_parallelgripper</text>
</g>
<!-- target -->
<g id="node2" class="node">
<title>target</title>
<ellipse fill="gray" stroke="black" cx="1309.18" cy="-306" rx="108.58" ry="18"/>
<text text-anchor="middle" x="1309.18" y="-303.8" font-family="Times,serif" font-size="9.00">target: is_inserted_to(gear1, shaft1)*</text>
</g>
<!-- selector: insert_gear1_into_shaft1_corrected -->
<g id="node3" class="node">
<title>selector: insert_gear1_into_shaft1_corrected</title>
<ellipse fill="none" stroke="black" cx="1653.18" cy="-306" rx="217.16" ry="18"/>
<text text-anchor="middle" x="1653.18" y="-302.3" font-family="Times,serif" font-size="14.00">selector: insert_gear1_into_shaft1_corrected</text>
</g>
<!-- target: is_inserted_to(gear1, shaft1) -->
<g id="node4" class="node">
<title>target: is_inserted_to(gear1, shaft1)</title>
<ellipse fill="none" stroke="black" cx="1442.18" cy="-234" rx="178.97" ry="18"/>
<text text-anchor="middle" x="1442.18" y="-230.3" font-family="Times,serif" font-size="14.00">target: is_inserted_to(gear1, shaft1)</text>
</g>
<!-- selector: insert_gear1_into_shaft1_corrected&#45;&gt;target: is_inserted_to(gear1, shaft1) -->
<g id="edge1" class="edge">
<title>selector: insert_gear1_into_shaft1_corrected&#45;&gt;target: is_inserted_to(gear1, shaft1)</title>
<path fill="none" stroke="black" d="M1603.18,-288.41C1572.58,-278.26 1533.29,-265.23 1501.18,-254.57"/>
<polygon fill="black" stroke="black" points="1502.06,-251.18 1491.46,-251.35 1499.85,-257.82 1502.06,-251.18"/>
</g>
<!-- sequence: insert_gear1_into_shaft1_optimized -->
<g id="node6" class="node">
<title>sequence: insert_gear1_into_shaft1_optimized</title>
<ellipse fill="none" stroke="black" cx="1864.18" cy="-234" rx="224.76" ry="18"/>
<text text-anchor="middle" x="1864.18" y="-230.3" font-family="Times,serif" font-size="14.00">sequence: insert_gear1_into_shaft1_optimized</text>
</g>
<!-- selector: insert_gear1_into_shaft1_corrected&#45;&gt;sequence: insert_gear1_into_shaft1_optimized -->
<g id="edge2" class="edge">
<title>selector: insert_gear1_into_shaft1_corrected&#45;&gt;sequence: insert_gear1_into_shaft1_optimized</title>
<path fill="none" stroke="black" d="M1703.19,-288.41C1733.56,-278.34 1772.51,-265.41 1804.49,-254.8"/>
<polygon fill="black" stroke="black" points="1805.78,-258.06 1814.17,-251.59 1803.58,-251.42 1805.78,-258.06"/>
</g>
<!-- sequence -->
<g id="node5" class="node">
<title>sequence</title>
<polygon fill="orange" stroke="black" points="2145.68,-324 1888.68,-324 1888.68,-288 2145.68,-288 2145.68,-324"/>
<text text-anchor="middle" x="2017.18" y="-303.8" font-family="Times,serif" font-size="9.00">sequence: insert_gear1_shaft1_with_parallelgripper</text>
</g>
<!-- selector: change_tool(left_hand, clampgripper, parallelgripper) -->
<g id="node7" class="node">
<title>selector: change_tool(left_hand, clampgripper, parallelgripper)</title>
<ellipse fill="none" stroke="black" cx="878.18" cy="-162" rx="301.65" ry="18"/>
<text text-anchor="middle" x="878.18" y="-158.3" font-family="Times,serif" font-size="14.00">selector: change_tool(left_hand, clampgripper, parallelgripper)</text>
</g>
<!-- sequence: insert_gear1_into_shaft1_optimized&#45;&gt;selector: change_tool(left_hand, clampgripper, parallelgripper) -->
<g id="edge3" class="edge">
<title>sequence: insert_gear1_into_shaft1_optimized&#45;&gt;selector: change_tool(left_hand, clampgripper, parallelgripper)</title>
<path fill="none" stroke="black" d="M1704.01,-221.32C1679.29,-219.53 1654.05,-217.71 1630.18,-216 1442.27,-202.55 1227.93,-187.47 1076.28,-176.84"/>
<polygon fill="black" stroke="black" points="1076.15,-173.33 1065.93,-176.12 1075.66,-180.31 1076.15,-173.33"/>
</g>
<!-- selector: pick_up_gear1_with_parallelgripper -->
<g id="node15" class="node">
<title>selector: pick_up_gear1_with_parallelgripper</title>
<ellipse fill="none" stroke="black" cx="1864.18" cy="-162" rx="219.06" ry="18"/>
<text text-anchor="middle" x="1864.18" y="-158.3" font-family="Times,serif" font-size="14.00">selector: pick_up_gear1_with_parallelgripper</text>
</g>
<!-- sequence: insert_gear1_into_shaft1_optimized&#45;&gt;selector: pick_up_gear1_with_parallelgripper -->
<g id="edge9" class="edge">
<title>sequence: insert_gear1_into_shaft1_optimized&#45;&gt;selector: pick_up_gear1_with_parallelgripper</title>
<path fill="none" stroke="black" d="M1864.18,-215.7C1864.18,-207.98 1864.18,-198.71 1864.18,-190.11"/>
<polygon fill="black" stroke="black" points="1867.68,-190.1 1864.18,-180.1 1860.68,-190.1 1867.68,-190.1"/>
</g>
<!-- selector: insert_gear1_shaft1_with_parallelgripper -->
<g id="node21" class="node">
<title>selector: insert_gear1_shaft1_with_parallelgripper</title>
<ellipse fill="none" stroke="black" cx="2539.18" cy="-162" rx="245.06" ry="18"/>
<text text-anchor="middle" x="2539.18" y="-158.3" font-family="Times,serif" font-size="14.00">selector: insert_gear1_shaft1_with_parallelgripper</text>
</g>
<!-- sequence: insert_gear1_into_shaft1_optimized&#45;&gt;selector: insert_gear1_shaft1_with_parallelgripper -->
<g id="edge15" class="edge">
<title>sequence: insert_gear1_into_shaft1_optimized&#45;&gt;selector: insert_gear1_shaft1_with_parallelgripper</title>
<path fill="none" stroke="black" d="M1995.53,-219.38C2109.84,-207.52 2275.31,-190.36 2393.62,-178.09"/>
<polygon fill="black" stroke="black" points="2394.26,-181.55 2403.85,-177.03 2393.54,-174.58 2394.26,-181.55"/>
</g>
<!-- target: hold(left_hand, parallelgripper) -->
<g id="node8" class="node">
<title>target: hold(left_hand, parallelgripper)</title>
<ellipse fill="none" stroke="black" cx="362.18" cy="-90" rx="190.37" ry="18"/>
<text text-anchor="middle" x="362.18" y="-86.3" font-family="Times,serif" font-size="14.00">target: hold(left_hand, parallelgripper)</text>
</g>
<!-- selector: change_tool(left_hand, clampgripper, parallelgripper)&#45;&gt;target: hold(left_hand, parallelgripper) -->
<g id="edge4" class="edge">
<title>selector: change_tool(left_hand, clampgripper, parallelgripper)&#45;&gt;target: hold(left_hand, parallelgripper)</title>
<path fill="none" stroke="black" d="M762.7,-145.33C677.26,-133.74 561.42,-118.03 476.3,-106.48"/>
<polygon fill="black" stroke="black" points="476.72,-103.01 466.34,-105.13 475.78,-109.94 476.72,-103.01"/>
</g>
<!-- sequence: change_tool(left_hand, clampgripper, parallelgripper) -->
<g id="node9" class="node">
<title>sequence: change_tool(left_hand, clampgripper, parallelgripper)</title>
<ellipse fill="none" stroke="black" cx="878.18" cy="-90" rx="307.35" ry="18"/>
<text text-anchor="middle" x="878.18" y="-86.3" font-family="Times,serif" font-size="14.00">sequence: change_tool(left_hand, clampgripper, parallelgripper)</text>
</g>
<!-- selector: change_tool(left_hand, clampgripper, parallelgripper)&#45;&gt;sequence: change_tool(left_hand, clampgripper, parallelgripper) -->
<g id="edge5" class="edge">
<title>selector: change_tool(left_hand, clampgripper, parallelgripper)&#45;&gt;sequence: change_tool(left_hand, clampgripper, parallelgripper)</title>
<path fill="none" stroke="black" d="M878.18,-143.7C878.18,-135.98 878.18,-126.71 878.18,-118.11"/>
<polygon fill="black" stroke="black" points="881.68,-118.1 878.18,-108.1 874.68,-118.1 881.68,-118.1"/>
</g>
<!-- precondition: hold(left_hand, clampgripper) -->
<g id="node11" class="node">
<title>precondition: hold(left_hand, clampgripper)</title>
<ellipse fill="none" stroke="black" cx="213.18" cy="-18" rx="213.36" ry="18"/>
<text text-anchor="middle" x="213.18" y="-14.3" font-family="Times,serif" font-size="14.00">precondition: hold(left_hand, clampgripper)</text>
</g>
<!-- sequence: change_tool(left_hand, clampgripper, parallelgripper)&#45;&gt;precondition: hold(left_hand, clampgripper) -->
<g id="edge6" class="edge">
<title>sequence: change_tool(left_hand, clampgripper, parallelgripper)&#45;&gt;precondition: hold(left_hand, clampgripper)</title>
<path fill="none" stroke="black" d="M735.93,-74.03C622.13,-62.05 463.53,-45.35 350.94,-33.5"/>
<polygon fill="black" stroke="black" points="351.18,-30.01 340.87,-32.44 350.45,-36.97 351.18,-30.01"/>
</g>
<!-- precondition: is_empty(clampgripper) -->
<g id="node12" class="node">
<title>precondition: is_empty(clampgripper)</title>
<ellipse fill="none" stroke="black" cx="630.18" cy="-18" rx="185.77" ry="18"/>
<text text-anchor="middle" x="630.18" y="-14.3" font-family="Times,serif" font-size="14.00">precondition: is_empty(clampgripper)</text>
</g>
<!-- sequence: change_tool(left_hand, clampgripper, parallelgripper)&#45;&gt;precondition: is_empty(clampgripper) -->
<g id="edge7" class="edge">
<title>sequence: change_tool(left_hand, clampgripper, parallelgripper)&#45;&gt;precondition: is_empty(clampgripper)</title>
<path fill="none" stroke="black" d="M819.09,-72.32C782.53,-62 735.49,-48.72 697.49,-38"/>
<polygon fill="black" stroke="black" points="698.11,-34.54 687.53,-35.19 696.21,-41.27 698.11,-34.54"/>
</g>
<!-- action: change_tool(left_hand, clampgripper, parallelgripper) -->
<g id="node14" class="node">
<title>action: change_tool(left_hand, clampgripper, parallelgripper)</title>
<ellipse fill="none" stroke="black" cx="1126.18" cy="-18" rx="292.45" ry="18"/>
<text text-anchor="middle" x="1126.18" y="-14.3" font-family="Times,serif" font-size="14.00">action: change_tool(left_hand, clampgripper, parallelgripper)</text>
</g>
<!-- sequence: change_tool(left_hand, clampgripper, parallelgripper)&#45;&gt;action: change_tool(left_hand, clampgripper, parallelgripper) -->
<g id="edge8" class="edge">
<title>sequence: change_tool(left_hand, clampgripper, parallelgripper)&#45;&gt;action: change_tool(left_hand, clampgripper, parallelgripper)</title>
<path fill="none" stroke="black" d="M937.27,-72.32C973.3,-62.15 1019.52,-49.1 1057.23,-38.46"/>
<polygon fill="black" stroke="black" points="1058.44,-41.76 1067.12,-35.67 1056.54,-35.02 1058.44,-41.76"/>
</g>
<!-- precondition -->
<g id="node10" class="node">
<title>precondition</title>
<ellipse fill="gray" stroke="black" cx="2286.18" cy="-306" rx="122.3" ry="18"/>
<text text-anchor="middle" x="2286.18" y="-303.8" font-family="Times,serif" font-size="9.00">precondition: hold(parallelgripper, gear1)</text>
</g>
<!-- action -->
<g id="node13" class="node">
<title>action</title>
<ellipse fill="gray" stroke="black" cx="2583.18" cy="-306" rx="156.42" ry="18"/>
<text text-anchor="middle" x="2583.18" y="-303.8" font-family="Times,serif" font-size="9.00">action: insert(left_hand, parallelgripper, gear1, shaft1)</text>
</g>
<!-- target: hold(parallelgripper, gear1) -->
<g id="node16" class="node">
<title>target: hold(parallelgripper, gear1)</title>
<ellipse fill="none" stroke="black" cx="1671.18" cy="-90" rx="173.57" ry="18"/>
<text text-anchor="middle" x="1671.18" y="-86.3" font-family="Times,serif" font-size="14.00">target: hold(parallelgripper, gear1)</text>
</g>
<!-- selector: pick_up_gear1_with_parallelgripper&#45;&gt;target: hold(parallelgripper, gear1) -->
<g id="edge10" class="edge">
<title>selector: pick_up_gear1_with_parallelgripper&#45;&gt;target: hold(parallelgripper, gear1)</title>
<path fill="none" stroke="black" d="M1817.95,-144.23C1790.3,-134.2 1755.01,-121.4 1725.96,-110.87"/>
<polygon fill="black" stroke="black" points="1726.96,-107.51 1716.37,-107.39 1724.57,-114.09 1726.96,-107.51"/>
</g>
<!-- sequence: pick_up_gear1_with_parallelgripper -->
<g id="node17" class="node">
<title>sequence: pick_up_gear1_with_parallelgripper</title>
<ellipse fill="none" stroke="black" cx="2088.18" cy="-90" rx="225.56" ry="18"/>
<text text-anchor="middle" x="2088.18" y="-86.3" font-family="Times,serif" font-size="14.00">sequence: pick_up_gear1_with_parallelgripper</text>
</g>
<!-- selector: pick_up_gear1_with_parallelgripper&#45;&gt;sequence: pick_up_gear1_with_parallelgripper -->
<g id="edge11" class="edge">
<title>selector: pick_up_gear1_with_parallelgripper&#45;&gt;sequence: pick_up_gear1_with_parallelgripper</title>
<path fill="none" stroke="black" d="M1916.98,-144.5C1949.47,-134.35 1991.29,-121.28 2025.47,-110.6"/>
<polygon fill="black" stroke="black" points="2026.85,-113.83 2035.35,-107.51 2024.76,-107.15 2026.85,-113.83"/>
</g>
<!-- precondition: hold(left_hand, parallelgripper) -->
<g id="node18" class="node">
<title>precondition: hold(left_hand, parallelgripper)</title>
<ellipse fill="none" stroke="black" cx="1657.18" cy="-18" rx="220.16" ry="18"/>
<text text-anchor="middle" x="1657.18" y="-14.3" font-family="Times,serif" font-size="14.00">precondition: hold(left_hand, parallelgripper)</text>
</g>
<!-- sequence: pick_up_gear1_with_parallelgripper&#45;&gt;precondition: hold(left_hand, parallelgripper) -->
<g id="edge12" class="edge">
<title>sequence: pick_up_gear1_with_parallelgripper&#45;&gt;precondition: hold(left_hand, parallelgripper)</title>
<path fill="none" stroke="black" d="M1993.6,-73.64C1925.1,-62.51 1832.52,-47.48 1761.81,-35.99"/>
<polygon fill="black" stroke="black" points="1761.98,-32.47 1751.55,-34.33 1760.85,-39.38 1761.98,-32.47"/>
</g>
<!-- precondition: is_empty(parallelgripper) -->
<g id="node19" class="node">
<title>precondition: is_empty(parallelgripper)</title>
<ellipse fill="none" stroke="black" cx="2088.18" cy="-18" rx="193.07" ry="18"/>
<text text-anchor="middle" x="2088.18" y="-14.3" font-family="Times,serif" font-size="14.00">precondition: is_empty(parallelgripper)</text>
</g>
<!-- sequence: pick_up_gear1_with_parallelgripper&#45;&gt;precondition: is_empty(parallelgripper) -->
<g id="edge13" class="edge">
<title>sequence: pick_up_gear1_with_parallelgripper&#45;&gt;precondition: is_empty(parallelgripper)</title>
<path fill="none" stroke="black" d="M2088.18,-71.7C2088.18,-63.98 2088.18,-54.71 2088.18,-46.11"/>
<polygon fill="black" stroke="black" points="2091.68,-46.1 2088.18,-36.1 2084.68,-46.1 2091.68,-46.1"/>
</g>
<!-- action: pick_up(left_hand, parallelgripper, gear1) -->
<g id="node20" class="node">
<title>action: pick_up(left_hand, parallelgripper, gear1)</title>
<ellipse fill="none" stroke="black" cx="2536.18" cy="-18" rx="237.46" ry="18"/>
<text text-anchor="middle" x="2536.18" y="-14.3" font-family="Times,serif" font-size="14.00">action: pick_up(left_hand, parallelgripper, gear1)</text>
</g>
<!-- sequence: pick_up_gear1_with_parallelgripper&#45;&gt;action: pick_up(left_hand, parallelgripper, gear1) -->
<g id="edge14" class="edge">
<title>sequence: pick_up_gear1_with_parallelgripper&#45;&gt;action: pick_up(left_hand, parallelgripper, gear1)</title>
<path fill="none" stroke="black" d="M2185.67,-73.77C2256.96,-62.63 2353.69,-47.51 2427.48,-35.98"/>
<polygon fill="black" stroke="black" points="2428.39,-39.38 2437.73,-34.38 2427.31,-32.47 2428.39,-39.38"/>
</g>
<!-- target: is_inserted_to(gear1, shaft1)* -->
<g id="node22" class="node">
<title>target: is_inserted_to(gear1, shaft1)*</title>
<ellipse fill="none" stroke="black" cx="2539.18" cy="-90" rx="182.77" ry="18"/>
<text text-anchor="middle" x="2539.18" y="-86.3" font-family="Times,serif" font-size="14.00">target: is_inserted_to(gear1, shaft1)*</text>
</g>
<!-- selector: insert_gear1_shaft1_with_parallelgripper&#45;&gt;target: is_inserted_to(gear1, shaft1)* -->
<g id="edge16" class="edge">
<title>selector: insert_gear1_shaft1_with_parallelgripper&#45;&gt;target: is_inserted_to(gear1, shaft1)*</title>
<path fill="none" stroke="black" d="M2539.18,-143.7C2539.18,-135.98 2539.18,-126.71 2539.18,-118.11"/>
<polygon fill="black" stroke="black" points="2542.68,-118.1 2539.18,-108.1 2535.68,-118.1 2542.68,-118.1"/>
</g>
<!-- sequence: insert_gear1_shaft1_with_parallelgripper -->
<g id="node23" class="node">
<title>sequence: insert_gear1_shaft1_with_parallelgripper</title>
<ellipse fill="none" stroke="black" cx="3239.18" cy="-90" rx="250.76" ry="18"/>
<text text-anchor="middle" x="3239.18" y="-86.3" font-family="Times,serif" font-size="14.00">sequence: insert_gear1_shaft1_with_parallelgripper</text>
</g>
<!-- selector: insert_gear1_shaft1_with_parallelgripper&#45;&gt;sequence: insert_gear1_shaft1_with_parallelgripper -->
<g id="edge17" class="edge">
<title>selector: insert_gear1_shaft1_with_parallelgripper&#45;&gt;sequence: insert_gear1_shaft1_with_parallelgripper</title>
<path fill="none" stroke="black" d="M2677.9,-147.13C2796.72,-135.25 2967.46,-118.17 3089.38,-105.98"/>
<polygon fill="black" stroke="black" points="3089.94,-109.44 3099.54,-104.96 3089.24,-102.48 3089.94,-109.44"/>
</g>
<!-- precondition: hold(left_hand, parallelgripper)* -->
<g id="node24" class="node">
<title>precondition: hold(left_hand, parallelgripper)*</title>
<ellipse fill="none" stroke="black" cx="3016.18" cy="-18" rx="224.76" ry="18"/>
<text text-anchor="middle" x="3016.18" y="-14.3" font-family="Times,serif" font-size="14.00">precondition: hold(left_hand, parallelgripper)*</text>
</g>
<!-- sequence: insert_gear1_shaft1_with_parallelgripper&#45;&gt;precondition: hold(left_hand, parallelgripper)* -->
<g id="edge18" class="edge">
<title>sequence: insert_gear1_shaft1_with_parallelgripper&#45;&gt;precondition: hold(left_hand, parallelgripper)*</title>
<path fill="none" stroke="black" d="M3186.05,-72.32C3153.81,-62.2 3112.49,-49.23 3078.68,-38.62"/>
<polygon fill="black" stroke="black" points="3079.49,-35.21 3068.9,-35.55 3077.4,-41.88 3079.49,-35.21"/>
</g>
<!-- precondition: hold(parallelgripper, gear1) -->
<g id="node25" class="node">
<title>precondition: hold(parallelgripper, gear1)</title>
<ellipse fill="none" stroke="black" cx="3462.18" cy="-18" rx="203.36" ry="18"/>
<text text-anchor="middle" x="3462.18" y="-14.3" font-family="Times,serif" font-size="14.00">precondition: hold(parallelgripper, gear1)</text>
</g>
<!-- sequence: insert_gear1_shaft1_with_parallelgripper&#45;&gt;precondition: hold(parallelgripper, gear1) -->
<g id="edge19" class="edge">
<title>sequence: insert_gear1_shaft1_with_parallelgripper&#45;&gt;precondition: hold(parallelgripper, gear1)</title>
<path fill="none" stroke="black" d="M3292.31,-72.32C3324.67,-62.16 3366.17,-49.14 3400.05,-38.5"/>
<polygon fill="black" stroke="black" points="3401.35,-41.76 3409.84,-35.43 3399.25,-35.08 3401.35,-41.76"/>
</g>
<!-- action: insert(left_hand, parallelgripper, gear1, shaft1) -->
<g id="node26" class="node">
<title>action: insert(left_hand, parallelgripper, gear1, shaft1)</title>
<ellipse fill="none" stroke="black" cx="3948.18" cy="-18" rx="264.55" ry="18"/>
<text text-anchor="middle" x="3948.18" y="-14.3" font-family="Times,serif" font-size="14.00">action: insert(left_hand, parallelgripper, gear1, shaft1)</text>
</g>
<!-- sequence: insert_gear1_shaft1_with_parallelgripper&#45;&gt;action: insert(left_hand, parallelgripper, gear1, shaft1) -->
<g id="edge20" class="edge">
<title>sequence: insert_gear1_shaft1_with_parallelgripper&#45;&gt;action: insert(left_hand, parallelgripper, gear1, shaft1)</title>
<path fill="none" stroke="black" d="M3380.1,-75.09C3499.81,-63.27 3671.31,-46.34 3794.52,-34.17"/>
<polygon fill="black" stroke="black" points="3795.18,-37.62 3804.79,-33.16 3794.5,-30.66 3795.18,-37.62"/>
</g>
</g>
</svg>
