<?xml version="1.0" encoding="UTF-8" standalone="no"?>
<!DOCTYPE svg PUBLIC "-//W3C//DTD SVG 1.1//EN"
 "http://www.w3.org/Graphics/SVG/1.1/DTD/svg11.dtd">
<!-- Generated by graphviz version 2.43.0 (0)
 -->
<!-- Title: pastafarianism Pages: 1 -->
<svg width="5672pt" height="332pt"
 viewBox="0.00 0.00 5671.91 332.00" xmlns="http://www.w3.org/2000/svg" xmlns:xlink="http://www.w3.org/1999/xlink">
<g id="graph0" class="graph" transform="scale(1 1) rotate(0) translate(4 328)">
<title>pastafarianism</title>
<polygon fill="white" stroke="transparent" points="-4,4 -4,-328 5667.91,-328 5667.91,4 -4,4"/>
<!-- selector -->
<g id="node1" class="node">
<title>selector</title>
<polygon fill="cyan" stroke="black" points="1790.41,-298.54 1790.41,-313.46 1735.21,-324 1657.15,-324 1601.96,-313.46 1601.96,-298.54 1657.15,-288 1735.21,-288 1790.41,-298.54"/>
<text text-anchor="middle" x="1696.18" y="-303.8" font-family="Times,serif" font-size="9.00">selector: insert_gear1_shaft1</text>
</g>
<!-- target -->
<g id="node2" class="node">
<title>target</title>
<ellipse fill="gray" stroke="black" cx="1917.18" cy="-306" rx="108.58" ry="18"/>
<text text-anchor="middle" x="1917.18" y="-303.8" font-family="Times,serif" font-size="9.00">target: is_inserted_to(gear1, shaft1)*</text>
</g>
<!-- selector: insert_gear1_into_shaft1 -->
<g id="node3" class="node">
<title>selector: insert_gear1_into_shaft1</title>
<ellipse fill="none" stroke="black" cx="2212.18" cy="-306" rx="168.17" ry="18"/>
<text text-anchor="middle" x="2212.18" y="-302.3" font-family="Times,serif" font-size="14.00">selector: insert_gear1_into_shaft1</text>
</g>
<!-- target: is_inserted_to(gear1, shaft1) -->
<g id="node4" class="node">
<title>target: is_inserted_to(gear1, shaft1)</title>
<ellipse fill="none" stroke="black" cx="2026.18" cy="-234" rx="178.97" ry="18"/>
<text text-anchor="middle" x="2026.18" y="-230.3" font-family="Times,serif" font-size="14.00">target: is_inserted_to(gear1, shaft1)</text>
</g>
<!-- selector: insert_gear1_into_shaft1&#45;&gt;target: is_inserted_to(gear1, shaft1) -->
<g id="edge1" class="edge">
<title>selector: insert_gear1_into_shaft1&#45;&gt;target: is_inserted_to(gear1, shaft1)</title>
<path fill="none" stroke="black" d="M2168.57,-288.59C2142.06,-278.61 2108.01,-265.8 2079.85,-255.2"/>
<polygon fill="black" stroke="black" points="2080.75,-251.8 2070.16,-251.55 2078.29,-258.35 2080.75,-251.8"/>
</g>
<!-- sequence: insert_gear1_into_shaft1 -->
<g id="node6" class="node">
<title>sequence: insert_gear1_into_shaft1</title>
<ellipse fill="none" stroke="black" cx="2398.18" cy="-234" rx="174.67" ry="18"/>
<text text-anchor="middle" x="2398.18" y="-230.3" font-family="Times,serif" font-size="14.00">sequence: insert_gear1_into_shaft1</text>
</g>
<!-- selector: insert_gear1_into_shaft1&#45;&gt;sequence: insert_gear1_into_shaft1 -->
<g id="edge2" class="edge">
<title>selector: insert_gear1_into_shaft1&#45;&gt;sequence: insert_gear1_into_shaft1</title>
<path fill="none" stroke="black" d="M2255.79,-288.59C2282.4,-278.58 2316.6,-265.7 2344.82,-255.08"/>
<polygon fill="black" stroke="black" points="2346.4,-258.23 2354.52,-251.43 2343.93,-251.68 2346.4,-258.23"/>
</g>
<!-- sequence -->
<g id="node5" class="node">
<title>sequence</title>
<polygon fill="orange" stroke="black" points="2556.18,-324 2398.18,-324 2398.18,-288 2556.18,-288 2556.18,-324"/>
<text text-anchor="middle" x="2477.18" y="-303.8" font-family="Times,serif" font-size="9.00">sequence: insert_gear1_shaft1</text>
</g>
<!-- selector: change_tool(left_hand, clampgripper, parallelgripper) -->
<g id="node7" class="node">
<title>selector: change_tool(left_hand, clampgripper, parallelgripper)</title>
<ellipse fill="none" stroke="black" cx="878.18" cy="-162" rx="301.65" ry="18"/>
<text text-anchor="middle" x="878.18" y="-158.3" font-family="Times,serif" font-size="14.00">selector: change_tool(left_hand, clampgripper, parallelgripper)</text>
</g>
<!-- sequence: insert_gear1_into_shaft1&#45;&gt;selector: change_tool(left_hand, clampgripper, parallelgripper) -->
<g id="edge3" class="edge">
<title>sequence: insert_gear1_into_shaft1&#45;&gt;selector: change_tool(left_hand, clampgripper, parallelgripper)</title>
<path fill="none" stroke="black" d="M2277.5,-220.94C2256.41,-219.09 2234.67,-217.35 2214.18,-216 1851.43,-192.06 1432.51,-177.58 1161.91,-169.94"/>
<polygon fill="black" stroke="black" points="1161.64,-166.43 1151.55,-169.65 1161.44,-173.43 1161.64,-166.43"/>
</g>
<!-- selector: pick_up_gear1_with_parallelgripper -->
<g id="node15" class="node">
<title>selector: pick_up_gear1_with_parallelgripper</title>
<ellipse fill="none" stroke="black" cx="2129.18" cy="-162" rx="219.06" ry="18"/>
<text text-anchor="middle" x="2129.18" y="-158.3" font-family="Times,serif" font-size="14.00">selector: pick_up_gear1_with_parallelgripper</text>
</g>
<!-- sequence: insert_gear1_into_shaft1&#45;&gt;selector: pick_up_gear1_with_parallelgripper -->
<g id="edge9" class="edge">
<title>sequence: insert_gear1_into_shaft1&#45;&gt;selector: pick_up_gear1_with_parallelgripper</title>
<path fill="none" stroke="black" d="M2337.14,-217.12C2296.87,-206.64 2243.94,-192.86 2201.55,-181.83"/>
<polygon fill="black" stroke="black" points="2202.41,-178.44 2191.85,-179.31 2200.64,-185.21 2202.41,-178.44"/>
</g>
<!-- selector: change_tool(left_hand, parallelgripper, clampgripper) -->
<g id="node21" class="node">
<title>selector: change_tool(left_hand, parallelgripper, clampgripper)</title>
<ellipse fill="none" stroke="black" cx="2749.18" cy="-162" rx="301.65" ry="18"/>
<text text-anchor="middle" x="2749.18" y="-158.3" font-family="Times,serif" font-size="14.00">selector: change_tool(left_hand, parallelgripper, clampgripper)</text>
</g>
<!-- sequence: insert_gear1_into_shaft1&#45;&gt;selector: change_tool(left_hand, parallelgripper, clampgripper) -->
<g id="edge15" class="edge">
<title>sequence: insert_gear1_into_shaft1&#45;&gt;selector: change_tool(left_hand, parallelgripper, clampgripper)</title>
<path fill="none" stroke="black" d="M2474.78,-217.72C2528.44,-207.02 2600.42,-192.67 2657.19,-181.35"/>
<polygon fill="black" stroke="black" points="2658.12,-184.73 2667.25,-179.34 2656.75,-177.86 2658.12,-184.73"/>
</g>
<!-- selector: insert_gear1_shaft1 -->
<g id="node27" class="node">
<title>selector: insert_gear1_shaft1</title>
<ellipse fill="none" stroke="black" cx="4101.18" cy="-162" rx="145.67" ry="18"/>
<text text-anchor="middle" x="4101.18" y="-158.3" font-family="Times,serif" font-size="14.00">selector: insert_gear1_shaft1</text>
</g>
<!-- sequence: insert_gear1_into_shaft1&#45;&gt;selector: insert_gear1_shaft1 -->
<g id="edge21" class="edge">
<title>sequence: insert_gear1_into_shaft1&#45;&gt;selector: insert_gear1_shaft1</title>
<path fill="none" stroke="black" d="M2557.25,-226.46C2886.36,-212.93 3637.77,-182.05 3955.27,-169"/>
<polygon fill="black" stroke="black" points="3955.61,-172.49 3965.46,-168.58 3955.32,-165.49 3955.61,-172.49"/>
</g>
<!-- target: hold(left_hand, parallelgripper) -->
<g id="node8" class="node">
<title>target: hold(left_hand, parallelgripper)</title>
<ellipse fill="none" stroke="black" cx="362.18" cy="-90" rx="190.37" ry="18"/>
<text text-anchor="middle" x="362.18" y="-86.3" font-family="Times,serif" font-size="14.00">target: hold(left_hand, parallelgripper)</text>
</g>
<!-- selector: change_tool(left_hand, clampgripper, parallelgripper)&#45;&gt;target: hold(left_hand, parallelgripper) -->
<g id="edge4" class="edge">
<title>selector: change_tool(left_hand, clampgripper, parallelgripper)&#45;&gt;target: hold(left_hand, parallelgripper)</title>
<path fill="none" stroke="black" d="M762.7,-145.33C677.26,-133.74 561.42,-118.03 476.3,-106.48"/>
<polygon fill="black" stroke="black" points="476.72,-103.01 466.34,-105.13 475.78,-109.94 476.72,-103.01"/>
</g>
<!-- sequence: change_tool(left_hand, clampgripper, parallelgripper) -->
<g id="node9" class="node">
<title>sequence: change_tool(left_hand, clampgripper, parallelgripper)</title>
<ellipse fill="none" stroke="black" cx="878.18" cy="-90" rx="307.35" ry="18"/>
<text text-anchor="middle" x="878.18" y="-86.3" font-family="Times,serif" font-size="14.00">sequence: change_tool(left_hand, clampgripper, parallelgripper)</text>
</g>
<!-- selector: change_tool(left_hand, clampgripper, parallelgripper)&#45;&gt;sequence: change_tool(left_hand, clampgripper, parallelgripper) -->
<g id="edge5" class="edge">
<title>selector: change_tool(left_hand, clampgripper, parallelgripper)&#45;&gt;sequence: change_tool(left_hand, clampgripper, parallelgripper)</title>
<path fill="none" stroke="black" d="M878.18,-143.7C878.18,-135.98 878.18,-126.71 878.18,-118.11"/>
<polygon fill="black" stroke="black" points="881.68,-118.1 878.18,-108.1 874.68,-118.1 881.68,-118.1"/>
</g>
<!-- precondition: hold(left_hand, clampgripper) -->
<g id="node11" class="node">
<title>precondition: hold(left_hand, clampgripper)</title>
<ellipse fill="none" stroke="black" cx="213.18" cy="-18" rx="213.36" ry="18"/>
<text text-anchor="middle" x="213.18" y="-14.3" font-family="Times,serif" font-size="14.00">precondition: hold(left_hand, clampgripper)</text>
</g>
<!-- sequence: change_tool(left_hand, clampgripper, parallelgripper)&#45;&gt;precondition: hold(left_hand, clampgripper) -->
<g id="edge6" class="edge">
<title>sequence: change_tool(left_hand, clampgripper, parallelgripper)&#45;&gt;precondition: hold(left_hand, clampgripper)</title>
<path fill="none" stroke="black" d="M735.93,-74.03C622.13,-62.05 463.53,-45.35 350.94,-33.5"/>
<polygon fill="black" stroke="black" points="351.18,-30.01 340.87,-32.44 350.45,-36.97 351.18,-30.01"/>
</g>
<!-- precondition: is_empty(clampgripper) -->
<g id="node12" class="node">
<title>precondition: is_empty(clampgripper)</title>
<ellipse fill="none" stroke="black" cx="630.18" cy="-18" rx="185.77" ry="18"/>
<text text-anchor="middle" x="630.18" y="-14.3" font-family="Times,serif" font-size="14.00">precondition: is_empty(clampgripper)</text>
</g>
<!-- sequence: change_tool(left_hand, clampgripper, parallelgripper)&#45;&gt;precondition: is_empty(clampgripper) -->
<g id="edge7" class="edge">
<title>sequence: change_tool(left_hand, clampgripper, parallelgripper)&#45;&gt;precondition: is_empty(clampgripper)</title>
<path fill="none" stroke="black" d="M819.09,-72.32C782.53,-62 735.49,-48.72 697.49,-38"/>
<polygon fill="black" stroke="black" points="698.11,-34.54 687.53,-35.19 696.21,-41.27 698.11,-34.54"/>
</g>
<!-- action: change_tool(left_hand, clampgripper, parallelgripper) -->
<g id="node14" class="node">
<title>action: change_tool(left_hand, clampgripper, parallelgripper)</title>
<ellipse fill="none" stroke="black" cx="1126.18" cy="-18" rx="292.45" ry="18"/>
<text text-anchor="middle" x="1126.18" y="-14.3" font-family="Times,serif" font-size="14.00">action: change_tool(left_hand, clampgripper, parallelgripper)</text>
</g>
<!-- sequence: change_tool(left_hand, clampgripper, parallelgripper)&#45;&gt;action: change_tool(left_hand, clampgripper, parallelgripper) -->
<g id="edge8" class="edge">
<title>sequence: change_tool(left_hand, clampgripper, parallelgripper)&#45;&gt;action: change_tool(left_hand, clampgripper, parallelgripper)</title>
<path fill="none" stroke="black" d="M937.27,-72.32C973.3,-62.15 1019.52,-49.1 1057.23,-38.46"/>
<polygon fill="black" stroke="black" points="1058.44,-41.76 1067.12,-35.67 1056.54,-35.02 1058.44,-41.76"/>
</g>
<!-- precondition -->
<g id="node10" class="node">
<title>precondition</title>
<ellipse fill="gray" stroke="black" cx="2692.18" cy="-306" rx="117.56" ry="18"/>
<text text-anchor="middle" x="2692.18" y="-303.8" font-family="Times,serif" font-size="9.00">precondition: hold(clampgripper, gear1)</text>
</g>
<!-- action -->
<g id="node13" class="node">
<title>action</title>
<ellipse fill="gray" stroke="black" cx="2980.18" cy="-306" rx="151.69" ry="18"/>
<text text-anchor="middle" x="2980.18" y="-303.8" font-family="Times,serif" font-size="9.00">action: insert(left_hand, clampgripper, gear1, shaft1)</text>
</g>
<!-- target: hold(parallelgripper, gear1) -->
<g id="node16" class="node">
<title>target: hold(parallelgripper, gear1)</title>
<ellipse fill="none" stroke="black" cx="1712.18" cy="-90" rx="173.57" ry="18"/>
<text text-anchor="middle" x="1712.18" y="-86.3" font-family="Times,serif" font-size="14.00">target: hold(parallelgripper, gear1)</text>
</g>
<!-- selector: pick_up_gear1_with_parallelgripper&#45;&gt;target: hold(parallelgripper, gear1) -->
<g id="edge10" class="edge">
<title>selector: pick_up_gear1_with_parallelgripper&#45;&gt;target: hold(parallelgripper, gear1)</title>
<path fill="none" stroke="black" d="M2037.67,-145.64C1970.03,-134.28 1878.1,-118.85 1809.2,-107.29"/>
<polygon fill="black" stroke="black" points="1809.64,-103.81 1799.2,-105.61 1808.48,-110.71 1809.64,-103.81"/>
</g>
<!-- sequence: pick_up_gear1_with_parallelgripper -->
<g id="node17" class="node">
<title>sequence: pick_up_gear1_with_parallelgripper</title>
<ellipse fill="none" stroke="black" cx="2129.18" cy="-90" rx="225.56" ry="18"/>
<text text-anchor="middle" x="2129.18" y="-86.3" font-family="Times,serif" font-size="14.00">sequence: pick_up_gear1_with_parallelgripper</text>
</g>
<!-- selector: pick_up_gear1_with_parallelgripper&#45;&gt;sequence: pick_up_gear1_with_parallelgripper -->
<g id="edge11" class="edge">
<title>selector: pick_up_gear1_with_parallelgripper&#45;&gt;sequence: pick_up_gear1_with_parallelgripper</title>
<path fill="none" stroke="black" d="M2129.18,-143.7C2129.18,-135.98 2129.18,-126.71 2129.18,-118.11"/>
<polygon fill="black" stroke="black" points="2132.68,-118.1 2129.18,-108.1 2125.68,-118.1 2132.68,-118.1"/>
</g>
<!-- precondition: hold(left_hand, parallelgripper) -->
<g id="node18" class="node">
<title>precondition: hold(left_hand, parallelgripper)</title>
<ellipse fill="none" stroke="black" cx="1657.18" cy="-18" rx="220.16" ry="18"/>
<text text-anchor="middle" x="1657.18" y="-14.3" font-family="Times,serif" font-size="14.00">precondition: hold(left_hand, parallelgripper)</text>
</g>
<!-- sequence: pick_up_gear1_with_parallelgripper&#45;&gt;precondition: hold(left_hand, parallelgripper) -->
<g id="edge12" class="edge">
<title>sequence: pick_up_gear1_with_parallelgripper&#45;&gt;precondition: hold(left_hand, parallelgripper)</title>
<path fill="none" stroke="black" d="M2027.35,-73.9C1951.07,-62.58 1846.79,-47.12 1768.35,-35.49"/>
<polygon fill="black" stroke="black" points="1768.83,-32.02 1758.43,-34.02 1767.81,-38.94 1768.83,-32.02"/>
</g>
<!-- precondition: is_empty(parallelgripper) -->
<g id="node19" class="node">
<title>precondition: is_empty(parallelgripper)</title>
<ellipse fill="none" stroke="black" cx="2088.18" cy="-18" rx="193.07" ry="18"/>
<text text-anchor="middle" x="2088.18" y="-14.3" font-family="Times,serif" font-size="14.00">precondition: is_empty(parallelgripper)</text>
</g>
<!-- sequence: pick_up_gear1_with_parallelgripper&#45;&gt;precondition: is_empty(parallelgripper) -->
<g id="edge13" class="edge">
<title>sequence: pick_up_gear1_with_parallelgripper&#45;&gt;precondition: is_empty(parallelgripper)</title>
<path fill="none" stroke="black" d="M2119.05,-71.7C2114.33,-63.64 2108.62,-53.89 2103.4,-44.98"/>
<polygon fill="black" stroke="black" points="2106.27,-42.96 2098.2,-36.1 2100.23,-46.5 2106.27,-42.96"/>
</g>
<!-- action: pick_up(left_hand, parallelgripper, gear1) -->
<g id="node20" class="node">
<title>action: pick_up(left_hand, parallelgripper, gear1)</title>
<ellipse fill="none" stroke="black" cx="2536.18" cy="-18" rx="237.46" ry="18"/>
<text text-anchor="middle" x="2536.18" y="-14.3" font-family="Times,serif" font-size="14.00">action: pick_up(left_hand, parallelgripper, gear1)</text>
</g>
<!-- sequence: pick_up_gear1_with_parallelgripper&#45;&gt;action: pick_up(left_hand, parallelgripper, gear1) -->
<g id="edge14" class="edge">
<title>sequence: pick_up_gear1_with_parallelgripper&#45;&gt;action: pick_up(left_hand, parallelgripper, gear1)</title>
<path fill="none" stroke="black" d="M2219.51,-73.46C2283.33,-62.49 2368.92,-47.77 2435.03,-36.4"/>
<polygon fill="black" stroke="black" points="2435.79,-39.82 2445.05,-34.67 2434.6,-32.92 2435.79,-39.82"/>
</g>
<!-- target: hold(left_hand, clampgripper) -->
<g id="node22" class="node">
<title>target: hold(left_hand, clampgripper)</title>
<ellipse fill="none" stroke="black" cx="2749.18" cy="-90" rx="183.07" ry="18"/>
<text text-anchor="middle" x="2749.18" y="-86.3" font-family="Times,serif" font-size="14.00">target: hold(left_hand, clampgripper)</text>
</g>
<!-- selector: change_tool(left_hand, parallelgripper, clampgripper)&#45;&gt;target: hold(left_hand, clampgripper) -->
<g id="edge16" class="edge">
<title>selector: change_tool(left_hand, parallelgripper, clampgripper)&#45;&gt;target: hold(left_hand, clampgripper)</title>
<path fill="none" stroke="black" d="M2749.18,-143.7C2749.18,-135.98 2749.18,-126.71 2749.18,-118.11"/>
<polygon fill="black" stroke="black" points="2752.68,-118.1 2749.18,-108.1 2745.68,-118.1 2752.68,-118.1"/>
</g>
<!-- sequence: change_tool(left_hand, parallelgripper, clampgripper) -->
<g id="node23" class="node">
<title>sequence: change_tool(left_hand, parallelgripper, clampgripper)</title>
<ellipse fill="none" stroke="black" cx="3421.18" cy="-90" rx="307.35" ry="18"/>
<text text-anchor="middle" x="3421.18" y="-86.3" font-family="Times,serif" font-size="14.00">sequence: change_tool(left_hand, parallelgripper, clampgripper)</text>
</g>
<!-- selector: change_tool(left_hand, parallelgripper, clampgripper)&#45;&gt;sequence: change_tool(left_hand, parallelgripper, clampgripper) -->
<g id="edge17" class="edge">
<title>selector: change_tool(left_hand, parallelgripper, clampgripper)&#45;&gt;sequence: change_tool(left_hand, parallelgripper, clampgripper)</title>
<path fill="none" stroke="black" d="M2892.11,-146.11C3002.46,-134.62 3154.87,-118.74 3267.78,-106.98"/>
<polygon fill="black" stroke="black" points="3268.31,-110.44 3277.89,-105.93 3267.58,-103.48 3268.31,-110.44"/>
</g>
<!-- precondition: hold(left_hand, parallelgripper)* -->
<g id="node24" class="node">
<title>precondition: hold(left_hand, parallelgripper)*</title>
<ellipse fill="none" stroke="black" cx="3016.18" cy="-18" rx="224.76" ry="18"/>
<text text-anchor="middle" x="3016.18" y="-14.3" font-family="Times,serif" font-size="14.00">precondition: hold(left_hand, parallelgripper)*</text>
</g>
<!-- sequence: change_tool(left_hand, parallelgripper, clampgripper)&#45;&gt;precondition: hold(left_hand, parallelgripper)* -->
<g id="edge18" class="edge">
<title>sequence: change_tool(left_hand, parallelgripper, clampgripper)&#45;&gt;precondition: hold(left_hand, parallelgripper)*</title>
<path fill="none" stroke="black" d="M3327.5,-72.81C3264.3,-61.88 3180.97,-47.48 3116.43,-36.33"/>
<polygon fill="black" stroke="black" points="3116.69,-32.82 3106.24,-34.57 3115.5,-39.72 3116.69,-32.82"/>
</g>
<!-- precondition: hold(parallelgripper, gear1) -->
<g id="node25" class="node">
<title>precondition: hold(parallelgripper, gear1)</title>
<ellipse fill="none" stroke="black" cx="3462.18" cy="-18" rx="203.36" ry="18"/>
<text text-anchor="middle" x="3462.18" y="-14.3" font-family="Times,serif" font-size="14.00">precondition: hold(parallelgripper, gear1)</text>
</g>
<!-- sequence: change_tool(left_hand, parallelgripper, clampgripper)&#45;&gt;precondition: hold(parallelgripper, gear1) -->
<g id="edge19" class="edge">
<title>sequence: change_tool(left_hand, parallelgripper, clampgripper)&#45;&gt;precondition: hold(parallelgripper, gear1)</title>
<path fill="none" stroke="black" d="M3431.32,-71.7C3436.03,-63.64 3441.74,-53.89 3446.96,-44.98"/>
<polygon fill="black" stroke="black" points="3450.13,-46.5 3452.16,-36.1 3444.09,-42.96 3450.13,-46.5"/>
</g>
<!-- action: change_tool(left_hand, parallelgripper, clampgripper) -->
<g id="node26" class="node">
<title>action: change_tool(left_hand, parallelgripper, clampgripper)</title>
<ellipse fill="none" stroke="black" cx="3976.18" cy="-18" rx="292.45" ry="18"/>
<text text-anchor="middle" x="3976.18" y="-14.3" font-family="Times,serif" font-size="14.00">action: change_tool(left_hand, parallelgripper, clampgripper)</text>
</g>
<!-- sequence: change_tool(left_hand, parallelgripper, clampgripper)&#45;&gt;action: change_tool(left_hand, parallelgripper, clampgripper) -->
<g id="edge20" class="edge">
<title>sequence: change_tool(left_hand, parallelgripper, clampgripper)&#45;&gt;action: change_tool(left_hand, parallelgripper, clampgripper)</title>
<path fill="none" stroke="black" d="M3544.35,-73.46C3633.31,-62.24 3753.29,-47.11 3844.21,-35.65"/>
<polygon fill="black" stroke="black" points="3844.83,-39.1 3854.31,-34.37 3843.95,-32.15 3844.83,-39.1"/>
</g>
<!-- target: is_inserted_to(gear1, shaft1)* -->
<g id="node28" class="node">
<title>target: is_inserted_to(gear1, shaft1)*</title>
<ellipse fill="none" stroke="black" cx="4101.18" cy="-90" rx="182.77" ry="18"/>
<text text-anchor="middle" x="4101.18" y="-86.3" font-family="Times,serif" font-size="14.00">target: is_inserted_to(gear1, shaft1)*</text>
</g>
<!-- selector: insert_gear1_shaft1&#45;&gt;target: is_inserted_to(gear1, shaft1)* -->
<g id="edge22" class="edge">
<title>selector: insert_gear1_shaft1&#45;&gt;target: is_inserted_to(gear1, shaft1)*</title>
<path fill="none" stroke="black" d="M4101.18,-143.7C4101.18,-135.98 4101.18,-126.71 4101.18,-118.11"/>
<polygon fill="black" stroke="black" points="4104.68,-118.1 4101.18,-108.1 4097.68,-118.1 4104.68,-118.1"/>
</g>
<!-- sequence: insert_gear1_shaft1 -->
<g id="node29" class="node">
<title>sequence: insert_gear1_shaft1</title>
<ellipse fill="none" stroke="black" cx="4720.18" cy="-90" rx="152.17" ry="18"/>
<text text-anchor="middle" x="4720.18" y="-86.3" font-family="Times,serif" font-size="14.00">sequence: insert_gear1_shaft1</text>
</g>
<!-- selector: insert_gear1_shaft1&#45;&gt;sequence: insert_gear1_shaft1 -->
<g id="edge23" class="edge">
<title>selector: insert_gear1_shaft1&#45;&gt;sequence: insert_gear1_shaft1</title>
<path fill="none" stroke="black" d="M4204.79,-149.28C4315.12,-136.81 4489.34,-117.11 4604.19,-104.12"/>
<polygon fill="black" stroke="black" points="4604.88,-107.56 4614.42,-102.96 4604.09,-100.61 4604.88,-107.56"/>
</g>
<!-- precondition: hold(left_hand, clampgripper)* -->
<g id="node30" class="node">
<title>precondition: hold(left_hand, clampgripper)*</title>
<ellipse fill="none" stroke="black" cx="4504.18" cy="-18" rx="217.96" ry="18"/>
<text text-anchor="middle" x="4504.18" y="-14.3" font-family="Times,serif" font-size="14.00">precondition: hold(left_hand, clampgripper)*</text>
</g>
<!-- sequence: insert_gear1_shaft1&#45;&gt;precondition: hold(left_hand, clampgripper)* -->
<g id="edge24" class="edge">
<title>sequence: insert_gear1_shaft1&#45;&gt;precondition: hold(left_hand, clampgripper)*</title>
<path fill="none" stroke="black" d="M4670.63,-72.94C4639.23,-62.76 4598.39,-49.53 4565.03,-38.72"/>
<polygon fill="black" stroke="black" points="4565.97,-35.35 4555.38,-35.59 4563.82,-42.01 4565.97,-35.35"/>
</g>
<!-- precondition: hold(clampgripper, gear1) -->
<g id="node31" class="node">
<title>precondition: hold(clampgripper, gear1)</title>
<ellipse fill="none" stroke="black" cx="4936.18" cy="-18" rx="196.07" ry="18"/>
<text text-anchor="middle" x="4936.18" y="-14.3" font-family="Times,serif" font-size="14.00">precondition: hold(clampgripper, gear1)</text>
</g>
<!-- sequence: insert_gear1_shaft1&#45;&gt;precondition: hold(clampgripper, gear1) -->
<g id="edge25" class="edge">
<title>sequence: insert_gear1_shaft1&#45;&gt;precondition: hold(clampgripper, gear1)</title>
<path fill="none" stroke="black" d="M4769.74,-72.94C4801.25,-62.73 4842.27,-49.44 4875.7,-38.6"/>
<polygon fill="black" stroke="black" points="4876.92,-41.88 4885.36,-35.47 4874.77,-35.22 4876.92,-41.88"/>
</g>
<!-- action: insert(left_hand, clampgripper, gear1, shaft1) -->
<g id="node32" class="node">
<title>action: insert(left_hand, clampgripper, gear1, shaft1)</title>
<ellipse fill="none" stroke="black" cx="5407.18" cy="-18" rx="256.95" ry="18"/>
<text text-anchor="middle" x="5407.18" y="-14.3" font-family="Times,serif" font-size="14.00">action: insert(left_hand, clampgripper, gear1, shaft1)</text>
</g>
<!-- sequence: insert_gear1_shaft1&#45;&gt;action: insert(left_hand, clampgripper, gear1, shaft1) -->
<g id="edge26" class="edge">
<title>sequence: insert_gear1_shaft1&#45;&gt;action: insert(left_hand, clampgripper, gear1, shaft1)</title>
<path fill="none" stroke="black" d="M4831.32,-77.68C4947.24,-65.86 5129.61,-47.28 5258,-34.2"/>
<polygon fill="black" stroke="black" points="5258.72,-37.65 5268.31,-33.15 5258.01,-30.68 5258.72,-37.65"/>
</g>
</g>
</svg>
