<?xml version="1.0" encoding="UTF-8" standalone="no"?>
<!DOCTYPE svg PUBLIC "-//W3C//DTD SVG 1.1//EN"
 "http://www.w3.org/Graphics/SVG/1.1/DTD/svg11.dtd">
<!-- Generated by graphviz version 2.43.0 (0)
 -->
<!-- Title: pastafarianism Pages: 1 -->
<svg width="4289pt" height="332pt"
 viewBox="0.00 0.00 4288.60 332.00" xmlns="http://www.w3.org/2000/svg" xmlns:xlink="http://www.w3.org/1999/xlink">
<g id="graph0" class="graph" transform="scale(1 1) rotate(0) translate(4 328)">
<title>pastafarianism</title>
<polygon fill="white" stroke="transparent" points="-4,4 -4,-328 4284.6,-328 4284.6,4 -4,4"/>
<!-- selector -->
<g id="node1" class="node">
<title>selector</title>
<polygon fill="cyan" stroke="black" points="1166.41,-298.54 1166.41,-313.46 1122.93,-324 1061.43,-324 1017.95,-313.46 1017.95,-298.54 1061.43,-288 1122.93,-288 1166.41,-298.54"/>
<text text-anchor="middle" x="1092.18" y="-303.8" font-family="Times,serif" font-size="9.00">selector: insert_shaft3</text>
</g>
<!-- target -->
<g id="node2" class="node">
<title>target</title>
<ellipse fill="gray" stroke="black" cx="1319.18" cy="-306" rx="134.55" ry="18"/>
<text text-anchor="middle" x="1319.18" y="-303.8" font-family="Times,serif" font-size="9.00">target: is_inserted_to(shaft3, gearbase_hole3)*</text>
</g>
<!-- selector: insert_shaft3_into_gearbase_hole3 -->
<g id="node3" class="node">
<title>selector: insert_shaft3_into_gearbase_hole3</title>
<ellipse fill="none" stroke="black" cx="1685.18" cy="-306" rx="213.66" ry="18"/>
<text text-anchor="middle" x="1685.18" y="-302.3" font-family="Times,serif" font-size="14.00">selector: insert_shaft3_into_gearbase_hole3</text>
</g>
<!-- target: is_inserted_to(shaft3, gearbase_hole3) -->
<g id="node4" class="node">
<title>target: is_inserted_to(shaft3, gearbase_hole3)</title>
<ellipse fill="none" stroke="black" cx="1455.18" cy="-234" rx="223.66" ry="18"/>
<text text-anchor="middle" x="1455.18" y="-230.3" font-family="Times,serif" font-size="14.00">target: is_inserted_to(shaft3, gearbase_hole3)</text>
</g>
<!-- selector: insert_shaft3_into_gearbase_hole3&#45;&gt;target: is_inserted_to(shaft3, gearbase_hole3) -->
<g id="edge1" class="edge">
<title>selector: insert_shaft3_into_gearbase_hole3&#45;&gt;target: is_inserted_to(shaft3, gearbase_hole3)</title>
<path fill="none" stroke="black" d="M1630.97,-288.5C1597.46,-278.3 1554.3,-265.17 1519.12,-254.46"/>
<polygon fill="black" stroke="black" points="1520.02,-251.07 1509.43,-251.51 1517.98,-257.77 1520.02,-251.07"/>
</g>
<!-- sequence: insert_shaft3_into_gearbase_hole3 -->
<g id="node6" class="node">
<title>sequence: insert_shaft3_into_gearbase_hole3</title>
<ellipse fill="none" stroke="black" cx="1916.18" cy="-234" rx="219.86" ry="18"/>
<text text-anchor="middle" x="1916.18" y="-230.3" font-family="Times,serif" font-size="14.00">sequence: insert_shaft3_into_gearbase_hole3</text>
</g>
<!-- selector: insert_shaft3_into_gearbase_hole3&#45;&gt;sequence: insert_shaft3_into_gearbase_hole3 -->
<g id="edge2" class="edge">
<title>selector: insert_shaft3_into_gearbase_hole3&#45;&gt;sequence: insert_shaft3_into_gearbase_hole3</title>
<path fill="none" stroke="black" d="M1739.63,-288.5C1773.28,-278.3 1816.64,-265.17 1851.96,-254.46"/>
<polygon fill="black" stroke="black" points="1853.14,-257.76 1861.7,-251.51 1851.11,-251.06 1853.14,-257.76"/>
</g>
<!-- sequence -->
<g id="node5" class="node">
<title>sequence</title>
<polygon fill="orange" stroke="black" points="2043.18,-324 1917.18,-324 1917.18,-288 2043.18,-288 2043.18,-324"/>
<text text-anchor="middle" x="1980.18" y="-303.8" font-family="Times,serif" font-size="9.00">sequence: insert_shaft3</text>
</g>
<!-- selector: change_tool(left_hand, clampgripper, defaultgripper) -->
<g id="node7" class="node">
<title>selector: change_tool(left_hand, clampgripper, defaultgripper)</title>
<ellipse fill="none" stroke="black" cx="877.18" cy="-162" rx="298.95" ry="18"/>
<text text-anchor="middle" x="877.18" y="-158.3" font-family="Times,serif" font-size="14.00">selector: change_tool(left_hand, clampgripper, defaultgripper)</text>
</g>
<!-- sequence: insert_shaft3_into_gearbase_hole3&#45;&gt;selector: change_tool(left_hand, clampgripper, defaultgripper) -->
<g id="edge3" class="edge">
<title>sequence: insert_shaft3_into_gearbase_hole3&#45;&gt;selector: change_tool(left_hand, clampgripper, defaultgripper)</title>
<path fill="none" stroke="black" d="M1761.05,-221.24C1736.67,-219.45 1711.74,-217.65 1688.18,-216 1483.62,-201.69 1249.94,-186.55 1086.14,-176.13"/>
<polygon fill="black" stroke="black" points="1086.14,-172.62 1075.94,-175.48 1085.7,-179.61 1086.14,-172.62"/>
</g>
<!-- selector: pick_up_shaft3 -->
<g id="node15" class="node">
<title>selector: pick_up_shaft3</title>
<ellipse fill="none" stroke="black" cx="1916.18" cy="-162" rx="122.38" ry="18"/>
<text text-anchor="middle" x="1916.18" y="-158.3" font-family="Times,serif" font-size="14.00">selector: pick_up_shaft3</text>
</g>
<!-- sequence: insert_shaft3_into_gearbase_hole3&#45;&gt;selector: pick_up_shaft3 -->
<g id="edge9" class="edge">
<title>sequence: insert_shaft3_into_gearbase_hole3&#45;&gt;selector: pick_up_shaft3</title>
<path fill="none" stroke="black" d="M1916.18,-215.7C1916.18,-207.98 1916.18,-198.71 1916.18,-190.11"/>
<polygon fill="black" stroke="black" points="1919.68,-190.1 1916.18,-180.1 1912.68,-190.1 1919.68,-190.1"/>
</g>
<!-- selector: insert_shaft3 -->
<g id="node21" class="node">
<title>selector: insert_shaft3</title>
<ellipse fill="none" stroke="black" cx="2542.18" cy="-162" rx="114.28" ry="18"/>
<text text-anchor="middle" x="2542.18" y="-158.3" font-family="Times,serif" font-size="14.00">selector: insert_shaft3</text>
</g>
<!-- sequence: insert_shaft3_into_gearbase_hole3&#45;&gt;selector: insert_shaft3 -->
<g id="edge15" class="edge">
<title>sequence: insert_shaft3_into_gearbase_hole3&#45;&gt;selector: insert_shaft3</title>
<path fill="none" stroke="black" d="M2040.23,-219.13C2157.93,-205.97 2332.58,-186.44 2441.78,-174.23"/>
<polygon fill="black" stroke="black" points="2442.26,-177.7 2451.81,-173.11 2441.48,-170.74 2442.26,-177.7"/>
</g>
<!-- target: hold(left_hand, defaultgripper) -->
<g id="node8" class="node">
<title>target: hold(left_hand, defaultgripper)</title>
<ellipse fill="none" stroke="black" cx="365.18" cy="-90" rx="188.47" ry="18"/>
<text text-anchor="middle" x="365.18" y="-86.3" font-family="Times,serif" font-size="14.00">target: hold(left_hand, defaultgripper)</text>
</g>
<!-- selector: change_tool(left_hand, clampgripper, defaultgripper)&#45;&gt;target: hold(left_hand, defaultgripper) -->
<g id="edge4" class="edge">
<title>selector: change_tool(left_hand, clampgripper, defaultgripper)&#45;&gt;target: hold(left_hand, defaultgripper)</title>
<path fill="none" stroke="black" d="M762.6,-145.33C677.9,-133.75 563.11,-118.06 478.68,-106.52"/>
<polygon fill="black" stroke="black" points="478.91,-103.02 468.53,-105.13 477.97,-109.95 478.91,-103.02"/>
</g>
<!-- sequence: change_tool(left_hand, clampgripper, defaultgripper) -->
<g id="node9" class="node">
<title>sequence: change_tool(left_hand, clampgripper, defaultgripper)</title>
<ellipse fill="none" stroke="black" cx="877.18" cy="-90" rx="305.45" ry="18"/>
<text text-anchor="middle" x="877.18" y="-86.3" font-family="Times,serif" font-size="14.00">sequence: change_tool(left_hand, clampgripper, defaultgripper)</text>
</g>
<!-- selector: change_tool(left_hand, clampgripper, defaultgripper)&#45;&gt;sequence: change_tool(left_hand, clampgripper, defaultgripper) -->
<g id="edge5" class="edge">
<title>selector: change_tool(left_hand, clampgripper, defaultgripper)&#45;&gt;sequence: change_tool(left_hand, clampgripper, defaultgripper)</title>
<path fill="none" stroke="black" d="M877.18,-143.7C877.18,-135.98 877.18,-126.71 877.18,-118.11"/>
<polygon fill="black" stroke="black" points="880.68,-118.1 877.18,-108.1 873.68,-118.1 880.68,-118.1"/>
</g>
<!-- precondition: hold(left_hand, clampgripper) -->
<g id="node11" class="node">
<title>precondition: hold(left_hand, clampgripper)</title>
<ellipse fill="none" stroke="black" cx="213.18" cy="-18" rx="213.36" ry="18"/>
<text text-anchor="middle" x="213.18" y="-14.3" font-family="Times,serif" font-size="14.00">precondition: hold(left_hand, clampgripper)</text>
</g>
<!-- sequence: change_tool(left_hand, clampgripper, defaultgripper)&#45;&gt;precondition: hold(left_hand, clampgripper) -->
<g id="edge6" class="edge">
<title>sequence: change_tool(left_hand, clampgripper, defaultgripper)&#45;&gt;precondition: hold(left_hand, clampgripper)</title>
<path fill="none" stroke="black" d="M735.14,-74.03C621.52,-62.05 463.16,-45.35 350.73,-33.5"/>
<polygon fill="black" stroke="black" points="350.99,-30.01 340.68,-32.44 350.26,-36.97 350.99,-30.01"/>
</g>
<!-- precondition: is_empty(clampgripper) -->
<g id="node12" class="node">
<title>precondition: is_empty(clampgripper)</title>
<ellipse fill="none" stroke="black" cx="630.18" cy="-18" rx="185.77" ry="18"/>
<text text-anchor="middle" x="630.18" y="-14.3" font-family="Times,serif" font-size="14.00">precondition: is_empty(clampgripper)</text>
</g>
<!-- sequence: change_tool(left_hand, clampgripper, defaultgripper)&#45;&gt;precondition: is_empty(clampgripper) -->
<g id="edge7" class="edge">
<title>sequence: change_tool(left_hand, clampgripper, defaultgripper)&#45;&gt;precondition: is_empty(clampgripper)</title>
<path fill="none" stroke="black" d="M818.33,-72.32C781.92,-62 735.06,-48.72 697.22,-38"/>
<polygon fill="black" stroke="black" points="697.88,-34.55 687.3,-35.19 695.97,-41.28 697.88,-34.55"/>
</g>
<!-- action: change_tool(left_hand, clampgripper, defaultgripper) -->
<g id="node14" class="node">
<title>action: change_tool(left_hand, clampgripper, defaultgripper)</title>
<ellipse fill="none" stroke="black" cx="1124.18" cy="-18" rx="289.75" ry="18"/>
<text text-anchor="middle" x="1124.18" y="-14.3" font-family="Times,serif" font-size="14.00">action: change_tool(left_hand, clampgripper, defaultgripper)</text>
</g>
<!-- sequence: change_tool(left_hand, clampgripper, defaultgripper)&#45;&gt;action: change_tool(left_hand, clampgripper, defaultgripper) -->
<g id="edge8" class="edge">
<title>sequence: change_tool(left_hand, clampgripper, defaultgripper)&#45;&gt;action: change_tool(left_hand, clampgripper, defaultgripper)</title>
<path fill="none" stroke="black" d="M936.03,-72.32C971.92,-62.15 1017.95,-49.1 1055.51,-38.46"/>
<polygon fill="black" stroke="black" points="1056.69,-41.77 1065.36,-35.67 1054.78,-35.03 1056.69,-41.77"/>
</g>
<!-- precondition -->
<g id="node10" class="node">
<title>precondition</title>
<ellipse fill="gray" stroke="black" cx="2182.18" cy="-306" rx="121.49" ry="18"/>
<text text-anchor="middle" x="2182.18" y="-303.8" font-family="Times,serif" font-size="9.00">precondition: hold(defaultgripper, shaft3)</text>
</g>
<!-- action -->
<g id="node13" class="node">
<title>action</title>
<ellipse fill="gray" stroke="black" cx="2502.18" cy="-306" rx="180.92" ry="18"/>
<text text-anchor="middle" x="2502.18" y="-303.8" font-family="Times,serif" font-size="9.00">action: insert(left_hand, defaultgripper, shaft3, gearbase_hole3)</text>
</g>
<!-- target: hold(defaultgripper, shaft3) -->
<g id="node16" class="node">
<title>target: hold(defaultgripper, shaft3)</title>
<ellipse fill="none" stroke="black" cx="1756.18" cy="-90" rx="173.57" ry="18"/>
<text text-anchor="middle" x="1756.18" y="-86.3" font-family="Times,serif" font-size="14.00">target: hold(defaultgripper, shaft3)</text>
</g>
<!-- selector: pick_up_shaft3&#45;&gt;target: hold(defaultgripper, shaft3) -->
<g id="edge10" class="edge">
<title>selector: pick_up_shaft3&#45;&gt;target: hold(defaultgripper, shaft3)</title>
<path fill="none" stroke="black" d="M1879.07,-144.76C1856.58,-134.92 1827.66,-122.27 1803.53,-111.72"/>
<polygon fill="black" stroke="black" points="1804.76,-108.44 1794.2,-107.63 1801.96,-114.85 1804.76,-108.44"/>
</g>
<!-- sequence: pick_up_shaft3 -->
<g id="node17" class="node">
<title>sequence: pick_up_shaft3</title>
<ellipse fill="none" stroke="black" cx="2076.18" cy="-90" rx="128.88" ry="18"/>
<text text-anchor="middle" x="2076.18" y="-86.3" font-family="Times,serif" font-size="14.00">sequence: pick_up_shaft3</text>
</g>
<!-- selector: pick_up_shaft3&#45;&gt;sequence: pick_up_shaft3 -->
<g id="edge11" class="edge">
<title>selector: pick_up_shaft3&#45;&gt;sequence: pick_up_shaft3</title>
<path fill="none" stroke="black" d="M1953.29,-144.76C1976.03,-134.82 2005.33,-122 2029.62,-111.37"/>
<polygon fill="black" stroke="black" points="2031.24,-114.48 2039,-107.27 2028.43,-108.07 2031.24,-114.48"/>
</g>
<!-- precondition: hold(left_hand, defaultgripper) -->
<g id="node18" class="node">
<title>precondition: hold(left_hand, defaultgripper)</title>
<ellipse fill="none" stroke="black" cx="1650.18" cy="-18" rx="217.96" ry="18"/>
<text text-anchor="middle" x="1650.18" y="-14.3" font-family="Times,serif" font-size="14.00">precondition: hold(left_hand, defaultgripper)</text>
</g>
<!-- sequence: pick_up_shaft3&#45;&gt;precondition: hold(left_hand, defaultgripper) -->
<g id="edge12" class="edge">
<title>sequence: pick_up_shaft3&#45;&gt;precondition: hold(left_hand, defaultgripper)</title>
<path fill="none" stroke="black" d="M1996.05,-75.83C1927.32,-64.54 1827.84,-48.19 1753.2,-35.93"/>
<polygon fill="black" stroke="black" points="1753.73,-32.47 1743.3,-34.3 1752.6,-39.38 1753.73,-32.47"/>
</g>
<!-- precondition: is_empty(defaultgripper) -->
<g id="node19" class="node">
<title>precondition: is_empty(defaultgripper)</title>
<ellipse fill="none" stroke="black" cx="2076.18" cy="-18" rx="190.37" ry="18"/>
<text text-anchor="middle" x="2076.18" y="-14.3" font-family="Times,serif" font-size="14.00">precondition: is_empty(defaultgripper)</text>
</g>
<!-- sequence: pick_up_shaft3&#45;&gt;precondition: is_empty(defaultgripper) -->
<g id="edge13" class="edge">
<title>sequence: pick_up_shaft3&#45;&gt;precondition: is_empty(defaultgripper)</title>
<path fill="none" stroke="black" d="M2076.18,-71.7C2076.18,-63.98 2076.18,-54.71 2076.18,-46.11"/>
<polygon fill="black" stroke="black" points="2079.68,-46.1 2076.18,-36.1 2072.68,-46.1 2079.68,-46.1"/>
</g>
<!-- action: pick_up(left_hand, defaultgripper, shaft3) -->
<g id="node20" class="node">
<title>action: pick_up(left_hand, defaultgripper, shaft3)</title>
<ellipse fill="none" stroke="black" cx="2522.18" cy="-18" rx="237.46" ry="18"/>
<text text-anchor="middle" x="2522.18" y="-14.3" font-family="Times,serif" font-size="14.00">action: pick_up(left_hand, defaultgripper, shaft3)</text>
</g>
<!-- sequence: pick_up_shaft3&#45;&gt;action: pick_up(left_hand, defaultgripper, shaft3) -->
<g id="edge14" class="edge">
<title>sequence: pick_up_shaft3&#45;&gt;action: pick_up(left_hand, defaultgripper, shaft3)</title>
<path fill="none" stroke="black" d="M2158.24,-76.12C2230.14,-64.84 2335.16,-48.35 2413.93,-35.99"/>
<polygon fill="black" stroke="black" points="2414.55,-39.44 2423.89,-34.43 2413.46,-32.52 2414.55,-39.44"/>
</g>
<!-- target: is_inserted_to(shaft3, gearbase_hole3)* -->
<g id="node22" class="node">
<title>target: is_inserted_to(shaft3, gearbase_hole3)*</title>
<ellipse fill="none" stroke="black" cx="2542.18" cy="-90" rx="228.26" ry="18"/>
<text text-anchor="middle" x="2542.18" y="-86.3" font-family="Times,serif" font-size="14.00">target: is_inserted_to(shaft3, gearbase_hole3)*</text>
</g>
<!-- selector: insert_shaft3&#45;&gt;target: is_inserted_to(shaft3, gearbase_hole3)* -->
<g id="edge16" class="edge">
<title>selector: insert_shaft3&#45;&gt;target: is_inserted_to(shaft3, gearbase_hole3)*</title>
<path fill="none" stroke="black" d="M2542.18,-143.7C2542.18,-135.98 2542.18,-126.71 2542.18,-118.11"/>
<polygon fill="black" stroke="black" points="2545.68,-118.1 2542.18,-108.1 2538.68,-118.1 2545.68,-118.1"/>
</g>
<!-- sequence: insert_shaft3 -->
<g id="node23" class="node">
<title>sequence: insert_shaft3</title>
<ellipse fill="none" stroke="black" cx="3222.18" cy="-90" rx="120.78" ry="18"/>
<text text-anchor="middle" x="3222.18" y="-86.3" font-family="Times,serif" font-size="14.00">sequence: insert_shaft3</text>
</g>
<!-- selector: insert_shaft3&#45;&gt;sequence: insert_shaft3 -->
<g id="edge17" class="edge">
<title>selector: insert_shaft3&#45;&gt;sequence: insert_shaft3</title>
<path fill="none" stroke="black" d="M2634.95,-151.45C2760.43,-138.53 2983.7,-115.55 3115.83,-101.95"/>
<polygon fill="black" stroke="black" points="3116.37,-105.41 3125.96,-100.9 3115.66,-98.45 3116.37,-105.41"/>
</g>
<!-- precondition: hold(left_hand, defaultgripper)* -->
<g id="node24" class="node">
<title>precondition: hold(left_hand, defaultgripper)*</title>
<ellipse fill="none" stroke="black" cx="3000.18" cy="-18" rx="222.06" ry="18"/>
<text text-anchor="middle" x="3000.18" y="-14.3" font-family="Times,serif" font-size="14.00">precondition: hold(left_hand, defaultgripper)*</text>
</g>
<!-- sequence: insert_shaft3&#45;&gt;precondition: hold(left_hand, defaultgripper)* -->
<g id="edge18" class="edge">
<title>sequence: insert_shaft3&#45;&gt;precondition: hold(left_hand, defaultgripper)*</title>
<path fill="none" stroke="black" d="M3172.91,-73.46C3140.34,-63.19 3097.36,-49.64 3062.42,-38.63"/>
<polygon fill="black" stroke="black" points="3063.39,-35.26 3052.8,-35.59 3061.28,-41.94 3063.39,-35.26"/>
</g>
<!-- precondition: hold(defaultgripper, shaft3) -->
<g id="node25" class="node">
<title>precondition: hold(defaultgripper, shaft3)</title>
<ellipse fill="none" stroke="black" cx="3444.18" cy="-18" rx="203.36" ry="18"/>
<text text-anchor="middle" x="3444.18" y="-14.3" font-family="Times,serif" font-size="14.00">precondition: hold(defaultgripper, shaft3)</text>
</g>
<!-- sequence: insert_shaft3&#45;&gt;precondition: hold(defaultgripper, shaft3) -->
<g id="edge19" class="edge">
<title>sequence: insert_shaft3&#45;&gt;precondition: hold(defaultgripper, shaft3)</title>
<path fill="none" stroke="black" d="M3271.45,-73.46C3304.14,-63.16 3347.31,-49.54 3382.32,-38.51"/>
<polygon fill="black" stroke="black" points="3383.47,-41.81 3391.96,-35.47 3381.37,-35.14 3383.47,-41.81"/>
</g>
<!-- action: insert(left_hand, defaultgripper, shaft3, gearbase_hole3) -->
<g id="node26" class="node">
<title>action: insert(left_hand, defaultgripper, shaft3, gearbase_hole3)</title>
<ellipse fill="none" stroke="black" cx="3973.18" cy="-18" rx="307.35" ry="18"/>
<text text-anchor="middle" x="3973.18" y="-14.3" font-family="Times,serif" font-size="14.00">action: insert(left_hand, defaultgripper, shaft3, gearbase_hole3)</text>
</g>
<!-- sequence: insert_shaft3&#45;&gt;action: insert(left_hand, defaultgripper, shaft3, gearbase_hole3) -->
<g id="edge20" class="edge">
<title>sequence: insert_shaft3&#45;&gt;action: insert(left_hand, defaultgripper, shaft3, gearbase_hole3)</title>
<path fill="none" stroke="black" d="M3321.52,-79.74C3445.25,-68.21 3658.43,-48.34 3807.15,-34.48"/>
<polygon fill="black" stroke="black" points="3807.67,-37.94 3817.3,-33.53 3807.02,-30.97 3807.67,-37.94"/>
</g>
</g>
</svg>
