<?xml version="1.0" encoding="UTF-8" standalone="no"?>
<!DOCTYPE svg PUBLIC "-//W3C//DTD SVG 1.1//EN"
 "http://www.w3.org/Graphics/SVG/1.1/DTD/svg11.dtd">
<!-- Generated by graphviz version 2.43.0 (0)
 -->
<!-- Title: pastafarianism Pages: 1 -->
<svg width="5732pt" height="404pt"
 viewBox="0.00 0.00 5731.55 404.00" xmlns="http://www.w3.org/2000/svg" xmlns:xlink="http://www.w3.org/1999/xlink">
<g id="graph0" class="graph" transform="scale(1 1) rotate(0) translate(4 400)">
<title>pastafarianism</title>
<polygon fill="white" stroke="transparent" points="-4,4 -4,-400 5727.55,-400 5727.55,4 -4,4"/>
<!-- selector -->
<g id="node1" class="node">
<title>selector</title>
<polygon fill="cyan" stroke="black" points="928.8,-370.54 928.8,-385.46 848.86,-396 735.8,-396 655.87,-385.46 655.87,-370.54 735.8,-360 848.86,-360 928.8,-370.54"/>
<text text-anchor="middle" x="792.33" y="-375.8" font-family="Times,serif" font-size="9.00">selector: insert_shaft1_into_gearbase_hole1</text>
</g>
<!-- sequence -->
<g id="node2" class="node">
<title>sequence</title>
<polygon fill="orange" stroke="black" points="1171.83,-396 946.83,-396 946.83,-360 1171.83,-360 1171.83,-396"/>
<text text-anchor="middle" x="1059.33" y="-375.8" font-family="Times,serif" font-size="9.00">sequence: insert_shaft1_into_gearbase_hole1</text>
</g>
<!-- selector: put_down_shaft3_and_insert_shaft1 -->
<g id="node3" class="node">
<title>selector: put_down_shaft3_and_insert_shaft1</title>
<ellipse fill="none" stroke="black" cx="1409.33" cy="-378" rx="219.06" ry="18"/>
<text text-anchor="middle" x="1409.33" y="-374.3" font-family="Times,serif" font-size="14.00">selector: put_down_shaft3_and_insert_shaft1</text>
</g>
<!-- sequence: put_down_shaft3_into_shaft_holder3 -->
<g id="node4" class="node">
<title>sequence: put_down_shaft3_into_shaft_holder3</title>
<ellipse fill="none" stroke="black" cx="936.33" cy="-306" rx="228.56" ry="18"/>
<text text-anchor="middle" x="936.33" y="-302.3" font-family="Times,serif" font-size="14.00">sequence: put_down_shaft3_into_shaft_holder3</text>
</g>
<!-- selector: put_down_shaft3_and_insert_shaft1&#45;&gt;sequence: put_down_shaft3_into_shaft_holder3 -->
<g id="edge1" class="edge">
<title>selector: put_down_shaft3_and_insert_shaft1&#45;&gt;sequence: put_down_shaft3_into_shaft_holder3</title>
<path fill="none" stroke="black" d="M1308.15,-362.03C1231.9,-350.74 1127.35,-335.27 1048.54,-323.61"/>
<polygon fill="black" stroke="black" points="1048.98,-320.13 1038.57,-322.13 1047.95,-327.06 1048.98,-320.13"/>
</g>
<!-- selector: change_tool_and_insert_shaft1 -->
<g id="node13" class="node">
<title>selector: change_tool_and_insert_shaft1</title>
<ellipse fill="none" stroke="black" cx="2371.33" cy="-306" rx="195.77" ry="18"/>
<text text-anchor="middle" x="2371.33" y="-302.3" font-family="Times,serif" font-size="14.00">selector: change_tool_and_insert_shaft1</text>
</g>
<!-- selector: put_down_shaft3_and_insert_shaft1&#45;&gt;selector: change_tool_and_insert_shaft1 -->
<g id="edge7" class="edge">
<title>selector: put_down_shaft3_and_insert_shaft1&#45;&gt;selector: change_tool_and_insert_shaft1</title>
<path fill="none" stroke="black" d="M1565.09,-365.34C1589.27,-363.54 1613.97,-361.71 1637.33,-360 1835.22,-345.48 2063.15,-329.07 2211.84,-318.41"/>
<polygon fill="black" stroke="black" points="2212.23,-321.89 2221.96,-317.68 2211.73,-314.91 2212.23,-321.89"/>
</g>
<!-- target: is_placed_to(shaft3, shaft_holder3) -->
<g id="node6" class="node">
<title>target: is_placed_to(shaft3, shaft_holder3)</title>
<ellipse fill="none" stroke="black" cx="474.33" cy="-234" rx="206.86" ry="18"/>
<text text-anchor="middle" x="474.33" y="-230.3" font-family="Times,serif" font-size="14.00">target: is_placed_to(shaft3, shaft_holder3)</text>
</g>
<!-- sequence: put_down_shaft3_into_shaft_holder3&#45;&gt;target: is_placed_to(shaft3, shaft_holder3) -->
<g id="edge2" class="edge">
<title>sequence: put_down_shaft3_into_shaft_holder3&#45;&gt;target: is_placed_to(shaft3, shaft_holder3)</title>
<path fill="none" stroke="black" d="M836.08,-289.81C761.29,-278.48 659.22,-263.01 582.57,-251.4"/>
<polygon fill="black" stroke="black" points="582.81,-247.9 572.4,-249.86 581.76,-254.82 582.81,-247.9"/>
</g>
<!-- sequence: put_down_shaft3_with_parallelgripper -->
<g id="node7" class="node">
<title>sequence: put_down_shaft3_with_parallelgripper</title>
<ellipse fill="none" stroke="black" cx="936.33" cy="-234" rx="237.46" ry="18"/>
<text text-anchor="middle" x="936.33" y="-230.3" font-family="Times,serif" font-size="14.00">sequence: put_down_shaft3_with_parallelgripper</text>
</g>
<!-- sequence: put_down_shaft3_into_shaft_holder3&#45;&gt;sequence: put_down_shaft3_with_parallelgripper -->
<g id="edge3" class="edge">
<title>sequence: put_down_shaft3_into_shaft_holder3&#45;&gt;sequence: put_down_shaft3_with_parallelgripper</title>
<path fill="none" stroke="black" d="M936.33,-287.7C936.33,-279.98 936.33,-270.71 936.33,-262.11"/>
<polygon fill="black" stroke="black" points="939.83,-262.1 936.33,-252.1 932.83,-262.1 939.83,-262.1"/>
</g>
<!-- target -->
<g id="node5" class="node">
<title>target</title>
<ellipse fill="gray" stroke="black" cx="1778.33" cy="-378" rx="132.43" ry="18"/>
<text text-anchor="middle" x="1778.33" y="-375.8" font-family="Times,serif" font-size="9.00">target: is_inserted_to(shaft1, gearbase_hole1)</text>
</g>
<!-- precondition: hold(left_hand, parallelgripper) -->
<g id="node9" class="node">
<title>precondition: hold(left_hand, parallelgripper)</title>
<ellipse fill="none" stroke="black" cx="220.33" cy="-162" rx="220.16" ry="18"/>
<text text-anchor="middle" x="220.33" y="-158.3" font-family="Times,serif" font-size="14.00">precondition: hold(left_hand, parallelgripper)</text>
</g>
<!-- sequence: put_down_shaft3_with_parallelgripper&#45;&gt;precondition: hold(left_hand, parallelgripper) -->
<g id="edge4" class="edge">
<title>sequence: put_down_shaft3_with_parallelgripper&#45;&gt;precondition: hold(left_hand, parallelgripper)</title>
<path fill="none" stroke="black" d="M797,-219.38C672.83,-207.24 491.76,-189.54 365.76,-177.22"/>
<polygon fill="black" stroke="black" points="365.94,-173.72 355.65,-176.23 365.26,-180.69 365.94,-173.72"/>
</g>
<!-- precondition: hold(parallelgripper, shaft3) -->
<g id="node10" class="node">
<title>precondition: hold(parallelgripper, shaft3)</title>
<ellipse fill="none" stroke="black" cx="664.33" cy="-162" rx="206.06" ry="18"/>
<text text-anchor="middle" x="664.33" y="-158.3" font-family="Times,serif" font-size="14.00">precondition: hold(parallelgripper, shaft3)</text>
</g>
<!-- sequence: put_down_shaft3_with_parallelgripper&#45;&gt;precondition: hold(parallelgripper, shaft3) -->
<g id="edge5" class="edge">
<title>sequence: put_down_shaft3_with_parallelgripper&#45;&gt;precondition: hold(parallelgripper, shaft3)</title>
<path fill="none" stroke="black" d="M872.56,-216.59C832,-206.15 779.37,-192.61 737.17,-181.75"/>
<polygon fill="black" stroke="black" points="737.79,-178.29 727.23,-179.19 736.05,-185.07 737.79,-178.29"/>
</g>
<!-- action: put_down(left_hand, parallelgripper, shaft3, shaft_holder3) -->
<g id="node12" class="node">
<title>action: put_down(left_hand, parallelgripper, shaft3, shaft_holder3)</title>
<ellipse fill="none" stroke="black" cx="1207.33" cy="-162" rx="318.44" ry="18"/>
<text text-anchor="middle" x="1207.33" y="-158.3" font-family="Times,serif" font-size="14.00">action: put_down(left_hand, parallelgripper, shaft3, shaft_holder3)</text>
</g>
<!-- sequence: put_down_shaft3_with_parallelgripper&#45;&gt;action: put_down(left_hand, parallelgripper, shaft3, shaft_holder3) -->
<g id="edge6" class="edge">
<title>sequence: put_down_shaft3_with_parallelgripper&#45;&gt;action: put_down(left_hand, parallelgripper, shaft3, shaft_holder3)</title>
<path fill="none" stroke="black" d="M999.87,-216.59C1039.7,-206.3 1091.21,-192.99 1132.94,-182.21"/>
<polygon fill="black" stroke="black" points="1133.97,-185.56 1142.78,-179.67 1132.22,-178.79 1133.97,-185.56"/>
</g>
<!-- precondition -->
<g id="node8" class="node">
<title>precondition</title>
<ellipse fill="gray" stroke="black" cx="2047.33" cy="-378" rx="118.87" ry="18"/>
<text text-anchor="middle" x="2047.33" y="-375.8" font-family="Times,serif" font-size="9.00">precondition: hold(clampgripper, shaft1)</text>
</g>
<!-- action -->
<g id="node11" class="node">
<title>action</title>
<ellipse fill="gray" stroke="black" cx="2362.33" cy="-378" rx="177.65" ry="18"/>
<text text-anchor="middle" x="2362.33" y="-375.8" font-family="Times,serif" font-size="9.00">action: insert(left_hand, clampgripper, shaft1, gearbase_hole1)</text>
</g>
<!-- sequence: change_tool(left_hand, parallelgripper, clampgripper) -->
<g id="node14" class="node">
<title>sequence: change_tool(left_hand, parallelgripper, clampgripper)</title>
<ellipse fill="none" stroke="black" cx="2371.33" cy="-234" rx="307.35" ry="18"/>
<text text-anchor="middle" x="2371.33" y="-230.3" font-family="Times,serif" font-size="14.00">sequence: change_tool(left_hand, parallelgripper, clampgripper)</text>
</g>
<!-- selector: change_tool_and_insert_shaft1&#45;&gt;sequence: change_tool(left_hand, parallelgripper, clampgripper) -->
<g id="edge8" class="edge">
<title>selector: change_tool_and_insert_shaft1&#45;&gt;sequence: change_tool(left_hand, parallelgripper, clampgripper)</title>
<path fill="none" stroke="black" d="M2371.33,-287.7C2371.33,-279.98 2371.33,-270.71 2371.33,-262.11"/>
<polygon fill="black" stroke="black" points="2374.83,-262.1 2371.33,-252.1 2367.83,-262.1 2374.83,-262.1"/>
</g>
<!-- sequence: pick_up_and_insert_shaft1 -->
<g id="node19" class="node">
<title>sequence: pick_up_and_insert_shaft1</title>
<ellipse fill="none" stroke="black" cx="3617.33" cy="-234" rx="181.97" ry="18"/>
<text text-anchor="middle" x="3617.33" y="-230.3" font-family="Times,serif" font-size="14.00">sequence: pick_up_and_insert_shaft1</text>
</g>
<!-- selector: change_tool_and_insert_shaft1&#45;&gt;sequence: pick_up_and_insert_shaft1 -->
<g id="edge13" class="edge">
<title>selector: change_tool_and_insert_shaft1&#45;&gt;sequence: pick_up_and_insert_shaft1</title>
<path fill="none" stroke="black" d="M2533.58,-295.88C2771.87,-282.5 3214.05,-257.66 3453.33,-244.21"/>
<polygon fill="black" stroke="black" points="3453.73,-247.7 3463.52,-243.64 3453.33,-240.71 3453.73,-247.7"/>
</g>
<!-- target: hold(left_hand, clampgripper) -->
<g id="node15" class="node">
<title>target: hold(left_hand, clampgripper)</title>
<ellipse fill="none" stroke="black" cx="1727.33" cy="-162" rx="183.07" ry="18"/>
<text text-anchor="middle" x="1727.33" y="-158.3" font-family="Times,serif" font-size="14.00">target: hold(left_hand, clampgripper)</text>
</g>
<!-- sequence: change_tool(left_hand, parallelgripper, clampgripper)&#45;&gt;target: hold(left_hand, clampgripper) -->
<g id="edge9" class="edge">
<title>sequence: change_tool(left_hand, parallelgripper, clampgripper)&#45;&gt;target: hold(left_hand, clampgripper)</title>
<path fill="none" stroke="black" d="M2232.38,-217.9C2120.42,-205.73 1964.24,-188.75 1855.31,-176.91"/>
<polygon fill="black" stroke="black" points="1855.57,-173.42 1845.25,-175.82 1854.81,-180.38 1855.57,-173.42"/>
</g>
<!-- precondition: hold(left_hand, parallelgripper)* -->
<g id="node16" class="node">
<title>precondition: hold(left_hand, parallelgripper)*</title>
<ellipse fill="none" stroke="black" cx="2153.33" cy="-162" rx="224.76" ry="18"/>
<text text-anchor="middle" x="2153.33" y="-158.3" font-family="Times,serif" font-size="14.00">precondition: hold(left_hand, parallelgripper)*</text>
</g>
<!-- sequence: change_tool(left_hand, parallelgripper, clampgripper)&#45;&gt;precondition: hold(left_hand, parallelgripper)* -->
<g id="edge10" class="edge">
<title>sequence: change_tool(left_hand, parallelgripper, clampgripper)&#45;&gt;precondition: hold(left_hand, parallelgripper)*</title>
<path fill="none" stroke="black" d="M2319.11,-216.23C2287.84,-206.19 2247.9,-193.37 2215.07,-182.82"/>
<polygon fill="black" stroke="black" points="2215.71,-179.35 2205.12,-179.63 2213.57,-186.02 2215.71,-179.35"/>
</g>
<!-- precondition: is_empty(parallelgripper) -->
<g id="node17" class="node">
<title>precondition: is_empty(parallelgripper)</title>
<ellipse fill="none" stroke="black" cx="2589.33" cy="-162" rx="193.07" ry="18"/>
<text text-anchor="middle" x="2589.33" y="-158.3" font-family="Times,serif" font-size="14.00">precondition: is_empty(parallelgripper)</text>
</g>
<!-- sequence: change_tool(left_hand, parallelgripper, clampgripper)&#45;&gt;precondition: is_empty(parallelgripper) -->
<g id="edge11" class="edge">
<title>sequence: change_tool(left_hand, parallelgripper, clampgripper)&#45;&gt;precondition: is_empty(parallelgripper)</title>
<path fill="none" stroke="black" d="M2423.55,-216.23C2455.19,-206.07 2495.69,-193.07 2528.74,-182.46"/>
<polygon fill="black" stroke="black" points="2529.84,-185.78 2538.29,-179.39 2527.7,-179.11 2529.84,-185.78"/>
</g>
<!-- action: change_tool(left_hand, parallelgripper, clampgripper) -->
<g id="node18" class="node">
<title>action: change_tool(left_hand, parallelgripper, clampgripper)</title>
<ellipse fill="none" stroke="black" cx="3093.33" cy="-162" rx="292.45" ry="18"/>
<text text-anchor="middle" x="3093.33" y="-158.3" font-family="Times,serif" font-size="14.00">action: change_tool(left_hand, parallelgripper, clampgripper)</text>
</g>
<!-- sequence: change_tool(left_hand, parallelgripper, clampgripper)&#45;&gt;action: change_tool(left_hand, parallelgripper, clampgripper) -->
<g id="edge12" class="edge">
<title>sequence: change_tool(left_hand, parallelgripper, clampgripper)&#45;&gt;action: change_tool(left_hand, parallelgripper, clampgripper)</title>
<path fill="none" stroke="black" d="M2522.69,-218.33C2643.04,-206.66 2810.98,-190.37 2933.5,-178.5"/>
<polygon fill="black" stroke="black" points="2934.11,-181.95 2943.72,-177.5 2933.43,-174.99 2934.11,-181.95"/>
</g>
<!-- selector: pick_up_shaft1_with_clampgripper -->
<g id="node20" class="node">
<title>selector: pick_up_shaft1_with_clampgripper</title>
<ellipse fill="none" stroke="black" cx="3617.33" cy="-162" rx="213.66" ry="18"/>
<text text-anchor="middle" x="3617.33" y="-158.3" font-family="Times,serif" font-size="14.00">selector: pick_up_shaft1_with_clampgripper</text>
</g>
<!-- sequence: pick_up_and_insert_shaft1&#45;&gt;selector: pick_up_shaft1_with_clampgripper -->
<g id="edge14" class="edge">
<title>sequence: pick_up_and_insert_shaft1&#45;&gt;selector: pick_up_shaft1_with_clampgripper</title>
<path fill="none" stroke="black" d="M3617.33,-215.7C3617.33,-207.98 3617.33,-198.71 3617.33,-190.11"/>
<polygon fill="black" stroke="black" points="3620.83,-190.1 3617.33,-180.1 3613.83,-190.1 3620.83,-190.1"/>
</g>
<!-- selector: insert_shaft1_into_gearbase_hole1 -->
<g id="node26" class="node">
<title>selector: insert_shaft1_into_gearbase_hole1</title>
<ellipse fill="none" stroke="black" cx="4286.33" cy="-162" rx="213.66" ry="18"/>
<text text-anchor="middle" x="4286.33" y="-158.3" font-family="Times,serif" font-size="14.00">selector: insert_shaft1_into_gearbase_hole1</text>
</g>
<!-- sequence: pick_up_and_insert_shaft1&#45;&gt;selector: insert_shaft1_into_gearbase_hole1 -->
<g id="edge20" class="edge">
<title>sequence: pick_up_and_insert_shaft1&#45;&gt;selector: insert_shaft1_into_gearbase_hole1</title>
<path fill="none" stroke="black" d="M3737.32,-220.45C3852.62,-208.38 4026.73,-190.16 4147.85,-177.49"/>
<polygon fill="black" stroke="black" points="4148.36,-180.96 4157.94,-176.43 4147.63,-173.99 4148.36,-180.96"/>
</g>
<!-- target: hold(clampgripper, shaft1) -->
<g id="node21" class="node">
<title>target: hold(clampgripper, shaft1)</title>
<ellipse fill="none" stroke="black" cx="3210.33" cy="-90" rx="168.97" ry="18"/>
<text text-anchor="middle" x="3210.33" y="-86.3" font-family="Times,serif" font-size="14.00">target: hold(clampgripper, shaft1)</text>
</g>
<!-- selector: pick_up_shaft1_with_clampgripper&#45;&gt;target: hold(clampgripper, shaft1) -->
<g id="edge15" class="edge">
<title>selector: pick_up_shaft1_with_clampgripper&#45;&gt;target: hold(clampgripper, shaft1)</title>
<path fill="none" stroke="black" d="M3528.01,-145.64C3462.13,-134.31 3372.64,-118.92 3305.43,-107.36"/>
<polygon fill="black" stroke="black" points="3305.71,-103.85 3295.26,-105.61 3304.53,-110.75 3305.71,-103.85"/>
</g>
<!-- sequence: pick_up_shaft1_with_clampgripper -->
<g id="node22" class="node">
<title>sequence: pick_up_shaft1_with_clampgripper</title>
<ellipse fill="none" stroke="black" cx="3617.33" cy="-90" rx="220.16" ry="18"/>
<text text-anchor="middle" x="3617.33" y="-86.3" font-family="Times,serif" font-size="14.00">sequence: pick_up_shaft1_with_clampgripper</text>
</g>
<!-- selector: pick_up_shaft1_with_clampgripper&#45;&gt;sequence: pick_up_shaft1_with_clampgripper -->
<g id="edge16" class="edge">
<title>selector: pick_up_shaft1_with_clampgripper&#45;&gt;sequence: pick_up_shaft1_with_clampgripper</title>
<path fill="none" stroke="black" d="M3617.33,-143.7C3617.33,-135.98 3617.33,-126.71 3617.33,-118.11"/>
<polygon fill="black" stroke="black" points="3620.83,-118.1 3617.33,-108.1 3613.83,-118.1 3620.83,-118.1"/>
</g>
<!-- precondition: hold(left_hand, clampgripper) -->
<g id="node23" class="node">
<title>precondition: hold(left_hand, clampgripper)</title>
<ellipse fill="none" stroke="black" cx="3148.33" cy="-18" rx="213.36" ry="18"/>
<text text-anchor="middle" x="3148.33" y="-14.3" font-family="Times,serif" font-size="14.00">precondition: hold(left_hand, clampgripper)</text>
</g>
<!-- sequence: pick_up_shaft1_with_clampgripper&#45;&gt;precondition: hold(left_hand, clampgripper) -->
<g id="edge17" class="edge">
<title>sequence: pick_up_shaft1_with_clampgripper&#45;&gt;precondition: hold(left_hand, clampgripper)</title>
<path fill="none" stroke="black" d="M3516.72,-73.98C3440.86,-62.66 3336.88,-47.14 3258.74,-35.48"/>
<polygon fill="black" stroke="black" points="3258.78,-31.95 3248.37,-33.93 3257.75,-38.87 3258.78,-31.95"/>
</g>
<!-- precondition: is_empty(clampgripper) -->
<g id="node24" class="node">
<title>precondition: is_empty(clampgripper)</title>
<ellipse fill="none" stroke="black" cx="3565.33" cy="-18" rx="185.77" ry="18"/>
<text text-anchor="middle" x="3565.33" y="-14.3" font-family="Times,serif" font-size="14.00">precondition: is_empty(clampgripper)</text>
</g>
<!-- sequence: pick_up_shaft1_with_clampgripper&#45;&gt;precondition: is_empty(clampgripper) -->
<g id="edge18" class="edge">
<title>sequence: pick_up_shaft1_with_clampgripper&#45;&gt;precondition: is_empty(clampgripper)</title>
<path fill="none" stroke="black" d="M3604.48,-71.7C3598.31,-63.39 3590.79,-53.28 3584.01,-44.14"/>
<polygon fill="black" stroke="black" points="3586.81,-42.04 3578.04,-36.1 3581.19,-46.22 3586.81,-42.04"/>
</g>
<!-- action: pick_up(left_hand, clampgripper, shaft1) -->
<g id="node25" class="node">
<title>action: pick_up(left_hand, clampgripper, shaft1)</title>
<ellipse fill="none" stroke="black" cx="4001.33" cy="-18" rx="232.06" ry="18"/>
<text text-anchor="middle" x="4001.33" y="-14.3" font-family="Times,serif" font-size="14.00">action: pick_up(left_hand, clampgripper, shaft1)</text>
</g>
<!-- sequence: pick_up_shaft1_with_clampgripper&#45;&gt;action: pick_up(left_hand, clampgripper, shaft1) -->
<g id="edge19" class="edge">
<title>sequence: pick_up_shaft1_with_clampgripper&#45;&gt;action: pick_up(left_hand, clampgripper, shaft1)</title>
<path fill="none" stroke="black" d="M3703.03,-73.38C3762.81,-62.48 3842.66,-47.92 3904.71,-36.61"/>
<polygon fill="black" stroke="black" points="3905.69,-39.99 3914.9,-34.76 3904.43,-33.11 3905.69,-39.99"/>
</g>
<!-- target: is_inserted_to(shaft1, gearbase_hole1) -->
<g id="node27" class="node">
<title>target: is_inserted_to(shaft1, gearbase_hole1)</title>
<ellipse fill="none" stroke="black" cx="4286.33" cy="-90" rx="223.66" ry="18"/>
<text text-anchor="middle" x="4286.33" y="-86.3" font-family="Times,serif" font-size="14.00">target: is_inserted_to(shaft1, gearbase_hole1)</text>
</g>
<!-- selector: insert_shaft1_into_gearbase_hole1&#45;&gt;target: is_inserted_to(shaft1, gearbase_hole1) -->
<g id="edge21" class="edge">
<title>selector: insert_shaft1_into_gearbase_hole1&#45;&gt;target: is_inserted_to(shaft1, gearbase_hole1)</title>
<path fill="none" stroke="black" d="M4286.33,-143.7C4286.33,-135.98 4286.33,-126.71 4286.33,-118.11"/>
<polygon fill="black" stroke="black" points="4289.83,-118.1 4286.33,-108.1 4282.83,-118.1 4289.83,-118.1"/>
</g>
<!-- sequence: insert_shaft1_into_gearbase_hole1 -->
<g id="node28" class="node">
<title>sequence: insert_shaft1_into_gearbase_hole1</title>
<ellipse fill="none" stroke="black" cx="4851.33" cy="-90" rx="219.86" ry="18"/>
<text text-anchor="middle" x="4851.33" y="-86.3" font-family="Times,serif" font-size="14.00">sequence: insert_shaft1_into_gearbase_hole1</text>
</g>
<!-- selector: insert_shaft1_into_gearbase_hole1&#45;&gt;sequence: insert_shaft1_into_gearbase_hole1 -->
<g id="edge22" class="edge">
<title>selector: insert_shaft1_into_gearbase_hole1&#45;&gt;sequence: insert_shaft1_into_gearbase_hole1</title>
<path fill="none" stroke="black" d="M4401.01,-146.79C4495.09,-135.14 4628.12,-118.65 4725.2,-106.63"/>
<polygon fill="black" stroke="black" points="4725.87,-110.07 4735.37,-105.37 4725.01,-103.12 4725.87,-110.07"/>
</g>
<!-- precondition: hold(left_hand, clampgripper)* -->
<g id="node29" class="node">
<title>precondition: hold(left_hand, clampgripper)*</title>
<ellipse fill="none" stroke="black" cx="4469.33" cy="-18" rx="217.96" ry="18"/>
<text text-anchor="middle" x="4469.33" y="-14.3" font-family="Times,serif" font-size="14.00">precondition: hold(left_hand, clampgripper)*</text>
</g>
<!-- sequence: insert_shaft1_into_gearbase_hole1&#45;&gt;precondition: hold(left_hand, clampgripper)* -->
<g id="edge23" class="edge">
<title>sequence: insert_shaft1_into_gearbase_hole1&#45;&gt;precondition: hold(left_hand, clampgripper)*</title>
<path fill="none" stroke="black" d="M4766.08,-73.38C4706.3,-62.42 4626.33,-47.77 4564.48,-36.44"/>
<polygon fill="black" stroke="black" points="4564.79,-32.93 4554.32,-34.57 4563.53,-39.82 4564.79,-32.93"/>
</g>
<!-- precondition: hold(clampgripper, shaft1) -->
<g id="node30" class="node">
<title>precondition: hold(clampgripper, shaft1)</title>
<ellipse fill="none" stroke="black" cx="4903.33" cy="-18" rx="198.47" ry="18"/>
<text text-anchor="middle" x="4903.33" y="-14.3" font-family="Times,serif" font-size="14.00">precondition: hold(clampgripper, shaft1)</text>
</g>
<!-- sequence: insert_shaft1_into_gearbase_hole1&#45;&gt;precondition: hold(clampgripper, shaft1) -->
<g id="edge24" class="edge">
<title>sequence: insert_shaft1_into_gearbase_hole1&#45;&gt;precondition: hold(clampgripper, shaft1)</title>
<path fill="none" stroke="black" d="M4864.18,-71.7C4870.36,-63.39 4877.87,-53.28 4884.65,-44.14"/>
<polygon fill="black" stroke="black" points="4887.47,-46.22 4890.62,-36.1 4881.85,-42.04 4887.47,-46.22"/>
</g>
<!-- action: insert(left_hand, clampgripper, shaft1, gearbase_hole1) -->
<g id="node31" class="node">
<title>action: insert(left_hand, clampgripper, shaft1, gearbase_hole1)</title>
<ellipse fill="none" stroke="black" cx="5421.33" cy="-18" rx="302.45" ry="18"/>
<text text-anchor="middle" x="5421.33" y="-14.3" font-family="Times,serif" font-size="14.00">action: insert(left_hand, clampgripper, shaft1, gearbase_hole1)</text>
</g>
<!-- sequence: insert_shaft1_into_gearbase_hole1&#45;&gt;action: insert(left_hand, clampgripper, shaft1, gearbase_hole1) -->
<g id="edge25" class="edge">
<title>sequence: insert_shaft1_into_gearbase_hole1&#45;&gt;action: insert(left_hand, clampgripper, shaft1, gearbase_hole1)</title>
<path fill="none" stroke="black" d="M4967.71,-74.71C5059.93,-63.38 5188.93,-47.54 5285.8,-35.64"/>
<polygon fill="black" stroke="black" points="5286.46,-39.09 5295.96,-34.4 5285.61,-32.14 5286.46,-39.09"/>
</g>
</g>
</svg>
