<?xml version="1.0" encoding="UTF-8" standalone="no"?>
<!DOCTYPE svg PUBLIC "-//W3C//DTD SVG 1.1//EN"
 "http://www.w3.org/Graphics/SVG/1.1/DTD/svg11.dtd">
<!-- Generated by graphviz version 2.43.0 (0)
 -->
<!-- Title: pastafarianism Pages: 1 -->
<svg width="4282pt" height="332pt"
 viewBox="0.00 0.00 4281.80 332.00" xmlns="http://www.w3.org/2000/svg" xmlns:xlink="http://www.w3.org/1999/xlink">
<g id="graph0" class="graph" transform="scale(1 1) rotate(0) translate(4 328)">
<title>pastafarianism</title>
<polygon fill="white" stroke="transparent" points="-4,4 -4,-328 4277.8,-328 4277.8,4 -4,4"/>
<!-- selector -->
<g id="node1" class="node">
<title>selector</title>
<polygon fill="cyan" stroke="black" points="1162.05,-298.54 1162.05,-313.46 1090.31,-324 988.85,-324 917.11,-313.46 917.11,-298.54 988.85,-288 1090.31,-288 1162.05,-298.54"/>
<text text-anchor="middle" x="1039.58" y="-303.8" font-family="Times,serif" font-size="9.00">selector: insert_shaft1_gearbase_hole1</text>
</g>
<!-- target -->
<g id="node2" class="node">
<title>target</title>
<ellipse fill="gray" stroke="black" cx="1314.58" cy="-306" rx="134.55" ry="18"/>
<text text-anchor="middle" x="1314.58" y="-303.8" font-family="Times,serif" font-size="9.00">target: is_inserted_to(shaft1, gearbase_hole1)*</text>
</g>
<!-- selector: insert_shaft1_into_gearbase_hole1 -->
<g id="node3" class="node">
<title>selector: insert_shaft1_into_gearbase_hole1</title>
<ellipse fill="none" stroke="black" cx="1680.58" cy="-306" rx="213.66" ry="18"/>
<text text-anchor="middle" x="1680.58" y="-302.3" font-family="Times,serif" font-size="14.00">selector: insert_shaft1_into_gearbase_hole1</text>
</g>
<!-- target: is_inserted_to(shaft1, gearbase_hole1) -->
<g id="node4" class="node">
<title>target: is_inserted_to(shaft1, gearbase_hole1)</title>
<ellipse fill="none" stroke="black" cx="1450.58" cy="-234" rx="223.66" ry="18"/>
<text text-anchor="middle" x="1450.58" y="-230.3" font-family="Times,serif" font-size="14.00">target: is_inserted_to(shaft1, gearbase_hole1)</text>
</g>
<!-- selector: insert_shaft1_into_gearbase_hole1&#45;&gt;target: is_inserted_to(shaft1, gearbase_hole1) -->
<g id="edge1" class="edge">
<title>selector: insert_shaft1_into_gearbase_hole1&#45;&gt;target: is_inserted_to(shaft1, gearbase_hole1)</title>
<path fill="none" stroke="black" d="M1626.36,-288.5C1592.86,-278.3 1549.69,-265.17 1514.52,-254.46"/>
<polygon fill="black" stroke="black" points="1515.42,-251.07 1504.83,-251.51 1513.38,-257.77 1515.42,-251.07"/>
</g>
<!-- sequence: insert_shaft1_into_gearbase_hole1 -->
<g id="node6" class="node">
<title>sequence: insert_shaft1_into_gearbase_hole1</title>
<ellipse fill="none" stroke="black" cx="1911.58" cy="-234" rx="219.86" ry="18"/>
<text text-anchor="middle" x="1911.58" y="-230.3" font-family="Times,serif" font-size="14.00">sequence: insert_shaft1_into_gearbase_hole1</text>
</g>
<!-- selector: insert_shaft1_into_gearbase_hole1&#45;&gt;sequence: insert_shaft1_into_gearbase_hole1 -->
<g id="edge2" class="edge">
<title>selector: insert_shaft1_into_gearbase_hole1&#45;&gt;sequence: insert_shaft1_into_gearbase_hole1</title>
<path fill="none" stroke="black" d="M1735.03,-288.5C1768.68,-278.3 1812.04,-265.17 1847.36,-254.46"/>
<polygon fill="black" stroke="black" points="1848.54,-257.76 1857.09,-251.51 1846.51,-251.06 1848.54,-257.76"/>
</g>
<!-- sequence -->
<g id="node5" class="node">
<title>sequence</title>
<polygon fill="orange" stroke="black" points="2115.08,-324 1912.08,-324 1912.08,-288 2115.08,-288 2115.08,-324"/>
<text text-anchor="middle" x="2013.58" y="-303.8" font-family="Times,serif" font-size="9.00">sequence: insert_shaft1_gearbase_hole1</text>
</g>
<!-- selector: change_tool(left_hand, outwardgripper, clampgripper) -->
<g id="node7" class="node">
<title>selector: change_tool(left_hand, outwardgripper, clampgripper)</title>
<ellipse fill="none" stroke="black" cx="916.58" cy="-162" rx="304.65" ry="18"/>
<text text-anchor="middle" x="916.58" y="-158.3" font-family="Times,serif" font-size="14.00">selector: change_tool(left_hand, outwardgripper, clampgripper)</text>
</g>
<!-- sequence: insert_shaft1_into_gearbase_hole1&#45;&gt;selector: change_tool(left_hand, outwardgripper, clampgripper) -->
<g id="edge3" class="edge">
<title>sequence: insert_shaft1_into_gearbase_hole1&#45;&gt;selector: change_tool(left_hand, outwardgripper, clampgripper)</title>
<path fill="none" stroke="black" d="M1755.83,-221.27C1731.64,-219.49 1706.94,-217.68 1683.58,-216 1492.08,-202.24 1273.63,-187.21 1118.97,-176.68"/>
<polygon fill="black" stroke="black" points="1119.09,-173.18 1108.88,-176 1118.62,-180.17 1119.09,-173.18"/>
</g>
<!-- selector: pick_up_shaft1_with_clampgripper -->
<g id="node15" class="node">
<title>selector: pick_up_shaft1_with_clampgripper</title>
<ellipse fill="none" stroke="black" cx="1911.58" cy="-162" rx="213.66" ry="18"/>
<text text-anchor="middle" x="1911.58" y="-158.3" font-family="Times,serif" font-size="14.00">selector: pick_up_shaft1_with_clampgripper</text>
</g>
<!-- sequence: insert_shaft1_into_gearbase_hole1&#45;&gt;selector: pick_up_shaft1_with_clampgripper -->
<g id="edge9" class="edge">
<title>sequence: insert_shaft1_into_gearbase_hole1&#45;&gt;selector: pick_up_shaft1_with_clampgripper</title>
<path fill="none" stroke="black" d="M1911.58,-215.7C1911.58,-207.98 1911.58,-198.71 1911.58,-190.11"/>
<polygon fill="black" stroke="black" points="1915.08,-190.1 1911.58,-180.1 1908.08,-190.1 1915.08,-190.1"/>
</g>
<!-- selector: insert_shaft1_gearbase_hole1 -->
<g id="node21" class="node">
<title>selector: insert_shaft1_gearbase_hole1</title>
<ellipse fill="none" stroke="black" cx="2795.58" cy="-162" rx="191.17" ry="18"/>
<text text-anchor="middle" x="2795.58" y="-158.3" font-family="Times,serif" font-size="14.00">selector: insert_shaft1_gearbase_hole1</text>
</g>
<!-- sequence: insert_shaft1_into_gearbase_hole1&#45;&gt;selector: insert_shaft1_gearbase_hole1 -->
<g id="edge15" class="edge">
<title>sequence: insert_shaft1_into_gearbase_hole1&#45;&gt;selector: insert_shaft1_gearbase_hole1</title>
<path fill="none" stroke="black" d="M2063.55,-220.97C2226.01,-208.1 2482.08,-187.83 2644.28,-174.98"/>
<polygon fill="black" stroke="black" points="2644.65,-178.46 2654.35,-174.18 2644.1,-171.48 2644.65,-178.46"/>
</g>
<!-- target: hold(left_hand, clampgripper) -->
<g id="node8" class="node">
<title>target: hold(left_hand, clampgripper)</title>
<ellipse fill="none" stroke="black" cx="403.58" cy="-90" rx="183.07" ry="18"/>
<text text-anchor="middle" x="403.58" y="-86.3" font-family="Times,serif" font-size="14.00">target: hold(left_hand, clampgripper)</text>
</g>
<!-- selector: change_tool(left_hand, outwardgripper, clampgripper)&#45;&gt;target: hold(left_hand, clampgripper) -->
<g id="edge4" class="edge">
<title>selector: change_tool(left_hand, outwardgripper, clampgripper)&#45;&gt;target: hold(left_hand, clampgripper)</title>
<path fill="none" stroke="black" d="M801.45,-145.29C716.29,-133.67 600.9,-117.92 516.31,-106.38"/>
<polygon fill="black" stroke="black" points="516.53,-102.88 506.15,-105 515.59,-109.82 516.53,-102.88"/>
</g>
<!-- sequence: change_tool(left_hand, outwardgripper, clampgripper) -->
<g id="node9" class="node">
<title>sequence: change_tool(left_hand, outwardgripper, clampgripper)</title>
<ellipse fill="none" stroke="black" cx="916.58" cy="-90" rx="311.14" ry="18"/>
<text text-anchor="middle" x="916.58" y="-86.3" font-family="Times,serif" font-size="14.00">sequence: change_tool(left_hand, outwardgripper, clampgripper)</text>
</g>
<!-- selector: change_tool(left_hand, outwardgripper, clampgripper)&#45;&gt;sequence: change_tool(left_hand, outwardgripper, clampgripper) -->
<g id="edge5" class="edge">
<title>selector: change_tool(left_hand, outwardgripper, clampgripper)&#45;&gt;sequence: change_tool(left_hand, outwardgripper, clampgripper)</title>
<path fill="none" stroke="black" d="M916.58,-143.7C916.58,-135.98 916.58,-126.71 916.58,-118.11"/>
<polygon fill="black" stroke="black" points="920.08,-118.1 916.58,-108.1 913.08,-118.1 920.08,-118.1"/>
</g>
<!-- precondition: hold(left_hand, outwardgripper) -->
<g id="node11" class="node">
<title>precondition: hold(left_hand, outwardgripper)</title>
<ellipse fill="none" stroke="black" cx="223.58" cy="-18" rx="223.66" ry="18"/>
<text text-anchor="middle" x="223.58" y="-14.3" font-family="Times,serif" font-size="14.00">precondition: hold(left_hand, outwardgripper)</text>
</g>
<!-- sequence: change_tool(left_hand, outwardgripper, clampgripper)&#45;&gt;precondition: hold(left_hand, outwardgripper) -->
<g id="edge6" class="edge">
<title>sequence: change_tool(left_hand, outwardgripper, clampgripper)&#45;&gt;precondition: hold(left_hand, outwardgripper)</title>
<path fill="none" stroke="black" d="M769.19,-74.11C650.54,-62.13 484.75,-45.38 367.13,-33.5"/>
<polygon fill="black" stroke="black" points="367.28,-30 356.98,-32.47 366.57,-36.96 367.28,-30"/>
</g>
<!-- precondition: is_empty(outwardgripper) -->
<g id="node12" class="node">
<title>precondition: is_empty(outwardgripper)</title>
<ellipse fill="none" stroke="black" cx="661.58" cy="-18" rx="196.07" ry="18"/>
<text text-anchor="middle" x="661.58" y="-14.3" font-family="Times,serif" font-size="14.00">precondition: is_empty(outwardgripper)</text>
</g>
<!-- sequence: change_tool(left_hand, outwardgripper, clampgripper)&#45;&gt;precondition: is_empty(outwardgripper) -->
<g id="edge7" class="edge">
<title>sequence: change_tool(left_hand, outwardgripper, clampgripper)&#45;&gt;precondition: is_empty(outwardgripper)</title>
<path fill="none" stroke="black" d="M855.83,-72.32C818.07,-61.96 769.45,-48.61 730.29,-37.86"/>
<polygon fill="black" stroke="black" points="731.12,-34.46 720.55,-35.19 729.27,-41.21 731.12,-34.46"/>
</g>
<!-- action: change_tool(left_hand, outwardgripper, clampgripper) -->
<g id="node14" class="node">
<title>action: change_tool(left_hand, outwardgripper, clampgripper)</title>
<ellipse fill="none" stroke="black" cx="1171.58" cy="-18" rx="295.95" ry="18"/>
<text text-anchor="middle" x="1171.58" y="-14.3" font-family="Times,serif" font-size="14.00">action: change_tool(left_hand, outwardgripper, clampgripper)</text>
</g>
<!-- sequence: change_tool(left_hand, outwardgripper, clampgripper)&#45;&gt;action: change_tool(left_hand, outwardgripper, clampgripper) -->
<g id="edge8" class="edge">
<title>sequence: change_tool(left_hand, outwardgripper, clampgripper)&#45;&gt;action: change_tool(left_hand, outwardgripper, clampgripper)</title>
<path fill="none" stroke="black" d="M977.34,-72.32C1014.55,-62.11 1062.32,-48.99 1101.17,-38.33"/>
<polygon fill="black" stroke="black" points="1102.13,-41.69 1110.85,-35.67 1100.28,-34.94 1102.13,-41.69"/>
</g>
<!-- precondition -->
<g id="node10" class="node">
<title>precondition</title>
<ellipse fill="gray" stroke="black" cx="2251.58" cy="-306" rx="118.87" ry="18"/>
<text text-anchor="middle" x="2251.58" y="-303.8" font-family="Times,serif" font-size="9.00">precondition: hold(clampgripper, shaft1)</text>
</g>
<!-- action -->
<g id="node13" class="node">
<title>action</title>
<ellipse fill="gray" stroke="black" cx="2566.58" cy="-306" rx="177.65" ry="18"/>
<text text-anchor="middle" x="2566.58" y="-303.8" font-family="Times,serif" font-size="9.00">action: insert(left_hand, clampgripper, shaft1, gearbase_hole1)</text>
</g>
<!-- target: hold(clampgripper, shaft1) -->
<g id="node16" class="node">
<title>target: hold(clampgripper, shaft1)</title>
<ellipse fill="none" stroke="black" cx="1708.58" cy="-90" rx="168.97" ry="18"/>
<text text-anchor="middle" x="1708.58" y="-86.3" font-family="Times,serif" font-size="14.00">target: hold(clampgripper, shaft1)</text>
</g>
<!-- selector: pick_up_shaft1_with_clampgripper&#45;&gt;target: hold(clampgripper, shaft1) -->
<g id="edge10" class="edge">
<title>selector: pick_up_shaft1_with_clampgripper&#45;&gt;target: hold(clampgripper, shaft1)</title>
<path fill="none" stroke="black" d="M1863.47,-144.41C1834.17,-134.31 1796.56,-121.34 1765.74,-110.71"/>
<polygon fill="black" stroke="black" points="1766.59,-107.3 1755.99,-107.35 1764.31,-113.92 1766.59,-107.3"/>
</g>
<!-- sequence: pick_up_shaft1_with_clampgripper -->
<g id="node17" class="node">
<title>sequence: pick_up_shaft1_with_clampgripper</title>
<ellipse fill="none" stroke="black" cx="2115.58" cy="-90" rx="220.16" ry="18"/>
<text text-anchor="middle" x="2115.58" y="-86.3" font-family="Times,serif" font-size="14.00">sequence: pick_up_shaft1_with_clampgripper</text>
</g>
<!-- selector: pick_up_shaft1_with_clampgripper&#45;&gt;sequence: pick_up_shaft1_with_clampgripper -->
<g id="edge11" class="edge">
<title>selector: pick_up_shaft1_with_clampgripper&#45;&gt;sequence: pick_up_shaft1_with_clampgripper</title>
<path fill="none" stroke="black" d="M1959.93,-144.41C1989.16,-134.38 2026.62,-121.52 2057.47,-110.94"/>
<polygon fill="black" stroke="black" points="2058.91,-114.15 2067.23,-107.59 2056.63,-107.53 2058.91,-114.15"/>
</g>
<!-- precondition: hold(left_hand, clampgripper) -->
<g id="node18" class="node">
<title>precondition: hold(left_hand, clampgripper)</title>
<ellipse fill="none" stroke="black" cx="1698.58" cy="-18" rx="213.36" ry="18"/>
<text text-anchor="middle" x="1698.58" y="-14.3" font-family="Times,serif" font-size="14.00">precondition: hold(left_hand, clampgripper)</text>
</g>
<!-- sequence: pick_up_shaft1_with_clampgripper&#45;&gt;precondition: hold(left_hand, clampgripper) -->
<g id="edge12" class="edge">
<title>sequence: pick_up_shaft1_with_clampgripper&#45;&gt;precondition: hold(left_hand, clampgripper)</title>
<path fill="none" stroke="black" d="M2023.81,-73.59C1957.53,-62.47 1868.03,-47.44 1799.69,-35.97"/>
<polygon fill="black" stroke="black" points="1800.21,-32.51 1789.77,-34.31 1799.05,-39.41 1800.21,-32.51"/>
</g>
<!-- precondition: is_empty(clampgripper) -->
<g id="node19" class="node">
<title>precondition: is_empty(clampgripper)</title>
<ellipse fill="none" stroke="black" cx="2115.58" cy="-18" rx="185.77" ry="18"/>
<text text-anchor="middle" x="2115.58" y="-14.3" font-family="Times,serif" font-size="14.00">precondition: is_empty(clampgripper)</text>
</g>
<!-- sequence: pick_up_shaft1_with_clampgripper&#45;&gt;precondition: is_empty(clampgripper) -->
<g id="edge13" class="edge">
<title>sequence: pick_up_shaft1_with_clampgripper&#45;&gt;precondition: is_empty(clampgripper)</title>
<path fill="none" stroke="black" d="M2115.58,-71.7C2115.58,-63.98 2115.58,-54.71 2115.58,-46.11"/>
<polygon fill="black" stroke="black" points="2119.08,-46.1 2115.58,-36.1 2112.08,-46.1 2119.08,-46.1"/>
</g>
<!-- action: pick_up(left_hand, clampgripper, shaft1) -->
<g id="node20" class="node">
<title>action: pick_up(left_hand, clampgripper, shaft1)</title>
<ellipse fill="none" stroke="black" cx="2551.58" cy="-18" rx="232.06" ry="18"/>
<text text-anchor="middle" x="2551.58" y="-14.3" font-family="Times,serif" font-size="14.00">action: pick_up(left_hand, clampgripper, shaft1)</text>
</g>
<!-- sequence: pick_up_shaft1_with_clampgripper&#45;&gt;action: pick_up(left_hand, clampgripper, shaft1) -->
<g id="edge14" class="edge">
<title>sequence: pick_up_shaft1_with_clampgripper&#45;&gt;action: pick_up(left_hand, clampgripper, shaft1)</title>
<path fill="none" stroke="black" d="M2210.72,-73.72C2280,-62.6 2373.86,-47.53 2445.55,-36.02"/>
<polygon fill="black" stroke="black" points="2446.19,-39.47 2455.51,-34.42 2445.08,-32.55 2446.19,-39.47"/>
</g>
<!-- target: is_inserted_to(shaft1, gearbase_hole1)* -->
<g id="node22" class="node">
<title>target: is_inserted_to(shaft1, gearbase_hole1)*</title>
<ellipse fill="none" stroke="black" cx="2795.58" cy="-90" rx="228.26" ry="18"/>
<text text-anchor="middle" x="2795.58" y="-86.3" font-family="Times,serif" font-size="14.00">target: is_inserted_to(shaft1, gearbase_hole1)*</text>
</g>
<!-- selector: insert_shaft1_gearbase_hole1&#45;&gt;target: is_inserted_to(shaft1, gearbase_hole1)* -->
<g id="edge16" class="edge">
<title>selector: insert_shaft1_gearbase_hole1&#45;&gt;target: is_inserted_to(shaft1, gearbase_hole1)*</title>
<path fill="none" stroke="black" d="M2795.58,-143.7C2795.58,-135.98 2795.58,-126.71 2795.58,-118.11"/>
<polygon fill="black" stroke="black" points="2799.08,-118.1 2795.58,-108.1 2792.08,-118.1 2799.08,-118.1"/>
</g>
<!-- sequence: insert_shaft1_gearbase_hole1 -->
<g id="node23" class="node">
<title>sequence: insert_shaft1_gearbase_hole1</title>
<ellipse fill="none" stroke="black" cx="3346.58" cy="-90" rx="197.66" ry="18"/>
<text text-anchor="middle" x="3346.58" y="-86.3" font-family="Times,serif" font-size="14.00">sequence: insert_shaft1_gearbase_hole1</text>
</g>
<!-- selector: insert_shaft1_gearbase_hole1&#45;&gt;sequence: insert_shaft1_gearbase_hole1 -->
<g id="edge17" class="edge">
<title>selector: insert_shaft1_gearbase_hole1&#45;&gt;sequence: insert_shaft1_gearbase_hole1</title>
<path fill="none" stroke="black" d="M2904.44,-147.17C2997.28,-135.38 3130.57,-118.44 3226.49,-106.26"/>
<polygon fill="black" stroke="black" points="3227.05,-109.71 3236.53,-104.98 3226.17,-102.77 3227.05,-109.71"/>
</g>
<!-- precondition: hold(left_hand, clampgripper)* -->
<g id="node24" class="node">
<title>precondition: hold(left_hand, clampgripper)*</title>
<ellipse fill="none" stroke="black" cx="3019.58" cy="-18" rx="217.96" ry="18"/>
<text text-anchor="middle" x="3019.58" y="-14.3" font-family="Times,serif" font-size="14.00">precondition: hold(left_hand, clampgripper)*</text>
</g>
<!-- sequence: insert_shaft1_gearbase_hole1&#45;&gt;precondition: hold(left_hand, clampgripper)* -->
<g id="edge18" class="edge">
<title>sequence: insert_shaft1_gearbase_hole1&#45;&gt;precondition: hold(left_hand, clampgripper)*</title>
<path fill="none" stroke="black" d="M3272.79,-73.2C3222.62,-62.46 3156.13,-48.23 3103.87,-37.04"/>
<polygon fill="black" stroke="black" points="3104.46,-33.59 3093.95,-34.92 3103,-40.44 3104.46,-33.59"/>
</g>
<!-- precondition: hold(clampgripper, shaft1) -->
<g id="node25" class="node">
<title>precondition: hold(clampgripper, shaft1)</title>
<ellipse fill="none" stroke="black" cx="3453.58" cy="-18" rx="198.47" ry="18"/>
<text text-anchor="middle" x="3453.58" y="-14.3" font-family="Times,serif" font-size="14.00">precondition: hold(clampgripper, shaft1)</text>
</g>
<!-- sequence: insert_shaft1_gearbase_hole1&#45;&gt;precondition: hold(clampgripper, shaft1) -->
<g id="edge19" class="edge">
<title>sequence: insert_shaft1_gearbase_hole1&#45;&gt;precondition: hold(clampgripper, shaft1)</title>
<path fill="none" stroke="black" d="M3372.48,-72.05C3386.44,-62.92 3403.85,-51.53 3418.96,-41.65"/>
<polygon fill="black" stroke="black" points="3421.09,-44.44 3427.55,-36.03 3417.26,-38.58 3421.09,-44.44"/>
</g>
<!-- action: insert(left_hand, clampgripper, shaft1, gearbase_hole1) -->
<g id="node26" class="node">
<title>action: insert(left_hand, clampgripper, shaft1, gearbase_hole1)</title>
<ellipse fill="none" stroke="black" cx="3971.58" cy="-18" rx="302.45" ry="18"/>
<text text-anchor="middle" x="3971.58" y="-14.3" font-family="Times,serif" font-size="14.00">action: insert(left_hand, clampgripper, shaft1, gearbase_hole1)</text>
</g>
<!-- sequence: insert_shaft1_gearbase_hole1&#45;&gt;action: insert(left_hand, clampgripper, shaft1, gearbase_hole1) -->
<g id="edge20" class="edge">
<title>sequence: insert_shaft1_gearbase_hole1&#45;&gt;action: insert(left_hand, clampgripper, shaft1, gearbase_hole1)</title>
<path fill="none" stroke="black" d="M3465.98,-75.63C3568.62,-64.13 3716.99,-47.51 3826.46,-35.25"/>
<polygon fill="black" stroke="black" points="3827.05,-38.71 3836.6,-34.12 3826.27,-31.75 3827.05,-38.71"/>
</g>
</g>
</svg>
