<?xml version="1.0" encoding="UTF-8" standalone="no"?>
<!DOCTYPE svg PUBLIC "-//W3C//DTD SVG 1.1//EN"
 "http://www.w3.org/Graphics/SVG/1.1/DTD/svg11.dtd">
<!-- Generated by graphviz version 2.43.0 (0)
 -->
<!-- Title: BT Pages: 1 -->
<svg width="1234pt" height="462pt"
 viewBox="0.00 0.00 1233.54 462.00" xmlns="http://www.w3.org/2000/svg" xmlns:xlink="http://www.w3.org/1999/xlink">
<g id="graph0" class="graph" transform="scale(1 1) rotate(0) translate(4 458)">
<title>BT</title>
<polygon fill="white" stroke="transparent" points="-4,4 -4,-458 1229.54,-458 1229.54,4 -4,4"/>
<!-- n1 -->
<g id="node1" class="node">
<title>n1</title>
<polygon fill="none" stroke="black" points="629.54,-454 600.54,-454 600.54,-425 629.54,-425 629.54,-454"/>
<text text-anchor="middle" x="615.04" y="-435.8" font-family="Times,serif" font-size="14.00">→</text>
</g>
<!-- n2 -->
<g id="node2" class="node">
<title>n2</title>
<polygon fill="none" stroke="black" points="355.54,-389 326.54,-389 326.54,-360 355.54,-360 355.54,-389"/>
<text text-anchor="middle" x="341.04" y="-370.8" font-family="Times,serif" font-size="14.00">?</text>
</g>
<!-- n1&#45;&gt;n2 -->
<g id="edge11" class="edge">
<title>n1&#45;&gt;n2</title>
<path fill="none" stroke="black" d="M600.3,-435.11C555.7,-424.86 421.77,-394.06 365.92,-381.22"/>
<polygon fill="black" stroke="black" points="366.37,-377.73 355.84,-378.9 364.8,-384.56 366.37,-377.73"/>
</g>
<!-- n13 -->
<g id="node13" class="node">
<title>n13</title>
<polygon fill="none" stroke="black" points="629.54,-389 600.54,-389 600.54,-360 629.54,-360 629.54,-389"/>
<text text-anchor="middle" x="615.04" y="-370.8" font-family="Times,serif" font-size="14.00">?</text>
</g>
<!-- n1&#45;&gt;n13 -->
<g id="edge22" class="edge">
<title>n1&#45;&gt;n13</title>
<path fill="none" stroke="black" d="M615.04,-424.83C615.04,-417.4 615.04,-408 615.04,-399.4"/>
<polygon fill="black" stroke="black" points="618.54,-399.14 615.04,-389.14 611.54,-399.14 618.54,-399.14"/>
</g>
<!-- n24 -->
<g id="node24" class="node">
<title>n24</title>
<polygon fill="none" stroke="black" points="896.54,-389 867.54,-389 867.54,-360 896.54,-360 896.54,-389"/>
<text text-anchor="middle" x="882.04" y="-370.8" font-family="Times,serif" font-size="14.00">?</text>
</g>
<!-- n1&#45;&gt;n24 -->
<g id="edge33" class="edge">
<title>n1&#45;&gt;n24</title>
<path fill="none" stroke="black" d="M629.77,-435.02C673.54,-424.7 803.08,-394.13 857.51,-381.29"/>
<polygon fill="black" stroke="black" points="858.42,-384.67 867.35,-378.97 856.81,-377.86 858.42,-384.67"/>
</g>
<!-- n3 -->
<g id="node3" class="node">
<title>n3</title>
<ellipse fill="none" stroke="black" cx="154.04" cy="-306" rx="154.07" ry="18"/>
<text text-anchor="middle" x="154.04" y="-302.3" font-family="Times,serif" font-size="14.00">YellowBox at p1 in KittingBox?</text>
</g>
<!-- n2&#45;&gt;n3 -->
<g id="edge1" class="edge">
<title>n2&#45;&gt;n3</title>
<path fill="none" stroke="black" d="M326.36,-368.28C301.41,-359.41 249.51,-340.95 209.15,-326.6"/>
<polygon fill="black" stroke="black" points="210.28,-323.29 199.68,-323.23 207.93,-329.88 210.28,-323.29"/>
</g>
<!-- n4 -->
<g id="node4" class="node">
<title>n4</title>
<polygon fill="none" stroke="black" points="355.54,-320.5 326.54,-320.5 326.54,-291.5 355.54,-291.5 355.54,-320.5"/>
<text text-anchor="middle" x="341.04" y="-302.3" font-family="Times,serif" font-size="14.00">→</text>
</g>
<!-- n2&#45;&gt;n4 -->
<g id="edge10" class="edge">
<title>n2&#45;&gt;n4</title>
<path fill="none" stroke="black" d="M341.04,-359.72C341.04,-351.43 341.04,-340.64 341.04,-330.99"/>
<polygon fill="black" stroke="black" points="344.54,-330.76 341.04,-320.76 337.54,-330.76 344.54,-330.76"/>
</g>
<!-- n5 -->
<g id="node5" class="node">
<title>n5</title>
<polygon fill="none" stroke="black" points="201.54,-248.5 172.54,-248.5 172.54,-219.5 201.54,-219.5 201.54,-248.5"/>
<text text-anchor="middle" x="187.04" y="-230.3" font-family="Times,serif" font-size="14.00">?</text>
</g>
<!-- n4&#45;&gt;n5 -->
<g id="edge8" class="edge">
<title>n4&#45;&gt;n5</title>
<path fill="none" stroke="black" d="M326.48,-293.69C323.46,-291.63 320.22,-289.62 317.04,-288 272.72,-265.39 255.35,-274.61 211.04,-252 210.74,-251.85 210.44,-251.69 210.14,-251.53"/>
<polygon fill="black" stroke="black" points="211.95,-248.54 201.59,-246.31 208.3,-254.51 211.95,-248.54"/>
</g>
<!-- n12 -->
<g id="node12" class="node">
<title>n12</title>
<polygon fill="none" stroke="black" points="492.04,-252 220.04,-252 220.04,-216 492.04,-216 492.04,-252"/>
<text text-anchor="middle" x="356.04" y="-230.3" font-family="Times,serif" font-size="14.00">Place YellowBox at p1 in KittingBox</text>
</g>
<!-- n4&#45;&gt;n12 -->
<g id="edge9" class="edge">
<title>n4&#45;&gt;n12</title>
<path fill="none" stroke="black" d="M344,-291.17C345.79,-282.83 348.12,-271.92 350.26,-261.94"/>
<polygon fill="black" stroke="black" points="353.72,-262.53 352.39,-252.02 346.87,-261.06 353.72,-262.53"/>
</g>
<!-- n6 -->
<g id="node6" class="node">
<title>n6</title>
<ellipse fill="none" stroke="black" cx="155.04" cy="-162" rx="112.38" ry="18"/>
<text text-anchor="middle" x="155.04" y="-158.3" font-family="Times,serif" font-size="14.00">In gripper YellowBox?</text>
</g>
<!-- n5&#45;&gt;n6 -->
<g id="edge2" class="edge">
<title>n5&#45;&gt;n6</title>
<path fill="none" stroke="black" d="M180.71,-219.17C176.82,-210.66 171.71,-199.46 167.06,-189.31"/>
<polygon fill="black" stroke="black" points="170.16,-187.66 162.82,-180.02 163.79,-190.57 170.16,-187.66"/>
</g>
<!-- n7 -->
<g id="node7" class="node">
<title>n7</title>
<polygon fill="none" stroke="black" points="314.54,-176.5 285.54,-176.5 285.54,-147.5 314.54,-147.5 314.54,-176.5"/>
<text text-anchor="middle" x="300.04" y="-158.3" font-family="Times,serif" font-size="14.00">→</text>
</g>
<!-- n5&#45;&gt;n7 -->
<g id="edge7" class="edge">
<title>n5&#45;&gt;n7</title>
<path fill="none" stroke="black" d="M201.58,-222.31C204.66,-220.16 207.92,-217.96 211.04,-216 239,-198.43 248.08,-197.57 276.04,-180 276.33,-179.82 276.62,-179.63 276.92,-179.44"/>
<polygon fill="black" stroke="black" points="279.13,-182.17 285.49,-173.69 275.23,-176.36 279.13,-182.17"/>
</g>
<!-- n8 -->
<g id="node8" class="node">
<title>n8</title>
<polygon fill="none" stroke="black" points="266.54,-104.5 237.54,-104.5 237.54,-75.5 266.54,-75.5 266.54,-104.5"/>
<text text-anchor="middle" x="252.04" y="-86.3" font-family="Times,serif" font-size="14.00">?</text>
</g>
<!-- n7&#45;&gt;n8 -->
<g id="edge5" class="edge">
<title>n7&#45;&gt;n8</title>
<path fill="none" stroke="black" d="M290.55,-147.17C283.91,-137.49 274.9,-124.34 267.26,-113.2"/>
<polygon fill="black" stroke="black" points="270.04,-111.07 261.5,-104.8 264.27,-115.03 270.04,-111.07"/>
</g>
<!-- n11 -->
<g id="node11" class="node">
<title>n11</title>
<polygon fill="none" stroke="black" points="409.04,-108 285.04,-108 285.04,-72 409.04,-72 409.04,-108"/>
<text text-anchor="middle" x="347.04" y="-86.3" font-family="Times,serif" font-size="14.00">Pick YellowBox</text>
</g>
<!-- n7&#45;&gt;n11 -->
<g id="edge6" class="edge">
<title>n7&#45;&gt;n11</title>
<path fill="none" stroke="black" d="M309.32,-147.17C315.22,-138.39 323.02,-126.77 330,-116.37"/>
<polygon fill="black" stroke="black" points="332.94,-118.27 335.61,-108.02 327.13,-114.37 332.94,-118.27"/>
</g>
<!-- n9 -->
<g id="node9" class="node">
<title>n9</title>
<ellipse fill="none" stroke="black" cx="120.04" cy="-18" rx="77.19" ry="18"/>
<text text-anchor="middle" x="120.04" y="-14.3" font-family="Times,serif" font-size="14.00">Gripper open?</text>
</g>
<!-- n8&#45;&gt;n9 -->
<g id="edge3" class="edge">
<title>n8&#45;&gt;n9</title>
<path fill="none" stroke="black" d="M237.41,-81.24C218.55,-71.24 185.06,-53.48 158.67,-39.49"/>
<polygon fill="black" stroke="black" points="160.14,-36.3 149.66,-34.71 156.86,-42.49 160.14,-36.3"/>
</g>
<!-- n10 -->
<g id="node10" class="node">
<title>n10</title>
<polygon fill="none" stroke="black" points="352.54,-36 215.54,-36 215.54,0 352.54,0 352.54,-36"/>
<text text-anchor="middle" x="284.04" y="-14.3" font-family="Times,serif" font-size="14.00">Set gripper open</text>
</g>
<!-- n8&#45;&gt;n10 -->
<g id="edge4" class="edge">
<title>n8&#45;&gt;n10</title>
<path fill="none" stroke="black" d="M258.36,-75.17C262.25,-66.66 267.37,-55.46 272.01,-45.31"/>
<polygon fill="black" stroke="black" points="275.28,-46.57 276.26,-36.02 268.92,-43.66 275.28,-46.57"/>
</g>
<!-- n14 -->
<g id="node14" class="node">
<title>n14</title>
<ellipse fill="none" stroke="black" cx="524.04" cy="-306" rx="150.27" ry="18"/>
<text text-anchor="middle" x="524.04" y="-302.3" font-family="Times,serif" font-size="14.00">GreenBox at p2 in YellowBox?</text>
</g>
<!-- n13&#45;&gt;n14 -->
<g id="edge12" class="edge">
<title>n13&#45;&gt;n14</title>
<path fill="none" stroke="black" d="M600.42,-362.82C588.29,-353.96 570.63,-341.05 555.34,-329.88"/>
<polygon fill="black" stroke="black" points="557.28,-326.96 547.14,-323.89 553.15,-332.61 557.28,-326.96"/>
</g>
<!-- n15 -->
<g id="node15" class="node">
<title>n15</title>
<polygon fill="none" stroke="black" points="721.54,-320.5 692.54,-320.5 692.54,-291.5 721.54,-291.5 721.54,-320.5"/>
<text text-anchor="middle" x="707.04" y="-302.3" font-family="Times,serif" font-size="14.00">→</text>
</g>
<!-- n13&#45;&gt;n15 -->
<g id="edge21" class="edge">
<title>n13&#45;&gt;n15</title>
<path fill="none" stroke="black" d="M629.82,-362.82C644.44,-352.25 667.02,-335.92 684,-323.65"/>
<polygon fill="black" stroke="black" points="686.24,-326.35 692.29,-317.66 682.14,-320.68 686.24,-326.35"/>
</g>
<!-- n16 -->
<g id="node16" class="node">
<title>n16</title>
<polygon fill="none" stroke="black" points="567.54,-248.5 538.54,-248.5 538.54,-219.5 567.54,-219.5 567.54,-248.5"/>
<text text-anchor="middle" x="553.04" y="-230.3" font-family="Times,serif" font-size="14.00">?</text>
</g>
<!-- n15&#45;&gt;n16 -->
<g id="edge19" class="edge">
<title>n15&#45;&gt;n16</title>
<path fill="none" stroke="black" d="M692.48,-293.69C689.46,-291.63 686.22,-289.62 683.04,-288 638.72,-265.39 621.35,-274.61 577.04,-252 576.74,-251.85 576.44,-251.69 576.14,-251.53"/>
<polygon fill="black" stroke="black" points="577.95,-248.54 567.59,-246.31 574.3,-254.51 577.95,-248.54"/>
</g>
<!-- n23 -->
<g id="node23" class="node">
<title>n23</title>
<polygon fill="none" stroke="black" points="852.04,-252 586.04,-252 586.04,-216 852.04,-216 852.04,-252"/>
<text text-anchor="middle" x="719.04" y="-230.3" font-family="Times,serif" font-size="14.00">Place GreenBox at p2 in YellowBox</text>
</g>
<!-- n15&#45;&gt;n23 -->
<g id="edge20" class="edge">
<title>n15&#45;&gt;n23</title>
<path fill="none" stroke="black" d="M709.41,-291.17C710.84,-282.83 712.71,-271.92 714.42,-261.94"/>
<polygon fill="black" stroke="black" points="717.88,-262.47 716.12,-252.02 710.98,-261.28 717.88,-262.47"/>
</g>
<!-- n17 -->
<g id="node17" class="node">
<title>n17</title>
<ellipse fill="none" stroke="black" cx="482.04" cy="-162" rx="111.28" ry="18"/>
<text text-anchor="middle" x="482.04" y="-158.3" font-family="Times,serif" font-size="14.00">In gripper GreenBox?</text>
</g>
<!-- n16&#45;&gt;n17 -->
<g id="edge13" class="edge">
<title>n16&#45;&gt;n17</title>
<path fill="none" stroke="black" d="M539.01,-219.17C529.75,-210.04 517.37,-197.83 506.51,-187.13"/>
<polygon fill="black" stroke="black" points="508.88,-184.55 499.3,-180.02 503.96,-189.53 508.88,-184.55"/>
</g>
<!-- n18 -->
<g id="node18" class="node">
<title>n18</title>
<polygon fill="none" stroke="black" points="640.54,-176.5 611.54,-176.5 611.54,-147.5 640.54,-147.5 640.54,-176.5"/>
<text text-anchor="middle" x="626.04" y="-158.3" font-family="Times,serif" font-size="14.00">→</text>
</g>
<!-- n16&#45;&gt;n18 -->
<g id="edge18" class="edge">
<title>n16&#45;&gt;n18</title>
<path fill="none" stroke="black" d="M567.46,-219.17C577.96,-209.1 592.36,-195.29 604.25,-183.89"/>
<polygon fill="black" stroke="black" points="606.85,-186.25 611.64,-176.8 602,-181.2 606.85,-186.25"/>
</g>
<!-- n19 -->
<g id="node19" class="node">
<title>n19</title>
<polygon fill="none" stroke="black" points="565.54,-104.5 536.54,-104.5 536.54,-75.5 565.54,-75.5 565.54,-104.5"/>
<text text-anchor="middle" x="551.04" y="-86.3" font-family="Times,serif" font-size="14.00">?</text>
</g>
<!-- n18&#45;&gt;n19 -->
<g id="edge16" class="edge">
<title>n18&#45;&gt;n19</title>
<path fill="none" stroke="black" d="M611.22,-147.17C600.36,-137.04 585.44,-123.11 573.18,-111.66"/>
<polygon fill="black" stroke="black" points="575.27,-108.83 565.57,-104.56 570.49,-113.94 575.27,-108.83"/>
</g>
<!-- n22 -->
<g id="node22" class="node">
<title>n22</title>
<polygon fill="none" stroke="black" points="706.04,-108 584.04,-108 584.04,-72 706.04,-72 706.04,-108"/>
<text text-anchor="middle" x="645.04" y="-86.3" font-family="Times,serif" font-size="14.00">Pick GreenBox</text>
</g>
<!-- n18&#45;&gt;n22 -->
<g id="edge17" class="edge">
<title>n18&#45;&gt;n22</title>
<path fill="none" stroke="black" d="M629.79,-147.17C632.05,-138.83 635.01,-127.92 637.72,-117.94"/>
<polygon fill="black" stroke="black" points="641.18,-118.59 640.42,-108.02 634.42,-116.75 641.18,-118.59"/>
</g>
<!-- n20 -->
<g id="node20" class="node">
<title>n20</title>
<ellipse fill="none" stroke="black" cx="520.04" cy="-18" rx="77.19" ry="18"/>
<text text-anchor="middle" x="520.04" y="-14.3" font-family="Times,serif" font-size="14.00">Gripper open?</text>
</g>
<!-- n19&#45;&gt;n20 -->
<g id="edge14" class="edge">
<title>n19&#45;&gt;n20</title>
<path fill="none" stroke="black" d="M544.91,-75.17C541.14,-66.66 536.18,-55.46 531.69,-45.31"/>
<polygon fill="black" stroke="black" points="534.82,-43.75 527.57,-36.02 528.42,-46.58 534.82,-43.75"/>
</g>
<!-- n21 -->
<g id="node21" class="node">
<title>n21</title>
<polygon fill="none" stroke="black" points="752.54,-36 615.54,-36 615.54,0 752.54,0 752.54,-36"/>
<text text-anchor="middle" x="684.04" y="-14.3" font-family="Times,serif" font-size="14.00">Set gripper open</text>
</g>
<!-- n19&#45;&gt;n21 -->
<g id="edge15" class="edge">
<title>n19&#45;&gt;n21</title>
<path fill="none" stroke="black" d="M565.76,-78C568.77,-75.92 571.96,-73.82 575.04,-72 594.41,-60.53 616.63,-49.39 635.93,-40.31"/>
<polygon fill="black" stroke="black" points="637.56,-43.41 645.15,-36.02 634.6,-37.07 637.56,-43.41"/>
</g>
<!-- n25 -->
<g id="node25" class="node">
<title>n25</title>
<ellipse fill="none" stroke="black" cx="882.04" cy="-306" rx="142.97" ry="18"/>
<text text-anchor="middle" x="882.04" y="-302.3" font-family="Times,serif" font-size="14.00">BlueBox at p3 in YellowBox?</text>
</g>
<!-- n24&#45;&gt;n25 -->
<g id="edge23" class="edge">
<title>n24&#45;&gt;n25</title>
<path fill="none" stroke="black" d="M882.04,-359.72C882.04,-352.36 882.04,-343.04 882.04,-334.29"/>
<polygon fill="black" stroke="black" points="885.54,-334.07 882.04,-324.07 878.54,-334.07 885.54,-334.07"/>
</g>
<!-- n26 -->
<g id="node26" class="node">
<title>n26</title>
<polygon fill="none" stroke="black" points="1071.54,-320.5 1042.54,-320.5 1042.54,-291.5 1071.54,-291.5 1071.54,-320.5"/>
<text text-anchor="middle" x="1057.04" y="-302.3" font-family="Times,serif" font-size="14.00">→</text>
</g>
<!-- n24&#45;&gt;n26 -->
<g id="edge32" class="edge">
<title>n24&#45;&gt;n26</title>
<path fill="none" stroke="black" d="M896.9,-370.34C923.32,-364.39 980.01,-350.08 1033.21,-323.61"/>
<polygon fill="black" stroke="black" points="1035.1,-326.57 1042.4,-318.89 1031.9,-320.34 1035.1,-326.57"/>
</g>
<!-- n27 -->
<g id="node27" class="node">
<title>n27</title>
<polygon fill="none" stroke="black" points="952.54,-248.5 923.54,-248.5 923.54,-219.5 952.54,-219.5 952.54,-248.5"/>
<text text-anchor="middle" x="938.04" y="-230.3" font-family="Times,serif" font-size="14.00">?</text>
</g>
<!-- n26&#45;&gt;n27 -->
<g id="edge30" class="edge">
<title>n26&#45;&gt;n27</title>
<path fill="none" stroke="black" d="M1042.2,-293.46C1039.54,-291.55 1036.75,-289.66 1034.04,-288 1003.54,-269.3 992.72,-270.39 962.04,-252 961.75,-251.83 961.46,-251.65 961.17,-251.48"/>
<polygon fill="black" stroke="black" points="963.06,-248.53 952.78,-245.97 959.22,-254.38 963.06,-248.53"/>
</g>
<!-- n34 -->
<g id="node34" class="node">
<title>n34</title>
<polygon fill="none" stroke="black" points="1225.54,-252 970.54,-252 970.54,-216 1225.54,-216 1225.54,-252"/>
<text text-anchor="middle" x="1098.04" y="-230.3" font-family="Times,serif" font-size="14.00">Place BlueBox at p3 in YellowBox</text>
</g>
<!-- n26&#45;&gt;n34 -->
<g id="edge31" class="edge">
<title>n26&#45;&gt;n34</title>
<path fill="none" stroke="black" d="M1065.14,-291.17C1070.23,-282.48 1076.95,-271 1082.99,-260.68"/>
<polygon fill="black" stroke="black" points="1086.03,-262.42 1088.07,-252.02 1079.99,-258.88 1086.03,-262.42"/>
</g>
<!-- n28 -->
<g id="node28" class="node">
<title>n28</title>
<ellipse fill="none" stroke="black" cx="846.04" cy="-162" rx="103.98" ry="18"/>
<text text-anchor="middle" x="846.04" y="-158.3" font-family="Times,serif" font-size="14.00">In gripper BlueBox?</text>
</g>
<!-- n27&#45;&gt;n28 -->
<g id="edge24" class="edge">
<title>n27&#45;&gt;n28</title>
<path fill="none" stroke="black" d="M923.25,-221.75C910.54,-212.08 891.79,-197.82 875.96,-185.77"/>
<polygon fill="black" stroke="black" points="878.07,-182.97 867.99,-179.7 873.83,-188.54 878.07,-182.97"/>
</g>
<!-- n29 -->
<g id="node29" class="node">
<title>n29</title>
<polygon fill="none" stroke="black" points="996.54,-176.5 967.54,-176.5 967.54,-147.5 996.54,-147.5 996.54,-176.5"/>
<text text-anchor="middle" x="982.04" y="-158.3" font-family="Times,serif" font-size="14.00">→</text>
</g>
<!-- n27&#45;&gt;n29 -->
<g id="edge29" class="edge">
<title>n27&#45;&gt;n29</title>
<path fill="none" stroke="black" d="M946.73,-219.17C952.76,-209.58 960.92,-196.6 967.87,-185.53"/>
<polygon fill="black" stroke="black" points="971,-187.13 973.36,-176.8 965.08,-183.4 971,-187.13"/>
</g>
<!-- n30 -->
<g id="node30" class="node">
<title>n30</title>
<polygon fill="none" stroke="black" points="952.54,-104.5 923.54,-104.5 923.54,-75.5 952.54,-75.5 952.54,-104.5"/>
<text text-anchor="middle" x="938.04" y="-86.3" font-family="Times,serif" font-size="14.00">?</text>
</g>
<!-- n29&#45;&gt;n30 -->
<g id="edge27" class="edge">
<title>n29&#45;&gt;n30</title>
<path fill="none" stroke="black" d="M973.34,-147.17C967.32,-137.58 959.16,-124.6 952.2,-113.53"/>
<polygon fill="black" stroke="black" points="955,-111.4 946.71,-104.8 949.07,-115.13 955,-111.4"/>
</g>
<!-- n33 -->
<g id="node33" class="node">
<title>n33</title>
<polygon fill="none" stroke="black" points="1081.04,-108 971.04,-108 971.04,-72 1081.04,-72 1081.04,-108"/>
<text text-anchor="middle" x="1026.04" y="-86.3" font-family="Times,serif" font-size="14.00">Pick BlueBox</text>
</g>
<!-- n29&#45;&gt;n33 -->
<g id="edge28" class="edge">
<title>n29&#45;&gt;n33</title>
<path fill="none" stroke="black" d="M990.73,-147.17C996.19,-138.48 1003.41,-127 1009.89,-116.68"/>
<polygon fill="black" stroke="black" points="1012.98,-118.35 1015.34,-108.02 1007.05,-114.62 1012.98,-118.35"/>
</g>
<!-- n31 -->
<g id="node31" class="node">
<title>n31</title>
<ellipse fill="none" stroke="black" cx="891.04" cy="-18" rx="77.19" ry="18"/>
<text text-anchor="middle" x="891.04" y="-14.3" font-family="Times,serif" font-size="14.00">Gripper open?</text>
</g>
<!-- n30&#45;&gt;n31 -->
<g id="edge25" class="edge">
<title>n30&#45;&gt;n31</title>
<path fill="none" stroke="black" d="M928.75,-75.17C922.86,-66.39 915.05,-54.77 908.07,-44.37"/>
<polygon fill="black" stroke="black" points="910.94,-42.37 902.46,-36.02 905.13,-46.27 910.94,-42.37"/>
</g>
<!-- n32 -->
<g id="node32" class="node">
<title>n32</title>
<polygon fill="none" stroke="black" points="1123.54,-36 986.54,-36 986.54,0 1123.54,0 1123.54,-36"/>
<text text-anchor="middle" x="1055.04" y="-14.3" font-family="Times,serif" font-size="14.00">Set gripper open</text>
</g>
<!-- n30&#45;&gt;n32 -->
<g id="edge26" class="edge">
<title>n30&#45;&gt;n32</title>
<path fill="none" stroke="black" d="M952.6,-78.34C955.68,-76.18 958.94,-73.98 962.04,-72 978.83,-61.3 997.86,-50.27 1014.31,-41.07"/>
<polygon fill="black" stroke="black" points="1016.11,-44.07 1023.16,-36.15 1012.71,-37.95 1016.11,-44.07"/>
</g>
</g>
</svg>
