<?xml version="1.0" encoding="UTF-8" standalone="no"?>
<!DOCTYPE svg PUBLIC "-//W3C//DTD SVG 1.1//EN"
 "http://www.w3.org/Graphics/SVG/1.1/DTD/svg11.dtd">
<!-- Generated by graphviz version 2.43.0 (0)
 -->
<!-- Title: pastafarianism Pages: 1 -->
<svg width="1401pt" height="476pt"
 viewBox="0.00 0.00 1401.48 476.00" xmlns="http://www.w3.org/2000/svg" xmlns:xlink="http://www.w3.org/1999/xlink">
<g id="graph0" class="graph" transform="scale(1 1) rotate(0) translate(4 472)">
<title>pastafarianism</title>
<polygon fill="white" stroke="transparent" points="-4,4 -4,-472 1397.48,-472 1397.48,4 -4,4"/>
<!-- Sequence -->
<g id="node1" class="node">
<title>Sequence</title>
<polygon fill="orange" stroke="black" points="690.8,-468 628.8,-468 628.8,-432 690.8,-432 690.8,-468"/>
<text text-anchor="middle" x="659.8" y="-447.8" font-family="Times,serif" font-size="9.00">Sequence</text>
</g>
<!-- Fallback -->
<g id="node2" class="node">
<title>Fallback</title>
<polygon fill="cyan" stroke="black" points="379.79,-370.54 379.79,-385.46 359.3,-396 330.31,-396 309.81,-385.46 309.81,-370.54 330.31,-360 359.3,-360 379.79,-370.54"/>
<text text-anchor="middle" x="344.8" y="-375.8" font-family="Times,serif" font-size="9.00">Fallback</text>
</g>
<!-- Sequence&#45;&gt;Fallback -->
<g id="edge1" class="edge">
<title>Sequence&#45;&gt;Fallback</title>
<path fill="none" stroke="black" d="M628.74,-442.1C572.31,-429.56 452.86,-403.01 388.34,-388.67"/>
<polygon fill="black" stroke="black" points="388.99,-385.23 378.47,-386.48 387.47,-392.07 388.99,-385.23"/>
</g>
<!-- Fallback &#160;&#160; -->
<g id="node13" class="node">
<title>Fallback &#160;&#160;</title>
<polygon fill="cyan" stroke="black" points="694.79,-370.54 694.79,-385.46 674.3,-396 645.31,-396 624.81,-385.46 624.81,-370.54 645.31,-360 674.3,-360 694.79,-370.54"/>
<text text-anchor="middle" x="659.8" y="-375.8" font-family="Times,serif" font-size="9.00">Fallback</text>
</g>
<!-- Sequence&#45;&gt;Fallback &#160;&#160; -->
<g id="edge12" class="edge">
<title>Sequence&#45;&gt;Fallback &#160;&#160;</title>
<path fill="none" stroke="black" d="M659.8,-431.7C659.8,-423.98 659.8,-414.71 659.8,-406.11"/>
<polygon fill="black" stroke="black" points="663.3,-406.1 659.8,-396.1 656.3,-406.1 663.3,-406.1"/>
</g>
<!-- Fallback &#160;&#160;&#160;&#160;&#160; -->
<g id="node24" class="node">
<title>Fallback &#160;&#160;&#160;&#160;&#160;</title>
<polygon fill="cyan" stroke="black" points="990.79,-370.54 990.79,-385.46 970.3,-396 941.31,-396 920.81,-385.46 920.81,-370.54 941.31,-360 970.3,-360 990.79,-370.54"/>
<text text-anchor="middle" x="955.8" y="-375.8" font-family="Times,serif" font-size="9.00">Fallback</text>
</g>
<!-- Sequence&#45;&gt;Fallback &#160;&#160;&#160;&#160;&#160; -->
<g id="edge23" class="edge">
<title>Sequence&#45;&gt;Fallback &#160;&#160;&#160;&#160;&#160;</title>
<path fill="none" stroke="black" d="M690.92,-441.64C744.1,-429.06 852.55,-403.42 912.89,-389.15"/>
<polygon fill="black" stroke="black" points="913.93,-392.5 922.85,-386.79 912.32,-385.69 913.93,-392.5"/>
</g>
<!-- object_at BlueBox [0.0, 0.0, 0.175] 0.02 KittingBox -->
<g id="node3" class="node">
<title>object_at BlueBox [0.0, 0.0, 0.175] 0.02 KittingBox</title>
<ellipse fill="lightgray" stroke="black" cx="147.8" cy="-306" rx="147.6" ry="18"/>
<text text-anchor="middle" x="147.8" y="-303.8" font-family="Times,serif" font-size="9.00">object_at BlueBox [0.0, 0.0, 0.175] 0.02 KittingBox</text>
</g>
<!-- Fallback&#45;&gt;object_at BlueBox [0.0, 0.0, 0.175] 0.02 KittingBox -->
<g id="edge2" class="edge">
<title>Fallback&#45;&gt;object_at BlueBox [0.0, 0.0, 0.175] 0.02 KittingBox</title>
<path fill="none" stroke="black" d="M316.58,-366.97C287.08,-356.49 240.05,-339.78 203.11,-326.65"/>
<polygon fill="black" stroke="black" points="204.07,-323.28 193.47,-323.23 201.72,-329.87 204.07,-323.28"/>
</g>
<!-- Sequence  -->
<g id="node4" class="node">
<title>Sequence </title>
<polygon fill="orange" stroke="black" points="375.8,-324 313.8,-324 313.8,-288 375.8,-288 375.8,-324"/>
<text text-anchor="middle" x="344.8" y="-303.8" font-family="Times,serif" font-size="9.00">Sequence</text>
</g>
<!-- Fallback&#45;&gt;Sequence  -->
<g id="edge3" class="edge">
<title>Fallback&#45;&gt;Sequence </title>
<path fill="none" stroke="black" d="M344.8,-359.7C344.8,-351.98 344.8,-342.71 344.8,-334.11"/>
<polygon fill="black" stroke="black" points="348.3,-334.1 344.8,-324.1 341.3,-334.1 348.3,-334.1"/>
</g>
<!-- Fallback  -->
<g id="node5" class="node">
<title>Fallback </title>
<polygon fill="cyan" stroke="black" points="194.79,-226.54 194.79,-241.46 174.3,-252 145.31,-252 124.81,-241.46 124.81,-226.54 145.31,-216 174.3,-216 194.79,-226.54"/>
<text text-anchor="middle" x="159.8" y="-231.8" font-family="Times,serif" font-size="9.00">Fallback</text>
</g>
<!-- Sequence &#45;&gt;Fallback  -->
<g id="edge4" class="edge">
<title>Sequence &#45;&gt;Fallback </title>
<path fill="none" stroke="black" d="M313.43,-291.46C310.52,-290.27 307.61,-289.1 304.8,-288 260.41,-270.67 248.48,-268.59 203.8,-252 201.45,-251.13 199.03,-250.22 196.6,-249.3"/>
<polygon fill="black" stroke="black" points="197.81,-246.02 187.22,-245.72 195.32,-252.56 197.81,-246.02"/>
</g>
<!-- place0 BlueBox [0.0, 0.0, 0.175] 0.02 KittingBox -->
<g id="node12" class="node">
<title>place0 BlueBox [0.0, 0.0, 0.175] 0.02 KittingBox</title>
<ellipse fill="lightgray" stroke="black" cx="353.8" cy="-234" rx="141.4" ry="18"/>
<text text-anchor="middle" x="353.8" y="-231.8" font-family="Times,serif" font-size="9.00">place0 BlueBox [0.0, 0.0, 0.175] 0.02 KittingBox</text>
</g>
<!-- Sequence &#45;&gt;place0 BlueBox [0.0, 0.0, 0.175] 0.02 KittingBox -->
<g id="edge11" class="edge">
<title>Sequence &#45;&gt;place0 BlueBox [0.0, 0.0, 0.175] 0.02 KittingBox</title>
<path fill="none" stroke="black" d="M347.03,-287.7C348.02,-279.98 349.21,-270.71 350.32,-262.11"/>
<polygon fill="black" stroke="black" points="353.8,-262.47 351.6,-252.1 346.86,-261.58 353.8,-262.47"/>
</g>
<!-- in_gripper BlueBox -->
<g id="node6" class="node">
<title>in_gripper BlueBox</title>
<ellipse fill="lightgray" stroke="black" cx="132.8" cy="-162" rx="61.55" ry="18"/>
<text text-anchor="middle" x="132.8" y="-159.8" font-family="Times,serif" font-size="9.00">in_gripper BlueBox</text>
</g>
<!-- Fallback &#45;&gt;in_gripper BlueBox -->
<g id="edge5" class="edge">
<title>Fallback &#45;&gt;in_gripper BlueBox</title>
<path fill="none" stroke="black" d="M153.13,-215.7C150.09,-207.81 146.42,-198.3 143.04,-189.55"/>
<polygon fill="black" stroke="black" points="146.26,-188.17 139.4,-180.1 139.73,-190.69 146.26,-188.17"/>
</g>
<!-- Sequence &#160; -->
<g id="node7" class="node">
<title>Sequence &#160;</title>
<polygon fill="orange" stroke="black" points="274.8,-180 212.8,-180 212.8,-144 274.8,-144 274.8,-180"/>
<text text-anchor="middle" x="243.8" y="-159.8" font-family="Times,serif" font-size="9.00">Sequence</text>
</g>
<!-- Fallback &#45;&gt;Sequence &#160; -->
<g id="edge6" class="edge">
<title>Fallback &#45;&gt;Sequence &#160;</title>
<path fill="none" stroke="black" d="M178.03,-217.81C188.95,-208.71 203.08,-196.94 215.44,-186.64"/>
<polygon fill="black" stroke="black" points="217.81,-189.22 223.25,-180.13 213.33,-183.84 217.81,-189.22"/>
</g>
<!-- Fallback &#160; -->
<g id="node8" class="node">
<title>Fallback &#160;</title>
<polygon fill="cyan" stroke="black" points="260.79,-82.54 260.79,-97.46 240.3,-108 211.31,-108 190.81,-97.46 190.81,-82.54 211.31,-72 240.3,-72 260.79,-82.54"/>
<text text-anchor="middle" x="225.8" y="-87.8" font-family="Times,serif" font-size="9.00">Fallback</text>
</g>
<!-- Sequence &#160;&#45;&gt;Fallback &#160; -->
<g id="edge7" class="edge">
<title>Sequence &#160;&#45;&gt;Fallback &#160;</title>
<path fill="none" stroke="black" d="M239.35,-143.7C237.35,-135.9 234.93,-126.51 232.7,-117.83"/>
<polygon fill="black" stroke="black" points="236.08,-116.92 230.2,-108.1 229.3,-118.66 236.08,-116.92"/>
</g>
<!-- pick0 BlueBox -->
<g id="node11" class="node">
<title>pick0 BlueBox</title>
<ellipse fill="lightgray" stroke="black" cx="326.8" cy="-90" rx="47.84" ry="18"/>
<text text-anchor="middle" x="326.8" y="-87.8" font-family="Times,serif" font-size="9.00">pick0 BlueBox</text>
</g>
<!-- Sequence &#160;&#45;&gt;pick0 BlueBox -->
<g id="edge10" class="edge">
<title>Sequence &#160;&#45;&gt;pick0 BlueBox</title>
<path fill="none" stroke="black" d="M264.32,-143.7C275.24,-134.49 288.79,-123.06 300.48,-113.2"/>
<polygon fill="black" stroke="black" points="302.83,-115.79 308.22,-106.67 298.32,-110.44 302.83,-115.79"/>
</g>
<!-- gripper_state open -->
<g id="node9" class="node">
<title>gripper_state open</title>
<ellipse fill="lightgray" stroke="black" cx="142.8" cy="-18" rx="60.09" ry="18"/>
<text text-anchor="middle" x="142.8" y="-15.8" font-family="Times,serif" font-size="9.00">gripper_state open</text>
</g>
<!-- Fallback &#160;&#45;&gt;gripper_state open -->
<g id="edge8" class="edge">
<title>Fallback &#160;&#45;&gt;gripper_state open</title>
<path fill="none" stroke="black" d="M207.38,-73.46C196.33,-64.15 182.09,-52.13 169.78,-41.76"/>
<polygon fill="black" stroke="black" points="171.94,-38.99 162.04,-35.22 167.42,-44.34 171.94,-38.99"/>
</g>
<!-- open_gripper -->
<g id="node10" class="node">
<title>open_gripper</title>
<ellipse fill="lightgray" stroke="black" cx="266.8" cy="-18" rx="45.72" ry="18"/>
<text text-anchor="middle" x="266.8" y="-15.8" font-family="Times,serif" font-size="9.00">open_gripper</text>
</g>
<!-- Fallback &#160;&#45;&gt;open_gripper -->
<g id="edge9" class="edge">
<title>Fallback &#160;&#45;&gt;open_gripper</title>
<path fill="none" stroke="black" d="M235.94,-71.7C240.77,-63.44 246.66,-53.39 251.98,-44.3"/>
<polygon fill="black" stroke="black" points="255.03,-46.02 257.07,-35.62 248.99,-42.48 255.03,-46.02"/>
</g>
<!-- object_at YellowBox [&#45;0.133, 0.0, 0.175] 0.02 KittingBox -->
<g id="node14" class="node">
<title>object_at YellowBox [&#45;0.133, 0.0, 0.175] 0.02 KittingBox</title>
<ellipse fill="lightgray" stroke="black" cx="554.8" cy="-306" rx="161.16" ry="18"/>
<text text-anchor="middle" x="554.8" y="-303.8" font-family="Times,serif" font-size="9.00">object_at YellowBox [&#45;0.133, 0.0, 0.175] 0.02 KittingBox</text>
</g>
<!-- Fallback &#160;&#160;&#45;&gt;object_at YellowBox [&#45;0.133, 0.0, 0.175] 0.02 KittingBox -->
<g id="edge13" class="edge">
<title>Fallback &#160;&#160;&#45;&gt;object_at YellowBox [&#45;0.133, 0.0, 0.175] 0.02 KittingBox</title>
<path fill="none" stroke="black" d="M639.06,-363.17C624.7,-353.6 605.28,-340.65 588.7,-329.6"/>
<polygon fill="black" stroke="black" points="590.59,-326.65 580.33,-324.02 586.71,-332.48 590.59,-326.65"/>
</g>
<!-- Sequence &#160;&#160; -->
<g id="node15" class="node">
<title>Sequence &#160;&#160;</title>
<polygon fill="orange" stroke="black" points="795.8,-324 733.8,-324 733.8,-288 795.8,-288 795.8,-324"/>
<text text-anchor="middle" x="764.8" y="-303.8" font-family="Times,serif" font-size="9.00">Sequence</text>
</g>
<!-- Fallback &#160;&#160;&#45;&gt;Sequence &#160;&#160; -->
<g id="edge14" class="edge">
<title>Fallback &#160;&#160;&#45;&gt;Sequence &#160;&#160;</title>
<path fill="none" stroke="black" d="M680.55,-363.17C694.9,-353.6 714.32,-340.65 730.9,-329.6"/>
<polygon fill="black" stroke="black" points="732.89,-332.48 739.27,-324.02 729.01,-326.65 732.89,-332.48"/>
</g>
<!-- Fallback &#160;&#160;&#160; -->
<g id="node16" class="node">
<title>Fallback &#160;&#160;&#160;</title>
<polygon fill="cyan" stroke="black" points="600.79,-226.54 600.79,-241.46 580.3,-252 551.31,-252 530.81,-241.46 530.81,-226.54 551.31,-216 580.3,-216 600.79,-226.54"/>
<text text-anchor="middle" x="565.8" y="-231.8" font-family="Times,serif" font-size="9.00">Fallback</text>
</g>
<!-- Sequence &#160;&#160;&#45;&gt;Fallback &#160;&#160;&#160; -->
<g id="edge15" class="edge">
<title>Sequence &#160;&#160;&#45;&gt;Fallback &#160;&#160;&#160;</title>
<path fill="none" stroke="black" d="M733.48,-291.34C730.56,-290.17 727.63,-289.04 724.8,-288 674.54,-269.5 660.36,-269.66 609.8,-252 607.28,-251.12 604.69,-250.19 602.08,-249.23"/>
<polygon fill="black" stroke="black" points="603.28,-245.94 592.69,-245.71 600.83,-252.5 603.28,-245.94"/>
</g>
<!-- place0 YellowBox [&#45;0.133, 0.0, 0.175] 0.02 KittingBox -->
<g id="node23" class="node">
<title>place0 YellowBox [&#45;0.133, 0.0, 0.175] 0.02 KittingBox</title>
<ellipse fill="lightgray" stroke="black" cx="773.8" cy="-234" rx="154.96" ry="18"/>
<text text-anchor="middle" x="773.8" y="-231.8" font-family="Times,serif" font-size="9.00">place0 YellowBox [&#45;0.133, 0.0, 0.175] 0.02 KittingBox</text>
</g>
<!-- Sequence &#160;&#160;&#45;&gt;place0 YellowBox [&#45;0.133, 0.0, 0.175] 0.02 KittingBox -->
<g id="edge22" class="edge">
<title>Sequence &#160;&#160;&#45;&gt;place0 YellowBox [&#45;0.133, 0.0, 0.175] 0.02 KittingBox</title>
<path fill="none" stroke="black" d="M767.03,-287.7C768.02,-279.98 769.21,-270.71 770.32,-262.11"/>
<polygon fill="black" stroke="black" points="773.8,-262.47 771.6,-252.1 766.86,-261.58 773.8,-262.47"/>
</g>
<!-- in_gripper YellowBox -->
<g id="node17" class="node">
<title>in_gripper YellowBox</title>
<ellipse fill="lightgray" stroke="black" cx="455.8" cy="-162" rx="66.29" ry="18"/>
<text text-anchor="middle" x="455.8" y="-159.8" font-family="Times,serif" font-size="9.00">in_gripper YellowBox</text>
</g>
<!-- Fallback &#160;&#160;&#160;&#45;&gt;in_gripper YellowBox -->
<g id="edge16" class="edge">
<title>Fallback &#160;&#160;&#160;&#45;&gt;in_gripper YellowBox</title>
<path fill="none" stroke="black" d="M544.33,-219.34C528.64,-209.35 507.07,-195.62 489.14,-184.22"/>
<polygon fill="black" stroke="black" points="490.99,-181.25 480.68,-178.83 487.24,-187.15 490.99,-181.25"/>
</g>
<!-- Sequence &#160;&#160;&#160; -->
<g id="node18" class="node">
<title>Sequence &#160;&#160;&#160;</title>
<polygon fill="orange" stroke="black" points="601.8,-180 539.8,-180 539.8,-144 601.8,-144 601.8,-180"/>
<text text-anchor="middle" x="570.8" y="-159.8" font-family="Times,serif" font-size="9.00">Sequence</text>
</g>
<!-- Fallback &#160;&#160;&#160;&#45;&gt;Sequence &#160;&#160;&#160; -->
<g id="edge17" class="edge">
<title>Fallback &#160;&#160;&#160;&#45;&gt;Sequence &#160;&#160;&#160;</title>
<path fill="none" stroke="black" d="M567.04,-215.7C567.59,-207.98 568.25,-198.71 568.87,-190.11"/>
<polygon fill="black" stroke="black" points="572.36,-190.33 569.58,-180.1 565.38,-189.83 572.36,-190.33"/>
</g>
<!-- Fallback &#160;&#160;&#160;&#160; -->
<g id="node19" class="node">
<title>Fallback &#160;&#160;&#160;&#160;</title>
<polygon fill="cyan" stroke="black" points="504.79,-82.54 504.79,-97.46 484.3,-108 455.31,-108 434.81,-97.46 434.81,-82.54 455.31,-72 484.3,-72 504.79,-82.54"/>
<text text-anchor="middle" x="469.8" y="-87.8" font-family="Times,serif" font-size="9.00">Fallback</text>
</g>
<!-- Sequence &#160;&#160;&#160;&#45;&gt;Fallback &#160;&#160;&#160;&#160; -->
<g id="edge18" class="edge">
<title>Sequence &#160;&#160;&#160;&#45;&gt;Fallback &#160;&#160;&#160;&#160;</title>
<path fill="none" stroke="black" d="M546.09,-143.88C531.74,-133.93 513.59,-121.35 498.59,-110.95"/>
<polygon fill="black" stroke="black" points="500.39,-107.94 490.18,-105.12 496.4,-113.7 500.39,-107.94"/>
</g>
<!-- pick0 YellowBox -->
<g id="node22" class="node">
<title>pick0 YellowBox</title>
<ellipse fill="lightgray" stroke="black" cx="575.8" cy="-90" rx="53.23" ry="18"/>
<text text-anchor="middle" x="575.8" y="-87.8" font-family="Times,serif" font-size="9.00">pick0 YellowBox</text>
</g>
<!-- Sequence &#160;&#160;&#160;&#45;&gt;pick0 YellowBox -->
<g id="edge21" class="edge">
<title>Sequence &#160;&#160;&#160;&#45;&gt;pick0 YellowBox</title>
<path fill="none" stroke="black" d="M572.04,-143.7C572.59,-135.98 573.25,-126.71 573.87,-118.11"/>
<polygon fill="black" stroke="black" points="577.36,-118.33 574.58,-108.1 570.38,-117.83 577.36,-118.33"/>
</g>
<!-- gripper_state open  -->
<g id="node20" class="node">
<title>gripper_state open </title>
<ellipse fill="lightgray" stroke="black" cx="429.8" cy="-18" rx="60.09" ry="18"/>
<text text-anchor="middle" x="429.8" y="-15.8" font-family="Times,serif" font-size="9.00">gripper_state open</text>
</g>
<!-- Fallback &#160;&#160;&#160;&#160;&#45;&gt;gripper_state open  -->
<g id="edge19" class="edge">
<title>Fallback &#160;&#160;&#160;&#160;&#45;&gt;gripper_state open </title>
<path fill="none" stroke="black" d="M459.91,-71.7C455.31,-63.64 449.74,-53.89 444.65,-44.98"/>
<polygon fill="black" stroke="black" points="447.58,-43.05 439.58,-36.1 441.5,-46.52 447.58,-43.05"/>
</g>
<!-- open_gripper  -->
<g id="node21" class="node">
<title>open_gripper </title>
<ellipse fill="lightgray" stroke="black" cx="553.8" cy="-18" rx="45.72" ry="18"/>
<text text-anchor="middle" x="553.8" y="-15.8" font-family="Times,serif" font-size="9.00">open_gripper</text>
</g>
<!-- Fallback &#160;&#160;&#160;&#160;&#45;&gt;open_gripper  -->
<g id="edge20" class="edge">
<title>Fallback &#160;&#160;&#160;&#160;&#45;&gt;open_gripper </title>
<path fill="none" stroke="black" d="M488.03,-73.81C499.43,-64.31 514.31,-51.91 527.04,-41.3"/>
<polygon fill="black" stroke="black" points="529.59,-43.73 535.03,-34.64 525.11,-38.36 529.59,-43.73"/>
</g>
<!-- object_at GreenBox [0.0, 0.0, 0.22] 0.02 BlueBox -->
<g id="node25" class="node">
<title>object_at GreenBox [0.0, 0.0, 0.22] 0.02 BlueBox</title>
<ellipse fill="lightgray" stroke="black" cx="955.8" cy="-306" rx="142.06" ry="18"/>
<text text-anchor="middle" x="955.8" y="-303.8" font-family="Times,serif" font-size="9.00">object_at GreenBox [0.0, 0.0, 0.22] 0.02 BlueBox</text>
</g>
<!-- Fallback &#160;&#160;&#160;&#160;&#160;&#45;&gt;object_at GreenBox [0.0, 0.0, 0.22] 0.02 BlueBox -->
<g id="edge24" class="edge">
<title>Fallback &#160;&#160;&#160;&#160;&#160;&#45;&gt;object_at GreenBox [0.0, 0.0, 0.22] 0.02 BlueBox</title>
<path fill="none" stroke="black" d="M955.8,-359.7C955.8,-351.98 955.8,-342.71 955.8,-334.11"/>
<polygon fill="black" stroke="black" points="959.3,-334.1 955.8,-324.1 952.3,-334.1 959.3,-334.1"/>
</g>
<!-- Sequence &#160;&#160;&#160;&#160; -->
<g id="node26" class="node">
<title>Sequence &#160;&#160;&#160;&#160;</title>
<polygon fill="orange" stroke="black" points="1177.8,-324 1115.8,-324 1115.8,-288 1177.8,-288 1177.8,-324"/>
<text text-anchor="middle" x="1146.8" y="-303.8" font-family="Times,serif" font-size="9.00">Sequence</text>
</g>
<!-- Fallback &#160;&#160;&#160;&#160;&#160;&#45;&gt;Sequence &#160;&#160;&#160;&#160; -->
<g id="edge25" class="edge">
<title>Fallback &#160;&#160;&#160;&#160;&#160;&#45;&gt;Sequence &#160;&#160;&#160;&#160;</title>
<path fill="none" stroke="black" d="M984.95,-367.39C1013.6,-357.81 1058.74,-342.35 1105.97,-324.22"/>
<polygon fill="black" stroke="black" points="1107.37,-327.43 1115.44,-320.56 1104.85,-320.9 1107.37,-327.43"/>
</g>
<!-- Fallback &#160;&#160;&#160;&#160;&#160;&#160; -->
<g id="node27" class="node">
<title>Fallback &#160;&#160;&#160;&#160;&#160;&#160;</title>
<polygon fill="cyan" stroke="black" points="1103.79,-226.54 1103.79,-241.46 1083.3,-252 1054.31,-252 1033.81,-241.46 1033.81,-226.54 1054.31,-216 1083.3,-216 1103.79,-226.54"/>
<text text-anchor="middle" x="1068.8" y="-231.8" font-family="Times,serif" font-size="9.00">Fallback</text>
</g>
<!-- Sequence &#160;&#160;&#160;&#160;&#45;&gt;Fallback &#160;&#160;&#160;&#160;&#160;&#160; -->
<g id="edge26" class="edge">
<title>Sequence &#160;&#160;&#160;&#160;&#45;&gt;Fallback &#160;&#160;&#160;&#160;&#160;&#160;</title>
<path fill="none" stroke="black" d="M1127.52,-287.7C1117.36,-278.57 1104.77,-267.28 1093.85,-257.48"/>
<polygon fill="black" stroke="black" points="1096.04,-254.75 1086.26,-250.67 1091.37,-259.96 1096.04,-254.75"/>
</g>
<!-- place0 GreenBox [0.0, 0.0, 0.22] 0.02 BlueBox -->
<g id="node34" class="node">
<title>place0 GreenBox [0.0, 0.0, 0.22] 0.02 BlueBox</title>
<ellipse fill="lightgray" stroke="black" cx="1257.8" cy="-234" rx="135.85" ry="18"/>
<text text-anchor="middle" x="1257.8" y="-231.8" font-family="Times,serif" font-size="9.00">place0 GreenBox [0.0, 0.0, 0.22] 0.02 BlueBox</text>
</g>
<!-- Sequence &#160;&#160;&#160;&#160;&#45;&gt;place0 GreenBox [0.0, 0.0, 0.22] 0.02 BlueBox -->
<g id="edge33" class="edge">
<title>Sequence &#160;&#160;&#160;&#160;&#45;&gt;place0 GreenBox [0.0, 0.0, 0.22] 0.02 BlueBox</title>
<path fill="none" stroke="black" d="M1173.96,-287.88C1188.69,-278.59 1207.06,-267 1222.85,-257.04"/>
<polygon fill="black" stroke="black" points="1224.72,-260 1231.31,-251.71 1220.99,-254.08 1224.72,-260"/>
</g>
<!-- in_gripper GreenBox -->
<g id="node28" class="node">
<title>in_gripper GreenBox</title>
<ellipse fill="lightgray" stroke="black" cx="1010.8" cy="-162" rx="65.64" ry="18"/>
<text text-anchor="middle" x="1010.8" y="-159.8" font-family="Times,serif" font-size="9.00">in_gripper GreenBox</text>
</g>
<!-- Fallback &#160;&#160;&#160;&#160;&#160;&#160;&#45;&gt;in_gripper GreenBox -->
<g id="edge27" class="edge">
<title>Fallback &#160;&#160;&#160;&#160;&#160;&#160;&#45;&gt;in_gripper GreenBox</title>
<path fill="none" stroke="black" d="M1054.46,-215.7C1047.41,-207.18 1038.78,-196.76 1031.06,-187.45"/>
<polygon fill="black" stroke="black" points="1033.65,-185.09 1024.57,-179.62 1028.26,-189.56 1033.65,-185.09"/>
</g>
<!-- Sequence &#160;&#160;&#160;&#160;&#160; -->
<g id="node29" class="node">
<title>Sequence &#160;&#160;&#160;&#160;&#160;</title>
<polygon fill="orange" stroke="black" points="1156.8,-180 1094.8,-180 1094.8,-144 1156.8,-144 1156.8,-180"/>
<text text-anchor="middle" x="1125.8" y="-159.8" font-family="Times,serif" font-size="9.00">Sequence</text>
</g>
<!-- Fallback &#160;&#160;&#160;&#160;&#160;&#160;&#45;&gt;Sequence &#160;&#160;&#160;&#160;&#160; -->
<g id="edge28" class="edge">
<title>Fallback &#160;&#160;&#160;&#160;&#160;&#160;&#45;&gt;Sequence &#160;&#160;&#160;&#160;&#160;</title>
<path fill="none" stroke="black" d="M1082.89,-215.7C1089.73,-207.3 1098.06,-197.07 1105.56,-187.86"/>
<polygon fill="black" stroke="black" points="1108.27,-190.07 1111.87,-180.1 1102.85,-185.65 1108.27,-190.07"/>
</g>
<!-- Fallback &#160;&#160;&#160;&#160;&#160;&#160;&#160; -->
<g id="node30" class="node">
<title>Fallback &#160;&#160;&#160;&#160;&#160;&#160;&#160;</title>
<polygon fill="cyan" stroke="black" points="1107.79,-82.54 1107.79,-97.46 1087.3,-108 1058.31,-108 1037.81,-97.46 1037.81,-82.54 1058.31,-72 1087.3,-72 1107.79,-82.54"/>
<text text-anchor="middle" x="1072.8" y="-87.8" font-family="Times,serif" font-size="9.00">Fallback</text>
</g>
<!-- Sequence &#160;&#160;&#160;&#160;&#160;&#45;&gt;Fallback &#160;&#160;&#160;&#160;&#160;&#160;&#160; -->
<g id="edge29" class="edge">
<title>Sequence &#160;&#160;&#160;&#160;&#160;&#45;&gt;Fallback &#160;&#160;&#160;&#160;&#160;&#160;&#160;</title>
<path fill="none" stroke="black" d="M1112.7,-143.7C1106.41,-135.39 1098.75,-125.28 1091.84,-116.14"/>
<polygon fill="black" stroke="black" points="1094.58,-113.96 1085.75,-108.1 1089,-118.19 1094.58,-113.96"/>
</g>
<!-- pick0 GreenBox -->
<g id="node33" class="node">
<title>pick0 GreenBox</title>
<ellipse fill="lightgray" stroke="black" cx="1178.8" cy="-90" rx="52.58" ry="18"/>
<text text-anchor="middle" x="1178.8" y="-87.8" font-family="Times,serif" font-size="9.00">pick0 GreenBox</text>
</g>
<!-- Sequence &#160;&#160;&#160;&#160;&#160;&#45;&gt;pick0 GreenBox -->
<g id="edge32" class="edge">
<title>Sequence &#160;&#160;&#160;&#160;&#160;&#45;&gt;pick0 GreenBox</title>
<path fill="none" stroke="black" d="M1138.9,-143.7C1145.29,-135.27 1153.08,-124.97 1160.08,-115.73"/>
<polygon fill="black" stroke="black" points="1162.97,-117.71 1166.22,-107.62 1157.39,-113.48 1162.97,-117.71"/>
</g>
<!-- gripper_state open &#160; -->
<g id="node31" class="node">
<title>gripper_state open &#160;</title>
<ellipse fill="lightgray" stroke="black" cx="1010.8" cy="-18" rx="60.09" ry="18"/>
<text text-anchor="middle" x="1010.8" y="-15.8" font-family="Times,serif" font-size="9.00">gripper_state open</text>
</g>
<!-- Fallback &#160;&#160;&#160;&#160;&#160;&#160;&#160;&#45;&gt;gripper_state open &#160; -->
<g id="edge30" class="edge">
<title>Fallback &#160;&#160;&#160;&#160;&#160;&#160;&#160;&#45;&gt;gripper_state open &#160;</title>
<path fill="none" stroke="black" d="M1057.79,-72.05C1050.18,-63.46 1040.79,-52.86 1032.41,-43.4"/>
<polygon fill="black" stroke="black" points="1034.92,-40.95 1025.67,-35.79 1029.68,-45.6 1034.92,-40.95"/>
</g>
<!-- open_gripper &#160; -->
<g id="node32" class="node">
<title>open_gripper &#160;</title>
<ellipse fill="lightgray" stroke="black" cx="1134.8" cy="-18" rx="45.72" ry="18"/>
<text text-anchor="middle" x="1134.8" y="-15.8" font-family="Times,serif" font-size="9.00">open_gripper</text>
</g>
<!-- Fallback &#160;&#160;&#160;&#160;&#160;&#160;&#160;&#45;&gt;open_gripper &#160; -->
<g id="edge31" class="edge">
<title>Fallback &#160;&#160;&#160;&#160;&#160;&#160;&#160;&#45;&gt;open_gripper &#160;</title>
<path fill="none" stroke="black" d="M1087.81,-72.05C1095.54,-63.33 1105.09,-52.54 1113.56,-42.98"/>
<polygon fill="black" stroke="black" points="1116.35,-45.11 1120.36,-35.31 1111.11,-40.47 1116.35,-45.11"/>
</g>
</g>
</svg>
