<?xml version="1.0" encoding="UTF-8" standalone="no"?>
<!DOCTYPE svg PUBLIC "-//W3C//DTD SVG 1.1//EN"
 "http://www.w3.org/Graphics/SVG/1.1/DTD/svg11.dtd">
<!-- Generated by graphviz version 2.43.0 (0)
 -->
<!-- Title: pastafarianism Pages: 1 -->
<svg width="3011pt" height="503pt"
 viewBox="0.00 0.00 3010.97 502.60" xmlns="http://www.w3.org/2000/svg" xmlns:xlink="http://www.w3.org/1999/xlink">
<g id="graph0" class="graph" transform="scale(1 1) rotate(0) translate(4 498.6)">
<title>pastafarianism</title>
<polygon fill="white" stroke="transparent" points="-4,4 -4,-498.6 3006.97,-498.6 3006.97,4 -4,4"/>
<!-- selector:
 insert(left_hand, defaultgripper, shaft3, gearbase_hole3) -->
<g id="node1" class="node">
<title>selector:
 insert(left_hand, defaultgripper, shaft3, gearbase_hole3)</title>
<polygon fill="#8deeee" stroke="black" points="1559.43,-442.54 1559.43,-473.18 1320.5,-494.84 982.6,-494.84 743.67,-473.18 743.67,-442.54 982.6,-420.88 1320.5,-420.88 1559.43,-442.54"/>
<text text-anchor="middle" x="1151.55" y="-463.46" font-family="Times,serif" font-size="18.00">selector:</text>
<text text-anchor="middle" x="1151.55" y="-443.46" font-family="Times,serif" font-size="18.00"> insert(left_hand, defaultgripper, shaft3, gearbase_hole3)</text>
</g>
<!-- target:
 is_inserted_to(shaft3, gearbase_hole3) -->
<g id="node2" class="node">
<title>target:
 is_inserted_to(shaft3, gearbase_hole3)</title>
<ellipse fill="#ffec8b" stroke="black" cx="878.55" cy="-351.18" rx="261.76" ry="33.88"/>
<text text-anchor="middle" x="878.55" y="-356.78" font-family="Times,serif" font-size="18.00">target:</text>
<text text-anchor="middle" x="878.55" y="-336.78" font-family="Times,serif" font-size="18.00"> is_inserted_to(shaft3, gearbase_hole3)</text>
</g>
<!-- selector:
 insert(left_hand, defaultgripper, shaft3, gearbase_hole3)&#45;&gt;target:
 is_inserted_to(shaft3, gearbase_hole3) -->
<g id="edge1" class="edge">
<title>selector:
 insert(left_hand, defaultgripper, shaft3, gearbase_hole3)&#45;&gt;target:
 is_inserted_to(shaft3, gearbase_hole3)</title>
<path fill="none" stroke="black" d="M1057.98,-420.98C1029.41,-410.03 998.05,-398 969.65,-387.11"/>
<polygon fill="black" stroke="black" points="970.73,-383.78 960.14,-383.47 968.22,-390.31 970.73,-383.78"/>
</g>
<!-- sequence:
 insert(left_hand, defaultgripper, shaft3, gearbase_hole3) -->
<g id="node3" class="node">
<title>sequence:
 insert(left_hand, defaultgripper, shaft3, gearbase_hole3)</title>
<polygon fill="#ff7f24" stroke="black" points="1691.05,-375.18 1158.05,-375.18 1158.05,-327.18 1691.05,-327.18 1691.05,-375.18"/>
<text text-anchor="middle" x="1424.55" y="-356.78" font-family="Times,serif" font-size="18.00">sequence:</text>
<text text-anchor="middle" x="1424.55" y="-336.78" font-family="Times,serif" font-size="18.00"> insert(left_hand, defaultgripper, shaft3, gearbase_hole3)</text>
</g>
<!-- selector:
 insert(left_hand, defaultgripper, shaft3, gearbase_hole3)&#45;&gt;sequence:
 insert(left_hand, defaultgripper, shaft3, gearbase_hole3) -->
<g id="edge2" class="edge">
<title>selector:
 insert(left_hand, defaultgripper, shaft3, gearbase_hole3)&#45;&gt;sequence:
 insert(left_hand, defaultgripper, shaft3, gearbase_hole3)</title>
<path fill="none" stroke="black" d="M1245.12,-420.98C1281.08,-407.19 1321.47,-391.7 1354.81,-378.92"/>
<polygon fill="black" stroke="black" points="1356.38,-382.07 1364.47,-375.22 1353.88,-375.53 1356.38,-382.07"/>
</g>
<!-- selector:
 change_tool(left_hand, inwardgripper, defaultgripper) -->
<g id="node4" class="node">
<title>selector:
 change_tool(left_hand, inwardgripper, defaultgripper)</title>
<polygon fill="#8deeee" stroke="black" points="1090.72,-229.19 1090.72,-259.82 862.16,-281.48 538.93,-281.48 310.37,-259.82 310.37,-229.19 538.93,-207.53 862.16,-207.53 1090.72,-229.19"/>
<text text-anchor="middle" x="700.55" y="-250.1" font-family="Times,serif" font-size="18.00">selector:</text>
<text text-anchor="middle" x="700.55" y="-230.1" font-family="Times,serif" font-size="18.00"> change_tool(left_hand, inwardgripper, defaultgripper)</text>
</g>
<!-- sequence:
 insert(left_hand, defaultgripper, shaft3, gearbase_hole3)&#45;&gt;selector:
 change_tool(left_hand, inwardgripper, defaultgripper) -->
<g id="edge3" class="edge">
<title>sequence:
 insert(left_hand, defaultgripper, shaft3, gearbase_hole3)&#45;&gt;selector:
 change_tool(left_hand, inwardgripper, defaultgripper)</title>
<path fill="none" stroke="black" d="M1265.21,-327.14C1165.39,-312.71 1035.23,-293.89 925.04,-277.96"/>
<polygon fill="black" stroke="black" points="925.52,-274.49 915.12,-276.53 924.51,-281.42 925.52,-274.49"/>
</g>
<!-- selector:
 pick_up(left_hand, defaultgripper, shaft3) -->
<g id="node10" class="node">
<title>selector:
 pick_up(left_hand, defaultgripper, shaft3)</title>
<polygon fill="#8deeee" stroke="black" points="1729.28,-229.19 1729.28,-259.82 1550.77,-281.48 1298.32,-281.48 1119.81,-259.82 1119.81,-229.19 1298.32,-207.53 1550.77,-207.53 1729.28,-229.19"/>
<text text-anchor="middle" x="1424.55" y="-250.1" font-family="Times,serif" font-size="18.00">selector:</text>
<text text-anchor="middle" x="1424.55" y="-230.1" font-family="Times,serif" font-size="18.00"> pick_up(left_hand, defaultgripper, shaft3)</text>
</g>
<!-- sequence:
 insert(left_hand, defaultgripper, shaft3, gearbase_hole3)&#45;&gt;selector:
 pick_up(left_hand, defaultgripper, shaft3) -->
<g id="edge9" class="edge">
<title>sequence:
 insert(left_hand, defaultgripper, shaft3, gearbase_hole3)&#45;&gt;selector:
 pick_up(left_hand, defaultgripper, shaft3)</title>
<path fill="none" stroke="black" d="M1424.55,-326.95C1424.55,-316.5 1424.55,-303.79 1424.55,-291.54"/>
<polygon fill="black" stroke="black" points="1428.05,-291.42 1424.55,-281.42 1421.05,-291.42 1428.05,-291.42"/>
</g>
<!-- action:
 insert(left_hand, defaultgripper, shaft3, gearbase_hole3) -->
<g id="node16" class="node">
<title>action:
 insert(left_hand, defaultgripper, shaft3, gearbase_hole3)</title>
<ellipse fill="lightgreen" stroke="black" cx="2124.55" cy="-244.5" rx="376.78" ry="33.88"/>
<text text-anchor="middle" x="2124.55" y="-250.1" font-family="Times,serif" font-size="18.00">action:</text>
<text text-anchor="middle" x="2124.55" y="-230.1" font-family="Times,serif" font-size="18.00"> insert(left_hand, defaultgripper, shaft3, gearbase_hole3)</text>
</g>
<!-- sequence:
 insert(left_hand, defaultgripper, shaft3, gearbase_hole3)&#45;&gt;action:
 insert(left_hand, defaultgripper, shaft3, gearbase_hole3) -->
<g id="edge15" class="edge">
<title>sequence:
 insert(left_hand, defaultgripper, shaft3, gearbase_hole3)&#45;&gt;action:
 insert(left_hand, defaultgripper, shaft3, gearbase_hole3)</title>
<path fill="none" stroke="black" d="M1578.6,-327.14C1680.48,-311.91 1815.06,-291.78 1925.1,-275.33"/>
<polygon fill="black" stroke="black" points="1925.62,-278.79 1935,-273.85 1924.59,-271.87 1925.62,-278.79"/>
</g>
<!-- target:
 hold(left_hand, defaultgripper) -->
<g id="node5" class="node">
<title>target:
 hold(left_hand, defaultgripper)</title>
<ellipse fill="#ffec8b" stroke="black" cx="213.55" cy="-137.82" rx="213.59" ry="33.88"/>
<text text-anchor="middle" x="213.55" y="-143.42" font-family="Times,serif" font-size="18.00">target:</text>
<text text-anchor="middle" x="213.55" y="-123.42" font-family="Times,serif" font-size="18.00"> hold(left_hand, defaultgripper)</text>
</g>
<!-- selector:
 change_tool(left_hand, inwardgripper, defaultgripper)&#45;&gt;target:
 hold(left_hand, defaultgripper) -->
<g id="edge4" class="edge">
<title>selector:
 change_tool(left_hand, inwardgripper, defaultgripper)&#45;&gt;target:
 hold(left_hand, defaultgripper)</title>
<path fill="none" stroke="black" d="M534.65,-207.84C473.68,-194.74 405.45,-180.07 347.62,-167.64"/>
<polygon fill="black" stroke="black" points="348.21,-164.19 337.7,-165.51 346.74,-171.03 348.21,-164.19"/>
</g>
<!-- sequence:
 change_tool(left_hand, inwardgripper, defaultgripper) -->
<g id="node6" class="node">
<title>sequence:
 change_tool(left_hand, inwardgripper, defaultgripper)</title>
<polygon fill="#ff7f24" stroke="black" points="955.55,-161.82 445.55,-161.82 445.55,-113.82 955.55,-113.82 955.55,-161.82"/>
<text text-anchor="middle" x="700.55" y="-143.42" font-family="Times,serif" font-size="18.00">sequence:</text>
<text text-anchor="middle" x="700.55" y="-123.42" font-family="Times,serif" font-size="18.00"> change_tool(left_hand, inwardgripper, defaultgripper)</text>
</g>
<!-- selector:
 change_tool(left_hand, inwardgripper, defaultgripper)&#45;&gt;sequence:
 change_tool(left_hand, inwardgripper, defaultgripper) -->
<g id="edge5" class="edge">
<title>selector:
 change_tool(left_hand, inwardgripper, defaultgripper)&#45;&gt;sequence:
 change_tool(left_hand, inwardgripper, defaultgripper)</title>
<path fill="none" stroke="black" d="M700.55,-207.48C700.55,-196.09 700.55,-183.57 700.55,-172.36"/>
<polygon fill="black" stroke="black" points="704.05,-172.11 700.55,-162.11 697.05,-172.11 704.05,-172.11"/>
</g>
<!-- precondition:
 hold(left_hand, inwardgripper) -->
<g id="node7" class="node">
<title>precondition:
 hold(left_hand, inwardgripper)</title>
<ellipse fill="#ffec8b" stroke="black" cx="289.55" cy="-33.94" rx="212.68" ry="33.88"/>
<text text-anchor="middle" x="289.55" y="-39.54" font-family="Times,serif" font-size="18.00">precondition:</text>
<text text-anchor="middle" x="289.55" y="-19.54" font-family="Times,serif" font-size="18.00"> hold(left_hand, inwardgripper)</text>
</g>
<!-- sequence:
 change_tool(left_hand, inwardgripper, defaultgripper)&#45;&gt;precondition:
 hold(left_hand, inwardgripper) -->
<g id="edge6" class="edge">
<title>sequence:
 change_tool(left_hand, inwardgripper, defaultgripper)&#45;&gt;precondition:
 hold(left_hand, inwardgripper)</title>
<path fill="none" stroke="black" d="M607.54,-113.77C549.66,-99.42 474.57,-80.81 411.9,-65.27"/>
<polygon fill="black" stroke="black" points="412.5,-61.81 401.95,-62.8 410.81,-68.61 412.5,-61.81"/>
</g>
<!-- precondition:
 is_empty(inwardgripper) -->
<g id="node8" class="node">
<title>precondition:
 is_empty(inwardgripper)</title>
<ellipse fill="#ffec8b" stroke="black" cx="694.55" cy="-33.94" rx="174.81" ry="33.88"/>
<text text-anchor="middle" x="694.55" y="-39.54" font-family="Times,serif" font-size="18.00">precondition:</text>
<text text-anchor="middle" x="694.55" y="-19.54" font-family="Times,serif" font-size="18.00"> is_empty(inwardgripper)</text>
</g>
<!-- sequence:
 change_tool(left_hand, inwardgripper, defaultgripper)&#45;&gt;precondition:
 is_empty(inwardgripper) -->
<g id="edge7" class="edge">
<title>sequence:
 change_tool(left_hand, inwardgripper, defaultgripper)&#45;&gt;precondition:
 is_empty(inwardgripper)</title>
<path fill="none" stroke="black" d="M699.18,-113.7C698.56,-103.16 697.81,-90.31 697.09,-78.08"/>
<polygon fill="black" stroke="black" points="700.58,-77.79 696.49,-68.01 693.59,-78.2 700.58,-77.79"/>
</g>
<!-- action:
 change_tool(left_hand, inwardgripper, defaultgripper) -->
<g id="node9" class="node">
<title>action:
 change_tool(left_hand, inwardgripper, defaultgripper)</title>
<ellipse fill="lightgreen" stroke="black" cx="1247.55" cy="-33.94" rx="360.75" ry="33.88"/>
<text text-anchor="middle" x="1247.55" y="-39.54" font-family="Times,serif" font-size="18.00">action:</text>
<text text-anchor="middle" x="1247.55" y="-19.54" font-family="Times,serif" font-size="18.00"> change_tool(left_hand, inwardgripper, defaultgripper)</text>
</g>
<!-- sequence:
 change_tool(left_hand, inwardgripper, defaultgripper)&#45;&gt;action:
 change_tool(left_hand, inwardgripper, defaultgripper) -->
<g id="edge8" class="edge">
<title>sequence:
 change_tool(left_hand, inwardgripper, defaultgripper)&#45;&gt;action:
 change_tool(left_hand, inwardgripper, defaultgripper)</title>
<path fill="none" stroke="black" d="M824.33,-113.77C899.66,-99.74 996.9,-81.63 1079.17,-66.3"/>
<polygon fill="black" stroke="black" points="1079.93,-69.72 1089.12,-64.45 1078.65,-62.84 1079.93,-69.72"/>
</g>
<!-- target:
 hold(defaultgripper, shaft3) -->
<g id="node11" class="node">
<title>target:
 hold(defaultgripper, shaft3)</title>
<ellipse fill="#ffec8b" stroke="black" cx="1424.55" cy="-137.82" rx="192.17" ry="33.88"/>
<text text-anchor="middle" x="1424.55" y="-143.42" font-family="Times,serif" font-size="18.00">target:</text>
<text text-anchor="middle" x="1424.55" y="-123.42" font-family="Times,serif" font-size="18.00"> hold(defaultgripper, shaft3)</text>
</g>
<!-- selector:
 pick_up(left_hand, defaultgripper, shaft3)&#45;&gt;target:
 hold(defaultgripper, shaft3) -->
<g id="edge10" class="edge">
<title>selector:
 pick_up(left_hand, defaultgripper, shaft3)&#45;&gt;target:
 hold(defaultgripper, shaft3)</title>
<path fill="none" stroke="black" d="M1424.55,-207.48C1424.55,-199.32 1424.55,-190.58 1424.55,-182.15"/>
<polygon fill="black" stroke="black" points="1428.05,-182.1 1424.55,-172.1 1421.05,-182.1 1428.05,-182.1"/>
</g>
<!-- sequence:
 pick_up(left_hand, defaultgripper, shaft3) -->
<g id="node12" class="node">
<title>sequence:
 pick_up(left_hand, defaultgripper, shaft3)</title>
<polygon fill="#ff7f24" stroke="black" points="2241.55,-161.82 1843.55,-161.82 1843.55,-113.82 2241.55,-113.82 2241.55,-161.82"/>
<text text-anchor="middle" x="2042.55" y="-143.42" font-family="Times,serif" font-size="18.00">sequence:</text>
<text text-anchor="middle" x="2042.55" y="-123.42" font-family="Times,serif" font-size="18.00"> pick_up(left_hand, defaultgripper, shaft3)</text>
</g>
<!-- selector:
 pick_up(left_hand, defaultgripper, shaft3)&#45;&gt;sequence:
 pick_up(left_hand, defaultgripper, shaft3) -->
<g id="edge11" class="edge">
<title>selector:
 pick_up(left_hand, defaultgripper, shaft3)&#45;&gt;sequence:
 pick_up(left_hand, defaultgripper, shaft3)</title>
<path fill="none" stroke="black" d="M1601.23,-213.58C1694.65,-197.75 1807.98,-178.56 1896.4,-163.58"/>
<polygon fill="black" stroke="black" points="1897.23,-166.99 1906.51,-161.87 1896.06,-160.09 1897.23,-166.99"/>
</g>
<!-- precondition:
 hold(left_hand, defaultgripper) -->
<g id="node13" class="node">
<title>precondition:
 hold(left_hand, defaultgripper)</title>
<ellipse fill="#ffec8b" stroke="black" cx="1839.55" cy="-33.94" rx="213.59" ry="33.88"/>
<text text-anchor="middle" x="1839.55" y="-39.54" font-family="Times,serif" font-size="18.00">precondition:</text>
<text text-anchor="middle" x="1839.55" y="-19.54" font-family="Times,serif" font-size="18.00"> hold(left_hand, defaultgripper)</text>
</g>
<!-- sequence:
 pick_up(left_hand, defaultgripper, shaft3)&#45;&gt;precondition:
 hold(left_hand, defaultgripper) -->
<g id="edge12" class="edge">
<title>sequence:
 pick_up(left_hand, defaultgripper, shaft3)&#45;&gt;precondition:
 hold(left_hand, defaultgripper)</title>
<path fill="none" stroke="black" d="M1996.48,-113.7C1971.36,-101.1 1939.7,-85.21 1911.41,-71.01"/>
<polygon fill="black" stroke="black" points="1912.86,-67.82 1902.36,-66.46 1909.72,-74.08 1912.86,-67.82"/>
</g>
<!-- precondition:
 is_empty(defaultgripper) -->
<g id="node14" class="node">
<title>precondition:
 is_empty(defaultgripper)</title>
<ellipse fill="#ffec8b" stroke="black" cx="2246.55" cy="-33.94" rx="175.23" ry="33.88"/>
<text text-anchor="middle" x="2246.55" y="-39.54" font-family="Times,serif" font-size="18.00">precondition:</text>
<text text-anchor="middle" x="2246.55" y="-19.54" font-family="Times,serif" font-size="18.00"> is_empty(defaultgripper)</text>
</g>
<!-- sequence:
 pick_up(left_hand, defaultgripper, shaft3)&#45;&gt;precondition:
 is_empty(defaultgripper) -->
<g id="edge13" class="edge">
<title>sequence:
 pick_up(left_hand, defaultgripper, shaft3)&#45;&gt;precondition:
 is_empty(defaultgripper)</title>
<path fill="none" stroke="black" d="M2088.84,-113.7C2114.4,-100.94 2146.7,-84.81 2175.4,-70.47"/>
<polygon fill="black" stroke="black" points="2177.2,-73.49 2184.58,-65.89 2174.07,-67.23 2177.2,-73.49"/>
</g>
<!-- action:
 pick_up(left_hand, defaultgripper, shaft3) -->
<g id="node15" class="node">
<title>action:
 pick_up(left_hand, defaultgripper, shaft3)</title>
<ellipse fill="lightgreen" stroke="black" cx="2721.55" cy="-33.94" rx="281.36" ry="33.88"/>
<text text-anchor="middle" x="2721.55" y="-39.54" font-family="Times,serif" font-size="18.00">action:</text>
<text text-anchor="middle" x="2721.55" y="-19.54" font-family="Times,serif" font-size="18.00"> pick_up(left_hand, defaultgripper, shaft3)</text>
</g>
<!-- sequence:
 pick_up(left_hand, defaultgripper, shaft3)&#45;&gt;action:
 pick_up(left_hand, defaultgripper, shaft3) -->
<g id="edge14" class="edge">
<title>sequence:
 pick_up(left_hand, defaultgripper, shaft3)&#45;&gt;action:
 pick_up(left_hand, defaultgripper, shaft3)</title>
<path fill="none" stroke="black" d="M2196.2,-113.77C2297.96,-98.5 2431.93,-78.4 2539.11,-62.32"/>
<polygon fill="black" stroke="black" points="2539.7,-65.77 2549.07,-60.82 2538.66,-58.84 2539.7,-65.77"/>
</g>
</g>
</svg>
