<?xml version="1.0" encoding="UTF-8" standalone="no"?>
<!DOCTYPE svg PUBLIC "-//W3C//DTD SVG 1.1//EN"
 "http://www.w3.org/Graphics/SVG/1.1/DTD/svg11.dtd">
<!-- Generated by graphviz version 2.43.0 (0)
 -->
<!-- Title: pastafarianism Pages: 1 -->
<svg width="2029pt" height="503pt"
 viewBox="0.00 0.00 2029.43 502.60" xmlns="http://www.w3.org/2000/svg" xmlns:xlink="http://www.w3.org/1999/xlink">
<g id="graph0" class="graph" transform="scale(1 1) rotate(0) translate(4 498.6)">
<title>pastafarianism</title>
<polygon fill="white" stroke="transparent" points="-4,4 -4,-498.6 2025.43,-498.6 2025.43,4 -4,4"/>
<!-- selector:
 insert(left_hand, defaultgripper, shaft3, gearbase_hole3) -->
<g id="node1" class="node">
<title>selector:
 insert(left_hand, defaultgripper, shaft3, gearbase_hole3)</title>
<polygon fill="#8deeee" stroke="black" points="1192.43,-442.54 1192.43,-473.18 953.5,-494.84 615.6,-494.84 376.67,-473.18 376.67,-442.54 615.6,-420.88 953.5,-420.88 1192.43,-442.54"/>
<text text-anchor="middle" x="784.55" y="-463.46" font-family="Times,serif" font-size="18.00">selector:</text>
<text text-anchor="middle" x="784.55" y="-443.46" font-family="Times,serif" font-size="18.00"> insert(left_hand, defaultgripper, shaft3, gearbase_hole3)</text>
</g>
<!-- target:
 is_inserted_to(shaft3, gearbase_hole3) -->
<g id="node2" class="node">
<title>target:
 is_inserted_to(shaft3, gearbase_hole3)</title>
<ellipse fill="#ffec8b" stroke="black" cx="511.55" cy="-351.18" rx="261.76" ry="33.88"/>
<text text-anchor="middle" x="511.55" y="-356.78" font-family="Times,serif" font-size="18.00">target:</text>
<text text-anchor="middle" x="511.55" y="-336.78" font-family="Times,serif" font-size="18.00"> is_inserted_to(shaft3, gearbase_hole3)</text>
</g>
<!-- selector:
 insert(left_hand, defaultgripper, shaft3, gearbase_hole3)&#45;&gt;target:
 is_inserted_to(shaft3, gearbase_hole3) -->
<g id="edge1" class="edge">
<title>selector:
 insert(left_hand, defaultgripper, shaft3, gearbase_hole3)&#45;&gt;target:
 is_inserted_to(shaft3, gearbase_hole3)</title>
<path fill="none" stroke="black" d="M690.98,-420.98C662.41,-410.03 631.05,-398 602.65,-387.11"/>
<polygon fill="black" stroke="black" points="603.73,-383.78 593.14,-383.47 601.22,-390.31 603.73,-383.78"/>
</g>
<!-- sequence:
 insert(left_hand, defaultgripper, shaft3, gearbase_hole3) -->
<g id="node3" class="node">
<title>sequence:
 insert(left_hand, defaultgripper, shaft3, gearbase_hole3)</title>
<polygon fill="#ff7f24" stroke="black" points="1324.05,-375.18 791.05,-375.18 791.05,-327.18 1324.05,-327.18 1324.05,-375.18"/>
<text text-anchor="middle" x="1057.55" y="-356.78" font-family="Times,serif" font-size="18.00">sequence:</text>
<text text-anchor="middle" x="1057.55" y="-336.78" font-family="Times,serif" font-size="18.00"> insert(left_hand, defaultgripper, shaft3, gearbase_hole3)</text>
</g>
<!-- selector:
 insert(left_hand, defaultgripper, shaft3, gearbase_hole3)&#45;&gt;sequence:
 insert(left_hand, defaultgripper, shaft3, gearbase_hole3) -->
<g id="edge2" class="edge">
<title>selector:
 insert(left_hand, defaultgripper, shaft3, gearbase_hole3)&#45;&gt;sequence:
 insert(left_hand, defaultgripper, shaft3, gearbase_hole3)</title>
<path fill="none" stroke="black" d="M878.12,-420.98C914.08,-407.19 954.47,-391.7 987.81,-378.92"/>
<polygon fill="black" stroke="black" points="989.38,-382.07 997.47,-375.22 986.88,-375.53 989.38,-382.07"/>
</g>
<!-- selector:
 change_tool(left_hand, inwardgripper, defaultgripper) -->
<g id="node4" class="node">
<title>selector:
 change_tool(left_hand, inwardgripper, defaultgripper)</title>
<polygon fill="#8deeee" stroke="black" points="846.72,-229.19 846.72,-259.82 618.16,-281.48 294.93,-281.48 66.37,-259.82 66.37,-229.19 294.93,-207.53 618.16,-207.53 846.72,-229.19"/>
<text text-anchor="middle" x="456.55" y="-250.1" font-family="Times,serif" font-size="18.00">selector:</text>
<text text-anchor="middle" x="456.55" y="-230.1" font-family="Times,serif" font-size="18.00"> change_tool(left_hand, inwardgripper, defaultgripper)</text>
</g>
<!-- sequence:
 insert(left_hand, defaultgripper, shaft3, gearbase_hole3)&#45;&gt;selector:
 change_tool(left_hand, inwardgripper, defaultgripper) -->
<g id="edge3" class="edge">
<title>sequence:
 insert(left_hand, defaultgripper, shaft3, gearbase_hole3)&#45;&gt;selector:
 change_tool(left_hand, inwardgripper, defaultgripper)</title>
<path fill="none" stroke="black" d="M925.28,-327.14C846.75,-313.47 745.6,-295.85 657.37,-280.48"/>
<polygon fill="black" stroke="black" points="657.96,-277.03 647.51,-278.76 656.76,-283.93 657.96,-277.03"/>
</g>
<!-- precondition:
 hold(defaultgripper, shaft3) -->
<g id="node10" class="node">
<title>precondition:
 hold(defaultgripper, shaft3)</title>
<ellipse fill="#ffec8b" stroke="black" cx="1057.55" cy="-244.5" rx="192.17" ry="33.88"/>
<text text-anchor="middle" x="1057.55" y="-250.1" font-family="Times,serif" font-size="18.00">precondition:</text>
<text text-anchor="middle" x="1057.55" y="-230.1" font-family="Times,serif" font-size="18.00"> hold(defaultgripper, shaft3)</text>
</g>
<!-- sequence:
 insert(left_hand, defaultgripper, shaft3, gearbase_hole3)&#45;&gt;precondition:
 hold(defaultgripper, shaft3) -->
<g id="edge9" class="edge">
<title>sequence:
 insert(left_hand, defaultgripper, shaft3, gearbase_hole3)&#45;&gt;precondition:
 hold(defaultgripper, shaft3)</title>
<path fill="none" stroke="black" d="M1057.55,-326.95C1057.55,-315.73 1057.55,-301.9 1057.55,-288.84"/>
<polygon fill="black" stroke="black" points="1061.05,-288.6 1057.55,-278.6 1054.05,-288.6 1061.05,-288.6"/>
</g>
<!-- action:
 insert(left_hand, defaultgripper, shaft3, gearbase_hole3) -->
<g id="node11" class="node">
<title>action:
 insert(left_hand, defaultgripper, shaft3, gearbase_hole3)</title>
<ellipse fill="lightgreen" stroke="black" cx="1644.55" cy="-244.5" rx="376.78" ry="33.88"/>
<text text-anchor="middle" x="1644.55" y="-250.1" font-family="Times,serif" font-size="18.00">action:</text>
<text text-anchor="middle" x="1644.55" y="-230.1" font-family="Times,serif" font-size="18.00"> insert(left_hand, defaultgripper, shaft3, gearbase_hole3)</text>
</g>
<!-- sequence:
 insert(left_hand, defaultgripper, shaft3, gearbase_hole3)&#45;&gt;action:
 insert(left_hand, defaultgripper, shaft3, gearbase_hole3) -->
<g id="edge10" class="edge">
<title>sequence:
 insert(left_hand, defaultgripper, shaft3, gearbase_hole3)&#45;&gt;action:
 insert(left_hand, defaultgripper, shaft3, gearbase_hole3)</title>
<path fill="none" stroke="black" d="M1186.73,-327.14C1269.61,-312.36 1378.3,-292.98 1468.97,-276.81"/>
<polygon fill="black" stroke="black" points="1469.86,-280.21 1479.09,-275.01 1468.63,-273.32 1469.86,-280.21"/>
</g>
<!-- target:
 hold(left_hand, defaultgripper) -->
<g id="node5" class="node">
<title>target:
 hold(left_hand, defaultgripper)</title>
<ellipse fill="#ffec8b" stroke="black" cx="213.55" cy="-137.82" rx="213.59" ry="33.88"/>
<text text-anchor="middle" x="213.55" y="-143.42" font-family="Times,serif" font-size="18.00">target:</text>
<text text-anchor="middle" x="213.55" y="-123.42" font-family="Times,serif" font-size="18.00"> hold(left_hand, defaultgripper)</text>
</g>
<!-- selector:
 change_tool(left_hand, inwardgripper, defaultgripper)&#45;&gt;target:
 hold(left_hand, defaultgripper) -->
<g id="edge4" class="edge">
<title>selector:
 change_tool(left_hand, inwardgripper, defaultgripper)&#45;&gt;target:
 hold(left_hand, defaultgripper)</title>
<path fill="none" stroke="black" d="M373.26,-207.62C348.04,-196.76 320.38,-184.84 295.26,-174.03"/>
<polygon fill="black" stroke="black" points="296.34,-170.68 285.77,-169.94 293.57,-177.11 296.34,-170.68"/>
</g>
<!-- sequence:
 change_tool(left_hand, inwardgripper, defaultgripper) -->
<g id="node6" class="node">
<title>sequence:
 change_tool(left_hand, inwardgripper, defaultgripper)</title>
<polygon fill="#ff7f24" stroke="black" points="955.55,-161.82 445.55,-161.82 445.55,-113.82 955.55,-113.82 955.55,-161.82"/>
<text text-anchor="middle" x="700.55" y="-143.42" font-family="Times,serif" font-size="18.00">sequence:</text>
<text text-anchor="middle" x="700.55" y="-123.42" font-family="Times,serif" font-size="18.00"> change_tool(left_hand, inwardgripper, defaultgripper)</text>
</g>
<!-- selector:
 change_tool(left_hand, inwardgripper, defaultgripper)&#45;&gt;sequence:
 change_tool(left_hand, inwardgripper, defaultgripper) -->
<g id="edge5" class="edge">
<title>selector:
 change_tool(left_hand, inwardgripper, defaultgripper)&#45;&gt;sequence:
 change_tool(left_hand, inwardgripper, defaultgripper)</title>
<path fill="none" stroke="black" d="M540.18,-207.62C572.04,-193.95 607.8,-178.61 637.45,-165.89"/>
<polygon fill="black" stroke="black" points="639.04,-169.02 646.85,-161.86 636.28,-162.59 639.04,-169.02"/>
</g>
<!-- precondition:
 hold(left_hand, inwardgripper) -->
<g id="node7" class="node">
<title>precondition:
 hold(left_hand, inwardgripper)</title>
<ellipse fill="#ffec8b" stroke="black" cx="295.55" cy="-33.94" rx="212.68" ry="33.88"/>
<text text-anchor="middle" x="295.55" y="-39.54" font-family="Times,serif" font-size="18.00">precondition:</text>
<text text-anchor="middle" x="295.55" y="-19.54" font-family="Times,serif" font-size="18.00"> hold(left_hand, inwardgripper)</text>
</g>
<!-- sequence:
 change_tool(left_hand, inwardgripper, defaultgripper)&#45;&gt;precondition:
 hold(left_hand, inwardgripper) -->
<g id="edge6" class="edge">
<title>sequence:
 change_tool(left_hand, inwardgripper, defaultgripper)&#45;&gt;precondition:
 hold(left_hand, inwardgripper)</title>
<path fill="none" stroke="black" d="M608.9,-113.77C551.97,-99.45 478.16,-80.88 416.47,-65.36"/>
<polygon fill="black" stroke="black" points="417.23,-61.94 406.68,-62.9 415.52,-68.73 417.23,-61.94"/>
</g>
<!-- precondition:
 is_empty(inwardgripper) -->
<g id="node8" class="node">
<title>precondition:
 is_empty(inwardgripper)</title>
<ellipse fill="#ffec8b" stroke="black" cx="700.55" cy="-33.94" rx="174.81" ry="33.88"/>
<text text-anchor="middle" x="700.55" y="-39.54" font-family="Times,serif" font-size="18.00">precondition:</text>
<text text-anchor="middle" x="700.55" y="-19.54" font-family="Times,serif" font-size="18.00"> is_empty(inwardgripper)</text>
</g>
<!-- sequence:
 change_tool(left_hand, inwardgripper, defaultgripper)&#45;&gt;precondition:
 is_empty(inwardgripper) -->
<g id="edge7" class="edge">
<title>sequence:
 change_tool(left_hand, inwardgripper, defaultgripper)&#45;&gt;precondition:
 is_empty(inwardgripper)</title>
<path fill="none" stroke="black" d="M700.55,-113.7C700.55,-103.16 700.55,-90.31 700.55,-78.08"/>
<polygon fill="black" stroke="black" points="704.05,-78.01 700.55,-68.01 697.05,-78.01 704.05,-78.01"/>
</g>
<!-- action:
 change_tool(left_hand, inwardgripper, defaultgripper) -->
<g id="node9" class="node">
<title>action:
 change_tool(left_hand, inwardgripper, defaultgripper)</title>
<ellipse fill="lightgreen" stroke="black" cx="1253.55" cy="-33.94" rx="360.75" ry="33.88"/>
<text text-anchor="middle" x="1253.55" y="-39.54" font-family="Times,serif" font-size="18.00">action:</text>
<text text-anchor="middle" x="1253.55" y="-19.54" font-family="Times,serif" font-size="18.00"> change_tool(left_hand, inwardgripper, defaultgripper)</text>
</g>
<!-- sequence:
 change_tool(left_hand, inwardgripper, defaultgripper)&#45;&gt;action:
 change_tool(left_hand, inwardgripper, defaultgripper) -->
<g id="edge8" class="edge">
<title>sequence:
 change_tool(left_hand, inwardgripper, defaultgripper)&#45;&gt;action:
 change_tool(left_hand, inwardgripper, defaultgripper)</title>
<path fill="none" stroke="black" d="M825.68,-113.77C901.92,-99.72 1000.35,-81.59 1083.57,-66.26"/>
<polygon fill="black" stroke="black" points="1084.44,-69.66 1093.64,-64.4 1083.17,-62.77 1084.44,-69.66"/>
</g>
</g>
</svg>
