<?xml version="1.0" encoding="UTF-8" standalone="no"?>
<!DOCTYPE svg PUBLIC "-//W3C//DTD SVG 1.1//EN"
 "http://www.w3.org/Graphics/SVG/1.1/DTD/svg11.dtd">
<!-- Generated by graphviz version 2.43.0 (0)
 -->
<!-- Title: pastafarianism Pages: 1 -->
<svg width="1240pt" height="476pt"
 viewBox="0.00 0.00 1239.91 476.00" xmlns="http://www.w3.org/2000/svg" xmlns:xlink="http://www.w3.org/1999/xlink">
<g id="graph0" class="graph" transform="scale(1 1) rotate(0) translate(4 472)">
<title>pastafarianism</title>
<polygon fill="white" stroke="transparent" points="-4,4 -4,-472 1235.91,-472 1235.91,4 -4,4"/>
<!-- Sequence -->
<g id="node1" class="node">
<title>Sequence</title>
<polygon fill="orange" stroke="black" points="674.04,-468 612.04,-468 612.04,-432 674.04,-432 674.04,-468"/>
<text text-anchor="middle" x="643.04" y="-447.8" font-family="Times,serif" font-size="9.00">Sequence</text>
</g>
<!-- Fallback -->
<g id="node2" class="node">
<title>Fallback</title>
<polygon fill="cyan" stroke="black" points="414.04,-370.54 414.04,-385.46 393.54,-396 364.55,-396 344.05,-385.46 344.05,-370.54 364.55,-360 393.54,-360 414.04,-370.54"/>
<text text-anchor="middle" x="379.04" y="-375.8" font-family="Times,serif" font-size="9.00">Fallback</text>
</g>
<!-- Sequence&#45;&gt;Fallback -->
<g id="edge1" class="edge">
<title>Sequence&#45;&gt;Fallback</title>
<path fill="none" stroke="black" d="M611.98,-440.76C564.48,-428.17 473.71,-404.1 420.59,-390.02"/>
<polygon fill="black" stroke="black" points="421.37,-386.6 410.81,-387.42 419.58,-393.37 421.37,-386.6"/>
</g>
<!-- Fallback &#160;&#160;&#160; -->
<g id="node14" class="node">
<title>Fallback &#160;&#160;&#160;</title>
<polygon fill="cyan" stroke="black" points="625.04,-370.54 625.04,-385.46 604.54,-396 575.55,-396 555.05,-385.46 555.05,-370.54 575.55,-360 604.54,-360 625.04,-370.54"/>
<text text-anchor="middle" x="590.04" y="-375.8" font-family="Times,serif" font-size="9.00">Fallback</text>
</g>
<!-- Sequence&#45;&gt;Fallback &#160;&#160;&#160; -->
<g id="edge13" class="edge">
<title>Sequence&#45;&gt;Fallback &#160;&#160;&#160;</title>
<path fill="none" stroke="black" d="M629.94,-431.7C623.65,-423.39 616,-413.28 609.08,-404.14"/>
<polygon fill="black" stroke="black" points="611.82,-401.96 602.99,-396.1 606.24,-406.19 611.82,-401.96"/>
</g>
<!-- in_gripper none -->
<g id="node27" class="node">
<title>in_gripper none</title>
<ellipse fill="lightgray" stroke="black" cx="696.04" cy="-378" rx="52.58" ry="18"/>
<text text-anchor="middle" x="696.04" y="-375.8" font-family="Times,serif" font-size="9.00">in_gripper none</text>
</g>
<!-- Sequence&#45;&gt;in_gripper none -->
<g id="edge26" class="edge">
<title>Sequence&#45;&gt;in_gripper none</title>
<path fill="none" stroke="black" d="M656.15,-431.7C662.53,-423.27 670.32,-412.97 677.32,-403.73"/>
<polygon fill="black" stroke="black" points="680.21,-405.71 683.46,-395.62 674.63,-401.48 680.21,-405.71"/>
</g>
<!-- gripper_state open &#160; -->
<g id="node28" class="node">
<title>gripper_state open &#160;</title>
<ellipse fill="lightgray" stroke="black" cx="827.04" cy="-378" rx="60.09" ry="18"/>
<text text-anchor="middle" x="827.04" y="-375.8" font-family="Times,serif" font-size="9.00">gripper_state open</text>
</g>
<!-- Sequence&#45;&gt;gripper_state open &#160; -->
<g id="edge27" class="edge">
<title>Sequence&#45;&gt;gripper_state open &#160;</title>
<path fill="none" stroke="black" d="M674.26,-437.13C703.75,-425.91 748.32,-408.95 781.72,-396.24"/>
<polygon fill="black" stroke="black" points="783.16,-399.44 791.26,-392.61 780.67,-392.9 783.16,-399.44"/>
</g>
<!-- object_roughly_at GreenBox &#45;0.8 &#45;1.0 0.89 0.0 base_link -->
<g id="node3" class="node">
<title>object_roughly_at GreenBox &#45;0.8 &#45;1.0 0.89 0.0 base_link</title>
<ellipse fill="lightgray" stroke="black" cx="169.04" cy="-306" rx="160.51" ry="18"/>
<text text-anchor="middle" x="169.04" y="-303.8" font-family="Times,serif" font-size="9.00">object_roughly_at GreenBox &#45;0.8 &#45;1.0 0.89 0.0 base_link</text>
</g>
<!-- Fallback&#45;&gt;object_roughly_at GreenBox &#45;0.8 &#45;1.0 0.89 0.0 base_link -->
<g id="edge2" class="edge">
<title>Fallback&#45;&gt;object_roughly_at GreenBox &#45;0.8 &#45;1.0 0.89 0.0 base_link</title>
<path fill="none" stroke="black" d="M349.84,-367.27C318.3,-356.75 267.2,-339.72 227.37,-326.44"/>
<polygon fill="black" stroke="black" points="228.35,-323.08 217.76,-323.24 226.14,-329.72 228.35,-323.08"/>
</g>
<!-- Sequence  -->
<g id="node4" class="node">
<title>Sequence </title>
<polygon fill="orange" stroke="black" points="410.04,-324 348.04,-324 348.04,-288 410.04,-288 410.04,-324"/>
<text text-anchor="middle" x="379.04" y="-303.8" font-family="Times,serif" font-size="9.00">Sequence</text>
</g>
<!-- Fallback&#45;&gt;Sequence  -->
<g id="edge3" class="edge">
<title>Fallback&#45;&gt;Sequence </title>
<path fill="none" stroke="black" d="M379.04,-359.7C379.04,-351.98 379.04,-342.71 379.04,-334.11"/>
<polygon fill="black" stroke="black" points="382.54,-334.1 379.04,-324.1 375.54,-334.1 382.54,-334.1"/>
</g>
<!-- Fallback  -->
<g id="node5" class="node">
<title>Fallback </title>
<polygon fill="cyan" stroke="black" points="235.04,-226.54 235.04,-241.46 214.54,-252 185.55,-252 165.05,-241.46 165.05,-226.54 185.55,-216 214.54,-216 235.04,-226.54"/>
<text text-anchor="middle" x="200.04" y="-231.8" font-family="Times,serif" font-size="9.00">Fallback</text>
</g>
<!-- Sequence &#45;&gt;Fallback  -->
<g id="edge4" class="edge">
<title>Sequence &#45;&gt;Fallback </title>
<path fill="none" stroke="black" d="M347.65,-291.52C344.75,-290.32 341.84,-289.13 339.04,-288 304.76,-274.18 265.36,-259.25 237.29,-248.77"/>
<polygon fill="black" stroke="black" points="238.45,-245.46 227.86,-245.25 236,-252.02 238.45,-245.46"/>
</g>
<!-- Fallback &#160;&#160; -->
<g id="node12" class="node">
<title>Fallback &#160;&#160;</title>
<polygon fill="cyan" stroke="black" points="414.04,-226.54 414.04,-241.46 393.54,-252 364.55,-252 344.05,-241.46 344.05,-226.54 364.55,-216 393.54,-216 414.04,-226.54"/>
<text text-anchor="middle" x="379.04" y="-231.8" font-family="Times,serif" font-size="9.00">Fallback</text>
</g>
<!-- Sequence &#45;&gt;Fallback &#160;&#160; -->
<g id="edge11" class="edge">
<title>Sequence &#45;&gt;Fallback &#160;&#160;</title>
<path fill="none" stroke="black" d="M379.04,-287.7C379.04,-279.98 379.04,-270.71 379.04,-262.11"/>
<polygon fill="black" stroke="black" points="382.54,-262.1 379.04,-252.1 375.54,-262.1 382.54,-262.1"/>
</g>
<!-- in_gripper GreenBox -->
<g id="node6" class="node">
<title>in_gripper GreenBox</title>
<ellipse fill="lightgray" stroke="black" cx="85.04" cy="-162" rx="65.64" ry="18"/>
<text text-anchor="middle" x="85.04" y="-159.8" font-family="Times,serif" font-size="9.00">in_gripper GreenBox</text>
</g>
<!-- Fallback &#45;&gt;in_gripper GreenBox -->
<g id="edge5" class="edge">
<title>Fallback &#45;&gt;in_gripper GreenBox</title>
<path fill="none" stroke="black" d="M178.14,-219.67C161.6,-209.6 138.58,-195.59 119.57,-184.02"/>
<polygon fill="black" stroke="black" points="121.25,-180.94 110.89,-178.73 117.61,-186.92 121.25,-180.94"/>
</g>
<!-- Sequence &#160; -->
<g id="node7" class="node">
<title>Sequence &#160;</title>
<polygon fill="orange" stroke="black" points="231.04,-180 169.04,-180 169.04,-144 231.04,-144 231.04,-180"/>
<text text-anchor="middle" x="200.04" y="-159.8" font-family="Times,serif" font-size="9.00">Sequence</text>
</g>
<!-- Fallback &#45;&gt;Sequence &#160; -->
<g id="edge6" class="edge">
<title>Fallback &#45;&gt;Sequence &#160;</title>
<path fill="none" stroke="black" d="M200.04,-215.7C200.04,-207.98 200.04,-198.71 200.04,-190.11"/>
<polygon fill="black" stroke="black" points="203.54,-190.1 200.04,-180.1 196.54,-190.1 203.54,-190.1"/>
</g>
<!-- Fallback &#160; -->
<g id="node8" class="node">
<title>Fallback &#160;</title>
<polygon fill="cyan" stroke="black" points="157.04,-82.54 157.04,-97.46 136.54,-108 107.55,-108 87.05,-97.46 87.05,-82.54 107.55,-72 136.54,-72 157.04,-82.54"/>
<text text-anchor="middle" x="122.04" y="-87.8" font-family="Times,serif" font-size="9.00">Fallback</text>
</g>
<!-- Sequence &#160;&#45;&gt;Fallback &#160; -->
<g id="edge7" class="edge">
<title>Sequence &#160;&#45;&gt;Fallback &#160;</title>
<path fill="none" stroke="black" d="M180.76,-143.7C170.6,-134.57 158.01,-123.28 147.1,-113.48"/>
<polygon fill="black" stroke="black" points="149.29,-110.75 139.51,-106.67 144.61,-115.96 149.29,-110.75"/>
</g>
<!-- pick0 GreenBox -->
<g id="node11" class="node">
<title>pick0 GreenBox</title>
<ellipse fill="lightgray" stroke="black" cx="228.04" cy="-90" rx="52.58" ry="18"/>
<text text-anchor="middle" x="228.04" y="-87.8" font-family="Times,serif" font-size="9.00">pick0 GreenBox</text>
</g>
<!-- Sequence &#160;&#45;&gt;pick0 GreenBox -->
<g id="edge10" class="edge">
<title>Sequence &#160;&#45;&gt;pick0 GreenBox</title>
<path fill="none" stroke="black" d="M206.97,-143.7C210.12,-135.81 213.92,-126.3 217.43,-117.55"/>
<polygon fill="black" stroke="black" points="220.74,-118.69 221.2,-108.1 214.24,-116.09 220.74,-118.69"/>
</g>
<!-- gripper_state open -->
<g id="node9" class="node">
<title>gripper_state open</title>
<ellipse fill="lightgray" stroke="black" cx="60.04" cy="-18" rx="60.09" ry="18"/>
<text text-anchor="middle" x="60.04" y="-15.8" font-family="Times,serif" font-size="9.00">gripper_state open</text>
</g>
<!-- Fallback &#160;&#45;&gt;gripper_state open -->
<g id="edge8" class="edge">
<title>Fallback &#160;&#45;&gt;gripper_state open</title>
<path fill="none" stroke="black" d="M107.04,-72.05C99.42,-63.46 90.03,-52.86 81.65,-43.4"/>
<polygon fill="black" stroke="black" points="84.17,-40.95 74.91,-35.79 78.93,-45.6 84.17,-40.95"/>
</g>
<!-- open_gripper -->
<g id="node10" class="node">
<title>open_gripper</title>
<ellipse fill="lightgray" stroke="black" cx="184.04" cy="-18" rx="45.72" ry="18"/>
<text text-anchor="middle" x="184.04" y="-15.8" font-family="Times,serif" font-size="9.00">open_gripper</text>
</g>
<!-- Fallback &#160;&#45;&gt;open_gripper -->
<g id="edge9" class="edge">
<title>Fallback &#160;&#45;&gt;open_gripper</title>
<path fill="none" stroke="black" d="M137.05,-72.05C144.78,-63.33 154.33,-52.54 162.8,-42.98"/>
<polygon fill="black" stroke="black" points="165.59,-45.11 169.6,-35.31 160.35,-40.47 165.59,-45.11"/>
</g>
<!-- place0 GreenBox &#45;0.8 &#45;1.0 0.89 0.0 base_link -->
<g id="node13" class="node">
<title>place0 GreenBox &#45;0.8 &#45;1.0 0.89 0.0 base_link</title>
<ellipse fill="lightgray" stroke="black" cx="379.04" cy="-162" rx="130.46" ry="18"/>
<text text-anchor="middle" x="379.04" y="-159.8" font-family="Times,serif" font-size="9.00">place0 GreenBox &#45;0.8 &#45;1.0 0.89 0.0 base_link</text>
</g>
<!-- Fallback &#160;&#160;&#45;&gt;place0 GreenBox &#45;0.8 &#45;1.0 0.89 0.0 base_link -->
<g id="edge12" class="edge">
<title>Fallback &#160;&#160;&#45;&gt;place0 GreenBox &#45;0.8 &#45;1.0 0.89 0.0 base_link</title>
<path fill="none" stroke="black" d="M379.04,-215.7C379.04,-207.98 379.04,-198.71 379.04,-190.11"/>
<polygon fill="black" stroke="black" points="382.54,-190.1 379.04,-180.1 375.54,-190.1 382.54,-190.1"/>
</g>
<!-- object_roughly_at BlueBox &#45;1.2 &#45;1.0 0.89 0.0 base_link -->
<g id="node15" class="node">
<title>object_roughly_at BlueBox &#45;1.2 &#45;1.0 0.89 0.0 base_link</title>
<ellipse fill="lightgray" stroke="black" cx="590.04" cy="-306" rx="155.77" ry="18"/>
<text text-anchor="middle" x="590.04" y="-303.8" font-family="Times,serif" font-size="9.00">object_roughly_at BlueBox &#45;1.2 &#45;1.0 0.89 0.0 base_link</text>
</g>
<!-- Fallback &#160;&#160;&#160;&#45;&gt;object_roughly_at BlueBox &#45;1.2 &#45;1.0 0.89 0.0 base_link -->
<g id="edge14" class="edge">
<title>Fallback &#160;&#160;&#160;&#45;&gt;object_roughly_at BlueBox &#45;1.2 &#45;1.0 0.89 0.0 base_link</title>
<path fill="none" stroke="black" d="M590.04,-359.7C590.04,-351.98 590.04,-342.71 590.04,-334.11"/>
<polygon fill="black" stroke="black" points="593.54,-334.1 590.04,-324.1 586.54,-334.1 593.54,-334.1"/>
</g>
<!-- Sequence &#160;&#160; -->
<g id="node16" class="node">
<title>Sequence &#160;&#160;</title>
<polygon fill="orange" stroke="black" points="830.04,-324 768.04,-324 768.04,-288 830.04,-288 830.04,-324"/>
<text text-anchor="middle" x="799.04" y="-303.8" font-family="Times,serif" font-size="9.00">Sequence</text>
</g>
<!-- Fallback &#160;&#160;&#160;&#45;&gt;Sequence &#160;&#160; -->
<g id="edge15" class="edge">
<title>Fallback &#160;&#160;&#160;&#45;&gt;Sequence &#160;&#160;</title>
<path fill="none" stroke="black" d="M616.91,-366.23C622.54,-364.08 628.46,-361.9 634.04,-360 687.14,-341.88 701.95,-342.12 755.04,-324 756.09,-323.64 757.15,-323.28 758.22,-322.9"/>
<polygon fill="black" stroke="black" points="759.7,-326.08 767.91,-319.38 757.31,-319.51 759.7,-326.08"/>
</g>
<!-- Fallback &#160;&#160;&#160;&#160; -->
<g id="node17" class="node">
<title>Fallback &#160;&#160;&#160;&#160;</title>
<polygon fill="cyan" stroke="black" points="624.04,-226.54 624.04,-241.46 603.54,-252 574.55,-252 554.05,-241.46 554.05,-226.54 574.55,-216 603.54,-216 624.04,-226.54"/>
<text text-anchor="middle" x="589.04" y="-231.8" font-family="Times,serif" font-size="9.00">Fallback</text>
</g>
<!-- Sequence &#160;&#160;&#45;&gt;Fallback &#160;&#160;&#160;&#160; -->
<g id="edge16" class="edge">
<title>Sequence &#160;&#160;&#45;&gt;Fallback &#160;&#160;&#160;&#160;</title>
<path fill="none" stroke="black" d="M767.91,-292.6C763.61,-291 759.23,-289.42 755.04,-288 701.1,-269.72 685.92,-270.49 632.04,-252 629.8,-251.23 627.51,-250.41 625.2,-249.57"/>
<polygon fill="black" stroke="black" points="626.33,-246.25 615.74,-245.99 623.86,-252.8 626.33,-246.25"/>
</g>
<!-- object_roughly_at GreenBox &#45;0.8 &#45;1.0 0.89 0.0 base_link &#160; -->
<g id="node25" class="node">
<title>object_roughly_at GreenBox &#45;0.8 &#45;1.0 0.89 0.0 base_link &#160;</title>
<ellipse fill="lightgray" stroke="black" cx="802.04" cy="-234" rx="160.51" ry="18"/>
<text text-anchor="middle" x="802.04" y="-231.8" font-family="Times,serif" font-size="9.00">object_roughly_at GreenBox &#45;0.8 &#45;1.0 0.89 0.0 base_link</text>
</g>
<!-- Sequence &#160;&#160;&#45;&gt;object_roughly_at GreenBox &#45;0.8 &#45;1.0 0.89 0.0 base_link &#160; -->
<g id="edge24" class="edge">
<title>Sequence &#160;&#160;&#45;&gt;object_roughly_at GreenBox &#45;0.8 &#45;1.0 0.89 0.0 base_link &#160;</title>
<path fill="none" stroke="black" d="M799.79,-287.7C800.12,-279.98 800.51,-270.71 800.88,-262.11"/>
<polygon fill="black" stroke="black" points="804.38,-262.25 801.31,-252.1 797.39,-261.95 804.38,-262.25"/>
</g>
<!-- place1 BlueBox &#45;1.2 &#45;1.0 0.89 0.0 base_link -->
<g id="node26" class="node">
<title>place1 BlueBox &#45;1.2 &#45;1.0 0.89 0.0 base_link</title>
<ellipse fill="lightgray" stroke="black" cx="1106.04" cy="-234" rx="125.72" ry="18"/>
<text text-anchor="middle" x="1106.04" y="-231.8" font-family="Times,serif" font-size="9.00">place1 BlueBox &#45;1.2 &#45;1.0 0.89 0.0 base_link</text>
</g>
<!-- Sequence &#160;&#160;&#45;&gt;place1 BlueBox &#45;1.2 &#45;1.0 0.89 0.0 base_link -->
<g id="edge25" class="edge">
<title>Sequence &#160;&#160;&#45;&gt;place1 BlueBox &#45;1.2 &#45;1.0 0.89 0.0 base_link</title>
<path fill="none" stroke="black" d="M830.17,-297.9C877.12,-287.2 967.43,-266.61 1031.93,-251.9"/>
<polygon fill="black" stroke="black" points="1033.08,-255.23 1042.05,-249.59 1031.52,-248.4 1033.08,-255.23"/>
</g>
<!-- in_gripper BlueBox -->
<g id="node18" class="node">
<title>in_gripper BlueBox</title>
<ellipse fill="lightgray" stroke="black" cx="589.04" cy="-162" rx="61.55" ry="18"/>
<text text-anchor="middle" x="589.04" y="-159.8" font-family="Times,serif" font-size="9.00">in_gripper BlueBox</text>
</g>
<!-- Fallback &#160;&#160;&#160;&#160;&#45;&gt;in_gripper BlueBox -->
<g id="edge17" class="edge">
<title>Fallback &#160;&#160;&#160;&#160;&#45;&gt;in_gripper BlueBox</title>
<path fill="none" stroke="black" d="M589.04,-215.7C589.04,-207.98 589.04,-198.71 589.04,-190.11"/>
<polygon fill="black" stroke="black" points="592.54,-190.1 589.04,-180.1 585.54,-190.1 592.54,-190.1"/>
</g>
<!-- Sequence &#160;&#160;&#160; -->
<g id="node19" class="node">
<title>Sequence &#160;&#160;&#160;</title>
<polygon fill="orange" stroke="black" points="731.04,-180 669.04,-180 669.04,-144 731.04,-144 731.04,-180"/>
<text text-anchor="middle" x="700.04" y="-159.8" font-family="Times,serif" font-size="9.00">Sequence</text>
</g>
<!-- Fallback &#160;&#160;&#160;&#160;&#45;&gt;Sequence &#160;&#160;&#160; -->
<g id="edge18" class="edge">
<title>Fallback &#160;&#160;&#160;&#160;&#45;&gt;Sequence &#160;&#160;&#160;</title>
<path fill="none" stroke="black" d="M610.45,-219.5C625.57,-209.96 646.22,-196.94 663.88,-185.8"/>
<polygon fill="black" stroke="black" points="666.21,-188.47 672.8,-180.18 662.48,-182.55 666.21,-188.47"/>
</g>
<!-- object_roughly_at GreenBox &#45;0.8 &#45;1.0 0.89 0.0 base_link  -->
<g id="node20" class="node">
<title>object_roughly_at GreenBox &#45;0.8 &#45;1.0 0.89 0.0 base_link </title>
<ellipse fill="lightgray" stroke="black" cx="487.04" cy="-90" rx="160.51" ry="18"/>
<text text-anchor="middle" x="487.04" y="-87.8" font-family="Times,serif" font-size="9.00">object_roughly_at GreenBox &#45;0.8 &#45;1.0 0.89 0.0 base_link</text>
</g>
<!-- Sequence &#160;&#160;&#160;&#45;&gt;object_roughly_at GreenBox &#45;0.8 &#45;1.0 0.89 0.0 base_link  -->
<g id="edge19" class="edge">
<title>Sequence &#160;&#160;&#160;&#45;&gt;object_roughly_at GreenBox &#45;0.8 &#45;1.0 0.89 0.0 base_link </title>
<path fill="none" stroke="black" d="M668.73,-147.32C665.81,-146.16 662.88,-145.03 660.04,-144 625.41,-131.37 586.17,-119.19 553.83,-109.69"/>
<polygon fill="black" stroke="black" points="554.61,-106.27 544.03,-106.83 552.65,-112.99 554.61,-106.27"/>
</g>
<!-- Fallback &#160;&#160;&#160;&#160;&#160; -->
<g id="node21" class="node">
<title>Fallback &#160;&#160;&#160;&#160;&#160;</title>
<polygon fill="cyan" stroke="black" points="735.04,-82.54 735.04,-97.46 714.54,-108 685.55,-108 665.05,-97.46 665.05,-82.54 685.55,-72 714.54,-72 735.04,-82.54"/>
<text text-anchor="middle" x="700.04" y="-87.8" font-family="Times,serif" font-size="9.00">Fallback</text>
</g>
<!-- Sequence &#160;&#160;&#160;&#45;&gt;Fallback &#160;&#160;&#160;&#160;&#160; -->
<g id="edge20" class="edge">
<title>Sequence &#160;&#160;&#160;&#45;&gt;Fallback &#160;&#160;&#160;&#160;&#160;</title>
<path fill="none" stroke="black" d="M700.04,-143.7C700.04,-135.98 700.04,-126.71 700.04,-118.11"/>
<polygon fill="black" stroke="black" points="703.54,-118.1 700.04,-108.1 696.54,-118.1 703.54,-118.1"/>
</g>
<!-- pick1 BlueBox -->
<g id="node24" class="node">
<title>pick1 BlueBox</title>
<ellipse fill="lightgray" stroke="black" cx="801.04" cy="-90" rx="47.84" ry="18"/>
<text text-anchor="middle" x="801.04" y="-87.8" font-family="Times,serif" font-size="9.00">pick1 BlueBox</text>
</g>
<!-- Sequence &#160;&#160;&#160;&#45;&gt;pick1 BlueBox -->
<g id="edge23" class="edge">
<title>Sequence &#160;&#160;&#160;&#45;&gt;pick1 BlueBox</title>
<path fill="none" stroke="black" d="M724.75,-143.88C738.62,-134.27 756.03,-122.2 770.71,-112.02"/>
<polygon fill="black" stroke="black" points="772.77,-114.85 779,-106.28 768.79,-109.1 772.77,-114.85"/>
</g>
<!-- gripper_state open  -->
<g id="node22" class="node">
<title>gripper_state open </title>
<ellipse fill="lightgray" stroke="black" cx="638.04" cy="-18" rx="60.09" ry="18"/>
<text text-anchor="middle" x="638.04" y="-15.8" font-family="Times,serif" font-size="9.00">gripper_state open</text>
</g>
<!-- Fallback &#160;&#160;&#160;&#160;&#160;&#45;&gt;gripper_state open  -->
<g id="edge21" class="edge">
<title>Fallback &#160;&#160;&#160;&#160;&#160;&#45;&gt;gripper_state open </title>
<path fill="none" stroke="black" d="M685.04,-72.05C677.42,-63.46 668.03,-52.86 659.65,-43.4"/>
<polygon fill="black" stroke="black" points="662.17,-40.95 652.91,-35.79 656.93,-45.6 662.17,-40.95"/>
</g>
<!-- open_gripper  -->
<g id="node23" class="node">
<title>open_gripper </title>
<ellipse fill="lightgray" stroke="black" cx="762.04" cy="-18" rx="45.72" ry="18"/>
<text text-anchor="middle" x="762.04" y="-15.8" font-family="Times,serif" font-size="9.00">open_gripper</text>
</g>
<!-- Fallback &#160;&#160;&#160;&#160;&#160;&#45;&gt;open_gripper  -->
<g id="edge22" class="edge">
<title>Fallback &#160;&#160;&#160;&#160;&#160;&#45;&gt;open_gripper </title>
<path fill="none" stroke="black" d="M715.05,-72.05C722.78,-63.33 732.33,-52.54 740.8,-42.98"/>
<polygon fill="black" stroke="black" points="743.59,-45.11 747.6,-35.31 738.35,-40.47 743.59,-45.11"/>
</g>
</g>
</svg>
