<?xml version="1.0" encoding="UTF-8" standalone="no"?>
<!DOCTYPE svg PUBLIC "-//W3C//DTD SVG 1.1//EN"
 "http://www.w3.org/Graphics/SVG/1.1/DTD/svg11.dtd">
<!-- Generated by graphviz version 2.43.0 (0)
 -->
<!-- Title: pastafarianism Pages: 1 -->
<svg width="4396pt" height="289pt"
 viewBox="0.00 0.00 4395.85 289.24" xmlns="http://www.w3.org/2000/svg" xmlns:xlink="http://www.w3.org/1999/xlink">
<g id="graph0" class="graph" transform="scale(1 1) rotate(0) translate(4 285.24)">
<title>pastafarianism</title>
<polygon fill="white" stroke="transparent" points="-4,4 -4,-285.24 4391.85,-285.24 4391.85,4 -4,4"/>
<!-- selector:
 fix_left_hand_issue -->
<g id="node1" class="node">
<title>selector:
 fix_left_hand_issue</title>
<polygon fill="#8deeee" stroke="black" points="1649.79,-229.19 1649.79,-259.82 1562.82,-281.48 1439.83,-281.48 1352.86,-259.82 1352.86,-229.19 1439.83,-207.53 1562.82,-207.53 1649.79,-229.19"/>
<text text-anchor="middle" x="1501.32" y="-250.1" font-family="Times,serif" font-size="18.00">selector:</text>
<text text-anchor="middle" x="1501.32" y="-230.1" font-family="Times,serif" font-size="18.00"> fix_left_hand_issue</text>
</g>
<!-- target:
 hold(left_hand, shaft1) -->
<g id="node2" class="node">
<title>target:
 hold(left_hand, shaft1)</title>
<ellipse fill="#ffec8b" stroke="black" cx="772.32" cy="-137.82" rx="160.53" ry="33.88"/>
<text text-anchor="middle" x="772.32" y="-143.42" font-family="Times,serif" font-size="18.00">target:</text>
<text text-anchor="middle" x="772.32" y="-123.42" font-family="Times,serif" font-size="18.00"> hold(left_hand, shaft1)</text>
</g>
<!-- selector:
 fix_left_hand_issue&#45;&gt;target:
 hold(left_hand, shaft1) -->
<g id="edge1" class="edge">
<title>selector:
 fix_left_hand_issue&#45;&gt;target:
 hold(left_hand, shaft1)</title>
<path fill="none" stroke="black" d="M1358.25,-227.77C1244.88,-214.69 1082.6,-194.56 941.32,-171.76 926.56,-169.38 911.11,-166.67 895.8,-163.85"/>
<polygon fill="black" stroke="black" points="896.25,-160.38 885.78,-161.99 894.97,-167.26 896.25,-160.38"/>
</g>
<!-- sequence:
 change_tool(left_hand, outwardgripper, clampgripper) -->
<g id="node3" class="node">
<title>sequence:
 change_tool(left_hand, outwardgripper, clampgripper)</title>
<polygon fill="#ff7f24" stroke="black" points="1463.82,-161.82 950.82,-161.82 950.82,-113.82 1463.82,-113.82 1463.82,-161.82"/>
<text text-anchor="middle" x="1207.32" y="-143.42" font-family="Times,serif" font-size="18.00">sequence:</text>
<text text-anchor="middle" x="1207.32" y="-123.42" font-family="Times,serif" font-size="18.00"> change_tool(left_hand, outwardgripper, clampgripper)</text>
</g>
<!-- selector:
 fix_left_hand_issue&#45;&gt;sequence:
 change_tool(left_hand, outwardgripper, clampgripper) -->
<g id="edge2" class="edge">
<title>selector:
 fix_left_hand_issue&#45;&gt;sequence:
 change_tool(left_hand, outwardgripper, clampgripper)</title>
<path fill="none" stroke="black" d="M1416.29,-213.22C1373.74,-198.08 1322.72,-179.91 1281.74,-165.32"/>
<polygon fill="black" stroke="black" points="1282.68,-161.94 1272.09,-161.88 1280.33,-168.53 1282.68,-161.94"/>
</g>
<!-- sequence:
 pick_up(left_hand, clampgripper, shaft1) -->
<g id="node7" class="node">
<title>sequence:
 pick_up(left_hand, clampgripper, shaft1)</title>
<polygon fill="#ff7f24" stroke="black" points="2163.82,-161.82 1774.82,-161.82 1774.82,-113.82 2163.82,-113.82 2163.82,-161.82"/>
<text text-anchor="middle" x="1969.32" y="-143.42" font-family="Times,serif" font-size="18.00">sequence:</text>
<text text-anchor="middle" x="1969.32" y="-123.42" font-family="Times,serif" font-size="18.00"> pick_up(left_hand, clampgripper, shaft1)</text>
</g>
<!-- selector:
 fix_left_hand_issue&#45;&gt;sequence:
 pick_up(left_hand, clampgripper, shaft1) -->
<g id="edge6" class="edge">
<title>selector:
 fix_left_hand_issue&#45;&gt;sequence:
 pick_up(left_hand, clampgripper, shaft1)</title>
<path fill="none" stroke="black" d="M1609.87,-219.22C1683.78,-202.69 1781.39,-180.86 1856.25,-164.12"/>
<polygon fill="black" stroke="black" points="1857.19,-167.49 1866.19,-161.89 1855.66,-160.66 1857.19,-167.49"/>
</g>
<!-- sequence:
 insert(left_hand, clampgripper, shaft1, gearbase_hole1) -->
<g id="node11" class="node">
<title>sequence:
 insert(left_hand, clampgripper, shaft1, gearbase_hole1)</title>
<polygon fill="#ff7f24" stroke="black" points="3531.32,-161.82 3007.32,-161.82 3007.32,-113.82 3531.32,-113.82 3531.32,-161.82"/>
<text text-anchor="middle" x="3269.32" y="-143.42" font-family="Times,serif" font-size="18.00">sequence:</text>
<text text-anchor="middle" x="3269.32" y="-123.42" font-family="Times,serif" font-size="18.00"> insert(left_hand, clampgripper, shaft1, gearbase_hole1)</text>
</g>
<!-- selector:
 fix_left_hand_issue&#45;&gt;sequence:
 insert(left_hand, clampgripper, shaft1, gearbase_hole1) -->
<g id="edge10" class="edge">
<title>selector:
 fix_left_hand_issue&#45;&gt;sequence:
 insert(left_hand, clampgripper, shaft1, gearbase_hole1)</title>
<path fill="none" stroke="black" d="M1650.16,-234.69C1947.51,-217.08 2618.88,-177.33 2997.09,-154.94"/>
<polygon fill="black" stroke="black" points="2997.31,-158.44 3007.08,-154.35 2996.89,-151.45 2997.31,-158.44"/>
</g>
<!-- precondition:
 hold(left_hand, outwardgripper) -->
<g id="node4" class="node">
<title>precondition:
 hold(left_hand, outwardgripper)</title>
<ellipse fill="#ffec8b" stroke="black" cx="221.32" cy="-33.94" rx="221.15" ry="33.88"/>
<text text-anchor="middle" x="221.32" y="-39.54" font-family="Times,serif" font-size="18.00">precondition:</text>
<text text-anchor="middle" x="221.32" y="-19.54" font-family="Times,serif" font-size="18.00"> hold(left_hand, outwardgripper)</text>
</g>
<!-- sequence:
 change_tool(left_hand, outwardgripper, clampgripper)&#45;&gt;precondition:
 hold(left_hand, outwardgripper) -->
<g id="edge3" class="edge">
<title>sequence:
 change_tool(left_hand, outwardgripper, clampgripper)&#45;&gt;precondition:
 hold(left_hand, outwardgripper)</title>
<path fill="none" stroke="black" d="M1032.49,-113.82C1002.44,-110.23 971.51,-106.76 942.32,-103.88 724.58,-82.38 668.86,-91.41 451.32,-67.88 429.85,-65.56 407.29,-62.77 385.05,-59.8"/>
<polygon fill="black" stroke="black" points="385.24,-56.3 374.86,-58.43 384.3,-63.23 385.24,-56.3"/>
</g>
<!-- precondition:
 is_empty(outwardgripper) -->
<g id="node5" class="node">
<title>precondition:
 is_empty(outwardgripper)</title>
<ellipse fill="#ffec8b" stroke="black" cx="643.32" cy="-33.94" rx="183.28" ry="33.88"/>
<text text-anchor="middle" x="643.32" y="-39.54" font-family="Times,serif" font-size="18.00">precondition:</text>
<text text-anchor="middle" x="643.32" y="-19.54" font-family="Times,serif" font-size="18.00"> is_empty(outwardgripper)</text>
</g>
<!-- sequence:
 change_tool(left_hand, outwardgripper, clampgripper)&#45;&gt;precondition:
 is_empty(outwardgripper) -->
<g id="edge4" class="edge">
<title>sequence:
 change_tool(left_hand, outwardgripper, clampgripper)&#45;&gt;precondition:
 is_empty(outwardgripper)</title>
<path fill="none" stroke="black" d="M1079.7,-113.77C991.06,-97.76 873.01,-76.43 782.04,-60"/>
<polygon fill="black" stroke="black" points="782.39,-56.51 771.93,-58.17 781.15,-63.39 782.39,-56.51"/>
</g>
<!-- action:
 change_tool(left_hand, outwardgripper, clampgripper) -->
<g id="node6" class="node">
<title>action:
 change_tool(left_hand, outwardgripper, clampgripper)</title>
<ellipse fill="lightgreen" stroke="black" cx="1207.32" cy="-33.94" rx="362.99" ry="33.88"/>
<text text-anchor="middle" x="1207.32" y="-39.54" font-family="Times,serif" font-size="18.00">action:</text>
<text text-anchor="middle" x="1207.32" y="-19.54" font-family="Times,serif" font-size="18.00"> change_tool(left_hand, outwardgripper, clampgripper)</text>
</g>
<!-- sequence:
 change_tool(left_hand, outwardgripper, clampgripper)&#45;&gt;action:
 change_tool(left_hand, outwardgripper, clampgripper) -->
<g id="edge5" class="edge">
<title>sequence:
 change_tool(left_hand, outwardgripper, clampgripper)&#45;&gt;action:
 change_tool(left_hand, outwardgripper, clampgripper)</title>
<path fill="none" stroke="black" d="M1207.32,-113.7C1207.32,-103.16 1207.32,-90.31 1207.32,-78.08"/>
<polygon fill="black" stroke="black" points="1210.82,-78.01 1207.32,-68.01 1203.82,-78.01 1210.82,-78.01"/>
</g>
<!-- precondition:
 hold(left_hand, clampgripper) -->
<g id="node8" class="node">
<title>precondition:
 hold(left_hand, clampgripper)</title>
<ellipse fill="#ffec8b" stroke="black" cx="1795.32" cy="-33.94" rx="207.36" ry="33.88"/>
<text text-anchor="middle" x="1795.32" y="-39.54" font-family="Times,serif" font-size="18.00">precondition:</text>
<text text-anchor="middle" x="1795.32" y="-19.54" font-family="Times,serif" font-size="18.00"> hold(left_hand, clampgripper)</text>
</g>
<!-- sequence:
 pick_up(left_hand, clampgripper, shaft1)&#45;&gt;precondition:
 hold(left_hand, clampgripper) -->
<g id="edge7" class="edge">
<title>sequence:
 pick_up(left_hand, clampgripper, shaft1)&#45;&gt;precondition:
 hold(left_hand, clampgripper)</title>
<path fill="none" stroke="black" d="M1929.84,-113.7C1908.77,-101.36 1882.32,-85.88 1858.47,-71.92"/>
<polygon fill="black" stroke="black" points="1860.22,-68.88 1849.82,-66.85 1856.68,-74.92 1860.22,-68.88"/>
</g>
<!-- precondition:
 is_empty(shaft1) -->
<g id="node9" class="node">
<title>precondition:
 is_empty(shaft1)</title>
<ellipse fill="#ffec8b" stroke="black" cx="2143.32" cy="-33.94" rx="122.16" ry="33.88"/>
<text text-anchor="middle" x="2143.32" y="-39.54" font-family="Times,serif" font-size="18.00">precondition:</text>
<text text-anchor="middle" x="2143.32" y="-19.54" font-family="Times,serif" font-size="18.00"> is_empty(shaft1)</text>
</g>
<!-- sequence:
 pick_up(left_hand, clampgripper, shaft1)&#45;&gt;precondition:
 is_empty(shaft1) -->
<g id="edge8" class="edge">
<title>sequence:
 pick_up(left_hand, clampgripper, shaft1)&#45;&gt;precondition:
 is_empty(shaft1)</title>
<path fill="none" stroke="black" d="M2008.81,-113.7C2030.78,-100.84 2058.57,-84.56 2083.19,-70.15"/>
<polygon fill="black" stroke="black" points="2085.24,-73.01 2092.1,-64.93 2081.7,-66.97 2085.24,-73.01"/>
</g>
<!-- action:
 pick_up(left_hand, clampgripper, shaft1) -->
<g id="node10" class="node">
<title>action:
 pick_up(left_hand, clampgripper, shaft1)</title>
<ellipse fill="lightgreen" stroke="black" cx="2558.32" cy="-33.94" rx="275.13" ry="33.88"/>
<text text-anchor="middle" x="2558.32" y="-39.54" font-family="Times,serif" font-size="18.00">action:</text>
<text text-anchor="middle" x="2558.32" y="-19.54" font-family="Times,serif" font-size="18.00"> pick_up(left_hand, clampgripper, shaft1)</text>
</g>
<!-- sequence:
 pick_up(left_hand, clampgripper, shaft1)&#45;&gt;action:
 pick_up(left_hand, clampgripper, shaft1) -->
<g id="edge9" class="edge">
<title>sequence:
 pick_up(left_hand, clampgripper, shaft1)&#45;&gt;action:
 pick_up(left_hand, clampgripper, shaft1)</title>
<path fill="none" stroke="black" d="M2102.61,-113.77C2188.48,-98.92 2300.77,-79.49 2392.41,-63.64"/>
<polygon fill="black" stroke="black" points="2393.08,-67.08 2402.34,-61.92 2391.89,-60.18 2393.08,-67.08"/>
</g>
<!-- &quot;precondition:\n hold(left_hand, clampgripper)&quot;* -->
<g id="node12" class="node">
<title>&quot;precondition:\n hold(left_hand, clampgripper)&quot;*</title>
<ellipse fill="#ffec8b" stroke="black" cx="3070.32" cy="-33.94" rx="219.41" ry="33.88"/>
<text text-anchor="middle" x="3070.32" y="-39.54" font-family="Times,serif" font-size="18.00">&quot;precondition:</text>
<text text-anchor="middle" x="3070.32" y="-19.54" font-family="Times,serif" font-size="18.00"> hold(left_hand, clampgripper)&quot;*</text>
</g>
<!-- sequence:
 insert(left_hand, clampgripper, shaft1, gearbase_hole1)&#45;&gt;&quot;precondition:\n hold(left_hand, clampgripper)&quot;* -->
<g id="edge11" class="edge">
<title>sequence:
 insert(left_hand, clampgripper, shaft1, gearbase_hole1)&#45;&gt;&quot;precondition:\n hold(left_hand, clampgripper)&quot;*</title>
<path fill="none" stroke="black" d="M3224.17,-113.7C3199.75,-101.2 3169.03,-85.48 3141.48,-71.37"/>
<polygon fill="black" stroke="black" points="3142.77,-68.1 3132.27,-66.66 3139.58,-74.33 3142.77,-68.1"/>
</g>
<!-- precondition:
 hold(left_hand, shaft1) -->
<g id="node13" class="node">
<title>precondition:
 hold(left_hand, shaft1)</title>
<ellipse fill="#ffec8b" stroke="black" cx="3468.32" cy="-33.94" rx="160.53" ry="33.88"/>
<text text-anchor="middle" x="3468.32" y="-39.54" font-family="Times,serif" font-size="18.00">precondition:</text>
<text text-anchor="middle" x="3468.32" y="-19.54" font-family="Times,serif" font-size="18.00"> hold(left_hand, shaft1)</text>
</g>
<!-- sequence:
 insert(left_hand, clampgripper, shaft1, gearbase_hole1)&#45;&gt;precondition:
 hold(left_hand, shaft1) -->
<g id="edge12" class="edge">
<title>sequence:
 insert(left_hand, clampgripper, shaft1, gearbase_hole1)&#45;&gt;precondition:
 hold(left_hand, shaft1)</title>
<path fill="none" stroke="black" d="M3314.48,-113.7C3339.63,-100.83 3371.45,-84.54 3399.62,-70.12"/>
<polygon fill="black" stroke="black" points="3401.32,-73.18 3408.62,-65.51 3398.13,-66.95 3401.32,-73.18"/>
</g>
<!-- action:
 insert(left_hand, clampgripper, shaft1, gearbase_hole1) -->
<g id="node14" class="node">
<title>action:
 insert(left_hand, clampgripper, shaft1, gearbase_hole1)</title>
<ellipse fill="lightgreen" stroke="black" cx="4017.32" cy="-33.94" rx="370.55" ry="33.88"/>
<text text-anchor="middle" x="4017.32" y="-39.54" font-family="Times,serif" font-size="18.00">action:</text>
<text text-anchor="middle" x="4017.32" y="-19.54" font-family="Times,serif" font-size="18.00"> insert(left_hand, clampgripper, shaft1, gearbase_hole1)</text>
</g>
<!-- sequence:
 insert(left_hand, clampgripper, shaft1, gearbase_hole1)&#45;&gt;action:
 insert(left_hand, clampgripper, shaft1, gearbase_hole1) -->
<g id="edge13" class="edge">
<title>sequence:
 insert(left_hand, clampgripper, shaft1, gearbase_hole1)&#45;&gt;action:
 insert(left_hand, clampgripper, shaft1, gearbase_hole1)</title>
<path fill="none" stroke="black" d="M3438.59,-113.77C3547.26,-98.97 3689.26,-79.63 3805.4,-63.81"/>
<polygon fill="black" stroke="black" points="3806.05,-67.25 3815.49,-62.43 3805.11,-60.31 3806.05,-67.25"/>
</g>
</g>
</svg>
