<?xml version="1.0" encoding="UTF-8" standalone="no"?>
<!DOCTYPE svg PUBLIC "-//W3C//DTD SVG 1.1//EN"
 "http://www.w3.org/Graphics/SVG/1.1/DTD/svg11.dtd">
<!-- Generated by graphviz version 2.43.0 (0)
 -->
<!-- Title: pastafarianism Pages: 1 -->
<svg width="2093pt" height="716pt"
 viewBox="0.00 0.00 2092.85 715.95" xmlns="http://www.w3.org/2000/svg" xmlns:xlink="http://www.w3.org/1999/xlink">
<g id="graph0" class="graph" transform="scale(1 1) rotate(0) translate(4 711.95)">
<title>pastafarianism</title>
<polygon fill="white" stroke="transparent" points="-4,4 -4,-711.95 2088.85,-711.95 2088.85,4 -4,4"/>
<!-- selector:
 insert(left_hand, clampgripper, shaft1, gearbase_hole1) -->
<g id="node1" class="node">
<title>selector:
 insert(left_hand, clampgripper, shaft1, gearbase_hole1)</title>
<polygon fill="#8deeee" stroke="black" points="1270.43,-655.9 1270.43,-686.53 1035.47,-708.19 703.18,-708.19 468.22,-686.53 468.22,-655.9 703.18,-634.24 1035.47,-634.24 1270.43,-655.9"/>
<text text-anchor="middle" x="869.32" y="-676.82" font-family="Times,serif" font-size="18.00">selector:</text>
<text text-anchor="middle" x="869.32" y="-656.82" font-family="Times,serif" font-size="18.00"> insert(left_hand, clampgripper, shaft1, gearbase_hole1)</text>
</g>
<!-- target:
 is_inserted_to(shaft1, gearbase_hole1) -->
<g id="node2" class="node">
<title>target:
 is_inserted_to(shaft1, gearbase_hole1)</title>
<ellipse fill="#ffec8b" stroke="black" cx="598.32" cy="-564.54" rx="261.76" ry="33.88"/>
<text text-anchor="middle" x="598.32" y="-570.14" font-family="Times,serif" font-size="18.00">target:</text>
<text text-anchor="middle" x="598.32" y="-550.14" font-family="Times,serif" font-size="18.00"> is_inserted_to(shaft1, gearbase_hole1)</text>
</g>
<!-- selector:
 insert(left_hand, clampgripper, shaft1, gearbase_hole1)&#45;&gt;target:
 is_inserted_to(shaft1, gearbase_hole1) -->
<g id="edge1" class="edge">
<title>selector:
 insert(left_hand, clampgripper, shaft1, gearbase_hole1)&#45;&gt;target:
 is_inserted_to(shaft1, gearbase_hole1)</title>
<path fill="none" stroke="black" d="M776.44,-634.34C748.08,-623.39 716.95,-611.36 688.76,-600.47"/>
<polygon fill="black" stroke="black" points="689.91,-597.16 679.32,-596.82 687.39,-603.69 689.91,-597.16"/>
</g>
<!-- sequence:
 insert(left_hand, clampgripper, shaft1, gearbase_hole1) -->
<g id="node3" class="node">
<title>sequence:
 insert(left_hand, clampgripper, shaft1, gearbase_hole1)</title>
<polygon fill="#ff7f24" stroke="black" points="1402.32,-588.54 878.32,-588.54 878.32,-540.54 1402.32,-540.54 1402.32,-588.54"/>
<text text-anchor="middle" x="1140.32" y="-570.14" font-family="Times,serif" font-size="18.00">sequence:</text>
<text text-anchor="middle" x="1140.32" y="-550.14" font-family="Times,serif" font-size="18.00"> insert(left_hand, clampgripper, shaft1, gearbase_hole1)</text>
</g>
<!-- selector:
 insert(left_hand, clampgripper, shaft1, gearbase_hole1)&#45;&gt;sequence:
 insert(left_hand, clampgripper, shaft1, gearbase_hole1) -->
<g id="edge2" class="edge">
<title>selector:
 insert(left_hand, clampgripper, shaft1, gearbase_hole1)&#45;&gt;sequence:
 insert(left_hand, clampgripper, shaft1, gearbase_hole1)</title>
<path fill="none" stroke="black" d="M962.21,-634.34C997.91,-620.55 1038,-605.06 1071.1,-592.28"/>
<polygon fill="black" stroke="black" points="1072.62,-595.44 1080.68,-588.58 1070.1,-588.91 1072.62,-595.44"/>
</g>
<!-- selector:
 change_tool(left_hand, outwardgripper, clampgripper) -->
<g id="node4" class="node">
<title>selector:
 change_tool(left_hand, outwardgripper, clampgripper)</title>
<polygon fill="#8deeee" stroke="black" points="936.09,-442.54 936.09,-473.18 706.01,-494.84 380.64,-494.84 150.56,-473.18 150.56,-442.54 380.64,-420.88 706.01,-420.88 936.09,-442.54"/>
<text text-anchor="middle" x="543.32" y="-463.46" font-family="Times,serif" font-size="18.00">selector:</text>
<text text-anchor="middle" x="543.32" y="-443.46" font-family="Times,serif" font-size="18.00"> change_tool(left_hand, outwardgripper, clampgripper)</text>
</g>
<!-- sequence:
 insert(left_hand, clampgripper, shaft1, gearbase_hole1)&#45;&gt;selector:
 change_tool(left_hand, outwardgripper, clampgripper) -->
<g id="edge3" class="edge">
<title>sequence:
 insert(left_hand, clampgripper, shaft1, gearbase_hole1)&#45;&gt;selector:
 change_tool(left_hand, outwardgripper, clampgripper)</title>
<path fill="none" stroke="black" d="M1008.94,-540.5C931.26,-526.88 831.29,-509.35 743.92,-494.03"/>
<polygon fill="black" stroke="black" points="744.33,-490.55 733.87,-492.27 743.12,-497.45 744.33,-490.55"/>
</g>
<!-- precondition:
 hold(clampgripper, shaft1) -->
<g id="node15" class="node">
<title>precondition:
 hold(clampgripper, shaft1)</title>
<ellipse fill="#ffec8b" stroke="black" cx="1140.32" cy="-457.86" rx="185.94" ry="33.88"/>
<text text-anchor="middle" x="1140.32" y="-463.46" font-family="Times,serif" font-size="18.00">precondition:</text>
<text text-anchor="middle" x="1140.32" y="-443.46" font-family="Times,serif" font-size="18.00"> hold(clampgripper, shaft1)</text>
</g>
<!-- sequence:
 insert(left_hand, clampgripper, shaft1, gearbase_hole1)&#45;&gt;precondition:
 hold(clampgripper, shaft1) -->
<g id="edge14" class="edge">
<title>sequence:
 insert(left_hand, clampgripper, shaft1, gearbase_hole1)&#45;&gt;precondition:
 hold(clampgripper, shaft1)</title>
<path fill="none" stroke="black" d="M1140.32,-540.31C1140.32,-529.09 1140.32,-515.26 1140.32,-502.2"/>
<polygon fill="black" stroke="black" points="1143.82,-501.95 1140.32,-491.95 1136.82,-501.95 1143.82,-501.95"/>
</g>
<!-- action:
 insert(left_hand, clampgripper, shaft1, gearbase_hole1) -->
<g id="node16" class="node">
<title>action:
 insert(left_hand, clampgripper, shaft1, gearbase_hole1)</title>
<ellipse fill="lightgreen" stroke="black" cx="1714.32" cy="-457.86" rx="370.55" ry="33.88"/>
<text text-anchor="middle" x="1714.32" y="-463.46" font-family="Times,serif" font-size="18.00">action:</text>
<text text-anchor="middle" x="1714.32" y="-443.46" font-family="Times,serif" font-size="18.00"> insert(left_hand, clampgripper, shaft1, gearbase_hole1)</text>
</g>
<!-- sequence:
 insert(left_hand, clampgripper, shaft1, gearbase_hole1)&#45;&gt;action:
 insert(left_hand, clampgripper, shaft1, gearbase_hole1) -->
<g id="edge15" class="edge">
<title>sequence:
 insert(left_hand, clampgripper, shaft1, gearbase_hole1)&#45;&gt;action:
 insert(left_hand, clampgripper, shaft1, gearbase_hole1)</title>
<path fill="none" stroke="black" d="M1266.65,-540.5C1347.62,-525.74 1453.76,-506.38 1542.37,-490.22"/>
<polygon fill="black" stroke="black" points="1543.05,-493.65 1552.26,-488.41 1541.8,-486.77 1543.05,-493.65"/>
</g>
<!-- target:
 hold(left_hand, clampgripper) -->
<g id="node5" class="node">
<title>target:
 hold(left_hand, clampgripper)</title>
<ellipse fill="#ffec8b" stroke="black" cx="302.32" cy="-351.18" rx="207.36" ry="33.88"/>
<text text-anchor="middle" x="302.32" y="-356.78" font-family="Times,serif" font-size="18.00">target:</text>
<text text-anchor="middle" x="302.32" y="-336.78" font-family="Times,serif" font-size="18.00"> hold(left_hand, clampgripper)</text>
</g>
<!-- selector:
 change_tool(left_hand, outwardgripper, clampgripper)&#45;&gt;target:
 hold(left_hand, clampgripper) -->
<g id="edge4" class="edge">
<title>selector:
 change_tool(left_hand, outwardgripper, clampgripper)&#45;&gt;target:
 hold(left_hand, clampgripper)</title>
<path fill="none" stroke="black" d="M460.72,-420.98C435.59,-410.07 408.01,-398.09 383.01,-387.23"/>
<polygon fill="black" stroke="black" points="384.13,-383.9 373.56,-383.12 381.34,-390.32 384.13,-383.9"/>
</g>
<!-- sequence:
 change_tool(left_hand, outwardgripper, clampgripper) -->
<g id="node6" class="node">
<title>sequence:
 change_tool(left_hand, outwardgripper, clampgripper)</title>
<polygon fill="#ff7f24" stroke="black" points="1040.82,-375.18 527.82,-375.18 527.82,-327.18 1040.82,-327.18 1040.82,-375.18"/>
<text text-anchor="middle" x="784.32" y="-356.78" font-family="Times,serif" font-size="18.00">sequence:</text>
<text text-anchor="middle" x="784.32" y="-336.78" font-family="Times,serif" font-size="18.00"> change_tool(left_hand, outwardgripper, clampgripper)</text>
</g>
<!-- selector:
 change_tool(left_hand, outwardgripper, clampgripper)&#45;&gt;sequence:
 change_tool(left_hand, outwardgripper, clampgripper) -->
<g id="edge5" class="edge">
<title>selector:
 change_tool(left_hand, outwardgripper, clampgripper)&#45;&gt;sequence:
 change_tool(left_hand, outwardgripper, clampgripper)</title>
<path fill="none" stroke="black" d="M625.93,-420.98C657.4,-407.31 692.72,-391.97 722,-379.25"/>
<polygon fill="black" stroke="black" points="723.51,-382.41 731.29,-375.22 720.72,-375.99 723.51,-382.41"/>
</g>
<!-- precondition:
 hold(left_hand, outwardgripper) -->
<g id="node7" class="node">
<title>precondition:
 hold(left_hand, outwardgripper)</title>
<ellipse fill="#ffec8b" stroke="black" cx="221.32" cy="-244.5" rx="221.15" ry="33.88"/>
<text text-anchor="middle" x="221.32" y="-250.1" font-family="Times,serif" font-size="18.00">precondition:</text>
<text text-anchor="middle" x="221.32" y="-230.1" font-family="Times,serif" font-size="18.00"> hold(left_hand, outwardgripper)</text>
</g>
<!-- sequence:
 change_tool(left_hand, outwardgripper, clampgripper)&#45;&gt;precondition:
 hold(left_hand, outwardgripper) -->
<g id="edge6" class="edge">
<title>sequence:
 change_tool(left_hand, outwardgripper, clampgripper)&#45;&gt;precondition:
 hold(left_hand, outwardgripper)</title>
<path fill="none" stroke="black" d="M660.42,-327.14C574.53,-311.17 459.75,-289.83 369.09,-272.98"/>
<polygon fill="black" stroke="black" points="369.47,-269.49 359,-271.1 368.19,-276.37 369.47,-269.49"/>
</g>
<!-- selector:
 put_down(left_hand, outwardgripper, gear2) -->
<g id="node8" class="node">
<title>selector:
 put_down(left_hand, outwardgripper, gear2)</title>
<polygon fill="#8deeee" stroke="black" points="1107.82,-229.19 1107.82,-259.82 918.32,-281.48 650.33,-281.48 460.82,-259.82 460.82,-229.19 650.33,-207.53 918.32,-207.53 1107.82,-229.19"/>
<text text-anchor="middle" x="784.32" y="-250.1" font-family="Times,serif" font-size="18.00">selector:</text>
<text text-anchor="middle" x="784.32" y="-230.1" font-family="Times,serif" font-size="18.00"> put_down(left_hand, outwardgripper, gear2)</text>
</g>
<!-- sequence:
 change_tool(left_hand, outwardgripper, clampgripper)&#45;&gt;selector:
 put_down(left_hand, outwardgripper, gear2) -->
<g id="edge7" class="edge">
<title>sequence:
 change_tool(left_hand, outwardgripper, clampgripper)&#45;&gt;selector:
 put_down(left_hand, outwardgripper, gear2)</title>
<path fill="none" stroke="black" d="M784.32,-326.95C784.32,-316.5 784.32,-303.79 784.32,-291.54"/>
<polygon fill="black" stroke="black" points="787.82,-291.42 784.32,-281.42 780.82,-291.42 787.82,-291.42"/>
</g>
<!-- action:
 change_tool(left_hand, outwardgripper, clampgripper) -->
<g id="node14" class="node">
<title>action:
 change_tool(left_hand, outwardgripper, clampgripper)</title>
<ellipse fill="lightgreen" stroke="black" cx="1488.32" cy="-244.5" rx="362.99" ry="33.88"/>
<text text-anchor="middle" x="1488.32" y="-250.1" font-family="Times,serif" font-size="18.00">action:</text>
<text text-anchor="middle" x="1488.32" y="-230.1" font-family="Times,serif" font-size="18.00"> change_tool(left_hand, outwardgripper, clampgripper)</text>
</g>
<!-- sequence:
 change_tool(left_hand, outwardgripper, clampgripper)&#45;&gt;action:
 change_tool(left_hand, outwardgripper, clampgripper) -->
<g id="edge13" class="edge">
<title>sequence:
 change_tool(left_hand, outwardgripper, clampgripper)&#45;&gt;action:
 change_tool(left_hand, outwardgripper, clampgripper)</title>
<path fill="none" stroke="black" d="M939.26,-327.14C1042.41,-311.81 1178.89,-291.51 1289.96,-275"/>
<polygon fill="black" stroke="black" points="1290.57,-278.44 1299.95,-273.51 1289.54,-271.52 1290.57,-278.44"/>
</g>
<!-- target:
 is_empty(outwardgripper) -->
<g id="node9" class="node">
<title>target:
 is_empty(outwardgripper)</title>
<ellipse fill="#ffec8b" stroke="black" cx="578.32" cy="-137.82" rx="183.28" ry="33.88"/>
<text text-anchor="middle" x="578.32" y="-143.42" font-family="Times,serif" font-size="18.00">target:</text>
<text text-anchor="middle" x="578.32" y="-123.42" font-family="Times,serif" font-size="18.00"> is_empty(outwardgripper)</text>
</g>
<!-- selector:
 put_down(left_hand, outwardgripper, gear2)&#45;&gt;target:
 is_empty(outwardgripper) -->
<g id="edge8" class="edge">
<title>selector:
 put_down(left_hand, outwardgripper, gear2)&#45;&gt;target:
 is_empty(outwardgripper)</title>
<path fill="none" stroke="black" d="M713.72,-207.62C692.72,-196.95 669.72,-185.26 648.73,-174.6"/>
<polygon fill="black" stroke="black" points="650.06,-171.35 639.55,-169.94 646.88,-177.59 650.06,-171.35"/>
</g>
<!-- sequence:
 put_down(left_hand, outwardgripper, gear2) -->
<g id="node10" class="node">
<title>sequence:
 put_down(left_hand, outwardgripper, gear2)</title>
<polygon fill="#ff7f24" stroke="black" points="1202.82,-161.82 779.82,-161.82 779.82,-113.82 1202.82,-113.82 1202.82,-161.82"/>
<text text-anchor="middle" x="991.32" y="-143.42" font-family="Times,serif" font-size="18.00">sequence:</text>
<text text-anchor="middle" x="991.32" y="-123.42" font-family="Times,serif" font-size="18.00"> put_down(left_hand, outwardgripper, gear2)</text>
</g>
<!-- selector:
 put_down(left_hand, outwardgripper, gear2)&#45;&gt;sequence:
 put_down(left_hand, outwardgripper, gear2) -->
<g id="edge9" class="edge">
<title>selector:
 put_down(left_hand, outwardgripper, gear2)&#45;&gt;sequence:
 put_down(left_hand, outwardgripper, gear2)</title>
<path fill="none" stroke="black" d="M855.27,-207.62C881.96,-194.13 911.85,-179.01 936.81,-166.39"/>
<polygon fill="black" stroke="black" points="938.42,-169.5 945.77,-161.86 935.27,-163.25 938.42,-169.5"/>
</g>
<!-- &quot;precondition:\n hold(left_hand, outwardgripper)&quot;* -->
<g id="node11" class="node">
<title>&quot;precondition:\n hold(left_hand, outwardgripper)&quot;*</title>
<ellipse fill="#ffec8b" stroke="black" cx="543.32" cy="-33.94" rx="233.19" ry="33.88"/>
<text text-anchor="middle" x="543.32" y="-39.54" font-family="Times,serif" font-size="18.00">&quot;precondition:</text>
<text text-anchor="middle" x="543.32" y="-19.54" font-family="Times,serif" font-size="18.00"> hold(left_hand, outwardgripper)&quot;*</text>
</g>
<!-- sequence:
 put_down(left_hand, outwardgripper, gear2)&#45;&gt;&quot;precondition:\n hold(left_hand, outwardgripper)&quot;* -->
<g id="edge10" class="edge">
<title>sequence:
 put_down(left_hand, outwardgripper, gear2)&#45;&gt;&quot;precondition:\n hold(left_hand, outwardgripper)&quot;*</title>
<path fill="none" stroke="black" d="M889.95,-113.77C826.72,-99.39 744.65,-80.73 676.25,-65.17"/>
<polygon fill="black" stroke="black" points="676.78,-61.7 666.26,-62.9 675.23,-68.53 676.78,-61.7"/>
</g>
<!-- precondition:
 hold(outwardgripper, gear2) -->
<g id="node12" class="node">
<title>precondition:
 hold(outwardgripper, gear2)</title>
<ellipse fill="#ffec8b" stroke="black" cx="991.32" cy="-33.94" rx="196.65" ry="33.88"/>
<text text-anchor="middle" x="991.32" y="-39.54" font-family="Times,serif" font-size="18.00">precondition:</text>
<text text-anchor="middle" x="991.32" y="-19.54" font-family="Times,serif" font-size="18.00"> hold(outwardgripper, gear2)</text>
</g>
<!-- sequence:
 put_down(left_hand, outwardgripper, gear2)&#45;&gt;precondition:
 hold(outwardgripper, gear2) -->
<g id="edge11" class="edge">
<title>sequence:
 put_down(left_hand, outwardgripper, gear2)&#45;&gt;precondition:
 hold(outwardgripper, gear2)</title>
<path fill="none" stroke="black" d="M991.32,-113.7C991.32,-103.16 991.32,-90.31 991.32,-78.08"/>
<polygon fill="black" stroke="black" points="994.82,-78.01 991.32,-68.01 987.82,-78.01 994.82,-78.01"/>
</g>
<!-- action:
 put_down(left_hand, outwardgripper, gear2) -->
<g id="node13" class="node">
<title>action:
 put_down(left_hand, outwardgripper, gear2)</title>
<ellipse fill="lightgreen" stroke="black" cx="1505.32" cy="-33.94" rx="299.21" ry="33.88"/>
<text text-anchor="middle" x="1505.32" y="-39.54" font-family="Times,serif" font-size="18.00">action:</text>
<text text-anchor="middle" x="1505.32" y="-19.54" font-family="Times,serif" font-size="18.00"> put_down(left_hand, outwardgripper, gear2)</text>
</g>
<!-- sequence:
 put_down(left_hand, outwardgripper, gear2)&#45;&gt;action:
 put_down(left_hand, outwardgripper, gear2) -->
<g id="edge12" class="edge">
<title>sequence:
 put_down(left_hand, outwardgripper, gear2)&#45;&gt;action:
 put_down(left_hand, outwardgripper, gear2)</title>
<path fill="none" stroke="black" d="M1107.64,-113.77C1179.49,-99.53 1272.55,-81.08 1350.58,-65.61"/>
<polygon fill="black" stroke="black" points="1351.38,-69.02 1360.5,-63.65 1350.01,-62.16 1351.38,-69.02"/>
</g>
</g>
</svg>
