<?xml version="1.0" encoding="UTF-8" standalone="no"?>
<!DOCTYPE svg PUBLIC "-//W3C//DTD SVG 1.1//EN"
 "http://www.w3.org/Graphics/SVG/1.1/DTD/svg11.dtd">
<!-- Generated by graphviz version 2.43.0 (0)
 -->
<!-- Title: pastafarianism Pages: 1 -->
<svg width="6631pt" height="289pt"
 viewBox="0.00 0.00 6630.85 289.24" xmlns="http://www.w3.org/2000/svg" xmlns:xlink="http://www.w3.org/1999/xlink">
<g id="graph0" class="graph" transform="scale(1 1) rotate(0) translate(4 285.24)">
<title>pastafarianism</title>
<polygon fill="white" stroke="transparent" points="-4,4 -4,-285.24 6626.85,-285.24 6626.85,4 -4,4"/>
<!-- selector:
 fix_left_hand_issue -->
<g id="node1" class="node">
<title>selector:
 fix_left_hand_issue</title>
<polygon fill="#8deeee" stroke="black" points="3014.79,-229.19 3014.79,-259.82 2927.82,-281.48 2804.83,-281.48 2717.86,-259.82 2717.86,-229.19 2804.83,-207.53 2927.82,-207.53 3014.79,-229.19"/>
<text text-anchor="middle" x="2866.32" y="-250.1" font-family="Times,serif" font-size="18.00">selector:</text>
<text text-anchor="middle" x="2866.32" y="-230.1" font-family="Times,serif" font-size="18.00"> fix_left_hand_issue</text>
</g>
<!-- target:
 hold(left_hand, shaft1) -->
<g id="node2" class="node">
<title>target:
 hold(left_hand, shaft1)</title>
<ellipse fill="#ffec8b" stroke="black" cx="987.32" cy="-137.82" rx="160.53" ry="33.88"/>
<text text-anchor="middle" x="987.32" y="-143.42" font-family="Times,serif" font-size="18.00">target:</text>
<text text-anchor="middle" x="987.32" y="-123.42" font-family="Times,serif" font-size="18.00"> hold(left_hand, shaft1)</text>
</g>
<!-- selector:
 fix_left_hand_issue&#45;&gt;target:
 hold(left_hand, shaft1) -->
<g id="edge1" class="edge">
<title>selector:
 fix_left_hand_issue&#45;&gt;target:
 hold(left_hand, shaft1)</title>
<path fill="none" stroke="black" d="M2717.62,-240.14C2359.47,-231.58 1456.49,-207.11 1156.32,-171.76 1140.34,-169.88 1123.61,-167.34 1107.15,-164.49"/>
<polygon fill="black" stroke="black" points="1107.4,-160.98 1096.95,-162.68 1106.18,-167.87 1107.4,-160.98"/>
</g>
<!-- sequence:
 detach(left_hand, outwardgripper, shaft1, gearbase_hole1) -->
<g id="node3" class="node">
<title>sequence:
 detach(left_hand, outwardgripper, shaft1, gearbase_hole1)</title>
<polygon fill="#ff7f24" stroke="black" points="1718.82,-161.82 1165.82,-161.82 1165.82,-113.82 1718.82,-113.82 1718.82,-161.82"/>
<text text-anchor="middle" x="1442.32" y="-143.42" font-family="Times,serif" font-size="18.00">sequence:</text>
<text text-anchor="middle" x="1442.32" y="-123.42" font-family="Times,serif" font-size="18.00"> detach(left_hand, outwardgripper, shaft1, gearbase_hole1)</text>
</g>
<!-- selector:
 fix_left_hand_issue&#45;&gt;sequence:
 detach(left_hand, outwardgripper, shaft1, gearbase_hole1) -->
<g id="edge2" class="edge">
<title>selector:
 fix_left_hand_issue&#45;&gt;sequence:
 detach(left_hand, outwardgripper, shaft1, gearbase_hole1)</title>
<path fill="none" stroke="black" d="M2717.63,-232.57C2484.26,-215.42 2027.86,-181.87 1729.1,-159.9"/>
<polygon fill="black" stroke="black" points="1729.21,-156.4 1718.98,-159.16 1728.7,-163.38 1729.21,-156.4"/>
</g>
<!-- sequence:
 change_tool(left_hand, outwardgripper, clampgripper) -->
<g id="node8" class="node">
<title>sequence:
 change_tool(left_hand, outwardgripper, clampgripper)</title>
<polygon fill="#ff7f24" stroke="black" points="3122.82,-161.82 2609.82,-161.82 2609.82,-113.82 3122.82,-113.82 3122.82,-161.82"/>
<text text-anchor="middle" x="2866.32" y="-143.42" font-family="Times,serif" font-size="18.00">sequence:</text>
<text text-anchor="middle" x="2866.32" y="-123.42" font-family="Times,serif" font-size="18.00"> change_tool(left_hand, outwardgripper, clampgripper)</text>
</g>
<!-- selector:
 fix_left_hand_issue&#45;&gt;sequence:
 change_tool(left_hand, outwardgripper, clampgripper) -->
<g id="edge7" class="edge">
<title>selector:
 fix_left_hand_issue&#45;&gt;sequence:
 change_tool(left_hand, outwardgripper, clampgripper)</title>
<path fill="none" stroke="black" d="M2866.32,-207.48C2866.32,-196.09 2866.32,-183.57 2866.32,-172.36"/>
<polygon fill="black" stroke="black" points="2869.82,-172.11 2866.32,-162.11 2862.82,-172.11 2869.82,-172.11"/>
</g>
<!-- sequence:
 pick_up(left_hand, clampgripper, shaft1) -->
<g id="node12" class="node">
<title>sequence:
 pick_up(left_hand, clampgripper, shaft1)</title>
<polygon fill="#ff7f24" stroke="black" points="4398.82,-161.82 4009.82,-161.82 4009.82,-113.82 4398.82,-113.82 4398.82,-161.82"/>
<text text-anchor="middle" x="4204.32" y="-143.42" font-family="Times,serif" font-size="18.00">sequence:</text>
<text text-anchor="middle" x="4204.32" y="-123.42" font-family="Times,serif" font-size="18.00"> pick_up(left_hand, clampgripper, shaft1)</text>
</g>
<!-- selector:
 fix_left_hand_issue&#45;&gt;sequence:
 pick_up(left_hand, clampgripper, shaft1) -->
<g id="edge11" class="edge">
<title>selector:
 fix_left_hand_issue&#45;&gt;sequence:
 pick_up(left_hand, clampgripper, shaft1)</title>
<path fill="none" stroke="black" d="M3014.95,-231.87C3254.85,-213.11 3727.95,-176.09 3999.59,-154.84"/>
<polygon fill="black" stroke="black" points="3999.87,-158.33 4009.57,-154.06 3999.32,-151.35 3999.87,-158.33"/>
</g>
<!-- sequence:
 insert(left_hand, clampgripper, shaft1, gearbase_hole1) -->
<g id="node16" class="node">
<title>sequence:
 insert(left_hand, clampgripper, shaft1, gearbase_hole1)</title>
<polygon fill="#ff7f24" stroke="black" points="5766.32,-161.82 5242.32,-161.82 5242.32,-113.82 5766.32,-113.82 5766.32,-161.82"/>
<text text-anchor="middle" x="5504.32" y="-143.42" font-family="Times,serif" font-size="18.00">sequence:</text>
<text text-anchor="middle" x="5504.32" y="-123.42" font-family="Times,serif" font-size="18.00"> insert(left_hand, clampgripper, shaft1, gearbase_hole1)</text>
</g>
<!-- selector:
 fix_left_hand_issue&#45;&gt;sequence:
 insert(left_hand, clampgripper, shaft1, gearbase_hole1) -->
<g id="edge15" class="edge">
<title>selector:
 fix_left_hand_issue&#45;&gt;sequence:
 insert(left_hand, clampgripper, shaft1, gearbase_hole1)</title>
<path fill="none" stroke="black" d="M3015.24,-237.59C3442.93,-220.62 4679.62,-171.55 5232.1,-149.63"/>
<polygon fill="black" stroke="black" points="5232.35,-153.12 5242.2,-149.22 5232.07,-146.12 5232.35,-153.12"/>
</g>
<!-- precondition:
 hold(left_hand, outwardgripper) -->
<g id="node4" class="node">
<title>precondition:
 hold(left_hand, outwardgripper)</title>
<ellipse fill="#ffec8b" stroke="black" cx="221.32" cy="-33.94" rx="221.15" ry="33.88"/>
<text text-anchor="middle" x="221.32" y="-39.54" font-family="Times,serif" font-size="18.00">precondition:</text>
<text text-anchor="middle" x="221.32" y="-19.54" font-family="Times,serif" font-size="18.00"> hold(left_hand, outwardgripper)</text>
</g>
<!-- sequence:
 detach(left_hand, outwardgripper, shaft1, gearbase_hole1)&#45;&gt;precondition:
 hold(left_hand, outwardgripper) -->
<g id="edge3" class="edge">
<title>sequence:
 detach(left_hand, outwardgripper, shaft1, gearbase_hole1)&#45;&gt;precondition:
 hold(left_hand, outwardgripper)</title>
<path fill="none" stroke="black" d="M1258.14,-113.78C1224.63,-110.09 1189.96,-106.6 1157.32,-103.88 844.22,-77.83 764.05,-98.19 451.32,-67.88 429.29,-65.75 406.13,-63.01 383.35,-60.04"/>
<polygon fill="black" stroke="black" points="383.64,-56.54 373.26,-58.7 382.72,-63.48 383.64,-56.54"/>
</g>
<!-- precondition:
 is_empty(outwardgripper) -->
<g id="node5" class="node">
<title>precondition:
 is_empty(outwardgripper)</title>
<ellipse fill="#ffec8b" stroke="black" cx="643.32" cy="-33.94" rx="183.28" ry="33.88"/>
<text text-anchor="middle" x="643.32" y="-39.54" font-family="Times,serif" font-size="18.00">precondition:</text>
<text text-anchor="middle" x="643.32" y="-19.54" font-family="Times,serif" font-size="18.00"> is_empty(outwardgripper)</text>
</g>
<!-- sequence:
 detach(left_hand, outwardgripper, shaft1, gearbase_hole1)&#45;&gt;precondition:
 is_empty(outwardgripper) -->
<g id="edge4" class="edge">
<title>sequence:
 detach(left_hand, outwardgripper, shaft1, gearbase_hole1)&#45;&gt;precondition:
 is_empty(outwardgripper)</title>
<path fill="none" stroke="black" d="M1243.79,-113.78C1214.79,-110.44 1185.29,-107.06 1157.32,-103.88 1014.24,-87.62 977.91,-88.07 835.32,-67.88 818.09,-65.44 800.02,-62.65 782.16,-59.75"/>
<polygon fill="black" stroke="black" points="782.69,-56.29 772.26,-58.13 781.56,-63.2 782.69,-56.29"/>
</g>
<!-- precondition:
 is_inserted_to(shaft1, gearbase_hole1) -->
<g id="node6" class="node">
<title>precondition:
 is_inserted_to(shaft1, gearbase_hole1)</title>
<ellipse fill="#ffec8b" stroke="black" cx="1106.32" cy="-33.94" rx="261.76" ry="33.88"/>
<text text-anchor="middle" x="1106.32" y="-39.54" font-family="Times,serif" font-size="18.00">precondition:</text>
<text text-anchor="middle" x="1106.32" y="-19.54" font-family="Times,serif" font-size="18.00"> is_inserted_to(shaft1, gearbase_hole1)</text>
</g>
<!-- sequence:
 detach(left_hand, outwardgripper, shaft1, gearbase_hole1)&#45;&gt;precondition:
 is_inserted_to(shaft1, gearbase_hole1) -->
<g id="edge5" class="edge">
<title>sequence:
 detach(left_hand, outwardgripper, shaft1, gearbase_hole1)&#45;&gt;precondition:
 is_inserted_to(shaft1, gearbase_hole1)</title>
<path fill="none" stroke="black" d="M1366.08,-113.7C1321.79,-100.27 1265.23,-83.12 1216.2,-68.26"/>
<polygon fill="black" stroke="black" points="1217.08,-64.87 1206.5,-65.32 1215.05,-71.57 1217.08,-64.87"/>
</g>
<!-- action:
 detach(left_hand, outwardgripper, shaft1, gearbase_hole1) -->
<g id="node7" class="node">
<title>action:
 detach(left_hand, outwardgripper, shaft1, gearbase_hole1)</title>
<ellipse fill="lightgreen" stroke="black" cx="1777.32" cy="-33.94" rx="391.06" ry="33.88"/>
<text text-anchor="middle" x="1777.32" y="-39.54" font-family="Times,serif" font-size="18.00">action:</text>
<text text-anchor="middle" x="1777.32" y="-19.54" font-family="Times,serif" font-size="18.00"> detach(left_hand, outwardgripper, shaft1, gearbase_hole1)</text>
</g>
<!-- sequence:
 detach(left_hand, outwardgripper, shaft1, gearbase_hole1)&#45;&gt;action:
 detach(left_hand, outwardgripper, shaft1, gearbase_hole1) -->
<g id="edge6" class="edge">
<title>sequence:
 detach(left_hand, outwardgripper, shaft1, gearbase_hole1)&#45;&gt;action:
 detach(left_hand, outwardgripper, shaft1, gearbase_hole1)</title>
<path fill="none" stroke="black" d="M1518.34,-113.7C1561.14,-100.69 1615.44,-84.17 1663.26,-69.63"/>
<polygon fill="black" stroke="black" points="1664.49,-72.92 1673.04,-66.66 1662.45,-66.22 1664.49,-72.92"/>
</g>
<!-- &quot;precondition:\n hold(left_hand, outwardgripper)&quot;* -->
<g id="node9" class="node">
<title>&quot;precondition:\n hold(left_hand, outwardgripper)&quot;*</title>
<ellipse fill="#ffec8b" stroke="black" cx="2419.32" cy="-33.94" rx="233.19" ry="33.88"/>
<text text-anchor="middle" x="2419.32" y="-39.54" font-family="Times,serif" font-size="18.00">&quot;precondition:</text>
<text text-anchor="middle" x="2419.32" y="-19.54" font-family="Times,serif" font-size="18.00"> hold(left_hand, outwardgripper)&quot;*</text>
</g>
<!-- sequence:
 change_tool(left_hand, outwardgripper, clampgripper)&#45;&gt;&quot;precondition:\n hold(left_hand, outwardgripper)&quot;* -->
<g id="edge8" class="edge">
<title>sequence:
 change_tool(left_hand, outwardgripper, clampgripper)&#45;&gt;&quot;precondition:\n hold(left_hand, outwardgripper)&quot;*</title>
<path fill="none" stroke="black" d="M2765.17,-113.77C2702.09,-99.39 2620.2,-80.73 2551.95,-65.17"/>
<polygon fill="black" stroke="black" points="2552.51,-61.71 2541.98,-62.9 2550.95,-68.53 2552.51,-61.71"/>
</g>
<!-- &quot;precondition:\n is_empty(outwardgripper)&quot;* -->
<g id="node10" class="node">
<title>&quot;precondition:\n is_empty(outwardgripper)&quot;*</title>
<ellipse fill="#ffec8b" stroke="black" cx="2866.32" cy="-33.94" rx="195.32" ry="33.88"/>
<text text-anchor="middle" x="2866.32" y="-39.54" font-family="Times,serif" font-size="18.00">&quot;precondition:</text>
<text text-anchor="middle" x="2866.32" y="-19.54" font-family="Times,serif" font-size="18.00"> is_empty(outwardgripper)&quot;*</text>
</g>
<!-- sequence:
 change_tool(left_hand, outwardgripper, clampgripper)&#45;&gt;&quot;precondition:\n is_empty(outwardgripper)&quot;* -->
<g id="edge9" class="edge">
<title>sequence:
 change_tool(left_hand, outwardgripper, clampgripper)&#45;&gt;&quot;precondition:\n is_empty(outwardgripper)&quot;*</title>
<path fill="none" stroke="black" d="M2866.32,-113.7C2866.32,-103.16 2866.32,-90.31 2866.32,-78.08"/>
<polygon fill="black" stroke="black" points="2869.82,-78.01 2866.32,-68.01 2862.82,-78.01 2869.82,-78.01"/>
</g>
<!-- action:
 change_tool(left_hand, outwardgripper, clampgripper) -->
<g id="node11" class="node">
<title>action:
 change_tool(left_hand, outwardgripper, clampgripper)</title>
<ellipse fill="lightgreen" stroke="black" cx="3442.32" cy="-33.94" rx="362.99" ry="33.88"/>
<text text-anchor="middle" x="3442.32" y="-39.54" font-family="Times,serif" font-size="18.00">action:</text>
<text text-anchor="middle" x="3442.32" y="-19.54" font-family="Times,serif" font-size="18.00"> change_tool(left_hand, outwardgripper, clampgripper)</text>
</g>
<!-- sequence:
 change_tool(left_hand, outwardgripper, clampgripper)&#45;&gt;action:
 change_tool(left_hand, outwardgripper, clampgripper) -->
<g id="edge10" class="edge">
<title>sequence:
 change_tool(left_hand, outwardgripper, clampgripper)&#45;&gt;action:
 change_tool(left_hand, outwardgripper, clampgripper)</title>
<path fill="none" stroke="black" d="M2996.67,-113.77C3076.64,-99.62 3180.04,-81.33 3267.11,-65.93"/>
<polygon fill="black" stroke="black" points="3267.87,-69.35 3277.11,-64.16 3266.65,-62.46 3267.87,-69.35"/>
</g>
<!-- precondition:
 hold(left_hand, clampgripper) -->
<g id="node13" class="node">
<title>precondition:
 hold(left_hand, clampgripper)</title>
<ellipse fill="#ffec8b" stroke="black" cx="4030.32" cy="-33.94" rx="207.36" ry="33.88"/>
<text text-anchor="middle" x="4030.32" y="-39.54" font-family="Times,serif" font-size="18.00">precondition:</text>
<text text-anchor="middle" x="4030.32" y="-19.54" font-family="Times,serif" font-size="18.00"> hold(left_hand, clampgripper)</text>
</g>
<!-- sequence:
 pick_up(left_hand, clampgripper, shaft1)&#45;&gt;precondition:
 hold(left_hand, clampgripper) -->
<g id="edge12" class="edge">
<title>sequence:
 pick_up(left_hand, clampgripper, shaft1)&#45;&gt;precondition:
 hold(left_hand, clampgripper)</title>
<path fill="none" stroke="black" d="M4164.84,-113.7C4143.77,-101.36 4117.32,-85.88 4093.47,-71.92"/>
<polygon fill="black" stroke="black" points="4095.22,-68.88 4084.82,-66.85 4091.68,-74.92 4095.22,-68.88"/>
</g>
<!-- precondition:
 is_empty(shaft1) -->
<g id="node14" class="node">
<title>precondition:
 is_empty(shaft1)</title>
<ellipse fill="#ffec8b" stroke="black" cx="4378.32" cy="-33.94" rx="122.16" ry="33.88"/>
<text text-anchor="middle" x="4378.32" y="-39.54" font-family="Times,serif" font-size="18.00">precondition:</text>
<text text-anchor="middle" x="4378.32" y="-19.54" font-family="Times,serif" font-size="18.00"> is_empty(shaft1)</text>
</g>
<!-- sequence:
 pick_up(left_hand, clampgripper, shaft1)&#45;&gt;precondition:
 is_empty(shaft1) -->
<g id="edge13" class="edge">
<title>sequence:
 pick_up(left_hand, clampgripper, shaft1)&#45;&gt;precondition:
 is_empty(shaft1)</title>
<path fill="none" stroke="black" d="M4243.81,-113.7C4265.78,-100.84 4293.57,-84.56 4318.19,-70.15"/>
<polygon fill="black" stroke="black" points="4320.24,-73.01 4327.1,-64.93 4316.7,-66.97 4320.24,-73.01"/>
</g>
<!-- action:
 pick_up(left_hand, clampgripper, shaft1) -->
<g id="node15" class="node">
<title>action:
 pick_up(left_hand, clampgripper, shaft1)</title>
<ellipse fill="lightgreen" stroke="black" cx="4793.32" cy="-33.94" rx="275.13" ry="33.88"/>
<text text-anchor="middle" x="4793.32" y="-39.54" font-family="Times,serif" font-size="18.00">action:</text>
<text text-anchor="middle" x="4793.32" y="-19.54" font-family="Times,serif" font-size="18.00"> pick_up(left_hand, clampgripper, shaft1)</text>
</g>
<!-- sequence:
 pick_up(left_hand, clampgripper, shaft1)&#45;&gt;action:
 pick_up(left_hand, clampgripper, shaft1) -->
<g id="edge14" class="edge">
<title>sequence:
 pick_up(left_hand, clampgripper, shaft1)&#45;&gt;action:
 pick_up(left_hand, clampgripper, shaft1)</title>
<path fill="none" stroke="black" d="M4337.61,-113.77C4423.48,-98.92 4535.77,-79.49 4627.41,-63.64"/>
<polygon fill="black" stroke="black" points="4628.08,-67.08 4637.34,-61.92 4626.89,-60.18 4628.08,-67.08"/>
</g>
<!-- &quot;precondition:\n hold(left_hand, clampgripper)&quot;* -->
<g id="node17" class="node">
<title>&quot;precondition:\n hold(left_hand, clampgripper)&quot;*</title>
<ellipse fill="#ffec8b" stroke="black" cx="5305.32" cy="-33.94" rx="219.41" ry="33.88"/>
<text text-anchor="middle" x="5305.32" y="-39.54" font-family="Times,serif" font-size="18.00">&quot;precondition:</text>
<text text-anchor="middle" x="5305.32" y="-19.54" font-family="Times,serif" font-size="18.00"> hold(left_hand, clampgripper)&quot;*</text>
</g>
<!-- sequence:
 insert(left_hand, clampgripper, shaft1, gearbase_hole1)&#45;&gt;&quot;precondition:\n hold(left_hand, clampgripper)&quot;* -->
<g id="edge16" class="edge">
<title>sequence:
 insert(left_hand, clampgripper, shaft1, gearbase_hole1)&#45;&gt;&quot;precondition:\n hold(left_hand, clampgripper)&quot;*</title>
<path fill="none" stroke="black" d="M5459.17,-113.7C5434.75,-101.2 5404.03,-85.48 5376.48,-71.37"/>
<polygon fill="black" stroke="black" points="5377.77,-68.1 5367.27,-66.66 5374.58,-74.33 5377.77,-68.1"/>
</g>
<!-- precondition:
 hold(left_hand, shaft1) -->
<g id="node18" class="node">
<title>precondition:
 hold(left_hand, shaft1)</title>
<ellipse fill="#ffec8b" stroke="black" cx="5703.32" cy="-33.94" rx="160.53" ry="33.88"/>
<text text-anchor="middle" x="5703.32" y="-39.54" font-family="Times,serif" font-size="18.00">precondition:</text>
<text text-anchor="middle" x="5703.32" y="-19.54" font-family="Times,serif" font-size="18.00"> hold(left_hand, shaft1)</text>
</g>
<!-- sequence:
 insert(left_hand, clampgripper, shaft1, gearbase_hole1)&#45;&gt;precondition:
 hold(left_hand, shaft1) -->
<g id="edge17" class="edge">
<title>sequence:
 insert(left_hand, clampgripper, shaft1, gearbase_hole1)&#45;&gt;precondition:
 hold(left_hand, shaft1)</title>
<path fill="none" stroke="black" d="M5549.48,-113.7C5574.63,-100.83 5606.45,-84.54 5634.62,-70.12"/>
<polygon fill="black" stroke="black" points="5636.32,-73.18 5643.62,-65.51 5633.13,-66.95 5636.32,-73.18"/>
</g>
<!-- action:
 insert(left_hand, clampgripper, shaft1, gearbase_hole1) -->
<g id="node19" class="node">
<title>action:
 insert(left_hand, clampgripper, shaft1, gearbase_hole1)</title>
<ellipse fill="lightgreen" stroke="black" cx="6252.32" cy="-33.94" rx="370.55" ry="33.88"/>
<text text-anchor="middle" x="6252.32" y="-39.54" font-family="Times,serif" font-size="18.00">action:</text>
<text text-anchor="middle" x="6252.32" y="-19.54" font-family="Times,serif" font-size="18.00"> insert(left_hand, clampgripper, shaft1, gearbase_hole1)</text>
</g>
<!-- sequence:
 insert(left_hand, clampgripper, shaft1, gearbase_hole1)&#45;&gt;action:
 insert(left_hand, clampgripper, shaft1, gearbase_hole1) -->
<g id="edge18" class="edge">
<title>sequence:
 insert(left_hand, clampgripper, shaft1, gearbase_hole1)&#45;&gt;action:
 insert(left_hand, clampgripper, shaft1, gearbase_hole1)</title>
<path fill="none" stroke="black" d="M5673.59,-113.77C5782.26,-98.97 5924.26,-79.63 6040.4,-63.81"/>
<polygon fill="black" stroke="black" points="6041.05,-67.25 6050.49,-62.43 6040.11,-60.31 6041.05,-67.25"/>
</g>
</g>
</svg>
