<?xml version="1.0" encoding="UTF-8" standalone="no"?>
<!DOCTYPE svg PUBLIC "-//W3C//DTD SVG 1.1//EN"
 "http://www.w3.org/Graphics/SVG/1.1/DTD/svg11.dtd">
<!-- Generated by graphviz version 2.43.0 (0)
 -->
<!-- Title: pastafarianism Pages: 1 -->
<svg width="3215pt" height="716pt"
 viewBox="0.00 0.00 3215.39 715.95" xmlns="http://www.w3.org/2000/svg" xmlns:xlink="http://www.w3.org/1999/xlink">
<g id="graph0" class="graph" transform="scale(1 1) rotate(0) translate(4 711.95)">
<title>pastafarianism</title>
<polygon fill="white" stroke="transparent" points="-4,4 -4,-711.95 3211.39,-711.95 3211.39,4 -4,4"/>
<!-- selector:
 insert(left_hand, clampgripper, shaft1, gearbase_hole1) -->
<g id="node1" class="node">
<title>selector:
 insert(left_hand, clampgripper, shaft1, gearbase_hole1)</title>
<polygon fill="#8deeee" stroke="black" points="1761.43,-655.9 1761.43,-686.53 1526.47,-708.19 1194.18,-708.19 959.22,-686.53 959.22,-655.9 1194.18,-634.24 1526.47,-634.24 1761.43,-655.9"/>
<text text-anchor="middle" x="1360.32" y="-676.82" font-family="Times,serif" font-size="18.00">selector:</text>
<text text-anchor="middle" x="1360.32" y="-656.82" font-family="Times,serif" font-size="18.00"> insert(left_hand, clampgripper, shaft1, gearbase_hole1)</text>
</g>
<!-- target:
 is_inserted_to(shaft1, gearbase_hole1) -->
<g id="node2" class="node">
<title>target:
 is_inserted_to(shaft1, gearbase_hole1)</title>
<ellipse fill="#ffec8b" stroke="black" cx="1089.32" cy="-564.54" rx="261.76" ry="33.88"/>
<text text-anchor="middle" x="1089.32" y="-570.14" font-family="Times,serif" font-size="18.00">target:</text>
<text text-anchor="middle" x="1089.32" y="-550.14" font-family="Times,serif" font-size="18.00"> is_inserted_to(shaft1, gearbase_hole1)</text>
</g>
<!-- selector:
 insert(left_hand, clampgripper, shaft1, gearbase_hole1)&#45;&gt;target:
 is_inserted_to(shaft1, gearbase_hole1) -->
<g id="edge1" class="edge">
<title>selector:
 insert(left_hand, clampgripper, shaft1, gearbase_hole1)&#45;&gt;target:
 is_inserted_to(shaft1, gearbase_hole1)</title>
<path fill="none" stroke="black" d="M1267.44,-634.34C1239.08,-623.39 1207.95,-611.36 1179.76,-600.47"/>
<polygon fill="black" stroke="black" points="1180.91,-597.16 1170.32,-596.82 1178.39,-603.69 1180.91,-597.16"/>
</g>
<!-- sequence:
 insert(left_hand, clampgripper, shaft1, gearbase_hole1) -->
<g id="node3" class="node">
<title>sequence:
 insert(left_hand, clampgripper, shaft1, gearbase_hole1)</title>
<polygon fill="#ff7f24" stroke="black" points="1893.32,-588.54 1369.32,-588.54 1369.32,-540.54 1893.32,-540.54 1893.32,-588.54"/>
<text text-anchor="middle" x="1631.32" y="-570.14" font-family="Times,serif" font-size="18.00">sequence:</text>
<text text-anchor="middle" x="1631.32" y="-550.14" font-family="Times,serif" font-size="18.00"> insert(left_hand, clampgripper, shaft1, gearbase_hole1)</text>
</g>
<!-- selector:
 insert(left_hand, clampgripper, shaft1, gearbase_hole1)&#45;&gt;sequence:
 insert(left_hand, clampgripper, shaft1, gearbase_hole1) -->
<g id="edge2" class="edge">
<title>selector:
 insert(left_hand, clampgripper, shaft1, gearbase_hole1)&#45;&gt;sequence:
 insert(left_hand, clampgripper, shaft1, gearbase_hole1)</title>
<path fill="none" stroke="black" d="M1453.21,-634.34C1488.91,-620.55 1529,-605.06 1562.1,-592.28"/>
<polygon fill="black" stroke="black" points="1563.62,-595.44 1571.68,-588.58 1561.1,-588.91 1563.62,-595.44"/>
</g>
<!-- selector:
 change_tool(left_hand, outwardgripper, clampgripper) -->
<g id="node4" class="node">
<title>selector:
 change_tool(left_hand, outwardgripper, clampgripper)</title>
<polygon fill="#8deeee" stroke="black" points="1223.09,-442.54 1223.09,-473.18 993.01,-494.84 667.64,-494.84 437.56,-473.18 437.56,-442.54 667.64,-420.88 993.01,-420.88 1223.09,-442.54"/>
<text text-anchor="middle" x="830.32" y="-463.46" font-family="Times,serif" font-size="18.00">selector:</text>
<text text-anchor="middle" x="830.32" y="-443.46" font-family="Times,serif" font-size="18.00"> change_tool(left_hand, outwardgripper, clampgripper)</text>
</g>
<!-- sequence:
 insert(left_hand, clampgripper, shaft1, gearbase_hole1)&#45;&gt;selector:
 change_tool(left_hand, outwardgripper, clampgripper) -->
<g id="edge3" class="edge">
<title>sequence:
 insert(left_hand, clampgripper, shaft1, gearbase_hole1)&#45;&gt;selector:
 change_tool(left_hand, outwardgripper, clampgripper)</title>
<path fill="none" stroke="black" d="M1455.05,-540.5C1341.58,-525.67 1192.69,-506.22 1068.73,-490.02"/>
<polygon fill="black" stroke="black" points="1069.08,-486.53 1058.71,-488.71 1068.17,-493.47 1069.08,-486.53"/>
</g>
<!-- selector:
 pick_up(left_hand, clampgripper, shaft1) -->
<g id="node15" class="node">
<title>selector:
 pick_up(left_hand, clampgripper, shaft1)</title>
<polygon fill="#8deeee" stroke="black" points="1929.28,-442.54 1929.28,-473.18 1754.74,-494.84 1507.91,-494.84 1333.37,-473.18 1333.37,-442.54 1507.91,-420.88 1754.74,-420.88 1929.28,-442.54"/>
<text text-anchor="middle" x="1631.32" y="-463.46" font-family="Times,serif" font-size="18.00">selector:</text>
<text text-anchor="middle" x="1631.32" y="-443.46" font-family="Times,serif" font-size="18.00"> pick_up(left_hand, clampgripper, shaft1)</text>
</g>
<!-- sequence:
 insert(left_hand, clampgripper, shaft1, gearbase_hole1)&#45;&gt;selector:
 pick_up(left_hand, clampgripper, shaft1) -->
<g id="edge14" class="edge">
<title>sequence:
 insert(left_hand, clampgripper, shaft1, gearbase_hole1)&#45;&gt;selector:
 pick_up(left_hand, clampgripper, shaft1)</title>
<path fill="none" stroke="black" d="M1631.32,-540.31C1631.32,-529.86 1631.32,-517.15 1631.32,-504.9"/>
<polygon fill="black" stroke="black" points="1634.82,-504.78 1631.32,-494.78 1627.82,-504.78 1634.82,-504.78"/>
</g>
<!-- action:
 insert(left_hand, clampgripper, shaft1, gearbase_hole1) -->
<g id="node21" class="node">
<title>action:
 insert(left_hand, clampgripper, shaft1, gearbase_hole1)</title>
<ellipse fill="lightgreen" stroke="black" cx="2317.32" cy="-457.86" rx="370.55" ry="33.88"/>
<text text-anchor="middle" x="2317.32" y="-463.46" font-family="Times,serif" font-size="18.00">action:</text>
<text text-anchor="middle" x="2317.32" y="-443.46" font-family="Times,serif" font-size="18.00"> insert(left_hand, clampgripper, shaft1, gearbase_hole1)</text>
</g>
<!-- sequence:
 insert(left_hand, clampgripper, shaft1, gearbase_hole1)&#45;&gt;action:
 insert(left_hand, clampgripper, shaft1, gearbase_hole1) -->
<g id="edge20" class="edge">
<title>sequence:
 insert(left_hand, clampgripper, shaft1, gearbase_hole1)&#45;&gt;action:
 insert(left_hand, clampgripper, shaft1, gearbase_hole1)</title>
<path fill="none" stroke="black" d="M1782.29,-540.5C1881.95,-525.3 2013.51,-505.22 2121.23,-488.78"/>
<polygon fill="black" stroke="black" points="2121.89,-492.22 2131.25,-487.25 2120.84,-485.3 2121.89,-492.22"/>
</g>
<!-- target:
 hold(left_hand, clampgripper) -->
<g id="node5" class="node">
<title>target:
 hold(left_hand, clampgripper)</title>
<ellipse fill="#ffec8b" stroke="black" cx="348.32" cy="-351.18" rx="207.36" ry="33.88"/>
<text text-anchor="middle" x="348.32" y="-356.78" font-family="Times,serif" font-size="18.00">target:</text>
<text text-anchor="middle" x="348.32" y="-336.78" font-family="Times,serif" font-size="18.00"> hold(left_hand, clampgripper)</text>
</g>
<!-- selector:
 change_tool(left_hand, outwardgripper, clampgripper)&#45;&gt;target:
 hold(left_hand, clampgripper) -->
<g id="edge4" class="edge">
<title>selector:
 change_tool(left_hand, outwardgripper, clampgripper)&#45;&gt;target:
 hold(left_hand, clampgripper)</title>
<path fill="none" stroke="black" d="M665.46,-421.05C605.03,-407.93 537.47,-393.26 480.3,-380.84"/>
<polygon fill="black" stroke="black" points="481,-377.41 470.48,-378.71 479.51,-384.25 481,-377.41"/>
</g>
<!-- sequence:
 change_tool(left_hand, outwardgripper, clampgripper) -->
<g id="node6" class="node">
<title>sequence:
 change_tool(left_hand, outwardgripper, clampgripper)</title>
<polygon fill="#ff7f24" stroke="black" points="1086.82,-375.18 573.82,-375.18 573.82,-327.18 1086.82,-327.18 1086.82,-375.18"/>
<text text-anchor="middle" x="830.32" y="-356.78" font-family="Times,serif" font-size="18.00">sequence:</text>
<text text-anchor="middle" x="830.32" y="-336.78" font-family="Times,serif" font-size="18.00"> change_tool(left_hand, outwardgripper, clampgripper)</text>
</g>
<!-- selector:
 change_tool(left_hand, outwardgripper, clampgripper)&#45;&gt;sequence:
 change_tool(left_hand, outwardgripper, clampgripper) -->
<g id="edge5" class="edge">
<title>selector:
 change_tool(left_hand, outwardgripper, clampgripper)&#45;&gt;sequence:
 change_tool(left_hand, outwardgripper, clampgripper)</title>
<path fill="none" stroke="black" d="M830.32,-420.84C830.32,-409.45 830.32,-396.92 830.32,-385.72"/>
<polygon fill="black" stroke="black" points="833.82,-385.47 830.32,-375.47 826.82,-385.47 833.82,-385.47"/>
</g>
<!-- precondition:
 hold(left_hand, outwardgripper) -->
<g id="node7" class="node">
<title>precondition:
 hold(left_hand, outwardgripper)</title>
<ellipse fill="#ffec8b" stroke="black" cx="221.32" cy="-244.5" rx="221.15" ry="33.88"/>
<text text-anchor="middle" x="221.32" y="-250.1" font-family="Times,serif" font-size="18.00">precondition:</text>
<text text-anchor="middle" x="221.32" y="-230.1" font-family="Times,serif" font-size="18.00"> hold(left_hand, outwardgripper)</text>
</g>
<!-- sequence:
 change_tool(left_hand, outwardgripper, clampgripper)&#45;&gt;precondition:
 hold(left_hand, outwardgripper) -->
<g id="edge6" class="edge">
<title>sequence:
 change_tool(left_hand, outwardgripper, clampgripper)&#45;&gt;precondition:
 hold(left_hand, outwardgripper)</title>
<path fill="none" stroke="black" d="M696.3,-327.14C601.67,-310.88 474.62,-289.04 375.74,-272.04"/>
<polygon fill="black" stroke="black" points="376.1,-268.55 365.65,-270.31 374.91,-275.45 376.1,-268.55"/>
</g>
<!-- selector:
 put_down(left_hand, outwardgripper, gear2) -->
<g id="node8" class="node">
<title>selector:
 put_down(left_hand, outwardgripper, gear2)</title>
<polygon fill="#8deeee" stroke="black" points="1107.82,-229.19 1107.82,-259.82 918.32,-281.48 650.33,-281.48 460.82,-259.82 460.82,-229.19 650.33,-207.53 918.32,-207.53 1107.82,-229.19"/>
<text text-anchor="middle" x="784.32" y="-250.1" font-family="Times,serif" font-size="18.00">selector:</text>
<text text-anchor="middle" x="784.32" y="-230.1" font-family="Times,serif" font-size="18.00"> put_down(left_hand, outwardgripper, gear2)</text>
</g>
<!-- sequence:
 change_tool(left_hand, outwardgripper, clampgripper)&#45;&gt;selector:
 put_down(left_hand, outwardgripper, gear2) -->
<g id="edge7" class="edge">
<title>sequence:
 change_tool(left_hand, outwardgripper, clampgripper)&#45;&gt;selector:
 put_down(left_hand, outwardgripper, gear2)</title>
<path fill="none" stroke="black" d="M820.12,-326.95C815.43,-316.29 809.71,-303.28 804.23,-290.81"/>
<polygon fill="black" stroke="black" points="807.34,-289.17 800.11,-281.42 800.93,-291.98 807.34,-289.17"/>
</g>
<!-- action:
 change_tool(left_hand, outwardgripper, clampgripper) -->
<g id="node14" class="node">
<title>action:
 change_tool(left_hand, outwardgripper, clampgripper)</title>
<ellipse fill="lightgreen" stroke="black" cx="1488.32" cy="-244.5" rx="362.99" ry="33.88"/>
<text text-anchor="middle" x="1488.32" y="-250.1" font-family="Times,serif" font-size="18.00">action:</text>
<text text-anchor="middle" x="1488.32" y="-230.1" font-family="Times,serif" font-size="18.00"> change_tool(left_hand, outwardgripper, clampgripper)</text>
</g>
<!-- sequence:
 change_tool(left_hand, outwardgripper, clampgripper)&#45;&gt;action:
 change_tool(left_hand, outwardgripper, clampgripper) -->
<g id="edge13" class="edge">
<title>sequence:
 change_tool(left_hand, outwardgripper, clampgripper)&#45;&gt;action:
 change_tool(left_hand, outwardgripper, clampgripper)</title>
<path fill="none" stroke="black" d="M975.13,-327.14C1070.35,-312 1195.93,-292.02 1299.03,-275.62"/>
<polygon fill="black" stroke="black" points="1299.61,-279.07 1308.94,-274.04 1298.51,-272.15 1299.61,-279.07"/>
</g>
<!-- target:
 is_empty(outwardgripper) -->
<g id="node9" class="node">
<title>target:
 is_empty(outwardgripper)</title>
<ellipse fill="#ffec8b" stroke="black" cx="578.32" cy="-137.82" rx="183.28" ry="33.88"/>
<text text-anchor="middle" x="578.32" y="-143.42" font-family="Times,serif" font-size="18.00">target:</text>
<text text-anchor="middle" x="578.32" y="-123.42" font-family="Times,serif" font-size="18.00"> is_empty(outwardgripper)</text>
</g>
<!-- selector:
 put_down(left_hand, outwardgripper, gear2)&#45;&gt;target:
 is_empty(outwardgripper) -->
<g id="edge8" class="edge">
<title>selector:
 put_down(left_hand, outwardgripper, gear2)&#45;&gt;target:
 is_empty(outwardgripper)</title>
<path fill="none" stroke="black" d="M713.72,-207.62C692.72,-196.95 669.72,-185.26 648.73,-174.6"/>
<polygon fill="black" stroke="black" points="650.06,-171.35 639.55,-169.94 646.88,-177.59 650.06,-171.35"/>
</g>
<!-- sequence:
 put_down(left_hand, outwardgripper, gear2) -->
<g id="node10" class="node">
<title>sequence:
 put_down(left_hand, outwardgripper, gear2)</title>
<polygon fill="#ff7f24" stroke="black" points="1202.82,-161.82 779.82,-161.82 779.82,-113.82 1202.82,-113.82 1202.82,-161.82"/>
<text text-anchor="middle" x="991.32" y="-143.42" font-family="Times,serif" font-size="18.00">sequence:</text>
<text text-anchor="middle" x="991.32" y="-123.42" font-family="Times,serif" font-size="18.00"> put_down(left_hand, outwardgripper, gear2)</text>
</g>
<!-- selector:
 put_down(left_hand, outwardgripper, gear2)&#45;&gt;sequence:
 put_down(left_hand, outwardgripper, gear2) -->
<g id="edge9" class="edge">
<title>selector:
 put_down(left_hand, outwardgripper, gear2)&#45;&gt;sequence:
 put_down(left_hand, outwardgripper, gear2)</title>
<path fill="none" stroke="black" d="M855.27,-207.62C881.96,-194.13 911.85,-179.01 936.81,-166.39"/>
<polygon fill="black" stroke="black" points="938.42,-169.5 945.77,-161.86 935.27,-163.25 938.42,-169.5"/>
</g>
<!-- &quot;precondition:\n hold(left_hand, outwardgripper)&quot;* -->
<g id="node11" class="node">
<title>&quot;precondition:\n hold(left_hand, outwardgripper)&quot;*</title>
<ellipse fill="#ffec8b" stroke="black" cx="543.32" cy="-33.94" rx="233.19" ry="33.88"/>
<text text-anchor="middle" x="543.32" y="-39.54" font-family="Times,serif" font-size="18.00">&quot;precondition:</text>
<text text-anchor="middle" x="543.32" y="-19.54" font-family="Times,serif" font-size="18.00"> hold(left_hand, outwardgripper)&quot;*</text>
</g>
<!-- sequence:
 put_down(left_hand, outwardgripper, gear2)&#45;&gt;&quot;precondition:\n hold(left_hand, outwardgripper)&quot;* -->
<g id="edge10" class="edge">
<title>sequence:
 put_down(left_hand, outwardgripper, gear2)&#45;&gt;&quot;precondition:\n hold(left_hand, outwardgripper)&quot;*</title>
<path fill="none" stroke="black" d="M889.95,-113.77C826.72,-99.39 744.65,-80.73 676.25,-65.17"/>
<polygon fill="black" stroke="black" points="676.78,-61.7 666.26,-62.9 675.23,-68.53 676.78,-61.7"/>
</g>
<!-- precondition:
 hold(outwardgripper, gear2) -->
<g id="node12" class="node">
<title>precondition:
 hold(outwardgripper, gear2)</title>
<ellipse fill="#ffec8b" stroke="black" cx="991.32" cy="-33.94" rx="196.65" ry="33.88"/>
<text text-anchor="middle" x="991.32" y="-39.54" font-family="Times,serif" font-size="18.00">precondition:</text>
<text text-anchor="middle" x="991.32" y="-19.54" font-family="Times,serif" font-size="18.00"> hold(outwardgripper, gear2)</text>
</g>
<!-- sequence:
 put_down(left_hand, outwardgripper, gear2)&#45;&gt;precondition:
 hold(outwardgripper, gear2) -->
<g id="edge11" class="edge">
<title>sequence:
 put_down(left_hand, outwardgripper, gear2)&#45;&gt;precondition:
 hold(outwardgripper, gear2)</title>
<path fill="none" stroke="black" d="M991.32,-113.7C991.32,-103.16 991.32,-90.31 991.32,-78.08"/>
<polygon fill="black" stroke="black" points="994.82,-78.01 991.32,-68.01 987.82,-78.01 994.82,-78.01"/>
</g>
<!-- action:
 put_down(left_hand, outwardgripper, gear2) -->
<g id="node13" class="node">
<title>action:
 put_down(left_hand, outwardgripper, gear2)</title>
<ellipse fill="lightgreen" stroke="black" cx="1505.32" cy="-33.94" rx="299.21" ry="33.88"/>
<text text-anchor="middle" x="1505.32" y="-39.54" font-family="Times,serif" font-size="18.00">action:</text>
<text text-anchor="middle" x="1505.32" y="-19.54" font-family="Times,serif" font-size="18.00"> put_down(left_hand, outwardgripper, gear2)</text>
</g>
<!-- sequence:
 put_down(left_hand, outwardgripper, gear2)&#45;&gt;action:
 put_down(left_hand, outwardgripper, gear2) -->
<g id="edge12" class="edge">
<title>sequence:
 put_down(left_hand, outwardgripper, gear2)&#45;&gt;action:
 put_down(left_hand, outwardgripper, gear2)</title>
<path fill="none" stroke="black" d="M1107.64,-113.77C1179.49,-99.53 1272.55,-81.08 1350.58,-65.61"/>
<polygon fill="black" stroke="black" points="1351.38,-69.02 1360.5,-63.65 1350.01,-62.16 1351.38,-69.02"/>
</g>
<!-- target:
 hold(clampgripper, shaft1) -->
<g id="node16" class="node">
<title>target:
 hold(clampgripper, shaft1)</title>
<ellipse fill="#ffec8b" stroke="black" cx="1631.32" cy="-351.18" rx="185.94" ry="33.88"/>
<text text-anchor="middle" x="1631.32" y="-356.78" font-family="Times,serif" font-size="18.00">target:</text>
<text text-anchor="middle" x="1631.32" y="-336.78" font-family="Times,serif" font-size="18.00"> hold(clampgripper, shaft1)</text>
</g>
<!-- selector:
 pick_up(left_hand, clampgripper, shaft1)&#45;&gt;target:
 hold(clampgripper, shaft1) -->
<g id="edge15" class="edge">
<title>selector:
 pick_up(left_hand, clampgripper, shaft1)&#45;&gt;target:
 hold(clampgripper, shaft1)</title>
<path fill="none" stroke="black" d="M1631.32,-420.84C1631.32,-412.68 1631.32,-403.93 1631.32,-395.51"/>
<polygon fill="black" stroke="black" points="1634.82,-395.46 1631.32,-385.46 1627.82,-395.46 1634.82,-395.46"/>
</g>
<!-- sequence:
 pick_up(left_hand, clampgripper, shaft1) -->
<g id="node17" class="node">
<title>sequence:
 pick_up(left_hand, clampgripper, shaft1)</title>
<polygon fill="#ff7f24" stroke="black" points="2467.82,-375.18 2078.82,-375.18 2078.82,-327.18 2467.82,-327.18 2467.82,-375.18"/>
<text text-anchor="middle" x="2273.32" y="-356.78" font-family="Times,serif" font-size="18.00">sequence:</text>
<text text-anchor="middle" x="2273.32" y="-336.78" font-family="Times,serif" font-size="18.00"> pick_up(left_hand, clampgripper, shaft1)</text>
</g>
<!-- selector:
 pick_up(left_hand, clampgripper, shaft1)&#45;&gt;sequence:
 pick_up(left_hand, clampgripper, shaft1) -->
<g id="edge16" class="edge">
<title>selector:
 pick_up(left_hand, clampgripper, shaft1)&#45;&gt;sequence:
 pick_up(left_hand, clampgripper, shaft1)</title>
<path fill="none" stroke="black" d="M1810.16,-427.7C1908.24,-411.71 2028.52,-392.1 2121.92,-376.87"/>
<polygon fill="black" stroke="black" points="2122.72,-380.28 2132.03,-375.22 2121.59,-373.37 2122.72,-380.28"/>
</g>
<!-- precondition:
 hold(left_hand, clampgripper) -->
<g id="node18" class="node">
<title>precondition:
 hold(left_hand, clampgripper)</title>
<ellipse fill="#ffec8b" stroke="black" cx="2076.32" cy="-244.5" rx="207.36" ry="33.88"/>
<text text-anchor="middle" x="2076.32" y="-250.1" font-family="Times,serif" font-size="18.00">precondition:</text>
<text text-anchor="middle" x="2076.32" y="-230.1" font-family="Times,serif" font-size="18.00"> hold(left_hand, clampgripper)</text>
</g>
<!-- sequence:
 pick_up(left_hand, clampgripper, shaft1)&#45;&gt;precondition:
 hold(left_hand, clampgripper) -->
<g id="edge17" class="edge">
<title>sequence:
 pick_up(left_hand, clampgripper, shaft1)&#45;&gt;precondition:
 hold(left_hand, clampgripper)</title>
<path fill="none" stroke="black" d="M2229.6,-326.95C2204.75,-313.74 2173.07,-296.91 2144.97,-281.98"/>
<polygon fill="black" stroke="black" points="2146.46,-278.81 2135.99,-277.2 2143.17,-284.99 2146.46,-278.81"/>
</g>
<!-- precondition:
 is_empty(clampgripper) -->
<g id="node19" class="node">
<title>precondition:
 is_empty(clampgripper)</title>
<ellipse fill="#ffec8b" stroke="black" cx="2470.32" cy="-244.5" rx="169" ry="33.88"/>
<text text-anchor="middle" x="2470.32" y="-250.1" font-family="Times,serif" font-size="18.00">precondition:</text>
<text text-anchor="middle" x="2470.32" y="-230.1" font-family="Times,serif" font-size="18.00"> is_empty(clampgripper)</text>
</g>
<!-- sequence:
 pick_up(left_hand, clampgripper, shaft1)&#45;&gt;precondition:
 is_empty(clampgripper) -->
<g id="edge18" class="edge">
<title>sequence:
 pick_up(left_hand, clampgripper, shaft1)&#45;&gt;precondition:
 is_empty(clampgripper)</title>
<path fill="none" stroke="black" d="M2317.05,-326.95C2342.31,-313.52 2374.62,-296.35 2403.06,-281.24"/>
<polygon fill="black" stroke="black" points="2404.96,-284.2 2412.15,-276.42 2401.67,-278.02 2404.96,-284.2"/>
</g>
<!-- action:
 pick_up(left_hand, clampgripper, shaft1) -->
<g id="node20" class="node">
<title>action:
 pick_up(left_hand, clampgripper, shaft1)</title>
<ellipse fill="lightgreen" stroke="black" cx="2932.32" cy="-244.5" rx="275.13" ry="33.88"/>
<text text-anchor="middle" x="2932.32" y="-250.1" font-family="Times,serif" font-size="18.00">action:</text>
<text text-anchor="middle" x="2932.32" y="-230.1" font-family="Times,serif" font-size="18.00"> pick_up(left_hand, clampgripper, shaft1)</text>
</g>
<!-- sequence:
 pick_up(left_hand, clampgripper, shaft1)&#45;&gt;action:
 pick_up(left_hand, clampgripper, shaft1) -->
<g id="edge19" class="edge">
<title>sequence:
 pick_up(left_hand, clampgripper, shaft1)&#45;&gt;action:
 pick_up(left_hand, clampgripper, shaft1)</title>
<path fill="none" stroke="black" d="M2418.35,-327.14C2518.21,-311.28 2651.42,-290.12 2757.2,-273.32"/>
<polygon fill="black" stroke="black" points="2758.02,-276.73 2767.35,-271.71 2756.92,-269.82 2758.02,-276.73"/>
</g>
</g>
</svg>
