<?xml version="1.0" encoding="UTF-8" standalone="no"?>
<!DOCTYPE svg PUBLIC "-//W3C//DTD SVG 1.1//EN"
 "http://www.w3.org/Graphics/SVG/1.1/DTD/svg11.dtd">
<!-- Generated by graphviz version 2.43.0 (0)
 -->
<!-- Title: pastafarianism Pages: 1 -->
<svg width="3108pt" height="729pt"
 viewBox="0.00 0.00 3108.32 729.48" xmlns="http://www.w3.org/2000/svg" xmlns:xlink="http://www.w3.org/1999/xlink">
<g id="graph0" class="graph" transform="scale(1 1) rotate(0) translate(4 725.48)">
<title>pastafarianism</title>
<polygon fill="white" stroke="transparent" points="-4,4 -4,-725.48 3104.32,-725.48 3104.32,4 -4,4"/>
<!-- selector:
 screw(left_hand, clampgripper, lampbulb, lampbase) -->
<g id="node1" class="node">
<title>selector:
 screw(left_hand, clampgripper, lampbulb, lampbase)</title>
<polygon fill="#8deeee" stroke="black" points="1637.78,-669.42 1637.78,-700.05 1413.51,-721.71 1096.33,-721.71 872.05,-700.05 872.05,-669.42 1096.33,-647.76 1413.51,-647.76 1637.78,-669.42"/>
<text text-anchor="middle" x="1254.92" y="-690.34" font-family="Times,serif" font-size="18.00">selector:</text>
<text text-anchor="middle" x="1254.92" y="-670.34" font-family="Times,serif" font-size="18.00"> screw(left_hand, clampgripper, lampbulb, lampbase)</text>
</g>
<!-- target:
 is_screwed_to(lampbulb, lampbase) -->
<g id="node2" class="node">
<title>target:
 is_screwed_to(lampbulb, lampbase)</title>
<ellipse fill="#ffec8b" stroke="black" cx="1005.92" cy="-576" rx="231.37" ry="36"/>
<text text-anchor="middle" x="1005.92" y="-581.6" font-family="Times,serif" font-size="18.00">target:</text>
<text text-anchor="middle" x="1005.92" y="-561.6" font-family="Times,serif" font-size="18.00"> is_screwed_to(lampbulb, lampbase)</text>
</g>
<!-- selector:
 screw(left_hand, clampgripper, lampbulb, lampbase)&#45;&gt;target:
 is_screwed_to(lampbulb, lampbase) -->
<g id="edge1" class="edge">
<title>selector:
 screw(left_hand, clampgripper, lampbulb, lampbase)&#45;&gt;target:
 is_screwed_to(lampbulb, lampbase)</title>
<path fill="none" stroke="black" d="M1171.31,-647.9C1145.89,-637 1117.92,-625.01 1092.32,-614.04"/>
<polygon fill="black" stroke="black" points="1093.57,-610.77 1083,-610.04 1090.82,-617.2 1093.57,-610.77"/>
</g>
<!-- sequence:
 screw(left_hand, clampgripper, lampbulb, lampbase) -->
<g id="node3" class="node">
<title>sequence:
 screw(left_hand, clampgripper, lampbulb, lampbase)</title>
<polygon fill="#ff7f24" stroke="black" points="1754.92,-612 1254.92,-612 1254.92,-540 1754.92,-540 1754.92,-612"/>
<text text-anchor="middle" x="1504.92" y="-581.6" font-family="Times,serif" font-size="18.00">sequence:</text>
<text text-anchor="middle" x="1504.92" y="-561.6" font-family="Times,serif" font-size="18.00"> screw(left_hand, clampgripper, lampbulb, lampbase)</text>
</g>
<!-- selector:
 screw(left_hand, clampgripper, lampbulb, lampbase)&#45;&gt;sequence:
 screw(left_hand, clampgripper, lampbulb, lampbase) -->
<g id="edge2" class="edge">
<title>selector:
 screw(left_hand, clampgripper, lampbulb, lampbase)&#45;&gt;sequence:
 screw(left_hand, clampgripper, lampbulb, lampbase)</title>
<path fill="none" stroke="black" d="M1338.86,-647.9C1362.88,-637.64 1389.18,-626.41 1413.63,-615.98"/>
<polygon fill="black" stroke="black" points="1415.07,-619.17 1422.89,-612.02 1412.32,-612.73 1415.07,-619.17"/>
</g>
<!-- selector:
 change_tool(left_hand, inwardgripper, clampgripper) -->
<g id="node4" class="node">
<title>selector:
 change_tool(left_hand, inwardgripper, clampgripper)</title>
<polygon fill="#8deeee" stroke="black" points="1138.46,-453.09 1138.46,-482.91 925.5,-504 624.33,-504 411.37,-482.91 411.37,-453.09 624.33,-432 925.5,-432 1138.46,-453.09"/>
<text text-anchor="middle" x="774.92" y="-473.6" font-family="Times,serif" font-size="18.00">selector:</text>
<text text-anchor="middle" x="774.92" y="-453.6" font-family="Times,serif" font-size="18.00"> change_tool(left_hand, inwardgripper, clampgripper)</text>
</g>
<!-- sequence:
 screw(left_hand, clampgripper, lampbulb, lampbase)&#45;&gt;selector:
 change_tool(left_hand, inwardgripper, clampgripper) -->
<g id="edge3" class="edge">
<title>sequence:
 screw(left_hand, clampgripper, lampbulb, lampbase)&#45;&gt;selector:
 change_tool(left_hand, inwardgripper, clampgripper)</title>
<path fill="none" stroke="black" d="M1263.86,-540C1175.19,-527.12 1075.44,-512.64 989.27,-500.13"/>
<polygon fill="black" stroke="black" points="989.77,-496.66 979.37,-498.69 988.77,-503.59 989.77,-496.66"/>
</g>
<!-- selector:
 pick_up(left_hand, clampgripper, lampbulb) -->
<g id="node15" class="node">
<title>selector:
 pick_up(left_hand, clampgripper, lampbulb)</title>
<polygon fill="#8deeee" stroke="black" points="1808.43,-453.09 1808.43,-482.91 1630.64,-504 1379.2,-504 1201.41,-482.91 1201.41,-453.09 1379.2,-432 1630.64,-432 1808.43,-453.09"/>
<text text-anchor="middle" x="1504.92" y="-473.6" font-family="Times,serif" font-size="18.00">selector:</text>
<text text-anchor="middle" x="1504.92" y="-453.6" font-family="Times,serif" font-size="18.00"> pick_up(left_hand, clampgripper, lampbulb)</text>
</g>
<!-- sequence:
 screw(left_hand, clampgripper, lampbulb, lampbase)&#45;&gt;selector:
 pick_up(left_hand, clampgripper, lampbulb) -->
<g id="edge14" class="edge">
<title>sequence:
 screw(left_hand, clampgripper, lampbulb, lampbase)&#45;&gt;selector:
 pick_up(left_hand, clampgripper, lampbulb)</title>
<path fill="none" stroke="black" d="M1504.92,-540C1504.92,-531.85 1504.92,-523.06 1504.92,-514.54"/>
<polygon fill="black" stroke="black" points="1508.42,-514.33 1504.92,-504.33 1501.42,-514.33 1508.42,-514.33"/>
</g>
<!-- action:
 screw(left_hand, clampgripper, lampbulb, lampbase) -->
<g id="node21" class="node">
<title>action:
 screw(left_hand, clampgripper, lampbulb, lampbase)</title>
<ellipse fill="lightgreen" stroke="black" cx="2161.92" cy="-468" rx="335.32" ry="36"/>
<text text-anchor="middle" x="2161.92" y="-473.6" font-family="Times,serif" font-size="18.00">action:</text>
<text text-anchor="middle" x="2161.92" y="-453.6" font-family="Times,serif" font-size="18.00"> screw(left_hand, clampgripper, lampbulb, lampbase)</text>
</g>
<!-- sequence:
 screw(left_hand, clampgripper, lampbulb, lampbase)&#45;&gt;action:
 screw(left_hand, clampgripper, lampbulb, lampbase) -->
<g id="edge20" class="edge">
<title>sequence:
 screw(left_hand, clampgripper, lampbulb, lampbase)&#45;&gt;action:
 screw(left_hand, clampgripper, lampbulb, lampbase)</title>
<path fill="none" stroke="black" d="M1721.86,-540C1802.15,-527.04 1892.53,-512.46 1970.4,-499.9"/>
<polygon fill="black" stroke="black" points="1971.01,-503.35 1980.32,-498.3 1969.89,-496.44 1971.01,-503.35"/>
</g>
<!-- target:
 hold(left_hand, clampgripper) -->
<g id="node5" class="node">
<title>target:
 hold(left_hand, clampgripper)</title>
<ellipse fill="#ffec8b" stroke="black" cx="309.92" cy="-360" rx="196.6" ry="36"/>
<text text-anchor="middle" x="309.92" y="-365.6" font-family="Times,serif" font-size="18.00">target:</text>
<text text-anchor="middle" x="309.92" y="-345.6" font-family="Times,serif" font-size="18.00"> hold(left_hand, clampgripper)</text>
</g>
<!-- selector:
 change_tool(left_hand, inwardgripper, clampgripper)&#45;&gt;target:
 hold(left_hand, clampgripper) -->
<g id="edge4" class="edge">
<title>selector:
 change_tool(left_hand, inwardgripper, clampgripper)&#45;&gt;target:
 hold(left_hand, clampgripper)</title>
<path fill="none" stroke="black" d="M622.01,-432.14C563.33,-418.77 496.96,-403.64 440.55,-390.78"/>
<polygon fill="black" stroke="black" points="441.03,-387.3 430.5,-388.49 439.47,-394.12 441.03,-387.3"/>
</g>
<!-- sequence:
 change_tool(left_hand, inwardgripper, clampgripper) -->
<g id="node6" class="node">
<title>sequence:
 change_tool(left_hand, inwardgripper, clampgripper)</title>
<polygon fill="#ff7f24" stroke="black" points="1025.42,-396 524.42,-396 524.42,-324 1025.42,-324 1025.42,-396"/>
<text text-anchor="middle" x="774.92" y="-365.6" font-family="Times,serif" font-size="18.00">sequence:</text>
<text text-anchor="middle" x="774.92" y="-345.6" font-family="Times,serif" font-size="18.00"> change_tool(left_hand, inwardgripper, clampgripper)</text>
</g>
<!-- selector:
 change_tool(left_hand, inwardgripper, clampgripper)&#45;&gt;sequence:
 change_tool(left_hand, inwardgripper, clampgripper) -->
<g id="edge5" class="edge">
<title>selector:
 change_tool(left_hand, inwardgripper, clampgripper)&#45;&gt;sequence:
 change_tool(left_hand, inwardgripper, clampgripper)</title>
<path fill="none" stroke="black" d="M774.92,-432C774.92,-423.85 774.92,-415.06 774.92,-406.54"/>
<polygon fill="black" stroke="black" points="778.42,-406.33 774.92,-396.33 771.42,-406.33 778.42,-406.33"/>
</g>
<!-- precondition:
 hold(left_hand, inwardgripper) -->
<g id="node7" class="node">
<title>precondition:
 hold(left_hand, inwardgripper)</title>
<ellipse fill="#ffec8b" stroke="black" cx="201.92" cy="-252" rx="201.83" ry="36"/>
<text text-anchor="middle" x="201.92" y="-257.6" font-family="Times,serif" font-size="18.00">precondition:</text>
<text text-anchor="middle" x="201.92" y="-237.6" font-family="Times,serif" font-size="18.00"> hold(left_hand, inwardgripper)</text>
</g>
<!-- sequence:
 change_tool(left_hand, inwardgripper, clampgripper)&#45;&gt;precondition:
 hold(left_hand, inwardgripper) -->
<g id="edge6" class="edge">
<title>sequence:
 change_tool(left_hand, inwardgripper, clampgripper)&#45;&gt;precondition:
 hold(left_hand, inwardgripper)</title>
<path fill="none" stroke="black" d="M585.71,-324C508.81,-309.77 421.3,-293.58 349.28,-280.26"/>
<polygon fill="black" stroke="black" points="349.69,-276.78 339.22,-278.4 348.42,-283.66 349.69,-276.78"/>
</g>
<!-- selector:
 put_down(left_hand, inwardgripper, designring) -->
<g id="node8" class="node">
<title>selector:
 put_down(left_hand, inwardgripper, designring)</title>
<polygon fill="#8deeee" stroke="black" points="1082.16,-237.09 1082.16,-266.91 888.71,-288 615.13,-288 421.67,-266.91 421.67,-237.09 615.13,-216 888.71,-216 1082.16,-237.09"/>
<text text-anchor="middle" x="751.92" y="-257.6" font-family="Times,serif" font-size="18.00">selector:</text>
<text text-anchor="middle" x="751.92" y="-237.6" font-family="Times,serif" font-size="18.00"> put_down(left_hand, inwardgripper, designring)</text>
</g>
<!-- sequence:
 change_tool(left_hand, inwardgripper, clampgripper)&#45;&gt;selector:
 put_down(left_hand, inwardgripper, designring) -->
<g id="edge7" class="edge">
<title>sequence:
 change_tool(left_hand, inwardgripper, clampgripper)&#45;&gt;selector:
 put_down(left_hand, inwardgripper, designring)</title>
<path fill="none" stroke="black" d="M767.32,-324C765.54,-315.76 763.61,-306.87 761.74,-298.26"/>
<polygon fill="black" stroke="black" points="765.12,-297.36 759.58,-288.33 758.28,-298.84 765.12,-297.36"/>
</g>
<!-- action:
 change_tool(left_hand, inwardgripper, clampgripper) -->
<g id="node14" class="node">
<title>action:
 change_tool(left_hand, inwardgripper, clampgripper)</title>
<ellipse fill="lightgreen" stroke="black" cx="1435.92" cy="-252" rx="336.16" ry="36"/>
<text text-anchor="middle" x="1435.92" y="-257.6" font-family="Times,serif" font-size="18.00">action:</text>
<text text-anchor="middle" x="1435.92" y="-237.6" font-family="Times,serif" font-size="18.00"> change_tool(left_hand, inwardgripper, clampgripper)</text>
</g>
<!-- sequence:
 change_tool(left_hand, inwardgripper, clampgripper)&#45;&gt;action:
 change_tool(left_hand, inwardgripper, clampgripper) -->
<g id="edge13" class="edge">
<title>sequence:
 change_tool(left_hand, inwardgripper, clampgripper)&#45;&gt;action:
 change_tool(left_hand, inwardgripper, clampgripper)</title>
<path fill="none" stroke="black" d="M993.18,-324C1074.05,-311.03 1165.1,-296.43 1243.5,-283.86"/>
<polygon fill="black" stroke="black" points="1244.17,-287.29 1253.49,-282.26 1243.06,-280.38 1244.17,-287.29"/>
</g>
<!-- target:
 is_empty(inwardgripper) -->
<g id="node9" class="node">
<title>target:
 is_empty(inwardgripper)</title>
<ellipse fill="#ffec8b" stroke="black" cx="546.92" cy="-144" rx="165.89" ry="36"/>
<text text-anchor="middle" x="546.92" y="-149.6" font-family="Times,serif" font-size="18.00">target:</text>
<text text-anchor="middle" x="546.92" y="-129.6" font-family="Times,serif" font-size="18.00"> is_empty(inwardgripper)</text>
</g>
<!-- selector:
 put_down(left_hand, inwardgripper, designring)&#45;&gt;target:
 is_empty(inwardgripper) -->
<g id="edge8" class="edge">
<title>selector:
 put_down(left_hand, inwardgripper, designring)&#45;&gt;target:
 is_empty(inwardgripper)</title>
<path fill="none" stroke="black" d="M684.22,-216C663.2,-205.13 639.96,-193.11 618.68,-182.1"/>
<polygon fill="black" stroke="black" points="620.17,-178.94 609.68,-177.46 616.96,-185.16 620.17,-178.94"/>
</g>
<!-- sequence:
 put_down(left_hand, inwardgripper, designring) -->
<g id="node10" class="node">
<title>sequence:
 put_down(left_hand, inwardgripper, designring)</title>
<polygon fill="#ff7f24" stroke="black" points="1185.42,-180 730.42,-180 730.42,-108 1185.42,-108 1185.42,-180"/>
<text text-anchor="middle" x="957.92" y="-149.6" font-family="Times,serif" font-size="18.00">sequence:</text>
<text text-anchor="middle" x="957.92" y="-129.6" font-family="Times,serif" font-size="18.00"> put_down(left_hand, inwardgripper, designring)</text>
</g>
<!-- selector:
 put_down(left_hand, inwardgripper, designring)&#45;&gt;sequence:
 put_down(left_hand, inwardgripper, designring) -->
<g id="edge9" class="edge">
<title>selector:
 put_down(left_hand, inwardgripper, designring)&#45;&gt;sequence:
 put_down(left_hand, inwardgripper, designring)</title>
<path fill="none" stroke="black" d="M819.94,-216C839.35,-206.01 860.64,-195.05 880.57,-184.8"/>
<polygon fill="black" stroke="black" points="882.32,-187.83 889.61,-180.15 879.12,-181.61 882.32,-187.83"/>
</g>
<!-- &quot;precondition:\n hold(left_hand, inwardgripper)&quot;* -->
<g id="node11" class="node">
<title>&quot;precondition:\n hold(left_hand, inwardgripper)&quot;*</title>
<ellipse fill="#ffec8b" stroke="black" cx="517.92" cy="-36" rx="213.14" ry="36"/>
<text text-anchor="middle" x="517.92" y="-41.6" font-family="Times,serif" font-size="18.00">&quot;precondition:</text>
<text text-anchor="middle" x="517.92" y="-21.6" font-family="Times,serif" font-size="18.00"> hold(left_hand, inwardgripper)&quot;*</text>
</g>
<!-- sequence:
 put_down(left_hand, inwardgripper, designring)&#45;&gt;&quot;precondition:\n hold(left_hand, inwardgripper)&quot;* -->
<g id="edge10" class="edge">
<title>sequence:
 put_down(left_hand, inwardgripper, designring)&#45;&gt;&quot;precondition:\n hold(left_hand, inwardgripper)&quot;*</title>
<path fill="none" stroke="black" d="M812.63,-108C759.36,-95.17 699.47,-80.74 647.65,-68.25"/>
<polygon fill="black" stroke="black" points="648.28,-64.81 637.74,-65.87 646.64,-71.61 648.28,-64.81"/>
</g>
<!-- precondition:
 hold(inwardgripper, designring) -->
<g id="node12" class="node">
<title>precondition:
 hold(inwardgripper, designring)</title>
<ellipse fill="#ffec8b" stroke="black" cx="957.92" cy="-36" rx="208.75" ry="36"/>
<text text-anchor="middle" x="957.92" y="-41.6" font-family="Times,serif" font-size="18.00">precondition:</text>
<text text-anchor="middle" x="957.92" y="-21.6" font-family="Times,serif" font-size="18.00"> hold(inwardgripper, designring)</text>
</g>
<!-- sequence:
 put_down(left_hand, inwardgripper, designring)&#45;&gt;precondition:
 hold(inwardgripper, designring) -->
<g id="edge11" class="edge">
<title>sequence:
 put_down(left_hand, inwardgripper, designring)&#45;&gt;precondition:
 hold(inwardgripper, designring)</title>
<path fill="none" stroke="black" d="M957.92,-108C957.92,-99.85 957.92,-91.06 957.92,-82.54"/>
<polygon fill="black" stroke="black" points="961.42,-82.33 957.92,-72.33 954.42,-82.33 961.42,-82.33"/>
</g>
<!-- action:
 put_down(left_hand, inwardgripper, designring) -->
<g id="node13" class="node">
<title>action:
 put_down(left_hand, inwardgripper, designring)</title>
<ellipse fill="lightgreen" stroke="black" cx="1489.92" cy="-36" rx="305.45" ry="36"/>
<text text-anchor="middle" x="1489.92" y="-41.6" font-family="Times,serif" font-size="18.00">action:</text>
<text text-anchor="middle" x="1489.92" y="-21.6" font-family="Times,serif" font-size="18.00"> put_down(left_hand, inwardgripper, designring)</text>
</g>
<!-- sequence:
 put_down(left_hand, inwardgripper, designring)&#45;&gt;action:
 put_down(left_hand, inwardgripper, designring) -->
<g id="edge12" class="edge">
<title>sequence:
 put_down(left_hand, inwardgripper, designring)&#45;&gt;action:
 put_down(left_hand, inwardgripper, designring)</title>
<path fill="none" stroke="black" d="M1133.59,-108C1196.23,-95.52 1266.46,-81.52 1327.9,-69.28"/>
<polygon fill="black" stroke="black" points="1328.95,-72.64 1338.08,-67.25 1327.59,-65.78 1328.95,-72.64"/>
</g>
<!-- target:
 hold(clampgripper, lampbulb) -->
<g id="node16" class="node">
<title>target:
 hold(clampgripper, lampbulb)</title>
<ellipse fill="#ffec8b" stroke="black" cx="1504.92" cy="-360" rx="195.42" ry="36"/>
<text text-anchor="middle" x="1504.92" y="-365.6" font-family="Times,serif" font-size="18.00">target:</text>
<text text-anchor="middle" x="1504.92" y="-345.6" font-family="Times,serif" font-size="18.00"> hold(clampgripper, lampbulb)</text>
</g>
<!-- selector:
 pick_up(left_hand, clampgripper, lampbulb)&#45;&gt;target:
 hold(clampgripper, lampbulb) -->
<g id="edge15" class="edge">
<title>selector:
 pick_up(left_hand, clampgripper, lampbulb)&#45;&gt;target:
 hold(clampgripper, lampbulb)</title>
<path fill="none" stroke="black" d="M1504.92,-432C1504.92,-423.85 1504.92,-415.06 1504.92,-406.54"/>
<polygon fill="black" stroke="black" points="1508.42,-406.33 1504.92,-396.33 1501.42,-406.33 1508.42,-406.33"/>
</g>
<!-- sequence:
 pick_up(left_hand, clampgripper, lampbulb) -->
<g id="node17" class="node">
<title>sequence:
 pick_up(left_hand, clampgripper, lampbulb)</title>
<polygon fill="#ff7f24" stroke="black" points="2345.92,-396 1927.92,-396 1927.92,-324 2345.92,-324 2345.92,-396"/>
<text text-anchor="middle" x="2136.92" y="-365.6" font-family="Times,serif" font-size="18.00">sequence:</text>
<text text-anchor="middle" x="2136.92" y="-345.6" font-family="Times,serif" font-size="18.00"> pick_up(left_hand, clampgripper, lampbulb)</text>
</g>
<!-- selector:
 pick_up(left_hand, clampgripper, lampbulb)&#45;&gt;sequence:
 pick_up(left_hand, clampgripper, lampbulb) -->
<g id="edge16" class="edge">
<title>selector:
 pick_up(left_hand, clampgripper, lampbulb)&#45;&gt;sequence:
 pick_up(left_hand, clampgripper, lampbulb)</title>
<path fill="none" stroke="black" d="M1679.29,-437.75C1753.13,-425.37 1839.98,-410.8 1918.07,-397.71"/>
<polygon fill="black" stroke="black" points="1918.75,-401.14 1928.04,-396.03 1917.6,-394.24 1918.75,-401.14"/>
</g>
<!-- precondition:
 is_empty(clampgripper) -->
<g id="node18" class="node">
<title>precondition:
 is_empty(clampgripper)</title>
<ellipse fill="#ffec8b" stroke="black" cx="1949.92" cy="-252" rx="160.15" ry="36"/>
<text text-anchor="middle" x="1949.92" y="-257.6" font-family="Times,serif" font-size="18.00">precondition:</text>
<text text-anchor="middle" x="1949.92" y="-237.6" font-family="Times,serif" font-size="18.00"> is_empty(clampgripper)</text>
</g>
<!-- sequence:
 pick_up(left_hand, clampgripper, lampbulb)&#45;&gt;precondition:
 is_empty(clampgripper) -->
<g id="edge17" class="edge">
<title>sequence:
 pick_up(left_hand, clampgripper, lampbulb)&#45;&gt;precondition:
 is_empty(clampgripper)</title>
<path fill="none" stroke="black" d="M2075.17,-324C2056.34,-313.33 2035.56,-301.55 2016.44,-290.71"/>
<polygon fill="black" stroke="black" points="2017.91,-287.52 2007.49,-285.63 2014.46,-293.61 2017.91,-287.52"/>
</g>
<!-- precondition:
 hold(left_hand, clampgripper) -->
<g id="node19" class="node">
<title>precondition:
 hold(left_hand, clampgripper)</title>
<ellipse fill="#ffec8b" stroke="black" cx="2324.92" cy="-252" rx="196.6" ry="36"/>
<text text-anchor="middle" x="2324.92" y="-257.6" font-family="Times,serif" font-size="18.00">precondition:</text>
<text text-anchor="middle" x="2324.92" y="-237.6" font-family="Times,serif" font-size="18.00"> hold(left_hand, clampgripper)</text>
</g>
<!-- sequence:
 pick_up(left_hand, clampgripper, lampbulb)&#45;&gt;precondition:
 hold(left_hand, clampgripper) -->
<g id="edge18" class="edge">
<title>sequence:
 pick_up(left_hand, clampgripper, lampbulb)&#45;&gt;precondition:
 hold(left_hand, clampgripper)</title>
<path fill="none" stroke="black" d="M2199,-324C2217.55,-313.53 2238,-302.01 2256.91,-291.34"/>
<polygon fill="black" stroke="black" points="2258.78,-294.31 2265.77,-286.35 2255.34,-288.21 2258.78,-294.31"/>
</g>
<!-- action:
 pick_up(left_hand, clampgripper, lampbulb) -->
<g id="node20" class="node">
<title>action:
 pick_up(left_hand, clampgripper, lampbulb)</title>
<ellipse fill="lightgreen" stroke="black" cx="2819.92" cy="-252" rx="280.31" ry="36"/>
<text text-anchor="middle" x="2819.92" y="-257.6" font-family="Times,serif" font-size="18.00">action:</text>
<text text-anchor="middle" x="2819.92" y="-237.6" font-family="Times,serif" font-size="18.00"> pick_up(left_hand, clampgripper, lampbulb)</text>
</g>
<!-- sequence:
 pick_up(left_hand, clampgripper, lampbulb)&#45;&gt;action:
 pick_up(left_hand, clampgripper, lampbulb) -->
<g id="edge19" class="edge">
<title>sequence:
 pick_up(left_hand, clampgripper, lampbulb)&#45;&gt;action:
 pick_up(left_hand, clampgripper, lampbulb)</title>
<path fill="none" stroke="black" d="M2346.02,-326.55C2438.26,-312.23 2545.75,-295.55 2635.02,-281.7"/>
<polygon fill="black" stroke="black" points="2635.64,-285.14 2644.98,-280.15 2634.56,-278.22 2635.64,-285.14"/>
</g>
</g>
</svg>
