<?xml version="1.0" encoding="UTF-8" standalone="no"?>
<!DOCTYPE svg PUBLIC "-//W3C//DTD SVG 1.1//EN"
 "http://www.w3.org/Graphics/SVG/1.1/DTD/svg11.dtd">
<!-- Generated by graphviz version 2.43.0 (0)
 -->
<!-- Title: pastafarianism Pages: 1 -->
<svg width="2445pt" height="513pt"
 viewBox="0.00 0.00 2444.89 513.48" xmlns="http://www.w3.org/2000/svg" xmlns:xlink="http://www.w3.org/1999/xlink">
<g id="graph0" class="graph" transform="scale(1 1) rotate(0) translate(4 509.48)">
<title>pastafarianism</title>
<polygon fill="white" stroke="transparent" points="-4,4 -4,-509.48 2440.89,-509.48 2440.89,4 -4,4"/>
<!-- selector:
 insert(left_hand, defaultgripper, gear3, shaft3) -->
<g id="node1" class="node">
<title>selector:
 insert(left_hand, defaultgripper, gear3, shaft3)</title>
<polygon fill="#8deeee" stroke="black" points="1465.26,-453.42 1465.26,-484.05 1265.7,-505.71 983.47,-505.71 783.91,-484.05 783.91,-453.42 983.47,-431.76 1265.7,-431.76 1465.26,-453.42"/>
<text text-anchor="middle" x="1124.59" y="-474.34" font-family="Times,serif" font-size="18.00">selector:</text>
<text text-anchor="middle" x="1124.59" y="-454.34" font-family="Times,serif" font-size="18.00"> insert(left_hand, defaultgripper, gear3, shaft3)</text>
</g>
<!-- target:
 is_inserted_to(gear3, shaft3) -->
<g id="node2" class="node">
<title>target:
 is_inserted_to(gear3, shaft3)</title>
<ellipse fill="#ffec8b" stroke="black" cx="910.59" cy="-360" rx="188.5" ry="36"/>
<text text-anchor="middle" x="910.59" y="-365.6" font-family="Times,serif" font-size="18.00">target:</text>
<text text-anchor="middle" x="910.59" y="-345.6" font-family="Times,serif" font-size="18.00"> is_inserted_to(gear3, shaft3)</text>
</g>
<!-- selector:
 insert(left_hand, defaultgripper, gear3, shaft3)&#45;&gt;target:
 is_inserted_to(gear3, shaft3) -->
<g id="edge1" class="edge">
<title>selector:
 insert(left_hand, defaultgripper, gear3, shaft3)&#45;&gt;target:
 is_inserted_to(gear3, shaft3)</title>
<path fill="none" stroke="black" d="M1052.73,-431.9C1031.17,-421.14 1007.45,-409.31 985.68,-398.46"/>
<polygon fill="black" stroke="black" points="986.99,-395.2 976.48,-393.87 983.87,-401.46 986.99,-395.2"/>
</g>
<!-- sequence:
 insert(left_hand, defaultgripper, gear3, shaft3) -->
<g id="node3" class="node">
<title>sequence:
 insert(left_hand, defaultgripper, gear3, shaft3)</title>
<polygon fill="#ff7f24" stroke="black" points="1562.09,-396 1117.09,-396 1117.09,-324 1562.09,-324 1562.09,-396"/>
<text text-anchor="middle" x="1339.59" y="-365.6" font-family="Times,serif" font-size="18.00">sequence:</text>
<text text-anchor="middle" x="1339.59" y="-345.6" font-family="Times,serif" font-size="18.00"> insert(left_hand, defaultgripper, gear3, shaft3)</text>
</g>
<!-- selector:
 insert(left_hand, defaultgripper, gear3, shaft3)&#45;&gt;sequence:
 insert(left_hand, defaultgripper, gear3, shaft3) -->
<g id="edge2" class="edge">
<title>selector:
 insert(left_hand, defaultgripper, gear3, shaft3)&#45;&gt;sequence:
 insert(left_hand, defaultgripper, gear3, shaft3)</title>
<path fill="none" stroke="black" d="M1196.78,-431.9C1217.07,-421.82 1239.26,-410.81 1259.96,-400.53"/>
<polygon fill="black" stroke="black" points="1261.65,-403.6 1269.05,-396.02 1258.53,-397.33 1261.65,-403.6"/>
</g>
<!-- selector:
 change_tool(left_hand, clampgripper, defaultgripper) -->
<g id="node4" class="node">
<title>selector:
 change_tool(left_hand, clampgripper, defaultgripper)</title>
<polygon fill="#8deeee" stroke="black" points="1035.08,-237.09 1035.08,-266.91 821.57,-288 519.61,-288 306.09,-266.91 306.09,-237.09 519.61,-216 821.57,-216 1035.08,-237.09"/>
<text text-anchor="middle" x="670.59" y="-257.6" font-family="Times,serif" font-size="18.00">selector:</text>
<text text-anchor="middle" x="670.59" y="-237.6" font-family="Times,serif" font-size="18.00"> change_tool(left_hand, clampgripper, defaultgripper)</text>
</g>
<!-- sequence:
 insert(left_hand, defaultgripper, gear3, shaft3)&#45;&gt;selector:
 change_tool(left_hand, clampgripper, defaultgripper) -->
<g id="edge3" class="edge">
<title>sequence:
 insert(left_hand, defaultgripper, gear3, shaft3)&#45;&gt;selector:
 change_tool(left_hand, clampgripper, defaultgripper)</title>
<path fill="none" stroke="black" d="M1118.68,-324C1040.18,-311.56 952.22,-297.62 875.15,-285.41"/>
<polygon fill="black" stroke="black" points="875.26,-281.89 864.84,-283.78 874.17,-288.8 875.26,-281.89"/>
</g>
<!-- selector:
 pick_up(left_hand, defaultgripper, gear3) -->
<g id="node10" class="node">
<title>selector:
 pick_up(left_hand, defaultgripper, gear3)</title>
<polygon fill="#8deeee" stroke="black" points="1625.75,-237.09 1625.75,-266.91 1458.12,-288 1221.06,-288 1053.43,-266.91 1053.43,-237.09 1221.06,-216 1458.12,-216 1625.75,-237.09"/>
<text text-anchor="middle" x="1339.59" y="-257.6" font-family="Times,serif" font-size="18.00">selector:</text>
<text text-anchor="middle" x="1339.59" y="-237.6" font-family="Times,serif" font-size="18.00"> pick_up(left_hand, defaultgripper, gear3)</text>
</g>
<!-- sequence:
 insert(left_hand, defaultgripper, gear3, shaft3)&#45;&gt;selector:
 pick_up(left_hand, defaultgripper, gear3) -->
<g id="edge9" class="edge">
<title>sequence:
 insert(left_hand, defaultgripper, gear3, shaft3)&#45;&gt;selector:
 pick_up(left_hand, defaultgripper, gear3)</title>
<path fill="none" stroke="black" d="M1339.59,-324C1339.59,-315.85 1339.59,-307.06 1339.59,-298.54"/>
<polygon fill="black" stroke="black" points="1343.09,-298.33 1339.59,-288.33 1336.09,-298.33 1343.09,-298.33"/>
</g>
<!-- action:
 insert(left_hand, defaultgripper, gear3, shaft3) -->
<g id="node15" class="node">
<title>action:
 insert(left_hand, defaultgripper, gear3, shaft3)</title>
<ellipse fill="lightgreen" stroke="black" cx="1942.59" cy="-252" rx="298.53" ry="36"/>
<text text-anchor="middle" x="1942.59" y="-257.6" font-family="Times,serif" font-size="18.00">action:</text>
<text text-anchor="middle" x="1942.59" y="-237.6" font-family="Times,serif" font-size="18.00"> insert(left_hand, defaultgripper, gear3, shaft3)</text>
</g>
<!-- sequence:
 insert(left_hand, defaultgripper, gear3, shaft3)&#45;&gt;action:
 insert(left_hand, defaultgripper, gear3, shaft3) -->
<g id="edge14" class="edge">
<title>sequence:
 insert(left_hand, defaultgripper, gear3, shaft3)&#45;&gt;action:
 insert(left_hand, defaultgripper, gear3, shaft3)</title>
<path fill="none" stroke="black" d="M1538.7,-324C1612.59,-311.01 1695.78,-296.39 1767.37,-283.8"/>
<polygon fill="black" stroke="black" points="1768.15,-287.22 1777.39,-282.04 1766.94,-280.32 1768.15,-287.22"/>
</g>
<!-- target:
 hold(left_hand, defaultgripper) -->
<g id="node5" class="node">
<title>target:
 hold(left_hand, defaultgripper)</title>
<ellipse fill="#ffec8b" stroke="black" cx="202.59" cy="-144" rx="202.68" ry="36"/>
<text text-anchor="middle" x="202.59" y="-149.6" font-family="Times,serif" font-size="18.00">target:</text>
<text text-anchor="middle" x="202.59" y="-129.6" font-family="Times,serif" font-size="18.00"> hold(left_hand, defaultgripper)</text>
</g>
<!-- selector:
 change_tool(left_hand, clampgripper, defaultgripper)&#45;&gt;target:
 hold(left_hand, defaultgripper) -->
<g id="edge4" class="edge">
<title>selector:
 change_tool(left_hand, clampgripper, defaultgripper)&#45;&gt;target:
 hold(left_hand, defaultgripper)</title>
<path fill="none" stroke="black" d="M517.02,-216.22C458.32,-202.92 391.93,-187.88 335.33,-175.07"/>
<polygon fill="black" stroke="black" points="335.77,-171.58 325.24,-172.78 334.22,-178.4 335.77,-171.58"/>
</g>
<!-- sequence:
 change_tool(left_hand, clampgripper, defaultgripper) -->
<g id="node6" class="node">
<title>sequence:
 change_tool(left_hand, clampgripper, defaultgripper)</title>
<polygon fill="#ff7f24" stroke="black" points="925.59,-180 423.59,-180 423.59,-108 925.59,-108 925.59,-180"/>
<text text-anchor="middle" x="674.59" y="-149.6" font-family="Times,serif" font-size="18.00">sequence:</text>
<text text-anchor="middle" x="674.59" y="-129.6" font-family="Times,serif" font-size="18.00"> change_tool(left_hand, clampgripper, defaultgripper)</text>
</g>
<!-- selector:
 change_tool(left_hand, clampgripper, defaultgripper)&#45;&gt;sequence:
 change_tool(left_hand, clampgripper, defaultgripper) -->
<g id="edge5" class="edge">
<title>selector:
 change_tool(left_hand, clampgripper, defaultgripper)&#45;&gt;sequence:
 change_tool(left_hand, clampgripper, defaultgripper)</title>
<path fill="none" stroke="black" d="M671.91,-216C672.22,-207.85 672.55,-199.06 672.87,-190.54"/>
<polygon fill="black" stroke="black" points="676.37,-190.45 673.25,-180.33 669.38,-190.19 676.37,-190.45"/>
</g>
<!-- precondition:
 hold(left_hand, clampgripper) -->
<g id="node7" class="node">
<title>precondition:
 hold(left_hand, clampgripper)</title>
<ellipse fill="#ffec8b" stroke="black" cx="299.59" cy="-36" rx="196.6" ry="36"/>
<text text-anchor="middle" x="299.59" y="-41.6" font-family="Times,serif" font-size="18.00">precondition:</text>
<text text-anchor="middle" x="299.59" y="-21.6" font-family="Times,serif" font-size="18.00"> hold(left_hand, clampgripper)</text>
</g>
<!-- sequence:
 change_tool(left_hand, clampgripper, defaultgripper)&#45;&gt;precondition:
 hold(left_hand, clampgripper) -->
<g id="edge6" class="edge">
<title>sequence:
 change_tool(left_hand, clampgripper, defaultgripper)&#45;&gt;precondition:
 hold(left_hand, clampgripper)</title>
<path fill="none" stroke="black" d="M550.76,-108C506.63,-95.52 457.16,-81.54 413.87,-69.3"/>
<polygon fill="black" stroke="black" points="414.73,-65.91 404.16,-66.56 412.83,-72.65 414.73,-65.91"/>
</g>
<!-- precondition:
 is_empty(clampgripper) -->
<g id="node8" class="node">
<title>precondition:
 is_empty(clampgripper)</title>
<ellipse fill="#ffec8b" stroke="black" cx="674.59" cy="-36" rx="160.15" ry="36"/>
<text text-anchor="middle" x="674.59" y="-41.6" font-family="Times,serif" font-size="18.00">precondition:</text>
<text text-anchor="middle" x="674.59" y="-21.6" font-family="Times,serif" font-size="18.00"> is_empty(clampgripper)</text>
</g>
<!-- sequence:
 change_tool(left_hand, clampgripper, defaultgripper)&#45;&gt;precondition:
 is_empty(clampgripper) -->
<g id="edge7" class="edge">
<title>sequence:
 change_tool(left_hand, clampgripper, defaultgripper)&#45;&gt;precondition:
 is_empty(clampgripper)</title>
<path fill="none" stroke="black" d="M674.59,-108C674.59,-99.85 674.59,-91.06 674.59,-82.54"/>
<polygon fill="black" stroke="black" points="678.09,-82.33 674.59,-72.33 671.09,-82.33 678.09,-82.33"/>
</g>
<!-- action:
 change_tool(left_hand, clampgripper, defaultgripper) -->
<g id="node9" class="node">
<title>action:
 change_tool(left_hand, clampgripper, defaultgripper)</title>
<ellipse fill="lightgreen" stroke="black" cx="1189.59" cy="-36" rx="336.5" ry="36"/>
<text text-anchor="middle" x="1189.59" y="-41.6" font-family="Times,serif" font-size="18.00">action:</text>
<text text-anchor="middle" x="1189.59" y="-21.6" font-family="Times,serif" font-size="18.00"> change_tool(left_hand, clampgripper, defaultgripper)</text>
</g>
<!-- sequence:
 change_tool(left_hand, clampgripper, defaultgripper)&#45;&gt;action:
 change_tool(left_hand, clampgripper, defaultgripper) -->
<g id="edge8" class="edge">
<title>sequence:
 change_tool(left_hand, clampgripper, defaultgripper)&#45;&gt;action:
 change_tool(left_hand, clampgripper, defaultgripper)</title>
<path fill="none" stroke="black" d="M844.65,-108C903.64,-95.86 969.58,-82.28 1027.88,-70.28"/>
<polygon fill="black" stroke="black" points="1028.83,-73.66 1037.92,-68.22 1027.42,-66.81 1028.83,-73.66"/>
</g>
<!-- target:
 hold(defaultgripper, gear3) -->
<g id="node11" class="node">
<title>target:
 hold(defaultgripper, gear3)</title>
<ellipse fill="#ffec8b" stroke="black" cx="1332.59" cy="-144" rx="179.22" ry="36"/>
<text text-anchor="middle" x="1332.59" y="-149.6" font-family="Times,serif" font-size="18.00">target:</text>
<text text-anchor="middle" x="1332.59" y="-129.6" font-family="Times,serif" font-size="18.00"> hold(defaultgripper, gear3)</text>
</g>
<!-- selector:
 pick_up(left_hand, defaultgripper, gear3)&#45;&gt;target:
 hold(defaultgripper, gear3) -->
<g id="edge10" class="edge">
<title>selector:
 pick_up(left_hand, defaultgripper, gear3)&#45;&gt;target:
 hold(defaultgripper, gear3)</title>
<path fill="none" stroke="black" d="M1337.28,-216C1336.74,-207.85 1336.16,-199.06 1335.59,-190.54"/>
<polygon fill="black" stroke="black" points="1339.07,-190.08 1334.92,-180.33 1332.09,-190.54 1339.07,-190.08"/>
</g>
<!-- sequence:
 pick_up(left_hand, defaultgripper, gear3) -->
<g id="node12" class="node">
<title>sequence:
 pick_up(left_hand, defaultgripper, gear3)</title>
<polygon fill="#ff7f24" stroke="black" points="1923.59,-180 1529.59,-180 1529.59,-108 1923.59,-108 1923.59,-180"/>
<text text-anchor="middle" x="1726.59" y="-149.6" font-family="Times,serif" font-size="18.00">sequence:</text>
<text text-anchor="middle" x="1726.59" y="-129.6" font-family="Times,serif" font-size="18.00"> pick_up(left_hand, defaultgripper, gear3)</text>
</g>
<!-- selector:
 pick_up(left_hand, defaultgripper, gear3)&#45;&gt;sequence:
 pick_up(left_hand, defaultgripper, gear3) -->
<g id="edge11" class="edge">
<title>selector:
 pick_up(left_hand, defaultgripper, gear3)&#45;&gt;sequence:
 pick_up(left_hand, defaultgripper, gear3)</title>
<path fill="none" stroke="black" d="M1464.7,-216.73C1504.36,-205.87 1548.43,-193.8 1588.92,-182.71"/>
<polygon fill="black" stroke="black" points="1589.86,-186.08 1598.59,-180.06 1588.02,-179.33 1589.86,-186.08"/>
</g>
<!-- precondition:
 is_empty(defaultgripper) -->
<g id="node13" class="node">
<title>precondition:
 is_empty(defaultgripper)</title>
<ellipse fill="#ffec8b" stroke="black" cx="1723.59" cy="-36" rx="166.23" ry="36"/>
<text text-anchor="middle" x="1723.59" y="-41.6" font-family="Times,serif" font-size="18.00">precondition:</text>
<text text-anchor="middle" x="1723.59" y="-21.6" font-family="Times,serif" font-size="18.00"> is_empty(defaultgripper)</text>
</g>
<!-- sequence:
 pick_up(left_hand, defaultgripper, gear3)&#45;&gt;precondition:
 is_empty(defaultgripper) -->
<g id="edge12" class="edge">
<title>sequence:
 pick_up(left_hand, defaultgripper, gear3)&#45;&gt;precondition:
 is_empty(defaultgripper)</title>
<path fill="none" stroke="black" d="M1725.6,-108C1725.37,-99.85 1725.12,-91.06 1724.88,-82.54"/>
<polygon fill="black" stroke="black" points="1728.37,-82.22 1724.59,-72.33 1721.37,-82.42 1728.37,-82.22"/>
</g>
<!-- action:
 pick_up(left_hand, defaultgripper, gear3) -->
<g id="node14" class="node">
<title>action:
 pick_up(left_hand, defaultgripper, gear3)</title>
<ellipse fill="lightgreen" stroke="black" cx="2172.59" cy="-36" rx="264.11" ry="36"/>
<text text-anchor="middle" x="2172.59" y="-41.6" font-family="Times,serif" font-size="18.00">action:</text>
<text text-anchor="middle" x="2172.59" y="-21.6" font-family="Times,serif" font-size="18.00"> pick_up(left_hand, defaultgripper, gear3)</text>
</g>
<!-- sequence:
 pick_up(left_hand, defaultgripper, gear3)&#45;&gt;action:
 pick_up(left_hand, defaultgripper, gear3) -->
<g id="edge13" class="edge">
<title>sequence:
 pick_up(left_hand, defaultgripper, gear3)&#45;&gt;action:
 pick_up(left_hand, defaultgripper, gear3)</title>
<path fill="none" stroke="black" d="M1873.86,-108C1925.59,-95.7 1983.48,-81.94 2034.43,-69.84"/>
<polygon fill="black" stroke="black" points="2035.27,-73.23 2044.19,-67.52 2033.65,-66.42 2035.27,-73.23"/>
</g>
</g>
</svg>
