<?xml version="1.0" encoding="UTF-8" standalone="no"?>
<!DOCTYPE svg PUBLIC "-//W3C//DTD SVG 1.1//EN"
 "http://www.w3.org/Graphics/SVG/1.1/DTD/svg11.dtd">
<!-- Generated by graphviz version 2.43.0 (0)
 -->
<!-- Title: pastafarianism Pages: 1 -->
<svg width="2994pt" height="513pt"
 viewBox="0.00 0.00 2993.51 513.48" xmlns="http://www.w3.org/2000/svg" xmlns:xlink="http://www.w3.org/1999/xlink">
<g id="graph0" class="graph" transform="scale(1 1) rotate(0) translate(4 509.48)">
<title>pastafarianism</title>
<polygon fill="white" stroke="transparent" points="-4,4 -4,-509.48 2989.51,-509.48 2989.51,4 -4,4"/>
<!-- selector:
 place(left_hand, outwardgripper, lampshade, lampbulb) -->
<g id="node1" class="node">
<title>selector:
 place(left_hand, outwardgripper, lampshade, lampbulb)</title>
<polygon fill="#8deeee" stroke="black" points="1651.63,-453.42 1651.63,-484.05 1415.76,-505.71 1082.18,-505.71 846.3,-484.05 846.3,-453.42 1082.18,-431.76 1415.76,-431.76 1651.63,-453.42"/>
<text text-anchor="middle" x="1248.97" y="-474.34" font-family="Times,serif" font-size="18.00">selector:</text>
<text text-anchor="middle" x="1248.97" y="-454.34" font-family="Times,serif" font-size="18.00"> place(left_hand, outwardgripper, lampshade, lampbulb)</text>
</g>
<!-- target:
 is_placed_to(lampshade, lampbulb) -->
<g id="node2" class="node">
<title>target:
 is_placed_to(lampshade, lampbulb)</title>
<ellipse fill="#ffec8b" stroke="black" cx="993.97" cy="-360" rx="229" ry="36"/>
<text text-anchor="middle" x="993.97" y="-365.6" font-family="Times,serif" font-size="18.00">target:</text>
<text text-anchor="middle" x="993.97" y="-345.6" font-family="Times,serif" font-size="18.00"> is_placed_to(lampshade, lampbulb)</text>
</g>
<!-- selector:
 place(left_hand, outwardgripper, lampshade, lampbulb)&#45;&gt;target:
 is_placed_to(lampshade, lampbulb) -->
<g id="edge1" class="edge">
<title>selector:
 place(left_hand, outwardgripper, lampshade, lampbulb)&#45;&gt;target:
 is_placed_to(lampshade, lampbulb)</title>
<path fill="none" stroke="black" d="M1163.35,-431.9C1137.07,-420.9 1108.13,-408.79 1081.72,-397.73"/>
<polygon fill="black" stroke="black" points="1083.06,-394.5 1072.49,-393.87 1080.36,-400.96 1083.06,-394.5"/>
</g>
<!-- sequence:
 place(left_hand, outwardgripper, lampshade, lampbulb) -->
<g id="node3" class="node">
<title>sequence:
 place(left_hand, outwardgripper, lampshade, lampbulb)</title>
<polygon fill="#ff7f24" stroke="black" points="1766.97,-396 1240.97,-396 1240.97,-324 1766.97,-324 1766.97,-396"/>
<text text-anchor="middle" x="1503.97" y="-365.6" font-family="Times,serif" font-size="18.00">sequence:</text>
<text text-anchor="middle" x="1503.97" y="-345.6" font-family="Times,serif" font-size="18.00"> place(left_hand, outwardgripper, lampshade, lampbulb)</text>
</g>
<!-- selector:
 place(left_hand, outwardgripper, lampshade, lampbulb)&#45;&gt;sequence:
 place(left_hand, outwardgripper, lampshade, lampbulb) -->
<g id="edge2" class="edge">
<title>selector:
 place(left_hand, outwardgripper, lampshade, lampbulb)&#45;&gt;sequence:
 place(left_hand, outwardgripper, lampshade, lampbulb)</title>
<path fill="none" stroke="black" d="M1334.59,-431.9C1359.09,-421.64 1385.92,-410.41 1410.85,-399.98"/>
<polygon fill="black" stroke="black" points="1412.43,-403.11 1420.3,-396.02 1409.73,-396.65 1412.43,-403.11"/>
</g>
<!-- selector:
 change_tool(left_hand, parallelgripper, outwardgripper) -->
<g id="node4" class="node">
<title>selector:
 change_tool(left_hand, parallelgripper, outwardgripper)</title>
<polygon fill="#8deeee" stroke="black" points="1083.77,-237.09 1083.77,-266.91 859.53,-288 542.41,-288 318.17,-266.91 318.17,-237.09 542.41,-216 859.53,-216 1083.77,-237.09"/>
<text text-anchor="middle" x="700.97" y="-257.6" font-family="Times,serif" font-size="18.00">selector:</text>
<text text-anchor="middle" x="700.97" y="-237.6" font-family="Times,serif" font-size="18.00"> change_tool(left_hand, parallelgripper, outwardgripper)</text>
</g>
<!-- sequence:
 place(left_hand, outwardgripper, lampshade, lampbulb)&#45;&gt;selector:
 change_tool(left_hand, parallelgripper, outwardgripper) -->
<g id="edge3" class="edge">
<title>sequence:
 place(left_hand, outwardgripper, lampshade, lampbulb)&#45;&gt;selector:
 change_tool(left_hand, parallelgripper, outwardgripper)</title>
<path fill="none" stroke="black" d="M1240.76,-324.25C1141.15,-311.11 1028.62,-296.25 932.17,-283.52"/>
<polygon fill="black" stroke="black" points="932.36,-280.02 921.99,-282.18 931.45,-286.96 932.36,-280.02"/>
</g>
<!-- selector:
 pick_up(left_hand, outwardgripper, lampshade) -->
<g id="node10" class="node">
<title>selector:
 pick_up(left_hand, outwardgripper, lampshade)</title>
<polygon fill="#8deeee" stroke="black" points="1831.4,-237.09 1831.4,-266.91 1639.59,-288 1368.34,-288 1176.53,-266.91 1176.53,-237.09 1368.34,-216 1639.59,-216 1831.4,-237.09"/>
<text text-anchor="middle" x="1503.97" y="-257.6" font-family="Times,serif" font-size="18.00">selector:</text>
<text text-anchor="middle" x="1503.97" y="-237.6" font-family="Times,serif" font-size="18.00"> pick_up(left_hand, outwardgripper, lampshade)</text>
</g>
<!-- sequence:
 place(left_hand, outwardgripper, lampshade, lampbulb)&#45;&gt;selector:
 pick_up(left_hand, outwardgripper, lampshade) -->
<g id="edge9" class="edge">
<title>sequence:
 place(left_hand, outwardgripper, lampshade, lampbulb)&#45;&gt;selector:
 pick_up(left_hand, outwardgripper, lampshade)</title>
<path fill="none" stroke="black" d="M1503.97,-324C1503.97,-315.85 1503.97,-307.06 1503.97,-298.54"/>
<polygon fill="black" stroke="black" points="1507.47,-298.33 1503.97,-288.33 1500.47,-298.33 1507.47,-298.33"/>
</g>
<!-- action:
 place(left_hand, outwardgripper, lampshade, lampbulb) -->
<g id="node16" class="node">
<title>action:
 place(left_hand, outwardgripper, lampshade, lampbulb)</title>
<ellipse fill="lightgreen" stroke="black" cx="2201.97" cy="-252" rx="352.7" ry="36"/>
<text text-anchor="middle" x="2201.97" y="-257.6" font-family="Times,serif" font-size="18.00">action:</text>
<text text-anchor="middle" x="2201.97" y="-237.6" font-family="Times,serif" font-size="18.00"> place(left_hand, outwardgripper, lampshade, lampbulb)</text>
</g>
<!-- sequence:
 place(left_hand, outwardgripper, lampshade, lampbulb)&#45;&gt;action:
 place(left_hand, outwardgripper, lampshade, lampbulb) -->
<g id="edge15" class="edge">
<title>sequence:
 place(left_hand, outwardgripper, lampshade, lampbulb)&#45;&gt;action:
 place(left_hand, outwardgripper, lampshade, lampbulb)</title>
<path fill="none" stroke="black" d="M1734.45,-324C1820.12,-310.99 1916.59,-296.34 1999.56,-283.74"/>
<polygon fill="black" stroke="black" points="2000.25,-287.17 2009.61,-282.21 1999.2,-280.25 2000.25,-287.17"/>
</g>
<!-- target:
 hold(left_hand, outwardgripper) -->
<g id="node5" class="node">
<title>target:
 hold(left_hand, outwardgripper)</title>
<ellipse fill="#ffec8b" stroke="black" cx="209.97" cy="-144" rx="209.93" ry="36"/>
<text text-anchor="middle" x="209.97" y="-149.6" font-family="Times,serif" font-size="18.00">target:</text>
<text text-anchor="middle" x="209.97" y="-129.6" font-family="Times,serif" font-size="18.00"> hold(left_hand, outwardgripper)</text>
</g>
<!-- selector:
 change_tool(left_hand, parallelgripper, outwardgripper)&#45;&gt;target:
 hold(left_hand, outwardgripper) -->
<g id="edge4" class="edge">
<title>selector:
 change_tool(left_hand, parallelgripper, outwardgripper)&#45;&gt;target:
 hold(left_hand, outwardgripper)</title>
<path fill="none" stroke="black" d="M539.86,-216.22C477.75,-202.81 407.44,-187.63 347.73,-174.74"/>
<polygon fill="black" stroke="black" points="348.37,-171.3 337.86,-172.61 346.9,-178.14 348.37,-171.3"/>
</g>
<!-- sequence:
 change_tool(left_hand, parallelgripper, outwardgripper) -->
<g id="node6" class="node">
<title>sequence:
 change_tool(left_hand, parallelgripper, outwardgripper)</title>
<polygon fill="#ff7f24" stroke="black" points="964.47,-180 437.47,-180 437.47,-108 964.47,-108 964.47,-180"/>
<text text-anchor="middle" x="700.97" y="-149.6" font-family="Times,serif" font-size="18.00">sequence:</text>
<text text-anchor="middle" x="700.97" y="-129.6" font-family="Times,serif" font-size="18.00"> change_tool(left_hand, parallelgripper, outwardgripper)</text>
</g>
<!-- selector:
 change_tool(left_hand, parallelgripper, outwardgripper)&#45;&gt;sequence:
 change_tool(left_hand, parallelgripper, outwardgripper) -->
<g id="edge5" class="edge">
<title>selector:
 change_tool(left_hand, parallelgripper, outwardgripper)&#45;&gt;sequence:
 change_tool(left_hand, parallelgripper, outwardgripper)</title>
<path fill="none" stroke="black" d="M700.97,-216C700.97,-207.85 700.97,-199.06 700.97,-190.54"/>
<polygon fill="black" stroke="black" points="704.47,-190.33 700.97,-180.33 697.47,-190.33 704.47,-190.33"/>
</g>
<!-- precondition:
 hold(left_hand, parallelgripper) -->
<g id="node7" class="node">
<title>precondition:
 hold(left_hand, parallelgripper)</title>
<ellipse fill="#ffec8b" stroke="black" cx="269.97" cy="-36" rx="205.88" ry="36"/>
<text text-anchor="middle" x="269.97" y="-41.6" font-family="Times,serif" font-size="18.00">precondition:</text>
<text text-anchor="middle" x="269.97" y="-21.6" font-family="Times,serif" font-size="18.00"> hold(left_hand, parallelgripper)</text>
</g>
<!-- sequence:
 change_tool(left_hand, parallelgripper, outwardgripper)&#45;&gt;precondition:
 hold(left_hand, parallelgripper) -->
<g id="edge6" class="edge">
<title>sequence:
 change_tool(left_hand, parallelgripper, outwardgripper)&#45;&gt;precondition:
 hold(left_hand, parallelgripper)</title>
<path fill="none" stroke="black" d="M558.65,-108C506.24,-95.11 447.29,-80.61 396.38,-68.09"/>
<polygon fill="black" stroke="black" points="397.19,-64.68 386.64,-65.69 395.52,-71.48 397.19,-64.68"/>
</g>
<!-- precondition:
 is_empty(parallelgripper) -->
<g id="node8" class="node">
<title>precondition:
 is_empty(parallelgripper)</title>
<ellipse fill="#ffec8b" stroke="black" cx="663.97" cy="-36" rx="169.94" ry="36"/>
<text text-anchor="middle" x="663.97" y="-41.6" font-family="Times,serif" font-size="18.00">precondition:</text>
<text text-anchor="middle" x="663.97" y="-21.6" font-family="Times,serif" font-size="18.00"> is_empty(parallelgripper)</text>
</g>
<!-- sequence:
 change_tool(left_hand, parallelgripper, outwardgripper)&#45;&gt;precondition:
 is_empty(parallelgripper) -->
<g id="edge7" class="edge">
<title>sequence:
 change_tool(left_hand, parallelgripper, outwardgripper)&#45;&gt;precondition:
 is_empty(parallelgripper)</title>
<path fill="none" stroke="black" d="M688.75,-108C685.78,-99.5 682.57,-90.29 679.47,-81.42"/>
<polygon fill="black" stroke="black" points="682.77,-80.25 676.17,-71.97 676.16,-82.56 682.77,-80.25"/>
</g>
<!-- action:
 change_tool(left_hand, parallelgripper, outwardgripper) -->
<g id="node9" class="node">
<title>action:
 change_tool(left_hand, parallelgripper, outwardgripper)</title>
<ellipse fill="lightgreen" stroke="black" cx="1204.97" cy="-36" rx="353.54" ry="36"/>
<text text-anchor="middle" x="1204.97" y="-41.6" font-family="Times,serif" font-size="18.00">action:</text>
<text text-anchor="middle" x="1204.97" y="-21.6" font-family="Times,serif" font-size="18.00"> change_tool(left_hand, parallelgripper, outwardgripper)</text>
</g>
<!-- sequence:
 change_tool(left_hand, parallelgripper, outwardgripper)&#45;&gt;action:
 change_tool(left_hand, parallelgripper, outwardgripper) -->
<g id="edge8" class="edge">
<title>sequence:
 change_tool(left_hand, parallelgripper, outwardgripper)&#45;&gt;action:
 change_tool(left_hand, parallelgripper, outwardgripper)</title>
<path fill="none" stroke="black" d="M867.39,-108C924.33,-96.02 987.88,-82.66 1044.35,-70.78"/>
<polygon fill="black" stroke="black" points="1045.38,-74.14 1054.44,-68.66 1043.94,-67.29 1045.38,-74.14"/>
</g>
<!-- target:
 hold(outwardgripper, lampshade) -->
<g id="node11" class="node">
<title>target:
 hold(outwardgripper, lampshade)</title>
<ellipse fill="#ffec8b" stroke="black" cx="1503.97" cy="-144" rx="217.19" ry="36"/>
<text text-anchor="middle" x="1503.97" y="-149.6" font-family="Times,serif" font-size="18.00">target:</text>
<text text-anchor="middle" x="1503.97" y="-129.6" font-family="Times,serif" font-size="18.00"> hold(outwardgripper, lampshade)</text>
</g>
<!-- selector:
 pick_up(left_hand, outwardgripper, lampshade)&#45;&gt;target:
 hold(outwardgripper, lampshade) -->
<g id="edge10" class="edge">
<title>selector:
 pick_up(left_hand, outwardgripper, lampshade)&#45;&gt;target:
 hold(outwardgripper, lampshade)</title>
<path fill="none" stroke="black" d="M1503.97,-216C1503.97,-207.85 1503.97,-199.06 1503.97,-190.54"/>
<polygon fill="black" stroke="black" points="1507.47,-190.33 1503.97,-180.33 1500.47,-190.33 1507.47,-190.33"/>
</g>
<!-- sequence:
 pick_up(left_hand, outwardgripper, lampshade) -->
<g id="node12" class="node">
<title>sequence:
 pick_up(left_hand, outwardgripper, lampshade)</title>
<polygon fill="#ff7f24" stroke="black" points="2339.47,-180 1888.47,-180 1888.47,-108 2339.47,-108 2339.47,-180"/>
<text text-anchor="middle" x="2113.97" y="-149.6" font-family="Times,serif" font-size="18.00">sequence:</text>
<text text-anchor="middle" x="2113.97" y="-129.6" font-family="Times,serif" font-size="18.00"> pick_up(left_hand, outwardgripper, lampshade)</text>
</g>
<!-- selector:
 pick_up(left_hand, outwardgripper, lampshade)&#45;&gt;sequence:
 pick_up(left_hand, outwardgripper, lampshade) -->
<g id="edge11" class="edge">
<title>selector:
 pick_up(left_hand, outwardgripper, lampshade)&#45;&gt;sequence:
 pick_up(left_hand, outwardgripper, lampshade)</title>
<path fill="none" stroke="black" d="M1679.99,-220.41C1749.4,-208.35 1829.73,-194.39 1902.27,-181.79"/>
<polygon fill="black" stroke="black" points="1903.2,-185.18 1912.45,-180.02 1902,-178.28 1903.2,-185.18"/>
</g>
<!-- precondition:
 is_empty(outwardgripper) -->
<g id="node13" class="node">
<title>precondition:
 is_empty(outwardgripper)</title>
<ellipse fill="#ffec8b" stroke="black" cx="1749.97" cy="-36" rx="173.99" ry="36"/>
<text text-anchor="middle" x="1749.97" y="-41.6" font-family="Times,serif" font-size="18.00">precondition:</text>
<text text-anchor="middle" x="1749.97" y="-21.6" font-family="Times,serif" font-size="18.00"> is_empty(outwardgripper)</text>
</g>
<!-- sequence:
 pick_up(left_hand, outwardgripper, lampshade)&#45;&gt;precondition:
 is_empty(outwardgripper) -->
<g id="edge12" class="edge">
<title>sequence:
 pick_up(left_hand, outwardgripper, lampshade)&#45;&gt;precondition:
 is_empty(outwardgripper)</title>
<path fill="none" stroke="black" d="M1993.77,-108C1950.06,-95.27 1900.96,-80.97 1858.34,-68.56"/>
<polygon fill="black" stroke="black" points="1859.08,-65.13 1848.5,-65.69 1857.13,-71.85 1859.08,-65.13"/>
</g>
<!-- precondition:
 hold(left_hand, outwardgripper) -->
<g id="node14" class="node">
<title>precondition:
 hold(left_hand, outwardgripper)</title>
<ellipse fill="#ffec8b" stroke="black" cx="2151.97" cy="-36" rx="209.93" ry="36"/>
<text text-anchor="middle" x="2151.97" y="-41.6" font-family="Times,serif" font-size="18.00">precondition:</text>
<text text-anchor="middle" x="2151.97" y="-21.6" font-family="Times,serif" font-size="18.00"> hold(left_hand, outwardgripper)</text>
</g>
<!-- sequence:
 pick_up(left_hand, outwardgripper, lampshade)&#45;&gt;precondition:
 hold(left_hand, outwardgripper) -->
<g id="edge13" class="edge">
<title>sequence:
 pick_up(left_hand, outwardgripper, lampshade)&#45;&gt;precondition:
 hold(left_hand, outwardgripper)</title>
<path fill="none" stroke="black" d="M2126.51,-108C2129.56,-99.5 2132.86,-90.29 2136.04,-81.42"/>
<polygon fill="black" stroke="black" points="2139.35,-82.56 2139.43,-71.97 2132.76,-80.2 2139.35,-82.56"/>
</g>
<!-- action:
 pick_up(left_hand, outwardgripper, lampshade) -->
<g id="node15" class="node">
<title>action:
 pick_up(left_hand, outwardgripper, lampshade)</title>
<ellipse fill="lightgreen" stroke="black" cx="2682.97" cy="-36" rx="302.58" ry="36"/>
<text text-anchor="middle" x="2682.97" y="-41.6" font-family="Times,serif" font-size="18.00">action:</text>
<text text-anchor="middle" x="2682.97" y="-21.6" font-family="Times,serif" font-size="18.00"> pick_up(left_hand, outwardgripper, lampshade)</text>
</g>
<!-- sequence:
 pick_up(left_hand, outwardgripper, lampshade)&#45;&gt;action:
 pick_up(left_hand, outwardgripper, lampshade) -->
<g id="edge14" class="edge">
<title>sequence:
 pick_up(left_hand, outwardgripper, lampshade)&#45;&gt;action:
 pick_up(left_hand, outwardgripper, lampshade)</title>
<path fill="none" stroke="black" d="M2301.86,-108C2370.21,-95.26 2447.01,-80.96 2513.65,-68.54"/>
<polygon fill="black" stroke="black" points="2514.65,-71.92 2523.84,-66.64 2513.36,-65.04 2514.65,-71.92"/>
</g>
</g>
</svg>
