<?xml version="1.0" encoding="UTF-8" standalone="no"?>
<!DOCTYPE svg PUBLIC "-//W3C//DTD SVG 1.1//EN"
 "http://www.w3.org/Graphics/SVG/1.1/DTD/svg11.dtd">
<!-- Generated by graphviz version 2.43.0 (0)
 -->
<!-- Title: pastafarianism Pages: 1 -->
<svg width="2313pt" height="945pt"
 viewBox="0.00 0.00 2312.51 945.48" xmlns="http://www.w3.org/2000/svg" xmlns:xlink="http://www.w3.org/1999/xlink">
<g id="graph0" class="graph" transform="scale(1 1) rotate(0) translate(4 941.48)">
<title>pastafarianism</title>
<polygon fill="white" stroke="transparent" points="-4,4 -4,-941.48 2308.51,-941.48 2308.51,4 -4,4"/>
<!-- selector:
 insert(left_hand, inwardgripper, shaft2, gearbase_hole2) -->
<g id="node1" class="node">
<title>selector:
 insert(left_hand, inwardgripper, shaft2, gearbase_hole2)</title>
<polygon fill="#8deeee" stroke="black" points="1530.85,-885.42 1530.85,-916.05 1291.92,-937.71 954.02,-937.71 715.09,-916.05 715.09,-885.42 954.02,-863.76 1291.92,-863.76 1530.85,-885.42"/>
<text text-anchor="middle" x="1122.97" y="-906.34" font-family="Times,serif" font-size="18.00">selector:</text>
<text text-anchor="middle" x="1122.97" y="-886.34" font-family="Times,serif" font-size="18.00"> insert(left_hand, inwardgripper, shaft2, gearbase_hole2)</text>
</g>
<!-- target:
 is_inserted_to(shaft2, gearbase_hole2) -->
<g id="node2" class="node">
<title>target:
 is_inserted_to(shaft2, gearbase_hole2)</title>
<ellipse fill="#ffec8b" stroke="black" cx="856.97" cy="-792" rx="248.41" ry="36"/>
<text text-anchor="middle" x="856.97" y="-797.6" font-family="Times,serif" font-size="18.00">target:</text>
<text text-anchor="middle" x="856.97" y="-777.6" font-family="Times,serif" font-size="18.00"> is_inserted_to(shaft2, gearbase_hole2)</text>
</g>
<!-- selector:
 insert(left_hand, inwardgripper, shaft2, gearbase_hole2)&#45;&gt;target:
 is_inserted_to(shaft2, gearbase_hole2) -->
<g id="edge1" class="edge">
<title>selector:
 insert(left_hand, inwardgripper, shaft2, gearbase_hole2)&#45;&gt;target:
 is_inserted_to(shaft2, gearbase_hole2)</title>
<path fill="none" stroke="black" d="M1033.65,-863.9C1006.38,-852.96 976.35,-840.91 948.91,-829.89"/>
<polygon fill="black" stroke="black" points="949.9,-826.52 939.32,-826.04 947.29,-833.02 949.9,-826.52"/>
</g>
<!-- sequence:
 insert(left_hand, inwardgripper, shaft2, gearbase_hole2) -->
<g id="node3" class="node">
<title>sequence:
 insert(left_hand, inwardgripper, shaft2, gearbase_hole2)</title>
<polygon fill="#ff7f24" stroke="black" points="1656.47,-828 1123.47,-828 1123.47,-756 1656.47,-756 1656.47,-828"/>
<text text-anchor="middle" x="1389.97" y="-797.6" font-family="Times,serif" font-size="18.00">sequence:</text>
<text text-anchor="middle" x="1389.97" y="-777.6" font-family="Times,serif" font-size="18.00"> insert(left_hand, inwardgripper, shaft2, gearbase_hole2)</text>
</g>
<!-- selector:
 insert(left_hand, inwardgripper, shaft2, gearbase_hole2)&#45;&gt;sequence:
 insert(left_hand, inwardgripper, shaft2, gearbase_hole2) -->
<g id="edge2" class="edge">
<title>selector:
 insert(left_hand, inwardgripper, shaft2, gearbase_hole2)&#45;&gt;sequence:
 insert(left_hand, inwardgripper, shaft2, gearbase_hole2)</title>
<path fill="none" stroke="black" d="M1212.62,-863.9C1238.39,-853.6 1266.61,-842.31 1292.81,-831.84"/>
<polygon fill="black" stroke="black" points="1294.38,-834.98 1302.37,-828.02 1291.78,-828.48 1294.38,-834.98"/>
</g>
<!-- selector:
 pick_up(left_hand, inwardgripper, shaft2) -->
<g id="node4" class="node">
<title>selector:
 pick_up(left_hand, inwardgripper, shaft2)</title>
<polygon fill="#8deeee" stroke="black" points="1189.94,-669.09 1189.94,-698.91 1020.66,-720 781.27,-720 612,-698.91 612,-669.09 781.27,-648 1020.66,-648 1189.94,-669.09"/>
<text text-anchor="middle" x="900.97" y="-689.6" font-family="Times,serif" font-size="18.00">selector:</text>
<text text-anchor="middle" x="900.97" y="-669.6" font-family="Times,serif" font-size="18.00"> pick_up(left_hand, inwardgripper, shaft2)</text>
</g>
<!-- sequence:
 insert(left_hand, inwardgripper, shaft2, gearbase_hole2)&#45;&gt;selector:
 pick_up(left_hand, inwardgripper, shaft2) -->
<g id="edge3" class="edge">
<title>sequence:
 insert(left_hand, inwardgripper, shaft2, gearbase_hole2)&#45;&gt;selector:
 pick_up(left_hand, inwardgripper, shaft2)</title>
<path fill="none" stroke="black" d="M1228.49,-756C1173.38,-744.05 1111.89,-730.72 1057.19,-718.87"/>
<polygon fill="black" stroke="black" points="1057.93,-715.44 1047.42,-716.75 1056.45,-722.29 1057.93,-715.44"/>
</g>
<!-- precondition:
 hold(inwardgripper, shaft2) -->
<g id="node19" class="node">
<title>precondition:
 hold(inwardgripper, shaft2)</title>
<ellipse fill="#ffec8b" stroke="black" cx="1389.97" cy="-684" rx="181.58" ry="36"/>
<text text-anchor="middle" x="1389.97" y="-689.6" font-family="Times,serif" font-size="18.00">precondition:</text>
<text text-anchor="middle" x="1389.97" y="-669.6" font-family="Times,serif" font-size="18.00"> hold(inwardgripper, shaft2)</text>
</g>
<!-- sequence:
 insert(left_hand, inwardgripper, shaft2, gearbase_hole2)&#45;&gt;precondition:
 hold(inwardgripper, shaft2) -->
<g id="edge18" class="edge">
<title>sequence:
 insert(left_hand, inwardgripper, shaft2, gearbase_hole2)&#45;&gt;precondition:
 hold(inwardgripper, shaft2)</title>
<path fill="none" stroke="black" d="M1389.97,-756C1389.97,-747.85 1389.97,-739.06 1389.97,-730.54"/>
<polygon fill="black" stroke="black" points="1393.47,-730.33 1389.97,-720.33 1386.47,-730.33 1393.47,-730.33"/>
</g>
<!-- action:
 insert(left_hand, inwardgripper, shaft2, gearbase_hole2) -->
<g id="node20" class="node">
<title>action:
 insert(left_hand, inwardgripper, shaft2, gearbase_hole2)</title>
<ellipse fill="lightgreen" stroke="black" cx="1946.97" cy="-684" rx="357.59" ry="36"/>
<text text-anchor="middle" x="1946.97" y="-689.6" font-family="Times,serif" font-size="18.00">action:</text>
<text text-anchor="middle" x="1946.97" y="-669.6" font-family="Times,serif" font-size="18.00"> insert(left_hand, inwardgripper, shaft2, gearbase_hole2)</text>
</g>
<!-- sequence:
 insert(left_hand, inwardgripper, shaft2, gearbase_hole2)&#45;&gt;action:
 insert(left_hand, inwardgripper, shaft2, gearbase_hole2) -->
<g id="edge19" class="edge">
<title>sequence:
 insert(left_hand, inwardgripper, shaft2, gearbase_hole2)&#45;&gt;action:
 insert(left_hand, inwardgripper, shaft2, gearbase_hole2)</title>
<path fill="none" stroke="black" d="M1573.89,-756C1638.26,-743.75 1710.28,-730.04 1773.74,-717.97"/>
<polygon fill="black" stroke="black" points="1774.68,-721.35 1783.85,-716.04 1773.37,-714.47 1774.68,-721.35"/>
</g>
<!-- target:
 hold(inwardgripper, shaft2) -->
<g id="node5" class="node">
<title>target:
 hold(inwardgripper, shaft2)</title>
<ellipse fill="#ffec8b" stroke="black" cx="701.97" cy="-576" rx="181.58" ry="36"/>
<text text-anchor="middle" x="701.97" y="-581.6" font-family="Times,serif" font-size="18.00">target:</text>
<text text-anchor="middle" x="701.97" y="-561.6" font-family="Times,serif" font-size="18.00"> hold(inwardgripper, shaft2)</text>
</g>
<!-- selector:
 pick_up(left_hand, inwardgripper, shaft2)&#45;&gt;target:
 hold(inwardgripper, shaft2) -->
<g id="edge4" class="edge">
<title>selector:
 pick_up(left_hand, inwardgripper, shaft2)&#45;&gt;target:
 hold(inwardgripper, shaft2)</title>
<path fill="none" stroke="black" d="M835.26,-648C815.24,-637.33 793.15,-625.57 772.8,-614.73"/>
<polygon fill="black" stroke="black" points="774.37,-611.6 763.9,-609.99 771.08,-617.78 774.37,-611.6"/>
</g>
<!-- sequence:
 pick_up(left_hand, inwardgripper, shaft2) -->
<g id="node6" class="node">
<title>sequence:
 pick_up(left_hand, inwardgripper, shaft2)</title>
<polygon fill="#ff7f24" stroke="black" points="1299.97,-612 901.97,-612 901.97,-540 1299.97,-540 1299.97,-612"/>
<text text-anchor="middle" x="1100.97" y="-581.6" font-family="Times,serif" font-size="18.00">sequence:</text>
<text text-anchor="middle" x="1100.97" y="-561.6" font-family="Times,serif" font-size="18.00"> pick_up(left_hand, inwardgripper, shaft2)</text>
</g>
<!-- selector:
 pick_up(left_hand, inwardgripper, shaft2)&#45;&gt;sequence:
 pick_up(left_hand, inwardgripper, shaft2) -->
<g id="edge5" class="edge">
<title>selector:
 pick_up(left_hand, inwardgripper, shaft2)&#45;&gt;sequence:
 pick_up(left_hand, inwardgripper, shaft2)</title>
<path fill="none" stroke="black" d="M967.01,-648C985.77,-638.05 1006.34,-627.15 1025.61,-616.94"/>
<polygon fill="black" stroke="black" points="1027.46,-619.92 1034.65,-612.15 1024.18,-613.74 1027.46,-619.92"/>
</g>
<!-- selector:
 change_tool(left_hand, outwardgripper, inwardgripper) -->
<g id="node7" class="node">
<title>selector:
 change_tool(left_hand, outwardgripper, inwardgripper)</title>
<polygon fill="#8deeee" stroke="black" points="917.05,-453.09 917.05,-482.91 695.58,-504 382.36,-504 160.88,-482.91 160.88,-453.09 382.36,-432 695.58,-432 917.05,-453.09"/>
<text text-anchor="middle" x="538.97" y="-473.6" font-family="Times,serif" font-size="18.00">selector:</text>
<text text-anchor="middle" x="538.97" y="-453.6" font-family="Times,serif" font-size="18.00"> change_tool(left_hand, outwardgripper, inwardgripper)</text>
</g>
<!-- sequence:
 pick_up(left_hand, inwardgripper, shaft2)&#45;&gt;selector:
 change_tool(left_hand, outwardgripper, inwardgripper) -->
<g id="edge6" class="edge">
<title>sequence:
 pick_up(left_hand, inwardgripper, shaft2)&#45;&gt;selector:
 change_tool(left_hand, outwardgripper, inwardgripper)</title>
<path fill="none" stroke="black" d="M915.39,-540C854.36,-528.49 786.52,-515.69 725.43,-504.17"/>
<polygon fill="black" stroke="black" points="725.77,-500.67 715.29,-502.26 724.47,-507.55 725.77,-500.67"/>
</g>
<!-- precondition:
 is_empty(inwardgripper) -->
<g id="node17" class="node">
<title>precondition:
 is_empty(inwardgripper)</title>
<ellipse fill="#ffec8b" stroke="black" cx="1100.97" cy="-468" rx="165.89" ry="36"/>
<text text-anchor="middle" x="1100.97" y="-473.6" font-family="Times,serif" font-size="18.00">precondition:</text>
<text text-anchor="middle" x="1100.97" y="-453.6" font-family="Times,serif" font-size="18.00"> is_empty(inwardgripper)</text>
</g>
<!-- sequence:
 pick_up(left_hand, inwardgripper, shaft2)&#45;&gt;precondition:
 is_empty(inwardgripper) -->
<g id="edge16" class="edge">
<title>sequence:
 pick_up(left_hand, inwardgripper, shaft2)&#45;&gt;precondition:
 is_empty(inwardgripper)</title>
<path fill="none" stroke="black" d="M1100.97,-540C1100.97,-531.85 1100.97,-523.06 1100.97,-514.54"/>
<polygon fill="black" stroke="black" points="1104.47,-514.33 1100.97,-504.33 1097.47,-514.33 1104.47,-514.33"/>
</g>
<!-- action:
 pick_up(left_hand, inwardgripper, shaft2) -->
<g id="node18" class="node">
<title>action:
 pick_up(left_hand, inwardgripper, shaft2)</title>
<ellipse fill="lightgreen" stroke="black" cx="1551.97" cy="-468" rx="266.97" ry="36"/>
<text text-anchor="middle" x="1551.97" y="-473.6" font-family="Times,serif" font-size="18.00">action:</text>
<text text-anchor="middle" x="1551.97" y="-453.6" font-family="Times,serif" font-size="18.00"> pick_up(left_hand, inwardgripper, shaft2)</text>
</g>
<!-- sequence:
 pick_up(left_hand, inwardgripper, shaft2)&#45;&gt;action:
 pick_up(left_hand, inwardgripper, shaft2) -->
<g id="edge17" class="edge">
<title>sequence:
 pick_up(left_hand, inwardgripper, shaft2)&#45;&gt;action:
 pick_up(left_hand, inwardgripper, shaft2)</title>
<path fill="none" stroke="black" d="M1249.89,-540C1302.2,-527.7 1360.74,-513.94 1412.26,-501.84"/>
<polygon fill="black" stroke="black" points="1413.2,-505.21 1422.13,-499.52 1411.6,-498.4 1413.2,-505.21"/>
</g>
<!-- target:
 hold(left_hand, inwardgripper) -->
<g id="node8" class="node">
<title>target:
 hold(left_hand, inwardgripper)</title>
<ellipse fill="#ffec8b" stroke="black" cx="298.97" cy="-360" rx="201.83" ry="36"/>
<text text-anchor="middle" x="298.97" y="-365.6" font-family="Times,serif" font-size="18.00">target:</text>
<text text-anchor="middle" x="298.97" y="-345.6" font-family="Times,serif" font-size="18.00"> hold(left_hand, inwardgripper)</text>
</g>
<!-- selector:
 change_tool(left_hand, outwardgripper, inwardgripper)&#45;&gt;target:
 hold(left_hand, inwardgripper) -->
<g id="edge7" class="edge">
<title>selector:
 change_tool(left_hand, outwardgripper, inwardgripper)&#45;&gt;target:
 hold(left_hand, inwardgripper)</title>
<path fill="none" stroke="black" d="M459.72,-432C434.79,-420.99 407.2,-408.8 382.01,-397.68"/>
<polygon fill="black" stroke="black" points="383.41,-394.47 372.85,-393.63 380.59,-400.87 383.41,-394.47"/>
</g>
<!-- sequence:
 change_tool(left_hand, outwardgripper, inwardgripper) -->
<g id="node9" class="node">
<title>sequence:
 change_tool(left_hand, outwardgripper, inwardgripper)</title>
<polygon fill="#ff7f24" stroke="black" points="1039.47,-396 518.47,-396 518.47,-324 1039.47,-324 1039.47,-396"/>
<text text-anchor="middle" x="778.97" y="-365.6" font-family="Times,serif" font-size="18.00">sequence:</text>
<text text-anchor="middle" x="778.97" y="-345.6" font-family="Times,serif" font-size="18.00"> change_tool(left_hand, outwardgripper, inwardgripper)</text>
</g>
<!-- selector:
 change_tool(left_hand, outwardgripper, inwardgripper)&#45;&gt;sequence:
 change_tool(left_hand, outwardgripper, inwardgripper) -->
<g id="edge8" class="edge">
<title>selector:
 change_tool(left_hand, outwardgripper, inwardgripper)&#45;&gt;sequence:
 change_tool(left_hand, outwardgripper, inwardgripper)</title>
<path fill="none" stroke="black" d="M618.22,-432C641.24,-421.83 666.53,-410.66 690.1,-400.25"/>
<polygon fill="black" stroke="black" points="691.66,-403.39 699.39,-396.15 688.83,-396.98 691.66,-403.39"/>
</g>
<!-- precondition:
 hold(left_hand, outwardgripper) -->
<g id="node10" class="node">
<title>precondition:
 hold(left_hand, outwardgripper)</title>
<ellipse fill="#ffec8b" stroke="black" cx="209.97" cy="-252" rx="209.93" ry="36"/>
<text text-anchor="middle" x="209.97" y="-257.6" font-family="Times,serif" font-size="18.00">precondition:</text>
<text text-anchor="middle" x="209.97" y="-237.6" font-family="Times,serif" font-size="18.00"> hold(left_hand, outwardgripper)</text>
</g>
<!-- sequence:
 change_tool(left_hand, outwardgripper, inwardgripper)&#45;&gt;precondition:
 hold(left_hand, outwardgripper) -->
<g id="edge9" class="edge">
<title>sequence:
 change_tool(left_hand, outwardgripper, inwardgripper)&#45;&gt;precondition:
 hold(left_hand, outwardgripper)</title>
<path fill="none" stroke="black" d="M591.08,-324C515.8,-309.97 430.27,-294.04 359.35,-280.83"/>
<polygon fill="black" stroke="black" points="359.91,-277.37 349.44,-278.98 358.63,-284.25 359.91,-277.37"/>
</g>
<!-- selector:
 put_down(left_hand, outwardgripper, lampshade) -->
<g id="node11" class="node">
<title>selector:
 put_down(left_hand, outwardgripper, lampshade)</title>
<polygon fill="#8deeee" stroke="black" points="1119.54,-237.09 1119.54,-266.91 920.04,-288 637.9,-288 438.39,-266.91 438.39,-237.09 637.9,-216 920.04,-216 1119.54,-237.09"/>
<text text-anchor="middle" x="778.97" y="-257.6" font-family="Times,serif" font-size="18.00">selector:</text>
<text text-anchor="middle" x="778.97" y="-237.6" font-family="Times,serif" font-size="18.00"> put_down(left_hand, outwardgripper, lampshade)</text>
</g>
<!-- sequence:
 change_tool(left_hand, outwardgripper, inwardgripper)&#45;&gt;selector:
 put_down(left_hand, outwardgripper, lampshade) -->
<g id="edge10" class="edge">
<title>sequence:
 change_tool(left_hand, outwardgripper, inwardgripper)&#45;&gt;selector:
 put_down(left_hand, outwardgripper, lampshade)</title>
<path fill="none" stroke="black" d="M778.97,-324C778.97,-315.85 778.97,-307.06 778.97,-298.54"/>
<polygon fill="black" stroke="black" points="782.47,-298.33 778.97,-288.33 775.47,-298.33 782.47,-298.33"/>
</g>
<!-- action:
 change_tool(left_hand, outwardgripper, inwardgripper) -->
<g id="node16" class="node">
<title>action:
 change_tool(left_hand, outwardgripper, inwardgripper)</title>
<ellipse fill="lightgreen" stroke="black" cx="1486.97" cy="-252" rx="349.49" ry="36"/>
<text text-anchor="middle" x="1486.97" y="-257.6" font-family="Times,serif" font-size="18.00">action:</text>
<text text-anchor="middle" x="1486.97" y="-237.6" font-family="Times,serif" font-size="18.00"> change_tool(left_hand, outwardgripper, inwardgripper)</text>
</g>
<!-- sequence:
 change_tool(left_hand, outwardgripper, inwardgripper)&#45;&gt;action:
 change_tool(left_hand, outwardgripper, inwardgripper) -->
<g id="edge15" class="edge">
<title>sequence:
 change_tool(left_hand, outwardgripper, inwardgripper)&#45;&gt;action:
 change_tool(left_hand, outwardgripper, inwardgripper)</title>
<path fill="none" stroke="black" d="M1012.75,-324C1100.22,-310.9 1198.79,-296.14 1283.32,-283.49"/>
<polygon fill="black" stroke="black" points="1283.92,-286.94 1293.3,-282 1282.89,-280.02 1283.92,-286.94"/>
</g>
<!-- target:
 is_empty(outwardgripper) -->
<g id="node12" class="node">
<title>target:
 is_empty(outwardgripper)</title>
<ellipse fill="#ffec8b" stroke="black" cx="565.97" cy="-144" rx="173.99" ry="36"/>
<text text-anchor="middle" x="565.97" y="-149.6" font-family="Times,serif" font-size="18.00">target:</text>
<text text-anchor="middle" x="565.97" y="-129.6" font-family="Times,serif" font-size="18.00"> is_empty(outwardgripper)</text>
</g>
<!-- selector:
 put_down(left_hand, outwardgripper, lampshade)&#45;&gt;target:
 is_empty(outwardgripper) -->
<g id="edge11" class="edge">
<title>selector:
 put_down(left_hand, outwardgripper, lampshade)&#45;&gt;target:
 is_empty(outwardgripper)</title>
<path fill="none" stroke="black" d="M708.63,-216C686.69,-205.08 662.43,-193.01 640.23,-181.96"/>
<polygon fill="black" stroke="black" points="641.7,-178.78 631.18,-177.46 638.58,-185.04 641.7,-178.78"/>
</g>
<!-- sequence:
 put_down(left_hand, outwardgripper, lampshade) -->
<g id="node13" class="node">
<title>sequence:
 put_down(left_hand, outwardgripper, lampshade)</title>
<polygon fill="#ff7f24" stroke="black" points="1226.47,-180 757.47,-180 757.47,-108 1226.47,-108 1226.47,-180"/>
<text text-anchor="middle" x="991.97" y="-149.6" font-family="Times,serif" font-size="18.00">sequence:</text>
<text text-anchor="middle" x="991.97" y="-129.6" font-family="Times,serif" font-size="18.00"> put_down(left_hand, outwardgripper, lampshade)</text>
</g>
<!-- selector:
 put_down(left_hand, outwardgripper, lampshade)&#45;&gt;sequence:
 put_down(left_hand, outwardgripper, lampshade) -->
<g id="edge12" class="edge">
<title>selector:
 put_down(left_hand, outwardgripper, lampshade)&#45;&gt;sequence:
 put_down(left_hand, outwardgripper, lampshade)</title>
<path fill="none" stroke="black" d="M849.3,-216C869.46,-205.96 891.59,-194.95 912.27,-184.66"/>
<polygon fill="black" stroke="black" points="913.95,-187.74 921.34,-180.15 910.83,-181.47 913.95,-187.74"/>
</g>
<!-- precondition:
 hold(outwardgripper, lampshade) -->
<g id="node14" class="node">
<title>precondition:
 hold(outwardgripper, lampshade)</title>
<ellipse fill="#ffec8b" stroke="black" cx="716.97" cy="-36" rx="217.19" ry="36"/>
<text text-anchor="middle" x="716.97" y="-41.6" font-family="Times,serif" font-size="18.00">precondition:</text>
<text text-anchor="middle" x="716.97" y="-21.6" font-family="Times,serif" font-size="18.00"> hold(outwardgripper, lampshade)</text>
</g>
<!-- sequence:
 put_down(left_hand, outwardgripper, lampshade)&#45;&gt;precondition:
 hold(outwardgripper, lampshade) -->
<g id="edge13" class="edge">
<title>sequence:
 put_down(left_hand, outwardgripper, lampshade)&#45;&gt;precondition:
 hold(outwardgripper, lampshade)</title>
<path fill="none" stroke="black" d="M901.16,-108C871.94,-96.73 839.52,-84.24 810.13,-72.91"/>
<polygon fill="black" stroke="black" points="811.3,-69.61 800.71,-69.28 808.78,-76.14 811.3,-69.61"/>
</g>
<!-- action:
 put_down(left_hand, outwardgripper, lampshade) -->
<g id="node15" class="node">
<title>action:
 put_down(left_hand, outwardgripper, lampshade)</title>
<ellipse fill="lightgreen" stroke="black" cx="1266.97" cy="-36" rx="314.73" ry="36"/>
<text text-anchor="middle" x="1266.97" y="-41.6" font-family="Times,serif" font-size="18.00">action:</text>
<text text-anchor="middle" x="1266.97" y="-21.6" font-family="Times,serif" font-size="18.00"> put_down(left_hand, outwardgripper, lampshade)</text>
</g>
<!-- sequence:
 put_down(left_hand, outwardgripper, lampshade)&#45;&gt;action:
 put_down(left_hand, outwardgripper, lampshade) -->
<g id="edge14" class="edge">
<title>sequence:
 put_down(left_hand, outwardgripper, lampshade)&#45;&gt;action:
 put_down(left_hand, outwardgripper, lampshade)</title>
<path fill="none" stroke="black" d="M1082.77,-108C1110.75,-97.22 1141.64,-85.31 1170.01,-74.37"/>
<polygon fill="black" stroke="black" points="1171.45,-77.57 1179.53,-70.7 1168.94,-71.04 1171.45,-77.57"/>
</g>
</g>
</svg>
