<?xml version="1.0" encoding="UTF-8" standalone="no"?>
<!DOCTYPE svg PUBLIC "-//W3C//DTD SVG 1.1//EN"
 "http://www.w3.org/Graphics/SVG/1.1/DTD/svg11.dtd">
<!-- Generated by graphviz version 2.43.0 (0)
 -->
<!-- Title: pastafarianism Pages: 1 -->
<svg width="2467pt" height="513pt"
 viewBox="0.00 0.00 2466.90 513.48" xmlns="http://www.w3.org/2000/svg" xmlns:xlink="http://www.w3.org/1999/xlink">
<g id="graph0" class="graph" transform="scale(1 1) rotate(0) translate(4 509.48)">
<title>pastafarianism</title>
<polygon fill="white" stroke="transparent" points="-4,4 -4,-509.48 2462.9,-509.48 2462.9,4 -4,4"/>
<!-- selector:
 screw(left_hand, inwardgripper, shaft2, gearbase_hole2) -->
<g id="node1" class="node">
<title>selector:
 screw(left_hand, inwardgripper, shaft2, gearbase_hole2)</title>
<polygon fill="#8deeee" stroke="black" points="1491.8,-453.42 1491.8,-484.05 1252.87,-505.71 914.97,-505.71 676.04,-484.05 676.04,-453.42 914.97,-431.76 1252.87,-431.76 1491.8,-453.42"/>
<text text-anchor="middle" x="1083.92" y="-474.34" font-family="Times,serif" font-size="18.00">selector:</text>
<text text-anchor="middle" x="1083.92" y="-454.34" font-family="Times,serif" font-size="18.00"> screw(left_hand, inwardgripper, shaft2, gearbase_hole2)</text>
</g>
<!-- target:
 is_screwed_to(shaft2, gearbase_hole2) -->
<g id="node2" class="node">
<title>target:
 is_screwed_to(shaft2, gearbase_hole2)</title>
<ellipse fill="#ffec8b" stroke="black" cx="817.92" cy="-360" rx="248.75" ry="36"/>
<text text-anchor="middle" x="817.92" y="-365.6" font-family="Times,serif" font-size="18.00">target:</text>
<text text-anchor="middle" x="817.92" y="-345.6" font-family="Times,serif" font-size="18.00"> is_screwed_to(shaft2, gearbase_hole2)</text>
</g>
<!-- selector:
 screw(left_hand, inwardgripper, shaft2, gearbase_hole2)&#45;&gt;target:
 is_screwed_to(shaft2, gearbase_hole2) -->
<g id="edge1" class="edge">
<title>selector:
 screw(left_hand, inwardgripper, shaft2, gearbase_hole2)&#45;&gt;target:
 is_screwed_to(shaft2, gearbase_hole2)</title>
<path fill="none" stroke="black" d="M994.6,-431.9C967.33,-420.96 937.3,-408.91 909.86,-397.89"/>
<polygon fill="black" stroke="black" points="910.85,-394.52 900.27,-394.04 908.25,-401.02 910.85,-394.52"/>
</g>
<!-- sequence:
 screw(left_hand, inwardgripper, shaft2, gearbase_hole2) -->
<g id="node3" class="node">
<title>sequence:
 screw(left_hand, inwardgripper, shaft2, gearbase_hole2)</title>
<polygon fill="#ff7f24" stroke="black" points="1617.42,-396 1084.42,-396 1084.42,-324 1617.42,-324 1617.42,-396"/>
<text text-anchor="middle" x="1350.92" y="-365.6" font-family="Times,serif" font-size="18.00">sequence:</text>
<text text-anchor="middle" x="1350.92" y="-345.6" font-family="Times,serif" font-size="18.00"> screw(left_hand, inwardgripper, shaft2, gearbase_hole2)</text>
</g>
<!-- selector:
 screw(left_hand, inwardgripper, shaft2, gearbase_hole2)&#45;&gt;sequence:
 screw(left_hand, inwardgripper, shaft2, gearbase_hole2) -->
<g id="edge2" class="edge">
<title>selector:
 screw(left_hand, inwardgripper, shaft2, gearbase_hole2)&#45;&gt;sequence:
 screw(left_hand, inwardgripper, shaft2, gearbase_hole2)</title>
<path fill="none" stroke="black" d="M1173.57,-431.9C1199.34,-421.6 1227.56,-410.31 1253.76,-399.84"/>
<polygon fill="black" stroke="black" points="1255.33,-402.98 1263.32,-396.02 1252.73,-396.48 1255.33,-402.98"/>
</g>
<!-- selector:
 change_tool(left_hand, defaultgripper, inwardgripper) -->
<g id="node4" class="node">
<title>selector:
 change_tool(left_hand, defaultgripper, inwardgripper)</title>
<polygon fill="#8deeee" stroke="black" points="1044.03,-237.09 1044.03,-266.91 827.22,-288 520.61,-288 303.8,-266.91 303.8,-237.09 520.61,-216 827.22,-216 1044.03,-237.09"/>
<text text-anchor="middle" x="673.92" y="-257.6" font-family="Times,serif" font-size="18.00">selector:</text>
<text text-anchor="middle" x="673.92" y="-237.6" font-family="Times,serif" font-size="18.00"> change_tool(left_hand, defaultgripper, inwardgripper)</text>
</g>
<!-- sequence:
 screw(left_hand, inwardgripper, shaft2, gearbase_hole2)&#45;&gt;selector:
 change_tool(left_hand, defaultgripper, inwardgripper) -->
<g id="edge3" class="edge">
<title>sequence:
 screw(left_hand, inwardgripper, shaft2, gearbase_hole2)&#45;&gt;selector:
 change_tool(left_hand, defaultgripper, inwardgripper)</title>
<path fill="none" stroke="black" d="M1127.37,-324C1047.86,-311.55 958.76,-297.6 880.72,-285.38"/>
<polygon fill="black" stroke="black" points="881.19,-281.91 870.77,-283.82 880.11,-288.83 881.19,-281.91"/>
</g>
<!-- selector:
 pick_up(left_hand, inwardgripper, shaft2) -->
<g id="node10" class="node">
<title>selector:
 pick_up(left_hand, inwardgripper, shaft2)</title>
<polygon fill="#8deeee" stroke="black" points="1639.89,-237.09 1639.89,-266.91 1470.61,-288 1231.22,-288 1061.95,-266.91 1061.95,-237.09 1231.22,-216 1470.61,-216 1639.89,-237.09"/>
<text text-anchor="middle" x="1350.92" y="-257.6" font-family="Times,serif" font-size="18.00">selector:</text>
<text text-anchor="middle" x="1350.92" y="-237.6" font-family="Times,serif" font-size="18.00"> pick_up(left_hand, inwardgripper, shaft2)</text>
</g>
<!-- sequence:
 screw(left_hand, inwardgripper, shaft2, gearbase_hole2)&#45;&gt;selector:
 pick_up(left_hand, inwardgripper, shaft2) -->
<g id="edge9" class="edge">
<title>sequence:
 screw(left_hand, inwardgripper, shaft2, gearbase_hole2)&#45;&gt;selector:
 pick_up(left_hand, inwardgripper, shaft2)</title>
<path fill="none" stroke="black" d="M1350.92,-324C1350.92,-315.85 1350.92,-307.06 1350.92,-298.54"/>
<polygon fill="black" stroke="black" points="1354.42,-298.33 1350.92,-288.33 1347.42,-298.33 1354.42,-298.33"/>
</g>
<!-- action:
 screw(left_hand, inwardgripper, shaft2, gearbase_hole2) -->
<g id="node15" class="node">
<title>action:
 screw(left_hand, inwardgripper, shaft2, gearbase_hole2)</title>
<ellipse fill="lightgreen" stroke="black" cx="2015.92" cy="-252" rx="357.59" ry="36"/>
<text text-anchor="middle" x="2015.92" y="-257.6" font-family="Times,serif" font-size="18.00">action:</text>
<text text-anchor="middle" x="2015.92" y="-237.6" font-family="Times,serif" font-size="18.00"> screw(left_hand, inwardgripper, shaft2, gearbase_hole2)</text>
</g>
<!-- sequence:
 screw(left_hand, inwardgripper, shaft2, gearbase_hole2)&#45;&gt;action:
 screw(left_hand, inwardgripper, shaft2, gearbase_hole2) -->
<g id="edge14" class="edge">
<title>sequence:
 screw(left_hand, inwardgripper, shaft2, gearbase_hole2)&#45;&gt;action:
 screw(left_hand, inwardgripper, shaft2, gearbase_hole2)</title>
<path fill="none" stroke="black" d="M1570.51,-324C1650.87,-311.19 1741.21,-296.79 1819.43,-284.32"/>
<polygon fill="black" stroke="black" points="1820.07,-287.76 1829.39,-282.73 1818.97,-280.85 1820.07,-287.76"/>
</g>
<!-- target:
 hold(left_hand, inwardgripper) -->
<g id="node5" class="node">
<title>target:
 hold(left_hand, inwardgripper)</title>
<ellipse fill="#ffec8b" stroke="black" cx="201.92" cy="-144" rx="201.83" ry="36"/>
<text text-anchor="middle" x="201.92" y="-149.6" font-family="Times,serif" font-size="18.00">target:</text>
<text text-anchor="middle" x="201.92" y="-129.6" font-family="Times,serif" font-size="18.00"> hold(left_hand, inwardgripper)</text>
</g>
<!-- selector:
 change_tool(left_hand, defaultgripper, inwardgripper)&#45;&gt;target:
 hold(left_hand, inwardgripper) -->
<g id="edge4" class="edge">
<title>selector:
 change_tool(left_hand, defaultgripper, inwardgripper)&#45;&gt;target:
 hold(left_hand, inwardgripper)</title>
<path fill="none" stroke="black" d="M518.71,-216.14C459.28,-202.8 392.07,-187.7 334.89,-174.86"/>
<polygon fill="black" stroke="black" points="335.6,-171.43 325.07,-172.66 334.06,-178.26 335.6,-171.43"/>
</g>
<!-- sequence:
 change_tool(left_hand, defaultgripper, inwardgripper) -->
<g id="node6" class="node">
<title>sequence:
 change_tool(left_hand, defaultgripper, inwardgripper)</title>
<polygon fill="#ff7f24" stroke="black" points="931.92,-180 421.92,-180 421.92,-108 931.92,-108 931.92,-180"/>
<text text-anchor="middle" x="676.92" y="-149.6" font-family="Times,serif" font-size="18.00">sequence:</text>
<text text-anchor="middle" x="676.92" y="-129.6" font-family="Times,serif" font-size="18.00"> change_tool(left_hand, defaultgripper, inwardgripper)</text>
</g>
<!-- selector:
 change_tool(left_hand, defaultgripper, inwardgripper)&#45;&gt;sequence:
 change_tool(left_hand, defaultgripper, inwardgripper) -->
<g id="edge5" class="edge">
<title>selector:
 change_tool(left_hand, defaultgripper, inwardgripper)&#45;&gt;sequence:
 change_tool(left_hand, defaultgripper, inwardgripper)</title>
<path fill="none" stroke="black" d="M674.91,-216C675.14,-207.85 675.39,-199.06 675.63,-190.54"/>
<polygon fill="black" stroke="black" points="679.13,-190.42 675.92,-180.33 672.14,-190.22 679.13,-190.42"/>
</g>
<!-- precondition:
 hold(left_hand, defaultgripper) -->
<g id="node7" class="node">
<title>precondition:
 hold(left_hand, defaultgripper)</title>
<ellipse fill="#ffec8b" stroke="black" cx="289.92" cy="-36" rx="202.68" ry="36"/>
<text text-anchor="middle" x="289.92" y="-41.6" font-family="Times,serif" font-size="18.00">precondition:</text>
<text text-anchor="middle" x="289.92" y="-21.6" font-family="Times,serif" font-size="18.00"> hold(left_hand, defaultgripper)</text>
</g>
<!-- sequence:
 change_tool(left_hand, defaultgripper, inwardgripper)&#45;&gt;precondition:
 hold(left_hand, defaultgripper) -->
<g id="edge6" class="edge">
<title>sequence:
 change_tool(left_hand, defaultgripper, inwardgripper)&#45;&gt;precondition:
 hold(left_hand, defaultgripper)</title>
<path fill="none" stroke="black" d="M549.13,-108C503.49,-95.5 452.32,-81.48 407.57,-69.23"/>
<polygon fill="black" stroke="black" points="408.4,-65.82 397.83,-66.56 406.55,-72.58 408.4,-65.82"/>
</g>
<!-- precondition:
 is_empty(defaultgripper) -->
<g id="node8" class="node">
<title>precondition:
 is_empty(defaultgripper)</title>
<ellipse fill="#ffec8b" stroke="black" cx="676.92" cy="-36" rx="166.23" ry="36"/>
<text text-anchor="middle" x="676.92" y="-41.6" font-family="Times,serif" font-size="18.00">precondition:</text>
<text text-anchor="middle" x="676.92" y="-21.6" font-family="Times,serif" font-size="18.00"> is_empty(defaultgripper)</text>
</g>
<!-- sequence:
 change_tool(left_hand, defaultgripper, inwardgripper)&#45;&gt;precondition:
 is_empty(defaultgripper) -->
<g id="edge7" class="edge">
<title>sequence:
 change_tool(left_hand, defaultgripper, inwardgripper)&#45;&gt;precondition:
 is_empty(defaultgripper)</title>
<path fill="none" stroke="black" d="M676.92,-108C676.92,-99.85 676.92,-91.06 676.92,-82.54"/>
<polygon fill="black" stroke="black" points="680.42,-82.33 676.92,-72.33 673.42,-82.33 680.42,-82.33"/>
</g>
<!-- action:
 change_tool(left_hand, defaultgripper, inwardgripper) -->
<g id="node9" class="node">
<title>action:
 change_tool(left_hand, defaultgripper, inwardgripper)</title>
<ellipse fill="lightgreen" stroke="black" cx="1202.92" cy="-36" rx="342.24" ry="36"/>
<text text-anchor="middle" x="1202.92" y="-41.6" font-family="Times,serif" font-size="18.00">action:</text>
<text text-anchor="middle" x="1202.92" y="-21.6" font-family="Times,serif" font-size="18.00"> change_tool(left_hand, defaultgripper, inwardgripper)</text>
</g>
<!-- sequence:
 change_tool(left_hand, defaultgripper, inwardgripper)&#45;&gt;action:
 change_tool(left_hand, defaultgripper, inwardgripper) -->
<g id="edge8" class="edge">
<title>sequence:
 change_tool(left_hand, defaultgripper, inwardgripper)&#45;&gt;action:
 change_tool(left_hand, defaultgripper, inwardgripper)</title>
<path fill="none" stroke="black" d="M850.61,-108C911.13,-95.8 978.8,-82.16 1038.54,-70.12"/>
<polygon fill="black" stroke="black" points="1039.33,-73.54 1048.44,-68.13 1037.95,-66.67 1039.33,-73.54"/>
</g>
<!-- target:
 hold(inwardgripper, shaft2) -->
<g id="node11" class="node">
<title>target:
 hold(inwardgripper, shaft2)</title>
<ellipse fill="#ffec8b" stroke="black" cx="1344.92" cy="-144" rx="181.58" ry="36"/>
<text text-anchor="middle" x="1344.92" y="-149.6" font-family="Times,serif" font-size="18.00">target:</text>
<text text-anchor="middle" x="1344.92" y="-129.6" font-family="Times,serif" font-size="18.00"> hold(inwardgripper, shaft2)</text>
</g>
<!-- selector:
 pick_up(left_hand, inwardgripper, shaft2)&#45;&gt;target:
 hold(inwardgripper, shaft2) -->
<g id="edge10" class="edge">
<title>selector:
 pick_up(left_hand, inwardgripper, shaft2)&#45;&gt;target:
 hold(inwardgripper, shaft2)</title>
<path fill="none" stroke="black" d="M1348.94,-216C1348.47,-207.85 1347.98,-199.06 1347.49,-190.54"/>
<polygon fill="black" stroke="black" points="1350.98,-190.11 1346.92,-180.33 1343.99,-190.51 1350.98,-190.11"/>
</g>
<!-- sequence:
 pick_up(left_hand, inwardgripper, shaft2) -->
<g id="node12" class="node">
<title>sequence:
 pick_up(left_hand, inwardgripper, shaft2)</title>
<polygon fill="#ff7f24" stroke="black" points="1942.92,-180 1544.92,-180 1544.92,-108 1942.92,-108 1942.92,-180"/>
<text text-anchor="middle" x="1743.92" y="-149.6" font-family="Times,serif" font-size="18.00">sequence:</text>
<text text-anchor="middle" x="1743.92" y="-129.6" font-family="Times,serif" font-size="18.00"> pick_up(left_hand, inwardgripper, shaft2)</text>
</g>
<!-- selector:
 pick_up(left_hand, inwardgripper, shaft2)&#45;&gt;sequence:
 pick_up(left_hand, inwardgripper, shaft2) -->
<g id="edge11" class="edge">
<title>selector:
 pick_up(left_hand, inwardgripper, shaft2)&#45;&gt;sequence:
 pick_up(left_hand, inwardgripper, shaft2)</title>
<path fill="none" stroke="black" d="M1477.7,-216.8C1518.09,-205.91 1563,-193.8 1604.25,-182.67"/>
<polygon fill="black" stroke="black" points="1605.36,-186 1614.1,-180.01 1603.53,-179.24 1605.36,-186"/>
</g>
<!-- precondition:
 is_empty(inwardgripper) -->
<g id="node13" class="node">
<title>precondition:
 is_empty(inwardgripper)</title>
<ellipse fill="#ffec8b" stroke="black" cx="1740.92" cy="-36" rx="165.89" ry="36"/>
<text text-anchor="middle" x="1740.92" y="-41.6" font-family="Times,serif" font-size="18.00">precondition:</text>
<text text-anchor="middle" x="1740.92" y="-21.6" font-family="Times,serif" font-size="18.00"> is_empty(inwardgripper)</text>
</g>
<!-- sequence:
 pick_up(left_hand, inwardgripper, shaft2)&#45;&gt;precondition:
 is_empty(inwardgripper) -->
<g id="edge12" class="edge">
<title>sequence:
 pick_up(left_hand, inwardgripper, shaft2)&#45;&gt;precondition:
 is_empty(inwardgripper)</title>
<path fill="none" stroke="black" d="M1742.93,-108C1742.7,-99.85 1742.45,-91.06 1742.21,-82.54"/>
<polygon fill="black" stroke="black" points="1745.7,-82.22 1741.92,-72.33 1738.7,-82.42 1745.7,-82.22"/>
</g>
<!-- action:
 pick_up(left_hand, inwardgripper, shaft2) -->
<g id="node14" class="node">
<title>action:
 pick_up(left_hand, inwardgripper, shaft2)</title>
<ellipse fill="lightgreen" stroke="black" cx="2191.92" cy="-36" rx="266.97" ry="36"/>
<text text-anchor="middle" x="2191.92" y="-41.6" font-family="Times,serif" font-size="18.00">action:</text>
<text text-anchor="middle" x="2191.92" y="-21.6" font-family="Times,serif" font-size="18.00"> pick_up(left_hand, inwardgripper, shaft2)</text>
</g>
<!-- sequence:
 pick_up(left_hand, inwardgripper, shaft2)&#45;&gt;action:
 pick_up(left_hand, inwardgripper, shaft2) -->
<g id="edge13" class="edge">
<title>sequence:
 pick_up(left_hand, inwardgripper, shaft2)&#45;&gt;action:
 pick_up(left_hand, inwardgripper, shaft2)</title>
<path fill="none" stroke="black" d="M1891.85,-108C1943.69,-95.73 2001.69,-82.01 2052.79,-69.92"/>
<polygon fill="black" stroke="black" points="2053.65,-73.31 2062.58,-67.6 2052.04,-66.5 2053.65,-73.31"/>
</g>
</g>
</svg>
