<?xml version="1.0" encoding="UTF-8" standalone="no"?>
<!DOCTYPE svg PUBLIC "-//W3C//DTD SVG 1.1//EN"
 "http://www.w3.org/Graphics/SVG/1.1/DTD/svg11.dtd">
<!-- Generated by graphviz version 2.43.0 (0)
 -->
<!-- Title: pastafarianism Pages: 1 -->
<svg width="2504pt" height="513pt"
 viewBox="0.00 0.00 2503.95 513.48" xmlns="http://www.w3.org/2000/svg" xmlns:xlink="http://www.w3.org/1999/xlink">
<g id="graph0" class="graph" transform="scale(1 1) rotate(0) translate(4 509.48)">
<title>pastafarianism</title>
<polygon fill="white" stroke="transparent" points="-4,4 -4,-509.48 2499.95,-509.48 2499.95,4 -4,4"/>
<!-- selector:
 insert(left_hand, parallelgripper, shaft1, gearbase hole1) -->
<g id="node1" class="node">
<title>selector:
 insert(left_hand, parallelgripper, shaft1, gearbase hole1)</title>
<polygon fill="#8deeee" stroke="black" points="1514.42,-453.42 1514.42,-484.05 1273.97,-505.71 933.92,-505.71 693.47,-484.05 693.47,-453.42 933.92,-431.76 1273.97,-431.76 1514.42,-453.42"/>
<text text-anchor="middle" x="1103.94" y="-474.34" font-family="Times,serif" font-size="18.00">selector:</text>
<text text-anchor="middle" x="1103.94" y="-454.34" font-family="Times,serif" font-size="18.00"> insert(left_hand, parallelgripper, shaft1, gearbase hole1)</text>
</g>
<!-- target:
 is_inserted_to(shaft1, gearbase hole1) -->
<g id="node2" class="node">
<title>target:
 is_inserted_to(shaft1, gearbase hole1)</title>
<ellipse fill="#ffec8b" stroke="black" cx="837.94" cy="-360" rx="246.38" ry="36"/>
<text text-anchor="middle" x="837.94" y="-365.6" font-family="Times,serif" font-size="18.00">target:</text>
<text text-anchor="middle" x="837.94" y="-345.6" font-family="Times,serif" font-size="18.00"> is_inserted_to(shaft1, gearbase hole1)</text>
</g>
<!-- selector:
 insert(left_hand, parallelgripper, shaft1, gearbase hole1)&#45;&gt;target:
 is_inserted_to(shaft1, gearbase hole1) -->
<g id="edge1" class="edge">
<title>selector:
 insert(left_hand, parallelgripper, shaft1, gearbase hole1)&#45;&gt;target:
 is_inserted_to(shaft1, gearbase hole1)</title>
<path fill="none" stroke="black" d="M1014.63,-431.9C987.36,-420.96 957.33,-408.91 929.88,-397.89"/>
<polygon fill="black" stroke="black" points="930.88,-394.52 920.29,-394.04 928.27,-401.02 930.88,-394.52"/>
</g>
<!-- sequence:
 insert(left_hand, parallelgripper, shaft1, gearbase hole1) -->
<g id="node3" class="node">
<title>sequence:
 insert(left_hand, parallelgripper, shaft1, gearbase hole1)</title>
<polygon fill="#ff7f24" stroke="black" points="1637.94,-396 1101.94,-396 1101.94,-324 1637.94,-324 1637.94,-396"/>
<text text-anchor="middle" x="1369.94" y="-365.6" font-family="Times,serif" font-size="18.00">sequence:</text>
<text text-anchor="middle" x="1369.94" y="-345.6" font-family="Times,serif" font-size="18.00"> insert(left_hand, parallelgripper, shaft1, gearbase hole1)</text>
</g>
<!-- selector:
 insert(left_hand, parallelgripper, shaft1, gearbase hole1)&#45;&gt;sequence:
 insert(left_hand, parallelgripper, shaft1, gearbase hole1) -->
<g id="edge2" class="edge">
<title>selector:
 insert(left_hand, parallelgripper, shaft1, gearbase hole1)&#45;&gt;sequence:
 insert(left_hand, parallelgripper, shaft1, gearbase hole1)</title>
<path fill="none" stroke="black" d="M1193.26,-431.9C1218.93,-421.6 1247.05,-410.31 1273.15,-399.84"/>
<polygon fill="black" stroke="black" points="1274.69,-402.99 1282.67,-396.02 1272.09,-396.5 1274.69,-402.99"/>
</g>
<!-- selector:
 change_tool(left_hand, defaultgripper, parallelgripper) -->
<g id="node4" class="node">
<title>selector:
 change_tool(left_hand, defaultgripper, parallelgripper)</title>
<polygon fill="#8deeee" stroke="black" points="1058.77,-237.09 1058.77,-266.91 839.2,-288 528.68,-288 309.12,-266.91 309.12,-237.09 528.68,-216 839.2,-216 1058.77,-237.09"/>
<text text-anchor="middle" x="683.94" y="-257.6" font-family="Times,serif" font-size="18.00">selector:</text>
<text text-anchor="middle" x="683.94" y="-237.6" font-family="Times,serif" font-size="18.00"> change_tool(left_hand, defaultgripper, parallelgripper)</text>
</g>
<!-- sequence:
 insert(left_hand, parallelgripper, shaft1, gearbase hole1)&#45;&gt;selector:
 change_tool(left_hand, defaultgripper, parallelgripper) -->
<g id="edge3" class="edge">
<title>sequence:
 insert(left_hand, parallelgripper, shaft1, gearbase hole1)&#45;&gt;selector:
 change_tool(left_hand, defaultgripper, parallelgripper)</title>
<path fill="none" stroke="black" d="M1143.42,-324C1062.86,-311.55 972.57,-297.6 893.5,-285.38"/>
<polygon fill="black" stroke="black" points="893.83,-281.89 883.41,-283.82 892.76,-288.81 893.83,-281.89"/>
</g>
<!-- selector:
 pick_up(left_hand, parallelgripper, shaft1) -->
<g id="node10" class="node">
<title>selector:
 pick_up(left_hand, parallelgripper, shaft1)</title>
<polygon fill="#8deeee" stroke="black" points="1663.12,-237.09 1663.12,-266.91 1491.38,-288 1248.5,-288 1076.76,-266.91 1076.76,-237.09 1248.5,-216 1491.38,-216 1663.12,-237.09"/>
<text text-anchor="middle" x="1369.94" y="-257.6" font-family="Times,serif" font-size="18.00">selector:</text>
<text text-anchor="middle" x="1369.94" y="-237.6" font-family="Times,serif" font-size="18.00"> pick_up(left_hand, parallelgripper, shaft1)</text>
</g>
<!-- sequence:
 insert(left_hand, parallelgripper, shaft1, gearbase hole1)&#45;&gt;selector:
 pick_up(left_hand, parallelgripper, shaft1) -->
<g id="edge9" class="edge">
<title>sequence:
 insert(left_hand, parallelgripper, shaft1, gearbase hole1)&#45;&gt;selector:
 pick_up(left_hand, parallelgripper, shaft1)</title>
<path fill="none" stroke="black" d="M1369.94,-324C1369.94,-315.85 1369.94,-307.06 1369.94,-298.54"/>
<polygon fill="black" stroke="black" points="1373.44,-298.33 1369.94,-288.33 1366.44,-298.33 1373.44,-298.33"/>
</g>
<!-- action:
 insert(left_hand, parallelgripper, shaft1, gearbase hole1) -->
<g id="node15" class="node">
<title>action:
 insert(left_hand, parallelgripper, shaft1, gearbase hole1)</title>
<ellipse fill="lightgreen" stroke="black" cx="2040.94" cy="-252" rx="359.62" ry="36"/>
<text text-anchor="middle" x="2040.94" y="-257.6" font-family="Times,serif" font-size="18.00">action:</text>
<text text-anchor="middle" x="2040.94" y="-237.6" font-family="Times,serif" font-size="18.00"> insert(left_hand, parallelgripper, shaft1, gearbase hole1)</text>
</g>
<!-- sequence:
 insert(left_hand, parallelgripper, shaft1, gearbase hole1)&#45;&gt;action:
 insert(left_hand, parallelgripper, shaft1, gearbase hole1) -->
<g id="edge14" class="edge">
<title>sequence:
 insert(left_hand, parallelgripper, shaft1, gearbase hole1)&#45;&gt;action:
 insert(left_hand, parallelgripper, shaft1, gearbase hole1)</title>
<path fill="none" stroke="black" d="M1591.51,-324C1672.6,-311.19 1763.76,-296.79 1842.68,-284.32"/>
<polygon fill="black" stroke="black" points="1843.4,-287.75 1852.74,-282.73 1842.31,-280.83 1843.4,-287.75"/>
</g>
<!-- target:
 hold(left_hand, parallelgripper) -->
<g id="node5" class="node">
<title>target:
 hold(left_hand, parallelgripper)</title>
<ellipse fill="#ffec8b" stroke="black" cx="205.94" cy="-144" rx="205.88" ry="36"/>
<text text-anchor="middle" x="205.94" y="-149.6" font-family="Times,serif" font-size="18.00">target:</text>
<text text-anchor="middle" x="205.94" y="-129.6" font-family="Times,serif" font-size="18.00"> hold(left_hand, parallelgripper)</text>
</g>
<!-- selector:
 change_tool(left_hand, defaultgripper, parallelgripper)&#45;&gt;target:
 hold(left_hand, parallelgripper) -->
<g id="edge4" class="edge">
<title>selector:
 change_tool(left_hand, defaultgripper, parallelgripper)&#45;&gt;target:
 hold(left_hand, parallelgripper)</title>
<path fill="none" stroke="black" d="M526.76,-216.14C466.57,-202.8 398.51,-187.7 340.61,-174.86"/>
<polygon fill="black" stroke="black" points="341.19,-171.41 330.67,-172.66 339.67,-178.24 341.19,-171.41"/>
</g>
<!-- sequence:
 change_tool(left_hand, defaultgripper, parallelgripper) -->
<g id="node6" class="node">
<title>sequence:
 change_tool(left_hand, defaultgripper, parallelgripper)</title>
<polygon fill="#ff7f24" stroke="black" points="945.94,-180 429.94,-180 429.94,-108 945.94,-108 945.94,-180"/>
<text text-anchor="middle" x="687.94" y="-149.6" font-family="Times,serif" font-size="18.00">sequence:</text>
<text text-anchor="middle" x="687.94" y="-129.6" font-family="Times,serif" font-size="18.00"> change_tool(left_hand, defaultgripper, parallelgripper)</text>
</g>
<!-- selector:
 change_tool(left_hand, defaultgripper, parallelgripper)&#45;&gt;sequence:
 change_tool(left_hand, defaultgripper, parallelgripper) -->
<g id="edge5" class="edge">
<title>selector:
 change_tool(left_hand, defaultgripper, parallelgripper)&#45;&gt;sequence:
 change_tool(left_hand, defaultgripper, parallelgripper)</title>
<path fill="none" stroke="black" d="M685.26,-216C685.57,-207.85 685.9,-199.06 686.22,-190.54"/>
<polygon fill="black" stroke="black" points="689.73,-190.45 686.61,-180.33 682.73,-190.19 689.73,-190.45"/>
</g>
<!-- precondition:
 hold(left_hand, defaultgripper) -->
<g id="node7" class="node">
<title>precondition:
 hold(left_hand, defaultgripper)</title>
<ellipse fill="#ffec8b" stroke="black" cx="300.94" cy="-36" rx="202.68" ry="36"/>
<text text-anchor="middle" x="300.94" y="-41.6" font-family="Times,serif" font-size="18.00">precondition:</text>
<text text-anchor="middle" x="300.94" y="-21.6" font-family="Times,serif" font-size="18.00"> hold(left_hand, defaultgripper)</text>
</g>
<!-- sequence:
 change_tool(left_hand, defaultgripper, parallelgripper)&#45;&gt;precondition:
 hold(left_hand, defaultgripper) -->
<g id="edge6" class="edge">
<title>sequence:
 change_tool(left_hand, defaultgripper, parallelgripper)&#45;&gt;precondition:
 hold(left_hand, defaultgripper)</title>
<path fill="none" stroke="black" d="M560.15,-108C514.51,-95.5 463.34,-81.48 418.6,-69.23"/>
<polygon fill="black" stroke="black" points="419.43,-65.82 408.86,-66.56 417.58,-72.58 419.43,-65.82"/>
</g>
<!-- precondition:
 is_empty(defaultgripper) -->
<g id="node8" class="node">
<title>precondition:
 is_empty(defaultgripper)</title>
<ellipse fill="#ffec8b" stroke="black" cx="687.94" cy="-36" rx="166.23" ry="36"/>
<text text-anchor="middle" x="687.94" y="-41.6" font-family="Times,serif" font-size="18.00">precondition:</text>
<text text-anchor="middle" x="687.94" y="-21.6" font-family="Times,serif" font-size="18.00"> is_empty(defaultgripper)</text>
</g>
<!-- sequence:
 change_tool(left_hand, defaultgripper, parallelgripper)&#45;&gt;precondition:
 is_empty(defaultgripper) -->
<g id="edge7" class="edge">
<title>sequence:
 change_tool(left_hand, defaultgripper, parallelgripper)&#45;&gt;precondition:
 is_empty(defaultgripper)</title>
<path fill="none" stroke="black" d="M687.94,-108C687.94,-99.85 687.94,-91.06 687.94,-82.54"/>
<polygon fill="black" stroke="black" points="691.44,-82.33 687.94,-72.33 684.44,-82.33 691.44,-82.33"/>
</g>
<!-- action:
 change_tool(left_hand, defaultgripper, parallelgripper) -->
<g id="node9" class="node">
<title>action:
 change_tool(left_hand, defaultgripper, parallelgripper)</title>
<ellipse fill="lightgreen" stroke="black" cx="1218.94" cy="-36" rx="346.29" ry="36"/>
<text text-anchor="middle" x="1218.94" y="-41.6" font-family="Times,serif" font-size="18.00">action:</text>
<text text-anchor="middle" x="1218.94" y="-21.6" font-family="Times,serif" font-size="18.00"> change_tool(left_hand, defaultgripper, parallelgripper)</text>
</g>
<!-- sequence:
 change_tool(left_hand, defaultgripper, parallelgripper)&#45;&gt;action:
 change_tool(left_hand, defaultgripper, parallelgripper) -->
<g id="edge8" class="edge">
<title>sequence:
 change_tool(left_hand, defaultgripper, parallelgripper)&#45;&gt;action:
 change_tool(left_hand, defaultgripper, parallelgripper)</title>
<path fill="none" stroke="black" d="M863.28,-108C924.23,-95.83 992.38,-82.23 1052.58,-70.21"/>
<polygon fill="black" stroke="black" points="1053.44,-73.61 1062.56,-68.22 1052.07,-66.74 1053.44,-73.61"/>
</g>
<!-- target:
 hold(parallelgripper, shaft1) -->
<g id="node11" class="node">
<title>target:
 hold(parallelgripper, shaft1)</title>
<ellipse fill="#ffec8b" stroke="black" cx="1362.94" cy="-144" rx="185.63" ry="36"/>
<text text-anchor="middle" x="1362.94" y="-149.6" font-family="Times,serif" font-size="18.00">target:</text>
<text text-anchor="middle" x="1362.94" y="-129.6" font-family="Times,serif" font-size="18.00"> hold(parallelgripper, shaft1)</text>
</g>
<!-- selector:
 pick_up(left_hand, parallelgripper, shaft1)&#45;&gt;target:
 hold(parallelgripper, shaft1) -->
<g id="edge10" class="edge">
<title>selector:
 pick_up(left_hand, parallelgripper, shaft1)&#45;&gt;target:
 hold(parallelgripper, shaft1)</title>
<path fill="none" stroke="black" d="M1367.63,-216C1367.09,-207.85 1366.51,-199.06 1365.95,-190.54"/>
<polygon fill="black" stroke="black" points="1369.43,-190.08 1365.27,-180.33 1362.44,-190.54 1369.43,-190.08"/>
</g>
<!-- sequence:
 pick_up(left_hand, parallelgripper, shaft1) -->
<g id="node12" class="node">
<title>sequence:
 pick_up(left_hand, parallelgripper, shaft1)</title>
<polygon fill="#ff7f24" stroke="black" points="1970.94,-180 1566.94,-180 1566.94,-108 1970.94,-108 1970.94,-180"/>
<text text-anchor="middle" x="1768.94" y="-149.6" font-family="Times,serif" font-size="18.00">sequence:</text>
<text text-anchor="middle" x="1768.94" y="-129.6" font-family="Times,serif" font-size="18.00"> pick_up(left_hand, parallelgripper, shaft1)</text>
</g>
<!-- selector:
 pick_up(left_hand, parallelgripper, shaft1)&#45;&gt;sequence:
 pick_up(left_hand, parallelgripper, shaft1) -->
<g id="edge11" class="edge">
<title>selector:
 pick_up(left_hand, parallelgripper, shaft1)&#45;&gt;sequence:
 pick_up(left_hand, parallelgripper, shaft1)</title>
<path fill="none" stroke="black" d="M1498.66,-216.8C1539.76,-205.89 1585.46,-193.75 1627.41,-182.6"/>
<polygon fill="black" stroke="black" points="1628.38,-185.96 1637.14,-180.01 1626.58,-179.2 1628.38,-185.96"/>
</g>
<!-- precondition:
 is_empty(parallelgripper) -->
<g id="node13" class="node">
<title>precondition:
 is_empty(parallelgripper)</title>
<ellipse fill="#ffec8b" stroke="black" cx="1765.94" cy="-36" rx="169.94" ry="36"/>
<text text-anchor="middle" x="1765.94" y="-41.6" font-family="Times,serif" font-size="18.00">precondition:</text>
<text text-anchor="middle" x="1765.94" y="-21.6" font-family="Times,serif" font-size="18.00"> is_empty(parallelgripper)</text>
</g>
<!-- sequence:
 pick_up(left_hand, parallelgripper, shaft1)&#45;&gt;precondition:
 is_empty(parallelgripper) -->
<g id="edge12" class="edge">
<title>sequence:
 pick_up(left_hand, parallelgripper, shaft1)&#45;&gt;precondition:
 is_empty(parallelgripper)</title>
<path fill="none" stroke="black" d="M1767.95,-108C1767.72,-99.85 1767.47,-91.06 1767.23,-82.54"/>
<polygon fill="black" stroke="black" points="1770.72,-82.22 1766.94,-72.33 1763.73,-82.42 1770.72,-82.22"/>
</g>
<!-- action:
 pick_up(left_hand, parallelgripper, shaft1) -->
<g id="node14" class="node">
<title>action:
 pick_up(left_hand, parallelgripper, shaft1)</title>
<ellipse fill="lightgreen" stroke="black" cx="2224.94" cy="-36" rx="271.02" ry="36"/>
<text text-anchor="middle" x="2224.94" y="-41.6" font-family="Times,serif" font-size="18.00">action:</text>
<text text-anchor="middle" x="2224.94" y="-21.6" font-family="Times,serif" font-size="18.00"> pick_up(left_hand, parallelgripper, shaft1)</text>
</g>
<!-- sequence:
 pick_up(left_hand, parallelgripper, shaft1)&#45;&gt;action:
 pick_up(left_hand, parallelgripper, shaft1) -->
<g id="edge13" class="edge">
<title>sequence:
 pick_up(left_hand, parallelgripper, shaft1)&#45;&gt;action:
 pick_up(left_hand, parallelgripper, shaft1)</title>
<path fill="none" stroke="black" d="M1919.52,-108C1972.4,-95.7 2031.59,-81.94 2083.69,-69.84"/>
<polygon fill="black" stroke="black" points="2084.72,-73.19 2093.67,-67.52 2083.13,-66.37 2084.72,-73.19"/>
</g>
</g>
</svg>
