<?xml version="1.0" encoding="UTF-8" standalone="no"?>
<!DOCTYPE svg PUBLIC "-//W3C//DTD SVG 1.1//EN"
 "http://www.w3.org/Graphics/SVG/1.1/DTD/svg11.dtd">
<!-- Generated by graphviz version 2.43.0 (0)
 -->
<!-- Title: pastafarianism Pages: 1 -->
<svg width="1398pt" height="297pt"
 viewBox="0.00 0.00 1397.98 297.48" xmlns="http://www.w3.org/2000/svg" xmlns:xlink="http://www.w3.org/1999/xlink">
<g id="graph0" class="graph" transform="scale(1 1) rotate(0) translate(4 293.48)">
<title>pastafarianism</title>
<polygon fill="white" stroke="transparent" points="-4,4 -4,-293.48 1393.98,-293.48 1393.98,4 -4,4"/>
<!-- selector:
 insert(left_hand, clampgripper, gear1, shaft1) -->
<g id="node1" class="node">
<title>selector:
 insert(left_hand, clampgripper, gear1, shaft1)</title>
<polygon fill="#8deeee" stroke="black" points="734.4,-237.42 734.4,-268.05 538.81,-289.71 262.19,-289.71 66.6,-268.05 66.6,-237.42 262.19,-215.76 538.81,-215.76 734.4,-237.42"/>
<text text-anchor="middle" x="400.5" y="-258.34" font-family="Times,serif" font-size="18.00">selector:</text>
<text text-anchor="middle" x="400.5" y="-238.34" font-family="Times,serif" font-size="18.00"> insert(left_hand, clampgripper, gear1, shaft1)</text>
</g>
<!-- target:
 is_inserted_to(gear1, shaft1) -->
<g id="node2" class="node">
<title>target:
 is_inserted_to(gear1, shaft1)</title>
<ellipse fill="#ffec8b" stroke="black" cx="188.5" cy="-144" rx="188.5" ry="36"/>
<text text-anchor="middle" x="188.5" y="-149.6" font-family="Times,serif" font-size="18.00">target:</text>
<text text-anchor="middle" x="188.5" y="-129.6" font-family="Times,serif" font-size="18.00"> is_inserted_to(gear1, shaft1)</text>
</g>
<!-- selector:
 insert(left_hand, clampgripper, gear1, shaft1)&#45;&gt;target:
 is_inserted_to(gear1, shaft1) -->
<g id="edge1" class="edge">
<title>selector:
 insert(left_hand, clampgripper, gear1, shaft1)&#45;&gt;target:
 is_inserted_to(gear1, shaft1)</title>
<path fill="none" stroke="black" d="M329.32,-215.9C307.95,-205.14 284.46,-193.31 262.89,-182.46"/>
<polygon fill="black" stroke="black" points="264.29,-179.24 253.78,-177.87 261.14,-185.49 264.29,-179.24"/>
</g>
<!-- sequence:
 insert(left_hand, clampgripper, gear1, shaft1) -->
<g id="node3" class="node">
<title>sequence:
 insert(left_hand, clampgripper, gear1, shaft1)</title>
<polygon fill="#ff7f24" stroke="black" points="831.5,-180 395.5,-180 395.5,-108 831.5,-108 831.5,-180"/>
<text text-anchor="middle" x="613.5" y="-149.6" font-family="Times,serif" font-size="18.00">sequence:</text>
<text text-anchor="middle" x="613.5" y="-129.6" font-family="Times,serif" font-size="18.00"> insert(left_hand, clampgripper, gear1, shaft1)</text>
</g>
<!-- selector:
 insert(left_hand, clampgripper, gear1, shaft1)&#45;&gt;sequence:
 insert(left_hand, clampgripper, gear1, shaft1) -->
<g id="edge2" class="edge">
<title>selector:
 insert(left_hand, clampgripper, gear1, shaft1)&#45;&gt;sequence:
 insert(left_hand, clampgripper, gear1, shaft1)</title>
<path fill="none" stroke="black" d="M472.02,-215.9C492.13,-205.82 514.11,-194.81 534.62,-184.53"/>
<polygon fill="black" stroke="black" points="536.24,-187.63 543.62,-180.02 533.11,-181.37 536.24,-187.63"/>
</g>
<!-- precondition:
 hold(left_hand, clampgripper) -->
<g id="node4" class="node">
<title>precondition:
 hold(left_hand, clampgripper)</title>
<ellipse fill="#ffec8b" stroke="black" cx="225.5" cy="-36" rx="196.6" ry="36"/>
<text text-anchor="middle" x="225.5" y="-41.6" font-family="Times,serif" font-size="18.00">precondition:</text>
<text text-anchor="middle" x="225.5" y="-21.6" font-family="Times,serif" font-size="18.00"> hold(left_hand, clampgripper)</text>
</g>
<!-- sequence:
 insert(left_hand, clampgripper, gear1, shaft1)&#45;&gt;precondition:
 hold(left_hand, clampgripper) -->
<g id="edge3" class="edge">
<title>sequence:
 insert(left_hand, clampgripper, gear1, shaft1)&#45;&gt;precondition:
 hold(left_hand, clampgripper)</title>
<path fill="none" stroke="black" d="M485.38,-108C439.21,-95.39 387.4,-81.23 342.25,-68.9"/>
<polygon fill="black" stroke="black" points="343,-65.47 332.43,-66.21 341.15,-72.22 343,-65.47"/>
</g>
<!-- precondition:
 hold(clampgripper, gear1) -->
<g id="node5" class="node">
<title>precondition:
 hold(clampgripper, gear1)</title>
<ellipse fill="#ffec8b" stroke="black" cx="613.5" cy="-36" rx="173.14" ry="36"/>
<text text-anchor="middle" x="613.5" y="-41.6" font-family="Times,serif" font-size="18.00">precondition:</text>
<text text-anchor="middle" x="613.5" y="-21.6" font-family="Times,serif" font-size="18.00"> hold(clampgripper, gear1)</text>
</g>
<!-- sequence:
 insert(left_hand, clampgripper, gear1, shaft1)&#45;&gt;precondition:
 hold(clampgripper, gear1) -->
<g id="edge4" class="edge">
<title>sequence:
 insert(left_hand, clampgripper, gear1, shaft1)&#45;&gt;precondition:
 hold(clampgripper, gear1)</title>
<path fill="none" stroke="black" d="M613.5,-108C613.5,-99.85 613.5,-91.06 613.5,-82.54"/>
<polygon fill="black" stroke="black" points="617,-82.33 613.5,-72.33 610,-82.33 617,-82.33"/>
</g>
<!-- action:
 insert(left_hand, clampgripper, gear1, shaft1) -->
<g id="node6" class="node">
<title>action:
 insert(left_hand, clampgripper, gear1, shaft1)</title>
<ellipse fill="lightgreen" stroke="black" cx="1097.5" cy="-36" rx="292.46" ry="36"/>
<text text-anchor="middle" x="1097.5" y="-41.6" font-family="Times,serif" font-size="18.00">action:</text>
<text text-anchor="middle" x="1097.5" y="-21.6" font-family="Times,serif" font-size="18.00"> insert(left_hand, clampgripper, gear1, shaft1)</text>
</g>
<!-- sequence:
 insert(left_hand, clampgripper, gear1, shaft1)&#45;&gt;action:
 insert(left_hand, clampgripper, gear1, shaft1) -->
<g id="edge5" class="edge">
<title>sequence:
 insert(left_hand, clampgripper, gear1, shaft1)&#45;&gt;action:
 insert(left_hand, clampgripper, gear1, shaft1)</title>
<path fill="none" stroke="black" d="M773.32,-108C829.43,-95.71 892.22,-81.96 947.49,-69.85"/>
<polygon fill="black" stroke="black" points="948.35,-73.25 957.37,-67.69 946.85,-66.41 948.35,-73.25"/>
</g>
</g>
</svg>
