<?xml version="1.0" encoding="UTF-8" standalone="no"?>
<!DOCTYPE svg PUBLIC "-//W3C//DTD SVG 1.1//EN"
 "http://www.w3.org/Graphics/SVG/1.1/DTD/svg11.dtd">
<!-- Generated by graphviz version 2.43.0 (0)
 -->
<!-- Title: pastafarianism Pages: 1 -->
<svg width="5350pt" height="444pt"
 viewBox="0.00 0.00 5349.91 444.00" xmlns="http://www.w3.org/2000/svg" xmlns:xlink="http://www.w3.org/1999/xlink">
<g id="graph0" class="graph" transform="scale(1 1) rotate(0) translate(4 440)">
<title>pastafarianism</title>
<polygon fill="white" stroke="transparent" points="-4,4 -4,-440 5345.91,-440 5345.91,4 -4,4"/>
<!-- sequence:
 pour_and_restore(left_arm, right_arm, water_bottle, glass, table1, table2) -->
<g id="node1" class="node">
<title>sequence:
 pour_and_restore(left_arm, right_arm, water_bottle, glass, table1, table2)</title>
<polygon fill="#ff7f24" stroke="black" points="2972.43,-436 2280.43,-436 2280.43,-388 2972.43,-388 2972.43,-436"/>
<text text-anchor="middle" x="2626.43" y="-417.6" font-family="Times,serif" font-size="18.00">sequence:</text>
<text text-anchor="middle" x="2626.43" y="-397.6" font-family="Times,serif" font-size="18.00"> pour_and_restore(left_arm, right_arm, water_bottle, glass, table1, table2)</text>
</g>
<!-- sequence:
 pour_water(left_arm, right_arm, water_bottle, glass, table1, table2) -->
<g id="node2" class="node">
<title>sequence:
 pour_water(left_arm, right_arm, water_bottle, glass, table1, table2)</title>
<polygon fill="#ff7f24" stroke="black" points="1607.43,-352 969.43,-352 969.43,-280 1607.43,-280 1607.43,-352"/>
<text text-anchor="middle" x="1288.43" y="-321.6" font-family="Times,serif" font-size="18.00">sequence:</text>
<text text-anchor="middle" x="1288.43" y="-301.6" font-family="Times,serif" font-size="18.00"> pour_water(left_arm, right_arm, water_bottle, glass, table1, table2)</text>
</g>
<!-- sequence:
 pour_and_restore(left_arm, right_arm, water_bottle, glass, table1, table2)&#45;&gt;sequence:
 pour_water(left_arm, right_arm, water_bottle, glass, table1, table2) -->
<g id="edge1" class="edge">
<title>sequence:
 pour_and_restore(left_arm, right_arm, water_bottle, glass, table1, table2)&#45;&gt;sequence:
 pour_water(left_arm, right_arm, water_bottle, glass, table1, table2)</title>
<path fill="none" stroke="black" d="M2298.69,-387.97C2091.63,-373.43 1825.02,-354.7 1617.68,-340.13"/>
<polygon fill="black" stroke="black" points="1617.76,-336.63 1607.54,-339.42 1617.27,-343.61 1617.76,-336.63"/>
</g>
<!-- sequence:
 restore_objects(left_arm, right_arm, water_bottle, glass, table1, table2) -->
<g id="node11" class="node">
<title>sequence:
 restore_objects(left_arm, right_arm, water_bottle, glass, table1, table2)</title>
<polygon fill="#ff7f24" stroke="black" points="4301.93,-352 3628.93,-352 3628.93,-280 4301.93,-280 4301.93,-352"/>
<text text-anchor="middle" x="3965.43" y="-321.6" font-family="Times,serif" font-size="18.00">sequence:</text>
<text text-anchor="middle" x="3965.43" y="-301.6" font-family="Times,serif" font-size="18.00"> restore_objects(left_arm, right_arm, water_bottle, glass, table1, table2)</text>
</g>
<!-- sequence:
 pour_and_restore(left_arm, right_arm, water_bottle, glass, table1, table2)&#45;&gt;sequence:
 restore_objects(left_arm, right_arm, water_bottle, glass, table1, table2) -->
<g id="edge10" class="edge">
<title>sequence:
 pour_and_restore(left_arm, right_arm, water_bottle, glass, table1, table2)&#45;&gt;sequence:
 restore_objects(left_arm, right_arm, water_bottle, glass, table1, table2)</title>
<path fill="none" stroke="black" d="M2954.41,-387.97C3155.9,-373.83 3413.76,-355.73 3618.63,-341.35"/>
<polygon fill="black" stroke="black" points="3618.92,-344.83 3628.65,-340.64 3618.43,-337.85 3618.92,-344.83"/>
</g>
<!-- action:
 REACH(right_arm, table2) -->
<g id="node3" class="node">
<title>action:
 REACH(right_arm, table2)</title>
<ellipse fill="lightgreen" stroke="black" cx="176.43" cy="-176" rx="176.35" ry="36"/>
<text text-anchor="middle" x="176.43" y="-181.6" font-family="Times,serif" font-size="18.00">action:</text>
<text text-anchor="middle" x="176.43" y="-161.6" font-family="Times,serif" font-size="18.00"> REACH(right_arm, table2)</text>
</g>
<!-- sequence:
 pour_water(left_arm, right_arm, water_bottle, glass, table1, table2)&#45;&gt;action:
 REACH(right_arm, table2) -->
<g id="edge2" class="edge">
<title>sequence:
 pour_water(left_arm, right_arm, water_bottle, glass, table1, table2)&#45;&gt;action:
 REACH(right_arm, table2)</title>
<path fill="none" stroke="black" d="M969.36,-299.76C748.11,-287.44 473.81,-268.18 361.43,-244 327.23,-236.64 290.79,-224.45 259.37,-212.47"/>
<polygon fill="black" stroke="black" points="260.38,-209.1 249.79,-208.76 257.85,-215.63 260.38,-209.1"/>
</g>
<!-- action:
 GRASP(right_arm, water_bottle) -->
<g id="node4" class="node">
<title>action:
 GRASP(right_arm, water_bottle)</title>
<ellipse fill="lightgreen" stroke="black" cx="583.43" cy="-176" rx="212.8" ry="36"/>
<text text-anchor="middle" x="583.43" y="-181.6" font-family="Times,serif" font-size="18.00">action:</text>
<text text-anchor="middle" x="583.43" y="-161.6" font-family="Times,serif" font-size="18.00"> GRASP(right_arm, water_bottle)</text>
</g>
<!-- sequence:
 pour_water(left_arm, right_arm, water_bottle, glass, table1, table2)&#45;&gt;action:
 GRASP(right_arm, water_bottle) -->
<g id="edge3" class="edge">
<title>sequence:
 pour_water(left_arm, right_arm, water_bottle, glass, table1, table2)&#45;&gt;action:
 GRASP(right_arm, water_bottle)</title>
<path fill="none" stroke="black" d="M1001.74,-279.96C936.85,-270.06 868.5,-258.07 805.43,-244 766.11,-235.23 723.61,-223.08 686.43,-211.53"/>
<polygon fill="black" stroke="black" points="687.18,-208.1 676.59,-208.45 685.09,-214.78 687.18,-208.1"/>
</g>
<!-- action:
 RETREAT(right_arm) -->
<g id="node5" class="node">
<title>action:
 RETREAT(right_arm)</title>
<ellipse fill="lightgreen" stroke="black" cx="958.43" cy="-176" rx="144.45" ry="36"/>
<text text-anchor="middle" x="958.43" y="-181.6" font-family="Times,serif" font-size="18.00">action:</text>
<text text-anchor="middle" x="958.43" y="-161.6" font-family="Times,serif" font-size="18.00"> RETREAT(right_arm)</text>
</g>
<!-- sequence:
 pour_water(left_arm, right_arm, water_bottle, glass, table1, table2)&#45;&gt;action:
 RETREAT(right_arm) -->
<g id="edge4" class="edge">
<title>sequence:
 pour_water(left_arm, right_arm, water_bottle, glass, table1, table2)&#45;&gt;action:
 RETREAT(right_arm)</title>
<path fill="none" stroke="black" d="M1199.52,-279.97C1171.28,-268.67 1139.97,-255.97 1111.43,-244 1087.11,-233.8 1060.77,-222.4 1036.9,-211.93"/>
<polygon fill="black" stroke="black" points="1038.1,-208.63 1027.54,-207.81 1035.28,-215.04 1038.1,-208.63"/>
</g>
<!-- action:
 REACH(left_arm, table1) -->
<g id="node6" class="node">
<title>action:
 REACH(left_arm, table1)</title>
<ellipse fill="lightgreen" stroke="black" cx="1288.43" cy="-176" rx="167.91" ry="36"/>
<text text-anchor="middle" x="1288.43" y="-181.6" font-family="Times,serif" font-size="18.00">action:</text>
<text text-anchor="middle" x="1288.43" y="-161.6" font-family="Times,serif" font-size="18.00"> REACH(left_arm, table1)</text>
</g>
<!-- sequence:
 pour_water(left_arm, right_arm, water_bottle, glass, table1, table2)&#45;&gt;action:
 REACH(left_arm, table1) -->
<g id="edge5" class="edge">
<title>sequence:
 pour_water(left_arm, right_arm, water_bottle, glass, table1, table2)&#45;&gt;action:
 REACH(left_arm, table1)</title>
<path fill="none" stroke="black" d="M1288.43,-279.82C1288.43,-262.3 1288.43,-240.92 1288.43,-222.2"/>
<polygon fill="black" stroke="black" points="1291.93,-222.12 1288.43,-212.12 1284.93,-222.12 1291.93,-222.12"/>
</g>
<!-- parallel:
 ensure_objects_ready(water_bottle, glass) -->
<g id="node7" class="node">
<title>parallel:
 ensure_objects_ready(water_bottle, glass)</title>
<polygon fill="gold" stroke="black" points="2324.56,-244 1648.26,-244 1474.29,-108 2150.59,-108 2324.56,-244"/>
<text text-anchor="middle" x="1899.43" y="-191.6" font-family="Times,serif" font-size="18.00">&quot;parallel:</text>
<text text-anchor="middle" x="1899.43" y="-171.6" font-family="Times,serif" font-size="18.00"> ensure_objects_ready(water_bottle, glass)&quot;</text>
<text text-anchor="middle" x="1899.43" y="-151.6" font-family="Times,serif" font-size="18.00">type</text>
</g>
<!-- sequence:
 pour_water(left_arm, right_arm, water_bottle, glass, table1, table2)&#45;&gt;parallel:
 ensure_objects_ready(water_bottle, glass) -->
<g id="edge6" class="edge">
<title>sequence:
 pour_water(left_arm, right_arm, water_bottle, glass, table1, table2)&#45;&gt;parallel:
 ensure_objects_ready(water_bottle, glass)</title>
<path fill="none" stroke="black" d="M1443.4,-280C1499.52,-267.32 1564.69,-252.6 1627.89,-238.33"/>
<polygon fill="black" stroke="black" points="1629.03,-241.66 1638.02,-236.04 1627.49,-234.83 1629.03,-241.66"/>
</g>
<!-- action:
 POUR(right_arm, water_bottle, glass) -->
<g id="node10" class="node">
<title>action:
 POUR(right_arm, water_bottle, glass)</title>
<ellipse fill="lightgreen" stroke="black" cx="2587.43" cy="-176" rx="244.7" ry="36"/>
<text text-anchor="middle" x="2587.43" y="-181.6" font-family="Times,serif" font-size="18.00">action:</text>
<text text-anchor="middle" x="2587.43" y="-161.6" font-family="Times,serif" font-size="18.00"> POUR(right_arm, water_bottle, glass)</text>
</g>
<!-- sequence:
 pour_water(left_arm, right_arm, water_bottle, glass, table1, table2)&#45;&gt;action:
 POUR(right_arm, water_bottle, glass) -->
<g id="edge9" class="edge">
<title>sequence:
 pour_water(left_arm, right_arm, water_bottle, glass, table1, table2)&#45;&gt;action:
 POUR(right_arm, water_bottle, glass)</title>
<path fill="none" stroke="black" d="M1607.49,-309.02C1815.37,-301.28 2091.86,-283.7 2333.43,-244 2380.49,-236.27 2431.5,-223.67 2475.37,-211.47"/>
<polygon fill="black" stroke="black" points="2476.51,-214.79 2485.19,-208.71 2474.62,-208.05 2476.51,-214.79"/>
</g>
<!-- condition:
 is_ready(water_bottle) -->
<g id="node8" class="node">
<title>condition:
 is_ready(water_bottle)</title>
<ellipse fill="#ffec8b" stroke="black" cx="1761.43" cy="-36" rx="151.71" ry="36"/>
<text text-anchor="middle" x="1761.43" y="-41.6" font-family="Times,serif" font-size="18.00">condition:</text>
<text text-anchor="middle" x="1761.43" y="-21.6" font-family="Times,serif" font-size="18.00"> is_ready(water_bottle)</text>
</g>
<!-- parallel:
 ensure_objects_ready(water_bottle, glass)&#45;&gt;condition:
 is_ready(water_bottle) -->
<g id="edge7" class="edge">
<title>parallel:
 ensure_objects_ready(water_bottle, glass)&#45;&gt;condition:
 is_ready(water_bottle)</title>
<path fill="none" stroke="black" d="M1832.04,-107.62C1822.11,-97.68 1812.13,-87.71 1802.93,-78.51"/>
<polygon fill="black" stroke="black" points="1805.28,-75.91 1795.74,-71.31 1800.33,-80.86 1805.28,-75.91"/>
</g>
<!-- condition:
 is_ready(glass) -->
<g id="node9" class="node">
<title>condition:
 is_ready(glass)</title>
<ellipse fill="#ffec8b" stroke="black" cx="2036.43" cy="-36" rx="105.14" ry="36"/>
<text text-anchor="middle" x="2036.43" y="-41.6" font-family="Times,serif" font-size="18.00">condition:</text>
<text text-anchor="middle" x="2036.43" y="-21.6" font-family="Times,serif" font-size="18.00"> is_ready(glass)</text>
</g>
<!-- parallel:
 ensure_objects_ready(water_bottle, glass)&#45;&gt;condition:
 is_ready(glass) -->
<g id="edge8" class="edge">
<title>parallel:
 ensure_objects_ready(water_bottle, glass)&#45;&gt;condition:
 is_ready(glass)</title>
<path fill="none" stroke="black" d="M1966.32,-107.62C1976.5,-97.36 1986.73,-87.05 1996.11,-77.61"/>
<polygon fill="black" stroke="black" points="1998.87,-79.8 2003.43,-70.24 1993.9,-74.87 1998.87,-79.8"/>
</g>
<!-- action:
 RELEASE(right_arm, water_bottle) -->
<g id="node12" class="node">
<title>action:
 RELEASE(right_arm, water_bottle)</title>
<ellipse fill="lightgreen" stroke="black" cx="3080.43" cy="-176" rx="230.18" ry="36"/>
<text text-anchor="middle" x="3080.43" y="-181.6" font-family="Times,serif" font-size="18.00">action:</text>
<text text-anchor="middle" x="3080.43" y="-161.6" font-family="Times,serif" font-size="18.00"> RELEASE(right_arm, water_bottle)</text>
</g>
<!-- sequence:
 restore_objects(left_arm, right_arm, water_bottle, glass, table1, table2)&#45;&gt;action:
 RELEASE(right_arm, water_bottle) -->
<g id="edge11" class="edge">
<title>sequence:
 restore_objects(left_arm, right_arm, water_bottle, glass, table1, table2)&#45;&gt;action:
 RELEASE(right_arm, water_bottle)</title>
<path fill="none" stroke="black" d="M3628.57,-288.52C3528.56,-277.83 3419.12,-263.32 3319.43,-244 3276.15,-235.61 3229.29,-223.23 3188.63,-211.39"/>
<polygon fill="black" stroke="black" points="3189.56,-208.01 3178.98,-208.55 3187.58,-214.73 3189.56,-208.01"/>
</g>
<!-- &quot;action:\n REACH(right_arm, table2)&quot;* -->
<g id="node13" class="node">
<title>&quot;action:\n REACH(right_arm, table2)&quot;*</title>
<ellipse fill="lightgreen" stroke="black" cx="3517.43" cy="-176" rx="188.5" ry="36"/>
<text text-anchor="middle" x="3517.43" y="-181.6" font-family="Times,serif" font-size="18.00">&quot;action:</text>
<text text-anchor="middle" x="3517.43" y="-161.6" font-family="Times,serif" font-size="18.00"> REACH(right_arm, table2)&quot;*</text>
</g>
<!-- sequence:
 restore_objects(left_arm, right_arm, water_bottle, glass, table1, table2)&#45;&gt;&quot;action:\n REACH(right_arm, table2)&quot;* -->
<g id="edge12" class="edge">
<title>sequence:
 restore_objects(left_arm, right_arm, water_bottle, glass, table1, table2)&#45;&gt;&quot;action:\n REACH(right_arm, table2)&quot;*</title>
<path fill="none" stroke="black" d="M3837.24,-279.91C3798.03,-268.83 3754.85,-256.26 3715.43,-244 3682.77,-233.84 3647.32,-222.08 3615.56,-211.28"/>
<polygon fill="black" stroke="black" points="3616.42,-207.88 3605.83,-207.96 3614.16,-214.5 3616.42,-207.88"/>
</g>
<!-- &quot;action:\n RELEASE(right_arm, water_bottle)&quot;* -->
<g id="node14" class="node">
<title>&quot;action:\n RELEASE(right_arm, water_bottle)&quot;*</title>
<ellipse fill="lightgreen" stroke="black" cx="3965.43" cy="-176" rx="241.49" ry="36"/>
<text text-anchor="middle" x="3965.43" y="-181.6" font-family="Times,serif" font-size="18.00">&quot;action:</text>
<text text-anchor="middle" x="3965.43" y="-161.6" font-family="Times,serif" font-size="18.00"> RELEASE(right_arm, water_bottle)&quot;*</text>
</g>
<!-- sequence:
 restore_objects(left_arm, right_arm, water_bottle, glass, table1, table2)&#45;&gt;&quot;action:\n RELEASE(right_arm, water_bottle)&quot;* -->
<g id="edge13" class="edge">
<title>sequence:
 restore_objects(left_arm, right_arm, water_bottle, glass, table1, table2)&#45;&gt;&quot;action:\n RELEASE(right_arm, water_bottle)&quot;*</title>
<path fill="none" stroke="black" d="M3965.43,-279.82C3965.43,-262.3 3965.43,-240.92 3965.43,-222.2"/>
<polygon fill="black" stroke="black" points="3968.93,-222.12 3965.43,-212.12 3961.93,-222.12 3968.93,-222.12"/>
</g>
<!-- action:
 RELEASE(left_arm, glass) -->
<g id="node15" class="node">
<title>action:
 RELEASE(left_arm, glass)</title>
<ellipse fill="lightgreen" stroke="black" cx="4399.43" cy="-176" rx="174.33" ry="36"/>
<text text-anchor="middle" x="4399.43" y="-181.6" font-family="Times,serif" font-size="18.00">action:</text>
<text text-anchor="middle" x="4399.43" y="-161.6" font-family="Times,serif" font-size="18.00"> RELEASE(left_arm, glass)</text>
</g>
<!-- sequence:
 restore_objects(left_arm, right_arm, water_bottle, glass, table1, table2)&#45;&gt;action:
 RELEASE(left_arm, glass) -->
<g id="edge14" class="edge">
<title>sequence:
 restore_objects(left_arm, right_arm, water_bottle, glass, table1, table2)&#45;&gt;action:
 RELEASE(left_arm, glass)</title>
<path fill="none" stroke="black" d="M4095.72,-279.93C4134.42,-268.99 4176.79,-256.5 4215.43,-244 4246.07,-234.08 4279.24,-222.33 4308.86,-211.46"/>
<polygon fill="black" stroke="black" points="4310.17,-214.7 4318.34,-207.96 4307.75,-208.14 4310.17,-214.7"/>
</g>
<!-- &quot;action:\n REACH(left_arm, table1)&quot;* -->
<g id="node16" class="node">
<title>&quot;action:\n REACH(left_arm, table1)&quot;*</title>
<ellipse fill="lightgreen" stroke="black" cx="4771.43" cy="-176" rx="179.22" ry="36"/>
<text text-anchor="middle" x="4771.43" y="-181.6" font-family="Times,serif" font-size="18.00">&quot;action:</text>
<text text-anchor="middle" x="4771.43" y="-161.6" font-family="Times,serif" font-size="18.00"> REACH(left_arm, table1)&quot;*</text>
</g>
<!-- sequence:
 restore_objects(left_arm, right_arm, water_bottle, glass, table1, table2)&#45;&gt;&quot;action:\n REACH(left_arm, table1)&quot;* -->
<g id="edge15" class="edge">
<title>sequence:
 restore_objects(left_arm, right_arm, water_bottle, glass, table1, table2)&#45;&gt;&quot;action:\n REACH(left_arm, table1)&quot;*</title>
<path fill="none" stroke="black" d="M4302.01,-290.2C4393.68,-279.67 4492.48,-264.83 4582.43,-244 4616.7,-236.06 4653.36,-223.95 4685.19,-212.2"/>
<polygon fill="black" stroke="black" points="4686.76,-215.35 4694.9,-208.57 4684.31,-208.79 4686.76,-215.35"/>
</g>
<!-- &quot;action:\n RELEASE(left_arm, glass)&quot;* -->
<g id="node17" class="node">
<title>&quot;action:\n RELEASE(left_arm, glass)&quot;*</title>
<ellipse fill="lightgreen" stroke="black" cx="5155.43" cy="-176" rx="186.48" ry="36"/>
<text text-anchor="middle" x="5155.43" y="-181.6" font-family="Times,serif" font-size="18.00">&quot;action:</text>
<text text-anchor="middle" x="5155.43" y="-161.6" font-family="Times,serif" font-size="18.00"> RELEASE(left_arm, glass)&quot;*</text>
</g>
<!-- sequence:
 restore_objects(left_arm, right_arm, water_bottle, glass, table1, table2)&#45;&gt;&quot;action:\n RELEASE(left_arm, glass)&quot;* -->
<g id="edge16" class="edge">
<title>sequence:
 restore_objects(left_arm, right_arm, water_bottle, glass, table1, table2)&#45;&gt;&quot;action:\n RELEASE(left_arm, glass)&quot;*</title>
<path fill="none" stroke="black" d="M4302.11,-300.23C4540.18,-288.02 4837.77,-268.7 4959.43,-244 4995.67,-236.64 5034.43,-224.38 5067.83,-212.34"/>
<polygon fill="black" stroke="black" points="5069.36,-215.51 5077.56,-208.79 5066.96,-208.93 5069.36,-215.51"/>
</g>
</g>
</svg>
