<?xml version="1.0" encoding="UTF-8" standalone="no"?>
<!DOCTYPE svg PUBLIC "-//W3C//DTD SVG 1.1//EN"
 "http://www.w3.org/Graphics/SVG/1.1/DTD/svg11.dtd">
<!-- Generated by graphviz version 2.43.0 (0)
 -->
<!-- Title: pastafarianism Pages: 1 -->
<svg width="1619pt" height="513pt"
 viewBox="0.00 0.00 1619.10 513.48" xmlns="http://www.w3.org/2000/svg" xmlns:xlink="http://www.w3.org/1999/xlink">
<g id="graph0" class="graph" transform="scale(1 1) rotate(0) translate(4 509.48)">
<title>pastafarianism</title>
<polygon fill="white" stroke="transparent" points="-4,4 -4,-509.48 1615.1,-509.48 1615.1,4 -4,4"/>
<!-- selector:
 insert(left_hand, defaultgripper, gear1, shaft1) -->
<g id="node1" class="node">
<title>selector:
 insert(left_hand, defaultgripper, gear1, shaft1)</title>
<polygon fill="#8deeee" stroke="black" points="835.26,-453.42 835.26,-484.05 635.7,-505.71 353.47,-505.71 153.91,-484.05 153.91,-453.42 353.47,-431.76 635.7,-431.76 835.26,-453.42"/>
<text text-anchor="middle" x="494.59" y="-474.34" font-family="Times,serif" font-size="18.00">selector:</text>
<text text-anchor="middle" x="494.59" y="-454.34" font-family="Times,serif" font-size="18.00"> insert(left_hand, defaultgripper, gear1, shaft1)</text>
</g>
<!-- target:
 is_inserted_to(gear1, shaft1) -->
<g id="node2" class="node">
<title>target:
 is_inserted_to(gear1, shaft1)</title>
<ellipse fill="#ffec8b" stroke="black" cx="280.59" cy="-360" rx="188.5" ry="36"/>
<text text-anchor="middle" x="280.59" y="-365.6" font-family="Times,serif" font-size="18.00">target:</text>
<text text-anchor="middle" x="280.59" y="-345.6" font-family="Times,serif" font-size="18.00"> is_inserted_to(gear1, shaft1)</text>
</g>
<!-- selector:
 insert(left_hand, defaultgripper, gear1, shaft1)&#45;&gt;target:
 is_inserted_to(gear1, shaft1) -->
<g id="edge1" class="edge">
<title>selector:
 insert(left_hand, defaultgripper, gear1, shaft1)&#45;&gt;target:
 is_inserted_to(gear1, shaft1)</title>
<path fill="none" stroke="black" d="M422.73,-431.9C401.17,-421.14 377.45,-409.31 355.68,-398.46"/>
<polygon fill="black" stroke="black" points="356.99,-395.2 346.48,-393.87 353.87,-401.46 356.99,-395.2"/>
</g>
<!-- sequence:
 insert(left_hand, defaultgripper, gear1, shaft1) -->
<g id="node3" class="node">
<title>sequence:
 insert(left_hand, defaultgripper, gear1, shaft1)</title>
<polygon fill="#ff7f24" stroke="black" points="932.09,-396 487.09,-396 487.09,-324 932.09,-324 932.09,-396"/>
<text text-anchor="middle" x="709.59" y="-365.6" font-family="Times,serif" font-size="18.00">sequence:</text>
<text text-anchor="middle" x="709.59" y="-345.6" font-family="Times,serif" font-size="18.00"> insert(left_hand, defaultgripper, gear1, shaft1)</text>
</g>
<!-- selector:
 insert(left_hand, defaultgripper, gear1, shaft1)&#45;&gt;sequence:
 insert(left_hand, defaultgripper, gear1, shaft1) -->
<g id="edge2" class="edge">
<title>selector:
 insert(left_hand, defaultgripper, gear1, shaft1)&#45;&gt;sequence:
 insert(left_hand, defaultgripper, gear1, shaft1)</title>
<path fill="none" stroke="black" d="M566.78,-431.9C587.07,-421.82 609.26,-410.81 629.96,-400.53"/>
<polygon fill="black" stroke="black" points="631.65,-403.6 639.05,-396.02 628.53,-397.33 631.65,-403.6"/>
</g>
<!-- precondition:
 hold(left_hand, defaultgripper) -->
<g id="node4" class="node">
<title>precondition:
 hold(left_hand, defaultgripper)</title>
<ellipse fill="#ffec8b" stroke="black" cx="202.59" cy="-252" rx="202.68" ry="36"/>
<text text-anchor="middle" x="202.59" y="-257.6" font-family="Times,serif" font-size="18.00">precondition:</text>
<text text-anchor="middle" x="202.59" y="-237.6" font-family="Times,serif" font-size="18.00"> hold(left_hand, defaultgripper)</text>
</g>
<!-- sequence:
 insert(left_hand, defaultgripper, gear1, shaft1)&#45;&gt;precondition:
 hold(left_hand, defaultgripper) -->
<g id="edge3" class="edge">
<title>sequence:
 insert(left_hand, defaultgripper, gear1, shaft1)&#45;&gt;precondition:
 hold(left_hand, defaultgripper)</title>
<path fill="none" stroke="black" d="M542.17,-324C477.01,-310.37 403.24,-294.95 341.14,-281.97"/>
<polygon fill="black" stroke="black" points="341.78,-278.53 331.28,-279.91 340.35,-285.38 341.78,-278.53"/>
</g>
<!-- selector:
 pick_up(left_hand, defaultgripper, gear1) -->
<g id="node5" class="node">
<title>selector:
 pick_up(left_hand, defaultgripper, gear1)</title>
<polygon fill="#8deeee" stroke="black" points="995.75,-237.09 995.75,-266.91 828.12,-288 591.06,-288 423.43,-266.91 423.43,-237.09 591.06,-216 828.12,-216 995.75,-237.09"/>
<text text-anchor="middle" x="709.59" y="-257.6" font-family="Times,serif" font-size="18.00">selector:</text>
<text text-anchor="middle" x="709.59" y="-237.6" font-family="Times,serif" font-size="18.00"> pick_up(left_hand, defaultgripper, gear1)</text>
</g>
<!-- sequence:
 insert(left_hand, defaultgripper, gear1, shaft1)&#45;&gt;selector:
 pick_up(left_hand, defaultgripper, gear1) -->
<g id="edge4" class="edge">
<title>sequence:
 insert(left_hand, defaultgripper, gear1, shaft1)&#45;&gt;selector:
 pick_up(left_hand, defaultgripper, gear1)</title>
<path fill="none" stroke="black" d="M709.59,-324C709.59,-315.85 709.59,-307.06 709.59,-298.54"/>
<polygon fill="black" stroke="black" points="713.09,-298.33 709.59,-288.33 706.09,-298.33 713.09,-298.33"/>
</g>
<!-- action:
 insert(left_hand, defaultgripper, gear1, shaft1) -->
<g id="node10" class="node">
<title>action:
 insert(left_hand, defaultgripper, gear1, shaft1)</title>
<ellipse fill="lightgreen" stroke="black" cx="1312.59" cy="-252" rx="298.53" ry="36"/>
<text text-anchor="middle" x="1312.59" y="-257.6" font-family="Times,serif" font-size="18.00">action:</text>
<text text-anchor="middle" x="1312.59" y="-237.6" font-family="Times,serif" font-size="18.00"> insert(left_hand, defaultgripper, gear1, shaft1)</text>
</g>
<!-- sequence:
 insert(left_hand, defaultgripper, gear1, shaft1)&#45;&gt;action:
 insert(left_hand, defaultgripper, gear1, shaft1) -->
<g id="edge9" class="edge">
<title>sequence:
 insert(left_hand, defaultgripper, gear1, shaft1)&#45;&gt;action:
 insert(left_hand, defaultgripper, gear1, shaft1)</title>
<path fill="none" stroke="black" d="M908.7,-324C982.59,-311.01 1065.78,-296.39 1137.37,-283.8"/>
<polygon fill="black" stroke="black" points="1138.15,-287.22 1147.39,-282.04 1136.94,-280.32 1138.15,-287.22"/>
</g>
<!-- target:
 hold(defaultgripper, gear1) -->
<g id="node6" class="node">
<title>target:
 hold(defaultgripper, gear1)</title>
<ellipse fill="#ffec8b" stroke="black" cx="512.59" cy="-144" rx="179.22" ry="36"/>
<text text-anchor="middle" x="512.59" y="-149.6" font-family="Times,serif" font-size="18.00">target:</text>
<text text-anchor="middle" x="512.59" y="-129.6" font-family="Times,serif" font-size="18.00"> hold(defaultgripper, gear1)</text>
</g>
<!-- selector:
 pick_up(left_hand, defaultgripper, gear1)&#45;&gt;target:
 hold(defaultgripper, gear1) -->
<g id="edge5" class="edge">
<title>selector:
 pick_up(left_hand, defaultgripper, gear1)&#45;&gt;target:
 hold(defaultgripper, gear1)</title>
<path fill="none" stroke="black" d="M644.54,-216C624.72,-205.33 602.85,-193.57 582.71,-182.73"/>
<polygon fill="black" stroke="black" points="584.36,-179.65 573.9,-177.99 581.05,-185.81 584.36,-179.65"/>
</g>
<!-- sequence:
 pick_up(left_hand, defaultgripper, gear1) -->
<g id="node7" class="node">
<title>sequence:
 pick_up(left_hand, defaultgripper, gear1)</title>
<polygon fill="#ff7f24" stroke="black" points="1103.59,-180 709.59,-180 709.59,-108 1103.59,-108 1103.59,-180"/>
<text text-anchor="middle" x="906.59" y="-149.6" font-family="Times,serif" font-size="18.00">sequence:</text>
<text text-anchor="middle" x="906.59" y="-129.6" font-family="Times,serif" font-size="18.00"> pick_up(left_hand, defaultgripper, gear1)</text>
</g>
<!-- selector:
 pick_up(left_hand, defaultgripper, gear1)&#45;&gt;sequence:
 pick_up(left_hand, defaultgripper, gear1) -->
<g id="edge6" class="edge">
<title>selector:
 pick_up(left_hand, defaultgripper, gear1)&#45;&gt;sequence:
 pick_up(left_hand, defaultgripper, gear1)</title>
<path fill="none" stroke="black" d="M774.64,-216C793.12,-206.05 813.38,-195.15 832.36,-184.94"/>
<polygon fill="black" stroke="black" points="834.12,-187.97 841.27,-180.15 830.8,-181.8 834.12,-187.97"/>
</g>
<!-- precondition:
 is_empty(defaultgripper) -->
<g id="node8" class="node">
<title>precondition:
 is_empty(defaultgripper)</title>
<ellipse fill="#ffec8b" stroke="black" cx="681.59" cy="-36" rx="166.23" ry="36"/>
<text text-anchor="middle" x="681.59" y="-41.6" font-family="Times,serif" font-size="18.00">precondition:</text>
<text text-anchor="middle" x="681.59" y="-21.6" font-family="Times,serif" font-size="18.00"> is_empty(defaultgripper)</text>
</g>
<!-- sequence:
 pick_up(left_hand, defaultgripper, gear1)&#45;&gt;precondition:
 is_empty(defaultgripper) -->
<g id="edge7" class="edge">
<title>sequence:
 pick_up(left_hand, defaultgripper, gear1)&#45;&gt;precondition:
 is_empty(defaultgripper)</title>
<path fill="none" stroke="black" d="M832.29,-108C808.67,-96.87 782.51,-84.54 758.7,-73.33"/>
<polygon fill="black" stroke="black" points="759.89,-70.02 749.35,-68.92 756.9,-76.35 759.89,-70.02"/>
</g>
<!-- action:
 pick_up(left_hand, defaultgripper, gear1) -->
<g id="node9" class="node">
<title>action:
 pick_up(left_hand, defaultgripper, gear1)</title>
<ellipse fill="lightgreen" stroke="black" cx="1130.59" cy="-36" rx="264.11" ry="36"/>
<text text-anchor="middle" x="1130.59" y="-41.6" font-family="Times,serif" font-size="18.00">action:</text>
<text text-anchor="middle" x="1130.59" y="-21.6" font-family="Times,serif" font-size="18.00"> pick_up(left_hand, defaultgripper, gear1)</text>
</g>
<!-- sequence:
 pick_up(left_hand, defaultgripper, gear1)&#45;&gt;action:
 pick_up(left_hand, defaultgripper, gear1) -->
<g id="edge8" class="edge">
<title>sequence:
 pick_up(left_hand, defaultgripper, gear1)&#45;&gt;action:
 pick_up(left_hand, defaultgripper, gear1)</title>
<path fill="none" stroke="black" d="M980.55,-108C1002.84,-97.45 1027.41,-85.82 1050.1,-75.09"/>
<polygon fill="black" stroke="black" points="1051.82,-78.15 1059.36,-70.7 1048.83,-71.82 1051.82,-78.15"/>
</g>
</g>
</svg>
