<?xml version="1.0" encoding="UTF-8" standalone="no"?>
<!DOCTYPE svg PUBLIC "-//W3C//DTD SVG 1.1//EN"
 "http://www.w3.org/Graphics/SVG/1.1/DTD/svg11.dtd">
<!-- Generated by graphviz version 2.43.0 (0)
 -->
<!-- Title: pastafarianism Pages: 1 -->
<svg width="4492pt" height="444pt"
 viewBox="0.00 0.00 4492.49 444.00" xmlns="http://www.w3.org/2000/svg" xmlns:xlink="http://www.w3.org/1999/xlink">
<g id="graph0" class="graph" transform="scale(1 1) rotate(0) translate(4 440)">
<title>pastafarianism</title>
<polygon fill="white" stroke="transparent" points="-4,4 -4,-440 4488.49,-440 4488.49,4 -4,4"/>
<!-- sequence:
 main_sequence -->
<g id="node1" class="node">
<title>sequence:
 main_sequence</title>
<polygon fill="#ff7f24" stroke="black" points="2628.21,-436 2467.21,-436 2467.21,-388 2628.21,-388 2628.21,-436"/>
<text text-anchor="middle" x="2547.71" y="-417.6" font-family="Times,serif" font-size="18.00">sequence:</text>
<text text-anchor="middle" x="2547.71" y="-397.6" font-family="Times,serif" font-size="18.00"> main_sequence</text>
</g>
<!-- parallel:
 reach_grasp_retreat -->
<g id="node2" class="node">
<title>parallel:
 reach_grasp_retreat</title>
<polygon fill="gold" stroke="black" points="1782.29,-352 1432.98,-352 1343.12,-216 1692.43,-216 1782.29,-352"/>
<text text-anchor="middle" x="1562.71" y="-299.6" font-family="Times,serif" font-size="18.00">&quot;parallel:</text>
<text text-anchor="middle" x="1562.71" y="-279.6" font-family="Times,serif" font-size="18.00"> reach_grasp_retreat&quot;</text>
<text text-anchor="middle" x="1562.71" y="-259.6" font-family="Times,serif" font-size="18.00">type</text>
</g>
<!-- sequence:
 main_sequence&#45;&gt;parallel:
 reach_grasp_retreat -->
<g id="edge1" class="edge">
<title>sequence:
 main_sequence&#45;&gt;parallel:
 reach_grasp_retreat</title>
<path fill="none" stroke="black" d="M2467.1,-400.69C2315.02,-381.23 1981.59,-338.58 1764.86,-310.86"/>
<polygon fill="black" stroke="black" points="1764.99,-307.35 1754.63,-309.55 1764.1,-314.29 1764.99,-307.35"/>
</g>
<!-- sequence:
 right_arm_pour -->
<g id="node11" class="node">
<title>sequence:
 right_arm_pour</title>
<polygon fill="#ff7f24" stroke="black" points="2628.71,-320 2466.71,-320 2466.71,-248 2628.71,-248 2628.71,-320"/>
<text text-anchor="middle" x="2547.71" y="-289.6" font-family="Times,serif" font-size="18.00">sequence:</text>
<text text-anchor="middle" x="2547.71" y="-269.6" font-family="Times,serif" font-size="18.00"> right_arm_pour</text>
</g>
<!-- sequence:
 main_sequence&#45;&gt;sequence:
 right_arm_pour -->
<g id="edge10" class="edge">
<title>sequence:
 main_sequence&#45;&gt;sequence:
 right_arm_pour</title>
<path fill="none" stroke="black" d="M2547.71,-387.89C2547.71,-371.87 2547.71,-350.01 2547.71,-330.55"/>
<polygon fill="black" stroke="black" points="2551.21,-330.34 2547.71,-320.34 2544.21,-330.34 2551.21,-330.34"/>
</g>
<!-- parallel:
 release_objects -->
<g id="node15" class="node">
<title>parallel:
 release_objects</title>
<polygon fill="gold" stroke="black" points="3417.13,-352 3138.07,-352 3066.28,-216 3345.34,-216 3417.13,-352"/>
<text text-anchor="middle" x="3241.71" y="-299.6" font-family="Times,serif" font-size="18.00">&quot;parallel:</text>
<text text-anchor="middle" x="3241.71" y="-279.6" font-family="Times,serif" font-size="18.00"> release_objects&quot;</text>
<text text-anchor="middle" x="3241.71" y="-259.6" font-family="Times,serif" font-size="18.00">type</text>
</g>
<!-- sequence:
 main_sequence&#45;&gt;parallel:
 release_objects -->
<g id="edge14" class="edge">
<title>sequence:
 main_sequence&#45;&gt;parallel:
 release_objects</title>
<path fill="none" stroke="black" d="M2628.33,-396.36C2745.01,-375.18 2962.48,-335.69 3104.64,-309.89"/>
<polygon fill="black" stroke="black" points="3105.53,-313.28 3114.74,-308.05 3104.28,-306.39 3105.53,-313.28"/>
</g>
<!-- sequence:
 left_arm_reach_grasp_retreat -->
<g id="node3" class="node">
<title>sequence:
 left_arm_reach_grasp_retreat</title>
<polygon fill="#ff7f24" stroke="black" points="810.21,-180 521.21,-180 521.21,-108 810.21,-108 810.21,-180"/>
<text text-anchor="middle" x="665.71" y="-149.6" font-family="Times,serif" font-size="18.00">sequence:</text>
<text text-anchor="middle" x="665.71" y="-129.6" font-family="Times,serif" font-size="18.00"> left_arm_reach_grasp_retreat</text>
</g>
<!-- parallel:
 reach_grasp_retreat&#45;&gt;sequence:
 left_arm_reach_grasp_retreat -->
<g id="edge2" class="edge">
<title>parallel:
 reach_grasp_retreat&#45;&gt;sequence:
 left_arm_reach_grasp_retreat</title>
<path fill="none" stroke="black" d="M1367.52,-252.97C1203.53,-227.74 972.31,-192.17 820.77,-168.86"/>
<polygon fill="black" stroke="black" points="820.86,-165.33 810.45,-167.27 819.8,-172.25 820.86,-165.33"/>
</g>
<!-- sequence:
 right_arm_reach_grasp_retreat -->
<g id="node7" class="node">
<title>sequence:
 right_arm_reach_grasp_retreat</title>
<polygon fill="#ff7f24" stroke="black" points="1713.71,-180 1411.71,-180 1411.71,-108 1713.71,-108 1713.71,-180"/>
<text text-anchor="middle" x="1562.71" y="-149.6" font-family="Times,serif" font-size="18.00">sequence:</text>
<text text-anchor="middle" x="1562.71" y="-129.6" font-family="Times,serif" font-size="18.00"> right_arm_reach_grasp_retreat</text>
</g>
<!-- parallel:
 reach_grasp_retreat&#45;&gt;sequence:
 right_arm_reach_grasp_retreat -->
<g id="edge6" class="edge">
<title>parallel:
 reach_grasp_retreat&#45;&gt;sequence:
 right_arm_reach_grasp_retreat</title>
<path fill="none" stroke="black" d="M1562.71,-215.62C1562.71,-206.96 1562.71,-198.26 1562.71,-190.08"/>
<polygon fill="black" stroke="black" points="1566.21,-190.04 1562.71,-180.04 1559.21,-190.04 1566.21,-190.04"/>
</g>
<!-- action:
 REACH(left_arm, table1) -->
<g id="node4" class="node">
<title>action:
 REACH(left_arm, table1)</title>
<ellipse fill="lightgreen" stroke="black" cx="167.71" cy="-36" rx="167.91" ry="36"/>
<text text-anchor="middle" x="167.71" y="-41.6" font-family="Times,serif" font-size="18.00">action:</text>
<text text-anchor="middle" x="167.71" y="-21.6" font-family="Times,serif" font-size="18.00"> REACH(left_arm, table1)</text>
</g>
<!-- sequence:
 left_arm_reach_grasp_retreat&#45;&gt;action:
 REACH(left_arm, table1) -->
<g id="edge3" class="edge">
<title>sequence:
 left_arm_reach_grasp_retreat&#45;&gt;action:
 REACH(left_arm, table1)</title>
<path fill="none" stroke="black" d="M520.99,-112.2C449.42,-96.96 363.81,-78.74 294.79,-64.05"/>
<polygon fill="black" stroke="black" points="295.24,-60.57 284.73,-61.91 293.78,-67.41 295.24,-60.57"/>
</g>
<!-- action:
 GRASP(left_arm, glass) -->
<g id="node5" class="node">
<title>action:
 GRASP(left_arm, glass)</title>
<ellipse fill="lightgreen" stroke="black" cx="510.71" cy="-36" rx="156.94" ry="36"/>
<text text-anchor="middle" x="510.71" y="-41.6" font-family="Times,serif" font-size="18.00">action:</text>
<text text-anchor="middle" x="510.71" y="-21.6" font-family="Times,serif" font-size="18.00"> GRASP(left_arm, glass)</text>
</g>
<!-- sequence:
 left_arm_reach_grasp_retreat&#45;&gt;action:
 GRASP(left_arm, glass) -->
<g id="edge4" class="edge">
<title>sequence:
 left_arm_reach_grasp_retreat&#45;&gt;action:
 GRASP(left_arm, glass)</title>
<path fill="none" stroke="black" d="M614.52,-108C599.57,-97.77 583.13,-86.53 567.83,-76.07"/>
<polygon fill="black" stroke="black" points="569.7,-73.1 559.47,-70.35 565.75,-78.88 569.7,-73.1"/>
</g>
<!-- action:
 RETREAT(left_arm) -->
<g id="node6" class="node">
<title>action:
 RETREAT(left_arm)</title>
<ellipse fill="lightgreen" stroke="black" cx="820.71" cy="-36" rx="135.51" ry="36"/>
<text text-anchor="middle" x="820.71" y="-41.6" font-family="Times,serif" font-size="18.00">action:</text>
<text text-anchor="middle" x="820.71" y="-21.6" font-family="Times,serif" font-size="18.00"> RETREAT(left_arm)</text>
</g>
<!-- sequence:
 left_arm_reach_grasp_retreat&#45;&gt;action:
 RETREAT(left_arm) -->
<g id="edge5" class="edge">
<title>sequence:
 left_arm_reach_grasp_retreat&#45;&gt;action:
 RETREAT(left_arm)</title>
<path fill="none" stroke="black" d="M716.89,-108C732.07,-97.62 748.77,-86.19 764.26,-75.6"/>
<polygon fill="black" stroke="black" points="766.45,-78.34 772.73,-69.81 762.5,-72.57 766.45,-78.34"/>
</g>
<!-- action:
 REACH(right_arm, table2) -->
<g id="node8" class="node">
<title>action:
 REACH(right_arm, table2)</title>
<ellipse fill="lightgreen" stroke="black" cx="1150.71" cy="-36" rx="176.35" ry="36"/>
<text text-anchor="middle" x="1150.71" y="-41.6" font-family="Times,serif" font-size="18.00">action:</text>
<text text-anchor="middle" x="1150.71" y="-21.6" font-family="Times,serif" font-size="18.00"> REACH(right_arm, table2)</text>
</g>
<!-- sequence:
 right_arm_reach_grasp_retreat&#45;&gt;action:
 REACH(right_arm, table2) -->
<g id="edge7" class="edge">
<title>sequence:
 right_arm_reach_grasp_retreat&#45;&gt;action:
 REACH(right_arm, table2)</title>
<path fill="none" stroke="black" d="M1426.66,-108C1375.35,-94.8 1317.47,-79.91 1268.02,-67.18"/>
<polygon fill="black" stroke="black" points="1268.8,-63.77 1258.25,-64.67 1267.06,-70.55 1268.8,-63.77"/>
</g>
<!-- action:
 GRASP(right_arm, watter_bottle) -->
<g id="node9" class="node">
<title>action:
 GRASP(right_arm, watter_bottle)</title>
<ellipse fill="lightgreen" stroke="black" cx="1562.71" cy="-36" rx="217.19" ry="36"/>
<text text-anchor="middle" x="1562.71" y="-41.6" font-family="Times,serif" font-size="18.00">action:</text>
<text text-anchor="middle" x="1562.71" y="-21.6" font-family="Times,serif" font-size="18.00"> GRASP(right_arm, watter_bottle)</text>
</g>
<!-- sequence:
 right_arm_reach_grasp_retreat&#45;&gt;action:
 GRASP(right_arm, watter_bottle) -->
<g id="edge8" class="edge">
<title>sequence:
 right_arm_reach_grasp_retreat&#45;&gt;action:
 GRASP(right_arm, watter_bottle)</title>
<path fill="none" stroke="black" d="M1562.71,-108C1562.71,-99.85 1562.71,-91.06 1562.71,-82.54"/>
<polygon fill="black" stroke="black" points="1566.21,-82.33 1562.71,-72.33 1559.21,-82.33 1566.21,-82.33"/>
</g>
<!-- action:
 RETREAT(right_arm) -->
<g id="node10" class="node">
<title>action:
 RETREAT(right_arm)</title>
<ellipse fill="lightgreen" stroke="black" cx="1942.71" cy="-36" rx="144.45" ry="36"/>
<text text-anchor="middle" x="1942.71" y="-41.6" font-family="Times,serif" font-size="18.00">action:</text>
<text text-anchor="middle" x="1942.71" y="-21.6" font-family="Times,serif" font-size="18.00"> RETREAT(right_arm)</text>
</g>
<!-- sequence:
 right_arm_reach_grasp_retreat&#45;&gt;action:
 RETREAT(right_arm) -->
<g id="edge9" class="edge">
<title>sequence:
 right_arm_reach_grasp_retreat&#45;&gt;action:
 RETREAT(right_arm)</title>
<path fill="none" stroke="black" d="M1688.18,-108C1736.93,-94.4 1792.1,-79.01 1838.58,-66.05"/>
<polygon fill="black" stroke="black" points="1839.67,-69.38 1848.36,-63.32 1837.79,-62.63 1839.67,-69.38"/>
</g>
<!-- selector:
 pour_or_wait -->
<g id="node12" class="node">
<title>selector:
 pour_or_wait</title>
<polygon fill="#8deeee" stroke="black" points="2649.51,-129.09 2649.51,-158.91 2589.87,-180 2505.54,-180 2445.9,-158.91 2445.9,-129.09 2505.54,-108 2589.87,-108 2649.51,-129.09"/>
<text text-anchor="middle" x="2547.71" y="-149.6" font-family="Times,serif" font-size="18.00">selector:</text>
<text text-anchor="middle" x="2547.71" y="-129.6" font-family="Times,serif" font-size="18.00"> pour_or_wait</text>
</g>
<!-- sequence:
 right_arm_pour&#45;&gt;selector:
 pour_or_wait -->
<g id="edge11" class="edge">
<title>sequence:
 right_arm_pour&#45;&gt;selector:
 pour_or_wait</title>
<path fill="none" stroke="black" d="M2547.71,-247.82C2547.71,-230.3 2547.71,-208.92 2547.71,-190.2"/>
<polygon fill="black" stroke="black" points="2551.21,-190.12 2547.71,-180.12 2544.21,-190.12 2551.21,-190.12"/>
</g>
<!-- action:
 POUR(right_arm, watter_bottle, glass) -->
<g id="node13" class="node">
<title>action:
 POUR(right_arm, watter_bottle, glass)</title>
<ellipse fill="lightgreen" stroke="black" cx="2354.71" cy="-36" rx="250.43" ry="36"/>
<text text-anchor="middle" x="2354.71" y="-41.6" font-family="Times,serif" font-size="18.00">action:</text>
<text text-anchor="middle" x="2354.71" y="-21.6" font-family="Times,serif" font-size="18.00"> POUR(right_arm, watter_bottle, glass)</text>
</g>
<!-- selector:
 pour_or_wait&#45;&gt;action:
 POUR(right_arm, watter_bottle, glass) -->
<g id="edge12" class="edge">
<title>selector:
 pour_or_wait&#45;&gt;action:
 POUR(right_arm, watter_bottle, glass)</title>
<path fill="none" stroke="black" d="M2492.4,-112.62C2471.55,-101.17 2447.53,-87.98 2425.46,-75.86"/>
<polygon fill="black" stroke="black" points="2426.91,-72.66 2416.46,-70.92 2423.54,-78.8 2426.91,-72.66"/>
</g>
<!-- action:
 WAIT(right_arm) -->
<g id="node14" class="node">
<title>action:
 WAIT(right_arm)</title>
<ellipse fill="lightgreen" stroke="black" cx="2740.71" cy="-36" rx="117.29" ry="36"/>
<text text-anchor="middle" x="2740.71" y="-41.6" font-family="Times,serif" font-size="18.00">action:</text>
<text text-anchor="middle" x="2740.71" y="-21.6" font-family="Times,serif" font-size="18.00"> WAIT(right_arm)</text>
</g>
<!-- selector:
 pour_or_wait&#45;&gt;action:
 WAIT(right_arm) -->
<g id="edge13" class="edge">
<title>selector:
 pour_or_wait&#45;&gt;action:
 WAIT(right_arm)</title>
<path fill="none" stroke="black" d="M2603.01,-112.62C2625.73,-100.15 2652.2,-85.61 2675.82,-72.64"/>
<polygon fill="black" stroke="black" points="2677.64,-75.63 2684.72,-67.75 2674.27,-69.49 2677.64,-75.63"/>
</g>
<!-- sequence:
 left_arm_release_glass -->
<g id="node16" class="node">
<title>sequence:
 left_arm_release_glass</title>
<polygon fill="#ff7f24" stroke="black" points="3355.21,-180 3128.21,-180 3128.21,-108 3355.21,-108 3355.21,-180"/>
<text text-anchor="middle" x="3241.71" y="-149.6" font-family="Times,serif" font-size="18.00">sequence:</text>
<text text-anchor="middle" x="3241.71" y="-129.6" font-family="Times,serif" font-size="18.00"> left_arm_release_glass</text>
</g>
<!-- parallel:
 release_objects&#45;&gt;sequence:
 left_arm_release_glass -->
<g id="edge15" class="edge">
<title>parallel:
 release_objects&#45;&gt;sequence:
 left_arm_release_glass</title>
<path fill="none" stroke="black" d="M3241.71,-215.62C3241.71,-206.96 3241.71,-198.26 3241.71,-190.08"/>
<polygon fill="black" stroke="black" points="3245.21,-190.04 3241.71,-180.04 3238.21,-190.04 3245.21,-190.04"/>
</g>
<!-- sequence:
 right_arm_release_watter_bottle -->
<g id="node19" class="node">
<title>sequence:
 right_arm_release_watter_bottle</title>
<polygon fill="#ff7f24" stroke="black" points="3967.21,-180 3650.21,-180 3650.21,-108 3967.21,-108 3967.21,-180"/>
<text text-anchor="middle" x="3808.71" y="-149.6" font-family="Times,serif" font-size="18.00">sequence:</text>
<text text-anchor="middle" x="3808.71" y="-129.6" font-family="Times,serif" font-size="18.00"> right_arm_release_watter_bottle</text>
</g>
<!-- parallel:
 release_objects&#45;&gt;sequence:
 right_arm_release_watter_bottle -->
<g id="edge18" class="edge">
<title>parallel:
 release_objects&#45;&gt;sequence:
 right_arm_release_watter_bottle</title>
<path fill="none" stroke="black" d="M3365.09,-252.97C3450.19,-232.26 3563.93,-204.57 3654.94,-182.42"/>
<polygon fill="black" stroke="black" points="3655.9,-185.79 3664.79,-180.03 3654.25,-178.99 3655.9,-185.79"/>
</g>
<!-- &quot;action:\n REACH(left_arm, table1)&quot;* -->
<g id="node17" class="node">
<title>&quot;action:\n REACH(left_arm, table1)&quot;*</title>
<ellipse fill="lightgreen" stroke="black" cx="3055.71" cy="-36" rx="179.22" ry="36"/>
<text text-anchor="middle" x="3055.71" y="-41.6" font-family="Times,serif" font-size="18.00">&quot;action:</text>
<text text-anchor="middle" x="3055.71" y="-21.6" font-family="Times,serif" font-size="18.00"> REACH(left_arm, table1)&quot;*</text>
</g>
<!-- sequence:
 left_arm_release_glass&#45;&gt;&quot;action:\n REACH(left_arm, table1)&quot;* -->
<g id="edge16" class="edge">
<title>sequence:
 left_arm_release_glass&#45;&gt;&quot;action:\n REACH(left_arm, table1)&quot;*</title>
<path fill="none" stroke="black" d="M3180.29,-108C3161.83,-97.48 3141.5,-85.89 3122.7,-75.18"/>
<polygon fill="black" stroke="black" points="3124.33,-72.08 3113.9,-70.17 3120.86,-78.16 3124.33,-72.08"/>
</g>
<!-- action:
 RELEASE(left_arm, glass) -->
<g id="node18" class="node">
<title>action:
 RELEASE(left_arm, glass)</title>
<ellipse fill="lightgreen" stroke="black" cx="3427.71" cy="-36" rx="174.33" ry="36"/>
<text text-anchor="middle" x="3427.71" y="-41.6" font-family="Times,serif" font-size="18.00">action:</text>
<text text-anchor="middle" x="3427.71" y="-21.6" font-family="Times,serif" font-size="18.00"> RELEASE(left_arm, glass)</text>
</g>
<!-- sequence:
 left_arm_release_glass&#45;&gt;action:
 RELEASE(left_arm, glass) -->
<g id="edge17" class="edge">
<title>sequence:
 left_arm_release_glass&#45;&gt;action:
 RELEASE(left_arm, glass)</title>
<path fill="none" stroke="black" d="M3303.12,-108C3321.67,-97.43 3342.11,-85.78 3360.98,-75.02"/>
<polygon fill="black" stroke="black" points="3362.86,-77.98 3369.82,-69.99 3359.4,-71.9 3362.86,-77.98"/>
</g>
<!-- &quot;action:\n REACH(right_arm, table2)&quot;* -->
<g id="node20" class="node">
<title>&quot;action:\n REACH(right_arm, table2)&quot;*</title>
<ellipse fill="lightgreen" stroke="black" cx="3808.71" cy="-36" rx="188.5" ry="36"/>
<text text-anchor="middle" x="3808.71" y="-41.6" font-family="Times,serif" font-size="18.00">&quot;action:</text>
<text text-anchor="middle" x="3808.71" y="-21.6" font-family="Times,serif" font-size="18.00"> REACH(right_arm, table2)&quot;*</text>
</g>
<!-- sequence:
 right_arm_release_watter_bottle&#45;&gt;&quot;action:\n REACH(right_arm, table2)&quot;* -->
<g id="edge19" class="edge">
<title>sequence:
 right_arm_release_watter_bottle&#45;&gt;&quot;action:\n REACH(right_arm, table2)&quot;*</title>
<path fill="none" stroke="black" d="M3808.71,-108C3808.71,-99.85 3808.71,-91.06 3808.71,-82.54"/>
<polygon fill="black" stroke="black" points="3812.21,-82.33 3808.71,-72.33 3805.21,-82.33 3812.21,-82.33"/>
</g>
<!-- action:
 RELEASE(right_arm, watter_bottle) -->
<g id="node21" class="node">
<title>action:
 RELEASE(right_arm, watter_bottle)</title>
<ellipse fill="lightgreen" stroke="black" cx="4249.71" cy="-36" rx="234.57" ry="36"/>
<text text-anchor="middle" x="4249.71" y="-41.6" font-family="Times,serif" font-size="18.00">action:</text>
<text text-anchor="middle" x="4249.71" y="-21.6" font-family="Times,serif" font-size="18.00"> RELEASE(right_arm, watter_bottle)</text>
</g>
<!-- sequence:
 right_arm_release_watter_bottle&#45;&gt;action:
 RELEASE(right_arm, watter_bottle) -->
<g id="edge20" class="edge">
<title>sequence:
 right_arm_release_watter_bottle&#45;&gt;action:
 RELEASE(right_arm, watter_bottle)</title>
<path fill="none" stroke="black" d="M3954.33,-108C4006.65,-95.42 4065.36,-81.31 4116.57,-69"/>
<polygon fill="black" stroke="black" points="4117.47,-72.38 4126.37,-66.64 4115.83,-65.58 4117.47,-72.38"/>
</g>
</g>
</svg>
