<?xml version="1.0" encoding="UTF-8" standalone="no"?>
<!DOCTYPE svg PUBLIC "-//W3C//DTD SVG 1.1//EN"
 "http://www.w3.org/Graphics/SVG/1.1/DTD/svg11.dtd">
<!-- Generated by graphviz version 2.43.0 (0)
 -->
<!-- Title: pastafarianism Pages: 1 -->
<svg width="5182pt" height="260pt"
 viewBox="0.00 0.00 5182.26 260.00" xmlns="http://www.w3.org/2000/svg" xmlns:xlink="http://www.w3.org/1999/xlink">
<g id="graph0" class="graph" transform="scale(1 1) rotate(0) translate(4 256)">
<title>pastafarianism</title>
<polygon fill="white" stroke="transparent" points="-4,4 -4,-256 5178.26,-256 5178.26,4 -4,4"/>
<!-- sequence -->
<g id="node1" class="node">
<title>sequence</title>
<polygon fill="orange" stroke="black" points="1315.83,-252 1032.83,-252 1032.83,-216 1315.83,-216 1315.83,-252"/>
<text text-anchor="middle" x="1174.33" y="-231.8" font-family="Times,serif" font-size="9.00">sequence: insert(left_hand, defaultgripper, gear1, shaft1)</text>
</g>
<!-- selector -->
<g id="node2" class="node">
<title>selector</title>
<polygon fill="cyan" stroke="black" points="1678.79,-226.54 1678.79,-241.46 1577.76,-252 1434.9,-252 1333.87,-241.46 1333.87,-226.54 1434.9,-216 1577.76,-216 1678.79,-226.54"/>
<text text-anchor="middle" x="1506.33" y="-231.8" font-family="Times,serif" font-size="9.00">selector: insert(left_hand, defaultgripper, gear1, shaft1)</text>
</g>
<!-- sequence: insert_gear1_into_shaft1 -->
<g id="node3" class="node">
<title>sequence: insert_gear1_into_shaft1</title>
<ellipse fill="none" stroke="black" cx="1871.33" cy="-234" rx="174.67" ry="18"/>
<text text-anchor="middle" x="1871.33" y="-230.3" font-family="Times,serif" font-size="14.00">sequence: insert_gear1_into_shaft1</text>
</g>
<!-- selector: change_tool(left_hand, parallelgripper, defaultgripper) -->
<g id="node4" class="node">
<title>selector: change_tool(left_hand, parallelgripper, defaultgripper)</title>
<ellipse fill="none" stroke="black" cx="1097.33" cy="-162" rx="306.25" ry="18"/>
<text text-anchor="middle" x="1097.33" y="-158.3" font-family="Times,serif" font-size="14.00">selector: change_tool(left_hand, parallelgripper, defaultgripper)</text>
</g>
<!-- sequence: insert_gear1_into_shaft1&#45;&gt;selector: change_tool(left_hand, parallelgripper, defaultgripper) -->
<g id="edge1" class="edge">
<title>sequence: insert_gear1_into_shaft1&#45;&gt;selector: change_tool(left_hand, parallelgripper, defaultgripper)</title>
<path fill="none" stroke="black" d="M1746.13,-221.39C1726.45,-219.58 1706.34,-217.73 1687.33,-216 1546.26,-203.15 1386.2,-188.78 1268.42,-178.25"/>
<polygon fill="black" stroke="black" points="1268.5,-174.75 1258.23,-177.34 1267.88,-181.72 1268.5,-174.75"/>
</g>
<!-- selector: pick_up(left_hand, defaultgripper, gear1) -->
<g id="node13" class="node">
<title>selector: pick_up(left_hand, defaultgripper, gear1)</title>
<ellipse fill="none" stroke="black" cx="1871.33" cy="-162" rx="243.16" ry="18"/>
<text text-anchor="middle" x="1871.33" y="-158.3" font-family="Times,serif" font-size="14.00">selector: pick_up(left_hand, defaultgripper, gear1)</text>
</g>
<!-- sequence: insert_gear1_into_shaft1&#45;&gt;selector: pick_up(left_hand, defaultgripper, gear1) -->
<g id="edge7" class="edge">
<title>sequence: insert_gear1_into_shaft1&#45;&gt;selector: pick_up(left_hand, defaultgripper, gear1)</title>
<path fill="none" stroke="black" d="M1871.33,-215.7C1871.33,-207.98 1871.33,-198.71 1871.33,-190.11"/>
<polygon fill="black" stroke="black" points="1874.83,-190.1 1871.33,-180.1 1867.83,-190.1 1874.83,-190.1"/>
</g>
<!-- selector: insert(left_hand, defaultgripper, gear1, shaft1) -->
<g id="node20" class="node">
<title>selector: insert(left_hand, defaultgripper, gear1, shaft1)</title>
<ellipse fill="none" stroke="black" cx="3087.33" cy="-162" rx="270.25" ry="18"/>
<text text-anchor="middle" x="3087.33" y="-158.3" font-family="Times,serif" font-size="14.00">selector: insert(left_hand, defaultgripper, gear1, shaft1)</text>
</g>
<!-- sequence: insert_gear1_into_shaft1&#45;&gt;selector: insert(left_hand, defaultgripper, gear1, shaft1) -->
<g id="edge14" class="edge">
<title>sequence: insert_gear1_into_shaft1&#45;&gt;selector: insert(left_hand, defaultgripper, gear1, shaft1)</title>
<path fill="none" stroke="black" d="M1993.01,-221.05C2013.79,-219.21 2035.17,-217.45 2055.33,-216 2328.22,-196.39 2642.21,-181.34 2851.49,-172.37"/>
<polygon fill="black" stroke="black" points="2851.85,-175.86 2861.69,-171.93 2851.55,-168.86 2851.85,-175.86"/>
</g>
<!-- target: hold(left_hand, defaultgripper) -->
<g id="node6" class="node">
<title>target: hold(left_hand, defaultgripper)</title>
<ellipse fill="none" stroke="black" cx="578.33" cy="-90" rx="188.47" ry="18"/>
<text text-anchor="middle" x="578.33" y="-86.3" font-family="Times,serif" font-size="14.00">target: hold(left_hand, defaultgripper)</text>
</g>
<!-- selector: change_tool(left_hand, parallelgripper, defaultgripper)&#45;&gt;target: hold(left_hand, defaultgripper) -->
<g id="edge2" class="edge">
<title>selector: change_tool(left_hand, parallelgripper, defaultgripper)&#45;&gt;target: hold(left_hand, defaultgripper)</title>
<path fill="none" stroke="black" d="M981.18,-145.33C895.1,-133.72 778.34,-117.98 692.69,-106.42"/>
<polygon fill="black" stroke="black" points="693.04,-102.94 682.66,-105.07 692.1,-109.88 693.04,-102.94"/>
</g>
<!-- sequence: change_tool(left_hand, parallelgripper, defaultgripper) -->
<g id="node7" class="node">
<title>sequence: change_tool(left_hand, parallelgripper, defaultgripper)</title>
<ellipse fill="none" stroke="black" cx="1097.33" cy="-90" rx="312.74" ry="18"/>
<text text-anchor="middle" x="1097.33" y="-86.3" font-family="Times,serif" font-size="14.00">sequence: change_tool(left_hand, parallelgripper, defaultgripper)</text>
</g>
<!-- selector: change_tool(left_hand, parallelgripper, defaultgripper)&#45;&gt;sequence: change_tool(left_hand, parallelgripper, defaultgripper) -->
<g id="edge3" class="edge">
<title>selector: change_tool(left_hand, parallelgripper, defaultgripper)&#45;&gt;sequence: change_tool(left_hand, parallelgripper, defaultgripper)</title>
<path fill="none" stroke="black" d="M1097.33,-143.7C1097.33,-135.98 1097.33,-126.71 1097.33,-118.11"/>
<polygon fill="black" stroke="black" points="1100.83,-118.1 1097.33,-108.1 1093.83,-118.1 1100.83,-118.1"/>
</g>
<!-- target -->
<g id="node5" class="node">
<title>target</title>
<ellipse fill="gray" stroke="black" cx="2170.33" cy="-234" rx="106.47" ry="18"/>
<text text-anchor="middle" x="2170.33" y="-231.8" font-family="Times,serif" font-size="9.00">target: is_inserted_to(gear1, shaft1)</text>
</g>
<!-- precondition: hold(left_hand, parallelgripper) -->
<g id="node9" class="node">
<title>precondition: hold(left_hand, parallelgripper)</title>
<ellipse fill="none" stroke="black" cx="220.33" cy="-18" rx="220.16" ry="18"/>
<text text-anchor="middle" x="220.33" y="-14.3" font-family="Times,serif" font-size="14.00">precondition: hold(left_hand, parallelgripper)</text>
</g>
<!-- sequence: change_tool(left_hand, parallelgripper, defaultgripper)&#45;&gt;precondition: hold(left_hand, parallelgripper) -->
<g id="edge4" class="edge">
<title>sequence: change_tool(left_hand, parallelgripper, defaultgripper)&#45;&gt;precondition: hold(left_hand, parallelgripper)</title>
<path fill="none" stroke="black" d="M922.75,-75.07C765.21,-62.49 535.29,-44.14 381.9,-31.9"/>
<polygon fill="black" stroke="black" points="382.16,-28.41 371.91,-31.1 381.6,-35.38 382.16,-28.41"/>
</g>
<!-- precondition: is_empty(parallelgripper) -->
<g id="node10" class="node">
<title>precondition: is_empty(parallelgripper)</title>
<ellipse fill="none" stroke="black" cx="651.33" cy="-18" rx="193.07" ry="18"/>
<text text-anchor="middle" x="651.33" y="-14.3" font-family="Times,serif" font-size="14.00">precondition: is_empty(parallelgripper)</text>
</g>
<!-- sequence: change_tool(left_hand, parallelgripper, defaultgripper)&#45;&gt;precondition: is_empty(parallelgripper) -->
<g id="edge5" class="edge">
<title>sequence: change_tool(left_hand, parallelgripper, defaultgripper)&#45;&gt;precondition: is_empty(parallelgripper)</title>
<path fill="none" stroke="black" d="M995.29,-72.98C923.46,-61.71 827.61,-46.67 755.34,-35.32"/>
<polygon fill="black" stroke="black" points="755.73,-31.84 745.31,-33.75 754.64,-38.76 755.73,-31.84"/>
</g>
<!-- action: change_tool(left_hand, parallelgripper, defaultgripper) -->
<g id="node12" class="node">
<title>action: change_tool(left_hand, parallelgripper, defaultgripper)</title>
<ellipse fill="none" stroke="black" cx="1160.33" cy="-18" rx="297.85" ry="18"/>
<text text-anchor="middle" x="1160.33" y="-14.3" font-family="Times,serif" font-size="14.00">action: change_tool(left_hand, parallelgripper, defaultgripper)</text>
</g>
<!-- sequence: change_tool(left_hand, parallelgripper, defaultgripper)&#45;&gt;action: change_tool(left_hand, parallelgripper, defaultgripper) -->
<g id="edge6" class="edge">
<title>sequence: change_tool(left_hand, parallelgripper, defaultgripper)&#45;&gt;action: change_tool(left_hand, parallelgripper, defaultgripper)</title>
<path fill="none" stroke="black" d="M1112.9,-71.7C1120.53,-63.22 1129.85,-52.86 1138.21,-43.58"/>
<polygon fill="black" stroke="black" points="1140.85,-45.88 1144.94,-36.1 1135.65,-41.2 1140.85,-45.88"/>
</g>
<!-- precondition -->
<g id="node8" class="node">
<title>precondition</title>
<ellipse fill="gray" stroke="black" cx="2417.33" cy="-234" rx="122.3" ry="18"/>
<text text-anchor="middle" x="2417.33" y="-231.8" font-family="Times,serif" font-size="9.00">precondition: can_insert_to(gear1, shaft1)</text>
</g>
<!-- action -->
<g id="node11" class="node">
<title>action</title>
<ellipse fill="gray" stroke="black" cx="2712.33" cy="-234" rx="154.96" ry="18"/>
<text text-anchor="middle" x="2712.33" y="-231.8" font-family="Times,serif" font-size="9.00">action: insert(left_hand, defaultgripper, gear1, shaft1)</text>
</g>
<!-- target: hold(defaultgripper, gear1) -->
<g id="node14" class="node">
<title>target: hold(defaultgripper, gear1)</title>
<ellipse fill="none" stroke="black" cx="1744.33" cy="-90" rx="170.87" ry="18"/>
<text text-anchor="middle" x="1744.33" y="-86.3" font-family="Times,serif" font-size="14.00">target: hold(defaultgripper, gear1)</text>
</g>
<!-- selector: pick_up(left_hand, defaultgripper, gear1)&#45;&gt;target: hold(defaultgripper, gear1) -->
<g id="edge8" class="edge">
<title>selector: pick_up(left_hand, defaultgripper, gear1)&#45;&gt;target: hold(defaultgripper, gear1)</title>
<path fill="none" stroke="black" d="M1840.59,-144.05C1823.51,-134.64 1802.07,-122.82 1783.76,-112.74"/>
<polygon fill="black" stroke="black" points="1785.24,-109.55 1774.79,-107.79 1781.86,-115.68 1785.24,-109.55"/>
</g>
<!-- sequence: pick_up(left_hand, defaultgripper, gear1) -->
<g id="node15" class="node">
<title>sequence: pick_up(left_hand, defaultgripper, gear1)</title>
<ellipse fill="none" stroke="black" cx="2183.33" cy="-90" rx="249.66" ry="18"/>
<text text-anchor="middle" x="2183.33" y="-86.3" font-family="Times,serif" font-size="14.00">sequence: pick_up(left_hand, defaultgripper, gear1)</text>
</g>
<!-- selector: pick_up(left_hand, defaultgripper, gear1)&#45;&gt;sequence: pick_up(left_hand, defaultgripper, gear1) -->
<g id="edge9" class="edge">
<title>selector: pick_up(left_hand, defaultgripper, gear1)&#45;&gt;sequence: pick_up(left_hand, defaultgripper, gear1)</title>
<path fill="none" stroke="black" d="M1943.69,-144.76C1990.68,-134.22 2052.04,-120.46 2100.91,-109.49"/>
<polygon fill="black" stroke="black" points="2101.83,-112.87 2110.82,-107.27 2100.3,-106.04 2101.83,-112.87"/>
</g>
<!-- precondition: hold(left_hand, defaultgripper) -->
<g id="node16" class="node">
<title>precondition: hold(left_hand, defaultgripper)</title>
<ellipse fill="none" stroke="black" cx="1693.33" cy="-18" rx="217.96" ry="18"/>
<text text-anchor="middle" x="1693.33" y="-14.3" font-family="Times,serif" font-size="14.00">precondition: hold(left_hand, defaultgripper)</text>
</g>
<!-- sequence: pick_up(left_hand, defaultgripper, gear1)&#45;&gt;precondition: hold(left_hand, defaultgripper) -->
<g id="edge10" class="edge">
<title>sequence: pick_up(left_hand, defaultgripper, gear1)&#45;&gt;precondition: hold(left_hand, defaultgripper)</title>
<path fill="none" stroke="black" d="M2076.4,-73.72C1997.01,-62.38 1888.89,-46.94 1807.76,-35.35"/>
<polygon fill="black" stroke="black" points="1807.9,-31.83 1797.51,-33.88 1806.91,-38.76 1807.9,-31.83"/>
</g>
<!-- precondition: is_empty(defaultgripper) -->
<g id="node17" class="node">
<title>precondition: is_empty(defaultgripper)</title>
<ellipse fill="none" stroke="black" cx="2119.33" cy="-18" rx="190.37" ry="18"/>
<text text-anchor="middle" x="2119.33" y="-14.3" font-family="Times,serif" font-size="14.00">precondition: is_empty(defaultgripper)</text>
</g>
<!-- sequence: pick_up(left_hand, defaultgripper, gear1)&#45;&gt;precondition: is_empty(defaultgripper) -->
<g id="edge11" class="edge">
<title>sequence: pick_up(left_hand, defaultgripper, gear1)&#45;&gt;precondition: is_empty(defaultgripper)</title>
<path fill="none" stroke="black" d="M2167.51,-71.7C2159.76,-63.22 2150.29,-52.86 2141.81,-43.58"/>
<polygon fill="black" stroke="black" points="2144.3,-41.12 2134.97,-36.1 2139.13,-45.85 2144.3,-41.12"/>
</g>
<!-- precondition: can_manipulate(defaultgripper, gear1) -->
<g id="node18" class="node">
<title>precondition: can_manipulate(defaultgripper, gear1)</title>
<ellipse fill="none" stroke="black" cx="2581.33" cy="-18" rx="253.46" ry="18"/>
<text text-anchor="middle" x="2581.33" y="-14.3" font-family="Times,serif" font-size="14.00">precondition: can_manipulate(defaultgripper, gear1)</text>
</g>
<!-- sequence: pick_up(left_hand, defaultgripper, gear1)&#45;&gt;precondition: can_manipulate(defaultgripper, gear1) -->
<g id="edge12" class="edge">
<title>sequence: pick_up(left_hand, defaultgripper, gear1)&#45;&gt;precondition: can_manipulate(defaultgripper, gear1)</title>
<path fill="none" stroke="black" d="M2273.15,-73.2C2334.95,-62.33 2417.11,-47.88 2481.05,-36.64"/>
<polygon fill="black" stroke="black" points="2481.91,-40.04 2491.15,-34.86 2480.7,-33.15 2481.91,-40.04"/>
</g>
<!-- action: pick_up(left_hand, defaultgripper, gear1) -->
<g id="node19" class="node">
<title>action: pick_up(left_hand, defaultgripper, gear1)</title>
<ellipse fill="none" stroke="black" cx="3087.33" cy="-18" rx="234.76" ry="18"/>
<text text-anchor="middle" x="3087.33" y="-14.3" font-family="Times,serif" font-size="14.00">action: pick_up(left_hand, defaultgripper, gear1)</text>
</g>
<!-- sequence: pick_up(left_hand, defaultgripper, gear1)&#45;&gt;action: pick_up(left_hand, defaultgripper, gear1) -->
<g id="edge13" class="edge">
<title>sequence: pick_up(left_hand, defaultgripper, gear1)&#45;&gt;action: pick_up(left_hand, defaultgripper, gear1)</title>
<path fill="none" stroke="black" d="M2346.51,-76.36C2508.29,-63.84 2754.99,-44.73 2918.65,-32.06"/>
<polygon fill="black" stroke="black" points="2919.12,-35.54 2928.82,-31.27 2918.58,-28.56 2919.12,-35.54"/>
</g>
<!-- target: is_inserted_to(gear1, shaft1) -->
<g id="node21" class="node">
<title>target: is_inserted_to(gear1, shaft1)</title>
<ellipse fill="none" stroke="black" cx="3087.33" cy="-90" rx="178.97" ry="18"/>
<text text-anchor="middle" x="3087.33" y="-86.3" font-family="Times,serif" font-size="14.00">target: is_inserted_to(gear1, shaft1)</text>
</g>
<!-- selector: insert(left_hand, defaultgripper, gear1, shaft1)&#45;&gt;target: is_inserted_to(gear1, shaft1) -->
<g id="edge15" class="edge">
<title>selector: insert(left_hand, defaultgripper, gear1, shaft1)&#45;&gt;target: is_inserted_to(gear1, shaft1)</title>
<path fill="none" stroke="black" d="M3087.33,-143.7C3087.33,-135.98 3087.33,-126.71 3087.33,-118.11"/>
<polygon fill="black" stroke="black" points="3090.83,-118.1 3087.33,-108.1 3083.83,-118.1 3090.83,-118.1"/>
</g>
<!-- sequence: insert(left_hand, defaultgripper, gear1, shaft1) -->
<g id="node22" class="node">
<title>sequence: insert(left_hand, defaultgripper, gear1, shaft1)</title>
<ellipse fill="none" stroke="black" cx="4003.33" cy="-90" rx="276.75" ry="18"/>
<text text-anchor="middle" x="4003.33" y="-86.3" font-family="Times,serif" font-size="14.00">sequence: insert(left_hand, defaultgripper, gear1, shaft1)</text>
</g>
<!-- selector: insert(left_hand, defaultgripper, gear1, shaft1)&#45;&gt;sequence: insert(left_hand, defaultgripper, gear1, shaft1) -->
<g id="edge16" class="edge">
<title>selector: insert(left_hand, defaultgripper, gear1, shaft1)&#45;&gt;sequence: insert(left_hand, defaultgripper, gear1, shaft1)</title>
<path fill="none" stroke="black" d="M3257.48,-148C3417.74,-135.75 3657.09,-117.46 3821.17,-104.92"/>
<polygon fill="black" stroke="black" points="3821.67,-108.39 3831.38,-104.14 3821.14,-101.41 3821.67,-108.39"/>
</g>
<!-- precondition: hold(left_hand, defaultgripper)* -->
<g id="node23" class="node">
<title>precondition: hold(left_hand, defaultgripper)*</title>
<ellipse fill="none" stroke="black" cx="3562.33" cy="-18" rx="222.06" ry="18"/>
<text text-anchor="middle" x="3562.33" y="-14.3" font-family="Times,serif" font-size="14.00">precondition: hold(left_hand, defaultgripper)*</text>
</g>
<!-- sequence: insert(left_hand, defaultgripper, gear1, shaft1)&#45;&gt;precondition: hold(left_hand, defaultgripper)* -->
<g id="edge17" class="edge">
<title>sequence: insert(left_hand, defaultgripper, gear1, shaft1)&#45;&gt;precondition: hold(left_hand, defaultgripper)*</title>
<path fill="none" stroke="black" d="M3903.54,-73.16C3833.4,-62.03 3739.73,-47.16 3668.27,-35.82"/>
<polygon fill="black" stroke="black" points="3668.76,-32.35 3658.34,-34.24 3667.67,-39.26 3668.76,-32.35"/>
</g>
<!-- precondition: hold(defaultgripper, gear1) -->
<g id="node24" class="node">
<title>precondition: hold(defaultgripper, gear1)</title>
<ellipse fill="none" stroke="black" cx="4003.33" cy="-18" rx="200.66" ry="18"/>
<text text-anchor="middle" x="4003.33" y="-14.3" font-family="Times,serif" font-size="14.00">precondition: hold(defaultgripper, gear1)</text>
</g>
<!-- sequence: insert(left_hand, defaultgripper, gear1, shaft1)&#45;&gt;precondition: hold(defaultgripper, gear1) -->
<g id="edge18" class="edge">
<title>sequence: insert(left_hand, defaultgripper, gear1, shaft1)&#45;&gt;precondition: hold(defaultgripper, gear1)</title>
<path fill="none" stroke="black" d="M4003.33,-71.7C4003.33,-63.98 4003.33,-54.71 4003.33,-46.11"/>
<polygon fill="black" stroke="black" points="4006.83,-46.1 4003.33,-36.1 3999.83,-46.1 4006.83,-46.1"/>
</g>
<!-- precondition: can_insert_to(gear1, shaft1) -->
<g id="node25" class="node">
<title>precondition: can_insert_to(gear1, shaft1)</title>
<ellipse fill="none" stroke="black" cx="4427.33" cy="-18" rx="205.26" ry="18"/>
<text text-anchor="middle" x="4427.33" y="-14.3" font-family="Times,serif" font-size="14.00">precondition: can_insert_to(gear1, shaft1)</text>
</g>
<!-- sequence: insert(left_hand, defaultgripper, gear1, shaft1)&#45;&gt;precondition: can_insert_to(gear1, shaft1) -->
<g id="edge19" class="edge">
<title>sequence: insert(left_hand, defaultgripper, gear1, shaft1)&#45;&gt;precondition: can_insert_to(gear1, shaft1)</title>
<path fill="none" stroke="black" d="M4099.54,-73.12C4166.96,-61.99 4256.92,-47.13 4325.53,-35.81"/>
<polygon fill="black" stroke="black" points="4326.2,-39.24 4335.5,-34.16 4325.06,-32.34 4326.2,-39.24"/>
</g>
<!-- action: insert(left_hand, defaultgripper, gear1, shaft1) -->
<g id="node26" class="node">
<title>action: insert(left_hand, defaultgripper, gear1, shaft1)</title>
<ellipse fill="none" stroke="black" cx="4912.33" cy="-18" rx="261.85" ry="18"/>
<text text-anchor="middle" x="4912.33" y="-14.3" font-family="Times,serif" font-size="14.00">action: insert(left_hand, defaultgripper, gear1, shaft1)</text>
</g>
<!-- sequence: insert(left_hand, defaultgripper, gear1, shaft1)&#45;&gt;action: insert(left_hand, defaultgripper, gear1, shaft1) -->
<g id="edge20" class="edge">
<title>sequence: insert(left_hand, defaultgripper, gear1, shaft1)&#45;&gt;action: insert(left_hand, defaultgripper, gear1, shaft1)</title>
<path fill="none" stroke="black" d="M4174.31,-75.83C4334.5,-63.5 4572.92,-45.14 4735.11,-32.65"/>
<polygon fill="black" stroke="black" points="4735.49,-36.13 4745.19,-31.87 4734.95,-29.15 4735.49,-36.13"/>
</g>
</g>
</svg>
