<?xml version="1.0" encoding="UTF-8" standalone="no"?>
<!DOCTYPE svg PUBLIC "-//W3C//DTD SVG 1.1//EN"
 "http://www.w3.org/Graphics/SVG/1.1/DTD/svg11.dtd">
<!-- Generated by graphviz version 2.43.0 (0)
 -->
<!-- Title: pastafarianism Pages: 1 -->
<svg width="2888pt" height="513pt"
 viewBox="0.00 0.00 2888.50 513.48" xmlns="http://www.w3.org/2000/svg" xmlns:xlink="http://www.w3.org/1999/xlink">
<g id="graph0" class="graph" transform="scale(1 1) rotate(0) translate(4 509.48)">
<title>pastafarianism</title>
<polygon fill="white" stroke="transparent" points="-4,4 -4,-509.48 2884.5,-509.48 2884.5,4 -4,4"/>
<!-- selector:
 insert(left_hand, clampgripper, shaft1, gearbase_hole1) -->
<g id="node1" class="node">
<title>selector:
 insert(left_hand, clampgripper, shaft1, gearbase_hole1)</title>
<polygon fill="#8deeee" stroke="black" points="1256.65,-453.42 1256.65,-484.05 1021.69,-505.71 689.41,-505.71 454.45,-484.05 454.45,-453.42 689.41,-431.76 1021.69,-431.76 1256.65,-453.42"/>
<text text-anchor="middle" x="855.55" y="-474.34" font-family="Times,serif" font-size="18.00">selector:</text>
<text text-anchor="middle" x="855.55" y="-454.34" font-family="Times,serif" font-size="18.00"> insert(left_hand, clampgripper, shaft1, gearbase_hole1)</text>
</g>
<!-- target:
 is_inserted_to(shaft1, gearbase_hole1) -->
<g id="node2" class="node">
<title>target:
 is_inserted_to(shaft1, gearbase_hole1)</title>
<ellipse fill="#ffec8b" stroke="black" cx="591.55" cy="-360" rx="248.41" ry="36"/>
<text text-anchor="middle" x="591.55" y="-365.6" font-family="Times,serif" font-size="18.00">target:</text>
<text text-anchor="middle" x="591.55" y="-345.6" font-family="Times,serif" font-size="18.00"> is_inserted_to(shaft1, gearbase_hole1)</text>
</g>
<!-- selector:
 insert(left_hand, clampgripper, shaft1, gearbase_hole1)&#45;&gt;target:
 is_inserted_to(shaft1, gearbase_hole1) -->
<g id="edge1" class="edge">
<title>selector:
 insert(left_hand, clampgripper, shaft1, gearbase_hole1)&#45;&gt;target:
 is_inserted_to(shaft1, gearbase_hole1)</title>
<path fill="none" stroke="black" d="M766.91,-431.9C739.84,-420.96 710.04,-408.91 682.8,-397.89"/>
<polygon fill="black" stroke="black" points="683.86,-394.55 673.28,-394.04 681.24,-401.04 683.86,-394.55"/>
</g>
<!-- sequence:
 insert(left_hand, clampgripper, shaft1, gearbase_hole1) -->
<g id="node3" class="node">
<title>sequence:
 insert(left_hand, clampgripper, shaft1, gearbase_hole1)</title>
<polygon fill="#ff7f24" stroke="black" points="1381.55,-396 857.55,-396 857.55,-324 1381.55,-324 1381.55,-396"/>
<text text-anchor="middle" x="1119.55" y="-365.6" font-family="Times,serif" font-size="18.00">sequence:</text>
<text text-anchor="middle" x="1119.55" y="-345.6" font-family="Times,serif" font-size="18.00"> insert(left_hand, clampgripper, shaft1, gearbase_hole1)</text>
</g>
<!-- selector:
 insert(left_hand, clampgripper, shaft1, gearbase_hole1)&#45;&gt;sequence:
 insert(left_hand, clampgripper, shaft1, gearbase_hole1) -->
<g id="edge2" class="edge">
<title>selector:
 insert(left_hand, clampgripper, shaft1, gearbase_hole1)&#45;&gt;sequence:
 insert(left_hand, clampgripper, shaft1, gearbase_hole1)</title>
<path fill="none" stroke="black" d="M944.19,-431.9C969.67,-421.6 997.58,-410.31 1023.49,-399.84"/>
<polygon fill="black" stroke="black" points="1024.98,-403.01 1032.93,-396.02 1022.35,-396.52 1024.98,-403.01"/>
</g>
<!-- precondition:
 hold(left_hand, clampgripper) -->
<g id="node4" class="node">
<title>precondition:
 hold(left_hand, clampgripper)</title>
<ellipse fill="#ffec8b" stroke="black" cx="196.55" cy="-252" rx="196.6" ry="36"/>
<text text-anchor="middle" x="196.55" y="-257.6" font-family="Times,serif" font-size="18.00">precondition:</text>
<text text-anchor="middle" x="196.55" y="-237.6" font-family="Times,serif" font-size="18.00"> hold(left_hand, clampgripper)</text>
</g>
<!-- sequence:
 insert(left_hand, clampgripper, shaft1, gearbase_hole1)&#45;&gt;precondition:
 hold(left_hand, clampgripper) -->
<g id="edge3" class="edge">
<title>sequence:
 insert(left_hand, clampgripper, shaft1, gearbase_hole1)&#45;&gt;precondition:
 hold(left_hand, clampgripper)</title>
<path fill="none" stroke="black" d="M857.45,-324.94C854.47,-324.62 851.5,-324.31 848.55,-324 650.77,-303.26 599.88,-312.68 402.55,-288 383.3,-285.59 363.11,-282.66 343.21,-279.54"/>
<polygon fill="black" stroke="black" points="343.58,-276.05 333.15,-277.94 342.48,-282.97 343.58,-276.05"/>
</g>
<!-- selector:
 change_tool(left_hand, outwardgripper, clampgripper) -->
<g id="node5" class="node">
<title>selector:
 change_tool(left_hand, outwardgripper, clampgripper)</title>
<polygon fill="#8deeee" stroke="black" points="1156.02,-237.09 1156.02,-266.91 937.83,-288 629.27,-288 411.08,-266.91 411.08,-237.09 629.27,-216 937.83,-216 1156.02,-237.09"/>
<text text-anchor="middle" x="783.55" y="-257.6" font-family="Times,serif" font-size="18.00">selector:</text>
<text text-anchor="middle" x="783.55" y="-237.6" font-family="Times,serif" font-size="18.00"> change_tool(left_hand, outwardgripper, clampgripper)</text>
</g>
<!-- sequence:
 insert(left_hand, clampgripper, shaft1, gearbase_hole1)&#45;&gt;selector:
 change_tool(left_hand, outwardgripper, clampgripper) -->
<g id="edge4" class="edge">
<title>sequence:
 insert(left_hand, clampgripper, shaft1, gearbase_hole1)&#45;&gt;selector:
 change_tool(left_hand, outwardgripper, clampgripper)</title>
<path fill="none" stroke="black" d="M1008.6,-324C975.28,-313.49 938.57,-301.91 904.63,-291.2"/>
<polygon fill="black" stroke="black" points="905.26,-287.73 894.67,-288.06 903.15,-294.4 905.26,-287.73"/>
</g>
<!-- selector:
 pick_up(left_hand, clampgripper, shaft1) -->
<g id="node11" class="node">
<title>selector:
 pick_up(left_hand, clampgripper, shaft1)</title>
<polygon fill="#8deeee" stroke="black" points="1738.95,-237.09 1738.95,-266.91 1573.52,-288 1339.58,-288 1174.15,-266.91 1174.15,-237.09 1339.58,-216 1573.52,-216 1738.95,-237.09"/>
<text text-anchor="middle" x="1456.55" y="-257.6" font-family="Times,serif" font-size="18.00">selector:</text>
<text text-anchor="middle" x="1456.55" y="-237.6" font-family="Times,serif" font-size="18.00"> pick_up(left_hand, clampgripper, shaft1)</text>
</g>
<!-- sequence:
 insert(left_hand, clampgripper, shaft1, gearbase_hole1)&#45;&gt;selector:
 pick_up(left_hand, clampgripper, shaft1) -->
<g id="edge10" class="edge">
<title>sequence:
 insert(left_hand, clampgripper, shaft1, gearbase_hole1)&#45;&gt;selector:
 pick_up(left_hand, clampgripper, shaft1)</title>
<path fill="none" stroke="black" d="M1230.83,-324C1264.39,-313.44 1301.39,-301.81 1335.54,-291.06"/>
<polygon fill="black" stroke="black" points="1336.61,-294.4 1345.1,-288.06 1334.51,-287.72 1336.61,-294.4"/>
</g>
<!-- action:
 insert(left_hand, clampgripper, shaft1, gearbase_hole1) -->
<g id="node17" class="node">
<title>action:
 insert(left_hand, clampgripper, shaft1, gearbase_hole1)</title>
<ellipse fill="lightgreen" stroke="black" cx="2108.55" cy="-252" rx="351.52" ry="36"/>
<text text-anchor="middle" x="2108.55" y="-257.6" font-family="Times,serif" font-size="18.00">action:</text>
<text text-anchor="middle" x="2108.55" y="-237.6" font-family="Times,serif" font-size="18.00"> insert(left_hand, clampgripper, shaft1, gearbase_hole1)</text>
</g>
<!-- sequence:
 insert(left_hand, clampgripper, shaft1, gearbase_hole1)&#45;&gt;action:
 insert(left_hand, clampgripper, shaft1, gearbase_hole1) -->
<g id="edge16" class="edge">
<title>sequence:
 insert(left_hand, clampgripper, shaft1, gearbase_hole1)&#45;&gt;action:
 insert(left_hand, clampgripper, shaft1, gearbase_hole1)</title>
<path fill="none" stroke="black" d="M1381.66,-330.91C1530.05,-315 1714.57,-295.23 1860.56,-279.58"/>
<polygon fill="black" stroke="black" points="1860.99,-283.05 1870.56,-278.51 1860.25,-276.09 1860.99,-283.05"/>
</g>
<!-- target:
 hold(left_hand, clampgripper) -->
<g id="node6" class="node">
<title>target:
 hold(left_hand, clampgripper)</title>
<ellipse fill="#ffec8b" stroke="black" cx="312.55" cy="-144" rx="196.6" ry="36"/>
<text text-anchor="middle" x="312.55" y="-149.6" font-family="Times,serif" font-size="18.00">target:</text>
<text text-anchor="middle" x="312.55" y="-129.6" font-family="Times,serif" font-size="18.00"> hold(left_hand, clampgripper)</text>
</g>
<!-- selector:
 change_tool(left_hand, outwardgripper, clampgripper)&#45;&gt;target:
 hold(left_hand, clampgripper) -->
<g id="edge5" class="edge">
<title>selector:
 change_tool(left_hand, outwardgripper, clampgripper)&#45;&gt;target:
 hold(left_hand, clampgripper)</title>
<path fill="none" stroke="black" d="M628.35,-216.07C568.68,-202.64 501.19,-187.45 443.97,-174.58"/>
<polygon fill="black" stroke="black" points="444.67,-171.15 434.15,-172.37 443.13,-177.98 444.67,-171.15"/>
</g>
<!-- sequence:
 change_tool(left_hand, outwardgripper, clampgripper) -->
<g id="node7" class="node">
<title>sequence:
 change_tool(left_hand, outwardgripper, clampgripper)</title>
<polygon fill="#ff7f24" stroke="black" points="1040.05,-180 527.05,-180 527.05,-108 1040.05,-108 1040.05,-180"/>
<text text-anchor="middle" x="783.55" y="-149.6" font-family="Times,serif" font-size="18.00">sequence:</text>
<text text-anchor="middle" x="783.55" y="-129.6" font-family="Times,serif" font-size="18.00"> change_tool(left_hand, outwardgripper, clampgripper)</text>
</g>
<!-- selector:
 change_tool(left_hand, outwardgripper, clampgripper)&#45;&gt;sequence:
 change_tool(left_hand, outwardgripper, clampgripper) -->
<g id="edge6" class="edge">
<title>selector:
 change_tool(left_hand, outwardgripper, clampgripper)&#45;&gt;sequence:
 change_tool(left_hand, outwardgripper, clampgripper)</title>
<path fill="none" stroke="black" d="M783.55,-216C783.55,-207.85 783.55,-199.06 783.55,-190.54"/>
<polygon fill="black" stroke="black" points="787.05,-190.33 783.55,-180.33 780.05,-190.33 787.05,-190.33"/>
</g>
<!-- precondition:
 hold(left_hand, outwardgripper) -->
<g id="node8" class="node">
<title>precondition:
 hold(left_hand, outwardgripper)</title>
<ellipse fill="#ffec8b" stroke="black" cx="286.55" cy="-36" rx="209.93" ry="36"/>
<text text-anchor="middle" x="286.55" y="-41.6" font-family="Times,serif" font-size="18.00">precondition:</text>
<text text-anchor="middle" x="286.55" y="-21.6" font-family="Times,serif" font-size="18.00"> hold(left_hand, outwardgripper)</text>
</g>
<!-- sequence:
 change_tool(left_hand, outwardgripper, clampgripper)&#45;&gt;precondition:
 hold(left_hand, outwardgripper) -->
<g id="edge7" class="edge">
<title>sequence:
 change_tool(left_hand, outwardgripper, clampgripper)&#45;&gt;precondition:
 hold(left_hand, outwardgripper)</title>
<path fill="none" stroke="black" d="M619.44,-108C556.63,-94.6 485.66,-79.47 425.44,-66.62"/>
<polygon fill="black" stroke="black" points="425.99,-63.16 415.48,-64.5 424.53,-70.01 425.99,-63.16"/>
</g>
<!-- precondition:
 is_empty(outwardgripper) -->
<g id="node9" class="node">
<title>precondition:
 is_empty(outwardgripper)</title>
<ellipse fill="#ffec8b" stroke="black" cx="688.55" cy="-36" rx="173.99" ry="36"/>
<text text-anchor="middle" x="688.55" y="-41.6" font-family="Times,serif" font-size="18.00">precondition:</text>
<text text-anchor="middle" x="688.55" y="-21.6" font-family="Times,serif" font-size="18.00"> is_empty(outwardgripper)</text>
</g>
<!-- sequence:
 change_tool(left_hand, outwardgripper, clampgripper)&#45;&gt;precondition:
 is_empty(outwardgripper) -->
<g id="edge8" class="edge">
<title>sequence:
 change_tool(left_hand, outwardgripper, clampgripper)&#45;&gt;precondition:
 is_empty(outwardgripper)</title>
<path fill="none" stroke="black" d="M752.18,-108C743.91,-98.77 734.89,-88.71 726.32,-79.14"/>
<polygon fill="black" stroke="black" points="728.84,-76.72 719.56,-71.6 723.63,-81.39 728.84,-76.72"/>
</g>
<!-- action:
 change_tool(left_hand, outwardgripper, clampgripper) -->
<g id="node10" class="node">
<title>action:
 change_tool(left_hand, outwardgripper, clampgripper)</title>
<ellipse fill="lightgreen" stroke="black" cx="1224.55" cy="-36" rx="344.26" ry="36"/>
<text text-anchor="middle" x="1224.55" y="-41.6" font-family="Times,serif" font-size="18.00">action:</text>
<text text-anchor="middle" x="1224.55" y="-21.6" font-family="Times,serif" font-size="18.00"> change_tool(left_hand, outwardgripper, clampgripper)</text>
</g>
<!-- sequence:
 change_tool(left_hand, outwardgripper, clampgripper)&#45;&gt;action:
 change_tool(left_hand, outwardgripper, clampgripper) -->
<g id="edge9" class="edge">
<title>sequence:
 change_tool(left_hand, outwardgripper, clampgripper)&#45;&gt;action:
 change_tool(left_hand, outwardgripper, clampgripper)</title>
<path fill="none" stroke="black" d="M929.17,-108C977.88,-96.29 1032.11,-83.26 1080.68,-71.58"/>
<polygon fill="black" stroke="black" points="1081.73,-74.93 1090.63,-69.19 1080.09,-68.12 1081.73,-74.93"/>
</g>
<!-- target:
 hold(clampgripper, shaft1) -->
<g id="node12" class="node">
<title>target:
 hold(clampgripper, shaft1)</title>
<ellipse fill="#ffec8b" stroke="black" cx="1456.55" cy="-144" rx="176.35" ry="36"/>
<text text-anchor="middle" x="1456.55" y="-149.6" font-family="Times,serif" font-size="18.00">target:</text>
<text text-anchor="middle" x="1456.55" y="-129.6" font-family="Times,serif" font-size="18.00"> hold(clampgripper, shaft1)</text>
</g>
<!-- selector:
 pick_up(left_hand, clampgripper, shaft1)&#45;&gt;target:
 hold(clampgripper, shaft1) -->
<g id="edge11" class="edge">
<title>selector:
 pick_up(left_hand, clampgripper, shaft1)&#45;&gt;target:
 hold(clampgripper, shaft1)</title>
<path fill="none" stroke="black" d="M1456.55,-216C1456.55,-207.85 1456.55,-199.06 1456.55,-190.54"/>
<polygon fill="black" stroke="black" points="1460.05,-190.33 1456.55,-180.33 1453.05,-190.33 1460.05,-190.33"/>
</g>
<!-- sequence:
 pick_up(left_hand, clampgripper, shaft1) -->
<g id="node13" class="node">
<title>sequence:
 pick_up(left_hand, clampgripper, shaft1)</title>
<polygon fill="#ff7f24" stroke="black" points="2231.05,-180 1842.05,-180 1842.05,-108 2231.05,-108 2231.05,-180"/>
<text text-anchor="middle" x="2036.55" y="-149.6" font-family="Times,serif" font-size="18.00">sequence:</text>
<text text-anchor="middle" x="2036.55" y="-129.6" font-family="Times,serif" font-size="18.00"> pick_up(left_hand, clampgripper, shaft1)</text>
</g>
<!-- selector:
 pick_up(left_hand, clampgripper, shaft1)&#45;&gt;sequence:
 pick_up(left_hand, clampgripper, shaft1) -->
<g id="edge12" class="edge">
<title>selector:
 pick_up(left_hand, clampgripper, shaft1)&#45;&gt;sequence:
 pick_up(left_hand, clampgripper, shaft1)</title>
<path fill="none" stroke="black" d="M1617.73,-221.54C1684.96,-209.26 1763.79,-194.85 1834.81,-181.87"/>
<polygon fill="black" stroke="black" points="1835.57,-185.29 1844.78,-180.05 1834.31,-178.4 1835.57,-185.29"/>
</g>
<!-- precondition:
 is_empty(clampgripper) -->
<g id="node14" class="node">
<title>precondition:
 is_empty(clampgripper)</title>
<ellipse fill="#ffec8b" stroke="black" cx="1746.55" cy="-36" rx="160.15" ry="36"/>
<text text-anchor="middle" x="1746.55" y="-41.6" font-family="Times,serif" font-size="18.00">precondition:</text>
<text text-anchor="middle" x="1746.55" y="-21.6" font-family="Times,serif" font-size="18.00"> is_empty(clampgripper)</text>
</g>
<!-- sequence:
 pick_up(left_hand, clampgripper, shaft1)&#45;&gt;precondition:
 is_empty(clampgripper) -->
<g id="edge13" class="edge">
<title>sequence:
 pick_up(left_hand, clampgripper, shaft1)&#45;&gt;precondition:
 is_empty(clampgripper)</title>
<path fill="none" stroke="black" d="M1940.79,-108C1907.75,-95.92 1870.85,-82.43 1838.16,-70.48"/>
<polygon fill="black" stroke="black" points="1839.2,-67.14 1828.6,-66.99 1836.8,-73.71 1839.2,-67.14"/>
</g>
<!-- &quot;precondition:\n hold(left_hand, clampgripper)&quot;* -->
<g id="node15" class="node">
<title>&quot;precondition:\n hold(left_hand, clampgripper)&quot;*</title>
<ellipse fill="#ffec8b" stroke="black" cx="2132.55" cy="-36" rx="207.91" ry="36"/>
<text text-anchor="middle" x="2132.55" y="-41.6" font-family="Times,serif" font-size="18.00">&quot;precondition:</text>
<text text-anchor="middle" x="2132.55" y="-21.6" font-family="Times,serif" font-size="18.00"> hold(left_hand, clampgripper)&quot;*</text>
</g>
<!-- sequence:
 pick_up(left_hand, clampgripper, shaft1)&#45;&gt;&quot;precondition:\n hold(left_hand, clampgripper)&quot;* -->
<g id="edge14" class="edge">
<title>sequence:
 pick_up(left_hand, clampgripper, shaft1)&#45;&gt;&quot;precondition:\n hold(left_hand, clampgripper)&quot;*</title>
<path fill="none" stroke="black" d="M2068.25,-108C2076.61,-98.77 2085.72,-88.71 2094.38,-79.14"/>
<polygon fill="black" stroke="black" points="2097.09,-81.37 2101.21,-71.6 2091.9,-76.67 2097.09,-81.37"/>
</g>
<!-- action:
 pick_up(left_hand, clampgripper, shaft1) -->
<g id="node16" class="node">
<title>action:
 pick_up(left_hand, clampgripper, shaft1)</title>
<ellipse fill="lightgreen" stroke="black" cx="2619.55" cy="-36" rx="260.9" ry="36"/>
<text text-anchor="middle" x="2619.55" y="-41.6" font-family="Times,serif" font-size="18.00">action:</text>
<text text-anchor="middle" x="2619.55" y="-21.6" font-family="Times,serif" font-size="18.00"> pick_up(left_hand, clampgripper, shaft1)</text>
</g>
<!-- sequence:
 pick_up(left_hand, clampgripper, shaft1)&#45;&gt;action:
 pick_up(left_hand, clampgripper, shaft1) -->
<g id="edge15" class="edge">
<title>sequence:
 pick_up(left_hand, clampgripper, shaft1)&#45;&gt;action:
 pick_up(left_hand, clampgripper, shaft1)</title>
<path fill="none" stroke="black" d="M2229.06,-108C2302.24,-94.69 2384.85,-79.67 2455.19,-66.88"/>
<polygon fill="black" stroke="black" points="2455.82,-70.33 2465.03,-65.09 2454.56,-63.44 2455.82,-70.33"/>
</g>
</g>
</svg>
