<?xml version="1.0" encoding="UTF-8" standalone="no"?>
<!DOCTYPE svg PUBLIC "-//W3C//DTD SVG 1.1//EN"
 "http://www.w3.org/Graphics/SVG/1.1/DTD/svg11.dtd">
<!-- Generated by graphviz version 2.43.0 (0)
 -->
<!-- Title: pastafarianism Pages: 1 -->
<svg width="4398pt" height="513pt"
 viewBox="0.00 0.00 4397.95 513.48" xmlns="http://www.w3.org/2000/svg" xmlns:xlink="http://www.w3.org/1999/xlink">
<g id="graph0" class="graph" transform="scale(1 1) rotate(0) translate(4 509.48)">
<title>pastafarianism</title>
<polygon fill="white" stroke="transparent" points="-4,4 -4,-509.48 4393.95,-509.48 4393.95,4 -4,4"/>
<!-- selector:
 insert(left_hand, defaultgripper, shaft1, gearbase_hole1) -->
<g id="node1" class="node">
<title>selector:
 insert(left_hand, defaultgripper, shaft1, gearbase_hole1)</title>
<polygon fill="#8deeee" stroke="black" points="2542.85,-453.42 2542.85,-484.05 2303.92,-505.71 1966.02,-505.71 1727.09,-484.05 1727.09,-453.42 1966.02,-431.76 2303.92,-431.76 2542.85,-453.42"/>
<text text-anchor="middle" x="2134.97" y="-474.34" font-family="Times,serif" font-size="18.00">selector:</text>
<text text-anchor="middle" x="2134.97" y="-454.34" font-family="Times,serif" font-size="18.00"> insert(left_hand, defaultgripper, shaft1, gearbase_hole1)</text>
</g>
<!-- target:
 is_inserted_to(shaft1, gearbase_hole1) -->
<g id="node2" class="node">
<title>target:
 is_inserted_to(shaft1, gearbase_hole1)</title>
<ellipse fill="#ffec8b" stroke="black" cx="1868.97" cy="-360" rx="248.41" ry="36"/>
<text text-anchor="middle" x="1868.97" y="-365.6" font-family="Times,serif" font-size="18.00">target:</text>
<text text-anchor="middle" x="1868.97" y="-345.6" font-family="Times,serif" font-size="18.00"> is_inserted_to(shaft1, gearbase_hole1)</text>
</g>
<!-- selector:
 insert(left_hand, defaultgripper, shaft1, gearbase_hole1)&#45;&gt;target:
 is_inserted_to(shaft1, gearbase_hole1) -->
<g id="edge1" class="edge">
<title>selector:
 insert(left_hand, defaultgripper, shaft1, gearbase_hole1)&#45;&gt;target:
 is_inserted_to(shaft1, gearbase_hole1)</title>
<path fill="none" stroke="black" d="M2045.65,-431.9C2018.38,-420.96 1988.35,-408.91 1960.91,-397.89"/>
<polygon fill="black" stroke="black" points="1961.9,-394.52 1951.32,-394.04 1959.29,-401.02 1961.9,-394.52"/>
</g>
<!-- sequence:
 insert(left_hand, defaultgripper, shaft1, gearbase_hole1) -->
<g id="node3" class="node">
<title>sequence:
 insert(left_hand, defaultgripper, shaft1, gearbase_hole1)</title>
<polygon fill="#ff7f24" stroke="black" points="2668.47,-396 2135.47,-396 2135.47,-324 2668.47,-324 2668.47,-396"/>
<text text-anchor="middle" x="2401.97" y="-365.6" font-family="Times,serif" font-size="18.00">sequence:</text>
<text text-anchor="middle" x="2401.97" y="-345.6" font-family="Times,serif" font-size="18.00"> insert(left_hand, defaultgripper, shaft1, gearbase_hole1)</text>
</g>
<!-- selector:
 insert(left_hand, defaultgripper, shaft1, gearbase_hole1)&#45;&gt;sequence:
 insert(left_hand, defaultgripper, shaft1, gearbase_hole1) -->
<g id="edge2" class="edge">
<title>selector:
 insert(left_hand, defaultgripper, shaft1, gearbase_hole1)&#45;&gt;sequence:
 insert(left_hand, defaultgripper, shaft1, gearbase_hole1)</title>
<path fill="none" stroke="black" d="M2224.62,-431.9C2250.39,-421.6 2278.61,-410.31 2304.81,-399.84"/>
<polygon fill="black" stroke="black" points="2306.38,-402.98 2314.37,-396.02 2303.78,-396.48 2306.38,-402.98"/>
</g>
<!-- selector:
 put_down(left_hand, outwardgripper, lampshade) -->
<g id="node4" class="node">
<title>selector:
 put_down(left_hand, outwardgripper, lampshade)</title>
<polygon fill="#8deeee" stroke="black" points="1270.54,-237.09 1270.54,-266.91 1071.04,-288 788.9,-288 589.39,-266.91 589.39,-237.09 788.9,-216 1071.04,-216 1270.54,-237.09"/>
<text text-anchor="middle" x="929.97" y="-257.6" font-family="Times,serif" font-size="18.00">selector:</text>
<text text-anchor="middle" x="929.97" y="-237.6" font-family="Times,serif" font-size="18.00"> put_down(left_hand, outwardgripper, lampshade)</text>
</g>
<!-- sequence:
 insert(left_hand, defaultgripper, shaft1, gearbase_hole1)&#45;&gt;selector:
 put_down(left_hand, outwardgripper, lampshade) -->
<g id="edge3" class="edge">
<title>sequence:
 insert(left_hand, defaultgripper, shaft1, gearbase_hole1)&#45;&gt;selector:
 put_down(left_hand, outwardgripper, lampshade)</title>
<path fill="none" stroke="black" d="M2135.4,-324.89C2132.24,-324.59 2129.09,-324.29 2125.97,-324 1841.52,-297.55 1518.05,-279.05 1279.29,-267.57"/>
<polygon fill="black" stroke="black" points="1279.21,-264.07 1269.06,-267.08 1278.88,-271.06 1279.21,-264.07"/>
</g>
<!-- selector:
 change_tool(left_hand, outwardgripper, defaultgripper) -->
<g id="node10" class="node">
<title>selector:
 change_tool(left_hand, outwardgripper, defaultgripper)</title>
<polygon fill="#8deeee" stroke="black" points="2438.01,-237.09 2438.01,-266.91 2215.97,-288 1901.96,-288 1679.93,-266.91 1679.93,-237.09 1901.96,-216 2215.97,-216 2438.01,-237.09"/>
<text text-anchor="middle" x="2058.97" y="-257.6" font-family="Times,serif" font-size="18.00">selector:</text>
<text text-anchor="middle" x="2058.97" y="-237.6" font-family="Times,serif" font-size="18.00"> change_tool(left_hand, outwardgripper, defaultgripper)</text>
</g>
<!-- sequence:
 insert(left_hand, defaultgripper, shaft1, gearbase_hole1)&#45;&gt;selector:
 change_tool(left_hand, outwardgripper, defaultgripper) -->
<g id="edge9" class="edge">
<title>sequence:
 insert(left_hand, defaultgripper, shaft1, gearbase_hole1)&#45;&gt;selector:
 change_tool(left_hand, outwardgripper, defaultgripper)</title>
<path fill="none" stroke="black" d="M2288.71,-324C2254.55,-313.44 2216.89,-301.81 2182.13,-291.06"/>
<polygon fill="black" stroke="black" points="2182.99,-287.66 2172.4,-288.06 2180.92,-294.35 2182.99,-287.66"/>
</g>
<!-- selector:
 pick_up(left_hand, defaultgripper, shaft1) -->
<g id="node16" class="node">
<title>selector:
 pick_up(left_hand, defaultgripper, shaft1)</title>
<polygon fill="#8deeee" stroke="black" points="3033.94,-237.09 3033.94,-266.91 2864.66,-288 2625.27,-288 2456,-266.91 2456,-237.09 2625.27,-216 2864.66,-216 3033.94,-237.09"/>
<text text-anchor="middle" x="2744.97" y="-257.6" font-family="Times,serif" font-size="18.00">selector:</text>
<text text-anchor="middle" x="2744.97" y="-237.6" font-family="Times,serif" font-size="18.00"> pick_up(left_hand, defaultgripper, shaft1)</text>
</g>
<!-- sequence:
 insert(left_hand, defaultgripper, shaft1, gearbase_hole1)&#45;&gt;selector:
 pick_up(left_hand, defaultgripper, shaft1) -->
<g id="edge15" class="edge">
<title>sequence:
 insert(left_hand, defaultgripper, shaft1, gearbase_hole1)&#45;&gt;selector:
 pick_up(left_hand, defaultgripper, shaft1)</title>
<path fill="none" stroke="black" d="M2515.23,-324C2549.39,-313.44 2587.04,-301.81 2621.81,-291.06"/>
<polygon fill="black" stroke="black" points="2623.01,-294.35 2631.53,-288.06 2620.94,-287.66 2623.01,-294.35"/>
</g>
<!-- action:
 insert(left_hand, defaultgripper, shaft1, gearbase_hole1) -->
<g id="node22" class="node">
<title>action:
 insert(left_hand, defaultgripper, shaft1, gearbase_hole1)</title>
<ellipse fill="lightgreen" stroke="black" cx="3409.97" cy="-252" rx="357.59" ry="36"/>
<text text-anchor="middle" x="3409.97" y="-257.6" font-family="Times,serif" font-size="18.00">action:</text>
<text text-anchor="middle" x="3409.97" y="-237.6" font-family="Times,serif" font-size="18.00"> insert(left_hand, defaultgripper, shaft1, gearbase_hole1)</text>
</g>
<!-- sequence:
 insert(left_hand, defaultgripper, shaft1, gearbase_hole1)&#45;&gt;action:
 insert(left_hand, defaultgripper, shaft1, gearbase_hole1) -->
<g id="edge21" class="edge">
<title>sequence:
 insert(left_hand, defaultgripper, shaft1, gearbase_hole1)&#45;&gt;action:
 insert(left_hand, defaultgripper, shaft1, gearbase_hole1)</title>
<path fill="none" stroke="black" d="M2668.79,-330.94C2820.16,-315.02 3008.52,-295.22 3157.47,-279.55"/>
<polygon fill="black" stroke="black" points="3158.1,-283.01 3167.68,-278.48 3157.37,-276.04 3158.1,-283.01"/>
</g>
<!-- target:
 is_empty(outwardgripper) -->
<g id="node5" class="node">
<title>target:
 is_empty(outwardgripper)</title>
<ellipse fill="#ffec8b" stroke="black" cx="503.97" cy="-144" rx="173.99" ry="36"/>
<text text-anchor="middle" x="503.97" y="-149.6" font-family="Times,serif" font-size="18.00">target:</text>
<text text-anchor="middle" x="503.97" y="-129.6" font-family="Times,serif" font-size="18.00"> is_empty(outwardgripper)</text>
</g>
<!-- selector:
 put_down(left_hand, outwardgripper, lampshade)&#45;&gt;target:
 is_empty(outwardgripper) -->
<g id="edge4" class="edge">
<title>selector:
 put_down(left_hand, outwardgripper, lampshade)&#45;&gt;target:
 is_empty(outwardgripper)</title>
<path fill="none" stroke="black" d="M789.3,-216C735.34,-202.57 674.35,-187.4 622.65,-174.53"/>
<polygon fill="black" stroke="black" points="623.33,-171.09 612.78,-172.07 621.63,-177.89 623.33,-171.09"/>
</g>
<!-- sequence:
 put_down(left_hand, outwardgripper, lampshade) -->
<g id="node6" class="node">
<title>sequence:
 put_down(left_hand, outwardgripper, lampshade)</title>
<polygon fill="#ff7f24" stroke="black" points="1164.47,-180 695.47,-180 695.47,-108 1164.47,-108 1164.47,-180"/>
<text text-anchor="middle" x="929.97" y="-149.6" font-family="Times,serif" font-size="18.00">sequence:</text>
<text text-anchor="middle" x="929.97" y="-129.6" font-family="Times,serif" font-size="18.00"> put_down(left_hand, outwardgripper, lampshade)</text>
</g>
<!-- selector:
 put_down(left_hand, outwardgripper, lampshade)&#45;&gt;sequence:
 put_down(left_hand, outwardgripper, lampshade) -->
<g id="edge5" class="edge">
<title>selector:
 put_down(left_hand, outwardgripper, lampshade)&#45;&gt;sequence:
 put_down(left_hand, outwardgripper, lampshade)</title>
<path fill="none" stroke="black" d="M929.97,-216C929.97,-207.85 929.97,-199.06 929.97,-190.54"/>
<polygon fill="black" stroke="black" points="933.47,-190.33 929.97,-180.33 926.47,-190.33 933.47,-190.33"/>
</g>
<!-- precondition:
 hold(left_hand, outwardgripper) -->
<g id="node7" class="node">
<title>precondition:
 hold(left_hand, outwardgripper)</title>
<ellipse fill="#ffec8b" stroke="black" cx="209.97" cy="-36" rx="209.93" ry="36"/>
<text text-anchor="middle" x="209.97" y="-41.6" font-family="Times,serif" font-size="18.00">precondition:</text>
<text text-anchor="middle" x="209.97" y="-21.6" font-family="Times,serif" font-size="18.00"> hold(left_hand, outwardgripper)</text>
</g>
<!-- sequence:
 put_down(left_hand, outwardgripper, lampshade)&#45;&gt;precondition:
 hold(left_hand, outwardgripper) -->
<g id="edge6" class="edge">
<title>sequence:
 put_down(left_hand, outwardgripper, lampshade)&#45;&gt;precondition:
 hold(left_hand, outwardgripper)</title>
<path fill="none" stroke="black" d="M695.25,-109.17C692.47,-108.78 689.71,-108.39 686.97,-108 572.34,-91.75 543.47,-89.14 428.97,-72 409.75,-69.12 389.59,-66.02 369.62,-62.89"/>
<polygon fill="black" stroke="black" points="369.94,-59.4 359.52,-61.31 368.85,-66.32 369.94,-59.4"/>
</g>
<!-- precondition:
 hold(outwardgripper, lampshade) -->
<g id="node8" class="node">
<title>precondition:
 hold(outwardgripper, lampshade)</title>
<ellipse fill="#ffec8b" stroke="black" cx="654.97" cy="-36" rx="217.19" ry="36"/>
<text text-anchor="middle" x="654.97" y="-41.6" font-family="Times,serif" font-size="18.00">precondition:</text>
<text text-anchor="middle" x="654.97" y="-21.6" font-family="Times,serif" font-size="18.00"> hold(outwardgripper, lampshade)</text>
</g>
<!-- sequence:
 put_down(left_hand, outwardgripper, lampshade)&#45;&gt;precondition:
 hold(outwardgripper, lampshade) -->
<g id="edge7" class="edge">
<title>sequence:
 put_down(left_hand, outwardgripper, lampshade)&#45;&gt;precondition:
 hold(outwardgripper, lampshade)</title>
<path fill="none" stroke="black" d="M839.16,-108C809.94,-96.73 777.52,-84.24 748.13,-72.91"/>
<polygon fill="black" stroke="black" points="749.3,-69.61 738.71,-69.28 746.78,-76.14 749.3,-69.61"/>
</g>
<!-- action:
 put_down(left_hand, outwardgripper, lampshade) -->
<g id="node9" class="node">
<title>action:
 put_down(left_hand, outwardgripper, lampshade)</title>
<ellipse fill="lightgreen" stroke="black" cx="1204.97" cy="-36" rx="314.73" ry="36"/>
<text text-anchor="middle" x="1204.97" y="-41.6" font-family="Times,serif" font-size="18.00">action:</text>
<text text-anchor="middle" x="1204.97" y="-21.6" font-family="Times,serif" font-size="18.00"> put_down(left_hand, outwardgripper, lampshade)</text>
</g>
<!-- sequence:
 put_down(left_hand, outwardgripper, lampshade)&#45;&gt;action:
 put_down(left_hand, outwardgripper, lampshade) -->
<g id="edge8" class="edge">
<title>sequence:
 put_down(left_hand, outwardgripper, lampshade)&#45;&gt;action:
 put_down(left_hand, outwardgripper, lampshade)</title>
<path fill="none" stroke="black" d="M1020.77,-108C1048.75,-97.22 1079.64,-85.31 1108.01,-74.37"/>
<polygon fill="black" stroke="black" points="1109.45,-77.57 1117.53,-70.7 1106.94,-71.04 1109.45,-77.57"/>
</g>
<!-- target:
 hold(left_hand, defaultgripper) -->
<g id="node11" class="node">
<title>target:
 hold(left_hand, defaultgripper)</title>
<ellipse fill="#ffec8b" stroke="black" cx="1689.97" cy="-144" rx="202.68" ry="36"/>
<text text-anchor="middle" x="1689.97" y="-149.6" font-family="Times,serif" font-size="18.00">target:</text>
<text text-anchor="middle" x="1689.97" y="-129.6" font-family="Times,serif" font-size="18.00"> hold(left_hand, defaultgripper)</text>
</g>
<!-- selector:
 change_tool(left_hand, outwardgripper, defaultgripper)&#45;&gt;target:
 hold(left_hand, defaultgripper) -->
<g id="edge10" class="edge">
<title>selector:
 change_tool(left_hand, outwardgripper, defaultgripper)&#45;&gt;target:
 hold(left_hand, defaultgripper)</title>
<path fill="none" stroke="black" d="M1937.12,-216C1894.18,-203.66 1846.09,-189.85 1803.84,-177.71"/>
<polygon fill="black" stroke="black" points="1804.65,-174.3 1794.07,-174.91 1802.72,-181.03 1804.65,-174.3"/>
</g>
<!-- sequence:
 change_tool(left_hand, outwardgripper, defaultgripper) -->
<g id="node12" class="node">
<title>sequence:
 change_tool(left_hand, outwardgripper, defaultgripper)</title>
<polygon fill="#ff7f24" stroke="black" points="2432.97,-180 1910.97,-180 1910.97,-108 2432.97,-108 2432.97,-180"/>
<text text-anchor="middle" x="2171.97" y="-149.6" font-family="Times,serif" font-size="18.00">sequence:</text>
<text text-anchor="middle" x="2171.97" y="-129.6" font-family="Times,serif" font-size="18.00"> change_tool(left_hand, outwardgripper, defaultgripper)</text>
</g>
<!-- selector:
 change_tool(left_hand, outwardgripper, defaultgripper)&#45;&gt;sequence:
 change_tool(left_hand, outwardgripper, defaultgripper) -->
<g id="edge11" class="edge">
<title>selector:
 change_tool(left_hand, outwardgripper, defaultgripper)&#45;&gt;sequence:
 change_tool(left_hand, outwardgripper, defaultgripper)</title>
<path fill="none" stroke="black" d="M2096.28,-216C2106.11,-206.78 2116.82,-196.73 2127,-187.18"/>
<polygon fill="black" stroke="black" points="2129.41,-189.72 2134.31,-180.33 2124.62,-184.62 2129.41,-189.72"/>
</g>
<!-- &quot;precondition:\n hold(left_hand, outwardgripper)&quot;* -->
<g id="node13" class="node">
<title>&quot;precondition:\n hold(left_hand, outwardgripper)&quot;*</title>
<ellipse fill="#ffec8b" stroke="black" cx="1758.97" cy="-36" rx="221.24" ry="36"/>
<text text-anchor="middle" x="1758.97" y="-41.6" font-family="Times,serif" font-size="18.00">&quot;precondition:</text>
<text text-anchor="middle" x="1758.97" y="-21.6" font-family="Times,serif" font-size="18.00"> hold(left_hand, outwardgripper)&quot;*</text>
</g>
<!-- sequence:
 change_tool(left_hand, outwardgripper, defaultgripper)&#45;&gt;&quot;precondition:\n hold(left_hand, outwardgripper)&quot;* -->
<g id="edge12" class="edge">
<title>sequence:
 change_tool(left_hand, outwardgripper, defaultgripper)&#45;&gt;&quot;precondition:\n hold(left_hand, outwardgripper)&quot;*</title>
<path fill="none" stroke="black" d="M2035.59,-108C1986.9,-95.5 1932.31,-81.49 1884.57,-69.24"/>
<polygon fill="black" stroke="black" points="1885.36,-65.83 1874.81,-66.73 1883.62,-72.61 1885.36,-65.83"/>
</g>
<!-- precondition:
 is_empty(outwardgripper) -->
<g id="node14" class="node">
<title>precondition:
 is_empty(outwardgripper)</title>
<ellipse fill="#ffec8b" stroke="black" cx="2171.97" cy="-36" rx="173.99" ry="36"/>
<text text-anchor="middle" x="2171.97" y="-41.6" font-family="Times,serif" font-size="18.00">precondition:</text>
<text text-anchor="middle" x="2171.97" y="-21.6" font-family="Times,serif" font-size="18.00"> is_empty(outwardgripper)</text>
</g>
<!-- sequence:
 change_tool(left_hand, outwardgripper, defaultgripper)&#45;&gt;precondition:
 is_empty(outwardgripper) -->
<g id="edge13" class="edge">
<title>sequence:
 change_tool(left_hand, outwardgripper, defaultgripper)&#45;&gt;precondition:
 is_empty(outwardgripper)</title>
<path fill="none" stroke="black" d="M2171.97,-108C2171.97,-99.85 2171.97,-91.06 2171.97,-82.54"/>
<polygon fill="black" stroke="black" points="2175.47,-82.33 2171.97,-72.33 2168.47,-82.33 2175.47,-82.33"/>
</g>
<!-- action:
 change_tool(left_hand, outwardgripper, defaultgripper) -->
<g id="node15" class="node">
<title>action:
 change_tool(left_hand, outwardgripper, defaultgripper)</title>
<ellipse fill="lightgreen" stroke="black" cx="2713.97" cy="-36" rx="350.34" ry="36"/>
<text text-anchor="middle" x="2713.97" y="-41.6" font-family="Times,serif" font-size="18.00">action:</text>
<text text-anchor="middle" x="2713.97" y="-21.6" font-family="Times,serif" font-size="18.00"> change_tool(left_hand, outwardgripper, defaultgripper)</text>
</g>
<!-- sequence:
 change_tool(left_hand, outwardgripper, defaultgripper)&#45;&gt;action:
 change_tool(left_hand, outwardgripper, defaultgripper) -->
<g id="edge14" class="edge">
<title>sequence:
 change_tool(left_hand, outwardgripper, defaultgripper)&#45;&gt;action:
 change_tool(left_hand, outwardgripper, defaultgripper)</title>
<path fill="none" stroke="black" d="M2350.94,-108C2413.43,-95.78 2483.32,-82.11 2544.97,-70.05"/>
<polygon fill="black" stroke="black" points="2545.65,-73.48 2554.8,-68.13 2544.31,-66.61 2545.65,-73.48"/>
</g>
<!-- target:
 hold(defaultgripper, shaft1) -->
<g id="node17" class="node">
<title>target:
 hold(defaultgripper, shaft1)</title>
<ellipse fill="#ffec8b" stroke="black" cx="2744.97" cy="-144" rx="182.43" ry="36"/>
<text text-anchor="middle" x="2744.97" y="-149.6" font-family="Times,serif" font-size="18.00">target:</text>
<text text-anchor="middle" x="2744.97" y="-129.6" font-family="Times,serif" font-size="18.00"> hold(defaultgripper, shaft1)</text>
</g>
<!-- selector:
 pick_up(left_hand, defaultgripper, shaft1)&#45;&gt;target:
 hold(defaultgripper, shaft1) -->
<g id="edge16" class="edge">
<title>selector:
 pick_up(left_hand, defaultgripper, shaft1)&#45;&gt;target:
 hold(defaultgripper, shaft1)</title>
<path fill="none" stroke="black" d="M2744.97,-216C2744.97,-207.85 2744.97,-199.06 2744.97,-190.54"/>
<polygon fill="black" stroke="black" points="2748.47,-190.33 2744.97,-180.33 2741.47,-190.33 2748.47,-190.33"/>
</g>
<!-- sequence:
 pick_up(left_hand, defaultgripper, shaft1) -->
<g id="node18" class="node">
<title>sequence:
 pick_up(left_hand, defaultgripper, shaft1)</title>
<polygon fill="#ff7f24" stroke="black" points="3676.97,-180 3278.97,-180 3278.97,-108 3676.97,-108 3676.97,-180"/>
<text text-anchor="middle" x="3477.97" y="-149.6" font-family="Times,serif" font-size="18.00">sequence:</text>
<text text-anchor="middle" x="3477.97" y="-129.6" font-family="Times,serif" font-size="18.00"> pick_up(left_hand, defaultgripper, shaft1)</text>
</g>
<!-- selector:
 pick_up(left_hand, defaultgripper, shaft1)&#45;&gt;sequence:
 pick_up(left_hand, defaultgripper, shaft1) -->
<g id="edge17" class="edge">
<title>selector:
 pick_up(left_hand, defaultgripper, shaft1)&#45;&gt;sequence:
 pick_up(left_hand, defaultgripper, shaft1)</title>
<path fill="none" stroke="black" d="M2930.41,-224.18C3033.54,-209.27 3162.21,-190.66 3268.91,-175.23"/>
<polygon fill="black" stroke="black" points="3269.44,-178.69 3278.83,-173.8 3268.44,-171.76 3269.44,-178.69"/>
</g>
<!-- precondition:
 hold(left_hand, defaultgripper) -->
<g id="node19" class="node">
<title>precondition:
 hold(left_hand, defaultgripper)</title>
<ellipse fill="#ffec8b" stroke="black" cx="3284.97" cy="-36" rx="202.68" ry="36"/>
<text text-anchor="middle" x="3284.97" y="-41.6" font-family="Times,serif" font-size="18.00">precondition:</text>
<text text-anchor="middle" x="3284.97" y="-21.6" font-family="Times,serif" font-size="18.00"> hold(left_hand, defaultgripper)</text>
</g>
<!-- sequence:
 pick_up(left_hand, defaultgripper, shaft1)&#45;&gt;precondition:
 hold(left_hand, defaultgripper) -->
<g id="edge18" class="edge">
<title>sequence:
 pick_up(left_hand, defaultgripper, shaft1)&#45;&gt;precondition:
 hold(left_hand, defaultgripper)</title>
<path fill="none" stroke="black" d="M3414.24,-108C3395.1,-97.49 3374.01,-85.9 3354.51,-75.2"/>
<polygon fill="black" stroke="black" points="3356.13,-72.09 3345.68,-70.35 3352.76,-78.23 3356.13,-72.09"/>
</g>
<!-- precondition:
 is_empty(defaultgripper) -->
<g id="node20" class="node">
<title>precondition:
 is_empty(defaultgripper)</title>
<ellipse fill="#ffec8b" stroke="black" cx="3671.97" cy="-36" rx="166.23" ry="36"/>
<text text-anchor="middle" x="3671.97" y="-41.6" font-family="Times,serif" font-size="18.00">precondition:</text>
<text text-anchor="middle" x="3671.97" y="-21.6" font-family="Times,serif" font-size="18.00"> is_empty(defaultgripper)</text>
</g>
<!-- sequence:
 pick_up(left_hand, defaultgripper, shaft1)&#45;&gt;precondition:
 is_empty(defaultgripper) -->
<g id="edge19" class="edge">
<title>sequence:
 pick_up(left_hand, defaultgripper, shaft1)&#45;&gt;precondition:
 is_empty(defaultgripper)</title>
<path fill="none" stroke="black" d="M3542.03,-108C3561.65,-97.28 3583.31,-85.44 3603.23,-74.56"/>
<polygon fill="black" stroke="black" points="3605.15,-77.5 3612.24,-69.63 3601.79,-71.36 3605.15,-77.5"/>
</g>
<!-- action:
 pick_up(left_hand, defaultgripper, shaft1) -->
<g id="node21" class="node">
<title>action:
 pick_up(left_hand, defaultgripper, shaft1)</title>
<ellipse fill="lightgreen" stroke="black" cx="4122.97" cy="-36" rx="266.97" ry="36"/>
<text text-anchor="middle" x="4122.97" y="-41.6" font-family="Times,serif" font-size="18.00">action:</text>
<text text-anchor="middle" x="4122.97" y="-21.6" font-family="Times,serif" font-size="18.00"> pick_up(left_hand, defaultgripper, shaft1)</text>
</g>
<!-- sequence:
 pick_up(left_hand, defaultgripper, shaft1)&#45;&gt;action:
 pick_up(left_hand, defaultgripper, shaft1) -->
<g id="edge20" class="edge">
<title>sequence:
 pick_up(left_hand, defaultgripper, shaft1)&#45;&gt;action:
 pick_up(left_hand, defaultgripper, shaft1)</title>
<path fill="none" stroke="black" d="M3677.19,-110.26C3763.43,-96.09 3863.51,-79.64 3946.96,-65.92"/>
<polygon fill="black" stroke="black" points="3947.76,-69.34 3957.06,-64.27 3946.62,-62.43 3947.76,-69.34"/>
</g>
</g>
</svg>
