<?xml version="1.0" encoding="UTF-8" standalone="no"?>
<!DOCTYPE svg PUBLIC "-//W3C//DTD SVG 1.1//EN"
 "http://www.w3.org/Graphics/SVG/1.1/DTD/svg11.dtd">
<!-- Generated by graphviz version 2.43.0 (0)
 -->
<!-- Title: pastafarianism Pages: 1 -->
<svg width="2428pt" height="513pt"
 viewBox="0.00 0.00 2427.82 513.48" xmlns="http://www.w3.org/2000/svg" xmlns:xlink="http://www.w3.org/1999/xlink">
<g id="graph0" class="graph" transform="scale(1 1) rotate(0) translate(4 509.48)">
<title>pastafarianism</title>
<polygon fill="white" stroke="transparent" points="-4,4 -4,-509.48 2423.82,-509.48 2423.82,4 -4,4"/>
<!-- selector:
 insert(left_hand, clampgripper, gear3, shaft3) -->
<g id="node1" class="node">
<title>selector:
 insert(left_hand, clampgripper, gear3, shaft3)</title>
<polygon fill="#8deeee" stroke="black" points="1460.45,-453.42 1460.45,-484.05 1264.86,-505.71 988.24,-505.71 792.65,-484.05 792.65,-453.42 988.24,-431.76 1264.86,-431.76 1460.45,-453.42"/>
<text text-anchor="middle" x="1126.55" y="-474.34" font-family="Times,serif" font-size="18.00">selector:</text>
<text text-anchor="middle" x="1126.55" y="-454.34" font-family="Times,serif" font-size="18.00"> insert(left_hand, clampgripper, gear3, shaft3)</text>
</g>
<!-- target:
 is_inserted_to(gear3, shaft3) -->
<g id="node2" class="node">
<title>target:
 is_inserted_to(gear3, shaft3)</title>
<ellipse fill="#ffec8b" stroke="black" cx="914.55" cy="-360" rx="188.5" ry="36"/>
<text text-anchor="middle" x="914.55" y="-365.6" font-family="Times,serif" font-size="18.00">target:</text>
<text text-anchor="middle" x="914.55" y="-345.6" font-family="Times,serif" font-size="18.00"> is_inserted_to(gear3, shaft3)</text>
</g>
<!-- selector:
 insert(left_hand, clampgripper, gear3, shaft3)&#45;&gt;target:
 is_inserted_to(gear3, shaft3) -->
<g id="edge1" class="edge">
<title>selector:
 insert(left_hand, clampgripper, gear3, shaft3)&#45;&gt;target:
 is_inserted_to(gear3, shaft3)</title>
<path fill="none" stroke="black" d="M1055.37,-431.9C1034,-421.14 1010.51,-409.31 988.94,-398.46"/>
<polygon fill="black" stroke="black" points="990.34,-395.24 979.83,-393.87 987.19,-401.49 990.34,-395.24"/>
</g>
<!-- sequence:
 insert(left_hand, clampgripper, gear3, shaft3) -->
<g id="node3" class="node">
<title>sequence:
 insert(left_hand, clampgripper, gear3, shaft3)</title>
<polygon fill="#ff7f24" stroke="black" points="1557.55,-396 1121.55,-396 1121.55,-324 1557.55,-324 1557.55,-396"/>
<text text-anchor="middle" x="1339.55" y="-365.6" font-family="Times,serif" font-size="18.00">sequence:</text>
<text text-anchor="middle" x="1339.55" y="-345.6" font-family="Times,serif" font-size="18.00"> insert(left_hand, clampgripper, gear3, shaft3)</text>
</g>
<!-- selector:
 insert(left_hand, clampgripper, gear3, shaft3)&#45;&gt;sequence:
 insert(left_hand, clampgripper, gear3, shaft3) -->
<g id="edge2" class="edge">
<title>selector:
 insert(left_hand, clampgripper, gear3, shaft3)&#45;&gt;sequence:
 insert(left_hand, clampgripper, gear3, shaft3)</title>
<path fill="none" stroke="black" d="M1198.07,-431.9C1218.18,-421.82 1240.16,-410.81 1260.67,-400.53"/>
<polygon fill="black" stroke="black" points="1262.29,-403.63 1269.67,-396.02 1259.16,-397.37 1262.29,-403.63"/>
</g>
<!-- selector:
 change_tool(left_hand, outwardgripper, clampgripper) -->
<g id="node4" class="node">
<title>selector:
 change_tool(left_hand, outwardgripper, clampgripper)</title>
<polygon fill="#8deeee" stroke="black" points="1040.02,-237.09 1040.02,-266.91 821.83,-288 513.27,-288 295.08,-266.91 295.08,-237.09 513.27,-216 821.83,-216 1040.02,-237.09"/>
<text text-anchor="middle" x="667.55" y="-257.6" font-family="Times,serif" font-size="18.00">selector:</text>
<text text-anchor="middle" x="667.55" y="-237.6" font-family="Times,serif" font-size="18.00"> change_tool(left_hand, outwardgripper, clampgripper)</text>
</g>
<!-- sequence:
 insert(left_hand, clampgripper, gear3, shaft3)&#45;&gt;selector:
 change_tool(left_hand, outwardgripper, clampgripper) -->
<g id="edge3" class="edge">
<title>sequence:
 insert(left_hand, clampgripper, gear3, shaft3)&#45;&gt;selector:
 change_tool(left_hand, outwardgripper, clampgripper)</title>
<path fill="none" stroke="black" d="M1121.37,-324.58C1041.89,-312.05 952.35,-297.92 873.93,-285.55"/>
<polygon fill="black" stroke="black" points="874.35,-282.08 863.93,-283.98 873.26,-288.99 874.35,-282.08"/>
</g>
<!-- selector:
 pick_up(left_hand, clampgripper, gear3) -->
<g id="node10" class="node">
<title>selector:
 pick_up(left_hand, clampgripper, gear3)</title>
<polygon fill="#8deeee" stroke="black" points="1619.14,-237.09 1619.14,-266.91 1455.36,-288 1223.74,-288 1059.96,-266.91 1059.96,-237.09 1223.74,-216 1455.36,-216 1619.14,-237.09"/>
<text text-anchor="middle" x="1339.55" y="-257.6" font-family="Times,serif" font-size="18.00">selector:</text>
<text text-anchor="middle" x="1339.55" y="-237.6" font-family="Times,serif" font-size="18.00"> pick_up(left_hand, clampgripper, gear3)</text>
</g>
<!-- sequence:
 insert(left_hand, clampgripper, gear3, shaft3)&#45;&gt;selector:
 pick_up(left_hand, clampgripper, gear3) -->
<g id="edge9" class="edge">
<title>sequence:
 insert(left_hand, clampgripper, gear3, shaft3)&#45;&gt;selector:
 pick_up(left_hand, clampgripper, gear3)</title>
<path fill="none" stroke="black" d="M1339.55,-324C1339.55,-315.85 1339.55,-307.06 1339.55,-298.54"/>
<polygon fill="black" stroke="black" points="1343.05,-298.33 1339.55,-288.33 1336.05,-298.33 1343.05,-298.33"/>
</g>
<!-- action:
 insert(left_hand, clampgripper, gear3, shaft3) -->
<g id="node15" class="node">
<title>action:
 insert(left_hand, clampgripper, gear3, shaft3)</title>
<ellipse fill="lightgreen" stroke="black" cx="1929.55" cy="-252" rx="292.46" ry="36"/>
<text text-anchor="middle" x="1929.55" y="-257.6" font-family="Times,serif" font-size="18.00">action:</text>
<text text-anchor="middle" x="1929.55" y="-237.6" font-family="Times,serif" font-size="18.00"> insert(left_hand, clampgripper, gear3, shaft3)</text>
</g>
<!-- sequence:
 insert(left_hand, clampgripper, gear3, shaft3)&#45;&gt;action:
 insert(left_hand, clampgripper, gear3, shaft3) -->
<g id="edge14" class="edge">
<title>sequence:
 insert(left_hand, clampgripper, gear3, shaft3)&#45;&gt;action:
 insert(left_hand, clampgripper, gear3, shaft3)</title>
<path fill="none" stroke="black" d="M1534.37,-324C1606.52,-311.04 1687.73,-296.45 1757.68,-283.88"/>
<polygon fill="black" stroke="black" points="1758.69,-287.25 1767.92,-282.04 1757.46,-280.36 1758.69,-287.25"/>
</g>
<!-- target:
 hold(left_hand, clampgripper) -->
<g id="node5" class="node">
<title>target:
 hold(left_hand, clampgripper)</title>
<ellipse fill="#ffec8b" stroke="black" cx="196.55" cy="-144" rx="196.6" ry="36"/>
<text text-anchor="middle" x="196.55" y="-149.6" font-family="Times,serif" font-size="18.00">target:</text>
<text text-anchor="middle" x="196.55" y="-129.6" font-family="Times,serif" font-size="18.00"> hold(left_hand, clampgripper)</text>
</g>
<!-- selector:
 change_tool(left_hand, outwardgripper, clampgripper)&#45;&gt;target:
 hold(left_hand, clampgripper) -->
<g id="edge4" class="edge">
<title>selector:
 change_tool(left_hand, outwardgripper, clampgripper)&#45;&gt;target:
 hold(left_hand, clampgripper)</title>
<path fill="none" stroke="black" d="M512.35,-216.07C452.68,-202.64 385.19,-187.45 327.97,-174.58"/>
<polygon fill="black" stroke="black" points="328.67,-171.15 318.15,-172.37 327.13,-177.98 328.67,-171.15"/>
</g>
<!-- sequence:
 change_tool(left_hand, outwardgripper, clampgripper) -->
<g id="node6" class="node">
<title>sequence:
 change_tool(left_hand, outwardgripper, clampgripper)</title>
<polygon fill="#ff7f24" stroke="black" points="924.05,-180 411.05,-180 411.05,-108 924.05,-108 924.05,-180"/>
<text text-anchor="middle" x="667.55" y="-149.6" font-family="Times,serif" font-size="18.00">sequence:</text>
<text text-anchor="middle" x="667.55" y="-129.6" font-family="Times,serif" font-size="18.00"> change_tool(left_hand, outwardgripper, clampgripper)</text>
</g>
<!-- selector:
 change_tool(left_hand, outwardgripper, clampgripper)&#45;&gt;sequence:
 change_tool(left_hand, outwardgripper, clampgripper) -->
<g id="edge5" class="edge">
<title>selector:
 change_tool(left_hand, outwardgripper, clampgripper)&#45;&gt;sequence:
 change_tool(left_hand, outwardgripper, clampgripper)</title>
<path fill="none" stroke="black" d="M667.55,-216C667.55,-207.85 667.55,-199.06 667.55,-190.54"/>
<polygon fill="black" stroke="black" points="671.05,-190.33 667.55,-180.33 664.05,-190.33 671.05,-190.33"/>
</g>
<!-- precondition:
 hold(left_hand, outwardgripper) -->
<g id="node7" class="node">
<title>precondition:
 hold(left_hand, outwardgripper)</title>
<ellipse fill="#ffec8b" stroke="black" cx="264.55" cy="-36" rx="209.93" ry="36"/>
<text text-anchor="middle" x="264.55" y="-41.6" font-family="Times,serif" font-size="18.00">precondition:</text>
<text text-anchor="middle" x="264.55" y="-21.6" font-family="Times,serif" font-size="18.00"> hold(left_hand, outwardgripper)</text>
</g>
<!-- sequence:
 change_tool(left_hand, outwardgripper, clampgripper)&#45;&gt;precondition:
 hold(left_hand, outwardgripper) -->
<g id="edge6" class="edge">
<title>sequence:
 change_tool(left_hand, outwardgripper, clampgripper)&#45;&gt;precondition:
 hold(left_hand, outwardgripper)</title>
<path fill="none" stroke="black" d="M534.48,-108C486.74,-95.44 433.2,-81.36 386.46,-69.07"/>
<polygon fill="black" stroke="black" points="387.16,-65.63 376.6,-66.47 385.38,-72.4 387.16,-65.63"/>
</g>
<!-- precondition:
 is_empty(outwardgripper) -->
<g id="node8" class="node">
<title>precondition:
 is_empty(outwardgripper)</title>
<ellipse fill="#ffec8b" stroke="black" cx="666.55" cy="-36" rx="173.99" ry="36"/>
<text text-anchor="middle" x="666.55" y="-41.6" font-family="Times,serif" font-size="18.00">precondition:</text>
<text text-anchor="middle" x="666.55" y="-21.6" font-family="Times,serif" font-size="18.00"> is_empty(outwardgripper)</text>
</g>
<!-- sequence:
 change_tool(left_hand, outwardgripper, clampgripper)&#45;&gt;precondition:
 is_empty(outwardgripper) -->
<g id="edge7" class="edge">
<title>sequence:
 change_tool(left_hand, outwardgripper, clampgripper)&#45;&gt;precondition:
 is_empty(outwardgripper)</title>
<path fill="none" stroke="black" d="M667.22,-108C667.14,-99.85 667.06,-91.06 666.98,-82.54"/>
<polygon fill="black" stroke="black" points="670.48,-82.29 666.88,-72.33 663.48,-82.36 670.48,-82.29"/>
</g>
<!-- action:
 change_tool(left_hand, outwardgripper, clampgripper) -->
<g id="node9" class="node">
<title>action:
 change_tool(left_hand, outwardgripper, clampgripper)</title>
<ellipse fill="lightgreen" stroke="black" cx="1202.55" cy="-36" rx="344.26" ry="36"/>
<text text-anchor="middle" x="1202.55" y="-41.6" font-family="Times,serif" font-size="18.00">action:</text>
<text text-anchor="middle" x="1202.55" y="-21.6" font-family="Times,serif" font-size="18.00"> change_tool(left_hand, outwardgripper, clampgripper)</text>
</g>
<!-- sequence:
 change_tool(left_hand, outwardgripper, clampgripper)&#45;&gt;action:
 change_tool(left_hand, outwardgripper, clampgripper) -->
<g id="edge8" class="edge">
<title>sequence:
 change_tool(left_hand, outwardgripper, clampgripper)&#45;&gt;action:
 change_tool(left_hand, outwardgripper, clampgripper)</title>
<path fill="none" stroke="black" d="M844.21,-108C905.77,-95.8 974.6,-82.16 1035.36,-70.12"/>
<polygon fill="black" stroke="black" points="1036.31,-73.51 1045.44,-68.13 1034.95,-66.64 1036.31,-73.51"/>
</g>
<!-- target:
 hold(clampgripper, gear3) -->
<g id="node11" class="node">
<title>target:
 hold(clampgripper, gear3)</title>
<ellipse fill="#ffec8b" stroke="black" cx="1339.55" cy="-144" rx="173.14" ry="36"/>
<text text-anchor="middle" x="1339.55" y="-149.6" font-family="Times,serif" font-size="18.00">target:</text>
<text text-anchor="middle" x="1339.55" y="-129.6" font-family="Times,serif" font-size="18.00"> hold(clampgripper, gear3)</text>
</g>
<!-- selector:
 pick_up(left_hand, clampgripper, gear3)&#45;&gt;target:
 hold(clampgripper, gear3) -->
<g id="edge10" class="edge">
<title>selector:
 pick_up(left_hand, clampgripper, gear3)&#45;&gt;target:
 hold(clampgripper, gear3)</title>
<path fill="none" stroke="black" d="M1339.55,-216C1339.55,-207.85 1339.55,-199.06 1339.55,-190.54"/>
<polygon fill="black" stroke="black" points="1343.05,-190.33 1339.55,-180.33 1336.05,-190.33 1343.05,-190.33"/>
</g>
<!-- sequence:
 pick_up(left_hand, clampgripper, gear3) -->
<g id="node12" class="node">
<title>sequence:
 pick_up(left_hand, clampgripper, gear3)</title>
<polygon fill="#ff7f24" stroke="black" points="1917.05,-180 1532.05,-180 1532.05,-108 1917.05,-108 1917.05,-180"/>
<text text-anchor="middle" x="1724.55" y="-149.6" font-family="Times,serif" font-size="18.00">sequence:</text>
<text text-anchor="middle" x="1724.55" y="-129.6" font-family="Times,serif" font-size="18.00"> pick_up(left_hand, clampgripper, gear3)</text>
</g>
<!-- selector:
 pick_up(left_hand, clampgripper, gear3)&#45;&gt;sequence:
 pick_up(left_hand, clampgripper, gear3) -->
<g id="edge11" class="edge">
<title>selector:
 pick_up(left_hand, clampgripper, gear3)&#45;&gt;sequence:
 pick_up(left_hand, clampgripper, gear3)</title>
<path fill="none" stroke="black" d="M1463.22,-216.95C1502.92,-206.02 1547.11,-193.85 1587.69,-182.68"/>
<polygon fill="black" stroke="black" points="1588.66,-186.04 1597.38,-180.01 1586.81,-179.29 1588.66,-186.04"/>
</g>
<!-- precondition:
 is_empty(clampgripper) -->
<g id="node13" class="node">
<title>precondition:
 is_empty(clampgripper)</title>
<ellipse fill="#ffec8b" stroke="black" cx="1724.55" cy="-36" rx="160.15" ry="36"/>
<text text-anchor="middle" x="1724.55" y="-41.6" font-family="Times,serif" font-size="18.00">precondition:</text>
<text text-anchor="middle" x="1724.55" y="-21.6" font-family="Times,serif" font-size="18.00"> is_empty(clampgripper)</text>
</g>
<!-- sequence:
 pick_up(left_hand, clampgripper, gear3)&#45;&gt;precondition:
 is_empty(clampgripper) -->
<g id="edge12" class="edge">
<title>sequence:
 pick_up(left_hand, clampgripper, gear3)&#45;&gt;precondition:
 is_empty(clampgripper)</title>
<path fill="none" stroke="black" d="M1724.55,-108C1724.55,-99.85 1724.55,-91.06 1724.55,-82.54"/>
<polygon fill="black" stroke="black" points="1728.05,-82.33 1724.55,-72.33 1721.05,-82.33 1728.05,-82.33"/>
</g>
<!-- action:
 pick_up(left_hand, clampgripper, gear3) -->
<g id="node14" class="node">
<title>action:
 pick_up(left_hand, clampgripper, gear3)</title>
<ellipse fill="lightgreen" stroke="black" cx="2161.55" cy="-36" rx="258.03" ry="36"/>
<text text-anchor="middle" x="2161.55" y="-41.6" font-family="Times,serif" font-size="18.00">action:</text>
<text text-anchor="middle" x="2161.55" y="-21.6" font-family="Times,serif" font-size="18.00"> pick_up(left_hand, clampgripper, gear3)</text>
</g>
<!-- sequence:
 pick_up(left_hand, clampgripper, gear3)&#45;&gt;action:
 pick_up(left_hand, clampgripper, gear3) -->
<g id="edge13" class="edge">
<title>sequence:
 pick_up(left_hand, clampgripper, gear3)&#45;&gt;action:
 pick_up(left_hand, clampgripper, gear3)</title>
<path fill="none" stroke="black" d="M1868.85,-108C1919.43,-95.73 1976.02,-82 2025.87,-69.91"/>
<polygon fill="black" stroke="black" points="2026.85,-73.27 2035.75,-67.52 2025.2,-66.47 2026.85,-73.27"/>
</g>
</g>
</svg>
