<?xml version="1.0" encoding="UTF-8" standalone="no"?>
<!DOCTYPE svg PUBLIC "-//W3C//DTD SVG 1.1//EN"
 "http://www.w3.org/Graphics/SVG/1.1/DTD/svg11.dtd">
<!-- Generated by graphviz version 2.43.0 (0)
 -->
<!-- Title: pastafarianism Pages: 1 -->
<svg width="4185pt" height="444pt"
 viewBox="0.00 0.00 4184.80 444.00" xmlns="http://www.w3.org/2000/svg" xmlns:xlink="http://www.w3.org/1999/xlink">
<g id="graph0" class="graph" transform="scale(1 1) rotate(0) translate(4 440)">
<title>pastafarianism</title>
<polygon fill="white" stroke="transparent" points="-4,4 -4,-440 4180.8,-440 4180.8,4 -4,4"/>
<!-- sequence:
 main_task -->
<g id="node1" class="node">
<title>sequence:
 main_task</title>
<polygon fill="#ff7f24" stroke="black" points="2496.21,-436 2381.21,-436 2381.21,-388 2496.21,-388 2496.21,-436"/>
<text text-anchor="middle" x="2438.71" y="-417.6" font-family="Times,serif" font-size="18.00">sequence:</text>
<text text-anchor="middle" x="2438.71" y="-397.6" font-family="Times,serif" font-size="18.00"> main_task</text>
</g>
<!-- parallel:
 reach_grasp_retreat -->
<g id="node2" class="node">
<title>parallel:
 reach_grasp_retreat</title>
<polygon fill="gold" stroke="black" points="1777.29,-352 1427.98,-352 1338.12,-216 1687.43,-216 1777.29,-352"/>
<text text-anchor="middle" x="1557.71" y="-299.6" font-family="Times,serif" font-size="18.00">&quot;parallel:</text>
<text text-anchor="middle" x="1557.71" y="-279.6" font-family="Times,serif" font-size="18.00"> reach_grasp_retreat&quot;</text>
<text text-anchor="middle" x="1557.71" y="-259.6" font-family="Times,serif" font-size="18.00">type</text>
</g>
<!-- sequence:
 main_task&#45;&gt;parallel:
 reach_grasp_retreat -->
<g id="edge1" class="edge">
<title>sequence:
 main_task&#45;&gt;parallel:
 reach_grasp_retreat</title>
<path fill="none" stroke="black" d="M2380.9,-402.73C2257.42,-385.07 1962.81,-342.94 1761.69,-314.17"/>
<polygon fill="black" stroke="black" points="1761.98,-310.68 1751.59,-312.73 1760.99,-317.61 1761.98,-310.68"/>
</g>
<!-- sequence:
 pour_water -->
<g id="node11" class="node">
<title>sequence:
 pour_water</title>
<polygon fill="#ff7f24" stroke="black" points="2501.21,-320 2376.21,-320 2376.21,-248 2501.21,-248 2501.21,-320"/>
<text text-anchor="middle" x="2438.71" y="-289.6" font-family="Times,serif" font-size="18.00">sequence:</text>
<text text-anchor="middle" x="2438.71" y="-269.6" font-family="Times,serif" font-size="18.00"> pour_water</text>
</g>
<!-- sequence:
 main_task&#45;&gt;sequence:
 pour_water -->
<g id="edge10" class="edge">
<title>sequence:
 main_task&#45;&gt;sequence:
 pour_water</title>
<path fill="none" stroke="black" d="M2438.71,-387.89C2438.71,-371.87 2438.71,-350.01 2438.71,-330.55"/>
<polygon fill="black" stroke="black" points="2442.21,-330.34 2438.71,-320.34 2435.21,-330.34 2442.21,-330.34"/>
</g>
<!-- parallel:
 release_objects -->
<g id="node16" class="node">
<title>parallel:
 release_objects</title>
<polygon fill="gold" stroke="black" points="3229.13,-352 2950.07,-352 2878.28,-216 3157.34,-216 3229.13,-352"/>
<text text-anchor="middle" x="3053.71" y="-299.6" font-family="Times,serif" font-size="18.00">&quot;parallel:</text>
<text text-anchor="middle" x="3053.71" y="-279.6" font-family="Times,serif" font-size="18.00"> release_objects&quot;</text>
<text text-anchor="middle" x="3053.71" y="-259.6" font-family="Times,serif" font-size="18.00">type</text>
</g>
<!-- sequence:
 main_task&#45;&gt;parallel:
 release_objects -->
<g id="edge15" class="edge">
<title>sequence:
 main_task&#45;&gt;parallel:
 release_objects</title>
<path fill="none" stroke="black" d="M2496.29,-399.2C2591.89,-379.62 2785.89,-339.87 2917.84,-312.84"/>
<polygon fill="black" stroke="black" points="2918.93,-316.18 2928.03,-310.75 2917.53,-309.33 2918.93,-316.18"/>
</g>
<!-- sequence:
 left_arm_glass -->
<g id="node3" class="node">
<title>sequence:
 left_arm_glass</title>
<polygon fill="#ff7f24" stroke="black" points="742.21,-180 589.21,-180 589.21,-108 742.21,-108 742.21,-180"/>
<text text-anchor="middle" x="665.71" y="-149.6" font-family="Times,serif" font-size="18.00">sequence:</text>
<text text-anchor="middle" x="665.71" y="-129.6" font-family="Times,serif" font-size="18.00"> left_arm_glass</text>
</g>
<!-- parallel:
 reach_grasp_retreat&#45;&gt;sequence:
 left_arm_glass -->
<g id="edge2" class="edge">
<title>parallel:
 reach_grasp_retreat&#45;&gt;sequence:
 left_arm_glass</title>
<path fill="none" stroke="black" d="M1362.23,-252.76C1172.38,-223.39 892.89,-180.15 752.67,-158.45"/>
<polygon fill="black" stroke="black" points="752.82,-154.94 742.4,-156.87 751.75,-161.85 752.82,-154.94"/>
</g>
<!-- sequence:
 right_arm_water_bottle -->
<g id="node7" class="node">
<title>sequence:
 right_arm_water_bottle</title>
<polygon fill="#ff7f24" stroke="black" points="1675.71,-180 1439.71,-180 1439.71,-108 1675.71,-108 1675.71,-180"/>
<text text-anchor="middle" x="1557.71" y="-149.6" font-family="Times,serif" font-size="18.00">sequence:</text>
<text text-anchor="middle" x="1557.71" y="-129.6" font-family="Times,serif" font-size="18.00"> right_arm_water_bottle</text>
</g>
<!-- parallel:
 reach_grasp_retreat&#45;&gt;sequence:
 right_arm_water_bottle -->
<g id="edge6" class="edge">
<title>parallel:
 reach_grasp_retreat&#45;&gt;sequence:
 right_arm_water_bottle</title>
<path fill="none" stroke="black" d="M1557.71,-215.62C1557.71,-206.96 1557.71,-198.26 1557.71,-190.08"/>
<polygon fill="black" stroke="black" points="1561.21,-190.04 1557.71,-180.04 1554.21,-190.04 1561.21,-190.04"/>
</g>
<!-- action:
 REACH(left_arm, table1) -->
<g id="node4" class="node">
<title>action:
 REACH(left_arm, table1)</title>
<ellipse fill="lightgreen" stroke="black" cx="167.71" cy="-36" rx="167.91" ry="36"/>
<text text-anchor="middle" x="167.71" y="-41.6" font-family="Times,serif" font-size="18.00">action:</text>
<text text-anchor="middle" x="167.71" y="-21.6" font-family="Times,serif" font-size="18.00"> REACH(left_arm, table1)</text>
</g>
<!-- sequence:
 left_arm_glass&#45;&gt;action:
 REACH(left_arm, table1) -->
<g id="edge3" class="edge">
<title>sequence:
 left_arm_glass&#45;&gt;action:
 REACH(left_arm, table1)</title>
<path fill="none" stroke="black" d="M588.98,-126.67C510.67,-110 387.76,-83.84 294.86,-64.07"/>
<polygon fill="black" stroke="black" points="295.34,-60.59 284.83,-61.93 293.89,-67.44 295.34,-60.59"/>
</g>
<!-- action:
 GRASP(left_arm, glass) -->
<g id="node5" class="node">
<title>action:
 GRASP(left_arm, glass)</title>
<ellipse fill="lightgreen" stroke="black" cx="510.71" cy="-36" rx="156.94" ry="36"/>
<text text-anchor="middle" x="510.71" y="-41.6" font-family="Times,serif" font-size="18.00">action:</text>
<text text-anchor="middle" x="510.71" y="-21.6" font-family="Times,serif" font-size="18.00"> GRASP(left_arm, glass)</text>
</g>
<!-- sequence:
 left_arm_glass&#45;&gt;action:
 GRASP(left_arm, glass) -->
<g id="edge4" class="edge">
<title>sequence:
 left_arm_glass&#45;&gt;action:
 GRASP(left_arm, glass)</title>
<path fill="none" stroke="black" d="M614.52,-108C599.57,-97.77 583.13,-86.53 567.83,-76.07"/>
<polygon fill="black" stroke="black" points="569.7,-73.1 559.47,-70.35 565.75,-78.88 569.7,-73.1"/>
</g>
<!-- action:
 RETREAT(left_arm) -->
<g id="node6" class="node">
<title>action:
 RETREAT(left_arm)</title>
<ellipse fill="lightgreen" stroke="black" cx="820.71" cy="-36" rx="135.51" ry="36"/>
<text text-anchor="middle" x="820.71" y="-41.6" font-family="Times,serif" font-size="18.00">action:</text>
<text text-anchor="middle" x="820.71" y="-21.6" font-family="Times,serif" font-size="18.00"> RETREAT(left_arm)</text>
</g>
<!-- sequence:
 left_arm_glass&#45;&gt;action:
 RETREAT(left_arm) -->
<g id="edge5" class="edge">
<title>sequence:
 left_arm_glass&#45;&gt;action:
 RETREAT(left_arm)</title>
<path fill="none" stroke="black" d="M716.89,-108C732.07,-97.62 748.77,-86.19 764.26,-75.6"/>
<polygon fill="black" stroke="black" points="766.45,-78.34 772.73,-69.81 762.5,-72.57 766.45,-78.34"/>
</g>
<!-- action:
 REACH(right_arm, table2) -->
<g id="node8" class="node">
<title>action:
 REACH(right_arm, table2)</title>
<ellipse fill="lightgreen" stroke="black" cx="1150.71" cy="-36" rx="176.35" ry="36"/>
<text text-anchor="middle" x="1150.71" y="-41.6" font-family="Times,serif" font-size="18.00">action:</text>
<text text-anchor="middle" x="1150.71" y="-21.6" font-family="Times,serif" font-size="18.00"> REACH(right_arm, table2)</text>
</g>
<!-- sequence:
 right_arm_water_bottle&#45;&gt;action:
 REACH(right_arm, table2) -->
<g id="edge7" class="edge">
<title>sequence:
 right_arm_water_bottle&#45;&gt;action:
 REACH(right_arm, table2)</title>
<path fill="none" stroke="black" d="M1439.44,-112.2C1385.3,-98.1 1321.35,-81.44 1267.41,-67.39"/>
<polygon fill="black" stroke="black" points="1268.02,-63.94 1257.46,-64.8 1266.25,-70.71 1268.02,-63.94"/>
</g>
<!-- action:
 GRASP(right_arm, water_bottle) -->
<g id="node9" class="node">
<title>action:
 GRASP(right_arm, water_bottle)</title>
<ellipse fill="lightgreen" stroke="black" cx="1557.71" cy="-36" rx="212.8" ry="36"/>
<text text-anchor="middle" x="1557.71" y="-41.6" font-family="Times,serif" font-size="18.00">action:</text>
<text text-anchor="middle" x="1557.71" y="-21.6" font-family="Times,serif" font-size="18.00"> GRASP(right_arm, water_bottle)</text>
</g>
<!-- sequence:
 right_arm_water_bottle&#45;&gt;action:
 GRASP(right_arm, water_bottle) -->
<g id="edge8" class="edge">
<title>sequence:
 right_arm_water_bottle&#45;&gt;action:
 GRASP(right_arm, water_bottle)</title>
<path fill="none" stroke="black" d="M1557.71,-108C1557.71,-99.85 1557.71,-91.06 1557.71,-82.54"/>
<polygon fill="black" stroke="black" points="1561.21,-82.33 1557.71,-72.33 1554.21,-82.33 1561.21,-82.33"/>
</g>
<!-- action:
 RETREAT(right_arm) -->
<g id="node10" class="node">
<title>action:
 RETREAT(right_arm)</title>
<ellipse fill="lightgreen" stroke="black" cx="1932.71" cy="-36" rx="144.45" ry="36"/>
<text text-anchor="middle" x="1932.71" y="-41.6" font-family="Times,serif" font-size="18.00">action:</text>
<text text-anchor="middle" x="1932.71" y="-21.6" font-family="Times,serif" font-size="18.00"> RETREAT(right_arm)</text>
</g>
<!-- sequence:
 right_arm_water_bottle&#45;&gt;action:
 RETREAT(right_arm) -->
<g id="edge9" class="edge">
<title>sequence:
 right_arm_water_bottle&#45;&gt;action:
 RETREAT(right_arm)</title>
<path fill="none" stroke="black" d="M1675.84,-109.61C1725.15,-95.67 1781.91,-79.62 1829.51,-66.17"/>
<polygon fill="black" stroke="black" points="1830.54,-69.51 1839.22,-63.43 1828.64,-62.78 1830.54,-69.51"/>
</g>
<!-- selector:
 check_glass_ready -->
<g id="node12" class="node">
<title>selector:
 check_glass_ready</title>
<polygon fill="#8deeee" stroke="black" points="2376.62,-129.09 2376.62,-158.91 2295.83,-180 2181.58,-180 2100.79,-158.91 2100.79,-129.09 2181.58,-108 2295.83,-108 2376.62,-129.09"/>
<text text-anchor="middle" x="2238.71" y="-149.6" font-family="Times,serif" font-size="18.00">selector:</text>
<text text-anchor="middle" x="2238.71" y="-129.6" font-family="Times,serif" font-size="18.00"> check_glass_ready</text>
</g>
<!-- sequence:
 pour_water&#45;&gt;selector:
 check_glass_ready -->
<g id="edge11" class="edge">
<title>sequence:
 pour_water&#45;&gt;selector:
 check_glass_ready</title>
<path fill="none" stroke="black" d="M2387.98,-248C2360.59,-229.1 2326.63,-205.67 2298.03,-185.93"/>
<polygon fill="black" stroke="black" points="2299.94,-183 2289.73,-180.2 2295.97,-188.76 2299.94,-183"/>
</g>
<!-- action:
 POUR(right_arm, water_bottle, glass) -->
<g id="node15" class="node">
<title>action:
 POUR(right_arm, water_bottle, glass)</title>
<ellipse fill="lightgreen" stroke="black" cx="2639.71" cy="-144" rx="244.7" ry="36"/>
<text text-anchor="middle" x="2639.71" y="-149.6" font-family="Times,serif" font-size="18.00">action:</text>
<text text-anchor="middle" x="2639.71" y="-129.6" font-family="Times,serif" font-size="18.00"> POUR(right_arm, water_bottle, glass)</text>
</g>
<!-- sequence:
 pour_water&#45;&gt;action:
 POUR(right_arm, water_bottle, glass) -->
<g id="edge14" class="edge">
<title>sequence:
 pour_water&#45;&gt;action:
 POUR(right_arm, water_bottle, glass)</title>
<path fill="none" stroke="black" d="M2489.69,-248C2517.63,-228.81 2552.39,-204.95 2581.41,-185.02"/>
<polygon fill="black" stroke="black" points="2583.56,-187.79 2589.82,-179.25 2579.6,-182.02 2583.56,-187.79"/>
</g>
<!-- condition:
 is_ready(glass) -->
<g id="node13" class="node">
<title>condition:
 is_ready(glass)</title>
<ellipse fill="#ffec8b" stroke="black" cx="2200.71" cy="-36" rx="105.14" ry="36"/>
<text text-anchor="middle" x="2200.71" y="-41.6" font-family="Times,serif" font-size="18.00">condition:</text>
<text text-anchor="middle" x="2200.71" y="-21.6" font-family="Times,serif" font-size="18.00"> is_ready(glass)</text>
</g>
<!-- selector:
 check_glass_ready&#45;&gt;condition:
 is_ready(glass) -->
<g id="edge12" class="edge">
<title>selector:
 check_glass_ready&#45;&gt;condition:
 is_ready(glass)</title>
<path fill="none" stroke="black" d="M2226.16,-108C2223.11,-99.5 2219.81,-90.29 2216.63,-81.42"/>
<polygon fill="black" stroke="black" points="2219.91,-80.2 2213.24,-71.97 2213.32,-82.56 2219.91,-80.2"/>
</g>
<!-- action:
 WAIT(right_arm) -->
<g id="node14" class="node">
<title>action:
 WAIT(right_arm)</title>
<ellipse fill="lightgreen" stroke="black" cx="2441.71" cy="-36" rx="117.29" ry="36"/>
<text text-anchor="middle" x="2441.71" y="-41.6" font-family="Times,serif" font-size="18.00">action:</text>
<text text-anchor="middle" x="2441.71" y="-21.6" font-family="Times,serif" font-size="18.00"> WAIT(right_arm)</text>
</g>
<!-- selector:
 check_glass_ready&#45;&gt;action:
 WAIT(right_arm) -->
<g id="edge13" class="edge">
<title>selector:
 check_glass_ready&#45;&gt;action:
 WAIT(right_arm)</title>
<path fill="none" stroke="black" d="M2302.66,-109.61C2325.54,-97.66 2351.38,-84.17 2374.52,-72.08"/>
<polygon fill="black" stroke="black" points="2376.34,-75.08 2383.58,-67.35 2373.1,-68.88 2376.34,-75.08"/>
</g>
<!-- sequence:
 left_arm_release_glass -->
<g id="node17" class="node">
<title>sequence:
 left_arm_release_glass</title>
<polygon fill="#ff7f24" stroke="black" points="3167.21,-180 2940.21,-180 2940.21,-108 3167.21,-108 3167.21,-180"/>
<text text-anchor="middle" x="3053.71" y="-149.6" font-family="Times,serif" font-size="18.00">sequence:</text>
<text text-anchor="middle" x="3053.71" y="-129.6" font-family="Times,serif" font-size="18.00"> left_arm_release_glass</text>
</g>
<!-- parallel:
 release_objects&#45;&gt;sequence:
 left_arm_release_glass -->
<g id="edge16" class="edge">
<title>parallel:
 release_objects&#45;&gt;sequence:
 left_arm_release_glass</title>
<path fill="none" stroke="black" d="M3053.71,-215.62C3053.71,-206.96 3053.71,-198.26 3053.71,-190.08"/>
<polygon fill="black" stroke="black" points="3057.21,-190.04 3053.71,-180.04 3050.21,-190.04 3057.21,-190.04"/>
</g>
<!-- sequence:
 right_arm_release_water_bottle -->
<g id="node20" class="node">
<title>sequence:
 right_arm_release_water_bottle</title>
<polygon fill="#ff7f24" stroke="black" points="3664.71,-180 3354.71,-180 3354.71,-108 3664.71,-108 3664.71,-180"/>
<text text-anchor="middle" x="3509.71" y="-149.6" font-family="Times,serif" font-size="18.00">sequence:</text>
<text text-anchor="middle" x="3509.71" y="-129.6" font-family="Times,serif" font-size="18.00"> right_arm_release_water_bottle</text>
</g>
<!-- parallel:
 release_objects&#45;&gt;sequence:
 right_arm_release_water_bottle -->
<g id="edge19" class="edge">
<title>parallel:
 release_objects&#45;&gt;sequence:
 right_arm_release_water_bottle</title>
<path fill="none" stroke="black" d="M3173.81,-246.65C3238.7,-227.01 3318.74,-202.79 3384.41,-182.92"/>
<polygon fill="black" stroke="black" points="3385.43,-186.27 3393.99,-180.02 3383.41,-179.57 3385.43,-186.27"/>
</g>
<!-- &quot;action:\n REACH(left_arm, table1)&quot;* -->
<g id="node18" class="node">
<title>&quot;action:\n REACH(left_arm, table1)&quot;*</title>
<ellipse fill="lightgreen" stroke="black" cx="2756.71" cy="-36" rx="179.22" ry="36"/>
<text text-anchor="middle" x="2756.71" y="-41.6" font-family="Times,serif" font-size="18.00">&quot;action:</text>
<text text-anchor="middle" x="2756.71" y="-21.6" font-family="Times,serif" font-size="18.00"> REACH(left_arm, table1)&quot;*</text>
</g>
<!-- sequence:
 left_arm_release_glass&#45;&gt;&quot;action:\n REACH(left_arm, table1)&quot;* -->
<g id="edge17" class="edge">
<title>sequence:
 left_arm_release_glass&#45;&gt;&quot;action:\n REACH(left_arm, table1)&quot;*</title>
<path fill="none" stroke="black" d="M2955.63,-108C2922.42,-96.14 2885.38,-82.92 2852.35,-71.14"/>
<polygon fill="black" stroke="black" points="2853.29,-67.76 2842.7,-67.69 2850.94,-74.35 2853.29,-67.76"/>
</g>
<!-- action:
 RELEASE(left_arm, glass) -->
<g id="node19" class="node">
<title>action:
 RELEASE(left_arm, glass)</title>
<ellipse fill="lightgreen" stroke="black" cx="3128.71" cy="-36" rx="174.33" ry="36"/>
<text text-anchor="middle" x="3128.71" y="-41.6" font-family="Times,serif" font-size="18.00">action:</text>
<text text-anchor="middle" x="3128.71" y="-21.6" font-family="Times,serif" font-size="18.00"> RELEASE(left_arm, glass)</text>
</g>
<!-- sequence:
 left_arm_release_glass&#45;&gt;action:
 RELEASE(left_arm, glass) -->
<g id="edge18" class="edge">
<title>sequence:
 left_arm_release_glass&#45;&gt;action:
 RELEASE(left_arm, glass)</title>
<path fill="none" stroke="black" d="M3078.47,-108C3084.74,-99.13 3091.55,-89.51 3098.08,-80.29"/>
<polygon fill="black" stroke="black" points="3101.05,-82.15 3103.97,-71.97 3095.33,-78.11 3101.05,-82.15"/>
</g>
<!-- &quot;action:\n REACH(right_arm, table2)&quot;* -->
<g id="node21" class="node">
<title>&quot;action:\n REACH(right_arm, table2)&quot;*</title>
<ellipse fill="lightgreen" stroke="black" cx="3509.71" cy="-36" rx="188.5" ry="36"/>
<text text-anchor="middle" x="3509.71" y="-41.6" font-family="Times,serif" font-size="18.00">&quot;action:</text>
<text text-anchor="middle" x="3509.71" y="-21.6" font-family="Times,serif" font-size="18.00"> REACH(right_arm, table2)&quot;*</text>
</g>
<!-- sequence:
 right_arm_release_water_bottle&#45;&gt;&quot;action:\n REACH(right_arm, table2)&quot;* -->
<g id="edge20" class="edge">
<title>sequence:
 right_arm_release_water_bottle&#45;&gt;&quot;action:\n REACH(right_arm, table2)&quot;*</title>
<path fill="none" stroke="black" d="M3509.71,-108C3509.71,-99.85 3509.71,-91.06 3509.71,-82.54"/>
<polygon fill="black" stroke="black" points="3513.21,-82.33 3509.71,-72.33 3506.21,-82.33 3513.21,-82.33"/>
</g>
<!-- action:
 RELEASE(right_arm, water_bottle) -->
<g id="node22" class="node">
<title>action:
 RELEASE(right_arm, water_bottle)</title>
<ellipse fill="lightgreen" stroke="black" cx="3946.71" cy="-36" rx="230.18" ry="36"/>
<text text-anchor="middle" x="3946.71" y="-41.6" font-family="Times,serif" font-size="18.00">action:</text>
<text text-anchor="middle" x="3946.71" y="-21.6" font-family="Times,serif" font-size="18.00"> RELEASE(right_arm, water_bottle)</text>
</g>
<!-- sequence:
 right_arm_release_water_bottle&#45;&gt;action:
 RELEASE(right_arm, water_bottle) -->
<g id="edge21" class="edge">
<title>sequence:
 right_arm_release_water_bottle&#45;&gt;action:
 RELEASE(right_arm, water_bottle)</title>
<path fill="none" stroke="black" d="M3654.01,-108C3705.97,-95.39 3764.29,-81.25 3815.12,-68.92"/>
<polygon fill="black" stroke="black" points="3815.95,-72.32 3824.85,-66.56 3814.3,-65.51 3815.95,-72.32"/>
</g>
</g>
</svg>
