<?xml version="1.0" encoding="UTF-8" standalone="no"?>
<!DOCTYPE svg PUBLIC "-//W3C//DTD SVG 1.1//EN"
 "http://www.w3.org/Graphics/SVG/1.1/DTD/svg11.dtd">
<!-- Generated by graphviz version 2.43.0 (0)
 -->
<!-- Title: pastafarianism Pages: 1 -->
<svg width="4203pt" height="444pt"
 viewBox="0.00 0.00 4203.49 444.00" xmlns="http://www.w3.org/2000/svg" xmlns:xlink="http://www.w3.org/1999/xlink">
<g id="graph0" class="graph" transform="scale(1 1) rotate(0) translate(4 440)">
<title>pastafarianism</title>
<polygon fill="white" stroke="transparent" points="-4,4 -4,-440 4199.49,-440 4199.49,4 -4,4"/>
<!-- sequence:
 main_task -->
<g id="node1" class="node">
<title>sequence:
 main_task</title>
<polygon fill="#ff7f24" stroke="black" points="2497.21,-436 2382.21,-436 2382.21,-388 2497.21,-388 2497.21,-436"/>
<text text-anchor="middle" x="2439.71" y="-417.6" font-family="Times,serif" font-size="18.00">sequence:</text>
<text text-anchor="middle" x="2439.71" y="-397.6" font-family="Times,serif" font-size="18.00"> main_task</text>
</g>
<!-- parallel:
 initial_reach_and_grasp -->
<g id="node2" class="node">
<title>parallel:
 initial_reach_and_grasp</title>
<polygon fill="gold" stroke="black" points="1816.71,-352 1412.64,-352 1308.7,-216 1712.77,-216 1816.71,-352"/>
<text text-anchor="middle" x="1562.71" y="-299.6" font-family="Times,serif" font-size="18.00">&quot;parallel:</text>
<text text-anchor="middle" x="1562.71" y="-279.6" font-family="Times,serif" font-size="18.00"> initial_reach_and_grasp&quot;</text>
<text text-anchor="middle" x="1562.71" y="-259.6" font-family="Times,serif" font-size="18.00">type</text>
</g>
<!-- sequence:
 main_task&#45;&gt;parallel:
 initial_reach_and_grasp -->
<g id="edge1" class="edge">
<title>sequence:
 main_task&#45;&gt;parallel:
 initial_reach_and_grasp</title>
<path fill="none" stroke="black" d="M2382.16,-402.73C2266.27,-386.08 1998.94,-347.68 1800.96,-319.23"/>
<polygon fill="black" stroke="black" points="1801.39,-315.76 1791,-317.8 1800.4,-322.69 1801.39,-315.76"/>
</g>
<!-- sequence:
 right_arm_pour_water -->
<g id="node11" class="node">
<title>sequence:
 right_arm_pour_water</title>
<polygon fill="#ff7f24" stroke="black" points="2551.71,-320 2327.71,-320 2327.71,-248 2551.71,-248 2551.71,-320"/>
<text text-anchor="middle" x="2439.71" y="-289.6" font-family="Times,serif" font-size="18.00">sequence:</text>
<text text-anchor="middle" x="2439.71" y="-269.6" font-family="Times,serif" font-size="18.00"> right_arm_pour_water</text>
</g>
<!-- sequence:
 main_task&#45;&gt;sequence:
 right_arm_pour_water -->
<g id="edge10" class="edge">
<title>sequence:
 main_task&#45;&gt;sequence:
 right_arm_pour_water</title>
<path fill="none" stroke="black" d="M2439.71,-387.89C2439.71,-371.87 2439.71,-350.01 2439.71,-330.55"/>
<polygon fill="black" stroke="black" points="2443.21,-330.34 2439.71,-320.34 2436.21,-330.34 2443.21,-330.34"/>
</g>
<!-- parallel:
 final_release -->
<g id="node16" class="node">
<title>parallel:
 final_release</title>
<polygon fill="gold" stroke="black" points="3201.94,-352 2961.36,-352 2899.47,-216 3140.05,-216 3201.94,-352"/>
<text text-anchor="middle" x="3050.71" y="-299.6" font-family="Times,serif" font-size="18.00">&quot;parallel:</text>
<text text-anchor="middle" x="3050.71" y="-279.6" font-family="Times,serif" font-size="18.00"> final_release&quot;</text>
<text text-anchor="middle" x="3050.71" y="-259.6" font-family="Times,serif" font-size="18.00">type</text>
</g>
<!-- sequence:
 main_task&#45;&gt;parallel:
 final_release -->
<g id="edge15" class="edge">
<title>sequence:
 main_task&#45;&gt;parallel:
 final_release</title>
<path fill="none" stroke="black" d="M2497.46,-399.09C2596.4,-378.69 2800.24,-336.65 2930.96,-309.69"/>
<polygon fill="black" stroke="black" points="2931.94,-313.07 2941.02,-307.62 2930.52,-306.21 2931.94,-313.07"/>
</g>
<!-- sequence:
 left_arm_reach_and_grasp_glass -->
<g id="node3" class="node">
<title>sequence:
 left_arm_reach_and_grasp_glass</title>
<polygon fill="#ff7f24" stroke="black" points="822.71,-180 508.71,-180 508.71,-108 822.71,-108 822.71,-180"/>
<text text-anchor="middle" x="665.71" y="-149.6" font-family="Times,serif" font-size="18.00">sequence:</text>
<text text-anchor="middle" x="665.71" y="-129.6" font-family="Times,serif" font-size="18.00"> left_arm_reach_and_grasp_glass</text>
</g>
<!-- parallel:
 initial_reach_and_grasp&#45;&gt;sequence:
 left_arm_reach_and_grasp_glass -->
<g id="edge2" class="edge">
<title>parallel:
 initial_reach_and_grasp&#45;&gt;sequence:
 left_arm_reach_and_grasp_glass</title>
<path fill="none" stroke="black" d="M1332.87,-247.64C1176.74,-223.62 973.8,-192.4 832.94,-170.73"/>
<polygon fill="black" stroke="black" points="833.32,-167.25 822.9,-169.18 832.26,-174.16 833.32,-167.25"/>
</g>
<!-- sequence:
 right_arm_reach_and_grasp_bottle -->
<g id="node7" class="node">
<title>sequence:
 right_arm_reach_and_grasp_bottle</title>
<polygon fill="#ff7f24" stroke="black" points="1730.21,-180 1395.21,-180 1395.21,-108 1730.21,-108 1730.21,-180"/>
<text text-anchor="middle" x="1562.71" y="-149.6" font-family="Times,serif" font-size="18.00">sequence:</text>
<text text-anchor="middle" x="1562.71" y="-129.6" font-family="Times,serif" font-size="18.00"> right_arm_reach_and_grasp_bottle</text>
</g>
<!-- parallel:
 initial_reach_and_grasp&#45;&gt;sequence:
 right_arm_reach_and_grasp_bottle -->
<g id="edge6" class="edge">
<title>parallel:
 initial_reach_and_grasp&#45;&gt;sequence:
 right_arm_reach_and_grasp_bottle</title>
<path fill="none" stroke="black" d="M1562.71,-215.62C1562.71,-206.96 1562.71,-198.26 1562.71,-190.08"/>
<polygon fill="black" stroke="black" points="1566.21,-190.04 1562.71,-180.04 1559.21,-190.04 1566.21,-190.04"/>
</g>
<!-- action:
 REACH(left_arm, table1) -->
<g id="node4" class="node">
<title>action:
 REACH(left_arm, table1)</title>
<ellipse fill="lightgreen" stroke="black" cx="167.71" cy="-36" rx="167.91" ry="36"/>
<text text-anchor="middle" x="167.71" y="-41.6" font-family="Times,serif" font-size="18.00">action:</text>
<text text-anchor="middle" x="167.71" y="-21.6" font-family="Times,serif" font-size="18.00"> REACH(left_arm, table1)</text>
</g>
<!-- sequence:
 left_arm_reach_and_grasp_glass&#45;&gt;action:
 REACH(left_arm, table1) -->
<g id="edge3" class="edge">
<title>sequence:
 left_arm_reach_and_grasp_glass&#45;&gt;action:
 REACH(left_arm, table1)</title>
<path fill="none" stroke="black" d="M508.48,-109.53C439.48,-94.85 359.55,-77.83 294.45,-63.98"/>
<polygon fill="black" stroke="black" points="295.05,-60.53 284.54,-61.87 293.6,-67.37 295.05,-60.53"/>
</g>
<!-- action:
 GRASP(left_arm, glass) -->
<g id="node5" class="node">
<title>action:
 GRASP(left_arm, glass)</title>
<ellipse fill="lightgreen" stroke="black" cx="510.71" cy="-36" rx="156.94" ry="36"/>
<text text-anchor="middle" x="510.71" y="-41.6" font-family="Times,serif" font-size="18.00">action:</text>
<text text-anchor="middle" x="510.71" y="-21.6" font-family="Times,serif" font-size="18.00"> GRASP(left_arm, glass)</text>
</g>
<!-- sequence:
 left_arm_reach_and_grasp_glass&#45;&gt;action:
 GRASP(left_arm, glass) -->
<g id="edge4" class="edge">
<title>sequence:
 left_arm_reach_and_grasp_glass&#45;&gt;action:
 GRASP(left_arm, glass)</title>
<path fill="none" stroke="black" d="M614.52,-108C599.57,-97.77 583.13,-86.53 567.83,-76.07"/>
<polygon fill="black" stroke="black" points="569.7,-73.1 559.47,-70.35 565.75,-78.88 569.7,-73.1"/>
</g>
<!-- action:
 RETREAT(left_arm) -->
<g id="node6" class="node">
<title>action:
 RETREAT(left_arm)</title>
<ellipse fill="lightgreen" stroke="black" cx="820.71" cy="-36" rx="135.51" ry="36"/>
<text text-anchor="middle" x="820.71" y="-41.6" font-family="Times,serif" font-size="18.00">action:</text>
<text text-anchor="middle" x="820.71" y="-21.6" font-family="Times,serif" font-size="18.00"> RETREAT(left_arm)</text>
</g>
<!-- sequence:
 left_arm_reach_and_grasp_glass&#45;&gt;action:
 RETREAT(left_arm) -->
<g id="edge5" class="edge">
<title>sequence:
 left_arm_reach_and_grasp_glass&#45;&gt;action:
 RETREAT(left_arm)</title>
<path fill="none" stroke="black" d="M716.89,-108C732.07,-97.62 748.77,-86.19 764.26,-75.6"/>
<polygon fill="black" stroke="black" points="766.45,-78.34 772.73,-69.81 762.5,-72.57 766.45,-78.34"/>
</g>
<!-- action:
 REACH(right_arm, table2) -->
<g id="node8" class="node">
<title>action:
 REACH(right_arm, table2)</title>
<ellipse fill="lightgreen" stroke="black" cx="1150.71" cy="-36" rx="176.35" ry="36"/>
<text text-anchor="middle" x="1150.71" y="-41.6" font-family="Times,serif" font-size="18.00">action:</text>
<text text-anchor="middle" x="1150.71" y="-21.6" font-family="Times,serif" font-size="18.00"> REACH(right_arm, table2)</text>
</g>
<!-- sequence:
 right_arm_reach_and_grasp_bottle&#45;&gt;action:
 REACH(right_arm, table2) -->
<g id="edge7" class="edge">
<title>sequence:
 right_arm_reach_and_grasp_bottle&#45;&gt;action:
 REACH(right_arm, table2)</title>
<path fill="none" stroke="black" d="M1426.66,-108C1375.35,-94.8 1317.47,-79.91 1268.02,-67.18"/>
<polygon fill="black" stroke="black" points="1268.8,-63.77 1258.25,-64.67 1267.06,-70.55 1268.8,-63.77"/>
</g>
<!-- action:
 GRASP(right_arm, watter_bottle) -->
<g id="node9" class="node">
<title>action:
 GRASP(right_arm, watter_bottle)</title>
<ellipse fill="lightgreen" stroke="black" cx="1562.71" cy="-36" rx="217.19" ry="36"/>
<text text-anchor="middle" x="1562.71" y="-41.6" font-family="Times,serif" font-size="18.00">action:</text>
<text text-anchor="middle" x="1562.71" y="-21.6" font-family="Times,serif" font-size="18.00"> GRASP(right_arm, watter_bottle)</text>
</g>
<!-- sequence:
 right_arm_reach_and_grasp_bottle&#45;&gt;action:
 GRASP(right_arm, watter_bottle) -->
<g id="edge8" class="edge">
<title>sequence:
 right_arm_reach_and_grasp_bottle&#45;&gt;action:
 GRASP(right_arm, watter_bottle)</title>
<path fill="none" stroke="black" d="M1562.71,-108C1562.71,-99.85 1562.71,-91.06 1562.71,-82.54"/>
<polygon fill="black" stroke="black" points="1566.21,-82.33 1562.71,-72.33 1559.21,-82.33 1566.21,-82.33"/>
</g>
<!-- action:
 RETREAT(right_arm) -->
<g id="node10" class="node">
<title>action:
 RETREAT(right_arm)</title>
<ellipse fill="lightgreen" stroke="black" cx="1942.71" cy="-36" rx="144.45" ry="36"/>
<text text-anchor="middle" x="1942.71" y="-41.6" font-family="Times,serif" font-size="18.00">action:</text>
<text text-anchor="middle" x="1942.71" y="-21.6" font-family="Times,serif" font-size="18.00"> RETREAT(right_arm)</text>
</g>
<!-- sequence:
 right_arm_reach_and_grasp_bottle&#45;&gt;action:
 RETREAT(right_arm) -->
<g id="edge9" class="edge">
<title>sequence:
 right_arm_reach_and_grasp_bottle&#45;&gt;action:
 RETREAT(right_arm)</title>
<path fill="none" stroke="black" d="M1688.18,-108C1736.93,-94.4 1792.1,-79.01 1838.58,-66.05"/>
<polygon fill="black" stroke="black" points="1839.67,-69.38 1848.36,-63.32 1837.79,-62.63 1839.67,-69.38"/>
</g>
<!-- selector:
 wait_or_pour -->
<g id="node12" class="node">
<title>selector:
 wait_or_pour</title>
<polygon fill="#8deeee" stroke="black" points="2356.51,-129.09 2356.51,-158.91 2296.87,-180 2212.54,-180 2152.9,-158.91 2152.9,-129.09 2212.54,-108 2296.87,-108 2356.51,-129.09"/>
<text text-anchor="middle" x="2254.71" y="-149.6" font-family="Times,serif" font-size="18.00">selector:</text>
<text text-anchor="middle" x="2254.71" y="-129.6" font-family="Times,serif" font-size="18.00"> wait_or_pour</text>
</g>
<!-- sequence:
 right_arm_pour_water&#45;&gt;selector:
 wait_or_pour -->
<g id="edge11" class="edge">
<title>sequence:
 right_arm_pour_water&#45;&gt;selector:
 wait_or_pour</title>
<path fill="none" stroke="black" d="M2392.54,-247.82C2366.83,-228.64 2334.92,-204.83 2308.27,-184.96"/>
<polygon fill="black" stroke="black" points="2310.29,-182.1 2300.18,-178.92 2306.11,-187.71 2310.29,-182.1"/>
</g>
<!-- action:
 POUR(right_arm, watter_bottle, glass) -->
<g id="node15" class="node">
<title>action:
 POUR(right_arm, watter_bottle, glass)</title>
<ellipse fill="lightgreen" stroke="black" cx="2624.71" cy="-144" rx="250.43" ry="36"/>
<text text-anchor="middle" x="2624.71" y="-149.6" font-family="Times,serif" font-size="18.00">action:</text>
<text text-anchor="middle" x="2624.71" y="-129.6" font-family="Times,serif" font-size="18.00"> POUR(right_arm, watter_bottle, glass)</text>
</g>
<!-- sequence:
 right_arm_pour_water&#45;&gt;action:
 POUR(right_arm, watter_bottle, glass) -->
<g id="edge14" class="edge">
<title>sequence:
 right_arm_pour_water&#45;&gt;action:
 POUR(right_arm, watter_bottle, glass)</title>
<path fill="none" stroke="black" d="M2486.87,-247.82C2512.38,-228.79 2544.01,-205.19 2570.53,-185.41"/>
<polygon fill="black" stroke="black" points="2572.67,-188.18 2578.59,-179.4 2568.48,-182.57 2572.67,-188.18"/>
</g>
<!-- condition:
 is_ready(glass) -->
<g id="node13" class="node">
<title>condition:
 is_ready(glass)</title>
<ellipse fill="#ffec8b" stroke="black" cx="2210.71" cy="-36" rx="105.14" ry="36"/>
<text text-anchor="middle" x="2210.71" y="-41.6" font-family="Times,serif" font-size="18.00">condition:</text>
<text text-anchor="middle" x="2210.71" y="-21.6" font-family="Times,serif" font-size="18.00"> is_ready(glass)</text>
</g>
<!-- selector:
 wait_or_pour&#45;&gt;condition:
 is_ready(glass) -->
<g id="edge12" class="edge">
<title>selector:
 wait_or_pour&#45;&gt;condition:
 is_ready(glass)</title>
<path fill="none" stroke="black" d="M2240.18,-108C2236.65,-99.5 2232.83,-90.29 2229.14,-81.42"/>
<polygon fill="black" stroke="black" points="2232.29,-79.86 2225.22,-71.97 2225.82,-82.54 2232.29,-79.86"/>
</g>
<!-- action:
 WAIT(right_arm) -->
<g id="node14" class="node">
<title>action:
 WAIT(right_arm)</title>
<ellipse fill="lightgreen" stroke="black" cx="2451.71" cy="-36" rx="117.29" ry="36"/>
<text text-anchor="middle" x="2451.71" y="-41.6" font-family="Times,serif" font-size="18.00">action:</text>
<text text-anchor="middle" x="2451.71" y="-21.6" font-family="Times,serif" font-size="18.00"> WAIT(right_arm)</text>
</g>
<!-- selector:
 wait_or_pour&#45;&gt;action:
 WAIT(right_arm) -->
<g id="edge13" class="edge">
<title>selector:
 wait_or_pour&#45;&gt;action:
 WAIT(right_arm)</title>
<path fill="none" stroke="black" d="M2310.89,-112.77C2334.29,-100.18 2361.62,-85.47 2385.95,-72.38"/>
<polygon fill="black" stroke="black" points="2387.61,-75.46 2394.76,-67.64 2384.29,-69.3 2387.61,-75.46"/>
</g>
<!-- sequence:
 left_arm_release_glass -->
<g id="node17" class="node">
<title>sequence:
 left_arm_release_glass</title>
<polygon fill="#ff7f24" stroke="black" points="3164.21,-180 2937.21,-180 2937.21,-108 3164.21,-108 3164.21,-180"/>
<text text-anchor="middle" x="3050.71" y="-149.6" font-family="Times,serif" font-size="18.00">sequence:</text>
<text text-anchor="middle" x="3050.71" y="-129.6" font-family="Times,serif" font-size="18.00"> left_arm_release_glass</text>
</g>
<!-- parallel:
 final_release&#45;&gt;sequence:
 left_arm_release_glass -->
<g id="edge16" class="edge">
<title>parallel:
 final_release&#45;&gt;sequence:
 left_arm_release_glass</title>
<path fill="none" stroke="black" d="M3050.71,-215.62C3050.71,-206.96 3050.71,-198.26 3050.71,-190.08"/>
<polygon fill="black" stroke="black" points="3054.21,-190.04 3050.71,-180.04 3047.21,-190.04 3054.21,-190.04"/>
</g>
<!-- sequence:
 right_arm_release_bottle -->
<g id="node20" class="node">
<title>sequence:
 right_arm_release_bottle</title>
<polygon fill="#ff7f24" stroke="black" points="3643.71,-180 3395.71,-180 3395.71,-108 3643.71,-108 3643.71,-180"/>
<text text-anchor="middle" x="3519.71" y="-149.6" font-family="Times,serif" font-size="18.00">sequence:</text>
<text text-anchor="middle" x="3519.71" y="-129.6" font-family="Times,serif" font-size="18.00"> right_arm_release_bottle</text>
</g>
<!-- parallel:
 final_release&#45;&gt;sequence:
 right_arm_release_bottle -->
<g id="edge19" class="edge">
<title>parallel:
 final_release&#45;&gt;sequence:
 right_arm_release_bottle</title>
<path fill="none" stroke="black" d="M3156.54,-251.86C3225.97,-231.43 3317.18,-204.59 3390.83,-182.92"/>
<polygon fill="black" stroke="black" points="3392.03,-186.22 3400.63,-180.04 3390.05,-179.5 3392.03,-186.22"/>
</g>
<!-- &quot;action:\n REACH(left_arm, table1)&quot;* -->
<g id="node18" class="node">
<title>&quot;action:\n REACH(left_arm, table1)&quot;*</title>
<ellipse fill="lightgreen" stroke="black" cx="2766.71" cy="-36" rx="179.22" ry="36"/>
<text text-anchor="middle" x="2766.71" y="-41.6" font-family="Times,serif" font-size="18.00">&quot;action:</text>
<text text-anchor="middle" x="2766.71" y="-21.6" font-family="Times,serif" font-size="18.00"> REACH(left_arm, table1)&quot;*</text>
</g>
<!-- sequence:
 left_arm_release_glass&#45;&gt;&quot;action:\n REACH(left_arm, table1)&quot;* -->
<g id="edge17" class="edge">
<title>sequence:
 left_arm_release_glass&#45;&gt;&quot;action:\n REACH(left_arm, table1)&quot;*</title>
<path fill="none" stroke="black" d="M2956.93,-108C2925.59,-96.3 2890.7,-83.28 2859.45,-71.62"/>
<polygon fill="black" stroke="black" points="2860.47,-68.26 2849.87,-68.04 2858.02,-74.82 2860.47,-68.26"/>
</g>
<!-- action:
 RELEASE(left_arm, glass) -->
<g id="node19" class="node">
<title>action:
 RELEASE(left_arm, glass)</title>
<ellipse fill="lightgreen" stroke="black" cx="3138.71" cy="-36" rx="174.33" ry="36"/>
<text text-anchor="middle" x="3138.71" y="-41.6" font-family="Times,serif" font-size="18.00">action:</text>
<text text-anchor="middle" x="3138.71" y="-21.6" font-family="Times,serif" font-size="18.00"> RELEASE(left_arm, glass)</text>
</g>
<!-- sequence:
 left_arm_release_glass&#45;&gt;action:
 RELEASE(left_arm, glass) -->
<g id="edge18" class="edge">
<title>sequence:
 left_arm_release_glass&#45;&gt;action:
 RELEASE(left_arm, glass)</title>
<path fill="none" stroke="black" d="M3079.76,-108C3087.35,-98.86 3095.61,-88.91 3103.48,-79.43"/>
<polygon fill="black" stroke="black" points="3106.28,-81.53 3109.98,-71.6 3100.9,-77.06 3106.28,-81.53"/>
</g>
<!-- &quot;action:\n REACH(right_arm, table2)&quot;* -->
<g id="node21" class="node">
<title>&quot;action:\n REACH(right_arm, table2)&quot;*</title>
<ellipse fill="lightgreen" stroke="black" cx="3519.71" cy="-36" rx="188.5" ry="36"/>
<text text-anchor="middle" x="3519.71" y="-41.6" font-family="Times,serif" font-size="18.00">&quot;action:</text>
<text text-anchor="middle" x="3519.71" y="-21.6" font-family="Times,serif" font-size="18.00"> REACH(right_arm, table2)&quot;*</text>
</g>
<!-- sequence:
 right_arm_release_bottle&#45;&gt;&quot;action:\n REACH(right_arm, table2)&quot;* -->
<g id="edge20" class="edge">
<title>sequence:
 right_arm_release_bottle&#45;&gt;&quot;action:\n REACH(right_arm, table2)&quot;*</title>
<path fill="none" stroke="black" d="M3519.71,-108C3519.71,-99.85 3519.71,-91.06 3519.71,-82.54"/>
<polygon fill="black" stroke="black" points="3523.21,-82.33 3519.71,-72.33 3516.21,-82.33 3523.21,-82.33"/>
</g>
<!-- action:
 RELEASE(right_arm, watter_bottle) -->
<g id="node22" class="node">
<title>action:
 RELEASE(right_arm, watter_bottle)</title>
<ellipse fill="lightgreen" stroke="black" cx="3960.71" cy="-36" rx="234.57" ry="36"/>
<text text-anchor="middle" x="3960.71" y="-41.6" font-family="Times,serif" font-size="18.00">action:</text>
<text text-anchor="middle" x="3960.71" y="-21.6" font-family="Times,serif" font-size="18.00"> RELEASE(right_arm, watter_bottle)</text>
</g>
<!-- sequence:
 right_arm_release_bottle&#45;&gt;action:
 RELEASE(right_arm, watter_bottle) -->
<g id="edge21" class="edge">
<title>sequence:
 right_arm_release_bottle&#45;&gt;action:
 RELEASE(right_arm, watter_bottle)</title>
<path fill="none" stroke="black" d="M3643.72,-113.19C3700.92,-99.44 3768.9,-83.1 3827.22,-69.09"/>
<polygon fill="black" stroke="black" points="3828.33,-72.42 3837.24,-66.68 3826.7,-65.61 3828.33,-72.42"/>
</g>
</g>
</svg>
