<?xml version="1.0" encoding="UTF-8" standalone="no"?>
<!DOCTYPE svg PUBLIC "-//W3C//DTD SVG 1.1//EN"
 "http://www.w3.org/Graphics/SVG/1.1/DTD/svg11.dtd">
<!-- Generated by graphviz version 2.43.0 (0)
 -->
<!-- Title: pastafarianism Pages: 1 -->
<svg width="288pt" height="260pt"
 viewBox="0.00 0.00 287.50 260.00" xmlns="http://www.w3.org/2000/svg" xmlns:xlink="http://www.w3.org/1999/xlink">
<g id="graph0" class="graph" transform="scale(1 1) rotate(0) translate(4 256)">
<title>pastafarianism</title>
<polygon fill="white" stroke="transparent" points="-4,4 -4,-256 283.5,-256 283.5,4 -4,4"/>
<!-- sequence -->
<g id="node1" class="node">
<title>sequence</title>
<polygon fill="#ff7f24" stroke="black" points="187.5,-252 86.5,-252 86.5,-216 187.5,-216 187.5,-252"/>
<text text-anchor="middle" x="137" y="-229.6" font-family="Times,serif" font-size="18.00">sequence</text>
</g>
<!-- &quot;sequence&quot;* -->
<g id="node2" class="node">
<title>&quot;sequence&quot;*</title>
<polygon fill="#ff7f24" stroke="black" points="126,-180 0,-180 0,-108 126,-108 126,-180"/>
<text text-anchor="middle" x="63" y="-139.6" font-family="Times,serif" font-size="18.00">&quot;sequence&quot;*</text>
</g>
<!-- sequence&#45;&gt;&quot;sequence&quot;* -->
<g id="edge1" class="edge">
<title>sequence&#45;&gt;&quot;sequence&quot;*</title>
<path fill="none" stroke="black" d="M122.38,-215.61C115.67,-207.63 107.38,-197.77 99.15,-187.98"/>
<polygon fill="black" stroke="black" points="101.7,-185.59 92.59,-180.19 96.34,-190.09 101.7,-185.59"/>
</g>
<!-- &quot;sequence&quot;** -->
<g id="node4" class="node">
<title>&quot;sequence&quot;**</title>
<polygon fill="#ff7f24" stroke="black" points="279.5,-180 144.5,-180 144.5,-108 279.5,-108 279.5,-180"/>
<text text-anchor="middle" x="212" y="-139.6" font-family="Times,serif" font-size="18.00">&quot;sequence&quot;**</text>
</g>
<!-- sequence&#45;&gt;&quot;sequence&quot;** -->
<g id="edge3" class="edge">
<title>sequence&#45;&gt;&quot;sequence&quot;**</title>
<path fill="none" stroke="black" d="M151.82,-215.61C158.62,-207.63 167.02,-197.77 175.37,-187.98"/>
<polygon fill="black" stroke="black" points="178.19,-190.07 182.01,-180.19 172.86,-185.53 178.19,-190.07"/>
</g>
<!-- action -->
<g id="node3" class="node">
<title>action</title>
<ellipse fill="lightgreen" stroke="black" cx="63" cy="-36" rx="39.15" ry="36"/>
<text text-anchor="middle" x="63" y="-31.6" font-family="Times,serif" font-size="18.00">action</text>
</g>
<!-- &quot;sequence&quot;*&#45;&gt;action -->
<g id="edge2" class="edge">
<title>&quot;sequence&quot;*&#45;&gt;action</title>
<path fill="none" stroke="black" d="M63,-108C63,-99.85 63,-91.06 63,-82.54"/>
<polygon fill="black" stroke="black" points="66.5,-82.33 63,-72.33 59.5,-82.33 66.5,-82.33"/>
</g>
<!-- &quot;action&quot;* -->
<g id="node5" class="node">
<title>&quot;action&quot;*</title>
<ellipse fill="lightgreen" stroke="black" cx="212" cy="-36" rx="53.37" ry="36"/>
<text text-anchor="middle" x="212" y="-31.6" font-family="Times,serif" font-size="18.00">&quot;action&quot;*</text>
</g>
<!-- &quot;sequence&quot;**&#45;&gt;&quot;action&quot;* -->
<g id="edge4" class="edge">
<title>&quot;sequence&quot;**&#45;&gt;&quot;action&quot;*</title>
<path fill="none" stroke="black" d="M212,-108C212,-99.85 212,-91.06 212,-82.54"/>
<polygon fill="black" stroke="black" points="215.5,-82.33 212,-72.33 208.5,-82.33 215.5,-82.33"/>
</g>
</g>
</svg>
