<?xml version="1.0" encoding="UTF-8" standalone="no"?>
<!DOCTYPE svg PUBLIC "-//W3C//DTD SVG 1.1//EN"
 "http://www.w3.org/Graphics/SVG/1.1/DTD/svg11.dtd">
<!-- Generated by graphviz version 2.43.0 (0)
 -->
<!-- Title: pastafarianism Pages: 1 -->
<svg width="490pt" height="185pt"
 viewBox="0.00 0.00 490.25 185.36" xmlns="http://www.w3.org/2000/svg" xmlns:xlink="http://www.w3.org/1999/xlink">
<g id="graph0" class="graph" transform="scale(1 1) rotate(0) translate(4 181.36)">
<title>pastafarianism</title>
<polygon fill="white" stroke="transparent" points="-4,4 -4,-181.36 486.25,-181.36 486.25,4 -4,4"/>
<!-- selector:
 place(lampshade, lampbulb) -->
<g id="node1" class="node">
<title>selector:
 place(lampshade, lampbulb)</title>
<polygon fill="#8deeee" stroke="black" points="453.67,-125.3 453.67,-155.94 329.16,-177.6 153.08,-177.6 28.58,-155.94 28.58,-125.3 153.08,-103.64 329.16,-103.64 453.67,-125.3"/>
<text text-anchor="middle" x="241.12" y="-146.22" font-family="Times,serif" font-size="18.00">selector:</text>
<text text-anchor="middle" x="241.12" y="-126.22" font-family="Times,serif" font-size="18.00"> place(lampshade, lampbulb)</text>
</g>
<!-- target:
 is_placed_to(lampshade, lampbulb) -->
<g id="node2" class="node">
<title>target:
 is_placed_to(lampshade, lampbulb)</title>
<ellipse fill="#ffec8b" stroke="black" cx="241.12" cy="-33.94" rx="241.25" ry="33.88"/>
<text text-anchor="middle" x="241.12" y="-39.54" font-family="Times,serif" font-size="18.00">target:</text>
<text text-anchor="middle" x="241.12" y="-19.54" font-family="Times,serif" font-size="18.00"> is_placed_to(lampshade, lampbulb)</text>
</g>
<!-- selector:
 place(lampshade, lampbulb)&#45;&gt;target:
 is_placed_to(lampshade, lampbulb) -->
<g id="edge1" class="edge">
<title>selector:
 place(lampshade, lampbulb)&#45;&gt;target:
 is_placed_to(lampshade, lampbulb)</title>
<path fill="none" stroke="black" d="M241.12,-103.6C241.12,-95.44 241.12,-86.69 241.12,-78.27"/>
<polygon fill="black" stroke="black" points="244.62,-78.22 241.12,-68.22 237.62,-78.22 244.62,-78.22"/>
</g>
</g>
</svg>
