<?xml version="1.0" encoding="UTF-8" standalone="no"?>
<!DOCTYPE svg PUBLIC "-//W3C//DTD SVG 1.1//EN"
 "http://www.w3.org/Graphics/SVG/1.1/DTD/svg11.dtd">
<!-- Generated by graphviz version 2.43.0 (0)
 -->
<!-- Title: pastafarianism Pages: 1 -->
<svg width="813pt" height="189pt"
 viewBox="0.00 0.00 813.17 189.48" xmlns="http://www.w3.org/2000/svg" xmlns:xlink="http://www.w3.org/1999/xlink">
<g id="graph0" class="graph" transform="scale(1 1) rotate(0) translate(4 185.48)">
<title>pastafarianism</title>
<polygon fill="white" stroke="transparent" points="-4,4 -4,-185.48 809.17,-185.48 809.17,4 -4,4"/>
<!-- selector:
 place(left_hand, outwardgripper, lampshade, lampbulb) -->
<g id="node1" class="node">
<title>selector:
 place(left_hand, outwardgripper, lampshade, lampbulb)</title>
<polygon fill="#8deeee" stroke="black" points="805.25,-129.42 805.25,-160.05 569.37,-181.71 235.79,-181.71 -0.08,-160.05 -0.08,-129.42 235.79,-107.76 569.37,-107.76 805.25,-129.42"/>
<text text-anchor="middle" x="402.58" y="-150.34" font-family="Times,serif" font-size="18.00">selector:</text>
<text text-anchor="middle" x="402.58" y="-130.34" font-family="Times,serif" font-size="18.00"> place(left_hand, outwardgripper, lampshade, lampbulb)</text>
</g>
<!-- target:
 is_placed_to(lampshade, lampbulb) -->
<g id="node2" class="node">
<title>target:
 is_placed_to(lampshade, lampbulb)</title>
<ellipse fill="#ffec8b" stroke="black" cx="402.58" cy="-36" rx="229" ry="36"/>
<text text-anchor="middle" x="402.58" y="-41.6" font-family="Times,serif" font-size="18.00">target:</text>
<text text-anchor="middle" x="402.58" y="-21.6" font-family="Times,serif" font-size="18.00"> is_placed_to(lampshade, lampbulb)</text>
</g>
<!-- selector:
 place(left_hand, outwardgripper, lampshade, lampbulb)&#45;&gt;target:
 is_placed_to(lampshade, lampbulb) -->
<g id="edge1" class="edge">
<title>selector:
 place(left_hand, outwardgripper, lampshade, lampbulb)&#45;&gt;target:
 is_placed_to(lampshade, lampbulb)</title>
<path fill="none" stroke="black" d="M402.58,-107.9C402.58,-99.72 402.58,-90.92 402.58,-82.4"/>
<polygon fill="black" stroke="black" points="406.08,-82.2 402.58,-72.2 399.08,-82.2 406.08,-82.2"/>
</g>
</g>
</svg>
