<?xml version="1.0" encoding="UTF-8" standalone="no"?>
<!DOCTYPE svg PUBLIC "-//W3C//DTD SVG 1.1//EN"
 "http://www.w3.org/Graphics/SVG/1.1/DTD/svg11.dtd">
<!-- Generated by graphviz version 2.43.0 (0)
 -->
<!-- Title: pastafarianism Pages: 1 -->
<svg width="2983pt" height="503pt"
 viewBox="0.00 0.00 2982.97 502.60" xmlns="http://www.w3.org/2000/svg" xmlns:xlink="http://www.w3.org/1999/xlink">
<g id="graph0" class="graph" transform="scale(1 1) rotate(0) translate(4 498.6)">
<title>pastafarianism</title>
<polygon fill="white" stroke="transparent" points="-4,4 -4,-498.6 2978.97,-498.6 2978.97,4 -4,4"/>
<!-- selector:
 insert(shaft3, gearbase_hole3, defaultgripper, left_hand) -->
<g id="node1" class="node">
<title>selector:
 insert(shaft3, gearbase_hole3, defaultgripper, left_hand)</title>
<polygon fill="#8deeee" stroke="black" points="1656.43,-442.54 1656.43,-473.18 1417.5,-494.84 1079.6,-494.84 840.67,-473.18 840.67,-442.54 1079.6,-420.88 1417.5,-420.88 1656.43,-442.54"/>
<text text-anchor="middle" x="1248.55" y="-463.46" font-family="Times,serif" font-size="18.00">selector:</text>
<text text-anchor="middle" x="1248.55" y="-443.46" font-family="Times,serif" font-size="18.00"> insert(shaft3, gearbase_hole3, defaultgripper, left_hand)</text>
</g>
<!-- target:
 is_inserted_to(shaft3, gearbase_hole3) -->
<g id="node2" class="node">
<title>target:
 is_inserted_to(shaft3, gearbase_hole3)</title>
<ellipse fill="#ffec8b" stroke="black" cx="975.55" cy="-351.18" rx="261.76" ry="33.88"/>
<text text-anchor="middle" x="975.55" y="-356.78" font-family="Times,serif" font-size="18.00">target:</text>
<text text-anchor="middle" x="975.55" y="-336.78" font-family="Times,serif" font-size="18.00"> is_inserted_to(shaft3, gearbase_hole3)</text>
</g>
<!-- selector:
 insert(shaft3, gearbase_hole3, defaultgripper, left_hand)&#45;&gt;target:
 is_inserted_to(shaft3, gearbase_hole3) -->
<g id="edge1" class="edge">
<title>selector:
 insert(shaft3, gearbase_hole3, defaultgripper, left_hand)&#45;&gt;target:
 is_inserted_to(shaft3, gearbase_hole3)</title>
<path fill="none" stroke="black" d="M1154.98,-420.98C1126.41,-410.03 1095.05,-398 1066.65,-387.11"/>
<polygon fill="black" stroke="black" points="1067.73,-383.78 1057.14,-383.47 1065.22,-390.31 1067.73,-383.78"/>
</g>
<!-- sequence:
 insert(shaft3, gearbase_hole3, defaultgripper, left_hand) -->
<g id="node3" class="node">
<title>sequence:
 insert(shaft3, gearbase_hole3, defaultgripper, left_hand)</title>
<polygon fill="#ff7f24" stroke="black" points="1788.05,-375.18 1255.05,-375.18 1255.05,-327.18 1788.05,-327.18 1788.05,-375.18"/>
<text text-anchor="middle" x="1521.55" y="-356.78" font-family="Times,serif" font-size="18.00">sequence:</text>
<text text-anchor="middle" x="1521.55" y="-336.78" font-family="Times,serif" font-size="18.00"> insert(shaft3, gearbase_hole3, defaultgripper, left_hand)</text>
</g>
<!-- selector:
 insert(shaft3, gearbase_hole3, defaultgripper, left_hand)&#45;&gt;sequence:
 insert(shaft3, gearbase_hole3, defaultgripper, left_hand) -->
<g id="edge2" class="edge">
<title>selector:
 insert(shaft3, gearbase_hole3, defaultgripper, left_hand)&#45;&gt;sequence:
 insert(shaft3, gearbase_hole3, defaultgripper, left_hand)</title>
<path fill="none" stroke="black" d="M1342.12,-420.98C1378.08,-407.19 1418.47,-391.7 1451.81,-378.92"/>
<polygon fill="black" stroke="black" points="1453.38,-382.07 1461.47,-375.22 1450.88,-375.53 1453.38,-382.07"/>
</g>
<!-- selector:
 change_tool(left_hand, parallelgripper, defaultgripper) -->
<g id="node4" class="node">
<title>selector:
 change_tool(left_hand, parallelgripper, defaultgripper)</title>
<polygon fill="#8deeee" stroke="black" points="1098.4,-229.19 1098.4,-259.82 867.1,-281.48 539.99,-281.48 308.69,-259.82 308.69,-229.19 539.99,-207.53 867.1,-207.53 1098.4,-229.19"/>
<text text-anchor="middle" x="703.55" y="-250.1" font-family="Times,serif" font-size="18.00">selector:</text>
<text text-anchor="middle" x="703.55" y="-230.1" font-family="Times,serif" font-size="18.00"> change_tool(left_hand, parallelgripper, defaultgripper)</text>
</g>
<!-- sequence:
 insert(shaft3, gearbase_hole3, defaultgripper, left_hand)&#45;&gt;selector:
 change_tool(left_hand, parallelgripper, defaultgripper) -->
<g id="edge3" class="edge">
<title>sequence:
 insert(shaft3, gearbase_hole3, defaultgripper, left_hand)&#45;&gt;selector:
 change_tool(left_hand, parallelgripper, defaultgripper)</title>
<path fill="none" stroke="black" d="M1341.78,-327.18C1225.35,-312.28 1072.31,-292.69 945.28,-276.44"/>
<polygon fill="black" stroke="black" points="945.38,-272.92 935.02,-275.12 944.49,-279.86 945.38,-272.92"/>
</g>
<!-- selector:
 pick_up(left_hand, defaultgripper, shaft3) -->
<g id="node10" class="node">
<title>selector:
 pick_up(left_hand, defaultgripper, shaft3)</title>
<polygon fill="#8deeee" stroke="black" points="1826.28,-229.19 1826.28,-259.82 1647.77,-281.48 1395.32,-281.48 1216.81,-259.82 1216.81,-229.19 1395.32,-207.53 1647.77,-207.53 1826.28,-229.19"/>
<text text-anchor="middle" x="1521.55" y="-250.1" font-family="Times,serif" font-size="18.00">selector:</text>
<text text-anchor="middle" x="1521.55" y="-230.1" font-family="Times,serif" font-size="18.00"> pick_up(left_hand, defaultgripper, shaft3)</text>
</g>
<!-- sequence:
 insert(shaft3, gearbase_hole3, defaultgripper, left_hand)&#45;&gt;selector:
 pick_up(left_hand, defaultgripper, shaft3) -->
<g id="edge9" class="edge">
<title>sequence:
 insert(shaft3, gearbase_hole3, defaultgripper, left_hand)&#45;&gt;selector:
 pick_up(left_hand, defaultgripper, shaft3)</title>
<path fill="none" stroke="black" d="M1521.55,-326.95C1521.55,-316.5 1521.55,-303.79 1521.55,-291.54"/>
<polygon fill="black" stroke="black" points="1525.05,-291.42 1521.55,-281.42 1518.05,-291.42 1525.05,-291.42"/>
</g>
<!-- action:
 insert(left_hand, defaultgripper, shaft3, gearbase_hole3) -->
<g id="node16" class="node">
<title>action:
 insert(left_hand, defaultgripper, shaft3, gearbase_hole3)</title>
<ellipse fill="lightgreen" stroke="black" cx="2221.55" cy="-244.5" rx="376.78" ry="33.88"/>
<text text-anchor="middle" x="2221.55" y="-250.1" font-family="Times,serif" font-size="18.00">action:</text>
<text text-anchor="middle" x="2221.55" y="-230.1" font-family="Times,serif" font-size="18.00"> insert(left_hand, defaultgripper, shaft3, gearbase_hole3)</text>
</g>
<!-- sequence:
 insert(shaft3, gearbase_hole3, defaultgripper, left_hand)&#45;&gt;action:
 insert(left_hand, defaultgripper, shaft3, gearbase_hole3) -->
<g id="edge15" class="edge">
<title>sequence:
 insert(shaft3, gearbase_hole3, defaultgripper, left_hand)&#45;&gt;action:
 insert(left_hand, defaultgripper, shaft3, gearbase_hole3)</title>
<path fill="none" stroke="black" d="M1675.6,-327.14C1777.48,-311.91 1912.06,-291.78 2022.1,-275.33"/>
<polygon fill="black" stroke="black" points="2022.62,-278.79 2032,-273.85 2021.59,-271.87 2022.62,-278.79"/>
</g>
<!-- target:
 hold(left_hand, defaultgripper) -->
<g id="node5" class="node">
<title>target:
 hold(left_hand, defaultgripper)</title>
<ellipse fill="#ffec8b" stroke="black" cx="213.55" cy="-137.82" rx="213.59" ry="33.88"/>
<text text-anchor="middle" x="213.55" y="-143.42" font-family="Times,serif" font-size="18.00">target:</text>
<text text-anchor="middle" x="213.55" y="-123.42" font-family="Times,serif" font-size="18.00"> hold(left_hand, defaultgripper)</text>
</g>
<!-- selector:
 change_tool(left_hand, parallelgripper, defaultgripper)&#45;&gt;target:
 hold(left_hand, defaultgripper) -->
<g id="edge4" class="edge">
<title>selector:
 change_tool(left_hand, parallelgripper, defaultgripper)&#45;&gt;target:
 hold(left_hand, defaultgripper)</title>
<path fill="none" stroke="black" d="M536.29,-207.77C474.96,-194.67 406.38,-180.02 348.27,-167.6"/>
<polygon fill="black" stroke="black" points="348.8,-164.14 338.29,-165.47 347.34,-170.98 348.8,-164.14"/>
</g>
<!-- sequence:
 change_tool(left_hand, parallelgripper, defaultgripper) -->
<g id="node6" class="node">
<title>sequence:
 change_tool(left_hand, parallelgripper, defaultgripper)</title>
<polygon fill="#ff7f24" stroke="black" points="961.55,-161.82 445.55,-161.82 445.55,-113.82 961.55,-113.82 961.55,-161.82"/>
<text text-anchor="middle" x="703.55" y="-143.42" font-family="Times,serif" font-size="18.00">sequence:</text>
<text text-anchor="middle" x="703.55" y="-123.42" font-family="Times,serif" font-size="18.00"> change_tool(left_hand, parallelgripper, defaultgripper)</text>
</g>
<!-- selector:
 change_tool(left_hand, parallelgripper, defaultgripper)&#45;&gt;sequence:
 change_tool(left_hand, parallelgripper, defaultgripper) -->
<g id="edge5" class="edge">
<title>selector:
 change_tool(left_hand, parallelgripper, defaultgripper)&#45;&gt;sequence:
 change_tool(left_hand, parallelgripper, defaultgripper)</title>
<path fill="none" stroke="black" d="M703.55,-207.48C703.55,-196.09 703.55,-183.57 703.55,-172.36"/>
<polygon fill="black" stroke="black" points="707.05,-172.11 703.55,-162.11 700.05,-172.11 707.05,-172.11"/>
</g>
<!-- precondition:
 hold(left_hand, parallelgripper) -->
<g id="node7" class="node">
<title>precondition:
 hold(left_hand, parallelgripper)</title>
<ellipse fill="#ffec8b" stroke="black" cx="239.55" cy="-33.94" rx="217.16" ry="33.88"/>
<text text-anchor="middle" x="239.55" y="-39.54" font-family="Times,serif" font-size="18.00">precondition:</text>
<text text-anchor="middle" x="239.55" y="-19.54" font-family="Times,serif" font-size="18.00"> hold(left_hand, parallelgripper)</text>
</g>
<!-- sequence:
 change_tool(left_hand, parallelgripper, defaultgripper)&#45;&gt;precondition:
 hold(left_hand, parallelgripper) -->
<g id="edge6" class="edge">
<title>sequence:
 change_tool(left_hand, parallelgripper, defaultgripper)&#45;&gt;precondition:
 hold(left_hand, parallelgripper)</title>
<path fill="none" stroke="black" d="M598.55,-113.77C531.65,-99.08 444.39,-79.92 372.66,-64.17"/>
<polygon fill="black" stroke="black" points="373.16,-60.7 362.64,-61.97 371.66,-67.53 373.16,-60.7"/>
</g>
<!-- precondition:
 is_empty(parallelgripper) -->
<g id="node8" class="node">
<title>precondition:
 is_empty(parallelgripper)</title>
<ellipse fill="#ffec8b" stroke="black" cx="653.55" cy="-33.94" rx="178.8" ry="33.88"/>
<text text-anchor="middle" x="653.55" y="-39.54" font-family="Times,serif" font-size="18.00">precondition:</text>
<text text-anchor="middle" x="653.55" y="-19.54" font-family="Times,serif" font-size="18.00"> is_empty(parallelgripper)</text>
</g>
<!-- sequence:
 change_tool(left_hand, parallelgripper, defaultgripper)&#45;&gt;precondition:
 is_empty(parallelgripper) -->
<g id="edge7" class="edge">
<title>sequence:
 change_tool(left_hand, parallelgripper, defaultgripper)&#45;&gt;precondition:
 is_empty(parallelgripper)</title>
<path fill="none" stroke="black" d="M692.2,-113.7C686.92,-102.94 680.47,-89.79 674.36,-77.35"/>
<polygon fill="black" stroke="black" points="677.32,-75.45 669.78,-68.01 671.04,-78.53 677.32,-75.45"/>
</g>
<!-- action:
 change_tool(left_hand, parallelgripper, defaultgripper) -->
<g id="node9" class="node">
<title>action:
 change_tool(left_hand, parallelgripper, defaultgripper)</title>
<ellipse fill="lightgreen" stroke="black" cx="1215.55" cy="-33.94" rx="364.73" ry="33.88"/>
<text text-anchor="middle" x="1215.55" y="-39.54" font-family="Times,serif" font-size="18.00">action:</text>
<text text-anchor="middle" x="1215.55" y="-19.54" font-family="Times,serif" font-size="18.00"> change_tool(left_hand, parallelgripper, defaultgripper)</text>
</g>
<!-- sequence:
 change_tool(left_hand, parallelgripper, defaultgripper)&#45;&gt;action:
 change_tool(left_hand, parallelgripper, defaultgripper) -->
<g id="edge8" class="edge">
<title>sequence:
 change_tool(left_hand, parallelgripper, defaultgripper)&#45;&gt;action:
 change_tool(left_hand, parallelgripper, defaultgripper)</title>
<path fill="none" stroke="black" d="M819.41,-113.77C889,-99.92 978.56,-82.1 1054.91,-66.91"/>
<polygon fill="black" stroke="black" points="1055.99,-70.26 1065.12,-64.88 1054.62,-63.39 1055.99,-70.26"/>
</g>
<!-- target:
 hold(defaultgripper, shaft3) -->
<g id="node11" class="node">
<title>target:
 hold(defaultgripper, shaft3)</title>
<ellipse fill="#ffec8b" stroke="black" cx="1521.55" cy="-137.82" rx="192.17" ry="33.88"/>
<text text-anchor="middle" x="1521.55" y="-143.42" font-family="Times,serif" font-size="18.00">target:</text>
<text text-anchor="middle" x="1521.55" y="-123.42" font-family="Times,serif" font-size="18.00"> hold(defaultgripper, shaft3)</text>
</g>
<!-- selector:
 pick_up(left_hand, defaultgripper, shaft3)&#45;&gt;target:
 hold(defaultgripper, shaft3) -->
<g id="edge10" class="edge">
<title>selector:
 pick_up(left_hand, defaultgripper, shaft3)&#45;&gt;target:
 hold(defaultgripper, shaft3)</title>
<path fill="none" stroke="black" d="M1521.55,-207.48C1521.55,-199.32 1521.55,-190.58 1521.55,-182.15"/>
<polygon fill="black" stroke="black" points="1525.05,-182.1 1521.55,-172.1 1518.05,-182.1 1525.05,-182.1"/>
</g>
<!-- sequence:
 pick_up(left_hand, defaultgripper, shaft3) -->
<g id="node12" class="node">
<title>sequence:
 pick_up(left_hand, defaultgripper, shaft3)</title>
<polygon fill="#ff7f24" stroke="black" points="2329.55,-161.82 1931.55,-161.82 1931.55,-113.82 2329.55,-113.82 2329.55,-161.82"/>
<text text-anchor="middle" x="2130.55" y="-143.42" font-family="Times,serif" font-size="18.00">sequence:</text>
<text text-anchor="middle" x="2130.55" y="-123.42" font-family="Times,serif" font-size="18.00"> pick_up(left_hand, defaultgripper, shaft3)</text>
</g>
<!-- selector:
 pick_up(left_hand, defaultgripper, shaft3)&#45;&gt;sequence:
 pick_up(left_hand, defaultgripper, shaft3) -->
<g id="edge11" class="edge">
<title>selector:
 pick_up(left_hand, defaultgripper, shaft3)&#45;&gt;sequence:
 pick_up(left_hand, defaultgripper, shaft3)</title>
<path fill="none" stroke="black" d="M1696.88,-213.37C1788.74,-197.58 1899.85,-178.48 1986.61,-163.56"/>
<polygon fill="black" stroke="black" points="1987.27,-167 1996.53,-161.86 1986.08,-160.1 1987.27,-167"/>
</g>
<!-- precondition:
 is_empty(defaultgripper) -->
<g id="node13" class="node">
<title>precondition:
 is_empty(defaultgripper)</title>
<ellipse fill="#ffec8b" stroke="black" cx="1773.55" cy="-33.94" rx="175.23" ry="33.88"/>
<text text-anchor="middle" x="1773.55" y="-39.54" font-family="Times,serif" font-size="18.00">precondition:</text>
<text text-anchor="middle" x="1773.55" y="-19.54" font-family="Times,serif" font-size="18.00"> is_empty(defaultgripper)</text>
</g>
<!-- sequence:
 pick_up(left_hand, defaultgripper, shaft3)&#45;&gt;precondition:
 is_empty(defaultgripper) -->
<g id="edge12" class="edge">
<title>sequence:
 pick_up(left_hand, defaultgripper, shaft3)&#45;&gt;precondition:
 is_empty(defaultgripper)</title>
<path fill="none" stroke="black" d="M2049.54,-113.7C1999.18,-99.33 1933.88,-80.7 1879.44,-65.16"/>
<polygon fill="black" stroke="black" points="1880.34,-61.78 1869.76,-62.4 1878.42,-68.51 1880.34,-61.78"/>
</g>
<!-- precondition:
 hold(left_hand, defaultgripper) -->
<g id="node14" class="node">
<title>precondition:
 hold(left_hand, defaultgripper)</title>
<ellipse fill="#ffec8b" stroke="black" cx="2180.55" cy="-33.94" rx="213.59" ry="33.88"/>
<text text-anchor="middle" x="2180.55" y="-39.54" font-family="Times,serif" font-size="18.00">precondition:</text>
<text text-anchor="middle" x="2180.55" y="-19.54" font-family="Times,serif" font-size="18.00"> hold(left_hand, defaultgripper)</text>
</g>
<!-- sequence:
 pick_up(left_hand, defaultgripper, shaft3)&#45;&gt;precondition:
 hold(left_hand, defaultgripper) -->
<g id="edge13" class="edge">
<title>sequence:
 pick_up(left_hand, defaultgripper, shaft3)&#45;&gt;precondition:
 hold(left_hand, defaultgripper)</title>
<path fill="none" stroke="black" d="M2141.89,-113.7C2147.17,-102.94 2153.63,-89.79 2159.74,-77.35"/>
<polygon fill="black" stroke="black" points="2163.05,-78.53 2164.32,-68.01 2156.77,-75.45 2163.05,-78.53"/>
</g>
<!-- action:
 pick_up(left_hand, defaultgripper, shaft3) -->
<g id="node15" class="node">
<title>action:
 pick_up(left_hand, defaultgripper, shaft3)</title>
<ellipse fill="lightgreen" stroke="black" cx="2693.55" cy="-33.94" rx="281.36" ry="33.88"/>
<text text-anchor="middle" x="2693.55" y="-39.54" font-family="Times,serif" font-size="18.00">action:</text>
<text text-anchor="middle" x="2693.55" y="-19.54" font-family="Times,serif" font-size="18.00"> pick_up(left_hand, defaultgripper, shaft3)</text>
</g>
<!-- sequence:
 pick_up(left_hand, defaultgripper, shaft3)&#45;&gt;action:
 pick_up(left_hand, defaultgripper, shaft3) -->
<g id="edge14" class="edge">
<title>sequence:
 pick_up(left_hand, defaultgripper, shaft3)&#45;&gt;action:
 pick_up(left_hand, defaultgripper, shaft3)</title>
<path fill="none" stroke="black" d="M2257.95,-113.77C2338.84,-99.13 2444.28,-80.05 2531.16,-64.33"/>
<polygon fill="black" stroke="black" points="2531.9,-67.75 2541.12,-62.53 2530.65,-60.86 2531.9,-67.75"/>
</g>
</g>
</svg>
