<?xml version="1.0" encoding="UTF-8" standalone="no"?>
<!DOCTYPE svg PUBLIC "-//W3C//DTD SVG 1.1//EN"
 "http://www.w3.org/Graphics/SVG/1.1/DTD/svg11.dtd">
<!-- Generated by graphviz version 2.43.0 (0)
 -->
<!-- Title: pastafarianism Pages: 1 -->
<svg width="2980pt" height="513pt"
 viewBox="0.00 0.00 2979.51 513.48" xmlns="http://www.w3.org/2000/svg" xmlns:xlink="http://www.w3.org/1999/xlink">
<g id="graph0" class="graph" transform="scale(1 1) rotate(0) translate(4 509.48)">
<title>pastafarianism</title>
<polygon fill="white" stroke="transparent" points="-4,4 -4,-509.48 2975.51,-509.48 2975.51,4 -4,4"/>
<!-- selector:
 place(left_hand, outwardgripper, lampshade, lampbulb) -->
<g id="node1" class="node">
<title>selector:
 place(left_hand, outwardgripper, lampshade, lampbulb)</title>
<polygon fill="#8deeee" stroke="black" points="1642.63,-453.42 1642.63,-484.05 1406.76,-505.71 1073.18,-505.71 837.3,-484.05 837.3,-453.42 1073.18,-431.76 1406.76,-431.76 1642.63,-453.42"/>
<text text-anchor="middle" x="1239.97" y="-474.34" font-family="Times,serif" font-size="18.00">selector:</text>
<text text-anchor="middle" x="1239.97" y="-454.34" font-family="Times,serif" font-size="18.00"> place(left_hand, outwardgripper, lampshade, lampbulb)</text>
</g>
<!-- target:
 is_placed_to(lampshade, lampbulb) -->
<g id="node2" class="node">
<title>target:
 is_placed_to(lampshade, lampbulb)</title>
<ellipse fill="#ffec8b" stroke="black" cx="984.97" cy="-360" rx="229" ry="36"/>
<text text-anchor="middle" x="984.97" y="-365.6" font-family="Times,serif" font-size="18.00">target:</text>
<text text-anchor="middle" x="984.97" y="-345.6" font-family="Times,serif" font-size="18.00"> is_placed_to(lampshade, lampbulb)</text>
</g>
<!-- selector:
 place(left_hand, outwardgripper, lampshade, lampbulb)&#45;&gt;target:
 is_placed_to(lampshade, lampbulb) -->
<g id="edge1" class="edge">
<title>selector:
 place(left_hand, outwardgripper, lampshade, lampbulb)&#45;&gt;target:
 is_placed_to(lampshade, lampbulb)</title>
<path fill="none" stroke="black" d="M1154.35,-431.9C1128.07,-420.9 1099.13,-408.79 1072.72,-397.73"/>
<polygon fill="black" stroke="black" points="1074.06,-394.5 1063.49,-393.87 1071.36,-400.96 1074.06,-394.5"/>
</g>
<!-- sequence:
 place(left_hand, outwardgripper, lampshade, lampbulb) -->
<g id="node3" class="node">
<title>sequence:
 place(left_hand, outwardgripper, lampshade, lampbulb)</title>
<polygon fill="#ff7f24" stroke="black" points="1757.97,-396 1231.97,-396 1231.97,-324 1757.97,-324 1757.97,-396"/>
<text text-anchor="middle" x="1494.97" y="-365.6" font-family="Times,serif" font-size="18.00">sequence:</text>
<text text-anchor="middle" x="1494.97" y="-345.6" font-family="Times,serif" font-size="18.00"> place(left_hand, outwardgripper, lampshade, lampbulb)</text>
</g>
<!-- selector:
 place(left_hand, outwardgripper, lampshade, lampbulb)&#45;&gt;sequence:
 place(left_hand, outwardgripper, lampshade, lampbulb) -->
<g id="edge2" class="edge">
<title>selector:
 place(left_hand, outwardgripper, lampshade, lampbulb)&#45;&gt;sequence:
 place(left_hand, outwardgripper, lampshade, lampbulb)</title>
<path fill="none" stroke="black" d="M1325.59,-431.9C1350.09,-421.64 1376.92,-410.41 1401.85,-399.98"/>
<polygon fill="black" stroke="black" points="1403.43,-403.11 1411.3,-396.02 1400.73,-396.65 1403.43,-403.11"/>
</g>
<!-- selector:
 change_tool(left_hand, inwardgripper, outwardgripper) -->
<g id="node4" class="node">
<title>selector:
 change_tool(left_hand, inwardgripper, outwardgripper)</title>
<polygon fill="#8deeee" stroke="black" points="1076.05,-237.09 1076.05,-266.91 854.58,-288 541.36,-288 319.88,-266.91 319.88,-237.09 541.36,-216 854.58,-216 1076.05,-237.09"/>
<text text-anchor="middle" x="697.97" y="-257.6" font-family="Times,serif" font-size="18.00">selector:</text>
<text text-anchor="middle" x="697.97" y="-237.6" font-family="Times,serif" font-size="18.00"> change_tool(left_hand, inwardgripper, outwardgripper)</text>
</g>
<!-- sequence:
 place(left_hand, outwardgripper, lampshade, lampbulb)&#45;&gt;selector:
 change_tool(left_hand, inwardgripper, outwardgripper) -->
<g id="edge3" class="edge">
<title>sequence:
 place(left_hand, outwardgripper, lampshade, lampbulb)&#45;&gt;selector:
 change_tool(left_hand, inwardgripper, outwardgripper)</title>
<path fill="none" stroke="black" d="M1231.79,-324C1133.26,-310.89 1022.2,-296.12 927,-283.46"/>
<polygon fill="black" stroke="black" points="927.33,-279.97 916.96,-282.13 926.41,-286.91 927.33,-279.97"/>
</g>
<!-- selector:
 pick_up(left_hand, outwardgripper, lampshade) -->
<g id="node10" class="node">
<title>selector:
 pick_up(left_hand, outwardgripper, lampshade)</title>
<polygon fill="#8deeee" stroke="black" points="1822.4,-237.09 1822.4,-266.91 1630.59,-288 1359.34,-288 1167.53,-266.91 1167.53,-237.09 1359.34,-216 1630.59,-216 1822.4,-237.09"/>
<text text-anchor="middle" x="1494.97" y="-257.6" font-family="Times,serif" font-size="18.00">selector:</text>
<text text-anchor="middle" x="1494.97" y="-237.6" font-family="Times,serif" font-size="18.00"> pick_up(left_hand, outwardgripper, lampshade)</text>
</g>
<!-- sequence:
 place(left_hand, outwardgripper, lampshade, lampbulb)&#45;&gt;selector:
 pick_up(left_hand, outwardgripper, lampshade) -->
<g id="edge9" class="edge">
<title>sequence:
 place(left_hand, outwardgripper, lampshade, lampbulb)&#45;&gt;selector:
 pick_up(left_hand, outwardgripper, lampshade)</title>
<path fill="none" stroke="black" d="M1494.97,-324C1494.97,-315.85 1494.97,-307.06 1494.97,-298.54"/>
<polygon fill="black" stroke="black" points="1498.47,-298.33 1494.97,-288.33 1491.47,-298.33 1498.47,-298.33"/>
</g>
<!-- action:
 place(left_hand, outwardgripper, lampshade, lampbulb) -->
<g id="node16" class="node">
<title>action:
 place(left_hand, outwardgripper, lampshade, lampbulb)</title>
<ellipse fill="lightgreen" stroke="black" cx="2192.97" cy="-252" rx="352.7" ry="36"/>
<text text-anchor="middle" x="2192.97" y="-257.6" font-family="Times,serif" font-size="18.00">action:</text>
<text text-anchor="middle" x="2192.97" y="-237.6" font-family="Times,serif" font-size="18.00"> place(left_hand, outwardgripper, lampshade, lampbulb)</text>
</g>
<!-- sequence:
 place(left_hand, outwardgripper, lampshade, lampbulb)&#45;&gt;action:
 place(left_hand, outwardgripper, lampshade, lampbulb) -->
<g id="edge15" class="edge">
<title>sequence:
 place(left_hand, outwardgripper, lampshade, lampbulb)&#45;&gt;action:
 place(left_hand, outwardgripper, lampshade, lampbulb)</title>
<path fill="none" stroke="black" d="M1725.45,-324C1811.12,-310.99 1907.59,-296.34 1990.56,-283.74"/>
<polygon fill="black" stroke="black" points="1991.25,-287.17 2000.61,-282.21 1990.2,-280.25 1991.25,-287.17"/>
</g>
<!-- target:
 hold(left_hand, outwardgripper) -->
<g id="node5" class="node">
<title>target:
 hold(left_hand, outwardgripper)</title>
<ellipse fill="#ffec8b" stroke="black" cx="209.97" cy="-144" rx="209.93" ry="36"/>
<text text-anchor="middle" x="209.97" y="-149.6" font-family="Times,serif" font-size="18.00">target:</text>
<text text-anchor="middle" x="209.97" y="-129.6" font-family="Times,serif" font-size="18.00"> hold(left_hand, outwardgripper)</text>
</g>
<!-- selector:
 change_tool(left_hand, inwardgripper, outwardgripper)&#45;&gt;target:
 hold(left_hand, outwardgripper) -->
<g id="edge4" class="edge">
<title>selector:
 change_tool(left_hand, inwardgripper, outwardgripper)&#45;&gt;target:
 hold(left_hand, outwardgripper)</title>
<path fill="none" stroke="black" d="M538.18,-216.29C476.43,-202.88 406.48,-187.69 347.07,-174.78"/>
<polygon fill="black" stroke="black" points="347.77,-171.35 337.25,-172.65 346.28,-178.19 347.77,-171.35"/>
</g>
<!-- sequence:
 change_tool(left_hand, inwardgripper, outwardgripper) -->
<g id="node6" class="node">
<title>sequence:
 change_tool(left_hand, inwardgripper, outwardgripper)</title>
<polygon fill="#ff7f24" stroke="black" points="958.47,-180 437.47,-180 437.47,-108 958.47,-108 958.47,-180"/>
<text text-anchor="middle" x="697.97" y="-149.6" font-family="Times,serif" font-size="18.00">sequence:</text>
<text text-anchor="middle" x="697.97" y="-129.6" font-family="Times,serif" font-size="18.00"> change_tool(left_hand, inwardgripper, outwardgripper)</text>
</g>
<!-- selector:
 change_tool(left_hand, inwardgripper, outwardgripper)&#45;&gt;sequence:
 change_tool(left_hand, inwardgripper, outwardgripper) -->
<g id="edge5" class="edge">
<title>selector:
 change_tool(left_hand, inwardgripper, outwardgripper)&#45;&gt;sequence:
 change_tool(left_hand, inwardgripper, outwardgripper)</title>
<path fill="none" stroke="black" d="M697.97,-216C697.97,-207.85 697.97,-199.06 697.97,-190.54"/>
<polygon fill="black" stroke="black" points="701.47,-190.33 697.97,-180.33 694.47,-190.33 701.47,-190.33"/>
</g>
<!-- precondition:
 hold(left_hand, inwardgripper) -->
<g id="node7" class="node">
<title>precondition:
 hold(left_hand, inwardgripper)</title>
<ellipse fill="#ffec8b" stroke="black" cx="275.97" cy="-36" rx="201.83" ry="36"/>
<text text-anchor="middle" x="275.97" y="-41.6" font-family="Times,serif" font-size="18.00">precondition:</text>
<text text-anchor="middle" x="275.97" y="-21.6" font-family="Times,serif" font-size="18.00"> hold(left_hand, inwardgripper)</text>
</g>
<!-- sequence:
 change_tool(left_hand, inwardgripper, outwardgripper)&#45;&gt;precondition:
 hold(left_hand, inwardgripper) -->
<g id="edge6" class="edge">
<title>sequence:
 change_tool(left_hand, inwardgripper, outwardgripper)&#45;&gt;precondition:
 hold(left_hand, inwardgripper)</title>
<path fill="none" stroke="black" d="M558.62,-108C507.41,-95.14 449.82,-80.67 400.05,-68.17"/>
<polygon fill="black" stroke="black" points="400.76,-64.74 390.2,-65.69 399.05,-71.53 400.76,-64.74"/>
</g>
<!-- precondition:
 is_empty(inwardgripper) -->
<g id="node8" class="node">
<title>precondition:
 is_empty(inwardgripper)</title>
<ellipse fill="#ffec8b" stroke="black" cx="661.97" cy="-36" rx="165.89" ry="36"/>
<text text-anchor="middle" x="661.97" y="-41.6" font-family="Times,serif" font-size="18.00">precondition:</text>
<text text-anchor="middle" x="661.97" y="-21.6" font-family="Times,serif" font-size="18.00"> is_empty(inwardgripper)</text>
</g>
<!-- sequence:
 change_tool(left_hand, inwardgripper, outwardgripper)&#45;&gt;precondition:
 is_empty(inwardgripper) -->
<g id="edge7" class="edge">
<title>sequence:
 change_tool(left_hand, inwardgripper, outwardgripper)&#45;&gt;precondition:
 is_empty(inwardgripper)</title>
<path fill="none" stroke="black" d="M686.08,-108C683.22,-99.59 680.13,-90.49 677.15,-81.7"/>
<polygon fill="black" stroke="black" points="680.37,-80.31 673.84,-71.97 673.74,-82.56 680.37,-80.31"/>
</g>
<!-- action:
 change_tool(left_hand, inwardgripper, outwardgripper) -->
<g id="node9" class="node">
<title>action:
 change_tool(left_hand, inwardgripper, outwardgripper)</title>
<ellipse fill="lightgreen" stroke="black" cx="1194.97" cy="-36" rx="349.49" ry="36"/>
<text text-anchor="middle" x="1194.97" y="-41.6" font-family="Times,serif" font-size="18.00">action:</text>
<text text-anchor="middle" x="1194.97" y="-21.6" font-family="Times,serif" font-size="18.00"> change_tool(left_hand, inwardgripper, outwardgripper)</text>
</g>
<!-- sequence:
 change_tool(left_hand, inwardgripper, outwardgripper)&#45;&gt;action:
 change_tool(left_hand, inwardgripper, outwardgripper) -->
<g id="edge8" class="edge">
<title>sequence:
 change_tool(left_hand, inwardgripper, outwardgripper)&#45;&gt;action:
 change_tool(left_hand, inwardgripper, outwardgripper)</title>
<path fill="none" stroke="black" d="M862.08,-108C918.23,-96.02 980.9,-82.66 1036.58,-70.78"/>
<polygon fill="black" stroke="black" points="1037.48,-74.17 1046.53,-68.66 1036.02,-67.32 1037.48,-74.17"/>
</g>
<!-- target:
 hold(outwardgripper, lampshade) -->
<g id="node11" class="node">
<title>target:
 hold(outwardgripper, lampshade)</title>
<ellipse fill="#ffec8b" stroke="black" cx="1494.97" cy="-144" rx="217.19" ry="36"/>
<text text-anchor="middle" x="1494.97" y="-149.6" font-family="Times,serif" font-size="18.00">target:</text>
<text text-anchor="middle" x="1494.97" y="-129.6" font-family="Times,serif" font-size="18.00"> hold(outwardgripper, lampshade)</text>
</g>
<!-- selector:
 pick_up(left_hand, outwardgripper, lampshade)&#45;&gt;target:
 hold(outwardgripper, lampshade) -->
<g id="edge10" class="edge">
<title>selector:
 pick_up(left_hand, outwardgripper, lampshade)&#45;&gt;target:
 hold(outwardgripper, lampshade)</title>
<path fill="none" stroke="black" d="M1494.97,-216C1494.97,-207.85 1494.97,-199.06 1494.97,-190.54"/>
<polygon fill="black" stroke="black" points="1498.47,-190.33 1494.97,-180.33 1491.47,-190.33 1498.47,-190.33"/>
</g>
<!-- sequence:
 pick_up(left_hand, outwardgripper, lampshade) -->
<g id="node12" class="node">
<title>sequence:
 pick_up(left_hand, outwardgripper, lampshade)</title>
<polygon fill="#ff7f24" stroke="black" points="2326.47,-180 1875.47,-180 1875.47,-108 2326.47,-108 2326.47,-180"/>
<text text-anchor="middle" x="2100.97" y="-149.6" font-family="Times,serif" font-size="18.00">sequence:</text>
<text text-anchor="middle" x="2100.97" y="-129.6" font-family="Times,serif" font-size="18.00"> pick_up(left_hand, outwardgripper, lampshade)</text>
</g>
<!-- selector:
 pick_up(left_hand, outwardgripper, lampshade)&#45;&gt;sequence:
 pick_up(left_hand, outwardgripper, lampshade) -->
<g id="edge11" class="edge">
<title>selector:
 pick_up(left_hand, outwardgripper, lampshade)&#45;&gt;sequence:
 pick_up(left_hand, outwardgripper, lampshade)</title>
<path fill="none" stroke="black" d="M1670.25,-220.34C1739.11,-208.3 1818.73,-194.37 1890.66,-181.79"/>
<polygon fill="black" stroke="black" points="1891.5,-185.19 1900.75,-180.02 1890.3,-178.3 1891.5,-185.19"/>
</g>
<!-- precondition:
 is_empty(outwardgripper) -->
<g id="node13" class="node">
<title>precondition:
 is_empty(outwardgripper)</title>
<ellipse fill="#ffec8b" stroke="black" cx="1735.97" cy="-36" rx="173.99" ry="36"/>
<text text-anchor="middle" x="1735.97" y="-41.6" font-family="Times,serif" font-size="18.00">precondition:</text>
<text text-anchor="middle" x="1735.97" y="-21.6" font-family="Times,serif" font-size="18.00"> is_empty(outwardgripper)</text>
</g>
<!-- sequence:
 pick_up(left_hand, outwardgripper, lampshade)&#45;&gt;precondition:
 is_empty(outwardgripper) -->
<g id="edge12" class="edge">
<title>sequence:
 pick_up(left_hand, outwardgripper, lampshade)&#45;&gt;precondition:
 is_empty(outwardgripper)</title>
<path fill="none" stroke="black" d="M1980.44,-108C1936.61,-95.27 1887.38,-80.97 1844.64,-68.56"/>
<polygon fill="black" stroke="black" points="1845.35,-65.12 1834.77,-65.69 1843.4,-71.84 1845.35,-65.12"/>
</g>
<!-- precondition:
 hold(left_hand, outwardgripper) -->
<g id="node14" class="node">
<title>precondition:
 hold(left_hand, outwardgripper)</title>
<ellipse fill="#ffec8b" stroke="black" cx="2137.97" cy="-36" rx="209.93" ry="36"/>
<text text-anchor="middle" x="2137.97" y="-41.6" font-family="Times,serif" font-size="18.00">precondition:</text>
<text text-anchor="middle" x="2137.97" y="-21.6" font-family="Times,serif" font-size="18.00"> hold(left_hand, outwardgripper)</text>
</g>
<!-- sequence:
 pick_up(left_hand, outwardgripper, lampshade)&#45;&gt;precondition:
 hold(left_hand, outwardgripper) -->
<g id="edge13" class="edge">
<title>sequence:
 pick_up(left_hand, outwardgripper, lampshade)&#45;&gt;precondition:
 hold(left_hand, outwardgripper)</title>
<path fill="none" stroke="black" d="M2113.18,-108C2116.15,-99.5 2119.37,-90.29 2122.46,-81.42"/>
<polygon fill="black" stroke="black" points="2125.77,-82.56 2125.76,-71.97 2119.16,-80.25 2125.77,-82.56"/>
</g>
<!-- action:
 pick_up(left_hand, outwardgripper, lampshade) -->
<g id="node15" class="node">
<title>action:
 pick_up(left_hand, outwardgripper, lampshade)</title>
<ellipse fill="lightgreen" stroke="black" cx="2668.97" cy="-36" rx="302.58" ry="36"/>
<text text-anchor="middle" x="2668.97" y="-41.6" font-family="Times,serif" font-size="18.00">action:</text>
<text text-anchor="middle" x="2668.97" y="-21.6" font-family="Times,serif" font-size="18.00"> pick_up(left_hand, outwardgripper, lampshade)</text>
</g>
<!-- sequence:
 pick_up(left_hand, outwardgripper, lampshade)&#45;&gt;action:
 pick_up(left_hand, outwardgripper, lampshade) -->
<g id="edge14" class="edge">
<title>sequence:
 pick_up(left_hand, outwardgripper, lampshade)&#45;&gt;action:
 pick_up(left_hand, outwardgripper, lampshade)</title>
<path fill="none" stroke="black" d="M2288.53,-108C2356.76,-95.26 2433.42,-80.96 2499.95,-68.54"/>
<polygon fill="black" stroke="black" points="2500.93,-71.92 2510.12,-66.64 2499.64,-65.04 2500.93,-71.92"/>
</g>
</g>
</svg>
