<?xml version="1.0" encoding="UTF-8" standalone="no"?>
<!DOCTYPE svg PUBLIC "-//W3C//DTD SVG 1.1//EN"
 "http://www.w3.org/Graphics/SVG/1.1/DTD/svg11.dtd">
<!-- Generated by graphviz version 2.43.0 (0)
 -->
<!-- Title: pastafarianism Pages: 1 -->
<svg width="1769pt" height="503pt"
 viewBox="0.00 0.00 1768.97 502.60" xmlns="http://www.w3.org/2000/svg" xmlns:xlink="http://www.w3.org/1999/xlink">
<g id="graph0" class="graph" transform="scale(1 1) rotate(0) translate(4 498.6)">
<title>pastafarianism</title>
<polygon fill="white" stroke="transparent" points="-4,4 -4,-498.6 1764.97,-498.6 1764.97,4 -4,4"/>
<!-- selector:
 insert(gear3, shaft3, defaultgripper, left_hand) -->
<g id="node1" class="node">
<title>selector:
 insert(gear3, shaft3, defaultgripper, left_hand)</title>
<polygon fill="#8deeee" stroke="black" points="870.22,-442.54 870.22,-473.18 670.66,-494.84 388.43,-494.84 188.87,-473.18 188.87,-442.54 388.43,-420.88 670.66,-420.88 870.22,-442.54"/>
<text text-anchor="middle" x="529.55" y="-463.46" font-family="Times,serif" font-size="18.00">selector:</text>
<text text-anchor="middle" x="529.55" y="-443.46" font-family="Times,serif" font-size="18.00"> insert(gear3, shaft3, defaultgripper, left_hand)</text>
</g>
<!-- target:
 is_inserted_to(gear3, shaft3) -->
<g id="node2" class="node">
<title>target:
 is_inserted_to(gear3, shaft3)</title>
<ellipse fill="#ffec8b" stroke="black" cx="310.55" cy="-351.18" rx="198.89" ry="33.88"/>
<text text-anchor="middle" x="310.55" y="-356.78" font-family="Times,serif" font-size="18.00">target:</text>
<text text-anchor="middle" x="310.55" y="-336.78" font-family="Times,serif" font-size="18.00"> is_inserted_to(gear3, shaft3)</text>
</g>
<!-- selector:
 insert(gear3, shaft3, defaultgripper, left_hand)&#45;&gt;target:
 is_inserted_to(gear3, shaft3) -->
<g id="edge1" class="edge">
<title>selector:
 insert(gear3, shaft3, defaultgripper, left_hand)&#45;&gt;target:
 is_inserted_to(gear3, shaft3)</title>
<path fill="none" stroke="black" d="M454.49,-420.98C431.96,-410.21 407.27,-398.41 384.79,-387.67"/>
<polygon fill="black" stroke="black" points="386.17,-384.45 375.64,-383.29 383.15,-390.77 386.17,-384.45"/>
</g>
<!-- sequence:
 insert(gear3, shaft3, defaultgripper, left_hand) -->
<g id="node3" class="node">
<title>sequence:
 insert(gear3, shaft3, defaultgripper, left_hand)</title>
<polygon fill="#ff7f24" stroke="black" points="972.05,-375.18 527.05,-375.18 527.05,-327.18 972.05,-327.18 972.05,-375.18"/>
<text text-anchor="middle" x="749.55" y="-356.78" font-family="Times,serif" font-size="18.00">sequence:</text>
<text text-anchor="middle" x="749.55" y="-336.78" font-family="Times,serif" font-size="18.00"> insert(gear3, shaft3, defaultgripper, left_hand)</text>
</g>
<!-- selector:
 insert(gear3, shaft3, defaultgripper, left_hand)&#45;&gt;sequence:
 insert(gear3, shaft3, defaultgripper, left_hand) -->
<g id="edge2" class="edge">
<title>selector:
 insert(gear3, shaft3, defaultgripper, left_hand)&#45;&gt;sequence:
 insert(gear3, shaft3, defaultgripper, left_hand)</title>
<path fill="none" stroke="black" d="M604.95,-420.98C633.43,-407.43 665.36,-392.24 691.96,-379.58"/>
<polygon fill="black" stroke="black" points="693.6,-382.67 701.13,-375.22 690.6,-376.35 693.6,-382.67"/>
</g>
<!-- precondition:
 hold(left_hand, defaultgripper) -->
<g id="node4" class="node">
<title>precondition:
 hold(left_hand, defaultgripper)</title>
<ellipse fill="#ffec8b" stroke="black" cx="213.55" cy="-244.5" rx="213.59" ry="33.88"/>
<text text-anchor="middle" x="213.55" y="-250.1" font-family="Times,serif" font-size="18.00">precondition:</text>
<text text-anchor="middle" x="213.55" y="-230.1" font-family="Times,serif" font-size="18.00"> hold(left_hand, defaultgripper)</text>
</g>
<!-- sequence:
 insert(gear3, shaft3, defaultgripper, left_hand)&#45;&gt;precondition:
 hold(left_hand, defaultgripper) -->
<g id="edge3" class="edge">
<title>sequence:
 insert(gear3, shaft3, defaultgripper, left_hand)&#45;&gt;precondition:
 hold(left_hand, defaultgripper)</title>
<path fill="none" stroke="black" d="M631.59,-327.14C550.12,-311.23 441.36,-289.99 355.19,-273.16"/>
<polygon fill="black" stroke="black" points="355.82,-269.72 345.33,-271.24 354.48,-276.59 355.82,-269.72"/>
</g>
<!-- selector:
 pick_up(left_hand, defaultgripper, shaft3) -->
<g id="node5" class="node">
<title>selector:
 pick_up(left_hand, defaultgripper, shaft3)</title>
<polygon fill="#8deeee" stroke="black" points="1054.28,-229.19 1054.28,-259.82 875.77,-281.48 623.32,-281.48 444.81,-259.82 444.81,-229.19 623.32,-207.53 875.77,-207.53 1054.28,-229.19"/>
<text text-anchor="middle" x="749.55" y="-250.1" font-family="Times,serif" font-size="18.00">selector:</text>
<text text-anchor="middle" x="749.55" y="-230.1" font-family="Times,serif" font-size="18.00"> pick_up(left_hand, defaultgripper, shaft3)</text>
</g>
<!-- sequence:
 insert(gear3, shaft3, defaultgripper, left_hand)&#45;&gt;selector:
 pick_up(left_hand, defaultgripper, shaft3) -->
<g id="edge4" class="edge">
<title>sequence:
 insert(gear3, shaft3, defaultgripper, left_hand)&#45;&gt;selector:
 pick_up(left_hand, defaultgripper, shaft3)</title>
<path fill="none" stroke="black" d="M749.55,-326.95C749.55,-316.5 749.55,-303.79 749.55,-291.54"/>
<polygon fill="black" stroke="black" points="753.05,-291.42 749.55,-281.42 746.05,-291.42 753.05,-291.42"/>
</g>
<!-- action:
 insert(left_hand, defaultgripper, gear3, shaft3) -->
<g id="node11" class="node">
<title>action:
 insert(left_hand, defaultgripper, gear3, shaft3)</title>
<ellipse fill="lightgreen" stroke="black" cx="1386.55" cy="-244.5" rx="314.83" ry="33.88"/>
<text text-anchor="middle" x="1386.55" y="-250.1" font-family="Times,serif" font-size="18.00">action:</text>
<text text-anchor="middle" x="1386.55" y="-230.1" font-family="Times,serif" font-size="18.00"> insert(left_hand, defaultgripper, gear3, shaft3)</text>
</g>
<!-- sequence:
 insert(gear3, shaft3, defaultgripper, left_hand)&#45;&gt;action:
 insert(left_hand, defaultgripper, gear3, shaft3) -->
<g id="edge10" class="edge">
<title>sequence:
 insert(gear3, shaft3, defaultgripper, left_hand)&#45;&gt;action:
 insert(left_hand, defaultgripper, gear3, shaft3)</title>
<path fill="none" stroke="black" d="M889.73,-327.14C983.41,-311.75 1107.45,-291.37 1208.16,-274.82"/>
<polygon fill="black" stroke="black" points="1208.84,-278.25 1218.14,-273.18 1207.7,-271.34 1208.84,-278.25"/>
</g>
<!-- target:
 hold(defaultgripper, shaft3) -->
<g id="node6" class="node">
<title>target:
 hold(defaultgripper, shaft3)</title>
<ellipse fill="#ffec8b" stroke="black" cx="545.55" cy="-137.82" rx="192.17" ry="33.88"/>
<text text-anchor="middle" x="545.55" y="-143.42" font-family="Times,serif" font-size="18.00">target:</text>
<text text-anchor="middle" x="545.55" y="-123.42" font-family="Times,serif" font-size="18.00"> hold(defaultgripper, shaft3)</text>
</g>
<!-- selector:
 pick_up(left_hand, defaultgripper, shaft3)&#45;&gt;target:
 hold(defaultgripper, shaft3) -->
<g id="edge5" class="edge">
<title>selector:
 pick_up(left_hand, defaultgripper, shaft3)&#45;&gt;target:
 hold(defaultgripper, shaft3)</title>
<path fill="none" stroke="black" d="M679.63,-207.62C658.93,-197 636.27,-185.38 615.57,-174.75"/>
<polygon fill="black" stroke="black" points="617.01,-171.56 606.52,-170.11 613.82,-177.79 617.01,-171.56"/>
</g>
<!-- sequence:
 pick_up(left_hand, defaultgripper, shaft3) -->
<g id="node7" class="node">
<title>sequence:
 pick_up(left_hand, defaultgripper, shaft3)</title>
<polygon fill="#ff7f24" stroke="black" points="1153.55,-161.82 755.55,-161.82 755.55,-113.82 1153.55,-113.82 1153.55,-161.82"/>
<text text-anchor="middle" x="954.55" y="-143.42" font-family="Times,serif" font-size="18.00">sequence:</text>
<text text-anchor="middle" x="954.55" y="-123.42" font-family="Times,serif" font-size="18.00"> pick_up(left_hand, defaultgripper, shaft3)</text>
</g>
<!-- selector:
 pick_up(left_hand, defaultgripper, shaft3)&#45;&gt;sequence:
 pick_up(left_hand, defaultgripper, shaft3) -->
<g id="edge6" class="edge">
<title>selector:
 pick_up(left_hand, defaultgripper, shaft3)&#45;&gt;sequence:
 pick_up(left_hand, defaultgripper, shaft3)</title>
<path fill="none" stroke="black" d="M819.81,-207.62C846.12,-194.19 875.58,-179.14 900.24,-166.56"/>
<polygon fill="black" stroke="black" points="902.12,-169.53 909.43,-161.86 898.93,-163.29 902.12,-169.53"/>
</g>
<!-- precondition:
 is_empty(defaultgripper) -->
<g id="node8" class="node">
<title>precondition:
 is_empty(defaultgripper)</title>
<ellipse fill="#ffec8b" stroke="black" cx="535.55" cy="-33.94" rx="175.23" ry="33.88"/>
<text text-anchor="middle" x="535.55" y="-39.54" font-family="Times,serif" font-size="18.00">precondition:</text>
<text text-anchor="middle" x="535.55" y="-19.54" font-family="Times,serif" font-size="18.00"> is_empty(defaultgripper)</text>
</g>
<!-- sequence:
 pick_up(left_hand, defaultgripper, shaft3)&#45;&gt;precondition:
 is_empty(defaultgripper) -->
<g id="edge7" class="edge">
<title>sequence:
 pick_up(left_hand, defaultgripper, shaft3)&#45;&gt;precondition:
 is_empty(defaultgripper)</title>
<path fill="none" stroke="black" d="M859.73,-113.77C798.31,-98.83 717.87,-79.27 652.49,-63.38"/>
<polygon fill="black" stroke="black" points="653.09,-59.92 642.54,-60.96 651.43,-66.72 653.09,-59.92"/>
</g>
<!-- &quot;precondition:\n hold(left_hand, defaultgripper)&quot;* -->
<g id="node9" class="node">
<title>&quot;precondition:\n hold(left_hand, defaultgripper)&quot;*</title>
<ellipse fill="#ffec8b" stroke="black" cx="954.55" cy="-33.94" rx="225.63" ry="33.88"/>
<text text-anchor="middle" x="954.55" y="-39.54" font-family="Times,serif" font-size="18.00">&quot;precondition:</text>
<text text-anchor="middle" x="954.55" y="-19.54" font-family="Times,serif" font-size="18.00"> hold(left_hand, defaultgripper)&quot;*</text>
</g>
<!-- sequence:
 pick_up(left_hand, defaultgripper, shaft3)&#45;&gt;&quot;precondition:\n hold(left_hand, defaultgripper)&quot;* -->
<g id="edge8" class="edge">
<title>sequence:
 pick_up(left_hand, defaultgripper, shaft3)&#45;&gt;&quot;precondition:\n hold(left_hand, defaultgripper)&quot;*</title>
<path fill="none" stroke="black" d="M954.55,-113.7C954.55,-103.16 954.55,-90.31 954.55,-78.08"/>
<polygon fill="black" stroke="black" points="958.05,-78.01 954.55,-68.01 951.05,-78.01 958.05,-78.01"/>
</g>
<!-- action:
 pick_up(left_hand, defaultgripper, shaft3) -->
<g id="node10" class="node">
<title>action:
 pick_up(left_hand, defaultgripper, shaft3)</title>
<ellipse fill="lightgreen" stroke="black" cx="1479.55" cy="-33.94" rx="281.36" ry="33.88"/>
<text text-anchor="middle" x="1479.55" y="-39.54" font-family="Times,serif" font-size="18.00">action:</text>
<text text-anchor="middle" x="1479.55" y="-19.54" font-family="Times,serif" font-size="18.00"> pick_up(left_hand, defaultgripper, shaft3)</text>
</g>
<!-- sequence:
 pick_up(left_hand, defaultgripper, shaft3)&#45;&gt;action:
 pick_up(left_hand, defaultgripper, shaft3) -->
<g id="edge9" class="edge">
<title>sequence:
 pick_up(left_hand, defaultgripper, shaft3)&#45;&gt;action:
 pick_up(left_hand, defaultgripper, shaft3)</title>
<path fill="none" stroke="black" d="M1073.35,-113.77C1147.61,-99.36 1244.04,-80.64 1324.32,-65.07"/>
<polygon fill="black" stroke="black" points="1325.37,-68.43 1334.52,-63.08 1324.04,-61.55 1325.37,-68.43"/>
</g>
</g>
</svg>
