<?xml version="1.0" encoding="UTF-8" standalone="no"?>
<!DOCTYPE svg PUBLIC "-//W3C//DTD SVG 1.1//EN"
 "http://www.w3.org/Graphics/SVG/1.1/DTD/svg11.dtd">
<!-- Generated by graphviz version 2.43.0 (0)
 -->
<!-- Title: pastafarianism Pages: 1 -->
<svg width="1251pt" height="332pt"
 viewBox="0.00 0.00 1251.08 332.00" xmlns="http://www.w3.org/2000/svg" xmlns:xlink="http://www.w3.org/1999/xlink">
<g id="graph0" class="graph" transform="scale(1 1) rotate(0) translate(4 328)">
<title>pastafarianism</title>
<polygon fill="white" stroke="transparent" points="-4,4 -4,-328 1247.08,-328 1247.08,4 -4,4"/>
<!-- insert selector -->
<g id="node1" class="node">
<title>insert selector</title>
<polygon fill="cyan" stroke="black" points="562.35,-298.54 562.35,-313.46 532.04,-324 489.18,-324 458.88,-313.46 458.88,-298.54 489.18,-288 532.04,-288 562.35,-298.54"/>
<text text-anchor="middle" x="510.61" y="-303.8" font-family="Times,serif" font-size="9.00">insert selector</text>
</g>
<!-- check gear3 is_inserted_to shaft2 -->
<g id="node2" class="node">
<title>check gear3 is_inserted_to shaft2</title>
<ellipse fill="gray" stroke="black" cx="429.61" cy="-234" rx="99.11" ry="18"/>
<text text-anchor="middle" x="429.61" y="-231.8" font-family="Times,serif" font-size="9.00">check gear3 is_inserted_to shaft2</text>
</g>
<!-- insert selector&#45;&gt;check gear3 is_inserted_to shaft2 -->
<g id="edge1" class="edge">
<title>insert selector&#45;&gt;check gear3 is_inserted_to shaft2</title>
<path fill="none" stroke="black" d="M490.59,-287.7C480.41,-278.9 467.89,-268.08 456.85,-258.54"/>
<polygon fill="black" stroke="black" points="458.98,-255.75 449.13,-251.86 454.4,-261.05 458.98,-255.75"/>
</g>
<!-- insert sequence -->
<g id="node3" class="node">
<title>insert sequence</title>
<polygon fill="orange" stroke="black" points="636.61,-252 546.61,-252 546.61,-216 636.61,-216 636.61,-252"/>
<text text-anchor="middle" x="591.61" y="-231.8" font-family="Times,serif" font-size="9.00">insert sequence</text>
</g>
<!-- insert selector&#45;&gt;insert sequence -->
<g id="edge2" class="edge">
<title>insert selector&#45;&gt;insert sequence</title>
<path fill="none" stroke="black" d="M530.64,-287.7C540.74,-278.97 553.15,-268.24 564.13,-258.75"/>
<polygon fill="black" stroke="black" points="566.54,-261.29 571.82,-252.1 561.97,-255.99 566.54,-261.29"/>
</g>
<!-- load_tool selector -->
<g id="node4" class="node">
<title>load_tool selector</title>
<polygon fill="cyan" stroke="black" points="369.1,-154.54 369.1,-169.46 333.08,-180 282.15,-180 246.13,-169.46 246.13,-154.54 282.15,-144 333.08,-144 369.1,-154.54"/>
<text text-anchor="middle" x="307.61" y="-159.8" font-family="Times,serif" font-size="9.00">load_tool selector</text>
</g>
<!-- insert sequence&#45;&gt;load_tool selector -->
<g id="edge3" class="edge">
<title>insert sequence&#45;&gt;load_tool selector</title>
<path fill="none" stroke="black" d="M546.61,-218.54C543.57,-217.66 540.55,-216.8 537.61,-216 479.97,-200.31 413.38,-185.3 366.73,-175.29"/>
<polygon fill="black" stroke="black" points="367.31,-171.83 356.8,-173.16 365.85,-178.67 367.31,-171.83"/>
</g>
<!-- pick_up selector -->
<g id="node10" class="node">
<title>pick_up selector</title>
<polygon fill="cyan" stroke="black" points="562.1,-154.54 562.1,-169.46 528.42,-180 480.8,-180 447.13,-169.46 447.13,-154.54 480.8,-144 528.42,-144 562.1,-154.54"/>
<text text-anchor="middle" x="504.61" y="-159.8" font-family="Times,serif" font-size="9.00">pick_up selector</text>
</g>
<!-- insert sequence&#45;&gt;pick_up selector -->
<g id="edge9" class="edge">
<title>insert sequence&#45;&gt;pick_up selector</title>
<path fill="none" stroke="black" d="M570.11,-215.7C559.15,-206.88 545.67,-196.03 533.79,-186.47"/>
<polygon fill="black" stroke="black" points="535.86,-183.65 525.87,-180.1 531.47,-189.1 535.86,-183.65"/>
</g>
<!-- check gear3 can_insert_to shaft2 -->
<g id="node16" class="node">
<title>check gear3 can_insert_to shaft2</title>
<ellipse fill="gray" stroke="black" cx="678.61" cy="-162" rx="98.3" ry="18"/>
<text text-anchor="middle" x="678.61" y="-159.8" font-family="Times,serif" font-size="9.00">check gear3 can_insert_to shaft2</text>
</g>
<!-- insert sequence&#45;&gt;check gear3 can_insert_to shaft2 -->
<g id="edge15" class="edge">
<title>insert sequence&#45;&gt;check gear3 can_insert_to shaft2</title>
<path fill="none" stroke="black" d="M613.12,-215.7C624.24,-206.75 637.96,-195.71 649.97,-186.05"/>
<polygon fill="black" stroke="black" points="652.36,-188.62 657.95,-179.62 647.97,-183.16 652.36,-188.62"/>
</g>
<!-- insert(left_hand, parallel_box1, gear3, shaft2) -->
<g id="node17" class="node">
<title>insert(left_hand, parallel_box1, gear3, shaft2)</title>
<ellipse fill="gray" stroke="black" cx="927.61" cy="-162" rx="132.58" ry="18"/>
<text text-anchor="middle" x="927.61" y="-159.8" font-family="Times,serif" font-size="9.00">insert(left_hand, parallel_box1, gear3, shaft2)</text>
</g>
<!-- insert sequence&#45;&gt;insert(left_hand, parallel_box1, gear3, shaft2) -->
<g id="edge16" class="edge">
<title>insert sequence&#45;&gt;insert(left_hand, parallel_box1, gear3, shaft2)</title>
<path fill="none" stroke="black" d="M636.93,-223.56C691.11,-212.27 782.72,-193.19 848.63,-179.45"/>
<polygon fill="black" stroke="black" points="849.5,-182.85 858.57,-177.38 848.07,-176 849.5,-182.85"/>
</g>
<!-- check left_hand hold parallel_box1 -->
<g id="node5" class="node">
<title>check left_hand hold parallel_box1</title>
<ellipse fill="gray" stroke="black" cx="133.61" cy="-90" rx="102.54" ry="18"/>
<text text-anchor="middle" x="133.61" y="-87.8" font-family="Times,serif" font-size="9.00">check left_hand hold parallel_box1</text>
</g>
<!-- load_tool selector&#45;&gt;check left_hand hold parallel_box1 -->
<g id="edge4" class="edge">
<title>load_tool selector&#45;&gt;check left_hand hold parallel_box1</title>
<path fill="none" stroke="black" d="M272.4,-146.83C246.44,-136.39 210.8,-122.05 182.14,-110.52"/>
<polygon fill="black" stroke="black" points="183.3,-107.22 172.71,-106.73 180.68,-113.71 183.3,-107.22"/>
</g>
<!-- load_tool Sequence -->
<g id="node6" class="node">
<title>load_tool Sequence</title>
<polygon fill="orange" stroke="black" points="360.61,-108 254.61,-108 254.61,-72 360.61,-72 360.61,-108"/>
<text text-anchor="middle" x="307.61" y="-87.8" font-family="Times,serif" font-size="9.00">load_tool Sequence</text>
</g>
<!-- load_tool selector&#45;&gt;load_tool Sequence -->
<g id="edge5" class="edge">
<title>load_tool selector&#45;&gt;load_tool Sequence</title>
<path fill="none" stroke="black" d="M307.61,-143.7C307.61,-135.98 307.61,-126.71 307.61,-118.11"/>
<polygon fill="black" stroke="black" points="311.11,-118.1 307.61,-108.1 304.11,-118.1 311.11,-118.1"/>
</g>
<!-- check parallel_box1 is_equippable -->
<g id="node7" class="node">
<title>check parallel_box1 is_equippable</title>
<ellipse fill="gray" stroke="black" cx="101.61" cy="-18" rx="101.73" ry="18"/>
<text text-anchor="middle" x="101.61" y="-15.8" font-family="Times,serif" font-size="9.00">check parallel_box1 is_equippable</text>
</g>
<!-- load_tool Sequence&#45;&gt;check parallel_box1 is_equippable -->
<g id="edge6" class="edge">
<title>load_tool Sequence&#45;&gt;check parallel_box1 is_equippable</title>
<path fill="none" stroke="black" d="M257.48,-71.97C226.72,-61.51 187.33,-48.13 155.85,-37.43"/>
<polygon fill="black" stroke="black" points="156.94,-34.1 146.35,-34.2 154.69,-40.73 156.94,-34.1"/>
</g>
<!-- check left_hand is_free -->
<g id="node8" class="node">
<title>check left_hand is_free</title>
<ellipse fill="gray" stroke="black" cx="291.61" cy="-18" rx="70.37" ry="18"/>
<text text-anchor="middle" x="291.61" y="-15.8" font-family="Times,serif" font-size="9.00">check left_hand is_free</text>
</g>
<!-- load_tool Sequence&#45;&gt;check left_hand is_free -->
<g id="edge7" class="edge">
<title>load_tool Sequence&#45;&gt;check left_hand is_free</title>
<path fill="none" stroke="black" d="M303.66,-71.7C301.9,-63.98 299.78,-54.71 297.81,-46.11"/>
<polygon fill="black" stroke="black" points="301.16,-45.07 295.52,-36.1 294.34,-46.63 301.16,-45.07"/>
</g>
<!-- load_tool(left_hand, parallel_box1) -->
<g id="node9" class="node">
<title>load_tool(left_hand, parallel_box1)</title>
<ellipse fill="gray" stroke="black" cx="481.61" cy="-18" rx="101.73" ry="18"/>
<text text-anchor="middle" x="481.61" y="-15.8" font-family="Times,serif" font-size="9.00">load_tool(left_hand, parallel_box1)</text>
</g>
<!-- load_tool Sequence&#45;&gt;load_tool(left_hand, parallel_box1) -->
<g id="edge8" class="edge">
<title>load_tool Sequence&#45;&gt;load_tool(left_hand, parallel_box1)</title>
<path fill="none" stroke="black" d="M350.18,-71.88C375.36,-61.75 407.33,-48.89 433.43,-38.38"/>
<polygon fill="black" stroke="black" points="434.79,-41.61 442.76,-34.63 432.17,-35.12 434.79,-41.61"/>
</g>
<!-- check parallel_box1 hold gear3 -->
<g id="node11" class="node">
<title>check parallel_box1 hold gear3</title>
<ellipse fill="gray" stroke="black" cx="504.61" cy="-90" rx="93.56" ry="18"/>
<text text-anchor="middle" x="504.61" y="-87.8" font-family="Times,serif" font-size="9.00">check parallel_box1 hold gear3</text>
</g>
<!-- pick_up selector&#45;&gt;check parallel_box1 hold gear3 -->
<g id="edge10" class="edge">
<title>pick_up selector&#45;&gt;check parallel_box1 hold gear3</title>
<path fill="none" stroke="black" d="M504.61,-143.7C504.61,-135.98 504.61,-126.71 504.61,-118.11"/>
<polygon fill="black" stroke="black" points="508.11,-118.1 504.61,-108.1 501.11,-118.1 508.11,-118.1"/>
</g>
<!-- pick_up Sequence -->
<g id="node12" class="node">
<title>pick_up Sequence</title>
<polygon fill="orange" stroke="black" points="836.11,-108 735.11,-108 735.11,-72 836.11,-72 836.11,-108"/>
<text text-anchor="middle" x="785.61" y="-87.8" font-family="Times,serif" font-size="9.00">pick_up Sequence</text>
</g>
<!-- pick_up selector&#45;&gt;pick_up Sequence -->
<g id="edge11" class="edge">
<title>pick_up selector&#45;&gt;pick_up Sequence</title>
<path fill="none" stroke="black" d="M547.85,-149.99C555.76,-147.99 563.93,-145.93 571.61,-144 623.45,-131 682.4,-116.42 725.29,-105.84"/>
<polygon fill="black" stroke="black" points="726.13,-109.24 735,-103.45 724.46,-102.44 726.13,-109.24"/>
</g>
<!-- check parallel_box1 is_free -->
<g id="node13" class="node">
<title>check parallel_box1 is_free</title>
<ellipse fill="gray" stroke="black" cx="683.61" cy="-18" rx="81.97" ry="18"/>
<text text-anchor="middle" x="683.61" y="-15.8" font-family="Times,serif" font-size="9.00">check parallel_box1 is_free</text>
</g>
<!-- pick_up Sequence&#45;&gt;check parallel_box1 is_free -->
<g id="edge12" class="edge">
<title>pick_up Sequence&#45;&gt;check parallel_box1 is_free</title>
<path fill="none" stroke="black" d="M760.66,-71.88C747.28,-62.69 730.63,-51.26 716.23,-41.38"/>
<polygon fill="black" stroke="black" points="717.83,-38.24 707.61,-35.47 713.87,-44.01 717.83,-38.24"/>
</g>
<!-- check left_hand hold parallel_box1* -->
<g id="node14" class="node">
<title>check left_hand hold parallel_box1*</title>
<ellipse fill="gray" stroke="black" cx="888.61" cy="-18" rx="105.16" ry="18"/>
<text text-anchor="middle" x="888.61" y="-15.8" font-family="Times,serif" font-size="9.00">check left_hand hold parallel_box1*</text>
</g>
<!-- pick_up Sequence&#45;&gt;check left_hand hold parallel_box1* -->
<g id="edge13" class="edge">
<title>pick_up Sequence&#45;&gt;check left_hand hold parallel_box1*</title>
<path fill="none" stroke="black" d="M810.81,-71.88C824.23,-62.76 840.9,-51.43 855.36,-41.6"/>
<polygon fill="black" stroke="black" points="857.73,-44.22 864.03,-35.71 853.79,-38.43 857.73,-44.22"/>
</g>
<!-- pickup(left_hand, gear3, parallel_box1) -->
<g id="node15" class="node">
<title>pickup(left_hand, gear3, parallel_box1)</title>
<ellipse fill="gray" stroke="black" cx="1127.61" cy="-18" rx="115.44" ry="18"/>
<text text-anchor="middle" x="1127.61" y="-15.8" font-family="Times,serif" font-size="9.00">pickup(left_hand, gear3, parallel_box1)</text>
</g>
<!-- pick_up Sequence&#45;&gt;pickup(left_hand, gear3, parallel_box1) -->
<g id="edge14" class="edge">
<title>pick_up Sequence&#45;&gt;pickup(left_hand, gear3, parallel_box1)</title>
<path fill="none" stroke="black" d="M836.45,-78.6C893.08,-67 985.28,-48.13 1050.74,-34.73"/>
<polygon fill="black" stroke="black" points="1051.51,-38.15 1060.61,-32.71 1050.11,-31.29 1051.51,-38.15"/>
</g>
</g>
</svg>
