<?xml version="1.0" encoding="UTF-8" standalone="no"?>
<!DOCTYPE svg PUBLIC "-//W3C//DTD SVG 1.1//EN"
 "http://www.w3.org/Graphics/SVG/1.1/DTD/svg11.dtd">
<!-- Generated by graphviz version 2.43.0 (0)
 -->
<!-- Title: pastafarianism Pages: 1 -->
<svg width="1260pt" height="332pt"
 viewBox="0.00 0.00 1260.31 332.00" xmlns="http://www.w3.org/2000/svg" xmlns:xlink="http://www.w3.org/1999/xlink">
<g id="graph0" class="graph" transform="scale(1 1) rotate(0) translate(4 328)">
<title>pastafarianism</title>
<polygon fill="white" stroke="transparent" points="-4,4 -4,-328 1256.31,-328 1256.31,4 -4,4"/>
<!-- insert gear3 into shaft2 selector -->
<g id="node1" class="node">
<title>insert gear3 into shaft2 selector</title>
<polygon fill="cyan" stroke="black" points="582.7,-298.54 582.7,-313.46 521.79,-324 435.66,-324 374.75,-313.46 374.75,-298.54 435.66,-288 521.79,-288 582.7,-298.54"/>
<text text-anchor="middle" x="478.73" y="-303.8" font-family="Times,serif" font-size="9.00">insert gear3 into shaft2 selector</text>
</g>
<!-- check gear3 is_inserted_to shaft2 -->
<g id="node2" class="node">
<title>check gear3 is_inserted_to shaft2</title>
<ellipse fill="gray" stroke="black" cx="376.73" cy="-234" rx="99.11" ry="18"/>
<text text-anchor="middle" x="376.73" y="-231.8" font-family="Times,serif" font-size="9.00">check gear3 is_inserted_to shaft2</text>
</g>
<!-- insert gear3 into shaft2 selector&#45;&gt;check gear3 is_inserted_to shaft2 -->
<g id="edge1" class="edge">
<title>insert gear3 into shaft2 selector&#45;&gt;check gear3 is_inserted_to shaft2</title>
<path fill="none" stroke="black" d="M453.77,-287.88C440.49,-278.76 423.98,-267.43 409.66,-257.6"/>
<polygon fill="black" stroke="black" points="411.29,-254.48 401.07,-251.71 407.33,-260.25 411.29,-254.48"/>
</g>
<!-- insert gear3 into shaft2 sequence -->
<g id="node3" class="node">
<title>insert gear3 into shaft2 sequence</title>
<polygon fill="orange" stroke="black" points="667.23,-252 494.23,-252 494.23,-216 667.23,-216 667.23,-252"/>
<text text-anchor="middle" x="580.73" y="-231.8" font-family="Times,serif" font-size="9.00">insert gear3 into shaft2 sequence</text>
</g>
<!-- insert gear3 into shaft2 selector&#45;&gt;insert gear3 into shaft2 sequence -->
<g id="edge2" class="edge">
<title>insert gear3 into shaft2 selector&#45;&gt;insert gear3 into shaft2 sequence</title>
<path fill="none" stroke="black" d="M503.68,-287.88C516.77,-278.89 532.99,-267.76 547.16,-258.03"/>
<polygon fill="black" stroke="black" points="549.41,-260.73 555.68,-252.19 545.45,-254.96 549.41,-260.73"/>
</g>
<!-- load_tool selector -->
<g id="node4" class="node">
<title>load_tool selector</title>
<polygon fill="cyan" stroke="black" points="363.21,-154.54 363.21,-169.46 327.19,-180 276.26,-180 240.24,-169.46 240.24,-154.54 276.26,-144 327.19,-144 363.21,-154.54"/>
<text text-anchor="middle" x="301.73" y="-159.8" font-family="Times,serif" font-size="9.00">load_tool selector</text>
</g>
<!-- insert gear3 into shaft2 sequence&#45;&gt;load_tool selector -->
<g id="edge3" class="edge">
<title>insert gear3 into shaft2 sequence&#45;&gt;load_tool selector</title>
<path fill="none" stroke="black" d="M512.83,-215.97C464.85,-203.93 401.35,-188 356.57,-176.76"/>
<polygon fill="black" stroke="black" points="357.3,-173.33 346.75,-174.3 355.59,-180.12 357.3,-173.33"/>
</g>
<!-- pickup selector -->
<g id="node10" class="node">
<title>pickup selector</title>
<polygon fill="cyan" stroke="black" points="550.71,-154.54 550.71,-169.46 518.5,-180 472.95,-180 440.74,-169.46 440.74,-154.54 472.95,-144 518.5,-144 550.71,-154.54"/>
<text text-anchor="middle" x="495.73" y="-159.8" font-family="Times,serif" font-size="9.00">pickup selector</text>
</g>
<!-- insert gear3 into shaft2 sequence&#45;&gt;pickup selector -->
<g id="edge9" class="edge">
<title>insert gear3 into shaft2 sequence&#45;&gt;pickup selector</title>
<path fill="none" stroke="black" d="M559.72,-215.7C549.01,-206.88 535.84,-196.03 524.23,-186.47"/>
<polygon fill="black" stroke="black" points="526.44,-183.76 516.5,-180.1 521.99,-189.16 526.44,-183.76"/>
</g>
<!-- check gear3 can_insert_to shaft2 -->
<g id="node16" class="node">
<title>check gear3 can_insert_to shaft2</title>
<ellipse fill="gray" stroke="black" cx="666.73" cy="-162" rx="98.3" ry="18"/>
<text text-anchor="middle" x="666.73" y="-159.8" font-family="Times,serif" font-size="9.00">check gear3 can_insert_to shaft2</text>
</g>
<!-- insert gear3 into shaft2 sequence&#45;&gt;check gear3 can_insert_to shaft2 -->
<g id="edge15" class="edge">
<title>insert gear3 into shaft2 sequence&#45;&gt;check gear3 can_insert_to shaft2</title>
<path fill="none" stroke="black" d="M601.99,-215.7C612.98,-206.75 626.54,-195.71 638.41,-186.05"/>
<polygon fill="black" stroke="black" points="640.76,-188.65 646.31,-179.62 636.34,-183.22 640.76,-188.65"/>
</g>
<!-- insert(left_hand, inward_claw, gear3, shaft2) -->
<g id="node17" class="node">
<title>insert(left_hand, inward_claw, gear3, shaft2)</title>
<ellipse fill="gray" stroke="black" cx="911.73" cy="-162" rx="129.15" ry="18"/>
<text text-anchor="middle" x="911.73" y="-159.8" font-family="Times,serif" font-size="9.00">insert(left_hand, inward_claw, gear3, shaft2)</text>
</g>
<!-- insert gear3 into shaft2 sequence&#45;&gt;insert(left_hand, inward_claw, gear3, shaft2) -->
<g id="edge16" class="edge">
<title>insert gear3 into shaft2 sequence&#45;&gt;insert(left_hand, inward_claw, gear3, shaft2)</title>
<path fill="none" stroke="black" d="M661.28,-215.97C713.77,-204.86 781.91,-190.45 833.86,-179.47"/>
<polygon fill="black" stroke="black" points="834.63,-182.88 843.69,-177.39 833.18,-176.03 834.63,-182.88"/>
</g>
<!-- check left_hand hold inward_claw -->
<g id="node5" class="node">
<title>check left_hand hold inward_claw</title>
<ellipse fill="gray" stroke="black" cx="131.73" cy="-90" rx="99.76" ry="18"/>
<text text-anchor="middle" x="131.73" y="-87.8" font-family="Times,serif" font-size="9.00">check left_hand hold inward_claw</text>
</g>
<!-- load_tool selector&#45;&gt;check left_hand hold inward_claw -->
<g id="edge4" class="edge">
<title>load_tool selector&#45;&gt;check left_hand hold inward_claw</title>
<path fill="none" stroke="black" d="M266.91,-146.67C241.63,-136.25 207.11,-122.04 179.28,-110.58"/>
<polygon fill="black" stroke="black" points="180.32,-107.23 169.75,-106.65 177.66,-113.7 180.32,-107.23"/>
</g>
<!-- load_tool sequence -->
<g id="node6" class="node">
<title>load_tool sequence</title>
<polygon fill="orange" stroke="black" points="353.73,-108 249.73,-108 249.73,-72 353.73,-72 353.73,-108"/>
<text text-anchor="middle" x="301.73" y="-87.8" font-family="Times,serif" font-size="9.00">load_tool sequence</text>
</g>
<!-- load_tool selector&#45;&gt;load_tool sequence -->
<g id="edge5" class="edge">
<title>load_tool selector&#45;&gt;load_tool sequence</title>
<path fill="none" stroke="black" d="M301.73,-143.7C301.73,-135.98 301.73,-126.71 301.73,-118.11"/>
<polygon fill="black" stroke="black" points="305.23,-118.1 301.73,-108.1 298.23,-118.1 305.23,-118.1"/>
</g>
<!-- check inward_claw is_equippable -->
<g id="node7" class="node">
<title>check inward_claw is_equippable</title>
<ellipse fill="gray" stroke="black" cx="98.73" cy="-18" rx="98.95" ry="18"/>
<text text-anchor="middle" x="98.73" y="-15.8" font-family="Times,serif" font-size="9.00">check inward_claw is_equippable</text>
</g>
<!-- load_tool sequence&#45;&gt;check inward_claw is_equippable -->
<g id="edge6" class="edge">
<title>load_tool sequence&#45;&gt;check inward_claw is_equippable</title>
<path fill="none" stroke="black" d="M252.33,-71.97C222.15,-61.56 183.53,-48.24 152.57,-37.57"/>
<polygon fill="black" stroke="black" points="153.4,-34.15 142.81,-34.2 151.12,-40.77 153.4,-34.15"/>
</g>
<!-- check left_hand is_free -->
<g id="node8" class="node">
<title>check left_hand is_free</title>
<ellipse fill="gray" stroke="black" cx="285.73" cy="-18" rx="70.37" ry="18"/>
<text text-anchor="middle" x="285.73" y="-15.8" font-family="Times,serif" font-size="9.00">check left_hand is_free</text>
</g>
<!-- load_tool sequence&#45;&gt;check left_hand is_free -->
<g id="edge7" class="edge">
<title>load_tool sequence&#45;&gt;check left_hand is_free</title>
<path fill="none" stroke="black" d="M297.77,-71.7C296.01,-63.98 293.89,-54.71 291.92,-46.11"/>
<polygon fill="black" stroke="black" points="295.28,-45.07 289.64,-36.1 288.45,-46.63 295.28,-45.07"/>
</g>
<!-- load_tool(left_hand, inward_claw) -->
<g id="node9" class="node">
<title>load_tool(left_hand, inward_claw)</title>
<ellipse fill="gray" stroke="black" cx="473.73" cy="-18" rx="99.11" ry="18"/>
<text text-anchor="middle" x="473.73" y="-15.8" font-family="Times,serif" font-size="9.00">load_tool(left_hand, inward_claw)</text>
</g>
<!-- load_tool sequence&#45;&gt;load_tool(left_hand, inward_claw) -->
<g id="edge8" class="edge">
<title>load_tool sequence&#45;&gt;load_tool(left_hand, inward_claw)</title>
<path fill="none" stroke="black" d="M343.8,-71.88C368.58,-61.79 400.02,-49 425.76,-38.52"/>
<polygon fill="black" stroke="black" points="427.37,-41.64 435.32,-34.63 424.73,-35.16 427.37,-41.64"/>
</g>
<!-- check inward_claw hold gear3 -->
<g id="node11" class="node">
<title>check inward_claw hold gear3</title>
<ellipse fill="gray" stroke="black" cx="495.73" cy="-90" rx="91.44" ry="18"/>
<text text-anchor="middle" x="495.73" y="-87.8" font-family="Times,serif" font-size="9.00">check inward_claw hold gear3</text>
</g>
<!-- pickup selector&#45;&gt;check inward_claw hold gear3 -->
<g id="edge10" class="edge">
<title>pickup selector&#45;&gt;check inward_claw hold gear3</title>
<path fill="none" stroke="black" d="M495.73,-143.7C495.73,-135.98 495.73,-126.71 495.73,-118.11"/>
<polygon fill="black" stroke="black" points="499.23,-118.1 495.73,-108.1 492.23,-118.1 499.23,-118.1"/>
</g>
<!-- pickup sequence -->
<g id="node12" class="node">
<title>pickup sequence</title>
<polygon fill="orange" stroke="black" points="826.23,-108 731.23,-108 731.23,-72 826.23,-72 826.23,-108"/>
<text text-anchor="middle" x="778.73" y="-87.8" font-family="Times,serif" font-size="9.00">pickup sequence</text>
</g>
<!-- pickup selector&#45;&gt;pickup sequence -->
<g id="edge11" class="edge">
<title>pickup selector&#45;&gt;pickup sequence</title>
<path fill="none" stroke="black" d="M537.01,-149.89C544.56,-147.9 552.37,-145.87 559.73,-144 614.25,-130.16 676.62,-115.15 720.82,-104.64"/>
<polygon fill="black" stroke="black" points="721.88,-107.99 730.8,-102.27 720.27,-101.18 721.88,-107.99"/>
</g>
<!-- check inward_claw is_free -->
<g id="node13" class="node">
<title>check inward_claw is_free</title>
<ellipse fill="gray" stroke="black" cx="669.73" cy="-18" rx="79.19" ry="18"/>
<text text-anchor="middle" x="669.73" y="-15.8" font-family="Times,serif" font-size="9.00">check inward_claw is_free</text>
</g>
<!-- pickup sequence&#45;&gt;check inward_claw is_free -->
<g id="edge12" class="edge">
<title>pickup sequence&#45;&gt;check inward_claw is_free</title>
<path fill="none" stroke="black" d="M752.06,-71.88C737.52,-62.54 719.37,-50.88 703.81,-40.89"/>
<polygon fill="black" stroke="black" points="705.3,-37.68 694.99,-35.23 701.52,-43.57 705.3,-37.68"/>
</g>
<!-- check inward_claw can_manipulate gear3 -->
<g id="node14" class="node">
<title>check inward_claw can_manipulate gear3</title>
<ellipse fill="gray" stroke="black" cx="887.73" cy="-18" rx="121.49" ry="18"/>
<text text-anchor="middle" x="887.73" y="-15.8" font-family="Times,serif" font-size="9.00">check inward_claw can_manipulate gear3</text>
</g>
<!-- pickup sequence&#45;&gt;check inward_claw can_manipulate gear3 -->
<g id="edge13" class="edge">
<title>pickup sequence&#45;&gt;check inward_claw can_manipulate gear3</title>
<path fill="none" stroke="black" d="M805.39,-71.88C819.72,-62.67 837.56,-51.22 852.97,-41.32"/>
<polygon fill="black" stroke="black" points="855.19,-44.05 861.71,-35.71 851.41,-38.16 855.19,-44.05"/>
</g>
<!-- pickup(left_hand, gear3, inward_claw) -->
<g id="node15" class="node">
<title>pickup(left_hand, gear3, inward_claw)</title>
<ellipse fill="gray" stroke="black" cx="1139.73" cy="-18" rx="112.67" ry="18"/>
<text text-anchor="middle" x="1139.73" y="-15.8" font-family="Times,serif" font-size="9.00">pickup(left_hand, gear3, inward_claw)</text>
</g>
<!-- pickup sequence&#45;&gt;pickup(left_hand, gear3, inward_claw) -->
<g id="edge14" class="edge">
<title>pickup sequence&#45;&gt;pickup(left_hand, gear3, inward_claw)</title>
<path fill="none" stroke="black" d="M826.29,-79.78C886.09,-68.18 989.56,-48.12 1061.17,-34.23"/>
<polygon fill="black" stroke="black" points="1061.91,-37.66 1071.06,-32.32 1060.57,-30.78 1061.91,-37.66"/>
</g>
</g>
</svg>
