<?xml version="1.0" encoding="UTF-8" standalone="no"?>
<!DOCTYPE svg PUBLIC "-//W3C//DTD SVG 1.1//EN"
 "http://www.w3.org/Graphics/SVG/1.1/DTD/svg11.dtd">
<!-- Generated by graphviz version 2.43.0 (0)
 -->
<!-- Title: pastafarianism Pages: 1 -->
<svg width="427pt" height="404pt"
 viewBox="0.00 0.00 427.27 404.00" xmlns="http://www.w3.org/2000/svg" xmlns:xlink="http://www.w3.org/1999/xlink">
<g id="graph0" class="graph" transform="scale(1 1) rotate(0) translate(4 400)">
<title>pastafarianism</title>
<polygon fill="white" stroke="transparent" points="-4,4 -4,-400 423.27,-400 423.27,4 -4,4"/>
<!-- tree_root -->
<g id="node1" class="node">
<title>tree_root</title>
<polygon fill="cyan" stroke="black" points="210.79,-370.54 210.79,-385.46 189.26,-396 158.83,-396 137.3,-385.46 137.3,-370.54 158.83,-360 189.26,-360 210.79,-370.54"/>
<text text-anchor="middle" x="174.04" y="-375.8" font-family="Times,serif" font-size="9.00">tree_root</text>
</g>
<!-- pick up cube selector -->
<g id="node2" class="node">
<title>pick up cube selector</title>
<polygon fill="cyan" stroke="black" points="246.53,-298.54 246.53,-313.46 204.07,-324 144.02,-324 101.56,-313.46 101.56,-298.54 144.02,-288 204.07,-288 246.53,-298.54"/>
<text text-anchor="middle" x="174.04" y="-303.8" font-family="Times,serif" font-size="9.00">pick up cube selector</text>
</g>
<!-- tree_root&#45;&gt;pick up cube selector -->
<g id="edge1" class="edge">
<title>tree_root&#45;&gt;pick up cube selector</title>
<path fill="none" stroke="black" d="M174.04,-359.7C174.04,-351.98 174.04,-342.71 174.04,-334.11"/>
<polygon fill="black" stroke="black" points="177.54,-334.1 174.04,-324.1 170.54,-334.1 177.54,-334.1"/>
</g>
<!-- isInHand&#45;cube1 -->
<g id="node3" class="node">
<title>isInHand&#45;cube1</title>
<ellipse fill="gray" stroke="black" cx="101.04" cy="-234" rx="51.92" ry="18"/>
<text text-anchor="middle" x="101.04" y="-231.8" font-family="Times,serif" font-size="9.00">isInHand&#45;cube1</text>
</g>
<!-- pick up cube selector&#45;&gt;isInHand&#45;cube1 -->
<g id="edge2" class="edge">
<title>pick up cube selector&#45;&gt;isInHand&#45;cube1</title>
<path fill="none" stroke="black" d="M156,-287.7C146.71,-278.79 135.26,-267.81 125.22,-258.19"/>
<polygon fill="black" stroke="black" points="127.52,-255.54 117.88,-251.14 122.68,-260.59 127.52,-255.54"/>
</g>
<!-- pick up cube sequence -->
<g id="node4" class="node">
<title>pick up cube sequence</title>
<polygon fill="cyan" stroke="black" points="324.77,-226.54 324.77,-241.46 279.83,-252 216.26,-252 171.31,-241.46 171.31,-226.54 216.26,-216 279.83,-216 324.77,-226.54"/>
<text text-anchor="middle" x="248.04" y="-231.8" font-family="Times,serif" font-size="9.00">pick up cube sequence</text>
</g>
<!-- pick up cube selector&#45;&gt;pick up cube sequence -->
<g id="edge3" class="edge">
<title>pick up cube selector&#45;&gt;pick up cube sequence</title>
<path fill="none" stroke="black" d="M192.34,-287.7C201.48,-279.05 212.68,-268.45 222.64,-259.03"/>
<polygon fill="black" stroke="black" points="225.1,-261.52 229.96,-252.1 220.29,-256.43 225.1,-261.52"/>
</g>
<!-- load the tool -->
<g id="node5" class="node">
<title>load the tool</title>
<polygon fill="cyan" stroke="black" points="177.53,-154.54 177.53,-169.46 150.3,-180 111.79,-180 84.56,-169.46 84.56,-154.54 111.79,-144 150.3,-144 177.53,-154.54"/>
<text text-anchor="middle" x="131.04" y="-159.8" font-family="Times,serif" font-size="9.00">load the tool</text>
</g>
<!-- pick up cube sequence&#45;&gt;load the tool -->
<g id="edge4" class="edge">
<title>pick up cube sequence&#45;&gt;load the tool</title>
<path fill="none" stroke="black" d="M219.42,-215.88C202.95,-206.02 182.15,-193.57 164.87,-183.24"/>
<polygon fill="black" stroke="black" points="166.57,-180.18 156.19,-178.05 162.98,-186.18 166.57,-180.18"/>
</g>
<!-- isInTool&#45;nothing -->
<g id="node10" class="node">
<title>isInTool&#45;nothing</title>
<ellipse fill="gray" stroke="black" cx="248.04" cy="-162" rx="53.23" ry="18"/>
<text text-anchor="middle" x="248.04" y="-159.8" font-family="Times,serif" font-size="9.00">isInTool&#45;nothing</text>
</g>
<!-- pick up cube sequence&#45;&gt;isInTool&#45;nothing -->
<g id="edge9" class="edge">
<title>pick up cube sequence&#45;&gt;isInTool&#45;nothing</title>
<path fill="none" stroke="black" d="M248.04,-215.7C248.04,-207.98 248.04,-198.71 248.04,-190.11"/>
<polygon fill="black" stroke="black" points="251.54,-190.1 248.04,-180.1 244.54,-190.1 251.54,-190.1"/>
</g>
<!-- ToolPick&#45;cube1 -->
<g id="node11" class="node">
<title>ToolPick&#45;cube1</title>
<ellipse fill="gray" stroke="black" cx="369.04" cy="-162" rx="50.46" ry="18"/>
<text text-anchor="middle" x="369.04" y="-159.8" font-family="Times,serif" font-size="9.00">ToolPick&#45;cube1</text>
</g>
<!-- pick up cube sequence&#45;&gt;ToolPick&#45;cube1 -->
<g id="edge10" class="edge">
<title>pick up cube sequence&#45;&gt;ToolPick&#45;cube1</title>
<path fill="none" stroke="black" d="M277.64,-215.88C294.92,-205.88 316.8,-193.23 334.81,-182.8"/>
<polygon fill="black" stroke="black" points="336.94,-185.62 343.84,-177.58 333.43,-179.56 336.94,-185.62"/>
</g>
<!-- IsToolLoaded&#45;tool1 -->
<g id="node6" class="node">
<title>IsToolLoaded&#45;tool1</title>
<ellipse fill="gray" stroke="black" cx="60.04" cy="-90" rx="60.09" ry="18"/>
<text text-anchor="middle" x="60.04" y="-87.8" font-family="Times,serif" font-size="9.00">IsToolLoaded&#45;tool1</text>
</g>
<!-- load the tool&#45;&gt;IsToolLoaded&#45;tool1 -->
<g id="edge5" class="edge">
<title>load the tool&#45;&gt;IsToolLoaded&#45;tool1</title>
<path fill="none" stroke="black" d="M113.49,-143.7C104.68,-135.01 93.86,-124.34 84.27,-114.89"/>
<polygon fill="black" stroke="black" points="86.48,-112.15 76.9,-107.62 81.57,-117.14 86.48,-112.15"/>
</g>
<!-- load tool sequence -->
<g id="node7" class="node">
<title>load tool sequence</title>
<polygon fill="cyan" stroke="black" points="266.28,-82.54 266.28,-97.46 228.65,-108 175.44,-108 137.81,-97.46 137.81,-82.54 175.44,-72 228.65,-72 266.28,-82.54"/>
<text text-anchor="middle" x="202.04" y="-87.8" font-family="Times,serif" font-size="9.00">load tool sequence</text>
</g>
<!-- load the tool&#45;&gt;load tool sequence -->
<g id="edge6" class="edge">
<title>load the tool&#45;&gt;load tool sequence</title>
<path fill="none" stroke="black" d="M148.59,-143.7C157.28,-135.14 167.91,-124.66 177.39,-115.3"/>
<polygon fill="black" stroke="black" points="180.03,-117.62 184.7,-108.1 175.12,-112.63 180.03,-117.62"/>
</g>
<!-- isInHand&#45;nothing -->
<g id="node8" class="node">
<title>isInHand&#45;nothing</title>
<ellipse fill="gray" stroke="black" cx="140.04" cy="-18" rx="56.66" ry="18"/>
<text text-anchor="middle" x="140.04" y="-15.8" font-family="Times,serif" font-size="9.00">isInHand&#45;nothing</text>
</g>
<!-- load tool sequence&#45;&gt;isInHand&#45;nothing -->
<g id="edge7" class="edge">
<title>load tool sequence&#45;&gt;isInHand&#45;nothing</title>
<path fill="none" stroke="black" d="M186.72,-71.7C179.1,-63.09 169.76,-52.55 161.45,-43.17"/>
<polygon fill="black" stroke="black" points="164.02,-40.79 154.77,-35.62 158.78,-45.43 164.02,-40.79"/>
</g>
<!-- ToolLoad&#45;tool1 -->
<g id="node9" class="node">
<title>ToolLoad&#45;tool1</title>
<ellipse fill="gray" stroke="black" cx="264.04" cy="-18" rx="49.15" ry="18"/>
<text text-anchor="middle" x="264.04" y="-15.8" font-family="Times,serif" font-size="9.00">ToolLoad&#45;tool1</text>
</g>
<!-- load tool sequence&#45;&gt;ToolLoad&#45;tool1 -->
<g id="edge8" class="edge">
<title>load tool sequence&#45;&gt;ToolLoad&#45;tool1</title>
<path fill="none" stroke="black" d="M217.37,-71.7C224.99,-63.09 234.33,-52.55 242.64,-43.17"/>
<polygon fill="black" stroke="black" points="245.31,-45.43 249.32,-35.62 240.07,-40.79 245.31,-45.43"/>
</g>
</g>
</svg>
