<?xml version="1.0" encoding="UTF-8" standalone="no"?>
<!DOCTYPE svg PUBLIC "-//W3C//DTD SVG 1.1//EN"
 "http://www.w3.org/Graphics/SVG/1.1/DTD/svg11.dtd">
<!-- Generated by graphviz version 2.43.0 (0)
 -->
<!-- Title: pastafarianism Pages: 1 -->
<svg width="1992pt" height="503pt"
 viewBox="0.00 0.00 1991.74 502.60" xmlns="http://www.w3.org/2000/svg" xmlns:xlink="http://www.w3.org/1999/xlink">
<g id="graph0" class="graph" transform="scale(1 1) rotate(0) translate(4 498.6)">
<title>pastafarianism</title>
<polygon fill="white" stroke="transparent" points="-4,4 -4,-498.6 1987.74,-498.6 1987.74,4 -4,4"/>
<!-- selector:
 screw(left_hand, clampgripper, lampbulb, lampbase) -->
<g id="node1" class="node">
<title>selector:
 screw(left_hand, clampgripper, lampbulb, lampbase)</title>
<polygon fill="#8deeee" stroke="black" points="1180.05,-442.54 1180.05,-473.18 955.77,-494.84 638.59,-494.84 414.32,-473.18 414.32,-442.54 638.59,-420.88 955.77,-420.88 1180.05,-442.54"/>
<text text-anchor="middle" x="797.18" y="-463.46" font-family="Times,serif" font-size="18.00">selector:</text>
<text text-anchor="middle" x="797.18" y="-443.46" font-family="Times,serif" font-size="18.00"> screw(left_hand, clampgripper, lampbulb, lampbase)</text>
</g>
<!-- target:
 is_screwed_to(lampbulb, lampbase) -->
<g id="node2" class="node">
<title>target:
 is_screwed_to(lampbulb, lampbase)</title>
<ellipse fill="#ffec8b" stroke="black" cx="541.18" cy="-351.18" rx="243.9" ry="33.88"/>
<text text-anchor="middle" x="541.18" y="-356.78" font-family="Times,serif" font-size="18.00">target:</text>
<text text-anchor="middle" x="541.18" y="-336.78" font-family="Times,serif" font-size="18.00"> is_screwed_to(lampbulb, lampbase)</text>
</g>
<!-- selector:
 screw(left_hand, clampgripper, lampbulb, lampbase)&#45;&gt;target:
 is_screwed_to(lampbulb, lampbase) -->
<g id="edge1" class="edge">
<title>selector:
 screw(left_hand, clampgripper, lampbulb, lampbase)&#45;&gt;target:
 is_screwed_to(lampbulb, lampbase)</title>
<path fill="none" stroke="black" d="M709.44,-420.98C682.77,-410.08 653.5,-398.11 626.96,-387.26"/>
<polygon fill="black" stroke="black" points="628.27,-384.01 617.69,-383.47 625.63,-390.49 628.27,-384.01"/>
</g>
<!-- sequence:
 screw(left_hand, clampgripper, lampbulb, lampbase) -->
<g id="node3" class="node">
<title>sequence:
 screw(left_hand, clampgripper, lampbulb, lampbase)</title>
<polygon fill="#ff7f24" stroke="black" points="1303.18,-375.18 803.18,-375.18 803.18,-327.18 1303.18,-327.18 1303.18,-375.18"/>
<text text-anchor="middle" x="1053.18" y="-356.78" font-family="Times,serif" font-size="18.00">sequence:</text>
<text text-anchor="middle" x="1053.18" y="-336.78" font-family="Times,serif" font-size="18.00"> screw(left_hand, clampgripper, lampbulb, lampbase)</text>
</g>
<!-- selector:
 screw(left_hand, clampgripper, lampbulb, lampbase)&#45;&gt;sequence:
 screw(left_hand, clampgripper, lampbulb, lampbase) -->
<g id="edge2" class="edge">
<title>selector:
 screw(left_hand, clampgripper, lampbulb, lampbase)&#45;&gt;sequence:
 screw(left_hand, clampgripper, lampbulb, lampbase)</title>
<path fill="none" stroke="black" d="M884.92,-420.98C918.5,-407.25 956.2,-391.84 987.39,-379.09"/>
<polygon fill="black" stroke="black" points="988.91,-382.24 996.84,-375.22 986.26,-375.76 988.91,-382.24"/>
</g>
<!-- selector:
 change_tool(left_hand, defaultgripper, clampgripper) -->
<g id="node4" class="node">
<title>selector:
 change_tool(left_hand, defaultgripper, clampgripper)</title>
<polygon fill="#8deeee" stroke="black" points="829.61,-229.19 829.61,-259.82 604.42,-281.48 285.95,-281.48 60.75,-259.82 60.75,-229.19 285.95,-207.53 604.42,-207.53 829.61,-229.19"/>
<text text-anchor="middle" x="445.18" y="-250.1" font-family="Times,serif" font-size="18.00">selector:</text>
<text text-anchor="middle" x="445.18" y="-230.1" font-family="Times,serif" font-size="18.00"> change_tool(left_hand, defaultgripper, clampgripper)</text>
</g>
<!-- sequence:
 screw(left_hand, clampgripper, lampbulb, lampbase)&#45;&gt;selector:
 change_tool(left_hand, defaultgripper, clampgripper) -->
<g id="edge3" class="edge">
<title>sequence:
 screw(left_hand, clampgripper, lampbulb, lampbase)&#45;&gt;selector:
 change_tool(left_hand, defaultgripper, clampgripper)</title>
<path fill="none" stroke="black" d="M919.38,-327.14C839.34,-313.36 736.08,-295.59 646.36,-280.14"/>
<polygon fill="black" stroke="black" points="646.78,-276.66 636.33,-278.41 645.59,-283.56 646.78,-276.66"/>
</g>
<!-- precondition:
 hold(clampgripper, lampbulb) -->
<g id="node10" class="node">
<title>precondition:
 hold(clampgripper, lampbulb)</title>
<ellipse fill="#ffec8b" stroke="black" cx="1053.18" cy="-244.5" rx="205.54" ry="33.88"/>
<text text-anchor="middle" x="1053.18" y="-250.1" font-family="Times,serif" font-size="18.00">precondition:</text>
<text text-anchor="middle" x="1053.18" y="-230.1" font-family="Times,serif" font-size="18.00"> hold(clampgripper, lampbulb)</text>
</g>
<!-- sequence:
 screw(left_hand, clampgripper, lampbulb, lampbase)&#45;&gt;precondition:
 hold(clampgripper, lampbulb) -->
<g id="edge9" class="edge">
<title>sequence:
 screw(left_hand, clampgripper, lampbulb, lampbase)&#45;&gt;precondition:
 hold(clampgripper, lampbulb)</title>
<path fill="none" stroke="black" d="M1053.18,-326.95C1053.18,-315.73 1053.18,-301.9 1053.18,-288.84"/>
<polygon fill="black" stroke="black" points="1056.68,-288.6 1053.18,-278.6 1049.68,-288.6 1056.68,-288.6"/>
</g>
<!-- action:
 screw(left_hand, clampgripper, lampbulb, lampbase) -->
<g id="node11" class="node">
<title>action:
 screw(left_hand, clampgripper, lampbulb, lampbase)</title>
<ellipse fill="lightgreen" stroke="black" cx="1630.18" cy="-244.5" rx="353.61" ry="33.88"/>
<text text-anchor="middle" x="1630.18" y="-250.1" font-family="Times,serif" font-size="18.00">action:</text>
<text text-anchor="middle" x="1630.18" y="-230.1" font-family="Times,serif" font-size="18.00"> screw(left_hand, clampgripper, lampbulb, lampbase)</text>
</g>
<!-- sequence:
 screw(left_hand, clampgripper, lampbulb, lampbase)&#45;&gt;action:
 screw(left_hand, clampgripper, lampbulb, lampbase) -->
<g id="edge10" class="edge">
<title>sequence:
 screw(left_hand, clampgripper, lampbulb, lampbase)&#45;&gt;action:
 screw(left_hand, clampgripper, lampbulb, lampbase)</title>
<path fill="none" stroke="black" d="M1180.16,-327.14C1262.04,-312.29 1369.52,-292.79 1458.91,-276.57"/>
<polygon fill="black" stroke="black" points="1459.67,-279.99 1468.88,-274.77 1458.42,-273.11 1459.67,-279.99"/>
</g>
<!-- target:
 hold(left_hand, clampgripper) -->
<g id="node5" class="node">
<title>target:
 hold(left_hand, clampgripper)</title>
<ellipse fill="#ffec8b" stroke="black" cx="207.18" cy="-137.82" rx="207.36" ry="33.88"/>
<text text-anchor="middle" x="207.18" y="-143.42" font-family="Times,serif" font-size="18.00">target:</text>
<text text-anchor="middle" x="207.18" y="-123.42" font-family="Times,serif" font-size="18.00"> hold(left_hand, clampgripper)</text>
</g>
<!-- selector:
 change_tool(left_hand, defaultgripper, clampgripper)&#45;&gt;target:
 hold(left_hand, clampgripper) -->
<g id="edge4" class="edge">
<title>selector:
 change_tool(left_hand, defaultgripper, clampgripper)&#45;&gt;target:
 hold(left_hand, clampgripper)</title>
<path fill="none" stroke="black" d="M363.61,-207.62C338.79,-196.71 311.55,-184.73 286.86,-173.87"/>
<polygon fill="black" stroke="black" points="288.1,-170.59 277.53,-169.77 285.28,-177 288.1,-170.59"/>
</g>
<!-- sequence:
 change_tool(left_hand, defaultgripper, clampgripper) -->
<g id="node6" class="node">
<title>sequence:
 change_tool(left_hand, defaultgripper, clampgripper)</title>
<polygon fill="#ff7f24" stroke="black" points="934.18,-161.82 432.18,-161.82 432.18,-113.82 934.18,-113.82 934.18,-161.82"/>
<text text-anchor="middle" x="683.18" y="-143.42" font-family="Times,serif" font-size="18.00">sequence:</text>
<text text-anchor="middle" x="683.18" y="-123.42" font-family="Times,serif" font-size="18.00"> change_tool(left_hand, defaultgripper, clampgripper)</text>
</g>
<!-- selector:
 change_tool(left_hand, defaultgripper, clampgripper)&#45;&gt;sequence:
 change_tool(left_hand, defaultgripper, clampgripper) -->
<g id="edge5" class="edge">
<title>selector:
 change_tool(left_hand, defaultgripper, clampgripper)&#45;&gt;sequence:
 change_tool(left_hand, defaultgripper, clampgripper)</title>
<path fill="none" stroke="black" d="M526.76,-207.62C557.84,-193.95 592.72,-178.61 621.64,-165.89"/>
<polygon fill="black" stroke="black" points="623.06,-169.09 630.8,-161.86 620.24,-162.68 623.06,-169.09"/>
</g>
<!-- precondition:
 hold(left_hand, defaultgripper) -->
<g id="node7" class="node">
<title>precondition:
 hold(left_hand, defaultgripper)</title>
<ellipse fill="#ffec8b" stroke="black" cx="276.18" cy="-33.94" rx="213.59" ry="33.88"/>
<text text-anchor="middle" x="276.18" y="-39.54" font-family="Times,serif" font-size="18.00">precondition:</text>
<text text-anchor="middle" x="276.18" y="-19.54" font-family="Times,serif" font-size="18.00"> hold(left_hand, defaultgripper)</text>
</g>
<!-- sequence:
 change_tool(left_hand, defaultgripper, clampgripper)&#45;&gt;precondition:
 hold(left_hand, defaultgripper) -->
<g id="edge6" class="edge">
<title>sequence:
 change_tool(left_hand, defaultgripper, clampgripper)&#45;&gt;precondition:
 hold(left_hand, defaultgripper)</title>
<path fill="none" stroke="black" d="M591.08,-113.77C533.88,-99.45 459.7,-80.88 397.7,-65.36"/>
<polygon fill="black" stroke="black" points="398.41,-61.93 387.86,-62.9 396.71,-68.72 398.41,-61.93"/>
</g>
<!-- precondition:
 is_empty(defaultgripper) -->
<g id="node8" class="node">
<title>precondition:
 is_empty(defaultgripper)</title>
<ellipse fill="#ffec8b" stroke="black" cx="683.18" cy="-33.94" rx="175.23" ry="33.88"/>
<text text-anchor="middle" x="683.18" y="-39.54" font-family="Times,serif" font-size="18.00">precondition:</text>
<text text-anchor="middle" x="683.18" y="-19.54" font-family="Times,serif" font-size="18.00"> is_empty(defaultgripper)</text>
</g>
<!-- sequence:
 change_tool(left_hand, defaultgripper, clampgripper)&#45;&gt;precondition:
 is_empty(defaultgripper) -->
<g id="edge7" class="edge">
<title>sequence:
 change_tool(left_hand, defaultgripper, clampgripper)&#45;&gt;precondition:
 is_empty(defaultgripper)</title>
<path fill="none" stroke="black" d="M683.18,-113.7C683.18,-103.16 683.18,-90.31 683.18,-78.08"/>
<polygon fill="black" stroke="black" points="686.68,-78.01 683.18,-68.01 679.68,-78.01 686.68,-78.01"/>
</g>
<!-- action:
 change_tool(left_hand, defaultgripper, clampgripper) -->
<g id="node9" class="node">
<title>action:
 change_tool(left_hand, defaultgripper, clampgripper)</title>
<ellipse fill="lightgreen" stroke="black" cx="1231.18" cy="-33.94" rx="354.94" ry="33.88"/>
<text text-anchor="middle" x="1231.18" y="-39.54" font-family="Times,serif" font-size="18.00">action:</text>
<text text-anchor="middle" x="1231.18" y="-19.54" font-family="Times,serif" font-size="18.00"> change_tool(left_hand, defaultgripper, clampgripper)</text>
</g>
<!-- sequence:
 change_tool(left_hand, defaultgripper, clampgripper)&#45;&gt;action:
 change_tool(left_hand, defaultgripper, clampgripper) -->
<g id="edge8" class="edge">
<title>sequence:
 change_tool(left_hand, defaultgripper, clampgripper)&#45;&gt;action:
 change_tool(left_hand, defaultgripper, clampgripper)</title>
<path fill="none" stroke="black" d="M807.19,-113.77C882.81,-99.71 980.47,-81.55 1062.99,-66.21"/>
<polygon fill="black" stroke="black" points="1063.79,-69.62 1072.98,-64.35 1062.51,-62.74 1063.79,-69.62"/>
</g>
</g>
</svg>
