<?xml version="1.0" encoding="UTF-8" standalone="no"?>
<!DOCTYPE svg PUBLIC "-//W3C//DTD SVG 1.1//EN"
 "http://www.w3.org/Graphics/SVG/1.1/DTD/svg11.dtd">
<!-- Generated by graphviz version 2.43.0 (0)
 -->
<!-- Title: pastafarianism Pages: 1 -->
<svg width="2946pt" height="503pt"
 viewBox="0.00 0.00 2945.75 502.60" xmlns="http://www.w3.org/2000/svg" xmlns:xlink="http://www.w3.org/1999/xlink">
<g id="graph0" class="graph" transform="scale(1 1) rotate(0) translate(4 498.6)">
<title>pastafarianism</title>
<polygon fill="white" stroke="transparent" points="-4,4 -4,-498.6 2941.75,-498.6 2941.75,4 -4,4"/>
<!-- selector:
 screw(left_hand, clampgripper, lampbulb, lampbase) -->
<g id="node1" class="node">
<title>selector:
 screw(left_hand, clampgripper, lampbulb, lampbase)</title>
<polygon fill="#8deeee" stroke="black" points="1624.05,-442.54 1624.05,-473.18 1399.77,-494.84 1082.59,-494.84 858.32,-473.18 858.32,-442.54 1082.59,-420.88 1399.77,-420.88 1624.05,-442.54"/>
<text text-anchor="middle" x="1241.18" y="-463.46" font-family="Times,serif" font-size="18.00">selector:</text>
<text text-anchor="middle" x="1241.18" y="-443.46" font-family="Times,serif" font-size="18.00"> screw(left_hand, clampgripper, lampbulb, lampbase)</text>
</g>
<!-- target:
 is_screwed_to(lampbulb, lampbase) -->
<g id="node2" class="node">
<title>target:
 is_screwed_to(lampbulb, lampbase)</title>
<ellipse fill="#ffec8b" stroke="black" cx="985.18" cy="-351.18" rx="243.9" ry="33.88"/>
<text text-anchor="middle" x="985.18" y="-356.78" font-family="Times,serif" font-size="18.00">target:</text>
<text text-anchor="middle" x="985.18" y="-336.78" font-family="Times,serif" font-size="18.00"> is_screwed_to(lampbulb, lampbase)</text>
</g>
<!-- selector:
 screw(left_hand, clampgripper, lampbulb, lampbase)&#45;&gt;target:
 is_screwed_to(lampbulb, lampbase) -->
<g id="edge1" class="edge">
<title>selector:
 screw(left_hand, clampgripper, lampbulb, lampbase)&#45;&gt;target:
 is_screwed_to(lampbulb, lampbase)</title>
<path fill="none" stroke="black" d="M1153.44,-420.98C1126.77,-410.08 1097.5,-398.11 1070.96,-387.26"/>
<polygon fill="black" stroke="black" points="1072.27,-384.01 1061.69,-383.47 1069.63,-390.49 1072.27,-384.01"/>
</g>
<!-- sequence:
 screw(left_hand, clampgripper, lampbulb, lampbase) -->
<g id="node3" class="node">
<title>sequence:
 screw(left_hand, clampgripper, lampbulb, lampbase)</title>
<polygon fill="#ff7f24" stroke="black" points="1747.18,-375.18 1247.18,-375.18 1247.18,-327.18 1747.18,-327.18 1747.18,-375.18"/>
<text text-anchor="middle" x="1497.18" y="-356.78" font-family="Times,serif" font-size="18.00">sequence:</text>
<text text-anchor="middle" x="1497.18" y="-336.78" font-family="Times,serif" font-size="18.00"> screw(left_hand, clampgripper, lampbulb, lampbase)</text>
</g>
<!-- selector:
 screw(left_hand, clampgripper, lampbulb, lampbase)&#45;&gt;sequence:
 screw(left_hand, clampgripper, lampbulb, lampbase) -->
<g id="edge2" class="edge">
<title>selector:
 screw(left_hand, clampgripper, lampbulb, lampbase)&#45;&gt;sequence:
 screw(left_hand, clampgripper, lampbulb, lampbase)</title>
<path fill="none" stroke="black" d="M1328.92,-420.98C1362.5,-407.25 1400.2,-391.84 1431.39,-379.09"/>
<polygon fill="black" stroke="black" points="1432.91,-382.24 1440.84,-375.22 1430.26,-375.76 1432.91,-382.24"/>
</g>
<!-- selector:
 change_tool(left_hand, defaultgripper, clampgripper) -->
<g id="node4" class="node">
<title>selector:
 change_tool(left_hand, defaultgripper, clampgripper)</title>
<polygon fill="#8deeee" stroke="black" points="1067.61,-229.19 1067.61,-259.82 842.42,-281.48 523.95,-281.48 298.75,-259.82 298.75,-229.19 523.95,-207.53 842.42,-207.53 1067.61,-229.19"/>
<text text-anchor="middle" x="683.18" y="-250.1" font-family="Times,serif" font-size="18.00">selector:</text>
<text text-anchor="middle" x="683.18" y="-230.1" font-family="Times,serif" font-size="18.00"> change_tool(left_hand, defaultgripper, clampgripper)</text>
</g>
<!-- sequence:
 screw(left_hand, clampgripper, lampbulb, lampbase)&#45;&gt;selector:
 change_tool(left_hand, defaultgripper, clampgripper) -->
<g id="edge3" class="edge">
<title>sequence:
 screw(left_hand, clampgripper, lampbulb, lampbase)&#45;&gt;selector:
 change_tool(left_hand, defaultgripper, clampgripper)</title>
<path fill="none" stroke="black" d="M1318.29,-327.18C1201.86,-312.2 1048.64,-292.5 921.87,-276.2"/>
<polygon fill="black" stroke="black" points="921.99,-272.68 911.63,-274.88 921.1,-279.63 921.99,-272.68"/>
</g>
<!-- selector:
 pick_up(left_hand, clampgripper, lampbulb) -->
<g id="node10" class="node">
<title>selector:
 pick_up(left_hand, clampgripper, lampbulb)</title>
<polygon fill="#8deeee" stroke="black" points="1817.03,-229.19 1817.03,-259.82 1629.67,-281.48 1364.7,-281.48 1177.34,-259.82 1177.34,-229.19 1364.7,-207.53 1629.67,-207.53 1817.03,-229.19"/>
<text text-anchor="middle" x="1497.18" y="-250.1" font-family="Times,serif" font-size="18.00">selector:</text>
<text text-anchor="middle" x="1497.18" y="-230.1" font-family="Times,serif" font-size="18.00"> pick_up(left_hand, clampgripper, lampbulb)</text>
</g>
<!-- sequence:
 screw(left_hand, clampgripper, lampbulb, lampbase)&#45;&gt;selector:
 pick_up(left_hand, clampgripper, lampbulb) -->
<g id="edge9" class="edge">
<title>sequence:
 screw(left_hand, clampgripper, lampbulb, lampbase)&#45;&gt;selector:
 pick_up(left_hand, clampgripper, lampbulb)</title>
<path fill="none" stroke="black" d="M1497.18,-326.95C1497.18,-316.5 1497.18,-303.79 1497.18,-291.54"/>
<polygon fill="black" stroke="black" points="1500.68,-291.42 1497.18,-281.42 1493.68,-291.42 1500.68,-291.42"/>
</g>
<!-- action:
 screw(left_hand, clampgripper, lampbulb, lampbase) -->
<g id="node16" class="node">
<title>action:
 screw(left_hand, clampgripper, lampbulb, lampbase)</title>
<ellipse fill="lightgreen" stroke="black" cx="2188.18" cy="-244.5" rx="353.61" ry="33.88"/>
<text text-anchor="middle" x="2188.18" y="-250.1" font-family="Times,serif" font-size="18.00">action:</text>
<text text-anchor="middle" x="2188.18" y="-230.1" font-family="Times,serif" font-size="18.00"> screw(left_hand, clampgripper, lampbulb, lampbase)</text>
</g>
<!-- sequence:
 screw(left_hand, clampgripper, lampbulb, lampbase)&#45;&gt;action:
 screw(left_hand, clampgripper, lampbulb, lampbase) -->
<g id="edge15" class="edge">
<title>sequence:
 screw(left_hand, clampgripper, lampbulb, lampbase)&#45;&gt;action:
 screw(left_hand, clampgripper, lampbulb, lampbase)</title>
<path fill="none" stroke="black" d="M1649.25,-327.14C1750.5,-311.81 1884.44,-291.52 1993.47,-275"/>
<polygon fill="black" stroke="black" points="1994.24,-278.42 2003.6,-273.46 1993.19,-271.5 1994.24,-278.42"/>
</g>
<!-- target:
 hold(left_hand, clampgripper) -->
<g id="node5" class="node">
<title>target:
 hold(left_hand, clampgripper)</title>
<ellipse fill="#ffec8b" stroke="black" cx="207.18" cy="-137.82" rx="207.36" ry="33.88"/>
<text text-anchor="middle" x="207.18" y="-143.42" font-family="Times,serif" font-size="18.00">target:</text>
<text text-anchor="middle" x="207.18" y="-123.42" font-family="Times,serif" font-size="18.00"> hold(left_hand, clampgripper)</text>
</g>
<!-- selector:
 change_tool(left_hand, defaultgripper, clampgripper)&#45;&gt;target:
 hold(left_hand, clampgripper) -->
<g id="edge4" class="edge">
<title>selector:
 change_tool(left_hand, defaultgripper, clampgripper)&#45;&gt;target:
 hold(left_hand, clampgripper)</title>
<path fill="none" stroke="black" d="M520.7,-207.77C461.25,-194.7 394.78,-180.08 338.4,-167.68"/>
<polygon fill="black" stroke="black" points="338.88,-164.2 328.36,-165.47 337.38,-171.04 338.88,-164.2"/>
</g>
<!-- sequence:
 change_tool(left_hand, defaultgripper, clampgripper) -->
<g id="node6" class="node">
<title>sequence:
 change_tool(left_hand, defaultgripper, clampgripper)</title>
<polygon fill="#ff7f24" stroke="black" points="934.18,-161.82 432.18,-161.82 432.18,-113.82 934.18,-113.82 934.18,-161.82"/>
<text text-anchor="middle" x="683.18" y="-143.42" font-family="Times,serif" font-size="18.00">sequence:</text>
<text text-anchor="middle" x="683.18" y="-123.42" font-family="Times,serif" font-size="18.00"> change_tool(left_hand, defaultgripper, clampgripper)</text>
</g>
<!-- selector:
 change_tool(left_hand, defaultgripper, clampgripper)&#45;&gt;sequence:
 change_tool(left_hand, defaultgripper, clampgripper) -->
<g id="edge5" class="edge">
<title>selector:
 change_tool(left_hand, defaultgripper, clampgripper)&#45;&gt;sequence:
 change_tool(left_hand, defaultgripper, clampgripper)</title>
<path fill="none" stroke="black" d="M683.18,-207.48C683.18,-196.09 683.18,-183.57 683.18,-172.36"/>
<polygon fill="black" stroke="black" points="686.68,-172.11 683.18,-162.11 679.68,-172.11 686.68,-172.11"/>
</g>
<!-- precondition:
 hold(left_hand, defaultgripper) -->
<g id="node7" class="node">
<title>precondition:
 hold(left_hand, defaultgripper)</title>
<ellipse fill="#ffec8b" stroke="black" cx="230.18" cy="-33.94" rx="213.59" ry="33.88"/>
<text text-anchor="middle" x="230.18" y="-39.54" font-family="Times,serif" font-size="18.00">precondition:</text>
<text text-anchor="middle" x="230.18" y="-19.54" font-family="Times,serif" font-size="18.00"> hold(left_hand, defaultgripper)</text>
</g>
<!-- sequence:
 change_tool(left_hand, defaultgripper, clampgripper)&#45;&gt;precondition:
 hold(left_hand, defaultgripper) -->
<g id="edge6" class="edge">
<title>sequence:
 change_tool(left_hand, defaultgripper, clampgripper)&#45;&gt;precondition:
 hold(left_hand, defaultgripper)</title>
<path fill="none" stroke="black" d="M580.67,-113.77C515.49,-99.11 430.5,-79.99 360.54,-64.26"/>
<polygon fill="black" stroke="black" points="361.29,-60.84 350.77,-62.06 359.76,-67.67 361.29,-60.84"/>
</g>
<!-- precondition:
 is_empty(defaultgripper) -->
<g id="node8" class="node">
<title>precondition:
 is_empty(defaultgripper)</title>
<ellipse fill="#ffec8b" stroke="black" cx="637.18" cy="-33.94" rx="175.23" ry="33.88"/>
<text text-anchor="middle" x="637.18" y="-39.54" font-family="Times,serif" font-size="18.00">precondition:</text>
<text text-anchor="middle" x="637.18" y="-19.54" font-family="Times,serif" font-size="18.00"> is_empty(defaultgripper)</text>
</g>
<!-- sequence:
 change_tool(left_hand, defaultgripper, clampgripper)&#45;&gt;precondition:
 is_empty(defaultgripper) -->
<g id="edge7" class="edge">
<title>sequence:
 change_tool(left_hand, defaultgripper, clampgripper)&#45;&gt;precondition:
 is_empty(defaultgripper)</title>
<path fill="none" stroke="black" d="M672.74,-113.7C667.89,-102.94 661.95,-89.79 656.33,-77.35"/>
<polygon fill="black" stroke="black" points="659.42,-75.69 652.11,-68.01 653.04,-78.57 659.42,-75.69"/>
</g>
<!-- action:
 change_tool(left_hand, defaultgripper, clampgripper) -->
<g id="node9" class="node">
<title>action:
 change_tool(left_hand, defaultgripper, clampgripper)</title>
<ellipse fill="lightgreen" stroke="black" cx="1185.18" cy="-33.94" rx="354.94" ry="33.88"/>
<text text-anchor="middle" x="1185.18" y="-39.54" font-family="Times,serif" font-size="18.00">action:</text>
<text text-anchor="middle" x="1185.18" y="-19.54" font-family="Times,serif" font-size="18.00"> change_tool(left_hand, defaultgripper, clampgripper)</text>
</g>
<!-- sequence:
 change_tool(left_hand, defaultgripper, clampgripper)&#45;&gt;action:
 change_tool(left_hand, defaultgripper, clampgripper) -->
<g id="edge8" class="edge">
<title>sequence:
 change_tool(left_hand, defaultgripper, clampgripper)&#45;&gt;action:
 change_tool(left_hand, defaultgripper, clampgripper)</title>
<path fill="none" stroke="black" d="M796.78,-113.77C865.01,-99.92 952.82,-82.1 1027.69,-66.91"/>
<polygon fill="black" stroke="black" points="1028.59,-70.29 1037.69,-64.88 1027.19,-63.43 1028.59,-70.29"/>
</g>
<!-- target:
 hold(clampgripper, lampbulb) -->
<g id="node11" class="node">
<title>target:
 hold(clampgripper, lampbulb)</title>
<ellipse fill="#ffec8b" stroke="black" cx="1497.18" cy="-137.82" rx="205.54" ry="33.88"/>
<text text-anchor="middle" x="1497.18" y="-143.42" font-family="Times,serif" font-size="18.00">target:</text>
<text text-anchor="middle" x="1497.18" y="-123.42" font-family="Times,serif" font-size="18.00"> hold(clampgripper, lampbulb)</text>
</g>
<!-- selector:
 pick_up(left_hand, clampgripper, lampbulb)&#45;&gt;target:
 hold(clampgripper, lampbulb) -->
<g id="edge10" class="edge">
<title>selector:
 pick_up(left_hand, clampgripper, lampbulb)&#45;&gt;target:
 hold(clampgripper, lampbulb)</title>
<path fill="none" stroke="black" d="M1497.18,-207.48C1497.18,-199.32 1497.18,-190.58 1497.18,-182.15"/>
<polygon fill="black" stroke="black" points="1500.68,-182.1 1497.18,-172.1 1493.68,-182.1 1500.68,-182.1"/>
</g>
<!-- sequence:
 pick_up(left_hand, clampgripper, lampbulb) -->
<g id="node12" class="node">
<title>sequence:
 pick_up(left_hand, clampgripper, lampbulb)</title>
<polygon fill="#ff7f24" stroke="black" points="2322.18,-161.82 1904.18,-161.82 1904.18,-113.82 2322.18,-113.82 2322.18,-161.82"/>
<text text-anchor="middle" x="2113.18" y="-143.42" font-family="Times,serif" font-size="18.00">sequence:</text>
<text text-anchor="middle" x="2113.18" y="-123.42" font-family="Times,serif" font-size="18.00"> pick_up(left_hand, clampgripper, lampbulb)</text>
</g>
<!-- selector:
 pick_up(left_hand, clampgripper, lampbulb)&#45;&gt;sequence:
 pick_up(left_hand, clampgripper, lampbulb) -->
<g id="edge11" class="edge">
<title>selector:
 pick_up(left_hand, clampgripper, lampbulb)&#45;&gt;sequence:
 pick_up(left_hand, clampgripper, lampbulb)</title>
<path fill="none" stroke="black" d="M1677.01,-212.94C1769.51,-197.23 1880.77,-178.32 1967.77,-163.53"/>
<polygon fill="black" stroke="black" points="1968.45,-166.97 1977.72,-161.84 1967.28,-160.07 1968.45,-166.97"/>
</g>
<!-- precondition:
 hold(left_hand, clampgripper) -->
<g id="node13" class="node">
<title>precondition:
 hold(left_hand, clampgripper)</title>
<ellipse fill="#ffec8b" stroke="black" cx="1765.18" cy="-33.94" rx="207.36" ry="33.88"/>
<text text-anchor="middle" x="1765.18" y="-39.54" font-family="Times,serif" font-size="18.00">precondition:</text>
<text text-anchor="middle" x="1765.18" y="-19.54" font-family="Times,serif" font-size="18.00"> hold(left_hand, clampgripper)</text>
</g>
<!-- sequence:
 pick_up(left_hand, clampgripper, lampbulb)&#45;&gt;precondition:
 hold(left_hand, clampgripper) -->
<g id="edge12" class="edge">
<title>sequence:
 pick_up(left_hand, clampgripper, lampbulb)&#45;&gt;precondition:
 hold(left_hand, clampgripper)</title>
<path fill="none" stroke="black" d="M2034.22,-113.7C1986.64,-99.78 1925.4,-81.85 1873.36,-66.61"/>
<polygon fill="black" stroke="black" points="1874.34,-63.25 1863.76,-63.8 1872.37,-69.97 1874.34,-63.25"/>
</g>
<!-- precondition:
 is_empty(clampgripper) -->
<g id="node14" class="node">
<title>precondition:
 is_empty(clampgripper)</title>
<ellipse fill="#ffec8b" stroke="black" cx="2159.18" cy="-33.94" rx="169" ry="33.88"/>
<text text-anchor="middle" x="2159.18" y="-39.54" font-family="Times,serif" font-size="18.00">precondition:</text>
<text text-anchor="middle" x="2159.18" y="-19.54" font-family="Times,serif" font-size="18.00"> is_empty(clampgripper)</text>
</g>
<!-- sequence:
 pick_up(left_hand, clampgripper, lampbulb)&#45;&gt;precondition:
 is_empty(clampgripper) -->
<g id="edge13" class="edge">
<title>sequence:
 pick_up(left_hand, clampgripper, lampbulb)&#45;&gt;precondition:
 is_empty(clampgripper)</title>
<path fill="none" stroke="black" d="M2123.62,-113.7C2128.48,-102.94 2134.42,-89.79 2140.04,-77.35"/>
<polygon fill="black" stroke="black" points="2143.33,-78.57 2144.25,-68.01 2136.95,-75.69 2143.33,-78.57"/>
</g>
<!-- action:
 pick_up(left_hand, clampgripper, lampbulb) -->
<g id="node15" class="node">
<title>action:
 pick_up(left_hand, clampgripper, lampbulb)</title>
<ellipse fill="lightgreen" stroke="black" cx="2642.18" cy="-33.94" rx="295.64" ry="33.88"/>
<text text-anchor="middle" x="2642.18" y="-39.54" font-family="Times,serif" font-size="18.00">action:</text>
<text text-anchor="middle" x="2642.18" y="-19.54" font-family="Times,serif" font-size="18.00"> pick_up(left_hand, clampgripper, lampbulb)</text>
</g>
<!-- sequence:
 pick_up(left_hand, clampgripper, lampbulb)&#45;&gt;action:
 pick_up(left_hand, clampgripper, lampbulb) -->
<g id="edge14" class="edge">
<title>sequence:
 pick_up(left_hand, clampgripper, lampbulb)&#45;&gt;action:
 pick_up(left_hand, clampgripper, lampbulb)</title>
<path fill="none" stroke="black" d="M2232.89,-113.77C2307.28,-99.44 2403.75,-80.86 2484.35,-65.34"/>
<polygon fill="black" stroke="black" points="2485.44,-68.69 2494.6,-63.37 2484.12,-61.82 2485.44,-68.69"/>
</g>
</g>
</svg>
