<?xml version="1.0" encoding="UTF-8" standalone="no"?>
<!DOCTYPE svg PUBLIC "-//W3C//DTD SVG 1.1//EN"
 "http://www.w3.org/Graphics/SVG/1.1/DTD/svg11.dtd">
<!-- Generated by graphviz version 2.43.0 (0)
 -->
<!-- Title: pastafarianism Pages: 1 -->
<svg width="2045pt" height="620pt"
 viewBox="0.00 0.00 2044.68 620.00" xmlns="http://www.w3.org/2000/svg" xmlns:xlink="http://www.w3.org/1999/xlink">
<g id="graph0" class="graph" transform="scale(1 1) rotate(0) translate(4 616)">
<title>pastafarianism</title>
<polygon fill="white" stroke="transparent" points="-4,4 -4,-616 2040.68,-616 2040.68,4 -4,4"/>
<!-- Sequence -->
<g id="node1" class="node">
<title>Sequence</title>
<polygon fill="orange" stroke="black" points="1052.91,-612 990.91,-612 990.91,-576 1052.91,-576 1052.91,-612"/>
<text text-anchor="middle" x="1021.91" y="-591.8" font-family="Times,serif" font-size="9.00">Sequence</text>
</g>
<!-- Fallback -->
<g id="node2" class="node">
<title>Fallback</title>
<polygon fill="cyan" stroke="black" points="541.91,-514.54 541.91,-529.46 521.41,-540 492.42,-540 471.92,-529.46 471.92,-514.54 492.42,-504 521.41,-504 541.91,-514.54"/>
<text text-anchor="middle" x="506.91" y="-519.8" font-family="Times,serif" font-size="9.00">Fallback</text>
</g>
<!-- Sequence&#45;&gt;Fallback -->
<g id="edge1" class="edge">
<title>Sequence&#45;&gt;Fallback</title>
<path fill="none" stroke="black" d="M990.86,-588.78C903.4,-576.89 654.73,-543.09 552.08,-529.14"/>
<polygon fill="black" stroke="black" points="552.41,-525.65 542.03,-527.77 551.47,-532.59 552.41,-525.65"/>
</g>
<!-- Fallback &#160;&#160;&#160;&#160;&#160;&#160; -->
<g id="node27" class="node">
<title>Fallback &#160;&#160;&#160;&#160;&#160;&#160;</title>
<polygon fill="cyan" stroke="black" points="961.91,-514.54 961.91,-529.46 941.41,-540 912.42,-540 891.92,-529.46 891.92,-514.54 912.42,-504 941.41,-504 961.91,-514.54"/>
<text text-anchor="middle" x="926.91" y="-519.8" font-family="Times,serif" font-size="9.00">Fallback</text>
</g>
<!-- Sequence&#45;&gt;Fallback &#160;&#160;&#160;&#160;&#160;&#160; -->
<g id="edge26" class="edge">
<title>Sequence&#45;&gt;Fallback &#160;&#160;&#160;&#160;&#160;&#160;</title>
<path fill="none" stroke="black" d="M998.43,-575.7C985.24,-565.97 968.68,-553.78 954.83,-543.57"/>
<polygon fill="black" stroke="black" points="956.73,-540.62 946.6,-537.51 952.58,-546.26 956.73,-540.62"/>
</g>
<!-- Fallback &#160;&#160;&#160;&#160;&#160;&#160;&#160;&#160;&#160; -->
<g id="node38" class="node">
<title>Fallback &#160;&#160;&#160;&#160;&#160;&#160;&#160;&#160;&#160;</title>
<polygon fill="cyan" stroke="black" points="1152.91,-514.54 1152.91,-529.46 1132.41,-540 1103.42,-540 1082.92,-529.46 1082.92,-514.54 1103.42,-504 1132.41,-504 1152.91,-514.54"/>
<text text-anchor="middle" x="1117.91" y="-519.8" font-family="Times,serif" font-size="9.00">Fallback</text>
</g>
<!-- Sequence&#45;&gt;Fallback &#160;&#160;&#160;&#160;&#160;&#160;&#160;&#160;&#160; -->
<g id="edge37" class="edge">
<title>Sequence&#45;&gt;Fallback &#160;&#160;&#160;&#160;&#160;&#160;&#160;&#160;&#160;</title>
<path fill="none" stroke="black" d="M1045.65,-575.7C1058.98,-565.97 1075.71,-553.78 1089.71,-543.57"/>
<polygon fill="black" stroke="black" points="1092,-546.23 1098.02,-537.51 1087.88,-540.57 1092,-546.23"/>
</g>
<!-- Fallback &#160;&#160;&#160;&#160;&#160;&#160;&#160;&#160;&#160;&#160;&#160;&#160; -->
<g id="node49" class="node">
<title>Fallback &#160;&#160;&#160;&#160;&#160;&#160;&#160;&#160;&#160;&#160;&#160;&#160;</title>
<polygon fill="cyan" stroke="black" points="1542.91,-514.54 1542.91,-529.46 1522.41,-540 1493.42,-540 1472.92,-529.46 1472.92,-514.54 1493.42,-504 1522.41,-504 1542.91,-514.54"/>
<text text-anchor="middle" x="1507.91" y="-519.8" font-family="Times,serif" font-size="9.00">Fallback</text>
</g>
<!-- Sequence&#45;&gt;Fallback &#160;&#160;&#160;&#160;&#160;&#160;&#160;&#160;&#160;&#160;&#160;&#160; -->
<g id="edge48" class="edge">
<title>Sequence&#45;&gt;Fallback &#160;&#160;&#160;&#160;&#160;&#160;&#160;&#160;&#160;&#160;&#160;&#160;</title>
<path fill="none" stroke="black" d="M1053.06,-588.51C1136.44,-576.51 1365.04,-543.58 1462.71,-529.51"/>
<polygon fill="black" stroke="black" points="1463.45,-532.94 1472.85,-528.05 1462.45,-526.01 1463.45,-532.94"/>
</g>
<!-- unstacked -->
<g id="node3" class="node">
<title>unstacked</title>
<ellipse fill="lightgray" stroke="black" cx="420.91" cy="-450" rx="36.9" ry="18"/>
<text text-anchor="middle" x="420.91" y="-447.8" font-family="Times,serif" font-size="9.00">unstacked</text>
</g>
<!-- Fallback&#45;&gt;unstacked -->
<g id="edge2" class="edge">
<title>Fallback&#45;&gt;unstacked</title>
<path fill="none" stroke="black" d="M488.25,-505.81C476.23,-496.02 460.41,-483.15 447.13,-472.34"/>
<polygon fill="black" stroke="black" points="449.21,-469.52 439.24,-465.92 444.79,-474.95 449.21,-469.52"/>
</g>
<!-- Sequence  -->
<g id="node4" class="node">
<title>Sequence </title>
<polygon fill="orange" stroke="black" points="537.91,-468 475.91,-468 475.91,-432 537.91,-432 537.91,-468"/>
<text text-anchor="middle" x="506.91" y="-447.8" font-family="Times,serif" font-size="9.00">Sequence</text>
</g>
<!-- Fallback&#45;&gt;Sequence  -->
<g id="edge3" class="edge">
<title>Fallback&#45;&gt;Sequence </title>
<path fill="none" stroke="black" d="M506.91,-503.7C506.91,-495.98 506.91,-486.71 506.91,-478.11"/>
<polygon fill="black" stroke="black" points="510.42,-478.1 506.91,-468.1 503.42,-478.1 510.42,-478.1"/>
</g>
<!-- Fallback  -->
<g id="node5" class="node">
<title>Fallback </title>
<polygon fill="cyan" stroke="black" points="373.91,-370.54 373.91,-385.46 353.41,-396 324.42,-396 303.92,-385.46 303.92,-370.54 324.42,-360 353.41,-360 373.91,-370.54"/>
<text text-anchor="middle" x="338.91" y="-375.8" font-family="Times,serif" font-size="9.00">Fallback</text>
</g>
<!-- Sequence &#45;&gt;Fallback  -->
<g id="edge4" class="edge">
<title>Sequence &#45;&gt;Fallback </title>
<path fill="none" stroke="black" d="M475.48,-435.61C472.59,-434.39 469.7,-433.17 466.91,-432 435.84,-418.96 400.44,-404.32 374.76,-393.74"/>
<polygon fill="black" stroke="black" points="376,-390.46 365.42,-389.89 373.33,-396.94 376,-390.46"/>
</g>
<!-- Fallback &#160;&#160;&#160; -->
<g id="node16" class="node">
<title>Fallback &#160;&#160;&#160;</title>
<polygon fill="cyan" stroke="black" points="562.91,-370.54 562.91,-385.46 542.41,-396 513.42,-396 492.92,-385.46 492.92,-370.54 513.42,-360 542.41,-360 562.91,-370.54"/>
<text text-anchor="middle" x="527.91" y="-375.8" font-family="Times,serif" font-size="9.00">Fallback</text>
</g>
<!-- Sequence &#45;&gt;Fallback &#160;&#160;&#160; -->
<g id="edge15" class="edge">
<title>Sequence &#45;&gt;Fallback &#160;&#160;&#160;</title>
<path fill="none" stroke="black" d="M512.11,-431.7C514.45,-423.9 517.26,-414.51 519.87,-405.83"/>
<polygon fill="black" stroke="black" points="523.26,-406.69 522.78,-396.1 516.56,-404.68 523.26,-406.69"/>
</g>
<!-- object_at GreenBox [&#45;0.8, &#45;1.0, 0.89] 0.0 base_link -->
<g id="node6" class="node">
<title>object_at GreenBox [&#45;0.8, &#45;1.0, 0.89] 0.0 base_link</title>
<ellipse fill="lightgray" stroke="black" cx="144.91" cy="-306" rx="144.83" ry="18"/>
<text text-anchor="middle" x="144.91" y="-303.8" font-family="Times,serif" font-size="9.00">object_at GreenBox [&#45;0.8, &#45;1.0, 0.89] 0.0 base_link</text>
</g>
<!-- Fallback &#45;&gt;object_at GreenBox [&#45;0.8, &#45;1.0, 0.89] 0.0 base_link -->
<g id="edge5" class="edge">
<title>Fallback &#45;&gt;object_at GreenBox [&#45;0.8, &#45;1.0, 0.89] 0.0 base_link</title>
<path fill="none" stroke="black" d="M310.71,-366.82C281.57,-356.31 235.38,-339.64 199.15,-326.57"/>
<polygon fill="black" stroke="black" points="200.29,-323.26 189.69,-323.16 197.91,-329.84 200.29,-323.26"/>
</g>
<!-- Sequence &#160; -->
<g id="node7" class="node">
<title>Sequence &#160;</title>
<polygon fill="orange" stroke="black" points="369.91,-324 307.91,-324 307.91,-288 369.91,-288 369.91,-324"/>
<text text-anchor="middle" x="338.91" y="-303.8" font-family="Times,serif" font-size="9.00">Sequence</text>
</g>
<!-- Fallback &#45;&gt;Sequence &#160; -->
<g id="edge6" class="edge">
<title>Fallback &#45;&gt;Sequence &#160;</title>
<path fill="none" stroke="black" d="M338.91,-359.7C338.91,-351.98 338.91,-342.71 338.91,-334.11"/>
<polygon fill="black" stroke="black" points="342.42,-334.1 338.91,-324.1 335.42,-334.1 342.42,-334.1"/>
</g>
<!-- Fallback &#160; -->
<g id="node8" class="node">
<title>Fallback &#160;</title>
<polygon fill="cyan" stroke="black" points="208.91,-226.54 208.91,-241.46 188.41,-252 159.42,-252 138.92,-241.46 138.92,-226.54 159.42,-216 188.41,-216 208.91,-226.54"/>
<text text-anchor="middle" x="173.91" y="-231.8" font-family="Times,serif" font-size="9.00">Fallback</text>
</g>
<!-- Sequence &#160;&#45;&gt;Fallback &#160; -->
<g id="edge7" class="edge">
<title>Sequence &#160;&#45;&gt;Fallback &#160;</title>
<path fill="none" stroke="black" d="M307.91,-291.82C304.87,-290.53 301.83,-289.24 298.91,-288 268.84,-275.23 234.69,-260.76 209.69,-250.16"/>
<polygon fill="black" stroke="black" points="210.83,-246.84 200.25,-246.16 208.1,-253.29 210.83,-246.84"/>
</g>
<!-- place0 GreenBox [&#45;0.8, &#45;1.0, 0.89] 0.0 base_link -->
<g id="node15" class="node">
<title>place0 GreenBox [&#45;0.8, &#45;1.0, 0.89] 0.0 base_link</title>
<ellipse fill="lightgray" stroke="black" cx="364.91" cy="-234" rx="137.97" ry="18"/>
<text text-anchor="middle" x="364.91" y="-231.8" font-family="Times,serif" font-size="9.00">place0 GreenBox [&#45;0.8, &#45;1.0, 0.89] 0.0 base_link</text>
</g>
<!-- Sequence &#160;&#45;&gt;place0 GreenBox [&#45;0.8, &#45;1.0, 0.89] 0.0 base_link -->
<g id="edge14" class="edge">
<title>Sequence &#160;&#45;&gt;place0 GreenBox [&#45;0.8, &#45;1.0, 0.89] 0.0 base_link</title>
<path fill="none" stroke="black" d="M345.34,-287.7C348.27,-279.81 351.8,-270.3 355.05,-261.55"/>
<polygon fill="black" stroke="black" points="358.36,-262.7 358.56,-252.1 351.8,-260.26 358.36,-262.7"/>
</g>
<!-- in_gripper GreenBox -->
<g id="node9" class="node">
<title>in_gripper GreenBox</title>
<ellipse fill="lightgray" stroke="black" cx="116.91" cy="-162" rx="65.64" ry="18"/>
<text text-anchor="middle" x="116.91" y="-159.8" font-family="Times,serif" font-size="9.00">in_gripper GreenBox</text>
</g>
<!-- Fallback &#160;&#45;&gt;in_gripper GreenBox -->
<g id="edge8" class="edge">
<title>Fallback &#160;&#45;&gt;in_gripper GreenBox</title>
<path fill="none" stroke="black" d="M159.83,-215.7C152.89,-207.18 144.41,-196.76 136.82,-187.45"/>
<polygon fill="black" stroke="black" points="139.48,-185.17 130.45,-179.62 134.05,-189.59 139.48,-185.17"/>
</g>
<!-- Sequence &#160;&#160; -->
<g id="node10" class="node">
<title>Sequence &#160;&#160;</title>
<polygon fill="orange" stroke="black" points="262.91,-180 200.91,-180 200.91,-144 262.91,-144 262.91,-180"/>
<text text-anchor="middle" x="231.91" y="-159.8" font-family="Times,serif" font-size="9.00">Sequence</text>
</g>
<!-- Fallback &#160;&#45;&gt;Sequence &#160;&#160; -->
<g id="edge9" class="edge">
<title>Fallback &#160;&#45;&gt;Sequence &#160;&#160;</title>
<path fill="none" stroke="black" d="M188.25,-215.7C195.21,-207.3 203.69,-197.07 211.32,-187.86"/>
<polygon fill="black" stroke="black" points="214.06,-190.04 217.74,-180.1 208.67,-185.57 214.06,-190.04"/>
</g>
<!-- Fallback &#160;&#160; -->
<g id="node11" class="node">
<title>Fallback &#160;&#160;</title>
<polygon fill="cyan" stroke="black" points="213.91,-82.54 213.91,-97.46 193.41,-108 164.42,-108 143.92,-97.46 143.92,-82.54 164.42,-72 193.41,-72 213.91,-82.54"/>
<text text-anchor="middle" x="178.91" y="-87.8" font-family="Times,serif" font-size="9.00">Fallback</text>
</g>
<!-- Sequence &#160;&#160;&#45;&gt;Fallback &#160;&#160; -->
<g id="edge10" class="edge">
<title>Sequence &#160;&#160;&#45;&gt;Fallback &#160;&#160;</title>
<path fill="none" stroke="black" d="M218.81,-143.7C212.52,-135.39 204.87,-125.28 197.95,-116.14"/>
<polygon fill="black" stroke="black" points="200.69,-113.96 191.87,-108.1 195.11,-118.19 200.69,-113.96"/>
</g>
<!-- pick0 GreenBox -->
<g id="node14" class="node">
<title>pick0 GreenBox</title>
<ellipse fill="lightgray" stroke="black" cx="284.91" cy="-90" rx="52.58" ry="18"/>
<text text-anchor="middle" x="284.91" y="-87.8" font-family="Times,serif" font-size="9.00">pick0 GreenBox</text>
</g>
<!-- Sequence &#160;&#160;&#45;&gt;pick0 GreenBox -->
<g id="edge13" class="edge">
<title>Sequence &#160;&#160;&#45;&gt;pick0 GreenBox</title>
<path fill="none" stroke="black" d="M245.02,-143.7C251.4,-135.27 259.19,-124.97 266.19,-115.73"/>
<polygon fill="black" stroke="black" points="269.08,-117.71 272.33,-107.62 263.5,-113.48 269.08,-117.71"/>
</g>
<!-- gripper_state open -->
<g id="node12" class="node">
<title>gripper_state open</title>
<ellipse fill="lightgray" stroke="black" cx="116.91" cy="-18" rx="60.09" ry="18"/>
<text text-anchor="middle" x="116.91" y="-15.8" font-family="Times,serif" font-size="9.00">gripper_state open</text>
</g>
<!-- Fallback &#160;&#160;&#45;&gt;gripper_state open -->
<g id="edge11" class="edge">
<title>Fallback &#160;&#160;&#45;&gt;gripper_state open</title>
<path fill="none" stroke="black" d="M163.91,-72.05C156.29,-63.46 146.9,-52.86 138.52,-43.4"/>
<polygon fill="black" stroke="black" points="141.04,-40.95 131.79,-35.79 135.8,-45.6 141.04,-40.95"/>
</g>
<!-- open_gripper -->
<g id="node13" class="node">
<title>open_gripper</title>
<ellipse fill="lightgray" stroke="black" cx="240.91" cy="-18" rx="45.72" ry="18"/>
<text text-anchor="middle" x="240.91" y="-15.8" font-family="Times,serif" font-size="9.00">open_gripper</text>
</g>
<!-- Fallback &#160;&#160;&#45;&gt;open_gripper -->
<g id="edge12" class="edge">
<title>Fallback &#160;&#160;&#45;&gt;open_gripper</title>
<path fill="none" stroke="black" d="M193.92,-72.05C201.65,-63.33 211.2,-52.54 219.67,-42.98"/>
<polygon fill="black" stroke="black" points="222.46,-45.11 226.47,-35.31 217.22,-40.47 222.46,-45.11"/>
</g>
<!-- object_at BlueBox [&#45;1.2, &#45;1.0, 0.89] 0.0 base_link -->
<g id="node17" class="node">
<title>object_at BlueBox [&#45;1.2, &#45;1.0, 0.89] 0.0 base_link</title>
<ellipse fill="lightgray" stroke="black" cx="527.91" cy="-306" rx="140.09" ry="18"/>
<text text-anchor="middle" x="527.91" y="-303.8" font-family="Times,serif" font-size="9.00">object_at BlueBox [&#45;1.2, &#45;1.0, 0.89] 0.0 base_link</text>
</g>
<!-- Fallback &#160;&#160;&#160;&#45;&gt;object_at BlueBox [&#45;1.2, &#45;1.0, 0.89] 0.0 base_link -->
<g id="edge16" class="edge">
<title>Fallback &#160;&#160;&#160;&#45;&gt;object_at BlueBox [&#45;1.2, &#45;1.0, 0.89] 0.0 base_link</title>
<path fill="none" stroke="black" d="M527.91,-359.7C527.91,-351.98 527.91,-342.71 527.91,-334.11"/>
<polygon fill="black" stroke="black" points="531.42,-334.1 527.91,-324.1 524.42,-334.1 531.42,-334.1"/>
</g>
<!-- Sequence &#160;&#160;&#160; -->
<g id="node18" class="node">
<title>Sequence &#160;&#160;&#160;</title>
<polygon fill="orange" stroke="black" points="747.91,-324 685.91,-324 685.91,-288 747.91,-288 747.91,-324"/>
<text text-anchor="middle" x="716.91" y="-303.8" font-family="Times,serif" font-size="9.00">Sequence</text>
</g>
<!-- Fallback &#160;&#160;&#160;&#45;&gt;Sequence &#160;&#160;&#160; -->
<g id="edge17" class="edge">
<title>Fallback &#160;&#160;&#160;&#45;&gt;Sequence &#160;&#160;&#160;</title>
<path fill="none" stroke="black" d="M556.95,-367.25C585.23,-357.63 629.61,-342.19 676.2,-324.18"/>
<polygon fill="black" stroke="black" points="677.5,-327.43 685.55,-320.54 674.96,-320.91 677.5,-327.43"/>
</g>
<!-- Fallback &#160;&#160;&#160;&#160; -->
<g id="node19" class="node">
<title>Fallback &#160;&#160;&#160;&#160;</title>
<polygon fill="cyan" stroke="black" points="611.91,-226.54 611.91,-241.46 591.41,-252 562.42,-252 541.92,-241.46 541.92,-226.54 562.42,-216 591.41,-216 611.91,-226.54"/>
<text text-anchor="middle" x="576.91" y="-231.8" font-family="Times,serif" font-size="9.00">Fallback</text>
</g>
<!-- Sequence &#160;&#160;&#160;&#45;&gt;Fallback &#160;&#160;&#160;&#160; -->
<g id="edge18" class="edge">
<title>Sequence &#160;&#160;&#160;&#45;&gt;Fallback &#160;&#160;&#160;&#160;</title>
<path fill="none" stroke="black" d="M685.84,-289.46C663.47,-278.28 633.32,-263.2 610.41,-251.75"/>
<polygon fill="black" stroke="black" points="611.9,-248.58 601.39,-247.24 608.77,-254.84 611.9,-248.58"/>
</g>
<!-- place0 BlueBox [&#45;1.2, &#45;1.0, 0.89] 0.0 base_link -->
<g id="node26" class="node">
<title>place0 BlueBox [&#45;1.2, &#45;1.0, 0.89] 0.0 base_link</title>
<ellipse fill="lightgray" stroke="black" cx="763.91" cy="-234" rx="133.89" ry="18"/>
<text text-anchor="middle" x="763.91" y="-231.8" font-family="Times,serif" font-size="9.00">place0 BlueBox [&#45;1.2, &#45;1.0, 0.89] 0.0 base_link</text>
</g>
<!-- Sequence &#160;&#160;&#160;&#45;&gt;place0 BlueBox [&#45;1.2, &#45;1.0, 0.89] 0.0 base_link -->
<g id="edge25" class="edge">
<title>Sequence &#160;&#160;&#160;&#45;&gt;place0 BlueBox [&#45;1.2, &#45;1.0, 0.89] 0.0 base_link</title>
<path fill="none" stroke="black" d="M728.53,-287.7C734.05,-279.47 740.76,-269.48 746.85,-260.42"/>
<polygon fill="black" stroke="black" points="749.76,-262.36 752.43,-252.1 743.95,-258.46 749.76,-262.36"/>
</g>
<!-- in_gripper BlueBox -->
<g id="node20" class="node">
<title>in_gripper BlueBox</title>
<ellipse fill="lightgray" stroke="black" cx="520.91" cy="-162" rx="61.55" ry="18"/>
<text text-anchor="middle" x="520.91" y="-159.8" font-family="Times,serif" font-size="9.00">in_gripper BlueBox</text>
</g>
<!-- Fallback &#160;&#160;&#160;&#160;&#45;&gt;in_gripper BlueBox -->
<g id="edge19" class="edge">
<title>Fallback &#160;&#160;&#160;&#160;&#45;&gt;in_gripper BlueBox</title>
<path fill="none" stroke="black" d="M563.07,-215.7C556.26,-207.18 547.93,-196.76 540.47,-187.45"/>
<polygon fill="black" stroke="black" points="543.19,-185.24 534.21,-179.62 537.73,-189.62 543.19,-185.24"/>
</g>
<!-- Sequence &#160;&#160;&#160;&#160; -->
<g id="node21" class="node">
<title>Sequence &#160;&#160;&#160;&#160;</title>
<polygon fill="orange" stroke="black" points="662.91,-180 600.91,-180 600.91,-144 662.91,-144 662.91,-180"/>
<text text-anchor="middle" x="631.91" y="-159.8" font-family="Times,serif" font-size="9.00">Sequence</text>
</g>
<!-- Fallback &#160;&#160;&#160;&#160;&#45;&gt;Sequence &#160;&#160;&#160;&#160; -->
<g id="edge20" class="edge">
<title>Fallback &#160;&#160;&#160;&#160;&#45;&gt;Sequence &#160;&#160;&#160;&#160;</title>
<path fill="none" stroke="black" d="M590.51,-215.7C597.04,-207.39 604.98,-197.28 612.16,-188.14"/>
<polygon fill="black" stroke="black" points="615.05,-190.13 618.48,-180.1 609.55,-185.81 615.05,-190.13"/>
</g>
<!-- Fallback &#160;&#160;&#160;&#160;&#160; -->
<g id="node22" class="node">
<title>Fallback &#160;&#160;&#160;&#160;&#160;</title>
<polygon fill="cyan" stroke="black" points="615.91,-82.54 615.91,-97.46 595.41,-108 566.42,-108 545.92,-97.46 545.92,-82.54 566.42,-72 595.41,-72 615.91,-82.54"/>
<text text-anchor="middle" x="580.91" y="-87.8" font-family="Times,serif" font-size="9.00">Fallback</text>
</g>
<!-- Sequence &#160;&#160;&#160;&#160;&#45;&gt;Fallback &#160;&#160;&#160;&#160;&#160; -->
<g id="edge21" class="edge">
<title>Sequence &#160;&#160;&#160;&#160;&#45;&gt;Fallback &#160;&#160;&#160;&#160;&#160;</title>
<path fill="none" stroke="black" d="M619.31,-143.7C613.32,-135.47 606.04,-125.48 599.44,-116.42"/>
<polygon fill="black" stroke="black" points="602.09,-114.13 593.38,-108.1 596.44,-118.25 602.09,-114.13"/>
</g>
<!-- pick0 BlueBox -->
<g id="node25" class="node">
<title>pick0 BlueBox</title>
<ellipse fill="lightgray" stroke="black" cx="681.91" cy="-90" rx="47.84" ry="18"/>
<text text-anchor="middle" x="681.91" y="-87.8" font-family="Times,serif" font-size="9.00">pick0 BlueBox</text>
</g>
<!-- Sequence &#160;&#160;&#160;&#160;&#45;&gt;pick0 BlueBox -->
<g id="edge24" class="edge">
<title>Sequence &#160;&#160;&#160;&#160;&#45;&gt;pick0 BlueBox</title>
<path fill="none" stroke="black" d="M644.27,-143.7C650.24,-135.35 657.5,-125.18 664.05,-116.02"/>
<polygon fill="black" stroke="black" points="667.08,-117.79 670.04,-107.62 661.38,-113.73 667.08,-117.79"/>
</g>
<!-- gripper_state open  -->
<g id="node23" class="node">
<title>gripper_state open </title>
<ellipse fill="lightgray" stroke="black" cx="518.91" cy="-18" rx="60.09" ry="18"/>
<text text-anchor="middle" x="518.91" y="-15.8" font-family="Times,serif" font-size="9.00">gripper_state open</text>
</g>
<!-- Fallback &#160;&#160;&#160;&#160;&#160;&#45;&gt;gripper_state open  -->
<g id="edge22" class="edge">
<title>Fallback &#160;&#160;&#160;&#160;&#160;&#45;&gt;gripper_state open </title>
<path fill="none" stroke="black" d="M565.91,-72.05C558.29,-63.46 548.9,-52.86 540.52,-43.4"/>
<polygon fill="black" stroke="black" points="543.04,-40.95 533.79,-35.79 537.8,-45.6 543.04,-40.95"/>
</g>
<!-- open_gripper  -->
<g id="node24" class="node">
<title>open_gripper </title>
<ellipse fill="lightgray" stroke="black" cx="642.91" cy="-18" rx="45.72" ry="18"/>
<text text-anchor="middle" x="642.91" y="-15.8" font-family="Times,serif" font-size="9.00">open_gripper</text>
</g>
<!-- Fallback &#160;&#160;&#160;&#160;&#160;&#45;&gt;open_gripper  -->
<g id="edge23" class="edge">
<title>Fallback &#160;&#160;&#160;&#160;&#160;&#45;&gt;open_gripper </title>
<path fill="none" stroke="black" d="M595.92,-72.05C603.65,-63.33 613.2,-52.54 621.67,-42.98"/>
<polygon fill="black" stroke="black" points="624.46,-45.11 628.47,-35.31 619.22,-40.47 624.46,-45.11"/>
</g>
<!-- object_at GreenBox [0.0, &#45;0.133, 0.175] 0.02 KittingBox -->
<g id="node28" class="node">
<title>object_at GreenBox [0.0, &#45;0.133, 0.175] 0.02 KittingBox</title>
<ellipse fill="lightgray" stroke="black" cx="716.91" cy="-450" rx="160.51" ry="18"/>
<text text-anchor="middle" x="716.91" y="-447.8" font-family="Times,serif" font-size="9.00">object_at GreenBox [0.0, &#45;0.133, 0.175] 0.02 KittingBox</text>
</g>
<!-- Fallback &#160;&#160;&#160;&#160;&#160;&#160;&#45;&gt;object_at GreenBox [0.0, &#45;0.133, 0.175] 0.02 KittingBox -->
<g id="edge27" class="edge">
<title>Fallback &#160;&#160;&#160;&#160;&#160;&#160;&#45;&gt;object_at GreenBox [0.0, &#45;0.133, 0.175] 0.02 KittingBox</title>
<path fill="none" stroke="black" d="M897.72,-511.27C866.17,-500.75 815.07,-483.72 775.24,-470.44"/>
<polygon fill="black" stroke="black" points="776.22,-467.08 765.63,-467.24 774.01,-473.72 776.22,-467.08"/>
</g>
<!-- Sequence &#160;&#160;&#160;&#160;&#160; -->
<g id="node29" class="node">
<title>Sequence &#160;&#160;&#160;&#160;&#160;</title>
<polygon fill="orange" stroke="black" points="957.91,-468 895.91,-468 895.91,-432 957.91,-432 957.91,-468"/>
<text text-anchor="middle" x="926.91" y="-447.8" font-family="Times,serif" font-size="9.00">Sequence</text>
</g>
<!-- Fallback &#160;&#160;&#160;&#160;&#160;&#160;&#45;&gt;Sequence &#160;&#160;&#160;&#160;&#160; -->
<g id="edge28" class="edge">
<title>Fallback &#160;&#160;&#160;&#160;&#160;&#160;&#45;&gt;Sequence &#160;&#160;&#160;&#160;&#160;</title>
<path fill="none" stroke="black" d="M926.91,-503.7C926.91,-495.98 926.91,-486.71 926.91,-478.11"/>
<polygon fill="black" stroke="black" points="930.42,-478.1 926.91,-468.1 923.42,-478.1 930.42,-478.1"/>
</g>
<!-- Fallback &#160;&#160;&#160;&#160;&#160;&#160;&#160; -->
<g id="node30" class="node">
<title>Fallback &#160;&#160;&#160;&#160;&#160;&#160;&#160;</title>
<polygon fill="cyan" stroke="black" points="913.91,-370.54 913.91,-385.46 893.41,-396 864.42,-396 843.92,-385.46 843.92,-370.54 864.42,-360 893.41,-360 913.91,-370.54"/>
<text text-anchor="middle" x="878.91" y="-375.8" font-family="Times,serif" font-size="9.00">Fallback</text>
</g>
<!-- Sequence &#160;&#160;&#160;&#160;&#160;&#45;&gt;Fallback &#160;&#160;&#160;&#160;&#160;&#160;&#160; -->
<g id="edge29" class="edge">
<title>Sequence &#160;&#160;&#160;&#160;&#160;&#45;&gt;Fallback &#160;&#160;&#160;&#160;&#160;&#160;&#160;</title>
<path fill="none" stroke="black" d="M915.05,-431.7C909.41,-423.47 902.56,-413.48 896.35,-404.42"/>
<polygon fill="black" stroke="black" points="899.19,-402.37 890.64,-396.1 893.41,-406.33 899.19,-402.37"/>
</g>
<!-- place0 GreenBox [0.0, &#45;0.133, 0.175] 0.02 KittingBox -->
<g id="node37" class="node">
<title>place0 GreenBox [0.0, &#45;0.133, 0.175] 0.02 KittingBox</title>
<ellipse fill="lightgray" stroke="black" cx="1085.91" cy="-378" rx="154.31" ry="18"/>
<text text-anchor="middle" x="1085.91" y="-375.8" font-family="Times,serif" font-size="9.00">place0 GreenBox [0.0, &#45;0.133, 0.175] 0.02 KittingBox</text>
</g>
<!-- Sequence &#160;&#160;&#160;&#160;&#160;&#45;&gt;place0 GreenBox [0.0, &#45;0.133, 0.175] 0.02 KittingBox -->
<g id="edge36" class="edge">
<title>Sequence &#160;&#160;&#160;&#160;&#160;&#45;&gt;place0 GreenBox [0.0, &#45;0.133, 0.175] 0.02 KittingBox</title>
<path fill="none" stroke="black" d="M957.95,-435.34C980.97,-425.2 1012.76,-411.21 1038.89,-399.7"/>
<polygon fill="black" stroke="black" points="1040.49,-402.82 1048.24,-395.59 1037.67,-396.41 1040.49,-402.82"/>
</g>
<!-- in_gripper GreenBox  -->
<g id="node31" class="node">
<title>in_gripper GreenBox </title>
<ellipse fill="lightgray" stroke="black" cx="873.91" cy="-306" rx="65.64" ry="18"/>
<text text-anchor="middle" x="873.91" y="-303.8" font-family="Times,serif" font-size="9.00">in_gripper GreenBox</text>
</g>
<!-- Fallback &#160;&#160;&#160;&#160;&#160;&#160;&#160;&#45;&gt;in_gripper GreenBox  -->
<g id="edge30" class="edge">
<title>Fallback &#160;&#160;&#160;&#160;&#160;&#160;&#160;&#45;&gt;in_gripper GreenBox </title>
<path fill="none" stroke="black" d="M877.68,-359.7C877.13,-351.98 876.47,-342.71 875.85,-334.11"/>
<polygon fill="black" stroke="black" points="879.34,-333.83 875.14,-324.1 872.36,-334.33 879.34,-333.83"/>
</g>
<!-- Sequence &#160;&#160;&#160;&#160;&#160;&#160; -->
<g id="node32" class="node">
<title>Sequence &#160;&#160;&#160;&#160;&#160;&#160;</title>
<polygon fill="orange" stroke="black" points="1019.91,-324 957.91,-324 957.91,-288 1019.91,-288 1019.91,-324"/>
<text text-anchor="middle" x="988.91" y="-303.8" font-family="Times,serif" font-size="9.00">Sequence</text>
</g>
<!-- Fallback &#160;&#160;&#160;&#160;&#160;&#160;&#160;&#45;&gt;Sequence &#160;&#160;&#160;&#160;&#160;&#160; -->
<g id="edge31" class="edge">
<title>Fallback &#160;&#160;&#160;&#160;&#160;&#160;&#160;&#45;&gt;Sequence &#160;&#160;&#160;&#160;&#160;&#160;</title>
<path fill="none" stroke="black" d="M900.39,-363.34C915.4,-353.78 935.8,-340.8 953.24,-329.7"/>
<polygon fill="black" stroke="black" points="955.49,-332.42 962.04,-324.1 951.73,-326.52 955.49,-332.42"/>
</g>
<!-- Fallback &#160;&#160;&#160;&#160;&#160;&#160;&#160;&#160; -->
<g id="node33" class="node">
<title>Fallback &#160;&#160;&#160;&#160;&#160;&#160;&#160;&#160;</title>
<polygon fill="cyan" stroke="black" points="996.91,-226.54 996.91,-241.46 976.41,-252 947.42,-252 926.92,-241.46 926.92,-226.54 947.42,-216 976.41,-216 996.91,-226.54"/>
<text text-anchor="middle" x="961.91" y="-231.8" font-family="Times,serif" font-size="9.00">Fallback</text>
</g>
<!-- Sequence &#160;&#160;&#160;&#160;&#160;&#160;&#45;&gt;Fallback &#160;&#160;&#160;&#160;&#160;&#160;&#160;&#160; -->
<g id="edge32" class="edge">
<title>Sequence &#160;&#160;&#160;&#160;&#160;&#160;&#45;&gt;Fallback &#160;&#160;&#160;&#160;&#160;&#160;&#160;&#160;</title>
<path fill="none" stroke="black" d="M982.24,-287.7C979.2,-279.81 975.53,-270.3 972.15,-261.55"/>
<polygon fill="black" stroke="black" points="975.38,-260.17 968.51,-252.1 968.85,-262.69 975.38,-260.17"/>
</g>
<!-- pick0 GreenBox  -->
<g id="node36" class="node">
<title>pick0 GreenBox </title>
<ellipse fill="lightgray" stroke="black" cx="1067.91" cy="-234" rx="52.58" ry="18"/>
<text text-anchor="middle" x="1067.91" y="-231.8" font-family="Times,serif" font-size="9.00">pick0 GreenBox</text>
</g>
<!-- Sequence &#160;&#160;&#160;&#160;&#160;&#160;&#45;&gt;pick0 GreenBox  -->
<g id="edge35" class="edge">
<title>Sequence &#160;&#160;&#160;&#160;&#160;&#160;&#45;&gt;pick0 GreenBox </title>
<path fill="none" stroke="black" d="M1008.44,-287.7C1018.59,-278.7 1031.13,-267.6 1042.07,-257.9"/>
<polygon fill="black" stroke="black" points="1044.53,-260.4 1049.69,-251.14 1039.89,-255.16 1044.53,-260.4"/>
</g>
<!-- gripper_state open &#160; -->
<g id="node34" class="node">
<title>gripper_state open &#160;</title>
<ellipse fill="lightgray" stroke="black" cx="899.91" cy="-162" rx="60.09" ry="18"/>
<text text-anchor="middle" x="899.91" y="-159.8" font-family="Times,serif" font-size="9.00">gripper_state open</text>
</g>
<!-- Fallback &#160;&#160;&#160;&#160;&#160;&#160;&#160;&#160;&#45;&gt;gripper_state open &#160; -->
<g id="edge33" class="edge">
<title>Fallback &#160;&#160;&#160;&#160;&#160;&#160;&#160;&#160;&#45;&gt;gripper_state open &#160;</title>
<path fill="none" stroke="black" d="M946.91,-216.05C939.29,-207.46 929.9,-196.86 921.52,-187.4"/>
<polygon fill="black" stroke="black" points="924.04,-184.95 914.79,-179.79 918.8,-189.6 924.04,-184.95"/>
</g>
<!-- open_gripper &#160; -->
<g id="node35" class="node">
<title>open_gripper &#160;</title>
<ellipse fill="lightgray" stroke="black" cx="1023.91" cy="-162" rx="45.72" ry="18"/>
<text text-anchor="middle" x="1023.91" y="-159.8" font-family="Times,serif" font-size="9.00">open_gripper</text>
</g>
<!-- Fallback &#160;&#160;&#160;&#160;&#160;&#160;&#160;&#160;&#45;&gt;open_gripper &#160; -->
<g id="edge34" class="edge">
<title>Fallback &#160;&#160;&#160;&#160;&#160;&#160;&#160;&#160;&#45;&gt;open_gripper &#160;</title>
<path fill="none" stroke="black" d="M976.92,-216.05C984.65,-207.33 994.2,-196.54 1002.67,-186.98"/>
<polygon fill="black" stroke="black" points="1005.46,-189.11 1009.47,-179.31 1000.22,-184.47 1005.46,-189.11"/>
</g>
<!-- object_at BlueBox [0.0, 0.0, 0.22] 0.02 GreenBox -->
<g id="node39" class="node">
<title>object_at BlueBox [0.0, 0.0, 0.22] 0.02 GreenBox</title>
<ellipse fill="lightgray" stroke="black" cx="1117.91" cy="-450" rx="142.06" ry="18"/>
<text text-anchor="middle" x="1117.91" y="-447.8" font-family="Times,serif" font-size="9.00">object_at BlueBox [0.0, 0.0, 0.22] 0.02 GreenBox</text>
</g>
<!-- Fallback &#160;&#160;&#160;&#160;&#160;&#160;&#160;&#160;&#160;&#45;&gt;object_at BlueBox [0.0, 0.0, 0.22] 0.02 GreenBox -->
<g id="edge38" class="edge">
<title>Fallback &#160;&#160;&#160;&#160;&#160;&#160;&#160;&#160;&#160;&#45;&gt;object_at BlueBox [0.0, 0.0, 0.22] 0.02 GreenBox</title>
<path fill="none" stroke="black" d="M1117.91,-503.7C1117.91,-495.98 1117.91,-486.71 1117.91,-478.11"/>
<polygon fill="black" stroke="black" points="1121.42,-478.1 1117.91,-468.1 1114.42,-478.1 1121.42,-478.1"/>
</g>
<!-- Sequence &#160;&#160;&#160;&#160;&#160;&#160;&#160; -->
<g id="node40" class="node">
<title>Sequence &#160;&#160;&#160;&#160;&#160;&#160;&#160;</title>
<polygon fill="orange" stroke="black" points="1339.91,-468 1277.91,-468 1277.91,-432 1339.91,-432 1339.91,-468"/>
<text text-anchor="middle" x="1308.91" y="-447.8" font-family="Times,serif" font-size="9.00">Sequence</text>
</g>
<!-- Fallback &#160;&#160;&#160;&#160;&#160;&#160;&#160;&#160;&#160;&#45;&gt;Sequence &#160;&#160;&#160;&#160;&#160;&#160;&#160; -->
<g id="edge39" class="edge">
<title>Fallback &#160;&#160;&#160;&#160;&#160;&#160;&#160;&#160;&#160;&#45;&gt;Sequence &#160;&#160;&#160;&#160;&#160;&#160;&#160;</title>
<path fill="none" stroke="black" d="M1147.07,-511.39C1175.72,-501.81 1220.86,-486.35 1268.08,-468.22"/>
<polygon fill="black" stroke="black" points="1269.49,-471.43 1277.55,-464.56 1266.96,-464.9 1269.49,-471.43"/>
</g>
<!-- Fallback &#160;&#160;&#160;&#160;&#160;&#160;&#160;&#160;&#160;&#160; -->
<g id="node41" class="node">
<title>Fallback &#160;&#160;&#160;&#160;&#160;&#160;&#160;&#160;&#160;&#160;</title>
<polygon fill="cyan" stroke="black" points="1337.91,-370.54 1337.91,-385.46 1317.41,-396 1288.42,-396 1267.92,-385.46 1267.92,-370.54 1288.42,-360 1317.41,-360 1337.91,-370.54"/>
<text text-anchor="middle" x="1302.91" y="-375.8" font-family="Times,serif" font-size="9.00">Fallback</text>
</g>
<!-- Sequence &#160;&#160;&#160;&#160;&#160;&#160;&#160;&#45;&gt;Fallback &#160;&#160;&#160;&#160;&#160;&#160;&#160;&#160;&#160;&#160; -->
<g id="edge40" class="edge">
<title>Sequence &#160;&#160;&#160;&#160;&#160;&#160;&#160;&#45;&gt;Fallback &#160;&#160;&#160;&#160;&#160;&#160;&#160;&#160;&#160;&#160;</title>
<path fill="none" stroke="black" d="M1307.43,-431.7C1306.77,-423.98 1305.98,-414.71 1305.24,-406.11"/>
<polygon fill="black" stroke="black" points="1308.72,-405.77 1304.38,-396.1 1301.75,-406.37 1308.72,-405.77"/>
</g>
<!-- place0 BlueBox [0.0, 0.0, 0.22] 0.02 GreenBox -->
<g id="node48" class="node">
<title>place0 BlueBox [0.0, 0.0, 0.22] 0.02 GreenBox</title>
<ellipse fill="lightgray" stroke="black" cx="1491.91" cy="-378" rx="135.85" ry="18"/>
<text text-anchor="middle" x="1491.91" y="-375.8" font-family="Times,serif" font-size="9.00">place0 BlueBox [0.0, 0.0, 0.22] 0.02 GreenBox</text>
</g>
<!-- Sequence &#160;&#160;&#160;&#160;&#160;&#160;&#160;&#45;&gt;place0 BlueBox [0.0, 0.0, 0.22] 0.02 GreenBox -->
<g id="edge47" class="edge">
<title>Sequence &#160;&#160;&#160;&#160;&#160;&#160;&#160;&#45;&gt;place0 BlueBox [0.0, 0.0, 0.22] 0.02 GreenBox</title>
<path fill="none" stroke="black" d="M1340.3,-435.5C1343.21,-434.3 1346.11,-433.12 1348.91,-432 1377.95,-420.46 1410.6,-408.29 1437.37,-398.54"/>
<polygon fill="black" stroke="black" points="1438.74,-401.76 1446.94,-395.05 1436.35,-395.18 1438.74,-401.76"/>
</g>
<!-- in_gripper BlueBox  -->
<g id="node42" class="node">
<title>in_gripper BlueBox </title>
<ellipse fill="lightgray" stroke="black" cx="1256.91" cy="-306" rx="61.55" ry="18"/>
<text text-anchor="middle" x="1256.91" y="-303.8" font-family="Times,serif" font-size="9.00">in_gripper BlueBox</text>
</g>
<!-- Fallback &#160;&#160;&#160;&#160;&#160;&#160;&#160;&#160;&#160;&#160;&#45;&gt;in_gripper BlueBox  -->
<g id="edge41" class="edge">
<title>Fallback &#160;&#160;&#160;&#160;&#160;&#160;&#160;&#160;&#160;&#160;&#45;&gt;in_gripper BlueBox </title>
<path fill="none" stroke="black" d="M1291.54,-359.7C1286.2,-351.56 1279.71,-341.69 1273.8,-332.7"/>
<polygon fill="black" stroke="black" points="1276.57,-330.54 1268.15,-324.1 1270.72,-334.38 1276.57,-330.54"/>
</g>
<!-- Sequence &#160;&#160;&#160;&#160;&#160;&#160;&#160;&#160; -->
<g id="node43" class="node">
<title>Sequence &#160;&#160;&#160;&#160;&#160;&#160;&#160;&#160;</title>
<polygon fill="orange" stroke="black" points="1398.91,-324 1336.91,-324 1336.91,-288 1398.91,-288 1398.91,-324"/>
<text text-anchor="middle" x="1367.91" y="-303.8" font-family="Times,serif" font-size="9.00">Sequence</text>
</g>
<!-- Fallback &#160;&#160;&#160;&#160;&#160;&#160;&#160;&#160;&#160;&#160;&#45;&gt;Sequence &#160;&#160;&#160;&#160;&#160;&#160;&#160;&#160; -->
<g id="edge42" class="edge">
<title>Fallback &#160;&#160;&#160;&#160;&#160;&#160;&#160;&#160;&#160;&#160;&#45;&gt;Sequence &#160;&#160;&#160;&#160;&#160;&#160;&#160;&#160;</title>
<path fill="none" stroke="black" d="M1318.32,-360.41C1326.18,-351.95 1335.9,-341.47 1344.66,-332.05"/>
<polygon fill="black" stroke="black" points="1347.47,-334.16 1351.71,-324.45 1342.35,-329.39 1347.47,-334.16"/>
</g>
<!-- Fallback &#160;&#160;&#160;&#160;&#160;&#160;&#160;&#160;&#160;&#160;&#160; -->
<g id="node44" class="node">
<title>Fallback &#160;&#160;&#160;&#160;&#160;&#160;&#160;&#160;&#160;&#160;&#160;</title>
<polygon fill="cyan" stroke="black" points="1352.91,-226.54 1352.91,-241.46 1332.41,-252 1303.42,-252 1282.92,-241.46 1282.92,-226.54 1303.42,-216 1332.41,-216 1352.91,-226.54"/>
<text text-anchor="middle" x="1317.91" y="-231.8" font-family="Times,serif" font-size="9.00">Fallback</text>
</g>
<!-- Sequence &#160;&#160;&#160;&#160;&#160;&#160;&#160;&#160;&#45;&gt;Fallback &#160;&#160;&#160;&#160;&#160;&#160;&#160;&#160;&#160;&#160;&#160; -->
<g id="edge43" class="edge">
<title>Sequence &#160;&#160;&#160;&#160;&#160;&#160;&#160;&#160;&#45;&gt;Fallback &#160;&#160;&#160;&#160;&#160;&#160;&#160;&#160;&#160;&#160;&#160;</title>
<path fill="none" stroke="black" d="M1355.56,-287.7C1349.68,-279.47 1342.55,-269.48 1336.07,-260.42"/>
<polygon fill="black" stroke="black" points="1338.79,-258.21 1330.13,-252.1 1333.1,-262.28 1338.79,-258.21"/>
</g>
<!-- pick0 BlueBox  -->
<g id="node47" class="node">
<title>pick0 BlueBox </title>
<ellipse fill="lightgray" stroke="black" cx="1418.91" cy="-234" rx="47.84" ry="18"/>
<text text-anchor="middle" x="1418.91" y="-231.8" font-family="Times,serif" font-size="9.00">pick0 BlueBox</text>
</g>
<!-- Sequence &#160;&#160;&#160;&#160;&#160;&#160;&#160;&#160;&#45;&gt;pick0 BlueBox  -->
<g id="edge46" class="edge">
<title>Sequence &#160;&#160;&#160;&#160;&#160;&#160;&#160;&#160;&#45;&gt;pick0 BlueBox </title>
<path fill="none" stroke="black" d="M1380.52,-287.7C1386.66,-279.27 1394.16,-268.97 1400.9,-259.73"/>
<polygon fill="black" stroke="black" points="1403.74,-261.77 1406.8,-251.62 1398.09,-257.64 1403.74,-261.77"/>
</g>
<!-- gripper_state open &#160;&#160; -->
<g id="node45" class="node">
<title>gripper_state open &#160;&#160;</title>
<ellipse fill="lightgray" stroke="black" cx="1255.91" cy="-162" rx="60.09" ry="18"/>
<text text-anchor="middle" x="1255.91" y="-159.8" font-family="Times,serif" font-size="9.00">gripper_state open</text>
</g>
<!-- Fallback &#160;&#160;&#160;&#160;&#160;&#160;&#160;&#160;&#160;&#160;&#160;&#45;&gt;gripper_state open &#160;&#160; -->
<g id="edge44" class="edge">
<title>Fallback &#160;&#160;&#160;&#160;&#160;&#160;&#160;&#160;&#160;&#160;&#160;&#45;&gt;gripper_state open &#160;&#160;</title>
<path fill="none" stroke="black" d="M1302.91,-216.05C1295.29,-207.46 1285.9,-196.86 1277.52,-187.4"/>
<polygon fill="black" stroke="black" points="1280.04,-184.95 1270.79,-179.79 1274.8,-189.6 1280.04,-184.95"/>
</g>
<!-- open_gripper &#160;&#160; -->
<g id="node46" class="node">
<title>open_gripper &#160;&#160;</title>
<ellipse fill="lightgray" stroke="black" cx="1379.91" cy="-162" rx="45.72" ry="18"/>
<text text-anchor="middle" x="1379.91" y="-159.8" font-family="Times,serif" font-size="9.00">open_gripper</text>
</g>
<!-- Fallback &#160;&#160;&#160;&#160;&#160;&#160;&#160;&#160;&#160;&#160;&#160;&#45;&gt;open_gripper &#160;&#160; -->
<g id="edge45" class="edge">
<title>Fallback &#160;&#160;&#160;&#160;&#160;&#160;&#160;&#160;&#160;&#160;&#160;&#45;&gt;open_gripper &#160;&#160;</title>
<path fill="none" stroke="black" d="M1332.92,-216.05C1340.65,-207.33 1350.2,-196.54 1358.67,-186.98"/>
<polygon fill="black" stroke="black" points="1361.46,-189.11 1365.47,-179.31 1356.22,-184.47 1361.46,-189.11"/>
</g>
<!-- object_at YellowBox [0.0, 0.12, 0.12] 0.02 GreenBox -->
<g id="node50" class="node">
<title>object_at YellowBox [0.0, 0.12, 0.12] 0.02 GreenBox</title>
<ellipse fill="lightgray" stroke="black" cx="1507.91" cy="-450" rx="150.22" ry="18"/>
<text text-anchor="middle" x="1507.91" y="-447.8" font-family="Times,serif" font-size="9.00">object_at YellowBox [0.0, 0.12, 0.12] 0.02 GreenBox</text>
</g>
<!-- Fallback &#160;&#160;&#160;&#160;&#160;&#160;&#160;&#160;&#160;&#160;&#160;&#160;&#45;&gt;object_at YellowBox [0.0, 0.12, 0.12] 0.02 GreenBox -->
<g id="edge49" class="edge">
<title>Fallback &#160;&#160;&#160;&#160;&#160;&#160;&#160;&#160;&#160;&#160;&#160;&#160;&#45;&gt;object_at YellowBox [0.0, 0.12, 0.12] 0.02 GreenBox</title>
<path fill="none" stroke="black" d="M1507.91,-503.7C1507.91,-495.98 1507.91,-486.71 1507.91,-478.11"/>
<polygon fill="black" stroke="black" points="1511.42,-478.1 1507.91,-468.1 1504.42,-478.1 1511.42,-478.1"/>
</g>
<!-- Sequence &#160;&#160;&#160;&#160;&#160;&#160;&#160;&#160;&#160; -->
<g id="node51" class="node">
<title>Sequence &#160;&#160;&#160;&#160;&#160;&#160;&#160;&#160;&#160;</title>
<polygon fill="orange" stroke="black" points="1737.91,-468 1675.91,-468 1675.91,-432 1737.91,-432 1737.91,-468"/>
<text text-anchor="middle" x="1706.91" y="-447.8" font-family="Times,serif" font-size="9.00">Sequence</text>
</g>
<!-- Fallback &#160;&#160;&#160;&#160;&#160;&#160;&#160;&#160;&#160;&#160;&#160;&#160;&#45;&gt;Sequence &#160;&#160;&#160;&#160;&#160;&#160;&#160;&#160;&#160; -->
<g id="edge50" class="edge">
<title>Fallback &#160;&#160;&#160;&#160;&#160;&#160;&#160;&#160;&#160;&#160;&#160;&#160;&#45;&gt;Sequence &#160;&#160;&#160;&#160;&#160;&#160;&#160;&#160;&#160;</title>
<path fill="none" stroke="black" d="M1537.76,-511.84C1567.96,-502.4 1616.14,-486.87 1665.93,-468.24"/>
<polygon fill="black" stroke="black" points="1667.45,-471.41 1675.57,-464.6 1664.98,-464.86 1667.45,-471.41"/>
</g>
<!-- Fallback &#160;&#160;&#160;&#160;&#160;&#160;&#160;&#160;&#160;&#160;&#160;&#160;&#160; -->
<g id="node52" class="node">
<title>Fallback &#160;&#160;&#160;&#160;&#160;&#160;&#160;&#160;&#160;&#160;&#160;&#160;&#160;</title>
<polygon fill="cyan" stroke="black" points="1730.91,-370.54 1730.91,-385.46 1710.41,-396 1681.42,-396 1660.92,-385.46 1660.92,-370.54 1681.42,-360 1710.41,-360 1730.91,-370.54"/>
<text text-anchor="middle" x="1695.91" y="-375.8" font-family="Times,serif" font-size="9.00">Fallback</text>
</g>
<!-- Sequence &#160;&#160;&#160;&#160;&#160;&#160;&#160;&#160;&#160;&#45;&gt;Fallback &#160;&#160;&#160;&#160;&#160;&#160;&#160;&#160;&#160;&#160;&#160;&#160;&#160; -->
<g id="edge51" class="edge">
<title>Sequence &#160;&#160;&#160;&#160;&#160;&#160;&#160;&#160;&#160;&#45;&gt;Fallback &#160;&#160;&#160;&#160;&#160;&#160;&#160;&#160;&#160;&#160;&#160;&#160;&#160;</title>
<path fill="none" stroke="black" d="M1704.2,-431.7C1702.98,-423.98 1701.53,-414.71 1700.18,-406.11"/>
<polygon fill="black" stroke="black" points="1703.61,-405.44 1698.6,-396.1 1696.7,-406.53 1703.61,-405.44"/>
</g>
<!-- place0 YellowBox [0.0, 0.12, 0.12] 0.02 GreenBox -->
<g id="node59" class="node">
<title>place0 YellowBox [0.0, 0.12, 0.12] 0.02 GreenBox</title>
<ellipse fill="lightgray" stroke="black" cx="1892.91" cy="-378" rx="143.52" ry="18"/>
<text text-anchor="middle" x="1892.91" y="-375.8" font-family="Times,serif" font-size="9.00">place0 YellowBox [0.0, 0.12, 0.12] 0.02 GreenBox</text>
</g>
<!-- Sequence &#160;&#160;&#160;&#160;&#160;&#160;&#160;&#160;&#160;&#45;&gt;place0 YellowBox [0.0, 0.12, 0.12] 0.02 GreenBox -->
<g id="edge58" class="edge">
<title>Sequence &#160;&#160;&#160;&#160;&#160;&#160;&#160;&#160;&#160;&#45;&gt;place0 YellowBox [0.0, 0.12, 0.12] 0.02 GreenBox</title>
<path fill="none" stroke="black" d="M1738.05,-437.28C1765.91,-426.8 1807.33,-411.21 1840.32,-398.79"/>
<polygon fill="black" stroke="black" points="1841.7,-402.01 1849.83,-395.22 1839.23,-395.46 1841.7,-402.01"/>
</g>
<!-- in_gripper YellowBox -->
<g id="node53" class="node">
<title>in_gripper YellowBox</title>
<ellipse fill="lightgray" stroke="black" cx="1638.91" cy="-306" rx="66.29" ry="18"/>
<text text-anchor="middle" x="1638.91" y="-303.8" font-family="Times,serif" font-size="9.00">in_gripper YellowBox</text>
</g>
<!-- Fallback &#160;&#160;&#160;&#160;&#160;&#160;&#160;&#160;&#160;&#160;&#160;&#160;&#160;&#45;&gt;in_gripper YellowBox -->
<g id="edge52" class="edge">
<title>Fallback &#160;&#160;&#160;&#160;&#160;&#160;&#160;&#160;&#160;&#160;&#160;&#160;&#160;&#45;&gt;in_gripper YellowBox</title>
<path fill="none" stroke="black" d="M1681.83,-359.7C1674.89,-351.18 1666.41,-340.76 1658.82,-331.45"/>
<polygon fill="black" stroke="black" points="1661.48,-329.17 1652.45,-323.62 1656.05,-333.59 1661.48,-329.17"/>
</g>
<!-- Sequence &#160;&#160;&#160;&#160;&#160;&#160;&#160;&#160;&#160;&#160; -->
<g id="node54" class="node">
<title>Sequence &#160;&#160;&#160;&#160;&#160;&#160;&#160;&#160;&#160;&#160;</title>
<polygon fill="orange" stroke="black" points="1784.91,-324 1722.91,-324 1722.91,-288 1784.91,-288 1784.91,-324"/>
<text text-anchor="middle" x="1753.91" y="-303.8" font-family="Times,serif" font-size="9.00">Sequence</text>
</g>
<!-- Fallback &#160;&#160;&#160;&#160;&#160;&#160;&#160;&#160;&#160;&#160;&#160;&#160;&#160;&#45;&gt;Sequence &#160;&#160;&#160;&#160;&#160;&#160;&#160;&#160;&#160;&#160; -->
<g id="edge53" class="edge">
<title>Fallback &#160;&#160;&#160;&#160;&#160;&#160;&#160;&#160;&#160;&#160;&#160;&#160;&#160;&#45;&gt;Sequence &#160;&#160;&#160;&#160;&#160;&#160;&#160;&#160;&#160;&#160;</title>
<path fill="none" stroke="black" d="M1710.25,-359.7C1717.21,-351.3 1725.69,-341.07 1733.32,-331.86"/>
<polygon fill="black" stroke="black" points="1736.06,-334.04 1739.74,-324.1 1730.67,-329.57 1736.06,-334.04"/>
</g>
<!-- Fallback &#160;&#160;&#160;&#160;&#160;&#160;&#160;&#160;&#160;&#160;&#160;&#160;&#160;&#160; -->
<g id="node55" class="node">
<title>Fallback &#160;&#160;&#160;&#160;&#160;&#160;&#160;&#160;&#160;&#160;&#160;&#160;&#160;&#160;</title>
<polygon fill="cyan" stroke="black" points="1735.91,-226.54 1735.91,-241.46 1715.41,-252 1686.42,-252 1665.92,-241.46 1665.92,-226.54 1686.42,-216 1715.41,-216 1735.91,-226.54"/>
<text text-anchor="middle" x="1700.91" y="-231.8" font-family="Times,serif" font-size="9.00">Fallback</text>
</g>
<!-- Sequence &#160;&#160;&#160;&#160;&#160;&#160;&#160;&#160;&#160;&#160;&#45;&gt;Fallback &#160;&#160;&#160;&#160;&#160;&#160;&#160;&#160;&#160;&#160;&#160;&#160;&#160;&#160; -->
<g id="edge54" class="edge">
<title>Sequence &#160;&#160;&#160;&#160;&#160;&#160;&#160;&#160;&#160;&#160;&#45;&gt;Fallback &#160;&#160;&#160;&#160;&#160;&#160;&#160;&#160;&#160;&#160;&#160;&#160;&#160;&#160;</title>
<path fill="none" stroke="black" d="M1740.81,-287.7C1734.52,-279.39 1726.87,-269.28 1719.95,-260.14"/>
<polygon fill="black" stroke="black" points="1722.69,-257.96 1713.87,-252.1 1717.11,-262.19 1722.69,-257.96"/>
</g>
<!-- pick0 YellowBox -->
<g id="node58" class="node">
<title>pick0 YellowBox</title>
<ellipse fill="lightgray" stroke="black" cx="1806.91" cy="-234" rx="53.23" ry="18"/>
<text text-anchor="middle" x="1806.91" y="-231.8" font-family="Times,serif" font-size="9.00">pick0 YellowBox</text>
</g>
<!-- Sequence &#160;&#160;&#160;&#160;&#160;&#160;&#160;&#160;&#160;&#160;&#45;&gt;pick0 YellowBox -->
<g id="edge57" class="edge">
<title>Sequence &#160;&#160;&#160;&#160;&#160;&#160;&#160;&#160;&#160;&#160;&#45;&gt;pick0 YellowBox</title>
<path fill="none" stroke="black" d="M1767.02,-287.7C1773.4,-279.27 1781.19,-268.97 1788.19,-259.73"/>
<polygon fill="black" stroke="black" points="1791.08,-261.71 1794.33,-251.62 1785.5,-257.48 1791.08,-261.71"/>
</g>
<!-- gripper_state open &#160;&#160;&#160; -->
<g id="node56" class="node">
<title>gripper_state open &#160;&#160;&#160;</title>
<ellipse fill="lightgray" stroke="black" cx="1638.91" cy="-162" rx="60.09" ry="18"/>
<text text-anchor="middle" x="1638.91" y="-159.8" font-family="Times,serif" font-size="9.00">gripper_state open</text>
</g>
<!-- Fallback &#160;&#160;&#160;&#160;&#160;&#160;&#160;&#160;&#160;&#160;&#160;&#160;&#160;&#160;&#45;&gt;gripper_state open &#160;&#160;&#160; -->
<g id="edge55" class="edge">
<title>Fallback &#160;&#160;&#160;&#160;&#160;&#160;&#160;&#160;&#160;&#160;&#160;&#160;&#160;&#160;&#45;&gt;gripper_state open &#160;&#160;&#160;</title>
<path fill="none" stroke="black" d="M1685.91,-216.05C1678.29,-207.46 1668.9,-196.86 1660.52,-187.4"/>
<polygon fill="black" stroke="black" points="1663.04,-184.95 1653.79,-179.79 1657.8,-189.6 1663.04,-184.95"/>
</g>
<!-- open_gripper &#160;&#160;&#160; -->
<g id="node57" class="node">
<title>open_gripper &#160;&#160;&#160;</title>
<ellipse fill="lightgray" stroke="black" cx="1762.91" cy="-162" rx="45.72" ry="18"/>
<text text-anchor="middle" x="1762.91" y="-159.8" font-family="Times,serif" font-size="9.00">open_gripper</text>
</g>
<!-- Fallback &#160;&#160;&#160;&#160;&#160;&#160;&#160;&#160;&#160;&#160;&#160;&#160;&#160;&#160;&#45;&gt;open_gripper &#160;&#160;&#160; -->
<g id="edge56" class="edge">
<title>Fallback &#160;&#160;&#160;&#160;&#160;&#160;&#160;&#160;&#160;&#160;&#160;&#160;&#160;&#160;&#45;&gt;open_gripper &#160;&#160;&#160;</title>
<path fill="none" stroke="black" d="M1715.92,-216.05C1723.65,-207.33 1733.2,-196.54 1741.67,-186.98"/>
<polygon fill="black" stroke="black" points="1744.46,-189.11 1748.47,-179.31 1739.22,-184.47 1744.46,-189.11"/>
</g>
</g>
</svg>
