<?xml version="1.0" encoding="UTF-8" standalone="no"?>
<!DOCTYPE svg PUBLIC "-//W3C//DTD SVG 1.1//EN"
 "http://www.w3.org/Graphics/SVG/1.1/DTD/svg11.dtd">
<!-- Generated by graphviz version 2.43.0 (0)
 -->
<!-- Title: pastafarianism Pages: 1 -->
<svg width="759pt" height="476pt"
 viewBox="0.00 0.00 759.09 476.00" xmlns="http://www.w3.org/2000/svg" xmlns:xlink="http://www.w3.org/1999/xlink">
<g id="graph0" class="graph" transform="scale(1 1) rotate(0) translate(4 472)">
<title>pastafarianism</title>
<polygon fill="white" stroke="transparent" points="-4,4 -4,-472 755.09,-472 755.09,4 -4,4"/>
<!-- Sequence -->
<g id="node1" class="node">
<title>Sequence</title>
<polygon fill="orange" stroke="black" points="532.48,-468 470.48,-468 470.48,-432 532.48,-432 532.48,-468"/>
<text text-anchor="middle" x="501.48" y="-447.8" font-family="Times,serif" font-size="9.00">Sequence</text>
</g>
<!-- Fallback -->
<g id="node2" class="node">
<title>Fallback</title>
<polygon fill="cyan" stroke="black" points="430.48,-370.54 430.48,-385.46 409.98,-396 380.99,-396 360.49,-385.46 360.49,-370.54 380.99,-360 409.98,-360 430.48,-370.54"/>
<text text-anchor="middle" x="395.48" y="-375.8" font-family="Times,serif" font-size="9.00">Fallback</text>
</g>
<!-- Sequence&#45;&gt;Fallback -->
<g id="edge1" class="edge">
<title>Sequence&#45;&gt;Fallback</title>
<path fill="none" stroke="black" d="M475.55,-431.88C460.25,-421.77 440.82,-408.94 424.94,-398.45"/>
<polygon fill="black" stroke="black" points="426.8,-395.49 416.53,-392.9 422.94,-401.33 426.8,-395.49"/>
</g>
<!-- in_gripper none -->
<g id="node13" class="node">
<title>in_gripper none</title>
<ellipse fill="lightgray" stroke="black" cx="501.48" cy="-378" rx="52.58" ry="18"/>
<text text-anchor="middle" x="501.48" y="-375.8" font-family="Times,serif" font-size="9.00">in_gripper none</text>
</g>
<!-- Sequence&#45;&gt;in_gripper none -->
<g id="edge12" class="edge">
<title>Sequence&#45;&gt;in_gripper none</title>
<path fill="none" stroke="black" d="M501.48,-431.7C501.48,-423.98 501.48,-414.71 501.48,-406.11"/>
<polygon fill="black" stroke="black" points="504.98,-406.1 501.48,-396.1 497.98,-406.1 504.98,-406.1"/>
</g>
<!-- Fallback &#160;&#160; -->
<g id="node14" class="node">
<title>Fallback &#160;&#160;</title>
<polygon fill="cyan" stroke="black" points="642.48,-370.54 642.48,-385.46 621.98,-396 592.99,-396 572.49,-385.46 572.49,-370.54 592.99,-360 621.98,-360 642.48,-370.54"/>
<text text-anchor="middle" x="607.48" y="-375.8" font-family="Times,serif" font-size="9.00">Fallback</text>
</g>
<!-- Sequence&#45;&gt;Fallback &#160;&#160; -->
<g id="edge13" class="edge">
<title>Sequence&#45;&gt;Fallback &#160;&#160;</title>
<path fill="none" stroke="black" d="M527.41,-431.88C542.72,-421.77 562.15,-408.94 578.03,-398.45"/>
<polygon fill="black" stroke="black" points="580.03,-401.33 586.44,-392.9 576.17,-395.49 580.03,-401.33"/>
</g>
<!-- object_roughly_at GreenBox &#45;0.062 0.002 0.277 0.007 KittingBox -->
<g id="node3" class="node">
<title>object_roughly_at GreenBox &#45;0.062 0.002 0.277 0.007 KittingBox</title>
<ellipse fill="lightgray" stroke="black" cx="186.48" cy="-306" rx="186.47" ry="18"/>
<text text-anchor="middle" x="186.48" y="-303.8" font-family="Times,serif" font-size="9.00">object_roughly_at GreenBox &#45;0.062 0.002 0.277 0.007 KittingBox</text>
</g>
<!-- Fallback&#45;&gt;object_roughly_at GreenBox &#45;0.062 0.002 0.277 0.007 KittingBox -->
<g id="edge2" class="edge">
<title>Fallback&#45;&gt;object_roughly_at GreenBox &#45;0.062 0.002 0.277 0.007 KittingBox</title>
<path fill="none" stroke="black" d="M366.42,-367.27C335.13,-356.79 284.51,-339.83 244.92,-326.57"/>
<polygon fill="black" stroke="black" points="245.96,-323.23 235.37,-323.37 243.74,-329.87 245.96,-323.23"/>
</g>
<!-- Sequence  -->
<g id="node4" class="node">
<title>Sequence </title>
<polygon fill="orange" stroke="black" points="452.48,-324 390.48,-324 390.48,-288 452.48,-288 452.48,-324"/>
<text text-anchor="middle" x="421.48" y="-303.8" font-family="Times,serif" font-size="9.00">Sequence</text>
</g>
<!-- Fallback&#45;&gt;Sequence  -->
<g id="edge3" class="edge">
<title>Fallback&#45;&gt;Sequence </title>
<path fill="none" stroke="black" d="M401.91,-359.7C404.84,-351.81 408.37,-342.3 411.62,-333.55"/>
<polygon fill="black" stroke="black" points="414.93,-334.7 415.13,-324.1 408.37,-332.26 414.93,-334.7"/>
</g>
<!-- Fallback  -->
<g id="node5" class="node">
<title>Fallback </title>
<polygon fill="cyan" stroke="black" points="351.48,-226.54 351.48,-241.46 330.98,-252 301.99,-252 281.49,-241.46 281.49,-226.54 301.99,-216 330.98,-216 351.48,-226.54"/>
<text text-anchor="middle" x="316.48" y="-231.8" font-family="Times,serif" font-size="9.00">Fallback</text>
</g>
<!-- Sequence &#45;&gt;Fallback  -->
<g id="edge4" class="edge">
<title>Sequence &#45;&gt;Fallback </title>
<path fill="none" stroke="black" d="M395.8,-287.88C380.64,-277.77 361.39,-264.94 345.66,-254.45"/>
<polygon fill="black" stroke="black" points="347.59,-251.53 337.33,-248.9 343.71,-257.35 347.59,-251.53"/>
</g>
<!-- place0 GreenBox &#45;0.062 0.002 0.277 0.007 KittingBox -->
<g id="node12" class="node">
<title>place0 GreenBox &#45;0.062 0.002 0.277 0.007 KittingBox</title>
<ellipse fill="lightgray" stroke="black" cx="526.48" cy="-234" rx="157.08" ry="18"/>
<text text-anchor="middle" x="526.48" y="-231.8" font-family="Times,serif" font-size="9.00">place0 GreenBox &#45;0.062 0.002 0.277 0.007 KittingBox</text>
</g>
<!-- Sequence &#45;&gt;place0 GreenBox &#45;0.062 0.002 0.277 0.007 KittingBox -->
<g id="edge11" class="edge">
<title>Sequence &#45;&gt;place0 GreenBox &#45;0.062 0.002 0.277 0.007 KittingBox</title>
<path fill="none" stroke="black" d="M447.17,-287.88C460.87,-278.74 477.91,-267.38 492.67,-257.54"/>
<polygon fill="black" stroke="black" points="494.68,-260.41 501.06,-251.95 490.8,-254.58 494.68,-260.41"/>
</g>
<!-- in_gripper GreenBox -->
<g id="node6" class="node">
<title>in_gripper GreenBox</title>
<ellipse fill="lightgray" stroke="black" cx="259.48" cy="-162" rx="65.64" ry="18"/>
<text text-anchor="middle" x="259.48" y="-159.8" font-family="Times,serif" font-size="9.00">in_gripper GreenBox</text>
</g>
<!-- Fallback &#45;&gt;in_gripper GreenBox -->
<g id="edge5" class="edge">
<title>Fallback &#45;&gt;in_gripper GreenBox</title>
<path fill="none" stroke="black" d="M302.39,-215.7C295.46,-207.18 286.98,-196.76 279.39,-187.45"/>
<polygon fill="black" stroke="black" points="282.05,-185.17 273.02,-179.62 276.62,-189.59 282.05,-185.17"/>
</g>
<!-- Sequence &#160; -->
<g id="node7" class="node">
<title>Sequence &#160;</title>
<polygon fill="orange" stroke="black" points="405.48,-180 343.48,-180 343.48,-144 405.48,-144 405.48,-180"/>
<text text-anchor="middle" x="374.48" y="-159.8" font-family="Times,serif" font-size="9.00">Sequence</text>
</g>
<!-- Fallback &#45;&gt;Sequence &#160; -->
<g id="edge6" class="edge">
<title>Fallback &#45;&gt;Sequence &#160;</title>
<path fill="none" stroke="black" d="M330.82,-215.7C337.77,-207.3 346.25,-197.07 353.88,-187.86"/>
<polygon fill="black" stroke="black" points="356.63,-190.04 360.31,-180.1 351.24,-185.57 356.63,-190.04"/>
</g>
<!-- Fallback &#160; -->
<g id="node8" class="node">
<title>Fallback &#160;</title>
<polygon fill="cyan" stroke="black" points="356.48,-82.54 356.48,-97.46 335.98,-108 306.99,-108 286.49,-97.46 286.49,-82.54 306.99,-72 335.98,-72 356.48,-82.54"/>
<text text-anchor="middle" x="321.48" y="-87.8" font-family="Times,serif" font-size="9.00">Fallback</text>
</g>
<!-- Sequence &#160;&#45;&gt;Fallback &#160; -->
<g id="edge7" class="edge">
<title>Sequence &#160;&#45;&gt;Fallback &#160;</title>
<path fill="none" stroke="black" d="M361.38,-143.7C355.09,-135.39 347.44,-125.28 340.52,-116.14"/>
<polygon fill="black" stroke="black" points="343.26,-113.96 334.43,-108.1 337.68,-118.19 343.26,-113.96"/>
</g>
<!-- pick0 GreenBox -->
<g id="node11" class="node">
<title>pick0 GreenBox</title>
<ellipse fill="lightgray" stroke="black" cx="427.48" cy="-90" rx="52.58" ry="18"/>
<text text-anchor="middle" x="427.48" y="-87.8" font-family="Times,serif" font-size="9.00">pick0 GreenBox</text>
</g>
<!-- Sequence &#160;&#45;&gt;pick0 GreenBox -->
<g id="edge10" class="edge">
<title>Sequence &#160;&#45;&gt;pick0 GreenBox</title>
<path fill="none" stroke="black" d="M387.59,-143.7C393.97,-135.27 401.76,-124.97 408.76,-115.73"/>
<polygon fill="black" stroke="black" points="411.65,-117.71 414.9,-107.62 406.07,-113.48 411.65,-117.71"/>
</g>
<!-- gripper_state open -->
<g id="node9" class="node">
<title>gripper_state open</title>
<ellipse fill="lightgray" stroke="black" cx="259.48" cy="-18" rx="60.09" ry="18"/>
<text text-anchor="middle" x="259.48" y="-15.8" font-family="Times,serif" font-size="9.00">gripper_state open</text>
</g>
<!-- Fallback &#160;&#45;&gt;gripper_state open -->
<g id="edge8" class="edge">
<title>Fallback &#160;&#45;&gt;gripper_state open</title>
<path fill="none" stroke="black" d="M306.48,-72.05C298.86,-63.46 289.47,-52.86 281.09,-43.4"/>
<polygon fill="black" stroke="black" points="283.6,-40.95 274.35,-35.79 278.36,-45.6 283.6,-40.95"/>
</g>
<!-- open_gripper -->
<g id="node10" class="node">
<title>open_gripper</title>
<ellipse fill="lightgray" stroke="black" cx="383.48" cy="-18" rx="45.72" ry="18"/>
<text text-anchor="middle" x="383.48" y="-15.8" font-family="Times,serif" font-size="9.00">open_gripper</text>
</g>
<!-- Fallback &#160;&#45;&gt;open_gripper -->
<g id="edge9" class="edge">
<title>Fallback &#160;&#45;&gt;open_gripper</title>
<path fill="none" stroke="black" d="M336.49,-72.05C344.22,-63.33 353.77,-52.54 362.24,-42.98"/>
<polygon fill="black" stroke="black" points="365.03,-45.11 369.04,-35.31 359.79,-40.47 365.03,-45.11"/>
</g>
<!-- gripper_state open  -->
<g id="node15" class="node">
<title>gripper_state open </title>
<ellipse fill="lightgray" stroke="black" cx="581.48" cy="-306" rx="60.09" ry="18"/>
<text text-anchor="middle" x="581.48" y="-303.8" font-family="Times,serif" font-size="9.00">gripper_state open</text>
</g>
<!-- Fallback &#160;&#160;&#45;&gt;gripper_state open  -->
<g id="edge14" class="edge">
<title>Fallback &#160;&#160;&#45;&gt;gripper_state open </title>
<path fill="none" stroke="black" d="M601.06,-359.7C598.13,-351.81 594.6,-342.3 591.34,-333.55"/>
<polygon fill="black" stroke="black" points="594.6,-332.26 587.84,-324.1 588.04,-334.7 594.6,-332.26"/>
</g>
<!-- open_gripper  -->
<g id="node16" class="node">
<title>open_gripper </title>
<ellipse fill="lightgray" stroke="black" cx="705.48" cy="-306" rx="45.72" ry="18"/>
<text text-anchor="middle" x="705.48" y="-303.8" font-family="Times,serif" font-size="9.00">open_gripper</text>
</g>
<!-- Fallback &#160;&#160;&#45;&gt;open_gripper  -->
<g id="edge15" class="edge">
<title>Fallback &#160;&#160;&#45;&gt;open_gripper </title>
<path fill="none" stroke="black" d="M627.79,-362.5C641.7,-352.56 660.37,-339.23 675.92,-328.12"/>
<polygon fill="black" stroke="black" points="678.08,-330.87 684.19,-322.21 674.02,-325.18 678.08,-330.87"/>
</g>
</g>
</svg>
