<?xml version="1.0" encoding="UTF-8" standalone="no"?>
<!DOCTYPE svg PUBLIC "-//W3C//DTD SVG 1.1//EN"
 "http://www.w3.org/Graphics/SVG/1.1/DTD/svg11.dtd">
<!-- Generated by graphviz version 2.43.0 (0)
 -->
<!-- Title: pastafarianism Pages: 1 -->
<svg width="3127pt" height="503pt"
 viewBox="0.00 0.00 3126.92 502.60" xmlns="http://www.w3.org/2000/svg" xmlns:xlink="http://www.w3.org/1999/xlink">
<g id="graph0" class="graph" transform="scale(1 1) rotate(0) translate(4 498.6)">
<title>pastafarianism</title>
<polygon fill="white" stroke="transparent" points="-4,4 -4,-498.6 3122.92,-498.6 3122.92,4 -4,4"/>
<!-- selector:
 insert(left_hand, defaultgripper, gear3, shaft3) -->
<g id="node1" class="node">
<title>selector:
 insert(left_hand, defaultgripper, gear3, shaft3)</title>
<polygon fill="#8deeee" stroke="black" points="1577.22,-442.54 1577.22,-473.18 1377.66,-494.84 1095.43,-494.84 895.87,-473.18 895.87,-442.54 1095.43,-420.88 1377.66,-420.88 1577.22,-442.54"/>
<text text-anchor="middle" x="1236.55" y="-463.46" font-family="Times,serif" font-size="18.00">selector:</text>
<text text-anchor="middle" x="1236.55" y="-443.46" font-family="Times,serif" font-size="18.00"> insert(left_hand, defaultgripper, gear3, shaft3)</text>
</g>
<!-- target:
 is_inserted_to(gear3, shaft3) -->
<g id="node2" class="node">
<title>target:
 is_inserted_to(gear3, shaft3)</title>
<ellipse fill="#ffec8b" stroke="black" cx="1017.55" cy="-351.18" rx="198.89" ry="33.88"/>
<text text-anchor="middle" x="1017.55" y="-356.78" font-family="Times,serif" font-size="18.00">target:</text>
<text text-anchor="middle" x="1017.55" y="-336.78" font-family="Times,serif" font-size="18.00"> is_inserted_to(gear3, shaft3)</text>
</g>
<!-- selector:
 insert(left_hand, defaultgripper, gear3, shaft3)&#45;&gt;target:
 is_inserted_to(gear3, shaft3) -->
<g id="edge1" class="edge">
<title>selector:
 insert(left_hand, defaultgripper, gear3, shaft3)&#45;&gt;target:
 is_inserted_to(gear3, shaft3)</title>
<path fill="none" stroke="black" d="M1161.49,-420.98C1138.96,-410.21 1114.27,-398.41 1091.79,-387.67"/>
<polygon fill="black" stroke="black" points="1093.17,-384.45 1082.64,-383.29 1090.15,-390.77 1093.17,-384.45"/>
</g>
<!-- sequence:
 insert(left_hand, defaultgripper, gear3, shaft3) -->
<g id="node3" class="node">
<title>sequence:
 insert(left_hand, defaultgripper, gear3, shaft3)</title>
<polygon fill="#ff7f24" stroke="black" points="1679.05,-375.18 1234.05,-375.18 1234.05,-327.18 1679.05,-327.18 1679.05,-375.18"/>
<text text-anchor="middle" x="1456.55" y="-356.78" font-family="Times,serif" font-size="18.00">sequence:</text>
<text text-anchor="middle" x="1456.55" y="-336.78" font-family="Times,serif" font-size="18.00"> insert(left_hand, defaultgripper, gear3, shaft3)</text>
</g>
<!-- selector:
 insert(left_hand, defaultgripper, gear3, shaft3)&#45;&gt;sequence:
 insert(left_hand, defaultgripper, gear3, shaft3) -->
<g id="edge2" class="edge">
<title>selector:
 insert(left_hand, defaultgripper, gear3, shaft3)&#45;&gt;sequence:
 insert(left_hand, defaultgripper, gear3, shaft3)</title>
<path fill="none" stroke="black" d="M1311.95,-420.98C1340.43,-407.43 1372.36,-392.24 1398.96,-379.58"/>
<polygon fill="black" stroke="black" points="1400.6,-382.67 1408.13,-375.22 1397.6,-376.35 1400.6,-382.67"/>
</g>
<!-- selector:
 change_tool(left_hand, outwardgripper, defaultgripper) -->
<g id="node4" class="node">
<title>selector:
 change_tool(left_hand, outwardgripper, defaultgripper)</title>
<polygon fill="#8deeee" stroke="black" points="1106.09,-229.19 1106.09,-259.82 872.04,-281.48 541.05,-281.48 307,-259.82 307,-229.19 541.05,-207.53 872.04,-207.53 1106.09,-229.19"/>
<text text-anchor="middle" x="706.55" y="-250.1" font-family="Times,serif" font-size="18.00">selector:</text>
<text text-anchor="middle" x="706.55" y="-230.1" font-family="Times,serif" font-size="18.00"> change_tool(left_hand, outwardgripper, defaultgripper)</text>
</g>
<!-- sequence:
 insert(left_hand, defaultgripper, gear3, shaft3)&#45;&gt;selector:
 change_tool(left_hand, outwardgripper, defaultgripper) -->
<g id="edge3" class="edge">
<title>sequence:
 insert(left_hand, defaultgripper, gear3, shaft3)&#45;&gt;selector:
 change_tool(left_hand, outwardgripper, defaultgripper)</title>
<path fill="none" stroke="black" d="M1295.63,-327.14C1272.12,-323.8 1248.21,-320.42 1225.55,-317.24 1132.1,-304.12 1029.17,-289.85 939.78,-277.52"/>
<polygon fill="black" stroke="black" points="940.17,-274.04 929.78,-276.14 939.21,-280.98 940.17,-274.04"/>
</g>
<!-- selector:
 pick_up(left_hand, outwardgripper, gear3) -->
<g id="node10" class="node">
<title>selector:
 pick_up(left_hand, outwardgripper, gear3)</title>
<polygon fill="#8deeee" stroke="black" points="1766.49,-229.19 1766.49,-259.82 1584.93,-281.48 1328.16,-281.48 1146.6,-259.82 1146.6,-229.19 1328.16,-207.53 1584.93,-207.53 1766.49,-229.19"/>
<text text-anchor="middle" x="1456.55" y="-250.1" font-family="Times,serif" font-size="18.00">selector:</text>
<text text-anchor="middle" x="1456.55" y="-230.1" font-family="Times,serif" font-size="18.00"> pick_up(left_hand, outwardgripper, gear3)</text>
</g>
<!-- sequence:
 insert(left_hand, defaultgripper, gear3, shaft3)&#45;&gt;selector:
 pick_up(left_hand, outwardgripper, gear3) -->
<g id="edge9" class="edge">
<title>sequence:
 insert(left_hand, defaultgripper, gear3, shaft3)&#45;&gt;selector:
 pick_up(left_hand, outwardgripper, gear3)</title>
<path fill="none" stroke="black" d="M1456.55,-326.95C1456.55,-316.5 1456.55,-303.79 1456.55,-291.54"/>
<polygon fill="black" stroke="black" points="1460.05,-291.42 1456.55,-281.42 1453.05,-291.42 1460.05,-291.42"/>
</g>
<!-- action:
 insert(left_hand, defaultgripper, gear3, shaft3) -->
<g id="node16" class="node">
<title>action:
 insert(left_hand, defaultgripper, gear3, shaft3)</title>
<ellipse fill="lightgreen" stroke="black" cx="2099.55" cy="-244.5" rx="314.83" ry="33.88"/>
<text text-anchor="middle" x="2099.55" y="-250.1" font-family="Times,serif" font-size="18.00">action:</text>
<text text-anchor="middle" x="2099.55" y="-230.1" font-family="Times,serif" font-size="18.00"> insert(left_hand, defaultgripper, gear3, shaft3)</text>
</g>
<!-- sequence:
 insert(left_hand, defaultgripper, gear3, shaft3)&#45;&gt;action:
 insert(left_hand, defaultgripper, gear3, shaft3) -->
<g id="edge15" class="edge">
<title>sequence:
 insert(left_hand, defaultgripper, gear3, shaft3)&#45;&gt;action:
 insert(left_hand, defaultgripper, gear3, shaft3)</title>
<path fill="none" stroke="black" d="M1598.05,-327.14C1692.7,-311.74 1818.06,-291.33 1919.77,-274.77"/>
<polygon fill="black" stroke="black" points="1920.54,-278.19 1929.84,-273.13 1919.41,-271.28 1920.54,-278.19"/>
</g>
<!-- target:
 hold(left_hand, defaultgripper) -->
<g id="node5" class="node">
<title>target:
 hold(left_hand, defaultgripper)</title>
<ellipse fill="#ffec8b" stroke="black" cx="213.55" cy="-137.82" rx="213.59" ry="33.88"/>
<text text-anchor="middle" x="213.55" y="-143.42" font-family="Times,serif" font-size="18.00">target:</text>
<text text-anchor="middle" x="213.55" y="-123.42" font-family="Times,serif" font-size="18.00"> hold(left_hand, defaultgripper)</text>
</g>
<!-- selector:
 change_tool(left_hand, outwardgripper, defaultgripper)&#45;&gt;target:
 hold(left_hand, defaultgripper) -->
<g id="edge4" class="edge">
<title>selector:
 change_tool(left_hand, outwardgripper, defaultgripper)&#45;&gt;target:
 hold(left_hand, defaultgripper)</title>
<path fill="none" stroke="black" d="M538.26,-207.77C476.43,-194.64 407.27,-179.96 348.72,-167.52"/>
<polygon fill="black" stroke="black" points="349.17,-164.04 338.66,-165.39 347.72,-170.89 349.17,-164.04"/>
</g>
<!-- sequence:
 change_tool(left_hand, outwardgripper, defaultgripper) -->
<g id="node6" class="node">
<title>sequence:
 change_tool(left_hand, outwardgripper, defaultgripper)</title>
<polygon fill="#ff7f24" stroke="black" points="967.55,-161.82 445.55,-161.82 445.55,-113.82 967.55,-113.82 967.55,-161.82"/>
<text text-anchor="middle" x="706.55" y="-143.42" font-family="Times,serif" font-size="18.00">sequence:</text>
<text text-anchor="middle" x="706.55" y="-123.42" font-family="Times,serif" font-size="18.00"> change_tool(left_hand, outwardgripper, defaultgripper)</text>
</g>
<!-- selector:
 change_tool(left_hand, outwardgripper, defaultgripper)&#45;&gt;sequence:
 change_tool(left_hand, outwardgripper, defaultgripper) -->
<g id="edge5" class="edge">
<title>selector:
 change_tool(left_hand, outwardgripper, defaultgripper)&#45;&gt;sequence:
 change_tool(left_hand, outwardgripper, defaultgripper)</title>
<path fill="none" stroke="black" d="M706.55,-207.48C706.55,-196.09 706.55,-183.57 706.55,-172.36"/>
<polygon fill="black" stroke="black" points="710.05,-172.11 706.55,-162.11 703.05,-172.11 710.05,-172.11"/>
</g>
<!-- precondition:
 hold(left_hand, outwardgripper) -->
<g id="node7" class="node">
<title>precondition:
 hold(left_hand, outwardgripper)</title>
<ellipse fill="#ffec8b" stroke="black" cx="273.55" cy="-33.94" rx="221.15" ry="33.88"/>
<text text-anchor="middle" x="273.55" y="-39.54" font-family="Times,serif" font-size="18.00">precondition:</text>
<text text-anchor="middle" x="273.55" y="-19.54" font-family="Times,serif" font-size="18.00"> hold(left_hand, outwardgripper)</text>
</g>
<!-- sequence:
 change_tool(left_hand, outwardgripper, defaultgripper)&#45;&gt;precondition:
 hold(left_hand, outwardgripper) -->
<g id="edge6" class="edge">
<title>sequence:
 change_tool(left_hand, outwardgripper, defaultgripper)&#45;&gt;precondition:
 hold(left_hand, outwardgripper)</title>
<path fill="none" stroke="black" d="M608.56,-113.77C547.34,-99.36 467.84,-80.66 401.65,-65.08"/>
<polygon fill="black" stroke="black" points="402.11,-61.59 391.57,-62.71 400.5,-68.41 402.11,-61.59"/>
</g>
<!-- precondition:
 is_empty(outwardgripper) -->
<g id="node8" class="node">
<title>precondition:
 is_empty(outwardgripper)</title>
<ellipse fill="#ffec8b" stroke="black" cx="695.55" cy="-33.94" rx="183.28" ry="33.88"/>
<text text-anchor="middle" x="695.55" y="-39.54" font-family="Times,serif" font-size="18.00">precondition:</text>
<text text-anchor="middle" x="695.55" y="-19.54" font-family="Times,serif" font-size="18.00"> is_empty(outwardgripper)</text>
</g>
<!-- sequence:
 change_tool(left_hand, outwardgripper, defaultgripper)&#45;&gt;precondition:
 is_empty(outwardgripper) -->
<g id="edge7" class="edge">
<title>sequence:
 change_tool(left_hand, outwardgripper, defaultgripper)&#45;&gt;precondition:
 is_empty(outwardgripper)</title>
<path fill="none" stroke="black" d="M704.05,-113.7C702.91,-103.16 701.52,-90.31 700.2,-78.08"/>
<polygon fill="black" stroke="black" points="703.67,-77.58 699.12,-68.01 696.71,-78.33 703.67,-77.58"/>
</g>
<!-- action:
 change_tool(left_hand, outwardgripper, defaultgripper) -->
<g id="node9" class="node">
<title>action:
 change_tool(left_hand, outwardgripper, defaultgripper)</title>
<ellipse fill="lightgreen" stroke="black" cx="1265.55" cy="-33.94" rx="369.22" ry="33.88"/>
<text text-anchor="middle" x="1265.55" y="-39.54" font-family="Times,serif" font-size="18.00">action:</text>
<text text-anchor="middle" x="1265.55" y="-19.54" font-family="Times,serif" font-size="18.00"> change_tool(left_hand, outwardgripper, defaultgripper)</text>
</g>
<!-- sequence:
 change_tool(left_hand, outwardgripper, defaultgripper)&#45;&gt;action:
 change_tool(left_hand, outwardgripper, defaultgripper) -->
<g id="edge8" class="edge">
<title>sequence:
 change_tool(left_hand, outwardgripper, defaultgripper)&#45;&gt;action:
 change_tool(left_hand, outwardgripper, defaultgripper)</title>
<path fill="none" stroke="black" d="M833.04,-113.77C910.11,-99.72 1009.6,-81.59 1093.73,-66.26"/>
<polygon fill="black" stroke="black" points="1094.44,-69.68 1103.65,-64.45 1093.18,-62.8 1094.44,-69.68"/>
</g>
<!-- target:
 hold(outwardgripper, gear3) -->
<g id="node11" class="node">
<title>target:
 hold(outwardgripper, gear3)</title>
<ellipse fill="#ffec8b" stroke="black" cx="1456.55" cy="-137.82" rx="196.65" ry="33.88"/>
<text text-anchor="middle" x="1456.55" y="-143.42" font-family="Times,serif" font-size="18.00">target:</text>
<text text-anchor="middle" x="1456.55" y="-123.42" font-family="Times,serif" font-size="18.00"> hold(outwardgripper, gear3)</text>
</g>
<!-- selector:
 pick_up(left_hand, outwardgripper, gear3)&#45;&gt;target:
 hold(outwardgripper, gear3) -->
<g id="edge10" class="edge">
<title>selector:
 pick_up(left_hand, outwardgripper, gear3)&#45;&gt;target:
 hold(outwardgripper, gear3)</title>
<path fill="none" stroke="black" d="M1456.55,-207.48C1456.55,-199.32 1456.55,-190.58 1456.55,-182.15"/>
<polygon fill="black" stroke="black" points="1460.05,-182.1 1456.55,-172.1 1453.05,-182.1 1460.05,-182.1"/>
</g>
<!-- sequence:
 pick_up(left_hand, outwardgripper, gear3) -->
<g id="node12" class="node">
<title>sequence:
 pick_up(left_hand, outwardgripper, gear3)</title>
<polygon fill="#ff7f24" stroke="black" points="2311.05,-161.82 1906.05,-161.82 1906.05,-113.82 2311.05,-113.82 2311.05,-161.82"/>
<text text-anchor="middle" x="2108.55" y="-143.42" font-family="Times,serif" font-size="18.00">sequence:</text>
<text text-anchor="middle" x="2108.55" y="-123.42" font-family="Times,serif" font-size="18.00"> pick_up(left_hand, outwardgripper, gear3)</text>
</g>
<!-- selector:
 pick_up(left_hand, outwardgripper, gear3)&#45;&gt;sequence:
 pick_up(left_hand, outwardgripper, gear3) -->
<g id="edge11" class="edge">
<title>selector:
 pick_up(left_hand, outwardgripper, gear3)&#45;&gt;sequence:
 pick_up(left_hand, outwardgripper, gear3)</title>
<path fill="none" stroke="black" d="M1639.9,-214.06C1739.39,-198.09 1860.97,-178.57 1955.35,-163.42"/>
<polygon fill="black" stroke="black" points="1955.95,-166.87 1965.27,-161.83 1954.84,-159.96 1955.95,-166.87"/>
</g>
<!-- &quot;precondition:\n hold(left_hand, outwardgripper)&quot;* -->
<g id="node13" class="node">
<title>&quot;precondition:\n hold(left_hand, outwardgripper)&quot;*</title>
<ellipse fill="#ffec8b" stroke="black" cx="1885.55" cy="-33.94" rx="233.19" ry="33.88"/>
<text text-anchor="middle" x="1885.55" y="-39.54" font-family="Times,serif" font-size="18.00">&quot;precondition:</text>
<text text-anchor="middle" x="1885.55" y="-19.54" font-family="Times,serif" font-size="18.00"> hold(left_hand, outwardgripper)&quot;*</text>
</g>
<!-- sequence:
 pick_up(left_hand, outwardgripper, gear3)&#45;&gt;&quot;precondition:\n hold(left_hand, outwardgripper)&quot;* -->
<g id="edge12" class="edge">
<title>sequence:
 pick_up(left_hand, outwardgripper, gear3)&#45;&gt;&quot;precondition:\n hold(left_hand, outwardgripper)&quot;*</title>
<path fill="none" stroke="black" d="M2057.94,-113.7C2030.11,-100.99 1994.97,-84.93 1963.68,-70.64"/>
<polygon fill="black" stroke="black" points="1965.09,-67.44 1954.54,-66.46 1962.19,-73.8 1965.09,-67.44"/>
</g>
<!-- &quot;precondition:\n is_empty(outwardgripper)&quot;* -->
<g id="node14" class="node">
<title>&quot;precondition:\n is_empty(outwardgripper)&quot;*</title>
<ellipse fill="#ffec8b" stroke="black" cx="2332.55" cy="-33.94" rx="195.32" ry="33.88"/>
<text text-anchor="middle" x="2332.55" y="-39.54" font-family="Times,serif" font-size="18.00">&quot;precondition:</text>
<text text-anchor="middle" x="2332.55" y="-19.54" font-family="Times,serif" font-size="18.00"> is_empty(outwardgripper)&quot;*</text>
</g>
<!-- sequence:
 pick_up(left_hand, outwardgripper, gear3)&#45;&gt;&quot;precondition:\n is_empty(outwardgripper)&quot;* -->
<g id="edge13" class="edge">
<title>sequence:
 pick_up(left_hand, outwardgripper, gear3)&#45;&gt;&quot;precondition:\n is_empty(outwardgripper)&quot;*</title>
<path fill="none" stroke="black" d="M2159.38,-113.7C2187.69,-100.83 2223.53,-84.53 2255.24,-70.1"/>
<polygon fill="black" stroke="black" points="2256.85,-73.21 2264.51,-65.89 2253.95,-66.84 2256.85,-73.21"/>
</g>
<!-- action:
 pick_up(left_hand, outwardgripper, gear3) -->
<g id="node15" class="node">
<title>action:
 pick_up(left_hand, outwardgripper, gear3)</title>
<ellipse fill="lightgreen" stroke="black" cx="2832.55" cy="-33.94" rx="286.26" ry="33.88"/>
<text text-anchor="middle" x="2832.55" y="-39.54" font-family="Times,serif" font-size="18.00">action:</text>
<text text-anchor="middle" x="2832.55" y="-19.54" font-family="Times,serif" font-size="18.00"> pick_up(left_hand, outwardgripper, gear3)</text>
</g>
<!-- sequence:
 pick_up(left_hand, outwardgripper, gear3)&#45;&gt;action:
 pick_up(left_hand, outwardgripper, gear3) -->
<g id="edge14" class="edge">
<title>sequence:
 pick_up(left_hand, outwardgripper, gear3)&#45;&gt;action:
 pick_up(left_hand, outwardgripper, gear3)</title>
<path fill="none" stroke="black" d="M2272.38,-113.77C2382.22,-98.31 2527.25,-77.9 2642.22,-61.72"/>
<polygon fill="black" stroke="black" points="2642.78,-65.18 2652.19,-60.32 2641.8,-58.25 2642.78,-65.18"/>
</g>
</g>
</svg>
