<?xml version="1.0" encoding="UTF-8" standalone="no"?>
<!DOCTYPE svg PUBLIC "-//W3C//DTD SVG 1.1//EN"
 "http://www.w3.org/Graphics/SVG/1.1/DTD/svg11.dtd">
<!-- Generated by graphviz version 2.43.0 (0)
 -->
<!-- Title: pastafarianism Pages: 1 -->
<svg width="3418pt" height="716pt"
 viewBox="0.00 0.00 3417.92 715.95" xmlns="http://www.w3.org/2000/svg" xmlns:xlink="http://www.w3.org/1999/xlink">
<g id="graph0" class="graph" transform="scale(1 1) rotate(0) translate(4 711.95)">
<title>pastafarianism</title>
<polygon fill="white" stroke="transparent" points="-4,4 -4,-711.95 3413.92,-711.95 3413.92,4 -4,4"/>
<!-- selector:
 insert(left_hand, defaultgripper, gear3, shaft3) -->
<g id="node1" class="node">
<title>selector:
 insert(left_hand, defaultgripper, gear3, shaft3)</title>
<polygon fill="#8deeee" stroke="black" points="1660.22,-655.9 1660.22,-686.53 1460.66,-708.19 1178.43,-708.19 978.87,-686.53 978.87,-655.9 1178.43,-634.24 1460.66,-634.24 1660.22,-655.9"/>
<text text-anchor="middle" x="1319.55" y="-676.82" font-family="Times,serif" font-size="18.00">selector:</text>
<text text-anchor="middle" x="1319.55" y="-656.82" font-family="Times,serif" font-size="18.00"> insert(left_hand, defaultgripper, gear3, shaft3)</text>
</g>
<!-- target:
 is_inserted_to(gear3, shaft3) -->
<g id="node2" class="node">
<title>target:
 is_inserted_to(gear3, shaft3)</title>
<ellipse fill="#ffec8b" stroke="black" cx="1100.55" cy="-564.54" rx="198.89" ry="33.88"/>
<text text-anchor="middle" x="1100.55" y="-570.14" font-family="Times,serif" font-size="18.00">target:</text>
<text text-anchor="middle" x="1100.55" y="-550.14" font-family="Times,serif" font-size="18.00"> is_inserted_to(gear3, shaft3)</text>
</g>
<!-- selector:
 insert(left_hand, defaultgripper, gear3, shaft3)&#45;&gt;target:
 is_inserted_to(gear3, shaft3) -->
<g id="edge1" class="edge">
<title>selector:
 insert(left_hand, defaultgripper, gear3, shaft3)&#45;&gt;target:
 is_inserted_to(gear3, shaft3)</title>
<path fill="none" stroke="black" d="M1244.49,-634.34C1221.96,-623.57 1197.27,-611.77 1174.79,-601.03"/>
<polygon fill="black" stroke="black" points="1176.17,-597.81 1165.64,-596.65 1173.15,-604.12 1176.17,-597.81"/>
</g>
<!-- sequence:
 insert(left_hand, defaultgripper, gear3, shaft3) -->
<g id="node3" class="node">
<title>sequence:
 insert(left_hand, defaultgripper, gear3, shaft3)</title>
<polygon fill="#ff7f24" stroke="black" points="1762.05,-588.54 1317.05,-588.54 1317.05,-540.54 1762.05,-540.54 1762.05,-588.54"/>
<text text-anchor="middle" x="1539.55" y="-570.14" font-family="Times,serif" font-size="18.00">sequence:</text>
<text text-anchor="middle" x="1539.55" y="-550.14" font-family="Times,serif" font-size="18.00"> insert(left_hand, defaultgripper, gear3, shaft3)</text>
</g>
<!-- selector:
 insert(left_hand, defaultgripper, gear3, shaft3)&#45;&gt;sequence:
 insert(left_hand, defaultgripper, gear3, shaft3) -->
<g id="edge2" class="edge">
<title>selector:
 insert(left_hand, defaultgripper, gear3, shaft3)&#45;&gt;sequence:
 insert(left_hand, defaultgripper, gear3, shaft3)</title>
<path fill="none" stroke="black" d="M1394.95,-634.34C1423.43,-620.79 1455.36,-605.59 1481.96,-592.94"/>
<polygon fill="black" stroke="black" points="1483.6,-596.03 1491.13,-588.58 1480.6,-589.71 1483.6,-596.03"/>
</g>
<!-- selector:
 change_tool(left_hand, outwardgripper, defaultgripper) -->
<g id="node4" class="node">
<title>selector:
 change_tool(left_hand, outwardgripper, defaultgripper)</title>
<polygon fill="#8deeee" stroke="black" points="1106.09,-442.54 1106.09,-473.18 872.04,-494.84 541.05,-494.84 307,-473.18 307,-442.54 541.05,-420.88 872.04,-420.88 1106.09,-442.54"/>
<text text-anchor="middle" x="706.55" y="-463.46" font-family="Times,serif" font-size="18.00">selector:</text>
<text text-anchor="middle" x="706.55" y="-443.46" font-family="Times,serif" font-size="18.00"> change_tool(left_hand, outwardgripper, defaultgripper)</text>
</g>
<!-- sequence:
 insert(left_hand, defaultgripper, gear3, shaft3)&#45;&gt;selector:
 change_tool(left_hand, outwardgripper, defaultgripper) -->
<g id="edge3" class="edge">
<title>sequence:
 insert(left_hand, defaultgripper, gear3, shaft3)&#45;&gt;selector:
 change_tool(left_hand, outwardgripper, defaultgripper)</title>
<path fill="none" stroke="black" d="M1381.49,-540.51C1357.08,-537.09 1332.14,-533.69 1308.55,-530.6 1196.2,-515.89 1071.88,-500.87 965.53,-488.4"/>
<polygon fill="black" stroke="black" points="965.64,-484.89 955.3,-487.2 964.82,-491.84 965.64,-484.89"/>
</g>
<!-- selector:
 pick_up(left_hand, outwardgripper, gear3) -->
<g id="node10" class="node">
<title>selector:
 pick_up(left_hand, outwardgripper, gear3)</title>
<polygon fill="#8deeee" stroke="black" points="1849.49,-442.54 1849.49,-473.18 1667.93,-494.84 1411.16,-494.84 1229.6,-473.18 1229.6,-442.54 1411.16,-420.88 1667.93,-420.88 1849.49,-442.54"/>
<text text-anchor="middle" x="1539.55" y="-463.46" font-family="Times,serif" font-size="18.00">selector:</text>
<text text-anchor="middle" x="1539.55" y="-443.46" font-family="Times,serif" font-size="18.00"> pick_up(left_hand, outwardgripper, gear3)</text>
</g>
<!-- sequence:
 insert(left_hand, defaultgripper, gear3, shaft3)&#45;&gt;selector:
 pick_up(left_hand, outwardgripper, gear3) -->
<g id="edge9" class="edge">
<title>sequence:
 insert(left_hand, defaultgripper, gear3, shaft3)&#45;&gt;selector:
 pick_up(left_hand, outwardgripper, gear3)</title>
<path fill="none" stroke="black" d="M1539.55,-540.31C1539.55,-529.86 1539.55,-517.15 1539.55,-504.9"/>
<polygon fill="black" stroke="black" points="1543.05,-504.78 1539.55,-494.78 1536.05,-504.78 1543.05,-504.78"/>
</g>
<!-- action:
 insert(left_hand, defaultgripper, gear3, shaft3) -->
<g id="node21" class="node">
<title>action:
 insert(left_hand, defaultgripper, gear3, shaft3)</title>
<ellipse fill="lightgreen" stroke="black" cx="2182.55" cy="-457.86" rx="314.83" ry="33.88"/>
<text text-anchor="middle" x="2182.55" y="-463.46" font-family="Times,serif" font-size="18.00">action:</text>
<text text-anchor="middle" x="2182.55" y="-443.46" font-family="Times,serif" font-size="18.00"> insert(left_hand, defaultgripper, gear3, shaft3)</text>
</g>
<!-- sequence:
 insert(left_hand, defaultgripper, gear3, shaft3)&#45;&gt;action:
 insert(left_hand, defaultgripper, gear3, shaft3) -->
<g id="edge20" class="edge">
<title>sequence:
 insert(left_hand, defaultgripper, gear3, shaft3)&#45;&gt;action:
 insert(left_hand, defaultgripper, gear3, shaft3)</title>
<path fill="none" stroke="black" d="M1681.05,-540.5C1775.7,-525.09 1901.06,-504.68 2002.77,-488.13"/>
<polygon fill="black" stroke="black" points="2003.54,-491.55 2012.84,-486.49 2002.41,-484.64 2003.54,-491.55"/>
</g>
<!-- target:
 hold(left_hand, defaultgripper) -->
<g id="node5" class="node">
<title>target:
 hold(left_hand, defaultgripper)</title>
<ellipse fill="#ffec8b" stroke="black" cx="213.55" cy="-351.18" rx="213.59" ry="33.88"/>
<text text-anchor="middle" x="213.55" y="-356.78" font-family="Times,serif" font-size="18.00">target:</text>
<text text-anchor="middle" x="213.55" y="-336.78" font-family="Times,serif" font-size="18.00"> hold(left_hand, defaultgripper)</text>
</g>
<!-- selector:
 change_tool(left_hand, outwardgripper, defaultgripper)&#45;&gt;target:
 hold(left_hand, defaultgripper) -->
<g id="edge4" class="edge">
<title>selector:
 change_tool(left_hand, outwardgripper, defaultgripper)&#45;&gt;target:
 hold(left_hand, defaultgripper)</title>
<path fill="none" stroke="black" d="M538.26,-421.13C476.43,-408 407.27,-393.31 348.72,-380.88"/>
<polygon fill="black" stroke="black" points="349.17,-377.4 338.66,-378.75 347.72,-384.25 349.17,-377.4"/>
</g>
<!-- sequence:
 change_tool(left_hand, outwardgripper, defaultgripper) -->
<g id="node6" class="node">
<title>sequence:
 change_tool(left_hand, outwardgripper, defaultgripper)</title>
<polygon fill="#ff7f24" stroke="black" points="967.55,-375.18 445.55,-375.18 445.55,-327.18 967.55,-327.18 967.55,-375.18"/>
<text text-anchor="middle" x="706.55" y="-356.78" font-family="Times,serif" font-size="18.00">sequence:</text>
<text text-anchor="middle" x="706.55" y="-336.78" font-family="Times,serif" font-size="18.00"> change_tool(left_hand, outwardgripper, defaultgripper)</text>
</g>
<!-- selector:
 change_tool(left_hand, outwardgripper, defaultgripper)&#45;&gt;sequence:
 change_tool(left_hand, outwardgripper, defaultgripper) -->
<g id="edge5" class="edge">
<title>selector:
 change_tool(left_hand, outwardgripper, defaultgripper)&#45;&gt;sequence:
 change_tool(left_hand, outwardgripper, defaultgripper)</title>
<path fill="none" stroke="black" d="M706.55,-420.84C706.55,-409.45 706.55,-396.92 706.55,-385.72"/>
<polygon fill="black" stroke="black" points="710.05,-385.47 706.55,-375.47 703.05,-385.47 710.05,-385.47"/>
</g>
<!-- precondition:
 hold(left_hand, outwardgripper) -->
<g id="node7" class="node">
<title>precondition:
 hold(left_hand, outwardgripper)</title>
<ellipse fill="#ffec8b" stroke="black" cx="231.55" cy="-244.5" rx="221.15" ry="33.88"/>
<text text-anchor="middle" x="231.55" y="-250.1" font-family="Times,serif" font-size="18.00">precondition:</text>
<text text-anchor="middle" x="231.55" y="-230.1" font-family="Times,serif" font-size="18.00"> hold(left_hand, outwardgripper)</text>
</g>
<!-- sequence:
 change_tool(left_hand, outwardgripper, defaultgripper)&#45;&gt;precondition:
 hold(left_hand, outwardgripper) -->
<g id="edge6" class="edge">
<title>sequence:
 change_tool(left_hand, outwardgripper, defaultgripper)&#45;&gt;precondition:
 hold(left_hand, outwardgripper)</title>
<path fill="none" stroke="black" d="M602.01,-327.14C532.34,-311.79 440.16,-291.47 365.17,-274.95"/>
<polygon fill="black" stroke="black" points="365.7,-271.48 355.18,-272.75 364.19,-278.32 365.7,-271.48"/>
</g>
<!-- precondition:
 is_empty(outwardgripper) -->
<g id="node8" class="node">
<title>precondition:
 is_empty(outwardgripper)</title>
<ellipse fill="#ffec8b" stroke="black" cx="653.55" cy="-244.5" rx="183.28" ry="33.88"/>
<text text-anchor="middle" x="653.55" y="-250.1" font-family="Times,serif" font-size="18.00">precondition:</text>
<text text-anchor="middle" x="653.55" y="-230.1" font-family="Times,serif" font-size="18.00"> is_empty(outwardgripper)</text>
</g>
<!-- sequence:
 change_tool(left_hand, outwardgripper, defaultgripper)&#45;&gt;precondition:
 is_empty(outwardgripper) -->
<g id="edge7" class="edge">
<title>sequence:
 change_tool(left_hand, outwardgripper, defaultgripper)&#45;&gt;precondition:
 is_empty(outwardgripper)</title>
<path fill="none" stroke="black" d="M694.78,-326.95C688.94,-315.4 681.68,-301.08 674.9,-287.68"/>
<polygon fill="black" stroke="black" points="677.94,-285.94 670.3,-278.6 671.7,-289.1 677.94,-285.94"/>
</g>
<!-- action:
 change_tool(left_hand, outwardgripper, defaultgripper) -->
<g id="node9" class="node">
<title>action:
 change_tool(left_hand, outwardgripper, defaultgripper)</title>
<ellipse fill="lightgreen" stroke="black" cx="1223.55" cy="-244.5" rx="369.22" ry="33.88"/>
<text text-anchor="middle" x="1223.55" y="-250.1" font-family="Times,serif" font-size="18.00">action:</text>
<text text-anchor="middle" x="1223.55" y="-230.1" font-family="Times,serif" font-size="18.00"> change_tool(left_hand, outwardgripper, defaultgripper)</text>
</g>
<!-- sequence:
 change_tool(left_hand, outwardgripper, defaultgripper)&#45;&gt;action:
 change_tool(left_hand, outwardgripper, defaultgripper) -->
<g id="edge8" class="edge">
<title>sequence:
 change_tool(left_hand, outwardgripper, defaultgripper)&#45;&gt;action:
 change_tool(left_hand, outwardgripper, defaultgripper)</title>
<path fill="none" stroke="black" d="M820.32,-327.14C892.03,-312.63 985.65,-293.67 1064.64,-277.68"/>
<polygon fill="black" stroke="black" points="1065.58,-281.06 1074.69,-275.64 1064.19,-274.2 1065.58,-281.06"/>
</g>
<!-- target:
 hold(outwardgripper, gear3) -->
<g id="node11" class="node">
<title>target:
 hold(outwardgripper, gear3)</title>
<ellipse fill="#ffec8b" stroke="black" cx="1539.55" cy="-351.18" rx="196.65" ry="33.88"/>
<text text-anchor="middle" x="1539.55" y="-356.78" font-family="Times,serif" font-size="18.00">target:</text>
<text text-anchor="middle" x="1539.55" y="-336.78" font-family="Times,serif" font-size="18.00"> hold(outwardgripper, gear3)</text>
</g>
<!-- selector:
 pick_up(left_hand, outwardgripper, gear3)&#45;&gt;target:
 hold(outwardgripper, gear3) -->
<g id="edge10" class="edge">
<title>selector:
 pick_up(left_hand, outwardgripper, gear3)&#45;&gt;target:
 hold(outwardgripper, gear3)</title>
<path fill="none" stroke="black" d="M1539.55,-420.84C1539.55,-412.68 1539.55,-403.93 1539.55,-395.51"/>
<polygon fill="black" stroke="black" points="1543.05,-395.46 1539.55,-385.46 1536.05,-395.46 1543.05,-395.46"/>
</g>
<!-- sequence:
 pick_up(left_hand, outwardgripper, gear3) -->
<g id="node12" class="node">
<title>sequence:
 pick_up(left_hand, outwardgripper, gear3)</title>
<polygon fill="#ff7f24" stroke="black" points="2519.05,-375.18 2114.05,-375.18 2114.05,-327.18 2519.05,-327.18 2519.05,-375.18"/>
<text text-anchor="middle" x="2316.55" y="-356.78" font-family="Times,serif" font-size="18.00">sequence:</text>
<text text-anchor="middle" x="2316.55" y="-336.78" font-family="Times,serif" font-size="18.00"> pick_up(left_hand, outwardgripper, gear3)</text>
</g>
<!-- selector:
 pick_up(left_hand, outwardgripper, gear3)&#45;&gt;sequence:
 pick_up(left_hand, outwardgripper, gear3) -->
<g id="edge11" class="edge">
<title>selector:
 pick_up(left_hand, outwardgripper, gear3)&#45;&gt;sequence:
 pick_up(left_hand, outwardgripper, gear3)</title>
<path fill="none" stroke="black" d="M1741.67,-429.63C1863.57,-413.21 2017.55,-392.46 2135.46,-376.58"/>
<polygon fill="black" stroke="black" points="2136.24,-380 2145.68,-375.2 2135.3,-373.07 2136.24,-380"/>
</g>
<!-- selector:
 change_tool(left_hand, defaultgripper, outwardgripper) -->
<g id="node13" class="node">
<title>selector:
 change_tool(left_hand, defaultgripper, outwardgripper)</title>
<polygon fill="#8deeee" stroke="black" points="2410.09,-229.19 2410.09,-259.82 2176.04,-281.48 1845.05,-281.48 1611,-259.82 1611,-229.19 1845.05,-207.53 2176.04,-207.53 2410.09,-229.19"/>
<text text-anchor="middle" x="2010.55" y="-250.1" font-family="Times,serif" font-size="18.00">selector:</text>
<text text-anchor="middle" x="2010.55" y="-230.1" font-family="Times,serif" font-size="18.00"> change_tool(left_hand, defaultgripper, outwardgripper)</text>
</g>
<!-- sequence:
 pick_up(left_hand, outwardgripper, gear3)&#45;&gt;selector:
 change_tool(left_hand, defaultgripper, outwardgripper) -->
<g id="edge12" class="edge">
<title>sequence:
 pick_up(left_hand, outwardgripper, gear3)&#45;&gt;selector:
 change_tool(left_hand, defaultgripper, outwardgripper)</title>
<path fill="none" stroke="black" d="M2249.01,-327.08C2212.6,-314.62 2166.68,-298.91 2124.88,-284.61"/>
<polygon fill="black" stroke="black" points="2125.79,-281.23 2115.19,-281.3 2123.52,-287.85 2125.79,-281.23"/>
</g>
<!-- &quot;precondition:\n is_empty(outwardgripper)&quot;* -->
<g id="node19" class="node">
<title>&quot;precondition:\n is_empty(outwardgripper)&quot;*</title>
<ellipse fill="#ffec8b" stroke="black" cx="2623.55" cy="-244.5" rx="195.32" ry="33.88"/>
<text text-anchor="middle" x="2623.55" y="-250.1" font-family="Times,serif" font-size="18.00">&quot;precondition:</text>
<text text-anchor="middle" x="2623.55" y="-230.1" font-family="Times,serif" font-size="18.00"> is_empty(outwardgripper)&quot;*</text>
</g>
<!-- sequence:
 pick_up(left_hand, outwardgripper, gear3)&#45;&gt;&quot;precondition:\n is_empty(outwardgripper)&quot;* -->
<g id="edge18" class="edge">
<title>sequence:
 pick_up(left_hand, outwardgripper, gear3)&#45;&gt;&quot;precondition:\n is_empty(outwardgripper)&quot;*</title>
<path fill="none" stroke="black" d="M2384.3,-327.08C2426.34,-312.74 2481.02,-294.1 2527.49,-278.25"/>
<polygon fill="black" stroke="black" points="2528.64,-281.56 2536.97,-275.02 2526.38,-274.94 2528.64,-281.56"/>
</g>
<!-- action:
 pick_up(left_hand, outwardgripper, gear3) -->
<g id="node20" class="node">
<title>action:
 pick_up(left_hand, outwardgripper, gear3)</title>
<ellipse fill="lightgreen" stroke="black" cx="3123.55" cy="-244.5" rx="286.26" ry="33.88"/>
<text text-anchor="middle" x="3123.55" y="-250.1" font-family="Times,serif" font-size="18.00">action:</text>
<text text-anchor="middle" x="3123.55" y="-230.1" font-family="Times,serif" font-size="18.00"> pick_up(left_hand, outwardgripper, gear3)</text>
</g>
<!-- sequence:
 pick_up(left_hand, outwardgripper, gear3)&#45;&gt;action:
 pick_up(left_hand, outwardgripper, gear3) -->
<g id="edge19" class="edge">
<title>sequence:
 pick_up(left_hand, outwardgripper, gear3)&#45;&gt;action:
 pick_up(left_hand, outwardgripper, gear3)</title>
<path fill="none" stroke="black" d="M2494.15,-327.14C2621.24,-310.66 2792.45,-288.45 2924.21,-271.36"/>
<polygon fill="black" stroke="black" points="2924.96,-274.79 2934.43,-270.03 2924.06,-267.85 2924.96,-274.79"/>
</g>
<!-- target:
 hold(left_hand, outwardgripper) -->
<g id="node14" class="node">
<title>target:
 hold(left_hand, outwardgripper)</title>
<ellipse fill="#ffec8b" stroke="black" cx="1760.55" cy="-137.82" rx="221.15" ry="33.88"/>
<text text-anchor="middle" x="1760.55" y="-143.42" font-family="Times,serif" font-size="18.00">target:</text>
<text text-anchor="middle" x="1760.55" y="-123.42" font-family="Times,serif" font-size="18.00"> hold(left_hand, outwardgripper)</text>
</g>
<!-- selector:
 change_tool(left_hand, defaultgripper, outwardgripper)&#45;&gt;target:
 hold(left_hand, outwardgripper) -->
<g id="edge13" class="edge">
<title>selector:
 change_tool(left_hand, defaultgripper, outwardgripper)&#45;&gt;target:
 hold(left_hand, outwardgripper)</title>
<path fill="none" stroke="black" d="M1924.86,-207.62C1898.8,-196.71 1870.2,-184.74 1844.28,-173.88"/>
<polygon fill="black" stroke="black" points="1845.43,-170.57 1834.85,-169.94 1842.73,-177.03 1845.43,-170.57"/>
</g>
<!-- sequence:
 change_tool(left_hand, defaultgripper, outwardgripper) -->
<g id="node15" class="node">
<title>sequence:
 change_tool(left_hand, defaultgripper, outwardgripper)</title>
<polygon fill="#ff7f24" stroke="black" points="2521.55,-161.82 1999.55,-161.82 1999.55,-113.82 2521.55,-113.82 2521.55,-161.82"/>
<text text-anchor="middle" x="2260.55" y="-143.42" font-family="Times,serif" font-size="18.00">sequence:</text>
<text text-anchor="middle" x="2260.55" y="-123.42" font-family="Times,serif" font-size="18.00"> change_tool(left_hand, defaultgripper, outwardgripper)</text>
</g>
<!-- selector:
 change_tool(left_hand, defaultgripper, outwardgripper)&#45;&gt;sequence:
 change_tool(left_hand, defaultgripper, outwardgripper) -->
<g id="edge14" class="edge">
<title>selector:
 change_tool(left_hand, defaultgripper, outwardgripper)&#45;&gt;sequence:
 change_tool(left_hand, defaultgripper, outwardgripper)</title>
<path fill="none" stroke="black" d="M2096.23,-207.62C2129.02,-193.89 2165.84,-178.48 2196.29,-165.73"/>
<polygon fill="black" stroke="black" points="2197.66,-168.95 2205.53,-161.86 2194.95,-162.49 2197.66,-168.95"/>
</g>
<!-- precondition:
 hold(left_hand, defaultgripper) -->
<g id="node16" class="node">
<title>precondition:
 hold(left_hand, defaultgripper)</title>
<ellipse fill="#ffec8b" stroke="black" cx="1853.55" cy="-33.94" rx="213.59" ry="33.88"/>
<text text-anchor="middle" x="1853.55" y="-39.54" font-family="Times,serif" font-size="18.00">precondition:</text>
<text text-anchor="middle" x="1853.55" y="-19.54" font-family="Times,serif" font-size="18.00"> hold(left_hand, defaultgripper)</text>
</g>
<!-- sequence:
 change_tool(left_hand, defaultgripper, outwardgripper)&#45;&gt;precondition:
 hold(left_hand, defaultgripper) -->
<g id="edge15" class="edge">
<title>sequence:
 change_tool(left_hand, defaultgripper, outwardgripper)&#45;&gt;precondition:
 hold(left_hand, defaultgripper)</title>
<path fill="none" stroke="black" d="M2168.45,-113.77C2111.24,-99.45 2037.06,-80.88 1975.07,-65.36"/>
<polygon fill="black" stroke="black" points="1975.78,-61.93 1965.23,-62.9 1974.08,-68.72 1975.78,-61.93"/>
</g>
<!-- precondition:
 is_empty(defaultgripper) -->
<g id="node17" class="node">
<title>precondition:
 is_empty(defaultgripper)</title>
<ellipse fill="#ffec8b" stroke="black" cx="2260.55" cy="-33.94" rx="175.23" ry="33.88"/>
<text text-anchor="middle" x="2260.55" y="-39.54" font-family="Times,serif" font-size="18.00">precondition:</text>
<text text-anchor="middle" x="2260.55" y="-19.54" font-family="Times,serif" font-size="18.00"> is_empty(defaultgripper)</text>
</g>
<!-- sequence:
 change_tool(left_hand, defaultgripper, outwardgripper)&#45;&gt;precondition:
 is_empty(defaultgripper) -->
<g id="edge16" class="edge">
<title>sequence:
 change_tool(left_hand, defaultgripper, outwardgripper)&#45;&gt;precondition:
 is_empty(defaultgripper)</title>
<path fill="none" stroke="black" d="M2260.55,-113.7C2260.55,-103.16 2260.55,-90.31 2260.55,-78.08"/>
<polygon fill="black" stroke="black" points="2264.05,-78.01 2260.55,-68.01 2257.05,-78.01 2264.05,-78.01"/>
</g>
<!-- action:
 change_tool(left_hand, defaultgripper, outwardgripper) -->
<g id="node18" class="node">
<title>action:
 change_tool(left_hand, defaultgripper, outwardgripper)</title>
<ellipse fill="lightgreen" stroke="black" cx="2822.55" cy="-33.94" rx="369.22" ry="33.88"/>
<text text-anchor="middle" x="2822.55" y="-39.54" font-family="Times,serif" font-size="18.00">action:</text>
<text text-anchor="middle" x="2822.55" y="-19.54" font-family="Times,serif" font-size="18.00"> change_tool(left_hand, defaultgripper, outwardgripper)</text>
</g>
<!-- sequence:
 change_tool(left_hand, defaultgripper, outwardgripper)&#45;&gt;action:
 change_tool(left_hand, defaultgripper, outwardgripper) -->
<g id="edge17" class="edge">
<title>sequence:
 change_tool(left_hand, defaultgripper, outwardgripper)&#45;&gt;action:
 change_tool(left_hand, defaultgripper, outwardgripper)</title>
<path fill="none" stroke="black" d="M2387.72,-113.77C2465.2,-99.72 2565.23,-81.59 2649.81,-66.26"/>
<polygon fill="black" stroke="black" points="2650.56,-69.68 2659.78,-64.45 2649.32,-62.79 2650.56,-69.68"/>
</g>
</g>
</svg>
