<?xml version="1.0" encoding="UTF-8" standalone="no"?>
<!DOCTYPE svg PUBLIC "-//W3C//DTD SVG 1.1//EN"
 "http://www.w3.org/Graphics/SVG/1.1/DTD/svg11.dtd">
<!-- Generated by graphviz version 2.43.0 (0)
 -->
<!-- Title: pastafarianism Pages: 1 -->
<svg width="1324pt" height="476pt"
 viewBox="0.00 0.00 1324.26 476.00" xmlns="http://www.w3.org/2000/svg" xmlns:xlink="http://www.w3.org/1999/xlink">
<g id="graph0" class="graph" transform="scale(1 1) rotate(0) translate(4 472)">
<title>pastafarianism</title>
<polygon fill="white" stroke="transparent" points="-4,4 -4,-472 1320.26,-472 1320.26,4 -4,4"/>
<!-- Sequence -->
<g id="node1" class="node">
<title>Sequence</title>
<polygon fill="orange" stroke="black" points="678.42,-468 616.42,-468 616.42,-432 678.42,-432 678.42,-468"/>
<text text-anchor="middle" x="647.42" y="-447.8" font-family="Times,serif" font-size="13.00">Sequence</text>
</g>
<!-- Fallback -->
<g id="node2" class="node">
<title>Fallback</title>
<polygon fill="cyan" stroke="black" points="388.41,-370.54 388.41,-385.46 367.91,-396 338.93,-396 318.43,-385.46 318.43,-370.54 338.93,-360 367.91,-360 388.41,-370.54"/>
<text text-anchor="middle" x="353.42" y="-375.8" font-family="Times,serif" font-size="13.00">Fallback</text>
</g>
<!-- Sequence&#45;&gt;Fallback -->
<g id="edge1" class="edge">
<title>Sequence&#45;&gt;Fallback</title>
<path fill="none" stroke="black" d="M616.24,-441.58C563.29,-428.97 455.75,-403.36 395.95,-389.13"/>
<polygon fill="black" stroke="black" points="396.61,-385.69 386.07,-386.77 394.99,-392.5 396.61,-385.69"/>
</g>
<!-- Fallback &#160;&#160; -->
<g id="node13" class="node">
<title>Fallback &#160;&#160;</title>
<polygon fill="cyan" stroke="black" points="682.41,-370.54 682.41,-385.46 661.91,-396 632.93,-396 612.43,-385.46 612.43,-370.54 632.93,-360 661.91,-360 682.41,-370.54"/>
<text text-anchor="middle" x="647.42" y="-375.8" font-family="Times,serif" font-size="13.00">Fallback</text>
</g>
<!-- Sequence&#45;&gt;Fallback &#160;&#160; -->
<g id="edge12" class="edge">
<title>Sequence&#45;&gt;Fallback &#160;&#160;</title>
<path fill="none" stroke="black" d="M647.42,-431.7C647.42,-423.98 647.42,-414.71 647.42,-406.11"/>
<polygon fill="black" stroke="black" points="650.92,-406.1 647.42,-396.1 643.92,-406.1 650.92,-406.1"/>
</g>
<!-- Fallback &#160;&#160;&#160;&#160;&#160; -->
<g id="node24" class="node">
<title>Fallback &#160;&#160;&#160;&#160;&#160;</title>
<polygon fill="cyan" stroke="black" points="987.41,-370.54 987.41,-385.46 966.91,-396 937.93,-396 917.43,-385.46 917.43,-370.54 937.93,-360 966.91,-360 987.41,-370.54"/>
<text text-anchor="middle" x="952.42" y="-375.8" font-family="Times,serif" font-size="13.00">Fallback</text>
</g>
<!-- Sequence&#45;&gt;Fallback &#160;&#160;&#160;&#160;&#160; -->
<g id="edge23" class="edge">
<title>Sequence&#45;&gt;Fallback &#160;&#160;&#160;&#160;&#160;</title>
<path fill="none" stroke="black" d="M678.63,-441.84C733.42,-429.26 847.01,-403.19 909.28,-388.9"/>
<polygon fill="black" stroke="black" points="910.22,-392.28 919.18,-386.63 908.65,-385.45 910.22,-392.28"/>
</g>
<!-- object_at YellowBox [0.0, 0.0, 0.175] 0.02 KittingBox -->
<g id="node3" class="node">
<title>object_at YellowBox [0.0, 0.0, 0.175] 0.02 KittingBox</title>
<ellipse fill="lightgray" stroke="black" cx="152.42" cy="-306" rx="152.34" ry="18"/>
<text text-anchor="middle" x="152.42" y="-303.8" font-family="Times,serif" font-size="13.00">object_at YellowBox [0.0, 0.0, 0.175] 0.02 KittingBox</text>
</g>
<!-- Fallback&#45;&gt;object_at YellowBox [0.0, 0.0, 0.175] 0.02 KittingBox -->
<g id="edge2" class="edge">
<title>Fallback&#45;&gt;object_at YellowBox [0.0, 0.0, 0.175] 0.02 KittingBox</title>
<path fill="none" stroke="black" d="M325.05,-367.12C294.95,-356.64 246.61,-339.8 208.72,-326.61"/>
<polygon fill="black" stroke="black" points="209.44,-323.15 198.84,-323.17 207.13,-329.76 209.44,-323.15"/>
</g>
<!-- Sequence  -->
<g id="node4" class="node">
<title>Sequence </title>
<polygon fill="orange" stroke="black" points="384.42,-324 322.42,-324 322.42,-288 384.42,-288 384.42,-324"/>
<text text-anchor="middle" x="353.42" y="-303.8" font-family="Times,serif" font-size="13.00">Sequence</text>
</g>
<!-- Fallback&#45;&gt;Sequence  -->
<g id="edge3" class="edge">
<title>Fallback&#45;&gt;Sequence </title>
<path fill="none" stroke="black" d="M353.42,-359.7C353.42,-351.98 353.42,-342.71 353.42,-334.11"/>
<polygon fill="black" stroke="black" points="356.92,-334.1 353.42,-324.1 349.92,-334.1 356.92,-334.1"/>
</g>
<!-- Fallback  -->
<g id="node5" class="node">
<title>Fallback </title>
<polygon fill="cyan" stroke="black" points="193.41,-226.54 193.41,-241.46 172.91,-252 143.93,-252 123.43,-241.46 123.43,-226.54 143.93,-216 172.91,-216 193.41,-226.54"/>
<text text-anchor="middle" x="158.42" y="-231.8" font-family="Times,serif" font-size="13.00">Fallback</text>
</g>
<!-- Sequence &#45;&gt;Fallback  -->
<g id="edge4" class="edge">
<title>Sequence &#45;&gt;Fallback </title>
<path fill="none" stroke="black" d="M322.08,-291.37C319.17,-290.2 316.25,-289.06 313.42,-288 264.84,-269.84 251.29,-269.35 202.42,-252 199.9,-251.11 197.31,-250.16 194.71,-249.2"/>
<polygon fill="black" stroke="black" points="195.92,-245.92 185.33,-245.66 193.45,-252.47 195.92,-245.92"/>
</g>
<!-- place0 YellowBox [0.0, 0.0, 0.175] 0.02 KittingBox -->
<g id="node12" class="node">
<title>place0 YellowBox [0.0, 0.0, 0.175] 0.02 KittingBox</title>
<ellipse fill="lightgray" stroke="black" cx="357.42" cy="-234" rx="146.14" ry="18"/>
<text text-anchor="middle" x="357.42" y="-231.8" font-family="Times,serif" font-size="13.00">place0 YellowBox [0.0, 0.0, 0.175] 0.02 KittingBox</text>
</g>
<!-- Sequence &#45;&gt;place0 YellowBox [0.0, 0.0, 0.175] 0.02 KittingBox -->
<g id="edge11" class="edge">
<title>Sequence &#45;&gt;place0 YellowBox [0.0, 0.0, 0.175] 0.02 KittingBox</title>
<path fill="none" stroke="black" d="M354.41,-287.7C354.85,-279.98 355.38,-270.71 355.87,-262.11"/>
<polygon fill="black" stroke="black" points="359.37,-262.29 356.44,-252.1 352.38,-261.89 359.37,-262.29"/>
</g>
<!-- in_gripper YellowBox -->
<g id="node6" class="node">
<title>in_gripper YellowBox</title>
<ellipse fill="lightgray" stroke="black" cx="129.42" cy="-162" rx="66.29" ry="18"/>
<text text-anchor="middle" x="129.42" y="-159.8" font-family="Times,serif" font-size="13.00">in_gripper YellowBox</text>
</g>
<!-- Fallback &#45;&gt;in_gripper YellowBox -->
<g id="edge5" class="edge">
<title>Fallback &#45;&gt;in_gripper YellowBox</title>
<path fill="none" stroke="black" d="M151.25,-215.7C147.99,-207.81 144.05,-198.3 140.42,-189.55"/>
<polygon fill="black" stroke="black" points="143.57,-188 136.51,-180.1 137.1,-190.68 143.57,-188"/>
</g>
<!-- Sequence &#160; -->
<g id="node7" class="node">
<title>Sequence &#160;</title>
<polygon fill="orange" stroke="black" points="275.42,-180 213.42,-180 213.42,-144 275.42,-144 275.42,-180"/>
<text text-anchor="middle" x="244.42" y="-159.8" font-family="Times,serif" font-size="13.00">Sequence</text>
</g>
<!-- Fallback &#45;&gt;Sequence &#160; -->
<g id="edge6" class="edge">
<title>Fallback &#45;&gt;Sequence &#160;</title>
<path fill="none" stroke="black" d="M177.08,-217.81C188.27,-208.71 202.73,-196.94 215.38,-186.64"/>
<polygon fill="black" stroke="black" points="217.83,-189.15 223.38,-180.13 213.41,-183.73 217.83,-189.15"/>
</g>
<!-- Fallback &#160; -->
<g id="node8" class="node">
<title>Fallback &#160;</title>
<polygon fill="cyan" stroke="black" points="258.41,-82.54 258.41,-97.46 237.91,-108 208.93,-108 188.43,-97.46 188.43,-82.54 208.93,-72 237.91,-72 258.41,-82.54"/>
<text text-anchor="middle" x="223.42" y="-87.8" font-family="Times,serif" font-size="13.00">Fallback</text>
</g>
<!-- Sequence &#160;&#45;&gt;Fallback &#160; -->
<g id="edge7" class="edge">
<title>Sequence &#160;&#45;&gt;Fallback &#160;</title>
<path fill="none" stroke="black" d="M239.23,-143.7C236.89,-135.9 234.07,-126.51 231.47,-117.83"/>
<polygon fill="black" stroke="black" points="234.78,-116.68 228.55,-108.1 228.07,-118.69 234.78,-116.68"/>
</g>
<!-- pick0 YellowBox -->
<g id="node11" class="node">
<title>pick0 YellowBox</title>
<ellipse fill="lightgray" stroke="black" cx="329.42" cy="-90" rx="53.23" ry="18"/>
<text text-anchor="middle" x="329.42" y="-87.8" font-family="Times,serif" font-size="13.00">pick0 YellowBox</text>
</g>
<!-- Sequence &#160;&#45;&gt;pick0 YellowBox -->
<g id="edge10" class="edge">
<title>Sequence &#160;&#45;&gt;pick0 YellowBox</title>
<path fill="none" stroke="black" d="M265.43,-143.7C276.54,-134.55 290.3,-123.22 302.21,-113.41"/>
<polygon fill="black" stroke="black" points="304.61,-115.97 310.1,-106.91 300.16,-110.56 304.61,-115.97"/>
</g>
<!-- gripper_state open -->
<g id="node9" class="node">
<title>gripper_state open</title>
<ellipse fill="lightgray" stroke="black" cx="141.42" cy="-18" rx="60.09" ry="18"/>
<text text-anchor="middle" x="141.42" y="-15.8" font-family="Times,serif" font-size="13.00">gripper_state open</text>
</g>
<!-- Fallback &#160;&#45;&gt;gripper_state open -->
<g id="edge8" class="edge">
<title>Fallback &#160;&#45;&gt;gripper_state open</title>
<path fill="none" stroke="black" d="M205.22,-73.46C194.31,-64.15 180.23,-52.13 168.08,-41.76"/>
<polygon fill="black" stroke="black" points="170.3,-39.05 160.42,-35.22 165.76,-44.38 170.3,-39.05"/>
</g>
<!-- open_gripper -->
<g id="node10" class="node">
<title>open_gripper</title>
<ellipse fill="lightgray" stroke="black" cx="265.42" cy="-18" rx="45.72" ry="18"/>
<text text-anchor="middle" x="265.42" y="-15.8" font-family="Times,serif" font-size="13.00">open_gripper</text>
</g>
<!-- Fallback &#160;&#45;&gt;open_gripper -->
<g id="edge9" class="edge">
<title>Fallback &#160;&#45;&gt;open_gripper</title>
<path fill="none" stroke="black" d="M233.8,-71.7C238.76,-63.44 244.78,-53.39 250.24,-44.3"/>
<polygon fill="black" stroke="black" points="253.3,-46 255.45,-35.62 247.3,-42.4 253.3,-46"/>
</g>
<!-- object_at GreenBox [0.0, 0.0, 0.22] 0.02 YellowBox -->
<g id="node14" class="node">
<title>object_at GreenBox [0.0, 0.0, 0.22] 0.02 YellowBox</title>
<ellipse fill="lightgray" stroke="black" cx="549.42" cy="-306" rx="146.79" ry="18"/>
<text text-anchor="middle" x="549.42" y="-303.8" font-family="Times,serif" font-size="13.00">object_at GreenBox [0.0, 0.0, 0.22] 0.02 YellowBox</text>
</g>
<!-- Fallback &#160;&#160;&#45;&gt;object_at GreenBox [0.0, 0.0, 0.22] 0.02 YellowBox -->
<g id="edge13" class="edge">
<title>Fallback &#160;&#160;&#45;&gt;object_at GreenBox [0.0, 0.0, 0.22] 0.02 YellowBox</title>
<path fill="none" stroke="black" d="M627.11,-362.5C613.99,-353.12 596.63,-340.72 581.65,-330.02"/>
<polygon fill="black" stroke="black" points="583.32,-326.91 573.15,-323.95 579.25,-332.61 583.32,-326.91"/>
</g>
<!-- Sequence &#160;&#160; -->
<g id="node15" class="node">
<title>Sequence &#160;&#160;</title>
<polygon fill="orange" stroke="black" points="776.42,-324 714.42,-324 714.42,-288 776.42,-288 776.42,-324"/>
<text text-anchor="middle" x="745.42" y="-303.8" font-family="Times,serif" font-size="13.00">Sequence</text>
</g>
<!-- Fallback &#160;&#160;&#45;&gt;Sequence &#160;&#160; -->
<g id="edge14" class="edge">
<title>Fallback &#160;&#160;&#45;&gt;Sequence &#160;&#160;</title>
<path fill="none" stroke="black" d="M667.73,-362.5C680.75,-353.19 697.96,-340.9 712.87,-330.25"/>
<polygon fill="black" stroke="black" points="715.23,-332.86 721.34,-324.2 711.16,-327.17 715.23,-332.86"/>
</g>
<!-- Fallback &#160;&#160;&#160; -->
<g id="node16" class="node">
<title>Fallback &#160;&#160;&#160;</title>
<polygon fill="cyan" stroke="black" points="600.41,-226.54 600.41,-241.46 579.91,-252 550.93,-252 530.43,-241.46 530.43,-226.54 550.93,-216 579.91,-216 600.41,-226.54"/>
<text text-anchor="middle" x="565.42" y="-231.8" font-family="Times,serif" font-size="13.00">Fallback</text>
</g>
<!-- Sequence &#160;&#160;&#45;&gt;Fallback &#160;&#160;&#160; -->
<g id="edge15" class="edge">
<title>Sequence &#160;&#160;&#45;&gt;Fallback &#160;&#160;&#160;</title>
<path fill="none" stroke="black" d="M714.03,-291.51C711.13,-290.31 708.22,-289.12 705.42,-288 663.11,-271.08 652.01,-268.21 609.42,-252 607.08,-251.11 604.66,-250.19 602.23,-249.25"/>
<polygon fill="black" stroke="black" points="603.46,-245.97 592.87,-245.65 600.94,-252.51 603.46,-245.97"/>
</g>
<!-- place0 GreenBox [0.0, 0.0, 0.22] 0.02 YellowBox -->
<g id="node23" class="node">
<title>place0 GreenBox [0.0, 0.0, 0.22] 0.02 YellowBox</title>
<ellipse fill="lightgray" stroke="black" cx="758.42" cy="-234" rx="140.09" ry="18"/>
<text text-anchor="middle" x="758.42" y="-231.8" font-family="Times,serif" font-size="13.00">place0 GreenBox [0.0, 0.0, 0.22] 0.02 YellowBox</text>
</g>
<!-- Sequence &#160;&#160;&#45;&gt;place0 GreenBox [0.0, 0.0, 0.22] 0.02 YellowBox -->
<g id="edge22" class="edge">
<title>Sequence &#160;&#160;&#45;&gt;place0 GreenBox [0.0, 0.0, 0.22] 0.02 YellowBox</title>
<path fill="none" stroke="black" d="M748.63,-287.7C750.07,-279.98 751.79,-270.71 753.39,-262.11"/>
<polygon fill="black" stroke="black" points="756.86,-262.58 755.24,-252.1 749.98,-261.3 756.86,-262.58"/>
</g>
<!-- in_gripper GreenBox -->
<g id="node17" class="node">
<title>in_gripper GreenBox</title>
<ellipse fill="lightgray" stroke="black" cx="460.42" cy="-162" rx="65.64" ry="18"/>
<text text-anchor="middle" x="460.42" y="-159.8" font-family="Times,serif" font-size="13.00">in_gripper GreenBox</text>
</g>
<!-- Fallback &#160;&#160;&#160;&#45;&gt;in_gripper GreenBox -->
<g id="edge16" class="edge">
<title>Fallback &#160;&#160;&#160;&#45;&gt;in_gripper GreenBox</title>
<path fill="none" stroke="black" d="M544.68,-219.17C529.92,-209.33 509.79,-195.92 492.91,-184.66"/>
<polygon fill="black" stroke="black" points="494.69,-181.64 484.43,-179.01 490.81,-187.47 494.69,-181.64"/>
</g>
<!-- Sequence &#160;&#160;&#160; -->
<g id="node18" class="node">
<title>Sequence &#160;&#160;&#160;</title>
<polygon fill="orange" stroke="black" points="606.42,-180 544.42,-180 544.42,-144 606.42,-144 606.42,-180"/>
<text text-anchor="middle" x="575.42" y="-159.8" font-family="Times,serif" font-size="13.00">Sequence</text>
</g>
<!-- Fallback &#160;&#160;&#160;&#45;&gt;Sequence &#160;&#160;&#160; -->
<g id="edge17" class="edge">
<title>Fallback &#160;&#160;&#160;&#45;&gt;Sequence &#160;&#160;&#160;</title>
<path fill="none" stroke="black" d="M567.89,-215.7C568.99,-207.98 570.32,-198.71 571.55,-190.11"/>
<polygon fill="black" stroke="black" points="575.03,-190.5 572.98,-180.1 568.1,-189.51 575.03,-190.5"/>
</g>
<!-- Fallback &#160;&#160;&#160;&#160; -->
<g id="node19" class="node">
<title>Fallback &#160;&#160;&#160;&#160;</title>
<polygon fill="cyan" stroke="black" points="510.41,-82.54 510.41,-97.46 489.91,-108 460.93,-108 440.43,-97.46 440.43,-82.54 460.93,-72 489.91,-72 510.41,-82.54"/>
<text text-anchor="middle" x="475.42" y="-87.8" font-family="Times,serif" font-size="13.00">Fallback</text>
</g>
<!-- Sequence &#160;&#160;&#160;&#45;&gt;Fallback &#160;&#160;&#160;&#160; -->
<g id="edge18" class="edge">
<title>Sequence &#160;&#160;&#160;&#45;&gt;Fallback &#160;&#160;&#160;&#160;</title>
<path fill="none" stroke="black" d="M550.96,-143.88C536.75,-133.93 518.77,-121.35 503.93,-110.95"/>
<polygon fill="black" stroke="black" points="505.8,-107.99 495.6,-105.12 501.78,-113.72 505.8,-107.99"/>
</g>
<!-- pick0 GreenBox -->
<g id="node22" class="node">
<title>pick0 GreenBox</title>
<ellipse fill="lightgray" stroke="black" cx="581.42" cy="-90" rx="52.58" ry="18"/>
<text text-anchor="middle" x="581.42" y="-87.8" font-family="Times,serif" font-size="13.00">pick0 GreenBox</text>
</g>
<!-- Sequence &#160;&#160;&#160;&#45;&gt;pick0 GreenBox -->
<g id="edge21" class="edge">
<title>Sequence &#160;&#160;&#160;&#45;&gt;pick0 GreenBox</title>
<path fill="none" stroke="black" d="M576.9,-143.7C577.56,-135.98 578.36,-126.71 579.1,-118.11"/>
<polygon fill="black" stroke="black" points="582.59,-118.37 579.95,-108.1 575.61,-117.77 582.59,-118.37"/>
</g>
<!-- gripper_state open  -->
<g id="node20" class="node">
<title>gripper_state open </title>
<ellipse fill="lightgray" stroke="black" cx="433.42" cy="-18" rx="60.09" ry="18"/>
<text text-anchor="middle" x="433.42" y="-15.8" font-family="Times,serif" font-size="13.00">gripper_state open</text>
</g>
<!-- Fallback &#160;&#160;&#160;&#160;&#45;&gt;gripper_state open  -->
<g id="edge19" class="edge">
<title>Fallback &#160;&#160;&#160;&#160;&#45;&gt;gripper_state open </title>
<path fill="none" stroke="black" d="M465.04,-71.7C460.16,-63.56 454.23,-53.69 448.84,-44.7"/>
<polygon fill="black" stroke="black" points="451.83,-42.88 443.68,-36.1 445.83,-46.48 451.83,-42.88"/>
</g>
<!-- open_gripper  -->
<g id="node21" class="node">
<title>open_gripper </title>
<ellipse fill="lightgray" stroke="black" cx="557.42" cy="-18" rx="45.72" ry="18"/>
<text text-anchor="middle" x="557.42" y="-15.8" font-family="Times,serif" font-size="13.00">open_gripper</text>
</g>
<!-- Fallback &#160;&#160;&#160;&#160;&#45;&gt;open_gripper  -->
<g id="edge20" class="edge">
<title>Fallback &#160;&#160;&#160;&#160;&#45;&gt;open_gripper </title>
<path fill="none" stroke="black" d="M493.62,-73.46C504.69,-64.02 519.01,-51.79 531.28,-41.32"/>
<polygon fill="black" stroke="black" points="533.66,-43.89 538.99,-34.73 529.11,-38.56 533.66,-43.89"/>
</g>
<!-- object_at BlueBox [0.0, &#45;0.001, 0.338] 0.012 YellowBox -->
<g id="node25" class="node">
<title>object_at BlueBox [0.0, &#45;0.001, 0.338] 0.012 YellowBox</title>
<ellipse fill="lightgray" stroke="black" cx="952.42" cy="-306" rx="158.39" ry="18"/>
<text text-anchor="middle" x="952.42" y="-303.8" font-family="Times,serif" font-size="13.00">object_at BlueBox [0.0, &#45;0.001, 0.338] 0.012 YellowBox</text>
</g>
<!-- Fallback &#160;&#160;&#160;&#160;&#160;&#45;&gt;object_at BlueBox [0.0, &#45;0.001, 0.338] 0.012 YellowBox -->
<g id="edge24" class="edge">
<title>Fallback &#160;&#160;&#160;&#160;&#160;&#45;&gt;object_at BlueBox [0.0, &#45;0.001, 0.338] 0.012 YellowBox</title>
<path fill="none" stroke="black" d="M952.42,-359.7C952.42,-351.98 952.42,-342.71 952.42,-334.11"/>
<polygon fill="black" stroke="black" points="955.92,-334.1 952.42,-324.1 948.92,-334.1 955.92,-334.1"/>
</g>
<!-- Sequence &#160;&#160;&#160;&#160; -->
<g id="node26" class="node">
<title>Sequence &#160;&#160;&#160;&#160;</title>
<polygon fill="orange" stroke="black" points="1190.42,-324 1128.42,-324 1128.42,-288 1190.42,-288 1190.42,-324"/>
<text text-anchor="middle" x="1159.42" y="-303.8" font-family="Times,serif" font-size="13.00">Sequence</text>
</g>
<!-- Fallback &#160;&#160;&#160;&#160;&#160;&#45;&gt;Sequence &#160;&#160;&#160;&#160; -->
<g id="edge25" class="edge">
<title>Fallback &#160;&#160;&#160;&#160;&#160;&#45;&gt;Sequence &#160;&#160;&#160;&#160;</title>
<path fill="none" stroke="black" d="M983.19,-368.19C1015.01,-358.86 1066.27,-343.27 1118.65,-324.13"/>
<polygon fill="black" stroke="black" points="1119.92,-327.39 1128.09,-320.65 1117.5,-320.83 1119.92,-327.39"/>
</g>
<!-- Fallback &#160;&#160;&#160;&#160;&#160;&#160; -->
<g id="node27" class="node">
<title>Fallback &#160;&#160;&#160;&#160;&#160;&#160;</title>
<polygon fill="cyan" stroke="black" points="994.41,-226.54 994.41,-241.46 973.91,-252 944.93,-252 924.43,-241.46 924.43,-226.54 944.93,-216 973.91,-216 994.41,-226.54"/>
<text text-anchor="middle" x="959.42" y="-231.8" font-family="Times,serif" font-size="13.00">Fallback</text>
</g>
<!-- Sequence &#160;&#160;&#160;&#160;&#45;&gt;Fallback &#160;&#160;&#160;&#160;&#160;&#160; -->
<g id="edge26" class="edge">
<title>Sequence &#160;&#160;&#160;&#160;&#45;&gt;Fallback &#160;&#160;&#160;&#160;&#160;&#160;</title>
<path fill="none" stroke="black" d="M1128.1,-291.33C1125.18,-290.17 1122.25,-289.04 1119.42,-288 1068.74,-269.42 1054.4,-269.74 1003.42,-252 1000.9,-251.12 998.3,-250.19 995.7,-249.24"/>
<polygon fill="black" stroke="black" points="996.9,-245.95 986.31,-245.72 994.44,-252.51 996.9,-245.95"/>
</g>
<!-- place0 BlueBox [0.0, &#45;0.001, 0.338] 0.012 YellowBox -->
<g id="node34" class="node">
<title>place0 BlueBox [0.0, &#45;0.001, 0.338] 0.012 YellowBox</title>
<ellipse fill="lightgray" stroke="black" cx="1164.42" cy="-234" rx="151.69" ry="18"/>
<text text-anchor="middle" x="1164.42" y="-231.8" font-family="Times,serif" font-size="13.00">place0 BlueBox [0.0, &#45;0.001, 0.338] 0.012 YellowBox</text>
</g>
<!-- Sequence &#160;&#160;&#160;&#160;&#45;&gt;place0 BlueBox [0.0, &#45;0.001, 0.338] 0.012 YellowBox -->
<g id="edge33" class="edge">
<title>Sequence &#160;&#160;&#160;&#160;&#45;&gt;place0 BlueBox [0.0, &#45;0.001, 0.338] 0.012 YellowBox</title>
<path fill="none" stroke="black" d="M1160.66,-287.7C1161.21,-279.98 1161.87,-270.71 1162.48,-262.11"/>
<polygon fill="black" stroke="black" points="1165.98,-262.33 1163.2,-252.1 1159,-261.83 1165.98,-262.33"/>
</g>
<!-- in_gripper BlueBox -->
<g id="node28" class="node">
<title>in_gripper BlueBox</title>
<ellipse fill="lightgray" stroke="black" cx="903.42" cy="-162" rx="61.55" ry="18"/>
<text text-anchor="middle" x="903.42" y="-159.8" font-family="Times,serif" font-size="13.00">in_gripper BlueBox</text>
</g>
<!-- Fallback &#160;&#160;&#160;&#160;&#160;&#160;&#45;&gt;in_gripper BlueBox -->
<g id="edge27" class="edge">
<title>Fallback &#160;&#160;&#160;&#160;&#160;&#160;&#45;&gt;in_gripper BlueBox</title>
<path fill="none" stroke="black" d="M945.58,-215.7C938.76,-207.18 930.43,-196.76 922.98,-187.45"/>
<polygon fill="black" stroke="black" points="925.7,-185.24 916.72,-179.62 920.23,-189.62 925.7,-185.24"/>
</g>
<!-- Sequence &#160;&#160;&#160;&#160;&#160; -->
<g id="node29" class="node">
<title>Sequence &#160;&#160;&#160;&#160;&#160;</title>
<polygon fill="orange" stroke="black" points="1045.42,-180 983.42,-180 983.42,-144 1045.42,-144 1045.42,-180"/>
<text text-anchor="middle" x="1014.42" y="-159.8" font-family="Times,serif" font-size="13.00">Sequence</text>
</g>
<!-- Fallback &#160;&#160;&#160;&#160;&#160;&#160;&#45;&gt;Sequence &#160;&#160;&#160;&#160;&#160; -->
<g id="edge28" class="edge">
<title>Fallback &#160;&#160;&#160;&#160;&#160;&#160;&#45;&gt;Sequence &#160;&#160;&#160;&#160;&#160;</title>
<path fill="none" stroke="black" d="M973.02,-215.7C979.54,-207.39 987.49,-197.28 994.67,-188.14"/>
<polygon fill="black" stroke="black" points="997.56,-190.13 1000.98,-180.1 992.05,-185.81 997.56,-190.13"/>
</g>
<!-- Fallback &#160;&#160;&#160;&#160;&#160;&#160;&#160; -->
<g id="node30" class="node">
<title>Fallback &#160;&#160;&#160;&#160;&#160;&#160;&#160;</title>
<polygon fill="cyan" stroke="black" points="998.41,-82.54 998.41,-97.46 977.91,-108 948.93,-108 928.43,-97.46 928.43,-82.54 948.93,-72 977.91,-72 998.41,-82.54"/>
<text text-anchor="middle" x="963.42" y="-87.8" font-family="Times,serif" font-size="13.00">Fallback</text>
</g>
<!-- Sequence &#160;&#160;&#160;&#160;&#160;&#45;&gt;Fallback &#160;&#160;&#160;&#160;&#160;&#160;&#160; -->
<g id="edge29" class="edge">
<title>Sequence &#160;&#160;&#160;&#160;&#160;&#45;&gt;Fallback &#160;&#160;&#160;&#160;&#160;&#160;&#160;</title>
<path fill="none" stroke="black" d="M1001.81,-143.7C995.82,-135.47 988.54,-125.48 981.94,-116.42"/>
<polygon fill="black" stroke="black" points="984.6,-114.13 975.88,-108.1 978.94,-118.25 984.6,-114.13"/>
</g>
<!-- pick0 BlueBox -->
<g id="node33" class="node">
<title>pick0 BlueBox</title>
<ellipse fill="lightgray" stroke="black" cx="1064.42" cy="-90" rx="47.84" ry="18"/>
<text text-anchor="middle" x="1064.42" y="-87.8" font-family="Times,serif" font-size="13.00">pick0 BlueBox</text>
</g>
<!-- Sequence &#160;&#160;&#160;&#160;&#160;&#45;&gt;pick0 BlueBox -->
<g id="edge32" class="edge">
<title>Sequence &#160;&#160;&#160;&#160;&#160;&#45;&gt;pick0 BlueBox</title>
<path fill="none" stroke="black" d="M1026.78,-143.7C1032.74,-135.35 1040,-125.18 1046.55,-116.02"/>
<polygon fill="black" stroke="black" points="1049.58,-117.79 1052.55,-107.62 1043.89,-113.73 1049.58,-117.79"/>
</g>
<!-- gripper_state open &#160; -->
<g id="node31" class="node">
<title>gripper_state open &#160;</title>
<ellipse fill="lightgray" stroke="black" cx="901.42" cy="-18" rx="60.09" ry="18"/>
<text text-anchor="middle" x="901.42" y="-15.8" font-family="Times,serif" font-size="13.00">gripper_state open</text>
</g>
<!-- Fallback &#160;&#160;&#160;&#160;&#160;&#160;&#160;&#45;&gt;gripper_state open &#160; -->
<g id="edge30" class="edge">
<title>Fallback &#160;&#160;&#160;&#160;&#160;&#160;&#160;&#45;&gt;gripper_state open &#160;</title>
<path fill="none" stroke="black" d="M948.41,-72.05C940.8,-63.46 931.41,-52.86 923.03,-43.4"/>
<polygon fill="black" stroke="black" points="925.54,-40.95 916.29,-35.79 920.3,-45.6 925.54,-40.95"/>
</g>
<!-- open_gripper &#160; -->
<g id="node32" class="node">
<title>open_gripper &#160;</title>
<ellipse fill="lightgray" stroke="black" cx="1025.42" cy="-18" rx="45.72" ry="18"/>
<text text-anchor="middle" x="1025.42" y="-15.8" font-family="Times,serif" font-size="13.00">open_gripper</text>
</g>
<!-- Fallback &#160;&#160;&#160;&#160;&#160;&#160;&#160;&#45;&gt;open_gripper &#160; -->
<g id="edge31" class="edge">
<title>Fallback &#160;&#160;&#160;&#160;&#160;&#160;&#160;&#45;&gt;open_gripper &#160;</title>
<path fill="none" stroke="black" d="M978.43,-72.05C986.16,-63.33 995.71,-52.54 1004.18,-42.98"/>
<polygon fill="black" stroke="black" points="1006.97,-45.11 1010.98,-35.31 1001.73,-40.47 1006.97,-45.11"/>
</g>
</g>
</svg>
