<?xml version="1.0" encoding="UTF-8" standalone="no"?>
<!DOCTYPE svg PUBLIC "-//W3C//DTD SVG 1.1//EN"
 "http://www.w3.org/Graphics/SVG/1.1/DTD/svg11.dtd">
<!-- Generated by graphviz version 2.43.0 (0)
 -->
<!-- Title: pastafarianism Pages: 1 -->
<svg width="6216pt" height="503pt"
 viewBox="0.00 0.00 6215.66 502.60" xmlns="http://www.w3.org/2000/svg" xmlns:xlink="http://www.w3.org/1999/xlink">
<g id="graph0" class="graph" transform="scale(1 1) rotate(0) translate(4 498.6)">
<title>pastafarianism</title>
<polygon fill="white" stroke="transparent" points="-4,4 -4,-498.6 6211.66,-498.6 6211.66,4 -4,4"/>
<!-- selector:
 insert_gear3_into_shaft3 -->
<g id="node1" class="node">
<title>selector:
 insert_gear3_into_shaft3</title>
<polygon fill="#8deeee" stroke="black" points="2652.08,-442.54 2652.08,-473.18 2542.22,-494.84 2386.87,-494.84 2277.02,-473.18 2277.02,-442.54 2386.87,-420.88 2542.22,-420.88 2652.08,-442.54"/>
<text text-anchor="middle" x="2464.55" y="-463.46" font-family="Times,serif" font-size="18.00">selector:</text>
<text text-anchor="middle" x="2464.55" y="-443.46" font-family="Times,serif" font-size="18.00"> insert_gear3_into_shaft3</text>
</g>
<!-- target:
 is_inserted_to(gear3, shaft3) -->
<g id="node2" class="node">
<title>target:
 is_inserted_to(gear3, shaft3)</title>
<ellipse fill="#ffec8b" stroke="black" cx="2295.55" cy="-351.18" rx="198.89" ry="33.88"/>
<text text-anchor="middle" x="2295.55" y="-356.78" font-family="Times,serif" font-size="18.00">target:</text>
<text text-anchor="middle" x="2295.55" y="-336.78" font-family="Times,serif" font-size="18.00"> is_inserted_to(gear3, shaft3)</text>
</g>
<!-- selector:
 insert_gear3_into_shaft3&#45;&gt;target:
 is_inserted_to(gear3, shaft3) -->
<g id="edge1" class="edge">
<title>selector:
 insert_gear3_into_shaft3&#45;&gt;target:
 is_inserted_to(gear3, shaft3)</title>
<path fill="none" stroke="black" d="M2406.39,-420.84C2389.96,-410.66 2372.06,-399.58 2355.53,-389.34"/>
<polygon fill="black" stroke="black" points="2357.37,-386.36 2347.03,-384.07 2353.69,-392.31 2357.37,-386.36"/>
</g>
<!-- sequence:
 insert_gear3_into_shaft3 -->
<g id="node3" class="node">
<title>sequence:
 insert_gear3_into_shaft3</title>
<polygon fill="#ff7f24" stroke="black" points="2757.05,-375.18 2512.05,-375.18 2512.05,-327.18 2757.05,-327.18 2757.05,-375.18"/>
<text text-anchor="middle" x="2634.55" y="-356.78" font-family="Times,serif" font-size="18.00">sequence:</text>
<text text-anchor="middle" x="2634.55" y="-336.78" font-family="Times,serif" font-size="18.00"> insert_gear3_into_shaft3</text>
</g>
<!-- selector:
 insert_gear3_into_shaft3&#45;&gt;sequence:
 insert_gear3_into_shaft3 -->
<g id="edge2" class="edge">
<title>selector:
 insert_gear3_into_shaft3&#45;&gt;sequence:
 insert_gear3_into_shaft3</title>
<path fill="none" stroke="black" d="M2523.05,-420.84C2544.38,-407.7 2568.19,-393.04 2588.31,-380.65"/>
<polygon fill="black" stroke="black" points="2590.3,-383.53 2596.98,-375.31 2586.63,-377.57 2590.3,-383.53"/>
</g>
<!-- selector:
 change_tool(left_hand, defaultgripper, outwardgripper) -->
<g id="node4" class="node">
<title>selector:
 change_tool(left_hand, defaultgripper, outwardgripper)</title>
<polygon fill="#8deeee" stroke="black" points="1301.09,-229.19 1301.09,-259.82 1067.04,-281.48 736.05,-281.48 502,-259.82 502,-229.19 736.05,-207.53 1067.04,-207.53 1301.09,-229.19"/>
<text text-anchor="middle" x="901.55" y="-250.1" font-family="Times,serif" font-size="18.00">selector:</text>
<text text-anchor="middle" x="901.55" y="-230.1" font-family="Times,serif" font-size="18.00"> change_tool(left_hand, defaultgripper, outwardgripper)</text>
</g>
<!-- sequence:
 insert_gear3_into_shaft3&#45;&gt;selector:
 change_tool(left_hand, defaultgripper, outwardgripper) -->
<g id="edge3" class="edge">
<title>sequence:
 insert_gear3_into_shaft3&#45;&gt;selector:
 change_tool(left_hand, defaultgripper, outwardgripper)</title>
<path fill="none" stroke="black" d="M2553.65,-327.14C2537.19,-323.21 2519.9,-319.64 2503.55,-317.24 2389.01,-300.45 1747.14,-275.2 1311.46,-259.56"/>
<polygon fill="black" stroke="black" points="1311.33,-256.06 1301.21,-259.2 1311.08,-263.05 1311.33,-256.06"/>
</g>
<!-- selector:
 pick_up(left_hand, outwardgripper, gear3) -->
<g id="node10" class="node">
<title>selector:
 pick_up(left_hand, outwardgripper, gear3)</title>
<polygon fill="#8deeee" stroke="black" points="2564.49,-229.19 2564.49,-259.82 2382.93,-281.48 2126.16,-281.48 1944.6,-259.82 1944.6,-229.19 2126.16,-207.53 2382.93,-207.53 2564.49,-229.19"/>
<text text-anchor="middle" x="2254.55" y="-250.1" font-family="Times,serif" font-size="18.00">selector:</text>
<text text-anchor="middle" x="2254.55" y="-230.1" font-family="Times,serif" font-size="18.00"> pick_up(left_hand, outwardgripper, gear3)</text>
</g>
<!-- sequence:
 insert_gear3_into_shaft3&#45;&gt;selector:
 pick_up(left_hand, outwardgripper, gear3) -->
<g id="edge9" class="edge">
<title>sequence:
 insert_gear3_into_shaft3&#45;&gt;selector:
 pick_up(left_hand, outwardgripper, gear3)</title>
<path fill="none" stroke="black" d="M2550.68,-327.08C2504.8,-314.44 2446.75,-298.45 2394.24,-283.98"/>
<polygon fill="black" stroke="black" points="2395.07,-280.58 2384.5,-281.3 2393.21,-287.33 2395.07,-280.58"/>
</g>
<!-- selector:
 insert(left_hand, outwardgripper, gear3, shaft3) -->
<g id="node16" class="node">
<title>selector:
 insert(left_hand, outwardgripper, gear3, shaft3)</title>
<polygon fill="#8deeee" stroke="black" points="3363.56,-229.19 3363.56,-259.82 3159.11,-281.48 2869.98,-281.48 2665.53,-259.82 2665.53,-229.19 2869.98,-207.53 3159.11,-207.53 3363.56,-229.19"/>
<text text-anchor="middle" x="3014.55" y="-250.1" font-family="Times,serif" font-size="18.00">selector:</text>
<text text-anchor="middle" x="3014.55" y="-230.1" font-family="Times,serif" font-size="18.00"> insert(left_hand, outwardgripper, gear3, shaft3)</text>
</g>
<!-- sequence:
 insert_gear3_into_shaft3&#45;&gt;selector:
 insert(left_hand, outwardgripper, gear3, shaft3) -->
<g id="edge15" class="edge">
<title>sequence:
 insert_gear3_into_shaft3&#45;&gt;selector:
 insert(left_hand, outwardgripper, gear3, shaft3)</title>
<path fill="none" stroke="black" d="M2718.41,-327.08C2764.29,-314.44 2822.34,-298.45 2874.86,-283.98"/>
<polygon fill="black" stroke="black" points="2875.88,-287.33 2884.59,-281.3 2874.02,-280.58 2875.88,-287.33"/>
</g>
<!-- selector:
 change_tool(left_hand, outwardgripper, defaultgripper) -->
<g id="node22" class="node">
<title>selector:
 change_tool(left_hand, outwardgripper, defaultgripper)</title>
<polygon fill="#8deeee" stroke="black" points="4668.09,-229.19 4668.09,-259.82 4434.04,-281.48 4103.05,-281.48 3869,-259.82 3869,-229.19 4103.05,-207.53 4434.04,-207.53 4668.09,-229.19"/>
<text text-anchor="middle" x="4268.55" y="-250.1" font-family="Times,serif" font-size="18.00">selector:</text>
<text text-anchor="middle" x="4268.55" y="-230.1" font-family="Times,serif" font-size="18.00"> change_tool(left_hand, outwardgripper, defaultgripper)</text>
</g>
<!-- sequence:
 insert_gear3_into_shaft3&#45;&gt;selector:
 change_tool(left_hand, outwardgripper, defaultgripper) -->
<g id="edge21" class="edge">
<title>sequence:
 insert_gear3_into_shaft3&#45;&gt;selector:
 change_tool(left_hand, outwardgripper, defaultgripper)</title>
<path fill="none" stroke="black" d="M2757.36,-342.31C3003.69,-326.53 3565.66,-290.53 3930.55,-267.15"/>
<polygon fill="black" stroke="black" points="3931,-270.63 3940.75,-266.5 3930.55,-263.65 3931,-270.63"/>
</g>
<!-- target:
 hold(left_hand, outwardgripper) -->
<g id="node5" class="node">
<title>target:
 hold(left_hand, outwardgripper)</title>
<ellipse fill="#ffec8b" stroke="black" cx="401.55" cy="-137.82" rx="221.15" ry="33.88"/>
<text text-anchor="middle" x="401.55" y="-143.42" font-family="Times,serif" font-size="18.00">target:</text>
<text text-anchor="middle" x="401.55" y="-123.42" font-family="Times,serif" font-size="18.00"> hold(left_hand, outwardgripper)</text>
</g>
<!-- selector:
 change_tool(left_hand, defaultgripper, outwardgripper)&#45;&gt;target:
 hold(left_hand, outwardgripper) -->
<g id="edge4" class="edge">
<title>selector:
 change_tool(left_hand, defaultgripper, outwardgripper)&#45;&gt;target:
 hold(left_hand, outwardgripper)</title>
<path fill="none" stroke="black" d="M731.57,-207.92C668.95,-194.81 598.84,-180.13 539.4,-167.69"/>
<polygon fill="black" stroke="black" points="540.09,-164.25 529.58,-165.63 538.65,-171.1 540.09,-164.25"/>
</g>
<!-- sequence:
 change_tool(left_hand, defaultgripper, outwardgripper) -->
<g id="node6" class="node">
<title>sequence:
 change_tool(left_hand, defaultgripper, outwardgripper)</title>
<polygon fill="#ff7f24" stroke="black" points="1162.55,-161.82 640.55,-161.82 640.55,-113.82 1162.55,-113.82 1162.55,-161.82"/>
<text text-anchor="middle" x="901.55" y="-143.42" font-family="Times,serif" font-size="18.00">sequence:</text>
<text text-anchor="middle" x="901.55" y="-123.42" font-family="Times,serif" font-size="18.00"> change_tool(left_hand, defaultgripper, outwardgripper)</text>
</g>
<!-- selector:
 change_tool(left_hand, defaultgripper, outwardgripper)&#45;&gt;sequence:
 change_tool(left_hand, defaultgripper, outwardgripper) -->
<g id="edge5" class="edge">
<title>selector:
 change_tool(left_hand, defaultgripper, outwardgripper)&#45;&gt;sequence:
 change_tool(left_hand, defaultgripper, outwardgripper)</title>
<path fill="none" stroke="black" d="M901.55,-207.48C901.55,-196.09 901.55,-183.57 901.55,-172.36"/>
<polygon fill="black" stroke="black" points="905.05,-172.11 901.55,-162.11 898.05,-172.11 905.05,-172.11"/>
</g>
<!-- precondition:
 hold(left_hand, defaultgripper) -->
<g id="node7" class="node">
<title>precondition:
 hold(left_hand, defaultgripper)</title>
<ellipse fill="#ffec8b" stroke="black" cx="213.55" cy="-33.94" rx="213.59" ry="33.88"/>
<text text-anchor="middle" x="213.55" y="-39.54" font-family="Times,serif" font-size="18.00">precondition:</text>
<text text-anchor="middle" x="213.55" y="-19.54" font-family="Times,serif" font-size="18.00"> hold(left_hand, defaultgripper)</text>
</g>
<!-- sequence:
 change_tool(left_hand, defaultgripper, outwardgripper)&#45;&gt;precondition:
 hold(left_hand, defaultgripper) -->
<g id="edge6" class="edge">
<title>sequence:
 change_tool(left_hand, defaultgripper, outwardgripper)&#45;&gt;precondition:
 hold(left_hand, defaultgripper)</title>
<path fill="none" stroke="black" d="M745.86,-113.77C635.81,-97.47 488.6,-75.67 376.88,-59.13"/>
<polygon fill="black" stroke="black" points="377.27,-55.65 366.87,-57.65 376.24,-62.57 377.27,-55.65"/>
</g>
<!-- precondition:
 is_empty(defaultgripper) -->
<g id="node8" class="node">
<title>precondition:
 is_empty(defaultgripper)</title>
<ellipse fill="#ffec8b" stroke="black" cx="620.55" cy="-33.94" rx="175.23" ry="33.88"/>
<text text-anchor="middle" x="620.55" y="-39.54" font-family="Times,serif" font-size="18.00">precondition:</text>
<text text-anchor="middle" x="620.55" y="-19.54" font-family="Times,serif" font-size="18.00"> is_empty(defaultgripper)</text>
</g>
<!-- sequence:
 change_tool(left_hand, defaultgripper, outwardgripper)&#45;&gt;precondition:
 is_empty(defaultgripper) -->
<g id="edge7" class="edge">
<title>sequence:
 change_tool(left_hand, defaultgripper, outwardgripper)&#45;&gt;precondition:
 is_empty(defaultgripper)</title>
<path fill="none" stroke="black" d="M837.78,-113.7C800.23,-100.09 752.12,-82.65 710.72,-67.64"/>
<polygon fill="black" stroke="black" points="711.78,-64.3 701.18,-64.18 709.39,-70.88 711.78,-64.3"/>
</g>
<!-- action:
 change_tool(left_hand, defaultgripper, outwardgripper) -->
<g id="node9" class="node">
<title>action:
 change_tool(left_hand, defaultgripper, outwardgripper)</title>
<ellipse fill="lightgreen" stroke="black" cx="1182.55" cy="-33.94" rx="369.22" ry="33.88"/>
<text text-anchor="middle" x="1182.55" y="-39.54" font-family="Times,serif" font-size="18.00">action:</text>
<text text-anchor="middle" x="1182.55" y="-19.54" font-family="Times,serif" font-size="18.00"> change_tool(left_hand, defaultgripper, outwardgripper)</text>
</g>
<!-- sequence:
 change_tool(left_hand, defaultgripper, outwardgripper)&#45;&gt;action:
 change_tool(left_hand, defaultgripper, outwardgripper) -->
<g id="edge8" class="edge">
<title>sequence:
 change_tool(left_hand, defaultgripper, outwardgripper)&#45;&gt;action:
 change_tool(left_hand, defaultgripper, outwardgripper)</title>
<path fill="none" stroke="black" d="M965.31,-113.7C1000.61,-100.9 1045.24,-84.72 1084.85,-70.36"/>
<polygon fill="black" stroke="black" points="1086.07,-73.65 1094.27,-66.95 1083.68,-67.06 1086.07,-73.65"/>
</g>
<!-- target:
 hold(outwardgripper, gear3) -->
<g id="node11" class="node">
<title>target:
 hold(outwardgripper, gear3)</title>
<ellipse fill="#ffec8b" stroke="black" cx="1837.55" cy="-137.82" rx="196.65" ry="33.88"/>
<text text-anchor="middle" x="1837.55" y="-143.42" font-family="Times,serif" font-size="18.00">target:</text>
<text text-anchor="middle" x="1837.55" y="-123.42" font-family="Times,serif" font-size="18.00"> hold(outwardgripper, gear3)</text>
</g>
<!-- selector:
 pick_up(left_hand, outwardgripper, gear3)&#45;&gt;target:
 hold(outwardgripper, gear3) -->
<g id="edge10" class="edge">
<title>selector:
 pick_up(left_hand, outwardgripper, gear3)&#45;&gt;target:
 hold(outwardgripper, gear3)</title>
<path fill="none" stroke="black" d="M2115.98,-208.72C2064.21,-195.72 2005.93,-181.09 1956.13,-168.59"/>
<polygon fill="black" stroke="black" points="1956.83,-165.16 1946.28,-166.12 1955.13,-171.95 1956.83,-165.16"/>
</g>
<!-- sequence:
 pick_up(left_hand, outwardgripper, gear3) -->
<g id="node12" class="node">
<title>sequence:
 pick_up(left_hand, outwardgripper, gear3)</title>
<polygon fill="#ff7f24" stroke="black" points="2457.05,-161.82 2052.05,-161.82 2052.05,-113.82 2457.05,-113.82 2457.05,-161.82"/>
<text text-anchor="middle" x="2254.55" y="-143.42" font-family="Times,serif" font-size="18.00">sequence:</text>
<text text-anchor="middle" x="2254.55" y="-123.42" font-family="Times,serif" font-size="18.00"> pick_up(left_hand, outwardgripper, gear3)</text>
</g>
<!-- selector:
 pick_up(left_hand, outwardgripper, gear3)&#45;&gt;sequence:
 pick_up(left_hand, outwardgripper, gear3) -->
<g id="edge11" class="edge">
<title>selector:
 pick_up(left_hand, outwardgripper, gear3)&#45;&gt;sequence:
 pick_up(left_hand, outwardgripper, gear3)</title>
<path fill="none" stroke="black" d="M2254.55,-207.48C2254.55,-196.09 2254.55,-183.57 2254.55,-172.36"/>
<polygon fill="black" stroke="black" points="2258.05,-172.11 2254.55,-162.11 2251.05,-172.11 2258.05,-172.11"/>
</g>
<!-- precondition:
 hold(left_hand, outwardgripper) -->
<g id="node13" class="node">
<title>precondition:
 hold(left_hand, outwardgripper)</title>
<ellipse fill="#ffec8b" stroke="black" cx="1790.55" cy="-33.94" rx="221.15" ry="33.88"/>
<text text-anchor="middle" x="1790.55" y="-39.54" font-family="Times,serif" font-size="18.00">precondition:</text>
<text text-anchor="middle" x="1790.55" y="-19.54" font-family="Times,serif" font-size="18.00"> hold(left_hand, outwardgripper)</text>
</g>
<!-- sequence:
 pick_up(left_hand, outwardgripper, gear3)&#45;&gt;precondition:
 hold(left_hand, outwardgripper) -->
<g id="edge12" class="edge">
<title>sequence:
 pick_up(left_hand, outwardgripper, gear3)&#45;&gt;precondition:
 hold(left_hand, outwardgripper)</title>
<path fill="none" stroke="black" d="M2149.55,-113.77C2082.91,-99.14 1996.06,-80.07 1924.48,-64.35"/>
<polygon fill="black" stroke="black" points="1925,-60.88 1914.48,-62.15 1923.5,-67.72 1925,-60.88"/>
</g>
<!-- precondition:
 is_empty(outwardgripper) -->
<g id="node14" class="node">
<title>precondition:
 is_empty(outwardgripper)</title>
<ellipse fill="#ffec8b" stroke="black" cx="2212.55" cy="-33.94" rx="183.28" ry="33.88"/>
<text text-anchor="middle" x="2212.55" y="-39.54" font-family="Times,serif" font-size="18.00">precondition:</text>
<text text-anchor="middle" x="2212.55" y="-19.54" font-family="Times,serif" font-size="18.00"> is_empty(outwardgripper)</text>
</g>
<!-- sequence:
 pick_up(left_hand, outwardgripper, gear3)&#45;&gt;precondition:
 is_empty(outwardgripper) -->
<g id="edge13" class="edge">
<title>sequence:
 pick_up(left_hand, outwardgripper, gear3)&#45;&gt;precondition:
 is_empty(outwardgripper)</title>
<path fill="none" stroke="black" d="M2245.02,-113.7C2240.58,-102.94 2235.16,-89.79 2230.03,-77.35"/>
<polygon fill="black" stroke="black" points="2233.23,-75.92 2226.18,-68.01 2226.76,-78.59 2233.23,-75.92"/>
</g>
<!-- action:
 pick_up(left_hand, outwardgripper, gear3) -->
<g id="node15" class="node">
<title>action:
 pick_up(left_hand, outwardgripper, gear3)</title>
<ellipse fill="lightgreen" stroke="black" cx="2700.55" cy="-33.94" rx="286.26" ry="33.88"/>
<text text-anchor="middle" x="2700.55" y="-39.54" font-family="Times,serif" font-size="18.00">action:</text>
<text text-anchor="middle" x="2700.55" y="-19.54" font-family="Times,serif" font-size="18.00"> pick_up(left_hand, outwardgripper, gear3)</text>
</g>
<!-- sequence:
 pick_up(left_hand, outwardgripper, gear3)&#45;&gt;action:
 pick_up(left_hand, outwardgripper, gear3) -->
<g id="edge14" class="edge">
<title>sequence:
 pick_up(left_hand, outwardgripper, gear3)&#45;&gt;action:
 pick_up(left_hand, outwardgripper, gear3)</title>
<path fill="none" stroke="black" d="M2355.47,-113.77C2416.58,-99.81 2495.36,-81.81 2562.22,-66.54"/>
<polygon fill="black" stroke="black" points="2563.03,-69.95 2572,-64.31 2561.47,-63.12 2563.03,-69.95"/>
</g>
<!-- &quot;target:\n is_inserted_to(gear3, shaft3)&quot;* -->
<g id="node17" class="node">
<title>&quot;target:\n is_inserted_to(gear3, shaft3)&quot;*</title>
<ellipse fill="#ffec8b" stroke="black" cx="3014.55" cy="-137.82" rx="211.35" ry="33.88"/>
<text text-anchor="middle" x="3014.55" y="-143.42" font-family="Times,serif" font-size="18.00">&quot;target:</text>
<text text-anchor="middle" x="3014.55" y="-123.42" font-family="Times,serif" font-size="18.00"> is_inserted_to(gear3, shaft3)&quot;*</text>
</g>
<!-- selector:
 insert(left_hand, outwardgripper, gear3, shaft3)&#45;&gt;&quot;target:\n is_inserted_to(gear3, shaft3)&quot;* -->
<g id="edge16" class="edge">
<title>selector:
 insert(left_hand, outwardgripper, gear3, shaft3)&#45;&gt;&quot;target:\n is_inserted_to(gear3, shaft3)&quot;*</title>
<path fill="none" stroke="black" d="M3014.55,-207.48C3014.55,-199.32 3014.55,-190.58 3014.55,-182.15"/>
<polygon fill="black" stroke="black" points="3018.05,-182.1 3014.55,-172.1 3011.05,-182.1 3018.05,-182.1"/>
</g>
<!-- sequence:
 insert(left_hand, outwardgripper, gear3, shaft3) -->
<g id="node18" class="node">
<title>sequence:
 insert(left_hand, outwardgripper, gear3, shaft3)</title>
<polygon fill="#ff7f24" stroke="black" points="3869.55,-161.82 3413.55,-161.82 3413.55,-113.82 3869.55,-113.82 3869.55,-161.82"/>
<text text-anchor="middle" x="3641.55" y="-143.42" font-family="Times,serif" font-size="18.00">sequence:</text>
<text text-anchor="middle" x="3641.55" y="-123.42" font-family="Times,serif" font-size="18.00"> insert(left_hand, outwardgripper, gear3, shaft3)</text>
</g>
<!-- selector:
 insert(left_hand, outwardgripper, gear3, shaft3)&#45;&gt;sequence:
 insert(left_hand, outwardgripper, gear3, shaft3) -->
<g id="edge17" class="edge">
<title>selector:
 insert(left_hand, outwardgripper, gear3, shaft3)&#45;&gt;sequence:
 insert(left_hand, outwardgripper, gear3, shaft3)</title>
<path fill="none" stroke="black" d="M3202.67,-212.1C3295.75,-196.55 3406.49,-178.07 3493.45,-163.55"/>
<polygon fill="black" stroke="black" points="3494.1,-166.99 3503.39,-161.89 3492.95,-160.08 3494.1,-166.99"/>
</g>
<!-- &quot;precondition:\n hold(left_hand, outwardgripper)&quot;* -->
<g id="node19" class="node">
<title>&quot;precondition:\n hold(left_hand, outwardgripper)&quot;*</title>
<ellipse fill="#ffec8b" stroke="black" cx="3238.55" cy="-33.94" rx="233.19" ry="33.88"/>
<text text-anchor="middle" x="3238.55" y="-39.54" font-family="Times,serif" font-size="18.00">&quot;precondition:</text>
<text text-anchor="middle" x="3238.55" y="-19.54" font-family="Times,serif" font-size="18.00"> hold(left_hand, outwardgripper)&quot;*</text>
</g>
<!-- sequence:
 insert(left_hand, outwardgripper, gear3, shaft3)&#45;&gt;&quot;precondition:\n hold(left_hand, outwardgripper)&quot;* -->
<g id="edge18" class="edge">
<title>sequence:
 insert(left_hand, outwardgripper, gear3, shaft3)&#45;&gt;&quot;precondition:\n hold(left_hand, outwardgripper)&quot;*</title>
<path fill="none" stroke="black" d="M3550.35,-113.77C3494.7,-99.7 3422.84,-81.53 3362.12,-66.18"/>
<polygon fill="black" stroke="black" points="3362.65,-62.7 3352.09,-63.65 3360.93,-69.49 3362.65,-62.7"/>
</g>
<!-- precondition:
 hold(outwardgripper, gear3) -->
<g id="node20" class="node">
<title>precondition:
 hold(outwardgripper, gear3)</title>
<ellipse fill="#ffec8b" stroke="black" cx="3686.55" cy="-33.94" rx="196.65" ry="33.88"/>
<text text-anchor="middle" x="3686.55" y="-39.54" font-family="Times,serif" font-size="18.00">precondition:</text>
<text text-anchor="middle" x="3686.55" y="-19.54" font-family="Times,serif" font-size="18.00"> hold(outwardgripper, gear3)</text>
</g>
<!-- sequence:
 insert(left_hand, outwardgripper, gear3, shaft3)&#45;&gt;precondition:
 hold(outwardgripper, gear3) -->
<g id="edge19" class="edge">
<title>sequence:
 insert(left_hand, outwardgripper, gear3, shaft3)&#45;&gt;precondition:
 hold(outwardgripper, gear3)</title>
<path fill="none" stroke="black" d="M3651.76,-113.7C3656.51,-102.94 3662.32,-89.79 3667.82,-77.35"/>
<polygon fill="black" stroke="black" points="3671.1,-78.57 3671.94,-68.01 3664.7,-75.75 3671.1,-78.57"/>
</g>
<!-- action:
 insert(left_hand, outwardgripper, gear3, shaft3) -->
<g id="node21" class="node">
<title>action:
 insert(left_hand, outwardgripper, gear3, shaft3)</title>
<ellipse fill="lightgreen" stroke="black" cx="4223.55" cy="-33.94" rx="322.38" ry="33.88"/>
<text text-anchor="middle" x="4223.55" y="-39.54" font-family="Times,serif" font-size="18.00">action:</text>
<text text-anchor="middle" x="4223.55" y="-19.54" font-family="Times,serif" font-size="18.00"> insert(left_hand, outwardgripper, gear3, shaft3)</text>
</g>
<!-- sequence:
 insert(left_hand, outwardgripper, gear3, shaft3)&#45;&gt;action:
 insert(left_hand, outwardgripper, gear3, shaft3) -->
<g id="edge20" class="edge">
<title>sequence:
 insert(left_hand, outwardgripper, gear3, shaft3)&#45;&gt;action:
 insert(left_hand, outwardgripper, gear3, shaft3)</title>
<path fill="none" stroke="black" d="M3773.25,-113.77C3855.58,-99.35 3962.51,-80.64 4051.51,-65.06"/>
<polygon fill="black" stroke="black" points="4052.2,-68.49 4061.44,-63.32 4050.99,-61.6 4052.2,-68.49"/>
</g>
<!-- target:
 hold(left_hand, defaultgripper) -->
<g id="node23" class="node">
<title>target:
 hold(left_hand, defaultgripper)</title>
<ellipse fill="#ffec8b" stroke="black" cx="4268.55" cy="-137.82" rx="213.59" ry="33.88"/>
<text text-anchor="middle" x="4268.55" y="-143.42" font-family="Times,serif" font-size="18.00">target:</text>
<text text-anchor="middle" x="4268.55" y="-123.42" font-family="Times,serif" font-size="18.00"> hold(left_hand, defaultgripper)</text>
</g>
<!-- selector:
 change_tool(left_hand, outwardgripper, defaultgripper)&#45;&gt;target:
 hold(left_hand, defaultgripper) -->
<g id="edge22" class="edge">
<title>selector:
 change_tool(left_hand, outwardgripper, defaultgripper)&#45;&gt;target:
 hold(left_hand, defaultgripper)</title>
<path fill="none" stroke="black" d="M4268.55,-207.48C4268.55,-199.32 4268.55,-190.58 4268.55,-182.15"/>
<polygon fill="black" stroke="black" points="4272.05,-182.1 4268.55,-172.1 4265.05,-182.1 4272.05,-182.1"/>
</g>
<!-- sequence:
 change_tool(left_hand, outwardgripper, defaultgripper) -->
<g id="node24" class="node">
<title>sequence:
 change_tool(left_hand, outwardgripper, defaultgripper)</title>
<polygon fill="#ff7f24" stroke="black" points="5290.55,-161.82 4768.55,-161.82 4768.55,-113.82 5290.55,-113.82 5290.55,-161.82"/>
<text text-anchor="middle" x="5029.55" y="-143.42" font-family="Times,serif" font-size="18.00">sequence:</text>
<text text-anchor="middle" x="5029.55" y="-123.42" font-family="Times,serif" font-size="18.00"> change_tool(left_hand, outwardgripper, defaultgripper)</text>
</g>
<!-- selector:
 change_tool(left_hand, outwardgripper, defaultgripper)&#45;&gt;sequence:
 change_tool(left_hand, outwardgripper, defaultgripper) -->
<g id="edge23" class="edge">
<title>selector:
 change_tool(left_hand, outwardgripper, defaultgripper)&#45;&gt;sequence:
 change_tool(left_hand, outwardgripper, defaultgripper)</title>
<path fill="none" stroke="black" d="M4491.47,-212.84C4606.42,-197.03 4744.67,-178.01 4852.24,-163.21"/>
<polygon fill="black" stroke="black" points="4852.8,-166.67 4862.23,-161.84 4851.84,-159.73 4852.8,-166.67"/>
</g>
<!-- &quot;precondition:\n hold(left_hand, outwardgripper)&quot;** -->
<g id="node25" class="node">
<title>&quot;precondition:\n hold(left_hand, outwardgripper)&quot;**</title>
<ellipse fill="#ffec8b" stroke="black" cx="4803.55" cy="-33.94" rx="239.92" ry="33.88"/>
<text text-anchor="middle" x="4803.55" y="-39.54" font-family="Times,serif" font-size="18.00">&quot;precondition:</text>
<text text-anchor="middle" x="4803.55" y="-19.54" font-family="Times,serif" font-size="18.00"> hold(left_hand, outwardgripper)&quot;**</text>
</g>
<!-- sequence:
 change_tool(left_hand, outwardgripper, defaultgripper)&#45;&gt;&quot;precondition:\n hold(left_hand, outwardgripper)&quot;** -->
<g id="edge24" class="edge">
<title>sequence:
 change_tool(left_hand, outwardgripper, defaultgripper)&#45;&gt;&quot;precondition:\n hold(left_hand, outwardgripper)&quot;**</title>
<path fill="none" stroke="black" d="M4978.26,-113.7C4950.05,-100.99 4914.44,-84.93 4882.74,-70.64"/>
<polygon fill="black" stroke="black" points="4884.03,-67.38 4873.47,-66.46 4881.15,-73.76 4884.03,-67.38"/>
</g>
<!-- &quot;precondition:\n is_empty(outwardgripper)&quot;* -->
<g id="node26" class="node">
<title>&quot;precondition:\n is_empty(outwardgripper)&quot;*</title>
<ellipse fill="#ffec8b" stroke="black" cx="5256.55" cy="-33.94" rx="195.32" ry="33.88"/>
<text text-anchor="middle" x="5256.55" y="-39.54" font-family="Times,serif" font-size="18.00">&quot;precondition:</text>
<text text-anchor="middle" x="5256.55" y="-19.54" font-family="Times,serif" font-size="18.00"> is_empty(outwardgripper)&quot;*</text>
</g>
<!-- sequence:
 change_tool(left_hand, outwardgripper, defaultgripper)&#45;&gt;&quot;precondition:\n is_empty(outwardgripper)&quot;* -->
<g id="edge25" class="edge">
<title>sequence:
 change_tool(left_hand, outwardgripper, defaultgripper)&#45;&gt;&quot;precondition:\n is_empty(outwardgripper)&quot;*</title>
<path fill="none" stroke="black" d="M5081.06,-113.7C5109.75,-100.83 5146.07,-84.53 5178.21,-70.1"/>
<polygon fill="black" stroke="black" points="5179.9,-73.18 5187.59,-65.89 5177.04,-66.79 5179.9,-73.18"/>
</g>
<!-- action:
 change_tool(left_hand, outwardgripper, defaultgripper) -->
<g id="node27" class="node">
<title>action:
 change_tool(left_hand, outwardgripper, defaultgripper)</title>
<ellipse fill="lightgreen" stroke="black" cx="5838.55" cy="-33.94" rx="369.22" ry="33.88"/>
<text text-anchor="middle" x="5838.55" y="-39.54" font-family="Times,serif" font-size="18.00">action:</text>
<text text-anchor="middle" x="5838.55" y="-19.54" font-family="Times,serif" font-size="18.00"> change_tool(left_hand, outwardgripper, defaultgripper)</text>
</g>
<!-- sequence:
 change_tool(left_hand, outwardgripper, defaultgripper)&#45;&gt;action:
 change_tool(left_hand, outwardgripper, defaultgripper) -->
<g id="edge26" class="edge">
<title>sequence:
 change_tool(left_hand, outwardgripper, defaultgripper)&#45;&gt;action:
 change_tool(left_hand, outwardgripper, defaultgripper)</title>
<path fill="none" stroke="black" d="M5212.36,-113.8C5331.93,-98.74 5488.9,-78.97 5615.76,-63"/>
<polygon fill="black" stroke="black" points="5616.51,-66.43 5626,-61.71 5615.64,-59.49 5616.51,-66.43"/>
</g>
</g>
</svg>
