<?xml version="1.0" encoding="UTF-8" standalone="no"?>
<!DOCTYPE svg PUBLIC "-//W3C//DTD SVG 1.1//EN"
 "http://www.w3.org/Graphics/SVG/1.1/DTD/svg11.dtd">
<!-- Generated by graphviz version 2.43.0 (0)
 -->
<!-- Title: pastafarianism Pages: 1 -->
<svg width="1831pt" height="620pt"
 viewBox="0.00 0.00 1830.89 620.00" xmlns="http://www.w3.org/2000/svg" xmlns:xlink="http://www.w3.org/1999/xlink">
<g id="graph0" class="graph" transform="scale(1 1) rotate(0) translate(4 616)">
<title>pastafarianism</title>
<polygon fill="white" stroke="transparent" points="-4,4 -4,-616 1826.89,-616 1826.89,4 -4,4"/>
<!-- Sequence -->
<g id="node1" class="node">
<title>Sequence</title>
<polygon fill="orange" stroke="black" points="831.82,-612 769.82,-612 769.82,-576 831.82,-576 831.82,-612"/>
<text text-anchor="middle" x="800.82" y="-591.8" font-family="Times,serif" font-size="9.00">Sequence</text>
</g>
<!-- Fallback -->
<g id="node2" class="node">
<title>Fallback</title>
<polygon fill="cyan" stroke="black" points="414.81,-514.54 414.81,-529.46 394.31,-540 365.32,-540 344.83,-529.46 344.83,-514.54 365.32,-504 394.31,-504 414.81,-514.54"/>
<text text-anchor="middle" x="379.82" y="-519.8" font-family="Times,serif" font-size="9.00">Fallback</text>
</g>
<!-- Sequence&#45;&gt;Fallback -->
<g id="edge1" class="edge">
<title>Sequence&#45;&gt;Fallback</title>
<path fill="none" stroke="black" d="M769.52,-587.8C695.72,-575.53 510.62,-544.75 424.8,-530.48"/>
<polygon fill="black" stroke="black" points="425.28,-527.01 414.84,-528.82 424.13,-533.92 425.28,-527.01"/>
</g>
<!-- Fallback &#160;&#160; -->
<g id="node13" class="node">
<title>Fallback &#160;&#160;</title>
<polygon fill="cyan" stroke="black" points="740.81,-514.54 740.81,-529.46 720.31,-540 691.32,-540 670.83,-529.46 670.83,-514.54 691.32,-504 720.31,-504 740.81,-514.54"/>
<text text-anchor="middle" x="705.82" y="-519.8" font-family="Times,serif" font-size="9.00">Fallback</text>
</g>
<!-- Sequence&#45;&gt;Fallback &#160;&#160; -->
<g id="edge12" class="edge">
<title>Sequence&#45;&gt;Fallback &#160;&#160;</title>
<path fill="none" stroke="black" d="M777.33,-575.7C764.14,-565.97 747.59,-553.78 733.73,-543.57"/>
<polygon fill="black" stroke="black" points="735.63,-540.62 725.51,-537.51 731.48,-546.26 735.63,-540.62"/>
</g>
<!-- Fallback &#160;&#160;&#160;&#160;&#160;&#160;&#160;&#160;&#160; -->
<g id="node38" class="node">
<title>Fallback &#160;&#160;&#160;&#160;&#160;&#160;&#160;&#160;&#160;</title>
<polygon fill="cyan" stroke="black" points="931.81,-514.54 931.81,-529.46 911.31,-540 882.32,-540 861.83,-529.46 861.83,-514.54 882.32,-504 911.31,-504 931.81,-514.54"/>
<text text-anchor="middle" x="896.82" y="-519.8" font-family="Times,serif" font-size="9.00">Fallback</text>
</g>
<!-- Sequence&#45;&gt;Fallback &#160;&#160;&#160;&#160;&#160;&#160;&#160;&#160;&#160; -->
<g id="edge37" class="edge">
<title>Sequence&#45;&gt;Fallback &#160;&#160;&#160;&#160;&#160;&#160;&#160;&#160;&#160;</title>
<path fill="none" stroke="black" d="M824.55,-575.7C837.88,-565.97 854.61,-553.78 868.61,-543.57"/>
<polygon fill="black" stroke="black" points="870.9,-546.23 876.92,-537.51 866.78,-540.57 870.9,-546.23"/>
</g>
<!-- Fallback &#160;&#160;&#160;&#160;&#160;&#160;&#160;&#160;&#160;&#160;&#160;&#160; -->
<g id="node49" class="node">
<title>Fallback &#160;&#160;&#160;&#160;&#160;&#160;&#160;&#160;&#160;&#160;&#160;&#160;</title>
<polygon fill="cyan" stroke="black" points="1323.81,-514.54 1323.81,-529.46 1303.31,-540 1274.32,-540 1253.83,-529.46 1253.83,-514.54 1274.32,-504 1303.31,-504 1323.81,-514.54"/>
<text text-anchor="middle" x="1288.82" y="-519.8" font-family="Times,serif" font-size="9.00">Fallback</text>
</g>
<!-- Sequence&#45;&gt;Fallback &#160;&#160;&#160;&#160;&#160;&#160;&#160;&#160;&#160;&#160;&#160;&#160; -->
<g id="edge48" class="edge">
<title>Sequence&#45;&gt;Fallback &#160;&#160;&#160;&#160;&#160;&#160;&#160;&#160;&#160;&#160;&#160;&#160;</title>
<path fill="none" stroke="black" d="M832.09,-588.51C915.81,-576.51 1145.35,-543.58 1243.42,-529.51"/>
<polygon fill="black" stroke="black" points="1244.2,-532.94 1253.61,-528.05 1243.21,-526.01 1244.2,-532.94"/>
</g>
<!-- object_at GreenBox [0.0, &#45;0.133, 0.175] 0.02 KittingBox -->
<g id="node3" class="node">
<title>object_at GreenBox [0.0, &#45;0.133, 0.175] 0.02 KittingBox</title>
<ellipse fill="lightgray" stroke="black" cx="169.82" cy="-450" rx="160.51" ry="18"/>
<text text-anchor="middle" x="169.82" y="-447.8" font-family="Times,serif" font-size="9.00">object_at GreenBox [0.0, &#45;0.133, 0.175] 0.02 KittingBox</text>
</g>
<!-- Fallback&#45;&gt;object_at GreenBox [0.0, &#45;0.133, 0.175] 0.02 KittingBox -->
<g id="edge2" class="edge">
<title>Fallback&#45;&gt;object_at GreenBox [0.0, &#45;0.133, 0.175] 0.02 KittingBox</title>
<path fill="none" stroke="black" d="M350.62,-511.27C319.07,-500.75 267.98,-483.72 228.14,-470.44"/>
<polygon fill="black" stroke="black" points="229.13,-467.08 218.53,-467.24 226.91,-473.72 229.13,-467.08"/>
</g>
<!-- Sequence  -->
<g id="node4" class="node">
<title>Sequence </title>
<polygon fill="orange" stroke="black" points="410.82,-468 348.82,-468 348.82,-432 410.82,-432 410.82,-468"/>
<text text-anchor="middle" x="379.82" y="-447.8" font-family="Times,serif" font-size="9.00">Sequence</text>
</g>
<!-- Fallback&#45;&gt;Sequence  -->
<g id="edge3" class="edge">
<title>Fallback&#45;&gt;Sequence </title>
<path fill="none" stroke="black" d="M379.82,-503.7C379.82,-495.98 379.82,-486.71 379.82,-478.11"/>
<polygon fill="black" stroke="black" points="383.32,-478.1 379.82,-468.1 376.32,-478.1 383.32,-478.1"/>
</g>
<!-- Fallback  -->
<g id="node5" class="node">
<title>Fallback </title>
<polygon fill="cyan" stroke="black" points="207.81,-370.54 207.81,-385.46 187.31,-396 158.32,-396 137.83,-385.46 137.83,-370.54 158.32,-360 187.31,-360 207.81,-370.54"/>
<text text-anchor="middle" x="172.82" y="-375.8" font-family="Times,serif" font-size="9.00">Fallback</text>
</g>
<!-- Sequence &#45;&gt;Fallback  -->
<g id="edge4" class="edge">
<title>Sequence &#45;&gt;Fallback </title>
<path fill="none" stroke="black" d="M348.51,-435.29C345.59,-434.13 342.66,-433.02 339.82,-432 286.18,-412.83 270.76,-414.28 216.82,-396 214.29,-395.14 211.69,-394.23 209.08,-393.28"/>
<polygon fill="black" stroke="black" points="210.27,-389.99 199.68,-389.79 207.83,-396.56 210.27,-389.99"/>
</g>
<!-- place0 GreenBox [0.0, &#45;0.133, 0.175] 0.02 KittingBox -->
<g id="node12" class="node">
<title>place0 GreenBox [0.0, &#45;0.133, 0.175] 0.02 KittingBox</title>
<ellipse fill="lightgray" stroke="black" cx="379.82" cy="-378" rx="154.31" ry="18"/>
<text text-anchor="middle" x="379.82" y="-375.8" font-family="Times,serif" font-size="9.00">place0 GreenBox [0.0, &#45;0.133, 0.175] 0.02 KittingBox</text>
</g>
<!-- Sequence &#45;&gt;place0 GreenBox [0.0, &#45;0.133, 0.175] 0.02 KittingBox -->
<g id="edge11" class="edge">
<title>Sequence &#45;&gt;place0 GreenBox [0.0, &#45;0.133, 0.175] 0.02 KittingBox</title>
<path fill="none" stroke="black" d="M379.82,-431.7C379.82,-423.98 379.82,-414.71 379.82,-406.11"/>
<polygon fill="black" stroke="black" points="383.32,-406.1 379.82,-396.1 376.32,-406.1 383.32,-406.1"/>
</g>
<!-- in_gripper GreenBox -->
<g id="node6" class="node">
<title>in_gripper GreenBox</title>
<ellipse fill="lightgray" stroke="black" cx="65.82" cy="-306" rx="65.64" ry="18"/>
<text text-anchor="middle" x="65.82" y="-303.8" font-family="Times,serif" font-size="9.00">in_gripper GreenBox</text>
</g>
<!-- Fallback &#45;&gt;in_gripper GreenBox -->
<g id="edge5" class="edge">
<title>Fallback &#45;&gt;in_gripper GreenBox</title>
<path fill="none" stroke="black" d="M151.68,-363.17C136.53,-353.26 115.85,-339.73 98.58,-328.43"/>
<polygon fill="black" stroke="black" points="100.19,-325.3 89.9,-322.76 96.35,-331.16 100.19,-325.3"/>
</g>
<!-- Sequence &#160; -->
<g id="node7" class="node">
<title>Sequence &#160;</title>
<polygon fill="orange" stroke="black" points="211.82,-324 149.82,-324 149.82,-288 211.82,-288 211.82,-324"/>
<text text-anchor="middle" x="180.82" y="-303.8" font-family="Times,serif" font-size="9.00">Sequence</text>
</g>
<!-- Fallback &#45;&gt;Sequence &#160; -->
<g id="edge6" class="edge">
<title>Fallback &#45;&gt;Sequence &#160;</title>
<path fill="none" stroke="black" d="M174.8,-359.7C175.68,-351.98 176.74,-342.71 177.72,-334.11"/>
<polygon fill="black" stroke="black" points="181.2,-334.44 178.86,-324.1 174.25,-333.64 181.2,-334.44"/>
</g>
<!-- Fallback &#160; -->
<g id="node8" class="node">
<title>Fallback &#160;</title>
<polygon fill="cyan" stroke="black" points="210.81,-226.54 210.81,-241.46 190.31,-252 161.32,-252 140.83,-241.46 140.83,-226.54 161.32,-216 190.31,-216 210.81,-226.54"/>
<text text-anchor="middle" x="175.82" y="-231.8" font-family="Times,serif" font-size="9.00">Fallback</text>
</g>
<!-- Sequence &#160;&#45;&gt;Fallback &#160; -->
<g id="edge7" class="edge">
<title>Sequence &#160;&#45;&gt;Fallback &#160;</title>
<path fill="none" stroke="black" d="M179.58,-287.7C179.03,-279.98 178.37,-270.71 177.75,-262.11"/>
<polygon fill="black" stroke="black" points="181.24,-261.83 177.04,-252.1 174.26,-262.33 181.24,-261.83"/>
</g>
<!-- pick0 GreenBox -->
<g id="node11" class="node">
<title>pick0 GreenBox</title>
<ellipse fill="lightgray" stroke="black" cx="281.82" cy="-234" rx="52.58" ry="18"/>
<text text-anchor="middle" x="281.82" y="-231.8" font-family="Times,serif" font-size="9.00">pick0 GreenBox</text>
</g>
<!-- Sequence &#160;&#45;&gt;pick0 GreenBox -->
<g id="edge10" class="edge">
<title>Sequence &#160;&#45;&gt;pick0 GreenBox</title>
<path fill="none" stroke="black" d="M205.53,-287.88C219.29,-278.33 236.55,-266.37 251.18,-256.24"/>
<polygon fill="black" stroke="black" points="253.21,-259.09 259.43,-250.51 249.22,-253.33 253.21,-259.09"/>
</g>
<!-- gripper_state open -->
<g id="node9" class="node">
<title>gripper_state open</title>
<ellipse fill="lightgray" stroke="black" cx="78.82" cy="-162" rx="60.09" ry="18"/>
<text text-anchor="middle" x="78.82" y="-159.8" font-family="Times,serif" font-size="9.00">gripper_state open</text>
</g>
<!-- Fallback &#160;&#45;&gt;gripper_state open -->
<g id="edge8" class="edge">
<title>Fallback &#160;&#45;&gt;gripper_state open</title>
<path fill="none" stroke="black" d="M155.72,-218.5C142.36,-208.85 124.56,-196.01 109.45,-185.11"/>
<polygon fill="black" stroke="black" points="111.08,-181.96 100.92,-178.95 106.98,-187.64 111.08,-181.96"/>
</g>
<!-- open_gripper -->
<g id="node10" class="node">
<title>open_gripper</title>
<ellipse fill="lightgray" stroke="black" cx="202.82" cy="-162" rx="45.72" ry="18"/>
<text text-anchor="middle" x="202.82" y="-159.8" font-family="Times,serif" font-size="9.00">open_gripper</text>
</g>
<!-- Fallback &#160;&#45;&gt;open_gripper -->
<g id="edge9" class="edge">
<title>Fallback &#160;&#45;&gt;open_gripper</title>
<path fill="none" stroke="black" d="M182.49,-215.7C185.53,-207.81 189.2,-198.3 192.58,-189.55"/>
<polygon fill="black" stroke="black" points="195.89,-190.69 196.22,-180.1 189.36,-188.17 195.89,-190.69"/>
</g>
<!-- unstacked -->
<g id="node14" class="node">
<title>unstacked</title>
<ellipse fill="lightgray" stroke="black" cx="619.82" cy="-450" rx="36.9" ry="18"/>
<text text-anchor="middle" x="619.82" y="-447.8" font-family="Times,serif" font-size="9.00">unstacked</text>
</g>
<!-- Fallback &#160;&#160;&#45;&gt;unstacked -->
<g id="edge13" class="edge">
<title>Fallback &#160;&#160;&#45;&gt;unstacked</title>
<path fill="none" stroke="black" d="M687.16,-505.81C675.13,-496.02 659.31,-483.15 646.03,-472.34"/>
<polygon fill="black" stroke="black" points="648.11,-469.52 638.15,-465.92 643.69,-474.95 648.11,-469.52"/>
</g>
<!-- Sequence &#160;&#160; -->
<g id="node15" class="node">
<title>Sequence &#160;&#160;</title>
<polygon fill="orange" stroke="black" points="736.82,-468 674.82,-468 674.82,-432 736.82,-432 736.82,-468"/>
<text text-anchor="middle" x="705.82" y="-447.8" font-family="Times,serif" font-size="9.00">Sequence</text>
</g>
<!-- Fallback &#160;&#160;&#45;&gt;Sequence &#160;&#160; -->
<g id="edge14" class="edge">
<title>Fallback &#160;&#160;&#45;&gt;Sequence &#160;&#160;</title>
<path fill="none" stroke="black" d="M705.82,-503.7C705.82,-495.98 705.82,-486.71 705.82,-478.11"/>
<polygon fill="black" stroke="black" points="709.32,-478.1 705.82,-468.1 702.32,-478.1 709.32,-478.1"/>
</g>
<!-- Fallback &#160;&#160;&#160; -->
<g id="node16" class="node">
<title>Fallback &#160;&#160;&#160;</title>
<polygon fill="cyan" stroke="black" points="621.81,-370.54 621.81,-385.46 601.31,-396 572.32,-396 551.83,-385.46 551.83,-370.54 572.32,-360 601.31,-360 621.81,-370.54"/>
<text text-anchor="middle" x="586.82" y="-375.8" font-family="Times,serif" font-size="9.00">Fallback</text>
</g>
<!-- Sequence &#160;&#160;&#45;&gt;Fallback &#160;&#160;&#160; -->
<g id="edge15" class="edge">
<title>Sequence &#160;&#160;&#45;&gt;Fallback &#160;&#160;&#160;</title>
<path fill="none" stroke="black" d="M676.71,-431.88C659.01,-421.47 636.41,-408.17 618.3,-397.52"/>
<polygon fill="black" stroke="black" points="619.69,-394.27 609.29,-392.22 616.14,-400.31 619.69,-394.27"/>
</g>
<!-- Fallback &#160;&#160;&#160;&#160;&#160;&#160; -->
<g id="node27" class="node">
<title>Fallback &#160;&#160;&#160;&#160;&#160;&#160;</title>
<polygon fill="cyan" stroke="black" points="812.81,-370.54 812.81,-385.46 792.31,-396 763.32,-396 742.83,-385.46 742.83,-370.54 763.32,-360 792.31,-360 812.81,-370.54"/>
<text text-anchor="middle" x="777.82" y="-375.8" font-family="Times,serif" font-size="9.00">Fallback</text>
</g>
<!-- Sequence &#160;&#160;&#45;&gt;Fallback &#160;&#160;&#160;&#160;&#160;&#160; -->
<g id="edge26" class="edge">
<title>Sequence &#160;&#160;&#45;&gt;Fallback &#160;&#160;&#160;&#160;&#160;&#160;</title>
<path fill="none" stroke="black" d="M723.62,-431.7C732.77,-422.79 744.07,-411.81 753.97,-402.19"/>
<polygon fill="black" stroke="black" points="756.48,-404.62 761.21,-395.14 751.6,-399.61 756.48,-404.62"/>
</g>
<!-- object_at BlueBox [0.12, 0.0, 0.12] 0.02 GreenBox -->
<g id="node17" class="node">
<title>object_at BlueBox [0.12, 0.0, 0.12] 0.02 GreenBox</title>
<ellipse fill="lightgray" stroke="black" cx="384.82" cy="-306" rx="145.48" ry="18"/>
<text text-anchor="middle" x="384.82" y="-303.8" font-family="Times,serif" font-size="9.00">object_at BlueBox [0.12, 0.0, 0.12] 0.02 GreenBox</text>
</g>
<!-- Fallback &#160;&#160;&#160;&#45;&gt;object_at BlueBox [0.12, 0.0, 0.12] 0.02 GreenBox -->
<g id="edge16" class="edge">
<title>Fallback &#160;&#160;&#160;&#45;&gt;object_at BlueBox [0.12, 0.0, 0.12] 0.02 GreenBox</title>
<path fill="none" stroke="black" d="M559.9,-366.38C554.27,-364.22 548.36,-362 542.82,-360 510.42,-348.31 473.99,-336.04 444.28,-326.24"/>
<polygon fill="black" stroke="black" points="445.07,-322.82 434.48,-323.02 442.88,-329.47 445.07,-322.82"/>
</g>
<!-- Sequence &#160;&#160;&#160; -->
<g id="node18" class="node">
<title>Sequence &#160;&#160;&#160;</title>
<polygon fill="orange" stroke="black" points="609.82,-324 547.82,-324 547.82,-288 609.82,-288 609.82,-324"/>
<text text-anchor="middle" x="578.82" y="-303.8" font-family="Times,serif" font-size="9.00">Sequence</text>
</g>
<!-- Fallback &#160;&#160;&#160;&#45;&gt;Sequence &#160;&#160;&#160; -->
<g id="edge17" class="edge">
<title>Fallback &#160;&#160;&#160;&#45;&gt;Sequence &#160;&#160;&#160;</title>
<path fill="none" stroke="black" d="M584.84,-359.7C583.96,-351.98 582.9,-342.71 581.92,-334.11"/>
<polygon fill="black" stroke="black" points="585.39,-333.64 580.77,-324.1 578.43,-334.44 585.39,-333.64"/>
</g>
<!-- Fallback &#160;&#160;&#160;&#160; -->
<g id="node19" class="node">
<title>Fallback &#160;&#160;&#160;&#160;</title>
<polygon fill="cyan" stroke="black" points="431.81,-226.54 431.81,-241.46 411.31,-252 382.32,-252 361.83,-241.46 361.83,-226.54 382.32,-216 411.31,-216 431.81,-226.54"/>
<text text-anchor="middle" x="396.82" y="-231.8" font-family="Times,serif" font-size="9.00">Fallback</text>
</g>
<!-- Sequence &#160;&#160;&#160;&#45;&gt;Fallback &#160;&#160;&#160;&#160; -->
<g id="edge18" class="edge">
<title>Sequence &#160;&#160;&#160;&#45;&gt;Fallback &#160;&#160;&#160;&#160;</title>
<path fill="none" stroke="black" d="M547.44,-291.49C544.53,-290.29 541.62,-289.11 538.82,-288 495.67,-270.92 484.24,-268.36 440.82,-252 438.47,-251.12 436.06,-250.2 433.62,-249.27"/>
<polygon fill="black" stroke="black" points="434.84,-245.99 424.25,-245.68 432.34,-252.53 434.84,-245.99"/>
</g>
<!-- place0 BlueBox [0.12, 0.0, 0.12] 0.02 GreenBox -->
<g id="node26" class="node">
<title>place0 BlueBox [0.12, 0.0, 0.12] 0.02 GreenBox</title>
<ellipse fill="lightgray" stroke="black" cx="588.82" cy="-234" rx="139.28" ry="18"/>
<text text-anchor="middle" x="588.82" y="-231.8" font-family="Times,serif" font-size="9.00">place0 BlueBox [0.12, 0.0, 0.12] 0.02 GreenBox</text>
</g>
<!-- Sequence &#160;&#160;&#160;&#45;&gt;place0 BlueBox [0.12, 0.0, 0.12] 0.02 GreenBox -->
<g id="edge25" class="edge">
<title>Sequence &#160;&#160;&#160;&#45;&gt;place0 BlueBox [0.12, 0.0, 0.12] 0.02 GreenBox</title>
<path fill="none" stroke="black" d="M581.29,-287.7C582.39,-279.98 583.72,-270.71 584.94,-262.11"/>
<polygon fill="black" stroke="black" points="588.42,-262.5 586.37,-252.1 581.5,-261.51 588.42,-262.5"/>
</g>
<!-- in_gripper BlueBox -->
<g id="node20" class="node">
<title>in_gripper BlueBox</title>
<ellipse fill="lightgray" stroke="black" cx="370.82" cy="-162" rx="61.55" ry="18"/>
<text text-anchor="middle" x="370.82" y="-159.8" font-family="Times,serif" font-size="9.00">in_gripper BlueBox</text>
</g>
<!-- Fallback &#160;&#160;&#160;&#160;&#45;&gt;in_gripper BlueBox -->
<g id="edge19" class="edge">
<title>Fallback &#160;&#160;&#160;&#160;&#45;&gt;in_gripper BlueBox</title>
<path fill="none" stroke="black" d="M390.39,-215.7C387.46,-207.81 383.93,-198.3 380.68,-189.55"/>
<polygon fill="black" stroke="black" points="383.93,-188.26 377.17,-180.1 377.37,-190.7 383.93,-188.26"/>
</g>
<!-- Sequence &#160;&#160;&#160;&#160; -->
<g id="node21" class="node">
<title>Sequence &#160;&#160;&#160;&#160;</title>
<polygon fill="orange" stroke="black" points="512.82,-180 450.82,-180 450.82,-144 512.82,-144 512.82,-180"/>
<text text-anchor="middle" x="481.82" y="-159.8" font-family="Times,serif" font-size="9.00">Sequence</text>
</g>
<!-- Fallback &#160;&#160;&#160;&#160;&#45;&gt;Sequence &#160;&#160;&#160;&#160; -->
<g id="edge20" class="edge">
<title>Fallback &#160;&#160;&#160;&#160;&#45;&gt;Sequence &#160;&#160;&#160;&#160;</title>
<path fill="none" stroke="black" d="M415.26,-217.81C426.32,-208.71 440.61,-196.94 453.11,-186.64"/>
<polygon fill="black" stroke="black" points="455.53,-189.19 461.02,-180.13 451.08,-183.78 455.53,-189.19"/>
</g>
<!-- Fallback &#160;&#160;&#160;&#160;&#160; -->
<g id="node22" class="node">
<title>Fallback &#160;&#160;&#160;&#160;&#160;</title>
<polygon fill="cyan" stroke="black" points="463.81,-82.54 463.81,-97.46 443.31,-108 414.32,-108 393.83,-97.46 393.83,-82.54 414.32,-72 443.31,-72 463.81,-82.54"/>
<text text-anchor="middle" x="428.82" y="-87.8" font-family="Times,serif" font-size="9.00">Fallback</text>
</g>
<!-- Sequence &#160;&#160;&#160;&#160;&#45;&gt;Fallback &#160;&#160;&#160;&#160;&#160; -->
<g id="edge21" class="edge">
<title>Sequence &#160;&#160;&#160;&#160;&#45;&gt;Fallback &#160;&#160;&#160;&#160;&#160;</title>
<path fill="none" stroke="black" d="M468.72,-143.7C462.43,-135.39 454.77,-125.28 447.85,-116.14"/>
<polygon fill="black" stroke="black" points="450.6,-113.96 441.77,-108.1 445.01,-118.19 450.6,-113.96"/>
</g>
<!-- pick0 BlueBox -->
<g id="node25" class="node">
<title>pick0 BlueBox</title>
<ellipse fill="lightgray" stroke="black" cx="529.82" cy="-90" rx="47.84" ry="18"/>
<text text-anchor="middle" x="529.82" y="-87.8" font-family="Times,serif" font-size="9.00">pick0 BlueBox</text>
</g>
<!-- Sequence &#160;&#160;&#160;&#160;&#45;&gt;pick0 BlueBox -->
<g id="edge24" class="edge">
<title>Sequence &#160;&#160;&#160;&#160;&#45;&gt;pick0 BlueBox</title>
<path fill="none" stroke="black" d="M493.68,-143.7C499.41,-135.35 506.38,-125.18 512.66,-116.02"/>
<polygon fill="black" stroke="black" points="515.65,-117.85 518.42,-107.62 509.88,-113.89 515.65,-117.85"/>
</g>
<!-- gripper_state open  -->
<g id="node23" class="node">
<title>gripper_state open </title>
<ellipse fill="lightgray" stroke="black" cx="366.82" cy="-18" rx="60.09" ry="18"/>
<text text-anchor="middle" x="366.82" y="-15.8" font-family="Times,serif" font-size="9.00">gripper_state open</text>
</g>
<!-- Fallback &#160;&#160;&#160;&#160;&#160;&#45;&gt;gripper_state open  -->
<g id="edge22" class="edge">
<title>Fallback &#160;&#160;&#160;&#160;&#160;&#45;&gt;gripper_state open </title>
<path fill="none" stroke="black" d="M413.81,-72.05C406.19,-63.46 396.81,-52.86 388.43,-43.4"/>
<polygon fill="black" stroke="black" points="390.94,-40.95 381.69,-35.79 385.7,-45.6 390.94,-40.95"/>
</g>
<!-- open_gripper  -->
<g id="node24" class="node">
<title>open_gripper </title>
<ellipse fill="lightgray" stroke="black" cx="490.82" cy="-18" rx="45.72" ry="18"/>
<text text-anchor="middle" x="490.82" y="-15.8" font-family="Times,serif" font-size="9.00">open_gripper</text>
</g>
<!-- Fallback &#160;&#160;&#160;&#160;&#160;&#45;&gt;open_gripper  -->
<g id="edge23" class="edge">
<title>Fallback &#160;&#160;&#160;&#160;&#160;&#45;&gt;open_gripper </title>
<path fill="none" stroke="black" d="M443.83,-72.05C451.55,-63.33 461.11,-52.54 469.58,-42.98"/>
<polygon fill="black" stroke="black" points="472.36,-45.11 476.37,-35.31 467.12,-40.47 472.36,-45.11"/>
</g>
<!-- object_at YellowBox [0.0, 0.12, 0.12] 0.02 GreenBox -->
<g id="node28" class="node">
<title>object_at YellowBox [0.0, 0.12, 0.12] 0.02 GreenBox</title>
<ellipse fill="lightgray" stroke="black" cx="777.82" cy="-306" rx="150.22" ry="18"/>
<text text-anchor="middle" x="777.82" y="-303.8" font-family="Times,serif" font-size="9.00">object_at YellowBox [0.0, 0.12, 0.12] 0.02 GreenBox</text>
</g>
<!-- Fallback &#160;&#160;&#160;&#160;&#160;&#160;&#45;&gt;object_at YellowBox [0.0, 0.12, 0.12] 0.02 GreenBox -->
<g id="edge27" class="edge">
<title>Fallback &#160;&#160;&#160;&#160;&#160;&#160;&#45;&gt;object_at YellowBox [0.0, 0.12, 0.12] 0.02 GreenBox</title>
<path fill="none" stroke="black" d="M777.82,-359.7C777.82,-351.98 777.82,-342.71 777.82,-334.11"/>
<polygon fill="black" stroke="black" points="781.32,-334.1 777.82,-324.1 774.32,-334.1 781.32,-334.1"/>
</g>
<!-- Sequence &#160;&#160;&#160;&#160;&#160; -->
<g id="node29" class="node">
<title>Sequence &#160;&#160;&#160;&#160;&#160;</title>
<polygon fill="orange" stroke="black" points="1007.82,-324 945.82,-324 945.82,-288 1007.82,-288 1007.82,-324"/>
<text text-anchor="middle" x="976.82" y="-303.8" font-family="Times,serif" font-size="9.00">Sequence</text>
</g>
<!-- Fallback &#160;&#160;&#160;&#160;&#160;&#160;&#45;&gt;Sequence &#160;&#160;&#160;&#160;&#160; -->
<g id="edge28" class="edge">
<title>Fallback &#160;&#160;&#160;&#160;&#160;&#160;&#45;&gt;Sequence &#160;&#160;&#160;&#160;&#160;</title>
<path fill="none" stroke="black" d="M807.67,-367.84C837.86,-358.4 886.04,-342.87 935.83,-324.24"/>
<polygon fill="black" stroke="black" points="937.35,-327.41 945.47,-320.6 934.88,-320.86 937.35,-327.41"/>
</g>
<!-- Fallback &#160;&#160;&#160;&#160;&#160;&#160;&#160; -->
<g id="node30" class="node">
<title>Fallback &#160;&#160;&#160;&#160;&#160;&#160;&#160;</title>
<polygon fill="cyan" stroke="black" points="819.81,-226.54 819.81,-241.46 799.31,-252 770.32,-252 749.83,-241.46 749.83,-226.54 770.32,-216 799.31,-216 819.81,-226.54"/>
<text text-anchor="middle" x="784.82" y="-231.8" font-family="Times,serif" font-size="9.00">Fallback</text>
</g>
<!-- Sequence &#160;&#160;&#160;&#160;&#160;&#45;&gt;Fallback &#160;&#160;&#160;&#160;&#160;&#160;&#160; -->
<g id="edge29" class="edge">
<title>Sequence &#160;&#160;&#160;&#160;&#160;&#45;&gt;Fallback &#160;&#160;&#160;&#160;&#160;&#160;&#160;</title>
<path fill="none" stroke="black" d="M945.47,-291.4C942.56,-290.22 939.64,-289.07 936.82,-288 889.5,-270.09 876.43,-269.12 828.82,-252 826.3,-251.1 823.72,-250.15 821.11,-249.18"/>
<polygon fill="black" stroke="black" points="822.33,-245.89 811.74,-245.63 819.85,-252.44 822.33,-245.89"/>
</g>
<!-- place0 YellowBox [0.0, 0.12, 0.12] 0.02 GreenBox -->
<g id="node37" class="node">
<title>place0 YellowBox [0.0, 0.12, 0.12] 0.02 GreenBox</title>
<ellipse fill="lightgray" stroke="black" cx="981.82" cy="-234" rx="143.52" ry="18"/>
<text text-anchor="middle" x="981.82" y="-231.8" font-family="Times,serif" font-size="9.00">place0 YellowBox [0.0, 0.12, 0.12] 0.02 GreenBox</text>
</g>
<!-- Sequence &#160;&#160;&#160;&#160;&#160;&#45;&gt;place0 YellowBox [0.0, 0.12, 0.12] 0.02 GreenBox -->
<g id="edge36" class="edge">
<title>Sequence &#160;&#160;&#160;&#160;&#160;&#45;&gt;place0 YellowBox [0.0, 0.12, 0.12] 0.02 GreenBox</title>
<path fill="none" stroke="black" d="M978.05,-287.7C978.6,-279.98 979.27,-270.71 979.88,-262.11"/>
<polygon fill="black" stroke="black" points="983.37,-262.33 980.6,-252.1 976.39,-261.83 983.37,-262.33"/>
</g>
<!-- in_gripper YellowBox -->
<g id="node31" class="node">
<title>in_gripper YellowBox</title>
<ellipse fill="lightgray" stroke="black" cx="726.82" cy="-162" rx="66.29" ry="18"/>
<text text-anchor="middle" x="726.82" y="-159.8" font-family="Times,serif" font-size="9.00">in_gripper YellowBox</text>
</g>
<!-- Fallback &#160;&#160;&#160;&#160;&#160;&#160;&#160;&#45;&gt;in_gripper YellowBox -->
<g id="edge30" class="edge">
<title>Fallback &#160;&#160;&#160;&#160;&#160;&#160;&#160;&#45;&gt;in_gripper YellowBox</title>
<path fill="none" stroke="black" d="M770.48,-215.7C763.42,-207.18 754.79,-196.76 747.08,-187.45"/>
<polygon fill="black" stroke="black" points="749.67,-185.09 740.59,-179.62 744.28,-189.56 749.67,-185.09"/>
</g>
<!-- Sequence &#160;&#160;&#160;&#160;&#160;&#160; -->
<g id="node32" class="node">
<title>Sequence &#160;&#160;&#160;&#160;&#160;&#160;</title>
<polygon fill="orange" stroke="black" points="872.82,-180 810.82,-180 810.82,-144 872.82,-144 872.82,-180"/>
<text text-anchor="middle" x="841.82" y="-159.8" font-family="Times,serif" font-size="9.00">Sequence</text>
</g>
<!-- Fallback &#160;&#160;&#160;&#160;&#160;&#160;&#160;&#45;&gt;Sequence &#160;&#160;&#160;&#160;&#160;&#160; -->
<g id="edge31" class="edge">
<title>Fallback &#160;&#160;&#160;&#160;&#160;&#160;&#160;&#45;&gt;Sequence &#160;&#160;&#160;&#160;&#160;&#160;</title>
<path fill="none" stroke="black" d="M798.91,-215.7C805.74,-207.3 814.07,-197.07 821.57,-187.86"/>
<polygon fill="black" stroke="black" points="824.29,-190.07 827.89,-180.1 818.86,-185.65 824.29,-190.07"/>
</g>
<!-- Fallback &#160;&#160;&#160;&#160;&#160;&#160;&#160;&#160; -->
<g id="node33" class="node">
<title>Fallback &#160;&#160;&#160;&#160;&#160;&#160;&#160;&#160;</title>
<polygon fill="cyan" stroke="black" points="823.81,-82.54 823.81,-97.46 803.31,-108 774.32,-108 753.83,-97.46 753.83,-82.54 774.32,-72 803.31,-72 823.81,-82.54"/>
<text text-anchor="middle" x="788.82" y="-87.8" font-family="Times,serif" font-size="9.00">Fallback</text>
</g>
<!-- Sequence &#160;&#160;&#160;&#160;&#160;&#160;&#45;&gt;Fallback &#160;&#160;&#160;&#160;&#160;&#160;&#160;&#160; -->
<g id="edge32" class="edge">
<title>Sequence &#160;&#160;&#160;&#160;&#160;&#160;&#45;&gt;Fallback &#160;&#160;&#160;&#160;&#160;&#160;&#160;&#160;</title>
<path fill="none" stroke="black" d="M828.72,-143.7C822.43,-135.39 814.77,-125.28 807.85,-116.14"/>
<polygon fill="black" stroke="black" points="810.6,-113.96 801.77,-108.1 805.01,-118.19 810.6,-113.96"/>
</g>
<!-- pick0 YellowBox -->
<g id="node36" class="node">
<title>pick0 YellowBox</title>
<ellipse fill="lightgray" stroke="black" cx="894.82" cy="-90" rx="53.23" ry="18"/>
<text text-anchor="middle" x="894.82" y="-87.8" font-family="Times,serif" font-size="9.00">pick0 YellowBox</text>
</g>
<!-- Sequence &#160;&#160;&#160;&#160;&#160;&#160;&#45;&gt;pick0 YellowBox -->
<g id="edge35" class="edge">
<title>Sequence &#160;&#160;&#160;&#160;&#160;&#160;&#45;&gt;pick0 YellowBox</title>
<path fill="none" stroke="black" d="M854.92,-143.7C861.3,-135.27 869.09,-124.97 876.09,-115.73"/>
<polygon fill="black" stroke="black" points="878.99,-117.71 882.23,-107.62 873.41,-113.48 878.99,-117.71"/>
</g>
<!-- gripper_state open &#160; -->
<g id="node34" class="node">
<title>gripper_state open &#160;</title>
<ellipse fill="lightgray" stroke="black" cx="726.82" cy="-18" rx="60.09" ry="18"/>
<text text-anchor="middle" x="726.82" y="-15.8" font-family="Times,serif" font-size="9.00">gripper_state open</text>
</g>
<!-- Fallback &#160;&#160;&#160;&#160;&#160;&#160;&#160;&#160;&#45;&gt;gripper_state open &#160; -->
<g id="edge33" class="edge">
<title>Fallback &#160;&#160;&#160;&#160;&#160;&#160;&#160;&#160;&#45;&gt;gripper_state open &#160;</title>
<path fill="none" stroke="black" d="M773.81,-72.05C766.19,-63.46 756.81,-52.86 748.43,-43.4"/>
<polygon fill="black" stroke="black" points="750.94,-40.95 741.69,-35.79 745.7,-45.6 750.94,-40.95"/>
</g>
<!-- open_gripper &#160; -->
<g id="node35" class="node">
<title>open_gripper &#160;</title>
<ellipse fill="lightgray" stroke="black" cx="850.82" cy="-18" rx="45.72" ry="18"/>
<text text-anchor="middle" x="850.82" y="-15.8" font-family="Times,serif" font-size="9.00">open_gripper</text>
</g>
<!-- Fallback &#160;&#160;&#160;&#160;&#160;&#160;&#160;&#160;&#45;&gt;open_gripper &#160; -->
<g id="edge34" class="edge">
<title>Fallback &#160;&#160;&#160;&#160;&#160;&#160;&#160;&#160;&#45;&gt;open_gripper &#160;</title>
<path fill="none" stroke="black" d="M803.83,-72.05C811.55,-63.33 821.11,-52.54 829.58,-42.98"/>
<polygon fill="black" stroke="black" points="832.36,-45.11 836.37,-35.31 827.12,-40.47 832.36,-45.11"/>
</g>
<!-- object_at BlueBox [0.0, 0.0, 0.22] 0.02 GreenBox -->
<g id="node39" class="node">
<title>object_at BlueBox [0.0, 0.0, 0.22] 0.02 GreenBox</title>
<ellipse fill="lightgray" stroke="black" cx="896.82" cy="-450" rx="142.06" ry="18"/>
<text text-anchor="middle" x="896.82" y="-447.8" font-family="Times,serif" font-size="9.00">object_at BlueBox [0.0, 0.0, 0.22] 0.02 GreenBox</text>
</g>
<!-- Fallback &#160;&#160;&#160;&#160;&#160;&#160;&#160;&#160;&#160;&#45;&gt;object_at BlueBox [0.0, 0.0, 0.22] 0.02 GreenBox -->
<g id="edge38" class="edge">
<title>Fallback &#160;&#160;&#160;&#160;&#160;&#160;&#160;&#160;&#160;&#45;&gt;object_at BlueBox [0.0, 0.0, 0.22] 0.02 GreenBox</title>
<path fill="none" stroke="black" d="M896.82,-503.7C896.82,-495.98 896.82,-486.71 896.82,-478.11"/>
<polygon fill="black" stroke="black" points="900.32,-478.1 896.82,-468.1 893.32,-478.1 900.32,-478.1"/>
</g>
<!-- Sequence &#160;&#160;&#160;&#160;&#160;&#160;&#160; -->
<g id="node40" class="node">
<title>Sequence &#160;&#160;&#160;&#160;&#160;&#160;&#160;</title>
<polygon fill="orange" stroke="black" points="1118.82,-468 1056.82,-468 1056.82,-432 1118.82,-432 1118.82,-468"/>
<text text-anchor="middle" x="1087.82" y="-447.8" font-family="Times,serif" font-size="9.00">Sequence</text>
</g>
<!-- Fallback &#160;&#160;&#160;&#160;&#160;&#160;&#160;&#160;&#160;&#45;&gt;Sequence &#160;&#160;&#160;&#160;&#160;&#160;&#160; -->
<g id="edge39" class="edge">
<title>Fallback &#160;&#160;&#160;&#160;&#160;&#160;&#160;&#160;&#160;&#45;&gt;Sequence &#160;&#160;&#160;&#160;&#160;&#160;&#160;</title>
<path fill="none" stroke="black" d="M925.97,-511.39C954.62,-501.81 999.76,-486.35 1046.98,-468.22"/>
<polygon fill="black" stroke="black" points="1048.39,-471.43 1056.45,-464.56 1045.86,-464.9 1048.39,-471.43"/>
</g>
<!-- Fallback &#160;&#160;&#160;&#160;&#160;&#160;&#160;&#160;&#160;&#160; -->
<g id="node41" class="node">
<title>Fallback &#160;&#160;&#160;&#160;&#160;&#160;&#160;&#160;&#160;&#160;</title>
<polygon fill="cyan" stroke="black" points="1122.81,-370.54 1122.81,-385.46 1102.31,-396 1073.32,-396 1052.83,-385.46 1052.83,-370.54 1073.32,-360 1102.31,-360 1122.81,-370.54"/>
<text text-anchor="middle" x="1087.82" y="-375.8" font-family="Times,serif" font-size="9.00">Fallback</text>
</g>
<!-- Sequence &#160;&#160;&#160;&#160;&#160;&#160;&#160;&#45;&gt;Fallback &#160;&#160;&#160;&#160;&#160;&#160;&#160;&#160;&#160;&#160; -->
<g id="edge40" class="edge">
<title>Sequence &#160;&#160;&#160;&#160;&#160;&#160;&#160;&#45;&gt;Fallback &#160;&#160;&#160;&#160;&#160;&#160;&#160;&#160;&#160;&#160;</title>
<path fill="none" stroke="black" d="M1087.82,-431.7C1087.82,-423.98 1087.82,-414.71 1087.82,-406.11"/>
<polygon fill="black" stroke="black" points="1091.32,-406.1 1087.82,-396.1 1084.32,-406.1 1091.32,-406.1"/>
</g>
<!-- place0 BlueBox [0.0, 0.0, 0.22] 0.02 GreenBox -->
<g id="node48" class="node">
<title>place0 BlueBox [0.0, 0.0, 0.22] 0.02 GreenBox</title>
<ellipse fill="lightgray" stroke="black" cx="1276.82" cy="-378" rx="135.85" ry="18"/>
<text text-anchor="middle" x="1276.82" y="-375.8" font-family="Times,serif" font-size="9.00">place0 BlueBox [0.0, 0.0, 0.22] 0.02 GreenBox</text>
</g>
<!-- Sequence &#160;&#160;&#160;&#160;&#160;&#160;&#160;&#45;&gt;place0 BlueBox [0.0, 0.0, 0.22] 0.02 GreenBox -->
<g id="edge47" class="edge">
<title>Sequence &#160;&#160;&#160;&#160;&#160;&#160;&#160;&#45;&gt;place0 BlueBox [0.0, 0.0, 0.22] 0.02 GreenBox</title>
<path fill="none" stroke="black" d="M1119.19,-435.46C1122.1,-434.27 1125.01,-433.1 1127.82,-432 1158.02,-420.22 1192.06,-408.03 1219.97,-398.32"/>
<polygon fill="black" stroke="black" points="1221.27,-401.57 1229.57,-394.99 1218.98,-394.96 1221.27,-401.57"/>
</g>
<!-- in_gripper BlueBox  -->
<g id="node42" class="node">
<title>in_gripper BlueBox </title>
<ellipse fill="lightgray" stroke="black" cx="1087.82" cy="-306" rx="61.55" ry="18"/>
<text text-anchor="middle" x="1087.82" y="-303.8" font-family="Times,serif" font-size="9.00">in_gripper BlueBox</text>
</g>
<!-- Fallback &#160;&#160;&#160;&#160;&#160;&#160;&#160;&#160;&#160;&#160;&#45;&gt;in_gripper BlueBox  -->
<g id="edge41" class="edge">
<title>Fallback &#160;&#160;&#160;&#160;&#160;&#160;&#160;&#160;&#160;&#160;&#45;&gt;in_gripper BlueBox </title>
<path fill="none" stroke="black" d="M1087.82,-359.7C1087.82,-351.98 1087.82,-342.71 1087.82,-334.11"/>
<polygon fill="black" stroke="black" points="1091.32,-334.1 1087.82,-324.1 1084.32,-334.1 1091.32,-334.1"/>
</g>
<!-- Sequence &#160;&#160;&#160;&#160;&#160;&#160;&#160;&#160; -->
<g id="node43" class="node">
<title>Sequence &#160;&#160;&#160;&#160;&#160;&#160;&#160;&#160;</title>
<polygon fill="orange" stroke="black" points="1229.82,-324 1167.82,-324 1167.82,-288 1229.82,-288 1229.82,-324"/>
<text text-anchor="middle" x="1198.82" y="-303.8" font-family="Times,serif" font-size="9.00">Sequence</text>
</g>
<!-- Fallback &#160;&#160;&#160;&#160;&#160;&#160;&#160;&#160;&#160;&#160;&#45;&gt;Sequence &#160;&#160;&#160;&#160;&#160;&#160;&#160;&#160; -->
<g id="edge42" class="edge">
<title>Fallback &#160;&#160;&#160;&#160;&#160;&#160;&#160;&#160;&#160;&#160;&#45;&gt;Sequence &#160;&#160;&#160;&#160;&#160;&#160;&#160;&#160;</title>
<path fill="none" stroke="black" d="M1109.22,-363.5C1124.35,-353.96 1145,-340.94 1162.66,-329.8"/>
<polygon fill="black" stroke="black" points="1164.98,-332.47 1171.58,-324.18 1161.25,-326.55 1164.98,-332.47"/>
</g>
<!-- Fallback &#160;&#160;&#160;&#160;&#160;&#160;&#160;&#160;&#160;&#160;&#160; -->
<g id="node44" class="node">
<title>Fallback &#160;&#160;&#160;&#160;&#160;&#160;&#160;&#160;&#160;&#160;&#160;</title>
<polygon fill="cyan" stroke="black" points="1215.81,-226.54 1215.81,-241.46 1195.31,-252 1166.32,-252 1145.83,-241.46 1145.83,-226.54 1166.32,-216 1195.31,-216 1215.81,-226.54"/>
<text text-anchor="middle" x="1180.82" y="-231.8" font-family="Times,serif" font-size="9.00">Fallback</text>
</g>
<!-- Sequence &#160;&#160;&#160;&#160;&#160;&#160;&#160;&#160;&#45;&gt;Fallback &#160;&#160;&#160;&#160;&#160;&#160;&#160;&#160;&#160;&#160;&#160; -->
<g id="edge43" class="edge">
<title>Sequence &#160;&#160;&#160;&#160;&#160;&#160;&#160;&#160;&#45;&gt;Fallback &#160;&#160;&#160;&#160;&#160;&#160;&#160;&#160;&#160;&#160;&#160;</title>
<path fill="none" stroke="black" d="M1194.37,-287.7C1192.36,-279.9 1189.95,-270.51 1187.72,-261.83"/>
<polygon fill="black" stroke="black" points="1191.1,-260.92 1185.22,-252.1 1184.32,-262.66 1191.1,-260.92"/>
</g>
<!-- pick0 BlueBox  -->
<g id="node47" class="node">
<title>pick0 BlueBox </title>
<ellipse fill="lightgray" stroke="black" cx="1281.82" cy="-234" rx="47.84" ry="18"/>
<text text-anchor="middle" x="1281.82" y="-231.8" font-family="Times,serif" font-size="9.00">pick0 BlueBox</text>
</g>
<!-- Sequence &#160;&#160;&#160;&#160;&#160;&#160;&#160;&#160;&#45;&gt;pick0 BlueBox  -->
<g id="edge46" class="edge">
<title>Sequence &#160;&#160;&#160;&#160;&#160;&#160;&#160;&#160;&#45;&gt;pick0 BlueBox </title>
<path fill="none" stroke="black" d="M1219.33,-287.7C1230.26,-278.49 1243.81,-267.06 1255.5,-257.2"/>
<polygon fill="black" stroke="black" points="1257.85,-259.79 1263.24,-250.67 1253.34,-254.44 1257.85,-259.79"/>
</g>
<!-- gripper_state open &#160;&#160; -->
<g id="node45" class="node">
<title>gripper_state open &#160;&#160;</title>
<ellipse fill="lightgray" stroke="black" cx="1118.82" cy="-162" rx="60.09" ry="18"/>
<text text-anchor="middle" x="1118.82" y="-159.8" font-family="Times,serif" font-size="9.00">gripper_state open</text>
</g>
<!-- Fallback &#160;&#160;&#160;&#160;&#160;&#160;&#160;&#160;&#160;&#160;&#160;&#45;&gt;gripper_state open &#160;&#160; -->
<g id="edge44" class="edge">
<title>Fallback &#160;&#160;&#160;&#160;&#160;&#160;&#160;&#160;&#160;&#160;&#160;&#45;&gt;gripper_state open &#160;&#160;</title>
<path fill="none" stroke="black" d="M1165.81,-216.05C1158.19,-207.46 1148.81,-196.86 1140.43,-187.4"/>
<polygon fill="black" stroke="black" points="1142.94,-184.95 1133.69,-179.79 1137.7,-189.6 1142.94,-184.95"/>
</g>
<!-- open_gripper &#160;&#160; -->
<g id="node46" class="node">
<title>open_gripper &#160;&#160;</title>
<ellipse fill="lightgray" stroke="black" cx="1242.82" cy="-162" rx="45.72" ry="18"/>
<text text-anchor="middle" x="1242.82" y="-159.8" font-family="Times,serif" font-size="9.00">open_gripper</text>
</g>
<!-- Fallback &#160;&#160;&#160;&#160;&#160;&#160;&#160;&#160;&#160;&#160;&#160;&#45;&gt;open_gripper &#160;&#160; -->
<g id="edge45" class="edge">
<title>Fallback &#160;&#160;&#160;&#160;&#160;&#160;&#160;&#160;&#160;&#160;&#160;&#45;&gt;open_gripper &#160;&#160;</title>
<path fill="none" stroke="black" d="M1195.83,-216.05C1203.55,-207.33 1213.11,-196.54 1221.58,-186.98"/>
<polygon fill="black" stroke="black" points="1224.36,-189.11 1228.37,-179.31 1219.12,-184.47 1224.36,-189.11"/>
</g>
<!-- object_at YellowBox [0.0, 0.0, 0.175] 0.02 KittingBox -->
<g id="node50" class="node">
<title>object_at YellowBox [0.0, 0.0, 0.175] 0.02 KittingBox</title>
<ellipse fill="lightgray" stroke="black" cx="1288.82" cy="-450" rx="152.34" ry="18"/>
<text text-anchor="middle" x="1288.82" y="-447.8" font-family="Times,serif" font-size="9.00">object_at YellowBox [0.0, 0.0, 0.175] 0.02 KittingBox</text>
</g>
<!-- Fallback &#160;&#160;&#160;&#160;&#160;&#160;&#160;&#160;&#160;&#160;&#160;&#160;&#45;&gt;object_at YellowBox [0.0, 0.0, 0.175] 0.02 KittingBox -->
<g id="edge49" class="edge">
<title>Fallback &#160;&#160;&#160;&#160;&#160;&#160;&#160;&#160;&#160;&#160;&#160;&#160;&#45;&gt;object_at YellowBox [0.0, 0.0, 0.175] 0.02 KittingBox</title>
<path fill="none" stroke="black" d="M1288.82,-503.7C1288.82,-495.98 1288.82,-486.71 1288.82,-478.11"/>
<polygon fill="black" stroke="black" points="1292.32,-478.1 1288.82,-468.1 1285.32,-478.1 1292.32,-478.1"/>
</g>
<!-- Sequence &#160;&#160;&#160;&#160;&#160;&#160;&#160;&#160;&#160; -->
<g id="node51" class="node">
<title>Sequence &#160;&#160;&#160;&#160;&#160;&#160;&#160;&#160;&#160;</title>
<polygon fill="orange" stroke="black" points="1520.82,-468 1458.82,-468 1458.82,-432 1520.82,-432 1520.82,-468"/>
<text text-anchor="middle" x="1489.82" y="-447.8" font-family="Times,serif" font-size="9.00">Sequence</text>
</g>
<!-- Fallback &#160;&#160;&#160;&#160;&#160;&#160;&#160;&#160;&#160;&#160;&#160;&#160;&#45;&gt;Sequence &#160;&#160;&#160;&#160;&#160;&#160;&#160;&#160;&#160; -->
<g id="edge50" class="edge">
<title>Fallback &#160;&#160;&#160;&#160;&#160;&#160;&#160;&#160;&#160;&#160;&#160;&#160;&#45;&gt;Sequence &#160;&#160;&#160;&#160;&#160;&#160;&#160;&#160;&#160;</title>
<path fill="none" stroke="black" d="M1319.05,-511.88C1349.7,-502.45 1398.63,-486.91 1449.05,-468.15"/>
<polygon fill="black" stroke="black" points="1450.34,-471.4 1458.48,-464.61 1447.88,-464.85 1450.34,-471.4"/>
</g>
<!-- Fallback &#160;&#160;&#160;&#160;&#160;&#160;&#160;&#160;&#160;&#160;&#160;&#160;&#160; -->
<g id="node52" class="node">
<title>Fallback &#160;&#160;&#160;&#160;&#160;&#160;&#160;&#160;&#160;&#160;&#160;&#160;&#160;</title>
<polygon fill="cyan" stroke="black" points="1512.81,-370.54 1512.81,-385.46 1492.31,-396 1463.32,-396 1442.83,-385.46 1442.83,-370.54 1463.32,-360 1492.31,-360 1512.81,-370.54"/>
<text text-anchor="middle" x="1477.82" y="-375.8" font-family="Times,serif" font-size="9.00">Fallback</text>
</g>
<!-- Sequence &#160;&#160;&#160;&#160;&#160;&#160;&#160;&#160;&#160;&#45;&gt;Fallback &#160;&#160;&#160;&#160;&#160;&#160;&#160;&#160;&#160;&#160;&#160;&#160;&#160; -->
<g id="edge51" class="edge">
<title>Sequence &#160;&#160;&#160;&#160;&#160;&#160;&#160;&#160;&#160;&#45;&gt;Fallback &#160;&#160;&#160;&#160;&#160;&#160;&#160;&#160;&#160;&#160;&#160;&#160;&#160;</title>
<path fill="none" stroke="black" d="M1486.85,-431.7C1485.53,-423.98 1483.94,-414.71 1482.47,-406.11"/>
<polygon fill="black" stroke="black" points="1485.89,-405.37 1480.75,-396.1 1478.99,-406.55 1485.89,-405.37"/>
</g>
<!-- place0 YellowBox [0.0, 0.0, 0.175] 0.02 KittingBox -->
<g id="node59" class="node">
<title>place0 YellowBox [0.0, 0.0, 0.175] 0.02 KittingBox</title>
<ellipse fill="lightgray" stroke="black" cx="1676.82" cy="-378" rx="146.14" ry="18"/>
<text text-anchor="middle" x="1676.82" y="-375.8" font-family="Times,serif" font-size="9.00">place0 YellowBox [0.0, 0.0, 0.175] 0.02 KittingBox</text>
</g>
<!-- Sequence &#160;&#160;&#160;&#160;&#160;&#160;&#160;&#160;&#160;&#45;&gt;place0 YellowBox [0.0, 0.0, 0.175] 0.02 KittingBox -->
<g id="edge58" class="edge">
<title>Sequence &#160;&#160;&#160;&#160;&#160;&#160;&#160;&#160;&#160;&#45;&gt;place0 YellowBox [0.0, 0.0, 0.175] 0.02 KittingBox</title>
<path fill="none" stroke="black" d="M1521.12,-437.28C1549.13,-426.8 1590.77,-411.21 1623.94,-398.79"/>
<polygon fill="black" stroke="black" points="1625.36,-402 1633.5,-395.22 1622.91,-395.44 1625.36,-402"/>
</g>
<!-- in_gripper YellowBox  -->
<g id="node53" class="node">
<title>in_gripper YellowBox </title>
<ellipse fill="lightgray" stroke="black" cx="1422.82" cy="-306" rx="66.29" ry="18"/>
<text text-anchor="middle" x="1422.82" y="-303.8" font-family="Times,serif" font-size="9.00">in_gripper YellowBox</text>
</g>
<!-- Fallback &#160;&#160;&#160;&#160;&#160;&#160;&#160;&#160;&#160;&#160;&#160;&#160;&#160;&#45;&gt;in_gripper YellowBox  -->
<g id="edge52" class="edge">
<title>Fallback &#160;&#160;&#160;&#160;&#160;&#160;&#160;&#160;&#160;&#160;&#160;&#160;&#160;&#45;&gt;in_gripper YellowBox </title>
<path fill="none" stroke="black" d="M1464.22,-359.7C1457.7,-351.39 1449.75,-341.28 1442.57,-332.14"/>
<polygon fill="black" stroke="black" points="1445.19,-329.81 1436.26,-324.1 1439.68,-334.13 1445.19,-329.81"/>
</g>
<!-- Sequence &#160;&#160;&#160;&#160;&#160;&#160;&#160;&#160;&#160;&#160; -->
<g id="node54" class="node">
<title>Sequence &#160;&#160;&#160;&#160;&#160;&#160;&#160;&#160;&#160;&#160;</title>
<polygon fill="orange" stroke="black" points="1568.82,-324 1506.82,-324 1506.82,-288 1568.82,-288 1568.82,-324"/>
<text text-anchor="middle" x="1537.82" y="-303.8" font-family="Times,serif" font-size="9.00">Sequence</text>
</g>
<!-- Fallback &#160;&#160;&#160;&#160;&#160;&#160;&#160;&#160;&#160;&#160;&#160;&#160;&#160;&#45;&gt;Sequence &#160;&#160;&#160;&#160;&#160;&#160;&#160;&#160;&#160;&#160; -->
<g id="edge53" class="edge">
<title>Fallback &#160;&#160;&#160;&#160;&#160;&#160;&#160;&#160;&#160;&#160;&#160;&#160;&#160;&#45;&gt;Sequence &#160;&#160;&#160;&#160;&#160;&#160;&#160;&#160;&#160;&#160;</title>
<path fill="none" stroke="black" d="M1492.65,-359.7C1499.84,-351.3 1508.61,-341.07 1516.51,-331.86"/>
<polygon fill="black" stroke="black" points="1519.31,-333.97 1523.16,-324.1 1513.99,-329.42 1519.31,-333.97"/>
</g>
<!-- Fallback &#160;&#160;&#160;&#160;&#160;&#160;&#160;&#160;&#160;&#160;&#160;&#160;&#160;&#160; -->
<g id="node55" class="node">
<title>Fallback &#160;&#160;&#160;&#160;&#160;&#160;&#160;&#160;&#160;&#160;&#160;&#160;&#160;&#160;</title>
<polygon fill="cyan" stroke="black" points="1519.81,-226.54 1519.81,-241.46 1499.31,-252 1470.32,-252 1449.83,-241.46 1449.83,-226.54 1470.32,-216 1499.31,-216 1519.81,-226.54"/>
<text text-anchor="middle" x="1484.82" y="-231.8" font-family="Times,serif" font-size="9.00">Fallback</text>
</g>
<!-- Sequence &#160;&#160;&#160;&#160;&#160;&#160;&#160;&#160;&#160;&#160;&#45;&gt;Fallback &#160;&#160;&#160;&#160;&#160;&#160;&#160;&#160;&#160;&#160;&#160;&#160;&#160;&#160; -->
<g id="edge54" class="edge">
<title>Sequence &#160;&#160;&#160;&#160;&#160;&#160;&#160;&#160;&#160;&#160;&#45;&gt;Fallback &#160;&#160;&#160;&#160;&#160;&#160;&#160;&#160;&#160;&#160;&#160;&#160;&#160;&#160;</title>
<path fill="none" stroke="black" d="M1524.72,-287.7C1518.43,-279.39 1510.77,-269.28 1503.85,-260.14"/>
<polygon fill="black" stroke="black" points="1506.6,-257.96 1497.77,-252.1 1501.01,-262.19 1506.6,-257.96"/>
</g>
<!-- pick0 YellowBox  -->
<g id="node58" class="node">
<title>pick0 YellowBox </title>
<ellipse fill="lightgray" stroke="black" cx="1590.82" cy="-234" rx="53.23" ry="18"/>
<text text-anchor="middle" x="1590.82" y="-231.8" font-family="Times,serif" font-size="9.00">pick0 YellowBox</text>
</g>
<!-- Sequence &#160;&#160;&#160;&#160;&#160;&#160;&#160;&#160;&#160;&#160;&#45;&gt;pick0 YellowBox  -->
<g id="edge57" class="edge">
<title>Sequence &#160;&#160;&#160;&#160;&#160;&#160;&#160;&#160;&#160;&#160;&#45;&gt;pick0 YellowBox </title>
<path fill="none" stroke="black" d="M1550.92,-287.7C1557.3,-279.27 1565.09,-268.97 1572.09,-259.73"/>
<polygon fill="black" stroke="black" points="1574.99,-261.71 1578.23,-251.62 1569.41,-257.48 1574.99,-261.71"/>
</g>
<!-- gripper_state open &#160;&#160;&#160; -->
<g id="node56" class="node">
<title>gripper_state open &#160;&#160;&#160;</title>
<ellipse fill="lightgray" stroke="black" cx="1422.82" cy="-162" rx="60.09" ry="18"/>
<text text-anchor="middle" x="1422.82" y="-159.8" font-family="Times,serif" font-size="9.00">gripper_state open</text>
</g>
<!-- Fallback &#160;&#160;&#160;&#160;&#160;&#160;&#160;&#160;&#160;&#160;&#160;&#160;&#160;&#160;&#45;&gt;gripper_state open &#160;&#160;&#160; -->
<g id="edge55" class="edge">
<title>Fallback &#160;&#160;&#160;&#160;&#160;&#160;&#160;&#160;&#160;&#160;&#160;&#160;&#160;&#160;&#45;&gt;gripper_state open &#160;&#160;&#160;</title>
<path fill="none" stroke="black" d="M1469.81,-216.05C1462.19,-207.46 1452.81,-196.86 1444.43,-187.4"/>
<polygon fill="black" stroke="black" points="1446.94,-184.95 1437.69,-179.79 1441.7,-189.6 1446.94,-184.95"/>
</g>
<!-- open_gripper &#160;&#160;&#160; -->
<g id="node57" class="node">
<title>open_gripper &#160;&#160;&#160;</title>
<ellipse fill="lightgray" stroke="black" cx="1546.82" cy="-162" rx="45.72" ry="18"/>
<text text-anchor="middle" x="1546.82" y="-159.8" font-family="Times,serif" font-size="9.00">open_gripper</text>
</g>
<!-- Fallback &#160;&#160;&#160;&#160;&#160;&#160;&#160;&#160;&#160;&#160;&#160;&#160;&#160;&#160;&#45;&gt;open_gripper &#160;&#160;&#160; -->
<g id="edge56" class="edge">
<title>Fallback &#160;&#160;&#160;&#160;&#160;&#160;&#160;&#160;&#160;&#160;&#160;&#160;&#160;&#160;&#45;&gt;open_gripper &#160;&#160;&#160;</title>
<path fill="none" stroke="black" d="M1499.83,-216.05C1507.55,-207.33 1517.11,-196.54 1525.58,-186.98"/>
<polygon fill="black" stroke="black" points="1528.36,-189.11 1532.37,-179.31 1523.12,-184.47 1528.36,-189.11"/>
</g>
</g>
</svg>
