<?xml version="1.0" encoding="UTF-8" standalone="no"?>
<!DOCTYPE svg PUBLIC "-//W3C//DTD SVG 1.1//EN"
 "http://www.w3.org/Graphics/SVG/1.1/DTD/svg11.dtd">
<!-- Generated by graphviz version 2.43.0 (0)
 -->
<!-- Title: pastafarianism Pages: 1 -->
<svg width="1765pt" height="513pt"
 viewBox="0.00 0.00 1764.87 513.48" xmlns="http://www.w3.org/2000/svg" xmlns:xlink="http://www.w3.org/1999/xlink">
<g id="graph0" class="graph" transform="scale(1 1) rotate(0) translate(4 509.48)">
<title>pastafarianism</title>
<polygon fill="white" stroke="transparent" points="-4,4 -4,-509.48 1760.87,-509.48 1760.87,4 -4,4"/>
<!-- selector:
 screw(left_hand, defaultgripper, lampbulb, lampbase) -->
<g id="node1" class="node">
<title>selector:
 screw(left_hand, defaultgripper, lampbulb, lampbase)</title>
<polygon fill="#8deeee" stroke="black" points="873.08,-453.42 873.08,-484.05 644.83,-505.71 322.04,-505.71 93.79,-484.05 93.79,-453.42 322.04,-431.76 644.83,-431.76 873.08,-453.42"/>
<text text-anchor="middle" x="483.43" y="-474.34" font-family="Times,serif" font-size="18.00">selector:</text>
<text text-anchor="middle" x="483.43" y="-454.34" font-family="Times,serif" font-size="18.00"> screw(left_hand, defaultgripper, lampbulb, lampbase)</text>
</g>
<!-- target:
 is_screwed_to(lampbulb, lampbase) -->
<g id="node2" class="node">
<title>target:
 is_screwed_to(lampbulb, lampbase)</title>
<ellipse fill="#ffec8b" stroke="black" cx="231.43" cy="-360" rx="231.37" ry="36"/>
<text text-anchor="middle" x="231.43" y="-365.6" font-family="Times,serif" font-size="18.00">target:</text>
<text text-anchor="middle" x="231.43" y="-345.6" font-family="Times,serif" font-size="18.00"> is_screwed_to(lampbulb, lampbase)</text>
</g>
<!-- selector:
 screw(left_hand, defaultgripper, lampbulb, lampbase)&#45;&gt;target:
 is_screwed_to(lampbulb, lampbase) -->
<g id="edge1" class="edge">
<title>selector:
 screw(left_hand, defaultgripper, lampbulb, lampbase)&#45;&gt;target:
 is_screwed_to(lampbulb, lampbase)</title>
<path fill="none" stroke="black" d="M398.82,-431.9C373.1,-421 344.78,-409.01 318.88,-398.04"/>
<polygon fill="black" stroke="black" points="320.02,-394.72 309.45,-394.04 317.29,-401.17 320.02,-394.72"/>
</g>
<!-- sequence:
 screw(left_hand, defaultgripper, lampbulb, lampbase) -->
<g id="node3" class="node">
<title>sequence:
 screw(left_hand, defaultgripper, lampbulb, lampbase)</title>
<polygon fill="#ff7f24" stroke="black" points="989.93,-396 480.93,-396 480.93,-324 989.93,-324 989.93,-396"/>
<text text-anchor="middle" x="735.43" y="-365.6" font-family="Times,serif" font-size="18.00">sequence:</text>
<text text-anchor="middle" x="735.43" y="-345.6" font-family="Times,serif" font-size="18.00"> screw(left_hand, defaultgripper, lampbulb, lampbase)</text>
</g>
<!-- selector:
 screw(left_hand, defaultgripper, lampbulb, lampbase)&#45;&gt;sequence:
 screw(left_hand, defaultgripper, lampbulb, lampbase) -->
<g id="edge2" class="edge">
<title>selector:
 screw(left_hand, defaultgripper, lampbulb, lampbase)&#45;&gt;sequence:
 screw(left_hand, defaultgripper, lampbulb, lampbase)</title>
<path fill="none" stroke="black" d="M568.05,-431.9C592.26,-421.64 618.77,-410.41 643.41,-399.98"/>
<polygon fill="black" stroke="black" points="644.91,-403.14 652.75,-396.02 642.18,-396.7 644.91,-403.14"/>
</g>
<!-- precondition:
 hold(left_hand, defaultgripper) -->
<g id="node4" class="node">
<title>precondition:
 hold(left_hand, defaultgripper)</title>
<ellipse fill="#ffec8b" stroke="black" cx="204.43" cy="-252" rx="202.68" ry="36"/>
<text text-anchor="middle" x="204.43" y="-257.6" font-family="Times,serif" font-size="18.00">precondition:</text>
<text text-anchor="middle" x="204.43" y="-237.6" font-family="Times,serif" font-size="18.00"> hold(left_hand, defaultgripper)</text>
</g>
<!-- sequence:
 screw(left_hand, defaultgripper, lampbulb, lampbase)&#45;&gt;precondition:
 hold(left_hand, defaultgripper) -->
<g id="edge3" class="edge">
<title>sequence:
 screw(left_hand, defaultgripper, lampbulb, lampbase)&#45;&gt;precondition:
 hold(left_hand, defaultgripper)</title>
<path fill="none" stroke="black" d="M560.09,-324C490.84,-310.17 412.31,-294.5 346.69,-281.4"/>
<polygon fill="black" stroke="black" points="347.18,-277.93 336.69,-279.4 345.81,-284.79 347.18,-277.93"/>
</g>
<!-- selector:
 pick_up(left_hand, defaultgripper, lampbulb) -->
<g id="node5" class="node">
<title>selector:
 pick_up(left_hand, defaultgripper, lampbulb)</title>
<polygon fill="#8deeee" stroke="black" points="1045.51,-237.09 1045.51,-266.91 863.87,-288 606.99,-288 425.35,-266.91 425.35,-237.09 606.99,-216 863.87,-216 1045.51,-237.09"/>
<text text-anchor="middle" x="735.43" y="-257.6" font-family="Times,serif" font-size="18.00">selector:</text>
<text text-anchor="middle" x="735.43" y="-237.6" font-family="Times,serif" font-size="18.00"> pick_up(left_hand, defaultgripper, lampbulb)</text>
</g>
<!-- sequence:
 screw(left_hand, defaultgripper, lampbulb, lampbase)&#45;&gt;selector:
 pick_up(left_hand, defaultgripper, lampbulb) -->
<g id="edge4" class="edge">
<title>sequence:
 screw(left_hand, defaultgripper, lampbulb, lampbase)&#45;&gt;selector:
 pick_up(left_hand, defaultgripper, lampbulb)</title>
<path fill="none" stroke="black" d="M735.43,-324C735.43,-315.85 735.43,-307.06 735.43,-298.54"/>
<polygon fill="black" stroke="black" points="738.93,-298.33 735.43,-288.33 731.93,-298.33 738.93,-298.33"/>
</g>
<!-- action:
 screw(left_hand, defaultgripper, lampbulb, lampbase) -->
<g id="node11" class="node">
<title>action:
 screw(left_hand, defaultgripper, lampbulb, lampbase)</title>
<ellipse fill="lightgreen" stroke="black" cx="1404.43" cy="-252" rx="341.4" ry="36"/>
<text text-anchor="middle" x="1404.43" y="-257.6" font-family="Times,serif" font-size="18.00">action:</text>
<text text-anchor="middle" x="1404.43" y="-237.6" font-family="Times,serif" font-size="18.00"> screw(left_hand, defaultgripper, lampbulb, lampbase)</text>
</g>
<!-- sequence:
 screw(left_hand, defaultgripper, lampbulb, lampbase)&#45;&gt;action:
 screw(left_hand, defaultgripper, lampbulb, lampbase) -->
<g id="edge10" class="edge">
<title>sequence:
 screw(left_hand, defaultgripper, lampbulb, lampbase)&#45;&gt;action:
 screw(left_hand, defaultgripper, lampbulb, lampbase)</title>
<path fill="none" stroke="black" d="M956.34,-324C1038.1,-311.04 1130.13,-296.46 1209.42,-283.9"/>
<polygon fill="black" stroke="black" points="1210.19,-287.32 1219.52,-282.3 1209.1,-280.41 1210.19,-287.32"/>
</g>
<!-- target:
 hold(defaultgripper, lampbulb) -->
<g id="node6" class="node">
<title>target:
 hold(defaultgripper, lampbulb)</title>
<ellipse fill="#ffec8b" stroke="black" cx="519.43" cy="-144" rx="201.49" ry="36"/>
<text text-anchor="middle" x="519.43" y="-149.6" font-family="Times,serif" font-size="18.00">target:</text>
<text text-anchor="middle" x="519.43" y="-129.6" font-family="Times,serif" font-size="18.00"> hold(defaultgripper, lampbulb)</text>
</g>
<!-- selector:
 pick_up(left_hand, defaultgripper, lampbulb)&#45;&gt;target:
 hold(defaultgripper, lampbulb) -->
<g id="edge5" class="edge">
<title>selector:
 pick_up(left_hand, defaultgripper, lampbulb)&#45;&gt;target:
 hold(defaultgripper, lampbulb)</title>
<path fill="none" stroke="black" d="M664.11,-216C642.18,-205.24 617.97,-193.36 595.73,-182.44"/>
<polygon fill="black" stroke="black" points="597.18,-179.25 586.66,-177.99 594.09,-185.54 597.18,-179.25"/>
</g>
<!-- sequence:
 pick_up(left_hand, defaultgripper, lampbulb) -->
<g id="node7" class="node">
<title>sequence:
 pick_up(left_hand, defaultgripper, lampbulb)</title>
<polygon fill="#ff7f24" stroke="black" points="1165.93,-180 738.93,-180 738.93,-108 1165.93,-108 1165.93,-180"/>
<text text-anchor="middle" x="952.43" y="-149.6" font-family="Times,serif" font-size="18.00">sequence:</text>
<text text-anchor="middle" x="952.43" y="-129.6" font-family="Times,serif" font-size="18.00"> pick_up(left_hand, defaultgripper, lampbulb)</text>
</g>
<!-- selector:
 pick_up(left_hand, defaultgripper, lampbulb)&#45;&gt;sequence:
 pick_up(left_hand, defaultgripper, lampbulb) -->
<g id="edge6" class="edge">
<title>selector:
 pick_up(left_hand, defaultgripper, lampbulb)&#45;&gt;sequence:
 pick_up(left_hand, defaultgripper, lampbulb)</title>
<path fill="none" stroke="black" d="M807.09,-216C827.63,-205.96 850.17,-194.95 871.24,-184.66"/>
<polygon fill="black" stroke="black" points="873.03,-187.68 880.48,-180.15 869.96,-181.39 873.03,-187.68"/>
</g>
<!-- precondition:
 is_empty(defaultgripper) -->
<g id="node8" class="node">
<title>precondition:
 is_empty(defaultgripper)</title>
<ellipse fill="#ffec8b" stroke="black" cx="554.43" cy="-36" rx="166.23" ry="36"/>
<text text-anchor="middle" x="554.43" y="-41.6" font-family="Times,serif" font-size="18.00">precondition:</text>
<text text-anchor="middle" x="554.43" y="-21.6" font-family="Times,serif" font-size="18.00"> is_empty(defaultgripper)</text>
</g>
<!-- sequence:
 pick_up(left_hand, defaultgripper, lampbulb)&#45;&gt;precondition:
 is_empty(defaultgripper) -->
<g id="edge7" class="edge">
<title>sequence:
 pick_up(left_hand, defaultgripper, lampbulb)&#45;&gt;precondition:
 is_empty(defaultgripper)</title>
<path fill="none" stroke="black" d="M821.01,-108C771.23,-94.74 715.05,-79.78 667.14,-67.02"/>
<polygon fill="black" stroke="black" points="667.93,-63.6 657.36,-64.41 666.12,-70.37 667.93,-63.6"/>
</g>
<!-- &quot;precondition:\n hold(left_hand, defaultgripper)&quot;* -->
<g id="node9" class="node">
<title>&quot;precondition:\n hold(left_hand, defaultgripper)&quot;*</title>
<ellipse fill="#ffec8b" stroke="black" cx="952.43" cy="-36" rx="213.98" ry="36"/>
<text text-anchor="middle" x="952.43" y="-41.6" font-family="Times,serif" font-size="18.00">&quot;precondition:</text>
<text text-anchor="middle" x="952.43" y="-21.6" font-family="Times,serif" font-size="18.00"> hold(left_hand, defaultgripper)&quot;*</text>
</g>
<!-- sequence:
 pick_up(left_hand, defaultgripper, lampbulb)&#45;&gt;&quot;precondition:\n hold(left_hand, defaultgripper)&quot;* -->
<g id="edge8" class="edge">
<title>sequence:
 pick_up(left_hand, defaultgripper, lampbulb)&#45;&gt;&quot;precondition:\n hold(left_hand, defaultgripper)&quot;*</title>
<path fill="none" stroke="black" d="M952.43,-108C952.43,-99.85 952.43,-91.06 952.43,-82.54"/>
<polygon fill="black" stroke="black" points="955.93,-82.33 952.43,-72.33 948.93,-82.33 955.93,-82.33"/>
</g>
<!-- action:
 pick_up(left_hand, defaultgripper, lampbulb) -->
<g id="node10" class="node">
<title>action:
 pick_up(left_hand, defaultgripper, lampbulb)</title>
<ellipse fill="lightgreen" stroke="black" cx="1470.43" cy="-36" rx="286.38" ry="36"/>
<text text-anchor="middle" x="1470.43" y="-41.6" font-family="Times,serif" font-size="18.00">action:</text>
<text text-anchor="middle" x="1470.43" y="-21.6" font-family="Times,serif" font-size="18.00"> pick_up(left_hand, defaultgripper, lampbulb)</text>
</g>
<!-- sequence:
 pick_up(left_hand, defaultgripper, lampbulb)&#45;&gt;action:
 pick_up(left_hand, defaultgripper, lampbulb) -->
<g id="edge9" class="edge">
<title>sequence:
 pick_up(left_hand, defaultgripper, lampbulb)&#45;&gt;action:
 pick_up(left_hand, defaultgripper, lampbulb)</title>
<path fill="none" stroke="black" d="M1123.48,-108C1184.89,-95.43 1253.79,-81.33 1313.91,-69.03"/>
<polygon fill="black" stroke="black" points="1314.77,-72.43 1323.87,-66.99 1313.37,-65.57 1314.77,-72.43"/>
</g>
</g>
</svg>
