<?xml version="1.0" encoding="UTF-8" standalone="no"?>
<!DOCTYPE svg PUBLIC "-//W3C//DTD SVG 1.1//EN"
 "http://www.w3.org/Graphics/SVG/1.1/DTD/svg11.dtd">
<!-- Generated by graphviz version 2.43.0 (0)
 -->
<!-- Title: pastafarianism Pages: 1 -->
<svg width="1287pt" height="476pt"
 viewBox="0.00 0.00 1287.29 476.00" xmlns="http://www.w3.org/2000/svg" xmlns:xlink="http://www.w3.org/1999/xlink">
<g id="graph0" class="graph" transform="scale(1 1) rotate(0) translate(4 472)">
<title>pastafarianism</title>
<polygon fill="white" stroke="transparent" points="-4,4 -4,-472 1283.29,-472 1283.29,4 -4,4"/>
<!-- Sequence -->
<g id="node1" class="node">
<title>Sequence</title>
<polygon fill="orange" stroke="black" points="710.8,-468 648.8,-468 648.8,-432 710.8,-432 710.8,-468"/>
<text text-anchor="middle" x="679.8" y="-447.8" font-family="Times,serif" font-size="9.00">Sequence</text>
</g>
<!-- Fallback -->
<g id="node2" class="node">
<title>Fallback</title>
<polygon fill="cyan" stroke="black" points="379.79,-370.54 379.79,-385.46 359.3,-396 330.31,-396 309.81,-385.46 309.81,-370.54 330.31,-360 359.3,-360 379.79,-370.54"/>
<text text-anchor="middle" x="344.8" y="-375.8" font-family="Times,serif" font-size="9.00">Fallback</text>
</g>
<!-- Sequence&#45;&gt;Fallback -->
<g id="edge1" class="edge">
<title>Sequence&#45;&gt;Fallback</title>
<path fill="none" stroke="black" d="M648.59,-442.48C588.72,-429.97 457.62,-402.57 388.87,-388.21"/>
<polygon fill="black" stroke="black" points="389.29,-384.72 378.79,-386.1 387.86,-391.57 389.29,-384.72"/>
</g>
<!-- Fallback &#160;&#160; -->
<g id="node13" class="node">
<title>Fallback &#160;&#160;</title>
<polygon fill="cyan" stroke="black" points="665.79,-370.54 665.79,-385.46 645.3,-396 616.31,-396 595.81,-385.46 595.81,-370.54 616.31,-360 645.3,-360 665.79,-370.54"/>
<text text-anchor="middle" x="630.8" y="-375.8" font-family="Times,serif" font-size="9.00">Fallback</text>
</g>
<!-- Sequence&#45;&gt;Fallback &#160;&#160; -->
<g id="edge12" class="edge">
<title>Sequence&#45;&gt;Fallback &#160;&#160;</title>
<path fill="none" stroke="black" d="M667.69,-431.7C661.93,-423.47 654.94,-413.48 648.6,-404.42"/>
<polygon fill="black" stroke="black" points="651.38,-402.29 642.77,-396.1 645.64,-406.3 651.38,-402.29"/>
</g>
<!-- close_gripper -->
<g id="node24" class="node">
<title>close_gripper</title>
<ellipse fill="lightgray" stroke="black" cx="729.8" cy="-378" rx="46.38" ry="18"/>
<text text-anchor="middle" x="729.8" y="-375.8" font-family="Times,serif" font-size="9.00">close_gripper</text>
</g>
<!-- Sequence&#45;&gt;close_gripper -->
<g id="edge23" class="edge">
<title>Sequence&#45;&gt;close_gripper</title>
<path fill="none" stroke="black" d="M692.16,-431.7C698.12,-423.35 705.38,-413.18 711.93,-404.02"/>
<polygon fill="black" stroke="black" points="714.96,-405.79 717.93,-395.62 709.27,-401.73 714.96,-405.79"/>
</g>
<!-- Fallback &#160;&#160;&#160;&#160;&#160; -->
<g id="node25" class="node">
<title>Fallback &#160;&#160;&#160;&#160;&#160;</title>
<polygon fill="cyan" stroke="black" points="962.79,-370.54 962.79,-385.46 942.3,-396 913.31,-396 892.81,-385.46 892.81,-370.54 913.31,-360 942.3,-360 962.79,-370.54"/>
<text text-anchor="middle" x="927.8" y="-375.8" font-family="Times,serif" font-size="9.00">Fallback</text>
</g>
<!-- Sequence&#45;&gt;Fallback &#160;&#160;&#160;&#160;&#160; -->
<g id="edge24" class="edge">
<title>Sequence&#45;&gt;Fallback &#160;&#160;&#160;&#160;&#160;</title>
<path fill="none" stroke="black" d="M710.96,-440.21C755.63,-427.6 837.9,-404.38 887.26,-390.44"/>
<polygon fill="black" stroke="black" points="888.29,-393.79 896.97,-387.7 886.39,-387.05 888.29,-393.79"/>
</g>
<!-- object_at BlueBox [0.0, 0.0, 0.175] 0.02 KittingBox -->
<g id="node3" class="node">
<title>object_at BlueBox [0.0, 0.0, 0.175] 0.02 KittingBox</title>
<ellipse fill="lightgray" stroke="black" cx="147.8" cy="-306" rx="147.6" ry="18"/>
<text text-anchor="middle" x="147.8" y="-303.8" font-family="Times,serif" font-size="9.00">object_at BlueBox [0.0, 0.0, 0.175] 0.02 KittingBox</text>
</g>
<!-- Fallback&#45;&gt;object_at BlueBox [0.0, 0.0, 0.175] 0.02 KittingBox -->
<g id="edge2" class="edge">
<title>Fallback&#45;&gt;object_at BlueBox [0.0, 0.0, 0.175] 0.02 KittingBox</title>
<path fill="none" stroke="black" d="M316.58,-366.97C287.08,-356.49 240.05,-339.78 203.11,-326.65"/>
<polygon fill="black" stroke="black" points="204.07,-323.28 193.47,-323.23 201.72,-329.87 204.07,-323.28"/>
</g>
<!-- Sequence  -->
<g id="node4" class="node">
<title>Sequence </title>
<polygon fill="orange" stroke="black" points="375.8,-324 313.8,-324 313.8,-288 375.8,-288 375.8,-324"/>
<text text-anchor="middle" x="344.8" y="-303.8" font-family="Times,serif" font-size="9.00">Sequence</text>
</g>
<!-- Fallback&#45;&gt;Sequence  -->
<g id="edge3" class="edge">
<title>Fallback&#45;&gt;Sequence </title>
<path fill="none" stroke="black" d="M344.8,-359.7C344.8,-351.98 344.8,-342.71 344.8,-334.11"/>
<polygon fill="black" stroke="black" points="348.3,-334.1 344.8,-324.1 341.3,-334.1 348.3,-334.1"/>
</g>
<!-- Fallback  -->
<g id="node5" class="node">
<title>Fallback </title>
<polygon fill="cyan" stroke="black" points="188.79,-226.54 188.79,-241.46 168.3,-252 139.31,-252 118.81,-241.46 118.81,-226.54 139.31,-216 168.3,-216 188.79,-226.54"/>
<text text-anchor="middle" x="153.8" y="-231.8" font-family="Times,serif" font-size="9.00">Fallback</text>
</g>
<!-- Sequence &#45;&gt;Fallback  -->
<g id="edge4" class="edge">
<title>Sequence &#45;&gt;Fallback </title>
<path fill="none" stroke="black" d="M313.45,-291.41C310.54,-290.22 307.62,-289.07 304.8,-288 257.9,-270.17 244.99,-269.05 197.8,-252 195.29,-251.09 192.7,-250.14 190.1,-249.17"/>
<polygon fill="black" stroke="black" points="191.31,-245.89 180.72,-245.62 188.84,-252.43 191.31,-245.89"/>
</g>
<!-- place0 BlueBox [0.0, 0.0, 0.175] 0.02 KittingBox -->
<g id="node12" class="node">
<title>place0 BlueBox [0.0, 0.0, 0.175] 0.02 KittingBox</title>
<ellipse fill="lightgray" stroke="black" cx="347.8" cy="-234" rx="141.4" ry="18"/>
<text text-anchor="middle" x="347.8" y="-231.8" font-family="Times,serif" font-size="9.00">place0 BlueBox [0.0, 0.0, 0.175] 0.02 KittingBox</text>
</g>
<!-- Sequence &#45;&gt;place0 BlueBox [0.0, 0.0, 0.175] 0.02 KittingBox -->
<g id="edge11" class="edge">
<title>Sequence &#45;&gt;place0 BlueBox [0.0, 0.0, 0.175] 0.02 KittingBox</title>
<path fill="none" stroke="black" d="M345.54,-287.7C345.87,-279.98 346.27,-270.71 346.64,-262.11"/>
<polygon fill="black" stroke="black" points="350.14,-262.25 347.07,-252.1 343.14,-261.95 350.14,-262.25"/>
</g>
<!-- in_gripper BlueBox -->
<g id="node6" class="node">
<title>in_gripper BlueBox</title>
<ellipse fill="lightgray" stroke="black" cx="124.8" cy="-162" rx="61.55" ry="18"/>
<text text-anchor="middle" x="124.8" y="-159.8" font-family="Times,serif" font-size="9.00">in_gripper BlueBox</text>
</g>
<!-- Fallback &#45;&gt;in_gripper BlueBox -->
<g id="edge5" class="edge">
<title>Fallback &#45;&gt;in_gripper BlueBox</title>
<path fill="none" stroke="black" d="M146.63,-215.7C143.37,-207.81 139.43,-198.3 135.8,-189.55"/>
<polygon fill="black" stroke="black" points="138.95,-188 131.89,-180.1 132.48,-190.68 138.95,-188"/>
</g>
<!-- Sequence &#160; -->
<g id="node7" class="node">
<title>Sequence &#160;</title>
<polygon fill="orange" stroke="black" points="266.8,-180 204.8,-180 204.8,-144 266.8,-144 266.8,-180"/>
<text text-anchor="middle" x="235.8" y="-159.8" font-family="Times,serif" font-size="9.00">Sequence</text>
</g>
<!-- Fallback &#45;&gt;Sequence &#160; -->
<g id="edge6" class="edge">
<title>Fallback &#45;&gt;Sequence &#160;</title>
<path fill="none" stroke="black" d="M172,-217.46C182.5,-208.5 195.94,-197.03 207.76,-186.93"/>
<polygon fill="black" stroke="black" points="210.31,-189.37 215.64,-180.21 205.76,-184.04 210.31,-189.37"/>
</g>
<!-- Fallback &#160; -->
<g id="node8" class="node">
<title>Fallback &#160;</title>
<polygon fill="cyan" stroke="black" points="250.79,-82.54 250.79,-97.46 230.3,-108 201.31,-108 180.81,-97.46 180.81,-82.54 201.31,-72 230.3,-72 250.79,-82.54"/>
<text text-anchor="middle" x="215.8" y="-87.8" font-family="Times,serif" font-size="9.00">Fallback</text>
</g>
<!-- Sequence &#160;&#45;&gt;Fallback &#160; -->
<g id="edge7" class="edge">
<title>Sequence &#160;&#45;&gt;Fallback &#160;</title>
<path fill="none" stroke="black" d="M230.86,-143.7C228.63,-135.9 225.95,-126.51 223.47,-117.83"/>
<polygon fill="black" stroke="black" points="226.8,-116.76 220.69,-108.1 220.07,-118.68 226.8,-116.76"/>
</g>
<!-- pick0 BlueBox -->
<g id="node11" class="node">
<title>pick0 BlueBox</title>
<ellipse fill="lightgray" stroke="black" cx="316.8" cy="-90" rx="47.84" ry="18"/>
<text text-anchor="middle" x="316.8" y="-87.8" font-family="Times,serif" font-size="9.00">pick0 BlueBox</text>
</g>
<!-- Sequence &#160;&#45;&gt;pick0 BlueBox -->
<g id="edge10" class="edge">
<title>Sequence &#160;&#45;&gt;pick0 BlueBox</title>
<path fill="none" stroke="black" d="M255.82,-143.7C266.38,-134.57 279.45,-123.28 290.79,-113.48"/>
<polygon fill="black" stroke="black" points="293.39,-115.86 298.67,-106.67 288.81,-110.56 293.39,-115.86"/>
</g>
<!-- gripper_state open -->
<g id="node9" class="node">
<title>gripper_state open</title>
<ellipse fill="lightgray" stroke="black" cx="132.8" cy="-18" rx="60.09" ry="18"/>
<text text-anchor="middle" x="132.8" y="-15.8" font-family="Times,serif" font-size="9.00">gripper_state open</text>
</g>
<!-- Fallback &#160;&#45;&gt;gripper_state open -->
<g id="edge8" class="edge">
<title>Fallback &#160;&#45;&gt;gripper_state open</title>
<path fill="none" stroke="black" d="M197.38,-73.46C186.33,-64.15 172.09,-52.13 159.78,-41.76"/>
<polygon fill="black" stroke="black" points="161.94,-38.99 152.04,-35.22 157.42,-44.34 161.94,-38.99"/>
</g>
<!-- open_gripper -->
<g id="node10" class="node">
<title>open_gripper</title>
<ellipse fill="lightgray" stroke="black" cx="256.8" cy="-18" rx="45.72" ry="18"/>
<text text-anchor="middle" x="256.8" y="-15.8" font-family="Times,serif" font-size="9.00">open_gripper</text>
</g>
<!-- Fallback &#160;&#45;&gt;open_gripper -->
<g id="edge9" class="edge">
<title>Fallback &#160;&#45;&gt;open_gripper</title>
<path fill="none" stroke="black" d="M225.94,-71.7C230.77,-63.44 236.66,-53.39 241.98,-44.3"/>
<polygon fill="black" stroke="black" points="245.03,-46.02 247.07,-35.62 238.99,-42.48 245.03,-46.02"/>
</g>
<!-- object_at GreenBox [0.0, 0.0, 0.22] 0.02 BlueBox -->
<g id="node14" class="node">
<title>object_at GreenBox [0.0, 0.0, 0.22] 0.02 BlueBox</title>
<ellipse fill="lightgray" stroke="black" cx="535.8" cy="-306" rx="142.06" ry="18"/>
<text text-anchor="middle" x="535.8" y="-303.8" font-family="Times,serif" font-size="9.00">object_at GreenBox [0.0, 0.0, 0.22] 0.02 BlueBox</text>
</g>
<!-- Fallback &#160;&#160;&#45;&gt;object_at GreenBox [0.0, 0.0, 0.22] 0.02 BlueBox -->
<g id="edge13" class="edge">
<title>Fallback &#160;&#160;&#45;&gt;object_at GreenBox [0.0, 0.0, 0.22] 0.02 BlueBox</title>
<path fill="none" stroke="black" d="M611.12,-362.5C598.4,-353.12 581.57,-340.72 567.04,-330.02"/>
<polygon fill="black" stroke="black" points="568.93,-327.06 558.81,-323.95 564.78,-332.7 568.93,-327.06"/>
</g>
<!-- Sequence &#160;&#160; -->
<g id="node15" class="node">
<title>Sequence &#160;&#160;</title>
<polygon fill="orange" stroke="black" points="757.8,-324 695.8,-324 695.8,-288 757.8,-288 757.8,-324"/>
<text text-anchor="middle" x="726.8" y="-303.8" font-family="Times,serif" font-size="9.00">Sequence</text>
</g>
<!-- Fallback &#160;&#160;&#45;&gt;Sequence &#160;&#160; -->
<g id="edge14" class="edge">
<title>Fallback &#160;&#160;&#45;&gt;Sequence &#160;&#160;</title>
<path fill="none" stroke="black" d="M650.69,-362.5C663.46,-353.19 680.31,-340.9 694.92,-330.25"/>
<polygon fill="black" stroke="black" points="697.19,-332.92 703.21,-324.2 693.07,-327.27 697.19,-332.92"/>
</g>
<!-- Fallback &#160;&#160;&#160; -->
<g id="node16" class="node">
<title>Fallback &#160;&#160;&#160;</title>
<polygon fill="cyan" stroke="black" points="585.79,-226.54 585.79,-241.46 565.3,-252 536.31,-252 515.81,-241.46 515.81,-226.54 536.31,-216 565.3,-216 585.79,-226.54"/>
<text text-anchor="middle" x="550.8" y="-231.8" font-family="Times,serif" font-size="9.00">Fallback</text>
</g>
<!-- Sequence &#160;&#160;&#45;&gt;Fallback &#160;&#160;&#160; -->
<g id="edge15" class="edge">
<title>Sequence &#160;&#160;&#45;&gt;Fallback &#160;&#160;&#160;</title>
<path fill="none" stroke="black" d="M695.4,-291.55C692.5,-290.34 689.6,-289.14 686.8,-288 677.21,-284.1 624.46,-263.58 587.55,-249.25"/>
<polygon fill="black" stroke="black" points="588.66,-245.93 578.08,-245.58 586.13,-252.46 588.66,-245.93"/>
</g>
<!-- place0 GreenBox [0.0, 0.0, 0.22] 0.02 BlueBox -->
<g id="node23" class="node">
<title>place0 GreenBox [0.0, 0.0, 0.22] 0.02 BlueBox</title>
<ellipse fill="lightgray" stroke="black" cx="739.8" cy="-234" rx="135.85" ry="18"/>
<text text-anchor="middle" x="739.8" y="-231.8" font-family="Times,serif" font-size="9.00">place0 GreenBox [0.0, 0.0, 0.22] 0.02 BlueBox</text>
</g>
<!-- Sequence &#160;&#160;&#45;&gt;place0 GreenBox [0.0, 0.0, 0.22] 0.02 BlueBox -->
<g id="edge22" class="edge">
<title>Sequence &#160;&#160;&#45;&gt;place0 GreenBox [0.0, 0.0, 0.22] 0.02 BlueBox</title>
<path fill="none" stroke="black" d="M730.02,-287.7C731.45,-279.98 733.17,-270.71 734.77,-262.11"/>
<polygon fill="black" stroke="black" points="738.24,-262.58 736.63,-252.1 731.36,-261.3 738.24,-262.58"/>
</g>
<!-- in_gripper GreenBox -->
<g id="node17" class="node">
<title>in_gripper GreenBox</title>
<ellipse fill="lightgray" stroke="black" cx="445.8" cy="-162" rx="65.64" ry="18"/>
<text text-anchor="middle" x="445.8" y="-159.8" font-family="Times,serif" font-size="9.00">in_gripper GreenBox</text>
</g>
<!-- Fallback &#160;&#160;&#160;&#45;&gt;in_gripper GreenBox -->
<g id="edge16" class="edge">
<title>Fallback &#160;&#160;&#160;&#45;&gt;in_gripper GreenBox</title>
<path fill="none" stroke="black" d="M530.06,-219.17C515.3,-209.33 495.17,-195.92 478.3,-184.66"/>
<polygon fill="black" stroke="black" points="480.07,-181.64 469.81,-179.01 476.19,-187.47 480.07,-181.64"/>
</g>
<!-- Sequence &#160;&#160;&#160; -->
<g id="node18" class="node">
<title>Sequence &#160;&#160;&#160;</title>
<polygon fill="orange" stroke="black" points="591.8,-180 529.8,-180 529.8,-144 591.8,-144 591.8,-180"/>
<text text-anchor="middle" x="560.8" y="-159.8" font-family="Times,serif" font-size="9.00">Sequence</text>
</g>
<!-- Fallback &#160;&#160;&#160;&#45;&gt;Sequence &#160;&#160;&#160; -->
<g id="edge17" class="edge">
<title>Fallback &#160;&#160;&#160;&#45;&gt;Sequence &#160;&#160;&#160;</title>
<path fill="none" stroke="black" d="M553.27,-215.7C554.38,-207.98 555.7,-198.71 556.93,-190.11"/>
<polygon fill="black" stroke="black" points="560.41,-190.5 558.36,-180.1 553.48,-189.51 560.41,-190.5"/>
</g>
<!-- Fallback &#160;&#160;&#160;&#160; -->
<g id="node19" class="node">
<title>Fallback &#160;&#160;&#160;&#160;</title>
<polygon fill="cyan" stroke="black" points="494.79,-82.54 494.79,-97.46 474.3,-108 445.31,-108 424.81,-97.46 424.81,-82.54 445.31,-72 474.3,-72 494.79,-82.54"/>
<text text-anchor="middle" x="459.8" y="-87.8" font-family="Times,serif" font-size="9.00">Fallback</text>
</g>
<!-- Sequence &#160;&#160;&#160;&#45;&gt;Fallback &#160;&#160;&#160;&#160; -->
<g id="edge18" class="edge">
<title>Sequence &#160;&#160;&#160;&#45;&gt;Fallback &#160;&#160;&#160;&#160;</title>
<path fill="none" stroke="black" d="M536.09,-143.88C521.74,-133.93 503.59,-121.35 488.59,-110.95"/>
<polygon fill="black" stroke="black" points="490.39,-107.94 480.18,-105.12 486.4,-113.7 490.39,-107.94"/>
</g>
<!-- pick0 GreenBox -->
<g id="node22" class="node">
<title>pick0 GreenBox</title>
<ellipse fill="lightgray" stroke="black" cx="565.8" cy="-90" rx="52.58" ry="18"/>
<text text-anchor="middle" x="565.8" y="-87.8" font-family="Times,serif" font-size="9.00">pick0 GreenBox</text>
</g>
<!-- Sequence &#160;&#160;&#160;&#45;&gt;pick0 GreenBox -->
<g id="edge21" class="edge">
<title>Sequence &#160;&#160;&#160;&#45;&gt;pick0 GreenBox</title>
<path fill="none" stroke="black" d="M562.04,-143.7C562.59,-135.98 563.25,-126.71 563.87,-118.11"/>
<polygon fill="black" stroke="black" points="567.36,-118.33 564.58,-108.1 560.38,-117.83 567.36,-118.33"/>
</g>
<!-- gripper_state open  -->
<g id="node20" class="node">
<title>gripper_state open </title>
<ellipse fill="lightgray" stroke="black" cx="419.8" cy="-18" rx="60.09" ry="18"/>
<text text-anchor="middle" x="419.8" y="-15.8" font-family="Times,serif" font-size="9.00">gripper_state open</text>
</g>
<!-- Fallback &#160;&#160;&#160;&#160;&#45;&gt;gripper_state open  -->
<g id="edge19" class="edge">
<title>Fallback &#160;&#160;&#160;&#160;&#45;&gt;gripper_state open </title>
<path fill="none" stroke="black" d="M449.91,-71.7C445.31,-63.64 439.74,-53.89 434.65,-44.98"/>
<polygon fill="black" stroke="black" points="437.58,-43.05 429.58,-36.1 431.5,-46.52 437.58,-43.05"/>
</g>
<!-- open_gripper  -->
<g id="node21" class="node">
<title>open_gripper </title>
<ellipse fill="lightgray" stroke="black" cx="543.8" cy="-18" rx="45.72" ry="18"/>
<text text-anchor="middle" x="543.8" y="-15.8" font-family="Times,serif" font-size="9.00">open_gripper</text>
</g>
<!-- Fallback &#160;&#160;&#160;&#160;&#45;&gt;open_gripper  -->
<g id="edge20" class="edge">
<title>Fallback &#160;&#160;&#160;&#160;&#45;&gt;open_gripper </title>
<path fill="none" stroke="black" d="M478.03,-73.81C489.43,-64.31 504.31,-51.91 517.04,-41.3"/>
<polygon fill="black" stroke="black" points="519.59,-43.73 525.03,-34.64 515.11,-38.36 519.59,-43.73"/>
</g>
<!-- object_at YellowBox [&#45;0.12, 0.0, 0.12] 0.02 GreenBox -->
<g id="node26" class="node">
<title>object_at YellowBox [&#45;0.12, 0.0, 0.12] 0.02 GreenBox</title>
<ellipse fill="lightgray" stroke="black" cx="927.8" cy="-306" rx="151.69" ry="18"/>
<text text-anchor="middle" x="927.8" y="-303.8" font-family="Times,serif" font-size="9.00">object_at YellowBox [&#45;0.12, 0.0, 0.12] 0.02 GreenBox</text>
</g>
<!-- Fallback &#160;&#160;&#160;&#160;&#160;&#45;&gt;object_at YellowBox [&#45;0.12, 0.0, 0.12] 0.02 GreenBox -->
<g id="edge25" class="edge">
<title>Fallback &#160;&#160;&#160;&#160;&#160;&#45;&gt;object_at YellowBox [&#45;0.12, 0.0, 0.12] 0.02 GreenBox</title>
<path fill="none" stroke="black" d="M927.8,-359.7C927.8,-351.98 927.8,-342.71 927.8,-334.11"/>
<polygon fill="black" stroke="black" points="931.3,-334.1 927.8,-324.1 924.3,-334.1 931.3,-334.1"/>
</g>
<!-- Sequence &#160;&#160;&#160;&#160; -->
<g id="node27" class="node">
<title>Sequence &#160;&#160;&#160;&#160;</title>
<polygon fill="orange" stroke="black" points="1159.8,-324 1097.8,-324 1097.8,-288 1159.8,-288 1159.8,-324"/>
<text text-anchor="middle" x="1128.8" y="-303.8" font-family="Times,serif" font-size="9.00">Sequence</text>
</g>
<!-- Fallback &#160;&#160;&#160;&#160;&#160;&#45;&gt;Sequence &#160;&#160;&#160;&#160; -->
<g id="edge26" class="edge">
<title>Fallback &#160;&#160;&#160;&#160;&#160;&#45;&gt;Sequence &#160;&#160;&#160;&#160;</title>
<path fill="none" stroke="black" d="M958.03,-367.88C988.68,-358.45 1037.61,-342.91 1088.03,-324.15"/>
<polygon fill="black" stroke="black" points="1089.33,-327.4 1097.46,-320.61 1086.87,-320.85 1089.33,-327.4"/>
</g>
<!-- Fallback &#160;&#160;&#160;&#160;&#160;&#160; -->
<g id="node28" class="node">
<title>Fallback &#160;&#160;&#160;&#160;&#160;&#160;</title>
<polygon fill="cyan" stroke="black" points="970.79,-226.54 970.79,-241.46 950.3,-252 921.31,-252 900.81,-241.46 900.81,-226.54 921.31,-216 950.3,-216 970.79,-226.54"/>
<text text-anchor="middle" x="935.8" y="-231.8" font-family="Times,serif" font-size="9.00">Fallback</text>
</g>
<!-- Sequence &#160;&#160;&#160;&#160;&#45;&gt;Fallback &#160;&#160;&#160;&#160;&#160;&#160; -->
<g id="edge27" class="edge">
<title>Sequence &#160;&#160;&#160;&#160;&#45;&gt;Fallback &#160;&#160;&#160;&#160;&#160;&#160;</title>
<path fill="none" stroke="black" d="M1097.46,-291.39C1094.54,-290.21 1091.63,-289.06 1088.8,-288 1041.06,-270.01 1027.83,-269.2 979.8,-252 977.29,-251.1 974.7,-250.15 972.09,-249.18"/>
<polygon fill="black" stroke="black" points="973.31,-245.9 962.71,-245.64 970.83,-252.45 973.31,-245.9"/>
</g>
<!-- place0 YellowBox [&#45;0.12, 0.0, 0.12] 0.02 GreenBox -->
<g id="node35" class="node">
<title>place0 YellowBox [&#45;0.12, 0.0, 0.12] 0.02 GreenBox</title>
<ellipse fill="lightgray" stroke="black" cx="1133.8" cy="-234" rx="145.48" ry="18"/>
<text text-anchor="middle" x="1133.8" y="-231.8" font-family="Times,serif" font-size="9.00">place0 YellowBox [&#45;0.12, 0.0, 0.12] 0.02 GreenBox</text>
</g>
<!-- Sequence &#160;&#160;&#160;&#160;&#45;&gt;place0 YellowBox [&#45;0.12, 0.0, 0.12] 0.02 GreenBox -->
<g id="edge34" class="edge">
<title>Sequence &#160;&#160;&#160;&#160;&#45;&gt;place0 YellowBox [&#45;0.12, 0.0, 0.12] 0.02 GreenBox</title>
<path fill="none" stroke="black" d="M1130.04,-287.7C1130.59,-279.98 1131.25,-270.71 1131.87,-262.11"/>
<polygon fill="black" stroke="black" points="1135.36,-262.33 1132.58,-252.1 1128.38,-261.83 1135.36,-262.33"/>
</g>
<!-- in_gripper YellowBox -->
<g id="node29" class="node">
<title>in_gripper YellowBox</title>
<ellipse fill="lightgray" stroke="black" cx="877.8" cy="-162" rx="66.29" ry="18"/>
<text text-anchor="middle" x="877.8" y="-159.8" font-family="Times,serif" font-size="9.00">in_gripper YellowBox</text>
</g>
<!-- Fallback &#160;&#160;&#160;&#160;&#160;&#160;&#45;&gt;in_gripper YellowBox -->
<g id="edge28" class="edge">
<title>Fallback &#160;&#160;&#160;&#160;&#160;&#160;&#45;&gt;in_gripper YellowBox</title>
<path fill="none" stroke="black" d="M921.46,-215.7C914.41,-207.18 905.78,-196.76 898.06,-187.45"/>
<polygon fill="black" stroke="black" points="900.65,-185.09 891.57,-179.62 895.26,-189.56 900.65,-185.09"/>
</g>
<!-- Sequence &#160;&#160;&#160;&#160;&#160; -->
<g id="node30" class="node">
<title>Sequence &#160;&#160;&#160;&#160;&#160;</title>
<polygon fill="orange" stroke="black" points="1023.8,-180 961.8,-180 961.8,-144 1023.8,-144 1023.8,-180"/>
<text text-anchor="middle" x="992.8" y="-159.8" font-family="Times,serif" font-size="9.00">Sequence</text>
</g>
<!-- Fallback &#160;&#160;&#160;&#160;&#160;&#160;&#45;&gt;Sequence &#160;&#160;&#160;&#160;&#160; -->
<g id="edge29" class="edge">
<title>Fallback &#160;&#160;&#160;&#160;&#160;&#160;&#45;&gt;Sequence &#160;&#160;&#160;&#160;&#160;</title>
<path fill="none" stroke="black" d="M949.89,-215.7C956.73,-207.3 965.06,-197.07 972.56,-187.86"/>
<polygon fill="black" stroke="black" points="975.27,-190.07 978.87,-180.1 969.85,-185.65 975.27,-190.07"/>
</g>
<!-- Fallback &#160;&#160;&#160;&#160;&#160;&#160;&#160; -->
<g id="node31" class="node">
<title>Fallback &#160;&#160;&#160;&#160;&#160;&#160;&#160;</title>
<polygon fill="cyan" stroke="black" points="974.79,-82.54 974.79,-97.46 954.3,-108 925.31,-108 904.81,-97.46 904.81,-82.54 925.31,-72 954.3,-72 974.79,-82.54"/>
<text text-anchor="middle" x="939.8" y="-87.8" font-family="Times,serif" font-size="9.00">Fallback</text>
</g>
<!-- Sequence &#160;&#160;&#160;&#160;&#160;&#45;&gt;Fallback &#160;&#160;&#160;&#160;&#160;&#160;&#160; -->
<g id="edge30" class="edge">
<title>Sequence &#160;&#160;&#160;&#160;&#160;&#45;&gt;Fallback &#160;&#160;&#160;&#160;&#160;&#160;&#160;</title>
<path fill="none" stroke="black" d="M979.7,-143.7C973.41,-135.39 965.75,-125.28 958.84,-116.14"/>
<polygon fill="black" stroke="black" points="961.58,-113.96 952.75,-108.1 956,-118.19 961.58,-113.96"/>
</g>
<!-- pick0 YellowBox -->
<g id="node34" class="node">
<title>pick0 YellowBox</title>
<ellipse fill="lightgray" stroke="black" cx="1045.8" cy="-90" rx="53.23" ry="18"/>
<text text-anchor="middle" x="1045.8" y="-87.8" font-family="Times,serif" font-size="9.00">pick0 YellowBox</text>
</g>
<!-- Sequence &#160;&#160;&#160;&#160;&#160;&#45;&gt;pick0 YellowBox -->
<g id="edge33" class="edge">
<title>Sequence &#160;&#160;&#160;&#160;&#160;&#45;&gt;pick0 YellowBox</title>
<path fill="none" stroke="black" d="M1005.9,-143.7C1012.29,-135.27 1020.08,-124.97 1027.08,-115.73"/>
<polygon fill="black" stroke="black" points="1029.97,-117.71 1033.22,-107.62 1024.39,-113.48 1029.97,-117.71"/>
</g>
<!-- gripper_state open &#160; -->
<g id="node32" class="node">
<title>gripper_state open &#160;</title>
<ellipse fill="lightgray" stroke="black" cx="877.8" cy="-18" rx="60.09" ry="18"/>
<text text-anchor="middle" x="877.8" y="-15.8" font-family="Times,serif" font-size="9.00">gripper_state open</text>
</g>
<!-- Fallback &#160;&#160;&#160;&#160;&#160;&#160;&#160;&#45;&gt;gripper_state open &#160; -->
<g id="edge31" class="edge">
<title>Fallback &#160;&#160;&#160;&#160;&#160;&#160;&#160;&#45;&gt;gripper_state open &#160;</title>
<path fill="none" stroke="black" d="M924.79,-72.05C917.18,-63.46 907.79,-52.86 899.41,-43.4"/>
<polygon fill="black" stroke="black" points="901.92,-40.95 892.67,-35.79 896.68,-45.6 901.92,-40.95"/>
</g>
<!-- open_gripper &#160; -->
<g id="node33" class="node">
<title>open_gripper &#160;</title>
<ellipse fill="lightgray" stroke="black" cx="1001.8" cy="-18" rx="45.72" ry="18"/>
<text text-anchor="middle" x="1001.8" y="-15.8" font-family="Times,serif" font-size="9.00">open_gripper</text>
</g>
<!-- Fallback &#160;&#160;&#160;&#160;&#160;&#160;&#160;&#45;&gt;open_gripper &#160; -->
<g id="edge32" class="edge">
<title>Fallback &#160;&#160;&#160;&#160;&#160;&#160;&#160;&#45;&gt;open_gripper &#160;</title>
<path fill="none" stroke="black" d="M954.81,-72.05C962.54,-63.33 972.09,-52.54 980.56,-42.98"/>
<polygon fill="black" stroke="black" points="983.35,-45.11 987.36,-35.31 978.11,-40.47 983.35,-45.11"/>
</g>
</g>
</svg>
