<?xml version="1.0" encoding="UTF-8" standalone="no"?>
<!DOCTYPE svg PUBLIC "-//W3C//DTD SVG 1.1//EN"
 "http://www.w3.org/Graphics/SVG/1.1/DTD/svg11.dtd">
<!-- Generated by graphviz version 2.43.0 (0)
 -->
<!-- Title: pastafarianism Pages: 1 -->
<svg width="2066pt" height="716pt"
 viewBox="0.00 0.00 2066.07 715.95" xmlns="http://www.w3.org/2000/svg" xmlns:xlink="http://www.w3.org/1999/xlink">
<g id="graph0" class="graph" transform="scale(1 1) rotate(0) translate(4 711.95)">
<title>pastafarianism</title>
<polygon fill="white" stroke="transparent" points="-4,4 -4,-711.95 2062.07,-711.95 2062.07,4 -4,4"/>
<!-- selector:
 insert(left_hand, clampgripper, shaft1, gearbase_hole1) -->
<g id="node1" class="node">
<title>selector:
 insert(left_hand, clampgripper, shaft1, gearbase_hole1)</title>
<polygon fill="#8deeee" stroke="black" points="1243.65,-655.9 1243.65,-686.53 1008.69,-708.19 676.4,-708.19 441.44,-686.53 441.44,-655.9 676.4,-634.24 1008.69,-634.24 1243.65,-655.9"/>
<text text-anchor="middle" x="842.55" y="-676.82" font-family="Times,serif" font-size="18.00">selector:</text>
<text text-anchor="middle" x="842.55" y="-656.82" font-family="Times,serif" font-size="18.00"> insert(left_hand, clampgripper, shaft1, gearbase_hole1)</text>
</g>
<!-- target:
 is_inserted_to(shaft1, gearbase_hole1) -->
<g id="node2" class="node">
<title>target:
 is_inserted_to(shaft1, gearbase_hole1)</title>
<ellipse fill="#ffec8b" stroke="black" cx="571.55" cy="-564.54" rx="261.76" ry="33.88"/>
<text text-anchor="middle" x="571.55" y="-570.14" font-family="Times,serif" font-size="18.00">target:</text>
<text text-anchor="middle" x="571.55" y="-550.14" font-family="Times,serif" font-size="18.00"> is_inserted_to(shaft1, gearbase_hole1)</text>
</g>
<!-- selector:
 insert(left_hand, clampgripper, shaft1, gearbase_hole1)&#45;&gt;target:
 is_inserted_to(shaft1, gearbase_hole1) -->
<g id="edge1" class="edge">
<title>selector:
 insert(left_hand, clampgripper, shaft1, gearbase_hole1)&#45;&gt;target:
 is_inserted_to(shaft1, gearbase_hole1)</title>
<path fill="none" stroke="black" d="M749.66,-634.34C721.3,-623.39 690.17,-611.36 661.98,-600.47"/>
<polygon fill="black" stroke="black" points="663.13,-597.16 652.54,-596.82 660.61,-603.69 663.13,-597.16"/>
</g>
<!-- sequence:
 insert(left_hand, clampgripper, shaft1, gearbase_hole1) -->
<g id="node3" class="node">
<title>sequence:
 insert(left_hand, clampgripper, shaft1, gearbase_hole1)</title>
<polygon fill="#ff7f24" stroke="black" points="1375.55,-588.54 851.55,-588.54 851.55,-540.54 1375.55,-540.54 1375.55,-588.54"/>
<text text-anchor="middle" x="1113.55" y="-570.14" font-family="Times,serif" font-size="18.00">sequence:</text>
<text text-anchor="middle" x="1113.55" y="-550.14" font-family="Times,serif" font-size="18.00"> insert(left_hand, clampgripper, shaft1, gearbase_hole1)</text>
</g>
<!-- selector:
 insert(left_hand, clampgripper, shaft1, gearbase_hole1)&#45;&gt;sequence:
 insert(left_hand, clampgripper, shaft1, gearbase_hole1) -->
<g id="edge2" class="edge">
<title>selector:
 insert(left_hand, clampgripper, shaft1, gearbase_hole1)&#45;&gt;sequence:
 insert(left_hand, clampgripper, shaft1, gearbase_hole1)</title>
<path fill="none" stroke="black" d="M935.43,-634.34C971.13,-620.55 1011.23,-605.06 1044.32,-592.28"/>
<polygon fill="black" stroke="black" points="1045.84,-595.44 1053.91,-588.58 1043.32,-588.91 1045.84,-595.44"/>
</g>
<!-- selector:
 change_tool(left_hand, defaultgripper, clampgripper) -->
<g id="node4" class="node">
<title>selector:
 change_tool(left_hand, defaultgripper, clampgripper)</title>
<polygon fill="#8deeee" stroke="black" points="909.97,-442.54 909.97,-473.18 684.78,-494.84 366.31,-494.84 141.12,-473.18 141.12,-442.54 366.31,-420.88 684.78,-420.88 909.97,-442.54"/>
<text text-anchor="middle" x="525.55" y="-463.46" font-family="Times,serif" font-size="18.00">selector:</text>
<text text-anchor="middle" x="525.55" y="-443.46" font-family="Times,serif" font-size="18.00"> change_tool(left_hand, defaultgripper, clampgripper)</text>
</g>
<!-- sequence:
 insert(left_hand, clampgripper, shaft1, gearbase_hole1)&#45;&gt;selector:
 change_tool(left_hand, defaultgripper, clampgripper) -->
<g id="edge3" class="edge">
<title>sequence:
 insert(left_hand, clampgripper, shaft1, gearbase_hole1)&#45;&gt;selector:
 change_tool(left_hand, defaultgripper, clampgripper)</title>
<path fill="none" stroke="black" d="M984.14,-540.5C907.47,-526.85 808.76,-509.28 722.57,-493.93"/>
<polygon fill="black" stroke="black" points="723.12,-490.48 712.66,-492.17 721.89,-497.37 723.12,-490.48"/>
</g>
<!-- precondition:
 hold(clampgripper, shaft1) -->
<g id="node15" class="node">
<title>precondition:
 hold(clampgripper, shaft1)</title>
<ellipse fill="#ffec8b" stroke="black" cx="1113.55" cy="-457.86" rx="185.94" ry="33.88"/>
<text text-anchor="middle" x="1113.55" y="-463.46" font-family="Times,serif" font-size="18.00">precondition:</text>
<text text-anchor="middle" x="1113.55" y="-443.46" font-family="Times,serif" font-size="18.00"> hold(clampgripper, shaft1)</text>
</g>
<!-- sequence:
 insert(left_hand, clampgripper, shaft1, gearbase_hole1)&#45;&gt;precondition:
 hold(clampgripper, shaft1) -->
<g id="edge14" class="edge">
<title>sequence:
 insert(left_hand, clampgripper, shaft1, gearbase_hole1)&#45;&gt;precondition:
 hold(clampgripper, shaft1)</title>
<path fill="none" stroke="black" d="M1113.55,-540.31C1113.55,-529.09 1113.55,-515.26 1113.55,-502.2"/>
<polygon fill="black" stroke="black" points="1117.05,-501.95 1113.55,-491.95 1110.05,-501.95 1117.05,-501.95"/>
</g>
<!-- action:
 insert(left_hand, clampgripper, shaft1, gearbase_hole1) -->
<g id="node16" class="node">
<title>action:
 insert(left_hand, clampgripper, shaft1, gearbase_hole1)</title>
<ellipse fill="lightgreen" stroke="black" cx="1687.55" cy="-457.86" rx="370.55" ry="33.88"/>
<text text-anchor="middle" x="1687.55" y="-463.46" font-family="Times,serif" font-size="18.00">action:</text>
<text text-anchor="middle" x="1687.55" y="-443.46" font-family="Times,serif" font-size="18.00"> insert(left_hand, clampgripper, shaft1, gearbase_hole1)</text>
</g>
<!-- sequence:
 insert(left_hand, clampgripper, shaft1, gearbase_hole1)&#45;&gt;action:
 insert(left_hand, clampgripper, shaft1, gearbase_hole1) -->
<g id="edge15" class="edge">
<title>sequence:
 insert(left_hand, clampgripper, shaft1, gearbase_hole1)&#45;&gt;action:
 insert(left_hand, clampgripper, shaft1, gearbase_hole1)</title>
<path fill="none" stroke="black" d="M1239.87,-540.5C1320.84,-525.74 1426.98,-506.38 1515.6,-490.22"/>
<polygon fill="black" stroke="black" points="1516.27,-493.65 1525.48,-488.41 1515.02,-486.77 1516.27,-493.65"/>
</g>
<!-- target:
 hold(left_hand, clampgripper) -->
<g id="node5" class="node">
<title>target:
 hold(left_hand, clampgripper)</title>
<ellipse fill="#ffec8b" stroke="black" cx="287.55" cy="-351.18" rx="207.36" ry="33.88"/>
<text text-anchor="middle" x="287.55" y="-356.78" font-family="Times,serif" font-size="18.00">target:</text>
<text text-anchor="middle" x="287.55" y="-336.78" font-family="Times,serif" font-size="18.00"> hold(left_hand, clampgripper)</text>
</g>
<!-- selector:
 change_tool(left_hand, defaultgripper, clampgripper)&#45;&gt;target:
 hold(left_hand, clampgripper) -->
<g id="edge4" class="edge">
<title>selector:
 change_tool(left_hand, defaultgripper, clampgripper)&#45;&gt;target:
 hold(left_hand, clampgripper)</title>
<path fill="none" stroke="black" d="M443.97,-420.98C419.15,-410.07 391.92,-398.09 367.23,-387.23"/>
<polygon fill="black" stroke="black" points="368.46,-383.95 357.9,-383.12 365.64,-390.35 368.46,-383.95"/>
</g>
<!-- sequence:
 change_tool(left_hand, defaultgripper, clampgripper) -->
<g id="node6" class="node">
<title>sequence:
 change_tool(left_hand, defaultgripper, clampgripper)</title>
<polygon fill="#ff7f24" stroke="black" points="1014.55,-375.18 512.55,-375.18 512.55,-327.18 1014.55,-327.18 1014.55,-375.18"/>
<text text-anchor="middle" x="763.55" y="-356.78" font-family="Times,serif" font-size="18.00">sequence:</text>
<text text-anchor="middle" x="763.55" y="-336.78" font-family="Times,serif" font-size="18.00"> change_tool(left_hand, defaultgripper, clampgripper)</text>
</g>
<!-- selector:
 change_tool(left_hand, defaultgripper, clampgripper)&#45;&gt;sequence:
 change_tool(left_hand, defaultgripper, clampgripper) -->
<g id="edge5" class="edge">
<title>selector:
 change_tool(left_hand, defaultgripper, clampgripper)&#45;&gt;sequence:
 change_tool(left_hand, defaultgripper, clampgripper)</title>
<path fill="none" stroke="black" d="M607.12,-420.98C638.2,-407.31 673.08,-391.97 702,-379.25"/>
<polygon fill="black" stroke="black" points="703.42,-382.45 711.17,-375.22 700.61,-376.04 703.42,-382.45"/>
</g>
<!-- precondition:
 hold(left_hand, defaultgripper) -->
<g id="node7" class="node">
<title>precondition:
 hold(left_hand, defaultgripper)</title>
<ellipse fill="#ffec8b" stroke="black" cx="213.55" cy="-244.5" rx="213.59" ry="33.88"/>
<text text-anchor="middle" x="213.55" y="-250.1" font-family="Times,serif" font-size="18.00">precondition:</text>
<text text-anchor="middle" x="213.55" y="-230.1" font-family="Times,serif" font-size="18.00"> hold(left_hand, defaultgripper)</text>
</g>
<!-- sequence:
 change_tool(left_hand, defaultgripper, clampgripper)&#45;&gt;precondition:
 hold(left_hand, defaultgripper) -->
<g id="edge6" class="edge">
<title>sequence:
 change_tool(left_hand, defaultgripper, clampgripper)&#45;&gt;precondition:
 hold(left_hand, defaultgripper)</title>
<path fill="none" stroke="black" d="M642.51,-327.14C558.52,-311.16 446.26,-289.79 357.66,-272.93"/>
<polygon fill="black" stroke="black" points="358.27,-269.48 347.79,-271.05 356.96,-276.36 358.27,-269.48"/>
</g>
<!-- selector:
 put_down(left_hand, defaultgripper, shaft3) -->
<g id="node8" class="node">
<title>selector:
 put_down(left_hand, defaultgripper, shaft3)</title>
<polygon fill="#8deeee" stroke="black" points="1081.83,-229.19 1081.83,-259.82 895.38,-281.48 631.71,-281.48 445.26,-259.82 445.26,-229.19 631.71,-207.53 895.38,-207.53 1081.83,-229.19"/>
<text text-anchor="middle" x="763.55" y="-250.1" font-family="Times,serif" font-size="18.00">selector:</text>
<text text-anchor="middle" x="763.55" y="-230.1" font-family="Times,serif" font-size="18.00"> put_down(left_hand, defaultgripper, shaft3)</text>
</g>
<!-- sequence:
 change_tool(left_hand, defaultgripper, clampgripper)&#45;&gt;selector:
 put_down(left_hand, defaultgripper, shaft3) -->
<g id="edge7" class="edge">
<title>sequence:
 change_tool(left_hand, defaultgripper, clampgripper)&#45;&gt;selector:
 put_down(left_hand, defaultgripper, shaft3)</title>
<path fill="none" stroke="black" d="M763.55,-326.95C763.55,-316.5 763.55,-303.79 763.55,-291.54"/>
<polygon fill="black" stroke="black" points="767.05,-291.42 763.55,-281.42 760.05,-291.42 767.05,-291.42"/>
</g>
<!-- action:
 change_tool(left_hand, defaultgripper, clampgripper) -->
<g id="node14" class="node">
<title>action:
 change_tool(left_hand, defaultgripper, clampgripper)</title>
<ellipse fill="lightgreen" stroke="black" cx="1454.55" cy="-244.5" rx="354.94" ry="33.88"/>
<text text-anchor="middle" x="1454.55" y="-250.1" font-family="Times,serif" font-size="18.00">action:</text>
<text text-anchor="middle" x="1454.55" y="-230.1" font-family="Times,serif" font-size="18.00"> change_tool(left_hand, defaultgripper, clampgripper)</text>
</g>
<!-- sequence:
 change_tool(left_hand, defaultgripper, clampgripper)&#45;&gt;action:
 change_tool(left_hand, defaultgripper, clampgripper) -->
<g id="edge13" class="edge">
<title>sequence:
 change_tool(left_hand, defaultgripper, clampgripper)&#45;&gt;action:
 change_tool(left_hand, defaultgripper, clampgripper)</title>
<path fill="none" stroke="black" d="M915.62,-327.14C1016.77,-311.82 1150.55,-291.55 1259.52,-275.05"/>
<polygon fill="black" stroke="black" points="1260.29,-278.47 1269.65,-273.51 1259.24,-271.55 1260.29,-278.47"/>
</g>
<!-- target:
 not hold(defaultgripper, shaft3) -->
<g id="node9" class="node">
<title>target:
 not hold(defaultgripper, shaft3)</title>
<ellipse fill="#ffec8b" stroke="black" cx="542.55" cy="-137.82" rx="217.16" ry="33.88"/>
<text text-anchor="middle" x="542.55" y="-143.42" font-family="Times,serif" font-size="18.00">target:</text>
<text text-anchor="middle" x="542.55" y="-123.42" font-family="Times,serif" font-size="18.00"> not hold(defaultgripper, shaft3)</text>
</g>
<!-- selector:
 put_down(left_hand, defaultgripper, shaft3)&#45;&gt;target:
 not hold(defaultgripper, shaft3) -->
<g id="edge8" class="edge">
<title>selector:
 put_down(left_hand, defaultgripper, shaft3)&#45;&gt;target:
 not hold(defaultgripper, shaft3)</title>
<path fill="none" stroke="black" d="M687.8,-207.62C665.29,-196.96 640.63,-185.28 618.13,-174.62"/>
<polygon fill="black" stroke="black" points="619.5,-171.4 608.96,-170.28 616.5,-177.73 619.5,-171.4"/>
</g>
<!-- sequence:
 put_down(left_hand, defaultgripper, shaft3) -->
<g id="node10" class="node">
<title>sequence:
 put_down(left_hand, defaultgripper, shaft3)</title>
<polygon fill="#ff7f24" stroke="black" points="1193.55,-161.82 777.55,-161.82 777.55,-113.82 1193.55,-113.82 1193.55,-161.82"/>
<text text-anchor="middle" x="985.55" y="-143.42" font-family="Times,serif" font-size="18.00">sequence:</text>
<text text-anchor="middle" x="985.55" y="-123.42" font-family="Times,serif" font-size="18.00"> put_down(left_hand, defaultgripper, shaft3)</text>
</g>
<!-- selector:
 put_down(left_hand, defaultgripper, shaft3)&#45;&gt;sequence:
 put_down(left_hand, defaultgripper, shaft3) -->
<g id="edge9" class="edge">
<title>selector:
 put_down(left_hand, defaultgripper, shaft3)&#45;&gt;sequence:
 put_down(left_hand, defaultgripper, shaft3)</title>
<path fill="none" stroke="black" d="M839.64,-207.62C868.38,-194.07 900.6,-178.88 927.44,-166.22"/>
<polygon fill="black" stroke="black" points="929.14,-169.29 936.69,-161.86 926.15,-162.96 929.14,-169.29"/>
</g>
<!-- &quot;precondition:\n hold(left_hand, defaultgripper)&quot;* -->
<g id="node11" class="node">
<title>&quot;precondition:\n hold(left_hand, defaultgripper)&quot;*</title>
<ellipse fill="#ffec8b" stroke="black" cx="549.55" cy="-33.94" rx="225.63" ry="33.88"/>
<text text-anchor="middle" x="549.55" y="-39.54" font-family="Times,serif" font-size="18.00">&quot;precondition:</text>
<text text-anchor="middle" x="549.55" y="-19.54" font-family="Times,serif" font-size="18.00"> hold(left_hand, defaultgripper)&quot;*</text>
</g>
<!-- sequence:
 put_down(left_hand, defaultgripper, shaft3)&#45;&gt;&quot;precondition:\n hold(left_hand, defaultgripper)&quot;* -->
<g id="edge10" class="edge">
<title>sequence:
 put_down(left_hand, defaultgripper, shaft3)&#45;&gt;&quot;precondition:\n hold(left_hand, defaultgripper)&quot;*</title>
<path fill="none" stroke="black" d="M886.88,-113.77C825.36,-99.39 745.5,-80.73 678.93,-65.17"/>
<polygon fill="black" stroke="black" points="679.32,-61.67 668.79,-62.8 677.73,-68.49 679.32,-61.67"/>
</g>
<!-- precondition:
 hold(defaultgripper, shaft3) -->
<g id="node12" class="node">
<title>precondition:
 hold(defaultgripper, shaft3)</title>
<ellipse fill="#ffec8b" stroke="black" cx="985.55" cy="-33.94" rx="192.17" ry="33.88"/>
<text text-anchor="middle" x="985.55" y="-39.54" font-family="Times,serif" font-size="18.00">precondition:</text>
<text text-anchor="middle" x="985.55" y="-19.54" font-family="Times,serif" font-size="18.00"> hold(defaultgripper, shaft3)</text>
</g>
<!-- sequence:
 put_down(left_hand, defaultgripper, shaft3)&#45;&gt;precondition:
 hold(defaultgripper, shaft3) -->
<g id="edge11" class="edge">
<title>sequence:
 put_down(left_hand, defaultgripper, shaft3)&#45;&gt;precondition:
 hold(defaultgripper, shaft3)</title>
<path fill="none" stroke="black" d="M985.55,-113.7C985.55,-103.16 985.55,-90.31 985.55,-78.08"/>
<polygon fill="black" stroke="black" points="989.05,-78.01 985.55,-68.01 982.05,-78.01 989.05,-78.01"/>
</g>
<!-- action:
 put_down(left_hand, defaultgripper, shaft3) -->
<g id="node13" class="node">
<title>action:
 put_down(left_hand, defaultgripper, shaft3)</title>
<ellipse fill="lightgreen" stroke="black" cx="1489.55" cy="-33.94" rx="294.31" ry="33.88"/>
<text text-anchor="middle" x="1489.55" y="-39.54" font-family="Times,serif" font-size="18.00">action:</text>
<text text-anchor="middle" x="1489.55" y="-19.54" font-family="Times,serif" font-size="18.00"> put_down(left_hand, defaultgripper, shaft3)</text>
</g>
<!-- sequence:
 put_down(left_hand, defaultgripper, shaft3)&#45;&gt;action:
 put_down(left_hand, defaultgripper, shaft3) -->
<g id="edge12" class="edge">
<title>sequence:
 put_down(left_hand, defaultgripper, shaft3)&#45;&gt;action:
 put_down(left_hand, defaultgripper, shaft3)</title>
<path fill="none" stroke="black" d="M1099.6,-113.77C1169.77,-99.58 1260.57,-81.23 1336.89,-65.8"/>
<polygon fill="black" stroke="black" points="1337.97,-69.15 1347.08,-63.74 1336.58,-62.29 1337.97,-69.15"/>
</g>
</g>
</svg>
