<?xml version="1.0" encoding="UTF-8" standalone="no"?>
<!DOCTYPE svg PUBLIC "-//W3C//DTD SVG 1.1//EN"
 "http://www.w3.org/Graphics/SVG/1.1/DTD/svg11.dtd">
<!-- Generated by graphviz version 2.43.0 (0)
 -->
<!-- Title: pastafarianism Pages: 1 -->
<svg width="3174pt" height="716pt"
 viewBox="0.00 0.00 3173.61 715.95" xmlns="http://www.w3.org/2000/svg" xmlns:xlink="http://www.w3.org/1999/xlink">
<g id="graph0" class="graph" transform="scale(1 1) rotate(0) translate(4 711.95)">
<title>pastafarianism</title>
<polygon fill="white" stroke="transparent" points="-4,4 -4,-711.95 3169.61,-711.95 3169.61,4 -4,4"/>
<!-- selector:
 insert(left_hand, clampgripper, shaft1, gearbase_hole1) -->
<g id="node1" class="node">
<title>selector:
 insert(left_hand, clampgripper, shaft1, gearbase_hole1)</title>
<polygon fill="#8deeee" stroke="black" points="1722.65,-655.9 1722.65,-686.53 1487.69,-708.19 1155.4,-708.19 920.44,-686.53 920.44,-655.9 1155.4,-634.24 1487.69,-634.24 1722.65,-655.9"/>
<text text-anchor="middle" x="1321.55" y="-676.82" font-family="Times,serif" font-size="18.00">selector:</text>
<text text-anchor="middle" x="1321.55" y="-656.82" font-family="Times,serif" font-size="18.00"> insert(left_hand, clampgripper, shaft1, gearbase_hole1)</text>
</g>
<!-- target:
 is_inserted_to(shaft1, gearbase_hole1) -->
<g id="node2" class="node">
<title>target:
 is_inserted_to(shaft1, gearbase_hole1)</title>
<ellipse fill="#ffec8b" stroke="black" cx="1050.55" cy="-564.54" rx="261.76" ry="33.88"/>
<text text-anchor="middle" x="1050.55" y="-570.14" font-family="Times,serif" font-size="18.00">target:</text>
<text text-anchor="middle" x="1050.55" y="-550.14" font-family="Times,serif" font-size="18.00"> is_inserted_to(shaft1, gearbase_hole1)</text>
</g>
<!-- selector:
 insert(left_hand, clampgripper, shaft1, gearbase_hole1)&#45;&gt;target:
 is_inserted_to(shaft1, gearbase_hole1) -->
<g id="edge1" class="edge">
<title>selector:
 insert(left_hand, clampgripper, shaft1, gearbase_hole1)&#45;&gt;target:
 is_inserted_to(shaft1, gearbase_hole1)</title>
<path fill="none" stroke="black" d="M1228.66,-634.34C1200.3,-623.39 1169.17,-611.36 1140.98,-600.47"/>
<polygon fill="black" stroke="black" points="1142.13,-597.16 1131.54,-596.82 1139.61,-603.69 1142.13,-597.16"/>
</g>
<!-- sequence:
 insert(left_hand, clampgripper, shaft1, gearbase_hole1) -->
<g id="node3" class="node">
<title>sequence:
 insert(left_hand, clampgripper, shaft1, gearbase_hole1)</title>
<polygon fill="#ff7f24" stroke="black" points="1854.55,-588.54 1330.55,-588.54 1330.55,-540.54 1854.55,-540.54 1854.55,-588.54"/>
<text text-anchor="middle" x="1592.55" y="-570.14" font-family="Times,serif" font-size="18.00">sequence:</text>
<text text-anchor="middle" x="1592.55" y="-550.14" font-family="Times,serif" font-size="18.00"> insert(left_hand, clampgripper, shaft1, gearbase_hole1)</text>
</g>
<!-- selector:
 insert(left_hand, clampgripper, shaft1, gearbase_hole1)&#45;&gt;sequence:
 insert(left_hand, clampgripper, shaft1, gearbase_hole1) -->
<g id="edge2" class="edge">
<title>selector:
 insert(left_hand, clampgripper, shaft1, gearbase_hole1)&#45;&gt;sequence:
 insert(left_hand, clampgripper, shaft1, gearbase_hole1)</title>
<path fill="none" stroke="black" d="M1414.43,-634.34C1450.13,-620.55 1490.23,-605.06 1523.32,-592.28"/>
<polygon fill="black" stroke="black" points="1524.84,-595.44 1532.91,-588.58 1522.32,-588.91 1524.84,-595.44"/>
</g>
<!-- selector:
 change_tool(left_hand, defaultgripper, clampgripper) -->
<g id="node4" class="node">
<title>selector:
 change_tool(left_hand, defaultgripper, clampgripper)</title>
<polygon fill="#8deeee" stroke="black" points="1190.97,-442.54 1190.97,-473.18 965.78,-494.84 647.31,-494.84 422.12,-473.18 422.12,-442.54 647.31,-420.88 965.78,-420.88 1190.97,-442.54"/>
<text text-anchor="middle" x="806.55" y="-463.46" font-family="Times,serif" font-size="18.00">selector:</text>
<text text-anchor="middle" x="806.55" y="-443.46" font-family="Times,serif" font-size="18.00"> change_tool(left_hand, defaultgripper, clampgripper)</text>
</g>
<!-- sequence:
 insert(left_hand, clampgripper, shaft1, gearbase_hole1)&#45;&gt;selector:
 change_tool(left_hand, defaultgripper, clampgripper) -->
<g id="edge3" class="edge">
<title>sequence:
 insert(left_hand, clampgripper, shaft1, gearbase_hole1)&#45;&gt;selector:
 change_tool(left_hand, defaultgripper, clampgripper)</title>
<path fill="none" stroke="black" d="M1419.57,-540.5C1308.23,-525.67 1162.13,-506.22 1040.49,-490.02"/>
<polygon fill="black" stroke="black" points="1040.67,-486.51 1030.29,-488.66 1039.74,-493.45 1040.67,-486.51"/>
</g>
<!-- selector:
 pick_up(left_hand, clampgripper, shaft1) -->
<g id="node15" class="node">
<title>selector:
 pick_up(left_hand, clampgripper, shaft1)</title>
<polygon fill="#8deeee" stroke="black" points="1890.5,-442.54 1890.5,-473.18 1715.96,-494.84 1469.13,-494.84 1294.59,-473.18 1294.59,-442.54 1469.13,-420.88 1715.96,-420.88 1890.5,-442.54"/>
<text text-anchor="middle" x="1592.55" y="-463.46" font-family="Times,serif" font-size="18.00">selector:</text>
<text text-anchor="middle" x="1592.55" y="-443.46" font-family="Times,serif" font-size="18.00"> pick_up(left_hand, clampgripper, shaft1)</text>
</g>
<!-- sequence:
 insert(left_hand, clampgripper, shaft1, gearbase_hole1)&#45;&gt;selector:
 pick_up(left_hand, clampgripper, shaft1) -->
<g id="edge14" class="edge">
<title>sequence:
 insert(left_hand, clampgripper, shaft1, gearbase_hole1)&#45;&gt;selector:
 pick_up(left_hand, clampgripper, shaft1)</title>
<path fill="none" stroke="black" d="M1592.55,-540.31C1592.55,-529.86 1592.55,-517.15 1592.55,-504.9"/>
<polygon fill="black" stroke="black" points="1596.05,-504.78 1592.55,-494.78 1589.05,-504.78 1596.05,-504.78"/>
</g>
<!-- action:
 insert(left_hand, clampgripper, shaft1, gearbase_hole1) -->
<g id="node21" class="node">
<title>action:
 insert(left_hand, clampgripper, shaft1, gearbase_hole1)</title>
<ellipse fill="lightgreen" stroke="black" cx="2278.55" cy="-457.86" rx="370.55" ry="33.88"/>
<text text-anchor="middle" x="2278.55" y="-463.46" font-family="Times,serif" font-size="18.00">action:</text>
<text text-anchor="middle" x="2278.55" y="-443.46" font-family="Times,serif" font-size="18.00"> insert(left_hand, clampgripper, shaft1, gearbase_hole1)</text>
</g>
<!-- sequence:
 insert(left_hand, clampgripper, shaft1, gearbase_hole1)&#45;&gt;action:
 insert(left_hand, clampgripper, shaft1, gearbase_hole1) -->
<g id="edge20" class="edge">
<title>sequence:
 insert(left_hand, clampgripper, shaft1, gearbase_hole1)&#45;&gt;action:
 insert(left_hand, clampgripper, shaft1, gearbase_hole1)</title>
<path fill="none" stroke="black" d="M1743.52,-540.5C1843.17,-525.3 1974.73,-505.22 2082.45,-488.78"/>
<polygon fill="black" stroke="black" points="2083.11,-492.22 2092.47,-487.25 2082.06,-485.3 2083.11,-492.22"/>
</g>
<!-- target:
 hold(left_hand, clampgripper) -->
<g id="node5" class="node">
<title>target:
 hold(left_hand, clampgripper)</title>
<ellipse fill="#ffec8b" stroke="black" cx="330.55" cy="-351.18" rx="207.36" ry="33.88"/>
<text text-anchor="middle" x="330.55" y="-356.78" font-family="Times,serif" font-size="18.00">target:</text>
<text text-anchor="middle" x="330.55" y="-336.78" font-family="Times,serif" font-size="18.00"> hold(left_hand, clampgripper)</text>
</g>
<!-- selector:
 change_tool(left_hand, defaultgripper, clampgripper)&#45;&gt;target:
 hold(left_hand, clampgripper) -->
<g id="edge4" class="edge">
<title>selector:
 change_tool(left_hand, defaultgripper, clampgripper)&#45;&gt;target:
 hold(left_hand, clampgripper)</title>
<path fill="none" stroke="black" d="M644.07,-421.13C584.61,-408.05 518.15,-393.44 461.77,-381.04"/>
<polygon fill="black" stroke="black" points="462.24,-377.56 451.72,-378.83 460.74,-384.4 462.24,-377.56"/>
</g>
<!-- sequence:
 change_tool(left_hand, defaultgripper, clampgripper) -->
<g id="node6" class="node">
<title>sequence:
 change_tool(left_hand, defaultgripper, clampgripper)</title>
<polygon fill="#ff7f24" stroke="black" points="1057.55,-375.18 555.55,-375.18 555.55,-327.18 1057.55,-327.18 1057.55,-375.18"/>
<text text-anchor="middle" x="806.55" y="-356.78" font-family="Times,serif" font-size="18.00">sequence:</text>
<text text-anchor="middle" x="806.55" y="-336.78" font-family="Times,serif" font-size="18.00"> change_tool(left_hand, defaultgripper, clampgripper)</text>
</g>
<!-- selector:
 change_tool(left_hand, defaultgripper, clampgripper)&#45;&gt;sequence:
 change_tool(left_hand, defaultgripper, clampgripper) -->
<g id="edge5" class="edge">
<title>selector:
 change_tool(left_hand, defaultgripper, clampgripper)&#45;&gt;sequence:
 change_tool(left_hand, defaultgripper, clampgripper)</title>
<path fill="none" stroke="black" d="M806.55,-420.84C806.55,-409.45 806.55,-396.92 806.55,-385.72"/>
<polygon fill="black" stroke="black" points="810.05,-385.47 806.55,-375.47 803.05,-385.47 810.05,-385.47"/>
</g>
<!-- precondition:
 hold(left_hand, defaultgripper) -->
<g id="node7" class="node">
<title>precondition:
 hold(left_hand, defaultgripper)</title>
<ellipse fill="#ffec8b" stroke="black" cx="213.55" cy="-244.5" rx="213.59" ry="33.88"/>
<text text-anchor="middle" x="213.55" y="-250.1" font-family="Times,serif" font-size="18.00">precondition:</text>
<text text-anchor="middle" x="213.55" y="-230.1" font-family="Times,serif" font-size="18.00"> hold(left_hand, defaultgripper)</text>
</g>
<!-- sequence:
 change_tool(left_hand, defaultgripper, clampgripper)&#45;&gt;precondition:
 hold(left_hand, defaultgripper) -->
<g id="edge6" class="edge">
<title>sequence:
 change_tool(left_hand, defaultgripper, clampgripper)&#45;&gt;precondition:
 hold(left_hand, defaultgripper)</title>
<path fill="none" stroke="black" d="M676.04,-327.14C583.74,-310.85 459.78,-288.97 363.42,-271.96"/>
<polygon fill="black" stroke="black" points="363.75,-268.46 353.3,-270.17 362.53,-275.36 363.75,-268.46"/>
</g>
<!-- selector:
 put_down(left_hand, defaultgripper, shaft3) -->
<g id="node8" class="node">
<title>selector:
 put_down(left_hand, defaultgripper, shaft3)</title>
<polygon fill="#8deeee" stroke="black" points="1081.83,-229.19 1081.83,-259.82 895.38,-281.48 631.71,-281.48 445.26,-259.82 445.26,-229.19 631.71,-207.53 895.38,-207.53 1081.83,-229.19"/>
<text text-anchor="middle" x="763.55" y="-250.1" font-family="Times,serif" font-size="18.00">selector:</text>
<text text-anchor="middle" x="763.55" y="-230.1" font-family="Times,serif" font-size="18.00"> put_down(left_hand, defaultgripper, shaft3)</text>
</g>
<!-- sequence:
 change_tool(left_hand, defaultgripper, clampgripper)&#45;&gt;selector:
 put_down(left_hand, defaultgripper, shaft3) -->
<g id="edge7" class="edge">
<title>sequence:
 change_tool(left_hand, defaultgripper, clampgripper)&#45;&gt;selector:
 put_down(left_hand, defaultgripper, shaft3)</title>
<path fill="none" stroke="black" d="M797,-326.95C792.63,-316.29 787.28,-303.28 782.16,-290.81"/>
<polygon fill="black" stroke="black" points="785.34,-289.34 778.3,-281.42 778.86,-292 785.34,-289.34"/>
</g>
<!-- action:
 change_tool(left_hand, defaultgripper, clampgripper) -->
<g id="node14" class="node">
<title>action:
 change_tool(left_hand, defaultgripper, clampgripper)</title>
<ellipse fill="lightgreen" stroke="black" cx="1454.55" cy="-244.5" rx="354.94" ry="33.88"/>
<text text-anchor="middle" x="1454.55" y="-250.1" font-family="Times,serif" font-size="18.00">action:</text>
<text text-anchor="middle" x="1454.55" y="-230.1" font-family="Times,serif" font-size="18.00"> change_tool(left_hand, defaultgripper, clampgripper)</text>
</g>
<!-- sequence:
 change_tool(left_hand, defaultgripper, clampgripper)&#45;&gt;action:
 change_tool(left_hand, defaultgripper, clampgripper) -->
<g id="edge13" class="edge">
<title>sequence:
 change_tool(left_hand, defaultgripper, clampgripper)&#45;&gt;action:
 change_tool(left_hand, defaultgripper, clampgripper)</title>
<path fill="none" stroke="black" d="M949.15,-327.14C1042.92,-312 1166.58,-292.02 1268.12,-275.62"/>
<polygon fill="black" stroke="black" points="1268.87,-279.04 1278.18,-273.99 1267.75,-272.13 1268.87,-279.04"/>
</g>
<!-- target:
 not hold(defaultgripper, shaft3) -->
<g id="node9" class="node">
<title>target:
 not hold(defaultgripper, shaft3)</title>
<ellipse fill="#ffec8b" stroke="black" cx="542.55" cy="-137.82" rx="217.16" ry="33.88"/>
<text text-anchor="middle" x="542.55" y="-143.42" font-family="Times,serif" font-size="18.00">target:</text>
<text text-anchor="middle" x="542.55" y="-123.42" font-family="Times,serif" font-size="18.00"> not hold(defaultgripper, shaft3)</text>
</g>
<!-- selector:
 put_down(left_hand, defaultgripper, shaft3)&#45;&gt;target:
 not hold(defaultgripper, shaft3) -->
<g id="edge8" class="edge">
<title>selector:
 put_down(left_hand, defaultgripper, shaft3)&#45;&gt;target:
 not hold(defaultgripper, shaft3)</title>
<path fill="none" stroke="black" d="M687.8,-207.62C665.29,-196.96 640.63,-185.28 618.13,-174.62"/>
<polygon fill="black" stroke="black" points="619.5,-171.4 608.96,-170.28 616.5,-177.73 619.5,-171.4"/>
</g>
<!-- sequence:
 put_down(left_hand, defaultgripper, shaft3) -->
<g id="node10" class="node">
<title>sequence:
 put_down(left_hand, defaultgripper, shaft3)</title>
<polygon fill="#ff7f24" stroke="black" points="1193.55,-161.82 777.55,-161.82 777.55,-113.82 1193.55,-113.82 1193.55,-161.82"/>
<text text-anchor="middle" x="985.55" y="-143.42" font-family="Times,serif" font-size="18.00">sequence:</text>
<text text-anchor="middle" x="985.55" y="-123.42" font-family="Times,serif" font-size="18.00"> put_down(left_hand, defaultgripper, shaft3)</text>
</g>
<!-- selector:
 put_down(left_hand, defaultgripper, shaft3)&#45;&gt;sequence:
 put_down(left_hand, defaultgripper, shaft3) -->
<g id="edge9" class="edge">
<title>selector:
 put_down(left_hand, defaultgripper, shaft3)&#45;&gt;sequence:
 put_down(left_hand, defaultgripper, shaft3)</title>
<path fill="none" stroke="black" d="M839.64,-207.62C868.38,-194.07 900.6,-178.88 927.44,-166.22"/>
<polygon fill="black" stroke="black" points="929.14,-169.29 936.69,-161.86 926.15,-162.96 929.14,-169.29"/>
</g>
<!-- &quot;precondition:\n hold(left_hand, defaultgripper)&quot;* -->
<g id="node11" class="node">
<title>&quot;precondition:\n hold(left_hand, defaultgripper)&quot;*</title>
<ellipse fill="#ffec8b" stroke="black" cx="549.55" cy="-33.94" rx="225.63" ry="33.88"/>
<text text-anchor="middle" x="549.55" y="-39.54" font-family="Times,serif" font-size="18.00">&quot;precondition:</text>
<text text-anchor="middle" x="549.55" y="-19.54" font-family="Times,serif" font-size="18.00"> hold(left_hand, defaultgripper)&quot;*</text>
</g>
<!-- sequence:
 put_down(left_hand, defaultgripper, shaft3)&#45;&gt;&quot;precondition:\n hold(left_hand, defaultgripper)&quot;* -->
<g id="edge10" class="edge">
<title>sequence:
 put_down(left_hand, defaultgripper, shaft3)&#45;&gt;&quot;precondition:\n hold(left_hand, defaultgripper)&quot;*</title>
<path fill="none" stroke="black" d="M886.88,-113.77C825.36,-99.39 745.5,-80.73 678.93,-65.17"/>
<polygon fill="black" stroke="black" points="679.32,-61.67 668.79,-62.8 677.73,-68.49 679.32,-61.67"/>
</g>
<!-- precondition:
 hold(defaultgripper, shaft3) -->
<g id="node12" class="node">
<title>precondition:
 hold(defaultgripper, shaft3)</title>
<ellipse fill="#ffec8b" stroke="black" cx="985.55" cy="-33.94" rx="192.17" ry="33.88"/>
<text text-anchor="middle" x="985.55" y="-39.54" font-family="Times,serif" font-size="18.00">precondition:</text>
<text text-anchor="middle" x="985.55" y="-19.54" font-family="Times,serif" font-size="18.00"> hold(defaultgripper, shaft3)</text>
</g>
<!-- sequence:
 put_down(left_hand, defaultgripper, shaft3)&#45;&gt;precondition:
 hold(defaultgripper, shaft3) -->
<g id="edge11" class="edge">
<title>sequence:
 put_down(left_hand, defaultgripper, shaft3)&#45;&gt;precondition:
 hold(defaultgripper, shaft3)</title>
<path fill="none" stroke="black" d="M985.55,-113.7C985.55,-103.16 985.55,-90.31 985.55,-78.08"/>
<polygon fill="black" stroke="black" points="989.05,-78.01 985.55,-68.01 982.05,-78.01 989.05,-78.01"/>
</g>
<!-- action:
 put_down(left_hand, defaultgripper, shaft3) -->
<g id="node13" class="node">
<title>action:
 put_down(left_hand, defaultgripper, shaft3)</title>
<ellipse fill="lightgreen" stroke="black" cx="1489.55" cy="-33.94" rx="294.31" ry="33.88"/>
<text text-anchor="middle" x="1489.55" y="-39.54" font-family="Times,serif" font-size="18.00">action:</text>
<text text-anchor="middle" x="1489.55" y="-19.54" font-family="Times,serif" font-size="18.00"> put_down(left_hand, defaultgripper, shaft3)</text>
</g>
<!-- sequence:
 put_down(left_hand, defaultgripper, shaft3)&#45;&gt;action:
 put_down(left_hand, defaultgripper, shaft3) -->
<g id="edge12" class="edge">
<title>sequence:
 put_down(left_hand, defaultgripper, shaft3)&#45;&gt;action:
 put_down(left_hand, defaultgripper, shaft3)</title>
<path fill="none" stroke="black" d="M1099.6,-113.77C1169.77,-99.58 1260.57,-81.23 1336.89,-65.8"/>
<polygon fill="black" stroke="black" points="1337.97,-69.15 1347.08,-63.74 1336.58,-62.29 1337.97,-69.15"/>
</g>
<!-- target:
 hold(clampgripper, shaft1) -->
<g id="node16" class="node">
<title>target:
 hold(clampgripper, shaft1)</title>
<ellipse fill="#ffec8b" stroke="black" cx="1592.55" cy="-351.18" rx="185.94" ry="33.88"/>
<text text-anchor="middle" x="1592.55" y="-356.78" font-family="Times,serif" font-size="18.00">target:</text>
<text text-anchor="middle" x="1592.55" y="-336.78" font-family="Times,serif" font-size="18.00"> hold(clampgripper, shaft1)</text>
</g>
<!-- selector:
 pick_up(left_hand, clampgripper, shaft1)&#45;&gt;target:
 hold(clampgripper, shaft1) -->
<g id="edge15" class="edge">
<title>selector:
 pick_up(left_hand, clampgripper, shaft1)&#45;&gt;target:
 hold(clampgripper, shaft1)</title>
<path fill="none" stroke="black" d="M1592.55,-420.84C1592.55,-412.68 1592.55,-403.93 1592.55,-395.51"/>
<polygon fill="black" stroke="black" points="1596.05,-395.46 1592.55,-385.46 1589.05,-395.46 1596.05,-395.46"/>
</g>
<!-- sequence:
 pick_up(left_hand, clampgripper, shaft1) -->
<g id="node17" class="node">
<title>sequence:
 pick_up(left_hand, clampgripper, shaft1)</title>
<polygon fill="#ff7f24" stroke="black" points="2426.05,-375.18 2037.05,-375.18 2037.05,-327.18 2426.05,-327.18 2426.05,-375.18"/>
<text text-anchor="middle" x="2231.55" y="-356.78" font-family="Times,serif" font-size="18.00">sequence:</text>
<text text-anchor="middle" x="2231.55" y="-336.78" font-family="Times,serif" font-size="18.00"> pick_up(left_hand, clampgripper, shaft1)</text>
</g>
<!-- selector:
 pick_up(left_hand, clampgripper, shaft1)&#45;&gt;sequence:
 pick_up(left_hand, clampgripper, shaft1) -->
<g id="edge16" class="edge">
<title>selector:
 pick_up(left_hand, clampgripper, shaft1)&#45;&gt;sequence:
 pick_up(left_hand, clampgripper, shaft1)</title>
<path fill="none" stroke="black" d="M1770.97,-427.63C1868.59,-411.64 1988.19,-392.05 2081.05,-376.83"/>
<polygon fill="black" stroke="black" points="2081.79,-380.26 2091.09,-375.19 2080.66,-373.35 2081.79,-380.26"/>
</g>
<!-- precondition:
 hold(left_hand, clampgripper) -->
<g id="node18" class="node">
<title>precondition:
 hold(left_hand, clampgripper)</title>
<ellipse fill="#ffec8b" stroke="black" cx="2034.55" cy="-244.5" rx="207.36" ry="33.88"/>
<text text-anchor="middle" x="2034.55" y="-250.1" font-family="Times,serif" font-size="18.00">precondition:</text>
<text text-anchor="middle" x="2034.55" y="-230.1" font-family="Times,serif" font-size="18.00"> hold(left_hand, clampgripper)</text>
</g>
<!-- sequence:
 pick_up(left_hand, clampgripper, shaft1)&#45;&gt;precondition:
 hold(left_hand, clampgripper) -->
<g id="edge17" class="edge">
<title>sequence:
 pick_up(left_hand, clampgripper, shaft1)&#45;&gt;precondition:
 hold(left_hand, clampgripper)</title>
<path fill="none" stroke="black" d="M2187.83,-326.95C2162.97,-313.74 2131.29,-296.91 2103.19,-281.98"/>
<polygon fill="black" stroke="black" points="2104.68,-278.81 2094.21,-277.2 2101.4,-284.99 2104.68,-278.81"/>
</g>
<!-- precondition:
 is_empty(clampgripper) -->
<g id="node19" class="node">
<title>precondition:
 is_empty(clampgripper)</title>
<ellipse fill="#ffec8b" stroke="black" cx="2428.55" cy="-244.5" rx="169" ry="33.88"/>
<text text-anchor="middle" x="2428.55" y="-250.1" font-family="Times,serif" font-size="18.00">precondition:</text>
<text text-anchor="middle" x="2428.55" y="-230.1" font-family="Times,serif" font-size="18.00"> is_empty(clampgripper)</text>
</g>
<!-- sequence:
 pick_up(left_hand, clampgripper, shaft1)&#45;&gt;precondition:
 is_empty(clampgripper) -->
<g id="edge18" class="edge">
<title>sequence:
 pick_up(left_hand, clampgripper, shaft1)&#45;&gt;precondition:
 is_empty(clampgripper)</title>
<path fill="none" stroke="black" d="M2275.27,-326.95C2300.53,-313.52 2332.85,-296.35 2361.28,-281.24"/>
<polygon fill="black" stroke="black" points="2363.18,-284.2 2370.37,-276.42 2359.9,-278.02 2363.18,-284.2"/>
</g>
<!-- action:
 pick_up(left_hand, clampgripper, shaft1) -->
<g id="node20" class="node">
<title>action:
 pick_up(left_hand, clampgripper, shaft1)</title>
<ellipse fill="lightgreen" stroke="black" cx="2890.55" cy="-244.5" rx="275.13" ry="33.88"/>
<text text-anchor="middle" x="2890.55" y="-250.1" font-family="Times,serif" font-size="18.00">action:</text>
<text text-anchor="middle" x="2890.55" y="-230.1" font-family="Times,serif" font-size="18.00"> pick_up(left_hand, clampgripper, shaft1)</text>
</g>
<!-- sequence:
 pick_up(left_hand, clampgripper, shaft1)&#45;&gt;action:
 pick_up(left_hand, clampgripper, shaft1) -->
<g id="edge19" class="edge">
<title>sequence:
 pick_up(left_hand, clampgripper, shaft1)&#45;&gt;action:
 pick_up(left_hand, clampgripper, shaft1)</title>
<path fill="none" stroke="black" d="M2376.57,-327.14C2476.43,-311.28 2609.64,-290.12 2715.42,-273.32"/>
<polygon fill="black" stroke="black" points="2716.24,-276.73 2725.57,-271.71 2715.14,-269.82 2716.24,-276.73"/>
</g>
</g>
</svg>
