<?xml version="1.0" encoding="UTF-8" standalone="no"?>
<!DOCTYPE svg PUBLIC "-//W3C//DTD SVG 1.1//EN"
 "http://www.w3.org/Graphics/SVG/1.1/DTD/svg11.dtd">
<!-- Generated by graphviz version 2.43.0 (0)
 -->
<!-- Title: pastafarianism Pages: 1 -->
<svg width="3243pt" height="716pt"
 viewBox="0.00 0.00 3242.56 715.95" xmlns="http://www.w3.org/2000/svg" xmlns:xlink="http://www.w3.org/1999/xlink">
<g id="graph0" class="graph" transform="scale(1 1) rotate(0) translate(4 711.95)">
<title>pastafarianism</title>
<polygon fill="white" stroke="transparent" points="-4,4 -4,-711.95 3238.56,-711.95 3238.56,4 -4,4"/>
<!-- selector:
 insert(left_hand, outwardgripper, gear2, shaft2) -->
<g id="node1" class="node">
<title>selector:
 insert(left_hand, outwardgripper, gear2, shaft2)</title>
<polygon fill="#8deeee" stroke="black" points="1708.2,-655.9 1708.2,-686.53 1503.75,-708.19 1214.62,-708.19 1010.17,-686.53 1010.17,-655.9 1214.62,-634.24 1503.75,-634.24 1708.2,-655.9"/>
<text text-anchor="middle" x="1359.18" y="-676.82" font-family="Times,serif" font-size="18.00">selector:</text>
<text text-anchor="middle" x="1359.18" y="-656.82" font-family="Times,serif" font-size="18.00"> insert(left_hand, outwardgripper, gear2, shaft2)</text>
</g>
<!-- target:
 is_inserted_to(gear2, shaft2) -->
<g id="node2" class="node">
<title>target:
 is_inserted_to(gear2, shaft2)</title>
<ellipse fill="#ffec8b" stroke="black" cx="1137.18" cy="-564.54" rx="198.89" ry="33.88"/>
<text text-anchor="middle" x="1137.18" y="-570.14" font-family="Times,serif" font-size="18.00">target:</text>
<text text-anchor="middle" x="1137.18" y="-550.14" font-family="Times,serif" font-size="18.00"> is_inserted_to(gear2, shaft2)</text>
</g>
<!-- selector:
 insert(left_hand, outwardgripper, gear2, shaft2)&#45;&gt;target:
 is_inserted_to(gear2, shaft2) -->
<g id="edge1" class="edge">
<title>selector:
 insert(left_hand, outwardgripper, gear2, shaft2)&#45;&gt;target:
 is_inserted_to(gear2, shaft2)</title>
<path fill="none" stroke="black" d="M1283.09,-634.34C1260.26,-623.57 1235.23,-611.77 1212.44,-601.03"/>
<polygon fill="black" stroke="black" points="1213.71,-597.75 1203.17,-596.65 1210.72,-604.08 1213.71,-597.75"/>
</g>
<!-- sequence:
 insert(left_hand, outwardgripper, gear2, shaft2) -->
<g id="node3" class="node">
<title>sequence:
 insert(left_hand, outwardgripper, gear2, shaft2)</title>
<polygon fill="#ff7f24" stroke="black" points="1810.18,-588.54 1354.18,-588.54 1354.18,-540.54 1810.18,-540.54 1810.18,-588.54"/>
<text text-anchor="middle" x="1582.18" y="-570.14" font-family="Times,serif" font-size="18.00">sequence:</text>
<text text-anchor="middle" x="1582.18" y="-550.14" font-family="Times,serif" font-size="18.00"> insert(left_hand, outwardgripper, gear2, shaft2)</text>
</g>
<!-- selector:
 insert(left_hand, outwardgripper, gear2, shaft2)&#45;&gt;sequence:
 insert(left_hand, outwardgripper, gear2, shaft2) -->
<g id="edge2" class="edge">
<title>selector:
 insert(left_hand, outwardgripper, gear2, shaft2)&#45;&gt;sequence:
 insert(left_hand, outwardgripper, gear2, shaft2)</title>
<path fill="none" stroke="black" d="M1435.61,-634.34C1464.49,-620.79 1496.85,-605.59 1523.81,-592.94"/>
<polygon fill="black" stroke="black" points="1525.54,-595.99 1533.11,-588.58 1522.57,-589.66 1525.54,-595.99"/>
</g>
<!-- selector:
 change_tool(left_hand, clampgripper, outwardgripper) -->
<g id="node4" class="node">
<title>selector:
 change_tool(left_hand, clampgripper, outwardgripper)</title>
<polygon fill="#8deeee" stroke="black" points="1175.95,-442.54 1175.95,-473.18 945.87,-494.84 620.49,-494.84 390.42,-473.18 390.42,-442.54 620.49,-420.88 945.87,-420.88 1175.95,-442.54"/>
<text text-anchor="middle" x="783.18" y="-463.46" font-family="Times,serif" font-size="18.00">selector:</text>
<text text-anchor="middle" x="783.18" y="-443.46" font-family="Times,serif" font-size="18.00"> change_tool(left_hand, clampgripper, outwardgripper)</text>
</g>
<!-- sequence:
 insert(left_hand, outwardgripper, gear2, shaft2)&#45;&gt;selector:
 change_tool(left_hand, clampgripper, outwardgripper) -->
<g id="edge3" class="edge">
<title>sequence:
 insert(left_hand, outwardgripper, gear2, shaft2)&#45;&gt;selector:
 change_tool(left_hand, clampgripper, outwardgripper)</title>
<path fill="none" stroke="black" d="M1418.39,-540.53C1393.86,-537.15 1368.86,-533.75 1345.18,-530.6 1241.14,-516.73 1126.19,-501.96 1027.5,-489.44"/>
<polygon fill="black" stroke="black" points="1027.75,-485.95 1017.39,-488.16 1026.87,-492.89 1027.75,-485.95"/>
</g>
<!-- selector:
 pick_up(left_hand, outwardgripper, gear2) -->
<g id="node15" class="node">
<title>selector:
 pick_up(left_hand, outwardgripper, gear2)</title>
<polygon fill="#8deeee" stroke="black" points="1892.13,-442.54 1892.13,-473.18 1710.57,-494.84 1453.8,-494.84 1272.24,-473.18 1272.24,-442.54 1453.8,-420.88 1710.57,-420.88 1892.13,-442.54"/>
<text text-anchor="middle" x="1582.18" y="-463.46" font-family="Times,serif" font-size="18.00">selector:</text>
<text text-anchor="middle" x="1582.18" y="-443.46" font-family="Times,serif" font-size="18.00"> pick_up(left_hand, outwardgripper, gear2)</text>
</g>
<!-- sequence:
 insert(left_hand, outwardgripper, gear2, shaft2)&#45;&gt;selector:
 pick_up(left_hand, outwardgripper, gear2) -->
<g id="edge14" class="edge">
<title>sequence:
 insert(left_hand, outwardgripper, gear2, shaft2)&#45;&gt;selector:
 pick_up(left_hand, outwardgripper, gear2)</title>
<path fill="none" stroke="black" d="M1582.18,-540.31C1582.18,-529.86 1582.18,-517.15 1582.18,-504.9"/>
<polygon fill="black" stroke="black" points="1585.68,-504.78 1582.18,-494.78 1578.68,-504.78 1585.68,-504.78"/>
</g>
<!-- action:
 insert(left_hand, outwardgripper, gear2, shaft2) -->
<g id="node21" class="node">
<title>action:
 insert(left_hand, outwardgripper, gear2, shaft2)</title>
<ellipse fill="lightgreen" stroke="black" cx="2232.18" cy="-457.86" rx="322.38" ry="33.88"/>
<text text-anchor="middle" x="2232.18" y="-463.46" font-family="Times,serif" font-size="18.00">action:</text>
<text text-anchor="middle" x="2232.18" y="-443.46" font-family="Times,serif" font-size="18.00"> insert(left_hand, outwardgripper, gear2, shaft2)</text>
</g>
<!-- sequence:
 insert(left_hand, outwardgripper, gear2, shaft2)&#45;&gt;action:
 insert(left_hand, outwardgripper, gear2, shaft2) -->
<g id="edge20" class="edge">
<title>sequence:
 insert(left_hand, outwardgripper, gear2, shaft2)&#45;&gt;action:
 insert(left_hand, outwardgripper, gear2, shaft2)</title>
<path fill="none" stroke="black" d="M1725.23,-540.5C1820.73,-525.12 1947.15,-504.76 2049.86,-488.22"/>
<polygon fill="black" stroke="black" points="2050.72,-491.63 2060.04,-486.58 2049.61,-484.72 2050.72,-491.63"/>
</g>
<!-- target:
 hold(left_hand, outwardgripper) -->
<g id="node5" class="node">
<title>target:
 hold(left_hand, outwardgripper)</title>
<ellipse fill="#ffec8b" stroke="black" cx="287.18" cy="-351.18" rx="221.15" ry="33.88"/>
<text text-anchor="middle" x="287.18" y="-356.78" font-family="Times,serif" font-size="18.00">target:</text>
<text text-anchor="middle" x="287.18" y="-336.78" font-family="Times,serif" font-size="18.00"> hold(left_hand, outwardgripper)</text>
</g>
<!-- selector:
 change_tool(left_hand, clampgripper, outwardgripper)&#45;&gt;target:
 hold(left_hand, outwardgripper) -->
<g id="edge4" class="edge">
<title>selector:
 change_tool(left_hand, clampgripper, outwardgripper)&#45;&gt;target:
 hold(left_hand, outwardgripper)</title>
<path fill="none" stroke="black" d="M614.91,-421.35C552.9,-408.26 483.45,-393.6 424.49,-381.16"/>
<polygon fill="black" stroke="black" points="424.87,-377.66 414.37,-379.02 423.43,-384.51 424.87,-377.66"/>
</g>
<!-- sequence:
 change_tool(left_hand, clampgripper, outwardgripper) -->
<g id="node6" class="node">
<title>sequence:
 change_tool(left_hand, clampgripper, outwardgripper)</title>
<polygon fill="#ff7f24" stroke="black" points="1039.68,-375.18 526.68,-375.18 526.68,-327.18 1039.68,-327.18 1039.68,-375.18"/>
<text text-anchor="middle" x="783.18" y="-356.78" font-family="Times,serif" font-size="18.00">sequence:</text>
<text text-anchor="middle" x="783.18" y="-336.78" font-family="Times,serif" font-size="18.00"> change_tool(left_hand, clampgripper, outwardgripper)</text>
</g>
<!-- selector:
 change_tool(left_hand, clampgripper, outwardgripper)&#45;&gt;sequence:
 change_tool(left_hand, clampgripper, outwardgripper) -->
<g id="edge5" class="edge">
<title>selector:
 change_tool(left_hand, clampgripper, outwardgripper)&#45;&gt;sequence:
 change_tool(left_hand, clampgripper, outwardgripper)</title>
<path fill="none" stroke="black" d="M783.18,-420.84C783.18,-409.45 783.18,-396.92 783.18,-385.72"/>
<polygon fill="black" stroke="black" points="786.68,-385.47 783.18,-375.47 779.68,-385.47 786.68,-385.47"/>
</g>
<!-- precondition:
 hold(left_hand, clampgripper) -->
<g id="node7" class="node">
<title>precondition:
 hold(left_hand, clampgripper)</title>
<ellipse fill="#ffec8b" stroke="black" cx="207.18" cy="-244.5" rx="207.36" ry="33.88"/>
<text text-anchor="middle" x="207.18" y="-250.1" font-family="Times,serif" font-size="18.00">precondition:</text>
<text text-anchor="middle" x="207.18" y="-230.1" font-family="Times,serif" font-size="18.00"> hold(left_hand, clampgripper)</text>
</g>
<!-- sequence:
 change_tool(left_hand, clampgripper, outwardgripper)&#45;&gt;precondition:
 hold(left_hand, clampgripper) -->
<g id="edge6" class="edge">
<title>sequence:
 change_tool(left_hand, clampgripper, outwardgripper)&#45;&gt;precondition:
 hold(left_hand, clampgripper)</title>
<path fill="none" stroke="black" d="M656.42,-327.14C566.86,-310.87 446.6,-289.01 353.04,-272.01"/>
<polygon fill="black" stroke="black" points="353.39,-268.52 342.93,-270.17 352.14,-275.4 353.39,-268.52"/>
</g>
<!-- selector:
 put_down(left_hand, clampgripper, shaft1) -->
<g id="node8" class="node">
<title>selector:
 put_down(left_hand, clampgripper, shaft1)</title>
<polygon fill="#8deeee" stroke="black" points="1055.69,-229.19 1055.69,-259.82 873.21,-281.48 615.15,-281.48 432.67,-259.82 432.67,-229.19 615.15,-207.53 873.21,-207.53 1055.69,-229.19"/>
<text text-anchor="middle" x="744.18" y="-250.1" font-family="Times,serif" font-size="18.00">selector:</text>
<text text-anchor="middle" x="744.18" y="-230.1" font-family="Times,serif" font-size="18.00"> put_down(left_hand, clampgripper, shaft1)</text>
</g>
<!-- sequence:
 change_tool(left_hand, clampgripper, outwardgripper)&#45;&gt;selector:
 put_down(left_hand, clampgripper, shaft1) -->
<g id="edge7" class="edge">
<title>sequence:
 change_tool(left_hand, clampgripper, outwardgripper)&#45;&gt;selector:
 put_down(left_hand, clampgripper, shaft1)</title>
<path fill="none" stroke="black" d="M774.53,-326.95C770.56,-316.29 765.71,-303.28 761.06,-290.81"/>
<polygon fill="black" stroke="black" points="764.34,-289.57 757.56,-281.42 757.78,-292.01 764.34,-289.57"/>
</g>
<!-- action:
 change_tool(left_hand, clampgripper, outwardgripper) -->
<g id="node14" class="node">
<title>action:
 change_tool(left_hand, clampgripper, outwardgripper)</title>
<ellipse fill="lightgreen" stroke="black" cx="1436.18" cy="-244.5" rx="362.99" ry="33.88"/>
<text text-anchor="middle" x="1436.18" y="-250.1" font-family="Times,serif" font-size="18.00">action:</text>
<text text-anchor="middle" x="1436.18" y="-230.1" font-family="Times,serif" font-size="18.00"> change_tool(left_hand, clampgripper, outwardgripper)</text>
</g>
<!-- sequence:
 change_tool(left_hand, clampgripper, outwardgripper)&#45;&gt;action:
 change_tool(left_hand, clampgripper, outwardgripper) -->
<g id="edge13" class="edge">
<title>sequence:
 change_tool(left_hand, clampgripper, outwardgripper)&#45;&gt;action:
 change_tool(left_hand, clampgripper, outwardgripper)</title>
<path fill="none" stroke="black" d="M926.89,-327.14C1021.19,-312.03 1145.52,-292.1 1247.72,-275.71"/>
<polygon fill="black" stroke="black" points="1248.54,-279.13 1257.86,-274.09 1247.43,-272.22 1248.54,-279.13"/>
</g>
<!-- target:
 is_empty(clampgripper) -->
<g id="node9" class="node">
<title>target:
 is_empty(clampgripper)</title>
<ellipse fill="#ffec8b" stroke="black" cx="549.18" cy="-137.82" rx="169" ry="33.88"/>
<text text-anchor="middle" x="549.18" y="-143.42" font-family="Times,serif" font-size="18.00">target:</text>
<text text-anchor="middle" x="549.18" y="-123.42" font-family="Times,serif" font-size="18.00"> is_empty(clampgripper)</text>
</g>
<!-- selector:
 put_down(left_hand, clampgripper, shaft1)&#45;&gt;target:
 is_empty(clampgripper) -->
<g id="edge8" class="edge">
<title>selector:
 put_down(left_hand, clampgripper, shaft1)&#45;&gt;target:
 is_empty(clampgripper)</title>
<path fill="none" stroke="black" d="M677.35,-207.62C657.46,-196.95 635.68,-185.26 615.81,-174.59"/>
<polygon fill="black" stroke="black" points="617.29,-171.41 606.82,-169.77 613.98,-177.58 617.29,-171.41"/>
</g>
<!-- sequence:
 put_down(left_hand, clampgripper, shaft1) -->
<g id="node10" class="node">
<title>sequence:
 put_down(left_hand, clampgripper, shaft1)</title>
<polygon fill="#ff7f24" stroke="black" points="1142.68,-161.82 735.68,-161.82 735.68,-113.82 1142.68,-113.82 1142.68,-161.82"/>
<text text-anchor="middle" x="939.18" y="-143.42" font-family="Times,serif" font-size="18.00">sequence:</text>
<text text-anchor="middle" x="939.18" y="-123.42" font-family="Times,serif" font-size="18.00"> put_down(left_hand, clampgripper, shaft1)</text>
</g>
<!-- selector:
 put_down(left_hand, clampgripper, shaft1)&#45;&gt;sequence:
 put_down(left_hand, clampgripper, shaft1) -->
<g id="edge9" class="edge">
<title>selector:
 put_down(left_hand, clampgripper, shaft1)&#45;&gt;sequence:
 put_down(left_hand, clampgripper, shaft1)</title>
<path fill="none" stroke="black" d="M811.02,-207.62C835.93,-194.25 863.83,-179.28 887.21,-166.72"/>
<polygon fill="black" stroke="black" points="889.11,-169.67 896.27,-161.86 885.8,-163.51 889.11,-169.67"/>
</g>
<!-- &quot;precondition:\n hold(left_hand, clampgripper)&quot;* -->
<g id="node11" class="node">
<title>&quot;precondition:\n hold(left_hand, clampgripper)&quot;*</title>
<ellipse fill="#ffec8b" stroke="black" cx="516.18" cy="-33.94" rx="219.41" ry="33.88"/>
<text text-anchor="middle" x="516.18" y="-39.54" font-family="Times,serif" font-size="18.00">&quot;precondition:</text>
<text text-anchor="middle" x="516.18" y="-19.54" font-family="Times,serif" font-size="18.00"> hold(left_hand, clampgripper)&quot;*</text>
</g>
<!-- sequence:
 put_down(left_hand, clampgripper, shaft1)&#45;&gt;&quot;precondition:\n hold(left_hand, clampgripper)&quot;* -->
<g id="edge10" class="edge">
<title>sequence:
 put_down(left_hand, clampgripper, shaft1)&#45;&gt;&quot;precondition:\n hold(left_hand, clampgripper)&quot;*</title>
<path fill="none" stroke="black" d="M843.46,-113.77C783.77,-99.39 706.29,-80.73 641.71,-65.17"/>
<polygon fill="black" stroke="black" points="642.41,-61.74 631.87,-62.8 640.77,-68.55 642.41,-61.74"/>
</g>
<!-- precondition:
 hold(clampgripper, shaft1) -->
<g id="node12" class="node">
<title>precondition:
 hold(clampgripper, shaft1)</title>
<ellipse fill="#ffec8b" stroke="black" cx="939.18" cy="-33.94" rx="185.94" ry="33.88"/>
<text text-anchor="middle" x="939.18" y="-39.54" font-family="Times,serif" font-size="18.00">precondition:</text>
<text text-anchor="middle" x="939.18" y="-19.54" font-family="Times,serif" font-size="18.00"> hold(clampgripper, shaft1)</text>
</g>
<!-- sequence:
 put_down(left_hand, clampgripper, shaft1)&#45;&gt;precondition:
 hold(clampgripper, shaft1) -->
<g id="edge11" class="edge">
<title>sequence:
 put_down(left_hand, clampgripper, shaft1)&#45;&gt;precondition:
 hold(clampgripper, shaft1)</title>
<path fill="none" stroke="black" d="M939.18,-113.7C939.18,-103.16 939.18,-90.31 939.18,-78.08"/>
<polygon fill="black" stroke="black" points="942.68,-78.01 939.18,-68.01 935.68,-78.01 942.68,-78.01"/>
</g>
<!-- action:
 put_down(left_hand, clampgripper, shaft1) -->
<g id="node13" class="node">
<title>action:
 put_down(left_hand, clampgripper, shaft1)</title>
<ellipse fill="lightgreen" stroke="black" cx="1431.18" cy="-33.94" rx="287.59" ry="33.88"/>
<text text-anchor="middle" x="1431.18" y="-39.54" font-family="Times,serif" font-size="18.00">action:</text>
<text text-anchor="middle" x="1431.18" y="-19.54" font-family="Times,serif" font-size="18.00"> put_down(left_hand, clampgripper, shaft1)</text>
</g>
<!-- sequence:
 put_down(left_hand, clampgripper, shaft1)&#45;&gt;action:
 put_down(left_hand, clampgripper, shaft1) -->
<g id="edge12" class="edge">
<title>sequence:
 put_down(left_hand, clampgripper, shaft1)&#45;&gt;action:
 put_down(left_hand, clampgripper, shaft1)</title>
<path fill="none" stroke="black" d="M1050.52,-113.77C1119.02,-99.58 1207.65,-81.23 1282.16,-65.8"/>
<polygon fill="black" stroke="black" points="1283.02,-69.2 1292.11,-63.74 1281.6,-62.34 1283.02,-69.2"/>
</g>
<!-- target:
 hold(outwardgripper, gear2) -->
<g id="node16" class="node">
<title>target:
 hold(outwardgripper, gear2)</title>
<ellipse fill="#ffec8b" stroke="black" cx="1582.18" cy="-351.18" rx="196.65" ry="33.88"/>
<text text-anchor="middle" x="1582.18" y="-356.78" font-family="Times,serif" font-size="18.00">target:</text>
<text text-anchor="middle" x="1582.18" y="-336.78" font-family="Times,serif" font-size="18.00"> hold(outwardgripper, gear2)</text>
</g>
<!-- selector:
 pick_up(left_hand, outwardgripper, gear2)&#45;&gt;target:
 hold(outwardgripper, gear2) -->
<g id="edge15" class="edge">
<title>selector:
 pick_up(left_hand, outwardgripper, gear2)&#45;&gt;target:
 hold(outwardgripper, gear2)</title>
<path fill="none" stroke="black" d="M1582.18,-420.84C1582.18,-412.68 1582.18,-403.93 1582.18,-395.51"/>
<polygon fill="black" stroke="black" points="1585.68,-395.46 1582.18,-385.46 1578.68,-395.46 1585.68,-395.46"/>
</g>
<!-- sequence:
 pick_up(left_hand, outwardgripper, gear2) -->
<g id="node17" class="node">
<title>sequence:
 pick_up(left_hand, outwardgripper, gear2)</title>
<polygon fill="#ff7f24" stroke="black" points="2451.68,-375.18 2046.68,-375.18 2046.68,-327.18 2451.68,-327.18 2451.68,-375.18"/>
<text text-anchor="middle" x="2249.18" y="-356.78" font-family="Times,serif" font-size="18.00">sequence:</text>
<text text-anchor="middle" x="2249.18" y="-336.78" font-family="Times,serif" font-size="18.00"> pick_up(left_hand, outwardgripper, gear2)</text>
</g>
<!-- selector:
 pick_up(left_hand, outwardgripper, gear2)&#45;&gt;sequence:
 pick_up(left_hand, outwardgripper, gear2) -->
<g id="edge16" class="edge">
<title>selector:
 pick_up(left_hand, outwardgripper, gear2)&#45;&gt;sequence:
 pick_up(left_hand, outwardgripper, gear2)</title>
<path fill="none" stroke="black" d="M1767.98,-427.7C1870.09,-411.68 1995.35,-392.02 2092.48,-376.77"/>
<polygon fill="black" stroke="black" points="2093.04,-380.23 2102.38,-375.22 2091.96,-373.31 2093.04,-380.23"/>
</g>
<!-- precondition:
 hold(left_hand, outwardgripper) -->
<g id="node18" class="node">
<title>precondition:
 hold(left_hand, outwardgripper)</title>
<ellipse fill="#ffec8b" stroke="black" cx="2038.18" cy="-244.5" rx="221.15" ry="33.88"/>
<text text-anchor="middle" x="2038.18" y="-250.1" font-family="Times,serif" font-size="18.00">precondition:</text>
<text text-anchor="middle" x="2038.18" y="-230.1" font-family="Times,serif" font-size="18.00"> hold(left_hand, outwardgripper)</text>
</g>
<!-- sequence:
 pick_up(left_hand, outwardgripper, gear2)&#45;&gt;precondition:
 hold(left_hand, outwardgripper) -->
<g id="edge17" class="edge">
<title>sequence:
 pick_up(left_hand, outwardgripper, gear2)&#45;&gt;precondition:
 hold(left_hand, outwardgripper)</title>
<path fill="none" stroke="black" d="M2202.62,-327.08C2175.78,-313.77 2141.45,-296.74 2111.11,-281.68"/>
<polygon fill="black" stroke="black" points="2112.35,-278.39 2101.84,-277.08 2109.24,-284.66 2112.35,-278.39"/>
</g>
<!-- precondition:
 is_empty(outwardgripper) -->
<g id="node19" class="node">
<title>precondition:
 is_empty(outwardgripper)</title>
<ellipse fill="#ffec8b" stroke="black" cx="2460.18" cy="-244.5" rx="183.28" ry="33.88"/>
<text text-anchor="middle" x="2460.18" y="-250.1" font-family="Times,serif" font-size="18.00">precondition:</text>
<text text-anchor="middle" x="2460.18" y="-230.1" font-family="Times,serif" font-size="18.00"> is_empty(outwardgripper)</text>
</g>
<!-- sequence:
 pick_up(left_hand, outwardgripper, gear2)&#45;&gt;precondition:
 is_empty(outwardgripper) -->
<g id="edge18" class="edge">
<title>sequence:
 pick_up(left_hand, outwardgripper, gear2)&#45;&gt;precondition:
 is_empty(outwardgripper)</title>
<path fill="none" stroke="black" d="M2295.75,-327.08C2322.91,-313.6 2357.76,-296.32 2388.37,-281.13"/>
<polygon fill="black" stroke="black" points="2390.32,-284.07 2397.72,-276.49 2387.21,-277.8 2390.32,-284.07"/>
</g>
<!-- action:
 pick_up(left_hand, outwardgripper, gear2) -->
<g id="node20" class="node">
<title>action:
 pick_up(left_hand, outwardgripper, gear2)</title>
<ellipse fill="lightgreen" stroke="black" cx="2948.18" cy="-244.5" rx="286.26" ry="33.88"/>
<text text-anchor="middle" x="2948.18" y="-250.1" font-family="Times,serif" font-size="18.00">action:</text>
<text text-anchor="middle" x="2948.18" y="-230.1" font-family="Times,serif" font-size="18.00"> pick_up(left_hand, outwardgripper, gear2)</text>
</g>
<!-- sequence:
 pick_up(left_hand, outwardgripper, gear2)&#45;&gt;action:
 pick_up(left_hand, outwardgripper, gear2) -->
<g id="edge19" class="edge">
<title>sequence:
 pick_up(left_hand, outwardgripper, gear2)&#45;&gt;action:
 pick_up(left_hand, outwardgripper, gear2)</title>
<path fill="none" stroke="black" d="M2403.01,-327.14C2509.53,-311.19 2651.83,-289.88 2764.34,-273.03"/>
<polygon fill="black" stroke="black" points="2765.07,-276.46 2774.44,-271.52 2764.04,-269.54 2765.07,-276.46"/>
</g>
</g>
</svg>
