<?xml version="1.0" encoding="UTF-8" standalone="no"?>
<!DOCTYPE svg PUBLIC "-//W3C//DTD SVG 1.1//EN"
 "http://www.w3.org/Graphics/SVG/1.1/DTD/svg11.dtd">
<!-- Generated by graphviz version 2.43.0 (0)
 -->
<!-- Title: pastafarianism Pages: 1 -->
<svg width="1968pt" height="513pt"
 viewBox="0.00 0.00 1968.44 513.48" xmlns="http://www.w3.org/2000/svg" xmlns:xlink="http://www.w3.org/1999/xlink">
<g id="graph0" class="graph" transform="scale(1 1) rotate(0) translate(4 509.48)">
<title>pastafarianism</title>
<polygon fill="white" stroke="transparent" points="-4,4 -4,-509.48 1964.44,-509.48 1964.44,4 -4,4"/>
<!-- selector:
 screw(left_hand, defaultgripper, chairleg1, chairseatthread1) -->
<g id="node1" class="node">
<title>selector:
 screw(left_hand, defaultgripper, chairleg1, chairseatthread1)</title>
<polygon fill="#8deeee" stroke="black" points="1008.75,-453.42 1008.75,-484.05 750.59,-505.71 385.5,-505.71 127.35,-484.05 127.35,-453.42 385.5,-431.76 750.59,-431.76 1008.75,-453.42"/>
<text text-anchor="middle" x="568.05" y="-474.34" font-family="Times,serif" font-size="18.00">selector:</text>
<text text-anchor="middle" x="568.05" y="-454.34" font-family="Times,serif" font-size="18.00"> screw(left_hand, defaultgripper, chairleg1, chairseatthread1)</text>
</g>
<!-- target:
 is_screwed_to(chairleg1, chairseatthread1) -->
<g id="node2" class="node">
<title>target:
 is_screwed_to(chairleg1, chairseatthread1)</title>
<ellipse fill="#ffec8b" stroke="black" cx="277.05" cy="-360" rx="277.1" ry="36"/>
<text text-anchor="middle" x="277.05" y="-365.6" font-family="Times,serif" font-size="18.00">target:</text>
<text text-anchor="middle" x="277.05" y="-345.6" font-family="Times,serif" font-size="18.00"> is_screwed_to(chairleg1, chairseatthread1)</text>
</g>
<!-- selector:
 screw(left_hand, defaultgripper, chairleg1, chairseatthread1)&#45;&gt;target:
 is_screwed_to(chairleg1, chairseatthread1) -->
<g id="edge1" class="edge">
<title>selector:
 screw(left_hand, defaultgripper, chairleg1, chairseatthread1)&#45;&gt;target:
 is_screwed_to(chairleg1, chairseatthread1)</title>
<path fill="none" stroke="black" d="M470.34,-431.9C440.24,-420.86 407.08,-408.69 376.85,-397.6"/>
<polygon fill="black" stroke="black" points="377.73,-394.2 367.14,-394.04 375.32,-400.77 377.73,-394.2"/>
</g>
<!-- sequence:
 screw(left_hand, defaultgripper, chairleg1, chairseatthread1) -->
<g id="node3" class="node">
<title>sequence:
 screw(left_hand, defaultgripper, chairleg1, chairseatthread1)</title>
<polygon fill="#ff7f24" stroke="black" points="1148.05,-396 572.05,-396 572.05,-324 1148.05,-324 1148.05,-396"/>
<text text-anchor="middle" x="860.05" y="-365.6" font-family="Times,serif" font-size="18.00">sequence:</text>
<text text-anchor="middle" x="860.05" y="-345.6" font-family="Times,serif" font-size="18.00"> screw(left_hand, defaultgripper, chairleg1, chairseatthread1)</text>
</g>
<!-- selector:
 screw(left_hand, defaultgripper, chairleg1, chairseatthread1)&#45;&gt;sequence:
 screw(left_hand, defaultgripper, chairleg1, chairseatthread1) -->
<g id="edge2" class="edge">
<title>selector:
 screw(left_hand, defaultgripper, chairleg1, chairseatthread1)&#45;&gt;sequence:
 screw(left_hand, defaultgripper, chairleg1, chairseatthread1)</title>
<path fill="none" stroke="black" d="M666.09,-431.9C694.52,-421.51 725.68,-410.12 754.55,-399.56"/>
<polygon fill="black" stroke="black" points="756.06,-402.74 764.25,-396.02 753.65,-396.17 756.06,-402.74"/>
</g>
<!-- precondition:
 hold(left_hand, defaultgripper) -->
<g id="node4" class="node">
<title>precondition:
 hold(left_hand, defaultgripper)</title>
<ellipse fill="#ffec8b" stroke="black" cx="329.05" cy="-252" rx="202.68" ry="36"/>
<text text-anchor="middle" x="329.05" y="-257.6" font-family="Times,serif" font-size="18.00">precondition:</text>
<text text-anchor="middle" x="329.05" y="-237.6" font-family="Times,serif" font-size="18.00"> hold(left_hand, defaultgripper)</text>
</g>
<!-- sequence:
 screw(left_hand, defaultgripper, chairleg1, chairseatthread1)&#45;&gt;precondition:
 hold(left_hand, defaultgripper) -->
<g id="edge3" class="edge">
<title>sequence:
 screw(left_hand, defaultgripper, chairleg1, chairseatthread1)&#45;&gt;precondition:
 hold(left_hand, defaultgripper)</title>
<path fill="none" stroke="black" d="M684.71,-324C615.46,-310.17 536.93,-294.5 471.3,-281.4"/>
<polygon fill="black" stroke="black" points="471.79,-277.93 461.3,-279.4 470.42,-284.79 471.79,-277.93"/>
</g>
<!-- selector:
 pick_up(left_hand, defaultgripper, chairleg1) -->
<g id="node5" class="node">
<title>selector:
 pick_up(left_hand, defaultgripper, chairleg1)</title>
<polygon fill="#8deeee" stroke="black" points="1170.13,-237.09 1170.13,-266.91 988.49,-288 731.61,-288 549.97,-266.91 549.97,-237.09 731.61,-216 988.49,-216 1170.13,-237.09"/>
<text text-anchor="middle" x="860.05" y="-257.6" font-family="Times,serif" font-size="18.00">selector:</text>
<text text-anchor="middle" x="860.05" y="-237.6" font-family="Times,serif" font-size="18.00"> pick_up(left_hand, defaultgripper, chairleg1)</text>
</g>
<!-- sequence:
 screw(left_hand, defaultgripper, chairleg1, chairseatthread1)&#45;&gt;selector:
 pick_up(left_hand, defaultgripper, chairleg1) -->
<g id="edge4" class="edge">
<title>sequence:
 screw(left_hand, defaultgripper, chairleg1, chairseatthread1)&#45;&gt;selector:
 pick_up(left_hand, defaultgripper, chairleg1)</title>
<path fill="none" stroke="black" d="M860.05,-324C860.05,-315.85 860.05,-307.06 860.05,-298.54"/>
<polygon fill="black" stroke="black" points="863.55,-298.33 860.05,-288.33 856.55,-298.33 863.55,-298.33"/>
</g>
<!-- action:
 screw(left_hand, defaultgripper, chairleg1, chairseatthread1) -->
<g id="node11" class="node">
<title>action:
 screw(left_hand, defaultgripper, chairleg1, chairseatthread1)</title>
<ellipse fill="lightgreen" stroke="black" cx="1574.05" cy="-252" rx="386.29" ry="36"/>
<text text-anchor="middle" x="1574.05" y="-257.6" font-family="Times,serif" font-size="18.00">action:</text>
<text text-anchor="middle" x="1574.05" y="-237.6" font-family="Times,serif" font-size="18.00"> screw(left_hand, defaultgripper, chairleg1, chairseatthread1)</text>
</g>
<!-- sequence:
 screw(left_hand, defaultgripper, chairleg1, chairseatthread1)&#45;&gt;action:
 screw(left_hand, defaultgripper, chairleg1, chairseatthread1) -->
<g id="edge10" class="edge">
<title>sequence:
 screw(left_hand, defaultgripper, chairleg1, chairseatthread1)&#45;&gt;action:
 screw(left_hand, defaultgripper, chairleg1, chairseatthread1)</title>
<path fill="none" stroke="black" d="M1095.82,-324C1182.27,-311.16 1279.48,-296.73 1363.56,-284.25"/>
<polygon fill="black" stroke="black" points="1364.11,-287.71 1373.49,-282.77 1363.08,-280.78 1364.11,-287.71"/>
</g>
<!-- target:
 hold(defaultgripper, chairleg1) -->
<g id="node6" class="node">
<title>target:
 hold(defaultgripper, chairleg1)</title>
<ellipse fill="#ffec8b" stroke="black" cx="644.05" cy="-144" rx="201.49" ry="36"/>
<text text-anchor="middle" x="644.05" y="-149.6" font-family="Times,serif" font-size="18.00">target:</text>
<text text-anchor="middle" x="644.05" y="-129.6" font-family="Times,serif" font-size="18.00"> hold(defaultgripper, chairleg1)</text>
</g>
<!-- selector:
 pick_up(left_hand, defaultgripper, chairleg1)&#45;&gt;target:
 hold(defaultgripper, chairleg1) -->
<g id="edge5" class="edge">
<title>selector:
 pick_up(left_hand, defaultgripper, chairleg1)&#45;&gt;target:
 hold(defaultgripper, chairleg1)</title>
<path fill="none" stroke="black" d="M788.72,-216C766.8,-205.24 742.59,-193.36 720.34,-182.44"/>
<polygon fill="black" stroke="black" points="721.79,-179.25 711.27,-177.99 718.71,-185.54 721.79,-179.25"/>
</g>
<!-- sequence:
 pick_up(left_hand, defaultgripper, chairleg1) -->
<g id="node7" class="node">
<title>sequence:
 pick_up(left_hand, defaultgripper, chairleg1)</title>
<polygon fill="#ff7f24" stroke="black" points="1290.55,-180 863.55,-180 863.55,-108 1290.55,-108 1290.55,-180"/>
<text text-anchor="middle" x="1077.05" y="-149.6" font-family="Times,serif" font-size="18.00">sequence:</text>
<text text-anchor="middle" x="1077.05" y="-129.6" font-family="Times,serif" font-size="18.00"> pick_up(left_hand, defaultgripper, chairleg1)</text>
</g>
<!-- selector:
 pick_up(left_hand, defaultgripper, chairleg1)&#45;&gt;sequence:
 pick_up(left_hand, defaultgripper, chairleg1) -->
<g id="edge6" class="edge">
<title>selector:
 pick_up(left_hand, defaultgripper, chairleg1)&#45;&gt;sequence:
 pick_up(left_hand, defaultgripper, chairleg1)</title>
<path fill="none" stroke="black" d="M931.7,-216C952.24,-205.96 974.78,-194.95 995.85,-184.66"/>
<polygon fill="black" stroke="black" points="997.65,-187.68 1005.1,-180.15 994.58,-181.39 997.65,-187.68"/>
</g>
<!-- precondition:
 is_empty(defaultgripper) -->
<g id="node8" class="node">
<title>precondition:
 is_empty(defaultgripper)</title>
<ellipse fill="#ffec8b" stroke="black" cx="679.05" cy="-36" rx="166.23" ry="36"/>
<text text-anchor="middle" x="679.05" y="-41.6" font-family="Times,serif" font-size="18.00">precondition:</text>
<text text-anchor="middle" x="679.05" y="-21.6" font-family="Times,serif" font-size="18.00"> is_empty(defaultgripper)</text>
</g>
<!-- sequence:
 pick_up(left_hand, defaultgripper, chairleg1)&#45;&gt;precondition:
 is_empty(defaultgripper) -->
<g id="edge7" class="edge">
<title>sequence:
 pick_up(left_hand, defaultgripper, chairleg1)&#45;&gt;precondition:
 is_empty(defaultgripper)</title>
<path fill="none" stroke="black" d="M945.63,-108C895.85,-94.74 839.66,-79.78 791.76,-67.02"/>
<polygon fill="black" stroke="black" points="792.54,-63.6 781.98,-64.41 790.74,-70.37 792.54,-63.6"/>
</g>
<!-- &quot;precondition:\n hold(left_hand, defaultgripper)&quot;* -->
<g id="node9" class="node">
<title>&quot;precondition:\n hold(left_hand, defaultgripper)&quot;*</title>
<ellipse fill="#ffec8b" stroke="black" cx="1077.05" cy="-36" rx="213.98" ry="36"/>
<text text-anchor="middle" x="1077.05" y="-41.6" font-family="Times,serif" font-size="18.00">&quot;precondition:</text>
<text text-anchor="middle" x="1077.05" y="-21.6" font-family="Times,serif" font-size="18.00"> hold(left_hand, defaultgripper)&quot;*</text>
</g>
<!-- sequence:
 pick_up(left_hand, defaultgripper, chairleg1)&#45;&gt;&quot;precondition:\n hold(left_hand, defaultgripper)&quot;* -->
<g id="edge8" class="edge">
<title>sequence:
 pick_up(left_hand, defaultgripper, chairleg1)&#45;&gt;&quot;precondition:\n hold(left_hand, defaultgripper)&quot;*</title>
<path fill="none" stroke="black" d="M1077.05,-108C1077.05,-99.85 1077.05,-91.06 1077.05,-82.54"/>
<polygon fill="black" stroke="black" points="1080.55,-82.33 1077.05,-72.33 1073.55,-82.33 1080.55,-82.33"/>
</g>
<!-- action:
 pick_up(left_hand, defaultgripper, chairleg1) -->
<g id="node10" class="node">
<title>action:
 pick_up(left_hand, defaultgripper, chairleg1)</title>
<ellipse fill="lightgreen" stroke="black" cx="1595.05" cy="-36" rx="286.38" ry="36"/>
<text text-anchor="middle" x="1595.05" y="-41.6" font-family="Times,serif" font-size="18.00">action:</text>
<text text-anchor="middle" x="1595.05" y="-21.6" font-family="Times,serif" font-size="18.00"> pick_up(left_hand, defaultgripper, chairleg1)</text>
</g>
<!-- sequence:
 pick_up(left_hand, defaultgripper, chairleg1)&#45;&gt;action:
 pick_up(left_hand, defaultgripper, chairleg1) -->
<g id="edge9" class="edge">
<title>sequence:
 pick_up(left_hand, defaultgripper, chairleg1)&#45;&gt;action:
 pick_up(left_hand, defaultgripper, chairleg1)</title>
<path fill="none" stroke="black" d="M1248.1,-108C1309.51,-95.43 1378.41,-81.33 1438.53,-69.03"/>
<polygon fill="black" stroke="black" points="1439.39,-72.43 1448.48,-66.99 1437.98,-65.57 1439.39,-72.43"/>
</g>
</g>
</svg>
