<?xml version="1.0" encoding="UTF-8" standalone="no"?>
<!DOCTYPE svg PUBLIC "-//W3C//DTD SVG 1.1//EN"
 "http://www.w3.org/Graphics/SVG/1.1/DTD/svg11.dtd">
<!-- Generated by graphviz version 2.43.0 (0)
 -->
<!-- Title: pastafarianism Pages: 1 -->
<svg width="3241pt" height="716pt"
 viewBox="0.00 0.00 3240.51 715.95" xmlns="http://www.w3.org/2000/svg" xmlns:xlink="http://www.w3.org/1999/xlink">
<g id="graph0" class="graph" transform="scale(1 1) rotate(0) translate(4 711.95)">
<title>pastafarianism</title>
<polygon fill="white" stroke="transparent" points="-4,4 -4,-711.95 3236.51,-711.95 3236.51,4 -4,4"/>
<!-- selector:
 insert(left_hand, defaultgripper, shaft3, gearbase_hole3) -->
<g id="node1" class="node">
<title>selector:
 insert(left_hand, defaultgripper, shaft3, gearbase_hole3)</title>
<polygon fill="#8deeee" stroke="black" points="1751.96,-655.9 1751.96,-686.53 1513.03,-708.19 1175.13,-708.19 936.2,-686.53 936.2,-655.9 1175.13,-634.24 1513.03,-634.24 1751.96,-655.9"/>
<text text-anchor="middle" x="1344.08" y="-676.82" font-family="Times,serif" font-size="18.00">selector:</text>
<text text-anchor="middle" x="1344.08" y="-656.82" font-family="Times,serif" font-size="18.00"> insert(left_hand, defaultgripper, shaft3, gearbase_hole3)</text>
</g>
<!-- target:
 is_inserted_to(shaft3, gearbase_hole3) -->
<g id="node2" class="node">
<title>target:
 is_inserted_to(shaft3, gearbase_hole3)</title>
<ellipse fill="#ffec8b" stroke="black" cx="1071.08" cy="-564.54" rx="261.76" ry="33.88"/>
<text text-anchor="middle" x="1071.08" y="-570.14" font-family="Times,serif" font-size="18.00">target:</text>
<text text-anchor="middle" x="1071.08" y="-550.14" font-family="Times,serif" font-size="18.00"> is_inserted_to(shaft3, gearbase_hole3)</text>
</g>
<!-- selector:
 insert(left_hand, defaultgripper, shaft3, gearbase_hole3)&#45;&gt;target:
 is_inserted_to(shaft3, gearbase_hole3) -->
<g id="edge1" class="edge">
<title>selector:
 insert(left_hand, defaultgripper, shaft3, gearbase_hole3)&#45;&gt;target:
 is_inserted_to(shaft3, gearbase_hole3)</title>
<path fill="none" stroke="black" d="M1250.51,-634.34C1221.95,-623.39 1190.59,-611.36 1162.18,-600.47"/>
<polygon fill="black" stroke="black" points="1163.26,-597.14 1152.67,-596.82 1160.76,-603.67 1163.26,-597.14"/>
</g>
<!-- sequence:
 insert(left_hand, defaultgripper, shaft3, gearbase_hole3) -->
<g id="node3" class="node">
<title>sequence:
 insert(left_hand, defaultgripper, shaft3, gearbase_hole3)</title>
<polygon fill="#ff7f24" stroke="black" points="1883.58,-588.54 1350.58,-588.54 1350.58,-540.54 1883.58,-540.54 1883.58,-588.54"/>
<text text-anchor="middle" x="1617.08" y="-570.14" font-family="Times,serif" font-size="18.00">sequence:</text>
<text text-anchor="middle" x="1617.08" y="-550.14" font-family="Times,serif" font-size="18.00"> insert(left_hand, defaultgripper, shaft3, gearbase_hole3)</text>
</g>
<!-- selector:
 insert(left_hand, defaultgripper, shaft3, gearbase_hole3)&#45;&gt;sequence:
 insert(left_hand, defaultgripper, shaft3, gearbase_hole3) -->
<g id="edge2" class="edge">
<title>selector:
 insert(left_hand, defaultgripper, shaft3, gearbase_hole3)&#45;&gt;sequence:
 insert(left_hand, defaultgripper, shaft3, gearbase_hole3)</title>
<path fill="none" stroke="black" d="M1437.65,-634.34C1473.61,-620.55 1514.01,-605.06 1547.35,-592.28"/>
<polygon fill="black" stroke="black" points="1548.92,-595.42 1557,-588.58 1546.41,-588.89 1548.92,-595.42"/>
</g>
<!-- selector:
 change_tool(left_hand, parallelgripper, defaultgripper) -->
<g id="node4" class="node">
<title>selector:
 change_tool(left_hand, parallelgripper, defaultgripper)</title>
<polygon fill="#8deeee" stroke="black" points="1208.94,-442.54 1208.94,-473.18 977.64,-494.84 650.53,-494.84 419.22,-473.18 419.22,-442.54 650.53,-420.88 977.64,-420.88 1208.94,-442.54"/>
<text text-anchor="middle" x="814.08" y="-463.46" font-family="Times,serif" font-size="18.00">selector:</text>
<text text-anchor="middle" x="814.08" y="-443.46" font-family="Times,serif" font-size="18.00"> change_tool(left_hand, parallelgripper, defaultgripper)</text>
</g>
<!-- sequence:
 insert(left_hand, defaultgripper, shaft3, gearbase_hole3)&#45;&gt;selector:
 change_tool(left_hand, parallelgripper, defaultgripper) -->
<g id="edge3" class="edge">
<title>sequence:
 insert(left_hand, defaultgripper, shaft3, gearbase_hole3)&#45;&gt;selector:
 change_tool(left_hand, parallelgripper, defaultgripper)</title>
<path fill="none" stroke="black" d="M1440.36,-540.5C1326.73,-525.69 1177.65,-506.25 1053.45,-490.06"/>
<polygon fill="black" stroke="black" points="1053.78,-486.58 1043.41,-488.76 1052.88,-493.52 1053.78,-486.58"/>
</g>
<!-- selector:
 pick_up(left_hand, defaultgripper, shaft3) -->
<g id="node15" class="node">
<title>selector:
 pick_up(left_hand, defaultgripper, shaft3)</title>
<polygon fill="#8deeee" stroke="black" points="1921.81,-442.54 1921.81,-473.18 1743.31,-494.84 1490.86,-494.84 1312.35,-473.18 1312.35,-442.54 1490.86,-420.88 1743.31,-420.88 1921.81,-442.54"/>
<text text-anchor="middle" x="1617.08" y="-463.46" font-family="Times,serif" font-size="18.00">selector:</text>
<text text-anchor="middle" x="1617.08" y="-443.46" font-family="Times,serif" font-size="18.00"> pick_up(left_hand, defaultgripper, shaft3)</text>
</g>
<!-- sequence:
 insert(left_hand, defaultgripper, shaft3, gearbase_hole3)&#45;&gt;selector:
 pick_up(left_hand, defaultgripper, shaft3) -->
<g id="edge14" class="edge">
<title>sequence:
 insert(left_hand, defaultgripper, shaft3, gearbase_hole3)&#45;&gt;selector:
 pick_up(left_hand, defaultgripper, shaft3)</title>
<path fill="none" stroke="black" d="M1617.08,-540.31C1617.08,-529.86 1617.08,-517.15 1617.08,-504.9"/>
<polygon fill="black" stroke="black" points="1620.58,-504.78 1617.08,-494.78 1613.58,-504.78 1620.58,-504.78"/>
</g>
<!-- action:
 insert(left_hand, defaultgripper, shaft3, gearbase_hole3) -->
<g id="node21" class="node">
<title>action:
 insert(left_hand, defaultgripper, shaft3, gearbase_hole3)</title>
<ellipse fill="lightgreen" stroke="black" cx="2317.08" cy="-457.86" rx="376.78" ry="33.88"/>
<text text-anchor="middle" x="2317.08" y="-463.46" font-family="Times,serif" font-size="18.00">action:</text>
<text text-anchor="middle" x="2317.08" y="-443.46" font-family="Times,serif" font-size="18.00"> insert(left_hand, defaultgripper, shaft3, gearbase_hole3)</text>
</g>
<!-- sequence:
 insert(left_hand, defaultgripper, shaft3, gearbase_hole3)&#45;&gt;action:
 insert(left_hand, defaultgripper, shaft3, gearbase_hole3) -->
<g id="edge20" class="edge">
<title>sequence:
 insert(left_hand, defaultgripper, shaft3, gearbase_hole3)&#45;&gt;action:
 insert(left_hand, defaultgripper, shaft3, gearbase_hole3)</title>
<path fill="none" stroke="black" d="M1771.13,-540.5C1873.02,-525.27 2007.59,-505.14 2117.64,-488.68"/>
<polygon fill="black" stroke="black" points="2118.16,-492.15 2127.53,-487.21 2117.12,-485.22 2118.16,-492.15"/>
</g>
<!-- target:
 hold(left_hand, defaultgripper) -->
<g id="node5" class="node">
<title>target:
 hold(left_hand, defaultgripper)</title>
<ellipse fill="#ffec8b" stroke="black" cx="324.08" cy="-351.18" rx="213.59" ry="33.88"/>
<text text-anchor="middle" x="324.08" y="-356.78" font-family="Times,serif" font-size="18.00">target:</text>
<text text-anchor="middle" x="324.08" y="-336.78" font-family="Times,serif" font-size="18.00"> hold(left_hand, defaultgripper)</text>
</g>
<!-- selector:
 change_tool(left_hand, parallelgripper, defaultgripper)&#45;&gt;target:
 hold(left_hand, defaultgripper) -->
<g id="edge4" class="edge">
<title>selector:
 change_tool(left_hand, parallelgripper, defaultgripper)&#45;&gt;target:
 hold(left_hand, defaultgripper)</title>
<path fill="none" stroke="black" d="M646.82,-421.13C585.49,-408.03 516.92,-393.38 458.8,-380.96"/>
<polygon fill="black" stroke="black" points="459.33,-377.5 448.82,-378.83 457.87,-384.34 459.33,-377.5"/>
</g>
<!-- sequence:
 change_tool(left_hand, parallelgripper, defaultgripper) -->
<g id="node6" class="node">
<title>sequence:
 change_tool(left_hand, parallelgripper, defaultgripper)</title>
<polygon fill="#ff7f24" stroke="black" points="1072.08,-375.18 556.08,-375.18 556.08,-327.18 1072.08,-327.18 1072.08,-375.18"/>
<text text-anchor="middle" x="814.08" y="-356.78" font-family="Times,serif" font-size="18.00">sequence:</text>
<text text-anchor="middle" x="814.08" y="-336.78" font-family="Times,serif" font-size="18.00"> change_tool(left_hand, parallelgripper, defaultgripper)</text>
</g>
<!-- selector:
 change_tool(left_hand, parallelgripper, defaultgripper)&#45;&gt;sequence:
 change_tool(left_hand, parallelgripper, defaultgripper) -->
<g id="edge5" class="edge">
<title>selector:
 change_tool(left_hand, parallelgripper, defaultgripper)&#45;&gt;sequence:
 change_tool(left_hand, parallelgripper, defaultgripper)</title>
<path fill="none" stroke="black" d="M814.08,-420.84C814.08,-409.45 814.08,-396.92 814.08,-385.72"/>
<polygon fill="black" stroke="black" points="817.58,-385.47 814.08,-375.47 810.58,-385.47 817.58,-385.47"/>
</g>
<!-- precondition:
 hold(left_hand, parallelgripper) -->
<g id="node7" class="node">
<title>precondition:
 hold(left_hand, parallelgripper)</title>
<ellipse fill="#ffec8b" stroke="black" cx="217.08" cy="-244.5" rx="217.16" ry="33.88"/>
<text text-anchor="middle" x="217.08" y="-250.1" font-family="Times,serif" font-size="18.00">precondition:</text>
<text text-anchor="middle" x="217.08" y="-230.1" font-family="Times,serif" font-size="18.00"> hold(left_hand, parallelgripper)</text>
</g>
<!-- sequence:
 change_tool(left_hand, parallelgripper, defaultgripper)&#45;&gt;precondition:
 hold(left_hand, parallelgripper) -->
<g id="edge6" class="edge">
<title>sequence:
 change_tool(left_hand, parallelgripper, defaultgripper)&#45;&gt;precondition:
 hold(left_hand, parallelgripper)</title>
<path fill="none" stroke="black" d="M682.7,-327.14C589.93,-310.88 465.39,-289.04 368.45,-272.04"/>
<polygon fill="black" stroke="black" points="369.02,-268.59 358.56,-270.31 367.81,-275.48 369.02,-268.59"/>
</g>
<!-- selector:
 put_down(left_hand, parallelgripper, gear1) -->
<g id="node8" class="node">
<title>selector:
 put_down(left_hand, parallelgripper, gear1)</title>
<polygon fill="#8deeee" stroke="black" points="1090.4,-229.19 1090.4,-259.82 903.35,-281.48 638.82,-281.48 451.77,-259.82 451.77,-229.19 638.82,-207.53 903.35,-207.53 1090.4,-229.19"/>
<text text-anchor="middle" x="771.08" y="-250.1" font-family="Times,serif" font-size="18.00">selector:</text>
<text text-anchor="middle" x="771.08" y="-230.1" font-family="Times,serif" font-size="18.00"> put_down(left_hand, parallelgripper, gear1)</text>
</g>
<!-- sequence:
 change_tool(left_hand, parallelgripper, defaultgripper)&#45;&gt;selector:
 put_down(left_hand, parallelgripper, gear1) -->
<g id="edge7" class="edge">
<title>sequence:
 change_tool(left_hand, parallelgripper, defaultgripper)&#45;&gt;selector:
 put_down(left_hand, parallelgripper, gear1)</title>
<path fill="none" stroke="black" d="M804.54,-326.95C800.16,-316.29 794.82,-303.28 789.69,-290.81"/>
<polygon fill="black" stroke="black" points="792.87,-289.34 785.84,-281.42 786.4,-292 792.87,-289.34"/>
</g>
<!-- action:
 change_tool(left_hand, parallelgripper, defaultgripper) -->
<g id="node14" class="node">
<title>action:
 change_tool(left_hand, parallelgripper, defaultgripper)</title>
<ellipse fill="lightgreen" stroke="black" cx="1473.08" cy="-244.5" rx="364.73" ry="33.88"/>
<text text-anchor="middle" x="1473.08" y="-250.1" font-family="Times,serif" font-size="18.00">action:</text>
<text text-anchor="middle" x="1473.08" y="-230.1" font-family="Times,serif" font-size="18.00"> change_tool(left_hand, parallelgripper, defaultgripper)</text>
</g>
<!-- sequence:
 change_tool(left_hand, parallelgripper, defaultgripper)&#45;&gt;action:
 change_tool(left_hand, parallelgripper, defaultgripper) -->
<g id="edge13" class="edge">
<title>sequence:
 change_tool(left_hand, parallelgripper, defaultgripper)&#45;&gt;action:
 change_tool(left_hand, parallelgripper, defaultgripper)</title>
<path fill="none" stroke="black" d="M959.11,-327.14C1054.38,-312.01 1180,-292.06 1283.2,-275.66"/>
<polygon fill="black" stroke="black" points="1283.79,-279.11 1293.12,-274.09 1282.69,-272.2 1283.79,-279.11"/>
</g>
<!-- target:
 not hold(parallelgripper, gear1) -->
<g id="node9" class="node">
<title>target:
 not hold(parallelgripper, gear1)</title>
<ellipse fill="#ffec8b" stroke="black" cx="549.08" cy="-137.82" rx="217.58" ry="33.88"/>
<text text-anchor="middle" x="549.08" y="-143.42" font-family="Times,serif" font-size="18.00">target:</text>
<text text-anchor="middle" x="549.08" y="-123.42" font-family="Times,serif" font-size="18.00"> not hold(parallelgripper, gear1)</text>
</g>
<!-- selector:
 put_down(left_hand, parallelgripper, gear1)&#45;&gt;target:
 not hold(parallelgripper, gear1) -->
<g id="edge8" class="edge">
<title>selector:
 put_down(left_hand, parallelgripper, gear1)&#45;&gt;target:
 not hold(parallelgripper, gear1)</title>
<path fill="none" stroke="black" d="M694.99,-207.62C672.38,-196.96 647.61,-185.28 625.01,-174.62"/>
<polygon fill="black" stroke="black" points="626.33,-171.38 615.8,-170.28 623.35,-177.71 626.33,-171.38"/>
</g>
<!-- sequence:
 put_down(left_hand, parallelgripper, gear1) -->
<g id="node10" class="node">
<title>sequence:
 put_down(left_hand, parallelgripper, gear1)</title>
<polygon fill="#ff7f24" stroke="black" points="1201.58,-161.82 784.58,-161.82 784.58,-113.82 1201.58,-113.82 1201.58,-161.82"/>
<text text-anchor="middle" x="993.08" y="-143.42" font-family="Times,serif" font-size="18.00">sequence:</text>
<text text-anchor="middle" x="993.08" y="-123.42" font-family="Times,serif" font-size="18.00"> put_down(left_hand, parallelgripper, gear1)</text>
</g>
<!-- selector:
 put_down(left_hand, parallelgripper, gear1)&#45;&gt;sequence:
 put_down(left_hand, parallelgripper, gear1) -->
<g id="edge9" class="edge">
<title>selector:
 put_down(left_hand, parallelgripper, gear1)&#45;&gt;sequence:
 put_down(left_hand, parallelgripper, gear1)</title>
<path fill="none" stroke="black" d="M847.17,-207.62C875.91,-194.07 908.13,-178.88 934.97,-166.22"/>
<polygon fill="black" stroke="black" points="936.67,-169.29 944.23,-161.86 933.69,-162.96 936.67,-169.29"/>
</g>
<!-- &quot;precondition:\n hold(left_hand, parallelgripper)&quot;* -->
<g id="node11" class="node">
<title>&quot;precondition:\n hold(left_hand, parallelgripper)&quot;*</title>
<ellipse fill="#ffec8b" stroke="black" cx="554.08" cy="-33.94" rx="229.21" ry="33.88"/>
<text text-anchor="middle" x="554.08" y="-39.54" font-family="Times,serif" font-size="18.00">&quot;precondition:</text>
<text text-anchor="middle" x="554.08" y="-19.54" font-family="Times,serif" font-size="18.00"> hold(left_hand, parallelgripper)&quot;*</text>
</g>
<!-- sequence:
 put_down(left_hand, parallelgripper, gear1)&#45;&gt;&quot;precondition:\n hold(left_hand, parallelgripper)&quot;* -->
<g id="edge10" class="edge">
<title>sequence:
 put_down(left_hand, parallelgripper, gear1)&#45;&gt;&quot;precondition:\n hold(left_hand, parallelgripper)&quot;*</title>
<path fill="none" stroke="black" d="M893.74,-113.77C831.78,-99.39 751.37,-80.73 684.33,-65.17"/>
<polygon fill="black" stroke="black" points="685.08,-61.75 674.54,-62.9 683.49,-68.57 685.08,-61.75"/>
</g>
<!-- precondition:
 hold(parallelgripper, gear1) -->
<g id="node12" class="node">
<title>precondition:
 hold(parallelgripper, gear1)</title>
<ellipse fill="#ffec8b" stroke="black" cx="993.08" cy="-33.94" rx="192.17" ry="33.88"/>
<text text-anchor="middle" x="993.08" y="-39.54" font-family="Times,serif" font-size="18.00">precondition:</text>
<text text-anchor="middle" x="993.08" y="-19.54" font-family="Times,serif" font-size="18.00"> hold(parallelgripper, gear1)</text>
</g>
<!-- sequence:
 put_down(left_hand, parallelgripper, gear1)&#45;&gt;precondition:
 hold(parallelgripper, gear1) -->
<g id="edge11" class="edge">
<title>sequence:
 put_down(left_hand, parallelgripper, gear1)&#45;&gt;precondition:
 hold(parallelgripper, gear1)</title>
<path fill="none" stroke="black" d="M993.08,-113.7C993.08,-103.16 993.08,-90.31 993.08,-78.08"/>
<polygon fill="black" stroke="black" points="996.58,-78.01 993.08,-68.01 989.58,-78.01 996.58,-78.01"/>
</g>
<!-- action:
 put_down(left_hand, parallelgripper, gear1) -->
<g id="node13" class="node">
<title>action:
 put_down(left_hand, parallelgripper, gear1)</title>
<ellipse fill="lightgreen" stroke="black" cx="1498.08" cy="-33.94" rx="294.73" ry="33.88"/>
<text text-anchor="middle" x="1498.08" y="-39.54" font-family="Times,serif" font-size="18.00">action:</text>
<text text-anchor="middle" x="1498.08" y="-19.54" font-family="Times,serif" font-size="18.00"> put_down(left_hand, parallelgripper, gear1)</text>
</g>
<!-- sequence:
 put_down(left_hand, parallelgripper, gear1)&#45;&gt;action:
 put_down(left_hand, parallelgripper, gear1) -->
<g id="edge12" class="edge">
<title>sequence:
 put_down(left_hand, parallelgripper, gear1)&#45;&gt;action:
 put_down(left_hand, parallelgripper, gear1)</title>
<path fill="none" stroke="black" d="M1107.36,-113.77C1177.67,-99.58 1268.65,-81.23 1345.12,-65.8"/>
<polygon fill="black" stroke="black" points="1346.22,-69.15 1355.33,-63.74 1344.84,-62.29 1346.22,-69.15"/>
</g>
<!-- target:
 hold(defaultgripper, shaft3) -->
<g id="node16" class="node">
<title>target:
 hold(defaultgripper, shaft3)</title>
<ellipse fill="#ffec8b" stroke="black" cx="1617.08" cy="-351.18" rx="192.17" ry="33.88"/>
<text text-anchor="middle" x="1617.08" y="-356.78" font-family="Times,serif" font-size="18.00">target:</text>
<text text-anchor="middle" x="1617.08" y="-336.78" font-family="Times,serif" font-size="18.00"> hold(defaultgripper, shaft3)</text>
</g>
<!-- selector:
 pick_up(left_hand, defaultgripper, shaft3)&#45;&gt;target:
 hold(defaultgripper, shaft3) -->
<g id="edge15" class="edge">
<title>selector:
 pick_up(left_hand, defaultgripper, shaft3)&#45;&gt;target:
 hold(defaultgripper, shaft3)</title>
<path fill="none" stroke="black" d="M1617.08,-420.84C1617.08,-412.68 1617.08,-403.93 1617.08,-395.51"/>
<polygon fill="black" stroke="black" points="1620.58,-395.46 1617.08,-385.46 1613.58,-395.46 1620.58,-395.46"/>
</g>
<!-- sequence:
 pick_up(left_hand, defaultgripper, shaft3) -->
<g id="node17" class="node">
<title>sequence:
 pick_up(left_hand, defaultgripper, shaft3)</title>
<polygon fill="#ff7f24" stroke="black" points="2471.08,-375.18 2073.08,-375.18 2073.08,-327.18 2471.08,-327.18 2471.08,-375.18"/>
<text text-anchor="middle" x="2272.08" y="-356.78" font-family="Times,serif" font-size="18.00">sequence:</text>
<text text-anchor="middle" x="2272.08" y="-336.78" font-family="Times,serif" font-size="18.00"> pick_up(left_hand, defaultgripper, shaft3)</text>
</g>
<!-- selector:
 pick_up(left_hand, defaultgripper, shaft3)&#45;&gt;sequence:
 pick_up(left_hand, defaultgripper, shaft3) -->
<g id="edge16" class="edge">
<title>selector:
 pick_up(left_hand, defaultgripper, shaft3)&#45;&gt;sequence:
 pick_up(left_hand, defaultgripper, shaft3)</title>
<path fill="none" stroke="black" d="M1799.54,-427.7C1899.71,-411.69 2022.57,-392.06 2117.91,-376.82"/>
<polygon fill="black" stroke="black" points="2118.6,-380.25 2127.92,-375.22 2117.49,-373.34 2118.6,-380.25"/>
</g>
<!-- precondition:
 hold(left_hand, defaultgripper) -->
<g id="node18" class="node">
<title>precondition:
 hold(left_hand, defaultgripper)</title>
<ellipse fill="#ffec8b" stroke="black" cx="2069.08" cy="-244.5" rx="213.59" ry="33.88"/>
<text text-anchor="middle" x="2069.08" y="-250.1" font-family="Times,serif" font-size="18.00">precondition:</text>
<text text-anchor="middle" x="2069.08" y="-230.1" font-family="Times,serif" font-size="18.00"> hold(left_hand, defaultgripper)</text>
</g>
<!-- sequence:
 pick_up(left_hand, defaultgripper, shaft3)&#45;&gt;precondition:
 hold(left_hand, defaultgripper) -->
<g id="edge17" class="edge">
<title>sequence:
 pick_up(left_hand, defaultgripper, shaft3)&#45;&gt;precondition:
 hold(left_hand, defaultgripper)</title>
<path fill="none" stroke="black" d="M2227.28,-327.08C2201.46,-313.77 2168.44,-296.74 2139.25,-281.68"/>
<polygon fill="black" stroke="black" points="2140.81,-278.55 2130.32,-277.08 2137.61,-284.78 2140.81,-278.55"/>
</g>
<!-- precondition:
 is_empty(defaultgripper) -->
<g id="node19" class="node">
<title>precondition:
 is_empty(defaultgripper)</title>
<ellipse fill="#ffec8b" stroke="black" cx="2476.08" cy="-244.5" rx="175.23" ry="33.88"/>
<text text-anchor="middle" x="2476.08" y="-250.1" font-family="Times,serif" font-size="18.00">precondition:</text>
<text text-anchor="middle" x="2476.08" y="-230.1" font-family="Times,serif" font-size="18.00"> is_empty(defaultgripper)</text>
</g>
<!-- sequence:
 pick_up(left_hand, defaultgripper, shaft3)&#45;&gt;precondition:
 is_empty(defaultgripper) -->
<g id="edge18" class="edge">
<title>sequence:
 pick_up(left_hand, defaultgripper, shaft3)&#45;&gt;precondition:
 is_empty(defaultgripper)</title>
<path fill="none" stroke="black" d="M2317.1,-327.08C2343.37,-313.6 2377.05,-296.32 2406.65,-281.13"/>
<polygon fill="black" stroke="black" points="2408.39,-284.17 2415.69,-276.49 2405.2,-277.94 2408.39,-284.17"/>
</g>
<!-- action:
 pick_up(left_hand, defaultgripper, shaft3) -->
<g id="node20" class="node">
<title>action:
 pick_up(left_hand, defaultgripper, shaft3)</title>
<ellipse fill="lightgreen" stroke="black" cx="2951.08" cy="-244.5" rx="281.36" ry="33.88"/>
<text text-anchor="middle" x="2951.08" y="-250.1" font-family="Times,serif" font-size="18.00">action:</text>
<text text-anchor="middle" x="2951.08" y="-230.1" font-family="Times,serif" font-size="18.00"> pick_up(left_hand, defaultgripper, shaft3)</text>
</g>
<!-- sequence:
 pick_up(left_hand, defaultgripper, shaft3)&#45;&gt;action:
 pick_up(left_hand, defaultgripper, shaft3) -->
<g id="edge19" class="edge">
<title>sequence:
 pick_up(left_hand, defaultgripper, shaft3)&#45;&gt;action:
 pick_up(left_hand, defaultgripper, shaft3)</title>
<path fill="none" stroke="black" d="M2421.51,-327.14C2524.69,-311.24 2662.43,-290 2771.57,-273.18"/>
<polygon fill="black" stroke="black" points="2772.36,-276.6 2781.71,-271.61 2771.29,-269.68 2772.36,-276.6"/>
</g>
</g>
</svg>
