<?xml version="1.0" encoding="UTF-8" standalone="no"?>
<!DOCTYPE svg PUBLIC "-//W3C//DTD SVG 1.1//EN"
 "http://www.w3.org/Graphics/SVG/1.1/DTD/svg11.dtd">
<!-- Generated by graphviz version 2.43.0 (0)
 -->
<!-- Title: pastafarianism Pages: 1 -->
<svg width="2035pt" height="503pt"
 viewBox="0.00 0.00 2035.43 502.60" xmlns="http://www.w3.org/2000/svg" xmlns:xlink="http://www.w3.org/1999/xlink">
<g id="graph0" class="graph" transform="scale(1 1) rotate(0) translate(4 498.6)">
<title>pastafarianism</title>
<polygon fill="white" stroke="transparent" points="-4,4 -4,-498.6 2031.43,-498.6 2031.43,4 -4,4"/>
<!-- selector:
 insert(left_hand, defaultgripper, shaft3, gearbase_hole3) -->
<g id="node1" class="node">
<title>selector:
 insert(left_hand, defaultgripper, shaft3, gearbase_hole3)</title>
<polygon fill="#8deeee" stroke="black" points="1198.43,-442.54 1198.43,-473.18 959.5,-494.84 621.6,-494.84 382.67,-473.18 382.67,-442.54 621.6,-420.88 959.5,-420.88 1198.43,-442.54"/>
<text text-anchor="middle" x="790.55" y="-463.46" font-family="Times,serif" font-size="18.00">selector:</text>
<text text-anchor="middle" x="790.55" y="-443.46" font-family="Times,serif" font-size="18.00"> insert(left_hand, defaultgripper, shaft3, gearbase_hole3)</text>
</g>
<!-- target:
 is_inserted_to(shaft3, gearbase_hole3) -->
<g id="node2" class="node">
<title>target:
 is_inserted_to(shaft3, gearbase_hole3)</title>
<ellipse fill="#ffec8b" stroke="black" cx="517.55" cy="-351.18" rx="261.76" ry="33.88"/>
<text text-anchor="middle" x="517.55" y="-356.78" font-family="Times,serif" font-size="18.00">target:</text>
<text text-anchor="middle" x="517.55" y="-336.78" font-family="Times,serif" font-size="18.00"> is_inserted_to(shaft3, gearbase_hole3)</text>
</g>
<!-- selector:
 insert(left_hand, defaultgripper, shaft3, gearbase_hole3)&#45;&gt;target:
 is_inserted_to(shaft3, gearbase_hole3) -->
<g id="edge1" class="edge">
<title>selector:
 insert(left_hand, defaultgripper, shaft3, gearbase_hole3)&#45;&gt;target:
 is_inserted_to(shaft3, gearbase_hole3)</title>
<path fill="none" stroke="black" d="M696.98,-420.98C668.41,-410.03 637.05,-398 608.65,-387.11"/>
<polygon fill="black" stroke="black" points="609.73,-383.78 599.14,-383.47 607.22,-390.31 609.73,-383.78"/>
</g>
<!-- sequence:
 insert(left_hand, defaultgripper, shaft3, gearbase_hole3) -->
<g id="node3" class="node">
<title>sequence:
 insert(left_hand, defaultgripper, shaft3, gearbase_hole3)</title>
<polygon fill="#ff7f24" stroke="black" points="1330.05,-375.18 797.05,-375.18 797.05,-327.18 1330.05,-327.18 1330.05,-375.18"/>
<text text-anchor="middle" x="1063.55" y="-356.78" font-family="Times,serif" font-size="18.00">sequence:</text>
<text text-anchor="middle" x="1063.55" y="-336.78" font-family="Times,serif" font-size="18.00"> insert(left_hand, defaultgripper, shaft3, gearbase_hole3)</text>
</g>
<!-- selector:
 insert(left_hand, defaultgripper, shaft3, gearbase_hole3)&#45;&gt;sequence:
 insert(left_hand, defaultgripper, shaft3, gearbase_hole3) -->
<g id="edge2" class="edge">
<title>selector:
 insert(left_hand, defaultgripper, shaft3, gearbase_hole3)&#45;&gt;sequence:
 insert(left_hand, defaultgripper, shaft3, gearbase_hole3)</title>
<path fill="none" stroke="black" d="M884.12,-420.98C920.08,-407.19 960.47,-391.7 993.81,-378.92"/>
<polygon fill="black" stroke="black" points="995.38,-382.07 1003.47,-375.22 992.88,-375.53 995.38,-382.07"/>
</g>
<!-- selector:
 change_tool(left_hand, parallelgripper, defaultgripper) -->
<g id="node4" class="node">
<title>selector:
 change_tool(left_hand, parallelgripper, defaultgripper)</title>
<polygon fill="#8deeee" stroke="black" points="853.4,-229.19 853.4,-259.82 622.1,-281.48 294.99,-281.48 63.69,-259.82 63.69,-229.19 294.99,-207.53 622.1,-207.53 853.4,-229.19"/>
<text text-anchor="middle" x="458.55" y="-250.1" font-family="Times,serif" font-size="18.00">selector:</text>
<text text-anchor="middle" x="458.55" y="-230.1" font-family="Times,serif" font-size="18.00"> change_tool(left_hand, parallelgripper, defaultgripper)</text>
</g>
<!-- sequence:
 insert(left_hand, defaultgripper, shaft3, gearbase_hole3)&#45;&gt;selector:
 change_tool(left_hand, parallelgripper, defaultgripper) -->
<g id="edge3" class="edge">
<title>sequence:
 insert(left_hand, defaultgripper, shaft3, gearbase_hole3)&#45;&gt;selector:
 change_tool(left_hand, parallelgripper, defaultgripper)</title>
<path fill="none" stroke="black" d="M930.4,-327.14C851.43,-313.48 749.74,-295.88 660.99,-280.53"/>
<polygon fill="black" stroke="black" points="661.52,-277.07 651.07,-278.81 660.32,-283.97 661.52,-277.07"/>
</g>
<!-- precondition:
 hold(defaultgripper, shaft3) -->
<g id="node10" class="node">
<title>precondition:
 hold(defaultgripper, shaft3)</title>
<ellipse fill="#ffec8b" stroke="black" cx="1063.55" cy="-244.5" rx="192.17" ry="33.88"/>
<text text-anchor="middle" x="1063.55" y="-250.1" font-family="Times,serif" font-size="18.00">precondition:</text>
<text text-anchor="middle" x="1063.55" y="-230.1" font-family="Times,serif" font-size="18.00"> hold(defaultgripper, shaft3)</text>
</g>
<!-- sequence:
 insert(left_hand, defaultgripper, shaft3, gearbase_hole3)&#45;&gt;precondition:
 hold(defaultgripper, shaft3) -->
<g id="edge9" class="edge">
<title>sequence:
 insert(left_hand, defaultgripper, shaft3, gearbase_hole3)&#45;&gt;precondition:
 hold(defaultgripper, shaft3)</title>
<path fill="none" stroke="black" d="M1063.55,-326.95C1063.55,-315.73 1063.55,-301.9 1063.55,-288.84"/>
<polygon fill="black" stroke="black" points="1067.05,-288.6 1063.55,-278.6 1060.05,-288.6 1067.05,-288.6"/>
</g>
<!-- action:
 insert(left_hand, defaultgripper, shaft3, gearbase_hole3) -->
<g id="node11" class="node">
<title>action:
 insert(left_hand, defaultgripper, shaft3, gearbase_hole3)</title>
<ellipse fill="lightgreen" stroke="black" cx="1650.55" cy="-244.5" rx="376.78" ry="33.88"/>
<text text-anchor="middle" x="1650.55" y="-250.1" font-family="Times,serif" font-size="18.00">action:</text>
<text text-anchor="middle" x="1650.55" y="-230.1" font-family="Times,serif" font-size="18.00"> insert(left_hand, defaultgripper, shaft3, gearbase_hole3)</text>
</g>
<!-- sequence:
 insert(left_hand, defaultgripper, shaft3, gearbase_hole3)&#45;&gt;action:
 insert(left_hand, defaultgripper, shaft3, gearbase_hole3) -->
<g id="edge10" class="edge">
<title>sequence:
 insert(left_hand, defaultgripper, shaft3, gearbase_hole3)&#45;&gt;action:
 insert(left_hand, defaultgripper, shaft3, gearbase_hole3)</title>
<path fill="none" stroke="black" d="M1192.73,-327.14C1275.61,-312.36 1384.3,-292.98 1474.97,-276.81"/>
<polygon fill="black" stroke="black" points="1475.86,-280.21 1485.09,-275.01 1474.63,-273.32 1475.86,-280.21"/>
</g>
<!-- target:
 hold(left_hand, defaultgripper) -->
<g id="node5" class="node">
<title>target:
 hold(left_hand, defaultgripper)</title>
<ellipse fill="#ffec8b" stroke="black" cx="213.55" cy="-137.82" rx="213.59" ry="33.88"/>
<text text-anchor="middle" x="213.55" y="-143.42" font-family="Times,serif" font-size="18.00">target:</text>
<text text-anchor="middle" x="213.55" y="-123.42" font-family="Times,serif" font-size="18.00"> hold(left_hand, defaultgripper)</text>
</g>
<!-- selector:
 change_tool(left_hand, parallelgripper, defaultgripper)&#45;&gt;target:
 hold(left_hand, defaultgripper) -->
<g id="edge4" class="edge">
<title>selector:
 change_tool(left_hand, parallelgripper, defaultgripper)&#45;&gt;target:
 hold(left_hand, defaultgripper)</title>
<path fill="none" stroke="black" d="M374.57,-207.62C348.91,-196.66 320.74,-184.62 295.23,-173.73"/>
<polygon fill="black" stroke="black" points="296.54,-170.48 285.97,-169.77 293.79,-176.91 296.54,-170.48"/>
</g>
<!-- sequence:
 change_tool(left_hand, parallelgripper, defaultgripper) -->
<g id="node6" class="node">
<title>sequence:
 change_tool(left_hand, parallelgripper, defaultgripper)</title>
<polygon fill="#ff7f24" stroke="black" points="961.55,-161.82 445.55,-161.82 445.55,-113.82 961.55,-113.82 961.55,-161.82"/>
<text text-anchor="middle" x="703.55" y="-143.42" font-family="Times,serif" font-size="18.00">sequence:</text>
<text text-anchor="middle" x="703.55" y="-123.42" font-family="Times,serif" font-size="18.00"> change_tool(left_hand, parallelgripper, defaultgripper)</text>
</g>
<!-- selector:
 change_tool(left_hand, parallelgripper, defaultgripper)&#45;&gt;sequence:
 change_tool(left_hand, parallelgripper, defaultgripper) -->
<g id="edge5" class="edge">
<title>selector:
 change_tool(left_hand, parallelgripper, defaultgripper)&#45;&gt;sequence:
 change_tool(left_hand, parallelgripper, defaultgripper)</title>
<path fill="none" stroke="black" d="M542.52,-207.62C574.52,-193.95 610.42,-178.61 640.19,-165.89"/>
<polygon fill="black" stroke="black" points="641.81,-169.01 649.63,-161.86 639.06,-162.57 641.81,-169.01"/>
</g>
<!-- precondition:
 hold(left_hand, parallelgripper) -->
<g id="node7" class="node">
<title>precondition:
 hold(left_hand, parallelgripper)</title>
<ellipse fill="#ffec8b" stroke="black" cx="289.55" cy="-33.94" rx="217.16" ry="33.88"/>
<text text-anchor="middle" x="289.55" y="-39.54" font-family="Times,serif" font-size="18.00">precondition:</text>
<text text-anchor="middle" x="289.55" y="-19.54" font-family="Times,serif" font-size="18.00"> hold(left_hand, parallelgripper)</text>
</g>
<!-- sequence:
 change_tool(left_hand, parallelgripper, defaultgripper)&#45;&gt;precondition:
 hold(left_hand, parallelgripper) -->
<g id="edge6" class="edge">
<title>sequence:
 change_tool(left_hand, parallelgripper, defaultgripper)&#45;&gt;precondition:
 hold(left_hand, parallelgripper)</title>
<path fill="none" stroke="black" d="M609.86,-113.77C551.67,-99.45 476.22,-80.88 413.16,-65.36"/>
<polygon fill="black" stroke="black" points="413.69,-61.89 403.15,-62.9 412.02,-68.69 413.69,-61.89"/>
</g>
<!-- precondition:
 is_empty(parallelgripper) -->
<g id="node8" class="node">
<title>precondition:
 is_empty(parallelgripper)</title>
<ellipse fill="#ffec8b" stroke="black" cx="703.55" cy="-33.94" rx="178.8" ry="33.88"/>
<text text-anchor="middle" x="703.55" y="-39.54" font-family="Times,serif" font-size="18.00">precondition:</text>
<text text-anchor="middle" x="703.55" y="-19.54" font-family="Times,serif" font-size="18.00"> is_empty(parallelgripper)</text>
</g>
<!-- sequence:
 change_tool(left_hand, parallelgripper, defaultgripper)&#45;&gt;precondition:
 is_empty(parallelgripper) -->
<g id="edge7" class="edge">
<title>sequence:
 change_tool(left_hand, parallelgripper, defaultgripper)&#45;&gt;precondition:
 is_empty(parallelgripper)</title>
<path fill="none" stroke="black" d="M703.55,-113.7C703.55,-103.16 703.55,-90.31 703.55,-78.08"/>
<polygon fill="black" stroke="black" points="707.05,-78.01 703.55,-68.01 700.05,-78.01 707.05,-78.01"/>
</g>
<!-- action:
 change_tool(left_hand, parallelgripper, defaultgripper) -->
<g id="node9" class="node">
<title>action:
 change_tool(left_hand, parallelgripper, defaultgripper)</title>
<ellipse fill="lightgreen" stroke="black" cx="1265.55" cy="-33.94" rx="364.73" ry="33.88"/>
<text text-anchor="middle" x="1265.55" y="-39.54" font-family="Times,serif" font-size="18.00">action:</text>
<text text-anchor="middle" x="1265.55" y="-19.54" font-family="Times,serif" font-size="18.00"> change_tool(left_hand, parallelgripper, defaultgripper)</text>
</g>
<!-- sequence:
 change_tool(left_hand, parallelgripper, defaultgripper)&#45;&gt;action:
 change_tool(left_hand, parallelgripper, defaultgripper) -->
<g id="edge8" class="edge">
<title>sequence:
 change_tool(left_hand, parallelgripper, defaultgripper)&#45;&gt;action:
 change_tool(left_hand, parallelgripper, defaultgripper)</title>
<path fill="none" stroke="black" d="M830.72,-113.77C908.35,-99.69 1008.63,-81.52 1093.32,-66.16"/>
<polygon fill="black" stroke="black" points="1094.09,-69.58 1103.3,-64.35 1092.84,-62.69 1094.09,-69.58"/>
</g>
</g>
</svg>
