<?xml version="1.0" encoding="UTF-8" standalone="no"?>
<!DOCTYPE svg PUBLIC "-//W3C//DTD SVG 1.1//EN"
 "http://www.w3.org/Graphics/SVG/1.1/DTD/svg11.dtd">
<!-- Generated by graphviz version 2.43.0 (0)
 -->
<!-- Title: pastafarianism Pages: 1 -->
<svg width="2103pt" height="716pt"
 viewBox="0.00 0.00 2102.97 715.95" xmlns="http://www.w3.org/2000/svg" xmlns:xlink="http://www.w3.org/1999/xlink">
<g id="graph0" class="graph" transform="scale(1 1) rotate(0) translate(4 711.95)">
<title>pastafarianism</title>
<polygon fill="white" stroke="transparent" points="-4,4 -4,-711.95 2098.97,-711.95 2098.97,4 -4,4"/>
<!-- selector:
 insert(left_hand, defaultgripper, shaft3, gearbase_hole3) -->
<g id="node1" class="node">
<title>selector:
 insert(left_hand, defaultgripper, shaft3, gearbase_hole3)</title>
<polygon fill="#8deeee" stroke="black" points="1265.96,-655.9 1265.96,-686.53 1027.03,-708.19 689.13,-708.19 450.2,-686.53 450.2,-655.9 689.13,-634.24 1027.03,-634.24 1265.96,-655.9"/>
<text text-anchor="middle" x="858.08" y="-676.82" font-family="Times,serif" font-size="18.00">selector:</text>
<text text-anchor="middle" x="858.08" y="-656.82" font-family="Times,serif" font-size="18.00"> insert(left_hand, defaultgripper, shaft3, gearbase_hole3)</text>
</g>
<!-- target:
 is_inserted_to(shaft3, gearbase_hole3) -->
<g id="node2" class="node">
<title>target:
 is_inserted_to(shaft3, gearbase_hole3)</title>
<ellipse fill="#ffec8b" stroke="black" cx="585.08" cy="-564.54" rx="261.76" ry="33.88"/>
<text text-anchor="middle" x="585.08" y="-570.14" font-family="Times,serif" font-size="18.00">target:</text>
<text text-anchor="middle" x="585.08" y="-550.14" font-family="Times,serif" font-size="18.00"> is_inserted_to(shaft3, gearbase_hole3)</text>
</g>
<!-- selector:
 insert(left_hand, defaultgripper, shaft3, gearbase_hole3)&#45;&gt;target:
 is_inserted_to(shaft3, gearbase_hole3) -->
<g id="edge1" class="edge">
<title>selector:
 insert(left_hand, defaultgripper, shaft3, gearbase_hole3)&#45;&gt;target:
 is_inserted_to(shaft3, gearbase_hole3)</title>
<path fill="none" stroke="black" d="M764.51,-634.34C735.95,-623.39 704.59,-611.36 676.18,-600.47"/>
<polygon fill="black" stroke="black" points="677.26,-597.14 666.67,-596.82 674.76,-603.67 677.26,-597.14"/>
</g>
<!-- sequence:
 insert(left_hand, defaultgripper, shaft3, gearbase_hole3) -->
<g id="node3" class="node">
<title>sequence:
 insert(left_hand, defaultgripper, shaft3, gearbase_hole3)</title>
<polygon fill="#ff7f24" stroke="black" points="1397.58,-588.54 864.58,-588.54 864.58,-540.54 1397.58,-540.54 1397.58,-588.54"/>
<text text-anchor="middle" x="1131.08" y="-570.14" font-family="Times,serif" font-size="18.00">sequence:</text>
<text text-anchor="middle" x="1131.08" y="-550.14" font-family="Times,serif" font-size="18.00"> insert(left_hand, defaultgripper, shaft3, gearbase_hole3)</text>
</g>
<!-- selector:
 insert(left_hand, defaultgripper, shaft3, gearbase_hole3)&#45;&gt;sequence:
 insert(left_hand, defaultgripper, shaft3, gearbase_hole3) -->
<g id="edge2" class="edge">
<title>selector:
 insert(left_hand, defaultgripper, shaft3, gearbase_hole3)&#45;&gt;sequence:
 insert(left_hand, defaultgripper, shaft3, gearbase_hole3)</title>
<path fill="none" stroke="black" d="M951.65,-634.34C987.61,-620.55 1028.01,-605.06 1061.35,-592.28"/>
<polygon fill="black" stroke="black" points="1062.92,-595.42 1071,-588.58 1060.41,-588.89 1062.92,-595.42"/>
</g>
<!-- selector:
 change_tool(left_hand, parallelgripper, defaultgripper) -->
<g id="node4" class="node">
<title>selector:
 change_tool(left_hand, parallelgripper, defaultgripper)</title>
<polygon fill="#8deeee" stroke="black" points="920.94,-442.54 920.94,-473.18 689.64,-494.84 362.53,-494.84 131.22,-473.18 131.22,-442.54 362.53,-420.88 689.64,-420.88 920.94,-442.54"/>
<text text-anchor="middle" x="526.08" y="-463.46" font-family="Times,serif" font-size="18.00">selector:</text>
<text text-anchor="middle" x="526.08" y="-443.46" font-family="Times,serif" font-size="18.00"> change_tool(left_hand, parallelgripper, defaultgripper)</text>
</g>
<!-- sequence:
 insert(left_hand, defaultgripper, shaft3, gearbase_hole3)&#45;&gt;selector:
 change_tool(left_hand, parallelgripper, defaultgripper) -->
<g id="edge3" class="edge">
<title>sequence:
 insert(left_hand, defaultgripper, shaft3, gearbase_hole3)&#45;&gt;selector:
 change_tool(left_hand, parallelgripper, defaultgripper)</title>
<path fill="none" stroke="black" d="M997.94,-540.5C918.97,-526.84 817.27,-509.24 728.53,-493.89"/>
<polygon fill="black" stroke="black" points="729.05,-490.43 718.6,-492.17 727.86,-497.32 729.05,-490.43"/>
</g>
<!-- precondition:
 hold(defaultgripper, shaft3) -->
<g id="node15" class="node">
<title>precondition:
 hold(defaultgripper, shaft3)</title>
<ellipse fill="#ffec8b" stroke="black" cx="1131.08" cy="-457.86" rx="192.17" ry="33.88"/>
<text text-anchor="middle" x="1131.08" y="-463.46" font-family="Times,serif" font-size="18.00">precondition:</text>
<text text-anchor="middle" x="1131.08" y="-443.46" font-family="Times,serif" font-size="18.00"> hold(defaultgripper, shaft3)</text>
</g>
<!-- sequence:
 insert(left_hand, defaultgripper, shaft3, gearbase_hole3)&#45;&gt;precondition:
 hold(defaultgripper, shaft3) -->
<g id="edge14" class="edge">
<title>sequence:
 insert(left_hand, defaultgripper, shaft3, gearbase_hole3)&#45;&gt;precondition:
 hold(defaultgripper, shaft3)</title>
<path fill="none" stroke="black" d="M1131.08,-540.31C1131.08,-529.09 1131.08,-515.26 1131.08,-502.2"/>
<polygon fill="black" stroke="black" points="1134.58,-501.95 1131.08,-491.95 1127.58,-501.95 1134.58,-501.95"/>
</g>
<!-- action:
 insert(left_hand, defaultgripper, shaft3, gearbase_hole3) -->
<g id="node16" class="node">
<title>action:
 insert(left_hand, defaultgripper, shaft3, gearbase_hole3)</title>
<ellipse fill="lightgreen" stroke="black" cx="1718.08" cy="-457.86" rx="376.78" ry="33.88"/>
<text text-anchor="middle" x="1718.08" y="-463.46" font-family="Times,serif" font-size="18.00">action:</text>
<text text-anchor="middle" x="1718.08" y="-443.46" font-family="Times,serif" font-size="18.00"> insert(left_hand, defaultgripper, shaft3, gearbase_hole3)</text>
</g>
<!-- sequence:
 insert(left_hand, defaultgripper, shaft3, gearbase_hole3)&#45;&gt;action:
 insert(left_hand, defaultgripper, shaft3, gearbase_hole3) -->
<g id="edge15" class="edge">
<title>sequence:
 insert(left_hand, defaultgripper, shaft3, gearbase_hole3)&#45;&gt;action:
 insert(left_hand, defaultgripper, shaft3, gearbase_hole3)</title>
<path fill="none" stroke="black" d="M1260.26,-540.5C1343.15,-525.72 1451.83,-506.34 1542.5,-490.17"/>
<polygon fill="black" stroke="black" points="1543.39,-493.57 1552.62,-488.37 1542.16,-486.68 1543.39,-493.57"/>
</g>
<!-- target:
 hold(left_hand, defaultgripper) -->
<g id="node5" class="node">
<title>target:
 hold(left_hand, defaultgripper)</title>
<ellipse fill="#ffec8b" stroke="black" cx="281.08" cy="-351.18" rx="213.59" ry="33.88"/>
<text text-anchor="middle" x="281.08" y="-356.78" font-family="Times,serif" font-size="18.00">target:</text>
<text text-anchor="middle" x="281.08" y="-336.78" font-family="Times,serif" font-size="18.00"> hold(left_hand, defaultgripper)</text>
</g>
<!-- selector:
 change_tool(left_hand, parallelgripper, defaultgripper)&#45;&gt;target:
 hold(left_hand, defaultgripper) -->
<g id="edge4" class="edge">
<title>selector:
 change_tool(left_hand, parallelgripper, defaultgripper)&#45;&gt;target:
 hold(left_hand, defaultgripper)</title>
<path fill="none" stroke="black" d="M442.11,-420.98C416.45,-410.02 388.28,-397.98 362.77,-387.08"/>
<polygon fill="black" stroke="black" points="364.07,-383.83 353.5,-383.12 361.32,-390.27 364.07,-383.83"/>
</g>
<!-- sequence:
 change_tool(left_hand, parallelgripper, defaultgripper) -->
<g id="node6" class="node">
<title>sequence:
 change_tool(left_hand, parallelgripper, defaultgripper)</title>
<polygon fill="#ff7f24" stroke="black" points="1029.08,-375.18 513.08,-375.18 513.08,-327.18 1029.08,-327.18 1029.08,-375.18"/>
<text text-anchor="middle" x="771.08" y="-356.78" font-family="Times,serif" font-size="18.00">sequence:</text>
<text text-anchor="middle" x="771.08" y="-336.78" font-family="Times,serif" font-size="18.00"> change_tool(left_hand, parallelgripper, defaultgripper)</text>
</g>
<!-- selector:
 change_tool(left_hand, parallelgripper, defaultgripper)&#45;&gt;sequence:
 change_tool(left_hand, parallelgripper, defaultgripper) -->
<g id="edge5" class="edge">
<title>selector:
 change_tool(left_hand, parallelgripper, defaultgripper)&#45;&gt;sequence:
 change_tool(left_hand, parallelgripper, defaultgripper)</title>
<path fill="none" stroke="black" d="M610.05,-420.98C642.05,-407.31 677.96,-391.97 707.73,-379.25"/>
<polygon fill="black" stroke="black" points="709.34,-382.37 717.16,-375.22 706.59,-375.93 709.34,-382.37"/>
</g>
<!-- precondition:
 hold(left_hand, parallelgripper) -->
<g id="node7" class="node">
<title>precondition:
 hold(left_hand, parallelgripper)</title>
<ellipse fill="#ffec8b" stroke="black" cx="217.08" cy="-244.5" rx="217.16" ry="33.88"/>
<text text-anchor="middle" x="217.08" y="-250.1" font-family="Times,serif" font-size="18.00">precondition:</text>
<text text-anchor="middle" x="217.08" y="-230.1" font-family="Times,serif" font-size="18.00"> hold(left_hand, parallelgripper)</text>
</g>
<!-- sequence:
 change_tool(left_hand, parallelgripper, defaultgripper)&#45;&gt;precondition:
 hold(left_hand, parallelgripper) -->
<g id="edge6" class="edge">
<title>sequence:
 change_tool(left_hand, parallelgripper, defaultgripper)&#45;&gt;precondition:
 hold(left_hand, parallelgripper)</title>
<path fill="none" stroke="black" d="M649.16,-327.14C564.72,-311.19 451.9,-289.87 362.73,-273.02"/>
<polygon fill="black" stroke="black" points="363.27,-269.56 352.8,-271.15 361.97,-276.44 363.27,-269.56"/>
</g>
<!-- selector:
 put_down(left_hand, parallelgripper, gear1) -->
<g id="node8" class="node">
<title>selector:
 put_down(left_hand, parallelgripper, gear1)</title>
<polygon fill="#8deeee" stroke="black" points="1090.4,-229.19 1090.4,-259.82 903.35,-281.48 638.82,-281.48 451.77,-259.82 451.77,-229.19 638.82,-207.53 903.35,-207.53 1090.4,-229.19"/>
<text text-anchor="middle" x="771.08" y="-250.1" font-family="Times,serif" font-size="18.00">selector:</text>
<text text-anchor="middle" x="771.08" y="-230.1" font-family="Times,serif" font-size="18.00"> put_down(left_hand, parallelgripper, gear1)</text>
</g>
<!-- sequence:
 change_tool(left_hand, parallelgripper, defaultgripper)&#45;&gt;selector:
 put_down(left_hand, parallelgripper, gear1) -->
<g id="edge7" class="edge">
<title>sequence:
 change_tool(left_hand, parallelgripper, defaultgripper)&#45;&gt;selector:
 put_down(left_hand, parallelgripper, gear1)</title>
<path fill="none" stroke="black" d="M771.08,-326.95C771.08,-316.5 771.08,-303.79 771.08,-291.54"/>
<polygon fill="black" stroke="black" points="774.58,-291.42 771.08,-281.42 767.58,-291.42 774.58,-291.42"/>
</g>
<!-- action:
 change_tool(left_hand, parallelgripper, defaultgripper) -->
<g id="node14" class="node">
<title>action:
 change_tool(left_hand, parallelgripper, defaultgripper)</title>
<ellipse fill="lightgreen" stroke="black" cx="1473.08" cy="-244.5" rx="364.73" ry="33.88"/>
<text text-anchor="middle" x="1473.08" y="-250.1" font-family="Times,serif" font-size="18.00">action:</text>
<text text-anchor="middle" x="1473.08" y="-230.1" font-family="Times,serif" font-size="18.00"> change_tool(left_hand, parallelgripper, defaultgripper)</text>
</g>
<!-- sequence:
 change_tool(left_hand, parallelgripper, defaultgripper)&#45;&gt;action:
 change_tool(left_hand, parallelgripper, defaultgripper) -->
<g id="edge13" class="edge">
<title>sequence:
 change_tool(left_hand, parallelgripper, defaultgripper)&#45;&gt;action:
 change_tool(left_hand, parallelgripper, defaultgripper)</title>
<path fill="none" stroke="black" d="M925.57,-327.14C1028.24,-311.83 1164,-291.59 1274.65,-275.09"/>
<polygon fill="black" stroke="black" points="1275.23,-278.54 1284.6,-273.61 1274.19,-271.62 1275.23,-278.54"/>
</g>
<!-- target:
 not hold(parallelgripper, gear1) -->
<g id="node9" class="node">
<title>target:
 not hold(parallelgripper, gear1)</title>
<ellipse fill="#ffec8b" stroke="black" cx="549.08" cy="-137.82" rx="217.58" ry="33.88"/>
<text text-anchor="middle" x="549.08" y="-143.42" font-family="Times,serif" font-size="18.00">target:</text>
<text text-anchor="middle" x="549.08" y="-123.42" font-family="Times,serif" font-size="18.00"> not hold(parallelgripper, gear1)</text>
</g>
<!-- selector:
 put_down(left_hand, parallelgripper, gear1)&#45;&gt;target:
 not hold(parallelgripper, gear1) -->
<g id="edge8" class="edge">
<title>selector:
 put_down(left_hand, parallelgripper, gear1)&#45;&gt;target:
 not hold(parallelgripper, gear1)</title>
<path fill="none" stroke="black" d="M694.99,-207.62C672.38,-196.96 647.61,-185.28 625.01,-174.62"/>
<polygon fill="black" stroke="black" points="626.33,-171.38 615.8,-170.28 623.35,-177.71 626.33,-171.38"/>
</g>
<!-- sequence:
 put_down(left_hand, parallelgripper, gear1) -->
<g id="node10" class="node">
<title>sequence:
 put_down(left_hand, parallelgripper, gear1)</title>
<polygon fill="#ff7f24" stroke="black" points="1201.58,-161.82 784.58,-161.82 784.58,-113.82 1201.58,-113.82 1201.58,-161.82"/>
<text text-anchor="middle" x="993.08" y="-143.42" font-family="Times,serif" font-size="18.00">sequence:</text>
<text text-anchor="middle" x="993.08" y="-123.42" font-family="Times,serif" font-size="18.00"> put_down(left_hand, parallelgripper, gear1)</text>
</g>
<!-- selector:
 put_down(left_hand, parallelgripper, gear1)&#45;&gt;sequence:
 put_down(left_hand, parallelgripper, gear1) -->
<g id="edge9" class="edge">
<title>selector:
 put_down(left_hand, parallelgripper, gear1)&#45;&gt;sequence:
 put_down(left_hand, parallelgripper, gear1)</title>
<path fill="none" stroke="black" d="M847.17,-207.62C875.91,-194.07 908.13,-178.88 934.97,-166.22"/>
<polygon fill="black" stroke="black" points="936.67,-169.29 944.23,-161.86 933.69,-162.96 936.67,-169.29"/>
</g>
<!-- &quot;precondition:\n hold(left_hand, parallelgripper)&quot;* -->
<g id="node11" class="node">
<title>&quot;precondition:\n hold(left_hand, parallelgripper)&quot;*</title>
<ellipse fill="#ffec8b" stroke="black" cx="554.08" cy="-33.94" rx="229.21" ry="33.88"/>
<text text-anchor="middle" x="554.08" y="-39.54" font-family="Times,serif" font-size="18.00">&quot;precondition:</text>
<text text-anchor="middle" x="554.08" y="-19.54" font-family="Times,serif" font-size="18.00"> hold(left_hand, parallelgripper)&quot;*</text>
</g>
<!-- sequence:
 put_down(left_hand, parallelgripper, gear1)&#45;&gt;&quot;precondition:\n hold(left_hand, parallelgripper)&quot;* -->
<g id="edge10" class="edge">
<title>sequence:
 put_down(left_hand, parallelgripper, gear1)&#45;&gt;&quot;precondition:\n hold(left_hand, parallelgripper)&quot;*</title>
<path fill="none" stroke="black" d="M893.74,-113.77C831.78,-99.39 751.37,-80.73 684.33,-65.17"/>
<polygon fill="black" stroke="black" points="685.08,-61.75 674.54,-62.9 683.49,-68.57 685.08,-61.75"/>
</g>
<!-- precondition:
 hold(parallelgripper, gear1) -->
<g id="node12" class="node">
<title>precondition:
 hold(parallelgripper, gear1)</title>
<ellipse fill="#ffec8b" stroke="black" cx="993.08" cy="-33.94" rx="192.17" ry="33.88"/>
<text text-anchor="middle" x="993.08" y="-39.54" font-family="Times,serif" font-size="18.00">precondition:</text>
<text text-anchor="middle" x="993.08" y="-19.54" font-family="Times,serif" font-size="18.00"> hold(parallelgripper, gear1)</text>
</g>
<!-- sequence:
 put_down(left_hand, parallelgripper, gear1)&#45;&gt;precondition:
 hold(parallelgripper, gear1) -->
<g id="edge11" class="edge">
<title>sequence:
 put_down(left_hand, parallelgripper, gear1)&#45;&gt;precondition:
 hold(parallelgripper, gear1)</title>
<path fill="none" stroke="black" d="M993.08,-113.7C993.08,-103.16 993.08,-90.31 993.08,-78.08"/>
<polygon fill="black" stroke="black" points="996.58,-78.01 993.08,-68.01 989.58,-78.01 996.58,-78.01"/>
</g>
<!-- action:
 put_down(left_hand, parallelgripper, gear1) -->
<g id="node13" class="node">
<title>action:
 put_down(left_hand, parallelgripper, gear1)</title>
<ellipse fill="lightgreen" stroke="black" cx="1498.08" cy="-33.94" rx="294.73" ry="33.88"/>
<text text-anchor="middle" x="1498.08" y="-39.54" font-family="Times,serif" font-size="18.00">action:</text>
<text text-anchor="middle" x="1498.08" y="-19.54" font-family="Times,serif" font-size="18.00"> put_down(left_hand, parallelgripper, gear1)</text>
</g>
<!-- sequence:
 put_down(left_hand, parallelgripper, gear1)&#45;&gt;action:
 put_down(left_hand, parallelgripper, gear1) -->
<g id="edge12" class="edge">
<title>sequence:
 put_down(left_hand, parallelgripper, gear1)&#45;&gt;action:
 put_down(left_hand, parallelgripper, gear1)</title>
<path fill="none" stroke="black" d="M1107.36,-113.77C1177.67,-99.58 1268.65,-81.23 1345.12,-65.8"/>
<polygon fill="black" stroke="black" points="1346.22,-69.15 1355.33,-63.74 1344.84,-62.29 1346.22,-69.15"/>
</g>
</g>
</svg>
