<?xml version="1.0" encoding="UTF-8" standalone="no"?>
<!DOCTYPE svg PUBLIC "-//W3C//DTD SVG 1.1//EN"
 "http://www.w3.org/Graphics/SVG/1.1/DTD/svg11.dtd">
<!-- Generated by graphviz version 2.43.0 (0)
 -->
<!-- Title: pastafarianism Pages: 1 -->
<svg width="4398pt" height="503pt"
 viewBox="0.00 0.00 4397.56 502.60" xmlns="http://www.w3.org/2000/svg" xmlns:xlink="http://www.w3.org/1999/xlink">
<g id="graph0" class="graph" transform="scale(1 1) rotate(0) translate(4 498.6)">
<title>pastafarianism</title>
<polygon fill="white" stroke="transparent" points="-4,4 -4,-498.6 4393.56,-498.6 4393.56,4 -4,4"/>
<!-- selector:
 insert(gear2, shaft2, outwardgripper, left_hand) -->
<g id="node1" class="node">
<title>selector:
 insert(gear2, shaft2, outwardgripper, left_hand)</title>
<polygon fill="#8deeee" stroke="black" points="2293.2,-442.54 2293.2,-473.18 2088.75,-494.84 1799.62,-494.84 1595.17,-473.18 1595.17,-442.54 1799.62,-420.88 2088.75,-420.88 2293.2,-442.54"/>
<text text-anchor="middle" x="1944.18" y="-463.46" font-family="Times,serif" font-size="18.00">selector:</text>
<text text-anchor="middle" x="1944.18" y="-443.46" font-family="Times,serif" font-size="18.00"> insert(gear2, shaft2, outwardgripper, left_hand)</text>
</g>
<!-- target:
 is_inserted_to(gear2, shaft2) -->
<g id="node2" class="node">
<title>target:
 is_inserted_to(gear2, shaft2)</title>
<ellipse fill="#ffec8b" stroke="black" cx="1722.18" cy="-351.18" rx="198.89" ry="33.88"/>
<text text-anchor="middle" x="1722.18" y="-356.78" font-family="Times,serif" font-size="18.00">target:</text>
<text text-anchor="middle" x="1722.18" y="-336.78" font-family="Times,serif" font-size="18.00"> is_inserted_to(gear2, shaft2)</text>
</g>
<!-- selector:
 insert(gear2, shaft2, outwardgripper, left_hand)&#45;&gt;target:
 is_inserted_to(gear2, shaft2) -->
<g id="edge1" class="edge">
<title>selector:
 insert(gear2, shaft2, outwardgripper, left_hand)&#45;&gt;target:
 is_inserted_to(gear2, shaft2)</title>
<path fill="none" stroke="black" d="M1868.09,-420.98C1845.26,-410.21 1820.23,-398.41 1797.44,-387.67"/>
<polygon fill="black" stroke="black" points="1798.71,-384.39 1788.17,-383.29 1795.72,-390.73 1798.71,-384.39"/>
</g>
<!-- sequence:
 insert(gear2, shaft2, outwardgripper, left_hand) -->
<g id="node3" class="node">
<title>sequence:
 insert(gear2, shaft2, outwardgripper, left_hand)</title>
<polygon fill="#ff7f24" stroke="black" points="2395.18,-375.18 1939.18,-375.18 1939.18,-327.18 2395.18,-327.18 2395.18,-375.18"/>
<text text-anchor="middle" x="2167.18" y="-356.78" font-family="Times,serif" font-size="18.00">sequence:</text>
<text text-anchor="middle" x="2167.18" y="-336.78" font-family="Times,serif" font-size="18.00"> insert(gear2, shaft2, outwardgripper, left_hand)</text>
</g>
<!-- selector:
 insert(gear2, shaft2, outwardgripper, left_hand)&#45;&gt;sequence:
 insert(gear2, shaft2, outwardgripper, left_hand) -->
<g id="edge2" class="edge">
<title>selector:
 insert(gear2, shaft2, outwardgripper, left_hand)&#45;&gt;sequence:
 insert(gear2, shaft2, outwardgripper, left_hand)</title>
<path fill="none" stroke="black" d="M2020.61,-420.98C2049.49,-407.43 2081.85,-392.24 2108.81,-379.58"/>
<polygon fill="black" stroke="black" points="2110.54,-382.64 2118.11,-375.22 2107.57,-376.3 2110.54,-382.64"/>
</g>
<!-- selector:
 put_down(left_hand, clampgripper, shaft1) -->
<g id="node4" class="node">
<title>selector:
 put_down(left_hand, clampgripper, shaft1)</title>
<polygon fill="#8deeee" stroke="black" points="1163.69,-229.19 1163.69,-259.82 981.21,-281.48 723.15,-281.48 540.67,-259.82 540.67,-229.19 723.15,-207.53 981.21,-207.53 1163.69,-229.19"/>
<text text-anchor="middle" x="852.18" y="-250.1" font-family="Times,serif" font-size="18.00">selector:</text>
<text text-anchor="middle" x="852.18" y="-230.1" font-family="Times,serif" font-size="18.00"> put_down(left_hand, clampgripper, shaft1)</text>
</g>
<!-- sequence:
 insert(gear2, shaft2, outwardgripper, left_hand)&#45;&gt;selector:
 put_down(left_hand, clampgripper, shaft1) -->
<g id="edge3" class="edge">
<title>sequence:
 insert(gear2, shaft2, outwardgripper, left_hand)&#45;&gt;selector:
 put_down(left_hand, clampgripper, shaft1)</title>
<path fill="none" stroke="black" d="M2013.44,-327.18C1985.76,-323.5 1957.15,-320.01 1930.18,-317.24 1891.4,-313.26 1448.1,-284.18 1142.21,-264.29"/>
<polygon fill="black" stroke="black" points="1142.04,-260.77 1131.84,-263.61 1141.59,-267.75 1142.04,-260.77"/>
</g>
<!-- selector:
 change_tool(left_hand, clampgripper, outwardgripper) -->
<g id="node10" class="node">
<title>selector:
 change_tool(left_hand, clampgripper, outwardgripper)</title>
<polygon fill="#8deeee" stroke="black" points="2199.95,-229.19 2199.95,-259.82 1969.87,-281.48 1644.49,-281.48 1414.42,-259.82 1414.42,-229.19 1644.49,-207.53 1969.87,-207.53 2199.95,-229.19"/>
<text text-anchor="middle" x="1807.18" y="-250.1" font-family="Times,serif" font-size="18.00">selector:</text>
<text text-anchor="middle" x="1807.18" y="-230.1" font-family="Times,serif" font-size="18.00"> change_tool(left_hand, clampgripper, outwardgripper)</text>
</g>
<!-- sequence:
 insert(gear2, shaft2, outwardgripper, left_hand)&#45;&gt;selector:
 change_tool(left_hand, clampgripper, outwardgripper) -->
<g id="edge9" class="edge">
<title>sequence:
 insert(gear2, shaft2, outwardgripper, left_hand)&#45;&gt;selector:
 change_tool(left_hand, clampgripper, outwardgripper)</title>
<path fill="none" stroke="black" d="M2087.73,-327.08C2044.44,-314.49 1989.73,-298.58 1940.14,-284.16"/>
<polygon fill="black" stroke="black" points="1940.88,-280.73 1930.3,-281.3 1938.92,-287.45 1940.88,-280.73"/>
</g>
<!-- selector:
 pick_up(left_hand, outwardgripper, gear2) -->
<g id="node16" class="node">
<title>selector:
 pick_up(left_hand, outwardgripper, gear2)</title>
<polygon fill="#8deeee" stroke="black" points="2838.13,-229.19 2838.13,-259.82 2656.57,-281.48 2399.8,-281.48 2218.24,-259.82 2218.24,-229.19 2399.8,-207.53 2656.57,-207.53 2838.13,-229.19"/>
<text text-anchor="middle" x="2528.18" y="-250.1" font-family="Times,serif" font-size="18.00">selector:</text>
<text text-anchor="middle" x="2528.18" y="-230.1" font-family="Times,serif" font-size="18.00"> pick_up(left_hand, outwardgripper, gear2)</text>
</g>
<!-- sequence:
 insert(gear2, shaft2, outwardgripper, left_hand)&#45;&gt;selector:
 pick_up(left_hand, outwardgripper, gear2) -->
<g id="edge15" class="edge">
<title>sequence:
 insert(gear2, shaft2, outwardgripper, left_hand)&#45;&gt;selector:
 pick_up(left_hand, outwardgripper, gear2)</title>
<path fill="none" stroke="black" d="M2246.85,-327.08C2290.26,-314.49 2345.13,-298.58 2394.85,-284.16"/>
<polygon fill="black" stroke="black" points="2396.1,-287.45 2404.73,-281.3 2394.15,-280.72 2396.1,-287.45"/>
</g>
<!-- action:
 insert(left_hand, outwardgripper, gear2, shaft2) -->
<g id="node22" class="node">
<title>action:
 insert(left_hand, outwardgripper, gear2, shaft2)</title>
<ellipse fill="lightgreen" stroke="black" cx="3178.18" cy="-244.5" rx="322.38" ry="33.88"/>
<text text-anchor="middle" x="3178.18" y="-250.1" font-family="Times,serif" font-size="18.00">action:</text>
<text text-anchor="middle" x="3178.18" y="-230.1" font-family="Times,serif" font-size="18.00"> insert(left_hand, outwardgripper, gear2, shaft2)</text>
</g>
<!-- sequence:
 insert(gear2, shaft2, outwardgripper, left_hand)&#45;&gt;action:
 insert(left_hand, outwardgripper, gear2, shaft2) -->
<g id="edge21" class="edge">
<title>sequence:
 insert(gear2, shaft2, outwardgripper, left_hand)&#45;&gt;action:
 insert(left_hand, outwardgripper, gear2, shaft2)</title>
<path fill="none" stroke="black" d="M2395.44,-327.41C2527.45,-314.15 2696.71,-296.99 2847.18,-281.24 2880.01,-277.8 2914.67,-274.12 2948.7,-270.47"/>
<polygon fill="black" stroke="black" points="2949.19,-273.94 2958.76,-269.4 2948.45,-266.98 2949.19,-273.94"/>
</g>
<!-- target:
 is_empty(clampgripper) -->
<g id="node5" class="node">
<title>target:
 is_empty(clampgripper)</title>
<ellipse fill="#ffec8b" stroke="black" cx="462.18" cy="-137.82" rx="169" ry="33.88"/>
<text text-anchor="middle" x="462.18" y="-143.42" font-family="Times,serif" font-size="18.00">target:</text>
<text text-anchor="middle" x="462.18" y="-123.42" font-family="Times,serif" font-size="18.00"> is_empty(clampgripper)</text>
</g>
<!-- selector:
 put_down(left_hand, clampgripper, shaft1)&#45;&gt;target:
 is_empty(clampgripper) -->
<g id="edge4" class="edge">
<title>selector:
 put_down(left_hand, clampgripper, shaft1)&#45;&gt;target:
 is_empty(clampgripper)</title>
<path fill="none" stroke="black" d="M719.6,-207.92C671.15,-194.91 616.96,-180.37 570.84,-167.99"/>
<polygon fill="black" stroke="black" points="571.69,-164.59 561.13,-165.38 569.88,-171.35 571.69,-164.59"/>
</g>
<!-- sequence:
 put_down(left_hand, clampgripper, shaft1) -->
<g id="node6" class="node">
<title>sequence:
 put_down(left_hand, clampgripper, shaft1)</title>
<polygon fill="#ff7f24" stroke="black" points="1055.68,-161.82 648.68,-161.82 648.68,-113.82 1055.68,-113.82 1055.68,-161.82"/>
<text text-anchor="middle" x="852.18" y="-143.42" font-family="Times,serif" font-size="18.00">sequence:</text>
<text text-anchor="middle" x="852.18" y="-123.42" font-family="Times,serif" font-size="18.00"> put_down(left_hand, clampgripper, shaft1)</text>
</g>
<!-- selector:
 put_down(left_hand, clampgripper, shaft1)&#45;&gt;sequence:
 put_down(left_hand, clampgripper, shaft1) -->
<g id="edge5" class="edge">
<title>selector:
 put_down(left_hand, clampgripper, shaft1)&#45;&gt;sequence:
 put_down(left_hand, clampgripper, shaft1)</title>
<path fill="none" stroke="black" d="M852.18,-207.48C852.18,-196.09 852.18,-183.57 852.18,-172.36"/>
<polygon fill="black" stroke="black" points="855.68,-172.11 852.18,-162.11 848.68,-172.11 855.68,-172.11"/>
</g>
<!-- precondition:
 hold(left_hand, clampgripper) -->
<g id="node7" class="node">
<title>precondition:
 hold(left_hand, clampgripper)</title>
<ellipse fill="#ffec8b" stroke="black" cx="207.18" cy="-33.94" rx="207.36" ry="33.88"/>
<text text-anchor="middle" x="207.18" y="-39.54" font-family="Times,serif" font-size="18.00">precondition:</text>
<text text-anchor="middle" x="207.18" y="-19.54" font-family="Times,serif" font-size="18.00"> hold(left_hand, clampgripper)</text>
</g>
<!-- sequence:
 put_down(left_hand, clampgripper, shaft1)&#45;&gt;precondition:
 hold(left_hand, clampgripper) -->
<g id="edge6" class="edge">
<title>sequence:
 put_down(left_hand, clampgripper, shaft1)&#45;&gt;precondition:
 hold(left_hand, clampgripper)</title>
<path fill="none" stroke="black" d="M706.22,-113.77C604.07,-97.63 467.76,-76.1 363.42,-59.62"/>
<polygon fill="black" stroke="black" points="363.85,-56.14 353.42,-58.04 362.75,-63.06 363.85,-56.14"/>
</g>
<!-- precondition:
 hold(clampgripper, shaft1) -->
<g id="node8" class="node">
<title>precondition:
 hold(clampgripper, shaft1)</title>
<ellipse fill="#ffec8b" stroke="black" cx="618.18" cy="-33.94" rx="185.94" ry="33.88"/>
<text text-anchor="middle" x="618.18" y="-39.54" font-family="Times,serif" font-size="18.00">precondition:</text>
<text text-anchor="middle" x="618.18" y="-19.54" font-family="Times,serif" font-size="18.00"> hold(clampgripper, shaft1)</text>
</g>
<!-- sequence:
 put_down(left_hand, clampgripper, shaft1)&#45;&gt;precondition:
 hold(clampgripper, shaft1) -->
<g id="edge7" class="edge">
<title>sequence:
 put_down(left_hand, clampgripper, shaft1)&#45;&gt;precondition:
 hold(clampgripper, shaft1)</title>
<path fill="none" stroke="black" d="M799.08,-113.7C769.13,-100.66 731.12,-84.11 697.68,-69.56"/>
<polygon fill="black" stroke="black" points="698.95,-66.29 688.38,-65.51 696.15,-72.71 698.95,-66.29"/>
</g>
<!-- action:
 put_down(left_hand, clampgripper, shaft1) -->
<g id="node9" class="node">
<title>action:
 put_down(left_hand, clampgripper, shaft1)</title>
<ellipse fill="lightgreen" stroke="black" cx="1110.18" cy="-33.94" rx="287.59" ry="33.88"/>
<text text-anchor="middle" x="1110.18" y="-39.54" font-family="Times,serif" font-size="18.00">action:</text>
<text text-anchor="middle" x="1110.18" y="-19.54" font-family="Times,serif" font-size="18.00"> put_down(left_hand, clampgripper, shaft1)</text>
</g>
<!-- sequence:
 put_down(left_hand, clampgripper, shaft1)&#45;&gt;action:
 put_down(left_hand, clampgripper, shaft1) -->
<g id="edge8" class="edge">
<title>sequence:
 put_down(left_hand, clampgripper, shaft1)&#45;&gt;action:
 put_down(left_hand, clampgripper, shaft1)</title>
<path fill="none" stroke="black" d="M910.73,-113.7C943.07,-100.93 983.94,-84.79 1020.25,-70.45"/>
<polygon fill="black" stroke="black" points="1021.85,-73.59 1029.87,-66.66 1019.28,-67.07 1021.85,-73.59"/>
</g>
<!-- target:
 hold(left_hand, outwardgripper) -->
<g id="node11" class="node">
<title>target:
 hold(left_hand, outwardgripper)</title>
<ellipse fill="#ffec8b" stroke="black" cx="1545.18" cy="-137.82" rx="221.15" ry="33.88"/>
<text text-anchor="middle" x="1545.18" y="-143.42" font-family="Times,serif" font-size="18.00">target:</text>
<text text-anchor="middle" x="1545.18" y="-123.42" font-family="Times,serif" font-size="18.00"> hold(left_hand, outwardgripper)</text>
</g>
<!-- selector:
 change_tool(left_hand, clampgripper, outwardgripper)&#45;&gt;target:
 hold(left_hand, outwardgripper) -->
<g id="edge10" class="edge">
<title>selector:
 change_tool(left_hand, clampgripper, outwardgripper)&#45;&gt;target:
 hold(left_hand, outwardgripper)</title>
<path fill="none" stroke="black" d="M1717.38,-207.62C1689.82,-196.61 1659.55,-184.52 1632.18,-173.58"/>
<polygon fill="black" stroke="black" points="1633.21,-170.23 1622.63,-169.77 1630.62,-176.73 1633.21,-170.23"/>
</g>
<!-- sequence:
 change_tool(left_hand, clampgripper, outwardgripper) -->
<g id="node12" class="node">
<title>sequence:
 change_tool(left_hand, clampgripper, outwardgripper)</title>
<polygon fill="#ff7f24" stroke="black" points="2297.68,-161.82 1784.68,-161.82 1784.68,-113.82 2297.68,-113.82 2297.68,-161.82"/>
<text text-anchor="middle" x="2041.18" y="-143.42" font-family="Times,serif" font-size="18.00">sequence:</text>
<text text-anchor="middle" x="2041.18" y="-123.42" font-family="Times,serif" font-size="18.00"> change_tool(left_hand, clampgripper, outwardgripper)</text>
</g>
<!-- selector:
 change_tool(left_hand, clampgripper, outwardgripper)&#45;&gt;sequence:
 change_tool(left_hand, clampgripper, outwardgripper) -->
<g id="edge11" class="edge">
<title>selector:
 change_tool(left_hand, clampgripper, outwardgripper)&#45;&gt;sequence:
 change_tool(left_hand, clampgripper, outwardgripper)</title>
<path fill="none" stroke="black" d="M1887.38,-207.62C1917.81,-194.01 1951.94,-178.75 1980.3,-166.06"/>
<polygon fill="black" stroke="black" points="1981.99,-169.14 1989.69,-161.86 1979.13,-162.75 1981.99,-169.14"/>
</g>
<!-- &quot;precondition:\n hold(left_hand, clampgripper)&quot;* -->
<g id="node13" class="node">
<title>&quot;precondition:\n hold(left_hand, clampgripper)&quot;*</title>
<ellipse fill="#ffec8b" stroke="black" cx="1635.18" cy="-33.94" rx="219.41" ry="33.88"/>
<text text-anchor="middle" x="1635.18" y="-39.54" font-family="Times,serif" font-size="18.00">&quot;precondition:</text>
<text text-anchor="middle" x="1635.18" y="-19.54" font-family="Times,serif" font-size="18.00"> hold(left_hand, clampgripper)&quot;*</text>
</g>
<!-- sequence:
 change_tool(left_hand, clampgripper, outwardgripper)&#45;&gt;&quot;precondition:\n hold(left_hand, clampgripper)&quot;* -->
<g id="edge12" class="edge">
<title>sequence:
 change_tool(left_hand, clampgripper, outwardgripper)&#45;&gt;&quot;precondition:\n hold(left_hand, clampgripper)&quot;*</title>
<path fill="none" stroke="black" d="M1949.31,-113.77C1892.58,-99.53 1819.11,-81.1 1757.49,-65.63"/>
<polygon fill="black" stroke="black" points="1758.26,-62.22 1747.71,-63.18 1756.55,-69.01 1758.26,-62.22"/>
</g>
<!-- precondition:
 is_empty(clampgripper) -->
<g id="node14" class="node">
<title>precondition:
 is_empty(clampgripper)</title>
<ellipse fill="#ffec8b" stroke="black" cx="2041.18" cy="-33.94" rx="169" ry="33.88"/>
<text text-anchor="middle" x="2041.18" y="-39.54" font-family="Times,serif" font-size="18.00">precondition:</text>
<text text-anchor="middle" x="2041.18" y="-19.54" font-family="Times,serif" font-size="18.00"> is_empty(clampgripper)</text>
</g>
<!-- sequence:
 change_tool(left_hand, clampgripper, outwardgripper)&#45;&gt;precondition:
 is_empty(clampgripper) -->
<g id="edge13" class="edge">
<title>sequence:
 change_tool(left_hand, clampgripper, outwardgripper)&#45;&gt;precondition:
 is_empty(clampgripper)</title>
<path fill="none" stroke="black" d="M2041.18,-113.7C2041.18,-103.16 2041.18,-90.31 2041.18,-78.08"/>
<polygon fill="black" stroke="black" points="2044.68,-78.01 2041.18,-68.01 2037.68,-78.01 2044.68,-78.01"/>
</g>
<!-- action:
 change_tool(left_hand, clampgripper, outwardgripper) -->
<g id="node15" class="node">
<title>action:
 change_tool(left_hand, clampgripper, outwardgripper)</title>
<ellipse fill="lightgreen" stroke="black" cx="2591.18" cy="-33.94" rx="362.99" ry="33.88"/>
<text text-anchor="middle" x="2591.18" y="-39.54" font-family="Times,serif" font-size="18.00">action:</text>
<text text-anchor="middle" x="2591.18" y="-19.54" font-family="Times,serif" font-size="18.00"> change_tool(left_hand, clampgripper, outwardgripper)</text>
</g>
<!-- sequence:
 change_tool(left_hand, clampgripper, outwardgripper)&#45;&gt;action:
 change_tool(left_hand, clampgripper, outwardgripper) -->
<g id="edge14" class="edge">
<title>sequence:
 change_tool(left_hand, clampgripper, outwardgripper)&#45;&gt;action:
 change_tool(left_hand, clampgripper, outwardgripper)</title>
<path fill="none" stroke="black" d="M2165.64,-113.77C2241.39,-99.74 2339.16,-81.63 2421.88,-66.3"/>
<polygon fill="black" stroke="black" points="2422.7,-69.71 2431.89,-64.45 2421.42,-62.83 2422.7,-69.71"/>
</g>
<!-- target:
 hold(outwardgripper, gear2) -->
<g id="node17" class="node">
<title>target:
 hold(outwardgripper, gear2)</title>
<ellipse fill="#ffec8b" stroke="black" cx="2528.18" cy="-137.82" rx="196.65" ry="33.88"/>
<text text-anchor="middle" x="2528.18" y="-143.42" font-family="Times,serif" font-size="18.00">target:</text>
<text text-anchor="middle" x="2528.18" y="-123.42" font-family="Times,serif" font-size="18.00"> hold(outwardgripper, gear2)</text>
</g>
<!-- selector:
 pick_up(left_hand, outwardgripper, gear2)&#45;&gt;target:
 hold(outwardgripper, gear2) -->
<g id="edge16" class="edge">
<title>selector:
 pick_up(left_hand, outwardgripper, gear2)&#45;&gt;target:
 hold(outwardgripper, gear2)</title>
<path fill="none" stroke="black" d="M2528.18,-207.48C2528.18,-199.32 2528.18,-190.58 2528.18,-182.15"/>
<polygon fill="black" stroke="black" points="2531.68,-182.1 2528.18,-172.1 2524.68,-182.1 2531.68,-182.1"/>
</g>
<!-- sequence:
 pick_up(left_hand, outwardgripper, gear2) -->
<g id="node18" class="node">
<title>sequence:
 pick_up(left_hand, outwardgripper, gear2)</title>
<polygon fill="#ff7f24" stroke="black" points="3568.68,-161.82 3163.68,-161.82 3163.68,-113.82 3568.68,-113.82 3568.68,-161.82"/>
<text text-anchor="middle" x="3366.18" y="-143.42" font-family="Times,serif" font-size="18.00">sequence:</text>
<text text-anchor="middle" x="3366.18" y="-123.42" font-family="Times,serif" font-size="18.00"> pick_up(left_hand, outwardgripper, gear2)</text>
</g>
<!-- selector:
 pick_up(left_hand, outwardgripper, gear2)&#45;&gt;sequence:
 pick_up(left_hand, outwardgripper, gear2) -->
<g id="edge17" class="edge">
<title>selector:
 pick_up(left_hand, outwardgripper, gear2)&#45;&gt;sequence:
 pick_up(left_hand, outwardgripper, gear2)</title>
<path fill="none" stroke="black" d="M2738.29,-217.26C2871.3,-200.64 3042.05,-179.31 3171.91,-163.09"/>
<polygon fill="black" stroke="black" points="3172.48,-166.55 3181.97,-161.83 3171.61,-159.6 3172.48,-166.55"/>
</g>
<!-- precondition:
 is_empty(outwardgripper) -->
<g id="node19" class="node">
<title>precondition:
 is_empty(outwardgripper)</title>
<ellipse fill="#ffec8b" stroke="black" cx="3155.18" cy="-33.94" rx="183.28" ry="33.88"/>
<text text-anchor="middle" x="3155.18" y="-39.54" font-family="Times,serif" font-size="18.00">precondition:</text>
<text text-anchor="middle" x="3155.18" y="-19.54" font-family="Times,serif" font-size="18.00"> is_empty(outwardgripper)</text>
</g>
<!-- sequence:
 pick_up(left_hand, outwardgripper, gear2)&#45;&gt;precondition:
 is_empty(outwardgripper) -->
<g id="edge18" class="edge">
<title>sequence:
 pick_up(left_hand, outwardgripper, gear2)&#45;&gt;precondition:
 is_empty(outwardgripper)</title>
<path fill="none" stroke="black" d="M3318.3,-113.7C3291.75,-100.88 3258.17,-84.67 3228.38,-70.29"/>
<polygon fill="black" stroke="black" points="3229.8,-67.08 3219.27,-65.89 3226.76,-73.39 3229.8,-67.08"/>
</g>
<!-- precondition:
 hold(left_hand, outwardgripper) -->
<g id="node20" class="node">
<title>precondition:
 hold(left_hand, outwardgripper)</title>
<ellipse fill="#ffec8b" stroke="black" cx="3577.18" cy="-33.94" rx="221.15" ry="33.88"/>
<text text-anchor="middle" x="3577.18" y="-39.54" font-family="Times,serif" font-size="18.00">precondition:</text>
<text text-anchor="middle" x="3577.18" y="-19.54" font-family="Times,serif" font-size="18.00"> hold(left_hand, outwardgripper)</text>
</g>
<!-- sequence:
 pick_up(left_hand, outwardgripper, gear2)&#45;&gt;precondition:
 hold(left_hand, outwardgripper) -->
<g id="edge19" class="edge">
<title>sequence:
 pick_up(left_hand, outwardgripper, gear2)&#45;&gt;precondition:
 hold(left_hand, outwardgripper)</title>
<path fill="none" stroke="black" d="M3414.06,-113.7C3440.29,-101.04 3473.36,-85.07 3502.87,-70.82"/>
<polygon fill="black" stroke="black" points="3504.41,-73.96 3511.9,-66.46 3501.37,-67.66 3504.41,-73.96"/>
</g>
<!-- action:
 pick_up(left_hand, outwardgripper, gear2) -->
<g id="node21" class="node">
<title>action:
 pick_up(left_hand, outwardgripper, gear2)</title>
<ellipse fill="lightgreen" stroke="black" cx="4103.18" cy="-33.94" rx="286.26" ry="33.88"/>
<text text-anchor="middle" x="4103.18" y="-39.54" font-family="Times,serif" font-size="18.00">action:</text>
<text text-anchor="middle" x="4103.18" y="-19.54" font-family="Times,serif" font-size="18.00"> pick_up(left_hand, outwardgripper, gear2)</text>
</g>
<!-- sequence:
 pick_up(left_hand, outwardgripper, gear2)&#45;&gt;action:
 pick_up(left_hand, outwardgripper, gear2) -->
<g id="edge20" class="edge">
<title>sequence:
 pick_up(left_hand, outwardgripper, gear2)&#45;&gt;action:
 pick_up(left_hand, outwardgripper, gear2)</title>
<path fill="none" stroke="black" d="M3532.96,-113.77C3645.19,-98.25 3793.49,-77.75 3910.73,-61.55"/>
<polygon fill="black" stroke="black" points="3911.47,-64.98 3920.9,-60.14 3910.51,-58.04 3911.47,-64.98"/>
</g>
</g>
</svg>
