<?xml version="1.0" encoding="UTF-8" standalone="no"?>
<!DOCTYPE svg PUBLIC "-//W3C//DTD SVG 1.1//EN"
 "http://www.w3.org/Graphics/SVG/1.1/DTD/svg11.dtd">
<!-- Generated by graphviz version 2.43.0 (0)
 -->
<!-- Title: pastafarianism Pages: 1 -->
<svg width="828pt" height="332pt"
 viewBox="0.00 0.00 828.16 332.00" xmlns="http://www.w3.org/2000/svg" xmlns:xlink="http://www.w3.org/1999/xlink">
<g id="graph0" class="graph" transform="scale(1 1) rotate(0) translate(4 328)">
<title>pastafarianism</title>
<polygon fill="white" stroke="transparent" points="-4,4 -4,-328 824.16,-328 824.16,4 -4,4"/>
<!-- Sequence -->
<g id="node1" class="node">
<title>Sequence</title>
<polygon fill="orange" stroke="black" points="429.51,-324 367.51,-324 367.51,-288 429.51,-288 429.51,-324"/>
<text text-anchor="middle" x="398.51" y="-303.8" font-family="Times,serif" font-size="9.00">Sequence</text>
</g>
<!-- Fallback -->
<g id="node2" class="node">
<title>Fallback</title>
<polygon fill="cyan" stroke="black" points="246.5,-226.54 246.5,-241.46 226,-252 197.01,-252 176.52,-241.46 176.52,-226.54 197.01,-216 226,-216 246.5,-226.54"/>
<text text-anchor="middle" x="211.51" y="-231.8" font-family="Times,serif" font-size="9.00">Fallback</text>
</g>
<!-- Sequence&#45;&gt;Fallback -->
<g id="edge1" class="edge">
<title>Sequence&#45;&gt;Fallback</title>
<path fill="none" stroke="black" d="M367.21,-293.28C334.66,-281.1 283.69,-262.02 249.01,-249.04"/>
<polygon fill="black" stroke="black" points="249.84,-245.61 239.25,-245.38 247.38,-252.17 249.84,-245.61"/>
</g>
<!-- Fallback &#160; -->
<g id="node9" class="node">
<title>Fallback &#160;</title>
<polygon fill="cyan" stroke="black" points="433.5,-226.54 433.5,-241.46 413,-252 384.01,-252 363.52,-241.46 363.52,-226.54 384.01,-216 413,-216 433.5,-226.54"/>
<text text-anchor="middle" x="398.51" y="-231.8" font-family="Times,serif" font-size="9.00">Fallback</text>
</g>
<!-- Sequence&#45;&gt;Fallback &#160; -->
<g id="edge8" class="edge">
<title>Sequence&#45;&gt;Fallback &#160;</title>
<path fill="none" stroke="black" d="M398.51,-287.7C398.51,-279.98 398.51,-270.71 398.51,-262.11"/>
<polygon fill="black" stroke="black" points="402.01,-262.1 398.51,-252.1 395.01,-262.1 402.01,-262.1"/>
</g>
<!-- Fallback &#160;&#160;&#160; -->
<g id="node16" class="node">
<title>Fallback &#160;&#160;&#160;</title>
<polygon fill="cyan" stroke="black" points="615.5,-226.54 615.5,-241.46 595,-252 566.01,-252 545.52,-241.46 545.52,-226.54 566.01,-216 595,-216 615.5,-226.54"/>
<text text-anchor="middle" x="580.51" y="-231.8" font-family="Times,serif" font-size="9.00">Fallback</text>
</g>
<!-- Sequence&#45;&gt;Fallback &#160;&#160;&#160; -->
<g id="edge15" class="edge">
<title>Sequence&#45;&gt;Fallback &#160;&#160;&#160;</title>
<path fill="none" stroke="black" d="M429.8,-292.97C461.43,-280.8 510.31,-262 543.77,-249.13"/>
<polygon fill="black" stroke="black" points="545.12,-252.36 553.19,-245.51 542.6,-245.83 545.12,-252.36"/>
</g>
<!-- YellowBox on KittingBox? -->
<g id="node3" class="node">
<title>YellowBox on KittingBox?</title>
<ellipse fill="lightgray" stroke="black" cx="85.51" cy="-162" rx="77.23" ry="18"/>
<text text-anchor="middle" x="85.51" y="-159.8" font-family="Times,serif" font-size="9.00">YellowBox on KittingBox?</text>
</g>
<!-- Fallback&#45;&gt;YellowBox on KittingBox? -->
<g id="edge2" class="edge">
<title>Fallback&#45;&gt;YellowBox on KittingBox?</title>
<path fill="none" stroke="black" d="M188.4,-220.16C170.12,-210.01 144.24,-195.63 123,-183.83"/>
<polygon fill="black" stroke="black" points="124.66,-180.75 114.22,-178.95 121.26,-186.87 124.66,-180.75"/>
</g>
<!-- Sequence  -->
<g id="node4" class="node">
<title>Sequence </title>
<polygon fill="orange" stroke="black" points="242.51,-180 180.51,-180 180.51,-144 242.51,-144 242.51,-180"/>
<text text-anchor="middle" x="211.51" y="-159.8" font-family="Times,serif" font-size="9.00">Sequence</text>
</g>
<!-- Fallback&#45;&gt;Sequence  -->
<g id="edge3" class="edge">
<title>Fallback&#45;&gt;Sequence </title>
<path fill="none" stroke="black" d="M211.51,-215.7C211.51,-207.98 211.51,-198.71 211.51,-190.11"/>
<polygon fill="black" stroke="black" points="215.01,-190.1 211.51,-180.1 208.01,-190.1 215.01,-190.1"/>
</g>
<!-- Fallback  -->
<g id="node5" class="node">
<title>Fallback </title>
<polygon fill="cyan" stroke="black" points="208.5,-82.54 208.5,-97.46 188,-108 159.01,-108 138.52,-97.46 138.52,-82.54 159.01,-72 188,-72 208.5,-82.54"/>
<text text-anchor="middle" x="173.51" y="-87.8" font-family="Times,serif" font-size="9.00">Fallback</text>
</g>
<!-- Sequence &#45;&gt;Fallback  -->
<g id="edge4" class="edge">
<title>Sequence &#45;&gt;Fallback </title>
<path fill="none" stroke="black" d="M202.12,-143.7C197.74,-135.64 192.45,-125.89 187.61,-116.98"/>
<polygon fill="black" stroke="black" points="190.64,-115.22 182.79,-108.1 184.49,-118.56 190.64,-115.22"/>
</g>
<!-- Place YellowBox! -->
<g id="node8" class="node">
<title>Place YellowBox!</title>
<ellipse fill="lightgray" stroke="black" cx="281.51" cy="-90" rx="54.7" ry="18"/>
<text text-anchor="middle" x="281.51" y="-87.8" font-family="Times,serif" font-size="9.00">Place YellowBox!</text>
</g>
<!-- Sequence &#45;&gt;Place YellowBox! -->
<g id="edge7" class="edge">
<title>Sequence &#45;&gt;Place YellowBox!</title>
<path fill="none" stroke="black" d="M228.81,-143.7C237.5,-135.01 248.17,-124.34 257.62,-114.89"/>
<polygon fill="black" stroke="black" points="260.29,-117.17 264.89,-107.62 255.34,-112.22 260.29,-117.17"/>
</g>
<!-- YellowBox Grasped? -->
<g id="node6" class="node">
<title>YellowBox Grasped?</title>
<ellipse fill="lightgray" stroke="black" cx="63.51" cy="-18" rx="63.52" ry="18"/>
<text text-anchor="middle" x="63.51" y="-15.8" font-family="Times,serif" font-size="9.00">YellowBox Grasped?</text>
</g>
<!-- Fallback &#45;&gt;YellowBox Grasped? -->
<g id="edge5" class="edge">
<title>Fallback &#45;&gt;YellowBox Grasped?</title>
<path fill="none" stroke="black" d="M152.04,-75.34C136.35,-65.35 114.77,-51.62 96.85,-40.22"/>
<polygon fill="black" stroke="black" points="98.7,-37.25 88.39,-34.83 94.94,-43.15 98.7,-37.25"/>
</g>
<!-- Pick YellowBox! -->
<g id="node7" class="node">
<title>Pick YellowBox!</title>
<ellipse fill="lightgray" stroke="black" cx="196.51" cy="-18" rx="51.27" ry="18"/>
<text text-anchor="middle" x="196.51" y="-15.8" font-family="Times,serif" font-size="9.00">Pick YellowBox!</text>
</g>
<!-- Fallback &#45;&gt;Pick YellowBox! -->
<g id="edge6" class="edge">
<title>Fallback &#45;&gt;Pick YellowBox!</title>
<path fill="none" stroke="black" d="M179.19,-71.7C181.76,-63.9 184.84,-54.51 187.69,-45.83"/>
<polygon fill="black" stroke="black" points="191.09,-46.7 190.89,-36.1 184.44,-44.51 191.09,-46.7"/>
</g>
<!-- GreenBox on YellowBox? -->
<g id="node10" class="node">
<title>GreenBox on YellowBox?</title>
<ellipse fill="lightgray" stroke="black" cx="336.51" cy="-162" rx="75.77" ry="18"/>
<text text-anchor="middle" x="336.51" y="-159.8" font-family="Times,serif" font-size="9.00">GreenBox on YellowBox?</text>
</g>
<!-- Fallback &#160;&#45;&gt;GreenBox on YellowBox? -->
<g id="edge9" class="edge">
<title>Fallback &#160;&#45;&gt;GreenBox on YellowBox?</title>
<path fill="none" stroke="black" d="M383.5,-216.05C375.88,-207.46 366.5,-196.86 358.12,-187.4"/>
<polygon fill="black" stroke="black" points="360.63,-184.95 351.38,-179.79 355.39,-189.6 360.63,-184.95"/>
</g>
<!-- Sequence &#160; -->
<g id="node11" class="node">
<title>Sequence &#160;</title>
<polygon fill="orange" stroke="black" points="492.51,-180 430.51,-180 430.51,-144 492.51,-144 492.51,-180"/>
<text text-anchor="middle" x="461.51" y="-159.8" font-family="Times,serif" font-size="9.00">Sequence</text>
</g>
<!-- Fallback &#160;&#45;&gt;Sequence &#160; -->
<g id="edge10" class="edge">
<title>Fallback &#160;&#45;&gt;Sequence &#160;</title>
<path fill="none" stroke="black" d="M413.76,-216.05C421.38,-207.58 430.76,-197.17 439.17,-187.82"/>
<polygon fill="black" stroke="black" points="441.87,-190.05 445.96,-180.28 436.67,-185.37 441.87,-190.05"/>
</g>
<!-- Fallback &#160;&#160; -->
<g id="node12" class="node">
<title>Fallback &#160;&#160;</title>
<polygon fill="cyan" stroke="black" points="427.5,-82.54 427.5,-97.46 407,-108 378.01,-108 357.52,-97.46 357.52,-82.54 378.01,-72 407,-72 427.5,-82.54"/>
<text text-anchor="middle" x="392.51" y="-87.8" font-family="Times,serif" font-size="9.00">Fallback</text>
</g>
<!-- Sequence &#160;&#45;&gt;Fallback &#160;&#160; -->
<g id="edge11" class="edge">
<title>Sequence &#160;&#45;&gt;Fallback &#160;&#160;</title>
<path fill="none" stroke="black" d="M444.45,-143.7C435.89,-135.01 425.38,-124.34 416.05,-114.89"/>
<polygon fill="black" stroke="black" points="418.41,-112.29 408.89,-107.62 413.42,-117.2 418.41,-112.29"/>
</g>
<!-- Place GreenBox! -->
<g id="node15" class="node">
<title>Place GreenBox!</title>
<ellipse fill="lightgray" stroke="black" cx="499.51" cy="-90" rx="54.04" ry="18"/>
<text text-anchor="middle" x="499.51" y="-87.8" font-family="Times,serif" font-size="9.00">Place GreenBox!</text>
</g>
<!-- Sequence &#160;&#45;&gt;Place GreenBox! -->
<g id="edge14" class="edge">
<title>Sequence &#160;&#45;&gt;Place GreenBox!</title>
<path fill="none" stroke="black" d="M470.9,-143.7C475.27,-135.64 480.57,-125.89 485.4,-116.98"/>
<polygon fill="black" stroke="black" points="488.53,-118.56 490.22,-108.1 482.38,-115.22 488.53,-118.56"/>
</g>
<!-- GreenBox Grasped? -->
<g id="node13" class="node">
<title>GreenBox Grasped?</title>
<ellipse fill="lightgray" stroke="black" cx="370.51" cy="-18" rx="62.86" ry="18"/>
<text text-anchor="middle" x="370.51" y="-15.8" font-family="Times,serif" font-size="9.00">GreenBox Grasped?</text>
</g>
<!-- Fallback &#160;&#160;&#45;&gt;GreenBox Grasped? -->
<g id="edge12" class="edge">
<title>Fallback &#160;&#160;&#45;&gt;GreenBox Grasped?</title>
<path fill="none" stroke="black" d="M387.07,-71.7C384.62,-63.9 381.67,-54.51 378.94,-45.83"/>
<polygon fill="black" stroke="black" points="382.22,-44.59 375.88,-36.1 375.54,-46.69 382.22,-44.59"/>
</g>
<!-- Pick GreenBox! -->
<g id="node14" class="node">
<title>Pick GreenBox!</title>
<ellipse fill="lightgray" stroke="black" cx="502.51" cy="-18" rx="51.27" ry="18"/>
<text text-anchor="middle" x="502.51" y="-15.8" font-family="Times,serif" font-size="9.00">Pick GreenBox!</text>
</g>
<!-- Fallback &#160;&#160;&#45;&gt;Pick GreenBox! -->
<g id="edge13" class="edge">
<title>Fallback &#160;&#160;&#45;&gt;Pick GreenBox!</title>
<path fill="none" stroke="black" d="M413.98,-75.34C429.99,-65.15 452.13,-51.06 470.27,-39.52"/>
<polygon fill="black" stroke="black" points="472.25,-42.41 478.8,-34.08 468.49,-36.5 472.25,-42.41"/>
</g>
<!-- BlueBox on GreenBox? -->
<g id="node17" class="node">
<title>BlueBox on GreenBox?</title>
<ellipse fill="lightgray" stroke="black" cx="580.51" cy="-162" rx="70.37" ry="18"/>
<text text-anchor="middle" x="580.51" y="-159.8" font-family="Times,serif" font-size="9.00">BlueBox on GreenBox?</text>
</g>
<!-- Fallback &#160;&#160;&#160;&#45;&gt;BlueBox on GreenBox? -->
<g id="edge16" class="edge">
<title>Fallback &#160;&#160;&#160;&#45;&gt;BlueBox on GreenBox?</title>
<path fill="none" stroke="black" d="M580.51,-215.7C580.51,-207.98 580.51,-198.71 580.51,-190.11"/>
<polygon fill="black" stroke="black" points="584.01,-190.1 580.51,-180.1 577.01,-190.1 584.01,-190.1"/>
</g>
<!-- Sequence &#160;&#160; -->
<g id="node18" class="node">
<title>Sequence &#160;&#160;</title>
<polygon fill="orange" stroke="black" points="730.51,-180 668.51,-180 668.51,-144 730.51,-144 730.51,-180"/>
<text text-anchor="middle" x="699.51" y="-159.8" font-family="Times,serif" font-size="9.00">Sequence</text>
</g>
<!-- Fallback &#160;&#160;&#160;&#45;&gt;Sequence &#160;&#160; -->
<g id="edge17" class="edge">
<title>Fallback &#160;&#160;&#160;&#45;&gt;Sequence &#160;&#160;</title>
<path fill="none" stroke="black" d="M602.89,-219.83C619.47,-210.08 642.46,-196.56 661.85,-185.15"/>
<polygon fill="black" stroke="black" points="663.62,-188.17 670.47,-180.08 660.08,-182.14 663.62,-188.17"/>
</g>
<!-- Fallback &#160;&#160;&#160;&#160; -->
<g id="node19" class="node">
<title>Fallback &#160;&#160;&#160;&#160;</title>
<polygon fill="cyan" stroke="black" points="702.5,-82.54 702.5,-97.46 682,-108 653.01,-108 632.52,-97.46 632.52,-82.54 653.01,-72 682,-72 702.5,-82.54"/>
<text text-anchor="middle" x="667.51" y="-87.8" font-family="Times,serif" font-size="9.00">Fallback</text>
</g>
<!-- Sequence &#160;&#160;&#45;&gt;Fallback &#160;&#160;&#160;&#160; -->
<g id="edge18" class="edge">
<title>Sequence &#160;&#160;&#45;&gt;Fallback &#160;&#160;&#160;&#160;</title>
<path fill="none" stroke="black" d="M691.6,-143.7C687.96,-135.73 683.55,-126.1 679.51,-117.26"/>
<polygon fill="black" stroke="black" points="682.67,-115.74 675.33,-108.1 676.3,-118.65 682.67,-115.74"/>
</g>
<!-- Place BlueBox! -->
<g id="node22" class="node">
<title>Place BlueBox!</title>
<ellipse fill="lightgray" stroke="black" cx="770.51" cy="-90" rx="49.8" ry="18"/>
<text text-anchor="middle" x="770.51" y="-87.8" font-family="Times,serif" font-size="9.00">Place BlueBox!</text>
</g>
<!-- Sequence &#160;&#160;&#45;&gt;Place BlueBox! -->
<g id="edge21" class="edge">
<title>Sequence &#160;&#160;&#45;&gt;Place BlueBox!</title>
<path fill="none" stroke="black" d="M717.06,-143.7C726.09,-134.79 737.23,-123.81 746.99,-114.19"/>
<polygon fill="black" stroke="black" points="749.47,-116.66 754.13,-107.14 744.55,-111.67 749.47,-116.66"/>
</g>
<!-- BlueBox Grasped? -->
<g id="node20" class="node">
<title>BlueBox Grasped?</title>
<ellipse fill="lightgray" stroke="black" cx="636.51" cy="-18" rx="58.13" ry="18"/>
<text text-anchor="middle" x="636.51" y="-15.8" font-family="Times,serif" font-size="9.00">BlueBox Grasped?</text>
</g>
<!-- Fallback &#160;&#160;&#160;&#160;&#45;&gt;BlueBox Grasped? -->
<g id="edge19" class="edge">
<title>Fallback &#160;&#160;&#160;&#160;&#45;&gt;BlueBox Grasped?</title>
<path fill="none" stroke="black" d="M659.85,-71.7C656.32,-63.73 652.05,-54.1 648.14,-45.26"/>
<polygon fill="black" stroke="black" points="651.33,-43.83 644.08,-36.1 644.93,-46.67 651.33,-43.83"/>
</g>
<!-- Pick BlueBox! -->
<g id="node21" class="node">
<title>Pick BlueBox!</title>
<ellipse fill="lightgray" stroke="black" cx="759.51" cy="-18" rx="46.53" ry="18"/>
<text text-anchor="middle" x="759.51" y="-15.8" font-family="Times,serif" font-size="9.00">Pick BlueBox!</text>
</g>
<!-- Fallback &#160;&#160;&#160;&#160;&#45;&gt;Pick BlueBox! -->
<g id="edge20" class="edge">
<title>Fallback &#160;&#160;&#160;&#160;&#45;&gt;Pick BlueBox!</title>
<path fill="none" stroke="black" d="M687.02,-74.15C699.89,-64.36 716.97,-51.37 731.31,-40.45"/>
<polygon fill="black" stroke="black" points="733.55,-43.15 739.39,-34.31 729.31,-37.58 733.55,-43.15"/>
</g>
</g>
</svg>
