<?xml version="1.0" encoding="UTF-8" standalone="no"?>
<!DOCTYPE svg PUBLIC "-//W3C//DTD SVG 1.1//EN"
 "http://www.w3.org/Graphics/SVG/1.1/DTD/svg11.dtd">
<!-- Generated by graphviz version 2.43.0 (0)
 -->
<!-- Title: pastafarianism Pages: 1 -->
<svg width="1937pt" height="716pt"
 viewBox="0.00 0.00 1936.84 715.95" xmlns="http://www.w3.org/2000/svg" xmlns:xlink="http://www.w3.org/1999/xlink">
<g id="graph0" class="graph" transform="scale(1 1) rotate(0) translate(4 711.95)">
<title>pastafarianism</title>
<polygon fill="white" stroke="transparent" points="-4,4 -4,-711.95 1932.84,-711.95 1932.84,4 -4,4"/>
<!-- selector:
 insert(left_hand, defaultgripper, gear3, shaft3) -->
<g id="node1" class="node">
<title>selector:
 insert(left_hand, defaultgripper, gear3, shaft3)</title>
<polygon fill="#8deeee" stroke="black" points="1213.86,-655.9 1213.86,-686.53 1014.3,-708.19 732.07,-708.19 532.51,-686.53 532.51,-655.9 732.07,-634.24 1014.3,-634.24 1213.86,-655.9"/>
<text text-anchor="middle" x="873.18" y="-676.82" font-family="Times,serif" font-size="18.00">selector:</text>
<text text-anchor="middle" x="873.18" y="-656.82" font-family="Times,serif" font-size="18.00"> insert(left_hand, defaultgripper, gear3, shaft3)</text>
</g>
<!-- target:
 is_inserted_to(gear3, shaft3) -->
<g id="node2" class="node">
<title>target:
 is_inserted_to(gear3, shaft3)</title>
<ellipse fill="#ffec8b" stroke="black" cx="654.18" cy="-564.54" rx="198.89" ry="33.88"/>
<text text-anchor="middle" x="654.18" y="-570.14" font-family="Times,serif" font-size="18.00">target:</text>
<text text-anchor="middle" x="654.18" y="-550.14" font-family="Times,serif" font-size="18.00"> is_inserted_to(gear3, shaft3)</text>
</g>
<!-- selector:
 insert(left_hand, defaultgripper, gear3, shaft3)&#45;&gt;target:
 is_inserted_to(gear3, shaft3) -->
<g id="edge1" class="edge">
<title>selector:
 insert(left_hand, defaultgripper, gear3, shaft3)&#45;&gt;target:
 is_inserted_to(gear3, shaft3)</title>
<path fill="none" stroke="black" d="M798.12,-634.34C775.59,-623.57 750.9,-611.77 728.43,-601.03"/>
<polygon fill="black" stroke="black" points="729.81,-597.81 719.28,-596.65 726.79,-604.12 729.81,-597.81"/>
</g>
<!-- sequence:
 insert(left_hand, defaultgripper, gear3, shaft3) -->
<g id="node3" class="node">
<title>sequence:
 insert(left_hand, defaultgripper, gear3, shaft3)</title>
<polygon fill="#ff7f24" stroke="black" points="1315.68,-588.54 870.68,-588.54 870.68,-540.54 1315.68,-540.54 1315.68,-588.54"/>
<text text-anchor="middle" x="1093.18" y="-570.14" font-family="Times,serif" font-size="18.00">sequence:</text>
<text text-anchor="middle" x="1093.18" y="-550.14" font-family="Times,serif" font-size="18.00"> insert(left_hand, defaultgripper, gear3, shaft3)</text>
</g>
<!-- selector:
 insert(left_hand, defaultgripper, gear3, shaft3)&#45;&gt;sequence:
 insert(left_hand, defaultgripper, gear3, shaft3) -->
<g id="edge2" class="edge">
<title>selector:
 insert(left_hand, defaultgripper, gear3, shaft3)&#45;&gt;sequence:
 insert(left_hand, defaultgripper, gear3, shaft3)</title>
<path fill="none" stroke="black" d="M948.59,-634.34C977.07,-620.79 1009,-605.59 1035.6,-592.94"/>
<polygon fill="black" stroke="black" points="1037.24,-596.03 1044.77,-588.58 1034.23,-589.71 1037.24,-596.03"/>
</g>
<!-- selector:
 change_tool(left_hand, clampgripper, defaultgripper) -->
<g id="node4" class="node">
<title>selector:
 change_tool(left_hand, clampgripper, defaultgripper)</title>
<polygon fill="#8deeee" stroke="black" points="886.61,-442.54 886.61,-473.18 661.42,-494.84 342.95,-494.84 117.75,-473.18 117.75,-442.54 342.95,-420.88 661.42,-420.88 886.61,-442.54"/>
<text text-anchor="middle" x="502.18" y="-463.46" font-family="Times,serif" font-size="18.00">selector:</text>
<text text-anchor="middle" x="502.18" y="-443.46" font-family="Times,serif" font-size="18.00"> change_tool(left_hand, clampgripper, defaultgripper)</text>
</g>
<!-- sequence:
 insert(left_hand, defaultgripper, gear3, shaft3)&#45;&gt;selector:
 change_tool(left_hand, clampgripper, defaultgripper) -->
<g id="edge3" class="edge">
<title>sequence:
 insert(left_hand, defaultgripper, gear3, shaft3)&#45;&gt;selector:
 change_tool(left_hand, clampgripper, defaultgripper)</title>
<path fill="none" stroke="black" d="M963.12,-540.5C885.97,-526.84 786.63,-509.24 699.93,-493.89"/>
<polygon fill="black" stroke="black" points="700.42,-490.42 689.97,-492.12 699.2,-497.31 700.42,-490.42"/>
</g>
<!-- precondition:
 hold(defaultgripper, gear3) -->
<g id="node15" class="node">
<title>precondition:
 hold(defaultgripper, gear3)</title>
<ellipse fill="#ffec8b" stroke="black" cx="1093.18" cy="-457.86" rx="188.6" ry="33.88"/>
<text text-anchor="middle" x="1093.18" y="-463.46" font-family="Times,serif" font-size="18.00">precondition:</text>
<text text-anchor="middle" x="1093.18" y="-443.46" font-family="Times,serif" font-size="18.00"> hold(defaultgripper, gear3)</text>
</g>
<!-- sequence:
 insert(left_hand, defaultgripper, gear3, shaft3)&#45;&gt;precondition:
 hold(defaultgripper, gear3) -->
<g id="edge14" class="edge">
<title>sequence:
 insert(left_hand, defaultgripper, gear3, shaft3)&#45;&gt;precondition:
 hold(defaultgripper, gear3)</title>
<path fill="none" stroke="black" d="M1093.18,-540.31C1093.18,-529.09 1093.18,-515.26 1093.18,-502.2"/>
<polygon fill="black" stroke="black" points="1096.68,-501.95 1093.18,-491.95 1089.68,-501.95 1096.68,-501.95"/>
</g>
<!-- action:
 insert(left_hand, defaultgripper, gear3, shaft3) -->
<g id="node16" class="node">
<title>action:
 insert(left_hand, defaultgripper, gear3, shaft3)</title>
<ellipse fill="lightgreen" stroke="black" cx="1614.18" cy="-457.86" rx="314.83" ry="33.88"/>
<text text-anchor="middle" x="1614.18" y="-463.46" font-family="Times,serif" font-size="18.00">action:</text>
<text text-anchor="middle" x="1614.18" y="-443.46" font-family="Times,serif" font-size="18.00"> insert(left_hand, defaultgripper, gear3, shaft3)</text>
</g>
<!-- sequence:
 insert(left_hand, defaultgripper, gear3, shaft3)&#45;&gt;action:
 insert(left_hand, defaultgripper, gear3, shaft3) -->
<g id="edge15" class="edge">
<title>sequence:
 insert(left_hand, defaultgripper, gear3, shaft3)&#45;&gt;action:
 insert(left_hand, defaultgripper, gear3, shaft3)</title>
<path fill="none" stroke="black" d="M1207.84,-540.5C1281.54,-525.69 1378.21,-506.27 1458.77,-490.08"/>
<polygon fill="black" stroke="black" points="1459.9,-493.43 1469.02,-488.03 1458.52,-486.56 1459.9,-493.43"/>
</g>
<!-- target:
 hold(left_hand, defaultgripper) -->
<g id="node5" class="node">
<title>target:
 hold(left_hand, defaultgripper)</title>
<ellipse fill="#ffec8b" stroke="black" cx="261.18" cy="-351.18" rx="213.59" ry="33.88"/>
<text text-anchor="middle" x="261.18" y="-356.78" font-family="Times,serif" font-size="18.00">target:</text>
<text text-anchor="middle" x="261.18" y="-336.78" font-family="Times,serif" font-size="18.00"> hold(left_hand, defaultgripper)</text>
</g>
<!-- selector:
 change_tool(left_hand, clampgripper, defaultgripper)&#45;&gt;target:
 hold(left_hand, defaultgripper) -->
<g id="edge4" class="edge">
<title>selector:
 change_tool(left_hand, clampgripper, defaultgripper)&#45;&gt;target:
 hold(left_hand, defaultgripper)</title>
<path fill="none" stroke="black" d="M419.58,-420.98C394.57,-410.12 367.13,-398.2 342.23,-387.38"/>
<polygon fill="black" stroke="black" points="343.38,-384.07 332.82,-383.29 340.59,-390.49 343.38,-384.07"/>
</g>
<!-- sequence:
 change_tool(left_hand, clampgripper, defaultgripper) -->
<g id="node6" class="node">
<title>sequence:
 change_tool(left_hand, clampgripper, defaultgripper)</title>
<polygon fill="#ff7f24" stroke="black" points="995.18,-375.18 493.18,-375.18 493.18,-327.18 995.18,-327.18 995.18,-375.18"/>
<text text-anchor="middle" x="744.18" y="-356.78" font-family="Times,serif" font-size="18.00">sequence:</text>
<text text-anchor="middle" x="744.18" y="-336.78" font-family="Times,serif" font-size="18.00"> change_tool(left_hand, clampgripper, defaultgripper)</text>
</g>
<!-- selector:
 change_tool(left_hand, clampgripper, defaultgripper)&#45;&gt;sequence:
 change_tool(left_hand, clampgripper, defaultgripper) -->
<g id="edge5" class="edge">
<title>selector:
 change_tool(left_hand, clampgripper, defaultgripper)&#45;&gt;sequence:
 change_tool(left_hand, clampgripper, defaultgripper)</title>
<path fill="none" stroke="black" d="M585.13,-420.98C616.73,-407.31 652.2,-391.97 681.6,-379.25"/>
<polygon fill="black" stroke="black" points="683.14,-382.4 690.92,-375.22 680.36,-375.98 683.14,-382.4"/>
</g>
<!-- precondition:
 hold(left_hand, clampgripper) -->
<g id="node7" class="node">
<title>precondition:
 hold(left_hand, clampgripper)</title>
<ellipse fill="#ffec8b" stroke="black" cx="207.18" cy="-244.5" rx="207.36" ry="33.88"/>
<text text-anchor="middle" x="207.18" y="-250.1" font-family="Times,serif" font-size="18.00">precondition:</text>
<text text-anchor="middle" x="207.18" y="-230.1" font-family="Times,serif" font-size="18.00"> hold(left_hand, clampgripper)</text>
</g>
<!-- sequence:
 change_tool(left_hand, clampgripper, defaultgripper)&#45;&gt;precondition:
 hold(left_hand, clampgripper) -->
<g id="edge6" class="edge">
<title>sequence:
 change_tool(left_hand, clampgripper, defaultgripper)&#45;&gt;precondition:
 hold(left_hand, clampgripper)</title>
<path fill="none" stroke="black" d="M626,-327.14C543.94,-311.15 434.22,-289.76 347.68,-272.89"/>
<polygon fill="black" stroke="black" points="348.26,-269.44 337.78,-270.96 346.92,-276.31 348.26,-269.44"/>
</g>
<!-- selector:
 put_down(left_hand, clampgripper, shaft1) -->
<g id="node8" class="node">
<title>selector:
 put_down(left_hand, clampgripper, shaft1)</title>
<polygon fill="#8deeee" stroke="black" points="1055.69,-229.19 1055.69,-259.82 873.21,-281.48 615.15,-281.48 432.67,-259.82 432.67,-229.19 615.15,-207.53 873.21,-207.53 1055.69,-229.19"/>
<text text-anchor="middle" x="744.18" y="-250.1" font-family="Times,serif" font-size="18.00">selector:</text>
<text text-anchor="middle" x="744.18" y="-230.1" font-family="Times,serif" font-size="18.00"> put_down(left_hand, clampgripper, shaft1)</text>
</g>
<!-- sequence:
 change_tool(left_hand, clampgripper, defaultgripper)&#45;&gt;selector:
 put_down(left_hand, clampgripper, shaft1) -->
<g id="edge7" class="edge">
<title>sequence:
 change_tool(left_hand, clampgripper, defaultgripper)&#45;&gt;selector:
 put_down(left_hand, clampgripper, shaft1)</title>
<path fill="none" stroke="black" d="M744.18,-326.95C744.18,-316.5 744.18,-303.79 744.18,-291.54"/>
<polygon fill="black" stroke="black" points="747.68,-291.42 744.18,-281.42 740.68,-291.42 747.68,-291.42"/>
</g>
<!-- action:
 change_tool(left_hand, clampgripper, defaultgripper) -->
<g id="node14" class="node">
<title>action:
 change_tool(left_hand, clampgripper, defaultgripper)</title>
<ellipse fill="lightgreen" stroke="black" cx="1428.18" cy="-244.5" rx="354.94" ry="33.88"/>
<text text-anchor="middle" x="1428.18" y="-250.1" font-family="Times,serif" font-size="18.00">action:</text>
<text text-anchor="middle" x="1428.18" y="-230.1" font-family="Times,serif" font-size="18.00"> change_tool(left_hand, clampgripper, defaultgripper)</text>
</g>
<!-- sequence:
 change_tool(left_hand, clampgripper, defaultgripper)&#45;&gt;action:
 change_tool(left_hand, clampgripper, defaultgripper) -->
<g id="edge13" class="edge">
<title>sequence:
 change_tool(left_hand, clampgripper, defaultgripper)&#45;&gt;action:
 change_tool(left_hand, clampgripper, defaultgripper)</title>
<path fill="none" stroke="black" d="M894.71,-327.14C994.65,-311.85 1126.76,-291.63 1234.51,-275.14"/>
<polygon fill="black" stroke="black" points="1235.18,-278.58 1244.53,-273.61 1234.12,-271.66 1235.18,-278.58"/>
</g>
<!-- target:
 is_empty(clampgripper) -->
<g id="node9" class="node">
<title>target:
 is_empty(clampgripper)</title>
<ellipse fill="#ffec8b" stroke="black" cx="549.18" cy="-137.82" rx="169" ry="33.88"/>
<text text-anchor="middle" x="549.18" y="-143.42" font-family="Times,serif" font-size="18.00">target:</text>
<text text-anchor="middle" x="549.18" y="-123.42" font-family="Times,serif" font-size="18.00"> is_empty(clampgripper)</text>
</g>
<!-- selector:
 put_down(left_hand, clampgripper, shaft1)&#45;&gt;target:
 is_empty(clampgripper) -->
<g id="edge8" class="edge">
<title>selector:
 put_down(left_hand, clampgripper, shaft1)&#45;&gt;target:
 is_empty(clampgripper)</title>
<path fill="none" stroke="black" d="M677.35,-207.62C657.46,-196.95 635.68,-185.26 615.81,-174.59"/>
<polygon fill="black" stroke="black" points="617.29,-171.41 606.82,-169.77 613.98,-177.58 617.29,-171.41"/>
</g>
<!-- sequence:
 put_down(left_hand, clampgripper, shaft1) -->
<g id="node10" class="node">
<title>sequence:
 put_down(left_hand, clampgripper, shaft1)</title>
<polygon fill="#ff7f24" stroke="black" points="1142.68,-161.82 735.68,-161.82 735.68,-113.82 1142.68,-113.82 1142.68,-161.82"/>
<text text-anchor="middle" x="939.18" y="-143.42" font-family="Times,serif" font-size="18.00">sequence:</text>
<text text-anchor="middle" x="939.18" y="-123.42" font-family="Times,serif" font-size="18.00"> put_down(left_hand, clampgripper, shaft1)</text>
</g>
<!-- selector:
 put_down(left_hand, clampgripper, shaft1)&#45;&gt;sequence:
 put_down(left_hand, clampgripper, shaft1) -->
<g id="edge9" class="edge">
<title>selector:
 put_down(left_hand, clampgripper, shaft1)&#45;&gt;sequence:
 put_down(left_hand, clampgripper, shaft1)</title>
<path fill="none" stroke="black" d="M811.02,-207.62C835.93,-194.25 863.83,-179.28 887.21,-166.72"/>
<polygon fill="black" stroke="black" points="889.11,-169.67 896.27,-161.86 885.8,-163.51 889.11,-169.67"/>
</g>
<!-- &quot;precondition:\n hold(left_hand, clampgripper)&quot;* -->
<g id="node11" class="node">
<title>&quot;precondition:\n hold(left_hand, clampgripper)&quot;*</title>
<ellipse fill="#ffec8b" stroke="black" cx="516.18" cy="-33.94" rx="219.41" ry="33.88"/>
<text text-anchor="middle" x="516.18" y="-39.54" font-family="Times,serif" font-size="18.00">&quot;precondition:</text>
<text text-anchor="middle" x="516.18" y="-19.54" font-family="Times,serif" font-size="18.00"> hold(left_hand, clampgripper)&quot;*</text>
</g>
<!-- sequence:
 put_down(left_hand, clampgripper, shaft1)&#45;&gt;&quot;precondition:\n hold(left_hand, clampgripper)&quot;* -->
<g id="edge10" class="edge">
<title>sequence:
 put_down(left_hand, clampgripper, shaft1)&#45;&gt;&quot;precondition:\n hold(left_hand, clampgripper)&quot;*</title>
<path fill="none" stroke="black" d="M843.46,-113.77C783.77,-99.39 706.29,-80.73 641.71,-65.17"/>
<polygon fill="black" stroke="black" points="642.41,-61.74 631.87,-62.8 640.77,-68.55 642.41,-61.74"/>
</g>
<!-- precondition:
 hold(clampgripper, shaft1) -->
<g id="node12" class="node">
<title>precondition:
 hold(clampgripper, shaft1)</title>
<ellipse fill="#ffec8b" stroke="black" cx="939.18" cy="-33.94" rx="185.94" ry="33.88"/>
<text text-anchor="middle" x="939.18" y="-39.54" font-family="Times,serif" font-size="18.00">precondition:</text>
<text text-anchor="middle" x="939.18" y="-19.54" font-family="Times,serif" font-size="18.00"> hold(clampgripper, shaft1)</text>
</g>
<!-- sequence:
 put_down(left_hand, clampgripper, shaft1)&#45;&gt;precondition:
 hold(clampgripper, shaft1) -->
<g id="edge11" class="edge">
<title>sequence:
 put_down(left_hand, clampgripper, shaft1)&#45;&gt;precondition:
 hold(clampgripper, shaft1)</title>
<path fill="none" stroke="black" d="M939.18,-113.7C939.18,-103.16 939.18,-90.31 939.18,-78.08"/>
<polygon fill="black" stroke="black" points="942.68,-78.01 939.18,-68.01 935.68,-78.01 942.68,-78.01"/>
</g>
<!-- action:
 put_down(left_hand, clampgripper, shaft1) -->
<g id="node13" class="node">
<title>action:
 put_down(left_hand, clampgripper, shaft1)</title>
<ellipse fill="lightgreen" stroke="black" cx="1431.18" cy="-33.94" rx="287.59" ry="33.88"/>
<text text-anchor="middle" x="1431.18" y="-39.54" font-family="Times,serif" font-size="18.00">action:</text>
<text text-anchor="middle" x="1431.18" y="-19.54" font-family="Times,serif" font-size="18.00"> put_down(left_hand, clampgripper, shaft1)</text>
</g>
<!-- sequence:
 put_down(left_hand, clampgripper, shaft1)&#45;&gt;action:
 put_down(left_hand, clampgripper, shaft1) -->
<g id="edge12" class="edge">
<title>sequence:
 put_down(left_hand, clampgripper, shaft1)&#45;&gt;action:
 put_down(left_hand, clampgripper, shaft1)</title>
<path fill="none" stroke="black" d="M1050.52,-113.77C1119.02,-99.58 1207.65,-81.23 1282.16,-65.8"/>
<polygon fill="black" stroke="black" points="1283.02,-69.2 1292.11,-63.74 1281.6,-62.34 1283.02,-69.2"/>
</g>
</g>
</svg>
