<?xml version="1.0" encoding="UTF-8" standalone="no"?>
<!DOCTYPE svg PUBLIC "-//W3C//DTD SVG 1.1//EN"
 "http://www.w3.org/Graphics/SVG/1.1/DTD/svg11.dtd">
<!-- Generated by graphviz version 2.43.0 (0)
 -->
<!-- Title: pastafarianism Pages: 1 -->
<svg width="3181pt" height="716pt"
 viewBox="0.00 0.00 3180.78 715.95" xmlns="http://www.w3.org/2000/svg" xmlns:xlink="http://www.w3.org/1999/xlink">
<g id="graph0" class="graph" transform="scale(1 1) rotate(0) translate(4 711.95)">
<title>pastafarianism</title>
<polygon fill="white" stroke="transparent" points="-4,4 -4,-711.95 3176.78,-711.95 3176.78,4 -4,4"/>
<!-- selector:
 insert(left_hand, defaultgripper, gear3, shaft3) -->
<g id="node1" class="node">
<title>selector:
 insert(left_hand, defaultgripper, gear3, shaft3)</title>
<polygon fill="#8deeee" stroke="black" points="1690.86,-655.9 1690.86,-686.53 1491.3,-708.19 1209.07,-708.19 1009.51,-686.53 1009.51,-655.9 1209.07,-634.24 1491.3,-634.24 1690.86,-655.9"/>
<text text-anchor="middle" x="1350.18" y="-676.82" font-family="Times,serif" font-size="18.00">selector:</text>
<text text-anchor="middle" x="1350.18" y="-656.82" font-family="Times,serif" font-size="18.00"> insert(left_hand, defaultgripper, gear3, shaft3)</text>
</g>
<!-- target:
 is_inserted_to(gear3, shaft3) -->
<g id="node2" class="node">
<title>target:
 is_inserted_to(gear3, shaft3)</title>
<ellipse fill="#ffec8b" stroke="black" cx="1131.18" cy="-564.54" rx="198.89" ry="33.88"/>
<text text-anchor="middle" x="1131.18" y="-570.14" font-family="Times,serif" font-size="18.00">target:</text>
<text text-anchor="middle" x="1131.18" y="-550.14" font-family="Times,serif" font-size="18.00"> is_inserted_to(gear3, shaft3)</text>
</g>
<!-- selector:
 insert(left_hand, defaultgripper, gear3, shaft3)&#45;&gt;target:
 is_inserted_to(gear3, shaft3) -->
<g id="edge1" class="edge">
<title>selector:
 insert(left_hand, defaultgripper, gear3, shaft3)&#45;&gt;target:
 is_inserted_to(gear3, shaft3)</title>
<path fill="none" stroke="black" d="M1275.12,-634.34C1252.59,-623.57 1227.9,-611.77 1205.43,-601.03"/>
<polygon fill="black" stroke="black" points="1206.81,-597.81 1196.28,-596.65 1203.79,-604.12 1206.81,-597.81"/>
</g>
<!-- sequence:
 insert(left_hand, defaultgripper, gear3, shaft3) -->
<g id="node3" class="node">
<title>sequence:
 insert(left_hand, defaultgripper, gear3, shaft3)</title>
<polygon fill="#ff7f24" stroke="black" points="1792.68,-588.54 1347.68,-588.54 1347.68,-540.54 1792.68,-540.54 1792.68,-588.54"/>
<text text-anchor="middle" x="1570.18" y="-570.14" font-family="Times,serif" font-size="18.00">sequence:</text>
<text text-anchor="middle" x="1570.18" y="-550.14" font-family="Times,serif" font-size="18.00"> insert(left_hand, defaultgripper, gear3, shaft3)</text>
</g>
<!-- selector:
 insert(left_hand, defaultgripper, gear3, shaft3)&#45;&gt;sequence:
 insert(left_hand, defaultgripper, gear3, shaft3) -->
<g id="edge2" class="edge">
<title>selector:
 insert(left_hand, defaultgripper, gear3, shaft3)&#45;&gt;sequence:
 insert(left_hand, defaultgripper, gear3, shaft3)</title>
<path fill="none" stroke="black" d="M1425.59,-634.34C1454.07,-620.79 1486,-605.59 1512.6,-592.94"/>
<polygon fill="black" stroke="black" points="1514.24,-596.03 1521.77,-588.58 1511.23,-589.71 1514.24,-596.03"/>
</g>
<!-- selector:
 change_tool(left_hand, clampgripper, defaultgripper) -->
<g id="node4" class="node">
<title>selector:
 change_tool(left_hand, clampgripper, defaultgripper)</title>
<polygon fill="#8deeee" stroke="black" points="1169.61,-442.54 1169.61,-473.18 944.42,-494.84 625.95,-494.84 400.75,-473.18 400.75,-442.54 625.95,-420.88 944.42,-420.88 1169.61,-442.54"/>
<text text-anchor="middle" x="785.18" y="-463.46" font-family="Times,serif" font-size="18.00">selector:</text>
<text text-anchor="middle" x="785.18" y="-443.46" font-family="Times,serif" font-size="18.00"> change_tool(left_hand, clampgripper, defaultgripper)</text>
</g>
<!-- sequence:
 insert(left_hand, defaultgripper, gear3, shaft3)&#45;&gt;selector:
 change_tool(left_hand, clampgripper, defaultgripper) -->
<g id="edge3" class="edge">
<title>sequence:
 insert(left_hand, defaultgripper, gear3, shaft3)&#45;&gt;selector:
 change_tool(left_hand, clampgripper, defaultgripper)</title>
<path fill="none" stroke="black" d="M1410.54,-540.5C1386.63,-537.13 1362.26,-533.74 1339.18,-530.6 1236.52,-516.63 1123.06,-501.83 1025.7,-489.32"/>
<polygon fill="black" stroke="black" points="1026.09,-485.84 1015.73,-488.04 1025.2,-492.78 1026.09,-485.84"/>
</g>
<!-- selector:
 pick_up(left_hand, defaultgripper, gear3) -->
<g id="node15" class="node">
<title>selector:
 pick_up(left_hand, defaultgripper, gear3)</title>
<polygon fill="#8deeee" stroke="black" points="1871.79,-442.54 1871.79,-473.18 1695.11,-494.84 1445.25,-494.84 1268.57,-473.18 1268.57,-442.54 1445.25,-420.88 1695.11,-420.88 1871.79,-442.54"/>
<text text-anchor="middle" x="1570.18" y="-463.46" font-family="Times,serif" font-size="18.00">selector:</text>
<text text-anchor="middle" x="1570.18" y="-443.46" font-family="Times,serif" font-size="18.00"> pick_up(left_hand, defaultgripper, gear3)</text>
</g>
<!-- sequence:
 insert(left_hand, defaultgripper, gear3, shaft3)&#45;&gt;selector:
 pick_up(left_hand, defaultgripper, gear3) -->
<g id="edge14" class="edge">
<title>sequence:
 insert(left_hand, defaultgripper, gear3, shaft3)&#45;&gt;selector:
 pick_up(left_hand, defaultgripper, gear3)</title>
<path fill="none" stroke="black" d="M1570.18,-540.31C1570.18,-529.86 1570.18,-517.15 1570.18,-504.9"/>
<polygon fill="black" stroke="black" points="1573.68,-504.78 1570.18,-494.78 1566.68,-504.78 1573.68,-504.78"/>
</g>
<!-- action:
 insert(left_hand, defaultgripper, gear3, shaft3) -->
<g id="node21" class="node">
<title>action:
 insert(left_hand, defaultgripper, gear3, shaft3)</title>
<ellipse fill="lightgreen" stroke="black" cx="2204.18" cy="-457.86" rx="314.83" ry="33.88"/>
<text text-anchor="middle" x="2204.18" y="-463.46" font-family="Times,serif" font-size="18.00">action:</text>
<text text-anchor="middle" x="2204.18" y="-443.46" font-family="Times,serif" font-size="18.00"> insert(left_hand, defaultgripper, gear3, shaft3)</text>
</g>
<!-- sequence:
 insert(left_hand, defaultgripper, gear3, shaft3)&#45;&gt;action:
 insert(left_hand, defaultgripper, gear3, shaft3) -->
<g id="edge20" class="edge">
<title>sequence:
 insert(left_hand, defaultgripper, gear3, shaft3)&#45;&gt;action:
 insert(left_hand, defaultgripper, gear3, shaft3)</title>
<path fill="none" stroke="black" d="M1709.71,-540.5C1802.86,-525.12 1926.17,-504.76 2026.35,-488.22"/>
<polygon fill="black" stroke="black" points="2026.98,-491.66 2036.28,-486.58 2025.84,-484.76 2026.98,-491.66"/>
</g>
<!-- target:
 hold(left_hand, defaultgripper) -->
<g id="node5" class="node">
<title>target:
 hold(left_hand, defaultgripper)</title>
<ellipse fill="#ffec8b" stroke="black" cx="302.18" cy="-351.18" rx="213.59" ry="33.88"/>
<text text-anchor="middle" x="302.18" y="-356.78" font-family="Times,serif" font-size="18.00">target:</text>
<text text-anchor="middle" x="302.18" y="-336.78" font-family="Times,serif" font-size="18.00"> hold(left_hand, defaultgripper)</text>
</g>
<!-- selector:
 change_tool(left_hand, clampgripper, defaultgripper)&#45;&gt;target:
 hold(left_hand, defaultgripper) -->
<g id="edge4" class="edge">
<title>selector:
 change_tool(left_hand, clampgripper, defaultgripper)&#45;&gt;target:
 hold(left_hand, defaultgripper)</title>
<path fill="none" stroke="black" d="M620.99,-421.27C560.49,-408.16 492.76,-393.48 435.34,-381.04"/>
<polygon fill="black" stroke="black" points="436,-377.6 425.48,-378.9 434.51,-384.44 436,-377.6"/>
</g>
<!-- sequence:
 change_tool(left_hand, clampgripper, defaultgripper) -->
<g id="node6" class="node">
<title>sequence:
 change_tool(left_hand, clampgripper, defaultgripper)</title>
<polygon fill="#ff7f24" stroke="black" points="1036.18,-375.18 534.18,-375.18 534.18,-327.18 1036.18,-327.18 1036.18,-375.18"/>
<text text-anchor="middle" x="785.18" y="-356.78" font-family="Times,serif" font-size="18.00">sequence:</text>
<text text-anchor="middle" x="785.18" y="-336.78" font-family="Times,serif" font-size="18.00"> change_tool(left_hand, clampgripper, defaultgripper)</text>
</g>
<!-- selector:
 change_tool(left_hand, clampgripper, defaultgripper)&#45;&gt;sequence:
 change_tool(left_hand, clampgripper, defaultgripper) -->
<g id="edge5" class="edge">
<title>selector:
 change_tool(left_hand, clampgripper, defaultgripper)&#45;&gt;sequence:
 change_tool(left_hand, clampgripper, defaultgripper)</title>
<path fill="none" stroke="black" d="M785.18,-420.84C785.18,-409.45 785.18,-396.92 785.18,-385.72"/>
<polygon fill="black" stroke="black" points="788.68,-385.47 785.18,-375.47 781.68,-385.47 788.68,-385.47"/>
</g>
<!-- precondition:
 hold(left_hand, clampgripper) -->
<g id="node7" class="node">
<title>precondition:
 hold(left_hand, clampgripper)</title>
<ellipse fill="#ffec8b" stroke="black" cx="207.18" cy="-244.5" rx="207.36" ry="33.88"/>
<text text-anchor="middle" x="207.18" y="-250.1" font-family="Times,serif" font-size="18.00">precondition:</text>
<text text-anchor="middle" x="207.18" y="-230.1" font-family="Times,serif" font-size="18.00"> hold(left_hand, clampgripper)</text>
</g>
<!-- sequence:
 change_tool(left_hand, clampgripper, defaultgripper)&#45;&gt;precondition:
 hold(left_hand, clampgripper) -->
<g id="edge6" class="edge">
<title>sequence:
 change_tool(left_hand, clampgripper, defaultgripper)&#45;&gt;precondition:
 hold(left_hand, clampgripper)</title>
<path fill="none" stroke="black" d="M657.98,-327.14C567.93,-310.84 446.97,-288.93 353.01,-271.91"/>
<polygon fill="black" stroke="black" points="353.61,-268.46 343.14,-270.13 352.36,-275.35 353.61,-268.46"/>
</g>
<!-- selector:
 put_down(left_hand, clampgripper, shaft1) -->
<g id="node8" class="node">
<title>selector:
 put_down(left_hand, clampgripper, shaft1)</title>
<polygon fill="#8deeee" stroke="black" points="1055.69,-229.19 1055.69,-259.82 873.21,-281.48 615.15,-281.48 432.67,-259.82 432.67,-229.19 615.15,-207.53 873.21,-207.53 1055.69,-229.19"/>
<text text-anchor="middle" x="744.18" y="-250.1" font-family="Times,serif" font-size="18.00">selector:</text>
<text text-anchor="middle" x="744.18" y="-230.1" font-family="Times,serif" font-size="18.00"> put_down(left_hand, clampgripper, shaft1)</text>
</g>
<!-- sequence:
 change_tool(left_hand, clampgripper, defaultgripper)&#45;&gt;selector:
 put_down(left_hand, clampgripper, shaft1) -->
<g id="edge7" class="edge">
<title>sequence:
 change_tool(left_hand, clampgripper, defaultgripper)&#45;&gt;selector:
 put_down(left_hand, clampgripper, shaft1)</title>
<path fill="none" stroke="black" d="M776.08,-326.95C771.91,-316.29 766.81,-303.28 761.93,-290.81"/>
<polygon fill="black" stroke="black" points="765.16,-289.46 758.25,-281.42 758.64,-292.01 765.16,-289.46"/>
</g>
<!-- action:
 change_tool(left_hand, clampgripper, defaultgripper) -->
<g id="node14" class="node">
<title>action:
 change_tool(left_hand, clampgripper, defaultgripper)</title>
<ellipse fill="lightgreen" stroke="black" cx="1428.18" cy="-244.5" rx="354.94" ry="33.88"/>
<text text-anchor="middle" x="1428.18" y="-250.1" font-family="Times,serif" font-size="18.00">action:</text>
<text text-anchor="middle" x="1428.18" y="-230.1" font-family="Times,serif" font-size="18.00"> change_tool(left_hand, clampgripper, defaultgripper)</text>
</g>
<!-- sequence:
 change_tool(left_hand, clampgripper, defaultgripper)&#45;&gt;action:
 change_tool(left_hand, clampgripper, defaultgripper) -->
<g id="edge13" class="edge">
<title>sequence:
 change_tool(left_hand, clampgripper, defaultgripper)&#45;&gt;action:
 change_tool(left_hand, clampgripper, defaultgripper)</title>
<path fill="none" stroke="black" d="M926.69,-327.14C1019.64,-312.01 1142.21,-292.06 1242.9,-275.67"/>
<polygon fill="black" stroke="black" points="1243.58,-279.1 1252.88,-274.04 1242.45,-272.19 1243.58,-279.1"/>
</g>
<!-- target:
 is_empty(clampgripper) -->
<g id="node9" class="node">
<title>target:
 is_empty(clampgripper)</title>
<ellipse fill="#ffec8b" stroke="black" cx="549.18" cy="-137.82" rx="169" ry="33.88"/>
<text text-anchor="middle" x="549.18" y="-143.42" font-family="Times,serif" font-size="18.00">target:</text>
<text text-anchor="middle" x="549.18" y="-123.42" font-family="Times,serif" font-size="18.00"> is_empty(clampgripper)</text>
</g>
<!-- selector:
 put_down(left_hand, clampgripper, shaft1)&#45;&gt;target:
 is_empty(clampgripper) -->
<g id="edge8" class="edge">
<title>selector:
 put_down(left_hand, clampgripper, shaft1)&#45;&gt;target:
 is_empty(clampgripper)</title>
<path fill="none" stroke="black" d="M677.35,-207.62C657.46,-196.95 635.68,-185.26 615.81,-174.59"/>
<polygon fill="black" stroke="black" points="617.29,-171.41 606.82,-169.77 613.98,-177.58 617.29,-171.41"/>
</g>
<!-- sequence:
 put_down(left_hand, clampgripper, shaft1) -->
<g id="node10" class="node">
<title>sequence:
 put_down(left_hand, clampgripper, shaft1)</title>
<polygon fill="#ff7f24" stroke="black" points="1142.68,-161.82 735.68,-161.82 735.68,-113.82 1142.68,-113.82 1142.68,-161.82"/>
<text text-anchor="middle" x="939.18" y="-143.42" font-family="Times,serif" font-size="18.00">sequence:</text>
<text text-anchor="middle" x="939.18" y="-123.42" font-family="Times,serif" font-size="18.00"> put_down(left_hand, clampgripper, shaft1)</text>
</g>
<!-- selector:
 put_down(left_hand, clampgripper, shaft1)&#45;&gt;sequence:
 put_down(left_hand, clampgripper, shaft1) -->
<g id="edge9" class="edge">
<title>selector:
 put_down(left_hand, clampgripper, shaft1)&#45;&gt;sequence:
 put_down(left_hand, clampgripper, shaft1)</title>
<path fill="none" stroke="black" d="M811.02,-207.62C835.93,-194.25 863.83,-179.28 887.21,-166.72"/>
<polygon fill="black" stroke="black" points="889.11,-169.67 896.27,-161.86 885.8,-163.51 889.11,-169.67"/>
</g>
<!-- &quot;precondition:\n hold(left_hand, clampgripper)&quot;* -->
<g id="node11" class="node">
<title>&quot;precondition:\n hold(left_hand, clampgripper)&quot;*</title>
<ellipse fill="#ffec8b" stroke="black" cx="516.18" cy="-33.94" rx="219.41" ry="33.88"/>
<text text-anchor="middle" x="516.18" y="-39.54" font-family="Times,serif" font-size="18.00">&quot;precondition:</text>
<text text-anchor="middle" x="516.18" y="-19.54" font-family="Times,serif" font-size="18.00"> hold(left_hand, clampgripper)&quot;*</text>
</g>
<!-- sequence:
 put_down(left_hand, clampgripper, shaft1)&#45;&gt;&quot;precondition:\n hold(left_hand, clampgripper)&quot;* -->
<g id="edge10" class="edge">
<title>sequence:
 put_down(left_hand, clampgripper, shaft1)&#45;&gt;&quot;precondition:\n hold(left_hand, clampgripper)&quot;*</title>
<path fill="none" stroke="black" d="M843.46,-113.77C783.77,-99.39 706.29,-80.73 641.71,-65.17"/>
<polygon fill="black" stroke="black" points="642.41,-61.74 631.87,-62.8 640.77,-68.55 642.41,-61.74"/>
</g>
<!-- precondition:
 hold(clampgripper, shaft1) -->
<g id="node12" class="node">
<title>precondition:
 hold(clampgripper, shaft1)</title>
<ellipse fill="#ffec8b" stroke="black" cx="939.18" cy="-33.94" rx="185.94" ry="33.88"/>
<text text-anchor="middle" x="939.18" y="-39.54" font-family="Times,serif" font-size="18.00">precondition:</text>
<text text-anchor="middle" x="939.18" y="-19.54" font-family="Times,serif" font-size="18.00"> hold(clampgripper, shaft1)</text>
</g>
<!-- sequence:
 put_down(left_hand, clampgripper, shaft1)&#45;&gt;precondition:
 hold(clampgripper, shaft1) -->
<g id="edge11" class="edge">
<title>sequence:
 put_down(left_hand, clampgripper, shaft1)&#45;&gt;precondition:
 hold(clampgripper, shaft1)</title>
<path fill="none" stroke="black" d="M939.18,-113.7C939.18,-103.16 939.18,-90.31 939.18,-78.08"/>
<polygon fill="black" stroke="black" points="942.68,-78.01 939.18,-68.01 935.68,-78.01 942.68,-78.01"/>
</g>
<!-- action:
 put_down(left_hand, clampgripper, shaft1) -->
<g id="node13" class="node">
<title>action:
 put_down(left_hand, clampgripper, shaft1)</title>
<ellipse fill="lightgreen" stroke="black" cx="1431.18" cy="-33.94" rx="287.59" ry="33.88"/>
<text text-anchor="middle" x="1431.18" y="-39.54" font-family="Times,serif" font-size="18.00">action:</text>
<text text-anchor="middle" x="1431.18" y="-19.54" font-family="Times,serif" font-size="18.00"> put_down(left_hand, clampgripper, shaft1)</text>
</g>
<!-- sequence:
 put_down(left_hand, clampgripper, shaft1)&#45;&gt;action:
 put_down(left_hand, clampgripper, shaft1) -->
<g id="edge12" class="edge">
<title>sequence:
 put_down(left_hand, clampgripper, shaft1)&#45;&gt;action:
 put_down(left_hand, clampgripper, shaft1)</title>
<path fill="none" stroke="black" d="M1050.52,-113.77C1119.02,-99.58 1207.65,-81.23 1282.16,-65.8"/>
<polygon fill="black" stroke="black" points="1283.02,-69.2 1292.11,-63.74 1281.6,-62.34 1283.02,-69.2"/>
</g>
<!-- target:
 hold(defaultgripper, gear3) -->
<g id="node16" class="node">
<title>target:
 hold(defaultgripper, gear3)</title>
<ellipse fill="#ffec8b" stroke="black" cx="1570.18" cy="-351.18" rx="188.6" ry="33.88"/>
<text text-anchor="middle" x="1570.18" y="-356.78" font-family="Times,serif" font-size="18.00">target:</text>
<text text-anchor="middle" x="1570.18" y="-336.78" font-family="Times,serif" font-size="18.00"> hold(defaultgripper, gear3)</text>
</g>
<!-- selector:
 pick_up(left_hand, defaultgripper, gear3)&#45;&gt;target:
 hold(defaultgripper, gear3) -->
<g id="edge15" class="edge">
<title>selector:
 pick_up(left_hand, defaultgripper, gear3)&#45;&gt;target:
 hold(defaultgripper, gear3)</title>
<path fill="none" stroke="black" d="M1570.18,-420.84C1570.18,-412.68 1570.18,-403.93 1570.18,-395.51"/>
<polygon fill="black" stroke="black" points="1573.68,-395.46 1570.18,-385.46 1566.68,-395.46 1573.68,-395.46"/>
</g>
<!-- sequence:
 pick_up(left_hand, defaultgripper, gear3) -->
<g id="node17" class="node">
<title>sequence:
 pick_up(left_hand, defaultgripper, gear3)</title>
<polygon fill="#ff7f24" stroke="black" points="2415.18,-375.18 2021.18,-375.18 2021.18,-327.18 2415.18,-327.18 2415.18,-375.18"/>
<text text-anchor="middle" x="2218.18" y="-356.78" font-family="Times,serif" font-size="18.00">sequence:</text>
<text text-anchor="middle" x="2218.18" y="-336.78" font-family="Times,serif" font-size="18.00"> pick_up(left_hand, defaultgripper, gear3)</text>
</g>
<!-- selector:
 pick_up(left_hand, defaultgripper, gear3)&#45;&gt;sequence:
 pick_up(left_hand, defaultgripper, gear3) -->
<g id="edge16" class="edge">
<title>selector:
 pick_up(left_hand, defaultgripper, gear3)&#45;&gt;sequence:
 pick_up(left_hand, defaultgripper, gear3)</title>
<path fill="none" stroke="black" d="M1751.12,-427.63C1850.21,-411.62 1971.64,-392.01 2065.85,-376.79"/>
<polygon fill="black" stroke="black" points="2066.44,-380.24 2075.75,-375.19 2065.32,-373.33 2066.44,-380.24"/>
</g>
<!-- precondition:
 hold(left_hand, defaultgripper) -->
<g id="node18" class="node">
<title>precondition:
 hold(left_hand, defaultgripper)</title>
<ellipse fill="#ffec8b" stroke="black" cx="2015.18" cy="-244.5" rx="213.59" ry="33.88"/>
<text text-anchor="middle" x="2015.18" y="-250.1" font-family="Times,serif" font-size="18.00">precondition:</text>
<text text-anchor="middle" x="2015.18" y="-230.1" font-family="Times,serif" font-size="18.00"> hold(left_hand, defaultgripper)</text>
</g>
<!-- sequence:
 pick_up(left_hand, defaultgripper, gear3)&#45;&gt;precondition:
 hold(left_hand, defaultgripper) -->
<g id="edge17" class="edge">
<title>sequence:
 pick_up(left_hand, defaultgripper, gear3)&#45;&gt;precondition:
 hold(left_hand, defaultgripper)</title>
<path fill="none" stroke="black" d="M2173.38,-327.08C2147.56,-313.77 2114.54,-296.74 2085.35,-281.68"/>
<polygon fill="black" stroke="black" points="2086.91,-278.55 2076.42,-277.08 2083.71,-284.78 2086.91,-278.55"/>
</g>
<!-- precondition:
 is_empty(defaultgripper) -->
<g id="node19" class="node">
<title>precondition:
 is_empty(defaultgripper)</title>
<ellipse fill="#ffec8b" stroke="black" cx="2422.18" cy="-244.5" rx="175.23" ry="33.88"/>
<text text-anchor="middle" x="2422.18" y="-250.1" font-family="Times,serif" font-size="18.00">precondition:</text>
<text text-anchor="middle" x="2422.18" y="-230.1" font-family="Times,serif" font-size="18.00"> is_empty(defaultgripper)</text>
</g>
<!-- sequence:
 pick_up(left_hand, defaultgripper, gear3)&#45;&gt;precondition:
 is_empty(defaultgripper) -->
<g id="edge18" class="edge">
<title>sequence:
 pick_up(left_hand, defaultgripper, gear3)&#45;&gt;precondition:
 is_empty(defaultgripper)</title>
<path fill="none" stroke="black" d="M2263.2,-327.08C2289.47,-313.6 2323.15,-296.32 2352.75,-281.13"/>
<polygon fill="black" stroke="black" points="2354.5,-284.17 2361.79,-276.49 2351.3,-277.94 2354.5,-284.17"/>
</g>
<!-- action:
 pick_up(left_hand, defaultgripper, gear3) -->
<g id="node20" class="node">
<title>action:
 pick_up(left_hand, defaultgripper, gear3)</title>
<ellipse fill="lightgreen" stroke="black" cx="2894.18" cy="-244.5" rx="278.7" ry="33.88"/>
<text text-anchor="middle" x="2894.18" y="-250.1" font-family="Times,serif" font-size="18.00">action:</text>
<text text-anchor="middle" x="2894.18" y="-230.1" font-family="Times,serif" font-size="18.00"> pick_up(left_hand, defaultgripper, gear3)</text>
</g>
<!-- sequence:
 pick_up(left_hand, defaultgripper, gear3)&#45;&gt;action:
 pick_up(left_hand, defaultgripper, gear3) -->
<g id="edge19" class="edge">
<title>sequence:
 pick_up(left_hand, defaultgripper, gear3)&#45;&gt;action:
 pick_up(left_hand, defaultgripper, gear3)</title>
<path fill="none" stroke="black" d="M2366.95,-327.14C2469.77,-311.22 2607.06,-289.96 2715.76,-273.13"/>
<polygon fill="black" stroke="black" points="2716.51,-276.56 2725.86,-271.57 2715.44,-269.64 2716.51,-276.56"/>
</g>
</g>
</svg>
