<?xml version="1.0" encoding="UTF-8" standalone="no"?>
<!DOCTYPE svg PUBLIC "-//W3C//DTD SVG 1.1//EN"
 "http://www.w3.org/Graphics/SVG/1.1/DTD/svg11.dtd">
<!-- Generated by graphviz version 2.43.0 (0)
 -->
<!-- Title: pastafarianism Pages: 1 -->
<svg width="1438pt" height="476pt"
 viewBox="0.00 0.00 1437.76 476.00" xmlns="http://www.w3.org/2000/svg" xmlns:xlink="http://www.w3.org/1999/xlink">
<g id="graph0" class="graph" transform="scale(1 1) rotate(0) translate(4 472)">
<title>pastafarianism</title>
<polygon fill="white" stroke="transparent" points="-4,4 -4,-472 1433.76,-472 1433.76,4 -4,4"/>
<!-- Sequence -->
<g id="node1" class="node">
<title>Sequence</title>
<polygon fill="orange" stroke="black" points="697.08,-468 635.08,-468 635.08,-432 697.08,-432 697.08,-468"/>
<text text-anchor="middle" x="666.08" y="-447.8" font-family="Times,serif" font-size="9.00">Sequence</text>
</g>
<!-- Fallback -->
<g id="node2" class="node">
<title>Fallback</title>
<polygon fill="cyan" stroke="black" points="406.07,-370.54 406.07,-385.46 385.57,-396 356.59,-396 336.09,-385.46 336.09,-370.54 356.59,-360 385.57,-360 406.07,-370.54"/>
<text text-anchor="middle" x="371.08" y="-375.8" font-family="Times,serif" font-size="9.00">Fallback</text>
</g>
<!-- Sequence&#45;&gt;Fallback -->
<g id="edge1" class="edge">
<title>Sequence&#45;&gt;Fallback</title>
<path fill="none" stroke="black" d="M635.07,-441.64C582.07,-429.06 473.98,-403.42 413.85,-389.15"/>
<polygon fill="black" stroke="black" points="414.45,-385.69 403.92,-386.79 412.84,-392.51 414.45,-385.69"/>
</g>
<!-- Fallback &#160;&#160; -->
<g id="node13" class="node">
<title>Fallback &#160;&#160;</title>
<polygon fill="cyan" stroke="black" points="701.07,-370.54 701.07,-385.46 680.57,-396 651.59,-396 631.09,-385.46 631.09,-370.54 651.59,-360 680.57,-360 701.07,-370.54"/>
<text text-anchor="middle" x="666.08" y="-375.8" font-family="Times,serif" font-size="9.00">Fallback</text>
</g>
<!-- Sequence&#45;&gt;Fallback &#160;&#160; -->
<g id="edge12" class="edge">
<title>Sequence&#45;&gt;Fallback &#160;&#160;</title>
<path fill="none" stroke="black" d="M666.08,-431.7C666.08,-423.98 666.08,-414.71 666.08,-406.11"/>
<polygon fill="black" stroke="black" points="669.58,-406.1 666.08,-396.1 662.58,-406.1 669.58,-406.1"/>
</g>
<!-- Fallback &#160;&#160;&#160;&#160;&#160; -->
<g id="node24" class="node">
<title>Fallback &#160;&#160;&#160;&#160;&#160;</title>
<polygon fill="cyan" stroke="black" points="991.07,-370.54 991.07,-385.46 970.57,-396 941.59,-396 921.09,-385.46 921.09,-370.54 941.59,-360 970.57,-360 991.07,-370.54"/>
<text text-anchor="middle" x="956.08" y="-375.8" font-family="Times,serif" font-size="9.00">Fallback</text>
</g>
<!-- Sequence&#45;&gt;Fallback &#160;&#160;&#160;&#160;&#160; -->
<g id="edge23" class="edge">
<title>Sequence&#45;&gt;Fallback &#160;&#160;&#160;&#160;&#160;</title>
<path fill="none" stroke="black" d="M697.12,-441.51C749.33,-428.91 854.8,-403.45 913.75,-389.22"/>
<polygon fill="black" stroke="black" points="914.6,-392.61 923.5,-386.86 912.96,-385.81 914.6,-392.61"/>
</g>
<!-- object_at YellowBox [&#45;0.133, 0.0, 0.175] 0.02 KittingBox -->
<g id="node3" class="node">
<title>object_at YellowBox [&#45;0.133, 0.0, 0.175] 0.02 KittingBox</title>
<ellipse fill="lightgray" stroke="black" cx="161.08" cy="-306" rx="161.16" ry="18"/>
<text text-anchor="middle" x="161.08" y="-303.8" font-family="Times,serif" font-size="9.00">object_at YellowBox [&#45;0.133, 0.0, 0.175] 0.02 KittingBox</text>
</g>
<!-- Fallback&#45;&gt;object_at YellowBox [&#45;0.133, 0.0, 0.175] 0.02 KittingBox -->
<g id="edge2" class="edge">
<title>Fallback&#45;&gt;object_at YellowBox [&#45;0.133, 0.0, 0.175] 0.02 KittingBox</title>
<path fill="none" stroke="black" d="M341.88,-367.27C310.33,-356.75 259.24,-339.72 219.4,-326.44"/>
<polygon fill="black" stroke="black" points="220.39,-323.08 209.8,-323.24 218.18,-329.72 220.39,-323.08"/>
</g>
<!-- Sequence  -->
<g id="node4" class="node">
<title>Sequence </title>
<polygon fill="orange" stroke="black" points="402.08,-324 340.08,-324 340.08,-288 402.08,-288 402.08,-324"/>
<text text-anchor="middle" x="371.08" y="-303.8" font-family="Times,serif" font-size="9.00">Sequence</text>
</g>
<!-- Fallback&#45;&gt;Sequence  -->
<g id="edge3" class="edge">
<title>Fallback&#45;&gt;Sequence </title>
<path fill="none" stroke="black" d="M371.08,-359.7C371.08,-351.98 371.08,-342.71 371.08,-334.11"/>
<polygon fill="black" stroke="black" points="374.58,-334.1 371.08,-324.1 367.58,-334.1 374.58,-334.1"/>
</g>
<!-- Fallback  -->
<g id="node5" class="node">
<title>Fallback </title>
<polygon fill="cyan" stroke="black" points="240.07,-226.54 240.07,-241.46 219.57,-252 190.59,-252 170.09,-241.46 170.09,-226.54 190.59,-216 219.57,-216 240.07,-226.54"/>
<text text-anchor="middle" x="205.08" y="-231.8" font-family="Times,serif" font-size="9.00">Fallback</text>
</g>
<!-- Sequence &#45;&gt;Fallback  -->
<g id="edge4" class="edge">
<title>Sequence &#45;&gt;Fallback </title>
<path fill="none" stroke="black" d="M340.08,-291.81C337.04,-290.52 334,-289.23 331.08,-288 300.79,-275.19 266.36,-260.72 241.16,-250.13"/>
<polygon fill="black" stroke="black" points="242.22,-246.78 231.64,-246.14 239.51,-253.24 242.22,-246.78"/>
</g>
<!-- place0 YellowBox [&#45;0.133, 0.0, 0.175] 0.02 KittingBox -->
<g id="node12" class="node">
<title>place0 YellowBox [&#45;0.133, 0.0, 0.175] 0.02 KittingBox</title>
<ellipse fill="lightgray" stroke="black" cx="413.08" cy="-234" rx="154.96" ry="18"/>
<text text-anchor="middle" x="413.08" y="-231.8" font-family="Times,serif" font-size="9.00">place0 YellowBox [&#45;0.133, 0.0, 0.175] 0.02 KittingBox</text>
</g>
<!-- Sequence &#45;&gt;place0 YellowBox [&#45;0.133, 0.0, 0.175] 0.02 KittingBox -->
<g id="edge11" class="edge">
<title>Sequence &#45;&gt;place0 YellowBox [&#45;0.133, 0.0, 0.175] 0.02 KittingBox</title>
<path fill="none" stroke="black" d="M381.46,-287.7C386.35,-279.56 392.27,-269.69 397.66,-260.7"/>
<polygon fill="black" stroke="black" points="400.67,-262.48 402.82,-252.1 394.67,-258.88 400.67,-262.48"/>
</g>
<!-- in_gripper YellowBox -->
<g id="node6" class="node">
<title>in_gripper YellowBox</title>
<ellipse fill="lightgray" stroke="black" cx="179.08" cy="-162" rx="66.29" ry="18"/>
<text text-anchor="middle" x="179.08" y="-159.8" font-family="Times,serif" font-size="9.00">in_gripper YellowBox</text>
</g>
<!-- Fallback &#45;&gt;in_gripper YellowBox -->
<g id="edge5" class="edge">
<title>Fallback &#45;&gt;in_gripper YellowBox</title>
<path fill="none" stroke="black" d="M198.65,-215.7C195.73,-207.81 192.19,-198.3 188.94,-189.55"/>
<polygon fill="black" stroke="black" points="192.2,-188.26 185.43,-180.1 185.63,-190.7 192.2,-188.26"/>
</g>
<!-- Sequence &#160; -->
<g id="node7" class="node">
<title>Sequence &#160;</title>
<polygon fill="orange" stroke="black" points="325.08,-180 263.08,-180 263.08,-144 325.08,-144 325.08,-180"/>
<text text-anchor="middle" x="294.08" y="-159.8" font-family="Times,serif" font-size="9.00">Sequence</text>
</g>
<!-- Fallback &#45;&gt;Sequence &#160; -->
<g id="edge6" class="edge">
<title>Fallback &#45;&gt;Sequence &#160;</title>
<path fill="none" stroke="black" d="M223.96,-218.15C235.7,-208.92 251.06,-196.83 264.41,-186.33"/>
<polygon fill="black" stroke="black" points="266.72,-188.97 272.42,-180.04 262.39,-183.47 266.72,-188.97"/>
</g>
<!-- Fallback &#160; -->
<g id="node8" class="node">
<title>Fallback &#160;</title>
<polygon fill="cyan" stroke="black" points="323.07,-82.54 323.07,-97.46 302.57,-108 273.59,-108 253.09,-97.46 253.09,-82.54 273.59,-72 302.57,-72 323.07,-82.54"/>
<text text-anchor="middle" x="288.08" y="-87.8" font-family="Times,serif" font-size="9.00">Fallback</text>
</g>
<!-- Sequence &#160;&#45;&gt;Fallback &#160; -->
<g id="edge7" class="edge">
<title>Sequence &#160;&#45;&gt;Fallback &#160;</title>
<path fill="none" stroke="black" d="M292.6,-143.7C291.94,-135.98 291.14,-126.71 290.4,-118.11"/>
<polygon fill="black" stroke="black" points="293.89,-117.77 289.55,-108.1 286.91,-118.37 293.89,-117.77"/>
</g>
<!-- pick0 YellowBox -->
<g id="node11" class="node">
<title>pick0 YellowBox</title>
<ellipse fill="lightgray" stroke="black" cx="394.08" cy="-90" rx="53.23" ry="18"/>
<text text-anchor="middle" x="394.08" y="-87.8" font-family="Times,serif" font-size="9.00">pick0 YellowBox</text>
</g>
<!-- Sequence &#160;&#45;&gt;pick0 YellowBox -->
<g id="edge10" class="edge">
<title>Sequence &#160;&#45;&gt;pick0 YellowBox</title>
<path fill="none" stroke="black" d="M318.54,-143.88C332.05,-134.42 348.95,-122.59 363.34,-112.52"/>
<polygon fill="black" stroke="black" points="365.73,-115.12 371.92,-106.51 361.72,-109.38 365.73,-115.12"/>
</g>
<!-- gripper_state open -->
<g id="node9" class="node">
<title>gripper_state open</title>
<ellipse fill="lightgray" stroke="black" cx="206.08" cy="-18" rx="60.09" ry="18"/>
<text text-anchor="middle" x="206.08" y="-15.8" font-family="Times,serif" font-size="9.00">gripper_state open</text>
</g>
<!-- Fallback &#160;&#45;&gt;gripper_state open -->
<g id="edge8" class="edge">
<title>Fallback &#160;&#45;&gt;gripper_state open</title>
<path fill="none" stroke="black" d="M269.88,-73.46C258.97,-64.15 244.89,-52.13 232.74,-41.76"/>
<polygon fill="black" stroke="black" points="234.96,-39.05 225.08,-35.22 230.42,-44.38 234.96,-39.05"/>
</g>
<!-- open_gripper -->
<g id="node10" class="node">
<title>open_gripper</title>
<ellipse fill="lightgray" stroke="black" cx="330.08" cy="-18" rx="45.72" ry="18"/>
<text text-anchor="middle" x="330.08" y="-15.8" font-family="Times,serif" font-size="9.00">open_gripper</text>
</g>
<!-- Fallback &#160;&#45;&gt;open_gripper -->
<g id="edge9" class="edge">
<title>Fallback &#160;&#45;&gt;open_gripper</title>
<path fill="none" stroke="black" d="M298.46,-71.7C303.42,-63.44 309.44,-53.39 314.9,-44.3"/>
<polygon fill="black" stroke="black" points="317.96,-46 320.11,-35.62 311.96,-42.4 317.96,-46"/>
</g>
<!-- object_at BlueBox [0.0, 0.0, 0.175] 0.02 KittingBox -->
<g id="node14" class="node">
<title>object_at BlueBox [0.0, 0.0, 0.175] 0.02 KittingBox</title>
<ellipse fill="lightgray" stroke="black" cx="568.08" cy="-306" rx="147.6" ry="18"/>
<text text-anchor="middle" x="568.08" y="-303.8" font-family="Times,serif" font-size="9.00">object_at BlueBox [0.0, 0.0, 0.175] 0.02 KittingBox</text>
</g>
<!-- Fallback &#160;&#160;&#45;&gt;object_at BlueBox [0.0, 0.0, 0.175] 0.02 KittingBox -->
<g id="edge13" class="edge">
<title>Fallback &#160;&#160;&#45;&gt;object_at BlueBox [0.0, 0.0, 0.175] 0.02 KittingBox</title>
<path fill="none" stroke="black" d="M645.78,-362.5C632.65,-353.12 615.29,-340.72 600.31,-330.02"/>
<polygon fill="black" stroke="black" points="601.98,-326.91 591.81,-323.95 597.91,-332.61 601.98,-326.91"/>
</g>
<!-- Sequence &#160;&#160; -->
<g id="node15" class="node">
<title>Sequence &#160;&#160;</title>
<polygon fill="orange" stroke="black" points="796.08,-324 734.08,-324 734.08,-288 796.08,-288 796.08,-324"/>
<text text-anchor="middle" x="765.08" y="-303.8" font-family="Times,serif" font-size="9.00">Sequence</text>
</g>
<!-- Fallback &#160;&#160;&#45;&gt;Sequence &#160;&#160; -->
<g id="edge14" class="edge">
<title>Fallback &#160;&#160;&#45;&gt;Sequence &#160;&#160;</title>
<path fill="none" stroke="black" d="M686.11,-362.83C699.46,-353.4 717.31,-340.78 732.65,-329.93"/>
<polygon fill="black" stroke="black" points="734.73,-332.74 740.88,-324.11 730.69,-327.03 734.73,-332.74"/>
</g>
<!-- Fallback &#160;&#160;&#160; -->
<g id="node16" class="node">
<title>Fallback &#160;&#160;&#160;</title>
<polygon fill="cyan" stroke="black" points="669.07,-226.54 669.07,-241.46 648.57,-252 619.59,-252 599.09,-241.46 599.09,-226.54 619.59,-216 648.57,-216 669.07,-226.54"/>
<text text-anchor="middle" x="634.08" y="-231.8" font-family="Times,serif" font-size="9.00">Fallback</text>
</g>
<!-- Sequence &#160;&#160;&#45;&gt;Fallback &#160;&#160;&#160; -->
<g id="edge15" class="edge">
<title>Sequence &#160;&#160;&#45;&gt;Fallback &#160;&#160;&#160;</title>
<path fill="none" stroke="black" d="M734.04,-288.41C713.7,-277.54 687.16,-263.36 666.54,-252.34"/>
<polygon fill="black" stroke="black" points="668,-249.15 657.53,-247.53 664.7,-255.33 668,-249.15"/>
</g>
<!-- place0 BlueBox [0.0, 0.0, 0.175] 0.02 KittingBox -->
<g id="node23" class="node">
<title>place0 BlueBox [0.0, 0.0, 0.175] 0.02 KittingBox</title>
<ellipse fill="lightgray" stroke="black" cx="828.08" cy="-234" rx="141.4" ry="18"/>
<text text-anchor="middle" x="828.08" y="-231.8" font-family="Times,serif" font-size="9.00">place0 BlueBox [0.0, 0.0, 0.175] 0.02 KittingBox</text>
</g>
<!-- Sequence &#160;&#160;&#45;&gt;place0 BlueBox [0.0, 0.0, 0.175] 0.02 KittingBox -->
<g id="edge22" class="edge">
<title>Sequence &#160;&#160;&#45;&gt;place0 BlueBox [0.0, 0.0, 0.175] 0.02 KittingBox</title>
<path fill="none" stroke="black" d="M780.65,-287.7C788.28,-279.22 797.6,-268.86 805.96,-259.58"/>
<polygon fill="black" stroke="black" points="808.6,-261.88 812.69,-252.1 803.4,-257.2 808.6,-261.88"/>
</g>
<!-- in_gripper BlueBox -->
<g id="node17" class="node">
<title>in_gripper BlueBox</title>
<ellipse fill="lightgray" stroke="black" cx="526.08" cy="-162" rx="61.55" ry="18"/>
<text text-anchor="middle" x="526.08" y="-159.8" font-family="Times,serif" font-size="9.00">in_gripper BlueBox</text>
</g>
<!-- Fallback &#160;&#160;&#160;&#45;&gt;in_gripper BlueBox -->
<g id="edge16" class="edge">
<title>Fallback &#160;&#160;&#160;&#45;&gt;in_gripper BlueBox</title>
<path fill="none" stroke="black" d="M613,-219.34C597.74,-209.44 576.8,-195.87 559.3,-184.53"/>
<polygon fill="black" stroke="black" points="560.8,-181.33 550.51,-178.83 556.99,-187.21 560.8,-181.33"/>
</g>
<!-- Sequence &#160;&#160;&#160; -->
<g id="node18" class="node">
<title>Sequence &#160;&#160;&#160;</title>
<polygon fill="orange" stroke="black" points="668.08,-180 606.08,-180 606.08,-144 668.08,-144 668.08,-180"/>
<text text-anchor="middle" x="637.08" y="-159.8" font-family="Times,serif" font-size="9.00">Sequence</text>
</g>
<!-- Fallback &#160;&#160;&#160;&#45;&gt;Sequence &#160;&#160;&#160; -->
<g id="edge17" class="edge">
<title>Fallback &#160;&#160;&#160;&#45;&gt;Sequence &#160;&#160;&#160;</title>
<path fill="none" stroke="black" d="M634.82,-215.7C635.15,-207.98 635.55,-198.71 635.92,-190.11"/>
<polygon fill="black" stroke="black" points="639.42,-190.25 636.35,-180.1 632.42,-189.95 639.42,-190.25"/>
</g>
<!-- Fallback &#160;&#160;&#160;&#160; -->
<g id="node19" class="node">
<title>Fallback &#160;&#160;&#160;&#160;</title>
<polygon fill="cyan" stroke="black" points="575.07,-82.54 575.07,-97.46 554.57,-108 525.59,-108 505.09,-97.46 505.09,-82.54 525.59,-72 554.57,-72 575.07,-82.54"/>
<text text-anchor="middle" x="540.08" y="-87.8" font-family="Times,serif" font-size="9.00">Fallback</text>
</g>
<!-- Sequence &#160;&#160;&#160;&#45;&gt;Fallback &#160;&#160;&#160;&#160; -->
<g id="edge18" class="edge">
<title>Sequence &#160;&#160;&#160;&#45;&gt;Fallback &#160;&#160;&#160;&#160;</title>
<path fill="none" stroke="black" d="M613.1,-143.7C599.54,-133.91 582.5,-121.61 568.29,-111.36"/>
<polygon fill="black" stroke="black" points="570.02,-108.29 559.87,-105.28 565.93,-113.97 570.02,-108.29"/>
</g>
<!-- pick0 BlueBox -->
<g id="node22" class="node">
<title>pick0 BlueBox</title>
<ellipse fill="lightgray" stroke="black" cx="641.08" cy="-90" rx="47.84" ry="18"/>
<text text-anchor="middle" x="641.08" y="-87.8" font-family="Times,serif" font-size="9.00">pick0 BlueBox</text>
</g>
<!-- Sequence &#160;&#160;&#160;&#45;&gt;pick0 BlueBox -->
<g id="edge21" class="edge">
<title>Sequence &#160;&#160;&#160;&#45;&gt;pick0 BlueBox</title>
<path fill="none" stroke="black" d="M638.07,-143.7C638.51,-135.98 639.04,-126.71 639.53,-118.11"/>
<polygon fill="black" stroke="black" points="643.03,-118.29 640.1,-108.1 636.04,-117.89 643.03,-118.29"/>
</g>
<!-- gripper_state open  -->
<g id="node20" class="node">
<title>gripper_state open </title>
<ellipse fill="lightgray" stroke="black" cx="498.08" cy="-18" rx="60.09" ry="18"/>
<text text-anchor="middle" x="498.08" y="-15.8" font-family="Times,serif" font-size="9.00">gripper_state open</text>
</g>
<!-- Fallback &#160;&#160;&#160;&#160;&#45;&gt;gripper_state open  -->
<g id="edge19" class="edge">
<title>Fallback &#160;&#160;&#160;&#160;&#45;&gt;gripper_state open </title>
<path fill="none" stroke="black" d="M529.7,-71.7C524.82,-63.56 518.89,-53.69 513.5,-44.7"/>
<polygon fill="black" stroke="black" points="516.49,-42.88 508.34,-36.1 510.49,-46.48 516.49,-42.88"/>
</g>
<!-- open_gripper  -->
<g id="node21" class="node">
<title>open_gripper </title>
<ellipse fill="lightgray" stroke="black" cx="622.08" cy="-18" rx="45.72" ry="18"/>
<text text-anchor="middle" x="622.08" y="-15.8" font-family="Times,serif" font-size="9.00">open_gripper</text>
</g>
<!-- Fallback &#160;&#160;&#160;&#160;&#45;&gt;open_gripper  -->
<g id="edge20" class="edge">
<title>Fallback &#160;&#160;&#160;&#160;&#45;&gt;open_gripper </title>
<path fill="none" stroke="black" d="M558.28,-73.46C569.35,-64.02 583.67,-51.79 595.94,-41.32"/>
<polygon fill="black" stroke="black" points="598.32,-43.89 603.65,-34.73 593.77,-38.56 598.32,-43.89"/>
</g>
<!-- object_at GreenBox [0.0, 0.0, 0.22] 0.02 BlueBox -->
<g id="node25" class="node">
<title>object_at GreenBox [0.0, 0.0, 0.22] 0.02 BlueBox</title>
<ellipse fill="lightgray" stroke="black" cx="956.08" cy="-306" rx="142.06" ry="18"/>
<text text-anchor="middle" x="956.08" y="-303.8" font-family="Times,serif" font-size="9.00">object_at GreenBox [0.0, 0.0, 0.22] 0.02 BlueBox</text>
</g>
<!-- Fallback &#160;&#160;&#160;&#160;&#160;&#45;&gt;object_at GreenBox [0.0, 0.0, 0.22] 0.02 BlueBox -->
<g id="edge24" class="edge">
<title>Fallback &#160;&#160;&#160;&#160;&#160;&#45;&gt;object_at GreenBox [0.0, 0.0, 0.22] 0.02 BlueBox</title>
<path fill="none" stroke="black" d="M956.08,-359.7C956.08,-351.98 956.08,-342.71 956.08,-334.11"/>
<polygon fill="black" stroke="black" points="959.58,-334.1 956.08,-324.1 952.58,-334.1 959.58,-334.1"/>
</g>
<!-- Sequence &#160;&#160;&#160;&#160; -->
<g id="node26" class="node">
<title>Sequence &#160;&#160;&#160;&#160;</title>
<polygon fill="orange" stroke="black" points="1178.08,-324 1116.08,-324 1116.08,-288 1178.08,-288 1178.08,-324"/>
<text text-anchor="middle" x="1147.08" y="-303.8" font-family="Times,serif" font-size="9.00">Sequence</text>
</g>
<!-- Fallback &#160;&#160;&#160;&#160;&#160;&#45;&gt;Sequence &#160;&#160;&#160;&#160; -->
<g id="edge25" class="edge">
<title>Fallback &#160;&#160;&#160;&#160;&#160;&#45;&gt;Sequence &#160;&#160;&#160;&#160;</title>
<path fill="none" stroke="black" d="M985.23,-367.39C1013.88,-357.81 1059.02,-342.35 1106.25,-324.22"/>
<polygon fill="black" stroke="black" points="1107.65,-327.43 1115.72,-320.56 1105.13,-320.9 1107.65,-327.43"/>
</g>
<!-- Fallback &#160;&#160;&#160;&#160;&#160;&#160; -->
<g id="node27" class="node">
<title>Fallback &#160;&#160;&#160;&#160;&#160;&#160;</title>
<polygon fill="cyan" stroke="black" points="1140.07,-226.54 1140.07,-241.46 1119.57,-252 1090.59,-252 1070.09,-241.46 1070.09,-226.54 1090.59,-216 1119.57,-216 1140.07,-226.54"/>
<text text-anchor="middle" x="1105.08" y="-231.8" font-family="Times,serif" font-size="9.00">Fallback</text>
</g>
<!-- Sequence &#160;&#160;&#160;&#160;&#45;&gt;Fallback &#160;&#160;&#160;&#160;&#160;&#160; -->
<g id="edge26" class="edge">
<title>Sequence &#160;&#160;&#160;&#160;&#45;&gt;Fallback &#160;&#160;&#160;&#160;&#160;&#160;</title>
<path fill="none" stroke="black" d="M1136.7,-287.7C1131.82,-279.56 1125.89,-269.69 1120.5,-260.7"/>
<polygon fill="black" stroke="black" points="1123.49,-258.88 1115.34,-252.1 1117.49,-262.48 1123.49,-258.88"/>
</g>
<!-- place0 GreenBox [0.0, 0.0, 0.22] 0.02 BlueBox -->
<g id="node34" class="node">
<title>place0 GreenBox [0.0, 0.0, 0.22] 0.02 BlueBox</title>
<ellipse fill="lightgray" stroke="black" cx="1294.08" cy="-234" rx="135.85" ry="18"/>
<text text-anchor="middle" x="1294.08" y="-231.8" font-family="Times,serif" font-size="9.00">place0 GreenBox [0.0, 0.0, 0.22] 0.02 BlueBox</text>
</g>
<!-- Sequence &#160;&#160;&#160;&#160;&#45;&gt;place0 GreenBox [0.0, 0.0, 0.22] 0.02 BlueBox -->
<g id="edge33" class="edge">
<title>Sequence &#160;&#160;&#160;&#160;&#45;&gt;place0 GreenBox [0.0, 0.0, 0.22] 0.02 BlueBox</title>
<path fill="none" stroke="black" d="M1178.26,-290.15C1199.22,-280.17 1227.15,-266.87 1250.33,-255.83"/>
<polygon fill="black" stroke="black" points="1252.09,-258.87 1259.61,-251.41 1249.08,-252.55 1252.09,-258.87"/>
</g>
<!-- in_gripper GreenBox -->
<g id="node28" class="node">
<title>in_gripper GreenBox</title>
<ellipse fill="lightgray" stroke="black" cx="1047.08" cy="-162" rx="65.64" ry="18"/>
<text text-anchor="middle" x="1047.08" y="-159.8" font-family="Times,serif" font-size="9.00">in_gripper GreenBox</text>
</g>
<!-- Fallback &#160;&#160;&#160;&#160;&#160;&#160;&#45;&gt;in_gripper GreenBox -->
<g id="edge27" class="edge">
<title>Fallback &#160;&#160;&#160;&#160;&#160;&#160;&#45;&gt;in_gripper GreenBox</title>
<path fill="none" stroke="black" d="M1090.74,-215.7C1083.69,-207.18 1075.06,-196.76 1067.34,-187.45"/>
<polygon fill="black" stroke="black" points="1069.93,-185.09 1060.85,-179.62 1064.54,-189.56 1069.93,-185.09"/>
</g>
<!-- Sequence &#160;&#160;&#160;&#160;&#160; -->
<g id="node29" class="node">
<title>Sequence &#160;&#160;&#160;&#160;&#160;</title>
<polygon fill="orange" stroke="black" points="1193.08,-180 1131.08,-180 1131.08,-144 1193.08,-144 1193.08,-180"/>
<text text-anchor="middle" x="1162.08" y="-159.8" font-family="Times,serif" font-size="9.00">Sequence</text>
</g>
<!-- Fallback &#160;&#160;&#160;&#160;&#160;&#160;&#45;&gt;Sequence &#160;&#160;&#160;&#160;&#160; -->
<g id="edge28" class="edge">
<title>Fallback &#160;&#160;&#160;&#160;&#160;&#160;&#45;&gt;Sequence &#160;&#160;&#160;&#160;&#160;</title>
<path fill="none" stroke="black" d="M1119.17,-215.7C1126,-207.3 1134.34,-197.07 1141.84,-187.86"/>
<polygon fill="black" stroke="black" points="1144.55,-190.07 1148.15,-180.1 1139.12,-185.65 1144.55,-190.07"/>
</g>
<!-- Fallback &#160;&#160;&#160;&#160;&#160;&#160;&#160; -->
<g id="node30" class="node">
<title>Fallback &#160;&#160;&#160;&#160;&#160;&#160;&#160;</title>
<polygon fill="cyan" stroke="black" points="1144.07,-82.54 1144.07,-97.46 1123.57,-108 1094.59,-108 1074.09,-97.46 1074.09,-82.54 1094.59,-72 1123.57,-72 1144.07,-82.54"/>
<text text-anchor="middle" x="1109.08" y="-87.8" font-family="Times,serif" font-size="9.00">Fallback</text>
</g>
<!-- Sequence &#160;&#160;&#160;&#160;&#160;&#45;&gt;Fallback &#160;&#160;&#160;&#160;&#160;&#160;&#160; -->
<g id="edge29" class="edge">
<title>Sequence &#160;&#160;&#160;&#160;&#160;&#45;&gt;Fallback &#160;&#160;&#160;&#160;&#160;&#160;&#160;</title>
<path fill="none" stroke="black" d="M1148.98,-143.7C1142.69,-135.39 1135.03,-125.28 1128.12,-116.14"/>
<polygon fill="black" stroke="black" points="1130.86,-113.96 1122.03,-108.1 1125.28,-118.19 1130.86,-113.96"/>
</g>
<!-- pick0 GreenBox -->
<g id="node33" class="node">
<title>pick0 GreenBox</title>
<ellipse fill="lightgray" stroke="black" cx="1215.08" cy="-90" rx="52.58" ry="18"/>
<text text-anchor="middle" x="1215.08" y="-87.8" font-family="Times,serif" font-size="9.00">pick0 GreenBox</text>
</g>
<!-- Sequence &#160;&#160;&#160;&#160;&#160;&#45;&gt;pick0 GreenBox -->
<g id="edge32" class="edge">
<title>Sequence &#160;&#160;&#160;&#160;&#160;&#45;&gt;pick0 GreenBox</title>
<path fill="none" stroke="black" d="M1175.18,-143.7C1181.57,-135.27 1189.36,-124.97 1196.35,-115.73"/>
<polygon fill="black" stroke="black" points="1199.25,-117.71 1202.5,-107.62 1193.67,-113.48 1199.25,-117.71"/>
</g>
<!-- gripper_state open &#160; -->
<g id="node31" class="node">
<title>gripper_state open &#160;</title>
<ellipse fill="lightgray" stroke="black" cx="1047.08" cy="-18" rx="60.09" ry="18"/>
<text text-anchor="middle" x="1047.08" y="-15.8" font-family="Times,serif" font-size="9.00">gripper_state open</text>
</g>
<!-- Fallback &#160;&#160;&#160;&#160;&#160;&#160;&#160;&#45;&gt;gripper_state open &#160; -->
<g id="edge30" class="edge">
<title>Fallback &#160;&#160;&#160;&#160;&#160;&#160;&#160;&#45;&gt;gripper_state open &#160;</title>
<path fill="none" stroke="black" d="M1094.07,-72.05C1086.46,-63.46 1077.07,-52.86 1068.69,-43.4"/>
<polygon fill="black" stroke="black" points="1071.2,-40.95 1061.95,-35.79 1065.96,-45.6 1071.2,-40.95"/>
</g>
<!-- open_gripper &#160; -->
<g id="node32" class="node">
<title>open_gripper &#160;</title>
<ellipse fill="lightgray" stroke="black" cx="1171.08" cy="-18" rx="45.72" ry="18"/>
<text text-anchor="middle" x="1171.08" y="-15.8" font-family="Times,serif" font-size="9.00">open_gripper</text>
</g>
<!-- Fallback &#160;&#160;&#160;&#160;&#160;&#160;&#160;&#45;&gt;open_gripper &#160; -->
<g id="edge31" class="edge">
<title>Fallback &#160;&#160;&#160;&#160;&#160;&#160;&#160;&#45;&gt;open_gripper &#160;</title>
<path fill="none" stroke="black" d="M1124.09,-72.05C1131.82,-63.33 1141.37,-52.54 1149.84,-42.98"/>
<polygon fill="black" stroke="black" points="1152.63,-45.11 1156.64,-35.31 1147.39,-40.47 1152.63,-45.11"/>
</g>
</g>
</svg>
