<?xml version="1.0" encoding="UTF-8" standalone="no"?>
<!DOCTYPE svg PUBLIC "-//W3C//DTD SVG 1.1//EN"
 "http://www.w3.org/Graphics/SVG/1.1/DTD/svg11.dtd">
<!-- Generated by graphviz version 2.43.0 (0)
 -->
<!-- Title: pastafarianism Pages: 1 -->
<svg width="1840pt" height="476pt"
 viewBox="0.00 0.00 1839.84 476.00" xmlns="http://www.w3.org/2000/svg" xmlns:xlink="http://www.w3.org/1999/xlink">
<g id="graph0" class="graph" transform="scale(1 1) rotate(0) translate(4 472)">
<title>pastafarianism</title>
<polygon fill="white" stroke="transparent" points="-4,4 -4,-472 1835.84,-472 1835.84,4 -4,4"/>
<!-- Sequence -->
<g id="node1" class="node">
<title>Sequence</title>
<polygon fill="orange" stroke="black" points="901.08,-468 839.08,-468 839.08,-432 901.08,-432 901.08,-468"/>
<text text-anchor="middle" x="870.08" y="-447.8" font-family="Times,serif" font-size="9.00">Sequence</text>
</g>
<!-- Fallback -->
<g id="node2" class="node">
<title>Fallback</title>
<polygon fill="cyan" stroke="black" points="406.07,-370.54 406.07,-385.46 385.57,-396 356.59,-396 336.09,-385.46 336.09,-370.54 356.59,-360 385.57,-360 406.07,-370.54"/>
<text text-anchor="middle" x="371.08" y="-375.8" font-family="Times,serif" font-size="9.00">Fallback</text>
</g>
<!-- Sequence&#45;&gt;Fallback -->
<g id="edge1" class="edge">
<title>Sequence&#45;&gt;Fallback</title>
<path fill="none" stroke="black" d="M838.87,-444.62C753.55,-432.65 516.19,-399.36 416.3,-385.34"/>
<polygon fill="black" stroke="black" points="416.61,-381.85 406.23,-383.93 415.64,-388.79 416.61,-381.85"/>
</g>
<!-- Fallback &#160;&#160; -->
<g id="node13" class="node">
<title>Fallback &#160;&#160;</title>
<polygon fill="cyan" stroke="black" points="800.07,-370.54 800.07,-385.46 779.57,-396 750.59,-396 730.09,-385.46 730.09,-370.54 750.59,-360 779.57,-360 800.07,-370.54"/>
<text text-anchor="middle" x="765.08" y="-375.8" font-family="Times,serif" font-size="9.00">Fallback</text>
</g>
<!-- Sequence&#45;&gt;Fallback &#160;&#160; -->
<g id="edge12" class="edge">
<title>Sequence&#45;&gt;Fallback &#160;&#160;</title>
<path fill="none" stroke="black" d="M844.39,-431.88C829.23,-421.77 809.99,-408.94 794.26,-398.45"/>
<polygon fill="black" stroke="black" points="796.19,-395.53 785.92,-392.9 792.3,-401.35 796.19,-395.53"/>
</g>
<!-- Fallback &#160;&#160;&#160;&#160;&#160; -->
<g id="node24" class="node">
<title>Fallback &#160;&#160;&#160;&#160;&#160;</title>
<polygon fill="cyan" stroke="black" points="1010.07,-370.54 1010.07,-385.46 989.57,-396 960.59,-396 940.09,-385.46 940.09,-370.54 960.59,-360 989.57,-360 1010.07,-370.54"/>
<text text-anchor="middle" x="975.08" y="-375.8" font-family="Times,serif" font-size="9.00">Fallback</text>
</g>
<!-- Sequence&#45;&gt;Fallback &#160;&#160;&#160;&#160;&#160; -->
<g id="edge23" class="edge">
<title>Sequence&#45;&gt;Fallback &#160;&#160;&#160;&#160;&#160;</title>
<path fill="none" stroke="black" d="M895.77,-431.88C910.93,-421.77 930.17,-408.94 945.91,-398.45"/>
<polygon fill="black" stroke="black" points="947.86,-401.35 954.24,-392.9 943.98,-395.53 947.86,-401.35"/>
</g>
<!-- Fallback &#160;&#160;&#160;&#160;&#160;&#160;&#160;&#160; -->
<g id="node35" class="node">
<title>Fallback &#160;&#160;&#160;&#160;&#160;&#160;&#160;&#160;</title>
<polygon fill="cyan" stroke="black" points="1419.07,-370.54 1419.07,-385.46 1398.57,-396 1369.59,-396 1349.09,-385.46 1349.09,-370.54 1369.59,-360 1398.57,-360 1419.07,-370.54"/>
<text text-anchor="middle" x="1384.08" y="-375.8" font-family="Times,serif" font-size="9.00">Fallback</text>
</g>
<!-- Sequence&#45;&gt;Fallback &#160;&#160;&#160;&#160;&#160;&#160;&#160;&#160; -->
<g id="edge34" class="edge">
<title>Sequence&#45;&gt;Fallback &#160;&#160;&#160;&#160;&#160;&#160;&#160;&#160;</title>
<path fill="none" stroke="black" d="M901.46,-444.73C989.02,-432.8 1236.27,-399.13 1338.73,-385.18"/>
<polygon fill="black" stroke="black" points="1339.33,-388.63 1348.76,-383.81 1338.38,-381.69 1339.33,-388.63"/>
</g>
<!-- object_at YellowBox [&#45;0.133, 0.0, 0.175] 0.02 KittingBox -->
<g id="node3" class="node">
<title>object_at YellowBox [&#45;0.133, 0.0, 0.175] 0.02 KittingBox</title>
<ellipse fill="lightgray" stroke="black" cx="161.08" cy="-306" rx="161.16" ry="18"/>
<text text-anchor="middle" x="161.08" y="-303.8" font-family="Times,serif" font-size="9.00">object_at YellowBox [&#45;0.133, 0.0, 0.175] 0.02 KittingBox</text>
</g>
<!-- Fallback&#45;&gt;object_at YellowBox [&#45;0.133, 0.0, 0.175] 0.02 KittingBox -->
<g id="edge2" class="edge">
<title>Fallback&#45;&gt;object_at YellowBox [&#45;0.133, 0.0, 0.175] 0.02 KittingBox</title>
<path fill="none" stroke="black" d="M341.88,-367.27C310.33,-356.75 259.24,-339.72 219.4,-326.44"/>
<polygon fill="black" stroke="black" points="220.39,-323.08 209.8,-323.24 218.18,-329.72 220.39,-323.08"/>
</g>
<!-- Sequence  -->
<g id="node4" class="node">
<title>Sequence </title>
<polygon fill="orange" stroke="black" points="402.08,-324 340.08,-324 340.08,-288 402.08,-288 402.08,-324"/>
<text text-anchor="middle" x="371.08" y="-303.8" font-family="Times,serif" font-size="9.00">Sequence</text>
</g>
<!-- Fallback&#45;&gt;Sequence  -->
<g id="edge3" class="edge">
<title>Fallback&#45;&gt;Sequence </title>
<path fill="none" stroke="black" d="M371.08,-359.7C371.08,-351.98 371.08,-342.71 371.08,-334.11"/>
<polygon fill="black" stroke="black" points="374.58,-334.1 371.08,-324.1 367.58,-334.1 374.58,-334.1"/>
</g>
<!-- Fallback  -->
<g id="node5" class="node">
<title>Fallback </title>
<polygon fill="cyan" stroke="black" points="201.07,-226.54 201.07,-241.46 180.57,-252 151.59,-252 131.09,-241.46 131.09,-226.54 151.59,-216 180.57,-216 201.07,-226.54"/>
<text text-anchor="middle" x="166.08" y="-231.8" font-family="Times,serif" font-size="9.00">Fallback</text>
</g>
<!-- Sequence &#45;&gt;Fallback  -->
<g id="edge4" class="edge">
<title>Sequence &#45;&gt;Fallback </title>
<path fill="none" stroke="black" d="M339.77,-291.3C336.85,-290.14 333.92,-289.02 331.08,-288 278.29,-269 263.18,-270.12 210.08,-252 207.55,-251.14 204.95,-250.22 202.34,-249.27"/>
<polygon fill="black" stroke="black" points="203.54,-245.98 192.95,-245.77 201.1,-252.54 203.54,-245.98"/>
</g>
<!-- place0 YellowBox [&#45;0.133, 0.0, 0.175] 0.02 KittingBox -->
<g id="node12" class="node">
<title>place0 YellowBox [&#45;0.133, 0.0, 0.175] 0.02 KittingBox</title>
<ellipse fill="lightgray" stroke="black" cx="374.08" cy="-234" rx="154.96" ry="18"/>
<text text-anchor="middle" x="374.08" y="-231.8" font-family="Times,serif" font-size="9.00">place0 YellowBox [&#45;0.133, 0.0, 0.175] 0.02 KittingBox</text>
</g>
<!-- Sequence &#45;&gt;place0 YellowBox [&#45;0.133, 0.0, 0.175] 0.02 KittingBox -->
<g id="edge11" class="edge">
<title>Sequence &#45;&gt;place0 YellowBox [&#45;0.133, 0.0, 0.175] 0.02 KittingBox</title>
<path fill="none" stroke="black" d="M371.82,-287.7C372.15,-279.98 372.55,-270.71 372.92,-262.11"/>
<polygon fill="black" stroke="black" points="376.42,-262.25 373.35,-252.1 369.42,-261.95 376.42,-262.25"/>
</g>
<!-- in_gripper YellowBox -->
<g id="node6" class="node">
<title>in_gripper YellowBox</title>
<ellipse fill="lightgray" stroke="black" cx="146.08" cy="-162" rx="66.29" ry="18"/>
<text text-anchor="middle" x="146.08" y="-159.8" font-family="Times,serif" font-size="9.00">in_gripper YellowBox</text>
</g>
<!-- Fallback &#45;&gt;in_gripper YellowBox -->
<g id="edge5" class="edge">
<title>Fallback &#45;&gt;in_gripper YellowBox</title>
<path fill="none" stroke="black" d="M161.14,-215.7C158.91,-207.9 156.23,-198.51 153.75,-189.83"/>
<polygon fill="black" stroke="black" points="157.08,-188.76 150.97,-180.1 150.35,-190.68 157.08,-188.76"/>
</g>
<!-- Sequence &#160; -->
<g id="node7" class="node">
<title>Sequence &#160;</title>
<polygon fill="orange" stroke="black" points="292.08,-180 230.08,-180 230.08,-144 292.08,-144 292.08,-180"/>
<text text-anchor="middle" x="261.08" y="-159.8" font-family="Times,serif" font-size="9.00">Sequence</text>
</g>
<!-- Fallback &#45;&gt;Sequence &#160; -->
<g id="edge6" class="edge">
<title>Fallback &#45;&gt;Sequence &#160;</title>
<path fill="none" stroke="black" d="M185.76,-218.5C198.39,-209.19 215.08,-196.9 229.53,-186.25"/>
<polygon fill="black" stroke="black" points="231.76,-188.95 237.73,-180.2 227.61,-183.32 231.76,-188.95"/>
</g>
<!-- Fallback &#160; -->
<g id="node8" class="node">
<title>Fallback &#160;</title>
<polygon fill="cyan" stroke="black" points="282.07,-82.54 282.07,-97.46 261.57,-108 232.59,-108 212.09,-97.46 212.09,-82.54 232.59,-72 261.57,-72 282.07,-82.54"/>
<text text-anchor="middle" x="247.08" y="-87.8" font-family="Times,serif" font-size="9.00">Fallback</text>
</g>
<!-- Sequence &#160;&#45;&gt;Fallback &#160; -->
<g id="edge7" class="edge">
<title>Sequence &#160;&#45;&gt;Fallback &#160;</title>
<path fill="none" stroke="black" d="M257.62,-143.7C256.08,-135.98 254.22,-126.71 252.5,-118.11"/>
<polygon fill="black" stroke="black" points="255.89,-117.22 250.5,-108.1 249.03,-118.6 255.89,-117.22"/>
</g>
<!-- pick0 YellowBox -->
<g id="node11" class="node">
<title>pick0 YellowBox</title>
<ellipse fill="lightgray" stroke="black" cx="353.08" cy="-90" rx="53.23" ry="18"/>
<text text-anchor="middle" x="353.08" y="-87.8" font-family="Times,serif" font-size="9.00">pick0 YellowBox</text>
</g>
<!-- Sequence &#160;&#45;&gt;pick0 YellowBox -->
<g id="edge10" class="edge">
<title>Sequence &#160;&#45;&gt;pick0 YellowBox</title>
<path fill="none" stroke="black" d="M283.82,-143.7C296.04,-134.4 311.24,-122.84 324.28,-112.91"/>
<polygon fill="black" stroke="black" points="326.65,-115.51 332.48,-106.67 322.41,-109.94 326.65,-115.51"/>
</g>
<!-- gripper_state open -->
<g id="node9" class="node">
<title>gripper_state open</title>
<ellipse fill="lightgray" stroke="black" cx="165.08" cy="-18" rx="60.09" ry="18"/>
<text text-anchor="middle" x="165.08" y="-15.8" font-family="Times,serif" font-size="9.00">gripper_state open</text>
</g>
<!-- Fallback &#160;&#45;&gt;gripper_state open -->
<g id="edge8" class="edge">
<title>Fallback &#160;&#45;&gt;gripper_state open</title>
<path fill="none" stroke="black" d="M228.88,-73.46C217.97,-64.15 203.89,-52.13 191.74,-41.76"/>
<polygon fill="black" stroke="black" points="193.96,-39.05 184.08,-35.22 189.42,-44.38 193.96,-39.05"/>
</g>
<!-- open_gripper -->
<g id="node10" class="node">
<title>open_gripper</title>
<ellipse fill="lightgray" stroke="black" cx="289.08" cy="-18" rx="45.72" ry="18"/>
<text text-anchor="middle" x="289.08" y="-15.8" font-family="Times,serif" font-size="9.00">open_gripper</text>
</g>
<!-- Fallback &#160;&#45;&gt;open_gripper -->
<g id="edge9" class="edge">
<title>Fallback &#160;&#45;&gt;open_gripper</title>
<path fill="none" stroke="black" d="M257.46,-71.7C262.42,-63.44 268.44,-53.39 273.9,-44.3"/>
<polygon fill="black" stroke="black" points="276.96,-46 279.11,-35.62 270.96,-42.4 276.96,-46"/>
</g>
<!-- object_at BlueBox [0.0, 0.0, 0.175] 0.02 KittingBox -->
<g id="node14" class="node">
<title>object_at BlueBox [0.0, 0.0, 0.175] 0.02 KittingBox</title>
<ellipse fill="lightgray" stroke="black" cx="568.08" cy="-306" rx="147.6" ry="18"/>
<text text-anchor="middle" x="568.08" y="-303.8" font-family="Times,serif" font-size="9.00">object_at BlueBox [0.0, 0.0, 0.175] 0.02 KittingBox</text>
</g>
<!-- Fallback &#160;&#160;&#45;&gt;object_at BlueBox [0.0, 0.0, 0.175] 0.02 KittingBox -->
<g id="edge13" class="edge">
<title>Fallback &#160;&#160;&#45;&gt;object_at BlueBox [0.0, 0.0, 0.175] 0.02 KittingBox</title>
<path fill="none" stroke="black" d="M736.86,-366.97C707.36,-356.49 660.33,-339.78 623.39,-326.65"/>
<polygon fill="black" stroke="black" points="624.35,-323.28 613.75,-323.23 622,-329.87 624.35,-323.28"/>
</g>
<!-- Sequence &#160;&#160; -->
<g id="node15" class="node">
<title>Sequence &#160;&#160;</title>
<polygon fill="orange" stroke="black" points="796.08,-324 734.08,-324 734.08,-288 796.08,-288 796.08,-324"/>
<text text-anchor="middle" x="765.08" y="-303.8" font-family="Times,serif" font-size="9.00">Sequence</text>
</g>
<!-- Fallback &#160;&#160;&#45;&gt;Sequence &#160;&#160; -->
<g id="edge14" class="edge">
<title>Fallback &#160;&#160;&#45;&gt;Sequence &#160;&#160;</title>
<path fill="none" stroke="black" d="M765.08,-359.7C765.08,-351.98 765.08,-342.71 765.08,-334.11"/>
<polygon fill="black" stroke="black" points="768.58,-334.1 765.08,-324.1 761.58,-334.1 768.58,-334.1"/>
</g>
<!-- Fallback &#160;&#160;&#160; -->
<g id="node16" class="node">
<title>Fallback &#160;&#160;&#160;</title>
<polygon fill="cyan" stroke="black" points="624.07,-226.54 624.07,-241.46 603.57,-252 574.59,-252 554.09,-241.46 554.09,-226.54 574.59,-216 603.57,-216 624.07,-226.54"/>
<text text-anchor="middle" x="589.08" y="-231.8" font-family="Times,serif" font-size="9.00">Fallback</text>
</g>
<!-- Sequence &#160;&#160;&#45;&gt;Fallback &#160;&#160;&#160; -->
<g id="edge15" class="edge">
<title>Sequence &#160;&#160;&#45;&gt;Fallback &#160;&#160;&#160;</title>
<path fill="none" stroke="black" d="M733.68,-291.55C730.77,-290.34 727.88,-289.14 725.08,-288 715.49,-284.1 662.74,-263.58 625.83,-249.25"/>
<polygon fill="black" stroke="black" points="626.94,-245.93 616.35,-245.58 624.41,-252.46 626.94,-245.93"/>
</g>
<!-- place0 BlueBox [0.0, 0.0, 0.175] 0.02 KittingBox -->
<g id="node23" class="node">
<title>place0 BlueBox [0.0, 0.0, 0.175] 0.02 KittingBox</title>
<ellipse fill="lightgray" stroke="black" cx="783.08" cy="-234" rx="141.4" ry="18"/>
<text text-anchor="middle" x="783.08" y="-231.8" font-family="Times,serif" font-size="9.00">place0 BlueBox [0.0, 0.0, 0.175] 0.02 KittingBox</text>
</g>
<!-- Sequence &#160;&#160;&#45;&gt;place0 BlueBox [0.0, 0.0, 0.175] 0.02 KittingBox -->
<g id="edge22" class="edge">
<title>Sequence &#160;&#160;&#45;&gt;place0 BlueBox [0.0, 0.0, 0.175] 0.02 KittingBox</title>
<path fill="none" stroke="black" d="M769.53,-287.7C771.54,-279.9 773.95,-270.51 776.18,-261.83"/>
<polygon fill="black" stroke="black" points="779.58,-262.66 778.68,-252.1 772.8,-260.92 779.58,-262.66"/>
</g>
<!-- in_gripper BlueBox -->
<g id="node17" class="node">
<title>in_gripper BlueBox</title>
<ellipse fill="lightgray" stroke="black" cx="485.08" cy="-162" rx="61.55" ry="18"/>
<text text-anchor="middle" x="485.08" y="-159.8" font-family="Times,serif" font-size="9.00">in_gripper BlueBox</text>
</g>
<!-- Fallback &#160;&#160;&#160;&#45;&gt;in_gripper BlueBox -->
<g id="edge16" class="edge">
<title>Fallback &#160;&#160;&#160;&#45;&gt;in_gripper BlueBox</title>
<path fill="none" stroke="black" d="M568.03,-218.83C553.38,-208.97 533.56,-195.63 516.97,-184.47"/>
<polygon fill="black" stroke="black" points="518.89,-181.53 508.64,-178.85 514.98,-187.34 518.89,-181.53"/>
</g>
<!-- Sequence &#160;&#160;&#160; -->
<g id="node18" class="node">
<title>Sequence &#160;&#160;&#160;</title>
<polygon fill="orange" stroke="black" points="627.08,-180 565.08,-180 565.08,-144 627.08,-144 627.08,-180"/>
<text text-anchor="middle" x="596.08" y="-159.8" font-family="Times,serif" font-size="9.00">Sequence</text>
</g>
<!-- Fallback &#160;&#160;&#160;&#45;&gt;Sequence &#160;&#160;&#160; -->
<g id="edge17" class="edge">
<title>Fallback &#160;&#160;&#160;&#45;&gt;Sequence &#160;&#160;&#160;</title>
<path fill="none" stroke="black" d="M590.81,-215.7C591.58,-207.98 592.51,-198.71 593.37,-190.11"/>
<polygon fill="black" stroke="black" points="596.86,-190.4 594.37,-180.1 589.89,-189.71 596.86,-190.4"/>
</g>
<!-- Fallback &#160;&#160;&#160;&#160; -->
<g id="node19" class="node">
<title>Fallback &#160;&#160;&#160;&#160;</title>
<polygon fill="cyan" stroke="black" points="534.07,-82.54 534.07,-97.46 513.57,-108 484.59,-108 464.09,-97.46 464.09,-82.54 484.59,-72 513.57,-72 534.07,-82.54"/>
<text text-anchor="middle" x="499.08" y="-87.8" font-family="Times,serif" font-size="9.00">Fallback</text>
</g>
<!-- Sequence &#160;&#160;&#160;&#45;&gt;Fallback &#160;&#160;&#160;&#160; -->
<g id="edge18" class="edge">
<title>Sequence &#160;&#160;&#160;&#45;&gt;Fallback &#160;&#160;&#160;&#160;</title>
<path fill="none" stroke="black" d="M572.1,-143.7C558.54,-133.91 541.5,-121.61 527.29,-111.36"/>
<polygon fill="black" stroke="black" points="529.02,-108.29 518.87,-105.28 524.93,-113.97 529.02,-108.29"/>
</g>
<!-- pick0 BlueBox -->
<g id="node22" class="node">
<title>pick0 BlueBox</title>
<ellipse fill="lightgray" stroke="black" cx="600.08" cy="-90" rx="47.84" ry="18"/>
<text text-anchor="middle" x="600.08" y="-87.8" font-family="Times,serif" font-size="9.00">pick0 BlueBox</text>
</g>
<!-- Sequence &#160;&#160;&#160;&#45;&gt;pick0 BlueBox -->
<g id="edge21" class="edge">
<title>Sequence &#160;&#160;&#160;&#45;&gt;pick0 BlueBox</title>
<path fill="none" stroke="black" d="M597.07,-143.7C597.51,-135.98 598.04,-126.71 598.53,-118.11"/>
<polygon fill="black" stroke="black" points="602.03,-118.29 599.1,-108.1 595.04,-117.89 602.03,-118.29"/>
</g>
<!-- gripper_state open  -->
<g id="node20" class="node">
<title>gripper_state open </title>
<ellipse fill="lightgray" stroke="black" cx="457.08" cy="-18" rx="60.09" ry="18"/>
<text text-anchor="middle" x="457.08" y="-15.8" font-family="Times,serif" font-size="9.00">gripper_state open</text>
</g>
<!-- Fallback &#160;&#160;&#160;&#160;&#45;&gt;gripper_state open  -->
<g id="edge19" class="edge">
<title>Fallback &#160;&#160;&#160;&#160;&#45;&gt;gripper_state open </title>
<path fill="none" stroke="black" d="M488.7,-71.7C483.82,-63.56 477.89,-53.69 472.5,-44.7"/>
<polygon fill="black" stroke="black" points="475.49,-42.88 467.34,-36.1 469.49,-46.48 475.49,-42.88"/>
</g>
<!-- open_gripper  -->
<g id="node21" class="node">
<title>open_gripper </title>
<ellipse fill="lightgray" stroke="black" cx="581.08" cy="-18" rx="45.72" ry="18"/>
<text text-anchor="middle" x="581.08" y="-15.8" font-family="Times,serif" font-size="9.00">open_gripper</text>
</g>
<!-- Fallback &#160;&#160;&#160;&#160;&#45;&gt;open_gripper  -->
<g id="edge20" class="edge">
<title>Fallback &#160;&#160;&#160;&#160;&#45;&gt;open_gripper </title>
<path fill="none" stroke="black" d="M517.28,-73.46C528.35,-64.02 542.67,-51.79 554.94,-41.32"/>
<polygon fill="black" stroke="black" points="557.32,-43.89 562.65,-34.73 552.77,-38.56 557.32,-43.89"/>
</g>
<!-- object_at GreenBox [&#45;0.133, 0.0, 0.175] 0.02 KittingBox -->
<g id="node25" class="node">
<title>object_at GreenBox [&#45;0.133, 0.0, 0.175] 0.02 KittingBox</title>
<ellipse fill="lightgray" stroke="black" cx="975.08" cy="-306" rx="160.51" ry="18"/>
<text text-anchor="middle" x="975.08" y="-303.8" font-family="Times,serif" font-size="9.00">object_at GreenBox [&#45;0.133, 0.0, 0.175] 0.02 KittingBox</text>
</g>
<!-- Fallback &#160;&#160;&#160;&#160;&#160;&#45;&gt;object_at GreenBox [&#45;0.133, 0.0, 0.175] 0.02 KittingBox -->
<g id="edge24" class="edge">
<title>Fallback &#160;&#160;&#160;&#160;&#160;&#45;&gt;object_at GreenBox [&#45;0.133, 0.0, 0.175] 0.02 KittingBox</title>
<path fill="none" stroke="black" d="M975.08,-359.7C975.08,-351.98 975.08,-342.71 975.08,-334.11"/>
<polygon fill="black" stroke="black" points="978.58,-334.1 975.08,-324.1 971.58,-334.1 978.58,-334.1"/>
</g>
<!-- Sequence &#160;&#160;&#160;&#160; -->
<g id="node26" class="node">
<title>Sequence &#160;&#160;&#160;&#160;</title>
<polygon fill="orange" stroke="black" points="1216.08,-324 1154.08,-324 1154.08,-288 1216.08,-288 1216.08,-324"/>
<text text-anchor="middle" x="1185.08" y="-303.8" font-family="Times,serif" font-size="9.00">Sequence</text>
</g>
<!-- Fallback &#160;&#160;&#160;&#160;&#160;&#45;&gt;Sequence &#160;&#160;&#160;&#160; -->
<g id="edge25" class="edge">
<title>Fallback &#160;&#160;&#160;&#160;&#160;&#45;&gt;Sequence &#160;&#160;&#160;&#160;</title>
<path fill="none" stroke="black" d="M1006.1,-368.34C1038.47,-359.08 1090.84,-343.48 1144.15,-324.18"/>
<polygon fill="black" stroke="black" points="1145.57,-327.39 1153.76,-320.66 1143.16,-320.81 1145.57,-327.39"/>
</g>
<!-- Fallback &#160;&#160;&#160;&#160;&#160;&#160; -->
<g id="node27" class="node">
<title>Fallback &#160;&#160;&#160;&#160;&#160;&#160;</title>
<polygon fill="cyan" stroke="black" points="1017.07,-226.54 1017.07,-241.46 996.57,-252 967.59,-252 947.09,-241.46 947.09,-226.54 967.59,-216 996.57,-216 1017.07,-226.54"/>
<text text-anchor="middle" x="982.08" y="-231.8" font-family="Times,serif" font-size="9.00">Fallback</text>
</g>
<!-- Sequence &#160;&#160;&#160;&#160;&#45;&gt;Fallback &#160;&#160;&#160;&#160;&#160;&#160; -->
<g id="edge26" class="edge">
<title>Sequence &#160;&#160;&#160;&#160;&#45;&gt;Fallback &#160;&#160;&#160;&#160;&#160;&#160;</title>
<path fill="none" stroke="black" d="M1153.77,-291.31C1150.85,-290.15 1147.92,-289.03 1145.08,-288 1093.13,-269.17 1078.33,-269.97 1026.08,-252 1023.55,-251.13 1020.96,-250.21 1018.35,-249.26"/>
<polygon fill="black" stroke="black" points="1019.55,-245.97 1008.96,-245.75 1017.1,-252.53 1019.55,-245.97"/>
</g>
<!-- place0 GreenBox [&#45;0.133, 0.0, 0.175] 0.02 KittingBox -->
<g id="node34" class="node">
<title>place0 GreenBox [&#45;0.133, 0.0, 0.175] 0.02 KittingBox</title>
<ellipse fill="lightgray" stroke="black" cx="1189.08" cy="-234" rx="154.31" ry="18"/>
<text text-anchor="middle" x="1189.08" y="-231.8" font-family="Times,serif" font-size="9.00">place0 GreenBox [&#45;0.133, 0.0, 0.175] 0.02 KittingBox</text>
</g>
<!-- Sequence &#160;&#160;&#160;&#160;&#45;&gt;place0 GreenBox [&#45;0.133, 0.0, 0.175] 0.02 KittingBox -->
<g id="edge33" class="edge">
<title>Sequence &#160;&#160;&#160;&#160;&#45;&gt;place0 GreenBox [&#45;0.133, 0.0, 0.175] 0.02 KittingBox</title>
<path fill="none" stroke="black" d="M1186.07,-287.7C1186.51,-279.98 1187.04,-270.71 1187.53,-262.11"/>
<polygon fill="black" stroke="black" points="1191.03,-262.29 1188.1,-252.1 1184.04,-261.89 1191.03,-262.29"/>
</g>
<!-- in_gripper GreenBox -->
<g id="node28" class="node">
<title>in_gripper GreenBox</title>
<ellipse fill="lightgray" stroke="black" cx="924.08" cy="-162" rx="65.64" ry="18"/>
<text text-anchor="middle" x="924.08" y="-159.8" font-family="Times,serif" font-size="9.00">in_gripper GreenBox</text>
</g>
<!-- Fallback &#160;&#160;&#160;&#160;&#160;&#160;&#45;&gt;in_gripper GreenBox -->
<g id="edge27" class="edge">
<title>Fallback &#160;&#160;&#160;&#160;&#160;&#160;&#45;&gt;in_gripper GreenBox</title>
<path fill="none" stroke="black" d="M967.74,-215.7C960.69,-207.18 952.06,-196.76 944.34,-187.45"/>
<polygon fill="black" stroke="black" points="946.93,-185.09 937.85,-179.62 941.54,-189.56 946.93,-185.09"/>
</g>
<!-- Sequence &#160;&#160;&#160;&#160;&#160; -->
<g id="node29" class="node">
<title>Sequence &#160;&#160;&#160;&#160;&#160;</title>
<polygon fill="orange" stroke="black" points="1070.08,-180 1008.08,-180 1008.08,-144 1070.08,-144 1070.08,-180"/>
<text text-anchor="middle" x="1039.08" y="-159.8" font-family="Times,serif" font-size="9.00">Sequence</text>
</g>
<!-- Fallback &#160;&#160;&#160;&#160;&#160;&#160;&#45;&gt;Sequence &#160;&#160;&#160;&#160;&#160; -->
<g id="edge28" class="edge">
<title>Fallback &#160;&#160;&#160;&#160;&#160;&#160;&#45;&gt;Sequence &#160;&#160;&#160;&#160;&#160;</title>
<path fill="none" stroke="black" d="M996.17,-215.7C1003,-207.3 1011.34,-197.07 1018.84,-187.86"/>
<polygon fill="black" stroke="black" points="1021.55,-190.07 1025.15,-180.1 1016.12,-185.65 1021.55,-190.07"/>
</g>
<!-- Fallback &#160;&#160;&#160;&#160;&#160;&#160;&#160; -->
<g id="node30" class="node">
<title>Fallback &#160;&#160;&#160;&#160;&#160;&#160;&#160;</title>
<polygon fill="cyan" stroke="black" points="1021.07,-82.54 1021.07,-97.46 1000.57,-108 971.59,-108 951.09,-97.46 951.09,-82.54 971.59,-72 1000.57,-72 1021.07,-82.54"/>
<text text-anchor="middle" x="986.08" y="-87.8" font-family="Times,serif" font-size="9.00">Fallback</text>
</g>
<!-- Sequence &#160;&#160;&#160;&#160;&#160;&#45;&gt;Fallback &#160;&#160;&#160;&#160;&#160;&#160;&#160; -->
<g id="edge29" class="edge">
<title>Sequence &#160;&#160;&#160;&#160;&#160;&#45;&gt;Fallback &#160;&#160;&#160;&#160;&#160;&#160;&#160;</title>
<path fill="none" stroke="black" d="M1025.98,-143.7C1019.69,-135.39 1012.03,-125.28 1005.12,-116.14"/>
<polygon fill="black" stroke="black" points="1007.86,-113.96 999.03,-108.1 1002.28,-118.19 1007.86,-113.96"/>
</g>
<!-- pick0 GreenBox -->
<g id="node33" class="node">
<title>pick0 GreenBox</title>
<ellipse fill="lightgray" stroke="black" cx="1092.08" cy="-90" rx="52.58" ry="18"/>
<text text-anchor="middle" x="1092.08" y="-87.8" font-family="Times,serif" font-size="9.00">pick0 GreenBox</text>
</g>
<!-- Sequence &#160;&#160;&#160;&#160;&#160;&#45;&gt;pick0 GreenBox -->
<g id="edge32" class="edge">
<title>Sequence &#160;&#160;&#160;&#160;&#160;&#45;&gt;pick0 GreenBox</title>
<path fill="none" stroke="black" d="M1052.18,-143.7C1058.57,-135.27 1066.36,-124.97 1073.35,-115.73"/>
<polygon fill="black" stroke="black" points="1076.25,-117.71 1079.5,-107.62 1070.67,-113.48 1076.25,-117.71"/>
</g>
<!-- gripper_state open &#160; -->
<g id="node31" class="node">
<title>gripper_state open &#160;</title>
<ellipse fill="lightgray" stroke="black" cx="924.08" cy="-18" rx="60.09" ry="18"/>
<text text-anchor="middle" x="924.08" y="-15.8" font-family="Times,serif" font-size="9.00">gripper_state open</text>
</g>
<!-- Fallback &#160;&#160;&#160;&#160;&#160;&#160;&#160;&#45;&gt;gripper_state open &#160; -->
<g id="edge30" class="edge">
<title>Fallback &#160;&#160;&#160;&#160;&#160;&#160;&#160;&#45;&gt;gripper_state open &#160;</title>
<path fill="none" stroke="black" d="M971.07,-72.05C963.46,-63.46 954.07,-52.86 945.69,-43.4"/>
<polygon fill="black" stroke="black" points="948.2,-40.95 938.95,-35.79 942.96,-45.6 948.2,-40.95"/>
</g>
<!-- open_gripper &#160; -->
<g id="node32" class="node">
<title>open_gripper &#160;</title>
<ellipse fill="lightgray" stroke="black" cx="1048.08" cy="-18" rx="45.72" ry="18"/>
<text text-anchor="middle" x="1048.08" y="-15.8" font-family="Times,serif" font-size="9.00">open_gripper</text>
</g>
<!-- Fallback &#160;&#160;&#160;&#160;&#160;&#160;&#160;&#45;&gt;open_gripper &#160; -->
<g id="edge31" class="edge">
<title>Fallback &#160;&#160;&#160;&#160;&#160;&#160;&#160;&#45;&gt;open_gripper &#160;</title>
<path fill="none" stroke="black" d="M1001.09,-72.05C1008.82,-63.33 1018.37,-52.54 1026.84,-42.98"/>
<polygon fill="black" stroke="black" points="1029.63,-45.11 1033.64,-35.31 1024.39,-40.47 1029.63,-45.11"/>
</g>
<!-- object_at YellowBox [0.0, 0.12, 0.12] 0.02 GreenBox -->
<g id="node36" class="node">
<title>object_at YellowBox [0.0, 0.12, 0.12] 0.02 GreenBox</title>
<ellipse fill="lightgray" stroke="black" cx="1384.08" cy="-306" rx="150.22" ry="18"/>
<text text-anchor="middle" x="1384.08" y="-303.8" font-family="Times,serif" font-size="9.00">object_at YellowBox [0.0, 0.12, 0.12] 0.02 GreenBox</text>
</g>
<!-- Fallback &#160;&#160;&#160;&#160;&#160;&#160;&#160;&#160;&#45;&gt;object_at YellowBox [0.0, 0.12, 0.12] 0.02 GreenBox -->
<g id="edge35" class="edge">
<title>Fallback &#160;&#160;&#160;&#160;&#160;&#160;&#160;&#160;&#45;&gt;object_at YellowBox [0.0, 0.12, 0.12] 0.02 GreenBox</title>
<path fill="none" stroke="black" d="M1384.08,-359.7C1384.08,-351.98 1384.08,-342.71 1384.08,-334.11"/>
<polygon fill="black" stroke="black" points="1387.58,-334.1 1384.08,-324.1 1380.58,-334.1 1387.58,-334.1"/>
</g>
<!-- Sequence &#160;&#160;&#160;&#160;&#160;&#160; -->
<g id="node37" class="node">
<title>Sequence &#160;&#160;&#160;&#160;&#160;&#160;</title>
<polygon fill="orange" stroke="black" points="1614.08,-324 1552.08,-324 1552.08,-288 1614.08,-288 1614.08,-324"/>
<text text-anchor="middle" x="1583.08" y="-303.8" font-family="Times,serif" font-size="9.00">Sequence</text>
</g>
<!-- Fallback &#160;&#160;&#160;&#160;&#160;&#160;&#160;&#160;&#45;&gt;Sequence &#160;&#160;&#160;&#160;&#160;&#160; -->
<g id="edge36" class="edge">
<title>Fallback &#160;&#160;&#160;&#160;&#160;&#160;&#160;&#160;&#45;&gt;Sequence &#160;&#160;&#160;&#160;&#160;&#160;</title>
<path fill="none" stroke="black" d="M1413.93,-367.84C1444.12,-358.4 1492.3,-342.87 1542.09,-324.24"/>
<polygon fill="black" stroke="black" points="1543.61,-327.41 1551.73,-320.6 1541.14,-320.86 1543.61,-327.41"/>
</g>
<!-- Fallback &#160;&#160;&#160;&#160;&#160;&#160;&#160;&#160;&#160; -->
<g id="node38" class="node">
<title>Fallback &#160;&#160;&#160;&#160;&#160;&#160;&#160;&#160;&#160;</title>
<polygon fill="cyan" stroke="black" points="1526.07,-226.54 1526.07,-241.46 1505.57,-252 1476.59,-252 1456.09,-241.46 1456.09,-226.54 1476.59,-216 1505.57,-216 1526.07,-226.54"/>
<text text-anchor="middle" x="1491.08" y="-231.8" font-family="Times,serif" font-size="9.00">Fallback</text>
</g>
<!-- Sequence &#160;&#160;&#160;&#160;&#160;&#160;&#45;&gt;Fallback &#160;&#160;&#160;&#160;&#160;&#160;&#160;&#160;&#160; -->
<g id="edge37" class="edge">
<title>Sequence &#160;&#160;&#160;&#160;&#160;&#160;&#45;&gt;Fallback &#160;&#160;&#160;&#160;&#160;&#160;&#160;&#160;&#160;</title>
<path fill="none" stroke="black" d="M1560.34,-287.7C1547.77,-278.13 1532.05,-266.17 1518.77,-256.07"/>
<polygon fill="black" stroke="black" points="1520.53,-253.01 1510.45,-249.74 1516.29,-258.58 1520.53,-253.01"/>
</g>
<!-- place0 YellowBox [0.0, 0.12, 0.12] 0.02 GreenBox -->
<g id="node45" class="node">
<title>place0 YellowBox [0.0, 0.12, 0.12] 0.02 GreenBox</title>
<ellipse fill="lightgray" stroke="black" cx="1688.08" cy="-234" rx="143.52" ry="18"/>
<text text-anchor="middle" x="1688.08" y="-231.8" font-family="Times,serif" font-size="9.00">place0 YellowBox [0.0, 0.12, 0.12] 0.02 GreenBox</text>
</g>
<!-- Sequence &#160;&#160;&#160;&#160;&#160;&#160;&#45;&gt;place0 YellowBox [0.0, 0.12, 0.12] 0.02 GreenBox -->
<g id="edge44" class="edge">
<title>Sequence &#160;&#160;&#160;&#160;&#160;&#160;&#45;&gt;place0 YellowBox [0.0, 0.12, 0.12] 0.02 GreenBox</title>
<path fill="none" stroke="black" d="M1608.77,-287.88C1622.47,-278.74 1639.5,-267.38 1654.27,-257.54"/>
<polygon fill="black" stroke="black" points="1656.28,-260.41 1662.66,-251.95 1652.4,-254.58 1656.28,-260.41"/>
</g>
<!-- in_gripper YellowBox  -->
<g id="node39" class="node">
<title>in_gripper YellowBox </title>
<ellipse fill="lightgray" stroke="black" cx="1433.08" cy="-162" rx="66.29" ry="18"/>
<text text-anchor="middle" x="1433.08" y="-159.8" font-family="Times,serif" font-size="9.00">in_gripper YellowBox</text>
</g>
<!-- Fallback &#160;&#160;&#160;&#160;&#160;&#160;&#160;&#160;&#160;&#45;&gt;in_gripper YellowBox  -->
<g id="edge38" class="edge">
<title>Fallback &#160;&#160;&#160;&#160;&#160;&#160;&#160;&#160;&#160;&#45;&gt;in_gripper YellowBox </title>
<path fill="none" stroke="black" d="M1476.74,-215.7C1469.69,-207.18 1461.06,-196.76 1453.34,-187.45"/>
<polygon fill="black" stroke="black" points="1455.93,-185.09 1446.85,-179.62 1450.54,-189.56 1455.93,-185.09"/>
</g>
<!-- Sequence &#160;&#160;&#160;&#160;&#160;&#160;&#160; -->
<g id="node40" class="node">
<title>Sequence &#160;&#160;&#160;&#160;&#160;&#160;&#160;</title>
<polygon fill="orange" stroke="black" points="1579.08,-180 1517.08,-180 1517.08,-144 1579.08,-144 1579.08,-180"/>
<text text-anchor="middle" x="1548.08" y="-159.8" font-family="Times,serif" font-size="9.00">Sequence</text>
</g>
<!-- Fallback &#160;&#160;&#160;&#160;&#160;&#160;&#160;&#160;&#160;&#45;&gt;Sequence &#160;&#160;&#160;&#160;&#160;&#160;&#160; -->
<g id="edge39" class="edge">
<title>Fallback &#160;&#160;&#160;&#160;&#160;&#160;&#160;&#160;&#160;&#45;&gt;Sequence &#160;&#160;&#160;&#160;&#160;&#160;&#160;</title>
<path fill="none" stroke="black" d="M1505.17,-215.7C1512,-207.3 1520.34,-197.07 1527.84,-187.86"/>
<polygon fill="black" stroke="black" points="1530.55,-190.07 1534.15,-180.1 1525.12,-185.65 1530.55,-190.07"/>
</g>
<!-- Fallback &#160;&#160;&#160;&#160;&#160;&#160;&#160;&#160;&#160;&#160; -->
<g id="node41" class="node">
<title>Fallback &#160;&#160;&#160;&#160;&#160;&#160;&#160;&#160;&#160;&#160;</title>
<polygon fill="cyan" stroke="black" points="1530.07,-82.54 1530.07,-97.46 1509.57,-108 1480.59,-108 1460.09,-97.46 1460.09,-82.54 1480.59,-72 1509.57,-72 1530.07,-82.54"/>
<text text-anchor="middle" x="1495.08" y="-87.8" font-family="Times,serif" font-size="9.00">Fallback</text>
</g>
<!-- Sequence &#160;&#160;&#160;&#160;&#160;&#160;&#160;&#45;&gt;Fallback &#160;&#160;&#160;&#160;&#160;&#160;&#160;&#160;&#160;&#160; -->
<g id="edge40" class="edge">
<title>Sequence &#160;&#160;&#160;&#160;&#160;&#160;&#160;&#45;&gt;Fallback &#160;&#160;&#160;&#160;&#160;&#160;&#160;&#160;&#160;&#160;</title>
<path fill="none" stroke="black" d="M1534.98,-143.7C1528.69,-135.39 1521.03,-125.28 1514.12,-116.14"/>
<polygon fill="black" stroke="black" points="1516.86,-113.96 1508.03,-108.1 1511.28,-118.19 1516.86,-113.96"/>
</g>
<!-- pick0 YellowBox  -->
<g id="node44" class="node">
<title>pick0 YellowBox </title>
<ellipse fill="lightgray" stroke="black" cx="1601.08" cy="-90" rx="53.23" ry="18"/>
<text text-anchor="middle" x="1601.08" y="-87.8" font-family="Times,serif" font-size="9.00">pick0 YellowBox</text>
</g>
<!-- Sequence &#160;&#160;&#160;&#160;&#160;&#160;&#160;&#45;&gt;pick0 YellowBox  -->
<g id="edge43" class="edge">
<title>Sequence &#160;&#160;&#160;&#160;&#160;&#160;&#160;&#45;&gt;pick0 YellowBox </title>
<path fill="none" stroke="black" d="M1561.18,-143.7C1567.57,-135.27 1575.36,-124.97 1582.35,-115.73"/>
<polygon fill="black" stroke="black" points="1585.25,-117.71 1588.5,-107.62 1579.67,-113.48 1585.25,-117.71"/>
</g>
<!-- gripper_state open &#160;&#160; -->
<g id="node42" class="node">
<title>gripper_state open &#160;&#160;</title>
<ellipse fill="lightgray" stroke="black" cx="1433.08" cy="-18" rx="60.09" ry="18"/>
<text text-anchor="middle" x="1433.08" y="-15.8" font-family="Times,serif" font-size="9.00">gripper_state open</text>
</g>
<!-- Fallback &#160;&#160;&#160;&#160;&#160;&#160;&#160;&#160;&#160;&#160;&#45;&gt;gripper_state open &#160;&#160; -->
<g id="edge41" class="edge">
<title>Fallback &#160;&#160;&#160;&#160;&#160;&#160;&#160;&#160;&#160;&#160;&#45;&gt;gripper_state open &#160;&#160;</title>
<path fill="none" stroke="black" d="M1480.07,-72.05C1472.46,-63.46 1463.07,-52.86 1454.69,-43.4"/>
<polygon fill="black" stroke="black" points="1457.2,-40.95 1447.95,-35.79 1451.96,-45.6 1457.2,-40.95"/>
</g>
<!-- open_gripper &#160;&#160; -->
<g id="node43" class="node">
<title>open_gripper &#160;&#160;</title>
<ellipse fill="lightgray" stroke="black" cx="1557.08" cy="-18" rx="45.72" ry="18"/>
<text text-anchor="middle" x="1557.08" y="-15.8" font-family="Times,serif" font-size="9.00">open_gripper</text>
</g>
<!-- Fallback &#160;&#160;&#160;&#160;&#160;&#160;&#160;&#160;&#160;&#160;&#45;&gt;open_gripper &#160;&#160; -->
<g id="edge42" class="edge">
<title>Fallback &#160;&#160;&#160;&#160;&#160;&#160;&#160;&#160;&#160;&#160;&#45;&gt;open_gripper &#160;&#160;</title>
<path fill="none" stroke="black" d="M1510.09,-72.05C1517.82,-63.33 1527.37,-52.54 1535.84,-42.98"/>
<polygon fill="black" stroke="black" points="1538.63,-45.11 1542.64,-35.31 1533.39,-40.47 1538.63,-45.11"/>
</g>
</g>
</svg>
