<?xml version="1.0" encoding="UTF-8" standalone="no"?>
<!DOCTYPE svg PUBLIC "-//W3C//DTD SVG 1.1//EN"
 "http://www.w3.org/Graphics/SVG/1.1/DTD/svg11.dtd">
<!-- Generated by graphviz version 2.43.0 (0)
 -->
<!-- Title: pastafarianism Pages: 1 -->
<svg width="438pt" height="185pt"
 viewBox="0.00 0.00 438.14 185.36" xmlns="http://www.w3.org/2000/svg" xmlns:xlink="http://www.w3.org/1999/xlink">
<g id="graph0" class="graph" transform="scale(1 1) rotate(0) translate(4 181.36)">
<title>pastafarianism</title>
<polygon fill="white" stroke="transparent" points="-4,4 -4,-181.36 434.14,-181.36 434.14,4 -4,4"/>
<!-- selector:
 is_inserted_to(gear2, shaft2) -->
<g id="node1" class="node">
<title>selector:
 is_inserted_to(gear2, shaft2)</title>
<polygon fill="#8deeee" stroke="black" points="430.2,-125.3 430.2,-155.94 304.18,-177.6 125.96,-177.6 -0.07,-155.94 -0.07,-125.3 125.96,-103.64 304.18,-103.64 430.2,-125.3"/>
<text text-anchor="middle" x="215.07" y="-146.22" font-family="Times,serif" font-size="18.00">selector:</text>
<text text-anchor="middle" x="215.07" y="-126.22" font-family="Times,serif" font-size="18.00"> is_inserted_to(gear2, shaft2)</text>
</g>
<!-- target:
 is_inserted_to(gear2, shaft2) -->
<g id="node2" class="node">
<title>target:
 is_inserted_to(gear2, shaft2)</title>
<ellipse fill="#ffec8b" stroke="black" cx="215.07" cy="-33.94" rx="198.89" ry="33.88"/>
<text text-anchor="middle" x="215.07" y="-39.54" font-family="Times,serif" font-size="18.00">target:</text>
<text text-anchor="middle" x="215.07" y="-19.54" font-family="Times,serif" font-size="18.00"> is_inserted_to(gear2, shaft2)</text>
</g>
<!-- selector:
 is_inserted_to(gear2, shaft2)&#45;&gt;target:
 is_inserted_to(gear2, shaft2) -->
<g id="edge1" class="edge">
<title>selector:
 is_inserted_to(gear2, shaft2)&#45;&gt;target:
 is_inserted_to(gear2, shaft2)</title>
<path fill="none" stroke="black" d="M215.07,-103.6C215.07,-95.44 215.07,-86.69 215.07,-78.27"/>
<polygon fill="black" stroke="black" points="218.57,-78.22 215.07,-68.22 211.57,-78.22 218.57,-78.22"/>
</g>
</g>
</svg>
