<?xml version="1.0" encoding="UTF-8" standalone="no"?>
<!DOCTYPE svg PUBLIC "-//W3C//DTD SVG 1.1//EN"
 "http://www.w3.org/Graphics/SVG/1.1/DTD/svg11.dtd">
<!-- Generated by graphviz version 2.43.0 (0)
 -->
<!-- Title: pastafarianism Pages: 1 -->
<svg width="3007pt" height="503pt"
 viewBox="0.00 0.00 3007.25 502.60" xmlns="http://www.w3.org/2000/svg" xmlns:xlink="http://www.w3.org/1999/xlink">
<g id="graph0" class="graph" transform="scale(1 1) rotate(0) translate(4 498.6)">
<title>pastafarianism</title>
<polygon fill="white" stroke="transparent" points="-4,4 -4,-498.6 3003.25,-498.6 3003.25,4 -4,4"/>
<!-- selector:
 insert(shaft1, gearbase_hole1, clampgripper, left_hand) -->
<g id="node1" class="node">
<title>selector:
 insert(shaft1, gearbase_hole1, clampgripper, left_hand)</title>
<polygon fill="#8deeee" stroke="black" points="1550.29,-442.54 1550.29,-473.18 1315.33,-494.84 983.04,-494.84 748.08,-473.18 748.08,-442.54 983.04,-420.88 1315.33,-420.88 1550.29,-442.54"/>
<text text-anchor="middle" x="1149.18" y="-463.46" font-family="Times,serif" font-size="18.00">selector:</text>
<text text-anchor="middle" x="1149.18" y="-443.46" font-family="Times,serif" font-size="18.00"> insert(shaft1, gearbase_hole1, clampgripper, left_hand)</text>
</g>
<!-- target:
 is_inserted_to(shaft1, gearbase_hole1) -->
<g id="node2" class="node">
<title>target:
 is_inserted_to(shaft1, gearbase_hole1)</title>
<ellipse fill="#ffec8b" stroke="black" cx="878.18" cy="-351.18" rx="261.76" ry="33.88"/>
<text text-anchor="middle" x="878.18" y="-356.78" font-family="Times,serif" font-size="18.00">target:</text>
<text text-anchor="middle" x="878.18" y="-336.78" font-family="Times,serif" font-size="18.00"> is_inserted_to(shaft1, gearbase_hole1)</text>
</g>
<!-- selector:
 insert(shaft1, gearbase_hole1, clampgripper, left_hand)&#45;&gt;target:
 is_inserted_to(shaft1, gearbase_hole1) -->
<g id="edge1" class="edge">
<title>selector:
 insert(shaft1, gearbase_hole1, clampgripper, left_hand)&#45;&gt;target:
 is_inserted_to(shaft1, gearbase_hole1)</title>
<path fill="none" stroke="black" d="M1056.3,-420.98C1027.94,-410.03 996.81,-398 968.62,-387.11"/>
<polygon fill="black" stroke="black" points="969.77,-383.8 959.18,-383.47 967.24,-390.33 969.77,-383.8"/>
</g>
<!-- sequence:
 insert(shaft1, gearbase_hole1, clampgripper, left_hand) -->
<g id="node3" class="node">
<title>sequence:
 insert(shaft1, gearbase_hole1, clampgripper, left_hand)</title>
<polygon fill="#ff7f24" stroke="black" points="1682.18,-375.18 1158.18,-375.18 1158.18,-327.18 1682.18,-327.18 1682.18,-375.18"/>
<text text-anchor="middle" x="1420.18" y="-356.78" font-family="Times,serif" font-size="18.00">sequence:</text>
<text text-anchor="middle" x="1420.18" y="-336.78" font-family="Times,serif" font-size="18.00"> insert(shaft1, gearbase_hole1, clampgripper, left_hand)</text>
</g>
<!-- selector:
 insert(shaft1, gearbase_hole1, clampgripper, left_hand)&#45;&gt;sequence:
 insert(shaft1, gearbase_hole1, clampgripper, left_hand) -->
<g id="edge2" class="edge">
<title>selector:
 insert(shaft1, gearbase_hole1, clampgripper, left_hand)&#45;&gt;sequence:
 insert(shaft1, gearbase_hole1, clampgripper, left_hand)</title>
<path fill="none" stroke="black" d="M1242.07,-420.98C1277.77,-407.19 1317.86,-391.7 1350.96,-378.92"/>
<polygon fill="black" stroke="black" points="1352.48,-382.09 1360.54,-375.22 1349.95,-375.56 1352.48,-382.09"/>
</g>
<!-- selector:
 change_tool(left_hand, outwardgripper, clampgripper) -->
<g id="node4" class="node">
<title>selector:
 change_tool(left_hand, outwardgripper, clampgripper)</title>
<polygon fill="#8deeee" stroke="black" points="1081.95,-229.19 1081.95,-259.82 851.87,-281.48 526.49,-281.48 296.42,-259.82 296.42,-229.19 526.49,-207.53 851.87,-207.53 1081.95,-229.19"/>
<text text-anchor="middle" x="689.18" y="-250.1" font-family="Times,serif" font-size="18.00">selector:</text>
<text text-anchor="middle" x="689.18" y="-230.1" font-family="Times,serif" font-size="18.00"> change_tool(left_hand, outwardgripper, clampgripper)</text>
</g>
<!-- sequence:
 insert(shaft1, gearbase_hole1, clampgripper, left_hand)&#45;&gt;selector:
 change_tool(left_hand, outwardgripper, clampgripper) -->
<g id="edge3" class="edge">
<title>sequence:
 insert(shaft1, gearbase_hole1, clampgripper, left_hand)&#45;&gt;selector:
 change_tool(left_hand, outwardgripper, clampgripper)</title>
<path fill="none" stroke="black" d="M1259.31,-327.14C1158.42,-312.7 1026.84,-293.85 915.51,-277.91"/>
<polygon fill="black" stroke="black" points="915.88,-274.43 905.48,-276.48 914.89,-281.36 915.88,-274.43"/>
</g>
<!-- selector:
 pick_up(left_hand, clampgripper, shaft1) -->
<g id="node10" class="node">
<title>selector:
 pick_up(left_hand, clampgripper, shaft1)</title>
<polygon fill="#8deeee" stroke="black" points="1718.14,-229.19 1718.14,-259.82 1543.6,-281.48 1296.77,-281.48 1122.23,-259.82 1122.23,-229.19 1296.77,-207.53 1543.6,-207.53 1718.14,-229.19"/>
<text text-anchor="middle" x="1420.18" y="-250.1" font-family="Times,serif" font-size="18.00">selector:</text>
<text text-anchor="middle" x="1420.18" y="-230.1" font-family="Times,serif" font-size="18.00"> pick_up(left_hand, clampgripper, shaft1)</text>
</g>
<!-- sequence:
 insert(shaft1, gearbase_hole1, clampgripper, left_hand)&#45;&gt;selector:
 pick_up(left_hand, clampgripper, shaft1) -->
<g id="edge9" class="edge">
<title>sequence:
 insert(shaft1, gearbase_hole1, clampgripper, left_hand)&#45;&gt;selector:
 pick_up(left_hand, clampgripper, shaft1)</title>
<path fill="none" stroke="black" d="M1420.18,-326.95C1420.18,-316.5 1420.18,-303.79 1420.18,-291.54"/>
<polygon fill="black" stroke="black" points="1423.68,-291.42 1420.18,-281.42 1416.68,-291.42 1423.68,-291.42"/>
</g>
<!-- action:
 insert(left_hand, clampgripper, shaft1, gearbase_hole1) -->
<g id="node16" class="node">
<title>action:
 insert(left_hand, clampgripper, shaft1, gearbase_hole1)</title>
<ellipse fill="lightgreen" stroke="black" cx="2106.18" cy="-244.5" rx="370.55" ry="33.88"/>
<text text-anchor="middle" x="2106.18" y="-250.1" font-family="Times,serif" font-size="18.00">action:</text>
<text text-anchor="middle" x="2106.18" y="-230.1" font-family="Times,serif" font-size="18.00"> insert(left_hand, clampgripper, shaft1, gearbase_hole1)</text>
</g>
<!-- sequence:
 insert(shaft1, gearbase_hole1, clampgripper, left_hand)&#45;&gt;action:
 insert(left_hand, clampgripper, shaft1, gearbase_hole1) -->
<g id="edge15" class="edge">
<title>sequence:
 insert(shaft1, gearbase_hole1, clampgripper, left_hand)&#45;&gt;action:
 insert(left_hand, clampgripper, shaft1, gearbase_hole1)</title>
<path fill="none" stroke="black" d="M1571.15,-327.14C1670.81,-311.94 1802.37,-291.86 1910.09,-275.42"/>
<polygon fill="black" stroke="black" points="1910.75,-278.86 1920.11,-273.9 1909.69,-271.94 1910.75,-278.86"/>
</g>
<!-- target:
 hold(left_hand, clampgripper) -->
<g id="node5" class="node">
<title>target:
 hold(left_hand, clampgripper)</title>
<ellipse fill="#ffec8b" stroke="black" cx="207.18" cy="-137.82" rx="207.36" ry="33.88"/>
<text text-anchor="middle" x="207.18" y="-143.42" font-family="Times,serif" font-size="18.00">target:</text>
<text text-anchor="middle" x="207.18" y="-123.42" font-family="Times,serif" font-size="18.00"> hold(left_hand, clampgripper)</text>
</g>
<!-- selector:
 change_tool(left_hand, outwardgripper, clampgripper)&#45;&gt;target:
 hold(left_hand, clampgripper) -->
<g id="edge4" class="edge">
<title>selector:
 change_tool(left_hand, outwardgripper, clampgripper)&#45;&gt;target:
 hold(left_hand, clampgripper)</title>
<path fill="none" stroke="black" d="M524.32,-207.7C463.88,-194.57 396.33,-179.9 339.16,-167.48"/>
<polygon fill="black" stroke="black" points="339.85,-164.06 329.34,-165.35 338.37,-170.9 339.85,-164.06"/>
</g>
<!-- sequence:
 change_tool(left_hand, outwardgripper, clampgripper) -->
<g id="node6" class="node">
<title>sequence:
 change_tool(left_hand, outwardgripper, clampgripper)</title>
<polygon fill="#ff7f24" stroke="black" points="945.68,-161.82 432.68,-161.82 432.68,-113.82 945.68,-113.82 945.68,-161.82"/>
<text text-anchor="middle" x="689.18" y="-143.42" font-family="Times,serif" font-size="18.00">sequence:</text>
<text text-anchor="middle" x="689.18" y="-123.42" font-family="Times,serif" font-size="18.00"> change_tool(left_hand, outwardgripper, clampgripper)</text>
</g>
<!-- selector:
 change_tool(left_hand, outwardgripper, clampgripper)&#45;&gt;sequence:
 change_tool(left_hand, outwardgripper, clampgripper) -->
<g id="edge5" class="edge">
<title>selector:
 change_tool(left_hand, outwardgripper, clampgripper)&#45;&gt;sequence:
 change_tool(left_hand, outwardgripper, clampgripper)</title>
<path fill="none" stroke="black" d="M689.18,-207.48C689.18,-196.09 689.18,-183.57 689.18,-172.36"/>
<polygon fill="black" stroke="black" points="692.68,-172.11 689.18,-162.11 685.68,-172.11 692.68,-172.11"/>
</g>
<!-- precondition:
 is_empty(outwardgripper) -->
<g id="node7" class="node">
<title>precondition:
 is_empty(outwardgripper)</title>
<ellipse fill="#ffec8b" stroke="black" cx="256.18" cy="-33.94" rx="183.28" ry="33.88"/>
<text text-anchor="middle" x="256.18" y="-39.54" font-family="Times,serif" font-size="18.00">precondition:</text>
<text text-anchor="middle" x="256.18" y="-19.54" font-family="Times,serif" font-size="18.00"> is_empty(outwardgripper)</text>
</g>
<!-- sequence:
 change_tool(left_hand, outwardgripper, clampgripper)&#45;&gt;precondition:
 is_empty(outwardgripper) -->
<g id="edge6" class="edge">
<title>sequence:
 change_tool(left_hand, outwardgripper, clampgripper)&#45;&gt;precondition:
 is_empty(outwardgripper)</title>
<path fill="none" stroke="black" d="M591.2,-113.77C527.71,-98.83 444.57,-79.27 377,-63.37"/>
<polygon fill="black" stroke="black" points="377.68,-59.93 367.14,-61.05 376.08,-66.75 377.68,-59.93"/>
</g>
<!-- precondition:
 hold(left_hand, outwardgripper) -->
<g id="node8" class="node">
<title>precondition:
 hold(left_hand, outwardgripper)</title>
<ellipse fill="#ffec8b" stroke="black" cx="678.18" cy="-33.94" rx="221.15" ry="33.88"/>
<text text-anchor="middle" x="678.18" y="-39.54" font-family="Times,serif" font-size="18.00">precondition:</text>
<text text-anchor="middle" x="678.18" y="-19.54" font-family="Times,serif" font-size="18.00"> hold(left_hand, outwardgripper)</text>
</g>
<!-- sequence:
 change_tool(left_hand, outwardgripper, clampgripper)&#45;&gt;precondition:
 hold(left_hand, outwardgripper) -->
<g id="edge7" class="edge">
<title>sequence:
 change_tool(left_hand, outwardgripper, clampgripper)&#45;&gt;precondition:
 hold(left_hand, outwardgripper)</title>
<path fill="none" stroke="black" d="M686.69,-113.7C685.55,-103.16 684.16,-90.31 682.84,-78.08"/>
<polygon fill="black" stroke="black" points="686.31,-77.58 681.75,-68.01 679.35,-78.33 686.31,-77.58"/>
</g>
<!-- action:
 change_tool(left_hand, outwardgripper, clampgripper) -->
<g id="node9" class="node">
<title>action:
 change_tool(left_hand, outwardgripper, clampgripper)</title>
<ellipse fill="lightgreen" stroke="black" cx="1280.18" cy="-33.94" rx="362.99" ry="33.88"/>
<text text-anchor="middle" x="1280.18" y="-39.54" font-family="Times,serif" font-size="18.00">action:</text>
<text text-anchor="middle" x="1280.18" y="-19.54" font-family="Times,serif" font-size="18.00"> change_tool(left_hand, outwardgripper, clampgripper)</text>
</g>
<!-- sequence:
 change_tool(left_hand, outwardgripper, clampgripper)&#45;&gt;action:
 change_tool(left_hand, outwardgripper, clampgripper) -->
<g id="edge8" class="edge">
<title>sequence:
 change_tool(left_hand, outwardgripper, clampgripper)&#45;&gt;action:
 change_tool(left_hand, outwardgripper, clampgripper)</title>
<path fill="none" stroke="black" d="M822.92,-113.77C905.3,-99.57 1011.92,-81.19 1101.48,-65.75"/>
<polygon fill="black" stroke="black" points="1102.22,-69.17 1111.48,-64.02 1101.03,-62.27 1102.22,-69.17"/>
</g>
<!-- target:
 hold(clampgripper, shaft1) -->
<g id="node11" class="node">
<title>target:
 hold(clampgripper, shaft1)</title>
<ellipse fill="#ffec8b" stroke="black" cx="1420.18" cy="-137.82" rx="185.94" ry="33.88"/>
<text text-anchor="middle" x="1420.18" y="-143.42" font-family="Times,serif" font-size="18.00">target:</text>
<text text-anchor="middle" x="1420.18" y="-123.42" font-family="Times,serif" font-size="18.00"> hold(clampgripper, shaft1)</text>
</g>
<!-- selector:
 pick_up(left_hand, clampgripper, shaft1)&#45;&gt;target:
 hold(clampgripper, shaft1) -->
<g id="edge10" class="edge">
<title>selector:
 pick_up(left_hand, clampgripper, shaft1)&#45;&gt;target:
 hold(clampgripper, shaft1)</title>
<path fill="none" stroke="black" d="M1420.18,-207.48C1420.18,-199.32 1420.18,-190.58 1420.18,-182.15"/>
<polygon fill="black" stroke="black" points="1423.68,-182.1 1420.18,-172.1 1416.68,-182.1 1423.68,-182.1"/>
</g>
<!-- sequence:
 pick_up(left_hand, clampgripper, shaft1) -->
<g id="node12" class="node">
<title>sequence:
 pick_up(left_hand, clampgripper, shaft1)</title>
<polygon fill="#ff7f24" stroke="black" points="2221.68,-161.82 1832.68,-161.82 1832.68,-113.82 2221.68,-113.82 2221.68,-161.82"/>
<text text-anchor="middle" x="2027.18" y="-143.42" font-family="Times,serif" font-size="18.00">sequence:</text>
<text text-anchor="middle" x="2027.18" y="-123.42" font-family="Times,serif" font-size="18.00"> pick_up(left_hand, clampgripper, shaft1)</text>
</g>
<!-- selector:
 pick_up(left_hand, clampgripper, shaft1)&#45;&gt;sequence:
 pick_up(left_hand, clampgripper, shaft1) -->
<g id="edge11" class="edge">
<title>selector:
 pick_up(left_hand, clampgripper, shaft1)&#45;&gt;sequence:
 pick_up(left_hand, clampgripper, shaft1)</title>
<path fill="none" stroke="black" d="M1593.31,-213.65C1685.09,-197.82 1796.5,-178.61 1883.45,-163.61"/>
<polygon fill="black" stroke="black" points="1884.13,-167.05 1893.39,-161.9 1882.94,-160.15 1884.13,-167.05"/>
</g>
<!-- precondition:
 is_empty(clampgripper) -->
<g id="node13" class="node">
<title>precondition:
 is_empty(clampgripper)</title>
<ellipse fill="#ffec8b" stroke="black" cx="1830.18" cy="-33.94" rx="169" ry="33.88"/>
<text text-anchor="middle" x="1830.18" y="-39.54" font-family="Times,serif" font-size="18.00">precondition:</text>
<text text-anchor="middle" x="1830.18" y="-19.54" font-family="Times,serif" font-size="18.00"> is_empty(clampgripper)</text>
</g>
<!-- sequence:
 pick_up(left_hand, clampgripper, shaft1)&#45;&gt;precondition:
 is_empty(clampgripper) -->
<g id="edge12" class="edge">
<title>sequence:
 pick_up(left_hand, clampgripper, shaft1)&#45;&gt;precondition:
 is_empty(clampgripper)</title>
<path fill="none" stroke="black" d="M1982.48,-113.7C1957.9,-100.99 1926.87,-84.95 1899.25,-70.66"/>
<polygon fill="black" stroke="black" points="1900.51,-67.37 1890.02,-65.89 1897.3,-73.59 1900.51,-67.37"/>
</g>
<!-- precondition:
 hold(left_hand, clampgripper) -->
<g id="node14" class="node">
<title>precondition:
 hold(left_hand, clampgripper)</title>
<ellipse fill="#ffec8b" stroke="black" cx="2224.18" cy="-33.94" rx="207.36" ry="33.88"/>
<text text-anchor="middle" x="2224.18" y="-39.54" font-family="Times,serif" font-size="18.00">precondition:</text>
<text text-anchor="middle" x="2224.18" y="-19.54" font-family="Times,serif" font-size="18.00"> hold(left_hand, clampgripper)</text>
</g>
<!-- sequence:
 pick_up(left_hand, clampgripper, shaft1)&#45;&gt;precondition:
 hold(left_hand, clampgripper) -->
<g id="edge13" class="edge">
<title>sequence:
 pick_up(left_hand, clampgripper, shaft1)&#45;&gt;precondition:
 hold(left_hand, clampgripper)</title>
<path fill="none" stroke="black" d="M2071.88,-113.7C2096.16,-101.15 2126.72,-85.35 2154.09,-71.19"/>
<polygon fill="black" stroke="black" points="2155.95,-74.17 2163.23,-66.46 2152.74,-67.95 2155.95,-74.17"/>
</g>
<!-- action:
 pick_up(left_hand, clampgripper, shaft1) -->
<g id="node15" class="node">
<title>action:
 pick_up(left_hand, clampgripper, shaft1)</title>
<ellipse fill="lightgreen" stroke="black" cx="2724.18" cy="-33.94" rx="275.13" ry="33.88"/>
<text text-anchor="middle" x="2724.18" y="-39.54" font-family="Times,serif" font-size="18.00">action:</text>
<text text-anchor="middle" x="2724.18" y="-19.54" font-family="Times,serif" font-size="18.00"> pick_up(left_hand, clampgripper, shaft1)</text>
</g>
<!-- sequence:
 pick_up(left_hand, clampgripper, shaft1)&#45;&gt;action:
 pick_up(left_hand, clampgripper, shaft1) -->
<g id="edge14" class="edge">
<title>sequence:
 pick_up(left_hand, clampgripper, shaft1)&#45;&gt;action:
 pick_up(left_hand, clampgripper, shaft1)</title>
<path fill="none" stroke="black" d="M2184.91,-113.77C2290.55,-98.33 2429.99,-77.94 2540.62,-61.77"/>
<polygon fill="black" stroke="black" points="2541.16,-65.23 2550.55,-60.32 2540.15,-58.3 2541.16,-65.23"/>
</g>
</g>
</svg>
