<?xml version="1.0" encoding="UTF-8" standalone="no"?>
<!DOCTYPE svg PUBLIC "-//W3C//DTD SVG 1.1//EN"
 "http://www.w3.org/Graphics/SVG/1.1/DTD/svg11.dtd">
<!-- Generated by graphviz version 2.43.0 (0)
 -->
<!-- Title: pastafarianism Pages: 1 -->
<svg width="2968pt" height="503pt"
 viewBox="0.00 0.00 2967.97 502.60" xmlns="http://www.w3.org/2000/svg" xmlns:xlink="http://www.w3.org/1999/xlink">
<g id="graph0" class="graph" transform="scale(1 1) rotate(0) translate(4 498.6)">
<title>pastafarianism</title>
<polygon fill="white" stroke="transparent" points="-4,4 -4,-498.6 2963.97,-498.6 2963.97,4 -4,4"/>
<!-- selector:
 insert(shaft3, gearbase_hole3, defaultgripper, left_hand) -->
<g id="node1" class="node">
<title>selector:
 insert(shaft3, gearbase_hole3, defaultgripper, left_hand)</title>
<polygon fill="#8deeee" stroke="black" points="1646.43,-442.54 1646.43,-473.18 1407.5,-494.84 1069.6,-494.84 830.67,-473.18 830.67,-442.54 1069.6,-420.88 1407.5,-420.88 1646.43,-442.54"/>
<text text-anchor="middle" x="1238.55" y="-463.46" font-family="Times,serif" font-size="18.00">selector:</text>
<text text-anchor="middle" x="1238.55" y="-443.46" font-family="Times,serif" font-size="18.00"> insert(shaft3, gearbase_hole3, defaultgripper, left_hand)</text>
</g>
<!-- target:
 is_inserted_to(shaft3, gearbase_hole3) -->
<g id="node2" class="node">
<title>target:
 is_inserted_to(shaft3, gearbase_hole3)</title>
<ellipse fill="#ffec8b" stroke="black" cx="965.55" cy="-351.18" rx="261.76" ry="33.88"/>
<text text-anchor="middle" x="965.55" y="-356.78" font-family="Times,serif" font-size="18.00">target:</text>
<text text-anchor="middle" x="965.55" y="-336.78" font-family="Times,serif" font-size="18.00"> is_inserted_to(shaft3, gearbase_hole3)</text>
</g>
<!-- selector:
 insert(shaft3, gearbase_hole3, defaultgripper, left_hand)&#45;&gt;target:
 is_inserted_to(shaft3, gearbase_hole3) -->
<g id="edge1" class="edge">
<title>selector:
 insert(shaft3, gearbase_hole3, defaultgripper, left_hand)&#45;&gt;target:
 is_inserted_to(shaft3, gearbase_hole3)</title>
<path fill="none" stroke="black" d="M1144.98,-420.98C1116.41,-410.03 1085.05,-398 1056.65,-387.11"/>
<polygon fill="black" stroke="black" points="1057.73,-383.78 1047.14,-383.47 1055.22,-390.31 1057.73,-383.78"/>
</g>
<!-- sequence:
 insert(shaft3, gearbase_hole3, defaultgripper, left_hand) -->
<g id="node3" class="node">
<title>sequence:
 insert(shaft3, gearbase_hole3, defaultgripper, left_hand)</title>
<polygon fill="#ff7f24" stroke="black" points="1778.05,-375.18 1245.05,-375.18 1245.05,-327.18 1778.05,-327.18 1778.05,-375.18"/>
<text text-anchor="middle" x="1511.55" y="-356.78" font-family="Times,serif" font-size="18.00">sequence:</text>
<text text-anchor="middle" x="1511.55" y="-336.78" font-family="Times,serif" font-size="18.00"> insert(shaft3, gearbase_hole3, defaultgripper, left_hand)</text>
</g>
<!-- selector:
 insert(shaft3, gearbase_hole3, defaultgripper, left_hand)&#45;&gt;sequence:
 insert(shaft3, gearbase_hole3, defaultgripper, left_hand) -->
<g id="edge2" class="edge">
<title>selector:
 insert(shaft3, gearbase_hole3, defaultgripper, left_hand)&#45;&gt;sequence:
 insert(shaft3, gearbase_hole3, defaultgripper, left_hand)</title>
<path fill="none" stroke="black" d="M1332.12,-420.98C1368.08,-407.19 1408.47,-391.7 1441.81,-378.92"/>
<polygon fill="black" stroke="black" points="1443.38,-382.07 1451.47,-375.22 1440.88,-375.53 1443.38,-382.07"/>
</g>
<!-- selector:
 change_tool(left_hand, inwardgripper, defaultgripper) -->
<g id="node4" class="node">
<title>selector:
 change_tool(left_hand, inwardgripper, defaultgripper)</title>
<polygon fill="#8deeee" stroke="black" points="1090.72,-229.19 1090.72,-259.82 862.16,-281.48 538.93,-281.48 310.37,-259.82 310.37,-229.19 538.93,-207.53 862.16,-207.53 1090.72,-229.19"/>
<text text-anchor="middle" x="700.55" y="-250.1" font-family="Times,serif" font-size="18.00">selector:</text>
<text text-anchor="middle" x="700.55" y="-230.1" font-family="Times,serif" font-size="18.00"> change_tool(left_hand, inwardgripper, defaultgripper)</text>
</g>
<!-- sequence:
 insert(shaft3, gearbase_hole3, defaultgripper, left_hand)&#45;&gt;selector:
 change_tool(left_hand, inwardgripper, defaultgripper) -->
<g id="edge3" class="edge">
<title>sequence:
 insert(shaft3, gearbase_hole3, defaultgripper, left_hand)&#45;&gt;selector:
 change_tool(left_hand, inwardgripper, defaultgripper)</title>
<path fill="none" stroke="black" d="M1333.32,-327.18C1217.88,-312.28 1066.15,-292.69 940.21,-276.44"/>
<polygon fill="black" stroke="black" points="940.4,-272.93 930.03,-275.12 939.5,-279.87 940.4,-272.93"/>
</g>
<!-- selector:
 pick_up(left_hand, defaultgripper, shaft3) -->
<g id="node10" class="node">
<title>selector:
 pick_up(left_hand, defaultgripper, shaft3)</title>
<polygon fill="#8deeee" stroke="black" points="1816.28,-229.19 1816.28,-259.82 1637.77,-281.48 1385.32,-281.48 1206.81,-259.82 1206.81,-229.19 1385.32,-207.53 1637.77,-207.53 1816.28,-229.19"/>
<text text-anchor="middle" x="1511.55" y="-250.1" font-family="Times,serif" font-size="18.00">selector:</text>
<text text-anchor="middle" x="1511.55" y="-230.1" font-family="Times,serif" font-size="18.00"> pick_up(left_hand, defaultgripper, shaft3)</text>
</g>
<!-- sequence:
 insert(shaft3, gearbase_hole3, defaultgripper, left_hand)&#45;&gt;selector:
 pick_up(left_hand, defaultgripper, shaft3) -->
<g id="edge9" class="edge">
<title>sequence:
 insert(shaft3, gearbase_hole3, defaultgripper, left_hand)&#45;&gt;selector:
 pick_up(left_hand, defaultgripper, shaft3)</title>
<path fill="none" stroke="black" d="M1511.55,-326.95C1511.55,-316.5 1511.55,-303.79 1511.55,-291.54"/>
<polygon fill="black" stroke="black" points="1515.05,-291.42 1511.55,-281.42 1508.05,-291.42 1515.05,-291.42"/>
</g>
<!-- action:
 insert(left_hand, defaultgripper, shaft3, gearbase_hole3) -->
<g id="node16" class="node">
<title>action:
 insert(left_hand, defaultgripper, shaft3, gearbase_hole3)</title>
<ellipse fill="lightgreen" stroke="black" cx="2211.55" cy="-244.5" rx="376.78" ry="33.88"/>
<text text-anchor="middle" x="2211.55" y="-250.1" font-family="Times,serif" font-size="18.00">action:</text>
<text text-anchor="middle" x="2211.55" y="-230.1" font-family="Times,serif" font-size="18.00"> insert(left_hand, defaultgripper, shaft3, gearbase_hole3)</text>
</g>
<!-- sequence:
 insert(shaft3, gearbase_hole3, defaultgripper, left_hand)&#45;&gt;action:
 insert(left_hand, defaultgripper, shaft3, gearbase_hole3) -->
<g id="edge15" class="edge">
<title>sequence:
 insert(shaft3, gearbase_hole3, defaultgripper, left_hand)&#45;&gt;action:
 insert(left_hand, defaultgripper, shaft3, gearbase_hole3)</title>
<path fill="none" stroke="black" d="M1665.6,-327.14C1767.48,-311.91 1902.06,-291.78 2012.1,-275.33"/>
<polygon fill="black" stroke="black" points="2012.62,-278.79 2022,-273.85 2011.59,-271.87 2012.62,-278.79"/>
</g>
<!-- target:
 hold(left_hand, defaultgripper) -->
<g id="node5" class="node">
<title>target:
 hold(left_hand, defaultgripper)</title>
<ellipse fill="#ffec8b" stroke="black" cx="213.55" cy="-137.82" rx="213.59" ry="33.88"/>
<text text-anchor="middle" x="213.55" y="-143.42" font-family="Times,serif" font-size="18.00">target:</text>
<text text-anchor="middle" x="213.55" y="-123.42" font-family="Times,serif" font-size="18.00"> hold(left_hand, defaultgripper)</text>
</g>
<!-- selector:
 change_tool(left_hand, inwardgripper, defaultgripper)&#45;&gt;target:
 hold(left_hand, defaultgripper) -->
<g id="edge4" class="edge">
<title>selector:
 change_tool(left_hand, inwardgripper, defaultgripper)&#45;&gt;target:
 hold(left_hand, defaultgripper)</title>
<path fill="none" stroke="black" d="M534.65,-207.84C473.68,-194.74 405.45,-180.07 347.62,-167.64"/>
<polygon fill="black" stroke="black" points="348.21,-164.19 337.7,-165.51 346.74,-171.03 348.21,-164.19"/>
</g>
<!-- sequence:
 change_tool(left_hand, inwardgripper, defaultgripper) -->
<g id="node6" class="node">
<title>sequence:
 change_tool(left_hand, inwardgripper, defaultgripper)</title>
<polygon fill="#ff7f24" stroke="black" points="955.55,-161.82 445.55,-161.82 445.55,-113.82 955.55,-113.82 955.55,-161.82"/>
<text text-anchor="middle" x="700.55" y="-143.42" font-family="Times,serif" font-size="18.00">sequence:</text>
<text text-anchor="middle" x="700.55" y="-123.42" font-family="Times,serif" font-size="18.00"> change_tool(left_hand, inwardgripper, defaultgripper)</text>
</g>
<!-- selector:
 change_tool(left_hand, inwardgripper, defaultgripper)&#45;&gt;sequence:
 change_tool(left_hand, inwardgripper, defaultgripper) -->
<g id="edge5" class="edge">
<title>selector:
 change_tool(left_hand, inwardgripper, defaultgripper)&#45;&gt;sequence:
 change_tool(left_hand, inwardgripper, defaultgripper)</title>
<path fill="none" stroke="black" d="M700.55,-207.48C700.55,-196.09 700.55,-183.57 700.55,-172.36"/>
<polygon fill="black" stroke="black" points="704.05,-172.11 700.55,-162.11 697.05,-172.11 704.05,-172.11"/>
</g>
<!-- precondition:
 hold(left_hand, inwardgripper) -->
<g id="node7" class="node">
<title>precondition:
 hold(left_hand, inwardgripper)</title>
<ellipse fill="#ffec8b" stroke="black" cx="246.55" cy="-33.94" rx="212.68" ry="33.88"/>
<text text-anchor="middle" x="246.55" y="-39.54" font-family="Times,serif" font-size="18.00">precondition:</text>
<text text-anchor="middle" x="246.55" y="-19.54" font-family="Times,serif" font-size="18.00"> hold(left_hand, inwardgripper)</text>
</g>
<!-- sequence:
 change_tool(left_hand, inwardgripper, defaultgripper)&#45;&gt;precondition:
 hold(left_hand, inwardgripper) -->
<g id="edge6" class="edge">
<title>sequence:
 change_tool(left_hand, inwardgripper, defaultgripper)&#45;&gt;precondition:
 hold(left_hand, inwardgripper)</title>
<path fill="none" stroke="black" d="M597.81,-113.77C532.36,-99.08 446.98,-79.92 376.79,-64.17"/>
<polygon fill="black" stroke="black" points="377.51,-60.74 366.99,-61.97 375.98,-67.57 377.51,-60.74"/>
</g>
<!-- precondition:
 is_empty(inwardgripper) -->
<g id="node8" class="node">
<title>precondition:
 is_empty(inwardgripper)</title>
<ellipse fill="#ffec8b" stroke="black" cx="651.55" cy="-33.94" rx="174.81" ry="33.88"/>
<text text-anchor="middle" x="651.55" y="-39.54" font-family="Times,serif" font-size="18.00">precondition:</text>
<text text-anchor="middle" x="651.55" y="-19.54" font-family="Times,serif" font-size="18.00"> is_empty(inwardgripper)</text>
</g>
<!-- sequence:
 change_tool(left_hand, inwardgripper, defaultgripper)&#45;&gt;precondition:
 is_empty(inwardgripper) -->
<g id="edge7" class="edge">
<title>sequence:
 change_tool(left_hand, inwardgripper, defaultgripper)&#45;&gt;precondition:
 is_empty(inwardgripper)</title>
<path fill="none" stroke="black" d="M689.43,-113.7C684.25,-102.94 677.93,-89.79 671.94,-77.35"/>
<polygon fill="black" stroke="black" points="674.94,-75.51 667.45,-68.01 668.63,-78.54 674.94,-75.51"/>
</g>
<!-- action:
 change_tool(left_hand, inwardgripper, defaultgripper) -->
<g id="node9" class="node">
<title>action:
 change_tool(left_hand, inwardgripper, defaultgripper)</title>
<ellipse fill="lightgreen" stroke="black" cx="1204.55" cy="-33.94" rx="360.75" ry="33.88"/>
<text text-anchor="middle" x="1204.55" y="-39.54" font-family="Times,serif" font-size="18.00">action:</text>
<text text-anchor="middle" x="1204.55" y="-19.54" font-family="Times,serif" font-size="18.00"> change_tool(left_hand, inwardgripper, defaultgripper)</text>
</g>
<!-- sequence:
 change_tool(left_hand, inwardgripper, defaultgripper)&#45;&gt;action:
 change_tool(left_hand, inwardgripper, defaultgripper) -->
<g id="edge8" class="edge">
<title>sequence:
 change_tool(left_hand, inwardgripper, defaultgripper)&#45;&gt;action:
 change_tool(left_hand, inwardgripper, defaultgripper)</title>
<path fill="none" stroke="black" d="M814.6,-113.77C882.96,-99.95 970.9,-82.17 1045.97,-67"/>
<polygon fill="black" stroke="black" points="1046.89,-70.38 1056,-64.97 1045.5,-63.52 1046.89,-70.38"/>
</g>
<!-- target:
 hold(defaultgripper, shaft3) -->
<g id="node11" class="node">
<title>target:
 hold(defaultgripper, shaft3)</title>
<ellipse fill="#ffec8b" stroke="black" cx="1511.55" cy="-137.82" rx="192.17" ry="33.88"/>
<text text-anchor="middle" x="1511.55" y="-143.42" font-family="Times,serif" font-size="18.00">target:</text>
<text text-anchor="middle" x="1511.55" y="-123.42" font-family="Times,serif" font-size="18.00"> hold(defaultgripper, shaft3)</text>
</g>
<!-- selector:
 pick_up(left_hand, defaultgripper, shaft3)&#45;&gt;target:
 hold(defaultgripper, shaft3) -->
<g id="edge10" class="edge">
<title>selector:
 pick_up(left_hand, defaultgripper, shaft3)&#45;&gt;target:
 hold(defaultgripper, shaft3)</title>
<path fill="none" stroke="black" d="M1511.55,-207.48C1511.55,-199.32 1511.55,-190.58 1511.55,-182.15"/>
<polygon fill="black" stroke="black" points="1515.05,-182.1 1511.55,-172.1 1508.05,-182.1 1515.05,-182.1"/>
</g>
<!-- sequence:
 pick_up(left_hand, defaultgripper, shaft3) -->
<g id="node12" class="node">
<title>sequence:
 pick_up(left_hand, defaultgripper, shaft3)</title>
<polygon fill="#ff7f24" stroke="black" points="2315.55,-161.82 1917.55,-161.82 1917.55,-113.82 2315.55,-113.82 2315.55,-161.82"/>
<text text-anchor="middle" x="2116.55" y="-143.42" font-family="Times,serif" font-size="18.00">sequence:</text>
<text text-anchor="middle" x="2116.55" y="-123.42" font-family="Times,serif" font-size="18.00"> pick_up(left_hand, defaultgripper, shaft3)</text>
</g>
<!-- selector:
 pick_up(left_hand, defaultgripper, shaft3)&#45;&gt;sequence:
 pick_up(left_hand, defaultgripper, shaft3) -->
<g id="edge11" class="edge">
<title>selector:
 pick_up(left_hand, defaultgripper, shaft3)&#45;&gt;sequence:
 pick_up(left_hand, defaultgripper, shaft3)</title>
<path fill="none" stroke="black" d="M1686.13,-213.29C1777.28,-197.52 1887.43,-178.47 1973.48,-163.58"/>
<polygon fill="black" stroke="black" points="1974.33,-166.98 1983.59,-161.83 1973.14,-160.08 1974.33,-166.98"/>
</g>
<!-- precondition:
 is_empty(defaultgripper) -->
<g id="node13" class="node">
<title>precondition:
 is_empty(defaultgripper)</title>
<ellipse fill="#ffec8b" stroke="black" cx="1758.55" cy="-33.94" rx="175.23" ry="33.88"/>
<text text-anchor="middle" x="1758.55" y="-39.54" font-family="Times,serif" font-size="18.00">precondition:</text>
<text text-anchor="middle" x="1758.55" y="-19.54" font-family="Times,serif" font-size="18.00"> is_empty(defaultgripper)</text>
</g>
<!-- sequence:
 pick_up(left_hand, defaultgripper, shaft3)&#45;&gt;precondition:
 is_empty(defaultgripper) -->
<g id="edge12" class="edge">
<title>sequence:
 pick_up(left_hand, defaultgripper, shaft3)&#45;&gt;precondition:
 is_empty(defaultgripper)</title>
<path fill="none" stroke="black" d="M2035.31,-113.7C1984.81,-99.33 1919.33,-80.7 1864.74,-65.16"/>
<polygon fill="black" stroke="black" points="1865.61,-61.77 1855.03,-62.4 1863.69,-68.5 1865.61,-61.77"/>
</g>
<!-- precondition:
 hold(left_hand, defaultgripper) -->
<g id="node14" class="node">
<title>precondition:
 hold(left_hand, defaultgripper)</title>
<ellipse fill="#ffec8b" stroke="black" cx="2165.55" cy="-33.94" rx="213.59" ry="33.88"/>
<text text-anchor="middle" x="2165.55" y="-39.54" font-family="Times,serif" font-size="18.00">precondition:</text>
<text text-anchor="middle" x="2165.55" y="-19.54" font-family="Times,serif" font-size="18.00"> hold(left_hand, defaultgripper)</text>
</g>
<!-- sequence:
 pick_up(left_hand, defaultgripper, shaft3)&#45;&gt;precondition:
 hold(left_hand, defaultgripper) -->
<g id="edge13" class="edge">
<title>sequence:
 pick_up(left_hand, defaultgripper, shaft3)&#45;&gt;precondition:
 hold(left_hand, defaultgripper)</title>
<path fill="none" stroke="black" d="M2127.67,-113.7C2132.84,-102.94 2139.16,-89.79 2145.15,-77.35"/>
<polygon fill="black" stroke="black" points="2148.46,-78.54 2149.64,-68.01 2142.15,-75.51 2148.46,-78.54"/>
</g>
<!-- action:
 pick_up(left_hand, defaultgripper, shaft3) -->
<g id="node15" class="node">
<title>action:
 pick_up(left_hand, defaultgripper, shaft3)</title>
<ellipse fill="lightgreen" stroke="black" cx="2678.55" cy="-33.94" rx="281.36" ry="33.88"/>
<text text-anchor="middle" x="2678.55" y="-39.54" font-family="Times,serif" font-size="18.00">action:</text>
<text text-anchor="middle" x="2678.55" y="-19.54" font-family="Times,serif" font-size="18.00"> pick_up(left_hand, defaultgripper, shaft3)</text>
</g>
<!-- sequence:
 pick_up(left_hand, defaultgripper, shaft3)&#45;&gt;action:
 pick_up(left_hand, defaultgripper, shaft3) -->
<g id="edge14" class="edge">
<title>sequence:
 pick_up(left_hand, defaultgripper, shaft3)&#45;&gt;action:
 pick_up(left_hand, defaultgripper, shaft3)</title>
<path fill="none" stroke="black" d="M2243.72,-113.77C2324.47,-99.13 2429.72,-80.05 2516.45,-64.33"/>
<polygon fill="black" stroke="black" points="2517.17,-67.75 2526.39,-62.53 2515.92,-60.87 2517.17,-67.75"/>
</g>
</g>
</svg>
