<?xml version="1.0" encoding="UTF-8" standalone="no"?>
<!DOCTYPE svg PUBLIC "-//W3C//DTD SVG 1.1//EN"
 "http://www.w3.org/Graphics/SVG/1.1/DTD/svg11.dtd">
<!-- Generated by graphviz version 2.43.0 (0)
 -->
<!-- Title: pastafarianism Pages: 1 -->
<svg width="2035pt" height="620pt"
 viewBox="0.00 0.00 2035.21 620.00" xmlns="http://www.w3.org/2000/svg" xmlns:xlink="http://www.w3.org/1999/xlink">
<g id="graph0" class="graph" transform="scale(1 1) rotate(0) translate(4 616)">
<title>pastafarianism</title>
<polygon fill="white" stroke="transparent" points="-4,4 -4,-616 2031.21,-616 2031.21,4 -4,4"/>
<!-- Sequence -->
<g id="node1" class="node">
<title>Sequence</title>
<polygon fill="orange" stroke="black" points="1053.91,-612 991.91,-612 991.91,-576 1053.91,-576 1053.91,-612"/>
<text text-anchor="middle" x="1022.91" y="-591.8" font-family="Times,serif" font-size="9.00">Sequence</text>
</g>
<!-- Fallback -->
<g id="node2" class="node">
<title>Fallback</title>
<polygon fill="cyan" stroke="black" points="542.91,-514.54 542.91,-529.46 522.41,-540 493.42,-540 472.92,-529.46 472.92,-514.54 493.42,-504 522.41,-504 542.91,-514.54"/>
<text text-anchor="middle" x="507.91" y="-519.8" font-family="Times,serif" font-size="9.00">Fallback</text>
</g>
<!-- Sequence&#45;&gt;Fallback -->
<g id="edge1" class="edge">
<title>Sequence&#45;&gt;Fallback</title>
<path fill="none" stroke="black" d="M991.86,-588.78C904.4,-576.89 655.73,-543.09 553.08,-529.14"/>
<polygon fill="black" stroke="black" points="553.41,-525.65 543.03,-527.77 552.47,-532.59 553.41,-525.65"/>
</g>
<!-- Fallback &#160;&#160;&#160;&#160;&#160;&#160; -->
<g id="node27" class="node">
<title>Fallback &#160;&#160;&#160;&#160;&#160;&#160;</title>
<polygon fill="cyan" stroke="black" points="962.91,-514.54 962.91,-529.46 942.41,-540 913.42,-540 892.92,-529.46 892.92,-514.54 913.42,-504 942.41,-504 962.91,-514.54"/>
<text text-anchor="middle" x="927.91" y="-519.8" font-family="Times,serif" font-size="9.00">Fallback</text>
</g>
<!-- Sequence&#45;&gt;Fallback &#160;&#160;&#160;&#160;&#160;&#160; -->
<g id="edge26" class="edge">
<title>Sequence&#45;&gt;Fallback &#160;&#160;&#160;&#160;&#160;&#160;</title>
<path fill="none" stroke="black" d="M999.43,-575.7C986.24,-565.97 969.68,-553.78 955.83,-543.57"/>
<polygon fill="black" stroke="black" points="957.73,-540.62 947.6,-537.51 953.58,-546.26 957.73,-540.62"/>
</g>
<!-- Fallback &#160;&#160;&#160;&#160;&#160;&#160;&#160;&#160;&#160; -->
<g id="node38" class="node">
<title>Fallback &#160;&#160;&#160;&#160;&#160;&#160;&#160;&#160;&#160;</title>
<polygon fill="cyan" stroke="black" points="1153.91,-514.54 1153.91,-529.46 1133.41,-540 1104.42,-540 1083.92,-529.46 1083.92,-514.54 1104.42,-504 1133.41,-504 1153.91,-514.54"/>
<text text-anchor="middle" x="1118.91" y="-519.8" font-family="Times,serif" font-size="9.00">Fallback</text>
</g>
<!-- Sequence&#45;&gt;Fallback &#160;&#160;&#160;&#160;&#160;&#160;&#160;&#160;&#160; -->
<g id="edge37" class="edge">
<title>Sequence&#45;&gt;Fallback &#160;&#160;&#160;&#160;&#160;&#160;&#160;&#160;&#160;</title>
<path fill="none" stroke="black" d="M1046.65,-575.7C1059.98,-565.97 1076.71,-553.78 1090.71,-543.57"/>
<polygon fill="black" stroke="black" points="1093,-546.23 1099.02,-537.51 1088.88,-540.57 1093,-546.23"/>
</g>
<!-- Fallback &#160;&#160;&#160;&#160;&#160;&#160;&#160;&#160;&#160;&#160;&#160;&#160; -->
<g id="node49" class="node">
<title>Fallback &#160;&#160;&#160;&#160;&#160;&#160;&#160;&#160;&#160;&#160;&#160;&#160;</title>
<polygon fill="cyan" stroke="black" points="1540.91,-514.54 1540.91,-529.46 1520.41,-540 1491.42,-540 1470.92,-529.46 1470.92,-514.54 1491.42,-504 1520.41,-504 1540.91,-514.54"/>
<text text-anchor="middle" x="1505.91" y="-519.8" font-family="Times,serif" font-size="9.00">Fallback</text>
</g>
<!-- Sequence&#45;&gt;Fallback &#160;&#160;&#160;&#160;&#160;&#160;&#160;&#160;&#160;&#160;&#160;&#160; -->
<g id="edge48" class="edge">
<title>Sequence&#45;&gt;Fallback &#160;&#160;&#160;&#160;&#160;&#160;&#160;&#160;&#160;&#160;&#160;&#160;</title>
<path fill="none" stroke="black" d="M1054.23,-588.46C1137.33,-576.42 1363.67,-543.62 1460.73,-529.55"/>
<polygon fill="black" stroke="black" points="1461.42,-532.99 1470.81,-528.09 1460.41,-526.06 1461.42,-532.99"/>
</g>
<!-- unstacked -->
<g id="node3" class="node">
<title>unstacked</title>
<ellipse fill="lightgray" stroke="black" cx="421.91" cy="-450" rx="36.9" ry="18"/>
<text text-anchor="middle" x="421.91" y="-447.8" font-family="Times,serif" font-size="9.00">unstacked</text>
</g>
<!-- Fallback&#45;&gt;unstacked -->
<g id="edge2" class="edge">
<title>Fallback&#45;&gt;unstacked</title>
<path fill="none" stroke="black" d="M489.25,-505.81C477.23,-496.02 461.41,-483.15 448.13,-472.34"/>
<polygon fill="black" stroke="black" points="450.21,-469.52 440.24,-465.92 445.79,-474.95 450.21,-469.52"/>
</g>
<!-- Sequence  -->
<g id="node4" class="node">
<title>Sequence </title>
<polygon fill="orange" stroke="black" points="538.91,-468 476.91,-468 476.91,-432 538.91,-432 538.91,-468"/>
<text text-anchor="middle" x="507.91" y="-447.8" font-family="Times,serif" font-size="9.00">Sequence</text>
</g>
<!-- Fallback&#45;&gt;Sequence  -->
<g id="edge3" class="edge">
<title>Fallback&#45;&gt;Sequence </title>
<path fill="none" stroke="black" d="M507.91,-503.7C507.91,-495.98 507.91,-486.71 507.91,-478.11"/>
<polygon fill="black" stroke="black" points="511.42,-478.1 507.91,-468.1 504.42,-478.1 511.42,-478.1"/>
</g>
<!-- Fallback  -->
<g id="node5" class="node">
<title>Fallback </title>
<polygon fill="cyan" stroke="black" points="373.91,-370.54 373.91,-385.46 353.41,-396 324.42,-396 303.92,-385.46 303.92,-370.54 324.42,-360 353.41,-360 373.91,-370.54"/>
<text text-anchor="middle" x="338.91" y="-375.8" font-family="Times,serif" font-size="9.00">Fallback</text>
</g>
<!-- Sequence &#45;&gt;Fallback  -->
<g id="edge4" class="edge">
<title>Sequence &#45;&gt;Fallback </title>
<path fill="none" stroke="black" d="M476.49,-435.6C473.59,-434.38 470.7,-433.16 467.91,-432 436.62,-418.92 400.94,-404.28 375.05,-393.71"/>
<polygon fill="black" stroke="black" points="376.22,-390.41 365.64,-389.87 373.57,-396.89 376.22,-390.41"/>
</g>
<!-- Fallback &#160;&#160;&#160; -->
<g id="node16" class="node">
<title>Fallback &#160;&#160;&#160;</title>
<polygon fill="cyan" stroke="black" points="562.91,-370.54 562.91,-385.46 542.41,-396 513.42,-396 492.92,-385.46 492.92,-370.54 513.42,-360 542.41,-360 562.91,-370.54"/>
<text text-anchor="middle" x="527.91" y="-375.8" font-family="Times,serif" font-size="9.00">Fallback</text>
</g>
<!-- Sequence &#45;&gt;Fallback &#160;&#160;&#160; -->
<g id="edge15" class="edge">
<title>Sequence &#45;&gt;Fallback &#160;&#160;&#160;</title>
<path fill="none" stroke="black" d="M512.86,-431.7C515.09,-423.9 517.77,-414.51 520.25,-405.83"/>
<polygon fill="black" stroke="black" points="523.65,-406.68 523.03,-396.1 516.92,-404.76 523.65,-406.68"/>
</g>
<!-- object_at GreenBox [&#45;0.8, &#45;1.0, 0.89] 0.0 base_link -->
<g id="node6" class="node">
<title>object_at GreenBox [&#45;0.8, &#45;1.0, 0.89] 0.0 base_link</title>
<ellipse fill="lightgray" stroke="black" cx="144.91" cy="-306" rx="144.83" ry="18"/>
<text text-anchor="middle" x="144.91" y="-303.8" font-family="Times,serif" font-size="9.00">object_at GreenBox [&#45;0.8, &#45;1.0, 0.89] 0.0 base_link</text>
</g>
<!-- Fallback &#45;&gt;object_at GreenBox [&#45;0.8, &#45;1.0, 0.89] 0.0 base_link -->
<g id="edge5" class="edge">
<title>Fallback &#45;&gt;object_at GreenBox [&#45;0.8, &#45;1.0, 0.89] 0.0 base_link</title>
<path fill="none" stroke="black" d="M310.71,-366.82C281.57,-356.31 235.38,-339.64 199.15,-326.57"/>
<polygon fill="black" stroke="black" points="200.29,-323.26 189.69,-323.16 197.91,-329.84 200.29,-323.26"/>
</g>
<!-- Sequence &#160; -->
<g id="node7" class="node">
<title>Sequence &#160;</title>
<polygon fill="orange" stroke="black" points="369.91,-324 307.91,-324 307.91,-288 369.91,-288 369.91,-324"/>
<text text-anchor="middle" x="338.91" y="-303.8" font-family="Times,serif" font-size="9.00">Sequence</text>
</g>
<!-- Fallback &#45;&gt;Sequence &#160; -->
<g id="edge6" class="edge">
<title>Fallback &#45;&gt;Sequence &#160;</title>
<path fill="none" stroke="black" d="M338.91,-359.7C338.91,-351.98 338.91,-342.71 338.91,-334.11"/>
<polygon fill="black" stroke="black" points="342.42,-334.1 338.91,-324.1 335.42,-334.1 342.42,-334.1"/>
</g>
<!-- Fallback &#160; -->
<g id="node8" class="node">
<title>Fallback &#160;</title>
<polygon fill="cyan" stroke="black" points="208.91,-226.54 208.91,-241.46 188.41,-252 159.42,-252 138.92,-241.46 138.92,-226.54 159.42,-216 188.41,-216 208.91,-226.54"/>
<text text-anchor="middle" x="173.91" y="-231.8" font-family="Times,serif" font-size="9.00">Fallback</text>
</g>
<!-- Sequence &#160;&#45;&gt;Fallback &#160; -->
<g id="edge7" class="edge">
<title>Sequence &#160;&#45;&gt;Fallback &#160;</title>
<path fill="none" stroke="black" d="M307.91,-291.82C304.87,-290.53 301.83,-289.24 298.91,-288 268.84,-275.23 234.69,-260.76 209.69,-250.16"/>
<polygon fill="black" stroke="black" points="210.83,-246.84 200.25,-246.16 208.1,-253.29 210.83,-246.84"/>
</g>
<!-- place0 GreenBox [&#45;0.8, &#45;1.0, 0.89] 0.0 base_link -->
<g id="node15" class="node">
<title>place0 GreenBox [&#45;0.8, &#45;1.0, 0.89] 0.0 base_link</title>
<ellipse fill="lightgray" stroke="black" cx="364.91" cy="-234" rx="137.97" ry="18"/>
<text text-anchor="middle" x="364.91" y="-231.8" font-family="Times,serif" font-size="9.00">place0 GreenBox [&#45;0.8, &#45;1.0, 0.89] 0.0 base_link</text>
</g>
<!-- Sequence &#160;&#45;&gt;place0 GreenBox [&#45;0.8, &#45;1.0, 0.89] 0.0 base_link -->
<g id="edge14" class="edge">
<title>Sequence &#160;&#45;&gt;place0 GreenBox [&#45;0.8, &#45;1.0, 0.89] 0.0 base_link</title>
<path fill="none" stroke="black" d="M345.34,-287.7C348.27,-279.81 351.8,-270.3 355.05,-261.55"/>
<polygon fill="black" stroke="black" points="358.36,-262.7 358.56,-252.1 351.8,-260.26 358.36,-262.7"/>
</g>
<!-- in_gripper GreenBox -->
<g id="node9" class="node">
<title>in_gripper GreenBox</title>
<ellipse fill="lightgray" stroke="black" cx="116.91" cy="-162" rx="65.64" ry="18"/>
<text text-anchor="middle" x="116.91" y="-159.8" font-family="Times,serif" font-size="9.00">in_gripper GreenBox</text>
</g>
<!-- Fallback &#160;&#45;&gt;in_gripper GreenBox -->
<g id="edge8" class="edge">
<title>Fallback &#160;&#45;&gt;in_gripper GreenBox</title>
<path fill="none" stroke="black" d="M159.83,-215.7C152.89,-207.18 144.41,-196.76 136.82,-187.45"/>
<polygon fill="black" stroke="black" points="139.48,-185.17 130.45,-179.62 134.05,-189.59 139.48,-185.17"/>
</g>
<!-- Sequence &#160;&#160; -->
<g id="node10" class="node">
<title>Sequence &#160;&#160;</title>
<polygon fill="orange" stroke="black" points="262.91,-180 200.91,-180 200.91,-144 262.91,-144 262.91,-180"/>
<text text-anchor="middle" x="231.91" y="-159.8" font-family="Times,serif" font-size="9.00">Sequence</text>
</g>
<!-- Fallback &#160;&#45;&gt;Sequence &#160;&#160; -->
<g id="edge9" class="edge">
<title>Fallback &#160;&#45;&gt;Sequence &#160;&#160;</title>
<path fill="none" stroke="black" d="M188.25,-215.7C195.21,-207.3 203.69,-197.07 211.32,-187.86"/>
<polygon fill="black" stroke="black" points="214.06,-190.04 217.74,-180.1 208.67,-185.57 214.06,-190.04"/>
</g>
<!-- Fallback &#160;&#160; -->
<g id="node11" class="node">
<title>Fallback &#160;&#160;</title>
<polygon fill="cyan" stroke="black" points="213.91,-82.54 213.91,-97.46 193.41,-108 164.42,-108 143.92,-97.46 143.92,-82.54 164.42,-72 193.41,-72 213.91,-82.54"/>
<text text-anchor="middle" x="178.91" y="-87.8" font-family="Times,serif" font-size="9.00">Fallback</text>
</g>
<!-- Sequence &#160;&#160;&#45;&gt;Fallback &#160;&#160; -->
<g id="edge10" class="edge">
<title>Sequence &#160;&#160;&#45;&gt;Fallback &#160;&#160;</title>
<path fill="none" stroke="black" d="M218.81,-143.7C212.52,-135.39 204.87,-125.28 197.95,-116.14"/>
<polygon fill="black" stroke="black" points="200.69,-113.96 191.87,-108.1 195.11,-118.19 200.69,-113.96"/>
</g>
<!-- pick0 GreenBox -->
<g id="node14" class="node">
<title>pick0 GreenBox</title>
<ellipse fill="lightgray" stroke="black" cx="284.91" cy="-90" rx="52.58" ry="18"/>
<text text-anchor="middle" x="284.91" y="-87.8" font-family="Times,serif" font-size="9.00">pick0 GreenBox</text>
</g>
<!-- Sequence &#160;&#160;&#45;&gt;pick0 GreenBox -->
<g id="edge13" class="edge">
<title>Sequence &#160;&#160;&#45;&gt;pick0 GreenBox</title>
<path fill="none" stroke="black" d="M245.02,-143.7C251.4,-135.27 259.19,-124.97 266.19,-115.73"/>
<polygon fill="black" stroke="black" points="269.08,-117.71 272.33,-107.62 263.5,-113.48 269.08,-117.71"/>
</g>
<!-- gripper_state open -->
<g id="node12" class="node">
<title>gripper_state open</title>
<ellipse fill="lightgray" stroke="black" cx="116.91" cy="-18" rx="60.09" ry="18"/>
<text text-anchor="middle" x="116.91" y="-15.8" font-family="Times,serif" font-size="9.00">gripper_state open</text>
</g>
<!-- Fallback &#160;&#160;&#45;&gt;gripper_state open -->
<g id="edge11" class="edge">
<title>Fallback &#160;&#160;&#45;&gt;gripper_state open</title>
<path fill="none" stroke="black" d="M163.91,-72.05C156.29,-63.46 146.9,-52.86 138.52,-43.4"/>
<polygon fill="black" stroke="black" points="141.04,-40.95 131.79,-35.79 135.8,-45.6 141.04,-40.95"/>
</g>
<!-- open_gripper -->
<g id="node13" class="node">
<title>open_gripper</title>
<ellipse fill="lightgray" stroke="black" cx="240.91" cy="-18" rx="45.72" ry="18"/>
<text text-anchor="middle" x="240.91" y="-15.8" font-family="Times,serif" font-size="9.00">open_gripper</text>
</g>
<!-- Fallback &#160;&#160;&#45;&gt;open_gripper -->
<g id="edge12" class="edge">
<title>Fallback &#160;&#160;&#45;&gt;open_gripper</title>
<path fill="none" stroke="black" d="M193.92,-72.05C201.65,-63.33 211.2,-52.54 219.67,-42.98"/>
<polygon fill="black" stroke="black" points="222.46,-45.11 226.47,-35.31 217.22,-40.47 222.46,-45.11"/>
</g>
<!-- object_at BlueBox [&#45;1.2, &#45;1.0, 0.89] 0.0 base_link -->
<g id="node17" class="node">
<title>object_at BlueBox [&#45;1.2, &#45;1.0, 0.89] 0.0 base_link</title>
<ellipse fill="lightgray" stroke="black" cx="527.91" cy="-306" rx="140.09" ry="18"/>
<text text-anchor="middle" x="527.91" y="-303.8" font-family="Times,serif" font-size="9.00">object_at BlueBox [&#45;1.2, &#45;1.0, 0.89] 0.0 base_link</text>
</g>
<!-- Fallback &#160;&#160;&#160;&#45;&gt;object_at BlueBox [&#45;1.2, &#45;1.0, 0.89] 0.0 base_link -->
<g id="edge16" class="edge">
<title>Fallback &#160;&#160;&#160;&#45;&gt;object_at BlueBox [&#45;1.2, &#45;1.0, 0.89] 0.0 base_link</title>
<path fill="none" stroke="black" d="M527.91,-359.7C527.91,-351.98 527.91,-342.71 527.91,-334.11"/>
<polygon fill="black" stroke="black" points="531.42,-334.1 527.91,-324.1 524.42,-334.1 531.42,-334.1"/>
</g>
<!-- Sequence &#160;&#160;&#160; -->
<g id="node18" class="node">
<title>Sequence &#160;&#160;&#160;</title>
<polygon fill="orange" stroke="black" points="747.91,-324 685.91,-324 685.91,-288 747.91,-288 747.91,-324"/>
<text text-anchor="middle" x="716.91" y="-303.8" font-family="Times,serif" font-size="9.00">Sequence</text>
</g>
<!-- Fallback &#160;&#160;&#160;&#45;&gt;Sequence &#160;&#160;&#160; -->
<g id="edge17" class="edge">
<title>Fallback &#160;&#160;&#160;&#45;&gt;Sequence &#160;&#160;&#160;</title>
<path fill="none" stroke="black" d="M556.95,-367.25C585.23,-357.63 629.61,-342.19 676.2,-324.18"/>
<polygon fill="black" stroke="black" points="677.5,-327.43 685.55,-320.54 674.96,-320.91 677.5,-327.43"/>
</g>
<!-- Fallback &#160;&#160;&#160;&#160; -->
<g id="node19" class="node">
<title>Fallback &#160;&#160;&#160;&#160;</title>
<polygon fill="cyan" stroke="black" points="611.91,-226.54 611.91,-241.46 591.41,-252 562.42,-252 541.92,-241.46 541.92,-226.54 562.42,-216 591.41,-216 611.91,-226.54"/>
<text text-anchor="middle" x="576.91" y="-231.8" font-family="Times,serif" font-size="9.00">Fallback</text>
</g>
<!-- Sequence &#160;&#160;&#160;&#45;&gt;Fallback &#160;&#160;&#160;&#160; -->
<g id="edge18" class="edge">
<title>Sequence &#160;&#160;&#160;&#45;&gt;Fallback &#160;&#160;&#160;&#160;</title>
<path fill="none" stroke="black" d="M685.84,-289.46C663.47,-278.28 633.32,-263.2 610.41,-251.75"/>
<polygon fill="black" stroke="black" points="611.9,-248.58 601.39,-247.24 608.77,-254.84 611.9,-248.58"/>
</g>
<!-- place0 BlueBox [&#45;1.2, &#45;1.0, 0.89] 0.0 base_link -->
<g id="node26" class="node">
<title>place0 BlueBox [&#45;1.2, &#45;1.0, 0.89] 0.0 base_link</title>
<ellipse fill="lightgray" stroke="black" cx="763.91" cy="-234" rx="133.89" ry="18"/>
<text text-anchor="middle" x="763.91" y="-231.8" font-family="Times,serif" font-size="9.00">place0 BlueBox [&#45;1.2, &#45;1.0, 0.89] 0.0 base_link</text>
</g>
<!-- Sequence &#160;&#160;&#160;&#45;&gt;place0 BlueBox [&#45;1.2, &#45;1.0, 0.89] 0.0 base_link -->
<g id="edge25" class="edge">
<title>Sequence &#160;&#160;&#160;&#45;&gt;place0 BlueBox [&#45;1.2, &#45;1.0, 0.89] 0.0 base_link</title>
<path fill="none" stroke="black" d="M728.53,-287.7C734.05,-279.47 740.76,-269.48 746.85,-260.42"/>
<polygon fill="black" stroke="black" points="749.76,-262.36 752.43,-252.1 743.95,-258.46 749.76,-262.36"/>
</g>
<!-- in_gripper BlueBox -->
<g id="node20" class="node">
<title>in_gripper BlueBox</title>
<ellipse fill="lightgray" stroke="black" cx="520.91" cy="-162" rx="61.55" ry="18"/>
<text text-anchor="middle" x="520.91" y="-159.8" font-family="Times,serif" font-size="9.00">in_gripper BlueBox</text>
</g>
<!-- Fallback &#160;&#160;&#160;&#160;&#45;&gt;in_gripper BlueBox -->
<g id="edge19" class="edge">
<title>Fallback &#160;&#160;&#160;&#160;&#45;&gt;in_gripper BlueBox</title>
<path fill="none" stroke="black" d="M563.07,-215.7C556.26,-207.18 547.93,-196.76 540.47,-187.45"/>
<polygon fill="black" stroke="black" points="543.19,-185.24 534.21,-179.62 537.73,-189.62 543.19,-185.24"/>
</g>
<!-- Sequence &#160;&#160;&#160;&#160; -->
<g id="node21" class="node">
<title>Sequence &#160;&#160;&#160;&#160;</title>
<polygon fill="orange" stroke="black" points="662.91,-180 600.91,-180 600.91,-144 662.91,-144 662.91,-180"/>
<text text-anchor="middle" x="631.91" y="-159.8" font-family="Times,serif" font-size="9.00">Sequence</text>
</g>
<!-- Fallback &#160;&#160;&#160;&#160;&#45;&gt;Sequence &#160;&#160;&#160;&#160; -->
<g id="edge20" class="edge">
<title>Fallback &#160;&#160;&#160;&#160;&#45;&gt;Sequence &#160;&#160;&#160;&#160;</title>
<path fill="none" stroke="black" d="M590.51,-215.7C597.04,-207.39 604.98,-197.28 612.16,-188.14"/>
<polygon fill="black" stroke="black" points="615.05,-190.13 618.48,-180.1 609.55,-185.81 615.05,-190.13"/>
</g>
<!-- Fallback &#160;&#160;&#160;&#160;&#160; -->
<g id="node22" class="node">
<title>Fallback &#160;&#160;&#160;&#160;&#160;</title>
<polygon fill="cyan" stroke="black" points="615.91,-82.54 615.91,-97.46 595.41,-108 566.42,-108 545.92,-97.46 545.92,-82.54 566.42,-72 595.41,-72 615.91,-82.54"/>
<text text-anchor="middle" x="580.91" y="-87.8" font-family="Times,serif" font-size="9.00">Fallback</text>
</g>
<!-- Sequence &#160;&#160;&#160;&#160;&#45;&gt;Fallback &#160;&#160;&#160;&#160;&#160; -->
<g id="edge21" class="edge">
<title>Sequence &#160;&#160;&#160;&#160;&#45;&gt;Fallback &#160;&#160;&#160;&#160;&#160;</title>
<path fill="none" stroke="black" d="M619.31,-143.7C613.32,-135.47 606.04,-125.48 599.44,-116.42"/>
<polygon fill="black" stroke="black" points="602.09,-114.13 593.38,-108.1 596.44,-118.25 602.09,-114.13"/>
</g>
<!-- pick0 BlueBox -->
<g id="node25" class="node">
<title>pick0 BlueBox</title>
<ellipse fill="lightgray" stroke="black" cx="681.91" cy="-90" rx="47.84" ry="18"/>
<text text-anchor="middle" x="681.91" y="-87.8" font-family="Times,serif" font-size="9.00">pick0 BlueBox</text>
</g>
<!-- Sequence &#160;&#160;&#160;&#160;&#45;&gt;pick0 BlueBox -->
<g id="edge24" class="edge">
<title>Sequence &#160;&#160;&#160;&#160;&#45;&gt;pick0 BlueBox</title>
<path fill="none" stroke="black" d="M644.27,-143.7C650.24,-135.35 657.5,-125.18 664.05,-116.02"/>
<polygon fill="black" stroke="black" points="667.08,-117.79 670.04,-107.62 661.38,-113.73 667.08,-117.79"/>
</g>
<!-- gripper_state open  -->
<g id="node23" class="node">
<title>gripper_state open </title>
<ellipse fill="lightgray" stroke="black" cx="518.91" cy="-18" rx="60.09" ry="18"/>
<text text-anchor="middle" x="518.91" y="-15.8" font-family="Times,serif" font-size="9.00">gripper_state open</text>
</g>
<!-- Fallback &#160;&#160;&#160;&#160;&#160;&#45;&gt;gripper_state open  -->
<g id="edge22" class="edge">
<title>Fallback &#160;&#160;&#160;&#160;&#160;&#45;&gt;gripper_state open </title>
<path fill="none" stroke="black" d="M565.91,-72.05C558.29,-63.46 548.9,-52.86 540.52,-43.4"/>
<polygon fill="black" stroke="black" points="543.04,-40.95 533.79,-35.79 537.8,-45.6 543.04,-40.95"/>
</g>
<!-- open_gripper  -->
<g id="node24" class="node">
<title>open_gripper </title>
<ellipse fill="lightgray" stroke="black" cx="642.91" cy="-18" rx="45.72" ry="18"/>
<text text-anchor="middle" x="642.91" y="-15.8" font-family="Times,serif" font-size="9.00">open_gripper</text>
</g>
<!-- Fallback &#160;&#160;&#160;&#160;&#160;&#45;&gt;open_gripper  -->
<g id="edge23" class="edge">
<title>Fallback &#160;&#160;&#160;&#160;&#160;&#45;&gt;open_gripper </title>
<path fill="none" stroke="black" d="M595.92,-72.05C603.65,-63.33 613.2,-52.54 621.67,-42.98"/>
<polygon fill="black" stroke="black" points="624.46,-45.11 628.47,-35.31 619.22,-40.47 624.46,-45.11"/>
</g>
<!-- object_at YellowBox [&#45;0.133, 0.0, 0.175] 0.02 KittingBox -->
<g id="node28" class="node">
<title>object_at YellowBox [&#45;0.133, 0.0, 0.175] 0.02 KittingBox</title>
<ellipse fill="lightgray" stroke="black" cx="717.91" cy="-450" rx="161.16" ry="18"/>
<text text-anchor="middle" x="717.91" y="-447.8" font-family="Times,serif" font-size="9.00">object_at YellowBox [&#45;0.133, 0.0, 0.175] 0.02 KittingBox</text>
</g>
<!-- Fallback &#160;&#160;&#160;&#160;&#160;&#160;&#45;&gt;object_at YellowBox [&#45;0.133, 0.0, 0.175] 0.02 KittingBox -->
<g id="edge27" class="edge">
<title>Fallback &#160;&#160;&#160;&#160;&#160;&#160;&#45;&gt;object_at YellowBox [&#45;0.133, 0.0, 0.175] 0.02 KittingBox</title>
<path fill="none" stroke="black" d="M898.72,-511.27C867.17,-500.75 816.07,-483.72 776.24,-470.44"/>
<polygon fill="black" stroke="black" points="777.22,-467.08 766.63,-467.24 775.01,-473.72 777.22,-467.08"/>
</g>
<!-- Sequence &#160;&#160;&#160;&#160;&#160; -->
<g id="node29" class="node">
<title>Sequence &#160;&#160;&#160;&#160;&#160;</title>
<polygon fill="orange" stroke="black" points="958.91,-468 896.91,-468 896.91,-432 958.91,-432 958.91,-468"/>
<text text-anchor="middle" x="927.91" y="-447.8" font-family="Times,serif" font-size="9.00">Sequence</text>
</g>
<!-- Fallback &#160;&#160;&#160;&#160;&#160;&#160;&#45;&gt;Sequence &#160;&#160;&#160;&#160;&#160; -->
<g id="edge28" class="edge">
<title>Fallback &#160;&#160;&#160;&#160;&#160;&#160;&#45;&gt;Sequence &#160;&#160;&#160;&#160;&#160;</title>
<path fill="none" stroke="black" d="M927.91,-503.7C927.91,-495.98 927.91,-486.71 927.91,-478.11"/>
<polygon fill="black" stroke="black" points="931.42,-478.1 927.91,-468.1 924.42,-478.1 931.42,-478.1"/>
</g>
<!-- Fallback &#160;&#160;&#160;&#160;&#160;&#160;&#160; -->
<g id="node30" class="node">
<title>Fallback &#160;&#160;&#160;&#160;&#160;&#160;&#160;</title>
<polygon fill="cyan" stroke="black" points="912.91,-370.54 912.91,-385.46 892.41,-396 863.42,-396 842.92,-385.46 842.92,-370.54 863.42,-360 892.41,-360 912.91,-370.54"/>
<text text-anchor="middle" x="877.91" y="-375.8" font-family="Times,serif" font-size="9.00">Fallback</text>
</g>
<!-- Sequence &#160;&#160;&#160;&#160;&#160;&#45;&gt;Fallback &#160;&#160;&#160;&#160;&#160;&#160;&#160; -->
<g id="edge29" class="edge">
<title>Sequence &#160;&#160;&#160;&#160;&#160;&#45;&gt;Fallback &#160;&#160;&#160;&#160;&#160;&#160;&#160;</title>
<path fill="none" stroke="black" d="M915.56,-431.7C909.68,-423.47 902.55,-413.48 896.07,-404.42"/>
<polygon fill="black" stroke="black" points="898.79,-402.21 890.13,-396.1 893.1,-406.28 898.79,-402.21"/>
</g>
<!-- place0 YellowBox [&#45;0.133, 0.0, 0.175] 0.02 KittingBox -->
<g id="node37" class="node">
<title>place0 YellowBox [&#45;0.133, 0.0, 0.175] 0.02 KittingBox</title>
<ellipse fill="lightgray" stroke="black" cx="1085.91" cy="-378" rx="154.96" ry="18"/>
<text text-anchor="middle" x="1085.91" y="-375.8" font-family="Times,serif" font-size="9.00">place0 YellowBox [&#45;0.133, 0.0, 0.175] 0.02 KittingBox</text>
</g>
<!-- Sequence &#160;&#160;&#160;&#160;&#160;&#45;&gt;place0 YellowBox [&#45;0.133, 0.0, 0.175] 0.02 KittingBox -->
<g id="edge36" class="edge">
<title>Sequence &#160;&#160;&#160;&#160;&#160;&#45;&gt;place0 YellowBox [&#45;0.133, 0.0, 0.175] 0.02 KittingBox</title>
<path fill="none" stroke="black" d="M959.13,-435.17C982.04,-425.02 1013.53,-411.07 1039.4,-399.61"/>
<polygon fill="black" stroke="black" points="1040.92,-402.76 1048.65,-395.51 1038.09,-396.36 1040.92,-402.76"/>
</g>
<!-- in_gripper YellowBox -->
<g id="node31" class="node">
<title>in_gripper YellowBox</title>
<ellipse fill="lightgray" stroke="black" cx="872.91" cy="-306" rx="66.29" ry="18"/>
<text text-anchor="middle" x="872.91" y="-303.8" font-family="Times,serif" font-size="9.00">in_gripper YellowBox</text>
</g>
<!-- Fallback &#160;&#160;&#160;&#160;&#160;&#160;&#160;&#45;&gt;in_gripper YellowBox -->
<g id="edge30" class="edge">
<title>Fallback &#160;&#160;&#160;&#160;&#160;&#160;&#160;&#45;&gt;in_gripper YellowBox</title>
<path fill="none" stroke="black" d="M876.68,-359.7C876.13,-351.98 875.47,-342.71 874.85,-334.11"/>
<polygon fill="black" stroke="black" points="878.34,-333.83 874.14,-324.1 871.36,-334.33 878.34,-333.83"/>
</g>
<!-- Sequence &#160;&#160;&#160;&#160;&#160;&#160; -->
<g id="node32" class="node">
<title>Sequence &#160;&#160;&#160;&#160;&#160;&#160;</title>
<polygon fill="orange" stroke="black" points="1018.91,-324 956.91,-324 956.91,-288 1018.91,-288 1018.91,-324"/>
<text text-anchor="middle" x="987.91" y="-303.8" font-family="Times,serif" font-size="9.00">Sequence</text>
</g>
<!-- Fallback &#160;&#160;&#160;&#160;&#160;&#160;&#160;&#45;&gt;Sequence &#160;&#160;&#160;&#160;&#160;&#160; -->
<g id="edge31" class="edge">
<title>Fallback &#160;&#160;&#160;&#160;&#160;&#160;&#160;&#45;&gt;Sequence &#160;&#160;&#160;&#160;&#160;&#160;</title>
<path fill="none" stroke="black" d="M899.39,-363.34C914.4,-353.78 934.8,-340.8 952.24,-329.7"/>
<polygon fill="black" stroke="black" points="954.49,-332.42 961.04,-324.1 950.73,-326.52 954.49,-332.42"/>
</g>
<!-- Fallback &#160;&#160;&#160;&#160;&#160;&#160;&#160;&#160; -->
<g id="node33" class="node">
<title>Fallback &#160;&#160;&#160;&#160;&#160;&#160;&#160;&#160;</title>
<polygon fill="cyan" stroke="black" points="996.91,-226.54 996.91,-241.46 976.41,-252 947.42,-252 926.92,-241.46 926.92,-226.54 947.42,-216 976.41,-216 996.91,-226.54"/>
<text text-anchor="middle" x="961.91" y="-231.8" font-family="Times,serif" font-size="9.00">Fallback</text>
</g>
<!-- Sequence &#160;&#160;&#160;&#160;&#160;&#160;&#45;&gt;Fallback &#160;&#160;&#160;&#160;&#160;&#160;&#160;&#160; -->
<g id="edge32" class="edge">
<title>Sequence &#160;&#160;&#160;&#160;&#160;&#160;&#45;&gt;Fallback &#160;&#160;&#160;&#160;&#160;&#160;&#160;&#160;</title>
<path fill="none" stroke="black" d="M981.49,-287.7C978.56,-279.81 975.03,-270.3 971.78,-261.55"/>
<polygon fill="black" stroke="black" points="975.03,-260.26 968.27,-252.1 968.47,-262.7 975.03,-260.26"/>
</g>
<!-- pick0 YellowBox -->
<g id="node36" class="node">
<title>pick0 YellowBox</title>
<ellipse fill="lightgray" stroke="black" cx="1067.91" cy="-234" rx="53.23" ry="18"/>
<text text-anchor="middle" x="1067.91" y="-231.8" font-family="Times,serif" font-size="9.00">pick0 YellowBox</text>
</g>
<!-- Sequence &#160;&#160;&#160;&#160;&#160;&#160;&#45;&gt;pick0 YellowBox -->
<g id="edge35" class="edge">
<title>Sequence &#160;&#160;&#160;&#160;&#160;&#160;&#45;&gt;pick0 YellowBox</title>
<path fill="none" stroke="black" d="M1007.69,-287.7C1017.97,-278.7 1030.66,-267.6 1041.74,-257.9"/>
<polygon fill="black" stroke="black" points="1044.24,-260.36 1049.46,-251.14 1039.63,-255.1 1044.24,-260.36"/>
</g>
<!-- gripper_state open &#160; -->
<g id="node34" class="node">
<title>gripper_state open &#160;</title>
<ellipse fill="lightgray" stroke="black" cx="899.91" cy="-162" rx="60.09" ry="18"/>
<text text-anchor="middle" x="899.91" y="-159.8" font-family="Times,serif" font-size="9.00">gripper_state open</text>
</g>
<!-- Fallback &#160;&#160;&#160;&#160;&#160;&#160;&#160;&#160;&#45;&gt;gripper_state open &#160; -->
<g id="edge33" class="edge">
<title>Fallback &#160;&#160;&#160;&#160;&#160;&#160;&#160;&#160;&#45;&gt;gripper_state open &#160;</title>
<path fill="none" stroke="black" d="M946.91,-216.05C939.29,-207.46 929.9,-196.86 921.52,-187.4"/>
<polygon fill="black" stroke="black" points="924.04,-184.95 914.79,-179.79 918.8,-189.6 924.04,-184.95"/>
</g>
<!-- open_gripper &#160; -->
<g id="node35" class="node">
<title>open_gripper &#160;</title>
<ellipse fill="lightgray" stroke="black" cx="1023.91" cy="-162" rx="45.72" ry="18"/>
<text text-anchor="middle" x="1023.91" y="-159.8" font-family="Times,serif" font-size="9.00">open_gripper</text>
</g>
<!-- Fallback &#160;&#160;&#160;&#160;&#160;&#160;&#160;&#160;&#45;&gt;open_gripper &#160; -->
<g id="edge34" class="edge">
<title>Fallback &#160;&#160;&#160;&#160;&#160;&#160;&#160;&#160;&#45;&gt;open_gripper &#160;</title>
<path fill="none" stroke="black" d="M976.92,-216.05C984.65,-207.33 994.2,-196.54 1002.67,-186.98"/>
<polygon fill="black" stroke="black" points="1005.46,-189.11 1009.47,-179.31 1000.22,-184.47 1005.46,-189.11"/>
</g>
<!-- object_at BlueBox [0.0, 0.0, 0.22] 0.02 GreenBox -->
<g id="node39" class="node">
<title>object_at BlueBox [0.0, 0.0, 0.22] 0.02 GreenBox</title>
<ellipse fill="lightgray" stroke="black" cx="1118.91" cy="-450" rx="142.06" ry="18"/>
<text text-anchor="middle" x="1118.91" y="-447.8" font-family="Times,serif" font-size="9.00">object_at BlueBox [0.0, 0.0, 0.22] 0.02 GreenBox</text>
</g>
<!-- Fallback &#160;&#160;&#160;&#160;&#160;&#160;&#160;&#160;&#160;&#45;&gt;object_at BlueBox [0.0, 0.0, 0.22] 0.02 GreenBox -->
<g id="edge38" class="edge">
<title>Fallback &#160;&#160;&#160;&#160;&#160;&#160;&#160;&#160;&#160;&#45;&gt;object_at BlueBox [0.0, 0.0, 0.22] 0.02 GreenBox</title>
<path fill="none" stroke="black" d="M1118.91,-503.7C1118.91,-495.98 1118.91,-486.71 1118.91,-478.11"/>
<polygon fill="black" stroke="black" points="1122.42,-478.1 1118.91,-468.1 1115.42,-478.1 1122.42,-478.1"/>
</g>
<!-- Sequence &#160;&#160;&#160;&#160;&#160;&#160;&#160; -->
<g id="node40" class="node">
<title>Sequence &#160;&#160;&#160;&#160;&#160;&#160;&#160;</title>
<polygon fill="orange" stroke="black" points="1340.91,-468 1278.91,-468 1278.91,-432 1340.91,-432 1340.91,-468"/>
<text text-anchor="middle" x="1309.91" y="-447.8" font-family="Times,serif" font-size="9.00">Sequence</text>
</g>
<!-- Fallback &#160;&#160;&#160;&#160;&#160;&#160;&#160;&#160;&#160;&#45;&gt;Sequence &#160;&#160;&#160;&#160;&#160;&#160;&#160; -->
<g id="edge39" class="edge">
<title>Fallback &#160;&#160;&#160;&#160;&#160;&#160;&#160;&#160;&#160;&#45;&gt;Sequence &#160;&#160;&#160;&#160;&#160;&#160;&#160;</title>
<path fill="none" stroke="black" d="M1148.07,-511.39C1176.72,-501.81 1221.86,-486.35 1269.08,-468.22"/>
<polygon fill="black" stroke="black" points="1270.49,-471.43 1278.55,-464.56 1267.96,-464.9 1270.49,-471.43"/>
</g>
<!-- Fallback &#160;&#160;&#160;&#160;&#160;&#160;&#160;&#160;&#160;&#160; -->
<g id="node41" class="node">
<title>Fallback &#160;&#160;&#160;&#160;&#160;&#160;&#160;&#160;&#160;&#160;</title>
<polygon fill="cyan" stroke="black" points="1338.91,-370.54 1338.91,-385.46 1318.41,-396 1289.42,-396 1268.92,-385.46 1268.92,-370.54 1289.42,-360 1318.41,-360 1338.91,-370.54"/>
<text text-anchor="middle" x="1303.91" y="-375.8" font-family="Times,serif" font-size="9.00">Fallback</text>
</g>
<!-- Sequence &#160;&#160;&#160;&#160;&#160;&#160;&#160;&#45;&gt;Fallback &#160;&#160;&#160;&#160;&#160;&#160;&#160;&#160;&#160;&#160; -->
<g id="edge40" class="edge">
<title>Sequence &#160;&#160;&#160;&#160;&#160;&#160;&#160;&#45;&gt;Fallback &#160;&#160;&#160;&#160;&#160;&#160;&#160;&#160;&#160;&#160;</title>
<path fill="none" stroke="black" d="M1308.43,-431.7C1307.77,-423.98 1306.98,-414.71 1306.24,-406.11"/>
<polygon fill="black" stroke="black" points="1309.72,-405.77 1305.38,-396.1 1302.75,-406.37 1309.72,-405.77"/>
</g>
<!-- place0 BlueBox [0.0, 0.0, 0.22] 0.02 GreenBox -->
<g id="node48" class="node">
<title>place0 BlueBox [0.0, 0.0, 0.22] 0.02 GreenBox</title>
<ellipse fill="lightgray" stroke="black" cx="1492.91" cy="-378" rx="135.85" ry="18"/>
<text text-anchor="middle" x="1492.91" y="-375.8" font-family="Times,serif" font-size="9.00">place0 BlueBox [0.0, 0.0, 0.22] 0.02 GreenBox</text>
</g>
<!-- Sequence &#160;&#160;&#160;&#160;&#160;&#160;&#160;&#45;&gt;place0 BlueBox [0.0, 0.0, 0.22] 0.02 GreenBox -->
<g id="edge47" class="edge">
<title>Sequence &#160;&#160;&#160;&#160;&#160;&#160;&#160;&#45;&gt;place0 BlueBox [0.0, 0.0, 0.22] 0.02 GreenBox</title>
<path fill="none" stroke="black" d="M1341.3,-435.5C1344.21,-434.3 1347.11,-433.12 1349.91,-432 1378.95,-420.46 1411.6,-408.29 1438.37,-398.54"/>
<polygon fill="black" stroke="black" points="1439.74,-401.76 1447.94,-395.05 1437.35,-395.18 1439.74,-401.76"/>
</g>
<!-- in_gripper BlueBox  -->
<g id="node42" class="node">
<title>in_gripper BlueBox </title>
<ellipse fill="lightgray" stroke="black" cx="1257.91" cy="-306" rx="61.55" ry="18"/>
<text text-anchor="middle" x="1257.91" y="-303.8" font-family="Times,serif" font-size="9.00">in_gripper BlueBox</text>
</g>
<!-- Fallback &#160;&#160;&#160;&#160;&#160;&#160;&#160;&#160;&#160;&#160;&#45;&gt;in_gripper BlueBox  -->
<g id="edge41" class="edge">
<title>Fallback &#160;&#160;&#160;&#160;&#160;&#160;&#160;&#160;&#160;&#160;&#45;&gt;in_gripper BlueBox </title>
<path fill="none" stroke="black" d="M1292.54,-359.7C1287.2,-351.56 1280.71,-341.69 1274.8,-332.7"/>
<polygon fill="black" stroke="black" points="1277.57,-330.54 1269.15,-324.1 1271.72,-334.38 1277.57,-330.54"/>
</g>
<!-- Sequence &#160;&#160;&#160;&#160;&#160;&#160;&#160;&#160; -->
<g id="node43" class="node">
<title>Sequence &#160;&#160;&#160;&#160;&#160;&#160;&#160;&#160;</title>
<polygon fill="orange" stroke="black" points="1399.91,-324 1337.91,-324 1337.91,-288 1399.91,-288 1399.91,-324"/>
<text text-anchor="middle" x="1368.91" y="-303.8" font-family="Times,serif" font-size="9.00">Sequence</text>
</g>
<!-- Fallback &#160;&#160;&#160;&#160;&#160;&#160;&#160;&#160;&#160;&#160;&#45;&gt;Sequence &#160;&#160;&#160;&#160;&#160;&#160;&#160;&#160; -->
<g id="edge42" class="edge">
<title>Fallback &#160;&#160;&#160;&#160;&#160;&#160;&#160;&#160;&#160;&#160;&#45;&gt;Sequence &#160;&#160;&#160;&#160;&#160;&#160;&#160;&#160;</title>
<path fill="none" stroke="black" d="M1319.32,-360.41C1327.18,-351.95 1336.9,-341.47 1345.66,-332.05"/>
<polygon fill="black" stroke="black" points="1348.47,-334.16 1352.71,-324.45 1343.35,-329.39 1348.47,-334.16"/>
</g>
<!-- Fallback &#160;&#160;&#160;&#160;&#160;&#160;&#160;&#160;&#160;&#160;&#160; -->
<g id="node44" class="node">
<title>Fallback &#160;&#160;&#160;&#160;&#160;&#160;&#160;&#160;&#160;&#160;&#160;</title>
<polygon fill="cyan" stroke="black" points="1353.91,-226.54 1353.91,-241.46 1333.41,-252 1304.42,-252 1283.92,-241.46 1283.92,-226.54 1304.42,-216 1333.41,-216 1353.91,-226.54"/>
<text text-anchor="middle" x="1318.91" y="-231.8" font-family="Times,serif" font-size="9.00">Fallback</text>
</g>
<!-- Sequence &#160;&#160;&#160;&#160;&#160;&#160;&#160;&#160;&#45;&gt;Fallback &#160;&#160;&#160;&#160;&#160;&#160;&#160;&#160;&#160;&#160;&#160; -->
<g id="edge43" class="edge">
<title>Sequence &#160;&#160;&#160;&#160;&#160;&#160;&#160;&#160;&#45;&gt;Fallback &#160;&#160;&#160;&#160;&#160;&#160;&#160;&#160;&#160;&#160;&#160;</title>
<path fill="none" stroke="black" d="M1356.56,-287.7C1350.68,-279.47 1343.55,-269.48 1337.07,-260.42"/>
<polygon fill="black" stroke="black" points="1339.79,-258.21 1331.13,-252.1 1334.1,-262.28 1339.79,-258.21"/>
</g>
<!-- pick0 BlueBox  -->
<g id="node47" class="node">
<title>pick0 BlueBox </title>
<ellipse fill="lightgray" stroke="black" cx="1419.91" cy="-234" rx="47.84" ry="18"/>
<text text-anchor="middle" x="1419.91" y="-231.8" font-family="Times,serif" font-size="9.00">pick0 BlueBox</text>
</g>
<!-- Sequence &#160;&#160;&#160;&#160;&#160;&#160;&#160;&#160;&#45;&gt;pick0 BlueBox  -->
<g id="edge46" class="edge">
<title>Sequence &#160;&#160;&#160;&#160;&#160;&#160;&#160;&#160;&#45;&gt;pick0 BlueBox </title>
<path fill="none" stroke="black" d="M1381.52,-287.7C1387.66,-279.27 1395.16,-268.97 1401.9,-259.73"/>
<polygon fill="black" stroke="black" points="1404.74,-261.77 1407.8,-251.62 1399.09,-257.64 1404.74,-261.77"/>
</g>
<!-- gripper_state open &#160;&#160; -->
<g id="node45" class="node">
<title>gripper_state open &#160;&#160;</title>
<ellipse fill="lightgray" stroke="black" cx="1256.91" cy="-162" rx="60.09" ry="18"/>
<text text-anchor="middle" x="1256.91" y="-159.8" font-family="Times,serif" font-size="9.00">gripper_state open</text>
</g>
<!-- Fallback &#160;&#160;&#160;&#160;&#160;&#160;&#160;&#160;&#160;&#160;&#160;&#45;&gt;gripper_state open &#160;&#160; -->
<g id="edge44" class="edge">
<title>Fallback &#160;&#160;&#160;&#160;&#160;&#160;&#160;&#160;&#160;&#160;&#160;&#45;&gt;gripper_state open &#160;&#160;</title>
<path fill="none" stroke="black" d="M1303.91,-216.05C1296.29,-207.46 1286.9,-196.86 1278.52,-187.4"/>
<polygon fill="black" stroke="black" points="1281.04,-184.95 1271.79,-179.79 1275.8,-189.6 1281.04,-184.95"/>
</g>
<!-- open_gripper &#160;&#160; -->
<g id="node46" class="node">
<title>open_gripper &#160;&#160;</title>
<ellipse fill="lightgray" stroke="black" cx="1380.91" cy="-162" rx="45.72" ry="18"/>
<text text-anchor="middle" x="1380.91" y="-159.8" font-family="Times,serif" font-size="9.00">open_gripper</text>
</g>
<!-- Fallback &#160;&#160;&#160;&#160;&#160;&#160;&#160;&#160;&#160;&#160;&#160;&#45;&gt;open_gripper &#160;&#160; -->
<g id="edge45" class="edge">
<title>Fallback &#160;&#160;&#160;&#160;&#160;&#160;&#160;&#160;&#160;&#160;&#160;&#45;&gt;open_gripper &#160;&#160;</title>
<path fill="none" stroke="black" d="M1333.92,-216.05C1341.65,-207.33 1351.2,-196.54 1359.67,-186.98"/>
<polygon fill="black" stroke="black" points="1362.46,-189.11 1366.47,-179.31 1357.22,-184.47 1362.46,-189.11"/>
</g>
<!-- object_at GreenBox [0.0, 0.0, 0.22] 0.02 YellowBox -->
<g id="node50" class="node">
<title>object_at GreenBox [0.0, 0.0, 0.22] 0.02 YellowBox</title>
<ellipse fill="lightgray" stroke="black" cx="1505.91" cy="-450" rx="146.79" ry="18"/>
<text text-anchor="middle" x="1505.91" y="-447.8" font-family="Times,serif" font-size="9.00">object_at GreenBox [0.0, 0.0, 0.22] 0.02 YellowBox</text>
</g>
<!-- Fallback &#160;&#160;&#160;&#160;&#160;&#160;&#160;&#160;&#160;&#160;&#160;&#160;&#45;&gt;object_at GreenBox [0.0, 0.0, 0.22] 0.02 YellowBox -->
<g id="edge49" class="edge">
<title>Fallback &#160;&#160;&#160;&#160;&#160;&#160;&#160;&#160;&#160;&#160;&#160;&#160;&#45;&gt;object_at GreenBox [0.0, 0.0, 0.22] 0.02 YellowBox</title>
<path fill="none" stroke="black" d="M1505.91,-503.7C1505.91,-495.98 1505.91,-486.71 1505.91,-478.11"/>
<polygon fill="black" stroke="black" points="1509.42,-478.1 1505.91,-468.1 1502.42,-478.1 1509.42,-478.1"/>
</g>
<!-- Sequence &#160;&#160;&#160;&#160;&#160;&#160;&#160;&#160;&#160; -->
<g id="node51" class="node">
<title>Sequence &#160;&#160;&#160;&#160;&#160;&#160;&#160;&#160;&#160;</title>
<polygon fill="orange" stroke="black" points="1732.91,-468 1670.91,-468 1670.91,-432 1732.91,-432 1732.91,-468"/>
<text text-anchor="middle" x="1701.91" y="-447.8" font-family="Times,serif" font-size="9.00">Sequence</text>
</g>
<!-- Fallback &#160;&#160;&#160;&#160;&#160;&#160;&#160;&#160;&#160;&#160;&#160;&#160;&#45;&gt;Sequence &#160;&#160;&#160;&#160;&#160;&#160;&#160;&#160;&#160; -->
<g id="edge50" class="edge">
<title>Fallback &#160;&#160;&#160;&#160;&#160;&#160;&#160;&#160;&#160;&#160;&#160;&#160;&#45;&gt;Sequence &#160;&#160;&#160;&#160;&#160;&#160;&#160;&#160;&#160;</title>
<path fill="none" stroke="black" d="M1535.47,-511.68C1565.11,-502.18 1612.21,-486.66 1661.09,-468.19"/>
<polygon fill="black" stroke="black" points="1662.46,-471.42 1670.56,-464.59 1659.97,-464.87 1662.46,-471.42"/>
</g>
<!-- Fallback &#160;&#160;&#160;&#160;&#160;&#160;&#160;&#160;&#160;&#160;&#160;&#160;&#160; -->
<g id="node52" class="node">
<title>Fallback &#160;&#160;&#160;&#160;&#160;&#160;&#160;&#160;&#160;&#160;&#160;&#160;&#160;</title>
<polygon fill="cyan" stroke="black" points="1728.91,-370.54 1728.91,-385.46 1708.41,-396 1679.42,-396 1658.92,-385.46 1658.92,-370.54 1679.42,-360 1708.41,-360 1728.91,-370.54"/>
<text text-anchor="middle" x="1693.91" y="-375.8" font-family="Times,serif" font-size="9.00">Fallback</text>
</g>
<!-- Sequence &#160;&#160;&#160;&#160;&#160;&#160;&#160;&#160;&#160;&#45;&gt;Fallback &#160;&#160;&#160;&#160;&#160;&#160;&#160;&#160;&#160;&#160;&#160;&#160;&#160; -->
<g id="edge51" class="edge">
<title>Sequence &#160;&#160;&#160;&#160;&#160;&#160;&#160;&#160;&#160;&#45;&gt;Fallback &#160;&#160;&#160;&#160;&#160;&#160;&#160;&#160;&#160;&#160;&#160;&#160;&#160;</title>
<path fill="none" stroke="black" d="M1699.94,-431.7C1699.06,-423.98 1698,-414.71 1697.01,-406.11"/>
<polygon fill="black" stroke="black" points="1700.48,-405.64 1695.87,-396.1 1693.53,-406.44 1700.48,-405.64"/>
</g>
<!-- place0 GreenBox [0.0, 0.0, 0.22] 0.02 YellowBox -->
<g id="node59" class="node">
<title>place0 GreenBox [0.0, 0.0, 0.22] 0.02 YellowBox</title>
<ellipse fill="lightgray" stroke="black" cx="1886.91" cy="-378" rx="140.09" ry="18"/>
<text text-anchor="middle" x="1886.91" y="-375.8" font-family="Times,serif" font-size="9.00">place0 GreenBox [0.0, 0.0, 0.22] 0.02 YellowBox</text>
</g>
<!-- Sequence &#160;&#160;&#160;&#160;&#160;&#160;&#160;&#160;&#160;&#45;&gt;place0 GreenBox [0.0, 0.0, 0.22] 0.02 YellowBox -->
<g id="edge58" class="edge">
<title>Sequence &#160;&#160;&#160;&#160;&#160;&#160;&#160;&#160;&#160;&#45;&gt;place0 GreenBox [0.0, 0.0, 0.22] 0.02 YellowBox</title>
<path fill="none" stroke="black" d="M1733.3,-437.13C1760.98,-426.65 1801.87,-411.18 1834.51,-398.83"/>
<polygon fill="black" stroke="black" points="1835.8,-402.08 1843.91,-395.27 1833.32,-395.54 1835.8,-402.08"/>
</g>
<!-- in_gripper GreenBox  -->
<g id="node53" class="node">
<title>in_gripper GreenBox </title>
<ellipse fill="lightgray" stroke="black" cx="1636.91" cy="-306" rx="65.64" ry="18"/>
<text text-anchor="middle" x="1636.91" y="-303.8" font-family="Times,serif" font-size="9.00">in_gripper GreenBox</text>
</g>
<!-- Fallback &#160;&#160;&#160;&#160;&#160;&#160;&#160;&#160;&#160;&#160;&#160;&#160;&#160;&#45;&gt;in_gripper GreenBox  -->
<g id="edge52" class="edge">
<title>Fallback &#160;&#160;&#160;&#160;&#160;&#160;&#160;&#160;&#160;&#160;&#160;&#160;&#160;&#45;&gt;in_gripper GreenBox </title>
<path fill="none" stroke="black" d="M1679.83,-359.7C1672.89,-351.18 1664.41,-340.76 1656.82,-331.45"/>
<polygon fill="black" stroke="black" points="1659.48,-329.17 1650.45,-323.62 1654.05,-333.59 1659.48,-329.17"/>
</g>
<!-- Sequence &#160;&#160;&#160;&#160;&#160;&#160;&#160;&#160;&#160;&#160; -->
<g id="node54" class="node">
<title>Sequence &#160;&#160;&#160;&#160;&#160;&#160;&#160;&#160;&#160;&#160;</title>
<polygon fill="orange" stroke="black" points="1782.91,-324 1720.91,-324 1720.91,-288 1782.91,-288 1782.91,-324"/>
<text text-anchor="middle" x="1751.91" y="-303.8" font-family="Times,serif" font-size="9.00">Sequence</text>
</g>
<!-- Fallback &#160;&#160;&#160;&#160;&#160;&#160;&#160;&#160;&#160;&#160;&#160;&#160;&#160;&#45;&gt;Sequence &#160;&#160;&#160;&#160;&#160;&#160;&#160;&#160;&#160;&#160; -->
<g id="edge53" class="edge">
<title>Fallback &#160;&#160;&#160;&#160;&#160;&#160;&#160;&#160;&#160;&#160;&#160;&#160;&#160;&#45;&gt;Sequence &#160;&#160;&#160;&#160;&#160;&#160;&#160;&#160;&#160;&#160;</title>
<path fill="none" stroke="black" d="M1708.25,-359.7C1715.21,-351.3 1723.69,-341.07 1731.32,-331.86"/>
<polygon fill="black" stroke="black" points="1734.06,-334.04 1737.74,-324.1 1728.67,-329.57 1734.06,-334.04"/>
</g>
<!-- Fallback &#160;&#160;&#160;&#160;&#160;&#160;&#160;&#160;&#160;&#160;&#160;&#160;&#160;&#160; -->
<g id="node55" class="node">
<title>Fallback &#160;&#160;&#160;&#160;&#160;&#160;&#160;&#160;&#160;&#160;&#160;&#160;&#160;&#160;</title>
<polygon fill="cyan" stroke="black" points="1733.91,-226.54 1733.91,-241.46 1713.41,-252 1684.42,-252 1663.92,-241.46 1663.92,-226.54 1684.42,-216 1713.41,-216 1733.91,-226.54"/>
<text text-anchor="middle" x="1698.91" y="-231.8" font-family="Times,serif" font-size="9.00">Fallback</text>
</g>
<!-- Sequence &#160;&#160;&#160;&#160;&#160;&#160;&#160;&#160;&#160;&#160;&#45;&gt;Fallback &#160;&#160;&#160;&#160;&#160;&#160;&#160;&#160;&#160;&#160;&#160;&#160;&#160;&#160; -->
<g id="edge54" class="edge">
<title>Sequence &#160;&#160;&#160;&#160;&#160;&#160;&#160;&#160;&#160;&#160;&#45;&gt;Fallback &#160;&#160;&#160;&#160;&#160;&#160;&#160;&#160;&#160;&#160;&#160;&#160;&#160;&#160;</title>
<path fill="none" stroke="black" d="M1738.81,-287.7C1732.52,-279.39 1724.87,-269.28 1717.95,-260.14"/>
<polygon fill="black" stroke="black" points="1720.69,-257.96 1711.87,-252.1 1715.11,-262.19 1720.69,-257.96"/>
</g>
<!-- pick0 GreenBox  -->
<g id="node58" class="node">
<title>pick0 GreenBox </title>
<ellipse fill="lightgray" stroke="black" cx="1804.91" cy="-234" rx="52.58" ry="18"/>
<text text-anchor="middle" x="1804.91" y="-231.8" font-family="Times,serif" font-size="9.00">pick0 GreenBox</text>
</g>
<!-- Sequence &#160;&#160;&#160;&#160;&#160;&#160;&#160;&#160;&#160;&#160;&#45;&gt;pick0 GreenBox  -->
<g id="edge57" class="edge">
<title>Sequence &#160;&#160;&#160;&#160;&#160;&#160;&#160;&#160;&#160;&#160;&#45;&gt;pick0 GreenBox </title>
<path fill="none" stroke="black" d="M1765.02,-287.7C1771.4,-279.27 1779.19,-268.97 1786.19,-259.73"/>
<polygon fill="black" stroke="black" points="1789.08,-261.71 1792.33,-251.62 1783.5,-257.48 1789.08,-261.71"/>
</g>
<!-- gripper_state open &#160;&#160;&#160; -->
<g id="node56" class="node">
<title>gripper_state open &#160;&#160;&#160;</title>
<ellipse fill="lightgray" stroke="black" cx="1636.91" cy="-162" rx="60.09" ry="18"/>
<text text-anchor="middle" x="1636.91" y="-159.8" font-family="Times,serif" font-size="9.00">gripper_state open</text>
</g>
<!-- Fallback &#160;&#160;&#160;&#160;&#160;&#160;&#160;&#160;&#160;&#160;&#160;&#160;&#160;&#160;&#45;&gt;gripper_state open &#160;&#160;&#160; -->
<g id="edge55" class="edge">
<title>Fallback &#160;&#160;&#160;&#160;&#160;&#160;&#160;&#160;&#160;&#160;&#160;&#160;&#160;&#160;&#45;&gt;gripper_state open &#160;&#160;&#160;</title>
<path fill="none" stroke="black" d="M1683.91,-216.05C1676.29,-207.46 1666.9,-196.86 1658.52,-187.4"/>
<polygon fill="black" stroke="black" points="1661.04,-184.95 1651.79,-179.79 1655.8,-189.6 1661.04,-184.95"/>
</g>
<!-- open_gripper &#160;&#160;&#160; -->
<g id="node57" class="node">
<title>open_gripper &#160;&#160;&#160;</title>
<ellipse fill="lightgray" stroke="black" cx="1760.91" cy="-162" rx="45.72" ry="18"/>
<text text-anchor="middle" x="1760.91" y="-159.8" font-family="Times,serif" font-size="9.00">open_gripper</text>
</g>
<!-- Fallback &#160;&#160;&#160;&#160;&#160;&#160;&#160;&#160;&#160;&#160;&#160;&#160;&#160;&#160;&#45;&gt;open_gripper &#160;&#160;&#160; -->
<g id="edge56" class="edge">
<title>Fallback &#160;&#160;&#160;&#160;&#160;&#160;&#160;&#160;&#160;&#160;&#160;&#160;&#160;&#160;&#45;&gt;open_gripper &#160;&#160;&#160;</title>
<path fill="none" stroke="black" d="M1713.92,-216.05C1721.65,-207.33 1731.2,-196.54 1739.67,-186.98"/>
<polygon fill="black" stroke="black" points="1742.46,-189.11 1746.47,-179.31 1737.22,-184.47 1742.46,-189.11"/>
</g>
</g>
</svg>
