<?xml version="1.0" encoding="utf-8" standalone="no"?>
<!DOCTYPE svg PUBLIC "-//W3C//DTD SVG 1.1//EN"
  "http://www.w3.org/Graphics/SVG/1.1/DTD/svg11.dtd">
<svg xmlns:xlink="http://www.w3.org/1999/xlink" width="460.8pt" height="345.6pt" viewBox="0 0 460.8 345.6" xmlns="http://www.w3.org/2000/svg" version="1.1">
 <metadata>
  <rdf:RDF xmlns:dc="http://purl.org/dc/elements/1.1/" xmlns:cc="http://creativecommons.org/ns#" xmlns:rdf="http://www.w3.org/1999/02/22-rdf-syntax-ns#">
   <cc:Work>
    <dc:type rdf:resource="http://purl.org/dc/dcmitype/StillImage"/>
    <dc:date>2023-03-08T23:00:59.460928</dc:date>
    <dc:format>image/svg+xml</dc:format>
    <dc:creator>
     <cc:Agent>
      <dc:title>Matplotlib v3.5.2, https://matplotlib.org/</dc:title>
     </cc:Agent>
    </dc:creator>
   </cc:Work>
  </rdf:RDF>
 </metadata>
 <defs>
  <style type="text/css">*{stroke-linejoin: round; stroke-linecap: butt}</style>
 </defs>
 <g id="figure_1">
  <g id="patch_1">
   <path d="M 0 345.6 
L 460.8 345.6 
L 460.8 0 
L 0 0 
z
" style="fill: #ffffff"/>
  </g>
  <g id="patch_2">
   <path d="M 46.08 136.045714 
L 133.851429 136.045714 
L 133.851429 48.274286 
L 46.08 48.274286 
z
" style="fill: #ffffff"/>
  </g>
  <g id="pane3d_1">
   <g id="patch_3">
    <path d="M 52.707348 114.404093 
L 81.69234 90.108298 
L 81.289421 55.069418 
L 50.917348 77.233574 
" style="fill: #f2f2f2; opacity: 0.5; stroke: #f2f2f2; stroke-linejoin: miter"/>
   </g>
  </g>
  <g id="pane3d_2">
   <g id="patch_4">
    <path d="M 81.69234 90.108298 
L 128.202911 103.627084 
L 129.862709 67.38133 
L 81.289421 55.069418 
" style="fill: #e6e6e6; opacity: 0.5; stroke: #e6e6e6; stroke-linejoin: miter"/>
   </g>
  </g>
  <g id="pane3d_3">
   <g id="patch_5">
    <path d="M 52.707348 114.404093 
L 102.010825 130.506608 
L 128.202911 103.627084 
L 81.69234 90.108298 
" style="fill: #ececec; opacity: 0.5; stroke: #ececec; stroke-linejoin: miter"/>
   </g>
  </g>
  <g id="axis3d_1">
   <g id="line2d_1">
    <path d="M 52.707348 114.404093 
L 102.010825 130.506608 
" style="fill: none; stroke: #000000; stroke-width: 0.8; stroke-linecap: square"/>
   </g>
   <g id="text_1">
    <!-- x [m] -->
    <g style="fill: #ff0000" transform="translate(62.597588 125.092317)rotate(-341.912962)scale(0.09 -0.09)">
     <defs>
      <path id="DejaVuSans-78" d="M 3513 3500 
L 2247 1797 
L 3578 0 
L 2900 0 
L 1881 1375 
L 863 0 
L 184 0 
L 1544 1831 
L 300 3500 
L 978 3500 
L 1906 2253 
L 2834 3500 
L 3513 3500 
z
" transform="scale(0.015625)"/>
      <path id="DejaVuSans-20" transform="scale(0.015625)"/>
      <path id="DejaVuSans-5b" d="M 550 4863 
L 1875 4863 
L 1875 4416 
L 1125 4416 
L 1125 -397 
L 1875 -397 
L 1875 -844 
L 550 -844 
L 550 4863 
z
" transform="scale(0.015625)"/>
      <path id="DejaVuSans-6d" d="M 3328 2828 
Q 3544 3216 3844 3400 
Q 4144 3584 4550 3584 
Q 5097 3584 5394 3201 
Q 5691 2819 5691 2113 
L 5691 0 
L 5113 0 
L 5113 2094 
Q 5113 2597 4934 2840 
Q 4756 3084 4391 3084 
Q 3944 3084 3684 2787 
Q 3425 2491 3425 1978 
L 3425 0 
L 2847 0 
L 2847 2094 
Q 2847 2600 2669 2842 
Q 2491 3084 2119 3084 
Q 1678 3084 1418 2786 
Q 1159 2488 1159 1978 
L 1159 0 
L 581 0 
L 581 3500 
L 1159 3500 
L 1159 2956 
Q 1356 3278 1631 3431 
Q 1906 3584 2284 3584 
Q 2666 3584 2933 3390 
Q 3200 3197 3328 2828 
z
" transform="scale(0.015625)"/>
      <path id="DejaVuSans-5d" d="M 1947 4863 
L 1947 -844 
L 622 -844 
L 622 -397 
L 1369 -397 
L 1369 4416 
L 622 4416 
L 622 4863 
L 1947 4863 
z
" transform="scale(0.015625)"/>
     </defs>
     <use xlink:href="#DejaVuSans-78"/>
     <use xlink:href="#DejaVuSans-20" x="59.179688"/>
     <use xlink:href="#DejaVuSans-5b" x="90.966797"/>
     <use xlink:href="#DejaVuSans-6d" x="129.980469"/>
     <use xlink:href="#DejaVuSans-5d" x="227.392578"/>
    </g>
   </g>
   <g id="Line3DCollection_1">
    <path d="M 58.642606 116.342548 
L 87.313163 91.742049 
L 87.148638 56.554558 
" style="fill: none; stroke: #b0b0b0; stroke-width: 0.8"/>
    <path d="M 98.479033 129.353125 
L 124.884815 102.662645 
L 126.390658 66.501267 
" style="fill: none; stroke: #b0b0b0; stroke-width: 0.8"/>
   </g>
   <g id="xtick_1">
    <g id="line2d_2">
     <path d="M 58.892333 116.128272 
L 58.142077 116.772022 
" style="fill: none; stroke: #000000; stroke-width: 0.8; stroke-linecap: square"/>
    </g>
    <g id="text_2">
     <!-- −200 -->
     <g transform="translate(37.33149 139.833931)scale(0.1 -0.1)">
      <defs>
       <path id="DejaVuSans-2212" d="M 678 2272 
L 4684 2272 
L 4684 1741 
L 678 1741 
L 678 2272 
z
" transform="scale(0.015625)"/>
       <path id="DejaVuSans-32" d="M 1228 531 
L 3431 531 
L 3431 0 
L 469 0 
L 469 531 
Q 828 903 1448 1529 
Q 2069 2156 2228 2338 
Q 2531 2678 2651 2914 
Q 2772 3150 2772 3378 
Q 2772 3750 2511 3984 
Q 2250 4219 1831 4219 
Q 1534 4219 1204 4116 
Q 875 4013 500 3803 
L 500 4441 
Q 881 4594 1212 4672 
Q 1544 4750 1819 4750 
Q 2544 4750 2975 4387 
Q 3406 4025 3406 3419 
Q 3406 3131 3298 2873 
Q 3191 2616 2906 2266 
Q 2828 2175 2409 1742 
Q 1991 1309 1228 531 
z
" transform="scale(0.015625)"/>
       <path id="DejaVuSans-30" d="M 2034 4250 
Q 1547 4250 1301 3770 
Q 1056 3291 1056 2328 
Q 1056 1369 1301 889 
Q 1547 409 2034 409 
Q 2525 409 2770 889 
Q 3016 1369 3016 2328 
Q 3016 3291 2770 3770 
Q 2525 4250 2034 4250 
z
M 2034 4750 
Q 2819 4750 3233 4129 
Q 3647 3509 3647 2328 
Q 3647 1150 3233 529 
Q 2819 -91 2034 -91 
Q 1250 -91 836 529 
Q 422 1150 422 2328 
Q 422 3509 836 4129 
Q 1250 4750 2034 4750 
z
" transform="scale(0.015625)"/>
      </defs>
      <use xlink:href="#DejaVuSans-2212"/>
      <use xlink:href="#DejaVuSans-32" x="83.789062"/>
      <use xlink:href="#DejaVuSans-30" x="147.412109"/>
      <use xlink:href="#DejaVuSans-30" x="211.035156"/>
     </g>
    </g>
   </g>
   <g id="xtick_2">
    <g id="line2d_3">
     <path d="M 98.709848 129.119821 
L 98.016366 129.82078 
" style="fill: none; stroke: #000000; stroke-width: 0.8; stroke-linecap: square"/>
    </g>
    <g id="text_3">
     <!-- 0 -->
     <g transform="translate(87.860759 153.698374)scale(0.1 -0.1)">
      <use xlink:href="#DejaVuSans-30"/>
     </g>
    </g>
   </g>
  </g>
  <g id="axis3d_2">
   <g id="line2d_4">
    <path d="M 128.202911 103.627084 
L 102.010825 130.506608 
" style="fill: none; stroke: #000000; stroke-width: 0.8; stroke-linecap: square"/>
   </g>
   <g id="text_4">
    <!-- y [m] -->
    <g style="fill: #ff0000" transform="translate(112.339434 130.142818)rotate(-45.742112)scale(0.09 -0.09)">
     <defs>
      <path id="DejaVuSans-79" d="M 2059 -325 
Q 1816 -950 1584 -1140 
Q 1353 -1331 966 -1331 
L 506 -1331 
L 506 -850 
L 844 -850 
Q 1081 -850 1212 -737 
Q 1344 -625 1503 -206 
L 1606 56 
L 191 3500 
L 800 3500 
L 1894 763 
L 2988 3500 
L 3597 3500 
L 2059 -325 
z
" transform="scale(0.015625)"/>
     </defs>
     <use xlink:href="#DejaVuSans-79"/>
     <use xlink:href="#DejaVuSans-20" x="59.179688"/>
     <use xlink:href="#DejaVuSans-5b" x="90.966797"/>
     <use xlink:href="#DejaVuSans-6d" x="129.980469"/>
     <use xlink:href="#DejaVuSans-5d" x="227.392578"/>
    </g>
   </g>
   <g id="Line3DCollection_2">
    <path d="M 53.763067 75.156897 
L 55.413773 112.135514 
L 104.466274 127.986713 
" style="fill: none; stroke: #b0b0b0; stroke-width: 0.8"/>
    <path d="M 76.933621 58.248082 
L 77.521929 93.604019 
L 124.44857 107.479962 
" style="fill: none; stroke: #b0b0b0; stroke-width: 0.8"/>
   </g>
   <g id="xtick_3">
    <g id="line2d_5">
     <path d="M 104.052951 127.853149 
L 105.293986 128.254186 
" style="fill: none; stroke: #000000; stroke-width: 0.8; stroke-linecap: square"/>
    </g>
    <g id="text_5">
     <!-- 0 -->
     <g transform="translate(114.155147 148.995076)scale(0.1 -0.1)">
      <use xlink:href="#DejaVuSans-30"/>
     </g>
    </g>
   </g>
   <g id="xtick_4">
    <g id="line2d_6">
     <path d="M 124.054478 107.363431 
L 125.237702 107.713304 
" style="fill: none; stroke: #000000; stroke-width: 0.8; stroke-linecap: square"/>
    </g>
    <g id="text_6">
     <!-- 10 -->
     <g transform="translate(130.139783 127.567669)scale(0.1 -0.1)">
      <defs>
       <path id="DejaVuSans-31" d="M 794 531 
L 1825 531 
L 1825 4091 
L 703 3866 
L 703 4441 
L 1819 4666 
L 2450 4666 
L 2450 531 
L 3481 531 
L 3481 0 
L 794 0 
L 794 531 
z
" transform="scale(0.015625)"/>
      </defs>
      <use xlink:href="#DejaVuSans-31"/>
      <use xlink:href="#DejaVuSans-30" x="63.623047"/>
     </g>
    </g>
   </g>
  </g>
  <g id="axis3d_3">
   <g id="line2d_7">
    <path d="M 128.202911 103.627084 
L 129.862709 67.38133 
" style="fill: none; stroke: #000000; stroke-width: 0.8; stroke-linecap: square"/>
   </g>
   <g id="text_7">
    <!-- z [m] -->
    <g style="fill: #ff0000" transform="translate(135.8265 97.037384)rotate(-87.378092)scale(0.09 -0.09)">
     <defs>
      <path id="DejaVuSans-7a" d="M 353 3500 
L 3084 3500 
L 3084 2975 
L 922 459 
L 3084 459 
L 3084 0 
L 275 0 
L 275 525 
L 2438 3041 
L 353 3041 
L 353 3500 
z
" transform="scale(0.015625)"/>
     </defs>
     <use xlink:href="#DejaVuSans-7a"/>
     <use xlink:href="#DejaVuSans-20" x="52.490234"/>
     <use xlink:href="#DejaVuSans-5b" x="84.277344"/>
     <use xlink:href="#DejaVuSans-6d" x="123.291016"/>
     <use xlink:href="#DejaVuSans-5d" x="220.703125"/>
    </g>
   </g>
   <g id="Line3DCollection_3">
    <path d="M 128.638809 94.108193 
L 81.586361 80.892025 
L 52.237841 104.654471 
" style="fill: none; stroke: #b0b0b0; stroke-width: 0.8"/>
    <path d="M 129.732951 70.214912 
L 81.320859 57.803324 
L 51.057502 80.14397 
" style="fill: none; stroke: #b0b0b0; stroke-width: 0.8"/>
   </g>
   <g id="xtick_5">
    <g id="line2d_8">
     <path d="M 128.243692 93.997212 
L 129.429993 94.330422 
" style="fill: none; stroke: #000000; stroke-width: 0.8; stroke-linecap: square"/>
    </g>
    <g id="text_8">
     <!-- 26 -->
     <g transform="translate(140.621907 99.174231)scale(0.1 -0.1)">
      <defs>
       <path id="DejaVuSans-36" d="M 2113 2584 
Q 1688 2584 1439 2293 
Q 1191 2003 1191 1497 
Q 1191 994 1439 701 
Q 1688 409 2113 409 
Q 2538 409 2786 701 
Q 3034 994 3034 1497 
Q 3034 2003 2786 2293 
Q 2538 2584 2113 2584 
z
M 3366 4563 
L 3366 3988 
Q 3128 4100 2886 4159 
Q 2644 4219 2406 4219 
Q 1781 4219 1451 3797 
Q 1122 3375 1075 2522 
Q 1259 2794 1537 2939 
Q 1816 3084 2150 3084 
Q 2853 3084 3261 2657 
Q 3669 2231 3669 1497 
Q 3669 778 3244 343 
Q 2819 -91 2113 -91 
Q 1303 -91 875 529 
Q 447 1150 447 2328 
Q 447 3434 972 4092 
Q 1497 4750 2381 4750 
Q 2619 4750 2861 4703 
Q 3103 4656 3366 4563 
z
" transform="scale(0.015625)"/>
      </defs>
      <use xlink:href="#DejaVuSans-32"/>
      <use xlink:href="#DejaVuSans-36" x="63.623047"/>
     </g>
    </g>
   </g>
   <g id="xtick_6">
    <g id="line2d_9">
     <path d="M 129.325856 70.110543 
L 130.548151 70.423908 
" style="fill: none; stroke: #000000; stroke-width: 0.8; stroke-linecap: square"/>
    </g>
    <g id="text_9">
     <!-- 28 -->
     <g transform="translate(142.236181 75.432443)scale(0.1 -0.1)">
      <defs>
       <path id="DejaVuSans-38" d="M 2034 2216 
Q 1584 2216 1326 1975 
Q 1069 1734 1069 1313 
Q 1069 891 1326 650 
Q 1584 409 2034 409 
Q 2484 409 2743 651 
Q 3003 894 3003 1313 
Q 3003 1734 2745 1975 
Q 2488 2216 2034 2216 
z
M 1403 2484 
Q 997 2584 770 2862 
Q 544 3141 544 3541 
Q 544 4100 942 4425 
Q 1341 4750 2034 4750 
Q 2731 4750 3128 4425 
Q 3525 4100 3525 3541 
Q 3525 3141 3298 2862 
Q 3072 2584 2669 2484 
Q 3125 2378 3379 2068 
Q 3634 1759 3634 1313 
Q 3634 634 3220 271 
Q 2806 -91 2034 -91 
Q 1263 -91 848 271 
Q 434 634 434 1313 
Q 434 1759 690 2068 
Q 947 2378 1403 2484 
z
M 1172 3481 
Q 1172 3119 1398 2916 
Q 1625 2713 2034 2713 
Q 2441 2713 2670 2916 
Q 2900 3119 2900 3481 
Q 2900 3844 2670 4047 
Q 2441 4250 2034 4250 
Q 1625 4250 1398 4047 
Q 1172 3844 1172 3481 
z
" transform="scale(0.015625)"/>
      </defs>
      <use xlink:href="#DejaVuSans-32"/>
      <use xlink:href="#DejaVuSans-38" x="63.623047"/>
     </g>
    </g>
   </g>
  </g>
  <g id="axes_1">
   <g id="Path3DCollection_1">
    <defs>
     <path id="m38ddb78299" d="M 0 2.236068 
C 0.593012 2.236068 1.161816 2.000462 1.581139 1.581139 
C 2.000462 1.161816 2.236068 0.593012 2.236068 0 
C 2.236068 -0.593012 2.000462 -1.161816 1.581139 -1.581139 
C 1.161816 -2.000462 0.593012 -2.236068 0 -2.236068 
C -0.593012 -2.236068 -1.161816 -2.000462 -1.581139 -1.581139 
C -2.000462 -1.161816 -2.236068 -0.593012 -2.236068 0 
C -2.236068 0.593012 -2.000462 1.161816 -1.581139 1.581139 
C -1.161816 2.000462 -0.593012 2.236068 0 2.236068 
z
" style="stroke: #1a0000"/>
    </defs>
    <g clip-path="url(#pd82a2fbb53)">
     <use xlink:href="#m38ddb78299" x="82.652963" y="75.114826" style="fill: #1a0000; stroke: #1a0000"/>
    </g>
   </g>
   <g id="text_10">
    <!-- KittingBox -->
    <g transform="translate(59.229777 42.274286)scale(0.12 -0.12)">
     <defs>
      <path id="DejaVuSans-4b" d="M 628 4666 
L 1259 4666 
L 1259 2694 
L 3353 4666 
L 4166 4666 
L 1850 2491 
L 4331 0 
L 3500 0 
L 1259 2247 
L 1259 0 
L 628 0 
L 628 4666 
z
" transform="scale(0.015625)"/>
      <path id="DejaVuSans-69" d="M 603 3500 
L 1178 3500 
L 1178 0 
L 603 0 
L 603 3500 
z
M 603 4863 
L 1178 4863 
L 1178 4134 
L 603 4134 
L 603 4863 
z
" transform="scale(0.015625)"/>
      <path id="DejaVuSans-74" d="M 1172 4494 
L 1172 3500 
L 2356 3500 
L 2356 3053 
L 1172 3053 
L 1172 1153 
Q 1172 725 1289 603 
Q 1406 481 1766 481 
L 2356 481 
L 2356 0 
L 1766 0 
Q 1100 0 847 248 
Q 594 497 594 1153 
L 594 3053 
L 172 3053 
L 172 3500 
L 594 3500 
L 594 4494 
L 1172 4494 
z
" transform="scale(0.015625)"/>
      <path id="DejaVuSans-6e" d="M 3513 2113 
L 3513 0 
L 2938 0 
L 2938 2094 
Q 2938 2591 2744 2837 
Q 2550 3084 2163 3084 
Q 1697 3084 1428 2787 
Q 1159 2491 1159 1978 
L 1159 0 
L 581 0 
L 581 3500 
L 1159 3500 
L 1159 2956 
Q 1366 3272 1645 3428 
Q 1925 3584 2291 3584 
Q 2894 3584 3203 3211 
Q 3513 2838 3513 2113 
z
" transform="scale(0.015625)"/>
      <path id="DejaVuSans-67" d="M 2906 1791 
Q 2906 2416 2648 2759 
Q 2391 3103 1925 3103 
Q 1463 3103 1205 2759 
Q 947 2416 947 1791 
Q 947 1169 1205 825 
Q 1463 481 1925 481 
Q 2391 481 2648 825 
Q 2906 1169 2906 1791 
z
M 3481 434 
Q 3481 -459 3084 -895 
Q 2688 -1331 1869 -1331 
Q 1566 -1331 1297 -1286 
Q 1028 -1241 775 -1147 
L 775 -588 
Q 1028 -725 1275 -790 
Q 1522 -856 1778 -856 
Q 2344 -856 2625 -561 
Q 2906 -266 2906 331 
L 2906 616 
Q 2728 306 2450 153 
Q 2172 0 1784 0 
Q 1141 0 747 490 
Q 353 981 353 1791 
Q 353 2603 747 3093 
Q 1141 3584 1784 3584 
Q 2172 3584 2450 3431 
Q 2728 3278 2906 2969 
L 2906 3500 
L 3481 3500 
L 3481 434 
z
" transform="scale(0.015625)"/>
      <path id="DejaVuSans-42" d="M 1259 2228 
L 1259 519 
L 2272 519 
Q 2781 519 3026 730 
Q 3272 941 3272 1375 
Q 3272 1813 3026 2020 
Q 2781 2228 2272 2228 
L 1259 2228 
z
M 1259 4147 
L 1259 2741 
L 2194 2741 
Q 2656 2741 2882 2914 
Q 3109 3088 3109 3444 
Q 3109 3797 2882 3972 
Q 2656 4147 2194 4147 
L 1259 4147 
z
M 628 4666 
L 2241 4666 
Q 2963 4666 3353 4366 
Q 3744 4066 3744 3513 
Q 3744 3084 3544 2831 
Q 3344 2578 2956 2516 
Q 3422 2416 3680 2098 
Q 3938 1781 3938 1306 
Q 3938 681 3513 340 
Q 3088 0 2303 0 
L 628 0 
L 628 4666 
z
" transform="scale(0.015625)"/>
      <path id="DejaVuSans-6f" d="M 1959 3097 
Q 1497 3097 1228 2736 
Q 959 2375 959 1747 
Q 959 1119 1226 758 
Q 1494 397 1959 397 
Q 2419 397 2687 759 
Q 2956 1122 2956 1747 
Q 2956 2369 2687 2733 
Q 2419 3097 1959 3097 
z
M 1959 3584 
Q 2709 3584 3137 3096 
Q 3566 2609 3566 1747 
Q 3566 888 3137 398 
Q 2709 -91 1959 -91 
Q 1206 -91 779 398 
Q 353 888 353 1747 
Q 353 2609 779 3096 
Q 1206 3584 1959 3584 
z
" transform="scale(0.015625)"/>
     </defs>
     <use xlink:href="#DejaVuSans-4b"/>
     <use xlink:href="#DejaVuSans-69" x="65.576172"/>
     <use xlink:href="#DejaVuSans-74" x="93.359375"/>
     <use xlink:href="#DejaVuSans-74" x="132.568359"/>
     <use xlink:href="#DejaVuSans-69" x="171.777344"/>
     <use xlink:href="#DejaVuSans-6e" x="199.560547"/>
     <use xlink:href="#DejaVuSans-67" x="262.939453"/>
     <use xlink:href="#DejaVuSans-42" x="326.416016"/>
     <use xlink:href="#DejaVuSans-6f" x="395.019531"/>
     <use xlink:href="#DejaVuSans-78" x="453.076172"/>
    </g>
   </g>
   <g id="Path3DCollection_2">
    <g clip-path="url(#pd82a2fbb53)">
     <use xlink:href="#m38ddb78299" x="121.413735" y="89.258174" style="fill: #1a0000; stroke: #1a0000"/>
    </g>
   </g>
   <g id="Path3DCollection_3">
    <g clip-path="url(#pd82a2fbb53)">
     <use xlink:href="#m38ddb78299" x="78.447047" y="102.114601" style="fill: #1a0000; stroke: #1a0000"/>
    </g>
   </g>
  </g>
  <g id="patch_6">
   <path d="M 186.514286 136.045714 
L 274.285714 136.045714 
L 274.285714 48.274286 
L 186.514286 48.274286 
z
" style="fill: #ffffff"/>
  </g>
  <g id="pane3d_4">
   <g id="patch_7">
    <path d="M 193.141634 114.404093 
L 222.126626 90.108298 
L 221.723707 55.069418 
L 191.351633 77.233574 
" style="fill: #f2f2f2; opacity: 0.5; stroke: #f2f2f2; stroke-linejoin: miter"/>
   </g>
  </g>
  <g id="pane3d_5">
   <g id="patch_8">
    <path d="M 222.126626 90.108298 
L 268.637197 103.627084 
L 270.296995 67.38133 
L 221.723707 55.069418 
" style="fill: #e6e6e6; opacity: 0.5; stroke: #e6e6e6; stroke-linejoin: miter"/>
   </g>
  </g>
  <g id="pane3d_6">
   <g id="patch_9">
    <path d="M 193.141634 114.404093 
L 242.44511 130.506608 
L 268.637197 103.627084 
L 222.126626 90.108298 
" style="fill: #ececec; opacity: 0.5; stroke: #ececec; stroke-linejoin: miter"/>
   </g>
  </g>
  <g id="axis3d_4">
   <g id="line2d_10">
    <path d="M 193.141634 114.404093 
L 242.44511 130.506608 
" style="fill: none; stroke: #000000; stroke-width: 0.8; stroke-linecap: square"/>
   </g>
   <g id="text_11">
    <!-- x [m] -->
    <g style="fill: #ff0000" transform="translate(203.031874 125.092317)rotate(-341.912962)scale(0.09 -0.09)">
     <use xlink:href="#DejaVuSans-78"/>
     <use xlink:href="#DejaVuSans-20" x="59.179688"/>
     <use xlink:href="#DejaVuSans-5b" x="90.966797"/>
     <use xlink:href="#DejaVuSans-6d" x="129.980469"/>
     <use xlink:href="#DejaVuSans-5d" x="227.392578"/>
    </g>
   </g>
   <g id="Line3DCollection_4">
    <path d="M 196.572175 115.524508 
L 225.376155 91.052808 
L 225.110693 55.92792 
" style="fill: none; stroke: #b0b0b0; stroke-width: 0.8"/>
    <path d="M 238.868636 129.338532 
L 265.277109 102.65044 
L 266.781011 66.490131 
" style="fill: none; stroke: #b0b0b0; stroke-width: 0.8"/>
   </g>
   <g id="xtick_7">
    <g id="line2d_11">
     <path d="M 196.823008 115.311401 
L 196.069431 115.951636 
" style="fill: none; stroke: #000000; stroke-width: 0.8; stroke-linecap: square"/>
    </g>
    <g id="text_12">
     <!-- −200 -->
     <g transform="translate(175.253548 138.962662)scale(0.1 -0.1)">
      <use xlink:href="#DejaVuSans-2212"/>
      <use xlink:href="#DejaVuSans-32" x="83.789062"/>
      <use xlink:href="#DejaVuSans-30" x="147.412109"/>
      <use xlink:href="#DejaVuSans-30" x="211.035156"/>
     </g>
    </g>
   </g>
   <g id="xtick_8">
    <g id="line2d_12">
     <path d="M 239.099474 129.10525 
L 238.405924 129.806143 
" style="fill: none; stroke: #000000; stroke-width: 0.8; stroke-linecap: square"/>
    </g>
    <g id="text_13">
     <!-- 0 -->
     <g transform="translate(228.250183 153.682816)scale(0.1 -0.1)">
      <use xlink:href="#DejaVuSans-30"/>
     </g>
    </g>
   </g>
  </g>
  <g id="axis3d_5">
   <g id="line2d_13">
    <path d="M 268.637197 103.627084 
L 242.44511 130.506608 
" style="fill: none; stroke: #000000; stroke-width: 0.8; stroke-linecap: square"/>
   </g>
   <g id="text_14">
    <!-- y [m] -->
    <g style="fill: #ff0000" transform="translate(252.77372 130.142818)rotate(-45.742112)scale(0.09 -0.09)">
     <use xlink:href="#DejaVuSans-79"/>
     <use xlink:href="#DejaVuSans-20" x="59.179688"/>
     <use xlink:href="#DejaVuSans-5b" x="90.966797"/>
     <use xlink:href="#DejaVuSans-6d" x="129.980469"/>
     <use xlink:href="#DejaVuSans-5d" x="227.392578"/>
    </g>
   </g>
   <g id="Line3DCollection_5">
    <path d="M 194.197353 75.156897 
L 195.848059 112.135514 
L 244.90056 127.986713 
" style="fill: none; stroke: #b0b0b0; stroke-width: 0.8"/>
    <path d="M 217.367907 58.248082 
L 217.956215 93.604019 
L 264.882855 107.479962 
" style="fill: none; stroke: #b0b0b0; stroke-width: 0.8"/>
   </g>
   <g id="xtick_9">
    <g id="line2d_14">
     <path d="M 244.487237 127.853149 
L 245.728271 128.254186 
" style="fill: none; stroke: #000000; stroke-width: 0.8; stroke-linecap: square"/>
    </g>
    <g id="text_15">
     <!-- 0 -->
     <g transform="translate(254.589432 148.995076)scale(0.1 -0.1)">
      <use xlink:href="#DejaVuSans-30"/>
     </g>
    </g>
   </g>
   <g id="xtick_10">
    <g id="line2d_15">
     <path d="M 264.488764 107.363431 
L 265.671988 107.713304 
" style="fill: none; stroke: #000000; stroke-width: 0.8; stroke-linecap: square"/>
    </g>
    <g id="text_16">
     <!-- 10 -->
     <g transform="translate(270.574069 127.567669)scale(0.1 -0.1)">
      <use xlink:href="#DejaVuSans-31"/>
      <use xlink:href="#DejaVuSans-30" x="63.623047"/>
     </g>
    </g>
   </g>
  </g>
  <g id="axis3d_6">
   <g id="line2d_16">
    <path d="M 268.637197 103.627084 
L 270.296995 67.38133 
" style="fill: none; stroke: #000000; stroke-width: 0.8; stroke-linecap: square"/>
   </g>
   <g id="text_17">
    <!-- z [m] -->
    <g style="fill: #ff0000" transform="translate(276.260786 97.037384)rotate(-87.378092)scale(0.09 -0.09)">
     <use xlink:href="#DejaVuSans-7a"/>
     <use xlink:href="#DejaVuSans-20" x="52.490234"/>
     <use xlink:href="#DejaVuSans-5b" x="84.277344"/>
     <use xlink:href="#DejaVuSans-6d" x="123.291016"/>
     <use xlink:href="#DejaVuSans-5d" x="220.703125"/>
    </g>
   </g>
   <g id="Line3DCollection_6">
    <path d="M 269.115172 93.189333 
L 222.010422 80.002919 
L 192.626783 103.712882 
" style="fill: none; stroke: #b0b0b0; stroke-width: 0.8"/>
    <path d="M 269.788646 78.482368 
L 221.846929 65.785114 
L 191.900501 88.631161 
" style="fill: none; stroke: #b0b0b0; stroke-width: 0.8"/>
   </g>
   <g id="xtick_11">
    <g id="line2d_17">
     <path d="M 268.719594 93.078596 
L 269.907279 93.411074 
" style="fill: none; stroke: #000000; stroke-width: 0.8; stroke-linecap: square"/>
    </g>
    <g id="text_18">
     <!-- 21 -->
     <g transform="translate(281.118288 98.260963)scale(0.1 -0.1)">
      <use xlink:href="#DejaVuSans-32"/>
      <use xlink:href="#DejaVuSans-31" x="63.623047"/>
     </g>
    </g>
   </g>
   <g id="xtick_12">
    <g id="line2d_18">
     <path d="M 269.385698 78.375648 
L 270.59553 78.696069 
" style="fill: none; stroke: #000000; stroke-width: 0.8; stroke-linecap: square"/>
    </g>
    <g id="text_19">
     <!-- 22 -->
     <g transform="translate(282.111999 83.646046)scale(0.1 -0.1)">
      <use xlink:href="#DejaVuSans-32"/>
      <use xlink:href="#DejaVuSans-32" x="63.623047"/>
     </g>
    </g>
   </g>
  </g>
  <g id="axes_2">
   <g id="Path3DCollection_4">
    <g clip-path="url(#p6102cfa504)">
     <use xlink:href="#m38ddb78299" x="223.087248" y="75.114826" style="fill: #1a0000; stroke: #1a0000"/>
    </g>
   </g>
   <g id="text_20">
    <!-- YellowBox -->
    <g transform="translate(200.775 42.274286)scale(0.12 -0.12)">
     <defs>
      <path id="DejaVuSans-59" d="M -13 4666 
L 666 4666 
L 1959 2747 
L 3244 4666 
L 3922 4666 
L 2272 2222 
L 2272 0 
L 1638 0 
L 1638 2222 
L -13 4666 
z
" transform="scale(0.015625)"/>
      <path id="DejaVuSans-65" d="M 3597 1894 
L 3597 1613 
L 953 1613 
Q 991 1019 1311 708 
Q 1631 397 2203 397 
Q 2534 397 2845 478 
Q 3156 559 3463 722 
L 3463 178 
Q 3153 47 2828 -22 
Q 2503 -91 2169 -91 
Q 1331 -91 842 396 
Q 353 884 353 1716 
Q 353 2575 817 3079 
Q 1281 3584 2069 3584 
Q 2775 3584 3186 3129 
Q 3597 2675 3597 1894 
z
M 3022 2063 
Q 3016 2534 2758 2815 
Q 2500 3097 2075 3097 
Q 1594 3097 1305 2825 
Q 1016 2553 972 2059 
L 3022 2063 
z
" transform="scale(0.015625)"/>
      <path id="DejaVuSans-6c" d="M 603 4863 
L 1178 4863 
L 1178 0 
L 603 0 
L 603 4863 
z
" transform="scale(0.015625)"/>
      <path id="DejaVuSans-77" d="M 269 3500 
L 844 3500 
L 1563 769 
L 2278 3500 
L 2956 3500 
L 3675 769 
L 4391 3500 
L 4966 3500 
L 4050 0 
L 3372 0 
L 2619 2869 
L 1863 0 
L 1184 0 
L 269 3500 
z
" transform="scale(0.015625)"/>
     </defs>
     <use xlink:href="#DejaVuSans-59"/>
     <use xlink:href="#DejaVuSans-65" x="47.833984"/>
     <use xlink:href="#DejaVuSans-6c" x="109.357422"/>
     <use xlink:href="#DejaVuSans-6c" x="137.140625"/>
     <use xlink:href="#DejaVuSans-6f" x="164.923828"/>
     <use xlink:href="#DejaVuSans-77" x="226.105469"/>
     <use xlink:href="#DejaVuSans-42" x="307.892578"/>
     <use xlink:href="#DejaVuSans-6f" x="376.496094"/>
     <use xlink:href="#DejaVuSans-78" x="434.552734"/>
    </g>
   </g>
   <g id="Path3DCollection_5">
    <g clip-path="url(#p6102cfa504)">
     <use xlink:href="#m38ddb78299" x="261.848021" y="89.258174" style="fill: #1a0000; stroke: #1a0000"/>
    </g>
   </g>
   <g id="Path3DCollection_6">
    <g clip-path="url(#p6102cfa504)">
     <use xlink:href="#m38ddb78299" x="220.309329" y="102.549416" style="fill: #1a0000; stroke: #1a0000"/>
    </g>
   </g>
  </g>
  <g id="patch_10">
   <path d="M 326.948571 136.045714 
L 414.72 136.045714 
L 414.72 48.274286 
L 326.948571 48.274286 
z
" style="fill: #ffffff"/>
  </g>
  <g id="pane3d_7">
   <g id="patch_11">
    <path d="M 333.57592 114.404093 
L 362.560912 90.108298 
L 362.157993 55.069418 
L 331.785919 77.233574 
" style="fill: #f2f2f2; opacity: 0.5; stroke: #f2f2f2; stroke-linejoin: miter"/>
   </g>
  </g>
  <g id="pane3d_8">
   <g id="patch_12">
    <path d="M 362.560912 90.108298 
L 409.071482 103.627084 
L 410.731281 67.38133 
L 362.157993 55.069418 
" style="fill: #e6e6e6; opacity: 0.5; stroke: #e6e6e6; stroke-linejoin: miter"/>
   </g>
  </g>
  <g id="pane3d_9">
   <g id="patch_13">
    <path d="M 333.57592 114.404093 
L 382.879396 130.506608 
L 409.071482 103.627084 
L 362.560912 90.108298 
" style="fill: #ececec; opacity: 0.5; stroke: #ececec; stroke-linejoin: miter"/>
   </g>
  </g>
  <g id="axis3d_7">
   <g id="line2d_19">
    <path d="M 333.57592 114.404093 
L 382.879396 130.506608 
" style="fill: none; stroke: #000000; stroke-width: 0.8; stroke-linecap: square"/>
   </g>
   <g id="text_21">
    <!-- x [cm] -->
    <g style="fill: #ff0000" transform="translate(341.114128 124.324143)rotate(-341.912962)scale(0.09 -0.09)">
     <defs>
      <path id="DejaVuSans-63" d="M 3122 3366 
L 3122 2828 
Q 2878 2963 2633 3030 
Q 2388 3097 2138 3097 
Q 1578 3097 1268 2742 
Q 959 2388 959 1747 
Q 959 1106 1268 751 
Q 1578 397 2138 397 
Q 2388 397 2633 464 
Q 2878 531 3122 666 
L 3122 134 
Q 2881 22 2623 -34 
Q 2366 -91 2075 -91 
Q 1284 -91 818 406 
Q 353 903 353 1747 
Q 353 2603 823 3093 
Q 1294 3584 2113 3584 
Q 2378 3584 2631 3529 
Q 2884 3475 3122 3366 
z
" transform="scale(0.015625)"/>
     </defs>
     <use xlink:href="#DejaVuSans-78"/>
     <use xlink:href="#DejaVuSans-20" x="59.179688"/>
     <use xlink:href="#DejaVuSans-5b" x="90.966797"/>
     <use xlink:href="#DejaVuSans-63" x="129.980469"/>
     <use xlink:href="#DejaVuSans-6d" x="184.960938"/>
     <use xlink:href="#DejaVuSans-5d" x="282.373047"/>
    </g>
   </g>
   <g id="Line3DCollection_7">
    <path d="M 336.561997 115.379346 
L 365.389542 90.930469 
L 365.10622 55.816707 
" style="fill: none; stroke: #b0b0b0; stroke-width: 0.8"/>
    <path d="M 379.583354 129.430121 
L 405.974937 102.727041 
L 407.491027 66.560021 
" style="fill: none; stroke: #b0b0b0; stroke-width: 0.8"/>
   </g>
   <g id="xtick_13">
    <g id="line2d_20">
     <path d="M 336.813025 115.166446 
L 336.058862 115.806058 
" style="fill: none; stroke: #000000; stroke-width: 0.8; stroke-linecap: square"/>
    </g>
    <g id="text_22">
     <!-- 0.0 -->
     <g transform="translate(321.024085 138.808061)scale(0.1 -0.1)">
      <defs>
       <path id="DejaVuSans-2e" d="M 684 794 
L 1344 794 
L 1344 0 
L 684 0 
L 684 794 
z
" transform="scale(0.015625)"/>
      </defs>
      <use xlink:href="#DejaVuSans-30"/>
      <use xlink:href="#DejaVuSans-2e" x="63.623047"/>
      <use xlink:href="#DejaVuSans-30" x="95.410156"/>
     </g>
    </g>
   </g>
   <g id="xtick_14">
    <g id="line2d_21">
     <path d="M 379.81405 129.196702 
L 379.120926 129.898007 
" style="fill: none; stroke: #000000; stroke-width: 0.8; stroke-linecap: square"/>
    </g>
    <g id="text_23">
     <!-- 0.2 -->
     <g transform="translate(364.195717 153.780464)scale(0.1 -0.1)">
      <use xlink:href="#DejaVuSans-30"/>
      <use xlink:href="#DejaVuSans-2e" x="63.623047"/>
      <use xlink:href="#DejaVuSans-32" x="95.410156"/>
     </g>
    </g>
   </g>
  </g>
  <g id="axis3d_8">
   <g id="line2d_22">
    <path d="M 409.071482 103.627084 
L 382.879396 130.506608 
" style="fill: none; stroke: #000000; stroke-width: 0.8; stroke-linecap: square"/>
   </g>
   <g id="text_24">
    <!-- y [cm] -->
    <g style="fill: #ff0000" transform="translate(391.481221 131.914923)rotate(-45.742112)scale(0.09 -0.09)">
     <use xlink:href="#DejaVuSans-79"/>
     <use xlink:href="#DejaVuSans-20" x="59.179688"/>
     <use xlink:href="#DejaVuSans-5b" x="90.966797"/>
     <use xlink:href="#DejaVuSans-63" x="129.980469"/>
     <use xlink:href="#DejaVuSans-6d" x="184.960938"/>
     <use xlink:href="#DejaVuSans-5d" x="282.373047"/>
    </g>
   </g>
   <g id="Line3DCollection_8">
    <path d="M 333.886223 75.700867 
L 335.57323 112.729907 
L 384.691686 128.646753 
" style="fill: none; stroke: #b0b0b0; stroke-width: 0.8"/>
    <path d="M 347.647571 65.658463 
L 348.685713 101.738765 
L 396.56211 116.464778 
" style="fill: none; stroke: #b0b0b0; stroke-width: 0.8"/>
    <path d="M 360.380237 56.366743 
L 360.85827 91.535486 
L 407.539283 105.199497 
" style="fill: none; stroke: #b0b0b0; stroke-width: 0.8"/>
   </g>
   <g id="xtick_15">
    <g id="line2d_23">
     <path d="M 384.277763 128.512621 
L 385.520602 128.915364 
" style="fill: none; stroke: #000000; stroke-width: 0.8; stroke-linecap: square"/>
    </g>
    <g id="text_25">
     <!-- −0.105 -->
     <g transform="translate(379.084104 149.684834)scale(0.1 -0.1)">
      <defs>
       <path id="DejaVuSans-35" d="M 691 4666 
L 3169 4666 
L 3169 4134 
L 1269 4134 
L 1269 2991 
Q 1406 3038 1543 3061 
Q 1681 3084 1819 3084 
Q 2600 3084 3056 2656 
Q 3513 2228 3513 1497 
Q 3513 744 3044 326 
Q 2575 -91 1722 -91 
Q 1428 -91 1123 -41 
Q 819 9 494 109 
L 494 744 
Q 775 591 1075 516 
Q 1375 441 1709 441 
Q 2250 441 2565 725 
Q 2881 1009 2881 1497 
Q 2881 1984 2565 2268 
Q 2250 2553 1709 2553 
Q 1456 2553 1204 2497 
Q 953 2441 691 2322 
L 691 4666 
z
" transform="scale(0.015625)"/>
      </defs>
      <use xlink:href="#DejaVuSans-2212"/>
      <use xlink:href="#DejaVuSans-30" x="83.789062"/>
      <use xlink:href="#DejaVuSans-2e" x="147.412109"/>
      <use xlink:href="#DejaVuSans-31" x="179.199219"/>
      <use xlink:href="#DejaVuSans-30" x="242.822266"/>
      <use xlink:href="#DejaVuSans-35" x="306.445312"/>
     </g>
    </g>
   </g>
   <g id="xtick_16">
    <g id="line2d_24">
     <path d="M 396.159453 116.340927 
L 397.368424 116.712787 
" style="fill: none; stroke: #000000; stroke-width: 0.8; stroke-linecap: square"/>
    </g>
    <g id="text_26">
     <!-- −0.100 -->
     <g transform="translate(390.470183 136.955229)scale(0.1 -0.1)">
      <use xlink:href="#DejaVuSans-2212"/>
      <use xlink:href="#DejaVuSans-30" x="83.789062"/>
      <use xlink:href="#DejaVuSans-2e" x="147.412109"/>
      <use xlink:href="#DejaVuSans-31" x="179.199219"/>
      <use xlink:href="#DejaVuSans-30" x="242.822266"/>
      <use xlink:href="#DejaVuSans-30" x="306.445312"/>
     </g>
    </g>
   </g>
   <g id="xtick_17">
    <g id="line2d_25">
     <path d="M 407.1474 105.084789 
L 408.323986 105.429188 
" style="fill: none; stroke: #000000; stroke-width: 0.8; stroke-linecap: square"/>
    </g>
    <g id="text_27">
     <!-- −0.095 -->
     <g transform="translate(400.998018 125.185139)scale(0.1 -0.1)">
      <defs>
       <path id="DejaVuSans-39" d="M 703 97 
L 703 672 
Q 941 559 1184 500 
Q 1428 441 1663 441 
Q 2288 441 2617 861 
Q 2947 1281 2994 2138 
Q 2813 1869 2534 1725 
Q 2256 1581 1919 1581 
Q 1219 1581 811 2004 
Q 403 2428 403 3163 
Q 403 3881 828 4315 
Q 1253 4750 1959 4750 
Q 2769 4750 3195 4129 
Q 3622 3509 3622 2328 
Q 3622 1225 3098 567 
Q 2575 -91 1691 -91 
Q 1453 -91 1209 -44 
Q 966 3 703 97 
z
M 1959 2075 
Q 2384 2075 2632 2365 
Q 2881 2656 2881 3163 
Q 2881 3666 2632 3958 
Q 2384 4250 1959 4250 
Q 1534 4250 1286 3958 
Q 1038 3666 1038 3163 
Q 1038 2656 1286 2365 
Q 1534 2075 1959 2075 
z
" transform="scale(0.015625)"/>
      </defs>
      <use xlink:href="#DejaVuSans-2212"/>
      <use xlink:href="#DejaVuSans-30" x="83.789062"/>
      <use xlink:href="#DejaVuSans-2e" x="147.412109"/>
      <use xlink:href="#DejaVuSans-30" x="179.199219"/>
      <use xlink:href="#DejaVuSans-39" x="242.822266"/>
      <use xlink:href="#DejaVuSans-35" x="306.445312"/>
     </g>
    </g>
   </g>
  </g>
  <g id="axis3d_9">
   <g id="line2d_26">
    <path d="M 409.071482 103.627084 
L 410.731281 67.38133 
" style="fill: none; stroke: #000000; stroke-width: 0.8; stroke-linecap: square"/>
   </g>
   <g id="text_28">
    <!-- z [cm] -->
    <g style="fill: #ff0000" transform="translate(416.581885 99.50909)rotate(-87.378092)scale(0.09 -0.09)">
     <use xlink:href="#DejaVuSans-7a"/>
     <use xlink:href="#DejaVuSans-20" x="52.490234"/>
     <use xlink:href="#DejaVuSans-5b" x="84.277344"/>
     <use xlink:href="#DejaVuSans-63" x="123.291016"/>
     <use xlink:href="#DejaVuSans-6d" x="178.271484"/>
     <use xlink:href="#DejaVuSans-5d" x="275.683594"/>
    </g>
   </g>
   <g id="Line3DCollection_9">
    <path d="M 409.381906 96.848216 
L 362.485426 83.543891 
L 333.241603 107.461794 
" style="fill: none; stroke: #b0b0b0; stroke-width: 0.8"/>
    <path d="M 410.660881 68.918676 
L 362.175048 56.552573 
L 331.861964 78.81269 
" style="fill: none; stroke: #b0b0b0; stroke-width: 0.8"/>
   </g>
   <g id="xtick_18">
    <g id="line2d_27">
     <path d="M 408.988162 96.736512 
L 410.170341 97.071891 
" style="fill: none; stroke: #000000; stroke-width: 0.8; stroke-linecap: square"/>
    </g>
    <g id="text_29">
     <!-- 11 -->
     <g transform="translate(421.305302 101.897691)scale(0.1 -0.1)">
      <use xlink:href="#DejaVuSans-31"/>
      <use xlink:href="#DejaVuSans-31" x="63.623047"/>
     </g>
    </g>
   </g>
   <g id="xtick_19">
    <g id="line2d_28">
     <path d="M 410.253135 68.814682 
L 411.477385 69.126921 
" style="fill: none; stroke: #000000; stroke-width: 0.8; stroke-linecap: square"/>
    </g>
    <g id="text_30">
     <!-- 12 -->
     <g transform="translate(423.192304 74.144787)scale(0.1 -0.1)">
      <use xlink:href="#DejaVuSans-31"/>
      <use xlink:href="#DejaVuSans-32" x="63.623047"/>
     </g>
    </g>
   </g>
  </g>
  <g id="axes_3">
   <g id="Path3DCollection_7">
    <defs>
     <path id="mb52bc215f6" d="M -2.236068 2.236068 
L 2.236068 -2.236068 
M -2.236068 -2.236068 
L 2.236068 2.236068 
" style="stroke: #1a0000; stroke-width: 1.5"/>
    </defs>
    <g clip-path="url(#p6b4d69ca19)">
     <use xlink:href="#mb52bc215f6" x="351.145674" y="84.947889" style="fill: #1a0000; stroke: #1a0000; stroke-width: 1.5"/>
    </g>
   </g>
   <g id="text_31">
    <!-- GreenBox -->
    <g transform="translate(341.515848 42.274286)scale(0.12 -0.12)">
     <defs>
      <path id="DejaVuSans-47" d="M 3809 666 
L 3809 1919 
L 2778 1919 
L 2778 2438 
L 4434 2438 
L 4434 434 
Q 4069 175 3628 42 
Q 3188 -91 2688 -91 
Q 1594 -91 976 548 
Q 359 1188 359 2328 
Q 359 3472 976 4111 
Q 1594 4750 2688 4750 
Q 3144 4750 3555 4637 
Q 3966 4525 4313 4306 
L 4313 3634 
Q 3963 3931 3569 4081 
Q 3175 4231 2741 4231 
Q 1884 4231 1454 3753 
Q 1025 3275 1025 2328 
Q 1025 1384 1454 906 
Q 1884 428 2741 428 
Q 3075 428 3337 486 
Q 3600 544 3809 666 
z
" transform="scale(0.015625)"/>
      <path id="DejaVuSans-72" d="M 2631 2963 
Q 2534 3019 2420 3045 
Q 2306 3072 2169 3072 
Q 1681 3072 1420 2755 
Q 1159 2438 1159 1844 
L 1159 0 
L 581 0 
L 581 3500 
L 1159 3500 
L 1159 2956 
Q 1341 3275 1631 3429 
Q 1922 3584 2338 3584 
Q 2397 3584 2469 3576 
Q 2541 3569 2628 3553 
L 2631 2963 
z
" transform="scale(0.015625)"/>
     </defs>
     <use xlink:href="#DejaVuSans-47"/>
     <use xlink:href="#DejaVuSans-72" x="77.490234"/>
     <use xlink:href="#DejaVuSans-65" x="116.353516"/>
     <use xlink:href="#DejaVuSans-65" x="177.876953"/>
     <use xlink:href="#DejaVuSans-6e" x="239.400391"/>
     <use xlink:href="#DejaVuSans-42" x="302.779297"/>
     <use xlink:href="#DejaVuSans-6f" x="371.382812"/>
     <use xlink:href="#DejaVuSans-78" x="429.439453"/>
    </g>
   </g>
   <g id="Path3DCollection_8">
    <g clip-path="url(#p6b4d69ca19)">
     <use xlink:href="#mb52bc215f6" x="372.020386" y="90.9739" style="fill: #1a0000; stroke: #1a0000; stroke-width: 1.5"/>
    </g>
   </g>
   <g id="Path3DCollection_9">
    <g clip-path="url(#p6b4d69ca19)">
     <use xlink:href="#mb52bc215f6" x="393.855828" y="97.277249" style="fill: #1a0000; stroke: #1a0000; stroke-width: 1.5"/>
    </g>
   </g>
  </g>
  <g id="patch_14">
   <path d="M 46.08 297.325714 
L 133.851429 297.325714 
L 133.851429 209.554286 
L 46.08 209.554286 
z
" style="fill: #ffffff"/>
  </g>
  <g id="pane3d_10">
   <g id="patch_15">
    <path d="M 52.707348 275.684093 
L 81.69234 251.388298 
L 81.289421 216.349418 
L 50.917348 238.513574 
" style="fill: #f2f2f2; opacity: 0.5; stroke: #f2f2f2; stroke-linejoin: miter"/>
   </g>
  </g>
  <g id="pane3d_11">
   <g id="patch_16">
    <path d="M 81.69234 251.388298 
L 128.202911 264.907084 
L 129.862709 228.66133 
L 81.289421 216.349418 
" style="fill: #e6e6e6; opacity: 0.5; stroke: #e6e6e6; stroke-linejoin: miter"/>
   </g>
  </g>
  <g id="pane3d_12">
   <g id="patch_17">
    <path d="M 52.707348 275.684093 
L 102.010825 291.786608 
L 128.202911 264.907084 
L 81.69234 251.388298 
" style="fill: #ececec; opacity: 0.5; stroke: #ececec; stroke-linejoin: miter"/>
   </g>
  </g>
  <g id="axis3d_10">
   <g id="line2d_29">
    <path d="M 52.707348 275.684093 
L 102.010825 291.786608 
" style="fill: none; stroke: #000000; stroke-width: 0.8; stroke-linecap: square"/>
   </g>
   <g id="text_32">
    <!-- x [m] -->
    <g style="fill: #ff0000" transform="translate(62.597588 286.372317)rotate(-341.912962)scale(0.09 -0.09)">
     <use xlink:href="#DejaVuSans-78"/>
     <use xlink:href="#DejaVuSans-20" x="59.179688"/>
     <use xlink:href="#DejaVuSans-5b" x="90.966797"/>
     <use xlink:href="#DejaVuSans-6d" x="129.980469"/>
     <use xlink:href="#DejaVuSans-5d" x="227.392578"/>
    </g>
   </g>
   <g id="Line3DCollection_10">
    <path d="M 58.642606 277.622548 
L 87.313163 253.022049 
L 87.148638 217.834558 
" style="fill: none; stroke: #b0b0b0; stroke-width: 0.8"/>
    <path d="M 98.479033 290.633125 
L 124.884815 263.942645 
L 126.390658 227.781267 
" style="fill: none; stroke: #b0b0b0; stroke-width: 0.8"/>
   </g>
   <g id="xtick_20">
    <g id="line2d_30">
     <path d="M 58.892333 277.408272 
L 58.142077 278.052022 
" style="fill: none; stroke: #000000; stroke-width: 0.8; stroke-linecap: square"/>
    </g>
    <g id="text_33">
     <!-- −200 -->
     <g transform="translate(37.33149 301.113931)scale(0.1 -0.1)">
      <use xlink:href="#DejaVuSans-2212"/>
      <use xlink:href="#DejaVuSans-32" x="83.789062"/>
      <use xlink:href="#DejaVuSans-30" x="147.412109"/>
      <use xlink:href="#DejaVuSans-30" x="211.035156"/>
     </g>
    </g>
   </g>
   <g id="xtick_21">
    <g id="line2d_31">
     <path d="M 98.709848 290.399821 
L 98.016366 291.10078 
" style="fill: none; stroke: #000000; stroke-width: 0.8; stroke-linecap: square"/>
    </g>
    <g id="text_34">
     <!-- 0 -->
     <g transform="translate(87.860759 314.978374)scale(0.1 -0.1)">
      <use xlink:href="#DejaVuSans-30"/>
     </g>
    </g>
   </g>
  </g>
  <g id="axis3d_11">
   <g id="line2d_32">
    <path d="M 128.202911 264.907084 
L 102.010825 291.786608 
" style="fill: none; stroke: #000000; stroke-width: 0.8; stroke-linecap: square"/>
   </g>
   <g id="text_35">
    <!-- y [m] -->
    <g style="fill: #ff0000" transform="translate(112.339434 291.422818)rotate(-45.742112)scale(0.09 -0.09)">
     <use xlink:href="#DejaVuSans-79"/>
     <use xlink:href="#DejaVuSans-20" x="59.179688"/>
     <use xlink:href="#DejaVuSans-5b" x="90.966797"/>
     <use xlink:href="#DejaVuSans-6d" x="129.980469"/>
     <use xlink:href="#DejaVuSans-5d" x="227.392578"/>
    </g>
   </g>
   <g id="Line3DCollection_11">
    <path d="M 53.763067 236.436897 
L 55.413773 273.415514 
L 104.466274 289.266713 
" style="fill: none; stroke: #b0b0b0; stroke-width: 0.8"/>
    <path d="M 76.933621 219.528082 
L 77.521929 254.884019 
L 124.44857 268.759962 
" style="fill: none; stroke: #b0b0b0; stroke-width: 0.8"/>
   </g>
   <g id="xtick_22">
    <g id="line2d_33">
     <path d="M 104.052951 289.133149 
L 105.293986 289.534186 
" style="fill: none; stroke: #000000; stroke-width: 0.8; stroke-linecap: square"/>
    </g>
    <g id="text_36">
     <!-- 0 -->
     <g transform="translate(114.155147 310.275076)scale(0.1 -0.1)">
      <use xlink:href="#DejaVuSans-30"/>
     </g>
    </g>
   </g>
   <g id="xtick_23">
    <g id="line2d_34">
     <path d="M 124.054478 268.643431 
L 125.237702 268.993304 
" style="fill: none; stroke: #000000; stroke-width: 0.8; stroke-linecap: square"/>
    </g>
    <g id="text_37">
     <!-- 10 -->
     <g transform="translate(130.139783 288.847669)scale(0.1 -0.1)">
      <use xlink:href="#DejaVuSans-31"/>
      <use xlink:href="#DejaVuSans-30" x="63.623047"/>
     </g>
    </g>
   </g>
  </g>
  <g id="axis3d_12">
   <g id="line2d_35">
    <path d="M 128.202911 264.907084 
L 129.862709 228.66133 
" style="fill: none; stroke: #000000; stroke-width: 0.8; stroke-linecap: square"/>
   </g>
   <g id="text_38">
    <!-- z [m] -->
    <g style="fill: #ff0000" transform="translate(135.8265 258.317384)rotate(-87.378092)scale(0.09 -0.09)">
     <use xlink:href="#DejaVuSans-7a"/>
     <use xlink:href="#DejaVuSans-20" x="52.490234"/>
     <use xlink:href="#DejaVuSans-5b" x="84.277344"/>
     <use xlink:href="#DejaVuSans-6d" x="123.291016"/>
     <use xlink:href="#DejaVuSans-5d" x="220.703125"/>
    </g>
   </g>
   <g id="Line3DCollection_12">
    <path d="M 128.680886 254.469333 
L 81.576137 241.282919 
L 52.192497 264.992882 
" style="fill: none; stroke: #b0b0b0; stroke-width: 0.8"/>
    <path d="M 129.354361 239.762368 
L 81.412643 227.065114 
L 51.466215 249.911161 
" style="fill: none; stroke: #b0b0b0; stroke-width: 0.8"/>
   </g>
   <g id="xtick_24">
    <g id="line2d_36">
     <path d="M 128.285309 254.358596 
L 129.472993 254.691074 
" style="fill: none; stroke: #000000; stroke-width: 0.8; stroke-linecap: square"/>
    </g>
    <g id="text_39">
     <!-- 21 -->
     <g transform="translate(140.684002 259.540963)scale(0.1 -0.1)">
      <use xlink:href="#DejaVuSans-32"/>
      <use xlink:href="#DejaVuSans-31" x="63.623047"/>
     </g>
    </g>
   </g>
   <g id="xtick_25">
    <g id="line2d_37">
     <path d="M 128.951413 239.655648 
L 130.161245 239.976069 
" style="fill: none; stroke: #000000; stroke-width: 0.8; stroke-linecap: square"/>
    </g>
    <g id="text_40">
     <!-- 22 -->
     <g transform="translate(141.677714 244.926046)scale(0.1 -0.1)">
      <use xlink:href="#DejaVuSans-32"/>
      <use xlink:href="#DejaVuSans-32" x="63.623047"/>
     </g>
    </g>
   </g>
  </g>
  <g id="axes_4">
   <g id="Path3DCollection_10">
    <g clip-path="url(#p1315f21b05)">
     <use xlink:href="#m38ddb78299" x="82.652963" y="236.394826" style="fill: #1a0000; stroke: #1a0000"/>
    </g>
   </g>
   <g id="text_41">
    <!-- BlueBox -->
    <g transform="translate(65.536339 203.554286)scale(0.12 -0.12)">
     <defs>
      <path id="DejaVuSans-75" d="M 544 1381 
L 544 3500 
L 1119 3500 
L 1119 1403 
Q 1119 906 1312 657 
Q 1506 409 1894 409 
Q 2359 409 2629 706 
Q 2900 1003 2900 1516 
L 2900 3500 
L 3475 3500 
L 3475 0 
L 2900 0 
L 2900 538 
Q 2691 219 2414 64 
Q 2138 -91 1772 -91 
Q 1169 -91 856 284 
Q 544 659 544 1381 
z
M 1991 3584 
L 1991 3584 
z
" transform="scale(0.015625)"/>
     </defs>
     <use xlink:href="#DejaVuSans-42"/>
     <use xlink:href="#DejaVuSans-6c" x="68.603516"/>
     <use xlink:href="#DejaVuSans-75" x="96.386719"/>
     <use xlink:href="#DejaVuSans-65" x="159.765625"/>
     <use xlink:href="#DejaVuSans-42" x="221.289062"/>
     <use xlink:href="#DejaVuSans-6f" x="289.892578"/>
     <use xlink:href="#DejaVuSans-78" x="347.949219"/>
    </g>
   </g>
   <g id="Path3DCollection_11">
    <g clip-path="url(#p1315f21b05)">
     <use xlink:href="#m38ddb78299" x="121.413735" y="250.538174" style="fill: #1a0000; stroke: #1a0000"/>
    </g>
   </g>
   <g id="Path3DCollection_12">
    <g clip-path="url(#p1315f21b05)">
     <use xlink:href="#m38ddb78299" x="78.447047" y="263.394601" style="fill: #1a0000; stroke: #1a0000"/>
    </g>
   </g>
  </g>
  <g id="patch_18">
   <path d="M 186.514286 297.325714 
L 274.285714 297.325714 
L 274.285714 209.554286 
L 186.514286 209.554286 
z
" style="fill: #ffffff"/>
  </g>
  <g id="pane3d_13">
   <g id="patch_19">
    <path d="M 193.141634 275.684093 
L 222.126626 251.388298 
L 221.723707 216.349418 
L 191.351633 238.513574 
" style="fill: #f2f2f2; opacity: 0.5; stroke: #f2f2f2; stroke-linejoin: miter"/>
   </g>
  </g>
  <g id="pane3d_14">
   <g id="patch_20">
    <path d="M 222.126626 251.388298 
L 268.637197 264.907084 
L 270.296995 228.66133 
L 221.723707 216.349418 
" style="fill: #e6e6e6; opacity: 0.5; stroke: #e6e6e6; stroke-linejoin: miter"/>
   </g>
  </g>
  <g id="pane3d_15">
   <g id="patch_21">
    <path d="M 193.141634 275.684093 
L 242.44511 291.786608 
L 268.637197 264.907084 
L 222.126626 251.388298 
" style="fill: #ececec; opacity: 0.5; stroke: #ececec; stroke-linejoin: miter"/>
   </g>
  </g>
  <g id="axis3d_13">
   <g id="line2d_38">
    <path d="M 193.141634 275.684093 
L 242.44511 291.786608 
" style="fill: none; stroke: #000000; stroke-width: 0.8; stroke-linecap: square"/>
   </g>
   <g id="text_42">
    <!-- x [cm] -->
    <g style="fill: #ff0000" transform="translate(200.679842 285.604143)rotate(-341.912962)scale(0.09 -0.09)">
     <use xlink:href="#DejaVuSans-78"/>
     <use xlink:href="#DejaVuSans-20" x="59.179688"/>
     <use xlink:href="#DejaVuSans-5b" x="90.966797"/>
     <use xlink:href="#DejaVuSans-63" x="129.980469"/>
     <use xlink:href="#DejaVuSans-6d" x="184.960938"/>
     <use xlink:href="#DejaVuSans-5d" x="282.373047"/>
    </g>
   </g>
   <g id="Line3DCollection_13">
    <path d="M 201.095127 278.281704 
L 229.657399 253.577196 
L 229.574561 218.33938 
" style="fill: none; stroke: #b0b0b0; stroke-width: 0.8"/>
    <path d="M 234.48889 289.188107 
L 261.159422 262.73359 
L 262.47374 226.678363 
" style="fill: none; stroke: #b0b0b0; stroke-width: 0.8"/>
   </g>
   <g id="xtick_26">
    <g id="line2d_39">
     <path d="M 201.343955 278.066483 
L 200.596396 278.713073 
" style="fill: none; stroke: #000000; stroke-width: 0.8; stroke-linecap: square"/>
    </g>
    <g id="text_43">
     <!-- −100 -->
     <g transform="translate(179.790177 301.816016)scale(0.1 -0.1)">
      <use xlink:href="#DejaVuSans-2212"/>
      <use xlink:href="#DejaVuSans-31" x="83.789062"/>
      <use xlink:href="#DejaVuSans-30" x="147.412109"/>
      <use xlink:href="#DejaVuSans-30" x="211.035156"/>
     </g>
    </g>
   </g>
   <g id="xtick_27">
    <g id="line2d_40">
     <path d="M 234.721928 288.956956 
L 234.021772 289.651441 
" style="fill: none; stroke: #000000; stroke-width: 0.8; stroke-linecap: square"/>
    </g>
    <g id="text_44">
     <!-- 0 -->
     <g transform="translate(223.853056 313.437843)scale(0.1 -0.1)">
      <use xlink:href="#DejaVuSans-30"/>
     </g>
    </g>
   </g>
  </g>
  <g id="axis3d_14">
   <g id="line2d_41">
    <path d="M 268.637197 264.907084 
L 242.44511 291.786608 
" style="fill: none; stroke: #000000; stroke-width: 0.8; stroke-linecap: square"/>
   </g>
   <g id="text_45">
    <!-- y [cm] -->
    <g style="fill: #ff0000" transform="translate(251.046935 293.194923)rotate(-45.742112)scale(0.09 -0.09)">
     <use xlink:href="#DejaVuSans-79"/>
     <use xlink:href="#DejaVuSans-20" x="59.179688"/>
     <use xlink:href="#DejaVuSans-5b" x="90.966797"/>
     <use xlink:href="#DejaVuSans-63" x="129.980469"/>
     <use xlink:href="#DejaVuSans-6d" x="184.960938"/>
     <use xlink:href="#DejaVuSans-5d" x="282.373047"/>
    </g>
   </g>
   <g id="Line3DCollection_14">
    <path d="M 194.197353 236.436897 
L 195.848059 273.415514 
L 244.90056 289.266713 
" style="fill: none; stroke: #b0b0b0; stroke-width: 0.8"/>
    <path d="M 217.367907 219.528082 
L 217.956215 254.884019 
L 264.882855 268.759962 
" style="fill: none; stroke: #b0b0b0; stroke-width: 0.8"/>
   </g>
   <g id="xtick_28">
    <g id="line2d_42">
     <path d="M 244.487237 289.133149 
L 245.728271 289.534186 
" style="fill: none; stroke: #000000; stroke-width: 0.8; stroke-linecap: square"/>
    </g>
    <g id="text_46">
     <!-- −100 -->
     <g transform="translate(244.037089 310.275076)scale(0.1 -0.1)">
      <use xlink:href="#DejaVuSans-2212"/>
      <use xlink:href="#DejaVuSans-31" x="83.789062"/>
      <use xlink:href="#DejaVuSans-30" x="147.412109"/>
      <use xlink:href="#DejaVuSans-30" x="211.035156"/>
     </g>
    </g>
   </g>
   <g id="xtick_29">
    <g id="line2d_43">
     <path d="M 264.488764 268.643431 
L 265.671988 268.993304 
" style="fill: none; stroke: #000000; stroke-width: 0.8; stroke-linecap: square"/>
    </g>
    <g id="text_47">
     <!-- −90 -->
     <g transform="translate(266.384225 288.847669)scale(0.1 -0.1)">
      <use xlink:href="#DejaVuSans-2212"/>
      <use xlink:href="#DejaVuSans-39" x="83.789062"/>
      <use xlink:href="#DejaVuSans-30" x="147.412109"/>
     </g>
    </g>
   </g>
  </g>
  <g id="axis3d_15">
   <g id="line2d_44">
    <path d="M 268.637197 264.907084 
L 270.296995 228.66133 
" style="fill: none; stroke: #000000; stroke-width: 0.8; stroke-linecap: square"/>
   </g>
   <g id="text_48">
    <!-- z [cm] -->
    <g style="fill: #ff0000" transform="translate(276.147599 260.78909)rotate(-87.378092)scale(0.09 -0.09)">
     <use xlink:href="#DejaVuSans-7a"/>
     <use xlink:href="#DejaVuSans-20" x="52.490234"/>
     <use xlink:href="#DejaVuSans-5b" x="84.277344"/>
     <use xlink:href="#DejaVuSans-63" x="123.291016"/>
     <use xlink:href="#DejaVuSans-6d" x="178.271484"/>
     <use xlink:href="#DejaVuSans-5d" x="275.683594"/>
    </g>
   </g>
   <g id="Line3DCollection_15">
    <path d="M 269.152723 253.649314 
L 222.001299 240.489532 
L 192.586314 264.152511 
" style="fill: none; stroke: #b0b0b0; stroke-width: 0.8"/>
    <path d="M 269.902064 237.285611 
L 221.819423 224.673131 
L 191.778092 247.369262 
" style="fill: none; stroke: #b0b0b0; stroke-width: 0.8"/>
   </g>
   <g id="xtick_30">
    <g id="line2d_45">
     <path d="M 268.756735 253.538796 
L 269.945653 253.870618 
" style="fill: none; stroke: #000000; stroke-width: 0.8; stroke-linecap: square"/>
    </g>
    <g id="text_49">
     <!-- 95 -->
     <g transform="translate(281.173703 258.72595)scale(0.1 -0.1)">
      <use xlink:href="#DejaVuSans-39"/>
      <use xlink:href="#DejaVuSans-35" x="63.623047"/>
     </g>
    </g>
   </g>
   <g id="xtick_31">
    <g id="line2d_46">
     <path d="M 269.497874 237.179589 
L 270.711439 237.497917 
" style="fill: none; stroke: #000000; stroke-width: 0.8; stroke-linecap: square"/>
    </g>
    <g id="text_50">
     <!-- 100 -->
     <g transform="translate(279.098065 242.465264)scale(0.1 -0.1)">
      <use xlink:href="#DejaVuSans-31"/>
      <use xlink:href="#DejaVuSans-30" x="63.623047"/>
      <use xlink:href="#DejaVuSans-30" x="127.246094"/>
     </g>
    </g>
   </g>
  </g>
  <g id="axes_5">
   <g id="Path3DCollection_13">
    <g clip-path="url(#pa578d0cc7e)">
     <use xlink:href="#m38ddb78299" x="223.087248" y="236.394826" style="fill: #1a0000; stroke: #1a0000"/>
    </g>
   </g>
   <g id="text_51">
    <!-- base_link -->
    <g transform="translate(202.485938 203.554286)scale(0.12 -0.12)">
     <defs>
      <path id="DejaVuSans-62" d="M 3116 1747 
Q 3116 2381 2855 2742 
Q 2594 3103 2138 3103 
Q 1681 3103 1420 2742 
Q 1159 2381 1159 1747 
Q 1159 1113 1420 752 
Q 1681 391 2138 391 
Q 2594 391 2855 752 
Q 3116 1113 3116 1747 
z
M 1159 2969 
Q 1341 3281 1617 3432 
Q 1894 3584 2278 3584 
Q 2916 3584 3314 3078 
Q 3713 2572 3713 1747 
Q 3713 922 3314 415 
Q 2916 -91 2278 -91 
Q 1894 -91 1617 61 
Q 1341 213 1159 525 
L 1159 0 
L 581 0 
L 581 4863 
L 1159 4863 
L 1159 2969 
z
" transform="scale(0.015625)"/>
      <path id="DejaVuSans-61" d="M 2194 1759 
Q 1497 1759 1228 1600 
Q 959 1441 959 1056 
Q 959 750 1161 570 
Q 1363 391 1709 391 
Q 2188 391 2477 730 
Q 2766 1069 2766 1631 
L 2766 1759 
L 2194 1759 
z
M 3341 1997 
L 3341 0 
L 2766 0 
L 2766 531 
Q 2569 213 2275 61 
Q 1981 -91 1556 -91 
Q 1019 -91 701 211 
Q 384 513 384 1019 
Q 384 1609 779 1909 
Q 1175 2209 1959 2209 
L 2766 2209 
L 2766 2266 
Q 2766 2663 2505 2880 
Q 2244 3097 1772 3097 
Q 1472 3097 1187 3025 
Q 903 2953 641 2809 
L 641 3341 
Q 956 3463 1253 3523 
Q 1550 3584 1831 3584 
Q 2591 3584 2966 3190 
Q 3341 2797 3341 1997 
z
" transform="scale(0.015625)"/>
      <path id="DejaVuSans-73" d="M 2834 3397 
L 2834 2853 
Q 2591 2978 2328 3040 
Q 2066 3103 1784 3103 
Q 1356 3103 1142 2972 
Q 928 2841 928 2578 
Q 928 2378 1081 2264 
Q 1234 2150 1697 2047 
L 1894 2003 
Q 2506 1872 2764 1633 
Q 3022 1394 3022 966 
Q 3022 478 2636 193 
Q 2250 -91 1575 -91 
Q 1294 -91 989 -36 
Q 684 19 347 128 
L 347 722 
Q 666 556 975 473 
Q 1284 391 1588 391 
Q 1994 391 2212 530 
Q 2431 669 2431 922 
Q 2431 1156 2273 1281 
Q 2116 1406 1581 1522 
L 1381 1569 
Q 847 1681 609 1914 
Q 372 2147 372 2553 
Q 372 3047 722 3315 
Q 1072 3584 1716 3584 
Q 2034 3584 2315 3537 
Q 2597 3491 2834 3397 
z
" transform="scale(0.015625)"/>
      <path id="DejaVuSans-5f" d="M 3263 -1063 
L 3263 -1509 
L -63 -1509 
L -63 -1063 
L 3263 -1063 
z
" transform="scale(0.015625)"/>
      <path id="DejaVuSans-6b" d="M 581 4863 
L 1159 4863 
L 1159 1991 
L 2875 3500 
L 3609 3500 
L 1753 1863 
L 3688 0 
L 2938 0 
L 1159 1709 
L 1159 0 
L 581 0 
L 581 4863 
z
" transform="scale(0.015625)"/>
     </defs>
     <use xlink:href="#DejaVuSans-62"/>
     <use xlink:href="#DejaVuSans-61" x="63.476562"/>
     <use xlink:href="#DejaVuSans-73" x="124.755859"/>
     <use xlink:href="#DejaVuSans-65" x="176.855469"/>
     <use xlink:href="#DejaVuSans-5f" x="238.378906"/>
     <use xlink:href="#DejaVuSans-6c" x="288.378906"/>
     <use xlink:href="#DejaVuSans-69" x="316.162109"/>
     <use xlink:href="#DejaVuSans-6e" x="343.945312"/>
     <use xlink:href="#DejaVuSans-6b" x="407.324219"/>
    </g>
   </g>
   <g id="Path3DCollection_14">
    <g clip-path="url(#pa578d0cc7e)">
     <use xlink:href="#m38ddb78299" x="261.848021" y="250.538174" style="fill: #1a0000; stroke: #1a0000"/>
    </g>
   </g>
   <g id="Path3DCollection_15">
    <g clip-path="url(#pa578d0cc7e)">
     <use xlink:href="#m38ddb78299" x="200.252882" y="257.722369" style="fill: #1a0000; stroke: #1a0000"/>
    </g>
   </g>
  </g>
  <g id="text_52">
   <!-- Action group 0: pick(['GreenBox']) -->
   <g transform="translate(128.39625 16.030125)scale(0.12 -0.12)">
    <defs>
     <path id="DejaVuSans-41" d="M 2188 4044 
L 1331 1722 
L 3047 1722 
L 2188 4044 
z
M 1831 4666 
L 2547 4666 
L 4325 0 
L 3669 0 
L 3244 1197 
L 1141 1197 
L 716 0 
L 50 0 
L 1831 4666 
z
" transform="scale(0.015625)"/>
     <path id="DejaVuSans-70" d="M 1159 525 
L 1159 -1331 
L 581 -1331 
L 581 3500 
L 1159 3500 
L 1159 2969 
Q 1341 3281 1617 3432 
Q 1894 3584 2278 3584 
Q 2916 3584 3314 3078 
Q 3713 2572 3713 1747 
Q 3713 922 3314 415 
Q 2916 -91 2278 -91 
Q 1894 -91 1617 61 
Q 1341 213 1159 525 
z
M 3116 1747 
Q 3116 2381 2855 2742 
Q 2594 3103 2138 3103 
Q 1681 3103 1420 2742 
Q 1159 2381 1159 1747 
Q 1159 1113 1420 752 
Q 1681 391 2138 391 
Q 2594 391 2855 752 
Q 3116 1113 3116 1747 
z
" transform="scale(0.015625)"/>
     <path id="DejaVuSans-3a" d="M 750 794 
L 1409 794 
L 1409 0 
L 750 0 
L 750 794 
z
M 750 3309 
L 1409 3309 
L 1409 2516 
L 750 2516 
L 750 3309 
z
" transform="scale(0.015625)"/>
     <path id="DejaVuSans-28" d="M 1984 4856 
Q 1566 4138 1362 3434 
Q 1159 2731 1159 2009 
Q 1159 1288 1364 580 
Q 1569 -128 1984 -844 
L 1484 -844 
Q 1016 -109 783 600 
Q 550 1309 550 2009 
Q 550 2706 781 3412 
Q 1013 4119 1484 4856 
L 1984 4856 
z
" transform="scale(0.015625)"/>
     <path id="DejaVuSans-27" d="M 1147 4666 
L 1147 2931 
L 616 2931 
L 616 4666 
L 1147 4666 
z
" transform="scale(0.015625)"/>
     <path id="DejaVuSans-29" d="M 513 4856 
L 1013 4856 
Q 1481 4119 1714 3412 
Q 1947 2706 1947 2009 
Q 1947 1309 1714 600 
Q 1481 -109 1013 -844 
L 513 -844 
Q 928 -128 1133 580 
Q 1338 1288 1338 2009 
Q 1338 2731 1133 3434 
Q 928 4138 513 4856 
z
" transform="scale(0.015625)"/>
    </defs>
    <use xlink:href="#DejaVuSans-41"/>
    <use xlink:href="#DejaVuSans-63" x="66.658203"/>
    <use xlink:href="#DejaVuSans-74" x="121.638672"/>
    <use xlink:href="#DejaVuSans-69" x="160.847656"/>
    <use xlink:href="#DejaVuSans-6f" x="188.630859"/>
    <use xlink:href="#DejaVuSans-6e" x="249.8125"/>
    <use xlink:href="#DejaVuSans-20" x="313.191406"/>
    <use xlink:href="#DejaVuSans-67" x="344.978516"/>
    <use xlink:href="#DejaVuSans-72" x="408.455078"/>
    <use xlink:href="#DejaVuSans-6f" x="447.318359"/>
    <use xlink:href="#DejaVuSans-75" x="508.5"/>
    <use xlink:href="#DejaVuSans-70" x="571.878906"/>
    <use xlink:href="#DejaVuSans-20" x="635.355469"/>
    <use xlink:href="#DejaVuSans-30" x="667.142578"/>
    <use xlink:href="#DejaVuSans-3a" x="730.765625"/>
    <use xlink:href="#DejaVuSans-20" x="764.457031"/>
    <use xlink:href="#DejaVuSans-70" x="796.244141"/>
    <use xlink:href="#DejaVuSans-69" x="859.720703"/>
    <use xlink:href="#DejaVuSans-63" x="887.503906"/>
    <use xlink:href="#DejaVuSans-6b" x="942.484375"/>
    <use xlink:href="#DejaVuSans-28" x="1000.394531"/>
    <use xlink:href="#DejaVuSans-5b" x="1039.408203"/>
    <use xlink:href="#DejaVuSans-27" x="1078.421875"/>
    <use xlink:href="#DejaVuSans-47" x="1105.912109"/>
    <use xlink:href="#DejaVuSans-72" x="1183.402344"/>
    <use xlink:href="#DejaVuSans-65" x="1222.265625"/>
    <use xlink:href="#DejaVuSans-65" x="1283.789062"/>
    <use xlink:href="#DejaVuSans-6e" x="1345.3125"/>
    <use xlink:href="#DejaVuSans-42" x="1408.691406"/>
    <use xlink:href="#DejaVuSans-6f" x="1477.294922"/>
    <use xlink:href="#DejaVuSans-78" x="1535.351562"/>
    <use xlink:href="#DejaVuSans-27" x="1594.53125"/>
    <use xlink:href="#DejaVuSans-5d" x="1622.021484"/>
    <use xlink:href="#DejaVuSans-29" x="1661.035156"/>
   </g>
  </g>
 </g>
 <defs>
  <clipPath id="pd82a2fbb53">
   <rect x="46.08" y="48.274286" width="87.771429" height="87.771429"/>
  </clipPath>
  <clipPath id="p6102cfa504">
   <rect x="186.514286" y="48.274286" width="87.771429" height="87.771429"/>
  </clipPath>
  <clipPath id="p6b4d69ca19">
   <rect x="326.948571" y="48.274286" width="87.771429" height="87.771429"/>
  </clipPath>
  <clipPath id="p1315f21b05">
   <rect x="46.08" y="209.554286" width="87.771429" height="87.771429"/>
  </clipPath>
  <clipPath id="pa578d0cc7e">
   <rect x="186.514286" y="209.554286" width="87.771429" height="87.771429"/>
  </clipPath>
 </defs>
</svg>
