<?xml version="1.0" encoding="UTF-8" standalone="no"?>
<!DOCTYPE svg PUBLIC "-//W3C//DTD SVG 1.1//EN"
 "http://www.w3.org/Graphics/SVG/1.1/DTD/svg11.dtd">
<!-- Generated by graphviz version 2.43.0 (0)
 -->
<!-- Title: pastafarianism Pages: 1 -->
<svg width="1453pt" height="476pt"
 viewBox="0.00 0.00 1453.26 476.00" xmlns="http://www.w3.org/2000/svg" xmlns:xlink="http://www.w3.org/1999/xlink">
<g id="graph0" class="graph" transform="scale(1 1) rotate(0) translate(4 472)">
<title>pastafarianism</title>
<polygon fill="white" stroke="transparent" points="-4,4 -4,-472 1449.26,-472 1449.26,4 -4,4"/>
<!-- Sequence -->
<g id="node1" class="node">
<title>Sequence</title>
<polygon fill="orange" stroke="black" points="687.5,-468 625.5,-468 625.5,-432 687.5,-432 687.5,-468"/>
<text text-anchor="middle" x="656.5" y="-447.8" font-family="Times,serif" font-size="9.00">Sequence</text>
</g>
<!-- Fallback -->
<g id="node2" class="node">
<title>Fallback</title>
<polygon fill="cyan" stroke="black" points="405.49,-370.54 405.49,-385.46 385,-396 356.01,-396 335.51,-385.46 335.51,-370.54 356.01,-360 385,-360 405.49,-370.54"/>
<text text-anchor="middle" x="370.5" y="-375.8" font-family="Times,serif" font-size="9.00">Fallback</text>
</g>
<!-- Sequence&#45;&gt;Fallback -->
<g id="edge1" class="edge">
<title>Sequence&#45;&gt;Fallback</title>
<path fill="none" stroke="black" d="M625.35,-441.38C573.86,-428.77 470.94,-403.58 412.88,-389.37"/>
<polygon fill="black" stroke="black" points="413.48,-385.91 402.93,-386.94 411.81,-392.71 413.48,-385.91"/>
</g>
<!-- Fallback &#160;&#160; -->
<g id="node13" class="node">
<title>Fallback &#160;&#160;</title>
<polygon fill="cyan" stroke="black" points="691.49,-370.54 691.49,-385.46 671,-396 642.01,-396 621.51,-385.46 621.51,-370.54 642.01,-360 671,-360 691.49,-370.54"/>
<text text-anchor="middle" x="656.5" y="-375.8" font-family="Times,serif" font-size="9.00">Fallback</text>
</g>
<!-- Sequence&#45;&gt;Fallback &#160;&#160; -->
<g id="edge12" class="edge">
<title>Sequence&#45;&gt;Fallback &#160;&#160;</title>
<path fill="none" stroke="black" d="M656.5,-431.7C656.5,-423.98 656.5,-414.71 656.5,-406.11"/>
<polygon fill="black" stroke="black" points="660,-406.1 656.5,-396.1 653,-406.1 660,-406.1"/>
</g>
<!-- Fallback &#160;&#160;&#160;&#160;&#160; -->
<g id="node24" class="node">
<title>Fallback &#160;&#160;&#160;&#160;&#160;</title>
<polygon fill="cyan" stroke="black" points="986.49,-370.54 986.49,-385.46 966,-396 937.01,-396 916.51,-385.46 916.51,-370.54 937.01,-360 966,-360 986.49,-370.54"/>
<text text-anchor="middle" x="951.5" y="-375.8" font-family="Times,serif" font-size="9.00">Fallback</text>
</g>
<!-- Sequence&#45;&gt;Fallback &#160;&#160;&#160;&#160;&#160; -->
<g id="edge23" class="edge">
<title>Sequence&#45;&gt;Fallback &#160;&#160;&#160;&#160;&#160;</title>
<path fill="none" stroke="black" d="M687.52,-441.64C740.52,-429.06 848.6,-403.42 908.73,-389.15"/>
<polygon fill="black" stroke="black" points="909.75,-392.51 918.67,-386.79 908.13,-385.69 909.75,-392.51"/>
</g>
<!-- object_at GreenBox [0.0, &#45;0.133, 0.175] 0.02 KittingBox -->
<g id="node3" class="node">
<title>object_at GreenBox [0.0, &#45;0.133, 0.175] 0.02 KittingBox</title>
<ellipse fill="lightgray" stroke="black" cx="160.5" cy="-306" rx="160.51" ry="18"/>
<text text-anchor="middle" x="160.5" y="-303.8" font-family="Times,serif" font-size="9.00">object_at GreenBox [0.0, &#45;0.133, 0.175] 0.02 KittingBox</text>
</g>
<!-- Fallback&#45;&gt;object_at GreenBox [0.0, &#45;0.133, 0.175] 0.02 KittingBox -->
<g id="edge2" class="edge">
<title>Fallback&#45;&gt;object_at GreenBox [0.0, &#45;0.133, 0.175] 0.02 KittingBox</title>
<path fill="none" stroke="black" d="M341.3,-367.27C309.76,-356.75 258.66,-339.72 218.83,-326.44"/>
<polygon fill="black" stroke="black" points="219.81,-323.08 209.22,-323.24 217.6,-329.72 219.81,-323.08"/>
</g>
<!-- Sequence  -->
<g id="node4" class="node">
<title>Sequence </title>
<polygon fill="orange" stroke="black" points="401.5,-324 339.5,-324 339.5,-288 401.5,-288 401.5,-324"/>
<text text-anchor="middle" x="370.5" y="-303.8" font-family="Times,serif" font-size="9.00">Sequence</text>
</g>
<!-- Fallback&#45;&gt;Sequence  -->
<g id="edge3" class="edge">
<title>Fallback&#45;&gt;Sequence </title>
<path fill="none" stroke="black" d="M370.5,-359.7C370.5,-351.98 370.5,-342.71 370.5,-334.11"/>
<polygon fill="black" stroke="black" points="374,-334.1 370.5,-324.1 367,-334.1 374,-334.1"/>
</g>
<!-- Fallback  -->
<g id="node5" class="node">
<title>Fallback </title>
<polygon fill="cyan" stroke="black" points="243.49,-226.54 243.49,-241.46 223,-252 194.01,-252 173.51,-241.46 173.51,-226.54 194.01,-216 223,-216 243.49,-226.54"/>
<text text-anchor="middle" x="208.5" y="-231.8" font-family="Times,serif" font-size="9.00">Fallback</text>
</g>
<!-- Sequence &#45;&gt;Fallback  -->
<g id="edge4" class="edge">
<title>Sequence &#45;&gt;Fallback </title>
<path fill="none" stroke="black" d="M339.27,-291.5C311.93,-279.69 272.23,-262.54 243.76,-250.23"/>
<polygon fill="black" stroke="black" points="245.13,-247.01 234.57,-246.26 242.36,-253.44 245.13,-247.01"/>
</g>
<!-- place0 GreenBox [0.0, &#45;0.133, 0.175] 0.02 KittingBox -->
<g id="node12" class="node">
<title>place0 GreenBox [0.0, &#45;0.133, 0.175] 0.02 KittingBox</title>
<ellipse fill="lightgray" stroke="black" cx="415.5" cy="-234" rx="154.31" ry="18"/>
<text text-anchor="middle" x="415.5" y="-231.8" font-family="Times,serif" font-size="9.00">place0 GreenBox [0.0, &#45;0.133, 0.175] 0.02 KittingBox</text>
</g>
<!-- Sequence &#45;&gt;place0 GreenBox [0.0, &#45;0.133, 0.175] 0.02 KittingBox -->
<g id="edge11" class="edge">
<title>Sequence &#45;&gt;place0 GreenBox [0.0, &#45;0.133, 0.175] 0.02 KittingBox</title>
<path fill="none" stroke="black" d="M381.63,-287.7C386.86,-279.56 393.2,-269.69 398.98,-260.7"/>
<polygon fill="black" stroke="black" points="402.04,-262.41 404.51,-252.1 396.16,-258.62 402.04,-262.41"/>
</g>
<!-- in_gripper GreenBox -->
<g id="node6" class="node">
<title>in_gripper GreenBox</title>
<ellipse fill="lightgray" stroke="black" cx="181.5" cy="-162" rx="65.64" ry="18"/>
<text text-anchor="middle" x="181.5" y="-159.8" font-family="Times,serif" font-size="9.00">in_gripper GreenBox</text>
</g>
<!-- Fallback &#45;&gt;in_gripper GreenBox -->
<g id="edge5" class="edge">
<title>Fallback &#45;&gt;in_gripper GreenBox</title>
<path fill="none" stroke="black" d="M201.83,-215.7C198.79,-207.81 195.12,-198.3 191.74,-189.55"/>
<polygon fill="black" stroke="black" points="194.97,-188.17 188.1,-180.1 188.43,-190.69 194.97,-188.17"/>
</g>
<!-- Sequence &#160; -->
<g id="node7" class="node">
<title>Sequence &#160;</title>
<polygon fill="orange" stroke="black" points="327.5,-180 265.5,-180 265.5,-144 327.5,-144 327.5,-180"/>
<text text-anchor="middle" x="296.5" y="-159.8" font-family="Times,serif" font-size="9.00">Sequence</text>
</g>
<!-- Fallback &#45;&gt;Sequence &#160; -->
<g id="edge6" class="edge">
<title>Fallback &#45;&gt;Sequence &#160;</title>
<path fill="none" stroke="black" d="M227.6,-217.81C239.04,-208.71 253.84,-196.94 266.79,-186.64"/>
<polygon fill="black" stroke="black" points="269.33,-189.09 274.97,-180.13 264.97,-183.61 269.33,-189.09"/>
</g>
<!-- Fallback &#160; -->
<g id="node8" class="node">
<title>Fallback &#160;</title>
<polygon fill="cyan" stroke="black" points="324.49,-82.54 324.49,-97.46 304,-108 275.01,-108 254.51,-97.46 254.51,-82.54 275.01,-72 304,-72 324.49,-82.54"/>
<text text-anchor="middle" x="289.5" y="-87.8" font-family="Times,serif" font-size="9.00">Fallback</text>
</g>
<!-- Sequence &#160;&#45;&gt;Fallback &#160; -->
<g id="edge7" class="edge">
<title>Sequence &#160;&#45;&gt;Fallback &#160;</title>
<path fill="none" stroke="black" d="M294.77,-143.7C294,-135.98 293.07,-126.71 292.21,-118.11"/>
<polygon fill="black" stroke="black" points="295.69,-117.71 291.21,-108.1 288.73,-118.4 295.69,-117.71"/>
</g>
<!-- pick0 GreenBox -->
<g id="node11" class="node">
<title>pick0 GreenBox</title>
<ellipse fill="lightgray" stroke="black" cx="395.5" cy="-90" rx="52.58" ry="18"/>
<text text-anchor="middle" x="395.5" y="-87.8" font-family="Times,serif" font-size="9.00">pick0 GreenBox</text>
</g>
<!-- Sequence &#160;&#45;&gt;pick0 GreenBox -->
<g id="edge10" class="edge">
<title>Sequence &#160;&#45;&gt;pick0 GreenBox</title>
<path fill="none" stroke="black" d="M320.72,-143.88C334.09,-134.42 350.82,-122.59 365.07,-112.52"/>
<polygon fill="black" stroke="black" points="367.42,-115.15 373.56,-106.51 363.38,-109.43 367.42,-115.15"/>
</g>
<!-- gripper_state open -->
<g id="node9" class="node">
<title>gripper_state open</title>
<ellipse fill="lightgray" stroke="black" cx="207.5" cy="-18" rx="60.09" ry="18"/>
<text text-anchor="middle" x="207.5" y="-15.8" font-family="Times,serif" font-size="9.00">gripper_state open</text>
</g>
<!-- Fallback &#160;&#45;&gt;gripper_state open -->
<g id="edge8" class="edge">
<title>Fallback &#160;&#45;&gt;gripper_state open</title>
<path fill="none" stroke="black" d="M271.3,-73.46C260.39,-64.15 246.31,-52.13 234.16,-41.76"/>
<polygon fill="black" stroke="black" points="236.38,-39.05 226.51,-35.22 231.84,-44.38 236.38,-39.05"/>
</g>
<!-- open_gripper -->
<g id="node10" class="node">
<title>open_gripper</title>
<ellipse fill="lightgray" stroke="black" cx="331.5" cy="-18" rx="45.72" ry="18"/>
<text text-anchor="middle" x="331.5" y="-15.8" font-family="Times,serif" font-size="9.00">open_gripper</text>
</g>
<!-- Fallback &#160;&#45;&gt;open_gripper -->
<g id="edge9" class="edge">
<title>Fallback &#160;&#45;&gt;open_gripper</title>
<path fill="none" stroke="black" d="M299.89,-71.7C304.84,-63.44 310.87,-53.39 316.32,-44.3"/>
<polygon fill="black" stroke="black" points="319.39,-46 321.53,-35.62 313.38,-42.4 319.39,-46"/>
</g>
<!-- object_at BlueBox [0.0, 0.0, 0.22] 0.02 GreenBox -->
<g id="node14" class="node">
<title>object_at BlueBox [0.0, 0.0, 0.22] 0.02 GreenBox</title>
<ellipse fill="lightgray" stroke="black" cx="561.5" cy="-306" rx="142.06" ry="18"/>
<text text-anchor="middle" x="561.5" y="-303.8" font-family="Times,serif" font-size="9.00">object_at BlueBox [0.0, 0.0, 0.22] 0.02 GreenBox</text>
</g>
<!-- Fallback &#160;&#160;&#45;&gt;object_at BlueBox [0.0, 0.0, 0.22] 0.02 GreenBox -->
<g id="edge13" class="edge">
<title>Fallback &#160;&#160;&#45;&gt;object_at BlueBox [0.0, 0.0, 0.22] 0.02 GreenBox</title>
<path fill="none" stroke="black" d="M636.82,-362.5C624.1,-353.12 607.27,-340.72 592.74,-330.02"/>
<polygon fill="black" stroke="black" points="594.63,-327.06 584.51,-323.95 590.48,-332.7 594.63,-327.06"/>
</g>
<!-- Sequence &#160;&#160; -->
<g id="node15" class="node">
<title>Sequence &#160;&#160;</title>
<polygon fill="orange" stroke="black" points="783.5,-324 721.5,-324 721.5,-288 783.5,-288 783.5,-324"/>
<text text-anchor="middle" x="752.5" y="-303.8" font-family="Times,serif" font-size="9.00">Sequence</text>
</g>
<!-- Fallback &#160;&#160;&#45;&gt;Sequence &#160;&#160; -->
<g id="edge14" class="edge">
<title>Fallback &#160;&#160;&#45;&gt;Sequence &#160;&#160;</title>
<path fill="none" stroke="black" d="M676.39,-362.5C689.16,-353.19 706.01,-340.9 720.62,-330.25"/>
<polygon fill="black" stroke="black" points="722.89,-332.92 728.91,-324.2 718.77,-327.27 722.89,-332.92"/>
</g>
<!-- Fallback &#160;&#160;&#160; -->
<g id="node16" class="node">
<title>Fallback &#160;&#160;&#160;</title>
<polygon fill="cyan" stroke="black" points="670.49,-226.54 670.49,-241.46 650,-252 621.01,-252 600.51,-241.46 600.51,-226.54 621.01,-216 650,-216 670.49,-226.54"/>
<text text-anchor="middle" x="635.5" y="-231.8" font-family="Times,serif" font-size="9.00">Fallback</text>
</g>
<!-- Sequence &#160;&#160;&#45;&gt;Fallback &#160;&#160;&#160; -->
<g id="edge15" class="edge">
<title>Sequence &#160;&#160;&#45;&gt;Fallback &#160;&#160;&#160;</title>
<path fill="none" stroke="black" d="M723.88,-287.88C706.48,-277.47 684.27,-264.17 666.46,-253.52"/>
<polygon fill="black" stroke="black" points="667.98,-250.35 657.6,-248.22 664.38,-256.36 667.98,-250.35"/>
</g>
<!-- place0 BlueBox [0.0, 0.0, 0.22] 0.02 GreenBox -->
<g id="node23" class="node">
<title>place0 BlueBox [0.0, 0.0, 0.22] 0.02 GreenBox</title>
<ellipse fill="lightgray" stroke="black" cx="824.5" cy="-234" rx="135.85" ry="18"/>
<text text-anchor="middle" x="824.5" y="-231.8" font-family="Times,serif" font-size="9.00">place0 BlueBox [0.0, 0.0, 0.22] 0.02 GreenBox</text>
</g>
<!-- Sequence &#160;&#160;&#45;&gt;place0 BlueBox [0.0, 0.0, 0.22] 0.02 GreenBox -->
<g id="edge22" class="edge">
<title>Sequence &#160;&#160;&#45;&gt;place0 BlueBox [0.0, 0.0, 0.22] 0.02 GreenBox</title>
<path fill="none" stroke="black" d="M770.3,-287.7C779.17,-279.07 790.05,-268.5 799.72,-259.1"/>
<polygon fill="black" stroke="black" points="802.43,-261.34 807.16,-251.86 797.55,-256.32 802.43,-261.34"/>
</g>
<!-- in_gripper BlueBox -->
<g id="node17" class="node">
<title>in_gripper BlueBox</title>
<ellipse fill="lightgray" stroke="black" cx="527.5" cy="-162" rx="61.55" ry="18"/>
<text text-anchor="middle" x="527.5" y="-159.8" font-family="Times,serif" font-size="9.00">in_gripper BlueBox</text>
</g>
<!-- Fallback &#160;&#160;&#160;&#45;&gt;in_gripper BlueBox -->
<g id="edge16" class="edge">
<title>Fallback &#160;&#160;&#160;&#45;&gt;in_gripper BlueBox</title>
<path fill="none" stroke="black" d="M614.42,-219.34C599.16,-209.44 578.22,-195.87 560.72,-184.53"/>
<polygon fill="black" stroke="black" points="562.22,-181.33 551.93,-178.83 558.42,-187.21 562.22,-181.33"/>
</g>
<!-- Sequence &#160;&#160;&#160; -->
<g id="node18" class="node">
<title>Sequence &#160;&#160;&#160;</title>
<polygon fill="orange" stroke="black" points="669.5,-180 607.5,-180 607.5,-144 669.5,-144 669.5,-180"/>
<text text-anchor="middle" x="638.5" y="-159.8" font-family="Times,serif" font-size="9.00">Sequence</text>
</g>
<!-- Fallback &#160;&#160;&#160;&#45;&gt;Sequence &#160;&#160;&#160; -->
<g id="edge17" class="edge">
<title>Fallback &#160;&#160;&#160;&#45;&gt;Sequence &#160;&#160;&#160;</title>
<path fill="none" stroke="black" d="M636.24,-215.7C636.58,-207.98 636.97,-198.71 637.34,-190.11"/>
<polygon fill="black" stroke="black" points="640.84,-190.25 637.77,-180.1 633.85,-189.95 640.84,-190.25"/>
</g>
<!-- Fallback &#160;&#160;&#160;&#160; -->
<g id="node19" class="node">
<title>Fallback &#160;&#160;&#160;&#160;</title>
<polygon fill="cyan" stroke="black" points="576.49,-82.54 576.49,-97.46 556,-108 527.01,-108 506.51,-97.46 506.51,-82.54 527.01,-72 556,-72 576.49,-82.54"/>
<text text-anchor="middle" x="541.5" y="-87.8" font-family="Times,serif" font-size="9.00">Fallback</text>
</g>
<!-- Sequence &#160;&#160;&#160;&#45;&gt;Fallback &#160;&#160;&#160;&#160; -->
<g id="edge18" class="edge">
<title>Sequence &#160;&#160;&#160;&#45;&gt;Fallback &#160;&#160;&#160;&#160;</title>
<path fill="none" stroke="black" d="M614.53,-143.7C600.96,-133.91 583.92,-121.61 569.71,-111.36"/>
<polygon fill="black" stroke="black" points="571.45,-108.29 561.29,-105.28 567.35,-113.97 571.45,-108.29"/>
</g>
<!-- pick0 BlueBox -->
<g id="node22" class="node">
<title>pick0 BlueBox</title>
<ellipse fill="lightgray" stroke="black" cx="642.5" cy="-90" rx="47.84" ry="18"/>
<text text-anchor="middle" x="642.5" y="-87.8" font-family="Times,serif" font-size="9.00">pick0 BlueBox</text>
</g>
<!-- Sequence &#160;&#160;&#160;&#45;&gt;pick0 BlueBox -->
<g id="edge21" class="edge">
<title>Sequence &#160;&#160;&#160;&#45;&gt;pick0 BlueBox</title>
<path fill="none" stroke="black" d="M639.49,-143.7C639.93,-135.98 640.46,-126.71 640.95,-118.11"/>
<polygon fill="black" stroke="black" points="644.45,-118.29 641.53,-108.1 637.46,-117.89 644.45,-118.29"/>
</g>
<!-- gripper_state open  -->
<g id="node20" class="node">
<title>gripper_state open </title>
<ellipse fill="lightgray" stroke="black" cx="499.5" cy="-18" rx="60.09" ry="18"/>
<text text-anchor="middle" x="499.5" y="-15.8" font-family="Times,serif" font-size="9.00">gripper_state open</text>
</g>
<!-- Fallback &#160;&#160;&#160;&#160;&#45;&gt;gripper_state open  -->
<g id="edge19" class="edge">
<title>Fallback &#160;&#160;&#160;&#160;&#45;&gt;gripper_state open </title>
<path fill="none" stroke="black" d="M531.12,-71.7C526.24,-63.56 520.32,-53.69 514.92,-44.7"/>
<polygon fill="black" stroke="black" points="517.91,-42.88 509.77,-36.1 511.91,-46.48 517.91,-42.88"/>
</g>
<!-- open_gripper  -->
<g id="node21" class="node">
<title>open_gripper </title>
<ellipse fill="lightgray" stroke="black" cx="623.5" cy="-18" rx="45.72" ry="18"/>
<text text-anchor="middle" x="623.5" y="-15.8" font-family="Times,serif" font-size="9.00">open_gripper</text>
</g>
<!-- Fallback &#160;&#160;&#160;&#160;&#45;&gt;open_gripper  -->
<g id="edge20" class="edge">
<title>Fallback &#160;&#160;&#160;&#160;&#45;&gt;open_gripper </title>
<path fill="none" stroke="black" d="M559.7,-73.46C570.77,-64.02 585.09,-51.79 597.36,-41.32"/>
<polygon fill="black" stroke="black" points="599.74,-43.89 605.07,-34.73 595.19,-38.56 599.74,-43.89"/>
</g>
<!-- object_at YellowBox [0.0, 0.12, 0.12] 0.02 GreenBox -->
<g id="node25" class="node">
<title>object_at YellowBox [0.0, 0.12, 0.12] 0.02 GreenBox</title>
<ellipse fill="lightgray" stroke="black" cx="951.5" cy="-306" rx="150.22" ry="18"/>
<text text-anchor="middle" x="951.5" y="-303.8" font-family="Times,serif" font-size="9.00">object_at YellowBox [0.0, 0.12, 0.12] 0.02 GreenBox</text>
</g>
<!-- Fallback &#160;&#160;&#160;&#160;&#160;&#45;&gt;object_at YellowBox [0.0, 0.12, 0.12] 0.02 GreenBox -->
<g id="edge24" class="edge">
<title>Fallback &#160;&#160;&#160;&#160;&#160;&#45;&gt;object_at YellowBox [0.0, 0.12, 0.12] 0.02 GreenBox</title>
<path fill="none" stroke="black" d="M951.5,-359.7C951.5,-351.98 951.5,-342.71 951.5,-334.11"/>
<polygon fill="black" stroke="black" points="955,-334.1 951.5,-324.1 948,-334.1 955,-334.1"/>
</g>
<!-- Sequence &#160;&#160;&#160;&#160; -->
<g id="node26" class="node">
<title>Sequence &#160;&#160;&#160;&#160;</title>
<polygon fill="orange" stroke="black" points="1181.5,-324 1119.5,-324 1119.5,-288 1181.5,-288 1181.5,-324"/>
<text text-anchor="middle" x="1150.5" y="-303.8" font-family="Times,serif" font-size="9.00">Sequence</text>
</g>
<!-- Fallback &#160;&#160;&#160;&#160;&#160;&#45;&gt;Sequence &#160;&#160;&#160;&#160; -->
<g id="edge25" class="edge">
<title>Fallback &#160;&#160;&#160;&#160;&#160;&#45;&gt;Sequence &#160;&#160;&#160;&#160;</title>
<path fill="none" stroke="black" d="M981.35,-367.84C1011.55,-358.4 1059.72,-342.87 1109.51,-324.24"/>
<polygon fill="black" stroke="black" points="1111.04,-327.41 1119.16,-320.6 1108.56,-320.86 1111.04,-327.41"/>
</g>
<!-- Fallback &#160;&#160;&#160;&#160;&#160;&#160; -->
<g id="node27" class="node">
<title>Fallback &#160;&#160;&#160;&#160;&#160;&#160;</title>
<polygon fill="cyan" stroke="black" points="1139.49,-226.54 1139.49,-241.46 1119,-252 1090.01,-252 1069.51,-241.46 1069.51,-226.54 1090.01,-216 1119,-216 1139.49,-226.54"/>
<text text-anchor="middle" x="1104.5" y="-231.8" font-family="Times,serif" font-size="9.00">Fallback</text>
</g>
<!-- Sequence &#160;&#160;&#160;&#160;&#45;&gt;Fallback &#160;&#160;&#160;&#160;&#160;&#160; -->
<g id="edge26" class="edge">
<title>Sequence &#160;&#160;&#160;&#160;&#45;&gt;Fallback &#160;&#160;&#160;&#160;&#160;&#160;</title>
<path fill="none" stroke="black" d="M1139.13,-287.7C1133.78,-279.56 1127.3,-269.69 1121.39,-260.7"/>
<polygon fill="black" stroke="black" points="1124.16,-258.54 1115.74,-252.1 1118.31,-262.38 1124.16,-258.54"/>
</g>
<!-- place0 YellowBox [0.0, 0.12, 0.12] 0.02 GreenBox -->
<g id="node34" class="node">
<title>place0 YellowBox [0.0, 0.12, 0.12] 0.02 GreenBox</title>
<ellipse fill="lightgray" stroke="black" cx="1301.5" cy="-234" rx="143.52" ry="18"/>
<text text-anchor="middle" x="1301.5" y="-231.8" font-family="Times,serif" font-size="9.00">place0 YellowBox [0.0, 0.12, 0.12] 0.02 GreenBox</text>
</g>
<!-- Sequence &#160;&#160;&#160;&#160;&#45;&gt;place0 YellowBox [0.0, 0.12, 0.12] 0.02 GreenBox -->
<g id="edge33" class="edge">
<title>Sequence &#160;&#160;&#160;&#160;&#45;&gt;place0 YellowBox [0.0, 0.12, 0.12] 0.02 GreenBox</title>
<path fill="none" stroke="black" d="M1181.79,-290.5C1203.45,-280.46 1232.6,-266.94 1256.72,-255.76"/>
<polygon fill="black" stroke="black" points="1258.42,-258.83 1266.02,-251.45 1255.48,-252.48 1258.42,-258.83"/>
</g>
<!-- in_gripper YellowBox -->
<g id="node28" class="node">
<title>in_gripper YellowBox</title>
<ellipse fill="lightgray" stroke="black" cx="1046.5" cy="-162" rx="66.29" ry="18"/>
<text text-anchor="middle" x="1046.5" y="-159.8" font-family="Times,serif" font-size="9.00">in_gripper YellowBox</text>
</g>
<!-- Fallback &#160;&#160;&#160;&#160;&#160;&#160;&#45;&gt;in_gripper YellowBox -->
<g id="edge27" class="edge">
<title>Fallback &#160;&#160;&#160;&#160;&#160;&#160;&#45;&gt;in_gripper YellowBox</title>
<path fill="none" stroke="black" d="M1090.17,-215.7C1083.11,-207.18 1074.48,-196.76 1066.76,-187.45"/>
<polygon fill="black" stroke="black" points="1069.35,-185.09 1060.28,-179.62 1063.96,-189.56 1069.35,-185.09"/>
</g>
<!-- Sequence &#160;&#160;&#160;&#160;&#160; -->
<g id="node29" class="node">
<title>Sequence &#160;&#160;&#160;&#160;&#160;</title>
<polygon fill="orange" stroke="black" points="1192.5,-180 1130.5,-180 1130.5,-144 1192.5,-144 1192.5,-180"/>
<text text-anchor="middle" x="1161.5" y="-159.8" font-family="Times,serif" font-size="9.00">Sequence</text>
</g>
<!-- Fallback &#160;&#160;&#160;&#160;&#160;&#160;&#45;&gt;Sequence &#160;&#160;&#160;&#160;&#160; -->
<g id="edge28" class="edge">
<title>Fallback &#160;&#160;&#160;&#160;&#160;&#160;&#45;&gt;Sequence &#160;&#160;&#160;&#160;&#160;</title>
<path fill="none" stroke="black" d="M1118.59,-215.7C1125.43,-207.3 1133.76,-197.07 1141.26,-187.86"/>
<polygon fill="black" stroke="black" points="1143.98,-190.07 1147.58,-180.1 1138.55,-185.65 1143.98,-190.07"/>
</g>
<!-- Fallback &#160;&#160;&#160;&#160;&#160;&#160;&#160; -->
<g id="node30" class="node">
<title>Fallback &#160;&#160;&#160;&#160;&#160;&#160;&#160;</title>
<polygon fill="cyan" stroke="black" points="1143.49,-82.54 1143.49,-97.46 1123,-108 1094.01,-108 1073.51,-97.46 1073.51,-82.54 1094.01,-72 1123,-72 1143.49,-82.54"/>
<text text-anchor="middle" x="1108.5" y="-87.8" font-family="Times,serif" font-size="9.00">Fallback</text>
</g>
<!-- Sequence &#160;&#160;&#160;&#160;&#160;&#45;&gt;Fallback &#160;&#160;&#160;&#160;&#160;&#160;&#160; -->
<g id="edge29" class="edge">
<title>Sequence &#160;&#160;&#160;&#160;&#160;&#45;&gt;Fallback &#160;&#160;&#160;&#160;&#160;&#160;&#160;</title>
<path fill="none" stroke="black" d="M1148.4,-143.7C1142.11,-135.39 1134.46,-125.28 1127.54,-116.14"/>
<polygon fill="black" stroke="black" points="1130.28,-113.96 1121.45,-108.1 1124.7,-118.19 1130.28,-113.96"/>
</g>
<!-- pick0 YellowBox -->
<g id="node33" class="node">
<title>pick0 YellowBox</title>
<ellipse fill="lightgray" stroke="black" cx="1214.5" cy="-90" rx="53.23" ry="18"/>
<text text-anchor="middle" x="1214.5" y="-87.8" font-family="Times,serif" font-size="9.00">pick0 YellowBox</text>
</g>
<!-- Sequence &#160;&#160;&#160;&#160;&#160;&#45;&gt;pick0 YellowBox -->
<g id="edge32" class="edge">
<title>Sequence &#160;&#160;&#160;&#160;&#160;&#45;&gt;pick0 YellowBox</title>
<path fill="none" stroke="black" d="M1174.6,-143.7C1180.99,-135.27 1188.78,-124.97 1195.78,-115.73"/>
<polygon fill="black" stroke="black" points="1198.67,-117.71 1201.92,-107.62 1193.09,-113.48 1198.67,-117.71"/>
</g>
<!-- gripper_state open &#160; -->
<g id="node31" class="node">
<title>gripper_state open &#160;</title>
<ellipse fill="lightgray" stroke="black" cx="1046.5" cy="-18" rx="60.09" ry="18"/>
<text text-anchor="middle" x="1046.5" y="-15.8" font-family="Times,serif" font-size="9.00">gripper_state open</text>
</g>
<!-- Fallback &#160;&#160;&#160;&#160;&#160;&#160;&#160;&#45;&gt;gripper_state open &#160; -->
<g id="edge30" class="edge">
<title>Fallback &#160;&#160;&#160;&#160;&#160;&#160;&#160;&#45;&gt;gripper_state open &#160;</title>
<path fill="none" stroke="black" d="M1093.49,-72.05C1085.88,-63.46 1076.49,-52.86 1068.11,-43.4"/>
<polygon fill="black" stroke="black" points="1070.62,-40.95 1061.37,-35.79 1065.38,-45.6 1070.62,-40.95"/>
</g>
<!-- open_gripper &#160; -->
<g id="node32" class="node">
<title>open_gripper &#160;</title>
<ellipse fill="lightgray" stroke="black" cx="1170.5" cy="-18" rx="45.72" ry="18"/>
<text text-anchor="middle" x="1170.5" y="-15.8" font-family="Times,serif" font-size="9.00">open_gripper</text>
</g>
<!-- Fallback &#160;&#160;&#160;&#160;&#160;&#160;&#160;&#45;&gt;open_gripper &#160; -->
<g id="edge31" class="edge">
<title>Fallback &#160;&#160;&#160;&#160;&#160;&#160;&#160;&#45;&gt;open_gripper &#160;</title>
<path fill="none" stroke="black" d="M1123.51,-72.05C1131.24,-63.33 1140.79,-52.54 1149.26,-42.98"/>
<polygon fill="black" stroke="black" points="1152.05,-45.11 1156.06,-35.31 1146.81,-40.47 1152.05,-45.11"/>
</g>
</g>
</svg>
