<?xml version="1.0" encoding="UTF-8" standalone="no"?>
<!DOCTYPE svg PUBLIC "-//W3C//DTD SVG 1.1//EN"
 "http://www.w3.org/Graphics/SVG/1.1/DTD/svg11.dtd">
<!-- Generated by graphviz version 2.43.0 (0)
 -->
<!-- Title: BT Pages: 1 -->
<svg width="1346pt" height="469pt"
 viewBox="0.00 0.00 1346.14 469.00" xmlns="http://www.w3.org/2000/svg" xmlns:xlink="http://www.w3.org/1999/xlink">
<g id="graph0" class="graph" transform="scale(1 1) rotate(0) translate(4 465)">
<title>BT</title>
<polygon fill="white" stroke="transparent" points="-4,4 -4,-465 1342.14,-465 1342.14,4 -4,4"/>
<!-- n1 -->
<g id="node1" class="node">
<title>n1</title>
<polygon fill="none" stroke="black" points="726.64,-461 697.64,-461 697.64,-432 726.64,-432 726.64,-461"/>
<text text-anchor="middle" x="712.14" y="-442.8" font-family="Times,serif" font-size="14.00">→</text>
</g>
<!-- n2 -->
<g id="node2" class="node">
<title>n2</title>
<polygon fill="none" stroke="black" points="432.64,-392.5 403.64,-392.5 403.64,-363.5 432.64,-363.5 432.64,-392.5"/>
<text text-anchor="middle" x="418.14" y="-374.3" font-family="Times,serif" font-size="14.00">?</text>
</g>
<!-- n1&#45;&gt;n2 -->
<g id="edge12" class="edge">
<title>n1&#45;&gt;n2</title>
<path fill="none" stroke="black" d="M697.56,-442.2C650.44,-431.54 501.88,-397.94 442.76,-384.57"/>
<polygon fill="black" stroke="black" points="443.33,-381.11 432.81,-382.32 441.79,-387.94 443.33,-381.11"/>
</g>
<!-- n14 -->
<g id="node14" class="node">
<title>n14</title>
<polygon fill="none" stroke="black" points="666.64,-392.5 637.64,-392.5 637.64,-363.5 666.64,-363.5 666.64,-392.5"/>
<text text-anchor="middle" x="652.14" y="-374.3" font-family="Times,serif" font-size="14.00">?</text>
</g>
<!-- n1&#45;&gt;n14 -->
<g id="edge25" class="edge">
<title>n1&#45;&gt;n14</title>
<path fill="none" stroke="black" d="M699.71,-431.72C691.5,-422.63 680.59,-410.53 671.29,-400.22"/>
<polygon fill="black" stroke="black" points="673.85,-397.84 664.56,-392.76 668.66,-402.53 673.85,-397.84"/>
</g>
<!-- n27 -->
<g id="node27" class="node">
<title>n27</title>
<ellipse fill="none" stroke="black" cx="772.14" cy="-378" rx="87.99" ry="18"/>
<text text-anchor="middle" x="772.14" y="-374.3" font-family="Times,serif" font-size="14.00">In gripper none?</text>
</g>
<!-- n1&#45;&gt;n27 -->
<g id="edge26" class="edge">
<title>n1&#45;&gt;n27</title>
<path fill="none" stroke="black" d="M724.57,-431.72C731.87,-423.64 741.3,-413.18 749.84,-403.72"/>
<polygon fill="black" stroke="black" points="752.64,-405.84 756.74,-396.07 747.44,-401.15 752.64,-405.84"/>
</g>
<!-- n28 -->
<g id="node28" class="node">
<title>n28</title>
<ellipse fill="none" stroke="black" cx="955.14" cy="-378" rx="77.19" ry="18"/>
<text text-anchor="middle" x="955.14" y="-374.3" font-family="Times,serif" font-size="14.00">Gripper open?</text>
</g>
<!-- n1&#45;&gt;n28 -->
<g id="edge27" class="edge">
<title>n1&#45;&gt;n28</title>
<path fill="none" stroke="black" d="M726.98,-441.44C760.03,-432.4 841.21,-410.18 897.25,-394.84"/>
<polygon fill="black" stroke="black" points="898.33,-398.17 907.05,-392.16 896.48,-391.42 898.33,-398.17"/>
</g>
<!-- n3 -->
<g id="node3" class="node">
<title>n3</title>
<ellipse fill="none" stroke="black" cx="201.14" cy="-306" rx="184.67" ry="18"/>
<text text-anchor="middle" x="201.14" y="-302.3" font-family="Times,serif" font-size="14.00">GreenBox roughly at p1 in base_link?</text>
</g>
<!-- n2&#45;&gt;n3 -->
<g id="edge1" class="edge">
<title>n2&#45;&gt;n3</title>
<path fill="none" stroke="black" d="M403.57,-372.3C375.03,-363.09 310.33,-342.22 261.7,-326.54"/>
<polygon fill="black" stroke="black" points="262.49,-323.11 251.9,-323.37 260.34,-329.77 262.49,-323.11"/>
</g>
<!-- n4 -->
<g id="node4" class="node">
<title>n4</title>
<polygon fill="none" stroke="black" points="432.64,-320.5 403.64,-320.5 403.64,-291.5 432.64,-291.5 432.64,-320.5"/>
<text text-anchor="middle" x="418.14" y="-302.3" font-family="Times,serif" font-size="14.00">→</text>
</g>
<!-- n2&#45;&gt;n4 -->
<g id="edge11" class="edge">
<title>n2&#45;&gt;n4</title>
<path fill="none" stroke="black" d="M418.14,-363.17C418.14,-353.97 418.14,-341.63 418.14,-330.87"/>
<polygon fill="black" stroke="black" points="421.64,-330.8 418.14,-320.8 414.64,-330.8 421.64,-330.8"/>
</g>
<!-- n5 -->
<g id="node5" class="node">
<title>n5</title>
<polygon fill="none" stroke="black" points="269.64,-248.5 240.64,-248.5 240.64,-219.5 269.64,-219.5 269.64,-248.5"/>
<text text-anchor="middle" x="255.14" y="-230.3" font-family="Times,serif" font-size="14.00">?</text>
</g>
<!-- n4&#45;&gt;n5 -->
<g id="edge8" class="edge">
<title>n4&#45;&gt;n5</title>
<path fill="none" stroke="black" d="M403.44,-293.22C400.76,-291.34 397.93,-289.52 395.14,-288 356.73,-267.06 308.3,-250.74 279.64,-242.02"/>
<polygon fill="black" stroke="black" points="280.61,-238.66 270.03,-239.16 278.61,-245.37 280.61,-238.66"/>
</g>
<!-- n12 -->
<g id="node12" class="node">
<title>n12</title>
<polygon fill="none" stroke="black" points="432.64,-248.5 403.64,-248.5 403.64,-219.5 432.64,-219.5 432.64,-248.5"/>
<text text-anchor="middle" x="418.14" y="-230.3" font-family="Times,serif" font-size="14.00">?</text>
</g>
<!-- n4&#45;&gt;n12 -->
<g id="edge10" class="edge">
<title>n4&#45;&gt;n12</title>
<path fill="none" stroke="black" d="M418.14,-291.17C418.14,-281.97 418.14,-269.63 418.14,-258.87"/>
<polygon fill="black" stroke="black" points="421.64,-258.8 418.14,-248.8 414.64,-258.8 421.64,-258.8"/>
</g>
<!-- n6 -->
<g id="node6" class="node">
<title>n6</title>
<ellipse fill="none" stroke="black" cx="111.14" cy="-162" rx="111.28" ry="18"/>
<text text-anchor="middle" x="111.14" y="-158.3" font-family="Times,serif" font-size="14.00">In gripper GreenBox?</text>
</g>
<!-- n5&#45;&gt;n6 -->
<g id="edge2" class="edge">
<title>n5&#45;&gt;n6</title>
<path fill="none" stroke="black" d="M240.54,-225.9C220.35,-216.09 183.06,-197.96 153.68,-183.68"/>
<polygon fill="black" stroke="black" points="154.97,-180.41 144.45,-179.19 151.91,-186.71 154.97,-180.41"/>
</g>
<!-- n7 -->
<g id="node7" class="node">
<title>n7</title>
<polygon fill="none" stroke="black" points="269.64,-176.5 240.64,-176.5 240.64,-147.5 269.64,-147.5 269.64,-176.5"/>
<text text-anchor="middle" x="255.14" y="-158.3" font-family="Times,serif" font-size="14.00">→</text>
</g>
<!-- n5&#45;&gt;n7 -->
<g id="edge7" class="edge">
<title>n5&#45;&gt;n7</title>
<path fill="none" stroke="black" d="M255.14,-219.17C255.14,-209.97 255.14,-197.63 255.14,-186.87"/>
<polygon fill="black" stroke="black" points="258.64,-186.8 255.14,-176.8 251.64,-186.8 258.64,-186.8"/>
</g>
<!-- n8 -->
<g id="node8" class="node">
<title>n8</title>
<polygon fill="none" stroke="black" points="210.64,-104.5 181.64,-104.5 181.64,-75.5 210.64,-75.5 210.64,-104.5"/>
<text text-anchor="middle" x="196.14" y="-86.3" font-family="Times,serif" font-size="14.00">?</text>
</g>
<!-- n7&#45;&gt;n8 -->
<g id="edge5" class="edge">
<title>n7&#45;&gt;n8</title>
<path fill="none" stroke="black" d="M243.48,-147.17C235.16,-137.3 223.8,-123.82 214.3,-112.54"/>
<polygon fill="black" stroke="black" points="216.89,-110.19 207.77,-104.8 211.54,-114.7 216.89,-110.19"/>
</g>
<!-- n11 -->
<g id="node11" class="node">
<title>n11</title>
<polygon fill="none" stroke="black" points="351.14,-108 229.14,-108 229.14,-72 351.14,-72 351.14,-108"/>
<text text-anchor="middle" x="290.14" y="-86.3" font-family="Times,serif" font-size="14.00">Pick GreenBox</text>
</g>
<!-- n7&#45;&gt;n11 -->
<g id="edge6" class="edge">
<title>n7&#45;&gt;n11</title>
<path fill="none" stroke="black" d="M262.06,-147.17C266.36,-138.57 272.02,-127.23 277.14,-117"/>
<polygon fill="black" stroke="black" points="280.29,-118.53 281.63,-108.02 274.03,-115.4 280.29,-118.53"/>
</g>
<!-- n9 -->
<g id="node9" class="node">
<title>n9</title>
<ellipse fill="none" stroke="black" cx="114.14" cy="-18" rx="77.19" ry="18"/>
<text text-anchor="middle" x="114.14" y="-14.3" font-family="Times,serif" font-size="14.00">Gripper open?</text>
</g>
<!-- n8&#45;&gt;n9 -->
<g id="edge3" class="edge">
<title>n8&#45;&gt;n9</title>
<path fill="none" stroke="black" d="M181.48,-76.49C170.42,-67.04 154.92,-53.81 141.58,-42.42"/>
<polygon fill="black" stroke="black" points="143.49,-39.45 133.61,-35.62 138.94,-44.77 143.49,-39.45"/>
</g>
<!-- n10 -->
<g id="node10" class="node">
<title>n10</title>
<polygon fill="none" stroke="black" points="346.64,-36 209.64,-36 209.64,0 346.64,0 346.64,-36"/>
<text text-anchor="middle" x="278.14" y="-14.3" font-family="Times,serif" font-size="14.00">Set gripper open</text>
</g>
<!-- n8&#45;&gt;n10 -->
<g id="edge4" class="edge">
<title>n8&#45;&gt;n10</title>
<path fill="none" stroke="black" d="M210.8,-76.49C221.71,-67.17 236.94,-54.17 250.15,-42.89"/>
<polygon fill="black" stroke="black" points="252.73,-45.29 258.06,-36.14 248.18,-39.97 252.73,-45.29"/>
</g>
<!-- n13 -->
<g id="node13" class="node">
<title>n13</title>
<polygon fill="none" stroke="black" points="548.14,-180 288.14,-180 288.14,-144 548.14,-144 548.14,-180"/>
<text text-anchor="middle" x="418.14" y="-158.3" font-family="Times,serif" font-size="14.00">Place GreenBox at p1 in base_link</text>
</g>
<!-- n12&#45;&gt;n13 -->
<g id="edge9" class="edge">
<title>n12&#45;&gt;n13</title>
<path fill="none" stroke="black" d="M418.14,-219.17C418.14,-210.92 418.14,-200.15 418.14,-190.26"/>
<polygon fill="black" stroke="black" points="421.64,-190.02 418.14,-180.02 414.64,-190.02 421.64,-190.02"/>
</g>
<!-- n15 -->
<g id="node15" class="node">
<title>n15</title>
<ellipse fill="none" stroke="black" cx="652.14" cy="-306" rx="176.57" ry="18"/>
<text text-anchor="middle" x="652.14" y="-302.3" font-family="Times,serif" font-size="14.00">BlueBox roughly at p2 in base_link?</text>
</g>
<!-- n14&#45;&gt;n15 -->
<g id="edge13" class="edge">
<title>n14&#45;&gt;n15</title>
<path fill="none" stroke="black" d="M652.14,-363.17C652.14,-354.92 652.14,-344.15 652.14,-334.26"/>
<polygon fill="black" stroke="black" points="655.64,-334.02 652.14,-324.02 648.64,-334.02 655.64,-334.02"/>
</g>
<!-- n16 -->
<g id="node16" class="node">
<title>n16</title>
<polygon fill="none" stroke="black" points="888.64,-320.5 859.64,-320.5 859.64,-291.5 888.64,-291.5 888.64,-320.5"/>
<text text-anchor="middle" x="874.14" y="-302.3" font-family="Times,serif" font-size="14.00">→</text>
</g>
<!-- n14&#45;&gt;n16 -->
<g id="edge24" class="edge">
<title>n14&#45;&gt;n16</title>
<path fill="none" stroke="black" d="M666.67,-364.88C669.36,-363.04 672.25,-361.32 675.14,-360 742.67,-329.28 767.94,-347.99 838.14,-324 842.07,-322.66 846.15,-321 850.08,-319.26"/>
<polygon fill="black" stroke="black" points="851.83,-322.31 859.39,-314.88 848.85,-315.97 851.83,-322.31"/>
</g>
<!-- n17 -->
<g id="node17" class="node">
<title>n17</title>
<polygon fill="none" stroke="black" points="684.64,-248.5 655.64,-248.5 655.64,-219.5 684.64,-219.5 684.64,-248.5"/>
<text text-anchor="middle" x="670.14" y="-230.3" font-family="Times,serif" font-size="14.00">?</text>
</g>
<!-- n16&#45;&gt;n17 -->
<g id="edge21" class="edge">
<title>n16&#45;&gt;n17</title>
<path fill="none" stroke="black" d="M859.36,-297.21C852.96,-294.05 845.3,-290.55 838.14,-288 778.52,-266.76 755.4,-278.99 694.04,-251.43"/>
<polygon fill="black" stroke="black" points="695.24,-248.12 684.69,-247.06 692.27,-254.46 695.24,-248.12"/>
</g>
<!-- n25 -->
<g id="node25" class="node">
<title>n25</title>
<ellipse fill="none" stroke="black" cx="887.14" cy="-234" rx="184.67" ry="18"/>
<text text-anchor="middle" x="887.14" y="-230.3" font-family="Times,serif" font-size="14.00">GreenBox roughly at p1 in base_link?</text>
</g>
<!-- n16&#45;&gt;n25 -->
<g id="edge22" class="edge">
<title>n16&#45;&gt;n25</title>
<path fill="none" stroke="black" d="M876.71,-291.17C878.26,-282.83 880.28,-271.92 882.14,-261.94"/>
<polygon fill="black" stroke="black" points="885.59,-262.49 883.98,-252.02 878.71,-261.21 885.59,-262.49"/>
</g>
<!-- n26 -->
<g id="node26" class="node">
<title>n26</title>
<polygon fill="none" stroke="black" points="1338.14,-252 1090.14,-252 1090.14,-216 1338.14,-216 1338.14,-252"/>
<text text-anchor="middle" x="1214.14" y="-230.3" font-family="Times,serif" font-size="14.00">Place BlueBox at p2 in base_link</text>
</g>
<!-- n16&#45;&gt;n26 -->
<g id="edge23" class="edge">
<title>n16&#45;&gt;n26</title>
<path fill="none" stroke="black" d="M888.75,-301.99C928.24,-293.86 1039.64,-270.93 1121.12,-254.15"/>
<polygon fill="black" stroke="black" points="1122.31,-257.48 1131.4,-252.03 1120.9,-250.62 1122.31,-257.48"/>
</g>
<!-- n18 -->
<g id="node18" class="node">
<title>n18</title>
<ellipse fill="none" stroke="black" cx="670.14" cy="-162" rx="103.98" ry="18"/>
<text text-anchor="middle" x="670.14" y="-158.3" font-family="Times,serif" font-size="14.00">In gripper BlueBox?</text>
</g>
<!-- n17&#45;&gt;n18 -->
<g id="edge14" class="edge">
<title>n17&#45;&gt;n18</title>
<path fill="none" stroke="black" d="M670.14,-219.17C670.14,-210.92 670.14,-200.15 670.14,-190.26"/>
<polygon fill="black" stroke="black" points="673.64,-190.02 670.14,-180.02 666.64,-190.02 673.64,-190.02"/>
</g>
<!-- n19 -->
<g id="node19" class="node">
<title>n19</title>
<polygon fill="none" stroke="black" points="820.64,-176.5 791.64,-176.5 791.64,-147.5 820.64,-147.5 820.64,-176.5"/>
<text text-anchor="middle" x="806.14" y="-158.3" font-family="Times,serif" font-size="14.00">→</text>
</g>
<!-- n17&#45;&gt;n19 -->
<g id="edge20" class="edge">
<title>n17&#45;&gt;n19</title>
<path fill="none" stroke="black" d="M684.86,-221.27C687.54,-219.38 690.36,-217.55 693.14,-216 728.12,-196.5 743.32,-200.27 782.18,-179.81"/>
<polygon fill="black" stroke="black" points="784.34,-182.62 791.42,-174.73 780.97,-176.48 784.34,-182.62"/>
</g>
<!-- n20 -->
<g id="node20" class="node">
<title>n20</title>
<ellipse fill="none" stroke="black" cx="589.14" cy="-90" rx="184.67" ry="18"/>
<text text-anchor="middle" x="589.14" y="-86.3" font-family="Times,serif" font-size="14.00">GreenBox roughly at p1 in base_link?</text>
</g>
<!-- n19&#45;&gt;n20 -->
<g id="edge15" class="edge">
<title>n19&#45;&gt;n20</title>
<path fill="none" stroke="black" d="M791.56,-149C788.87,-147.14 786,-145.39 783.14,-144 751.12,-128.47 713.84,-116.9 680.56,-108.61"/>
<polygon fill="black" stroke="black" points="681.38,-105.2 670.84,-106.24 679.73,-112 681.38,-105.2"/>
</g>
<!-- n21 -->
<g id="node21" class="node">
<title>n21</title>
<polygon fill="none" stroke="black" points="820.64,-104.5 791.64,-104.5 791.64,-75.5 820.64,-75.5 820.64,-104.5"/>
<text text-anchor="middle" x="806.14" y="-86.3" font-family="Times,serif" font-size="14.00">?</text>
</g>
<!-- n19&#45;&gt;n21 -->
<g id="edge18" class="edge">
<title>n19&#45;&gt;n21</title>
<path fill="none" stroke="black" d="M806.14,-147.17C806.14,-137.97 806.14,-125.63 806.14,-114.87"/>
<polygon fill="black" stroke="black" points="809.64,-114.8 806.14,-104.8 802.64,-114.8 809.64,-114.8"/>
</g>
<!-- n24 -->
<g id="node24" class="node">
<title>n24</title>
<polygon fill="none" stroke="black" points="949.14,-108 839.14,-108 839.14,-72 949.14,-72 949.14,-108"/>
<text text-anchor="middle" x="894.14" y="-86.3" font-family="Times,serif" font-size="14.00">Pick BlueBox</text>
</g>
<!-- n19&#45;&gt;n24 -->
<g id="edge19" class="edge">
<title>n19&#45;&gt;n24</title>
<path fill="none" stroke="black" d="M820.67,-149.44C832.62,-139.94 849.92,-126.17 864.74,-114.39"/>
<polygon fill="black" stroke="black" points="867.02,-117.05 872.67,-108.08 862.66,-111.57 867.02,-117.05"/>
</g>
<!-- n22 -->
<g id="node22" class="node">
<title>n22</title>
<ellipse fill="none" stroke="black" cx="724.14" cy="-18" rx="77.19" ry="18"/>
<text text-anchor="middle" x="724.14" y="-14.3" font-family="Times,serif" font-size="14.00">Gripper open?</text>
</g>
<!-- n21&#45;&gt;n22 -->
<g id="edge16" class="edge">
<title>n21&#45;&gt;n22</title>
<path fill="none" stroke="black" d="M791.48,-76.49C780.42,-67.04 764.92,-53.81 751.58,-42.42"/>
<polygon fill="black" stroke="black" points="753.49,-39.45 743.61,-35.62 748.94,-44.77 753.49,-39.45"/>
</g>
<!-- n23 -->
<g id="node23" class="node">
<title>n23</title>
<polygon fill="none" stroke="black" points="956.64,-36 819.64,-36 819.64,0 956.64,0 956.64,-36"/>
<text text-anchor="middle" x="888.14" y="-14.3" font-family="Times,serif" font-size="14.00">Set gripper open</text>
</g>
<!-- n21&#45;&gt;n23 -->
<g id="edge17" class="edge">
<title>n21&#45;&gt;n23</title>
<path fill="none" stroke="black" d="M820.8,-76.49C831.71,-67.17 846.94,-54.17 860.15,-42.89"/>
<polygon fill="black" stroke="black" points="862.73,-45.29 868.06,-36.14 858.18,-39.97 862.73,-45.29"/>
</g>
</g>
</svg>
