<?xml version="1.0" encoding="UTF-8" standalone="no"?>
<!DOCTYPE svg PUBLIC "-//W3C//DTD SVG 1.1//EN"
 "http://www.w3.org/Graphics/SVG/1.1/DTD/svg11.dtd">
<!-- Generated by graphviz version 2.43.0 (0)
 -->
<!-- Title: pastafarianism Pages: 1 -->
<svg width="4535pt" height="503pt"
 viewBox="0.00 0.00 4535.19 502.60" xmlns="http://www.w3.org/2000/svg" xmlns:xlink="http://www.w3.org/1999/xlink">
<g id="graph0" class="graph" transform="scale(1 1) rotate(0) translate(4 498.6)">
<title>pastafarianism</title>
<polygon fill="white" stroke="transparent" points="-4,4 -4,-498.6 4531.19,-498.6 4531.19,4 -4,4"/>
<!-- selector:
 screw(chairnut1, chairseatbolt1, inwardgripper, left_hand) -->
<g id="node1" class="node">
<title>selector:
 screw(chairnut1, chairseatbolt1, inwardgripper, left_hand)</title>
<polygon fill="#8deeee" stroke="black" points="2485.57,-442.54 2485.57,-473.18 2237.18,-494.84 1885.91,-494.84 1637.52,-473.18 1637.52,-442.54 1885.91,-420.88 2237.18,-420.88 2485.57,-442.54"/>
<text text-anchor="middle" x="2061.55" y="-463.46" font-family="Times,serif" font-size="18.00">selector:</text>
<text text-anchor="middle" x="2061.55" y="-443.46" font-family="Times,serif" font-size="18.00"> screw(chairnut1, chairseatbolt1, inwardgripper, left_hand)</text>
</g>
<!-- target:
 is_screwed_to(chairnut1, chairseatbolt1) -->
<g id="node2" class="node">
<title>target:
 is_screwed_to(chairnut1, chairseatbolt1)</title>
<ellipse fill="#ffec8b" stroke="black" cx="1776.55" cy="-351.18" rx="276.46" ry="33.88"/>
<text text-anchor="middle" x="1776.55" y="-356.78" font-family="Times,serif" font-size="18.00">target:</text>
<text text-anchor="middle" x="1776.55" y="-336.78" font-family="Times,serif" font-size="18.00"> is_screwed_to(chairnut1, chairseatbolt1)</text>
</g>
<!-- selector:
 screw(chairnut1, chairseatbolt1, inwardgripper, left_hand)&#45;&gt;target:
 is_screwed_to(chairnut1, chairseatbolt1) -->
<g id="edge1" class="edge">
<title>selector:
 screw(chairnut1, chairseatbolt1, inwardgripper, left_hand)&#45;&gt;target:
 is_screwed_to(chairnut1, chairseatbolt1)</title>
<path fill="none" stroke="black" d="M1963.86,-420.98C1934.06,-410.03 1901.34,-398.02 1871.7,-387.13"/>
<polygon fill="black" stroke="black" points="1872.79,-383.8 1862.19,-383.64 1870.37,-390.37 1872.79,-383.8"/>
</g>
<!-- sequence:
 screw(chairnut1, chairseatbolt1, inwardgripper, left_hand) -->
<g id="node3" class="node">
<title>sequence:
 screw(chairnut1, chairseatbolt1, inwardgripper, left_hand)</title>
<polygon fill="#ff7f24" stroke="black" points="2624.55,-375.18 2070.55,-375.18 2070.55,-327.18 2624.55,-327.18 2624.55,-375.18"/>
<text text-anchor="middle" x="2347.55" y="-356.78" font-family="Times,serif" font-size="18.00">sequence:</text>
<text text-anchor="middle" x="2347.55" y="-336.78" font-family="Times,serif" font-size="18.00"> screw(chairnut1, chairseatbolt1, inwardgripper, left_hand)</text>
</g>
<!-- selector:
 screw(chairnut1, chairseatbolt1, inwardgripper, left_hand)&#45;&gt;sequence:
 screw(chairnut1, chairseatbolt1, inwardgripper, left_hand) -->
<g id="edge2" class="edge">
<title>selector:
 screw(chairnut1, chairseatbolt1, inwardgripper, left_hand)&#45;&gt;sequence:
 screw(chairnut1, chairseatbolt1, inwardgripper, left_hand)</title>
<path fill="none" stroke="black" d="M2159.57,-420.98C2197.41,-407.13 2239.92,-391.57 2274.94,-378.76"/>
<polygon fill="black" stroke="black" points="2276.42,-381.94 2284.61,-375.22 2274.01,-375.37 2276.42,-381.94"/>
</g>
<!-- selector:
 put_down(left_hand, defaultgripper, chairleg1) -->
<g id="node4" class="node">
<title>selector:
 put_down(left_hand, defaultgripper, chairleg1)</title>
<polygon fill="#8deeee" stroke="black" points="1495.22,-229.19 1495.22,-259.82 1295.66,-281.48 1013.43,-281.48 813.87,-259.82 813.87,-229.19 1013.43,-207.53 1295.66,-207.53 1495.22,-229.19"/>
<text text-anchor="middle" x="1154.55" y="-250.1" font-family="Times,serif" font-size="18.00">selector:</text>
<text text-anchor="middle" x="1154.55" y="-230.1" font-family="Times,serif" font-size="18.00"> put_down(left_hand, defaultgripper, chairleg1)</text>
</g>
<!-- sequence:
 screw(chairnut1, chairseatbolt1, inwardgripper, left_hand)&#45;&gt;selector:
 put_down(left_hand, defaultgripper, chairleg1) -->
<g id="edge3" class="edge">
<title>sequence:
 screw(chairnut1, chairseatbolt1, inwardgripper, left_hand)&#45;&gt;selector:
 put_down(left_hand, defaultgripper, chairleg1)</title>
<path fill="none" stroke="black" d="M2156.9,-327.15C2125.08,-323.61 2092.4,-320.17 2061.55,-317.24 1848.13,-296.97 1794.25,-298.2 1580.55,-281.24 1531.65,-277.36 1479.6,-273.1 1429.29,-268.92"/>
<polygon fill="black" stroke="black" points="1429.51,-265.42 1419.26,-268.08 1428.93,-272.4 1429.51,-265.42"/>
</g>
<!-- selector:
 change_tool(left_hand, defaultgripper, inwardgripper) -->
<g id="node10" class="node">
<title>selector:
 change_tool(left_hand, defaultgripper, inwardgripper)</title>
<polygon fill="#8deeee" stroke="black" points="2369.72,-229.19 2369.72,-259.82 2141.16,-281.48 1817.93,-281.48 1589.37,-259.82 1589.37,-229.19 1817.93,-207.53 2141.16,-207.53 2369.72,-229.19"/>
<text text-anchor="middle" x="1979.55" y="-250.1" font-family="Times,serif" font-size="18.00">selector:</text>
<text text-anchor="middle" x="1979.55" y="-230.1" font-family="Times,serif" font-size="18.00"> change_tool(left_hand, defaultgripper, inwardgripper)</text>
</g>
<!-- sequence:
 screw(chairnut1, chairseatbolt1, inwardgripper, left_hand)&#45;&gt;selector:
 change_tool(left_hand, defaultgripper, inwardgripper) -->
<g id="edge9" class="edge">
<title>sequence:
 screw(chairnut1, chairseatbolt1, inwardgripper, left_hand)&#45;&gt;selector:
 change_tool(left_hand, defaultgripper, inwardgripper)</title>
<path fill="none" stroke="black" d="M2266.33,-327.08C2221.99,-314.47 2165.92,-298.52 2115.14,-284.07"/>
<polygon fill="black" stroke="black" points="2115.97,-280.67 2105.4,-281.3 2114.06,-287.4 2115.97,-280.67"/>
</g>
<!-- selector:
 pick_up(left_hand, inwardgripper, chairnut1) -->
<g id="node16" class="node">
<title>selector:
 pick_up(left_hand, inwardgripper, chairnut1)</title>
<polygon fill="#8deeee" stroke="black" points="3043.2,-229.19 3043.2,-259.82 2851.27,-281.48 2579.83,-281.48 2387.89,-259.82 2387.89,-229.19 2579.83,-207.53 2851.27,-207.53 3043.2,-229.19"/>
<text text-anchor="middle" x="2715.55" y="-250.1" font-family="Times,serif" font-size="18.00">selector:</text>
<text text-anchor="middle" x="2715.55" y="-230.1" font-family="Times,serif" font-size="18.00"> pick_up(left_hand, inwardgripper, chairnut1)</text>
</g>
<!-- sequence:
 screw(chairnut1, chairseatbolt1, inwardgripper, left_hand)&#45;&gt;selector:
 pick_up(left_hand, inwardgripper, chairnut1) -->
<g id="edge15" class="edge">
<title>sequence:
 screw(chairnut1, chairseatbolt1, inwardgripper, left_hand)&#45;&gt;selector:
 pick_up(left_hand, inwardgripper, chairnut1)</title>
<path fill="none" stroke="black" d="M2428.76,-327.08C2473.1,-314.47 2529.17,-298.52 2579.95,-284.07"/>
<polygon fill="black" stroke="black" points="2581.04,-287.4 2589.7,-281.3 2579.12,-280.67 2581.04,-287.4"/>
</g>
<!-- action:
 screw(left_hand, inwardgripper, chairnut1, chairseatbolt1) -->
<g id="node22" class="node">
<title>action:
 screw(left_hand, inwardgripper, chairnut1, chairseatbolt1)</title>
<ellipse fill="lightgreen" stroke="black" cx="3452.55" cy="-244.5" rx="391.97" ry="33.88"/>
<text text-anchor="middle" x="3452.55" y="-250.1" font-family="Times,serif" font-size="18.00">action:</text>
<text text-anchor="middle" x="3452.55" y="-230.1" font-family="Times,serif" font-size="18.00"> screw(left_hand, inwardgripper, chairnut1, chairseatbolt1)</text>
</g>
<!-- sequence:
 screw(chairnut1, chairseatbolt1, inwardgripper, left_hand)&#45;&gt;action:
 screw(left_hand, inwardgripper, chairnut1, chairseatbolt1) -->
<g id="edge21" class="edge">
<title>sequence:
 screw(chairnut1, chairseatbolt1, inwardgripper, left_hand)&#45;&gt;action:
 screw(left_hand, inwardgripper, chairnut1, chairseatbolt1)</title>
<path fill="none" stroke="black" d="M2590.38,-327.18C2765.77,-310.56 3002.63,-288.12 3183.72,-270.97"/>
<polygon fill="black" stroke="black" points="3184.3,-274.43 3193.93,-270 3183.64,-267.46 3184.3,-274.43"/>
</g>
<!-- target:
 is_empty(defaultgripper) -->
<g id="node5" class="node">
<title>target:
 is_empty(defaultgripper)</title>
<ellipse fill="#ffec8b" stroke="black" cx="738.55" cy="-137.82" rx="175.23" ry="33.88"/>
<text text-anchor="middle" x="738.55" y="-143.42" font-family="Times,serif" font-size="18.00">target:</text>
<text text-anchor="middle" x="738.55" y="-123.42" font-family="Times,serif" font-size="18.00"> is_empty(defaultgripper)</text>
</g>
<!-- selector:
 put_down(left_hand, defaultgripper, chairleg1)&#45;&gt;target:
 is_empty(defaultgripper) -->
<g id="edge4" class="edge">
<title>selector:
 put_down(left_hand, defaultgripper, chairleg1)&#45;&gt;target:
 is_empty(defaultgripper)</title>
<path fill="none" stroke="black" d="M1012.26,-207.7C960.2,-194.6 902.02,-179.96 852.73,-167.56"/>
<polygon fill="black" stroke="black" points="853.55,-164.15 843,-165.11 851.84,-170.94 853.55,-164.15"/>
</g>
<!-- sequence:
 put_down(left_hand, defaultgripper, chairleg1) -->
<g id="node6" class="node">
<title>sequence:
 put_down(left_hand, defaultgripper, chairleg1)</title>
<polygon fill="#ff7f24" stroke="black" points="1377.05,-161.82 932.05,-161.82 932.05,-113.82 1377.05,-113.82 1377.05,-161.82"/>
<text text-anchor="middle" x="1154.55" y="-143.42" font-family="Times,serif" font-size="18.00">sequence:</text>
<text text-anchor="middle" x="1154.55" y="-123.42" font-family="Times,serif" font-size="18.00"> put_down(left_hand, defaultgripper, chairleg1)</text>
</g>
<!-- selector:
 put_down(left_hand, defaultgripper, chairleg1)&#45;&gt;sequence:
 put_down(left_hand, defaultgripper, chairleg1) -->
<g id="edge5" class="edge">
<title>selector:
 put_down(left_hand, defaultgripper, chairleg1)&#45;&gt;sequence:
 put_down(left_hand, defaultgripper, chairleg1)</title>
<path fill="none" stroke="black" d="M1154.55,-207.48C1154.55,-196.09 1154.55,-183.57 1154.55,-172.36"/>
<polygon fill="black" stroke="black" points="1158.05,-172.11 1154.55,-162.11 1151.05,-172.11 1158.05,-172.11"/>
</g>
<!-- precondition:
 hold(left_hand, defaultgripper) -->
<g id="node7" class="node">
<title>precondition:
 hold(left_hand, defaultgripper)</title>
<ellipse fill="#ffec8b" stroke="black" cx="213.55" cy="-33.94" rx="213.59" ry="33.88"/>
<text text-anchor="middle" x="213.55" y="-39.54" font-family="Times,serif" font-size="18.00">precondition:</text>
<text text-anchor="middle" x="213.55" y="-19.54" font-family="Times,serif" font-size="18.00"> hold(left_hand, defaultgripper)</text>
</g>
<!-- sequence:
 put_down(left_hand, defaultgripper, chairleg1)&#45;&gt;precondition:
 hold(left_hand, defaultgripper) -->
<g id="edge6" class="edge">
<title>sequence:
 put_down(left_hand, defaultgripper, chairleg1)&#45;&gt;precondition:
 hold(left_hand, defaultgripper)</title>
<path fill="none" stroke="black" d="M1002.79,-113.79C976.09,-110.16 948.53,-106.69 922.55,-103.88 707.2,-80.65 651.82,-91.72 436.55,-67.88 415.55,-65.56 393.49,-62.75 371.75,-59.76"/>
<polygon fill="black" stroke="black" points="372.18,-56.29 361.79,-58.38 371.22,-63.22 372.18,-56.29"/>
</g>
<!-- precondition:
 hold(defaultgripper, chairleg1) -->
<g id="node8" class="node">
<title>precondition:
 hold(defaultgripper, chairleg1)</title>
<ellipse fill="#ffec8b" stroke="black" cx="657.55" cy="-33.94" rx="212.26" ry="33.88"/>
<text text-anchor="middle" x="657.55" y="-39.54" font-family="Times,serif" font-size="18.00">precondition:</text>
<text text-anchor="middle" x="657.55" y="-19.54" font-family="Times,serif" font-size="18.00"> hold(defaultgripper, chairleg1)</text>
</g>
<!-- sequence:
 put_down(left_hand, defaultgripper, chairleg1)&#45;&gt;precondition:
 hold(defaultgripper, chairleg1) -->
<g id="edge7" class="edge">
<title>sequence:
 put_down(left_hand, defaultgripper, chairleg1)&#45;&gt;precondition:
 hold(defaultgripper, chairleg1)</title>
<path fill="none" stroke="black" d="M1042.08,-113.77C968.9,-98.77 872.96,-79.1 795.23,-63.16"/>
<polygon fill="black" stroke="black" points="795.85,-59.72 785.36,-61.14 794.45,-66.58 795.85,-59.72"/>
</g>
<!-- action:
 put_down(left_hand, defaultgripper, chairleg1) -->
<g id="node9" class="node">
<title>action:
 put_down(left_hand, defaultgripper, chairleg1)</title>
<ellipse fill="lightgreen" stroke="black" cx="1202.55" cy="-33.94" rx="314.83" ry="33.88"/>
<text text-anchor="middle" x="1202.55" y="-39.54" font-family="Times,serif" font-size="18.00">action:</text>
<text text-anchor="middle" x="1202.55" y="-19.54" font-family="Times,serif" font-size="18.00"> put_down(left_hand, defaultgripper, chairleg1)</text>
</g>
<!-- sequence:
 put_down(left_hand, defaultgripper, chairleg1)&#45;&gt;action:
 put_down(left_hand, defaultgripper, chairleg1) -->
<g id="edge8" class="edge">
<title>sequence:
 put_down(left_hand, defaultgripper, chairleg1)&#45;&gt;action:
 put_down(left_hand, defaultgripper, chairleg1)</title>
<path fill="none" stroke="black" d="M1165.44,-113.7C1170.51,-102.94 1176.7,-89.79 1182.57,-77.35"/>
<polygon fill="black" stroke="black" points="1185.87,-78.55 1186.97,-68.01 1179.54,-75.57 1185.87,-78.55"/>
</g>
<!-- target:
 hold(left_hand, inwardgripper) -->
<g id="node11" class="node">
<title>target:
 hold(left_hand, inwardgripper)</title>
<ellipse fill="#ffec8b" stroke="black" cx="1693.55" cy="-137.82" rx="212.68" ry="33.88"/>
<text text-anchor="middle" x="1693.55" y="-143.42" font-family="Times,serif" font-size="18.00">target:</text>
<text text-anchor="middle" x="1693.55" y="-123.42" font-family="Times,serif" font-size="18.00"> hold(left_hand, inwardgripper)</text>
</g>
<!-- selector:
 change_tool(left_hand, defaultgripper, inwardgripper)&#45;&gt;target:
 hold(left_hand, inwardgripper) -->
<g id="edge10" class="edge">
<title>selector:
 change_tool(left_hand, defaultgripper, inwardgripper)&#45;&gt;target:
 hold(left_hand, inwardgripper)</title>
<path fill="none" stroke="black" d="M1881.52,-207.62C1850.73,-196.36 1816.85,-183.95 1786.43,-172.82"/>
<polygon fill="black" stroke="black" points="1787.28,-169.4 1776.68,-169.25 1784.87,-175.98 1787.28,-169.4"/>
</g>
<!-- sequence:
 change_tool(left_hand, defaultgripper, inwardgripper) -->
<g id="node12" class="node">
<title>sequence:
 change_tool(left_hand, defaultgripper, inwardgripper)</title>
<polygon fill="#ff7f24" stroke="black" points="2434.55,-161.82 1924.55,-161.82 1924.55,-113.82 2434.55,-113.82 2434.55,-161.82"/>
<text text-anchor="middle" x="2179.55" y="-143.42" font-family="Times,serif" font-size="18.00">sequence:</text>
<text text-anchor="middle" x="2179.55" y="-123.42" font-family="Times,serif" font-size="18.00"> change_tool(left_hand, defaultgripper, inwardgripper)</text>
</g>
<!-- selector:
 change_tool(left_hand, defaultgripper, inwardgripper)&#45;&gt;sequence:
 change_tool(left_hand, defaultgripper, inwardgripper) -->
<g id="edge11" class="edge">
<title>selector:
 change_tool(left_hand, defaultgripper, inwardgripper)&#45;&gt;sequence:
 change_tool(left_hand, defaultgripper, inwardgripper)</title>
<path fill="none" stroke="black" d="M2048.1,-207.62C2073.76,-194.19 2102.51,-179.14 2126.56,-166.56"/>
<polygon fill="black" stroke="black" points="2128.29,-169.6 2135.53,-161.86 2125.05,-163.4 2128.29,-169.6"/>
</g>
<!-- &quot;precondition:\n hold(left_hand, defaultgripper)&quot;* -->
<g id="node13" class="node">
<title>&quot;precondition:\n hold(left_hand, defaultgripper)&quot;*</title>
<ellipse fill="#ffec8b" stroke="black" cx="1760.55" cy="-33.94" rx="225.63" ry="33.88"/>
<text text-anchor="middle" x="1760.55" y="-39.54" font-family="Times,serif" font-size="18.00">&quot;precondition:</text>
<text text-anchor="middle" x="1760.55" y="-19.54" font-family="Times,serif" font-size="18.00"> hold(left_hand, defaultgripper)&quot;*</text>
</g>
<!-- sequence:
 change_tool(left_hand, defaultgripper, inwardgripper)&#45;&gt;&quot;precondition:\n hold(left_hand, defaultgripper)&quot;* -->
<g id="edge12" class="edge">
<title>sequence:
 change_tool(left_hand, defaultgripper, inwardgripper)&#45;&gt;&quot;precondition:\n hold(left_hand, defaultgripper)&quot;*</title>
<path fill="none" stroke="black" d="M2084.73,-113.77C2026.07,-99.5 1950.07,-81.02 1886.4,-65.54"/>
<polygon fill="black" stroke="black" points="1886.83,-62.05 1876.29,-63.08 1885.18,-68.85 1886.83,-62.05"/>
</g>
<!-- precondition:
 is_empty(defaultgripper) -->
<g id="node14" class="node">
<title>precondition:
 is_empty(defaultgripper)</title>
<ellipse fill="#ffec8b" stroke="black" cx="2179.55" cy="-33.94" rx="175.23" ry="33.88"/>
<text text-anchor="middle" x="2179.55" y="-39.54" font-family="Times,serif" font-size="18.00">precondition:</text>
<text text-anchor="middle" x="2179.55" y="-19.54" font-family="Times,serif" font-size="18.00"> is_empty(defaultgripper)</text>
</g>
<!-- sequence:
 change_tool(left_hand, defaultgripper, inwardgripper)&#45;&gt;precondition:
 is_empty(defaultgripper) -->
<g id="edge13" class="edge">
<title>sequence:
 change_tool(left_hand, defaultgripper, inwardgripper)&#45;&gt;precondition:
 is_empty(defaultgripper)</title>
<path fill="none" stroke="black" d="M2179.55,-113.7C2179.55,-103.16 2179.55,-90.31 2179.55,-78.08"/>
<polygon fill="black" stroke="black" points="2183.05,-78.01 2179.55,-68.01 2176.05,-78.01 2183.05,-78.01"/>
</g>
<!-- action:
 change_tool(left_hand, defaultgripper, inwardgripper) -->
<g id="node15" class="node">
<title>action:
 change_tool(left_hand, defaultgripper, inwardgripper)</title>
<ellipse fill="lightgreen" stroke="black" cx="2733.55" cy="-33.94" rx="360.75" ry="33.88"/>
<text text-anchor="middle" x="2733.55" y="-39.54" font-family="Times,serif" font-size="18.00">action:</text>
<text text-anchor="middle" x="2733.55" y="-19.54" font-family="Times,serif" font-size="18.00"> change_tool(left_hand, defaultgripper, inwardgripper)</text>
</g>
<!-- sequence:
 change_tool(left_hand, defaultgripper, inwardgripper)&#45;&gt;action:
 change_tool(left_hand, defaultgripper, inwardgripper) -->
<g id="edge14" class="edge">
<title>sequence:
 change_tool(left_hand, defaultgripper, inwardgripper)&#45;&gt;action:
 change_tool(left_hand, defaultgripper, inwardgripper)</title>
<path fill="none" stroke="black" d="M2304.91,-113.77C2381.36,-99.71 2480.09,-81.55 2563.52,-66.21"/>
<polygon fill="black" stroke="black" points="2564.15,-69.65 2573.35,-64.4 2562.89,-62.77 2564.15,-69.65"/>
</g>
<!-- target:
 hold(inwardgripper, chairnut1) -->
<g id="node17" class="node">
<title>target:
 hold(inwardgripper, chairnut1)</title>
<ellipse fill="#ffec8b" stroke="black" cx="2715.55" cy="-137.82" rx="213.59" ry="33.88"/>
<text text-anchor="middle" x="2715.55" y="-143.42" font-family="Times,serif" font-size="18.00">target:</text>
<text text-anchor="middle" x="2715.55" y="-123.42" font-family="Times,serif" font-size="18.00"> hold(inwardgripper, chairnut1)</text>
</g>
<!-- selector:
 pick_up(left_hand, inwardgripper, chairnut1)&#45;&gt;target:
 hold(inwardgripper, chairnut1) -->
<g id="edge16" class="edge">
<title>selector:
 pick_up(left_hand, inwardgripper, chairnut1)&#45;&gt;target:
 hold(inwardgripper, chairnut1)</title>
<path fill="none" stroke="black" d="M2715.55,-207.48C2715.55,-199.32 2715.55,-190.58 2715.55,-182.15"/>
<polygon fill="black" stroke="black" points="2719.05,-182.1 2715.55,-172.1 2712.05,-182.1 2719.05,-182.1"/>
</g>
<!-- sequence:
 pick_up(left_hand, inwardgripper, chairnut1) -->
<g id="node18" class="node">
<title>sequence:
 pick_up(left_hand, inwardgripper, chairnut1)</title>
<polygon fill="#ff7f24" stroke="black" points="3702.55,-161.82 3274.55,-161.82 3274.55,-113.82 3702.55,-113.82 3702.55,-161.82"/>
<text text-anchor="middle" x="3488.55" y="-143.42" font-family="Times,serif" font-size="18.00">sequence:</text>
<text text-anchor="middle" x="3488.55" y="-123.42" font-family="Times,serif" font-size="18.00"> pick_up(left_hand, inwardgripper, chairnut1)</text>
</g>
<!-- selector:
 pick_up(left_hand, inwardgripper, chairnut1)&#45;&gt;sequence:
 pick_up(left_hand, inwardgripper, chairnut1) -->
<g id="edge17" class="edge">
<title>selector:
 pick_up(left_hand, inwardgripper, chairnut1)&#45;&gt;sequence:
 pick_up(left_hand, inwardgripper, chairnut1)</title>
<path fill="none" stroke="black" d="M2922.19,-215.52C3042.56,-199.22 3192.89,-178.86 3308.42,-163.22"/>
<polygon fill="black" stroke="black" points="3308.99,-166.67 3318.43,-161.86 3308.05,-159.73 3308.99,-166.67"/>
</g>
<!-- precondition:
 is_empty(inwardgripper) -->
<g id="node19" class="node">
<title>precondition:
 is_empty(inwardgripper)</title>
<ellipse fill="#ffec8b" stroke="black" cx="3286.55" cy="-33.94" rx="174.81" ry="33.88"/>
<text text-anchor="middle" x="3286.55" y="-39.54" font-family="Times,serif" font-size="18.00">precondition:</text>
<text text-anchor="middle" x="3286.55" y="-19.54" font-family="Times,serif" font-size="18.00"> is_empty(inwardgripper)</text>
</g>
<!-- sequence:
 pick_up(left_hand, inwardgripper, chairnut1)&#45;&gt;precondition:
 is_empty(inwardgripper) -->
<g id="edge18" class="edge">
<title>sequence:
 pick_up(left_hand, inwardgripper, chairnut1)&#45;&gt;precondition:
 is_empty(inwardgripper)</title>
<path fill="none" stroke="black" d="M3442.71,-113.7C3417.4,-100.94 3385.41,-84.81 3356.99,-70.47"/>
<polygon fill="black" stroke="black" points="3358.41,-67.27 3347.9,-65.89 3355.26,-73.52 3358.41,-67.27"/>
</g>
<!-- precondition:
 hold(left_hand, inwardgripper) -->
<g id="node20" class="node">
<title>precondition:
 hold(left_hand, inwardgripper)</title>
<ellipse fill="#ffec8b" stroke="black" cx="3691.55" cy="-33.94" rx="212.68" ry="33.88"/>
<text text-anchor="middle" x="3691.55" y="-39.54" font-family="Times,serif" font-size="18.00">precondition:</text>
<text text-anchor="middle" x="3691.55" y="-19.54" font-family="Times,serif" font-size="18.00"> hold(left_hand, inwardgripper)</text>
</g>
<!-- sequence:
 pick_up(left_hand, inwardgripper, chairnut1)&#45;&gt;precondition:
 hold(left_hand, inwardgripper) -->
<g id="edge19" class="edge">
<title>sequence:
 pick_up(left_hand, inwardgripper, chairnut1)&#45;&gt;precondition:
 hold(left_hand, inwardgripper)</title>
<path fill="none" stroke="black" d="M3534.61,-113.7C3559.73,-101.1 3591.39,-85.21 3619.68,-71.01"/>
<polygon fill="black" stroke="black" points="3621.37,-74.08 3628.74,-66.46 3618.23,-67.82 3621.37,-74.08"/>
</g>
<!-- action:
 pick_up(left_hand, inwardgripper, chairnut1) -->
<g id="node21" class="node">
<title>action:
 pick_up(left_hand, inwardgripper, chairnut1)</title>
<ellipse fill="lightgreen" stroke="black" cx="4224.55" cy="-33.94" rx="302.78" ry="33.88"/>
<text text-anchor="middle" x="4224.55" y="-39.54" font-family="Times,serif" font-size="18.00">action:</text>
<text text-anchor="middle" x="4224.55" y="-19.54" font-family="Times,serif" font-size="18.00"> pick_up(left_hand, inwardgripper, chairnut1)</text>
</g>
<!-- sequence:
 pick_up(left_hand, inwardgripper, chairnut1)&#45;&gt;action:
 pick_up(left_hand, inwardgripper, chairnut1) -->
<g id="edge20" class="edge">
<title>sequence:
 pick_up(left_hand, inwardgripper, chairnut1)&#45;&gt;action:
 pick_up(left_hand, inwardgripper, chairnut1)</title>
<path fill="none" stroke="black" d="M3655.1,-113.77C3765.83,-98.44 3911.74,-78.24 4028.14,-62.13"/>
<polygon fill="black" stroke="black" points="4028.82,-65.57 4038.25,-60.73 4027.86,-58.63 4028.82,-65.57"/>
</g>
</g>
</svg>
