<?xml version="1.0" encoding="UTF-8" standalone="no"?>
<!DOCTYPE svg PUBLIC "-//W3C//DTD SVG 1.1//EN"
 "http://www.w3.org/Graphics/SVG/1.1/DTD/svg11.dtd">
<!-- Generated by graphviz version 2.43.0 (0)
 -->
<!-- Title: pastafarianism Pages: 1 -->
<svg width="5447pt" height="503pt"
 viewBox="0.00 0.00 5447.04 502.60" xmlns="http://www.w3.org/2000/svg" xmlns:xlink="http://www.w3.org/1999/xlink">
<g id="graph0" class="graph" transform="scale(1 1) rotate(0) translate(4 498.6)">
<title>pastafarianism</title>
<polygon fill="white" stroke="transparent" points="-4,4 -4,-498.6 5443.04,-498.6 5443.04,4 -4,4"/>
<!-- selector:
 insert_gear1_into_shaft1 -->
<g id="node1" class="node">
<title>selector:
 insert_gear1_into_shaft1</title>
<polygon fill="#8deeee" stroke="black" points="2012.37,-442.54 2012.37,-473.18 1902.52,-494.84 1747.16,-494.84 1637.31,-473.18 1637.31,-442.54 1747.16,-420.88 1902.52,-420.88 2012.37,-442.54"/>
<text text-anchor="middle" x="1824.84" y="-463.46" font-family="Times,serif" font-size="18.00">selector:</text>
<text text-anchor="middle" x="1824.84" y="-443.46" font-family="Times,serif" font-size="18.00"> insert_gear1_into_shaft1</text>
</g>
<!-- target:
 is_inserted_to(gear1, shaft1) -->
<g id="node2" class="node">
<title>target:
 is_inserted_to(gear1, shaft1)</title>
<ellipse fill="#ffec8b" stroke="black" cx="1655.84" cy="-351.18" rx="198.89" ry="33.88"/>
<text text-anchor="middle" x="1655.84" y="-356.78" font-family="Times,serif" font-size="18.00">target:</text>
<text text-anchor="middle" x="1655.84" y="-336.78" font-family="Times,serif" font-size="18.00"> is_inserted_to(gear1, shaft1)</text>
</g>
<!-- selector:
 insert_gear1_into_shaft1&#45;&gt;target:
 is_inserted_to(gear1, shaft1) -->
<g id="edge1" class="edge">
<title>selector:
 insert_gear1_into_shaft1&#45;&gt;target:
 is_inserted_to(gear1, shaft1)</title>
<path fill="none" stroke="black" d="M1766.68,-420.84C1750.25,-410.66 1732.36,-399.58 1715.83,-389.34"/>
<polygon fill="black" stroke="black" points="1717.67,-386.36 1707.32,-384.07 1713.98,-392.31 1717.67,-386.36"/>
</g>
<!-- sequence:
 insert_gear1_into_shaft1 -->
<g id="node3" class="node">
<title>sequence:
 insert_gear1_into_shaft1</title>
<polygon fill="#ff7f24" stroke="black" points="2117.34,-375.18 1872.34,-375.18 1872.34,-327.18 2117.34,-327.18 2117.34,-375.18"/>
<text text-anchor="middle" x="1994.84" y="-356.78" font-family="Times,serif" font-size="18.00">sequence:</text>
<text text-anchor="middle" x="1994.84" y="-336.78" font-family="Times,serif" font-size="18.00"> insert_gear1_into_shaft1</text>
</g>
<!-- selector:
 insert_gear1_into_shaft1&#45;&gt;sequence:
 insert_gear1_into_shaft1 -->
<g id="edge2" class="edge">
<title>selector:
 insert_gear1_into_shaft1&#45;&gt;sequence:
 insert_gear1_into_shaft1</title>
<path fill="none" stroke="black" d="M1883.34,-420.84C1904.68,-407.7 1928.49,-393.04 1948.61,-380.65"/>
<polygon fill="black" stroke="black" points="1950.6,-383.53 1957.28,-375.31 1946.93,-377.57 1950.6,-383.53"/>
</g>
<!-- selector:
 change_tool(left_hand, inwardgripper, parallelgripper) -->
<g id="node4" class="node">
<title>selector:
 change_tool(left_hand, inwardgripper, parallelgripper)</title>
<polygon fill="#8deeee" stroke="black" points="1497.17,-229.19 1497.17,-259.82 1266.18,-281.48 939.5,-281.48 708.51,-259.82 708.51,-229.19 939.5,-207.53 1266.18,-207.53 1497.17,-229.19"/>
<text text-anchor="middle" x="1102.84" y="-250.1" font-family="Times,serif" font-size="18.00">selector:</text>
<text text-anchor="middle" x="1102.84" y="-230.1" font-family="Times,serif" font-size="18.00"> change_tool(left_hand, inwardgripper, parallelgripper)</text>
</g>
<!-- sequence:
 insert_gear1_into_shaft1&#45;&gt;selector:
 change_tool(left_hand, inwardgripper, parallelgripper) -->
<g id="edge3" class="edge">
<title>sequence:
 insert_gear1_into_shaft1&#45;&gt;selector:
 change_tool(left_hand, inwardgripper, parallelgripper)</title>
<path fill="none" stroke="black" d="M1911.38,-327.18C1895.68,-323.43 1879.32,-319.9 1863.84,-317.24 1727.61,-293.83 1576.25,-277.6 1444.63,-266.57"/>
<polygon fill="black" stroke="black" points="1444.64,-263.06 1434.39,-265.72 1444.06,-270.04 1444.64,-263.06"/>
</g>
<!-- selector:
 pick_up(left_hand, parallelgripper, gear1) -->
<g id="node10" class="node">
<title>selector:
 pick_up(left_hand, parallelgripper, gear1)</title>
<polygon fill="#8deeee" stroke="black" points="2300.1,-229.19 2300.1,-259.82 2121.28,-281.48 1868.4,-281.48 1689.58,-259.82 1689.58,-229.19 1868.4,-207.53 2121.28,-207.53 2300.1,-229.19"/>
<text text-anchor="middle" x="1994.84" y="-250.1" font-family="Times,serif" font-size="18.00">selector:</text>
<text text-anchor="middle" x="1994.84" y="-230.1" font-family="Times,serif" font-size="18.00"> pick_up(left_hand, parallelgripper, gear1)</text>
</g>
<!-- sequence:
 insert_gear1_into_shaft1&#45;&gt;selector:
 pick_up(left_hand, parallelgripper, gear1) -->
<g id="edge9" class="edge">
<title>sequence:
 insert_gear1_into_shaft1&#45;&gt;selector:
 pick_up(left_hand, parallelgripper, gear1)</title>
<path fill="none" stroke="black" d="M1994.84,-326.95C1994.84,-316.5 1994.84,-303.79 1994.84,-291.54"/>
<polygon fill="black" stroke="black" points="1998.34,-291.42 1994.84,-281.42 1991.34,-291.42 1998.34,-291.42"/>
</g>
<!-- selector:
 insert(left_hand, parallelgripper, gear1, shaft1) -->
<g id="node17" class="node">
<title>selector:
 insert(left_hand, parallelgripper, gear1, shaft1)</title>
<polygon fill="#8deeee" stroke="black" points="3533.17,-229.19 3533.17,-259.82 3331.47,-281.48 3046.21,-281.48 2844.51,-259.82 2844.51,-229.19 3046.21,-207.53 3331.47,-207.53 3533.17,-229.19"/>
<text text-anchor="middle" x="3188.84" y="-250.1" font-family="Times,serif" font-size="18.00">selector:</text>
<text text-anchor="middle" x="3188.84" y="-230.1" font-family="Times,serif" font-size="18.00"> insert(left_hand, parallelgripper, gear1, shaft1)</text>
</g>
<!-- sequence:
 insert_gear1_into_shaft1&#45;&gt;selector:
 insert(left_hand, parallelgripper, gear1, shaft1) -->
<g id="edge16" class="edge">
<title>sequence:
 insert_gear1_into_shaft1&#45;&gt;selector:
 insert(left_hand, parallelgripper, gear1, shaft1)</title>
<path fill="none" stroke="black" d="M2117.56,-339.42C2304.38,-323.04 2664.85,-291.44 2915.79,-269.44"/>
<polygon fill="black" stroke="black" points="2916.13,-272.92 2925.79,-268.56 2915.52,-265.95 2916.13,-272.92"/>
</g>
<!-- target:
 hold(left_hand, parallelgripper) -->
<g id="node5" class="node">
<title>target:
 hold(left_hand, parallelgripper)</title>
<ellipse fill="#ffec8b" stroke="black" cx="609.84" cy="-137.82" rx="217.16" ry="33.88"/>
<text text-anchor="middle" x="609.84" y="-143.42" font-family="Times,serif" font-size="18.00">target:</text>
<text text-anchor="middle" x="609.84" y="-123.42" font-family="Times,serif" font-size="18.00"> hold(left_hand, parallelgripper)</text>
</g>
<!-- selector:
 change_tool(left_hand, inwardgripper, parallelgripper)&#45;&gt;target:
 hold(left_hand, parallelgripper) -->
<g id="edge4" class="edge">
<title>selector:
 change_tool(left_hand, inwardgripper, parallelgripper)&#45;&gt;target:
 hold(left_hand, parallelgripper)</title>
<path fill="none" stroke="black" d="M935.24,-207.92C873.5,-194.81 804.36,-180.13 745.75,-167.68"/>
<polygon fill="black" stroke="black" points="746.2,-164.2 735.69,-165.55 744.75,-171.05 746.2,-164.2"/>
</g>
<!-- sequence:
 change_tool(left_hand, inwardgripper, parallelgripper) -->
<g id="node6" class="node">
<title>sequence:
 change_tool(left_hand, inwardgripper, parallelgripper)</title>
<polygon fill="#ff7f24" stroke="black" points="1360.34,-161.82 845.34,-161.82 845.34,-113.82 1360.34,-113.82 1360.34,-161.82"/>
<text text-anchor="middle" x="1102.84" y="-143.42" font-family="Times,serif" font-size="18.00">sequence:</text>
<text text-anchor="middle" x="1102.84" y="-123.42" font-family="Times,serif" font-size="18.00"> change_tool(left_hand, inwardgripper, parallelgripper)</text>
</g>
<!-- selector:
 change_tool(left_hand, inwardgripper, parallelgripper)&#45;&gt;sequence:
 change_tool(left_hand, inwardgripper, parallelgripper) -->
<g id="edge5" class="edge">
<title>selector:
 change_tool(left_hand, inwardgripper, parallelgripper)&#45;&gt;sequence:
 change_tool(left_hand, inwardgripper, parallelgripper)</title>
<path fill="none" stroke="black" d="M1102.84,-207.48C1102.84,-196.09 1102.84,-183.57 1102.84,-172.36"/>
<polygon fill="black" stroke="black" points="1106.34,-172.11 1102.84,-162.11 1099.34,-172.11 1106.34,-172.11"/>
</g>
<!-- precondition:
 hold(left_hand, inwardgripper) -->
<g id="node7" class="node">
<title>precondition:
 hold(left_hand, inwardgripper)</title>
<ellipse fill="#ffec8b" stroke="black" cx="212.84" cy="-33.94" rx="212.68" ry="33.88"/>
<text text-anchor="middle" x="212.84" y="-39.54" font-family="Times,serif" font-size="18.00">precondition:</text>
<text text-anchor="middle" x="212.84" y="-19.54" font-family="Times,serif" font-size="18.00"> hold(left_hand, inwardgripper)</text>
</g>
<!-- sequence:
 change_tool(left_hand, inwardgripper, parallelgripper)&#45;&gt;precondition:
 hold(left_hand, inwardgripper) -->
<g id="edge6" class="edge">
<title>sequence:
 change_tool(left_hand, inwardgripper, parallelgripper)&#45;&gt;precondition:
 hold(left_hand, inwardgripper)</title>
<path fill="none" stroke="black" d="M923.05,-113.81C893.91,-110.32 864.05,-106.89 835.84,-103.88 657.46,-84.9 611.96,-89.11 433.84,-67.88 413.55,-65.46 392.26,-62.65 371.24,-59.7"/>
<polygon fill="black" stroke="black" points="371.67,-56.22 361.28,-58.29 370.69,-63.15 371.67,-56.22"/>
</g>
<!-- precondition:
 is_empty(inwardgripper) -->
<g id="node8" class="node">
<title>precondition:
 is_empty(inwardgripper)</title>
<ellipse fill="#ffec8b" stroke="black" cx="617.84" cy="-33.94" rx="174.81" ry="33.88"/>
<text text-anchor="middle" x="617.84" y="-39.54" font-family="Times,serif" font-size="18.00">precondition:</text>
<text text-anchor="middle" x="617.84" y="-19.54" font-family="Times,serif" font-size="18.00"> is_empty(inwardgripper)</text>
</g>
<!-- sequence:
 change_tool(left_hand, inwardgripper, parallelgripper)&#45;&gt;precondition:
 is_empty(inwardgripper) -->
<g id="edge7" class="edge">
<title>sequence:
 change_tool(left_hand, inwardgripper, parallelgripper)&#45;&gt;precondition:
 is_empty(inwardgripper)</title>
<path fill="none" stroke="black" d="M993.09,-113.77C918.99,-98.2 821,-77.62 743.73,-61.39"/>
<polygon fill="black" stroke="black" points="744.44,-57.96 733.94,-59.33 743,-64.81 744.44,-57.96"/>
</g>
<!-- action:
 change_tool(left_hand, inwardgripper, parallelgripper) -->
<g id="node9" class="node">
<title>action:
 change_tool(left_hand, inwardgripper, parallelgripper)</title>
<ellipse fill="lightgreen" stroke="black" cx="1174.84" cy="-33.94" rx="364.32" ry="33.88"/>
<text text-anchor="middle" x="1174.84" y="-39.54" font-family="Times,serif" font-size="18.00">action:</text>
<text text-anchor="middle" x="1174.84" y="-19.54" font-family="Times,serif" font-size="18.00"> change_tool(left_hand, inwardgripper, parallelgripper)</text>
</g>
<!-- sequence:
 change_tool(left_hand, inwardgripper, parallelgripper)&#45;&gt;action:
 change_tool(left_hand, inwardgripper, parallelgripper) -->
<g id="edge8" class="edge">
<title>sequence:
 change_tool(left_hand, inwardgripper, parallelgripper)&#45;&gt;action:
 change_tool(left_hand, inwardgripper, parallelgripper)</title>
<path fill="none" stroke="black" d="M1119.18,-113.7C1127.01,-102.63 1136.62,-89.02 1145.65,-76.25"/>
<polygon fill="black" stroke="black" points="1148.55,-78.2 1151.47,-68.01 1142.84,-74.16 1148.55,-78.2"/>
</g>
<!-- target:
 hold(parallelgripper, gear1) -->
<g id="node11" class="node">
<title>target:
 hold(parallelgripper, gear1)</title>
<ellipse fill="#ffec8b" stroke="black" cx="1850.84" cy="-137.82" rx="192.17" ry="33.88"/>
<text text-anchor="middle" x="1850.84" y="-143.42" font-family="Times,serif" font-size="18.00">target:</text>
<text text-anchor="middle" x="1850.84" y="-123.42" font-family="Times,serif" font-size="18.00"> hold(parallelgripper, gear1)</text>
</g>
<!-- selector:
 pick_up(left_hand, parallelgripper, gear1)&#45;&gt;target:
 hold(parallelgripper, gear1) -->
<g id="edge10" class="edge">
<title>selector:
 pick_up(left_hand, parallelgripper, gear1)&#45;&gt;target:
 hold(parallelgripper, gear1)</title>
<path fill="none" stroke="black" d="M1945.28,-207.48C1931.81,-197.68 1917.17,-187.04 1903.53,-177.12"/>
<polygon fill="black" stroke="black" points="1905.33,-174.11 1895.18,-171.06 1901.21,-179.77 1905.33,-174.11"/>
</g>
<!-- sequence:
 pick_up(left_hand, parallelgripper, gear1) -->
<g id="node12" class="node">
<title>sequence:
 pick_up(left_hand, parallelgripper, gear1)</title>
<polygon fill="#ff7f24" stroke="black" points="2460.34,-161.82 2061.34,-161.82 2061.34,-113.82 2460.34,-113.82 2460.34,-161.82"/>
<text text-anchor="middle" x="2260.84" y="-143.42" font-family="Times,serif" font-size="18.00">sequence:</text>
<text text-anchor="middle" x="2260.84" y="-123.42" font-family="Times,serif" font-size="18.00"> pick_up(left_hand, parallelgripper, gear1)</text>
</g>
<!-- selector:
 pick_up(left_hand, parallelgripper, gear1)&#45;&gt;sequence:
 pick_up(left_hand, parallelgripper, gear1) -->
<g id="edge11" class="edge">
<title>selector:
 pick_up(left_hand, parallelgripper, gear1)&#45;&gt;sequence:
 pick_up(left_hand, parallelgripper, gear1)</title>
<path fill="none" stroke="black" d="M2086.01,-207.62C2121.05,-193.83 2160.41,-178.35 2192.89,-165.56"/>
<polygon fill="black" stroke="black" points="2194.28,-168.78 2202.3,-161.86 2191.71,-162.27 2194.28,-168.78"/>
</g>
<!-- precondition:
 hold(left_hand, parallelgripper) -->
<g id="node13" class="node">
<title>precondition:
 hold(left_hand, parallelgripper)</title>
<ellipse fill="#ffec8b" stroke="black" cx="1773.84" cy="-33.94" rx="217.16" ry="33.88"/>
<text text-anchor="middle" x="1773.84" y="-39.54" font-family="Times,serif" font-size="18.00">precondition:</text>
<text text-anchor="middle" x="1773.84" y="-19.54" font-family="Times,serif" font-size="18.00"> hold(left_hand, parallelgripper)</text>
</g>
<!-- sequence:
 pick_up(left_hand, parallelgripper, gear1)&#45;&gt;precondition:
 hold(left_hand, parallelgripper) -->
<g id="edge12" class="edge">
<title>sequence:
 pick_up(left_hand, parallelgripper, gear1)&#45;&gt;precondition:
 hold(left_hand, parallelgripper)</title>
<path fill="none" stroke="black" d="M2150.64,-113.77C2079.61,-98.91 1986.71,-79.47 1910.93,-63.62"/>
<polygon fill="black" stroke="black" points="1911.34,-60.13 1900.83,-61.51 1909.9,-66.98 1911.34,-60.13"/>
</g>
<!-- precondition:
 is_empty(parallelgripper) -->
<g id="node14" class="node">
<title>precondition:
 is_empty(parallelgripper)</title>
<ellipse fill="#ffec8b" stroke="black" cx="2187.84" cy="-33.94" rx="178.8" ry="33.88"/>
<text text-anchor="middle" x="2187.84" y="-39.54" font-family="Times,serif" font-size="18.00">precondition:</text>
<text text-anchor="middle" x="2187.84" y="-19.54" font-family="Times,serif" font-size="18.00"> is_empty(parallelgripper)</text>
</g>
<!-- sequence:
 pick_up(left_hand, parallelgripper, gear1)&#45;&gt;precondition:
 is_empty(parallelgripper) -->
<g id="edge13" class="edge">
<title>sequence:
 pick_up(left_hand, parallelgripper, gear1)&#45;&gt;precondition:
 is_empty(parallelgripper)</title>
<path fill="none" stroke="black" d="M2244.27,-113.7C2236.27,-102.53 2226.42,-88.78 2217.2,-75.92"/>
<polygon fill="black" stroke="black" points="2219.93,-73.71 2211.26,-67.62 2214.24,-77.79 2219.93,-73.71"/>
</g>
<!-- precondition:
 can_manipulate(parallelgripper, gear1) -->
<g id="node15" class="node">
<title>precondition:
 can_manipulate(parallelgripper, gear1)</title>
<ellipse fill="#ffec8b" stroke="black" cx="2650.84" cy="-33.94" rx="265.74" ry="33.88"/>
<text text-anchor="middle" x="2650.84" y="-39.54" font-family="Times,serif" font-size="18.00">precondition:</text>
<text text-anchor="middle" x="2650.84" y="-19.54" font-family="Times,serif" font-size="18.00"> can_manipulate(parallelgripper, gear1)</text>
</g>
<!-- sequence:
 pick_up(left_hand, parallelgripper, gear1)&#45;&gt;precondition:
 can_manipulate(parallelgripper, gear1) -->
<g id="edge14" class="edge">
<title>sequence:
 pick_up(left_hand, parallelgripper, gear1)&#45;&gt;precondition:
 can_manipulate(parallelgripper, gear1)</title>
<path fill="none" stroke="black" d="M2349.34,-113.7C2401.92,-99.97 2469.4,-82.34 2527.19,-67.24"/>
<polygon fill="black" stroke="black" points="2528.33,-70.56 2537.12,-64.65 2526.56,-63.79 2528.33,-70.56"/>
</g>
<!-- action:
 pick_up(left_hand, parallelgripper, gear1) -->
<g id="node16" class="node">
<title>action:
 pick_up(left_hand, parallelgripper, gear1)</title>
<ellipse fill="lightgreen" stroke="black" cx="3216.84" cy="-33.94" rx="282.27" ry="33.88"/>
<text text-anchor="middle" x="3216.84" y="-39.54" font-family="Times,serif" font-size="18.00">action:</text>
<text text-anchor="middle" x="3216.84" y="-19.54" font-family="Times,serif" font-size="18.00"> pick_up(left_hand, parallelgripper, gear1)</text>
</g>
<!-- sequence:
 pick_up(left_hand, parallelgripper, gear1)&#45;&gt;action:
 pick_up(left_hand, parallelgripper, gear1) -->
<g id="edge15" class="edge">
<title>sequence:
 pick_up(left_hand, parallelgripper, gear1)&#45;&gt;action:
 pick_up(left_hand, parallelgripper, gear1)</title>
<path fill="none" stroke="black" d="M2460.59,-116.61C2592.67,-103.12 2769.62,-84.82 2925.84,-67.88 2951.95,-65.05 2979.37,-62.02 3006.51,-58.99"/>
<polygon fill="black" stroke="black" points="3006.95,-62.46 3016.5,-57.87 3006.17,-55.5 3006.95,-62.46"/>
</g>
<!-- &quot;target:\n is_inserted_to(gear1, shaft1)&quot;* -->
<g id="node18" class="node">
<title>&quot;target:\n is_inserted_to(gear1, shaft1)&quot;*</title>
<ellipse fill="#ffec8b" stroke="black" cx="3188.84" cy="-137.82" rx="211.35" ry="33.88"/>
<text text-anchor="middle" x="3188.84" y="-143.42" font-family="Times,serif" font-size="18.00">&quot;target:</text>
<text text-anchor="middle" x="3188.84" y="-123.42" font-family="Times,serif" font-size="18.00"> is_inserted_to(gear1, shaft1)&quot;*</text>
</g>
<!-- selector:
 insert(left_hand, parallelgripper, gear1, shaft1)&#45;&gt;&quot;target:\n is_inserted_to(gear1, shaft1)&quot;* -->
<g id="edge17" class="edge">
<title>selector:
 insert(left_hand, parallelgripper, gear1, shaft1)&#45;&gt;&quot;target:\n is_inserted_to(gear1, shaft1)&quot;*</title>
<path fill="none" stroke="black" d="M3188.84,-207.48C3188.84,-199.32 3188.84,-190.58 3188.84,-182.15"/>
<polygon fill="black" stroke="black" points="3192.34,-182.1 3188.84,-172.1 3185.34,-182.1 3192.34,-182.1"/>
</g>
<!-- sequence:
 insert(left_hand, parallelgripper, gear1, shaft1) -->
<g id="node19" class="node">
<title>sequence:
 insert(left_hand, parallelgripper, gear1, shaft1)</title>
<polygon fill="#ff7f24" stroke="black" points="4409.84,-161.82 3959.84,-161.82 3959.84,-113.82 4409.84,-113.82 4409.84,-161.82"/>
<text text-anchor="middle" x="4184.84" y="-143.42" font-family="Times,serif" font-size="18.00">sequence:</text>
<text text-anchor="middle" x="4184.84" y="-123.42" font-family="Times,serif" font-size="18.00"> insert(left_hand, parallelgripper, gear1, shaft1)</text>
</g>
<!-- selector:
 insert(left_hand, parallelgripper, gear1, shaft1)&#45;&gt;sequence:
 insert(left_hand, parallelgripper, gear1, shaft1) -->
<g id="edge18" class="edge">
<title>selector:
 insert(left_hand, parallelgripper, gear1, shaft1)&#45;&gt;sequence:
 insert(left_hand, parallelgripper, gear1, shaft1)</title>
<path fill="none" stroke="black" d="M3430.26,-218.13C3589.98,-201.34 3798.14,-179.47 3955.36,-162.94"/>
<polygon fill="black" stroke="black" points="3956.06,-166.39 3965.64,-161.86 3955.33,-159.43 3956.06,-166.39"/>
</g>
<!-- &quot;precondition:\n hold(left_hand, parallelgripper)&quot;* -->
<g id="node20" class="node">
<title>&quot;precondition:\n hold(left_hand, parallelgripper)&quot;*</title>
<ellipse fill="#ffec8b" stroke="black" cx="3745.84" cy="-33.94" rx="229.21" ry="33.88"/>
<text text-anchor="middle" x="3745.84" y="-39.54" font-family="Times,serif" font-size="18.00">&quot;precondition:</text>
<text text-anchor="middle" x="3745.84" y="-19.54" font-family="Times,serif" font-size="18.00"> hold(left_hand, parallelgripper)&quot;*</text>
</g>
<!-- sequence:
 insert(left_hand, parallelgripper, gear1, shaft1)&#45;&gt;&quot;precondition:\n hold(left_hand, parallelgripper)&quot;* -->
<g id="edge19" class="edge">
<title>sequence:
 insert(left_hand, parallelgripper, gear1, shaft1)&#45;&gt;&quot;precondition:\n hold(left_hand, parallelgripper)&quot;*</title>
<path fill="none" stroke="black" d="M4085.5,-113.77C4023.54,-99.39 3943.12,-80.73 3876.09,-65.17"/>
<polygon fill="black" stroke="black" points="3876.83,-61.75 3866.3,-62.9 3875.25,-68.57 3876.83,-61.75"/>
</g>
<!-- precondition:
 hold(parallelgripper, gear1) -->
<g id="node21" class="node">
<title>precondition:
 hold(parallelgripper, gear1)</title>
<ellipse fill="#ffec8b" stroke="black" cx="4184.84" cy="-33.94" rx="192.17" ry="33.88"/>
<text text-anchor="middle" x="4184.84" y="-39.54" font-family="Times,serif" font-size="18.00">precondition:</text>
<text text-anchor="middle" x="4184.84" y="-19.54" font-family="Times,serif" font-size="18.00"> hold(parallelgripper, gear1)</text>
</g>
<!-- sequence:
 insert(left_hand, parallelgripper, gear1, shaft1)&#45;&gt;precondition:
 hold(parallelgripper, gear1) -->
<g id="edge20" class="edge">
<title>sequence:
 insert(left_hand, parallelgripper, gear1, shaft1)&#45;&gt;precondition:
 hold(parallelgripper, gear1)</title>
<path fill="none" stroke="black" d="M4184.84,-113.7C4184.84,-103.16 4184.84,-90.31 4184.84,-78.08"/>
<polygon fill="black" stroke="black" points="4188.34,-78.01 4184.84,-68.01 4181.34,-78.01 4188.34,-78.01"/>
</g>
<!-- precondition:
 can_insert_to(gear1, shaft1) -->
<g id="node22" class="node">
<title>precondition:
 can_insert_to(gear1, shaft1)</title>
<ellipse fill="#ffec8b" stroke="black" cx="4589.84" cy="-33.94" rx="195.32" ry="33.88"/>
<text text-anchor="middle" x="4589.84" y="-39.54" font-family="Times,serif" font-size="18.00">precondition:</text>
<text text-anchor="middle" x="4589.84" y="-19.54" font-family="Times,serif" font-size="18.00"> can_insert_to(gear1, shaft1)</text>
</g>
<!-- sequence:
 insert(left_hand, parallelgripper, gear1, shaft1)&#45;&gt;precondition:
 can_insert_to(gear1, shaft1) -->
<g id="edge21" class="edge">
<title>sequence:
 insert(left_hand, parallelgripper, gear1, shaft1)&#45;&gt;precondition:
 can_insert_to(gear1, shaft1)</title>
<path fill="none" stroke="black" d="M4276.49,-113.77C4334.19,-99.25 4409.24,-80.37 4471.43,-64.73"/>
<polygon fill="black" stroke="black" points="4472.45,-68.08 4481.29,-62.25 4470.74,-61.29 4472.45,-68.08"/>
</g>
<!-- action:
 insert(left_hand, parallelgripper, gear1, shaft1) -->
<g id="node23" class="node">
<title>action:
 insert(left_hand, parallelgripper, gear1, shaft1)</title>
<ellipse fill="lightgreen" stroke="black" cx="5120.84" cy="-33.94" rx="318.4" ry="33.88"/>
<text text-anchor="middle" x="5120.84" y="-39.54" font-family="Times,serif" font-size="18.00">action:</text>
<text text-anchor="middle" x="5120.84" y="-19.54" font-family="Times,serif" font-size="18.00"> insert(left_hand, parallelgripper, gear1, shaft1)</text>
</g>
<!-- sequence:
 insert(left_hand, parallelgripper, gear1, shaft1)&#45;&gt;action:
 insert(left_hand, parallelgripper, gear1, shaft1) -->
<g id="edge22" class="edge">
<title>sequence:
 insert(left_hand, parallelgripper, gear1, shaft1)&#45;&gt;action:
 insert(left_hand, parallelgripper, gear1, shaft1)</title>
<path fill="none" stroke="black" d="M4396.35,-113.8C4544.08,-97.72 4741.14,-76.27 4892.44,-59.8"/>
<polygon fill="black" stroke="black" points="4893.24,-63.24 4902.8,-58.67 4892.48,-56.28 4893.24,-63.24"/>
</g>
</g>
</svg>
