<?xml version="1.0" encoding="UTF-8" standalone="no"?>
<!DOCTYPE svg PUBLIC "-//W3C//DTD SVG 1.1//EN"
 "http://www.w3.org/Graphics/SVG/1.1/DTD/svg11.dtd">
<!-- Generated by graphviz version 2.43.0 (0)
 -->
<!-- Title: pastafarianism Pages: 1 -->
<svg width="672pt" height="476pt"
 viewBox="0.00 0.00 672.44 476.00" xmlns="http://www.w3.org/2000/svg" xmlns:xlink="http://www.w3.org/1999/xlink">
<g id="graph0" class="graph" transform="scale(1 1) rotate(0) translate(4 472)">
<title>pastafarianism</title>
<polygon fill="white" stroke="transparent" points="-4,4 -4,-472 668.44,-472 668.44,4 -4,4"/>
<!-- Sequence -->
<g id="node1" class="node">
<title>Sequence</title>
<polygon fill="orange" stroke="black" points="311.9,-468 249.9,-468 249.9,-432 311.9,-432 311.9,-468"/>
<text text-anchor="middle" x="280.9" y="-447.8" font-family="Times,serif" font-size="9.00">Sequence</text>
</g>
<!-- Fallback -->
<g id="node2" class="node">
<title>Fallback</title>
<polygon fill="cyan" stroke="black" points="315.89,-370.54 315.89,-385.46 295.39,-396 266.4,-396 245.9,-385.46 245.9,-370.54 266.4,-360 295.39,-360 315.89,-370.54"/>
<text text-anchor="middle" x="280.9" y="-375.8" font-family="Times,serif" font-size="9.00">Fallback</text>
</g>
<!-- Sequence&#45;&gt;Fallback -->
<g id="edge1" class="edge">
<title>Sequence&#45;&gt;Fallback</title>
<path fill="none" stroke="black" d="M280.9,-431.7C280.9,-423.98 280.9,-414.71 280.9,-406.11"/>
<polygon fill="black" stroke="black" points="284.4,-406.1 280.9,-396.1 277.4,-406.1 284.4,-406.1"/>
</g>
<!-- object_at GreenBox [&#45;0.062, 0.002, 0.277] 0.007 KittingBox -->
<g id="node3" class="node">
<title>object_at GreenBox [&#45;0.062, 0.002, 0.277] 0.007 KittingBox</title>
<ellipse fill="lightgray" stroke="black" cx="170.9" cy="-306" rx="170.79" ry="18"/>
<text text-anchor="middle" x="170.9" y="-303.8" font-family="Times,serif" font-size="9.00">object_at GreenBox [&#45;0.062, 0.002, 0.277] 0.007 KittingBox</text>
</g>
<!-- Fallback&#45;&gt;object_at GreenBox [&#45;0.062, 0.002, 0.277] 0.007 KittingBox -->
<g id="edge2" class="edge">
<title>Fallback&#45;&gt;object_at GreenBox [&#45;0.062, 0.002, 0.277] 0.007 KittingBox</title>
<path fill="none" stroke="black" d="M259.43,-363.34C244.3,-353.71 223.72,-340.61 206.2,-329.47"/>
<polygon fill="black" stroke="black" points="207.68,-326.26 197.36,-323.84 203.92,-332.16 207.68,-326.26"/>
</g>
<!-- Sequence  -->
<g id="node4" class="node">
<title>Sequence </title>
<polygon fill="orange" stroke="black" points="421.9,-324 359.9,-324 359.9,-288 421.9,-288 421.9,-324"/>
<text text-anchor="middle" x="390.9" y="-303.8" font-family="Times,serif" font-size="9.00">Sequence</text>
</g>
<!-- Fallback&#45;&gt;Sequence  -->
<g id="edge3" class="edge">
<title>Fallback&#45;&gt;Sequence </title>
<path fill="none" stroke="black" d="M302.37,-363.34C317.38,-353.78 337.79,-340.8 355.22,-329.7"/>
<polygon fill="black" stroke="black" points="357.47,-332.42 364.03,-324.1 353.71,-326.52 357.47,-332.42"/>
</g>
<!-- Fallback  -->
<g id="node5" class="node">
<title>Fallback </title>
<polygon fill="cyan" stroke="black" points="316.89,-226.54 316.89,-241.46 296.39,-252 267.4,-252 246.9,-241.46 246.9,-226.54 267.4,-216 296.39,-216 316.89,-226.54"/>
<text text-anchor="middle" x="281.9" y="-231.8" font-family="Times,serif" font-size="9.00">Fallback</text>
</g>
<!-- Sequence &#45;&gt;Fallback  -->
<g id="edge4" class="edge">
<title>Sequence &#45;&gt;Fallback </title>
<path fill="none" stroke="black" d="M364.23,-287.88C348.38,-277.7 328.25,-264.77 311.85,-254.24"/>
<polygon fill="black" stroke="black" points="313.49,-251.13 303.18,-248.67 309.7,-257.02 313.49,-251.13"/>
</g>
<!-- place0 GreenBox [&#45;0.062, 0.002, 0.277] 0.007 KittingBox -->
<g id="node12" class="node">
<title>place0 GreenBox [&#45;0.062, 0.002, 0.277] 0.007 KittingBox</title>
<ellipse fill="lightgray" stroke="black" cx="499.9" cy="-234" rx="164.59" ry="18"/>
<text text-anchor="middle" x="499.9" y="-231.8" font-family="Times,serif" font-size="9.00">place0 GreenBox [&#45;0.062, 0.002, 0.277] 0.007 KittingBox</text>
</g>
<!-- Sequence &#45;&gt;place0 GreenBox [&#45;0.062, 0.002, 0.277] 0.007 KittingBox -->
<g id="edge11" class="edge">
<title>Sequence &#45;&gt;place0 GreenBox [&#45;0.062, 0.002, 0.277] 0.007 KittingBox</title>
<path fill="none" stroke="black" d="M417.56,-287.88C431.79,-278.74 449.47,-267.38 464.8,-257.54"/>
<polygon fill="black" stroke="black" points="466.98,-260.3 473.51,-251.95 463.2,-254.41 466.98,-260.3"/>
</g>
<!-- in_gripper GreenBox -->
<g id="node6" class="node">
<title>in_gripper GreenBox</title>
<ellipse fill="lightgray" stroke="black" cx="224.9" cy="-162" rx="65.64" ry="18"/>
<text text-anchor="middle" x="224.9" y="-159.8" font-family="Times,serif" font-size="9.00">in_gripper GreenBox</text>
</g>
<!-- Fallback &#45;&gt;in_gripper GreenBox -->
<g id="edge5" class="edge">
<title>Fallback &#45;&gt;in_gripper GreenBox</title>
<path fill="none" stroke="black" d="M267.81,-215.7C260.87,-207.18 252.39,-196.76 244.8,-187.45"/>
<polygon fill="black" stroke="black" points="247.46,-185.17 238.43,-179.62 242.03,-189.59 247.46,-185.17"/>
</g>
<!-- Sequence &#160; -->
<g id="node7" class="node">
<title>Sequence &#160;</title>
<polygon fill="orange" stroke="black" points="370.9,-180 308.9,-180 308.9,-144 370.9,-144 370.9,-180"/>
<text text-anchor="middle" x="339.9" y="-159.8" font-family="Times,serif" font-size="9.00">Sequence</text>
</g>
<!-- Fallback &#45;&gt;Sequence &#160; -->
<g id="edge6" class="edge">
<title>Fallback &#45;&gt;Sequence &#160;</title>
<path fill="none" stroke="black" d="M296.23,-215.7C303.19,-207.3 311.67,-197.07 319.3,-187.86"/>
<polygon fill="black" stroke="black" points="322.04,-190.04 325.72,-180.1 316.65,-185.57 322.04,-190.04"/>
</g>
<!-- Fallback &#160; -->
<g id="node8" class="node">
<title>Fallback &#160;</title>
<polygon fill="cyan" stroke="black" points="321.89,-82.54 321.89,-97.46 301.39,-108 272.4,-108 251.9,-97.46 251.9,-82.54 272.4,-72 301.39,-72 321.89,-82.54"/>
<text text-anchor="middle" x="286.9" y="-87.8" font-family="Times,serif" font-size="9.00">Fallback</text>
</g>
<!-- Sequence &#160;&#45;&gt;Fallback &#160; -->
<g id="edge7" class="edge">
<title>Sequence &#160;&#45;&gt;Fallback &#160;</title>
<path fill="none" stroke="black" d="M326.79,-143.7C320.5,-135.39 312.85,-125.28 305.93,-116.14"/>
<polygon fill="black" stroke="black" points="308.67,-113.96 299.85,-108.1 303.09,-118.19 308.67,-113.96"/>
</g>
<!-- pick0 GreenBox -->
<g id="node11" class="node">
<title>pick0 GreenBox</title>
<ellipse fill="lightgray" stroke="black" cx="392.9" cy="-90" rx="52.58" ry="18"/>
<text text-anchor="middle" x="392.9" y="-87.8" font-family="Times,serif" font-size="9.00">pick0 GreenBox</text>
</g>
<!-- Sequence &#160;&#45;&gt;pick0 GreenBox -->
<g id="edge10" class="edge">
<title>Sequence &#160;&#45;&gt;pick0 GreenBox</title>
<path fill="none" stroke="black" d="M353,-143.7C359.38,-135.27 367.17,-124.97 374.17,-115.73"/>
<polygon fill="black" stroke="black" points="377.06,-117.71 380.31,-107.62 371.48,-113.48 377.06,-117.71"/>
</g>
<!-- gripper_state open -->
<g id="node9" class="node">
<title>gripper_state open</title>
<ellipse fill="lightgray" stroke="black" cx="224.9" cy="-18" rx="60.09" ry="18"/>
<text text-anchor="middle" x="224.9" y="-15.8" font-family="Times,serif" font-size="9.00">gripper_state open</text>
</g>
<!-- Fallback &#160;&#45;&gt;gripper_state open -->
<g id="edge8" class="edge">
<title>Fallback &#160;&#45;&gt;gripper_state open</title>
<path fill="none" stroke="black" d="M271.89,-72.05C264.27,-63.46 254.88,-52.86 246.5,-43.4"/>
<polygon fill="black" stroke="black" points="249.02,-40.95 239.77,-35.79 243.78,-45.6 249.02,-40.95"/>
</g>
<!-- open_gripper -->
<g id="node10" class="node">
<title>open_gripper</title>
<ellipse fill="lightgray" stroke="black" cx="348.9" cy="-18" rx="45.72" ry="18"/>
<text text-anchor="middle" x="348.9" y="-15.8" font-family="Times,serif" font-size="9.00">open_gripper</text>
</g>
<!-- Fallback &#160;&#45;&gt;open_gripper -->
<g id="edge9" class="edge">
<title>Fallback &#160;&#45;&gt;open_gripper</title>
<path fill="none" stroke="black" d="M301.9,-72.05C309.63,-63.33 319.18,-52.54 327.66,-42.98"/>
<polygon fill="black" stroke="black" points="330.44,-45.11 334.45,-35.31 325.2,-40.47 330.44,-45.11"/>
</g>
</g>
</svg>
