<?xml version="1.0" encoding="UTF-8" standalone="no"?>
<!DOCTYPE svg PUBLIC "-//W3C//DTD SVG 1.1//EN"
 "http://www.w3.org/Graphics/SVG/1.1/DTD/svg11.dtd">
<!-- Generated by graphviz version 2.43.0 (0)
 -->
<!-- Title: BT Pages: 1 -->
<svg width="565pt" height="462pt"
 viewBox="0.00 0.00 564.74 462.00" xmlns="http://www.w3.org/2000/svg" xmlns:xlink="http://www.w3.org/1999/xlink">
<g id="graph0" class="graph" transform="scale(1 1) rotate(0) translate(4 458)">
<title>BT</title>
<polygon fill="white" stroke="transparent" points="-4,4 -4,-458 560.74,-458 560.74,4 -4,4"/>
<!-- n1 -->
<g id="node1" class="node">
<title>n1</title>
<polygon fill="none" stroke="black" points="259.24,-454 230.24,-454 230.24,-425 259.24,-425 259.24,-454"/>
<text text-anchor="middle" x="244.74" y="-435.8" font-family="Times,serif" font-size="14.00">→</text>
</g>
<!-- n2 -->
<g id="node2" class="node">
<title>n2</title>
<polygon fill="none" stroke="black" points="259.24,-389 230.24,-389 230.24,-360 259.24,-360 259.24,-389"/>
<text text-anchor="middle" x="244.74" y="-370.8" font-family="Times,serif" font-size="14.00">?</text>
</g>
<!-- n1&#45;&gt;n2 -->
<g id="edge11" class="edge">
<title>n1&#45;&gt;n2</title>
<path fill="none" stroke="black" d="M244.74,-424.83C244.74,-417.4 244.74,-408 244.74,-399.4"/>
<polygon fill="black" stroke="black" points="248.24,-399.14 244.74,-389.14 241.24,-399.14 248.24,-399.14"/>
</g>
<!-- n3 -->
<g id="node3" class="node">
<title>n3</title>
<ellipse fill="none" stroke="black" cx="152.74" cy="-306" rx="152.97" ry="18"/>
<text text-anchor="middle" x="152.74" y="-302.3" font-family="Times,serif" font-size="14.00">GreenBox at p1 in KittingBox?</text>
</g>
<!-- n2&#45;&gt;n3 -->
<g id="edge1" class="edge">
<title>n2&#45;&gt;n3</title>
<path fill="none" stroke="black" d="M229.96,-362.82C217.7,-353.96 199.84,-341.05 184.39,-329.88"/>
<polygon fill="black" stroke="black" points="186.25,-326.91 176.1,-323.89 182.15,-332.58 186.25,-326.91"/>
</g>
<!-- n4 -->
<g id="node4" class="node">
<title>n4</title>
<polygon fill="none" stroke="black" points="352.24,-320.5 323.24,-320.5 323.24,-291.5 352.24,-291.5 352.24,-320.5"/>
<text text-anchor="middle" x="337.74" y="-302.3" font-family="Times,serif" font-size="14.00">→</text>
</g>
<!-- n2&#45;&gt;n4 -->
<g id="edge10" class="edge">
<title>n2&#45;&gt;n4</title>
<path fill="none" stroke="black" d="M259.28,-363.35C273.48,-353.41 295.68,-337.78 314.74,-324 314.82,-323.94 314.91,-323.88 314.99,-323.81"/>
<polygon fill="black" stroke="black" points="317.16,-326.56 323.17,-317.84 313.03,-320.91 317.16,-326.56"/>
</g>
<!-- n5 -->
<g id="node5" class="node">
<title>n5</title>
<polygon fill="none" stroke="black" points="268.24,-248.5 239.24,-248.5 239.24,-219.5 268.24,-219.5 268.24,-248.5"/>
<text text-anchor="middle" x="253.74" y="-230.3" font-family="Times,serif" font-size="14.00">?</text>
</g>
<!-- n4&#45;&gt;n5 -->
<g id="edge8" class="edge">
<title>n4&#45;&gt;n5</title>
<path fill="none" stroke="black" d="M323.1,-292.81C310.18,-282.03 291.12,-266.15 276.25,-253.76"/>
<polygon fill="black" stroke="black" points="278.41,-251 268.48,-247.29 273.92,-256.38 278.41,-251"/>
</g>
<!-- n12 -->
<g id="node12" class="node">
<title>n12</title>
<polygon fill="none" stroke="black" points="556.74,-252 286.74,-252 286.74,-216 556.74,-216 556.74,-252"/>
<text text-anchor="middle" x="421.74" y="-230.3" font-family="Times,serif" font-size="14.00">Place GreenBox at p1 in KittingBox</text>
</g>
<!-- n4&#45;&gt;n12 -->
<g id="edge9" class="edge">
<title>n4&#45;&gt;n12</title>
<path fill="none" stroke="black" d="M352.37,-292.81C363.68,-283.38 379.7,-270.03 393.49,-258.54"/>
<polygon fill="black" stroke="black" points="395.85,-261.13 401.3,-252.03 391.37,-255.75 395.85,-261.13"/>
</g>
<!-- n6 -->
<g id="node6" class="node">
<title>n6</title>
<ellipse fill="none" stroke="black" cx="181.74" cy="-162" rx="111.28" ry="18"/>
<text text-anchor="middle" x="181.74" y="-158.3" font-family="Times,serif" font-size="14.00">In gripper GreenBox?</text>
</g>
<!-- n5&#45;&gt;n6 -->
<g id="edge2" class="edge">
<title>n5&#45;&gt;n6</title>
<path fill="none" stroke="black" d="M239.51,-219.17C230.12,-210.04 217.57,-197.83 206.56,-187.13"/>
<polygon fill="black" stroke="black" points="208.85,-184.48 199.24,-180.02 203.97,-189.5 208.85,-184.48"/>
</g>
<!-- n7 -->
<g id="node7" class="node">
<title>n7</title>
<polygon fill="none" stroke="black" points="340.24,-176.5 311.24,-176.5 311.24,-147.5 340.24,-147.5 340.24,-176.5"/>
<text text-anchor="middle" x="325.74" y="-158.3" font-family="Times,serif" font-size="14.00">→</text>
</g>
<!-- n5&#45;&gt;n7 -->
<g id="edge7" class="edge">
<title>n5&#45;&gt;n7</title>
<path fill="none" stroke="black" d="M267.96,-219.17C278.32,-209.1 292.52,-195.29 304.25,-183.89"/>
<polygon fill="black" stroke="black" points="306.81,-186.28 311.54,-176.8 301.93,-181.26 306.81,-186.28"/>
</g>
<!-- n8 -->
<g id="node8" class="node">
<title>n8</title>
<polygon fill="none" stroke="black" points="293.24,-104.5 264.24,-104.5 264.24,-75.5 293.24,-75.5 293.24,-104.5"/>
<text text-anchor="middle" x="278.74" y="-86.3" font-family="Times,serif" font-size="14.00">?</text>
</g>
<!-- n7&#45;&gt;n8 -->
<g id="edge5" class="edge">
<title>n7&#45;&gt;n8</title>
<path fill="none" stroke="black" d="M316.45,-147.17C309.95,-137.49 301.12,-124.34 293.64,-113.2"/>
<polygon fill="black" stroke="black" points="296.48,-111.15 288,-104.8 290.67,-115.05 296.48,-111.15"/>
</g>
<!-- n11 -->
<g id="node11" class="node">
<title>n11</title>
<polygon fill="none" stroke="black" points="433.74,-108 311.74,-108 311.74,-72 433.74,-72 433.74,-108"/>
<text text-anchor="middle" x="372.74" y="-86.3" font-family="Times,serif" font-size="14.00">Pick GreenBox</text>
</g>
<!-- n7&#45;&gt;n11 -->
<g id="edge6" class="edge">
<title>n7&#45;&gt;n11</title>
<path fill="none" stroke="black" d="M335.02,-147.17C340.92,-138.39 348.72,-126.77 355.7,-116.37"/>
<polygon fill="black" stroke="black" points="358.64,-118.27 361.31,-108.02 352.83,-114.37 358.64,-118.27"/>
</g>
<!-- n9 -->
<g id="node9" class="node">
<title>n9</title>
<ellipse fill="none" stroke="black" cx="196.74" cy="-18" rx="77.19" ry="18"/>
<text text-anchor="middle" x="196.74" y="-14.3" font-family="Times,serif" font-size="14.00">Gripper open?</text>
</g>
<!-- n8&#45;&gt;n9 -->
<g id="edge3" class="edge">
<title>n8&#45;&gt;n9</title>
<path fill="none" stroke="black" d="M264.08,-76.49C253.01,-67.04 237.51,-53.81 224.17,-42.42"/>
<polygon fill="black" stroke="black" points="226.08,-39.45 216.2,-35.62 221.54,-44.77 226.08,-39.45"/>
</g>
<!-- n10 -->
<g id="node10" class="node">
<title>n10</title>
<polygon fill="none" stroke="black" points="429.24,-36 292.24,-36 292.24,0 429.24,0 429.24,-36"/>
<text text-anchor="middle" x="360.74" y="-14.3" font-family="Times,serif" font-size="14.00">Set gripper open</text>
</g>
<!-- n8&#45;&gt;n10 -->
<g id="edge4" class="edge">
<title>n8&#45;&gt;n10</title>
<path fill="none" stroke="black" d="M293.4,-76.49C304.31,-67.17 319.53,-54.17 332.75,-42.89"/>
<polygon fill="black" stroke="black" points="335.33,-45.29 340.66,-36.14 330.78,-39.97 335.33,-45.29"/>
</g>
</g>
</svg>
