<?xml version="1.0" encoding="UTF-8" standalone="no"?>
<!DOCTYPE svg PUBLIC "-//W3C//DTD SVG 1.1//EN"
 "http://www.w3.org/Graphics/SVG/1.1/DTD/svg11.dtd">
<!-- Generated by graphviz version 2.43.0 (0)
 -->
<!-- Title: pastafarianism Pages: 1 -->
<svg width="423pt" height="476pt"
 viewBox="0.00 0.00 423.30 476.00" xmlns="http://www.w3.org/2000/svg" xmlns:xlink="http://www.w3.org/1999/xlink">
<g id="graph0" class="graph" transform="scale(1 1) rotate(0) translate(4 472)">
<title>pastafarianism</title>
<polygon fill="white" stroke="transparent" points="-4,4 -4,-472 419.3,-472 419.3,4 -4,4"/>
<!-- Sequence -->
<g id="node1" class="node">
<title>Sequence</title>
<polygon fill="orange" stroke="black" points="192.22,-468 130.22,-468 130.22,-432 192.22,-432 192.22,-468"/>
<text text-anchor="middle" x="161.22" y="-447.8" font-family="Times,serif" font-size="9.00">Sequence</text>
</g>
<!-- Fallback -->
<g id="node2" class="node">
<title>Fallback</title>
<polygon fill="cyan" stroke="black" points="196.21,-370.54 196.21,-385.46 175.72,-396 146.73,-396 126.23,-385.46 126.23,-370.54 146.73,-360 175.72,-360 196.21,-370.54"/>
<text text-anchor="middle" x="161.22" y="-375.8" font-family="Times,serif" font-size="9.00">Fallback</text>
</g>
<!-- Sequence&#45;&gt;Fallback -->
<g id="edge1" class="edge">
<title>Sequence&#45;&gt;Fallback</title>
<path fill="none" stroke="black" d="M161.22,-431.7C161.22,-423.98 161.22,-414.71 161.22,-406.11"/>
<polygon fill="black" stroke="black" points="164.72,-406.1 161.22,-396.1 157.72,-406.1 164.72,-406.1"/>
</g>
<!-- GreenBox at p1 in KittingBox? -->
<g id="node3" class="node">
<title>GreenBox at p1 in KittingBox?</title>
<ellipse fill="lightgray" stroke="black" cx="91.22" cy="-306" rx="91.44" ry="18"/>
<text text-anchor="middle" x="91.22" y="-303.8" font-family="Times,serif" font-size="9.00">GreenBox at p1 in KittingBox?</text>
</g>
<!-- Fallback&#45;&gt;GreenBox at p1 in KittingBox? -->
<g id="edge2" class="edge">
<title>Fallback&#45;&gt;GreenBox at p1 in KittingBox?</title>
<path fill="none" stroke="black" d="M144.99,-360.76C136.23,-352.01 125.25,-341.03 115.5,-331.28"/>
<polygon fill="black" stroke="black" points="117.89,-328.72 108.35,-324.12 112.94,-333.67 117.89,-328.72"/>
</g>
<!-- Sequence  -->
<g id="node4" class="node">
<title>Sequence </title>
<polygon fill="orange" stroke="black" points="262.22,-324 200.22,-324 200.22,-288 262.22,-288 262.22,-324"/>
<text text-anchor="middle" x="231.22" y="-303.8" font-family="Times,serif" font-size="9.00">Sequence</text>
</g>
<!-- Fallback&#45;&gt;Sequence  -->
<g id="edge3" class="edge">
<title>Fallback&#45;&gt;Sequence </title>
<path fill="none" stroke="black" d="M177.46,-360.76C186.21,-352.01 197.19,-341.03 206.94,-331.28"/>
<polygon fill="black" stroke="black" points="209.5,-333.67 214.1,-324.12 204.55,-328.72 209.5,-333.67"/>
</g>
<!-- Fallback  -->
<g id="node5" class="node">
<title>Fallback </title>
<polygon fill="cyan" stroke="black" points="187.21,-226.54 187.21,-241.46 166.72,-252 137.73,-252 117.23,-241.46 117.23,-226.54 137.73,-216 166.72,-216 187.21,-226.54"/>
<text text-anchor="middle" x="152.22" y="-231.8" font-family="Times,serif" font-size="9.00">Fallback</text>
</g>
<!-- Sequence &#45;&gt;Fallback  -->
<g id="edge4" class="edge">
<title>Sequence &#45;&gt;Fallback </title>
<path fill="none" stroke="black" d="M211.69,-287.7C201.4,-278.57 188.65,-267.28 177.6,-257.48"/>
<polygon fill="black" stroke="black" points="179.71,-254.68 169.91,-250.67 175.07,-259.92 179.71,-254.68"/>
</g>
<!-- Place GreenBox at p1 in KittingBox -->
<g id="node12" class="node">
<title>Place GreenBox at p1 in KittingBox</title>
<ellipse fill="lightgray" stroke="black" cx="310.22" cy="-234" rx="105.16" ry="18"/>
<text text-anchor="middle" x="310.22" y="-231.8" font-family="Times,serif" font-size="9.00">Place GreenBox at p1 in KittingBox</text>
</g>
<!-- Sequence &#45;&gt;Place GreenBox at p1 in KittingBox -->
<g id="edge11" class="edge">
<title>Sequence &#45;&gt;Place GreenBox at p1 in KittingBox</title>
<path fill="none" stroke="black" d="M250.75,-287.7C260.68,-278.9 272.89,-268.08 283.66,-258.54"/>
<polygon fill="black" stroke="black" points="286.03,-261.11 291.19,-251.86 281.38,-255.88 286.03,-261.11"/>
</g>
<!-- In gripper GreenBox? -->
<g id="node6" class="node">
<title>In gripper GreenBox?</title>
<ellipse fill="lightgray" stroke="black" cx="94.22" cy="-162" rx="68.25" ry="18"/>
<text text-anchor="middle" x="94.22" y="-159.8" font-family="Times,serif" font-size="9.00">In gripper GreenBox?</text>
</g>
<!-- Fallback &#45;&gt;In gripper GreenBox? -->
<g id="edge5" class="edge">
<title>Fallback &#45;&gt;In gripper GreenBox?</title>
<path fill="none" stroke="black" d="M137.88,-215.7C130.93,-207.3 122.45,-197.07 114.82,-187.86"/>
<polygon fill="black" stroke="black" points="117.47,-185.57 108.39,-180.1 112.08,-190.04 117.47,-185.57"/>
</g>
<!-- Sequence &#160; -->
<g id="node7" class="node">
<title>Sequence &#160;</title>
<polygon fill="orange" stroke="black" points="242.22,-180 180.22,-180 180.22,-144 242.22,-144 242.22,-180"/>
<text text-anchor="middle" x="211.22" y="-159.8" font-family="Times,serif" font-size="9.00">Sequence</text>
</g>
<!-- Fallback &#45;&gt;Sequence &#160; -->
<g id="edge6" class="edge">
<title>Fallback &#45;&gt;Sequence &#160;</title>
<path fill="none" stroke="black" d="M166.81,-215.7C173.88,-207.3 182.5,-197.07 190.27,-187.86"/>
<polygon fill="black" stroke="black" points="193.04,-190.01 196.8,-180.1 187.68,-185.49 193.04,-190.01"/>
</g>
<!-- Fallback &#160; -->
<g id="node8" class="node">
<title>Fallback &#160;</title>
<polygon fill="cyan" stroke="black" points="195.21,-82.54 195.21,-97.46 174.72,-108 145.73,-108 125.23,-97.46 125.23,-82.54 145.73,-72 174.72,-72 195.21,-82.54"/>
<text text-anchor="middle" x="160.22" y="-87.8" font-family="Times,serif" font-size="9.00">Fallback</text>
</g>
<!-- Sequence &#160;&#45;&gt;Fallback &#160; -->
<g id="edge7" class="edge">
<title>Sequence &#160;&#45;&gt;Fallback &#160;</title>
<path fill="none" stroke="black" d="M198.61,-143.7C192.62,-135.47 185.34,-125.48 178.74,-116.42"/>
<polygon fill="black" stroke="black" points="181.4,-114.13 172.68,-108.1 175.74,-118.25 181.4,-114.13"/>
</g>
<!-- Pick GreenBox -->
<g id="node11" class="node">
<title>Pick GreenBox</title>
<ellipse fill="lightgray" stroke="black" cx="262.22" cy="-90" rx="49.15" ry="18"/>
<text text-anchor="middle" x="262.22" y="-87.8" font-family="Times,serif" font-size="9.00">Pick GreenBox</text>
</g>
<!-- Sequence &#160;&#45;&gt;Pick GreenBox -->
<g id="edge10" class="edge">
<title>Sequence &#160;&#45;&gt;Pick GreenBox</title>
<path fill="none" stroke="black" d="M223.83,-143.7C229.97,-135.27 237.47,-124.97 244.2,-115.73"/>
<polygon fill="black" stroke="black" points="247.05,-117.77 250.11,-107.62 241.39,-113.64 247.05,-117.77"/>
</g>
<!-- Gripper open? -->
<g id="node9" class="node">
<title>Gripper open?</title>
<ellipse fill="lightgray" stroke="black" cx="100.22" cy="-18" rx="47.84" ry="18"/>
<text text-anchor="middle" x="100.22" y="-15.8" font-family="Times,serif" font-size="9.00">Gripper open?</text>
</g>
<!-- Fallback &#160;&#45;&gt;Gripper open? -->
<g id="edge8" class="edge">
<title>Fallback &#160;&#45;&gt;Gripper open?</title>
<path fill="none" stroke="black" d="M145.39,-71.7C138.09,-63.18 129.16,-52.76 121.18,-43.45"/>
<polygon fill="black" stroke="black" points="123.63,-40.94 114.47,-35.62 118.32,-45.49 123.63,-40.94"/>
</g>
<!-- Set gripper open -->
<g id="node10" class="node">
<title>Set gripper open</title>
<ellipse fill="lightgray" stroke="black" cx="221.22" cy="-18" rx="54.7" ry="18"/>
<text text-anchor="middle" x="221.22" y="-15.8" font-family="Times,serif" font-size="9.00">Set gripper open</text>
</g>
<!-- Fallback &#160;&#45;&gt;Set gripper open -->
<g id="edge9" class="edge">
<title>Fallback &#160;&#45;&gt;Set gripper open</title>
<path fill="none" stroke="black" d="M174.99,-72.05C182.48,-63.46 191.72,-52.86 199.96,-43.4"/>
<polygon fill="black" stroke="black" points="202.66,-45.63 206.59,-35.79 197.38,-41.03 202.66,-45.63"/>
</g>
</g>
</svg>
