<?xml version="1.0" encoding="UTF-8" standalone="no"?>
<!DOCTYPE svg PUBLIC "-//W3C//DTD SVG 1.1//EN"
 "http://www.w3.org/Graphics/SVG/1.1/DTD/svg11.dtd">
<!-- Generated by graphviz version 2.43.0 (0)
 -->
<!-- Title: pastafarianism Pages: 1 -->
<svg width="3380pt" height="503pt"
 viewBox="0.00 0.00 3380.43 502.60" xmlns="http://www.w3.org/2000/svg" xmlns:xlink="http://www.w3.org/1999/xlink">
<g id="graph0" class="graph" transform="scale(1 1) rotate(0) translate(4 498.6)">
<title>pastafarianism</title>
<polygon fill="white" stroke="transparent" points="-4,4 -4,-498.6 3376.43,-498.6 3376.43,4 -4,4"/>
<!-- selector:
 insert_shaft3_into_gearbase_hole3 -->
<g id="node1" class="node">
<title>selector:
 insert_shaft3_into_gearbase_hole3</title>
<polygon fill="#8deeee" stroke="black" points="2004.31,-442.54 2004.31,-473.18 1854.49,-494.84 1642.6,-494.84 1492.78,-473.18 1492.78,-442.54 1642.6,-420.88 1854.49,-420.88 2004.31,-442.54"/>
<text text-anchor="middle" x="1748.55" y="-463.46" font-family="Times,serif" font-size="18.00">selector:</text>
<text text-anchor="middle" x="1748.55" y="-443.46" font-family="Times,serif" font-size="18.00"> insert_shaft3_into_gearbase_hole3</text>
</g>
<!-- target:
 is_inserted_to(shaft3, gearbase_hole3) -->
<g id="node2" class="node">
<title>target:
 is_inserted_to(shaft3, gearbase_hole3)</title>
<ellipse fill="#ffec8b" stroke="black" cx="1525.55" cy="-351.18" rx="261.76" ry="33.88"/>
<text text-anchor="middle" x="1525.55" y="-356.78" font-family="Times,serif" font-size="18.00">target:</text>
<text text-anchor="middle" x="1525.55" y="-336.78" font-family="Times,serif" font-size="18.00"> is_inserted_to(shaft3, gearbase_hole3)</text>
</g>
<!-- selector:
 insert_shaft3_into_gearbase_hole3&#45;&gt;target:
 is_inserted_to(shaft3, gearbase_hole3) -->
<g id="edge1" class="edge">
<title>selector:
 insert_shaft3_into_gearbase_hole3&#45;&gt;target:
 is_inserted_to(shaft3, gearbase_hole3)</title>
<path fill="none" stroke="black" d="M1672.11,-420.98C1649.62,-410.42 1625,-398.87 1602.48,-388.29"/>
<polygon fill="black" stroke="black" points="1603.84,-385.06 1593.3,-383.98 1600.86,-391.4 1603.84,-385.06"/>
</g>
<!-- sequence:
 insert_shaft3_into_gearbase_hole3 -->
<g id="node3" class="node">
<title>sequence:
 insert_shaft3_into_gearbase_hole3</title>
<polygon fill="#ff7f24" stroke="black" points="2139.55,-375.18 1805.55,-375.18 1805.55,-327.18 2139.55,-327.18 2139.55,-375.18"/>
<text text-anchor="middle" x="1972.55" y="-356.78" font-family="Times,serif" font-size="18.00">sequence:</text>
<text text-anchor="middle" x="1972.55" y="-336.78" font-family="Times,serif" font-size="18.00"> insert_shaft3_into_gearbase_hole3</text>
</g>
<!-- selector:
 insert_shaft3_into_gearbase_hole3&#45;&gt;sequence:
 insert_shaft3_into_gearbase_hole3 -->
<g id="edge2" class="edge">
<title>selector:
 insert_shaft3_into_gearbase_hole3&#45;&gt;sequence:
 insert_shaft3_into_gearbase_hole3</title>
<path fill="none" stroke="black" d="M1825.32,-420.98C1854.32,-407.43 1886.83,-392.24 1913.91,-379.58"/>
<polygon fill="black" stroke="black" points="1915.67,-382.62 1923.25,-375.22 1912.71,-376.28 1915.67,-382.62"/>
</g>
<!-- selector:
 change_tool(left_hand, inwardgripper, defaultgripper) -->
<g id="node4" class="node">
<title>selector:
 change_tool(left_hand, inwardgripper, defaultgripper)</title>
<polygon fill="#8deeee" stroke="black" points="1090.72,-229.19 1090.72,-259.82 862.16,-281.48 538.93,-281.48 310.37,-259.82 310.37,-229.19 538.93,-207.53 862.16,-207.53 1090.72,-229.19"/>
<text text-anchor="middle" x="700.55" y="-250.1" font-family="Times,serif" font-size="18.00">selector:</text>
<text text-anchor="middle" x="700.55" y="-230.1" font-family="Times,serif" font-size="18.00"> change_tool(left_hand, inwardgripper, defaultgripper)</text>
</g>
<!-- sequence:
 insert_shaft3_into_gearbase_hole3&#45;&gt;selector:
 change_tool(left_hand, inwardgripper, defaultgripper) -->
<g id="edge3" class="edge">
<title>sequence:
 insert_shaft3_into_gearbase_hole3&#45;&gt;selector:
 change_tool(left_hand, inwardgripper, defaultgripper)</title>
<path fill="none" stroke="black" d="M1861.63,-327.11C1840.12,-323.29 1817.69,-319.76 1796.55,-317.24 1493.39,-281.08 1415.11,-302.5 1110.55,-281.24 1070.05,-278.41 1027.33,-275.08 985.37,-271.61"/>
<polygon fill="black" stroke="black" points="985.55,-268.11 975.29,-270.77 984.97,-275.08 985.55,-268.11"/>
</g>
<!-- selector:
 pick_up(left_hand, defaultgripper, shaft3) -->
<g id="node10" class="node">
<title>selector:
 pick_up(left_hand, defaultgripper, shaft3)</title>
<polygon fill="#8deeee" stroke="black" points="1729.28,-229.19 1729.28,-259.82 1550.77,-281.48 1298.32,-281.48 1119.81,-259.82 1119.81,-229.19 1298.32,-207.53 1550.77,-207.53 1729.28,-229.19"/>
<text text-anchor="middle" x="1424.55" y="-250.1" font-family="Times,serif" font-size="18.00">selector:</text>
<text text-anchor="middle" x="1424.55" y="-230.1" font-family="Times,serif" font-size="18.00"> pick_up(left_hand, defaultgripper, shaft3)</text>
</g>
<!-- sequence:
 insert_shaft3_into_gearbase_hole3&#45;&gt;selector:
 pick_up(left_hand, defaultgripper, shaft3) -->
<g id="edge9" class="edge">
<title>sequence:
 insert_shaft3_into_gearbase_hole3&#45;&gt;selector:
 pick_up(left_hand, defaultgripper, shaft3)</title>
<path fill="none" stroke="black" d="M1851.95,-327.14C1777.68,-312.96 1681.23,-294.53 1598.75,-278.78"/>
<polygon fill="black" stroke="black" points="1599.24,-275.31 1588.76,-276.87 1597.93,-282.19 1599.24,-275.31"/>
</g>
<!-- &quot;precondition:\n hold(left_hand, defaultgripper)&quot;* -->
<g id="node16" class="node">
<title>&quot;precondition:\n hold(left_hand, defaultgripper)&quot;*</title>
<ellipse fill="#ffec8b" stroke="black" cx="1972.55" cy="-244.5" rx="225.63" ry="33.88"/>
<text text-anchor="middle" x="1972.55" y="-250.1" font-family="Times,serif" font-size="18.00">&quot;precondition:</text>
<text text-anchor="middle" x="1972.55" y="-230.1" font-family="Times,serif" font-size="18.00"> hold(left_hand, defaultgripper)&quot;*</text>
</g>
<!-- sequence:
 insert_shaft3_into_gearbase_hole3&#45;&gt;&quot;precondition:\n hold(left_hand, defaultgripper)&quot;* -->
<g id="edge15" class="edge">
<title>sequence:
 insert_shaft3_into_gearbase_hole3&#45;&gt;&quot;precondition:\n hold(left_hand, defaultgripper)&quot;*</title>
<path fill="none" stroke="black" d="M1972.55,-326.95C1972.55,-315.73 1972.55,-301.9 1972.55,-288.84"/>
<polygon fill="black" stroke="black" points="1976.05,-288.6 1972.55,-278.6 1969.05,-288.6 1976.05,-288.6"/>
</g>
<!-- precondition:
 hold(defaultgripper, shaft3) -->
<g id="node17" class="node">
<title>precondition:
 hold(defaultgripper, shaft3)</title>
<ellipse fill="#ffec8b" stroke="black" cx="2408.55" cy="-244.5" rx="192.17" ry="33.88"/>
<text text-anchor="middle" x="2408.55" y="-250.1" font-family="Times,serif" font-size="18.00">precondition:</text>
<text text-anchor="middle" x="2408.55" y="-230.1" font-family="Times,serif" font-size="18.00"> hold(defaultgripper, shaft3)</text>
</g>
<!-- sequence:
 insert_shaft3_into_gearbase_hole3&#45;&gt;precondition:
 hold(defaultgripper, shaft3) -->
<g id="edge16" class="edge">
<title>sequence:
 insert_shaft3_into_gearbase_hole3&#45;&gt;precondition:
 hold(defaultgripper, shaft3)</title>
<path fill="none" stroke="black" d="M2068.5,-327.14C2132.78,-311.71 2217.95,-291.26 2286.98,-274.69"/>
<polygon fill="black" stroke="black" points="2288.13,-278.01 2297.04,-272.27 2286.5,-271.21 2288.13,-278.01"/>
</g>
<!-- action:
 insert(left_hand, defaultgripper, shaft3, gearbase_hole3) -->
<g id="node18" class="node">
<title>action:
 insert(left_hand, defaultgripper, shaft3, gearbase_hole3)</title>
<ellipse fill="lightgreen" stroke="black" cx="2995.55" cy="-244.5" rx="376.78" ry="33.88"/>
<text text-anchor="middle" x="2995.55" y="-250.1" font-family="Times,serif" font-size="18.00">action:</text>
<text text-anchor="middle" x="2995.55" y="-230.1" font-family="Times,serif" font-size="18.00"> insert(left_hand, defaultgripper, shaft3, gearbase_hole3)</text>
</g>
<!-- sequence:
 insert_shaft3_into_gearbase_hole3&#45;&gt;action:
 insert(left_hand, defaultgripper, shaft3, gearbase_hole3) -->
<g id="edge17" class="edge">
<title>sequence:
 insert_shaft3_into_gearbase_hole3&#45;&gt;action:
 insert(left_hand, defaultgripper, shaft3, gearbase_hole3)</title>
<path fill="none" stroke="black" d="M2139.76,-333.07C2303.1,-316.36 2553.89,-290.7 2741.82,-271.47"/>
<polygon fill="black" stroke="black" points="2742.25,-274.94 2751.84,-270.44 2741.54,-267.98 2742.25,-274.94"/>
</g>
<!-- target:
 hold(left_hand, defaultgripper) -->
<g id="node5" class="node">
<title>target:
 hold(left_hand, defaultgripper)</title>
<ellipse fill="#ffec8b" stroke="black" cx="213.55" cy="-137.82" rx="213.59" ry="33.88"/>
<text text-anchor="middle" x="213.55" y="-143.42" font-family="Times,serif" font-size="18.00">target:</text>
<text text-anchor="middle" x="213.55" y="-123.42" font-family="Times,serif" font-size="18.00"> hold(left_hand, defaultgripper)</text>
</g>
<!-- selector:
 change_tool(left_hand, inwardgripper, defaultgripper)&#45;&gt;target:
 hold(left_hand, defaultgripper) -->
<g id="edge4" class="edge">
<title>selector:
 change_tool(left_hand, inwardgripper, defaultgripper)&#45;&gt;target:
 hold(left_hand, defaultgripper)</title>
<path fill="none" stroke="black" d="M534.65,-207.84C473.68,-194.74 405.45,-180.07 347.62,-167.64"/>
<polygon fill="black" stroke="black" points="348.21,-164.19 337.7,-165.51 346.74,-171.03 348.21,-164.19"/>
</g>
<!-- sequence:
 change_tool(left_hand, inwardgripper, defaultgripper) -->
<g id="node6" class="node">
<title>sequence:
 change_tool(left_hand, inwardgripper, defaultgripper)</title>
<polygon fill="#ff7f24" stroke="black" points="955.55,-161.82 445.55,-161.82 445.55,-113.82 955.55,-113.82 955.55,-161.82"/>
<text text-anchor="middle" x="700.55" y="-143.42" font-family="Times,serif" font-size="18.00">sequence:</text>
<text text-anchor="middle" x="700.55" y="-123.42" font-family="Times,serif" font-size="18.00"> change_tool(left_hand, inwardgripper, defaultgripper)</text>
</g>
<!-- selector:
 change_tool(left_hand, inwardgripper, defaultgripper)&#45;&gt;sequence:
 change_tool(left_hand, inwardgripper, defaultgripper) -->
<g id="edge5" class="edge">
<title>selector:
 change_tool(left_hand, inwardgripper, defaultgripper)&#45;&gt;sequence:
 change_tool(left_hand, inwardgripper, defaultgripper)</title>
<path fill="none" stroke="black" d="M700.55,-207.48C700.55,-196.09 700.55,-183.57 700.55,-172.36"/>
<polygon fill="black" stroke="black" points="704.05,-172.11 700.55,-162.11 697.05,-172.11 704.05,-172.11"/>
</g>
<!-- precondition:
 hold(left_hand, inwardgripper) -->
<g id="node7" class="node">
<title>precondition:
 hold(left_hand, inwardgripper)</title>
<ellipse fill="#ffec8b" stroke="black" cx="289.55" cy="-33.94" rx="212.68" ry="33.88"/>
<text text-anchor="middle" x="289.55" y="-39.54" font-family="Times,serif" font-size="18.00">precondition:</text>
<text text-anchor="middle" x="289.55" y="-19.54" font-family="Times,serif" font-size="18.00"> hold(left_hand, inwardgripper)</text>
</g>
<!-- sequence:
 change_tool(left_hand, inwardgripper, defaultgripper)&#45;&gt;precondition:
 hold(left_hand, inwardgripper) -->
<g id="edge6" class="edge">
<title>sequence:
 change_tool(left_hand, inwardgripper, defaultgripper)&#45;&gt;precondition:
 hold(left_hand, inwardgripper)</title>
<path fill="none" stroke="black" d="M607.54,-113.77C549.66,-99.42 474.57,-80.81 411.9,-65.27"/>
<polygon fill="black" stroke="black" points="412.5,-61.81 401.95,-62.8 410.81,-68.61 412.5,-61.81"/>
</g>
<!-- precondition:
 is_empty(inwardgripper) -->
<g id="node8" class="node">
<title>precondition:
 is_empty(inwardgripper)</title>
<ellipse fill="#ffec8b" stroke="black" cx="694.55" cy="-33.94" rx="174.81" ry="33.88"/>
<text text-anchor="middle" x="694.55" y="-39.54" font-family="Times,serif" font-size="18.00">precondition:</text>
<text text-anchor="middle" x="694.55" y="-19.54" font-family="Times,serif" font-size="18.00"> is_empty(inwardgripper)</text>
</g>
<!-- sequence:
 change_tool(left_hand, inwardgripper, defaultgripper)&#45;&gt;precondition:
 is_empty(inwardgripper) -->
<g id="edge7" class="edge">
<title>sequence:
 change_tool(left_hand, inwardgripper, defaultgripper)&#45;&gt;precondition:
 is_empty(inwardgripper)</title>
<path fill="none" stroke="black" d="M699.18,-113.7C698.56,-103.16 697.81,-90.31 697.09,-78.08"/>
<polygon fill="black" stroke="black" points="700.58,-77.79 696.49,-68.01 693.59,-78.2 700.58,-77.79"/>
</g>
<!-- action:
 change_tool(left_hand, inwardgripper, defaultgripper) -->
<g id="node9" class="node">
<title>action:
 change_tool(left_hand, inwardgripper, defaultgripper)</title>
<ellipse fill="lightgreen" stroke="black" cx="1247.55" cy="-33.94" rx="360.75" ry="33.88"/>
<text text-anchor="middle" x="1247.55" y="-39.54" font-family="Times,serif" font-size="18.00">action:</text>
<text text-anchor="middle" x="1247.55" y="-19.54" font-family="Times,serif" font-size="18.00"> change_tool(left_hand, inwardgripper, defaultgripper)</text>
</g>
<!-- sequence:
 change_tool(left_hand, inwardgripper, defaultgripper)&#45;&gt;action:
 change_tool(left_hand, inwardgripper, defaultgripper) -->
<g id="edge8" class="edge">
<title>sequence:
 change_tool(left_hand, inwardgripper, defaultgripper)&#45;&gt;action:
 change_tool(left_hand, inwardgripper, defaultgripper)</title>
<path fill="none" stroke="black" d="M824.33,-113.77C899.66,-99.74 996.9,-81.63 1079.17,-66.3"/>
<polygon fill="black" stroke="black" points="1079.93,-69.72 1089.12,-64.45 1078.65,-62.84 1079.93,-69.72"/>
</g>
<!-- target:
 hold(defaultgripper, shaft3) -->
<g id="node11" class="node">
<title>target:
 hold(defaultgripper, shaft3)</title>
<ellipse fill="#ffec8b" stroke="black" cx="1424.55" cy="-137.82" rx="192.17" ry="33.88"/>
<text text-anchor="middle" x="1424.55" y="-143.42" font-family="Times,serif" font-size="18.00">target:</text>
<text text-anchor="middle" x="1424.55" y="-123.42" font-family="Times,serif" font-size="18.00"> hold(defaultgripper, shaft3)</text>
</g>
<!-- selector:
 pick_up(left_hand, defaultgripper, shaft3)&#45;&gt;target:
 hold(defaultgripper, shaft3) -->
<g id="edge10" class="edge">
<title>selector:
 pick_up(left_hand, defaultgripper, shaft3)&#45;&gt;target:
 hold(defaultgripper, shaft3)</title>
<path fill="none" stroke="black" d="M1424.55,-207.48C1424.55,-199.32 1424.55,-190.58 1424.55,-182.15"/>
<polygon fill="black" stroke="black" points="1428.05,-182.1 1424.55,-172.1 1421.05,-182.1 1428.05,-182.1"/>
</g>
<!-- sequence:
 pick_up(left_hand, defaultgripper, shaft3) -->
<g id="node12" class="node">
<title>sequence:
 pick_up(left_hand, defaultgripper, shaft3)</title>
<polygon fill="#ff7f24" stroke="black" points="2241.55,-161.82 1843.55,-161.82 1843.55,-113.82 2241.55,-113.82 2241.55,-161.82"/>
<text text-anchor="middle" x="2042.55" y="-143.42" font-family="Times,serif" font-size="18.00">sequence:</text>
<text text-anchor="middle" x="2042.55" y="-123.42" font-family="Times,serif" font-size="18.00"> pick_up(left_hand, defaultgripper, shaft3)</text>
</g>
<!-- selector:
 pick_up(left_hand, defaultgripper, shaft3)&#45;&gt;sequence:
 pick_up(left_hand, defaultgripper, shaft3) -->
<g id="edge11" class="edge">
<title>selector:
 pick_up(left_hand, defaultgripper, shaft3)&#45;&gt;sequence:
 pick_up(left_hand, defaultgripper, shaft3)</title>
<path fill="none" stroke="black" d="M1601.23,-213.58C1694.65,-197.75 1807.98,-178.56 1896.4,-163.58"/>
<polygon fill="black" stroke="black" points="1897.23,-166.99 1906.51,-161.87 1896.06,-160.09 1897.23,-166.99"/>
</g>
<!-- precondition:
 hold(left_hand, defaultgripper) -->
<g id="node13" class="node">
<title>precondition:
 hold(left_hand, defaultgripper)</title>
<ellipse fill="#ffec8b" stroke="black" cx="1839.55" cy="-33.94" rx="213.59" ry="33.88"/>
<text text-anchor="middle" x="1839.55" y="-39.54" font-family="Times,serif" font-size="18.00">precondition:</text>
<text text-anchor="middle" x="1839.55" y="-19.54" font-family="Times,serif" font-size="18.00"> hold(left_hand, defaultgripper)</text>
</g>
<!-- sequence:
 pick_up(left_hand, defaultgripper, shaft3)&#45;&gt;precondition:
 hold(left_hand, defaultgripper) -->
<g id="edge12" class="edge">
<title>sequence:
 pick_up(left_hand, defaultgripper, shaft3)&#45;&gt;precondition:
 hold(left_hand, defaultgripper)</title>
<path fill="none" stroke="black" d="M1996.48,-113.7C1971.36,-101.1 1939.7,-85.21 1911.41,-71.01"/>
<polygon fill="black" stroke="black" points="1912.86,-67.82 1902.36,-66.46 1909.72,-74.08 1912.86,-67.82"/>
</g>
<!-- precondition:
 is_empty(defaultgripper) -->
<g id="node14" class="node">
<title>precondition:
 is_empty(defaultgripper)</title>
<ellipse fill="#ffec8b" stroke="black" cx="2246.55" cy="-33.94" rx="175.23" ry="33.88"/>
<text text-anchor="middle" x="2246.55" y="-39.54" font-family="Times,serif" font-size="18.00">precondition:</text>
<text text-anchor="middle" x="2246.55" y="-19.54" font-family="Times,serif" font-size="18.00"> is_empty(defaultgripper)</text>
</g>
<!-- sequence:
 pick_up(left_hand, defaultgripper, shaft3)&#45;&gt;precondition:
 is_empty(defaultgripper) -->
<g id="edge13" class="edge">
<title>sequence:
 pick_up(left_hand, defaultgripper, shaft3)&#45;&gt;precondition:
 is_empty(defaultgripper)</title>
<path fill="none" stroke="black" d="M2088.84,-113.7C2114.4,-100.94 2146.7,-84.81 2175.4,-70.47"/>
<polygon fill="black" stroke="black" points="2177.2,-73.49 2184.58,-65.89 2174.07,-67.23 2177.2,-73.49"/>
</g>
<!-- action:
 pick_up(left_hand, defaultgripper, shaft3) -->
<g id="node15" class="node">
<title>action:
 pick_up(left_hand, defaultgripper, shaft3)</title>
<ellipse fill="lightgreen" stroke="black" cx="2721.55" cy="-33.94" rx="281.36" ry="33.88"/>
<text text-anchor="middle" x="2721.55" y="-39.54" font-family="Times,serif" font-size="18.00">action:</text>
<text text-anchor="middle" x="2721.55" y="-19.54" font-family="Times,serif" font-size="18.00"> pick_up(left_hand, defaultgripper, shaft3)</text>
</g>
<!-- sequence:
 pick_up(left_hand, defaultgripper, shaft3)&#45;&gt;action:
 pick_up(left_hand, defaultgripper, shaft3) -->
<g id="edge14" class="edge">
<title>sequence:
 pick_up(left_hand, defaultgripper, shaft3)&#45;&gt;action:
 pick_up(left_hand, defaultgripper, shaft3)</title>
<path fill="none" stroke="black" d="M2196.2,-113.77C2297.96,-98.5 2431.93,-78.4 2539.11,-62.32"/>
<polygon fill="black" stroke="black" points="2539.7,-65.77 2549.07,-60.82 2538.66,-58.84 2539.7,-65.77"/>
</g>
</g>
</svg>
