<?xml version="1.0" encoding="UTF-8" standalone="no"?>
<!DOCTYPE svg PUBLIC "-//W3C//DTD SVG 1.1//EN"
 "http://www.w3.org/Graphics/SVG/1.1/DTD/svg11.dtd">
<!-- Generated by graphviz version 2.43.0 (0)
 -->
<!-- Title: pastafarianism Pages: 1 -->
<svg width="1411pt" height="476pt"
 viewBox="0.00 0.00 1410.63 476.00" xmlns="http://www.w3.org/2000/svg" xmlns:xlink="http://www.w3.org/1999/xlink">
<g id="graph0" class="graph" transform="scale(1 1) rotate(0) translate(4 472)">
<title>pastafarianism</title>
<polygon fill="white" stroke="transparent" points="-4,4 -4,-472 1406.63,-472 1406.63,4 -4,4"/>
<!-- Sequence -->
<g id="node1" class="node">
<title>Sequence</title>
<polygon fill="orange" stroke="black" points="697.08,-468 635.08,-468 635.08,-432 697.08,-432 697.08,-468"/>
<text text-anchor="middle" x="666.08" y="-447.8" font-family="Times,serif" font-size="9.00">Sequence</text>
</g>
<!-- Fallback -->
<g id="node2" class="node">
<title>Fallback</title>
<polygon fill="cyan" stroke="black" points="406.07,-370.54 406.07,-385.46 385.57,-396 356.59,-396 336.09,-385.46 336.09,-370.54 356.59,-360 385.57,-360 406.07,-370.54"/>
<text text-anchor="middle" x="371.08" y="-375.8" font-family="Times,serif" font-size="9.00">Fallback</text>
</g>
<!-- Sequence&#45;&gt;Fallback -->
<g id="edge1" class="edge">
<title>Sequence&#45;&gt;Fallback</title>
<path fill="none" stroke="black" d="M635.07,-441.64C582.07,-429.06 473.98,-403.42 413.85,-389.15"/>
<polygon fill="black" stroke="black" points="414.45,-385.69 403.92,-386.79 412.84,-392.51 414.45,-385.69"/>
</g>
<!-- Fallback &#160;&#160; -->
<g id="node13" class="node">
<title>Fallback &#160;&#160;</title>
<polygon fill="cyan" stroke="black" points="701.07,-370.54 701.07,-385.46 680.57,-396 651.59,-396 631.09,-385.46 631.09,-370.54 651.59,-360 680.57,-360 701.07,-370.54"/>
<text text-anchor="middle" x="666.08" y="-375.8" font-family="Times,serif" font-size="9.00">Fallback</text>
</g>
<!-- Sequence&#45;&gt;Fallback &#160;&#160; -->
<g id="edge12" class="edge">
<title>Sequence&#45;&gt;Fallback &#160;&#160;</title>
<path fill="none" stroke="black" d="M666.08,-431.7C666.08,-423.98 666.08,-414.71 666.08,-406.11"/>
<polygon fill="black" stroke="black" points="669.58,-406.1 666.08,-396.1 662.58,-406.1 669.58,-406.1"/>
</g>
<!-- Fallback &#160;&#160;&#160;&#160;&#160; -->
<g id="node24" class="node">
<title>Fallback &#160;&#160;&#160;&#160;&#160;</title>
<polygon fill="cyan" stroke="black" points="1020.07,-370.54 1020.07,-385.46 999.57,-396 970.59,-396 950.09,-385.46 950.09,-370.54 970.59,-360 999.57,-360 1020.07,-370.54"/>
<text text-anchor="middle" x="985.08" y="-375.8" font-family="Times,serif" font-size="9.00">Fallback</text>
</g>
<!-- Sequence&#45;&gt;Fallback &#160;&#160;&#160;&#160;&#160; -->
<g id="edge23" class="edge">
<title>Sequence&#45;&gt;Fallback &#160;&#160;&#160;&#160;&#160;</title>
<path fill="none" stroke="black" d="M697.25,-442.16C754.39,-429.62 876.05,-402.92 941.41,-388.58"/>
<polygon fill="black" stroke="black" points="942.38,-391.95 951.39,-386.39 940.88,-385.12 942.38,-391.95"/>
</g>
<!-- object_at YellowBox [&#45;0.133, 0.0, 0.175] 0.02 KittingBox -->
<g id="node3" class="node">
<title>object_at YellowBox [&#45;0.133, 0.0, 0.175] 0.02 KittingBox</title>
<ellipse fill="lightgray" stroke="black" cx="161.08" cy="-306" rx="161.16" ry="18"/>
<text text-anchor="middle" x="161.08" y="-303.8" font-family="Times,serif" font-size="9.00">object_at YellowBox [&#45;0.133, 0.0, 0.175] 0.02 KittingBox</text>
</g>
<!-- Fallback&#45;&gt;object_at YellowBox [&#45;0.133, 0.0, 0.175] 0.02 KittingBox -->
<g id="edge2" class="edge">
<title>Fallback&#45;&gt;object_at YellowBox [&#45;0.133, 0.0, 0.175] 0.02 KittingBox</title>
<path fill="none" stroke="black" d="M341.88,-367.27C310.33,-356.75 259.24,-339.72 219.4,-326.44"/>
<polygon fill="black" stroke="black" points="220.39,-323.08 209.8,-323.24 218.18,-329.72 220.39,-323.08"/>
</g>
<!-- Sequence  -->
<g id="node4" class="node">
<title>Sequence </title>
<polygon fill="orange" stroke="black" points="402.08,-324 340.08,-324 340.08,-288 402.08,-288 402.08,-324"/>
<text text-anchor="middle" x="371.08" y="-303.8" font-family="Times,serif" font-size="9.00">Sequence</text>
</g>
<!-- Fallback&#45;&gt;Sequence  -->
<g id="edge3" class="edge">
<title>Fallback&#45;&gt;Sequence </title>
<path fill="none" stroke="black" d="M371.08,-359.7C371.08,-351.98 371.08,-342.71 371.08,-334.11"/>
<polygon fill="black" stroke="black" points="374.58,-334.1 371.08,-324.1 367.58,-334.1 374.58,-334.1"/>
</g>
<!-- Fallback  -->
<g id="node5" class="node">
<title>Fallback </title>
<polygon fill="cyan" stroke="black" points="203.07,-226.54 203.07,-241.46 182.57,-252 153.59,-252 133.09,-241.46 133.09,-226.54 153.59,-216 182.57,-216 203.07,-226.54"/>
<text text-anchor="middle" x="168.08" y="-231.8" font-family="Times,serif" font-size="9.00">Fallback</text>
</g>
<!-- Sequence &#45;&gt;Fallback  -->
<g id="edge4" class="edge">
<title>Sequence &#45;&gt;Fallback </title>
<path fill="none" stroke="black" d="M339.77,-291.31C336.85,-290.15 333.92,-289.03 331.08,-288 279.13,-269.17 264.33,-269.97 212.08,-252 209.55,-251.13 206.96,-250.21 204.35,-249.26"/>
<polygon fill="black" stroke="black" points="205.55,-245.97 194.96,-245.75 203.1,-252.53 205.55,-245.97"/>
</g>
<!-- place0 YellowBox [&#45;0.133, 0.0, 0.175] 0.02 KittingBox -->
<g id="node12" class="node">
<title>place0 YellowBox [&#45;0.133, 0.0, 0.175] 0.02 KittingBox</title>
<ellipse fill="lightgray" stroke="black" cx="376.08" cy="-234" rx="154.96" ry="18"/>
<text text-anchor="middle" x="376.08" y="-231.8" font-family="Times,serif" font-size="9.00">place0 YellowBox [&#45;0.133, 0.0, 0.175] 0.02 KittingBox</text>
</g>
<!-- Sequence &#45;&gt;place0 YellowBox [&#45;0.133, 0.0, 0.175] 0.02 KittingBox -->
<g id="edge11" class="edge">
<title>Sequence &#45;&gt;place0 YellowBox [&#45;0.133, 0.0, 0.175] 0.02 KittingBox</title>
<path fill="none" stroke="black" d="M372.32,-287.7C372.87,-279.98 373.53,-270.71 374.14,-262.11"/>
<polygon fill="black" stroke="black" points="377.64,-262.33 374.86,-252.1 370.66,-261.83 377.64,-262.33"/>
</g>
<!-- in_gripper YellowBox -->
<g id="node6" class="node">
<title>in_gripper YellowBox</title>
<ellipse fill="lightgray" stroke="black" cx="130.08" cy="-162" rx="66.29" ry="18"/>
<text text-anchor="middle" x="130.08" y="-159.8" font-family="Times,serif" font-size="9.00">in_gripper YellowBox</text>
</g>
<!-- Fallback &#45;&gt;in_gripper YellowBox -->
<g id="edge5" class="edge">
<title>Fallback &#45;&gt;in_gripper YellowBox</title>
<path fill="none" stroke="black" d="M158.69,-215.7C154.32,-207.64 149.02,-197.89 144.19,-188.98"/>
<polygon fill="black" stroke="black" points="147.21,-187.22 139.37,-180.1 141.06,-190.56 147.21,-187.22"/>
</g>
<!-- Sequence &#160; -->
<g id="node7" class="node">
<title>Sequence &#160;</title>
<polygon fill="orange" stroke="black" points="276.08,-180 214.08,-180 214.08,-144 276.08,-144 276.08,-180"/>
<text text-anchor="middle" x="245.08" y="-159.8" font-family="Times,serif" font-size="9.00">Sequence</text>
</g>
<!-- Fallback &#45;&gt;Sequence &#160; -->
<g id="edge6" class="edge">
<title>Fallback &#45;&gt;Sequence &#160;</title>
<path fill="none" stroke="black" d="M185.55,-217.12C195.34,-208.22 207.73,-196.95 218.68,-187"/>
<polygon fill="black" stroke="black" points="221.29,-189.36 226.33,-180.04 216.58,-184.18 221.29,-189.36"/>
</g>
<!-- Fallback &#160; -->
<g id="node8" class="node">
<title>Fallback &#160;</title>
<polygon fill="cyan" stroke="black" points="263.07,-82.54 263.07,-97.46 242.57,-108 213.59,-108 193.09,-97.46 193.09,-82.54 213.59,-72 242.57,-72 263.07,-82.54"/>
<text text-anchor="middle" x="228.08" y="-87.8" font-family="Times,serif" font-size="9.00">Fallback</text>
</g>
<!-- Sequence &#160;&#45;&gt;Fallback &#160; -->
<g id="edge7" class="edge">
<title>Sequence &#160;&#45;&gt;Fallback &#160;</title>
<path fill="none" stroke="black" d="M240.88,-143.7C238.98,-135.9 236.7,-126.51 234.6,-117.83"/>
<polygon fill="black" stroke="black" points="238,-117 232.23,-108.1 231.19,-118.65 238,-117"/>
</g>
<!-- pick0 YellowBox -->
<g id="node11" class="node">
<title>pick0 YellowBox</title>
<ellipse fill="lightgray" stroke="black" cx="334.08" cy="-90" rx="53.23" ry="18"/>
<text text-anchor="middle" x="334.08" y="-87.8" font-family="Times,serif" font-size="9.00">pick0 YellowBox</text>
</g>
<!-- Sequence &#160;&#45;&gt;pick0 YellowBox -->
<g id="edge10" class="edge">
<title>Sequence &#160;&#45;&gt;pick0 YellowBox</title>
<path fill="none" stroke="black" d="M267.08,-143.7C278.82,-134.46 293.39,-123 305.95,-113.13"/>
<polygon fill="black" stroke="black" points="308.16,-115.84 313.86,-106.91 303.83,-110.34 308.16,-115.84"/>
</g>
<!-- gripper_state open -->
<g id="node9" class="node">
<title>gripper_state open</title>
<ellipse fill="lightgray" stroke="black" cx="195.08" cy="-18" rx="60.09" ry="18"/>
<text text-anchor="middle" x="195.08" y="-15.8" font-family="Times,serif" font-size="9.00">gripper_state open</text>
</g>
<!-- Fallback &#160;&#45;&gt;gripper_state open -->
<g id="edge8" class="edge">
<title>Fallback &#160;&#45;&gt;gripper_state open</title>
<path fill="none" stroke="black" d="M219.92,-71.7C216.17,-63.73 211.63,-54.1 207.46,-45.26"/>
<polygon fill="black" stroke="black" points="210.57,-43.66 203.14,-36.1 204.24,-46.64 210.57,-43.66"/>
</g>
<!-- open_gripper -->
<g id="node10" class="node">
<title>open_gripper</title>
<ellipse fill="lightgray" stroke="black" cx="319.08" cy="-18" rx="45.72" ry="18"/>
<text text-anchor="middle" x="319.08" y="-15.8" font-family="Times,serif" font-size="9.00">open_gripper</text>
</g>
<!-- Fallback &#160;&#45;&gt;open_gripper -->
<g id="edge9" class="edge">
<title>Fallback &#160;&#45;&gt;open_gripper</title>
<path fill="none" stroke="black" d="M247.38,-74.15C260.11,-64.36 277,-51.37 291.19,-40.45"/>
<polygon fill="black" stroke="black" points="293.39,-43.18 299.18,-34.31 289.12,-37.63 293.39,-43.18"/>
</g>
<!-- object_at BlueBox [0.0, 0.0, 0.175] 0.02 KittingBox -->
<g id="node14" class="node">
<title>object_at BlueBox [0.0, 0.0, 0.175] 0.02 KittingBox</title>
<ellipse fill="lightgray" stroke="black" cx="568.08" cy="-306" rx="147.6" ry="18"/>
<text text-anchor="middle" x="568.08" y="-303.8" font-family="Times,serif" font-size="9.00">object_at BlueBox [0.0, 0.0, 0.175] 0.02 KittingBox</text>
</g>
<!-- Fallback &#160;&#160;&#45;&gt;object_at BlueBox [0.0, 0.0, 0.175] 0.02 KittingBox -->
<g id="edge13" class="edge">
<title>Fallback &#160;&#160;&#45;&gt;object_at BlueBox [0.0, 0.0, 0.175] 0.02 KittingBox</title>
<path fill="none" stroke="black" d="M645.78,-362.5C632.65,-353.12 615.29,-340.72 600.31,-330.02"/>
<polygon fill="black" stroke="black" points="601.98,-326.91 591.81,-323.95 597.91,-332.61 601.98,-326.91"/>
</g>
<!-- Sequence &#160;&#160; -->
<g id="node15" class="node">
<title>Sequence &#160;&#160;</title>
<polygon fill="orange" stroke="black" points="796.08,-324 734.08,-324 734.08,-288 796.08,-288 796.08,-324"/>
<text text-anchor="middle" x="765.08" y="-303.8" font-family="Times,serif" font-size="9.00">Sequence</text>
</g>
<!-- Fallback &#160;&#160;&#45;&gt;Sequence &#160;&#160; -->
<g id="edge14" class="edge">
<title>Fallback &#160;&#160;&#45;&gt;Sequence &#160;&#160;</title>
<path fill="none" stroke="black" d="M686.11,-362.83C699.46,-353.4 717.31,-340.78 732.65,-329.93"/>
<polygon fill="black" stroke="black" points="734.73,-332.74 740.88,-324.11 730.69,-327.03 734.73,-332.74"/>
</g>
<!-- Fallback &#160;&#160;&#160; -->
<g id="node16" class="node">
<title>Fallback &#160;&#160;&#160;</title>
<polygon fill="cyan" stroke="black" points="657.07,-226.54 657.07,-241.46 636.57,-252 607.59,-252 587.09,-241.46 587.09,-226.54 607.59,-216 636.57,-216 657.07,-226.54"/>
<text text-anchor="middle" x="622.08" y="-231.8" font-family="Times,serif" font-size="9.00">Fallback</text>
</g>
<!-- Sequence &#160;&#160;&#45;&gt;Fallback &#160;&#160;&#160; -->
<g id="edge15" class="edge">
<title>Sequence &#160;&#160;&#45;&gt;Fallback &#160;&#160;&#160;</title>
<path fill="none" stroke="black" d="M734.05,-289.81C710.99,-278.52 679.56,-263.13 655.86,-251.54"/>
<polygon fill="black" stroke="black" points="657.4,-248.39 646.87,-247.14 654.32,-254.68 657.4,-248.39"/>
</g>
<!-- place0 BlueBox [0.0, 0.0, 0.175] 0.02 KittingBox -->
<g id="node23" class="node">
<title>place0 BlueBox [0.0, 0.0, 0.175] 0.02 KittingBox</title>
<ellipse fill="lightgray" stroke="black" cx="816.08" cy="-234" rx="141.4" ry="18"/>
<text text-anchor="middle" x="816.08" y="-231.8" font-family="Times,serif" font-size="9.00">place0 BlueBox [0.0, 0.0, 0.175] 0.02 KittingBox</text>
</g>
<!-- Sequence &#160;&#160;&#45;&gt;place0 BlueBox [0.0, 0.0, 0.175] 0.02 KittingBox -->
<g id="edge22" class="edge">
<title>Sequence &#160;&#160;&#45;&gt;place0 BlueBox [0.0, 0.0, 0.175] 0.02 KittingBox</title>
<path fill="none" stroke="black" d="M777.69,-287.7C783.68,-279.47 790.96,-269.48 797.56,-260.42"/>
<polygon fill="black" stroke="black" points="800.56,-262.25 803.62,-252.1 794.9,-258.13 800.56,-262.25"/>
</g>
<!-- in_gripper BlueBox -->
<g id="node17" class="node">
<title>in_gripper BlueBox</title>
<ellipse fill="lightgray" stroke="black" cx="519.08" cy="-162" rx="61.55" ry="18"/>
<text text-anchor="middle" x="519.08" y="-159.8" font-family="Times,serif" font-size="9.00">in_gripper BlueBox</text>
</g>
<!-- Fallback &#160;&#160;&#160;&#45;&gt;in_gripper BlueBox -->
<g id="edge16" class="edge">
<title>Fallback &#160;&#160;&#160;&#45;&gt;in_gripper BlueBox</title>
<path fill="none" stroke="black" d="M601.24,-218.83C586.85,-209.06 567.45,-195.88 551.12,-184.77"/>
<polygon fill="black" stroke="black" points="552.65,-181.58 542.41,-178.85 548.71,-187.37 552.65,-181.58"/>
</g>
<!-- Sequence &#160;&#160;&#160; -->
<g id="node18" class="node">
<title>Sequence &#160;&#160;&#160;</title>
<polygon fill="orange" stroke="black" points="661.08,-180 599.08,-180 599.08,-144 661.08,-144 661.08,-180"/>
<text text-anchor="middle" x="630.08" y="-159.8" font-family="Times,serif" font-size="9.00">Sequence</text>
</g>
<!-- Fallback &#160;&#160;&#160;&#45;&gt;Sequence &#160;&#160;&#160; -->
<g id="edge17" class="edge">
<title>Fallback &#160;&#160;&#160;&#45;&gt;Sequence &#160;&#160;&#160;</title>
<path fill="none" stroke="black" d="M624.06,-215.7C624.94,-207.98 626,-198.71 626.98,-190.11"/>
<polygon fill="black" stroke="black" points="630.47,-190.44 628.13,-180.1 623.51,-189.64 630.47,-190.44"/>
</g>
<!-- Fallback &#160;&#160;&#160;&#160; -->
<g id="node19" class="node">
<title>Fallback &#160;&#160;&#160;&#160;</title>
<polygon fill="cyan" stroke="black" points="583.07,-82.54 583.07,-97.46 562.57,-108 533.59,-108 513.09,-97.46 513.09,-82.54 533.59,-72 562.57,-72 583.07,-82.54"/>
<text text-anchor="middle" x="548.08" y="-87.8" font-family="Times,serif" font-size="9.00">Fallback</text>
</g>
<!-- Sequence &#160;&#160;&#160;&#45;&gt;Fallback &#160;&#160;&#160;&#160; -->
<g id="edge18" class="edge">
<title>Sequence &#160;&#160;&#160;&#45;&gt;Fallback &#160;&#160;&#160;&#160;</title>
<path fill="none" stroke="black" d="M609.81,-143.7C598.94,-134.42 585.44,-122.89 573.84,-112.99"/>
<polygon fill="black" stroke="black" points="576.04,-110.27 566.16,-106.44 571.5,-115.59 576.04,-110.27"/>
</g>
<!-- pick0 BlueBox -->
<g id="node22" class="node">
<title>pick0 BlueBox</title>
<ellipse fill="lightgray" stroke="black" cx="649.08" cy="-90" rx="47.84" ry="18"/>
<text text-anchor="middle" x="649.08" y="-87.8" font-family="Times,serif" font-size="9.00">pick0 BlueBox</text>
</g>
<!-- Sequence &#160;&#160;&#160;&#45;&gt;pick0 BlueBox -->
<g id="edge21" class="edge">
<title>Sequence &#160;&#160;&#160;&#45;&gt;pick0 BlueBox</title>
<path fill="none" stroke="black" d="M634.78,-143.7C636.89,-135.9 639.44,-126.51 641.8,-117.83"/>
<polygon fill="black" stroke="black" points="645.2,-118.67 644.44,-108.1 638.44,-116.84 645.2,-118.67"/>
</g>
<!-- gripper_state open  -->
<g id="node20" class="node">
<title>gripper_state open </title>
<ellipse fill="lightgray" stroke="black" cx="491.08" cy="-18" rx="60.09" ry="18"/>
<text text-anchor="middle" x="491.08" y="-15.8" font-family="Times,serif" font-size="9.00">gripper_state open</text>
</g>
<!-- Fallback &#160;&#160;&#160;&#160;&#45;&gt;gripper_state open  -->
<g id="edge19" class="edge">
<title>Fallback &#160;&#160;&#160;&#160;&#45;&gt;gripper_state open </title>
<path fill="none" stroke="black" d="M533.99,-71.7C527.06,-63.18 518.57,-52.76 510.99,-43.45"/>
<polygon fill="black" stroke="black" points="513.64,-41.17 504.62,-35.62 508.22,-45.59 513.64,-41.17"/>
</g>
<!-- open_gripper  -->
<g id="node21" class="node">
<title>open_gripper </title>
<ellipse fill="lightgray" stroke="black" cx="615.08" cy="-18" rx="45.72" ry="18"/>
<text text-anchor="middle" x="615.08" y="-15.8" font-family="Times,serif" font-size="9.00">open_gripper</text>
</g>
<!-- Fallback &#160;&#160;&#160;&#160;&#45;&gt;open_gripper  -->
<g id="edge20" class="edge">
<title>Fallback &#160;&#160;&#160;&#160;&#45;&gt;open_gripper </title>
<path fill="none" stroke="black" d="M563.96,-72.41C572.51,-63.48 583.2,-52.31 592.59,-42.5"/>
<polygon fill="black" stroke="black" points="595.39,-44.63 599.78,-34.99 590.33,-39.79 595.39,-44.63"/>
</g>
<!-- object_at GreenBox [&#45;0.062, 0.002, 0.277] 0.007 KittingBox -->
<g id="node25" class="node">
<title>object_at GreenBox [&#45;0.062, 0.002, 0.277] 0.007 KittingBox</title>
<ellipse fill="lightgray" stroke="black" cx="985.08" cy="-306" rx="170.79" ry="18"/>
<text text-anchor="middle" x="985.08" y="-303.8" font-family="Times,serif" font-size="9.00">object_at GreenBox [&#45;0.062, 0.002, 0.277] 0.007 KittingBox</text>
</g>
<!-- Fallback &#160;&#160;&#160;&#160;&#160;&#45;&gt;object_at GreenBox [&#45;0.062, 0.002, 0.277] 0.007 KittingBox -->
<g id="edge24" class="edge">
<title>Fallback &#160;&#160;&#160;&#160;&#160;&#45;&gt;object_at GreenBox [&#45;0.062, 0.002, 0.277] 0.007 KittingBox</title>
<path fill="none" stroke="black" d="M985.08,-359.7C985.08,-351.98 985.08,-342.71 985.08,-334.11"/>
<polygon fill="black" stroke="black" points="988.58,-334.1 985.08,-324.1 981.58,-334.1 988.58,-334.1"/>
</g>
<!-- Sequence &#160;&#160;&#160;&#160; -->
<g id="node26" class="node">
<title>Sequence &#160;&#160;&#160;&#160;</title>
<polygon fill="orange" stroke="black" points="1236.08,-324 1174.08,-324 1174.08,-288 1236.08,-288 1236.08,-324"/>
<text text-anchor="middle" x="1205.08" y="-303.8" font-family="Times,serif" font-size="9.00">Sequence</text>
</g>
<!-- Fallback &#160;&#160;&#160;&#160;&#160;&#45;&gt;Sequence &#160;&#160;&#160;&#160; -->
<g id="edge25" class="edge">
<title>Fallback &#160;&#160;&#160;&#160;&#160;&#45;&gt;Sequence &#160;&#160;&#160;&#160;</title>
<path fill="none" stroke="black" d="M1016.98,-368.81C1051.32,-359.72 1107.68,-344.06 1164.32,-324.09"/>
<polygon fill="black" stroke="black" points="1165.53,-327.37 1173.77,-320.71 1163.18,-320.78 1165.53,-327.37"/>
</g>
<!-- Fallback &#160;&#160;&#160;&#160;&#160;&#160; -->
<g id="node27" class="node">
<title>Fallback &#160;&#160;&#160;&#160;&#160;&#160;</title>
<polygon fill="cyan" stroke="black" points="1055.07,-226.54 1055.07,-241.46 1034.57,-252 1005.59,-252 985.09,-241.46 985.09,-226.54 1005.59,-216 1034.57,-216 1055.07,-226.54"/>
<text text-anchor="middle" x="1020.08" y="-231.8" font-family="Times,serif" font-size="9.00">Fallback</text>
</g>
<!-- Sequence &#160;&#160;&#160;&#160;&#45;&gt;Fallback &#160;&#160;&#160;&#160;&#160;&#160; -->
<g id="edge26" class="edge">
<title>Sequence &#160;&#160;&#160;&#160;&#45;&gt;Fallback &#160;&#160;&#160;&#160;&#160;&#160;</title>
<path fill="none" stroke="black" d="M1173.71,-291.46C1170.8,-290.27 1167.89,-289.1 1165.08,-288 1120.69,-270.67 1108.76,-268.59 1064.08,-252 1061.73,-251.13 1059.31,-250.22 1056.88,-249.3"/>
<polygon fill="black" stroke="black" points="1058.09,-246.02 1047.5,-245.72 1055.6,-252.56 1058.09,-246.02"/>
</g>
<!-- place0 GreenBox [&#45;0.062, 0.002, 0.277] 0.007 KittingBox -->
<g id="node34" class="node">
<title>place0 GreenBox [&#45;0.062, 0.002, 0.277] 0.007 KittingBox</title>
<ellipse fill="lightgray" stroke="black" cx="1238.08" cy="-234" rx="164.59" ry="18"/>
<text text-anchor="middle" x="1238.08" y="-231.8" font-family="Times,serif" font-size="9.00">place0 GreenBox [&#45;0.062, 0.002, 0.277] 0.007 KittingBox</text>
</g>
<!-- Sequence &#160;&#160;&#160;&#160;&#45;&gt;place0 GreenBox [&#45;0.062, 0.002, 0.277] 0.007 KittingBox -->
<g id="edge33" class="edge">
<title>Sequence &#160;&#160;&#160;&#160;&#45;&gt;place0 GreenBox [&#45;0.062, 0.002, 0.277] 0.007 KittingBox</title>
<path fill="none" stroke="black" d="M1213.24,-287.7C1216.99,-279.73 1221.53,-270.1 1225.7,-261.26"/>
<polygon fill="black" stroke="black" points="1228.92,-262.64 1230.02,-252.1 1222.59,-259.66 1228.92,-262.64"/>
</g>
<!-- in_gripper GreenBox -->
<g id="node28" class="node">
<title>in_gripper GreenBox</title>
<ellipse fill="lightgray" stroke="black" cx="962.08" cy="-162" rx="65.64" ry="18"/>
<text text-anchor="middle" x="962.08" y="-159.8" font-family="Times,serif" font-size="9.00">in_gripper GreenBox</text>
</g>
<!-- Fallback &#160;&#160;&#160;&#160;&#160;&#160;&#45;&gt;in_gripper GreenBox -->
<g id="edge27" class="edge">
<title>Fallback &#160;&#160;&#160;&#160;&#160;&#160;&#45;&gt;in_gripper GreenBox</title>
<path fill="none" stroke="black" d="M1005.74,-215.7C998.69,-207.18 990.06,-196.76 982.34,-187.45"/>
<polygon fill="black" stroke="black" points="984.93,-185.09 975.85,-179.62 979.54,-189.56 984.93,-185.09"/>
</g>
<!-- Sequence &#160;&#160;&#160;&#160;&#160; -->
<g id="node29" class="node">
<title>Sequence &#160;&#160;&#160;&#160;&#160;</title>
<polygon fill="orange" stroke="black" points="1108.08,-180 1046.08,-180 1046.08,-144 1108.08,-144 1108.08,-180"/>
<text text-anchor="middle" x="1077.08" y="-159.8" font-family="Times,serif" font-size="9.00">Sequence</text>
</g>
<!-- Fallback &#160;&#160;&#160;&#160;&#160;&#160;&#45;&gt;Sequence &#160;&#160;&#160;&#160;&#160; -->
<g id="edge28" class="edge">
<title>Fallback &#160;&#160;&#160;&#160;&#160;&#160;&#45;&gt;Sequence &#160;&#160;&#160;&#160;&#160;</title>
<path fill="none" stroke="black" d="M1034.17,-215.7C1041,-207.3 1049.34,-197.07 1056.84,-187.86"/>
<polygon fill="black" stroke="black" points="1059.55,-190.07 1063.15,-180.1 1054.12,-185.65 1059.55,-190.07"/>
</g>
<!-- Fallback &#160;&#160;&#160;&#160;&#160;&#160;&#160; -->
<g id="node30" class="node">
<title>Fallback &#160;&#160;&#160;&#160;&#160;&#160;&#160;</title>
<polygon fill="cyan" stroke="black" points="1059.07,-82.54 1059.07,-97.46 1038.57,-108 1009.59,-108 989.09,-97.46 989.09,-82.54 1009.59,-72 1038.57,-72 1059.07,-82.54"/>
<text text-anchor="middle" x="1024.08" y="-87.8" font-family="Times,serif" font-size="9.00">Fallback</text>
</g>
<!-- Sequence &#160;&#160;&#160;&#160;&#160;&#45;&gt;Fallback &#160;&#160;&#160;&#160;&#160;&#160;&#160; -->
<g id="edge29" class="edge">
<title>Sequence &#160;&#160;&#160;&#160;&#160;&#45;&gt;Fallback &#160;&#160;&#160;&#160;&#160;&#160;&#160;</title>
<path fill="none" stroke="black" d="M1063.98,-143.7C1057.69,-135.39 1050.03,-125.28 1043.12,-116.14"/>
<polygon fill="black" stroke="black" points="1045.86,-113.96 1037.03,-108.1 1040.28,-118.19 1045.86,-113.96"/>
</g>
<!-- pick0 GreenBox -->
<g id="node33" class="node">
<title>pick0 GreenBox</title>
<ellipse fill="lightgray" stroke="black" cx="1130.08" cy="-90" rx="52.58" ry="18"/>
<text text-anchor="middle" x="1130.08" y="-87.8" font-family="Times,serif" font-size="9.00">pick0 GreenBox</text>
</g>
<!-- Sequence &#160;&#160;&#160;&#160;&#160;&#45;&gt;pick0 GreenBox -->
<g id="edge32" class="edge">
<title>Sequence &#160;&#160;&#160;&#160;&#160;&#45;&gt;pick0 GreenBox</title>
<path fill="none" stroke="black" d="M1090.18,-143.7C1096.57,-135.27 1104.36,-124.97 1111.35,-115.73"/>
<polygon fill="black" stroke="black" points="1114.25,-117.71 1117.5,-107.62 1108.67,-113.48 1114.25,-117.71"/>
</g>
<!-- gripper_state open &#160; -->
<g id="node31" class="node">
<title>gripper_state open &#160;</title>
<ellipse fill="lightgray" stroke="black" cx="962.08" cy="-18" rx="60.09" ry="18"/>
<text text-anchor="middle" x="962.08" y="-15.8" font-family="Times,serif" font-size="9.00">gripper_state open</text>
</g>
<!-- Fallback &#160;&#160;&#160;&#160;&#160;&#160;&#160;&#45;&gt;gripper_state open &#160; -->
<g id="edge30" class="edge">
<title>Fallback &#160;&#160;&#160;&#160;&#160;&#160;&#160;&#45;&gt;gripper_state open &#160;</title>
<path fill="none" stroke="black" d="M1009.07,-72.05C1001.46,-63.46 992.07,-52.86 983.69,-43.4"/>
<polygon fill="black" stroke="black" points="986.2,-40.95 976.95,-35.79 980.96,-45.6 986.2,-40.95"/>
</g>
<!-- open_gripper &#160; -->
<g id="node32" class="node">
<title>open_gripper &#160;</title>
<ellipse fill="lightgray" stroke="black" cx="1086.08" cy="-18" rx="45.72" ry="18"/>
<text text-anchor="middle" x="1086.08" y="-15.8" font-family="Times,serif" font-size="9.00">open_gripper</text>
</g>
<!-- Fallback &#160;&#160;&#160;&#160;&#160;&#160;&#160;&#45;&gt;open_gripper &#160; -->
<g id="edge31" class="edge">
<title>Fallback &#160;&#160;&#160;&#160;&#160;&#160;&#160;&#45;&gt;open_gripper &#160;</title>
<path fill="none" stroke="black" d="M1039.09,-72.05C1046.82,-63.33 1056.37,-52.54 1064.84,-42.98"/>
<polygon fill="black" stroke="black" points="1067.63,-45.11 1071.64,-35.31 1062.39,-40.47 1067.63,-45.11"/>
</g>
</g>
</svg>
