<?xml version="1.0" encoding="UTF-8" standalone="no"?>
<!DOCTYPE svg PUBLIC "-//W3C//DTD SVG 1.1//EN"
 "http://www.w3.org/Graphics/SVG/1.1/DTD/svg11.dtd">
<!-- Generated by graphviz version 2.43.0 (0)
 -->
<!-- Title: pastafarianism Pages: 1 -->
<svg width="2816pt" height="513pt"
 viewBox="0.00 0.00 2815.95 513.48" xmlns="http://www.w3.org/2000/svg" xmlns:xlink="http://www.w3.org/1999/xlink">
<g id="graph0" class="graph" transform="scale(1 1) rotate(0) translate(4 509.48)">
<title>pastafarianism</title>
<polygon fill="white" stroke="transparent" points="-4,4 -4,-509.48 2811.95,-509.48 2811.95,4 -4,4"/>
<!-- selector:
 screw(left_hand, clampgripper, lampbulb, lampbase) -->
<g id="node1" class="node">
<title>selector:
 screw(left_hand, clampgripper, lampbulb, lampbase)</title>
<polygon fill="#8deeee" stroke="black" points="1554.42,-453.42 1554.42,-484.05 1330.14,-505.71 1012.96,-505.71 788.68,-484.05 788.68,-453.42 1012.96,-431.76 1330.14,-431.76 1554.42,-453.42"/>
<text text-anchor="middle" x="1171.55" y="-474.34" font-family="Times,serif" font-size="18.00">selector:</text>
<text text-anchor="middle" x="1171.55" y="-454.34" font-family="Times,serif" font-size="18.00"> screw(left_hand, clampgripper, lampbulb, lampbase)</text>
</g>
<!-- target:
 is_screwed_to(lampbulb, lampbase) -->
<g id="node2" class="node">
<title>target:
 is_screwed_to(lampbulb, lampbase)</title>
<ellipse fill="#ffec8b" stroke="black" cx="922.55" cy="-360" rx="231.37" ry="36"/>
<text text-anchor="middle" x="922.55" y="-365.6" font-family="Times,serif" font-size="18.00">target:</text>
<text text-anchor="middle" x="922.55" y="-345.6" font-family="Times,serif" font-size="18.00"> is_screwed_to(lampbulb, lampbase)</text>
</g>
<!-- selector:
 screw(left_hand, clampgripper, lampbulb, lampbase)&#45;&gt;target:
 is_screwed_to(lampbulb, lampbase) -->
<g id="edge1" class="edge">
<title>selector:
 screw(left_hand, clampgripper, lampbulb, lampbase)&#45;&gt;target:
 is_screwed_to(lampbulb, lampbase)</title>
<path fill="none" stroke="black" d="M1087.94,-431.9C1062.53,-421 1034.55,-409.01 1008.95,-398.04"/>
<polygon fill="black" stroke="black" points="1010.21,-394.77 999.64,-394.04 1007.45,-401.2 1010.21,-394.77"/>
</g>
<!-- sequence:
 screw(left_hand, clampgripper, lampbulb, lampbase) -->
<g id="node3" class="node">
<title>sequence:
 screw(left_hand, clampgripper, lampbulb, lampbase)</title>
<polygon fill="#ff7f24" stroke="black" points="1671.55,-396 1171.55,-396 1171.55,-324 1671.55,-324 1671.55,-396"/>
<text text-anchor="middle" x="1421.55" y="-365.6" font-family="Times,serif" font-size="18.00">sequence:</text>
<text text-anchor="middle" x="1421.55" y="-345.6" font-family="Times,serif" font-size="18.00"> screw(left_hand, clampgripper, lampbulb, lampbase)</text>
</g>
<!-- selector:
 screw(left_hand, clampgripper, lampbulb, lampbase)&#45;&gt;sequence:
 screw(left_hand, clampgripper, lampbulb, lampbase) -->
<g id="edge2" class="edge">
<title>selector:
 screw(left_hand, clampgripper, lampbulb, lampbase)&#45;&gt;sequence:
 screw(left_hand, clampgripper, lampbulb, lampbase)</title>
<path fill="none" stroke="black" d="M1255.49,-431.9C1279.52,-421.64 1305.82,-410.41 1330.26,-399.98"/>
<polygon fill="black" stroke="black" points="1331.7,-403.17 1339.53,-396.02 1328.96,-396.73 1331.7,-403.17"/>
</g>
<!-- selector:
 change_tool(left_hand, inwardgripper, clampgripper) -->
<g id="node4" class="node">
<title>selector:
 change_tool(left_hand, inwardgripper, clampgripper)</title>
<polygon fill="#8deeee" stroke="black" points="1025.09,-237.09 1025.09,-266.91 812.13,-288 510.97,-288 298.01,-266.91 298.01,-237.09 510.97,-216 812.13,-216 1025.09,-237.09"/>
<text text-anchor="middle" x="661.55" y="-257.6" font-family="Times,serif" font-size="18.00">selector:</text>
<text text-anchor="middle" x="661.55" y="-237.6" font-family="Times,serif" font-size="18.00"> change_tool(left_hand, inwardgripper, clampgripper)</text>
</g>
<!-- sequence:
 screw(left_hand, clampgripper, lampbulb, lampbase)&#45;&gt;selector:
 change_tool(left_hand, inwardgripper, clampgripper) -->
<g id="edge3" class="edge">
<title>sequence:
 screw(left_hand, clampgripper, lampbulb, lampbase)&#45;&gt;selector:
 change_tool(left_hand, inwardgripper, clampgripper)</title>
<path fill="none" stroke="black" d="M1171.38,-324.11C1077.67,-311.04 971.99,-296.3 881.25,-283.64"/>
<polygon fill="black" stroke="black" points="881.5,-280.14 871.11,-282.23 880.53,-287.08 881.5,-280.14"/>
</g>
<!-- selector:
 pick_up(left_hand, clampgripper, lampbulb) -->
<g id="node10" class="node">
<title>selector:
 pick_up(left_hand, clampgripper, lampbulb)</title>
<polygon fill="#8deeee" stroke="black" points="1725.06,-237.09 1725.06,-266.91 1547.27,-288 1295.83,-288 1118.04,-266.91 1118.04,-237.09 1295.83,-216 1547.27,-216 1725.06,-237.09"/>
<text text-anchor="middle" x="1421.55" y="-257.6" font-family="Times,serif" font-size="18.00">selector:</text>
<text text-anchor="middle" x="1421.55" y="-237.6" font-family="Times,serif" font-size="18.00"> pick_up(left_hand, clampgripper, lampbulb)</text>
</g>
<!-- sequence:
 screw(left_hand, clampgripper, lampbulb, lampbase)&#45;&gt;selector:
 pick_up(left_hand, clampgripper, lampbulb) -->
<g id="edge9" class="edge">
<title>sequence:
 screw(left_hand, clampgripper, lampbulb, lampbase)&#45;&gt;selector:
 pick_up(left_hand, clampgripper, lampbulb)</title>
<path fill="none" stroke="black" d="M1421.55,-324C1421.55,-315.85 1421.55,-307.06 1421.55,-298.54"/>
<polygon fill="black" stroke="black" points="1425.05,-298.33 1421.55,-288.33 1418.05,-298.33 1425.05,-298.33"/>
</g>
<!-- action:
 screw(left_hand, clampgripper, lampbulb, lampbase) -->
<g id="node16" class="node">
<title>action:
 screw(left_hand, clampgripper, lampbulb, lampbase)</title>
<ellipse fill="lightgreen" stroke="black" cx="2078.55" cy="-252" rx="335.32" ry="36"/>
<text text-anchor="middle" x="2078.55" y="-257.6" font-family="Times,serif" font-size="18.00">action:</text>
<text text-anchor="middle" x="2078.55" y="-237.6" font-family="Times,serif" font-size="18.00"> screw(left_hand, clampgripper, lampbulb, lampbase)</text>
</g>
<!-- sequence:
 screw(left_hand, clampgripper, lampbulb, lampbase)&#45;&gt;action:
 screw(left_hand, clampgripper, lampbulb, lampbase) -->
<g id="edge15" class="edge">
<title>sequence:
 screw(left_hand, clampgripper, lampbulb, lampbase)&#45;&gt;action:
 screw(left_hand, clampgripper, lampbulb, lampbase)</title>
<path fill="none" stroke="black" d="M1638.5,-324C1718.79,-311.04 1809.17,-296.46 1887.04,-283.9"/>
<polygon fill="black" stroke="black" points="1887.64,-287.35 1896.96,-282.3 1886.53,-280.44 1887.64,-287.35"/>
</g>
<!-- target:
 hold(left_hand, clampgripper) -->
<g id="node5" class="node">
<title>target:
 hold(left_hand, clampgripper)</title>
<ellipse fill="#ffec8b" stroke="black" cx="196.55" cy="-144" rx="196.6" ry="36"/>
<text text-anchor="middle" x="196.55" y="-149.6" font-family="Times,serif" font-size="18.00">target:</text>
<text text-anchor="middle" x="196.55" y="-129.6" font-family="Times,serif" font-size="18.00"> hold(left_hand, clampgripper)</text>
</g>
<!-- selector:
 change_tool(left_hand, inwardgripper, clampgripper)&#45;&gt;target:
 hold(left_hand, clampgripper) -->
<g id="edge4" class="edge">
<title>selector:
 change_tool(left_hand, inwardgripper, clampgripper)&#45;&gt;target:
 hold(left_hand, clampgripper)</title>
<path fill="none" stroke="black" d="M508.65,-216.14C449.97,-202.77 383.59,-187.64 327.18,-174.78"/>
<polygon fill="black" stroke="black" points="327.66,-171.3 317.13,-172.49 326.11,-178.12 327.66,-171.3"/>
</g>
<!-- sequence:
 change_tool(left_hand, inwardgripper, clampgripper) -->
<g id="node6" class="node">
<title>sequence:
 change_tool(left_hand, inwardgripper, clampgripper)</title>
<polygon fill="#ff7f24" stroke="black" points="912.05,-180 411.05,-180 411.05,-108 912.05,-108 912.05,-180"/>
<text text-anchor="middle" x="661.55" y="-149.6" font-family="Times,serif" font-size="18.00">sequence:</text>
<text text-anchor="middle" x="661.55" y="-129.6" font-family="Times,serif" font-size="18.00"> change_tool(left_hand, inwardgripper, clampgripper)</text>
</g>
<!-- selector:
 change_tool(left_hand, inwardgripper, clampgripper)&#45;&gt;sequence:
 change_tool(left_hand, inwardgripper, clampgripper) -->
<g id="edge5" class="edge">
<title>selector:
 change_tool(left_hand, inwardgripper, clampgripper)&#45;&gt;sequence:
 change_tool(left_hand, inwardgripper, clampgripper)</title>
<path fill="none" stroke="black" d="M661.55,-216C661.55,-207.85 661.55,-199.06 661.55,-190.54"/>
<polygon fill="black" stroke="black" points="665.05,-190.33 661.55,-180.33 658.05,-190.33 665.05,-190.33"/>
</g>
<!-- precondition:
 hold(left_hand, inwardgripper) -->
<g id="node7" class="node">
<title>precondition:
 hold(left_hand, inwardgripper)</title>
<ellipse fill="#ffec8b" stroke="black" cx="237.55" cy="-36" rx="201.83" ry="36"/>
<text text-anchor="middle" x="237.55" y="-41.6" font-family="Times,serif" font-size="18.00">precondition:</text>
<text text-anchor="middle" x="237.55" y="-21.6" font-family="Times,serif" font-size="18.00"> hold(left_hand, inwardgripper)</text>
</g>
<!-- sequence:
 change_tool(left_hand, inwardgripper, clampgripper)&#45;&gt;precondition:
 hold(left_hand, inwardgripper) -->
<g id="edge6" class="edge">
<title>sequence:
 change_tool(left_hand, inwardgripper, clampgripper)&#45;&gt;precondition:
 hold(left_hand, inwardgripper)</title>
<path fill="none" stroke="black" d="M521.54,-108C470.1,-95.14 412.23,-80.67 362.22,-68.17"/>
<polygon fill="black" stroke="black" points="362.88,-64.72 352.33,-65.69 361.18,-71.52 362.88,-64.72"/>
</g>
<!-- precondition:
 is_empty(inwardgripper) -->
<g id="node8" class="node">
<title>precondition:
 is_empty(inwardgripper)</title>
<ellipse fill="#ffec8b" stroke="black" cx="623.55" cy="-36" rx="165.89" ry="36"/>
<text text-anchor="middle" x="623.55" y="-41.6" font-family="Times,serif" font-size="18.00">precondition:</text>
<text text-anchor="middle" x="623.55" y="-21.6" font-family="Times,serif" font-size="18.00"> is_empty(inwardgripper)</text>
</g>
<!-- sequence:
 change_tool(left_hand, inwardgripper, clampgripper)&#45;&gt;precondition:
 is_empty(inwardgripper) -->
<g id="edge7" class="edge">
<title>sequence:
 change_tool(left_hand, inwardgripper, clampgripper)&#45;&gt;precondition:
 is_empty(inwardgripper)</title>
<path fill="none" stroke="black" d="M649,-108C645.95,-99.5 642.65,-90.29 639.47,-81.42"/>
<polygon fill="black" stroke="black" points="642.75,-80.2 636.09,-71.97 636.17,-82.56 642.75,-80.2"/>
</g>
<!-- action:
 change_tool(left_hand, inwardgripper, clampgripper) -->
<g id="node9" class="node">
<title>action:
 change_tool(left_hand, inwardgripper, clampgripper)</title>
<ellipse fill="lightgreen" stroke="black" cx="1143.55" cy="-36" rx="336.16" ry="36"/>
<text text-anchor="middle" x="1143.55" y="-41.6" font-family="Times,serif" font-size="18.00">action:</text>
<text text-anchor="middle" x="1143.55" y="-21.6" font-family="Times,serif" font-size="18.00"> change_tool(left_hand, inwardgripper, clampgripper)</text>
</g>
<!-- sequence:
 change_tool(left_hand, inwardgripper, clampgripper)&#45;&gt;action:
 change_tool(left_hand, inwardgripper, clampgripper) -->
<g id="edge8" class="edge">
<title>sequence:
 change_tool(left_hand, inwardgripper, clampgripper)&#45;&gt;action:
 change_tool(left_hand, inwardgripper, clampgripper)</title>
<path fill="none" stroke="black" d="M820.71,-108C875.18,-96.02 935.98,-82.65 989.99,-70.77"/>
<polygon fill="black" stroke="black" points="990.98,-74.14 1000,-68.57 989.48,-67.3 990.98,-74.14"/>
</g>
<!-- target:
 hold(clampgripper, lampbulb) -->
<g id="node11" class="node">
<title>target:
 hold(clampgripper, lampbulb)</title>
<ellipse fill="#ffec8b" stroke="black" cx="1421.55" cy="-144" rx="195.42" ry="36"/>
<text text-anchor="middle" x="1421.55" y="-149.6" font-family="Times,serif" font-size="18.00">target:</text>
<text text-anchor="middle" x="1421.55" y="-129.6" font-family="Times,serif" font-size="18.00"> hold(clampgripper, lampbulb)</text>
</g>
<!-- selector:
 pick_up(left_hand, clampgripper, lampbulb)&#45;&gt;target:
 hold(clampgripper, lampbulb) -->
<g id="edge10" class="edge">
<title>selector:
 pick_up(left_hand, clampgripper, lampbulb)&#45;&gt;target:
 hold(clampgripper, lampbulb)</title>
<path fill="none" stroke="black" d="M1421.55,-216C1421.55,-207.85 1421.55,-199.06 1421.55,-190.54"/>
<polygon fill="black" stroke="black" points="1425.05,-190.33 1421.55,-180.33 1418.05,-190.33 1425.05,-190.33"/>
</g>
<!-- sequence:
 pick_up(left_hand, clampgripper, lampbulb) -->
<g id="node12" class="node">
<title>sequence:
 pick_up(left_hand, clampgripper, lampbulb)</title>
<polygon fill="#ff7f24" stroke="black" points="2203.55,-180 1785.55,-180 1785.55,-108 2203.55,-108 2203.55,-180"/>
<text text-anchor="middle" x="1994.55" y="-149.6" font-family="Times,serif" font-size="18.00">sequence:</text>
<text text-anchor="middle" x="1994.55" y="-129.6" font-family="Times,serif" font-size="18.00"> pick_up(left_hand, clampgripper, lampbulb)</text>
</g>
<!-- selector:
 pick_up(left_hand, clampgripper, lampbulb)&#45;&gt;sequence:
 pick_up(left_hand, clampgripper, lampbulb) -->
<g id="edge11" class="edge">
<title>selector:
 pick_up(left_hand, clampgripper, lampbulb)&#45;&gt;sequence:
 pick_up(left_hand, clampgripper, lampbulb)</title>
<path fill="none" stroke="black" d="M1586.13,-220.55C1651.37,-208.49 1726.98,-194.5 1795.27,-181.86"/>
<polygon fill="black" stroke="black" points="1796.1,-185.27 1805.29,-180.01 1794.83,-178.39 1796.1,-185.27"/>
</g>
<!-- precondition:
 is_empty(clampgripper) -->
<g id="node13" class="node">
<title>precondition:
 is_empty(clampgripper)</title>
<ellipse fill="#ffec8b" stroke="black" cx="1657.55" cy="-36" rx="160.15" ry="36"/>
<text text-anchor="middle" x="1657.55" y="-41.6" font-family="Times,serif" font-size="18.00">precondition:</text>
<text text-anchor="middle" x="1657.55" y="-21.6" font-family="Times,serif" font-size="18.00"> is_empty(clampgripper)</text>
</g>
<!-- sequence:
 pick_up(left_hand, clampgripper, lampbulb)&#45;&gt;precondition:
 is_empty(clampgripper) -->
<g id="edge12" class="edge">
<title>sequence:
 pick_up(left_hand, clampgripper, lampbulb)&#45;&gt;precondition:
 is_empty(clampgripper)</title>
<path fill="none" stroke="black" d="M1883.27,-108C1843.06,-95.35 1797.92,-81.15 1758.63,-68.79"/>
<polygon fill="black" stroke="black" points="1759.37,-65.36 1748.78,-65.69 1757.27,-72.03 1759.37,-65.36"/>
</g>
<!-- precondition:
 hold(left_hand, clampgripper) -->
<g id="node14" class="node">
<title>precondition:
 hold(left_hand, clampgripper)</title>
<ellipse fill="#ffec8b" stroke="black" cx="2032.55" cy="-36" rx="196.6" ry="36"/>
<text text-anchor="middle" x="2032.55" y="-41.6" font-family="Times,serif" font-size="18.00">precondition:</text>
<text text-anchor="middle" x="2032.55" y="-21.6" font-family="Times,serif" font-size="18.00"> hold(left_hand, clampgripper)</text>
</g>
<!-- sequence:
 pick_up(left_hand, clampgripper, lampbulb)&#45;&gt;precondition:
 hold(left_hand, clampgripper) -->
<g id="edge13" class="edge">
<title>sequence:
 pick_up(left_hand, clampgripper, lampbulb)&#45;&gt;precondition:
 hold(left_hand, clampgripper)</title>
<path fill="none" stroke="black" d="M2007.1,-108C2010.15,-99.5 2013.45,-90.29 2016.63,-81.42"/>
<polygon fill="black" stroke="black" points="2019.94,-82.56 2020.02,-71.97 2013.35,-80.2 2019.94,-82.56"/>
</g>
<!-- action:
 pick_up(left_hand, clampgripper, lampbulb) -->
<g id="node15" class="node">
<title>action:
 pick_up(left_hand, clampgripper, lampbulb)</title>
<ellipse fill="lightgreen" stroke="black" cx="2527.55" cy="-36" rx="280.31" ry="36"/>
<text text-anchor="middle" x="2527.55" y="-41.6" font-family="Times,serif" font-size="18.00">action:</text>
<text text-anchor="middle" x="2527.55" y="-21.6" font-family="Times,serif" font-size="18.00"> pick_up(left_hand, clampgripper, lampbulb)</text>
</g>
<!-- sequence:
 pick_up(left_hand, clampgripper, lampbulb)&#45;&gt;action:
 pick_up(left_hand, clampgripper, lampbulb) -->
<g id="edge14" class="edge">
<title>sequence:
 pick_up(left_hand, clampgripper, lampbulb)&#45;&gt;action:
 pick_up(left_hand, clampgripper, lampbulb)</title>
<path fill="none" stroke="black" d="M2170.55,-108C2234.59,-95.26 2306.55,-80.95 2368.99,-68.53"/>
<polygon fill="black" stroke="black" points="2369.8,-71.94 2378.92,-66.56 2368.43,-65.08 2369.8,-71.94"/>
</g>
</g>
</svg>
