<?xml version="1.0" encoding="UTF-8" standalone="no"?>
<!DOCTYPE svg PUBLIC "-//W3C//DTD SVG 1.1//EN"
 "http://www.w3.org/Graphics/SVG/1.1/DTD/svg11.dtd">
<!-- Generated by graphviz version 2.43.0 (0)
 -->
<!-- Title: pastafarianism Pages: 1 -->
<svg width="5957pt" height="503pt"
 viewBox="0.00 0.00 5956.62 502.60" xmlns="http://www.w3.org/2000/svg" xmlns:xlink="http://www.w3.org/1999/xlink">
<g id="graph0" class="graph" transform="scale(1 1) rotate(0) translate(4 498.6)">
<title>pastafarianism</title>
<polygon fill="white" stroke="transparent" points="-4,4 -4,-498.6 5952.62,-498.6 5952.62,4 -4,4"/>
<!-- selector:
 insert_gear2_into_shaft2 -->
<g id="node1" class="node">
<title>selector:
 insert_gear2_into_shaft2</title>
<polygon fill="#8deeee" stroke="black" points="2425.71,-442.54 2425.71,-473.18 2315.86,-494.84 2160.5,-494.84 2050.65,-473.18 2050.65,-442.54 2160.5,-420.88 2315.86,-420.88 2425.71,-442.54"/>
<text text-anchor="middle" x="2238.18" y="-463.46" font-family="Times,serif" font-size="18.00">selector:</text>
<text text-anchor="middle" x="2238.18" y="-443.46" font-family="Times,serif" font-size="18.00"> insert_gear2_into_shaft2</text>
</g>
<!-- target:
 is_inserted_to(gear2, shaft2) -->
<g id="node2" class="node">
<title>target:
 is_inserted_to(gear2, shaft2)</title>
<ellipse fill="#ffec8b" stroke="black" cx="2069.18" cy="-351.18" rx="198.89" ry="33.88"/>
<text text-anchor="middle" x="2069.18" y="-356.78" font-family="Times,serif" font-size="18.00">target:</text>
<text text-anchor="middle" x="2069.18" y="-336.78" font-family="Times,serif" font-size="18.00"> is_inserted_to(gear2, shaft2)</text>
</g>
<!-- selector:
 insert_gear2_into_shaft2&#45;&gt;target:
 is_inserted_to(gear2, shaft2) -->
<g id="edge1" class="edge">
<title>selector:
 insert_gear2_into_shaft2&#45;&gt;target:
 is_inserted_to(gear2, shaft2)</title>
<path fill="none" stroke="black" d="M2180.02,-420.84C2163.6,-410.66 2145.7,-399.58 2129.17,-389.34"/>
<polygon fill="black" stroke="black" points="2131.01,-386.36 2120.67,-384.07 2127.32,-392.31 2131.01,-386.36"/>
</g>
<!-- sequence:
 insert_gear2_into_shaft2 -->
<g id="node3" class="node">
<title>sequence:
 insert_gear2_into_shaft2</title>
<polygon fill="#ff7f24" stroke="black" points="2530.68,-375.18 2285.68,-375.18 2285.68,-327.18 2530.68,-327.18 2530.68,-375.18"/>
<text text-anchor="middle" x="2408.18" y="-356.78" font-family="Times,serif" font-size="18.00">sequence:</text>
<text text-anchor="middle" x="2408.18" y="-336.78" font-family="Times,serif" font-size="18.00"> insert_gear2_into_shaft2</text>
</g>
<!-- selector:
 insert_gear2_into_shaft2&#45;&gt;sequence:
 insert_gear2_into_shaft2 -->
<g id="edge2" class="edge">
<title>selector:
 insert_gear2_into_shaft2&#45;&gt;sequence:
 insert_gear2_into_shaft2</title>
<path fill="none" stroke="black" d="M2296.69,-420.84C2318.02,-407.7 2341.83,-393.04 2361.95,-380.65"/>
<polygon fill="black" stroke="black" points="2363.94,-383.53 2370.62,-375.31 2360.27,-377.57 2363.94,-383.53"/>
</g>
<!-- selector:
 put_down(left_hand, clampgripper, shaft1) -->
<g id="node4" class="node">
<title>selector:
 put_down(left_hand, clampgripper, shaft1)</title>
<polygon fill="#8deeee" stroke="black" points="1174.69,-229.19 1174.69,-259.82 992.21,-281.48 734.15,-281.48 551.67,-259.82 551.67,-229.19 734.15,-207.53 992.21,-207.53 1174.69,-229.19"/>
<text text-anchor="middle" x="863.18" y="-250.1" font-family="Times,serif" font-size="18.00">selector:</text>
<text text-anchor="middle" x="863.18" y="-230.1" font-family="Times,serif" font-size="18.00"> put_down(left_hand, clampgripper, shaft1)</text>
</g>
<!-- sequence:
 insert_gear2_into_shaft2&#45;&gt;selector:
 put_down(left_hand, clampgripper, shaft1) -->
<g id="edge3" class="edge">
<title>sequence:
 insert_gear2_into_shaft2&#45;&gt;selector:
 put_down(left_hand, clampgripper, shaft1)</title>
<path fill="none" stroke="black" d="M2326.92,-327.13C2310.57,-323.23 2293.42,-319.67 2277.18,-317.24 2224.13,-309.3 1585.69,-278.82 1185.05,-260.24"/>
<polygon fill="black" stroke="black" points="1185.19,-256.74 1175.04,-259.78 1184.87,-263.74 1185.19,-256.74"/>
</g>
<!-- selector:
 change_tool(left_hand, clampgripper, outwardgripper) -->
<g id="node10" class="node">
<title>selector:
 change_tool(left_hand, clampgripper, outwardgripper)</title>
<polygon fill="#8deeee" stroke="black" points="2436.95,-229.19 2436.95,-259.82 2206.87,-281.48 1881.49,-281.48 1651.42,-259.82 1651.42,-229.19 1881.49,-207.53 2206.87,-207.53 2436.95,-229.19"/>
<text text-anchor="middle" x="2044.18" y="-250.1" font-family="Times,serif" font-size="18.00">selector:</text>
<text text-anchor="middle" x="2044.18" y="-230.1" font-family="Times,serif" font-size="18.00"> change_tool(left_hand, clampgripper, outwardgripper)</text>
</g>
<!-- sequence:
 insert_gear2_into_shaft2&#45;&gt;selector:
 change_tool(left_hand, clampgripper, outwardgripper) -->
<g id="edge9" class="edge">
<title>sequence:
 insert_gear2_into_shaft2&#45;&gt;selector:
 change_tool(left_hand, clampgripper, outwardgripper)</title>
<path fill="none" stroke="black" d="M2327.85,-327.08C2283.99,-314.47 2228.53,-298.52 2178.3,-284.07"/>
<polygon fill="black" stroke="black" points="2179.24,-280.7 2168.66,-281.3 2177.31,-287.43 2179.24,-280.7"/>
</g>
<!-- selector:
 pick_up(left_hand, outwardgripper, gear2) -->
<g id="node16" class="node">
<title>selector:
 pick_up(left_hand, outwardgripper, gear2)</title>
<polygon fill="#8deeee" stroke="black" points="3219.13,-229.19 3219.13,-259.82 3037.57,-281.48 2780.8,-281.48 2599.24,-259.82 2599.24,-229.19 2780.8,-207.53 3037.57,-207.53 3219.13,-229.19"/>
<text text-anchor="middle" x="2909.18" y="-250.1" font-family="Times,serif" font-size="18.00">selector:</text>
<text text-anchor="middle" x="2909.18" y="-230.1" font-family="Times,serif" font-size="18.00"> pick_up(left_hand, outwardgripper, gear2)</text>
</g>
<!-- sequence:
 insert_gear2_into_shaft2&#45;&gt;selector:
 pick_up(left_hand, outwardgripper, gear2) -->
<g id="edge15" class="edge">
<title>sequence:
 insert_gear2_into_shaft2&#45;&gt;selector:
 pick_up(left_hand, outwardgripper, gear2)</title>
<path fill="none" stroke="black" d="M2518.44,-327.14C2584.2,-313.4 2668.98,-295.69 2742.76,-280.27"/>
<polygon fill="black" stroke="black" points="2743.56,-283.68 2752.63,-278.21 2742.12,-276.83 2743.56,-283.68"/>
</g>
<!-- selector:
 insert(left_hand, outwardgripper, gear2, shaft2) -->
<g id="node22" class="node">
<title>selector:
 insert(left_hand, outwardgripper, gear2, shaft2)</title>
<polygon fill="#8deeee" stroke="black" points="4393.2,-229.19 4393.2,-259.82 4188.75,-281.48 3899.62,-281.48 3695.17,-259.82 3695.17,-229.19 3899.62,-207.53 4188.75,-207.53 4393.2,-229.19"/>
<text text-anchor="middle" x="4044.18" y="-250.1" font-family="Times,serif" font-size="18.00">selector:</text>
<text text-anchor="middle" x="4044.18" y="-230.1" font-family="Times,serif" font-size="18.00"> insert(left_hand, outwardgripper, gear2, shaft2)</text>
</g>
<!-- sequence:
 insert_gear2_into_shaft2&#45;&gt;selector:
 insert(left_hand, outwardgripper, gear2, shaft2) -->
<g id="edge21" class="edge">
<title>sequence:
 insert_gear2_into_shaft2&#45;&gt;selector:
 insert(left_hand, outwardgripper, gear2, shaft2)</title>
<path fill="none" stroke="black" d="M2530.81,-342.33C2783.21,-326.19 3367.58,-288.79 3731.84,-265.49"/>
<polygon fill="black" stroke="black" points="3732.26,-268.97 3742.02,-264.84 3731.81,-261.98 3732.26,-268.97"/>
</g>
<!-- target:
 is_empty(clampgripper) -->
<g id="node5" class="node">
<title>target:
 is_empty(clampgripper)</title>
<ellipse fill="#ffec8b" stroke="black" cx="473.18" cy="-137.82" rx="169" ry="33.88"/>
<text text-anchor="middle" x="473.18" y="-143.42" font-family="Times,serif" font-size="18.00">target:</text>
<text text-anchor="middle" x="473.18" y="-123.42" font-family="Times,serif" font-size="18.00"> is_empty(clampgripper)</text>
</g>
<!-- selector:
 put_down(left_hand, clampgripper, shaft1)&#45;&gt;target:
 is_empty(clampgripper) -->
<g id="edge4" class="edge">
<title>selector:
 put_down(left_hand, clampgripper, shaft1)&#45;&gt;target:
 is_empty(clampgripper)</title>
<path fill="none" stroke="black" d="M730.6,-207.92C682.15,-194.91 627.96,-180.37 581.84,-167.99"/>
<polygon fill="black" stroke="black" points="582.69,-164.59 572.13,-165.38 580.88,-171.35 582.69,-164.59"/>
</g>
<!-- sequence:
 put_down(left_hand, clampgripper, shaft1) -->
<g id="node6" class="node">
<title>sequence:
 put_down(left_hand, clampgripper, shaft1)</title>
<polygon fill="#ff7f24" stroke="black" points="1066.68,-161.82 659.68,-161.82 659.68,-113.82 1066.68,-113.82 1066.68,-161.82"/>
<text text-anchor="middle" x="863.18" y="-143.42" font-family="Times,serif" font-size="18.00">sequence:</text>
<text text-anchor="middle" x="863.18" y="-123.42" font-family="Times,serif" font-size="18.00"> put_down(left_hand, clampgripper, shaft1)</text>
</g>
<!-- selector:
 put_down(left_hand, clampgripper, shaft1)&#45;&gt;sequence:
 put_down(left_hand, clampgripper, shaft1) -->
<g id="edge5" class="edge">
<title>selector:
 put_down(left_hand, clampgripper, shaft1)&#45;&gt;sequence:
 put_down(left_hand, clampgripper, shaft1)</title>
<path fill="none" stroke="black" d="M863.18,-207.48C863.18,-196.09 863.18,-183.57 863.18,-172.36"/>
<polygon fill="black" stroke="black" points="866.68,-172.11 863.18,-162.11 859.68,-172.11 866.68,-172.11"/>
</g>
<!-- precondition:
 hold(left_hand, clampgripper) -->
<g id="node7" class="node">
<title>precondition:
 hold(left_hand, clampgripper)</title>
<ellipse fill="#ffec8b" stroke="black" cx="207.18" cy="-33.94" rx="207.36" ry="33.88"/>
<text text-anchor="middle" x="207.18" y="-39.54" font-family="Times,serif" font-size="18.00">precondition:</text>
<text text-anchor="middle" x="207.18" y="-19.54" font-family="Times,serif" font-size="18.00"> hold(left_hand, clampgripper)</text>
</g>
<!-- sequence:
 put_down(left_hand, clampgripper, shaft1)&#45;&gt;precondition:
 hold(left_hand, clampgripper) -->
<g id="edge6" class="edge">
<title>sequence:
 put_down(left_hand, clampgripper, shaft1)&#45;&gt;precondition:
 hold(left_hand, clampgripper)</title>
<path fill="none" stroke="black" d="M714.92,-113.78C693.53,-110.46 671.79,-107.08 651.18,-103.88 556.09,-89.11 449.54,-72.57 364.66,-59.39"/>
<polygon fill="black" stroke="black" points="365.1,-55.91 354.68,-57.84 364.02,-62.83 365.1,-55.91"/>
</g>
<!-- precondition:
 hold(clampgripper, shaft1) -->
<g id="node8" class="node">
<title>precondition:
 hold(clampgripper, shaft1)</title>
<ellipse fill="#ffec8b" stroke="black" cx="618.18" cy="-33.94" rx="185.94" ry="33.88"/>
<text text-anchor="middle" x="618.18" y="-39.54" font-family="Times,serif" font-size="18.00">precondition:</text>
<text text-anchor="middle" x="618.18" y="-19.54" font-family="Times,serif" font-size="18.00"> hold(clampgripper, shaft1)</text>
</g>
<!-- sequence:
 put_down(left_hand, clampgripper, shaft1)&#45;&gt;precondition:
 hold(clampgripper, shaft1) -->
<g id="edge7" class="edge">
<title>sequence:
 put_down(left_hand, clampgripper, shaft1)&#45;&gt;precondition:
 hold(clampgripper, shaft1)</title>
<path fill="none" stroke="black" d="M807.59,-113.7C775.97,-100.55 735.76,-83.84 700.54,-69.19"/>
<polygon fill="black" stroke="black" points="701.8,-65.92 691.22,-65.32 699.11,-72.39 701.8,-65.92"/>
</g>
<!-- action:
 put_down(left_hand, clampgripper, shaft1) -->
<g id="node9" class="node">
<title>action:
 put_down(left_hand, clampgripper, shaft1)</title>
<ellipse fill="lightgreen" stroke="black" cx="1110.18" cy="-33.94" rx="287.59" ry="33.88"/>
<text text-anchor="middle" x="1110.18" y="-39.54" font-family="Times,serif" font-size="18.00">action:</text>
<text text-anchor="middle" x="1110.18" y="-19.54" font-family="Times,serif" font-size="18.00"> put_down(left_hand, clampgripper, shaft1)</text>
</g>
<!-- sequence:
 put_down(left_hand, clampgripper, shaft1)&#45;&gt;action:
 put_down(left_hand, clampgripper, shaft1) -->
<g id="edge8" class="edge">
<title>sequence:
 put_down(left_hand, clampgripper, shaft1)&#45;&gt;action:
 put_down(left_hand, clampgripper, shaft1)</title>
<path fill="none" stroke="black" d="M919.23,-113.7C950.06,-100.99 988.99,-84.93 1023.64,-70.64"/>
<polygon fill="black" stroke="black" points="1025.38,-73.71 1033.29,-66.66 1022.71,-67.23 1025.38,-73.71"/>
</g>
<!-- target:
 hold(left_hand, outwardgripper) -->
<g id="node11" class="node">
<title>target:
 hold(left_hand, outwardgripper)</title>
<ellipse fill="#ffec8b" stroke="black" cx="1548.18" cy="-137.82" rx="221.15" ry="33.88"/>
<text text-anchor="middle" x="1548.18" y="-143.42" font-family="Times,serif" font-size="18.00">target:</text>
<text text-anchor="middle" x="1548.18" y="-123.42" font-family="Times,serif" font-size="18.00"> hold(left_hand, outwardgripper)</text>
</g>
<!-- selector:
 change_tool(left_hand, clampgripper, outwardgripper)&#45;&gt;target:
 hold(left_hand, outwardgripper) -->
<g id="edge10" class="edge">
<title>selector:
 change_tool(left_hand, clampgripper, outwardgripper)&#45;&gt;target:
 hold(left_hand, outwardgripper)</title>
<path fill="none" stroke="black" d="M1875.91,-207.99C1813.9,-194.9 1744.45,-180.24 1685.49,-167.8"/>
<polygon fill="black" stroke="black" points="1685.87,-164.31 1675.37,-165.67 1684.43,-171.15 1685.87,-164.31"/>
</g>
<!-- sequence:
 change_tool(left_hand, clampgripper, outwardgripper) -->
<g id="node12" class="node">
<title>sequence:
 change_tool(left_hand, clampgripper, outwardgripper)</title>
<polygon fill="#ff7f24" stroke="black" points="2300.68,-161.82 1787.68,-161.82 1787.68,-113.82 2300.68,-113.82 2300.68,-161.82"/>
<text text-anchor="middle" x="2044.18" y="-143.42" font-family="Times,serif" font-size="18.00">sequence:</text>
<text text-anchor="middle" x="2044.18" y="-123.42" font-family="Times,serif" font-size="18.00"> change_tool(left_hand, clampgripper, outwardgripper)</text>
</g>
<!-- selector:
 change_tool(left_hand, clampgripper, outwardgripper)&#45;&gt;sequence:
 change_tool(left_hand, clampgripper, outwardgripper) -->
<g id="edge11" class="edge">
<title>selector:
 change_tool(left_hand, clampgripper, outwardgripper)&#45;&gt;sequence:
 change_tool(left_hand, clampgripper, outwardgripper)</title>
<path fill="none" stroke="black" d="M2044.18,-207.48C2044.18,-196.09 2044.18,-183.57 2044.18,-172.36"/>
<polygon fill="black" stroke="black" points="2047.68,-172.11 2044.18,-162.11 2040.68,-172.11 2047.68,-172.11"/>
</g>
<!-- &quot;precondition:\n hold(left_hand, clampgripper)&quot;* -->
<g id="node13" class="node">
<title>&quot;precondition:\n hold(left_hand, clampgripper)&quot;*</title>
<ellipse fill="#ffec8b" stroke="black" cx="1635.18" cy="-33.94" rx="219.41" ry="33.88"/>
<text text-anchor="middle" x="1635.18" y="-39.54" font-family="Times,serif" font-size="18.00">&quot;precondition:</text>
<text text-anchor="middle" x="1635.18" y="-19.54" font-family="Times,serif" font-size="18.00"> hold(left_hand, clampgripper)&quot;*</text>
</g>
<!-- sequence:
 change_tool(left_hand, clampgripper, outwardgripper)&#45;&gt;&quot;precondition:\n hold(left_hand, clampgripper)&quot;* -->
<g id="edge12" class="edge">
<title>sequence:
 change_tool(left_hand, clampgripper, outwardgripper)&#45;&gt;&quot;precondition:\n hold(left_hand, clampgripper)&quot;*</title>
<path fill="none" stroke="black" d="M1951.63,-113.77C1894.37,-99.5 1820.18,-81.02 1758.03,-65.54"/>
<polygon fill="black" stroke="black" points="1758.71,-62.11 1748.16,-63.08 1757.02,-68.9 1758.71,-62.11"/>
</g>
<!-- precondition:
 is_empty(clampgripper) -->
<g id="node14" class="node">
<title>precondition:
 is_empty(clampgripper)</title>
<ellipse fill="#ffec8b" stroke="black" cx="2041.18" cy="-33.94" rx="169" ry="33.88"/>
<text text-anchor="middle" x="2041.18" y="-39.54" font-family="Times,serif" font-size="18.00">precondition:</text>
<text text-anchor="middle" x="2041.18" y="-19.54" font-family="Times,serif" font-size="18.00"> is_empty(clampgripper)</text>
</g>
<!-- sequence:
 change_tool(left_hand, clampgripper, outwardgripper)&#45;&gt;precondition:
 is_empty(clampgripper) -->
<g id="edge13" class="edge">
<title>sequence:
 change_tool(left_hand, clampgripper, outwardgripper)&#45;&gt;precondition:
 is_empty(clampgripper)</title>
<path fill="none" stroke="black" d="M2043.5,-113.7C2043.19,-103.16 2042.81,-90.31 2042.45,-78.08"/>
<polygon fill="black" stroke="black" points="2045.95,-77.91 2042.16,-68.01 2038.95,-78.11 2045.95,-77.91"/>
</g>
<!-- action:
 change_tool(left_hand, clampgripper, outwardgripper) -->
<g id="node15" class="node">
<title>action:
 change_tool(left_hand, clampgripper, outwardgripper)</title>
<ellipse fill="lightgreen" stroke="black" cx="2591.18" cy="-33.94" rx="362.99" ry="33.88"/>
<text text-anchor="middle" x="2591.18" y="-39.54" font-family="Times,serif" font-size="18.00">action:</text>
<text text-anchor="middle" x="2591.18" y="-19.54" font-family="Times,serif" font-size="18.00"> change_tool(left_hand, clampgripper, outwardgripper)</text>
</g>
<!-- sequence:
 change_tool(left_hand, clampgripper, outwardgripper)&#45;&gt;action:
 change_tool(left_hand, clampgripper, outwardgripper) -->
<g id="edge14" class="edge">
<title>sequence:
 change_tool(left_hand, clampgripper, outwardgripper)&#45;&gt;action:
 change_tool(left_hand, clampgripper, outwardgripper)</title>
<path fill="none" stroke="black" d="M2167.96,-113.77C2243.22,-99.75 2340.34,-81.66 2422.56,-66.35"/>
<polygon fill="black" stroke="black" points="2423.32,-69.77 2432.51,-64.5 2422.03,-62.89 2423.32,-69.77"/>
</g>
<!-- target:
 hold(outwardgripper, gear2) -->
<g id="node17" class="node">
<title>target:
 hold(outwardgripper, gear2)</title>
<ellipse fill="#ffec8b" stroke="black" cx="2909.18" cy="-137.82" rx="196.65" ry="33.88"/>
<text text-anchor="middle" x="2909.18" y="-143.42" font-family="Times,serif" font-size="18.00">target:</text>
<text text-anchor="middle" x="2909.18" y="-123.42" font-family="Times,serif" font-size="18.00"> hold(outwardgripper, gear2)</text>
</g>
<!-- selector:
 pick_up(left_hand, outwardgripper, gear2)&#45;&gt;target:
 hold(outwardgripper, gear2) -->
<g id="edge16" class="edge">
<title>selector:
 pick_up(left_hand, outwardgripper, gear2)&#45;&gt;target:
 hold(outwardgripper, gear2)</title>
<path fill="none" stroke="black" d="M2909.18,-207.48C2909.18,-199.32 2909.18,-190.58 2909.18,-182.15"/>
<polygon fill="black" stroke="black" points="2912.68,-182.1 2909.18,-172.1 2905.68,-182.1 2912.68,-182.1"/>
</g>
<!-- sequence:
 pick_up(left_hand, outwardgripper, gear2) -->
<g id="node18" class="node">
<title>sequence:
 pick_up(left_hand, outwardgripper, gear2)</title>
<polygon fill="#ff7f24" stroke="black" points="3535.68,-161.82 3130.68,-161.82 3130.68,-113.82 3535.68,-113.82 3535.68,-161.82"/>
<text text-anchor="middle" x="3333.18" y="-143.42" font-family="Times,serif" font-size="18.00">sequence:</text>
<text text-anchor="middle" x="3333.18" y="-123.42" font-family="Times,serif" font-size="18.00"> pick_up(left_hand, outwardgripper, gear2)</text>
</g>
<!-- selector:
 pick_up(left_hand, outwardgripper, gear2)&#45;&gt;sequence:
 pick_up(left_hand, outwardgripper, gear2) -->
<g id="edge17" class="edge">
<title>selector:
 pick_up(left_hand, outwardgripper, gear2)&#45;&gt;sequence:
 pick_up(left_hand, outwardgripper, gear2)</title>
<path fill="none" stroke="black" d="M3049.48,-208.86C3108.39,-194.32 3175.67,-177.71 3229.93,-164.32"/>
<polygon fill="black" stroke="black" points="3231.03,-167.65 3239.9,-161.85 3229.35,-160.85 3231.03,-167.65"/>
</g>
<!-- precondition:
 hold(left_hand, outwardgripper) -->
<g id="node19" class="node">
<title>precondition:
 hold(left_hand, outwardgripper)</title>
<ellipse fill="#ffec8b" stroke="black" cx="3193.18" cy="-33.94" rx="221.15" ry="33.88"/>
<text text-anchor="middle" x="3193.18" y="-39.54" font-family="Times,serif" font-size="18.00">precondition:</text>
<text text-anchor="middle" x="3193.18" y="-19.54" font-family="Times,serif" font-size="18.00"> hold(left_hand, outwardgripper)</text>
</g>
<!-- sequence:
 pick_up(left_hand, outwardgripper, gear2)&#45;&gt;precondition:
 hold(left_hand, outwardgripper) -->
<g id="edge18" class="edge">
<title>sequence:
 pick_up(left_hand, outwardgripper, gear2)&#45;&gt;precondition:
 hold(left_hand, outwardgripper)</title>
<path fill="none" stroke="black" d="M3301.41,-113.7C3284.97,-101.74 3264.46,-86.82 3245.74,-73.19"/>
<polygon fill="black" stroke="black" points="3247.71,-70.29 3237.56,-67.24 3243.59,-75.95 3247.71,-70.29"/>
</g>
<!-- precondition:
 is_empty(outwardgripper) -->
<g id="node20" class="node">
<title>precondition:
 is_empty(outwardgripper)</title>
<ellipse fill="#ffec8b" stroke="black" cx="3615.18" cy="-33.94" rx="183.28" ry="33.88"/>
<text text-anchor="middle" x="3615.18" y="-39.54" font-family="Times,serif" font-size="18.00">precondition:</text>
<text text-anchor="middle" x="3615.18" y="-19.54" font-family="Times,serif" font-size="18.00"> is_empty(outwardgripper)</text>
</g>
<!-- sequence:
 pick_up(left_hand, outwardgripper, gear2)&#45;&gt;precondition:
 is_empty(outwardgripper) -->
<g id="edge19" class="edge">
<title>sequence:
 pick_up(left_hand, outwardgripper, gear2)&#45;&gt;precondition:
 is_empty(outwardgripper)</title>
<path fill="none" stroke="black" d="M3397.17,-113.7C3434.71,-100.14 3482.76,-82.78 3524.18,-67.82"/>
<polygon fill="black" stroke="black" points="3525.52,-71.06 3533.74,-64.37 3523.14,-64.47 3525.52,-71.06"/>
</g>
<!-- action:
 pick_up(left_hand, outwardgripper, gear2) -->
<g id="node21" class="node">
<title>action:
 pick_up(left_hand, outwardgripper, gear2)</title>
<ellipse fill="lightgreen" stroke="black" cx="4103.18" cy="-33.94" rx="286.26" ry="33.88"/>
<text text-anchor="middle" x="4103.18" y="-39.54" font-family="Times,serif" font-size="18.00">action:</text>
<text text-anchor="middle" x="4103.18" y="-19.54" font-family="Times,serif" font-size="18.00"> pick_up(left_hand, outwardgripper, gear2)</text>
</g>
<!-- sequence:
 pick_up(left_hand, outwardgripper, gear2)&#45;&gt;action:
 pick_up(left_hand, outwardgripper, gear2) -->
<g id="edge20" class="edge">
<title>sequence:
 pick_up(left_hand, outwardgripper, gear2)&#45;&gt;action:
 pick_up(left_hand, outwardgripper, gear2)</title>
<path fill="none" stroke="black" d="M3507.43,-113.77C3625.99,-98.08 3783.11,-77.29 3906.22,-61"/>
<polygon fill="black" stroke="black" points="3906.69,-64.47 3916.15,-59.69 3905.78,-57.53 3906.69,-64.47"/>
</g>
<!-- &quot;target:\n is_inserted_to(gear2, shaft2)&quot;* -->
<g id="node23" class="node">
<title>&quot;target:\n is_inserted_to(gear2, shaft2)&quot;*</title>
<ellipse fill="#ffec8b" stroke="black" cx="4044.18" cy="-137.82" rx="211.35" ry="33.88"/>
<text text-anchor="middle" x="4044.18" y="-143.42" font-family="Times,serif" font-size="18.00">&quot;target:</text>
<text text-anchor="middle" x="4044.18" y="-123.42" font-family="Times,serif" font-size="18.00"> is_inserted_to(gear2, shaft2)&quot;*</text>
</g>
<!-- selector:
 insert(left_hand, outwardgripper, gear2, shaft2)&#45;&gt;&quot;target:\n is_inserted_to(gear2, shaft2)&quot;* -->
<g id="edge22" class="edge">
<title>selector:
 insert(left_hand, outwardgripper, gear2, shaft2)&#45;&gt;&quot;target:\n is_inserted_to(gear2, shaft2)&quot;*</title>
<path fill="none" stroke="black" d="M4044.18,-207.48C4044.18,-199.32 4044.18,-190.58 4044.18,-182.15"/>
<polygon fill="black" stroke="black" points="4047.68,-182.1 4044.18,-172.1 4040.68,-182.1 4047.68,-182.1"/>
</g>
<!-- sequence:
 insert(left_hand, outwardgripper, gear2, shaft2) -->
<g id="node24" class="node">
<title>sequence:
 insert(left_hand, outwardgripper, gear2, shaft2)</title>
<polygon fill="#ff7f24" stroke="black" points="5093.18,-161.82 4637.18,-161.82 4637.18,-113.82 5093.18,-113.82 5093.18,-161.82"/>
<text text-anchor="middle" x="4865.18" y="-143.42" font-family="Times,serif" font-size="18.00">sequence:</text>
<text text-anchor="middle" x="4865.18" y="-123.42" font-family="Times,serif" font-size="18.00"> insert(left_hand, outwardgripper, gear2, shaft2)</text>
</g>
<!-- selector:
 insert(left_hand, outwardgripper, gear2, shaft2)&#45;&gt;sequence:
 insert(left_hand, outwardgripper, gear2, shaft2) -->
<g id="edge23" class="edge">
<title>selector:
 insert(left_hand, outwardgripper, gear2, shaft2)&#45;&gt;sequence:
 insert(left_hand, outwardgripper, gear2, shaft2)</title>
<path fill="none" stroke="black" d="M4263.93,-215.48C4391.9,-199.17 4551.68,-178.8 4674.36,-163.15"/>
<polygon fill="black" stroke="black" points="4675.14,-166.58 4684.62,-161.85 4674.25,-159.64 4675.14,-166.58"/>
</g>
<!-- &quot;precondition:\n hold(left_hand, outwardgripper)&quot;* -->
<g id="node25" class="node">
<title>&quot;precondition:\n hold(left_hand, outwardgripper)&quot;*</title>
<ellipse fill="#ffec8b" stroke="black" cx="4641.18" cy="-33.94" rx="233.19" ry="33.88"/>
<text text-anchor="middle" x="4641.18" y="-39.54" font-family="Times,serif" font-size="18.00">&quot;precondition:</text>
<text text-anchor="middle" x="4641.18" y="-19.54" font-family="Times,serif" font-size="18.00"> hold(left_hand, outwardgripper)&quot;*</text>
</g>
<!-- sequence:
 insert(left_hand, outwardgripper, gear2, shaft2)&#45;&gt;&quot;precondition:\n hold(left_hand, outwardgripper)&quot;* -->
<g id="edge24" class="edge">
<title>sequence:
 insert(left_hand, outwardgripper, gear2, shaft2)&#45;&gt;&quot;precondition:\n hold(left_hand, outwardgripper)&quot;*</title>
<path fill="none" stroke="black" d="M4814.35,-113.7C4786.39,-100.99 4751.09,-84.93 4719.67,-70.64"/>
<polygon fill="black" stroke="black" points="4721.04,-67.42 4710.49,-66.46 4718.14,-73.79 4721.04,-67.42"/>
</g>
<!-- precondition:
 hold(outwardgripper, gear2) -->
<g id="node26" class="node">
<title>precondition:
 hold(outwardgripper, gear2)</title>
<ellipse fill="#ffec8b" stroke="black" cx="5089.18" cy="-33.94" rx="196.65" ry="33.88"/>
<text text-anchor="middle" x="5089.18" y="-39.54" font-family="Times,serif" font-size="18.00">precondition:</text>
<text text-anchor="middle" x="5089.18" y="-19.54" font-family="Times,serif" font-size="18.00"> hold(outwardgripper, gear2)</text>
</g>
<!-- sequence:
 insert(left_hand, outwardgripper, gear2, shaft2)&#45;&gt;precondition:
 hold(outwardgripper, gear2) -->
<g id="edge25" class="edge">
<title>sequence:
 insert(left_hand, outwardgripper, gear2, shaft2)&#45;&gt;precondition:
 hold(outwardgripper, gear2)</title>
<path fill="none" stroke="black" d="M4916.01,-113.7C4944.32,-100.83 4980.16,-84.53 5011.88,-70.1"/>
<polygon fill="black" stroke="black" points="5013.49,-73.21 5021.14,-65.89 5010.59,-66.84 5013.49,-73.21"/>
</g>
<!-- action:
 insert(left_hand, outwardgripper, gear2, shaft2) -->
<g id="node27" class="node">
<title>action:
 insert(left_hand, outwardgripper, gear2, shaft2)</title>
<ellipse fill="lightgreen" stroke="black" cx="5626.18" cy="-33.94" rx="322.38" ry="33.88"/>
<text text-anchor="middle" x="5626.18" y="-39.54" font-family="Times,serif" font-size="18.00">action:</text>
<text text-anchor="middle" x="5626.18" y="-19.54" font-family="Times,serif" font-size="18.00"> insert(left_hand, outwardgripper, gear2, shaft2)</text>
</g>
<!-- sequence:
 insert(left_hand, outwardgripper, gear2, shaft2)&#45;&gt;action:
 insert(left_hand, outwardgripper, gear2, shaft2) -->
<g id="edge26" class="edge">
<title>sequence:
 insert(left_hand, outwardgripper, gear2, shaft2)&#45;&gt;action:
 insert(left_hand, outwardgripper, gear2, shaft2)</title>
<path fill="none" stroke="black" d="M5037.39,-113.77C5151.36,-98.51 5301.37,-78.43 5421.45,-62.35"/>
<polygon fill="black" stroke="black" points="5422.06,-65.8 5431.51,-61 5421.13,-58.86 5422.06,-65.8"/>
</g>
</g>
</svg>
