<?xml version="1.0" encoding="UTF-8" standalone="no"?>
<!DOCTYPE svg PUBLIC "-//W3C//DTD SVG 1.1//EN"
 "http://www.w3.org/Graphics/SVG/1.1/DTD/svg11.dtd">
<!-- Generated by graphviz version 2.43.0 (0)
 -->
<!-- Title: pastafarianism Pages: 1 -->
<svg width="2012pt" height="620pt"
 viewBox="0.00 0.00 2011.59 620.00" xmlns="http://www.w3.org/2000/svg" xmlns:xlink="http://www.w3.org/1999/xlink">
<g id="graph0" class="graph" transform="scale(1 1) rotate(0) translate(4 616)">
<title>pastafarianism</title>
<polygon fill="white" stroke="transparent" points="-4,4 -4,-616 2007.59,-616 2007.59,4 -4,4"/>
<!-- Sequence -->
<g id="node1" class="node">
<title>Sequence</title>
<polygon fill="orange" stroke="black" points="1036.91,-612 974.91,-612 974.91,-576 1036.91,-576 1036.91,-612"/>
<text text-anchor="middle" x="1005.91" y="-591.8" font-family="Times,serif" font-size="9.00">Sequence</text>
</g>
<!-- Fallback -->
<g id="node2" class="node">
<title>Fallback</title>
<polygon fill="cyan" stroke="black" points="540.91,-514.54 540.91,-529.46 520.41,-540 491.42,-540 470.92,-529.46 470.92,-514.54 491.42,-504 520.41,-504 540.91,-514.54"/>
<text text-anchor="middle" x="505.91" y="-519.8" font-family="Times,serif" font-size="9.00">Fallback</text>
</g>
<!-- Sequence&#45;&gt;Fallback -->
<g id="edge1" class="edge">
<title>Sequence&#45;&gt;Fallback</title>
<path fill="none" stroke="black" d="M974.64,-588.62C889.15,-576.65 651.32,-543.36 551.23,-529.34"/>
<polygon fill="black" stroke="black" points="551.52,-525.85 541.13,-527.93 550.55,-532.78 551.52,-525.85"/>
</g>
<!-- Fallback &#160;&#160;&#160;&#160;&#160;&#160; -->
<g id="node27" class="node">
<title>Fallback &#160;&#160;&#160;&#160;&#160;&#160;</title>
<polygon fill="cyan" stroke="black" points="942.91,-514.54 942.91,-529.46 922.41,-540 893.42,-540 872.92,-529.46 872.92,-514.54 893.42,-504 922.41,-504 942.91,-514.54"/>
<text text-anchor="middle" x="907.91" y="-519.8" font-family="Times,serif" font-size="9.00">Fallback</text>
</g>
<!-- Sequence&#45;&gt;Fallback &#160;&#160;&#160;&#160;&#160;&#160; -->
<g id="edge26" class="edge">
<title>Sequence&#45;&gt;Fallback &#160;&#160;&#160;&#160;&#160;&#160;</title>
<path fill="none" stroke="black" d="M981.94,-575.88C968.11,-566 950.64,-553.52 936.15,-543.17"/>
<polygon fill="black" stroke="black" points="938.18,-540.32 928.01,-537.35 934.11,-546.01 938.18,-540.32"/>
</g>
<!-- Fallback &#160;&#160;&#160;&#160;&#160;&#160;&#160;&#160;&#160; -->
<g id="node38" class="node">
<title>Fallback &#160;&#160;&#160;&#160;&#160;&#160;&#160;&#160;&#160;</title>
<polygon fill="cyan" stroke="black" points="1138.91,-514.54 1138.91,-529.46 1118.41,-540 1089.42,-540 1068.92,-529.46 1068.92,-514.54 1089.42,-504 1118.41,-504 1138.91,-514.54"/>
<text text-anchor="middle" x="1103.91" y="-519.8" font-family="Times,serif" font-size="9.00">Fallback</text>
</g>
<!-- Sequence&#45;&gt;Fallback &#160;&#160;&#160;&#160;&#160;&#160;&#160;&#160;&#160; -->
<g id="edge37" class="edge">
<title>Sequence&#45;&gt;Fallback &#160;&#160;&#160;&#160;&#160;&#160;&#160;&#160;&#160;</title>
<path fill="none" stroke="black" d="M1029.89,-575.88C1043.72,-566 1061.19,-553.52 1075.68,-543.17"/>
<polygon fill="black" stroke="black" points="1077.72,-546.01 1083.82,-537.35 1073.65,-540.32 1077.72,-546.01"/>
</g>
<!-- Fallback &#160;&#160;&#160;&#160;&#160;&#160;&#160;&#160;&#160;&#160;&#160;&#160; -->
<g id="node49" class="node">
<title>Fallback &#160;&#160;&#160;&#160;&#160;&#160;&#160;&#160;&#160;&#160;&#160;&#160;</title>
<polygon fill="cyan" stroke="black" points="1525.91,-514.54 1525.91,-529.46 1505.41,-540 1476.42,-540 1455.92,-529.46 1455.92,-514.54 1476.42,-504 1505.41,-504 1525.91,-514.54"/>
<text text-anchor="middle" x="1490.91" y="-519.8" font-family="Times,serif" font-size="9.00">Fallback</text>
</g>
<!-- Sequence&#45;&gt;Fallback &#160;&#160;&#160;&#160;&#160;&#160;&#160;&#160;&#160;&#160;&#160;&#160; -->
<g id="edge48" class="edge">
<title>Sequence&#45;&gt;Fallback &#160;&#160;&#160;&#160;&#160;&#160;&#160;&#160;&#160;&#160;&#160;&#160;</title>
<path fill="none" stroke="black" d="M1036.99,-588.51C1120.2,-576.51 1348.33,-543.58 1445.8,-529.51"/>
<polygon fill="black" stroke="black" points="1446.52,-532.94 1455.92,-528.05 1445.52,-526.02 1446.52,-532.94"/>
</g>
<!-- unstacked -->
<g id="node3" class="node">
<title>unstacked</title>
<ellipse fill="lightgray" stroke="black" cx="419.91" cy="-450" rx="36.9" ry="18"/>
<text text-anchor="middle" x="419.91" y="-447.8" font-family="Times,serif" font-size="9.00">unstacked</text>
</g>
<!-- Fallback&#45;&gt;unstacked -->
<g id="edge2" class="edge">
<title>Fallback&#45;&gt;unstacked</title>
<path fill="none" stroke="black" d="M487.25,-505.81C475.23,-496.02 459.41,-483.15 446.13,-472.34"/>
<polygon fill="black" stroke="black" points="448.21,-469.52 438.24,-465.92 443.79,-474.95 448.21,-469.52"/>
</g>
<!-- Sequence  -->
<g id="node4" class="node">
<title>Sequence </title>
<polygon fill="orange" stroke="black" points="536.91,-468 474.91,-468 474.91,-432 536.91,-432 536.91,-468"/>
<text text-anchor="middle" x="505.91" y="-447.8" font-family="Times,serif" font-size="9.00">Sequence</text>
</g>
<!-- Fallback&#45;&gt;Sequence  -->
<g id="edge3" class="edge">
<title>Fallback&#45;&gt;Sequence </title>
<path fill="none" stroke="black" d="M505.91,-503.7C505.91,-495.98 505.91,-486.71 505.91,-478.11"/>
<polygon fill="black" stroke="black" points="509.42,-478.1 505.91,-468.1 502.42,-478.1 509.42,-478.1"/>
</g>
<!-- Fallback  -->
<g id="node5" class="node">
<title>Fallback </title>
<polygon fill="cyan" stroke="black" points="373.91,-370.54 373.91,-385.46 353.41,-396 324.42,-396 303.92,-385.46 303.92,-370.54 324.42,-360 353.41,-360 373.91,-370.54"/>
<text text-anchor="middle" x="338.91" y="-375.8" font-family="Times,serif" font-size="9.00">Fallback</text>
</g>
<!-- Sequence &#45;&gt;Fallback  -->
<g id="edge4" class="edge">
<title>Sequence &#45;&gt;Fallback </title>
<path fill="none" stroke="black" d="M474.91,-435.8C471.87,-434.51 468.84,-433.23 465.91,-432 435.26,-419.09 400.39,-404.55 374.95,-393.97"/>
<polygon fill="black" stroke="black" points="376.27,-390.72 365.69,-390.12 373.58,-397.19 376.27,-390.72"/>
</g>
<!-- Fallback &#160;&#160;&#160; -->
<g id="node16" class="node">
<title>Fallback &#160;&#160;&#160;</title>
<polygon fill="cyan" stroke="black" points="562.91,-370.54 562.91,-385.46 542.41,-396 513.42,-396 492.92,-385.46 492.92,-370.54 513.42,-360 542.41,-360 562.91,-370.54"/>
<text text-anchor="middle" x="527.91" y="-375.8" font-family="Times,serif" font-size="9.00">Fallback</text>
</g>
<!-- Sequence &#45;&gt;Fallback &#160;&#160;&#160; -->
<g id="edge15" class="edge">
<title>Sequence &#45;&gt;Fallback &#160;&#160;&#160;</title>
<path fill="none" stroke="black" d="M511.35,-431.7C513.8,-423.9 516.76,-414.51 519.48,-405.83"/>
<polygon fill="black" stroke="black" points="522.88,-406.69 522.54,-396.1 516.2,-404.59 522.88,-406.69"/>
</g>
<!-- object_at GreenBox [&#45;0.8, &#45;1.0, 0.89] 0.0 base_link -->
<g id="node6" class="node">
<title>object_at GreenBox [&#45;0.8, &#45;1.0, 0.89] 0.0 base_link</title>
<ellipse fill="lightgray" stroke="black" cx="144.91" cy="-306" rx="144.83" ry="18"/>
<text text-anchor="middle" x="144.91" y="-303.8" font-family="Times,serif" font-size="9.00">object_at GreenBox [&#45;0.8, &#45;1.0, 0.89] 0.0 base_link</text>
</g>
<!-- Fallback &#45;&gt;object_at GreenBox [&#45;0.8, &#45;1.0, 0.89] 0.0 base_link -->
<g id="edge5" class="edge">
<title>Fallback &#45;&gt;object_at GreenBox [&#45;0.8, &#45;1.0, 0.89] 0.0 base_link</title>
<path fill="none" stroke="black" d="M310.71,-366.82C281.57,-356.31 235.38,-339.64 199.15,-326.57"/>
<polygon fill="black" stroke="black" points="200.29,-323.26 189.69,-323.16 197.91,-329.84 200.29,-323.26"/>
</g>
<!-- Sequence &#160; -->
<g id="node7" class="node">
<title>Sequence &#160;</title>
<polygon fill="orange" stroke="black" points="369.91,-324 307.91,-324 307.91,-288 369.91,-288 369.91,-324"/>
<text text-anchor="middle" x="338.91" y="-303.8" font-family="Times,serif" font-size="9.00">Sequence</text>
</g>
<!-- Fallback &#45;&gt;Sequence &#160; -->
<g id="edge6" class="edge">
<title>Fallback &#45;&gt;Sequence &#160;</title>
<path fill="none" stroke="black" d="M338.91,-359.7C338.91,-351.98 338.91,-342.71 338.91,-334.11"/>
<polygon fill="black" stroke="black" points="342.42,-334.1 338.91,-324.1 335.42,-334.1 342.42,-334.1"/>
</g>
<!-- Fallback &#160; -->
<g id="node8" class="node">
<title>Fallback &#160;</title>
<polygon fill="cyan" stroke="black" points="209.91,-226.54 209.91,-241.46 189.41,-252 160.42,-252 139.92,-241.46 139.92,-226.54 160.42,-216 189.41,-216 209.91,-226.54"/>
<text text-anchor="middle" x="174.91" y="-231.8" font-family="Times,serif" font-size="9.00">Fallback</text>
</g>
<!-- Sequence &#160;&#45;&gt;Fallback &#160; -->
<g id="edge7" class="edge">
<title>Sequence &#160;&#45;&gt;Fallback &#160;</title>
<path fill="none" stroke="black" d="M307.68,-291.67C279.88,-279.8 239.23,-262.45 210.25,-250.08"/>
<polygon fill="black" stroke="black" points="211.47,-246.8 200.9,-246.09 208.73,-253.24 211.47,-246.8"/>
</g>
<!-- place0 GreenBox [&#45;0.8, &#45;1.0, 0.89] 0.0 base_link -->
<g id="node15" class="node">
<title>place0 GreenBox [&#45;0.8, &#45;1.0, 0.89] 0.0 base_link</title>
<ellipse fill="lightgray" stroke="black" cx="365.91" cy="-234" rx="137.97" ry="18"/>
<text text-anchor="middle" x="365.91" y="-231.8" font-family="Times,serif" font-size="9.00">place0 GreenBox [&#45;0.8, &#45;1.0, 0.89] 0.0 base_link</text>
</g>
<!-- Sequence &#160;&#45;&gt;place0 GreenBox [&#45;0.8, &#45;1.0, 0.89] 0.0 base_link -->
<g id="edge14" class="edge">
<title>Sequence &#160;&#45;&gt;place0 GreenBox [&#45;0.8, &#45;1.0, 0.89] 0.0 base_link</title>
<path fill="none" stroke="black" d="M345.59,-287.7C348.63,-279.81 352.3,-270.3 355.68,-261.55"/>
<polygon fill="black" stroke="black" points="358.98,-262.69 359.32,-252.1 352.45,-260.17 358.98,-262.69"/>
</g>
<!-- in_gripper GreenBox -->
<g id="node9" class="node">
<title>in_gripper GreenBox</title>
<ellipse fill="lightgray" stroke="black" cx="117.91" cy="-162" rx="65.64" ry="18"/>
<text text-anchor="middle" x="117.91" y="-159.8" font-family="Times,serif" font-size="9.00">in_gripper GreenBox</text>
</g>
<!-- Fallback &#160;&#45;&gt;in_gripper GreenBox -->
<g id="edge8" class="edge">
<title>Fallback &#160;&#45;&gt;in_gripper GreenBox</title>
<path fill="none" stroke="black" d="M160.83,-215.7C153.89,-207.18 145.41,-196.76 137.82,-187.45"/>
<polygon fill="black" stroke="black" points="140.48,-185.17 131.45,-179.62 135.05,-189.59 140.48,-185.17"/>
</g>
<!-- Sequence &#160;&#160; -->
<g id="node10" class="node">
<title>Sequence &#160;&#160;</title>
<polygon fill="orange" stroke="black" points="263.91,-180 201.91,-180 201.91,-144 263.91,-144 263.91,-180"/>
<text text-anchor="middle" x="232.91" y="-159.8" font-family="Times,serif" font-size="9.00">Sequence</text>
</g>
<!-- Fallback &#160;&#45;&gt;Sequence &#160;&#160; -->
<g id="edge9" class="edge">
<title>Fallback &#160;&#45;&gt;Sequence &#160;&#160;</title>
<path fill="none" stroke="black" d="M189.25,-215.7C196.21,-207.3 204.69,-197.07 212.32,-187.86"/>
<polygon fill="black" stroke="black" points="215.06,-190.04 218.74,-180.1 209.67,-185.57 215.06,-190.04"/>
</g>
<!-- Fallback &#160;&#160; -->
<g id="node11" class="node">
<title>Fallback &#160;&#160;</title>
<polygon fill="cyan" stroke="black" points="214.91,-82.54 214.91,-97.46 194.41,-108 165.42,-108 144.92,-97.46 144.92,-82.54 165.42,-72 194.41,-72 214.91,-82.54"/>
<text text-anchor="middle" x="179.91" y="-87.8" font-family="Times,serif" font-size="9.00">Fallback</text>
</g>
<!-- Sequence &#160;&#160;&#45;&gt;Fallback &#160;&#160; -->
<g id="edge10" class="edge">
<title>Sequence &#160;&#160;&#45;&gt;Fallback &#160;&#160;</title>
<path fill="none" stroke="black" d="M219.81,-143.7C213.52,-135.39 205.87,-125.28 198.95,-116.14"/>
<polygon fill="black" stroke="black" points="201.69,-113.96 192.87,-108.1 196.11,-118.19 201.69,-113.96"/>
</g>
<!-- pick0 GreenBox -->
<g id="node14" class="node">
<title>pick0 GreenBox</title>
<ellipse fill="lightgray" stroke="black" cx="285.91" cy="-90" rx="52.58" ry="18"/>
<text text-anchor="middle" x="285.91" y="-87.8" font-family="Times,serif" font-size="9.00">pick0 GreenBox</text>
</g>
<!-- Sequence &#160;&#160;&#45;&gt;pick0 GreenBox -->
<g id="edge13" class="edge">
<title>Sequence &#160;&#160;&#45;&gt;pick0 GreenBox</title>
<path fill="none" stroke="black" d="M246.02,-143.7C252.4,-135.27 260.19,-124.97 267.19,-115.73"/>
<polygon fill="black" stroke="black" points="270.08,-117.71 273.33,-107.62 264.5,-113.48 270.08,-117.71"/>
</g>
<!-- gripper_state open -->
<g id="node12" class="node">
<title>gripper_state open</title>
<ellipse fill="lightgray" stroke="black" cx="117.91" cy="-18" rx="60.09" ry="18"/>
<text text-anchor="middle" x="117.91" y="-15.8" font-family="Times,serif" font-size="9.00">gripper_state open</text>
</g>
<!-- Fallback &#160;&#160;&#45;&gt;gripper_state open -->
<g id="edge11" class="edge">
<title>Fallback &#160;&#160;&#45;&gt;gripper_state open</title>
<path fill="none" stroke="black" d="M164.91,-72.05C157.29,-63.46 147.9,-52.86 139.52,-43.4"/>
<polygon fill="black" stroke="black" points="142.04,-40.95 132.79,-35.79 136.8,-45.6 142.04,-40.95"/>
</g>
<!-- open_gripper -->
<g id="node13" class="node">
<title>open_gripper</title>
<ellipse fill="lightgray" stroke="black" cx="241.91" cy="-18" rx="45.72" ry="18"/>
<text text-anchor="middle" x="241.91" y="-15.8" font-family="Times,serif" font-size="9.00">open_gripper</text>
</g>
<!-- Fallback &#160;&#160;&#45;&gt;open_gripper -->
<g id="edge12" class="edge">
<title>Fallback &#160;&#160;&#45;&gt;open_gripper</title>
<path fill="none" stroke="black" d="M194.92,-72.05C202.65,-63.33 212.2,-52.54 220.67,-42.98"/>
<polygon fill="black" stroke="black" points="223.46,-45.11 227.47,-35.31 218.22,-40.47 223.46,-45.11"/>
</g>
<!-- object_at BlueBox [&#45;1.2, &#45;1.0, 0.89] 0.0 base_link -->
<g id="node17" class="node">
<title>object_at BlueBox [&#45;1.2, &#45;1.0, 0.89] 0.0 base_link</title>
<ellipse fill="lightgray" stroke="black" cx="527.91" cy="-306" rx="140.09" ry="18"/>
<text text-anchor="middle" x="527.91" y="-303.8" font-family="Times,serif" font-size="9.00">object_at BlueBox [&#45;1.2, &#45;1.0, 0.89] 0.0 base_link</text>
</g>
<!-- Fallback &#160;&#160;&#160;&#45;&gt;object_at BlueBox [&#45;1.2, &#45;1.0, 0.89] 0.0 base_link -->
<g id="edge16" class="edge">
<title>Fallback &#160;&#160;&#160;&#45;&gt;object_at BlueBox [&#45;1.2, &#45;1.0, 0.89] 0.0 base_link</title>
<path fill="none" stroke="black" d="M527.91,-359.7C527.91,-351.98 527.91,-342.71 527.91,-334.11"/>
<polygon fill="black" stroke="black" points="531.42,-334.1 527.91,-324.1 524.42,-334.1 531.42,-334.1"/>
</g>
<!-- Sequence &#160;&#160;&#160; -->
<g id="node18" class="node">
<title>Sequence &#160;&#160;&#160;</title>
<polygon fill="orange" stroke="black" points="747.91,-324 685.91,-324 685.91,-288 747.91,-288 747.91,-324"/>
<text text-anchor="middle" x="716.91" y="-303.8" font-family="Times,serif" font-size="9.00">Sequence</text>
</g>
<!-- Fallback &#160;&#160;&#160;&#45;&gt;Sequence &#160;&#160;&#160; -->
<g id="edge17" class="edge">
<title>Fallback &#160;&#160;&#160;&#45;&gt;Sequence &#160;&#160;&#160;</title>
<path fill="none" stroke="black" d="M556.95,-367.25C585.23,-357.63 629.61,-342.19 676.2,-324.18"/>
<polygon fill="black" stroke="black" points="677.5,-327.43 685.55,-320.54 674.96,-320.91 677.5,-327.43"/>
</g>
<!-- Fallback &#160;&#160;&#160;&#160; -->
<g id="node19" class="node">
<title>Fallback &#160;&#160;&#160;&#160;</title>
<polygon fill="cyan" stroke="black" points="612.91,-226.54 612.91,-241.46 592.41,-252 563.42,-252 542.92,-241.46 542.92,-226.54 563.42,-216 592.41,-216 612.91,-226.54"/>
<text text-anchor="middle" x="577.91" y="-231.8" font-family="Times,serif" font-size="9.00">Fallback</text>
</g>
<!-- Sequence &#160;&#160;&#160;&#45;&gt;Fallback &#160;&#160;&#160;&#160; -->
<g id="edge18" class="edge">
<title>Sequence &#160;&#160;&#160;&#45;&gt;Fallback &#160;&#160;&#160;&#160;</title>
<path fill="none" stroke="black" d="M685.72,-289.29C663.59,-278.15 633.92,-263.2 611.31,-251.82"/>
<polygon fill="black" stroke="black" points="612.6,-248.55 602.09,-247.18 609.45,-254.8 612.6,-248.55"/>
</g>
<!-- place0 BlueBox [&#45;1.2, &#45;1.0, 0.89] 0.0 base_link -->
<g id="node26" class="node">
<title>place0 BlueBox [&#45;1.2, &#45;1.0, 0.89] 0.0 base_link</title>
<ellipse fill="lightgray" stroke="black" cx="764.91" cy="-234" rx="133.89" ry="18"/>
<text text-anchor="middle" x="764.91" y="-231.8" font-family="Times,serif" font-size="9.00">place0 BlueBox [&#45;1.2, &#45;1.0, 0.89] 0.0 base_link</text>
</g>
<!-- Sequence &#160;&#160;&#160;&#45;&gt;place0 BlueBox [&#45;1.2, &#45;1.0, 0.89] 0.0 base_link -->
<g id="edge25" class="edge">
<title>Sequence &#160;&#160;&#160;&#45;&gt;place0 BlueBox [&#45;1.2, &#45;1.0, 0.89] 0.0 base_link</title>
<path fill="none" stroke="black" d="M728.78,-287.7C734.42,-279.47 741.27,-269.48 747.48,-260.42"/>
<polygon fill="black" stroke="black" points="750.42,-262.33 753.19,-252.1 744.64,-258.37 750.42,-262.33"/>
</g>
<!-- in_gripper BlueBox -->
<g id="node20" class="node">
<title>in_gripper BlueBox</title>
<ellipse fill="lightgray" stroke="black" cx="521.91" cy="-162" rx="61.55" ry="18"/>
<text text-anchor="middle" x="521.91" y="-159.8" font-family="Times,serif" font-size="9.00">in_gripper BlueBox</text>
</g>
<!-- Fallback &#160;&#160;&#160;&#160;&#45;&gt;in_gripper BlueBox -->
<g id="edge19" class="edge">
<title>Fallback &#160;&#160;&#160;&#160;&#45;&gt;in_gripper BlueBox</title>
<path fill="none" stroke="black" d="M564.07,-215.7C557.26,-207.18 548.93,-196.76 541.47,-187.45"/>
<polygon fill="black" stroke="black" points="544.19,-185.24 535.21,-179.62 538.73,-189.62 544.19,-185.24"/>
</g>
<!-- Sequence &#160;&#160;&#160;&#160; -->
<g id="node21" class="node">
<title>Sequence &#160;&#160;&#160;&#160;</title>
<polygon fill="orange" stroke="black" points="663.91,-180 601.91,-180 601.91,-144 663.91,-144 663.91,-180"/>
<text text-anchor="middle" x="632.91" y="-159.8" font-family="Times,serif" font-size="9.00">Sequence</text>
</g>
<!-- Fallback &#160;&#160;&#160;&#160;&#45;&gt;Sequence &#160;&#160;&#160;&#160; -->
<g id="edge20" class="edge">
<title>Fallback &#160;&#160;&#160;&#160;&#45;&gt;Sequence &#160;&#160;&#160;&#160;</title>
<path fill="none" stroke="black" d="M591.51,-215.7C598.04,-207.39 605.98,-197.28 613.16,-188.14"/>
<polygon fill="black" stroke="black" points="616.05,-190.13 619.48,-180.1 610.55,-185.81 616.05,-190.13"/>
</g>
<!-- Fallback &#160;&#160;&#160;&#160;&#160; -->
<g id="node22" class="node">
<title>Fallback &#160;&#160;&#160;&#160;&#160;</title>
<polygon fill="cyan" stroke="black" points="616.91,-82.54 616.91,-97.46 596.41,-108 567.42,-108 546.92,-97.46 546.92,-82.54 567.42,-72 596.41,-72 616.91,-82.54"/>
<text text-anchor="middle" x="581.91" y="-87.8" font-family="Times,serif" font-size="9.00">Fallback</text>
</g>
<!-- Sequence &#160;&#160;&#160;&#160;&#45;&gt;Fallback &#160;&#160;&#160;&#160;&#160; -->
<g id="edge21" class="edge">
<title>Sequence &#160;&#160;&#160;&#160;&#45;&gt;Fallback &#160;&#160;&#160;&#160;&#160;</title>
<path fill="none" stroke="black" d="M620.31,-143.7C614.32,-135.47 607.04,-125.48 600.44,-116.42"/>
<polygon fill="black" stroke="black" points="603.09,-114.13 594.38,-108.1 597.44,-118.25 603.09,-114.13"/>
</g>
<!-- pick0 BlueBox -->
<g id="node25" class="node">
<title>pick0 BlueBox</title>
<ellipse fill="lightgray" stroke="black" cx="682.91" cy="-90" rx="47.84" ry="18"/>
<text text-anchor="middle" x="682.91" y="-87.8" font-family="Times,serif" font-size="9.00">pick0 BlueBox</text>
</g>
<!-- Sequence &#160;&#160;&#160;&#160;&#45;&gt;pick0 BlueBox -->
<g id="edge24" class="edge">
<title>Sequence &#160;&#160;&#160;&#160;&#45;&gt;pick0 BlueBox</title>
<path fill="none" stroke="black" d="M645.27,-143.7C651.24,-135.35 658.5,-125.18 665.05,-116.02"/>
<polygon fill="black" stroke="black" points="668.08,-117.79 671.04,-107.62 662.38,-113.73 668.08,-117.79"/>
</g>
<!-- gripper_state open  -->
<g id="node23" class="node">
<title>gripper_state open </title>
<ellipse fill="lightgray" stroke="black" cx="519.91" cy="-18" rx="60.09" ry="18"/>
<text text-anchor="middle" x="519.91" y="-15.8" font-family="Times,serif" font-size="9.00">gripper_state open</text>
</g>
<!-- Fallback &#160;&#160;&#160;&#160;&#160;&#45;&gt;gripper_state open  -->
<g id="edge22" class="edge">
<title>Fallback &#160;&#160;&#160;&#160;&#160;&#45;&gt;gripper_state open </title>
<path fill="none" stroke="black" d="M566.91,-72.05C559.29,-63.46 549.9,-52.86 541.52,-43.4"/>
<polygon fill="black" stroke="black" points="544.04,-40.95 534.79,-35.79 538.8,-45.6 544.04,-40.95"/>
</g>
<!-- open_gripper  -->
<g id="node24" class="node">
<title>open_gripper </title>
<ellipse fill="lightgray" stroke="black" cx="643.91" cy="-18" rx="45.72" ry="18"/>
<text text-anchor="middle" x="643.91" y="-15.8" font-family="Times,serif" font-size="9.00">open_gripper</text>
</g>
<!-- Fallback &#160;&#160;&#160;&#160;&#160;&#45;&gt;open_gripper  -->
<g id="edge23" class="edge">
<title>Fallback &#160;&#160;&#160;&#160;&#160;&#45;&gt;open_gripper </title>
<path fill="none" stroke="black" d="M596.92,-72.05C604.65,-63.33 614.2,-52.54 622.67,-42.98"/>
<polygon fill="black" stroke="black" points="625.46,-45.11 629.47,-35.31 620.22,-40.47 625.46,-45.11"/>
</g>
<!-- object_at YellowBox [0.0, 0.0, 0.175] 0.02 KittingBox -->
<g id="node28" class="node">
<title>object_at YellowBox [0.0, 0.0, 0.175] 0.02 KittingBox</title>
<ellipse fill="lightgray" stroke="black" cx="706.91" cy="-450" rx="152.34" ry="18"/>
<text text-anchor="middle" x="706.91" y="-447.8" font-family="Times,serif" font-size="9.00">object_at YellowBox [0.0, 0.0, 0.175] 0.02 KittingBox</text>
</g>
<!-- Fallback &#160;&#160;&#160;&#160;&#160;&#160;&#45;&gt;object_at YellowBox [0.0, 0.0, 0.175] 0.02 KittingBox -->
<g id="edge27" class="edge">
<title>Fallback &#160;&#160;&#160;&#160;&#160;&#160;&#45;&gt;object_at YellowBox [0.0, 0.0, 0.175] 0.02 KittingBox</title>
<path fill="none" stroke="black" d="M879.54,-511.12C849.44,-500.64 801.1,-483.8 763.22,-470.61"/>
<polygon fill="black" stroke="black" points="763.93,-467.15 753.34,-467.17 761.63,-473.76 763.93,-467.15"/>
</g>
<!-- Sequence &#160;&#160;&#160;&#160;&#160; -->
<g id="node29" class="node">
<title>Sequence &#160;&#160;&#160;&#160;&#160;</title>
<polygon fill="orange" stroke="black" points="938.91,-468 876.91,-468 876.91,-432 938.91,-432 938.91,-468"/>
<text text-anchor="middle" x="907.91" y="-447.8" font-family="Times,serif" font-size="9.00">Sequence</text>
</g>
<!-- Fallback &#160;&#160;&#160;&#160;&#160;&#160;&#45;&gt;Sequence &#160;&#160;&#160;&#160;&#160; -->
<g id="edge28" class="edge">
<title>Fallback &#160;&#160;&#160;&#160;&#160;&#160;&#45;&gt;Sequence &#160;&#160;&#160;&#160;&#160;</title>
<path fill="none" stroke="black" d="M907.91,-503.7C907.91,-495.98 907.91,-486.71 907.91,-478.11"/>
<polygon fill="black" stroke="black" points="911.42,-478.1 907.91,-468.1 904.42,-478.1 911.42,-478.1"/>
</g>
<!-- Fallback &#160;&#160;&#160;&#160;&#160;&#160;&#160; -->
<g id="node30" class="node">
<title>Fallback &#160;&#160;&#160;&#160;&#160;&#160;&#160;</title>
<polygon fill="cyan" stroke="black" points="913.91,-370.54 913.91,-385.46 893.41,-396 864.42,-396 843.92,-385.46 843.92,-370.54 864.42,-360 893.41,-360 913.91,-370.54"/>
<text text-anchor="middle" x="878.91" y="-375.8" font-family="Times,serif" font-size="9.00">Fallback</text>
</g>
<!-- Sequence &#160;&#160;&#160;&#160;&#160;&#45;&gt;Fallback &#160;&#160;&#160;&#160;&#160;&#160;&#160; -->
<g id="edge29" class="edge">
<title>Sequence &#160;&#160;&#160;&#160;&#160;&#45;&gt;Fallback &#160;&#160;&#160;&#160;&#160;&#160;&#160;</title>
<path fill="none" stroke="black" d="M900.75,-431.7C897.48,-423.81 893.54,-414.3 889.91,-405.55"/>
<polygon fill="black" stroke="black" points="893.06,-404 886,-396.1 886.59,-406.68 893.06,-404"/>
</g>
<!-- place0 YellowBox [0.0, 0.0, 0.175] 0.02 KittingBox -->
<g id="node37" class="node">
<title>place0 YellowBox [0.0, 0.0, 0.175] 0.02 KittingBox</title>
<ellipse fill="lightgray" stroke="black" cx="1077.91" cy="-378" rx="146.14" ry="18"/>
<text text-anchor="middle" x="1077.91" y="-375.8" font-family="Times,serif" font-size="9.00">place0 YellowBox [0.0, 0.0, 0.175] 0.02 KittingBox</text>
</g>
<!-- Sequence &#160;&#160;&#160;&#160;&#160;&#45;&gt;place0 YellowBox [0.0, 0.0, 0.175] 0.02 KittingBox -->
<g id="edge36" class="edge">
<title>Sequence &#160;&#160;&#160;&#160;&#160;&#45;&gt;place0 YellowBox [0.0, 0.0, 0.175] 0.02 KittingBox</title>
<path fill="none" stroke="black" d="M939.34,-435.59C942.24,-434.37 945.13,-433.16 947.91,-432 974.33,-421 1003.87,-408.94 1028.1,-399.11"/>
<polygon fill="black" stroke="black" points="1029.49,-402.32 1037.45,-395.32 1026.86,-395.83 1029.49,-402.32"/>
</g>
<!-- in_gripper YellowBox -->
<g id="node31" class="node">
<title>in_gripper YellowBox</title>
<ellipse fill="lightgray" stroke="black" cx="875.91" cy="-306" rx="66.29" ry="18"/>
<text text-anchor="middle" x="875.91" y="-303.8" font-family="Times,serif" font-size="9.00">in_gripper YellowBox</text>
</g>
<!-- Fallback &#160;&#160;&#160;&#160;&#160;&#160;&#160;&#45;&gt;in_gripper YellowBox -->
<g id="edge30" class="edge">
<title>Fallback &#160;&#160;&#160;&#160;&#160;&#160;&#160;&#45;&gt;in_gripper YellowBox</title>
<path fill="none" stroke="black" d="M878.17,-359.7C877.84,-351.98 877.45,-342.71 877.08,-334.11"/>
<polygon fill="black" stroke="black" points="880.57,-333.95 876.65,-324.1 873.58,-334.25 880.57,-333.95"/>
</g>
<!-- Sequence &#160;&#160;&#160;&#160;&#160;&#160; -->
<g id="node32" class="node">
<title>Sequence &#160;&#160;&#160;&#160;&#160;&#160;</title>
<polygon fill="orange" stroke="black" points="1021.91,-324 959.91,-324 959.91,-288 1021.91,-288 1021.91,-324"/>
<text text-anchor="middle" x="990.91" y="-303.8" font-family="Times,serif" font-size="9.00">Sequence</text>
</g>
<!-- Fallback &#160;&#160;&#160;&#160;&#160;&#160;&#160;&#45;&gt;Sequence &#160;&#160;&#160;&#160;&#160;&#160; -->
<g id="edge31" class="edge">
<title>Fallback &#160;&#160;&#160;&#160;&#160;&#160;&#160;&#45;&gt;Sequence &#160;&#160;&#160;&#160;&#160;&#160;</title>
<path fill="none" stroke="black" d="M900.51,-363.5C915.91,-353.88 936.99,-340.7 954.92,-329.5"/>
<polygon fill="black" stroke="black" points="956.8,-332.45 963.43,-324.18 953.09,-326.51 956.8,-332.45"/>
</g>
<!-- Fallback &#160;&#160;&#160;&#160;&#160;&#160;&#160;&#160; -->
<g id="node33" class="node">
<title>Fallback &#160;&#160;&#160;&#160;&#160;&#160;&#160;&#160;</title>
<polygon fill="cyan" stroke="black" points="997.91,-226.54 997.91,-241.46 977.41,-252 948.42,-252 927.92,-241.46 927.92,-226.54 948.42,-216 977.41,-216 997.91,-226.54"/>
<text text-anchor="middle" x="962.91" y="-231.8" font-family="Times,serif" font-size="9.00">Fallback</text>
</g>
<!-- Sequence &#160;&#160;&#160;&#160;&#160;&#160;&#45;&gt;Fallback &#160;&#160;&#160;&#160;&#160;&#160;&#160;&#160; -->
<g id="edge32" class="edge">
<title>Sequence &#160;&#160;&#160;&#160;&#160;&#160;&#45;&gt;Fallback &#160;&#160;&#160;&#160;&#160;&#160;&#160;&#160;</title>
<path fill="none" stroke="black" d="M983.99,-287.7C980.84,-279.81 977.04,-270.3 973.53,-261.55"/>
<polygon fill="black" stroke="black" points="976.72,-260.09 969.76,-252.1 970.22,-262.69 976.72,-260.09"/>
</g>
<!-- pick0 YellowBox -->
<g id="node36" class="node">
<title>pick0 YellowBox</title>
<ellipse fill="lightgray" stroke="black" cx="1068.91" cy="-234" rx="53.23" ry="18"/>
<text text-anchor="middle" x="1068.91" y="-231.8" font-family="Times,serif" font-size="9.00">pick0 YellowBox</text>
</g>
<!-- Sequence &#160;&#160;&#160;&#160;&#160;&#160;&#45;&gt;pick0 YellowBox -->
<g id="edge35" class="edge">
<title>Sequence &#160;&#160;&#160;&#160;&#160;&#160;&#45;&gt;pick0 YellowBox</title>
<path fill="none" stroke="black" d="M1010.2,-287.7C1020.22,-278.7 1032.59,-267.6 1043.39,-257.9"/>
<polygon fill="black" stroke="black" points="1045.82,-260.43 1050.93,-251.14 1041.15,-255.22 1045.82,-260.43"/>
</g>
<!-- gripper_state open &#160; -->
<g id="node34" class="node">
<title>gripper_state open &#160;</title>
<ellipse fill="lightgray" stroke="black" cx="900.91" cy="-162" rx="60.09" ry="18"/>
<text text-anchor="middle" x="900.91" y="-159.8" font-family="Times,serif" font-size="9.00">gripper_state open</text>
</g>
<!-- Fallback &#160;&#160;&#160;&#160;&#160;&#160;&#160;&#160;&#45;&gt;gripper_state open &#160; -->
<g id="edge33" class="edge">
<title>Fallback &#160;&#160;&#160;&#160;&#160;&#160;&#160;&#160;&#45;&gt;gripper_state open &#160;</title>
<path fill="none" stroke="black" d="M947.91,-216.05C940.29,-207.46 930.9,-196.86 922.52,-187.4"/>
<polygon fill="black" stroke="black" points="925.04,-184.95 915.79,-179.79 919.8,-189.6 925.04,-184.95"/>
</g>
<!-- open_gripper &#160; -->
<g id="node35" class="node">
<title>open_gripper &#160;</title>
<ellipse fill="lightgray" stroke="black" cx="1024.91" cy="-162" rx="45.72" ry="18"/>
<text text-anchor="middle" x="1024.91" y="-159.8" font-family="Times,serif" font-size="9.00">open_gripper</text>
</g>
<!-- Fallback &#160;&#160;&#160;&#160;&#160;&#160;&#160;&#160;&#45;&gt;open_gripper &#160; -->
<g id="edge34" class="edge">
<title>Fallback &#160;&#160;&#160;&#160;&#160;&#160;&#160;&#160;&#45;&gt;open_gripper &#160;</title>
<path fill="none" stroke="black" d="M977.92,-216.05C985.65,-207.33 995.2,-196.54 1003.67,-186.98"/>
<polygon fill="black" stroke="black" points="1006.46,-189.11 1010.47,-179.31 1001.22,-184.47 1006.46,-189.11"/>
</g>
<!-- object_at GreenBox [0.0, 0.0, 0.22] 0.02 YellowBox -->
<g id="node39" class="node">
<title>object_at GreenBox [0.0, 0.0, 0.22] 0.02 YellowBox</title>
<ellipse fill="lightgray" stroke="black" cx="1103.91" cy="-450" rx="146.79" ry="18"/>
<text text-anchor="middle" x="1103.91" y="-447.8" font-family="Times,serif" font-size="9.00">object_at GreenBox [0.0, 0.0, 0.22] 0.02 YellowBox</text>
</g>
<!-- Fallback &#160;&#160;&#160;&#160;&#160;&#160;&#160;&#160;&#160;&#45;&gt;object_at GreenBox [0.0, 0.0, 0.22] 0.02 YellowBox -->
<g id="edge38" class="edge">
<title>Fallback &#160;&#160;&#160;&#160;&#160;&#160;&#160;&#160;&#160;&#45;&gt;object_at GreenBox [0.0, 0.0, 0.22] 0.02 YellowBox</title>
<path fill="none" stroke="black" d="M1103.91,-503.7C1103.91,-495.98 1103.91,-486.71 1103.91,-478.11"/>
<polygon fill="black" stroke="black" points="1107.42,-478.1 1103.91,-468.1 1100.42,-478.1 1107.42,-478.1"/>
</g>
<!-- Sequence &#160;&#160;&#160;&#160;&#160;&#160;&#160; -->
<g id="node40" class="node">
<title>Sequence &#160;&#160;&#160;&#160;&#160;&#160;&#160;</title>
<polygon fill="orange" stroke="black" points="1330.91,-468 1268.91,-468 1268.91,-432 1330.91,-432 1330.91,-468"/>
<text text-anchor="middle" x="1299.91" y="-447.8" font-family="Times,serif" font-size="9.00">Sequence</text>
</g>
<!-- Fallback &#160;&#160;&#160;&#160;&#160;&#160;&#160;&#160;&#160;&#45;&gt;Sequence &#160;&#160;&#160;&#160;&#160;&#160;&#160; -->
<g id="edge39" class="edge">
<title>Fallback &#160;&#160;&#160;&#160;&#160;&#160;&#160;&#160;&#160;&#45;&gt;Sequence &#160;&#160;&#160;&#160;&#160;&#160;&#160;</title>
<path fill="none" stroke="black" d="M1133.47,-511.68C1163.11,-502.18 1210.21,-486.66 1259.09,-468.19"/>
<polygon fill="black" stroke="black" points="1260.46,-471.42 1268.56,-464.59 1257.97,-464.87 1260.46,-471.42"/>
</g>
<!-- Fallback &#160;&#160;&#160;&#160;&#160;&#160;&#160;&#160;&#160;&#160; -->
<g id="node41" class="node">
<title>Fallback &#160;&#160;&#160;&#160;&#160;&#160;&#160;&#160;&#160;&#160;</title>
<polygon fill="cyan" stroke="black" points="1322.91,-370.54 1322.91,-385.46 1302.41,-396 1273.42,-396 1252.92,-385.46 1252.92,-370.54 1273.42,-360 1302.41,-360 1322.91,-370.54"/>
<text text-anchor="middle" x="1287.91" y="-375.8" font-family="Times,serif" font-size="9.00">Fallback</text>
</g>
<!-- Sequence &#160;&#160;&#160;&#160;&#160;&#160;&#160;&#45;&gt;Fallback &#160;&#160;&#160;&#160;&#160;&#160;&#160;&#160;&#160;&#160; -->
<g id="edge40" class="edge">
<title>Sequence &#160;&#160;&#160;&#160;&#160;&#160;&#160;&#45;&gt;Fallback &#160;&#160;&#160;&#160;&#160;&#160;&#160;&#160;&#160;&#160;</title>
<path fill="none" stroke="black" d="M1296.95,-431.7C1295.63,-423.98 1294.04,-414.71 1292.56,-406.11"/>
<polygon fill="black" stroke="black" points="1295.99,-405.37 1290.85,-396.1 1289.09,-406.55 1295.99,-405.37"/>
</g>
<!-- place0 GreenBox [0.0, 0.0, 0.22] 0.02 YellowBox -->
<g id="node48" class="node">
<title>place0 GreenBox [0.0, 0.0, 0.22] 0.02 YellowBox</title>
<ellipse fill="lightgray" stroke="black" cx="1480.91" cy="-378" rx="140.09" ry="18"/>
<text text-anchor="middle" x="1480.91" y="-375.8" font-family="Times,serif" font-size="9.00">place0 GreenBox [0.0, 0.0, 0.22] 0.02 YellowBox</text>
</g>
<!-- Sequence &#160;&#160;&#160;&#160;&#160;&#160;&#160;&#45;&gt;place0 GreenBox [0.0, 0.0, 0.22] 0.02 YellowBox -->
<g id="edge47" class="edge">
<title>Sequence &#160;&#160;&#160;&#160;&#160;&#160;&#160;&#45;&gt;place0 GreenBox [0.0, 0.0, 0.22] 0.02 YellowBox</title>
<path fill="none" stroke="black" d="M1331.31,-435.51C1334.21,-434.31 1337.11,-433.12 1339.91,-432 1368.57,-420.53 1400.76,-408.38 1427.15,-398.6"/>
<polygon fill="black" stroke="black" points="1428.42,-401.86 1436.59,-395.11 1426,-395.3 1428.42,-401.86"/>
</g>
<!-- in_gripper GreenBox  -->
<g id="node42" class="node">
<title>in_gripper GreenBox </title>
<ellipse fill="lightgray" stroke="black" cx="1249.91" cy="-306" rx="65.64" ry="18"/>
<text text-anchor="middle" x="1249.91" y="-303.8" font-family="Times,serif" font-size="9.00">in_gripper GreenBox</text>
</g>
<!-- Fallback &#160;&#160;&#160;&#160;&#160;&#160;&#160;&#160;&#160;&#160;&#45;&gt;in_gripper GreenBox  -->
<g id="edge41" class="edge">
<title>Fallback &#160;&#160;&#160;&#160;&#160;&#160;&#160;&#160;&#160;&#160;&#45;&gt;in_gripper GreenBox </title>
<path fill="none" stroke="black" d="M1278.52,-359.7C1274.15,-351.64 1268.86,-341.89 1264.02,-332.98"/>
<polygon fill="black" stroke="black" points="1267.05,-331.22 1259.2,-324.1 1260.9,-334.56 1267.05,-331.22"/>
</g>
<!-- Sequence &#160;&#160;&#160;&#160;&#160;&#160;&#160;&#160; -->
<g id="node43" class="node">
<title>Sequence &#160;&#160;&#160;&#160;&#160;&#160;&#160;&#160;</title>
<polygon fill="orange" stroke="black" points="1395.91,-324 1333.91,-324 1333.91,-288 1395.91,-288 1395.91,-324"/>
<text text-anchor="middle" x="1364.91" y="-303.8" font-family="Times,serif" font-size="9.00">Sequence</text>
</g>
<!-- Fallback &#160;&#160;&#160;&#160;&#160;&#160;&#160;&#160;&#160;&#160;&#45;&gt;Sequence &#160;&#160;&#160;&#160;&#160;&#160;&#160;&#160; -->
<g id="edge42" class="edge">
<title>Fallback &#160;&#160;&#160;&#160;&#160;&#160;&#160;&#160;&#160;&#160;&#45;&gt;Sequence &#160;&#160;&#160;&#160;&#160;&#160;&#160;&#160;</title>
<path fill="none" stroke="black" d="M1305.39,-361.12C1315.17,-352.22 1327.57,-340.95 1338.51,-331"/>
<polygon fill="black" stroke="black" points="1341.12,-333.36 1346.17,-324.04 1336.41,-328.18 1341.12,-333.36"/>
</g>
<!-- Fallback &#160;&#160;&#160;&#160;&#160;&#160;&#160;&#160;&#160;&#160;&#160; -->
<g id="node44" class="node">
<title>Fallback &#160;&#160;&#160;&#160;&#160;&#160;&#160;&#160;&#160;&#160;&#160;</title>
<polygon fill="cyan" stroke="black" points="1346.91,-226.54 1346.91,-241.46 1326.41,-252 1297.42,-252 1276.92,-241.46 1276.92,-226.54 1297.42,-216 1326.41,-216 1346.91,-226.54"/>
<text text-anchor="middle" x="1311.91" y="-231.8" font-family="Times,serif" font-size="9.00">Fallback</text>
</g>
<!-- Sequence &#160;&#160;&#160;&#160;&#160;&#160;&#160;&#160;&#45;&gt;Fallback &#160;&#160;&#160;&#160;&#160;&#160;&#160;&#160;&#160;&#160;&#160; -->
<g id="edge43" class="edge">
<title>Sequence &#160;&#160;&#160;&#160;&#160;&#160;&#160;&#160;&#45;&gt;Fallback &#160;&#160;&#160;&#160;&#160;&#160;&#160;&#160;&#160;&#160;&#160;</title>
<path fill="none" stroke="black" d="M1351.81,-287.7C1345.52,-279.39 1337.87,-269.28 1330.95,-260.14"/>
<polygon fill="black" stroke="black" points="1333.69,-257.96 1324.87,-252.1 1328.11,-262.19 1333.69,-257.96"/>
</g>
<!-- pick0 GreenBox  -->
<g id="node47" class="node">
<title>pick0 GreenBox </title>
<ellipse fill="lightgray" stroke="black" cx="1417.91" cy="-234" rx="52.58" ry="18"/>
<text text-anchor="middle" x="1417.91" y="-231.8" font-family="Times,serif" font-size="9.00">pick0 GreenBox</text>
</g>
<!-- Sequence &#160;&#160;&#160;&#160;&#160;&#160;&#160;&#160;&#45;&gt;pick0 GreenBox  -->
<g id="edge46" class="edge">
<title>Sequence &#160;&#160;&#160;&#160;&#160;&#160;&#160;&#160;&#45;&gt;pick0 GreenBox </title>
<path fill="none" stroke="black" d="M1378.02,-287.7C1384.4,-279.27 1392.19,-268.97 1399.19,-259.73"/>
<polygon fill="black" stroke="black" points="1402.08,-261.71 1405.33,-251.62 1396.5,-257.48 1402.08,-261.71"/>
</g>
<!-- gripper_state open &#160;&#160; -->
<g id="node45" class="node">
<title>gripper_state open &#160;&#160;</title>
<ellipse fill="lightgray" stroke="black" cx="1249.91" cy="-162" rx="60.09" ry="18"/>
<text text-anchor="middle" x="1249.91" y="-159.8" font-family="Times,serif" font-size="9.00">gripper_state open</text>
</g>
<!-- Fallback &#160;&#160;&#160;&#160;&#160;&#160;&#160;&#160;&#160;&#160;&#160;&#45;&gt;gripper_state open &#160;&#160; -->
<g id="edge44" class="edge">
<title>Fallback &#160;&#160;&#160;&#160;&#160;&#160;&#160;&#160;&#160;&#160;&#160;&#45;&gt;gripper_state open &#160;&#160;</title>
<path fill="none" stroke="black" d="M1296.91,-216.05C1289.29,-207.46 1279.9,-196.86 1271.52,-187.4"/>
<polygon fill="black" stroke="black" points="1274.04,-184.95 1264.79,-179.79 1268.8,-189.6 1274.04,-184.95"/>
</g>
<!-- open_gripper &#160;&#160; -->
<g id="node46" class="node">
<title>open_gripper &#160;&#160;</title>
<ellipse fill="lightgray" stroke="black" cx="1373.91" cy="-162" rx="45.72" ry="18"/>
<text text-anchor="middle" x="1373.91" y="-159.8" font-family="Times,serif" font-size="9.00">open_gripper</text>
</g>
<!-- Fallback &#160;&#160;&#160;&#160;&#160;&#160;&#160;&#160;&#160;&#160;&#160;&#45;&gt;open_gripper &#160;&#160; -->
<g id="edge45" class="edge">
<title>Fallback &#160;&#160;&#160;&#160;&#160;&#160;&#160;&#160;&#160;&#160;&#160;&#45;&gt;open_gripper &#160;&#160;</title>
<path fill="none" stroke="black" d="M1326.92,-216.05C1334.65,-207.33 1344.2,-196.54 1352.67,-186.98"/>
<polygon fill="black" stroke="black" points="1355.46,-189.11 1359.47,-179.31 1350.22,-184.47 1355.46,-189.11"/>
</g>
<!-- object_at BlueBox [0.0, 0.0, 0.22] 0.02 GreenBox -->
<g id="node50" class="node">
<title>object_at BlueBox [0.0, 0.0, 0.22] 0.02 GreenBox</title>
<ellipse fill="lightgray" stroke="black" cx="1490.91" cy="-450" rx="142.06" ry="18"/>
<text text-anchor="middle" x="1490.91" y="-447.8" font-family="Times,serif" font-size="9.00">object_at BlueBox [0.0, 0.0, 0.22] 0.02 GreenBox</text>
</g>
<!-- Fallback &#160;&#160;&#160;&#160;&#160;&#160;&#160;&#160;&#160;&#160;&#160;&#160;&#45;&gt;object_at BlueBox [0.0, 0.0, 0.22] 0.02 GreenBox -->
<g id="edge49" class="edge">
<title>Fallback &#160;&#160;&#160;&#160;&#160;&#160;&#160;&#160;&#160;&#160;&#160;&#160;&#45;&gt;object_at BlueBox [0.0, 0.0, 0.22] 0.02 GreenBox</title>
<path fill="none" stroke="black" d="M1490.91,-503.7C1490.91,-495.98 1490.91,-486.71 1490.91,-478.11"/>
<polygon fill="black" stroke="black" points="1494.42,-478.1 1490.91,-468.1 1487.42,-478.1 1494.42,-478.1"/>
</g>
<!-- Sequence &#160;&#160;&#160;&#160;&#160;&#160;&#160;&#160;&#160; -->
<g id="node51" class="node">
<title>Sequence &#160;&#160;&#160;&#160;&#160;&#160;&#160;&#160;&#160;</title>
<polygon fill="orange" stroke="black" points="1712.91,-468 1650.91,-468 1650.91,-432 1712.91,-432 1712.91,-468"/>
<text text-anchor="middle" x="1681.91" y="-447.8" font-family="Times,serif" font-size="9.00">Sequence</text>
</g>
<!-- Fallback &#160;&#160;&#160;&#160;&#160;&#160;&#160;&#160;&#160;&#160;&#160;&#160;&#45;&gt;Sequence &#160;&#160;&#160;&#160;&#160;&#160;&#160;&#160;&#160; -->
<g id="edge50" class="edge">
<title>Fallback &#160;&#160;&#160;&#160;&#160;&#160;&#160;&#160;&#160;&#160;&#160;&#160;&#45;&gt;Sequence &#160;&#160;&#160;&#160;&#160;&#160;&#160;&#160;&#160;</title>
<path fill="none" stroke="black" d="M1520.07,-511.39C1548.72,-501.81 1593.86,-486.35 1641.08,-468.22"/>
<polygon fill="black" stroke="black" points="1642.49,-471.43 1650.55,-464.56 1639.96,-464.9 1642.49,-471.43"/>
</g>
<!-- Fallback &#160;&#160;&#160;&#160;&#160;&#160;&#160;&#160;&#160;&#160;&#160;&#160;&#160; -->
<g id="node52" class="node">
<title>Fallback &#160;&#160;&#160;&#160;&#160;&#160;&#160;&#160;&#160;&#160;&#160;&#160;&#160;</title>
<polygon fill="cyan" stroke="black" points="1713.91,-370.54 1713.91,-385.46 1693.41,-396 1664.42,-396 1643.92,-385.46 1643.92,-370.54 1664.42,-360 1693.41,-360 1713.91,-370.54"/>
<text text-anchor="middle" x="1678.91" y="-375.8" font-family="Times,serif" font-size="9.00">Fallback</text>
</g>
<!-- Sequence &#160;&#160;&#160;&#160;&#160;&#160;&#160;&#160;&#160;&#45;&gt;Fallback &#160;&#160;&#160;&#160;&#160;&#160;&#160;&#160;&#160;&#160;&#160;&#160;&#160; -->
<g id="edge51" class="edge">
<title>Sequence &#160;&#160;&#160;&#160;&#160;&#160;&#160;&#160;&#160;&#45;&gt;Fallback &#160;&#160;&#160;&#160;&#160;&#160;&#160;&#160;&#160;&#160;&#160;&#160;&#160;</title>
<path fill="none" stroke="black" d="M1681.17,-431.7C1680.84,-423.98 1680.45,-414.71 1680.08,-406.11"/>
<polygon fill="black" stroke="black" points="1683.57,-405.95 1679.65,-396.1 1676.58,-406.25 1683.57,-405.95"/>
</g>
<!-- place0 BlueBox [0.0, 0.0, 0.22] 0.02 GreenBox -->
<g id="node59" class="node">
<title>place0 BlueBox [0.0, 0.0, 0.22] 0.02 GreenBox</title>
<ellipse fill="lightgray" stroke="black" cx="1867.91" cy="-378" rx="135.85" ry="18"/>
<text text-anchor="middle" x="1867.91" y="-375.8" font-family="Times,serif" font-size="9.00">place0 BlueBox [0.0, 0.0, 0.22] 0.02 GreenBox</text>
</g>
<!-- Sequence &#160;&#160;&#160;&#160;&#160;&#160;&#160;&#160;&#160;&#45;&gt;place0 BlueBox [0.0, 0.0, 0.22] 0.02 GreenBox -->
<g id="edge58" class="edge">
<title>Sequence &#160;&#160;&#160;&#160;&#160;&#160;&#160;&#160;&#160;&#45;&gt;place0 BlueBox [0.0, 0.0, 0.22] 0.02 GreenBox</title>
<path fill="none" stroke="black" d="M1713.05,-437.28C1741,-426.76 1782.61,-411.1 1815.66,-398.67"/>
<polygon fill="black" stroke="black" points="1817.05,-401.88 1825.17,-395.09 1814.58,-395.33 1817.05,-401.88"/>
</g>
<!-- in_gripper BlueBox  -->
<g id="node53" class="node">
<title>in_gripper BlueBox </title>
<ellipse fill="lightgray" stroke="black" cx="1623.91" cy="-306" rx="61.55" ry="18"/>
<text text-anchor="middle" x="1623.91" y="-303.8" font-family="Times,serif" font-size="9.00">in_gripper BlueBox</text>
</g>
<!-- Fallback &#160;&#160;&#160;&#160;&#160;&#160;&#160;&#160;&#160;&#160;&#160;&#160;&#160;&#45;&gt;in_gripper BlueBox  -->
<g id="edge52" class="edge">
<title>Fallback &#160;&#160;&#160;&#160;&#160;&#160;&#160;&#160;&#160;&#160;&#160;&#160;&#160;&#45;&gt;in_gripper BlueBox </title>
<path fill="none" stroke="black" d="M1665.32,-359.7C1658.69,-351.27 1650.61,-340.97 1643.35,-331.73"/>
<polygon fill="black" stroke="black" points="1645.91,-329.32 1636.98,-323.62 1640.4,-333.65 1645.91,-329.32"/>
</g>
<!-- Sequence &#160;&#160;&#160;&#160;&#160;&#160;&#160;&#160;&#160;&#160; -->
<g id="node54" class="node">
<title>Sequence &#160;&#160;&#160;&#160;&#160;&#160;&#160;&#160;&#160;&#160;</title>
<polygon fill="orange" stroke="black" points="1765.91,-324 1703.91,-324 1703.91,-288 1765.91,-288 1765.91,-324"/>
<text text-anchor="middle" x="1734.91" y="-303.8" font-family="Times,serif" font-size="9.00">Sequence</text>
</g>
<!-- Fallback &#160;&#160;&#160;&#160;&#160;&#160;&#160;&#160;&#160;&#160;&#160;&#160;&#160;&#45;&gt;Sequence &#160;&#160;&#160;&#160;&#160;&#160;&#160;&#160;&#160;&#160; -->
<g id="edge53" class="edge">
<title>Fallback &#160;&#160;&#160;&#160;&#160;&#160;&#160;&#160;&#160;&#160;&#160;&#160;&#160;&#45;&gt;Sequence &#160;&#160;&#160;&#160;&#160;&#160;&#160;&#160;&#160;&#160;</title>
<path fill="none" stroke="black" d="M1692.76,-359.7C1699.4,-351.39 1707.49,-341.28 1714.8,-332.14"/>
<polygon fill="black" stroke="black" points="1717.72,-334.1 1721.23,-324.1 1712.25,-329.73 1717.72,-334.1"/>
</g>
<!-- Fallback &#160;&#160;&#160;&#160;&#160;&#160;&#160;&#160;&#160;&#160;&#160;&#160;&#160;&#160; -->
<g id="node55" class="node">
<title>Fallback &#160;&#160;&#160;&#160;&#160;&#160;&#160;&#160;&#160;&#160;&#160;&#160;&#160;&#160;</title>
<polygon fill="cyan" stroke="black" points="1718.91,-226.54 1718.91,-241.46 1698.41,-252 1669.42,-252 1648.92,-241.46 1648.92,-226.54 1669.42,-216 1698.41,-216 1718.91,-226.54"/>
<text text-anchor="middle" x="1683.91" y="-231.8" font-family="Times,serif" font-size="9.00">Fallback</text>
</g>
<!-- Sequence &#160;&#160;&#160;&#160;&#160;&#160;&#160;&#160;&#160;&#160;&#45;&gt;Fallback &#160;&#160;&#160;&#160;&#160;&#160;&#160;&#160;&#160;&#160;&#160;&#160;&#160;&#160; -->
<g id="edge54" class="edge">
<title>Sequence &#160;&#160;&#160;&#160;&#160;&#160;&#160;&#160;&#160;&#160;&#45;&gt;Fallback &#160;&#160;&#160;&#160;&#160;&#160;&#160;&#160;&#160;&#160;&#160;&#160;&#160;&#160;</title>
<path fill="none" stroke="black" d="M1722.31,-287.7C1716.32,-279.47 1709.04,-269.48 1702.44,-260.42"/>
<polygon fill="black" stroke="black" points="1705.09,-258.13 1696.38,-252.1 1699.44,-262.25 1705.09,-258.13"/>
</g>
<!-- pick0 BlueBox  -->
<g id="node58" class="node">
<title>pick0 BlueBox </title>
<ellipse fill="lightgray" stroke="black" cx="1784.91" cy="-234" rx="47.84" ry="18"/>
<text text-anchor="middle" x="1784.91" y="-231.8" font-family="Times,serif" font-size="9.00">pick0 BlueBox</text>
</g>
<!-- Sequence &#160;&#160;&#160;&#160;&#160;&#160;&#160;&#160;&#160;&#160;&#45;&gt;pick0 BlueBox  -->
<g id="edge57" class="edge">
<title>Sequence &#160;&#160;&#160;&#160;&#160;&#160;&#160;&#160;&#160;&#160;&#45;&gt;pick0 BlueBox </title>
<path fill="none" stroke="black" d="M1747.27,-287.7C1753.24,-279.35 1760.5,-269.18 1767.05,-260.02"/>
<polygon fill="black" stroke="black" points="1770.08,-261.79 1773.04,-251.62 1764.38,-257.73 1770.08,-261.79"/>
</g>
<!-- gripper_state open &#160;&#160;&#160; -->
<g id="node56" class="node">
<title>gripper_state open &#160;&#160;&#160;</title>
<ellipse fill="lightgray" stroke="black" cx="1621.91" cy="-162" rx="60.09" ry="18"/>
<text text-anchor="middle" x="1621.91" y="-159.8" font-family="Times,serif" font-size="9.00">gripper_state open</text>
</g>
<!-- Fallback &#160;&#160;&#160;&#160;&#160;&#160;&#160;&#160;&#160;&#160;&#160;&#160;&#160;&#160;&#45;&gt;gripper_state open &#160;&#160;&#160; -->
<g id="edge55" class="edge">
<title>Fallback &#160;&#160;&#160;&#160;&#160;&#160;&#160;&#160;&#160;&#160;&#160;&#160;&#160;&#160;&#45;&gt;gripper_state open &#160;&#160;&#160;</title>
<path fill="none" stroke="black" d="M1668.91,-216.05C1661.29,-207.46 1651.9,-196.86 1643.52,-187.4"/>
<polygon fill="black" stroke="black" points="1646.04,-184.95 1636.79,-179.79 1640.8,-189.6 1646.04,-184.95"/>
</g>
<!-- open_gripper &#160;&#160;&#160; -->
<g id="node57" class="node">
<title>open_gripper &#160;&#160;&#160;</title>
<ellipse fill="lightgray" stroke="black" cx="1745.91" cy="-162" rx="45.72" ry="18"/>
<text text-anchor="middle" x="1745.91" y="-159.8" font-family="Times,serif" font-size="9.00">open_gripper</text>
</g>
<!-- Fallback &#160;&#160;&#160;&#160;&#160;&#160;&#160;&#160;&#160;&#160;&#160;&#160;&#160;&#160;&#45;&gt;open_gripper &#160;&#160;&#160; -->
<g id="edge56" class="edge">
<title>Fallback &#160;&#160;&#160;&#160;&#160;&#160;&#160;&#160;&#160;&#160;&#160;&#160;&#160;&#160;&#45;&gt;open_gripper &#160;&#160;&#160;</title>
<path fill="none" stroke="black" d="M1698.92,-216.05C1706.65,-207.33 1716.2,-196.54 1724.67,-186.98"/>
<polygon fill="black" stroke="black" points="1727.46,-189.11 1731.47,-179.31 1722.22,-184.47 1727.46,-189.11"/>
</g>
</g>
</svg>
