<?xml version="1.0" encoding="UTF-8" standalone="no"?>
<!DOCTYPE svg PUBLIC "-//W3C//DTD SVG 1.1//EN"
 "http://www.w3.org/Graphics/SVG/1.1/DTD/svg11.dtd">
<!-- Generated by graphviz version 2.43.0 (0)
 -->
<!-- Title: pastafarianism Pages: 1 -->
<svg width="4398pt" height="503pt"
 viewBox="0.00 0.00 4397.56 502.60" xmlns="http://www.w3.org/2000/svg" xmlns:xlink="http://www.w3.org/1999/xlink">
<g id="graph0" class="graph" transform="scale(1 1) rotate(0) translate(4 498.6)">
<title>pastafarianism</title>
<polygon fill="white" stroke="transparent" points="-4,4 -4,-498.6 4393.56,-498.6 4393.56,4 -4,4"/>
<!-- selector:
 insert(gear3, shaft3) -->
<g id="node1" class="node">
<title>selector:
 insert(gear3, shaft3)</title>
<polygon fill="#8deeee" stroke="black" points="2666.11,-442.54 2666.11,-473.18 2572.42,-494.84 2439.94,-494.84 2346.26,-473.18 2346.26,-442.54 2439.94,-420.88 2572.42,-420.88 2666.11,-442.54"/>
<text text-anchor="middle" x="2506.18" y="-463.46" font-family="Times,serif" font-size="18.00">selector:</text>
<text text-anchor="middle" x="2506.18" y="-443.46" font-family="Times,serif" font-size="18.00"> insert(gear3, shaft3)</text>
</g>
<!-- target:
 is_inserted_to(gear3, shaft3) -->
<g id="node2" class="node">
<title>target:
 is_inserted_to(gear3, shaft3)</title>
<ellipse fill="#ffec8b" stroke="black" cx="2346.18" cy="-351.18" rx="198.89" ry="33.88"/>
<text text-anchor="middle" x="2346.18" y="-356.78" font-family="Times,serif" font-size="18.00">target:</text>
<text text-anchor="middle" x="2346.18" y="-336.78" font-family="Times,serif" font-size="18.00"> is_inserted_to(gear3, shaft3)</text>
</g>
<!-- selector:
 insert(gear3, shaft3)&#45;&gt;target:
 is_inserted_to(gear3, shaft3) -->
<g id="edge1" class="edge">
<title>selector:
 insert(gear3, shaft3)&#45;&gt;target:
 is_inserted_to(gear3, shaft3)</title>
<path fill="none" stroke="black" d="M2451.12,-420.84C2435.79,-410.81 2419.1,-399.89 2403.64,-389.77"/>
<polygon fill="black" stroke="black" points="2405.47,-386.79 2395.19,-384.24 2401.64,-392.65 2405.47,-386.79"/>
</g>
<!-- sequence:
 insert(gear3, shaft3) -->
<g id="node3" class="node">
<title>sequence:
 insert(gear3, shaft3)</title>
<polygon fill="#ff7f24" stroke="black" points="2771.68,-375.18 2562.68,-375.18 2562.68,-327.18 2771.68,-327.18 2771.68,-375.18"/>
<text text-anchor="middle" x="2667.18" y="-356.78" font-family="Times,serif" font-size="18.00">sequence:</text>
<text text-anchor="middle" x="2667.18" y="-336.78" font-family="Times,serif" font-size="18.00"> insert(gear3, shaft3)</text>
</g>
<!-- selector:
 insert(gear3, shaft3)&#45;&gt;sequence:
 insert(gear3, shaft3) -->
<g id="edge2" class="edge">
<title>selector:
 insert(gear3, shaft3)&#45;&gt;sequence:
 insert(gear3, shaft3)</title>
<path fill="none" stroke="black" d="M2561.59,-420.84C2581.62,-407.81 2603.96,-393.28 2622.92,-380.96"/>
<polygon fill="black" stroke="black" points="2624.89,-383.85 2631.37,-375.47 2621.08,-377.98 2624.89,-383.85"/>
</g>
<!-- selector:
 put_down(shaft1) -->
<g id="node4" class="node">
<title>selector:
 put_down(shaft1)</title>
<polygon fill="#8deeee" stroke="black" points="1001.71,-229.19 1001.71,-259.82 921.15,-281.48 807.21,-281.48 726.65,-259.82 726.65,-229.19 807.21,-207.53 921.15,-207.53 1001.71,-229.19"/>
<text text-anchor="middle" x="864.18" y="-250.1" font-family="Times,serif" font-size="18.00">selector:</text>
<text text-anchor="middle" x="864.18" y="-230.1" font-family="Times,serif" font-size="18.00"> put_down(shaft1)</text>
</g>
<!-- sequence:
 insert(gear3, shaft3)&#45;&gt;selector:
 put_down(shaft1) -->
<g id="edge3" class="edge">
<title>sequence:
 insert(gear3, shaft3)&#45;&gt;selector:
 put_down(shaft1)</title>
<path fill="none" stroke="black" d="M2597.87,-327.12C2583.57,-323.17 2568.5,-319.59 2554.18,-317.24 2177.12,-255.32 2076.95,-297.45 1695.18,-281.24 1456.18,-271.09 1178.53,-259.11 1012.32,-251.92"/>
<polygon fill="black" stroke="black" points="1012.17,-248.41 1002.03,-251.48 1011.87,-255.41 1012.17,-248.41"/>
</g>
<!-- selector:
 change_tool(clampgripper, outwardgripper) -->
<g id="node10" class="node">
<title>selector:
 change_tool(clampgripper, outwardgripper)</title>
<polygon fill="#8deeee" stroke="black" points="2342.5,-229.19 2342.5,-259.82 2155.45,-281.48 1890.92,-281.48 1703.87,-259.82 1703.87,-229.19 1890.92,-207.53 2155.45,-207.53 2342.5,-229.19"/>
<text text-anchor="middle" x="2023.18" y="-250.1" font-family="Times,serif" font-size="18.00">selector:</text>
<text text-anchor="middle" x="2023.18" y="-230.1" font-family="Times,serif" font-size="18.00"> change_tool(clampgripper, outwardgripper)</text>
</g>
<!-- sequence:
 insert(gear3, shaft3)&#45;&gt;selector:
 change_tool(clampgripper, outwardgripper) -->
<g id="edge9" class="edge">
<title>sequence:
 insert(gear3, shaft3)&#45;&gt;selector:
 change_tool(clampgripper, outwardgripper)</title>
<path fill="none" stroke="black" d="M2594.04,-327.13C2580.86,-323.48 2567.18,-320 2554.18,-317.24 2461.64,-297.62 2358.84,-282.26 2268.53,-270.88"/>
<polygon fill="black" stroke="black" points="2268.78,-267.39 2258.42,-269.62 2267.91,-274.33 2268.78,-267.39"/>
</g>
<!-- selector:
 pick_up(gear3) -->
<g id="node16" class="node">
<title>selector:
 pick_up(gear3)</title>
<polygon fill="#8deeee" stroke="black" points="2602.04,-229.19 2602.04,-259.82 2531.24,-281.48 2431.12,-281.48 2360.33,-259.82 2360.33,-229.19 2431.12,-207.53 2531.24,-207.53 2602.04,-229.19"/>
<text text-anchor="middle" x="2481.18" y="-250.1" font-family="Times,serif" font-size="18.00">selector:</text>
<text text-anchor="middle" x="2481.18" y="-230.1" font-family="Times,serif" font-size="18.00"> pick_up(gear3)</text>
</g>
<!-- sequence:
 insert(gear3, shaft3)&#45;&gt;selector:
 pick_up(gear3) -->
<g id="edge15" class="edge">
<title>sequence:
 insert(gear3, shaft3)&#45;&gt;selector:
 pick_up(gear3)</title>
<path fill="none" stroke="black" d="M2625.9,-326.95C2603.4,-314.29 2574.98,-298.29 2549.3,-283.84"/>
<polygon fill="black" stroke="black" points="2550.77,-280.65 2540.34,-278.8 2547.34,-286.75 2550.77,-280.65"/>
</g>
<!-- &quot;precondition:\n hold(left_hand, outwardgripper)&quot;* -->
<g id="node22" class="node">
<title>&quot;precondition:\n hold(left_hand, outwardgripper)&quot;*</title>
<ellipse fill="#ffec8b" stroke="black" cx="2853.18" cy="-244.5" rx="233.19" ry="33.88"/>
<text text-anchor="middle" x="2853.18" y="-250.1" font-family="Times,serif" font-size="18.00">&quot;precondition:</text>
<text text-anchor="middle" x="2853.18" y="-230.1" font-family="Times,serif" font-size="18.00"> hold(left_hand, outwardgripper)&quot;*</text>
</g>
<!-- sequence:
 insert(gear3, shaft3)&#45;&gt;&quot;precondition:\n hold(left_hand, outwardgripper)&quot;* -->
<g id="edge21" class="edge">
<title>sequence:
 insert(gear3, shaft3)&#45;&gt;&quot;precondition:\n hold(left_hand, outwardgripper)&quot;*</title>
<path fill="none" stroke="black" d="M2708.46,-326.95C2731.64,-313.91 2761.09,-297.33 2787.37,-282.54"/>
<polygon fill="black" stroke="black" points="2789.15,-285.56 2796.15,-277.6 2785.72,-279.45 2789.15,-285.56"/>
</g>
<!-- precondition:
 hold(outwardgripper, gear3) -->
<g id="node23" class="node">
<title>precondition:
 hold(outwardgripper, gear3)</title>
<ellipse fill="#ffec8b" stroke="black" cx="3301.18" cy="-244.5" rx="196.65" ry="33.88"/>
<text text-anchor="middle" x="3301.18" y="-250.1" font-family="Times,serif" font-size="18.00">precondition:</text>
<text text-anchor="middle" x="3301.18" y="-230.1" font-family="Times,serif" font-size="18.00"> hold(outwardgripper, gear3)</text>
</g>
<!-- sequence:
 insert(gear3, shaft3)&#45;&gt;precondition:
 hold(outwardgripper, gear3) -->
<g id="edge22" class="edge">
<title>sequence:
 insert(gear3, shaft3)&#45;&gt;precondition:
 hold(outwardgripper, gear3)</title>
<path fill="none" stroke="black" d="M2771.9,-333.67C2858.58,-319.92 2984.95,-299.68 3095.18,-281.24 3114.87,-277.95 3135.61,-274.42 3156.04,-270.91"/>
<polygon fill="black" stroke="black" points="3156.77,-274.33 3166.03,-269.19 3155.59,-267.43 3156.77,-274.33"/>
</g>
<!-- action:
 insert(left_hand, outwardgripper, gear3, shaft3) -->
<g id="node24" class="node">
<title>action:
 insert(left_hand, outwardgripper, gear3, shaft3)</title>
<ellipse fill="lightgreen" stroke="black" cx="3838.18" cy="-244.5" rx="322.38" ry="33.88"/>
<text text-anchor="middle" x="3838.18" y="-250.1" font-family="Times,serif" font-size="18.00">action:</text>
<text text-anchor="middle" x="3838.18" y="-230.1" font-family="Times,serif" font-size="18.00"> insert(left_hand, outwardgripper, gear3, shaft3)</text>
</g>
<!-- sequence:
 insert(gear3, shaft3)&#45;&gt;action:
 insert(left_hand, outwardgripper, gear3, shaft3) -->
<g id="edge23" class="edge">
<title>sequence:
 insert(gear3, shaft3)&#45;&gt;action:
 insert(left_hand, outwardgripper, gear3, shaft3)</title>
<path fill="none" stroke="black" d="M2771.69,-342.47C2930.64,-330.55 3242.61,-306.38 3507.18,-281.24 3540.83,-278.04 3576.38,-274.44 3611.2,-270.79"/>
<polygon fill="black" stroke="black" points="3611.91,-274.23 3621.49,-269.7 3611.18,-267.27 3611.91,-274.23"/>
</g>
<!-- target:
 is_empty(clampgripper) -->
<g id="node5" class="node">
<title>target:
 is_empty(clampgripper)</title>
<ellipse fill="#ffec8b" stroke="black" cx="587.18" cy="-137.82" rx="169" ry="33.88"/>
<text text-anchor="middle" x="587.18" y="-143.42" font-family="Times,serif" font-size="18.00">target:</text>
<text text-anchor="middle" x="587.18" y="-123.42" font-family="Times,serif" font-size="18.00"> is_empty(clampgripper)</text>
</g>
<!-- selector:
 put_down(shaft1)&#45;&gt;target:
 is_empty(clampgripper) -->
<g id="edge4" class="edge">
<title>selector:
 put_down(shaft1)&#45;&gt;target:
 is_empty(clampgripper)</title>
<path fill="none" stroke="black" d="M784.81,-213.51C750.17,-200.42 709.46,-185.03 674.03,-171.64"/>
<polygon fill="black" stroke="black" points="675.25,-168.36 664.66,-168.1 672.78,-174.91 675.25,-168.36"/>
</g>
<!-- sequence:
 put_down(shaft1) -->
<g id="node6" class="node">
<title>sequence:
 put_down(shaft1)</title>
<polygon fill="#ff7f24" stroke="black" points="954.18,-161.82 774.18,-161.82 774.18,-113.82 954.18,-113.82 954.18,-161.82"/>
<text text-anchor="middle" x="864.18" y="-143.42" font-family="Times,serif" font-size="18.00">sequence:</text>
<text text-anchor="middle" x="864.18" y="-123.42" font-family="Times,serif" font-size="18.00"> put_down(shaft1)</text>
</g>
<!-- selector:
 put_down(shaft1)&#45;&gt;sequence:
 put_down(shaft1) -->
<g id="edge5" class="edge">
<title>selector:
 put_down(shaft1)&#45;&gt;sequence:
 put_down(shaft1)</title>
<path fill="none" stroke="black" d="M864.18,-207.48C864.18,-196.09 864.18,-183.57 864.18,-172.36"/>
<polygon fill="black" stroke="black" points="867.68,-172.11 864.18,-162.11 860.68,-172.11 867.68,-172.11"/>
</g>
<!-- precondition:
 hold(left_hand, clampgripper) -->
<g id="node7" class="node">
<title>precondition:
 hold(left_hand, clampgripper)</title>
<ellipse fill="#ffec8b" stroke="black" cx="207.18" cy="-33.94" rx="207.36" ry="33.88"/>
<text text-anchor="middle" x="207.18" y="-39.54" font-family="Times,serif" font-size="18.00">precondition:</text>
<text text-anchor="middle" x="207.18" y="-19.54" font-family="Times,serif" font-size="18.00"> hold(left_hand, clampgripper)</text>
</g>
<!-- sequence:
 put_down(shaft1)&#45;&gt;precondition:
 hold(left_hand, clampgripper) -->
<g id="edge6" class="edge">
<title>sequence:
 put_down(shaft1)&#45;&gt;precondition:
 hold(left_hand, clampgripper)</title>
<path fill="none" stroke="black" d="M801.64,-113.75C789.66,-109.98 777.13,-106.47 765.18,-103.88 615.8,-71.57 574.77,-87.41 423.18,-67.88 403.62,-65.36 383.1,-62.51 362.81,-59.56"/>
<polygon fill="black" stroke="black" points="363.27,-56.09 352.87,-58.1 362.26,-63.01 363.27,-56.09"/>
</g>
<!-- precondition:
 hold(clampgripper, shaft1) -->
<g id="node8" class="node">
<title>precondition:
 hold(clampgripper, shaft1)</title>
<ellipse fill="#ffec8b" stroke="black" cx="618.18" cy="-33.94" rx="185.94" ry="33.88"/>
<text text-anchor="middle" x="618.18" y="-39.54" font-family="Times,serif" font-size="18.00">precondition:</text>
<text text-anchor="middle" x="618.18" y="-19.54" font-family="Times,serif" font-size="18.00"> hold(clampgripper, shaft1)</text>
</g>
<!-- sequence:
 put_down(shaft1)&#45;&gt;precondition:
 hold(clampgripper, shaft1) -->
<g id="edge7" class="edge">
<title>sequence:
 put_down(shaft1)&#45;&gt;precondition:
 hold(clampgripper, shaft1)</title>
<path fill="none" stroke="black" d="M808.36,-113.7C776.61,-100.55 736.24,-83.84 700.87,-69.19"/>
<polygon fill="black" stroke="black" points="702.1,-65.91 691.52,-65.32 699.42,-72.38 702.1,-65.91"/>
</g>
<!-- action:
 put_down(left_hand, clampgripper, shaft1) -->
<g id="node9" class="node">
<title>action:
 put_down(left_hand, clampgripper, shaft1)</title>
<ellipse fill="lightgreen" stroke="black" cx="1110.18" cy="-33.94" rx="287.59" ry="33.88"/>
<text text-anchor="middle" x="1110.18" y="-39.54" font-family="Times,serif" font-size="18.00">action:</text>
<text text-anchor="middle" x="1110.18" y="-19.54" font-family="Times,serif" font-size="18.00"> put_down(left_hand, clampgripper, shaft1)</text>
</g>
<!-- sequence:
 put_down(shaft1)&#45;&gt;action:
 put_down(left_hand, clampgripper, shaft1) -->
<g id="edge8" class="edge">
<title>sequence:
 put_down(shaft1)&#45;&gt;action:
 put_down(left_hand, clampgripper, shaft1)</title>
<path fill="none" stroke="black" d="M920,-113.7C950.58,-101.04 989.15,-85.07 1023.56,-70.82"/>
<polygon fill="black" stroke="black" points="1025.24,-73.91 1033.14,-66.85 1022.56,-67.44 1025.24,-73.91"/>
</g>
<!-- target:
 hold(left_hand, outwardgripper) -->
<g id="node11" class="node">
<title>target:
 hold(left_hand, outwardgripper)</title>
<ellipse fill="#ffec8b" stroke="black" cx="1593.18" cy="-137.82" rx="221.15" ry="33.88"/>
<text text-anchor="middle" x="1593.18" y="-143.42" font-family="Times,serif" font-size="18.00">target:</text>
<text text-anchor="middle" x="1593.18" y="-123.42" font-family="Times,serif" font-size="18.00"> hold(left_hand, outwardgripper)</text>
</g>
<!-- selector:
 change_tool(clampgripper, outwardgripper)&#45;&gt;target:
 hold(left_hand, outwardgripper) -->
<g id="edge10" class="edge">
<title>selector:
 change_tool(clampgripper, outwardgripper)&#45;&gt;target:
 hold(left_hand, outwardgripper)</title>
<path fill="none" stroke="black" d="M1880.3,-208.72C1827.94,-195.97 1769.14,-181.66 1718.44,-169.32"/>
<polygon fill="black" stroke="black" points="1718.96,-165.84 1708.42,-166.88 1717.31,-172.64 1718.96,-165.84"/>
</g>
<!-- sequence:
 change_tool(clampgripper, outwardgripper) -->
<g id="node12" class="node">
<title>sequence:
 change_tool(clampgripper, outwardgripper)</title>
<polygon fill="#ff7f24" stroke="black" points="2249.68,-161.82 1832.68,-161.82 1832.68,-113.82 2249.68,-113.82 2249.68,-161.82"/>
<text text-anchor="middle" x="2041.18" y="-143.42" font-family="Times,serif" font-size="18.00">sequence:</text>
<text text-anchor="middle" x="2041.18" y="-123.42" font-family="Times,serif" font-size="18.00"> change_tool(clampgripper, outwardgripper)</text>
</g>
<!-- selector:
 change_tool(clampgripper, outwardgripper)&#45;&gt;sequence:
 change_tool(clampgripper, outwardgripper) -->
<g id="edge11" class="edge">
<title>selector:
 change_tool(clampgripper, outwardgripper)&#45;&gt;sequence:
 change_tool(clampgripper, outwardgripper)</title>
<path fill="none" stroke="black" d="M2029.38,-207.48C2031.35,-195.98 2033.53,-183.31 2035.47,-172.02"/>
<polygon fill="black" stroke="black" points="2038.93,-172.56 2037.18,-162.11 2032.03,-171.37 2038.93,-172.56"/>
</g>
<!-- &quot;precondition:\n hold(left_hand, clampgripper)&quot;* -->
<g id="node13" class="node">
<title>&quot;precondition:\n hold(left_hand, clampgripper)&quot;*</title>
<ellipse fill="#ffec8b" stroke="black" cx="1635.18" cy="-33.94" rx="219.41" ry="33.88"/>
<text text-anchor="middle" x="1635.18" y="-39.54" font-family="Times,serif" font-size="18.00">&quot;precondition:</text>
<text text-anchor="middle" x="1635.18" y="-19.54" font-family="Times,serif" font-size="18.00"> hold(left_hand, clampgripper)&quot;*</text>
</g>
<!-- sequence:
 change_tool(clampgripper, outwardgripper)&#45;&gt;&quot;precondition:\n hold(left_hand, clampgripper)&quot;* -->
<g id="edge12" class="edge">
<title>sequence:
 change_tool(clampgripper, outwardgripper)&#45;&gt;&quot;precondition:\n hold(left_hand, clampgripper)&quot;*</title>
<path fill="none" stroke="black" d="M1949.31,-113.77C1892.58,-99.53 1819.11,-81.1 1757.49,-65.63"/>
<polygon fill="black" stroke="black" points="1758.26,-62.22 1747.71,-63.18 1756.55,-69.01 1758.26,-62.22"/>
</g>
<!-- precondition:
 is_empty(clampgripper) -->
<g id="node14" class="node">
<title>precondition:
 is_empty(clampgripper)</title>
<ellipse fill="#ffec8b" stroke="black" cx="2041.18" cy="-33.94" rx="169" ry="33.88"/>
<text text-anchor="middle" x="2041.18" y="-39.54" font-family="Times,serif" font-size="18.00">precondition:</text>
<text text-anchor="middle" x="2041.18" y="-19.54" font-family="Times,serif" font-size="18.00"> is_empty(clampgripper)</text>
</g>
<!-- sequence:
 change_tool(clampgripper, outwardgripper)&#45;&gt;precondition:
 is_empty(clampgripper) -->
<g id="edge13" class="edge">
<title>sequence:
 change_tool(clampgripper, outwardgripper)&#45;&gt;precondition:
 is_empty(clampgripper)</title>
<path fill="none" stroke="black" d="M2041.18,-113.7C2041.18,-103.16 2041.18,-90.31 2041.18,-78.08"/>
<polygon fill="black" stroke="black" points="2044.68,-78.01 2041.18,-68.01 2037.68,-78.01 2044.68,-78.01"/>
</g>
<!-- action:
 change_tool(left_hand, clampgripper, outwardgripper) -->
<g id="node15" class="node">
<title>action:
 change_tool(left_hand, clampgripper, outwardgripper)</title>
<ellipse fill="lightgreen" stroke="black" cx="2591.18" cy="-33.94" rx="362.99" ry="33.88"/>
<text text-anchor="middle" x="2591.18" y="-39.54" font-family="Times,serif" font-size="18.00">action:</text>
<text text-anchor="middle" x="2591.18" y="-19.54" font-family="Times,serif" font-size="18.00"> change_tool(left_hand, clampgripper, outwardgripper)</text>
</g>
<!-- sequence:
 change_tool(clampgripper, outwardgripper)&#45;&gt;action:
 change_tool(left_hand, clampgripper, outwardgripper) -->
<g id="edge14" class="edge">
<title>sequence:
 change_tool(clampgripper, outwardgripper)&#45;&gt;action:
 change_tool(left_hand, clampgripper, outwardgripper)</title>
<path fill="none" stroke="black" d="M2165.64,-113.77C2241.39,-99.74 2339.16,-81.63 2421.88,-66.3"/>
<polygon fill="black" stroke="black" points="2422.7,-69.71 2431.89,-64.45 2421.42,-62.83 2422.7,-69.71"/>
</g>
<!-- target:
 hold(outwardgripper, gear3) -->
<g id="node17" class="node">
<title>target:
 hold(outwardgripper, gear3)</title>
<ellipse fill="#ffec8b" stroke="black" cx="2481.18" cy="-137.82" rx="196.65" ry="33.88"/>
<text text-anchor="middle" x="2481.18" y="-143.42" font-family="Times,serif" font-size="18.00">target:</text>
<text text-anchor="middle" x="2481.18" y="-123.42" font-family="Times,serif" font-size="18.00"> hold(outwardgripper, gear3)</text>
</g>
<!-- selector:
 pick_up(gear3)&#45;&gt;target:
 hold(outwardgripper, gear3) -->
<g id="edge16" class="edge">
<title>selector:
 pick_up(gear3)&#45;&gt;target:
 hold(outwardgripper, gear3)</title>
<path fill="none" stroke="black" d="M2481.18,-207.48C2481.18,-199.32 2481.18,-190.58 2481.18,-182.15"/>
<polygon fill="black" stroke="black" points="2484.68,-182.1 2481.18,-172.1 2477.68,-182.1 2484.68,-182.1"/>
</g>
<!-- sequence:
 pick_up(gear3) -->
<g id="node18" class="node">
<title>sequence:
 pick_up(gear3)</title>
<polygon fill="#ff7f24" stroke="black" points="3483.18,-161.82 3325.18,-161.82 3325.18,-113.82 3483.18,-113.82 3483.18,-161.82"/>
<text text-anchor="middle" x="3404.18" y="-143.42" font-family="Times,serif" font-size="18.00">sequence:</text>
<text text-anchor="middle" x="3404.18" y="-123.42" font-family="Times,serif" font-size="18.00"> pick_up(gear3)</text>
</g>
<!-- selector:
 pick_up(gear3)&#45;&gt;sequence:
 pick_up(gear3) -->
<g id="edge17" class="edge">
<title>selector:
 pick_up(gear3)&#45;&gt;sequence:
 pick_up(gear3)</title>
<path fill="none" stroke="black" d="M2565.64,-217.9C2580.7,-214.02 2596.32,-210.43 2611.18,-207.76 2863.73,-162.46 3167.08,-146.61 3314.69,-141.32"/>
<polygon fill="black" stroke="black" points="3315.18,-144.8 3325.05,-140.95 3314.93,-137.81 3315.18,-144.8"/>
</g>
<!-- precondition:
 hold(left_hand, outwardgripper) -->
<g id="node19" class="node">
<title>precondition:
 hold(left_hand, outwardgripper)</title>
<ellipse fill="#ffec8b" stroke="black" cx="3193.18" cy="-33.94" rx="221.15" ry="33.88"/>
<text text-anchor="middle" x="3193.18" y="-39.54" font-family="Times,serif" font-size="18.00">precondition:</text>
<text text-anchor="middle" x="3193.18" y="-19.54" font-family="Times,serif" font-size="18.00"> hold(left_hand, outwardgripper)</text>
</g>
<!-- sequence:
 pick_up(gear3)&#45;&gt;precondition:
 hold(left_hand, outwardgripper) -->
<g id="edge18" class="edge">
<title>sequence:
 pick_up(gear3)&#45;&gt;precondition:
 hold(left_hand, outwardgripper)</title>
<path fill="none" stroke="black" d="M3356.3,-113.7C3330.08,-101.04 3297,-85.07 3267.5,-70.82"/>
<polygon fill="black" stroke="black" points="3268.99,-67.66 3258.47,-66.46 3265.95,-73.96 3268.99,-67.66"/>
</g>
<!-- precondition:
 is_empty(outwardgripper) -->
<g id="node20" class="node">
<title>precondition:
 is_empty(outwardgripper)</title>
<ellipse fill="#ffec8b" stroke="black" cx="3615.18" cy="-33.94" rx="183.28" ry="33.88"/>
<text text-anchor="middle" x="3615.18" y="-39.54" font-family="Times,serif" font-size="18.00">precondition:</text>
<text text-anchor="middle" x="3615.18" y="-19.54" font-family="Times,serif" font-size="18.00"> is_empty(outwardgripper)</text>
</g>
<!-- sequence:
 pick_up(gear3)&#45;&gt;precondition:
 is_empty(outwardgripper) -->
<g id="edge19" class="edge">
<title>sequence:
 pick_up(gear3)&#45;&gt;precondition:
 is_empty(outwardgripper)</title>
<path fill="none" stroke="black" d="M3452.06,-113.7C3478.62,-100.88 3512.2,-84.67 3541.98,-70.29"/>
<polygon fill="black" stroke="black" points="3543.61,-73.39 3551.09,-65.89 3540.56,-67.08 3543.61,-73.39"/>
</g>
<!-- action:
 pick_up(left_hand, outwardgripper, gear3) -->
<g id="node21" class="node">
<title>action:
 pick_up(left_hand, outwardgripper, gear3)</title>
<ellipse fill="lightgreen" stroke="black" cx="4103.18" cy="-33.94" rx="286.26" ry="33.88"/>
<text text-anchor="middle" x="4103.18" y="-39.54" font-family="Times,serif" font-size="18.00">action:</text>
<text text-anchor="middle" x="4103.18" y="-19.54" font-family="Times,serif" font-size="18.00"> pick_up(left_hand, outwardgripper, gear3)</text>
</g>
<!-- sequence:
 pick_up(gear3)&#45;&gt;action:
 pick_up(left_hand, outwardgripper, gear3) -->
<g id="edge20" class="edge">
<title>sequence:
 pick_up(gear3)&#45;&gt;action:
 pick_up(left_hand, outwardgripper, gear3)</title>
<path fill="none" stroke="black" d="M3483.35,-125.28C3587.8,-110.06 3774.95,-82.78 3916.36,-62.17"/>
<polygon fill="black" stroke="black" points="3917.07,-65.6 3926.46,-60.7 3916.06,-58.68 3917.07,-65.6"/>
</g>
</g>
</svg>
