<?xml version="1.0" encoding="UTF-8" standalone="no"?>
<!DOCTYPE svg PUBLIC "-//W3C//DTD SVG 1.1//EN"
 "http://www.w3.org/Graphics/SVG/1.1/DTD/svg11.dtd">
<!-- Generated by graphviz version 2.43.0 (0)
 -->
<!-- Title: pastafarianism Pages: 1 -->
<svg width="617pt" height="476pt"
 viewBox="0.00 0.00 616.59 476.00" xmlns="http://www.w3.org/2000/svg" xmlns:xlink="http://www.w3.org/1999/xlink">
<g id="graph0" class="graph" transform="scale(1 1) rotate(0) translate(4 472)">
<title>pastafarianism</title>
<polygon fill="white" stroke="transparent" points="-4,4 -4,-472 612.59,-472 612.59,4 -4,4"/>
<!-- Sequence -->
<g id="node1" class="node">
<title>Sequence</title>
<polygon fill="orange" stroke="black" points="385.74,-468 323.74,-468 323.74,-432 385.74,-432 385.74,-468"/>
<text text-anchor="middle" x="354.74" y="-447.8" font-family="Times,serif" font-size="9.00">Sequence</text>
</g>
<!-- Fallback -->
<g id="node2" class="node">
<title>Fallback</title>
<polygon fill="cyan" stroke="black" points="281.73,-370.54 281.73,-385.46 261.23,-396 232.24,-396 211.75,-385.46 211.75,-370.54 232.24,-360 261.23,-360 281.73,-370.54"/>
<text text-anchor="middle" x="246.74" y="-375.8" font-family="Times,serif" font-size="9.00">Fallback</text>
</g>
<!-- Sequence&#45;&gt;Fallback -->
<g id="edge1" class="edge">
<title>Sequence&#45;&gt;Fallback</title>
<path fill="none" stroke="black" d="M328.32,-431.88C312.62,-421.7 292.66,-408.77 276.42,-398.24"/>
<polygon fill="black" stroke="black" points="278.12,-395.17 267.83,-392.67 274.31,-401.04 278.12,-395.17"/>
</g>
<!-- In gripper none? -->
<g id="node13" class="node">
<title>In gripper none?</title>
<ellipse fill="lightgray" stroke="black" cx="354.74" cy="-378" rx="54.7" ry="18"/>
<text text-anchor="middle" x="354.74" y="-375.8" font-family="Times,serif" font-size="9.00">In gripper none?</text>
</g>
<!-- Sequence&#45;&gt;In gripper none? -->
<g id="edge12" class="edge">
<title>Sequence&#45;&gt;In gripper none?</title>
<path fill="none" stroke="black" d="M354.74,-431.7C354.74,-423.98 354.74,-414.71 354.74,-406.11"/>
<polygon fill="black" stroke="black" points="358.24,-406.1 354.74,-396.1 351.24,-406.1 358.24,-406.1"/>
</g>
<!-- Fallback &#160;&#160; -->
<g id="node14" class="node">
<title>Fallback &#160;&#160;</title>
<polygon fill="cyan" stroke="black" points="497.73,-370.54 497.73,-385.46 477.23,-396 448.24,-396 427.75,-385.46 427.75,-370.54 448.24,-360 477.23,-360 497.73,-370.54"/>
<text text-anchor="middle" x="462.74" y="-375.8" font-family="Times,serif" font-size="9.00">Fallback</text>
</g>
<!-- Sequence&#45;&gt;Fallback &#160;&#160; -->
<g id="edge13" class="edge">
<title>Sequence&#45;&gt;Fallback &#160;&#160;</title>
<path fill="none" stroke="black" d="M381.16,-431.88C396.86,-421.7 416.81,-408.77 433.06,-398.24"/>
<polygon fill="black" stroke="black" points="435.16,-401.04 441.65,-392.67 431.35,-395.17 435.16,-401.04"/>
</g>
<!-- GreenBox roughly at p1 in KittingBox? -->
<g id="node3" class="node">
<title>GreenBox roughly at p1 in KittingBox?</title>
<ellipse fill="lightgray" stroke="black" cx="113.74" cy="-306" rx="113.98" ry="18"/>
<text text-anchor="middle" x="113.74" y="-303.8" font-family="Times,serif" font-size="9.00">GreenBox roughly at p1 in KittingBox?</text>
</g>
<!-- Fallback&#45;&gt;GreenBox roughly at p1 in KittingBox? -->
<g id="edge2" class="edge">
<title>Fallback&#45;&gt;GreenBox roughly at p1 in KittingBox?</title>
<path fill="none" stroke="black" d="M222.96,-364.49C203.78,-354.39 176.39,-339.97 153.83,-328.1"/>
<polygon fill="black" stroke="black" points="155.3,-324.92 144.82,-323.36 152.04,-331.11 155.3,-324.92"/>
</g>
<!-- Sequence  -->
<g id="node4" class="node">
<title>Sequence </title>
<polygon fill="orange" stroke="black" points="307.74,-324 245.74,-324 245.74,-288 307.74,-288 307.74,-324"/>
<text text-anchor="middle" x="276.74" y="-303.8" font-family="Times,serif" font-size="9.00">Sequence</text>
</g>
<!-- Fallback&#45;&gt;Sequence  -->
<g id="edge3" class="edge">
<title>Fallback&#45;&gt;Sequence </title>
<path fill="none" stroke="black" d="M254.15,-359.7C257.53,-351.81 261.61,-342.3 265.36,-333.55"/>
<polygon fill="black" stroke="black" points="268.69,-334.67 269.41,-324.1 262.25,-331.92 268.69,-334.67"/>
</g>
<!-- Fallback  -->
<g id="node5" class="node">
<title>Fallback </title>
<polygon fill="cyan" stroke="black" points="232.73,-226.54 232.73,-241.46 212.23,-252 183.24,-252 162.75,-241.46 162.75,-226.54 183.24,-216 212.23,-216 232.73,-226.54"/>
<text text-anchor="middle" x="197.74" y="-231.8" font-family="Times,serif" font-size="9.00">Fallback</text>
</g>
<!-- Sequence &#45;&gt;Fallback  -->
<g id="edge4" class="edge">
<title>Sequence &#45;&gt;Fallback </title>
<path fill="none" stroke="black" d="M257.21,-287.7C246.91,-278.57 234.16,-267.28 223.11,-257.48"/>
<polygon fill="black" stroke="black" points="225.23,-254.68 215.42,-250.67 220.59,-259.92 225.23,-254.68"/>
</g>
<!-- Place GreenBox at p1 in KittingBox -->
<g id="node12" class="node">
<title>Place GreenBox at p1 in KittingBox</title>
<ellipse fill="lightgray" stroke="black" cx="355.74" cy="-234" rx="105.16" ry="18"/>
<text text-anchor="middle" x="355.74" y="-231.8" font-family="Times,serif" font-size="9.00">Place GreenBox at p1 in KittingBox</text>
</g>
<!-- Sequence &#45;&gt;Place GreenBox at p1 in KittingBox -->
<g id="edge11" class="edge">
<title>Sequence &#45;&gt;Place GreenBox at p1 in KittingBox</title>
<path fill="none" stroke="black" d="M296.27,-287.7C306.19,-278.9 318.4,-268.08 329.17,-258.54"/>
<polygon fill="black" stroke="black" points="331.54,-261.11 336.71,-251.86 326.9,-255.88 331.54,-261.11"/>
</g>
<!-- In gripper GreenBox? -->
<g id="node6" class="node">
<title>In gripper GreenBox?</title>
<ellipse fill="lightgray" stroke="black" cx="139.74" cy="-162" rx="68.25" ry="18"/>
<text text-anchor="middle" x="139.74" y="-159.8" font-family="Times,serif" font-size="9.00">In gripper GreenBox?</text>
</g>
<!-- Fallback &#45;&gt;In gripper GreenBox? -->
<g id="edge5" class="edge">
<title>Fallback &#45;&gt;In gripper GreenBox?</title>
<path fill="none" stroke="black" d="M183.4,-215.7C176.45,-207.3 167.97,-197.07 160.34,-187.86"/>
<polygon fill="black" stroke="black" points="162.99,-185.57 153.91,-180.1 157.6,-190.04 162.99,-185.57"/>
</g>
<!-- Sequence &#160; -->
<g id="node7" class="node">
<title>Sequence &#160;</title>
<polygon fill="orange" stroke="black" points="287.74,-180 225.74,-180 225.74,-144 287.74,-144 287.74,-180"/>
<text text-anchor="middle" x="256.74" y="-159.8" font-family="Times,serif" font-size="9.00">Sequence</text>
</g>
<!-- Fallback &#45;&gt;Sequence &#160; -->
<g id="edge6" class="edge">
<title>Fallback &#45;&gt;Sequence &#160;</title>
<path fill="none" stroke="black" d="M212.32,-215.7C219.4,-207.3 228.02,-197.07 235.78,-187.86"/>
<polygon fill="black" stroke="black" points="238.55,-190.01 242.32,-180.1 233.2,-185.49 238.55,-190.01"/>
</g>
<!-- Fallback &#160; -->
<g id="node8" class="node">
<title>Fallback &#160;</title>
<polygon fill="cyan" stroke="black" points="240.73,-82.54 240.73,-97.46 220.23,-108 191.24,-108 170.75,-97.46 170.75,-82.54 191.24,-72 220.23,-72 240.73,-82.54"/>
<text text-anchor="middle" x="205.74" y="-87.8" font-family="Times,serif" font-size="9.00">Fallback</text>
</g>
<!-- Sequence &#160;&#45;&gt;Fallback &#160; -->
<g id="edge7" class="edge">
<title>Sequence &#160;&#45;&gt;Fallback &#160;</title>
<path fill="none" stroke="black" d="M244.13,-143.7C238.14,-135.47 230.86,-125.48 224.26,-116.42"/>
<polygon fill="black" stroke="black" points="226.92,-114.13 218.2,-108.1 221.26,-118.25 226.92,-114.13"/>
</g>
<!-- Pick GreenBox -->
<g id="node11" class="node">
<title>Pick GreenBox</title>
<ellipse fill="lightgray" stroke="black" cx="307.74" cy="-90" rx="49.15" ry="18"/>
<text text-anchor="middle" x="307.74" y="-87.8" font-family="Times,serif" font-size="9.00">Pick GreenBox</text>
</g>
<!-- Sequence &#160;&#45;&gt;Pick GreenBox -->
<g id="edge10" class="edge">
<title>Sequence &#160;&#45;&gt;Pick GreenBox</title>
<path fill="none" stroke="black" d="M269.34,-143.7C275.49,-135.27 282.98,-124.97 289.72,-115.73"/>
<polygon fill="black" stroke="black" points="292.57,-117.77 295.63,-107.62 286.91,-113.64 292.57,-117.77"/>
</g>
<!-- Gripper open? -->
<g id="node9" class="node">
<title>Gripper open?</title>
<ellipse fill="lightgray" stroke="black" cx="145.74" cy="-18" rx="47.84" ry="18"/>
<text text-anchor="middle" x="145.74" y="-15.8" font-family="Times,serif" font-size="9.00">Gripper open?</text>
</g>
<!-- Fallback &#160;&#45;&gt;Gripper open? -->
<g id="edge8" class="edge">
<title>Fallback &#160;&#45;&gt;Gripper open?</title>
<path fill="none" stroke="black" d="M190.91,-71.7C183.61,-63.18 174.68,-52.76 166.69,-43.45"/>
<polygon fill="black" stroke="black" points="169.15,-40.94 159.99,-35.62 163.84,-45.49 169.15,-40.94"/>
</g>
<!-- Set gripper open -->
<g id="node10" class="node">
<title>Set gripper open</title>
<ellipse fill="lightgray" stroke="black" cx="266.74" cy="-18" rx="54.7" ry="18"/>
<text text-anchor="middle" x="266.74" y="-15.8" font-family="Times,serif" font-size="9.00">Set gripper open</text>
</g>
<!-- Fallback &#160;&#45;&gt;Set gripper open -->
<g id="edge9" class="edge">
<title>Fallback &#160;&#45;&gt;Set gripper open</title>
<path fill="none" stroke="black" d="M220.5,-72.05C228,-63.46 237.23,-52.86 245.48,-43.4"/>
<polygon fill="black" stroke="black" points="248.18,-45.63 252.11,-35.79 242.9,-41.03 248.18,-45.63"/>
</g>
<!-- Gripper open?  -->
<g id="node15" class="node">
<title>Gripper open? </title>
<ellipse fill="lightgray" stroke="black" cx="432.74" cy="-306" rx="47.84" ry="18"/>
<text text-anchor="middle" x="432.74" y="-303.8" font-family="Times,serif" font-size="9.00">Gripper open?</text>
</g>
<!-- Fallback &#160;&#160;&#45;&gt;Gripper open?  -->
<g id="edge14" class="edge">
<title>Fallback &#160;&#160;&#45;&gt;Gripper open? </title>
<path fill="none" stroke="black" d="M455.32,-359.7C451.94,-351.81 447.87,-342.3 444.12,-333.55"/>
<polygon fill="black" stroke="black" points="447.22,-331.92 440.07,-324.1 440.79,-334.67 447.22,-331.92"/>
</g>
<!-- Set gripper open  -->
<g id="node16" class="node">
<title>Set gripper open </title>
<ellipse fill="lightgray" stroke="black" cx="553.74" cy="-306" rx="54.7" ry="18"/>
<text text-anchor="middle" x="553.74" y="-303.8" font-family="Times,serif" font-size="9.00">Set gripper open</text>
</g>
<!-- Fallback &#160;&#160;&#45;&gt;Set gripper open  -->
<g id="edge15" class="edge">
<title>Fallback &#160;&#160;&#45;&gt;Set gripper open </title>
<path fill="none" stroke="black" d="M482.04,-362.15C494.6,-352.49 511.2,-339.72 525.26,-328.9"/>
<polygon fill="black" stroke="black" points="527.41,-331.67 533.2,-322.8 523.14,-326.12 527.41,-331.67"/>
</g>
</g>
</svg>
