<?xml version="1.0" encoding="UTF-8" standalone="no"?>
<!DOCTYPE svg PUBLIC "-//W3C//DTD SVG 1.1//EN"
 "http://www.w3.org/Graphics/SVG/1.1/DTD/svg11.dtd">
<!-- Generated by graphviz version 2.43.0 (0)
 -->
<!-- Title: pastafarianism Pages: 1 -->
<svg width="3521pt" height="729pt"
 viewBox="0.00 0.00 3520.99 729.48" xmlns="http://www.w3.org/2000/svg" xmlns:xlink="http://www.w3.org/1999/xlink">
<g id="graph0" class="graph" transform="scale(1 1) rotate(0) translate(4 725.48)">
<title>pastafarianism</title>
<polygon fill="white" stroke="transparent" points="-4,4 -4,-725.48 3516.99,-725.48 3516.99,4 -4,4"/>
<!-- selector:
 screw(left_hand, clampgripper, lampbulb, lampbase) -->
<g id="node1" class="node">
<title>selector:
 screw(left_hand, clampgripper, lampbulb, lampbase)</title>
<polygon fill="#8deeee" stroke="black" points="2221.45,-669.42 2221.45,-700.05 1997.18,-721.71 1680,-721.71 1455.72,-700.05 1455.72,-669.42 1680,-647.76 1997.18,-647.76 2221.45,-669.42"/>
<text text-anchor="middle" x="1838.59" y="-690.34" font-family="Times,serif" font-size="18.00">selector:</text>
<text text-anchor="middle" x="1838.59" y="-670.34" font-family="Times,serif" font-size="18.00"> screw(left_hand, clampgripper, lampbulb, lampbase)</text>
</g>
<!-- target:
 is_screwed_to(lampbulb, lampbase) -->
<g id="node2" class="node">
<title>target:
 is_screwed_to(lampbulb, lampbase)</title>
<ellipse fill="#ffec8b" stroke="black" cx="1589.59" cy="-576" rx="231.37" ry="36"/>
<text text-anchor="middle" x="1589.59" y="-581.6" font-family="Times,serif" font-size="18.00">target:</text>
<text text-anchor="middle" x="1589.59" y="-561.6" font-family="Times,serif" font-size="18.00"> is_screwed_to(lampbulb, lampbase)</text>
</g>
<!-- selector:
 screw(left_hand, clampgripper, lampbulb, lampbase)&#45;&gt;target:
 is_screwed_to(lampbulb, lampbase) -->
<g id="edge1" class="edge">
<title>selector:
 screw(left_hand, clampgripper, lampbulb, lampbase)&#45;&gt;target:
 is_screwed_to(lampbulb, lampbase)</title>
<path fill="none" stroke="black" d="M1754.98,-647.9C1729.56,-637 1701.59,-625.01 1675.99,-614.04"/>
<polygon fill="black" stroke="black" points="1677.25,-610.77 1666.68,-610.04 1674.49,-617.2 1677.25,-610.77"/>
</g>
<!-- sequence:
 screw(left_hand, clampgripper, lampbulb, lampbase) -->
<g id="node3" class="node">
<title>sequence:
 screw(left_hand, clampgripper, lampbulb, lampbase)</title>
<polygon fill="#ff7f24" stroke="black" points="2338.59,-612 1838.59,-612 1838.59,-540 2338.59,-540 2338.59,-612"/>
<text text-anchor="middle" x="2088.59" y="-581.6" font-family="Times,serif" font-size="18.00">sequence:</text>
<text text-anchor="middle" x="2088.59" y="-561.6" font-family="Times,serif" font-size="18.00"> screw(left_hand, clampgripper, lampbulb, lampbase)</text>
</g>
<!-- selector:
 screw(left_hand, clampgripper, lampbulb, lampbase)&#45;&gt;sequence:
 screw(left_hand, clampgripper, lampbulb, lampbase) -->
<g id="edge2" class="edge">
<title>selector:
 screw(left_hand, clampgripper, lampbulb, lampbase)&#45;&gt;sequence:
 screw(left_hand, clampgripper, lampbulb, lampbase)</title>
<path fill="none" stroke="black" d="M1922.53,-647.9C1946.55,-637.64 1972.85,-626.41 1997.3,-615.98"/>
<polygon fill="black" stroke="black" points="1998.74,-619.17 2006.56,-612.02 1995.99,-612.73 1998.74,-619.17"/>
</g>
<!-- selector:
 change_tool(left_hand, defaultgripper, clampgripper) -->
<g id="node4" class="node">
<title>selector:
 change_tool(left_hand, defaultgripper, clampgripper)</title>
<polygon fill="#8deeee" stroke="black" points="1691.08,-453.09 1691.08,-482.91 1477.57,-504 1175.61,-504 962.09,-482.91 962.09,-453.09 1175.61,-432 1477.57,-432 1691.08,-453.09"/>
<text text-anchor="middle" x="1326.59" y="-473.6" font-family="Times,serif" font-size="18.00">selector:</text>
<text text-anchor="middle" x="1326.59" y="-453.6" font-family="Times,serif" font-size="18.00"> change_tool(left_hand, defaultgripper, clampgripper)</text>
</g>
<!-- sequence:
 screw(left_hand, clampgripper, lampbulb, lampbase)&#45;&gt;selector:
 change_tool(left_hand, defaultgripper, clampgripper) -->
<g id="edge3" class="edge">
<title>sequence:
 screw(left_hand, clampgripper, lampbulb, lampbase)&#45;&gt;selector:
 change_tool(left_hand, defaultgripper, clampgripper)</title>
<path fill="none" stroke="black" d="M1838.55,-540.22C1744.25,-527.1 1637.76,-512.29 1546.42,-499.58"/>
<polygon fill="black" stroke="black" points="1546.89,-496.11 1536.5,-498.2 1545.92,-503.04 1546.89,-496.11"/>
</g>
<!-- selector:
 pick_up(left_hand, clampgripper, lampbulb) -->
<g id="node16" class="node">
<title>selector:
 pick_up(left_hand, clampgripper, lampbulb)</title>
<polygon fill="#8deeee" stroke="black" points="2392.1,-453.09 2392.1,-482.91 2214.31,-504 1962.87,-504 1785.08,-482.91 1785.08,-453.09 1962.87,-432 2214.31,-432 2392.1,-453.09"/>
<text text-anchor="middle" x="2088.59" y="-473.6" font-family="Times,serif" font-size="18.00">selector:</text>
<text text-anchor="middle" x="2088.59" y="-453.6" font-family="Times,serif" font-size="18.00"> pick_up(left_hand, clampgripper, lampbulb)</text>
</g>
<!-- sequence:
 screw(left_hand, clampgripper, lampbulb, lampbase)&#45;&gt;selector:
 pick_up(left_hand, clampgripper, lampbulb) -->
<g id="edge15" class="edge">
<title>sequence:
 screw(left_hand, clampgripper, lampbulb, lampbase)&#45;&gt;selector:
 pick_up(left_hand, clampgripper, lampbulb)</title>
<path fill="none" stroke="black" d="M2088.59,-540C2088.59,-531.85 2088.59,-523.06 2088.59,-514.54"/>
<polygon fill="black" stroke="black" points="2092.09,-514.33 2088.59,-504.33 2085.09,-514.33 2092.09,-514.33"/>
</g>
<!-- action:
 screw(left_hand, clampgripper, lampbulb, lampbase) -->
<g id="node22" class="node">
<title>action:
 screw(left_hand, clampgripper, lampbulb, lampbase)</title>
<ellipse fill="lightgreen" stroke="black" cx="2745.59" cy="-468" rx="335.32" ry="36"/>
<text text-anchor="middle" x="2745.59" y="-473.6" font-family="Times,serif" font-size="18.00">action:</text>
<text text-anchor="middle" x="2745.59" y="-453.6" font-family="Times,serif" font-size="18.00"> screw(left_hand, clampgripper, lampbulb, lampbase)</text>
</g>
<!-- sequence:
 screw(left_hand, clampgripper, lampbulb, lampbase)&#45;&gt;action:
 screw(left_hand, clampgripper, lampbulb, lampbase) -->
<g id="edge21" class="edge">
<title>sequence:
 screw(left_hand, clampgripper, lampbulb, lampbase)&#45;&gt;action:
 screw(left_hand, clampgripper, lampbulb, lampbase)</title>
<path fill="none" stroke="black" d="M2305.53,-540C2385.83,-527.04 2476.2,-512.46 2554.07,-499.9"/>
<polygon fill="black" stroke="black" points="2554.68,-503.35 2563.99,-498.3 2553.56,-496.44 2554.68,-503.35"/>
</g>
<!-- target:
 hold(left_hand, clampgripper) -->
<g id="node5" class="node">
<title>target:
 hold(left_hand, clampgripper)</title>
<ellipse fill="#ffec8b" stroke="black" cx="860.59" cy="-360" rx="196.6" ry="36"/>
<text text-anchor="middle" x="860.59" y="-365.6" font-family="Times,serif" font-size="18.00">target:</text>
<text text-anchor="middle" x="860.59" y="-345.6" font-family="Times,serif" font-size="18.00"> hold(left_hand, clampgripper)</text>
</g>
<!-- selector:
 change_tool(left_hand, defaultgripper, clampgripper)&#45;&gt;target:
 hold(left_hand, clampgripper) -->
<g id="edge4" class="edge">
<title>selector:
 change_tool(left_hand, defaultgripper, clampgripper)&#45;&gt;target:
 hold(left_hand, clampgripper)</title>
<path fill="none" stroke="black" d="M1173.36,-432.14C1114.55,-418.77 1048.03,-403.64 991.5,-390.78"/>
<polygon fill="black" stroke="black" points="991.96,-387.29 981.43,-388.49 990.41,-394.12 991.96,-387.29"/>
</g>
<!-- sequence:
 change_tool(left_hand, defaultgripper, clampgripper) -->
<g id="node6" class="node">
<title>sequence:
 change_tool(left_hand, defaultgripper, clampgripper)</title>
<polygon fill="#ff7f24" stroke="black" points="1577.59,-396 1075.59,-396 1075.59,-324 1577.59,-324 1577.59,-396"/>
<text text-anchor="middle" x="1326.59" y="-365.6" font-family="Times,serif" font-size="18.00">sequence:</text>
<text text-anchor="middle" x="1326.59" y="-345.6" font-family="Times,serif" font-size="18.00"> change_tool(left_hand, defaultgripper, clampgripper)</text>
</g>
<!-- selector:
 change_tool(left_hand, defaultgripper, clampgripper)&#45;&gt;sequence:
 change_tool(left_hand, defaultgripper, clampgripper) -->
<g id="edge5" class="edge">
<title>selector:
 change_tool(left_hand, defaultgripper, clampgripper)&#45;&gt;sequence:
 change_tool(left_hand, defaultgripper, clampgripper)</title>
<path fill="none" stroke="black" d="M1326.59,-432C1326.59,-423.85 1326.59,-415.06 1326.59,-406.54"/>
<polygon fill="black" stroke="black" points="1330.09,-406.33 1326.59,-396.33 1323.09,-406.33 1330.09,-406.33"/>
</g>
<!-- selector:
 put_down(left_hand, defaultgripper, cube) -->
<g id="node7" class="node">
<title>selector:
 put_down(left_hand, defaultgripper, cube)</title>
<polygon fill="#8deeee" stroke="black" points="696.32,-237.09 696.32,-266.91 524.84,-288 282.34,-288 110.86,-266.91 110.86,-237.09 282.34,-216 524.84,-216 696.32,-237.09"/>
<text text-anchor="middle" x="403.59" y="-257.6" font-family="Times,serif" font-size="18.00">selector:</text>
<text text-anchor="middle" x="403.59" y="-237.6" font-family="Times,serif" font-size="18.00"> put_down(left_hand, defaultgripper, cube)</text>
</g>
<!-- sequence:
 change_tool(left_hand, defaultgripper, clampgripper)&#45;&gt;selector:
 put_down(left_hand, defaultgripper, cube) -->
<g id="edge6" class="edge">
<title>sequence:
 change_tool(left_hand, defaultgripper, clampgripper)&#45;&gt;selector:
 put_down(left_hand, defaultgripper, cube)</title>
<path fill="none" stroke="black" d="M1075.46,-325.05C1072.49,-324.69 1069.53,-324.34 1066.59,-324 906.44,-305.24 865.9,-305.28 705.59,-288 678.24,-285.05 649.52,-281.85 621.11,-278.63"/>
<polygon fill="black" stroke="black" points="621.41,-275.14 611.08,-277.49 620.62,-282.1 621.41,-275.14"/>
</g>
<!-- &quot;precondition:\n hold(left_hand, defaultgripper)&quot;* -->
<g id="node13" class="node">
<title>&quot;precondition:\n hold(left_hand, defaultgripper)&quot;*</title>
<ellipse fill="#ffec8b" stroke="black" cx="928.59" cy="-252" rx="213.98" ry="36"/>
<text text-anchor="middle" x="928.59" y="-257.6" font-family="Times,serif" font-size="18.00">&quot;precondition:</text>
<text text-anchor="middle" x="928.59" y="-237.6" font-family="Times,serif" font-size="18.00"> hold(left_hand, defaultgripper)&quot;*</text>
</g>
<!-- sequence:
 change_tool(left_hand, defaultgripper, clampgripper)&#45;&gt;&quot;precondition:\n hold(left_hand, defaultgripper)&quot;* -->
<g id="edge12" class="edge">
<title>sequence:
 change_tool(left_hand, defaultgripper, clampgripper)&#45;&gt;&quot;precondition:\n hold(left_hand, defaultgripper)&quot;*</title>
<path fill="none" stroke="black" d="M1195.16,-324C1148.34,-311.53 1095.86,-297.55 1049.92,-285.31"/>
<polygon fill="black" stroke="black" points="1050.79,-281.92 1040.22,-282.73 1048.98,-288.69 1050.79,-281.92"/>
</g>
<!-- precondition:
 is_empty(defaultgripper) -->
<g id="node14" class="node">
<title>precondition:
 is_empty(defaultgripper)</title>
<ellipse fill="#ffec8b" stroke="black" cx="1326.59" cy="-252" rx="166.23" ry="36"/>
<text text-anchor="middle" x="1326.59" y="-257.6" font-family="Times,serif" font-size="18.00">precondition:</text>
<text text-anchor="middle" x="1326.59" y="-237.6" font-family="Times,serif" font-size="18.00"> is_empty(defaultgripper)</text>
</g>
<!-- sequence:
 change_tool(left_hand, defaultgripper, clampgripper)&#45;&gt;precondition:
 is_empty(defaultgripper) -->
<g id="edge13" class="edge">
<title>sequence:
 change_tool(left_hand, defaultgripper, clampgripper)&#45;&gt;precondition:
 is_empty(defaultgripper)</title>
<path fill="none" stroke="black" d="M1326.59,-324C1326.59,-315.85 1326.59,-307.06 1326.59,-298.54"/>
<polygon fill="black" stroke="black" points="1330.09,-298.33 1326.59,-288.33 1323.09,-298.33 1330.09,-298.33"/>
</g>
<!-- action:
 change_tool(left_hand, defaultgripper, clampgripper) -->
<g id="node15" class="node">
<title>action:
 change_tool(left_hand, defaultgripper, clampgripper)</title>
<ellipse fill="lightgreen" stroke="black" cx="1847.59" cy="-252" rx="336.5" ry="36"/>
<text text-anchor="middle" x="1847.59" y="-257.6" font-family="Times,serif" font-size="18.00">action:</text>
<text text-anchor="middle" x="1847.59" y="-237.6" font-family="Times,serif" font-size="18.00"> change_tool(left_hand, defaultgripper, clampgripper)</text>
</g>
<!-- sequence:
 change_tool(left_hand, defaultgripper, clampgripper)&#45;&gt;action:
 change_tool(left_hand, defaultgripper, clampgripper) -->
<g id="edge14" class="edge">
<title>sequence:
 change_tool(left_hand, defaultgripper, clampgripper)&#45;&gt;action:
 change_tool(left_hand, defaultgripper, clampgripper)</title>
<path fill="none" stroke="black" d="M1498.63,-324C1558.57,-311.8 1625.61,-298.16 1684.78,-286.12"/>
<polygon fill="black" stroke="black" points="1685.48,-289.55 1694.58,-284.13 1684.09,-282.69 1685.48,-289.55"/>
</g>
<!-- target:
 is_empty(defaultgripper) -->
<g id="node8" class="node">
<title>target:
 is_empty(defaultgripper)</title>
<ellipse fill="#ffec8b" stroke="black" cx="210.59" cy="-144" rx="166.23" ry="36"/>
<text text-anchor="middle" x="210.59" y="-149.6" font-family="Times,serif" font-size="18.00">target:</text>
<text text-anchor="middle" x="210.59" y="-129.6" font-family="Times,serif" font-size="18.00"> is_empty(defaultgripper)</text>
</g>
<!-- selector:
 put_down(left_hand, defaultgripper, cube)&#45;&gt;target:
 is_empty(defaultgripper) -->
<g id="edge7" class="edge">
<title>selector:
 put_down(left_hand, defaultgripper, cube)&#45;&gt;target:
 is_empty(defaultgripper)</title>
<path fill="none" stroke="black" d="M339.86,-216C320.34,-205.28 298.79,-193.44 278.97,-182.56"/>
<polygon fill="black" stroke="black" points="280.45,-179.38 270,-177.63 277.08,-185.51 280.45,-179.38"/>
</g>
<!-- sequence:
 put_down(left_hand, defaultgripper, cube) -->
<g id="node9" class="node">
<title>sequence:
 put_down(left_hand, defaultgripper, cube)</title>
<polygon fill="#ff7f24" stroke="black" points="798.09,-180 395.09,-180 395.09,-108 798.09,-108 798.09,-180"/>
<text text-anchor="middle" x="596.59" y="-149.6" font-family="Times,serif" font-size="18.00">sequence:</text>
<text text-anchor="middle" x="596.59" y="-129.6" font-family="Times,serif" font-size="18.00"> put_down(left_hand, defaultgripper, cube)</text>
</g>
<!-- selector:
 put_down(left_hand, defaultgripper, cube)&#45;&gt;sequence:
 put_down(left_hand, defaultgripper, cube) -->
<g id="edge8" class="edge">
<title>selector:
 put_down(left_hand, defaultgripper, cube)&#45;&gt;sequence:
 put_down(left_hand, defaultgripper, cube)</title>
<path fill="none" stroke="black" d="M467.32,-216C485.34,-206.1 505.09,-195.25 523.61,-185.08"/>
<polygon fill="black" stroke="black" points="525.51,-188.03 532.59,-180.15 522.14,-181.89 525.51,-188.03"/>
</g>
<!-- precondition:
 hold(left_hand, defaultgripper) -->
<g id="node10" class="node">
<title>precondition:
 hold(left_hand, defaultgripper)</title>
<ellipse fill="#ffec8b" stroke="black" cx="202.59" cy="-36" rx="202.68" ry="36"/>
<text text-anchor="middle" x="202.59" y="-41.6" font-family="Times,serif" font-size="18.00">precondition:</text>
<text text-anchor="middle" x="202.59" y="-21.6" font-family="Times,serif" font-size="18.00"> hold(left_hand, defaultgripper)</text>
</g>
<!-- sequence:
 put_down(left_hand, defaultgripper, cube)&#45;&gt;precondition:
 hold(left_hand, defaultgripper) -->
<g id="edge9" class="edge">
<title>sequence:
 put_down(left_hand, defaultgripper, cube)&#45;&gt;precondition:
 hold(left_hand, defaultgripper)</title>
<path fill="none" stroke="black" d="M466.49,-108C419.72,-95.42 367.24,-81.3 321.47,-68.98"/>
<polygon fill="black" stroke="black" points="322.38,-65.6 311.81,-66.38 320.56,-72.36 322.38,-65.6"/>
</g>
<!-- precondition:
 hold(defaultgripper, cube) -->
<g id="node11" class="node">
<title>precondition:
 hold(defaultgripper, cube)</title>
<ellipse fill="#ffec8b" stroke="black" cx="596.59" cy="-36" rx="173.14" ry="36"/>
<text text-anchor="middle" x="596.59" y="-41.6" font-family="Times,serif" font-size="18.00">precondition:</text>
<text text-anchor="middle" x="596.59" y="-21.6" font-family="Times,serif" font-size="18.00"> hold(defaultgripper, cube)</text>
</g>
<!-- sequence:
 put_down(left_hand, defaultgripper, cube)&#45;&gt;precondition:
 hold(defaultgripper, cube) -->
<g id="edge10" class="edge">
<title>sequence:
 put_down(left_hand, defaultgripper, cube)&#45;&gt;precondition:
 hold(defaultgripper, cube)</title>
<path fill="none" stroke="black" d="M596.59,-108C596.59,-99.85 596.59,-91.06 596.59,-82.54"/>
<polygon fill="black" stroke="black" points="600.09,-82.33 596.59,-72.33 593.09,-82.33 600.09,-82.33"/>
</g>
<!-- action:
 put_down(left_hand, defaultgripper, cube) -->
<g id="node12" class="node">
<title>action:
 put_down(left_hand, defaultgripper, cube)</title>
<ellipse fill="lightgreen" stroke="black" cx="1057.59" cy="-36" rx="270.18" ry="36"/>
<text text-anchor="middle" x="1057.59" y="-41.6" font-family="Times,serif" font-size="18.00">action:</text>
<text text-anchor="middle" x="1057.59" y="-21.6" font-family="Times,serif" font-size="18.00"> put_down(left_hand, defaultgripper, cube)</text>
</g>
<!-- sequence:
 put_down(left_hand, defaultgripper, cube)&#45;&gt;action:
 put_down(left_hand, defaultgripper, cube) -->
<g id="edge11" class="edge">
<title>sequence:
 put_down(left_hand, defaultgripper, cube)&#45;&gt;action:
 put_down(left_hand, defaultgripper, cube)</title>
<path fill="none" stroke="black" d="M748.81,-108C802.51,-95.65 862.65,-81.82 915.48,-69.68"/>
<polygon fill="black" stroke="black" points="916.29,-73.08 925.25,-67.43 914.72,-66.26 916.29,-73.08"/>
</g>
<!-- target:
 hold(clampgripper, lampbulb) -->
<g id="node17" class="node">
<title>target:
 hold(clampgripper, lampbulb)</title>
<ellipse fill="#ffec8b" stroke="black" cx="2088.59" cy="-360" rx="195.42" ry="36"/>
<text text-anchor="middle" x="2088.59" y="-365.6" font-family="Times,serif" font-size="18.00">target:</text>
<text text-anchor="middle" x="2088.59" y="-345.6" font-family="Times,serif" font-size="18.00"> hold(clampgripper, lampbulb)</text>
</g>
<!-- selector:
 pick_up(left_hand, clampgripper, lampbulb)&#45;&gt;target:
 hold(clampgripper, lampbulb) -->
<g id="edge16" class="edge">
<title>selector:
 pick_up(left_hand, clampgripper, lampbulb)&#45;&gt;target:
 hold(clampgripper, lampbulb)</title>
<path fill="none" stroke="black" d="M2088.59,-432C2088.59,-423.85 2088.59,-415.06 2088.59,-406.54"/>
<polygon fill="black" stroke="black" points="2092.09,-406.33 2088.59,-396.33 2085.09,-406.33 2092.09,-406.33"/>
</g>
<!-- sequence:
 pick_up(left_hand, clampgripper, lampbulb) -->
<g id="node18" class="node">
<title>sequence:
 pick_up(left_hand, clampgripper, lampbulb)</title>
<polygon fill="#ff7f24" stroke="black" points="2870.59,-396 2452.59,-396 2452.59,-324 2870.59,-324 2870.59,-396"/>
<text text-anchor="middle" x="2661.59" y="-365.6" font-family="Times,serif" font-size="18.00">sequence:</text>
<text text-anchor="middle" x="2661.59" y="-345.6" font-family="Times,serif" font-size="18.00"> pick_up(left_hand, clampgripper, lampbulb)</text>
</g>
<!-- selector:
 pick_up(left_hand, clampgripper, lampbulb)&#45;&gt;sequence:
 pick_up(left_hand, clampgripper, lampbulb) -->
<g id="edge17" class="edge">
<title>selector:
 pick_up(left_hand, clampgripper, lampbulb)&#45;&gt;sequence:
 pick_up(left_hand, clampgripper, lampbulb)</title>
<path fill="none" stroke="black" d="M2253.17,-436.55C2318.41,-424.49 2394.01,-410.5 2462.31,-397.86"/>
<polygon fill="black" stroke="black" points="2463.14,-401.27 2472.33,-396.01 2461.86,-394.39 2463.14,-401.27"/>
</g>
<!-- precondition:
 is_empty(clampgripper) -->
<g id="node19" class="node">
<title>precondition:
 is_empty(clampgripper)</title>
<ellipse fill="#ffec8b" stroke="black" cx="2362.59" cy="-252" rx="160.15" ry="36"/>
<text text-anchor="middle" x="2362.59" y="-257.6" font-family="Times,serif" font-size="18.00">precondition:</text>
<text text-anchor="middle" x="2362.59" y="-237.6" font-family="Times,serif" font-size="18.00"> is_empty(clampgripper)</text>
</g>
<!-- sequence:
 pick_up(left_hand, clampgripper, lampbulb)&#45;&gt;precondition:
 is_empty(clampgripper) -->
<g id="edge18" class="edge">
<title>sequence:
 pick_up(left_hand, clampgripper, lampbulb)&#45;&gt;precondition:
 is_empty(clampgripper)</title>
<path fill="none" stroke="black" d="M2562.86,-324C2528.49,-311.82 2490.07,-298.19 2456.14,-286.17"/>
<polygon fill="black" stroke="black" points="2457.29,-282.86 2446.7,-282.82 2454.95,-289.46 2457.29,-282.86"/>
</g>
<!-- precondition:
 hold(left_hand, clampgripper) -->
<g id="node20" class="node">
<title>precondition:
 hold(left_hand, clampgripper)</title>
<ellipse fill="#ffec8b" stroke="black" cx="2737.59" cy="-252" rx="196.6" ry="36"/>
<text text-anchor="middle" x="2737.59" y="-257.6" font-family="Times,serif" font-size="18.00">precondition:</text>
<text text-anchor="middle" x="2737.59" y="-237.6" font-family="Times,serif" font-size="18.00"> hold(left_hand, clampgripper)</text>
</g>
<!-- sequence:
 pick_up(left_hand, clampgripper, lampbulb)&#45;&gt;precondition:
 hold(left_hand, clampgripper) -->
<g id="edge19" class="edge">
<title>sequence:
 pick_up(left_hand, clampgripper, lampbulb)&#45;&gt;precondition:
 hold(left_hand, clampgripper)</title>
<path fill="none" stroke="black" d="M2686.68,-324C2693.04,-315.13 2699.94,-305.51 2706.55,-296.29"/>
<polygon fill="black" stroke="black" points="2709.54,-298.13 2712.52,-287.97 2703.85,-294.05 2709.54,-298.13"/>
</g>
<!-- action:
 pick_up(left_hand, clampgripper, lampbulb) -->
<g id="node21" class="node">
<title>action:
 pick_up(left_hand, clampgripper, lampbulb)</title>
<ellipse fill="lightgreen" stroke="black" cx="3232.59" cy="-252" rx="280.31" ry="36"/>
<text text-anchor="middle" x="3232.59" y="-257.6" font-family="Times,serif" font-size="18.00">action:</text>
<text text-anchor="middle" x="3232.59" y="-237.6" font-family="Times,serif" font-size="18.00"> pick_up(left_hand, clampgripper, lampbulb)</text>
</g>
<!-- sequence:
 pick_up(left_hand, clampgripper, lampbulb)&#45;&gt;action:
 pick_up(left_hand, clampgripper, lampbulb) -->
<g id="edge20" class="edge">
<title>sequence:
 pick_up(left_hand, clampgripper, lampbulb)&#45;&gt;action:
 pick_up(left_hand, clampgripper, lampbulb)</title>
<path fill="none" stroke="black" d="M2850.14,-324C2920.11,-311.01 2998.9,-296.38 3066.7,-283.79"/>
<polygon fill="black" stroke="black" points="3067.43,-287.22 3076.62,-281.95 3066.15,-280.34 3067.43,-287.22"/>
</g>
</g>
</svg>
