<?xml version="1.0" encoding="UTF-8" standalone="no"?>
<!DOCTYPE svg PUBLIC "-//W3C//DTD SVG 1.1//EN"
 "http://www.w3.org/Graphics/SVG/1.1/DTD/svg11.dtd">
<!-- Generated by graphviz version 2.43.0 (0)
 -->
<!-- Title: pastafarianism Pages: 1 -->
<svg width="3709pt" height="716pt"
 viewBox="0.00 0.00 3709.12 715.95" xmlns="http://www.w3.org/2000/svg" xmlns:xlink="http://www.w3.org/1999/xlink">
<g id="graph0" class="graph" transform="scale(1 1) rotate(0) translate(4 711.95)">
<title>pastafarianism</title>
<polygon fill="white" stroke="transparent" points="-4,4 -4,-711.95 3705.12,-711.95 3705.12,4 -4,4"/>
<!-- selector:
 screw(lampbulb, lampbase, clampgripper, left_hand) -->
<g id="node1" class="node">
<title>selector:
 screw(lampbulb, lampbase, clampgripper, left_hand)</title>
<polygon fill="#8deeee" stroke="black" points="2331.41,-655.9 2331.41,-686.53 2107.13,-708.19 1789.96,-708.19 1565.68,-686.53 1565.68,-655.9 1789.96,-634.24 2107.13,-634.24 2331.41,-655.9"/>
<text text-anchor="middle" x="1948.55" y="-676.82" font-family="Times,serif" font-size="18.00">selector:</text>
<text text-anchor="middle" x="1948.55" y="-656.82" font-family="Times,serif" font-size="18.00"> screw(lampbulb, lampbase, clampgripper, left_hand)</text>
</g>
<!-- target:
 is_screwed_to(lampbulb, lampbase) -->
<g id="node2" class="node">
<title>target:
 is_screwed_to(lampbulb, lampbase)</title>
<ellipse fill="#ffec8b" stroke="black" cx="1692.55" cy="-564.54" rx="243.9" ry="33.88"/>
<text text-anchor="middle" x="1692.55" y="-570.14" font-family="Times,serif" font-size="18.00">target:</text>
<text text-anchor="middle" x="1692.55" y="-550.14" font-family="Times,serif" font-size="18.00"> is_screwed_to(lampbulb, lampbase)</text>
</g>
<!-- selector:
 screw(lampbulb, lampbase, clampgripper, left_hand)&#45;&gt;target:
 is_screwed_to(lampbulb, lampbase) -->
<g id="edge1" class="edge">
<title>selector:
 screw(lampbulb, lampbase, clampgripper, left_hand)&#45;&gt;target:
 is_screwed_to(lampbulb, lampbase)</title>
<path fill="none" stroke="black" d="M1860.8,-634.34C1834.13,-623.43 1804.86,-611.47 1778.32,-600.61"/>
<polygon fill="black" stroke="black" points="1779.64,-597.37 1769.06,-596.82 1776.99,-603.85 1779.64,-597.37"/>
</g>
<!-- sequence:
 screw(lampbulb, lampbase, clampgripper, left_hand) -->
<g id="node3" class="node">
<title>sequence:
 screw(lampbulb, lampbase, clampgripper, left_hand)</title>
<polygon fill="#ff7f24" stroke="black" points="2454.55,-588.54 1954.55,-588.54 1954.55,-540.54 2454.55,-540.54 2454.55,-588.54"/>
<text text-anchor="middle" x="2204.55" y="-570.14" font-family="Times,serif" font-size="18.00">sequence:</text>
<text text-anchor="middle" x="2204.55" y="-550.14" font-family="Times,serif" font-size="18.00"> screw(lampbulb, lampbase, clampgripper, left_hand)</text>
</g>
<!-- selector:
 screw(lampbulb, lampbase, clampgripper, left_hand)&#45;&gt;sequence:
 screw(lampbulb, lampbase, clampgripper, left_hand) -->
<g id="edge2" class="edge">
<title>selector:
 screw(lampbulb, lampbase, clampgripper, left_hand)&#45;&gt;sequence:
 screw(lampbulb, lampbase, clampgripper, left_hand)</title>
<path fill="none" stroke="black" d="M2036.29,-634.34C2069.87,-620.61 2107.56,-605.19 2138.75,-592.44"/>
<polygon fill="black" stroke="black" points="2140.28,-595.6 2148.21,-588.58 2137.63,-589.12 2140.28,-595.6"/>
</g>
<!-- selector:
 change_tool(left_hand, defaultgripper, clampgripper) -->
<g id="node4" class="node">
<title>selector:
 change_tool(left_hand, defaultgripper, clampgripper)</title>
<polygon fill="#8deeee" stroke="black" points="1784.97,-442.54 1784.97,-473.18 1559.78,-494.84 1241.31,-494.84 1016.12,-473.18 1016.12,-442.54 1241.31,-420.88 1559.78,-420.88 1784.97,-442.54"/>
<text text-anchor="middle" x="1400.55" y="-463.46" font-family="Times,serif" font-size="18.00">selector:</text>
<text text-anchor="middle" x="1400.55" y="-443.46" font-family="Times,serif" font-size="18.00"> change_tool(left_hand, defaultgripper, clampgripper)</text>
</g>
<!-- sequence:
 screw(lampbulb, lampbase, clampgripper, left_hand)&#45;&gt;selector:
 change_tool(left_hand, defaultgripper, clampgripper) -->
<g id="edge3" class="edge">
<title>sequence:
 screw(lampbulb, lampbase, clampgripper, left_hand)&#45;&gt;selector:
 change_tool(left_hand, defaultgripper, clampgripper)</title>
<path fill="none" stroke="black" d="M2027.61,-540.5C1912.93,-525.57 1762.2,-505.95 1637.26,-489.68"/>
<polygon fill="black" stroke="black" points="1637.54,-486.19 1627.17,-488.37 1636.64,-493.13 1637.54,-486.19"/>
</g>
<!-- selector:
 pick_up(left_hand, clampgripper, lampbulb) -->
<g id="node16" class="node">
<title>selector:
 pick_up(left_hand, clampgripper, lampbulb)</title>
<polygon fill="#8deeee" stroke="black" points="2524.39,-442.54 2524.39,-473.18 2337.03,-494.84 2072.06,-494.84 1884.7,-473.18 1884.7,-442.54 2072.06,-420.88 2337.03,-420.88 2524.39,-442.54"/>
<text text-anchor="middle" x="2204.55" y="-463.46" font-family="Times,serif" font-size="18.00">selector:</text>
<text text-anchor="middle" x="2204.55" y="-443.46" font-family="Times,serif" font-size="18.00"> pick_up(left_hand, clampgripper, lampbulb)</text>
</g>
<!-- sequence:
 screw(lampbulb, lampbase, clampgripper, left_hand)&#45;&gt;selector:
 pick_up(left_hand, clampgripper, lampbulb) -->
<g id="edge15" class="edge">
<title>sequence:
 screw(lampbulb, lampbase, clampgripper, left_hand)&#45;&gt;selector:
 pick_up(left_hand, clampgripper, lampbulb)</title>
<path fill="none" stroke="black" d="M2204.55,-540.31C2204.55,-529.86 2204.55,-517.15 2204.55,-504.9"/>
<polygon fill="black" stroke="black" points="2208.05,-504.78 2204.55,-494.78 2201.05,-504.78 2208.05,-504.78"/>
</g>
<!-- action:
 screw(left_hand, clampgripper, lampbulb, lampbase) -->
<g id="node22" class="node">
<title>action:
 screw(left_hand, clampgripper, lampbulb, lampbase)</title>
<ellipse fill="lightgreen" stroke="black" cx="2895.55" cy="-457.86" rx="353.61" ry="33.88"/>
<text text-anchor="middle" x="2895.55" y="-463.46" font-family="Times,serif" font-size="18.00">action:</text>
<text text-anchor="middle" x="2895.55" y="-443.46" font-family="Times,serif" font-size="18.00"> screw(left_hand, clampgripper, lampbulb, lampbase)</text>
</g>
<!-- sequence:
 screw(lampbulb, lampbase, clampgripper, left_hand)&#45;&gt;action:
 screw(left_hand, clampgripper, lampbulb, lampbase) -->
<g id="edge21" class="edge">
<title>sequence:
 screw(lampbulb, lampbase, clampgripper, left_hand)&#45;&gt;action:
 screw(left_hand, clampgripper, lampbulb, lampbase)</title>
<path fill="none" stroke="black" d="M2356.62,-540.5C2457.86,-525.16 2591.81,-504.87 2700.83,-488.36"/>
<polygon fill="black" stroke="black" points="2701.6,-491.78 2710.97,-486.82 2700.56,-484.86 2701.6,-491.78"/>
</g>
<!-- target:
 hold(left_hand, clampgripper) -->
<g id="node5" class="node">
<title>target:
 hold(left_hand, clampgripper)</title>
<ellipse fill="#ffec8b" stroke="black" cx="924.55" cy="-351.18" rx="207.36" ry="33.88"/>
<text text-anchor="middle" x="924.55" y="-356.78" font-family="Times,serif" font-size="18.00">target:</text>
<text text-anchor="middle" x="924.55" y="-336.78" font-family="Times,serif" font-size="18.00"> hold(left_hand, clampgripper)</text>
</g>
<!-- selector:
 change_tool(left_hand, defaultgripper, clampgripper)&#45;&gt;target:
 hold(left_hand, clampgripper) -->
<g id="edge4" class="edge">
<title>selector:
 change_tool(left_hand, defaultgripper, clampgripper)&#45;&gt;target:
 hold(left_hand, clampgripper)</title>
<path fill="none" stroke="black" d="M1238.07,-421.13C1178.61,-408.05 1112.15,-393.44 1055.77,-381.04"/>
<polygon fill="black" stroke="black" points="1056.24,-377.56 1045.72,-378.83 1054.74,-384.4 1056.24,-377.56"/>
</g>
<!-- sequence:
 change_tool(left_hand, defaultgripper, clampgripper) -->
<g id="node6" class="node">
<title>sequence:
 change_tool(left_hand, defaultgripper, clampgripper)</title>
<polygon fill="#ff7f24" stroke="black" points="1651.55,-375.18 1149.55,-375.18 1149.55,-327.18 1651.55,-327.18 1651.55,-375.18"/>
<text text-anchor="middle" x="1400.55" y="-356.78" font-family="Times,serif" font-size="18.00">sequence:</text>
<text text-anchor="middle" x="1400.55" y="-336.78" font-family="Times,serif" font-size="18.00"> change_tool(left_hand, defaultgripper, clampgripper)</text>
</g>
<!-- selector:
 change_tool(left_hand, defaultgripper, clampgripper)&#45;&gt;sequence:
 change_tool(left_hand, defaultgripper, clampgripper) -->
<g id="edge5" class="edge">
<title>selector:
 change_tool(left_hand, defaultgripper, clampgripper)&#45;&gt;sequence:
 change_tool(left_hand, defaultgripper, clampgripper)</title>
<path fill="none" stroke="black" d="M1400.55,-420.84C1400.55,-409.45 1400.55,-396.92 1400.55,-385.72"/>
<polygon fill="black" stroke="black" points="1404.05,-385.47 1400.55,-375.47 1397.05,-385.47 1404.05,-385.47"/>
</g>
<!-- selector:
 put_down(left_hand, defaultgripper, cube) -->
<g id="node7" class="node">
<title>selector:
 put_down(left_hand, defaultgripper, cube)</title>
<polygon fill="#8deeee" stroke="black" points="737.93,-229.19 737.93,-259.82 557.28,-281.48 301.81,-281.48 121.16,-259.82 121.16,-229.19 301.81,-207.53 557.28,-207.53 737.93,-229.19"/>
<text text-anchor="middle" x="429.55" y="-250.1" font-family="Times,serif" font-size="18.00">selector:</text>
<text text-anchor="middle" x="429.55" y="-230.1" font-family="Times,serif" font-size="18.00"> put_down(left_hand, defaultgripper, cube)</text>
</g>
<!-- sequence:
 change_tool(left_hand, defaultgripper, clampgripper)&#45;&gt;selector:
 put_down(left_hand, defaultgripper, cube) -->
<g id="edge6" class="edge">
<title>sequence:
 change_tool(left_hand, defaultgripper, clampgripper)&#45;&gt;selector:
 put_down(left_hand, defaultgripper, cube)</title>
<path fill="none" stroke="black" d="M1225.47,-327.15C1197.1,-323.66 1168.02,-320.23 1140.55,-317.24 965.74,-298.19 921.48,-299.09 746.55,-281.24 717.84,-278.31 687.68,-275.09 657.85,-271.83"/>
<polygon fill="black" stroke="black" points="658.08,-268.33 647.75,-270.72 657.31,-275.29 658.08,-268.33"/>
</g>
<!-- &quot;precondition:\n hold(left_hand, defaultgripper)&quot;* -->
<g id="node13" class="node">
<title>&quot;precondition:\n hold(left_hand, defaultgripper)&quot;*</title>
<ellipse fill="#ffec8b" stroke="black" cx="981.55" cy="-244.5" rx="225.63" ry="33.88"/>
<text text-anchor="middle" x="981.55" y="-250.1" font-family="Times,serif" font-size="18.00">&quot;precondition:</text>
<text text-anchor="middle" x="981.55" y="-230.1" font-family="Times,serif" font-size="18.00"> hold(left_hand, defaultgripper)&quot;*</text>
</g>
<!-- sequence:
 change_tool(left_hand, defaultgripper, clampgripper)&#45;&gt;&quot;precondition:\n hold(left_hand, defaultgripper)&quot;* -->
<g id="edge12" class="edge">
<title>sequence:
 change_tool(left_hand, defaultgripper, clampgripper)&#45;&gt;&quot;precondition:\n hold(left_hand, defaultgripper)&quot;*</title>
<path fill="none" stroke="black" d="M1308.34,-327.14C1248.63,-312.23 1170.18,-292.63 1105.11,-276.37"/>
<polygon fill="black" stroke="black" points="1105.75,-272.92 1095.2,-273.9 1104.05,-279.72 1105.75,-272.92"/>
</g>
<!-- precondition:
 is_empty(defaultgripper) -->
<g id="node14" class="node">
<title>precondition:
 is_empty(defaultgripper)</title>
<ellipse fill="#ffec8b" stroke="black" cx="1400.55" cy="-244.5" rx="175.23" ry="33.88"/>
<text text-anchor="middle" x="1400.55" y="-250.1" font-family="Times,serif" font-size="18.00">precondition:</text>
<text text-anchor="middle" x="1400.55" y="-230.1" font-family="Times,serif" font-size="18.00"> is_empty(defaultgripper)</text>
</g>
<!-- sequence:
 change_tool(left_hand, defaultgripper, clampgripper)&#45;&gt;precondition:
 is_empty(defaultgripper) -->
<g id="edge13" class="edge">
<title>sequence:
 change_tool(left_hand, defaultgripper, clampgripper)&#45;&gt;precondition:
 is_empty(defaultgripper)</title>
<path fill="none" stroke="black" d="M1400.55,-326.95C1400.55,-315.73 1400.55,-301.9 1400.55,-288.84"/>
<polygon fill="black" stroke="black" points="1404.05,-288.6 1400.55,-278.6 1397.05,-288.6 1404.05,-288.6"/>
</g>
<!-- action:
 change_tool(left_hand, defaultgripper, clampgripper) -->
<g id="node15" class="node">
<title>action:
 change_tool(left_hand, defaultgripper, clampgripper)</title>
<ellipse fill="lightgreen" stroke="black" cx="1948.55" cy="-244.5" rx="354.94" ry="33.88"/>
<text text-anchor="middle" x="1948.55" y="-250.1" font-family="Times,serif" font-size="18.00">action:</text>
<text text-anchor="middle" x="1948.55" y="-230.1" font-family="Times,serif" font-size="18.00"> change_tool(left_hand, defaultgripper, clampgripper)</text>
</g>
<!-- sequence:
 change_tool(left_hand, defaultgripper, clampgripper)&#45;&gt;action:
 change_tool(left_hand, defaultgripper, clampgripper) -->
<g id="edge14" class="edge">
<title>sequence:
 change_tool(left_hand, defaultgripper, clampgripper)&#45;&gt;action:
 change_tool(left_hand, defaultgripper, clampgripper)</title>
<path fill="none" stroke="black" d="M1521.15,-327.14C1598.29,-312.41 1699.38,-293.1 1783.87,-276.96"/>
<polygon fill="black" stroke="black" points="1784.66,-280.37 1793.83,-275.06 1783.35,-273.5 1784.66,-280.37"/>
</g>
<!-- target:
 is_empty(defaultgripper) -->
<g id="node8" class="node">
<title>target:
 is_empty(defaultgripper)</title>
<ellipse fill="#ffec8b" stroke="black" cx="232.55" cy="-137.82" rx="175.23" ry="33.88"/>
<text text-anchor="middle" x="232.55" y="-143.42" font-family="Times,serif" font-size="18.00">target:</text>
<text text-anchor="middle" x="232.55" y="-123.42" font-family="Times,serif" font-size="18.00"> is_empty(defaultgripper)</text>
</g>
<!-- selector:
 put_down(left_hand, defaultgripper, cube)&#45;&gt;target:
 is_empty(defaultgripper) -->
<g id="edge7" class="edge">
<title>selector:
 put_down(left_hand, defaultgripper, cube)&#45;&gt;target:
 is_empty(defaultgripper)</title>
<path fill="none" stroke="black" d="M362.03,-207.62C342.03,-197 320.14,-185.37 300.14,-174.74"/>
<polygon fill="black" stroke="black" points="301.57,-171.54 291.1,-169.94 298.29,-177.72 301.57,-171.54"/>
</g>
<!-- sequence:
 put_down(left_hand, defaultgripper, cube) -->
<g id="node9" class="node">
<title>sequence:
 put_down(left_hand, defaultgripper, cube)</title>
<polygon fill="#ff7f24" stroke="black" points="829.05,-161.82 426.05,-161.82 426.05,-113.82 829.05,-113.82 829.05,-161.82"/>
<text text-anchor="middle" x="627.55" y="-143.42" font-family="Times,serif" font-size="18.00">sequence:</text>
<text text-anchor="middle" x="627.55" y="-123.42" font-family="Times,serif" font-size="18.00"> put_down(left_hand, defaultgripper, cube)</text>
</g>
<!-- selector:
 put_down(left_hand, defaultgripper, cube)&#45;&gt;sequence:
 put_down(left_hand, defaultgripper, cube) -->
<g id="edge8" class="edge">
<title>selector:
 put_down(left_hand, defaultgripper, cube)&#45;&gt;sequence:
 put_down(left_hand, defaultgripper, cube)</title>
<path fill="none" stroke="black" d="M497.41,-207.62C522.82,-194.19 551.28,-179.14 575.09,-166.56"/>
<polygon fill="black" stroke="black" points="576.77,-169.63 583.97,-161.86 573.5,-163.44 576.77,-169.63"/>
</g>
<!-- precondition:
 hold(left_hand, defaultgripper) -->
<g id="node10" class="node">
<title>precondition:
 hold(left_hand, defaultgripper)</title>
<ellipse fill="#ffec8b" stroke="black" cx="213.55" cy="-33.94" rx="213.59" ry="33.88"/>
<text text-anchor="middle" x="213.55" y="-39.54" font-family="Times,serif" font-size="18.00">precondition:</text>
<text text-anchor="middle" x="213.55" y="-19.54" font-family="Times,serif" font-size="18.00"> hold(left_hand, defaultgripper)</text>
</g>
<!-- sequence:
 put_down(left_hand, defaultgripper, cube)&#45;&gt;precondition:
 hold(left_hand, defaultgripper) -->
<g id="edge9" class="edge">
<title>sequence:
 put_down(left_hand, defaultgripper, cube)&#45;&gt;precondition:
 hold(left_hand, defaultgripper)</title>
<path fill="none" stroke="black" d="M533.86,-113.77C475.56,-99.42 399.92,-80.81 336.79,-65.27"/>
<polygon fill="black" stroke="black" points="337.32,-61.8 326.77,-62.8 335.64,-68.59 337.32,-61.8"/>
</g>
<!-- precondition:
 hold(defaultgripper, cube) -->
<g id="node11" class="node">
<title>precondition:
 hold(defaultgripper, cube)</title>
<ellipse fill="#ffec8b" stroke="black" cx="627.55" cy="-33.94" rx="182.37" ry="33.88"/>
<text text-anchor="middle" x="627.55" y="-39.54" font-family="Times,serif" font-size="18.00">precondition:</text>
<text text-anchor="middle" x="627.55" y="-19.54" font-family="Times,serif" font-size="18.00"> hold(defaultgripper, cube)</text>
</g>
<!-- sequence:
 put_down(left_hand, defaultgripper, cube)&#45;&gt;precondition:
 hold(defaultgripper, cube) -->
<g id="edge10" class="edge">
<title>sequence:
 put_down(left_hand, defaultgripper, cube)&#45;&gt;precondition:
 hold(defaultgripper, cube)</title>
<path fill="none" stroke="black" d="M627.55,-113.7C627.55,-103.16 627.55,-90.31 627.55,-78.08"/>
<polygon fill="black" stroke="black" points="631.05,-78.01 627.55,-68.01 624.05,-78.01 631.05,-78.01"/>
</g>
<!-- action:
 put_down(left_hand, defaultgripper, cube) -->
<g id="node12" class="node">
<title>action:
 put_down(left_hand, defaultgripper, cube)</title>
<ellipse fill="lightgreen" stroke="black" cx="1112.55" cy="-33.94" rx="284.93" ry="33.88"/>
<text text-anchor="middle" x="1112.55" y="-39.54" font-family="Times,serif" font-size="18.00">action:</text>
<text text-anchor="middle" x="1112.55" y="-19.54" font-family="Times,serif" font-size="18.00"> put_down(left_hand, defaultgripper, cube)</text>
</g>
<!-- sequence:
 put_down(left_hand, defaultgripper, cube)&#45;&gt;action:
 put_down(left_hand, defaultgripper, cube) -->
<g id="edge11" class="edge">
<title>sequence:
 put_down(left_hand, defaultgripper, cube)&#45;&gt;action:
 put_down(left_hand, defaultgripper, cube)</title>
<path fill="none" stroke="black" d="M737.3,-113.77C804.82,-99.58 892.2,-81.23 965.64,-65.8"/>
<polygon fill="black" stroke="black" points="966.38,-69.22 975.45,-63.74 964.94,-62.37 966.38,-69.22"/>
</g>
<!-- target:
 hold(clampgripper, lampbulb) -->
<g id="node17" class="node">
<title>target:
 hold(clampgripper, lampbulb)</title>
<ellipse fill="#ffec8b" stroke="black" cx="2204.55" cy="-351.18" rx="205.54" ry="33.88"/>
<text text-anchor="middle" x="2204.55" y="-356.78" font-family="Times,serif" font-size="18.00">target:</text>
<text text-anchor="middle" x="2204.55" y="-336.78" font-family="Times,serif" font-size="18.00"> hold(clampgripper, lampbulb)</text>
</g>
<!-- selector:
 pick_up(left_hand, clampgripper, lampbulb)&#45;&gt;target:
 hold(clampgripper, lampbulb) -->
<g id="edge16" class="edge">
<title>selector:
 pick_up(left_hand, clampgripper, lampbulb)&#45;&gt;target:
 hold(clampgripper, lampbulb)</title>
<path fill="none" stroke="black" d="M2204.55,-420.84C2204.55,-412.68 2204.55,-403.93 2204.55,-395.51"/>
<polygon fill="black" stroke="black" points="2208.05,-395.46 2204.55,-385.46 2201.05,-395.46 2208.05,-395.46"/>
</g>
<!-- sequence:
 pick_up(left_hand, clampgripper, lampbulb) -->
<g id="node18" class="node">
<title>sequence:
 pick_up(left_hand, clampgripper, lampbulb)</title>
<polygon fill="#ff7f24" stroke="black" points="3010.55,-375.18 2592.55,-375.18 2592.55,-327.18 3010.55,-327.18 3010.55,-375.18"/>
<text text-anchor="middle" x="2801.55" y="-356.78" font-family="Times,serif" font-size="18.00">sequence:</text>
<text text-anchor="middle" x="2801.55" y="-336.78" font-family="Times,serif" font-size="18.00"> pick_up(left_hand, clampgripper, lampbulb)</text>
</g>
<!-- selector:
 pick_up(left_hand, clampgripper, lampbulb)&#45;&gt;sequence:
 pick_up(left_hand, clampgripper, lampbulb) -->
<g id="edge17" class="edge">
<title>selector:
 pick_up(left_hand, clampgripper, lampbulb)&#45;&gt;sequence:
 pick_up(left_hand, clampgripper, lampbulb)</title>
<path fill="none" stroke="black" d="M2381.24,-425.88C2470.29,-410.26 2576.78,-391.59 2660.29,-376.95"/>
<polygon fill="black" stroke="black" points="2661.12,-380.36 2670.36,-375.18 2659.91,-373.46 2661.12,-380.36"/>
</g>
<!-- precondition:
 is_empty(clampgripper) -->
<g id="node19" class="node">
<title>precondition:
 is_empty(clampgripper)</title>
<ellipse fill="#ffec8b" stroke="black" cx="2490.55" cy="-244.5" rx="169" ry="33.88"/>
<text text-anchor="middle" x="2490.55" y="-250.1" font-family="Times,serif" font-size="18.00">precondition:</text>
<text text-anchor="middle" x="2490.55" y="-230.1" font-family="Times,serif" font-size="18.00"> is_empty(clampgripper)</text>
</g>
<!-- sequence:
 pick_up(left_hand, clampgripper, lampbulb)&#45;&gt;precondition:
 is_empty(clampgripper) -->
<g id="edge18" class="edge">
<title>sequence:
 pick_up(left_hand, clampgripper, lampbulb)&#45;&gt;precondition:
 is_empty(clampgripper)</title>
<path fill="none" stroke="black" d="M2732.91,-327.08C2689.4,-312.43 2632.53,-293.29 2584.81,-277.23"/>
<polygon fill="black" stroke="black" points="2585.68,-273.83 2575.09,-273.96 2583.45,-280.47 2585.68,-273.83"/>
</g>
<!-- precondition:
 hold(left_hand, clampgripper) -->
<g id="node20" class="node">
<title>precondition:
 hold(left_hand, clampgripper)</title>
<ellipse fill="#ffec8b" stroke="black" cx="2884.55" cy="-244.5" rx="207.36" ry="33.88"/>
<text text-anchor="middle" x="2884.55" y="-250.1" font-family="Times,serif" font-size="18.00">precondition:</text>
<text text-anchor="middle" x="2884.55" y="-230.1" font-family="Times,serif" font-size="18.00"> hold(left_hand, clampgripper)</text>
</g>
<!-- sequence:
 pick_up(left_hand, clampgripper, lampbulb)&#45;&gt;precondition:
 hold(left_hand, clampgripper) -->
<g id="edge19" class="edge">
<title>sequence:
 pick_up(left_hand, clampgripper, lampbulb)&#45;&gt;precondition:
 hold(left_hand, clampgripper)</title>
<path fill="none" stroke="black" d="M2819.97,-326.95C2829.47,-314.97 2841.34,-300 2852.3,-286.17"/>
<polygon fill="black" stroke="black" points="2855.15,-288.21 2858.62,-278.2 2849.67,-283.86 2855.15,-288.21"/>
</g>
<!-- action:
 pick_up(left_hand, clampgripper, lampbulb) -->
<g id="node21" class="node">
<title>action:
 pick_up(left_hand, clampgripper, lampbulb)</title>
<ellipse fill="lightgreen" stroke="black" cx="3405.55" cy="-244.5" rx="295.64" ry="33.88"/>
<text text-anchor="middle" x="3405.55" y="-250.1" font-family="Times,serif" font-size="18.00">action:</text>
<text text-anchor="middle" x="3405.55" y="-230.1" font-family="Times,serif" font-size="18.00"> pick_up(left_hand, clampgripper, lampbulb)</text>
</g>
<!-- sequence:
 pick_up(left_hand, clampgripper, lampbulb)&#45;&gt;action:
 pick_up(left_hand, clampgripper, lampbulb) -->
<g id="edge20" class="edge">
<title>sequence:
 pick_up(left_hand, clampgripper, lampbulb)&#45;&gt;action:
 pick_up(left_hand, clampgripper, lampbulb)</title>
<path fill="none" stroke="black" d="M2934.47,-327.14C3023.2,-311.77 3140.66,-291.41 3236.09,-274.87"/>
<polygon fill="black" stroke="black" points="3236.88,-278.29 3246.14,-273.13 3235.69,-271.39 3236.88,-278.29"/>
</g>
</g>
</svg>
