<?xml version="1.0" encoding="UTF-8" standalone="no"?>
<!DOCTYPE svg PUBLIC "-//W3C//DTD SVG 1.1//EN"
 "http://www.w3.org/Graphics/SVG/1.1/DTD/svg11.dtd">
<!-- Generated by graphviz version 2.43.0 (0)
 -->
<!-- Title: pastafarianism Pages: 1 -->
<svg width="2101pt" height="503pt"
 viewBox="0.00 0.00 2100.58 502.60" xmlns="http://www.w3.org/2000/svg" xmlns:xlink="http://www.w3.org/1999/xlink">
<g id="graph0" class="graph" transform="scale(1 1) rotate(0) translate(4 498.6)">
<title>pastafarianism</title>
<polygon fill="white" stroke="transparent" points="-4,4 -4,-498.6 2096.58,-498.6 2096.58,4 -4,4"/>
<!-- selector:
 screw(left_hand, inwardgripper, chairnut1, chairseatbolt1) -->
<g id="node1" class="node">
<title>selector:
 screw(left_hand, inwardgripper, chairnut1, chairseatbolt1)</title>
<polygon fill="#8deeee" stroke="black" points="1215.87,-442.54 1215.87,-473.18 967.48,-494.84 616.2,-494.84 367.81,-473.18 367.81,-442.54 616.2,-420.88 967.48,-420.88 1215.87,-442.54"/>
<text text-anchor="middle" x="791.84" y="-463.46" font-family="Times,serif" font-size="18.00">selector:</text>
<text text-anchor="middle" x="791.84" y="-443.46" font-family="Times,serif" font-size="18.00"> screw(left_hand, inwardgripper, chairnut1, chairseatbolt1)</text>
</g>
<!-- target:
 is_screwed_to(chairnut1, chairseatbolt1) -->
<g id="node2" class="node">
<title>target:
 is_screwed_to(chairnut1, chairseatbolt1)</title>
<ellipse fill="#ffec8b" stroke="black" cx="506.84" cy="-351.18" rx="276.46" ry="33.88"/>
<text text-anchor="middle" x="506.84" y="-356.78" font-family="Times,serif" font-size="18.00">target:</text>
<text text-anchor="middle" x="506.84" y="-336.78" font-family="Times,serif" font-size="18.00"> is_screwed_to(chairnut1, chairseatbolt1)</text>
</g>
<!-- selector:
 screw(left_hand, inwardgripper, chairnut1, chairseatbolt1)&#45;&gt;target:
 is_screwed_to(chairnut1, chairseatbolt1) -->
<g id="edge1" class="edge">
<title>selector:
 screw(left_hand, inwardgripper, chairnut1, chairseatbolt1)&#45;&gt;target:
 is_screwed_to(chairnut1, chairseatbolt1)</title>
<path fill="none" stroke="black" d="M694.16,-420.98C664.35,-410.03 631.63,-398.02 601.99,-387.13"/>
<polygon fill="black" stroke="black" points="603.08,-383.8 592.49,-383.64 600.67,-390.37 603.08,-383.8"/>
</g>
<!-- sequence:
 screw(left_hand, inwardgripper, chairnut1, chairseatbolt1) -->
<g id="node3" class="node">
<title>sequence:
 screw(left_hand, inwardgripper, chairnut1, chairseatbolt1)</title>
<polygon fill="#ff7f24" stroke="black" points="1354.84,-375.18 800.84,-375.18 800.84,-327.18 1354.84,-327.18 1354.84,-375.18"/>
<text text-anchor="middle" x="1077.84" y="-356.78" font-family="Times,serif" font-size="18.00">sequence:</text>
<text text-anchor="middle" x="1077.84" y="-336.78" font-family="Times,serif" font-size="18.00"> screw(left_hand, inwardgripper, chairnut1, chairseatbolt1)</text>
</g>
<!-- selector:
 screw(left_hand, inwardgripper, chairnut1, chairseatbolt1)&#45;&gt;sequence:
 screw(left_hand, inwardgripper, chairnut1, chairseatbolt1) -->
<g id="edge2" class="edge">
<title>selector:
 screw(left_hand, inwardgripper, chairnut1, chairseatbolt1)&#45;&gt;sequence:
 screw(left_hand, inwardgripper, chairnut1, chairseatbolt1)</title>
<path fill="none" stroke="black" d="M889.86,-420.98C927.7,-407.13 970.22,-391.57 1005.23,-378.76"/>
<polygon fill="black" stroke="black" points="1006.71,-381.94 1014.9,-375.22 1004.3,-375.37 1006.71,-381.94"/>
</g>
<!-- selector:
 change_tool(left_hand, defaultgripper, inwardgripper) -->
<g id="node4" class="node">
<title>selector:
 change_tool(left_hand, defaultgripper, inwardgripper)</title>
<polygon fill="#8deeee" stroke="black" points="846.01,-229.19 846.01,-259.82 617.45,-281.48 294.22,-281.48 65.66,-259.82 65.66,-229.19 294.22,-207.53 617.45,-207.53 846.01,-229.19"/>
<text text-anchor="middle" x="455.84" y="-250.1" font-family="Times,serif" font-size="18.00">selector:</text>
<text text-anchor="middle" x="455.84" y="-230.1" font-family="Times,serif" font-size="18.00"> change_tool(left_hand, defaultgripper, inwardgripper)</text>
</g>
<!-- sequence:
 screw(left_hand, inwardgripper, chairnut1, chairseatbolt1)&#45;&gt;selector:
 change_tool(left_hand, defaultgripper, inwardgripper) -->
<g id="edge3" class="edge">
<title>sequence:
 screw(left_hand, inwardgripper, chairnut1, chairseatbolt1)&#45;&gt;selector:
 change_tool(left_hand, defaultgripper, inwardgripper)</title>
<path fill="none" stroke="black" d="M940.95,-327.14C858.9,-313.34 753,-295.51 661.08,-280.04"/>
<polygon fill="black" stroke="black" points="661.53,-276.57 651.09,-278.36 660.37,-283.47 661.53,-276.57"/>
</g>
<!-- precondition:
 hold(inwardgripper, chairnut1) -->
<g id="node10" class="node">
<title>precondition:
 hold(inwardgripper, chairnut1)</title>
<ellipse fill="#ffec8b" stroke="black" cx="1077.84" cy="-244.5" rx="213.59" ry="33.88"/>
<text text-anchor="middle" x="1077.84" y="-250.1" font-family="Times,serif" font-size="18.00">precondition:</text>
<text text-anchor="middle" x="1077.84" y="-230.1" font-family="Times,serif" font-size="18.00"> hold(inwardgripper, chairnut1)</text>
</g>
<!-- sequence:
 screw(left_hand, inwardgripper, chairnut1, chairseatbolt1)&#45;&gt;precondition:
 hold(inwardgripper, chairnut1) -->
<g id="edge9" class="edge">
<title>sequence:
 screw(left_hand, inwardgripper, chairnut1, chairseatbolt1)&#45;&gt;precondition:
 hold(inwardgripper, chairnut1)</title>
<path fill="none" stroke="black" d="M1077.84,-326.95C1077.84,-315.73 1077.84,-301.9 1077.84,-288.84"/>
<polygon fill="black" stroke="black" points="1081.34,-288.6 1077.84,-278.6 1074.34,-288.6 1081.34,-288.6"/>
</g>
<!-- action:
 screw(left_hand, inwardgripper, chairnut1, chairseatbolt1) -->
<g id="node11" class="node">
<title>action:
 screw(left_hand, inwardgripper, chairnut1, chairseatbolt1)</title>
<ellipse fill="lightgreen" stroke="black" cx="1700.84" cy="-244.5" rx="391.97" ry="33.88"/>
<text text-anchor="middle" x="1700.84" y="-250.1" font-family="Times,serif" font-size="18.00">action:</text>
<text text-anchor="middle" x="1700.84" y="-230.1" font-family="Times,serif" font-size="18.00"> screw(left_hand, inwardgripper, chairnut1, chairseatbolt1)</text>
</g>
<!-- sequence:
 screw(left_hand, inwardgripper, chairnut1, chairseatbolt1)&#45;&gt;action:
 screw(left_hand, inwardgripper, chairnut1, chairseatbolt1) -->
<g id="edge10" class="edge">
<title>sequence:
 screw(left_hand, inwardgripper, chairnut1, chairseatbolt1)&#45;&gt;action:
 screw(left_hand, inwardgripper, chairnut1, chairseatbolt1)</title>
<path fill="none" stroke="black" d="M1214.94,-327.14C1303.35,-312.29 1419.42,-292.79 1515.94,-276.57"/>
<polygon fill="black" stroke="black" points="1516.53,-280.02 1525.81,-274.91 1515.37,-273.12 1516.53,-280.02"/>
</g>
<!-- target:
 hold(left_hand, inwardgripper) -->
<g id="node5" class="node">
<title>target:
 hold(left_hand, inwardgripper)</title>
<ellipse fill="#ffec8b" stroke="black" cx="212.84" cy="-137.82" rx="212.68" ry="33.88"/>
<text text-anchor="middle" x="212.84" y="-143.42" font-family="Times,serif" font-size="18.00">target:</text>
<text text-anchor="middle" x="212.84" y="-123.42" font-family="Times,serif" font-size="18.00"> hold(left_hand, inwardgripper)</text>
</g>
<!-- selector:
 change_tool(left_hand, defaultgripper, inwardgripper)&#45;&gt;target:
 hold(left_hand, inwardgripper) -->
<g id="edge4" class="edge">
<title>selector:
 change_tool(left_hand, defaultgripper, inwardgripper)&#45;&gt;target:
 hold(left_hand, inwardgripper)</title>
<path fill="none" stroke="black" d="M372.55,-207.62C347.33,-196.76 319.67,-184.84 294.56,-174.03"/>
<polygon fill="black" stroke="black" points="295.64,-170.68 285.07,-169.94 292.87,-177.11 295.64,-170.68"/>
</g>
<!-- sequence:
 change_tool(left_hand, defaultgripper, inwardgripper) -->
<g id="node6" class="node">
<title>sequence:
 change_tool(left_hand, defaultgripper, inwardgripper)</title>
<polygon fill="#ff7f24" stroke="black" points="953.84,-161.82 443.84,-161.82 443.84,-113.82 953.84,-113.82 953.84,-161.82"/>
<text text-anchor="middle" x="698.84" y="-143.42" font-family="Times,serif" font-size="18.00">sequence:</text>
<text text-anchor="middle" x="698.84" y="-123.42" font-family="Times,serif" font-size="18.00"> change_tool(left_hand, defaultgripper, inwardgripper)</text>
</g>
<!-- selector:
 change_tool(left_hand, defaultgripper, inwardgripper)&#45;&gt;sequence:
 change_tool(left_hand, defaultgripper, inwardgripper) -->
<g id="edge5" class="edge">
<title>selector:
 change_tool(left_hand, defaultgripper, inwardgripper)&#45;&gt;sequence:
 change_tool(left_hand, defaultgripper, inwardgripper)</title>
<path fill="none" stroke="black" d="M539.13,-207.62C570.86,-193.95 606.47,-178.61 636,-165.89"/>
<polygon fill="black" stroke="black" points="637.56,-169.03 645.36,-161.86 634.79,-162.6 637.56,-169.03"/>
</g>
<!-- precondition:
 hold(left_hand, defaultgripper) -->
<g id="node7" class="node">
<title>precondition:
 hold(left_hand, defaultgripper)</title>
<ellipse fill="#ffec8b" stroke="black" cx="291.84" cy="-33.94" rx="213.59" ry="33.88"/>
<text text-anchor="middle" x="291.84" y="-39.54" font-family="Times,serif" font-size="18.00">precondition:</text>
<text text-anchor="middle" x="291.84" y="-19.54" font-family="Times,serif" font-size="18.00"> hold(left_hand, defaultgripper)</text>
</g>
<!-- sequence:
 change_tool(left_hand, defaultgripper, inwardgripper)&#45;&gt;precondition:
 hold(left_hand, defaultgripper) -->
<g id="edge6" class="edge">
<title>sequence:
 change_tool(left_hand, defaultgripper, inwardgripper)&#45;&gt;precondition:
 hold(left_hand, defaultgripper)</title>
<path fill="none" stroke="black" d="M606.74,-113.77C549.53,-99.45 475.35,-80.88 413.36,-65.36"/>
<polygon fill="black" stroke="black" points="414.07,-61.93 403.52,-62.9 412.37,-68.72 414.07,-61.93"/>
</g>
<!-- precondition:
 is_empty(defaultgripper) -->
<g id="node8" class="node">
<title>precondition:
 is_empty(defaultgripper)</title>
<ellipse fill="#ffec8b" stroke="black" cx="698.84" cy="-33.94" rx="175.23" ry="33.88"/>
<text text-anchor="middle" x="698.84" y="-39.54" font-family="Times,serif" font-size="18.00">precondition:</text>
<text text-anchor="middle" x="698.84" y="-19.54" font-family="Times,serif" font-size="18.00"> is_empty(defaultgripper)</text>
</g>
<!-- sequence:
 change_tool(left_hand, defaultgripper, inwardgripper)&#45;&gt;precondition:
 is_empty(defaultgripper) -->
<g id="edge7" class="edge">
<title>sequence:
 change_tool(left_hand, defaultgripper, inwardgripper)&#45;&gt;precondition:
 is_empty(defaultgripper)</title>
<path fill="none" stroke="black" d="M698.84,-113.7C698.84,-103.16 698.84,-90.31 698.84,-78.08"/>
<polygon fill="black" stroke="black" points="702.34,-78.01 698.84,-68.01 695.34,-78.01 702.34,-78.01"/>
</g>
<!-- action:
 change_tool(left_hand, defaultgripper, inwardgripper) -->
<g id="node9" class="node">
<title>action:
 change_tool(left_hand, defaultgripper, inwardgripper)</title>
<ellipse fill="lightgreen" stroke="black" cx="1252.84" cy="-33.94" rx="360.75" ry="33.88"/>
<text text-anchor="middle" x="1252.84" y="-39.54" font-family="Times,serif" font-size="18.00">action:</text>
<text text-anchor="middle" x="1252.84" y="-19.54" font-family="Times,serif" font-size="18.00"> change_tool(left_hand, defaultgripper, inwardgripper)</text>
</g>
<!-- sequence:
 change_tool(left_hand, defaultgripper, inwardgripper)&#45;&gt;action:
 change_tool(left_hand, defaultgripper, inwardgripper) -->
<g id="edge8" class="edge">
<title>sequence:
 change_tool(left_hand, defaultgripper, inwardgripper)&#45;&gt;action:
 change_tool(left_hand, defaultgripper, inwardgripper)</title>
<path fill="none" stroke="black" d="M824.2,-113.77C900.66,-99.71 999.38,-81.55 1082.81,-66.21"/>
<polygon fill="black" stroke="black" points="1083.44,-69.65 1092.65,-64.4 1082.18,-62.77 1083.44,-69.65"/>
</g>
</g>
</svg>
