<?xml version="1.0" encoding="UTF-8" standalone="no"?>
<!DOCTYPE svg PUBLIC "-//W3C//DTD SVG 1.1//EN"
 "http://www.w3.org/Graphics/SVG/1.1/DTD/svg11.dtd">
<!-- Generated by graphviz version 2.43.0 (0)
 -->
<!-- Title: pastafarianism Pages: 1 -->
<svg width="2187pt" height="716pt"
 viewBox="0.00 0.00 2187.28 715.95" xmlns="http://www.w3.org/2000/svg" xmlns:xlink="http://www.w3.org/1999/xlink">
<g id="graph0" class="graph" transform="scale(1 1) rotate(0) translate(4 711.95)">
<title>pastafarianism</title>
<polygon fill="white" stroke="transparent" points="-4,4 -4,-711.95 2183.28,-711.95 2183.28,4 -4,4"/>
<!-- selector:
 screw(left_hand, inwardgripper, chairnut1, chairseatbolt1) -->
<g id="node1" class="node">
<title>selector:
 screw(left_hand, inwardgripper, chairnut1, chairseatbolt1)</title>
<polygon fill="#8deeee" stroke="black" points="1302.57,-655.9 1302.57,-686.53 1054.18,-708.19 702.91,-708.19 454.52,-686.53 454.52,-655.9 702.91,-634.24 1054.18,-634.24 1302.57,-655.9"/>
<text text-anchor="middle" x="878.55" y="-676.82" font-family="Times,serif" font-size="18.00">selector:</text>
<text text-anchor="middle" x="878.55" y="-656.82" font-family="Times,serif" font-size="18.00"> screw(left_hand, inwardgripper, chairnut1, chairseatbolt1)</text>
</g>
<!-- target:
 is_screwed_to(chairnut1, chairseatbolt1) -->
<g id="node2" class="node">
<title>target:
 is_screwed_to(chairnut1, chairseatbolt1)</title>
<ellipse fill="#ffec8b" stroke="black" cx="593.55" cy="-564.54" rx="276.46" ry="33.88"/>
<text text-anchor="middle" x="593.55" y="-570.14" font-family="Times,serif" font-size="18.00">target:</text>
<text text-anchor="middle" x="593.55" y="-550.14" font-family="Times,serif" font-size="18.00"> is_screwed_to(chairnut1, chairseatbolt1)</text>
</g>
<!-- selector:
 screw(left_hand, inwardgripper, chairnut1, chairseatbolt1)&#45;&gt;target:
 is_screwed_to(chairnut1, chairseatbolt1) -->
<g id="edge1" class="edge">
<title>selector:
 screw(left_hand, inwardgripper, chairnut1, chairseatbolt1)&#45;&gt;target:
 is_screwed_to(chairnut1, chairseatbolt1)</title>
<path fill="none" stroke="black" d="M780.86,-634.34C751.06,-623.39 718.34,-611.37 688.7,-600.49"/>
<polygon fill="black" stroke="black" points="689.79,-597.16 679.19,-597 687.37,-603.73 689.79,-597.16"/>
</g>
<!-- sequence:
 screw(left_hand, inwardgripper, chairnut1, chairseatbolt1) -->
<g id="node3" class="node">
<title>sequence:
 screw(left_hand, inwardgripper, chairnut1, chairseatbolt1)</title>
<polygon fill="#ff7f24" stroke="black" points="1441.55,-588.54 887.55,-588.54 887.55,-540.54 1441.55,-540.54 1441.55,-588.54"/>
<text text-anchor="middle" x="1164.55" y="-570.14" font-family="Times,serif" font-size="18.00">sequence:</text>
<text text-anchor="middle" x="1164.55" y="-550.14" font-family="Times,serif" font-size="18.00"> screw(left_hand, inwardgripper, chairnut1, chairseatbolt1)</text>
</g>
<!-- selector:
 screw(left_hand, inwardgripper, chairnut1, chairseatbolt1)&#45;&gt;sequence:
 screw(left_hand, inwardgripper, chairnut1, chairseatbolt1) -->
<g id="edge2" class="edge">
<title>selector:
 screw(left_hand, inwardgripper, chairnut1, chairseatbolt1)&#45;&gt;sequence:
 screw(left_hand, inwardgripper, chairnut1, chairseatbolt1)</title>
<path fill="none" stroke="black" d="M976.57,-634.34C1014.41,-620.49 1056.92,-604.93 1091.94,-592.11"/>
<polygon fill="black" stroke="black" points="1093.42,-595.3 1101.61,-588.58 1091.01,-588.73 1093.42,-595.3"/>
</g>
<!-- selector:
 change_tool(left_hand, defaultgripper, inwardgripper) -->
<g id="node4" class="node">
<title>selector:
 change_tool(left_hand, defaultgripper, inwardgripper)</title>
<polygon fill="#8deeee" stroke="black" points="932.72,-442.54 932.72,-473.18 704.16,-494.84 380.93,-494.84 152.37,-473.18 152.37,-442.54 380.93,-420.88 704.16,-420.88 932.72,-442.54"/>
<text text-anchor="middle" x="542.55" y="-463.46" font-family="Times,serif" font-size="18.00">selector:</text>
<text text-anchor="middle" x="542.55" y="-443.46" font-family="Times,serif" font-size="18.00"> change_tool(left_hand, defaultgripper, inwardgripper)</text>
</g>
<!-- sequence:
 screw(left_hand, inwardgripper, chairnut1, chairseatbolt1)&#45;&gt;selector:
 change_tool(left_hand, defaultgripper, inwardgripper) -->
<g id="edge3" class="edge">
<title>sequence:
 screw(left_hand, inwardgripper, chairnut1, chairseatbolt1)&#45;&gt;selector:
 change_tool(left_hand, defaultgripper, inwardgripper)</title>
<path fill="none" stroke="black" d="M1027.66,-540.5C945.61,-526.69 839.71,-508.87 747.79,-493.4"/>
<polygon fill="black" stroke="black" points="748.24,-489.93 737.8,-491.72 747.08,-496.83 748.24,-489.93"/>
</g>
<!-- precondition:
 hold(inwardgripper, chairnut1) -->
<g id="node15" class="node">
<title>precondition:
 hold(inwardgripper, chairnut1)</title>
<ellipse fill="#ffec8b" stroke="black" cx="1164.55" cy="-457.86" rx="213.59" ry="33.88"/>
<text text-anchor="middle" x="1164.55" y="-463.46" font-family="Times,serif" font-size="18.00">precondition:</text>
<text text-anchor="middle" x="1164.55" y="-443.46" font-family="Times,serif" font-size="18.00"> hold(inwardgripper, chairnut1)</text>
</g>
<!-- sequence:
 screw(left_hand, inwardgripper, chairnut1, chairseatbolt1)&#45;&gt;precondition:
 hold(inwardgripper, chairnut1) -->
<g id="edge14" class="edge">
<title>sequence:
 screw(left_hand, inwardgripper, chairnut1, chairseatbolt1)&#45;&gt;precondition:
 hold(inwardgripper, chairnut1)</title>
<path fill="none" stroke="black" d="M1164.55,-540.31C1164.55,-529.09 1164.55,-515.26 1164.55,-502.2"/>
<polygon fill="black" stroke="black" points="1168.05,-501.95 1164.55,-491.95 1161.05,-501.95 1168.05,-501.95"/>
</g>
<!-- action:
 screw(left_hand, inwardgripper, chairnut1, chairseatbolt1) -->
<g id="node16" class="node">
<title>action:
 screw(left_hand, inwardgripper, chairnut1, chairseatbolt1)</title>
<ellipse fill="lightgreen" stroke="black" cx="1787.55" cy="-457.86" rx="391.97" ry="33.88"/>
<text text-anchor="middle" x="1787.55" y="-463.46" font-family="Times,serif" font-size="18.00">action:</text>
<text text-anchor="middle" x="1787.55" y="-443.46" font-family="Times,serif" font-size="18.00"> screw(left_hand, inwardgripper, chairnut1, chairseatbolt1)</text>
</g>
<!-- sequence:
 screw(left_hand, inwardgripper, chairnut1, chairseatbolt1)&#45;&gt;action:
 screw(left_hand, inwardgripper, chairnut1, chairseatbolt1) -->
<g id="edge15" class="edge">
<title>sequence:
 screw(left_hand, inwardgripper, chairnut1, chairseatbolt1)&#45;&gt;action:
 screw(left_hand, inwardgripper, chairnut1, chairseatbolt1)</title>
<path fill="none" stroke="black" d="M1301.65,-540.5C1390.06,-525.65 1506.12,-506.15 1602.64,-489.93"/>
<polygon fill="black" stroke="black" points="1603.24,-493.38 1612.52,-488.27 1602.08,-486.47 1603.24,-493.38"/>
</g>
<!-- target:
 hold(left_hand, inwardgripper) -->
<g id="node5" class="node">
<title>target:
 hold(left_hand, inwardgripper)</title>
<ellipse fill="#ffec8b" stroke="black" cx="299.55" cy="-351.18" rx="212.68" ry="33.88"/>
<text text-anchor="middle" x="299.55" y="-356.78" font-family="Times,serif" font-size="18.00">target:</text>
<text text-anchor="middle" x="299.55" y="-336.78" font-family="Times,serif" font-size="18.00"> hold(left_hand, inwardgripper)</text>
</g>
<!-- selector:
 change_tool(left_hand, defaultgripper, inwardgripper)&#45;&gt;target:
 hold(left_hand, inwardgripper) -->
<g id="edge4" class="edge">
<title>selector:
 change_tool(left_hand, defaultgripper, inwardgripper)&#45;&gt;target:
 hold(left_hand, inwardgripper)</title>
<path fill="none" stroke="black" d="M459.26,-420.98C434.04,-410.12 406.38,-398.2 381.26,-387.38"/>
<polygon fill="black" stroke="black" points="382.34,-384.04 371.77,-383.29 379.57,-390.47 382.34,-384.04"/>
</g>
<!-- sequence:
 change_tool(left_hand, defaultgripper, inwardgripper) -->
<g id="node6" class="node">
<title>sequence:
 change_tool(left_hand, defaultgripper, inwardgripper)</title>
<polygon fill="#ff7f24" stroke="black" points="1040.55,-375.18 530.55,-375.18 530.55,-327.18 1040.55,-327.18 1040.55,-375.18"/>
<text text-anchor="middle" x="785.55" y="-356.78" font-family="Times,serif" font-size="18.00">sequence:</text>
<text text-anchor="middle" x="785.55" y="-336.78" font-family="Times,serif" font-size="18.00"> change_tool(left_hand, defaultgripper, inwardgripper)</text>
</g>
<!-- selector:
 change_tool(left_hand, defaultgripper, inwardgripper)&#45;&gt;sequence:
 change_tool(left_hand, defaultgripper, inwardgripper) -->
<g id="edge5" class="edge">
<title>selector:
 change_tool(left_hand, defaultgripper, inwardgripper)&#45;&gt;sequence:
 change_tool(left_hand, defaultgripper, inwardgripper)</title>
<path fill="none" stroke="black" d="M625.83,-420.98C657.57,-407.31 693.18,-391.97 722.71,-379.25"/>
<polygon fill="black" stroke="black" points="724.27,-382.39 732.07,-375.22 721.5,-375.96 724.27,-382.39"/>
</g>
<!-- precondition:
 hold(left_hand, defaultgripper) -->
<g id="node7" class="node">
<title>precondition:
 hold(left_hand, defaultgripper)</title>
<ellipse fill="#ffec8b" stroke="black" cx="213.55" cy="-244.5" rx="213.59" ry="33.88"/>
<text text-anchor="middle" x="213.55" y="-250.1" font-family="Times,serif" font-size="18.00">precondition:</text>
<text text-anchor="middle" x="213.55" y="-230.1" font-family="Times,serif" font-size="18.00"> hold(left_hand, defaultgripper)</text>
</g>
<!-- sequence:
 change_tool(left_hand, defaultgripper, inwardgripper)&#45;&gt;precondition:
 hold(left_hand, defaultgripper) -->
<g id="edge6" class="edge">
<title>sequence:
 change_tool(left_hand, defaultgripper, inwardgripper)&#45;&gt;precondition:
 hold(left_hand, defaultgripper)</title>
<path fill="none" stroke="black" d="M659.66,-327.14C571.44,-311 453.21,-289.36 360.64,-272.42"/>
<polygon fill="black" stroke="black" points="361.09,-268.94 350.62,-270.59 359.83,-275.83 361.09,-268.94"/>
</g>
<!-- selector:
 put_down(left_hand, defaultgripper, chairleg1) -->
<g id="node8" class="node">
<title>selector:
 put_down(left_hand, defaultgripper, chairleg1)</title>
<polygon fill="#8deeee" stroke="black" points="1126.22,-229.19 1126.22,-259.82 926.66,-281.48 644.43,-281.48 444.87,-259.82 444.87,-229.19 644.43,-207.53 926.66,-207.53 1126.22,-229.19"/>
<text text-anchor="middle" x="785.55" y="-250.1" font-family="Times,serif" font-size="18.00">selector:</text>
<text text-anchor="middle" x="785.55" y="-230.1" font-family="Times,serif" font-size="18.00"> put_down(left_hand, defaultgripper, chairleg1)</text>
</g>
<!-- sequence:
 change_tool(left_hand, defaultgripper, inwardgripper)&#45;&gt;selector:
 put_down(left_hand, defaultgripper, chairleg1) -->
<g id="edge7" class="edge">
<title>sequence:
 change_tool(left_hand, defaultgripper, inwardgripper)&#45;&gt;selector:
 put_down(left_hand, defaultgripper, chairleg1)</title>
<path fill="none" stroke="black" d="M785.55,-326.95C785.55,-316.5 785.55,-303.79 785.55,-291.54"/>
<polygon fill="black" stroke="black" points="789.05,-291.42 785.55,-281.42 782.05,-291.42 789.05,-291.42"/>
</g>
<!-- action:
 change_tool(left_hand, defaultgripper, inwardgripper) -->
<g id="node14" class="node">
<title>action:
 change_tool(left_hand, defaultgripper, inwardgripper)</title>
<ellipse fill="lightgreen" stroke="black" cx="1504.55" cy="-244.5" rx="360.75" ry="33.88"/>
<text text-anchor="middle" x="1504.55" y="-250.1" font-family="Times,serif" font-size="18.00">action:</text>
<text text-anchor="middle" x="1504.55" y="-230.1" font-family="Times,serif" font-size="18.00"> change_tool(left_hand, defaultgripper, inwardgripper)</text>
</g>
<!-- sequence:
 change_tool(left_hand, defaultgripper, inwardgripper)&#45;&gt;action:
 change_tool(left_hand, defaultgripper, inwardgripper) -->
<g id="edge13" class="edge">
<title>sequence:
 change_tool(left_hand, defaultgripper, inwardgripper)&#45;&gt;action:
 change_tool(left_hand, defaultgripper, inwardgripper)</title>
<path fill="none" stroke="black" d="M943.78,-327.14C1049.53,-311.75 1189.58,-291.36 1303.25,-274.81"/>
<polygon fill="black" stroke="black" points="1304.08,-278.22 1313.47,-273.32 1303.07,-271.3 1304.08,-278.22"/>
</g>
<!-- target:
 is_empty(defaultgripper) -->
<g id="node9" class="node">
<title>target:
 is_empty(defaultgripper)</title>
<ellipse fill="#ffec8b" stroke="black" cx="577.55" cy="-137.82" rx="175.23" ry="33.88"/>
<text text-anchor="middle" x="577.55" y="-143.42" font-family="Times,serif" font-size="18.00">target:</text>
<text text-anchor="middle" x="577.55" y="-123.42" font-family="Times,serif" font-size="18.00"> is_empty(defaultgripper)</text>
</g>
<!-- selector:
 put_down(left_hand, defaultgripper, chairleg1)&#45;&gt;target:
 is_empty(defaultgripper) -->
<g id="edge8" class="edge">
<title>selector:
 put_down(left_hand, defaultgripper, chairleg1)&#45;&gt;target:
 is_empty(defaultgripper)</title>
<path fill="none" stroke="black" d="M714.26,-207.62C692.85,-196.85 669.39,-185.05 648.04,-174.3"/>
<polygon fill="black" stroke="black" points="649.54,-171.13 639.03,-169.77 646.39,-177.39 649.54,-171.13"/>
</g>
<!-- sequence:
 put_down(left_hand, defaultgripper, chairleg1) -->
<g id="node10" class="node">
<title>sequence:
 put_down(left_hand, defaultgripper, chairleg1)</title>
<polygon fill="#ff7f24" stroke="black" points="1216.05,-161.82 771.05,-161.82 771.05,-113.82 1216.05,-113.82 1216.05,-161.82"/>
<text text-anchor="middle" x="993.55" y="-143.42" font-family="Times,serif" font-size="18.00">sequence:</text>
<text text-anchor="middle" x="993.55" y="-123.42" font-family="Times,serif" font-size="18.00"> put_down(left_hand, defaultgripper, chairleg1)</text>
</g>
<!-- selector:
 put_down(left_hand, defaultgripper, chairleg1)&#45;&gt;sequence:
 put_down(left_hand, defaultgripper, chairleg1) -->
<g id="edge9" class="edge">
<title>selector:
 put_down(left_hand, defaultgripper, chairleg1)&#45;&gt;sequence:
 put_down(left_hand, defaultgripper, chairleg1)</title>
<path fill="none" stroke="black" d="M856.84,-207.62C883.65,-194.13 913.69,-179.01 938.77,-166.39"/>
<polygon fill="black" stroke="black" points="940.41,-169.48 947.77,-161.86 937.27,-163.23 940.41,-169.48"/>
</g>
<!-- &quot;precondition:\n hold(left_hand, defaultgripper)&quot;* -->
<g id="node11" class="node">
<title>&quot;precondition:\n hold(left_hand, defaultgripper)&quot;*</title>
<ellipse fill="#ffec8b" stroke="black" cx="537.55" cy="-33.94" rx="225.63" ry="33.88"/>
<text text-anchor="middle" x="537.55" y="-39.54" font-family="Times,serif" font-size="18.00">&quot;precondition:</text>
<text text-anchor="middle" x="537.55" y="-19.54" font-family="Times,serif" font-size="18.00"> hold(left_hand, defaultgripper)&quot;*</text>
</g>
<!-- sequence:
 put_down(left_hand, defaultgripper, chairleg1)&#45;&gt;&quot;precondition:\n hold(left_hand, defaultgripper)&quot;* -->
<g id="edge10" class="edge">
<title>sequence:
 put_down(left_hand, defaultgripper, chairleg1)&#45;&gt;&quot;precondition:\n hold(left_hand, defaultgripper)&quot;*</title>
<path fill="none" stroke="black" d="M890.36,-113.77C825.24,-99.22 740.5,-80.29 670.38,-64.62"/>
<polygon fill="black" stroke="black" points="671.11,-61.2 660.59,-62.43 669.59,-68.03 671.11,-61.2"/>
</g>
<!-- precondition:
 hold(defaultgripper, chairleg1) -->
<g id="node12" class="node">
<title>precondition:
 hold(defaultgripper, chairleg1)</title>
<ellipse fill="#ffec8b" stroke="black" cx="993.55" cy="-33.94" rx="212.26" ry="33.88"/>
<text text-anchor="middle" x="993.55" y="-39.54" font-family="Times,serif" font-size="18.00">precondition:</text>
<text text-anchor="middle" x="993.55" y="-19.54" font-family="Times,serif" font-size="18.00"> hold(defaultgripper, chairleg1)</text>
</g>
<!-- sequence:
 put_down(left_hand, defaultgripper, chairleg1)&#45;&gt;precondition:
 hold(defaultgripper, chairleg1) -->
<g id="edge11" class="edge">
<title>sequence:
 put_down(left_hand, defaultgripper, chairleg1)&#45;&gt;precondition:
 hold(defaultgripper, chairleg1)</title>
<path fill="none" stroke="black" d="M993.55,-113.7C993.55,-103.16 993.55,-90.31 993.55,-78.08"/>
<polygon fill="black" stroke="black" points="997.05,-78.01 993.55,-68.01 990.05,-78.01 997.05,-78.01"/>
</g>
<!-- action:
 put_down(left_hand, defaultgripper, chairleg1) -->
<g id="node13" class="node">
<title>action:
 put_down(left_hand, defaultgripper, chairleg1)</title>
<ellipse fill="lightgreen" stroke="black" cx="1538.55" cy="-33.94" rx="314.83" ry="33.88"/>
<text text-anchor="middle" x="1538.55" y="-39.54" font-family="Times,serif" font-size="18.00">action:</text>
<text text-anchor="middle" x="1538.55" y="-19.54" font-family="Times,serif" font-size="18.00"> put_down(left_hand, defaultgripper, chairleg1)</text>
</g>
<!-- sequence:
 put_down(left_hand, defaultgripper, chairleg1)&#45;&gt;action:
 put_down(left_hand, defaultgripper, chairleg1) -->
<g id="edge12" class="edge">
<title>sequence:
 put_down(left_hand, defaultgripper, chairleg1)&#45;&gt;action:
 put_down(left_hand, defaultgripper, chairleg1)</title>
<path fill="none" stroke="black" d="M1116.87,-113.77C1193.29,-99.48 1292.33,-80.97 1375.22,-65.47"/>
<polygon fill="black" stroke="black" points="1376.06,-68.88 1385.24,-63.6 1374.77,-62 1376.06,-68.88"/>
</g>
</g>
</svg>
