<?xml version="1.0" encoding="UTF-8" standalone="no"?>
<!DOCTYPE svg PUBLIC "-//W3C//DTD SVG 1.1//EN"
 "http://www.w3.org/Graphics/SVG/1.1/DTD/svg11.dtd">
<!-- Generated by graphviz version 2.43.0 (0)
 -->
<!-- Title: pastafarianism Pages: 1 -->
<svg width="1870pt" height="289pt"
 viewBox="0.00 0.00 1870.22 289.24" xmlns="http://www.w3.org/2000/svg" xmlns:xlink="http://www.w3.org/1999/xlink">
<g id="graph0" class="graph" transform="scale(1 1) rotate(0) translate(4 285.24)">
<title>pastafarianism</title>
<polygon fill="white" stroke="transparent" points="-4,4 -4,-285.24 1866.22,-285.24 1866.22,4 -4,4"/>
<!-- selector:
 screw(left_hand, inwardgripper, chairnut1, chairseatbolt1) -->
<g id="node1" class="node">
<title>selector:
 screw(left_hand, inwardgripper, chairnut1, chairseatbolt1)</title>
<polygon fill="#8deeee" stroke="black" points="985.51,-229.19 985.51,-259.82 737.12,-281.48 385.84,-281.48 137.45,-259.82 137.45,-229.19 385.84,-207.53 737.12,-207.53 985.51,-229.19"/>
<text text-anchor="middle" x="561.48" y="-250.1" font-family="Times,serif" font-size="18.00">selector:</text>
<text text-anchor="middle" x="561.48" y="-230.1" font-family="Times,serif" font-size="18.00"> screw(left_hand, inwardgripper, chairnut1, chairseatbolt1)</text>
</g>
<!-- target:
 is_screwed_to(chairnut1, chairseatbolt1) -->
<g id="node2" class="node">
<title>target:
 is_screwed_to(chairnut1, chairseatbolt1)</title>
<ellipse fill="#ffec8b" stroke="black" cx="276.48" cy="-137.82" rx="276.46" ry="33.88"/>
<text text-anchor="middle" x="276.48" y="-143.42" font-family="Times,serif" font-size="18.00">target:</text>
<text text-anchor="middle" x="276.48" y="-123.42" font-family="Times,serif" font-size="18.00"> is_screwed_to(chairnut1, chairseatbolt1)</text>
</g>
<!-- selector:
 screw(left_hand, inwardgripper, chairnut1, chairseatbolt1)&#45;&gt;target:
 is_screwed_to(chairnut1, chairseatbolt1) -->
<g id="edge1" class="edge">
<title>selector:
 screw(left_hand, inwardgripper, chairnut1, chairseatbolt1)&#45;&gt;target:
 is_screwed_to(chairnut1, chairseatbolt1)</title>
<path fill="none" stroke="black" d="M463.8,-207.62C433.99,-196.68 401.27,-184.66 371.63,-173.77"/>
<polygon fill="black" stroke="black" points="372.72,-170.44 362.13,-170.28 370.31,-177.01 372.72,-170.44"/>
</g>
<!-- sequence:
 screw(left_hand, inwardgripper, chairnut1, chairseatbolt1) -->
<g id="node3" class="node">
<title>sequence:
 screw(left_hand, inwardgripper, chairnut1, chairseatbolt1)</title>
<polygon fill="#ff7f24" stroke="black" points="1124.48,-161.82 570.48,-161.82 570.48,-113.82 1124.48,-113.82 1124.48,-161.82"/>
<text text-anchor="middle" x="847.48" y="-143.42" font-family="Times,serif" font-size="18.00">sequence:</text>
<text text-anchor="middle" x="847.48" y="-123.42" font-family="Times,serif" font-size="18.00"> screw(left_hand, inwardgripper, chairnut1, chairseatbolt1)</text>
</g>
<!-- selector:
 screw(left_hand, inwardgripper, chairnut1, chairseatbolt1)&#45;&gt;sequence:
 screw(left_hand, inwardgripper, chairnut1, chairseatbolt1) -->
<g id="edge2" class="edge">
<title>selector:
 screw(left_hand, inwardgripper, chairnut1, chairseatbolt1)&#45;&gt;sequence:
 screw(left_hand, inwardgripper, chairnut1, chairseatbolt1)</title>
<path fill="none" stroke="black" d="M659.5,-207.62C697.34,-193.77 739.86,-178.21 774.87,-165.4"/>
<polygon fill="black" stroke="black" points="776.35,-168.58 784.54,-161.86 773.94,-162.01 776.35,-168.58"/>
</g>
<!-- precondition:
 hold(left_hand, inwardgripper) -->
<g id="node4" class="node">
<title>precondition:
 hold(left_hand, inwardgripper)</title>
<ellipse fill="#ffec8b" stroke="black" cx="403.48" cy="-33.94" rx="212.68" ry="33.88"/>
<text text-anchor="middle" x="403.48" y="-39.54" font-family="Times,serif" font-size="18.00">precondition:</text>
<text text-anchor="middle" x="403.48" y="-19.54" font-family="Times,serif" font-size="18.00"> hold(left_hand, inwardgripper)</text>
</g>
<!-- sequence:
 screw(left_hand, inwardgripper, chairnut1, chairseatbolt1)&#45;&gt;precondition:
 hold(left_hand, inwardgripper) -->
<g id="edge3" class="edge">
<title>sequence:
 screw(left_hand, inwardgripper, chairnut1, chairseatbolt1)&#45;&gt;precondition:
 hold(left_hand, inwardgripper)</title>
<path fill="none" stroke="black" d="M747.01,-113.77C683.37,-99.17 600.47,-80.14 532.06,-64.45"/>
<polygon fill="black" stroke="black" points="532.6,-60.98 522.07,-62.15 531.04,-67.8 532.6,-60.98"/>
</g>
<!-- precondition:
 hold(inwardgripper, chairnut1) -->
<g id="node5" class="node">
<title>precondition:
 hold(inwardgripper, chairnut1)</title>
<ellipse fill="#ffec8b" stroke="black" cx="847.48" cy="-33.94" rx="213.59" ry="33.88"/>
<text text-anchor="middle" x="847.48" y="-39.54" font-family="Times,serif" font-size="18.00">precondition:</text>
<text text-anchor="middle" x="847.48" y="-19.54" font-family="Times,serif" font-size="18.00"> hold(inwardgripper, chairnut1)</text>
</g>
<!-- sequence:
 screw(left_hand, inwardgripper, chairnut1, chairseatbolt1)&#45;&gt;precondition:
 hold(inwardgripper, chairnut1) -->
<g id="edge4" class="edge">
<title>sequence:
 screw(left_hand, inwardgripper, chairnut1, chairseatbolt1)&#45;&gt;precondition:
 hold(inwardgripper, chairnut1)</title>
<path fill="none" stroke="black" d="M847.48,-113.7C847.48,-103.16 847.48,-90.31 847.48,-78.08"/>
<polygon fill="black" stroke="black" points="850.98,-78.01 847.48,-68.01 843.98,-78.01 850.98,-78.01"/>
</g>
<!-- action:
 screw(left_hand, inwardgripper, chairnut1, chairseatbolt1) -->
<g id="node6" class="node">
<title>action:
 screw(left_hand, inwardgripper, chairnut1, chairseatbolt1)</title>
<ellipse fill="lightgreen" stroke="black" cx="1470.48" cy="-33.94" rx="391.97" ry="33.88"/>
<text text-anchor="middle" x="1470.48" y="-39.54" font-family="Times,serif" font-size="18.00">action:</text>
<text text-anchor="middle" x="1470.48" y="-19.54" font-family="Times,serif" font-size="18.00"> screw(left_hand, inwardgripper, chairnut1, chairseatbolt1)</text>
</g>
<!-- sequence:
 screw(left_hand, inwardgripper, chairnut1, chairseatbolt1)&#45;&gt;action:
 screw(left_hand, inwardgripper, chairnut1, chairseatbolt1) -->
<g id="edge5" class="edge">
<title>sequence:
 screw(left_hand, inwardgripper, chairnut1, chairseatbolt1)&#45;&gt;action:
 screw(left_hand, inwardgripper, chairnut1, chairseatbolt1)</title>
<path fill="none" stroke="black" d="M988.46,-113.77C1075.21,-99.58 1187.48,-81.22 1281.83,-65.79"/>
<polygon fill="black" stroke="black" points="1282.48,-69.23 1291.78,-64.16 1281.35,-62.32 1282.48,-69.23"/>
</g>
</g>
</svg>
