<?xml version="1.0" encoding="UTF-8" standalone="no"?>
<!DOCTYPE svg PUBLIC "-//W3C//DTD SVG 1.1//EN"
 "http://www.w3.org/Graphics/SVG/1.1/DTD/svg11.dtd">
<!-- Generated by graphviz version 2.43.0 (0)
 -->
<!-- Title: pastafarianism Pages: 1 -->
<svg width="3306pt" height="716pt"
 viewBox="0.00 0.00 3306.19 715.95" xmlns="http://www.w3.org/2000/svg" xmlns:xlink="http://www.w3.org/1999/xlink">
<g id="graph0" class="graph" transform="scale(1 1) rotate(0) translate(4 711.95)">
<title>pastafarianism</title>
<polygon fill="white" stroke="transparent" points="-4,4 -4,-711.95 3302.19,-711.95 3302.19,4 -4,4"/>
<!-- selector:
 screw(left_hand, inwardgripper, chairnut1, chairseatbolt1) -->
<g id="node1" class="node">
<title>selector:
 screw(left_hand, inwardgripper, chairnut1, chairseatbolt1)</title>
<polygon fill="#8deeee" stroke="black" points="1755.57,-655.9 1755.57,-686.53 1507.18,-708.19 1155.91,-708.19 907.52,-686.53 907.52,-655.9 1155.91,-634.24 1507.18,-634.24 1755.57,-655.9"/>
<text text-anchor="middle" x="1331.55" y="-676.82" font-family="Times,serif" font-size="18.00">selector:</text>
<text text-anchor="middle" x="1331.55" y="-656.82" font-family="Times,serif" font-size="18.00"> screw(left_hand, inwardgripper, chairnut1, chairseatbolt1)</text>
</g>
<!-- target:
 is_screwed_to(chairnut1, chairseatbolt1) -->
<g id="node2" class="node">
<title>target:
 is_screwed_to(chairnut1, chairseatbolt1)</title>
<ellipse fill="#ffec8b" stroke="black" cx="1046.55" cy="-564.54" rx="276.46" ry="33.88"/>
<text text-anchor="middle" x="1046.55" y="-570.14" font-family="Times,serif" font-size="18.00">target:</text>
<text text-anchor="middle" x="1046.55" y="-550.14" font-family="Times,serif" font-size="18.00"> is_screwed_to(chairnut1, chairseatbolt1)</text>
</g>
<!-- selector:
 screw(left_hand, inwardgripper, chairnut1, chairseatbolt1)&#45;&gt;target:
 is_screwed_to(chairnut1, chairseatbolt1) -->
<g id="edge1" class="edge">
<title>selector:
 screw(left_hand, inwardgripper, chairnut1, chairseatbolt1)&#45;&gt;target:
 is_screwed_to(chairnut1, chairseatbolt1)</title>
<path fill="none" stroke="black" d="M1233.86,-634.34C1204.06,-623.39 1171.34,-611.37 1141.7,-600.49"/>
<polygon fill="black" stroke="black" points="1142.79,-597.16 1132.19,-597 1140.37,-603.73 1142.79,-597.16"/>
</g>
<!-- sequence:
 screw(left_hand, inwardgripper, chairnut1, chairseatbolt1) -->
<g id="node3" class="node">
<title>sequence:
 screw(left_hand, inwardgripper, chairnut1, chairseatbolt1)</title>
<polygon fill="#ff7f24" stroke="black" points="1894.55,-588.54 1340.55,-588.54 1340.55,-540.54 1894.55,-540.54 1894.55,-588.54"/>
<text text-anchor="middle" x="1617.55" y="-570.14" font-family="Times,serif" font-size="18.00">sequence:</text>
<text text-anchor="middle" x="1617.55" y="-550.14" font-family="Times,serif" font-size="18.00"> screw(left_hand, inwardgripper, chairnut1, chairseatbolt1)</text>
</g>
<!-- selector:
 screw(left_hand, inwardgripper, chairnut1, chairseatbolt1)&#45;&gt;sequence:
 screw(left_hand, inwardgripper, chairnut1, chairseatbolt1) -->
<g id="edge2" class="edge">
<title>selector:
 screw(left_hand, inwardgripper, chairnut1, chairseatbolt1)&#45;&gt;sequence:
 screw(left_hand, inwardgripper, chairnut1, chairseatbolt1)</title>
<path fill="none" stroke="black" d="M1429.57,-634.34C1467.41,-620.49 1509.92,-604.93 1544.94,-592.11"/>
<polygon fill="black" stroke="black" points="1546.42,-595.3 1554.61,-588.58 1544.01,-588.73 1546.42,-595.3"/>
</g>
<!-- selector:
 change_tool(left_hand, defaultgripper, inwardgripper) -->
<g id="node4" class="node">
<title>selector:
 change_tool(left_hand, defaultgripper, inwardgripper)</title>
<polygon fill="#8deeee" stroke="black" points="1207.72,-442.54 1207.72,-473.18 979.16,-494.84 655.93,-494.84 427.37,-473.18 427.37,-442.54 655.93,-420.88 979.16,-420.88 1207.72,-442.54"/>
<text text-anchor="middle" x="817.55" y="-463.46" font-family="Times,serif" font-size="18.00">selector:</text>
<text text-anchor="middle" x="817.55" y="-443.46" font-family="Times,serif" font-size="18.00"> change_tool(left_hand, defaultgripper, inwardgripper)</text>
</g>
<!-- sequence:
 screw(left_hand, inwardgripper, chairnut1, chairseatbolt1)&#45;&gt;selector:
 change_tool(left_hand, defaultgripper, inwardgripper) -->
<g id="edge3" class="edge">
<title>sequence:
 screw(left_hand, inwardgripper, chairnut1, chairseatbolt1)&#45;&gt;selector:
 change_tool(left_hand, defaultgripper, inwardgripper)</title>
<path fill="none" stroke="black" d="M1441.49,-540.5C1327.94,-525.64 1178.87,-506.14 1054.92,-489.92"/>
<polygon fill="black" stroke="black" points="1055.27,-486.44 1044.9,-488.61 1054.37,-493.38 1055.27,-486.44"/>
</g>
<!-- selector:
 pick_up(left_hand, inwardgripper, chairnut1) -->
<g id="node15" class="node">
<title>selector:
 pick_up(left_hand, inwardgripper, chairnut1)</title>
<polygon fill="#8deeee" stroke="black" points="1945.2,-442.54 1945.2,-473.18 1753.27,-494.84 1481.83,-494.84 1289.89,-473.18 1289.89,-442.54 1481.83,-420.88 1753.27,-420.88 1945.2,-442.54"/>
<text text-anchor="middle" x="1617.55" y="-463.46" font-family="Times,serif" font-size="18.00">selector:</text>
<text text-anchor="middle" x="1617.55" y="-443.46" font-family="Times,serif" font-size="18.00"> pick_up(left_hand, inwardgripper, chairnut1)</text>
</g>
<!-- sequence:
 screw(left_hand, inwardgripper, chairnut1, chairseatbolt1)&#45;&gt;selector:
 pick_up(left_hand, inwardgripper, chairnut1) -->
<g id="edge14" class="edge">
<title>sequence:
 screw(left_hand, inwardgripper, chairnut1, chairseatbolt1)&#45;&gt;selector:
 pick_up(left_hand, inwardgripper, chairnut1)</title>
<path fill="none" stroke="black" d="M1617.55,-540.31C1617.55,-529.86 1617.55,-517.15 1617.55,-504.9"/>
<polygon fill="black" stroke="black" points="1621.05,-504.78 1617.55,-494.78 1614.05,-504.78 1621.05,-504.78"/>
</g>
<!-- action:
 screw(left_hand, inwardgripper, chairnut1, chairseatbolt1) -->
<g id="node21" class="node">
<title>action:
 screw(left_hand, inwardgripper, chairnut1, chairseatbolt1)</title>
<ellipse fill="lightgreen" stroke="black" cx="2354.55" cy="-457.86" rx="391.97" ry="33.88"/>
<text text-anchor="middle" x="2354.55" y="-463.46" font-family="Times,serif" font-size="18.00">action:</text>
<text text-anchor="middle" x="2354.55" y="-443.46" font-family="Times,serif" font-size="18.00"> screw(left_hand, inwardgripper, chairnut1, chairseatbolt1)</text>
</g>
<!-- sequence:
 screw(left_hand, inwardgripper, chairnut1, chairseatbolt1)&#45;&gt;action:
 screw(left_hand, inwardgripper, chairnut1, chairseatbolt1) -->
<g id="edge20" class="edge">
<title>sequence:
 screw(left_hand, inwardgripper, chairnut1, chairseatbolt1)&#45;&gt;action:
 screw(left_hand, inwardgripper, chairnut1, chairseatbolt1)</title>
<path fill="none" stroke="black" d="M1779.74,-540.5C1887.33,-525.22 2029.53,-505.02 2145.57,-488.54"/>
<polygon fill="black" stroke="black" points="2146.24,-491.98 2155.65,-487.11 2145.26,-485.05 2146.24,-491.98"/>
</g>
<!-- target:
 hold(left_hand, inwardgripper) -->
<g id="node5" class="node">
<title>target:
 hold(left_hand, inwardgripper)</title>
<ellipse fill="#ffec8b" stroke="black" cx="331.55" cy="-351.18" rx="212.68" ry="33.88"/>
<text text-anchor="middle" x="331.55" y="-356.78" font-family="Times,serif" font-size="18.00">target:</text>
<text text-anchor="middle" x="331.55" y="-336.78" font-family="Times,serif" font-size="18.00"> hold(left_hand, inwardgripper)</text>
</g>
<!-- selector:
 change_tool(left_hand, defaultgripper, inwardgripper)&#45;&gt;target:
 hold(left_hand, inwardgripper) -->
<g id="edge4" class="edge">
<title>selector:
 change_tool(left_hand, defaultgripper, inwardgripper)&#45;&gt;target:
 hold(left_hand, inwardgripper)</title>
<path fill="none" stroke="black" d="M651.99,-421.2C591.14,-408.09 523.06,-393.43 465.35,-381"/>
<polygon fill="black" stroke="black" points="465.95,-377.55 455.44,-378.87 464.48,-384.39 465.95,-377.55"/>
</g>
<!-- sequence:
 change_tool(left_hand, defaultgripper, inwardgripper) -->
<g id="node6" class="node">
<title>sequence:
 change_tool(left_hand, defaultgripper, inwardgripper)</title>
<polygon fill="#ff7f24" stroke="black" points="1072.55,-375.18 562.55,-375.18 562.55,-327.18 1072.55,-327.18 1072.55,-375.18"/>
<text text-anchor="middle" x="817.55" y="-356.78" font-family="Times,serif" font-size="18.00">sequence:</text>
<text text-anchor="middle" x="817.55" y="-336.78" font-family="Times,serif" font-size="18.00"> change_tool(left_hand, defaultgripper, inwardgripper)</text>
</g>
<!-- selector:
 change_tool(left_hand, defaultgripper, inwardgripper)&#45;&gt;sequence:
 change_tool(left_hand, defaultgripper, inwardgripper) -->
<g id="edge5" class="edge">
<title>selector:
 change_tool(left_hand, defaultgripper, inwardgripper)&#45;&gt;sequence:
 change_tool(left_hand, defaultgripper, inwardgripper)</title>
<path fill="none" stroke="black" d="M817.55,-420.84C817.55,-409.45 817.55,-396.92 817.55,-385.72"/>
<polygon fill="black" stroke="black" points="821.05,-385.47 817.55,-375.47 814.05,-385.47 821.05,-385.47"/>
</g>
<!-- precondition:
 hold(left_hand, defaultgripper) -->
<g id="node7" class="node">
<title>precondition:
 hold(left_hand, defaultgripper)</title>
<ellipse fill="#ffec8b" stroke="black" cx="213.55" cy="-244.5" rx="213.59" ry="33.88"/>
<text text-anchor="middle" x="213.55" y="-250.1" font-family="Times,serif" font-size="18.00">precondition:</text>
<text text-anchor="middle" x="213.55" y="-230.1" font-family="Times,serif" font-size="18.00"> hold(left_hand, defaultgripper)</text>
</g>
<!-- sequence:
 change_tool(left_hand, defaultgripper, inwardgripper)&#45;&gt;precondition:
 hold(left_hand, defaultgripper) -->
<g id="edge6" class="edge">
<title>sequence:
 change_tool(left_hand, defaultgripper, inwardgripper)&#45;&gt;precondition:
 hold(left_hand, defaultgripper)</title>
<path fill="none" stroke="black" d="M684.62,-327.14C590.18,-310.78 463.18,-288.77 364.85,-271.72"/>
<polygon fill="black" stroke="black" points="365.27,-268.25 354.82,-269.99 364.08,-275.14 365.27,-268.25"/>
</g>
<!-- selector:
 put_down(left_hand, defaultgripper, chairleg1) -->
<g id="node8" class="node">
<title>selector:
 put_down(left_hand, defaultgripper, chairleg1)</title>
<polygon fill="#8deeee" stroke="black" points="1126.22,-229.19 1126.22,-259.82 926.66,-281.48 644.43,-281.48 444.87,-259.82 444.87,-229.19 644.43,-207.53 926.66,-207.53 1126.22,-229.19"/>
<text text-anchor="middle" x="785.55" y="-250.1" font-family="Times,serif" font-size="18.00">selector:</text>
<text text-anchor="middle" x="785.55" y="-230.1" font-family="Times,serif" font-size="18.00"> put_down(left_hand, defaultgripper, chairleg1)</text>
</g>
<!-- sequence:
 change_tool(left_hand, defaultgripper, inwardgripper)&#45;&gt;selector:
 put_down(left_hand, defaultgripper, chairleg1) -->
<g id="edge7" class="edge">
<title>sequence:
 change_tool(left_hand, defaultgripper, inwardgripper)&#45;&gt;selector:
 put_down(left_hand, defaultgripper, chairleg1)</title>
<path fill="none" stroke="black" d="M810.44,-326.95C807.22,-316.4 803.29,-303.53 799.51,-291.17"/>
<polygon fill="black" stroke="black" points="802.8,-289.96 796.53,-281.42 796.1,-292.01 802.8,-289.96"/>
</g>
<!-- action:
 change_tool(left_hand, defaultgripper, inwardgripper) -->
<g id="node14" class="node">
<title>action:
 change_tool(left_hand, defaultgripper, inwardgripper)</title>
<ellipse fill="lightgreen" stroke="black" cx="1504.55" cy="-244.5" rx="360.75" ry="33.88"/>
<text text-anchor="middle" x="1504.55" y="-250.1" font-family="Times,serif" font-size="18.00">action:</text>
<text text-anchor="middle" x="1504.55" y="-230.1" font-family="Times,serif" font-size="18.00"> change_tool(left_hand, defaultgripper, inwardgripper)</text>
</g>
<!-- sequence:
 change_tool(left_hand, defaultgripper, inwardgripper)&#45;&gt;action:
 change_tool(left_hand, defaultgripper, inwardgripper) -->
<g id="edge13" class="edge">
<title>sequence:
 change_tool(left_hand, defaultgripper, inwardgripper)&#45;&gt;action:
 change_tool(left_hand, defaultgripper, inwardgripper)</title>
<path fill="none" stroke="black" d="M968.74,-327.14C1069.01,-311.86 1201.55,-291.67 1309.72,-275.19"/>
<polygon fill="black" stroke="black" points="1310.42,-278.62 1319.78,-273.66 1309.36,-271.7 1310.42,-278.62"/>
</g>
<!-- target:
 is_empty(defaultgripper) -->
<g id="node9" class="node">
<title>target:
 is_empty(defaultgripper)</title>
<ellipse fill="#ffec8b" stroke="black" cx="577.55" cy="-137.82" rx="175.23" ry="33.88"/>
<text text-anchor="middle" x="577.55" y="-143.42" font-family="Times,serif" font-size="18.00">target:</text>
<text text-anchor="middle" x="577.55" y="-123.42" font-family="Times,serif" font-size="18.00"> is_empty(defaultgripper)</text>
</g>
<!-- selector:
 put_down(left_hand, defaultgripper, chairleg1)&#45;&gt;target:
 is_empty(defaultgripper) -->
<g id="edge8" class="edge">
<title>selector:
 put_down(left_hand, defaultgripper, chairleg1)&#45;&gt;target:
 is_empty(defaultgripper)</title>
<path fill="none" stroke="black" d="M714.26,-207.62C692.85,-196.85 669.39,-185.05 648.04,-174.3"/>
<polygon fill="black" stroke="black" points="649.54,-171.13 639.03,-169.77 646.39,-177.39 649.54,-171.13"/>
</g>
<!-- sequence:
 put_down(left_hand, defaultgripper, chairleg1) -->
<g id="node10" class="node">
<title>sequence:
 put_down(left_hand, defaultgripper, chairleg1)</title>
<polygon fill="#ff7f24" stroke="black" points="1216.05,-161.82 771.05,-161.82 771.05,-113.82 1216.05,-113.82 1216.05,-161.82"/>
<text text-anchor="middle" x="993.55" y="-143.42" font-family="Times,serif" font-size="18.00">sequence:</text>
<text text-anchor="middle" x="993.55" y="-123.42" font-family="Times,serif" font-size="18.00"> put_down(left_hand, defaultgripper, chairleg1)</text>
</g>
<!-- selector:
 put_down(left_hand, defaultgripper, chairleg1)&#45;&gt;sequence:
 put_down(left_hand, defaultgripper, chairleg1) -->
<g id="edge9" class="edge">
<title>selector:
 put_down(left_hand, defaultgripper, chairleg1)&#45;&gt;sequence:
 put_down(left_hand, defaultgripper, chairleg1)</title>
<path fill="none" stroke="black" d="M856.84,-207.62C883.65,-194.13 913.69,-179.01 938.77,-166.39"/>
<polygon fill="black" stroke="black" points="940.41,-169.48 947.77,-161.86 937.27,-163.23 940.41,-169.48"/>
</g>
<!-- &quot;precondition:\n hold(left_hand, defaultgripper)&quot;* -->
<g id="node11" class="node">
<title>&quot;precondition:\n hold(left_hand, defaultgripper)&quot;*</title>
<ellipse fill="#ffec8b" stroke="black" cx="537.55" cy="-33.94" rx="225.63" ry="33.88"/>
<text text-anchor="middle" x="537.55" y="-39.54" font-family="Times,serif" font-size="18.00">&quot;precondition:</text>
<text text-anchor="middle" x="537.55" y="-19.54" font-family="Times,serif" font-size="18.00"> hold(left_hand, defaultgripper)&quot;*</text>
</g>
<!-- sequence:
 put_down(left_hand, defaultgripper, chairleg1)&#45;&gt;&quot;precondition:\n hold(left_hand, defaultgripper)&quot;* -->
<g id="edge10" class="edge">
<title>sequence:
 put_down(left_hand, defaultgripper, chairleg1)&#45;&gt;&quot;precondition:\n hold(left_hand, defaultgripper)&quot;*</title>
<path fill="none" stroke="black" d="M890.36,-113.77C825.24,-99.22 740.5,-80.29 670.38,-64.62"/>
<polygon fill="black" stroke="black" points="671.11,-61.2 660.59,-62.43 669.59,-68.03 671.11,-61.2"/>
</g>
<!-- precondition:
 hold(defaultgripper, chairleg1) -->
<g id="node12" class="node">
<title>precondition:
 hold(defaultgripper, chairleg1)</title>
<ellipse fill="#ffec8b" stroke="black" cx="993.55" cy="-33.94" rx="212.26" ry="33.88"/>
<text text-anchor="middle" x="993.55" y="-39.54" font-family="Times,serif" font-size="18.00">precondition:</text>
<text text-anchor="middle" x="993.55" y="-19.54" font-family="Times,serif" font-size="18.00"> hold(defaultgripper, chairleg1)</text>
</g>
<!-- sequence:
 put_down(left_hand, defaultgripper, chairleg1)&#45;&gt;precondition:
 hold(defaultgripper, chairleg1) -->
<g id="edge11" class="edge">
<title>sequence:
 put_down(left_hand, defaultgripper, chairleg1)&#45;&gt;precondition:
 hold(defaultgripper, chairleg1)</title>
<path fill="none" stroke="black" d="M993.55,-113.7C993.55,-103.16 993.55,-90.31 993.55,-78.08"/>
<polygon fill="black" stroke="black" points="997.05,-78.01 993.55,-68.01 990.05,-78.01 997.05,-78.01"/>
</g>
<!-- action:
 put_down(left_hand, defaultgripper, chairleg1) -->
<g id="node13" class="node">
<title>action:
 put_down(left_hand, defaultgripper, chairleg1)</title>
<ellipse fill="lightgreen" stroke="black" cx="1538.55" cy="-33.94" rx="314.83" ry="33.88"/>
<text text-anchor="middle" x="1538.55" y="-39.54" font-family="Times,serif" font-size="18.00">action:</text>
<text text-anchor="middle" x="1538.55" y="-19.54" font-family="Times,serif" font-size="18.00"> put_down(left_hand, defaultgripper, chairleg1)</text>
</g>
<!-- sequence:
 put_down(left_hand, defaultgripper, chairleg1)&#45;&gt;action:
 put_down(left_hand, defaultgripper, chairleg1) -->
<g id="edge12" class="edge">
<title>sequence:
 put_down(left_hand, defaultgripper, chairleg1)&#45;&gt;action:
 put_down(left_hand, defaultgripper, chairleg1)</title>
<path fill="none" stroke="black" d="M1116.87,-113.77C1193.29,-99.48 1292.33,-80.97 1375.22,-65.47"/>
<polygon fill="black" stroke="black" points="1376.06,-68.88 1385.24,-63.6 1374.77,-62 1376.06,-68.88"/>
</g>
<!-- target:
 hold(inwardgripper, chairnut1) -->
<g id="node16" class="node">
<title>target:
 hold(inwardgripper, chairnut1)</title>
<ellipse fill="#ffec8b" stroke="black" cx="1617.55" cy="-351.18" rx="213.59" ry="33.88"/>
<text text-anchor="middle" x="1617.55" y="-356.78" font-family="Times,serif" font-size="18.00">target:</text>
<text text-anchor="middle" x="1617.55" y="-336.78" font-family="Times,serif" font-size="18.00"> hold(inwardgripper, chairnut1)</text>
</g>
<!-- selector:
 pick_up(left_hand, inwardgripper, chairnut1)&#45;&gt;target:
 hold(inwardgripper, chairnut1) -->
<g id="edge15" class="edge">
<title>selector:
 pick_up(left_hand, inwardgripper, chairnut1)&#45;&gt;target:
 hold(inwardgripper, chairnut1)</title>
<path fill="none" stroke="black" d="M1617.55,-420.84C1617.55,-412.68 1617.55,-403.93 1617.55,-395.51"/>
<polygon fill="black" stroke="black" points="1621.05,-395.46 1617.55,-385.46 1614.05,-395.46 1621.05,-395.46"/>
</g>
<!-- sequence:
 pick_up(left_hand, inwardgripper, chairnut1) -->
<g id="node17" class="node">
<title>sequence:
 pick_up(left_hand, inwardgripper, chairnut1)</title>
<polygon fill="#ff7f24" stroke="black" points="2511.55,-375.18 2083.55,-375.18 2083.55,-327.18 2511.55,-327.18 2511.55,-375.18"/>
<text text-anchor="middle" x="2297.55" y="-356.78" font-family="Times,serif" font-size="18.00">sequence:</text>
<text text-anchor="middle" x="2297.55" y="-336.78" font-family="Times,serif" font-size="18.00"> pick_up(left_hand, inwardgripper, chairnut1)</text>
</g>
<!-- selector:
 pick_up(left_hand, inwardgripper, chairnut1)&#45;&gt;sequence:
 pick_up(left_hand, inwardgripper, chairnut1) -->
<g id="edge16" class="edge">
<title>selector:
 pick_up(left_hand, inwardgripper, chairnut1)&#45;&gt;sequence:
 pick_up(left_hand, inwardgripper, chairnut1)</title>
<path fill="none" stroke="black" d="M1810.13,-427.21C1913.69,-411.27 2039.86,-391.85 2137.89,-376.76"/>
<polygon fill="black" stroke="black" points="2138.54,-380.2 2147.89,-375.22 2137.47,-373.28 2138.54,-380.2"/>
</g>
<!-- precondition:
 hold(left_hand, inwardgripper) -->
<g id="node18" class="node">
<title>precondition:
 hold(left_hand, inwardgripper)</title>
<ellipse fill="#ffec8b" stroke="black" cx="2095.55" cy="-244.5" rx="212.68" ry="33.88"/>
<text text-anchor="middle" x="2095.55" y="-250.1" font-family="Times,serif" font-size="18.00">precondition:</text>
<text text-anchor="middle" x="2095.55" y="-230.1" font-family="Times,serif" font-size="18.00"> hold(left_hand, inwardgripper)</text>
</g>
<!-- sequence:
 pick_up(left_hand, inwardgripper, chairnut1)&#45;&gt;precondition:
 hold(left_hand, inwardgripper) -->
<g id="edge17" class="edge">
<title>sequence:
 pick_up(left_hand, inwardgripper, chairnut1)&#45;&gt;precondition:
 hold(left_hand, inwardgripper)</title>
<path fill="none" stroke="black" d="M2252.72,-326.95C2227.23,-313.74 2194.75,-296.91 2165.93,-281.98"/>
<polygon fill="black" stroke="black" points="2167.21,-278.7 2156.72,-277.2 2163.99,-284.91 2167.21,-278.7"/>
</g>
<!-- precondition:
 is_empty(inwardgripper) -->
<g id="node19" class="node">
<title>precondition:
 is_empty(inwardgripper)</title>
<ellipse fill="#ffec8b" stroke="black" cx="2500.55" cy="-244.5" rx="174.81" ry="33.88"/>
<text text-anchor="middle" x="2500.55" y="-250.1" font-family="Times,serif" font-size="18.00">precondition:</text>
<text text-anchor="middle" x="2500.55" y="-230.1" font-family="Times,serif" font-size="18.00"> is_empty(inwardgripper)</text>
</g>
<!-- sequence:
 pick_up(left_hand, inwardgripper, chairnut1)&#45;&gt;precondition:
 is_empty(inwardgripper) -->
<g id="edge18" class="edge">
<title>sequence:
 pick_up(left_hand, inwardgripper, chairnut1)&#45;&gt;precondition:
 is_empty(inwardgripper)</title>
<path fill="none" stroke="black" d="M2342.35,-327.08C2368.48,-313.6 2402,-296.32 2431.46,-281.13"/>
<polygon fill="black" stroke="black" points="2433.17,-284.18 2440.45,-276.49 2429.96,-277.96 2433.17,-284.18"/>
</g>
<!-- action:
 pick_up(left_hand, inwardgripper, chairnut1) -->
<g id="node20" class="node">
<title>action:
 pick_up(left_hand, inwardgripper, chairnut1)</title>
<ellipse fill="lightgreen" stroke="black" cx="2995.55" cy="-244.5" rx="302.78" ry="33.88"/>
<text text-anchor="middle" x="2995.55" y="-250.1" font-family="Times,serif" font-size="18.00">action:</text>
<text text-anchor="middle" x="2995.55" y="-230.1" font-family="Times,serif" font-size="18.00"> pick_up(left_hand, inwardgripper, chairnut1)</text>
</g>
<!-- sequence:
 pick_up(left_hand, inwardgripper, chairnut1)&#45;&gt;action:
 pick_up(left_hand, inwardgripper, chairnut1) -->
<g id="edge19" class="edge">
<title>sequence:
 pick_up(left_hand, inwardgripper, chairnut1)&#45;&gt;action:
 pick_up(left_hand, inwardgripper, chairnut1)</title>
<path fill="none" stroke="black" d="M2451.16,-327.14C2556.36,-311.37 2696.5,-290.35 2808.25,-273.59"/>
<polygon fill="black" stroke="black" points="2808.92,-277.03 2818.29,-272.08 2807.88,-270.11 2808.92,-277.03"/>
</g>
</g>
</svg>
