<?xml version="1.0" encoding="UTF-8" standalone="no"?>
<!DOCTYPE svg PUBLIC "-//W3C//DTD SVG 1.1//EN"
 "http://www.w3.org/Graphics/SVG/1.1/DTD/svg11.dtd">
<!-- Generated by graphviz version 2.43.0 (0)
 -->
<!-- Title: pastafarianism Pages: 1 -->
<svg width="1461pt" height="476pt"
 viewBox="0.00 0.00 1460.57 476.00" xmlns="http://www.w3.org/2000/svg" xmlns:xlink="http://www.w3.org/1999/xlink">
<g id="graph0" class="graph" transform="scale(1 1) rotate(0) translate(4 472)">
<title>pastafarianism</title>
<polygon fill="white" stroke="transparent" points="-4,4 -4,-472 1456.57,-472 1456.57,4 -4,4"/>
<!-- Sequence -->
<g id="node1" class="node">
<title>Sequence</title>
<polygon fill="orange" stroke="black" points="687.5,-468 625.5,-468 625.5,-432 687.5,-432 687.5,-468"/>
<text text-anchor="middle" x="656.5" y="-447.8" font-family="Times,serif" font-size="9.00">Sequence</text>
</g>
<!-- Fallback -->
<g id="node2" class="node">
<title>Fallback</title>
<polygon fill="cyan" stroke="black" points="405.49,-370.54 405.49,-385.46 385,-396 356.01,-396 335.51,-385.46 335.51,-370.54 356.01,-360 385,-360 405.49,-370.54"/>
<text text-anchor="middle" x="370.5" y="-375.8" font-family="Times,serif" font-size="9.00">Fallback</text>
</g>
<!-- Sequence&#45;&gt;Fallback -->
<g id="edge1" class="edge">
<title>Sequence&#45;&gt;Fallback</title>
<path fill="none" stroke="black" d="M625.35,-441.38C573.86,-428.77 470.94,-403.58 412.88,-389.37"/>
<polygon fill="black" stroke="black" points="413.48,-385.91 402.93,-386.94 411.81,-392.71 413.48,-385.91"/>
</g>
<!-- Fallback &#160;&#160; -->
<g id="node13" class="node">
<title>Fallback &#160;&#160;</title>
<polygon fill="cyan" stroke="black" points="691.49,-370.54 691.49,-385.46 671,-396 642.01,-396 621.51,-385.46 621.51,-370.54 642.01,-360 671,-360 691.49,-370.54"/>
<text text-anchor="middle" x="656.5" y="-375.8" font-family="Times,serif" font-size="9.00">Fallback</text>
</g>
<!-- Sequence&#45;&gt;Fallback &#160;&#160; -->
<g id="edge12" class="edge">
<title>Sequence&#45;&gt;Fallback &#160;&#160;</title>
<path fill="none" stroke="black" d="M656.5,-431.7C656.5,-423.98 656.5,-414.71 656.5,-406.11"/>
<polygon fill="black" stroke="black" points="660,-406.1 656.5,-396.1 653,-406.1 660,-406.1"/>
</g>
<!-- Fallback &#160;&#160;&#160;&#160;&#160; -->
<g id="node24" class="node">
<title>Fallback &#160;&#160;&#160;&#160;&#160;</title>
<polygon fill="cyan" stroke="black" points="988.49,-370.54 988.49,-385.46 968,-396 939.01,-396 918.51,-385.46 918.51,-370.54 939.01,-360 968,-360 988.49,-370.54"/>
<text text-anchor="middle" x="953.5" y="-375.8" font-family="Times,serif" font-size="9.00">Fallback</text>
</g>
<!-- Sequence&#45;&gt;Fallback &#160;&#160;&#160;&#160;&#160; -->
<g id="edge23" class="edge">
<title>Sequence&#45;&gt;Fallback &#160;&#160;&#160;&#160;&#160;</title>
<path fill="none" stroke="black" d="M687.73,-441.64C741.08,-429.06 849.91,-403.42 910.44,-389.15"/>
<polygon fill="black" stroke="black" points="911.51,-392.49 920.44,-386.79 909.91,-385.68 911.51,-392.49"/>
</g>
<!-- object_at GreenBox [0.0, &#45;0.133, 0.175] 0.02 KittingBox -->
<g id="node3" class="node">
<title>object_at GreenBox [0.0, &#45;0.133, 0.175] 0.02 KittingBox</title>
<ellipse fill="lightgray" stroke="black" cx="160.5" cy="-306" rx="160.51" ry="18"/>
<text text-anchor="middle" x="160.5" y="-303.8" font-family="Times,serif" font-size="9.00">object_at GreenBox [0.0, &#45;0.133, 0.175] 0.02 KittingBox</text>
</g>
<!-- Fallback&#45;&gt;object_at GreenBox [0.0, &#45;0.133, 0.175] 0.02 KittingBox -->
<g id="edge2" class="edge">
<title>Fallback&#45;&gt;object_at GreenBox [0.0, &#45;0.133, 0.175] 0.02 KittingBox</title>
<path fill="none" stroke="black" d="M341.3,-367.27C309.76,-356.75 258.66,-339.72 218.83,-326.44"/>
<polygon fill="black" stroke="black" points="219.81,-323.08 209.22,-323.24 217.6,-329.72 219.81,-323.08"/>
</g>
<!-- Sequence  -->
<g id="node4" class="node">
<title>Sequence </title>
<polygon fill="orange" stroke="black" points="401.5,-324 339.5,-324 339.5,-288 401.5,-288 401.5,-324"/>
<text text-anchor="middle" x="370.5" y="-303.8" font-family="Times,serif" font-size="9.00">Sequence</text>
</g>
<!-- Fallback&#45;&gt;Sequence  -->
<g id="edge3" class="edge">
<title>Fallback&#45;&gt;Sequence </title>
<path fill="none" stroke="black" d="M370.5,-359.7C370.5,-351.98 370.5,-342.71 370.5,-334.11"/>
<polygon fill="black" stroke="black" points="374,-334.1 370.5,-324.1 367,-334.1 374,-334.1"/>
</g>
<!-- Fallback  -->
<g id="node5" class="node">
<title>Fallback </title>
<polygon fill="cyan" stroke="black" points="244.49,-226.54 244.49,-241.46 224,-252 195.01,-252 174.51,-241.46 174.51,-226.54 195.01,-216 224,-216 244.49,-226.54"/>
<text text-anchor="middle" x="209.5" y="-231.8" font-family="Times,serif" font-size="9.00">Fallback</text>
</g>
<!-- Sequence &#45;&gt;Fallback  -->
<g id="edge4" class="edge">
<title>Sequence &#45;&gt;Fallback </title>
<path fill="none" stroke="black" d="M339.46,-291.5C312.41,-279.74 273.18,-262.69 244.91,-250.39"/>
<polygon fill="black" stroke="black" points="245.97,-247.04 235.4,-246.26 243.18,-253.46 245.97,-247.04"/>
</g>
<!-- place0 GreenBox [0.0, &#45;0.133, 0.175] 0.02 KittingBox -->
<g id="node12" class="node">
<title>place0 GreenBox [0.0, &#45;0.133, 0.175] 0.02 KittingBox</title>
<ellipse fill="lightgray" stroke="black" cx="416.5" cy="-234" rx="154.31" ry="18"/>
<text text-anchor="middle" x="416.5" y="-231.8" font-family="Times,serif" font-size="9.00">place0 GreenBox [0.0, &#45;0.133, 0.175] 0.02 KittingBox</text>
</g>
<!-- Sequence &#45;&gt;place0 GreenBox [0.0, &#45;0.133, 0.175] 0.02 KittingBox -->
<g id="edge11" class="edge">
<title>Sequence &#45;&gt;place0 GreenBox [0.0, &#45;0.133, 0.175] 0.02 KittingBox</title>
<path fill="none" stroke="black" d="M381.87,-287.7C387.22,-279.56 393.71,-269.69 399.61,-260.7"/>
<polygon fill="black" stroke="black" points="402.7,-262.38 405.26,-252.1 396.85,-258.54 402.7,-262.38"/>
</g>
<!-- in_gripper GreenBox -->
<g id="node6" class="node">
<title>in_gripper GreenBox</title>
<ellipse fill="lightgray" stroke="black" cx="182.5" cy="-162" rx="65.64" ry="18"/>
<text text-anchor="middle" x="182.5" y="-159.8" font-family="Times,serif" font-size="9.00">in_gripper GreenBox</text>
</g>
<!-- Fallback &#45;&gt;in_gripper GreenBox -->
<g id="edge5" class="edge">
<title>Fallback &#45;&gt;in_gripper GreenBox</title>
<path fill="none" stroke="black" d="M202.83,-215.7C199.79,-207.81 196.12,-198.3 192.74,-189.55"/>
<polygon fill="black" stroke="black" points="195.97,-188.17 189.1,-180.1 189.43,-190.69 195.97,-188.17"/>
</g>
<!-- Sequence &#160; -->
<g id="node7" class="node">
<title>Sequence &#160;</title>
<polygon fill="orange" stroke="black" points="328.5,-180 266.5,-180 266.5,-144 328.5,-144 328.5,-180"/>
<text text-anchor="middle" x="297.5" y="-159.8" font-family="Times,serif" font-size="9.00">Sequence</text>
</g>
<!-- Fallback &#45;&gt;Sequence &#160; -->
<g id="edge6" class="edge">
<title>Fallback &#45;&gt;Sequence &#160;</title>
<path fill="none" stroke="black" d="M228.6,-217.81C240.04,-208.71 254.84,-196.94 267.79,-186.64"/>
<polygon fill="black" stroke="black" points="270.33,-189.09 275.97,-180.13 265.97,-183.61 270.33,-189.09"/>
</g>
<!-- Fallback &#160; -->
<g id="node8" class="node">
<title>Fallback &#160;</title>
<polygon fill="cyan" stroke="black" points="325.49,-82.54 325.49,-97.46 305,-108 276.01,-108 255.51,-97.46 255.51,-82.54 276.01,-72 305,-72 325.49,-82.54"/>
<text text-anchor="middle" x="290.5" y="-87.8" font-family="Times,serif" font-size="9.00">Fallback</text>
</g>
<!-- Sequence &#160;&#45;&gt;Fallback &#160; -->
<g id="edge7" class="edge">
<title>Sequence &#160;&#45;&gt;Fallback &#160;</title>
<path fill="none" stroke="black" d="M295.77,-143.7C295,-135.98 294.07,-126.71 293.21,-118.11"/>
<polygon fill="black" stroke="black" points="296.69,-117.71 292.21,-108.1 289.73,-118.4 296.69,-117.71"/>
</g>
<!-- pick0 GreenBox -->
<g id="node11" class="node">
<title>pick0 GreenBox</title>
<ellipse fill="lightgray" stroke="black" cx="396.5" cy="-90" rx="52.58" ry="18"/>
<text text-anchor="middle" x="396.5" y="-87.8" font-family="Times,serif" font-size="9.00">pick0 GreenBox</text>
</g>
<!-- Sequence &#160;&#45;&gt;pick0 GreenBox -->
<g id="edge10" class="edge">
<title>Sequence &#160;&#45;&gt;pick0 GreenBox</title>
<path fill="none" stroke="black" d="M321.72,-143.88C335.09,-134.42 351.82,-122.59 366.07,-112.52"/>
<polygon fill="black" stroke="black" points="368.42,-115.15 374.56,-106.51 364.38,-109.43 368.42,-115.15"/>
</g>
<!-- gripper_state open -->
<g id="node9" class="node">
<title>gripper_state open</title>
<ellipse fill="lightgray" stroke="black" cx="208.5" cy="-18" rx="60.09" ry="18"/>
<text text-anchor="middle" x="208.5" y="-15.8" font-family="Times,serif" font-size="9.00">gripper_state open</text>
</g>
<!-- Fallback &#160;&#45;&gt;gripper_state open -->
<g id="edge8" class="edge">
<title>Fallback &#160;&#45;&gt;gripper_state open</title>
<path fill="none" stroke="black" d="M272.3,-73.46C261.39,-64.15 247.31,-52.13 235.16,-41.76"/>
<polygon fill="black" stroke="black" points="237.38,-39.05 227.51,-35.22 232.84,-44.38 237.38,-39.05"/>
</g>
<!-- open_gripper -->
<g id="node10" class="node">
<title>open_gripper</title>
<ellipse fill="lightgray" stroke="black" cx="332.5" cy="-18" rx="45.72" ry="18"/>
<text text-anchor="middle" x="332.5" y="-15.8" font-family="Times,serif" font-size="9.00">open_gripper</text>
</g>
<!-- Fallback &#160;&#45;&gt;open_gripper -->
<g id="edge9" class="edge">
<title>Fallback &#160;&#45;&gt;open_gripper</title>
<path fill="none" stroke="black" d="M300.89,-71.7C305.84,-63.44 311.87,-53.39 317.32,-44.3"/>
<polygon fill="black" stroke="black" points="320.39,-46 322.53,-35.62 314.38,-42.4 320.39,-46"/>
</g>
<!-- object_at BlueBox [0.0, 0.0, 0.22] 0.02 GreenBox -->
<g id="node14" class="node">
<title>object_at BlueBox [0.0, 0.0, 0.22] 0.02 GreenBox</title>
<ellipse fill="lightgray" stroke="black" cx="561.5" cy="-306" rx="142.06" ry="18"/>
<text text-anchor="middle" x="561.5" y="-303.8" font-family="Times,serif" font-size="9.00">object_at BlueBox [0.0, 0.0, 0.22] 0.02 GreenBox</text>
</g>
<!-- Fallback &#160;&#160;&#45;&gt;object_at BlueBox [0.0, 0.0, 0.22] 0.02 GreenBox -->
<g id="edge13" class="edge">
<title>Fallback &#160;&#160;&#45;&gt;object_at BlueBox [0.0, 0.0, 0.22] 0.02 GreenBox</title>
<path fill="none" stroke="black" d="M636.82,-362.5C624.1,-353.12 607.27,-340.72 592.74,-330.02"/>
<polygon fill="black" stroke="black" points="594.63,-327.06 584.51,-323.95 590.48,-332.7 594.63,-327.06"/>
</g>
<!-- Sequence &#160;&#160; -->
<g id="node15" class="node">
<title>Sequence &#160;&#160;</title>
<polygon fill="orange" stroke="black" points="783.5,-324 721.5,-324 721.5,-288 783.5,-288 783.5,-324"/>
<text text-anchor="middle" x="752.5" y="-303.8" font-family="Times,serif" font-size="9.00">Sequence</text>
</g>
<!-- Fallback &#160;&#160;&#45;&gt;Sequence &#160;&#160; -->
<g id="edge14" class="edge">
<title>Fallback &#160;&#160;&#45;&gt;Sequence &#160;&#160;</title>
<path fill="none" stroke="black" d="M676.39,-362.5C689.16,-353.19 706.01,-340.9 720.62,-330.25"/>
<polygon fill="black" stroke="black" points="722.89,-332.92 728.91,-324.2 718.77,-327.27 722.89,-332.92"/>
</g>
<!-- Fallback &#160;&#160;&#160; -->
<g id="node16" class="node">
<title>Fallback &#160;&#160;&#160;</title>
<polygon fill="cyan" stroke="black" points="671.49,-226.54 671.49,-241.46 651,-252 622.01,-252 601.51,-241.46 601.51,-226.54 622.01,-216 651,-216 671.49,-226.54"/>
<text text-anchor="middle" x="636.5" y="-231.8" font-family="Times,serif" font-size="9.00">Fallback</text>
</g>
<!-- Sequence &#160;&#160;&#45;&gt;Fallback &#160;&#160;&#160; -->
<g id="edge15" class="edge">
<title>Sequence &#160;&#160;&#45;&gt;Fallback &#160;&#160;&#160;</title>
<path fill="none" stroke="black" d="M724.13,-287.88C706.88,-277.47 684.85,-264.17 667.2,-253.52"/>
<polygon fill="black" stroke="black" points="668.78,-250.39 658.41,-248.22 665.16,-256.38 668.78,-250.39"/>
</g>
<!-- place0 BlueBox [0.0, 0.0, 0.22] 0.02 GreenBox -->
<g id="node23" class="node">
<title>place0 BlueBox [0.0, 0.0, 0.22] 0.02 GreenBox</title>
<ellipse fill="lightgray" stroke="black" cx="825.5" cy="-234" rx="135.85" ry="18"/>
<text text-anchor="middle" x="825.5" y="-231.8" font-family="Times,serif" font-size="9.00">place0 BlueBox [0.0, 0.0, 0.22] 0.02 GreenBox</text>
</g>
<!-- Sequence &#160;&#160;&#45;&gt;place0 BlueBox [0.0, 0.0, 0.22] 0.02 GreenBox -->
<g id="edge22" class="edge">
<title>Sequence &#160;&#160;&#45;&gt;place0 BlueBox [0.0, 0.0, 0.22] 0.02 GreenBox</title>
<path fill="none" stroke="black" d="M770.55,-287.7C779.63,-278.99 790.79,-268.29 800.67,-258.82"/>
<polygon fill="black" stroke="black" points="803.12,-261.31 807.92,-251.86 798.28,-256.26 803.12,-261.31"/>
</g>
<!-- in_gripper BlueBox -->
<g id="node17" class="node">
<title>in_gripper BlueBox</title>
<ellipse fill="lightgray" stroke="black" cx="528.5" cy="-162" rx="61.55" ry="18"/>
<text text-anchor="middle" x="528.5" y="-159.8" font-family="Times,serif" font-size="9.00">in_gripper BlueBox</text>
</g>
<!-- Fallback &#160;&#160;&#160;&#45;&gt;in_gripper BlueBox -->
<g id="edge16" class="edge">
<title>Fallback &#160;&#160;&#160;&#45;&gt;in_gripper BlueBox</title>
<path fill="none" stroke="black" d="M615.42,-219.34C600.16,-209.44 579.22,-195.87 561.72,-184.53"/>
<polygon fill="black" stroke="black" points="563.22,-181.33 552.93,-178.83 559.42,-187.21 563.22,-181.33"/>
</g>
<!-- Sequence &#160;&#160;&#160; -->
<g id="node18" class="node">
<title>Sequence &#160;&#160;&#160;</title>
<polygon fill="orange" stroke="black" points="670.5,-180 608.5,-180 608.5,-144 670.5,-144 670.5,-180"/>
<text text-anchor="middle" x="639.5" y="-159.8" font-family="Times,serif" font-size="9.00">Sequence</text>
</g>
<!-- Fallback &#160;&#160;&#160;&#45;&gt;Sequence &#160;&#160;&#160; -->
<g id="edge17" class="edge">
<title>Fallback &#160;&#160;&#160;&#45;&gt;Sequence &#160;&#160;&#160;</title>
<path fill="none" stroke="black" d="M637.24,-215.7C637.58,-207.98 637.97,-198.71 638.34,-190.11"/>
<polygon fill="black" stroke="black" points="641.84,-190.25 638.77,-180.1 634.85,-189.95 641.84,-190.25"/>
</g>
<!-- Fallback &#160;&#160;&#160;&#160; -->
<g id="node19" class="node">
<title>Fallback &#160;&#160;&#160;&#160;</title>
<polygon fill="cyan" stroke="black" points="577.49,-82.54 577.49,-97.46 557,-108 528.01,-108 507.51,-97.46 507.51,-82.54 528.01,-72 557,-72 577.49,-82.54"/>
<text text-anchor="middle" x="542.5" y="-87.8" font-family="Times,serif" font-size="9.00">Fallback</text>
</g>
<!-- Sequence &#160;&#160;&#160;&#45;&gt;Fallback &#160;&#160;&#160;&#160; -->
<g id="edge18" class="edge">
<title>Sequence &#160;&#160;&#160;&#45;&gt;Fallback &#160;&#160;&#160;&#160;</title>
<path fill="none" stroke="black" d="M615.53,-143.7C601.96,-133.91 584.92,-121.61 570.71,-111.36"/>
<polygon fill="black" stroke="black" points="572.45,-108.29 562.29,-105.28 568.35,-113.97 572.45,-108.29"/>
</g>
<!-- pick0 BlueBox -->
<g id="node22" class="node">
<title>pick0 BlueBox</title>
<ellipse fill="lightgray" stroke="black" cx="643.5" cy="-90" rx="47.84" ry="18"/>
<text text-anchor="middle" x="643.5" y="-87.8" font-family="Times,serif" font-size="9.00">pick0 BlueBox</text>
</g>
<!-- Sequence &#160;&#160;&#160;&#45;&gt;pick0 BlueBox -->
<g id="edge21" class="edge">
<title>Sequence &#160;&#160;&#160;&#45;&gt;pick0 BlueBox</title>
<path fill="none" stroke="black" d="M640.49,-143.7C640.93,-135.98 641.46,-126.71 641.95,-118.11"/>
<polygon fill="black" stroke="black" points="645.45,-118.29 642.53,-108.1 638.46,-117.89 645.45,-118.29"/>
</g>
<!-- gripper_state open  -->
<g id="node20" class="node">
<title>gripper_state open </title>
<ellipse fill="lightgray" stroke="black" cx="500.5" cy="-18" rx="60.09" ry="18"/>
<text text-anchor="middle" x="500.5" y="-15.8" font-family="Times,serif" font-size="9.00">gripper_state open</text>
</g>
<!-- Fallback &#160;&#160;&#160;&#160;&#45;&gt;gripper_state open  -->
<g id="edge19" class="edge">
<title>Fallback &#160;&#160;&#160;&#160;&#45;&gt;gripper_state open </title>
<path fill="none" stroke="black" d="M532.12,-71.7C527.24,-63.56 521.32,-53.69 515.92,-44.7"/>
<polygon fill="black" stroke="black" points="518.91,-42.88 510.77,-36.1 512.91,-46.48 518.91,-42.88"/>
</g>
<!-- open_gripper  -->
<g id="node21" class="node">
<title>open_gripper </title>
<ellipse fill="lightgray" stroke="black" cx="624.5" cy="-18" rx="45.72" ry="18"/>
<text text-anchor="middle" x="624.5" y="-15.8" font-family="Times,serif" font-size="9.00">open_gripper</text>
</g>
<!-- Fallback &#160;&#160;&#160;&#160;&#45;&gt;open_gripper  -->
<g id="edge20" class="edge">
<title>Fallback &#160;&#160;&#160;&#160;&#45;&gt;open_gripper </title>
<path fill="none" stroke="black" d="M560.7,-73.46C571.77,-64.02 586.09,-51.79 598.36,-41.32"/>
<polygon fill="black" stroke="black" points="600.74,-43.89 606.07,-34.73 596.19,-38.56 600.74,-43.89"/>
</g>
<!-- object_at YellowBox [0.0, 0.0, 0.175] 0.02 KittingBox -->
<g id="node25" class="node">
<title>object_at YellowBox [0.0, 0.0, 0.175] 0.02 KittingBox</title>
<ellipse fill="lightgray" stroke="black" cx="953.5" cy="-306" rx="152.34" ry="18"/>
<text text-anchor="middle" x="953.5" y="-303.8" font-family="Times,serif" font-size="9.00">object_at YellowBox [0.0, 0.0, 0.175] 0.02 KittingBox</text>
</g>
<!-- Fallback &#160;&#160;&#160;&#160;&#160;&#45;&gt;object_at YellowBox [0.0, 0.0, 0.175] 0.02 KittingBox -->
<g id="edge24" class="edge">
<title>Fallback &#160;&#160;&#160;&#160;&#160;&#45;&gt;object_at YellowBox [0.0, 0.0, 0.175] 0.02 KittingBox</title>
<path fill="none" stroke="black" d="M953.5,-359.7C953.5,-351.98 953.5,-342.71 953.5,-334.11"/>
<polygon fill="black" stroke="black" points="957,-334.1 953.5,-324.1 950,-334.1 957,-334.1"/>
</g>
<!-- Sequence &#160;&#160;&#160;&#160; -->
<g id="node26" class="node">
<title>Sequence &#160;&#160;&#160;&#160;</title>
<polygon fill="orange" stroke="black" points="1185.5,-324 1123.5,-324 1123.5,-288 1185.5,-288 1185.5,-324"/>
<text text-anchor="middle" x="1154.5" y="-303.8" font-family="Times,serif" font-size="9.00">Sequence</text>
</g>
<!-- Fallback &#160;&#160;&#160;&#160;&#160;&#45;&gt;Sequence &#160;&#160;&#160;&#160; -->
<g id="edge25" class="edge">
<title>Fallback &#160;&#160;&#160;&#160;&#160;&#45;&gt;Sequence &#160;&#160;&#160;&#160;</title>
<path fill="none" stroke="black" d="M983.74,-367.88C1014.38,-358.45 1063.31,-342.91 1113.73,-324.15"/>
<polygon fill="black" stroke="black" points="1115.03,-327.4 1123.16,-320.61 1112.57,-320.85 1115.03,-327.4"/>
</g>
<!-- Fallback &#160;&#160;&#160;&#160;&#160;&#160; -->
<g id="node27" class="node">
<title>Fallback &#160;&#160;&#160;&#160;&#160;&#160;</title>
<polygon fill="cyan" stroke="black" points="1142.49,-226.54 1142.49,-241.46 1122,-252 1093.01,-252 1072.51,-241.46 1072.51,-226.54 1093.01,-216 1122,-216 1142.49,-226.54"/>
<text text-anchor="middle" x="1107.5" y="-231.8" font-family="Times,serif" font-size="9.00">Fallback</text>
</g>
<!-- Sequence &#160;&#160;&#160;&#160;&#45;&gt;Fallback &#160;&#160;&#160;&#160;&#160;&#160; -->
<g id="edge26" class="edge">
<title>Sequence &#160;&#160;&#160;&#160;&#45;&gt;Fallback &#160;&#160;&#160;&#160;&#160;&#160;</title>
<path fill="none" stroke="black" d="M1142.89,-287.7C1137.36,-279.47 1130.66,-269.48 1124.57,-260.42"/>
<polygon fill="black" stroke="black" points="1127.47,-258.46 1118.99,-252.1 1121.66,-262.36 1127.47,-258.46"/>
</g>
<!-- place0 YellowBox [0.0, 0.0, 0.175] 0.02 KittingBox -->
<g id="node34" class="node">
<title>place0 YellowBox [0.0, 0.0, 0.175] 0.02 KittingBox</title>
<ellipse fill="lightgray" stroke="black" cx="1306.5" cy="-234" rx="146.14" ry="18"/>
<text text-anchor="middle" x="1306.5" y="-231.8" font-family="Times,serif" font-size="9.00">place0 YellowBox [0.0, 0.0, 0.175] 0.02 KittingBox</text>
</g>
<!-- Sequence &#160;&#160;&#160;&#160;&#45;&gt;place0 YellowBox [0.0, 0.0, 0.175] 0.02 KittingBox -->
<g id="edge33" class="edge">
<title>Sequence &#160;&#160;&#160;&#160;&#45;&gt;place0 YellowBox [0.0, 0.0, 0.175] 0.02 KittingBox</title>
<path fill="none" stroke="black" d="M1185.63,-290.67C1207.5,-280.59 1237.1,-266.96 1261.53,-255.71"/>
<polygon fill="black" stroke="black" points="1263,-258.89 1270.62,-251.53 1260.07,-252.53 1263,-258.89"/>
</g>
<!-- in_gripper YellowBox -->
<g id="node28" class="node">
<title>in_gripper YellowBox</title>
<ellipse fill="lightgray" stroke="black" cx="1049.5" cy="-162" rx="66.29" ry="18"/>
<text text-anchor="middle" x="1049.5" y="-159.8" font-family="Times,serif" font-size="9.00">in_gripper YellowBox</text>
</g>
<!-- Fallback &#160;&#160;&#160;&#160;&#160;&#160;&#45;&gt;in_gripper YellowBox -->
<g id="edge27" class="edge">
<title>Fallback &#160;&#160;&#160;&#160;&#160;&#160;&#45;&gt;in_gripper YellowBox</title>
<path fill="none" stroke="black" d="M1093.17,-215.7C1086.11,-207.18 1077.48,-196.76 1069.76,-187.45"/>
<polygon fill="black" stroke="black" points="1072.35,-185.09 1063.28,-179.62 1066.96,-189.56 1072.35,-185.09"/>
</g>
<!-- Sequence &#160;&#160;&#160;&#160;&#160; -->
<g id="node29" class="node">
<title>Sequence &#160;&#160;&#160;&#160;&#160;</title>
<polygon fill="orange" stroke="black" points="1195.5,-180 1133.5,-180 1133.5,-144 1195.5,-144 1195.5,-180"/>
<text text-anchor="middle" x="1164.5" y="-159.8" font-family="Times,serif" font-size="9.00">Sequence</text>
</g>
<!-- Fallback &#160;&#160;&#160;&#160;&#160;&#160;&#45;&gt;Sequence &#160;&#160;&#160;&#160;&#160; -->
<g id="edge28" class="edge">
<title>Fallback &#160;&#160;&#160;&#160;&#160;&#160;&#45;&gt;Sequence &#160;&#160;&#160;&#160;&#160;</title>
<path fill="none" stroke="black" d="M1121.59,-215.7C1128.43,-207.3 1136.76,-197.07 1144.26,-187.86"/>
<polygon fill="black" stroke="black" points="1146.98,-190.07 1150.58,-180.1 1141.55,-185.65 1146.98,-190.07"/>
</g>
<!-- Fallback &#160;&#160;&#160;&#160;&#160;&#160;&#160; -->
<g id="node30" class="node">
<title>Fallback &#160;&#160;&#160;&#160;&#160;&#160;&#160;</title>
<polygon fill="cyan" stroke="black" points="1146.49,-82.54 1146.49,-97.46 1126,-108 1097.01,-108 1076.51,-97.46 1076.51,-82.54 1097.01,-72 1126,-72 1146.49,-82.54"/>
<text text-anchor="middle" x="1111.5" y="-87.8" font-family="Times,serif" font-size="9.00">Fallback</text>
</g>
<!-- Sequence &#160;&#160;&#160;&#160;&#160;&#45;&gt;Fallback &#160;&#160;&#160;&#160;&#160;&#160;&#160; -->
<g id="edge29" class="edge">
<title>Sequence &#160;&#160;&#160;&#160;&#160;&#45;&gt;Fallback &#160;&#160;&#160;&#160;&#160;&#160;&#160;</title>
<path fill="none" stroke="black" d="M1151.4,-143.7C1145.11,-135.39 1137.46,-125.28 1130.54,-116.14"/>
<polygon fill="black" stroke="black" points="1133.28,-113.96 1124.45,-108.1 1127.7,-118.19 1133.28,-113.96"/>
</g>
<!-- pick0 YellowBox -->
<g id="node33" class="node">
<title>pick0 YellowBox</title>
<ellipse fill="lightgray" stroke="black" cx="1217.5" cy="-90" rx="53.23" ry="18"/>
<text text-anchor="middle" x="1217.5" y="-87.8" font-family="Times,serif" font-size="9.00">pick0 YellowBox</text>
</g>
<!-- Sequence &#160;&#160;&#160;&#160;&#160;&#45;&gt;pick0 YellowBox -->
<g id="edge32" class="edge">
<title>Sequence &#160;&#160;&#160;&#160;&#160;&#45;&gt;pick0 YellowBox</title>
<path fill="none" stroke="black" d="M1177.6,-143.7C1183.99,-135.27 1191.78,-124.97 1198.78,-115.73"/>
<polygon fill="black" stroke="black" points="1201.67,-117.71 1204.92,-107.62 1196.09,-113.48 1201.67,-117.71"/>
</g>
<!-- gripper_state open &#160; -->
<g id="node31" class="node">
<title>gripper_state open &#160;</title>
<ellipse fill="lightgray" stroke="black" cx="1049.5" cy="-18" rx="60.09" ry="18"/>
<text text-anchor="middle" x="1049.5" y="-15.8" font-family="Times,serif" font-size="9.00">gripper_state open</text>
</g>
<!-- Fallback &#160;&#160;&#160;&#160;&#160;&#160;&#160;&#45;&gt;gripper_state open &#160; -->
<g id="edge30" class="edge">
<title>Fallback &#160;&#160;&#160;&#160;&#160;&#160;&#160;&#45;&gt;gripper_state open &#160;</title>
<path fill="none" stroke="black" d="M1096.49,-72.05C1088.88,-63.46 1079.49,-52.86 1071.11,-43.4"/>
<polygon fill="black" stroke="black" points="1073.62,-40.95 1064.37,-35.79 1068.38,-45.6 1073.62,-40.95"/>
</g>
<!-- open_gripper &#160; -->
<g id="node32" class="node">
<title>open_gripper &#160;</title>
<ellipse fill="lightgray" stroke="black" cx="1173.5" cy="-18" rx="45.72" ry="18"/>
<text text-anchor="middle" x="1173.5" y="-15.8" font-family="Times,serif" font-size="9.00">open_gripper</text>
</g>
<!-- Fallback &#160;&#160;&#160;&#160;&#160;&#160;&#160;&#45;&gt;open_gripper &#160; -->
<g id="edge31" class="edge">
<title>Fallback &#160;&#160;&#160;&#160;&#160;&#160;&#160;&#45;&gt;open_gripper &#160;</title>
<path fill="none" stroke="black" d="M1126.51,-72.05C1134.24,-63.33 1143.79,-52.54 1152.26,-42.98"/>
<polygon fill="black" stroke="black" points="1155.05,-45.11 1159.06,-35.31 1149.81,-40.47 1155.05,-45.11"/>
</g>
</g>
</svg>
