<?xml version="1.0" encoding="UTF-8" standalone="no"?>
<!DOCTYPE svg PUBLIC "-//W3C//DTD SVG 1.1//EN"
 "http://www.w3.org/Graphics/SVG/1.1/DTD/svg11.dtd">
<!-- Generated by graphviz version 2.43.0 (0)
 -->
<!-- Title: pastafarianism Pages: 1 -->
<svg width="1345pt" height="476pt"
 viewBox="0.00 0.00 1345.23 476.00" xmlns="http://www.w3.org/2000/svg" xmlns:xlink="http://www.w3.org/1999/xlink">
<g id="graph0" class="graph" transform="scale(1 1) rotate(0) translate(4 472)">
<title>pastafarianism</title>
<polygon fill="white" stroke="transparent" points="-4,4 -4,-472 1341.23,-472 1341.23,4 -4,4"/>
<!-- Sequence -->
<g id="node1" class="node">
<title>Sequence</title>
<polygon fill="orange" stroke="black" points="692.5,-468 630.5,-468 630.5,-432 692.5,-432 692.5,-468"/>
<text text-anchor="middle" x="661.5" y="-447.8" font-family="Times,serif" font-size="9.00">Sequence</text>
</g>
<!-- Fallback -->
<g id="node2" class="node">
<title>Fallback</title>
<polygon fill="cyan" stroke="black" points="405.49,-370.54 405.49,-385.46 385,-396 356.01,-396 335.51,-385.46 335.51,-370.54 356.01,-360 385,-360 405.49,-370.54"/>
<text text-anchor="middle" x="370.5" y="-375.8" font-family="Times,serif" font-size="9.00">Fallback</text>
</g>
<!-- Sequence&#45;&gt;Fallback -->
<g id="edge1" class="edge">
<title>Sequence&#45;&gt;Fallback</title>
<path fill="none" stroke="black" d="M630.36,-441.51C577.97,-428.91 472.14,-403.45 412.98,-389.22"/>
<polygon fill="black" stroke="black" points="413.74,-385.8 403.2,-386.86 412.1,-392.61 413.74,-385.8"/>
</g>
<!-- Fallback &#160;&#160; -->
<g id="node13" class="node">
<title>Fallback &#160;&#160;</title>
<polygon fill="cyan" stroke="black" points="696.49,-370.54 696.49,-385.46 676,-396 647.01,-396 626.51,-385.46 626.51,-370.54 647.01,-360 676,-360 696.49,-370.54"/>
<text text-anchor="middle" x="661.5" y="-375.8" font-family="Times,serif" font-size="9.00">Fallback</text>
</g>
<!-- Sequence&#45;&gt;Fallback &#160;&#160; -->
<g id="edge12" class="edge">
<title>Sequence&#45;&gt;Fallback &#160;&#160;</title>
<path fill="none" stroke="black" d="M661.5,-431.7C661.5,-423.98 661.5,-414.71 661.5,-406.11"/>
<polygon fill="black" stroke="black" points="665,-406.1 661.5,-396.1 658,-406.1 665,-406.1"/>
</g>
<!-- Fallback &#160;&#160;&#160;&#160;&#160; -->
<g id="node24" class="node">
<title>Fallback &#160;&#160;&#160;&#160;&#160;</title>
<polygon fill="cyan" stroke="black" points="1003.49,-370.54 1003.49,-385.46 983,-396 954.01,-396 933.51,-385.46 933.51,-370.54 954.01,-360 983,-360 1003.49,-370.54"/>
<text text-anchor="middle" x="968.5" y="-375.8" font-family="Times,serif" font-size="9.00">Fallback</text>
</g>
<!-- Sequence&#45;&gt;Fallback &#160;&#160;&#160;&#160;&#160; -->
<g id="edge23" class="edge">
<title>Sequence&#45;&gt;Fallback &#160;&#160;&#160;&#160;&#160;</title>
<path fill="none" stroke="black" d="M692.63,-441.9C747.79,-429.33 862.78,-403.11 925.48,-388.81"/>
<polygon fill="black" stroke="black" points="926.47,-392.17 935.44,-386.54 924.91,-385.35 926.47,-392.17"/>
</g>
<!-- object_at GreenBox [0.0, &#45;0.133, 0.175] 0.02 KittingBox -->
<g id="node3" class="node">
<title>object_at GreenBox [0.0, &#45;0.133, 0.175] 0.02 KittingBox</title>
<ellipse fill="lightgray" stroke="black" cx="160.5" cy="-306" rx="160.51" ry="18"/>
<text text-anchor="middle" x="160.5" y="-303.8" font-family="Times,serif" font-size="9.00">object_at GreenBox [0.0, &#45;0.133, 0.175] 0.02 KittingBox</text>
</g>
<!-- Fallback&#45;&gt;object_at GreenBox [0.0, &#45;0.133, 0.175] 0.02 KittingBox -->
<g id="edge2" class="edge">
<title>Fallback&#45;&gt;object_at GreenBox [0.0, &#45;0.133, 0.175] 0.02 KittingBox</title>
<path fill="none" stroke="black" d="M341.3,-367.27C309.76,-356.75 258.66,-339.72 218.83,-326.44"/>
<polygon fill="black" stroke="black" points="219.81,-323.08 209.22,-323.24 217.6,-329.72 219.81,-323.08"/>
</g>
<!-- Sequence  -->
<g id="node4" class="node">
<title>Sequence </title>
<polygon fill="orange" stroke="black" points="401.5,-324 339.5,-324 339.5,-288 401.5,-288 401.5,-324"/>
<text text-anchor="middle" x="370.5" y="-303.8" font-family="Times,serif" font-size="9.00">Sequence</text>
</g>
<!-- Fallback&#45;&gt;Sequence  -->
<g id="edge3" class="edge">
<title>Fallback&#45;&gt;Sequence </title>
<path fill="none" stroke="black" d="M370.5,-359.7C370.5,-351.98 370.5,-342.71 370.5,-334.11"/>
<polygon fill="black" stroke="black" points="374,-334.1 370.5,-324.1 367,-334.1 374,-334.1"/>
</g>
<!-- Fallback  -->
<g id="node5" class="node">
<title>Fallback </title>
<polygon fill="cyan" stroke="black" points="200.49,-226.54 200.49,-241.46 180,-252 151.01,-252 130.51,-241.46 130.51,-226.54 151.01,-216 180,-216 200.49,-226.54"/>
<text text-anchor="middle" x="165.5" y="-231.8" font-family="Times,serif" font-size="9.00">Fallback</text>
</g>
<!-- Sequence &#45;&gt;Fallback  -->
<g id="edge4" class="edge">
<title>Sequence &#45;&gt;Fallback </title>
<path fill="none" stroke="black" d="M339.19,-291.3C336.27,-290.14 333.34,-289.02 330.5,-288 277.71,-269 262.6,-270.12 209.5,-252 206.97,-251.14 204.38,-250.22 201.77,-249.27"/>
<polygon fill="black" stroke="black" points="202.96,-245.98 192.37,-245.77 200.52,-252.54 202.96,-245.98"/>
</g>
<!-- place0 GreenBox [0.0, &#45;0.133, 0.175] 0.02 KittingBox -->
<g id="node12" class="node">
<title>place0 GreenBox [0.0, &#45;0.133, 0.175] 0.02 KittingBox</title>
<ellipse fill="lightgray" stroke="black" cx="372.5" cy="-234" rx="154.31" ry="18"/>
<text text-anchor="middle" x="372.5" y="-231.8" font-family="Times,serif" font-size="9.00">place0 GreenBox [0.0, &#45;0.133, 0.175] 0.02 KittingBox</text>
</g>
<!-- Sequence &#45;&gt;place0 GreenBox [0.0, &#45;0.133, 0.175] 0.02 KittingBox -->
<g id="edge11" class="edge">
<title>Sequence &#45;&gt;place0 GreenBox [0.0, &#45;0.133, 0.175] 0.02 KittingBox</title>
<path fill="none" stroke="black" d="M371,-287.7C371.22,-279.98 371.48,-270.71 371.73,-262.11"/>
<polygon fill="black" stroke="black" points="375.23,-262.2 372.01,-252.1 368.23,-262 375.23,-262.2"/>
</g>
<!-- in_gripper GreenBox -->
<g id="node6" class="node">
<title>in_gripper GreenBox</title>
<ellipse fill="lightgray" stroke="black" cx="143.5" cy="-162" rx="65.64" ry="18"/>
<text text-anchor="middle" x="143.5" y="-159.8" font-family="Times,serif" font-size="9.00">in_gripper GreenBox</text>
</g>
<!-- Fallback &#45;&gt;in_gripper GreenBox -->
<g id="edge5" class="edge">
<title>Fallback &#45;&gt;in_gripper GreenBox</title>
<path fill="none" stroke="black" d="M160.07,-215.7C157.61,-207.9 154.66,-198.51 151.94,-189.83"/>
<polygon fill="black" stroke="black" points="155.22,-188.59 148.88,-180.1 148.54,-190.69 155.22,-188.59"/>
</g>
<!-- Sequence &#160; -->
<g id="node7" class="node">
<title>Sequence &#160;</title>
<polygon fill="orange" stroke="black" points="289.5,-180 227.5,-180 227.5,-144 289.5,-144 289.5,-180"/>
<text text-anchor="middle" x="258.5" y="-159.8" font-family="Times,serif" font-size="9.00">Sequence</text>
</g>
<!-- Fallback &#45;&gt;Sequence &#160; -->
<g id="edge6" class="edge">
<title>Fallback &#45;&gt;Sequence &#160;</title>
<path fill="none" stroke="black" d="M185.23,-218.15C197.5,-208.92 213.55,-196.83 227.5,-186.33"/>
<polygon fill="black" stroke="black" points="229.98,-188.85 235.86,-180.04 225.77,-183.26 229.98,-188.85"/>
</g>
<!-- Fallback &#160; -->
<g id="node8" class="node">
<title>Fallback &#160;</title>
<polygon fill="cyan" stroke="black" points="279.49,-82.54 279.49,-97.46 259,-108 230.01,-108 209.51,-97.46 209.51,-82.54 230.01,-72 259,-72 279.49,-82.54"/>
<text text-anchor="middle" x="244.5" y="-87.8" font-family="Times,serif" font-size="9.00">Fallback</text>
</g>
<!-- Sequence &#160;&#45;&gt;Fallback &#160; -->
<g id="edge7" class="edge">
<title>Sequence &#160;&#45;&gt;Fallback &#160;</title>
<path fill="none" stroke="black" d="M255.04,-143.7C253.5,-135.98 251.65,-126.71 249.93,-118.11"/>
<polygon fill="black" stroke="black" points="253.32,-117.22 247.92,-108.1 246.45,-118.6 253.32,-117.22"/>
</g>
<!-- pick0 GreenBox -->
<g id="node11" class="node">
<title>pick0 GreenBox</title>
<ellipse fill="lightgray" stroke="black" cx="350.5" cy="-90" rx="52.58" ry="18"/>
<text text-anchor="middle" x="350.5" y="-87.8" font-family="Times,serif" font-size="9.00">pick0 GreenBox</text>
</g>
<!-- Sequence &#160;&#45;&gt;pick0 GreenBox -->
<g id="edge10" class="edge">
<title>Sequence &#160;&#45;&gt;pick0 GreenBox</title>
<path fill="none" stroke="black" d="M281.24,-143.7C293.47,-134.4 308.66,-122.84 321.7,-112.91"/>
<polygon fill="black" stroke="black" points="324.07,-115.51 329.91,-106.67 319.83,-109.94 324.07,-115.51"/>
</g>
<!-- gripper_state open -->
<g id="node9" class="node">
<title>gripper_state open</title>
<ellipse fill="lightgray" stroke="black" cx="162.5" cy="-18" rx="60.09" ry="18"/>
<text text-anchor="middle" x="162.5" y="-15.8" font-family="Times,serif" font-size="9.00">gripper_state open</text>
</g>
<!-- Fallback &#160;&#45;&gt;gripper_state open -->
<g id="edge8" class="edge">
<title>Fallback &#160;&#45;&gt;gripper_state open</title>
<path fill="none" stroke="black" d="M226.3,-73.46C215.39,-64.15 201.31,-52.13 189.16,-41.76"/>
<polygon fill="black" stroke="black" points="191.38,-39.05 181.51,-35.22 186.84,-44.38 191.38,-39.05"/>
</g>
<!-- open_gripper -->
<g id="node10" class="node">
<title>open_gripper</title>
<ellipse fill="lightgray" stroke="black" cx="286.5" cy="-18" rx="45.72" ry="18"/>
<text text-anchor="middle" x="286.5" y="-15.8" font-family="Times,serif" font-size="9.00">open_gripper</text>
</g>
<!-- Fallback &#160;&#45;&gt;open_gripper -->
<g id="edge9" class="edge">
<title>Fallback &#160;&#45;&gt;open_gripper</title>
<path fill="none" stroke="black" d="M254.89,-71.7C259.84,-63.44 265.87,-53.39 271.32,-44.3"/>
<polygon fill="black" stroke="black" points="274.39,-46 276.53,-35.62 268.38,-42.4 274.39,-46"/>
</g>
<!-- object_at BlueBox [0.0, 0.12, 0.12] 0.02 GreenBox -->
<g id="node14" class="node">
<title>object_at BlueBox [0.0, 0.12, 0.12] 0.02 GreenBox</title>
<ellipse fill="lightgray" stroke="black" cx="564.5" cy="-306" rx="145.48" ry="18"/>
<text text-anchor="middle" x="564.5" y="-303.8" font-family="Times,serif" font-size="9.00">object_at BlueBox [0.0, 0.12, 0.12] 0.02 GreenBox</text>
</g>
<!-- Fallback &#160;&#160;&#45;&gt;object_at BlueBox [0.0, 0.12, 0.12] 0.02 GreenBox -->
<g id="edge13" class="edge">
<title>Fallback &#160;&#160;&#45;&gt;object_at BlueBox [0.0, 0.12, 0.12] 0.02 GreenBox</title>
<path fill="none" stroke="black" d="M641.4,-362.5C628.42,-353.12 611.23,-340.72 596.4,-330.02"/>
<polygon fill="black" stroke="black" points="598.15,-326.96 587.99,-323.95 594.05,-332.64 598.15,-326.96"/>
</g>
<!-- Sequence &#160;&#160; -->
<g id="node15" class="node">
<title>Sequence &#160;&#160;</title>
<polygon fill="orange" stroke="black" points="789.5,-324 727.5,-324 727.5,-288 789.5,-288 789.5,-324"/>
<text text-anchor="middle" x="758.5" y="-303.8" font-family="Times,serif" font-size="9.00">Sequence</text>
</g>
<!-- Fallback &#160;&#160;&#45;&gt;Sequence &#160;&#160; -->
<g id="edge14" class="edge">
<title>Fallback &#160;&#160;&#45;&gt;Sequence &#160;&#160;</title>
<path fill="none" stroke="black" d="M681.6,-362.5C694.5,-353.19 711.53,-340.9 726.29,-330.25"/>
<polygon fill="black" stroke="black" points="728.6,-332.89 734.66,-324.2 724.51,-327.22 728.6,-332.89"/>
</g>
<!-- Fallback &#160;&#160;&#160; -->
<g id="node16" class="node">
<title>Fallback &#160;&#160;&#160;</title>
<polygon fill="cyan" stroke="black" points="621.49,-226.54 621.49,-241.46 601,-252 572.01,-252 551.51,-241.46 551.51,-226.54 572.01,-216 601,-216 621.49,-226.54"/>
<text text-anchor="middle" x="586.5" y="-231.8" font-family="Times,serif" font-size="9.00">Fallback</text>
</g>
<!-- Sequence &#160;&#160;&#45;&gt;Fallback &#160;&#160;&#160; -->
<g id="edge15" class="edge">
<title>Sequence &#160;&#160;&#45;&gt;Fallback &#160;&#160;&#160;</title>
<path fill="none" stroke="black" d="M727.09,-291.58C724.19,-290.36 721.29,-289.15 718.5,-288 686.43,-274.75 649.78,-260.07 623.26,-249.53"/>
<polygon fill="black" stroke="black" points="624.2,-246.14 613.62,-245.7 621.62,-252.64 624.2,-246.14"/>
</g>
<!-- place0 BlueBox [0.0, 0.12, 0.12] 0.02 GreenBox -->
<g id="node23" class="node">
<title>place0 BlueBox [0.0, 0.12, 0.12] 0.02 GreenBox</title>
<ellipse fill="lightgray" stroke="black" cx="778.5" cy="-234" rx="139.28" ry="18"/>
<text text-anchor="middle" x="778.5" y="-231.8" font-family="Times,serif" font-size="9.00">place0 BlueBox [0.0, 0.12, 0.12] 0.02 GreenBox</text>
</g>
<!-- Sequence &#160;&#160;&#45;&gt;place0 BlueBox [0.0, 0.12, 0.12] 0.02 GreenBox -->
<g id="edge22" class="edge">
<title>Sequence &#160;&#160;&#45;&gt;place0 BlueBox [0.0, 0.12, 0.12] 0.02 GreenBox</title>
<path fill="none" stroke="black" d="M763.45,-287.7C765.68,-279.9 768.36,-270.51 770.84,-261.83"/>
<polygon fill="black" stroke="black" points="774.23,-262.68 773.62,-252.1 767.5,-260.76 774.23,-262.68"/>
</g>
<!-- in_gripper BlueBox -->
<g id="node17" class="node">
<title>in_gripper BlueBox</title>
<ellipse fill="lightgray" stroke="black" cx="482.5" cy="-162" rx="61.55" ry="18"/>
<text text-anchor="middle" x="482.5" y="-159.8" font-family="Times,serif" font-size="9.00">in_gripper BlueBox</text>
</g>
<!-- Fallback &#160;&#160;&#160;&#45;&gt;in_gripper BlueBox -->
<g id="edge16" class="edge">
<title>Fallback &#160;&#160;&#160;&#45;&gt;in_gripper BlueBox</title>
<path fill="none" stroke="black" d="M565.46,-218.83C550.8,-208.97 530.98,-195.63 514.39,-184.47"/>
<polygon fill="black" stroke="black" points="516.31,-181.53 506.06,-178.85 512.4,-187.34 516.31,-181.53"/>
</g>
<!-- Sequence &#160;&#160;&#160; -->
<g id="node18" class="node">
<title>Sequence &#160;&#160;&#160;</title>
<polygon fill="orange" stroke="black" points="624.5,-180 562.5,-180 562.5,-144 624.5,-144 624.5,-180"/>
<text text-anchor="middle" x="593.5" y="-159.8" font-family="Times,serif" font-size="9.00">Sequence</text>
</g>
<!-- Fallback &#160;&#160;&#160;&#45;&gt;Sequence &#160;&#160;&#160; -->
<g id="edge17" class="edge">
<title>Fallback &#160;&#160;&#160;&#45;&gt;Sequence &#160;&#160;&#160;</title>
<path fill="none" stroke="black" d="M588.23,-215.7C589.01,-207.98 589.93,-198.71 590.79,-190.11"/>
<polygon fill="black" stroke="black" points="594.28,-190.4 591.79,-180.1 587.32,-189.71 594.28,-190.4"/>
</g>
<!-- Fallback &#160;&#160;&#160;&#160; -->
<g id="node19" class="node">
<title>Fallback &#160;&#160;&#160;&#160;</title>
<polygon fill="cyan" stroke="black" points="531.49,-82.54 531.49,-97.46 511,-108 482.01,-108 461.51,-97.46 461.51,-82.54 482.01,-72 511,-72 531.49,-82.54"/>
<text text-anchor="middle" x="496.5" y="-87.8" font-family="Times,serif" font-size="9.00">Fallback</text>
</g>
<!-- Sequence &#160;&#160;&#160;&#45;&gt;Fallback &#160;&#160;&#160;&#160; -->
<g id="edge18" class="edge">
<title>Sequence &#160;&#160;&#160;&#45;&gt;Fallback &#160;&#160;&#160;&#160;</title>
<path fill="none" stroke="black" d="M569.53,-143.7C555.96,-133.91 538.92,-121.61 524.71,-111.36"/>
<polygon fill="black" stroke="black" points="526.45,-108.29 516.29,-105.28 522.35,-113.97 526.45,-108.29"/>
</g>
<!-- pick0 BlueBox -->
<g id="node22" class="node">
<title>pick0 BlueBox</title>
<ellipse fill="lightgray" stroke="black" cx="597.5" cy="-90" rx="47.84" ry="18"/>
<text text-anchor="middle" x="597.5" y="-87.8" font-family="Times,serif" font-size="9.00">pick0 BlueBox</text>
</g>
<!-- Sequence &#160;&#160;&#160;&#45;&gt;pick0 BlueBox -->
<g id="edge21" class="edge">
<title>Sequence &#160;&#160;&#160;&#45;&gt;pick0 BlueBox</title>
<path fill="none" stroke="black" d="M594.49,-143.7C594.93,-135.98 595.46,-126.71 595.95,-118.11"/>
<polygon fill="black" stroke="black" points="599.45,-118.29 596.53,-108.1 592.46,-117.89 599.45,-118.29"/>
</g>
<!-- gripper_state open  -->
<g id="node20" class="node">
<title>gripper_state open </title>
<ellipse fill="lightgray" stroke="black" cx="454.5" cy="-18" rx="60.09" ry="18"/>
<text text-anchor="middle" x="454.5" y="-15.8" font-family="Times,serif" font-size="9.00">gripper_state open</text>
</g>
<!-- Fallback &#160;&#160;&#160;&#160;&#45;&gt;gripper_state open  -->
<g id="edge19" class="edge">
<title>Fallback &#160;&#160;&#160;&#160;&#45;&gt;gripper_state open </title>
<path fill="none" stroke="black" d="M486.12,-71.7C481.24,-63.56 475.32,-53.69 469.92,-44.7"/>
<polygon fill="black" stroke="black" points="472.91,-42.88 464.77,-36.1 466.91,-46.48 472.91,-42.88"/>
</g>
<!-- open_gripper  -->
<g id="node21" class="node">
<title>open_gripper </title>
<ellipse fill="lightgray" stroke="black" cx="578.5" cy="-18" rx="45.72" ry="18"/>
<text text-anchor="middle" x="578.5" y="-15.8" font-family="Times,serif" font-size="9.00">open_gripper</text>
</g>
<!-- Fallback &#160;&#160;&#160;&#160;&#45;&gt;open_gripper  -->
<g id="edge20" class="edge">
<title>Fallback &#160;&#160;&#160;&#160;&#45;&gt;open_gripper </title>
<path fill="none" stroke="black" d="M514.7,-73.46C525.77,-64.02 540.09,-51.79 552.36,-41.32"/>
<polygon fill="black" stroke="black" points="554.74,-43.89 560.07,-34.73 550.19,-38.56 554.74,-43.89"/>
</g>
<!-- object_at YellowBox [&#45;0.133, 0.0, 0.175] 0.02 KittingBox -->
<g id="node25" class="node">
<title>object_at YellowBox [&#45;0.133, 0.0, 0.175] 0.02 KittingBox</title>
<ellipse fill="lightgray" stroke="black" cx="968.5" cy="-306" rx="161.16" ry="18"/>
<text text-anchor="middle" x="968.5" y="-303.8" font-family="Times,serif" font-size="9.00">object_at YellowBox [&#45;0.133, 0.0, 0.175] 0.02 KittingBox</text>
</g>
<!-- Fallback &#160;&#160;&#160;&#160;&#160;&#45;&gt;object_at YellowBox [&#45;0.133, 0.0, 0.175] 0.02 KittingBox -->
<g id="edge24" class="edge">
<title>Fallback &#160;&#160;&#160;&#160;&#160;&#45;&gt;object_at YellowBox [&#45;0.133, 0.0, 0.175] 0.02 KittingBox</title>
<path fill="none" stroke="black" d="M968.5,-359.7C968.5,-351.98 968.5,-342.71 968.5,-334.11"/>
<polygon fill="black" stroke="black" points="972,-334.1 968.5,-324.1 965,-334.1 972,-334.1"/>
</g>
<!-- Sequence &#160;&#160;&#160;&#160; -->
<g id="node26" class="node">
<title>Sequence &#160;&#160;&#160;&#160;</title>
<polygon fill="orange" stroke="black" points="1209.5,-324 1147.5,-324 1147.5,-288 1209.5,-288 1209.5,-324"/>
<text text-anchor="middle" x="1178.5" y="-303.8" font-family="Times,serif" font-size="9.00">Sequence</text>
</g>
<!-- Fallback &#160;&#160;&#160;&#160;&#160;&#45;&gt;Sequence &#160;&#160;&#160;&#160; -->
<g id="edge25" class="edge">
<title>Fallback &#160;&#160;&#160;&#160;&#160;&#45;&gt;Sequence &#160;&#160;&#160;&#160;</title>
<path fill="none" stroke="black" d="M999.52,-368.34C1031.9,-359.08 1084.26,-343.48 1137.57,-324.18"/>
<polygon fill="black" stroke="black" points="1138.99,-327.39 1147.18,-320.66 1136.58,-320.81 1138.99,-327.39"/>
</g>
<!-- Fallback &#160;&#160;&#160;&#160;&#160;&#160; -->
<g id="node27" class="node">
<title>Fallback &#160;&#160;&#160;&#160;&#160;&#160;</title>
<polygon fill="cyan" stroke="black" points="1009.49,-226.54 1009.49,-241.46 989,-252 960.01,-252 939.51,-241.46 939.51,-226.54 960.01,-216 989,-216 1009.49,-226.54"/>
<text text-anchor="middle" x="974.5" y="-231.8" font-family="Times,serif" font-size="9.00">Fallback</text>
</g>
<!-- Sequence &#160;&#160;&#160;&#160;&#45;&gt;Fallback &#160;&#160;&#160;&#160;&#160;&#160; -->
<g id="edge26" class="edge">
<title>Sequence &#160;&#160;&#160;&#160;&#45;&gt;Fallback &#160;&#160;&#160;&#160;&#160;&#160;</title>
<path fill="none" stroke="black" d="M1147.19,-291.31C1144.27,-290.15 1141.34,-289.03 1138.5,-288 1086.13,-269.08 1071.18,-270.05 1018.5,-252 1015.98,-251.13 1013.38,-250.21 1010.77,-249.26"/>
<polygon fill="black" stroke="black" points="1011.97,-245.98 1001.38,-245.76 1009.52,-252.53 1011.97,-245.98"/>
</g>
<!-- place0 YellowBox [&#45;0.133, 0.0, 0.175] 0.02 KittingBox -->
<g id="node34" class="node">
<title>place0 YellowBox [&#45;0.133, 0.0, 0.175] 0.02 KittingBox</title>
<ellipse fill="lightgray" stroke="black" cx="1182.5" cy="-234" rx="154.96" ry="18"/>
<text text-anchor="middle" x="1182.5" y="-231.8" font-family="Times,serif" font-size="9.00">place0 YellowBox [&#45;0.133, 0.0, 0.175] 0.02 KittingBox</text>
</g>
<!-- Sequence &#160;&#160;&#160;&#160;&#45;&gt;place0 YellowBox [&#45;0.133, 0.0, 0.175] 0.02 KittingBox -->
<g id="edge33" class="edge">
<title>Sequence &#160;&#160;&#160;&#160;&#45;&gt;place0 YellowBox [&#45;0.133, 0.0, 0.175] 0.02 KittingBox</title>
<path fill="none" stroke="black" d="M1179.49,-287.7C1179.93,-279.98 1180.46,-270.71 1180.95,-262.11"/>
<polygon fill="black" stroke="black" points="1184.45,-262.29 1181.53,-252.1 1177.46,-261.89 1184.45,-262.29"/>
</g>
<!-- in_gripper YellowBox -->
<g id="node28" class="node">
<title>in_gripper YellowBox</title>
<ellipse fill="lightgray" stroke="black" cx="916.5" cy="-162" rx="66.29" ry="18"/>
<text text-anchor="middle" x="916.5" y="-159.8" font-family="Times,serif" font-size="9.00">in_gripper YellowBox</text>
</g>
<!-- Fallback &#160;&#160;&#160;&#160;&#160;&#160;&#45;&gt;in_gripper YellowBox -->
<g id="edge27" class="edge">
<title>Fallback &#160;&#160;&#160;&#160;&#160;&#160;&#45;&gt;in_gripper YellowBox</title>
<path fill="none" stroke="black" d="M960.17,-215.7C953.11,-207.18 944.48,-196.76 936.76,-187.45"/>
<polygon fill="black" stroke="black" points="939.35,-185.09 930.28,-179.62 933.96,-189.56 939.35,-185.09"/>
</g>
<!-- Sequence &#160;&#160;&#160;&#160;&#160; -->
<g id="node29" class="node">
<title>Sequence &#160;&#160;&#160;&#160;&#160;</title>
<polygon fill="orange" stroke="black" points="1062.5,-180 1000.5,-180 1000.5,-144 1062.5,-144 1062.5,-180"/>
<text text-anchor="middle" x="1031.5" y="-159.8" font-family="Times,serif" font-size="9.00">Sequence</text>
</g>
<!-- Fallback &#160;&#160;&#160;&#160;&#160;&#160;&#45;&gt;Sequence &#160;&#160;&#160;&#160;&#160; -->
<g id="edge28" class="edge">
<title>Fallback &#160;&#160;&#160;&#160;&#160;&#160;&#45;&gt;Sequence &#160;&#160;&#160;&#160;&#160;</title>
<path fill="none" stroke="black" d="M988.59,-215.7C995.43,-207.3 1003.76,-197.07 1011.26,-187.86"/>
<polygon fill="black" stroke="black" points="1013.98,-190.07 1017.58,-180.1 1008.55,-185.65 1013.98,-190.07"/>
</g>
<!-- Fallback &#160;&#160;&#160;&#160;&#160;&#160;&#160; -->
<g id="node30" class="node">
<title>Fallback &#160;&#160;&#160;&#160;&#160;&#160;&#160;</title>
<polygon fill="cyan" stroke="black" points="1013.49,-82.54 1013.49,-97.46 993,-108 964.01,-108 943.51,-97.46 943.51,-82.54 964.01,-72 993,-72 1013.49,-82.54"/>
<text text-anchor="middle" x="978.5" y="-87.8" font-family="Times,serif" font-size="9.00">Fallback</text>
</g>
<!-- Sequence &#160;&#160;&#160;&#160;&#160;&#45;&gt;Fallback &#160;&#160;&#160;&#160;&#160;&#160;&#160; -->
<g id="edge29" class="edge">
<title>Sequence &#160;&#160;&#160;&#160;&#160;&#45;&gt;Fallback &#160;&#160;&#160;&#160;&#160;&#160;&#160;</title>
<path fill="none" stroke="black" d="M1018.4,-143.7C1012.11,-135.39 1004.46,-125.28 997.54,-116.14"/>
<polygon fill="black" stroke="black" points="1000.28,-113.96 991.45,-108.1 994.7,-118.19 1000.28,-113.96"/>
</g>
<!-- pick0 YellowBox -->
<g id="node33" class="node">
<title>pick0 YellowBox</title>
<ellipse fill="lightgray" stroke="black" cx="1084.5" cy="-90" rx="53.23" ry="18"/>
<text text-anchor="middle" x="1084.5" y="-87.8" font-family="Times,serif" font-size="9.00">pick0 YellowBox</text>
</g>
<!-- Sequence &#160;&#160;&#160;&#160;&#160;&#45;&gt;pick0 YellowBox -->
<g id="edge32" class="edge">
<title>Sequence &#160;&#160;&#160;&#160;&#160;&#45;&gt;pick0 YellowBox</title>
<path fill="none" stroke="black" d="M1044.6,-143.7C1050.99,-135.27 1058.78,-124.97 1065.78,-115.73"/>
<polygon fill="black" stroke="black" points="1068.67,-117.71 1071.92,-107.62 1063.09,-113.48 1068.67,-117.71"/>
</g>
<!-- gripper_state open &#160; -->
<g id="node31" class="node">
<title>gripper_state open &#160;</title>
<ellipse fill="lightgray" stroke="black" cx="916.5" cy="-18" rx="60.09" ry="18"/>
<text text-anchor="middle" x="916.5" y="-15.8" font-family="Times,serif" font-size="9.00">gripper_state open</text>
</g>
<!-- Fallback &#160;&#160;&#160;&#160;&#160;&#160;&#160;&#45;&gt;gripper_state open &#160; -->
<g id="edge30" class="edge">
<title>Fallback &#160;&#160;&#160;&#160;&#160;&#160;&#160;&#45;&gt;gripper_state open &#160;</title>
<path fill="none" stroke="black" d="M963.49,-72.05C955.88,-63.46 946.49,-52.86 938.11,-43.4"/>
<polygon fill="black" stroke="black" points="940.62,-40.95 931.37,-35.79 935.38,-45.6 940.62,-40.95"/>
</g>
<!-- open_gripper &#160; -->
<g id="node32" class="node">
<title>open_gripper &#160;</title>
<ellipse fill="lightgray" stroke="black" cx="1040.5" cy="-18" rx="45.72" ry="18"/>
<text text-anchor="middle" x="1040.5" y="-15.8" font-family="Times,serif" font-size="9.00">open_gripper</text>
</g>
<!-- Fallback &#160;&#160;&#160;&#160;&#160;&#160;&#160;&#45;&gt;open_gripper &#160; -->
<g id="edge31" class="edge">
<title>Fallback &#160;&#160;&#160;&#160;&#160;&#160;&#160;&#45;&gt;open_gripper &#160;</title>
<path fill="none" stroke="black" d="M993.51,-72.05C1001.24,-63.33 1010.79,-52.54 1019.26,-42.98"/>
<polygon fill="black" stroke="black" points="1022.05,-45.11 1026.06,-35.31 1016.81,-40.47 1022.05,-45.11"/>
</g>
</g>
</svg>
