<?xml version="1.0" encoding="UTF-8" standalone="no"?>
<!DOCTYPE svg PUBLIC "-//W3C//DTD SVG 1.1//EN"
 "http://www.w3.org/Graphics/SVG/1.1/DTD/svg11.dtd">
<!-- Generated by graphviz version 2.43.0 (0)
 -->
<!-- Title: pastafarianism Pages: 1 -->
<svg width="1308pt" height="476pt"
 viewBox="0.00 0.00 1308.26 476.00" xmlns="http://www.w3.org/2000/svg" xmlns:xlink="http://www.w3.org/1999/xlink">
<g id="graph0" class="graph" transform="scale(1 1) rotate(0) translate(4 472)">
<title>pastafarianism</title>
<polygon fill="white" stroke="transparent" points="-4,4 -4,-472 1304.26,-472 1304.26,4 -4,4"/>
<!-- Sequence -->
<g id="node1" class="node">
<title>Sequence</title>
<polygon fill="orange" stroke="black" points="683.77,-468 621.77,-468 621.77,-432 683.77,-432 683.77,-468"/>
<text text-anchor="middle" x="652.77" y="-447.8" font-family="Times,serif" font-size="9.00">Sequence</text>
</g>
<!-- Fallback -->
<g id="node2" class="node">
<title>Fallback</title>
<polygon fill="cyan" stroke="black" points="401.76,-370.54 401.76,-385.46 381.27,-396 352.28,-396 331.78,-385.46 331.78,-370.54 352.28,-360 381.27,-360 401.76,-370.54"/>
<text text-anchor="middle" x="366.77" y="-375.8" font-family="Times,serif" font-size="9.00">Fallback</text>
</g>
<!-- Sequence&#45;&gt;Fallback -->
<g id="edge1" class="edge">
<title>Sequence&#45;&gt;Fallback</title>
<path fill="none" stroke="black" d="M621.62,-441.38C570.13,-428.77 467.21,-403.58 409.15,-389.37"/>
<polygon fill="black" stroke="black" points="409.74,-385.91 399.2,-386.94 408.08,-392.71 409.74,-385.91"/>
</g>
<!-- Fallback &#160;&#160; -->
<g id="node13" class="node">
<title>Fallback &#160;&#160;</title>
<polygon fill="cyan" stroke="black" points="687.76,-370.54 687.76,-385.46 667.27,-396 638.28,-396 617.78,-385.46 617.78,-370.54 638.28,-360 667.27,-360 687.76,-370.54"/>
<text text-anchor="middle" x="652.77" y="-375.8" font-family="Times,serif" font-size="9.00">Fallback</text>
</g>
<!-- Sequence&#45;&gt;Fallback &#160;&#160; -->
<g id="edge12" class="edge">
<title>Sequence&#45;&gt;Fallback &#160;&#160;</title>
<path fill="none" stroke="black" d="M652.77,-431.7C652.77,-423.98 652.77,-414.71 652.77,-406.11"/>
<polygon fill="black" stroke="black" points="656.27,-406.1 652.77,-396.1 649.27,-406.1 656.27,-406.1"/>
</g>
<!-- Fallback &#160;&#160;&#160;&#160;&#160; -->
<g id="node24" class="node">
<title>Fallback &#160;&#160;&#160;&#160;&#160;</title>
<polygon fill="cyan" stroke="black" points="984.76,-370.54 984.76,-385.46 964.27,-396 935.28,-396 914.78,-385.46 914.78,-370.54 935.28,-360 964.27,-360 984.76,-370.54"/>
<text text-anchor="middle" x="949.77" y="-375.8" font-family="Times,serif" font-size="9.00">Fallback</text>
</g>
<!-- Sequence&#45;&gt;Fallback &#160;&#160;&#160;&#160;&#160; -->
<g id="edge23" class="edge">
<title>Sequence&#45;&gt;Fallback &#160;&#160;&#160;&#160;&#160;</title>
<path fill="none" stroke="black" d="M683.99,-441.64C737.35,-429.06 846.17,-403.42 906.71,-389.15"/>
<polygon fill="black" stroke="black" points="907.78,-392.49 916.71,-386.79 906.18,-385.68 907.78,-392.49"/>
</g>
<!-- object_at GreenBox [0.0, 0.133, 0.175] 0.02 KittingBox -->
<g id="node3" class="node">
<title>object_at GreenBox [0.0, 0.133, 0.175] 0.02 KittingBox</title>
<ellipse fill="lightgray" stroke="black" cx="158.77" cy="-306" rx="158.54" ry="18"/>
<text text-anchor="middle" x="158.77" y="-303.8" font-family="Times,serif" font-size="9.00">object_at GreenBox [0.0, 0.133, 0.175] 0.02 KittingBox</text>
</g>
<!-- Fallback&#45;&gt;object_at GreenBox [0.0, 0.133, 0.175] 0.02 KittingBox -->
<g id="edge2" class="edge">
<title>Fallback&#45;&gt;object_at GreenBox [0.0, 0.133, 0.175] 0.02 KittingBox</title>
<path fill="none" stroke="black" d="M337.85,-367.27C306.67,-356.77 256.21,-339.79 216.79,-326.52"/>
<polygon fill="black" stroke="black" points="217.62,-323.11 207.02,-323.24 215.38,-329.74 217.62,-323.11"/>
</g>
<!-- Sequence  -->
<g id="node4" class="node">
<title>Sequence </title>
<polygon fill="orange" stroke="black" points="397.77,-324 335.77,-324 335.77,-288 397.77,-288 397.77,-324"/>
<text text-anchor="middle" x="366.77" y="-303.8" font-family="Times,serif" font-size="9.00">Sequence</text>
</g>
<!-- Fallback&#45;&gt;Sequence  -->
<g id="edge3" class="edge">
<title>Fallback&#45;&gt;Sequence </title>
<path fill="none" stroke="black" d="M366.77,-359.7C366.77,-351.98 366.77,-342.71 366.77,-334.11"/>
<polygon fill="black" stroke="black" points="370.27,-334.1 366.77,-324.1 363.27,-334.1 370.27,-334.1"/>
</g>
<!-- Fallback  -->
<g id="node5" class="node">
<title>Fallback </title>
<polygon fill="cyan" stroke="black" points="197.76,-226.54 197.76,-241.46 177.27,-252 148.28,-252 127.78,-241.46 127.78,-226.54 148.28,-216 177.27,-216 197.76,-226.54"/>
<text text-anchor="middle" x="162.77" y="-231.8" font-family="Times,serif" font-size="9.00">Fallback</text>
</g>
<!-- Sequence &#45;&gt;Fallback  -->
<g id="edge4" class="edge">
<title>Sequence &#45;&gt;Fallback </title>
<path fill="none" stroke="black" d="M335.46,-291.31C332.54,-290.15 329.61,-289.03 326.77,-288 274.4,-269.08 259.45,-270.05 206.77,-252 204.24,-251.13 201.65,-250.21 199.04,-249.26"/>
<polygon fill="black" stroke="black" points="200.24,-245.98 189.64,-245.76 197.79,-252.53 200.24,-245.98"/>
</g>
<!-- place0 GreenBox [0.0, 0.133, 0.175] 0.02 KittingBox -->
<g id="node12" class="node">
<title>place0 GreenBox [0.0, 0.133, 0.175] 0.02 KittingBox</title>
<ellipse fill="lightgray" stroke="black" cx="367.77" cy="-234" rx="152.34" ry="18"/>
<text text-anchor="middle" x="367.77" y="-231.8" font-family="Times,serif" font-size="9.00">place0 GreenBox [0.0, 0.133, 0.175] 0.02 KittingBox</text>
</g>
<!-- Sequence &#45;&gt;place0 GreenBox [0.0, 0.133, 0.175] 0.02 KittingBox -->
<g id="edge11" class="edge">
<title>Sequence &#45;&gt;place0 GreenBox [0.0, 0.133, 0.175] 0.02 KittingBox</title>
<path fill="none" stroke="black" d="M367.02,-287.7C367.13,-279.98 367.26,-270.71 367.38,-262.11"/>
<polygon fill="black" stroke="black" points="370.88,-262.15 367.53,-252.1 363.88,-262.05 370.88,-262.15"/>
</g>
<!-- in_gripper GreenBox -->
<g id="node6" class="node">
<title>in_gripper GreenBox</title>
<ellipse fill="lightgray" stroke="black" cx="135.77" cy="-162" rx="65.64" ry="18"/>
<text text-anchor="middle" x="135.77" y="-159.8" font-family="Times,serif" font-size="9.00">in_gripper GreenBox</text>
</g>
<!-- Fallback &#45;&gt;in_gripper GreenBox -->
<g id="edge5" class="edge">
<title>Fallback &#45;&gt;in_gripper GreenBox</title>
<path fill="none" stroke="black" d="M156.1,-215.7C153.06,-207.81 149.39,-198.3 146.01,-189.55"/>
<polygon fill="black" stroke="black" points="149.23,-188.17 142.37,-180.1 142.7,-190.69 149.23,-188.17"/>
</g>
<!-- Sequence &#160; -->
<g id="node7" class="node">
<title>Sequence &#160;</title>
<polygon fill="orange" stroke="black" points="281.77,-180 219.77,-180 219.77,-144 281.77,-144 281.77,-180"/>
<text text-anchor="middle" x="250.77" y="-159.8" font-family="Times,serif" font-size="9.00">Sequence</text>
</g>
<!-- Fallback &#45;&gt;Sequence &#160; -->
<g id="edge6" class="edge">
<title>Fallback &#45;&gt;Sequence &#160;</title>
<path fill="none" stroke="black" d="M181.87,-217.81C193.31,-208.71 208.11,-196.94 221.05,-186.64"/>
<polygon fill="black" stroke="black" points="223.59,-189.09 229.24,-180.13 219.24,-183.61 223.59,-189.09"/>
</g>
<!-- Fallback &#160; -->
<g id="node8" class="node">
<title>Fallback &#160;</title>
<polygon fill="cyan" stroke="black" points="270.76,-82.54 270.76,-97.46 250.27,-108 221.28,-108 200.78,-97.46 200.78,-82.54 221.28,-72 250.27,-72 270.76,-82.54"/>
<text text-anchor="middle" x="235.77" y="-87.8" font-family="Times,serif" font-size="9.00">Fallback</text>
</g>
<!-- Sequence &#160;&#45;&gt;Fallback &#160; -->
<g id="edge7" class="edge">
<title>Sequence &#160;&#45;&gt;Fallback &#160;</title>
<path fill="none" stroke="black" d="M247.06,-143.7C245.41,-135.98 243.42,-126.71 241.58,-118.11"/>
<polygon fill="black" stroke="black" points="244.95,-117.15 239.44,-108.1 238.11,-118.62 244.95,-117.15"/>
</g>
<!-- pick0 GreenBox -->
<g id="node11" class="node">
<title>pick0 GreenBox</title>
<ellipse fill="lightgray" stroke="black" cx="341.77" cy="-90" rx="52.58" ry="18"/>
<text text-anchor="middle" x="341.77" y="-87.8" font-family="Times,serif" font-size="9.00">pick0 GreenBox</text>
</g>
<!-- Sequence &#160;&#45;&gt;pick0 GreenBox -->
<g id="edge10" class="edge">
<title>Sequence &#160;&#45;&gt;pick0 GreenBox</title>
<path fill="none" stroke="black" d="M273.27,-143.7C285.35,-134.4 300.38,-122.84 313.28,-112.91"/>
<polygon fill="black" stroke="black" points="315.61,-115.54 321.4,-106.67 311.34,-109.99 315.61,-115.54"/>
</g>
<!-- gripper_state open -->
<g id="node9" class="node">
<title>gripper_state open</title>
<ellipse fill="lightgray" stroke="black" cx="153.77" cy="-18" rx="60.09" ry="18"/>
<text text-anchor="middle" x="153.77" y="-15.8" font-family="Times,serif" font-size="9.00">gripper_state open</text>
</g>
<!-- Fallback &#160;&#45;&gt;gripper_state open -->
<g id="edge8" class="edge">
<title>Fallback &#160;&#45;&gt;gripper_state open</title>
<path fill="none" stroke="black" d="M217.57,-73.46C206.66,-64.15 192.58,-52.13 180.43,-41.76"/>
<polygon fill="black" stroke="black" points="182.65,-39.05 172.77,-35.22 178.11,-44.38 182.65,-39.05"/>
</g>
<!-- open_gripper -->
<g id="node10" class="node">
<title>open_gripper</title>
<ellipse fill="lightgray" stroke="black" cx="277.77" cy="-18" rx="45.72" ry="18"/>
<text text-anchor="middle" x="277.77" y="-15.8" font-family="Times,serif" font-size="9.00">open_gripper</text>
</g>
<!-- Fallback &#160;&#45;&gt;open_gripper -->
<g id="edge9" class="edge">
<title>Fallback &#160;&#45;&gt;open_gripper</title>
<path fill="none" stroke="black" d="M246.15,-71.7C251.11,-63.44 257.13,-53.39 262.59,-44.3"/>
<polygon fill="black" stroke="black" points="265.65,-46 267.8,-35.62 259.65,-42.4 265.65,-46"/>
</g>
<!-- object_at BlueBox [0.0, 0.0, 0.22] 0.02 GreenBox -->
<g id="node14" class="node">
<title>object_at BlueBox [0.0, 0.0, 0.22] 0.02 GreenBox</title>
<ellipse fill="lightgray" stroke="black" cx="557.77" cy="-306" rx="142.06" ry="18"/>
<text text-anchor="middle" x="557.77" y="-303.8" font-family="Times,serif" font-size="9.00">object_at BlueBox [0.0, 0.0, 0.22] 0.02 GreenBox</text>
</g>
<!-- Fallback &#160;&#160;&#45;&gt;object_at BlueBox [0.0, 0.0, 0.22] 0.02 GreenBox -->
<g id="edge13" class="edge">
<title>Fallback &#160;&#160;&#45;&gt;object_at BlueBox [0.0, 0.0, 0.22] 0.02 GreenBox</title>
<path fill="none" stroke="black" d="M633.09,-362.5C620.37,-353.12 603.54,-340.72 589.01,-330.02"/>
<polygon fill="black" stroke="black" points="590.9,-327.06 580.78,-323.95 586.75,-332.7 590.9,-327.06"/>
</g>
<!-- Sequence &#160;&#160; -->
<g id="node15" class="node">
<title>Sequence &#160;&#160;</title>
<polygon fill="orange" stroke="black" points="779.77,-324 717.77,-324 717.77,-288 779.77,-288 779.77,-324"/>
<text text-anchor="middle" x="748.77" y="-303.8" font-family="Times,serif" font-size="9.00">Sequence</text>
</g>
<!-- Fallback &#160;&#160;&#45;&gt;Sequence &#160;&#160; -->
<g id="edge14" class="edge">
<title>Fallback &#160;&#160;&#45;&gt;Sequence &#160;&#160;</title>
<path fill="none" stroke="black" d="M672.66,-362.5C685.43,-353.19 702.28,-340.9 716.89,-330.25"/>
<polygon fill="black" stroke="black" points="719.16,-332.92 725.18,-324.2 715.04,-327.27 719.16,-332.92"/>
</g>
<!-- Fallback &#160;&#160;&#160; -->
<g id="node16" class="node">
<title>Fallback &#160;&#160;&#160;</title>
<polygon fill="cyan" stroke="black" points="612.76,-226.54 612.76,-241.46 592.27,-252 563.28,-252 542.78,-241.46 542.78,-226.54 563.28,-216 592.27,-216 612.76,-226.54"/>
<text text-anchor="middle" x="577.77" y="-231.8" font-family="Times,serif" font-size="9.00">Fallback</text>
</g>
<!-- Sequence &#160;&#160;&#45;&gt;Fallback &#160;&#160;&#160; -->
<g id="edge15" class="edge">
<title>Sequence &#160;&#160;&#45;&gt;Fallback &#160;&#160;&#160;</title>
<path fill="none" stroke="black" d="M717.35,-291.59C714.45,-290.37 711.56,-289.16 708.77,-288 676.92,-274.79 640.56,-260.11 614.24,-249.56"/>
<polygon fill="black" stroke="black" points="615.26,-246.19 604.67,-245.72 612.65,-252.69 615.26,-246.19"/>
</g>
<!-- place0 BlueBox [0.0, 0.0, 0.22] 0.02 GreenBox -->
<g id="node23" class="node">
<title>place0 BlueBox [0.0, 0.0, 0.22] 0.02 GreenBox</title>
<ellipse fill="lightgray" stroke="black" cx="766.77" cy="-234" rx="135.85" ry="18"/>
<text text-anchor="middle" x="766.77" y="-231.8" font-family="Times,serif" font-size="9.00">place0 BlueBox [0.0, 0.0, 0.22] 0.02 GreenBox</text>
</g>
<!-- Sequence &#160;&#160;&#45;&gt;place0 BlueBox [0.0, 0.0, 0.22] 0.02 GreenBox -->
<g id="edge22" class="edge">
<title>Sequence &#160;&#160;&#45;&gt;place0 BlueBox [0.0, 0.0, 0.22] 0.02 GreenBox</title>
<path fill="none" stroke="black" d="M753.22,-287.7C755.23,-279.9 757.64,-270.51 759.87,-261.83"/>
<polygon fill="black" stroke="black" points="763.27,-262.66 762.37,-252.1 756.49,-260.92 763.27,-262.66"/>
</g>
<!-- in_gripper BlueBox -->
<g id="node17" class="node">
<title>in_gripper BlueBox</title>
<ellipse fill="lightgray" stroke="black" cx="473.77" cy="-162" rx="61.55" ry="18"/>
<text text-anchor="middle" x="473.77" y="-159.8" font-family="Times,serif" font-size="9.00">in_gripper BlueBox</text>
</g>
<!-- Fallback &#160;&#160;&#160;&#45;&gt;in_gripper BlueBox -->
<g id="edge16" class="edge">
<title>Fallback &#160;&#160;&#160;&#45;&gt;in_gripper BlueBox</title>
<path fill="none" stroke="black" d="M556.73,-218.83C542.07,-208.97 522.25,-195.63 505.66,-184.47"/>
<polygon fill="black" stroke="black" points="507.58,-181.53 497.33,-178.85 503.67,-187.34 507.58,-181.53"/>
</g>
<!-- Sequence &#160;&#160;&#160; -->
<g id="node18" class="node">
<title>Sequence &#160;&#160;&#160;</title>
<polygon fill="orange" stroke="black" points="615.77,-180 553.77,-180 553.77,-144 615.77,-144 615.77,-180"/>
<text text-anchor="middle" x="584.77" y="-159.8" font-family="Times,serif" font-size="9.00">Sequence</text>
</g>
<!-- Fallback &#160;&#160;&#160;&#45;&gt;Sequence &#160;&#160;&#160; -->
<g id="edge17" class="edge">
<title>Fallback &#160;&#160;&#160;&#45;&gt;Sequence &#160;&#160;&#160;</title>
<path fill="none" stroke="black" d="M579.5,-215.7C580.27,-207.98 581.2,-198.71 582.06,-190.11"/>
<polygon fill="black" stroke="black" points="585.55,-190.4 583.06,-180.1 578.58,-189.71 585.55,-190.4"/>
</g>
<!-- Fallback &#160;&#160;&#160;&#160; -->
<g id="node19" class="node">
<title>Fallback &#160;&#160;&#160;&#160;</title>
<polygon fill="cyan" stroke="black" points="522.76,-82.54 522.76,-97.46 502.27,-108 473.28,-108 452.78,-97.46 452.78,-82.54 473.28,-72 502.27,-72 522.76,-82.54"/>
<text text-anchor="middle" x="487.77" y="-87.8" font-family="Times,serif" font-size="9.00">Fallback</text>
</g>
<!-- Sequence &#160;&#160;&#160;&#45;&gt;Fallback &#160;&#160;&#160;&#160; -->
<g id="edge18" class="edge">
<title>Sequence &#160;&#160;&#160;&#45;&gt;Fallback &#160;&#160;&#160;&#160;</title>
<path fill="none" stroke="black" d="M560.79,-143.7C547.23,-133.91 530.19,-121.61 515.98,-111.36"/>
<polygon fill="black" stroke="black" points="517.72,-108.29 507.56,-105.28 513.62,-113.97 517.72,-108.29"/>
</g>
<!-- pick0 BlueBox -->
<g id="node22" class="node">
<title>pick0 BlueBox</title>
<ellipse fill="lightgray" stroke="black" cx="588.77" cy="-90" rx="47.84" ry="18"/>
<text text-anchor="middle" x="588.77" y="-87.8" font-family="Times,serif" font-size="9.00">pick0 BlueBox</text>
</g>
<!-- Sequence &#160;&#160;&#160;&#45;&gt;pick0 BlueBox -->
<g id="edge21" class="edge">
<title>Sequence &#160;&#160;&#160;&#45;&gt;pick0 BlueBox</title>
<path fill="none" stroke="black" d="M585.76,-143.7C586.2,-135.98 586.73,-126.71 587.22,-118.11"/>
<polygon fill="black" stroke="black" points="590.72,-118.29 587.79,-108.1 583.73,-117.89 590.72,-118.29"/>
</g>
<!-- gripper_state open  -->
<g id="node20" class="node">
<title>gripper_state open </title>
<ellipse fill="lightgray" stroke="black" cx="445.77" cy="-18" rx="60.09" ry="18"/>
<text text-anchor="middle" x="445.77" y="-15.8" font-family="Times,serif" font-size="9.00">gripper_state open</text>
</g>
<!-- Fallback &#160;&#160;&#160;&#160;&#45;&gt;gripper_state open  -->
<g id="edge19" class="edge">
<title>Fallback &#160;&#160;&#160;&#160;&#45;&gt;gripper_state open </title>
<path fill="none" stroke="black" d="M477.39,-71.7C472.51,-63.56 466.58,-53.69 461.19,-44.7"/>
<polygon fill="black" stroke="black" points="464.18,-42.88 456.03,-36.1 458.18,-46.48 464.18,-42.88"/>
</g>
<!-- open_gripper  -->
<g id="node21" class="node">
<title>open_gripper </title>
<ellipse fill="lightgray" stroke="black" cx="569.77" cy="-18" rx="45.72" ry="18"/>
<text text-anchor="middle" x="569.77" y="-15.8" font-family="Times,serif" font-size="9.00">open_gripper</text>
</g>
<!-- Fallback &#160;&#160;&#160;&#160;&#45;&gt;open_gripper  -->
<g id="edge20" class="edge">
<title>Fallback &#160;&#160;&#160;&#160;&#45;&gt;open_gripper </title>
<path fill="none" stroke="black" d="M505.97,-73.46C517.04,-64.02 531.36,-51.79 543.63,-41.32"/>
<polygon fill="black" stroke="black" points="546.01,-43.89 551.34,-34.73 541.46,-38.56 546.01,-43.89"/>
</g>
<!-- object_at YellowBox [0.0, &#45;0.12, 0.12] 0.02 GreenBox -->
<g id="node25" class="node">
<title>object_at YellowBox [0.0, &#45;0.12, 0.12] 0.02 GreenBox</title>
<ellipse fill="lightgray" stroke="black" cx="949.77" cy="-306" rx="151.69" ry="18"/>
<text text-anchor="middle" x="949.77" y="-303.8" font-family="Times,serif" font-size="9.00">object_at YellowBox [0.0, &#45;0.12, 0.12] 0.02 GreenBox</text>
</g>
<!-- Fallback &#160;&#160;&#160;&#160;&#160;&#45;&gt;object_at YellowBox [0.0, &#45;0.12, 0.12] 0.02 GreenBox -->
<g id="edge24" class="edge">
<title>Fallback &#160;&#160;&#160;&#160;&#160;&#45;&gt;object_at YellowBox [0.0, &#45;0.12, 0.12] 0.02 GreenBox</title>
<path fill="none" stroke="black" d="M949.77,-359.7C949.77,-351.98 949.77,-342.71 949.77,-334.11"/>
<polygon fill="black" stroke="black" points="953.27,-334.1 949.77,-324.1 946.27,-334.1 953.27,-334.1"/>
</g>
<!-- Sequence &#160;&#160;&#160;&#160; -->
<g id="node26" class="node">
<title>Sequence &#160;&#160;&#160;&#160;</title>
<polygon fill="orange" stroke="black" points="1181.77,-324 1119.77,-324 1119.77,-288 1181.77,-288 1181.77,-324"/>
<text text-anchor="middle" x="1150.77" y="-303.8" font-family="Times,serif" font-size="9.00">Sequence</text>
</g>
<!-- Fallback &#160;&#160;&#160;&#160;&#160;&#45;&gt;Sequence &#160;&#160;&#160;&#160; -->
<g id="edge25" class="edge">
<title>Fallback &#160;&#160;&#160;&#160;&#160;&#45;&gt;Sequence &#160;&#160;&#160;&#160;</title>
<path fill="none" stroke="black" d="M980,-367.88C1010.65,-358.45 1059.58,-342.91 1110,-324.15"/>
<polygon fill="black" stroke="black" points="1111.3,-327.4 1119.43,-320.61 1108.84,-320.85 1111.3,-327.4"/>
</g>
<!-- Fallback &#160;&#160;&#160;&#160;&#160;&#160; -->
<g id="node27" class="node">
<title>Fallback &#160;&#160;&#160;&#160;&#160;&#160;</title>
<polygon fill="cyan" stroke="black" points="991.76,-226.54 991.76,-241.46 971.27,-252 942.28,-252 921.78,-241.46 921.78,-226.54 942.28,-216 971.27,-216 991.76,-226.54"/>
<text text-anchor="middle" x="956.77" y="-231.8" font-family="Times,serif" font-size="9.00">Fallback</text>
</g>
<!-- Sequence &#160;&#160;&#160;&#160;&#45;&gt;Fallback &#160;&#160;&#160;&#160;&#160;&#160; -->
<g id="edge26" class="edge">
<title>Sequence &#160;&#160;&#160;&#160;&#45;&gt;Fallback &#160;&#160;&#160;&#160;&#160;&#160;</title>
<path fill="none" stroke="black" d="M1119.43,-291.38C1116.52,-290.2 1113.6,-289.06 1110.77,-288 1062.61,-269.92 1049.22,-269.28 1000.77,-252 998.25,-251.1 995.67,-250.16 993.06,-249.19"/>
<polygon fill="black" stroke="black" points="994.27,-245.91 983.68,-245.65 991.8,-252.46 994.27,-245.91"/>
</g>
<!-- place0 YellowBox [0.0, &#45;0.12, 0.12] 0.02 GreenBox -->
<g id="node34" class="node">
<title>place0 YellowBox [0.0, &#45;0.12, 0.12] 0.02 GreenBox</title>
<ellipse fill="lightgray" stroke="black" cx="1154.77" cy="-234" rx="145.48" ry="18"/>
<text text-anchor="middle" x="1154.77" y="-231.8" font-family="Times,serif" font-size="9.00">place0 YellowBox [0.0, &#45;0.12, 0.12] 0.02 GreenBox</text>
</g>
<!-- Sequence &#160;&#160;&#160;&#160;&#45;&gt;place0 YellowBox [0.0, &#45;0.12, 0.12] 0.02 GreenBox -->
<g id="edge33" class="edge">
<title>Sequence &#160;&#160;&#160;&#160;&#45;&gt;place0 YellowBox [0.0, &#45;0.12, 0.12] 0.02 GreenBox</title>
<path fill="none" stroke="black" d="M1151.76,-287.7C1152.2,-279.98 1152.73,-270.71 1153.22,-262.11"/>
<polygon fill="black" stroke="black" points="1156.72,-262.29 1153.79,-252.1 1149.73,-261.89 1156.72,-262.29"/>
</g>
<!-- in_gripper YellowBox -->
<g id="node28" class="node">
<title>in_gripper YellowBox</title>
<ellipse fill="lightgray" stroke="black" cx="898.77" cy="-162" rx="66.29" ry="18"/>
<text text-anchor="middle" x="898.77" y="-159.8" font-family="Times,serif" font-size="9.00">in_gripper YellowBox</text>
</g>
<!-- Fallback &#160;&#160;&#160;&#160;&#160;&#160;&#45;&gt;in_gripper YellowBox -->
<g id="edge27" class="edge">
<title>Fallback &#160;&#160;&#160;&#160;&#160;&#160;&#45;&gt;in_gripper YellowBox</title>
<path fill="none" stroke="black" d="M942.43,-215.7C935.38,-207.18 926.75,-196.76 919.03,-187.45"/>
<polygon fill="black" stroke="black" points="921.62,-185.09 912.54,-179.62 916.23,-189.56 921.62,-185.09"/>
</g>
<!-- Sequence &#160;&#160;&#160;&#160;&#160; -->
<g id="node29" class="node">
<title>Sequence &#160;&#160;&#160;&#160;&#160;</title>
<polygon fill="orange" stroke="black" points="1044.77,-180 982.77,-180 982.77,-144 1044.77,-144 1044.77,-180"/>
<text text-anchor="middle" x="1013.77" y="-159.8" font-family="Times,serif" font-size="9.00">Sequence</text>
</g>
<!-- Fallback &#160;&#160;&#160;&#160;&#160;&#160;&#45;&gt;Sequence &#160;&#160;&#160;&#160;&#160; -->
<g id="edge28" class="edge">
<title>Fallback &#160;&#160;&#160;&#160;&#160;&#160;&#45;&gt;Sequence &#160;&#160;&#160;&#160;&#160;</title>
<path fill="none" stroke="black" d="M970.86,-215.7C977.69,-207.3 986.03,-197.07 993.53,-187.86"/>
<polygon fill="black" stroke="black" points="996.24,-190.07 999.84,-180.1 990.82,-185.65 996.24,-190.07"/>
</g>
<!-- Fallback &#160;&#160;&#160;&#160;&#160;&#160;&#160; -->
<g id="node30" class="node">
<title>Fallback &#160;&#160;&#160;&#160;&#160;&#160;&#160;</title>
<polygon fill="cyan" stroke="black" points="995.76,-82.54 995.76,-97.46 975.27,-108 946.28,-108 925.78,-97.46 925.78,-82.54 946.28,-72 975.27,-72 995.76,-82.54"/>
<text text-anchor="middle" x="960.77" y="-87.8" font-family="Times,serif" font-size="9.00">Fallback</text>
</g>
<!-- Sequence &#160;&#160;&#160;&#160;&#160;&#45;&gt;Fallback &#160;&#160;&#160;&#160;&#160;&#160;&#160; -->
<g id="edge29" class="edge">
<title>Sequence &#160;&#160;&#160;&#160;&#160;&#45;&gt;Fallback &#160;&#160;&#160;&#160;&#160;&#160;&#160;</title>
<path fill="none" stroke="black" d="M1000.67,-143.7C994.38,-135.39 986.72,-125.28 979.81,-116.14"/>
<polygon fill="black" stroke="black" points="982.55,-113.96 973.72,-108.1 976.97,-118.19 982.55,-113.96"/>
</g>
<!-- pick0 YellowBox -->
<g id="node33" class="node">
<title>pick0 YellowBox</title>
<ellipse fill="lightgray" stroke="black" cx="1066.77" cy="-90" rx="53.23" ry="18"/>
<text text-anchor="middle" x="1066.77" y="-87.8" font-family="Times,serif" font-size="9.00">pick0 YellowBox</text>
</g>
<!-- Sequence &#160;&#160;&#160;&#160;&#160;&#45;&gt;pick0 YellowBox -->
<g id="edge32" class="edge">
<title>Sequence &#160;&#160;&#160;&#160;&#160;&#45;&gt;pick0 YellowBox</title>
<path fill="none" stroke="black" d="M1026.87,-143.7C1033.26,-135.27 1041.05,-124.97 1048.05,-115.73"/>
<polygon fill="black" stroke="black" points="1050.94,-117.71 1054.19,-107.62 1045.36,-113.48 1050.94,-117.71"/>
</g>
<!-- gripper_state open &#160; -->
<g id="node31" class="node">
<title>gripper_state open &#160;</title>
<ellipse fill="lightgray" stroke="black" cx="898.77" cy="-18" rx="60.09" ry="18"/>
<text text-anchor="middle" x="898.77" y="-15.8" font-family="Times,serif" font-size="9.00">gripper_state open</text>
</g>
<!-- Fallback &#160;&#160;&#160;&#160;&#160;&#160;&#160;&#45;&gt;gripper_state open &#160; -->
<g id="edge30" class="edge">
<title>Fallback &#160;&#160;&#160;&#160;&#160;&#160;&#160;&#45;&gt;gripper_state open &#160;</title>
<path fill="none" stroke="black" d="M945.76,-72.05C938.15,-63.46 928.76,-52.86 920.38,-43.4"/>
<polygon fill="black" stroke="black" points="922.89,-40.95 913.64,-35.79 917.65,-45.6 922.89,-40.95"/>
</g>
<!-- open_gripper &#160; -->
<g id="node32" class="node">
<title>open_gripper &#160;</title>
<ellipse fill="lightgray" stroke="black" cx="1022.77" cy="-18" rx="45.72" ry="18"/>
<text text-anchor="middle" x="1022.77" y="-15.8" font-family="Times,serif" font-size="9.00">open_gripper</text>
</g>
<!-- Fallback &#160;&#160;&#160;&#160;&#160;&#160;&#160;&#45;&gt;open_gripper &#160; -->
<g id="edge31" class="edge">
<title>Fallback &#160;&#160;&#160;&#160;&#160;&#160;&#160;&#45;&gt;open_gripper &#160;</title>
<path fill="none" stroke="black" d="M975.78,-72.05C983.51,-63.33 993.06,-52.54 1001.53,-42.98"/>
<polygon fill="black" stroke="black" points="1004.32,-45.11 1008.33,-35.31 999.08,-40.47 1004.32,-45.11"/>
</g>
</g>
</svg>
