<?xml version="1.0" encoding="UTF-8" standalone="no"?>
<!DOCTYPE svg PUBLIC "-//W3C//DTD SVG 1.1//EN"
 "http://www.w3.org/Graphics/SVG/1.1/DTD/svg11.dtd">
<!-- Generated by graphviz version 2.43.0 (0)
 -->
<!-- Title: pastafarianism Pages: 1 -->
<svg width="3765pt" height="503pt"
 viewBox="0.00 0.00 3764.85 502.60" xmlns="http://www.w3.org/2000/svg" xmlns:xlink="http://www.w3.org/1999/xlink">
<g id="graph0" class="graph" transform="scale(1 1) rotate(0) translate(4 498.6)">
<title>pastafarianism</title>
<polygon fill="white" stroke="transparent" points="-4,4 -4,-498.6 3760.85,-498.6 3760.85,4 -4,4"/>
<!-- selector:
 insert_shaft1_into_gearbase_hole1 -->
<g id="node1" class="node">
<title>selector:
 insert_shaft1_into_gearbase_hole1</title>
<polygon fill="#8deeee" stroke="black" points="1774.09,-442.54 1774.09,-473.18 1624.27,-494.84 1412.38,-494.84 1262.56,-473.18 1262.56,-442.54 1412.38,-420.88 1624.27,-420.88 1774.09,-442.54"/>
<text text-anchor="middle" x="1518.32" y="-463.46" font-family="Times,serif" font-size="18.00">selector:</text>
<text text-anchor="middle" x="1518.32" y="-443.46" font-family="Times,serif" font-size="18.00"> insert_shaft1_into_gearbase_hole1</text>
</g>
<!-- target:
 is_inserted_to(shaft1, gearbase_hole1) -->
<g id="node2" class="node">
<title>target:
 is_inserted_to(shaft1, gearbase_hole1)</title>
<ellipse fill="#ffec8b" stroke="black" cx="1295.32" cy="-351.18" rx="261.76" ry="33.88"/>
<text text-anchor="middle" x="1295.32" y="-356.78" font-family="Times,serif" font-size="18.00">target:</text>
<text text-anchor="middle" x="1295.32" y="-336.78" font-family="Times,serif" font-size="18.00"> is_inserted_to(shaft1, gearbase_hole1)</text>
</g>
<!-- selector:
 insert_shaft1_into_gearbase_hole1&#45;&gt;target:
 is_inserted_to(shaft1, gearbase_hole1) -->
<g id="edge1" class="edge">
<title>selector:
 insert_shaft1_into_gearbase_hole1&#45;&gt;target:
 is_inserted_to(shaft1, gearbase_hole1)</title>
<path fill="none" stroke="black" d="M1441.89,-420.98C1419.4,-410.42 1394.78,-398.87 1372.26,-388.29"/>
<polygon fill="black" stroke="black" points="1373.61,-385.06 1363.07,-383.98 1370.64,-391.4 1373.61,-385.06"/>
</g>
<!-- sequence:
 insert_shaft1_into_gearbase_hole1 -->
<g id="node3" class="node">
<title>sequence:
 insert_shaft1_into_gearbase_hole1</title>
<polygon fill="#ff7f24" stroke="black" points="1909.32,-375.18 1575.32,-375.18 1575.32,-327.18 1909.32,-327.18 1909.32,-375.18"/>
<text text-anchor="middle" x="1742.32" y="-356.78" font-family="Times,serif" font-size="18.00">sequence:</text>
<text text-anchor="middle" x="1742.32" y="-336.78" font-family="Times,serif" font-size="18.00"> insert_shaft1_into_gearbase_hole1</text>
</g>
<!-- selector:
 insert_shaft1_into_gearbase_hole1&#45;&gt;sequence:
 insert_shaft1_into_gearbase_hole1 -->
<g id="edge2" class="edge">
<title>selector:
 insert_shaft1_into_gearbase_hole1&#45;&gt;sequence:
 insert_shaft1_into_gearbase_hole1</title>
<path fill="none" stroke="black" d="M1595.1,-420.98C1624.1,-407.43 1656.61,-392.24 1683.69,-379.58"/>
<polygon fill="black" stroke="black" points="1685.45,-382.62 1693.03,-375.22 1682.49,-376.28 1685.45,-382.62"/>
</g>
<!-- selector:
 change_tool(left_hand, outwardgripper, clampgripper) -->
<g id="node4" class="node">
<title>selector:
 change_tool(left_hand, outwardgripper, clampgripper)</title>
<polygon fill="#8deeee" stroke="black" points="1411.09,-229.19 1411.09,-259.82 1181.01,-281.48 855.64,-281.48 625.56,-259.82 625.56,-229.19 855.64,-207.53 1181.01,-207.53 1411.09,-229.19"/>
<text text-anchor="middle" x="1018.32" y="-250.1" font-family="Times,serif" font-size="18.00">selector:</text>
<text text-anchor="middle" x="1018.32" y="-230.1" font-family="Times,serif" font-size="18.00"> change_tool(left_hand, outwardgripper, clampgripper)</text>
</g>
<!-- sequence:
 insert_shaft1_into_gearbase_hole1&#45;&gt;selector:
 change_tool(left_hand, outwardgripper, clampgripper) -->
<g id="edge3" class="edge">
<title>sequence:
 insert_shaft1_into_gearbase_hole1&#45;&gt;selector:
 change_tool(left_hand, outwardgripper, clampgripper)</title>
<path fill="none" stroke="black" d="M1624.14,-327.14C1604.85,-323.64 1585.05,-320.22 1566.32,-317.24 1469.52,-301.86 1362.72,-287.33 1269.31,-275.42"/>
<polygon fill="black" stroke="black" points="1269.51,-271.92 1259.15,-274.13 1268.63,-278.86 1269.51,-271.92"/>
</g>
<!-- selector:
 pick_up_shaft1_with_clampgripper -->
<g id="node10" class="node">
<title>selector:
 pick_up_shaft1_with_clampgripper</title>
<polygon fill="#8deeee" stroke="black" points="2001.21,-229.19 2001.21,-259.82 1849.56,-281.48 1635.09,-281.48 1483.44,-259.82 1483.44,-229.19 1635.09,-207.53 1849.56,-207.53 2001.21,-229.19"/>
<text text-anchor="middle" x="1742.32" y="-250.1" font-family="Times,serif" font-size="18.00">selector:</text>
<text text-anchor="middle" x="1742.32" y="-230.1" font-family="Times,serif" font-size="18.00"> pick_up_shaft1_with_clampgripper</text>
</g>
<!-- sequence:
 insert_shaft1_into_gearbase_hole1&#45;&gt;selector:
 pick_up_shaft1_with_clampgripper -->
<g id="edge9" class="edge">
<title>sequence:
 insert_shaft1_into_gearbase_hole1&#45;&gt;selector:
 pick_up_shaft1_with_clampgripper</title>
<path fill="none" stroke="black" d="M1742.32,-326.95C1742.32,-316.5 1742.32,-303.79 1742.32,-291.54"/>
<polygon fill="black" stroke="black" points="1745.82,-291.42 1742.32,-281.42 1738.82,-291.42 1745.82,-291.42"/>
</g>
<!-- &quot;sequence:\n insert_shaft1_into_gearbase_hole1&quot;* -->
<g id="node16" class="node">
<title>&quot;sequence:\n insert_shaft1_into_gearbase_hole1&quot;*</title>
<polygon fill="#ff7f24" stroke="black" points="2775.82,-268.5 2424.82,-268.5 2424.82,-220.5 2775.82,-220.5 2775.82,-268.5"/>
<text text-anchor="middle" x="2600.32" y="-250.1" font-family="Times,serif" font-size="18.00">&quot;sequence:</text>
<text text-anchor="middle" x="2600.32" y="-230.1" font-family="Times,serif" font-size="18.00"> insert_shaft1_into_gearbase_hole1&quot;*</text>
</g>
<!-- sequence:
 insert_shaft1_into_gearbase_hole1&#45;&gt;&quot;sequence:\n insert_shaft1_into_gearbase_hole1&quot;* -->
<g id="edge15" class="edge">
<title>sequence:
 insert_shaft1_into_gearbase_hole1&#45;&gt;&quot;sequence:\n insert_shaft1_into_gearbase_hole1&quot;*</title>
<path fill="none" stroke="black" d="M1909.54,-329.78C2054.56,-312.09 2264.19,-286.51 2414.44,-268.18"/>
<polygon fill="black" stroke="black" points="2415.19,-271.61 2424.7,-266.93 2414.35,-264.67 2415.19,-271.61"/>
</g>
<!-- target:
 hold(left_hand, clampgripper) -->
<g id="node5" class="node">
<title>target:
 hold(left_hand, clampgripper)</title>
<ellipse fill="#ffec8b" stroke="black" cx="536.32" cy="-137.82" rx="207.36" ry="33.88"/>
<text text-anchor="middle" x="536.32" y="-143.42" font-family="Times,serif" font-size="18.00">target:</text>
<text text-anchor="middle" x="536.32" y="-123.42" font-family="Times,serif" font-size="18.00"> hold(left_hand, clampgripper)</text>
</g>
<!-- selector:
 change_tool(left_hand, outwardgripper, clampgripper)&#45;&gt;target:
 hold(left_hand, clampgripper) -->
<g id="edge4" class="edge">
<title>selector:
 change_tool(left_hand, outwardgripper, clampgripper)&#45;&gt;target:
 hold(left_hand, clampgripper)</title>
<path fill="none" stroke="black" d="M853.46,-207.7C793.03,-194.57 725.47,-179.9 668.3,-167.48"/>
<polygon fill="black" stroke="black" points="669,-164.06 658.48,-165.35 667.51,-170.9 669,-164.06"/>
</g>
<!-- sequence:
 change_tool(left_hand, outwardgripper, clampgripper) -->
<g id="node6" class="node">
<title>sequence:
 change_tool(left_hand, outwardgripper, clampgripper)</title>
<polygon fill="#ff7f24" stroke="black" points="1274.82,-161.82 761.82,-161.82 761.82,-113.82 1274.82,-113.82 1274.82,-161.82"/>
<text text-anchor="middle" x="1018.32" y="-143.42" font-family="Times,serif" font-size="18.00">sequence:</text>
<text text-anchor="middle" x="1018.32" y="-123.42" font-family="Times,serif" font-size="18.00"> change_tool(left_hand, outwardgripper, clampgripper)</text>
</g>
<!-- selector:
 change_tool(left_hand, outwardgripper, clampgripper)&#45;&gt;sequence:
 change_tool(left_hand, outwardgripper, clampgripper) -->
<g id="edge5" class="edge">
<title>selector:
 change_tool(left_hand, outwardgripper, clampgripper)&#45;&gt;sequence:
 change_tool(left_hand, outwardgripper, clampgripper)</title>
<path fill="none" stroke="black" d="M1018.32,-207.48C1018.32,-196.09 1018.32,-183.57 1018.32,-172.36"/>
<polygon fill="black" stroke="black" points="1021.82,-172.11 1018.32,-162.11 1014.82,-172.11 1021.82,-172.11"/>
</g>
<!-- precondition:
 hold(left_hand, outwardgripper) -->
<g id="node7" class="node">
<title>precondition:
 hold(left_hand, outwardgripper)</title>
<ellipse fill="#ffec8b" stroke="black" cx="221.32" cy="-33.94" rx="221.15" ry="33.88"/>
<text text-anchor="middle" x="221.32" y="-39.54" font-family="Times,serif" font-size="18.00">precondition:</text>
<text text-anchor="middle" x="221.32" y="-19.54" font-family="Times,serif" font-size="18.00"> hold(left_hand, outwardgripper)</text>
</g>
<!-- sequence:
 change_tool(left_hand, outwardgripper, clampgripper)&#45;&gt;precondition:
 hold(left_hand, outwardgripper) -->
<g id="edge6" class="edge">
<title>sequence:
 change_tool(left_hand, outwardgripper, clampgripper)&#45;&gt;precondition:
 hold(left_hand, outwardgripper)</title>
<path fill="none" stroke="black" d="M833.38,-113.82C806.2,-110.47 778.54,-107.07 752.32,-103.88 618.58,-87.6 584.91,-85.43 451.32,-67.88 430.95,-65.21 409.58,-62.29 388.42,-59.34"/>
<polygon fill="black" stroke="black" points="388.77,-55.85 378.39,-57.93 387.8,-62.78 388.77,-55.85"/>
</g>
<!-- precondition:
 is_empty(outwardgripper) -->
<g id="node8" class="node">
<title>precondition:
 is_empty(outwardgripper)</title>
<ellipse fill="#ffec8b" stroke="black" cx="643.32" cy="-33.94" rx="183.28" ry="33.88"/>
<text text-anchor="middle" x="643.32" y="-39.54" font-family="Times,serif" font-size="18.00">precondition:</text>
<text text-anchor="middle" x="643.32" y="-19.54" font-family="Times,serif" font-size="18.00"> is_empty(outwardgripper)</text>
</g>
<!-- sequence:
 change_tool(left_hand, outwardgripper, clampgripper)&#45;&gt;precondition:
 is_empty(outwardgripper) -->
<g id="edge7" class="edge">
<title>sequence:
 change_tool(left_hand, outwardgripper, clampgripper)&#45;&gt;precondition:
 is_empty(outwardgripper)</title>
<path fill="none" stroke="black" d="M933.23,-113.7C880.12,-99.27 811.19,-80.55 753.87,-64.98"/>
<polygon fill="black" stroke="black" points="754.62,-61.55 744.05,-62.31 752.78,-68.31 754.62,-61.55"/>
</g>
<!-- action:
 change_tool(left_hand, outwardgripper, clampgripper) -->
<g id="node9" class="node">
<title>action:
 change_tool(left_hand, outwardgripper, clampgripper)</title>
<ellipse fill="lightgreen" stroke="black" cx="1207.32" cy="-33.94" rx="362.99" ry="33.88"/>
<text text-anchor="middle" x="1207.32" y="-39.54" font-family="Times,serif" font-size="18.00">action:</text>
<text text-anchor="middle" x="1207.32" y="-19.54" font-family="Times,serif" font-size="18.00"> change_tool(left_hand, outwardgripper, clampgripper)</text>
</g>
<!-- sequence:
 change_tool(left_hand, outwardgripper, clampgripper)&#45;&gt;action:
 change_tool(left_hand, outwardgripper, clampgripper) -->
<g id="edge8" class="edge">
<title>sequence:
 change_tool(left_hand, outwardgripper, clampgripper)&#45;&gt;action:
 change_tool(left_hand, outwardgripper, clampgripper)</title>
<path fill="none" stroke="black" d="M1061.21,-113.7C1083.91,-101.47 1112.34,-86.14 1138.08,-72.27"/>
<polygon fill="black" stroke="black" points="1139.91,-75.26 1147.05,-67.43 1136.59,-69.09 1139.91,-75.26"/>
</g>
<!-- target:
 hold(clampgripper, shaft1) -->
<g id="node11" class="node">
<title>target:
 hold(clampgripper, shaft1)</title>
<ellipse fill="#ffec8b" stroke="black" cx="1610.32" cy="-137.82" rx="185.94" ry="33.88"/>
<text text-anchor="middle" x="1610.32" y="-143.42" font-family="Times,serif" font-size="18.00">target:</text>
<text text-anchor="middle" x="1610.32" y="-123.42" font-family="Times,serif" font-size="18.00"> hold(clampgripper, shaft1)</text>
</g>
<!-- selector:
 pick_up_shaft1_with_clampgripper&#45;&gt;target:
 hold(clampgripper, shaft1) -->
<g id="edge10" class="edge">
<title>selector:
 pick_up_shaft1_with_clampgripper&#45;&gt;target:
 hold(clampgripper, shaft1)</title>
<path fill="none" stroke="black" d="M1696.9,-207.48C1684.66,-197.77 1671.38,-187.24 1658.98,-177.41"/>
<polygon fill="black" stroke="black" points="1660.98,-174.53 1650.97,-171.06 1656.63,-180.01 1660.98,-174.53"/>
</g>
<!-- sequence:
 pick_up_shaft1_with_clampgripper -->
<g id="node12" class="node">
<title>sequence:
 pick_up_shaft1_with_clampgripper</title>
<polygon fill="#ff7f24" stroke="black" points="2152.32,-161.82 1814.32,-161.82 1814.32,-113.82 2152.32,-113.82 2152.32,-161.82"/>
<text text-anchor="middle" x="1983.32" y="-143.42" font-family="Times,serif" font-size="18.00">sequence:</text>
<text text-anchor="middle" x="1983.32" y="-123.42" font-family="Times,serif" font-size="18.00"> pick_up_shaft1_with_clampgripper</text>
</g>
<!-- selector:
 pick_up_shaft1_with_clampgripper&#45;&gt;sequence:
 pick_up_shaft1_with_clampgripper -->
<g id="edge11" class="edge">
<title>selector:
 pick_up_shaft1_with_clampgripper&#45;&gt;sequence:
 pick_up_shaft1_with_clampgripper</title>
<path fill="none" stroke="black" d="M1824.93,-207.62C1856.4,-193.95 1891.72,-178.61 1921,-165.89"/>
<polygon fill="black" stroke="black" points="1922.51,-169.05 1930.29,-161.86 1919.72,-162.63 1922.51,-169.05"/>
</g>
<!-- precondition:
 hold(left_hand, clampgripper) -->
<g id="node13" class="node">
<title>precondition:
 hold(left_hand, clampgripper)</title>
<ellipse fill="#ffec8b" stroke="black" cx="1795.32" cy="-33.94" rx="207.36" ry="33.88"/>
<text text-anchor="middle" x="1795.32" y="-39.54" font-family="Times,serif" font-size="18.00">precondition:</text>
<text text-anchor="middle" x="1795.32" y="-19.54" font-family="Times,serif" font-size="18.00"> hold(left_hand, clampgripper)</text>
</g>
<!-- sequence:
 pick_up_shaft1_with_clampgripper&#45;&gt;precondition:
 hold(left_hand, clampgripper) -->
<g id="edge12" class="edge">
<title>sequence:
 pick_up_shaft1_with_clampgripper&#45;&gt;precondition:
 hold(left_hand, clampgripper)</title>
<path fill="none" stroke="black" d="M1940.66,-113.7C1917.7,-101.26 1888.83,-85.61 1862.89,-71.56"/>
<polygon fill="black" stroke="black" points="1864.31,-68.34 1853.85,-66.66 1860.97,-74.5 1864.31,-68.34"/>
</g>
<!-- precondition:
 is_empty(clampgripper) -->
<g id="node14" class="node">
<title>precondition:
 is_empty(clampgripper)</title>
<ellipse fill="#ffec8b" stroke="black" cx="2189.32" cy="-33.94" rx="169" ry="33.88"/>
<text text-anchor="middle" x="2189.32" y="-39.54" font-family="Times,serif" font-size="18.00">precondition:</text>
<text text-anchor="middle" x="2189.32" y="-19.54" font-family="Times,serif" font-size="18.00"> is_empty(clampgripper)</text>
</g>
<!-- sequence:
 pick_up_shaft1_with_clampgripper&#45;&gt;precondition:
 is_empty(clampgripper) -->
<g id="edge13" class="edge">
<title>sequence:
 pick_up_shaft1_with_clampgripper&#45;&gt;precondition:
 is_empty(clampgripper)</title>
<path fill="none" stroke="black" d="M2030.07,-113.7C2055.99,-100.88 2088.77,-84.67 2117.84,-70.29"/>
<polygon fill="black" stroke="black" points="2119.73,-73.27 2127.14,-65.7 2116.62,-66.99 2119.73,-73.27"/>
</g>
<!-- action:
 pick_up(left_hand, clampgripper, shaft1) -->
<g id="node15" class="node">
<title>action:
 pick_up(left_hand, clampgripper, shaft1)</title>
<ellipse fill="lightgreen" stroke="black" cx="2651.32" cy="-33.94" rx="275.13" ry="33.88"/>
<text text-anchor="middle" x="2651.32" y="-39.54" font-family="Times,serif" font-size="18.00">action:</text>
<text text-anchor="middle" x="2651.32" y="-19.54" font-family="Times,serif" font-size="18.00"> pick_up(left_hand, clampgripper, shaft1)</text>
</g>
<!-- sequence:
 pick_up_shaft1_with_clampgripper&#45;&gt;action:
 pick_up(left_hand, clampgripper, shaft1) -->
<g id="edge14" class="edge">
<title>sequence:
 pick_up_shaft1_with_clampgripper&#45;&gt;action:
 pick_up(left_hand, clampgripper, shaft1)</title>
<path fill="none" stroke="black" d="M2103.85,-113.79C2123.05,-110.33 2142.71,-106.91 2161.32,-103.88 2258.17,-88.12 2366.14,-72.69 2456.03,-60.45"/>
<polygon fill="black" stroke="black" points="2456.62,-63.9 2466.06,-59.09 2455.68,-56.96 2456.62,-63.9"/>
</g>
<!-- &quot;precondition:\n hold(left_hand, clampgripper)&quot;* -->
<g id="node17" class="node">
<title>&quot;precondition:\n hold(left_hand, clampgripper)&quot;*</title>
<ellipse fill="#ffec8b" stroke="black" cx="2389.32" cy="-137.82" rx="219.41" ry="33.88"/>
<text text-anchor="middle" x="2389.32" y="-143.42" font-family="Times,serif" font-size="18.00">&quot;precondition:</text>
<text text-anchor="middle" x="2389.32" y="-123.42" font-family="Times,serif" font-size="18.00"> hold(left_hand, clampgripper)&quot;*</text>
</g>
<!-- &quot;sequence:\n insert_shaft1_into_gearbase_hole1&quot;*&#45;&gt;&quot;precondition:\n hold(left_hand, clampgripper)&quot;* -->
<g id="edge16" class="edge">
<title>&quot;sequence:\n insert_shaft1_into_gearbase_hole1&quot;*&#45;&gt;&quot;precondition:\n hold(left_hand, clampgripper)&quot;*</title>
<path fill="none" stroke="black" d="M2553.76,-220.4C2526.92,-207.09 2492.6,-190.06 2462.25,-175"/>
<polygon fill="black" stroke="black" points="2463.49,-171.71 2452.98,-170.4 2460.38,-177.98 2463.49,-171.71"/>
</g>
<!-- precondition:
 hold(clampgripper, shaft1) -->
<g id="node18" class="node">
<title>precondition:
 hold(clampgripper, shaft1)</title>
<ellipse fill="#ffec8b" stroke="black" cx="2812.32" cy="-137.82" rx="185.94" ry="33.88"/>
<text text-anchor="middle" x="2812.32" y="-143.42" font-family="Times,serif" font-size="18.00">precondition:</text>
<text text-anchor="middle" x="2812.32" y="-123.42" font-family="Times,serif" font-size="18.00"> hold(clampgripper, shaft1)</text>
</g>
<!-- &quot;sequence:\n insert_shaft1_into_gearbase_hole1&quot;*&#45;&gt;precondition:
 hold(clampgripper, shaft1) -->
<g id="edge17" class="edge">
<title>&quot;sequence:\n insert_shaft1_into_gearbase_hole1&quot;*&#45;&gt;precondition:
 hold(clampgripper, shaft1)</title>
<path fill="none" stroke="black" d="M2647.11,-220.4C2674.52,-206.86 2709.72,-189.49 2740.57,-174.25"/>
<polygon fill="black" stroke="black" points="2742.15,-177.38 2749.57,-169.81 2739.05,-171.1 2742.15,-177.38"/>
</g>
<!-- action:
 insert(left_hand, clampgripper, shaft1, gearbase_hole1) -->
<g id="node19" class="node">
<title>action:
 insert(left_hand, clampgripper, shaft1, gearbase_hole1)</title>
<ellipse fill="lightgreen" stroke="black" cx="3386.32" cy="-137.82" rx="370.55" ry="33.88"/>
<text text-anchor="middle" x="3386.32" y="-143.42" font-family="Times,serif" font-size="18.00">action:</text>
<text text-anchor="middle" x="3386.32" y="-123.42" font-family="Times,serif" font-size="18.00"> insert(left_hand, clampgripper, shaft1, gearbase_hole1)</text>
</g>
<!-- &quot;sequence:\n insert_shaft1_into_gearbase_hole1&quot;*&#45;&gt;action:
 insert(left_hand, clampgripper, shaft1, gearbase_hole1) -->
<g id="edge18" class="edge">
<title>&quot;sequence:\n insert_shaft1_into_gearbase_hole1&quot;*&#45;&gt;action:
 insert(left_hand, clampgripper, shaft1, gearbase_hole1)</title>
<path fill="none" stroke="black" d="M2773.3,-220.47C2890.47,-204.86 3046.14,-184.13 3171.29,-167.46"/>
<polygon fill="black" stroke="black" points="3171.94,-170.91 3181.39,-166.12 3171.01,-163.97 3171.94,-170.91"/>
</g>
</g>
</svg>
