<?xml version="1.0" encoding="UTF-8" standalone="no"?>
<!DOCTYPE svg PUBLIC "-//W3C//DTD SVG 1.1//EN"
 "http://www.w3.org/Graphics/SVG/1.1/DTD/svg11.dtd">
<!-- Generated by graphviz version 2.43.0 (0)
 -->
<!-- Title: pastafarianism Pages: 1 -->
<svg width="4446pt" height="503pt"
 viewBox="0.00 0.00 4446.39 502.60" xmlns="http://www.w3.org/2000/svg" xmlns:xlink="http://www.w3.org/1999/xlink">
<g id="graph0" class="graph" transform="scale(1 1) rotate(0) translate(4 498.6)">
<title>pastafarianism</title>
<polygon fill="white" stroke="transparent" points="-4,4 -4,-498.6 4442.39,-498.6 4442.39,4 -4,4"/>
<!-- selector:
 insert(shaft1, gearbase_hole1, clampgripper, left_hand) -->
<g id="node1" class="node">
<title>selector:
 insert(shaft1, gearbase_hole1, clampgripper, left_hand)</title>
<polygon fill="#8deeee" stroke="black" points="2515.43,-442.54 2515.43,-473.18 2280.47,-494.84 1948.18,-494.84 1713.22,-473.18 1713.22,-442.54 1948.18,-420.88 2280.47,-420.88 2515.43,-442.54"/>
<text text-anchor="middle" x="2114.32" y="-463.46" font-family="Times,serif" font-size="18.00">selector:</text>
<text text-anchor="middle" x="2114.32" y="-443.46" font-family="Times,serif" font-size="18.00"> insert(shaft1, gearbase_hole1, clampgripper, left_hand)</text>
</g>
<!-- target:
 is_inserted_to(shaft1, gearbase_hole1) -->
<g id="node2" class="node">
<title>target:
 is_inserted_to(shaft1, gearbase_hole1)</title>
<ellipse fill="#ffec8b" stroke="black" cx="1843.32" cy="-351.18" rx="261.76" ry="33.88"/>
<text text-anchor="middle" x="1843.32" y="-356.78" font-family="Times,serif" font-size="18.00">target:</text>
<text text-anchor="middle" x="1843.32" y="-336.78" font-family="Times,serif" font-size="18.00"> is_inserted_to(shaft1, gearbase_hole1)</text>
</g>
<!-- selector:
 insert(shaft1, gearbase_hole1, clampgripper, left_hand)&#45;&gt;target:
 is_inserted_to(shaft1, gearbase_hole1) -->
<g id="edge1" class="edge">
<title>selector:
 insert(shaft1, gearbase_hole1, clampgripper, left_hand)&#45;&gt;target:
 is_inserted_to(shaft1, gearbase_hole1)</title>
<path fill="none" stroke="black" d="M2021.44,-420.98C1993.08,-410.03 1961.95,-398 1933.76,-387.11"/>
<polygon fill="black" stroke="black" points="1934.91,-383.8 1924.32,-383.47 1932.39,-390.33 1934.91,-383.8"/>
</g>
<!-- sequence:
 insert(shaft1, gearbase_hole1, clampgripper, left_hand) -->
<g id="node3" class="node">
<title>sequence:
 insert(shaft1, gearbase_hole1, clampgripper, left_hand)</title>
<polygon fill="#ff7f24" stroke="black" points="2647.32,-375.18 2123.32,-375.18 2123.32,-327.18 2647.32,-327.18 2647.32,-375.18"/>
<text text-anchor="middle" x="2385.32" y="-356.78" font-family="Times,serif" font-size="18.00">sequence:</text>
<text text-anchor="middle" x="2385.32" y="-336.78" font-family="Times,serif" font-size="18.00"> insert(shaft1, gearbase_hole1, clampgripper, left_hand)</text>
</g>
<!-- selector:
 insert(shaft1, gearbase_hole1, clampgripper, left_hand)&#45;&gt;sequence:
 insert(shaft1, gearbase_hole1, clampgripper, left_hand) -->
<g id="edge2" class="edge">
<title>selector:
 insert(shaft1, gearbase_hole1, clampgripper, left_hand)&#45;&gt;sequence:
 insert(shaft1, gearbase_hole1, clampgripper, left_hand)</title>
<path fill="none" stroke="black" d="M2207.21,-420.98C2242.91,-407.19 2283,-391.7 2316.1,-378.92"/>
<polygon fill="black" stroke="black" points="2317.62,-382.09 2325.68,-375.22 2315.1,-375.56 2317.62,-382.09"/>
</g>
<!-- selector:
 put_down(left_hand, outwardgripper, gear2) -->
<g id="node4" class="node">
<title>selector:
 put_down(left_hand, outwardgripper, gear2)</title>
<polygon fill="#8deeee" stroke="black" points="1237.82,-229.19 1237.82,-259.82 1048.32,-281.48 780.33,-281.48 590.82,-259.82 590.82,-229.19 780.33,-207.53 1048.32,-207.53 1237.82,-229.19"/>
<text text-anchor="middle" x="914.32" y="-250.1" font-family="Times,serif" font-size="18.00">selector:</text>
<text text-anchor="middle" x="914.32" y="-230.1" font-family="Times,serif" font-size="18.00"> put_down(left_hand, outwardgripper, gear2)</text>
</g>
<!-- sequence:
 insert(shaft1, gearbase_hole1, clampgripper, left_hand)&#45;&gt;selector:
 put_down(left_hand, outwardgripper, gear2) -->
<g id="edge3" class="edge">
<title>sequence:
 insert(shaft1, gearbase_hole1, clampgripper, left_hand)&#45;&gt;selector:
 put_down(left_hand, outwardgripper, gear2)</title>
<path fill="none" stroke="black" d="M2209.1,-327.17C2177.58,-323.51 2145.01,-320.02 2114.32,-317.24 1949.46,-302.31 1528.13,-278.33 1231.49,-262.26"/>
<polygon fill="black" stroke="black" points="1231.6,-258.76 1221.43,-261.71 1231.22,-265.75 1231.6,-258.76"/>
</g>
<!-- selector:
 change_tool(left_hand, outwardgripper, clampgripper) -->
<g id="node10" class="node">
<title>selector:
 change_tool(left_hand, outwardgripper, clampgripper)</title>
<polygon fill="#8deeee" stroke="black" points="2424.09,-229.19 2424.09,-259.82 2194.01,-281.48 1868.64,-281.48 1638.56,-259.82 1638.56,-229.19 1868.64,-207.53 2194.01,-207.53 2424.09,-229.19"/>
<text text-anchor="middle" x="2031.32" y="-250.1" font-family="Times,serif" font-size="18.00">selector:</text>
<text text-anchor="middle" x="2031.32" y="-230.1" font-family="Times,serif" font-size="18.00"> change_tool(left_hand, outwardgripper, clampgripper)</text>
</g>
<!-- sequence:
 insert(shaft1, gearbase_hole1, clampgripper, left_hand)&#45;&gt;selector:
 change_tool(left_hand, outwardgripper, clampgripper) -->
<g id="edge9" class="edge">
<title>sequence:
 insert(shaft1, gearbase_hole1, clampgripper, left_hand)&#45;&gt;selector:
 change_tool(left_hand, outwardgripper, clampgripper)</title>
<path fill="none" stroke="black" d="M2307.2,-327.08C2264.63,-314.49 2210.83,-298.58 2162.07,-284.16"/>
<polygon fill="black" stroke="black" points="2162.97,-280.78 2152.39,-281.3 2160.98,-287.49 2162.97,-280.78"/>
</g>
<!-- selector:
 pick_up(left_hand, clampgripper, shaft1) -->
<g id="node16" class="node">
<title>selector:
 pick_up(left_hand, clampgripper, shaft1)</title>
<polygon fill="#8deeee" stroke="black" points="3037.28,-229.19 3037.28,-259.82 2862.74,-281.48 2615.91,-281.48 2441.37,-259.82 2441.37,-229.19 2615.91,-207.53 2862.74,-207.53 3037.28,-229.19"/>
<text text-anchor="middle" x="2739.32" y="-250.1" font-family="Times,serif" font-size="18.00">selector:</text>
<text text-anchor="middle" x="2739.32" y="-230.1" font-family="Times,serif" font-size="18.00"> pick_up(left_hand, clampgripper, shaft1)</text>
</g>
<!-- sequence:
 insert(shaft1, gearbase_hole1, clampgripper, left_hand)&#45;&gt;selector:
 pick_up(left_hand, clampgripper, shaft1) -->
<g id="edge15" class="edge">
<title>sequence:
 insert(shaft1, gearbase_hole1, clampgripper, left_hand)&#45;&gt;selector:
 pick_up(left_hand, clampgripper, shaft1)</title>
<path fill="none" stroke="black" d="M2463.45,-327.08C2506.02,-314.49 2559.82,-298.58 2608.58,-284.16"/>
<polygon fill="black" stroke="black" points="2609.67,-287.49 2618.26,-281.3 2607.68,-280.78 2609.67,-287.49"/>
</g>
<!-- action:
 insert(left_hand, clampgripper, shaft1, gearbase_hole1) -->
<g id="node22" class="node">
<title>action:
 insert(left_hand, clampgripper, shaft1, gearbase_hole1)</title>
<ellipse fill="lightgreen" stroke="black" cx="3425.32" cy="-244.5" rx="370.55" ry="33.88"/>
<text text-anchor="middle" x="3425.32" y="-250.1" font-family="Times,serif" font-size="18.00">action:</text>
<text text-anchor="middle" x="3425.32" y="-230.1" font-family="Times,serif" font-size="18.00"> insert(left_hand, clampgripper, shaft1, gearbase_hole1)</text>
</g>
<!-- sequence:
 insert(shaft1, gearbase_hole1, clampgripper, left_hand)&#45;&gt;action:
 insert(left_hand, clampgripper, shaft1, gearbase_hole1) -->
<g id="edge21" class="edge">
<title>sequence:
 insert(shaft1, gearbase_hole1, clampgripper, left_hand)&#45;&gt;action:
 insert(left_hand, clampgripper, shaft1, gearbase_hole1)</title>
<path fill="none" stroke="black" d="M2613.88,-327.18C2778.49,-310.61 3000.64,-288.25 3170.89,-271.11"/>
<polygon fill="black" stroke="black" points="3171.4,-274.58 3181,-270.09 3170.7,-267.61 3171.4,-274.58"/>
</g>
<!-- target:
 is_empty(outwardgripper) -->
<g id="node5" class="node">
<title>target:
 is_empty(outwardgripper)</title>
<ellipse fill="#ffec8b" stroke="black" cx="501.32" cy="-137.82" rx="183.28" ry="33.88"/>
<text text-anchor="middle" x="501.32" y="-143.42" font-family="Times,serif" font-size="18.00">target:</text>
<text text-anchor="middle" x="501.32" y="-123.42" font-family="Times,serif" font-size="18.00"> is_empty(outwardgripper)</text>
</g>
<!-- selector:
 put_down(left_hand, outwardgripper, gear2)&#45;&gt;target:
 is_empty(outwardgripper) -->
<g id="edge4" class="edge">
<title>selector:
 put_down(left_hand, outwardgripper, gear2)&#45;&gt;target:
 is_empty(outwardgripper)</title>
<path fill="none" stroke="black" d="M774.79,-208.14C723.33,-195.09 665.64,-180.47 616.56,-168.03"/>
<polygon fill="black" stroke="black" points="617.42,-164.64 606.86,-165.57 615.7,-171.42 617.42,-164.64"/>
</g>
<!-- sequence:
 put_down(left_hand, outwardgripper, gear2) -->
<g id="node6" class="node">
<title>sequence:
 put_down(left_hand, outwardgripper, gear2)</title>
<polygon fill="#ff7f24" stroke="black" points="1125.82,-161.82 702.82,-161.82 702.82,-113.82 1125.82,-113.82 1125.82,-161.82"/>
<text text-anchor="middle" x="914.32" y="-143.42" font-family="Times,serif" font-size="18.00">sequence:</text>
<text text-anchor="middle" x="914.32" y="-123.42" font-family="Times,serif" font-size="18.00"> put_down(left_hand, outwardgripper, gear2)</text>
</g>
<!-- selector:
 put_down(left_hand, outwardgripper, gear2)&#45;&gt;sequence:
 put_down(left_hand, outwardgripper, gear2) -->
<g id="edge5" class="edge">
<title>selector:
 put_down(left_hand, outwardgripper, gear2)&#45;&gt;sequence:
 put_down(left_hand, outwardgripper, gear2)</title>
<path fill="none" stroke="black" d="M914.32,-207.48C914.32,-196.09 914.32,-183.57 914.32,-172.36"/>
<polygon fill="black" stroke="black" points="917.82,-172.11 914.32,-162.11 910.82,-172.11 917.82,-172.11"/>
</g>
<!-- precondition:
 hold(left_hand, outwardgripper) -->
<g id="node7" class="node">
<title>precondition:
 hold(left_hand, outwardgripper)</title>
<ellipse fill="#ffec8b" stroke="black" cx="221.32" cy="-33.94" rx="221.15" ry="33.88"/>
<text text-anchor="middle" x="221.32" y="-39.54" font-family="Times,serif" font-size="18.00">precondition:</text>
<text text-anchor="middle" x="221.32" y="-19.54" font-family="Times,serif" font-size="18.00"> hold(left_hand, outwardgripper)</text>
</g>
<!-- sequence:
 put_down(left_hand, outwardgripper, gear2)&#45;&gt;precondition:
 hold(left_hand, outwardgripper) -->
<g id="edge6" class="edge">
<title>sequence:
 put_down(left_hand, outwardgripper, gear2)&#45;&gt;precondition:
 hold(left_hand, outwardgripper)</title>
<path fill="none" stroke="black" d="M760.37,-113.82C737.88,-110.47 715.01,-107.08 693.32,-103.88 592.35,-88.98 479.19,-72.45 388.99,-59.31"/>
<polygon fill="black" stroke="black" points="389.34,-55.82 378.94,-57.85 388.33,-62.75 389.34,-55.82"/>
</g>
<!-- precondition:
 hold(outwardgripper, gear2) -->
<g id="node8" class="node">
<title>precondition:
 hold(outwardgripper, gear2)</title>
<ellipse fill="#ffec8b" stroke="black" cx="657.32" cy="-33.94" rx="196.65" ry="33.88"/>
<text text-anchor="middle" x="657.32" y="-39.54" font-family="Times,serif" font-size="18.00">precondition:</text>
<text text-anchor="middle" x="657.32" y="-19.54" font-family="Times,serif" font-size="18.00"> hold(outwardgripper, gear2)</text>
</g>
<!-- sequence:
 put_down(left_hand, outwardgripper, gear2)&#45;&gt;precondition:
 hold(outwardgripper, gear2) -->
<g id="edge7" class="edge">
<title>sequence:
 put_down(left_hand, outwardgripper, gear2)&#45;&gt;precondition:
 hold(outwardgripper, gear2)</title>
<path fill="none" stroke="black" d="M856.01,-113.7C822.69,-100.5 780.3,-83.69 743.24,-69"/>
<polygon fill="black" stroke="black" points="744.53,-65.75 733.94,-65.32 741.95,-72.25 744.53,-65.75"/>
</g>
<!-- action:
 put_down(left_hand, outwardgripper, gear2) -->
<g id="node9" class="node">
<title>action:
 put_down(left_hand, outwardgripper, gear2)</title>
<ellipse fill="lightgreen" stroke="black" cx="1171.32" cy="-33.94" rx="299.21" ry="33.88"/>
<text text-anchor="middle" x="1171.32" y="-39.54" font-family="Times,serif" font-size="18.00">action:</text>
<text text-anchor="middle" x="1171.32" y="-19.54" font-family="Times,serif" font-size="18.00"> put_down(left_hand, outwardgripper, gear2)</text>
</g>
<!-- sequence:
 put_down(left_hand, outwardgripper, gear2)&#45;&gt;action:
 put_down(left_hand, outwardgripper, gear2) -->
<g id="edge8" class="edge">
<title>sequence:
 put_down(left_hand, outwardgripper, gear2)&#45;&gt;action:
 put_down(left_hand, outwardgripper, gear2)</title>
<path fill="none" stroke="black" d="M972.64,-113.7C1004.86,-100.93 1045.57,-84.79 1081.74,-70.45"/>
<polygon fill="black" stroke="black" points="1083.31,-73.6 1091.32,-66.66 1080.73,-67.09 1083.31,-73.6"/>
</g>
<!-- target:
 hold(left_hand, clampgripper) -->
<g id="node11" class="node">
<title>target:
 hold(left_hand, clampgripper)</title>
<ellipse fill="#ffec8b" stroke="black" cx="1673.32" cy="-137.82" rx="207.36" ry="33.88"/>
<text text-anchor="middle" x="1673.32" y="-143.42" font-family="Times,serif" font-size="18.00">target:</text>
<text text-anchor="middle" x="1673.32" y="-123.42" font-family="Times,serif" font-size="18.00"> hold(left_hand, clampgripper)</text>
</g>
<!-- selector:
 change_tool(left_hand, outwardgripper, clampgripper)&#45;&gt;target:
 hold(left_hand, clampgripper) -->
<g id="edge10" class="edge">
<title>selector:
 change_tool(left_hand, outwardgripper, clampgripper)&#45;&gt;target:
 hold(left_hand, clampgripper)</title>
<path fill="none" stroke="black" d="M1908.87,-207.7C1867.63,-195.64 1821.91,-182.27 1781.82,-170.55"/>
<polygon fill="black" stroke="black" points="1782.6,-167.13 1772.02,-167.68 1780.64,-173.85 1782.6,-167.13"/>
</g>
<!-- sequence:
 change_tool(left_hand, outwardgripper, clampgripper) -->
<g id="node12" class="node">
<title>sequence:
 change_tool(left_hand, outwardgripper, clampgripper)</title>
<polygon fill="#ff7f24" stroke="black" points="2411.82,-161.82 1898.82,-161.82 1898.82,-113.82 2411.82,-113.82 2411.82,-161.82"/>
<text text-anchor="middle" x="2155.32" y="-143.42" font-family="Times,serif" font-size="18.00">sequence:</text>
<text text-anchor="middle" x="2155.32" y="-123.42" font-family="Times,serif" font-size="18.00"> change_tool(left_hand, outwardgripper, clampgripper)</text>
</g>
<!-- selector:
 change_tool(left_hand, outwardgripper, clampgripper)&#45;&gt;sequence:
 change_tool(left_hand, outwardgripper, clampgripper) -->
<g id="edge11" class="edge">
<title>selector:
 change_tool(left_hand, outwardgripper, clampgripper)&#45;&gt;sequence:
 change_tool(left_hand, outwardgripper, clampgripper)</title>
<path fill="none" stroke="black" d="M2074,-207.48C2089.01,-194.8 2105.71,-180.71 2120.04,-168.61"/>
<polygon fill="black" stroke="black" points="2122.36,-171.23 2127.74,-162.11 2117.84,-165.89 2122.36,-171.23"/>
</g>
<!-- &quot;precondition:\n hold(left_hand, outwardgripper)&quot;* -->
<g id="node13" class="node">
<title>&quot;precondition:\n hold(left_hand, outwardgripper)&quot;*</title>
<ellipse fill="#ffec8b" stroke="black" cx="1721.32" cy="-33.94" rx="233.19" ry="33.88"/>
<text text-anchor="middle" x="1721.32" y="-39.54" font-family="Times,serif" font-size="18.00">&quot;precondition:</text>
<text text-anchor="middle" x="1721.32" y="-19.54" font-family="Times,serif" font-size="18.00"> hold(left_hand, outwardgripper)&quot;*</text>
</g>
<!-- sequence:
 change_tool(left_hand, outwardgripper, clampgripper)&#45;&gt;&quot;precondition:\n hold(left_hand, outwardgripper)&quot;* -->
<g id="edge12" class="edge">
<title>sequence:
 change_tool(left_hand, outwardgripper, clampgripper)&#45;&gt;&quot;precondition:\n hold(left_hand, outwardgripper)&quot;*</title>
<path fill="none" stroke="black" d="M2057.11,-113.77C1996.23,-99.47 1917.3,-80.95 1851.27,-65.45"/>
<polygon fill="black" stroke="black" points="1851.74,-61.96 1841.21,-63.08 1850.14,-68.78 1851.74,-61.96"/>
</g>
<!-- precondition:
 is_empty(outwardgripper) -->
<g id="node14" class="node">
<title>precondition:
 is_empty(outwardgripper)</title>
<ellipse fill="#ffec8b" stroke="black" cx="2155.32" cy="-33.94" rx="183.28" ry="33.88"/>
<text text-anchor="middle" x="2155.32" y="-39.54" font-family="Times,serif" font-size="18.00">precondition:</text>
<text text-anchor="middle" x="2155.32" y="-19.54" font-family="Times,serif" font-size="18.00"> is_empty(outwardgripper)</text>
</g>
<!-- sequence:
 change_tool(left_hand, outwardgripper, clampgripper)&#45;&gt;precondition:
 is_empty(outwardgripper) -->
<g id="edge13" class="edge">
<title>sequence:
 change_tool(left_hand, outwardgripper, clampgripper)&#45;&gt;precondition:
 is_empty(outwardgripper)</title>
<path fill="none" stroke="black" d="M2155.32,-113.7C2155.32,-103.16 2155.32,-90.31 2155.32,-78.08"/>
<polygon fill="black" stroke="black" points="2158.82,-78.01 2155.32,-68.01 2151.82,-78.01 2158.82,-78.01"/>
</g>
<!-- action:
 change_tool(left_hand, outwardgripper, clampgripper) -->
<g id="node15" class="node">
<title>action:
 change_tool(left_hand, outwardgripper, clampgripper)</title>
<ellipse fill="lightgreen" stroke="black" cx="2719.32" cy="-33.94" rx="362.99" ry="33.88"/>
<text text-anchor="middle" x="2719.32" y="-39.54" font-family="Times,serif" font-size="18.00">action:</text>
<text text-anchor="middle" x="2719.32" y="-19.54" font-family="Times,serif" font-size="18.00"> change_tool(left_hand, outwardgripper, clampgripper)</text>
</g>
<!-- sequence:
 change_tool(left_hand, outwardgripper, clampgripper)&#45;&gt;action:
 change_tool(left_hand, outwardgripper, clampgripper) -->
<g id="edge14" class="edge">
<title>sequence:
 change_tool(left_hand, outwardgripper, clampgripper)&#45;&gt;action:
 change_tool(left_hand, outwardgripper, clampgripper)</title>
<path fill="none" stroke="black" d="M2282.95,-113.77C2360.94,-99.68 2461.7,-81.48 2546.74,-66.12"/>
<polygon fill="black" stroke="black" points="2547.55,-69.53 2556.76,-64.31 2546.3,-62.64 2547.55,-69.53"/>
</g>
<!-- target:
 hold(clampgripper, shaft1) -->
<g id="node17" class="node">
<title>target:
 hold(clampgripper, shaft1)</title>
<ellipse fill="#ffec8b" stroke="black" cx="2739.32" cy="-137.82" rx="185.94" ry="33.88"/>
<text text-anchor="middle" x="2739.32" y="-143.42" font-family="Times,serif" font-size="18.00">target:</text>
<text text-anchor="middle" x="2739.32" y="-123.42" font-family="Times,serif" font-size="18.00"> hold(clampgripper, shaft1)</text>
</g>
<!-- selector:
 pick_up(left_hand, clampgripper, shaft1)&#45;&gt;target:
 hold(clampgripper, shaft1) -->
<g id="edge16" class="edge">
<title>selector:
 pick_up(left_hand, clampgripper, shaft1)&#45;&gt;target:
 hold(clampgripper, shaft1)</title>
<path fill="none" stroke="black" d="M2739.32,-207.48C2739.32,-199.32 2739.32,-190.58 2739.32,-182.15"/>
<polygon fill="black" stroke="black" points="2742.82,-182.1 2739.32,-172.1 2735.82,-182.1 2742.82,-182.1"/>
</g>
<!-- sequence:
 pick_up(left_hand, clampgripper, shaft1) -->
<g id="node18" class="node">
<title>sequence:
 pick_up(left_hand, clampgripper, shaft1)</title>
<polygon fill="#ff7f24" stroke="black" points="3660.82,-161.82 3271.82,-161.82 3271.82,-113.82 3660.82,-113.82 3660.82,-161.82"/>
<text text-anchor="middle" x="3466.32" y="-143.42" font-family="Times,serif" font-size="18.00">sequence:</text>
<text text-anchor="middle" x="3466.32" y="-123.42" font-family="Times,serif" font-size="18.00"> pick_up(left_hand, clampgripper, shaft1)</text>
</g>
<!-- selector:
 pick_up(left_hand, clampgripper, shaft1)&#45;&gt;sequence:
 pick_up(left_hand, clampgripper, shaft1) -->
<g id="edge17" class="edge">
<title>selector:
 pick_up(left_hand, clampgripper, shaft1)&#45;&gt;sequence:
 pick_up(left_hand, clampgripper, shaft1)</title>
<path fill="none" stroke="black" d="M2930.81,-215.93C3044.32,-199.59 3186.92,-179.05 3296.43,-163.29"/>
<polygon fill="black" stroke="black" points="3297.18,-166.71 3306.58,-161.82 3296.19,-159.79 3297.18,-166.71"/>
</g>
<!-- precondition:
 is_empty(clampgripper) -->
<g id="node19" class="node">
<title>precondition:
 is_empty(clampgripper)</title>
<ellipse fill="#ffec8b" stroke="black" cx="3269.32" cy="-33.94" rx="169" ry="33.88"/>
<text text-anchor="middle" x="3269.32" y="-39.54" font-family="Times,serif" font-size="18.00">precondition:</text>
<text text-anchor="middle" x="3269.32" y="-19.54" font-family="Times,serif" font-size="18.00"> is_empty(clampgripper)</text>
</g>
<!-- sequence:
 pick_up(left_hand, clampgripper, shaft1)&#45;&gt;precondition:
 is_empty(clampgripper) -->
<g id="edge18" class="edge">
<title>sequence:
 pick_up(left_hand, clampgripper, shaft1)&#45;&gt;precondition:
 is_empty(clampgripper)</title>
<path fill="none" stroke="black" d="M3421.62,-113.7C3397.04,-100.99 3366.01,-84.95 3338.39,-70.66"/>
<polygon fill="black" stroke="black" points="3339.65,-67.37 3329.16,-65.89 3336.44,-73.59 3339.65,-67.37"/>
</g>
<!-- precondition:
 hold(left_hand, clampgripper) -->
<g id="node20" class="node">
<title>precondition:
 hold(left_hand, clampgripper)</title>
<ellipse fill="#ffec8b" stroke="black" cx="3663.32" cy="-33.94" rx="207.36" ry="33.88"/>
<text text-anchor="middle" x="3663.32" y="-39.54" font-family="Times,serif" font-size="18.00">precondition:</text>
<text text-anchor="middle" x="3663.32" y="-19.54" font-family="Times,serif" font-size="18.00"> hold(left_hand, clampgripper)</text>
</g>
<!-- sequence:
 pick_up(left_hand, clampgripper, shaft1)&#45;&gt;precondition:
 hold(left_hand, clampgripper) -->
<g id="edge19" class="edge">
<title>sequence:
 pick_up(left_hand, clampgripper, shaft1)&#45;&gt;precondition:
 hold(left_hand, clampgripper)</title>
<path fill="none" stroke="black" d="M3511.03,-113.7C3535.3,-101.15 3565.86,-85.35 3593.23,-71.19"/>
<polygon fill="black" stroke="black" points="3595.1,-74.17 3602.37,-66.46 3591.88,-67.95 3595.1,-74.17"/>
</g>
<!-- action:
 pick_up(left_hand, clampgripper, shaft1) -->
<g id="node21" class="node">
<title>action:
 pick_up(left_hand, clampgripper, shaft1)</title>
<ellipse fill="lightgreen" stroke="black" cx="4163.32" cy="-33.94" rx="275.13" ry="33.88"/>
<text text-anchor="middle" x="4163.32" y="-39.54" font-family="Times,serif" font-size="18.00">action:</text>
<text text-anchor="middle" x="4163.32" y="-19.54" font-family="Times,serif" font-size="18.00"> pick_up(left_hand, clampgripper, shaft1)</text>
</g>
<!-- sequence:
 pick_up(left_hand, clampgripper, shaft1)&#45;&gt;action:
 pick_up(left_hand, clampgripper, shaft1) -->
<g id="edge20" class="edge">
<title>sequence:
 pick_up(left_hand, clampgripper, shaft1)&#45;&gt;action:
 pick_up(left_hand, clampgripper, shaft1)</title>
<path fill="none" stroke="black" d="M3624.05,-113.77C3729.69,-98.33 3869.13,-77.94 3979.76,-61.77"/>
<polygon fill="black" stroke="black" points="3980.31,-65.23 3989.69,-60.32 3979.29,-58.3 3980.31,-65.23"/>
</g>
</g>
</svg>
