<?xml version="1.0" encoding="UTF-8" standalone="no"?>
<!DOCTYPE svg PUBLIC "-//W3C//DTD SVG 1.1//EN"
 "http://www.w3.org/Graphics/SVG/1.1/DTD/svg11.dtd">
<!-- Generated by graphviz version 2.43.0 (0)
 -->
<!-- Title: pastafarianism Pages: 1 -->
<svg width="2978pt" height="503pt"
 viewBox="0.00 0.00 2978.25 502.60" xmlns="http://www.w3.org/2000/svg" xmlns:xlink="http://www.w3.org/1999/xlink">
<g id="graph0" class="graph" transform="scale(1 1) rotate(0) translate(4 498.6)">
<title>pastafarianism</title>
<polygon fill="white" stroke="transparent" points="-4,4 -4,-498.6 2974.25,-498.6 2974.25,4 -4,4"/>
<!-- selector:
 insert(shaft1, gearbase_hole1, clampgripper, left_hand) -->
<g id="node1" class="node">
<title>selector:
 insert(shaft1, gearbase_hole1, clampgripper, left_hand)</title>
<polygon fill="#8deeee" stroke="black" points="1531.29,-442.54 1531.29,-473.18 1296.33,-494.84 964.04,-494.84 729.08,-473.18 729.08,-442.54 964.04,-420.88 1296.33,-420.88 1531.29,-442.54"/>
<text text-anchor="middle" x="1130.18" y="-463.46" font-family="Times,serif" font-size="18.00">selector:</text>
<text text-anchor="middle" x="1130.18" y="-443.46" font-family="Times,serif" font-size="18.00"> insert(shaft1, gearbase_hole1, clampgripper, left_hand)</text>
</g>
<!-- target:
 is_inserted_to(shaft1, gearbase_hole1) -->
<g id="node2" class="node">
<title>target:
 is_inserted_to(shaft1, gearbase_hole1)</title>
<ellipse fill="#ffec8b" stroke="black" cx="859.18" cy="-351.18" rx="261.76" ry="33.88"/>
<text text-anchor="middle" x="859.18" y="-356.78" font-family="Times,serif" font-size="18.00">target:</text>
<text text-anchor="middle" x="859.18" y="-336.78" font-family="Times,serif" font-size="18.00"> is_inserted_to(shaft1, gearbase_hole1)</text>
</g>
<!-- selector:
 insert(shaft1, gearbase_hole1, clampgripper, left_hand)&#45;&gt;target:
 is_inserted_to(shaft1, gearbase_hole1) -->
<g id="edge1" class="edge">
<title>selector:
 insert(shaft1, gearbase_hole1, clampgripper, left_hand)&#45;&gt;target:
 is_inserted_to(shaft1, gearbase_hole1)</title>
<path fill="none" stroke="black" d="M1037.3,-420.98C1008.94,-410.03 977.81,-398 949.62,-387.11"/>
<polygon fill="black" stroke="black" points="950.77,-383.8 940.18,-383.47 948.24,-390.33 950.77,-383.8"/>
</g>
<!-- sequence:
 insert(shaft1, gearbase_hole1, clampgripper, left_hand) -->
<g id="node3" class="node">
<title>sequence:
 insert(shaft1, gearbase_hole1, clampgripper, left_hand)</title>
<polygon fill="#ff7f24" stroke="black" points="1663.18,-375.18 1139.18,-375.18 1139.18,-327.18 1663.18,-327.18 1663.18,-375.18"/>
<text text-anchor="middle" x="1401.18" y="-356.78" font-family="Times,serif" font-size="18.00">sequence:</text>
<text text-anchor="middle" x="1401.18" y="-336.78" font-family="Times,serif" font-size="18.00"> insert(shaft1, gearbase_hole1, clampgripper, left_hand)</text>
</g>
<!-- selector:
 insert(shaft1, gearbase_hole1, clampgripper, left_hand)&#45;&gt;sequence:
 insert(shaft1, gearbase_hole1, clampgripper, left_hand) -->
<g id="edge2" class="edge">
<title>selector:
 insert(shaft1, gearbase_hole1, clampgripper, left_hand)&#45;&gt;sequence:
 insert(shaft1, gearbase_hole1, clampgripper, left_hand)</title>
<path fill="none" stroke="black" d="M1223.07,-420.98C1258.77,-407.19 1298.86,-391.7 1331.96,-378.92"/>
<polygon fill="black" stroke="black" points="1333.48,-382.09 1341.54,-375.22 1330.95,-375.56 1333.48,-382.09"/>
</g>
<!-- selector:
 change_tool(left_hand, outwardgripper, clampgripper) -->
<g id="node4" class="node">
<title>selector:
 change_tool(left_hand, outwardgripper, clampgripper)</title>
<polygon fill="#8deeee" stroke="black" points="1081.95,-229.19 1081.95,-259.82 851.87,-281.48 526.49,-281.48 296.42,-259.82 296.42,-229.19 526.49,-207.53 851.87,-207.53 1081.95,-229.19"/>
<text text-anchor="middle" x="689.18" y="-250.1" font-family="Times,serif" font-size="18.00">selector:</text>
<text text-anchor="middle" x="689.18" y="-230.1" font-family="Times,serif" font-size="18.00"> change_tool(left_hand, outwardgripper, clampgripper)</text>
</g>
<!-- sequence:
 insert(shaft1, gearbase_hole1, clampgripper, left_hand)&#45;&gt;selector:
 change_tool(left_hand, outwardgripper, clampgripper) -->
<g id="edge3" class="edge">
<title>sequence:
 insert(shaft1, gearbase_hole1, clampgripper, left_hand)&#45;&gt;selector:
 change_tool(left_hand, outwardgripper, clampgripper)</title>
<path fill="none" stroke="black" d="M1244.49,-327.14C1146.92,-312.8 1019.87,-294.12 911.93,-278.25"/>
<polygon fill="black" stroke="black" points="912.28,-274.76 901.87,-276.77 911.26,-281.69 912.28,-274.76"/>
</g>
<!-- selector:
 pick_up(left_hand, clampgripper, shaft1) -->
<g id="node10" class="node">
<title>selector:
 pick_up(left_hand, clampgripper, shaft1)</title>
<polygon fill="#8deeee" stroke="black" points="1699.14,-229.19 1699.14,-259.82 1524.6,-281.48 1277.77,-281.48 1103.23,-259.82 1103.23,-229.19 1277.77,-207.53 1524.6,-207.53 1699.14,-229.19"/>
<text text-anchor="middle" x="1401.18" y="-250.1" font-family="Times,serif" font-size="18.00">selector:</text>
<text text-anchor="middle" x="1401.18" y="-230.1" font-family="Times,serif" font-size="18.00"> pick_up(left_hand, clampgripper, shaft1)</text>
</g>
<!-- sequence:
 insert(shaft1, gearbase_hole1, clampgripper, left_hand)&#45;&gt;selector:
 pick_up(left_hand, clampgripper, shaft1) -->
<g id="edge9" class="edge">
<title>sequence:
 insert(shaft1, gearbase_hole1, clampgripper, left_hand)&#45;&gt;selector:
 pick_up(left_hand, clampgripper, shaft1)</title>
<path fill="none" stroke="black" d="M1401.18,-326.95C1401.18,-316.5 1401.18,-303.79 1401.18,-291.54"/>
<polygon fill="black" stroke="black" points="1404.68,-291.42 1401.18,-281.42 1397.68,-291.42 1404.68,-291.42"/>
</g>
<!-- action:
 insert(left_hand, clampgripper, shaft1, gearbase_hole1) -->
<g id="node16" class="node">
<title>action:
 insert(left_hand, clampgripper, shaft1, gearbase_hole1)</title>
<ellipse fill="lightgreen" stroke="black" cx="2087.18" cy="-244.5" rx="370.55" ry="33.88"/>
<text text-anchor="middle" x="2087.18" y="-250.1" font-family="Times,serif" font-size="18.00">action:</text>
<text text-anchor="middle" x="2087.18" y="-230.1" font-family="Times,serif" font-size="18.00"> insert(left_hand, clampgripper, shaft1, gearbase_hole1)</text>
</g>
<!-- sequence:
 insert(shaft1, gearbase_hole1, clampgripper, left_hand)&#45;&gt;action:
 insert(left_hand, clampgripper, shaft1, gearbase_hole1) -->
<g id="edge15" class="edge">
<title>sequence:
 insert(shaft1, gearbase_hole1, clampgripper, left_hand)&#45;&gt;action:
 insert(left_hand, clampgripper, shaft1, gearbase_hole1)</title>
<path fill="none" stroke="black" d="M1552.15,-327.14C1651.81,-311.94 1783.37,-291.86 1891.09,-275.42"/>
<polygon fill="black" stroke="black" points="1891.75,-278.86 1901.11,-273.9 1890.69,-271.94 1891.75,-278.86"/>
</g>
<!-- target:
 hold(left_hand, clampgripper) -->
<g id="node5" class="node">
<title>target:
 hold(left_hand, clampgripper)</title>
<ellipse fill="#ffec8b" stroke="black" cx="207.18" cy="-137.82" rx="207.36" ry="33.88"/>
<text text-anchor="middle" x="207.18" y="-143.42" font-family="Times,serif" font-size="18.00">target:</text>
<text text-anchor="middle" x="207.18" y="-123.42" font-family="Times,serif" font-size="18.00"> hold(left_hand, clampgripper)</text>
</g>
<!-- selector:
 change_tool(left_hand, outwardgripper, clampgripper)&#45;&gt;target:
 hold(left_hand, clampgripper) -->
<g id="edge4" class="edge">
<title>selector:
 change_tool(left_hand, outwardgripper, clampgripper)&#45;&gt;target:
 hold(left_hand, clampgripper)</title>
<path fill="none" stroke="black" d="M524.32,-207.7C463.88,-194.57 396.33,-179.9 339.16,-167.48"/>
<polygon fill="black" stroke="black" points="339.85,-164.06 329.34,-165.35 338.37,-170.9 339.85,-164.06"/>
</g>
<!-- sequence:
 change_tool(left_hand, outwardgripper, clampgripper) -->
<g id="node6" class="node">
<title>sequence:
 change_tool(left_hand, outwardgripper, clampgripper)</title>
<polygon fill="#ff7f24" stroke="black" points="945.68,-161.82 432.68,-161.82 432.68,-113.82 945.68,-113.82 945.68,-161.82"/>
<text text-anchor="middle" x="689.18" y="-143.42" font-family="Times,serif" font-size="18.00">sequence:</text>
<text text-anchor="middle" x="689.18" y="-123.42" font-family="Times,serif" font-size="18.00"> change_tool(left_hand, outwardgripper, clampgripper)</text>
</g>
<!-- selector:
 change_tool(left_hand, outwardgripper, clampgripper)&#45;&gt;sequence:
 change_tool(left_hand, outwardgripper, clampgripper) -->
<g id="edge5" class="edge">
<title>selector:
 change_tool(left_hand, outwardgripper, clampgripper)&#45;&gt;sequence:
 change_tool(left_hand, outwardgripper, clampgripper)</title>
<path fill="none" stroke="black" d="M689.18,-207.48C689.18,-196.09 689.18,-183.57 689.18,-172.36"/>
<polygon fill="black" stroke="black" points="692.68,-172.11 689.18,-162.11 685.68,-172.11 692.68,-172.11"/>
</g>
<!-- precondition:
 hold(left_hand, outwardgripper) -->
<g id="node7" class="node">
<title>precondition:
 hold(left_hand, outwardgripper)</title>
<ellipse fill="#ffec8b" stroke="black" cx="265.18" cy="-33.94" rx="221.15" ry="33.88"/>
<text text-anchor="middle" x="265.18" y="-39.54" font-family="Times,serif" font-size="18.00">precondition:</text>
<text text-anchor="middle" x="265.18" y="-19.54" font-family="Times,serif" font-size="18.00"> hold(left_hand, outwardgripper)</text>
</g>
<!-- sequence:
 change_tool(left_hand, outwardgripper, clampgripper)&#45;&gt;precondition:
 hold(left_hand, outwardgripper) -->
<g id="edge6" class="edge">
<title>sequence:
 change_tool(left_hand, outwardgripper, clampgripper)&#45;&gt;precondition:
 hold(left_hand, outwardgripper)</title>
<path fill="none" stroke="black" d="M593.24,-113.77C533.52,-99.42 456.04,-80.8 391.38,-65.27"/>
<polygon fill="black" stroke="black" points="392.07,-61.83 381.53,-62.9 390.43,-68.64 392.07,-61.83"/>
</g>
<!-- precondition:
 is_empty(outwardgripper) -->
<g id="node8" class="node">
<title>precondition:
 is_empty(outwardgripper)</title>
<ellipse fill="#ffec8b" stroke="black" cx="687.18" cy="-33.94" rx="183.28" ry="33.88"/>
<text text-anchor="middle" x="687.18" y="-39.54" font-family="Times,serif" font-size="18.00">precondition:</text>
<text text-anchor="middle" x="687.18" y="-19.54" font-family="Times,serif" font-size="18.00"> is_empty(outwardgripper)</text>
</g>
<!-- sequence:
 change_tool(left_hand, outwardgripper, clampgripper)&#45;&gt;precondition:
 is_empty(outwardgripper) -->
<g id="edge7" class="edge">
<title>sequence:
 change_tool(left_hand, outwardgripper, clampgripper)&#45;&gt;precondition:
 is_empty(outwardgripper)</title>
<path fill="none" stroke="black" d="M688.73,-113.7C688.52,-103.16 688.27,-90.31 688.03,-78.08"/>
<polygon fill="black" stroke="black" points="691.53,-77.94 687.83,-68.01 684.53,-78.08 691.53,-77.94"/>
</g>
<!-- action:
 change_tool(left_hand, outwardgripper, clampgripper) -->
<g id="node9" class="node">
<title>action:
 change_tool(left_hand, outwardgripper, clampgripper)</title>
<ellipse fill="lightgreen" stroke="black" cx="1251.18" cy="-33.94" rx="362.99" ry="33.88"/>
<text text-anchor="middle" x="1251.18" y="-39.54" font-family="Times,serif" font-size="18.00">action:</text>
<text text-anchor="middle" x="1251.18" y="-19.54" font-family="Times,serif" font-size="18.00"> change_tool(left_hand, outwardgripper, clampgripper)</text>
</g>
<!-- sequence:
 change_tool(left_hand, outwardgripper, clampgripper)&#45;&gt;action:
 change_tool(left_hand, outwardgripper, clampgripper) -->
<g id="edge8" class="edge">
<title>sequence:
 change_tool(left_hand, outwardgripper, clampgripper)&#45;&gt;action:
 change_tool(left_hand, outwardgripper, clampgripper)</title>
<path fill="none" stroke="black" d="M816.36,-113.77C893.99,-99.69 994.27,-81.52 1078.95,-66.16"/>
<polygon fill="black" stroke="black" points="1079.72,-69.58 1088.94,-64.35 1078.47,-62.69 1079.72,-69.58"/>
</g>
<!-- target:
 hold(clampgripper, shaft1) -->
<g id="node11" class="node">
<title>target:
 hold(clampgripper, shaft1)</title>
<ellipse fill="#ffec8b" stroke="black" cx="1401.18" cy="-137.82" rx="185.94" ry="33.88"/>
<text text-anchor="middle" x="1401.18" y="-143.42" font-family="Times,serif" font-size="18.00">target:</text>
<text text-anchor="middle" x="1401.18" y="-123.42" font-family="Times,serif" font-size="18.00"> hold(clampgripper, shaft1)</text>
</g>
<!-- selector:
 pick_up(left_hand, clampgripper, shaft1)&#45;&gt;target:
 hold(clampgripper, shaft1) -->
<g id="edge10" class="edge">
<title>selector:
 pick_up(left_hand, clampgripper, shaft1)&#45;&gt;target:
 hold(clampgripper, shaft1)</title>
<path fill="none" stroke="black" d="M1401.18,-207.48C1401.18,-199.32 1401.18,-190.58 1401.18,-182.15"/>
<polygon fill="black" stroke="black" points="1404.68,-182.1 1401.18,-172.1 1397.68,-182.1 1404.68,-182.1"/>
</g>
<!-- sequence:
 pick_up(left_hand, clampgripper, shaft1) -->
<g id="node12" class="node">
<title>sequence:
 pick_up(left_hand, clampgripper, shaft1)</title>
<polygon fill="#ff7f24" stroke="black" points="2192.68,-161.82 1803.68,-161.82 1803.68,-113.82 2192.68,-113.82 2192.68,-161.82"/>
<text text-anchor="middle" x="1998.18" y="-143.42" font-family="Times,serif" font-size="18.00">sequence:</text>
<text text-anchor="middle" x="1998.18" y="-123.42" font-family="Times,serif" font-size="18.00"> pick_up(left_hand, clampgripper, shaft1)</text>
</g>
<!-- selector:
 pick_up(left_hand, clampgripper, shaft1)&#45;&gt;sequence:
 pick_up(left_hand, clampgripper, shaft1) -->
<g id="edge11" class="edge">
<title>selector:
 pick_up(left_hand, clampgripper, shaft1)&#45;&gt;sequence:
 pick_up(left_hand, clampgripper, shaft1)</title>
<path fill="none" stroke="black" d="M1572.66,-213.44C1662.63,-197.66 1771.53,-178.56 1856.64,-163.64"/>
<polygon fill="black" stroke="black" points="1857.39,-167.06 1866.63,-161.89 1856.18,-160.17 1857.39,-167.06"/>
</g>
<!-- precondition:
 is_empty(clampgripper) -->
<g id="node13" class="node">
<title>precondition:
 is_empty(clampgripper)</title>
<ellipse fill="#ffec8b" stroke="black" cx="1801.18" cy="-33.94" rx="169" ry="33.88"/>
<text text-anchor="middle" x="1801.18" y="-39.54" font-family="Times,serif" font-size="18.00">precondition:</text>
<text text-anchor="middle" x="1801.18" y="-19.54" font-family="Times,serif" font-size="18.00"> is_empty(clampgripper)</text>
</g>
<!-- sequence:
 pick_up(left_hand, clampgripper, shaft1)&#45;&gt;precondition:
 is_empty(clampgripper) -->
<g id="edge12" class="edge">
<title>sequence:
 pick_up(left_hand, clampgripper, shaft1)&#45;&gt;precondition:
 is_empty(clampgripper)</title>
<path fill="none" stroke="black" d="M1953.48,-113.7C1928.9,-100.99 1897.87,-84.95 1870.25,-70.66"/>
<polygon fill="black" stroke="black" points="1871.51,-67.37 1861.02,-65.89 1868.3,-73.59 1871.51,-67.37"/>
</g>
<!-- precondition:
 hold(left_hand, clampgripper) -->
<g id="node14" class="node">
<title>precondition:
 hold(left_hand, clampgripper)</title>
<ellipse fill="#ffec8b" stroke="black" cx="2195.18" cy="-33.94" rx="207.36" ry="33.88"/>
<text text-anchor="middle" x="2195.18" y="-39.54" font-family="Times,serif" font-size="18.00">precondition:</text>
<text text-anchor="middle" x="2195.18" y="-19.54" font-family="Times,serif" font-size="18.00"> hold(left_hand, clampgripper)</text>
</g>
<!-- sequence:
 pick_up(left_hand, clampgripper, shaft1)&#45;&gt;precondition:
 hold(left_hand, clampgripper) -->
<g id="edge13" class="edge">
<title>sequence:
 pick_up(left_hand, clampgripper, shaft1)&#45;&gt;precondition:
 hold(left_hand, clampgripper)</title>
<path fill="none" stroke="black" d="M2042.88,-113.7C2067.16,-101.15 2097.72,-85.35 2125.09,-71.19"/>
<polygon fill="black" stroke="black" points="2126.95,-74.17 2134.23,-66.46 2123.74,-67.95 2126.95,-74.17"/>
</g>
<!-- action:
 pick_up(left_hand, clampgripper, shaft1) -->
<g id="node15" class="node">
<title>action:
 pick_up(left_hand, clampgripper, shaft1)</title>
<ellipse fill="lightgreen" stroke="black" cx="2695.18" cy="-33.94" rx="275.13" ry="33.88"/>
<text text-anchor="middle" x="2695.18" y="-39.54" font-family="Times,serif" font-size="18.00">action:</text>
<text text-anchor="middle" x="2695.18" y="-19.54" font-family="Times,serif" font-size="18.00"> pick_up(left_hand, clampgripper, shaft1)</text>
</g>
<!-- sequence:
 pick_up(left_hand, clampgripper, shaft1)&#45;&gt;action:
 pick_up(left_hand, clampgripper, shaft1) -->
<g id="edge14" class="edge">
<title>sequence:
 pick_up(left_hand, clampgripper, shaft1)&#45;&gt;action:
 pick_up(left_hand, clampgripper, shaft1)</title>
<path fill="none" stroke="black" d="M2155.91,-113.77C2261.55,-98.33 2400.99,-77.94 2511.62,-61.77"/>
<polygon fill="black" stroke="black" points="2512.16,-65.23 2521.55,-60.32 2511.15,-58.3 2512.16,-65.23"/>
</g>
</g>
</svg>
