<?xml version="1.0" encoding="UTF-8" standalone="no"?>
<!DOCTYPE svg PUBLIC "-//W3C//DTD SVG 1.1//EN"
 "http://www.w3.org/Graphics/SVG/1.1/DTD/svg11.dtd">
<!-- Generated by graphviz version 2.43.0 (0)
 -->
<!-- Title: pastafarianism Pages: 1 -->
<svg width="1456pt" height="476pt"
 viewBox="0.00 0.00 1455.53 476.00" xmlns="http://www.w3.org/2000/svg" xmlns:xlink="http://www.w3.org/1999/xlink">
<g id="graph0" class="graph" transform="scale(1 1) rotate(0) translate(4 472)">
<title>pastafarianism</title>
<polygon fill="white" stroke="transparent" points="-4,4 -4,-472 1451.53,-472 1451.53,4 -4,4"/>
<!-- Sequence -->
<g id="node1" class="node">
<title>Sequence</title>
<polygon fill="orange" stroke="black" points="696.08,-468 634.08,-468 634.08,-432 696.08,-432 696.08,-468"/>
<text text-anchor="middle" x="665.08" y="-447.8" font-family="Times,serif" font-size="9.00">Sequence</text>
</g>
<!-- Fallback -->
<g id="node2" class="node">
<title>Fallback</title>
<polygon fill="cyan" stroke="black" points="406.07,-370.54 406.07,-385.46 385.57,-396 356.59,-396 336.09,-385.46 336.09,-370.54 356.59,-360 385.57,-360 406.07,-370.54"/>
<text text-anchor="middle" x="371.08" y="-375.8" font-family="Times,serif" font-size="9.00">Fallback</text>
</g>
<!-- Sequence&#45;&gt;Fallback -->
<g id="edge1" class="edge">
<title>Sequence&#45;&gt;Fallback</title>
<path fill="none" stroke="black" d="M633.9,-441.58C580.95,-428.97 473.41,-403.36 413.61,-389.13"/>
<polygon fill="black" stroke="black" points="414.27,-385.69 403.73,-386.77 412.65,-392.5 414.27,-385.69"/>
</g>
<!-- Fallback &#160;&#160; -->
<g id="node13" class="node">
<title>Fallback &#160;&#160;</title>
<polygon fill="cyan" stroke="black" points="700.07,-370.54 700.07,-385.46 679.57,-396 650.59,-396 630.09,-385.46 630.09,-370.54 650.59,-360 679.57,-360 700.07,-370.54"/>
<text text-anchor="middle" x="665.08" y="-375.8" font-family="Times,serif" font-size="9.00">Fallback</text>
</g>
<!-- Sequence&#45;&gt;Fallback &#160;&#160; -->
<g id="edge12" class="edge">
<title>Sequence&#45;&gt;Fallback &#160;&#160;</title>
<path fill="none" stroke="black" d="M665.08,-431.7C665.08,-423.98 665.08,-414.71 665.08,-406.11"/>
<polygon fill="black" stroke="black" points="668.58,-406.1 665.08,-396.1 661.58,-406.1 668.58,-406.1"/>
</g>
<!-- Fallback &#160;&#160;&#160;&#160;&#160; -->
<g id="node24" class="node">
<title>Fallback &#160;&#160;&#160;&#160;&#160;</title>
<polygon fill="cyan" stroke="black" points="995.07,-370.54 995.07,-385.46 974.57,-396 945.59,-396 925.09,-385.46 925.09,-370.54 945.59,-360 974.57,-360 995.07,-370.54"/>
<text text-anchor="middle" x="960.08" y="-375.8" font-family="Times,serif" font-size="9.00">Fallback</text>
</g>
<!-- Sequence&#45;&gt;Fallback &#160;&#160;&#160;&#160;&#160; -->
<g id="edge23" class="edge">
<title>Sequence&#45;&gt;Fallback &#160;&#160;&#160;&#160;&#160;</title>
<path fill="none" stroke="black" d="M696.09,-441.64C749.09,-429.06 857.18,-403.42 917.31,-389.15"/>
<polygon fill="black" stroke="black" points="918.32,-392.51 927.24,-386.79 916.71,-385.69 918.32,-392.51"/>
</g>
<!-- object_at YellowBox [&#45;0.133, 0.0, 0.175] 0.02 KittingBox -->
<g id="node3" class="node">
<title>object_at YellowBox [&#45;0.133, 0.0, 0.175] 0.02 KittingBox</title>
<ellipse fill="lightgray" stroke="black" cx="161.08" cy="-306" rx="161.16" ry="18"/>
<text text-anchor="middle" x="161.08" y="-303.8" font-family="Times,serif" font-size="9.00">object_at YellowBox [&#45;0.133, 0.0, 0.175] 0.02 KittingBox</text>
</g>
<!-- Fallback&#45;&gt;object_at YellowBox [&#45;0.133, 0.0, 0.175] 0.02 KittingBox -->
<g id="edge2" class="edge">
<title>Fallback&#45;&gt;object_at YellowBox [&#45;0.133, 0.0, 0.175] 0.02 KittingBox</title>
<path fill="none" stroke="black" d="M341.88,-367.27C310.33,-356.75 259.24,-339.72 219.4,-326.44"/>
<polygon fill="black" stroke="black" points="220.39,-323.08 209.8,-323.24 218.18,-329.72 220.39,-323.08"/>
</g>
<!-- Sequence  -->
<g id="node4" class="node">
<title>Sequence </title>
<polygon fill="orange" stroke="black" points="402.08,-324 340.08,-324 340.08,-288 402.08,-288 402.08,-324"/>
<text text-anchor="middle" x="371.08" y="-303.8" font-family="Times,serif" font-size="9.00">Sequence</text>
</g>
<!-- Fallback&#45;&gt;Sequence  -->
<g id="edge3" class="edge">
<title>Fallback&#45;&gt;Sequence </title>
<path fill="none" stroke="black" d="M371.08,-359.7C371.08,-351.98 371.08,-342.71 371.08,-334.11"/>
<polygon fill="black" stroke="black" points="374.58,-334.1 371.08,-324.1 367.58,-334.1 374.58,-334.1"/>
</g>
<!-- Fallback  -->
<g id="node5" class="node">
<title>Fallback </title>
<polygon fill="cyan" stroke="black" points="242.07,-226.54 242.07,-241.46 221.57,-252 192.59,-252 172.09,-241.46 172.09,-226.54 192.59,-216 221.57,-216 242.07,-226.54"/>
<text text-anchor="middle" x="207.08" y="-231.8" font-family="Times,serif" font-size="9.00">Fallback</text>
</g>
<!-- Sequence &#45;&gt;Fallback  -->
<g id="edge4" class="edge">
<title>Sequence &#45;&gt;Fallback </title>
<path fill="none" stroke="black" d="M339.85,-291.67C312.04,-279.8 271.4,-262.45 242.42,-250.08"/>
<polygon fill="black" stroke="black" points="243.64,-246.8 233.07,-246.09 240.89,-253.24 243.64,-246.8"/>
</g>
<!-- place0 YellowBox [&#45;0.133, 0.0, 0.175] 0.02 KittingBox -->
<g id="node12" class="node">
<title>place0 YellowBox [&#45;0.133, 0.0, 0.175] 0.02 KittingBox</title>
<ellipse fill="lightgray" stroke="black" cx="415.08" cy="-234" rx="154.96" ry="18"/>
<text text-anchor="middle" x="415.08" y="-231.8" font-family="Times,serif" font-size="9.00">place0 YellowBox [&#45;0.133, 0.0, 0.175] 0.02 KittingBox</text>
</g>
<!-- Sequence &#45;&gt;place0 YellowBox [&#45;0.133, 0.0, 0.175] 0.02 KittingBox -->
<g id="edge11" class="edge">
<title>Sequence &#45;&gt;place0 YellowBox [&#45;0.133, 0.0, 0.175] 0.02 KittingBox</title>
<path fill="none" stroke="black" d="M381.96,-287.7C387.07,-279.56 393.28,-269.69 398.93,-260.7"/>
<polygon fill="black" stroke="black" points="401.97,-262.43 404.33,-252.1 396.04,-258.71 401.97,-262.43"/>
</g>
<!-- in_gripper YellowBox -->
<g id="node6" class="node">
<title>in_gripper YellowBox</title>
<ellipse fill="lightgray" stroke="black" cx="179.08" cy="-162" rx="66.29" ry="18"/>
<text text-anchor="middle" x="179.08" y="-159.8" font-family="Times,serif" font-size="9.00">in_gripper YellowBox</text>
</g>
<!-- Fallback &#45;&gt;in_gripper YellowBox -->
<g id="edge5" class="edge">
<title>Fallback &#45;&gt;in_gripper YellowBox</title>
<path fill="none" stroke="black" d="M200.16,-215.7C197.01,-207.81 193.2,-198.3 189.7,-189.55"/>
<polygon fill="black" stroke="black" points="192.89,-188.09 185.92,-180.1 186.39,-190.69 192.89,-188.09"/>
</g>
<!-- Sequence &#160; -->
<g id="node7" class="node">
<title>Sequence &#160;</title>
<polygon fill="orange" stroke="black" points="325.08,-180 263.08,-180 263.08,-144 325.08,-144 325.08,-180"/>
<text text-anchor="middle" x="294.08" y="-159.8" font-family="Times,serif" font-size="9.00">Sequence</text>
</g>
<!-- Fallback &#45;&gt;Sequence &#160; -->
<g id="edge6" class="edge">
<title>Fallback &#45;&gt;Sequence &#160;</title>
<path fill="none" stroke="black" d="M225.96,-217.81C237.27,-208.71 251.9,-196.94 264.7,-186.64"/>
<polygon fill="black" stroke="black" points="267.2,-189.12 272.79,-180.13 262.81,-183.67 267.2,-189.12"/>
</g>
<!-- Fallback &#160; -->
<g id="node8" class="node">
<title>Fallback &#160;</title>
<polygon fill="cyan" stroke="black" points="322.07,-82.54 322.07,-97.46 301.57,-108 272.59,-108 252.09,-97.46 252.09,-82.54 272.59,-72 301.57,-72 322.07,-82.54"/>
<text text-anchor="middle" x="287.08" y="-87.8" font-family="Times,serif" font-size="9.00">Fallback</text>
</g>
<!-- Sequence &#160;&#45;&gt;Fallback &#160; -->
<g id="edge7" class="edge">
<title>Sequence &#160;&#45;&gt;Fallback &#160;</title>
<path fill="none" stroke="black" d="M292.35,-143.7C291.58,-135.98 290.65,-126.71 289.79,-118.11"/>
<polygon fill="black" stroke="black" points="293.27,-117.71 288.79,-108.1 286.3,-118.4 293.27,-117.71"/>
</g>
<!-- pick0 YellowBox -->
<g id="node11" class="node">
<title>pick0 YellowBox</title>
<ellipse fill="lightgray" stroke="black" cx="393.08" cy="-90" rx="53.23" ry="18"/>
<text text-anchor="middle" x="393.08" y="-87.8" font-family="Times,serif" font-size="9.00">pick0 YellowBox</text>
</g>
<!-- Sequence &#160;&#45;&gt;pick0 YellowBox -->
<g id="edge10" class="edge">
<title>Sequence &#160;&#45;&gt;pick0 YellowBox</title>
<path fill="none" stroke="black" d="M318.3,-143.88C331.67,-134.42 348.4,-122.59 362.64,-112.52"/>
<polygon fill="black" stroke="black" points="364.99,-115.15 371.14,-106.51 360.95,-109.43 364.99,-115.15"/>
</g>
<!-- gripper_state open -->
<g id="node9" class="node">
<title>gripper_state open</title>
<ellipse fill="lightgray" stroke="black" cx="205.08" cy="-18" rx="60.09" ry="18"/>
<text text-anchor="middle" x="205.08" y="-15.8" font-family="Times,serif" font-size="9.00">gripper_state open</text>
</g>
<!-- Fallback &#160;&#45;&gt;gripper_state open -->
<g id="edge8" class="edge">
<title>Fallback &#160;&#45;&gt;gripper_state open</title>
<path fill="none" stroke="black" d="M268.88,-73.46C257.97,-64.15 243.89,-52.13 231.74,-41.76"/>
<polygon fill="black" stroke="black" points="233.96,-39.05 224.08,-35.22 229.42,-44.38 233.96,-39.05"/>
</g>
<!-- open_gripper -->
<g id="node10" class="node">
<title>open_gripper</title>
<ellipse fill="lightgray" stroke="black" cx="329.08" cy="-18" rx="45.72" ry="18"/>
<text text-anchor="middle" x="329.08" y="-15.8" font-family="Times,serif" font-size="9.00">open_gripper</text>
</g>
<!-- Fallback &#160;&#45;&gt;open_gripper -->
<g id="edge9" class="edge">
<title>Fallback &#160;&#45;&gt;open_gripper</title>
<path fill="none" stroke="black" d="M297.46,-71.7C302.42,-63.44 308.44,-53.39 313.9,-44.3"/>
<polygon fill="black" stroke="black" points="316.96,-46 319.11,-35.62 310.96,-42.4 316.96,-46"/>
</g>
<!-- object_at GreenBox [0.0, 0.0, 0.22] 0.02 YellowBox -->
<g id="node14" class="node">
<title>object_at GreenBox [0.0, 0.0, 0.22] 0.02 YellowBox</title>
<ellipse fill="lightgray" stroke="black" cx="567.08" cy="-306" rx="146.79" ry="18"/>
<text text-anchor="middle" x="567.08" y="-303.8" font-family="Times,serif" font-size="9.00">object_at GreenBox [0.0, 0.0, 0.22] 0.02 YellowBox</text>
</g>
<!-- Fallback &#160;&#160;&#45;&gt;object_at GreenBox [0.0, 0.0, 0.22] 0.02 YellowBox -->
<g id="edge13" class="edge">
<title>Fallback &#160;&#160;&#45;&gt;object_at GreenBox [0.0, 0.0, 0.22] 0.02 YellowBox</title>
<path fill="none" stroke="black" d="M644.78,-362.5C631.65,-353.12 614.29,-340.72 599.31,-330.02"/>
<polygon fill="black" stroke="black" points="600.98,-326.91 590.81,-323.95 596.91,-332.61 600.98,-326.91"/>
</g>
<!-- Sequence &#160;&#160; -->
<g id="node15" class="node">
<title>Sequence &#160;&#160;</title>
<polygon fill="orange" stroke="black" points="794.08,-324 732.08,-324 732.08,-288 794.08,-288 794.08,-324"/>
<text text-anchor="middle" x="763.08" y="-303.8" font-family="Times,serif" font-size="9.00">Sequence</text>
</g>
<!-- Fallback &#160;&#160;&#45;&gt;Sequence &#160;&#160; -->
<g id="edge14" class="edge">
<title>Fallback &#160;&#160;&#45;&gt;Sequence &#160;&#160;</title>
<path fill="none" stroke="black" d="M685.39,-362.5C698.42,-353.19 715.62,-340.9 730.53,-330.25"/>
<polygon fill="black" stroke="black" points="732.89,-332.86 739,-324.2 728.82,-327.17 732.89,-332.86"/>
</g>
<!-- Fallback &#160;&#160;&#160; -->
<g id="node16" class="node">
<title>Fallback &#160;&#160;&#160;</title>
<polygon fill="cyan" stroke="black" points="672.07,-226.54 672.07,-241.46 651.57,-252 622.59,-252 602.09,-241.46 602.09,-226.54 622.59,-216 651.57,-216 672.07,-226.54"/>
<text text-anchor="middle" x="637.08" y="-231.8" font-family="Times,serif" font-size="9.00">Fallback</text>
</g>
<!-- Sequence &#160;&#160;&#45;&gt;Fallback &#160;&#160;&#160; -->
<g id="edge15" class="edge">
<title>Sequence &#160;&#160;&#45;&gt;Fallback &#160;&#160;&#160;</title>
<path fill="none" stroke="black" d="M732.26,-287.88C713.01,-277.18 688.29,-263.45 668.87,-252.66"/>
<polygon fill="black" stroke="black" points="670.52,-249.57 660.08,-247.78 667.12,-255.69 670.52,-249.57"/>
</g>
<!-- place0 GreenBox [0.0, 0.0, 0.22] 0.02 YellowBox -->
<g id="node23" class="node">
<title>place0 GreenBox [0.0, 0.0, 0.22] 0.02 YellowBox</title>
<ellipse fill="lightgray" stroke="black" cx="830.08" cy="-234" rx="140.09" ry="18"/>
<text text-anchor="middle" x="830.08" y="-231.8" font-family="Times,serif" font-size="9.00">place0 GreenBox [0.0, 0.0, 0.22] 0.02 YellowBox</text>
</g>
<!-- Sequence &#160;&#160;&#45;&gt;place0 GreenBox [0.0, 0.0, 0.22] 0.02 YellowBox -->
<g id="edge22" class="edge">
<title>Sequence &#160;&#160;&#45;&gt;place0 GreenBox [0.0, 0.0, 0.22] 0.02 YellowBox</title>
<path fill="none" stroke="black" d="M779.64,-287.7C787.76,-279.22 797.67,-268.86 806.55,-259.58"/>
<polygon fill="black" stroke="black" points="809.32,-261.75 813.71,-252.1 804.27,-256.91 809.32,-261.75"/>
</g>
<!-- in_gripper GreenBox -->
<g id="node17" class="node">
<title>in_gripper GreenBox</title>
<ellipse fill="lightgray" stroke="black" cx="526.08" cy="-162" rx="65.64" ry="18"/>
<text text-anchor="middle" x="526.08" y="-159.8" font-family="Times,serif" font-size="9.00">in_gripper GreenBox</text>
</g>
<!-- Fallback &#160;&#160;&#160;&#45;&gt;in_gripper GreenBox -->
<g id="edge16" class="edge">
<title>Fallback &#160;&#160;&#160;&#45;&gt;in_gripper GreenBox</title>
<path fill="none" stroke="black" d="M615.68,-219.5C599.87,-209.53 578.04,-195.76 559.88,-184.31"/>
<polygon fill="black" stroke="black" points="561.63,-181.28 551.3,-178.91 557.89,-187.2 561.63,-181.28"/>
</g>
<!-- Sequence &#160;&#160;&#160; -->
<g id="node18" class="node">
<title>Sequence &#160;&#160;&#160;</title>
<polygon fill="orange" stroke="black" points="672.08,-180 610.08,-180 610.08,-144 672.08,-144 672.08,-180"/>
<text text-anchor="middle" x="641.08" y="-159.8" font-family="Times,serif" font-size="9.00">Sequence</text>
</g>
<!-- Fallback &#160;&#160;&#160;&#45;&gt;Sequence &#160;&#160;&#160; -->
<g id="edge17" class="edge">
<title>Fallback &#160;&#160;&#160;&#45;&gt;Sequence &#160;&#160;&#160;</title>
<path fill="none" stroke="black" d="M638.07,-215.7C638.51,-207.98 639.04,-198.71 639.53,-190.11"/>
<polygon fill="black" stroke="black" points="643.03,-190.29 640.1,-180.1 636.04,-189.89 643.03,-190.29"/>
</g>
<!-- Fallback &#160;&#160;&#160;&#160; -->
<g id="node19" class="node">
<title>Fallback &#160;&#160;&#160;&#160;</title>
<polygon fill="cyan" stroke="black" points="574.07,-82.54 574.07,-97.46 553.57,-108 524.59,-108 504.09,-97.46 504.09,-82.54 524.59,-72 553.57,-72 574.07,-82.54"/>
<text text-anchor="middle" x="539.08" y="-87.8" font-family="Times,serif" font-size="9.00">Fallback</text>
</g>
<!-- Sequence &#160;&#160;&#160;&#45;&gt;Fallback &#160;&#160;&#160;&#160; -->
<g id="edge18" class="edge">
<title>Sequence &#160;&#160;&#160;&#45;&gt;Fallback &#160;&#160;&#160;&#160;</title>
<path fill="none" stroke="black" d="M616.13,-143.88C601.63,-133.93 583.3,-121.35 568.16,-110.95"/>
<polygon fill="black" stroke="black" points="569.89,-107.9 559.66,-105.12 565.92,-113.67 569.89,-107.9"/>
</g>
<!-- pick0 GreenBox -->
<g id="node22" class="node">
<title>pick0 GreenBox</title>
<ellipse fill="lightgray" stroke="black" cx="645.08" cy="-90" rx="52.58" ry="18"/>
<text text-anchor="middle" x="645.08" y="-87.8" font-family="Times,serif" font-size="9.00">pick0 GreenBox</text>
</g>
<!-- Sequence &#160;&#160;&#160;&#45;&gt;pick0 GreenBox -->
<g id="edge21" class="edge">
<title>Sequence &#160;&#160;&#160;&#45;&gt;pick0 GreenBox</title>
<path fill="none" stroke="black" d="M642.07,-143.7C642.51,-135.98 643.04,-126.71 643.53,-118.11"/>
<polygon fill="black" stroke="black" points="647.03,-118.29 644.1,-108.1 640.04,-117.89 647.03,-118.29"/>
</g>
<!-- gripper_state open  -->
<g id="node20" class="node">
<title>gripper_state open </title>
<ellipse fill="lightgray" stroke="black" cx="497.08" cy="-18" rx="60.09" ry="18"/>
<text text-anchor="middle" x="497.08" y="-15.8" font-family="Times,serif" font-size="9.00">gripper_state open</text>
</g>
<!-- Fallback &#160;&#160;&#160;&#160;&#45;&gt;gripper_state open  -->
<g id="edge19" class="edge">
<title>Fallback &#160;&#160;&#160;&#160;&#45;&gt;gripper_state open </title>
<path fill="none" stroke="black" d="M528.7,-71.7C523.82,-63.56 517.89,-53.69 512.5,-44.7"/>
<polygon fill="black" stroke="black" points="515.49,-42.88 507.34,-36.1 509.49,-46.48 515.49,-42.88"/>
</g>
<!-- open_gripper  -->
<g id="node21" class="node">
<title>open_gripper </title>
<ellipse fill="lightgray" stroke="black" cx="621.08" cy="-18" rx="45.72" ry="18"/>
<text text-anchor="middle" x="621.08" y="-15.8" font-family="Times,serif" font-size="9.00">open_gripper</text>
</g>
<!-- Fallback &#160;&#160;&#160;&#160;&#45;&gt;open_gripper  -->
<g id="edge20" class="edge">
<title>Fallback &#160;&#160;&#160;&#160;&#45;&gt;open_gripper </title>
<path fill="none" stroke="black" d="M557.28,-73.46C568.35,-64.02 582.67,-51.79 594.94,-41.32"/>
<polygon fill="black" stroke="black" points="597.32,-43.89 602.65,-34.73 592.77,-38.56 597.32,-43.89"/>
</g>
<!-- object_at BlueBox [0.0, 0.0, 0.175] 0.02 KittingBox -->
<g id="node25" class="node">
<title>object_at BlueBox [0.0, 0.0, 0.175] 0.02 KittingBox</title>
<ellipse fill="lightgray" stroke="black" cx="960.08" cy="-306" rx="147.6" ry="18"/>
<text text-anchor="middle" x="960.08" y="-303.8" font-family="Times,serif" font-size="9.00">object_at BlueBox [0.0, 0.0, 0.175] 0.02 KittingBox</text>
</g>
<!-- Fallback &#160;&#160;&#160;&#160;&#160;&#45;&gt;object_at BlueBox [0.0, 0.0, 0.175] 0.02 KittingBox -->
<g id="edge24" class="edge">
<title>Fallback &#160;&#160;&#160;&#160;&#160;&#45;&gt;object_at BlueBox [0.0, 0.0, 0.175] 0.02 KittingBox</title>
<path fill="none" stroke="black" d="M960.08,-359.7C960.08,-351.98 960.08,-342.71 960.08,-334.11"/>
<polygon fill="black" stroke="black" points="963.58,-334.1 960.08,-324.1 956.58,-334.1 963.58,-334.1"/>
</g>
<!-- Sequence &#160;&#160;&#160;&#160; -->
<g id="node26" class="node">
<title>Sequence &#160;&#160;&#160;&#160;</title>
<polygon fill="orange" stroke="black" points="1188.08,-324 1126.08,-324 1126.08,-288 1188.08,-288 1188.08,-324"/>
<text text-anchor="middle" x="1157.08" y="-303.8" font-family="Times,serif" font-size="9.00">Sequence</text>
</g>
<!-- Fallback &#160;&#160;&#160;&#160;&#160;&#45;&gt;Sequence &#160;&#160;&#160;&#160; -->
<g id="edge25" class="edge">
<title>Fallback &#160;&#160;&#160;&#160;&#160;&#45;&gt;Sequence &#160;&#160;&#160;&#160;</title>
<path fill="none" stroke="black" d="M989.83,-367.7C1019.67,-358.22 1067.07,-342.71 1116.21,-324.2"/>
<polygon fill="black" stroke="black" points="1117.62,-327.41 1125.73,-320.59 1115.14,-320.87 1117.62,-327.41"/>
</g>
<!-- Fallback &#160;&#160;&#160;&#160;&#160;&#160; -->
<g id="node27" class="node">
<title>Fallback &#160;&#160;&#160;&#160;&#160;&#160;</title>
<polygon fill="cyan" stroke="black" points="1147.07,-226.54 1147.07,-241.46 1126.57,-252 1097.59,-252 1077.09,-241.46 1077.09,-226.54 1097.59,-216 1126.57,-216 1147.07,-226.54"/>
<text text-anchor="middle" x="1112.08" y="-231.8" font-family="Times,serif" font-size="9.00">Fallback</text>
</g>
<!-- Sequence &#160;&#160;&#160;&#160;&#45;&gt;Fallback &#160;&#160;&#160;&#160;&#160;&#160; -->
<g id="edge26" class="edge">
<title>Sequence &#160;&#160;&#160;&#160;&#45;&gt;Fallback &#160;&#160;&#160;&#160;&#160;&#160;</title>
<path fill="none" stroke="black" d="M1145.96,-287.7C1140.73,-279.56 1134.38,-269.69 1128.6,-260.7"/>
<polygon fill="black" stroke="black" points="1131.43,-258.62 1123.08,-252.1 1125.54,-262.41 1131.43,-258.62"/>
</g>
<!-- place0 BlueBox [0.0, 0.0, 0.175] 0.02 KittingBox -->
<g id="node34" class="node">
<title>place0 BlueBox [0.0, 0.0, 0.175] 0.02 KittingBox</title>
<ellipse fill="lightgray" stroke="black" cx="1306.08" cy="-234" rx="141.4" ry="18"/>
<text text-anchor="middle" x="1306.08" y="-231.8" font-family="Times,serif" font-size="9.00">place0 BlueBox [0.0, 0.0, 0.175] 0.02 KittingBox</text>
</g>
<!-- Sequence &#160;&#160;&#160;&#160;&#45;&gt;place0 BlueBox [0.0, 0.0, 0.175] 0.02 KittingBox -->
<g id="edge33" class="edge">
<title>Sequence &#160;&#160;&#160;&#160;&#45;&gt;place0 BlueBox [0.0, 0.0, 0.175] 0.02 KittingBox</title>
<path fill="none" stroke="black" d="M1188.32,-290.33C1209.64,-280.31 1238.19,-266.9 1261.84,-255.78"/>
<polygon fill="black" stroke="black" points="1263.41,-258.91 1270.97,-251.49 1260.43,-252.58 1263.41,-258.91"/>
</g>
<!-- in_gripper BlueBox -->
<g id="node28" class="node">
<title>in_gripper BlueBox</title>
<ellipse fill="lightgray" stroke="black" cx="1056.08" cy="-162" rx="61.55" ry="18"/>
<text text-anchor="middle" x="1056.08" y="-159.8" font-family="Times,serif" font-size="9.00">in_gripper BlueBox</text>
</g>
<!-- Fallback &#160;&#160;&#160;&#160;&#160;&#160;&#45;&gt;in_gripper BlueBox -->
<g id="edge27" class="edge">
<title>Fallback &#160;&#160;&#160;&#160;&#160;&#160;&#45;&gt;in_gripper BlueBox</title>
<path fill="none" stroke="black" d="M1098.24,-215.7C1091.42,-207.18 1083.09,-196.76 1075.64,-187.45"/>
<polygon fill="black" stroke="black" points="1078.36,-185.24 1069.38,-179.62 1072.89,-189.62 1078.36,-185.24"/>
</g>
<!-- Sequence &#160;&#160;&#160;&#160;&#160; -->
<g id="node29" class="node">
<title>Sequence &#160;&#160;&#160;&#160;&#160;</title>
<polygon fill="orange" stroke="black" points="1198.08,-180 1136.08,-180 1136.08,-144 1198.08,-144 1198.08,-180"/>
<text text-anchor="middle" x="1167.08" y="-159.8" font-family="Times,serif" font-size="9.00">Sequence</text>
</g>
<!-- Fallback &#160;&#160;&#160;&#160;&#160;&#160;&#45;&gt;Sequence &#160;&#160;&#160;&#160;&#160; -->
<g id="edge28" class="edge">
<title>Fallback &#160;&#160;&#160;&#160;&#160;&#160;&#45;&gt;Sequence &#160;&#160;&#160;&#160;&#160;</title>
<path fill="none" stroke="black" d="M1125.68,-215.7C1132.2,-207.39 1140.15,-197.28 1147.33,-188.14"/>
<polygon fill="black" stroke="black" points="1150.22,-190.13 1153.64,-180.1 1144.71,-185.81 1150.22,-190.13"/>
</g>
<!-- Fallback &#160;&#160;&#160;&#160;&#160;&#160;&#160; -->
<g id="node30" class="node">
<title>Fallback &#160;&#160;&#160;&#160;&#160;&#160;&#160;</title>
<polygon fill="cyan" stroke="black" points="1151.07,-82.54 1151.07,-97.46 1130.57,-108 1101.59,-108 1081.09,-97.46 1081.09,-82.54 1101.59,-72 1130.57,-72 1151.07,-82.54"/>
<text text-anchor="middle" x="1116.08" y="-87.8" font-family="Times,serif" font-size="9.00">Fallback</text>
</g>
<!-- Sequence &#160;&#160;&#160;&#160;&#160;&#45;&gt;Fallback &#160;&#160;&#160;&#160;&#160;&#160;&#160; -->
<g id="edge29" class="edge">
<title>Sequence &#160;&#160;&#160;&#160;&#160;&#45;&gt;Fallback &#160;&#160;&#160;&#160;&#160;&#160;&#160;</title>
<path fill="none" stroke="black" d="M1154.47,-143.7C1148.48,-135.47 1141.2,-125.48 1134.6,-116.42"/>
<polygon fill="black" stroke="black" points="1137.26,-114.13 1128.54,-108.1 1131.6,-118.25 1137.26,-114.13"/>
</g>
<!-- pick0 BlueBox -->
<g id="node33" class="node">
<title>pick0 BlueBox</title>
<ellipse fill="lightgray" stroke="black" cx="1217.08" cy="-90" rx="47.84" ry="18"/>
<text text-anchor="middle" x="1217.08" y="-87.8" font-family="Times,serif" font-size="9.00">pick0 BlueBox</text>
</g>
<!-- Sequence &#160;&#160;&#160;&#160;&#160;&#45;&gt;pick0 BlueBox -->
<g id="edge32" class="edge">
<title>Sequence &#160;&#160;&#160;&#160;&#160;&#45;&gt;pick0 BlueBox</title>
<path fill="none" stroke="black" d="M1179.44,-143.7C1185.4,-135.35 1192.66,-125.18 1199.21,-116.02"/>
<polygon fill="black" stroke="black" points="1202.24,-117.79 1205.21,-107.62 1196.55,-113.73 1202.24,-117.79"/>
</g>
<!-- gripper_state open &#160; -->
<g id="node31" class="node">
<title>gripper_state open &#160;</title>
<ellipse fill="lightgray" stroke="black" cx="1054.08" cy="-18" rx="60.09" ry="18"/>
<text text-anchor="middle" x="1054.08" y="-15.8" font-family="Times,serif" font-size="9.00">gripper_state open</text>
</g>
<!-- Fallback &#160;&#160;&#160;&#160;&#160;&#160;&#160;&#45;&gt;gripper_state open &#160; -->
<g id="edge30" class="edge">
<title>Fallback &#160;&#160;&#160;&#160;&#160;&#160;&#160;&#45;&gt;gripper_state open &#160;</title>
<path fill="none" stroke="black" d="M1101.07,-72.05C1093.46,-63.46 1084.07,-52.86 1075.69,-43.4"/>
<polygon fill="black" stroke="black" points="1078.2,-40.95 1068.95,-35.79 1072.96,-45.6 1078.2,-40.95"/>
</g>
<!-- open_gripper &#160; -->
<g id="node32" class="node">
<title>open_gripper &#160;</title>
<ellipse fill="lightgray" stroke="black" cx="1178.08" cy="-18" rx="45.72" ry="18"/>
<text text-anchor="middle" x="1178.08" y="-15.8" font-family="Times,serif" font-size="9.00">open_gripper</text>
</g>
<!-- Fallback &#160;&#160;&#160;&#160;&#160;&#160;&#160;&#45;&gt;open_gripper &#160; -->
<g id="edge31" class="edge">
<title>Fallback &#160;&#160;&#160;&#160;&#160;&#160;&#160;&#45;&gt;open_gripper &#160;</title>
<path fill="none" stroke="black" d="M1131.09,-72.05C1138.82,-63.33 1148.37,-52.54 1156.84,-42.98"/>
<polygon fill="black" stroke="black" points="1159.63,-45.11 1163.64,-35.31 1154.39,-40.47 1159.63,-45.11"/>
</g>
</g>
</svg>
