<?xml version="1.0" encoding="UTF-8" standalone="no"?>
<!DOCTYPE svg PUBLIC "-//W3C//DTD SVG 1.1//EN"
 "http://www.w3.org/Graphics/SVG/1.1/DTD/svg11.dtd">
<!-- Generated by graphviz version 2.43.0 (0)
 -->
<!-- Title: pastafarianism Pages: 1 -->
<svg width="2249pt" height="548pt"
 viewBox="0.00 0.00 2248.87 548.00" xmlns="http://www.w3.org/2000/svg" xmlns:xlink="http://www.w3.org/1999/xlink">
<g id="graph0" class="graph" transform="scale(1 1) rotate(0) translate(4 544)">
<title>pastafarianism</title>
<polygon fill="white" stroke="transparent" points="-4,4 -4,-544 2244.87,-544 2244.87,4 -4,4"/>
<!-- Fallback -->
<g id="node1" class="node">
<title>Fallback</title>
<polygon fill="cyan" stroke="black" points="1002.41,-514.54 1002.41,-529.46 981.91,-540 952.93,-540 932.43,-529.46 932.43,-514.54 952.93,-504 981.91,-504 1002.41,-514.54"/>
<text text-anchor="middle" x="967.42" y="-519.8" font-family="Times,serif" font-size="9.00">Fallback</text>
</g>
<!-- Sequence -->
<g id="node2" class="node">
<title>Sequence</title>
<polygon fill="orange" stroke="black" points="700.42,-468 638.42,-468 638.42,-432 700.42,-432 700.42,-468"/>
<text text-anchor="middle" x="669.42" y="-447.8" font-family="Times,serif" font-size="9.00">Sequence</text>
</g>
<!-- Fallback&#45;&gt;Sequence -->
<g id="edge1" class="edge">
<title>Fallback&#45;&gt;Sequence</title>
<path fill="none" stroke="black" d="M934.68,-513.31C879.94,-500.45 769.97,-474.62 710.26,-460.59"/>
<polygon fill="black" stroke="black" points="710.96,-457.16 700.42,-458.28 709.36,-463.98 710.96,-457.16"/>
</g>
<!-- Sequence &#160;&#160;&#160;&#160;&#160;&#160; -->
<g id="node37" class="node">
<title>Sequence &#160;&#160;&#160;&#160;&#160;&#160;</title>
<polygon fill="orange" stroke="black" points="1480.42,-468 1418.42,-468 1418.42,-432 1480.42,-432 1480.42,-468"/>
<text text-anchor="middle" x="1449.42" y="-447.8" font-family="Times,serif" font-size="9.00">Sequence</text>
</g>
<!-- Fallback&#45;&gt;Sequence &#160;&#160;&#160;&#160;&#160;&#160; -->
<g id="edge36" class="edge">
<title>Fallback&#45;&gt;Sequence &#160;&#160;&#160;&#160;&#160;&#160;</title>
<path fill="none" stroke="black" d="M1002.47,-515.91C1089.46,-503.28 1314.89,-470.54 1408.12,-457"/>
<polygon fill="black" stroke="black" points="1408.91,-460.42 1418.3,-455.52 1407.9,-453.49 1408.91,-460.42"/>
</g>
<!-- unstacked -->
<g id="node3" class="node">
<title>unstacked</title>
<ellipse fill="lightgray" stroke="black" cx="339.42" cy="-378" rx="36.9" ry="18"/>
<text text-anchor="middle" x="339.42" y="-375.8" font-family="Times,serif" font-size="9.00">unstacked</text>
</g>
<!-- Sequence&#45;&gt;unstacked -->
<g id="edge2" class="edge">
<title>Sequence&#45;&gt;unstacked</title>
<path fill="none" stroke="black" d="M638.35,-444.96C585.7,-437.73 475.83,-420.95 385.42,-396 382.65,-395.24 379.81,-394.38 376.97,-393.46"/>
<polygon fill="black" stroke="black" points="377.99,-390.11 367.39,-390.2 375.73,-396.74 377.99,-390.11"/>
</g>
<!-- Fallback  -->
<g id="node4" class="node">
<title>Fallback </title>
<polygon fill="cyan" stroke="black" points="464.41,-370.54 464.41,-385.46 443.91,-396 414.93,-396 394.43,-385.46 394.43,-370.54 414.93,-360 443.91,-360 464.41,-370.54"/>
<text text-anchor="middle" x="429.42" y="-375.8" font-family="Times,serif" font-size="9.00">Fallback</text>
</g>
<!-- Sequence&#45;&gt;Fallback  -->
<g id="edge3" class="edge">
<title>Sequence&#45;&gt;Fallback </title>
<path fill="none" stroke="black" d="M638.04,-439.85C594.87,-427.25 517.1,-404.57 469.68,-390.74"/>
<polygon fill="black" stroke="black" points="470.63,-387.37 460.05,-387.93 468.67,-394.09 470.63,-387.37"/>
</g>
<!-- Fallback &#160;&#160;&#160; -->
<g id="node15" class="node">
<title>Fallback &#160;&#160;&#160;</title>
<polygon fill="cyan" stroke="black" points="704.41,-370.54 704.41,-385.46 683.91,-396 654.93,-396 634.43,-385.46 634.43,-370.54 654.93,-360 683.91,-360 704.41,-370.54"/>
<text text-anchor="middle" x="669.42" y="-375.8" font-family="Times,serif" font-size="9.00">Fallback</text>
</g>
<!-- Sequence&#45;&gt;Fallback &#160;&#160;&#160; -->
<g id="edge14" class="edge">
<title>Sequence&#45;&gt;Fallback &#160;&#160;&#160;</title>
<path fill="none" stroke="black" d="M669.42,-431.7C669.42,-423.98 669.42,-414.71 669.42,-406.11"/>
<polygon fill="black" stroke="black" points="672.92,-406.1 669.42,-396.1 665.92,-406.1 672.92,-406.1"/>
</g>
<!-- Fallback &#160;&#160;&#160;&#160;&#160;&#160; -->
<g id="node26" class="node">
<title>Fallback &#160;&#160;&#160;&#160;&#160;&#160;</title>
<polygon fill="cyan" stroke="black" points="971.41,-370.54 971.41,-385.46 950.91,-396 921.93,-396 901.43,-385.46 901.43,-370.54 921.93,-360 950.91,-360 971.41,-370.54"/>
<text text-anchor="middle" x="936.42" y="-375.8" font-family="Times,serif" font-size="9.00">Fallback</text>
</g>
<!-- Sequence&#45;&gt;Fallback &#160;&#160;&#160;&#160;&#160;&#160; -->
<g id="edge25" class="edge">
<title>Sequence&#45;&gt;Fallback &#160;&#160;&#160;&#160;&#160;&#160;</title>
<path fill="none" stroke="black" d="M700.57,-440.83C748.65,-428.23 840.97,-404.02 894.75,-389.93"/>
<polygon fill="black" stroke="black" points="895.85,-393.25 904.64,-387.33 894.08,-386.48 895.85,-393.25"/>
</g>
<!-- object_at YellowBox [0.0, 0.0, 0.175] 0.02 KittingBox -->
<g id="node5" class="node">
<title>object_at YellowBox [0.0, 0.0, 0.175] 0.02 KittingBox</title>
<ellipse fill="lightgray" stroke="black" cx="152.42" cy="-306" rx="152.34" ry="18"/>
<text text-anchor="middle" x="152.42" y="-303.8" font-family="Times,serif" font-size="9.00">object_at YellowBox [0.0, 0.0, 0.175] 0.02 KittingBox</text>
</g>
<!-- Fallback &#45;&gt;object_at YellowBox [0.0, 0.0, 0.175] 0.02 KittingBox -->
<g id="edge4" class="edge">
<title>Fallback &#45;&gt;object_at YellowBox [0.0, 0.0, 0.175] 0.02 KittingBox</title>
<path fill="none" stroke="black" d="M402.64,-365.94C397.01,-363.82 391.06,-361.72 385.42,-360 337.65,-345.42 283.28,-332.83 239.08,-323.59"/>
<polygon fill="black" stroke="black" points="239.74,-320.15 229.23,-321.55 238.32,-327 239.74,-320.15"/>
</g>
<!-- Sequence  -->
<g id="node6" class="node">
<title>Sequence </title>
<polygon fill="orange" stroke="black" points="384.42,-324 322.42,-324 322.42,-288 384.42,-288 384.42,-324"/>
<text text-anchor="middle" x="353.42" y="-303.8" font-family="Times,serif" font-size="9.00">Sequence</text>
</g>
<!-- Fallback &#45;&gt;Sequence  -->
<g id="edge5" class="edge">
<title>Fallback &#45;&gt;Sequence </title>
<path fill="none" stroke="black" d="M412.17,-361.12C402.52,-352.22 390.28,-340.95 379.48,-331"/>
<polygon fill="black" stroke="black" points="381.65,-328.24 371.93,-324.04 376.91,-333.39 381.65,-328.24"/>
</g>
<!-- Fallback &#160; -->
<g id="node7" class="node">
<title>Fallback &#160;</title>
<polygon fill="cyan" stroke="black" points="193.41,-226.54 193.41,-241.46 172.91,-252 143.93,-252 123.43,-241.46 123.43,-226.54 143.93,-216 172.91,-216 193.41,-226.54"/>
<text text-anchor="middle" x="158.42" y="-231.8" font-family="Times,serif" font-size="9.00">Fallback</text>
</g>
<!-- Sequence &#45;&gt;Fallback &#160; -->
<g id="edge6" class="edge">
<title>Sequence &#45;&gt;Fallback &#160;</title>
<path fill="none" stroke="black" d="M322.08,-291.37C319.17,-290.2 316.25,-289.06 313.42,-288 264.84,-269.84 251.29,-269.35 202.42,-252 199.9,-251.11 197.31,-250.16 194.71,-249.2"/>
<polygon fill="black" stroke="black" points="195.92,-245.92 185.33,-245.66 193.45,-252.47 195.92,-245.92"/>
</g>
<!-- place0 YellowBox [0.0, 0.0, 0.175] 0.02 KittingBox -->
<g id="node14" class="node">
<title>place0 YellowBox [0.0, 0.0, 0.175] 0.02 KittingBox</title>
<ellipse fill="lightgray" stroke="black" cx="357.42" cy="-234" rx="146.14" ry="18"/>
<text text-anchor="middle" x="357.42" y="-231.8" font-family="Times,serif" font-size="9.00">place0 YellowBox [0.0, 0.0, 0.175] 0.02 KittingBox</text>
</g>
<!-- Sequence &#45;&gt;place0 YellowBox [0.0, 0.0, 0.175] 0.02 KittingBox -->
<g id="edge13" class="edge">
<title>Sequence &#45;&gt;place0 YellowBox [0.0, 0.0, 0.175] 0.02 KittingBox</title>
<path fill="none" stroke="black" d="M354.41,-287.7C354.85,-279.98 355.38,-270.71 355.87,-262.11"/>
<polygon fill="black" stroke="black" points="359.37,-262.29 356.44,-252.1 352.38,-261.89 359.37,-262.29"/>
</g>
<!-- in_gripper YellowBox -->
<g id="node8" class="node">
<title>in_gripper YellowBox</title>
<ellipse fill="lightgray" stroke="black" cx="101.42" cy="-162" rx="66.29" ry="18"/>
<text text-anchor="middle" x="101.42" y="-159.8" font-family="Times,serif" font-size="9.00">in_gripper YellowBox</text>
</g>
<!-- Fallback &#160;&#45;&gt;in_gripper YellowBox -->
<g id="edge7" class="edge">
<title>Fallback &#160;&#45;&gt;in_gripper YellowBox</title>
<path fill="none" stroke="black" d="M144.33,-215.7C137.4,-207.18 128.91,-196.76 121.33,-187.45"/>
<polygon fill="black" stroke="black" points="123.98,-185.17 114.96,-179.62 118.56,-189.59 123.98,-185.17"/>
</g>
<!-- Sequence &#160; -->
<g id="node9" class="node">
<title>Sequence &#160;</title>
<polygon fill="orange" stroke="black" points="247.42,-180 185.42,-180 185.42,-144 247.42,-144 247.42,-180"/>
<text text-anchor="middle" x="216.42" y="-159.8" font-family="Times,serif" font-size="9.00">Sequence</text>
</g>
<!-- Fallback &#160;&#45;&gt;Sequence &#160; -->
<g id="edge8" class="edge">
<title>Fallback &#160;&#45;&gt;Sequence &#160;</title>
<path fill="none" stroke="black" d="M172.76,-215.7C179.71,-207.3 188.19,-197.07 195.82,-187.86"/>
<polygon fill="black" stroke="black" points="198.56,-190.04 202.25,-180.1 193.17,-185.57 198.56,-190.04"/>
</g>
<!-- Fallback &#160;&#160; -->
<g id="node10" class="node">
<title>Fallback &#160;&#160;</title>
<polygon fill="cyan" stroke="black" points="193.41,-82.54 193.41,-97.46 172.91,-108 143.93,-108 123.43,-97.46 123.43,-82.54 143.93,-72 172.91,-72 193.41,-82.54"/>
<text text-anchor="middle" x="158.42" y="-87.8" font-family="Times,serif" font-size="9.00">Fallback</text>
</g>
<!-- Sequence &#160;&#45;&gt;Fallback &#160;&#160; -->
<g id="edge9" class="edge">
<title>Sequence &#160;&#45;&gt;Fallback &#160;&#160;</title>
<path fill="none" stroke="black" d="M202.08,-143.7C195.13,-135.3 186.65,-125.07 179.02,-115.86"/>
<polygon fill="black" stroke="black" points="181.67,-113.57 172.59,-108.1 176.28,-118.04 181.67,-113.57"/>
</g>
<!-- pick0 YellowBox -->
<g id="node13" class="node">
<title>pick0 YellowBox</title>
<ellipse fill="lightgray" stroke="black" cx="264.42" cy="-90" rx="53.23" ry="18"/>
<text text-anchor="middle" x="264.42" y="-87.8" font-family="Times,serif" font-size="9.00">pick0 YellowBox</text>
</g>
<!-- Sequence &#160;&#45;&gt;pick0 YellowBox -->
<g id="edge12" class="edge">
<title>Sequence &#160;&#45;&gt;pick0 YellowBox</title>
<path fill="none" stroke="black" d="M228.29,-143.7C234.01,-135.35 240.98,-125.18 247.27,-116.02"/>
<polygon fill="black" stroke="black" points="250.25,-117.85 253.02,-107.62 244.48,-113.89 250.25,-117.85"/>
</g>
<!-- gripper_state open -->
<g id="node11" class="node">
<title>gripper_state open</title>
<ellipse fill="lightgray" stroke="black" cx="96.42" cy="-18" rx="60.09" ry="18"/>
<text text-anchor="middle" x="96.42" y="-15.8" font-family="Times,serif" font-size="9.00">gripper_state open</text>
</g>
<!-- Fallback &#160;&#160;&#45;&gt;gripper_state open -->
<g id="edge10" class="edge">
<title>Fallback &#160;&#160;&#45;&gt;gripper_state open</title>
<path fill="none" stroke="black" d="M143.41,-72.05C135.8,-63.46 126.41,-52.86 118.03,-43.4"/>
<polygon fill="black" stroke="black" points="120.54,-40.95 111.29,-35.79 115.3,-45.6 120.54,-40.95"/>
</g>
<!-- open_gripper -->
<g id="node12" class="node">
<title>open_gripper</title>
<ellipse fill="lightgray" stroke="black" cx="220.42" cy="-18" rx="45.72" ry="18"/>
<text text-anchor="middle" x="220.42" y="-15.8" font-family="Times,serif" font-size="9.00">open_gripper</text>
</g>
<!-- Fallback &#160;&#160;&#45;&gt;open_gripper -->
<g id="edge11" class="edge">
<title>Fallback &#160;&#160;&#45;&gt;open_gripper</title>
<path fill="none" stroke="black" d="M173.43,-72.05C181.16,-63.33 190.71,-52.54 199.18,-42.98"/>
<polygon fill="black" stroke="black" points="201.97,-45.11 205.98,-35.31 196.73,-40.47 201.97,-45.11"/>
</g>
<!-- object_at GreenBox [0.0, 0.0, 0.22] 0.02 YellowBox -->
<g id="node16" class="node">
<title>object_at GreenBox [0.0, 0.0, 0.22] 0.02 YellowBox</title>
<ellipse fill="lightgray" stroke="black" cx="549.42" cy="-306" rx="146.79" ry="18"/>
<text text-anchor="middle" x="549.42" y="-303.8" font-family="Times,serif" font-size="9.00">object_at GreenBox [0.0, 0.0, 0.22] 0.02 YellowBox</text>
</g>
<!-- Fallback &#160;&#160;&#160;&#45;&gt;object_at GreenBox [0.0, 0.0, 0.22] 0.02 YellowBox -->
<g id="edge15" class="edge">
<title>Fallback &#160;&#160;&#160;&#45;&gt;object_at GreenBox [0.0, 0.0, 0.22] 0.02 YellowBox</title>
<path fill="none" stroke="black" d="M647.13,-364C630.32,-354.19 606.87,-340.51 587.15,-329.01"/>
<polygon fill="black" stroke="black" points="588.8,-325.92 578.4,-323.9 585.27,-331.96 588.8,-325.92"/>
</g>
<!-- Sequence &#160;&#160; -->
<g id="node17" class="node">
<title>Sequence &#160;&#160;</title>
<polygon fill="orange" stroke="black" points="776.42,-324 714.42,-324 714.42,-288 776.42,-288 776.42,-324"/>
<text text-anchor="middle" x="745.42" y="-303.8" font-family="Times,serif" font-size="9.00">Sequence</text>
</g>
<!-- Fallback &#160;&#160;&#160;&#45;&gt;Sequence &#160;&#160; -->
<g id="edge16" class="edge">
<title>Fallback &#160;&#160;&#160;&#45;&gt;Sequence &#160;&#160;</title>
<path fill="none" stroke="black" d="M686.67,-361.12C696.32,-352.22 708.56,-340.95 719.36,-331"/>
<polygon fill="black" stroke="black" points="721.93,-333.39 726.92,-324.04 717.19,-328.24 721.93,-333.39"/>
</g>
<!-- Fallback &#160;&#160;&#160;&#160; -->
<g id="node18" class="node">
<title>Fallback &#160;&#160;&#160;&#160;</title>
<polygon fill="cyan" stroke="black" points="640.41,-226.54 640.41,-241.46 619.91,-252 590.93,-252 570.43,-241.46 570.43,-226.54 590.93,-216 619.91,-216 640.41,-226.54"/>
<text text-anchor="middle" x="605.42" y="-231.8" font-family="Times,serif" font-size="9.00">Fallback</text>
</g>
<!-- Sequence &#160;&#160;&#45;&gt;Fallback &#160;&#160;&#160;&#160; -->
<g id="edge17" class="edge">
<title>Sequence &#160;&#160;&#45;&gt;Fallback &#160;&#160;&#160;&#160;</title>
<path fill="none" stroke="black" d="M714.35,-289.46C691.98,-278.28 661.82,-263.2 638.91,-251.75"/>
<polygon fill="black" stroke="black" points="640.41,-248.58 629.9,-247.24 637.28,-254.84 640.41,-248.58"/>
</g>
<!-- place0 GreenBox [0.0, 0.0, 0.22] 0.02 YellowBox -->
<g id="node25" class="node">
<title>place0 GreenBox [0.0, 0.0, 0.22] 0.02 YellowBox</title>
<ellipse fill="lightgray" stroke="black" cx="798.42" cy="-234" rx="140.09" ry="18"/>
<text text-anchor="middle" x="798.42" y="-231.8" font-family="Times,serif" font-size="9.00">place0 GreenBox [0.0, 0.0, 0.22] 0.02 YellowBox</text>
</g>
<!-- Sequence &#160;&#160;&#45;&gt;place0 GreenBox [0.0, 0.0, 0.22] 0.02 YellowBox -->
<g id="edge24" class="edge">
<title>Sequence &#160;&#160;&#45;&gt;place0 GreenBox [0.0, 0.0, 0.22] 0.02 YellowBox</title>
<path fill="none" stroke="black" d="M758.52,-287.7C764.81,-279.39 772.47,-269.28 779.39,-260.14"/>
<polygon fill="black" stroke="black" points="782.22,-262.19 785.47,-252.1 776.64,-257.96 782.22,-262.19"/>
</g>
<!-- in_gripper GreenBox -->
<g id="node19" class="node">
<title>in_gripper GreenBox</title>
<ellipse fill="lightgray" stroke="black" cx="547.42" cy="-162" rx="65.64" ry="18"/>
<text text-anchor="middle" x="547.42" y="-159.8" font-family="Times,serif" font-size="9.00">in_gripper GreenBox</text>
</g>
<!-- Fallback &#160;&#160;&#160;&#160;&#45;&gt;in_gripper GreenBox -->
<g id="edge18" class="edge">
<title>Fallback &#160;&#160;&#160;&#160;&#45;&gt;in_gripper GreenBox</title>
<path fill="none" stroke="black" d="M591.08,-215.7C584.03,-207.18 575.4,-196.76 567.68,-187.45"/>
<polygon fill="black" stroke="black" points="570.27,-185.09 561.19,-179.62 564.88,-189.56 570.27,-185.09"/>
</g>
<!-- Sequence &#160;&#160;&#160; -->
<g id="node20" class="node">
<title>Sequence &#160;&#160;&#160;</title>
<polygon fill="orange" stroke="black" points="693.42,-180 631.42,-180 631.42,-144 693.42,-144 693.42,-180"/>
<text text-anchor="middle" x="662.42" y="-159.8" font-family="Times,serif" font-size="9.00">Sequence</text>
</g>
<!-- Fallback &#160;&#160;&#160;&#160;&#45;&gt;Sequence &#160;&#160;&#160; -->
<g id="edge19" class="edge">
<title>Fallback &#160;&#160;&#160;&#160;&#45;&gt;Sequence &#160;&#160;&#160;</title>
<path fill="none" stroke="black" d="M619.51,-215.7C626.34,-207.3 634.68,-197.07 642.18,-187.86"/>
<polygon fill="black" stroke="black" points="644.89,-190.07 648.49,-180.1 639.46,-185.65 644.89,-190.07"/>
</g>
<!-- Fallback &#160;&#160;&#160;&#160;&#160; -->
<g id="node21" class="node">
<title>Fallback &#160;&#160;&#160;&#160;&#160;</title>
<polygon fill="cyan" stroke="black" points="641.41,-82.54 641.41,-97.46 620.91,-108 591.93,-108 571.43,-97.46 571.43,-82.54 591.93,-72 620.91,-72 641.41,-82.54"/>
<text text-anchor="middle" x="606.42" y="-87.8" font-family="Times,serif" font-size="9.00">Fallback</text>
</g>
<!-- Sequence &#160;&#160;&#160;&#45;&gt;Fallback &#160;&#160;&#160;&#160;&#160; -->
<g id="edge20" class="edge">
<title>Sequence &#160;&#160;&#160;&#45;&gt;Fallback &#160;&#160;&#160;&#160;&#160;</title>
<path fill="none" stroke="black" d="M648.58,-143.7C641.93,-135.39 633.84,-125.28 626.53,-116.14"/>
<polygon fill="black" stroke="black" points="629.08,-113.73 620.1,-108.1 623.62,-118.1 629.08,-113.73"/>
</g>
<!-- pick0 GreenBox -->
<g id="node24" class="node">
<title>pick0 GreenBox</title>
<ellipse fill="lightgray" stroke="black" cx="712.42" cy="-90" rx="52.58" ry="18"/>
<text text-anchor="middle" x="712.42" y="-87.8" font-family="Times,serif" font-size="9.00">pick0 GreenBox</text>
</g>
<!-- Sequence &#160;&#160;&#160;&#45;&gt;pick0 GreenBox -->
<g id="edge23" class="edge">
<title>Sequence &#160;&#160;&#160;&#45;&gt;pick0 GreenBox</title>
<path fill="none" stroke="black" d="M674.78,-143.7C680.74,-135.35 688,-125.18 694.55,-116.02"/>
<polygon fill="black" stroke="black" points="697.58,-117.79 700.55,-107.62 691.89,-113.73 697.58,-117.79"/>
</g>
<!-- gripper_state open  -->
<g id="node22" class="node">
<title>gripper_state open </title>
<ellipse fill="lightgray" stroke="black" cx="544.42" cy="-18" rx="60.09" ry="18"/>
<text text-anchor="middle" x="544.42" y="-15.8" font-family="Times,serif" font-size="9.00">gripper_state open</text>
</g>
<!-- Fallback &#160;&#160;&#160;&#160;&#160;&#45;&gt;gripper_state open  -->
<g id="edge21" class="edge">
<title>Fallback &#160;&#160;&#160;&#160;&#160;&#45;&gt;gripper_state open </title>
<path fill="none" stroke="black" d="M591.41,-72.05C583.8,-63.46 574.41,-52.86 566.03,-43.4"/>
<polygon fill="black" stroke="black" points="568.54,-40.95 559.29,-35.79 563.3,-45.6 568.54,-40.95"/>
</g>
<!-- open_gripper  -->
<g id="node23" class="node">
<title>open_gripper </title>
<ellipse fill="lightgray" stroke="black" cx="668.42" cy="-18" rx="45.72" ry="18"/>
<text text-anchor="middle" x="668.42" y="-15.8" font-family="Times,serif" font-size="9.00">open_gripper</text>
</g>
<!-- Fallback &#160;&#160;&#160;&#160;&#160;&#45;&gt;open_gripper  -->
<g id="edge22" class="edge">
<title>Fallback &#160;&#160;&#160;&#160;&#160;&#45;&gt;open_gripper </title>
<path fill="none" stroke="black" d="M621.43,-72.05C629.16,-63.33 638.71,-52.54 647.18,-42.98"/>
<polygon fill="black" stroke="black" points="649.97,-45.11 653.98,-35.31 644.73,-40.47 649.97,-45.11"/>
</g>
<!-- object_at BlueBox [0.0, 0.0, 0.22] 0.02 GreenBox -->
<g id="node27" class="node">
<title>object_at BlueBox [0.0, 0.0, 0.22] 0.02 GreenBox</title>
<ellipse fill="lightgray" stroke="black" cx="936.42" cy="-306" rx="142.06" ry="18"/>
<text text-anchor="middle" x="936.42" y="-303.8" font-family="Times,serif" font-size="9.00">object_at BlueBox [0.0, 0.0, 0.22] 0.02 GreenBox</text>
</g>
<!-- Fallback &#160;&#160;&#160;&#160;&#160;&#160;&#45;&gt;object_at BlueBox [0.0, 0.0, 0.22] 0.02 GreenBox -->
<g id="edge26" class="edge">
<title>Fallback &#160;&#160;&#160;&#160;&#160;&#160;&#45;&gt;object_at BlueBox [0.0, 0.0, 0.22] 0.02 GreenBox</title>
<path fill="none" stroke="black" d="M936.42,-359.7C936.42,-351.98 936.42,-342.71 936.42,-334.11"/>
<polygon fill="black" stroke="black" points="939.92,-334.1 936.42,-324.1 932.92,-334.1 939.92,-334.1"/>
</g>
<!-- Sequence &#160;&#160;&#160;&#160; -->
<g id="node28" class="node">
<title>Sequence &#160;&#160;&#160;&#160;</title>
<polygon fill="orange" stroke="black" points="1158.42,-324 1096.42,-324 1096.42,-288 1158.42,-288 1158.42,-324"/>
<text text-anchor="middle" x="1127.42" y="-303.8" font-family="Times,serif" font-size="9.00">Sequence</text>
</g>
<!-- Fallback &#160;&#160;&#160;&#160;&#160;&#160;&#45;&gt;Sequence &#160;&#160;&#160;&#160; -->
<g id="edge27" class="edge">
<title>Fallback &#160;&#160;&#160;&#160;&#160;&#160;&#45;&gt;Sequence &#160;&#160;&#160;&#160;</title>
<path fill="none" stroke="black" d="M965.57,-367.39C994.22,-357.81 1039.36,-342.35 1086.59,-324.22"/>
<polygon fill="black" stroke="black" points="1087.99,-327.43 1096.06,-320.56 1085.47,-320.9 1087.99,-327.43"/>
</g>
<!-- Fallback &#160;&#160;&#160;&#160;&#160;&#160;&#160; -->
<g id="node29" class="node">
<title>Fallback &#160;&#160;&#160;&#160;&#160;&#160;&#160;</title>
<polygon fill="cyan" stroke="black" points="1040.41,-226.54 1040.41,-241.46 1019.91,-252 990.93,-252 970.43,-241.46 970.43,-226.54 990.93,-216 1019.91,-216 1040.41,-226.54"/>
<text text-anchor="middle" x="1005.42" y="-231.8" font-family="Times,serif" font-size="9.00">Fallback</text>
</g>
<!-- Sequence &#160;&#160;&#160;&#160;&#45;&gt;Fallback &#160;&#160;&#160;&#160;&#160;&#160;&#160; -->
<g id="edge28" class="edge">
<title>Sequence &#160;&#160;&#160;&#160;&#45;&gt;Fallback &#160;&#160;&#160;&#160;&#160;&#160;&#160;</title>
<path fill="none" stroke="black" d="M1097.58,-287.88C1079.15,-277.3 1055.53,-263.75 1036.82,-253.02"/>
<polygon fill="black" stroke="black" points="1038.49,-249.94 1028.07,-248 1035,-256.01 1038.49,-249.94"/>
</g>
<!-- place0 BlueBox [0.0, 0.0, 0.22] 0.02 GreenBox -->
<g id="node36" class="node">
<title>place0 BlueBox [0.0, 0.0, 0.22] 0.02 GreenBox</title>
<ellipse fill="lightgray" stroke="black" cx="1194.42" cy="-234" rx="135.85" ry="18"/>
<text text-anchor="middle" x="1194.42" y="-231.8" font-family="Times,serif" font-size="9.00">place0 BlueBox [0.0, 0.0, 0.22] 0.02 GreenBox</text>
</g>
<!-- Sequence &#160;&#160;&#160;&#160;&#45;&gt;place0 BlueBox [0.0, 0.0, 0.22] 0.02 GreenBox -->
<g id="edge35" class="edge">
<title>Sequence &#160;&#160;&#160;&#160;&#45;&gt;place0 BlueBox [0.0, 0.0, 0.22] 0.02 GreenBox</title>
<path fill="none" stroke="black" d="M1143.98,-287.7C1152.1,-279.22 1162.01,-268.86 1170.89,-259.58"/>
<polygon fill="black" stroke="black" points="1173.66,-261.75 1178.05,-252.1 1168.61,-256.91 1173.66,-261.75"/>
</g>
<!-- in_gripper BlueBox -->
<g id="node30" class="node">
<title>in_gripper BlueBox</title>
<ellipse fill="lightgray" stroke="black" cx="949.42" cy="-162" rx="61.55" ry="18"/>
<text text-anchor="middle" x="949.42" y="-159.8" font-family="Times,serif" font-size="9.00">in_gripper BlueBox</text>
</g>
<!-- Fallback &#160;&#160;&#160;&#160;&#160;&#160;&#160;&#45;&gt;in_gripper BlueBox -->
<g id="edge29" class="edge">
<title>Fallback &#160;&#160;&#160;&#160;&#160;&#160;&#160;&#45;&gt;in_gripper BlueBox</title>
<path fill="none" stroke="black" d="M991.58,-215.7C984.76,-207.18 976.43,-196.76 968.98,-187.45"/>
<polygon fill="black" stroke="black" points="971.7,-185.24 962.72,-179.62 966.23,-189.62 971.7,-185.24"/>
</g>
<!-- Sequence &#160;&#160;&#160;&#160;&#160; -->
<g id="node31" class="node">
<title>Sequence &#160;&#160;&#160;&#160;&#160;</title>
<polygon fill="orange" stroke="black" points="1091.42,-180 1029.42,-180 1029.42,-144 1091.42,-144 1091.42,-180"/>
<text text-anchor="middle" x="1060.42" y="-159.8" font-family="Times,serif" font-size="9.00">Sequence</text>
</g>
<!-- Fallback &#160;&#160;&#160;&#160;&#160;&#160;&#160;&#45;&gt;Sequence &#160;&#160;&#160;&#160;&#160; -->
<g id="edge30" class="edge">
<title>Fallback &#160;&#160;&#160;&#160;&#160;&#160;&#160;&#45;&gt;Sequence &#160;&#160;&#160;&#160;&#160;</title>
<path fill="none" stroke="black" d="M1019.02,-215.7C1025.54,-207.39 1033.49,-197.28 1040.67,-188.14"/>
<polygon fill="black" stroke="black" points="1043.56,-190.13 1046.98,-180.1 1038.05,-185.81 1043.56,-190.13"/>
</g>
<!-- Fallback &#160;&#160;&#160;&#160;&#160;&#160;&#160;&#160; -->
<g id="node32" class="node">
<title>Fallback &#160;&#160;&#160;&#160;&#160;&#160;&#160;&#160;</title>
<polygon fill="cyan" stroke="black" points="1032.41,-82.54 1032.41,-97.46 1011.91,-108 982.93,-108 962.43,-97.46 962.43,-82.54 982.93,-72 1011.91,-72 1032.41,-82.54"/>
<text text-anchor="middle" x="997.42" y="-87.8" font-family="Times,serif" font-size="9.00">Fallback</text>
</g>
<!-- Sequence &#160;&#160;&#160;&#160;&#160;&#45;&gt;Fallback &#160;&#160;&#160;&#160;&#160;&#160;&#160;&#160; -->
<g id="edge31" class="edge">
<title>Sequence &#160;&#160;&#160;&#160;&#160;&#45;&gt;Fallback &#160;&#160;&#160;&#160;&#160;&#160;&#160;&#160;</title>
<path fill="none" stroke="black" d="M1044.85,-143.7C1037.22,-135.22 1027.9,-124.86 1019.54,-115.58"/>
<polygon fill="black" stroke="black" points="1022.11,-113.2 1012.81,-108.1 1016.9,-117.88 1022.11,-113.2"/>
</g>
<!-- pick0 BlueBox -->
<g id="node35" class="node">
<title>pick0 BlueBox</title>
<ellipse fill="lightgray" stroke="black" cx="1098.42" cy="-90" rx="47.84" ry="18"/>
<text text-anchor="middle" x="1098.42" y="-87.8" font-family="Times,serif" font-size="9.00">pick0 BlueBox</text>
</g>
<!-- Sequence &#160;&#160;&#160;&#160;&#160;&#45;&gt;pick0 BlueBox -->
<g id="edge34" class="edge">
<title>Sequence &#160;&#160;&#160;&#160;&#160;&#45;&gt;pick0 BlueBox</title>
<path fill="none" stroke="black" d="M1069.81,-143.7C1074.19,-135.64 1079.48,-125.89 1084.32,-116.98"/>
<polygon fill="black" stroke="black" points="1087.44,-118.56 1089.14,-108.1 1081.29,-115.22 1087.44,-118.56"/>
</g>
<!-- gripper_state open &#160; -->
<g id="node33" class="node">
<title>gripper_state open &#160;</title>
<ellipse fill="lightgray" stroke="black" cx="935.42" cy="-18" rx="60.09" ry="18"/>
<text text-anchor="middle" x="935.42" y="-15.8" font-family="Times,serif" font-size="9.00">gripper_state open</text>
</g>
<!-- Fallback &#160;&#160;&#160;&#160;&#160;&#160;&#160;&#160;&#45;&gt;gripper_state open &#160; -->
<g id="edge32" class="edge">
<title>Fallback &#160;&#160;&#160;&#160;&#160;&#160;&#160;&#160;&#45;&gt;gripper_state open &#160;</title>
<path fill="none" stroke="black" d="M982.41,-72.05C974.8,-63.46 965.41,-52.86 957.03,-43.4"/>
<polygon fill="black" stroke="black" points="959.54,-40.95 950.29,-35.79 954.3,-45.6 959.54,-40.95"/>
</g>
<!-- open_gripper &#160; -->
<g id="node34" class="node">
<title>open_gripper &#160;</title>
<ellipse fill="lightgray" stroke="black" cx="1059.42" cy="-18" rx="45.72" ry="18"/>
<text text-anchor="middle" x="1059.42" y="-15.8" font-family="Times,serif" font-size="9.00">open_gripper</text>
</g>
<!-- Fallback &#160;&#160;&#160;&#160;&#160;&#160;&#160;&#160;&#45;&gt;open_gripper &#160; -->
<g id="edge33" class="edge">
<title>Fallback &#160;&#160;&#160;&#160;&#160;&#160;&#160;&#160;&#45;&gt;open_gripper &#160;</title>
<path fill="none" stroke="black" d="M1012.43,-72.05C1020.16,-63.33 1029.71,-52.54 1038.18,-42.98"/>
<polygon fill="black" stroke="black" points="1040.97,-45.11 1044.98,-35.31 1035.73,-40.47 1040.97,-45.11"/>
</g>
<!-- Fallback &#160;&#160;&#160;&#160;&#160;&#160;&#160;&#160;&#160; -->
<g id="node38" class="node">
<title>Fallback &#160;&#160;&#160;&#160;&#160;&#160;&#160;&#160;&#160;</title>
<polygon fill="cyan" stroke="black" points="1484.41,-370.54 1484.41,-385.46 1463.91,-396 1434.93,-396 1414.43,-385.46 1414.43,-370.54 1434.93,-360 1463.91,-360 1484.41,-370.54"/>
<text text-anchor="middle" x="1449.42" y="-375.8" font-family="Times,serif" font-size="9.00">Fallback</text>
</g>
<!-- Sequence &#160;&#160;&#160;&#160;&#160;&#160;&#45;&gt;Fallback &#160;&#160;&#160;&#160;&#160;&#160;&#160;&#160;&#160; -->
<g id="edge37" class="edge">
<title>Sequence &#160;&#160;&#160;&#160;&#160;&#160;&#45;&gt;Fallback &#160;&#160;&#160;&#160;&#160;&#160;&#160;&#160;&#160;</title>
<path fill="none" stroke="black" d="M1449.42,-431.7C1449.42,-423.98 1449.42,-414.71 1449.42,-406.11"/>
<polygon fill="black" stroke="black" points="1452.92,-406.1 1449.42,-396.1 1445.92,-406.1 1452.92,-406.1"/>
</g>
<!-- Fallback &#160;&#160;&#160;&#160;&#160;&#160;&#160;&#160;&#160;&#160;&#160;&#160; -->
<g id="node49" class="node">
<title>Fallback &#160;&#160;&#160;&#160;&#160;&#160;&#160;&#160;&#160;&#160;&#160;&#160;</title>
<polygon fill="cyan" stroke="black" points="1789.41,-370.54 1789.41,-385.46 1768.91,-396 1739.93,-396 1719.43,-385.46 1719.43,-370.54 1739.93,-360 1768.91,-360 1789.41,-370.54"/>
<text text-anchor="middle" x="1754.42" y="-375.8" font-family="Times,serif" font-size="9.00">Fallback</text>
</g>
<!-- Sequence &#160;&#160;&#160;&#160;&#160;&#160;&#45;&gt;Fallback &#160;&#160;&#160;&#160;&#160;&#160;&#160;&#160;&#160;&#160;&#160;&#160; -->
<g id="edge48" class="edge">
<title>Sequence &#160;&#160;&#160;&#160;&#160;&#160;&#45;&gt;Fallback &#160;&#160;&#160;&#160;&#160;&#160;&#160;&#160;&#160;&#160;&#160;&#160;</title>
<path fill="none" stroke="black" d="M1480.63,-441.84C1535.42,-429.26 1649.01,-403.19 1711.28,-388.9"/>
<polygon fill="black" stroke="black" points="1712.22,-392.28 1721.18,-386.63 1710.65,-385.45 1712.22,-392.28"/>
</g>
<!-- object_at GreenBox [0.133, 0.133, 0.175] 0.02 KittingBox -->
<g id="node39" class="node">
<title>object_at GreenBox [0.133, 0.133, 0.175] 0.02 KittingBox</title>
<ellipse fill="lightgray" stroke="black" cx="1342.42" cy="-306" rx="165.9" ry="18"/>
<text text-anchor="middle" x="1342.42" y="-303.8" font-family="Times,serif" font-size="9.00">object_at GreenBox [0.133, 0.133, 0.175] 0.02 KittingBox</text>
</g>
<!-- Fallback &#160;&#160;&#160;&#160;&#160;&#160;&#160;&#160;&#160;&#45;&gt;object_at GreenBox [0.133, 0.133, 0.175] 0.02 KittingBox -->
<g id="edge38" class="edge">
<title>Fallback &#160;&#160;&#160;&#160;&#160;&#160;&#160;&#160;&#160;&#45;&gt;object_at GreenBox [0.133, 0.133, 0.175] 0.02 KittingBox</title>
<path fill="none" stroke="black" d="M1428.28,-363.17C1413.66,-353.6 1393.86,-340.65 1376.96,-329.6"/>
<polygon fill="black" stroke="black" points="1378.72,-326.56 1368.44,-324.02 1374.89,-332.42 1378.72,-326.56"/>
</g>
<!-- Sequence &#160;&#160;&#160;&#160;&#160;&#160;&#160; -->
<g id="node40" class="node">
<title>Sequence &#160;&#160;&#160;&#160;&#160;&#160;&#160;</title>
<polygon fill="orange" stroke="black" points="1588.42,-324 1526.42,-324 1526.42,-288 1588.42,-288 1588.42,-324"/>
<text text-anchor="middle" x="1557.42" y="-303.8" font-family="Times,serif" font-size="9.00">Sequence</text>
</g>
<!-- Fallback &#160;&#160;&#160;&#160;&#160;&#160;&#160;&#160;&#160;&#45;&gt;Sequence &#160;&#160;&#160;&#160;&#160;&#160;&#160; -->
<g id="edge39" class="edge">
<title>Fallback &#160;&#160;&#160;&#160;&#160;&#160;&#160;&#160;&#160;&#45;&gt;Sequence &#160;&#160;&#160;&#160;&#160;&#160;&#160;</title>
<path fill="none" stroke="black" d="M1470.5,-363.34C1485.24,-353.78 1505.28,-340.8 1522.4,-329.7"/>
<polygon fill="black" stroke="black" points="1524.55,-332.48 1531.04,-324.1 1520.74,-326.6 1524.55,-332.48"/>
</g>
<!-- Fallback &#160;&#160;&#160;&#160;&#160;&#160;&#160;&#160;&#160;&#160; -->
<g id="node41" class="node">
<title>Fallback &#160;&#160;&#160;&#160;&#160;&#160;&#160;&#160;&#160;&#160;</title>
<polygon fill="cyan" stroke="black" points="1425.41,-226.54 1425.41,-241.46 1404.91,-252 1375.93,-252 1355.43,-241.46 1355.43,-226.54 1375.93,-216 1404.91,-216 1425.41,-226.54"/>
<text text-anchor="middle" x="1390.42" y="-231.8" font-family="Times,serif" font-size="9.00">Fallback</text>
</g>
<!-- Sequence &#160;&#160;&#160;&#160;&#160;&#160;&#160;&#45;&gt;Fallback &#160;&#160;&#160;&#160;&#160;&#160;&#160;&#160;&#160;&#160; -->
<g id="edge40" class="edge">
<title>Sequence &#160;&#160;&#160;&#160;&#160;&#160;&#160;&#45;&gt;Fallback &#160;&#160;&#160;&#160;&#160;&#160;&#160;&#160;&#160;&#160;</title>
<path fill="none" stroke="black" d="M1526.42,-291.8C1523.38,-290.51 1520.34,-289.23 1517.42,-288 1486.77,-275.09 1451.9,-260.55 1426.46,-249.97"/>
<polygon fill="black" stroke="black" points="1427.78,-246.72 1417.2,-246.12 1425.09,-253.19 1427.78,-246.72"/>
</g>
<!-- place0 GreenBox [0.133, 0.133, 0.175] 0.02 KittingBox -->
<g id="node48" class="node">
<title>place0 GreenBox [0.133, 0.133, 0.175] 0.02 KittingBox</title>
<ellipse fill="lightgray" stroke="black" cx="1602.42" cy="-234" rx="159.2" ry="18"/>
<text text-anchor="middle" x="1602.42" y="-231.8" font-family="Times,serif" font-size="9.00">place0 GreenBox [0.133, 0.133, 0.175] 0.02 KittingBox</text>
</g>
<!-- Sequence &#160;&#160;&#160;&#160;&#160;&#160;&#160;&#45;&gt;place0 GreenBox [0.133, 0.133, 0.175] 0.02 KittingBox -->
<g id="edge47" class="edge">
<title>Sequence &#160;&#160;&#160;&#160;&#160;&#160;&#160;&#45;&gt;place0 GreenBox [0.133, 0.133, 0.175] 0.02 KittingBox</title>
<path fill="none" stroke="black" d="M1568.54,-287.7C1573.78,-279.56 1580.12,-269.69 1585.9,-260.7"/>
<polygon fill="black" stroke="black" points="1588.96,-262.41 1591.42,-252.1 1583.07,-258.62 1588.96,-262.41"/>
</g>
<!-- in_gripper GreenBox  -->
<g id="node42" class="node">
<title>in_gripper GreenBox </title>
<ellipse fill="lightgray" stroke="black" cx="1332.42" cy="-162" rx="65.64" ry="18"/>
<text text-anchor="middle" x="1332.42" y="-159.8" font-family="Times,serif" font-size="9.00">in_gripper GreenBox</text>
</g>
<!-- Fallback &#160;&#160;&#160;&#160;&#160;&#160;&#160;&#160;&#160;&#160;&#45;&gt;in_gripper GreenBox  -->
<g id="edge41" class="edge">
<title>Fallback &#160;&#160;&#160;&#160;&#160;&#160;&#160;&#160;&#160;&#160;&#45;&gt;in_gripper GreenBox </title>
<path fill="none" stroke="black" d="M1376.08,-215.7C1369.03,-207.18 1360.4,-196.76 1352.68,-187.45"/>
<polygon fill="black" stroke="black" points="1355.27,-185.09 1346.19,-179.62 1349.88,-189.56 1355.27,-185.09"/>
</g>
<!-- Sequence &#160;&#160;&#160;&#160;&#160;&#160;&#160;&#160; -->
<g id="node43" class="node">
<title>Sequence &#160;&#160;&#160;&#160;&#160;&#160;&#160;&#160;</title>
<polygon fill="orange" stroke="black" points="1478.42,-180 1416.42,-180 1416.42,-144 1478.42,-144 1478.42,-180"/>
<text text-anchor="middle" x="1447.42" y="-159.8" font-family="Times,serif" font-size="9.00">Sequence</text>
</g>
<!-- Fallback &#160;&#160;&#160;&#160;&#160;&#160;&#160;&#160;&#160;&#160;&#45;&gt;Sequence &#160;&#160;&#160;&#160;&#160;&#160;&#160;&#160; -->
<g id="edge42" class="edge">
<title>Fallback &#160;&#160;&#160;&#160;&#160;&#160;&#160;&#160;&#160;&#160;&#45;&gt;Sequence &#160;&#160;&#160;&#160;&#160;&#160;&#160;&#160;</title>
<path fill="none" stroke="black" d="M1404.51,-215.7C1411.34,-207.3 1419.68,-197.07 1427.18,-187.86"/>
<polygon fill="black" stroke="black" points="1429.89,-190.07 1433.49,-180.1 1424.46,-185.65 1429.89,-190.07"/>
</g>
<!-- Fallback &#160;&#160;&#160;&#160;&#160;&#160;&#160;&#160;&#160;&#160;&#160; -->
<g id="node44" class="node">
<title>Fallback &#160;&#160;&#160;&#160;&#160;&#160;&#160;&#160;&#160;&#160;&#160;</title>
<polygon fill="cyan" stroke="black" points="1429.41,-82.54 1429.41,-97.46 1408.91,-108 1379.93,-108 1359.43,-97.46 1359.43,-82.54 1379.93,-72 1408.91,-72 1429.41,-82.54"/>
<text text-anchor="middle" x="1394.42" y="-87.8" font-family="Times,serif" font-size="9.00">Fallback</text>
</g>
<!-- Sequence &#160;&#160;&#160;&#160;&#160;&#160;&#160;&#160;&#45;&gt;Fallback &#160;&#160;&#160;&#160;&#160;&#160;&#160;&#160;&#160;&#160;&#160; -->
<g id="edge43" class="edge">
<title>Sequence &#160;&#160;&#160;&#160;&#160;&#160;&#160;&#160;&#45;&gt;Fallback &#160;&#160;&#160;&#160;&#160;&#160;&#160;&#160;&#160;&#160;&#160;</title>
<path fill="none" stroke="black" d="M1434.32,-143.7C1428.03,-135.39 1420.37,-125.28 1413.46,-116.14"/>
<polygon fill="black" stroke="black" points="1416.2,-113.96 1407.37,-108.1 1410.62,-118.19 1416.2,-113.96"/>
</g>
<!-- pick0 GreenBox  -->
<g id="node47" class="node">
<title>pick0 GreenBox </title>
<ellipse fill="lightgray" stroke="black" cx="1500.42" cy="-90" rx="52.58" ry="18"/>
<text text-anchor="middle" x="1500.42" y="-87.8" font-family="Times,serif" font-size="9.00">pick0 GreenBox</text>
</g>
<!-- Sequence &#160;&#160;&#160;&#160;&#160;&#160;&#160;&#160;&#45;&gt;pick0 GreenBox  -->
<g id="edge46" class="edge">
<title>Sequence &#160;&#160;&#160;&#160;&#160;&#160;&#160;&#160;&#45;&gt;pick0 GreenBox </title>
<path fill="none" stroke="black" d="M1460.52,-143.7C1466.91,-135.27 1474.7,-124.97 1481.69,-115.73"/>
<polygon fill="black" stroke="black" points="1484.59,-117.71 1487.84,-107.62 1479.01,-113.48 1484.59,-117.71"/>
</g>
<!-- gripper_state open &#160;&#160; -->
<g id="node45" class="node">
<title>gripper_state open &#160;&#160;</title>
<ellipse fill="lightgray" stroke="black" cx="1332.42" cy="-18" rx="60.09" ry="18"/>
<text text-anchor="middle" x="1332.42" y="-15.8" font-family="Times,serif" font-size="9.00">gripper_state open</text>
</g>
<!-- Fallback &#160;&#160;&#160;&#160;&#160;&#160;&#160;&#160;&#160;&#160;&#160;&#45;&gt;gripper_state open &#160;&#160; -->
<g id="edge44" class="edge">
<title>Fallback &#160;&#160;&#160;&#160;&#160;&#160;&#160;&#160;&#160;&#160;&#160;&#45;&gt;gripper_state open &#160;&#160;</title>
<path fill="none" stroke="black" d="M1379.41,-72.05C1371.8,-63.46 1362.41,-52.86 1354.03,-43.4"/>
<polygon fill="black" stroke="black" points="1356.54,-40.95 1347.29,-35.79 1351.3,-45.6 1356.54,-40.95"/>
</g>
<!-- open_gripper &#160;&#160; -->
<g id="node46" class="node">
<title>open_gripper &#160;&#160;</title>
<ellipse fill="lightgray" stroke="black" cx="1456.42" cy="-18" rx="45.72" ry="18"/>
<text text-anchor="middle" x="1456.42" y="-15.8" font-family="Times,serif" font-size="9.00">open_gripper</text>
</g>
<!-- Fallback &#160;&#160;&#160;&#160;&#160;&#160;&#160;&#160;&#160;&#160;&#160;&#45;&gt;open_gripper &#160;&#160; -->
<g id="edge45" class="edge">
<title>Fallback &#160;&#160;&#160;&#160;&#160;&#160;&#160;&#160;&#160;&#160;&#160;&#45;&gt;open_gripper &#160;&#160;</title>
<path fill="none" stroke="black" d="M1409.43,-72.05C1417.16,-63.33 1426.71,-52.54 1435.18,-42.98"/>
<polygon fill="black" stroke="black" points="1437.97,-45.11 1441.98,-35.31 1432.73,-40.47 1437.97,-45.11"/>
</g>
<!-- object_at BlueBox [0.0, &#45;0.12, 0.12] 0.02 YellowBox -->
<g id="node50" class="node">
<title>object_at BlueBox [0.0, &#45;0.12, 0.12] 0.02 YellowBox</title>
<ellipse fill="lightgray" stroke="black" cx="1754.42" cy="-306" rx="147.6" ry="18"/>
<text text-anchor="middle" x="1754.42" y="-303.8" font-family="Times,serif" font-size="9.00">object_at BlueBox [0.0, &#45;0.12, 0.12] 0.02 YellowBox</text>
</g>
<!-- Fallback &#160;&#160;&#160;&#160;&#160;&#160;&#160;&#160;&#160;&#160;&#160;&#160;&#45;&gt;object_at BlueBox [0.0, &#45;0.12, 0.12] 0.02 YellowBox -->
<g id="edge49" class="edge">
<title>Fallback &#160;&#160;&#160;&#160;&#160;&#160;&#160;&#160;&#160;&#160;&#160;&#160;&#45;&gt;object_at BlueBox [0.0, &#45;0.12, 0.12] 0.02 YellowBox</title>
<path fill="none" stroke="black" d="M1754.42,-359.7C1754.42,-351.98 1754.42,-342.71 1754.42,-334.11"/>
<polygon fill="black" stroke="black" points="1757.92,-334.1 1754.42,-324.1 1750.92,-334.1 1757.92,-334.1"/>
</g>
<!-- Sequence &#160;&#160;&#160;&#160;&#160;&#160;&#160;&#160;&#160; -->
<g id="node51" class="node">
<title>Sequence &#160;&#160;&#160;&#160;&#160;&#160;&#160;&#160;&#160;</title>
<polygon fill="orange" stroke="black" points="1982.42,-324 1920.42,-324 1920.42,-288 1982.42,-288 1982.42,-324"/>
<text text-anchor="middle" x="1951.42" y="-303.8" font-family="Times,serif" font-size="9.00">Sequence</text>
</g>
<!-- Fallback &#160;&#160;&#160;&#160;&#160;&#160;&#160;&#160;&#160;&#160;&#160;&#160;&#45;&gt;Sequence &#160;&#160;&#160;&#160;&#160;&#160;&#160;&#160;&#160; -->
<g id="edge50" class="edge">
<title>Fallback &#160;&#160;&#160;&#160;&#160;&#160;&#160;&#160;&#160;&#160;&#160;&#160;&#45;&gt;Sequence &#160;&#160;&#160;&#160;&#160;&#160;&#160;&#160;&#160;</title>
<path fill="none" stroke="black" d="M1784.17,-367.7C1814.01,-358.22 1861.41,-342.71 1910.55,-324.2"/>
<polygon fill="black" stroke="black" points="1911.96,-327.41 1920.07,-320.59 1909.48,-320.87 1911.96,-327.41"/>
</g>
<!-- Fallback &#160;&#160;&#160;&#160;&#160;&#160;&#160;&#160;&#160;&#160;&#160;&#160;&#160; -->
<g id="node52" class="node">
<title>Fallback &#160;&#160;&#160;&#160;&#160;&#160;&#160;&#160;&#160;&#160;&#160;&#160;&#160;</title>
<polygon fill="cyan" stroke="black" points="1940.41,-226.54 1940.41,-241.46 1919.91,-252 1890.93,-252 1870.43,-241.46 1870.43,-226.54 1890.93,-216 1919.91,-216 1940.41,-226.54"/>
<text text-anchor="middle" x="1905.42" y="-231.8" font-family="Times,serif" font-size="9.00">Fallback</text>
</g>
<!-- Sequence &#160;&#160;&#160;&#160;&#160;&#160;&#160;&#160;&#160;&#45;&gt;Fallback &#160;&#160;&#160;&#160;&#160;&#160;&#160;&#160;&#160;&#160;&#160;&#160;&#160; -->
<g id="edge51" class="edge">
<title>Sequence &#160;&#160;&#160;&#160;&#160;&#160;&#160;&#160;&#160;&#45;&gt;Fallback &#160;&#160;&#160;&#160;&#160;&#160;&#160;&#160;&#160;&#160;&#160;&#160;&#160;</title>
<path fill="none" stroke="black" d="M1940.05,-287.7C1934.7,-279.56 1928.22,-269.69 1922.31,-260.7"/>
<polygon fill="black" stroke="black" points="1925.08,-258.54 1916.66,-252.1 1919.23,-262.38 1925.08,-258.54"/>
</g>
<!-- place0 BlueBox [0.0, &#45;0.12, 0.12] 0.02 YellowBox -->
<g id="node59" class="node">
<title>place0 BlueBox [0.0, &#45;0.12, 0.12] 0.02 YellowBox</title>
<ellipse fill="lightgray" stroke="black" cx="2099.42" cy="-234" rx="141.4" ry="18"/>
<text text-anchor="middle" x="2099.42" y="-231.8" font-family="Times,serif" font-size="9.00">place0 BlueBox [0.0, &#45;0.12, 0.12] 0.02 YellowBox</text>
</g>
<!-- Sequence &#160;&#160;&#160;&#160;&#160;&#160;&#160;&#160;&#160;&#45;&gt;place0 BlueBox [0.0, &#45;0.12, 0.12] 0.02 YellowBox -->
<g id="edge58" class="edge">
<title>Sequence &#160;&#160;&#160;&#160;&#160;&#160;&#160;&#160;&#160;&#45;&gt;place0 BlueBox [0.0, &#45;0.12, 0.12] 0.02 YellowBox</title>
<path fill="none" stroke="black" d="M1982.45,-290.33C2003.62,-280.31 2031.98,-266.9 2055.48,-255.78"/>
<polygon fill="black" stroke="black" points="2057,-258.93 2064.55,-251.49 2054.01,-252.61 2057,-258.93"/>
</g>
<!-- in_gripper BlueBox  -->
<g id="node53" class="node">
<title>in_gripper BlueBox </title>
<ellipse fill="lightgray" stroke="black" cx="1849.42" cy="-162" rx="61.55" ry="18"/>
<text text-anchor="middle" x="1849.42" y="-159.8" font-family="Times,serif" font-size="9.00">in_gripper BlueBox</text>
</g>
<!-- Fallback &#160;&#160;&#160;&#160;&#160;&#160;&#160;&#160;&#160;&#160;&#160;&#160;&#160;&#45;&gt;in_gripper BlueBox  -->
<g id="edge52" class="edge">
<title>Fallback &#160;&#160;&#160;&#160;&#160;&#160;&#160;&#160;&#160;&#160;&#160;&#160;&#160;&#45;&gt;in_gripper BlueBox </title>
<path fill="none" stroke="black" d="M1891.58,-215.7C1884.76,-207.18 1876.43,-196.76 1868.98,-187.45"/>
<polygon fill="black" stroke="black" points="1871.7,-185.24 1862.72,-179.62 1866.23,-189.62 1871.7,-185.24"/>
</g>
<!-- Sequence &#160;&#160;&#160;&#160;&#160;&#160;&#160;&#160;&#160;&#160; -->
<g id="node54" class="node">
<title>Sequence &#160;&#160;&#160;&#160;&#160;&#160;&#160;&#160;&#160;&#160;</title>
<polygon fill="orange" stroke="black" points="1991.42,-180 1929.42,-180 1929.42,-144 1991.42,-144 1991.42,-180"/>
<text text-anchor="middle" x="1960.42" y="-159.8" font-family="Times,serif" font-size="9.00">Sequence</text>
</g>
<!-- Fallback &#160;&#160;&#160;&#160;&#160;&#160;&#160;&#160;&#160;&#160;&#160;&#160;&#160;&#45;&gt;Sequence &#160;&#160;&#160;&#160;&#160;&#160;&#160;&#160;&#160;&#160; -->
<g id="edge53" class="edge">
<title>Fallback &#160;&#160;&#160;&#160;&#160;&#160;&#160;&#160;&#160;&#160;&#160;&#160;&#160;&#45;&gt;Sequence &#160;&#160;&#160;&#160;&#160;&#160;&#160;&#160;&#160;&#160;</title>
<path fill="none" stroke="black" d="M1919.02,-215.7C1925.54,-207.39 1933.49,-197.28 1940.67,-188.14"/>
<polygon fill="black" stroke="black" points="1943.56,-190.13 1946.98,-180.1 1938.05,-185.81 1943.56,-190.13"/>
</g>
<!-- Fallback &#160;&#160;&#160;&#160;&#160;&#160;&#160;&#160;&#160;&#160;&#160;&#160;&#160;&#160; -->
<g id="node55" class="node">
<title>Fallback &#160;&#160;&#160;&#160;&#160;&#160;&#160;&#160;&#160;&#160;&#160;&#160;&#160;&#160;</title>
<polygon fill="cyan" stroke="black" points="1944.41,-82.54 1944.41,-97.46 1923.91,-108 1894.93,-108 1874.43,-97.46 1874.43,-82.54 1894.93,-72 1923.91,-72 1944.41,-82.54"/>
<text text-anchor="middle" x="1909.42" y="-87.8" font-family="Times,serif" font-size="9.00">Fallback</text>
</g>
<!-- Sequence &#160;&#160;&#160;&#160;&#160;&#160;&#160;&#160;&#160;&#160;&#45;&gt;Fallback &#160;&#160;&#160;&#160;&#160;&#160;&#160;&#160;&#160;&#160;&#160;&#160;&#160;&#160; -->
<g id="edge54" class="edge">
<title>Sequence &#160;&#160;&#160;&#160;&#160;&#160;&#160;&#160;&#160;&#160;&#45;&gt;Fallback &#160;&#160;&#160;&#160;&#160;&#160;&#160;&#160;&#160;&#160;&#160;&#160;&#160;&#160;</title>
<path fill="none" stroke="black" d="M1947.81,-143.7C1941.82,-135.47 1934.54,-125.48 1927.94,-116.42"/>
<polygon fill="black" stroke="black" points="1930.6,-114.13 1921.88,-108.1 1924.94,-118.25 1930.6,-114.13"/>
</g>
<!-- pick0 BlueBox  -->
<g id="node58" class="node">
<title>pick0 BlueBox </title>
<ellipse fill="lightgray" stroke="black" cx="2010.42" cy="-90" rx="47.84" ry="18"/>
<text text-anchor="middle" x="2010.42" y="-87.8" font-family="Times,serif" font-size="9.00">pick0 BlueBox</text>
</g>
<!-- Sequence &#160;&#160;&#160;&#160;&#160;&#160;&#160;&#160;&#160;&#160;&#45;&gt;pick0 BlueBox  -->
<g id="edge57" class="edge">
<title>Sequence &#160;&#160;&#160;&#160;&#160;&#160;&#160;&#160;&#160;&#160;&#45;&gt;pick0 BlueBox </title>
<path fill="none" stroke="black" d="M1972.78,-143.7C1978.74,-135.35 1986,-125.18 1992.55,-116.02"/>
<polygon fill="black" stroke="black" points="1995.58,-117.79 1998.55,-107.62 1989.89,-113.73 1995.58,-117.79"/>
</g>
<!-- gripper_state open &#160;&#160;&#160; -->
<g id="node56" class="node">
<title>gripper_state open &#160;&#160;&#160;</title>
<ellipse fill="lightgray" stroke="black" cx="1847.42" cy="-18" rx="60.09" ry="18"/>
<text text-anchor="middle" x="1847.42" y="-15.8" font-family="Times,serif" font-size="9.00">gripper_state open</text>
</g>
<!-- Fallback &#160;&#160;&#160;&#160;&#160;&#160;&#160;&#160;&#160;&#160;&#160;&#160;&#160;&#160;&#45;&gt;gripper_state open &#160;&#160;&#160; -->
<g id="edge55" class="edge">
<title>Fallback &#160;&#160;&#160;&#160;&#160;&#160;&#160;&#160;&#160;&#160;&#160;&#160;&#160;&#160;&#45;&gt;gripper_state open &#160;&#160;&#160;</title>
<path fill="none" stroke="black" d="M1894.41,-72.05C1886.8,-63.46 1877.41,-52.86 1869.03,-43.4"/>
<polygon fill="black" stroke="black" points="1871.54,-40.95 1862.29,-35.79 1866.3,-45.6 1871.54,-40.95"/>
</g>
<!-- open_gripper &#160;&#160;&#160; -->
<g id="node57" class="node">
<title>open_gripper &#160;&#160;&#160;</title>
<ellipse fill="lightgray" stroke="black" cx="1971.42" cy="-18" rx="45.72" ry="18"/>
<text text-anchor="middle" x="1971.42" y="-15.8" font-family="Times,serif" font-size="9.00">open_gripper</text>
</g>
<!-- Fallback &#160;&#160;&#160;&#160;&#160;&#160;&#160;&#160;&#160;&#160;&#160;&#160;&#160;&#160;&#45;&gt;open_gripper &#160;&#160;&#160; -->
<g id="edge56" class="edge">
<title>Fallback &#160;&#160;&#160;&#160;&#160;&#160;&#160;&#160;&#160;&#160;&#160;&#160;&#160;&#160;&#45;&gt;open_gripper &#160;&#160;&#160;</title>
<path fill="none" stroke="black" d="M1924.43,-72.05C1932.16,-63.33 1941.71,-52.54 1950.18,-42.98"/>
<polygon fill="black" stroke="black" points="1952.97,-45.11 1956.98,-35.31 1947.73,-40.47 1952.97,-45.11"/>
</g>
</g>
</svg>
