<?xml version="1.0" encoding="UTF-8" standalone="no"?>
<!DOCTYPE svg PUBLIC "-//W3C//DTD SVG 1.1//EN"
 "http://www.w3.org/Graphics/SVG/1.1/DTD/svg11.dtd">
<!-- Generated by graphviz version 2.43.0 (0)
 -->
<!-- Title: pastafarianism Pages: 1 -->
<svg width="2362pt" height="503pt"
 viewBox="0.00 0.00 2361.77 502.60" xmlns="http://www.w3.org/2000/svg" xmlns:xlink="http://www.w3.org/1999/xlink">
<g id="graph0" class="graph" transform="scale(1 1) rotate(0) translate(4 498.6)">
<title>pastafarianism</title>
<polygon fill="white" stroke="transparent" points="-4,4 -4,-498.6 2357.77,-498.6 2357.77,4 -4,4"/>
<!-- selector:
 insert(left_hand, outwardgripper, gear3, shaft3) -->
<g id="node1" class="node">
<title>selector:
 insert(left_hand, outwardgripper, gear3, shaft3)</title>
<polygon fill="#8deeee" stroke="black" points="1416.34,-442.54 1416.34,-473.18 1211.89,-494.84 922.76,-494.84 718.31,-473.18 718.31,-442.54 922.76,-420.88 1211.89,-420.88 1416.34,-442.54"/>
<text text-anchor="middle" x="1067.32" y="-463.46" font-family="Times,serif" font-size="18.00">selector:</text>
<text text-anchor="middle" x="1067.32" y="-443.46" font-family="Times,serif" font-size="18.00"> insert(left_hand, outwardgripper, gear3, shaft3)</text>
</g>
<!-- target:
 is_inserted_to(gear3, shaft3) -->
<g id="node2" class="node">
<title>target:
 is_inserted_to(gear3, shaft3)</title>
<ellipse fill="#ffec8b" stroke="black" cx="845.32" cy="-351.18" rx="198.89" ry="33.88"/>
<text text-anchor="middle" x="845.32" y="-356.78" font-family="Times,serif" font-size="18.00">target:</text>
<text text-anchor="middle" x="845.32" y="-336.78" font-family="Times,serif" font-size="18.00"> is_inserted_to(gear3, shaft3)</text>
</g>
<!-- selector:
 insert(left_hand, outwardgripper, gear3, shaft3)&#45;&gt;target:
 is_inserted_to(gear3, shaft3) -->
<g id="edge1" class="edge">
<title>selector:
 insert(left_hand, outwardgripper, gear3, shaft3)&#45;&gt;target:
 is_inserted_to(gear3, shaft3)</title>
<path fill="none" stroke="black" d="M991.24,-420.98C968.4,-410.21 943.37,-398.41 920.59,-387.67"/>
<polygon fill="black" stroke="black" points="921.85,-384.39 911.31,-383.29 918.86,-390.73 921.85,-384.39"/>
</g>
<!-- sequence:
 insert(left_hand, outwardgripper, gear3, shaft3) -->
<g id="node3" class="node">
<title>sequence:
 insert(left_hand, outwardgripper, gear3, shaft3)</title>
<polygon fill="#ff7f24" stroke="black" points="1518.32,-375.18 1062.32,-375.18 1062.32,-327.18 1518.32,-327.18 1518.32,-375.18"/>
<text text-anchor="middle" x="1290.32" y="-356.78" font-family="Times,serif" font-size="18.00">sequence:</text>
<text text-anchor="middle" x="1290.32" y="-336.78" font-family="Times,serif" font-size="18.00"> insert(left_hand, outwardgripper, gear3, shaft3)</text>
</g>
<!-- selector:
 insert(left_hand, outwardgripper, gear3, shaft3)&#45;&gt;sequence:
 insert(left_hand, outwardgripper, gear3, shaft3) -->
<g id="edge2" class="edge">
<title>selector:
 insert(left_hand, outwardgripper, gear3, shaft3)&#45;&gt;sequence:
 insert(left_hand, outwardgripper, gear3, shaft3)</title>
<path fill="none" stroke="black" d="M1143.76,-420.98C1172.63,-407.43 1204.99,-392.24 1231.95,-379.58"/>
<polygon fill="black" stroke="black" points="1233.68,-382.64 1241.25,-375.22 1230.71,-376.3 1233.68,-382.64"/>
</g>
<!-- selector:
 change_tool(left_hand, defaultgripper, outwardgripper) -->
<g id="node4" class="node">
<title>selector:
 change_tool(left_hand, defaultgripper, outwardgripper)</title>
<polygon fill="#8deeee" stroke="black" points="870.87,-229.19 870.87,-259.82 636.82,-281.48 305.83,-281.48 71.78,-259.82 71.78,-229.19 305.83,-207.53 636.82,-207.53 870.87,-229.19"/>
<text text-anchor="middle" x="471.32" y="-250.1" font-family="Times,serif" font-size="18.00">selector:</text>
<text text-anchor="middle" x="471.32" y="-230.1" font-family="Times,serif" font-size="18.00"> change_tool(left_hand, defaultgripper, outwardgripper)</text>
</g>
<!-- sequence:
 insert(left_hand, outwardgripper, gear3, shaft3)&#45;&gt;selector:
 change_tool(left_hand, defaultgripper, outwardgripper) -->
<g id="edge3" class="edge">
<title>sequence:
 insert(left_hand, outwardgripper, gear3, shaft3)&#45;&gt;selector:
 change_tool(left_hand, defaultgripper, outwardgripper)</title>
<path fill="none" stroke="black" d="M1127.18,-327.17C1102.44,-323.78 1077.21,-320.37 1053.32,-317.24 945.26,-303.07 825.79,-288.21 723.36,-275.71"/>
<polygon fill="black" stroke="black" points="723.53,-272.2 713.18,-274.46 722.68,-279.15 723.53,-272.2"/>
</g>
<!-- precondition:
 hold(outwardgripper, gear3) -->
<g id="node10" class="node">
<title>precondition:
 hold(outwardgripper, gear3)</title>
<ellipse fill="#ffec8b" stroke="black" cx="1085.32" cy="-244.5" rx="196.65" ry="33.88"/>
<text text-anchor="middle" x="1085.32" y="-250.1" font-family="Times,serif" font-size="18.00">precondition:</text>
<text text-anchor="middle" x="1085.32" y="-230.1" font-family="Times,serif" font-size="18.00"> hold(outwardgripper, gear3)</text>
</g>
<!-- sequence:
 insert(left_hand, outwardgripper, gear3, shaft3)&#45;&gt;precondition:
 hold(outwardgripper, gear3) -->
<g id="edge9" class="edge">
<title>sequence:
 insert(left_hand, outwardgripper, gear3, shaft3)&#45;&gt;precondition:
 hold(outwardgripper, gear3)</title>
<path fill="none" stroke="black" d="M1245.08,-327.08C1218.9,-313.71 1185.39,-296.6 1155.82,-281.5"/>
<polygon fill="black" stroke="black" points="1157.28,-278.31 1146.78,-276.88 1154.1,-284.55 1157.28,-278.31"/>
</g>
<!-- precondition:
 can_insert_to(gear3, shaft3) -->
<g id="node11" class="node">
<title>precondition:
 can_insert_to(gear3, shaft3)</title>
<ellipse fill="#ffec8b" stroke="black" cx="1495.32" cy="-244.5" rx="195.32" ry="33.88"/>
<text text-anchor="middle" x="1495.32" y="-250.1" font-family="Times,serif" font-size="18.00">precondition:</text>
<text text-anchor="middle" x="1495.32" y="-230.1" font-family="Times,serif" font-size="18.00"> can_insert_to(gear3, shaft3)</text>
</g>
<!-- sequence:
 insert(left_hand, outwardgripper, gear3, shaft3)&#45;&gt;precondition:
 can_insert_to(gear3, shaft3) -->
<g id="edge10" class="edge">
<title>sequence:
 insert(left_hand, outwardgripper, gear3, shaft3)&#45;&gt;precondition:
 can_insert_to(gear3, shaft3)</title>
<path fill="none" stroke="black" d="M1335.57,-327.08C1361.75,-313.71 1395.26,-296.6 1424.83,-281.5"/>
<polygon fill="black" stroke="black" points="1426.55,-284.55 1433.87,-276.88 1423.37,-278.31 1426.55,-284.55"/>
</g>
<!-- action:
 insert(left_hand, outwardgripper, gear3, shaft3) -->
<g id="node12" class="node">
<title>action:
 insert(left_hand, outwardgripper, gear3, shaft3)</title>
<ellipse fill="lightgreen" stroke="black" cx="2031.32" cy="-244.5" rx="322.38" ry="33.88"/>
<text text-anchor="middle" x="2031.32" y="-250.1" font-family="Times,serif" font-size="18.00">action:</text>
<text text-anchor="middle" x="2031.32" y="-230.1" font-family="Times,serif" font-size="18.00"> insert(left_hand, outwardgripper, gear3, shaft3)</text>
</g>
<!-- sequence:
 insert(left_hand, outwardgripper, gear3, shaft3)&#45;&gt;action:
 insert(left_hand, outwardgripper, gear3, shaft3) -->
<g id="edge11" class="edge">
<title>sequence:
 insert(left_hand, outwardgripper, gear3, shaft3)&#45;&gt;action:
 insert(left_hand, outwardgripper, gear3, shaft3)</title>
<path fill="none" stroke="black" d="M1453.4,-327.14C1565.3,-311.34 1714.46,-290.26 1833.21,-273.49"/>
<polygon fill="black" stroke="black" points="1833.74,-276.95 1843.15,-272.08 1832.76,-270.02 1833.74,-276.95"/>
</g>
<!-- target:
 hold(left_hand, outwardgripper) -->
<g id="node5" class="node">
<title>target:
 hold(left_hand, outwardgripper)</title>
<ellipse fill="#ffec8b" stroke="black" cx="221.32" cy="-137.82" rx="221.15" ry="33.88"/>
<text text-anchor="middle" x="221.32" y="-143.42" font-family="Times,serif" font-size="18.00">target:</text>
<text text-anchor="middle" x="221.32" y="-123.42" font-family="Times,serif" font-size="18.00"> hold(left_hand, outwardgripper)</text>
</g>
<!-- selector:
 change_tool(left_hand, defaultgripper, outwardgripper)&#45;&gt;target:
 hold(left_hand, outwardgripper) -->
<g id="edge4" class="edge">
<title>selector:
 change_tool(left_hand, defaultgripper, outwardgripper)&#45;&gt;target:
 hold(left_hand, outwardgripper)</title>
<path fill="none" stroke="black" d="M385.64,-207.62C359.58,-196.71 330.98,-184.74 305.05,-173.88"/>
<polygon fill="black" stroke="black" points="306.21,-170.57 295.63,-169.94 303.5,-177.03 306.21,-170.57"/>
</g>
<!-- sequence:
 change_tool(left_hand, defaultgripper, outwardgripper) -->
<g id="node6" class="node">
<title>sequence:
 change_tool(left_hand, defaultgripper, outwardgripper)</title>
<polygon fill="#ff7f24" stroke="black" points="982.32,-161.82 460.32,-161.82 460.32,-113.82 982.32,-113.82 982.32,-161.82"/>
<text text-anchor="middle" x="721.32" y="-143.42" font-family="Times,serif" font-size="18.00">sequence:</text>
<text text-anchor="middle" x="721.32" y="-123.42" font-family="Times,serif" font-size="18.00"> change_tool(left_hand, defaultgripper, outwardgripper)</text>
</g>
<!-- selector:
 change_tool(left_hand, defaultgripper, outwardgripper)&#45;&gt;sequence:
 change_tool(left_hand, defaultgripper, outwardgripper) -->
<g id="edge5" class="edge">
<title>selector:
 change_tool(left_hand, defaultgripper, outwardgripper)&#45;&gt;sequence:
 change_tool(left_hand, defaultgripper, outwardgripper)</title>
<path fill="none" stroke="black" d="M557.01,-207.62C589.8,-193.89 626.61,-178.48 657.07,-165.73"/>
<polygon fill="black" stroke="black" points="658.43,-168.95 666.31,-161.86 655.73,-162.49 658.43,-168.95"/>
</g>
<!-- precondition:
 hold(left_hand, defaultgripper) -->
<g id="node7" class="node">
<title>precondition:
 hold(left_hand, defaultgripper)</title>
<ellipse fill="#ffec8b" stroke="black" cx="314.32" cy="-33.94" rx="213.59" ry="33.88"/>
<text text-anchor="middle" x="314.32" y="-39.54" font-family="Times,serif" font-size="18.00">precondition:</text>
<text text-anchor="middle" x="314.32" y="-19.54" font-family="Times,serif" font-size="18.00"> hold(left_hand, defaultgripper)</text>
</g>
<!-- sequence:
 change_tool(left_hand, defaultgripper, outwardgripper)&#45;&gt;precondition:
 hold(left_hand, defaultgripper) -->
<g id="edge6" class="edge">
<title>sequence:
 change_tool(left_hand, defaultgripper, outwardgripper)&#45;&gt;precondition:
 hold(left_hand, defaultgripper)</title>
<path fill="none" stroke="black" d="M629.22,-113.77C572.02,-99.45 497.84,-80.88 435.85,-65.36"/>
<polygon fill="black" stroke="black" points="436.56,-61.93 426.01,-62.9 434.86,-68.72 436.56,-61.93"/>
</g>
<!-- precondition:
 is_empty(defaultgripper) -->
<g id="node8" class="node">
<title>precondition:
 is_empty(defaultgripper)</title>
<ellipse fill="#ffec8b" stroke="black" cx="721.32" cy="-33.94" rx="175.23" ry="33.88"/>
<text text-anchor="middle" x="721.32" y="-39.54" font-family="Times,serif" font-size="18.00">precondition:</text>
<text text-anchor="middle" x="721.32" y="-19.54" font-family="Times,serif" font-size="18.00"> is_empty(defaultgripper)</text>
</g>
<!-- sequence:
 change_tool(left_hand, defaultgripper, outwardgripper)&#45;&gt;precondition:
 is_empty(defaultgripper) -->
<g id="edge7" class="edge">
<title>sequence:
 change_tool(left_hand, defaultgripper, outwardgripper)&#45;&gt;precondition:
 is_empty(defaultgripper)</title>
<path fill="none" stroke="black" d="M721.32,-113.7C721.32,-103.16 721.32,-90.31 721.32,-78.08"/>
<polygon fill="black" stroke="black" points="724.82,-78.01 721.32,-68.01 717.82,-78.01 724.82,-78.01"/>
</g>
<!-- action:
 change_tool(left_hand, defaultgripper, outwardgripper) -->
<g id="node9" class="node">
<title>action:
 change_tool(left_hand, defaultgripper, outwardgripper)</title>
<ellipse fill="lightgreen" stroke="black" cx="1283.32" cy="-33.94" rx="369.22" ry="33.88"/>
<text text-anchor="middle" x="1283.32" y="-39.54" font-family="Times,serif" font-size="18.00">action:</text>
<text text-anchor="middle" x="1283.32" y="-19.54" font-family="Times,serif" font-size="18.00"> change_tool(left_hand, defaultgripper, outwardgripper)</text>
</g>
<!-- sequence:
 change_tool(left_hand, defaultgripper, outwardgripper)&#45;&gt;action:
 change_tool(left_hand, defaultgripper, outwardgripper) -->
<g id="edge8" class="edge">
<title>sequence:
 change_tool(left_hand, defaultgripper, outwardgripper)&#45;&gt;action:
 change_tool(left_hand, defaultgripper, outwardgripper)</title>
<path fill="none" stroke="black" d="M848.5,-113.77C925.98,-99.72 1026.01,-81.59 1110.59,-66.26"/>
<polygon fill="black" stroke="black" points="1111.34,-69.68 1120.56,-64.45 1110.09,-62.79 1111.34,-69.68"/>
</g>
</g>
</svg>
