<?xml version="1.0" encoding="UTF-8" standalone="no"?>
<!DOCTYPE svg PUBLIC "-//W3C//DTD SVG 1.1//EN"
 "http://www.w3.org/Graphics/SVG/1.1/DTD/svg11.dtd">
<!-- Generated by graphviz version 2.43.0 (0)
 -->
<!-- Title: pastafarianism Pages: 1 -->
<svg width="4854pt" height="929pt"
 viewBox="0.00 0.00 4854.21 929.31" xmlns="http://www.w3.org/2000/svg" xmlns:xlink="http://www.w3.org/1999/xlink">
<g id="graph0" class="graph" transform="scale(1 1) rotate(0) translate(4 925.31)">
<title>pastafarianism</title>
<polygon fill="white" stroke="transparent" points="-4,4 -4,-925.31 4850.21,-925.31 4850.21,4 -4,4"/>
<!-- selector:
 insert(left_hand, outwardgripper, gear3, shaft3) -->
<g id="node1" class="node">
<title>selector:
 insert(left_hand, outwardgripper, gear3, shaft3)</title>
<polygon fill="#8deeee" stroke="black" points="2553.56,-869.26 2553.56,-899.89 2349.11,-921.55 2059.98,-921.55 1855.53,-899.89 1855.53,-869.26 2059.98,-847.6 2349.11,-847.6 2553.56,-869.26"/>
<text text-anchor="middle" x="2204.55" y="-890.17" font-family="Times,serif" font-size="18.00">selector:</text>
<text text-anchor="middle" x="2204.55" y="-870.17" font-family="Times,serif" font-size="18.00"> insert(left_hand, outwardgripper, gear3, shaft3)</text>
</g>
<!-- target:
 is_inserted_to(gear3, shaft3) -->
<g id="node2" class="node">
<title>target:
 is_inserted_to(gear3, shaft3)</title>
<ellipse fill="#ffec8b" stroke="black" cx="1982.55" cy="-777.9" rx="198.89" ry="33.88"/>
<text text-anchor="middle" x="1982.55" y="-783.5" font-family="Times,serif" font-size="18.00">target:</text>
<text text-anchor="middle" x="1982.55" y="-763.5" font-family="Times,serif" font-size="18.00"> is_inserted_to(gear3, shaft3)</text>
</g>
<!-- selector:
 insert(left_hand, outwardgripper, gear3, shaft3)&#45;&gt;target:
 is_inserted_to(gear3, shaft3) -->
<g id="edge1" class="edge">
<title>selector:
 insert(left_hand, outwardgripper, gear3, shaft3)&#45;&gt;target:
 is_inserted_to(gear3, shaft3)</title>
<path fill="none" stroke="black" d="M2128.46,-847.7C2105.62,-836.93 2080.59,-825.13 2057.81,-814.38"/>
<polygon fill="black" stroke="black" points="2059.07,-811.11 2048.53,-810.01 2056.08,-817.44 2059.07,-811.11"/>
</g>
<!-- sequence:
 insert(left_hand, outwardgripper, gear3, shaft3) -->
<g id="node3" class="node">
<title>sequence:
 insert(left_hand, outwardgripper, gear3, shaft3)</title>
<polygon fill="#ff7f24" stroke="black" points="2655.55,-801.9 2199.55,-801.9 2199.55,-753.9 2655.55,-753.9 2655.55,-801.9"/>
<text text-anchor="middle" x="2427.55" y="-783.5" font-family="Times,serif" font-size="18.00">sequence:</text>
<text text-anchor="middle" x="2427.55" y="-763.5" font-family="Times,serif" font-size="18.00"> insert(left_hand, outwardgripper, gear3, shaft3)</text>
</g>
<!-- selector:
 insert(left_hand, outwardgripper, gear3, shaft3)&#45;&gt;sequence:
 insert(left_hand, outwardgripper, gear3, shaft3) -->
<g id="edge2" class="edge">
<title>selector:
 insert(left_hand, outwardgripper, gear3, shaft3)&#45;&gt;sequence:
 insert(left_hand, outwardgripper, gear3, shaft3)</title>
<path fill="none" stroke="black" d="M2280.98,-847.7C2309.85,-834.14 2342.22,-818.95 2369.17,-806.3"/>
<polygon fill="black" stroke="black" points="2370.9,-809.35 2378.47,-801.93 2367.93,-803.01 2370.9,-809.35"/>
</g>
<!-- selector:
 change_tool(left_hand, defaultgripper, outwardgripper) -->
<g id="node4" class="node">
<title>selector:
 change_tool(left_hand, defaultgripper, outwardgripper)</title>
<polygon fill="#8deeee" stroke="black" points="1301.09,-655.9 1301.09,-686.53 1067.04,-708.19 736.05,-708.19 502,-686.53 502,-655.9 736.05,-634.24 1067.04,-634.24 1301.09,-655.9"/>
<text text-anchor="middle" x="901.55" y="-676.82" font-family="Times,serif" font-size="18.00">selector:</text>
<text text-anchor="middle" x="901.55" y="-656.82" font-family="Times,serif" font-size="18.00"> change_tool(left_hand, defaultgripper, outwardgripper)</text>
</g>
<!-- sequence:
 insert(left_hand, outwardgripper, gear3, shaft3)&#45;&gt;selector:
 change_tool(left_hand, defaultgripper, outwardgripper) -->
<g id="edge3" class="edge">
<title>sequence:
 insert(left_hand, outwardgripper, gear3, shaft3)&#45;&gt;selector:
 change_tool(left_hand, defaultgripper, outwardgripper)</title>
<path fill="none" stroke="black" d="M2275.41,-753.86C2247.24,-750.13 2218.04,-746.63 2190.55,-743.95 1897.21,-715.46 1565.14,-697.31 1311.51,-686.39"/>
<polygon fill="black" stroke="black" points="1311.53,-682.89 1301.39,-685.96 1311.23,-689.89 1311.53,-682.89"/>
</g>
<!-- selector:
 pick_up(left_hand, outwardgripper, gear3) -->
<g id="node10" class="node">
<title>selector:
 pick_up(left_hand, outwardgripper, gear3)</title>
<polygon fill="#8deeee" stroke="black" points="2403.49,-655.9 2403.49,-686.53 2221.93,-708.19 1965.16,-708.19 1783.6,-686.53 1783.6,-655.9 1965.16,-634.24 2221.93,-634.24 2403.49,-655.9"/>
<text text-anchor="middle" x="2093.55" y="-676.82" font-family="Times,serif" font-size="18.00">selector:</text>
<text text-anchor="middle" x="2093.55" y="-656.82" font-family="Times,serif" font-size="18.00"> pick_up(left_hand, outwardgripper, gear3)</text>
</g>
<!-- sequence:
 insert(left_hand, outwardgripper, gear3, shaft3)&#45;&gt;selector:
 pick_up(left_hand, outwardgripper, gear3) -->
<g id="edge9" class="edge">
<title>sequence:
 insert(left_hand, outwardgripper, gear3, shaft3)&#45;&gt;selector:
 pick_up(left_hand, outwardgripper, gear3)</title>
<path fill="none" stroke="black" d="M2353.84,-753.79C2313.84,-741.26 2263.33,-725.43 2217.48,-711.06"/>
<polygon fill="black" stroke="black" points="2218.36,-707.67 2207.77,-708.02 2216.26,-714.35 2218.36,-707.67"/>
</g>
<!-- selector:
 insert(left_hand, defaultgripper, gear3, shaft3) -->
<g id="node16" class="node">
<title>selector:
 insert(left_hand, defaultgripper, gear3, shaft3)</title>
<polygon fill="#8deeee" stroke="black" points="3103.22,-655.9 3103.22,-686.53 2903.66,-708.19 2621.43,-708.19 2421.87,-686.53 2421.87,-655.9 2621.43,-634.24 2903.66,-634.24 3103.22,-655.9"/>
<text text-anchor="middle" x="2762.55" y="-676.82" font-family="Times,serif" font-size="18.00">selector:</text>
<text text-anchor="middle" x="2762.55" y="-656.82" font-family="Times,serif" font-size="18.00"> insert(left_hand, defaultgripper, gear3, shaft3)</text>
</g>
<!-- sequence:
 insert(left_hand, outwardgripper, gear3, shaft3)&#45;&gt;selector:
 insert(left_hand, defaultgripper, gear3, shaft3) -->
<g id="edge15" class="edge">
<title>sequence:
 insert(left_hand, outwardgripper, gear3, shaft3)&#45;&gt;selector:
 insert(left_hand, defaultgripper, gear3, shaft3)</title>
<path fill="none" stroke="black" d="M2501.48,-753.79C2541.59,-741.26 2592.25,-725.43 2638.24,-711.06"/>
<polygon fill="black" stroke="black" points="2639.48,-714.34 2647.98,-708.02 2637.39,-707.66 2639.48,-714.34"/>
</g>
<!-- action:
 insert(left_hand, outwardgripper, gear3, shaft3) -->
<g id="node32" class="node">
<title>action:
 insert(left_hand, outwardgripper, gear3, shaft3)</title>
<ellipse fill="lightgreen" stroke="black" cx="3443.55" cy="-671.22" rx="322.38" ry="33.88"/>
<text text-anchor="middle" x="3443.55" y="-676.82" font-family="Times,serif" font-size="18.00">action:</text>
<text text-anchor="middle" x="3443.55" y="-656.82" font-family="Times,serif" font-size="18.00"> insert(left_hand, outwardgripper, gear3, shaft3)</text>
</g>
<!-- sequence:
 insert(left_hand, outwardgripper, gear3, shaft3)&#45;&gt;action:
 insert(left_hand, outwardgripper, gear3, shaft3) -->
<g id="edge31" class="edge">
<title>sequence:
 insert(left_hand, outwardgripper, gear3, shaft3)&#45;&gt;action:
 insert(left_hand, outwardgripper, gear3, shaft3)</title>
<path fill="none" stroke="black" d="M2655.92,-754.33C2789.13,-741.06 2960.38,-723.83 3112.55,-707.95 3145.38,-704.53 3180.04,-700.85 3214.07,-697.21"/>
<polygon fill="black" stroke="black" points="3214.56,-700.68 3224.13,-696.13 3213.81,-693.72 3214.56,-700.68"/>
</g>
<!-- target:
 hold(left_hand, outwardgripper) -->
<g id="node5" class="node">
<title>target:
 hold(left_hand, outwardgripper)</title>
<ellipse fill="#ffec8b" stroke="black" cx="401.55" cy="-564.54" rx="221.15" ry="33.88"/>
<text text-anchor="middle" x="401.55" y="-570.14" font-family="Times,serif" font-size="18.00">target:</text>
<text text-anchor="middle" x="401.55" y="-550.14" font-family="Times,serif" font-size="18.00"> hold(left_hand, outwardgripper)</text>
</g>
<!-- selector:
 change_tool(left_hand, defaultgripper, outwardgripper)&#45;&gt;target:
 hold(left_hand, outwardgripper) -->
<g id="edge4" class="edge">
<title>selector:
 change_tool(left_hand, defaultgripper, outwardgripper)&#45;&gt;target:
 hold(left_hand, outwardgripper)</title>
<path fill="none" stroke="black" d="M731.57,-634.63C668.95,-621.52 598.84,-606.84 539.4,-594.4"/>
<polygon fill="black" stroke="black" points="540.09,-590.97 529.58,-592.34 538.65,-597.82 540.09,-590.97"/>
</g>
<!-- sequence:
 change_tool(left_hand, defaultgripper, outwardgripper) -->
<g id="node6" class="node">
<title>sequence:
 change_tool(left_hand, defaultgripper, outwardgripper)</title>
<polygon fill="#ff7f24" stroke="black" points="1162.55,-588.54 640.55,-588.54 640.55,-540.54 1162.55,-540.54 1162.55,-588.54"/>
<text text-anchor="middle" x="901.55" y="-570.14" font-family="Times,serif" font-size="18.00">sequence:</text>
<text text-anchor="middle" x="901.55" y="-550.14" font-family="Times,serif" font-size="18.00"> change_tool(left_hand, defaultgripper, outwardgripper)</text>
</g>
<!-- selector:
 change_tool(left_hand, defaultgripper, outwardgripper)&#45;&gt;sequence:
 change_tool(left_hand, defaultgripper, outwardgripper) -->
<g id="edge5" class="edge">
<title>selector:
 change_tool(left_hand, defaultgripper, outwardgripper)&#45;&gt;sequence:
 change_tool(left_hand, defaultgripper, outwardgripper)</title>
<path fill="none" stroke="black" d="M901.55,-634.19C901.55,-622.81 901.55,-610.28 901.55,-599.08"/>
<polygon fill="black" stroke="black" points="905.05,-598.82 901.55,-588.82 898.05,-598.82 905.05,-598.82"/>
</g>
<!-- precondition:
 hold(left_hand, defaultgripper) -->
<g id="node7" class="node">
<title>precondition:
 hold(left_hand, defaultgripper)</title>
<ellipse fill="#ffec8b" stroke="black" cx="213.55" cy="-457.86" rx="213.59" ry="33.88"/>
<text text-anchor="middle" x="213.55" y="-463.46" font-family="Times,serif" font-size="18.00">precondition:</text>
<text text-anchor="middle" x="213.55" y="-443.46" font-family="Times,serif" font-size="18.00"> hold(left_hand, defaultgripper)</text>
</g>
<!-- sequence:
 change_tool(left_hand, defaultgripper, outwardgripper)&#45;&gt;precondition:
 hold(left_hand, defaultgripper) -->
<g id="edge6" class="edge">
<title>sequence:
 change_tool(left_hand, defaultgripper, outwardgripper)&#45;&gt;precondition:
 hold(left_hand, defaultgripper)</title>
<path fill="none" stroke="black" d="M743.02,-540.51C653.09,-527.32 538.48,-510.32 436.55,-494.6 415.03,-491.28 392.35,-487.72 370.03,-484.18"/>
<polygon fill="black" stroke="black" points="370.58,-480.72 360.15,-482.61 369.48,-487.63 370.58,-480.72"/>
</g>
<!-- precondition:
 is_empty(defaultgripper) -->
<g id="node8" class="node">
<title>precondition:
 is_empty(defaultgripper)</title>
<ellipse fill="#ffec8b" stroke="black" cx="620.55" cy="-457.86" rx="175.23" ry="33.88"/>
<text text-anchor="middle" x="620.55" y="-463.46" font-family="Times,serif" font-size="18.00">precondition:</text>
<text text-anchor="middle" x="620.55" y="-443.46" font-family="Times,serif" font-size="18.00"> is_empty(defaultgripper)</text>
</g>
<!-- sequence:
 change_tool(left_hand, defaultgripper, outwardgripper)&#45;&gt;precondition:
 is_empty(defaultgripper) -->
<g id="edge7" class="edge">
<title>sequence:
 change_tool(left_hand, defaultgripper, outwardgripper)&#45;&gt;precondition:
 is_empty(defaultgripper)</title>
<path fill="none" stroke="black" d="M839.53,-540.44C801.22,-526.16 751.43,-507.62 709.02,-491.82"/>
<polygon fill="black" stroke="black" points="710.12,-488.49 699.53,-488.28 707.68,-495.05 710.12,-488.49"/>
</g>
<!-- action:
 change_tool(left_hand, defaultgripper, outwardgripper) -->
<g id="node9" class="node">
<title>action:
 change_tool(left_hand, defaultgripper, outwardgripper)</title>
<ellipse fill="lightgreen" stroke="black" cx="1182.55" cy="-457.86" rx="369.22" ry="33.88"/>
<text text-anchor="middle" x="1182.55" y="-463.46" font-family="Times,serif" font-size="18.00">action:</text>
<text text-anchor="middle" x="1182.55" y="-443.46" font-family="Times,serif" font-size="18.00"> change_tool(left_hand, defaultgripper, outwardgripper)</text>
</g>
<!-- sequence:
 change_tool(left_hand, defaultgripper, outwardgripper)&#45;&gt;action:
 change_tool(left_hand, defaultgripper, outwardgripper) -->
<g id="edge8" class="edge">
<title>sequence:
 change_tool(left_hand, defaultgripper, outwardgripper)&#45;&gt;action:
 change_tool(left_hand, defaultgripper, outwardgripper)</title>
<path fill="none" stroke="black" d="M963.56,-540.44C999.77,-526.95 1046.23,-509.64 1087.02,-494.44"/>
<polygon fill="black" stroke="black" points="1088.3,-497.7 1096.45,-490.93 1085.85,-491.15 1088.3,-497.7"/>
</g>
<!-- target:
 hold(outwardgripper, gear3) -->
<g id="node11" class="node">
<title>target:
 hold(outwardgripper, gear3)</title>
<ellipse fill="#ffec8b" stroke="black" cx="1795.55" cy="-564.54" rx="196.65" ry="33.88"/>
<text text-anchor="middle" x="1795.55" y="-570.14" font-family="Times,serif" font-size="18.00">target:</text>
<text text-anchor="middle" x="1795.55" y="-550.14" font-family="Times,serif" font-size="18.00"> hold(outwardgripper, gear3)</text>
</g>
<!-- selector:
 pick_up(left_hand, outwardgripper, gear3)&#45;&gt;target:
 hold(outwardgripper, gear3) -->
<g id="edge10" class="edge">
<title>selector:
 pick_up(left_hand, outwardgripper, gear3)&#45;&gt;target:
 hold(outwardgripper, gear3)</title>
<path fill="none" stroke="black" d="M1991.41,-634.34C1958.44,-622.76 1922.06,-609.98 1889.7,-598.61"/>
<polygon fill="black" stroke="black" points="1890.83,-595.3 1880.23,-595.29 1888.51,-601.9 1890.83,-595.3"/>
</g>
<!-- sequence:
 pick_up(left_hand, outwardgripper, gear3) -->
<g id="node12" class="node">
<title>sequence:
 pick_up(left_hand, outwardgripper, gear3)</title>
<polygon fill="#ff7f24" stroke="black" points="2415.05,-588.54 2010.05,-588.54 2010.05,-540.54 2415.05,-540.54 2415.05,-588.54"/>
<text text-anchor="middle" x="2212.55" y="-570.14" font-family="Times,serif" font-size="18.00">sequence:</text>
<text text-anchor="middle" x="2212.55" y="-550.14" font-family="Times,serif" font-size="18.00"> pick_up(left_hand, outwardgripper, gear3)</text>
</g>
<!-- selector:
 pick_up(left_hand, outwardgripper, gear3)&#45;&gt;sequence:
 pick_up(left_hand, outwardgripper, gear3) -->
<g id="edge11" class="edge">
<title>selector:
 pick_up(left_hand, outwardgripper, gear3)&#45;&gt;sequence:
 pick_up(left_hand, outwardgripper, gear3)</title>
<path fill="none" stroke="black" d="M2134.5,-634.19C2148.77,-621.64 2164.63,-607.69 2178.3,-595.66"/>
<polygon fill="black" stroke="black" points="2180.88,-598.06 2186.07,-588.82 2176.25,-592.8 2180.88,-598.06"/>
</g>
<!-- precondition:
 hold(left_hand, outwardgripper) -->
<g id="node13" class="node">
<title>precondition:
 hold(left_hand, outwardgripper)</title>
<ellipse fill="#ffec8b" stroke="black" cx="1790.55" cy="-457.86" rx="221.15" ry="33.88"/>
<text text-anchor="middle" x="1790.55" y="-463.46" font-family="Times,serif" font-size="18.00">precondition:</text>
<text text-anchor="middle" x="1790.55" y="-443.46" font-family="Times,serif" font-size="18.00"> hold(left_hand, outwardgripper)</text>
</g>
<!-- sequence:
 pick_up(left_hand, outwardgripper, gear3)&#45;&gt;precondition:
 hold(left_hand, outwardgripper) -->
<g id="edge12" class="edge">
<title>sequence:
 pick_up(left_hand, outwardgripper, gear3)&#45;&gt;precondition:
 hold(left_hand, outwardgripper)</title>
<path fill="none" stroke="black" d="M2119.68,-540.5C2059.31,-525.53 1979.92,-505.84 1914.24,-489.54"/>
<polygon fill="black" stroke="black" points="1914.79,-486.07 1904.24,-487.06 1913.1,-492.87 1914.79,-486.07"/>
</g>
<!-- precondition:
 is_empty(outwardgripper) -->
<g id="node14" class="node">
<title>precondition:
 is_empty(outwardgripper)</title>
<ellipse fill="#ffec8b" stroke="black" cx="2212.55" cy="-457.86" rx="183.28" ry="33.88"/>
<text text-anchor="middle" x="2212.55" y="-463.46" font-family="Times,serif" font-size="18.00">precondition:</text>
<text text-anchor="middle" x="2212.55" y="-443.46" font-family="Times,serif" font-size="18.00"> is_empty(outwardgripper)</text>
</g>
<!-- sequence:
 pick_up(left_hand, outwardgripper, gear3)&#45;&gt;precondition:
 is_empty(outwardgripper) -->
<g id="edge13" class="edge">
<title>sequence:
 pick_up(left_hand, outwardgripper, gear3)&#45;&gt;precondition:
 is_empty(outwardgripper)</title>
<path fill="none" stroke="black" d="M2212.55,-540.31C2212.55,-529.09 2212.55,-515.26 2212.55,-502.2"/>
<polygon fill="black" stroke="black" points="2216.05,-501.95 2212.55,-491.95 2209.05,-501.95 2216.05,-501.95"/>
</g>
<!-- action:
 pick_up(left_hand, outwardgripper, gear3) -->
<g id="node15" class="node">
<title>action:
 pick_up(left_hand, outwardgripper, gear3)</title>
<ellipse fill="lightgreen" stroke="black" cx="2700.55" cy="-457.86" rx="286.26" ry="33.88"/>
<text text-anchor="middle" x="2700.55" y="-463.46" font-family="Times,serif" font-size="18.00">action:</text>
<text text-anchor="middle" x="2700.55" y="-443.46" font-family="Times,serif" font-size="18.00"> pick_up(left_hand, outwardgripper, gear3)</text>
</g>
<!-- sequence:
 pick_up(left_hand, outwardgripper, gear3)&#45;&gt;action:
 pick_up(left_hand, outwardgripper, gear3) -->
<g id="edge14" class="edge">
<title>sequence:
 pick_up(left_hand, outwardgripper, gear3)&#45;&gt;action:
 pick_up(left_hand, outwardgripper, gear3)</title>
<path fill="none" stroke="black" d="M2319.94,-540.5C2389.1,-525.67 2479.86,-506.2 2555.4,-489.99"/>
<polygon fill="black" stroke="black" points="2556.44,-493.35 2565.48,-487.83 2554.97,-486.51 2556.44,-493.35"/>
</g>
<!-- &quot;target:\n is_inserted_to(gear3, shaft3)&quot;* -->
<g id="node17" class="node">
<title>&quot;target:\n is_inserted_to(gear3, shaft3)&quot;*</title>
<ellipse fill="#ffec8b" stroke="black" cx="2762.55" cy="-564.54" rx="211.35" ry="33.88"/>
<text text-anchor="middle" x="2762.55" y="-570.14" font-family="Times,serif" font-size="18.00">&quot;target:</text>
<text text-anchor="middle" x="2762.55" y="-550.14" font-family="Times,serif" font-size="18.00"> is_inserted_to(gear3, shaft3)&quot;*</text>
</g>
<!-- selector:
 insert(left_hand, defaultgripper, gear3, shaft3)&#45;&gt;&quot;target:\n is_inserted_to(gear3, shaft3)&quot;* -->
<g id="edge16" class="edge">
<title>selector:
 insert(left_hand, defaultgripper, gear3, shaft3)&#45;&gt;&quot;target:\n is_inserted_to(gear3, shaft3)&quot;*</title>
<path fill="none" stroke="black" d="M2762.55,-634.19C2762.55,-626.04 2762.55,-617.29 2762.55,-608.87"/>
<polygon fill="black" stroke="black" points="2766.05,-608.81 2762.55,-598.81 2759.05,-608.81 2766.05,-608.81"/>
</g>
<!-- sequence:
 insert(left_hand, defaultgripper, gear3, shaft3) -->
<g id="node18" class="node">
<title>sequence:
 insert(left_hand, defaultgripper, gear3, shaft3)</title>
<polygon fill="#ff7f24" stroke="black" points="3930.05,-588.54 3485.05,-588.54 3485.05,-540.54 3930.05,-540.54 3930.05,-588.54"/>
<text text-anchor="middle" x="3707.55" y="-570.14" font-family="Times,serif" font-size="18.00">sequence:</text>
<text text-anchor="middle" x="3707.55" y="-550.14" font-family="Times,serif" font-size="18.00"> insert(left_hand, defaultgripper, gear3, shaft3)</text>
</g>
<!-- selector:
 insert(left_hand, defaultgripper, gear3, shaft3)&#45;&gt;sequence:
 insert(left_hand, defaultgripper, gear3, shaft3) -->
<g id="edge17" class="edge">
<title>selector:
 insert(left_hand, defaultgripper, gear3, shaft3)&#45;&gt;sequence:
 insert(left_hand, defaultgripper, gear3, shaft3)</title>
<path fill="none" stroke="black" d="M2996.45,-644.31C3147.25,-627.6 3342.03,-606.03 3489.59,-589.68"/>
<polygon fill="black" stroke="black" points="3490.13,-593.14 3499.68,-588.56 3489.36,-586.19 3490.13,-593.14"/>
</g>
<!-- selector:
 change_tool(left_hand, outwardgripper, defaultgripper) -->
<g id="node19" class="node">
<title>selector:
 change_tool(left_hand, outwardgripper, defaultgripper)</title>
<polygon fill="#8deeee" stroke="black" points="3804.09,-442.54 3804.09,-473.18 3570.04,-494.84 3239.05,-494.84 3005,-473.18 3005,-442.54 3239.05,-420.88 3570.04,-420.88 3804.09,-442.54"/>
<text text-anchor="middle" x="3404.55" y="-463.46" font-family="Times,serif" font-size="18.00">selector:</text>
<text text-anchor="middle" x="3404.55" y="-443.46" font-family="Times,serif" font-size="18.00"> change_tool(left_hand, outwardgripper, defaultgripper)</text>
</g>
<!-- sequence:
 insert(left_hand, defaultgripper, gear3, shaft3)&#45;&gt;selector:
 change_tool(left_hand, outwardgripper, defaultgripper) -->
<g id="edge18" class="edge">
<title>sequence:
 insert(left_hand, defaultgripper, gear3, shaft3)&#45;&gt;selector:
 change_tool(left_hand, outwardgripper, defaultgripper)</title>
<path fill="none" stroke="black" d="M3640.68,-540.44C3604.62,-527.98 3559.15,-512.27 3517.76,-497.97"/>
<polygon fill="black" stroke="black" points="3518.76,-494.62 3508.17,-494.66 3516.48,-501.23 3518.76,-494.62"/>
</g>
<!-- precondition:
 hold(defaultgripper, gear3) -->
<g id="node30" class="node">
<title>precondition:
 hold(defaultgripper, gear3)</title>
<ellipse fill="#ffec8b" stroke="black" cx="4010.55" cy="-457.86" rx="188.6" ry="33.88"/>
<text text-anchor="middle" x="4010.55" y="-463.46" font-family="Times,serif" font-size="18.00">precondition:</text>
<text text-anchor="middle" x="4010.55" y="-443.46" font-family="Times,serif" font-size="18.00"> hold(defaultgripper, gear3)</text>
</g>
<!-- sequence:
 insert(left_hand, defaultgripper, gear3, shaft3)&#45;&gt;precondition:
 hold(defaultgripper, gear3) -->
<g id="edge29" class="edge">
<title>sequence:
 insert(left_hand, defaultgripper, gear3, shaft3)&#45;&gt;precondition:
 hold(defaultgripper, gear3)</title>
<path fill="none" stroke="black" d="M3774.42,-540.44C3815.99,-526.07 3870.08,-507.39 3915.99,-491.52"/>
<polygon fill="black" stroke="black" points="3917.35,-494.76 3925.66,-488.18 3915.07,-488.14 3917.35,-494.76"/>
</g>
<!-- action:
 insert(left_hand, defaultgripper, gear3, shaft3) -->
<g id="node31" class="node">
<title>action:
 insert(left_hand, defaultgripper, gear3, shaft3)</title>
<ellipse fill="lightgreen" stroke="black" cx="4531.55" cy="-457.86" rx="314.83" ry="33.88"/>
<text text-anchor="middle" x="4531.55" y="-463.46" font-family="Times,serif" font-size="18.00">action:</text>
<text text-anchor="middle" x="4531.55" y="-443.46" font-family="Times,serif" font-size="18.00"> insert(left_hand, defaultgripper, gear3, shaft3)</text>
</g>
<!-- sequence:
 insert(left_hand, defaultgripper, gear3, shaft3)&#45;&gt;action:
 insert(left_hand, defaultgripper, gear3, shaft3) -->
<g id="edge30" class="edge">
<title>sequence:
 insert(left_hand, defaultgripper, gear3, shaft3)&#45;&gt;action:
 insert(left_hand, defaultgripper, gear3, shaft3)</title>
<path fill="none" stroke="black" d="M3888.63,-540.53C4016.55,-524.28 4188.34,-502.46 4322.16,-485.46"/>
<polygon fill="black" stroke="black" points="4322.65,-488.92 4332.13,-484.19 4321.77,-481.98 4322.65,-488.92"/>
</g>
<!-- target:
 hold(left_hand, defaultgripper) -->
<g id="node20" class="node">
<title>target:
 hold(left_hand, defaultgripper)</title>
<ellipse fill="#ffec8b" stroke="black" cx="3157.55" cy="-351.18" rx="213.59" ry="33.88"/>
<text text-anchor="middle" x="3157.55" y="-356.78" font-family="Times,serif" font-size="18.00">target:</text>
<text text-anchor="middle" x="3157.55" y="-336.78" font-family="Times,serif" font-size="18.00"> hold(left_hand, defaultgripper)</text>
</g>
<!-- selector:
 change_tool(left_hand, outwardgripper, defaultgripper)&#45;&gt;target:
 hold(left_hand, defaultgripper) -->
<g id="edge19" class="edge">
<title>selector:
 change_tool(left_hand, outwardgripper, defaultgripper)&#45;&gt;target:
 hold(left_hand, defaultgripper)</title>
<path fill="none" stroke="black" d="M3319.89,-420.98C3294.02,-410.02 3265.62,-397.98 3239.9,-387.08"/>
<polygon fill="black" stroke="black" points="3241.13,-383.8 3230.56,-383.12 3238.4,-390.25 3241.13,-383.8"/>
</g>
<!-- sequence:
 change_tool(left_hand, outwardgripper, defaultgripper) -->
<g id="node21" class="node">
<title>sequence:
 change_tool(left_hand, outwardgripper, defaultgripper)</title>
<polygon fill="#ff7f24" stroke="black" points="3911.55,-375.18 3389.55,-375.18 3389.55,-327.18 3911.55,-327.18 3911.55,-375.18"/>
<text text-anchor="middle" x="3650.55" y="-356.78" font-family="Times,serif" font-size="18.00">sequence:</text>
<text text-anchor="middle" x="3650.55" y="-336.78" font-family="Times,serif" font-size="18.00"> change_tool(left_hand, outwardgripper, defaultgripper)</text>
</g>
<!-- selector:
 change_tool(left_hand, outwardgripper, defaultgripper)&#45;&gt;sequence:
 change_tool(left_hand, outwardgripper, defaultgripper) -->
<g id="edge20" class="edge">
<title>selector:
 change_tool(left_hand, outwardgripper, defaultgripper)&#45;&gt;sequence:
 change_tool(left_hand, outwardgripper, defaultgripper)</title>
<path fill="none" stroke="black" d="M3488.86,-420.98C3520.99,-407.31 3557.04,-391.97 3586.93,-379.25"/>
<polygon fill="black" stroke="black" points="3588.58,-382.35 3596.41,-375.22 3585.84,-375.91 3588.58,-382.35"/>
</g>
<!-- &quot;precondition:\n hold(left_hand, outwardgripper)&quot;* -->
<g id="node22" class="node">
<title>&quot;precondition:\n hold(left_hand, outwardgripper)&quot;*</title>
<ellipse fill="#ffec8b" stroke="black" cx="3075.55" cy="-244.5" rx="233.19" ry="33.88"/>
<text text-anchor="middle" x="3075.55" y="-250.1" font-family="Times,serif" font-size="18.00">&quot;precondition:</text>
<text text-anchor="middle" x="3075.55" y="-230.1" font-family="Times,serif" font-size="18.00"> hold(left_hand, outwardgripper)&quot;*</text>
</g>
<!-- sequence:
 change_tool(left_hand, outwardgripper, defaultgripper)&#45;&gt;&quot;precondition:\n hold(left_hand, outwardgripper)&quot;* -->
<g id="edge21" class="edge">
<title>sequence:
 change_tool(left_hand, outwardgripper, defaultgripper)&#45;&gt;&quot;precondition:\n hold(left_hand, outwardgripper)&quot;*</title>
<path fill="none" stroke="black" d="M3524,-327.14C3436.75,-311.26 3320.31,-290.06 3227.95,-273.25"/>
<polygon fill="black" stroke="black" points="3228.41,-269.77 3217.95,-271.43 3227.16,-276.66 3228.41,-269.77"/>
</g>
<!-- selector:
 put_down(left_hand, outwardgripper, gear3) -->
<g id="node23" class="node">
<title>selector:
 put_down(left_hand, outwardgripper, gear3)</title>
<polygon fill="#8deeee" stroke="black" points="3974.05,-229.19 3974.05,-259.82 3784.54,-281.48 3516.55,-281.48 3327.05,-259.82 3327.05,-229.19 3516.55,-207.53 3784.54,-207.53 3974.05,-229.19"/>
<text text-anchor="middle" x="3650.55" y="-250.1" font-family="Times,serif" font-size="18.00">selector:</text>
<text text-anchor="middle" x="3650.55" y="-230.1" font-family="Times,serif" font-size="18.00"> put_down(left_hand, outwardgripper, gear3)</text>
</g>
<!-- sequence:
 change_tool(left_hand, outwardgripper, defaultgripper)&#45;&gt;selector:
 put_down(left_hand, outwardgripper, gear3) -->
<g id="edge22" class="edge">
<title>sequence:
 change_tool(left_hand, outwardgripper, defaultgripper)&#45;&gt;selector:
 put_down(left_hand, outwardgripper, gear3)</title>
<path fill="none" stroke="black" d="M3650.55,-326.95C3650.55,-316.5 3650.55,-303.79 3650.55,-291.54"/>
<polygon fill="black" stroke="black" points="3654.05,-291.42 3650.55,-281.42 3647.05,-291.42 3654.05,-291.42"/>
</g>
<!-- action:
 change_tool(left_hand, outwardgripper, defaultgripper) -->
<g id="node29" class="node">
<title>action:
 change_tool(left_hand, outwardgripper, defaultgripper)</title>
<ellipse fill="lightgreen" stroke="black" cx="4361.55" cy="-244.5" rx="369.22" ry="33.88"/>
<text text-anchor="middle" x="4361.55" y="-250.1" font-family="Times,serif" font-size="18.00">action:</text>
<text text-anchor="middle" x="4361.55" y="-230.1" font-family="Times,serif" font-size="18.00"> change_tool(left_hand, outwardgripper, defaultgripper)</text>
</g>
<!-- sequence:
 change_tool(left_hand, outwardgripper, defaultgripper)&#45;&gt;action:
 change_tool(left_hand, outwardgripper, defaultgripper) -->
<g id="edge28" class="edge">
<title>sequence:
 change_tool(left_hand, outwardgripper, defaultgripper)&#45;&gt;action:
 change_tool(left_hand, outwardgripper, defaultgripper)</title>
<path fill="none" stroke="black" d="M3807.02,-327.14C3911,-311.83 4048.51,-291.59 4160.57,-275.09"/>
<polygon fill="black" stroke="black" points="4161.26,-278.53 4170.65,-273.61 4160.24,-271.6 4161.26,-278.53"/>
</g>
<!-- target:
 is_empty(outwardgripper) -->
<g id="node24" class="node">
<title>target:
 is_empty(outwardgripper)</title>
<ellipse fill="#ffec8b" stroke="black" cx="3443.55" cy="-137.82" rx="183.28" ry="33.88"/>
<text text-anchor="middle" x="3443.55" y="-143.42" font-family="Times,serif" font-size="18.00">target:</text>
<text text-anchor="middle" x="3443.55" y="-123.42" font-family="Times,serif" font-size="18.00"> is_empty(outwardgripper)</text>
</g>
<!-- selector:
 put_down(left_hand, outwardgripper, gear3)&#45;&gt;target:
 is_empty(outwardgripper) -->
<g id="edge23" class="edge">
<title>selector:
 put_down(left_hand, outwardgripper, gear3)&#45;&gt;target:
 is_empty(outwardgripper)</title>
<path fill="none" stroke="black" d="M3579.6,-207.62C3558.4,-196.9 3535.17,-185.16 3514.01,-174.45"/>
<polygon fill="black" stroke="black" points="3515.58,-171.33 3505.07,-169.94 3512.42,-177.57 3515.58,-171.33"/>
</g>
<!-- sequence:
 put_down(left_hand, outwardgripper, gear3) -->
<g id="node25" class="node">
<title>sequence:
 put_down(left_hand, outwardgripper, gear3)</title>
<polygon fill="#ff7f24" stroke="black" points="4068.05,-161.82 3645.05,-161.82 3645.05,-113.82 4068.05,-113.82 4068.05,-161.82"/>
<text text-anchor="middle" x="3856.55" y="-143.42" font-family="Times,serif" font-size="18.00">sequence:</text>
<text text-anchor="middle" x="3856.55" y="-123.42" font-family="Times,serif" font-size="18.00"> put_down(left_hand, outwardgripper, gear3)</text>
</g>
<!-- selector:
 put_down(left_hand, outwardgripper, gear3)&#45;&gt;sequence:
 put_down(left_hand, outwardgripper, gear3) -->
<g id="edge24" class="edge">
<title>selector:
 put_down(left_hand, outwardgripper, gear3)&#45;&gt;sequence:
 put_down(left_hand, outwardgripper, gear3)</title>
<path fill="none" stroke="black" d="M3721.15,-207.62C3747.59,-194.19 3777.2,-179.14 3801.97,-166.56"/>
<polygon fill="black" stroke="black" points="3803.88,-169.51 3811.21,-161.86 3800.71,-163.27 3803.88,-169.51"/>
</g>
<!-- &quot;precondition:\n hold(left_hand, outwardgripper)&quot;** -->
<g id="node26" class="node">
<title>&quot;precondition:\n hold(left_hand, outwardgripper)&quot;**</title>
<ellipse fill="#ffec8b" stroke="black" cx="3402.55" cy="-33.94" rx="239.92" ry="33.88"/>
<text text-anchor="middle" x="3402.55" y="-39.54" font-family="Times,serif" font-size="18.00">&quot;precondition:</text>
<text text-anchor="middle" x="3402.55" y="-19.54" font-family="Times,serif" font-size="18.00"> hold(left_hand, outwardgripper)&quot;**</text>
</g>
<!-- sequence:
 put_down(left_hand, outwardgripper, gear3)&#45;&gt;&quot;precondition:\n hold(left_hand, outwardgripper)&quot;** -->
<g id="edge25" class="edge">
<title>sequence:
 put_down(left_hand, outwardgripper, gear3)&#45;&gt;&quot;precondition:\n hold(left_hand, outwardgripper)&quot;**</title>
<path fill="none" stroke="black" d="M3753.81,-113.77C3689.86,-99.42 3606.89,-80.8 3537.65,-65.26"/>
<polygon fill="black" stroke="black" points="3538.06,-61.77 3527.54,-62.99 3536.53,-68.6 3538.06,-61.77"/>
</g>
<!-- precondition:
 hold(outwardgripper, gear3) -->
<g id="node27" class="node">
<title>precondition:
 hold(outwardgripper, gear3)</title>
<ellipse fill="#ffec8b" stroke="black" cx="3856.55" cy="-33.94" rx="196.65" ry="33.88"/>
<text text-anchor="middle" x="3856.55" y="-39.54" font-family="Times,serif" font-size="18.00">precondition:</text>
<text text-anchor="middle" x="3856.55" y="-19.54" font-family="Times,serif" font-size="18.00"> hold(outwardgripper, gear3)</text>
</g>
<!-- sequence:
 put_down(left_hand, outwardgripper, gear3)&#45;&gt;precondition:
 hold(outwardgripper, gear3) -->
<g id="edge26" class="edge">
<title>sequence:
 put_down(left_hand, outwardgripper, gear3)&#45;&gt;precondition:
 hold(outwardgripper, gear3)</title>
<path fill="none" stroke="black" d="M3856.55,-113.7C3856.55,-103.16 3856.55,-90.31 3856.55,-78.08"/>
<polygon fill="black" stroke="black" points="3860.05,-78.01 3856.55,-68.01 3853.05,-78.01 3860.05,-78.01"/>
</g>
<!-- action:
 put_down(left_hand, outwardgripper, gear3) -->
<g id="node28" class="node">
<title>action:
 put_down(left_hand, outwardgripper, gear3)</title>
<ellipse fill="lightgreen" stroke="black" cx="4370.55" cy="-33.94" rx="299.21" ry="33.88"/>
<text text-anchor="middle" x="4370.55" y="-39.54" font-family="Times,serif" font-size="18.00">action:</text>
<text text-anchor="middle" x="4370.55" y="-19.54" font-family="Times,serif" font-size="18.00"> put_down(left_hand, outwardgripper, gear3)</text>
</g>
<!-- sequence:
 put_down(left_hand, outwardgripper, gear3)&#45;&gt;action:
 put_down(left_hand, outwardgripper, gear3) -->
<g id="edge27" class="edge">
<title>sequence:
 put_down(left_hand, outwardgripper, gear3)&#45;&gt;action:
 put_down(left_hand, outwardgripper, gear3)</title>
<path fill="none" stroke="black" d="M3972.86,-113.77C4044.71,-99.53 4137.77,-81.08 4215.8,-65.61"/>
<polygon fill="black" stroke="black" points="4216.6,-69.02 4225.73,-63.65 4215.24,-62.16 4216.6,-69.02"/>
</g>
</g>
</svg>
