<?xml version="1.0" encoding="UTF-8" standalone="no"?>
<!DOCTYPE svg PUBLIC "-//W3C//DTD SVG 1.1//EN"
 "http://www.w3.org/Graphics/SVG/1.1/DTD/svg11.dtd">
<!-- Generated by graphviz version 2.43.0 (0)
 -->
<!-- Title: pastafarianism Pages: 1 -->
<svg width="1934pt" height="289pt"
 viewBox="0.00 0.00 1933.77 289.24" xmlns="http://www.w3.org/2000/svg" xmlns:xlink="http://www.w3.org/1999/xlink">
<g id="graph0" class="graph" transform="scale(1 1) rotate(0) translate(4 285.24)">
<title>pastafarianism</title>
<polygon fill="white" stroke="transparent" points="-4,4 -4,-285.24 1929.77,-285.24 1929.77,4 -4,4"/>
<!-- selector:
 insert(left_hand, outwardgripper, gear3, shaft3) -->
<g id="node1" class="node">
<title>selector:
 insert(left_hand, outwardgripper, gear3, shaft3)</title>
<polygon fill="#8deeee" stroke="black" points="988.34,-229.19 988.34,-259.82 783.89,-281.48 494.76,-281.48 290.31,-259.82 290.31,-229.19 494.76,-207.53 783.89,-207.53 988.34,-229.19"/>
<text text-anchor="middle" x="639.32" y="-250.1" font-family="Times,serif" font-size="18.00">selector:</text>
<text text-anchor="middle" x="639.32" y="-230.1" font-family="Times,serif" font-size="18.00"> insert(left_hand, outwardgripper, gear3, shaft3)</text>
</g>
<!-- target:
 is_inserted_to(gear3, shaft3) -->
<g id="node2" class="node">
<title>target:
 is_inserted_to(gear3, shaft3)</title>
<ellipse fill="#ffec8b" stroke="black" cx="417.32" cy="-137.82" rx="198.89" ry="33.88"/>
<text text-anchor="middle" x="417.32" y="-143.42" font-family="Times,serif" font-size="18.00">target:</text>
<text text-anchor="middle" x="417.32" y="-123.42" font-family="Times,serif" font-size="18.00"> is_inserted_to(gear3, shaft3)</text>
</g>
<!-- selector:
 insert(left_hand, outwardgripper, gear3, shaft3)&#45;&gt;target:
 is_inserted_to(gear3, shaft3) -->
<g id="edge1" class="edge">
<title>selector:
 insert(left_hand, outwardgripper, gear3, shaft3)&#45;&gt;target:
 is_inserted_to(gear3, shaft3)</title>
<path fill="none" stroke="black" d="M563.24,-207.62C540.4,-196.86 515.37,-185.05 492.59,-174.31"/>
<polygon fill="black" stroke="black" points="493.85,-171.04 483.31,-169.94 490.86,-177.37 493.85,-171.04"/>
</g>
<!-- sequence:
 insert(left_hand, outwardgripper, gear3, shaft3) -->
<g id="node3" class="node">
<title>sequence:
 insert(left_hand, outwardgripper, gear3, shaft3)</title>
<polygon fill="#ff7f24" stroke="black" points="1090.32,-161.82 634.32,-161.82 634.32,-113.82 1090.32,-113.82 1090.32,-161.82"/>
<text text-anchor="middle" x="862.32" y="-143.42" font-family="Times,serif" font-size="18.00">sequence:</text>
<text text-anchor="middle" x="862.32" y="-123.42" font-family="Times,serif" font-size="18.00"> insert(left_hand, outwardgripper, gear3, shaft3)</text>
</g>
<!-- selector:
 insert(left_hand, outwardgripper, gear3, shaft3)&#45;&gt;sequence:
 insert(left_hand, outwardgripper, gear3, shaft3) -->
<g id="edge2" class="edge">
<title>selector:
 insert(left_hand, outwardgripper, gear3, shaft3)&#45;&gt;sequence:
 insert(left_hand, outwardgripper, gear3, shaft3)</title>
<path fill="none" stroke="black" d="M715.76,-207.62C744.63,-194.07 776.99,-178.88 803.95,-166.22"/>
<polygon fill="black" stroke="black" points="805.68,-169.28 813.25,-161.86 802.71,-162.94 805.68,-169.28"/>
</g>
<!-- precondition:
 hold(left_hand, outwardgripper) -->
<g id="node4" class="node">
<title>precondition:
 hold(left_hand, outwardgripper)</title>
<ellipse fill="#ffec8b" stroke="black" cx="221.32" cy="-33.94" rx="221.15" ry="33.88"/>
<text text-anchor="middle" x="221.32" y="-39.54" font-family="Times,serif" font-size="18.00">precondition:</text>
<text text-anchor="middle" x="221.32" y="-19.54" font-family="Times,serif" font-size="18.00"> hold(left_hand, outwardgripper)</text>
</g>
<!-- sequence:
 insert(left_hand, outwardgripper, gear3, shaft3)&#45;&gt;precondition:
 hold(left_hand, outwardgripper) -->
<g id="edge3" class="edge">
<title>sequence:
 insert(left_hand, outwardgripper, gear3, shaft3)&#45;&gt;precondition:
 hold(left_hand, outwardgripper)</title>
<path fill="none" stroke="black" d="M717.27,-113.77C617.55,-97.92 485.08,-76.86 382.14,-60.5"/>
<polygon fill="black" stroke="black" points="382.38,-57 371.95,-58.88 381.28,-63.91 382.38,-57"/>
</g>
<!-- precondition:
 hold(outwardgripper, gear3) -->
<g id="node5" class="node">
<title>precondition:
 hold(outwardgripper, gear3)</title>
<ellipse fill="#ffec8b" stroke="black" cx="657.32" cy="-33.94" rx="196.65" ry="33.88"/>
<text text-anchor="middle" x="657.32" y="-39.54" font-family="Times,serif" font-size="18.00">precondition:</text>
<text text-anchor="middle" x="657.32" y="-19.54" font-family="Times,serif" font-size="18.00"> hold(outwardgripper, gear3)</text>
</g>
<!-- sequence:
 insert(left_hand, outwardgripper, gear3, shaft3)&#45;&gt;precondition:
 hold(outwardgripper, gear3) -->
<g id="edge4" class="edge">
<title>sequence:
 insert(left_hand, outwardgripper, gear3, shaft3)&#45;&gt;precondition:
 hold(outwardgripper, gear3)</title>
<path fill="none" stroke="black" d="M815.81,-113.7C790.33,-101.04 758.2,-85.07 729.54,-70.83"/>
<polygon fill="black" stroke="black" points="730.88,-67.59 720.37,-66.27 727.76,-73.86 730.88,-67.59"/>
</g>
<!-- precondition:
 can_insert_to(gear3, shaft3) -->
<g id="node6" class="node">
<title>precondition:
 can_insert_to(gear3, shaft3)</title>
<ellipse fill="#ffec8b" stroke="black" cx="1067.32" cy="-33.94" rx="195.32" ry="33.88"/>
<text text-anchor="middle" x="1067.32" y="-39.54" font-family="Times,serif" font-size="18.00">precondition:</text>
<text text-anchor="middle" x="1067.32" y="-19.54" font-family="Times,serif" font-size="18.00"> can_insert_to(gear3, shaft3)</text>
</g>
<!-- sequence:
 insert(left_hand, outwardgripper, gear3, shaft3)&#45;&gt;precondition:
 can_insert_to(gear3, shaft3) -->
<g id="edge5" class="edge">
<title>sequence:
 insert(left_hand, outwardgripper, gear3, shaft3)&#45;&gt;precondition:
 can_insert_to(gear3, shaft3)</title>
<path fill="none" stroke="black" d="M908.84,-113.7C934.32,-101.04 966.45,-85.07 995.11,-70.83"/>
<polygon fill="black" stroke="black" points="996.89,-73.86 1004.28,-66.27 993.77,-67.59 996.89,-73.86"/>
</g>
<!-- action:
 insert(left_hand, outwardgripper, gear3, shaft3) -->
<g id="node7" class="node">
<title>action:
 insert(left_hand, outwardgripper, gear3, shaft3)</title>
<ellipse fill="lightgreen" stroke="black" cx="1603.32" cy="-33.94" rx="322.38" ry="33.88"/>
<text text-anchor="middle" x="1603.32" y="-39.54" font-family="Times,serif" font-size="18.00">action:</text>
<text text-anchor="middle" x="1603.32" y="-19.54" font-family="Times,serif" font-size="18.00"> insert(left_hand, outwardgripper, gear3, shaft3)</text>
</g>
<!-- sequence:
 insert(left_hand, outwardgripper, gear3, shaft3)&#45;&gt;action:
 insert(left_hand, outwardgripper, gear3, shaft3) -->
<g id="edge6" class="edge">
<title>sequence:
 insert(left_hand, outwardgripper, gear3, shaft3)&#45;&gt;action:
 insert(left_hand, outwardgripper, gear3, shaft3)</title>
<path fill="none" stroke="black" d="M1030.01,-113.77C1140.25,-98.61 1285.12,-78.69 1401.65,-62.67"/>
<polygon fill="black" stroke="black" points="1402.34,-66.11 1411.77,-61.28 1401.38,-59.17 1402.34,-66.11"/>
</g>
</g>
</svg>
