<?xml version="1.0" encoding="UTF-8" standalone="no"?>
<!DOCTYPE svg PUBLIC "-//W3C//DTD SVG 1.1//EN"
 "http://www.w3.org/Graphics/SVG/1.1/DTD/svg11.dtd">
<!-- Generated by graphviz version 2.43.0 (0)
 -->
<!-- Title: pastafarianism Pages: 1 -->
<svg width="4506pt" height="503pt"
 viewBox="0.00 0.00 4506.21 502.60" xmlns="http://www.w3.org/2000/svg" xmlns:xlink="http://www.w3.org/1999/xlink">
<g id="graph0" class="graph" transform="scale(1 1) rotate(0) translate(4 498.6)">
<title>pastafarianism</title>
<polygon fill="white" stroke="transparent" points="-4,4 -4,-498.6 4502.21,-498.6 4502.21,4 -4,4"/>
<!-- selector:
 insert(left_hand, outwardgripper, gear3, shaft3) -->
<g id="node1" class="node">
<title>selector:
 insert(left_hand, outwardgripper, gear3, shaft3)</title>
<polygon fill="#8deeee" stroke="black" points="2502.56,-442.54 2502.56,-473.18 2298.11,-494.84 2008.98,-494.84 1804.53,-473.18 1804.53,-442.54 2008.98,-420.88 2298.11,-420.88 2502.56,-442.54"/>
<text text-anchor="middle" x="2153.55" y="-463.46" font-family="Times,serif" font-size="18.00">selector:</text>
<text text-anchor="middle" x="2153.55" y="-443.46" font-family="Times,serif" font-size="18.00"> insert(left_hand, outwardgripper, gear3, shaft3)</text>
</g>
<!-- target:
 is_inserted_to(gear3, shaft3) -->
<g id="node2" class="node">
<title>target:
 is_inserted_to(gear3, shaft3)</title>
<ellipse fill="#ffec8b" stroke="black" cx="1931.55" cy="-351.18" rx="198.89" ry="33.88"/>
<text text-anchor="middle" x="1931.55" y="-356.78" font-family="Times,serif" font-size="18.00">target:</text>
<text text-anchor="middle" x="1931.55" y="-336.78" font-family="Times,serif" font-size="18.00"> is_inserted_to(gear3, shaft3)</text>
</g>
<!-- selector:
 insert(left_hand, outwardgripper, gear3, shaft3)&#45;&gt;target:
 is_inserted_to(gear3, shaft3) -->
<g id="edge1" class="edge">
<title>selector:
 insert(left_hand, outwardgripper, gear3, shaft3)&#45;&gt;target:
 is_inserted_to(gear3, shaft3)</title>
<path fill="none" stroke="black" d="M2077.46,-420.98C2054.62,-410.21 2029.59,-398.41 2006.81,-387.67"/>
<polygon fill="black" stroke="black" points="2008.07,-384.39 1997.53,-383.29 2005.08,-390.73 2008.07,-384.39"/>
</g>
<!-- sequence:
 insert(left_hand, outwardgripper, gear3, shaft3) -->
<g id="node3" class="node">
<title>sequence:
 insert(left_hand, outwardgripper, gear3, shaft3)</title>
<polygon fill="#ff7f24" stroke="black" points="2604.55,-375.18 2148.55,-375.18 2148.55,-327.18 2604.55,-327.18 2604.55,-375.18"/>
<text text-anchor="middle" x="2376.55" y="-356.78" font-family="Times,serif" font-size="18.00">sequence:</text>
<text text-anchor="middle" x="2376.55" y="-336.78" font-family="Times,serif" font-size="18.00"> insert(left_hand, outwardgripper, gear3, shaft3)</text>
</g>
<!-- selector:
 insert(left_hand, outwardgripper, gear3, shaft3)&#45;&gt;sequence:
 insert(left_hand, outwardgripper, gear3, shaft3) -->
<g id="edge2" class="edge">
<title>selector:
 insert(left_hand, outwardgripper, gear3, shaft3)&#45;&gt;sequence:
 insert(left_hand, outwardgripper, gear3, shaft3)</title>
<path fill="none" stroke="black" d="M2229.98,-420.98C2258.85,-407.43 2291.22,-392.24 2318.17,-379.58"/>
<polygon fill="black" stroke="black" points="2319.9,-382.64 2327.47,-375.22 2316.93,-376.3 2319.9,-382.64"/>
</g>
<!-- selector:
 change_tool(left_hand, defaultgripper, outwardgripper) -->
<g id="node4" class="node">
<title>selector:
 change_tool(left_hand, defaultgripper, outwardgripper)</title>
<polygon fill="#8deeee" stroke="black" points="1301.09,-229.19 1301.09,-259.82 1067.04,-281.48 736.05,-281.48 502,-259.82 502,-229.19 736.05,-207.53 1067.04,-207.53 1301.09,-229.19"/>
<text text-anchor="middle" x="901.55" y="-250.1" font-family="Times,serif" font-size="18.00">selector:</text>
<text text-anchor="middle" x="901.55" y="-230.1" font-family="Times,serif" font-size="18.00"> change_tool(left_hand, defaultgripper, outwardgripper)</text>
</g>
<!-- sequence:
 insert(left_hand, outwardgripper, gear3, shaft3)&#45;&gt;selector:
 change_tool(left_hand, defaultgripper, outwardgripper) -->
<g id="edge3" class="edge">
<title>sequence:
 insert(left_hand, outwardgripper, gear3, shaft3)&#45;&gt;selector:
 change_tool(left_hand, defaultgripper, outwardgripper)</title>
<path fill="none" stroke="black" d="M2224.09,-327.15C2196.02,-323.44 2166.94,-319.93 2139.55,-317.24 1862.04,-289.96 1548.45,-271.92 1306.32,-260.75"/>
<polygon fill="black" stroke="black" points="1306.44,-257.26 1296.29,-260.29 1306.12,-264.25 1306.44,-257.26"/>
</g>
<!-- selector:
 pick_up(left_hand, outwardgripper, gear3) -->
<g id="node10" class="node">
<title>selector:
 pick_up(left_hand, outwardgripper, gear3)</title>
<polygon fill="#8deeee" stroke="black" points="2352.49,-229.19 2352.49,-259.82 2170.93,-281.48 1914.16,-281.48 1732.6,-259.82 1732.6,-229.19 1914.16,-207.53 2170.93,-207.53 2352.49,-229.19"/>
<text text-anchor="middle" x="2042.55" y="-250.1" font-family="Times,serif" font-size="18.00">selector:</text>
<text text-anchor="middle" x="2042.55" y="-230.1" font-family="Times,serif" font-size="18.00"> pick_up(left_hand, outwardgripper, gear3)</text>
</g>
<!-- sequence:
 insert(left_hand, outwardgripper, gear3, shaft3)&#45;&gt;selector:
 pick_up(left_hand, outwardgripper, gear3) -->
<g id="edge9" class="edge">
<title>sequence:
 insert(left_hand, outwardgripper, gear3, shaft3)&#45;&gt;selector:
 pick_up(left_hand, outwardgripper, gear3)</title>
<path fill="none" stroke="black" d="M2302.84,-327.08C2262.84,-314.54 2212.33,-298.72 2166.48,-284.34"/>
<polygon fill="black" stroke="black" points="2167.36,-280.95 2156.77,-281.3 2165.26,-287.63 2167.36,-280.95"/>
</g>
<!-- selector:
 insert(left_hand, defaultgripper, gear3, shaft3) -->
<g id="node16" class="node">
<title>selector:
 insert(left_hand, defaultgripper, gear3, shaft3)</title>
<polygon fill="#8deeee" stroke="black" points="3052.22,-229.19 3052.22,-259.82 2852.66,-281.48 2570.43,-281.48 2370.87,-259.82 2370.87,-229.19 2570.43,-207.53 2852.66,-207.53 3052.22,-229.19"/>
<text text-anchor="middle" x="2711.55" y="-250.1" font-family="Times,serif" font-size="18.00">selector:</text>
<text text-anchor="middle" x="2711.55" y="-230.1" font-family="Times,serif" font-size="18.00"> insert(left_hand, defaultgripper, gear3, shaft3)</text>
</g>
<!-- sequence:
 insert(left_hand, outwardgripper, gear3, shaft3)&#45;&gt;selector:
 insert(left_hand, defaultgripper, gear3, shaft3) -->
<g id="edge15" class="edge">
<title>sequence:
 insert(left_hand, outwardgripper, gear3, shaft3)&#45;&gt;selector:
 insert(left_hand, defaultgripper, gear3, shaft3)</title>
<path fill="none" stroke="black" d="M2450.48,-327.08C2490.59,-314.54 2541.25,-298.72 2587.24,-284.34"/>
<polygon fill="black" stroke="black" points="2588.48,-287.62 2596.98,-281.3 2586.39,-280.94 2588.48,-287.62"/>
</g>
<!-- action:
 insert(left_hand, outwardgripper, gear3, shaft3) -->
<g id="node22" class="node">
<title>action:
 insert(left_hand, outwardgripper, gear3, shaft3)</title>
<ellipse fill="lightgreen" stroke="black" cx="3392.55" cy="-244.5" rx="322.38" ry="33.88"/>
<text text-anchor="middle" x="3392.55" y="-250.1" font-family="Times,serif" font-size="18.00">action:</text>
<text text-anchor="middle" x="3392.55" y="-230.1" font-family="Times,serif" font-size="18.00"> insert(left_hand, outwardgripper, gear3, shaft3)</text>
</g>
<!-- sequence:
 insert(left_hand, outwardgripper, gear3, shaft3)&#45;&gt;action:
 insert(left_hand, outwardgripper, gear3, shaft3) -->
<g id="edge21" class="edge">
<title>sequence:
 insert(left_hand, outwardgripper, gear3, shaft3)&#45;&gt;action:
 insert(left_hand, outwardgripper, gear3, shaft3)</title>
<path fill="none" stroke="black" d="M2604.92,-327.61C2738.13,-314.35 2909.38,-297.11 3061.55,-281.24 3094.38,-277.82 3129.04,-274.14 3163.07,-270.5"/>
<polygon fill="black" stroke="black" points="3163.56,-273.96 3173.13,-269.42 3162.81,-267 3163.56,-273.96"/>
</g>
<!-- target:
 hold(left_hand, outwardgripper) -->
<g id="node5" class="node">
<title>target:
 hold(left_hand, outwardgripper)</title>
<ellipse fill="#ffec8b" stroke="black" cx="401.55" cy="-137.82" rx="221.15" ry="33.88"/>
<text text-anchor="middle" x="401.55" y="-143.42" font-family="Times,serif" font-size="18.00">target:</text>
<text text-anchor="middle" x="401.55" y="-123.42" font-family="Times,serif" font-size="18.00"> hold(left_hand, outwardgripper)</text>
</g>
<!-- selector:
 change_tool(left_hand, defaultgripper, outwardgripper)&#45;&gt;target:
 hold(left_hand, outwardgripper) -->
<g id="edge4" class="edge">
<title>selector:
 change_tool(left_hand, defaultgripper, outwardgripper)&#45;&gt;target:
 hold(left_hand, outwardgripper)</title>
<path fill="none" stroke="black" d="M731.57,-207.92C668.95,-194.81 598.84,-180.13 539.4,-167.69"/>
<polygon fill="black" stroke="black" points="540.09,-164.25 529.58,-165.63 538.65,-171.1 540.09,-164.25"/>
</g>
<!-- sequence:
 change_tool(left_hand, defaultgripper, outwardgripper) -->
<g id="node6" class="node">
<title>sequence:
 change_tool(left_hand, defaultgripper, outwardgripper)</title>
<polygon fill="#ff7f24" stroke="black" points="1162.55,-161.82 640.55,-161.82 640.55,-113.82 1162.55,-113.82 1162.55,-161.82"/>
<text text-anchor="middle" x="901.55" y="-143.42" font-family="Times,serif" font-size="18.00">sequence:</text>
<text text-anchor="middle" x="901.55" y="-123.42" font-family="Times,serif" font-size="18.00"> change_tool(left_hand, defaultgripper, outwardgripper)</text>
</g>
<!-- selector:
 change_tool(left_hand, defaultgripper, outwardgripper)&#45;&gt;sequence:
 change_tool(left_hand, defaultgripper, outwardgripper) -->
<g id="edge5" class="edge">
<title>selector:
 change_tool(left_hand, defaultgripper, outwardgripper)&#45;&gt;sequence:
 change_tool(left_hand, defaultgripper, outwardgripper)</title>
<path fill="none" stroke="black" d="M901.55,-207.48C901.55,-196.09 901.55,-183.57 901.55,-172.36"/>
<polygon fill="black" stroke="black" points="905.05,-172.11 901.55,-162.11 898.05,-172.11 905.05,-172.11"/>
</g>
<!-- precondition:
 hold(left_hand, defaultgripper) -->
<g id="node7" class="node">
<title>precondition:
 hold(left_hand, defaultgripper)</title>
<ellipse fill="#ffec8b" stroke="black" cx="213.55" cy="-33.94" rx="213.59" ry="33.88"/>
<text text-anchor="middle" x="213.55" y="-39.54" font-family="Times,serif" font-size="18.00">precondition:</text>
<text text-anchor="middle" x="213.55" y="-19.54" font-family="Times,serif" font-size="18.00"> hold(left_hand, defaultgripper)</text>
</g>
<!-- sequence:
 change_tool(left_hand, defaultgripper, outwardgripper)&#45;&gt;precondition:
 hold(left_hand, defaultgripper) -->
<g id="edge6" class="edge">
<title>sequence:
 change_tool(left_hand, defaultgripper, outwardgripper)&#45;&gt;precondition:
 hold(left_hand, defaultgripper)</title>
<path fill="none" stroke="black" d="M745.86,-113.77C635.81,-97.47 488.6,-75.67 376.88,-59.13"/>
<polygon fill="black" stroke="black" points="377.27,-55.65 366.87,-57.65 376.24,-62.57 377.27,-55.65"/>
</g>
<!-- precondition:
 is_empty(defaultgripper) -->
<g id="node8" class="node">
<title>precondition:
 is_empty(defaultgripper)</title>
<ellipse fill="#ffec8b" stroke="black" cx="620.55" cy="-33.94" rx="175.23" ry="33.88"/>
<text text-anchor="middle" x="620.55" y="-39.54" font-family="Times,serif" font-size="18.00">precondition:</text>
<text text-anchor="middle" x="620.55" y="-19.54" font-family="Times,serif" font-size="18.00"> is_empty(defaultgripper)</text>
</g>
<!-- sequence:
 change_tool(left_hand, defaultgripper, outwardgripper)&#45;&gt;precondition:
 is_empty(defaultgripper) -->
<g id="edge7" class="edge">
<title>sequence:
 change_tool(left_hand, defaultgripper, outwardgripper)&#45;&gt;precondition:
 is_empty(defaultgripper)</title>
<path fill="none" stroke="black" d="M837.78,-113.7C800.23,-100.09 752.12,-82.65 710.72,-67.64"/>
<polygon fill="black" stroke="black" points="711.78,-64.3 701.18,-64.18 709.39,-70.88 711.78,-64.3"/>
</g>
<!-- action:
 change_tool(left_hand, defaultgripper, outwardgripper) -->
<g id="node9" class="node">
<title>action:
 change_tool(left_hand, defaultgripper, outwardgripper)</title>
<ellipse fill="lightgreen" stroke="black" cx="1182.55" cy="-33.94" rx="369.22" ry="33.88"/>
<text text-anchor="middle" x="1182.55" y="-39.54" font-family="Times,serif" font-size="18.00">action:</text>
<text text-anchor="middle" x="1182.55" y="-19.54" font-family="Times,serif" font-size="18.00"> change_tool(left_hand, defaultgripper, outwardgripper)</text>
</g>
<!-- sequence:
 change_tool(left_hand, defaultgripper, outwardgripper)&#45;&gt;action:
 change_tool(left_hand, defaultgripper, outwardgripper) -->
<g id="edge8" class="edge">
<title>sequence:
 change_tool(left_hand, defaultgripper, outwardgripper)&#45;&gt;action:
 change_tool(left_hand, defaultgripper, outwardgripper)</title>
<path fill="none" stroke="black" d="M965.31,-113.7C1000.61,-100.9 1045.24,-84.72 1084.85,-70.36"/>
<polygon fill="black" stroke="black" points="1086.07,-73.65 1094.27,-66.95 1083.68,-67.06 1086.07,-73.65"/>
</g>
<!-- target:
 hold(outwardgripper, gear3) -->
<g id="node11" class="node">
<title>target:
 hold(outwardgripper, gear3)</title>
<ellipse fill="#ffec8b" stroke="black" cx="1795.55" cy="-137.82" rx="196.65" ry="33.88"/>
<text text-anchor="middle" x="1795.55" y="-143.42" font-family="Times,serif" font-size="18.00">target:</text>
<text text-anchor="middle" x="1795.55" y="-123.42" font-family="Times,serif" font-size="18.00"> hold(outwardgripper, gear3)</text>
</g>
<!-- selector:
 pick_up(left_hand, outwardgripper, gear3)&#45;&gt;target:
 hold(outwardgripper, gear3) -->
<g id="edge10" class="edge">
<title>selector:
 pick_up(left_hand, outwardgripper, gear3)&#45;&gt;target:
 hold(outwardgripper, gear3)</title>
<path fill="none" stroke="black" d="M1957.89,-207.62C1931.77,-196.55 1903.07,-184.39 1877.16,-173.41"/>
<polygon fill="black" stroke="black" points="1878.32,-170.1 1867.75,-169.42 1875.59,-176.55 1878.32,-170.1"/>
</g>
<!-- sequence:
 pick_up(left_hand, outwardgripper, gear3) -->
<g id="node12" class="node">
<title>sequence:
 pick_up(left_hand, outwardgripper, gear3)</title>
<polygon fill="#ff7f24" stroke="black" points="2415.05,-161.82 2010.05,-161.82 2010.05,-113.82 2415.05,-113.82 2415.05,-161.82"/>
<text text-anchor="middle" x="2212.55" y="-143.42" font-family="Times,serif" font-size="18.00">sequence:</text>
<text text-anchor="middle" x="2212.55" y="-123.42" font-family="Times,serif" font-size="18.00"> pick_up(left_hand, outwardgripper, gear3)</text>
</g>
<!-- selector:
 pick_up(left_hand, outwardgripper, gear3)&#45;&gt;sequence:
 pick_up(left_hand, outwardgripper, gear3) -->
<g id="edge11" class="edge">
<title>selector:
 pick_up(left_hand, outwardgripper, gear3)&#45;&gt;sequence:
 pick_up(left_hand, outwardgripper, gear3)</title>
<path fill="none" stroke="black" d="M2101.05,-207.48C2122.38,-194.34 2146.19,-179.68 2166.31,-167.29"/>
<polygon fill="black" stroke="black" points="2168.3,-170.18 2174.98,-161.95 2164.63,-164.22 2168.3,-170.18"/>
</g>
<!-- precondition:
 hold(left_hand, outwardgripper) -->
<g id="node13" class="node">
<title>precondition:
 hold(left_hand, outwardgripper)</title>
<ellipse fill="#ffec8b" stroke="black" cx="1790.55" cy="-33.94" rx="221.15" ry="33.88"/>
<text text-anchor="middle" x="1790.55" y="-39.54" font-family="Times,serif" font-size="18.00">precondition:</text>
<text text-anchor="middle" x="1790.55" y="-19.54" font-family="Times,serif" font-size="18.00"> hold(left_hand, outwardgripper)</text>
</g>
<!-- sequence:
 pick_up(left_hand, outwardgripper, gear3)&#45;&gt;precondition:
 hold(left_hand, outwardgripper) -->
<g id="edge12" class="edge">
<title>sequence:
 pick_up(left_hand, outwardgripper, gear3)&#45;&gt;precondition:
 hold(left_hand, outwardgripper)</title>
<path fill="none" stroke="black" d="M2117.05,-113.77C2057.62,-99.42 1980.51,-80.8 1916.15,-65.27"/>
<polygon fill="black" stroke="black" points="1916.89,-61.84 1906.34,-62.9 1915.24,-68.65 1916.89,-61.84"/>
</g>
<!-- precondition:
 is_empty(outwardgripper) -->
<g id="node14" class="node">
<title>precondition:
 is_empty(outwardgripper)</title>
<ellipse fill="#ffec8b" stroke="black" cx="2212.55" cy="-33.94" rx="183.28" ry="33.88"/>
<text text-anchor="middle" x="2212.55" y="-39.54" font-family="Times,serif" font-size="18.00">precondition:</text>
<text text-anchor="middle" x="2212.55" y="-19.54" font-family="Times,serif" font-size="18.00"> is_empty(outwardgripper)</text>
</g>
<!-- sequence:
 pick_up(left_hand, outwardgripper, gear3)&#45;&gt;precondition:
 is_empty(outwardgripper) -->
<g id="edge13" class="edge">
<title>sequence:
 pick_up(left_hand, outwardgripper, gear3)&#45;&gt;precondition:
 is_empty(outwardgripper)</title>
<path fill="none" stroke="black" d="M2212.55,-113.7C2212.55,-103.16 2212.55,-90.31 2212.55,-78.08"/>
<polygon fill="black" stroke="black" points="2216.05,-78.01 2212.55,-68.01 2209.05,-78.01 2216.05,-78.01"/>
</g>
<!-- action:
 pick_up(left_hand, outwardgripper, gear3) -->
<g id="node15" class="node">
<title>action:
 pick_up(left_hand, outwardgripper, gear3)</title>
<ellipse fill="lightgreen" stroke="black" cx="2700.55" cy="-33.94" rx="286.26" ry="33.88"/>
<text text-anchor="middle" x="2700.55" y="-39.54" font-family="Times,serif" font-size="18.00">action:</text>
<text text-anchor="middle" x="2700.55" y="-19.54" font-family="Times,serif" font-size="18.00"> pick_up(left_hand, outwardgripper, gear3)</text>
</g>
<!-- sequence:
 pick_up(left_hand, outwardgripper, gear3)&#45;&gt;action:
 pick_up(left_hand, outwardgripper, gear3) -->
<g id="edge14" class="edge">
<title>sequence:
 pick_up(left_hand, outwardgripper, gear3)&#45;&gt;action:
 pick_up(left_hand, outwardgripper, gear3)</title>
<path fill="none" stroke="black" d="M2322.98,-113.77C2390.92,-99.58 2478.83,-81.23 2552.74,-65.8"/>
<polygon fill="black" stroke="black" points="2553.53,-69.21 2562.6,-63.74 2552.1,-62.36 2553.53,-69.21"/>
</g>
<!-- &quot;target:\n is_inserted_to(gear3, shaft3)&quot;* -->
<g id="node17" class="node">
<title>&quot;target:\n is_inserted_to(gear3, shaft3)&quot;*</title>
<ellipse fill="#ffec8b" stroke="black" cx="2711.55" cy="-137.82" rx="211.35" ry="33.88"/>
<text text-anchor="middle" x="2711.55" y="-143.42" font-family="Times,serif" font-size="18.00">&quot;target:</text>
<text text-anchor="middle" x="2711.55" y="-123.42" font-family="Times,serif" font-size="18.00"> is_inserted_to(gear3, shaft3)&quot;*</text>
</g>
<!-- selector:
 insert(left_hand, defaultgripper, gear3, shaft3)&#45;&gt;&quot;target:\n is_inserted_to(gear3, shaft3)&quot;* -->
<g id="edge16" class="edge">
<title>selector:
 insert(left_hand, defaultgripper, gear3, shaft3)&#45;&gt;&quot;target:\n is_inserted_to(gear3, shaft3)&quot;*</title>
<path fill="none" stroke="black" d="M2711.55,-207.48C2711.55,-199.32 2711.55,-190.58 2711.55,-182.15"/>
<polygon fill="black" stroke="black" points="2715.05,-182.1 2711.55,-172.1 2708.05,-182.1 2715.05,-182.1"/>
</g>
<!-- sequence:
 insert(left_hand, defaultgripper, gear3, shaft3) -->
<g id="node18" class="node">
<title>sequence:
 insert(left_hand, defaultgripper, gear3, shaft3)</title>
<polygon fill="#ff7f24" stroke="black" points="3669.05,-161.82 3224.05,-161.82 3224.05,-113.82 3669.05,-113.82 3669.05,-161.82"/>
<text text-anchor="middle" x="3446.55" y="-143.42" font-family="Times,serif" font-size="18.00">sequence:</text>
<text text-anchor="middle" x="3446.55" y="-123.42" font-family="Times,serif" font-size="18.00"> insert(left_hand, defaultgripper, gear3, shaft3)</text>
</g>
<!-- selector:
 insert(left_hand, defaultgripper, gear3, shaft3)&#45;&gt;sequence:
 insert(left_hand, defaultgripper, gear3, shaft3) -->
<g id="edge17" class="edge">
<title>selector:
 insert(left_hand, defaultgripper, gear3, shaft3)&#45;&gt;sequence:
 insert(left_hand, defaultgripper, gear3, shaft3)</title>
<path fill="none" stroke="black" d="M2916.28,-214.34C3029.15,-198.27 3167.68,-178.54 3274.84,-163.28"/>
<polygon fill="black" stroke="black" points="3275.37,-166.74 3284.78,-161.86 3274.38,-159.81 3275.37,-166.74"/>
</g>
<!-- &quot;precondition:\n hold(left_hand, defaultgripper)&quot;* -->
<g id="node19" class="node">
<title>&quot;precondition:\n hold(left_hand, defaultgripper)&quot;*</title>
<ellipse fill="#ffec8b" stroke="black" cx="3230.55" cy="-33.94" rx="225.63" ry="33.88"/>
<text text-anchor="middle" x="3230.55" y="-39.54" font-family="Times,serif" font-size="18.00">&quot;precondition:</text>
<text text-anchor="middle" x="3230.55" y="-19.54" font-family="Times,serif" font-size="18.00"> hold(left_hand, defaultgripper)&quot;*</text>
</g>
<!-- sequence:
 insert(left_hand, defaultgripper, gear3, shaft3)&#45;&gt;&quot;precondition:\n hold(left_hand, defaultgripper)&quot;* -->
<g id="edge18" class="edge">
<title>sequence:
 insert(left_hand, defaultgripper, gear3, shaft3)&#45;&gt;&quot;precondition:\n hold(left_hand, defaultgripper)&quot;*</title>
<path fill="none" stroke="black" d="M3397.53,-113.7C3370.69,-101.04 3336.82,-85.07 3306.62,-70.82"/>
<polygon fill="black" stroke="black" points="3307.92,-67.56 3297.38,-66.46 3304.93,-73.9 3307.92,-67.56"/>
</g>
<!-- precondition:
 hold(defaultgripper, gear3) -->
<g id="node20" class="node">
<title>precondition:
 hold(defaultgripper, gear3)</title>
<ellipse fill="#ffec8b" stroke="black" cx="3662.55" cy="-33.94" rx="188.6" ry="33.88"/>
<text text-anchor="middle" x="3662.55" y="-39.54" font-family="Times,serif" font-size="18.00">precondition:</text>
<text text-anchor="middle" x="3662.55" y="-19.54" font-family="Times,serif" font-size="18.00"> hold(defaultgripper, gear3)</text>
</g>
<!-- sequence:
 insert(left_hand, defaultgripper, gear3, shaft3)&#45;&gt;precondition:
 hold(defaultgripper, gear3) -->
<g id="edge19" class="edge">
<title>sequence:
 insert(left_hand, defaultgripper, gear3, shaft3)&#45;&gt;precondition:
 hold(defaultgripper, gear3)</title>
<path fill="none" stroke="black" d="M3495.56,-113.7C3522.75,-100.88 3557.12,-84.67 3587.61,-70.29"/>
<polygon fill="black" stroke="black" points="3589.38,-73.32 3596.94,-65.89 3586.4,-66.99 3589.38,-73.32"/>
</g>
<!-- action:
 insert(left_hand, defaultgripper, gear3, shaft3) -->
<g id="node21" class="node">
<title>action:
 insert(left_hand, defaultgripper, gear3, shaft3)</title>
<ellipse fill="lightgreen" stroke="black" cx="4183.55" cy="-33.94" rx="314.83" ry="33.88"/>
<text text-anchor="middle" x="4183.55" y="-39.54" font-family="Times,serif" font-size="18.00">action:</text>
<text text-anchor="middle" x="4183.55" y="-19.54" font-family="Times,serif" font-size="18.00"> insert(left_hand, defaultgripper, gear3, shaft3)</text>
</g>
<!-- sequence:
 insert(left_hand, defaultgripper, gear3, shaft3)&#45;&gt;action:
 insert(left_hand, defaultgripper, gear3, shaft3) -->
<g id="edge20" class="edge">
<title>sequence:
 insert(left_hand, defaultgripper, gear3, shaft3)&#45;&gt;action:
 insert(left_hand, defaultgripper, gear3, shaft3)</title>
<path fill="none" stroke="black" d="M3613.32,-113.77C3723.38,-98.55 3868.15,-78.54 3984.27,-62.49"/>
<polygon fill="black" stroke="black" points="3984.92,-65.93 3994.35,-61.1 3983.96,-59 3984.92,-65.93"/>
</g>
</g>
</svg>
