<?xml version="1.0" encoding="UTF-8" standalone="no"?>
<!DOCTYPE svg PUBLIC "-//W3C//DTD SVG 1.1//EN"
 "http://www.w3.org/Graphics/SVG/1.1/DTD/svg11.dtd">
<!-- Generated by graphviz version 2.43.0 (0)
 -->
<!-- Title: pastafarianism Pages: 1 -->
<svg width="6194pt" height="929pt"
 viewBox="0.00 0.00 6193.95 929.31" xmlns="http://www.w3.org/2000/svg" xmlns:xlink="http://www.w3.org/1999/xlink">
<g id="graph0" class="graph" transform="scale(1 1) rotate(0) translate(4 925.31)">
<title>pastafarianism</title>
<polygon fill="white" stroke="transparent" points="-4,4 -4,-925.31 6189.95,-925.31 6189.95,4 -4,4"/>
<!-- selector:
 insert(left_hand, outwardgripper, gear3, shaft3) -->
<g id="node1" class="node">
<title>selector:
 insert(left_hand, outwardgripper, gear3, shaft3)</title>
<polygon fill="#8deeee" stroke="black" points="2553.56,-869.26 2553.56,-899.89 2349.11,-921.55 2059.98,-921.55 1855.53,-899.89 1855.53,-869.26 2059.98,-847.6 2349.11,-847.6 2553.56,-869.26"/>
<text text-anchor="middle" x="2204.55" y="-890.17" font-family="Times,serif" font-size="18.00">selector:</text>
<text text-anchor="middle" x="2204.55" y="-870.17" font-family="Times,serif" font-size="18.00"> insert(left_hand, outwardgripper, gear3, shaft3)</text>
</g>
<!-- target:
 is_inserted_to(gear3, shaft3) -->
<g id="node2" class="node">
<title>target:
 is_inserted_to(gear3, shaft3)</title>
<ellipse fill="#ffec8b" stroke="black" cx="1982.55" cy="-777.9" rx="198.89" ry="33.88"/>
<text text-anchor="middle" x="1982.55" y="-783.5" font-family="Times,serif" font-size="18.00">target:</text>
<text text-anchor="middle" x="1982.55" y="-763.5" font-family="Times,serif" font-size="18.00"> is_inserted_to(gear3, shaft3)</text>
</g>
<!-- selector:
 insert(left_hand, outwardgripper, gear3, shaft3)&#45;&gt;target:
 is_inserted_to(gear3, shaft3) -->
<g id="edge1" class="edge">
<title>selector:
 insert(left_hand, outwardgripper, gear3, shaft3)&#45;&gt;target:
 is_inserted_to(gear3, shaft3)</title>
<path fill="none" stroke="black" d="M2128.46,-847.7C2105.62,-836.93 2080.59,-825.13 2057.81,-814.38"/>
<polygon fill="black" stroke="black" points="2059.07,-811.11 2048.53,-810.01 2056.08,-817.44 2059.07,-811.11"/>
</g>
<!-- sequence:
 insert(left_hand, outwardgripper, gear3, shaft3) -->
<g id="node3" class="node">
<title>sequence:
 insert(left_hand, outwardgripper, gear3, shaft3)</title>
<polygon fill="#ff7f24" stroke="black" points="2655.55,-801.9 2199.55,-801.9 2199.55,-753.9 2655.55,-753.9 2655.55,-801.9"/>
<text text-anchor="middle" x="2427.55" y="-783.5" font-family="Times,serif" font-size="18.00">sequence:</text>
<text text-anchor="middle" x="2427.55" y="-763.5" font-family="Times,serif" font-size="18.00"> insert(left_hand, outwardgripper, gear3, shaft3)</text>
</g>
<!-- selector:
 insert(left_hand, outwardgripper, gear3, shaft3)&#45;&gt;sequence:
 insert(left_hand, outwardgripper, gear3, shaft3) -->
<g id="edge2" class="edge">
<title>selector:
 insert(left_hand, outwardgripper, gear3, shaft3)&#45;&gt;sequence:
 insert(left_hand, outwardgripper, gear3, shaft3)</title>
<path fill="none" stroke="black" d="M2280.98,-847.7C2309.85,-834.14 2342.22,-818.95 2369.17,-806.3"/>
<polygon fill="black" stroke="black" points="2370.9,-809.35 2378.47,-801.93 2367.93,-803.01 2370.9,-809.35"/>
</g>
<!-- selector:
 change_tool(left_hand, defaultgripper, outwardgripper) -->
<g id="node4" class="node">
<title>selector:
 change_tool(left_hand, defaultgripper, outwardgripper)</title>
<polygon fill="#8deeee" stroke="black" points="1301.09,-655.9 1301.09,-686.53 1067.04,-708.19 736.05,-708.19 502,-686.53 502,-655.9 736.05,-634.24 1067.04,-634.24 1301.09,-655.9"/>
<text text-anchor="middle" x="901.55" y="-676.82" font-family="Times,serif" font-size="18.00">selector:</text>
<text text-anchor="middle" x="901.55" y="-656.82" font-family="Times,serif" font-size="18.00"> change_tool(left_hand, defaultgripper, outwardgripper)</text>
</g>
<!-- sequence:
 insert(left_hand, outwardgripper, gear3, shaft3)&#45;&gt;selector:
 change_tool(left_hand, defaultgripper, outwardgripper) -->
<g id="edge3" class="edge">
<title>sequence:
 insert(left_hand, outwardgripper, gear3, shaft3)&#45;&gt;selector:
 change_tool(left_hand, defaultgripper, outwardgripper)</title>
<path fill="none" stroke="black" d="M2275.41,-753.86C2247.24,-750.13 2218.04,-746.63 2190.55,-743.95 1897.21,-715.46 1565.14,-697.31 1311.51,-686.39"/>
<polygon fill="black" stroke="black" points="1311.53,-682.89 1301.39,-685.96 1311.23,-689.89 1311.53,-682.89"/>
</g>
<!-- selector:
 pick_up(left_hand, outwardgripper, gear3) -->
<g id="node10" class="node">
<title>selector:
 pick_up(left_hand, outwardgripper, gear3)</title>
<polygon fill="#8deeee" stroke="black" points="2403.49,-655.9 2403.49,-686.53 2221.93,-708.19 1965.16,-708.19 1783.6,-686.53 1783.6,-655.9 1965.16,-634.24 2221.93,-634.24 2403.49,-655.9"/>
<text text-anchor="middle" x="2093.55" y="-676.82" font-family="Times,serif" font-size="18.00">selector:</text>
<text text-anchor="middle" x="2093.55" y="-656.82" font-family="Times,serif" font-size="18.00"> pick_up(left_hand, outwardgripper, gear3)</text>
</g>
<!-- sequence:
 insert(left_hand, outwardgripper, gear3, shaft3)&#45;&gt;selector:
 pick_up(left_hand, outwardgripper, gear3) -->
<g id="edge9" class="edge">
<title>sequence:
 insert(left_hand, outwardgripper, gear3, shaft3)&#45;&gt;selector:
 pick_up(left_hand, outwardgripper, gear3)</title>
<path fill="none" stroke="black" d="M2353.84,-753.79C2313.84,-741.26 2263.33,-725.43 2217.48,-711.06"/>
<polygon fill="black" stroke="black" points="2218.36,-707.67 2207.77,-708.02 2216.26,-714.35 2218.36,-707.67"/>
</g>
<!-- selector:
 insert(left_hand, defaultgripper, gear3, shaft3) -->
<g id="node16" class="node">
<title>selector:
 insert(left_hand, defaultgripper, gear3, shaft3)</title>
<polygon fill="#8deeee" stroke="black" points="3103.22,-655.9 3103.22,-686.53 2903.66,-708.19 2621.43,-708.19 2421.87,-686.53 2421.87,-655.9 2621.43,-634.24 2903.66,-634.24 3103.22,-655.9"/>
<text text-anchor="middle" x="2762.55" y="-676.82" font-family="Times,serif" font-size="18.00">selector:</text>
<text text-anchor="middle" x="2762.55" y="-656.82" font-family="Times,serif" font-size="18.00"> insert(left_hand, defaultgripper, gear3, shaft3)</text>
</g>
<!-- sequence:
 insert(left_hand, outwardgripper, gear3, shaft3)&#45;&gt;selector:
 insert(left_hand, defaultgripper, gear3, shaft3) -->
<g id="edge15" class="edge">
<title>sequence:
 insert(left_hand, outwardgripper, gear3, shaft3)&#45;&gt;selector:
 insert(left_hand, defaultgripper, gear3, shaft3)</title>
<path fill="none" stroke="black" d="M2501.48,-753.79C2541.59,-741.26 2592.25,-725.43 2638.24,-711.06"/>
<polygon fill="black" stroke="black" points="2639.48,-714.34 2647.98,-708.02 2637.39,-707.66 2639.48,-714.34"/>
</g>
<!-- action:
 insert(left_hand, outwardgripper, gear3, shaft3) -->
<g id="node42" class="node">
<title>action:
 insert(left_hand, outwardgripper, gear3, shaft3)</title>
<ellipse fill="lightgreen" stroke="black" cx="3443.55" cy="-671.22" rx="322.38" ry="33.88"/>
<text text-anchor="middle" x="3443.55" y="-676.82" font-family="Times,serif" font-size="18.00">action:</text>
<text text-anchor="middle" x="3443.55" y="-656.82" font-family="Times,serif" font-size="18.00"> insert(left_hand, outwardgripper, gear3, shaft3)</text>
</g>
<!-- sequence:
 insert(left_hand, outwardgripper, gear3, shaft3)&#45;&gt;action:
 insert(left_hand, outwardgripper, gear3, shaft3) -->
<g id="edge41" class="edge">
<title>sequence:
 insert(left_hand, outwardgripper, gear3, shaft3)&#45;&gt;action:
 insert(left_hand, outwardgripper, gear3, shaft3)</title>
<path fill="none" stroke="black" d="M2655.92,-754.33C2789.13,-741.06 2960.38,-723.83 3112.55,-707.95 3145.38,-704.53 3180.04,-700.85 3214.07,-697.21"/>
<polygon fill="black" stroke="black" points="3214.56,-700.68 3224.13,-696.13 3213.81,-693.72 3214.56,-700.68"/>
</g>
<!-- target:
 hold(left_hand, outwardgripper) -->
<g id="node5" class="node">
<title>target:
 hold(left_hand, outwardgripper)</title>
<ellipse fill="#ffec8b" stroke="black" cx="401.55" cy="-564.54" rx="221.15" ry="33.88"/>
<text text-anchor="middle" x="401.55" y="-570.14" font-family="Times,serif" font-size="18.00">target:</text>
<text text-anchor="middle" x="401.55" y="-550.14" font-family="Times,serif" font-size="18.00"> hold(left_hand, outwardgripper)</text>
</g>
<!-- selector:
 change_tool(left_hand, defaultgripper, outwardgripper)&#45;&gt;target:
 hold(left_hand, outwardgripper) -->
<g id="edge4" class="edge">
<title>selector:
 change_tool(left_hand, defaultgripper, outwardgripper)&#45;&gt;target:
 hold(left_hand, outwardgripper)</title>
<path fill="none" stroke="black" d="M731.57,-634.63C668.95,-621.52 598.84,-606.84 539.4,-594.4"/>
<polygon fill="black" stroke="black" points="540.09,-590.97 529.58,-592.34 538.65,-597.82 540.09,-590.97"/>
</g>
<!-- sequence:
 change_tool(left_hand, defaultgripper, outwardgripper) -->
<g id="node6" class="node">
<title>sequence:
 change_tool(left_hand, defaultgripper, outwardgripper)</title>
<polygon fill="#ff7f24" stroke="black" points="1162.55,-588.54 640.55,-588.54 640.55,-540.54 1162.55,-540.54 1162.55,-588.54"/>
<text text-anchor="middle" x="901.55" y="-570.14" font-family="Times,serif" font-size="18.00">sequence:</text>
<text text-anchor="middle" x="901.55" y="-550.14" font-family="Times,serif" font-size="18.00"> change_tool(left_hand, defaultgripper, outwardgripper)</text>
</g>
<!-- selector:
 change_tool(left_hand, defaultgripper, outwardgripper)&#45;&gt;sequence:
 change_tool(left_hand, defaultgripper, outwardgripper) -->
<g id="edge5" class="edge">
<title>selector:
 change_tool(left_hand, defaultgripper, outwardgripper)&#45;&gt;sequence:
 change_tool(left_hand, defaultgripper, outwardgripper)</title>
<path fill="none" stroke="black" d="M901.55,-634.19C901.55,-622.81 901.55,-610.28 901.55,-599.08"/>
<polygon fill="black" stroke="black" points="905.05,-598.82 901.55,-588.82 898.05,-598.82 905.05,-598.82"/>
</g>
<!-- precondition:
 hold(left_hand, defaultgripper) -->
<g id="node7" class="node">
<title>precondition:
 hold(left_hand, defaultgripper)</title>
<ellipse fill="#ffec8b" stroke="black" cx="213.55" cy="-457.86" rx="213.59" ry="33.88"/>
<text text-anchor="middle" x="213.55" y="-463.46" font-family="Times,serif" font-size="18.00">precondition:</text>
<text text-anchor="middle" x="213.55" y="-443.46" font-family="Times,serif" font-size="18.00"> hold(left_hand, defaultgripper)</text>
</g>
<!-- sequence:
 change_tool(left_hand, defaultgripper, outwardgripper)&#45;&gt;precondition:
 hold(left_hand, defaultgripper) -->
<g id="edge6" class="edge">
<title>sequence:
 change_tool(left_hand, defaultgripper, outwardgripper)&#45;&gt;precondition:
 hold(left_hand, defaultgripper)</title>
<path fill="none" stroke="black" d="M743.02,-540.51C653.09,-527.32 538.48,-510.32 436.55,-494.6 415.03,-491.28 392.35,-487.72 370.03,-484.18"/>
<polygon fill="black" stroke="black" points="370.58,-480.72 360.15,-482.61 369.48,-487.63 370.58,-480.72"/>
</g>
<!-- precondition:
 is_empty(defaultgripper) -->
<g id="node8" class="node">
<title>precondition:
 is_empty(defaultgripper)</title>
<ellipse fill="#ffec8b" stroke="black" cx="620.55" cy="-457.86" rx="175.23" ry="33.88"/>
<text text-anchor="middle" x="620.55" y="-463.46" font-family="Times,serif" font-size="18.00">precondition:</text>
<text text-anchor="middle" x="620.55" y="-443.46" font-family="Times,serif" font-size="18.00"> is_empty(defaultgripper)</text>
</g>
<!-- sequence:
 change_tool(left_hand, defaultgripper, outwardgripper)&#45;&gt;precondition:
 is_empty(defaultgripper) -->
<g id="edge7" class="edge">
<title>sequence:
 change_tool(left_hand, defaultgripper, outwardgripper)&#45;&gt;precondition:
 is_empty(defaultgripper)</title>
<path fill="none" stroke="black" d="M839.53,-540.44C801.22,-526.16 751.43,-507.62 709.02,-491.82"/>
<polygon fill="black" stroke="black" points="710.12,-488.49 699.53,-488.28 707.68,-495.05 710.12,-488.49"/>
</g>
<!-- action:
 change_tool(left_hand, defaultgripper, outwardgripper) -->
<g id="node9" class="node">
<title>action:
 change_tool(left_hand, defaultgripper, outwardgripper)</title>
<ellipse fill="lightgreen" stroke="black" cx="1182.55" cy="-457.86" rx="369.22" ry="33.88"/>
<text text-anchor="middle" x="1182.55" y="-463.46" font-family="Times,serif" font-size="18.00">action:</text>
<text text-anchor="middle" x="1182.55" y="-443.46" font-family="Times,serif" font-size="18.00"> change_tool(left_hand, defaultgripper, outwardgripper)</text>
</g>
<!-- sequence:
 change_tool(left_hand, defaultgripper, outwardgripper)&#45;&gt;action:
 change_tool(left_hand, defaultgripper, outwardgripper) -->
<g id="edge8" class="edge">
<title>sequence:
 change_tool(left_hand, defaultgripper, outwardgripper)&#45;&gt;action:
 change_tool(left_hand, defaultgripper, outwardgripper)</title>
<path fill="none" stroke="black" d="M963.56,-540.44C999.77,-526.95 1046.23,-509.64 1087.02,-494.44"/>
<polygon fill="black" stroke="black" points="1088.3,-497.7 1096.45,-490.93 1085.85,-491.15 1088.3,-497.7"/>
</g>
<!-- target:
 hold(outwardgripper, gear3) -->
<g id="node11" class="node">
<title>target:
 hold(outwardgripper, gear3)</title>
<ellipse fill="#ffec8b" stroke="black" cx="1795.55" cy="-564.54" rx="196.65" ry="33.88"/>
<text text-anchor="middle" x="1795.55" y="-570.14" font-family="Times,serif" font-size="18.00">target:</text>
<text text-anchor="middle" x="1795.55" y="-550.14" font-family="Times,serif" font-size="18.00"> hold(outwardgripper, gear3)</text>
</g>
<!-- selector:
 pick_up(left_hand, outwardgripper, gear3)&#45;&gt;target:
 hold(outwardgripper, gear3) -->
<g id="edge10" class="edge">
<title>selector:
 pick_up(left_hand, outwardgripper, gear3)&#45;&gt;target:
 hold(outwardgripper, gear3)</title>
<path fill="none" stroke="black" d="M1991.41,-634.34C1958.44,-622.76 1922.06,-609.98 1889.7,-598.61"/>
<polygon fill="black" stroke="black" points="1890.83,-595.3 1880.23,-595.29 1888.51,-601.9 1890.83,-595.3"/>
</g>
<!-- sequence:
 pick_up(left_hand, outwardgripper, gear3) -->
<g id="node12" class="node">
<title>sequence:
 pick_up(left_hand, outwardgripper, gear3)</title>
<polygon fill="#ff7f24" stroke="black" points="2415.05,-588.54 2010.05,-588.54 2010.05,-540.54 2415.05,-540.54 2415.05,-588.54"/>
<text text-anchor="middle" x="2212.55" y="-570.14" font-family="Times,serif" font-size="18.00">sequence:</text>
<text text-anchor="middle" x="2212.55" y="-550.14" font-family="Times,serif" font-size="18.00"> pick_up(left_hand, outwardgripper, gear3)</text>
</g>
<!-- selector:
 pick_up(left_hand, outwardgripper, gear3)&#45;&gt;sequence:
 pick_up(left_hand, outwardgripper, gear3) -->
<g id="edge11" class="edge">
<title>selector:
 pick_up(left_hand, outwardgripper, gear3)&#45;&gt;sequence:
 pick_up(left_hand, outwardgripper, gear3)</title>
<path fill="none" stroke="black" d="M2134.5,-634.19C2148.77,-621.64 2164.63,-607.69 2178.3,-595.66"/>
<polygon fill="black" stroke="black" points="2180.88,-598.06 2186.07,-588.82 2176.25,-592.8 2180.88,-598.06"/>
</g>
<!-- precondition:
 hold(left_hand, outwardgripper) -->
<g id="node13" class="node">
<title>precondition:
 hold(left_hand, outwardgripper)</title>
<ellipse fill="#ffec8b" stroke="black" cx="1790.55" cy="-457.86" rx="221.15" ry="33.88"/>
<text text-anchor="middle" x="1790.55" y="-463.46" font-family="Times,serif" font-size="18.00">precondition:</text>
<text text-anchor="middle" x="1790.55" y="-443.46" font-family="Times,serif" font-size="18.00"> hold(left_hand, outwardgripper)</text>
</g>
<!-- sequence:
 pick_up(left_hand, outwardgripper, gear3)&#45;&gt;precondition:
 hold(left_hand, outwardgripper) -->
<g id="edge12" class="edge">
<title>sequence:
 pick_up(left_hand, outwardgripper, gear3)&#45;&gt;precondition:
 hold(left_hand, outwardgripper)</title>
<path fill="none" stroke="black" d="M2119.68,-540.5C2059.31,-525.53 1979.92,-505.84 1914.24,-489.54"/>
<polygon fill="black" stroke="black" points="1914.79,-486.07 1904.24,-487.06 1913.1,-492.87 1914.79,-486.07"/>
</g>
<!-- precondition:
 is_empty(outwardgripper) -->
<g id="node14" class="node">
<title>precondition:
 is_empty(outwardgripper)</title>
<ellipse fill="#ffec8b" stroke="black" cx="2212.55" cy="-457.86" rx="183.28" ry="33.88"/>
<text text-anchor="middle" x="2212.55" y="-463.46" font-family="Times,serif" font-size="18.00">precondition:</text>
<text text-anchor="middle" x="2212.55" y="-443.46" font-family="Times,serif" font-size="18.00"> is_empty(outwardgripper)</text>
</g>
<!-- sequence:
 pick_up(left_hand, outwardgripper, gear3)&#45;&gt;precondition:
 is_empty(outwardgripper) -->
<g id="edge13" class="edge">
<title>sequence:
 pick_up(left_hand, outwardgripper, gear3)&#45;&gt;precondition:
 is_empty(outwardgripper)</title>
<path fill="none" stroke="black" d="M2212.55,-540.31C2212.55,-529.09 2212.55,-515.26 2212.55,-502.2"/>
<polygon fill="black" stroke="black" points="2216.05,-501.95 2212.55,-491.95 2209.05,-501.95 2216.05,-501.95"/>
</g>
<!-- action:
 pick_up(left_hand, outwardgripper, gear3) -->
<g id="node15" class="node">
<title>action:
 pick_up(left_hand, outwardgripper, gear3)</title>
<ellipse fill="lightgreen" stroke="black" cx="2700.55" cy="-457.86" rx="286.26" ry="33.88"/>
<text text-anchor="middle" x="2700.55" y="-463.46" font-family="Times,serif" font-size="18.00">action:</text>
<text text-anchor="middle" x="2700.55" y="-443.46" font-family="Times,serif" font-size="18.00"> pick_up(left_hand, outwardgripper, gear3)</text>
</g>
<!-- sequence:
 pick_up(left_hand, outwardgripper, gear3)&#45;&gt;action:
 pick_up(left_hand, outwardgripper, gear3) -->
<g id="edge14" class="edge">
<title>sequence:
 pick_up(left_hand, outwardgripper, gear3)&#45;&gt;action:
 pick_up(left_hand, outwardgripper, gear3)</title>
<path fill="none" stroke="black" d="M2319.94,-540.5C2389.1,-525.67 2479.86,-506.2 2555.4,-489.99"/>
<polygon fill="black" stroke="black" points="2556.44,-493.35 2565.48,-487.83 2554.97,-486.51 2556.44,-493.35"/>
</g>
<!-- &quot;target:\n is_inserted_to(gear3, shaft3)&quot;* -->
<g id="node17" class="node">
<title>&quot;target:\n is_inserted_to(gear3, shaft3)&quot;*</title>
<ellipse fill="#ffec8b" stroke="black" cx="2762.55" cy="-564.54" rx="211.35" ry="33.88"/>
<text text-anchor="middle" x="2762.55" y="-570.14" font-family="Times,serif" font-size="18.00">&quot;target:</text>
<text text-anchor="middle" x="2762.55" y="-550.14" font-family="Times,serif" font-size="18.00"> is_inserted_to(gear3, shaft3)&quot;*</text>
</g>
<!-- selector:
 insert(left_hand, defaultgripper, gear3, shaft3)&#45;&gt;&quot;target:\n is_inserted_to(gear3, shaft3)&quot;* -->
<g id="edge16" class="edge">
<title>selector:
 insert(left_hand, defaultgripper, gear3, shaft3)&#45;&gt;&quot;target:\n is_inserted_to(gear3, shaft3)&quot;*</title>
<path fill="none" stroke="black" d="M2762.55,-634.19C2762.55,-626.04 2762.55,-617.29 2762.55,-608.87"/>
<polygon fill="black" stroke="black" points="2766.05,-608.81 2762.55,-598.81 2759.05,-608.81 2766.05,-608.81"/>
</g>
<!-- sequence:
 insert(left_hand, defaultgripper, gear3, shaft3) -->
<g id="node18" class="node">
<title>sequence:
 insert(left_hand, defaultgripper, gear3, shaft3)</title>
<polygon fill="#ff7f24" stroke="black" points="3997.05,-588.54 3552.05,-588.54 3552.05,-540.54 3997.05,-540.54 3997.05,-588.54"/>
<text text-anchor="middle" x="3774.55" y="-570.14" font-family="Times,serif" font-size="18.00">sequence:</text>
<text text-anchor="middle" x="3774.55" y="-550.14" font-family="Times,serif" font-size="18.00"> insert(left_hand, defaultgripper, gear3, shaft3)</text>
</g>
<!-- selector:
 insert(left_hand, defaultgripper, gear3, shaft3)&#45;&gt;sequence:
 insert(left_hand, defaultgripper, gear3, shaft3) -->
<g id="edge17" class="edge">
<title>selector:
 insert(left_hand, defaultgripper, gear3, shaft3)&#45;&gt;sequence:
 insert(left_hand, defaultgripper, gear3, shaft3)</title>
<path fill="none" stroke="black" d="M3004.62,-645.18C3167.56,-628.32 3381.21,-606.22 3542.1,-589.58"/>
<polygon fill="black" stroke="black" points="3542.55,-593.05 3552.14,-588.54 3541.83,-586.09 3542.55,-593.05"/>
</g>
<!-- selector:
 change_tool(left_hand, outwardgripper, defaultgripper) -->
<g id="node19" class="node">
<title>selector:
 change_tool(left_hand, outwardgripper, defaultgripper)</title>
<polygon fill="#8deeee" stroke="black" points="3804.09,-442.54 3804.09,-473.18 3570.04,-494.84 3239.05,-494.84 3005,-473.18 3005,-442.54 3239.05,-420.88 3570.04,-420.88 3804.09,-442.54"/>
<text text-anchor="middle" x="3404.55" y="-463.46" font-family="Times,serif" font-size="18.00">selector:</text>
<text text-anchor="middle" x="3404.55" y="-443.46" font-family="Times,serif" font-size="18.00"> change_tool(left_hand, outwardgripper, defaultgripper)</text>
</g>
<!-- sequence:
 insert(left_hand, defaultgripper, gear3, shaft3)&#45;&gt;selector:
 change_tool(left_hand, outwardgripper, defaultgripper) -->
<g id="edge18" class="edge">
<title>sequence:
 insert(left_hand, defaultgripper, gear3, shaft3)&#45;&gt;selector:
 change_tool(left_hand, outwardgripper, defaultgripper)</title>
<path fill="none" stroke="black" d="M3692.89,-540.44C3648.31,-527.82 3591.93,-511.87 3540.88,-497.43"/>
<polygon fill="black" stroke="black" points="3541.65,-494.01 3531.08,-494.66 3539.75,-500.75 3541.65,-494.01"/>
</g>
<!-- &quot;selector:\n pick_up(left_hand, outwardgripper, gear3)&quot;* -->
<g id="node30" class="node">
<title>&quot;selector:\n pick_up(left_hand, outwardgripper, gear3)&quot;*</title>
<polygon fill="#8deeee" stroke="black" points="4468.52,-442.54 4468.52,-473.18 4279.32,-494.84 4011.77,-494.84 3822.58,-473.18 3822.58,-442.54 4011.77,-420.88 4279.32,-420.88 4468.52,-442.54"/>
<text text-anchor="middle" x="4145.55" y="-463.46" font-family="Times,serif" font-size="18.00">&quot;selector:</text>
<text text-anchor="middle" x="4145.55" y="-443.46" font-family="Times,serif" font-size="18.00"> pick_up(left_hand, outwardgripper, gear3)&quot;*</text>
</g>
<!-- sequence:
 insert(left_hand, defaultgripper, gear3, shaft3)&#45;&gt;&quot;selector:\n pick_up(left_hand, outwardgripper, gear3)&quot;* -->
<g id="edge29" class="edge">
<title>sequence:
 insert(left_hand, defaultgripper, gear3, shaft3)&#45;&gt;&quot;selector:\n pick_up(left_hand, outwardgripper, gear3)&quot;*</title>
<path fill="none" stroke="black" d="M3856.42,-540.44C3901.13,-527.82 3957.65,-511.87 4008.84,-497.43"/>
<polygon fill="black" stroke="black" points="4010,-500.74 4018.67,-494.66 4008.1,-494 4010,-500.74"/>
</g>
<!-- action:
 insert(left_hand, defaultgripper, gear3, shaft3) -->
<g id="node41" class="node">
<title>action:
 insert(left_hand, defaultgripper, gear3, shaft3)</title>
<ellipse fill="lightgreen" stroke="black" cx="4801.55" cy="-457.86" rx="314.83" ry="33.88"/>
<text text-anchor="middle" x="4801.55" y="-463.46" font-family="Times,serif" font-size="18.00">action:</text>
<text text-anchor="middle" x="4801.55" y="-443.46" font-family="Times,serif" font-size="18.00"> insert(left_hand, defaultgripper, gear3, shaft3)</text>
</g>
<!-- sequence:
 insert(left_hand, defaultgripper, gear3, shaft3)&#45;&gt;action:
 insert(left_hand, defaultgripper, gear3, shaft3) -->
<g id="edge40" class="edge">
<title>sequence:
 insert(left_hand, defaultgripper, gear3, shaft3)&#45;&gt;action:
 insert(left_hand, defaultgripper, gear3, shaft3)</title>
<path fill="none" stroke="black" d="M3997.43,-542.38C4135.7,-529.07 4317,-511.32 4477.55,-494.6 4509.81,-491.24 4543.87,-487.59 4577.3,-483.95"/>
<polygon fill="black" stroke="black" points="4578.09,-487.39 4587.65,-482.82 4577.33,-480.43 4578.09,-487.39"/>
</g>
<!-- target:
 hold(left_hand, defaultgripper) -->
<g id="node20" class="node">
<title>target:
 hold(left_hand, defaultgripper)</title>
<ellipse fill="#ffec8b" stroke="black" cx="2911.55" cy="-351.18" rx="213.59" ry="33.88"/>
<text text-anchor="middle" x="2911.55" y="-356.78" font-family="Times,serif" font-size="18.00">target:</text>
<text text-anchor="middle" x="2911.55" y="-336.78" font-family="Times,serif" font-size="18.00"> hold(left_hand, defaultgripper)</text>
</g>
<!-- selector:
 change_tool(left_hand, outwardgripper, defaultgripper)&#45;&gt;target:
 hold(left_hand, defaultgripper) -->
<g id="edge19" class="edge">
<title>selector:
 change_tool(left_hand, outwardgripper, defaultgripper)&#45;&gt;target:
 hold(left_hand, defaultgripper)</title>
<path fill="none" stroke="black" d="M3236.26,-421.13C3174.43,-408 3105.27,-393.31 3046.72,-380.88"/>
<polygon fill="black" stroke="black" points="3047.17,-377.4 3036.66,-378.75 3045.72,-384.25 3047.17,-377.4"/>
</g>
<!-- sequence:
 change_tool(left_hand, outwardgripper, defaultgripper) -->
<g id="node21" class="node">
<title>sequence:
 change_tool(left_hand, outwardgripper, defaultgripper)</title>
<polygon fill="#ff7f24" stroke="black" points="3665.55,-375.18 3143.55,-375.18 3143.55,-327.18 3665.55,-327.18 3665.55,-375.18"/>
<text text-anchor="middle" x="3404.55" y="-356.78" font-family="Times,serif" font-size="18.00">sequence:</text>
<text text-anchor="middle" x="3404.55" y="-336.78" font-family="Times,serif" font-size="18.00"> change_tool(left_hand, outwardgripper, defaultgripper)</text>
</g>
<!-- selector:
 change_tool(left_hand, outwardgripper, defaultgripper)&#45;&gt;sequence:
 change_tool(left_hand, outwardgripper, defaultgripper) -->
<g id="edge20" class="edge">
<title>selector:
 change_tool(left_hand, outwardgripper, defaultgripper)&#45;&gt;sequence:
 change_tool(left_hand, outwardgripper, defaultgripper)</title>
<path fill="none" stroke="black" d="M3404.55,-420.84C3404.55,-409.45 3404.55,-396.92 3404.55,-385.72"/>
<polygon fill="black" stroke="black" points="3408.05,-385.47 3404.55,-375.47 3401.05,-385.47 3408.05,-385.47"/>
</g>
<!-- &quot;precondition:\n hold(left_hand, outwardgripper)&quot;* -->
<g id="node22" class="node">
<title>&quot;precondition:\n hold(left_hand, outwardgripper)&quot;*</title>
<ellipse fill="#ffec8b" stroke="black" cx="2663.55" cy="-244.5" rx="233.19" ry="33.88"/>
<text text-anchor="middle" x="2663.55" y="-250.1" font-family="Times,serif" font-size="18.00">&quot;precondition:</text>
<text text-anchor="middle" x="2663.55" y="-230.1" font-family="Times,serif" font-size="18.00"> hold(left_hand, outwardgripper)&quot;*</text>
</g>
<!-- sequence:
 change_tool(left_hand, outwardgripper, defaultgripper)&#45;&gt;&quot;precondition:\n hold(left_hand, outwardgripper)&quot;* -->
<g id="edge21" class="edge">
<title>sequence:
 change_tool(left_hand, outwardgripper, defaultgripper)&#45;&gt;&quot;precondition:\n hold(left_hand, outwardgripper)&quot;*</title>
<path fill="none" stroke="black" d="M3235.02,-327.16C3138.43,-313.94 3015.17,-296.91 2905.55,-281.24 2882.17,-277.9 2857.54,-274.32 2833.3,-270.77"/>
<polygon fill="black" stroke="black" points="2833.71,-267.3 2823.3,-269.31 2832.69,-274.22 2833.71,-267.3"/>
</g>
<!-- selector:
 put_down(left_hand, outwardgripper, gear3) -->
<g id="node23" class="node">
<title>selector:
 put_down(left_hand, outwardgripper, gear3)</title>
<polygon fill="#8deeee" stroke="black" points="3562.05,-229.19 3562.05,-259.82 3372.54,-281.48 3104.55,-281.48 2915.05,-259.82 2915.05,-229.19 3104.55,-207.53 3372.54,-207.53 3562.05,-229.19"/>
<text text-anchor="middle" x="3238.55" y="-250.1" font-family="Times,serif" font-size="18.00">selector:</text>
<text text-anchor="middle" x="3238.55" y="-230.1" font-family="Times,serif" font-size="18.00"> put_down(left_hand, outwardgripper, gear3)</text>
</g>
<!-- sequence:
 change_tool(left_hand, outwardgripper, defaultgripper)&#45;&gt;selector:
 put_down(left_hand, outwardgripper, gear3) -->
<g id="edge22" class="edge">
<title>sequence:
 change_tool(left_hand, outwardgripper, defaultgripper)&#45;&gt;selector:
 put_down(left_hand, outwardgripper, gear3)</title>
<path fill="none" stroke="black" d="M3367.71,-326.95C3348.99,-315.14 3325.67,-300.44 3304.02,-286.79"/>
<polygon fill="black" stroke="black" points="3305.83,-283.79 3295.51,-281.42 3302.1,-289.72 3305.83,-283.79"/>
</g>
<!-- action:
 change_tool(left_hand, outwardgripper, defaultgripper) -->
<g id="node29" class="node">
<title>action:
 change_tool(left_hand, outwardgripper, defaultgripper)</title>
<ellipse fill="lightgreen" stroke="black" cx="3949.55" cy="-244.5" rx="369.22" ry="33.88"/>
<text text-anchor="middle" x="3949.55" y="-250.1" font-family="Times,serif" font-size="18.00">action:</text>
<text text-anchor="middle" x="3949.55" y="-230.1" font-family="Times,serif" font-size="18.00"> change_tool(left_hand, outwardgripper, defaultgripper)</text>
</g>
<!-- sequence:
 change_tool(left_hand, outwardgripper, defaultgripper)&#45;&gt;action:
 change_tool(left_hand, outwardgripper, defaultgripper) -->
<g id="edge28" class="edge">
<title>sequence:
 change_tool(left_hand, outwardgripper, defaultgripper)&#45;&gt;action:
 change_tool(left_hand, outwardgripper, defaultgripper)</title>
<path fill="none" stroke="black" d="M3524.49,-327.14C3600.83,-312.48 3700.75,-293.29 3784.53,-277.2"/>
<polygon fill="black" stroke="black" points="3785.24,-280.62 3794.4,-275.3 3783.92,-273.75 3785.24,-280.62"/>
</g>
<!-- target:
 is_empty(outwardgripper) -->
<g id="node24" class="node">
<title>target:
 is_empty(outwardgripper)</title>
<ellipse fill="#ffec8b" stroke="black" cx="3037.55" cy="-137.82" rx="183.28" ry="33.88"/>
<text text-anchor="middle" x="3037.55" y="-143.42" font-family="Times,serif" font-size="18.00">target:</text>
<text text-anchor="middle" x="3037.55" y="-123.42" font-family="Times,serif" font-size="18.00"> is_empty(outwardgripper)</text>
</g>
<!-- selector:
 put_down(left_hand, outwardgripper, gear3)&#45;&gt;target:
 is_empty(outwardgripper) -->
<g id="edge23" class="edge">
<title>selector:
 put_down(left_hand, outwardgripper, gear3)&#45;&gt;target:
 is_empty(outwardgripper)</title>
<path fill="none" stroke="black" d="M3169.65,-207.62C3149.16,-196.95 3126.72,-185.26 3106.24,-174.6"/>
<polygon fill="black" stroke="black" points="3107.78,-171.45 3097.29,-169.94 3104.54,-177.66 3107.78,-171.45"/>
</g>
<!-- sequence:
 put_down(left_hand, outwardgripper, gear3) -->
<g id="node25" class="node">
<title>sequence:
 put_down(left_hand, outwardgripper, gear3)</title>
<polygon fill="#ff7f24" stroke="black" points="3662.05,-161.82 3239.05,-161.82 3239.05,-113.82 3662.05,-113.82 3662.05,-161.82"/>
<text text-anchor="middle" x="3450.55" y="-143.42" font-family="Times,serif" font-size="18.00">sequence:</text>
<text text-anchor="middle" x="3450.55" y="-123.42" font-family="Times,serif" font-size="18.00"> put_down(left_hand, outwardgripper, gear3)</text>
</g>
<!-- selector:
 put_down(left_hand, outwardgripper, gear3)&#45;&gt;sequence:
 put_down(left_hand, outwardgripper, gear3) -->
<g id="edge24" class="edge">
<title>selector:
 put_down(left_hand, outwardgripper, gear3)&#45;&gt;sequence:
 put_down(left_hand, outwardgripper, gear3)</title>
<path fill="none" stroke="black" d="M3311.21,-207.62C3338.54,-194.13 3369.16,-179.01 3394.72,-166.39"/>
<polygon fill="black" stroke="black" points="3396.47,-169.43 3403.89,-161.86 3393.37,-163.15 3396.47,-169.43"/>
</g>
<!-- &quot;precondition:\n hold(left_hand, outwardgripper)&quot;** -->
<g id="node26" class="node">
<title>&quot;precondition:\n hold(left_hand, outwardgripper)&quot;**</title>
<ellipse fill="#ffec8b" stroke="black" cx="2996.55" cy="-33.94" rx="239.92" ry="33.88"/>
<text text-anchor="middle" x="2996.55" y="-39.54" font-family="Times,serif" font-size="18.00">&quot;precondition:</text>
<text text-anchor="middle" x="2996.55" y="-19.54" font-family="Times,serif" font-size="18.00"> hold(left_hand, outwardgripper)&quot;**</text>
</g>
<!-- sequence:
 put_down(left_hand, outwardgripper, gear3)&#45;&gt;&quot;precondition:\n hold(left_hand, outwardgripper)&quot;** -->
<g id="edge25" class="edge">
<title>sequence:
 put_down(left_hand, outwardgripper, gear3)&#45;&gt;&quot;precondition:\n hold(left_hand, outwardgripper)&quot;**</title>
<path fill="none" stroke="black" d="M3347.81,-113.77C3283.86,-99.42 3200.89,-80.8 3131.65,-65.26"/>
<polygon fill="black" stroke="black" points="3132.06,-61.77 3121.54,-62.99 3130.53,-68.6 3132.06,-61.77"/>
</g>
<!-- precondition:
 hold(outwardgripper, gear3) -->
<g id="node27" class="node">
<title>precondition:
 hold(outwardgripper, gear3)</title>
<ellipse fill="#ffec8b" stroke="black" cx="3450.55" cy="-33.94" rx="196.65" ry="33.88"/>
<text text-anchor="middle" x="3450.55" y="-39.54" font-family="Times,serif" font-size="18.00">precondition:</text>
<text text-anchor="middle" x="3450.55" y="-19.54" font-family="Times,serif" font-size="18.00"> hold(outwardgripper, gear3)</text>
</g>
<!-- sequence:
 put_down(left_hand, outwardgripper, gear3)&#45;&gt;precondition:
 hold(outwardgripper, gear3) -->
<g id="edge26" class="edge">
<title>sequence:
 put_down(left_hand, outwardgripper, gear3)&#45;&gt;precondition:
 hold(outwardgripper, gear3)</title>
<path fill="none" stroke="black" d="M3450.55,-113.7C3450.55,-103.16 3450.55,-90.31 3450.55,-78.08"/>
<polygon fill="black" stroke="black" points="3454.05,-78.01 3450.55,-68.01 3447.05,-78.01 3454.05,-78.01"/>
</g>
<!-- action:
 put_down(left_hand, outwardgripper, gear3) -->
<g id="node28" class="node">
<title>action:
 put_down(left_hand, outwardgripper, gear3)</title>
<ellipse fill="lightgreen" stroke="black" cx="3964.55" cy="-33.94" rx="299.21" ry="33.88"/>
<text text-anchor="middle" x="3964.55" y="-39.54" font-family="Times,serif" font-size="18.00">action:</text>
<text text-anchor="middle" x="3964.55" y="-19.54" font-family="Times,serif" font-size="18.00"> put_down(left_hand, outwardgripper, gear3)</text>
</g>
<!-- sequence:
 put_down(left_hand, outwardgripper, gear3)&#45;&gt;action:
 put_down(left_hand, outwardgripper, gear3) -->
<g id="edge27" class="edge">
<title>sequence:
 put_down(left_hand, outwardgripper, gear3)&#45;&gt;action:
 put_down(left_hand, outwardgripper, gear3)</title>
<path fill="none" stroke="black" d="M3566.86,-113.77C3638.71,-99.53 3731.77,-81.08 3809.8,-65.61"/>
<polygon fill="black" stroke="black" points="3810.6,-69.02 3819.73,-63.65 3809.24,-62.16 3810.6,-69.02"/>
</g>
<!-- &quot;target:\n hold(outwardgripper, gear3)&quot;* -->
<g id="node31" class="node">
<title>&quot;target:\n hold(outwardgripper, gear3)&quot;*</title>
<ellipse fill="#ffec8b" stroke="black" cx="4145.55" cy="-351.18" rx="209.11" ry="33.88"/>
<text text-anchor="middle" x="4145.55" y="-356.78" font-family="Times,serif" font-size="18.00">&quot;target:</text>
<text text-anchor="middle" x="4145.55" y="-336.78" font-family="Times,serif" font-size="18.00"> hold(outwardgripper, gear3)&quot;*</text>
</g>
<!-- &quot;selector:\n pick_up(left_hand, outwardgripper, gear3)&quot;*&#45;&gt;&quot;target:\n hold(outwardgripper, gear3)&quot;* -->
<g id="edge30" class="edge">
<title>&quot;selector:\n pick_up(left_hand, outwardgripper, gear3)&quot;*&#45;&gt;&quot;target:\n hold(outwardgripper, gear3)&quot;*</title>
<path fill="none" stroke="black" d="M4145.55,-420.84C4145.55,-412.68 4145.55,-403.93 4145.55,-395.51"/>
<polygon fill="black" stroke="black" points="4149.05,-395.46 4145.55,-385.46 4142.05,-395.46 4149.05,-395.46"/>
</g>
<!-- &quot;sequence:\n pick_up(left_hand, outwardgripper, gear3)&quot;* -->
<g id="node32" class="node">
<title>&quot;sequence:\n pick_up(left_hand, outwardgripper, gear3)&quot;*</title>
<polygon fill="#ff7f24" stroke="black" points="5273.55,-375.18 4851.55,-375.18 4851.55,-327.18 5273.55,-327.18 5273.55,-375.18"/>
<text text-anchor="middle" x="5062.55" y="-356.78" font-family="Times,serif" font-size="18.00">&quot;sequence:</text>
<text text-anchor="middle" x="5062.55" y="-336.78" font-family="Times,serif" font-size="18.00"> pick_up(left_hand, outwardgripper, gear3)&quot;*</text>
</g>
<!-- &quot;selector:\n pick_up(left_hand, outwardgripper, gear3)&quot;*&#45;&gt;&quot;sequence:\n pick_up(left_hand, outwardgripper, gear3)&quot;* -->
<g id="edge31" class="edge">
<title>&quot;selector:\n pick_up(left_hand, outwardgripper, gear3)&quot;*&#45;&gt;&quot;sequence:\n pick_up(left_hand, outwardgripper, gear3)&quot;*</title>
<path fill="none" stroke="black" d="M4370.16,-431.22C4516.71,-414.49 4706.78,-392.79 4850.7,-376.36"/>
<polygon fill="black" stroke="black" points="4851.44,-379.8 4860.98,-375.19 4850.64,-372.85 4851.44,-379.8"/>
</g>
<!-- &quot;selector:\n change_tool(left_hand, defaultgripper, outwardgripper)&quot;* -->
<g id="node33" class="node">
<title>&quot;selector:\n change_tool(left_hand, defaultgripper, outwardgripper)&quot;*</title>
<polygon fill="#8deeee" stroke="black" points="5162.11,-229.19 5162.11,-259.82 4920.44,-281.48 4578.66,-281.48 4336.98,-259.82 4336.98,-229.19 4578.66,-207.53 4920.44,-207.53 5162.11,-229.19"/>
<text text-anchor="middle" x="4749.55" y="-250.1" font-family="Times,serif" font-size="18.00">&quot;selector:</text>
<text text-anchor="middle" x="4749.55" y="-230.1" font-family="Times,serif" font-size="18.00"> change_tool(left_hand, defaultgripper, outwardgripper)&quot;*</text>
</g>
<!-- &quot;sequence:\n pick_up(left_hand, outwardgripper, gear3)&quot;*&#45;&gt;&quot;selector:\n change_tool(left_hand, defaultgripper, outwardgripper)&quot;* -->
<g id="edge32" class="edge">
<title>&quot;sequence:\n pick_up(left_hand, outwardgripper, gear3)&quot;*&#45;&gt;&quot;selector:\n change_tool(left_hand, defaultgripper, outwardgripper)&quot;*</title>
<path fill="none" stroke="black" d="M4993.47,-327.08C4956.15,-314.6 4909.05,-298.85 4866.23,-284.52"/>
<polygon fill="black" stroke="black" points="4867.18,-281.15 4856.59,-281.3 4864.96,-287.79 4867.18,-281.15"/>
</g>
<!-- &quot;precondition:\n is_empty(outwardgripper)&quot;* -->
<g id="node39" class="node">
<title>&quot;precondition:\n is_empty(outwardgripper)&quot;*</title>
<ellipse fill="#ffec8b" stroke="black" cx="5375.55" cy="-244.5" rx="195.32" ry="33.88"/>
<text text-anchor="middle" x="5375.55" y="-250.1" font-family="Times,serif" font-size="18.00">&quot;precondition:</text>
<text text-anchor="middle" x="5375.55" y="-230.1" font-family="Times,serif" font-size="18.00"> is_empty(outwardgripper)&quot;*</text>
</g>
<!-- &quot;sequence:\n pick_up(left_hand, outwardgripper, gear3)&quot;*&#45;&gt;&quot;precondition:\n is_empty(outwardgripper)&quot;* -->
<g id="edge38" class="edge">
<title>&quot;sequence:\n pick_up(left_hand, outwardgripper, gear3)&quot;*&#45;&gt;&quot;precondition:\n is_empty(outwardgripper)&quot;*</title>
<path fill="none" stroke="black" d="M5131.62,-327.08C5174.66,-312.69 5230.67,-293.95 5278.17,-278.07"/>
<polygon fill="black" stroke="black" points="5279.49,-281.32 5287.86,-274.83 5277.27,-274.68 5279.49,-281.32"/>
</g>
<!-- &quot;action:\n pick_up(left_hand, outwardgripper, gear3)&quot;* -->
<g id="node40" class="node">
<title>&quot;action:\n pick_up(left_hand, outwardgripper, gear3)&quot;*</title>
<ellipse fill="lightgreen" stroke="black" cx="5887.55" cy="-244.5" rx="298.3" ry="33.88"/>
<text text-anchor="middle" x="5887.55" y="-250.1" font-family="Times,serif" font-size="18.00">&quot;action:</text>
<text text-anchor="middle" x="5887.55" y="-230.1" font-family="Times,serif" font-size="18.00"> pick_up(left_hand, outwardgripper, gear3)&quot;*</text>
</g>
<!-- &quot;sequence:\n pick_up(left_hand, outwardgripper, gear3)&quot;*&#45;&gt;&quot;action:\n pick_up(left_hand, outwardgripper, gear3)&quot;* -->
<g id="edge39" class="edge">
<title>&quot;sequence:\n pick_up(left_hand, outwardgripper, gear3)&quot;*&#45;&gt;&quot;action:\n pick_up(left_hand, outwardgripper, gear3)&quot;*</title>
<path fill="none" stroke="black" d="M5243.85,-327.18C5373.43,-310.73 5547.97,-288.59 5682.61,-271.51"/>
<polygon fill="black" stroke="black" points="5683.16,-274.96 5692.64,-270.23 5682.28,-268.02 5683.16,-274.96"/>
</g>
<!-- &quot;target:\n hold(left_hand, outwardgripper)&quot;* -->
<g id="node34" class="node">
<title>&quot;target:\n hold(left_hand, outwardgripper)&quot;*</title>
<ellipse fill="#ffec8b" stroke="black" cx="4428.55" cy="-137.82" rx="233.19" ry="33.88"/>
<text text-anchor="middle" x="4428.55" y="-143.42" font-family="Times,serif" font-size="18.00">&quot;target:</text>
<text text-anchor="middle" x="4428.55" y="-123.42" font-family="Times,serif" font-size="18.00"> hold(left_hand, outwardgripper)&quot;*</text>
</g>
<!-- &quot;selector:\n change_tool(left_hand, defaultgripper, outwardgripper)&quot;*&#45;&gt;&quot;target:\n hold(left_hand, outwardgripper)&quot;* -->
<g id="edge33" class="edge">
<title>&quot;selector:\n change_tool(left_hand, defaultgripper, outwardgripper)&quot;*&#45;&gt;&quot;target:\n hold(left_hand, outwardgripper)&quot;*</title>
<path fill="none" stroke="black" d="M4639.53,-207.62C4604.27,-196.13 4565.4,-183.45 4530.73,-172.15"/>
<polygon fill="black" stroke="black" points="4531.67,-168.77 4521.07,-169 4529.5,-175.42 4531.67,-168.77"/>
</g>
<!-- &quot;sequence:\n change_tool(left_hand, defaultgripper, outwardgripper)&quot;* -->
<g id="node35" class="node">
<title>&quot;sequence:\n change_tool(left_hand, defaultgripper, outwardgripper)&quot;*</title>
<polygon fill="#ff7f24" stroke="black" points="5219.05,-161.82 4680.05,-161.82 4680.05,-113.82 5219.05,-113.82 5219.05,-161.82"/>
<text text-anchor="middle" x="4949.55" y="-143.42" font-family="Times,serif" font-size="18.00">&quot;sequence:</text>
<text text-anchor="middle" x="4949.55" y="-123.42" font-family="Times,serif" font-size="18.00"> change_tool(left_hand, defaultgripper, outwardgripper)&quot;*</text>
</g>
<!-- &quot;selector:\n change_tool(left_hand, defaultgripper, outwardgripper)&quot;*&#45;&gt;&quot;sequence:\n change_tool(left_hand, defaultgripper, outwardgripper)&quot;* -->
<g id="edge34" class="edge">
<title>&quot;selector:\n change_tool(left_hand, defaultgripper, outwardgripper)&quot;*&#45;&gt;&quot;sequence:\n change_tool(left_hand, defaultgripper, outwardgripper)&quot;*</title>
<path fill="none" stroke="black" d="M4818.1,-207.62C4843.76,-194.19 4872.51,-179.14 4896.56,-166.56"/>
<polygon fill="black" stroke="black" points="4898.29,-169.6 4905.53,-161.86 4895.05,-163.4 4898.29,-169.6"/>
</g>
<!-- &quot;precondition:\n hold(left_hand, defaultgripper)&quot;* -->
<g id="node36" class="node">
<title>&quot;precondition:\n hold(left_hand, defaultgripper)&quot;*</title>
<ellipse fill="#ffec8b" stroke="black" cx="4518.55" cy="-33.94" rx="225.63" ry="33.88"/>
<text text-anchor="middle" x="4518.55" y="-39.54" font-family="Times,serif" font-size="18.00">&quot;precondition:</text>
<text text-anchor="middle" x="4518.55" y="-19.54" font-family="Times,serif" font-size="18.00"> hold(left_hand, defaultgripper)&quot;*</text>
</g>
<!-- &quot;sequence:\n change_tool(left_hand, defaultgripper, outwardgripper)&quot;*&#45;&gt;&quot;precondition:\n hold(left_hand, defaultgripper)&quot;* -->
<g id="edge35" class="edge">
<title>&quot;sequence:\n change_tool(left_hand, defaultgripper, outwardgripper)&quot;*&#45;&gt;&quot;precondition:\n hold(left_hand, defaultgripper)&quot;*</title>
<path fill="none" stroke="black" d="M4852.01,-113.77C4791.31,-99.42 4712.56,-80.8 4646.83,-65.27"/>
<polygon fill="black" stroke="black" points="4647.35,-61.79 4636.81,-62.9 4645.74,-68.6 4647.35,-61.79"/>
</g>
<!-- &quot;precondition:\n is_empty(defaultgripper)&quot;* -->
<g id="node37" class="node">
<title>&quot;precondition:\n is_empty(defaultgripper)&quot;*</title>
<ellipse fill="#ffec8b" stroke="black" cx="4949.55" cy="-33.94" rx="187.27" ry="33.88"/>
<text text-anchor="middle" x="4949.55" y="-39.54" font-family="Times,serif" font-size="18.00">&quot;precondition:</text>
<text text-anchor="middle" x="4949.55" y="-19.54" font-family="Times,serif" font-size="18.00"> is_empty(defaultgripper)&quot;*</text>
</g>
<!-- &quot;sequence:\n change_tool(left_hand, defaultgripper, outwardgripper)&quot;*&#45;&gt;&quot;precondition:\n is_empty(defaultgripper)&quot;* -->
<g id="edge36" class="edge">
<title>&quot;sequence:\n change_tool(left_hand, defaultgripper, outwardgripper)&quot;*&#45;&gt;&quot;precondition:\n is_empty(defaultgripper)&quot;*</title>
<path fill="none" stroke="black" d="M4949.55,-113.7C4949.55,-103.16 4949.55,-90.31 4949.55,-78.08"/>
<polygon fill="black" stroke="black" points="4953.05,-78.01 4949.55,-68.01 4946.05,-78.01 4953.05,-78.01"/>
</g>
<!-- &quot;action:\n change_tool(left_hand, defaultgripper, outwardgripper)&quot;* -->
<g id="node38" class="node">
<title>&quot;action:\n change_tool(left_hand, defaultgripper, outwardgripper)&quot;*</title>
<ellipse fill="lightgreen" stroke="black" cx="5536.55" cy="-33.94" rx="381.26" ry="33.88"/>
<text text-anchor="middle" x="5536.55" y="-39.54" font-family="Times,serif" font-size="18.00">&quot;action:</text>
<text text-anchor="middle" x="5536.55" y="-19.54" font-family="Times,serif" font-size="18.00"> change_tool(left_hand, defaultgripper, outwardgripper)&quot;*</text>
</g>
<!-- &quot;sequence:\n change_tool(left_hand, defaultgripper, outwardgripper)&quot;*&#45;&gt;&quot;action:\n change_tool(left_hand, defaultgripper, outwardgripper)&quot;* -->
<g id="edge37" class="edge">
<title>&quot;sequence:\n change_tool(left_hand, defaultgripper, outwardgripper)&quot;*&#45;&gt;&quot;action:\n change_tool(left_hand, defaultgripper, outwardgripper)&quot;*</title>
<path fill="none" stroke="black" d="M5082.38,-113.77C5163.63,-99.67 5268.63,-81.44 5357.19,-66.07"/>
<polygon fill="black" stroke="black" points="5357.83,-69.51 5367.08,-64.35 5356.63,-62.62 5357.83,-69.51"/>
</g>
</g>
</svg>
