<?xml version="1.0" encoding="UTF-8" standalone="no"?>
<!DOCTYPE svg PUBLIC "-//W3C//DTD SVG 1.1//EN"
 "http://www.w3.org/Graphics/SVG/1.1/DTD/svg11.dtd">
<!-- Generated by graphviz version 2.43.0 (0)
 -->
<!-- Title: pastafarianism Pages: 1 -->
<svg width="4854pt" height="716pt"
 viewBox="0.00 0.00 4854.21 715.95" xmlns="http://www.w3.org/2000/svg" xmlns:xlink="http://www.w3.org/1999/xlink">
<g id="graph0" class="graph" transform="scale(1 1) rotate(0) translate(4 711.95)">
<title>pastafarianism</title>
<polygon fill="white" stroke="transparent" points="-4,4 -4,-711.95 4850.21,-711.95 4850.21,4 -4,4"/>
<!-- selector:
 insert(left_hand, outwardgripper, gear3, shaft3) -->
<g id="node1" class="node">
<title>selector:
 insert(left_hand, outwardgripper, gear3, shaft3)</title>
<polygon fill="#8deeee" stroke="black" points="2553.56,-655.9 2553.56,-686.53 2349.11,-708.19 2059.98,-708.19 1855.53,-686.53 1855.53,-655.9 2059.98,-634.24 2349.11,-634.24 2553.56,-655.9"/>
<text text-anchor="middle" x="2204.55" y="-676.82" font-family="Times,serif" font-size="18.00">selector:</text>
<text text-anchor="middle" x="2204.55" y="-656.82" font-family="Times,serif" font-size="18.00"> insert(left_hand, outwardgripper, gear3, shaft3)</text>
</g>
<!-- target:
 is_inserted_to(gear3, shaft3) -->
<g id="node2" class="node">
<title>target:
 is_inserted_to(gear3, shaft3)</title>
<ellipse fill="#ffec8b" stroke="black" cx="1982.55" cy="-564.54" rx="198.89" ry="33.88"/>
<text text-anchor="middle" x="1982.55" y="-570.14" font-family="Times,serif" font-size="18.00">target:</text>
<text text-anchor="middle" x="1982.55" y="-550.14" font-family="Times,serif" font-size="18.00"> is_inserted_to(gear3, shaft3)</text>
</g>
<!-- selector:
 insert(left_hand, outwardgripper, gear3, shaft3)&#45;&gt;target:
 is_inserted_to(gear3, shaft3) -->
<g id="edge1" class="edge">
<title>selector:
 insert(left_hand, outwardgripper, gear3, shaft3)&#45;&gt;target:
 is_inserted_to(gear3, shaft3)</title>
<path fill="none" stroke="black" d="M2128.46,-634.34C2105.62,-623.57 2080.59,-611.77 2057.81,-601.03"/>
<polygon fill="black" stroke="black" points="2059.07,-597.75 2048.53,-596.65 2056.08,-604.08 2059.07,-597.75"/>
</g>
<!-- sequence:
 insert(left_hand, outwardgripper, gear3, shaft3) -->
<g id="node3" class="node">
<title>sequence:
 insert(left_hand, outwardgripper, gear3, shaft3)</title>
<polygon fill="#ff7f24" stroke="black" points="2655.55,-588.54 2199.55,-588.54 2199.55,-540.54 2655.55,-540.54 2655.55,-588.54"/>
<text text-anchor="middle" x="2427.55" y="-570.14" font-family="Times,serif" font-size="18.00">sequence:</text>
<text text-anchor="middle" x="2427.55" y="-550.14" font-family="Times,serif" font-size="18.00"> insert(left_hand, outwardgripper, gear3, shaft3)</text>
</g>
<!-- selector:
 insert(left_hand, outwardgripper, gear3, shaft3)&#45;&gt;sequence:
 insert(left_hand, outwardgripper, gear3, shaft3) -->
<g id="edge2" class="edge">
<title>selector:
 insert(left_hand, outwardgripper, gear3, shaft3)&#45;&gt;sequence:
 insert(left_hand, outwardgripper, gear3, shaft3)</title>
<path fill="none" stroke="black" d="M2280.98,-634.34C2309.85,-620.79 2342.22,-605.59 2369.17,-592.94"/>
<polygon fill="black" stroke="black" points="2370.9,-595.99 2378.47,-588.58 2367.93,-589.66 2370.9,-595.99"/>
</g>
<!-- selector:
 change_tool(left_hand, defaultgripper, outwardgripper) -->
<g id="node4" class="node">
<title>selector:
 change_tool(left_hand, defaultgripper, outwardgripper)</title>
<polygon fill="#8deeee" stroke="black" points="1301.09,-442.54 1301.09,-473.18 1067.04,-494.84 736.05,-494.84 502,-473.18 502,-442.54 736.05,-420.88 1067.04,-420.88 1301.09,-442.54"/>
<text text-anchor="middle" x="901.55" y="-463.46" font-family="Times,serif" font-size="18.00">selector:</text>
<text text-anchor="middle" x="901.55" y="-443.46" font-family="Times,serif" font-size="18.00"> change_tool(left_hand, defaultgripper, outwardgripper)</text>
</g>
<!-- sequence:
 insert(left_hand, outwardgripper, gear3, shaft3)&#45;&gt;selector:
 change_tool(left_hand, defaultgripper, outwardgripper) -->
<g id="edge3" class="edge">
<title>sequence:
 insert(left_hand, outwardgripper, gear3, shaft3)&#45;&gt;selector:
 change_tool(left_hand, defaultgripper, outwardgripper)</title>
<path fill="none" stroke="black" d="M2275.41,-540.5C2247.24,-536.77 2218.04,-533.27 2190.55,-530.6 1897.21,-502.1 1565.14,-483.95 1311.51,-473.04"/>
<polygon fill="black" stroke="black" points="1311.53,-469.53 1301.39,-472.6 1311.23,-476.53 1311.53,-469.53"/>
</g>
<!-- selector:
 pick_up(left_hand, outwardgripper, gear3) -->
<g id="node10" class="node">
<title>selector:
 pick_up(left_hand, outwardgripper, gear3)</title>
<polygon fill="#8deeee" stroke="black" points="2403.49,-442.54 2403.49,-473.18 2221.93,-494.84 1965.16,-494.84 1783.6,-473.18 1783.6,-442.54 1965.16,-420.88 2221.93,-420.88 2403.49,-442.54"/>
<text text-anchor="middle" x="2093.55" y="-463.46" font-family="Times,serif" font-size="18.00">selector:</text>
<text text-anchor="middle" x="2093.55" y="-443.46" font-family="Times,serif" font-size="18.00"> pick_up(left_hand, outwardgripper, gear3)</text>
</g>
<!-- sequence:
 insert(left_hand, outwardgripper, gear3, shaft3)&#45;&gt;selector:
 pick_up(left_hand, outwardgripper, gear3) -->
<g id="edge9" class="edge">
<title>sequence:
 insert(left_hand, outwardgripper, gear3, shaft3)&#45;&gt;selector:
 pick_up(left_hand, outwardgripper, gear3)</title>
<path fill="none" stroke="black" d="M2353.84,-540.44C2313.84,-527.9 2263.33,-512.07 2217.48,-497.7"/>
<polygon fill="black" stroke="black" points="2218.36,-494.31 2207.77,-494.66 2216.26,-500.99 2218.36,-494.31"/>
</g>
<!-- selector:
 insert(left_hand, defaultgripper, gear3, shaft3) -->
<g id="node16" class="node">
<title>selector:
 insert(left_hand, defaultgripper, gear3, shaft3)</title>
<polygon fill="#8deeee" stroke="black" points="3103.22,-442.54 3103.22,-473.18 2903.66,-494.84 2621.43,-494.84 2421.87,-473.18 2421.87,-442.54 2621.43,-420.88 2903.66,-420.88 3103.22,-442.54"/>
<text text-anchor="middle" x="2762.55" y="-463.46" font-family="Times,serif" font-size="18.00">selector:</text>
<text text-anchor="middle" x="2762.55" y="-443.46" font-family="Times,serif" font-size="18.00"> insert(left_hand, defaultgripper, gear3, shaft3)</text>
</g>
<!-- sequence:
 insert(left_hand, outwardgripper, gear3, shaft3)&#45;&gt;selector:
 insert(left_hand, defaultgripper, gear3, shaft3) -->
<g id="edge15" class="edge">
<title>sequence:
 insert(left_hand, outwardgripper, gear3, shaft3)&#45;&gt;selector:
 insert(left_hand, defaultgripper, gear3, shaft3)</title>
<path fill="none" stroke="black" d="M2501.48,-540.44C2541.59,-527.9 2592.25,-512.07 2638.24,-497.7"/>
<polygon fill="black" stroke="black" points="2639.48,-500.98 2647.98,-494.66 2637.39,-494.3 2639.48,-500.98"/>
</g>
<!-- action:
 insert(left_hand, outwardgripper, gear3, shaft3) -->
<g id="node27" class="node">
<title>action:
 insert(left_hand, outwardgripper, gear3, shaft3)</title>
<ellipse fill="lightgreen" stroke="black" cx="3443.55" cy="-457.86" rx="322.38" ry="33.88"/>
<text text-anchor="middle" x="3443.55" y="-463.46" font-family="Times,serif" font-size="18.00">action:</text>
<text text-anchor="middle" x="3443.55" y="-443.46" font-family="Times,serif" font-size="18.00"> insert(left_hand, outwardgripper, gear3, shaft3)</text>
</g>
<!-- sequence:
 insert(left_hand, outwardgripper, gear3, shaft3)&#45;&gt;action:
 insert(left_hand, outwardgripper, gear3, shaft3) -->
<g id="edge26" class="edge">
<title>sequence:
 insert(left_hand, outwardgripper, gear3, shaft3)&#45;&gt;action:
 insert(left_hand, outwardgripper, gear3, shaft3)</title>
<path fill="none" stroke="black" d="M2655.92,-540.97C2789.13,-527.7 2960.38,-510.47 3112.55,-494.6 3145.38,-491.17 3180.04,-487.5 3214.07,-483.85"/>
<polygon fill="black" stroke="black" points="3214.56,-487.32 3224.13,-482.78 3213.81,-480.36 3214.56,-487.32"/>
</g>
<!-- target:
 hold(left_hand, outwardgripper) -->
<g id="node5" class="node">
<title>target:
 hold(left_hand, outwardgripper)</title>
<ellipse fill="#ffec8b" stroke="black" cx="401.55" cy="-351.18" rx="221.15" ry="33.88"/>
<text text-anchor="middle" x="401.55" y="-356.78" font-family="Times,serif" font-size="18.00">target:</text>
<text text-anchor="middle" x="401.55" y="-336.78" font-family="Times,serif" font-size="18.00"> hold(left_hand, outwardgripper)</text>
</g>
<!-- selector:
 change_tool(left_hand, defaultgripper, outwardgripper)&#45;&gt;target:
 hold(left_hand, outwardgripper) -->
<g id="edge4" class="edge">
<title>selector:
 change_tool(left_hand, defaultgripper, outwardgripper)&#45;&gt;target:
 hold(left_hand, outwardgripper)</title>
<path fill="none" stroke="black" d="M731.57,-421.27C668.95,-408.16 598.84,-393.49 539.4,-381.04"/>
<polygon fill="black" stroke="black" points="540.09,-377.61 529.58,-378.99 538.65,-384.46 540.09,-377.61"/>
</g>
<!-- sequence:
 change_tool(left_hand, defaultgripper, outwardgripper) -->
<g id="node6" class="node">
<title>sequence:
 change_tool(left_hand, defaultgripper, outwardgripper)</title>
<polygon fill="#ff7f24" stroke="black" points="1162.55,-375.18 640.55,-375.18 640.55,-327.18 1162.55,-327.18 1162.55,-375.18"/>
<text text-anchor="middle" x="901.55" y="-356.78" font-family="Times,serif" font-size="18.00">sequence:</text>
<text text-anchor="middle" x="901.55" y="-336.78" font-family="Times,serif" font-size="18.00"> change_tool(left_hand, defaultgripper, outwardgripper)</text>
</g>
<!-- selector:
 change_tool(left_hand, defaultgripper, outwardgripper)&#45;&gt;sequence:
 change_tool(left_hand, defaultgripper, outwardgripper) -->
<g id="edge5" class="edge">
<title>selector:
 change_tool(left_hand, defaultgripper, outwardgripper)&#45;&gt;sequence:
 change_tool(left_hand, defaultgripper, outwardgripper)</title>
<path fill="none" stroke="black" d="M901.55,-420.84C901.55,-409.45 901.55,-396.92 901.55,-385.72"/>
<polygon fill="black" stroke="black" points="905.05,-385.47 901.55,-375.47 898.05,-385.47 905.05,-385.47"/>
</g>
<!-- precondition:
 hold(left_hand, defaultgripper) -->
<g id="node7" class="node">
<title>precondition:
 hold(left_hand, defaultgripper)</title>
<ellipse fill="#ffec8b" stroke="black" cx="213.55" cy="-244.5" rx="213.59" ry="33.88"/>
<text text-anchor="middle" x="213.55" y="-250.1" font-family="Times,serif" font-size="18.00">precondition:</text>
<text text-anchor="middle" x="213.55" y="-230.1" font-family="Times,serif" font-size="18.00"> hold(left_hand, defaultgripper)</text>
</g>
<!-- sequence:
 change_tool(left_hand, defaultgripper, outwardgripper)&#45;&gt;precondition:
 hold(left_hand, defaultgripper) -->
<g id="edge6" class="edge">
<title>sequence:
 change_tool(left_hand, defaultgripper, outwardgripper)&#45;&gt;precondition:
 hold(left_hand, defaultgripper)</title>
<path fill="none" stroke="black" d="M743.02,-327.15C653.09,-313.96 538.48,-296.96 436.55,-281.24 415.03,-277.92 392.35,-274.36 370.03,-270.82"/>
<polygon fill="black" stroke="black" points="370.58,-267.36 360.15,-269.25 369.48,-274.27 370.58,-267.36"/>
</g>
<!-- precondition:
 is_empty(defaultgripper) -->
<g id="node8" class="node">
<title>precondition:
 is_empty(defaultgripper)</title>
<ellipse fill="#ffec8b" stroke="black" cx="620.55" cy="-244.5" rx="175.23" ry="33.88"/>
<text text-anchor="middle" x="620.55" y="-250.1" font-family="Times,serif" font-size="18.00">precondition:</text>
<text text-anchor="middle" x="620.55" y="-230.1" font-family="Times,serif" font-size="18.00"> is_empty(defaultgripper)</text>
</g>
<!-- sequence:
 change_tool(left_hand, defaultgripper, outwardgripper)&#45;&gt;precondition:
 is_empty(defaultgripper) -->
<g id="edge7" class="edge">
<title>sequence:
 change_tool(left_hand, defaultgripper, outwardgripper)&#45;&gt;precondition:
 is_empty(defaultgripper)</title>
<path fill="none" stroke="black" d="M839.53,-327.08C801.22,-312.81 751.43,-294.26 709.02,-278.46"/>
<polygon fill="black" stroke="black" points="710.12,-275.14 699.53,-274.92 707.68,-281.7 710.12,-275.14"/>
</g>
<!-- action:
 change_tool(left_hand, defaultgripper, outwardgripper) -->
<g id="node9" class="node">
<title>action:
 change_tool(left_hand, defaultgripper, outwardgripper)</title>
<ellipse fill="lightgreen" stroke="black" cx="1182.55" cy="-244.5" rx="369.22" ry="33.88"/>
<text text-anchor="middle" x="1182.55" y="-250.1" font-family="Times,serif" font-size="18.00">action:</text>
<text text-anchor="middle" x="1182.55" y="-230.1" font-family="Times,serif" font-size="18.00"> change_tool(left_hand, defaultgripper, outwardgripper)</text>
</g>
<!-- sequence:
 change_tool(left_hand, defaultgripper, outwardgripper)&#45;&gt;action:
 change_tool(left_hand, defaultgripper, outwardgripper) -->
<g id="edge8" class="edge">
<title>sequence:
 change_tool(left_hand, defaultgripper, outwardgripper)&#45;&gt;action:
 change_tool(left_hand, defaultgripper, outwardgripper)</title>
<path fill="none" stroke="black" d="M963.56,-327.08C999.77,-313.59 1046.23,-296.28 1087.02,-281.09"/>
<polygon fill="black" stroke="black" points="1088.3,-284.35 1096.45,-277.58 1085.85,-277.79 1088.3,-284.35"/>
</g>
<!-- target:
 hold(outwardgripper, gear3) -->
<g id="node11" class="node">
<title>target:
 hold(outwardgripper, gear3)</title>
<ellipse fill="#ffec8b" stroke="black" cx="1795.55" cy="-351.18" rx="196.65" ry="33.88"/>
<text text-anchor="middle" x="1795.55" y="-356.78" font-family="Times,serif" font-size="18.00">target:</text>
<text text-anchor="middle" x="1795.55" y="-336.78" font-family="Times,serif" font-size="18.00"> hold(outwardgripper, gear3)</text>
</g>
<!-- selector:
 pick_up(left_hand, outwardgripper, gear3)&#45;&gt;target:
 hold(outwardgripper, gear3) -->
<g id="edge10" class="edge">
<title>selector:
 pick_up(left_hand, outwardgripper, gear3)&#45;&gt;target:
 hold(outwardgripper, gear3)</title>
<path fill="none" stroke="black" d="M1991.41,-420.98C1958.44,-409.4 1922.06,-396.62 1889.7,-385.25"/>
<polygon fill="black" stroke="black" points="1890.83,-381.94 1880.23,-381.93 1888.51,-388.55 1890.83,-381.94"/>
</g>
<!-- sequence:
 pick_up(left_hand, outwardgripper, gear3) -->
<g id="node12" class="node">
<title>sequence:
 pick_up(left_hand, outwardgripper, gear3)</title>
<polygon fill="#ff7f24" stroke="black" points="2415.05,-375.18 2010.05,-375.18 2010.05,-327.18 2415.05,-327.18 2415.05,-375.18"/>
<text text-anchor="middle" x="2212.55" y="-356.78" font-family="Times,serif" font-size="18.00">sequence:</text>
<text text-anchor="middle" x="2212.55" y="-336.78" font-family="Times,serif" font-size="18.00"> pick_up(left_hand, outwardgripper, gear3)</text>
</g>
<!-- selector:
 pick_up(left_hand, outwardgripper, gear3)&#45;&gt;sequence:
 pick_up(left_hand, outwardgripper, gear3) -->
<g id="edge11" class="edge">
<title>selector:
 pick_up(left_hand, outwardgripper, gear3)&#45;&gt;sequence:
 pick_up(left_hand, outwardgripper, gear3)</title>
<path fill="none" stroke="black" d="M2134.5,-420.84C2148.77,-408.28 2164.63,-394.33 2178.3,-382.3"/>
<polygon fill="black" stroke="black" points="2180.88,-384.7 2186.07,-375.47 2176.25,-379.44 2180.88,-384.7"/>
</g>
<!-- precondition:
 hold(left_hand, outwardgripper) -->
<g id="node13" class="node">
<title>precondition:
 hold(left_hand, outwardgripper)</title>
<ellipse fill="#ffec8b" stroke="black" cx="1790.55" cy="-244.5" rx="221.15" ry="33.88"/>
<text text-anchor="middle" x="1790.55" y="-250.1" font-family="Times,serif" font-size="18.00">precondition:</text>
<text text-anchor="middle" x="1790.55" y="-230.1" font-family="Times,serif" font-size="18.00"> hold(left_hand, outwardgripper)</text>
</g>
<!-- sequence:
 pick_up(left_hand, outwardgripper, gear3)&#45;&gt;precondition:
 hold(left_hand, outwardgripper) -->
<g id="edge12" class="edge">
<title>sequence:
 pick_up(left_hand, outwardgripper, gear3)&#45;&gt;precondition:
 hold(left_hand, outwardgripper)</title>
<path fill="none" stroke="black" d="M2119.68,-327.14C2059.31,-312.17 1979.92,-292.48 1914.24,-276.18"/>
<polygon fill="black" stroke="black" points="1914.79,-272.71 1904.24,-273.7 1913.1,-279.51 1914.79,-272.71"/>
</g>
<!-- precondition:
 is_empty(outwardgripper) -->
<g id="node14" class="node">
<title>precondition:
 is_empty(outwardgripper)</title>
<ellipse fill="#ffec8b" stroke="black" cx="2212.55" cy="-244.5" rx="183.28" ry="33.88"/>
<text text-anchor="middle" x="2212.55" y="-250.1" font-family="Times,serif" font-size="18.00">precondition:</text>
<text text-anchor="middle" x="2212.55" y="-230.1" font-family="Times,serif" font-size="18.00"> is_empty(outwardgripper)</text>
</g>
<!-- sequence:
 pick_up(left_hand, outwardgripper, gear3)&#45;&gt;precondition:
 is_empty(outwardgripper) -->
<g id="edge13" class="edge">
<title>sequence:
 pick_up(left_hand, outwardgripper, gear3)&#45;&gt;precondition:
 is_empty(outwardgripper)</title>
<path fill="none" stroke="black" d="M2212.55,-326.95C2212.55,-315.73 2212.55,-301.9 2212.55,-288.84"/>
<polygon fill="black" stroke="black" points="2216.05,-288.6 2212.55,-278.6 2209.05,-288.6 2216.05,-288.6"/>
</g>
<!-- action:
 pick_up(left_hand, outwardgripper, gear3) -->
<g id="node15" class="node">
<title>action:
 pick_up(left_hand, outwardgripper, gear3)</title>
<ellipse fill="lightgreen" stroke="black" cx="2700.55" cy="-244.5" rx="286.26" ry="33.88"/>
<text text-anchor="middle" x="2700.55" y="-250.1" font-family="Times,serif" font-size="18.00">action:</text>
<text text-anchor="middle" x="2700.55" y="-230.1" font-family="Times,serif" font-size="18.00"> pick_up(left_hand, outwardgripper, gear3)</text>
</g>
<!-- sequence:
 pick_up(left_hand, outwardgripper, gear3)&#45;&gt;action:
 pick_up(left_hand, outwardgripper, gear3) -->
<g id="edge14" class="edge">
<title>sequence:
 pick_up(left_hand, outwardgripper, gear3)&#45;&gt;action:
 pick_up(left_hand, outwardgripper, gear3)</title>
<path fill="none" stroke="black" d="M2319.94,-327.14C2389.1,-312.31 2479.86,-292.84 2555.4,-276.64"/>
<polygon fill="black" stroke="black" points="2556.44,-279.99 2565.48,-274.47 2554.97,-273.15 2556.44,-279.99"/>
</g>
<!-- &quot;target:\n is_inserted_to(gear3, shaft3)&quot;* -->
<g id="node17" class="node">
<title>&quot;target:\n is_inserted_to(gear3, shaft3)&quot;*</title>
<ellipse fill="#ffec8b" stroke="black" cx="2762.55" cy="-351.18" rx="211.35" ry="33.88"/>
<text text-anchor="middle" x="2762.55" y="-356.78" font-family="Times,serif" font-size="18.00">&quot;target:</text>
<text text-anchor="middle" x="2762.55" y="-336.78" font-family="Times,serif" font-size="18.00"> is_inserted_to(gear3, shaft3)&quot;*</text>
</g>
<!-- selector:
 insert(left_hand, defaultgripper, gear3, shaft3)&#45;&gt;&quot;target:\n is_inserted_to(gear3, shaft3)&quot;* -->
<g id="edge16" class="edge">
<title>selector:
 insert(left_hand, defaultgripper, gear3, shaft3)&#45;&gt;&quot;target:\n is_inserted_to(gear3, shaft3)&quot;*</title>
<path fill="none" stroke="black" d="M2762.55,-420.84C2762.55,-412.68 2762.55,-403.93 2762.55,-395.51"/>
<polygon fill="black" stroke="black" points="2766.05,-395.46 2762.55,-385.46 2759.05,-395.46 2766.05,-395.46"/>
</g>
<!-- sequence:
 insert(left_hand, defaultgripper, gear3, shaft3) -->
<g id="node18" class="node">
<title>sequence:
 insert(left_hand, defaultgripper, gear3, shaft3)</title>
<polygon fill="#ff7f24" stroke="black" points="3930.05,-375.18 3485.05,-375.18 3485.05,-327.18 3930.05,-327.18 3930.05,-375.18"/>
<text text-anchor="middle" x="3707.55" y="-356.78" font-family="Times,serif" font-size="18.00">sequence:</text>
<text text-anchor="middle" x="3707.55" y="-336.78" font-family="Times,serif" font-size="18.00"> insert(left_hand, defaultgripper, gear3, shaft3)</text>
</g>
<!-- selector:
 insert(left_hand, defaultgripper, gear3, shaft3)&#45;&gt;sequence:
 insert(left_hand, defaultgripper, gear3, shaft3) -->
<g id="edge17" class="edge">
<title>selector:
 insert(left_hand, defaultgripper, gear3, shaft3)&#45;&gt;sequence:
 insert(left_hand, defaultgripper, gear3, shaft3)</title>
<path fill="none" stroke="black" d="M2996.45,-430.95C3147.25,-414.25 3342.03,-392.67 3489.59,-376.32"/>
<polygon fill="black" stroke="black" points="3490.13,-379.79 3499.68,-375.21 3489.36,-372.83 3490.13,-379.79"/>
</g>
<!-- selector:
 change_tool(left_hand, outwardgripper, defaultgripper) -->
<g id="node19" class="node">
<title>selector:
 change_tool(left_hand, outwardgripper, defaultgripper)</title>
<polygon fill="#8deeee" stroke="black" points="3804.09,-229.19 3804.09,-259.82 3570.04,-281.48 3239.05,-281.48 3005,-259.82 3005,-229.19 3239.05,-207.53 3570.04,-207.53 3804.09,-229.19"/>
<text text-anchor="middle" x="3404.55" y="-250.1" font-family="Times,serif" font-size="18.00">selector:</text>
<text text-anchor="middle" x="3404.55" y="-230.1" font-family="Times,serif" font-size="18.00"> change_tool(left_hand, outwardgripper, defaultgripper)</text>
</g>
<!-- sequence:
 insert(left_hand, defaultgripper, gear3, shaft3)&#45;&gt;selector:
 change_tool(left_hand, outwardgripper, defaultgripper) -->
<g id="edge18" class="edge">
<title>sequence:
 insert(left_hand, defaultgripper, gear3, shaft3)&#45;&gt;selector:
 change_tool(left_hand, outwardgripper, defaultgripper)</title>
<path fill="none" stroke="black" d="M3640.68,-327.08C3604.62,-314.62 3559.15,-298.91 3517.76,-284.61"/>
<polygon fill="black" stroke="black" points="3518.76,-281.26 3508.17,-281.3 3516.48,-287.87 3518.76,-281.26"/>
</g>
<!-- precondition:
 hold(defaultgripper, gear3) -->
<g id="node25" class="node">
<title>precondition:
 hold(defaultgripper, gear3)</title>
<ellipse fill="#ffec8b" stroke="black" cx="4010.55" cy="-244.5" rx="188.6" ry="33.88"/>
<text text-anchor="middle" x="4010.55" y="-250.1" font-family="Times,serif" font-size="18.00">precondition:</text>
<text text-anchor="middle" x="4010.55" y="-230.1" font-family="Times,serif" font-size="18.00"> hold(defaultgripper, gear3)</text>
</g>
<!-- sequence:
 insert(left_hand, defaultgripper, gear3, shaft3)&#45;&gt;precondition:
 hold(defaultgripper, gear3) -->
<g id="edge24" class="edge">
<title>sequence:
 insert(left_hand, defaultgripper, gear3, shaft3)&#45;&gt;precondition:
 hold(defaultgripper, gear3)</title>
<path fill="none" stroke="black" d="M3774.42,-327.08C3815.99,-312.72 3870.08,-294.03 3915.99,-278.17"/>
<polygon fill="black" stroke="black" points="3917.35,-281.4 3925.66,-274.83 3915.07,-274.78 3917.35,-281.4"/>
</g>
<!-- action:
 insert(left_hand, defaultgripper, gear3, shaft3) -->
<g id="node26" class="node">
<title>action:
 insert(left_hand, defaultgripper, gear3, shaft3)</title>
<ellipse fill="lightgreen" stroke="black" cx="4531.55" cy="-244.5" rx="314.83" ry="33.88"/>
<text text-anchor="middle" x="4531.55" y="-250.1" font-family="Times,serif" font-size="18.00">action:</text>
<text text-anchor="middle" x="4531.55" y="-230.1" font-family="Times,serif" font-size="18.00"> insert(left_hand, defaultgripper, gear3, shaft3)</text>
</g>
<!-- sequence:
 insert(left_hand, defaultgripper, gear3, shaft3)&#45;&gt;action:
 insert(left_hand, defaultgripper, gear3, shaft3) -->
<g id="edge25" class="edge">
<title>sequence:
 insert(left_hand, defaultgripper, gear3, shaft3)&#45;&gt;action:
 insert(left_hand, defaultgripper, gear3, shaft3)</title>
<path fill="none" stroke="black" d="M3888.63,-327.18C4016.55,-310.93 4188.34,-289.1 4322.16,-272.1"/>
<polygon fill="black" stroke="black" points="4322.65,-275.57 4332.13,-270.84 4321.77,-268.62 4322.65,-275.57"/>
</g>
<!-- target:
 hold(left_hand, defaultgripper) -->
<g id="node20" class="node">
<title>target:
 hold(left_hand, defaultgripper)</title>
<ellipse fill="#ffec8b" stroke="black" cx="3158.55" cy="-137.82" rx="213.59" ry="33.88"/>
<text text-anchor="middle" x="3158.55" y="-143.42" font-family="Times,serif" font-size="18.00">target:</text>
<text text-anchor="middle" x="3158.55" y="-123.42" font-family="Times,serif" font-size="18.00"> hold(left_hand, defaultgripper)</text>
</g>
<!-- selector:
 change_tool(left_hand, outwardgripper, defaultgripper)&#45;&gt;target:
 hold(left_hand, defaultgripper) -->
<g id="edge19" class="edge">
<title>selector:
 change_tool(left_hand, outwardgripper, defaultgripper)&#45;&gt;target:
 hold(left_hand, defaultgripper)</title>
<path fill="none" stroke="black" d="M3320.23,-207.62C3294.47,-196.66 3266.18,-184.62 3240.57,-173.73"/>
<polygon fill="black" stroke="black" points="3241.83,-170.46 3231.26,-169.77 3239.09,-176.9 3241.83,-170.46"/>
</g>
<!-- sequence:
 change_tool(left_hand, outwardgripper, defaultgripper) -->
<g id="node21" class="node">
<title>sequence:
 change_tool(left_hand, outwardgripper, defaultgripper)</title>
<polygon fill="#ff7f24" stroke="black" points="3912.55,-161.82 3390.55,-161.82 3390.55,-113.82 3912.55,-113.82 3912.55,-161.82"/>
<text text-anchor="middle" x="3651.55" y="-143.42" font-family="Times,serif" font-size="18.00">sequence:</text>
<text text-anchor="middle" x="3651.55" y="-123.42" font-family="Times,serif" font-size="18.00"> change_tool(left_hand, outwardgripper, defaultgripper)</text>
</g>
<!-- selector:
 change_tool(left_hand, outwardgripper, defaultgripper)&#45;&gt;sequence:
 change_tool(left_hand, outwardgripper, defaultgripper) -->
<g id="edge20" class="edge">
<title>selector:
 change_tool(left_hand, outwardgripper, defaultgripper)&#45;&gt;sequence:
 change_tool(left_hand, outwardgripper, defaultgripper)</title>
<path fill="none" stroke="black" d="M3489.2,-207.62C3521.46,-193.95 3557.66,-178.61 3587.67,-165.89"/>
<polygon fill="black" stroke="black" points="3589.35,-168.98 3597.19,-161.86 3586.62,-162.54 3589.35,-168.98"/>
</g>
<!-- &quot;precondition:\n hold(left_hand, outwardgripper)&quot;* -->
<g id="node22" class="node">
<title>&quot;precondition:\n hold(left_hand, outwardgripper)&quot;*</title>
<ellipse fill="#ffec8b" stroke="black" cx="3204.55" cy="-33.94" rx="233.19" ry="33.88"/>
<text text-anchor="middle" x="3204.55" y="-39.54" font-family="Times,serif" font-size="18.00">&quot;precondition:</text>
<text text-anchor="middle" x="3204.55" y="-19.54" font-family="Times,serif" font-size="18.00"> hold(left_hand, outwardgripper)&quot;*</text>
</g>
<!-- sequence:
 change_tool(left_hand, outwardgripper, defaultgripper)&#45;&gt;&quot;precondition:\n hold(left_hand, outwardgripper)&quot;* -->
<g id="edge21" class="edge">
<title>sequence:
 change_tool(left_hand, outwardgripper, defaultgripper)&#45;&gt;&quot;precondition:\n hold(left_hand, outwardgripper)&quot;*</title>
<path fill="none" stroke="black" d="M3550.39,-113.77C3487.31,-99.39 3405.43,-80.73 3337.17,-65.17"/>
<polygon fill="black" stroke="black" points="3337.73,-61.71 3327.2,-62.9 3336.18,-68.53 3337.73,-61.71"/>
</g>
<!-- &quot;precondition:\n is_empty(outwardgripper)&quot;* -->
<g id="node23" class="node">
<title>&quot;precondition:\n is_empty(outwardgripper)&quot;*</title>
<ellipse fill="#ffec8b" stroke="black" cx="3651.55" cy="-33.94" rx="195.32" ry="33.88"/>
<text text-anchor="middle" x="3651.55" y="-39.54" font-family="Times,serif" font-size="18.00">&quot;precondition:</text>
<text text-anchor="middle" x="3651.55" y="-19.54" font-family="Times,serif" font-size="18.00"> is_empty(outwardgripper)&quot;*</text>
</g>
<!-- sequence:
 change_tool(left_hand, outwardgripper, defaultgripper)&#45;&gt;&quot;precondition:\n is_empty(outwardgripper)&quot;* -->
<g id="edge22" class="edge">
<title>sequence:
 change_tool(left_hand, outwardgripper, defaultgripper)&#45;&gt;&quot;precondition:\n is_empty(outwardgripper)&quot;*</title>
<path fill="none" stroke="black" d="M3651.55,-113.7C3651.55,-103.16 3651.55,-90.31 3651.55,-78.08"/>
<polygon fill="black" stroke="black" points="3655.05,-78.01 3651.55,-68.01 3648.05,-78.01 3655.05,-78.01"/>
</g>
<!-- action:
 change_tool(left_hand, outwardgripper, defaultgripper) -->
<g id="node24" class="node">
<title>action:
 change_tool(left_hand, outwardgripper, defaultgripper)</title>
<ellipse fill="lightgreen" stroke="black" cx="4233.55" cy="-33.94" rx="369.22" ry="33.88"/>
<text text-anchor="middle" x="4233.55" y="-39.54" font-family="Times,serif" font-size="18.00">action:</text>
<text text-anchor="middle" x="4233.55" y="-19.54" font-family="Times,serif" font-size="18.00"> change_tool(left_hand, outwardgripper, defaultgripper)</text>
</g>
<!-- sequence:
 change_tool(left_hand, outwardgripper, defaultgripper)&#45;&gt;action:
 change_tool(left_hand, outwardgripper, defaultgripper) -->
<g id="edge23" class="edge">
<title>sequence:
 change_tool(left_hand, outwardgripper, defaultgripper)&#45;&gt;action:
 change_tool(left_hand, outwardgripper, defaultgripper)</title>
<path fill="none" stroke="black" d="M3783.25,-113.77C3863.97,-99.64 3968.32,-81.37 4056.25,-65.98"/>
<polygon fill="black" stroke="black" points="4057.09,-69.38 4066.34,-64.21 4055.88,-62.49 4057.09,-69.38"/>
</g>
</g>
</svg>
