<?xml version="1.0" encoding="UTF-8" standalone="no"?>
<!DOCTYPE svg PUBLIC "-//W3C//DTD SVG 1.1//EN"
 "http://www.w3.org/Graphics/SVG/1.1/DTD/svg11.dtd">
<!-- Generated by graphviz version 2.43.0 (0)
 -->
<!-- Title: pastafarianism Pages: 1 -->
<svg width="2029pt" height="620pt"
 viewBox="0.00 0.00 2028.59 620.00" xmlns="http://www.w3.org/2000/svg" xmlns:xlink="http://www.w3.org/1999/xlink">
<g id="graph0" class="graph" transform="scale(1 1) rotate(0) translate(4 616)">
<title>pastafarianism</title>
<polygon fill="white" stroke="transparent" points="-4,4 -4,-616 2024.59,-616 2024.59,4 -4,4"/>
<!-- Sequence -->
<g id="node1" class="node">
<title>Sequence</title>
<polygon fill="orange" stroke="black" points="1053.91,-612 991.91,-612 991.91,-576 1053.91,-576 1053.91,-612"/>
<text text-anchor="middle" x="1022.91" y="-591.8" font-family="Times,serif" font-size="9.00">Sequence</text>
</g>
<!-- Fallback -->
<g id="node2" class="node">
<title>Fallback</title>
<polygon fill="cyan" stroke="black" points="557.91,-514.54 557.91,-529.46 537.41,-540 508.42,-540 487.92,-529.46 487.92,-514.54 508.42,-504 537.41,-504 557.91,-514.54"/>
<text text-anchor="middle" x="522.91" y="-519.8" font-family="Times,serif" font-size="9.00">Fallback</text>
</g>
<!-- Sequence&#45;&gt;Fallback -->
<g id="edge1" class="edge">
<title>Sequence&#45;&gt;Fallback</title>
<path fill="none" stroke="black" d="M991.64,-588.62C906.15,-576.65 668.32,-543.36 568.23,-529.34"/>
<polygon fill="black" stroke="black" points="568.52,-525.85 558.13,-527.93 567.55,-532.78 568.52,-525.85"/>
</g>
<!-- Fallback &#160;&#160;&#160;&#160;&#160;&#160; -->
<g id="node27" class="node">
<title>Fallback &#160;&#160;&#160;&#160;&#160;&#160;</title>
<polygon fill="cyan" stroke="black" points="958.91,-514.54 958.91,-529.46 938.41,-540 909.42,-540 888.92,-529.46 888.92,-514.54 909.42,-504 938.41,-504 958.91,-514.54"/>
<text text-anchor="middle" x="923.91" y="-519.8" font-family="Times,serif" font-size="9.00">Fallback</text>
</g>
<!-- Sequence&#45;&gt;Fallback &#160;&#160;&#160;&#160;&#160;&#160; -->
<g id="edge26" class="edge">
<title>Sequence&#45;&gt;Fallback &#160;&#160;&#160;&#160;&#160;&#160;</title>
<path fill="none" stroke="black" d="M998.7,-575.88C984.72,-566 967.08,-553.52 952.44,-543.17"/>
<polygon fill="black" stroke="black" points="954.4,-540.27 944.21,-537.35 950.36,-545.98 954.4,-540.27"/>
</g>
<!-- close_gripper -->
<g id="node38" class="node">
<title>close_gripper</title>
<ellipse fill="lightgray" stroke="black" cx="1022.91" cy="-522" rx="46.38" ry="18"/>
<text text-anchor="middle" x="1022.91" y="-519.8" font-family="Times,serif" font-size="9.00">close_gripper</text>
</g>
<!-- Sequence&#45;&gt;close_gripper -->
<g id="edge37" class="edge">
<title>Sequence&#45;&gt;close_gripper</title>
<path fill="none" stroke="black" d="M1022.91,-575.7C1022.91,-567.98 1022.91,-558.71 1022.91,-550.11"/>
<polygon fill="black" stroke="black" points="1026.42,-550.1 1022.91,-540.1 1019.42,-550.1 1026.42,-550.1"/>
</g>
<!-- Fallback &#160;&#160;&#160;&#160;&#160;&#160;&#160;&#160;&#160; -->
<g id="node39" class="node">
<title>Fallback &#160;&#160;&#160;&#160;&#160;&#160;&#160;&#160;&#160;</title>
<polygon fill="cyan" stroke="black" points="1156.91,-514.54 1156.91,-529.46 1136.41,-540 1107.42,-540 1086.92,-529.46 1086.92,-514.54 1107.42,-504 1136.41,-504 1156.91,-514.54"/>
<text text-anchor="middle" x="1121.91" y="-519.8" font-family="Times,serif" font-size="9.00">Fallback</text>
</g>
<!-- Sequence&#45;&gt;Fallback &#160;&#160;&#160;&#160;&#160;&#160;&#160;&#160;&#160; -->
<g id="edge38" class="edge">
<title>Sequence&#45;&gt;Fallback &#160;&#160;&#160;&#160;&#160;&#160;&#160;&#160;&#160;</title>
<path fill="none" stroke="black" d="M1047.13,-575.88C1061.11,-566 1078.75,-553.52 1093.39,-543.17"/>
<polygon fill="black" stroke="black" points="1095.47,-545.98 1101.62,-537.35 1091.43,-540.27 1095.47,-545.98"/>
</g>
<!-- Fallback &#160;&#160;&#160;&#160;&#160;&#160;&#160;&#160;&#160;&#160;&#160;&#160; -->
<g id="node50" class="node">
<title>Fallback &#160;&#160;&#160;&#160;&#160;&#160;&#160;&#160;&#160;&#160;&#160;&#160;</title>
<polygon fill="cyan" stroke="black" points="1542.91,-514.54 1542.91,-529.46 1522.41,-540 1493.42,-540 1472.92,-529.46 1472.92,-514.54 1493.42,-504 1522.41,-504 1542.91,-514.54"/>
<text text-anchor="middle" x="1507.91" y="-519.8" font-family="Times,serif" font-size="9.00">Fallback</text>
</g>
<!-- Sequence&#45;&gt;Fallback &#160;&#160;&#160;&#160;&#160;&#160;&#160;&#160;&#160;&#160;&#160;&#160; -->
<g id="edge49" class="edge">
<title>Sequence&#45;&gt;Fallback &#160;&#160;&#160;&#160;&#160;&#160;&#160;&#160;&#160;&#160;&#160;&#160;</title>
<path fill="none" stroke="black" d="M1053.99,-588.51C1137.2,-576.51 1365.33,-543.58 1462.8,-529.51"/>
<polygon fill="black" stroke="black" points="1463.52,-532.94 1472.92,-528.05 1462.52,-526.02 1463.52,-532.94"/>
</g>
<!-- unstacked -->
<g id="node3" class="node">
<title>unstacked</title>
<ellipse fill="lightgray" stroke="black" cx="436.91" cy="-450" rx="36.9" ry="18"/>
<text text-anchor="middle" x="436.91" y="-447.8" font-family="Times,serif" font-size="9.00">unstacked</text>
</g>
<!-- Fallback&#45;&gt;unstacked -->
<g id="edge2" class="edge">
<title>Fallback&#45;&gt;unstacked</title>
<path fill="none" stroke="black" d="M504.25,-505.81C492.23,-496.02 476.41,-483.15 463.13,-472.34"/>
<polygon fill="black" stroke="black" points="465.21,-469.52 455.24,-465.92 460.79,-474.95 465.21,-469.52"/>
</g>
<!-- Sequence  -->
<g id="node4" class="node">
<title>Sequence </title>
<polygon fill="orange" stroke="black" points="553.91,-468 491.91,-468 491.91,-432 553.91,-432 553.91,-468"/>
<text text-anchor="middle" x="522.91" y="-447.8" font-family="Times,serif" font-size="9.00">Sequence</text>
</g>
<!-- Fallback&#45;&gt;Sequence  -->
<g id="edge3" class="edge">
<title>Fallback&#45;&gt;Sequence </title>
<path fill="none" stroke="black" d="M522.91,-503.7C522.91,-495.98 522.91,-486.71 522.91,-478.11"/>
<polygon fill="black" stroke="black" points="526.42,-478.1 522.91,-468.1 519.42,-478.1 526.42,-478.1"/>
</g>
<!-- Fallback  -->
<g id="node5" class="node">
<title>Fallback </title>
<polygon fill="cyan" stroke="black" points="373.91,-370.54 373.91,-385.46 353.41,-396 324.42,-396 303.92,-385.46 303.92,-370.54 324.42,-360 353.41,-360 373.91,-370.54"/>
<text text-anchor="middle" x="338.91" y="-375.8" font-family="Times,serif" font-size="9.00">Fallback</text>
</g>
<!-- Sequence &#45;&gt;Fallback  -->
<g id="edge4" class="edge">
<title>Sequence &#45;&gt;Fallback </title>
<path fill="none" stroke="black" d="M491.53,-435.49C488.63,-434.29 485.72,-433.11 482.91,-432 447.25,-417.87 406.14,-402.86 376.99,-392.44"/>
<polygon fill="black" stroke="black" points="377.81,-389.01 367.22,-388.95 375.46,-395.61 377.81,-389.01"/>
</g>
<!-- Fallback &#160;&#160;&#160; -->
<g id="node16" class="node">
<title>Fallback &#160;&#160;&#160;</title>
<polygon fill="cyan" stroke="black" points="562.91,-370.54 562.91,-385.46 542.41,-396 513.42,-396 492.92,-385.46 492.92,-370.54 513.42,-360 542.41,-360 562.91,-370.54"/>
<text text-anchor="middle" x="527.91" y="-375.8" font-family="Times,serif" font-size="9.00">Fallback</text>
</g>
<!-- Sequence &#45;&gt;Fallback &#160;&#160;&#160; -->
<g id="edge15" class="edge">
<title>Sequence &#45;&gt;Fallback &#160;&#160;&#160;</title>
<path fill="none" stroke="black" d="M524.15,-431.7C524.7,-423.98 525.36,-414.71 525.98,-406.11"/>
<polygon fill="black" stroke="black" points="529.47,-406.33 526.69,-396.1 522.49,-405.83 529.47,-406.33"/>
</g>
<!-- object_at GreenBox [&#45;0.8, &#45;1.0, 0.89] 0.0 base_link -->
<g id="node6" class="node">
<title>object_at GreenBox [&#45;0.8, &#45;1.0, 0.89] 0.0 base_link</title>
<ellipse fill="lightgray" stroke="black" cx="144.91" cy="-306" rx="144.83" ry="18"/>
<text text-anchor="middle" x="144.91" y="-303.8" font-family="Times,serif" font-size="9.00">object_at GreenBox [&#45;0.8, &#45;1.0, 0.89] 0.0 base_link</text>
</g>
<!-- Fallback &#45;&gt;object_at GreenBox [&#45;0.8, &#45;1.0, 0.89] 0.0 base_link -->
<g id="edge5" class="edge">
<title>Fallback &#45;&gt;object_at GreenBox [&#45;0.8, &#45;1.0, 0.89] 0.0 base_link</title>
<path fill="none" stroke="black" d="M310.71,-366.82C281.57,-356.31 235.38,-339.64 199.15,-326.57"/>
<polygon fill="black" stroke="black" points="200.29,-323.26 189.69,-323.16 197.91,-329.84 200.29,-323.26"/>
</g>
<!-- Sequence &#160; -->
<g id="node7" class="node">
<title>Sequence &#160;</title>
<polygon fill="orange" stroke="black" points="369.91,-324 307.91,-324 307.91,-288 369.91,-288 369.91,-324"/>
<text text-anchor="middle" x="338.91" y="-303.8" font-family="Times,serif" font-size="9.00">Sequence</text>
</g>
<!-- Fallback &#45;&gt;Sequence &#160; -->
<g id="edge6" class="edge">
<title>Fallback &#45;&gt;Sequence &#160;</title>
<path fill="none" stroke="black" d="M338.91,-359.7C338.91,-351.98 338.91,-342.71 338.91,-334.11"/>
<polygon fill="black" stroke="black" points="342.42,-334.1 338.91,-324.1 335.42,-334.1 342.42,-334.1"/>
</g>
<!-- Fallback &#160; -->
<g id="node8" class="node">
<title>Fallback &#160;</title>
<polygon fill="cyan" stroke="black" points="234.91,-226.54 234.91,-241.46 214.41,-252 185.42,-252 164.92,-241.46 164.92,-226.54 185.42,-216 214.41,-216 234.91,-226.54"/>
<text text-anchor="middle" x="199.91" y="-231.8" font-family="Times,serif" font-size="9.00">Fallback</text>
</g>
<!-- Sequence &#160;&#45;&gt;Fallback &#160; -->
<g id="edge7" class="edge">
<title>Sequence &#160;&#45;&gt;Fallback &#160;</title>
<path fill="none" stroke="black" d="M307.72,-289.29C285.59,-278.15 255.92,-263.2 233.31,-251.82"/>
<polygon fill="black" stroke="black" points="234.6,-248.55 224.09,-247.18 231.45,-254.8 234.6,-248.55"/>
</g>
<!-- place0 GreenBox [&#45;0.8, &#45;1.0, 0.89] 0.0 base_link -->
<g id="node15" class="node">
<title>place0 GreenBox [&#45;0.8, &#45;1.0, 0.89] 0.0 base_link</title>
<ellipse fill="lightgray" stroke="black" cx="390.91" cy="-234" rx="137.97" ry="18"/>
<text text-anchor="middle" x="390.91" y="-231.8" font-family="Times,serif" font-size="9.00">place0 GreenBox [&#45;0.8, &#45;1.0, 0.89] 0.0 base_link</text>
</g>
<!-- Sequence &#160;&#45;&gt;place0 GreenBox [&#45;0.8, &#45;1.0, 0.89] 0.0 base_link -->
<g id="edge14" class="edge">
<title>Sequence &#160;&#45;&gt;place0 GreenBox [&#45;0.8, &#45;1.0, 0.89] 0.0 base_link</title>
<path fill="none" stroke="black" d="M351.77,-287.7C357.94,-279.39 365.45,-269.28 372.24,-260.14"/>
<polygon fill="black" stroke="black" points="375.06,-262.22 378.21,-252.1 369.44,-258.04 375.06,-262.22"/>
</g>
<!-- in_gripper GreenBox -->
<g id="node9" class="node">
<title>in_gripper GreenBox</title>
<ellipse fill="lightgray" stroke="black" cx="157.91" cy="-162" rx="65.64" ry="18"/>
<text text-anchor="middle" x="157.91" y="-159.8" font-family="Times,serif" font-size="9.00">in_gripper GreenBox</text>
</g>
<!-- Fallback &#160;&#45;&gt;in_gripper GreenBox -->
<g id="edge8" class="edge">
<title>Fallback &#160;&#45;&gt;in_gripper GreenBox</title>
<path fill="none" stroke="black" d="M189.53,-215.7C184.65,-207.56 178.73,-197.69 173.34,-188.7"/>
<polygon fill="black" stroke="black" points="176.32,-186.88 168.18,-180.1 170.32,-190.48 176.32,-186.88"/>
</g>
<!-- Sequence &#160;&#160; -->
<g id="node10" class="node">
<title>Sequence &#160;&#160;</title>
<polygon fill="orange" stroke="black" points="303.91,-180 241.91,-180 241.91,-144 303.91,-144 303.91,-180"/>
<text text-anchor="middle" x="272.91" y="-159.8" font-family="Times,serif" font-size="9.00">Sequence</text>
</g>
<!-- Fallback &#160;&#45;&gt;Sequence &#160;&#160; -->
<g id="edge9" class="edge">
<title>Fallback &#160;&#45;&gt;Sequence &#160;&#160;</title>
<path fill="none" stroke="black" d="M216.85,-216.76C225.98,-208.01 237.42,-197.03 247.59,-187.28"/>
<polygon fill="black" stroke="black" points="250.26,-189.57 255.06,-180.12 245.42,-184.52 250.26,-189.57"/>
</g>
<!-- Fallback &#160;&#160; -->
<g id="node11" class="node">
<title>Fallback &#160;&#160;</title>
<polygon fill="cyan" stroke="black" points="251.91,-82.54 251.91,-97.46 231.41,-108 202.42,-108 181.92,-97.46 181.92,-82.54 202.42,-72 231.41,-72 251.91,-82.54"/>
<text text-anchor="middle" x="216.91" y="-87.8" font-family="Times,serif" font-size="9.00">Fallback</text>
</g>
<!-- Sequence &#160;&#160;&#45;&gt;Fallback &#160;&#160; -->
<g id="edge10" class="edge">
<title>Sequence &#160;&#160;&#45;&gt;Fallback &#160;&#160;</title>
<path fill="none" stroke="black" d="M259.07,-143.7C252.43,-135.39 244.34,-125.28 237.03,-116.14"/>
<polygon fill="black" stroke="black" points="239.58,-113.73 230.6,-108.1 234.11,-118.1 239.58,-113.73"/>
</g>
<!-- pick0 GreenBox -->
<g id="node14" class="node">
<title>pick0 GreenBox</title>
<ellipse fill="lightgray" stroke="black" cx="322.91" cy="-90" rx="52.58" ry="18"/>
<text text-anchor="middle" x="322.91" y="-87.8" font-family="Times,serif" font-size="9.00">pick0 GreenBox</text>
</g>
<!-- Sequence &#160;&#160;&#45;&gt;pick0 GreenBox -->
<g id="edge13" class="edge">
<title>Sequence &#160;&#160;&#45;&gt;pick0 GreenBox</title>
<path fill="none" stroke="black" d="M285.27,-143.7C291.24,-135.35 298.5,-125.18 305.05,-116.02"/>
<polygon fill="black" stroke="black" points="308.08,-117.79 311.04,-107.62 302.38,-113.73 308.08,-117.79"/>
</g>
<!-- gripper_state open -->
<g id="node12" class="node">
<title>gripper_state open</title>
<ellipse fill="lightgray" stroke="black" cx="198.91" cy="-18" rx="60.09" ry="18"/>
<text text-anchor="middle" x="198.91" y="-15.8" font-family="Times,serif" font-size="9.00">gripper_state open</text>
</g>
<!-- Fallback &#160;&#160;&#45;&gt;gripper_state open -->
<g id="edge11" class="edge">
<title>Fallback &#160;&#160;&#45;&gt;gripper_state open</title>
<path fill="none" stroke="black" d="M212.47,-71.7C210.46,-63.9 208.05,-54.51 205.81,-45.83"/>
<polygon fill="black" stroke="black" points="209.19,-44.92 203.31,-36.1 202.41,-46.66 209.19,-44.92"/>
</g>
<!-- open_gripper -->
<g id="node13" class="node">
<title>open_gripper</title>
<ellipse fill="lightgray" stroke="black" cx="322.91" cy="-18" rx="45.72" ry="18"/>
<text text-anchor="middle" x="322.91" y="-15.8" font-family="Times,serif" font-size="9.00">open_gripper</text>
</g>
<!-- Fallback &#160;&#160;&#45;&gt;open_gripper -->
<g id="edge12" class="edge">
<title>Fallback &#160;&#160;&#45;&gt;open_gripper</title>
<path fill="none" stroke="black" d="M237.86,-75.17C253.27,-64.99 274.48,-50.99 291.86,-39.51"/>
<polygon fill="black" stroke="black" points="294.14,-42.2 300.55,-33.77 290.28,-36.36 294.14,-42.2"/>
</g>
<!-- object_at BlueBox [&#45;1.2, &#45;1.0, 0.89] 0.0 base_link -->
<g id="node17" class="node">
<title>object_at BlueBox [&#45;1.2, &#45;1.0, 0.89] 0.0 base_link</title>
<ellipse fill="lightgray" stroke="black" cx="527.91" cy="-306" rx="140.09" ry="18"/>
<text text-anchor="middle" x="527.91" y="-303.8" font-family="Times,serif" font-size="9.00">object_at BlueBox [&#45;1.2, &#45;1.0, 0.89] 0.0 base_link</text>
</g>
<!-- Fallback &#160;&#160;&#160;&#45;&gt;object_at BlueBox [&#45;1.2, &#45;1.0, 0.89] 0.0 base_link -->
<g id="edge16" class="edge">
<title>Fallback &#160;&#160;&#160;&#45;&gt;object_at BlueBox [&#45;1.2, &#45;1.0, 0.89] 0.0 base_link</title>
<path fill="none" stroke="black" d="M527.91,-359.7C527.91,-351.98 527.91,-342.71 527.91,-334.11"/>
<polygon fill="black" stroke="black" points="531.42,-334.1 527.91,-324.1 524.42,-334.1 531.42,-334.1"/>
</g>
<!-- Sequence &#160;&#160;&#160; -->
<g id="node18" class="node">
<title>Sequence &#160;&#160;&#160;</title>
<polygon fill="orange" stroke="black" points="747.91,-324 685.91,-324 685.91,-288 747.91,-288 747.91,-324"/>
<text text-anchor="middle" x="716.91" y="-303.8" font-family="Times,serif" font-size="9.00">Sequence</text>
</g>
<!-- Fallback &#160;&#160;&#160;&#45;&gt;Sequence &#160;&#160;&#160; -->
<g id="edge17" class="edge">
<title>Fallback &#160;&#160;&#160;&#45;&gt;Sequence &#160;&#160;&#160;</title>
<path fill="none" stroke="black" d="M556.95,-367.25C585.23,-357.63 629.61,-342.19 676.2,-324.18"/>
<polygon fill="black" stroke="black" points="677.5,-327.43 685.55,-320.54 674.96,-320.91 677.5,-327.43"/>
</g>
<!-- Fallback &#160;&#160;&#160;&#160; -->
<g id="node19" class="node">
<title>Fallback &#160;&#160;&#160;&#160;</title>
<polygon fill="cyan" stroke="black" points="637.91,-226.54 637.91,-241.46 617.41,-252 588.42,-252 567.92,-241.46 567.92,-226.54 588.42,-216 617.41,-216 637.91,-226.54"/>
<text text-anchor="middle" x="602.91" y="-231.8" font-family="Times,serif" font-size="9.00">Fallback</text>
</g>
<!-- Sequence &#160;&#160;&#160;&#45;&gt;Fallback &#160;&#160;&#160;&#160; -->
<g id="edge18" class="edge">
<title>Sequence &#160;&#160;&#160;&#45;&gt;Fallback &#160;&#160;&#160;&#160;</title>
<path fill="none" stroke="black" d="M689.03,-287.88C672.19,-277.54 650.71,-264.35 633.42,-253.73"/>
<polygon fill="black" stroke="black" points="635.16,-250.69 624.81,-248.44 631.5,-256.66 635.16,-250.69"/>
</g>
<!-- place0 BlueBox [&#45;1.2, &#45;1.0, 0.89] 0.0 base_link -->
<g id="node26" class="node">
<title>place0 BlueBox [&#45;1.2, &#45;1.0, 0.89] 0.0 base_link</title>
<ellipse fill="lightgray" stroke="black" cx="789.91" cy="-234" rx="133.89" ry="18"/>
<text text-anchor="middle" x="789.91" y="-231.8" font-family="Times,serif" font-size="9.00">place0 BlueBox [&#45;1.2, &#45;1.0, 0.89] 0.0 base_link</text>
</g>
<!-- Sequence &#160;&#160;&#160;&#45;&gt;place0 BlueBox [&#45;1.2, &#45;1.0, 0.89] 0.0 base_link -->
<g id="edge25" class="edge">
<title>Sequence &#160;&#160;&#160;&#45;&gt;place0 BlueBox [&#45;1.2, &#45;1.0, 0.89] 0.0 base_link</title>
<path fill="none" stroke="black" d="M734.96,-287.7C744.04,-278.99 755.2,-268.29 765.08,-258.82"/>
<polygon fill="black" stroke="black" points="767.53,-261.31 772.33,-251.86 762.69,-256.26 767.53,-261.31"/>
</g>
<!-- in_gripper BlueBox -->
<g id="node20" class="node">
<title>in_gripper BlueBox</title>
<ellipse fill="lightgray" stroke="black" cx="502.91" cy="-162" rx="61.55" ry="18"/>
<text text-anchor="middle" x="502.91" y="-159.8" font-family="Times,serif" font-size="9.00">in_gripper BlueBox</text>
</g>
<!-- Fallback &#160;&#160;&#160;&#160;&#45;&gt;in_gripper BlueBox -->
<g id="edge19" class="edge">
<title>Fallback &#160;&#160;&#160;&#160;&#45;&gt;in_gripper BlueBox</title>
<path fill="none" stroke="black" d="M582.68,-218.83C568.71,-209.06 549.88,-195.88 534.02,-184.77"/>
<polygon fill="black" stroke="black" points="535.76,-181.72 525.56,-178.85 531.75,-187.46 535.76,-181.72"/>
</g>
<!-- Sequence &#160;&#160;&#160;&#160; -->
<g id="node21" class="node">
<title>Sequence &#160;&#160;&#160;&#160;</title>
<polygon fill="orange" stroke="black" points="644.91,-180 582.91,-180 582.91,-144 644.91,-144 644.91,-180"/>
<text text-anchor="middle" x="613.91" y="-159.8" font-family="Times,serif" font-size="9.00">Sequence</text>
</g>
<!-- Fallback &#160;&#160;&#160;&#160;&#45;&gt;Sequence &#160;&#160;&#160;&#160; -->
<g id="edge20" class="edge">
<title>Fallback &#160;&#160;&#160;&#160;&#45;&gt;Sequence &#160;&#160;&#160;&#160;</title>
<path fill="none" stroke="black" d="M605.63,-215.7C606.85,-207.98 608.3,-198.71 609.65,-190.11"/>
<polygon fill="black" stroke="black" points="613.13,-190.53 611.23,-180.1 606.22,-189.44 613.13,-190.53"/>
</g>
<!-- Fallback &#160;&#160;&#160;&#160;&#160; -->
<g id="node22" class="node">
<title>Fallback &#160;&#160;&#160;&#160;&#160;</title>
<polygon fill="cyan" stroke="black" points="552.91,-82.54 552.91,-97.46 532.41,-108 503.42,-108 482.92,-97.46 482.92,-82.54 503.42,-72 532.41,-72 552.91,-82.54"/>
<text text-anchor="middle" x="517.91" y="-87.8" font-family="Times,serif" font-size="9.00">Fallback</text>
</g>
<!-- Sequence &#160;&#160;&#160;&#160;&#45;&gt;Fallback &#160;&#160;&#160;&#160;&#160; -->
<g id="edge21" class="edge">
<title>Sequence &#160;&#160;&#160;&#160;&#45;&gt;Fallback &#160;&#160;&#160;&#160;&#160;</title>
<path fill="none" stroke="black" d="M590.18,-143.7C576.85,-133.97 560.12,-121.78 546.12,-111.57"/>
<polygon fill="black" stroke="black" points="547.95,-108.57 537.81,-105.51 543.83,-114.23 547.95,-108.57"/>
</g>
<!-- pick0 BlueBox -->
<g id="node25" class="node">
<title>pick0 BlueBox</title>
<ellipse fill="lightgray" stroke="black" cx="618.91" cy="-90" rx="47.84" ry="18"/>
<text text-anchor="middle" x="618.91" y="-87.8" font-family="Times,serif" font-size="9.00">pick0 BlueBox</text>
</g>
<!-- Sequence &#160;&#160;&#160;&#160;&#45;&gt;pick0 BlueBox -->
<g id="edge24" class="edge">
<title>Sequence &#160;&#160;&#160;&#160;&#45;&gt;pick0 BlueBox</title>
<path fill="none" stroke="black" d="M615.15,-143.7C615.7,-135.98 616.36,-126.71 616.98,-118.11"/>
<polygon fill="black" stroke="black" points="620.47,-118.33 617.69,-108.1 613.49,-117.83 620.47,-118.33"/>
</g>
<!-- gripper_state open  -->
<g id="node23" class="node">
<title>gripper_state open </title>
<ellipse fill="lightgray" stroke="black" cx="467.91" cy="-18" rx="60.09" ry="18"/>
<text text-anchor="middle" x="467.91" y="-15.8" font-family="Times,serif" font-size="9.00">gripper_state open</text>
</g>
<!-- Fallback &#160;&#160;&#160;&#160;&#160;&#45;&gt;gripper_state open  -->
<g id="edge22" class="edge">
<title>Fallback &#160;&#160;&#160;&#160;&#160;&#45;&gt;gripper_state open </title>
<path fill="none" stroke="black" d="M505.56,-71.7C499.68,-63.47 492.55,-53.48 486.07,-44.42"/>
<polygon fill="black" stroke="black" points="488.79,-42.21 480.13,-36.1 483.1,-46.28 488.79,-42.21"/>
</g>
<!-- open_gripper  -->
<g id="node24" class="node">
<title>open_gripper </title>
<ellipse fill="lightgray" stroke="black" cx="591.91" cy="-18" rx="45.72" ry="18"/>
<text text-anchor="middle" x="591.91" y="-15.8" font-family="Times,serif" font-size="9.00">open_gripper</text>
</g>
<!-- Fallback &#160;&#160;&#160;&#160;&#160;&#45;&gt;open_gripper  -->
<g id="edge23" class="edge">
<title>Fallback &#160;&#160;&#160;&#160;&#160;&#45;&gt;open_gripper </title>
<path fill="none" stroke="black" d="M534.71,-73.12C544.45,-63.9 556.9,-52.13 567.69,-41.92"/>
<polygon fill="black" stroke="black" points="570.33,-44.24 575.19,-34.82 565.52,-39.15 570.33,-44.24"/>
</g>
<!-- object_at YellowBox [0.0, 0.0, 0.175] 0.02 KittingBox -->
<g id="node28" class="node">
<title>object_at YellowBox [0.0, 0.0, 0.175] 0.02 KittingBox</title>
<ellipse fill="lightgray" stroke="black" cx="723.91" cy="-450" rx="152.34" ry="18"/>
<text text-anchor="middle" x="723.91" y="-447.8" font-family="Times,serif" font-size="9.00">object_at YellowBox [0.0, 0.0, 0.175] 0.02 KittingBox</text>
</g>
<!-- Fallback &#160;&#160;&#160;&#160;&#160;&#160;&#45;&gt;object_at YellowBox [0.0, 0.0, 0.175] 0.02 KittingBox -->
<g id="edge27" class="edge">
<title>Fallback &#160;&#160;&#160;&#160;&#160;&#160;&#45;&gt;object_at YellowBox [0.0, 0.0, 0.175] 0.02 KittingBox</title>
<path fill="none" stroke="black" d="M895.26,-510.97C865.32,-500.49 817.56,-483.78 780.07,-470.65"/>
<polygon fill="black" stroke="black" points="780.88,-467.23 770.28,-467.23 778.56,-473.84 780.88,-467.23"/>
</g>
<!-- Sequence &#160;&#160;&#160;&#160;&#160; -->
<g id="node29" class="node">
<title>Sequence &#160;&#160;&#160;&#160;&#160;</title>
<polygon fill="orange" stroke="black" points="955.91,-468 893.91,-468 893.91,-432 955.91,-432 955.91,-468"/>
<text text-anchor="middle" x="924.91" y="-447.8" font-family="Times,serif" font-size="9.00">Sequence</text>
</g>
<!-- Fallback &#160;&#160;&#160;&#160;&#160;&#160;&#45;&gt;Sequence &#160;&#160;&#160;&#160;&#160; -->
<g id="edge28" class="edge">
<title>Fallback &#160;&#160;&#160;&#160;&#160;&#160;&#45;&gt;Sequence &#160;&#160;&#160;&#160;&#160;</title>
<path fill="none" stroke="black" d="M924.16,-503.7C924.27,-495.98 924.4,-486.71 924.53,-478.11"/>
<polygon fill="black" stroke="black" points="928.03,-478.15 924.67,-468.1 921.03,-478.05 928.03,-478.15"/>
</g>
<!-- Fallback &#160;&#160;&#160;&#160;&#160;&#160;&#160; -->
<g id="node30" class="node">
<title>Fallback &#160;&#160;&#160;&#160;&#160;&#160;&#160;</title>
<polygon fill="cyan" stroke="black" points="913.91,-370.54 913.91,-385.46 893.41,-396 864.42,-396 843.92,-385.46 843.92,-370.54 864.42,-360 893.41,-360 913.91,-370.54"/>
<text text-anchor="middle" x="878.91" y="-375.8" font-family="Times,serif" font-size="9.00">Fallback</text>
</g>
<!-- Sequence &#160;&#160;&#160;&#160;&#160;&#45;&gt;Fallback &#160;&#160;&#160;&#160;&#160;&#160;&#160; -->
<g id="edge29" class="edge">
<title>Sequence &#160;&#160;&#160;&#160;&#160;&#45;&gt;Fallback &#160;&#160;&#160;&#160;&#160;&#160;&#160;</title>
<path fill="none" stroke="black" d="M913.54,-431.7C908.2,-423.56 901.71,-413.69 895.8,-404.7"/>
<polygon fill="black" stroke="black" points="898.57,-402.54 890.15,-396.1 892.72,-406.38 898.57,-402.54"/>
</g>
<!-- place0 YellowBox [0.0, 0.0, 0.175] 0.02 KittingBox -->
<g id="node37" class="node">
<title>place0 YellowBox [0.0, 0.0, 0.175] 0.02 KittingBox</title>
<ellipse fill="lightgray" stroke="black" cx="1077.91" cy="-378" rx="146.14" ry="18"/>
<text text-anchor="middle" x="1077.91" y="-375.8" font-family="Times,serif" font-size="9.00">place0 YellowBox [0.0, 0.0, 0.175] 0.02 KittingBox</text>
</g>
<!-- Sequence &#160;&#160;&#160;&#160;&#160;&#45;&gt;place0 YellowBox [0.0, 0.0, 0.175] 0.02 KittingBox -->
<g id="edge36" class="edge">
<title>Sequence &#160;&#160;&#160;&#160;&#160;&#45;&gt;place0 YellowBox [0.0, 0.0, 0.175] 0.02 KittingBox</title>
<path fill="none" stroke="black" d="M956.25,-434.67C978.26,-424.59 1008.06,-410.96 1032.65,-399.71"/>
<polygon fill="black" stroke="black" points="1034.16,-402.87 1041.79,-395.53 1031.24,-396.5 1034.16,-402.87"/>
</g>
<!-- in_gripper YellowBox -->
<g id="node31" class="node">
<title>in_gripper YellowBox</title>
<ellipse fill="lightgray" stroke="black" cx="875.91" cy="-306" rx="66.29" ry="18"/>
<text text-anchor="middle" x="875.91" y="-303.8" font-family="Times,serif" font-size="9.00">in_gripper YellowBox</text>
</g>
<!-- Fallback &#160;&#160;&#160;&#160;&#160;&#160;&#160;&#45;&gt;in_gripper YellowBox -->
<g id="edge30" class="edge">
<title>Fallback &#160;&#160;&#160;&#160;&#160;&#160;&#160;&#45;&gt;in_gripper YellowBox</title>
<path fill="none" stroke="black" d="M878.17,-359.7C877.84,-351.98 877.45,-342.71 877.08,-334.11"/>
<polygon fill="black" stroke="black" points="880.57,-333.95 876.65,-324.1 873.58,-334.25 880.57,-333.95"/>
</g>
<!-- Sequence &#160;&#160;&#160;&#160;&#160;&#160; -->
<g id="node32" class="node">
<title>Sequence &#160;&#160;&#160;&#160;&#160;&#160;</title>
<polygon fill="orange" stroke="black" points="1021.91,-324 959.91,-324 959.91,-288 1021.91,-288 1021.91,-324"/>
<text text-anchor="middle" x="990.91" y="-303.8" font-family="Times,serif" font-size="9.00">Sequence</text>
</g>
<!-- Fallback &#160;&#160;&#160;&#160;&#160;&#160;&#160;&#45;&gt;Sequence &#160;&#160;&#160;&#160;&#160;&#160; -->
<g id="edge31" class="edge">
<title>Fallback &#160;&#160;&#160;&#160;&#160;&#160;&#160;&#45;&gt;Sequence &#160;&#160;&#160;&#160;&#160;&#160;</title>
<path fill="none" stroke="black" d="M900.51,-363.5C915.91,-353.88 936.99,-340.7 954.92,-329.5"/>
<polygon fill="black" stroke="black" points="956.8,-332.45 963.43,-324.18 953.09,-326.51 956.8,-332.45"/>
</g>
<!-- Fallback &#160;&#160;&#160;&#160;&#160;&#160;&#160;&#160; -->
<g id="node33" class="node">
<title>Fallback &#160;&#160;&#160;&#160;&#160;&#160;&#160;&#160;</title>
<polygon fill="cyan" stroke="black" points="1022.91,-226.54 1022.91,-241.46 1002.41,-252 973.42,-252 952.92,-241.46 952.92,-226.54 973.42,-216 1002.41,-216 1022.91,-226.54"/>
<text text-anchor="middle" x="987.91" y="-231.8" font-family="Times,serif" font-size="9.00">Fallback</text>
</g>
<!-- Sequence &#160;&#160;&#160;&#160;&#160;&#160;&#45;&gt;Fallback &#160;&#160;&#160;&#160;&#160;&#160;&#160;&#160; -->
<g id="edge32" class="edge">
<title>Sequence &#160;&#160;&#160;&#160;&#160;&#160;&#45;&gt;Fallback &#160;&#160;&#160;&#160;&#160;&#160;&#160;&#160;</title>
<path fill="none" stroke="black" d="M990.17,-287.7C989.84,-279.98 989.45,-270.71 989.08,-262.11"/>
<polygon fill="black" stroke="black" points="992.57,-261.95 988.65,-252.1 985.58,-262.25 992.57,-261.95"/>
</g>
<!-- pick0 YellowBox -->
<g id="node36" class="node">
<title>pick0 YellowBox</title>
<ellipse fill="lightgray" stroke="black" cx="1093.91" cy="-234" rx="53.23" ry="18"/>
<text text-anchor="middle" x="1093.91" y="-231.8" font-family="Times,serif" font-size="9.00">pick0 YellowBox</text>
</g>
<!-- Sequence &#160;&#160;&#160;&#160;&#160;&#160;&#45;&gt;pick0 YellowBox -->
<g id="edge35" class="edge">
<title>Sequence &#160;&#160;&#160;&#160;&#160;&#160;&#45;&gt;pick0 YellowBox</title>
<path fill="none" stroke="black" d="M1016.11,-287.88C1030.15,-278.33 1047.76,-266.37 1062.67,-256.24"/>
<polygon fill="black" stroke="black" points="1064.78,-259.03 1071.09,-250.51 1060.85,-253.24 1064.78,-259.03"/>
</g>
<!-- gripper_state open &#160; -->
<g id="node34" class="node">
<title>gripper_state open &#160;</title>
<ellipse fill="lightgray" stroke="black" cx="948.91" cy="-162" rx="60.09" ry="18"/>
<text text-anchor="middle" x="948.91" y="-159.8" font-family="Times,serif" font-size="9.00">gripper_state open</text>
</g>
<!-- Fallback &#160;&#160;&#160;&#160;&#160;&#160;&#160;&#160;&#45;&gt;gripper_state open &#160; -->
<g id="edge33" class="edge">
<title>Fallback &#160;&#160;&#160;&#160;&#160;&#160;&#160;&#160;&#45;&gt;gripper_state open &#160;</title>
<path fill="none" stroke="black" d="M978.27,-215.7C973.79,-207.64 968.36,-197.89 963.39,-188.98"/>
<polygon fill="black" stroke="black" points="966.37,-187.14 958.44,-180.1 960.25,-190.54 966.37,-187.14"/>
</g>
<!-- open_gripper &#160; -->
<g id="node35" class="node">
<title>open_gripper &#160;</title>
<ellipse fill="lightgray" stroke="black" cx="1072.91" cy="-162" rx="45.72" ry="18"/>
<text text-anchor="middle" x="1072.91" y="-159.8" font-family="Times,serif" font-size="9.00">open_gripper</text>
</g>
<!-- Fallback &#160;&#160;&#160;&#160;&#160;&#160;&#160;&#160;&#45;&gt;open_gripper &#160; -->
<g id="edge34" class="edge">
<title>Fallback &#160;&#160;&#160;&#160;&#160;&#160;&#160;&#160;&#45;&gt;open_gripper &#160;</title>
<path fill="none" stroke="black" d="M1006.36,-217.81C1018,-208.22 1033.24,-195.67 1046.2,-185"/>
<polygon fill="black" stroke="black" points="1048.42,-187.7 1053.92,-178.64 1043.97,-182.3 1048.42,-187.7"/>
</g>
<!-- object_at GreenBox [0.0, 0.0, 0.22] 0.02 YellowBox -->
<g id="node40" class="node">
<title>object_at GreenBox [0.0, 0.0, 0.22] 0.02 YellowBox</title>
<ellipse fill="lightgray" stroke="black" cx="1120.91" cy="-450" rx="146.79" ry="18"/>
<text text-anchor="middle" x="1120.91" y="-447.8" font-family="Times,serif" font-size="9.00">object_at GreenBox [0.0, 0.0, 0.22] 0.02 YellowBox</text>
</g>
<!-- Fallback &#160;&#160;&#160;&#160;&#160;&#160;&#160;&#160;&#160;&#45;&gt;object_at GreenBox [0.0, 0.0, 0.22] 0.02 YellowBox -->
<g id="edge39" class="edge">
<title>Fallback &#160;&#160;&#160;&#160;&#160;&#160;&#160;&#160;&#160;&#45;&gt;object_at GreenBox [0.0, 0.0, 0.22] 0.02 YellowBox</title>
<path fill="none" stroke="black" d="M1121.67,-503.7C1121.56,-495.98 1121.43,-486.71 1121.3,-478.11"/>
<polygon fill="black" stroke="black" points="1124.8,-478.05 1121.16,-468.1 1117.8,-478.15 1124.8,-478.05"/>
</g>
<!-- Sequence &#160;&#160;&#160;&#160;&#160;&#160;&#160; -->
<g id="node41" class="node">
<title>Sequence &#160;&#160;&#160;&#160;&#160;&#160;&#160;</title>
<polygon fill="orange" stroke="black" points="1347.91,-468 1285.91,-468 1285.91,-432 1347.91,-432 1347.91,-468"/>
<text text-anchor="middle" x="1316.91" y="-447.8" font-family="Times,serif" font-size="9.00">Sequence</text>
</g>
<!-- Fallback &#160;&#160;&#160;&#160;&#160;&#160;&#160;&#160;&#160;&#45;&gt;Sequence &#160;&#160;&#160;&#160;&#160;&#160;&#160; -->
<g id="edge40" class="edge">
<title>Fallback &#160;&#160;&#160;&#160;&#160;&#160;&#160;&#160;&#160;&#45;&gt;Sequence &#160;&#160;&#160;&#160;&#160;&#160;&#160;</title>
<path fill="none" stroke="black" d="M1151.57,-511.57C1181.04,-502.04 1227.67,-486.55 1276.16,-468.17"/>
<polygon fill="black" stroke="black" points="1277.47,-471.42 1285.56,-464.58 1274.97,-464.88 1277.47,-471.42"/>
</g>
<!-- Fallback &#160;&#160;&#160;&#160;&#160;&#160;&#160;&#160;&#160;&#160; -->
<g id="node42" class="node">
<title>Fallback &#160;&#160;&#160;&#160;&#160;&#160;&#160;&#160;&#160;&#160;</title>
<polygon fill="cyan" stroke="black" points="1333.91,-370.54 1333.91,-385.46 1313.41,-396 1284.42,-396 1263.92,-385.46 1263.92,-370.54 1284.42,-360 1313.41,-360 1333.91,-370.54"/>
<text text-anchor="middle" x="1298.91" y="-375.8" font-family="Times,serif" font-size="9.00">Fallback</text>
</g>
<!-- Sequence &#160;&#160;&#160;&#160;&#160;&#160;&#160;&#45;&gt;Fallback &#160;&#160;&#160;&#160;&#160;&#160;&#160;&#160;&#160;&#160; -->
<g id="edge41" class="edge">
<title>Sequence &#160;&#160;&#160;&#160;&#160;&#160;&#160;&#45;&gt;Fallback &#160;&#160;&#160;&#160;&#160;&#160;&#160;&#160;&#160;&#160;</title>
<path fill="none" stroke="black" d="M1312.47,-431.7C1310.46,-423.9 1308.05,-414.51 1305.81,-405.83"/>
<polygon fill="black" stroke="black" points="1309.19,-404.92 1303.31,-396.1 1302.41,-406.66 1309.19,-404.92"/>
</g>
<!-- place0 GreenBox [0.0, 0.0, 0.22] 0.02 YellowBox -->
<g id="node49" class="node">
<title>place0 GreenBox [0.0, 0.0, 0.22] 0.02 YellowBox</title>
<ellipse fill="lightgray" stroke="black" cx="1491.91" cy="-378" rx="140.09" ry="18"/>
<text text-anchor="middle" x="1491.91" y="-375.8" font-family="Times,serif" font-size="9.00">place0 GreenBox [0.0, 0.0, 0.22] 0.02 YellowBox</text>
</g>
<!-- Sequence &#160;&#160;&#160;&#160;&#160;&#160;&#160;&#45;&gt;place0 GreenBox [0.0, 0.0, 0.22] 0.02 YellowBox -->
<g id="edge48" class="edge">
<title>Sequence &#160;&#160;&#160;&#160;&#160;&#160;&#160;&#45;&gt;place0 GreenBox [0.0, 0.0, 0.22] 0.02 YellowBox</title>
<path fill="none" stroke="black" d="M1348.32,-435.55C1351.22,-434.34 1354.12,-433.14 1356.91,-432 1384.4,-420.77 1415.21,-408.63 1440.45,-398.82"/>
<polygon fill="black" stroke="black" points="1441.78,-402.06 1449.84,-395.17 1439.25,-395.53 1441.78,-402.06"/>
</g>
<!-- in_gripper GreenBox  -->
<g id="node43" class="node">
<title>in_gripper GreenBox </title>
<ellipse fill="lightgray" stroke="black" cx="1205.91" cy="-306" rx="65.64" ry="18"/>
<text text-anchor="middle" x="1205.91" y="-303.8" font-family="Times,serif" font-size="9.00">in_gripper GreenBox</text>
</g>
<!-- Fallback &#160;&#160;&#160;&#160;&#160;&#160;&#160;&#160;&#160;&#160;&#45;&gt;in_gripper GreenBox  -->
<g id="edge42" class="edge">
<title>Fallback &#160;&#160;&#160;&#160;&#160;&#160;&#160;&#160;&#160;&#160;&#45;&gt;in_gripper GreenBox </title>
<path fill="none" stroke="black" d="M1279.19,-362.15C1266.44,-352.56 1249.62,-339.9 1235.31,-329.13"/>
<polygon fill="black" stroke="black" points="1237.32,-326.26 1227.23,-323.04 1233.11,-331.85 1237.32,-326.26"/>
</g>
<!-- Sequence &#160;&#160;&#160;&#160;&#160;&#160;&#160;&#160; -->
<g id="node44" class="node">
<title>Sequence &#160;&#160;&#160;&#160;&#160;&#160;&#160;&#160;</title>
<polygon fill="orange" stroke="black" points="1351.91,-324 1289.91,-324 1289.91,-288 1351.91,-288 1351.91,-324"/>
<text text-anchor="middle" x="1320.91" y="-303.8" font-family="Times,serif" font-size="9.00">Sequence</text>
</g>
<!-- Fallback &#160;&#160;&#160;&#160;&#160;&#160;&#160;&#160;&#160;&#160;&#45;&gt;Sequence &#160;&#160;&#160;&#160;&#160;&#160;&#160;&#160; -->
<g id="edge43" class="edge">
<title>Fallback &#160;&#160;&#160;&#160;&#160;&#160;&#160;&#160;&#160;&#160;&#45;&gt;Sequence &#160;&#160;&#160;&#160;&#160;&#160;&#160;&#160;</title>
<path fill="none" stroke="black" d="M1304.35,-359.7C1306.8,-351.9 1309.76,-342.51 1312.48,-333.83"/>
<polygon fill="black" stroke="black" points="1315.88,-334.69 1315.54,-324.1 1309.2,-332.59 1315.88,-334.69"/>
</g>
<!-- Fallback &#160;&#160;&#160;&#160;&#160;&#160;&#160;&#160;&#160;&#160;&#160; -->
<g id="node45" class="node">
<title>Fallback &#160;&#160;&#160;&#160;&#160;&#160;&#160;&#160;&#160;&#160;&#160;</title>
<polygon fill="cyan" stroke="black" points="1269.91,-226.54 1269.91,-241.46 1249.41,-252 1220.42,-252 1199.92,-241.46 1199.92,-226.54 1220.42,-216 1249.41,-216 1269.91,-226.54"/>
<text text-anchor="middle" x="1234.91" y="-231.8" font-family="Times,serif" font-size="9.00">Fallback</text>
</g>
<!-- Sequence &#160;&#160;&#160;&#160;&#160;&#160;&#160;&#160;&#45;&gt;Fallback &#160;&#160;&#160;&#160;&#160;&#160;&#160;&#160;&#160;&#160;&#160; -->
<g id="edge44" class="edge">
<title>Sequence &#160;&#160;&#160;&#160;&#160;&#160;&#160;&#160;&#45;&gt;Fallback &#160;&#160;&#160;&#160;&#160;&#160;&#160;&#160;&#160;&#160;&#160;</title>
<path fill="none" stroke="black" d="M1299.66,-287.7C1288.18,-278.35 1273.9,-266.73 1261.67,-256.78"/>
<polygon fill="black" stroke="black" points="1263.56,-253.8 1253.59,-250.2 1259.14,-259.23 1263.56,-253.8"/>
</g>
<!-- pick0 GreenBox  -->
<g id="node48" class="node">
<title>pick0 GreenBox </title>
<ellipse fill="lightgray" stroke="black" cx="1340.91" cy="-234" rx="52.58" ry="18"/>
<text text-anchor="middle" x="1340.91" y="-231.8" font-family="Times,serif" font-size="9.00">pick0 GreenBox</text>
</g>
<!-- Sequence &#160;&#160;&#160;&#160;&#160;&#160;&#160;&#160;&#45;&gt;pick0 GreenBox  -->
<g id="edge47" class="edge">
<title>Sequence &#160;&#160;&#160;&#160;&#160;&#160;&#160;&#160;&#45;&gt;pick0 GreenBox </title>
<path fill="none" stroke="black" d="M1325.86,-287.7C1328.09,-279.9 1330.77,-270.51 1333.25,-261.83"/>
<polygon fill="black" stroke="black" points="1336.65,-262.68 1336.03,-252.1 1329.92,-260.76 1336.65,-262.68"/>
</g>
<!-- gripper_state open &#160;&#160; -->
<g id="node46" class="node">
<title>gripper_state open &#160;&#160;</title>
<ellipse fill="lightgray" stroke="black" cx="1232.91" cy="-162" rx="60.09" ry="18"/>
<text text-anchor="middle" x="1232.91" y="-159.8" font-family="Times,serif" font-size="9.00">gripper_state open</text>
</g>
<!-- Fallback &#160;&#160;&#160;&#160;&#160;&#160;&#160;&#160;&#160;&#160;&#160;&#45;&gt;gripper_state open &#160;&#160; -->
<g id="edge45" class="edge">
<title>Fallback &#160;&#160;&#160;&#160;&#160;&#160;&#160;&#160;&#160;&#160;&#160;&#45;&gt;gripper_state open &#160;&#160;</title>
<path fill="none" stroke="black" d="M1234.42,-215.7C1234.2,-207.98 1233.94,-198.71 1233.69,-190.11"/>
<polygon fill="black" stroke="black" points="1237.19,-190 1233.4,-180.1 1230.19,-190.2 1237.19,-190"/>
</g>
<!-- open_gripper &#160;&#160; -->
<g id="node47" class="node">
<title>open_gripper &#160;&#160;</title>
<ellipse fill="lightgray" stroke="black" cx="1356.91" cy="-162" rx="45.72" ry="18"/>
<text text-anchor="middle" x="1356.91" y="-159.8" font-family="Times,serif" font-size="9.00">open_gripper</text>
</g>
<!-- Fallback &#160;&#160;&#160;&#160;&#160;&#160;&#160;&#160;&#160;&#160;&#160;&#45;&gt;open_gripper &#160;&#160; -->
<g id="edge46" class="edge">
<title>Fallback &#160;&#160;&#160;&#160;&#160;&#160;&#160;&#160;&#160;&#160;&#160;&#45;&gt;open_gripper &#160;&#160;</title>
<path fill="none" stroke="black" d="M1257.58,-220C1275.94,-209.46 1302.11,-194.44 1322.98,-182.47"/>
<polygon fill="black" stroke="black" points="1324.92,-185.39 1331.85,-177.38 1321.44,-179.32 1324.92,-185.39"/>
</g>
<!-- object_at BlueBox [0.0, 0.0, 0.22] 0.02 GreenBox -->
<g id="node51" class="node">
<title>object_at BlueBox [0.0, 0.0, 0.22] 0.02 GreenBox</title>
<ellipse fill="lightgray" stroke="black" cx="1507.91" cy="-450" rx="142.06" ry="18"/>
<text text-anchor="middle" x="1507.91" y="-447.8" font-family="Times,serif" font-size="9.00">object_at BlueBox [0.0, 0.0, 0.22] 0.02 GreenBox</text>
</g>
<!-- Fallback &#160;&#160;&#160;&#160;&#160;&#160;&#160;&#160;&#160;&#160;&#160;&#160;&#45;&gt;object_at BlueBox [0.0, 0.0, 0.22] 0.02 GreenBox -->
<g id="edge50" class="edge">
<title>Fallback &#160;&#160;&#160;&#160;&#160;&#160;&#160;&#160;&#160;&#160;&#160;&#160;&#45;&gt;object_at BlueBox [0.0, 0.0, 0.22] 0.02 GreenBox</title>
<path fill="none" stroke="black" d="M1507.91,-503.7C1507.91,-495.98 1507.91,-486.71 1507.91,-478.11"/>
<polygon fill="black" stroke="black" points="1511.42,-478.1 1507.91,-468.1 1504.42,-478.1 1511.42,-478.1"/>
</g>
<!-- Sequence &#160;&#160;&#160;&#160;&#160;&#160;&#160;&#160;&#160; -->
<g id="node52" class="node">
<title>Sequence &#160;&#160;&#160;&#160;&#160;&#160;&#160;&#160;&#160;</title>
<polygon fill="orange" stroke="black" points="1729.91,-468 1667.91,-468 1667.91,-432 1729.91,-432 1729.91,-468"/>
<text text-anchor="middle" x="1698.91" y="-447.8" font-family="Times,serif" font-size="9.00">Sequence</text>
</g>
<!-- Fallback &#160;&#160;&#160;&#160;&#160;&#160;&#160;&#160;&#160;&#160;&#160;&#160;&#45;&gt;Sequence &#160;&#160;&#160;&#160;&#160;&#160;&#160;&#160;&#160; -->
<g id="edge51" class="edge">
<title>Fallback &#160;&#160;&#160;&#160;&#160;&#160;&#160;&#160;&#160;&#160;&#160;&#160;&#45;&gt;Sequence &#160;&#160;&#160;&#160;&#160;&#160;&#160;&#160;&#160;</title>
<path fill="none" stroke="black" d="M1537.07,-511.39C1565.72,-501.81 1610.86,-486.35 1658.08,-468.22"/>
<polygon fill="black" stroke="black" points="1659.49,-471.43 1667.55,-464.56 1656.96,-464.9 1659.49,-471.43"/>
</g>
<!-- Fallback &#160;&#160;&#160;&#160;&#160;&#160;&#160;&#160;&#160;&#160;&#160;&#160;&#160; -->
<g id="node53" class="node">
<title>Fallback &#160;&#160;&#160;&#160;&#160;&#160;&#160;&#160;&#160;&#160;&#160;&#160;&#160;</title>
<polygon fill="cyan" stroke="black" points="1730.91,-370.54 1730.91,-385.46 1710.41,-396 1681.42,-396 1660.92,-385.46 1660.92,-370.54 1681.42,-360 1710.41,-360 1730.91,-370.54"/>
<text text-anchor="middle" x="1695.91" y="-375.8" font-family="Times,serif" font-size="9.00">Fallback</text>
</g>
<!-- Sequence &#160;&#160;&#160;&#160;&#160;&#160;&#160;&#160;&#160;&#45;&gt;Fallback &#160;&#160;&#160;&#160;&#160;&#160;&#160;&#160;&#160;&#160;&#160;&#160;&#160; -->
<g id="edge52" class="edge">
<title>Sequence &#160;&#160;&#160;&#160;&#160;&#160;&#160;&#160;&#160;&#45;&gt;Fallback &#160;&#160;&#160;&#160;&#160;&#160;&#160;&#160;&#160;&#160;&#160;&#160;&#160;</title>
<path fill="none" stroke="black" d="M1698.17,-431.7C1697.84,-423.98 1697.45,-414.71 1697.08,-406.11"/>
<polygon fill="black" stroke="black" points="1700.57,-405.95 1696.65,-396.1 1693.58,-406.25 1700.57,-405.95"/>
</g>
<!-- place0 BlueBox [0.0, 0.0, 0.22] 0.02 GreenBox -->
<g id="node60" class="node">
<title>place0 BlueBox [0.0, 0.0, 0.22] 0.02 GreenBox</title>
<ellipse fill="lightgray" stroke="black" cx="1884.91" cy="-378" rx="135.85" ry="18"/>
<text text-anchor="middle" x="1884.91" y="-375.8" font-family="Times,serif" font-size="9.00">place0 BlueBox [0.0, 0.0, 0.22] 0.02 GreenBox</text>
</g>
<!-- Sequence &#160;&#160;&#160;&#160;&#160;&#160;&#160;&#160;&#160;&#45;&gt;place0 BlueBox [0.0, 0.0, 0.22] 0.02 GreenBox -->
<g id="edge59" class="edge">
<title>Sequence &#160;&#160;&#160;&#160;&#160;&#160;&#160;&#160;&#160;&#45;&gt;place0 BlueBox [0.0, 0.0, 0.22] 0.02 GreenBox</title>
<path fill="none" stroke="black" d="M1730.05,-437.28C1758,-426.76 1799.61,-411.1 1832.66,-398.67"/>
<polygon fill="black" stroke="black" points="1834.05,-401.88 1842.17,-395.09 1831.58,-395.33 1834.05,-401.88"/>
</g>
<!-- in_gripper BlueBox  -->
<g id="node54" class="node">
<title>in_gripper BlueBox </title>
<ellipse fill="lightgray" stroke="black" cx="1593.91" cy="-306" rx="61.55" ry="18"/>
<text text-anchor="middle" x="1593.91" y="-303.8" font-family="Times,serif" font-size="9.00">in_gripper BlueBox</text>
</g>
<!-- Fallback &#160;&#160;&#160;&#160;&#160;&#160;&#160;&#160;&#160;&#160;&#160;&#160;&#160;&#45;&gt;in_gripper BlueBox  -->
<g id="edge53" class="edge">
<title>Fallback &#160;&#160;&#160;&#160;&#160;&#160;&#160;&#160;&#160;&#160;&#160;&#160;&#160;&#45;&gt;in_gripper BlueBox </title>
<path fill="none" stroke="black" d="M1675.27,-362.83C1661.03,-353.06 1641.82,-339.88 1625.64,-328.77"/>
<polygon fill="black" stroke="black" points="1627.24,-325.63 1617.02,-322.85 1623.28,-331.4 1627.24,-325.63"/>
</g>
<!-- Sequence &#160;&#160;&#160;&#160;&#160;&#160;&#160;&#160;&#160;&#160; -->
<g id="node55" class="node">
<title>Sequence &#160;&#160;&#160;&#160;&#160;&#160;&#160;&#160;&#160;&#160;</title>
<polygon fill="orange" stroke="black" points="1735.91,-324 1673.91,-324 1673.91,-288 1735.91,-288 1735.91,-324"/>
<text text-anchor="middle" x="1704.91" y="-303.8" font-family="Times,serif" font-size="9.00">Sequence</text>
</g>
<!-- Fallback &#160;&#160;&#160;&#160;&#160;&#160;&#160;&#160;&#160;&#160;&#160;&#160;&#160;&#45;&gt;Sequence &#160;&#160;&#160;&#160;&#160;&#160;&#160;&#160;&#160;&#160; -->
<g id="edge54" class="edge">
<title>Fallback &#160;&#160;&#160;&#160;&#160;&#160;&#160;&#160;&#160;&#160;&#160;&#160;&#160;&#45;&gt;Sequence &#160;&#160;&#160;&#160;&#160;&#160;&#160;&#160;&#160;&#160;</title>
<path fill="none" stroke="black" d="M1698.14,-359.7C1699.13,-351.98 1700.32,-342.71 1701.43,-334.11"/>
<polygon fill="black" stroke="black" points="1704.91,-334.47 1702.72,-324.1 1697.97,-333.58 1704.91,-334.47"/>
</g>
<!-- Fallback &#160;&#160;&#160;&#160;&#160;&#160;&#160;&#160;&#160;&#160;&#160;&#160;&#160;&#160; -->
<g id="node56" class="node">
<title>Fallback &#160;&#160;&#160;&#160;&#160;&#160;&#160;&#160;&#160;&#160;&#160;&#160;&#160;&#160;</title>
<polygon fill="cyan" stroke="black" points="1639.91,-226.54 1639.91,-241.46 1619.41,-252 1590.42,-252 1569.92,-241.46 1569.92,-226.54 1590.42,-216 1619.41,-216 1639.91,-226.54"/>
<text text-anchor="middle" x="1604.91" y="-231.8" font-family="Times,serif" font-size="9.00">Fallback</text>
</g>
<!-- Sequence &#160;&#160;&#160;&#160;&#160;&#160;&#160;&#160;&#160;&#160;&#45;&gt;Fallback &#160;&#160;&#160;&#160;&#160;&#160;&#160;&#160;&#160;&#160;&#160;&#160;&#160;&#160; -->
<g id="edge55" class="edge">
<title>Sequence &#160;&#160;&#160;&#160;&#160;&#160;&#160;&#160;&#160;&#160;&#45;&gt;Fallback &#160;&#160;&#160;&#160;&#160;&#160;&#160;&#160;&#160;&#160;&#160;&#160;&#160;&#160;</title>
<path fill="none" stroke="black" d="M1680.45,-287.88C1666.24,-277.93 1648.27,-265.35 1633.42,-254.95"/>
<polygon fill="black" stroke="black" points="1635.29,-251.99 1625.09,-249.12 1631.28,-257.72 1635.29,-251.99"/>
</g>
<!-- pick0 BlueBox  -->
<g id="node59" class="node">
<title>pick0 BlueBox </title>
<ellipse fill="lightgray" stroke="black" cx="1705.91" cy="-234" rx="47.84" ry="18"/>
<text text-anchor="middle" x="1705.91" y="-231.8" font-family="Times,serif" font-size="9.00">pick0 BlueBox</text>
</g>
<!-- Sequence &#160;&#160;&#160;&#160;&#160;&#160;&#160;&#160;&#160;&#160;&#45;&gt;pick0 BlueBox  -->
<g id="edge58" class="edge">
<title>Sequence &#160;&#160;&#160;&#160;&#160;&#160;&#160;&#160;&#160;&#160;&#45;&gt;pick0 BlueBox </title>
<path fill="none" stroke="black" d="M1705.16,-287.7C1705.27,-279.98 1705.4,-270.71 1705.53,-262.11"/>
<polygon fill="black" stroke="black" points="1709.03,-262.15 1705.67,-252.1 1702.03,-262.05 1709.03,-262.15"/>
</g>
<!-- gripper_state open &#160;&#160;&#160; -->
<g id="node57" class="node">
<title>gripper_state open &#160;&#160;&#160;</title>
<ellipse fill="lightgray" stroke="black" cx="1498.91" cy="-162" rx="60.09" ry="18"/>
<text text-anchor="middle" x="1498.91" y="-159.8" font-family="Times,serif" font-size="9.00">gripper_state open</text>
</g>
<!-- Fallback &#160;&#160;&#160;&#160;&#160;&#160;&#160;&#160;&#160;&#160;&#160;&#160;&#160;&#160;&#45;&gt;gripper_state open &#160;&#160;&#160; -->
<g id="edge56" class="edge">
<title>Fallback &#160;&#160;&#160;&#160;&#160;&#160;&#160;&#160;&#160;&#160;&#160;&#160;&#160;&#160;&#45;&gt;gripper_state open &#160;&#160;&#160;</title>
<path fill="none" stroke="black" d="M1583.97,-219.17C1568.97,-209.26 1548.48,-195.73 1531.37,-184.43"/>
<polygon fill="black" stroke="black" points="1533.05,-181.35 1522.77,-178.76 1529.19,-187.19 1533.05,-181.35"/>
</g>
<!-- open_gripper &#160;&#160;&#160; -->
<g id="node58" class="node">
<title>open_gripper &#160;&#160;&#160;</title>
<ellipse fill="lightgray" stroke="black" cx="1622.91" cy="-162" rx="45.72" ry="18"/>
<text text-anchor="middle" x="1622.91" y="-159.8" font-family="Times,serif" font-size="9.00">open_gripper</text>
</g>
<!-- Fallback &#160;&#160;&#160;&#160;&#160;&#160;&#160;&#160;&#160;&#160;&#160;&#160;&#160;&#160;&#45;&gt;open_gripper &#160;&#160;&#160; -->
<g id="edge57" class="edge">
<title>Fallback &#160;&#160;&#160;&#160;&#160;&#160;&#160;&#160;&#160;&#160;&#160;&#160;&#160;&#160;&#45;&gt;open_gripper &#160;&#160;&#160;</title>
<path fill="none" stroke="black" d="M1609.36,-215.7C1611.37,-207.9 1613.78,-198.51 1616.02,-189.83"/>
<polygon fill="black" stroke="black" points="1619.42,-190.66 1618.52,-180.1 1612.64,-188.92 1619.42,-190.66"/>
</g>
</g>
</svg>
