<?xml version="1.0" encoding="UTF-8" standalone="no"?>
<!DOCTYPE svg PUBLIC "-//W3C//DTD SVG 1.1//EN"
 "http://www.w3.org/Graphics/SVG/1.1/DTD/svg11.dtd">
<!-- Generated by graphviz version 2.43.0 (0)
 -->
<!-- Title: pastafarianism Pages: 1 -->
<svg width="3377pt" height="716pt"
 viewBox="0.00 0.00 3376.99 715.95" xmlns="http://www.w3.org/2000/svg" xmlns:xlink="http://www.w3.org/1999/xlink">
<g id="graph0" class="graph" transform="scale(1 1) rotate(0) translate(4 711.95)">
<title>pastafarianism</title>
<polygon fill="white" stroke="transparent" points="-4,4 -4,-711.95 3372.99,-711.95 3372.99,4 -4,4"/>
<!-- selector:
 insert(left_hand, outwardgripper, gear3, shaft3) -->
<g id="node1" class="node">
<title>selector:
 insert(left_hand, outwardgripper, gear3, shaft3)</title>
<polygon fill="#8deeee" stroke="black" points="1230.34,-655.9 1230.34,-686.53 1025.89,-708.19 736.76,-708.19 532.31,-686.53 532.31,-655.9 736.76,-634.24 1025.89,-634.24 1230.34,-655.9"/>
<text text-anchor="middle" x="881.32" y="-676.82" font-family="Times,serif" font-size="18.00">selector:</text>
<text text-anchor="middle" x="881.32" y="-656.82" font-family="Times,serif" font-size="18.00"> insert(left_hand, outwardgripper, gear3, shaft3)</text>
</g>
<!-- target:
 is_inserted_to(gear3, shaft3) -->
<g id="node2" class="node">
<title>target:
 is_inserted_to(gear3, shaft3)</title>
<ellipse fill="#ffec8b" stroke="black" cx="659.32" cy="-564.54" rx="198.89" ry="33.88"/>
<text text-anchor="middle" x="659.32" y="-570.14" font-family="Times,serif" font-size="18.00">target:</text>
<text text-anchor="middle" x="659.32" y="-550.14" font-family="Times,serif" font-size="18.00"> is_inserted_to(gear3, shaft3)</text>
</g>
<!-- selector:
 insert(left_hand, outwardgripper, gear3, shaft3)&#45;&gt;target:
 is_inserted_to(gear3, shaft3) -->
<g id="edge1" class="edge">
<title>selector:
 insert(left_hand, outwardgripper, gear3, shaft3)&#45;&gt;target:
 is_inserted_to(gear3, shaft3)</title>
<path fill="none" stroke="black" d="M805.24,-634.34C782.4,-623.57 757.37,-611.77 734.59,-601.03"/>
<polygon fill="black" stroke="black" points="735.85,-597.75 725.31,-596.65 732.86,-604.08 735.85,-597.75"/>
</g>
<!-- sequence:
 insert(left_hand, outwardgripper, gear3, shaft3) -->
<g id="node3" class="node">
<title>sequence:
 insert(left_hand, outwardgripper, gear3, shaft3)</title>
<polygon fill="#ff7f24" stroke="black" points="1332.32,-588.54 876.32,-588.54 876.32,-540.54 1332.32,-540.54 1332.32,-588.54"/>
<text text-anchor="middle" x="1104.32" y="-570.14" font-family="Times,serif" font-size="18.00">sequence:</text>
<text text-anchor="middle" x="1104.32" y="-550.14" font-family="Times,serif" font-size="18.00"> insert(left_hand, outwardgripper, gear3, shaft3)</text>
</g>
<!-- selector:
 insert(left_hand, outwardgripper, gear3, shaft3)&#45;&gt;sequence:
 insert(left_hand, outwardgripper, gear3, shaft3) -->
<g id="edge2" class="edge">
<title>selector:
 insert(left_hand, outwardgripper, gear3, shaft3)&#45;&gt;sequence:
 insert(left_hand, outwardgripper, gear3, shaft3)</title>
<path fill="none" stroke="black" d="M957.76,-634.34C986.63,-620.79 1018.99,-605.59 1045.95,-592.94"/>
<polygon fill="black" stroke="black" points="1047.68,-595.99 1055.25,-588.58 1044.71,-589.66 1047.68,-595.99"/>
</g>
<!-- precondition:
 hold(left_hand, outwardgripper) -->
<g id="node4" class="node">
<title>precondition:
 hold(left_hand, outwardgripper)</title>
<ellipse fill="#ffec8b" stroke="black" cx="221.32" cy="-457.86" rx="221.15" ry="33.88"/>
<text text-anchor="middle" x="221.32" y="-463.46" font-family="Times,serif" font-size="18.00">precondition:</text>
<text text-anchor="middle" x="221.32" y="-443.46" font-family="Times,serif" font-size="18.00"> hold(left_hand, outwardgripper)</text>
</g>
<!-- sequence:
 insert(left_hand, outwardgripper, gear3, shaft3)&#45;&gt;precondition:
 hold(left_hand, outwardgripper) -->
<g id="edge3" class="edge">
<title>sequence:
 insert(left_hand, outwardgripper, gear3, shaft3)&#45;&gt;precondition:
 hold(left_hand, outwardgripper)</title>
<path fill="none" stroke="black" d="M947.03,-540.51C920.45,-536.96 893.12,-533.5 867.32,-530.6 682.91,-509.82 635.56,-516.86 451.32,-494.6 427.79,-491.75 402.96,-488.34 378.67,-484.76"/>
<polygon fill="black" stroke="black" points="379.07,-481.28 368.66,-483.27 378.04,-488.2 379.07,-481.28"/>
</g>
<!-- selector:
 pick_up(left_hand, outwardgripper, gear3) -->
<g id="node5" class="node">
<title>selector:
 pick_up(left_hand, outwardgripper, gear3)</title>
<polygon fill="#8deeee" stroke="black" points="1080.27,-442.54 1080.27,-473.18 898.71,-494.84 641.94,-494.84 460.38,-473.18 460.38,-442.54 641.94,-420.88 898.71,-420.88 1080.27,-442.54"/>
<text text-anchor="middle" x="770.32" y="-463.46" font-family="Times,serif" font-size="18.00">selector:</text>
<text text-anchor="middle" x="770.32" y="-443.46" font-family="Times,serif" font-size="18.00"> pick_up(left_hand, outwardgripper, gear3)</text>
</g>
<!-- sequence:
 insert(left_hand, outwardgripper, gear3, shaft3)&#45;&gt;selector:
 pick_up(left_hand, outwardgripper, gear3) -->
<g id="edge4" class="edge">
<title>sequence:
 insert(left_hand, outwardgripper, gear3, shaft3)&#45;&gt;selector:
 pick_up(left_hand, outwardgripper, gear3)</title>
<path fill="none" stroke="black" d="M1030.61,-540.44C990.62,-527.9 940.11,-512.07 894.26,-497.7"/>
<polygon fill="black" stroke="black" points="895.14,-494.31 884.55,-494.66 893.04,-500.99 895.14,-494.31"/>
</g>
<!-- selector:
 insert(left_hand, defaultgripper, gear3, shaft3) -->
<g id="node11" class="node">
<title>selector:
 insert(left_hand, defaultgripper, gear3, shaft3)</title>
<polygon fill="#8deeee" stroke="black" points="1780,-442.54 1780,-473.18 1580.44,-494.84 1298.21,-494.84 1098.65,-473.18 1098.65,-442.54 1298.21,-420.88 1580.44,-420.88 1780,-442.54"/>
<text text-anchor="middle" x="1439.32" y="-463.46" font-family="Times,serif" font-size="18.00">selector:</text>
<text text-anchor="middle" x="1439.32" y="-443.46" font-family="Times,serif" font-size="18.00"> insert(left_hand, defaultgripper, gear3, shaft3)</text>
</g>
<!-- sequence:
 insert(left_hand, outwardgripper, gear3, shaft3)&#45;&gt;selector:
 insert(left_hand, defaultgripper, gear3, shaft3) -->
<g id="edge10" class="edge">
<title>sequence:
 insert(left_hand, outwardgripper, gear3, shaft3)&#45;&gt;selector:
 insert(left_hand, defaultgripper, gear3, shaft3)</title>
<path fill="none" stroke="black" d="M1178.26,-540.44C1218.37,-527.9 1269.03,-512.07 1315.02,-497.7"/>
<polygon fill="black" stroke="black" points="1316.26,-500.98 1324.76,-494.66 1314.17,-494.3 1316.26,-500.98"/>
</g>
<!-- action:
 insert(left_hand, outwardgripper, gear3, shaft3) -->
<g id="node22" class="node">
<title>action:
 insert(left_hand, outwardgripper, gear3, shaft3)</title>
<ellipse fill="lightgreen" stroke="black" cx="2120.32" cy="-457.86" rx="322.38" ry="33.88"/>
<text text-anchor="middle" x="2120.32" y="-463.46" font-family="Times,serif" font-size="18.00">action:</text>
<text text-anchor="middle" x="2120.32" y="-443.46" font-family="Times,serif" font-size="18.00"> insert(left_hand, outwardgripper, gear3, shaft3)</text>
</g>
<!-- sequence:
 insert(left_hand, outwardgripper, gear3, shaft3)&#45;&gt;action:
 insert(left_hand, outwardgripper, gear3, shaft3) -->
<g id="edge21" class="edge">
<title>sequence:
 insert(left_hand, outwardgripper, gear3, shaft3)&#45;&gt;action:
 insert(left_hand, outwardgripper, gear3, shaft3)</title>
<path fill="none" stroke="black" d="M1332.7,-540.97C1465.91,-527.7 1637.16,-510.47 1789.32,-494.6 1822.16,-491.17 1856.81,-487.5 1890.85,-483.85"/>
<polygon fill="black" stroke="black" points="1891.34,-487.32 1900.91,-482.78 1890.59,-480.36 1891.34,-487.32"/>
</g>
<!-- target:
 hold(outwardgripper, gear3) -->
<g id="node6" class="node">
<title>target:
 hold(outwardgripper, gear3)</title>
<ellipse fill="#ffec8b" stroke="black" cx="353.32" cy="-351.18" rx="196.65" ry="33.88"/>
<text text-anchor="middle" x="353.32" y="-356.78" font-family="Times,serif" font-size="18.00">target:</text>
<text text-anchor="middle" x="353.32" y="-336.78" font-family="Times,serif" font-size="18.00"> hold(outwardgripper, gear3)</text>
</g>
<!-- selector:
 pick_up(left_hand, outwardgripper, gear3)&#45;&gt;target:
 hold(outwardgripper, gear3) -->
<g id="edge5" class="edge">
<title>selector:
 pick_up(left_hand, outwardgripper, gear3)&#45;&gt;target:
 hold(outwardgripper, gear3)</title>
<path fill="none" stroke="black" d="M631.76,-422.08C579.99,-409.08 521.71,-394.45 471.9,-381.95"/>
<polygon fill="black" stroke="black" points="472.61,-378.52 462.06,-379.48 470.91,-385.31 472.61,-378.52"/>
</g>
<!-- sequence:
 pick_up(left_hand, outwardgripper, gear3) -->
<g id="node7" class="node">
<title>sequence:
 pick_up(left_hand, outwardgripper, gear3)</title>
<polygon fill="#ff7f24" stroke="black" points="972.82,-375.18 567.82,-375.18 567.82,-327.18 972.82,-327.18 972.82,-375.18"/>
<text text-anchor="middle" x="770.32" y="-356.78" font-family="Times,serif" font-size="18.00">sequence:</text>
<text text-anchor="middle" x="770.32" y="-336.78" font-family="Times,serif" font-size="18.00"> pick_up(left_hand, outwardgripper, gear3)</text>
</g>
<!-- selector:
 pick_up(left_hand, outwardgripper, gear3)&#45;&gt;sequence:
 pick_up(left_hand, outwardgripper, gear3) -->
<g id="edge6" class="edge">
<title>selector:
 pick_up(left_hand, outwardgripper, gear3)&#45;&gt;sequence:
 pick_up(left_hand, outwardgripper, gear3)</title>
<path fill="none" stroke="black" d="M770.32,-420.84C770.32,-409.45 770.32,-396.92 770.32,-385.72"/>
<polygon fill="black" stroke="black" points="773.82,-385.47 770.32,-375.47 766.82,-385.47 773.82,-385.47"/>
</g>
<!-- &quot;precondition:\n hold(left_hand, outwardgripper)&quot;* -->
<g id="node8" class="node">
<title>&quot;precondition:\n hold(left_hand, outwardgripper)&quot;*</title>
<ellipse fill="#ffec8b" stroke="black" cx="301.32" cy="-244.5" rx="233.19" ry="33.88"/>
<text text-anchor="middle" x="301.32" y="-250.1" font-family="Times,serif" font-size="18.00">&quot;precondition:</text>
<text text-anchor="middle" x="301.32" y="-230.1" font-family="Times,serif" font-size="18.00"> hold(left_hand, outwardgripper)&quot;*</text>
</g>
<!-- sequence:
 pick_up(left_hand, outwardgripper, gear3)&#45;&gt;&quot;precondition:\n hold(left_hand, outwardgripper)&quot;* -->
<g id="edge7" class="edge">
<title>sequence:
 pick_up(left_hand, outwardgripper, gear3)&#45;&gt;&quot;precondition:\n hold(left_hand, outwardgripper)&quot;*</title>
<path fill="none" stroke="black" d="M667.11,-327.14C599.1,-311.96 509.35,-291.93 435.77,-275.51"/>
<polygon fill="black" stroke="black" points="436.48,-272.08 425.96,-273.32 434.96,-278.91 436.48,-272.08"/>
</g>
<!-- precondition:
 is_empty(outwardgripper) -->
<g id="node9" class="node">
<title>precondition:
 is_empty(outwardgripper)</title>
<ellipse fill="#ffec8b" stroke="black" cx="735.32" cy="-244.5" rx="183.28" ry="33.88"/>
<text text-anchor="middle" x="735.32" y="-250.1" font-family="Times,serif" font-size="18.00">precondition:</text>
<text text-anchor="middle" x="735.32" y="-230.1" font-family="Times,serif" font-size="18.00"> is_empty(outwardgripper)</text>
</g>
<!-- sequence:
 pick_up(left_hand, outwardgripper, gear3)&#45;&gt;precondition:
 is_empty(outwardgripper) -->
<g id="edge8" class="edge">
<title>sequence:
 pick_up(left_hand, outwardgripper, gear3)&#45;&gt;precondition:
 is_empty(outwardgripper)</title>
<path fill="none" stroke="black" d="M762.56,-326.95C758.77,-315.62 754.09,-301.63 749.69,-288.45"/>
<polygon fill="black" stroke="black" points="752.88,-286.97 746.39,-278.6 746.24,-289.19 752.88,-286.97"/>
</g>
<!-- action:
 pick_up(left_hand, outwardgripper, gear3) -->
<g id="node10" class="node">
<title>action:
 pick_up(left_hand, outwardgripper, gear3)</title>
<ellipse fill="lightgreen" stroke="black" cx="1223.32" cy="-244.5" rx="286.26" ry="33.88"/>
<text text-anchor="middle" x="1223.32" y="-250.1" font-family="Times,serif" font-size="18.00">action:</text>
<text text-anchor="middle" x="1223.32" y="-230.1" font-family="Times,serif" font-size="18.00"> pick_up(left_hand, outwardgripper, gear3)</text>
</g>
<!-- sequence:
 pick_up(left_hand, outwardgripper, gear3)&#45;&gt;action:
 pick_up(left_hand, outwardgripper, gear3) -->
<g id="edge9" class="edge">
<title>sequence:
 pick_up(left_hand, outwardgripper, gear3)&#45;&gt;action:
 pick_up(left_hand, outwardgripper, gear3)</title>
<path fill="none" stroke="black" d="M870.02,-327.14C933.33,-312.51 1016.15,-293.38 1085.69,-277.31"/>
<polygon fill="black" stroke="black" points="1086.89,-280.62 1095.85,-274.96 1085.32,-273.8 1086.89,-280.62"/>
</g>
<!-- &quot;target:\n is_inserted_to(gear3, shaft3)&quot;* -->
<g id="node12" class="node">
<title>&quot;target:\n is_inserted_to(gear3, shaft3)&quot;*</title>
<ellipse fill="#ffec8b" stroke="black" cx="1439.32" cy="-351.18" rx="211.35" ry="33.88"/>
<text text-anchor="middle" x="1439.32" y="-356.78" font-family="Times,serif" font-size="18.00">&quot;target:</text>
<text text-anchor="middle" x="1439.32" y="-336.78" font-family="Times,serif" font-size="18.00"> is_inserted_to(gear3, shaft3)&quot;*</text>
</g>
<!-- selector:
 insert(left_hand, defaultgripper, gear3, shaft3)&#45;&gt;&quot;target:\n is_inserted_to(gear3, shaft3)&quot;* -->
<g id="edge11" class="edge">
<title>selector:
 insert(left_hand, defaultgripper, gear3, shaft3)&#45;&gt;&quot;target:\n is_inserted_to(gear3, shaft3)&quot;*</title>
<path fill="none" stroke="black" d="M1439.32,-420.84C1439.32,-412.68 1439.32,-403.93 1439.32,-395.51"/>
<polygon fill="black" stroke="black" points="1442.82,-395.46 1439.32,-385.46 1435.82,-395.46 1442.82,-395.46"/>
</g>
<!-- sequence:
 insert(left_hand, defaultgripper, gear3, shaft3) -->
<g id="node13" class="node">
<title>sequence:
 insert(left_hand, defaultgripper, gear3, shaft3)</title>
<polygon fill="#ff7f24" stroke="black" points="2452.82,-375.18 2007.82,-375.18 2007.82,-327.18 2452.82,-327.18 2452.82,-375.18"/>
<text text-anchor="middle" x="2230.32" y="-356.78" font-family="Times,serif" font-size="18.00">sequence:</text>
<text text-anchor="middle" x="2230.32" y="-336.78" font-family="Times,serif" font-size="18.00"> insert(left_hand, defaultgripper, gear3, shaft3)</text>
</g>
<!-- selector:
 insert(left_hand, defaultgripper, gear3, shaft3)&#45;&gt;sequence:
 insert(left_hand, defaultgripper, gear3, shaft3) -->
<g id="edge12" class="edge">
<title>selector:
 insert(left_hand, defaultgripper, gear3, shaft3)&#45;&gt;sequence:
 insert(left_hand, defaultgripper, gear3, shaft3)</title>
<path fill="none" stroke="black" d="M1652.34,-428.67C1775.28,-412.4 1928.35,-392.14 2046.07,-376.56"/>
<polygon fill="black" stroke="black" points="2046.82,-380 2056.27,-375.21 2045.9,-373.06 2046.82,-380"/>
</g>
<!-- selector:
 change_tool(left_hand, outwardgripper, defaultgripper) -->
<g id="node14" class="node">
<title>selector:
 change_tool(left_hand, outwardgripper, defaultgripper)</title>
<polygon fill="#8deeee" stroke="black" points="2326.87,-229.19 2326.87,-259.82 2092.82,-281.48 1761.83,-281.48 1527.78,-259.82 1527.78,-229.19 1761.83,-207.53 2092.82,-207.53 2326.87,-229.19"/>
<text text-anchor="middle" x="1927.32" y="-250.1" font-family="Times,serif" font-size="18.00">selector:</text>
<text text-anchor="middle" x="1927.32" y="-230.1" font-family="Times,serif" font-size="18.00"> change_tool(left_hand, outwardgripper, defaultgripper)</text>
</g>
<!-- sequence:
 insert(left_hand, defaultgripper, gear3, shaft3)&#45;&gt;selector:
 change_tool(left_hand, outwardgripper, defaultgripper) -->
<g id="edge13" class="edge">
<title>sequence:
 insert(left_hand, defaultgripper, gear3, shaft3)&#45;&gt;selector:
 change_tool(left_hand, outwardgripper, defaultgripper)</title>
<path fill="none" stroke="black" d="M2163.45,-327.08C2127.4,-314.62 2081.93,-298.91 2040.54,-284.61"/>
<polygon fill="black" stroke="black" points="2041.54,-281.26 2030.95,-281.3 2039.25,-287.87 2041.54,-281.26"/>
</g>
<!-- precondition:
 hold(defaultgripper, gear3) -->
<g id="node20" class="node">
<title>precondition:
 hold(defaultgripper, gear3)</title>
<ellipse fill="#ffec8b" stroke="black" cx="2533.32" cy="-244.5" rx="188.6" ry="33.88"/>
<text text-anchor="middle" x="2533.32" y="-250.1" font-family="Times,serif" font-size="18.00">precondition:</text>
<text text-anchor="middle" x="2533.32" y="-230.1" font-family="Times,serif" font-size="18.00"> hold(defaultgripper, gear3)</text>
</g>
<!-- sequence:
 insert(left_hand, defaultgripper, gear3, shaft3)&#45;&gt;precondition:
 hold(defaultgripper, gear3) -->
<g id="edge19" class="edge">
<title>sequence:
 insert(left_hand, defaultgripper, gear3, shaft3)&#45;&gt;precondition:
 hold(defaultgripper, gear3)</title>
<path fill="none" stroke="black" d="M2297.19,-327.08C2338.77,-312.72 2392.85,-294.03 2438.77,-278.17"/>
<polygon fill="black" stroke="black" points="2440.13,-281.4 2448.44,-274.83 2437.85,-274.78 2440.13,-281.4"/>
</g>
<!-- action:
 insert(left_hand, defaultgripper, gear3, shaft3) -->
<g id="node21" class="node">
<title>action:
 insert(left_hand, defaultgripper, gear3, shaft3)</title>
<ellipse fill="lightgreen" stroke="black" cx="3054.32" cy="-244.5" rx="314.83" ry="33.88"/>
<text text-anchor="middle" x="3054.32" y="-250.1" font-family="Times,serif" font-size="18.00">action:</text>
<text text-anchor="middle" x="3054.32" y="-230.1" font-family="Times,serif" font-size="18.00"> insert(left_hand, defaultgripper, gear3, shaft3)</text>
</g>
<!-- sequence:
 insert(left_hand, defaultgripper, gear3, shaft3)&#45;&gt;action:
 insert(left_hand, defaultgripper, gear3, shaft3) -->
<g id="edge20" class="edge">
<title>sequence:
 insert(left_hand, defaultgripper, gear3, shaft3)&#45;&gt;action:
 insert(left_hand, defaultgripper, gear3, shaft3)</title>
<path fill="none" stroke="black" d="M2411.41,-327.18C2539.33,-310.93 2711.12,-289.1 2844.94,-272.1"/>
<polygon fill="black" stroke="black" points="2845.43,-275.57 2854.91,-270.84 2844.55,-268.62 2845.43,-275.57"/>
</g>
<!-- target:
 hold(left_hand, defaultgripper) -->
<g id="node15" class="node">
<title>target:
 hold(left_hand, defaultgripper)</title>
<ellipse fill="#ffec8b" stroke="black" cx="1681.32" cy="-137.82" rx="213.59" ry="33.88"/>
<text text-anchor="middle" x="1681.32" y="-143.42" font-family="Times,serif" font-size="18.00">target:</text>
<text text-anchor="middle" x="1681.32" y="-123.42" font-family="Times,serif" font-size="18.00"> hold(left_hand, defaultgripper)</text>
</g>
<!-- selector:
 change_tool(left_hand, outwardgripper, defaultgripper)&#45;&gt;target:
 hold(left_hand, defaultgripper) -->
<g id="edge14" class="edge">
<title>selector:
 change_tool(left_hand, outwardgripper, defaultgripper)&#45;&gt;target:
 hold(left_hand, defaultgripper)</title>
<path fill="none" stroke="black" d="M1843.01,-207.62C1817.24,-196.66 1788.96,-184.62 1763.35,-173.73"/>
<polygon fill="black" stroke="black" points="1764.61,-170.46 1754.04,-169.77 1761.87,-176.9 1764.61,-170.46"/>
</g>
<!-- sequence:
 change_tool(left_hand, outwardgripper, defaultgripper) -->
<g id="node16" class="node">
<title>sequence:
 change_tool(left_hand, outwardgripper, defaultgripper)</title>
<polygon fill="#ff7f24" stroke="black" points="2435.32,-161.82 1913.32,-161.82 1913.32,-113.82 2435.32,-113.82 2435.32,-161.82"/>
<text text-anchor="middle" x="2174.32" y="-143.42" font-family="Times,serif" font-size="18.00">sequence:</text>
<text text-anchor="middle" x="2174.32" y="-123.42" font-family="Times,serif" font-size="18.00"> change_tool(left_hand, outwardgripper, defaultgripper)</text>
</g>
<!-- selector:
 change_tool(left_hand, outwardgripper, defaultgripper)&#45;&gt;sequence:
 change_tool(left_hand, outwardgripper, defaultgripper) -->
<g id="edge15" class="edge">
<title>selector:
 change_tool(left_hand, outwardgripper, defaultgripper)&#45;&gt;sequence:
 change_tool(left_hand, outwardgripper, defaultgripper)</title>
<path fill="none" stroke="black" d="M2011.98,-207.62C2044.24,-193.95 2080.44,-178.61 2110.45,-165.89"/>
<polygon fill="black" stroke="black" points="2112.12,-168.98 2119.97,-161.86 2109.39,-162.54 2112.12,-168.98"/>
</g>
<!-- &quot;precondition:\n hold(left_hand, outwardgripper)&quot;** -->
<g id="node17" class="node">
<title>&quot;precondition:\n hold(left_hand, outwardgripper)&quot;**</title>
<ellipse fill="#ffec8b" stroke="black" cx="1721.32" cy="-33.94" rx="239.92" ry="33.88"/>
<text text-anchor="middle" x="1721.32" y="-39.54" font-family="Times,serif" font-size="18.00">&quot;precondition:</text>
<text text-anchor="middle" x="1721.32" y="-19.54" font-family="Times,serif" font-size="18.00"> hold(left_hand, outwardgripper)&quot;**</text>
</g>
<!-- sequence:
 change_tool(left_hand, outwardgripper, defaultgripper)&#45;&gt;&quot;precondition:\n hold(left_hand, outwardgripper)&quot;** -->
<g id="edge16" class="edge">
<title>sequence:
 change_tool(left_hand, outwardgripper, defaultgripper)&#45;&gt;&quot;precondition:\n hold(left_hand, outwardgripper)&quot;**</title>
<path fill="none" stroke="black" d="M2071.81,-113.77C2008.01,-99.42 1925.22,-80.8 1856.13,-65.26"/>
<polygon fill="black" stroke="black" points="1856.57,-61.77 1846.04,-62.99 1855.03,-68.6 1856.57,-61.77"/>
</g>
<!-- &quot;precondition:\n is_empty(outwardgripper)&quot;* -->
<g id="node18" class="node">
<title>&quot;precondition:\n is_empty(outwardgripper)&quot;*</title>
<ellipse fill="#ffec8b" stroke="black" cx="2174.32" cy="-33.94" rx="195.32" ry="33.88"/>
<text text-anchor="middle" x="2174.32" y="-39.54" font-family="Times,serif" font-size="18.00">&quot;precondition:</text>
<text text-anchor="middle" x="2174.32" y="-19.54" font-family="Times,serif" font-size="18.00"> is_empty(outwardgripper)&quot;*</text>
</g>
<!-- sequence:
 change_tool(left_hand, outwardgripper, defaultgripper)&#45;&gt;&quot;precondition:\n is_empty(outwardgripper)&quot;* -->
<g id="edge17" class="edge">
<title>sequence:
 change_tool(left_hand, outwardgripper, defaultgripper)&#45;&gt;&quot;precondition:\n is_empty(outwardgripper)&quot;*</title>
<path fill="none" stroke="black" d="M2174.32,-113.7C2174.32,-103.16 2174.32,-90.31 2174.32,-78.08"/>
<polygon fill="black" stroke="black" points="2177.82,-78.01 2174.32,-68.01 2170.82,-78.01 2177.82,-78.01"/>
</g>
<!-- action:
 change_tool(left_hand, outwardgripper, defaultgripper) -->
<g id="node19" class="node">
<title>action:
 change_tool(left_hand, outwardgripper, defaultgripper)</title>
<ellipse fill="lightgreen" stroke="black" cx="2756.32" cy="-33.94" rx="369.22" ry="33.88"/>
<text text-anchor="middle" x="2756.32" y="-39.54" font-family="Times,serif" font-size="18.00">action:</text>
<text text-anchor="middle" x="2756.32" y="-19.54" font-family="Times,serif" font-size="18.00"> change_tool(left_hand, outwardgripper, defaultgripper)</text>
</g>
<!-- sequence:
 change_tool(left_hand, outwardgripper, defaultgripper)&#45;&gt;action:
 change_tool(left_hand, outwardgripper, defaultgripper) -->
<g id="edge18" class="edge">
<title>sequence:
 change_tool(left_hand, outwardgripper, defaultgripper)&#45;&gt;action:
 change_tool(left_hand, outwardgripper, defaultgripper)</title>
<path fill="none" stroke="black" d="M2306.03,-113.77C2386.75,-99.64 2491.1,-81.37 2579.03,-65.98"/>
<polygon fill="black" stroke="black" points="2579.87,-69.38 2589.12,-64.21 2578.66,-62.49 2579.87,-69.38"/>
</g>
</g>
</svg>
