<?xml version="1.0" encoding="UTF-8" standalone="no"?>
<!DOCTYPE svg PUBLIC "-//W3C//DTD SVG 1.1//EN"
 "http://www.w3.org/Graphics/SVG/1.1/DTD/svg11.dtd">
<!-- Generated by graphviz version 2.43.0 (0)
 -->
<!-- Title: pastafarianism Pages: 1 -->
<svg width="3309pt" height="929pt"
 viewBox="0.00 0.00 3309.01 929.31" xmlns="http://www.w3.org/2000/svg" xmlns:xlink="http://www.w3.org/1999/xlink">
<g id="graph0" class="graph" transform="scale(1 1) rotate(0) translate(4 925.31)">
<title>pastafarianism</title>
<polygon fill="white" stroke="transparent" points="-4,4 -4,-925.31 3305.01,-925.31 3305.01,4 -4,4"/>
<!-- selector:
 insert(left_hand, outwardgripper, gear3, shaft3) -->
<g id="node1" class="node">
<title>selector:
 insert(left_hand, outwardgripper, gear3, shaft3)</title>
<polygon fill="#8deeee" stroke="black" points="1389.36,-869.26 1389.36,-899.89 1184.91,-921.55 895.78,-921.55 691.33,-899.89 691.33,-869.26 895.78,-847.6 1184.91,-847.6 1389.36,-869.26"/>
<text text-anchor="middle" x="1040.35" y="-890.17" font-family="Times,serif" font-size="18.00">selector:</text>
<text text-anchor="middle" x="1040.35" y="-870.17" font-family="Times,serif" font-size="18.00"> insert(left_hand, outwardgripper, gear3, shaft3)</text>
</g>
<!-- target:
 is_inserted_to(gear3, shaft3) -->
<g id="node2" class="node">
<title>target:
 is_inserted_to(gear3, shaft3)</title>
<ellipse fill="#ffec8b" stroke="black" cx="818.35" cy="-777.9" rx="198.89" ry="33.88"/>
<text text-anchor="middle" x="818.35" y="-783.5" font-family="Times,serif" font-size="18.00">target:</text>
<text text-anchor="middle" x="818.35" y="-763.5" font-family="Times,serif" font-size="18.00"> is_inserted_to(gear3, shaft3)</text>
</g>
<!-- selector:
 insert(left_hand, outwardgripper, gear3, shaft3)&#45;&gt;target:
 is_inserted_to(gear3, shaft3) -->
<g id="edge1" class="edge">
<title>selector:
 insert(left_hand, outwardgripper, gear3, shaft3)&#45;&gt;target:
 is_inserted_to(gear3, shaft3)</title>
<path fill="none" stroke="black" d="M964.26,-847.7C941.42,-836.93 916.39,-825.13 893.61,-814.38"/>
<polygon fill="black" stroke="black" points="894.87,-811.11 884.33,-810.01 891.88,-817.44 894.87,-811.11"/>
</g>
<!-- sequence:
 insert(left_hand, outwardgripper, gear3, shaft3) -->
<g id="node3" class="node">
<title>sequence:
 insert(left_hand, outwardgripper, gear3, shaft3)</title>
<polygon fill="#ff7f24" stroke="black" points="1491.35,-801.9 1035.35,-801.9 1035.35,-753.9 1491.35,-753.9 1491.35,-801.9"/>
<text text-anchor="middle" x="1263.35" y="-783.5" font-family="Times,serif" font-size="18.00">sequence:</text>
<text text-anchor="middle" x="1263.35" y="-763.5" font-family="Times,serif" font-size="18.00"> insert(left_hand, outwardgripper, gear3, shaft3)</text>
</g>
<!-- selector:
 insert(left_hand, outwardgripper, gear3, shaft3)&#45;&gt;sequence:
 insert(left_hand, outwardgripper, gear3, shaft3) -->
<g id="edge2" class="edge">
<title>selector:
 insert(left_hand, outwardgripper, gear3, shaft3)&#45;&gt;sequence:
 insert(left_hand, outwardgripper, gear3, shaft3)</title>
<path fill="none" stroke="black" d="M1116.78,-847.7C1145.65,-834.14 1178.02,-818.95 1204.97,-806.3"/>
<polygon fill="black" stroke="black" points="1206.7,-809.35 1214.27,-801.93 1203.73,-803.01 1206.7,-809.35"/>
</g>
<!-- precondition:
 hold(left_hand, outwardgripper) -->
<g id="node4" class="node">
<title>precondition:
 hold(left_hand, outwardgripper)</title>
<ellipse fill="#ffec8b" stroke="black" cx="380.35" cy="-671.22" rx="221.15" ry="33.88"/>
<text text-anchor="middle" x="380.35" y="-676.82" font-family="Times,serif" font-size="18.00">precondition:</text>
<text text-anchor="middle" x="380.35" y="-656.82" font-family="Times,serif" font-size="18.00"> hold(left_hand, outwardgripper)</text>
</g>
<!-- sequence:
 insert(left_hand, outwardgripper, gear3, shaft3)&#45;&gt;precondition:
 hold(left_hand, outwardgripper) -->
<g id="edge3" class="edge">
<title>sequence:
 insert(left_hand, outwardgripper, gear3, shaft3)&#45;&gt;precondition:
 hold(left_hand, outwardgripper)</title>
<path fill="none" stroke="black" d="M1106.05,-753.87C1079.47,-750.31 1052.15,-746.86 1026.35,-743.95 841.93,-723.17 794.59,-730.21 610.35,-707.95 586.81,-705.11 561.98,-701.69 537.69,-698.12"/>
<polygon fill="black" stroke="black" points="538.09,-694.64 527.69,-696.63 537.06,-701.56 538.09,-694.64"/>
</g>
<!-- selector:
 pick_up(left_hand, outwardgripper, gear3) -->
<g id="node5" class="node">
<title>selector:
 pick_up(left_hand, outwardgripper, gear3)</title>
<polygon fill="#8deeee" stroke="black" points="1239.29,-655.9 1239.29,-686.53 1057.73,-708.19 800.96,-708.19 619.4,-686.53 619.4,-655.9 800.96,-634.24 1057.73,-634.24 1239.29,-655.9"/>
<text text-anchor="middle" x="929.35" y="-676.82" font-family="Times,serif" font-size="18.00">selector:</text>
<text text-anchor="middle" x="929.35" y="-656.82" font-family="Times,serif" font-size="18.00"> pick_up(left_hand, outwardgripper, gear3)</text>
</g>
<!-- sequence:
 insert(left_hand, outwardgripper, gear3, shaft3)&#45;&gt;selector:
 pick_up(left_hand, outwardgripper, gear3) -->
<g id="edge4" class="edge">
<title>sequence:
 insert(left_hand, outwardgripper, gear3, shaft3)&#45;&gt;selector:
 pick_up(left_hand, outwardgripper, gear3)</title>
<path fill="none" stroke="black" d="M1189.63,-753.79C1149.64,-741.26 1099.13,-725.43 1053.28,-711.06"/>
<polygon fill="black" stroke="black" points="1054.16,-707.67 1043.57,-708.02 1052.06,-714.35 1054.16,-707.67"/>
</g>
<!-- selector:
 insert(left_hand, defaultgripper, gear3, shaft3) -->
<g id="node11" class="node">
<title>selector:
 insert(left_hand, defaultgripper, gear3, shaft3)</title>
<polygon fill="#8deeee" stroke="black" points="1939.02,-655.9 1939.02,-686.53 1739.46,-708.19 1457.23,-708.19 1257.67,-686.53 1257.67,-655.9 1457.23,-634.24 1739.46,-634.24 1939.02,-655.9"/>
<text text-anchor="middle" x="1598.35" y="-676.82" font-family="Times,serif" font-size="18.00">selector:</text>
<text text-anchor="middle" x="1598.35" y="-656.82" font-family="Times,serif" font-size="18.00"> insert(left_hand, defaultgripper, gear3, shaft3)</text>
</g>
<!-- sequence:
 insert(left_hand, outwardgripper, gear3, shaft3)&#45;&gt;selector:
 insert(left_hand, defaultgripper, gear3, shaft3) -->
<g id="edge10" class="edge">
<title>sequence:
 insert(left_hand, outwardgripper, gear3, shaft3)&#45;&gt;selector:
 insert(left_hand, defaultgripper, gear3, shaft3)</title>
<path fill="none" stroke="black" d="M1337.28,-753.79C1377.39,-741.26 1428.05,-725.43 1474.04,-711.06"/>
<polygon fill="black" stroke="black" points="1475.28,-714.34 1483.78,-708.02 1473.19,-707.66 1475.28,-714.34"/>
</g>
<!-- action:
 insert(left_hand, outwardgripper, gear3, shaft3) -->
<g id="node27" class="node">
<title>action:
 insert(left_hand, outwardgripper, gear3, shaft3)</title>
<ellipse fill="lightgreen" stroke="black" cx="2279.35" cy="-671.22" rx="322.38" ry="33.88"/>
<text text-anchor="middle" x="2279.35" y="-676.82" font-family="Times,serif" font-size="18.00">action:</text>
<text text-anchor="middle" x="2279.35" y="-656.82" font-family="Times,serif" font-size="18.00"> insert(left_hand, outwardgripper, gear3, shaft3)</text>
</g>
<!-- sequence:
 insert(left_hand, outwardgripper, gear3, shaft3)&#45;&gt;action:
 insert(left_hand, outwardgripper, gear3, shaft3) -->
<g id="edge26" class="edge">
<title>sequence:
 insert(left_hand, outwardgripper, gear3, shaft3)&#45;&gt;action:
 insert(left_hand, outwardgripper, gear3, shaft3)</title>
<path fill="none" stroke="black" d="M1491.72,-754.33C1624.93,-741.06 1796.18,-723.83 1948.35,-707.95 1981.18,-704.53 2015.83,-700.85 2049.87,-697.21"/>
<polygon fill="black" stroke="black" points="2050.36,-700.68 2059.93,-696.13 2049.61,-693.72 2050.36,-700.68"/>
</g>
<!-- target:
 hold(outwardgripper, gear3) -->
<g id="node6" class="node">
<title>target:
 hold(outwardgripper, gear3)</title>
<ellipse fill="#ffec8b" stroke="black" cx="512.35" cy="-564.54" rx="196.65" ry="33.88"/>
<text text-anchor="middle" x="512.35" y="-570.14" font-family="Times,serif" font-size="18.00">target:</text>
<text text-anchor="middle" x="512.35" y="-550.14" font-family="Times,serif" font-size="18.00"> hold(outwardgripper, gear3)</text>
</g>
<!-- selector:
 pick_up(left_hand, outwardgripper, gear3)&#45;&gt;target:
 hold(outwardgripper, gear3) -->
<g id="edge5" class="edge">
<title>selector:
 pick_up(left_hand, outwardgripper, gear3)&#45;&gt;target:
 hold(outwardgripper, gear3)</title>
<path fill="none" stroke="black" d="M790.78,-635.43C739.01,-622.44 680.73,-607.81 630.93,-595.31"/>
<polygon fill="black" stroke="black" points="631.63,-591.87 621.08,-592.83 629.93,-598.66 631.63,-591.87"/>
</g>
<!-- sequence:
 pick_up(left_hand, outwardgripper, gear3) -->
<g id="node7" class="node">
<title>sequence:
 pick_up(left_hand, outwardgripper, gear3)</title>
<polygon fill="#ff7f24" stroke="black" points="1131.85,-588.54 726.85,-588.54 726.85,-540.54 1131.85,-540.54 1131.85,-588.54"/>
<text text-anchor="middle" x="929.35" y="-570.14" font-family="Times,serif" font-size="18.00">sequence:</text>
<text text-anchor="middle" x="929.35" y="-550.14" font-family="Times,serif" font-size="18.00"> pick_up(left_hand, outwardgripper, gear3)</text>
</g>
<!-- selector:
 pick_up(left_hand, outwardgripper, gear3)&#45;&gt;sequence:
 pick_up(left_hand, outwardgripper, gear3) -->
<g id="edge6" class="edge">
<title>selector:
 pick_up(left_hand, outwardgripper, gear3)&#45;&gt;sequence:
 pick_up(left_hand, outwardgripper, gear3)</title>
<path fill="none" stroke="black" d="M929.35,-634.19C929.35,-622.81 929.35,-610.28 929.35,-599.08"/>
<polygon fill="black" stroke="black" points="932.85,-598.82 929.35,-588.82 925.85,-598.82 932.85,-598.82"/>
</g>
<!-- &quot;precondition:\n hold(left_hand, outwardgripper)&quot;* -->
<g id="node8" class="node">
<title>&quot;precondition:\n hold(left_hand, outwardgripper)&quot;*</title>
<ellipse fill="#ffec8b" stroke="black" cx="233.35" cy="-457.86" rx="233.19" ry="33.88"/>
<text text-anchor="middle" x="233.35" y="-463.46" font-family="Times,serif" font-size="18.00">&quot;precondition:</text>
<text text-anchor="middle" x="233.35" y="-443.46" font-family="Times,serif" font-size="18.00"> hold(left_hand, outwardgripper)&quot;*</text>
</g>
<!-- sequence:
 pick_up(left_hand, outwardgripper, gear3)&#45;&gt;&quot;precondition:\n hold(left_hand, outwardgripper)&quot;* -->
<g id="edge7" class="edge">
<title>sequence:
 pick_up(left_hand, outwardgripper, gear3)&#45;&gt;&quot;precondition:\n hold(left_hand, outwardgripper)&quot;*</title>
<path fill="none" stroke="black" d="M782.94,-540.53C761.29,-537.17 739.24,-533.77 718.35,-530.6 702.48,-528.19 536.91,-503.71 403.57,-484"/>
<polygon fill="black" stroke="black" points="404.03,-480.53 393.62,-482.54 403,-487.46 404.03,-480.53"/>
</g>
<!-- precondition:
 is_empty(outwardgripper) -->
<g id="node9" class="node">
<title>precondition:
 is_empty(outwardgripper)</title>
<ellipse fill="#ffec8b" stroke="black" cx="667.35" cy="-457.86" rx="183.28" ry="33.88"/>
<text text-anchor="middle" x="667.35" y="-463.46" font-family="Times,serif" font-size="18.00">precondition:</text>
<text text-anchor="middle" x="667.35" y="-443.46" font-family="Times,serif" font-size="18.00"> is_empty(outwardgripper)</text>
</g>
<!-- sequence:
 pick_up(left_hand, outwardgripper, gear3)&#45;&gt;precondition:
 is_empty(outwardgripper) -->
<g id="edge8" class="edge">
<title>sequence:
 pick_up(left_hand, outwardgripper, gear3)&#45;&gt;precondition:
 is_empty(outwardgripper)</title>
<path fill="none" stroke="black" d="M871.52,-540.44C836.52,-526.45 791.24,-508.36 752.22,-492.77"/>
<polygon fill="black" stroke="black" points="753.03,-489.33 742.45,-488.87 750.44,-495.83 753.03,-489.33"/>
</g>
<!-- action:
 pick_up(left_hand, outwardgripper, gear3) -->
<g id="node10" class="node">
<title>action:
 pick_up(left_hand, outwardgripper, gear3)</title>
<ellipse fill="lightgreen" stroke="black" cx="1155.35" cy="-457.86" rx="286.26" ry="33.88"/>
<text text-anchor="middle" x="1155.35" y="-463.46" font-family="Times,serif" font-size="18.00">action:</text>
<text text-anchor="middle" x="1155.35" y="-443.46" font-family="Times,serif" font-size="18.00"> pick_up(left_hand, outwardgripper, gear3)</text>
</g>
<!-- sequence:
 pick_up(left_hand, outwardgripper, gear3)&#45;&gt;action:
 pick_up(left_hand, outwardgripper, gear3) -->
<g id="edge9" class="edge">
<title>sequence:
 pick_up(left_hand, outwardgripper, gear3)&#45;&gt;action:
 pick_up(left_hand, outwardgripper, gear3)</title>
<path fill="none" stroke="black" d="M979.22,-540.44C1007.85,-527.18 1044.44,-510.23 1076.85,-495.22"/>
<polygon fill="black" stroke="black" points="1078.71,-498.21 1086.31,-490.83 1075.77,-491.86 1078.71,-498.21"/>
</g>
<!-- &quot;target:\n is_inserted_to(gear3, shaft3)&quot;* -->
<g id="node12" class="node">
<title>&quot;target:\n is_inserted_to(gear3, shaft3)&quot;*</title>
<ellipse fill="#ffec8b" stroke="black" cx="1598.35" cy="-564.54" rx="211.35" ry="33.88"/>
<text text-anchor="middle" x="1598.35" y="-570.14" font-family="Times,serif" font-size="18.00">&quot;target:</text>
<text text-anchor="middle" x="1598.35" y="-550.14" font-family="Times,serif" font-size="18.00"> is_inserted_to(gear3, shaft3)&quot;*</text>
</g>
<!-- selector:
 insert(left_hand, defaultgripper, gear3, shaft3)&#45;&gt;&quot;target:\n is_inserted_to(gear3, shaft3)&quot;* -->
<g id="edge11" class="edge">
<title>selector:
 insert(left_hand, defaultgripper, gear3, shaft3)&#45;&gt;&quot;target:\n is_inserted_to(gear3, shaft3)&quot;*</title>
<path fill="none" stroke="black" d="M1598.35,-634.19C1598.35,-626.04 1598.35,-617.29 1598.35,-608.87"/>
<polygon fill="black" stroke="black" points="1601.85,-608.81 1598.35,-598.81 1594.85,-608.81 1601.85,-608.81"/>
</g>
<!-- sequence:
 insert(left_hand, defaultgripper, gear3, shaft3) -->
<g id="node13" class="node">
<title>sequence:
 insert(left_hand, defaultgripper, gear3, shaft3)</title>
<polygon fill="#ff7f24" stroke="black" points="2307.85,-588.54 1862.85,-588.54 1862.85,-540.54 2307.85,-540.54 2307.85,-588.54"/>
<text text-anchor="middle" x="2085.35" y="-570.14" font-family="Times,serif" font-size="18.00">sequence:</text>
<text text-anchor="middle" x="2085.35" y="-550.14" font-family="Times,serif" font-size="18.00"> insert(left_hand, defaultgripper, gear3, shaft3)</text>
</g>
<!-- selector:
 insert(left_hand, defaultgripper, gear3, shaft3)&#45;&gt;sequence:
 insert(left_hand, defaultgripper, gear3, shaft3) -->
<g id="edge12" class="edge">
<title>selector:
 insert(left_hand, defaultgripper, gear3, shaft3)&#45;&gt;sequence:
 insert(left_hand, defaultgripper, gear3, shaft3)</title>
<path fill="none" stroke="black" d="M1757.13,-636.09C1825.9,-621.3 1904.96,-604.31 1968.26,-590.71"/>
<polygon fill="black" stroke="black" points="1969.24,-594.08 1978.28,-588.55 1967.77,-587.23 1969.24,-594.08"/>
</g>
<!-- selector:
 change_tool(left_hand, outwardgripper, defaultgripper) -->
<g id="node14" class="node">
<title>selector:
 change_tool(left_hand, outwardgripper, defaultgripper)</title>
<polygon fill="#8deeee" stroke="black" points="2258.89,-442.54 2258.89,-473.18 2024.84,-494.84 1693.85,-494.84 1459.8,-473.18 1459.8,-442.54 1693.85,-420.88 2024.84,-420.88 2258.89,-442.54"/>
<text text-anchor="middle" x="1859.35" y="-463.46" font-family="Times,serif" font-size="18.00">selector:</text>
<text text-anchor="middle" x="1859.35" y="-443.46" font-family="Times,serif" font-size="18.00"> change_tool(left_hand, outwardgripper, defaultgripper)</text>
</g>
<!-- sequence:
 insert(left_hand, defaultgripper, gear3, shaft3)&#45;&gt;selector:
 change_tool(left_hand, outwardgripper, defaultgripper) -->
<g id="edge13" class="edge">
<title>sequence:
 insert(left_hand, defaultgripper, gear3, shaft3)&#45;&gt;selector:
 change_tool(left_hand, outwardgripper, defaultgripper)</title>
<path fill="none" stroke="black" d="M2035.47,-540.44C2009.2,-528.27 1976.23,-513 1945.94,-498.97"/>
<polygon fill="black" stroke="black" points="1947.18,-495.68 1936.63,-494.66 1944.24,-502.04 1947.18,-495.68"/>
</g>
<!-- precondition:
 hold(defaultgripper, gear3) -->
<g id="node25" class="node">
<title>precondition:
 hold(defaultgripper, gear3)</title>
<ellipse fill="#ffec8b" stroke="black" cx="2465.35" cy="-457.86" rx="188.6" ry="33.88"/>
<text text-anchor="middle" x="2465.35" y="-463.46" font-family="Times,serif" font-size="18.00">precondition:</text>
<text text-anchor="middle" x="2465.35" y="-443.46" font-family="Times,serif" font-size="18.00"> hold(defaultgripper, gear3)</text>
</g>
<!-- sequence:
 insert(left_hand, defaultgripper, gear3, shaft3)&#45;&gt;precondition:
 hold(defaultgripper, gear3) -->
<g id="edge24" class="edge">
<title>sequence:
 insert(left_hand, defaultgripper, gear3, shaft3)&#45;&gt;precondition:
 hold(defaultgripper, gear3)</title>
<path fill="none" stroke="black" d="M2169.21,-540.44C2223.76,-525.41 2295.51,-505.64 2354.72,-489.33"/>
<polygon fill="black" stroke="black" points="2355.77,-492.67 2364.48,-486.64 2353.91,-485.93 2355.77,-492.67"/>
</g>
<!-- action:
 insert(left_hand, defaultgripper, gear3, shaft3) -->
<g id="node26" class="node">
<title>action:
 insert(left_hand, defaultgripper, gear3, shaft3)</title>
<ellipse fill="lightgreen" stroke="black" cx="2986.35" cy="-457.86" rx="314.83" ry="33.88"/>
<text text-anchor="middle" x="2986.35" y="-463.46" font-family="Times,serif" font-size="18.00">action:</text>
<text text-anchor="middle" x="2986.35" y="-443.46" font-family="Times,serif" font-size="18.00"> insert(left_hand, defaultgripper, gear3, shaft3)</text>
</g>
<!-- sequence:
 insert(left_hand, defaultgripper, gear3, shaft3)&#45;&gt;action:
 insert(left_hand, defaultgripper, gear3, shaft3) -->
<g id="edge25" class="edge">
<title>sequence:
 insert(left_hand, defaultgripper, gear3, shaft3)&#45;&gt;action:
 insert(left_hand, defaultgripper, gear3, shaft3)</title>
<path fill="none" stroke="black" d="M2283.35,-540.53C2426.17,-523.94 2618.98,-501.54 2766.56,-484.39"/>
<polygon fill="black" stroke="black" points="2767.13,-487.85 2776.66,-483.22 2766.32,-480.9 2767.13,-487.85"/>
</g>
<!-- target:
 hold(left_hand, defaultgripper) -->
<g id="node15" class="node">
<title>target:
 hold(left_hand, defaultgripper)</title>
<ellipse fill="#ffec8b" stroke="black" cx="1612.35" cy="-351.18" rx="213.59" ry="33.88"/>
<text text-anchor="middle" x="1612.35" y="-356.78" font-family="Times,serif" font-size="18.00">target:</text>
<text text-anchor="middle" x="1612.35" y="-336.78" font-family="Times,serif" font-size="18.00"> hold(left_hand, defaultgripper)</text>
</g>
<!-- selector:
 change_tool(left_hand, outwardgripper, defaultgripper)&#45;&gt;target:
 hold(left_hand, defaultgripper) -->
<g id="edge14" class="edge">
<title>selector:
 change_tool(left_hand, outwardgripper, defaultgripper)&#45;&gt;target:
 hold(left_hand, defaultgripper)</title>
<path fill="none" stroke="black" d="M1774.69,-420.98C1748.82,-410.02 1720.41,-397.98 1694.7,-387.08"/>
<polygon fill="black" stroke="black" points="1695.93,-383.8 1685.36,-383.12 1693.2,-390.25 1695.93,-383.8"/>
</g>
<!-- sequence:
 change_tool(left_hand, outwardgripper, defaultgripper) -->
<g id="node16" class="node">
<title>sequence:
 change_tool(left_hand, outwardgripper, defaultgripper)</title>
<polygon fill="#ff7f24" stroke="black" points="2366.35,-375.18 1844.35,-375.18 1844.35,-327.18 2366.35,-327.18 2366.35,-375.18"/>
<text text-anchor="middle" x="2105.35" y="-356.78" font-family="Times,serif" font-size="18.00">sequence:</text>
<text text-anchor="middle" x="2105.35" y="-336.78" font-family="Times,serif" font-size="18.00"> change_tool(left_hand, outwardgripper, defaultgripper)</text>
</g>
<!-- selector:
 change_tool(left_hand, outwardgripper, defaultgripper)&#45;&gt;sequence:
 change_tool(left_hand, outwardgripper, defaultgripper) -->
<g id="edge15" class="edge">
<title>selector:
 change_tool(left_hand, outwardgripper, defaultgripper)&#45;&gt;sequence:
 change_tool(left_hand, outwardgripper, defaultgripper)</title>
<path fill="none" stroke="black" d="M1943.66,-420.98C1975.79,-407.31 2011.84,-391.97 2041.73,-379.25"/>
<polygon fill="black" stroke="black" points="2043.38,-382.35 2051.21,-375.22 2040.64,-375.91 2043.38,-382.35"/>
</g>
<!-- &quot;precondition:\n hold(left_hand, outwardgripper)&quot;** -->
<g id="node17" class="node">
<title>&quot;precondition:\n hold(left_hand, outwardgripper)&quot;**</title>
<ellipse fill="#ffec8b" stroke="black" cx="1524.35" cy="-244.5" rx="239.92" ry="33.88"/>
<text text-anchor="middle" x="1524.35" y="-250.1" font-family="Times,serif" font-size="18.00">&quot;precondition:</text>
<text text-anchor="middle" x="1524.35" y="-230.1" font-family="Times,serif" font-size="18.00"> hold(left_hand, outwardgripper)&quot;**</text>
</g>
<!-- sequence:
 change_tool(left_hand, outwardgripper, defaultgripper)&#45;&gt;&quot;precondition:\n hold(left_hand, outwardgripper)&quot;** -->
<g id="edge16" class="edge">
<title>sequence:
 change_tool(left_hand, outwardgripper, defaultgripper)&#45;&gt;&quot;precondition:\n hold(left_hand, outwardgripper)&quot;**</title>
<path fill="none" stroke="black" d="M1977.48,-327.14C1889.56,-311.3 1772.31,-290.18 1679.1,-273.39"/>
<polygon fill="black" stroke="black" points="1679.48,-269.9 1669.01,-271.57 1678.24,-276.78 1679.48,-269.9"/>
</g>
<!-- selector:
 put_down(left_hand, outwardgripper, gear3) -->
<g id="node18" class="node">
<title>selector:
 put_down(left_hand, outwardgripper, gear3)</title>
<polygon fill="#8deeee" stroke="black" points="2428.85,-229.19 2428.85,-259.82 2239.34,-281.48 1971.35,-281.48 1781.84,-259.82 1781.84,-229.19 1971.35,-207.53 2239.34,-207.53 2428.85,-229.19"/>
<text text-anchor="middle" x="2105.35" y="-250.1" font-family="Times,serif" font-size="18.00">selector:</text>
<text text-anchor="middle" x="2105.35" y="-230.1" font-family="Times,serif" font-size="18.00"> put_down(left_hand, outwardgripper, gear3)</text>
</g>
<!-- sequence:
 change_tool(left_hand, outwardgripper, defaultgripper)&#45;&gt;selector:
 put_down(left_hand, outwardgripper, gear3) -->
<g id="edge17" class="edge">
<title>sequence:
 change_tool(left_hand, outwardgripper, defaultgripper)&#45;&gt;selector:
 put_down(left_hand, outwardgripper, gear3)</title>
<path fill="none" stroke="black" d="M2105.35,-326.95C2105.35,-316.5 2105.35,-303.79 2105.35,-291.54"/>
<polygon fill="black" stroke="black" points="2108.85,-291.42 2105.35,-281.42 2101.85,-291.42 2108.85,-291.42"/>
</g>
<!-- action:
 change_tool(left_hand, outwardgripper, defaultgripper) -->
<g id="node24" class="node">
<title>action:
 change_tool(left_hand, outwardgripper, defaultgripper)</title>
<ellipse fill="lightgreen" stroke="black" cx="2816.35" cy="-244.5" rx="369.22" ry="33.88"/>
<text text-anchor="middle" x="2816.35" y="-250.1" font-family="Times,serif" font-size="18.00">action:</text>
<text text-anchor="middle" x="2816.35" y="-230.1" font-family="Times,serif" font-size="18.00"> change_tool(left_hand, outwardgripper, defaultgripper)</text>
</g>
<!-- sequence:
 change_tool(left_hand, outwardgripper, defaultgripper)&#45;&gt;action:
 change_tool(left_hand, outwardgripper, defaultgripper) -->
<g id="edge23" class="edge">
<title>sequence:
 change_tool(left_hand, outwardgripper, defaultgripper)&#45;&gt;action:
 change_tool(left_hand, outwardgripper, defaultgripper)</title>
<path fill="none" stroke="black" d="M2261.82,-327.14C2365.8,-311.83 2503.3,-291.59 2615.37,-275.09"/>
<polygon fill="black" stroke="black" points="2616.06,-278.53 2625.45,-273.61 2615.04,-271.6 2616.06,-278.53"/>
</g>
<!-- target:
 not hold(outwardgripper, gear3) -->
<g id="node19" class="node">
<title>target:
 not hold(outwardgripper, gear3)</title>
<ellipse fill="#ffec8b" stroke="black" cx="1879.35" cy="-137.82" rx="222.06" ry="33.88"/>
<text text-anchor="middle" x="1879.35" y="-143.42" font-family="Times,serif" font-size="18.00">target:</text>
<text text-anchor="middle" x="1879.35" y="-123.42" font-family="Times,serif" font-size="18.00"> not hold(outwardgripper, gear3)</text>
</g>
<!-- selector:
 put_down(left_hand, outwardgripper, gear3)&#45;&gt;target:
 not hold(outwardgripper, gear3) -->
<g id="edge18" class="edge">
<title>selector:
 put_down(left_hand, outwardgripper, gear3)&#45;&gt;target:
 not hold(outwardgripper, gear3)</title>
<path fill="none" stroke="black" d="M2027.89,-207.62C2004.86,-196.96 1979.65,-185.28 1956.64,-174.62"/>
<polygon fill="black" stroke="black" points="1957.81,-171.31 1947.26,-170.28 1954.87,-177.66 1957.81,-171.31"/>
</g>
<!-- sequence:
 put_down(left_hand, outwardgripper, gear3) -->
<g id="node20" class="node">
<title>sequence:
 put_down(left_hand, outwardgripper, gear3)</title>
<polygon fill="#ff7f24" stroke="black" points="2542.85,-161.82 2119.85,-161.82 2119.85,-113.82 2542.85,-113.82 2542.85,-161.82"/>
<text text-anchor="middle" x="2331.35" y="-143.42" font-family="Times,serif" font-size="18.00">sequence:</text>
<text text-anchor="middle" x="2331.35" y="-123.42" font-family="Times,serif" font-size="18.00"> put_down(left_hand, outwardgripper, gear3)</text>
</g>
<!-- selector:
 put_down(left_hand, outwardgripper, gear3)&#45;&gt;sequence:
 put_down(left_hand, outwardgripper, gear3) -->
<g id="edge19" class="edge">
<title>selector:
 put_down(left_hand, outwardgripper, gear3)&#45;&gt;sequence:
 put_down(left_hand, outwardgripper, gear3)</title>
<path fill="none" stroke="black" d="M2182.81,-207.62C2212.07,-194.07 2244.87,-178.88 2272.19,-166.22"/>
<polygon fill="black" stroke="black" points="2274.01,-169.24 2281.61,-161.86 2271.06,-162.89 2274.01,-169.24"/>
</g>
<!-- &quot;precondition:\n hold(left_hand, outwardgripper)&quot;*** -->
<g id="node21" class="node">
<title>&quot;precondition:\n hold(left_hand, outwardgripper)&quot;***</title>
<ellipse fill="#ffec8b" stroke="black" cx="1870.35" cy="-33.94" rx="246.15" ry="33.88"/>
<text text-anchor="middle" x="1870.35" y="-39.54" font-family="Times,serif" font-size="18.00">&quot;precondition:</text>
<text text-anchor="middle" x="1870.35" y="-19.54" font-family="Times,serif" font-size="18.00"> hold(left_hand, outwardgripper)&quot;***</text>
</g>
<!-- sequence:
 put_down(left_hand, outwardgripper, gear3)&#45;&gt;&quot;precondition:\n hold(left_hand, outwardgripper)&quot;*** -->
<g id="edge20" class="edge">
<title>sequence:
 put_down(left_hand, outwardgripper, gear3)&#45;&gt;&quot;precondition:\n hold(left_hand, outwardgripper)&quot;***</title>
<path fill="none" stroke="black" d="M2227.03,-113.77C2162.08,-99.42 2077.83,-80.8 2007.51,-65.26"/>
<polygon fill="black" stroke="black" points="2008.21,-61.82 1997.69,-63.08 2006.7,-68.66 2008.21,-61.82"/>
</g>
<!-- precondition:
 hold(outwardgripper, gear3) -->
<g id="node22" class="node">
<title>precondition:
 hold(outwardgripper, gear3)</title>
<ellipse fill="#ffec8b" stroke="black" cx="2331.35" cy="-33.94" rx="196.65" ry="33.88"/>
<text text-anchor="middle" x="2331.35" y="-39.54" font-family="Times,serif" font-size="18.00">precondition:</text>
<text text-anchor="middle" x="2331.35" y="-19.54" font-family="Times,serif" font-size="18.00"> hold(outwardgripper, gear3)</text>
</g>
<!-- sequence:
 put_down(left_hand, outwardgripper, gear3)&#45;&gt;precondition:
 hold(outwardgripper, gear3) -->
<g id="edge21" class="edge">
<title>sequence:
 put_down(left_hand, outwardgripper, gear3)&#45;&gt;precondition:
 hold(outwardgripper, gear3)</title>
<path fill="none" stroke="black" d="M2331.35,-113.7C2331.35,-103.16 2331.35,-90.31 2331.35,-78.08"/>
<polygon fill="black" stroke="black" points="2334.85,-78.01 2331.35,-68.01 2327.85,-78.01 2334.85,-78.01"/>
</g>
<!-- action:
 put_down(left_hand, outwardgripper, gear3) -->
<g id="node23" class="node">
<title>action:
 put_down(left_hand, outwardgripper, gear3)</title>
<ellipse fill="lightgreen" stroke="black" cx="2845.35" cy="-33.94" rx="299.21" ry="33.88"/>
<text text-anchor="middle" x="2845.35" y="-39.54" font-family="Times,serif" font-size="18.00">action:</text>
<text text-anchor="middle" x="2845.35" y="-19.54" font-family="Times,serif" font-size="18.00"> put_down(left_hand, outwardgripper, gear3)</text>
</g>
<!-- sequence:
 put_down(left_hand, outwardgripper, gear3)&#45;&gt;action:
 put_down(left_hand, outwardgripper, gear3) -->
<g id="edge22" class="edge">
<title>sequence:
 put_down(left_hand, outwardgripper, gear3)&#45;&gt;action:
 put_down(left_hand, outwardgripper, gear3)</title>
<path fill="none" stroke="black" d="M2447.66,-113.77C2519.51,-99.53 2612.57,-81.08 2690.6,-65.61"/>
<polygon fill="black" stroke="black" points="2691.4,-69.02 2700.52,-63.65 2690.04,-62.16 2691.4,-69.02"/>
</g>
</g>
</svg>
