<?xml version="1.0" encoding="UTF-8" standalone="no"?>
<!DOCTYPE svg PUBLIC "-//W3C//DTD SVG 1.1//EN"
 "http://www.w3.org/Graphics/SVG/1.1/DTD/svg11.dtd">
<!-- Generated by graphviz version 2.43.0 (0)
 -->
<!-- Title: pastafarianism Pages: 1 -->
<svg width="2160pt" height="503pt"
 viewBox="0.00 0.00 2159.77 502.60" xmlns="http://www.w3.org/2000/svg" xmlns:xlink="http://www.w3.org/1999/xlink">
<g id="graph0" class="graph" transform="scale(1 1) rotate(0) translate(4 498.6)">
<title>pastafarianism</title>
<polygon fill="white" stroke="transparent" points="-4,4 -4,-498.6 2155.77,-498.6 2155.77,4 -4,4"/>
<!-- selector:
 insert(left_hand, outwardgripper, gear3, shaft3) -->
<g id="node1" class="node">
<title>selector:
 insert(left_hand, outwardgripper, gear3, shaft3)</title>
<polygon fill="#8deeee" stroke="black" points="1157.34,-442.54 1157.34,-473.18 952.89,-494.84 663.76,-494.84 459.31,-473.18 459.31,-442.54 663.76,-420.88 952.89,-420.88 1157.34,-442.54"/>
<text text-anchor="middle" x="808.32" y="-463.46" font-family="Times,serif" font-size="18.00">selector:</text>
<text text-anchor="middle" x="808.32" y="-443.46" font-family="Times,serif" font-size="18.00"> insert(left_hand, outwardgripper, gear3, shaft3)</text>
</g>
<!-- target:
 is_inserted_to(gear3, shaft3) -->
<g id="node2" class="node">
<title>target:
 is_inserted_to(gear3, shaft3)</title>
<ellipse fill="#ffec8b" stroke="black" cx="586.32" cy="-351.18" rx="198.89" ry="33.88"/>
<text text-anchor="middle" x="586.32" y="-356.78" font-family="Times,serif" font-size="18.00">target:</text>
<text text-anchor="middle" x="586.32" y="-336.78" font-family="Times,serif" font-size="18.00"> is_inserted_to(gear3, shaft3)</text>
</g>
<!-- selector:
 insert(left_hand, outwardgripper, gear3, shaft3)&#45;&gt;target:
 is_inserted_to(gear3, shaft3) -->
<g id="edge1" class="edge">
<title>selector:
 insert(left_hand, outwardgripper, gear3, shaft3)&#45;&gt;target:
 is_inserted_to(gear3, shaft3)</title>
<path fill="none" stroke="black" d="M732.24,-420.98C709.4,-410.21 684.37,-398.41 661.59,-387.67"/>
<polygon fill="black" stroke="black" points="662.85,-384.39 652.31,-383.29 659.86,-390.73 662.85,-384.39"/>
</g>
<!-- sequence:
 insert(left_hand, outwardgripper, gear3, shaft3) -->
<g id="node3" class="node">
<title>sequence:
 insert(left_hand, outwardgripper, gear3, shaft3)</title>
<polygon fill="#ff7f24" stroke="black" points="1259.32,-375.18 803.32,-375.18 803.32,-327.18 1259.32,-327.18 1259.32,-375.18"/>
<text text-anchor="middle" x="1031.32" y="-356.78" font-family="Times,serif" font-size="18.00">sequence:</text>
<text text-anchor="middle" x="1031.32" y="-336.78" font-family="Times,serif" font-size="18.00"> insert(left_hand, outwardgripper, gear3, shaft3)</text>
</g>
<!-- selector:
 insert(left_hand, outwardgripper, gear3, shaft3)&#45;&gt;sequence:
 insert(left_hand, outwardgripper, gear3, shaft3) -->
<g id="edge2" class="edge">
<title>selector:
 insert(left_hand, outwardgripper, gear3, shaft3)&#45;&gt;sequence:
 insert(left_hand, outwardgripper, gear3, shaft3)</title>
<path fill="none" stroke="black" d="M884.76,-420.98C913.63,-407.43 945.99,-392.24 972.95,-379.58"/>
<polygon fill="black" stroke="black" points="974.68,-382.64 982.25,-375.22 971.71,-376.3 974.68,-382.64"/>
</g>
<!-- precondition:
 hold(left_hand, outwardgripper) -->
<g id="node4" class="node">
<title>precondition:
 hold(left_hand, outwardgripper)</title>
<ellipse fill="#ffec8b" stroke="black" cx="221.32" cy="-244.5" rx="221.15" ry="33.88"/>
<text text-anchor="middle" x="221.32" y="-250.1" font-family="Times,serif" font-size="18.00">precondition:</text>
<text text-anchor="middle" x="221.32" y="-230.1" font-family="Times,serif" font-size="18.00"> hold(left_hand, outwardgripper)</text>
</g>
<!-- sequence:
 insert(left_hand, outwardgripper, gear3, shaft3)&#45;&gt;precondition:
 hold(left_hand, outwardgripper) -->
<g id="edge3" class="edge">
<title>sequence:
 insert(left_hand, outwardgripper, gear3, shaft3)&#45;&gt;precondition:
 hold(left_hand, outwardgripper)</title>
<path fill="none" stroke="black" d="M871.11,-327.17C845.45,-323.7 819.17,-320.27 794.32,-317.24 642.17,-298.69 603.33,-301.01 451.32,-281.24 428.27,-278.24 403.96,-274.78 380.13,-271.23"/>
<polygon fill="black" stroke="black" points="380.36,-267.72 369.95,-269.7 379.32,-274.65 380.36,-267.72"/>
</g>
<!-- selector:
 pick_up(left_hand, outwardgripper, gear3) -->
<g id="node5" class="node">
<title>selector:
 pick_up(left_hand, outwardgripper, gear3)</title>
<polygon fill="#8deeee" stroke="black" points="1080.27,-229.19 1080.27,-259.82 898.71,-281.48 641.94,-281.48 460.38,-259.82 460.38,-229.19 641.94,-207.53 898.71,-207.53 1080.27,-229.19"/>
<text text-anchor="middle" x="770.32" y="-250.1" font-family="Times,serif" font-size="18.00">selector:</text>
<text text-anchor="middle" x="770.32" y="-230.1" font-family="Times,serif" font-size="18.00"> pick_up(left_hand, outwardgripper, gear3)</text>
</g>
<!-- sequence:
 insert(left_hand, outwardgripper, gear3, shaft3)&#45;&gt;selector:
 pick_up(left_hand, outwardgripper, gear3) -->
<g id="edge4" class="edge">
<title>sequence:
 insert(left_hand, outwardgripper, gear3, shaft3)&#45;&gt;selector:
 pick_up(left_hand, outwardgripper, gear3)</title>
<path fill="none" stroke="black" d="M973.72,-327.08C942.99,-314.75 904.32,-299.24 868.97,-285.07"/>
<polygon fill="black" stroke="black" points="870.17,-281.77 859.58,-281.3 867.56,-288.27 870.17,-281.77"/>
</g>
<!-- precondition:
 can_insert_to(gear3, shaft3) -->
<g id="node11" class="node">
<title>precondition:
 can_insert_to(gear3, shaft3)</title>
<ellipse fill="#ffec8b" stroke="black" cx="1293.32" cy="-244.5" rx="195.32" ry="33.88"/>
<text text-anchor="middle" x="1293.32" y="-250.1" font-family="Times,serif" font-size="18.00">precondition:</text>
<text text-anchor="middle" x="1293.32" y="-230.1" font-family="Times,serif" font-size="18.00"> can_insert_to(gear3, shaft3)</text>
</g>
<!-- sequence:
 insert(left_hand, outwardgripper, gear3, shaft3)&#45;&gt;precondition:
 can_insert_to(gear3, shaft3) -->
<g id="edge10" class="edge">
<title>sequence:
 insert(left_hand, outwardgripper, gear3, shaft3)&#45;&gt;precondition:
 can_insert_to(gear3, shaft3)</title>
<path fill="none" stroke="black" d="M1089.15,-327.08C1123.88,-313.2 1168.71,-295.29 1207.52,-279.79"/>
<polygon fill="black" stroke="black" points="1209.25,-282.86 1217.24,-275.9 1206.66,-276.36 1209.25,-282.86"/>
</g>
<!-- action:
 insert(left_hand, outwardgripper, gear3, shaft3) -->
<g id="node12" class="node">
<title>action:
 insert(left_hand, outwardgripper, gear3, shaft3)</title>
<ellipse fill="lightgreen" stroke="black" cx="1829.32" cy="-244.5" rx="322.38" ry="33.88"/>
<text text-anchor="middle" x="1829.32" y="-250.1" font-family="Times,serif" font-size="18.00">action:</text>
<text text-anchor="middle" x="1829.32" y="-230.1" font-family="Times,serif" font-size="18.00"> insert(left_hand, outwardgripper, gear3, shaft3)</text>
</g>
<!-- sequence:
 insert(left_hand, outwardgripper, gear3, shaft3)&#45;&gt;action:
 insert(left_hand, outwardgripper, gear3, shaft3) -->
<g id="edge11" class="edge">
<title>sequence:
 insert(left_hand, outwardgripper, gear3, shaft3)&#45;&gt;action:
 insert(left_hand, outwardgripper, gear3, shaft3)</title>
<path fill="none" stroke="black" d="M1206.94,-327.14C1329.38,-311.08 1493.21,-289.59 1622.05,-272.69"/>
<polygon fill="black" stroke="black" points="1622.59,-276.15 1632.05,-271.38 1621.68,-269.21 1622.59,-276.15"/>
</g>
<!-- target:
 hold(outwardgripper, gear3) -->
<g id="node6" class="node">
<title>target:
 hold(outwardgripper, gear3)</title>
<ellipse fill="#ffec8b" stroke="black" cx="562.32" cy="-137.82" rx="196.65" ry="33.88"/>
<text text-anchor="middle" x="562.32" y="-143.42" font-family="Times,serif" font-size="18.00">target:</text>
<text text-anchor="middle" x="562.32" y="-123.42" font-family="Times,serif" font-size="18.00"> hold(outwardgripper, gear3)</text>
</g>
<!-- selector:
 pick_up(left_hand, outwardgripper, gear3)&#45;&gt;target:
 hold(outwardgripper, gear3) -->
<g id="edge5" class="edge">
<title>selector:
 pick_up(left_hand, outwardgripper, gear3)&#45;&gt;target:
 hold(outwardgripper, gear3)</title>
<path fill="none" stroke="black" d="M699.03,-207.62C677.84,-196.96 654.62,-185.27 633.43,-174.61"/>
<polygon fill="black" stroke="black" points="635,-171.48 624.49,-170.11 631.85,-177.73 635,-171.48"/>
</g>
<!-- sequence:
 pick_up(left_hand, outwardgripper, gear3) -->
<g id="node7" class="node">
<title>sequence:
 pick_up(left_hand, outwardgripper, gear3)</title>
<polygon fill="#ff7f24" stroke="black" points="1181.82,-161.82 776.82,-161.82 776.82,-113.82 1181.82,-113.82 1181.82,-161.82"/>
<text text-anchor="middle" x="979.32" y="-143.42" font-family="Times,serif" font-size="18.00">sequence:</text>
<text text-anchor="middle" x="979.32" y="-123.42" font-family="Times,serif" font-size="18.00"> pick_up(left_hand, outwardgripper, gear3)</text>
</g>
<!-- selector:
 pick_up(left_hand, outwardgripper, gear3)&#45;&gt;sequence:
 pick_up(left_hand, outwardgripper, gear3) -->
<g id="edge6" class="edge">
<title>selector:
 pick_up(left_hand, outwardgripper, gear3)&#45;&gt;sequence:
 pick_up(left_hand, outwardgripper, gear3)</title>
<path fill="none" stroke="black" d="M841.96,-207.62C868.9,-194.13 899.09,-179.01 924.29,-166.39"/>
<polygon fill="black" stroke="black" points="925.96,-169.47 933.33,-161.86 922.82,-163.21 925.96,-169.47"/>
</g>
<!-- &quot;precondition:\n hold(left_hand, outwardgripper)&quot;* -->
<g id="node8" class="node">
<title>&quot;precondition:\n hold(left_hand, outwardgripper)&quot;*</title>
<ellipse fill="#ffec8b" stroke="black" cx="545.32" cy="-33.94" rx="233.19" ry="33.88"/>
<text text-anchor="middle" x="545.32" y="-39.54" font-family="Times,serif" font-size="18.00">&quot;precondition:</text>
<text text-anchor="middle" x="545.32" y="-19.54" font-family="Times,serif" font-size="18.00"> hold(left_hand, outwardgripper)&quot;*</text>
</g>
<!-- sequence:
 pick_up(left_hand, outwardgripper, gear3)&#45;&gt;&quot;precondition:\n hold(left_hand, outwardgripper)&quot;* -->
<g id="edge7" class="edge">
<title>sequence:
 pick_up(left_hand, outwardgripper, gear3)&#45;&gt;&quot;precondition:\n hold(left_hand, outwardgripper)&quot;*</title>
<path fill="none" stroke="black" d="M881.11,-113.77C820.23,-99.47 741.3,-80.95 675.27,-65.45"/>
<polygon fill="black" stroke="black" points="675.74,-61.96 665.21,-63.08 674.14,-68.78 675.74,-61.96"/>
</g>
<!-- precondition:
 is_empty(outwardgripper) -->
<g id="node9" class="node">
<title>precondition:
 is_empty(outwardgripper)</title>
<ellipse fill="#ffec8b" stroke="black" cx="979.32" cy="-33.94" rx="183.28" ry="33.88"/>
<text text-anchor="middle" x="979.32" y="-39.54" font-family="Times,serif" font-size="18.00">precondition:</text>
<text text-anchor="middle" x="979.32" y="-19.54" font-family="Times,serif" font-size="18.00"> is_empty(outwardgripper)</text>
</g>
<!-- sequence:
 pick_up(left_hand, outwardgripper, gear3)&#45;&gt;precondition:
 is_empty(outwardgripper) -->
<g id="edge8" class="edge">
<title>sequence:
 pick_up(left_hand, outwardgripper, gear3)&#45;&gt;precondition:
 is_empty(outwardgripper)</title>
<path fill="none" stroke="black" d="M979.32,-113.7C979.32,-103.16 979.32,-90.31 979.32,-78.08"/>
<polygon fill="black" stroke="black" points="982.82,-78.01 979.32,-68.01 975.82,-78.01 982.82,-78.01"/>
</g>
<!-- action:
 pick_up(left_hand, outwardgripper, gear3) -->
<g id="node10" class="node">
<title>action:
 pick_up(left_hand, outwardgripper, gear3)</title>
<ellipse fill="lightgreen" stroke="black" cx="1467.32" cy="-33.94" rx="286.26" ry="33.88"/>
<text text-anchor="middle" x="1467.32" y="-39.54" font-family="Times,serif" font-size="18.00">action:</text>
<text text-anchor="middle" x="1467.32" y="-19.54" font-family="Times,serif" font-size="18.00"> pick_up(left_hand, outwardgripper, gear3)</text>
</g>
<!-- sequence:
 pick_up(left_hand, outwardgripper, gear3)&#45;&gt;action:
 pick_up(left_hand, outwardgripper, gear3) -->
<g id="edge9" class="edge">
<title>sequence:
 pick_up(left_hand, outwardgripper, gear3)&#45;&gt;action:
 pick_up(left_hand, outwardgripper, gear3)</title>
<path fill="none" stroke="black" d="M1089.75,-113.77C1157.7,-99.58 1245.61,-81.23 1319.51,-65.8"/>
<polygon fill="black" stroke="black" points="1320.31,-69.21 1329.38,-63.74 1318.87,-62.36 1320.31,-69.21"/>
</g>
</g>
</svg>
