<?xml version="1.0" encoding="UTF-8" standalone="no"?>
<!DOCTYPE svg PUBLIC "-//W3C//DTD SVG 1.1//EN"
 "http://www.w3.org/Graphics/SVG/1.1/DTD/svg11.dtd">
<!-- Generated by graphviz version 2.43.0 (0)
 -->
<!-- Title: pastafarianism Pages: 1 -->
<svg width="2964pt" height="503pt"
 viewBox="0.00 0.00 2963.99 502.60" xmlns="http://www.w3.org/2000/svg" xmlns:xlink="http://www.w3.org/1999/xlink">
<g id="graph0" class="graph" transform="scale(1 1) rotate(0) translate(4 498.6)">
<title>pastafarianism</title>
<polygon fill="white" stroke="transparent" points="-4,4 -4,-498.6 2959.99,-498.6 2959.99,4 -4,4"/>
<!-- selector:
 insert(left_hand, outwardgripper, gear3, shaft3) -->
<g id="node1" class="node">
<title>selector:
 insert(left_hand, outwardgripper, gear3, shaft3)</title>
<polygon fill="#8deeee" stroke="black" points="1230.34,-442.54 1230.34,-473.18 1025.89,-494.84 736.76,-494.84 532.31,-473.18 532.31,-442.54 736.76,-420.88 1025.89,-420.88 1230.34,-442.54"/>
<text text-anchor="middle" x="881.32" y="-463.46" font-family="Times,serif" font-size="18.00">selector:</text>
<text text-anchor="middle" x="881.32" y="-443.46" font-family="Times,serif" font-size="18.00"> insert(left_hand, outwardgripper, gear3, shaft3)</text>
</g>
<!-- target:
 is_inserted_to(gear3, shaft3) -->
<g id="node2" class="node">
<title>target:
 is_inserted_to(gear3, shaft3)</title>
<ellipse fill="#ffec8b" stroke="black" cx="659.32" cy="-351.18" rx="198.89" ry="33.88"/>
<text text-anchor="middle" x="659.32" y="-356.78" font-family="Times,serif" font-size="18.00">target:</text>
<text text-anchor="middle" x="659.32" y="-336.78" font-family="Times,serif" font-size="18.00"> is_inserted_to(gear3, shaft3)</text>
</g>
<!-- selector:
 insert(left_hand, outwardgripper, gear3, shaft3)&#45;&gt;target:
 is_inserted_to(gear3, shaft3) -->
<g id="edge1" class="edge">
<title>selector:
 insert(left_hand, outwardgripper, gear3, shaft3)&#45;&gt;target:
 is_inserted_to(gear3, shaft3)</title>
<path fill="none" stroke="black" d="M805.24,-420.98C782.4,-410.21 757.37,-398.41 734.59,-387.67"/>
<polygon fill="black" stroke="black" points="735.85,-384.39 725.31,-383.29 732.86,-390.73 735.85,-384.39"/>
</g>
<!-- sequence:
 insert(left_hand, outwardgripper, gear3, shaft3) -->
<g id="node3" class="node">
<title>sequence:
 insert(left_hand, outwardgripper, gear3, shaft3)</title>
<polygon fill="#ff7f24" stroke="black" points="1332.32,-375.18 876.32,-375.18 876.32,-327.18 1332.32,-327.18 1332.32,-375.18"/>
<text text-anchor="middle" x="1104.32" y="-356.78" font-family="Times,serif" font-size="18.00">sequence:</text>
<text text-anchor="middle" x="1104.32" y="-336.78" font-family="Times,serif" font-size="18.00"> insert(left_hand, outwardgripper, gear3, shaft3)</text>
</g>
<!-- selector:
 insert(left_hand, outwardgripper, gear3, shaft3)&#45;&gt;sequence:
 insert(left_hand, outwardgripper, gear3, shaft3) -->
<g id="edge2" class="edge">
<title>selector:
 insert(left_hand, outwardgripper, gear3, shaft3)&#45;&gt;sequence:
 insert(left_hand, outwardgripper, gear3, shaft3)</title>
<path fill="none" stroke="black" d="M957.76,-420.98C986.63,-407.43 1018.99,-392.24 1045.95,-379.58"/>
<polygon fill="black" stroke="black" points="1047.68,-382.64 1055.25,-375.22 1044.71,-376.3 1047.68,-382.64"/>
</g>
<!-- precondition:
 hold(left_hand, outwardgripper) -->
<g id="node4" class="node">
<title>precondition:
 hold(left_hand, outwardgripper)</title>
<ellipse fill="#ffec8b" stroke="black" cx="221.32" cy="-244.5" rx="221.15" ry="33.88"/>
<text text-anchor="middle" x="221.32" y="-250.1" font-family="Times,serif" font-size="18.00">precondition:</text>
<text text-anchor="middle" x="221.32" y="-230.1" font-family="Times,serif" font-size="18.00"> hold(left_hand, outwardgripper)</text>
</g>
<!-- sequence:
 insert(left_hand, outwardgripper, gear3, shaft3)&#45;&gt;precondition:
 hold(left_hand, outwardgripper) -->
<g id="edge3" class="edge">
<title>sequence:
 insert(left_hand, outwardgripper, gear3, shaft3)&#45;&gt;precondition:
 hold(left_hand, outwardgripper)</title>
<path fill="none" stroke="black" d="M947.03,-327.15C920.45,-323.6 893.12,-320.15 867.32,-317.24 682.91,-296.46 635.56,-303.5 451.32,-281.24 427.79,-278.4 402.96,-274.98 378.67,-271.4"/>
<polygon fill="black" stroke="black" points="379.07,-267.92 368.66,-269.91 378.04,-274.85 379.07,-267.92"/>
</g>
<!-- selector:
 pick_up(left_hand, outwardgripper, gear3) -->
<g id="node5" class="node">
<title>selector:
 pick_up(left_hand, outwardgripper, gear3)</title>
<polygon fill="#8deeee" stroke="black" points="1080.27,-229.19 1080.27,-259.82 898.71,-281.48 641.94,-281.48 460.38,-259.82 460.38,-229.19 641.94,-207.53 898.71,-207.53 1080.27,-229.19"/>
<text text-anchor="middle" x="770.32" y="-250.1" font-family="Times,serif" font-size="18.00">selector:</text>
<text text-anchor="middle" x="770.32" y="-230.1" font-family="Times,serif" font-size="18.00"> pick_up(left_hand, outwardgripper, gear3)</text>
</g>
<!-- sequence:
 insert(left_hand, outwardgripper, gear3, shaft3)&#45;&gt;selector:
 pick_up(left_hand, outwardgripper, gear3) -->
<g id="edge4" class="edge">
<title>sequence:
 insert(left_hand, outwardgripper, gear3, shaft3)&#45;&gt;selector:
 pick_up(left_hand, outwardgripper, gear3)</title>
<path fill="none" stroke="black" d="M1030.61,-327.08C990.62,-314.54 940.11,-298.72 894.26,-284.34"/>
<polygon fill="black" stroke="black" points="895.14,-280.95 884.55,-281.3 893.04,-287.63 895.14,-280.95"/>
</g>
<!-- selector:
 insert(left_hand, defaultgripper, gear3, shaft3) -->
<g id="node11" class="node">
<title>selector:
 insert(left_hand, defaultgripper, gear3, shaft3)</title>
<polygon fill="#8deeee" stroke="black" points="1780,-229.19 1780,-259.82 1580.44,-281.48 1298.21,-281.48 1098.65,-259.82 1098.65,-229.19 1298.21,-207.53 1580.44,-207.53 1780,-229.19"/>
<text text-anchor="middle" x="1439.32" y="-250.1" font-family="Times,serif" font-size="18.00">selector:</text>
<text text-anchor="middle" x="1439.32" y="-230.1" font-family="Times,serif" font-size="18.00"> insert(left_hand, defaultgripper, gear3, shaft3)</text>
</g>
<!-- sequence:
 insert(left_hand, outwardgripper, gear3, shaft3)&#45;&gt;selector:
 insert(left_hand, defaultgripper, gear3, shaft3) -->
<g id="edge10" class="edge">
<title>sequence:
 insert(left_hand, outwardgripper, gear3, shaft3)&#45;&gt;selector:
 insert(left_hand, defaultgripper, gear3, shaft3)</title>
<path fill="none" stroke="black" d="M1178.26,-327.08C1218.37,-314.54 1269.03,-298.72 1315.02,-284.34"/>
<polygon fill="black" stroke="black" points="1316.26,-287.62 1324.76,-281.3 1314.17,-280.94 1316.26,-287.62"/>
</g>
<!-- action:
 insert(left_hand, outwardgripper, gear3, shaft3) -->
<g id="node17" class="node">
<title>action:
 insert(left_hand, outwardgripper, gear3, shaft3)</title>
<ellipse fill="lightgreen" stroke="black" cx="2120.32" cy="-244.5" rx="322.38" ry="33.88"/>
<text text-anchor="middle" x="2120.32" y="-250.1" font-family="Times,serif" font-size="18.00">action:</text>
<text text-anchor="middle" x="2120.32" y="-230.1" font-family="Times,serif" font-size="18.00"> insert(left_hand, outwardgripper, gear3, shaft3)</text>
</g>
<!-- sequence:
 insert(left_hand, outwardgripper, gear3, shaft3)&#45;&gt;action:
 insert(left_hand, outwardgripper, gear3, shaft3) -->
<g id="edge16" class="edge">
<title>sequence:
 insert(left_hand, outwardgripper, gear3, shaft3)&#45;&gt;action:
 insert(left_hand, outwardgripper, gear3, shaft3)</title>
<path fill="none" stroke="black" d="M1332.7,-327.61C1465.91,-314.35 1637.16,-297.11 1789.32,-281.24 1822.16,-277.82 1856.81,-274.14 1890.85,-270.5"/>
<polygon fill="black" stroke="black" points="1891.34,-273.96 1900.91,-269.42 1890.59,-267 1891.34,-273.96"/>
</g>
<!-- target:
 hold(outwardgripper, gear3) -->
<g id="node6" class="node">
<title>target:
 hold(outwardgripper, gear3)</title>
<ellipse fill="#ffec8b" stroke="black" cx="353.32" cy="-137.82" rx="196.65" ry="33.88"/>
<text text-anchor="middle" x="353.32" y="-143.42" font-family="Times,serif" font-size="18.00">target:</text>
<text text-anchor="middle" x="353.32" y="-123.42" font-family="Times,serif" font-size="18.00"> hold(outwardgripper, gear3)</text>
</g>
<!-- selector:
 pick_up(left_hand, outwardgripper, gear3)&#45;&gt;target:
 hold(outwardgripper, gear3) -->
<g id="edge5" class="edge">
<title>selector:
 pick_up(left_hand, outwardgripper, gear3)&#45;&gt;target:
 hold(outwardgripper, gear3)</title>
<path fill="none" stroke="black" d="M631.76,-208.72C579.99,-195.72 521.71,-181.09 471.9,-168.59"/>
<polygon fill="black" stroke="black" points="472.61,-165.16 462.06,-166.12 470.91,-171.95 472.61,-165.16"/>
</g>
<!-- sequence:
 pick_up(left_hand, outwardgripper, gear3) -->
<g id="node7" class="node">
<title>sequence:
 pick_up(left_hand, outwardgripper, gear3)</title>
<polygon fill="#ff7f24" stroke="black" points="972.82,-161.82 567.82,-161.82 567.82,-113.82 972.82,-113.82 972.82,-161.82"/>
<text text-anchor="middle" x="770.32" y="-143.42" font-family="Times,serif" font-size="18.00">sequence:</text>
<text text-anchor="middle" x="770.32" y="-123.42" font-family="Times,serif" font-size="18.00"> pick_up(left_hand, outwardgripper, gear3)</text>
</g>
<!-- selector:
 pick_up(left_hand, outwardgripper, gear3)&#45;&gt;sequence:
 pick_up(left_hand, outwardgripper, gear3) -->
<g id="edge6" class="edge">
<title>selector:
 pick_up(left_hand, outwardgripper, gear3)&#45;&gt;sequence:
 pick_up(left_hand, outwardgripper, gear3)</title>
<path fill="none" stroke="black" d="M770.32,-207.48C770.32,-196.09 770.32,-183.57 770.32,-172.36"/>
<polygon fill="black" stroke="black" points="773.82,-172.11 770.32,-162.11 766.82,-172.11 773.82,-172.11"/>
</g>
<!-- &quot;precondition:\n hold(left_hand, outwardgripper)&quot;* -->
<g id="node8" class="node">
<title>&quot;precondition:\n hold(left_hand, outwardgripper)&quot;*</title>
<ellipse fill="#ffec8b" stroke="black" cx="260.32" cy="-33.94" rx="233.19" ry="33.88"/>
<text text-anchor="middle" x="260.32" y="-39.54" font-family="Times,serif" font-size="18.00">&quot;precondition:</text>
<text text-anchor="middle" x="260.32" y="-19.54" font-family="Times,serif" font-size="18.00"> hold(left_hand, outwardgripper)&quot;*</text>
</g>
<!-- sequence:
 pick_up(left_hand, outwardgripper, gear3)&#45;&gt;&quot;precondition:\n hold(left_hand, outwardgripper)&quot;* -->
<g id="edge7" class="edge">
<title>sequence:
 pick_up(left_hand, outwardgripper, gear3)&#45;&gt;&quot;precondition:\n hold(left_hand, outwardgripper)&quot;*</title>
<path fill="none" stroke="black" d="M654.92,-113.77C580.81,-98.96 483.96,-79.62 404.76,-63.79"/>
<polygon fill="black" stroke="black" points="405.19,-60.31 394.7,-61.78 403.82,-67.18 405.19,-60.31"/>
</g>
<!-- precondition:
 is_empty(outwardgripper) -->
<g id="node9" class="node">
<title>precondition:
 is_empty(outwardgripper)</title>
<ellipse fill="#ffec8b" stroke="black" cx="694.32" cy="-33.94" rx="183.28" ry="33.88"/>
<text text-anchor="middle" x="694.32" y="-39.54" font-family="Times,serif" font-size="18.00">precondition:</text>
<text text-anchor="middle" x="694.32" y="-19.54" font-family="Times,serif" font-size="18.00"> is_empty(outwardgripper)</text>
</g>
<!-- sequence:
 pick_up(left_hand, outwardgripper, gear3)&#45;&gt;precondition:
 is_empty(outwardgripper) -->
<g id="edge8" class="edge">
<title>sequence:
 pick_up(left_hand, outwardgripper, gear3)&#45;&gt;precondition:
 is_empty(outwardgripper)</title>
<path fill="none" stroke="black" d="M753.08,-113.7C744.74,-102.53 734.49,-88.78 724.89,-75.92"/>
<polygon fill="black" stroke="black" points="727.49,-73.55 718.7,-67.62 721.88,-77.73 727.49,-73.55"/>
</g>
<!-- action:
 pick_up(left_hand, outwardgripper, gear3) -->
<g id="node10" class="node">
<title>action:
 pick_up(left_hand, outwardgripper, gear3)</title>
<ellipse fill="lightgreen" stroke="black" cx="1182.32" cy="-33.94" rx="286.26" ry="33.88"/>
<text text-anchor="middle" x="1182.32" y="-39.54" font-family="Times,serif" font-size="18.00">action:</text>
<text text-anchor="middle" x="1182.32" y="-19.54" font-family="Times,serif" font-size="18.00"> pick_up(left_hand, outwardgripper, gear3)</text>
</g>
<!-- sequence:
 pick_up(left_hand, outwardgripper, gear3)&#45;&gt;action:
 pick_up(left_hand, outwardgripper, gear3) -->
<g id="edge9" class="edge">
<title>sequence:
 pick_up(left_hand, outwardgripper, gear3)&#45;&gt;action:
 pick_up(left_hand, outwardgripper, gear3)</title>
<path fill="none" stroke="black" d="M863.56,-113.77C919.21,-100.01 990.74,-82.32 1051.93,-67.19"/>
<polygon fill="black" stroke="black" points="1052.79,-70.58 1061.66,-64.78 1051.11,-63.78 1052.79,-70.58"/>
</g>
<!-- &quot;target:\n is_inserted_to(gear3, shaft3)&quot;* -->
<g id="node12" class="node">
<title>&quot;target:\n is_inserted_to(gear3, shaft3)&quot;*</title>
<ellipse fill="#ffec8b" stroke="black" cx="1439.32" cy="-137.82" rx="211.35" ry="33.88"/>
<text text-anchor="middle" x="1439.32" y="-143.42" font-family="Times,serif" font-size="18.00">&quot;target:</text>
<text text-anchor="middle" x="1439.32" y="-123.42" font-family="Times,serif" font-size="18.00"> is_inserted_to(gear3, shaft3)&quot;*</text>
</g>
<!-- selector:
 insert(left_hand, defaultgripper, gear3, shaft3)&#45;&gt;&quot;target:\n is_inserted_to(gear3, shaft3)&quot;* -->
<g id="edge11" class="edge">
<title>selector:
 insert(left_hand, defaultgripper, gear3, shaft3)&#45;&gt;&quot;target:\n is_inserted_to(gear3, shaft3)&quot;*</title>
<path fill="none" stroke="black" d="M1439.32,-207.48C1439.32,-199.32 1439.32,-190.58 1439.32,-182.15"/>
<polygon fill="black" stroke="black" points="1442.82,-182.1 1439.32,-172.1 1435.82,-182.1 1442.82,-182.1"/>
</g>
<!-- sequence:
 insert(left_hand, defaultgripper, gear3, shaft3) -->
<g id="node13" class="node">
<title>sequence:
 insert(left_hand, defaultgripper, gear3, shaft3)</title>
<polygon fill="#ff7f24" stroke="black" points="2265.82,-161.82 1820.82,-161.82 1820.82,-113.82 2265.82,-113.82 2265.82,-161.82"/>
<text text-anchor="middle" x="2043.32" y="-143.42" font-family="Times,serif" font-size="18.00">sequence:</text>
<text text-anchor="middle" x="2043.32" y="-123.42" font-family="Times,serif" font-size="18.00"> insert(left_hand, defaultgripper, gear3, shaft3)</text>
</g>
<!-- selector:
 insert(left_hand, defaultgripper, gear3, shaft3)&#45;&gt;sequence:
 insert(left_hand, defaultgripper, gear3, shaft3) -->
<g id="edge12" class="edge">
<title>selector:
 insert(left_hand, defaultgripper, gear3, shaft3)&#45;&gt;sequence:
 insert(left_hand, defaultgripper, gear3, shaft3)</title>
<path fill="none" stroke="black" d="M1621.36,-211.95C1710.82,-196.45 1817.04,-178.04 1900.53,-163.57"/>
<polygon fill="black" stroke="black" points="1901.34,-166.98 1910.59,-161.83 1900.14,-160.09 1901.34,-166.98"/>
</g>
<!-- precondition:
 hold(left_hand, defaultgripper) -->
<g id="node14" class="node">
<title>precondition:
 hold(left_hand, defaultgripper)</title>
<ellipse fill="#ffec8b" stroke="black" cx="1700.32" cy="-33.94" rx="213.59" ry="33.88"/>
<text text-anchor="middle" x="1700.32" y="-39.54" font-family="Times,serif" font-size="18.00">precondition:</text>
<text text-anchor="middle" x="1700.32" y="-19.54" font-family="Times,serif" font-size="18.00"> hold(left_hand, defaultgripper)</text>
</g>
<!-- sequence:
 insert(left_hand, defaultgripper, gear3, shaft3)&#45;&gt;precondition:
 hold(left_hand, defaultgripper) -->
<g id="edge13" class="edge">
<title>sequence:
 insert(left_hand, defaultgripper, gear3, shaft3)&#45;&gt;precondition:
 hold(left_hand, defaultgripper)</title>
<path fill="none" stroke="black" d="M1965.49,-113.7C1919.07,-99.92 1859.44,-82.2 1808.49,-67.07"/>
<polygon fill="black" stroke="black" points="1809.33,-63.67 1798.75,-64.18 1807.34,-70.38 1809.33,-63.67"/>
</g>
<!-- precondition:
 hold(defaultgripper, gear3) -->
<g id="node15" class="node">
<title>precondition:
 hold(defaultgripper, gear3)</title>
<ellipse fill="#ffec8b" stroke="black" cx="2120.32" cy="-33.94" rx="188.6" ry="33.88"/>
<text text-anchor="middle" x="2120.32" y="-39.54" font-family="Times,serif" font-size="18.00">precondition:</text>
<text text-anchor="middle" x="2120.32" y="-19.54" font-family="Times,serif" font-size="18.00"> hold(defaultgripper, gear3)</text>
</g>
<!-- sequence:
 insert(left_hand, defaultgripper, gear3, shaft3)&#45;&gt;precondition:
 hold(defaultgripper, gear3) -->
<g id="edge14" class="edge">
<title>sequence:
 insert(left_hand, defaultgripper, gear3, shaft3)&#45;&gt;precondition:
 hold(defaultgripper, gear3)</title>
<path fill="none" stroke="black" d="M2060.8,-113.7C2069.24,-102.53 2079.63,-88.78 2089.36,-75.92"/>
<polygon fill="black" stroke="black" points="2092.39,-77.71 2095.62,-67.62 2086.8,-73.49 2092.39,-77.71"/>
</g>
<!-- action:
 insert(left_hand, defaultgripper, gear3, shaft3) -->
<g id="node16" class="node">
<title>action:
 insert(left_hand, defaultgripper, gear3, shaft3)</title>
<ellipse fill="lightgreen" stroke="black" cx="2641.32" cy="-33.94" rx="314.83" ry="33.88"/>
<text text-anchor="middle" x="2641.32" y="-39.54" font-family="Times,serif" font-size="18.00">action:</text>
<text text-anchor="middle" x="2641.32" y="-19.54" font-family="Times,serif" font-size="18.00"> insert(left_hand, defaultgripper, gear3, shaft3)</text>
</g>
<!-- sequence:
 insert(left_hand, defaultgripper, gear3, shaft3)&#45;&gt;action:
 insert(left_hand, defaultgripper, gear3, shaft3) -->
<g id="edge15" class="edge">
<title>sequence:
 insert(left_hand, defaultgripper, gear3, shaft3)&#45;&gt;action:
 insert(left_hand, defaultgripper, gear3, shaft3)</title>
<path fill="none" stroke="black" d="M2178.65,-113.77C2264,-99.23 2375.07,-80.3 2466.99,-64.64"/>
<polygon fill="black" stroke="black" points="2467.69,-68.07 2476.96,-62.94 2466.51,-61.17 2467.69,-68.07"/>
</g>
</g>
</svg>
