<?xml version="1.0" encoding="UTF-8" standalone="no"?>
<!DOCTYPE svg PUBLIC "-//W3C//DTD SVG 1.1//EN"
 "http://www.w3.org/Graphics/SVG/1.1/DTD/svg11.dtd">
<!-- Generated by graphviz version 2.43.0 (0)
 -->
<!-- Title: pastafarianism Pages: 1 -->
<svg width="1812pt" height="503pt"
 viewBox="0.00 0.00 1811.70 502.60" xmlns="http://www.w3.org/2000/svg" xmlns:xlink="http://www.w3.org/1999/xlink">
<g id="graph0" class="graph" transform="scale(1 1) rotate(0) translate(4 498.6)">
<title>pastafarianism</title>
<polygon fill="white" stroke="transparent" points="-4,4 -4,-498.6 1807.7,-498.6 1807.7,4 -4,4"/>
<!-- selector:
 insert(gear2, shaft2, outwardgripper, left_hand) -->
<g id="node1" class="node">
<title>selector:
 insert(gear2, shaft2, outwardgripper, left_hand)</title>
<polygon fill="#8deeee" stroke="black" points="896.34,-442.54 896.34,-473.18 691.89,-494.84 402.76,-494.84 198.31,-473.18 198.31,-442.54 402.76,-420.88 691.89,-420.88 896.34,-442.54"/>
<text text-anchor="middle" x="547.32" y="-463.46" font-family="Times,serif" font-size="18.00">selector:</text>
<text text-anchor="middle" x="547.32" y="-443.46" font-family="Times,serif" font-size="18.00"> insert(gear2, shaft2, outwardgripper, left_hand)</text>
</g>
<!-- target:
 is_inserted_to(gear2, shaft2) -->
<g id="node2" class="node">
<title>target:
 is_inserted_to(gear2, shaft2)</title>
<ellipse fill="#ffec8b" stroke="black" cx="325.32" cy="-351.18" rx="198.89" ry="33.88"/>
<text text-anchor="middle" x="325.32" y="-356.78" font-family="Times,serif" font-size="18.00">target:</text>
<text text-anchor="middle" x="325.32" y="-336.78" font-family="Times,serif" font-size="18.00"> is_inserted_to(gear2, shaft2)</text>
</g>
<!-- selector:
 insert(gear2, shaft2, outwardgripper, left_hand)&#45;&gt;target:
 is_inserted_to(gear2, shaft2) -->
<g id="edge1" class="edge">
<title>selector:
 insert(gear2, shaft2, outwardgripper, left_hand)&#45;&gt;target:
 is_inserted_to(gear2, shaft2)</title>
<path fill="none" stroke="black" d="M471.24,-420.98C448.4,-410.21 423.37,-398.41 400.59,-387.67"/>
<polygon fill="black" stroke="black" points="401.85,-384.39 391.31,-383.29 398.86,-390.73 401.85,-384.39"/>
</g>
<!-- sequence:
 insert(gear2, shaft2, outwardgripper, left_hand) -->
<g id="node3" class="node">
<title>sequence:
 insert(gear2, shaft2, outwardgripper, left_hand)</title>
<polygon fill="#ff7f24" stroke="black" points="998.32,-375.18 542.32,-375.18 542.32,-327.18 998.32,-327.18 998.32,-375.18"/>
<text text-anchor="middle" x="770.32" y="-356.78" font-family="Times,serif" font-size="18.00">sequence:</text>
<text text-anchor="middle" x="770.32" y="-336.78" font-family="Times,serif" font-size="18.00"> insert(gear2, shaft2, outwardgripper, left_hand)</text>
</g>
<!-- selector:
 insert(gear2, shaft2, outwardgripper, left_hand)&#45;&gt;sequence:
 insert(gear2, shaft2, outwardgripper, left_hand) -->
<g id="edge2" class="edge">
<title>selector:
 insert(gear2, shaft2, outwardgripper, left_hand)&#45;&gt;sequence:
 insert(gear2, shaft2, outwardgripper, left_hand)</title>
<path fill="none" stroke="black" d="M623.76,-420.98C652.63,-407.43 684.99,-392.24 711.95,-379.58"/>
<polygon fill="black" stroke="black" points="713.68,-382.64 721.25,-375.22 710.71,-376.3 713.68,-382.64"/>
</g>
<!-- precondition:
 hold(left_hand, outwardgripper) -->
<g id="node4" class="node">
<title>precondition:
 hold(left_hand, outwardgripper)</title>
<ellipse fill="#ffec8b" stroke="black" cx="221.32" cy="-244.5" rx="221.15" ry="33.88"/>
<text text-anchor="middle" x="221.32" y="-250.1" font-family="Times,serif" font-size="18.00">precondition:</text>
<text text-anchor="middle" x="221.32" y="-230.1" font-family="Times,serif" font-size="18.00"> hold(left_hand, outwardgripper)</text>
</g>
<!-- sequence:
 insert(gear2, shaft2, outwardgripper, left_hand)&#45;&gt;precondition:
 hold(left_hand, outwardgripper) -->
<g id="edge3" class="edge">
<title>sequence:
 insert(gear2, shaft2, outwardgripper, left_hand)&#45;&gt;precondition:
 hold(left_hand, outwardgripper)</title>
<path fill="none" stroke="black" d="M649.5,-327.14C566.36,-311.29 455.47,-290.15 367.37,-273.35"/>
<polygon fill="black" stroke="black" points="367.77,-269.86 357.29,-271.43 366.46,-276.74 367.77,-269.86"/>
</g>
<!-- selector:
 pick_up(left_hand, outwardgripper, gear2) -->
<g id="node5" class="node">
<title>selector:
 pick_up(left_hand, outwardgripper, gear2)</title>
<polygon fill="#8deeee" stroke="black" points="1080.27,-229.19 1080.27,-259.82 898.71,-281.48 641.94,-281.48 460.38,-259.82 460.38,-229.19 641.94,-207.53 898.71,-207.53 1080.27,-229.19"/>
<text text-anchor="middle" x="770.32" y="-250.1" font-family="Times,serif" font-size="18.00">selector:</text>
<text text-anchor="middle" x="770.32" y="-230.1" font-family="Times,serif" font-size="18.00"> pick_up(left_hand, outwardgripper, gear2)</text>
</g>
<!-- sequence:
 insert(gear2, shaft2, outwardgripper, left_hand)&#45;&gt;selector:
 pick_up(left_hand, outwardgripper, gear2) -->
<g id="edge4" class="edge">
<title>sequence:
 insert(gear2, shaft2, outwardgripper, left_hand)&#45;&gt;selector:
 pick_up(left_hand, outwardgripper, gear2)</title>
<path fill="none" stroke="black" d="M770.32,-326.95C770.32,-316.5 770.32,-303.79 770.32,-291.54"/>
<polygon fill="black" stroke="black" points="773.82,-291.42 770.32,-281.42 766.82,-291.42 773.82,-291.42"/>
</g>
<!-- action:
 insert(left_hand, outwardgripper, gear2, shaft2) -->
<g id="node11" class="node">
<title>action:
 insert(left_hand, outwardgripper, gear2, shaft2)</title>
<ellipse fill="lightgreen" stroke="black" cx="1420.32" cy="-244.5" rx="322.38" ry="33.88"/>
<text text-anchor="middle" x="1420.32" y="-250.1" font-family="Times,serif" font-size="18.00">action:</text>
<text text-anchor="middle" x="1420.32" y="-230.1" font-family="Times,serif" font-size="18.00"> insert(left_hand, outwardgripper, gear2, shaft2)</text>
</g>
<!-- sequence:
 insert(gear2, shaft2, outwardgripper, left_hand)&#45;&gt;action:
 insert(left_hand, outwardgripper, gear2, shaft2) -->
<g id="edge10" class="edge">
<title>sequence:
 insert(gear2, shaft2, outwardgripper, left_hand)&#45;&gt;action:
 insert(left_hand, outwardgripper, gear2, shaft2)</title>
<path fill="none" stroke="black" d="M913.37,-327.14C1008.87,-311.76 1135.3,-291.4 1238,-274.86"/>
<polygon fill="black" stroke="black" points="1238.87,-278.27 1248.18,-273.22 1237.75,-271.36 1238.87,-278.27"/>
</g>
<!-- target:
 hold(outwardgripper, gear2) -->
<g id="node6" class="node">
<title>target:
 hold(outwardgripper, gear2)</title>
<ellipse fill="#ffec8b" stroke="black" cx="562.32" cy="-137.82" rx="196.65" ry="33.88"/>
<text text-anchor="middle" x="562.32" y="-143.42" font-family="Times,serif" font-size="18.00">target:</text>
<text text-anchor="middle" x="562.32" y="-123.42" font-family="Times,serif" font-size="18.00"> hold(outwardgripper, gear2)</text>
</g>
<!-- selector:
 pick_up(left_hand, outwardgripper, gear2)&#45;&gt;target:
 hold(outwardgripper, gear2) -->
<g id="edge5" class="edge">
<title>selector:
 pick_up(left_hand, outwardgripper, gear2)&#45;&gt;target:
 hold(outwardgripper, gear2)</title>
<path fill="none" stroke="black" d="M699.03,-207.62C677.84,-196.96 654.62,-185.27 633.43,-174.61"/>
<polygon fill="black" stroke="black" points="635,-171.48 624.49,-170.11 631.85,-177.73 635,-171.48"/>
</g>
<!-- sequence:
 pick_up(left_hand, outwardgripper, gear2) -->
<g id="node7" class="node">
<title>sequence:
 pick_up(left_hand, outwardgripper, gear2)</title>
<polygon fill="#ff7f24" stroke="black" points="1181.82,-161.82 776.82,-161.82 776.82,-113.82 1181.82,-113.82 1181.82,-161.82"/>
<text text-anchor="middle" x="979.32" y="-143.42" font-family="Times,serif" font-size="18.00">sequence:</text>
<text text-anchor="middle" x="979.32" y="-123.42" font-family="Times,serif" font-size="18.00"> pick_up(left_hand, outwardgripper, gear2)</text>
</g>
<!-- selector:
 pick_up(left_hand, outwardgripper, gear2)&#45;&gt;sequence:
 pick_up(left_hand, outwardgripper, gear2) -->
<g id="edge6" class="edge">
<title>selector:
 pick_up(left_hand, outwardgripper, gear2)&#45;&gt;sequence:
 pick_up(left_hand, outwardgripper, gear2)</title>
<path fill="none" stroke="black" d="M841.96,-207.62C868.9,-194.13 899.09,-179.01 924.29,-166.39"/>
<polygon fill="black" stroke="black" points="925.96,-169.47 933.33,-161.86 922.82,-163.21 925.96,-169.47"/>
</g>
<!-- precondition:
 is_empty(outwardgripper) -->
<g id="node8" class="node">
<title>precondition:
 is_empty(outwardgripper)</title>
<ellipse fill="#ffec8b" stroke="black" cx="545.32" cy="-33.94" rx="183.28" ry="33.88"/>
<text text-anchor="middle" x="545.32" y="-39.54" font-family="Times,serif" font-size="18.00">precondition:</text>
<text text-anchor="middle" x="545.32" y="-19.54" font-family="Times,serif" font-size="18.00"> is_empty(outwardgripper)</text>
</g>
<!-- sequence:
 pick_up(left_hand, outwardgripper, gear2)&#45;&gt;precondition:
 is_empty(outwardgripper) -->
<g id="edge7" class="edge">
<title>sequence:
 pick_up(left_hand, outwardgripper, gear2)&#45;&gt;precondition:
 is_empty(outwardgripper)</title>
<path fill="none" stroke="black" d="M881.11,-113.77C817.48,-98.83 734.15,-79.27 666.42,-63.37"/>
<polygon fill="black" stroke="black" points="667.08,-59.93 656.54,-61.05 665.48,-66.74 667.08,-59.93"/>
</g>
<!-- &quot;precondition:\n hold(left_hand, outwardgripper)&quot;* -->
<g id="node9" class="node">
<title>&quot;precondition:\n hold(left_hand, outwardgripper)&quot;*</title>
<ellipse fill="#ffec8b" stroke="black" cx="979.32" cy="-33.94" rx="233.19" ry="33.88"/>
<text text-anchor="middle" x="979.32" y="-39.54" font-family="Times,serif" font-size="18.00">&quot;precondition:</text>
<text text-anchor="middle" x="979.32" y="-19.54" font-family="Times,serif" font-size="18.00"> hold(left_hand, outwardgripper)&quot;*</text>
</g>
<!-- sequence:
 pick_up(left_hand, outwardgripper, gear2)&#45;&gt;&quot;precondition:\n hold(left_hand, outwardgripper)&quot;* -->
<g id="edge8" class="edge">
<title>sequence:
 pick_up(left_hand, outwardgripper, gear2)&#45;&gt;&quot;precondition:\n hold(left_hand, outwardgripper)&quot;*</title>
<path fill="none" stroke="black" d="M979.32,-113.7C979.32,-103.16 979.32,-90.31 979.32,-78.08"/>
<polygon fill="black" stroke="black" points="982.82,-78.01 979.32,-68.01 975.82,-78.01 982.82,-78.01"/>
</g>
<!-- action:
 pick_up(left_hand, outwardgripper, gear2) -->
<g id="node10" class="node">
<title>action:
 pick_up(left_hand, outwardgripper, gear2)</title>
<ellipse fill="lightgreen" stroke="black" cx="1517.32" cy="-33.94" rx="286.26" ry="33.88"/>
<text text-anchor="middle" x="1517.32" y="-39.54" font-family="Times,serif" font-size="18.00">action:</text>
<text text-anchor="middle" x="1517.32" y="-19.54" font-family="Times,serif" font-size="18.00"> pick_up(left_hand, outwardgripper, gear2)</text>
</g>
<!-- sequence:
 pick_up(left_hand, outwardgripper, gear2)&#45;&gt;action:
 pick_up(left_hand, outwardgripper, gear2) -->
<g id="edge9" class="edge">
<title>sequence:
 pick_up(left_hand, outwardgripper, gear2)&#45;&gt;action:
 pick_up(left_hand, outwardgripper, gear2)</title>
<path fill="none" stroke="black" d="M1101.07,-113.77C1177.47,-99.3 1276.78,-80.49 1359.24,-64.88"/>
<polygon fill="black" stroke="black" points="1360.03,-68.29 1369.2,-62.99 1358.73,-61.41 1360.03,-68.29"/>
</g>
</g>
</svg>
