<?xml version="1.0" encoding="UTF-8" standalone="no"?>
<!DOCTYPE svg PUBLIC "-//W3C//DTD SVG 1.1//EN"
 "http://www.w3.org/Graphics/SVG/1.1/DTD/svg11.dtd">
<!-- Generated by graphviz version 2.43.0 (0)
 -->
<!-- Title: pastafarianism Pages: 1 -->
<svg width="2862pt" height="513pt"
 viewBox="0.00 0.00 2862.03 513.48" xmlns="http://www.w3.org/2000/svg" xmlns:xlink="http://www.w3.org/1999/xlink">
<g id="graph0" class="graph" transform="scale(1 1) rotate(0) translate(4 509.48)">
<title>pastafarianism</title>
<polygon fill="white" stroke="transparent" points="-4,4 -4,-509.48 2858.03,-509.48 2858.03,4 -4,4"/>
<!-- selector:
 screw(left_hand, defaultgripper, chairleg2, chairseatthread2) -->
<g id="node1" class="node">
<title>selector:
 screw(left_hand, defaultgripper, chairleg2, chairseatthread2)</title>
<polygon fill="#8deeee" stroke="black" points="1590.29,-453.42 1590.29,-484.05 1332.13,-505.71 967.04,-505.71 708.89,-484.05 708.89,-453.42 967.04,-431.76 1332.13,-431.76 1590.29,-453.42"/>
<text text-anchor="middle" x="1149.59" y="-474.34" font-family="Times,serif" font-size="18.00">selector:</text>
<text text-anchor="middle" x="1149.59" y="-454.34" font-family="Times,serif" font-size="18.00"> screw(left_hand, defaultgripper, chairleg2, chairseatthread2)</text>
</g>
<!-- target:
 is_screwed_to(chairleg2, chairseatthread2) -->
<g id="node2" class="node">
<title>target:
 is_screwed_to(chairleg2, chairseatthread2)</title>
<ellipse fill="#ffec8b" stroke="black" cx="858.59" cy="-360" rx="277.1" ry="36"/>
<text text-anchor="middle" x="858.59" y="-365.6" font-family="Times,serif" font-size="18.00">target:</text>
<text text-anchor="middle" x="858.59" y="-345.6" font-family="Times,serif" font-size="18.00"> is_screwed_to(chairleg2, chairseatthread2)</text>
</g>
<!-- selector:
 screw(left_hand, defaultgripper, chairleg2, chairseatthread2)&#45;&gt;target:
 is_screwed_to(chairleg2, chairseatthread2) -->
<g id="edge1" class="edge">
<title>selector:
 screw(left_hand, defaultgripper, chairleg2, chairseatthread2)&#45;&gt;target:
 is_screwed_to(chairleg2, chairseatthread2)</title>
<path fill="none" stroke="black" d="M1051.88,-431.9C1021.78,-420.86 988.62,-408.69 958.38,-397.6"/>
<polygon fill="black" stroke="black" points="959.27,-394.2 948.68,-394.04 956.86,-400.77 959.27,-394.2"/>
</g>
<!-- sequence:
 screw(left_hand, defaultgripper, chairleg2, chairseatthread2) -->
<g id="node3" class="node">
<title>sequence:
 screw(left_hand, defaultgripper, chairleg2, chairseatthread2)</title>
<polygon fill="#ff7f24" stroke="black" points="1729.59,-396 1153.59,-396 1153.59,-324 1729.59,-324 1729.59,-396"/>
<text text-anchor="middle" x="1441.59" y="-365.6" font-family="Times,serif" font-size="18.00">sequence:</text>
<text text-anchor="middle" x="1441.59" y="-345.6" font-family="Times,serif" font-size="18.00"> screw(left_hand, defaultgripper, chairleg2, chairseatthread2)</text>
</g>
<!-- selector:
 screw(left_hand, defaultgripper, chairleg2, chairseatthread2)&#45;&gt;sequence:
 screw(left_hand, defaultgripper, chairleg2, chairseatthread2) -->
<g id="edge2" class="edge">
<title>selector:
 screw(left_hand, defaultgripper, chairleg2, chairseatthread2)&#45;&gt;sequence:
 screw(left_hand, defaultgripper, chairleg2, chairseatthread2)</title>
<path fill="none" stroke="black" d="M1247.63,-431.9C1276.06,-421.51 1307.22,-410.12 1336.09,-399.56"/>
<polygon fill="black" stroke="black" points="1337.59,-402.74 1345.78,-396.02 1335.19,-396.17 1337.59,-402.74"/>
</g>
<!-- selector:
 change_tool(left_hand, clampgripper, defaultgripper) -->
<g id="node4" class="node">
<title>selector:
 change_tool(left_hand, clampgripper, defaultgripper)</title>
<polygon fill="#8deeee" stroke="black" points="1039.08,-237.09 1039.08,-266.91 825.57,-288 523.61,-288 310.09,-266.91 310.09,-237.09 523.61,-216 825.57,-216 1039.08,-237.09"/>
<text text-anchor="middle" x="674.59" y="-257.6" font-family="Times,serif" font-size="18.00">selector:</text>
<text text-anchor="middle" x="674.59" y="-237.6" font-family="Times,serif" font-size="18.00"> change_tool(left_hand, clampgripper, defaultgripper)</text>
</g>
<!-- sequence:
 screw(left_hand, defaultgripper, chairleg2, chairseatthread2)&#45;&gt;selector:
 change_tool(left_hand, clampgripper, defaultgripper) -->
<g id="edge3" class="edge">
<title>sequence:
 screw(left_hand, defaultgripper, chairleg2, chairseatthread2)&#45;&gt;selector:
 change_tool(left_hand, clampgripper, defaultgripper)</title>
<path fill="none" stroke="black" d="M1188.32,-324C1093.59,-310.91 986.84,-296.15 895.28,-283.5"/>
<polygon fill="black" stroke="black" points="895.72,-280.03 885.34,-282.13 894.76,-286.96 895.72,-280.03"/>
</g>
<!-- selector:
 pick_up(left_hand, defaultgripper, chairleg2) -->
<g id="node10" class="node">
<title>selector:
 pick_up(left_hand, defaultgripper, chairleg2)</title>
<polygon fill="#8deeee" stroke="black" points="1751.67,-237.09 1751.67,-266.91 1570.03,-288 1313.15,-288 1131.51,-266.91 1131.51,-237.09 1313.15,-216 1570.03,-216 1751.67,-237.09"/>
<text text-anchor="middle" x="1441.59" y="-257.6" font-family="Times,serif" font-size="18.00">selector:</text>
<text text-anchor="middle" x="1441.59" y="-237.6" font-family="Times,serif" font-size="18.00"> pick_up(left_hand, defaultgripper, chairleg2)</text>
</g>
<!-- sequence:
 screw(left_hand, defaultgripper, chairleg2, chairseatthread2)&#45;&gt;selector:
 pick_up(left_hand, defaultgripper, chairleg2) -->
<g id="edge9" class="edge">
<title>sequence:
 screw(left_hand, defaultgripper, chairleg2, chairseatthread2)&#45;&gt;selector:
 pick_up(left_hand, defaultgripper, chairleg2)</title>
<path fill="none" stroke="black" d="M1441.59,-324C1441.59,-315.85 1441.59,-307.06 1441.59,-298.54"/>
<polygon fill="black" stroke="black" points="1445.09,-298.33 1441.59,-288.33 1438.09,-298.33 1445.09,-298.33"/>
</g>
<!-- action:
 screw(left_hand, defaultgripper, chairleg2, chairseatthread2) -->
<g id="node16" class="node">
<title>action:
 screw(left_hand, defaultgripper, chairleg2, chairseatthread2)</title>
<ellipse fill="lightgreen" stroke="black" cx="2155.59" cy="-252" rx="386.29" ry="36"/>
<text text-anchor="middle" x="2155.59" y="-257.6" font-family="Times,serif" font-size="18.00">action:</text>
<text text-anchor="middle" x="2155.59" y="-237.6" font-family="Times,serif" font-size="18.00"> screw(left_hand, defaultgripper, chairleg2, chairseatthread2)</text>
</g>
<!-- sequence:
 screw(left_hand, defaultgripper, chairleg2, chairseatthread2)&#45;&gt;action:
 screw(left_hand, defaultgripper, chairleg2, chairseatthread2) -->
<g id="edge15" class="edge">
<title>sequence:
 screw(left_hand, defaultgripper, chairleg2, chairseatthread2)&#45;&gt;action:
 screw(left_hand, defaultgripper, chairleg2, chairseatthread2)</title>
<path fill="none" stroke="black" d="M1677.36,-324C1763.8,-311.16 1861.01,-296.73 1945.1,-284.25"/>
<polygon fill="black" stroke="black" points="1945.65,-287.71 1955.03,-282.77 1944.62,-280.78 1945.65,-287.71"/>
</g>
<!-- target:
 hold(left_hand, defaultgripper) -->
<g id="node5" class="node">
<title>target:
 hold(left_hand, defaultgripper)</title>
<ellipse fill="#ffec8b" stroke="black" cx="202.59" cy="-144" rx="202.68" ry="36"/>
<text text-anchor="middle" x="202.59" y="-149.6" font-family="Times,serif" font-size="18.00">target:</text>
<text text-anchor="middle" x="202.59" y="-129.6" font-family="Times,serif" font-size="18.00"> hold(left_hand, defaultgripper)</text>
</g>
<!-- selector:
 change_tool(left_hand, clampgripper, defaultgripper)&#45;&gt;target:
 hold(left_hand, defaultgripper) -->
<g id="edge4" class="edge">
<title>selector:
 change_tool(left_hand, clampgripper, defaultgripper)&#45;&gt;target:
 hold(left_hand, defaultgripper)</title>
<path fill="none" stroke="black" d="M520.04,-216.29C460.44,-202.91 392.94,-187.75 335.55,-174.86"/>
<polygon fill="black" stroke="black" points="336.22,-171.42 325.7,-172.65 334.69,-178.25 336.22,-171.42"/>
</g>
<!-- sequence:
 change_tool(left_hand, clampgripper, defaultgripper) -->
<g id="node6" class="node">
<title>sequence:
 change_tool(left_hand, clampgripper, defaultgripper)</title>
<polygon fill="#ff7f24" stroke="black" points="925.59,-180 423.59,-180 423.59,-108 925.59,-108 925.59,-180"/>
<text text-anchor="middle" x="674.59" y="-149.6" font-family="Times,serif" font-size="18.00">sequence:</text>
<text text-anchor="middle" x="674.59" y="-129.6" font-family="Times,serif" font-size="18.00"> change_tool(left_hand, clampgripper, defaultgripper)</text>
</g>
<!-- selector:
 change_tool(left_hand, clampgripper, defaultgripper)&#45;&gt;sequence:
 change_tool(left_hand, clampgripper, defaultgripper) -->
<g id="edge5" class="edge">
<title>selector:
 change_tool(left_hand, clampgripper, defaultgripper)&#45;&gt;sequence:
 change_tool(left_hand, clampgripper, defaultgripper)</title>
<path fill="none" stroke="black" d="M674.59,-216C674.59,-207.85 674.59,-199.06 674.59,-190.54"/>
<polygon fill="black" stroke="black" points="678.09,-190.33 674.59,-180.33 671.09,-190.33 678.09,-190.33"/>
</g>
<!-- precondition:
 hold(left_hand, clampgripper) -->
<g id="node7" class="node">
<title>precondition:
 hold(left_hand, clampgripper)</title>
<ellipse fill="#ffec8b" stroke="black" cx="262.59" cy="-36" rx="196.6" ry="36"/>
<text text-anchor="middle" x="262.59" y="-41.6" font-family="Times,serif" font-size="18.00">precondition:</text>
<text text-anchor="middle" x="262.59" y="-21.6" font-family="Times,serif" font-size="18.00"> hold(left_hand, clampgripper)</text>
</g>
<!-- sequence:
 change_tool(left_hand, clampgripper, defaultgripper)&#45;&gt;precondition:
 hold(left_hand, clampgripper) -->
<g id="edge6" class="edge">
<title>sequence:
 change_tool(left_hand, clampgripper, defaultgripper)&#45;&gt;precondition:
 hold(left_hand, clampgripper)</title>
<path fill="none" stroke="black" d="M538.54,-108C488.66,-95.16 432.56,-80.73 384.03,-68.25"/>
<polygon fill="black" stroke="black" points="384.67,-64.8 374.12,-65.69 382.93,-71.58 384.67,-64.8"/>
</g>
<!-- precondition:
 is_empty(clampgripper) -->
<g id="node8" class="node">
<title>precondition:
 is_empty(clampgripper)</title>
<ellipse fill="#ffec8b" stroke="black" cx="637.59" cy="-36" rx="160.15" ry="36"/>
<text text-anchor="middle" x="637.59" y="-41.6" font-family="Times,serif" font-size="18.00">precondition:</text>
<text text-anchor="middle" x="637.59" y="-21.6" font-family="Times,serif" font-size="18.00"> is_empty(clampgripper)</text>
</g>
<!-- sequence:
 change_tool(left_hand, clampgripper, defaultgripper)&#45;&gt;precondition:
 is_empty(clampgripper) -->
<g id="edge7" class="edge">
<title>sequence:
 change_tool(left_hand, clampgripper, defaultgripper)&#45;&gt;precondition:
 is_empty(clampgripper)</title>
<path fill="none" stroke="black" d="M662.37,-108C659.4,-99.5 656.19,-90.29 653.09,-81.42"/>
<polygon fill="black" stroke="black" points="656.39,-80.25 649.79,-71.97 649.78,-82.56 656.39,-80.25"/>
</g>
<!-- action:
 change_tool(left_hand, clampgripper, defaultgripper) -->
<g id="node9" class="node">
<title>action:
 change_tool(left_hand, clampgripper, defaultgripper)</title>
<ellipse fill="lightgreen" stroke="black" cx="1152.59" cy="-36" rx="336.5" ry="36"/>
<text text-anchor="middle" x="1152.59" y="-41.6" font-family="Times,serif" font-size="18.00">action:</text>
<text text-anchor="middle" x="1152.59" y="-21.6" font-family="Times,serif" font-size="18.00"> change_tool(left_hand, clampgripper, defaultgripper)</text>
</g>
<!-- sequence:
 change_tool(left_hand, clampgripper, defaultgripper)&#45;&gt;action:
 change_tool(left_hand, clampgripper, defaultgripper) -->
<g id="edge8" class="edge">
<title>sequence:
 change_tool(left_hand, clampgripper, defaultgripper)&#45;&gt;action:
 change_tool(left_hand, clampgripper, defaultgripper)</title>
<path fill="none" stroke="black" d="M832.43,-108C886.32,-96.05 946.45,-82.71 999.92,-70.85"/>
<polygon fill="black" stroke="black" points="1000.82,-74.24 1009.83,-68.66 999.31,-67.41 1000.82,-74.24"/>
</g>
<!-- target:
 hold(defaultgripper, chairleg2) -->
<g id="node11" class="node">
<title>target:
 hold(defaultgripper, chairleg2)</title>
<ellipse fill="#ffec8b" stroke="black" cx="1441.59" cy="-144" rx="201.49" ry="36"/>
<text text-anchor="middle" x="1441.59" y="-149.6" font-family="Times,serif" font-size="18.00">target:</text>
<text text-anchor="middle" x="1441.59" y="-129.6" font-family="Times,serif" font-size="18.00"> hold(defaultgripper, chairleg2)</text>
</g>
<!-- selector:
 pick_up(left_hand, defaultgripper, chairleg2)&#45;&gt;target:
 hold(defaultgripper, chairleg2) -->
<g id="edge10" class="edge">
<title>selector:
 pick_up(left_hand, defaultgripper, chairleg2)&#45;&gt;target:
 hold(defaultgripper, chairleg2)</title>
<path fill="none" stroke="black" d="M1441.59,-216C1441.59,-207.85 1441.59,-199.06 1441.59,-190.54"/>
<polygon fill="black" stroke="black" points="1445.09,-190.33 1441.59,-180.33 1438.09,-190.33 1445.09,-190.33"/>
</g>
<!-- sequence:
 pick_up(left_hand, defaultgripper, chairleg2) -->
<g id="node12" class="node">
<title>sequence:
 pick_up(left_hand, defaultgripper, chairleg2)</title>
<polygon fill="#ff7f24" stroke="black" points="2236.09,-180 1809.09,-180 1809.09,-108 2236.09,-108 2236.09,-180"/>
<text text-anchor="middle" x="2022.59" y="-149.6" font-family="Times,serif" font-size="18.00">sequence:</text>
<text text-anchor="middle" x="2022.59" y="-129.6" font-family="Times,serif" font-size="18.00"> pick_up(left_hand, defaultgripper, chairleg2)</text>
</g>
<!-- selector:
 pick_up(left_hand, defaultgripper, chairleg2)&#45;&gt;sequence:
 pick_up(left_hand, defaultgripper, chairleg2) -->
<g id="edge11" class="edge">
<title>selector:
 pick_up(left_hand, defaultgripper, chairleg2)&#45;&gt;sequence:
 pick_up(left_hand, defaultgripper, chairleg2)</title>
<path fill="none" stroke="black" d="M1608.86,-220.48C1674.92,-208.43 1751.41,-194.47 1820.53,-181.86"/>
<polygon fill="black" stroke="black" points="1821.46,-185.25 1830.67,-180.01 1820.2,-178.37 1821.46,-185.25"/>
</g>
<!-- precondition:
 is_empty(defaultgripper) -->
<g id="node13" class="node">
<title>precondition:
 is_empty(defaultgripper)</title>
<ellipse fill="#ffec8b" stroke="black" cx="1673.59" cy="-36" rx="166.23" ry="36"/>
<text text-anchor="middle" x="1673.59" y="-41.6" font-family="Times,serif" font-size="18.00">precondition:</text>
<text text-anchor="middle" x="1673.59" y="-21.6" font-family="Times,serif" font-size="18.00"> is_empty(defaultgripper)</text>
</g>
<!-- sequence:
 pick_up(left_hand, defaultgripper, chairleg2)&#45;&gt;precondition:
 is_empty(defaultgripper) -->
<g id="edge12" class="edge">
<title>sequence:
 pick_up(left_hand, defaultgripper, chairleg2)&#45;&gt;precondition:
 is_empty(defaultgripper)</title>
<path fill="none" stroke="black" d="M1907.34,-108C1865.53,-95.3 1818.56,-81.03 1777.75,-68.64"/>
<polygon fill="black" stroke="black" points="1778.65,-65.25 1768.06,-65.69 1776.61,-71.95 1778.65,-65.25"/>
</g>
<!-- precondition:
 hold(left_hand, defaultgripper) -->
<g id="node14" class="node">
<title>precondition:
 hold(left_hand, defaultgripper)</title>
<ellipse fill="#ffec8b" stroke="black" cx="2060.59" cy="-36" rx="202.68" ry="36"/>
<text text-anchor="middle" x="2060.59" y="-41.6" font-family="Times,serif" font-size="18.00">precondition:</text>
<text text-anchor="middle" x="2060.59" y="-21.6" font-family="Times,serif" font-size="18.00"> hold(left_hand, defaultgripper)</text>
</g>
<!-- sequence:
 pick_up(left_hand, defaultgripper, chairleg2)&#45;&gt;precondition:
 hold(left_hand, defaultgripper) -->
<g id="edge13" class="edge">
<title>sequence:
 pick_up(left_hand, defaultgripper, chairleg2)&#45;&gt;precondition:
 hold(left_hand, defaultgripper)</title>
<path fill="none" stroke="black" d="M2035.14,-108C2038.18,-99.5 2041.48,-90.29 2044.66,-81.42"/>
<polygon fill="black" stroke="black" points="2047.97,-82.56 2048.05,-71.97 2041.38,-80.2 2047.97,-82.56"/>
</g>
<!-- action:
 pick_up(left_hand, defaultgripper, chairleg2) -->
<g id="node15" class="node">
<title>action:
 pick_up(left_hand, defaultgripper, chairleg2)</title>
<ellipse fill="lightgreen" stroke="black" cx="2567.59" cy="-36" rx="286.38" ry="36"/>
<text text-anchor="middle" x="2567.59" y="-41.6" font-family="Times,serif" font-size="18.00">action:</text>
<text text-anchor="middle" x="2567.59" y="-21.6" font-family="Times,serif" font-size="18.00"> pick_up(left_hand, defaultgripper, chairleg2)</text>
</g>
<!-- sequence:
 pick_up(left_hand, defaultgripper, chairleg2)&#45;&gt;action:
 pick_up(left_hand, defaultgripper, chairleg2) -->
<g id="edge14" class="edge">
<title>sequence:
 pick_up(left_hand, defaultgripper, chairleg2)&#45;&gt;action:
 pick_up(left_hand, defaultgripper, chairleg2)</title>
<path fill="none" stroke="black" d="M2202.55,-108C2268.03,-95.26 2341.61,-80.95 2405.45,-68.53"/>
<polygon fill="black" stroke="black" points="2406.47,-71.9 2415.62,-66.56 2405.13,-65.03 2406.47,-71.9"/>
</g>
</g>
</svg>
