<?xml version="1.0" encoding="UTF-8" standalone="no"?>
<!DOCTYPE svg PUBLIC "-//W3C//DTD SVG 1.1//EN"
 "http://www.w3.org/Graphics/SVG/1.1/DTD/svg11.dtd">
<!-- Generated by graphviz version 2.43.0 (0)
 -->
<!-- Title: pastafarianism Pages: 1 -->
<svg width="7661pt" height="929pt"
 viewBox="0.00 0.00 7660.85 929.31" xmlns="http://www.w3.org/2000/svg" xmlns:xlink="http://www.w3.org/1999/xlink">
<g id="graph0" class="graph" transform="scale(1 1) rotate(0) translate(4 925.31)">
<title>pastafarianism</title>
<polygon fill="white" stroke="transparent" points="-4,4 -4,-925.31 7656.85,-925.31 7656.85,4 -4,4"/>
<!-- selector:
 insert(left_hand, clampgripper, shaft1, gearbase_hole1) -->
<g id="node1" class="node">
<title>selector:
 insert(left_hand, clampgripper, shaft1, gearbase_hole1)</title>
<polygon fill="#8deeee" stroke="black" points="2606.43,-869.26 2606.43,-899.89 2371.47,-921.55 2039.18,-921.55 1804.22,-899.89 1804.22,-869.26 2039.18,-847.6 2371.47,-847.6 2606.43,-869.26"/>
<text text-anchor="middle" x="2205.32" y="-890.17" font-family="Times,serif" font-size="18.00">selector:</text>
<text text-anchor="middle" x="2205.32" y="-870.17" font-family="Times,serif" font-size="18.00"> insert(left_hand, clampgripper, shaft1, gearbase_hole1)</text>
</g>
<!-- target:
 is_inserted_to(shaft1, gearbase_hole1) -->
<g id="node2" class="node">
<title>target:
 is_inserted_to(shaft1, gearbase_hole1)</title>
<ellipse fill="#ffec8b" stroke="black" cx="1934.32" cy="-777.9" rx="261.76" ry="33.88"/>
<text text-anchor="middle" x="1934.32" y="-783.5" font-family="Times,serif" font-size="18.00">target:</text>
<text text-anchor="middle" x="1934.32" y="-763.5" font-family="Times,serif" font-size="18.00"> is_inserted_to(shaft1, gearbase_hole1)</text>
</g>
<!-- selector:
 insert(left_hand, clampgripper, shaft1, gearbase_hole1)&#45;&gt;target:
 is_inserted_to(shaft1, gearbase_hole1) -->
<g id="edge1" class="edge">
<title>selector:
 insert(left_hand, clampgripper, shaft1, gearbase_hole1)&#45;&gt;target:
 is_inserted_to(shaft1, gearbase_hole1)</title>
<path fill="none" stroke="black" d="M2112.44,-847.7C2084.08,-836.74 2052.95,-824.72 2024.76,-813.83"/>
<polygon fill="black" stroke="black" points="2025.91,-810.52 2015.32,-810.18 2023.39,-817.05 2025.91,-810.52"/>
</g>
<!-- sequence:
 insert(left_hand, clampgripper, shaft1, gearbase_hole1) -->
<g id="node3" class="node">
<title>sequence:
 insert(left_hand, clampgripper, shaft1, gearbase_hole1)</title>
<polygon fill="#ff7f24" stroke="black" points="2738.32,-801.9 2214.32,-801.9 2214.32,-753.9 2738.32,-753.9 2738.32,-801.9"/>
<text text-anchor="middle" x="2476.32" y="-783.5" font-family="Times,serif" font-size="18.00">sequence:</text>
<text text-anchor="middle" x="2476.32" y="-763.5" font-family="Times,serif" font-size="18.00"> insert(left_hand, clampgripper, shaft1, gearbase_hole1)</text>
</g>
<!-- selector:
 insert(left_hand, clampgripper, shaft1, gearbase_hole1)&#45;&gt;sequence:
 insert(left_hand, clampgripper, shaft1, gearbase_hole1) -->
<g id="edge2" class="edge">
<title>selector:
 insert(left_hand, clampgripper, shaft1, gearbase_hole1)&#45;&gt;sequence:
 insert(left_hand, clampgripper, shaft1, gearbase_hole1)</title>
<path fill="none" stroke="black" d="M2298.21,-847.7C2333.91,-833.91 2374,-818.42 2407.1,-805.64"/>
<polygon fill="black" stroke="black" points="2408.62,-808.8 2416.68,-801.93 2406.1,-802.27 2408.62,-808.8"/>
</g>
<!-- selector:
 change_tool(left_hand, outwardgripper, clampgripper) -->
<g id="node4" class="node">
<title>selector:
 change_tool(left_hand, outwardgripper, clampgripper)</title>
<polygon fill="#8deeee" stroke="black" points="1256.09,-655.9 1256.09,-686.53 1026.01,-708.19 700.64,-708.19 470.56,-686.53 470.56,-655.9 700.64,-634.24 1026.01,-634.24 1256.09,-655.9"/>
<text text-anchor="middle" x="863.32" y="-676.82" font-family="Times,serif" font-size="18.00">selector:</text>
<text text-anchor="middle" x="863.32" y="-656.82" font-family="Times,serif" font-size="18.00"> change_tool(left_hand, outwardgripper, clampgripper)</text>
</g>
<!-- sequence:
 insert(left_hand, clampgripper, shaft1, gearbase_hole1)&#45;&gt;selector:
 change_tool(left_hand, outwardgripper, clampgripper) -->
<g id="edge3" class="edge">
<title>sequence:
 insert(left_hand, clampgripper, shaft1, gearbase_hole1)&#45;&gt;selector:
 change_tool(left_hand, outwardgripper, clampgripper)</title>
<path fill="none" stroke="black" d="M2301.57,-753.9C2269.59,-750.19 2236.49,-746.68 2205.32,-743.95 2110.7,-735.68 1593.4,-708.91 1229.47,-690.51"/>
<polygon fill="black" stroke="black" points="1229.45,-687.01 1219.29,-690 1229.1,-694 1229.45,-687.01"/>
</g>
<!-- selector:
 pick_up(left_hand, clampgripper, shaft1) -->
<g id="node10" class="node">
<title>selector:
 pick_up(left_hand, clampgripper, shaft1)</title>
<polygon fill="#8deeee" stroke="black" points="2199.28,-655.9 2199.28,-686.53 2024.74,-708.19 1777.91,-708.19 1603.37,-686.53 1603.37,-655.9 1777.91,-634.24 2024.74,-634.24 2199.28,-655.9"/>
<text text-anchor="middle" x="1901.32" y="-676.82" font-family="Times,serif" font-size="18.00">selector:</text>
<text text-anchor="middle" x="1901.32" y="-656.82" font-family="Times,serif" font-size="18.00"> pick_up(left_hand, clampgripper, shaft1)</text>
</g>
<!-- sequence:
 insert(left_hand, clampgripper, shaft1, gearbase_hole1)&#45;&gt;selector:
 pick_up(left_hand, clampgripper, shaft1) -->
<g id="edge9" class="edge">
<title>sequence:
 insert(left_hand, clampgripper, shaft1, gearbase_hole1)&#45;&gt;selector:
 pick_up(left_hand, clampgripper, shaft1)</title>
<path fill="none" stroke="black" d="M2349.78,-753.86C2270.35,-739.4 2166.72,-720.53 2079.09,-704.58"/>
<polygon fill="black" stroke="black" points="2079.5,-701.1 2069.04,-702.75 2078.25,-707.98 2079.5,-701.1"/>
</g>
<!-- precondition:
 can_manipulate(clampgripper, shaft1) -->
<g id="node16" class="node">
<title>precondition:
 can_manipulate(clampgripper, shaft1)</title>
<ellipse fill="#ffec8b" stroke="black" cx="2476.32" cy="-671.22" rx="258.6" ry="33.88"/>
<text text-anchor="middle" x="2476.32" y="-676.82" font-family="Times,serif" font-size="18.00">precondition:</text>
<text text-anchor="middle" x="2476.32" y="-656.82" font-family="Times,serif" font-size="18.00"> can_manipulate(clampgripper, shaft1)</text>
</g>
<!-- sequence:
 insert(left_hand, clampgripper, shaft1, gearbase_hole1)&#45;&gt;precondition:
 can_manipulate(clampgripper, shaft1) -->
<g id="edge15" class="edge">
<title>sequence:
 insert(left_hand, clampgripper, shaft1, gearbase_hole1)&#45;&gt;precondition:
 can_manipulate(clampgripper, shaft1)</title>
<path fill="none" stroke="black" d="M2476.32,-753.66C2476.32,-742.45 2476.32,-728.62 2476.32,-715.56"/>
<polygon fill="black" stroke="black" points="2479.82,-715.31 2476.32,-705.31 2472.82,-715.31 2479.82,-715.31"/>
</g>
<!-- &quot;selector:\n insert(left_hand, clampgripper, shaft1, gearbase_hole1)&quot;* -->
<g id="node17" class="node">
<title>&quot;selector:\n insert(left_hand, clampgripper, shaft1, gearbase_hole1)&quot;*</title>
<polygon fill="#8deeee" stroke="black" points="3582.98,-655.9 3582.98,-686.53 3340.08,-708.19 2996.57,-708.19 2753.67,-686.53 2753.67,-655.9 2996.57,-634.24 3340.08,-634.24 3582.98,-655.9"/>
<text text-anchor="middle" x="3168.32" y="-676.82" font-family="Times,serif" font-size="18.00">&quot;selector:</text>
<text text-anchor="middle" x="3168.32" y="-656.82" font-family="Times,serif" font-size="18.00"> insert(left_hand, clampgripper, shaft1, gearbase_hole1)&quot;*</text>
</g>
<!-- sequence:
 insert(left_hand, clampgripper, shaft1, gearbase_hole1)&#45;&gt;&quot;selector:\n insert(left_hand, clampgripper, shaft1, gearbase_hole1)&quot;* -->
<g id="edge16" class="edge">
<title>sequence:
 insert(left_hand, clampgripper, shaft1, gearbase_hole1)&#45;&gt;&quot;selector:\n insert(left_hand, clampgripper, shaft1, gearbase_hole1)&quot;*</title>
<path fill="none" stroke="black" d="M2628.61,-753.86C2721.33,-739.83 2841.42,-721.67 2944.78,-706.03"/>
<polygon fill="black" stroke="black" points="2945.36,-709.48 2954.72,-704.53 2944.31,-702.56 2945.36,-709.48"/>
</g>
<!-- &quot;action:\n insert(left_hand, clampgripper, shaft1, gearbase_hole1)&quot;*** -->
<g id="node39" class="node">
<title>&quot;action:\n insert(left_hand, clampgripper, shaft1, gearbase_hole1)&quot;***</title>
<ellipse fill="lightgreen" stroke="black" cx="3997.32" cy="-671.22" rx="395.96" ry="33.88"/>
<text text-anchor="middle" x="3997.32" y="-676.82" font-family="Times,serif" font-size="18.00">&quot;action:</text>
<text text-anchor="middle" x="3997.32" y="-656.82" font-family="Times,serif" font-size="18.00"> insert(left_hand, clampgripper, shaft1, gearbase_hole1)&quot;***</text>
</g>
<!-- sequence:
 insert(left_hand, clampgripper, shaft1, gearbase_hole1)&#45;&gt;&quot;action:\n insert(left_hand, clampgripper, shaft1, gearbase_hole1)&quot;*** -->
<g id="edge38" class="edge">
<title>sequence:
 insert(left_hand, clampgripper, shaft1, gearbase_hole1)&#45;&gt;&quot;action:\n insert(left_hand, clampgripper, shaft1, gearbase_hole1)&quot;***</title>
<path fill="none" stroke="black" d="M2738.59,-762.65C2964.83,-749.89 3300.27,-729.86 3592.32,-707.95 3634.61,-704.78 3679.35,-701.13 3723.06,-697.4"/>
<polygon fill="black" stroke="black" points="3723.59,-700.87 3733.26,-696.53 3722.99,-693.9 3723.59,-700.87"/>
</g>
<!-- target:
 hold(left_hand, clampgripper) -->
<g id="node5" class="node">
<title>target:
 hold(left_hand, clampgripper)</title>
<ellipse fill="#ffec8b" stroke="black" cx="381.32" cy="-564.54" rx="207.36" ry="33.88"/>
<text text-anchor="middle" x="381.32" y="-570.14" font-family="Times,serif" font-size="18.00">target:</text>
<text text-anchor="middle" x="381.32" y="-550.14" font-family="Times,serif" font-size="18.00"> hold(left_hand, clampgripper)</text>
</g>
<!-- selector:
 change_tool(left_hand, outwardgripper, clampgripper)&#45;&gt;target:
 hold(left_hand, clampgripper) -->
<g id="edge4" class="edge">
<title>selector:
 change_tool(left_hand, outwardgripper, clampgripper)&#45;&gt;target:
 hold(left_hand, clampgripper)</title>
<path fill="none" stroke="black" d="M698.46,-634.41C638.03,-621.29 570.47,-606.62 513.3,-594.2"/>
<polygon fill="black" stroke="black" points="514,-590.77 503.48,-592.07 512.51,-597.61 514,-590.77"/>
</g>
<!-- sequence:
 change_tool(left_hand, outwardgripper, clampgripper) -->
<g id="node6" class="node">
<title>sequence:
 change_tool(left_hand, outwardgripper, clampgripper)</title>
<polygon fill="#ff7f24" stroke="black" points="1119.82,-588.54 606.82,-588.54 606.82,-540.54 1119.82,-540.54 1119.82,-588.54"/>
<text text-anchor="middle" x="863.32" y="-570.14" font-family="Times,serif" font-size="18.00">sequence:</text>
<text text-anchor="middle" x="863.32" y="-550.14" font-family="Times,serif" font-size="18.00"> change_tool(left_hand, outwardgripper, clampgripper)</text>
</g>
<!-- selector:
 change_tool(left_hand, outwardgripper, clampgripper)&#45;&gt;sequence:
 change_tool(left_hand, outwardgripper, clampgripper) -->
<g id="edge5" class="edge">
<title>selector:
 change_tool(left_hand, outwardgripper, clampgripper)&#45;&gt;sequence:
 change_tool(left_hand, outwardgripper, clampgripper)</title>
<path fill="none" stroke="black" d="M863.32,-634.19C863.32,-622.81 863.32,-610.28 863.32,-599.08"/>
<polygon fill="black" stroke="black" points="866.82,-598.82 863.32,-588.82 859.82,-598.82 866.82,-598.82"/>
</g>
<!-- precondition:
 hold(left_hand, outwardgripper) -->
<g id="node7" class="node">
<title>precondition:
 hold(left_hand, outwardgripper)</title>
<ellipse fill="#ffec8b" stroke="black" cx="221.32" cy="-457.86" rx="221.15" ry="33.88"/>
<text text-anchor="middle" x="221.32" y="-463.46" font-family="Times,serif" font-size="18.00">precondition:</text>
<text text-anchor="middle" x="221.32" y="-443.46" font-family="Times,serif" font-size="18.00"> hold(left_hand, outwardgripper)</text>
</g>
<!-- sequence:
 change_tool(left_hand, outwardgripper, clampgripper)&#45;&gt;precondition:
 hold(left_hand, outwardgripper) -->
<g id="edge6" class="edge">
<title>sequence:
 change_tool(left_hand, outwardgripper, clampgripper)&#45;&gt;precondition:
 hold(left_hand, outwardgripper)</title>
<path fill="none" stroke="black" d="M722.04,-540.5C620.91,-524.01 484.68,-501.8 379.84,-484.71"/>
<polygon fill="black" stroke="black" points="380.23,-481.22 369.8,-483.07 379.11,-488.13 380.23,-481.22"/>
</g>
<!-- precondition:
 is_empty(outwardgripper) -->
<g id="node8" class="node">
<title>precondition:
 is_empty(outwardgripper)</title>
<ellipse fill="#ffec8b" stroke="black" cx="643.32" cy="-457.86" rx="183.28" ry="33.88"/>
<text text-anchor="middle" x="643.32" y="-463.46" font-family="Times,serif" font-size="18.00">precondition:</text>
<text text-anchor="middle" x="643.32" y="-443.46" font-family="Times,serif" font-size="18.00"> is_empty(outwardgripper)</text>
</g>
<!-- sequence:
 change_tool(left_hand, outwardgripper, clampgripper)&#45;&gt;precondition:
 is_empty(outwardgripper) -->
<g id="edge7" class="edge">
<title>sequence:
 change_tool(left_hand, outwardgripper, clampgripper)&#45;&gt;precondition:
 is_empty(outwardgripper)</title>
<path fill="none" stroke="black" d="M814.77,-540.44C786.21,-526.85 749.51,-509.38 717.4,-494.1"/>
<polygon fill="black" stroke="black" points="718.57,-490.79 708.04,-489.65 715.56,-497.11 718.57,-490.79"/>
</g>
<!-- action:
 change_tool(left_hand, outwardgripper, clampgripper) -->
<g id="node9" class="node">
<title>action:
 change_tool(left_hand, outwardgripper, clampgripper)</title>
<ellipse fill="lightgreen" stroke="black" cx="1207.32" cy="-457.86" rx="362.99" ry="33.88"/>
<text text-anchor="middle" x="1207.32" y="-463.46" font-family="Times,serif" font-size="18.00">action:</text>
<text text-anchor="middle" x="1207.32" y="-443.46" font-family="Times,serif" font-size="18.00"> change_tool(left_hand, outwardgripper, clampgripper)</text>
</g>
<!-- sequence:
 change_tool(left_hand, outwardgripper, clampgripper)&#45;&gt;action:
 change_tool(left_hand, outwardgripper, clampgripper) -->
<g id="edge8" class="edge">
<title>sequence:
 change_tool(left_hand, outwardgripper, clampgripper)&#45;&gt;action:
 change_tool(left_hand, outwardgripper, clampgripper)</title>
<path fill="none" stroke="black" d="M939.24,-540.44C984.6,-526.64 1043.08,-508.84 1093.84,-493.39"/>
<polygon fill="black" stroke="black" points="1095,-496.7 1103.55,-490.44 1092.96,-490 1095,-496.7"/>
</g>
<!-- target:
 hold(clampgripper, shaft1) -->
<g id="node11" class="node">
<title>target:
 hold(clampgripper, shaft1)</title>
<ellipse fill="#ffec8b" stroke="black" cx="1791.32" cy="-564.54" rx="185.94" ry="33.88"/>
<text text-anchor="middle" x="1791.32" y="-570.14" font-family="Times,serif" font-size="18.00">target:</text>
<text text-anchor="middle" x="1791.32" y="-550.14" font-family="Times,serif" font-size="18.00"> hold(clampgripper, shaft1)</text>
</g>
<!-- selector:
 pick_up(left_hand, clampgripper, shaft1)&#45;&gt;target:
 hold(clampgripper, shaft1) -->
<g id="edge10" class="edge">
<title>selector:
 pick_up(left_hand, clampgripper, shaft1)&#45;&gt;target:
 hold(clampgripper, shaft1)</title>
<path fill="none" stroke="black" d="M1863.47,-634.19C1853.66,-624.86 1843.05,-614.76 1833.06,-605.25"/>
<polygon fill="black" stroke="black" points="1835.22,-602.48 1825.56,-598.12 1830.39,-607.55 1835.22,-602.48"/>
</g>
<!-- sequence:
 pick_up(left_hand, clampgripper, shaft1) -->
<g id="node12" class="node">
<title>sequence:
 pick_up(left_hand, clampgripper, shaft1)</title>
<polygon fill="#ff7f24" stroke="black" points="2383.82,-588.54 1994.82,-588.54 1994.82,-540.54 2383.82,-540.54 2383.82,-588.54"/>
<text text-anchor="middle" x="2189.32" y="-570.14" font-family="Times,serif" font-size="18.00">sequence:</text>
<text text-anchor="middle" x="2189.32" y="-550.14" font-family="Times,serif" font-size="18.00"> pick_up(left_hand, clampgripper, shaft1)</text>
</g>
<!-- selector:
 pick_up(left_hand, clampgripper, shaft1)&#45;&gt;sequence:
 pick_up(left_hand, clampgripper, shaft1) -->
<g id="edge11" class="edge">
<title>selector:
 pick_up(left_hand, clampgripper, shaft1)&#45;&gt;sequence:
 pick_up(left_hand, clampgripper, shaft1)</title>
<path fill="none" stroke="black" d="M2000.03,-634.34C2038.14,-620.49 2080.95,-604.93 2116.21,-592.11"/>
<polygon fill="black" stroke="black" points="2117.74,-595.28 2125.94,-588.58 2115.35,-588.7 2117.74,-595.28"/>
</g>
<!-- precondition:
 hold(left_hand, clampgripper) -->
<g id="node13" class="node">
<title>precondition:
 hold(left_hand, clampgripper)</title>
<ellipse fill="#ffec8b" stroke="black" cx="1795.32" cy="-457.86" rx="207.36" ry="33.88"/>
<text text-anchor="middle" x="1795.32" y="-463.46" font-family="Times,serif" font-size="18.00">precondition:</text>
<text text-anchor="middle" x="1795.32" y="-443.46" font-family="Times,serif" font-size="18.00"> hold(left_hand, clampgripper)</text>
</g>
<!-- sequence:
 pick_up(left_hand, clampgripper, shaft1)&#45;&gt;precondition:
 hold(left_hand, clampgripper) -->
<g id="edge12" class="edge">
<title>sequence:
 pick_up(left_hand, clampgripper, shaft1)&#45;&gt;precondition:
 hold(left_hand, clampgripper)</title>
<path fill="none" stroke="black" d="M2102.37,-540.44C2046.12,-525.49 1972.24,-505.86 1911.05,-489.61"/>
<polygon fill="black" stroke="black" points="1911.91,-486.21 1901.34,-487.03 1910.11,-492.98 1911.91,-486.21"/>
</g>
<!-- precondition:
 is_empty(clampgripper) -->
<g id="node14" class="node">
<title>precondition:
 is_empty(clampgripper)</title>
<ellipse fill="#ffec8b" stroke="black" cx="2189.32" cy="-457.86" rx="169" ry="33.88"/>
<text text-anchor="middle" x="2189.32" y="-463.46" font-family="Times,serif" font-size="18.00">precondition:</text>
<text text-anchor="middle" x="2189.32" y="-443.46" font-family="Times,serif" font-size="18.00"> is_empty(clampgripper)</text>
</g>
<!-- sequence:
 pick_up(left_hand, clampgripper, shaft1)&#45;&gt;precondition:
 is_empty(clampgripper) -->
<g id="edge13" class="edge">
<title>sequence:
 pick_up(left_hand, clampgripper, shaft1)&#45;&gt;precondition:
 is_empty(clampgripper)</title>
<path fill="none" stroke="black" d="M2189.32,-540.31C2189.32,-529.09 2189.32,-515.26 2189.32,-502.2"/>
<polygon fill="black" stroke="black" points="2192.82,-501.95 2189.32,-491.95 2185.82,-501.95 2192.82,-501.95"/>
</g>
<!-- action:
 pick_up(left_hand, clampgripper, shaft1) -->
<g id="node15" class="node">
<title>action:
 pick_up(left_hand, clampgripper, shaft1)</title>
<ellipse fill="lightgreen" stroke="black" cx="2651.32" cy="-457.86" rx="275.13" ry="33.88"/>
<text text-anchor="middle" x="2651.32" y="-463.46" font-family="Times,serif" font-size="18.00">action:</text>
<text text-anchor="middle" x="2651.32" y="-443.46" font-family="Times,serif" font-size="18.00"> pick_up(left_hand, clampgripper, shaft1)</text>
</g>
<!-- sequence:
 pick_up(left_hand, clampgripper, shaft1)&#45;&gt;action:
 pick_up(left_hand, clampgripper, shaft1) -->
<g id="edge14" class="edge">
<title>sequence:
 pick_up(left_hand, clampgripper, shaft1)&#45;&gt;action:
 pick_up(left_hand, clampgripper, shaft1)</title>
<path fill="none" stroke="black" d="M2291,-540.5C2356.21,-525.73 2441.71,-506.35 2513.06,-490.19"/>
<polygon fill="black" stroke="black" points="2514.05,-493.55 2523.03,-487.93 2512.5,-486.73 2514.05,-493.55"/>
</g>
<!-- &quot;target:\n is_inserted_to(shaft1, gearbase_hole1)&quot;* -->
<g id="node18" class="node">
<title>&quot;target:\n is_inserted_to(shaft1, gearbase_hole1)&quot;*</title>
<ellipse fill="#ffec8b" stroke="black" cx="3168.32" cy="-564.54" rx="273.8" ry="33.88"/>
<text text-anchor="middle" x="3168.32" y="-570.14" font-family="Times,serif" font-size="18.00">&quot;target:</text>
<text text-anchor="middle" x="3168.32" y="-550.14" font-family="Times,serif" font-size="18.00"> is_inserted_to(shaft1, gearbase_hole1)&quot;*</text>
</g>
<!-- &quot;selector:\n insert(left_hand, clampgripper, shaft1, gearbase_hole1)&quot;*&#45;&gt;&quot;target:\n is_inserted_to(shaft1, gearbase_hole1)&quot;* -->
<g id="edge17" class="edge">
<title>&quot;selector:\n insert(left_hand, clampgripper, shaft1, gearbase_hole1)&quot;*&#45;&gt;&quot;target:\n is_inserted_to(shaft1, gearbase_hole1)&quot;*</title>
<path fill="none" stroke="black" d="M3168.32,-634.19C3168.32,-626.04 3168.32,-617.29 3168.32,-608.87"/>
<polygon fill="black" stroke="black" points="3171.82,-608.81 3168.32,-598.81 3164.82,-608.81 3171.82,-608.81"/>
</g>
<!-- &quot;sequence:\n insert(left_hand, clampgripper, shaft1, gearbase_hole1)&quot;* -->
<g id="node19" class="node">
<title>&quot;sequence:\n insert(left_hand, clampgripper, shaft1, gearbase_hole1)&quot;*</title>
<polygon fill="#ff7f24" stroke="black" points="4222.32,-588.54 3680.32,-588.54 3680.32,-540.54 4222.32,-540.54 4222.32,-588.54"/>
<text text-anchor="middle" x="3951.32" y="-570.14" font-family="Times,serif" font-size="18.00">&quot;sequence:</text>
<text text-anchor="middle" x="3951.32" y="-550.14" font-family="Times,serif" font-size="18.00"> insert(left_hand, clampgripper, shaft1, gearbase_hole1)&quot;*</text>
</g>
<!-- &quot;selector:\n insert(left_hand, clampgripper, shaft1, gearbase_hole1)&quot;*&#45;&gt;&quot;sequence:\n insert(left_hand, clampgripper, shaft1, gearbase_hole1)&quot;* -->
<g id="edge18" class="edge">
<title>&quot;selector:\n insert(left_hand, clampgripper, shaft1, gearbase_hole1)&quot;*&#45;&gt;&quot;sequence:\n insert(left_hand, clampgripper, shaft1, gearbase_hole1)&quot;*</title>
<path fill="none" stroke="black" d="M3398.49,-639.45C3516.74,-623.64 3658.79,-604.65 3769.29,-589.88"/>
<polygon fill="black" stroke="black" points="3769.75,-593.34 3779.2,-588.55 3768.83,-586.41 3769.75,-593.34"/>
</g>
<!-- &quot;precondition:\n hold(left_hand, clampgripper)&quot;* -->
<g id="node20" class="node">
<title>&quot;precondition:\n hold(left_hand, clampgripper)&quot;*</title>
<ellipse fill="#ffec8b" stroke="black" cx="3163.32" cy="-457.86" rx="219.41" ry="33.88"/>
<text text-anchor="middle" x="3163.32" y="-463.46" font-family="Times,serif" font-size="18.00">&quot;precondition:</text>
<text text-anchor="middle" x="3163.32" y="-443.46" font-family="Times,serif" font-size="18.00"> hold(left_hand, clampgripper)&quot;*</text>
</g>
<!-- &quot;sequence:\n insert(left_hand, clampgripper, shaft1, gearbase_hole1)&quot;*&#45;&gt;&quot;precondition:\n hold(left_hand, clampgripper)&quot;* -->
<g id="edge19" class="edge">
<title>&quot;sequence:\n insert(left_hand, clampgripper, shaft1, gearbase_hole1)&quot;*&#45;&gt;&quot;precondition:\n hold(left_hand, clampgripper)&quot;*</title>
<path fill="none" stroke="black" d="M3751.22,-540.53C3644.31,-527.82 3510.53,-511.27 3391.32,-494.6 3368.84,-491.45 3345.15,-487.95 3321.87,-484.4"/>
<polygon fill="black" stroke="black" points="3322.34,-480.93 3311.93,-482.88 3321.28,-487.85 3322.34,-480.93"/>
</g>
<!-- precondition:
 hold(clampgripper, shaft1) -->
<g id="node21" class="node">
<title>precondition:
 hold(clampgripper, shaft1)</title>
<ellipse fill="#ffec8b" stroke="black" cx="3586.32" cy="-457.86" rx="185.94" ry="33.88"/>
<text text-anchor="middle" x="3586.32" y="-463.46" font-family="Times,serif" font-size="18.00">precondition:</text>
<text text-anchor="middle" x="3586.32" y="-443.46" font-family="Times,serif" font-size="18.00"> hold(clampgripper, shaft1)</text>
</g>
<!-- &quot;sequence:\n insert(left_hand, clampgripper, shaft1, gearbase_hole1)&quot;*&#45;&gt;precondition:
 hold(clampgripper, shaft1) -->
<g id="edge20" class="edge">
<title>&quot;sequence:\n insert(left_hand, clampgripper, shaft1, gearbase_hole1)&quot;*&#45;&gt;precondition:
 hold(clampgripper, shaft1)</title>
<path fill="none" stroke="black" d="M3870.77,-540.44C3818.68,-525.5 3750.26,-505.88 3693.59,-489.62"/>
<polygon fill="black" stroke="black" points="3694.45,-486.23 3683.87,-486.84 3692.52,-492.96 3694.45,-486.23"/>
</g>
<!-- &quot;precondition:\n can_manipulate(clampgripper, shaft1)&quot;* -->
<g id="node22" class="node">
<title>&quot;precondition:\n can_manipulate(clampgripper, shaft1)&quot;*</title>
<ellipse fill="#ffec8b" stroke="black" cx="4061.32" cy="-457.86" rx="270.64" ry="33.88"/>
<text text-anchor="middle" x="4061.32" y="-463.46" font-family="Times,serif" font-size="18.00">&quot;precondition:</text>
<text text-anchor="middle" x="4061.32" y="-443.46" font-family="Times,serif" font-size="18.00"> can_manipulate(clampgripper, shaft1)&quot;*</text>
</g>
<!-- &quot;sequence:\n insert(left_hand, clampgripper, shaft1, gearbase_hole1)&quot;*&#45;&gt;&quot;precondition:\n can_manipulate(clampgripper, shaft1)&quot;* -->
<g id="edge21" class="edge">
<title>&quot;sequence:\n insert(left_hand, clampgripper, shaft1, gearbase_hole1)&quot;*&#45;&gt;&quot;precondition:\n can_manipulate(clampgripper, shaft1)&quot;*</title>
<path fill="none" stroke="black" d="M3975.74,-540.31C3988.57,-528.1 4004.65,-512.79 4019.4,-498.76"/>
<polygon fill="black" stroke="black" points="4022.14,-500.98 4026.97,-491.55 4017.31,-495.91 4022.14,-500.98"/>
</g>
<!-- &quot;selector:\n insert(left_hand, clampgripper, shaft1, gearbase_hole1)&quot;** -->
<g id="node23" class="node">
<title>&quot;selector:\n insert(left_hand, clampgripper, shaft1, gearbase_hole1)&quot;**</title>
<polygon fill="#8deeee" stroke="black" points="5194.26,-442.54 5194.26,-473.18 4947.1,-494.84 4597.55,-494.84 4350.39,-473.18 4350.39,-442.54 4597.55,-420.88 4947.1,-420.88 5194.26,-442.54"/>
<text text-anchor="middle" x="4772.32" y="-463.46" font-family="Times,serif" font-size="18.00">&quot;selector:</text>
<text text-anchor="middle" x="4772.32" y="-443.46" font-family="Times,serif" font-size="18.00"> insert(left_hand, clampgripper, shaft1, gearbase_hole1)&quot;**</text>
</g>
<!-- &quot;sequence:\n insert(left_hand, clampgripper, shaft1, gearbase_hole1)&quot;*&#45;&gt;&quot;selector:\n insert(left_hand, clampgripper, shaft1, gearbase_hole1)&quot;** -->
<g id="edge22" class="edge">
<title>&quot;sequence:\n insert(left_hand, clampgripper, shaft1, gearbase_hole1)&quot;*&#45;&gt;&quot;selector:\n insert(left_hand, clampgripper, shaft1, gearbase_hole1)&quot;**</title>
<path fill="none" stroke="black" d="M4131.75,-540.53C4246.77,-525.87 4397.39,-506.66 4523.67,-490.56"/>
<polygon fill="black" stroke="black" points="4524.4,-494 4533.87,-489.26 4523.51,-487.06 4524.4,-494"/>
</g>
<!-- &quot;action:\n insert(left_hand, clampgripper, shaft1, gearbase_hole1)&quot;** -->
<g id="node38" class="node">
<title>&quot;action:\n insert(left_hand, clampgripper, shaft1, gearbase_hole1)&quot;**</title>
<ellipse fill="lightgreen" stroke="black" cx="5601.32" cy="-457.86" rx="389.73" ry="33.88"/>
<text text-anchor="middle" x="5601.32" y="-463.46" font-family="Times,serif" font-size="18.00">&quot;action:</text>
<text text-anchor="middle" x="5601.32" y="-443.46" font-family="Times,serif" font-size="18.00"> insert(left_hand, clampgripper, shaft1, gearbase_hole1)&quot;**</text>
</g>
<!-- &quot;sequence:\n insert(left_hand, clampgripper, shaft1, gearbase_hole1)&quot;*&#45;&gt;&quot;action:\n insert(left_hand, clampgripper, shaft1, gearbase_hole1)&quot;** -->
<g id="edge37" class="edge">
<title>&quot;sequence:\n insert(left_hand, clampgripper, shaft1, gearbase_hole1)&quot;*&#45;&gt;&quot;action:\n insert(left_hand, clampgripper, shaft1, gearbase_hole1)&quot;**</title>
<path fill="none" stroke="black" d="M4222.59,-551.31C4476.3,-539.23 4865.7,-519.04 5203.32,-494.6 5245.37,-491.55 5289.88,-487.94 5333.32,-484.2"/>
<polygon fill="black" stroke="black" points="5333.79,-487.67 5343.45,-483.32 5333.18,-480.7 5333.79,-487.67"/>
</g>
<!-- &quot;target:\n is_inserted_to(shaft1, gearbase_hole1)&quot;** -->
<g id="node24" class="node">
<title>&quot;target:\n is_inserted_to(shaft1, gearbase_hole1)&quot;**</title>
<ellipse fill="#ffec8b" stroke="black" cx="4485.32" cy="-351.18" rx="280.03" ry="33.88"/>
<text text-anchor="middle" x="4485.32" y="-356.78" font-family="Times,serif" font-size="18.00">&quot;target:</text>
<text text-anchor="middle" x="4485.32" y="-336.78" font-family="Times,serif" font-size="18.00"> is_inserted_to(shaft1, gearbase_hole1)&quot;**</text>
</g>
<!-- &quot;selector:\n insert(left_hand, clampgripper, shaft1, gearbase_hole1)&quot;**&#45;&gt;&quot;target:\n is_inserted_to(shaft1, gearbase_hole1)&quot;** -->
<g id="edge23" class="edge">
<title>&quot;selector:\n insert(left_hand, clampgripper, shaft1, gearbase_hole1)&quot;**&#45;&gt;&quot;target:\n is_inserted_to(shaft1, gearbase_hole1)&quot;**</title>
<path fill="none" stroke="black" d="M4673.96,-420.98C4643.94,-410.03 4610.99,-398.02 4581.15,-387.13"/>
<polygon fill="black" stroke="black" points="4582.17,-383.78 4571.57,-383.64 4579.77,-390.35 4582.17,-383.78"/>
</g>
<!-- &quot;sequence:\n insert(left_hand, clampgripper, shaft1, gearbase_hole1)&quot;** -->
<g id="node25" class="node">
<title>&quot;sequence:\n insert(left_hand, clampgripper, shaft1, gearbase_hole1)&quot;**</title>
<polygon fill="#ff7f24" stroke="black" points="5334.82,-375.18 4783.82,-375.18 4783.82,-327.18 5334.82,-327.18 5334.82,-375.18"/>
<text text-anchor="middle" x="5059.32" y="-356.78" font-family="Times,serif" font-size="18.00">&quot;sequence:</text>
<text text-anchor="middle" x="5059.32" y="-336.78" font-family="Times,serif" font-size="18.00"> insert(left_hand, clampgripper, shaft1, gearbase_hole1)&quot;**</text>
</g>
<!-- &quot;selector:\n insert(left_hand, clampgripper, shaft1, gearbase_hole1)&quot;**&#45;&gt;&quot;sequence:\n insert(left_hand, clampgripper, shaft1, gearbase_hole1)&quot;** -->
<g id="edge24" class="edge">
<title>&quot;selector:\n insert(left_hand, clampgripper, shaft1, gearbase_hole1)&quot;**&#45;&gt;&quot;sequence:\n insert(left_hand, clampgripper, shaft1, gearbase_hole1)&quot;**</title>
<path fill="none" stroke="black" d="M4870.69,-420.98C4908.66,-407.13 4951.33,-391.57 4986.46,-378.76"/>
<polygon fill="black" stroke="black" points="4987.97,-381.93 4996.16,-375.22 4985.57,-375.36 4987.97,-381.93"/>
</g>
<!-- &quot;precondition:\n hold(left_hand, clampgripper)&quot;** -->
<g id="node26" class="node">
<title>&quot;precondition:\n hold(left_hand, clampgripper)&quot;**</title>
<ellipse fill="#ffec8b" stroke="black" cx="4124.32" cy="-244.5" rx="225.63" ry="33.88"/>
<text text-anchor="middle" x="4124.32" y="-250.1" font-family="Times,serif" font-size="18.00">&quot;precondition:</text>
<text text-anchor="middle" x="4124.32" y="-230.1" font-family="Times,serif" font-size="18.00"> hold(left_hand, clampgripper)&quot;**</text>
</g>
<!-- &quot;sequence:\n insert(left_hand, clampgripper, shaft1, gearbase_hole1)&quot;**&#45;&gt;&quot;precondition:\n hold(left_hand, clampgripper)&quot;** -->
<g id="edge25" class="edge">
<title>&quot;sequence:\n insert(left_hand, clampgripper, shaft1, gearbase_hole1)&quot;**&#45;&gt;&quot;precondition:\n hold(left_hand, clampgripper)&quot;**</title>
<path fill="none" stroke="black" d="M4866.62,-327.15C4835.77,-323.68 4804.18,-320.26 4774.32,-317.24 4590.13,-298.61 4543.16,-303.17 4359.32,-281.24 4335.09,-278.35 4309.5,-274.89 4284.49,-271.27"/>
<polygon fill="black" stroke="black" points="4284.97,-267.8 4274.57,-269.82 4283.96,-274.73 4284.97,-267.8"/>
</g>
<!-- &quot;precondition:\n hold(clampgripper, shaft1)&quot;* -->
<g id="node27" class="node">
<title>&quot;precondition:\n hold(clampgripper, shaft1)&quot;*</title>
<ellipse fill="#ffec8b" stroke="black" cx="4566.32" cy="-244.5" rx="197.98" ry="33.88"/>
<text text-anchor="middle" x="4566.32" y="-250.1" font-family="Times,serif" font-size="18.00">&quot;precondition:</text>
<text text-anchor="middle" x="4566.32" y="-230.1" font-family="Times,serif" font-size="18.00"> hold(clampgripper, shaft1)&quot;*</text>
</g>
<!-- &quot;sequence:\n insert(left_hand, clampgripper, shaft1, gearbase_hole1)&quot;**&#45;&gt;&quot;precondition:\n hold(clampgripper, shaft1)&quot;* -->
<g id="edge26" class="edge">
<title>&quot;sequence:\n insert(left_hand, clampgripper, shaft1, gearbase_hole1)&quot;**&#45;&gt;&quot;precondition:\n hold(clampgripper, shaft1)&quot;*</title>
<path fill="none" stroke="black" d="M4950.83,-327.14C4876.33,-311.33 4777.03,-290.24 4698,-273.46"/>
<polygon fill="black" stroke="black" points="4698.49,-269.99 4687.98,-271.33 4697.03,-276.83 4698.49,-269.99"/>
</g>
<!-- &quot;precondition:\n can_manipulate(clampgripper, shaft1)&quot;** -->
<g id="node28" class="node">
<title>&quot;precondition:\n can_manipulate(clampgripper, shaft1)&quot;**</title>
<ellipse fill="#ffec8b" stroke="black" cx="5059.32" cy="-244.5" rx="277.37" ry="33.88"/>
<text text-anchor="middle" x="5059.32" y="-250.1" font-family="Times,serif" font-size="18.00">&quot;precondition:</text>
<text text-anchor="middle" x="5059.32" y="-230.1" font-family="Times,serif" font-size="18.00"> can_manipulate(clampgripper, shaft1)&quot;**</text>
</g>
<!-- &quot;sequence:\n insert(left_hand, clampgripper, shaft1, gearbase_hole1)&quot;**&#45;&gt;&quot;precondition:\n can_manipulate(clampgripper, shaft1)&quot;** -->
<g id="edge27" class="edge">
<title>&quot;sequence:\n insert(left_hand, clampgripper, shaft1, gearbase_hole1)&quot;**&#45;&gt;&quot;precondition:\n can_manipulate(clampgripper, shaft1)&quot;**</title>
<path fill="none" stroke="black" d="M5059.32,-326.95C5059.32,-315.73 5059.32,-301.9 5059.32,-288.84"/>
<polygon fill="black" stroke="black" points="5062.82,-288.6 5059.32,-278.6 5055.82,-288.6 5062.82,-288.6"/>
</g>
<!-- &quot;selector:\n insert(left_hand, clampgripper, shaft1, gearbase_hole1)&quot;*** -->
<g id="node29" class="node">
<title>&quot;selector:\n insert(left_hand, clampgripper, shaft1, gearbase_hole1)&quot;***</title>
<polygon fill="#8deeee" stroke="black" points="6212.04,-229.19 6212.04,-259.82 5960.9,-281.48 5605.75,-281.48 5354.61,-259.82 5354.61,-229.19 5605.75,-207.53 5960.9,-207.53 6212.04,-229.19"/>
<text text-anchor="middle" x="5783.32" y="-250.1" font-family="Times,serif" font-size="18.00">&quot;selector:</text>
<text text-anchor="middle" x="5783.32" y="-230.1" font-family="Times,serif" font-size="18.00"> insert(left_hand, clampgripper, shaft1, gearbase_hole1)&quot;***</text>
</g>
<!-- &quot;sequence:\n insert(left_hand, clampgripper, shaft1, gearbase_hole1)&quot;**&#45;&gt;&quot;selector:\n insert(left_hand, clampgripper, shaft1, gearbase_hole1)&quot;*** -->
<g id="edge28" class="edge">
<title>&quot;sequence:\n insert(left_hand, clampgripper, shaft1, gearbase_hole1)&quot;**&#45;&gt;&quot;selector:\n insert(left_hand, clampgripper, shaft1, gearbase_hole1)&quot;***</title>
<path fill="none" stroke="black" d="M5218.66,-327.14C5316.06,-313.06 5442.34,-294.8 5550.78,-279.12"/>
<polygon fill="black" stroke="black" points="5551.48,-282.56 5560.88,-277.66 5550.48,-275.63 5551.48,-282.56"/>
</g>
<!-- &quot;action:\n insert(left_hand, clampgripper, shaft1, gearbase_hole1)&quot;* -->
<g id="node37" class="node">
<title>&quot;action:\n insert(left_hand, clampgripper, shaft1, gearbase_hole1)&quot;*</title>
<ellipse fill="lightgreen" stroke="black" cx="6613.32" cy="-244.5" rx="383" ry="33.88"/>
<text text-anchor="middle" x="6613.32" y="-250.1" font-family="Times,serif" font-size="18.00">&quot;action:</text>
<text text-anchor="middle" x="6613.32" y="-230.1" font-family="Times,serif" font-size="18.00"> insert(left_hand, clampgripper, shaft1, gearbase_hole1)&quot;*</text>
</g>
<!-- &quot;sequence:\n insert(left_hand, clampgripper, shaft1, gearbase_hole1)&quot;**&#45;&gt;&quot;action:\n insert(left_hand, clampgripper, shaft1, gearbase_hole1)&quot;* -->
<g id="edge36" class="edge">
<title>&quot;sequence:\n insert(left_hand, clampgripper, shaft1, gearbase_hole1)&quot;**&#45;&gt;&quot;action:\n insert(left_hand, clampgripper, shaft1, gearbase_hole1)&quot;*</title>
<path fill="none" stroke="black" d="M5335.06,-336.28C5570.61,-323.82 5918.41,-304.03 6221.32,-281.24 6262.49,-278.14 6306.05,-274.52 6348.59,-270.79"/>
<polygon fill="black" stroke="black" points="6349.15,-274.25 6358.8,-269.89 6348.53,-267.28 6349.15,-274.25"/>
</g>
<!-- &quot;target:\n is_inserted_to(shaft1, gearbase_hole1)&quot;*** -->
<g id="node30" class="node">
<title>&quot;target:\n is_inserted_to(shaft1, gearbase_hole1)&quot;***</title>
<ellipse fill="#ffec8b" stroke="black" cx="5491.32" cy="-137.82" rx="286.26" ry="33.88"/>
<text text-anchor="middle" x="5491.32" y="-143.42" font-family="Times,serif" font-size="18.00">&quot;target:</text>
<text text-anchor="middle" x="5491.32" y="-123.42" font-family="Times,serif" font-size="18.00"> is_inserted_to(shaft1, gearbase_hole1)&quot;***</text>
</g>
<!-- &quot;selector:\n insert(left_hand, clampgripper, shaft1, gearbase_hole1)&quot;***&#45;&gt;&quot;target:\n is_inserted_to(shaft1, gearbase_hole1)&quot;*** -->
<g id="edge29" class="edge">
<title>&quot;selector:\n insert(left_hand, clampgripper, shaft1, gearbase_hole1)&quot;***&#45;&gt;&quot;target:\n is_inserted_to(shaft1, gearbase_hole1)&quot;***</title>
<path fill="none" stroke="black" d="M5683.24,-207.62C5652.7,-196.68 5619.18,-184.66 5588.82,-173.77"/>
<polygon fill="black" stroke="black" points="5589.67,-170.36 5579.08,-170.28 5587.31,-176.95 5589.67,-170.36"/>
</g>
<!-- &quot;sequence:\n insert(left_hand, clampgripper, shaft1, gearbase_hole1)&quot;*** -->
<g id="node31" class="node">
<title>&quot;sequence:\n insert(left_hand, clampgripper, shaft1, gearbase_hole1)&quot;***</title>
<polygon fill="#ff7f24" stroke="black" points="6355.32,-161.82 5795.32,-161.82 5795.32,-113.82 6355.32,-113.82 6355.32,-161.82"/>
<text text-anchor="middle" x="6075.32" y="-143.42" font-family="Times,serif" font-size="18.00">&quot;sequence:</text>
<text text-anchor="middle" x="6075.32" y="-123.42" font-family="Times,serif" font-size="18.00"> insert(left_hand, clampgripper, shaft1, gearbase_hole1)&quot;***</text>
</g>
<!-- &quot;selector:\n insert(left_hand, clampgripper, shaft1, gearbase_hole1)&quot;***&#45;&gt;&quot;sequence:\n insert(left_hand, clampgripper, shaft1, gearbase_hole1)&quot;*** -->
<g id="edge30" class="edge">
<title>&quot;selector:\n insert(left_hand, clampgripper, shaft1, gearbase_hole1)&quot;***&#45;&gt;&quot;sequence:\n insert(left_hand, clampgripper, shaft1, gearbase_hole1)&quot;***</title>
<path fill="none" stroke="black" d="M5883.41,-207.62C5922.04,-193.77 5965.45,-178.21 6001.19,-165.4"/>
<polygon fill="black" stroke="black" points="6002.83,-168.53 6011.06,-161.86 6000.47,-161.94 6002.83,-168.53"/>
</g>
<!-- &quot;precondition:\n hold(left_hand, clampgripper)&quot;*** -->
<g id="node32" class="node">
<title>&quot;precondition:\n hold(left_hand, clampgripper)&quot;***</title>
<ellipse fill="#ffec8b" stroke="black" cx="5115.32" cy="-33.94" rx="231.86" ry="33.88"/>
<text text-anchor="middle" x="5115.32" y="-39.54" font-family="Times,serif" font-size="18.00">&quot;precondition:</text>
<text text-anchor="middle" x="5115.32" y="-19.54" font-family="Times,serif" font-size="18.00"> hold(left_hand, clampgripper)&quot;***</text>
</g>
<!-- &quot;sequence:\n insert(left_hand, clampgripper, shaft1, gearbase_hole1)&quot;***&#45;&gt;&quot;precondition:\n hold(left_hand, clampgripper)&quot;*** -->
<g id="edge31" class="edge">
<title>&quot;sequence:\n insert(left_hand, clampgripper, shaft1, gearbase_hole1)&quot;***&#45;&gt;&quot;precondition:\n hold(left_hand, clampgripper)&quot;***</title>
<path fill="none" stroke="black" d="M5880.31,-113.79C5848.9,-110.31 5816.73,-106.89 5786.32,-103.88 5595.47,-85.02 5546.95,-88.88 5356.32,-67.88 5333.92,-65.41 5310.38,-62.54 5287.16,-59.55"/>
<polygon fill="black" stroke="black" points="5287.59,-56.07 5277.23,-58.25 5286.69,-63.02 5287.59,-56.07"/>
</g>
<!-- &quot;precondition:\n hold(clampgripper, shaft1)&quot;** -->
<g id="node33" class="node">
<title>&quot;precondition:\n hold(clampgripper, shaft1)&quot;**</title>
<ellipse fill="#ffec8b" stroke="black" cx="5569.32" cy="-33.94" rx="204.21" ry="33.88"/>
<text text-anchor="middle" x="5569.32" y="-39.54" font-family="Times,serif" font-size="18.00">&quot;precondition:</text>
<text text-anchor="middle" x="5569.32" y="-19.54" font-family="Times,serif" font-size="18.00"> hold(clampgripper, shaft1)&quot;**</text>
</g>
<!-- &quot;sequence:\n insert(left_hand, clampgripper, shaft1, gearbase_hole1)&quot;***&#45;&gt;&quot;precondition:\n hold(clampgripper, shaft1)&quot;** -->
<g id="edge32" class="edge">
<title>&quot;sequence:\n insert(left_hand, clampgripper, shaft1, gearbase_hole1)&quot;***&#45;&gt;&quot;precondition:\n hold(clampgripper, shaft1)&quot;**</title>
<path fill="none" stroke="black" d="M5960.82,-113.77C5885.48,-98.6 5786.44,-78.66 5706.83,-62.63"/>
<polygon fill="black" stroke="black" points="5707.22,-59.14 5696.73,-60.59 5705.84,-66 5707.22,-59.14"/>
</g>
<!-- &quot;precondition:\n can_manipulate(clampgripper, shaft1)&quot;*** -->
<g id="node34" class="node">
<title>&quot;precondition:\n can_manipulate(clampgripper, shaft1)&quot;***</title>
<ellipse fill="#ffec8b" stroke="black" cx="6075.32" cy="-33.94" rx="283.6" ry="33.88"/>
<text text-anchor="middle" x="6075.32" y="-39.54" font-family="Times,serif" font-size="18.00">&quot;precondition:</text>
<text text-anchor="middle" x="6075.32" y="-19.54" font-family="Times,serif" font-size="18.00"> can_manipulate(clampgripper, shaft1)&quot;***</text>
</g>
<!-- &quot;sequence:\n insert(left_hand, clampgripper, shaft1, gearbase_hole1)&quot;***&#45;&gt;&quot;precondition:\n can_manipulate(clampgripper, shaft1)&quot;*** -->
<g id="edge33" class="edge">
<title>&quot;sequence:\n insert(left_hand, clampgripper, shaft1, gearbase_hole1)&quot;***&#45;&gt;&quot;precondition:\n can_manipulate(clampgripper, shaft1)&quot;***</title>
<path fill="none" stroke="black" d="M6075.32,-113.7C6075.32,-103.16 6075.32,-90.31 6075.32,-78.08"/>
<polygon fill="black" stroke="black" points="6078.82,-78.01 6075.32,-68.01 6071.82,-78.01 6078.82,-78.01"/>
</g>
<!-- precondition:
 can_insert_to(shaft1, gearbase_hole1) -->
<g id="node35" class="node">
<title>precondition:
 can_insert_to(shaft1, gearbase_hole1)</title>
<ellipse fill="#ffec8b" stroke="black" cx="6635.32" cy="-33.94" rx="258.19" ry="33.88"/>
<text text-anchor="middle" x="6635.32" y="-39.54" font-family="Times,serif" font-size="18.00">precondition:</text>
<text text-anchor="middle" x="6635.32" y="-19.54" font-family="Times,serif" font-size="18.00"> can_insert_to(shaft1, gearbase_hole1)</text>
</g>
<!-- &quot;sequence:\n insert(left_hand, clampgripper, shaft1, gearbase_hole1)&quot;***&#45;&gt;precondition:
 can_insert_to(shaft1, gearbase_hole1) -->
<g id="edge34" class="edge">
<title>&quot;sequence:\n insert(left_hand, clampgripper, shaft1, gearbase_hole1)&quot;***&#45;&gt;precondition:
 can_insert_to(shaft1, gearbase_hole1)</title>
<path fill="none" stroke="black" d="M6202.05,-113.77C6283.68,-98.92 6390.43,-79.5 6477.54,-63.65"/>
<polygon fill="black" stroke="black" points="6478.31,-67.06 6487.52,-61.83 6477.06,-60.18 6478.31,-67.06"/>
</g>
<!-- action:
 insert(left_hand, clampgripper, shaft1, gearbase_hole1) -->
<g id="node36" class="node">
<title>action:
 insert(left_hand, clampgripper, shaft1, gearbase_hole1)</title>
<ellipse fill="lightgreen" stroke="black" cx="7282.32" cy="-33.94" rx="370.55" ry="33.88"/>
<text text-anchor="middle" x="7282.32" y="-39.54" font-family="Times,serif" font-size="18.00">action:</text>
<text text-anchor="middle" x="7282.32" y="-19.54" font-family="Times,serif" font-size="18.00"> insert(left_hand, clampgripper, shaft1, gearbase_hole1)</text>
</g>
<!-- &quot;sequence:\n insert(left_hand, clampgripper, shaft1, gearbase_hole1)&quot;***&#45;&gt;action:
 insert(left_hand, clampgripper, shaft1, gearbase_hole1) -->
<g id="edge35" class="edge">
<title>&quot;sequence:\n insert(left_hand, clampgripper, shaft1, gearbase_hole1)&quot;***&#45;&gt;action:
 insert(left_hand, clampgripper, shaft1, gearbase_hole1)</title>
<path fill="none" stroke="black" d="M6354.31,-113.8C6514.65,-100.51 6719.83,-83.4 6902.32,-67.88 6936.85,-64.95 6973.14,-61.83 7009.03,-58.74"/>
<polygon fill="black" stroke="black" points="7009.48,-62.22 7019.14,-57.87 7008.88,-55.24 7009.48,-62.22"/>
</g>
</g>
</svg>
