<?xml version="1.0" encoding="UTF-8" standalone="no"?>
<!DOCTYPE svg PUBLIC "-//W3C//DTD SVG 1.1//EN"
 "http://www.w3.org/Graphics/SVG/1.1/DTD/svg11.dtd">
<!-- Generated by graphviz version 2.43.0 (0)
 -->
<!-- Title: pastafarianism Pages: 1 -->
<svg width="8088pt" height="1143pt"
 viewBox="0.00 0.00 8087.85 1142.67" xmlns="http://www.w3.org/2000/svg" xmlns:xlink="http://www.w3.org/1999/xlink">
<g id="graph0" class="graph" transform="scale(1 1) rotate(0) translate(4 1138.67)">
<title>pastafarianism</title>
<polygon fill="white" stroke="transparent" points="-4,4 -4,-1138.67 8083.85,-1138.67 8083.85,4 -4,4"/>
<!-- selector:
 insert(left_hand, clampgripper, shaft1, gearbase_hole1) -->
<g id="node1" class="node">
<title>selector:
 insert(left_hand, clampgripper, shaft1, gearbase_hole1)</title>
<polygon fill="#8deeee" stroke="black" points="2606.43,-1082.62 2606.43,-1113.25 2371.47,-1134.91 2039.18,-1134.91 1804.22,-1113.25 1804.22,-1082.62 2039.18,-1060.96 2371.47,-1060.96 2606.43,-1082.62"/>
<text text-anchor="middle" x="2205.32" y="-1103.53" font-family="Times,serif" font-size="18.00">selector:</text>
<text text-anchor="middle" x="2205.32" y="-1083.53" font-family="Times,serif" font-size="18.00"> insert(left_hand, clampgripper, shaft1, gearbase_hole1)</text>
</g>
<!-- target:
 is_inserted_to(shaft1, gearbase_hole1) -->
<g id="node2" class="node">
<title>target:
 is_inserted_to(shaft1, gearbase_hole1)</title>
<ellipse fill="#ffec8b" stroke="black" cx="1934.32" cy="-991.25" rx="261.76" ry="33.88"/>
<text text-anchor="middle" x="1934.32" y="-996.85" font-family="Times,serif" font-size="18.00">target:</text>
<text text-anchor="middle" x="1934.32" y="-976.85" font-family="Times,serif" font-size="18.00"> is_inserted_to(shaft1, gearbase_hole1)</text>
</g>
<!-- selector:
 insert(left_hand, clampgripper, shaft1, gearbase_hole1)&#45;&gt;target:
 is_inserted_to(shaft1, gearbase_hole1) -->
<g id="edge1" class="edge">
<title>selector:
 insert(left_hand, clampgripper, shaft1, gearbase_hole1)&#45;&gt;target:
 is_inserted_to(shaft1, gearbase_hole1)</title>
<path fill="none" stroke="black" d="M2112.44,-1061.05C2084.08,-1050.1 2052.95,-1038.08 2024.76,-1027.19"/>
<polygon fill="black" stroke="black" points="2025.91,-1023.88 2015.32,-1023.54 2023.39,-1030.41 2025.91,-1023.88"/>
</g>
<!-- sequence:
 insert(left_hand, clampgripper, shaft1, gearbase_hole1) -->
<g id="node3" class="node">
<title>sequence:
 insert(left_hand, clampgripper, shaft1, gearbase_hole1)</title>
<polygon fill="#ff7f24" stroke="black" points="2738.32,-1015.25 2214.32,-1015.25 2214.32,-967.25 2738.32,-967.25 2738.32,-1015.25"/>
<text text-anchor="middle" x="2476.32" y="-996.85" font-family="Times,serif" font-size="18.00">sequence:</text>
<text text-anchor="middle" x="2476.32" y="-976.85" font-family="Times,serif" font-size="18.00"> insert(left_hand, clampgripper, shaft1, gearbase_hole1)</text>
</g>
<!-- selector:
 insert(left_hand, clampgripper, shaft1, gearbase_hole1)&#45;&gt;sequence:
 insert(left_hand, clampgripper, shaft1, gearbase_hole1) -->
<g id="edge2" class="edge">
<title>selector:
 insert(left_hand, clampgripper, shaft1, gearbase_hole1)&#45;&gt;sequence:
 insert(left_hand, clampgripper, shaft1, gearbase_hole1)</title>
<path fill="none" stroke="black" d="M2298.21,-1061.05C2333.91,-1047.26 2374,-1031.78 2407.1,-1018.99"/>
<polygon fill="black" stroke="black" points="2408.62,-1022.16 2416.68,-1015.29 2406.1,-1015.63 2408.62,-1022.16"/>
</g>
<!-- selector:
 change_tool(left_hand, outwardgripper, clampgripper) -->
<g id="node4" class="node">
<title>selector:
 change_tool(left_hand, outwardgripper, clampgripper)</title>
<polygon fill="#8deeee" stroke="black" points="1256.09,-869.26 1256.09,-899.89 1026.01,-921.55 700.64,-921.55 470.56,-899.89 470.56,-869.26 700.64,-847.6 1026.01,-847.6 1256.09,-869.26"/>
<text text-anchor="middle" x="863.32" y="-890.17" font-family="Times,serif" font-size="18.00">selector:</text>
<text text-anchor="middle" x="863.32" y="-870.17" font-family="Times,serif" font-size="18.00"> change_tool(left_hand, outwardgripper, clampgripper)</text>
</g>
<!-- sequence:
 insert(left_hand, clampgripper, shaft1, gearbase_hole1)&#45;&gt;selector:
 change_tool(left_hand, outwardgripper, clampgripper) -->
<g id="edge3" class="edge">
<title>sequence:
 insert(left_hand, clampgripper, shaft1, gearbase_hole1)&#45;&gt;selector:
 change_tool(left_hand, outwardgripper, clampgripper)</title>
<path fill="none" stroke="black" d="M2301.57,-967.25C2269.59,-963.54 2236.49,-960.04 2205.32,-957.31 2110.7,-949.04 1593.4,-922.26 1229.47,-903.87"/>
<polygon fill="black" stroke="black" points="1229.45,-900.37 1219.29,-903.36 1229.1,-907.36 1229.45,-900.37"/>
</g>
<!-- selector:
 pick_up(left_hand, clampgripper, shaft1) -->
<g id="node10" class="node">
<title>selector:
 pick_up(left_hand, clampgripper, shaft1)</title>
<polygon fill="#8deeee" stroke="black" points="2199.28,-869.26 2199.28,-899.89 2024.74,-921.55 1777.91,-921.55 1603.37,-899.89 1603.37,-869.26 1777.91,-847.6 2024.74,-847.6 2199.28,-869.26"/>
<text text-anchor="middle" x="1901.32" y="-890.17" font-family="Times,serif" font-size="18.00">selector:</text>
<text text-anchor="middle" x="1901.32" y="-870.17" font-family="Times,serif" font-size="18.00"> pick_up(left_hand, clampgripper, shaft1)</text>
</g>
<!-- sequence:
 insert(left_hand, clampgripper, shaft1, gearbase_hole1)&#45;&gt;selector:
 pick_up(left_hand, clampgripper, shaft1) -->
<g id="edge9" class="edge">
<title>sequence:
 insert(left_hand, clampgripper, shaft1, gearbase_hole1)&#45;&gt;selector:
 pick_up(left_hand, clampgripper, shaft1)</title>
<path fill="none" stroke="black" d="M2349.78,-967.22C2270.35,-952.75 2166.72,-933.89 2079.09,-917.94"/>
<polygon fill="black" stroke="black" points="2079.5,-914.45 2069.04,-916.11 2078.25,-921.34 2079.5,-914.45"/>
</g>
<!-- precondition:
 can_manipulate(clampgripper, shaft1) -->
<g id="node16" class="node">
<title>precondition:
 can_manipulate(clampgripper, shaft1)</title>
<ellipse fill="#ffec8b" stroke="black" cx="2476.32" cy="-884.57" rx="258.6" ry="33.88"/>
<text text-anchor="middle" x="2476.32" y="-890.17" font-family="Times,serif" font-size="18.00">precondition:</text>
<text text-anchor="middle" x="2476.32" y="-870.17" font-family="Times,serif" font-size="18.00"> can_manipulate(clampgripper, shaft1)</text>
</g>
<!-- sequence:
 insert(left_hand, clampgripper, shaft1, gearbase_hole1)&#45;&gt;precondition:
 can_manipulate(clampgripper, shaft1) -->
<g id="edge15" class="edge">
<title>sequence:
 insert(left_hand, clampgripper, shaft1, gearbase_hole1)&#45;&gt;precondition:
 can_manipulate(clampgripper, shaft1)</title>
<path fill="none" stroke="black" d="M2476.32,-967.02C2476.32,-955.81 2476.32,-941.97 2476.32,-928.91"/>
<polygon fill="black" stroke="black" points="2479.82,-928.67 2476.32,-918.67 2472.82,-928.67 2479.82,-928.67"/>
</g>
<!-- &quot;selector:\n insert(left_hand, clampgripper, shaft1, gearbase_hole1)&quot;* -->
<g id="node17" class="node">
<title>&quot;selector:\n insert(left_hand, clampgripper, shaft1, gearbase_hole1)&quot;*</title>
<polygon fill="#8deeee" stroke="black" points="3582.98,-869.26 3582.98,-899.89 3340.08,-921.55 2996.57,-921.55 2753.67,-899.89 2753.67,-869.26 2996.57,-847.6 3340.08,-847.6 3582.98,-869.26"/>
<text text-anchor="middle" x="3168.32" y="-890.17" font-family="Times,serif" font-size="18.00">&quot;selector:</text>
<text text-anchor="middle" x="3168.32" y="-870.17" font-family="Times,serif" font-size="18.00"> insert(left_hand, clampgripper, shaft1, gearbase_hole1)&quot;*</text>
</g>
<!-- sequence:
 insert(left_hand, clampgripper, shaft1, gearbase_hole1)&#45;&gt;&quot;selector:\n insert(left_hand, clampgripper, shaft1, gearbase_hole1)&quot;* -->
<g id="edge16" class="edge">
<title>sequence:
 insert(left_hand, clampgripper, shaft1, gearbase_hole1)&#45;&gt;&quot;selector:\n insert(left_hand, clampgripper, shaft1, gearbase_hole1)&quot;*</title>
<path fill="none" stroke="black" d="M2628.61,-967.22C2721.33,-953.19 2841.42,-935.03 2944.78,-919.39"/>
<polygon fill="black" stroke="black" points="2945.36,-922.84 2954.72,-917.89 2944.31,-915.92 2945.36,-922.84"/>
</g>
<!-- &quot;action:\n insert(left_hand, clampgripper, shaft1, gearbase_hole1)&quot;**** -->
<g id="node44" class="node">
<title>&quot;action:\n insert(left_hand, clampgripper, shaft1, gearbase_hole1)&quot;****</title>
<ellipse fill="lightgreen" stroke="black" cx="4003.32" cy="-884.57" rx="402.19" ry="33.88"/>
<text text-anchor="middle" x="4003.32" y="-890.17" font-family="Times,serif" font-size="18.00">&quot;action:</text>
<text text-anchor="middle" x="4003.32" y="-870.17" font-family="Times,serif" font-size="18.00"> insert(left_hand, clampgripper, shaft1, gearbase_hole1)&quot;****</text>
</g>
<!-- sequence:
 insert(left_hand, clampgripper, shaft1, gearbase_hole1)&#45;&gt;&quot;action:\n insert(left_hand, clampgripper, shaft1, gearbase_hole1)&quot;**** -->
<g id="edge43" class="edge">
<title>sequence:
 insert(left_hand, clampgripper, shaft1, gearbase_hole1)&#45;&gt;&quot;action:\n insert(left_hand, clampgripper, shaft1, gearbase_hole1)&quot;****</title>
<path fill="none" stroke="black" d="M2738.58,-975.91C2964.82,-963.09 3300.25,-943.03 3592.32,-921.31 3635.24,-918.12 3680.65,-914.46 3725.02,-910.72"/>
<polygon fill="black" stroke="black" points="3725.39,-914.21 3735.06,-909.88 3724.8,-907.23 3725.39,-914.21"/>
</g>
<!-- target:
 hold(left_hand, clampgripper) -->
<g id="node5" class="node">
<title>target:
 hold(left_hand, clampgripper)</title>
<ellipse fill="#ffec8b" stroke="black" cx="381.32" cy="-777.9" rx="207.36" ry="33.88"/>
<text text-anchor="middle" x="381.32" y="-783.5" font-family="Times,serif" font-size="18.00">target:</text>
<text text-anchor="middle" x="381.32" y="-763.5" font-family="Times,serif" font-size="18.00"> hold(left_hand, clampgripper)</text>
</g>
<!-- selector:
 change_tool(left_hand, outwardgripper, clampgripper)&#45;&gt;target:
 hold(left_hand, clampgripper) -->
<g id="edge4" class="edge">
<title>selector:
 change_tool(left_hand, outwardgripper, clampgripper)&#45;&gt;target:
 hold(left_hand, clampgripper)</title>
<path fill="none" stroke="black" d="M698.46,-847.77C638.03,-834.65 570.47,-819.97 513.3,-807.56"/>
<polygon fill="black" stroke="black" points="514,-804.13 503.48,-805.43 512.51,-810.97 514,-804.13"/>
</g>
<!-- sequence:
 change_tool(left_hand, outwardgripper, clampgripper) -->
<g id="node6" class="node">
<title>sequence:
 change_tool(left_hand, outwardgripper, clampgripper)</title>
<polygon fill="#ff7f24" stroke="black" points="1119.82,-801.9 606.82,-801.9 606.82,-753.9 1119.82,-753.9 1119.82,-801.9"/>
<text text-anchor="middle" x="863.32" y="-783.5" font-family="Times,serif" font-size="18.00">sequence:</text>
<text text-anchor="middle" x="863.32" y="-763.5" font-family="Times,serif" font-size="18.00"> change_tool(left_hand, outwardgripper, clampgripper)</text>
</g>
<!-- selector:
 change_tool(left_hand, outwardgripper, clampgripper)&#45;&gt;sequence:
 change_tool(left_hand, outwardgripper, clampgripper) -->
<g id="edge5" class="edge">
<title>selector:
 change_tool(left_hand, outwardgripper, clampgripper)&#45;&gt;sequence:
 change_tool(left_hand, outwardgripper, clampgripper)</title>
<path fill="none" stroke="black" d="M863.32,-847.55C863.32,-836.17 863.32,-823.64 863.32,-812.44"/>
<polygon fill="black" stroke="black" points="866.82,-812.18 863.32,-802.18 859.82,-812.18 866.82,-812.18"/>
</g>
<!-- precondition:
 hold(left_hand, outwardgripper) -->
<g id="node7" class="node">
<title>precondition:
 hold(left_hand, outwardgripper)</title>
<ellipse fill="#ffec8b" stroke="black" cx="221.32" cy="-671.22" rx="221.15" ry="33.88"/>
<text text-anchor="middle" x="221.32" y="-676.82" font-family="Times,serif" font-size="18.00">precondition:</text>
<text text-anchor="middle" x="221.32" y="-656.82" font-family="Times,serif" font-size="18.00"> hold(left_hand, outwardgripper)</text>
</g>
<!-- sequence:
 change_tool(left_hand, outwardgripper, clampgripper)&#45;&gt;precondition:
 hold(left_hand, outwardgripper) -->
<g id="edge6" class="edge">
<title>sequence:
 change_tool(left_hand, outwardgripper, clampgripper)&#45;&gt;precondition:
 hold(left_hand, outwardgripper)</title>
<path fill="none" stroke="black" d="M722.04,-753.86C620.91,-737.37 484.68,-715.16 379.84,-698.06"/>
<polygon fill="black" stroke="black" points="380.23,-694.58 369.8,-696.43 379.11,-701.49 380.23,-694.58"/>
</g>
<!-- precondition:
 is_empty(outwardgripper) -->
<g id="node8" class="node">
<title>precondition:
 is_empty(outwardgripper)</title>
<ellipse fill="#ffec8b" stroke="black" cx="643.32" cy="-671.22" rx="183.28" ry="33.88"/>
<text text-anchor="middle" x="643.32" y="-676.82" font-family="Times,serif" font-size="18.00">precondition:</text>
<text text-anchor="middle" x="643.32" y="-656.82" font-family="Times,serif" font-size="18.00"> is_empty(outwardgripper)</text>
</g>
<!-- sequence:
 change_tool(left_hand, outwardgripper, clampgripper)&#45;&gt;precondition:
 is_empty(outwardgripper) -->
<g id="edge7" class="edge">
<title>sequence:
 change_tool(left_hand, outwardgripper, clampgripper)&#45;&gt;precondition:
 is_empty(outwardgripper)</title>
<path fill="none" stroke="black" d="M814.77,-753.79C786.21,-740.2 749.51,-722.74 717.4,-707.46"/>
<polygon fill="black" stroke="black" points="718.57,-704.14 708.04,-703.01 715.56,-710.46 718.57,-704.14"/>
</g>
<!-- action:
 change_tool(left_hand, outwardgripper, clampgripper) -->
<g id="node9" class="node">
<title>action:
 change_tool(left_hand, outwardgripper, clampgripper)</title>
<ellipse fill="lightgreen" stroke="black" cx="1207.32" cy="-671.22" rx="362.99" ry="33.88"/>
<text text-anchor="middle" x="1207.32" y="-676.82" font-family="Times,serif" font-size="18.00">action:</text>
<text text-anchor="middle" x="1207.32" y="-656.82" font-family="Times,serif" font-size="18.00"> change_tool(left_hand, outwardgripper, clampgripper)</text>
</g>
<!-- sequence:
 change_tool(left_hand, outwardgripper, clampgripper)&#45;&gt;action:
 change_tool(left_hand, outwardgripper, clampgripper) -->
<g id="edge8" class="edge">
<title>sequence:
 change_tool(left_hand, outwardgripper, clampgripper)&#45;&gt;action:
 change_tool(left_hand, outwardgripper, clampgripper)</title>
<path fill="none" stroke="black" d="M939.24,-753.79C984.6,-739.99 1043.08,-722.2 1093.84,-706.75"/>
<polygon fill="black" stroke="black" points="1095,-710.06 1103.55,-703.8 1092.96,-703.36 1095,-710.06"/>
</g>
<!-- target:
 hold(clampgripper, shaft1) -->
<g id="node11" class="node">
<title>target:
 hold(clampgripper, shaft1)</title>
<ellipse fill="#ffec8b" stroke="black" cx="1791.32" cy="-777.9" rx="185.94" ry="33.88"/>
<text text-anchor="middle" x="1791.32" y="-783.5" font-family="Times,serif" font-size="18.00">target:</text>
<text text-anchor="middle" x="1791.32" y="-763.5" font-family="Times,serif" font-size="18.00"> hold(clampgripper, shaft1)</text>
</g>
<!-- selector:
 pick_up(left_hand, clampgripper, shaft1)&#45;&gt;target:
 hold(clampgripper, shaft1) -->
<g id="edge10" class="edge">
<title>selector:
 pick_up(left_hand, clampgripper, shaft1)&#45;&gt;target:
 hold(clampgripper, shaft1)</title>
<path fill="none" stroke="black" d="M1863.47,-847.55C1853.66,-838.22 1843.05,-828.12 1833.06,-818.61"/>
<polygon fill="black" stroke="black" points="1835.22,-815.83 1825.56,-811.48 1830.39,-820.91 1835.22,-815.83"/>
</g>
<!-- sequence:
 pick_up(left_hand, clampgripper, shaft1) -->
<g id="node12" class="node">
<title>sequence:
 pick_up(left_hand, clampgripper, shaft1)</title>
<polygon fill="#ff7f24" stroke="black" points="2383.82,-801.9 1994.82,-801.9 1994.82,-753.9 2383.82,-753.9 2383.82,-801.9"/>
<text text-anchor="middle" x="2189.32" y="-783.5" font-family="Times,serif" font-size="18.00">sequence:</text>
<text text-anchor="middle" x="2189.32" y="-763.5" font-family="Times,serif" font-size="18.00"> pick_up(left_hand, clampgripper, shaft1)</text>
</g>
<!-- selector:
 pick_up(left_hand, clampgripper, shaft1)&#45;&gt;sequence:
 pick_up(left_hand, clampgripper, shaft1) -->
<g id="edge11" class="edge">
<title>selector:
 pick_up(left_hand, clampgripper, shaft1)&#45;&gt;sequence:
 pick_up(left_hand, clampgripper, shaft1)</title>
<path fill="none" stroke="black" d="M2000.03,-847.7C2038.14,-833.85 2080.95,-818.29 2116.21,-805.47"/>
<polygon fill="black" stroke="black" points="2117.74,-808.64 2125.94,-801.93 2115.35,-802.06 2117.74,-808.64"/>
</g>
<!-- precondition:
 hold(left_hand, clampgripper) -->
<g id="node13" class="node">
<title>precondition:
 hold(left_hand, clampgripper)</title>
<ellipse fill="#ffec8b" stroke="black" cx="1795.32" cy="-671.22" rx="207.36" ry="33.88"/>
<text text-anchor="middle" x="1795.32" y="-676.82" font-family="Times,serif" font-size="18.00">precondition:</text>
<text text-anchor="middle" x="1795.32" y="-656.82" font-family="Times,serif" font-size="18.00"> hold(left_hand, clampgripper)</text>
</g>
<!-- sequence:
 pick_up(left_hand, clampgripper, shaft1)&#45;&gt;precondition:
 hold(left_hand, clampgripper) -->
<g id="edge12" class="edge">
<title>sequence:
 pick_up(left_hand, clampgripper, shaft1)&#45;&gt;precondition:
 hold(left_hand, clampgripper)</title>
<path fill="none" stroke="black" d="M2102.37,-753.79C2046.12,-738.85 1972.24,-719.22 1911.05,-702.96"/>
<polygon fill="black" stroke="black" points="1911.91,-699.57 1901.34,-700.38 1910.11,-706.34 1911.91,-699.57"/>
</g>
<!-- precondition:
 is_empty(clampgripper) -->
<g id="node14" class="node">
<title>precondition:
 is_empty(clampgripper)</title>
<ellipse fill="#ffec8b" stroke="black" cx="2189.32" cy="-671.22" rx="169" ry="33.88"/>
<text text-anchor="middle" x="2189.32" y="-676.82" font-family="Times,serif" font-size="18.00">precondition:</text>
<text text-anchor="middle" x="2189.32" y="-656.82" font-family="Times,serif" font-size="18.00"> is_empty(clampgripper)</text>
</g>
<!-- sequence:
 pick_up(left_hand, clampgripper, shaft1)&#45;&gt;precondition:
 is_empty(clampgripper) -->
<g id="edge13" class="edge">
<title>sequence:
 pick_up(left_hand, clampgripper, shaft1)&#45;&gt;precondition:
 is_empty(clampgripper)</title>
<path fill="none" stroke="black" d="M2189.32,-753.66C2189.32,-742.45 2189.32,-728.62 2189.32,-715.56"/>
<polygon fill="black" stroke="black" points="2192.82,-715.31 2189.32,-705.31 2185.82,-715.31 2192.82,-715.31"/>
</g>
<!-- action:
 pick_up(left_hand, clampgripper, shaft1) -->
<g id="node15" class="node">
<title>action:
 pick_up(left_hand, clampgripper, shaft1)</title>
<ellipse fill="lightgreen" stroke="black" cx="2651.32" cy="-671.22" rx="275.13" ry="33.88"/>
<text text-anchor="middle" x="2651.32" y="-676.82" font-family="Times,serif" font-size="18.00">action:</text>
<text text-anchor="middle" x="2651.32" y="-656.82" font-family="Times,serif" font-size="18.00"> pick_up(left_hand, clampgripper, shaft1)</text>
</g>
<!-- sequence:
 pick_up(left_hand, clampgripper, shaft1)&#45;&gt;action:
 pick_up(left_hand, clampgripper, shaft1) -->
<g id="edge14" class="edge">
<title>sequence:
 pick_up(left_hand, clampgripper, shaft1)&#45;&gt;action:
 pick_up(left_hand, clampgripper, shaft1)</title>
<path fill="none" stroke="black" d="M2291,-753.86C2356.21,-739.08 2441.71,-719.71 2513.06,-703.55"/>
<polygon fill="black" stroke="black" points="2514.05,-706.91 2523.03,-701.29 2512.5,-700.08 2514.05,-706.91"/>
</g>
<!-- &quot;target:\n is_inserted_to(shaft1, gearbase_hole1)&quot;* -->
<g id="node18" class="node">
<title>&quot;target:\n is_inserted_to(shaft1, gearbase_hole1)&quot;*</title>
<ellipse fill="#ffec8b" stroke="black" cx="3168.32" cy="-777.9" rx="273.8" ry="33.88"/>
<text text-anchor="middle" x="3168.32" y="-783.5" font-family="Times,serif" font-size="18.00">&quot;target:</text>
<text text-anchor="middle" x="3168.32" y="-763.5" font-family="Times,serif" font-size="18.00"> is_inserted_to(shaft1, gearbase_hole1)&quot;*</text>
</g>
<!-- &quot;selector:\n insert(left_hand, clampgripper, shaft1, gearbase_hole1)&quot;*&#45;&gt;&quot;target:\n is_inserted_to(shaft1, gearbase_hole1)&quot;* -->
<g id="edge17" class="edge">
<title>&quot;selector:\n insert(left_hand, clampgripper, shaft1, gearbase_hole1)&quot;*&#45;&gt;&quot;target:\n is_inserted_to(shaft1, gearbase_hole1)&quot;*</title>
<path fill="none" stroke="black" d="M3168.32,-847.55C3168.32,-839.39 3168.32,-830.65 3168.32,-822.23"/>
<polygon fill="black" stroke="black" points="3171.82,-822.17 3168.32,-812.17 3164.82,-822.17 3171.82,-822.17"/>
</g>
<!-- &quot;sequence:\n insert(left_hand, clampgripper, shaft1, gearbase_hole1)&quot;* -->
<g id="node19" class="node">
<title>&quot;sequence:\n insert(left_hand, clampgripper, shaft1, gearbase_hole1)&quot;*</title>
<polygon fill="#ff7f24" stroke="black" points="4222.32,-801.9 3680.32,-801.9 3680.32,-753.9 4222.32,-753.9 4222.32,-801.9"/>
<text text-anchor="middle" x="3951.32" y="-783.5" font-family="Times,serif" font-size="18.00">&quot;sequence:</text>
<text text-anchor="middle" x="3951.32" y="-763.5" font-family="Times,serif" font-size="18.00"> insert(left_hand, clampgripper, shaft1, gearbase_hole1)&quot;*</text>
</g>
<!-- &quot;selector:\n insert(left_hand, clampgripper, shaft1, gearbase_hole1)&quot;*&#45;&gt;&quot;sequence:\n insert(left_hand, clampgripper, shaft1, gearbase_hole1)&quot;* -->
<g id="edge18" class="edge">
<title>&quot;selector:\n insert(left_hand, clampgripper, shaft1, gearbase_hole1)&quot;*&#45;&gt;&quot;sequence:\n insert(left_hand, clampgripper, shaft1, gearbase_hole1)&quot;*</title>
<path fill="none" stroke="black" d="M3398.49,-852.8C3516.74,-837 3658.79,-818 3769.29,-803.23"/>
<polygon fill="black" stroke="black" points="3769.75,-806.7 3779.2,-801.91 3768.83,-799.76 3769.75,-806.7"/>
</g>
<!-- &quot;precondition:\n hold(left_hand, clampgripper)&quot;* -->
<g id="node20" class="node">
<title>&quot;precondition:\n hold(left_hand, clampgripper)&quot;*</title>
<ellipse fill="#ffec8b" stroke="black" cx="3163.32" cy="-671.22" rx="219.41" ry="33.88"/>
<text text-anchor="middle" x="3163.32" y="-676.82" font-family="Times,serif" font-size="18.00">&quot;precondition:</text>
<text text-anchor="middle" x="3163.32" y="-656.82" font-family="Times,serif" font-size="18.00"> hold(left_hand, clampgripper)&quot;*</text>
</g>
<!-- &quot;sequence:\n insert(left_hand, clampgripper, shaft1, gearbase_hole1)&quot;*&#45;&gt;&quot;precondition:\n hold(left_hand, clampgripper)&quot;* -->
<g id="edge19" class="edge">
<title>&quot;sequence:\n insert(left_hand, clampgripper, shaft1, gearbase_hole1)&quot;*&#45;&gt;&quot;precondition:\n hold(left_hand, clampgripper)&quot;*</title>
<path fill="none" stroke="black" d="M3751.22,-753.88C3644.31,-741.18 3510.53,-724.63 3391.32,-707.95 3368.84,-704.81 3345.15,-701.31 3321.87,-697.76"/>
<polygon fill="black" stroke="black" points="3322.34,-694.29 3311.93,-696.23 3321.28,-701.21 3322.34,-694.29"/>
</g>
<!-- precondition:
 hold(clampgripper, shaft1) -->
<g id="node21" class="node">
<title>precondition:
 hold(clampgripper, shaft1)</title>
<ellipse fill="#ffec8b" stroke="black" cx="3586.32" cy="-671.22" rx="185.94" ry="33.88"/>
<text text-anchor="middle" x="3586.32" y="-676.82" font-family="Times,serif" font-size="18.00">precondition:</text>
<text text-anchor="middle" x="3586.32" y="-656.82" font-family="Times,serif" font-size="18.00"> hold(clampgripper, shaft1)</text>
</g>
<!-- &quot;sequence:\n insert(left_hand, clampgripper, shaft1, gearbase_hole1)&quot;*&#45;&gt;precondition:
 hold(clampgripper, shaft1) -->
<g id="edge20" class="edge">
<title>&quot;sequence:\n insert(left_hand, clampgripper, shaft1, gearbase_hole1)&quot;*&#45;&gt;precondition:
 hold(clampgripper, shaft1)</title>
<path fill="none" stroke="black" d="M3870.77,-753.79C3818.68,-738.85 3750.26,-719.23 3693.59,-702.98"/>
<polygon fill="black" stroke="black" points="3694.45,-699.59 3683.87,-700.19 3692.52,-706.31 3694.45,-699.59"/>
</g>
<!-- &quot;precondition:\n can_manipulate(clampgripper, shaft1)&quot;* -->
<g id="node22" class="node">
<title>&quot;precondition:\n can_manipulate(clampgripper, shaft1)&quot;*</title>
<ellipse fill="#ffec8b" stroke="black" cx="4061.32" cy="-671.22" rx="270.64" ry="33.88"/>
<text text-anchor="middle" x="4061.32" y="-676.82" font-family="Times,serif" font-size="18.00">&quot;precondition:</text>
<text text-anchor="middle" x="4061.32" y="-656.82" font-family="Times,serif" font-size="18.00"> can_manipulate(clampgripper, shaft1)&quot;*</text>
</g>
<!-- &quot;sequence:\n insert(left_hand, clampgripper, shaft1, gearbase_hole1)&quot;*&#45;&gt;&quot;precondition:\n can_manipulate(clampgripper, shaft1)&quot;* -->
<g id="edge21" class="edge">
<title>&quot;sequence:\n insert(left_hand, clampgripper, shaft1, gearbase_hole1)&quot;*&#45;&gt;&quot;precondition:\n can_manipulate(clampgripper, shaft1)&quot;*</title>
<path fill="none" stroke="black" d="M3975.74,-753.66C3988.57,-741.46 4004.65,-726.15 4019.4,-712.11"/>
<polygon fill="black" stroke="black" points="4022.14,-714.34 4026.97,-704.91 4017.31,-709.27 4022.14,-714.34"/>
</g>
<!-- &quot;selector:\n insert(left_hand, clampgripper, shaft1, gearbase_hole1)&quot;** -->
<g id="node23" class="node">
<title>&quot;selector:\n insert(left_hand, clampgripper, shaft1, gearbase_hole1)&quot;**</title>
<polygon fill="#8deeee" stroke="black" points="5194.26,-655.9 5194.26,-686.53 4947.1,-708.19 4597.55,-708.19 4350.39,-686.53 4350.39,-655.9 4597.55,-634.24 4947.1,-634.24 5194.26,-655.9"/>
<text text-anchor="middle" x="4772.32" y="-676.82" font-family="Times,serif" font-size="18.00">&quot;selector:</text>
<text text-anchor="middle" x="4772.32" y="-656.82" font-family="Times,serif" font-size="18.00"> insert(left_hand, clampgripper, shaft1, gearbase_hole1)&quot;**</text>
</g>
<!-- &quot;sequence:\n insert(left_hand, clampgripper, shaft1, gearbase_hole1)&quot;*&#45;&gt;&quot;selector:\n insert(left_hand, clampgripper, shaft1, gearbase_hole1)&quot;** -->
<g id="edge22" class="edge">
<title>&quot;sequence:\n insert(left_hand, clampgripper, shaft1, gearbase_hole1)&quot;*&#45;&gt;&quot;selector:\n insert(left_hand, clampgripper, shaft1, gearbase_hole1)&quot;**</title>
<path fill="none" stroke="black" d="M4131.75,-753.89C4246.77,-739.23 4397.39,-720.02 4523.67,-703.92"/>
<polygon fill="black" stroke="black" points="4524.4,-707.36 4533.87,-702.62 4523.51,-700.41 4524.4,-707.36"/>
</g>
<!-- &quot;action:\n insert(left_hand, clampgripper, shaft1, gearbase_hole1)&quot;*** -->
<g id="node43" class="node">
<title>&quot;action:\n insert(left_hand, clampgripper, shaft1, gearbase_hole1)&quot;***</title>
<ellipse fill="lightgreen" stroke="black" cx="5608.32" cy="-671.22" rx="395.96" ry="33.88"/>
<text text-anchor="middle" x="5608.32" y="-676.82" font-family="Times,serif" font-size="18.00">&quot;action:</text>
<text text-anchor="middle" x="5608.32" y="-656.82" font-family="Times,serif" font-size="18.00"> insert(left_hand, clampgripper, shaft1, gearbase_hole1)&quot;***</text>
</g>
<!-- &quot;sequence:\n insert(left_hand, clampgripper, shaft1, gearbase_hole1)&quot;*&#45;&gt;&quot;action:\n insert(left_hand, clampgripper, shaft1, gearbase_hole1)&quot;*** -->
<g id="edge42" class="edge">
<title>&quot;sequence:\n insert(left_hand, clampgripper, shaft1, gearbase_hole1)&quot;*&#45;&gt;&quot;action:\n insert(left_hand, clampgripper, shaft1, gearbase_hole1)&quot;***</title>
<path fill="none" stroke="black" d="M4222.58,-764.55C4476.28,-752.38 4865.68,-732.14 5203.32,-707.95 5246.2,-704.88 5291.59,-701.25 5335.88,-697.5"/>
<polygon fill="black" stroke="black" points="5336.24,-700.98 5345.9,-696.65 5335.64,-694.01 5336.24,-700.98"/>
</g>
<!-- &quot;target:\n is_inserted_to(shaft1, gearbase_hole1)&quot;** -->
<g id="node24" class="node">
<title>&quot;target:\n is_inserted_to(shaft1, gearbase_hole1)&quot;**</title>
<ellipse fill="#ffec8b" stroke="black" cx="4485.32" cy="-564.54" rx="280.03" ry="33.88"/>
<text text-anchor="middle" x="4485.32" y="-570.14" font-family="Times,serif" font-size="18.00">&quot;target:</text>
<text text-anchor="middle" x="4485.32" y="-550.14" font-family="Times,serif" font-size="18.00"> is_inserted_to(shaft1, gearbase_hole1)&quot;**</text>
</g>
<!-- &quot;selector:\n insert(left_hand, clampgripper, shaft1, gearbase_hole1)&quot;**&#45;&gt;&quot;target:\n is_inserted_to(shaft1, gearbase_hole1)&quot;** -->
<g id="edge23" class="edge">
<title>&quot;selector:\n insert(left_hand, clampgripper, shaft1, gearbase_hole1)&quot;**&#45;&gt;&quot;target:\n is_inserted_to(shaft1, gearbase_hole1)&quot;**</title>
<path fill="none" stroke="black" d="M4673.96,-634.34C4643.94,-623.39 4610.99,-611.37 4581.15,-600.49"/>
<polygon fill="black" stroke="black" points="4582.17,-597.13 4571.57,-597 4579.77,-603.71 4582.17,-597.13"/>
</g>
<!-- &quot;sequence:\n insert(left_hand, clampgripper, shaft1, gearbase_hole1)&quot;** -->
<g id="node25" class="node">
<title>&quot;sequence:\n insert(left_hand, clampgripper, shaft1, gearbase_hole1)&quot;**</title>
<polygon fill="#ff7f24" stroke="black" points="5334.82,-588.54 4783.82,-588.54 4783.82,-540.54 5334.82,-540.54 5334.82,-588.54"/>
<text text-anchor="middle" x="5059.32" y="-570.14" font-family="Times,serif" font-size="18.00">&quot;sequence:</text>
<text text-anchor="middle" x="5059.32" y="-550.14" font-family="Times,serif" font-size="18.00"> insert(left_hand, clampgripper, shaft1, gearbase_hole1)&quot;**</text>
</g>
<!-- &quot;selector:\n insert(left_hand, clampgripper, shaft1, gearbase_hole1)&quot;**&#45;&gt;&quot;sequence:\n insert(left_hand, clampgripper, shaft1, gearbase_hole1)&quot;** -->
<g id="edge24" class="edge">
<title>&quot;selector:\n insert(left_hand, clampgripper, shaft1, gearbase_hole1)&quot;**&#45;&gt;&quot;sequence:\n insert(left_hand, clampgripper, shaft1, gearbase_hole1)&quot;**</title>
<path fill="none" stroke="black" d="M4870.69,-634.34C4908.66,-620.49 4951.33,-604.93 4986.46,-592.11"/>
<polygon fill="black" stroke="black" points="4987.97,-595.29 4996.16,-588.58 4985.57,-588.71 4987.97,-595.29"/>
</g>
<!-- &quot;precondition:\n hold(left_hand, clampgripper)&quot;** -->
<g id="node26" class="node">
<title>&quot;precondition:\n hold(left_hand, clampgripper)&quot;**</title>
<ellipse fill="#ffec8b" stroke="black" cx="4124.32" cy="-457.86" rx="225.63" ry="33.88"/>
<text text-anchor="middle" x="4124.32" y="-463.46" font-family="Times,serif" font-size="18.00">&quot;precondition:</text>
<text text-anchor="middle" x="4124.32" y="-443.46" font-family="Times,serif" font-size="18.00"> hold(left_hand, clampgripper)&quot;**</text>
</g>
<!-- &quot;sequence:\n insert(left_hand, clampgripper, shaft1, gearbase_hole1)&quot;**&#45;&gt;&quot;precondition:\n hold(left_hand, clampgripper)&quot;** -->
<g id="edge25" class="edge">
<title>&quot;sequence:\n insert(left_hand, clampgripper, shaft1, gearbase_hole1)&quot;**&#45;&gt;&quot;precondition:\n hold(left_hand, clampgripper)&quot;**</title>
<path fill="none" stroke="black" d="M4866.62,-540.51C4835.77,-537.04 4804.18,-533.62 4774.32,-530.6 4590.13,-511.97 4543.16,-516.53 4359.32,-494.6 4335.09,-491.71 4309.5,-488.24 4284.49,-484.63"/>
<polygon fill="black" stroke="black" points="4284.97,-481.16 4274.57,-483.18 4283.96,-488.09 4284.97,-481.16"/>
</g>
<!-- &quot;precondition:\n hold(clampgripper, shaft1)&quot;* -->
<g id="node27" class="node">
<title>&quot;precondition:\n hold(clampgripper, shaft1)&quot;*</title>
<ellipse fill="#ffec8b" stroke="black" cx="4566.32" cy="-457.86" rx="197.98" ry="33.88"/>
<text text-anchor="middle" x="4566.32" y="-463.46" font-family="Times,serif" font-size="18.00">&quot;precondition:</text>
<text text-anchor="middle" x="4566.32" y="-443.46" font-family="Times,serif" font-size="18.00"> hold(clampgripper, shaft1)&quot;*</text>
</g>
<!-- &quot;sequence:\n insert(left_hand, clampgripper, shaft1, gearbase_hole1)&quot;**&#45;&gt;&quot;precondition:\n hold(clampgripper, shaft1)&quot;* -->
<g id="edge26" class="edge">
<title>&quot;sequence:\n insert(left_hand, clampgripper, shaft1, gearbase_hole1)&quot;**&#45;&gt;&quot;precondition:\n hold(clampgripper, shaft1)&quot;*</title>
<path fill="none" stroke="black" d="M4950.83,-540.5C4876.33,-524.68 4777.03,-503.6 4698,-486.82"/>
<polygon fill="black" stroke="black" points="4698.49,-483.34 4687.98,-484.69 4697.03,-490.19 4698.49,-483.34"/>
</g>
<!-- &quot;precondition:\n can_manipulate(clampgripper, shaft1)&quot;** -->
<g id="node28" class="node">
<title>&quot;precondition:\n can_manipulate(clampgripper, shaft1)&quot;**</title>
<ellipse fill="#ffec8b" stroke="black" cx="5059.32" cy="-457.86" rx="277.37" ry="33.88"/>
<text text-anchor="middle" x="5059.32" y="-463.46" font-family="Times,serif" font-size="18.00">&quot;precondition:</text>
<text text-anchor="middle" x="5059.32" y="-443.46" font-family="Times,serif" font-size="18.00"> can_manipulate(clampgripper, shaft1)&quot;**</text>
</g>
<!-- &quot;sequence:\n insert(left_hand, clampgripper, shaft1, gearbase_hole1)&quot;**&#45;&gt;&quot;precondition:\n can_manipulate(clampgripper, shaft1)&quot;** -->
<g id="edge27" class="edge">
<title>&quot;sequence:\n insert(left_hand, clampgripper, shaft1, gearbase_hole1)&quot;**&#45;&gt;&quot;precondition:\n can_manipulate(clampgripper, shaft1)&quot;**</title>
<path fill="none" stroke="black" d="M5059.32,-540.31C5059.32,-529.09 5059.32,-515.26 5059.32,-502.2"/>
<polygon fill="black" stroke="black" points="5062.82,-501.95 5059.32,-491.95 5055.82,-501.95 5062.82,-501.95"/>
</g>
<!-- &quot;selector:\n insert(left_hand, clampgripper, shaft1, gearbase_hole1)&quot;*** -->
<g id="node29" class="node">
<title>&quot;selector:\n insert(left_hand, clampgripper, shaft1, gearbase_hole1)&quot;***</title>
<polygon fill="#8deeee" stroke="black" points="6212.04,-442.54 6212.04,-473.18 5960.9,-494.84 5605.75,-494.84 5354.61,-473.18 5354.61,-442.54 5605.75,-420.88 5960.9,-420.88 6212.04,-442.54"/>
<text text-anchor="middle" x="5783.32" y="-463.46" font-family="Times,serif" font-size="18.00">&quot;selector:</text>
<text text-anchor="middle" x="5783.32" y="-443.46" font-family="Times,serif" font-size="18.00"> insert(left_hand, clampgripper, shaft1, gearbase_hole1)&quot;***</text>
</g>
<!-- &quot;sequence:\n insert(left_hand, clampgripper, shaft1, gearbase_hole1)&quot;**&#45;&gt;&quot;selector:\n insert(left_hand, clampgripper, shaft1, gearbase_hole1)&quot;*** -->
<g id="edge28" class="edge">
<title>&quot;sequence:\n insert(left_hand, clampgripper, shaft1, gearbase_hole1)&quot;**&#45;&gt;&quot;selector:\n insert(left_hand, clampgripper, shaft1, gearbase_hole1)&quot;***</title>
<path fill="none" stroke="black" d="M5218.66,-540.5C5316.06,-526.42 5442.34,-508.16 5550.78,-492.48"/>
<polygon fill="black" stroke="black" points="5551.48,-495.92 5560.88,-491.02 5550.48,-488.99 5551.48,-495.92"/>
</g>
<!-- &quot;action:\n insert(left_hand, clampgripper, shaft1, gearbase_hole1)&quot;** -->
<g id="node42" class="node">
<title>&quot;action:\n insert(left_hand, clampgripper, shaft1, gearbase_hole1)&quot;**</title>
<ellipse fill="lightgreen" stroke="black" cx="6619.32" cy="-457.86" rx="389.73" ry="33.88"/>
<text text-anchor="middle" x="6619.32" y="-463.46" font-family="Times,serif" font-size="18.00">&quot;action:</text>
<text text-anchor="middle" x="6619.32" y="-443.46" font-family="Times,serif" font-size="18.00"> insert(left_hand, clampgripper, shaft1, gearbase_hole1)&quot;**</text>
</g>
<!-- &quot;sequence:\n insert(left_hand, clampgripper, shaft1, gearbase_hole1)&quot;**&#45;&gt;&quot;action:\n insert(left_hand, clampgripper, shaft1, gearbase_hole1)&quot;** -->
<g id="edge41" class="edge">
<title>&quot;sequence:\n insert(left_hand, clampgripper, shaft1, gearbase_hole1)&quot;**&#45;&gt;&quot;action:\n insert(left_hand, clampgripper, shaft1, gearbase_hole1)&quot;**</title>
<path fill="none" stroke="black" d="M5335.06,-549.54C5570.6,-537.01 5918.4,-517.18 6221.32,-494.6 6263.04,-491.49 6307.19,-487.86 6350.31,-484.13"/>
<polygon fill="black" stroke="black" points="6350.71,-487.61 6360.37,-483.26 6350.1,-480.64 6350.71,-487.61"/>
</g>
<!-- &quot;target:\n is_inserted_to(shaft1, gearbase_hole1)&quot;*** -->
<g id="node30" class="node">
<title>&quot;target:\n is_inserted_to(shaft1, gearbase_hole1)&quot;***</title>
<ellipse fill="#ffec8b" stroke="black" cx="5491.32" cy="-351.18" rx="286.26" ry="33.88"/>
<text text-anchor="middle" x="5491.32" y="-356.78" font-family="Times,serif" font-size="18.00">&quot;target:</text>
<text text-anchor="middle" x="5491.32" y="-336.78" font-family="Times,serif" font-size="18.00"> is_inserted_to(shaft1, gearbase_hole1)&quot;***</text>
</g>
<!-- &quot;selector:\n insert(left_hand, clampgripper, shaft1, gearbase_hole1)&quot;***&#45;&gt;&quot;target:\n is_inserted_to(shaft1, gearbase_hole1)&quot;*** -->
<g id="edge29" class="edge">
<title>&quot;selector:\n insert(left_hand, clampgripper, shaft1, gearbase_hole1)&quot;***&#45;&gt;&quot;target:\n is_inserted_to(shaft1, gearbase_hole1)&quot;***</title>
<path fill="none" stroke="black" d="M5683.24,-420.98C5652.7,-410.03 5619.18,-398.02 5588.82,-387.13"/>
<polygon fill="black" stroke="black" points="5589.67,-383.72 5579.08,-383.64 5587.31,-390.31 5589.67,-383.72"/>
</g>
<!-- &quot;sequence:\n insert(left_hand, clampgripper, shaft1, gearbase_hole1)&quot;*** -->
<g id="node31" class="node">
<title>&quot;sequence:\n insert(left_hand, clampgripper, shaft1, gearbase_hole1)&quot;***</title>
<polygon fill="#ff7f24" stroke="black" points="6355.32,-375.18 5795.32,-375.18 5795.32,-327.18 6355.32,-327.18 6355.32,-375.18"/>
<text text-anchor="middle" x="6075.32" y="-356.78" font-family="Times,serif" font-size="18.00">&quot;sequence:</text>
<text text-anchor="middle" x="6075.32" y="-336.78" font-family="Times,serif" font-size="18.00"> insert(left_hand, clampgripper, shaft1, gearbase_hole1)&quot;***</text>
</g>
<!-- &quot;selector:\n insert(left_hand, clampgripper, shaft1, gearbase_hole1)&quot;***&#45;&gt;&quot;sequence:\n insert(left_hand, clampgripper, shaft1, gearbase_hole1)&quot;*** -->
<g id="edge30" class="edge">
<title>&quot;selector:\n insert(left_hand, clampgripper, shaft1, gearbase_hole1)&quot;***&#45;&gt;&quot;sequence:\n insert(left_hand, clampgripper, shaft1, gearbase_hole1)&quot;***</title>
<path fill="none" stroke="black" d="M5883.41,-420.98C5922.04,-407.13 5965.45,-391.57 6001.19,-378.76"/>
<polygon fill="black" stroke="black" points="6002.83,-381.89 6011.06,-375.22 6000.47,-375.3 6002.83,-381.89"/>
</g>
<!-- &quot;precondition:\n hold(left_hand, clampgripper)&quot;*** -->
<g id="node32" class="node">
<title>&quot;precondition:\n hold(left_hand, clampgripper)&quot;***</title>
<ellipse fill="#ffec8b" stroke="black" cx="5115.32" cy="-244.5" rx="231.86" ry="33.88"/>
<text text-anchor="middle" x="5115.32" y="-250.1" font-family="Times,serif" font-size="18.00">&quot;precondition:</text>
<text text-anchor="middle" x="5115.32" y="-230.1" font-family="Times,serif" font-size="18.00"> hold(left_hand, clampgripper)&quot;***</text>
</g>
<!-- &quot;sequence:\n insert(left_hand, clampgripper, shaft1, gearbase_hole1)&quot;***&#45;&gt;&quot;precondition:\n hold(left_hand, clampgripper)&quot;*** -->
<g id="edge31" class="edge">
<title>&quot;sequence:\n insert(left_hand, clampgripper, shaft1, gearbase_hole1)&quot;***&#45;&gt;&quot;precondition:\n hold(left_hand, clampgripper)&quot;***</title>
<path fill="none" stroke="black" d="M5880.31,-327.15C5848.9,-323.67 5816.73,-320.24 5786.32,-317.24 5595.47,-298.38 5546.83,-303.32 5356.32,-281.24 5331.56,-278.37 5305.43,-274.93 5279.88,-271.33"/>
<polygon fill="black" stroke="black" points="5280.13,-267.83 5269.73,-269.89 5279.14,-274.76 5280.13,-267.83"/>
</g>
<!-- &quot;precondition:\n hold(clampgripper, shaft1)&quot;** -->
<g id="node33" class="node">
<title>&quot;precondition:\n hold(clampgripper, shaft1)&quot;**</title>
<ellipse fill="#ffec8b" stroke="black" cx="5569.32" cy="-244.5" rx="204.21" ry="33.88"/>
<text text-anchor="middle" x="5569.32" y="-250.1" font-family="Times,serif" font-size="18.00">&quot;precondition:</text>
<text text-anchor="middle" x="5569.32" y="-230.1" font-family="Times,serif" font-size="18.00"> hold(clampgripper, shaft1)&quot;**</text>
</g>
<!-- &quot;sequence:\n insert(left_hand, clampgripper, shaft1, gearbase_hole1)&quot;***&#45;&gt;&quot;precondition:\n hold(clampgripper, shaft1)&quot;** -->
<g id="edge32" class="edge">
<title>&quot;sequence:\n insert(left_hand, clampgripper, shaft1, gearbase_hole1)&quot;***&#45;&gt;&quot;precondition:\n hold(clampgripper, shaft1)&quot;**</title>
<path fill="none" stroke="black" d="M5963.97,-327.14C5887.65,-311.36 5785.96,-290.32 5704.92,-273.55"/>
<polygon fill="black" stroke="black" points="5705.14,-270.03 5694.64,-271.43 5703.72,-276.88 5705.14,-270.03"/>
</g>
<!-- &quot;precondition:\n can_manipulate(clampgripper, shaft1)&quot;*** -->
<g id="node34" class="node">
<title>&quot;precondition:\n can_manipulate(clampgripper, shaft1)&quot;***</title>
<ellipse fill="#ffec8b" stroke="black" cx="6075.32" cy="-244.5" rx="283.6" ry="33.88"/>
<text text-anchor="middle" x="6075.32" y="-250.1" font-family="Times,serif" font-size="18.00">&quot;precondition:</text>
<text text-anchor="middle" x="6075.32" y="-230.1" font-family="Times,serif" font-size="18.00"> can_manipulate(clampgripper, shaft1)&quot;***</text>
</g>
<!-- &quot;sequence:\n insert(left_hand, clampgripper, shaft1, gearbase_hole1)&quot;***&#45;&gt;&quot;precondition:\n can_manipulate(clampgripper, shaft1)&quot;*** -->
<g id="edge33" class="edge">
<title>&quot;sequence:\n insert(left_hand, clampgripper, shaft1, gearbase_hole1)&quot;***&#45;&gt;&quot;precondition:\n can_manipulate(clampgripper, shaft1)&quot;***</title>
<path fill="none" stroke="black" d="M6075.32,-326.95C6075.32,-315.73 6075.32,-301.9 6075.32,-288.84"/>
<polygon fill="black" stroke="black" points="6078.82,-288.6 6075.32,-278.6 6071.82,-288.6 6078.82,-288.6"/>
</g>
<!-- &quot;selector:\n insert(left_hand, clampgripper, shaft1, gearbase_hole1)&quot;**** -->
<g id="node35" class="node">
<title>&quot;selector:\n insert(left_hand, clampgripper, shaft1, gearbase_hole1)&quot;****</title>
<polygon fill="#8deeee" stroke="black" points="7247.81,-229.19 7247.81,-259.82 6992.71,-281.48 6631.94,-281.48 6376.84,-259.82 6376.84,-229.19 6631.94,-207.53 6992.71,-207.53 7247.81,-229.19"/>
<text text-anchor="middle" x="6812.32" y="-250.1" font-family="Times,serif" font-size="18.00">&quot;selector:</text>
<text text-anchor="middle" x="6812.32" y="-230.1" font-family="Times,serif" font-size="18.00"> insert(left_hand, clampgripper, shaft1, gearbase_hole1)&quot;****</text>
</g>
<!-- &quot;sequence:\n insert(left_hand, clampgripper, shaft1, gearbase_hole1)&quot;***&#45;&gt;&quot;selector:\n insert(left_hand, clampgripper, shaft1, gearbase_hole1)&quot;**** -->
<g id="edge34" class="edge">
<title>&quot;sequence:\n insert(left_hand, clampgripper, shaft1, gearbase_hole1)&quot;***&#45;&gt;&quot;selector:\n insert(left_hand, clampgripper, shaft1, gearbase_hole1)&quot;****</title>
<path fill="none" stroke="black" d="M6237.52,-327.14C6336.87,-313.03 6465.74,-294.73 6576.28,-279.03"/>
<polygon fill="black" stroke="black" points="6576.83,-282.49 6586.24,-277.61 6575.84,-275.56 6576.83,-282.49"/>
</g>
<!-- &quot;action:\n insert(left_hand, clampgripper, shaft1, gearbase_hole1)&quot;* -->
<g id="node41" class="node">
<title>&quot;action:\n insert(left_hand, clampgripper, shaft1, gearbase_hole1)&quot;*</title>
<ellipse fill="lightgreen" stroke="black" cx="7649.32" cy="-244.5" rx="383" ry="33.88"/>
<text text-anchor="middle" x="7649.32" y="-250.1" font-family="Times,serif" font-size="18.00">&quot;action:</text>
<text text-anchor="middle" x="7649.32" y="-230.1" font-family="Times,serif" font-size="18.00"> insert(left_hand, clampgripper, shaft1, gearbase_hole1)&quot;*</text>
</g>
<!-- &quot;sequence:\n insert(left_hand, clampgripper, shaft1, gearbase_hole1)&quot;***&#45;&gt;&quot;action:\n insert(left_hand, clampgripper, shaft1, gearbase_hole1)&quot;* -->
<g id="edge40" class="edge">
<title>&quot;sequence:\n insert(left_hand, clampgripper, shaft1, gearbase_hole1)&quot;***&#45;&gt;&quot;action:\n insert(left_hand, clampgripper, shaft1, gearbase_hole1)&quot;*</title>
<path fill="none" stroke="black" d="M6355.57,-336.38C6594.97,-323.98 6948.46,-304.22 7256.32,-281.24 7297.84,-278.14 7341.79,-274.5 7384.68,-270.75"/>
<polygon fill="black" stroke="black" points="7385.03,-274.23 7394.68,-269.87 7384.41,-267.26 7385.03,-274.23"/>
</g>
<!-- &quot;target:\n is_inserted_to(shaft1, gearbase_hole1)&quot;**** -->
<g id="node36" class="node">
<title>&quot;target:\n is_inserted_to(shaft1, gearbase_hole1)&quot;****</title>
<ellipse fill="#ffec8b" stroke="black" cx="6515.32" cy="-137.82" rx="292.98" ry="33.88"/>
<text text-anchor="middle" x="6515.32" y="-143.42" font-family="Times,serif" font-size="18.00">&quot;target:</text>
<text text-anchor="middle" x="6515.32" y="-123.42" font-family="Times,serif" font-size="18.00"> is_inserted_to(shaft1, gearbase_hole1)&quot;****</text>
</g>
<!-- &quot;selector:\n insert(left_hand, clampgripper, shaft1, gearbase_hole1)&quot;****&#45;&gt;&quot;target:\n is_inserted_to(shaft1, gearbase_hole1)&quot;**** -->
<g id="edge35" class="edge">
<title>&quot;selector:\n insert(left_hand, clampgripper, shaft1, gearbase_hole1)&quot;****&#45;&gt;&quot;target:\n is_inserted_to(shaft1, gearbase_hole1)&quot;****</title>
<path fill="none" stroke="black" d="M6710.53,-207.62C6679.33,-196.63 6645.07,-184.55 6614.08,-173.63"/>
<polygon fill="black" stroke="black" points="6615.17,-170.3 6604.58,-170.28 6612.85,-176.91 6615.17,-170.3"/>
</g>
<!-- &quot;sequence:\n insert(left_hand, clampgripper, shaft1, gearbase_hole1)&quot;**** -->
<g id="node37" class="node">
<title>&quot;sequence:\n insert(left_hand, clampgripper, shaft1, gearbase_hole1)&quot;****</title>
<polygon fill="#ff7f24" stroke="black" points="7394.82,-161.82 6825.82,-161.82 6825.82,-113.82 7394.82,-113.82 7394.82,-161.82"/>
<text text-anchor="middle" x="7110.32" y="-143.42" font-family="Times,serif" font-size="18.00">&quot;sequence:</text>
<text text-anchor="middle" x="7110.32" y="-123.42" font-family="Times,serif" font-size="18.00"> insert(left_hand, clampgripper, shaft1, gearbase_hole1)&quot;****</text>
</g>
<!-- &quot;selector:\n insert(left_hand, clampgripper, shaft1, gearbase_hole1)&quot;****&#45;&gt;&quot;sequence:\n insert(left_hand, clampgripper, shaft1, gearbase_hole1)&quot;**** -->
<g id="edge36" class="edge">
<title>&quot;selector:\n insert(left_hand, clampgripper, shaft1, gearbase_hole1)&quot;****&#45;&gt;&quot;sequence:\n insert(left_hand, clampgripper, shaft1, gearbase_hole1)&quot;****</title>
<path fill="none" stroke="black" d="M6914.46,-207.62C6954.06,-193.72 6998.57,-178.08 7035.14,-165.23"/>
<polygon fill="black" stroke="black" points="7036.47,-168.48 7044.74,-161.86 7034.15,-161.87 7036.47,-168.48"/>
</g>
<!-- &quot;precondition:\n hold(left_hand, clampgripper)&quot;**** -->
<g id="node38" class="node">
<title>&quot;precondition:\n hold(left_hand, clampgripper)&quot;****</title>
<ellipse fill="#ffec8b" stroke="black" cx="6643.32" cy="-33.94" rx="238.09" ry="33.88"/>
<text text-anchor="middle" x="6643.32" y="-39.54" font-family="Times,serif" font-size="18.00">&quot;precondition:</text>
<text text-anchor="middle" x="6643.32" y="-19.54" font-family="Times,serif" font-size="18.00"> hold(left_hand, clampgripper)&quot;****</text>
</g>
<!-- &quot;sequence:\n insert(left_hand, clampgripper, shaft1, gearbase_hole1)&quot;****&#45;&gt;&quot;precondition:\n hold(left_hand, clampgripper)&quot;**** -->
<g id="edge37" class="edge">
<title>&quot;sequence:\n insert(left_hand, clampgripper, shaft1, gearbase_hole1)&quot;****&#45;&gt;&quot;precondition:\n hold(left_hand, clampgripper)&quot;****</title>
<path fill="none" stroke="black" d="M7004.65,-113.77C6938.35,-99.3 6852.17,-80.5 6780.61,-64.89"/>
<polygon fill="black" stroke="black" points="6781.13,-61.42 6770.61,-62.71 6779.64,-68.26 6781.13,-61.42"/>
</g>
<!-- &quot;precondition:\n hold(clampgripper, shaft1)&quot;*** -->
<g id="node39" class="node">
<title>&quot;precondition:\n hold(clampgripper, shaft1)&quot;***</title>
<ellipse fill="#ffec8b" stroke="black" cx="7110.32" cy="-33.94" rx="210.94" ry="33.88"/>
<text text-anchor="middle" x="7110.32" y="-39.54" font-family="Times,serif" font-size="18.00">&quot;precondition:</text>
<text text-anchor="middle" x="7110.32" y="-19.54" font-family="Times,serif" font-size="18.00"> hold(clampgripper, shaft1)&quot;***</text>
</g>
<!-- &quot;sequence:\n insert(left_hand, clampgripper, shaft1, gearbase_hole1)&quot;****&#45;&gt;&quot;precondition:\n hold(clampgripper, shaft1)&quot;*** -->
<g id="edge38" class="edge">
<title>&quot;sequence:\n insert(left_hand, clampgripper, shaft1, gearbase_hole1)&quot;****&#45;&gt;&quot;precondition:\n hold(clampgripper, shaft1)&quot;***</title>
<path fill="none" stroke="black" d="M7110.32,-113.7C7110.32,-103.16 7110.32,-90.31 7110.32,-78.08"/>
<polygon fill="black" stroke="black" points="7113.82,-78.01 7110.32,-68.01 7106.82,-78.01 7113.82,-78.01"/>
</g>
<!-- action:
 insert(left_hand, clampgripper, shaft1, gearbase_hole1) -->
<g id="node40" class="node">
<title>action:
 insert(left_hand, clampgripper, shaft1, gearbase_hole1)</title>
<ellipse fill="lightgreen" stroke="black" cx="7709.32" cy="-33.94" rx="370.55" ry="33.88"/>
<text text-anchor="middle" x="7709.32" y="-39.54" font-family="Times,serif" font-size="18.00">action:</text>
<text text-anchor="middle" x="7709.32" y="-19.54" font-family="Times,serif" font-size="18.00"> insert(left_hand, clampgripper, shaft1, gearbase_hole1)</text>
</g>
<!-- &quot;sequence:\n insert(left_hand, clampgripper, shaft1, gearbase_hole1)&quot;****&#45;&gt;action:
 insert(left_hand, clampgripper, shaft1, gearbase_hole1) -->
<g id="edge39" class="edge">
<title>&quot;sequence:\n insert(left_hand, clampgripper, shaft1, gearbase_hole1)&quot;****&#45;&gt;action:
 insert(left_hand, clampgripper, shaft1, gearbase_hole1)</title>
<path fill="none" stroke="black" d="M7245.87,-113.77C7329.28,-99.58 7437.22,-81.22 7527.94,-65.79"/>
<polygon fill="black" stroke="black" points="7528.79,-69.2 7538.06,-64.07 7527.62,-62.3 7528.79,-69.2"/>
</g>
</g>
</svg>
