<?xml version="1.0" encoding="UTF-8" standalone="no"?>
<!DOCTYPE svg PUBLIC "-//W3C//DTD SVG 1.1//EN"
 "http://www.w3.org/Graphics/SVG/1.1/DTD/svg11.dtd">
<!-- Generated by graphviz version 2.43.0 (0)
 -->
<!-- Title: pastafarianism Pages: 1 -->
<svg width="6638pt" height="716pt"
 viewBox="0.00 0.00 6637.85 715.95" xmlns="http://www.w3.org/2000/svg" xmlns:xlink="http://www.w3.org/1999/xlink">
<g id="graph0" class="graph" transform="scale(1 1) rotate(0) translate(4 711.95)">
<title>pastafarianism</title>
<polygon fill="white" stroke="transparent" points="-4,4 -4,-711.95 6633.85,-711.95 6633.85,4 -4,4"/>
<!-- selector:
 insert(left_hand, clampgripper, shaft1, gearbase_hole1) -->
<g id="node1" class="node">
<title>selector:
 insert(left_hand, clampgripper, shaft1, gearbase_hole1)</title>
<polygon fill="#8deeee" stroke="black" points="2606.43,-655.9 2606.43,-686.53 2371.47,-708.19 2039.18,-708.19 1804.22,-686.53 1804.22,-655.9 2039.18,-634.24 2371.47,-634.24 2606.43,-655.9"/>
<text text-anchor="middle" x="2205.32" y="-676.82" font-family="Times,serif" font-size="18.00">selector:</text>
<text text-anchor="middle" x="2205.32" y="-656.82" font-family="Times,serif" font-size="18.00"> insert(left_hand, clampgripper, shaft1, gearbase_hole1)</text>
</g>
<!-- target:
 is_inserted_to(shaft1, gearbase_hole1) -->
<g id="node2" class="node">
<title>target:
 is_inserted_to(shaft1, gearbase_hole1)</title>
<ellipse fill="#ffec8b" stroke="black" cx="1934.32" cy="-564.54" rx="261.76" ry="33.88"/>
<text text-anchor="middle" x="1934.32" y="-570.14" font-family="Times,serif" font-size="18.00">target:</text>
<text text-anchor="middle" x="1934.32" y="-550.14" font-family="Times,serif" font-size="18.00"> is_inserted_to(shaft1, gearbase_hole1)</text>
</g>
<!-- selector:
 insert(left_hand, clampgripper, shaft1, gearbase_hole1)&#45;&gt;target:
 is_inserted_to(shaft1, gearbase_hole1) -->
<g id="edge1" class="edge">
<title>selector:
 insert(left_hand, clampgripper, shaft1, gearbase_hole1)&#45;&gt;target:
 is_inserted_to(shaft1, gearbase_hole1)</title>
<path fill="none" stroke="black" d="M2112.44,-634.34C2084.08,-623.39 2052.95,-611.36 2024.76,-600.47"/>
<polygon fill="black" stroke="black" points="2025.91,-597.16 2015.32,-596.82 2023.39,-603.69 2025.91,-597.16"/>
</g>
<!-- sequence:
 insert(left_hand, clampgripper, shaft1, gearbase_hole1) -->
<g id="node3" class="node">
<title>sequence:
 insert(left_hand, clampgripper, shaft1, gearbase_hole1)</title>
<polygon fill="#ff7f24" stroke="black" points="2738.32,-588.54 2214.32,-588.54 2214.32,-540.54 2738.32,-540.54 2738.32,-588.54"/>
<text text-anchor="middle" x="2476.32" y="-570.14" font-family="Times,serif" font-size="18.00">sequence:</text>
<text text-anchor="middle" x="2476.32" y="-550.14" font-family="Times,serif" font-size="18.00"> insert(left_hand, clampgripper, shaft1, gearbase_hole1)</text>
</g>
<!-- selector:
 insert(left_hand, clampgripper, shaft1, gearbase_hole1)&#45;&gt;sequence:
 insert(left_hand, clampgripper, shaft1, gearbase_hole1) -->
<g id="edge2" class="edge">
<title>selector:
 insert(left_hand, clampgripper, shaft1, gearbase_hole1)&#45;&gt;sequence:
 insert(left_hand, clampgripper, shaft1, gearbase_hole1)</title>
<path fill="none" stroke="black" d="M2298.21,-634.34C2333.91,-620.55 2374,-605.06 2407.1,-592.28"/>
<polygon fill="black" stroke="black" points="2408.62,-595.44 2416.68,-588.58 2406.1,-588.91 2408.62,-595.44"/>
</g>
<!-- selector:
 change_tool(left_hand, outwardgripper, clampgripper) -->
<g id="node4" class="node">
<title>selector:
 change_tool(left_hand, outwardgripper, clampgripper)</title>
<polygon fill="#8deeee" stroke="black" points="1256.09,-442.54 1256.09,-473.18 1026.01,-494.84 700.64,-494.84 470.56,-473.18 470.56,-442.54 700.64,-420.88 1026.01,-420.88 1256.09,-442.54"/>
<text text-anchor="middle" x="863.32" y="-463.46" font-family="Times,serif" font-size="18.00">selector:</text>
<text text-anchor="middle" x="863.32" y="-443.46" font-family="Times,serif" font-size="18.00"> change_tool(left_hand, outwardgripper, clampgripper)</text>
</g>
<!-- sequence:
 insert(left_hand, clampgripper, shaft1, gearbase_hole1)&#45;&gt;selector:
 change_tool(left_hand, outwardgripper, clampgripper) -->
<g id="edge3" class="edge">
<title>sequence:
 insert(left_hand, clampgripper, shaft1, gearbase_hole1)&#45;&gt;selector:
 change_tool(left_hand, outwardgripper, clampgripper)</title>
<path fill="none" stroke="black" d="M2301.57,-540.54C2269.59,-536.83 2236.49,-533.32 2205.32,-530.6 2110.7,-522.33 1593.4,-495.55 1229.47,-477.16"/>
<polygon fill="black" stroke="black" points="1229.45,-473.65 1219.29,-476.64 1229.1,-480.64 1229.45,-473.65"/>
</g>
<!-- selector:
 pick_up(left_hand, clampgripper, shaft1) -->
<g id="node10" class="node">
<title>selector:
 pick_up(left_hand, clampgripper, shaft1)</title>
<polygon fill="#8deeee" stroke="black" points="2199.28,-442.54 2199.28,-473.18 2024.74,-494.84 1777.91,-494.84 1603.37,-473.18 1603.37,-442.54 1777.91,-420.88 2024.74,-420.88 2199.28,-442.54"/>
<text text-anchor="middle" x="1901.32" y="-463.46" font-family="Times,serif" font-size="18.00">selector:</text>
<text text-anchor="middle" x="1901.32" y="-443.46" font-family="Times,serif" font-size="18.00"> pick_up(left_hand, clampgripper, shaft1)</text>
</g>
<!-- sequence:
 insert(left_hand, clampgripper, shaft1, gearbase_hole1)&#45;&gt;selector:
 pick_up(left_hand, clampgripper, shaft1) -->
<g id="edge9" class="edge">
<title>sequence:
 insert(left_hand, clampgripper, shaft1, gearbase_hole1)&#45;&gt;selector:
 pick_up(left_hand, clampgripper, shaft1)</title>
<path fill="none" stroke="black" d="M2349.78,-540.5C2270.35,-526.04 2166.72,-507.17 2079.09,-491.22"/>
<polygon fill="black" stroke="black" points="2079.5,-487.74 2069.04,-489.39 2078.25,-494.63 2079.5,-487.74"/>
</g>
<!-- precondition:
 can_manipulate(clampgripper, shaft1) -->
<g id="node16" class="node">
<title>precondition:
 can_manipulate(clampgripper, shaft1)</title>
<ellipse fill="#ffec8b" stroke="black" cx="2476.32" cy="-457.86" rx="258.6" ry="33.88"/>
<text text-anchor="middle" x="2476.32" y="-463.46" font-family="Times,serif" font-size="18.00">precondition:</text>
<text text-anchor="middle" x="2476.32" y="-443.46" font-family="Times,serif" font-size="18.00"> can_manipulate(clampgripper, shaft1)</text>
</g>
<!-- sequence:
 insert(left_hand, clampgripper, shaft1, gearbase_hole1)&#45;&gt;precondition:
 can_manipulate(clampgripper, shaft1) -->
<g id="edge15" class="edge">
<title>sequence:
 insert(left_hand, clampgripper, shaft1, gearbase_hole1)&#45;&gt;precondition:
 can_manipulate(clampgripper, shaft1)</title>
<path fill="none" stroke="black" d="M2476.32,-540.31C2476.32,-529.09 2476.32,-515.26 2476.32,-502.2"/>
<polygon fill="black" stroke="black" points="2479.82,-501.95 2476.32,-491.95 2472.82,-501.95 2479.82,-501.95"/>
</g>
<!-- &quot;selector:\n insert(left_hand, clampgripper, shaft1, gearbase_hole1)&quot;* -->
<g id="node17" class="node">
<title>&quot;selector:\n insert(left_hand, clampgripper, shaft1, gearbase_hole1)&quot;*</title>
<polygon fill="#8deeee" stroke="black" points="3582.98,-442.54 3582.98,-473.18 3340.08,-494.84 2996.57,-494.84 2753.67,-473.18 2753.67,-442.54 2996.57,-420.88 3340.08,-420.88 3582.98,-442.54"/>
<text text-anchor="middle" x="3168.32" y="-463.46" font-family="Times,serif" font-size="18.00">&quot;selector:</text>
<text text-anchor="middle" x="3168.32" y="-443.46" font-family="Times,serif" font-size="18.00"> insert(left_hand, clampgripper, shaft1, gearbase_hole1)&quot;*</text>
</g>
<!-- sequence:
 insert(left_hand, clampgripper, shaft1, gearbase_hole1)&#45;&gt;&quot;selector:\n insert(left_hand, clampgripper, shaft1, gearbase_hole1)&quot;* -->
<g id="edge16" class="edge">
<title>sequence:
 insert(left_hand, clampgripper, shaft1, gearbase_hole1)&#45;&gt;&quot;selector:\n insert(left_hand, clampgripper, shaft1, gearbase_hole1)&quot;*</title>
<path fill="none" stroke="black" d="M2628.61,-540.5C2721.33,-526.48 2841.42,-508.31 2944.78,-492.68"/>
<polygon fill="black" stroke="black" points="2945.36,-496.13 2954.72,-491.17 2944.31,-489.21 2945.36,-496.13"/>
</g>
<!-- &quot;action:\n insert(left_hand, clampgripper, shaft1, gearbase_hole1)&quot;** -->
<g id="node32" class="node">
<title>&quot;action:\n insert(left_hand, clampgripper, shaft1, gearbase_hole1)&quot;**</title>
<ellipse fill="lightgreen" stroke="black" cx="3990.32" cy="-457.86" rx="389.73" ry="33.88"/>
<text text-anchor="middle" x="3990.32" y="-463.46" font-family="Times,serif" font-size="18.00">&quot;action:</text>
<text text-anchor="middle" x="3990.32" y="-443.46" font-family="Times,serif" font-size="18.00"> insert(left_hand, clampgripper, shaft1, gearbase_hole1)&quot;**</text>
</g>
<!-- sequence:
 insert(left_hand, clampgripper, shaft1, gearbase_hole1)&#45;&gt;&quot;action:\n insert(left_hand, clampgripper, shaft1, gearbase_hole1)&quot;** -->
<g id="edge31" class="edge">
<title>sequence:
 insert(left_hand, clampgripper, shaft1, gearbase_hole1)&#45;&gt;&quot;action:\n insert(left_hand, clampgripper, shaft1, gearbase_hole1)&quot;**</title>
<path fill="none" stroke="black" d="M2738.6,-549.4C2964.84,-536.72 3300.28,-516.72 3592.32,-494.6 3633.88,-491.45 3677.85,-487.81 3720.81,-484.08"/>
<polygon fill="black" stroke="black" points="3721.17,-487.57 3730.83,-483.21 3720.56,-480.59 3721.17,-487.57"/>
</g>
<!-- target:
 hold(left_hand, clampgripper) -->
<g id="node5" class="node">
<title>target:
 hold(left_hand, clampgripper)</title>
<ellipse fill="#ffec8b" stroke="black" cx="381.32" cy="-351.18" rx="207.36" ry="33.88"/>
<text text-anchor="middle" x="381.32" y="-356.78" font-family="Times,serif" font-size="18.00">target:</text>
<text text-anchor="middle" x="381.32" y="-336.78" font-family="Times,serif" font-size="18.00"> hold(left_hand, clampgripper)</text>
</g>
<!-- selector:
 change_tool(left_hand, outwardgripper, clampgripper)&#45;&gt;target:
 hold(left_hand, clampgripper) -->
<g id="edge4" class="edge">
<title>selector:
 change_tool(left_hand, outwardgripper, clampgripper)&#45;&gt;target:
 hold(left_hand, clampgripper)</title>
<path fill="none" stroke="black" d="M698.46,-421.05C638.03,-407.93 570.47,-393.26 513.3,-380.84"/>
<polygon fill="black" stroke="black" points="514,-377.41 503.48,-378.71 512.51,-384.25 514,-377.41"/>
</g>
<!-- sequence:
 change_tool(left_hand, outwardgripper, clampgripper) -->
<g id="node6" class="node">
<title>sequence:
 change_tool(left_hand, outwardgripper, clampgripper)</title>
<polygon fill="#ff7f24" stroke="black" points="1119.82,-375.18 606.82,-375.18 606.82,-327.18 1119.82,-327.18 1119.82,-375.18"/>
<text text-anchor="middle" x="863.32" y="-356.78" font-family="Times,serif" font-size="18.00">sequence:</text>
<text text-anchor="middle" x="863.32" y="-336.78" font-family="Times,serif" font-size="18.00"> change_tool(left_hand, outwardgripper, clampgripper)</text>
</g>
<!-- selector:
 change_tool(left_hand, outwardgripper, clampgripper)&#45;&gt;sequence:
 change_tool(left_hand, outwardgripper, clampgripper) -->
<g id="edge5" class="edge">
<title>selector:
 change_tool(left_hand, outwardgripper, clampgripper)&#45;&gt;sequence:
 change_tool(left_hand, outwardgripper, clampgripper)</title>
<path fill="none" stroke="black" d="M863.32,-420.84C863.32,-409.45 863.32,-396.92 863.32,-385.72"/>
<polygon fill="black" stroke="black" points="866.82,-385.47 863.32,-375.47 859.82,-385.47 866.82,-385.47"/>
</g>
<!-- precondition:
 hold(left_hand, outwardgripper) -->
<g id="node7" class="node">
<title>precondition:
 hold(left_hand, outwardgripper)</title>
<ellipse fill="#ffec8b" stroke="black" cx="221.32" cy="-244.5" rx="221.15" ry="33.88"/>
<text text-anchor="middle" x="221.32" y="-250.1" font-family="Times,serif" font-size="18.00">precondition:</text>
<text text-anchor="middle" x="221.32" y="-230.1" font-family="Times,serif" font-size="18.00"> hold(left_hand, outwardgripper)</text>
</g>
<!-- sequence:
 change_tool(left_hand, outwardgripper, clampgripper)&#45;&gt;precondition:
 hold(left_hand, outwardgripper) -->
<g id="edge6" class="edge">
<title>sequence:
 change_tool(left_hand, outwardgripper, clampgripper)&#45;&gt;precondition:
 hold(left_hand, outwardgripper)</title>
<path fill="none" stroke="black" d="M722.04,-327.14C620.91,-310.66 484.68,-288.44 379.84,-271.35"/>
<polygon fill="black" stroke="black" points="380.23,-267.87 369.8,-269.71 379.11,-274.77 380.23,-267.87"/>
</g>
<!-- precondition:
 is_empty(outwardgripper) -->
<g id="node8" class="node">
<title>precondition:
 is_empty(outwardgripper)</title>
<ellipse fill="#ffec8b" stroke="black" cx="643.32" cy="-244.5" rx="183.28" ry="33.88"/>
<text text-anchor="middle" x="643.32" y="-250.1" font-family="Times,serif" font-size="18.00">precondition:</text>
<text text-anchor="middle" x="643.32" y="-230.1" font-family="Times,serif" font-size="18.00"> is_empty(outwardgripper)</text>
</g>
<!-- sequence:
 change_tool(left_hand, outwardgripper, clampgripper)&#45;&gt;precondition:
 is_empty(outwardgripper) -->
<g id="edge7" class="edge">
<title>sequence:
 change_tool(left_hand, outwardgripper, clampgripper)&#45;&gt;precondition:
 is_empty(outwardgripper)</title>
<path fill="none" stroke="black" d="M814.77,-327.08C786.21,-313.49 749.51,-296.03 717.4,-280.75"/>
<polygon fill="black" stroke="black" points="718.57,-277.43 708.04,-276.29 715.56,-283.75 718.57,-277.43"/>
</g>
<!-- action:
 change_tool(left_hand, outwardgripper, clampgripper) -->
<g id="node9" class="node">
<title>action:
 change_tool(left_hand, outwardgripper, clampgripper)</title>
<ellipse fill="lightgreen" stroke="black" cx="1207.32" cy="-244.5" rx="362.99" ry="33.88"/>
<text text-anchor="middle" x="1207.32" y="-250.1" font-family="Times,serif" font-size="18.00">action:</text>
<text text-anchor="middle" x="1207.32" y="-230.1" font-family="Times,serif" font-size="18.00"> change_tool(left_hand, outwardgripper, clampgripper)</text>
</g>
<!-- sequence:
 change_tool(left_hand, outwardgripper, clampgripper)&#45;&gt;action:
 change_tool(left_hand, outwardgripper, clampgripper) -->
<g id="edge8" class="edge">
<title>sequence:
 change_tool(left_hand, outwardgripper, clampgripper)&#45;&gt;action:
 change_tool(left_hand, outwardgripper, clampgripper)</title>
<path fill="none" stroke="black" d="M939.24,-327.08C984.6,-313.28 1043.08,-295.48 1093.84,-280.04"/>
<polygon fill="black" stroke="black" points="1095,-283.34 1103.55,-277.08 1092.96,-276.64 1095,-283.34"/>
</g>
<!-- target:
 hold(clampgripper, shaft1) -->
<g id="node11" class="node">
<title>target:
 hold(clampgripper, shaft1)</title>
<ellipse fill="#ffec8b" stroke="black" cx="1791.32" cy="-351.18" rx="185.94" ry="33.88"/>
<text text-anchor="middle" x="1791.32" y="-356.78" font-family="Times,serif" font-size="18.00">target:</text>
<text text-anchor="middle" x="1791.32" y="-336.78" font-family="Times,serif" font-size="18.00"> hold(clampgripper, shaft1)</text>
</g>
<!-- selector:
 pick_up(left_hand, clampgripper, shaft1)&#45;&gt;target:
 hold(clampgripper, shaft1) -->
<g id="edge10" class="edge">
<title>selector:
 pick_up(left_hand, clampgripper, shaft1)&#45;&gt;target:
 hold(clampgripper, shaft1)</title>
<path fill="none" stroke="black" d="M1863.47,-420.84C1853.66,-411.5 1843.05,-401.4 1833.06,-391.9"/>
<polygon fill="black" stroke="black" points="1835.22,-389.12 1825.56,-384.76 1830.39,-394.19 1835.22,-389.12"/>
</g>
<!-- sequence:
 pick_up(left_hand, clampgripper, shaft1) -->
<g id="node12" class="node">
<title>sequence:
 pick_up(left_hand, clampgripper, shaft1)</title>
<polygon fill="#ff7f24" stroke="black" points="2383.82,-375.18 1994.82,-375.18 1994.82,-327.18 2383.82,-327.18 2383.82,-375.18"/>
<text text-anchor="middle" x="2189.32" y="-356.78" font-family="Times,serif" font-size="18.00">sequence:</text>
<text text-anchor="middle" x="2189.32" y="-336.78" font-family="Times,serif" font-size="18.00"> pick_up(left_hand, clampgripper, shaft1)</text>
</g>
<!-- selector:
 pick_up(left_hand, clampgripper, shaft1)&#45;&gt;sequence:
 pick_up(left_hand, clampgripper, shaft1) -->
<g id="edge11" class="edge">
<title>selector:
 pick_up(left_hand, clampgripper, shaft1)&#45;&gt;sequence:
 pick_up(left_hand, clampgripper, shaft1)</title>
<path fill="none" stroke="black" d="M2000.03,-420.98C2038.14,-407.13 2080.95,-391.57 2116.21,-378.76"/>
<polygon fill="black" stroke="black" points="2117.74,-381.92 2125.94,-375.22 2115.35,-375.34 2117.74,-381.92"/>
</g>
<!-- precondition:
 hold(left_hand, clampgripper) -->
<g id="node13" class="node">
<title>precondition:
 hold(left_hand, clampgripper)</title>
<ellipse fill="#ffec8b" stroke="black" cx="1795.32" cy="-244.5" rx="207.36" ry="33.88"/>
<text text-anchor="middle" x="1795.32" y="-250.1" font-family="Times,serif" font-size="18.00">precondition:</text>
<text text-anchor="middle" x="1795.32" y="-230.1" font-family="Times,serif" font-size="18.00"> hold(left_hand, clampgripper)</text>
</g>
<!-- sequence:
 pick_up(left_hand, clampgripper, shaft1)&#45;&gt;precondition:
 hold(left_hand, clampgripper) -->
<g id="edge12" class="edge">
<title>sequence:
 pick_up(left_hand, clampgripper, shaft1)&#45;&gt;precondition:
 hold(left_hand, clampgripper)</title>
<path fill="none" stroke="black" d="M2102.37,-327.08C2046.12,-312.13 1972.24,-292.51 1911.05,-276.25"/>
<polygon fill="black" stroke="black" points="1911.91,-272.86 1901.34,-273.67 1910.11,-279.62 1911.91,-272.86"/>
</g>
<!-- precondition:
 is_empty(clampgripper) -->
<g id="node14" class="node">
<title>precondition:
 is_empty(clampgripper)</title>
<ellipse fill="#ffec8b" stroke="black" cx="2189.32" cy="-244.5" rx="169" ry="33.88"/>
<text text-anchor="middle" x="2189.32" y="-250.1" font-family="Times,serif" font-size="18.00">precondition:</text>
<text text-anchor="middle" x="2189.32" y="-230.1" font-family="Times,serif" font-size="18.00"> is_empty(clampgripper)</text>
</g>
<!-- sequence:
 pick_up(left_hand, clampgripper, shaft1)&#45;&gt;precondition:
 is_empty(clampgripper) -->
<g id="edge13" class="edge">
<title>sequence:
 pick_up(left_hand, clampgripper, shaft1)&#45;&gt;precondition:
 is_empty(clampgripper)</title>
<path fill="none" stroke="black" d="M2189.32,-326.95C2189.32,-315.73 2189.32,-301.9 2189.32,-288.84"/>
<polygon fill="black" stroke="black" points="2192.82,-288.6 2189.32,-278.6 2185.82,-288.6 2192.82,-288.6"/>
</g>
<!-- action:
 pick_up(left_hand, clampgripper, shaft1) -->
<g id="node15" class="node">
<title>action:
 pick_up(left_hand, clampgripper, shaft1)</title>
<ellipse fill="lightgreen" stroke="black" cx="2651.32" cy="-244.5" rx="275.13" ry="33.88"/>
<text text-anchor="middle" x="2651.32" y="-250.1" font-family="Times,serif" font-size="18.00">action:</text>
<text text-anchor="middle" x="2651.32" y="-230.1" font-family="Times,serif" font-size="18.00"> pick_up(left_hand, clampgripper, shaft1)</text>
</g>
<!-- sequence:
 pick_up(left_hand, clampgripper, shaft1)&#45;&gt;action:
 pick_up(left_hand, clampgripper, shaft1) -->
<g id="edge14" class="edge">
<title>sequence:
 pick_up(left_hand, clampgripper, shaft1)&#45;&gt;action:
 pick_up(left_hand, clampgripper, shaft1)</title>
<path fill="none" stroke="black" d="M2291,-327.14C2356.21,-312.37 2441.71,-293 2513.06,-276.83"/>
<polygon fill="black" stroke="black" points="2514.05,-280.19 2523.03,-274.57 2512.5,-273.37 2514.05,-280.19"/>
</g>
<!-- &quot;target:\n is_inserted_to(shaft1, gearbase_hole1)&quot;* -->
<g id="node18" class="node">
<title>&quot;target:\n is_inserted_to(shaft1, gearbase_hole1)&quot;*</title>
<ellipse fill="#ffec8b" stroke="black" cx="3168.32" cy="-351.18" rx="273.8" ry="33.88"/>
<text text-anchor="middle" x="3168.32" y="-356.78" font-family="Times,serif" font-size="18.00">&quot;target:</text>
<text text-anchor="middle" x="3168.32" y="-336.78" font-family="Times,serif" font-size="18.00"> is_inserted_to(shaft1, gearbase_hole1)&quot;*</text>
</g>
<!-- &quot;selector:\n insert(left_hand, clampgripper, shaft1, gearbase_hole1)&quot;*&#45;&gt;&quot;target:\n is_inserted_to(shaft1, gearbase_hole1)&quot;* -->
<g id="edge17" class="edge">
<title>&quot;selector:\n insert(left_hand, clampgripper, shaft1, gearbase_hole1)&quot;*&#45;&gt;&quot;target:\n is_inserted_to(shaft1, gearbase_hole1)&quot;*</title>
<path fill="none" stroke="black" d="M3168.32,-420.84C3168.32,-412.68 3168.32,-403.93 3168.32,-395.51"/>
<polygon fill="black" stroke="black" points="3171.82,-395.46 3168.32,-385.46 3164.82,-395.46 3171.82,-395.46"/>
</g>
<!-- &quot;sequence:\n insert(left_hand, clampgripper, shaft1, gearbase_hole1)&quot;* -->
<g id="node19" class="node">
<title>&quot;sequence:\n insert(left_hand, clampgripper, shaft1, gearbase_hole1)&quot;*</title>
<polygon fill="#ff7f24" stroke="black" points="4222.32,-375.18 3680.32,-375.18 3680.32,-327.18 4222.32,-327.18 4222.32,-375.18"/>
<text text-anchor="middle" x="3951.32" y="-356.78" font-family="Times,serif" font-size="18.00">&quot;sequence:</text>
<text text-anchor="middle" x="3951.32" y="-336.78" font-family="Times,serif" font-size="18.00"> insert(left_hand, clampgripper, shaft1, gearbase_hole1)&quot;*</text>
</g>
<!-- &quot;selector:\n insert(left_hand, clampgripper, shaft1, gearbase_hole1)&quot;*&#45;&gt;&quot;sequence:\n insert(left_hand, clampgripper, shaft1, gearbase_hole1)&quot;* -->
<g id="edge18" class="edge">
<title>&quot;selector:\n insert(left_hand, clampgripper, shaft1, gearbase_hole1)&quot;*&#45;&gt;&quot;sequence:\n insert(left_hand, clampgripper, shaft1, gearbase_hole1)&quot;*</title>
<path fill="none" stroke="black" d="M3398.49,-426.09C3516.74,-410.28 3658.79,-391.29 3769.29,-376.52"/>
<polygon fill="black" stroke="black" points="3769.75,-379.99 3779.2,-375.19 3768.83,-373.05 3769.75,-379.99"/>
</g>
<!-- &quot;precondition:\n hold(left_hand, clampgripper)&quot;* -->
<g id="node20" class="node">
<title>&quot;precondition:\n hold(left_hand, clampgripper)&quot;*</title>
<ellipse fill="#ffec8b" stroke="black" cx="3163.32" cy="-244.5" rx="219.41" ry="33.88"/>
<text text-anchor="middle" x="3163.32" y="-250.1" font-family="Times,serif" font-size="18.00">&quot;precondition:</text>
<text text-anchor="middle" x="3163.32" y="-230.1" font-family="Times,serif" font-size="18.00"> hold(left_hand, clampgripper)&quot;*</text>
</g>
<!-- &quot;sequence:\n insert(left_hand, clampgripper, shaft1, gearbase_hole1)&quot;*&#45;&gt;&quot;precondition:\n hold(left_hand, clampgripper)&quot;* -->
<g id="edge19" class="edge">
<title>&quot;sequence:\n insert(left_hand, clampgripper, shaft1, gearbase_hole1)&quot;*&#45;&gt;&quot;precondition:\n hold(left_hand, clampgripper)&quot;*</title>
<path fill="none" stroke="black" d="M3751.22,-327.17C3644.31,-314.47 3510.53,-297.91 3391.32,-281.24 3368.84,-278.09 3345.15,-274.59 3321.87,-271.04"/>
<polygon fill="black" stroke="black" points="3322.34,-267.57 3311.93,-269.52 3321.28,-274.49 3322.34,-267.57"/>
</g>
<!-- precondition:
 hold(clampgripper, shaft1) -->
<g id="node21" class="node">
<title>precondition:
 hold(clampgripper, shaft1)</title>
<ellipse fill="#ffec8b" stroke="black" cx="3586.32" cy="-244.5" rx="185.94" ry="33.88"/>
<text text-anchor="middle" x="3586.32" y="-250.1" font-family="Times,serif" font-size="18.00">precondition:</text>
<text text-anchor="middle" x="3586.32" y="-230.1" font-family="Times,serif" font-size="18.00"> hold(clampgripper, shaft1)</text>
</g>
<!-- &quot;sequence:\n insert(left_hand, clampgripper, shaft1, gearbase_hole1)&quot;*&#45;&gt;precondition:
 hold(clampgripper, shaft1) -->
<g id="edge20" class="edge">
<title>&quot;sequence:\n insert(left_hand, clampgripper, shaft1, gearbase_hole1)&quot;*&#45;&gt;precondition:
 hold(clampgripper, shaft1)</title>
<path fill="none" stroke="black" d="M3870.77,-327.08C3818.68,-312.14 3750.26,-292.52 3693.59,-276.26"/>
<polygon fill="black" stroke="black" points="3694.45,-272.87 3683.87,-273.48 3692.52,-279.6 3694.45,-272.87"/>
</g>
<!-- &quot;precondition:\n can_manipulate(clampgripper, shaft1)&quot;* -->
<g id="node22" class="node">
<title>&quot;precondition:\n can_manipulate(clampgripper, shaft1)&quot;*</title>
<ellipse fill="#ffec8b" stroke="black" cx="4061.32" cy="-244.5" rx="270.64" ry="33.88"/>
<text text-anchor="middle" x="4061.32" y="-250.1" font-family="Times,serif" font-size="18.00">&quot;precondition:</text>
<text text-anchor="middle" x="4061.32" y="-230.1" font-family="Times,serif" font-size="18.00"> can_manipulate(clampgripper, shaft1)&quot;*</text>
</g>
<!-- &quot;sequence:\n insert(left_hand, clampgripper, shaft1, gearbase_hole1)&quot;*&#45;&gt;&quot;precondition:\n can_manipulate(clampgripper, shaft1)&quot;* -->
<g id="edge21" class="edge">
<title>&quot;sequence:\n insert(left_hand, clampgripper, shaft1, gearbase_hole1)&quot;*&#45;&gt;&quot;precondition:\n can_manipulate(clampgripper, shaft1)&quot;*</title>
<path fill="none" stroke="black" d="M3975.74,-326.95C3988.57,-314.74 4004.65,-299.44 4019.4,-285.4"/>
<polygon fill="black" stroke="black" points="4022.14,-287.63 4026.97,-278.2 4017.31,-282.56 4022.14,-287.63"/>
</g>
<!-- &quot;selector:\n insert(left_hand, clampgripper, shaft1, gearbase_hole1)&quot;** -->
<g id="node23" class="node">
<title>&quot;selector:\n insert(left_hand, clampgripper, shaft1, gearbase_hole1)&quot;**</title>
<polygon fill="#8deeee" stroke="black" points="5194.26,-229.19 5194.26,-259.82 4947.1,-281.48 4597.55,-281.48 4350.39,-259.82 4350.39,-229.19 4597.55,-207.53 4947.1,-207.53 5194.26,-229.19"/>
<text text-anchor="middle" x="4772.32" y="-250.1" font-family="Times,serif" font-size="18.00">&quot;selector:</text>
<text text-anchor="middle" x="4772.32" y="-230.1" font-family="Times,serif" font-size="18.00"> insert(left_hand, clampgripper, shaft1, gearbase_hole1)&quot;**</text>
</g>
<!-- &quot;sequence:\n insert(left_hand, clampgripper, shaft1, gearbase_hole1)&quot;*&#45;&gt;&quot;selector:\n insert(left_hand, clampgripper, shaft1, gearbase_hole1)&quot;** -->
<g id="edge22" class="edge">
<title>&quot;sequence:\n insert(left_hand, clampgripper, shaft1, gearbase_hole1)&quot;*&#45;&gt;&quot;selector:\n insert(left_hand, clampgripper, shaft1, gearbase_hole1)&quot;**</title>
<path fill="none" stroke="black" d="M4131.75,-327.18C4246.77,-312.51 4397.39,-293.31 4523.67,-277.21"/>
<polygon fill="black" stroke="black" points="4524.4,-280.64 4533.87,-275.9 4523.51,-273.7 4524.4,-280.64"/>
</g>
<!-- &quot;action:\n insert(left_hand, clampgripper, shaft1, gearbase_hole1)&quot;* -->
<g id="node31" class="node">
<title>&quot;action:\n insert(left_hand, clampgripper, shaft1, gearbase_hole1)&quot;*</title>
<ellipse fill="lightgreen" stroke="black" cx="5595.32" cy="-244.5" rx="383" ry="33.88"/>
<text text-anchor="middle" x="5595.32" y="-250.1" font-family="Times,serif" font-size="18.00">&quot;action:</text>
<text text-anchor="middle" x="5595.32" y="-230.1" font-family="Times,serif" font-size="18.00"> insert(left_hand, clampgripper, shaft1, gearbase_hole1)&quot;*</text>
</g>
<!-- &quot;sequence:\n insert(left_hand, clampgripper, shaft1, gearbase_hole1)&quot;*&#45;&gt;&quot;action:\n insert(left_hand, clampgripper, shaft1, gearbase_hole1)&quot;* -->
<g id="edge30" class="edge">
<title>&quot;sequence:\n insert(left_hand, clampgripper, shaft1, gearbase_hole1)&quot;*&#45;&gt;&quot;action:\n insert(left_hand, clampgripper, shaft1, gearbase_hole1)&quot;*</title>
<path fill="none" stroke="black" d="M4222.6,-338.06C4476.31,-326.05 4865.72,-305.92 5203.32,-281.24 5244.82,-278.21 5288.75,-274.6 5331.61,-270.85"/>
<polygon fill="black" stroke="black" points="5331.95,-274.34 5341.6,-269.97 5331.33,-267.36 5331.95,-274.34"/>
</g>
<!-- &quot;target:\n is_inserted_to(shaft1, gearbase_hole1)&quot;** -->
<g id="node24" class="node">
<title>&quot;target:\n is_inserted_to(shaft1, gearbase_hole1)&quot;**</title>
<ellipse fill="#ffec8b" stroke="black" cx="4485.32" cy="-137.82" rx="280.03" ry="33.88"/>
<text text-anchor="middle" x="4485.32" y="-143.42" font-family="Times,serif" font-size="18.00">&quot;target:</text>
<text text-anchor="middle" x="4485.32" y="-123.42" font-family="Times,serif" font-size="18.00"> is_inserted_to(shaft1, gearbase_hole1)&quot;**</text>
</g>
<!-- &quot;selector:\n insert(left_hand, clampgripper, shaft1, gearbase_hole1)&quot;**&#45;&gt;&quot;target:\n is_inserted_to(shaft1, gearbase_hole1)&quot;** -->
<g id="edge23" class="edge">
<title>&quot;selector:\n insert(left_hand, clampgripper, shaft1, gearbase_hole1)&quot;**&#45;&gt;&quot;target:\n is_inserted_to(shaft1, gearbase_hole1)&quot;**</title>
<path fill="none" stroke="black" d="M4673.96,-207.62C4643.94,-196.68 4610.99,-184.66 4581.15,-173.77"/>
<polygon fill="black" stroke="black" points="4582.17,-170.42 4571.57,-170.28 4579.77,-177 4582.17,-170.42"/>
</g>
<!-- &quot;sequence:\n insert(left_hand, clampgripper, shaft1, gearbase_hole1)&quot;** -->
<g id="node25" class="node">
<title>&quot;sequence:\n insert(left_hand, clampgripper, shaft1, gearbase_hole1)&quot;**</title>
<polygon fill="#ff7f24" stroke="black" points="5334.82,-161.82 4783.82,-161.82 4783.82,-113.82 5334.82,-113.82 5334.82,-161.82"/>
<text text-anchor="middle" x="5059.32" y="-143.42" font-family="Times,serif" font-size="18.00">&quot;sequence:</text>
<text text-anchor="middle" x="5059.32" y="-123.42" font-family="Times,serif" font-size="18.00"> insert(left_hand, clampgripper, shaft1, gearbase_hole1)&quot;**</text>
</g>
<!-- &quot;selector:\n insert(left_hand, clampgripper, shaft1, gearbase_hole1)&quot;**&#45;&gt;&quot;sequence:\n insert(left_hand, clampgripper, shaft1, gearbase_hole1)&quot;** -->
<g id="edge24" class="edge">
<title>&quot;selector:\n insert(left_hand, clampgripper, shaft1, gearbase_hole1)&quot;**&#45;&gt;&quot;sequence:\n insert(left_hand, clampgripper, shaft1, gearbase_hole1)&quot;**</title>
<path fill="none" stroke="black" d="M4870.69,-207.62C4908.66,-193.77 4951.33,-178.21 4986.46,-165.4"/>
<polygon fill="black" stroke="black" points="4987.97,-168.58 4996.16,-161.86 4985.57,-162 4987.97,-168.58"/>
</g>
<!-- &quot;precondition:\n hold(left_hand, clampgripper)&quot;** -->
<g id="node26" class="node">
<title>&quot;precondition:\n hold(left_hand, clampgripper)&quot;**</title>
<ellipse fill="#ffec8b" stroke="black" cx="4124.32" cy="-33.94" rx="225.63" ry="33.88"/>
<text text-anchor="middle" x="4124.32" y="-39.54" font-family="Times,serif" font-size="18.00">&quot;precondition:</text>
<text text-anchor="middle" x="4124.32" y="-19.54" font-family="Times,serif" font-size="18.00"> hold(left_hand, clampgripper)&quot;**</text>
</g>
<!-- &quot;sequence:\n insert(left_hand, clampgripper, shaft1, gearbase_hole1)&quot;**&#45;&gt;&quot;precondition:\n hold(left_hand, clampgripper)&quot;** -->
<g id="edge25" class="edge">
<title>&quot;sequence:\n insert(left_hand, clampgripper, shaft1, gearbase_hole1)&quot;**&#45;&gt;&quot;precondition:\n hold(left_hand, clampgripper)&quot;**</title>
<path fill="none" stroke="black" d="M4866.62,-113.79C4835.77,-110.33 4804.18,-106.9 4774.32,-103.88 4590.13,-85.25 4543.28,-88.74 4359.32,-67.88 4337.57,-65.42 4314.73,-62.55 4292.18,-59.57"/>
<polygon fill="black" stroke="black" points="4292.57,-56.09 4282.19,-58.23 4291.64,-63.03 4292.57,-56.09"/>
</g>
<!-- &quot;precondition:\n hold(clampgripper, shaft1)&quot;* -->
<g id="node27" class="node">
<title>&quot;precondition:\n hold(clampgripper, shaft1)&quot;*</title>
<ellipse fill="#ffec8b" stroke="black" cx="4566.32" cy="-33.94" rx="197.98" ry="33.88"/>
<text text-anchor="middle" x="4566.32" y="-39.54" font-family="Times,serif" font-size="18.00">&quot;precondition:</text>
<text text-anchor="middle" x="4566.32" y="-19.54" font-family="Times,serif" font-size="18.00"> hold(clampgripper, shaft1)&quot;*</text>
</g>
<!-- &quot;sequence:\n insert(left_hand, clampgripper, shaft1, gearbase_hole1)&quot;**&#45;&gt;&quot;precondition:\n hold(clampgripper, shaft1)&quot;* -->
<g id="edge26" class="edge">
<title>&quot;sequence:\n insert(left_hand, clampgripper, shaft1, gearbase_hole1)&quot;**&#45;&gt;&quot;precondition:\n hold(clampgripper, shaft1)&quot;*</title>
<path fill="none" stroke="black" d="M4947.76,-113.77C4874.22,-98.57 4777.51,-78.58 4699.87,-62.54"/>
<polygon fill="black" stroke="black" points="4700.52,-59.1 4690.01,-60.5 4699.1,-65.95 4700.52,-59.1"/>
</g>
<!-- &quot;precondition:\n can_manipulate(clampgripper, shaft1)&quot;** -->
<g id="node28" class="node">
<title>&quot;precondition:\n can_manipulate(clampgripper, shaft1)&quot;**</title>
<ellipse fill="#ffec8b" stroke="black" cx="5059.32" cy="-33.94" rx="277.37" ry="33.88"/>
<text text-anchor="middle" x="5059.32" y="-39.54" font-family="Times,serif" font-size="18.00">&quot;precondition:</text>
<text text-anchor="middle" x="5059.32" y="-19.54" font-family="Times,serif" font-size="18.00"> can_manipulate(clampgripper, shaft1)&quot;**</text>
</g>
<!-- &quot;sequence:\n insert(left_hand, clampgripper, shaft1, gearbase_hole1)&quot;**&#45;&gt;&quot;precondition:\n can_manipulate(clampgripper, shaft1)&quot;** -->
<g id="edge27" class="edge">
<title>&quot;sequence:\n insert(left_hand, clampgripper, shaft1, gearbase_hole1)&quot;**&#45;&gt;&quot;precondition:\n can_manipulate(clampgripper, shaft1)&quot;**</title>
<path fill="none" stroke="black" d="M5059.32,-113.7C5059.32,-103.16 5059.32,-90.31 5059.32,-78.08"/>
<polygon fill="black" stroke="black" points="5062.82,-78.01 5059.32,-68.01 5055.82,-78.01 5062.82,-78.01"/>
</g>
<!-- precondition:
 can_insert_to(shaft1, gearbase_hole1) -->
<g id="node29" class="node">
<title>precondition:
 can_insert_to(shaft1, gearbase_hole1)</title>
<ellipse fill="#ffec8b" stroke="black" cx="5612.32" cy="-33.94" rx="258.19" ry="33.88"/>
<text text-anchor="middle" x="5612.32" y="-39.54" font-family="Times,serif" font-size="18.00">precondition:</text>
<text text-anchor="middle" x="5612.32" y="-19.54" font-family="Times,serif" font-size="18.00"> can_insert_to(shaft1, gearbase_hole1)</text>
</g>
<!-- &quot;sequence:\n insert(left_hand, clampgripper, shaft1, gearbase_hole1)&quot;**&#45;&gt;precondition:
 can_insert_to(shaft1, gearbase_hole1) -->
<g id="edge28" class="edge">
<title>&quot;sequence:\n insert(left_hand, clampgripper, shaft1, gearbase_hole1)&quot;**&#45;&gt;precondition:
 can_insert_to(shaft1, gearbase_hole1)</title>
<path fill="none" stroke="black" d="M5184.46,-113.77C5264.92,-98.95 5370.09,-79.57 5456.02,-63.74"/>
<polygon fill="black" stroke="black" points="5456.67,-67.18 5465.87,-61.92 5455.4,-60.29 5456.67,-67.18"/>
</g>
<!-- action:
 insert(left_hand, clampgripper, shaft1, gearbase_hole1) -->
<g id="node30" class="node">
<title>action:
 insert(left_hand, clampgripper, shaft1, gearbase_hole1)</title>
<ellipse fill="lightgreen" stroke="black" cx="6259.32" cy="-33.94" rx="370.55" ry="33.88"/>
<text text-anchor="middle" x="6259.32" y="-39.54" font-family="Times,serif" font-size="18.00">action:</text>
<text text-anchor="middle" x="6259.32" y="-19.54" font-family="Times,serif" font-size="18.00"> insert(left_hand, clampgripper, shaft1, gearbase_hole1)</text>
</g>
<!-- &quot;sequence:\n insert(left_hand, clampgripper, shaft1, gearbase_hole1)&quot;**&#45;&gt;action:
 insert(left_hand, clampgripper, shaft1, gearbase_hole1) -->
<g id="edge29" class="edge">
<title>&quot;sequence:\n insert(left_hand, clampgripper, shaft1, gearbase_hole1)&quot;**&#45;&gt;action:
 insert(left_hand, clampgripper, shaft1, gearbase_hole1)</title>
<path fill="none" stroke="black" d="M5335.01,-113.82C5494.12,-100.51 5698.01,-83.36 5879.32,-67.88 5913.85,-64.93 5950.14,-61.82 5986.03,-58.72"/>
<polygon fill="black" stroke="black" points="5986.48,-62.19 5996.14,-57.85 5985.88,-55.22 5986.48,-62.19"/>
</g>
</g>
</svg>
