<?xml version="1.0" encoding="UTF-8" standalone="no"?>
<!DOCTYPE svg PUBLIC "-//W3C//DTD SVG 1.1//EN"
 "http://www.w3.org/Graphics/SVG/1.1/DTD/svg11.dtd">
<!-- Generated by graphviz version 2.43.0 (0)
 -->
<!-- Title: pastafarianism Pages: 1 -->
<svg width="5634pt" height="503pt"
 viewBox="0.00 0.00 5633.85 502.60" xmlns="http://www.w3.org/2000/svg" xmlns:xlink="http://www.w3.org/1999/xlink">
<g id="graph0" class="graph" transform="scale(1 1) rotate(0) translate(4 498.6)">
<title>pastafarianism</title>
<polygon fill="white" stroke="transparent" points="-4,4 -4,-498.6 5629.85,-498.6 5629.85,4 -4,4"/>
<!-- selector:
 insert(left_hand, clampgripper, shaft1, gearbase_hole1) -->
<g id="node1" class="node">
<title>selector:
 insert(left_hand, clampgripper, shaft1, gearbase_hole1)</title>
<polygon fill="#8deeee" stroke="black" points="2606.43,-442.54 2606.43,-473.18 2371.47,-494.84 2039.18,-494.84 1804.22,-473.18 1804.22,-442.54 2039.18,-420.88 2371.47,-420.88 2606.43,-442.54"/>
<text text-anchor="middle" x="2205.32" y="-463.46" font-family="Times,serif" font-size="18.00">selector:</text>
<text text-anchor="middle" x="2205.32" y="-443.46" font-family="Times,serif" font-size="18.00"> insert(left_hand, clampgripper, shaft1, gearbase_hole1)</text>
</g>
<!-- target:
 is_inserted_to(shaft1, gearbase_hole1) -->
<g id="node2" class="node">
<title>target:
 is_inserted_to(shaft1, gearbase_hole1)</title>
<ellipse fill="#ffec8b" stroke="black" cx="1934.32" cy="-351.18" rx="261.76" ry="33.88"/>
<text text-anchor="middle" x="1934.32" y="-356.78" font-family="Times,serif" font-size="18.00">target:</text>
<text text-anchor="middle" x="1934.32" y="-336.78" font-family="Times,serif" font-size="18.00"> is_inserted_to(shaft1, gearbase_hole1)</text>
</g>
<!-- selector:
 insert(left_hand, clampgripper, shaft1, gearbase_hole1)&#45;&gt;target:
 is_inserted_to(shaft1, gearbase_hole1) -->
<g id="edge1" class="edge">
<title>selector:
 insert(left_hand, clampgripper, shaft1, gearbase_hole1)&#45;&gt;target:
 is_inserted_to(shaft1, gearbase_hole1)</title>
<path fill="none" stroke="black" d="M2112.44,-420.98C2084.08,-410.03 2052.95,-398 2024.76,-387.11"/>
<polygon fill="black" stroke="black" points="2025.91,-383.8 2015.32,-383.47 2023.39,-390.33 2025.91,-383.8"/>
</g>
<!-- sequence:
 insert(left_hand, clampgripper, shaft1, gearbase_hole1) -->
<g id="node3" class="node">
<title>sequence:
 insert(left_hand, clampgripper, shaft1, gearbase_hole1)</title>
<polygon fill="#ff7f24" stroke="black" points="2738.32,-375.18 2214.32,-375.18 2214.32,-327.18 2738.32,-327.18 2738.32,-375.18"/>
<text text-anchor="middle" x="2476.32" y="-356.78" font-family="Times,serif" font-size="18.00">sequence:</text>
<text text-anchor="middle" x="2476.32" y="-336.78" font-family="Times,serif" font-size="18.00"> insert(left_hand, clampgripper, shaft1, gearbase_hole1)</text>
</g>
<!-- selector:
 insert(left_hand, clampgripper, shaft1, gearbase_hole1)&#45;&gt;sequence:
 insert(left_hand, clampgripper, shaft1, gearbase_hole1) -->
<g id="edge2" class="edge">
<title>selector:
 insert(left_hand, clampgripper, shaft1, gearbase_hole1)&#45;&gt;sequence:
 insert(left_hand, clampgripper, shaft1, gearbase_hole1)</title>
<path fill="none" stroke="black" d="M2298.21,-420.98C2333.91,-407.19 2374,-391.7 2407.1,-378.92"/>
<polygon fill="black" stroke="black" points="2408.62,-382.09 2416.68,-375.22 2406.1,-375.56 2408.62,-382.09"/>
</g>
<!-- selector:
 change_tool(left_hand, outwardgripper, clampgripper) -->
<g id="node4" class="node">
<title>selector:
 change_tool(left_hand, outwardgripper, clampgripper)</title>
<polygon fill="#8deeee" stroke="black" points="1256.09,-229.19 1256.09,-259.82 1026.01,-281.48 700.64,-281.48 470.56,-259.82 470.56,-229.19 700.64,-207.53 1026.01,-207.53 1256.09,-229.19"/>
<text text-anchor="middle" x="863.32" y="-250.1" font-family="Times,serif" font-size="18.00">selector:</text>
<text text-anchor="middle" x="863.32" y="-230.1" font-family="Times,serif" font-size="18.00"> change_tool(left_hand, outwardgripper, clampgripper)</text>
</g>
<!-- sequence:
 insert(left_hand, clampgripper, shaft1, gearbase_hole1)&#45;&gt;selector:
 change_tool(left_hand, outwardgripper, clampgripper) -->
<g id="edge3" class="edge">
<title>sequence:
 insert(left_hand, clampgripper, shaft1, gearbase_hole1)&#45;&gt;selector:
 change_tool(left_hand, outwardgripper, clampgripper)</title>
<path fill="none" stroke="black" d="M2301.57,-327.18C2269.59,-323.47 2236.49,-319.96 2205.32,-317.24 2110.7,-308.97 1593.4,-282.19 1229.47,-263.8"/>
<polygon fill="black" stroke="black" points="1229.45,-260.29 1219.29,-263.28 1229.1,-267.28 1229.45,-260.29"/>
</g>
<!-- selector:
 pick_up(left_hand, clampgripper, shaft1) -->
<g id="node10" class="node">
<title>selector:
 pick_up(left_hand, clampgripper, shaft1)</title>
<polygon fill="#8deeee" stroke="black" points="2199.28,-229.19 2199.28,-259.82 2024.74,-281.48 1777.91,-281.48 1603.37,-259.82 1603.37,-229.19 1777.91,-207.53 2024.74,-207.53 2199.28,-229.19"/>
<text text-anchor="middle" x="1901.32" y="-250.1" font-family="Times,serif" font-size="18.00">selector:</text>
<text text-anchor="middle" x="1901.32" y="-230.1" font-family="Times,serif" font-size="18.00"> pick_up(left_hand, clampgripper, shaft1)</text>
</g>
<!-- sequence:
 insert(left_hand, clampgripper, shaft1, gearbase_hole1)&#45;&gt;selector:
 pick_up(left_hand, clampgripper, shaft1) -->
<g id="edge9" class="edge">
<title>sequence:
 insert(left_hand, clampgripper, shaft1, gearbase_hole1)&#45;&gt;selector:
 pick_up(left_hand, clampgripper, shaft1)</title>
<path fill="none" stroke="black" d="M2349.78,-327.14C2270.35,-312.68 2166.72,-293.82 2079.09,-277.86"/>
<polygon fill="black" stroke="black" points="2079.5,-274.38 2069.04,-276.03 2078.25,-281.27 2079.5,-274.38"/>
</g>
<!-- precondition:
 can_manipulate(clampgripper, shaft1) -->
<g id="node16" class="node">
<title>precondition:
 can_manipulate(clampgripper, shaft1)</title>
<ellipse fill="#ffec8b" stroke="black" cx="2476.32" cy="-244.5" rx="258.6" ry="33.88"/>
<text text-anchor="middle" x="2476.32" y="-250.1" font-family="Times,serif" font-size="18.00">precondition:</text>
<text text-anchor="middle" x="2476.32" y="-230.1" font-family="Times,serif" font-size="18.00"> can_manipulate(clampgripper, shaft1)</text>
</g>
<!-- sequence:
 insert(left_hand, clampgripper, shaft1, gearbase_hole1)&#45;&gt;precondition:
 can_manipulate(clampgripper, shaft1) -->
<g id="edge15" class="edge">
<title>sequence:
 insert(left_hand, clampgripper, shaft1, gearbase_hole1)&#45;&gt;precondition:
 can_manipulate(clampgripper, shaft1)</title>
<path fill="none" stroke="black" d="M2476.32,-326.95C2476.32,-315.73 2476.32,-301.9 2476.32,-288.84"/>
<polygon fill="black" stroke="black" points="2479.82,-288.6 2476.32,-278.6 2472.82,-288.6 2479.82,-288.6"/>
</g>
<!-- &quot;selector:\n insert(left_hand, clampgripper, shaft1, gearbase_hole1)&quot;* -->
<g id="node17" class="node">
<title>&quot;selector:\n insert(left_hand, clampgripper, shaft1, gearbase_hole1)&quot;*</title>
<polygon fill="#8deeee" stroke="black" points="3582.98,-229.19 3582.98,-259.82 3340.08,-281.48 2996.57,-281.48 2753.67,-259.82 2753.67,-229.19 2996.57,-207.53 3340.08,-207.53 3582.98,-229.19"/>
<text text-anchor="middle" x="3168.32" y="-250.1" font-family="Times,serif" font-size="18.00">&quot;selector:</text>
<text text-anchor="middle" x="3168.32" y="-230.1" font-family="Times,serif" font-size="18.00"> insert(left_hand, clampgripper, shaft1, gearbase_hole1)&quot;*</text>
</g>
<!-- sequence:
 insert(left_hand, clampgripper, shaft1, gearbase_hole1)&#45;&gt;&quot;selector:\n insert(left_hand, clampgripper, shaft1, gearbase_hole1)&quot;* -->
<g id="edge16" class="edge">
<title>sequence:
 insert(left_hand, clampgripper, shaft1, gearbase_hole1)&#45;&gt;&quot;selector:\n insert(left_hand, clampgripper, shaft1, gearbase_hole1)&quot;*</title>
<path fill="none" stroke="black" d="M2628.61,-327.14C2721.33,-313.12 2841.42,-294.95 2944.78,-279.32"/>
<polygon fill="black" stroke="black" points="2945.36,-282.77 2954.72,-277.81 2944.31,-275.85 2945.36,-282.77"/>
</g>
<!-- &quot;action:\n insert(left_hand, clampgripper, shaft1, gearbase_hole1)&quot;* -->
<g id="node25" class="node">
<title>&quot;action:\n insert(left_hand, clampgripper, shaft1, gearbase_hole1)&quot;*</title>
<ellipse fill="lightgreen" stroke="black" cx="3984.32" cy="-244.5" rx="383" ry="33.88"/>
<text text-anchor="middle" x="3984.32" y="-250.1" font-family="Times,serif" font-size="18.00">&quot;action:</text>
<text text-anchor="middle" x="3984.32" y="-230.1" font-family="Times,serif" font-size="18.00"> insert(left_hand, clampgripper, shaft1, gearbase_hole1)&quot;*</text>
</g>
<!-- sequence:
 insert(left_hand, clampgripper, shaft1, gearbase_hole1)&#45;&gt;&quot;action:\n insert(left_hand, clampgripper, shaft1, gearbase_hole1)&quot;* -->
<g id="edge24" class="edge">
<title>sequence:
 insert(left_hand, clampgripper, shaft1, gearbase_hole1)&#45;&gt;&quot;action:\n insert(left_hand, clampgripper, shaft1, gearbase_hole1)&quot;*</title>
<path fill="none" stroke="black" d="M2738.6,-336.15C2964.86,-323.52 3300.3,-303.57 3592.32,-281.24 3633.33,-278.1 3676.71,-274.47 3719.1,-270.74"/>
<polygon fill="black" stroke="black" points="3719.62,-274.21 3729.27,-269.84 3719,-267.24 3719.62,-274.21"/>
</g>
<!-- target:
 hold(left_hand, clampgripper) -->
<g id="node5" class="node">
<title>target:
 hold(left_hand, clampgripper)</title>
<ellipse fill="#ffec8b" stroke="black" cx="381.32" cy="-137.82" rx="207.36" ry="33.88"/>
<text text-anchor="middle" x="381.32" y="-143.42" font-family="Times,serif" font-size="18.00">target:</text>
<text text-anchor="middle" x="381.32" y="-123.42" font-family="Times,serif" font-size="18.00"> hold(left_hand, clampgripper)</text>
</g>
<!-- selector:
 change_tool(left_hand, outwardgripper, clampgripper)&#45;&gt;target:
 hold(left_hand, clampgripper) -->
<g id="edge4" class="edge">
<title>selector:
 change_tool(left_hand, outwardgripper, clampgripper)&#45;&gt;target:
 hold(left_hand, clampgripper)</title>
<path fill="none" stroke="black" d="M698.46,-207.7C638.03,-194.57 570.47,-179.9 513.3,-167.48"/>
<polygon fill="black" stroke="black" points="514,-164.06 503.48,-165.35 512.51,-170.9 514,-164.06"/>
</g>
<!-- sequence:
 change_tool(left_hand, outwardgripper, clampgripper) -->
<g id="node6" class="node">
<title>sequence:
 change_tool(left_hand, outwardgripper, clampgripper)</title>
<polygon fill="#ff7f24" stroke="black" points="1119.82,-161.82 606.82,-161.82 606.82,-113.82 1119.82,-113.82 1119.82,-161.82"/>
<text text-anchor="middle" x="863.32" y="-143.42" font-family="Times,serif" font-size="18.00">sequence:</text>
<text text-anchor="middle" x="863.32" y="-123.42" font-family="Times,serif" font-size="18.00"> change_tool(left_hand, outwardgripper, clampgripper)</text>
</g>
<!-- selector:
 change_tool(left_hand, outwardgripper, clampgripper)&#45;&gt;sequence:
 change_tool(left_hand, outwardgripper, clampgripper) -->
<g id="edge5" class="edge">
<title>selector:
 change_tool(left_hand, outwardgripper, clampgripper)&#45;&gt;sequence:
 change_tool(left_hand, outwardgripper, clampgripper)</title>
<path fill="none" stroke="black" d="M863.32,-207.48C863.32,-196.09 863.32,-183.57 863.32,-172.36"/>
<polygon fill="black" stroke="black" points="866.82,-172.11 863.32,-162.11 859.82,-172.11 866.82,-172.11"/>
</g>
<!-- precondition:
 hold(left_hand, outwardgripper) -->
<g id="node7" class="node">
<title>precondition:
 hold(left_hand, outwardgripper)</title>
<ellipse fill="#ffec8b" stroke="black" cx="221.32" cy="-33.94" rx="221.15" ry="33.88"/>
<text text-anchor="middle" x="221.32" y="-39.54" font-family="Times,serif" font-size="18.00">precondition:</text>
<text text-anchor="middle" x="221.32" y="-19.54" font-family="Times,serif" font-size="18.00"> hold(left_hand, outwardgripper)</text>
</g>
<!-- sequence:
 change_tool(left_hand, outwardgripper, clampgripper)&#45;&gt;precondition:
 hold(left_hand, outwardgripper) -->
<g id="edge6" class="edge">
<title>sequence:
 change_tool(left_hand, outwardgripper, clampgripper)&#45;&gt;precondition:
 hold(left_hand, outwardgripper)</title>
<path fill="none" stroke="black" d="M718.05,-113.77C617.98,-97.89 484.99,-76.78 381.8,-60.41"/>
<polygon fill="black" stroke="black" points="382.33,-56.95 371.91,-58.84 381.24,-63.86 382.33,-56.95"/>
</g>
<!-- precondition:
 is_empty(outwardgripper) -->
<g id="node8" class="node">
<title>precondition:
 is_empty(outwardgripper)</title>
<ellipse fill="#ffec8b" stroke="black" cx="643.32" cy="-33.94" rx="183.28" ry="33.88"/>
<text text-anchor="middle" x="643.32" y="-39.54" font-family="Times,serif" font-size="18.00">precondition:</text>
<text text-anchor="middle" x="643.32" y="-19.54" font-family="Times,serif" font-size="18.00"> is_empty(outwardgripper)</text>
</g>
<!-- sequence:
 change_tool(left_hand, outwardgripper, clampgripper)&#45;&gt;precondition:
 is_empty(outwardgripper) -->
<g id="edge7" class="edge">
<title>sequence:
 change_tool(left_hand, outwardgripper, clampgripper)&#45;&gt;precondition:
 is_empty(outwardgripper)</title>
<path fill="none" stroke="black" d="M813.4,-113.7C785.48,-100.77 750.11,-84.39 718.86,-69.92"/>
<polygon fill="black" stroke="black" points="720.28,-66.72 709.74,-65.7 717.34,-73.08 720.28,-66.72"/>
</g>
<!-- action:
 change_tool(left_hand, outwardgripper, clampgripper) -->
<g id="node9" class="node">
<title>action:
 change_tool(left_hand, outwardgripper, clampgripper)</title>
<ellipse fill="lightgreen" stroke="black" cx="1207.32" cy="-33.94" rx="362.99" ry="33.88"/>
<text text-anchor="middle" x="1207.32" y="-39.54" font-family="Times,serif" font-size="18.00">action:</text>
<text text-anchor="middle" x="1207.32" y="-19.54" font-family="Times,serif" font-size="18.00"> change_tool(left_hand, outwardgripper, clampgripper)</text>
</g>
<!-- sequence:
 change_tool(left_hand, outwardgripper, clampgripper)&#45;&gt;action:
 change_tool(left_hand, outwardgripper, clampgripper) -->
<g id="edge8" class="edge">
<title>sequence:
 change_tool(left_hand, outwardgripper, clampgripper)&#45;&gt;action:
 change_tool(left_hand, outwardgripper, clampgripper)</title>
<path fill="none" stroke="black" d="M941.38,-113.7C985.61,-100.61 1041.8,-83.96 1091.12,-69.36"/>
<polygon fill="black" stroke="black" points="1092.29,-72.66 1100.89,-66.46 1090.31,-65.95 1092.29,-72.66"/>
</g>
<!-- target:
 hold(clampgripper, shaft1) -->
<g id="node11" class="node">
<title>target:
 hold(clampgripper, shaft1)</title>
<ellipse fill="#ffec8b" stroke="black" cx="1791.32" cy="-137.82" rx="185.94" ry="33.88"/>
<text text-anchor="middle" x="1791.32" y="-143.42" font-family="Times,serif" font-size="18.00">target:</text>
<text text-anchor="middle" x="1791.32" y="-123.42" font-family="Times,serif" font-size="18.00"> hold(clampgripper, shaft1)</text>
</g>
<!-- selector:
 pick_up(left_hand, clampgripper, shaft1)&#45;&gt;target:
 hold(clampgripper, shaft1) -->
<g id="edge10" class="edge">
<title>selector:
 pick_up(left_hand, clampgripper, shaft1)&#45;&gt;target:
 hold(clampgripper, shaft1)</title>
<path fill="none" stroke="black" d="M1863.47,-207.48C1853.66,-198.15 1843.05,-188.05 1833.06,-178.54"/>
<polygon fill="black" stroke="black" points="1835.22,-175.76 1825.56,-171.4 1830.39,-180.83 1835.22,-175.76"/>
</g>
<!-- sequence:
 pick_up(left_hand, clampgripper, shaft1) -->
<g id="node12" class="node">
<title>sequence:
 pick_up(left_hand, clampgripper, shaft1)</title>
<polygon fill="#ff7f24" stroke="black" points="2383.82,-161.82 1994.82,-161.82 1994.82,-113.82 2383.82,-113.82 2383.82,-161.82"/>
<text text-anchor="middle" x="2189.32" y="-143.42" font-family="Times,serif" font-size="18.00">sequence:</text>
<text text-anchor="middle" x="2189.32" y="-123.42" font-family="Times,serif" font-size="18.00"> pick_up(left_hand, clampgripper, shaft1)</text>
</g>
<!-- selector:
 pick_up(left_hand, clampgripper, shaft1)&#45;&gt;sequence:
 pick_up(left_hand, clampgripper, shaft1) -->
<g id="edge11" class="edge">
<title>selector:
 pick_up(left_hand, clampgripper, shaft1)&#45;&gt;sequence:
 pick_up(left_hand, clampgripper, shaft1)</title>
<path fill="none" stroke="black" d="M2000.03,-207.62C2038.14,-193.77 2080.95,-178.21 2116.21,-165.4"/>
<polygon fill="black" stroke="black" points="2117.74,-168.57 2125.94,-161.86 2115.35,-161.99 2117.74,-168.57"/>
</g>
<!-- precondition:
 hold(left_hand, clampgripper) -->
<g id="node13" class="node">
<title>precondition:
 hold(left_hand, clampgripper)</title>
<ellipse fill="#ffec8b" stroke="black" cx="1795.32" cy="-33.94" rx="207.36" ry="33.88"/>
<text text-anchor="middle" x="1795.32" y="-39.54" font-family="Times,serif" font-size="18.00">precondition:</text>
<text text-anchor="middle" x="1795.32" y="-19.54" font-family="Times,serif" font-size="18.00"> hold(left_hand, clampgripper)</text>
</g>
<!-- sequence:
 pick_up(left_hand, clampgripper, shaft1)&#45;&gt;precondition:
 hold(left_hand, clampgripper) -->
<g id="edge12" class="edge">
<title>sequence:
 pick_up(left_hand, clampgripper, shaft1)&#45;&gt;precondition:
 hold(left_hand, clampgripper)</title>
<path fill="none" stroke="black" d="M2099.92,-113.7C2044.75,-99.44 1973.35,-80.98 1913.54,-65.51"/>
<polygon fill="black" stroke="black" points="1914.23,-62.07 1903.67,-62.96 1912.47,-68.85 1914.23,-62.07"/>
</g>
<!-- precondition:
 is_empty(clampgripper) -->
<g id="node14" class="node">
<title>precondition:
 is_empty(clampgripper)</title>
<ellipse fill="#ffec8b" stroke="black" cx="2189.32" cy="-33.94" rx="169" ry="33.88"/>
<text text-anchor="middle" x="2189.32" y="-39.54" font-family="Times,serif" font-size="18.00">precondition:</text>
<text text-anchor="middle" x="2189.32" y="-19.54" font-family="Times,serif" font-size="18.00"> is_empty(clampgripper)</text>
</g>
<!-- sequence:
 pick_up(left_hand, clampgripper, shaft1)&#45;&gt;precondition:
 is_empty(clampgripper) -->
<g id="edge13" class="edge">
<title>sequence:
 pick_up(left_hand, clampgripper, shaft1)&#45;&gt;precondition:
 is_empty(clampgripper)</title>
<path fill="none" stroke="black" d="M2189.32,-113.7C2189.32,-103.16 2189.32,-90.31 2189.32,-78.08"/>
<polygon fill="black" stroke="black" points="2192.82,-78.01 2189.32,-68.01 2185.82,-78.01 2192.82,-78.01"/>
</g>
<!-- action:
 pick_up(left_hand, clampgripper, shaft1) -->
<g id="node15" class="node">
<title>action:
 pick_up(left_hand, clampgripper, shaft1)</title>
<ellipse fill="lightgreen" stroke="black" cx="2651.32" cy="-33.94" rx="275.13" ry="33.88"/>
<text text-anchor="middle" x="2651.32" y="-39.54" font-family="Times,serif" font-size="18.00">action:</text>
<text text-anchor="middle" x="2651.32" y="-19.54" font-family="Times,serif" font-size="18.00"> pick_up(left_hand, clampgripper, shaft1)</text>
</g>
<!-- sequence:
 pick_up(left_hand, clampgripper, shaft1)&#45;&gt;action:
 pick_up(left_hand, clampgripper, shaft1) -->
<g id="edge14" class="edge">
<title>sequence:
 pick_up(left_hand, clampgripper, shaft1)&#45;&gt;action:
 pick_up(left_hand, clampgripper, shaft1)</title>
<path fill="none" stroke="black" d="M2293.87,-113.77C2357.8,-99.67 2440.42,-81.45 2510.12,-66.08"/>
<polygon fill="black" stroke="black" points="2511.29,-69.41 2520.3,-63.83 2509.78,-62.57 2511.29,-69.41"/>
</g>
<!-- &quot;target:\n is_inserted_to(shaft1, gearbase_hole1)&quot;* -->
<g id="node18" class="node">
<title>&quot;target:\n is_inserted_to(shaft1, gearbase_hole1)&quot;*</title>
<ellipse fill="#ffec8b" stroke="black" cx="3168.32" cy="-137.82" rx="273.8" ry="33.88"/>
<text text-anchor="middle" x="3168.32" y="-143.42" font-family="Times,serif" font-size="18.00">&quot;target:</text>
<text text-anchor="middle" x="3168.32" y="-123.42" font-family="Times,serif" font-size="18.00"> is_inserted_to(shaft1, gearbase_hole1)&quot;*</text>
</g>
<!-- &quot;selector:\n insert(left_hand, clampgripper, shaft1, gearbase_hole1)&quot;*&#45;&gt;&quot;target:\n is_inserted_to(shaft1, gearbase_hole1)&quot;* -->
<g id="edge17" class="edge">
<title>&quot;selector:\n insert(left_hand, clampgripper, shaft1, gearbase_hole1)&quot;*&#45;&gt;&quot;target:\n is_inserted_to(shaft1, gearbase_hole1)&quot;*</title>
<path fill="none" stroke="black" d="M3168.32,-207.48C3168.32,-199.32 3168.32,-190.58 3168.32,-182.15"/>
<polygon fill="black" stroke="black" points="3171.82,-182.1 3168.32,-172.1 3164.82,-182.1 3171.82,-182.1"/>
</g>
<!-- &quot;sequence:\n insert(left_hand, clampgripper, shaft1, gearbase_hole1)&quot;* -->
<g id="node19" class="node">
<title>&quot;sequence:\n insert(left_hand, clampgripper, shaft1, gearbase_hole1)&quot;*</title>
<polygon fill="#ff7f24" stroke="black" points="4222.32,-161.82 3680.32,-161.82 3680.32,-113.82 4222.32,-113.82 4222.32,-161.82"/>
<text text-anchor="middle" x="3951.32" y="-143.42" font-family="Times,serif" font-size="18.00">&quot;sequence:</text>
<text text-anchor="middle" x="3951.32" y="-123.42" font-family="Times,serif" font-size="18.00"> insert(left_hand, clampgripper, shaft1, gearbase_hole1)&quot;*</text>
</g>
<!-- &quot;selector:\n insert(left_hand, clampgripper, shaft1, gearbase_hole1)&quot;*&#45;&gt;&quot;sequence:\n insert(left_hand, clampgripper, shaft1, gearbase_hole1)&quot;* -->
<g id="edge18" class="edge">
<title>&quot;selector:\n insert(left_hand, clampgripper, shaft1, gearbase_hole1)&quot;*&#45;&gt;&quot;sequence:\n insert(left_hand, clampgripper, shaft1, gearbase_hole1)&quot;*</title>
<path fill="none" stroke="black" d="M3398.49,-212.73C3516.74,-196.92 3658.79,-177.93 3769.29,-163.16"/>
<polygon fill="black" stroke="black" points="3769.75,-166.63 3779.2,-161.83 3768.83,-159.69 3769.75,-166.63"/>
</g>
<!-- &quot;precondition:\n hold(left_hand, clampgripper)&quot;* -->
<g id="node20" class="node">
<title>&quot;precondition:\n hold(left_hand, clampgripper)&quot;*</title>
<ellipse fill="#ffec8b" stroke="black" cx="3163.32" cy="-33.94" rx="219.41" ry="33.88"/>
<text text-anchor="middle" x="3163.32" y="-39.54" font-family="Times,serif" font-size="18.00">&quot;precondition:</text>
<text text-anchor="middle" x="3163.32" y="-19.54" font-family="Times,serif" font-size="18.00"> hold(left_hand, clampgripper)&quot;*</text>
</g>
<!-- &quot;sequence:\n insert(left_hand, clampgripper, shaft1, gearbase_hole1)&quot;*&#45;&gt;&quot;precondition:\n hold(left_hand, clampgripper)&quot;* -->
<g id="edge19" class="edge">
<title>&quot;sequence:\n insert(left_hand, clampgripper, shaft1, gearbase_hole1)&quot;*&#45;&gt;&quot;precondition:\n hold(left_hand, clampgripper)&quot;*</title>
<path fill="none" stroke="black" d="M3756.18,-113.82C3648.5,-100.87 3512.45,-84.09 3391.32,-67.88 3371.13,-65.18 3349.95,-62.25 3328.97,-59.29"/>
<polygon fill="black" stroke="black" points="3329.42,-55.82 3319.03,-57.88 3328.44,-62.75 3329.42,-55.82"/>
</g>
<!-- precondition:
 hold(clampgripper, shaft1) -->
<g id="node21" class="node">
<title>precondition:
 hold(clampgripper, shaft1)</title>
<ellipse fill="#ffec8b" stroke="black" cx="3586.32" cy="-33.94" rx="185.94" ry="33.88"/>
<text text-anchor="middle" x="3586.32" y="-39.54" font-family="Times,serif" font-size="18.00">precondition:</text>
<text text-anchor="middle" x="3586.32" y="-19.54" font-family="Times,serif" font-size="18.00"> hold(clampgripper, shaft1)</text>
</g>
<!-- &quot;sequence:\n insert(left_hand, clampgripper, shaft1, gearbase_hole1)&quot;*&#45;&gt;precondition:
 hold(clampgripper, shaft1) -->
<g id="edge20" class="edge">
<title>&quot;sequence:\n insert(left_hand, clampgripper, shaft1, gearbase_hole1)&quot;*&#45;&gt;precondition:
 hold(clampgripper, shaft1)</title>
<path fill="none" stroke="black" d="M3868.5,-113.7C3817.31,-99.42 3751.02,-80.91 3695.56,-65.43"/>
<polygon fill="black" stroke="black" points="3696.27,-62 3685.69,-62.68 3694.38,-68.74 3696.27,-62"/>
</g>
<!-- &quot;precondition:\n can_manipulate(clampgripper, shaft1)&quot;* -->
<g id="node22" class="node">
<title>&quot;precondition:\n can_manipulate(clampgripper, shaft1)&quot;*</title>
<ellipse fill="#ffec8b" stroke="black" cx="4061.32" cy="-33.94" rx="270.64" ry="33.88"/>
<text text-anchor="middle" x="4061.32" y="-39.54" font-family="Times,serif" font-size="18.00">&quot;precondition:</text>
<text text-anchor="middle" x="4061.32" y="-19.54" font-family="Times,serif" font-size="18.00"> can_manipulate(clampgripper, shaft1)&quot;*</text>
</g>
<!-- &quot;sequence:\n insert(left_hand, clampgripper, shaft1, gearbase_hole1)&quot;*&#45;&gt;&quot;precondition:\n can_manipulate(clampgripper, shaft1)&quot;* -->
<g id="edge21" class="edge">
<title>&quot;sequence:\n insert(left_hand, clampgripper, shaft1, gearbase_hole1)&quot;*&#45;&gt;&quot;precondition:\n can_manipulate(clampgripper, shaft1)&quot;*</title>
<path fill="none" stroke="black" d="M3976.29,-113.7C3988.81,-102.11 4004.33,-87.73 4018.67,-74.45"/>
<polygon fill="black" stroke="black" points="4021.08,-76.99 4026.04,-67.62 4016.32,-71.85 4021.08,-76.99"/>
</g>
<!-- precondition:
 can_insert_to(shaft1, gearbase_hole1) -->
<g id="node23" class="node">
<title>precondition:
 can_insert_to(shaft1, gearbase_hole1)</title>
<ellipse fill="#ffec8b" stroke="black" cx="4608.32" cy="-33.94" rx="258.19" ry="33.88"/>
<text text-anchor="middle" x="4608.32" y="-39.54" font-family="Times,serif" font-size="18.00">precondition:</text>
<text text-anchor="middle" x="4608.32" y="-19.54" font-family="Times,serif" font-size="18.00"> can_insert_to(shaft1, gearbase_hole1)</text>
</g>
<!-- &quot;sequence:\n insert(left_hand, clampgripper, shaft1, gearbase_hole1)&quot;*&#45;&gt;precondition:
 can_insert_to(shaft1, gearbase_hole1) -->
<g id="edge22" class="edge">
<title>&quot;sequence:\n insert(left_hand, clampgripper, shaft1, gearbase_hole1)&quot;*&#45;&gt;precondition:
 can_insert_to(shaft1, gearbase_hole1)</title>
<path fill="none" stroke="black" d="M4100,-113.77C4199.47,-98.34 4330.73,-77.99 4434.95,-61.83"/>
<polygon fill="black" stroke="black" points="4435.61,-65.27 4444.95,-60.28 4434.53,-58.35 4435.61,-65.27"/>
</g>
<!-- action:
 insert(left_hand, clampgripper, shaft1, gearbase_hole1) -->
<g id="node24" class="node">
<title>action:
 insert(left_hand, clampgripper, shaft1, gearbase_hole1)</title>
<ellipse fill="lightgreen" stroke="black" cx="5255.32" cy="-33.94" rx="370.55" ry="33.88"/>
<text text-anchor="middle" x="5255.32" y="-39.54" font-family="Times,serif" font-size="18.00">action:</text>
<text text-anchor="middle" x="5255.32" y="-19.54" font-family="Times,serif" font-size="18.00"> insert(left_hand, clampgripper, shaft1, gearbase_hole1)</text>
</g>
<!-- &quot;sequence:\n insert(left_hand, clampgripper, shaft1, gearbase_hole1)&quot;*&#45;&gt;action:
 insert(left_hand, clampgripper, shaft1, gearbase_hole1) -->
<g id="edge23" class="edge">
<title>&quot;sequence:\n insert(left_hand, clampgripper, shaft1, gearbase_hole1)&quot;*&#45;&gt;action:
 insert(left_hand, clampgripper, shaft1, gearbase_hole1)</title>
<path fill="none" stroke="black" d="M4222.53,-117.45C4406.7,-104.08 4655.76,-85.59 4875.32,-67.88 4910.39,-65.05 4947.27,-61.98 4983.7,-58.89"/>
<polygon fill="black" stroke="black" points="4984.3,-62.35 4993.96,-58.01 4983.7,-55.37 4984.3,-62.35"/>
</g>
</g>
</svg>
