<?xml version="1.0" encoding="UTF-8" standalone="no"?>
<!DOCTYPE svg PUBLIC "-//W3C//DTD SVG 1.1//EN"
 "http://www.w3.org/Graphics/SVG/1.1/DTD/svg11.dtd">
<!-- Generated by graphviz version 2.43.0 (0)
 -->
<!-- Title: pastafarianism Pages: 1 -->
<svg width="3556pt" height="503pt"
 viewBox="0.00 0.00 3555.71 502.60" xmlns="http://www.w3.org/2000/svg" xmlns:xlink="http://www.w3.org/1999/xlink">
<g id="graph0" class="graph" transform="scale(1 1) rotate(0) translate(4 498.6)">
<title>pastafarianism</title>
<polygon fill="white" stroke="transparent" points="-4,4 -4,-498.6 3551.71,-498.6 3551.71,4 -4,4"/>
<!-- selector:
 insert(left_hand, clampgripper, shaft1, gearbase_hole1) -->
<g id="node1" class="node">
<title>selector:
 insert(left_hand, clampgripper, shaft1, gearbase_hole1)</title>
<polygon fill="#8deeee" stroke="black" points="2125.29,-442.54 2125.29,-473.18 1890.33,-494.84 1558.04,-494.84 1323.08,-473.18 1323.08,-442.54 1558.04,-420.88 1890.33,-420.88 2125.29,-442.54"/>
<text text-anchor="middle" x="1724.18" y="-463.46" font-family="Times,serif" font-size="18.00">selector:</text>
<text text-anchor="middle" x="1724.18" y="-443.46" font-family="Times,serif" font-size="18.00"> insert(left_hand, clampgripper, shaft1, gearbase_hole1)</text>
</g>
<!-- target:
 is_inserted_to(shaft1, gearbase_hole1) -->
<g id="node2" class="node">
<title>target:
 is_inserted_to(shaft1, gearbase_hole1)</title>
<ellipse fill="#ffec8b" stroke="black" cx="1453.18" cy="-351.18" rx="261.76" ry="33.88"/>
<text text-anchor="middle" x="1453.18" y="-356.78" font-family="Times,serif" font-size="18.00">target:</text>
<text text-anchor="middle" x="1453.18" y="-336.78" font-family="Times,serif" font-size="18.00"> is_inserted_to(shaft1, gearbase_hole1)</text>
</g>
<!-- selector:
 insert(left_hand, clampgripper, shaft1, gearbase_hole1)&#45;&gt;target:
 is_inserted_to(shaft1, gearbase_hole1) -->
<g id="edge1" class="edge">
<title>selector:
 insert(left_hand, clampgripper, shaft1, gearbase_hole1)&#45;&gt;target:
 is_inserted_to(shaft1, gearbase_hole1)</title>
<path fill="none" stroke="black" d="M1631.3,-420.98C1602.94,-410.03 1571.81,-398 1543.62,-387.11"/>
<polygon fill="black" stroke="black" points="1544.77,-383.8 1534.18,-383.47 1542.24,-390.33 1544.77,-383.8"/>
</g>
<!-- sequence:
 insert(left_hand, clampgripper, shaft1, gearbase_hole1) -->
<g id="node3" class="node">
<title>sequence:
 insert(left_hand, clampgripper, shaft1, gearbase_hole1)</title>
<polygon fill="#ff7f24" stroke="black" points="2257.18,-375.18 1733.18,-375.18 1733.18,-327.18 2257.18,-327.18 2257.18,-375.18"/>
<text text-anchor="middle" x="1995.18" y="-356.78" font-family="Times,serif" font-size="18.00">sequence:</text>
<text text-anchor="middle" x="1995.18" y="-336.78" font-family="Times,serif" font-size="18.00"> insert(left_hand, clampgripper, shaft1, gearbase_hole1)</text>
</g>
<!-- selector:
 insert(left_hand, clampgripper, shaft1, gearbase_hole1)&#45;&gt;sequence:
 insert(left_hand, clampgripper, shaft1, gearbase_hole1) -->
<g id="edge2" class="edge">
<title>selector:
 insert(left_hand, clampgripper, shaft1, gearbase_hole1)&#45;&gt;sequence:
 insert(left_hand, clampgripper, shaft1, gearbase_hole1)</title>
<path fill="none" stroke="black" d="M1817.07,-420.98C1852.77,-407.19 1892.86,-391.7 1925.96,-378.92"/>
<polygon fill="black" stroke="black" points="1927.48,-382.09 1935.54,-375.22 1924.95,-375.56 1927.48,-382.09"/>
</g>
<!-- selector:
 change_tool(left_hand, outwardgripper, clampgripper) -->
<g id="node4" class="node">
<title>selector:
 change_tool(left_hand, outwardgripper, clampgripper)</title>
<polygon fill="#8deeee" stroke="black" points="1081.95,-229.19 1081.95,-259.82 851.87,-281.48 526.49,-281.48 296.42,-259.82 296.42,-229.19 526.49,-207.53 851.87,-207.53 1081.95,-229.19"/>
<text text-anchor="middle" x="689.18" y="-250.1" font-family="Times,serif" font-size="18.00">selector:</text>
<text text-anchor="middle" x="689.18" y="-230.1" font-family="Times,serif" font-size="18.00"> change_tool(left_hand, outwardgripper, clampgripper)</text>
</g>
<!-- sequence:
 insert(left_hand, clampgripper, shaft1, gearbase_hole1)&#45;&gt;selector:
 change_tool(left_hand, outwardgripper, clampgripper) -->
<g id="edge3" class="edge">
<title>sequence:
 insert(left_hand, clampgripper, shaft1, gearbase_hole1)&#45;&gt;selector:
 change_tool(left_hand, outwardgripper, clampgripper)</title>
<path fill="none" stroke="black" d="M1818.96,-327.15C1787.44,-323.49 1754.86,-320.01 1724.18,-317.24 1453.25,-292.82 1384.51,-300.66 1113.18,-281.24 1070.45,-278.18 1025.33,-274.67 981.08,-271.08"/>
<polygon fill="black" stroke="black" points="981.31,-267.59 971.06,-270.26 980.74,-274.56 981.31,-267.59"/>
</g>
<!-- selector:
 pick_up(left_hand, clampgripper, shaft1) -->
<g id="node10" class="node">
<title>selector:
 pick_up(left_hand, clampgripper, shaft1)</title>
<polygon fill="#8deeee" stroke="black" points="1718.14,-229.19 1718.14,-259.82 1543.6,-281.48 1296.77,-281.48 1122.23,-259.82 1122.23,-229.19 1296.77,-207.53 1543.6,-207.53 1718.14,-229.19"/>
<text text-anchor="middle" x="1420.18" y="-250.1" font-family="Times,serif" font-size="18.00">selector:</text>
<text text-anchor="middle" x="1420.18" y="-230.1" font-family="Times,serif" font-size="18.00"> pick_up(left_hand, clampgripper, shaft1)</text>
</g>
<!-- sequence:
 insert(left_hand, clampgripper, shaft1, gearbase_hole1)&#45;&gt;selector:
 pick_up(left_hand, clampgripper, shaft1) -->
<g id="edge9" class="edge">
<title>sequence:
 insert(left_hand, clampgripper, shaft1, gearbase_hole1)&#45;&gt;selector:
 pick_up(left_hand, clampgripper, shaft1)</title>
<path fill="none" stroke="black" d="M1868.64,-327.14C1789.2,-312.68 1685.58,-293.82 1597.95,-277.86"/>
<polygon fill="black" stroke="black" points="1598.36,-274.38 1587.89,-276.03 1597.1,-281.27 1598.36,-274.38"/>
</g>
<!-- precondition:
 can_manipulate(clampgripper, shaft1) -->
<g id="node16" class="node">
<title>precondition:
 can_manipulate(clampgripper, shaft1)</title>
<ellipse fill="#ffec8b" stroke="black" cx="1995.18" cy="-244.5" rx="258.6" ry="33.88"/>
<text text-anchor="middle" x="1995.18" y="-250.1" font-family="Times,serif" font-size="18.00">precondition:</text>
<text text-anchor="middle" x="1995.18" y="-230.1" font-family="Times,serif" font-size="18.00"> can_manipulate(clampgripper, shaft1)</text>
</g>
<!-- sequence:
 insert(left_hand, clampgripper, shaft1, gearbase_hole1)&#45;&gt;precondition:
 can_manipulate(clampgripper, shaft1) -->
<g id="edge15" class="edge">
<title>sequence:
 insert(left_hand, clampgripper, shaft1, gearbase_hole1)&#45;&gt;precondition:
 can_manipulate(clampgripper, shaft1)</title>
<path fill="none" stroke="black" d="M1995.18,-326.95C1995.18,-315.73 1995.18,-301.9 1995.18,-288.84"/>
<polygon fill="black" stroke="black" points="1998.68,-288.6 1995.18,-278.6 1991.68,-288.6 1998.68,-288.6"/>
</g>
<!-- precondition:
 can_insert_to(shaft1, gearbase_hole1) -->
<g id="node17" class="node">
<title>precondition:
 can_insert_to(shaft1, gearbase_hole1)</title>
<ellipse fill="#ffec8b" stroke="black" cx="2530.18" cy="-244.5" rx="258.19" ry="33.88"/>
<text text-anchor="middle" x="2530.18" y="-250.1" font-family="Times,serif" font-size="18.00">precondition:</text>
<text text-anchor="middle" x="2530.18" y="-230.1" font-family="Times,serif" font-size="18.00"> can_insert_to(shaft1, gearbase_hole1)</text>
</g>
<!-- sequence:
 insert(left_hand, clampgripper, shaft1, gearbase_hole1)&#45;&gt;precondition:
 can_insert_to(shaft1, gearbase_hole1) -->
<g id="edge16" class="edge">
<title>sequence:
 insert(left_hand, clampgripper, shaft1, gearbase_hole1)&#45;&gt;precondition:
 can_insert_to(shaft1, gearbase_hole1)</title>
<path fill="none" stroke="black" d="M2112.92,-327.14C2191.34,-311.8 2295.11,-291.5 2379.54,-274.98"/>
<polygon fill="black" stroke="black" points="2380.33,-278.39 2389.47,-273.03 2378.99,-271.52 2380.33,-278.39"/>
</g>
<!-- action:
 insert(left_hand, clampgripper, shaft1, gearbase_hole1) -->
<g id="node18" class="node">
<title>action:
 insert(left_hand, clampgripper, shaft1, gearbase_hole1)</title>
<ellipse fill="lightgreen" stroke="black" cx="3177.18" cy="-244.5" rx="370.55" ry="33.88"/>
<text text-anchor="middle" x="3177.18" y="-250.1" font-family="Times,serif" font-size="18.00">action:</text>
<text text-anchor="middle" x="3177.18" y="-230.1" font-family="Times,serif" font-size="18.00"> insert(left_hand, clampgripper, shaft1, gearbase_hole1)</text>
</g>
<!-- sequence:
 insert(left_hand, clampgripper, shaft1, gearbase_hole1)&#45;&gt;action:
 insert(left_hand, clampgripper, shaft1, gearbase_hole1) -->
<g id="edge17" class="edge">
<title>sequence:
 insert(left_hand, clampgripper, shaft1, gearbase_hole1)&#45;&gt;action:
 insert(left_hand, clampgripper, shaft1, gearbase_hole1)</title>
<path fill="none" stroke="black" d="M2257.55,-328.16C2414.21,-314.88 2617.11,-297.45 2797.18,-281.24 2835.44,-277.8 2875.85,-274.08 2915.48,-270.39"/>
<polygon fill="black" stroke="black" points="2915.9,-273.87 2925.54,-269.46 2915.25,-266.9 2915.9,-273.87"/>
</g>
<!-- target:
 hold(left_hand, clampgripper) -->
<g id="node5" class="node">
<title>target:
 hold(left_hand, clampgripper)</title>
<ellipse fill="#ffec8b" stroke="black" cx="207.18" cy="-137.82" rx="207.36" ry="33.88"/>
<text text-anchor="middle" x="207.18" y="-143.42" font-family="Times,serif" font-size="18.00">target:</text>
<text text-anchor="middle" x="207.18" y="-123.42" font-family="Times,serif" font-size="18.00"> hold(left_hand, clampgripper)</text>
</g>
<!-- selector:
 change_tool(left_hand, outwardgripper, clampgripper)&#45;&gt;target:
 hold(left_hand, clampgripper) -->
<g id="edge4" class="edge">
<title>selector:
 change_tool(left_hand, outwardgripper, clampgripper)&#45;&gt;target:
 hold(left_hand, clampgripper)</title>
<path fill="none" stroke="black" d="M524.32,-207.7C463.88,-194.57 396.33,-179.9 339.16,-167.48"/>
<polygon fill="black" stroke="black" points="339.85,-164.06 329.34,-165.35 338.37,-170.9 339.85,-164.06"/>
</g>
<!-- sequence:
 change_tool(left_hand, outwardgripper, clampgripper) -->
<g id="node6" class="node">
<title>sequence:
 change_tool(left_hand, outwardgripper, clampgripper)</title>
<polygon fill="#ff7f24" stroke="black" points="945.68,-161.82 432.68,-161.82 432.68,-113.82 945.68,-113.82 945.68,-161.82"/>
<text text-anchor="middle" x="689.18" y="-143.42" font-family="Times,serif" font-size="18.00">sequence:</text>
<text text-anchor="middle" x="689.18" y="-123.42" font-family="Times,serif" font-size="18.00"> change_tool(left_hand, outwardgripper, clampgripper)</text>
</g>
<!-- selector:
 change_tool(left_hand, outwardgripper, clampgripper)&#45;&gt;sequence:
 change_tool(left_hand, outwardgripper, clampgripper) -->
<g id="edge5" class="edge">
<title>selector:
 change_tool(left_hand, outwardgripper, clampgripper)&#45;&gt;sequence:
 change_tool(left_hand, outwardgripper, clampgripper)</title>
<path fill="none" stroke="black" d="M689.18,-207.48C689.18,-196.09 689.18,-183.57 689.18,-172.36"/>
<polygon fill="black" stroke="black" points="692.68,-172.11 689.18,-162.11 685.68,-172.11 692.68,-172.11"/>
</g>
<!-- precondition:
 hold(left_hand, outwardgripper) -->
<g id="node7" class="node">
<title>precondition:
 hold(left_hand, outwardgripper)</title>
<ellipse fill="#ffec8b" stroke="black" cx="256.18" cy="-33.94" rx="221.15" ry="33.88"/>
<text text-anchor="middle" x="256.18" y="-39.54" font-family="Times,serif" font-size="18.00">precondition:</text>
<text text-anchor="middle" x="256.18" y="-19.54" font-family="Times,serif" font-size="18.00"> hold(left_hand, outwardgripper)</text>
</g>
<!-- sequence:
 change_tool(left_hand, outwardgripper, clampgripper)&#45;&gt;precondition:
 hold(left_hand, outwardgripper) -->
<g id="edge6" class="edge">
<title>sequence:
 change_tool(left_hand, outwardgripper, clampgripper)&#45;&gt;precondition:
 hold(left_hand, outwardgripper)</title>
<path fill="none" stroke="black" d="M591.2,-113.77C529.98,-99.36 450.48,-80.66 384.29,-65.08"/>
<polygon fill="black" stroke="black" points="384.74,-61.59 374.21,-62.71 383.14,-68.41 384.74,-61.59"/>
</g>
<!-- precondition:
 is_empty(outwardgripper) -->
<g id="node8" class="node">
<title>precondition:
 is_empty(outwardgripper)</title>
<ellipse fill="#ffec8b" stroke="black" cx="678.18" cy="-33.94" rx="183.28" ry="33.88"/>
<text text-anchor="middle" x="678.18" y="-39.54" font-family="Times,serif" font-size="18.00">precondition:</text>
<text text-anchor="middle" x="678.18" y="-19.54" font-family="Times,serif" font-size="18.00"> is_empty(outwardgripper)</text>
</g>
<!-- sequence:
 change_tool(left_hand, outwardgripper, clampgripper)&#45;&gt;precondition:
 is_empty(outwardgripper) -->
<g id="edge7" class="edge">
<title>sequence:
 change_tool(left_hand, outwardgripper, clampgripper)&#45;&gt;precondition:
 is_empty(outwardgripper)</title>
<path fill="none" stroke="black" d="M686.69,-113.7C685.55,-103.16 684.16,-90.31 682.84,-78.08"/>
<polygon fill="black" stroke="black" points="686.31,-77.58 681.75,-68.01 679.35,-78.33 686.31,-77.58"/>
</g>
<!-- action:
 change_tool(left_hand, outwardgripper, clampgripper) -->
<g id="node9" class="node">
<title>action:
 change_tool(left_hand, outwardgripper, clampgripper)</title>
<ellipse fill="lightgreen" stroke="black" cx="1242.18" cy="-33.94" rx="362.99" ry="33.88"/>
<text text-anchor="middle" x="1242.18" y="-39.54" font-family="Times,serif" font-size="18.00">action:</text>
<text text-anchor="middle" x="1242.18" y="-19.54" font-family="Times,serif" font-size="18.00"> change_tool(left_hand, outwardgripper, clampgripper)</text>
</g>
<!-- sequence:
 change_tool(left_hand, outwardgripper, clampgripper)&#45;&gt;action:
 change_tool(left_hand, outwardgripper, clampgripper) -->
<g id="edge8" class="edge">
<title>sequence:
 change_tool(left_hand, outwardgripper, clampgripper)&#45;&gt;action:
 change_tool(left_hand, outwardgripper, clampgripper)</title>
<path fill="none" stroke="black" d="M814.32,-113.77C890.48,-99.74 988.78,-81.63 1071.96,-66.3"/>
<polygon fill="black" stroke="black" points="1072.82,-69.7 1082.02,-64.45 1071.55,-62.82 1072.82,-69.7"/>
</g>
<!-- target:
 hold(clampgripper, shaft1) -->
<g id="node11" class="node">
<title>target:
 hold(clampgripper, shaft1)</title>
<ellipse fill="#ffec8b" stroke="black" cx="1420.18" cy="-137.82" rx="185.94" ry="33.88"/>
<text text-anchor="middle" x="1420.18" y="-143.42" font-family="Times,serif" font-size="18.00">target:</text>
<text text-anchor="middle" x="1420.18" y="-123.42" font-family="Times,serif" font-size="18.00"> hold(clampgripper, shaft1)</text>
</g>
<!-- selector:
 pick_up(left_hand, clampgripper, shaft1)&#45;&gt;target:
 hold(clampgripper, shaft1) -->
<g id="edge10" class="edge">
<title>selector:
 pick_up(left_hand, clampgripper, shaft1)&#45;&gt;target:
 hold(clampgripper, shaft1)</title>
<path fill="none" stroke="black" d="M1420.18,-207.48C1420.18,-199.32 1420.18,-190.58 1420.18,-182.15"/>
<polygon fill="black" stroke="black" points="1423.68,-182.1 1420.18,-172.1 1416.68,-182.1 1423.68,-182.1"/>
</g>
<!-- sequence:
 pick_up(left_hand, clampgripper, shaft1) -->
<g id="node12" class="node">
<title>sequence:
 pick_up(left_hand, clampgripper, shaft1)</title>
<polygon fill="#ff7f24" stroke="black" points="2221.68,-161.82 1832.68,-161.82 1832.68,-113.82 2221.68,-113.82 2221.68,-161.82"/>
<text text-anchor="middle" x="2027.18" y="-143.42" font-family="Times,serif" font-size="18.00">sequence:</text>
<text text-anchor="middle" x="2027.18" y="-123.42" font-family="Times,serif" font-size="18.00"> pick_up(left_hand, clampgripper, shaft1)</text>
</g>
<!-- selector:
 pick_up(left_hand, clampgripper, shaft1)&#45;&gt;sequence:
 pick_up(left_hand, clampgripper, shaft1) -->
<g id="edge11" class="edge">
<title>selector:
 pick_up(left_hand, clampgripper, shaft1)&#45;&gt;sequence:
 pick_up(left_hand, clampgripper, shaft1)</title>
<path fill="none" stroke="black" d="M1593.31,-213.65C1685.09,-197.82 1796.5,-178.61 1883.45,-163.61"/>
<polygon fill="black" stroke="black" points="1884.13,-167.05 1893.39,-161.9 1882.94,-160.15 1884.13,-167.05"/>
</g>
<!-- precondition:
 hold(left_hand, clampgripper) -->
<g id="node13" class="node">
<title>precondition:
 hold(left_hand, clampgripper)</title>
<ellipse fill="#ffec8b" stroke="black" cx="1830.18" cy="-33.94" rx="207.36" ry="33.88"/>
<text text-anchor="middle" x="1830.18" y="-39.54" font-family="Times,serif" font-size="18.00">precondition:</text>
<text text-anchor="middle" x="1830.18" y="-19.54" font-family="Times,serif" font-size="18.00"> hold(left_hand, clampgripper)</text>
</g>
<!-- sequence:
 pick_up(left_hand, clampgripper, shaft1)&#45;&gt;precondition:
 hold(left_hand, clampgripper) -->
<g id="edge12" class="edge">
<title>sequence:
 pick_up(left_hand, clampgripper, shaft1)&#45;&gt;precondition:
 hold(left_hand, clampgripper)</title>
<path fill="none" stroke="black" d="M1982.48,-113.7C1958.21,-101.15 1927.64,-85.35 1900.28,-71.19"/>
<polygon fill="black" stroke="black" points="1901.63,-67.95 1891.14,-66.46 1898.41,-74.17 1901.63,-67.95"/>
</g>
<!-- precondition:
 is_empty(clampgripper) -->
<g id="node14" class="node">
<title>precondition:
 is_empty(clampgripper)</title>
<ellipse fill="#ffec8b" stroke="black" cx="2224.18" cy="-33.94" rx="169" ry="33.88"/>
<text text-anchor="middle" x="2224.18" y="-39.54" font-family="Times,serif" font-size="18.00">precondition:</text>
<text text-anchor="middle" x="2224.18" y="-19.54" font-family="Times,serif" font-size="18.00"> is_empty(clampgripper)</text>
</g>
<!-- sequence:
 pick_up(left_hand, clampgripper, shaft1)&#45;&gt;precondition:
 is_empty(clampgripper) -->
<g id="edge13" class="edge">
<title>sequence:
 pick_up(left_hand, clampgripper, shaft1)&#45;&gt;precondition:
 is_empty(clampgripper)</title>
<path fill="none" stroke="black" d="M2071.88,-113.7C2096.46,-100.99 2127.49,-84.95 2155.12,-70.66"/>
<polygon fill="black" stroke="black" points="2157.07,-73.59 2164.34,-65.89 2153.85,-67.37 2157.07,-73.59"/>
</g>
<!-- action:
 pick_up(left_hand, clampgripper, shaft1) -->
<g id="node15" class="node">
<title>action:
 pick_up(left_hand, clampgripper, shaft1)</title>
<ellipse fill="lightgreen" stroke="black" cx="2686.18" cy="-33.94" rx="275.13" ry="33.88"/>
<text text-anchor="middle" x="2686.18" y="-39.54" font-family="Times,serif" font-size="18.00">action:</text>
<text text-anchor="middle" x="2686.18" y="-19.54" font-family="Times,serif" font-size="18.00"> pick_up(left_hand, clampgripper, shaft1)</text>
</g>
<!-- sequence:
 pick_up(left_hand, clampgripper, shaft1)&#45;&gt;action:
 pick_up(left_hand, clampgripper, shaft1) -->
<g id="edge14" class="edge">
<title>sequence:
 pick_up(left_hand, clampgripper, shaft1)&#45;&gt;action:
 pick_up(left_hand, clampgripper, shaft1)</title>
<path fill="none" stroke="black" d="M2176.31,-113.77C2274.88,-98.53 2404.59,-78.48 2508.51,-62.41"/>
<polygon fill="black" stroke="black" points="2509.14,-65.85 2518.49,-60.87 2508.07,-58.94 2509.14,-65.85"/>
</g>
</g>
</svg>
